<?xml version="1.0" encoding="UTF-8"?><svg id="Capa_1" xmlns="http://www.w3.org/2000/svg" viewBox="0 0 566.93 566.93"><defs><style>.cls-1,.cls-2{fill:#fff;}.cls-3{font-family:AdobeDevanagari-Regular, 'Adobe Devanagari';font-size:61px;}.cls-3,.cls-4{fill:#1d1d1b;}.cls-2{font-family:MyriadPro-Regular, 'Myriad Pro';font-size:46.34px;}</style></defs><circle class="cls-1" cx="285.25" cy="283.83" r="275.29"/><path class="cls-4" d="m285.57,450.08c100.3,0,186.52-73.34,204.18-171.9,17.57-98.07-40.7-205.68-149.5-235.62-5.15-1.42-9.2-3.23-9.42-9.41-.26-7.16,3.38-11.27,10.47-10.3,14.63,2,28.6,6.73,42.09,12.49,87.86,37.45,143.12,102.85,161.4,196.47,27.52,140.93-63.62,276.42-202.55,306.91-141.86,31.13-281.4-56.56-314.45-198.32C-5.11,199.35,81.68,57.42,224.99,23.32c10.41-2.48,16.01,2.09,14.48,11.55-.83,5.16-4.58,6.42-8.76,7.55-27.03,7.3-51.7,19.45-73.57,36.93-45.28,36.18-71.99,83.25-77.96,140.77-7.27,70,16.11,129.43,67.93,176.87,38.24,35.01,87.59,53.09,138.46,53.09Z"/><text class="cls-2" transform="translate(163.7 486.57) rotate(27.58)"><tspan x="0" y="0">A</tspan></text><text class="cls-2" transform="translate(191.33 500.87) rotate(19.73)"><tspan x="0" y="0">N</tspan></text><text class="cls-2" transform="translate(222.59 511.72) rotate(12.3)"><tspan x="0" y="0">K</tspan></text><text class="cls-2" transform="translate(248.78 517.04) rotate(7.65)"><tspan x="0" y="0"> </tspan></text><text class="cls-2" transform="translate(257.92 518.51) rotate(3.79)"><tspan x="0" y="0">T</tspan></text><text class="cls-2" transform="translate(283.03 520.06) rotate(-2.27)"><tspan x="0" y="0">E</tspan></text><text class="cls-2" transform="translate(308.18 519.08) rotate(-9.01)"><tspan x="0" y="0">A</tspan></text><text class="cls-2" transform="translate(339.02 514.32) rotate(-17.6)"><tspan x="0" y="0">M</tspan></text><text class="cls-2" transform="translate(376.94 501.56) rotate(-25.56)"><tspan x="0" y="0">S</tspan></text><text class="cls-3" transform="translate(246.44 102.23) rotate(-3.67)"><tspan x="0" y="0">अ</tspan></text><text class="cls-3" transform="translate(284.03 100.45) rotate(.18)"><tspan x="0" y="0">ं</tspan></text><text class="cls-3" transform="translate(283.45 99.89) rotate(3.69)"><tspan x="0" y="0">क</tspan></text><g><path class="cls-4" d="m324.98,316.05c2.23-2.73,3.93-4.81,5.76-7.04,6.29,12.17,11.9,23.78,14.86,36.53,6.21,26.77-7.36,40.43-34.15,34.23-21.32-4.93-39.76-15.83-57.61-27.88-6.67-4.51-13.01-9.52-19.56-14.34,10.57-10.85,20.94-21.72,31.54-32.35,45.63-45.79,91.37-91.47,136.92-137.34,4.1-4.13,8.26-6.23,14.12-6.13,6.76.12,13.54-.63,20.79-1.03.2,10.26-.15,19.96-.95,27.58-47.59,48.54-93.99,95.85-140.89,143.68,7,4.21,14.36,7.3,22.98,6.54,5.05-.44,7-3.73,7.9-8.22,1.01-5.02-1.15-9.63-1.69-14.22Z"/><path class="cls-4" d="m145.8,338.29c59.8-58.8,119.6-117.61,179.39-176.41,7.25-.4,16.72-.92,27-1.49-.49,10.21-.95,19.89-1.45,30.4-59.99,59.27-119.97,118.54-179.96,177.8l3.69-29.76-28.67-.55Z"/><path class="cls-4" d="m175.6,279.91c-19.73-25.91-37.96-50.74-44.95-81.63-5.47-24.15,5.13-36.16,29.5-33.23,15.19,1.82,28.97,8.09,42.42,16.19-2.34,2.15-4.3,3.95-6.17,5.66-4.07-.89-7.83-2.09-11.67-2.48-7.86-.8-11.87,3.12-12.21,10.99-.36,8.25,3.99,14.88,6.92,21.9,18.66-18.9,37.25-37.74,54.17-54.88,12.44-.7,21.69-1.21,31.49-1.76,1.06,9.8-.58,19.45-.71,28.46-29.65,30.31-58.89,60.21-88.8,90.79Z"/></g></svg>