<?xml version="1.0" encoding="UTF-8"?><svg id="Capa_1" xmlns="http://www.w3.org/2000/svg" viewBox="0 0 566.93 566.93"><defs><style>.cls-1,.cls-2,.cls-3{fill:#fff;}.cls-2{font-size:68.17px;}.cls-2,.cls-3{font-family:SmoochSans-SemiBold, 'Smooch Sans';font-weight:600;}.cls-4{fill:#e10b1b;}.cls-5{fill:#2790cf;}.cls-3{font-size:78.43px;}</style></defs><g><path class="cls-1" d="m283.46,525.34c-64.61,0-125.35-25.16-171.03-70.84-45.68-45.68-70.84-106.43-70.84-171.03s25.16-125.35,70.84-171.03c45.69-45.68,106.43-70.84,171.03-70.84s125.35,25.16,171.03,70.84c45.68,45.69,70.84,106.43,70.84,171.03s-25.16,125.35-70.84,171.03-106.43,70.84-171.03,70.84Z"/><path class="cls-5" d="m283.46,76.09c55.39,0,107.47,21.57,146.64,60.74,39.17,39.17,60.74,91.25,60.74,146.64s-21.57,107.47-60.74,146.64-91.25,60.74-146.64,60.74-107.47-21.57-146.64-60.74c-39.17-39.17-60.74-91.25-60.74-146.64s21.57-107.47,60.74-146.64c39.17-39.17,91.25-60.74,146.64-60.74m0-69C130.83,7.09,7.09,130.83,7.09,283.46s123.74,276.38,276.38,276.38,276.38-123.74,276.38-276.38S436.1,7.09,283.46,7.09h0Z"/></g><text class="cls-3" transform="translate(138.18 120.15) rotate(-37.77)"><tspan x="0" y="0">C</tspan></text><text class="cls-3" transform="translate(160.03 103.07) rotate(-30.41)"><tspan x="0" y="0">O</tspan></text><text class="cls-3" transform="translate(184.35 88.66) rotate(-22.96)"><tspan x="0" y="0">D</tspan></text><text class="cls-3" transform="translate(210.83 77.4) rotate(-15.69)"><tspan x="0" y="0">E</tspan></text><text class="cls-3" transform="translate(237.22 70.25) rotate(-10.24)"><tspan x="0" y="0">:</tspan></text><text class="cls-3" transform="translate(251.74 67.64) rotate(-6.77)"><tspan x="0" y="0"> </tspan></text><text class="cls-3" transform="translate(263.02 65.87) rotate(-1.57)"><tspan x="0" y="0">C</tspan></text><text class="cls-3" transform="translate(290.73 64.97) rotate(5.88)"><tspan x="0" y="0">A</tspan></text><text class="cls-3" transform="translate(319.32 67.83) rotate(13.38)"><tspan x="0" y="0">P</tspan></text><text class="cls-3" transform="translate(346.91 74.72) rotate(18.8)"><tspan x="0" y="0">I</tspan></text><text class="cls-3" transform="translate(359.13 78.56) rotate(23.73)"><tspan x="0" y="0">T</tspan></text><text class="cls-3" transform="translate(381.34 88.07) rotate(30.47)"><tspan x="0" y="0">O</tspan></text><text class="cls-3" transform="translate(405.79 102.48) rotate(37.42)"><tspan x="0" y="0">L</tspan></text><text class="cls-2" transform="translate(36.72 380.57) rotate(65.49)"><tspan x="0" y="0">N</tspan></text><text class="cls-2" transform="translate(49.88 408.77) rotate(59.05)"><tspan x="0" y="0">E</tspan></text><text class="cls-2" transform="translate(64.32 432.59) rotate(52.89)"><tspan x="0" y="0">O</tspan></text><text class="cls-2" transform="translate(81.52 455.27) rotate(46.25)"><tspan x="0" y="0">T</tspan></text><text class="cls-2" transform="translate(99.05 473.78) rotate(41.48)"><tspan x="0" y="0">E</tspan></text><text class="cls-2" transform="translate(120.02 492.19) rotate(35.2)"><tspan x="0" y="0">R</tspan></text><text class="cls-2" transform="translate(144.84 509.47) rotate(28.61)"><tspan x="0" y="0">R</tspan></text><text class="cls-2" transform="translate(171.45 523.76) rotate(22.1)"><tspan x="0" y="0">A</tspan></text><text class="cls-2" transform="translate(198.94 534.77) rotate(15.51)"><tspan x="0" y="0">N</tspan></text><text class="cls-2" transform="translate(228.21 542.43) rotate(10.82)"><tspan x="0" y="0"> </tspan></text><text class="cls-2" transform="translate(240.99 545.07) rotate(6.46)"><tspan x="0" y="0">S</tspan></text><text class="cls-2" transform="translate(269.19 548.12) rotate(.25)"><tspan x="0" y="0">U</tspan></text><text class="cls-2" transform="translate(298.58 548.07) rotate(-6.01)"><tspan x="0" y="0">P</tspan></text><text class="cls-2" transform="translate(327.24 544.89) rotate(-12.24)"><tspan x="0" y="0">P</tspan></text><text class="cls-2" transform="translate(355.42 538.61) rotate(-18.52)"><tspan x="0" y="0">O</tspan></text><text class="cls-2" transform="translate(383.01 529.21) rotate(-24.98)"><tspan x="0" y="0">R</tspan></text><text class="cls-2" transform="translate(410.06 516.3) rotate(-31.05)"><tspan x="0" y="0">T</tspan></text><text class="cls-2" transform="translate(431.08 503.32) rotate(-35.13)"><tspan x="0" y="0"> </tspan></text><text class="cls-2" transform="translate(441.81 495.98) rotate(-39.4)"><tspan x="0" y="0">F</tspan></text><text class="cls-2" transform="translate(462.86 478.56) rotate(-45.36)"><tspan x="0" y="0">O</tspan></text><text class="cls-2" transform="translate(483.21 457.74) rotate(-51.74)"><tspan x="0" y="0">R</tspan></text><text class="cls-2" transform="translate(501.48 434.26) rotate(-58.05)"><tspan x="0" y="0">C</tspan></text><text class="cls-2" transform="translate(516.42 409.95) rotate(-64.2)"><tspan x="0" y="0">E</tspan></text><g><g><path class="cls-4" d="m282.3,394.18c-43.29-33.86-86.52-67.68-129.91-101.62l-112.75-88.2h159.05l.54.42c14.65,11.45,29.07,22.72,43.9,34.29l27.07-67.86h38.07l26.03,30.23h-25.36c5.11,12.82,10,25.06,15.02,37.64l44.29-34.6h159.03s-190.26,148.84-242.52,189.72l-1.23.96-1.23-.96Z"/><path class="cls-1" d="m307.35,173.21c7.23,8.4,14.42,16.75,22.58,26.23h-23.95c5.85,14.67,11.37,28.5,17.1,42.85,15.72-12.28,30.84-24.1,45.85-35.82h152.54c-79.94,62.53-158.88,124.29-237.95,186.14-79.12-61.89-158.04-123.63-238.08-186.25h152.56c15.34,11.99,30.43,23.78,46,35.93,9.37-23.49,18.46-46.27,27.55-69.08h35.8m1.83-4h-40.34l-1,2.52-8.08,20.27c-5.78,14.48-11.58,29.04-17.49,43.86-14.09-11-27.84-21.74-41.79-32.65l-1.09-.85H33.84l9.14,7.15c36.74,28.74,73.24,57.29,109.63,85.76,42.9,33.56,85.64,67,128.45,100.48l2.46,1.93,2.46-1.93c50.55-39.54,101.04-79.04,151.77-118.73l86.18-67.42,9.14-7.15h-165.52l-1.09.85-19.92,15.57c-7.15,5.59-14.38,11.24-21.73,16.98-4.32-10.82-8.55-21.43-12.94-32.42h26.77l-5.69-6.61-3.46-4.01c-6.77-7.86-12.93-15.02-19.13-22.21l-1.2-1.39h0Z"/></g><g><polygon class="cls-4" points="222.75 427.24 252.17 376.29 283.56 400.72 314.87 376.27 344.33 427.24 222.75 427.24"/><path class="cls-1" d="m314.29,379.26c8.79,15.2,17.48,30.24,26.58,45.98h-114.66c9.03-15.63,17.7-30.65,26.55-45.97,10.57,8.23,20.67,16.09,30.81,23.98,10.3-8.04,20.29-15.84,30.73-23.99m1.16-5.98l-3.62,2.83-4.64,3.62-23.63,18.45-28.35-22.06-3.62-2.82-2.3,3.98-26.55,45.97-3.47,6h128.52l-3.47-6-14.67-25.38-11.91-20.6-2.3-3.98h0Z"/></g></g><g><path class="cls-1" d="m333.68,321.58c-7.1-1.25-14.21-2.41-21.39-3.21-27.03-3.04-53.84-1.53-80.51,3.56-1.15.22-1.98.69-2.18,1.98.74,1.94,2.86,2.11,4.28,3.19v12.6h99.01v-12.14c1.57-1.42,4.01-1.84,4.42-4.24-.94-1.41-2.36-1.5-3.64-1.73Z"/><path class="cls-1" d="m273.74,244.17v8.52c-.61.78-1.66,1.21-1.6,2.64,6.49-1.87,12.92-1.8,19.38.11,0-1.58-1.18-2.08-1.78-2.89v-8.22c2.53-3.41,2.52-5.6.02-7.35-3.99-2.79-11.99-2.78-15.93,0-2.15,1.52-2.52,3.66-1.02,5.88.31.46.66.91.94,1.29Z"/><path class="cls-1" d="m286.93,230.05c.2-1.56-.44-2.59-1.21-3.47-.95-1.09-2.02-10.92-4.03-10.92-1.76,0-3.1,10.05-4.22,11.22-.75.79-1.41,1.77-.83,3.15,3.37-.87,6.72-.84,10.29.01Z"/><path class="cls-1" d="m236.6,315.43c7.26-1.18,14.52-2.29,21.85-2.99,20.12-1.94,40.15-1.38,60.13,1.69,2.96.45,5.91.91,8.93,1.38-.25-5.17-.91-10.01-1.9-14.79-2.04-9.88-5.3-19.29-12.04-27-9.34-10.7-21.2-16.47-35.47-14.97-14.23,1.5-25.39,8.75-32.68,21.3-6.25,10.76-8.6,22.63-9.38,34.88h0c-.14.55.07.68.57.49Z"/></g></svg>