<?xml version="1.0" encoding="UTF-8"?><svg id="Capa_1" xmlns="http://www.w3.org/2000/svg" viewBox="0 0 566.93 566.93"><defs><style>.cls-1{fill:#7c8769;}.cls-2{fill:#614132;}.cls-3{font-family:Stencil, Stencil;font-size:50px;}.cls-3,.cls-4{fill:#f0efd1;}</style></defs><g><circle class="cls-1" cx="283.46" cy="283.46" r="276.38"/><circle class="cls-1" cx="283.46" cy="283.46" r="169.92"/><path class="cls-4" d="m283.46,111.31c45.99,0,89.22,17.91,121.73,50.42,32.52,32.52,50.42,75.75,50.42,121.73s-17.91,89.22-50.42,121.73-75.75,50.42-121.73,50.42-89.22-17.91-121.73-50.42c-32.52-32.52-50.42-75.75-50.42-121.73s17.91-89.22,50.42-121.73c32.52-32.52,75.75-50.42,121.73-50.42m0-9c-100.05,0-181.16,81.11-181.16,181.16s81.11,181.16,181.16,181.16,181.16-81.11,181.16-181.16-81.11-181.16-181.16-181.16h0Z"/><path class="cls-2" d="m283.46,92.52c51,0,98.95,19.86,135.02,55.93,36.06,36.06,55.93,84.01,55.93,135.02s-19.86,98.95-55.93,135.02c-36.06,36.06-84.01,55.93-135.02,55.93s-98.95-19.86-135.02-55.93c-36.06-36.06-55.93-84.01-55.93-135.02s19.86-98.95,55.93-135.02c36.06-36.06,84.01-55.93,135.02-55.93m0-61c-139.14,0-251.94,112.8-251.94,251.94s112.8,251.94,251.94,251.94,251.94-112.8,251.94-251.94S422.61,31.52,283.46,31.52h0Z"/><polygon class="cls-4" points="56.47 295.98 39.06 298.79 47.41 283.26 39.35 267.57 56.71 270.72 69.14 258.21 71.51 275.68 87.24 283.64 71.36 291.29 68.65 308.72 56.47 295.98"/><polygon class="cls-4" points="132.23 452.91 122.15 466.7 117.34 450.31 101.11 444.99 115.21 435.35 115.26 418.27 128.78 428.7 145.04 423.47 139.3 439.55 149.3 453.4 132.23 452.91"/><polygon class="cls-4" points="509.82 295.98 527.23 298.79 518.87 283.26 526.93 267.57 509.58 270.72 497.15 258.21 494.78 275.68 479.04 283.64 494.93 291.29 497.63 308.72 509.82 295.98"/><polygon class="cls-4" points="437.06 453.91 447.14 467.7 451.95 451.31 468.17 445.99 454.08 436.35 454.02 419.27 440.5 429.7 424.24 424.47 429.98 440.55 419.98 454.4 437.06 453.91"/><polygon class="cls-4" points="288.81 414.39 288.81 409.7 297.52 418.42 297.52 408.34 290.16 400.97 290.16 395.53 297.3 402.68 297.3 377.47 286.8 362.02 287.09 167.63 294.71 177.48 284.46 119.36 283.46 119.54 282.47 119.36 272.22 177.48 279.84 167.63 280.13 362.02 269.63 377.47 269.63 402.68 276.77 395.53 276.77 400.97 269.41 408.34 269.41 418.42 278.11 409.7 278.11 414.39 268.67 423.84 268.67 443.48 283.46 428.69 298.26 443.48 298.26 423.84 288.81 414.39"/><path class="cls-2" d="m375.09,352.61l-125.78-125.78,8.78-8.78-.6-.6c1.21.5,2.53.78,3.91.78,5.65,0,10.22-4.58,10.22-10.22s-4.58-10.22-10.22-10.22-10.22,4.58-10.22,10.22c0,1.39.28,2.71.78,3.91l-.35-.35-12.02,12.02-37.52-37.52c0-7.99-6.47-14.46-14.46-14.46s-14.46,6.47-14.46,14.46,6.47,14.46,14.46,14.46c.39,0,.77-.03,1.15-.06l36.74,37.21-9.72,10.48h13.96s121.42,123.66,121.17,123.66c12.96,14.21,42.88,20.94,42.88,20.94-2.49-20.2-18.7-40.14-18.7-40.14Z"/><path class="cls-2" d="m191.84,352.61l125.78-125.78-8.78-8.78.6-.6c-1.21.5-2.53.78-3.91.78-5.65,0-10.22-4.58-10.22-10.22,0-5.65,4.58-10.22,10.22-10.22,5.65,0,10.22,4.58,10.22,10.22,0,1.39-.28,2.71-.78,3.91l.35-.35,12.02,12.02,37.52-37.52c0-7.99,6.47-14.46,14.46-14.46,7.99,0,14.46,6.47,14.46,14.46s-6.47,14.46-14.46,14.46c-.39,0-.77-.03-1.15-.06l-36.74,37.21,9.72,10.48h-13.96s-121.42,123.66-121.17,123.66c-12.96,14.21-42.88,20.94-42.88,20.94,2.49-20.2,18.7-40.14,18.7-40.14Z"/><path class="cls-4" d="m423.46,268.33c9.97,0,15.71-20.19,15.71-20.19h-121.43,0c-8.85-8.93-21.12-14.47-34.69-14.47s-25.84,5.54-34.69,14.47h-121.28s5.73,20.19,15.71,20.19h93.53c-.4,1.34-.75,2.69-1.05,4.08h-93.23s5.73,20.19,15.71,20.19h77.53c.29,1.38.64,2.74,1.05,4.08h-77.82s5.73,20.19,15.71,20.19h74.16c8.85,8.93,21.12,14.47,34.69,14.47s25.84-5.54,34.69-14.47h74.31c9.97,0,15.71-20.19,15.71-20.19h-77.97c.4-1.34.75-2.69,1.05-4.08h77.68c9.97,0,15.71-20.19,15.71-20.19h-93.39c-.29-1.39-.64-2.75-1.05-4.09v.02h93.69Zm-172.95,14.17c0-17.94,14.6-32.54,32.54-32.54s32.54,14.6,32.54,32.54-14.6,32.54-32.54,32.54-32.54-14.6-32.54-32.54Z"/></g><g><text class="cls-3" transform="translate(88.66 215.68) rotate(-66.8)"><tspan x="0" y="0">C</tspan></text><text class="cls-3" transform="translate(99.55 189.81) rotate(-58.62)"><tspan x="0" y="0">O</tspan></text><text class="cls-3" transform="translate(115.3 163.68) rotate(-49.82)"><tspan x="0" y="0">N</tspan></text><text class="cls-3" transform="translate(136.25 138.98) rotate(-41.35)"><tspan x="0" y="0">T</tspan></text><text class="cls-3" transform="translate(157.46 119.93) rotate(-32.82)"><tspan x="0" y="0">R</tspan></text><text class="cls-3" transform="translate(185.83 101.69) rotate(-23.98)"><tspan x="0" y="0">A</tspan></text><text class="cls-3" transform="translate(213.06 89.56) rotate(-15.87)"><tspan x="0" y="0">C</tspan></text><text class="cls-3" transform="translate(240.09 81.78) rotate(-7.96)"><tspan x="0" y="0">T</tspan></text><text class="cls-3" transform="translate(268.39 77.76) rotate(-.07)"><tspan x="0" y="0">E</tspan></text><text class="cls-3" transform="translate(296.58 77.53) rotate(8.14)"><tspan x="0" y="0">D</tspan></text><text class="cls-3" transform="translate(327.74 82.46) rotate(14.12)"><tspan x="0" y="0"> </tspan></text><text class="cls-3" transform="translate(339.19 84.72) rotate(20.26)"><tspan x="0" y="0">B</tspan></text><text class="cls-3" transform="translate(369.46 95.89) rotate(28.9)"><tspan x="0" y="0">A</tspan></text><text class="cls-3" transform="translate(395.57 110.29) rotate(37.01)"><tspan x="0" y="0">C</tspan></text><text class="cls-3" transform="translate(418.16 126.85) rotate(45.86)"><tspan x="0" y="0">K</tspan></text><text class="cls-3" transform="translate(442.67 152.94) rotate(52.96)"><tspan x="0" y="0"> </tspan></text><text class="cls-3" transform="translate(450.2 161.79) rotate(58.51)"><tspan x="0" y="0">U</tspan></text><text class="cls-3" transform="translate(467.26 189.6) rotate(67.33)"><tspan x="0" y="0">P</tspan></text></g><g><text class="cls-3" transform="translate(229.27 515.28) rotate(9.08)"><tspan x="0" y="0">N</tspan></text><text class="cls-3" transform="translate(265.65 520.75) rotate(.57)"><tspan x="0" y="0">A</tspan></text><text class="cls-3" transform="translate(299.56 520.81) rotate(-7.29)"><tspan x="0" y="0">2</tspan></text></g></svg>