<?xml version="1.0" encoding="UTF-8"?>
<svg id="uuid-03c00c0d-54ca-44d2-a147-dc637f3cf726" data-name="Capa 1" xmlns="http://www.w3.org/2000/svg" viewBox="0 0 566.93 566.93">
  <defs>
    <style>
      .uuid-03f42b70-3d7d-4101-9962-8e545748bf6a {
        fill: #000;
      }

      .uuid-03f42b70-3d7d-4101-9962-8e545748bf6a, .uuid-c7644346-49c9-4f04-ba43-7bdbc8e993df {
        stroke-width: 0px;
      }

      .uuid-c7644346-49c9-4f04-ba43-7bdbc8e993df {
        fill: #f59500;
      }
    </style>
  </defs>
  <g>
    <path class="uuid-03f42b70-3d7d-4101-9962-8e545748bf6a" d="M283.31,562.68c-153.97.16-279.05-125.06-279.06-279.37C4.24,129.45,129.13,4.42,283.01,4.25c154.29-.17,279.63,124.77,279.67,278.76.04,154.7-124.64,279.51-279.37,279.67ZM283.61,10.58c-150.34,0-272.86,122.32-273.03,272.59-.17,150.5,122.43,273.15,273.05,273.18,149.87.03,272.61-122.51,272.72-272.28.11-150.74-122.3-273.49-272.74-273.49Z"/>
    <path class="uuid-03f42b70-3d7d-4101-9962-8e545748bf6a" d="M283.48,544.61c-143.76.28-260.88-116.48-261.17-260.36C22.01,139.85,138.56,22.53,282.54,22.31c144.27-.22,261.19,116.22,262.27,259.46,1.08,144.22-118.06,263.97-261.33,262.84ZM248.87,366.25c1.57-2.19,2.48-3.83,3.73-5.15,21.24-22.4,42.63-44.67,63.75-67.19,8.45-9.01,18.48-15.17,30.14-18.71,25.85-7.85,54.34,2.99,68.45,25.84,14.63,23.7,11.65,53.66-7.34,73.81-18.59,19.72-48.4,24.68-72.18,12-2.27-1.21-4.54-2.44-6.93-3.74-13.6,14.3-26.86,28.24-40.32,42.39,1.49,1.27,2.49,2.26,3.62,3.08,28.77,20.94,60.62,28.61,95.64,21.61,64.01-12.79,106.02-75.77,93.4-139.71-9.64-48.83-47.81-86.85-97.1-94.76-39.95-6.41-75.34,3.89-103.94,33.58-16.63,17.26-32.75,35-49.49,52.15-7.89,8.09-9.5,17.13-6.64,27.44,4.05,14.62,13.63,25.56,25.21,37.35ZM328.23,288.35c-2.36,3.33-2.96,4.42-3.79,5.3-25.53,27-51.07,53.99-76.66,80.94-15.19,16-34.06,21.9-55.45,18.16-31.36-5.48-53.33-36.12-48.91-66.99,4.71-32.92,33.1-55.76,65.69-52.82,2.5.23,4.99.54,8.91.97-2.79-3.56-4.6-5.93-6.47-8.27-11.3-14.11-22.86-28.01-33.77-42.42-3.75-4.95-7.07-5.56-12.73-3.85-53.29,16.16-93.15,80.18-77.57,141.22,11.25,44.06,38.73,74.02,82.22,86.86,44.96,13.27,85.08,2.42,118.67-30.64,9.69-9.54,18.82-19.65,28.24-29.47,11.12-11.57,22.05-23.19,29.5-37.74,7.91-15.45,7.34-31.64-2.79-43.98-4.5-5.48-9.31-10.69-15.09-17.28ZM244.95,51.96c-.45.33-.89.67-1.34,1,1.42,1.86,2.9,3.69,4.25,5.6,9.59,13.67,9.38,27.99.04,40.01-17.93,23.08-35.7,46.29-53.35,69.58-9.43,12.45-11.05,27.16-10.91,42.15.03,2.7.86,5.88,2.45,8,15.32,20.44,30.87,40.71,46.39,61,.6.78,1.63,1.21,2.35,1.92,2.83,2.76,4.94,2.03,7.52-.74,11.33-12.19,22.8-24.26,34.4-36.19,3.18-3.27,3.16-5.36.26-9.14-8.38-10.91-16.44-22.11-23.88-33.68-4.97-7.72-4.23-15.9,1.88-23.14,7.72-9.16,15.26-18.47,23.31-27.33,6.84-7.53,14.91-10.08,25.23-6.15,11.85,4.51,24.22,7.66,36.36,11.41-26.26-40.12-56.66-75.86-94.96-104.3ZM283.5,513.82c3.65-23.91,12.45-45.73,24.45-66.2-8.61-5.56-16.56-10.7-24.39-15.76-8.2,5.32-16.28,10.57-24.62,15.98,12.45,20.64,20.72,42.43,24.56,65.99ZM434.92,228.03c-11.56-14.73-63.84-53-76.7-56.81,4.3,8.11,9.7,15.97,12.71,24.65,3.2,9.24,8.3,12.98,17.93,14.1,16.7,1.94,31.69,9.32,46.05,18.06ZM82.25,370.4c-4.95-17.01-5.72-34.46-3.42-51.49,1.64-12.16-3.13-22.78-3.52-34.23-8.61,29.53-12.55,58.68,6.94,85.72ZM491.7,382.18c11.6-34.45,8.48-70.18-6.97-85.29,5.51,20.46,4.94,40.85,2.68,61.31-.17,1.55.26,3.2.56,4.77,1.2,6.35,2.46,12.69,3.73,19.21Z"/>
    <path class="uuid-03f42b70-3d7d-4101-9962-8e545748bf6a" d="M82.25,370.4c-19.49-27.04-15.56-56.18-6.94-85.72.39,11.45,5.16,22.07,3.52,34.23-2.3,17.03-1.53,34.47,3.42,51.49Z"/>
    <path class="uuid-03f42b70-3d7d-4101-9962-8e545748bf6a" d="M491.7,382.18c-1.27-6.52-2.53-12.86-3.73-19.21-.3-1.57-.73-3.22-.56-4.77,2.26-20.46,2.83-40.85-2.68-61.31,15.45,15.11,18.57,50.84,6.97,85.29Z"/>
  </g>
  <path class="uuid-c7644346-49c9-4f04-ba43-7bdbc8e993df" d="M283.61,10.58c150.43,0,272.85,122.75,272.74,273.49-.11,149.77-122.85,272.31-272.72,272.28-150.62-.03-273.22-122.68-273.05-273.18C10.75,132.9,133.27,10.58,283.61,10.58ZM283.48,544.61c143.27,1.13,262.41-118.62,261.33-262.84-1.08-143.24-118-259.69-262.27-259.46-143.98.22-260.53,117.54-260.23,261.94.3,143.88,117.41,260.63,261.17,260.36Z"/>
  <path class="uuid-c7644346-49c9-4f04-ba43-7bdbc8e993df" d="M248.87,366.25c-11.57-11.79-21.16-22.73-25.21-37.35-2.85-10.31-1.25-19.35,6.64-27.44,16.73-17.15,32.86-34.89,49.49-52.15,28.61-29.69,63.99-40,103.94-33.58,49.3,7.91,87.46,45.92,97.1,94.76,12.62,63.94-29.4,126.92-93.4,139.71-35.02,7-66.87-.67-95.64-21.61-1.13-.82-2.13-1.81-3.62-3.08,13.46-14.15,26.72-28.09,40.32-42.39,2.4,1.29,4.66,2.52,6.93,3.74,23.78,12.68,53.59,7.72,72.18-12,18.99-20.14,21.97-50.11,7.34-73.81-14.11-22.85-42.6-33.69-68.45-25.84-11.66,3.54-21.7,9.7-30.14,18.71-21.11,22.52-42.51,44.79-63.75,67.19-1.25,1.32-2.16,2.96-3.73,5.15Z"/>
  <path class="uuid-c7644346-49c9-4f04-ba43-7bdbc8e993df" d="M328.23,288.35c5.78,6.59,10.59,11.81,15.09,17.28,10.13,12.34,10.7,28.52,2.79,43.98-7.45,14.55-18.38,26.16-29.5,37.74-9.43,9.81-18.55,19.93-28.24,29.47-33.6,33.06-73.71,43.91-118.67,30.64-43.49-12.84-70.97-42.79-82.22-86.86-15.58-61.04,24.28-125.06,77.57-141.22,5.66-1.72,8.98-1.1,12.73,3.85,10.91,14.4,22.47,28.31,33.77,42.42,1.87,2.33,3.69,4.7,6.47,8.27-3.91-.43-6.41-.74-8.91-.97-32.59-2.94-60.98,19.9-65.69,52.82-4.42,30.88,17.55,61.51,48.91,66.99,21.39,3.74,40.25-2.16,55.45-18.16,25.59-26.94,51.12-53.94,76.66-80.94.83-.88,1.43-1.98,3.79-5.3Z"/>
  <path class="uuid-c7644346-49c9-4f04-ba43-7bdbc8e993df" d="M244.95,51.96c38.29,28.44,68.7,64.17,94.96,104.3-12.14-3.74-24.51-6.9-36.36-11.41-10.31-3.92-18.39-1.37-25.23,6.15-8.05,8.86-15.6,18.17-23.31,27.33-6.1,7.25-6.84,15.43-1.88,23.14,7.44,11.57,15.51,22.76,23.88,33.68,2.9,3.78,2.92,5.87-.26,9.14-11.6,11.93-23.07,24-34.4,36.19-2.58,2.77-4.69,3.51-7.52.74-.72-.7-1.75-1.14-2.35-1.92-15.52-20.29-31.08-40.56-46.39-61-1.59-2.12-2.42-5.3-2.45-8-.14-14.99,1.47-29.7,10.91-42.15,17.65-23.29,35.42-46.5,53.35-69.58,9.34-12.02,9.55-26.34-.04-40.01-1.35-1.92-2.83-3.74-4.25-5.6.45-.33.89-.67,1.34-1Z"/>
  <path class="uuid-c7644346-49c9-4f04-ba43-7bdbc8e993df" d="M283.5,513.82c-3.84-23.56-12.1-45.34-24.56-65.99,8.34-5.41,16.42-10.66,24.62-15.98,7.83,5.06,15.78,10.2,24.39,15.76-12,20.47-20.8,42.29-24.45,66.2Z"/>
  <path class="uuid-c7644346-49c9-4f04-ba43-7bdbc8e993df" d="M434.92,228.03c-14.37-8.74-29.35-16.12-46.05-18.06-9.63-1.12-14.73-4.86-17.93-14.1-3.01-8.68-8.42-16.54-12.71-24.65,12.86,3.81,65.14,42.08,76.7,56.81Z"/>
</svg>