<?xml version="1.0" encoding="UTF-8"?>
<svg id="Capa_1" data-name="Capa 1" xmlns="http://www.w3.org/2000/svg" viewBox="0 0 566.93 566.93">
  <defs>
    <style>
      .cls-1 {
        fill: #cd1333;
      }

      .cls-1, .cls-2 {
        stroke-width: 0px;
      }

      .cls-2 {
        fill: #fff;
      }
    </style>
  </defs>
  <circle class="cls-2" cx="283.46" cy="283.41" r="268.71"/>
  <g>
    <circle class="cls-1" cx="283.46" cy="283.46" r="148.38"/>
    <g>
      <path class="cls-1" d="M283.46,14.69C137.68,14.69,19.02,130.76,14.82,275.52h73.05c1.95-49.31,22.07-95.39,57.17-130.49,36.98-36.98,86.14-57.34,138.43-57.34s101.45,20.36,138.43,57.34c35.1,35.1,55.21,81.18,57.17,130.49h73.05C547.91,130.76,429.25,14.69,283.46,14.69ZM488.81,196.72c-11.22-26.54-27.29-50.37-47.77-70.84s-44.31-36.54-70.84-47.77c-27.46-11.62-56.65-17.51-86.74-17.51s-59.28,5.89-86.74,17.51c-26.54,11.22-50.37,27.29-70.84,47.77-20.47,20.47-36.54,44.31-47.77,70.84-7.13,16.87-12.1,34.38-14.87,52.36h-16.16c16.67-115.62,116.14-204.47,236.38-204.47s219.71,88.85,236.38,204.47h-16.16c-2.78-17.98-7.74-35.49-14.87-52.36Z"/>
      <path class="cls-1" d="M479.06,291.4c-1.95,49.31-22.07,95.39-57.17,130.49-36.98,36.98-86.14,57.34-138.43,57.34s-101.45-20.36-138.43-57.34c-35.1-35.1-55.21-81.18-57.17-130.49H14.82c4.2,144.76,122.86,260.83,268.64,260.83s264.44-116.07,268.64-260.83h-73.05ZM283.46,522.32c-120.24,0-219.71-88.85-236.38-204.47h16.16c2.78,17.98,7.74,35.49,14.87,52.36,11.22,26.54,27.29,50.37,47.77,70.84,20.47,20.47,44.31,36.54,70.84,47.77,27.46,11.62,56.65,17.51,86.74,17.51s59.28-5.89,86.74-17.51c26.54-11.22,50.37-27.29,70.84-47.77,20.47-20.47,36.54-44.31,47.77-70.84,7.13-16.87,12.1-34.38,14.87-52.36h16.16c-16.67,115.62-116.14,204.47-236.38,204.47Z"/>
    </g>
  </g>
</svg>