<?xml version="1.0" encoding="UTF-8"?><svg id="Capa_1" xmlns="http://www.w3.org/2000/svg" viewBox="0 0 566.93 566.93"><defs><style>.cls-1,.cls-2,.cls-3{fill:#fff;}.cls-4{fill:#2464ae;}.cls-2{font-size:45.81px;}.cls-2,.cls-3{font-family:AcmaticPersonal, Acmatic;}.cls-3{font-size:52.72px;}.cls-5{fill:#c81517;}</style></defs><circle class="cls-5" cx="283.46" cy="283.46" r="276.38"/><circle class="cls-1" cx="283.46" cy="283.46" r="219.06"/><circle class="cls-4" cx="283.46" cy="283.46" r="170.94"/><text class="cls-3" transform="translate(26.14 358.37) rotate(70.88)"><tspan x="0" y="0">C</tspan></text><text class="cls-3" transform="translate(34.42 382.12) rotate(65.47)"><tspan x="0" y="0">O</tspan></text><text class="cls-3" transform="translate(44.68 404.7) rotate(59.88)"><tspan x="0" y="0">R</tspan></text><text class="cls-3" transform="translate(58.97 429.15) rotate(53.85)"><tspan x="0" y="0">P</tspan></text><text class="cls-3" transform="translate(75.7 451.79) rotate(48.09)"><tspan x="0" y="0">S</tspan></text><text class="cls-3" transform="translate(92.94 470.56) rotate(44.09)"><tspan x="0" y="0"> </tspan></text><text class="cls-3" transform="translate(101.51 479.22) rotate(39.71)"><tspan x="0" y="0">D</tspan></text><text class="cls-3" transform="translate(123.56 497.33) rotate(34.04)"><tspan x="0" y="0">E</tspan></text><text class="cls-3" transform="translate(144.6 511.2) rotate(30.09)"><tspan x="0" y="0"> </tspan></text><text class="cls-3" transform="translate(155 517.51) rotate(25.77)"><tspan x="0" y="0">R</tspan></text><text class="cls-3" transform="translate(180.43 529.63) rotate(20.12)"><tspan x="0" y="0">E</tspan></text><text class="cls-3" transform="translate(204.85 538.53) rotate(14.23)"><tspan x="0" y="0">N</tspan></text><text class="cls-3" transform="translate(233.06 545.47) rotate(8.4)"><tspan x="0" y="0">F</tspan></text><text class="cls-3" transform="translate(257.99 549.07) rotate(2.83)"><tspan x="0" y="0">O</tspan></text><text class="cls-3" transform="translate(282.76 550.34) rotate(-2.75)"><tspan x="0" y="0">R</tspan></text><text class="cls-3" transform="translate(309.63 548.97) rotate(-8.16)"><tspan x="0" y="0">T</tspan></text><text class="cls-3" transform="translate(334.87 545.12) rotate(-12.82)"><tspan x="0" y="0"> </tspan></text><text class="cls-3" transform="translate(347.03 542.86) rotate(-17.08)"><tspan x="0" y="0">M</tspan></text><text class="cls-3" transform="translate(380.88 532.02) rotate(-23.68)"><tspan x="0" y="0">É</tspan></text><text class="cls-3" transform="translate(404.67 521.54) rotate(-29.62)"><tspan x="0" y="0">R</tspan></text><text class="cls-3" transform="translate(428.95 507.61) rotate(-35.37)"><tspan x="0" y="0">O</tspan></text><text class="cls-3" transform="translate(448.55 493.86) rotate(-41)"><tspan x="0" y="0">V</tspan></text><text class="cls-3" transform="translate(471.72 473.16) rotate(-45.96)"><tspan x="0" y="0">I</tspan></text><text class="cls-3" transform="translate(482.55 462.23) rotate(-50.64)"><tspan x="0" y="0">N</tspan></text><text class="cls-3" transform="translate(500.87 439.61) rotate(-56.57)"><tspan x="0" y="0">G</tspan></text><text class="cls-3" transform="translate(514.55 418.47) rotate(-60.75)"><tspan x="0" y="0">I</tspan></text><text class="cls-3" transform="translate(522.1 405.25) rotate(-65.06)"><tspan x="0" y="0">E</tspan></text><text class="cls-3" transform="translate(533.01 381.69) rotate(-70.92)"><tspan x="0" y="0">N</tspan></text><text class="cls-2" transform="translate(167.19 81) rotate(-27.33)"><tspan x="0" y="0">É</tspan></text><text class="cls-2" transform="translate(184.8 71.85) rotate(-22.45)"><tspan x="0" y="0">Q</tspan></text><text class="cls-2" transform="translate(202.3 64.49) rotate(-17.67)"><tspan x="0" y="0">U</tspan></text><text class="cls-2" transform="translate(223.09 58.04) rotate(-13.61)"><tspan x="0" y="0">I</tspan></text><text class="cls-2" transform="translate(233.9 55.2) rotate(-9.47)"><tspan x="0" y="0">P</tspan></text><text class="cls-2" transform="translate(254.7 51.7) rotate(-4.54)"><tspan x="0" y="0">E</tspan></text><text class="cls-2" transform="translate(274.7 50.28) rotate(-1)"><tspan x="0" y="0"> </tspan></text><text class="cls-2" transform="translate(283.28 49.92) rotate(2.6)"><tspan x="0" y="0">A</tspan></text><text class="cls-2" transform="translate(302.4 50.66) rotate(7.57)"><tspan x="0" y="0">R</tspan></text><text class="cls-2" transform="translate(323.86 53.48) rotate(12.61)"><tspan x="0" y="0">G</tspan></text><text class="cls-2" transform="translate(343.19 57.76) rotate(17.35)"><tspan x="0" y="0">E</tspan></text><text class="cls-2" transform="translate(362.17 63.59) rotate(22.52)"><tspan x="0" y="0">N</tspan></text><text class="cls-2" transform="translate(382.97 72.24) rotate(27.72)"><tspan x="0" y="0">T</tspan></text><g><path class="cls-1" d="m386.39,271.91c4.45.61,8.89,1.22,13.41,1.84-4.92,9.67-14.39,13.49-34.19,13.63,3.69,2.17,6.73,3.95,9.85,5.79-5.71,3.93-9.02,4.48-22.89,3.73,2.04,2.45,3.74,4.5,5.78,6.96-6.2,2.52-12.35,2.51-19.07.99,1.36,3.96,2.55,7.46,3.76,11-5.87-.05-10.07-1.8-16.79-7.11-.16,2.5-.29,4.66-.43,6.83-9.18-2.28-14.75-11.34-12.95-20.96,15.75-5.21,23.42-20.55,14.57-36.51,33.35-16.35,66.68-32.69,100.54-49.29-.64,16.93-7.92,29.36-21.18,39.08,4.56-.56,9.12-1.12,14.64-1.79-7.17,15.8-18.68,23.95-35.06,25.82Z"/><path class="cls-1" d="m180.83,271.91c-4.45.61-8.89,1.22-13.41,1.84,4.92,9.67,14.39,13.49,34.19,13.63-3.69,2.17-6.73,3.95-9.85,5.79,5.71,3.93,9.02,4.48,22.89,3.73-2.04,2.45-3.74,4.5-5.78,6.96,6.2,2.52,12.35,2.51,19.07.99-1.36,3.96-2.55,7.46-3.76,11,5.87-.05,10.07-1.8,16.79-7.11.16,2.5.29,4.66.43,6.83,9.18-2.28,14.75-11.34,12.95-20.96-15.75-5.21-23.42-20.55-14.57-36.51-33.35-16.35-66.68-32.69-100.54-49.29.64,16.93,7.92,29.36,21.18,39.08-4.56-.56-9.12-1.12-14.64-1.79,7.17,15.8,18.68,23.95,35.06,25.82Z"/><path class="cls-1" d="m324.52,268.11c-.94-.69-2.07-1.03-3.15-.83-3.64.69-7.26.06-10.89.05-6.66,0-13.28-.34-19.03-4.4-.54-.39-1.23-.54-1.86-.81l1.09-1.44c-1.04-13.39-1.39-25.42-.65-38.95-.73-.8-1.47-1.62-2.15-2.35.87-.1,1.58,1.05,2.71.78.91-2.58,1.45-5.19,1.22-7.98-.6-.51-1.2-1.02-1.79-1.55-.58-.52-1.26-.88-1.69-1.62-1.45-2.56-2.16-2.71-4.63-1.16-1.26-1.01-2.89-1.73-3.82-.02-1.04,1.92-2.82,2.93-4.23,4.5-.03,2.73.28,5.43,1.39,7.89,1.14.04,1.82-1.03,3.05-.7-.96.88-1.77,1.61-2.5,2.28.34,13.07,1.06,25.99-.44,38.88.52.77.36.68.89,1.46q-1.22.44-2.2.88c-2.8,1.25-5.37,3.59-8.35,3.75-6.94.35-13.89,1.26-20.86.54-1.12-.12-2.2-.03-3.21.57-1.78,1.05-2.48,3.29-1.57,5.16.8,1.63,2.37,1.98,4.52,1.13,1.24-.49,1.93-1.58,2.74-2.27h23.49c.44.87.87,1.71,1.29,2.54-.01,1.45-.02,2.61-.02,2.72-.52,19.82-1.05,39.65-1.55,59.47-.58,22.77-1.13,45.53-1.72,68.29-.03,1.22.21,2.33.64,3.46,3.91,10.27,7.76,20.55,11.68,30.8.21.55.08,1.5,1.08,1.57,3.41-8.96,6.72-17.93,10.27-26.8,1.88-4.7,3-9.35,2.5-14.5-.49-5.12-.35-10.3-.48-15.46-.41-17.28-.81-34.57-1.24-51.86-.44-17.33-.88-40.19-1.33-57.83.42-.83.84-1.65,1.25-2.44h23.5c.78.97,1.55,1.86,2.71,2.31,1.68.65,3.28.86,4.39-.94,1.02-1.64.5-3.98-1.05-5.12Z"/></g></svg>