<?xml version="1.0" encoding="UTF-8"?><svg id="Capa_1" xmlns="http://www.w3.org/2000/svg" viewBox="0 0 566.93 566.93"><defs><style>.cls-1,.cls-2{fill:#fff;}.cls-2{font-family:Goodland-Regular, Goodland;font-size:77px;font-variation-settings:'wdth' 100, 'wght' 400, 'slnt' 0;}.cls-3{fill:#749d2e;}.cls-4{fill:#c81718;}</style></defs><path class="cls-4" d="m283.61,562.68c-154.55-.05-279.5-125.07-279.36-279.53C4.39,128.73,129.48,4.14,284.25,4.25c154.13.11,278.64,125.53,278.42,280.47-.21,153.15-125.57,278.01-279.06,277.96Z"/><path class="cls-3" d="m283.61,556.33c-151.03-.05-273.14-122.23-273.01-273.17C10.73,132.25,132.98,10.49,284.24,10.6c150.63.11,272.3,122.68,272.1,274.09-.2,149.67-122.71,271.69-272.72,271.64Z"/><path class="cls-4" d="m283.39,74.83c113.14-1.9,207.14,94.32,208.91,204.77,1.87,116.83-95.51,210.89-205.29,212.51-116.81,1.72-211.03-95.72-212.4-205.98-1.44-115.93,96.08-213.36,208.78-211.3Z"/><text class="cls-2" transform="translate(17.67 309.05) rotate(78.19) scale(1 .88)"><tspan x="0" y="0">M</tspan></text><text class="cls-2" transform="translate(32.1 370) rotate(67.25) scale(1 .88)"><tspan x="0" y="0">E</tspan></text><text class="cls-2" transform="translate(47.13 405.05) rotate(59.1) scale(1 .88)"><tspan x="0" y="0">L</tspan></text><text class="cls-2" transform="translate(66.98 437.62) rotate(50.92) scale(1 .88)"><tspan x="0" y="0">E</tspan></text><text class="cls-2" transform="translate(91.37 467.39) rotate(42.13) scale(1 .88)"><tspan x="0" y="0">K</tspan></text><text class="cls-2" transform="translate(123.18 495.07) rotate(35.04) scale(1 .88)"><tspan x="0" y="0"> </tspan></text><text class="cls-2" transform="translate(142.09 508.76) rotate(27.97) scale(1 .88)"><tspan x="0" y="0">R</tspan></text><text class="cls-2" transform="translate(180.28 528.45) rotate(19.31) scale(1 .88)"><tspan x="0" y="0">E</tspan></text><text class="cls-2" transform="translate(216.59 541) rotate(10.69) scale(1 .88)"><tspan x="0" y="0">A</tspan></text><text class="cls-2" transform="translate(259.29 548.66) rotate(1.35) scale(1 .88)"><tspan x="0" y="0">C</tspan></text><text class="cls-2" transform="translate(302.6 549.23) rotate(-7.84) scale(1 .88)"><tspan x="0" y="0">T</tspan></text><text class="cls-2" transform="translate(342.63 542.98) rotate(-14.7) scale(1 .88)"><tspan x="0" y="0">I</tspan></text><text class="cls-2" transform="translate(365.25 537.4) rotate(-21.7) scale(1 .88)"><tspan x="0" y="0">O</tspan></text><text class="cls-2" transform="translate(405.36 521.03) rotate(-30.95) scale(1 .88)"><tspan x="0" y="0">N</tspan></text><text class="cls-2" transform="translate(441.06 498.69) rotate(-37.94) scale(1 .88)"><tspan x="0" y="0"> </tspan></text><text class="cls-2" transform="translate(459.36 484.69) rotate(-44.41) scale(1 .88)"><tspan x="0" y="0">F</tspan></text><text class="cls-2" transform="translate(486.71 457.65) rotate(-53.2) scale(1 .88)"><tspan x="0" y="0">O</tspan></text><text class="cls-2" transform="translate(512.39 422.66) rotate(-62.55) scale(1 .88)"><tspan x="0" y="0">R</tspan></text><text class="cls-2" transform="translate(531.91 383.49) rotate(-70.95) scale(1 .88)"><tspan x="0" y="0">C</tspan></text><text class="cls-2" transform="translate(545 343.03) rotate(-80.45) scale(1 .88)"><tspan x="0" y="0">E</tspan></text><path class="cls-1" d="m460.83,269.41c-.76-17.63-5.26-62.54-37.33-103.18-34.24-43.4-88.39-57.05-88.39-57.05,0,0,30.94,23.31,51.41,69.02,5.11,11.41,22.03,50.66,9.86,95.78-.75,2.76-16.56,65.74-54.91,64.67,0,0-12.57-22.69-39.47-74.18-5.4-10.34,5.23-28.07,7.04-29.93,7.75-7.99,19.6-11.16,28.88-8.1,12.38,4.08,18.66,16.55,18.66,16.55,4.8-4.15,6.71-28.19-7.4-46.48-9.74-12.64-31.22-19.17-44.02-26.76-25.38-15.06-21.83-32.4-21.83-32.4,0,0-12.05,23.75-9.94,35.02,2.34,12.49,11.93,20.16,11.7,20.97,0,0-8.27.56-15.85,3.17-14.07,4.83-27.07,17.92-31.32,23.79-3.62,5.01-13.32,19.71-11.72,48.89.14,2.51,13.74,13,26.14,37.89,7.97,16,16.9,47.89,16.9,47.89-3.95,1.89-10.03.61-18.66-2.47-4.87-1.73-17.88-6.91-32.4-21.13-14.24-13.94-21.45-28.29-24.3-34.51-8.79-19.17-9.9-35.58-10.56-47.19-.79-13.78-3.83-66.37,29.58-108.46,16.46-20.74,32.9-32.97,32.75-33.45,0,0-26.73,4.98-47.19,16.9-56.65,33.03-78.61,88.65-80.64,94.02-16.23,42.85-11.61,79.92-9.86,91.21,8.76,56.58,42.35,91.3,52.47,101.07,5.97,5.76,56.99,53.48,129.24,50.01,6.23-.3,30.31-1.83,58.81-13.73,10.62-4.44,36.59-16.47,60.57-41.2,54.09-55.79,52.1-128.76,51.77-136.63Zm-140.44-77.42s8.9,1.71,14.1,5.93c10.65,8.65,13.19,17.56,13.19,17.56-.09.06-.59-.84-1.98-2.23-.79-.79-3.03-2.9-7.75-5.03-3.89-1.75-4.35-1.21-9.23-3.38-2.57-1.14-3.75-1.88-4.86-2.97-2.01-1.96-2.79-4.08-3.05-4.86-.54-1.65-1.34-4.08-.41-5.03Z"/></svg>