<?xml version="1.0" encoding="UTF-8"?><svg id="Capa_2" xmlns="http://www.w3.org/2000/svg" viewBox="0 0 566.93 566.93"><defs><style>.cls-1,.cls-2{stroke-width:0px;}.cls-1,.cls-3,.cls-4{fill:#cc1334;}.cls-5{fill:#fff;}.cls-5,.cls-3{font-size:57px;}.cls-5,.cls-3,.cls-4{font-family:NicoKaku, NicoKaku;}.cls-2{fill:#28347d;}.cls-4{font-size:37.58px;}</style></defs><text class="cls-5" transform="translate(139.85 745.74) rotate(-38.02)"><tspan x="0" y="0">大</tspan></text><text class="cls-5" transform="translate(182.79 711.8) rotate(-22.65)"><tspan x="0" y="0">番</tspan></text><text class="cls-5" transform="translate(234.35 692.01) rotate(-12.51)"><tspan x="0" y="0"> </tspan></text><text class="cls-5" transform="translate(250.21 688.18) rotate(-6.46)"><tspan x="0" y="0">-</tspan></text><text class="cls-5" transform="translate(275.29 684.29) rotate(3.68)"><tspan x="0" y="0">O</tspan></text><text class="cls-5" transform="translate(320.61 687.17) rotate(16.06)"><tspan x="0" y="0">B</tspan></text><text class="cls-5" transform="translate(361.28 698.82) rotate(27.67)"><tspan x="0" y="0">A</tspan></text><text class="cls-5" transform="translate(396.62 717.09) rotate(39.15)"><tspan x="0" y="0">N</tspan></text><ellipse class="cls-2" cx="283.47" cy="283.46" rx="279.47" ry="279.21"/><path class="cls-1" d="M559.69,313.28h-7.22c-6.41,61.14-33.43,117.81-77.73,161.88-51.09,50.83-119.02,78.82-191.27,78.82s-140.18-27.99-191.27-78.82c-44.3-44.07-71.33-100.74-77.73-161.88H5.67c14.3,140.08,133.22,249.39,277.8,249.39s263.5-109.31,277.8-249.39h-1.57Z"/><path class="cls-1" d="M14.49,253.37c6.46-61.04,33.47-117.6,77.7-161.61C143.28,40.93,211.21,12.94,283.46,12.94s140.18,27.99,191.27,78.82c44.23,44,71.24,100.57,77.7,161.61h8.79C546.8,113.42,427.95,4.25,283.46,4.25S20.13,113.42,5.7,253.37h8.79Z"/><text class="cls-4" transform="translate(98.94 444.17) rotate(45.07)"><tspan x="0" y="0">T</tspan></text><text class="cls-4" transform="translate(121.22 466.2) rotate(38.09)"><tspan x="0" y="0">H</tspan></text><text class="cls-4" transform="translate(143.58 483.61) rotate(31.41)"><tspan x="0" y="0">E</tspan></text><text class="cls-4" transform="translate(168.13 498.15) rotate(26.63)"><tspan x="0" y="0"> </tspan></text><text class="cls-4" transform="translate(179.44 504.16) rotate(21.7)"><tspan x="0" y="0">G</tspan></text><text class="cls-4" transform="translate(207.8 515.34) rotate(14.54)"><tspan x="0" y="0">R</tspan></text><text class="cls-4" transform="translate(238.2 523.03) rotate(7.52)"><tspan x="0" y="0">E</tspan></text><text class="cls-4" transform="translate(267.08 526.74) rotate(.7)"><tspan x="0" y="0">A</tspan></text><text class="cls-4" transform="translate(296.55 527.03) rotate(-6.42)"><tspan x="0" y="0">T</tspan></text><text class="cls-4" transform="translate(327.07 523.13) rotate(-11.53)"><tspan x="0" y="0"> </tspan></text><text class="cls-4" transform="translate(339.81 520.91) rotate(-16.79)"><tspan x="0" y="0">W</tspan></text><text class="cls-4" transform="translate(371.11 511.37) rotate(-24.55)"><tspan x="0" y="0">A</tspan></text><text class="cls-4" transform="translate(397.91 499.25) rotate(-30.93)"><tspan x="0" y="0">T</tspan></text><text class="cls-4" transform="translate(424.67 482.97) rotate(-37.91)"><tspan x="0" y="0">C</tspan></text><text class="cls-4" transform="translate(446.95 465.49) rotate(-44.54)"><tspan x="0" y="0">H</tspan></text><text class="cls-3" transform="translate(139.85 142.74) rotate(-38.02)"><tspan x="0" y="0">大</tspan></text><text class="cls-3" transform="translate(182.79 108.8) rotate(-22.65)"><tspan x="0" y="0">番</tspan></text><text class="cls-3" transform="translate(234.35 89.01) rotate(-12.51)"><tspan x="0" y="0"> </tspan></text><text class="cls-3" transform="translate(250.21 85.18) rotate(-6.46)"><tspan x="0" y="0">-</tspan></text><text class="cls-3" transform="translate(275.29 81.29) rotate(3.68)"><tspan x="0" y="0">O</tspan></text><text class="cls-3" transform="translate(320.61 84.17) rotate(16.06)"><tspan x="0" y="0">B</tspan></text><text class="cls-3" transform="translate(361.28 95.82) rotate(27.67)"><tspan x="0" y="0">A</tspan></text><text class="cls-3" transform="translate(396.62 114.09) rotate(39.15)"><tspan x="0" y="0">N</tspan></text><path class="cls-1" d="M283.02,44.19l.27-5.5,34.97,1.72-.27,5.5-34.97-1.72Z"/><path class="cls-1" d="M363.5,184.14c-.38.08-7.46,1.42-12.62-2.75-3.71-3-5.77-7.61-5.77-15.29,0-1.1,0-3.93,0-12.75l-.06-.77-61.58-33.58-61.58,33.58-.06.77c0,8.82,0,11.65,0,12.75,0,7.69-2.06,12.3-5.77,15.29-5.16,4.17-12.24,2.83-12.62,2.75l-112.43-28.08v108.66c1.9,72.96,77.6,140.24,83.3,145.41,15.15,13.74,106.12,62.21,106.99,62.77l2.17,1.37,2.17-1.37c.88-.55,91.84-49.02,106.99-62.77,5.7-5.17,81.4-72.45,83.3-145.41v-108.66l-112.43,28.08ZM248.25,358.94c-3.1,1.67-16.68,7.99-32.82.75-18.98-8.51-44.68-37.34-59.69-126.2l77.94-.05c.06-.02,6.67-1.73,10.89,1.52,2.45,1.88,3.69,5.14,3.69,9.68h.1c-.48,3.57-.89,21.05-.11,114.29ZM351.5,359.69c-16.14,7.24-29.72.92-32.82-.75.78-93.24.37-110.72-.11-114.29h.1c0-4.55,1.24-7.8,3.69-9.68,4.22-3.24,10.83-1.53,10.89-1.52l77.94.05c-15.01,88.86-40.71,117.68-59.69,126.2Z"/></svg>