<?xml version="1.0" encoding="UTF-8"?><svg id="Capa_2" xmlns="http://www.w3.org/2000/svg" viewBox="0 0 566.93 566.93"><defs><style>.cls-1,.cls-2{fill:#cc1333;}.cls-1,.cls-3{stroke-width:0px;}.cls-2{font-family:NicoKaku, NicoKaku;font-size:45px;}.cls-3{fill:#f6f6f6;}</style></defs><ellipse class="cls-3" cx="283.47" cy="283.46" rx="279.47" ry="279.21"/><path class="cls-1" d="M559.69,313.28h-7.22c-6.41,61.14-33.43,117.81-77.73,161.88-51.09,50.83-119.02,78.82-191.27,78.82s-140.18-27.99-191.27-78.82c-44.3-44.07-71.33-100.74-77.73-161.88H5.67c14.3,140.08,133.22,249.39,277.8,249.39s263.5-109.31,277.8-249.39h-1.57Z"/><path class="cls-1" d="M14.49,253.37c6.46-61.04,33.47-117.6,77.7-161.61C143.28,40.93,211.21,12.94,283.46,12.94s140.18,27.99,191.27,78.82c44.23,44,71.24,100.57,77.7,161.61h8.79C546.8,113.42,427.95,4.25,283.46,4.25S20.13,113.42,5.7,253.37h8.79Z"/><text class="cls-2" transform="translate(91.8 436.03) rotate(47.04)"><tspan x="0" y="0">S</tspan></text><text class="cls-2" transform="translate(117.16 462.83) rotate(38.71)"><tspan x="0" y="0">H</tspan></text><text class="cls-2" transform="translate(144.17 484.23) rotate(30.66)"><tspan x="0" y="0">I</tspan></text><text class="cls-2" transform="translate(174.39 501.96) rotate(22.39)"><tspan x="0" y="0">N</tspan></text><text class="cls-2" transform="translate(208.27 515.66) rotate(14.02)"><tspan x="0" y="0">D</tspan></text><text class="cls-2" transform="translate(243.04 524.11) rotate(5.74)"><tspan x="0" y="0">E</tspan></text><text class="cls-2" transform="translate(278.36 527.49) rotate(-2.69)"><tspan x="0" y="0">N</tspan></text><text class="cls-2" transform="translate(315 525.58) rotate(-11.41)"><tspan x="0" y="0">B</tspan></text><text class="cls-2" transform="translate(352.04 517.81) rotate(-19.99)"><tspan x="0" y="0">U</tspan></text><text class="cls-2" transform="translate(386.21 505.21) rotate(-28.56)"><tspan x="0" y="0">T</tspan></text><text class="cls-2" transform="translate(419.58 486.69) rotate(-37.21)"><tspan x="0" y="0">A</tspan></text><text class="cls-2" transform="translate(447.89 464.9) rotate(-45.49)"><tspan x="0" y="0">I</tspan></text><text class="cls-2" transform="translate(220.48 81.32) rotate(-11.7)"><tspan x="0" y="0">震</tspan></text><text class="cls-2" transform="translate(263.06 72.36) rotate(.56)"><tspan x="0" y="0">電</tspan></text><text class="cls-2" transform="translate(306.57 72.62) rotate(12.91)"><tspan x="0" y="0">隊</tspan></text><path class="cls-1" d="M103.22,279.79c5.05-65.63,36.79-114.5,93.23-148.56,9.39,40.72,18.65,80.86,27.95,121.17-12.83,9.59-22.92,21.51-30.05,35.88-7.1,14.29-10.53,29.38-10.4,45.38.14,16.08,3.87,31.2,11.34,45.35,10.21,19.31,25.23,33.79,44.86,43.41,9.66,4.73,19.81,7.91,31.02,9.05-24.92-108.03-49.74-215.62-74.62-323.44,29.05,16.78,58.02,33.52,86.99,50.25,29.01-16.77,57.89-33.46,86.97-50.27-24.9,107.94-49.7,215.47-74.53,323.1,23.39-1.35,59.08-18.05,76.99-54.42,9.89-20.09,12.52-41.27,8.37-63.02-4.83-25.28-18.03-45.72-38.68-61.28,9.32-40.16,18.26-80.29,27.85-120.35,59.06,31.11,101.57,101.71,92.81,177.88-4.68,40.69-21.03,76.2-49.6,105.66-34.61,35.7-77.17,53.85-126.89,55.7-1.03,4.41-2.04,8.75-3.05,13.09-.91-2.1-1.47-4.23-2.01-6.37-.56-2.23-1.09-4.46-1.64-6.72-46.85-1.75-87.75-17.96-121.47-50.46-33.64-32.42-52.46-72.11-55.13-118.84-.1.75-.2-23.6-.3-22.19Z"/></svg>