<?xml version="1.0" encoding="UTF-8"?><svg id="Capa_1" xmlns="http://www.w3.org/2000/svg" viewBox="0 0 566.93 566.93"><defs><style>.cls-1{font-family:Orbitron-Black, Orbitron;font-size:45px;font-weight:800;}.cls-1,.cls-2{fill:#35495e;}.cls-3{fill:#f6f6f6;}.cls-3,.cls-2,.cls-4{stroke-width:0px;}.cls-4{fill:#f1c410;}</style></defs><circle class="cls-2" cx="283.46" cy="283.46" r="279.21"/><circle class="cls-4" cx="283.46" cy="283.46" r="212.66"/><path class="cls-3" d="m290.87,15.7v47.24s91.06,0,150.24,66.58l34.15-33.01S414.37,21.96,290.87,15.7Z"/><path class="cls-3" d="m490.06,112.45s40.41,48.37,50.08,96.75l-37.56,23.33s-3.98-35.28-44.39-88.21c1.14-.57,31.87-31.87,31.87-31.87Z"/><path class="cls-3" d="m297.32,505.7v45.53s42.68-1.14,55.2-8.54c0-.57-30.73-39.84-30.73-39.84,0,0-11.95,4.55-24.47,2.85Z"/><path class="cls-3" d="m340.38,498.87l24.85,40.22s38.89-12.14,56.91-26.75c.38,0-52.17-23.9-52.17-23.9,0,0-19.54,7.59-29.59,10.43Z"/><path class="cls-3" d="m390.09,479.33l45.72,25.23s41.92-29.21,60.32-57.86h-62.98s-13.47,18.78-43.06,32.63Z"/><path class="cls-3" d="m454.77,428.11s29.02-37.75,38.32-64.31c0,.19,50.27-13.66,50.27-13.66,0,0-18.78,66.58-33.01,77.97h-55.58Z"/><path class="cls-3" d="m501.25,341.23s12.9-55.58,4.36-87.26c-.19.19,40.98-23.71,40.98-23.71,0,0,10.45,61.67,1.71,97.13.19,0-47.05,13.85-47.05,13.85Z"/><path class="cls-3" d="m276.06,15.7v47.24s-91.06,0-150.24,66.58l-34.15-33.01S152.56,21.96,276.06,15.7Z"/><path class="cls-3" d="m76.87,112.45s-40.41,48.37-50.08,96.75l37.56,23.33s3.98-35.28,44.39-88.21c-1.14-.57-31.87-31.87-31.87-31.87Z"/><path class="cls-3" d="m269.61,505.7v45.53s-42.68-1.14-55.2-8.54c0-.57,30.73-39.84,30.73-39.84,0,0,11.95,4.55,24.47,2.85Z"/><path class="cls-3" d="m226.54,498.87l-24.85,40.22s-38.89-12.14-56.91-26.75c-.38,0,52.17-23.9,52.17-23.9,0,0,19.54,7.59,29.59,10.43Z"/><path class="cls-3" d="m176.84,479.33l-45.72,25.23s-41.92-29.21-60.32-57.86h62.98s13.47,18.78,43.06,32.63Z"/><path class="cls-3" d="m112.16,428.11s-29.02-37.75-38.32-64.31c0,.19-50.27-13.66-50.27-13.66,0,0,18.78,66.58,33.01,77.97h55.58Z"/><path class="cls-3" d="m65.68,341.23s-12.9-55.58-4.36-87.26c.19.19-40.98-23.71-40.98-23.71,0,0-10.45,61.67-1.71,97.13-.19,0,47.05,13.85,47.05,13.85Z"/><polygon class="cls-2" points="144.18 314.26 94.26 265.18 219.14 300.5 229.54 319.62 144.18 314.26"/><polygon class="cls-2" points="154.16 323.8 185.55 354.7 243.56 345.57 233.99 327.88 154.16 323.8"/><polygon class="cls-2" points="193.69 362.93 215.11 383.71 254.82 366.1 247.6 352.82 193.69 362.93"/><polygon class="cls-2" points="335.7 273.78 283.46 357.28 231.23 273.78 73.91 249.87 224.94 293.29 283.46 400.9 341.99 293.29 493.02 249.87 335.7 273.78"/><polygon class="cls-2" points="422.75 314.26 472.67 265.18 347.78 300.5 337.39 319.62 422.75 314.26"/><polygon class="cls-2" points="412.77 323.8 381.38 354.7 323.37 345.57 332.94 327.88 412.77 323.8"/><polygon class="cls-2" points="373.24 362.93 351.82 383.71 312.11 366.1 319.33 352.82 373.24 362.93"/><polygon class="cls-2" points="283.46 270.11 288.96 287.19 306.9 287.14 292.36 297.64 297.95 314.69 283.46 304.1 268.98 314.69 274.57 297.64 260.03 287.14 277.97 287.19 283.46 270.11"/><text class="cls-1" transform="translate(128.39 210.18) rotate(-58.38)"><tspan x="0" y="0">B</tspan></text><text class="cls-1" transform="translate(147.12 179.48) rotate(-46.43)"><tspan x="0" y="0">U</tspan></text><text class="cls-1" transform="translate(171.67 153.45) rotate(-34.51)"><tspan x="0" y="0">R</tspan></text><text class="cls-1" transform="translate(201.05 133.23) rotate(-22.94)"><tspan x="0" y="0">E</tspan></text><text class="cls-1" transform="translate(231.34 120.08) rotate(-11.3)"><tspan x="0" y="0">A</tspan></text><text class="cls-1" transform="translate(266.78 112.86) rotate(.61)"><tspan x="0" y="0">U</tspan></text><text class="cls-1" transform="translate(302.87 113.99) rotate(8.95)"><tspan x="0" y="0"> </tspan></text><text class="cls-1" transform="translate(316.3 115.16) rotate(17.38)"><tspan x="0" y="0">A</tspan></text><text class="cls-1" transform="translate(350.82 125.99) rotate(29.01)"><tspan x="0" y="0">E</tspan></text><text class="cls-1" transform="translate(379.86 141.77) rotate(40.5)"><tspan x="0" y="0">G</tspan></text><text class="cls-1" transform="translate(406.92 165.98) rotate(48.06)"><tspan x="0" y="0">I</tspan></text><text class="cls-1" transform="translate(413.62 172.01) rotate(55.58)"><tspan x="0" y="0">S</tspan></text><text class="cls-1" transform="translate(132.93 423.45) rotate(41.95)"><tspan x="0" y="0">S</tspan></text><text class="cls-1" transform="translate(163.7 450.4) rotate(30.83)"><tspan x="0" y="0">T</tspan></text><text class="cls-1" transform="translate(196.51 469.72) rotate(19.74)"><tspan x="0" y="0">A</tspan></text><text class="cls-1" transform="translate(235.93 483.42) rotate(8.25)"><tspan x="0" y="0">R</tspan></text><text class="cls-1" transform="translate(277.06 489.16) rotate(-4.07)"><tspan x="0" y="0">M</tspan></text><text class="cls-1" transform="translate(323.02 485.19) rotate(-16.4)"><tspan x="0" y="0">A</tspan></text><text class="cls-1" transform="translate(362.93 473) rotate(-27.98)"><tspan x="0" y="0">D</tspan></text><text class="cls-1" transform="translate(399.51 453.11) rotate(-39.57)"><tspan x="0" y="0">A</tspan></text></svg>