<?xml version="1.0" encoding="UTF-8"?><svg id="Capa_1" xmlns="http://www.w3.org/2000/svg" viewBox="0 0 566.93 566.93"><defs><style>.cls-1{fill:#662483;}.cls-2{fill:#e30613;}</style></defs><g><path class="cls-2" d="m283.46,559.09c-73.62,0-142.84-28.67-194.9-80.73S7.83,357.09,7.83,283.46s28.67-142.84,80.73-194.9C140.62,36.5,209.84,7.83,283.46,7.83s142.84,28.67,194.9,80.73,80.73,121.28,80.73,194.9-28.67,142.84-80.73,194.9-121.28,80.73-194.9,80.73Z"/><path class="cls-1" d="m283.46,12.83c36.54,0,71.98,7.15,105.34,21.26,32.23,13.63,61.17,33.14,86.03,58,24.86,24.86,44.37,53.8,58,86.03,14.11,33.36,21.26,68.8,21.26,105.34s-7.15,71.98-21.26,105.34c-13.63,32.23-33.15,61.17-58,86.03-24.86,24.86-53.8,44.37-86.03,58-33.36,14.11-68.8,21.26-105.34,21.26s-71.98-7.15-105.34-21.26c-32.23-13.63-61.17-33.15-86.03-58-24.86-24.86-44.37-53.8-58-86.03-14.11-33.36-21.26-68.8-21.26-105.34s7.15-71.98,21.26-105.34c13.63-32.23,33.15-61.17,58-86.03,24.86-24.86,53.8-44.37,86.03-58,33.36-14.11,68.8-21.26,105.34-21.26m0-10C128.48,2.83,2.83,128.48,2.83,283.46s125.64,280.63,280.63,280.63,280.63-125.64,280.63-280.63S438.45,2.83,283.46,2.83h0Z"/></g><path class="cls-1" d="m321.2,414.52c-2,19.06-18.11,33.92-37.7,33.92-20.94,0-37.91-16.97-37.91-37.91s16.97-37.91,37.91-37.91c18.52,0,33.93,13.29,37.24,30.85h47.49c0-38.67-84.68-111.63-84.68-111.63v33.95c-46.9,0-84.92,38.02-84.92,84.93s38.02,84.93,84.93,84.93,82.84-35.98,84.83-81.12h-47.18Z"/><path class="cls-1" d="m245.8,152.26c2-19.06,18.11-33.92,37.7-33.92,20.94,0,37.91,16.97,37.91,37.91s-16.97,37.91-37.91,37.91c-18.52,0-33.93-13.29-37.24-30.85h-47.49c0,38.67,84.68,111.63,84.68,111.63v-33.95c46.9,0,84.92-38.02,84.92-84.93s-38.02-84.93-84.93-84.93-82.84,35.98-84.83,81.12h47.18Z"/><path class="cls-1" d="m414.63,245.69c19.06,2,33.92,18.11,33.92,37.7,0,20.94-16.97,37.91-37.91,37.91s-37.91-16.97-37.91-37.91c0-18.52,13.29-33.93,30.85-37.24v-47.49c-38.67,0-111.63,84.68-111.63,84.68h33.95c0,46.9,38.02,84.92,84.93,84.92s84.93-38.02,84.93-84.93-35.98-82.84-81.12-84.83v47.18Z"/><path class="cls-1" d="m152.37,321.09c-19.06-2-33.92-18.11-33.92-37.7,0-20.94,16.97-37.91,37.91-37.91s37.91,16.97,37.91,37.91c0,18.52-13.29,33.93-30.85,37.24v47.49c38.67,0,111.63-84.68,111.63-84.68h-33.95c0-46.9-38.02-84.92-84.93-84.92s-84.93,38.02-84.93,84.93,35.98,82.84,81.12,84.83v-47.18Z"/></svg>