<?xml version="1.0" encoding="UTF-8"?><svg id="Capa_1" xmlns="http://www.w3.org/2000/svg" viewBox="0 0 566.93 566.93"><defs><style>.cls-1{fill:#35495e;}.cls-1,.cls-2,.cls-3{stroke-width:0px;}.cls-2{fill:#f1c410;}.cls-3{fill:#fff;}</style></defs><circle class="cls-1" cx="283.46" cy="283.46" r="279.21"/><circle class="cls-1" cx="283.46" cy="283.46" r="212.66"/><path class="cls-2" d="M290.87,15.7v47.24s91.06,0,150.24,66.58l34.15-33.01S414.37,21.96,290.87,15.7Z"/><path class="cls-2" d="M490.06,112.45s40.41,48.37,50.08,96.75l-37.56,23.33s-3.98-35.28-44.39-88.21c1.14-.57,31.87-31.87,31.87-31.87Z"/><path class="cls-2" d="M297.32,505.7v45.53s42.68-1.14,55.2-8.54c0-.57-30.73-39.84-30.73-39.84,0,0-11.95,4.55-24.47,2.85Z"/><path class="cls-2" d="M340.38,498.87l24.85,40.22s38.89-12.14,56.91-26.75c.38,0-52.17-23.9-52.17-23.9,0,0-19.54,7.59-29.59,10.43Z"/><path class="cls-2" d="M390.09,479.33l45.72,25.23s41.92-29.21,60.32-57.86h-62.98s-13.47,18.78-43.06,32.63Z"/><path class="cls-2" d="M454.77,428.11s29.02-37.75,38.32-64.31c0,.19,50.27-13.66,50.27-13.66,0,0-18.78,66.58-33.01,77.97h-55.58Z"/><path class="cls-2" d="M501.25,341.23s12.9-55.58,4.36-87.26c-.19.19,40.98-23.71,40.98-23.71,0,0,10.45,61.67,1.71,97.13.19,0-47.05,13.85-47.05,13.85Z"/><path class="cls-2" d="M276.06,15.7v47.24s-91.06,0-150.24,66.58l-34.15-33.01S152.56,21.96,276.06,15.7Z"/><path class="cls-2" d="M76.87,112.45s-40.41,48.37-50.08,96.75l37.56,23.33s3.98-35.28,44.39-88.21c-1.14-.57-31.87-31.87-31.87-31.87Z"/><path class="cls-2" d="M269.61,505.7v45.53s-42.68-1.14-55.2-8.54c0-.57,30.73-39.84,30.73-39.84,0,0,11.95,4.55,24.47,2.85Z"/><path class="cls-2" d="M226.54,498.87l-24.85,40.22s-38.89-12.14-56.91-26.75c-.38,0,52.17-23.9,52.17-23.9,0,0,19.54,7.59,29.59,10.43Z"/><path class="cls-2" d="M176.84,479.33l-45.72,25.23s-41.92-29.21-60.32-57.86h62.98s13.47,18.78,43.06,32.63Z"/><path class="cls-2" d="M112.16,428.11s-29.02-37.75-38.32-64.31c0,.19-50.27-13.66-50.27-13.66,0,0,18.78,66.58,33.01,77.97h55.58Z"/><path class="cls-2" d="M65.68,341.23s-12.9-55.58-4.36-87.26c.19.19-40.98-23.71-40.98-23.71,0,0-10.45,61.67-1.71,97.13-.19,0,47.05,13.85,47.05,13.85Z"/><path class="cls-3" d="M73.08,269.08l5.47-32.01,6.22,1.06-5.47,32.01-6.22-1.06ZM81.45,257.8l3.33-6.96,18,3.07-1.25,7.32-20.08-3.43Z"/><path class="cls-3" d="M106.79,235.33c-.5,1.35-1.38,2.31-2.64,2.89s-2.54.63-3.83.16l-15.66-5.8c-1.29-.48-2.22-1.35-2.8-2.61-.58-1.26-.62-2.57-.12-3.91l7.73-20.88c.5-1.35,1.38-2.31,2.64-2.89,1.26-.58,2.54-.63,3.83-.16l15.66,5.8c1.29.48,2.22,1.35,2.8,2.61.58,1.26.62,2.57.12,3.91l-7.73,20.88ZM88.93,224.76c-.12.34-.1.69.07,1.05.17.37.45.62.84.77l10.44,3.87c.39.15.77.14,1.14-.03.37-.17.61-.42.74-.76l5.15-13.92c.12-.34.1-.69-.07-1.05-.17-.37-.45-.62-.84-.77l-10.44-3.87c-.39-.15-.77-.14-1.14.03-.37.17-.61.42-.74.76l-5.15,13.92Z"/><path class="cls-3" d="M110.04,193.17l11.38,6.97-3.88,6.33-22.79-13.95,14.29-23.34c.75-1.22,1.8-2,3.15-2.32,1.35-.33,2.61-.13,3.78.59l6.33,3.88c.95.58,1.65,1.81,2.1,3.68,1.87-.45,3.28-.38,4.23.2l5.86,3.58-3.88,6.33-5.06-3.1c-.36-.22-.73-.28-1.12-.19-.39.09-.68.29-.87.6l-7.45,12.17-6.08-1.41ZM109.71,192.97l8.48-13.85c.19-.31.23-.65.14-1.05-.09-.39-.32-.7-.68-.92l-3.17-1.94c-.36-.22-.73-.28-1.12-.19-.39.09-.68.29-.87.6l-8.48,13.85,5.7,3.49Z"/><path class="cls-3" d="M135.46,165.43c.31.28.67.41,1.07.39.4-.02.72-.16.96-.43l14.65-16.15.96.87c1.02.92,1.56,2.08,1.63,3.47.07,1.39-.38,2.62-1.34,3.68l-13.71,15.12c-.96,1.06-2.14,1.63-3.53,1.7-1.39.07-2.59-.36-3.61-1.28l-12.37-11.22c-1.02-.92-1.56-2.08-1.63-3.47-.07-1.39.38-2.61,1.34-3.68l13.71-15.12c.96-1.06,2.14-1.63,3.53-1.7s2.59.36,3.61,1.28l.96.87-14.65,16.15c-.24.27-.35.6-.33,1,.02.4.19.74.5,1.03l8.25,7.48Z"/><path class="cls-3" d="M154.3,134.45l9.78,12.82-5.9,4.5-16.21-21.24,5.9-4.5,6.19,8.11,14.01-10.69-6.19-8.11,5.9-4.5,16.2,21.24-5.9,4.5-6.19-8.11-12.45,9.5-5.15-3.51Z"/><path class="cls-3" d="M191.17,120.53c.38.12.73.1,1.05-.06l14.45-7.41,2.88,5.61-17.75,9.11c-1.28.65-2.58.77-3.9.34-1.32-.43-2.3-1.25-2.93-2.47l-9.91-19.31,6.6-3.39,8.64,16.84c.19.37.48.62.86.75Z"/><path class="cls-3" d="M202.04,93.12l6.91-2.7,9.72,24.89-6.91,2.7-9.72-24.89Z"/><path class="cls-3" d="M244.57,99.6l-.58-2.34-11.6,2.86-3.55-5.62,20.84-5.14,2.76,11.17c.33,1.33.13,2.6-.58,3.79-.72,1.19-1.77,1.96-3.17,2.3l-21.62,5.33c-1.39.34-2.68.16-3.88-.56-1.19-.72-1.95-1.75-2.28-3.08l-4-16.21c-.33-1.33-.13-2.59.58-3.79.72-1.19,1.78-1.96,3.17-2.3l21.62-5.33c1.39-.34,2.68-.16,3.87.56,1.19.72,1.95,1.74,2.28,3.08l.31,1.26-22.97,5.67c-.35.09-.63.3-.83.65-.21.34-.26.72-.16,1.13l2.67,10.81c.1.41.32.72.67.92.34.21.69.27,1.04.18l14.41-3.56c.35-.09.63-.3.83-.65.21-.34.26-.72.16-1.13Z"/><path class="cls-3" d="M263.58,88.17l.79,16.1-7.41.37-1.32-26.69,7.41-.37.5,10.19,17.61-.87-.5-10.19,7.41-.37,1.32,26.69-7.41.37-.5-10.19-15.64.77-2.26-5.81Z"/><path class="cls-3" d="M294.85,76.39l32.17,4.43-.86,6.25-32.17-4.43.86-6.25ZM306.4,84.38l7.06,3.11-2.49,18.09-7.35-1.01,2.78-20.18Z"/><path class="cls-3" d="M344.22,112.96l11.19-24.26,23.17,10.68c1.3.6,2.2,1.55,2.68,2.86.48,1.3.43,2.58-.14,3.83l-2.65,5.75c.05.1.11.26.2.46.48,1.31.44,2.59-.14,3.84l-2.72,5.9c-.58,1.25-1.51,2.11-2.82,2.59-1.3.48-2.61.42-3.91-.18l-24.85-11.46ZM357.71,101.43l-4.11,8.91,14.74,6.8c.33.15.68.16,1.05.02.38-.14.66-.4.83-.78l.39-.84c.18-.38.19-.76.05-1.14-.14-.38-.37-.64-.7-.79l-12.96-5.97.69-6.2ZM357.87,101.07l13.06,6.02c.33.15.68.16,1.06.02.38-.14.65-.4.83-.78l.39-.84c.17-.38.19-.76.06-1.14-.14-.38-.37-.64-.7-.79l-13.06-6.02-1.63,3.54Z"/><path class="cls-3" d="M390.06,121.23l-7.78,10.83-6.03-4.33,15.59-21.7,22.23,15.97c1.17.84,1.86,1.94,2.09,3.31.23,1.37-.06,2.62-.86,3.73l-4.33,6.03c-.65.9-1.93,1.51-3.82,1.82.31,1.9.14,3.3-.51,4.2l-4.01,5.58-6.03-4.33,3.46-4.82c.25-.34.33-.71.27-1.11-.07-.4-.24-.7-.54-.91l-11.59-8.33,1.85-5.95ZM390.29,120.92l13.19,9.47c.29.21.64.28,1.03.22.4-.06.72-.27.96-.61l2.17-3.01c.25-.34.33-.71.27-1.11-.06-.4-.24-.7-.53-.91l-13.19-9.47-3.9,5.43Z"/><path class="cls-3" d="M423.32,129.97l5.43,5.06-18.23,19.54-5.43-5.06,18.23-19.54Z"/><path class="cls-3" d="M435.91,171.11l1.86-1.54-7.61-9.21,3.53-5.63,13.67,16.55-8.87,7.33c-1.06.87-2.28,1.25-3.67,1.12-1.38-.13-2.53-.75-3.45-1.86l-14.18-17.16c-.91-1.11-1.31-2.35-1.17-3.74s.73-2.51,1.79-3.39l12.87-10.64c1.06-.87,2.28-1.25,3.66-1.11s2.53.75,3.45,1.86l14.18,17.16c.91,1.11,1.31,2.35,1.17,3.74s-.73,2.51-1.78,3.39l-1,.83-15.07-18.24c-.23-.28-.54-.43-.94-.47-.4-.04-.76.08-1.09.34l-8.58,7.09c-.32.27-.51.6-.54,1-.04.4.06.74.29,1.02l9.46,11.44c.23.28.54.43.94.47.4.04.76-.08,1.09-.35Z"/><path class="cls-3" d="M449.56,188.15l-10.72.46-4.09-7.36,29.84-1.3,3.31,5.95c.7,1.27.62,2.53-.25,3.79l-15.56,22.76-4.09-7.36,2.34-3.42-4.98-8.95,4.2-4.56ZM450.03,188.13l4.29,7.72,5.58-8.15-9.87.43Z"/><path class="cls-3" d="M460.37,218.16l-5.62,1.85-2.32-7.05,25.38-8.34,8.54,26c.45,1.36.36,2.67-.27,3.91-.63,1.24-1.59,2.08-2.9,2.5l-15.86,5.21c-1.3.43-2.58.33-3.82-.3-1.24-.63-2.09-1.62-2.53-2.99l-5.62-17.08,5.01-3.72ZM460.74,218.04l5.07,15.42c.11.34.35.6.71.78.36.18.74.21,1.14.07l10.58-3.48c.4-.13.69-.38.87-.74.18-.36.21-.71.1-1.05l-5.07-15.42-13.4,4.4Z"/><path class="cls-3" d="M480.78,252.17l2.37,18.29-5.99,2.89-2.39-18.42,5.62-2.71-8.26,1.07c-.42.05-.75.24-1,.56-.25.32-.34.66-.3,1.01l2.81,21.62-6.26.81-3.28-25.3c-.18-1.42.15-2.69,1-3.79.85-1.1,1.95-1.74,3.32-1.92l16.56-2.15c1.36-.18,2.59.16,3.69,1.01,1.1.85,1.75,1.98,1.93,3.41l3.28,25.3-6.26.81-2.8-21.62c-.05-.36-.23-.66-.55-.9-.32-.25-.69-.34-1.1-.29l-2.39.31Z"/><path class="cls-3" d="M148.6,418.24c-.99-1.04-1.47-2.25-1.44-3.64.03-1.39.55-2.56,1.54-3.51l4.7-4.48c.99-.95,2.19-1.4,3.58-1.37,1.39.03,2.58.57,3.57,1.61l15.36,16.12c.99,1.04,1.47,2.25,1.44,3.64-.03,1.39-.55,2.56-1.54,3.51l-.94.9-16.32-17.12c-.25-.26-.57-.39-.97-.4-.4,0-.76.13-1.06.42l-.67.64c-.3.29-.46.64-.47,1.04,0,.4.11.73.36.99l12.8,13.43c.99,1.04,1.47,2.25,1.44,3.64-.03,1.39-.55,2.56-1.54,3.51l-4.7,4.48c-.99.95-2.19,1.4-3.58,1.37-1.39-.03-2.58-.57-3.57-1.61l-15.36-16.12c-.99-1.04-1.47-2.25-1.44-3.64s.55-2.56,1.54-3.51l.94-.9,16.32,17.12c.25.26.57.39.98.4.4,0,.76-.13,1.06-.42l.67-.64c.3-.29.46-.64.47-1.04,0-.4-.11-.73-.36-.99l-12.8-13.43Z"/><path class="cls-3" d="M171.04,454.16l6.52-27.61,6.65,4.31-3.91,16.59,13.05-10.67,6.82,4.42-3.91,16.59,13.05-10.67,6.63,4.3-21.73,17.76-7.21-4.67,3.74-15.88-12.49,10.21-7.21-4.67Z"/><path class="cls-3" d="M211.8,477.66c-1.36-.46-2.34-1.32-2.95-2.57-.61-1.25-.7-2.52-.25-3.82l5.41-15.8c.44-1.3,1.29-2.25,2.54-2.87,1.25-.61,2.55-.69,3.91-.22l21.07,7.21c1.36.46,2.34,1.32,2.95,2.57.61,1.25.7,2.52.25,3.82l-5.41,15.8c-.44,1.3-1.29,2.25-2.54,2.87-1.25.61-2.55.69-3.91.22l-21.07-7.21ZM221.92,459.55c-.34-.12-.69-.08-1.05.09-.36.18-.61.46-.75.86l-3.6,10.53c-.14.4-.12.78.06,1.14.18.36.44.6.78.72l14.04,4.81c.34.12.69.09,1.05-.09s.61-.46.75-.86l3.6-10.53c.14-.4.12-.78-.06-1.14-.18-.36-.43-.6-.77-.72l-14.04-4.81Z"/><path class="cls-3" d="M254.65,476.18l-1.44,13.26-7.38-.8,2.89-26.56,27.21,2.96c1.43.16,2.58.78,3.45,1.86.87,1.08,1.23,2.31,1.08,3.67l-.8,7.38c-.12,1.11-.93,2.26-2.43,3.47,1.2,1.5,1.75,2.8,1.63,3.91l-.74,6.83-7.38-.8.64-5.9c.05-.42-.06-.78-.31-1.1-.25-.31-.56-.49-.91-.53l-14.18-1.54-1.31-6.1ZM254.69,475.8l16.14,1.76c.36.04.69-.07,1.01-.32.31-.25.49-.59.54-1l.4-3.69c.05-.42-.06-.78-.31-1.1-.25-.31-.56-.49-.91-.53l-16.14-1.76-.72,6.64Z"/><path class="cls-3" d="M293.17,485.75l.66,5.88-7.38.82-2.96-26.55,27.2-3.03c1.43-.16,2.68.2,3.77,1.06,1.09.87,1.71,1.98,1.86,3.35l1.85,16.6c.15,1.36-.21,2.59-1.07,3.68-.87,1.09-2.02,1.71-3.44,1.87l-17.87,1.99-2.61-5.66ZM293.13,485.36l16.14-1.8c.36-.04.66-.22.91-.53.25-.31.35-.68.31-1.1l-1.23-11.06c-.05-.42-.23-.75-.54-1-.31-.25-.65-.36-1.01-.32l-16.14,1.8,1.56,14.01Z"/><path class="cls-3" d="M328.53,469.26l17.48-5.9,4,5.31-17.6,5.94-3.76-4.98,5.16,15.28-7.03,2.37-6.94-20.57c-.44-1.3-.35-2.57.27-3.82.62-1.25,1.61-2.1,2.97-2.56l24.17-8.16,2.02,5.98-20.66,6.97c-.34.12-.6.35-.78.71-.18.36-.2.74-.07,1.14l.77,2.28Z"/><path class="cls-3" d="M365.65,472.85c-1.24.72-2.53.91-3.88.56-1.35-.35-2.37-1.12-3.06-2.31l-8.42-14.42c-.69-1.19-.86-2.45-.51-3.79s1.15-2.38,2.39-3.1l19.22-11.23c1.24-.72,2.53-.91,3.88-.56,1.34.35,2.36,1.12,3.06,2.31l8.42,14.42c.69,1.19.86,2.45.51,3.8-.35,1.34-1.15,2.38-2.39,3.1l-19.22,11.23ZM358.56,453.35c-.31.18-.52.47-.62.86-.1.39-.05.77.16,1.13l5.62,9.61c.21.36.51.6.9.7.39.1.74.06,1.05-.12l12.82-7.49c.31-.18.52-.47.62-.86.1-.39.05-.76-.16-1.13l-5.62-9.61c-.21-.36-.51-.6-.9-.7-.39-.1-.74-.06-1.05.12l-12.82,7.49Z"/><path class="cls-3" d="M392.55,439.43l9.1,9.76-5.43,5.06-18.22-19.54,20.01-18.67c1.05-.98,2.27-1.44,3.66-1.4,1.39.05,2.55.57,3.49,1.58l5.06,5.43c.76.81,1.11,2.18,1.04,4.11,1.92.07,3.26.51,4.02,1.32l4.68,5.02-5.43,5.06-4.05-4.34c-.29-.31-.63-.47-1.03-.48-.4-.01-.73.1-1,.35l-10.43,9.73-5.47-2.99ZM392.28,439.14l11.87-11.07c.26-.25.4-.57.42-.97.01-.4-.12-.76-.41-1.06l-2.53-2.71c-.29-.31-.63-.47-1.03-.48-.4-.01-.73.1-1,.35l-11.87,11.07,4.56,4.88Z"/><path class="cls-3" d="M337.66,274.34c-3.84,26.43-16.15,35.73-16.15,35.73-10.69,10.27-20.24.16-20.24.16l2.32-26.56h-42.28l2.32,26.56s-9.55,10.11-20.24-.16c0,0-12.31-9.3-16.15-35.73h-119.52l17.68,17.68h88.14s14.18,53.09,53.53,52.91l8.19,82.72s.39,6.25,7.18,6.21c6.78.05,7.18-6.21,7.18-6.21l8.19-82.72c39.36.17,53.53-52.91,53.53-52.91h88.14l17.68-17.68h-119.52Z"/><polygon class="cls-3" points="351.37 310.23 406.11 310.4 418.5 298.02 363.58 298.02 351.37 310.23"/><polygon class="cls-3" points="342.57 329.54 363.15 329.71 375.54 317.32 354.79 317.32 342.57 329.54"/><polygon class="cls-3" points="282.46 278.49 308.72 278.49 325.93 265.25 321.33 258.36 282.46 258.36 243.6 258.36 239 265.25 256.21 278.49 282.46 278.49"/><polygon class="cls-3" points="201.35 298.02 146.43 298.02 158.82 310.4 213.56 310.23 201.35 298.02"/><polygon class="cls-3" points="189.39 317.32 201.77 329.71 222.36 329.54 210.14 317.32 189.39 317.32"/><path class="cls-3" d="M269.19,253.31s-13.28-20.28-11.37-46.69c0,0-27.91,46.31,11.37,46.69Z"/><path class="cls-3" d="M283.84,252.66s8.02-15.07-.95-33.21c-.09-.15-11.2-12.79-11.59-23.63-.04-.28-.44-4.27-2.49-8.05,0,0-10.65,17.72-3.96,42.2.12.34,8.55,25.55,18.99,22.69Z"/><path class="cls-3" d="M293.14,245.04s26.52-41.7-10.98-76.44c0,0-18.64,20.16,4.59,47.98.16.29,7.66,15.13,6.4,28.46Z"/><path class="cls-3" d="M295.38,253.77c43.56-7.34,11.29-47.64,11.29-47.64,4.61,25.79-11.29,47.64-11.29,47.64Z"/></svg>