<?xml version="1.0" encoding="utf-8"?>
<!-- Generator: Adobe Illustrator 24.1.1, SVG Export Plug-In . SVG Version: 6.00 Build 0)  -->
<svg version="1.1" id="Capa_1" xmlns="http://www.w3.org/2000/svg" xmlns:xlink="http://www.w3.org/1999/xlink" x="0px" y="0px"
	 viewBox="0 0 566.9 566.9" style="enable-background:new 0 0 566.9 566.9;" xml:space="preserve">
<style type="text/css">
	.st0{fill:#FFFFFF;}
	.st1{fill:none;stroke:#FFFFFF;stroke-width:5.67;stroke-miterlimit:10;}
	.st2{fill:#009FE3;stroke:#009FE3;stroke-width:5.67;stroke-miterlimit:10;}
	.st3{fill:#1D1D1B;}
	.st4{enable-background:new    ;}
</style>
<path class="st0" d="M286.5,15.5c149.8,0,271.3,121.4,271.3,271.3S436.3,558,286.5,558S15.2,436.6,15.2,286.7S136.7,15.5,286.5,15.5
	z"/>
<path class="st1" d="M286.5,15.5c-149.8,0-271.3,121.4-271.3,271.3S136.7,558,286.5,558s271.3-121.4,271.3-271.3
	S436.3,15.5,286.5,15.5z"/>
<path class="st2" d="M284.5,12.2v545.3c150.8,0,273-122.1,273-272.6S435.3,12.2,284.5,12.2z"/>
<path class="st0" d="M283.5,12.2c-149.8,0-271.3,121.4-271.3,271.3s121.4,271.3,271.3,271.3s271.3-121.5,271.3-271.3
	S433.3,12.2,283.5,12.2z M283.5,505.2c-122.5,0-221.7-99.3-221.7-221.7S161,61.8,283.5,61.8S505.2,161,505.2,283.5
	S405.9,505.2,283.5,505.2L283.5,505.2z"/>
<path class="st3" d="M283.5,12.2c149.8,0,271.3,121.4,271.3,271.3S433.3,554.7,283.5,554.7S12.2,433.3,12.2,283.5
	S133.6,12.2,283.5,12.2 M283.5,505.2c122.5,0,221.7-99.3,221.7-221.7S405.9,61.8,283.5,61.8S61.8,161,61.8,283.5
	S161,505.2,283.5,505.2 M283.5,4.3C129.2,4.3,4.3,129.4,4.3,283.7c0.1,112.1,67.2,213.3,170.4,257c142.1,60,305.9-6.5,365.9-148.6
	c60-142.1-6.5-305.9-148.6-365.9C357.8,11.6,320.8,4.2,283.5,4.3z M283.5,497.3c-117.9,0-213.8-95.9-213.8-213.8
	S165.6,69.7,283.5,69.7s213.8,95.9,213.8,213.8S401.3,497.2,283.5,497.3L283.5,497.3z"/>
<g class="st4">
	<path class="st3" d="M124.4,453.7l12.9,11.4l-3.9,4.4l-4.3-3.8l-16.8,19l-4.5-4l16.8-19l-4.1-3.7L124.4,453.7z"/>
</g>
<g class="st4">
	<path class="st3" d="M137.8,465.6l4.9,3.6l-7,9.5l8.4,6.2l7-9.5l4.8,3.6L137.4,504l-4.8-3.6l8.1-11l-8.4-6.2l-8.1,11l-4.9-3.6
		L137.8,465.6z"/>
</g>
<g class="st4">
	<path class="st3" d="M159.1,480.8l14.6,8.7l-3,5l-9.6-5.7l-2.9,4.8l9.6,5.7l-2.9,4.9l-9.6-5.7l-4.2,7.1l9.6,5.7l-3,5l-14.6-8.7
		L159.1,480.8z"/>
</g>
<g class="st4">
	<path class="st3" d="M197.5,505.1l-5.6,1.8c-0.6-2.6-1.6-4.2-3-4.9c-0.7-0.3-1.4-0.4-2-0.2c-0.6,0.2-1,0.5-1.2,1
		c-0.2,0.5-0.2,1-0.1,1.6c0.2,0.8,1,2.6,2.4,5.4c1.3,2.6,2.1,4.3,2.4,4.9c0.6,1.6,0.9,3,1,4.2c0,1.2-0.2,2.4-0.8,3.6
		c-1,2.4-2.7,3.9-5,4.8c-2.3,0.8-4.7,0.7-7.4-0.5c-2-0.9-3.6-2.2-4.7-3.8c-1.1-1.7-1.7-3.8-1.8-6.4l5.8-0.8c0.3,3.1,1.3,5.1,3.1,5.9
		c0.9,0.4,1.8,0.5,2.7,0.2c0.9-0.3,1.5-0.8,1.8-1.5c0.3-0.7,0.3-1.4,0.1-2.3c-0.2-0.9-0.8-2.3-1.9-4.4c-2-3.9-3.2-6.8-3.5-8.5
		c-0.3-1.8-0.2-3.4,0.4-4.7c0.9-2,2.4-3.4,4.5-4.1c2.1-0.8,4.3-0.7,6.5,0.3c1.4,0.6,2.7,1.5,3.7,2.8
		C195.9,500.9,196.8,502.7,197.5,505.1z"/>
</g>
<g class="st4">
	<path class="st3" d="M201.7,502.5l5.4,1.7l6.5,23.6l6.3-19.5l5.7,1.8l-9.5,29.7l-5.4-1.7l-6.5-23.5l-6.2,19.5l-5.7-1.8L201.7,502.5
		z"/>
</g>
<g class="st4">
	<path class="st3" d="M238.1,512.7l5.9,1.1l6,32.9l-6.1-1.1l-1.2-6.8l-12.5-2.4l-3.7,5.8l-6.1-1.1L238.1,512.7z M239.6,521.4
		l-6.1,9.7l8.2,1.6L239.6,521.4z"/>
</g>
<g class="st4">
	<path class="st3" d="M256.9,515.9l6,0.4l-0.8,10.7l9.2-10.1l7.1,0.5l-11.9,13.1l10.6,18.1l-7-0.5l-8.6-14.5l-1,13.8l-6-0.4
		L256.9,515.9z"/>
</g>
<g class="st4">
	<path class="st3" d="M280.4,517.4l17-0.3l0.1,5.8l-11.1,0.2l0.1,5.6l11.1-0.2l0.1,5.7l-11.1,0.2l0.2,8.2l11.1-0.2l0.1,5.8l-17,0.3
		L280.4,517.4z"/>
</g>
<g class="st4">
	<path class="st3" d="M316.3,515.2l16.7-3.1l1,5.7l-10.9,2l1,5.5l10.9-2l1,5.6l-10.9,2l1.5,8l10.9-2l1,5.7l-16.7,3.1L316.3,515.2z"
		/>
</g>
<g class="st4">
	<path class="st3" d="M347.9,508.2l5.8-1.8l20.5,26.3l-5.9,1.8l-4.2-5.4l-12.2,3.7l-0.6,6.9l-5.9,1.8L347.9,508.2z M353.3,515.2
		l-0.9,11.5l8-2.4L353.3,515.2z"/>
</g>
<g class="st4">
	<path class="st3" d="M366.8,502l15.9-6.8l2.3,5.4l-5.2,2.2l9.9,23.3l-5.5,2.4l-9.9-23.3l-5.1,2.2L366.8,502z"/>
</g>
<g class="st4">
	<path class="st3" d="M386.9,493.2l15-8l2.7,5.1l-9.8,5.2l2.7,5l9.8-5.2l2.7,5l-9.8,5.2l3.9,7.2l9.8-5.2l2.7,5.1l-15,8L386.9,493.2z
		"/>
</g>
<g class="st4">
	<path class="st3" d="M407.2,481.7l5.2-3.6c2.8-1.9,5-3.1,6.6-3.4c1.6-0.3,3.1-0.1,4.6,0.5c1.5,0.7,2.9,1.8,4,3.4
		c1.2,1.7,1.7,3.4,1.7,5.1c0,1.7-0.7,3.4-1.9,5.1l13.9,7.3l-5.4,3.7l-13.2-6.9l-0.4,0.3l7.5,10.9l-4.9,3.4L407.2,481.7z M419,488.5
		l1.5-1c1.6-1.1,2.5-2,2.8-2.8c0.3-0.8,0.1-1.7-0.5-2.6c-0.4-0.6-0.9-1-1.4-1.2c-0.6-0.2-1.2-0.2-1.8-0.1c-0.6,0.2-1.6,0.7-2.9,1.6
		l-1.3,0.9L419,488.5z"/>
</g>
<g class="st4">
	<path class="st3" d="M442.9,459.8l-0.8,5.8c-2.6-0.6-4.5-0.4-5.7,0.6c-0.6,0.5-0.9,1.1-1,1.7c-0.1,0.6,0,1.2,0.3,1.6
		c0.3,0.4,0.8,0.7,1.4,0.8c0.8,0.2,2.7,0.2,5.9,0.2c3,0,4.8,0,5.5,0.1c1.7,0.1,3.1,0.5,4.2,1c1.1,0.5,2.1,1.3,2.9,2.3
		c1.7,1.9,2.4,4.1,2.1,6.5c-0.3,2.4-1.5,4.5-3.6,6.4c-1.7,1.4-3.5,2.3-5.5,2.5c-2,0.2-4.1-0.1-6.6-1.2l1.8-5.5
		c2.9,1.1,5.1,1.1,6.6-0.2c0.8-0.7,1.2-1.4,1.4-2.3c0.1-0.9,0-1.6-0.5-2.2c-0.5-0.5-1.1-0.9-2-1.1c-0.9-0.2-2.4-0.3-4.7-0.2
		c-4.4,0.1-7.4-0.1-9.2-0.6c-1.7-0.5-3.1-1.3-4.1-2.5c-1.4-1.6-2-3.6-1.7-5.8c0.3-2.2,1.3-4.2,3.1-5.7c1.2-1,2.5-1.7,4.1-2.1
		C438.4,459.4,440.4,459.4,442.9,459.8z"/>
</g>
<g class="st4">
	<path class="st3" d="M26.3,342.3l-1.1-6.4l22-12.2l-24.8-4.3l-1.1-6.4l34.9,6.1l1,6L26.3,342.3z"/>
</g>
<g class="st4">
	<path class="st3" d="M20.9,304.5l-0.4-6.4l32.4-15l0.5,6.5l-6.7,3.1l0.9,13.4l7,2.2l0.5,6.5L20.9,304.5z M29.4,300.7l11.7,3.6
		l-0.6-8.8L29.4,300.7z"/>
</g>
<g class="st4">
	<path class="st3" d="M19.9,278.4l0.3-6.6c0.2-3.6,0.6-6.2,1.4-7.7c0.7-1.5,1.9-2.7,3.5-3.6c1.6-0.9,3.4-1.2,5.5-1.1
		c2.2,0.1,4,0.7,5.4,1.8c1.4,1.1,2.5,2.7,3.1,4.9l15.2-7.1l-0.3,6.9l-14.5,6.7l0,0.6l14.1,0.7l-0.3,6.3L19.9,278.4z M33.2,272.8
		l0.1-2c0.1-2-0.1-3.4-0.6-4.2s-1.4-1.2-2.6-1.3c-0.7,0-1.4,0.1-1.9,0.5c-0.6,0.3-1,0.8-1.2,1.4c-0.3,0.6-0.4,1.8-0.5,3.4l-0.1,1.7
		L33.2,272.8z"/>
</g>
<g class="st4">
	<path class="st3" d="M21.6,251l1-6.2l21.3,3.5c1.8,0.3,3.2,0.3,4,0.2c0.8-0.2,1.5-0.6,2.1-1.3c0.6-0.7,0.9-1.5,1.1-2.5
		c0.2-1.1,0.1-2.1-0.3-2.9c-0.4-0.9-0.9-1.5-1.7-1.9c-0.7-0.4-2.2-0.8-4.4-1.2l-20.6-3.3l1-6.2l19.7,3.2c3.3,0.5,5.6,1.1,6.8,1.7
		c1.2,0.6,2.4,1.5,3.4,2.7c1,1.2,1.7,2.6,2.1,4c0.4,1.4,0.4,3.1,0.1,4.8c-0.4,2.3-1.3,4.3-2.7,5.9c-1.4,1.6-3,2.6-4.7,3.1
		s-4.6,0.4-8.6-0.2L21.6,251z"/>
</g>
<g class="st4">
	<path class="st3" d="M27.2,219.8l1.7-5.8l25.1-7.3l-21-6.2l1.8-6l32,9.5l-1.7,5.8L40,217l21,6.2l-1.8,6L27.2,219.8z"/>
</g>
<g class="st4">
	<path class="st3" d="M42.2,176.1l2.6-5.8l35.6,2.1l-2.7,6l-7.3-0.5l-5.5,12.3l5.2,5.3l-2.7,6L42.2,176.1z M51.6,176.8l8.6,8.7
		l3.6-8.1L51.6,176.8z"/>
</g>
<g class="st4">
	<path class="st3" d="M59.7,143.2l3.3-5.2l28,17.7l-3.3,5.2L59.7,143.2z"/>
</g>
<g class="st4">
	<path class="st3" d="M69.4,128l3.8-4.8l22.9,8.5l-13.3-20.4l3.8-4.8l29.5,16.4l-3.8,4.7l-18.6-10.3l12,18.5l-3.5,4.3l-20.8-7.7
		l14.2,15.9l-3.8,4.8L69.4,128z"/>
</g>
<g class="st4">
	<path class="st3" d="M97.9,93.9l4.6-4.1l21.3,12.3L114,79.6l4.6-4.1L145,96.8l-4.5,4.1l-16.8-13.4l8.9,20.5l-4.1,3.7l-19.3-11.2
		l11.4,18.2l-4.6,4.1L97.9,93.9z"/>
</g>
<g class="st4">
	<path class="st3" d="M128.9,68.2l14.9-10l3.5,5.2l-9.8,6.5l3.4,5l9.8-6.5l3.4,5.1l-9.8,6.5l4.9,7.3l9.8-6.5l3.5,5.2l-14.9,10
		L128.9,68.2z"/>
</g>
<g class="st4">
	<path class="st3" d="M150.3,54.2l6.6-3.4c4.3-2.2,7.7-3.3,10.3-3.3c2.6,0,5.2,0.8,7.8,2.5c2.6,1.7,4.7,4.2,6.4,7.4
		c1.2,2.3,1.9,4.6,2.1,6.9c0.2,2.3,0,4.4-0.6,6.4c-0.7,1.9-1.6,3.6-2.9,4.8c-1.3,1.3-3.8,2.9-7.6,4.9l-6.7,3.5L150.3,54.2z
		 M158.6,56.7l9.7,18.7l2.6-1.3c2.5-1.3,4.2-2.6,5.1-3.8c0.8-1.2,1.3-2.7,1.3-4.4c0-1.8-0.5-3.7-1.6-5.7c-1.6-3.1-3.8-5.1-6.4-6
		c-2.4-0.7-5.3-0.2-8.8,1.6L158.6,56.7z"/>
</g>
<g class="st4">
	<path class="st3" d="M179.6,39.6l5.7-2.3l12.7,31l-5.7,2.3L179.6,39.6z"/>
</g>
<g class="st4">
	<path class="st3" d="M202.6,31.1l6.1-1.9l21.7,28.3l-6.2,1.9l-4.4-5.8l-12.8,3.9l-0.6,7.4l-6.2,1.9L202.6,31.1z M208.2,38.7
		L207.3,51l8.4-2.6L208.2,38.7z"/>
</g>
<g class="st4">
	<path class="st3" d="M223.8,25.4l17.9-3.3l1.2,6.1l-5.9,1.1l5.1,26.5l-6.2,1.2l-5.1-26.5l-5.7,1.1L223.8,25.4z"/>
</g>
<g class="st4">
	<path class="st3" d="M247.1,21.2l17.9-1.8l0.6,6.2l-11.7,1.2l0.6,6l11.7-1.2l0.6,6.1l-11.7,1.2l0.9,8.7l11.7-1.2l0.6,6.2l-17.9,1.8
		L247.1,21.2z"/>
</g>
<g class="st4">
	<path class="st3" d="M287,18.9l6.7,0.4c3.6,0.2,6.2,0.7,7.7,1.5c1.5,0.8,2.7,1.9,3.5,3.5s1.2,3.4,1.1,5.5c-0.1,2.2-0.8,4-1.9,5.4
		c-1.1,1.4-2.8,2.4-4.9,3.1l6.9,15.3l-6.9-0.4l-6.6-14.6l-0.6,0l-0.8,14.1l-6.3-0.4L287,18.9z M292.6,32.3l2,0.1
		c2,0.1,3.4-0.1,4.2-0.5c0.8-0.5,1.2-1.3,1.3-2.6c0-0.7-0.1-1.4-0.4-1.9c-0.3-0.6-0.8-1-1.4-1.3c-0.6-0.3-1.8-0.5-3.4-0.6l-1.7-0.1
		L292.6,32.3z"/>
</g>
<g class="st4">
	<path class="st3" d="M315.7,21.2l17.8,2.9l-1,6.1l-11.6-1.9l-1,6l11.6,1.9l-1,6l-11.6-1.9l-1.4,8.7l11.6,1.9l-1,6.2l-17.8-2.9
		L315.7,21.2z"/>
</g>
<g class="st4">
	<path class="st3" d="M351.9,28.7l6.1,1.8l2.8,35.6l-6.3-1.8l-0.6-7.3l-12.9-3.8l-4.5,5.8l-6.3-1.8L351.9,28.7z M352.5,38.1
		l-7.5,9.8l8.5,2.5L352.5,38.1z"/>
</g>
<g class="st4">
	<path class="st3" d="M403.3,55l-5.8,2c-1.4-4.1-3.8-7-7.2-8.5c-2.9-1.3-5.7-1.4-8.6-0.3c-2.9,1.1-5,3.1-6.3,6c-0.9,2-1.3,4-1.2,6
		c0.1,2,0.8,3.8,2,5.4c1.2,1.6,2.7,2.9,4.7,3.8c1.7,0.8,3.3,1.1,5,1.1c1.7,0,3.7-0.5,6.1-1.4l2,5.9c-3.2,1.2-6,1.7-8.4,1.7
		c-2.4-0.1-4.8-0.7-7.3-1.8c-4.7-2.1-7.8-5.4-9.4-9.7c-1.6-4.3-1.3-8.9,0.8-13.5c1.4-3,3.3-5.4,5.8-7.1c2.4-1.7,5.3-2.7,8.4-3
		c3.2-0.3,6.2,0.2,9.1,1.6c2.5,1.1,4.6,2.7,6.4,4.8C401.3,49.9,402.6,52.3,403.3,55z"/>
</g>
<g class="st4">
	<path class="st3" d="M409.9,52.5l15.6,9.4l-3.2,5.4l-5.1-3.1l-14,23.2l-5.5-3.3l14-23.2l-5-3L409.9,52.5z"/>
</g>
<g class="st4">
	<path class="st3" d="M430,65l5.1,3.6L416.1,96l-5.1-3.6L430,65z"/>
</g>
<g class="st4">
	<path class="st3" d="M455.5,83.8c3.5,3.1,5.4,7,5.6,11.8c0.3,4.8-1.2,9-4.5,12.7c-3.2,3.7-7.2,5.7-11.9,6c-4.7,0.4-8.8-1-12.4-4.1
		c-3.7-3.3-5.6-7.3-5.8-12c-0.2-4.7,1.3-8.9,4.5-12.5c2.1-2.4,4.6-4.1,7.5-5.1s5.9-1.2,8.9-0.6S453.2,81.8,455.5,83.8z M451.4,88.5
		c-2.3-2-4.9-2.9-7.9-2.6c-3,0.2-5.6,1.6-7.7,4.1c-2.4,2.8-3.4,5.8-2.8,9.1c0.4,2.6,1.6,4.8,3.6,6.5c2.2,2,4.8,2.8,7.8,2.6
		c3-0.3,5.6-1.6,7.7-4c2.1-2.4,3.1-5.1,3-8.1C454.8,93,453.6,90.4,451.4,88.5z"/>
</g>
<g class="st4">
	<path class="st3" d="M474.5,102.6l3.9,4.6l-7.6,25l16.7-14.2l4.1,4.8l-25.4,21.6l-3.9-4.6l7.5-24.9L453.2,129l-4.1-4.8L474.5,102.6
		z"/>
</g>
<g class="st4">
	<path class="st3" d="M505.9,143.4l3.7,6.5c2.4,4.2,3.6,7.6,3.7,10.2c0.1,2.6-0.7,5.3-2.3,7.9c-1.6,2.6-4,4.9-7.1,6.6
		c-2.2,1.3-4.5,2.1-6.8,2.4c-2.3,0.3-4.4,0.2-6.4-0.4c-2-0.6-3.6-1.5-4.9-2.8c-1.3-1.2-3-3.7-5.2-7.4l-3.7-6.6L505.9,143.4z
		 M503.7,151.9l-18.3,10.4l1.4,2.5c1.4,2.5,2.7,4.1,3.9,4.9c1.2,0.8,2.7,1.2,4.5,1.1c1.8-0.1,3.7-0.7,5.7-1.8c3.1-1.7,5-4,5.7-6.6
		c0.7-2.4,0-5.3-1.9-8.7L503.7,151.9z"/>
</g>
<g class="st4">
	<path class="st3" d="M521.9,173.4l2.6,5.7l-30.3,13.7l-2.6-5.7L521.9,173.4z"/>
</g>
<g class="st4">
	<path class="st3" d="M527.5,185.2l2.1,6.1l-19.7,15.6l25.1,0.2l2.1,6.1l-35.4-0.3l-2-5.7L527.5,185.2z"/>
</g>
<g class="st4">
	<path class="st3" d="M538.6,219.9l1.5,6.1l-32.4,8l-1.5-6.1L538.6,219.9z"/>
</g>
<g class="st4">
	<path class="st3" d="M540.5,252.6l-4.9-3.9c2-2,2.9-3.8,2.6-5.5c-0.1-0.8-0.5-1.4-1-1.9c-0.5-0.4-1.1-0.6-1.6-0.5s-1,0.4-1.5,0.8
		c-0.6,0.6-1.7,2.4-3.5,5.3c-1.6,2.7-2.6,4.3-3.1,4.9c-1.1,1.5-2.1,2.6-3.2,3.3c-1.1,0.7-2.3,1.2-3.7,1.4c-2.7,0.5-5.1-0.1-7.1-1.7
		c-2.1-1.6-3.4-3.8-3.8-6.8c-0.4-2.3-0.2-4.4,0.7-6.3c0.9-1.9,2.4-3.7,4.7-5.3l4,4.7c-2.6,2.1-3.8,4.1-3.5,6.1
		c0.2,1.1,0.6,1.9,1.4,2.5c0.7,0.6,1.5,0.9,2.4,0.7c0.7-0.1,1.4-0.5,2.1-1.2c0.7-0.7,1.6-2.1,2.8-4.2c2.3-4,4.2-6.7,5.6-8
		c1.4-1.3,2.9-2.1,4.5-2.3c2.3-0.4,4.4,0.2,6.3,1.6c1.9,1.4,3.1,3.4,3.5,6c0.3,1.6,0.2,3.2-0.4,4.8
		C543.3,248.7,542.2,250.5,540.5,252.6z"/>
</g>
<g class="st4">
	<path class="st3" d="M545.7,259.8l0.6,6.2l-33.2,3l-0.6-6.2L545.7,259.8z"/>
</g>
<g class="st4">
	<path class="st3" d="M547.8,291.4c-0.1,4.7-1.9,8.7-5.4,11.9c-3.5,3.3-7.7,4.9-12.6,4.8c-4.9-0.1-9-1.8-12.3-5.2
		c-3.3-3.4-4.9-7.4-4.8-12.2c0.1-5,1.9-9,5.4-12.2c3.5-3.2,7.7-4.8,12.4-4.7c3.2,0.1,6.1,0.9,8.8,2.5c2.6,1.6,4.7,3.7,6.2,6.4
		C547.2,285.4,547.9,288.3,547.8,291.4z M541.6,291.2c0.1-3.1-1-5.6-3.1-7.8c-2.1-2.1-4.8-3.2-8.1-3.3c-3.7-0.1-6.6,1.2-8.8,3.8
		c-1.7,2-2.6,4.3-2.7,7c-0.1,3,1,5.5,3.1,7.7c2.1,2.1,4.8,3.2,8,3.3c3.2,0.1,5.9-0.9,8.1-3S541.6,294.2,541.6,291.2z"/>
</g>
<g class="st4">
	<path class="st3" d="M545.6,318l-1,5.9l-24,10.3l21.6,3.6l-1,6.2l-32.9-5.5l1-6l23.9-10.3l-21.6-3.6l1-6.2L545.6,318z"/>
</g>
<path d="M427.1,297.6c-2.4-9-4.4-18.9-7.7-28.3c-10.8-30.1-30.6-53.1-57.4-70.3c-15.8-10.1-33.3-17.1-51.6-20.7
	c-22.3-4.5-44.5-5-66.4,2.5c-25,8.5-44.6,23.8-56.6,47.7c-14,27.7-9.7,63.3,10.8,86.8c25.2,29,57.5,39.9,95.1,35.3
	c25.1-3.1,46.5-13.9,63.3-32.9c6.2-7,11.1-15.3,16.6-23c1.5-2.1,3.1-4.2,4.5-6.2c6.9,15.3,3.5,29.3-3.7,43.1
	c-11.8,22.3-30,38.1-51.1,51.1c-25.1,15.5-51.7,18.3-80,11.2c-25.5-6.2-48.8-19.4-67.3-38c-10.2-10.2-16.3-22.9-23.1-35.2
	c-12-21.6-14.8-44.8-10.7-68.9c7-41.1,30.3-70.6,66.1-90.7c25-14.1,52.1-19.8,80.6-17.6c44.3,3.4,80.4,22.9,107.9,57.7
	c13.2,16.6,22.4,36,27,56.7c2.7,11.5,4.1,23.2,4,35c0,1.5-0.2,3.1-0.3,4.6C427.1,297.8,426.9,298.2,427.1,297.6z"/>
<path d="M325.7,261.2c7.5,17.5,0,42.1-16.2,54.5c-18.1,13.9-43.1,14.1-60.5,0.6c-11.6-9-18.4-20.9-19.7-35.6
	c-1.3-14.5,3.6-27.1,12.6-38.5c-19.4,6.6-34.6,18.5-46.4,36c-2-7.2-2.4-14.8-1.1-22.2c4.6-28.1,21.4-46.6,46.7-58
	c17.6-7.9,36.2-9,55.1-6.6c23.6,3,45.3,11.1,64.5,25.3c22.3,16.4,38,37.5,45.9,64.2c3.2,10.8,4.3,21.8,4.5,33c0,1-0.1,2-0.2,2.9
	c-0.1,0.6-0.3,1.2-0.5,2.5c-3.5-5-6.4-9.8-9.8-14.1c-5.5-7-11.3-13.7-17.1-20.4c-4.9-5.5-9.6-11.2-15.2-15.8
	c-12.1-10-24.8-19.3-39.1-25.9c-4.3-2-9.4-2.2-14.2-2.7c-3.5-0.6-7-0.6-10.5-0.1c-8.1,1.4-14,8.5-13.9,16.7
	c-0.1,7.9,5.6,15.4,13,17.2c8.1,2.2,16.7-1.7,20.4-9.3C324.5,263.8,325,262.7,325.7,261.2z"/>
</svg>
