<?xml version="1.0" encoding="UTF-8"?><svg id="Capa_1" xmlns="http://www.w3.org/2000/svg" viewBox="0 0 566.93 566.93"><defs><style>.cls-1,.cls-2,.cls-3{fill:#fff;}.cls-4{fill:#000100;}.cls-2{font-size:24.73px;}.cls-2,.cls-3{font-family:Centauri, Centauri;stroke:#fff;stroke-miterlimit:10;}.cls-5{fill:#f1842d;}.cls-3{font-size:23.47px;}.cls-6{fill:#1d1d1b;}</style></defs><path class="cls-4" d="m86.02,86.04c109.04-109.05,285.82-109.05,394.88,0,109.04,109.03,109.04,285.82,0,394.87-109.06,109.03-285.84,109.03-394.88,0-109.02-109.05-109.02-285.84,0-394.87Z"/><path class="cls-1" d="m89.59,89.59c107.08-107.07,280.69-107.07,387.73,0,107.1,107.07,107.1,280.67,0,387.74-107.04,107.08-280.65,107.08-387.73,0-107.08-107.07-107.08-280.67,0-387.74Z"/><path class="cls-5" d="m94.52,94.65c104.37-104.28,273.49-104.28,377.68,0,104.38,104.28,104.38,273.36,0,377.59-104.18,104.33-273.31,104.33-377.68,0-104.1-104.23-104.1-273.31,0-377.59Z"/><path class="cls-4" d="m433.43,433.41c-82.82,82.82-217.05,82.82-299.94,0-82.81-82.74-82.81-217.09,0-299.86,82.9-82.86,217.13-82.86,299.94,0,82.82,82.78,82.82,217.13,0,299.86Z"/><path class="cls-1" d="m142.81,424.11c-77.66-77.71-77.66-203.6,0-281.27,77.74-77.67,203.64-77.67,281.31,0,77.67,77.67,77.67,203.56,0,281.27-77.67,77.63-203.56,77.63-281.31,0Z"/><g><path class="cls-6" d="m380.19,237.28c-.78-1.63-.33-.7-1.12-2.32-.09-.18-.27-.31-.55-.61-4.83-1.87-8.12,1.28-11.31,4.11-9.68,8.57-17.08,19.07-24.42,29.58-5.85,8.37-11.34,16.99-17.55,26.34.35-16.61,4.75-31.22,11.31-45.28,10.4-22.26,24.7-41.46,44.73-56.05,5.53-4.02,11.49-7.24,18.09-9.21,11.89-3.55,20.05-1.04,28.56,9.52-15.98,14.7-31.65,29.12-47.72,43.9h0Z"/><path class="cls-6" d="m346.02,164.04c-17.35,11.7-34.21,23.16-53.23,30.95-6.25,2.56-12.35,2.19-18.58-.52-18.31-7.97-34.4-19.49-50.85-30.91,40.84-13.12,81.33-11.55,122.66.49Z"/><path class="cls-6" d="m241.17,290.06c-12.37-17.3-23.5-35.01-38.47-49.81-3.58-3.54-7.26-7.6-12.59-6.44-3.15,1.38-2.66,4.25-4.5,6.43-15.58-16.55-31.08-33.02-46.59-49.51,9.6-7.27,24.71-5.9,35.28-1.49,15.99,6.68,28.08,18.13,38.34,31.59,13.68,17.94,23.63,37.71,27.5,60.19.51,2.98.7,6.02,1.04,9.03Z"/><path class="cls-6" d="m154,219.02c10.68,10.02,21.37,20.04,32.19,30.19,5.43,51.18,18.02,100.26,42.99,146.75-13.88-13.6-54.34-93.15-69.72-136.28,7.92-4.9,9.82-10.38,6.41-19.39-2.88-7.61-7.8-14.03-12.55-20.52.23-.25.46-.5.68-.75Z"/><path class="cls-6" d="m282.23,433.42c19.48,9.91,31.95,3.83,49.75-25.1-2.14,12.22-3.25,23.04-9.26,32.36-6.1,9.45-16.57,10.68-26.35,13.13-13.71,3.44-26.89.66-40.06-2.99-14.8-4.1-18.52-16.27-21.4-29.05-.89-3.96-1.42-8-2.4-13.64,6.13,10.16,11.72,18.81,20.38,24.8,9.45,6.53,19.13,6.86,29.33.49Z"/><path class="cls-6" d="m196.39,242.7c8.27,7.55,14.27,15.62,20.65,23.32,2.45,36.33,7.53,72.2,15.42,107.69-22.71-40.31-29.09-85.12-36.07-131.01Z"/><path class="cls-6" d="m415.47,219.02c-10.68,10.02-21.37,20.04-32.19,30.19-5.43,51.18-18.02,100.26-42.99,146.75,13.88-13.6,54.34-93.15,69.72-136.28-7.92-4.9-9.82-10.38-6.41-19.39,2.88-7.61,7.8-14.03,12.55-20.52-.23-.25-.46-.5-.68-.75Z"/><path class="cls-6" d="m373.08,242.7c-8.27,7.55-14.27,15.62-20.65,23.32-2.45,36.33-7.53,72.2-15.42,107.69,22.71-40.31,29.09-85.12,36.07-131.01Z"/><path class="cls-6" d="m159.29,171.51c7.37-11.41,18.31-14.55,29.83-16.67,12.46-2.29,17.76,8.79,26.43,13.63v38.03c-14.49-18.88-27.55-38.79-56.26-34.99Z"/><path class="cls-6" d="m351.98,168.28c8.48-4.51,13.82-15.87,26.55-13.41,11.5,2.22,22.31,5.53,29.56,16.6-28.55-3.97-41.59,15.95-56.11,34.73v-37.92Z"/><path class="cls-6" d="m279.1,296.85v-92.35c2.9-.73,5.71-.61,8.9-.11v92.41c-2.89.67-5.72.5-8.9.05Z"/><path class="cls-6" d="m297.01,294.36v-92.03c2.95-1.08,5.95-2.18,9.37-3.44v92.75c-2.66,1.43-5.81,2.04-9.37,2.72Z"/><path class="cls-6" d="m261.07,199.04c3.15,1.09,6.03,2.09,9.13,3.16v92.3c-3.01-.81-5.91-1.58-9.13-2.44v-93.02Z"/><path class="cls-6" d="m251.69,284.23c-4.98-13.55-10.65-25.28-9.74-39.42,1.17-18.33.29-36.8.29-56.25,3.42,2.01,6.28,3.69,9.45,5.55v90.12Z"/><path class="cls-6" d="m315.49,283.12v-88.88c2.89-1.74,5.82-3.51,9.64-5.82v15.31c0,7.65,0,15.29,0,22.94,0,9.71.1,19.43-.04,29.14-.14,10.01-6.83,17.96-9.6,27.31Z"/><path class="cls-6" d="m324.17,358.07c.41,22.78-6.44,44.03-13.04,65.52-5.03,2.87-10.77,3.56-17.43,5.32,10.92-23.81,23.62-46.08,30.47-70.84Z"/><path class="cls-6" d="m240.27,358.39c7.24,24.51,19.44,46.81,30.53,70.11-5.99-.67-11.21-2.22-17.05-4.35-6.89-21.17-13.51-42.72-13.48-65.76Z"/><path class="cls-6" d="m224.12,175.38c3.47,2.56,6.25,4.61,9.34,6.89v56.45c-9.1-12.74-9.71-16.72-9.34-63.34Z"/><path class="cls-6" d="m333.44,239.5v-56.74c2.88-2.23,5.8-4.49,9.58-7.41,0,10.48-.65,20.29.16,29.98,1.04,12.51-2.09,23.5-9.74,34.16Z"/></g><text class="cls-2" transform="translate(67.22 203.88) rotate(-65.29) scale(1 1.2)"><tspan x="0" y="0">V</tspan></text><text class="cls-2" transform="translate(82.94 171.32) rotate(-60.01) scale(1 1.2)"><tspan x="0" y="0">I</tspan></text><text class="cls-2" transform="translate(85.52 165.74) rotate(-55.23) scale(1 1.2)"><tspan x="0" y="0">P</tspan></text><text class="cls-2" transform="translate(103.62 139.6) rotate(-47.25) scale(1 1.2)"><tspan x="0" y="0">E</tspan></text><text class="cls-2" transform="translate(125.17 116.23) rotate(-39.35) scale(1 1.2)"><tspan x="0" y="0">R</tspan></text><text class="cls-2" transform="translate(149.6 95.94) rotate(-31.04) scale(1 1.2)"><tspan x="0" y="0">A</tspan></text><text class="cls-2" transform="translate(180.91 77.88) rotate(-25.82) scale(1 1.2)"><tspan x="0" y="0"> </tspan></text><text class="cls-2" transform="translate(185.85 74.86) rotate(-21.09) scale(1 1.2)"><tspan x="0" y="0">P</tspan></text><text class="cls-2" transform="translate(215.47 63.39) rotate(-13.12) scale(1 1.2)"><tspan x="0" y="0">U</tspan></text><text class="cls-2" transform="translate(246.44 56.14) rotate(-5.17) scale(1 1.2)"><tspan x="0" y="0">R</tspan></text><text class="cls-2" transform="translate(278.1 53.23) rotate(2.73) scale(1 1.2)"><tspan x="0" y="0">S</tspan></text><text class="cls-2" transform="translate(309.84 54.7) rotate(10.6) scale(1 1.2)"><tspan x="0" y="0">U</tspan></text><text class="cls-2" transform="translate(341.22 61.09) rotate(15.32) scale(1 1.2)"><tspan x="0" y="0">I</tspan></text><text class="cls-2" transform="translate(347.24 62.17) rotate(20.05) scale(1 1.2)"><tspan x="0" y="0">T</tspan></text><text class="cls-2" transform="translate(377.13 73.64) rotate(24.76) scale(1 1.2)"><tspan x="0" y="0"> </tspan></text><text class="cls-2" transform="translate(382.59 75.54) rotate(29.48) scale(1 1.2)"><tspan x="0" y="0">F</tspan></text><text class="cls-2" transform="translate(410.28 91.15) rotate(37.45) scale(1 1.2)"><tspan x="0" y="0">O</tspan></text><text class="cls-2" transform="translate(435.53 110.43) rotate(45.41) scale(1 1.2)"><tspan x="0" y="0">R</tspan></text><text class="cls-2" transform="translate(457.86 133.11) rotate(53.11) scale(1 1.2)"><tspan x="0" y="0">C</tspan></text><text class="cls-2" transform="translate(476.93 158.52) rotate(61.11) scale(1 1.2)"><tspan x="0" y="0">E</tspan></text><text class="cls-2" transform="translate(491.94 186.79) rotate(65.83) scale(1 1.2)"><tspan x="0" y="0"> </tspan></text><text class="cls-3" transform="translate(31.07 262.55) rotate(91.22) scale(1 1.2)"><tspan x="0" y="0">B</tspan></text><text class="cls-3" transform="translate(30.36 295) rotate(83.47) scale(1 1.2)"><tspan x="0" y="0">A</tspan></text><text class="cls-3" transform="translate(34.74 331.14) rotate(75.71) scale(1 1.2)"><tspan x="0" y="0">K</tspan></text><text class="cls-3" transform="translate(42.83 362.47) rotate(68.39) scale(1 1.2)"><tspan x="0" y="0">U</tspan></text><text class="cls-3" transform="translate(54.84 392.52) rotate(61.03) scale(1 1.2)"><tspan x="0" y="0">N</tspan></text><text class="cls-3" transform="translate(70.64 420) rotate(56.6) scale(1 1.2)"><tspan x="0" y="0">I</tspan></text><text class="cls-3" transform="translate(74.18 426.18) rotate(52.17) scale(1 1.2)"><tspan x="0" y="0">N</tspan></text><text class="cls-3" transform="translate(94.02 450.9) rotate(47.8) scale(1 1.2)"><tspan x="0" y="0"> </tspan></text><text class="cls-3" transform="translate(98.25 455.89) rotate(44.43) scale(1 1.2)"><tspan x="0" y="0">-</tspan></text><text class="cls-3" transform="translate(115.05 471.99) rotate(41.09) scale(1 1.2)"><tspan x="0" y="0"> </tspan></text><text class="cls-3" transform="translate(119.79 476.7) rotate(36.83) scale(1 1.2)"><tspan x="0" y="0">C</tspan></text><text class="cls-3" transform="translate(145.73 496.01) rotate(29.53) scale(1 1.2)"><tspan x="0" y="0">O</tspan></text><text class="cls-3" transform="translate(173.95 511.87) rotate(22.15) scale(1 1.2)"><tspan x="0" y="0">R</tspan></text><text class="cls-3" transform="translate(203.96 523.98) rotate(14.77) scale(1 1.2)"><tspan x="0" y="0">R</tspan></text><text class="cls-3" transform="translate(235.28 532.13) rotate(7.43) scale(1 1.2)"><tspan x="0" y="0">E</tspan></text><text class="cls-3" transform="translate(267.36 536.21) rotate(.13) scale(1 1.2)"><tspan x="0" y="0">G</tspan></text><text class="cls-3" transform="translate(299.04 535.78) rotate(-4.24) scale(1 1.2)"><tspan x="0" y="0">I</tspan></text><text class="cls-3" transform="translate(306.18 535.68) rotate(-8.61) scale(1 1.2)"><tspan x="0" y="0">D</tspan></text><text class="cls-3" transform="translate(338.13 530.75) rotate(-15.9) scale(1 1.2)"><tspan x="0" y="0">O</tspan></text><text class="cls-3" transform="translate(369.22 521.79) rotate(-23.23) scale(1 1.2)"><tspan x="0" y="0">R</tspan></text><text class="cls-3" transform="translate(398.14 508.82) rotate(-27.61) scale(1 1.2)"><tspan x="0" y="0"> </tspan></text><text class="cls-3" transform="translate(404.05 505.99) rotate(-31.01) scale(1 1.2)"><tspan x="0" y="0">-</tspan></text><text class="cls-3" transform="translate(423.87 493.76) rotate(-34.42) scale(1 1.2)"><tspan x="0" y="0"> </tspan></text><text class="cls-3" transform="translate(429.7 490.3) rotate(-38.8) scale(1 1.2)"><tspan x="0" y="0">T</tspan></text><text class="cls-3" transform="translate(454.85 469.95) rotate(-46.13) scale(1 1.2)"><tspan x="0" y="0">U</tspan></text><text class="cls-3" transform="translate(477.14 446.62) rotate(-53.32) scale(1 1.2)"><tspan x="0" y="0">N</tspan></text><text class="cls-3" transform="translate(496.37 420.64) rotate(-60.62) scale(1 1.2)"><tspan x="0" y="0">G</tspan></text><text class="cls-3" transform="translate(512.16 392.39) rotate(-68) scale(1 1.2)"><tspan x="0" y="0">U</tspan></text><text class="cls-3" transform="translate(524.18 362.35) rotate(-75.37) scale(1 1.2)"><tspan x="0" y="0">S</tspan></text><text class="cls-3" transform="translate(532.26 330.99) rotate(-82.72) scale(1 1.2)"><tspan x="0" y="0">K</tspan></text><text class="cls-3" transform="translate(536.39 298.8) rotate(-90.49) scale(1 1.2)"><tspan x="0" y="0">A</tspan></text><polygon class="cls-6" points="315.49 283.12 306.38 291.63 297.01 294.36 287.99 296.81 279.1 296.85 270.2 294.5 261.07 292.06 251.69 284.23 233.46 238.72 224.12 175.38 233.46 182.27 242.24 188.56 251.69 194.1 261.07 199.04 270.2 202.2 279.1 204.51 287.99 204.4 297.01 202.32 306.38 198.88 315.49 194.24 325.14 188.42 333.44 182.76 343.02 175.36 333.44 239.5 315.49 283.12"/></svg>