<?xml version="1.0" encoding="utf-8"?>
<!-- Generator: Adobe Illustrator 24.3.0, SVG Export Plug-In . SVG Version: 6.00 Build 0)  -->
<svg version="1.1" id="Capa_1" xmlns="http://www.w3.org/2000/svg" xmlns:xlink="http://www.w3.org/1999/xlink" x="0px" y="0px"
	 viewBox="0 0 566.9 566.9" style="enable-background:new 0 0 566.9 566.9;" xml:space="preserve">
<style type="text/css">
	.st0{fill:#FFFFFF;}
</style>
<g>
	<g>
		<g>
			<path class="st0" d="M283.5,4.3C129.3,4.3,4.3,129.3,4.3,283.5c0,78,32,148.5,83.6,199.2c4.2,4.2,8.6,8.2,13.1,12.1
				c13.6,11.8,28.3,22.2,44,31.2c1.1,0.6,2.2,1.3,3.4,1.9c40.1,22.2,86.2,34.9,135.2,34.9c49.1,0,95.2-12.7,135.3-35
				c1.9-1.1,3.8-2.2,5.7-3.3c15.6-9.1,30.2-19.7,43.6-31.6c3.8-3.4,7.6-6.9,11.2-10.5c51.4-50.6,83.3-121,83.3-198.9
				C562.7,129.3,437.7,4.3,283.5,4.3z"/>
		</g>
		<g>
			<path d="M283.5,54.3c31,0,61,6.1,89.2,18c27.3,11.5,51.8,28.1,72.9,49.1c21.1,21.1,37.6,45.6,49.1,72.9
				c11.9,28.2,18,58.2,18,89.2c0,31.3-6.2,61.5-18.3,90c-11.8,27.5-28.6,52.2-50,73.3c-3.1,3-6.2,5.9-9.2,8.6
				c-11.1,9.8-23.1,18.5-35.9,26c-1.4,0.8-2.9,1.7-4.7,2.7c-33.8,18.8-72.2,28.7-111,28.7c-38.8,0-77.2-9.9-111-28.6
				c-0.9-0.5-1.8-1-2.8-1.5c-12.8-7.3-25-16-36.2-25.6c-3.5-3-7.1-6.4-10.7-9.9c-21.5-21.1-38.4-45.8-50.2-73.4
				c-12.2-28.5-18.4-58.8-18.4-90.2c0-31,6.1-61,18-89.2c11.5-27.3,28.1-51.8,49.1-72.9s45.6-37.6,72.9-49.1
				C222.5,60.3,252.5,54.3,283.5,54.3 M283.5,4.3C129.3,4.3,4.3,129.3,4.3,283.5c0,78,32,148.5,83.6,199.2
				c4.2,4.2,8.6,8.2,13.1,12.1c13.6,11.8,28.3,22.2,44,31.2c1.1,0.6,2.2,1.3,3.4,1.9c40.1,22.2,86.2,34.9,135.2,34.9
				c49.1,0,95.2-12.7,135.3-35c1.9-1.1,3.8-2.2,5.7-3.3c15.6-9.1,30.2-19.7,43.6-31.6c3.8-3.4,7.6-6.9,11.2-10.5
				c51.4-50.6,83.3-121,83.3-198.9C562.7,129.3,437.7,4.3,283.5,4.3L283.5,4.3z"/>
		</g>
	</g>
	<g>
		<path class="st0" d="M80.4,410.3c4.1,6.7,3.7,11.6-1.4,14.7l-0.8,0.5l-4.1-6.7l0.8-0.5c0.6-0.3,0.5-1.1-0.2-2.2l-4.1-6.7
			c-0.7-1.1-1.3-1.5-1.9-1.2l-8.4,5.2c-0.6,0.3-0.5,1.1,0.2,2.2l4.1,6.7c0.7,1.1,1.3,1.5,1.9,1.2l0.8-0.5l4.1,6.7l-0.8,0.5
			c-5.1,3.1-9.7,1.3-13.8-5.4l-2.1-3.4c-4.1-6.7-3.7-11.6,1.4-14.7l8.4-5.2c5.1-3.1,9.7-1.3,13.8,5.4L80.4,410.3z"/>
		<path class="st0" d="M95.4,431.7l2.5,3.1c4.9,6.2,5.1,11.1,0.4,14.8l-7.7,6.2c-4.6,3.7-9.4,2.5-14.3-3.7l-2.5-3.1
			c-4.9-6.2-5.1-11.1-0.4-14.8l7.7-6.2C85.7,424.3,90.5,425.6,95.4,431.7z M88,435.1c-0.8-1-1.5-1.3-2-0.9l-7.7,6.2
			c-0.5,0.4-0.4,1.1,0.5,2.2l4.9,6.2c0.8,1,1.5,1.3,2,0.9l7.7-6.2c0.5-0.4,0.4-1.1-0.5-2.2L88,435.1z"/>
		<path class="st0" d="M103.9,460.5l-10.5,10.9l-5.7-5.5L107,446l5.9,5.7l-1.1,9.1l9.1-1.4l5.9,5.7l-19.3,19.9l-5.7-5.5l10.5-10.9
			l-9.7,1.5L103.9,460.5z"/>
		<path class="st0" d="M130.8,490.6l-6.3-4.7l-5.9,7.9l-6.3-4.7l16.6-22.2l12.6,9.4c6.3,4.7,7.7,9.5,4.1,14.2
			C142.1,495.3,137.1,495.4,130.8,490.6z M129.3,479.6l7.9,5.9c1.1,0.8,1.8,0.9,2.2,0.4s0.1-1.2-1-2l-7.9-5.9L129.3,479.6z"/>
		<path class="st0" d="M146.1,508.1l-3.2,2.7l-7.2-4.2l22.8-18.8l9.1,5.3l-5.1,29.1l-7.2-4.2l0.7-4.2L146.1,508.1z M158.8,497.7
			l-6.1,5.1l4.8,2.8L158.8,497.7z"/>
		<path class="st0" d="M187.6,522.2l-7.2-3.1l3.1-7.3l14.5,6.2l-7,16.4l-14.5-6.2c-7.2-3.1-9.7-7.4-7.4-12.8l3.9-9.1
			c2.3-5.5,7.1-6.6,14.4-3.6l14.5,6.2l-3.1,7.3l-16.3-7c-1.2-0.5-1.9-0.5-2.2,0.1l-3.9,9.1c-0.3,0.6,0.2,1.2,1.4,1.7l9.1,3.9
			L187.6,522.2z"/>
		<path class="st0" d="M208.4,524.1l-4.1,14.5l-7.6-2.2l7.6-26.7l7.9,2.3l6.9,17.7l4.1-14.5l7.6,2.2l-7.6,26.7l-7.9-2.3L208.4,524.1
			z"/>
		<path class="st0" d="M236.4,546.4l-7.7-1.5l5.3-27.2l7.7,1.5L236.4,546.4z"/>
		<path class="st0" d="M250.2,544.6l-1.9,3.8l-8.3-0.9l13.1-26.5l10.5,1.1l7.3,28.7l-8.3-0.9l-1-4.1L250.2,544.6z M257.4,529.9
			l-3.5,7.1l5.5,0.6L257.4,529.9z"/>
		<path class="st0" d="M300,522.3c7.9-0.5,12,2.3,12.3,8.2l0.6,9.9c0.4,5.9-3.4,9.1-11.3,9.6L286,551l-1.7-27.7L300,522.3z
			 M292.6,530.7l0.7,11.9l9.8-0.6c1.3-0.1,1.9-0.4,1.9-1.1l-0.6-9.9c0-0.7-0.7-0.9-2-0.9L292.6,530.7z"/>
		<path class="st0" d="M326.7,547.1l-7.8,1.2l-4.1-27.4l7.8-1.2L326.7,547.1z"/>
		<path class="st0" d="M350.8,542.1l-17.4-23.9l8-2.3l12.1,16.7l1.6-20.6l8-2.3l-2.3,29.5L350.8,542.1z"/>
		<path class="st0" d="M389.5,498.5l3.1,7.3l-18.1,7.7l0.8,1.8l14.5-6.2l3.1,7.3l-14.5,6.2l0.8,1.8l18.1-7.7l3.1,7.3L375,534.8
			l-10.8-25.5L389.5,498.5z"/>
		<path class="st0" d="M405.1,504.3l7.6,13.1l-6.8,4l-14-24l7.1-4.1l17.5,7.3l-7.6-13.1l6.8-4l14,24l-7.1,4.1L405.1,504.3z"/>
		<path class="st0" d="M436.9,477.5l12,15.7l-6.3,4.8l-12-15.7l-7.8,6L418,482l21.9-16.7l4.8,6.3L436.9,477.5z"/>
		<path class="st0" d="M441.9,463.5l5.6-5.5l13.2,13.4c0.5,0.5,1.2,0.2,2.1-0.7l5.6-5.5c0.9-0.9,1.2-1.6,0.7-2.1l-13.2-13.4l5.6-5.5
			l13.2,13.4c4.2,4.2,3.4,9.1-2.2,14.6l-2.8,2.8c-5.6,5.5-10.5,6.2-14.7,2L441.9,463.5z"/>
		<path class="st0" d="M484.6,443.8l-2.4,3.1l7.8,6.1l-4.9,6.2l-21.8-17.1l9.7-12.4c4.9-6.2,9.6-7.5,14.3-3.8
			c3.4,2.7,4.3,6,2.6,10.1l13.3,0.2l-6.1,7.8L484.6,443.8z M476,442l6.1-7.8c0.8-1,1-1.8,0.4-2.2c-0.5-0.4-1.2-0.1-2,0.9l-6.1,7.8
			L476,442z"/>
		<path class="st0" d="M506.4,423.5l2.7,3.3l-4.3,7.2l-18.6-23l5.4-9l29.1,5.4l-4.3,7.2l-4.1-0.8L506.4,423.5z M496.1,410.7l5,6.2
			l2.8-4.7L496.1,410.7z"/>
	</g>
	<g>
		<path class="st0" d="M127.5,102.4l-24.8-15.3l6.5-5.1l17.3,10.6L125,88l-13.1-8.1l6.5-5.1l3,1.9l-1.1-3.4l6.5-5.1l4.7,14.7
			l4.2,2.6l-6.2-19.4l6.5-5.1l8.9,27.7l-8.2,6.4l-1.6-1l0.6,1.8L127.5,102.4z"/>
		<path class="st0" d="M156.1,69.9l4.8,8.5l-6.8,3.8l-13.5-23.8l6.8-3.8l4.8,8.5l10.1-5.7l-4.8-8.5l6.8-3.8l13.5,23.8l-6.8,3.8
			l-4.8-8.5L156.1,69.9z"/>
		<path class="st0" d="M188,64.5l-7.1,3.2l-11.3-24.9l7.1-3.2L188,64.5z"/>
		<path class="st0" d="M200.9,38.7l6.5,18.4l-7.3,2.6l-6.5-18.4l-9.2,3.2l-2.6-7.4l25.7-9.1l2.6,7.4L200.9,38.7z"/>
		<path class="st0" d="M240.4,20.5l1.7,7.6l-19,4.1l0.4,1.9l15.2-3.3l1.6,7.6l-15.2,3.3l0.4,1.9l19-4.1l1.7,7.6L219.6,53l-5.8-26.7
			L240.4,20.5z"/>
		<path class="st0" d="M273,17.6c7.8-0.4,11.8,2.4,12.1,8.2l0,1l-7.8,0.4l0-1c0-0.7-0.7-0.9-2-0.9l-7.8,0.4
			c-1.3,0.1-1.9,0.4-1.9,1.1l0.4,9.8c0,0.7,0.7,0.9,2,0.9l7.8-0.4c1.3-0.1,1.9-0.4,1.9-1.1l0-1l7.8-0.4l0,1c0.3,5.9-3.5,9-11.2,9.3
			l-3.9,0.2c-7.8,0.4-11.8-2.4-12.1-8.2l-0.4-9.8c-0.3-5.9,3.5-9,11.2-9.3L273,17.6z"/>
		<path class="st0" d="M302.8,18.1l3.9,0.3c7.8,0.6,11.4,3.8,10.9,9.7l-0.8,9.7c-0.5,5.8-4.6,8.5-12.3,7.8l-3.9-0.3
			c-7.8-0.6-11.4-3.8-10.9-9.7l0.8-9.7C290.9,20.1,295,17.5,302.8,18.1z M300.2,25.8c-1.3-0.1-2,0.2-2,0.8l-0.8,9.7
			c-0.1,0.6,0.6,1,1.9,1.1l7.8,0.6c1.3,0.1,2-0.2,2-0.8l0.8-9.7c0.1-0.6-0.6-1-1.9-1.1L300.2,25.8z"/>
		<path class="st0" d="M329.8,34.1l-3,14.6l-7.6-1.6l5.6-26.8l7.9,1.7l3.9,8.2l6.9-6l7.9,1.7l-5.6,26.8l-7.6-1.6l3-14.6l-7.3,6.3
			L329.8,34.1z"/>
		<path class="st0" d="M366.6,49.3l-7.3-2.5l-3.2,9.2l-7.4-2.5l8.9-25.8l14.7,5.1c7.3,2.5,10.1,6.6,8.2,12.1
			C378.6,50.3,374,51.8,366.6,49.3z M361.8,39.3l9.2,3.2c1.2,0.4,1.9,0.3,2.2-0.3c0.2-0.6-0.3-1.1-1.5-1.6l-9.2-3.2L361.8,39.3z"/>
		<path class="st0" d="M383.8,62.5l-3,2.9l-7.4-3.6l21-20.2l9.4,4.5l-2.8,29l-7.4-3.6l0.4-4.1L383.8,62.5z M395.5,51.2l-5.6,5.5
			l4.9,2.4L395.5,51.2z"/>
		<path class="st0" d="M416.8,67.6l-8.1,12.5l-6.5-4.2L417,52.9l6.8,4.4l1.4,18.7l8.1-12.5l6.5,4.2l-14.9,22.9l-6.8-4.4L416.8,67.6z
			"/>
		<path class="st0" d="M442.8,89.4l1-18.8l7.5,6.3l-0.5,9.1l8.9-1.9l7.5,6.3l-18.4,4.1l-8,9.4l-5.9-5L442.8,89.4z"/>
	</g>
	<g>
		<path d="M462.3,202.1l-109.9,35.8l0.6-5.7l-47.3,24.3l31.2-22.3l-38.2,3.2c0,0-1.7-20.6-1.8-28.1c9.6-9.7,12.3-28.7,12.5-33.3
			c0.2-4.6-2.2-4.4-2.3-1.3c-0.6,9.8-9.7,16.2-18.4,17.4c-20.5,2.3-29.6,29-29.6,39.9c2.9-9.8,18.9-23,17.3-16.9
			c-1.3,4.9-5.9,17.3-7.7,22.2l-39.8-3.2l31.2,22.3L213,232.2l0.6,5.7l-109.9-35.8L226,299.8l-1.3-6.2l42.7,39.3l-17,42.6l14.6-16.8
			l17.9,60.3l18.5-59.7l14.3,16.2l-17.2-42.6l42.9-39.3l-1.5,6.2L462.3,202.1z"/>
	</g>
	<g>
		<polygon points="122.3,189.5 104.6,156 228.3,189.5 122.4,176 		"/>
	</g>
	<g>
		<polygon points="444.1,189.5 462.3,156 338.7,189.5 444.6,176 		"/>
	</g>
	<g>
		<polygon points="283,459.9 183.2,304.8 283,493.8 380.6,309.2 		"/>
	</g>
</g>
</svg>
