<?xml version="1.0" encoding="utf-8"?>
<!-- Generator: Adobe Illustrator 23.0.1, SVG Export Plug-In . SVG Version: 6.00 Build 0)  -->
<svg version="1.1" id="Capa_1" xmlns="http://www.w3.org/2000/svg" xmlns:xlink="http://www.w3.org/1999/xlink" x="0px" y="0px"
	 viewBox="0 0 550.9 550.6" style="enable-background:new 0 0 550.9 550.6;" xml:space="preserve">
<style type="text/css">
	.st0{fill:#FFFFFF;}
	.st1{fill:#29ABE2;}
	.st2{enable-background:new    ;}
	.st3{fill:#0293DD;}
	.st4{fill:#FDFEFE;}
	.st5{fill:#FCFDFE;}
</style>
<path class="st0" d="M275.5,547.6C125.1,547.6,3.2,425.7,3.2,275.3c0-72.2,28.7-141.5,79.8-192.5c105.7-107,278.1-108,385-2.3
	s107.9,278.1,2.2,385.1c-0.7,0.7-1.5,1.5-2.2,2.2C417.1,519,347.7,547.8,275.5,547.6z"/>
<path class="st1" d="M275.5,6c148.7,0,269.3,120.6,269.3,269.3S424.2,544.6,275.5,544.6S6.2,424,6.2,275.3S126.7,6,275.5,6 M275.5,0
	C123.5-0.2,0.1,122.9,0,274.9c-0.1,73.2,29,143.3,80.8,195c107.5,107.6,281.8,107.6,389.4,0.1s107.6-281.8,0.1-389.4
	C418.7,29,348.6-0.1,275.5,0z"/>
<g class="st2">
	<path class="st3" d="M170.4,468.6l13.6,6.7c2.3,1.1,2.9,2.8,1.8,5.1l-5.8,11.8c-1.1,2.2-2.8,2.8-5.1,1.7l-10.2-5.1l4.2-4.2l6.8,3.4
		l4.1-8.4l-10.2-5.1l-9.9,20.2l-5.1-2.5l10.7-21.9C166.5,468,168.2,467.5,170.4,468.6z"/>
</g>
<g class="st2">
	<path class="st3" d="M180.2,504.7l8.3-22.9c0.8-2.3,2.5-3.1,4.8-2.2l14.2,5.1c2.4,0.9,3.1,2.5,2.3,4.8l-8.3,22.9l-5.3-1.9l2.5-7.1
		l-10.7-3.9l-2.5,7.1L180.2,504.7z M203.9,489.3l-10.7-3.9l-3.2,8.8l10.7,3.9L203.9,489.3z"/>
</g>
<g class="st2">
	<path class="st3" d="M207,514.2l5.6-23.7c0.6-2.4,2.1-3.4,4.5-2.8l14.7,3.5c2.5,0.6,3.4,2.1,2.8,4.5l-5.6,23.7l-5.5-1.3l5.2-21.9
		l-11-2.6l-5.2,21.9L207,514.2z"/>
</g>
<g class="st2">
	<path class="st3" d="M260.2,499.2l-2.5,20.5c-0.3,2.5-1.7,3.6-4.2,3.3l-15-1.8c-2.5-0.3-3.6-1.7-3.3-4.2l2.5-20.5
		c0.3-2.5,1.7-3.6,4.2-3.3l15,1.8C259.4,495.4,260.5,496.8,260.2,499.2z M243.1,499.1l-2,16.7l11.3,1.4l2-16.7L243.1,499.1z"/>
</g>
<g class="st2">
	<path class="st3" d="M280.2,501.7l-11.4-0.2l-0.2,16.9l13.2,0.2l-0.1,5.6l-15.1-0.2c-2.5,0-3.8-1.3-3.7-3.8l0.3-20.6
		c0-2.5,1.3-3.7,3.8-3.7l15.1,0.2L280.2,501.7z"/>
</g>
<g class="st2">
	<path class="st3" d="M292,512.5l0.4,5.6l13.2-1l0.4,5.6l-15.1,1.2c-2.5,0.2-3.9-0.9-4.1-3.4l-1.6-20.6c-0.2-2.5,1-3.8,3.5-4
		l15.1-1.2l0.5,5.6l-13.2,1l0.5,5.6l7.6-0.6l-1.4,5.8L292,512.5z"/>
</g>
<g class="st2">
	<path class="st3" d="M311.7,522.2l-4.5-23.9c-0.5-2.5,0.5-3.9,3-4.4l14.9-2.8c2.5-0.5,4,0.5,4.4,3L334,518l-5.6,1.1l-1.4-7.4
		l-11.2,2.1l1.4,7.4L311.7,522.2z M324.2,496.9L313,499l1.7,9.2l11.2-2.1L324.2,496.9z"/>
</g>
<g class="st2">
	<path class="st3" d="M339.7,516.8l-7.2-23.3c-0.7-2.4,0.1-4,2.5-4.7l14.5-4.5c2.4-0.7,4,0.1,4.7,2.5l7.2,23.3l-5.4,1.7l-6.7-21.5
		l-10.8,3.4l6.7,21.5L339.7,516.8z"/>
</g>
<g class="st2">
	<path class="st3" d="M361,479.9l10.4,26.1l-5.3,2.1L355.7,482L361,479.9z"/>
</g>
<g class="st2">
	<path class="st3" d="M376.3,504.4l-10.7-21.9c-1.1-2.2-0.5-3.9,1.7-5l13.6-6.7c2.3-1.1,3.9-0.5,5,1.7l10.7,21.9l-5.1,2.5l-3.3-6.7
		l-10.2,5l3.3,6.7L376.3,504.4z M381.6,476.7l-10.2,5l4.1,8.4l10.2-5L381.6,476.7z"/>
</g>
<g class="st2">
	<path class="st3" d="M74,139.9l-8.5,13.6l5.1,3.2l7.4-11.9c1.4-2.3,3.3-2.7,5.5-1.3l8.5,5.3c2.3,1.4,2.7,3.3,1.3,5.5l-10.6,17
		l-5.1-3.2l9.5-15.3l-5.1-3.2l-7.4,11.9c-1.4,2.3-3.3,2.7-5.5,1.3l-8.5-5.3c-2.3-1.4-2.7-3.3-1.3-5.5l10.6-17L74,139.9z"/>
</g>
<g class="st2">
	<path class="st3" d="M101.1,133.9l-8.4-15.1l3.8-4.7l11.6,20.7l-5.3,6.5l-22.7-7l3.8-4.7l16.5,5.1L101.1,133.9z"/>
</g>
<g class="st2">
	<path class="st3" d="M111.5,124.2l-9.7-10.1c-1.8-1.9-1.8-3.8,0.1-5.7l11.6-11.1c1.9-1.8,3.8-1.8,5.7,0.1l12.5,13l-4.3,4.2
		L116.3,103l-8.7,8.3l6.9,7.2l7.2-6.9l2.7,5.7l-7.2,6.9C115.2,126.2,113.3,126.1,111.5,124.2z"/>
</g>
<g class="st2">
	<path class="st3" d="M134.3,108.4L115.4,85l4.7-3.8l18.9,23.4L134.3,108.4z"/>
</g>
<g class="st2">
	<path class="st3" d="M139.2,98.8l-7.9-11.6c-1.5-2.2-1.1-4.1,1.1-5.6l13.3-9c2.2-1.5,4.1-1.1,5.6,1.1l10.1,14.9l-5,3.4l-9-13.3
		l-9.9,6.7l5.6,8.3l8.3-5.6l1.7,6.1l-8.3,5.6C142.5,101.4,140.7,101,139.2,98.8z"/>
</g>
<g class="st2">
	<path class="st3" d="M164.2,87l-8.5-15.9c-1.3-2.4-0.7-4.2,1.6-5.4l10.6-5.7l1.1,6.2l-7,3.8l7.6,14.1L164.2,87z"/>
</g>
<g class="st2">
	<path class="st3" d="M179.3,78.6l-11.4-27.8l5.6-2.3l3,7.4l13-5.3c2.5-1,4.2-0.3,5.2,2.2l6.9,16.7l-5.6,2.3L189.9,57l-11.1,4.6
		l6.1,14.8L179.3,78.6z"/>
</g>
<g class="st2">
	<path class="st3" d="M222.9,44.5l1.6,5.8c0.7,2.6-0.2,4.2-2.8,4.9l-11.6,3.2l-1.6-5.8l9.7-2.6l-0.5-1.9L206,51.2l2.6,9.7l13.5-3.7
		l-0.3,6.3l-13.6,3.7c-2.6,0.7-4.2-0.2-4.9-2.8l-3.6-13.6c-0.7-2.6,0.2-4.2,2.8-4.9l15.5-4.2C220.6,41,222.2,41.9,222.9,44.5z"/>
</g>
<g class="st2">
	<path class="st3" d="M231.5,30.7l-0.9,6.3l-3.9,0.7l-1.1-5.9L231.5,30.7z M237,60.2l-4-21.7l-5.9,1.1l4,21.7L237,60.2z"/>
</g>
<g class="st2">
	<path class="st3" d="M252.9,41.8l-8,0.6l1.2,16l-6,0.5l-1.4-18c-0.2-2.7,1-4.1,3.7-4.3l26-2c2.7-0.2,4.1,1,4.3,3.7l1.4,18l-6,0.5
		l-1.2-16l-8,0.6l1.2,16l-6,0.5L252.9,41.8z"/>
</g>
<g class="st2">
	<path class="st3" d="M277.3,52.4l1-14c0.2-2.7,1.6-3.9,4.3-3.7l16,1.1c2.7,0.2,3.9,1.6,3.7,4.3l-1.3,18l-6-0.4l1.1-16l-12-0.8
		l-0.7,10l10,0.7l-2.4,5.9l-10-0.7C278.4,56.4,277.2,55,277.3,52.4z"/>
</g>
<g class="st2">
	<path class="st3" d="M338.5,59.9l7.7,2.2L353,39l5.8,1.7l-7.3,25c-0.7,2.6-2.4,3.5-5,2.7l-25-7.3c-2.6-0.7-3.5-2.4-2.7-5l7.3-25
		l5.8,1.7L325,55.9l7.7,2.3l6.7-23.1l5.8,1.7L338.5,59.9z"/>
</g>
<g class="st2">
	<path class="st3" d="M353.2,71l8.3-20.4l5.6,2.3l-8.3,20.4L353.2,71z M364.5,43.2l-2.3,5.6l3.7,1.5l4.1-4.8L364.5,43.2z"/>
</g>
<g class="st2">
	<path class="st3" d="M362.1,74.2l8.2-16.1c1.2-2.4,3-3,5.4-1.7l14.3,7.3c2.4,1.2,3,3,1.7,5.4l-8.2,16.1l-5.4-2.7l7.3-14.3
		l-10.7-5.5L367.4,77L362.1,74.2z"/>
</g>
<g class="st2">
	<path class="st3" d="M405.4,68.1l-2.1,3.4l3.4,2.1l-4.9,4l-1.7-1.1l-5.4,8.5l3.4,2.1l-3.2,5.1l-5.1-3.2c-2.3-1.4-2.7-3.3-1.2-5.5
		l11.8-18.6L405.4,68.1z"/>
</g>
<g class="st2">
	<path class="st3" d="M427.9,94.2l-3.7,4.8c-1.6,2.1-3.5,2.4-5.6,0.7l-9.5-7.3l3.7-4.8l7.9,6.1l1.2-1.6l-9.5-7.3l-6.1,7.9l11.1,8.5
		l-5.2,3.6l-11.1-8.6c-2.1-1.6-2.4-3.5-0.7-5.6l8.6-11.1c1.6-2.1,3.5-2.4,5.6-0.7l12.7,9.8C429.3,90.2,429.5,92.1,427.9,94.2z"/>
</g>
<g class="st2">
	<path class="st3" d="M419.4,110.6l12.4-13.1c1.8-1.9,3.7-2,5.7-0.2l8.7,8.3l-5.6,3l-5.8-5.5l-11,11.6L419.4,110.6z"/>
</g>
<g class="st2">
	<path class="st3" d="M445.1,119.1L436,127l-4-4.5l19.6-17.1c2-1.8,3.9-1.6,5.7,0.4l10.6,12.1l-4.5,4l-9.2-10.6l-4.5,4l5.3,6
		l-5.8,2.4L445.1,119.1z"/>
</g>
<g class="st2">
	<path class="st3" d="M476,149.5l-11.6,7.9c-2.2,1.5-4.1,1.2-5.6-1l-9.1-13.2c-1.5-2.2-1.2-4.1,1-5.6l11.6-7.9
		c2.2-1.5,4.1-1.2,5.6,1l9.1,13.2C478.6,146.1,478.2,148,476,149.5z M464.2,135.7l-8.3,5.7l6.8,9.9l8.3-5.7L464.2,135.7z"/>
</g>
<g class="st2">
	<path class="st3" d="M462.8,162.5l15.9-8.7c2.4-1.3,4.2-0.7,5.5,1.6L490,166l-6.3,1.1l-3.8-7l-14.1,7.7L462.8,162.5z"/>
</g>
<path class="st3" d="M73.9,275.8c0-111.3,90.2-201.4,201.5-201.4c1.1,0,2.3,0,3.4,0c109.4,1.6,199.8,91.7,198,205
	c-1.8,109.3-91.2,198.1-202,197.9S73.9,386.8,73.9,275.8z M253.2,178.3c0-0.4,0.1-0.8,0.1-1.2c-0.5-11-1-22-1.6-33.1
	c-0.2-3.8-0.5-7.6,0.3-11.4c2.4-12.6,8.7-19,21-20.5c2.2-0.3,2.5-0.9,2.5-2.9c-0.1-9.2-0.1-18.5,0-27.7c0-1.9-0.3-2.5-2.4-2.5
	c-71.9,1-137.5,40.9-171.4,104.3c-19.3,36-26.4,74.4-21.9,115c3.3,30,13.5,58.7,30,84c35.8,55.8,97.3,89.8,163.6,90.6
	c1.8,0,2-0.6,2-2.1c-0.1-9.3-0.1-18.6,0-27.9c0-2-0.2-3.1-2.7-3c-1.5-0.1-3-0.4-4.4-0.9c-4.9-1.1-9.3-4.1-12.1-8.3
	c-3.2-4.7-4.8-10.3-4.6-16c0-8.9,0.7-17.9,1.1-26.8c0.2-4.7,0.4-9.4,0.6-14.3c-0.6,0.3-1,0.4-1.3,0.6c-11.1,5.8-22.2,11.5-33.3,17.3
	c-3.7,1.9-7.4,2-11-0.5c-3-2.1-3.8-5.3-4-8.6c-0.5-10.8-1-21.6-1.4-32.4c-0.1-1.9-0.3-3.8-0.4-5.9c-4.7,3-9.1,5.7-13.5,8.5
	c-7.6,4.9-15.1,10-23,14.4c-8.3,4.5-19.6,4.2-26.8-2.4c-2.3-2.2-4.2-4.7-5.7-7.4c-5.4-9.3-2.9-22.2,5.3-28.7
	c5.3-4.2,11.2-7.1,17.2-10.1c8.2-4.1,16.3-8.5,24.5-12.8l-2.8-1.9c-10.4-6.6-20.8-13.2-31-19.9c-5.3-3.5-5.2-11.8-0.1-15.4
	c2.7-1.9,5.5-3.6,8.3-5.4c8.5-5.5,17-10.9,25.8-16.5c-6.4-3.2-12.6-6.5-18.8-9.7c-7-3.6-14.1-6.9-20.6-11.3
	c-7.4-5-10.9-12.2-10.4-20.9c0.4-7.3,4.1-14.1,10-18.3c4.9-3.7,11.1-5.2,17.2-4.1c6.4,1,11.5,4.6,16.8,7.8
	c7.8,4.8,15.5,9.9,23.2,14.9c1.5,1,3,1.8,4.8,2.8c0.1-0.8,0.1-1.4,0.2-2c0.4-10,0.9-19.9,1.4-29.9c0.2-3.5,0-7,1.1-10.5
	c1.5-4.1,5.7-6.6,10.1-6.1c2.3,0.5,4.4,1.3,6.5,2.5C231.6,167.1,242.2,172.6,253.2,178.3L253.2,178.3z M213.2,383.5
	c1-0.5,1.6-0.8,2.3-1.1c15.3-8,30.6-15.9,45.9-23.8c0.6-0.3,1.2-1,1.8-0.6s0.1,1.3,0.1,1.9c-0.8,16.8-1.5,33.6-2.3,50.4
	c-0.2,3-0.1,6,0.4,9c1.3,6.6,6.1,10.9,12.5,11.2c8,0.4,13.1-3,15.1-10c0.8-3.3,1-6.7,0.7-10.1c-0.8-16.9-1.5-33.7-2.3-50.6
	c0-0.6-0.5-1.5,0.2-1.9s1.2,0.4,1.8,0.7c15.2,7.9,30.5,15.8,45.7,23.7c0.7,0.5,1.5,0.9,2.4,1c0.8-18.6,1.7-37.3,2.5-56.3l8.7,5.5
	l38.5,24.6c2.1,1.3,4.4,2.3,6.8,2.9c6.4,1.5,11.8-0.9,15.2-6.8c3.6-6.3,3-12-1.8-16.9c-2.2-2.1-4.6-3.8-7.4-5.1l-30.2-15.6
	c-5.9-3-11.7-6.1-17.8-9.3c0.9-0.6,1.6-1.1,2.3-1.5c14.5-9.2,29-18.5,43.5-27.7c1.7-1.1,1.7-1.5,0-2.6
	c-13.9-8.8-27.8-17.7-41.8-26.6c-1.3-0.8-2.5-1.6-3.7-2.4c0.2-0.6,0.7-0.8,1.1-1c5.7-3,11.5-5.9,17.2-8.9
	c10.6-5.5,21.2-11,31.8-16.5c2.5-1.3,4.8-3.2,6.5-5.5c3.6-4.7,3.5-10.1,0-16c-2.7-4.8-8.1-7.3-13.6-6.4c-3.8,0.6-7,2.5-10.2,4.5
	c-14.2,9.1-28.4,18.2-42.7,27.3c-0.6,0.4-1.3,1.4-2.1,1c-0.6-0.4-0.4-1.4-0.4-2.1c-0.7-15.4-1.3-30.9-2-46.4
	c-0.1-2.4-0.3-4.9-0.5-7.5l-49.8,25.9c-0.4-0.5-0.5-1.2-0.3-1.8c0.8-16.9,1.6-33.9,2.3-50.8c0.2-3,0.1-6-0.4-9
	c-1.3-6.6-6.2-10.9-12.6-11.2c-8-0.3-13,3-15,10c-0.7,2.7-1,5.5-0.8,8.3c0.7,14.9,1.4,29.7,2.1,44.6c0.1,3.2,0,6.5,0,9.9l-49.8-25.8
	c-0.1,0.6-0.1,1-0.1,1.4c-0.8,17.4-1.5,34.8-2.3,52.2c0,0.8,0.3,1.9-0.4,2.3s-1.4-0.5-2.1-0.9l-42.3-27c-2.4-1.6-5-3-7.8-4
	c-6.7-2.3-12.9,0-16.4,6c-4,6.9-3.2,13.1,2.3,18.1c2.5,2.1,5.2,3.8,8.2,5.1c13.1,6.8,26.3,13.6,39.4,20.4c2.3,1.2,4.5,2.4,6.7,3.6
	c-0.5,0.7-1.2,1.3-2,1.6L153,274.5c-2.2,1.3-2.2,1.3-0.1,2.7c14.4,9.2,28.8,18.4,43.3,27.6c0.8,0.4,1.5,0.9,2,1.6
	c-3,1.6-6,3.1-8.9,4.7l-38.8,20.1c-3.1,1.4-5.8,3.5-8.1,6c-3.9,4.5-4.3,10-1.3,15.5c3.4,6,8.1,8.5,14.2,7.6
	c4.1-0.6,7.4-2.7,10.8-4.9c14.2-9,28.4-18.1,42.5-27.2c1.6-1,2.1-1,2.1,1c0.3,8,0.6,16,1,24.1C212.3,363.2,212.7,373.2,213.2,383.5
	L213.2,383.5z"/>
<path class="st4" d="M253.2,178.2c-10.9-5.7-21.6-11.2-32.2-16.7c-2-1.2-4.2-2-6.5-2.5c-4.4-0.5-8.5,2-10.1,6.1
	c-1.1,3.4-0.9,7-1.1,10.5c-0.5,10-0.9,20-1.4,29.9c0,0.6-0.1,1.1-0.2,2c-1.7-1-3.3-1.8-4.8-2.8c-7.7-5-15.4-10.1-23.2-14.9
	c-5.3-3.2-10.4-6.8-16.8-7.8c-6-1.1-12.2,0.3-17.1,4c-5.9,4.3-9.6,11-10,18.3c-0.5,8.7,3.1,15.9,10.4,20.9
	c6.5,4.4,13.7,7.7,20.6,11.3c6.2,3.2,12.4,6.5,18.8,9.6c-8.7,5.6-17.3,11-25.8,16.5c-2.8,1.8-5.6,3.5-8.3,5.4
	c-5.2,3.6-5.2,11.9,0.1,15.4c10.3,6.8,20.7,13.3,31,19.9l2.8,1.9c-8.3,4.3-16.3,8.7-24.5,12.8c-6,3-11.9,5.9-17.2,10.1
	c-8.2,6.5-10.7,19.4-5.3,28.7c1.5,2.7,3.5,5.3,5.7,7.4c7.2,6.7,18.6,7,26.8,2.4c7.9-4.3,15.4-9.4,23-14.4c4.4-2.9,8.8-5.6,13.5-8.5
	c0.1,2.1,0.3,4,0.4,5.9c0.5,10.8,0.9,21.6,1.4,32.4c0.2,3.4,0.9,6.5,4,8.6c3.6,2.5,7.3,2.4,11,0.5c11.1-5.7,22.2-11.5,33.3-17.3
	c0.3-0.2,0.7-0.3,1.3-0.6c-0.2,5-0.5,9.6-0.6,14.3c-0.4,8.9-1,17.9-1.1,26.8c-0.2,5.7,1.4,11.3,4.6,16c2.8,4.2,7.2,7.2,12.1,8.3
	c1.4,0.5,2.9,0.8,4.4,0.9c2.5-0.1,2.7,1,2.7,3c-0.1,9.3-0.1,18.6,0,27.9c0,1.6-0.3,2.2-2,2.1c-66.3-0.8-127.8-34.8-163.7-90.6
	c-16.4-25.3-26.7-54-29.9-84c-4.4-40.6,2.7-79,21.9-115c34.3-63.1,100-103.1,171.8-104c2.1,0,2.4,0.6,2.4,2.5
	c-0.1,9.2-0.1,18.5,0,27.7c0,2-0.3,2.6-2.5,2.9c-12.2,1.5-18.6,7.9-21,20.5c-0.7,3.8-0.4,7.6-0.3,11.4c0.5,11,1,22,1.6,33.1
	C253.2,177.4,253.2,177.8,253.2,178.2z"/>
<path class="st5" d="M213.2,383.5c-0.5-10.3-0.9-20.3-1.4-30.3c-0.4-8-0.7-16-1-24.1c-0.1-2-0.6-2-2.1-1
	c-14.1,9.1-28.3,18.2-42.4,27.2c-3.4,2.1-6.7,4.2-10.8,4.9c-6.1,0.9-10.8-1.6-14.2-7.6c-3-5.5-2.6-11,1.3-15.5
	c2.3-2.5,5.1-4.5,8.1-6l38.8-20.1c3-1.5,6-3.1,8.9-4.7c-0.5-0.7-1.2-1.3-2-1.6c-14.4-9.2-28.8-18.4-43.3-27.6
	c-2.1-1.3-2.1-1.4,0.1-2.7l43.2-27.6c0.8-0.4,1.5-0.9,2-1.6c-2.3-1.2-4.5-2.4-6.7-3.6c-13.1-6.8-26.3-13.5-39.4-20.3
	c-2.9-1.4-5.7-3.1-8.2-5.1c-5.6-5-6.4-11.2-2.3-18.1c3.5-6,9.7-8.3,16.4-6c2.7,1,5.3,2.4,7.8,4l42.3,27.1c0.6,0.4,1.3,1.4,2.1,0.9
	s0.4-1.5,0.4-2.3c0.8-17.4,1.6-34.8,2.3-52.2c0-0.4,0.1-0.7,0.1-1.4L263,194c0-3.4,0.1-6.7,0-9.9c-0.6-14.9-1.4-29.7-2.1-44.6
	c-0.2-2.8,0-5.6,0.8-8.3c2-7,7-10.3,15-10c6.4,0.3,11.3,4.6,12.6,11.2c0.5,3,0.6,6,0.4,9c-0.8,16.9-1.6,33.9-2.3,50.8
	c-0.2,0.6-0.1,1.2,0.3,1.8l49.8-25.9c0.2,2.7,0.4,5.1,0.5,7.5c0.7,15.5,1.3,30.9,2,46.4c0,0.7-0.3,1.8,0.4,2.1
	c0.8,0.4,1.4-0.6,2.1-1c14.2-9.1,28.5-18.2,42.7-27.3c3.2-2,6.4-3.9,10.2-4.5c5.4-1,10.9,1.6,13.6,6.4c3.6,5.9,3.6,11.3,0,16
	c-1.7,2.3-4,4.1-6.5,5.5c-10.6,5.5-21.1,11-31.8,16.5c-5.7,3-11.5,5.9-17.2,8.9c-0.4,0.2-0.9,0.3-1.1,1c1.2,0.8,2.5,1.6,3.7,2.4
	c13.9,8.9,27.8,17.8,41.8,26.6c1.7,1,1.7,1.5,0,2.6c-14.5,9.2-29,18.4-43.5,27.6c-0.7,0.4-1.3,0.9-2.3,1.5c6.1,3.2,12,6.2,17.8,9.3
	l30.2,15.6c2.7,1.3,5.2,3,7.4,5.1c4.7,4.9,5.3,10.6,1.8,16.9c-3.3,5.9-8.8,8.3-15.2,6.8c-2.4-0.6-4.7-1.6-6.8-3l-38.5-24.6l-8.7-5.5
	c-0.9,19-1.7,37.7-2.5,56.3c-0.9-0.1-1.7-0.5-2.4-1c-15.2-7.9-30.5-15.8-45.7-23.7c-0.6-0.3-1.2-1-1.8-0.7s-0.2,1.2-0.2,1.9
	c0.8,16.9,1.5,33.7,2.3,50.6c0.3,3.4,0.1,6.8-0.7,10.1c-2,7-7.1,10.3-15.1,10c-6.4-0.3-11.3-4.6-12.5-11.2c-0.5-3-0.6-6-0.4-9
	c0.8-16.8,1.5-33.6,2.3-50.4c0-0.6,0.5-1.5-0.1-1.9s-1.3,0.3-1.8,0.6c-15.3,7.9-30.6,15.9-45.9,23.8
	C214.8,382.7,214.1,383,213.2,383.5z M284.2,291.1c0.2,4.9,0.4,9.3,0.6,13.6c0.6,12.8,1.2,25.5,1.8,38.2c0,0.8,0.4,1.6,1.2,1.9
	c12.6,6.5,25.2,13,37.7,19.6c1.4,0.7,1.6,0.3,1.6-1c0.6-14,1.2-28,1.9-42.1c0.1-1-0.4-2-1.4-2.5c-10.1-6.5-20.2-13-30.3-19.4
	C293.1,296.8,288.9,294.1,284.2,291.1L284.2,291.1z M293.2,275.7c0.3,0.2,0.6,0.4,0.9,0.6c15,7.8,30,15.5,45,23.3
	c0.8,0.5,1.7,0.4,2.4-0.2c11.8-7.6,23.7-15.1,35.5-22.7c1.4-0.9,1.2-1.3,0-2c-11.9-7.5-23.7-15.1-35.5-22.6
	c-0.8-0.6-1.8-0.6-2.6-0.1c-10.7,5.5-21.3,11.1-32,16.5C302.4,270.9,298,273.3,293.2,275.7L293.2,275.7z M284.2,260.3
	c1-0.5,1.6-0.9,2.2-1.3c13.6-8.7,27.2-17.3,40.8-26.1c1.3-0.7,2-2,1.7-3.4c-0.7-13.6-1.3-27.3-1.8-40.9c-0.1-1.9-0.4-2.1-2.1-1.2
	c-12.2,6.4-24.4,12.8-36.7,19.1c-1.2,0.5-1.9,1.7-1.8,2.9c-0.5,11.2-1,22.3-1.6,33.5C284.7,248.6,284.5,254.3,284.2,260.3
	L284.2,260.3z M266.3,260.3c0.2-4.7-0.3-9-0.4-13.3c-0.6-12.7-1.2-25.5-1.7-38.2c0-0.9-0.5-1.7-1.4-2c-12.5-6.4-24.9-12.9-37.3-19.4
	c-1.5-0.8-1.8-0.6-1.9,1.1c-0.6,13.9-1.2,27.7-1.8,41.6c-0.2,1.1,0.4,2.2,1.4,2.7c12.8,8.1,25.5,16.3,38.3,24.5
	C263,258.3,264.5,259.2,266.3,260.3L266.3,260.3z M257.6,275.8c-0.7-0.4-1-0.6-1.2-0.7c-14.9-7.7-29.7-15.4-44.6-23.1
	c-0.9-0.5-2.1-0.4-2.8,0.3c-11.6,7.5-23.2,14.9-35,22.3c-1.9,1.2-1.3,1.7,0.1,2.6c11.6,7.3,23.2,14.7,34.7,22.2
	c0.9,0.7,2.2,0.8,3.2,0.1c10.3-5.4,20.7-10.7,31-16C247.8,280.9,252.5,278.5,257.6,275.8z M266.5,291.2c-1.1,0.6-1.8,1-2.4,1.4
	c-13.5,8.7-27,17.4-40.6,26c-1.3,0.6-2,2-1.8,3.4c0.7,13.6,1.3,27.3,1.8,40.9c0.1,2.2,0.7,2,2.3,1.2c12.1-6.4,24.3-12.7,36.5-19
	c1.2-0.5,1.9-1.6,1.8-2.9c0.5-11.1,1-22.2,1.6-33.3C266,303.2,266.2,297.5,266.5,291.2L266.5,291.2z"/>
<path class="st3" d="M284.2,291.1c4.7,3,8.9,5.6,13.1,8.3c10.1,6.5,20.2,13,30.3,19.4c0.9,0.5,1.5,1.5,1.4,2.5
	c-0.7,14-1.3,28-1.9,42.1c0,1.3-0.3,1.8-1.6,1c-12.6-6.6-25.1-13.1-37.7-19.6c-0.7-0.3-1.2-1.1-1.2-1.9c-0.6-12.8-1.2-25.5-1.8-38.2
	C284.6,300.4,284.4,296,284.2,291.1z"/>
<path class="st3" d="M293.2,275.7c4.7-2.5,9.1-4.8,13.6-7.1c10.7-5.5,21.3-11,32-16.5c0.8-0.5,1.9-0.5,2.6,0.1
	c11.8,7.6,23.6,15.1,35.5,22.6c1.3,0.8,1.5,1.2,0,2c-11.9,7.5-23.7,15-35.5,22.6c-0.7,0.6-1.7,0.6-2.4,0.2c-15-7.8-30-15.6-45-23.3
	C293.8,276.2,293.5,275.9,293.2,275.7z"/>
<path class="st3" d="M284.2,260.3c0.3-6,0.5-11.7,0.7-17.4c0.5-11.2,1.1-22.3,1.6-33.5c-0.1-1.3,0.6-2.4,1.8-2.9
	c12.3-6.3,24.5-12.6,36.7-19.1c1.7-0.9,2-0.7,2.1,1.2c0.5,13.6,1.1,27.3,1.8,40.9c0.2,1.4-0.5,2.8-1.7,3.4
	c-13.6,8.7-27.2,17.4-40.8,26.1C285.9,259.4,285.2,259.8,284.2,260.3z"/>
<path class="st3" d="M266.3,260.3c-1.8-1.1-3.4-2-4.9-3c-12.7-8.2-25.5-16.4-38.3-24.5c-1-0.5-1.5-1.6-1.4-2.7
	c0.7-13.9,1.3-27.7,1.8-41.6c0.1-1.7,0.4-1.8,1.9-1.1c12.4,6.5,24.8,13,37.3,19.4c0.8,0.3,1.4,1.1,1.4,2c0.5,12.7,1.2,25.5,1.7,38.2
	C266.1,251.3,266.5,255.6,266.3,260.3z M232.5,202.1c-0.3,7.8-0.6,15.6-1,23.4c-0.1,0.8,0.4,1.5,1.1,1.8c2.3,1.4,4.5,2.9,6.8,4.4
	c5,3.2,10.1,6.4,15.1,9.7c1.6,1,1.8,0.5,1.7-1.1c-0.4-8.5-0.8-16.9-1.1-25.4c0.1-1-0.6-2-1.5-2.4c-6.5-3.3-13-6.7-19.6-10.1
	C233.6,202.3,233.2,201.9,232.5,202.1z"/>
<path class="st3" d="M257.6,275.8c-5,2.6-9.7,5.1-14.4,7.5c-10.3,5.3-20.7,10.6-31,16c-1,0.7-2.3,0.6-3.2-0.1
	c-11.5-7.4-23.1-14.8-34.7-22.2c-1.4-0.9-2.1-1.4-0.1-2.6c11.7-7.4,23.3-14.8,34.9-22.2c0.8-0.7,1.9-0.8,2.8-0.3
	c14.8,7.8,29.7,15.5,44.6,23.1C256.6,275.3,256.9,275.4,257.6,275.8z M236.9,275.8c-1.4-0.8-2.3-1.4-3.3-1.9
	c-4.5-2.3-9.1-4.4-13.6-6.9c-2.7-1.5-5.5-2.7-8.1-4.2c-0.6-0.4-1.4-0.4-2,0c-6.2,4-12.5,8-18.8,11.9c-1.2,0.8-1.1,1.2,0,1.9
	c6.2,3.9,12.4,7.8,18.6,11.8c0.6,0.5,1.4,0.5,2,0.1C220,284.5,228.2,280.3,236.9,275.8L236.9,275.8z"/>
<path class="st3" d="M266.5,291.3c-0.3,6.2-0.5,12-0.7,17.7c-0.5,11.1-1.1,22.2-1.6,33.3c0.1,1.3-0.6,2.4-1.8,2.9
	c-12.2,6.3-24.4,12.6-36.5,19c-1.5,0.8-2.2,1-2.3-1.2c-0.5-13.6-1.1-27.3-1.8-40.9c-0.2-1.4,0.5-2.8,1.8-3.4
	c13.6-8.6,27.1-17.3,40.6-26C264.7,292.3,265.4,291.9,266.5,291.3z M232.6,350c7.4-3.8,14.3-7.5,21.3-11c0.8-0.4,1.2-1.2,1.1-2
	c0.1-2.6,0.2-5.3,0.3-7.9c0.3-6.6,0.6-13.1,0.9-19.8c-3.2,1.2-5.5,3.4-8.2,5c-5.3,3.3-10.6,6.8-15.9,10.1c-0.5,0.3-0.8,0.9-0.7,1.5
	C231.9,333.9,232.2,341.7,232.6,350L232.6,350z"/>
<path class="st5" d="M232.5,202.1c0.7-0.3,1.1,0.1,1.4,0.3c6.5,3.4,13,6.8,19.5,10.1c1,0.4,1.6,1.4,1.5,2.4
	c0.3,8.5,0.7,16.9,1.1,25.4c0.1,1.6-0.1,2.1-1.7,1.1c-5-3.3-10-6.5-15.1-9.7c-2.3-1.5-4.5-2.9-6.8-4.4c-0.7-0.3-1.1-1-1.1-1.8
	C231.9,217.8,232.2,209.9,232.5,202.1z"/>
<path class="st5" d="M236.9,275.9c-8.7,4.4-16.9,8.6-25.1,12.8c-0.6,0.4-1.4,0.3-2-0.1c-6.2-4-12.4-7.9-18.6-11.8
	c-1.1-0.7-1.3-1.1,0-1.9c6.3-3.9,12.5-7.9,18.8-11.9c0.6-0.4,1.4-0.4,2,0c2.6,1.5,5.5,2.7,8.1,4.2c4.4,2.5,9,4.6,13.6,6.9
	C234.6,274.5,235.5,275.1,236.9,275.9z"/>
<path class="st5" d="M232.6,350c-0.4-8.3-0.7-16.1-1-24c-0.1-0.6,0.1-1.2,0.7-1.5c5.3-3.4,10.5-6.8,15.8-10.1c2.6-1.7,5-3.8,8.2-5
	c-0.3,6.7-0.6,13.3-0.9,19.8c-0.1,2.6-0.3,5.2-0.3,7.9c0.1,0.8-0.4,1.6-1.1,2C246.9,342.5,239.9,346.2,232.6,350z"/>
</svg>
