<svg enable-background="new 0 0 113.4 113.4" viewBox="0 0 113.4 113.4" xmlns="http://www.w3.org/2000/svg"><circle cx="56.7" cy="56.7" fill="#006194" r="56.7"/><circle cx="56.7" cy="56.7" fill="#fff" r="55.7"/><circle cx="56.7" cy="56.7" fill="#006194" r="53.2"/><circle cx="56.7" cy="56.7" fill="#fff" r="37.2"/><circle cx="56.7" cy="56.7" fill="#ffd500" r="35.4"/><g fill="#fff"><path d="m11.5 61.9-.2-1.3c.4-.1.6-.1.8-.1.3 0 .6.1.7.3s.2.4.3.7.2.7.2 1.3c.1.9.2 1.5.2 1.7 0 .3 0 .5-.1.6-.1.2-.2.3-.4.4s-.4.2-.8.2c-.3 0-.5.1-.6 0-.2 0-.3 0-.4-.1-.2-.1-.3-.2-.3-.3-.1-.3-.2-.6-.3-.9-.2-.9-.3-1.5-.4-1.8s-.1-.4-.2-.5l-.1-.1s-.1 0-.3 0l .6 4-1 .1-.8-5.2c.2 0 .3-.1.5-.1.5-.1.9-.1 1.1-.1.4 0 .7.2.9.6.1.2.1.3.1.4s.1.5.3 1.1c.1.6.2 1 .3 1.1 0 .1.1.2.1.3s.1.1.1.1h.3c.1 0 .2 0 .3-.1.1 0 .1-.1.1-.2s0-.4-.1-1c-.1-.5-.1-.8-.2-1 0-.2-.1-.3-.1-.3s-.1 0-.2 0c0 .1-.2.1-.4.2z"/><path d="m12.6 66.4.3 1.1-.5.1v.1c.2 0 .4.2.5.3.1.2.3.4.3.8.1.4.1.7.1.9s-.1.4-.2.6-.2.3-.4.4-.5.2-.9.3l-1.4.4-.3-1.1 1.4-.4c.2-.1.4-.1.5-.2.1 0 .1-.1.2-.2s.1-.4 0-.8-.2-.6-.4-.7c-.1 0-.2-.1-.3-.1s-.3 0-.6.1l-1.2.3-.3-1.1z"/><path d="m16.6 74.6-4.1 1.6-.4-1 .4-.1v-.1c-.2 0-.3-.1-.4-.1-.2-.2-.4-.5-.6-1-.2-.4-.2-.7-.3-.9s0-.4 0-.6c.1-.2.2-.3.3-.4.2-.1.4-.2.8-.4.3-.1.5-.2.6-.2h.5c.3 0 .5.2.7.4.1.2.3.5.5 1 .1.4.2.7.2.9s-.1.4-.2.6l1.6-.6zm-2.7-1.3c-.2-.4-.3-.7-.4-.8s-.3-.1-.6 0c-.2.1-.4.2-.5.2-.1.1-.1.2-.1.3 0 .2.1.4.2.7.2.4.3.7.4.8s.1.1.2.1.2 0 .4-.1.3-.2.4-.2c.1-.1.1-.2.1-.3 0-.2 0-.4-.1-.7z"/><path d="m17.5 76.4.7 1.3-3.9 2.1-.7-1.3z"/><path d="m14.6 80.5 3.7-2.4 1.8 2.7c.4.6.7 1 .7 1.2.1.1.1.3.1.5s0 .4-.2.5-.3.3-.7.5c-.1.2-.4.4-.5.4s-.3.1-.4 0c-.1 0-.3-.2-.5-.3.1.3.2.5.1.6 0 .1-.1.2-.2.3s-.3.2-.6.4l-.3.2-.7-1.1.2-.1c.2-.1.4-.2.4-.3.1-.1.1-.1.1-.2s0-.1 0-.2-.1-.2-.3-.5l-1-1.6-.9.6zm2.6 0 1 1.6c.2.3.3.4.3.5s.1.1.1.1h.2c.1 0 .2-.1.3-.1.1-.1.2-.1.3-.2 0-.1.1-.1.1-.2s0-.1-.1-.2c0-.1-.1-.2-.3-.5l-1-1.6z"/><path d="m18.1 85.9 3.4-2.9 2.1 2.5c.5.6.8.9.9 1.1.1.1.1.3.2.4 0 .2 0 .4-.1.5-.1.2-.3.4-.6.6-.2.2-.4.3-.6.4-.1.1-.3.1-.4.1-.2 0-.3-.1-.5-.3.2.2.2.4.2.6 0 .1-.1.2-.1.3-.1.1-.3.3-.6.5l-.3.3-.9-1 .2-.2c.2-.2.3-.3.4-.4s.1-.2.1-.2c0-.1 0-.1-.1-.2 0-.1-.2-.2-.3-.4l-1.2-1.5-.9.7zm2.6-.4 1.2 1.4c.2.2.4.4.4.4l.1.1h.2c.1 0 .2-.1.3-.2s.2-.2.2-.2c0-.1 0-.1 0-.2s0-.1-.1-.2c0-.1-.2-.2-.4-.4l-1.2-1.4z"/><path d="m25.3 87.4 3.6 3.3-.7.8-2.6-2.4-.4.5 2.5 2.3-.7.7-2.5-2.3-.5.5 2.7 2.4-.7.8-3.6-3.3z"/><path d="m30.3 94.1 2.5 1.8c0 .1-.1.1-.1.1-.4.5-.6.9-.9 1.1-.3.4-.8.5-1.2.3-.2-.1-.4-.2-.7-.4-.2-.2-.6-.4-1.1-.8-.6-.4-1.1-.8-1.3-1s-.4-.4-.5-.6c-.1-.1-.1-.3-.1-.4s.1-.3.2-.5.3-.5.7-1c .2-.3.4-.6.6-.7.1-.2.3-.3.4-.4.3-.2.6-.2 1 0s1 .6 1.8 1.1c.5.3.8.6 1.1.8s.4.4.6.6c.2.3.3.6.1.9-.1.2-.2.4-.4.6l-1.1-.8c.1-.1.1-.2.1-.2v-.1c0-.1-.1-.2-.3-.4-.2-.1-.4-.3-.8-.6s-.7-.5-.8-.5c-.2-.1-.3-.1-.4-.1s-.2.1-.3.2-.2.3-.4.6-.4.5-.4.7c-.1.1-.1.3-.1.3 0 .1.1.2.2.3s.4.3.9.7c.5.3.8.6.9.6.1.1.2.1.3.1s.1 0 .2 0 .1-.1.2-.2c0 0 0 0 .1-.1l-1.5-1z"/><path d="m34.2 94.4 1.2.6-.9 1.8c-.2.4-.3.7-.4.8 0 .2 0 .3.1.5.1.1.5.3 1 .6.4.2.7.3.9.4s.3.1.4 0c .1 0 .1-.1.2-.1s.1-.2.2-.3c.1-.2.2-.3.2-.4l.9-1.8 1.2.6-.9 1.8c-.3.6-.6 1-.7 1.2-.2.3-.5.5-.8.5-.2 0-.4 0-.7-.2-.3-.1-.8-.3-1.4-.7-.5-.2-.8-.4-1.1-.6-.2-.2-.5-.3-.6-.4-.4-.3-.5-.7-.3-1.1.1-.2.1-.3.2-.5.1-.1.2-.4.4-.9z"/><path d="m39.7 97.2 1.3.5-1.1 3.1 3 1.1-.4 1.1-4.3-1.6z"/><path d="m48.1 104.3-.2-.8-2.9-.6-.5.7-1.5-.3 3.3-3.8 2 .5 1.3 4.8zm-.4-1.9-.5-1.8-.3-.1-1.2 1.5z"/><path d="m50.3 104.6.3-4.4 3.3.3c.8.1 1.2.1 1.4.1.1 0 .3.1.4.2.2.1.3.3.3.4 0 .2.1.5 0 .8 0 .3-.1.6-.1.7-.1.1-.1.3-.3.3-.1.1-.3.1-.6.2.3 0 .5.1.6.3.1.1.1.2.1.3v.8.4l-1.3-.1v-.2c0-.2 0-.4 0-.5s0-.2-.1-.2c0-.1-.1-.1-.2-.1s-.3 0-.5-.1l-1.9-.1-.1 1.1zm1.5-2.1 1.9.1h.6s.1 0 .2 0 .1-.1.1-.2 0-.2.1-.3 0-.3 0-.3c0-.1-.1-.1-.1-.2 0 0-.1 0-.2-.1s-.3 0-.6-.1l-1.9-.1z"/><path d="m62.5 102.9 1.3-.1c0 .2 0 .4.1.4 0 .3 0 .6-.1.8s-.3.4-.6.5-.9.2-1.7.3-1.4.1-1.8.1-.6 0-.8-.1-.3-.2-.4-.3-.2-.3-.2-.6c0-.2-.1-.6-.1-1.1s-.1-.9-.1-1.1 0-.4.1-.5c.1-.3.3-.5.7-.6s1.1-.2 2.3-.3c.6-.1 1-.1 1.2-.1.3 0 .5 0 .6.1.2.1.4.2.5.4s.2.4.2.8v.2l-1.3.1c0-.1 0-.2-.1-.3 0 0 0-.1-.1-.1s-.2-.1-.4-.1-.5 0-1 .1c-.4 0-.7.1-.9.1s-.3.1-.3.1c-.1.1-.1.2-.1.3v.7s.1.6.1.7.1.2.2.3c.1 0 .2.1.4.1s.5 0 .9-.1c.5 0 .9-.1 1-.1.2 0 .3-.1.3-.1.1 0 .1-.2.1-.5z"/><path d="m69.6 103.3-.5-.6-2.9.7-.2.8-1.5.4 1.3-4.9 2-.5 3.3 3.8zm-1.3-1.5-1.2-1.4-.3.1-.4 1.8z"/><path d="m70.1 98.6 2.3-.9 2.3 2.2.1-3.2 2.3-.9 1.7 4.1-1.2.5-1.2-3.1-.2.1-.3 3.7-1 .4-2.8-2.4-.2.1 1.3 3.1-1.2.5z"/><path d="m77.3 95.5 4.2-2.5.5.9-3.1 1.8.3.5 2.9-1.8.5.8-2.9 1.8.4.6 3.1-1.9.5.9-4.2 2.5z"/><path d="m84.5 96.3-2.7-3.5 2.6-2c .6-.5 1-.8 1.1-.8.1-.1.3-.1.4-.2.2 0 .4 0 .5.1.2.1.4.3.6.6s.3.5.4.6.1.3 0 .4c0 .2-.1.3-.3.5.2-.2.4-.2.6-.2.1 0 .2.1.3.2s.3.3.5.6l.3.3-1 .8-.1-.2c-.2-.2-.3-.3-.3-.4-.1-.1-.2-.1-.2-.1-.1 0-.1 0-.2.1-.1 0-.2.2-.4.3l-1.5 1.2.7.9zm-.3-2.6 1.5-1.2c.3-.2.4-.3.5-.4s.1-.1.1-.1c0-.1 0-.1 0-.2s-.1-.2-.2-.3-.2-.2-.2-.2c-.1 0-.1-.1-.2 0 0 0-.1 0-.2.1-.1 0-.2.2-.5.3l-1.5 1.2z"/><path d="m88.3 87c .7-.7 1.1-1.1 1.4-1.4.4-.3.8-.4 1.2-.2.3.1.6.5 1.1.9s.8.8 1 1.1c.2.4.2.8-.1 1.2-.2.3-.6.8-1.3 1.5s-1.1 1.2-1.4 1.4c-.4.3-.8.4-1.2.2-.3-.1-.7-.5-1.2-1s-.8-.8-1-1.1c-.2-.4-.2-.8.1-1.2.3-.2.8-.7 1.4-1.4zm.9.8c-.5.5-.8.8-.9 1s-.1.3 0 .4.3.4.6.7c.2.2.3.3.5.4s.4.1.6-.1c.2-.1.4-.4.8-.8s.6-.7.7-.8.2-.3.2-.4 0-.2-.1-.3-.2-.2-.4-.4-.4-.4-.5-.5-.2-.1-.3-.1-.2 0-.4.1c-.1.1-.4.3-.8.8z"/><path d="m90.7 84.6 1.4-1.9h4l .1-.1-2.7-1.9.8-1.1 3.6 2.6-1.4 1.9h-4l-.1.1 2.7 1.9-.8 1.1z"/><path d="m94.4 79.1.7-1.2 3.8 2.2-.7 1.2z"/><path d="m101.5 74.9h-.8l-1.2 2.7.5.7-.6 1.4-3.1-4 .9-1.9 5-.3zm-1.9.1-1.9.1-.1.2 1.2 1.5z"/><path d="m98.1 71.7.7-2.3 3.8-1.3v-.1l-3.2-.9.4-1.3 4.3 1.2-.6 2.3-3.8 1.3v.1l3.2.9-.4 1.3z"/><path d="m102.7 65.8.2-1.3c.2 0 .4 0 .4-.1.1-.1.1-.1.1-.2s.1-.4.2-1 .1-.9.1-1 0-.2 0-.3-.1-.2-.3-.2c-.1 0-.2 0-.3.1s-.1.2-.1.4-.1.5-.2 1-.2.9-.2 1.1c-.1.3-.1.6-.2.7-.1.2-.2.3-.3.4-.2.1-.5.2-1 .1s-.8-.2-1-.4c-.1-.2-.2-.4-.2-.7s.1-.9.2-1.8c.1-.6.2-1.1.2-1.4.1-.4.3-.7.5-.8s.5-.2.9-.1h.2l-.2 1.3c-.1 0-.2 0-.3 0 0 0-.1 0-.1.1s-.1.2-.1.3-.1.5-.1.9c-.1.6-.1.9-.1 1s .1.2.3.2.3 0 .3-.1.1-.6.3-1.4c.1-.7.2-1.2.3-1.4s.1-.4.2-.5.3-.2.4-.3h.7c.4.1.7.2.9.3.1.1.2.2.3.4s.1.4.1.6c0 .3-.1.8-.2 1.6-.1.7-.2 1.1-.3 1.5-.1.3-.2.5-.3.7s-.3.2-.4.3c-.2 0-.4 0-.7 0z"/><path d="m28 27.7-3.4-4.1 3-2.5c.5-.4.9-.7 1-.8.2-.1.4-.2.6-.4.5-.3.9-.2 1.4 0 .2.1.3.2.5.4s.4.4.6.7c.3.4.5.7.7.9.1.2.2.4.3.6.2.5.1.9-.2 1.3-.1.2-.3.4-.5.6s-.5.5-1 .8zm.4-2 1.7-1.5c.3-.3.5-.5.7-.6.1-.1.2-.3.2-.4s0-.2-.1-.4c-.1-.1-.2-.4-.4-.6-.2-.3-.4-.4-.5-.5s-.3-.2-.4-.2-.3 0-.4.1-.4.3-.8.6l-1.7 1.4z"/><path d="m36.2 20.2 1.2-.7c.2.4.2.7.1 1-.1.2-.2.5-.5.7s-.7.5-1.2.8-.8.5-1.1.6-.5.1-.7.1-.4-.1-.6-.3-.4-.5-.6-.9c-.2-.3-.3-.5-.4-.7s-.1-.3-.1-.5c0-.3.1-.6.4-.9.3-.2.7-.5 1.3-.9.5-.3.9-.5 1.2-.6.4-.2.8-.2 1.1 0 .3.1.6.5.9 1 0 .1.1.2.2.3l-3.2 1.9c.1.2.2.3.2.3.1.1.1.1.2.1.2 0 .5-.1.9-.4.3-.2.5-.3.6-.4s.2-.2.2-.3c0 0 0-.1-.1-.2zm-.5-1c-.1-.1-.1-.2-.2-.2l-.1-.1c-.2 0-.5.1-.9.3s-.7.4-.7.6c-.1.2-.1.3.1.6z"/><path d="m38.7 17.4-1.3.6c-.1-.3-.1-.5-.1-.7.1-.3.2-.5.5-.8.3-.2.8-.5 1.6-.8.6-.2 1-.4 1.2-.4s.4 0 .7.1c.2.1.3.2.4.3s.2.4.4.7l.9 2.1-1.3.4-.2-.5h-.1c0 .2-.1.5-.3.6-.1.1-.2.2-.4.3s-.5.2-.9.4c-.3.1-.6.2-.8.3-.2 0-.4 0-.6 0-.2-.1-.4-.3-.6-.7s-.2-.7-.1-1c .1-.2.3-.4.5-.5.2-.2.7-.4 1.4-.7.3-.1.5-.2.7-.2.1 0 .3 0 .4.1h.1l-.1-.2c-.1-.3-.2-.4-.4-.4-.1 0-.4 0-.8.2-.5.2-.7.3-.8.4zm1.3.6c-.4.2-.7.3-.8.4s-.1.2-.1.4c.1.1.2.2.3.2s.4-.1.7-.2c.5-.2.8-.4.9-.5s.2-.3.1-.4-.2-.2-.3-.2c0-.1-.3 0-.8.3z"/><path d="m43 17.1 1.4-.4c.1.2.2.2.3.2.2 0 .5 0 .9-.2.4-.1.7-.2.9-.3s.2-.2.2-.3-.1-.2-.3-.2c-.1 0-.5.1-1.2.3s-1.1.3-1.2.3c-.4.1-.8 0-1-.2-.2-.1-.3-.3-.4-.6-.1-.5 0-.9.3-1.2.3-.2.9-.4 1.9-.7.6-.2 1.1-.3 1.4-.3s.5 0 .7.1c.1.1.2.1.3.2s.1.3.2.5l-1.4.4c0-.1-.1-.1-.1-.1-.1 0-.4 0-.9.1-.4.1-.7.2-.9.3-.1.1-.2.2-.2.3s.2.2.4.2.8-.2 1.9-.5c.5-.1.9-.2 1.2 0 .3.1.5.4.6.8.1.3.1.5.1.7s-.1.4-.3.5c-.3.2-.9.5-2 .8-.7.2-1.1.3-1.5.3-.3 0-.6 0-.8-.1-.2-.2-.4-.5-.5-.9z"/><path d="m53.6 13.2 3.7-.2v.1c0 .8.1 1.3.1 1.7 0 .6-.3 1-1 1.2-.3.1-.6.1-.9.2-.4 0-.9.1-1.6.1-.9.1-1.6.1-1.9.1s-.7-.1-.9-.2-.3-.2-.4-.4-.2-.4-.2-.6-.1-.7-.1-1.4c0-.5 0-.9 0-1.1s0-.5.1-.7c.1-.4.4-.7.9-.8s1.4-.2 2.5-.3c.7 0 1.2-.1 1.6-.1s.7 0 1 .1c.4.1.7.4.8.8.1.2.1.5.1.9l-1.6.1c0-.2 0-.3 0-.3 0-.1-.1-.1-.1-.1-.1-.1-.3-.1-.6-.1s-.7 0-1.2.1c-.6 0-1 .1-1.2.1s-.4.1-.5.2-.1.2-.2.4v.9s.1.8.1.9c0 .2.1.3.2.4s.2.1.4.1.6 0 1.3-.1 1.2-.1 1.3-.1c.2 0 .3-.1.4-.1s.1-.1.2-.2c0-.1 0-.2 0-.3v-.1l-2.1.1z"/><path d="m63 16.5-1.3-.1.1-.6h-.1c-.1.2-.3.4-.6.5s-.6.1-1.1.1c-.4 0-.8-.1-1-.2-.3-.1-.5-.2-.6-.4-.2-.2-.2-.4-.3-.6 0-.2 0-.6 0-1.1l.2-1.7 1.4.1-.2 1.7v.6s.1.2.1.3c.1.1.2.1.3.2.1 0 .3.1.6.1.5 0 .8 0 .9-.1s.2-.2.2-.3.1-.4.1-.7l.1-1.5 1.4.1z"/><path d="m70.8 16.4 1.6.5c-.1.3-.1.4-.1.5-.1.4-.3.7-.5.9s-.5.3-.9.3-1.1-.2-2-.5c-1-.3-1.7-.5-2.1-.7s-.7-.3-.9-.5-.3-.3-.3-.5 0-.4 0-.7c0-.2.2-.7.3-1.3.2-.6.3-1 .4-1.3s.2-.4.3-.6c.2-.3.6-.4 1.1-.4s1.4.3 2.7.7c.7.2 1.1.4 1.4.5s.5.2.7.4.3.4.3.6 0 .6-.1 1c0 0 0 .1-.1.3l-1.6-.5c0-.2.1-.3.1-.3 0-.1 0-.1 0-.2s-.2-.2-.4-.3-.6-.2-1.1-.4c-.5-.1-.8-.2-1-.3-.2 0-.3 0-.4 0s-.2.2-.3.3c-.1.2-.2.4-.3.8s-.2.7-.2.8c0 .2 0 .3.1.4s.2.2.4.3.5.2 1 .3c.6.2 1 .3 1.2.3s.4 0 .4 0c .1.1.2-.1.3-.4z"/><path d="m74.5 17.3-1.3-.6c.1-.3.3-.4.5-.5.3-.1.6-.2.9-.1.4.1.9.3 1.7.7.6.3.9.5 1.1.6s.3.3.4.5.1.3 0 .5c0 .2-.1.4-.3.7l-1 2.1-1.2-.6.2-.5h-.1c-.2.2-.4.2-.7.2-.1 0-.3 0-.5-.1s-.5-.2-.9-.4c-.3-.2-.6-.3-.8-.4s-.3-.3-.3-.4c-.1-.2 0-.5.1-.9.2-.4.4-.6.7-.7.2-.1.5-.1.7 0 .3.1.8.3 1.4.6.3.1.5.3.6.4s.2.2.2.4h.1l.1-.2c.1-.3.2-.5.1-.6s-.3-.3-.7-.5c-.5-.2-.7-.3-.9-.4.1 0 0 .1-.1.2zm.4 1.3c-.4-.2-.7-.3-.8-.3-.2 0-.3.1-.3.2-.1.1-.1.3 0 .4s.3.2.7.4.8.3.9.4c.2 0 .3 0 .4-.2.1-.1 0-.3-.1-.4s-.3-.2-.8-.5z"/><path d="m79.8 17.8 1.2.8-.5.7 1.9 1.2-.5.8-1.9-1.2-.6.9c-.2.2-.2.4-.2.5s.1.3.3.4.4.2.5.1l.1-.1s.1-.1.2-.3l1.1.7c-.2.3-.4.5-.5.6s-.3.2-.4.3c-.2.1-.4.1-.7 0-.2-.1-.6-.2-1-.5-.4-.2-.7-.4-.8-.6-.2-.2-.3-.3-.3-.5 0-.1 0-.3 0-.4s.1-.3.2-.5c0-.1.1-.2.3-.5l.6-.9-.7-.4.5-.9.6.4z"/><path d="m84.1 19.8 1.1.9-1.4 1.6c.2-.1.5-.1.8 0s .6.3.9.5c.3.3.6.5.7.7s.2.4.2.7c0 .2 0 .5-.1.7s-.3.5-.6.8l-1.2 1.4-1.1-.9 1.2-1.4c.1-.2.2-.3.3-.4s.1-.2.1-.3c0-.2-.2-.5-.6-.8s-.7-.5-.9-.4c-.1 0-.2.1-.3.1-.1.1-.3.2-.4.5l-1 1.2-1.1-.8z"/><path d="m75.8 41c-.5-.1-.6-.2-.2-.7 1.5-2.1 1.3-4.2 0-6.3-.6-1-1.6-1.5-2.7-1.5-1.1-.1-2.2.1-3.1.7-.7.4-.9 1.1-1.3 1.7-.3.4-.4.6-.2 1 0 0 0 .1-.1.1-.7.2-.4.7-.3 1.1.1.2 0 .3-.2.4-.4.2-.4.4-.3.8.1.7.1 1.5.1 2.3-.1 1-.6 1.4-1.7 1.7.8.5 1.5.9 2.4.7.8-.2 1.1-.9 1.2-1.6.1-.5.2-.8.9-.7.3 0 .7-.1 1-.1 1.1-.3 1.7-1.6 1.3-2.6-.1-.2-.2-.1-.3 0-.2.1-.2.3-.4.4-.4.3-.8.6-1.3.2s-.9-1.1-.8-1.6c.2-.9 1.4-1.9 2.2-2.1.5-.1.9.2 1.3.5 1.1.8 1.3 1.7.8 2.9-.7 1.8-2 3.2-3.3 4.6-.9 1-1.7 2.1-2.1 3.4-.4 1.4-.2 2.9.2 4.3.5 1.8 1.3 3.5 1.9 5.3.5 1.4.2 2.7-.5 4-.7 1.2-1.6 1.3-2.7.4-.5-.4-.8-1-1.1-1.5-.5-1-1.2-1.8-2-2.6-1.2-1.2-2.3-2.4-3-3.9 0-.1-.1-.1-.1-.2-.1-.2-.1-.6-.4-.6s-.4.4-.5.7c-.2.5-.2 1-.3 1.5-.1.7-.5.9-1.2.6-.8-.4-1.3-1-1.8-1.7-.1-.2-.2-.5-.4-.4-.2 0-.3.3-.4.5-.1.4-.3.8-.3 1.2-.1.7-.6.9-1.2.6-1.1-.9-1.7-1.6-2-2.6-.2-.6-.5-.7-1-.4s-.8.7-1 1.1c-.4.6-.9.7-1.4.2-.7-.6-1-1.5-1-2.4 0-.6 0-.6-.5-.3-.1.1-.3.1-.4.2-.7.4-1 .3-1.4-.4-.9-1.5-.9-3.1.2-4.5.2-.2.2-.4-.1-.4s-.6-.1-.9-.2c-.6-.1-.7-.6-.4-1.1.2-.5.8-.6 1-1.1-.3-.2-.6-.2-.8-.5-.7-.5-1.3-1.2-1.8-1.9-.1-.1-.2-.2-.2-.3-.1-.1-.2-.2-.2-.3-.4-.4-.3-.8-.1-1.2 0-.1 0-.2 0-.3-.1-.1-.1-.1-.2-.2-.2-.1-.4-.2-.3-.5 0-1 .3-2 .1-2.9-.1-.4-.1-.9-.3-1.3-.2-.2-.4-.4-.5-.7-.4-.1-.8-.3-1.2-.2-.2.1-.5 0-.6.3.2.1.4.3.5.5 0 0 .1 0 .1.1.1.2.3.4.1.6-.2.1-.3-.2-.4-.2s-.1-.1-.2-.2c-.1 0-.1 0-.2 0-.3 0-.6 0-.8 0-.7 0-.7 0-.4.6.2.1.2.2.2.3.3.4.4.8.4 1.3 0 .3-.1.4-.4.2-.2 0-.3-.1-.4-.2-.2 0-.4-.1-.6-.2-.1.1-.3.1-.4 0-.1.1-.5.1-.4.4.3.1.4.4.5.7.1 0 .1.1.1.2.1.1.1.2.1.3s.1.1.1.2c-.2.6.1 1 .4 1.5.3.4 0 .5-.3.5-.3.2-.6.2-.9.1-.4-.2-.6 0-.5.4.2.2.3.4.5.6.1 0 .3.1.3.2.1 0 .3.1.3.2.2.1.4.1.6.3.5.2 1 .3 1.2.8.3 1 .1 1.2-.9 1.4-.2 0-.4.1-.6.1v.1c.1.1.2.2.2.3.2.2.5.5.8.7h1.2c.2 0 .4.1.3.4 0 .3-.2.5-.4.7-.5.4.2.6.2.9.2.2.4.3.6.5.3.1.7.2 1 .3.2 0 .4 0 .4.3v.1.2c.4.4.8.9 1.3 1.3.1 0 .2.1.3.3.3.2.6.4.8.6.1 0 .3.1.3.2.1 0 .3.1.3.2.3.1.6.2.9.4.4 0 .5.1.4.6-.5 1.6-1.6 2.8-2.8 3.7-.5.4-1.1.7-1.7 1.1-.3.2-.4.1-.7-.1-.4-.4-.9-.6-1.5-.9-1-.5-2.4.2-2.9 1.6-.1.3.1.3.4.3.4-.1.8 0 1.2.2.3.2.3.3 0 .4-.7.3-1.2.8-1.4 1.6 0 .2-.1.3 0 .5.2.2.3 0 .4-.1.5-.2.9-.1 1.4-.1.1 0 .3 0 .3.1s-.1.2-.2.3c-.6.6-.7 1.3-.5 2.1 0 .2.1.4.2.4.2.1.3-.2.4-.3.7-.7 1.4-.9 2.3-.4.4.2.3.4.1.7-.2.2-.6.3-.4.7s.6.2.9.2c.9 0 1.1-.7 1.2-1.3.2-1.1 1-1.7 1.7-2.3.1-.1.1-.2.3-.1.1.1.1.2.1.3v.4c0 .3.1.5.4.6s.3-.3.4-.4c.3-.4.6-.7.9-1.1.3-.5.5-1 .6-1.5 0-.1 0-.2.1-.3.2-.1.2.1.3.2.3.4.6.8 1.1 1.2 0-.6 0-1.1 0-1.6-.1-1.1.6-1.6 1.5-2 0-.1.1-.1.2-.1.1.2 0 .3-.1.4-.2.2-.1.4-.2.6v1c .1.1.1.3.1.4.1 0 .1.1.1.2s.1.2.1.2c.1 0 .2.1.2.2.3.2.6.4.8.6.7.2 1.3.4 1.9.7.1 0 .2 0 .2.1.1 0 .2 0 .2.1.1 0 .2 0 .3.1.1 0 .2 0 .2.1.1 0 .2.1.3.1.2.1.5.1.6.3.4.1.7.3.6.8.1.2.1.4 0 .6 0 .1-.1.2-.2.2-.4.3-.8.2-1.3.1-.3 0-.5-.1-.8-.2-.1 0-.2 0-.2 0-.2 0-.4 0-.7 0-.1 0-.3.1-.4.1 0 .1-.1.1-.2.1-.4.5-.6.7-.9.7-.1.1-.2.2-.3.2-.4.3-.6.6-.9 1.1-.3.4-.7.7-1.3.8-.3.1-.6.2-.9.3-.6.3-.8.6-.6 1.3.4 1.5.8 3.1 1.8 4.4.2.3.4.5.6.7.5.5.5 1 0 1.5-.6.7-1.2 1.3-2 1.8-.7.5-1.1.5-1.9.1-.9-.5-1.8-1.1-2.9-1.2-.6 0-1.1 0-1.7.4.4.2.8.4 1.1.7.4.3.4.5-.1.6-.7.2-1.3.5-1.9.9-.1.1-.3.1-.3.3s.3.2.4.2c.5.1 1 .4 1.4.7.3.2.4.4 0 .7-.6.5-.9 1.1-.9 1.9 0 .2 0 .4.3.2.8-.5 1.7-.3 2.5.1.3.1.3.3.1.5-.1.1-.2.3-.3.4-.1.3-.6.4-.3.7s.8.5 1.2.3c1-.5 1.8-1.1 2.5-2 .3-.4.6-.7 1.1-.9.3-.1.6 0 .7.3.1.5.4.3.7.2.9-.5 1.6-1.1 2.1-2.1.1-.3.3-.4.5-.1.2.2.3.1.4-.1.7-1.3 1.3-2.6 1.3-4.2 0-.1 0-.2 0-.3.4-.5.1-.8-.2-1.1-.6-.9-.9-2-1.2-3-.1-.2-.1-.5.1-.7s.4 0 .6.1c1 .3 2 .6 3.1.7.4.1.8 0 1.2-.2.4-.3 1-.3 1.4-.3s.8.1.9.6c.2.9.5 1.7 1.4 2 .7.3 1.4.6 1.9 1.1 1.4 1.3 1.5 2 .5 4.1-.3.7-.9 1.2-1.5 1.7-.3.2-.6.2-.9 0-1.5-1-2.9-.8-4.3.4.6.2 1.1.4 1.6.7.4.3.4.4 0 .6-.5.5-1 .9-1.5 1.4-.2.2-.4.5-.5.7s-.1.3 0 .5.3 0 .4 0c .6-.1 1.1-.1 1.7.2.2.1.4.2.3.5-.5.8-.6 1.7-.3 2.6h.3c0-.1.1-.2.2-.3.7-.4 1.4-.9 2.1-1.3.8-.4 1.1-.4 1.3.7.1.6.2.7.8.6s1-.5 1.3-1.1c.5-1 .7-2.1.6-3.2 0-.5.1-.5.5-.3.2.1.5.2.6.5.3.5.4.2.6 0 .8-1 .9-2.2.9-3.4 0-.2-.2-.5.1-.6s.5.2.6.4c.2.6.4.3.6.1.6-.6.6-1.2.3-1.9-.2-.5-.4-.9-.7-1.4s-.2-.8.3-1c .4-.2.8-.3.9-.9.1-.8-.1-1.5-.8-2-.1-.1-.2-.1-.3-.1-1.7-.1-2.7-1.6-2.1-3.2.4-1.2 1-2.3 1.5-3.4.1-.2.3-.4.6-.5.8-.2 1.6-.4 2.4-.8 1.1-.6 1.5-1.4 1.5-2.6 0-.2 0-.5.2-.7.1-.1.1-.4.1-.6 0-.4-.1-.7-.1-1.1-.1-1.7.8-2.8 2.4-3.3.7-.2.8-.5.2-1-.1-.2-.3-.2-.5-.3-.1 0-.2-.1-.3-.1-.5-.5-.7-.6-1.5-.5-.2 0-.4.2-.6 0s0-.5.1-.7c.3-.7.8-.9 1.5-.8.1 0 .3.1.4-.1s-.1-.3-.2-.4c-.6-1-1.5-1.3-2.6-1-.2 0-.4.2-.4 0-.1-.2.2-.3.3-.4.6-.4 1.3-.4 2-.3.2 0 .3.2.4-.1.1-.2-.1-.3-.2-.4-.7-.9-1.6-1.6-2.9-1.3-.3.1-.4-.2-.4-.4-.1-.7.5-1.3 1.3-1.4 1.3-.1 2.4.3 3.5 1.1.1.1.2.3.4.2.1-.1.1-.2.1-.4 0-1.6-.8-2.6-2.3-2.9-.1 0-.3 0-.3-.2s.2-.2.3-.2c1-.4 1.8-.1 2.6.4.3.2.5.4.8.6.3.3.4.3.5-.2.3-1.2-.4-2.3-1.6-2.7z" stroke="#fff" stroke-miterlimit="10"/><path d="m54.7 30v-.1z" stroke="#fff" stroke-miterlimit="10"/><path d="m45.3 44.3c.3.1.6.1.9.2h.2c.3.1.6.3.8.4s.3.2 0 .4c-1.5 1.1-1.6 2.9-.7 4.5.1.2.3.3.5.1.4-.3.9-.5 1.4-.5s.6.2.5.6c-.2.8 0 1.5.5 2.2.5.6.6.6 1-.1.6-.7 1.2-1.3 2.2-1.2.3 0 .5.1.5.5 0 .6.3 1.1.7 1.5 0 .1.1.2.2.2.1.1.2.3.3.4.4.4.5.3.7-.2.2-.8.5-1.5 1.1-2 .4-.3.5-.3.7.2.4.8 1 1.5 1.7 2.1.3.2.6.3.6-.2 0-.4.2-.7.2-1.1 0-.1 0-.2 0-.2.1-.1.2-.3.2-.4 0 0 0-.1.1-.1.3-.3.5-.6.8-.9.1 0 .1 0 .1-.1.3-.2.5-.5.5-.9 0-.1 0-.2.1-.2.1-.4.4-.2.6-.2.1.1.1.1.2.1.2.1.4.2.6.2.3.1.7.2.9-.1 0-.2-.2-.3-.3-.4-.3-.7-.8-1.4-.5-2.2.1-.1.1-.1.1-.2.1-.3.1-.6 0-.9 0-.1 0-.2 0-.3s0-.2-.1-.3c0-.1-.1-.1-.1-.2.1-.1.1-.3.3-.2s.5.1.8.1c.1.1.2.1.4 0 .3.1.7.3 1 0 .2-.2-.2-.4-.3-.6l-.1-.1c-.1-.2-.1-.4-.3-.5 0-.1-.1-.2-.2-.3 0-.1 0-.1 0-.2-.1-.3-.2-.6-.4-.9v-.1c-.1-.2-.2-.5-.4-.7 0 0 0-.1-.1-.1 0-.2-.2-.3-.1-.4s.3.1.4.1c0 .1.1.1.1.1.4.2.7.3 1.2.3.3 0 .5-.1.3-.5 0-.1 0-.2-.2-.3 0-.1-.1-.2-.2-.3 0 0 0-.1-.1-.1-.2-.5-.4-1-.6-1.5 0-.2 0-.3 0-.5.2-.2.2-.4 0-.6 0-.3.1-.7-.1-1 0-.5-.2-1-.4-1.4 0-.2-.2-.3-.3-.5 0-.1-.1-.2-.2-.2 0-.1-.1-.2-.2-.2-.1-.3-.6-.2-.7-.6.3-.1.4-.3.5-.6.1 0 .1-.1.1-.2.1-.1.1-.1 0-.2.2-.6.3-1.3-.1-1.9 0-.1-.1-.2-.2-.2-.1-.2-.3-.2-.4-.1-.1 0-.1 0-.2 0-.4 0-.8 0-.5-.6.1-.1 0-.3-.1-.4 0-.1 0-.2-.1-.3-.1-.3.2-.7-.2-1-.1 0-.1 0-.1 0-.2.2-.4.3-.6.5-.2.1-.3.2-.4.3-.1 0-.2.1-.2.2-.1 0-.1 0-.2.1-.2.2-.4.1-.6.1-.1 0-.2.1-.2.1 0 .1-.1.2-.1.3-.2.5-.5.6-1.2.3-.1 0-.2 0-.2-.1-.1 0-.1 0-.2 0-.1-.1-.1-.1-.2-.1v-.1c-.1 0-.2 0-.3-.1-.4 0-.8 0-1.2 0-.1.1-.1.1-.2.1-.1.1-.1.1-.2.1v.1h.2c-.1 0-.2 0-.2 0-.2.2 0 .6-.3.8-.1.1-.2.2-.2.2-.2 0-.4 0-.6.1-.1 0-.1 0-.2-.1-.1.1-.1.1-.2.1l-.1.1c-.2-.1-.3 0-.4.1-.1 0-.2 0-.3 0l-.1.1c-.2-.1-.4-.1-.7 0-.2-.1-.4-.1-.6 0-.1 0-.1-.1-.2-.1-.1.1-.3.2-.4.3-.4.2-.5.5-.5.9.1.5.1 1 .2 1.4s.3.6.7.6c.8.1 1.7 0 2.5.2.6.2.8.4.6 1-.2.8-.5 1.5-1.5 1.6-.5 0-1-.1-1.6-.1-.1 0-.1 0-.2 0-.3.1-.3.2-.3.5v1.8c0 .5.3.6.7.4.5-.2.9-.6 1.5-.3.1.1.3 0 .5 0 .2.2.6 0 .8.2.5-.1 1 0 1.4 0v-.1c.2 0 .4.1.7 0 .1 0 .2 0 .2-.1.9-.1 1.5-.8 2.1-1.4l.1.1c-.5.9-1.3 1.4-2.2 1.7-.6.2-1.1.4-1.8.4-.1 0-.2 0-.2 0-1.8.3-3.6.6-5.3 1.5-.1.1-.2.1-.3.2-.1 0-.2 0-.3.2h-.1c0 .1-.1.1-.1.1-.2.2-.4.3-.7.4-.1.1-.2.2-.2.3h-.1c-.4.3-.7.6-1.1.8-.1.2-.2.2-.3.3 0-.6-.5-.5-.4 0z" stroke="#fff" stroke-miterlimit="10"/><path d="m47.3 32.9c.5 0 .8.2.9.8.1.1.1.1.1.2.1.2.1.4.1.6.1.1.2.2.1.3.2.4.6.7.9 1 .1 0 .2.1.3.2.1 0 .2.1.2.2h.3c0-.3.3-.2.4-.3h.2l.1.1h.8.7c.6 0 .9-.3 1-.9 0 0 0 0-.1 0h-.1.1.1c.2-.2.4-.4 0-.5-.5-.1-1.1-.3-1.7-.2-.5.1-.9.1-1.4.2 0 0 0 0-.1 0-.1-.1-.2-.3-.3-.4-.7-.7-1.5-1.3-2.2-2-.1 0-.2 0-.3 0s-.1 0-.2.1c0 .1-.1.1-.1.2s.1.2.1.3c0-.1 0 0 .1.1z" stroke="#fff" stroke-miterlimit="10"/></g><path d="m58.8 86c-.1 0-.2 0-.3 0-.3-.9-.1-1.8.3-2.6.1-.2-.1-.4-.3-.5-.5-.3-1.1-.3-1.7-.2-.1 0-.3.2-.4 0-.1-.1 0-.3 0-.5.1-.3.3-.5.5-.7.5-.5 1-.9 1.6-1.2.4-.2.4-.3 0-.6-.5-.3-1-.5-1.6-.7 1.4-1.2 2.8-1.4 4.3-.4.4.2.6.2.9 0 .6-.4 1.2-1 1.5-1.7 1-2.1.9-2.9-.5-4.1-.6-.5-1.2-.8-1.9-1.1-.9-.3-1.2-1.2-1.4-2-.1-.7-.4-.8-.9-.8s-1 .1-1.4.3-.8.2-1.2.2c-1-.1-2.1-.4-3.1-.7-.2-.1-.4-.3-.6-.1s-.2.5-.1.7c.4 1 .7 2 1.2 3 .2.4.6.7.2 1.1v.3c.1 1.5-.5 2.9-1.3 4.2-.1.2-.2.3-.4.1-.2-.3-.3-.1-.5.1-.5.9-1.2 1.6-2.1 2.1-.3.1-.5.3-.7-.2-.1-.3-.3-.4-.7-.3-.5.2-.8.5-1.1.9-.6.9-1.5 1.6-2.5 2-.5.2-.9 0-1.2-.3s.2-.4.3-.7c0-.2.2-.3.3-.4.2-.3.2-.4-.1-.5-.8-.3-1.7-.5-2.5-.1-.3.2-.3 0-.3-.2 0-.8.3-1.4.9-1.9.3-.3.3-.5 0-.7-.4-.3-.9-.5-1.4-.7-.1 0-.4 0-.4-.2s.2-.2.3-.3c.6-.4 1.2-.7 1.9-.9.5-.2.5-.3.1-.6-.3-.2-.7-.4-1.1-.7.6-.4 1.1-.4 1.7-.4 1.1.1 2 .6 2.9 1.2.8.5 1.1.5 1.9-.1.7-.5 1.4-1.2 2-1.8.5-.5.5-.9 0-1.5-.2-.2-.4-.5-.6-.7-1-1.3-1.4-2.8-1.8-4.4-.2-.7 0-1 .6-1.3.3-.1.6-.3.9-.3.6-.1 1-.4 1.3-.9.2-.4.5-.8.9-1.1.2 0 .2-.1.3-.2.3 0 .5-.2.7-.3.1 0 .2 0 .2-.1.1 0 .3-.1.4-.1.2 0 .4.1.7 0h .2c.3.1.5.1.8.2.4 0 .9.2 1.3-.1.1 0 .2-.1.2-.2.2-.2.1-.4 0-.6.1-.5-.3-.7-.6-.8-.2-.2-.4-.3-.6-.3-.1 0-.2-.1-.3-.1 0-.1-.1-.1-.2-.1-.1-.1-.2-.1-.3-.1 0-.1-.1-.1-.2-.1-.1-.1-.1-.1-.2-.1-.6-.3-1.2-.5-1.9-.7-.3-.2-.6-.4-.8-.6 0-.1-.1-.2-.2-.2 0-.1-.1-.2-.1-.2 0-.1 0-.2-.1-.2 0-.2 0-.3-.1-.4 0-.3 0-.7 0-1 .2-.2 0-.4.2-.6.1-.1.2-.2.1-.4 0 0-.1 0-.2.1-.8.4-1.5.9-1.5 2v1.6c-.5-.4-.8-.8-1.1-1.2-.1-.1-.2-.2-.3-.2s-.1.2-.1.3c0 .6-.2 1.1-.6 1.5-.3.4-.6.7-.9 1.1-.1-.1-.1.3-.4.2s-.4-.3-.4-.6c0-.1 0-.3 0-.4s0-.2-.1-.3-.2 0-.3.1c-.7.7-1.5 1.2-1.7 2.3-.1.6-.4 1.3-1.2 1.3-.3 0-.7.2-.9-.2s.2-.5.4-.7c.2-.3.3-.5-.1-.7-.9-.5-1.6-.4-2.3.4-.1.1-.1.3-.4.3-.2-.1-.2-.2-.2-.4-.2-.8-.1-1.5.5-2.1.1-.1.2-.2.2-.3-.1-.2-.2-.1-.3-.1-.5 0-1-.1-1.4.1-.1 0-.3.2-.4.1s0-.3 0-.5c.2-.8.7-1.3 1.4-1.6.3-.1.3-.2 0-.4-.4-.2-.8-.3-1.2-.2-.2.1-.5.1-.4-.3.4-1.4 1.8-2.1 2.9-1.6.5.2 1 .5 1.5.9.2.2.4.2.7.1.6-.4 1.2-.7 1.7-1.1 1.3-1 2.3-2.1 2.8-3.7.1-.4 0-.6-.4-.6-.3-.2-.6-.3-.9-.4-.1-.1-.2-.2-.3-.2-.1-.1-.2-.2-.3-.2-.3-.2-.5-.5-.8-.6-.1-.1-.2-.2-.3-.3-.4-.4-.8-.9-1.3-1.3 0-.1 0-.2 0-.2v-.1c0-.3-.2-.2-.4-.3-.3-.1-.7-.2-1-.3-.2-.2-.4-.3-.6-.5-.1-.3-.7-.4-.2-.9.3-.1.4-.4.4-.7.2-.3 0-.4-.3-.4-.4 0-.8 0-1.2 0-.3-.2-.5-.5-.8-.7 0-.2-.1-.2-.2-.3v-.1c.2 0 .4-.1.6-.1 1-.1 1.2-.4.9-1.4-.2-.5-.8-.6-1.2-.8-.1-.2-.4-.2-.6-.3-.1-.2-.2-.2-.3-.2-.1-.2-.2-.2-.3-.2-.2-.2-.3-.4-.5-.6-.1-.4.1-.6.5-.4.3.1.6.1.9-.1.3 0 .6-.1.3-.5-.3-.5-.6-.9-.4-1.5 0 0 0-.1-.1-.2 0-.1 0-.2-.1-.3 0-.1 0-.2-.1-.2-.1-.3-.2-.5-.5-.7-.1-.4.3-.3.4-.4.1.1.3.1.4 0 .2.2.3.2.6.2.1.1.2.2.4.2.3.2.4.1.4-.2 0-.5-.1-.9-.4-1.3 0-.1 0-.3-.2-.3-.3-.6-.3-.6.4-.6h.8.2l.2.2c.2.1.3.4.4.2.2-.2 0-.4-.1-.6 0 0-.1 0-.1-.1-.1-.3-.2-.4-.5-.5.1-.3.3-.3.6-.3.4-.1.8.1 1.2.2.2.2.4.4.5.7.1.4.2.8.3 1.3.2 1 0 2-.1 2.9-.1.3.1.4.3.5l.2.2c0 .1-.1.2 0 .3-.2.4-.3.8.1 1.2 0 .1.1.2.2.3 0 .1.1.3.2.3.5.7 1.1 1.3 1.8 1.9.2.3.5.4.8.5-.2.4-.8.6-1 1.1-.4.5-.2 1 .4 1.1.3.1.6.2.9.2.4.1.3.2.1.4-1.1 1.5-1.1 3-.2 4.5.4.7.7.8 1.4.4.1-.1.3-.1.4-.2.5-.2.5-.2.5.3 0 .9.3 1.8 1 2.4.5.5 1 .4 1.4-.2.3-.4.6-.9 1-1.1.5-.3.8-.2 1 .4.3.9.9 1.7 1.8 2.2.6.3 1.1.1 1.2-.6.1-.4.2-.8.3-1.2.1-.2.2-.5.4-.5s.3.3.4.4c.5.7 1 1.3 1.8 1.7.7.3 1.1.1 1.2-.6.1-.5.2-1 .3-1.5.1-.3.2-.7.5-.7s.2.4.4.6c0 .1.1.1.1.2.7 1.5 1.8 2.8 3 3.9.8.8 1.5 1.6 2 2.6.3.6.6 1.1 1.1 1.5 1.1.9 2.1.8 2.7-.4.7-1.2.9-2.6.5-4-.6-1.8-1.4-3.5-1.9-5.3-.4-1.4-.5-2.8-.2-4.3.4-1.3 1.2-2.4 2.1-3.4 1.3-1.4 2.5-2.8 3.3-4.6.5-1.2.3-2.1-.8-2.9-.4-.3-.8-.5-1.3-.5-.9.1-2 1.2-2.2 2.1-.1.5.2 1.2.8 1.6.5.4.9 0 1.3-.2.2-.1.2-.3.4-.4.1-.1.3-.2.3 0 .4 1-.3 2.4-1.3 2.6-.3.1-.7.2-1 .1-.6-.1-.8.2-.9.7-.1.7-.4 1.4-1.2 1.6-.9.2-1.6-.2-2.4-.7 1.2-.3 1.6-.7 1.7-1.7.1-.8.1-1.5-.1-2.3-.1-.4-.1-.6.3-.8.2-.1.2-.2.2-.4-.1-.4-.4-.9.3-1.1l.1-.1c-.2-.4-.1-.7.2-1 .4-.6.6-1.3 1.3-1.7 1-.6 2-.7 3.1-.7 1.2.1 2.2.5 2.7 1.5 1.3 2.2 1.5 4.2 0 6.3-.3.4-.2.6.2.7 1.3.4 1.9 1.5 1.7 2.8-.1.4-.2.4-.5.2-.2-.2-.5-.4-.8-.6-.8-.5-1.7-.8-2.6-.4-.1 0-.3.1-.3.2 0 .2.2.1.3.2 1.5.3 2.3 1.3 2.3 2.9 0 .1.1.3-.1.4s-.3-.1-.4-.2c-1-.7-2.2-1.1-3.5-1.1-.8.1-1.4.6-1.3 1.4 0 .3.1.5.4.4 1.3-.3 2.1.4 2.9 1.3.1.1.3.2.2.4s-.3.1-.4.1c-.7 0-1.4 0-2 .3-.1.1-.4.2-.3.4s.3.1.4 0c1.1-.3 2 0 2.6 1 .1.1.2.2.2.4-.1.2-.3.1-.4.1-.7-.1-1.2.2-1.5.8-.1.2-.3.4-.1.7.2.2.4 0 .6 0 .8-.1 1-.1 1.5.5.1.1.2.1.3.1.2.1.4.1.5.3.5.5.4.8-.2 1-1.6.4-2.5 1.6-2.4 3.3 0 .4.1.7.1 1.1 0 .3.1.5-.1.8-.2.2-.2.4-.2.7 0 1.1-.4 2-1.5 2.6-.8.4-1.6.6-2.4.8-.3.1-.5.2-.6.5-.6 1.1-1.1 2.2-1.5 3.4-.5 1.6.4 3.1 2.1 3.2.1 0 .2 0 .3.1.7.5.9 1.1.8 2-.1.6-.5.7-.9.9-.5.3-.6.5-.3 1 .2.5.5.9.7 1.4.3.7.3 1.3-.3 1.9-.2.2-.4.5-.6-.1-.1-.2-.3-.5-.6-.4s-.1.4-.1.6c-.1 1.2-.2 2.4-.9 3.4-.2.3-.4.5-.6 0-.1-.2-.4-.3-.6-.5-.4-.2-.5-.1-.5.3.1 1.1-.1 2.2-.6 3.2-.3.5-.7.9-1.3 1.1-.7.1-.7.1-.8-.6-.2-1.1-.5-1.1-1.3-.7-.7.4-1.4.8-2.1 1.3z" fill="#e11417"/><path d="m63.5 40.6c0 .1.1.1 0 0 .5.3.8.4 1.3.4.3 0 .5-.1.3-.5 0-.1 0-.2-.2-.3 0-.1-.1-.2-.2-.3 0 0 0-.1-.1-.1-.2-.5-.4-1-.6-1.5 0-.2 0-.3 0-.5.2-.2.2-.4 0-.6 0-.3.1-.7-.1-1 0-.5-.2-1-.4-1.4 0-.2-.2-.3-.3-.5 0-.1-.1-.2-.2-.2 0-.1-.1-.2-.2-.2-.1-.3-.6-.2-.7-.6.3-.1.4-.3.5-.6.1 0 .1-.1.1-.2.1-.1.1-.1 0-.2.2-.6.3-1.3-.1-1.9 0-.1-.1-.2-.2-.2-.1-.2-.3-.2-.4-.1-.1 0-.1 0-.2 0-.4 0-.8 0-.5-.6.1-.1 0-.3-.1-.4 0-.1 0-.2-.1-.3-.1-.3.2-.7-.2-1-.1 0-.1 0-.1 0-.2.2-.4.3-.6.5-.2.1-.3.2-.4.3-.1 0-.2.1-.2.2-.1 0-.1 0-.2.1-.2.2-.4.1-.6.1-.1 0-.2.1-.2.1 0 .1-.1.2-.1.3-.2.5-.5.6-1.2.3-.1 0-.2 0-.2-.1-.1 0-.1 0-.2 0-.1-.1-.1-.1-.2-.1v-.1c-.1 0-.2 0-.3-.1-.4 0-.8 0-1.2 0-.1.1-.1.1-.2.1-.1.1-.1.1-.2.1v.1h.2c-.1 0-.2 0-.2 0-.2.2 0 .6-.3.8-.1.1-.2.2-.2.2-.2 0-.4 0-.6.1-.1 0-.1 0-.2-.1-.1.1-.1.1-.2.1l-.1.1c-.2-.1-.3 0-.4.1-.1 0-.2 0-.3 0l-.1.1c-.2-.1-.4-.1-.7 0-.2-.1-.4-.1-.6 0-.1 0-.1-.1-.2-.1-.1.1-.3.2-.4.3-.4.2-.5.5-.5.9.1.5.1 1 .2 1.4s.3.6.7.6c.8.1 1.7 0 2.5.2.6.2.8.4.6 1-.2.8-.5 1.5-1.5 1.6-.5 0-1-.1-1.6-.1-.1 0-.1 0-.2 0-.3.1-.3.2-.3.5v1.8c0 .5.3.6.7.4.5-.2.9-.6 1.5-.3.1.1.3 0 .5 0 .2.2.6 0 .8.2.5-.1 1 0 1.4 0v-.1c.2 0 .4.1.7 0 .1 0 .2 0 .2-.1.9-.1 1.5-.8 2.1-1.4l.1.1c-.5.9-1.3 1.4-2.2 1.7-.6.2-1.1.4-1.8.4-.1 0-.2 0-.2 0-1.8.3-3.6.6-5.3 1.5-.1.1-.2.1-.3.2-.1 0-.2 0-.3.2h-.1c0 .1-.1.1-.1.1-.2.2-.4.3-.7.4-.1.1-.2.2-.2.3h-.1c-.4.3-.7.6-1.1.8-.1.2-.2.2-.3.3-.1.3-.6.4-.5.8.3.1.6.1.9.2h.2c.3.1.6.3.8.4s.3.2 0 .4c-1.5 1.1-1.6 2.9-.7 4.5.1.2.3.3.5.1.4-.3.9-.5 1.4-.5s.6.2.5.6c-.2.8 0 1.5.5 2.2.5.6.6.6 1-.1.6-.7 1.2-1.3 2.2-1.2.3 0 .5.1.5.5 0 .6.3 1.1.7 1.5 0 .1.1.2.2.2.1.1.2.3.3.4.4.4.5.3.7-.2.2-.8.5-1.5 1.1-2 .4-.3.5-.3.7.2.4.8 1 1.5 1.7 2.1.3.2.6.3.6-.2 0-.4.2-.7.2-1.1 0-.1 0-.2 0-.2.1-.1.2-.3.2-.4 0 0 0-.1.1-.1.3-.3.5-.6.8-.9.1 0 .1 0 .1-.1.3-.2.5-.5.5-.9 0-.1 0-.2.1-.2.1-.4.4-.2.6-.2.1.1.1.1.2.1.2.1.4.2.6.2.3.1.7.2.9-.1 0-.2-.2-.3-.3-.4-.3-.7-.8-1.4-.5-2.2.1-.1.1-.1.1-.2.1-.3.1-.6 0-.9 0-.1 0-.2 0-.3s0-.2-.1-.3c0-.1-.1-.1-.1-.2.1-.1.1-.3.3-.2s.5.1.8.1c.1.1.2.1.4 0 .3.1.7.3 1 0 .2-.2-.2-.4-.3-.6l-.1-.1c-.1-.2-.1-.4-.3-.5 0-.1-.1-.2-.2-.3 0-.1 0-.1 0-.2-.1-.3-.2-.6-.4-.9v-.1c-.1-.2-.2-.5-.4-.7 0 0 0-.1-.1-.1 0-.2-.2-.3-.1-.4.2-.9.4-.7.5-.7z" fill="#e11417"/><path d="m47.3 33c .5 0 .8.2.9.8.1.1.1.1.1.2.1.2.1.4.1.6.1.1.2.2.1.3.2.4.6.7.9 1 .1 0 .2.1.3.2.1 0 .2.1.2.2h.3c0-.3.3-.2.4-.3h.2l.1.1h.8.7c.6 0 .9-.3 1-.9 0 0 0 0-.1 0h .1c.2-.2.4-.4 0-.5-.5-.1-1.1-.3-1.7-.2-.5.1-.9.1-1.4.2 0 0 0 0-.1 0-.1-.1-.2-.3-.3-.4-.7-.7-1.5-1.3-2.2-2-.1 0-.2 0-.3 0s-.1 0-.2.1c0 .1-.1.1-.1.2s.1.2.1.3c0-.1 0 0 .1.1z" fill="#e11417"/><path d="m56.9 30.3s-.8-.1-.8 0-.1.3-.1.5 0 .2.1.3 0 .1.2.2.4.2.5 0-.1-.3.1-.3.3.2.2-.1c-.2-.4-.2-.6-.2-.6z"/></svg>