<svg enable-background="new 0 0 113.4 113.4" viewBox="0 0 113.4 113.4" xmlns="http://www.w3.org/2000/svg"><circle cx="56.7" cy="56.7" fill="#fff" r="56.7"/><circle cx="56.7" cy="55" fill="#fff" r="53.8"/><path d="m112.2 58.1c0 24.4-18.3 47.2-43.5 52.6-30 6.5-59.1-11.8-66.1-41.6-7-29.6 11.3-59.5 41.4-66.7 1.7-.4 2.6-.1 3 1.1.5 1.3-.1 2.5-1.5 3.1-1.8.8-3.7 1.4-5.5 2.2-14.4 6.5-23.2 17.6-25.6 33.2-3.6 22.9 12.1 44.5 34.8 48.5 23.3 4.1 45.6-11.3 49.9-34.6 3.8-21.1-8.6-41.9-29.1-48.5-.7-.2-1.3-.5-2-.8-1.4-.7-1.9-1.8-1.4-3.1.4-1.1 1.3-1.5 2.9-1.1 3 .7 6 1.6 8.9 2.9 18 8 29 21.7 33.1 40.9.5 3.4.7 6.9.7 11.9z" fill="#050302"/><path d="m52.8 85.1c-11.9-1.8-21.2-7.3-27.5-17.4-6.7-10.9-7.3-22.4-2.5-34.5 10.1 17.4 20 34.5 30 51.9z" fill="#030200"/><path d="m26.7 25.3c7.5-9.4 17-14.7 28.8-15 12.8-.4 23.1 4.9 31.1 15.2-8.7 2.8-29.9 10.1-29.9 10.1s-20.1-6.9-30-10.3z" fill="#030200"/><path d="m60.6 85.1c10-17.4 19.9-34.5 29.8-51.6 4.2 7.9 5.2 21.7-1.8 33.4-6.3 10.4-15.7 16.3-28 18.2z" fill="#030200"/><g fill="#fff"><path d="m29.7 97.9c.1-.1.1-.2.2-.3.2.1.4.2.5.2s.3 0 .4-.1.2-.2.3-.3.2-.3.3-.5.2-.4.3-.7c.1-.4.2-.6.4-1-1-.7-1.5-1.1-2.5-2-.3.2-.4.3-.7.4-.3.2-.6.4-.7.5-.2.1-.3.2-.4.4-.2.2-.3.5-.3.7s.1.4.4.7c-.1.1-.1.2-.2.3-1-.8-1.5-1.2-2.4-2.1.1-.1.2-.2.3-.3.2.2.5.2.9.1.3-.1.8-.2 1.3-.5 3.2-1.7 4.7-2.7 7.5-4.8.3.2.4.3.7.5-1.4 3.2-2 4.9-3.1 8.3-.1.4-.2.7-.2.9s0 .4 0 .6.1.3.3.5c-.1.1-.1.2-.2.3-1.4-.6-2-1-3.1-1.8zm.4-4.9c.9.7 1.3 1.1 2.2 1.7.7-1.9 1.1-2.9 2-4.7-1.6 1.2-2.4 1.8-4.2 3z"/><path d="m35.2 102.4c-.6.4-1.2.9-1.7 1.3-.5-.3-.8-.4-1.3-.7.1-.1.1-.2.2-.3.3-.1 1.1-.5 2.1-1.1 1.3-.8 1.9-1.2 3-2 .2-1.2.4-2.2.4-2.8.1-.6.1-1 .1-1.2s-.1-.4-.3-.4c-.1-.1-.3-.1-.6 0 0-.2 0-.3 0-.5.6-.2 1.1-.2 1.4 0 .4.2.5.5.5 1s-.2 1.7-.6 3.4c.7-.6 1-.9 1.7-1.6.7-.6 1.1-1.1 1.4-1.4.4.2.7.3 1.1.4-.1.1-.1.2-.1.3-.3.2-.8.7-1.7 1.4-.9.8-1.4 1.2-2.4 1.9-.3 2-.4 3.3-.3 3.9s.2.9.6 1.1c.2.1.4.1.7 0 .1.2.1.3.1.5-.7.2-1.2.3-1.6.1-.5-.2-.8-.6-.9-1.2-.1-.5.1-1.9.6-3.9-1.1.8-1.5 1.1-2.4 1.8z"/><path d="m44.9 97.4c.4.1.6.2 1 .3-.6 2.1-.9 3.1-1.4 5.2-.2.8-.1 1.3.4 1.4.2.1.5 0 .8-.1.1.2.1.3.2.5-.6.3-1.1.4-1.6.3-1-.3-1.3-1-.9-2.3.5-2.2.9-3.2 1.5-5.3z"/><path d="m47.6 105.2c.5-.5 1-1.1 1.5-1.8 1.2-1.8 1.7-2.7 2.6-4.5-.1-1-.2-1.8-.3-2.2s-.3-.7-.7-.7c-.3 0-.6.1-1 .5-.1-.2-.1-.3-.2-.5.6-.7 1.2-1 1.6-.9.3 0 .6.2.7.5.2.3.3.7.3 1.4.1.6.2 1.8.3 3.5.2 2.3.4 3.7.6 4.3s.4.9.7.9c.2 0 .4-.1.6-.2.1.2.2.3.3.5-.5.4-.9.6-1.3.5-.5 0-.9-.3-1.1-1-.2-.6-.4-2.2-.5-4.8-.9 1.7-1.8 3.4-2.9 5.2-.6-.1-.9-.1-1.4-.2.2-.3.2-.4.2-.5z"/><path d="m56.4 105.9c.4-.6.8-1.3 1.1-2.1.8-2 1.1-3 1.7-5-.3-1-.5-1.7-.7-2.1s-.5-.6-.8-.6-.6.2-.9.7c-.1-.2-.2-.2-.3-.4.5-.8.9-1.2 1.4-1.2.3 0 .6.1.8.3.2.3.4.7.6 1.3s.5 1.7 1 3.4c.6 2.2 1.1 3.5 1.4 4.1.3.5.6.8.9.8.2 0 .4-.1.5-.3.1.2.2.2.3.4-.4.5-.8.7-1.2.8-.5.1-.9-.2-1.2-.7-.3-.6-.8-2.1-1.4-4.6-.5 1.8-1.1 3.7-1.8 5.7-.6 0-.9 0-1.4 0 0-.3 0-.3 0-.5z"/><path d="m70.4 102.6c-.5 1.1-1.4 1.8-2.5 2.1-.8.2-1.4.2-1.9 0s-.8-.7-1-1.3c-.1-.4-.1-.9.1-1.3s.5-.8 1-1.1c0 0 0 0 0-.1-1 0-1.6-.5-1.8-1.4-.1-.5 0-1 .3-1.4s.8-.7 1.5-.9c.5-.1 1.1-.2 1.9-.2.2.5.3.7.4 1.2-.2.1-.4.1-.6.2-.5-.6-1-.8-1.6-.7-.3.1-.5.3-.7.5-.1.3-.2.6-.1.9.1.4.3.7.6.9.3.1.8.1 1.4-.1.1 0 .2-.1.4-.1.1.3.2.5.3.8-.2.1-.3.1-.6.2-.6.2-.9.4-1.2.7-.2.3-.3.7-.2 1.1.2.9.8 1.2 1.8.9.7-.2 1.3-.7 1.8-1.5.4.3.5.4.7.6z"/><path d="m70.3 97c-.2-.1-.2-.2-.4-.3.2-.6.5-.9.8-1.1.3-.1.6-.1.9.1s.6.6.9 1.3c.4.8.6 1.3 1 2.1.7 1.5 1.6 2 2.5 1.5.5-.3.8-.7.8-1.3s-.2-1.2-.6-2c-.8-1.4-1.6-2.3-2.4-2.6-.1-.1-.1-.2-.2-.4.4-.2.6-.3 1-.6.8.6 1.5 1.5 2.2 2.6.6 1 .9 2 .8 3s-.6 1.7-1.5 2.2c-.8.4-1.5.5-2.1.1-.6-.3-1.1-1-1.6-2-.4-.8-.5-1.2-.9-2-.2-.6-.4-.9-.5-1s-.2-.1-.3-.1c-.2.1-.3.2-.4.5zm1.5-6.3c.1.1.1.2.2.3.1 1.3.2 1.9.2 3.2-.2 0-.3 0-.5-.1-.3-1.2-.4-1.8-.7-3 .3-.2.5-.2.8-.4z"/><path d="m81 89.2 1 1c-.2.2-.4.3-.6.6-.7-.4-1.2-.4-1.7 0-.3.3-.5.7-.4 1.2.1.6.4 1.2.9 1.8s.9 1 1.4 1.2 1.1.1 2-.2c.6-.2 1-.3 1.4-.3s.7.2.9.5c.3.4.5.9.5 1.5s-.1 1.4-.4 2.3c-.3 0-.4-.1-.7-.1.3-1.2.2-2-.2-2.5-.2-.2-.4-.3-.6-.3s-.5 0-.8.2c-1.1.4-2 .5-2.6.3-.7-.2-1.2-.7-1.8-1.4-.6-.8-.9-1.7-.8-2.5 0-.9.4-1.5 1-2.1.4-.6.9-.9 1.5-1.2z"/></g><path d="m64.4 6.9-7.4 12.7-7.4-12.7z"/><path d="m64.5 18.3-6.4 11.1c-.4.7-1.4.7-1.8 0l-6.4-11.1c-.4-.7.1-1.6.9-1.6h12.8c.8 0 1.3.9.9 1.6z" fill="#fff"/><path d="m50.6 52.1c-9.1-6.4-18.1-12.8-27.2-19.2.8-1.9 1.8-3.6 2.9-5.3 10.2 4.7 20.3 9.3 30.4 14 10-4.6 20.2-9.3 30.4-14 1.2 1.6 2.1 3.3 3 5.3-9.1 6.4-18.2 12.8-27.2 19.2-1 11.1-2 22.1-3 33.3-2.1.1-4.2.2-6.2 0-1.1-11.2-2.1-22.3-3.1-33.3z" fill="#050300"/></svg>