<svg enable-background="new 0 0 113.4 113.4" viewBox="0 0 113.4 113.4" xmlns="http://www.w3.org/2000/svg"><circle cx="56.7" cy="56.7" fill="#fff" r="56.7"/><path d="m57.6 112.7c-26.1 0-49.2-18-55-44.7-6.5-29.6 12.8-59.9 42.3-66.5 1.7-.4 2.5-.1 2.9 1.1.5 1.4 0 2.5-1.5 3.2-1.8.8-3.8 1.4-5.6 2.2-14.6 6.6-23.5 17.8-26 33.6-3.7 23.2 12 44.9 35.1 49.2 2.5.5 5 .7 7.4.7"/><path d="m55.7 112.7c26.1 0 49.2-18 55-44.7 6.5-29.6-12.8-59.9-42.3-66.5-1.7-.4-2.5-.1-2.9 1.1-.5 1.4 0 2.5 1.5 3.2 1.8.8 3.8 1.4 5.6 2.2 14.6 6.6 23.5 17.8 26 33.6 3.7 23.2-12 44.9-35.1 49.2-2.5.5-5 .7-7.4.7"/><path d="m79.9 68.2c-14.8 0-29.6 0-44.5 0 .3-1.2.6-2.4 1-3.6.1-.3.3-.7.6-.9 1-.9 2.1-1.6 3.2-2.5 1.6-1.3 3.2-2.8 4.3-4.6 1-1.8 1.2-3.6.3-5.4-.6-1.1-1.3-2.1-2.1-3-1.6-1.8-3.7-2.8-5.9-3.5-4.5-1.6-9-3.3-13-6-1.4-.9-2.7-2-4-3-.2-.2-.3-.5-.4-.8h74.5c.2 0 .6-.3.6.2-.1.7-.6 1-1.2 1.3-4.3 1.8-8.6 3.5-12.8 5.3-2.4 1-4.7 2.4-6.6 4.3-2.3 2.4-3 5.2-2.1 8.5.8 2.8 2.4 5 4.7 6.8.8.6 1.7 1.1 2.6 1.6.1.1.3.2.3.3.2 1.7.7 3.3.5 5z"/><g fill="#fff"><path d="m32.9 100.5c.1-.1.1-.2.2-.3.4.2.7.3.9.3s.4 0 .5 0c .1-.1.3-.2.4-.3.1-.2.2-.4.2-.6s.1-.5.1-.8c.1-.5.1-.7.1-1.1-1.8-1-2.7-1.6-4.4-2.9-.3.2-.5.2-.8.4-.4.2-.7.4-.9.5s-.3.3-.4.4c-.2.3-.3.5-.2.8s.4.6.7.9c-.1.1-.1.2-.2.3-1.7-1.3-2.6-2-4.2-3.5.1-.1.2-.2.3-.3.4.3.8.4 1.3.4s1-.1 1.6-.3c3.9-1.5 5.7-2.4 9-4.6.5.3.7.5 1.2.8-.8 3.8-1.1 5.8-1.2 9.8v1.1c0 .3.1.5.3.7.1.2.4.4.7.6-.1.1-.1.2-.2.4-2-1.1-3-1.6-5-2.7zm-1.3-6.3c1.5 1.1 2.3 1.6 3.9 2.6.3-2.3.5-3.4 1.1-5.6-1.9 1.3-2.9 1.9-5 3z"/><path d="m51.2 105.7c-1 .4-1.9.6-2.9.4-.5-.1-1-.3-1.3-.5-.3-.3-.6-.7-.9-1.2-.6-1.3-.9-1.9-1.4-3.2-.3.1-.8.2-1.4.3-.4 1.3-.6 1.9-1 3.2-.8-.2-1.2-.4-2-.7.8-2.1 1.1-3.2 1.9-5.3.2-.7.3-1.1.3-1.3s-.3-.5-.9-.8c.1-.2.1-.2.2-.4.9.3 1.3.4 2.2.7.2.1.4.1.6.2-.5 1.5-.7 2.2-1.1 3.7.9-.2 2.1-.6 3.5-1.5.9-.6 1.5-.9 1.9-1s .8-.1 1.2-.1c.3 0 .7.1 1 .3-.1.6-.1.9-.2 1.5-.3 0-.5-.1-.8-.1-.1-.3-.3-.4-.7-.5-.3 0-.6 0-.9.2-.3.1-1.1.6-2.2 1.2.7 1.5 1.1 2.3 2 3.8.3.6.8.9 1.3 1 .4.1.8 0 1.2-.2.2 0 .3.1.4.3z"/><path d="m55 103.2c0 1 .1 1.7.5 2 .3.3.8.5 1.5.4.6 0 1.1-.3 1.7-.7.5-.4.8-.9.7-1.4-.2-2-.3-3.1-.5-5.1.7-.1 1-.1 1.7-.2.4 2.4.5 3.7.9 6.1.1.6.4.9 1 .8.3-.1.7-.2 1-.5.2.2.3.2.5.4-.7.6-1.5 1-2.3 1.1-1.2.2-1.9-.2-2.1-1.2h-.1c-1.1 1-2.2 1.6-3.3 1.6-.6 0-1.2-.1-1.6-.5h-.1c.1 1.1.3 2 .6 2.7v.5c-.4.2-.7.3-1.1.5-.5 0-.7 0-1.1 0 .2-4.5.4-6.7.6-11.2.7 0 1 0 1.7.1-.2 1.8-.2 2.8-.2 4.6z"/><path d="m70.3 104c-1.6.6-2.9.6-3.9.2s-1.6-1.3-1.9-2.6c-.2-.9-.2-1.7.1-2.4.2-.7.6-1.3 1.2-1.8s1.2-.9 2-1.1c1.3-.5 2.4-.6 3.4-.3s1.8 1 2.4 2.1c.4.8.6 1.6.5 2.3-.1.8-.5 1.4-1.1 2.1-.8.6-1.6 1.2-2.7 1.5zm-3.9-3.1c.3 1.1.8 1.9 1.5 2.3s1.5.5 2.4.2c.5-.2.9-.4 1.2-.7s.5-.6.6-1 .1-.8 0-1.2-.2-.8-.4-1.2c-.3-.7-.7-1.3-1.1-1.7s-.9-.6-1.3-.7-.9-.1-1.4.1c-.8.3-1.3.7-1.5 1.4-.3.6-.3 1.5 0 2.5z"/><path d="m72.8 94.2c.9-.5 1.3-.7 2.2-1.3 1.4.8 3.4 2.1 6.1 4 .5-2.5.1-4.2-.8-5.2-.4-.5-.9-.8-1.4-1.1-.1-.1-.2-.2-.3-.3.6-.5.9-.8 1.5-1.4.3.2.6.5.8.7.7.7 1.1 1.6 1.3 2.8.2 1.1.2 2.9-.3 5.4-.5.4-.8.6-1.4 1-1.8-1.2-3.2-2.2-4.4-2.9-1.1-.7-1.8-1.2-2.2-1.3s-.7-.1-1 .1c0-.3 0-.4-.1-.5z"/></g></svg>