<svg id="Capa_1" data-name="Capa 1" xmlns="http://www.w3.org/2000/svg" viewBox="0 0 566.93 566.93"><defs><style>.cls-1,.cls-6{fill:#fff;}.cls-2{fill:#fefefe;}.cls-3{fill:#0c0602;}.cls-4{fill:#fdfcfc;}.cls-5{fill:#020203;}.cls-6{font-size:70px;font-family:Cambria;}</style></defs><circle class="cls-1" cx="283.46" cy="283.46" r="279.21"/><circle class="cls-2" cx="283.41" cy="274.95" r="264.13"/><path class="cls-3" d="M554.73,247.61c-.58-5.22-1.33-10.45-2.42-15.59Q523.74,97.14,400.35,35.5c-17.54-8.71-36.11-14.78-55.17-19.27-7.81-1.83-12.13,0-14,5.52-2.17,6.36.38,11.84,7.2,15.08a82.36,82.36,0,0,0,9.82,4.09C451.24,74.3,513,181,490.13,286,465.4,399.37,356.4,471.16,242.43,449.15,132.5,427.91,57.07,322,74.69,211.14,86.91,134.29,130.05,79.77,201.08,47.67c8.87-4,18.24-6.89,27.2-10.72,7.26-3.09,9.73-8.87,7.34-15.41-2-5.48-6.18-7.14-14.12-5.26C72.58,51.61-17.2,198.9,17.15,344.79c34.6,147,178.17,236.82,325.72,204.87C467,522.78,557.05,410.76,557.06,282.19,557.32,271.19,556.06,259.39,554.73,247.61Zm-183,214.92-.66-.83c-1.74.52-3.51,1.54-5.26,1.9,1.75-.36,3.52-1.38,5.26-1.9l1.62-.73-1.62.73Z"/><path class="cls-4" d="M349.52,205.3l-.89-1.47c1.28-.7,1.49.1,1.86.59Z"/><path class="cls-5" d="M109.66,135.68c.49.13.22-.44.66-.57L283.48,308,456.14,134.44l.57.56c.41,0,.05.72.56.68V191q-10.71,10.74-21.43,21.48-28.89,29-57.77,58c-10.58,10.63-21.11,21.31-31.7,31.93Q331,317.9,315.52,333.24c-3.47,3.44-7.12,6.7-10.34,9.72,0,3.86,0,6.93,0,10q0,27.84,0,55.69a3.88,3.88,0,0,1-1.16,3q-6.92,6.87-13.75,13.8c-2.23,2.27-4.4,4.61-6.73,7.06-2.33-2.32-4.55-4.58-6.81-6.8-2-1.93-3.79-4-5.81-5.91-3-2.8-5.74-5.85-8.56-8.82a3.12,3.12,0,0,1-.55-2.33c0-13.66.08-27.31-.09-41-.08-6.34-.21-12.68-.22-19a24.57,24.57,0,0,0-.13-5.07l.39-.33c-5.11-5-10.27-9.89-15.32-14.92q-14.88-14.79-29.67-29.69-28.2-28.32-56.38-56.66-24.13-24.25-48.24-48.53c-.87-.88-1.64-1.85-2.46-2.78Z"/><path class="cls-5" d="M256.1,406.31c-5.84-6.2-11.37-12.11-16.94-18q-6.34-6.68-12.79-13.25a5.74,5.74,0,0,1-1.82-4.37c.07-8.62,0-17.25,0-25.93q-45.4-46-90.83-92v-31c.49-.26.62.16.85.39l45,45.48q15.36,15.54,30.69,31.11,16.86,17.07,33.74,34.11c3.89,3.94,7.72,7.94,11.61,11.88a3.14,3.14,0,0,1,1,2.37c0,17.44,0,34.87-.12,52.3A39.32,39.32,0,0,1,256.1,406.31Z"/><path class="cls-5" d="M310.43,406.41V345.57L433.09,221.28v31.53l-16.66,16.9q-12.19,12.38-24.37,24.75-12.94,13.11-25.92,26.19c-7.64,7.72-15.24,15.48-22.95,23.13-1.41,1.39-1.05,3-1,4.4.1,3.16-.08,6.3-.07,9.45,0,4.31-.1,8.63,0,12.94a5.84,5.84,0,0,1-1.89,4.8c-4.26,4.16-8.27,8.57-12.38,12.88q-7,7.29-13.93,14.56C312.81,403.94,312,405.34,310.43,406.41Z"/><path class="cls-5" d="M283.42,301.75c-9.14-9.14-18.15-18.14-27.15-27.12l28.29-27.84c7.26,0,15.52,0,23.79,0,1.65,0,2.42,1.76,3.84,2.46V259L306,253.89c-2.56,2.68-5.23,5.13-7.82,8.31l12.69,12Z"/><text class="cls-6" transform="translate(113.8 462.81) rotate(35.75) scale(0.97 1)">Ἀ</text><text class="cls-6" transform="translate(150.98 488.82) rotate(25.96) scale(0.97 1)">γ</text><text class="cls-6" transform="matrix(0.93, 0.27, -0.28, 0.96, 186.5, 505.84)">α</text><text class="cls-6" transform="translate(228.9 517.68) rotate(6.53) scale(0.97 1)">μ</text><text class="cls-6" transform="translate(270.08 521.8) rotate(-1.95) scale(0.97 1)">έ</text><text class="cls-6" transform="matrix(0.95, -0.17, 0.18, 0.98, 304.52, 520.56)">μ</text><text class="cls-6" transform="translate(345.25 512.61) rotate(-19.01) scale(0.97 1)">ν</text><text class="cls-6" transform="translate(382.84 499.85) rotate(-29.63) scale(0.97 1)">ω</text><text class="cls-6" transform="matrix(0.74, -0.62, 0.64, 0.77, 430.93, 471.03)">ν</text></svg>