<svg enable-background="new 0 0 113.4 118.4" viewBox="0 0 113.4 118.4" xmlns="http://www.w3.org/2000/svg"><circle cx="56.7" cy="61.7" fill="#fff" r="56.7"/><circle cx="56.7" cy="60.3" fill="#fff" r="53.7"/><path d="m112.1 61.9c0 26.4-18.6 49-44.6 54.3-29.5 5.9-58.6-13.1-64.9-42.3-6.4-29.5 11.3-58.2 40.5-65.8.6-.1 1.1-.2 1.7-.3 1.1-.2 1.9.1 2.2 1.2s0 2.2-1 2.8c-.7.4-1.4.7-2.2 1-16 5.5-25.9 16.6-29.2 33.1-4.5 22.2 10.5 44.6 32.6 49.5 22.6 5 45.5-8.8 51.1-31.8 5.2-21.4-6.8-43.7-28.5-50.8-.7-.2-1.3-.5-2-.8-1.4-.7-1.9-1.8-1.5-3.1.4-1.1 1.3-1.5 2.8-1.1 3.7.9 7.3 2 10.8 3.7 16.9 8.2 27.3 21.6 31.2 40 .2 1 .4 2.1.5 3.2.3 2.3.6 4.7.5 7.2z" fill="#050302"/><path d="m77.9 76.1c-12.1 11.3-30.8 11-42.2.1 0-.9 20.3-74 21.1-76.2 7 25.5 14 50.8 21.1 76.1z" fill="#1c1616"/></svg>