<svg enable-background="new 0 0 113.4 113.5" viewBox="0 0 113.4 113.5" xmlns="http://www.w3.org/2000/svg"><circle cx="56.9" cy="56.8" fill="#afc910" r="55.5"/><path d="m56.7 113.5c-31.3 0-56.7-25.5-56.7-56.9 0-31.3 25.5-56.6 57-56.6 31.1 0 56.5 25.6 56.4 56.7-.1 31.4-25.5 56.9-56.7 56.8zm-14-57.4c-6.1 6.2-12 12.3-18.3 18.7 8.7-2.2 17.1-4.2 25.6-6.3 1.3 4.4 2.6 8.8 3.9 13.1-1.4 1.4-3.1 2.4-4.4 3.8 2.5 3.8 5 7.6 7.6 11.5 2.6-4 4.9-7.8 7.4-11.6-1.6-1.2-3.1-2.3-4.8-3.5 1.2-4.4 2.5-8.8 3.7-13.2 8.6 2.1 17 4.2 25.3 6.2l.2-.2c-6-6.2-12-12.4-18.2-18.9 6.1-6.1 12-12 18.2-18.1-8.5 2.2-16.6 4.4-24.9 6.6-2.3-9.2-4.5-18.2-6.8-27.2-.1 0-.2 0-.3 0-2.5 9.1-4.9 18.1-7.4 27.3-8.5-2.2-16.6-4.4-24.8-6.6-.1.1-.1.2-.2.4 6.1 6 12.1 12 18.2 18z" fill="#b1cb0f"/><path d="m42.7 56.1c-6.1-6.1-12.1-12-18.1-18 .1-.1.1-.2.2-.4 8.2 2.2 16.4 4.3 24.8 6.6 2.5-9.1 4.9-18.2 7.4-27.3h.3c2.2 9 4.5 18 6.8 27.2 8.3-2.2 16.4-4.3 24.9-6.6-6.2 6.2-12.1 12-18.2 18.1 6.2 6.6 12.1 12.9 18.1 19.1-.1.1-.1.1-.2.2-8.4-2.1-16.7-4.1-25.3-6.2-1.2 4.4-2.5 8.8-3.7 13.2 1.6 1.2 3.1 2.3 4.8 3.5-2.4 3.8-4.8 7.6-7.4 11.6-2.6-3.9-5.1-7.7-7.6-11.5 1.3-1.5 3-2.4 4.4-3.8-1.3-4.3-2.6-8.7-3.9-13.1-8.5 2.1-16.8 4.1-25.6 6.3 6.2-6.5 12.2-12.6 18.3-18.9zm-12.4 15.1c0 .1.1.2.1.3 6.8-1.7 13.7-3.4 20.6-5.1 1.5 5.5 2.8 10.8 4.2 16-1.2 1-2.4 2-3.6 3 1.8 2.8 3.6 5.6 5.4 8.5 1.9-2.9 3.6-5.6 5.2-8.5-1.1-1.3-2.8-1.8-4-3.2 1.3-5 2.5-10.2 3.9-15.6 7.2 1.8 14.4 3.6 21.5 5.4-2-2.7-4.4-4.9-6.5-7.2-3.9-4.2-8-8.1-12-12.2-1.1-1.1-1.9-2.3-2.2-3.9-1.1-5.6-2.4-11.1-3.6-16.6-.7-3-1.4-6-2.1-9.1-.4.5-.5 1-.6 1.5-2 8.2-4 16.5-6 24.7-.4 1.5-1 2.8-2.2 3.9-5.8 5.6-11.4 11.4-17.1 17.1-.4.3-.7.6-1 1zm18.7-25.2c-6.6-1.9-13.3-3.9-19.9-5.8-.1.1-.1.2-.2.3 5.1 4.6 9.9 9.6 14.9 14.5 2.8-2.6 5.1-5.1 5.2-9zm20.6 8.6c4.7-4.7 9.5-9.5 14-14-6.2 1.8-12.7 3.6-19 5.4 0 4.1 2.4 6.4 5 8.6z" fill="#f9ce00"/><g fill="#ffe148"><path d="m30.3 71.2c.3-.3.6-.7 1-1l17.1-17.1c1.2-1.1 1.8-2.4 2.2-3.9 2-8.2 4-16.5 6-24.7.1-.5.3-1 .6-1.5.7 3 1.4 6 2.1 9.1 1.2 5.5 2.5 11.1 3.6 16.6.3 1.6 1.1 2.7 2.2 3.9 3.9 4.1 8.1 8.1 12 12.2 2.2 2.3 4.5 4.5 6.5 7.2-7.2-1.8-14.3-3.6-21.5-5.4-1.3 5.4-2.6 10.6-3.9 15.6 1.3 1.4 2.9 1.9 4 3.2-1.6 2.9-3.3 5.6-5.2 8.5-1.9-2.9-3.6-5.7-5.4-8.5 1.3-1.1 2.4-2 3.6-3-1.4-5.3-2.8-10.5-4.2-16-6.9 1.7-13.8 3.4-20.6 5.1 0-.1 0-.2-.1-.3z"/><path d="m49 46c-.1 3.9-2.4 6.5-5.2 9-5-4.9-9.7-9.9-14.9-14.5.1-.1.1-.2.2-.3 6.6 1.9 13.3 3.8 19.9 5.8z"/><path d="m69.6 54.6c-2.6-2.2-5-4.5-4.9-8.6 6.3-1.8 12.8-3.7 19-5.4-4.7 4.5-9.4 9.2-14.1 14z"/></g></svg>