<svg enable-background="new 0 0 113.5 113.3" viewBox="0 0 113.5 113.3" xmlns="http://www.w3.org/2000/svg"><circle cx="57.1" cy="56.8" fill="#fff" r="54.3"/><path d="m56.7 113.3c-30.8.2-57.9-25.3-56.7-59.1 1.1-28.6 24.9-55.4 59.2-54.2 28.5 1 55.4 24.8 54.2 59-1 29.1-25 54.2-56.7 54.3zm55.7-55.2c0-5.3-.4-9-1.2-12.7-1.2-5.5-3.1-10.7-5.8-15.6-3.6-6.6-8.3-12.2-14.2-16.8-5.8-4.5-12.1-7.8-19.2-9.8-4.4-1.2-8.9-2-13.5-2.2-3.9-.1-7.8.3-11.7 1-6.6 1.2-12.7 3.5-18.4 6.9s-10.7 7.6-14.8 12.8c-3.3 4.2-6.1 8.7-8.1 13.6-2.5 5.9-3.8 12.1-4.3 18.4-.3 4.7.1 9.4 1.1 14.1 1.2 5.5 3.1 10.8 5.9 15.8 2.3 4.2 5.1 8 8.4 11.5 2.3 2.5 4.8 4.6 7.6 6.6 5.1 3.6 10.6 6.4 16.5 8.2 3.3 1 6.7 1.7 10.1 2.1 2.3.3 4.6 1 7 .8 2-.2 3.8-.8 5.8-1 7.1-.8 13.8-3 20-6.4 5.6-3.1 10.5-6.9 14.7-11.7 3.8-4.3 6.8-8.9 9.2-14.1 3.2-7.4 4.7-15 4.9-21.5z" fill="#fdcd00"/><path d="m112.4 58.1c-.1 6.5-1.7 14.2-5 21.5-2.4 5.2-5.4 9.9-9.2 14.1-4.2 4.8-9.2 8.6-14.7 11.7-6.3 3.5-12.9 5.6-20 6.4-1.9.2-3.8.8-5.8 1-2.4.2-4.6-.6-7-.8-3.4-.4-6.8-1.1-10.1-2.1-6-1.8-11.5-4.6-16.5-8.2-2.7-2-5.3-4.1-7.6-6.6-3.2-3.5-6.1-7.3-8.4-11.5-2.8-5-4.7-10.3-5.9-15.8-1-4.6-1.4-9.3-1.1-14.1.4-6.4 1.8-12.5 4.3-18.4 2.1-4.9 4.8-9.5 8.1-13.6 4.1-5.2 9.1-9.4 14.8-12.8s11.9-5.7 18.4-6.9c3.9-.7 7.8-1.1 11.7-1 4.6.2 9.1.9 13.5 2.2 7.1 2 13.5 5.3 19.2 9.8 5.9 4.6 10.6 10.3 14.2 16.8 2.7 4.9 4.6 10.1 5.8 15.6.9 3.6 1.3 7.4 1.3 12.7zm-89.4-27.2c-.3 0-.2.3-.2.5-.5.1-.5.5-.7.8-.2.2-.4.4-.6.6-1.2 2.1-2.4 4.1-3.4 6.3-2.3 5-3.4 10.3-3.6 15.7-.2 4.1.3 8.2 1.3 12.2.9 3.4 2.2 6.8 3.9 10 .1-.2.1-.3.1-.4-.1-.3-.2-.6-.2-.8-3.2-9.8-3.8-19.9-1.7-30 .9-4.6 2.5-9 4.4-13.3.2-.3.5-.6.4-1.1.3 0 .3-.3.3-.5.2 0 .2 0 .1-.2-.1.1-.1.2-.1.2zm56.6 57.2c7.8-9.4 7.2-23.5 3.5-29.8v1.2c.2 7.8-.6 15.6-2.2 23.2-.4 1.8-1.1 3.5-1.3 5.4-.2 0-.2 0-.1.2 0-.1.1-.2.1-.2zm11.5-55.9c-.2-.2-.1-.7-.7-.7 0 .4.2.7.4 1 .1.2.1.4.2.6 5.2 11.3 6.6 23 4.5 35.2-.5 2.8-1.3 5.6-2.2 8.6.9-.8 1-1.7 1.4-2.5 2.7-5.4 3.7-11.2 4-17.2.1-2.8-.2-5.5-.7-8.3-1-6.1-3.3-11.6-6.9-16.7zm-21.3-15.7c-.1-.2-.2-.3-.6-.1.2.1.3.2.4.2 4.6 5 7.4 11 9.4 17.4.3.9.8 1.6 1.4 2.1 4.6 3.7 8 8.3 10.4 13.7.5 1.2 1 2.4 1.6 3.9-.1-2.4-.4-4.5-.8-6.6-2.1-10.2-6.5-19.3-14.5-26.3-2-1.8-4.3-3.7-7.3-4.3zm-25.7-.2c-.2 0-.5.1-.7.1-4.3 1.3-7.5 4.1-10.4 7.3-5.7 6.2-9.3 13.7-11.2 21.9-.6 2.6-1 5.2-1.2 8 .2-.2.2-.3.3-.3 2.3-6.8 6.2-12.5 11.8-17.1 1.2-.9 1.9-2.1 2.4-3.5 2-6 4.8-11.6 9.2-16.2.1-.1.3-.1.2-.3-.2-.2-.3-.1-.4.1zm34.8 52.9c.1.2-.1.4.3.6 0-.2 0-.4-.1-.6.5-5.9.4-11.7-.2-17.6 0-.4-.1-.7-.4-1-1.4-1.4-2.8-2.9-4.4-4-4.1-2.8-8.5-4.8-13.5-5.3-4.3-.5-8.6-.3-12.8 1-3.8 1.1-7.2 3.1-10.3 5.6-1.6 1.3-3 2.7-2.8 5.1.1 1.4-.2 2.8-.3 4.1-.2 3.8-.2 7.6.2 11.6 2.7-5.3 4.6-7.4 7.5-9.6 5.9-4.5 12.4-6.2 19.7-4.5 5.6 1.3 10.1 4.4 13.6 8.9 1.4 1.8 2.3 3.9 3.5 5.7zm-22.3 29.5c10.7.5 17.9-8.2 18.3-17 .5-11.4-8.1-18.7-16.6-19.3-12.5-.9-19.5 8.4-20 17.1-.6 11.3 8.3 19.8 18.3 19.2zm17.6-66.9c-1-2.6-2.1-4.9-3.4-7.1-2.3-3.9-5-7.3-9.2-9.3-2.7-1.3-5.4-1.5-8.2-.5-2 .7-3.7 1.8-5.2 3.2-3.9 3.6-6.3 8.1-8.5 13.3 5.7-2.7 11.3-4.1 17.3-4.1 6 .1 11.6 1.6 17.2 4.5zm-39.8 57.4c-3.2-10.5-4.2-21.3-4-32.2-4.9 11.5-3.9 22.3 4 32.2zm59-12.1c-.1 0-.1 0 0 0z" fill="#b0ca11"/><path d="m56.6 98.7c-10 .6-18.9-7.9-18.3-19.2.5-8.7 7.5-18 20-17.1 8.5.6 17.1 7.9 16.6 19.3-.5 8.8-7.7 17.5-18.3 17zm8.5-7.9c6.5-5.1 7-14.8.2-20.6-5.8-4.8-13.7-4.7-19.3 2.1-5 6.1-3.5 14.6 3 19.1-1.3-6.2 3.1-10 7.1-10.4 5.2-.5 8.7 3.3 9 9.8z" fill="#fffffe"/><path d="m78.9 69.2c-1.2-1.9-2-3.9-3.4-5.7-3.6-4.5-8-7.6-13.6-8.9-7.3-1.7-13.9 0-19.7 4.5-2.9 2.2-4.8 4.3-7.5 9.6-.4-4-.4-7.8-.2-11.6.1-1.4.4-2.8.3-4.1-.2-2.4 1.2-3.8 2.8-5.1 3.1-2.5 6.5-4.5 10.3-5.6 4.2-1.2 8.4-1.4 12.8-1 5 .5 9.4 2.5 13.5 5.3 1.7 1.1 3 2.6 4.4 4 .3.3.3.7.4 1 .6 5.9.7 11.7.2 17.6-.2 0-.3 0-.3 0z" fill="#fffffe"/><path d="m74.2 31.8c-5.5-2.9-11.1-4.4-17.2-4.4-6-.1-11.6 1.3-17.3 4.1 2.2-5.2 4.6-9.7 8.5-13.3 1.5-1.4 3.3-2.5 5.2-3.2 2.8-1 5.5-.8 8.2.5 4.2 2 6.9 5.5 9.2 9.3 1.3 2.1 2.4 4.4 3.4 7z" fill="#fffffe"/><g fill="#fefefd"><path d="m44.3 16.5c-4.4 4.7-7.2 10.2-9.2 16.2-.5 1.4-1.2 2.5-2.4 3.5-5.6 4.6-9.5 10.2-11.8 17.1 0 .1-.1.1-.3.3.1-2.8.6-5.4 1.2-8 1.9-8.2 5.4-15.6 11.2-21.9 2.9-3.2 6.1-6 10.4-7.3.2-.1.5-.1.7-.1z"/><path d="m69.8 16.5c3 .5 5.3 2.4 7.4 4.4 8 7 12.3 16.1 14.5 26.3.4 2 .7 4.1.8 6.6-.6-1.5-1.1-2.7-1.6-3.9-2.4-5.4-5.8-10-10.4-13.7-.7-.6-1.2-1.2-1.4-2.1-2-6.4-4.9-12.3-9.4-17.4 0 0 .1-.1.1-.2z"/><path d="m34.4 89.2c-7.9-9.9-8.9-20.7-4-32.2-.2 10.9.9 21.7 4 32.2z"/><path d="m22.3 32.5c-1.9 4.3-3.5 8.7-4.4 13.3-2 10.2-1.5 20.2 1.6 30.1.1.3.2.6.2.8 0 .1 0 .2-.1.4-1.8-3.2-3.1-6.5-3.9-10-1-4-1.5-8.1-1.3-12.2.3-5.5 1.3-10.7 3.6-15.7 1-2.2 2.2-4.2 3.4-6.3.1-.2.4-.4.6-.6.1 0 .2.1.3.2z"/><path d="m91.1 32.2c3.6 5 5.9 10.6 6.9 16.7.5 2.7.8 5.5.7 8.3-.2 6-1.3 11.8-4 17.2-.4.8-.5 1.7-1.4 2.5.9-3 1.7-5.8 2.2-8.6 2.1-12.2.7-23.9-4.5-35.2-.1-.2-.1-.4-.2-.6.2-.1.3-.2.3-.3z"/><path d="m79.6 88.1c.2-1.9.9-3.6 1.3-5.5 1.7-7.7 2.4-15.4 2.2-23.2 0-.4 0-.8 0-1.2 3.7 6.4 4.3 20.5-3.5 29.9z"/><path d="m22 32.2c.2-.3.2-.7.7-.8.1.5-.2.8-.4 1.1-.1-.1-.2-.2-.3-.3z"/><path d="m90.9 32.5c-.2-.3-.4-.5-.4-1 .5 0 .4.5.7.7-.1.1-.2.2-.3.3z"/></g><path d="m78.9 69.2c.1 0 .1-.1.2 0 0 .2 0 .4.1.6-.4-.1-.3-.4-.3-.6z" fill="#e8edc0"/><path d="m44.1 16.3c.1-.2.2-.2.4-.2.1.2-.1.2-.2.3-.1 0-.1 0-.2-.1z" fill="#fefefd"/><path d="m69.7 16.7c-.1-.1-.2-.1-.4-.2.3-.2.5-.2.6.1-.1 0-.2.1-.2.1z" fill="#fefefd"/><path d="m22.7 31.4c0-.2-.1-.5.2-.5.1.2.1.5-.2.5z" fill="#fefefd"/><path d="m23 30.9c0-.1.1-.1.1-.2.1.2 0 .3-.1.2z" fill="#fefefd"/><path d="m93.4 77.1c-.1.1-.1 0 0 0-.1 0-.1 0 0 0 0-.1 0 0 0 0z" fill="#e8edc0"/><path d="m79.6 88.1c0 .1-.1.1-.1.2-.1-.2 0-.3.1-.2z" fill="#fefefd"/><path d="m65.1 90.8c-.3-6.6-3.8-10.3-9.1-9.8-4.1.4-8.5 4.2-7.1 10.4-6.4-4.5-7.9-13-3-19.1 5.6-6.8 13.6-7 19.3-2.1 6.9 5.8 6.3 15.6-.1 20.6z" fill="#b0ca11"/></svg>