<svg enable-background="new 0 0 113.4 113.4" viewBox="0 0 113.4 113.4" xmlns="http://www.w3.org/2000/svg"><circle cx="56.7" cy="56.7" fill="#fff" r="56.7"/><path d="m57.6 112.5c-26 0-49-18-54.8-44.5-6.4-29.5 12.8-59.7 42.2-66.3 1.6-.4 2.5-.1 2.9 1.1.5 1.4 0 2.5-1.5 3.2-1.8.8-3.8 1.4-5.6 2.2-14.6 6.6-23.4 17.8-25.9 33.5-3.6 23.1 12 44.8 35 49.1 2.5.5 4.9.7 7.4.7"/><path d="m55.7 112.5c26 0 49-18 54.8-44.5 6.4-29.5-12.8-59.7-42.2-66.3-1.6-.4-2.5-.1-2.9 1.1-.5 1.4 0 2.5 1.5 3.2 1.8.8 3.8 1.4 5.6 2.2 14.6 6.6 23.4 17.8 25.9 33.5 3.6 23.1-12 44.8-35 49.1-2.5.5-4.9.7-7.4.7"/><g fill="#fff"><path d="m33.7 88.6c-.2.3-.3.6-.5.8-.3.3-.6.5-.9.7-.3.1-.8.3-1.5.3 0-.2 0-.3.1-.5.3-.1.6-.2.8-.2.2-.1.3-.2.4-.3s.3-.3.4-.4c.2-.2.4-.4.6-.7.2.1.4.1.6.3zm-3.9 9.6c.1-.1.1-.2.2-.3.2.1.3.1.5.1.1 0 .2 0 .3-.1s.2-.2.3-.3.2-.3.3-.5.2-.4.3-.6c.1-.4.2-.5.4-.9-.9-.6-1.3-.9-2.1-1.6-.2.2-.4.3-.6.4-.3.2-.5.4-.7.5-.1.1-.3.2-.4.4-.2.2-.3.4-.3.6s.1.4.3.6c-.1.1-.1.2-.2.3-.8-.7-1.2-1-2-1.7.1-.1.1-.2.2-.3.2.1.5.1.8 0s .7-.3 1.1-.6c2.9-1.8 4.2-2.8 6.9-4.8.2.2.4.3.6.4-1.4 3-2.1 4.5-3.2 7.7-.1.4-.2.7-.3.9 0 .2-.1.4 0 .5 0 .1.1.3.2.4-.1.1-.1.2-.2.3-1.1-.4-1.5-.7-2.4-1.4zm.6-4.5c.7.6 1.1.9 1.9 1.4.8-1.8 1.2-2.6 2-4.4-1.6 1.3-2.4 1.9-3.9 3z"/><path d="m36.6 94.4c.4.3.7.4 1.1.6-.3 1.3-.8 3.2-1.7 5.9 1.5-1 2.4-2 2.9-3.1.2-.5.4-1 .5-1.5.1-.1.1-.2.2-.3.4.2.5.2.9.4-.1.3-.2.6-.4.9-.4.8-.8 1.5-1.5 2.2-.6.7-1.6 1.5-3.1 2.4-.3-.1-.4-.2-.7-.4.5-1.7.9-3.2 1.2-4.2.3-1.1.5-1.7.4-2 0-.3-.1-.4-.2-.6.3-.1.4-.2.4-.3z"/><path d="m44 98.2c-.2-.6-.3-1.1-.4-1.5 0-.3 0-.7.1-1 .2-.5.4-.8.8-1s .7-.3 1.2-.1c.6.2 1 .6 1.3 1.2-.1.4-.2.6-.3 1-.2 0-.3-.1-.4-.1 0-.9-.3-1.4-.8-1.5-.2-.1-.5 0-.7.1s-.3.3-.4.6c-.1.2-.1.4 0 .7 0 .2.2.8.6 1.7.3.7.5 1.4.6 2s0 1.3-.2 2c-.2.9-.7 1.6-1.3 2.1-.6.4-1.3.6-2 .3-.7-.2-1.2-.7-1.4-1.4s-.2-1.5.2-2.4c.7-1.7 1.8-2.5 3.1-2.7zm.3.5c-1 .3-1.8 1.1-2.3 2.6-.3.7-.3 1.3-.2 1.8s.3.8.7 1c .4.1.9 0 1.2-.4.4-.4.7-1 .9-1.7.2-.6.2-1.1.2-1.6-.1-.6-.3-1.1-.5-1.7z"/><path d="m48.3 105.4c-.3 1.4-.4 2.2-.6 3.6-.4-.1-.6-.1-1-.2.5-2.5.8-3.8 1.3-6.3s1.5-3.6 2.9-3.4c.6.1 1 .4 1.3 1s .4 1.5.3 2.6c-.1 1.2-.4 2.2-.9 2.8s-1.1.9-1.9.8c-.6-.1-1-.4-1.4-.9zm.5-2.6c-.1.5-.1.7-.2 1.2-.1.4 0 .8.2 1.1s.5.5.8.5c.9.1 1.5-.8 1.8-2.7.2-2.1 0-3.2-.7-3.3-.9-.1-1.5 1-1.9 3.2z"/><path d="m56.9 106.6c-.8 0-1.4-.3-1.8-.9s-.6-1.5-.5-2.7c0-.8.2-1.5.4-2 .2-.6.5-1 .8-1.2.3-.3.7-.4 1.1-.4.7 0 1.2.2 1.6.8s.7 1.4.7 2.6c.1.8 0 1.5-.1 2.1-.2.6-.4 1-.8 1.3-.4.2-.9.4-1.4.4zm-1.3-3.7c0 1 .1 1.8.3 2.3s.6.8 1.1.8c.3 0 .5-.1.6-.3.2-.2.3-.4.4-.7s.2-.6.2-.9c0-.4 0-.7 0-1.1 0-.7-.1-1.3-.3-1.8-.1-.5-.3-.8-.5-1s-.4-.3-.6-.3c-.4 0-.7.3-.9.8-.2.6-.3 1.3-.3 2.2z"/><path d="m62.7 102.9c.1.9.3 1.5.5 1.7s.5.3.8.3c.3-.1.5-.3.7-.7s.2-.8.1-1.2c-.4-1.8-.6-2.7-1-4.4.3-.1.5-.1.8-.2.5 2.1.8 3.2 1.3 5.3.1.6.3.8.6.7.2 0 .3-.2.4-.4.1.1.2.2.3.4-.3.5-.6.8-1 .9-.6.1-.9-.2-1.2-1 0 0 0 0-.1 0-.4.9-.8 1.4-1.4 1.5-.3.1-.6 0-.8-.3v.1c.2.9.4 1.7.7 2.3 0 .2 0 .2.1.4-.2.2-.3.3-.5.5-.2 0-.3.1-.5.1-.6-3.9-.9-5.9-1.4-9.8.3-.1.5-.1.8-.1.5 1.5.6 2.3.8 3.9z"/><path d="m72.9 101.8c-.3 1-.9 1.7-1.8 2-.6.2-1.1.2-1.5 0s-.7-.6-.9-1.2c-.1-.4-.1-.8 0-1.2s.3-.7.7-1c0 0 0 0 0-.1-.8 0-1.3-.4-1.6-1.2-.1-.5-.1-.9.1-1.3s.6-.7 1.1-.9c.4-.1.9-.2 1.5-.2.2.5.3.7.5 1.2-.2.1-.3.1-.5.2-.5-.6-.9-.8-1.4-.6-.2.1-.4.3-.5.5s-.1.5 0 .9.3.7.6.8.6.1 1.1-.1c.1 0 .2-.1.3-.1.1.3.2.4.3.7-.2.1-.3.1-.4.2-.4.2-.7.4-.9.7-.1.3-.2.7 0 1.1.3.8.8 1.1 1.6.8.6-.2 1-.7 1.3-1.4.1 0 .2 0 .4.2zm-4.5-8.8c.1.1.1.2.1.3v3c-.2 0-.2-.1-.4-.1-.2-1.2-.3-1.7-.5-2.9.4-.1.6-.1.8-.3z"/><path d="m73.9 95.1c-.6-.3-1-.5-1.3-.7s-.5-.5-.6-.7c-.2-.4-.3-.9-.2-1.3s.3-.7.7-.9c.5-.3 1.1-.4 1.7-.2.2.4.3.5.6.9-.2.1-.2.1-.4.2-.6-.6-1.2-.7-1.6-.5-.2.1-.3.3-.4.5 0 .2 0 .5.1.7s.3.4.5.5.8.4 1.7.7c.7.3 1.4.6 1.8.9.5.3 1 .8 1.4 1.5.5.8.7 1.6.6 2.3-.1.8-.5 1.3-1.1 1.7s-1.3.4-2 .1-1.2-.9-1.6-1.8c-.8-1.4-.7-2.7.1-3.9zm.5.2c-.5.9-.4 2.1.3 3.5.3.7.7 1.1 1.2 1.4.4.3.8.3 1.2.1s.6-.6.6-1.2c0-.5-.2-1.2-.7-1.8-.3-.5-.7-.9-1.1-1.2s-.9-.5-1.5-.8z"/><path d="m85.9 93.5c0 .6-.1 1.1-.5 1.4-.4.4-1.2.1-2.2-.8.5 1.4.4 2.3-.2 2.8-.5.4-1 .4-1.6.1s-1.2-.9-1.9-1.8-1-1.8-1.1-2.6.1-1.4.5-1.7c.3-.3.7-.4 1-.3.4.1.8.3 1.4.7 0 0 0 0 .1-.1-.4-.6-.5-.9-.9-1.6.2-.2.4-.3.6-.6.1.1.1.2.2.3.2.6.6 1.5 1.3 2.9.7.7 1.3 1.2 1.7 1.5s.7.4.9.2c.1-.1.2-.3.2-.6.2.1.3.2.5.2zm-3.8-.5c-.8-.8-1.4-1.3-1.8-1.5s-.8-.2-1 0c-.3.2-.3.6-.1 1.2s.5 1.2 1.1 2c1.1 1.4 1.9 1.9 2.5 1.5.5-.6.3-1.6-.7-3.2z"/></g><path d="m53.8 83.5c-.3-.2-.6-.1-.9-.1-1.7-.2-3.4-.6-5.1-1-.5-.1-.9-.3-1.3-.6-.6-.5-.9-1-.9-1.8 0-.2-.1-.3-.3-.4-.6-.2-1.1-.4-1.6-.7-.2-.1-.4 0-.5.1-.8.8-2.1.7-3 .2-1-.6-2-1.2-3-1.9-.8-.6-1.7-1.2-2.4-1.9s-.9-1.6-.6-2.6c.1-.2 0-.2-.1-.3-.5-.5-.9-.9-1.4-1.4-.1-.1-.1-.1-.3-.1-1.5.5-2.4-.1-3.2-1.1-.8-1.1-1.6-2.2-2.3-3.3-.5-.8-1.1-1.5-1.3-2.5-.2-.8 0-1.5.5-2.1.1-.2.2-.3.1-.5-.2-.5-.5-1-.6-1.6-.1-.2-.2-.3-.5-.3-1.2 0-1.9-.9-2.2-1.8-.4-1.3-.7-2.5-.9-3.8-.2-1-.3-1.9-.3-2.9s.4-1.7 1.3-2.1c.2-.1.3-.2.3-.5 0-.6 0-1.1 0-1.7 0-.2 0-.2-.2-.3-.9-.4-1.4-1.1-1.4-2.2 0-1.2.2-2.4.5-3.5.2-1.1.4-2.1.7-3.1s1.1-1.9 2.3-1.9c.2 0 .3-.1.3-.2.2-.6.5-1.2.7-1.8 0-.1 0-.2 0-.3-.9-1-.8-2.1-.2-3.2.9-1.6 1.9-3.1 2.9-4.5.4-.5.7-1 1.2-1.3.6-.4 1.3-.5 2-.3.3.1.4.1.6-.1.4-.4.8-.8 1.2-1.2.1-.1.1-.2.1-.4-.4-1 0-2.2.9-2.8.9-.7 1.8-1.3 2.7-2 1-.6 1.9-1.3 3-1.8.9-.4 1.8-.2 2.5.4.1.1.2.2.4.1.5-.2 1.1-.4 1.6-.7.2-.1.3-.1.3-.4-.1-1 .8-1.9 1.7-2.2 1.2-.4 2.5-.6 3.8-.9 1-.2 2.1-.4 3.2-.4 1 0 1.7.5 2.1 1.4.1.2.2.2.4.2h1.8c.2 0 .2 0 .3-.2.4-.9 1.1-1.4 2.1-1.4 1.3 0 2.6.2 3.8.5 1.1.2 2.1.5 3.2.8.9.3 1.7 1.3 1.6 2.2 0 .2.1.3.2.3.6.2 1.2.5 1.8.7.2.1.2 0 .3-.1.8-.8 2.1-.8 3-.2s1.9 1.1 2.8 1.7 1.7 1.2 2.5 1.9c.8.6 1.1 1.8.8 2.7-.1.2-.1.4.1.5.4.4.8.8 1.2 1.2.1.1.3.2.4.1 1-.4 2.3.1 2.9.9.9 1.2 1.8 2.5 2.6 3.8.4.6.8 1.2 1 1.8.3.8.3 1.8-.4 2.6-.2.2-.2.3-.1.5.2.5.5 1 .6 1.6.1.2.1.3.4.3 1.2 0 1.9.8 2.3 1.8.4 1.3.7 2.5.9 3.8.2.9.3 1.9.3 2.8 0 1-.4 1.8-1.4 2.3-.2.1-.3.2-.3.4v1.8c0 .2 0 .2.2.3 1.2.7 1.7 1.6 1.4 3-.2.9-.2 1.9-.5 2.8-.3 1.2-.5 2.5-1 3.7-.4.8-1.1 1.3-2 1.3-.2 0-.3.1-.4.3-.2.6-.5 1.1-.7 1.7-.1.1 0 .2.1.3.8.8.8 2.2.2 3.1-.9 1.7-2 3.2-3.1 4.7-.5.6-1 1.2-1.8 1.4-.5.1-1 .1-1.4-.1-.2-.1-.2 0-.4.1-.4.4-.9.9-1.3 1.3-.1.1-.2.2-.1.3.5 1.1-.1 2.3-.9 2.9-1 .7-1.9 1.5-3 2.1-1 .6-1.9 1.3-3 1.6-.8.2-1.5.1-2.1-.4.3-.1.1-.1-.2 0-.5.3-1 .5-1.5.7-.1.1-.2.1-.2.3 0 1.2-.9 2.1-2 2.4-1.2.3-2.3.6-3.5.8-.8.1-1.7.3-2.5.3-.1 0-.2 0-.2.1-.2 0-.4 0-.6 0-.9-.2-1.6-.6-2-1.6 0-.1-.1-.1-.3-.1-.6.1-1.1.1-1.7 0-.2 0-.4 0-.5.2-.2.5-.6.9-1.1 1.1-.3.1-.5.1-.8.3-.2.1-.4.1-.6.1zm17.3-6.3c0-.3.1-.6.1-.9.2-1 1-1.4 1.8-1.8 1.4-.8 2.7-1.6 3.9-2.6.9-.7 1.8-.9 2.9-.4.2.1.3.1.5-.1.4-.4.7-.8 1.1-1.1.2-.1.2-.3.1-.5-.4-.9-.4-1.8.3-2.7 1.2-1.5 2.2-3 3.1-4.7.5-.9 1.4-1.3 2.4-1.3.2 0 .2-.1.3-.2.3-.5.5-1.1.7-1.7.1-.1 0-.2-.1-.3-.8-.7-1-1.6-.8-2.6.2-.7.4-1.3.5-2 .2-1 .4-2.1.5-3.1.1-1.2.6-2.1 1.8-2.5.1-.1.2-.1.2-.3.1-.5 0-1.1 0-1.6 0-.4-.1-.5-.4-.6-.6-.2-.9-.6-1.3-1.2s-.3-1.3-.4-1.9c-.2-1.3-.4-2.6-.8-3.9-.3-1.2-.4-2.3.7-3.1.1-.1.1-.2.1-.4-.2-.5-.4-.9-.6-1.4-.1-.3-.3-.4-.6-.4-.1 0-.3 0-.4 0-1-.2-1.6-.8-2.1-1.7-.7-1.3-1.6-2.5-2.5-3.7-.3-.3-.6-.6-.7-1-.3-.7-.3-1.4 0-2.1.1-.3 0-.4-.1-.6-.3-.3-.7-.7-1-1-.2 0-.3 0-.6 0-.9.4-1.8.3-2.6-.3-.5-.4-1-.7-1.4-1.1-1.1-.7-2.2-1.4-3.3-2.1-.9-.5-1.3-1.4-1.2-2.4 0-.2-.1-.2-.2-.2-.6-.2-1.1-.5-1.7-.7-.1 0-.2-.1-.3 0-.8.9-1.8 1.1-3 .8-1.4-.4-2.7-.7-4.2-.9-.4 0-.9-.1-1.3-.2-.8-.2-1.4-.7-1.7-1.5-.1-.2-.2-.4-.5-.3-.5 0-1 0-1.5 0-.3 0-.4.1-.5.3-.3.8-.8 1.3-1.6 1.5-.5.1-.9.2-1.4.2-1.5.2-2.9.5-4.3.9-1.1.3-2.1.1-2.8-.8-.1-.1-.2-.1-.3-.1-.6.2-1.1.5-1.7.7-.1.1-.2.1-.2.3 0 1.1-.4 1.9-1.3 2.4-1.7.9-3.2 2-4.7 3.2-.2.2-.5.4-.8.4-.6.1-1.2.1-1.8-.2-.1-.1-.2 0-.4.1-.4.4-.8.8-1.2 1.2-.2.2-.2.3-.1.5.4 1 .3 1.9-.3 2.7-1.1 1.4-2.1 2.8-2.9 4.3-.5.9-1.2 1.5-2.2 1.6-.6 0-.8.2-.9.7-.1.2-.2.4-.2.6-.2.4-.4.7.1 1.2.7.6.8 1.6.5 2.5-.5 1.7-.9 3.5-1.1 5.3-.1.8-.5 1.4-1.2 1.8-.4.2-.8.4-.7 1 0 .4.1.8 0 1.1-.1.6.5.5.7.7.8.5 1.1 1.3 1.2 2.2.1 1.5.5 2.9.8 4.4.1.5.3.9.3 1.4 0 .8-.3 1.5-1 2-.1.1-.1.2-.1.3.2.6.4 1.2.7 1.7 0 .1.1.2.2.2 1.2-.1 2 .4 2.6 1.4.6 1.1 1.3 2.1 2 3.1.4.5.8 1 1.2 1.6.5.8.5 1.7.1 2.5-.1.2-.1.3.1.4.4.4.8.8 1.2 1.2.1.1.3.2.4.1 1.1-.5 2-.3 2.9.4 1.2 1 2.4 1.9 3.8 2.6 1.2.6 2 1.4 1.9 2.9 0 .2.1.2.2.3.4.2.9.4 1.4.6.3.1.5.1.7-.1.5-.5 1.1-.8 1.7-.8s1.1.2 1.7.3c1.1.3 2.2.5 3.4.7.5.1 1 .1 1.4.2.9.2 1.5.7 1.8 1.6.1.2.2.4.5.4h1.5c.3 0 .4-.1.4-.3.3-.7.7-1.2 1.5-1.5.6-.2 1.2-.2 1.7-.3 1.4-.2 2.7-.5 4.1-.9 1.1-.3 2.1-.1 2.9.7.1.1.2.2.4.1l1.5-.6c.5-.2.6-.3.5-.6zm-44.7-39.6c-.3.5-.6.7-.9.6s-.5-.5-.4-1c-.3.2-.5.4-.6.7-.3 1.1-.6 2.2-.8 3.3-.1.8-.3 1.5-.4 2.3-.1.5-.2 1 .3 1.5 0-.1.1-.3.1-.4.1-.3.4-.4.6-.4.3 0 .5.2.6.5 0 .1-.1.3.1.4.2 0 .2-.2.3-.3s.1-.2.1-.2c.1-.5.1-1 .2-1.5.2-1.4.5-2.9.9-4.2.1-.6.2-1-.1-1.3zm28.5-24c-.2-.2-.5-.3-.7-.3-.7 0-1.4.1-2.1.2-1.4.2-2.7.6-4 .9-.4.1-.8.3-1 .8.6-.1.8 0 1 .3.2.4 0 .7-.5 1.1.2.1.4.2.7.2.4-.1.8-.2 1.2-.3 1.4-.4 2.9-.7 4.4-.8.4-.1.9 0 1.1-.5-.6-.1-.9-.3-.9-.7-.1-.5.2-.8.8-.9zm5.4 68.1c.1.2.2.2.4.3.4.2.9 0 1.3 0 1.5-.2 3.1-.5 4.6-.9.4-.1 1-.1 1.3-.5.1-.1.2-.1.1-.2 0-.1-.2-.1-.3-.1-.5 0-.8-.3-.7-.8 0-.2.2-.4.4-.5.1 0 .2-.2 0-.2-.2-.1-.4-.2-.6-.1-.8.2-1.6.5-2.4.6-1.2.2-2.4.5-3.6.6-.3 0-.6.2-.7.5.5 0 .9.3.9.7.2.3-.1.5-.7.6zm27.8-49.6c.1-.4.1-.7-.1-.9-.3-.6-.6-1.1-1-1.7-.8-1.2-1.6-2.4-2.5-3.5-.3-.3-.6-.4-1-.5.4.5.4.8.1 1.1s-.6.3-1.2-.1c-.2.6.3 1 .6 1.4 1 1.3 1.9 2.6 2.7 4.1.2.4.4.7.9.8-.1-.4-.2-.8.3-1 .5-.3.7-.2 1.2.3zm-60.9 0c .1-.1.1-.1.2-.2.3-.3.6-.3.9-.2.3.2.3.5.3.8 0 .1-.1.2 0 .2s.2 0 .3-.1c.2-.2.4-.4.5-.7.9-1.6 2-3.2 3.1-4.6.2-.3.3-.5.2-.9-.4.4-.8.5-1.1.2-.3-.2-.3-.6 0-1.2-.3 0-.6.2-.8.4-.6.7-1.1 1.5-1.7 2.2-.6 1-1.3 1.9-1.8 2.9-.2.5-.3.8-.1 1.2zm-2.1 26.1c-.1-.5 0-.8.4-1s .6 0 1 .5c.2-.2.3-.5.2-.8-.6-1.8-.9-3.7-1.1-5.6 0-.4-.1-.8-.5-1-.1.6-.3.8-.7.9-.5 0-.7-.3-.8-.8-.3.2-.4.5-.4.8 0 .6.1 1.2.2 1.8.2 1.3.5 2.7.9 4 .1.4.2.9.8 1.2zm58.5 11.6h.3c.5-.1.7-.6 1-.9 1.2-1.5 2.2-3 3.1-4.7.2-.3.2-.6.1-1-.3.3-.5.7-.9.5-.5-.2-.5-.7-.4-1.1-.4.1-.6.4-.8.7-.9 1.7-2 3.2-3.2 4.7-.2.3-.3.5-.2.9.5-.4.8-.4 1.1-.1.3.2.2.6-.1 1zm-28.6 10.5c-.2-.3-.4-.4-.7-.5-.4-.1-.8-.1-1.3-.2-1.3-.2-2.6-.4-3.9-.8-.5-.1-1-.5-1.6-.1 0 .1.2.1.3.2.2.1.3.3.3.5 0 .5-.2.7-.7.7-.1 0-.2 0-.2.1-.1.1.1.2.1.2.3.3.6.4 1 .5 1.9.6 3.8.9 5.7 1.1.3 0 .7 0 .9-.3-.5-.1-.9-.4-.8-.7 0-.4.4-.7.9-.7zm13.1-65.1c-.2-.5-.5-.6-.9-.7-2-.5-3.9-1-6-1.1-.4 0-.5 0-.8.3.5.1.8.4.8.7 0 .4-.3.6-.9.7.2.2.4.4.7.4.6 0 1.2.1 1.8.2 1.4.2 2.7.6 4.1.9.4.1.4.1.8-.2-.5-.3-.7-.6-.5-1 0-.2.4-.4.9-.2zm22.1 29.8c.1-.6.4-.9.7-.9s.6.3.7.8c.2-.3.4-.5.3-.8-.1-.5-.1-1-.2-1.5-.2-1.6-.6-3.2-1-4.8-.1-.3-.3-.6-.7-.7.1.5 0 .8-.3 1-.2.1-.3.1-.5 0-.3-.1-.5-.3-.6-.6-.1.3-.3.6-.2.9.2.6.3 1.2.5 1.8.3 1.2.5 2.5.7 3.7.2.4.2.8.6 1.1zm-47.5 31.9c-.1-.3-.2-.6-.5-.7-.4-.2-.7-.4-1-.6-1.3-.7-2.5-1.6-3.7-2.5-.3-.3-.7-.5-1.1-.4.3.3.5.7.2 1.1-.3.5-.7.3-1.2 0 0 .4.2.7.4.9.6.5 1.3 1 2 1.5 1 .7 2 1.3 3 1.9.3.2.7.3 1.1.2-.5-.4-.6-.7-.4-1.1.3-.5.7-.6 1.2-.3zm29.8-58.4c.1.3.2.5.5.7.5.3 1.1.6 1.6.9 1.1.7 2.2 1.4 3.2 2.2.4.3.7.4 1.1.3-.4-.4-.4-.7-.2-1.1.1-.2.3-.3.6-.2.2 0 .4.1.6.3 0-.4-.1-.6-.3-.8-1.7-1.3-3.4-2.6-5.3-3.6-.3-.2-.6-.2-.9-.1.5.4.6.7.4 1-.4.6-.9.5-1.3.4zm-30.5-1.3c-.3-.1-.6-.1-.9 0-.7.4-1.3.7-1.9 1.1-1.1.7-2.1 1.4-3.1 2.2-.3.3-.7.6-.7 1.1.6-.4.7-.4 1.1-.1.3.3.3.6-.1 1.1.4.1.8-.1 1.1-.4 1.2-1 2.5-1.8 3.8-2.6.4-.3 1-.4 1.3-.9.1-.1.2-.2.1-.3-.1-.2-.2 0-.2 0-.6.1-.9-.3-.9-.7-.1-.1.2-.3.4-.5zm49.6 33.2c-.1.6-.3.8-.7.8-.2 0-.3-.1-.4-.2-.2-.2-.2-.4-.3-.7-.4.3-.5.7-.5 1.2-.1.8-.2 1.6-.4 2.4-.2 1.1-.5 2.1-.8 3.2-.1.3 0 .5.2.7.2-.5.5-.7.9-.6.3.1.5.5.4 1 .4-.1.6-.4.7-.7.3-.9.5-1.9.7-2.9.2-.9.3-1.7.4-2.6.2-.6.4-1.1-.2-1.6zm-12.8 22.2c-.5-.1-.7.1-1.2.5-1.4 1.1-2.9 2.1-4.4 3-.2.1-.4.2-.5.5 0 .1-.2.2-.1.3s.2 0 .2 0c .3 0 .6 0 .8.4s.1.6-.2.9c-.1 0-.2.1-.2.2.4.1.6.1 1.1-.1 1.7-.9 3.2-2 4.7-3.1.3-.2.6-.4.7-.8 0-.1.1-.2 0-.2-.1-.1-.1 0-.2.1-.6.3-1 0-1.1-.5 0-.8.2-1 .4-1.2zm-46.2-3.7c.1-.3 0-.6-.2-.9-1.1-1.4-2.1-2.8-3-4.4-.2-.3-.3-.7-.6-.9-.1-.1-.2-.2-.3-.1s0 .2 0 .3c0 .3 0 .6-.3.8s-.5 0-.8-.1c-.1-.1-.1-.3-.3-.2s-.1.3-.1.4 0 .3.1.4c.4.8.9 1.5 1.3 2.3.7 1.1 1.4 2 2.2 3 .2.2.6.4.8.3-.3-.4-.3-.8 0-1 .4-.4.7-.3 1.2.1z" fill="#050505"/></svg>