<svg enable-background="new 0 0 113.4 113.3" viewBox="0 0 113.4 113.3" xmlns="http://www.w3.org/2000/svg"><circle cx="56.7" cy="56.7" fill="#fff" r="56.2"/><path d="m0 56.7c0-31.3 25.4-56.7 56.7-56.7s56.7 25.4 56.7 56.7-25.4 56.7-56.8 56.6c-31.3 0-56.6-25.4-56.6-56.6zm112.4.2c0-30.9-24.8-55.9-55.7-55.9-31-.1-56 24.8-56 55.8 0 30.9 24.8 55.9 55.7 55.9 31 0 56-24.9 56-55.8z" fill="#e21b15"/><path d="m112.4 56.9c0 31-25 55.9-56 55.8-30.9-.1-55.8-25-55.7-55.9 0-31 25-55.9 56-55.8 30.9 0 55.8 24.9 55.7 55.9zm-55.8-52.8c-28.9-.2-52.7 23.7-52.8 52.6 0 28.9 23.8 52.7 52.7 52.7s52.7-23.8 52.7-52.7c.1-28.8-23.7-52.7-52.6-52.6z" fill="#fdd600"/><path d="m56.6 4.1c28.9-.2 52.7 23.8 52.7 52.7s-23.8 52.7-52.7 52.7c-29 0-52.8-23.8-52.8-52.8.1-28.9 23.9-52.8 52.8-52.6zm-37.7 26.2c-1.8-.3-3.5-.6-5.2-.9-.4.4-.8.6-.6 1.2 2.3.4 4.6.7 6.8 1.1.9 1 .8 2 .3 3 .3.2.4.5.8.4.8-.7 1-1.6.7-2.6-1.1-2.9-3.1-5.2-4.7-7.9-.4.5-.7.8-.7 1.2.9 1.4 1.9 2.9 2.8 4.3-.1.1-.2.1-.2.2zm14.5-11.3c-1.8-1.5-3.6-3-5.4-4.4-.6.2-1 .4-1.4.9 1.4 2.6 2.7 5.3 4.1 7.9.5 0 .8-.2 1.1-.7-.9-1.8-1.9-3.6-2.8-5.5.1-.1.2-.1.2-.2 1.7 1.4 3.4 2.8 5 4.1.5 0 .8-.2 1-.5-.4-2.1-.8-4.3-1.3-6.5.1 0 .2-.1.3-.1 1.2 1.7 2.4 3.4 3.6 5.1.4-.2.8-.3 1-.8-1.7-2.4-3.4-4.9-5.2-7.4-.5.3-1 .5-1.4 1 .4 2.2.9 4.5 1.3 6.8 0 .2-.1.3-.1.3zm60.1 54.1c1.6 0 3.1.7 4.7.5 0 .1.1.2.3.1-.1 0-.2-.1-.3-.1-1.2-1-2.7-1.3-3.9-2.2 2.6-6.9 3.4-13.9 2.2-21.2-1.7-9.9-6.3-18.2-14.1-24.5-9.9-8.1-21.2-10.9-33.8-8.5-7.8 1.5-14.5 5.1-20.2 10.7-.2 0-.3-.1-.6-.1 0 .2.1.4.1.6-.4.3-.7.7-1.1 1.1-10 11.4-12.9 24.5-8.9 39.1 1.7 6 4.8 11.3 9.1 15.8h58.9c2.6-2.4 5.9-7.3 7.6-11.3zm-88-20.9c3 .6 5.9 1.1 9 1.7.6-3.2 1.2-6.3 1.8-9.4-3.1-.6-6.1-1.2-9-1.7-.2.5-.4.8-.3 1.3 2.5.5 5.1 1 7.7 1.6-.1 1-.2 1.9-.5 2.7-2.6-.5-5.2-1-7.7-1.5-.4.4-.5.8-.3 1.3 2.6.5 5.1 1 7.7 1.6 0 1-.2 1.8-.5 2.7-2.6-.5-5.2-1-7.8-1.5-.2.3-.1.7-.1 1.2zm55.8 46.2c.5.2.8.3 1.2 0 0-.6.1-1.2.1-1.8h5.4c.3.7 0 1.3.3 1.9.4.2.7.2 1.1-.1 0-.9 0-1.8 0-2.8-.1-.4-.8-.2-.9-.7 0-2.4 0-4.9 0-7.4-1.8 0-3.6 0-5.4 0-.1 1.6-.1 3.2-.3 4.7-.2 1.2-.1 2.7-1.6 3.3.1 1 .1 1.9.1 2.9zm-10.5-83.4c1 .3 1.9.2 2.7.2 1.3-.1 2.5-.4 3-1.8s-.1-2.5-1.3-3.2c1.7-1.6 1.5-3.4-.3-4.1-1.3-.5-2.7-.4-4.1 0zm-.9 81.3c.5.2.9.3 1.1-.1 0-2.9 0-5.8 0-8.6-.5-.2-.9-.1-1.4-.1-1.4 2.1-2.9 4.2-4.3 6.4-.1 0-.2-.1-.3-.1 0-2.1 0-4.1 0-6.2-.4-.2-.8-.2-1.1 0v8.8c.5.1.9.2 1.4-.1 1.4-2.1 2.9-4.3 4.3-6.4.1 0 .2.1.2.1.1 2 .1 4.1.1 6.3zm-6.6-79.3c2.5 0 4.3-1.7 4.3-4.2 0-2.9-2-5.4-4.4-5.4s-4.2 1.8-4.2 4.3c-.1 3 1.8 5.3 4.3 5.3zm48.4 16.2c0 2.2 2 4.2 4.1 4.2 2.6 0 5.4-2.4 5.4-4.7s-1.9-4.2-4.2-4.2c-2.6-.1-5.3 2.3-5.3 4.7zm.1-13.2c-2.2 2.1-4.3 4.2-6.5 6.2.6.9 1.2 1.6 1.9 2.1 1 .8 2 1.4 3.3.8s1.5-1.7 1.4-2.9c0-.1.1-.1.1-.3 1.1.1 2.1-.2 2.6-1.3.5-1.2-.2-2.1-.9-2.9-.5-.6-1-1.2-1.9-1.7zm-19-1.6c1-2.9 1.9-5.7 2.9-8.5-1.2-.8-2.4-1.2-3.7-1.3-1.6-.1-2.8 1.2-2.6 2.8.1.7.6 1.1.8 1.7-1.5.7-2.2 2.2-3.4 3.5.6.1 1 .4 1.3.4 1.4-1.1 1.8-3.8 4.6-2.5-.4 1.2-.8 2.4-1.1 3.5.4.3.7.4 1.2.4zm-36.2 74.5c1.3-.2 2.5.1 3.7-.3 1.1-.4 1.8-1.3 1.8-2.6 0-1.2-.7-2.3-1.8-2.5-1.7-.3-3.3-.1-5-.1v8.9c.5 0 .9.2 1.3-.2 0-1 0-2 0-3.2zm27.5-86.2c-.6-.2-1.1-.3-1.7-.1-1.4 2.8-2.9 5.6-4.4 8.5.7.1 1.1.2 1.5 0 .4-.8.8-1.6 1.3-2.4 1 .1 2 .3 3 .4.2 1 .4 2 .6 2.9.5.2.9.3 1.4.1-.5-3.2-1.1-6.3-1.7-9.4zm33.1 39.9c0 .6 0 1 .3 1.4.9.4 2 .2 2.9.8-.1 1 .4 1.9.2 2.9-.9.5-1.7.9-2.7 1.4.2.5.1.9.4 1.3 2.8-1.4 5.7-2.7 8.5-4.1.1-.6.1-1.1-.1-1.6-3.1-.7-6.2-1.4-9.5-2.1zm-19.1 49.7c0-3 0-5.9 0-8.9-.4-.1-.8-.2-1.2.1v3.4c-1.5 0-3 0-4.5 0 0-1.2 0-2.4 0-3.5-.5-.1-.8-.2-1.2 0v8.8c.4.1.8.2 1.2-.1.1-1.3-.1-2.6.2-3.9h4.4v4.1zm-44.2-.1c-1.2-2.9-2.4-5.9-3.6-8.9-.6 0-1-.1-1.5.2-1.1 2.9-2.2 5.8-3.3 8.7.5.1.9.2 1.4 0 .3-.8.6-1.7.9-2.6h3.6c.4.9.7 1.8 1 2.6.7.2 1.1.3 1.5 0zm53.9 0c-1.2-2.9-2.3-5.9-3.5-8.8-.6 0-1-.1-1.5.2-1.1 2.9-2.2 5.8-3.3 8.7.5.2.9.2 1.3 0 .5-.8.5-1.8 1.1-2.6h3.5c.4.9.7 1.8 1.1 2.7.4 0 .8.1 1.3-.2zm-27.2 0c-1.2-2.9-2.4-5.9-3.5-8.8-.6 0-1.1-.1-1.5.1-1.1 2.9-2.2 5.8-3.2 8.7.6.2 1 .3 1.4 0 .3-.8.6-1.7.9-2.6h3.6c.4.9.7 1.8 1.1 2.7.3.1.7.2 1.2-.1zm38.5-55c .4.9.6 1.7 1.1 2.4.8 1 1.9 1.3 3.1.9s1.9-1.3 1.8-2.5c0-1.3-.4-2.6-1.2-3.7-2.9.9-5.7 1.8-8.6 2.6 0 .5.1.9.4 1.3 1.2-.4 2.3-.7 3.4-1zm-72.8-13.4c-.7-.8-1.5-1.6-2.3-2.4.5-.6 1-1.1 1.4-1.6.9-1.3.7-2.7-.4-3.7s-2.3-1-3.6 0c-.8.6-1.6 1.4-2.2 2.4 2.2 2 4.4 4.1 6.6 6.1 0-.2.4-.3.5-.8zm57.8-4.2c-1.7-.7-3.1-1.5-3.2-3.5-.1-1.4 1.1-3.2 2.5-3.8 2-.8 3.3.3 4.6 1.7.3-.2.6-.3.7-.7-1.2-2-3.6-2.9-5.7-2.2-2.2.7-3.7 3.1-3.4 5.4.2 1.9 2.1 3.7 4.2 3.9.4-.1.4-.4.3-.8zm-73.4 13.7c2.5 1.1 4.9 2.2 7.3 3.3.3-.4.6-.7.4-1.3-2.3-1.1-4.7-2.2-7.1-3.3.4-.9.7-1.7 1-2.4-.3-.4-.6-.6-1.1-.3-.9 1.9-1.8 3.9-2.7 5.9.4.2.6.5 1.1.3.4-.6.7-1.3 1.1-2.2z" fill="#df0708"/><path d="m27.9 28.4c0-.2-.1-.4-.1-.6.2 0 .4.1.6.1.5.4 1.1.7 1.7.9.4.2.7.4 1.1.6 17.5 8.9 35 17.8 52.5 26.7 1.2.6 2.6 1.1 3.7 2-.4 0-.8 0-1.1 0-6.8-1.1-13.5-2.2-20.3-3.3-2-.3-4-.6-6.1-1 .3.6.7.6 1 .8 2.4 1.3 4.9 2.5 7.3 3.7 8 4.1 16.1 8.1 24.1 12.2.6.4 1.1.8 1.8.9 1.2.9 2.7 1.3 3.9 2.2-1.6.1-3.1-.5-4.7-.5-.6-.3-1.3-.3-2-.4-5-.8-10.1-1.7-15.1-2.5s-9.9-1.6-14.9-2.4c-.2-.1-.4-.3-.7 0 .2 0 .4.1.6.1.2.2.5.3.7.4 4.9 2.5 9.8 5 14.7 7.5 1.4.7 2.9 1.3 4.1 2.2-.4 0-.8 0-1.1 0-6.2-1-12.5-2.1-18.7-3.1-8.9-1.5-17.8-2.9-26.7-4.4-2.4-.4-4.8-.8-7.2-1.2-1.4-5.2-2.9-10.3-4.2-15.3-.5-2-1.4-4-1.5-6.1.5 0 .9.3 1.3.5 6.2 3.1 12.3 6.2 18.5 9.4.4.2.7.5 1.4.5-.7-2.6-1.4-5.2-2.1-7.7-2.4-.4-4.6-.8-6.8-1.2-.3-1-.5-1.8-.7-2.7-1.5-5.4-3-10.8-4.5-16.2-.2-.6-.4-1.4-.5-2.1zm10.8 15c .5 0 .8.3 1.1.5 5.3 2.7 10.6 5.4 15.9 8.1.8.4 1.5.6 2.4.7 6.3 1 12.6 2.1 18.9 3.1 1.8.3 3.7.6 5.6.9 0-.1.1-.2.1-.3-17.9-9-35.7-18.1-53.8-27.3 1.9 6.8 3.7 13.2 5.4 19.6 2 .3 3.9.6 5.9 1-.2-.9-.5-1.7-.6-2.4-.3-1.3-1-2.5-.9-3.9zm-10.9 25.3c16.1 2.7 32.2 5.3 48.2 8 0-.1.1-.2.1-.3-17.8-9.1-35.6-18.1-53.8-27.3 1.9 6.8 3.7 13.2 5.5 19.6zm65.5 3.5c0-.1.1-.2.1-.3-17.9-9-35.7-18.1-53.8-27.3 1.4 5.1 2.7 9.8 4 14.4 4.7 2.4 9.4 4.8 14.1 7.1.6.3 1.2.4 1.8.5 9.4 1.6 18.8 3.1 28.3 4.7 1.8.3 3.6.6 5.5.9z" fill="#130b0b"/><path d="m27.9 28.4c.2.7.4 1.4.5 2.2-.2.1-.3.3-.5.4-8.4 10.1-11.9 21.5-8.8 34.5 1.5 6.4 4.5 12.1 8.8 17.1h57.2c2.6-3 4.7-6.2 6.3-9.9.7.1 1.4.1 2 .4-1.7 4-5 8.9-7.5 11.3-19.6 0-39.2 0-58.9 0-4.3-4.5-7.4-9.8-9.1-15.8-4-14.6-1.1-27.7 8.9-39.1.3-.4.7-.7 1.1-1.1z" fill="#fcd400"/><path d="m30.1 28.8c-.6-.2-1.2-.5-1.7-.9 5.6-5.6 12.4-9.2 20.2-10.7 12.5-2.4 23.9.4 33.8 8.5 7.8 6.4 12.4 14.6 14.1 24.5 1.2 7.2.4 14.3-2.2 21.2-.7-.1-1.3-.5-1.8-.9 2.4-6.2 3.3-12.6 2.3-19.2-1.4-8.5-4.9-16.1-11.1-22-8.4-8-18.5-11.9-30.1-10.9-9.2.8-16.9 4.4-23.5 10.4z" fill="#fcd100"/><path d="m5.5 52.2c-.1-.6-.1-.9.2-1.3 2.5.5 5.1 1 7.8 1.5.2-.9.5-1.7.5-2.7-2.5-.5-5.1-1-7.7-1.6-.2-.5-.1-.9.3-1.3 2.5.5 5.1 1 7.7 1.5.4-.8.4-1.7.5-2.7-2.6-.5-5.2-1.1-7.7-1.6-.2-.5 0-.8.3-1.3 2.9.6 5.8 1.1 9 1.7-.6 3.1-1.2 6.2-1.8 9.4-3.1-.4-6.1-1-9.1-1.6z" fill="#fcd100"/><path d="m33.6 18.8c-.4-2.3-.9-4.5-1.3-6.8.4-.5.8-.7 1.4-1 1.8 2.5 3.5 5 5.2 7.4-.2.6-.6.6-1 .8-1.2-1.7-2.4-3.4-3.6-5.1-.1 0-.2.1-.3.1.4 2.2.8 4.3 1.3 6.5-.2.4-.5.5-1 .5-1.6-1.3-3.3-2.7-5-4.1-.1.1-.2.1-.2.2 1 1.8 1.9 3.7 2.8 5.5-.2.5-.5.7-1.1.7-1.4-2.6-2.7-5.3-4.1-7.9.4-.5.8-.7 1.4-.9 1.8 1.4 3.6 2.9 5.4 4.4.1.1.1.2.3.1-.2-.2-.2-.3-.2-.4zm.2-4.9c.1-.1.1-.1 0-.2-.1.1-.1.2 0 .2z" fill="#fcd001"/><path d="m61.3 98.4c0-1 0-1.9 0-2.9 1.5-.6 1.4-2 1.6-3.3.2-1.5.2-3.1.3-4.7h5.4v7.4c.1.5.7.3.9.7v2.8c-.4.3-.7.3-1.1.1-.3-.6 0-1.2-.3-1.9-1.8 0-3.6 0-5.4 0-.1.7-.1 1.3-.1 1.8-.5.2-.9.2-1.3 0zm6-9.7c-1 0-1.9 0-2.9 0-.2 2.2-.3 4.4-1.1 6.6 1.4 0 2.7.1 3.9-.1.1-2.2.1-4.3.1-6.5z" fill="#fdd600"/><path d="m50.8 15c0-3 0-6 0-9 1.4-.4 2.7-.5 4.1 0 1.8.7 2 2.5.3 4.1 1.3.7 1.8 1.8 1.3 3.2s-1.7 1.7-3 1.8c-.8.1-1.7.2-2.7-.1zm1.4-4.2c0 1.1-.1 2.1.1 3.2 1 .1 2.1.3 2.7-.7.4-.5.4-1.1 0-1.6-.7-1-1.7-1-2.8-.9zm0-1.3c.9.4 1.8.3 2.5-.5.4-.5.4-1.1 0-1.6-.7-.8-1.6-.6-2.5-.4z" fill="#fbc801"/><path d="m49.9 96.3c0-2.1 0-4.2 0-6.3-.1 0-.2-.1-.2-.1-1.4 2.1-2.9 4.3-4.3 6.4-.5.2-.9.1-1.4.1 0-3 0-5.9 0-8.8.3-.3.7-.2 1.1 0v6.2c.1 0 .2.1.3.1 1.4-2.1 2.9-4.3 4.3-6.4.5-.1.9-.1 1.4.1v8.6c-.3.4-.7.2-1.2.1z" fill="#fcd300"/><path d="m43.3 17c-2.5 0-4.4-2.3-4.4-5.2 0-2.4 1.8-4.3 4.2-4.3 2.5 0 4.5 2.4 4.4 5.4.1 2.4-1.7 4.1-4.2 4.1zm-2.9-5c0 1 .4 2.4 1.7 3.3 1.5 1.1 3.7.3 4-1.6.2-1.4-.1-2.6-.9-3.8-.8-1.1-2-1.6-3.1-1.2-1 .4-1.7 1.4-1.7 3.3z" fill="#fcd001"/><path d="m91.7 33.2c0-2.4 2.6-4.7 5.4-4.7 2.3 0 4.2 2 4.2 4.2 0 2.3-2.8 4.7-5.4 4.7-2.2 0-4.2-2-4.2-4.2zm3.9 2.8c2.1 0 4.4-1.8 4.4-3.6.1-1.4-1.3-2.7-2.7-2.7-2.1 0-4.3 1.9-4.3 3.7 0 1.6 1.1 2.6 2.6 2.6z" fill="#fcd101"/><path d="m91.8 20c .8.5 1.4 1.1 1.9 1.7.7.8 1.4 1.7.9 2.9s-1.5 1.5-2.6 1.3c-.1.1-.1.2-.1.3.1 1.2-.1 2.3-1.4 2.9s-2.3 0-3.3-.8c-.7-.6-1.3-1.3-1.9-2.1 2.2-2.1 4.3-4.1 6.5-6.2zm-2.5 4.2c-.8.8-1.6 1.5-2.4 2.3.6.9 1.3 1.5 2.2 1.7 2.2-.8 2.3-2.1.2-4zm .8-.7c.8.8 1.4 1.7 2.5 1.4.5-.1 1-.6 1-1.2 0-1-.6-1.6-1.4-2.1-.9.5-1.4 1.2-2.1 1.9z" fill="#fcd001"/><path d="m72.8 18.4c-.5 0-.9-.1-1.2-.5.4-1.1.7-2.3 1.1-3.5-2.7-1.3-3.1 1.4-4.6 2.5-.4.1-.7-.3-1.3-.4 1.2-1.3 1.8-2.8 3.4-3.5-.3-.6-.8-1-.8-1.7-.1-1.5 1.1-2.9 2.6-2.8 1.3.1 2.5.5 3.7 1.3-.9 2.9-1.9 5.7-2.9 8.6zm1.3-8c-1-.5-1.9-1-2.8-.3-.6.4-.8 1-.6 1.6.4 1 1.3 1.4 2.4 1.6.4-1 .7-2 1-2.9z" fill="#fcd001"/><path d="m36.6 92.9v3.2c-.5.4-.9.2-1.3.2 0-2.9 0-5.8 0-8.9 1.7 0 3.3-.2 5 .1 1.1.2 1.8 1.3 1.8 2.5s-.7 2.2-1.8 2.6-2.3.1-3.7.3zm.1-1.3c1 .1 2 .2 2.9 0 .7-.2 1.1-.6 1.1-1.4 0-.7-.3-1.3-1.1-1.4-1-.1-2-.2-2.9.1z" fill="#fbcc01"/><path d="m64.1 6.7c.6 3.2 1.1 6.3 1.7 9.4-.5.2-.9.1-1.4-.1-.2-.9-.4-1.9-.6-2.9-1-.1-2-.3-3-.4-.5.9-.9 1.7-1.3 2.4-.4.3-.8.1-1.5 0 1.5-2.9 3-5.7 4.4-8.5.6-.2 1.1-.1 1.7.1zm-1 1.3c-.6 1.3-1.2 2.4-1.7 3.6.9.1 1.6.2 2.3.3 0-1.3-.4-2.5-.6-3.9z" fill="#fcd001"/><path d="m97.2 46.6c3.3.7 6.4 1.3 9.5 2 .2.6.3 1.1.1 1.6-2.8 1.4-5.6 2.7-8.5 4.1-.3-.4-.2-.8-.4-1.3.9-.5 1.8-.9 2.7-1.4.2-1-.3-1.9-.2-2.9-.9-.6-2-.4-2.9-.8-.2-.3-.3-.7-.3-1.3zm4.2 2.2c.2.9.1 1.7.5 2.4 1.2-.5 2.2-1.1 3.5-1.7-1.5-.2-2.6-.4-4-.7z" fill="#fcd100"/><path d="m78.1 96.3c-.4 0-.8 0-1.2 0 0-1.4 0-2.7 0-4.1-1.5 0-2.9 0-4.4 0-.3 1.3 0 2.6-.2 3.9-.3.3-.7.2-1.2.1 0-2.9 0-5.8 0-8.8.3-.2.7-.2 1.2 0v3.5h4.5c0-1.2 0-2.3 0-3.4.4-.3.8-.2 1.2-.1.1 3 .1 5.9.1 8.9z" fill="#fdd900"/><path d="m33.9 96.2c-.5.3-.9.2-1.4.1-.3-.8-.7-1.7-1-2.6-1.2 0-2.3 0-3.6 0-.3.9-.6 1.7-.9 2.6-.5.2-.9.2-1.4 0 1.1-3 2.2-5.9 3.3-8.7.5-.3.9-.1 1.5-.2 1.2 2.9 2.4 5.9 3.5 8.8zm-2.8-3.7c-.4-1.2-.8-2.3-1.3-3.4-.1 0-.2.1-.3.1-.4 1.1-.8 2.1-1.2 3.3 1 .1 1.8.2 2.8 0z" fill="#fcd100"/><path d="m87.8 96.2c-.5.3-.9.2-1.3.2-.4-.9-.7-1.7-1.1-2.7-1.2 0-2.3 0-3.5 0-.6.8-.6 1.8-1.1 2.6-.4.2-.8.1-1.3 0 1.1-2.9 2.2-5.8 3.3-8.7.5-.3 1-.1 1.5-.2 1.1 2.9 2.3 5.9 3.5 8.8zm-5.5-3.7c.9 0 1.7.1 2.6-.1-.4-1.2-.8-2.4-1.5-3.7-.2 1.5-.9 2.5-1.1 3.8z" fill="#fcd201"/><path d="m60.6 96.2c-.5.3-.9.2-1.3.2-.4-.9-.7-1.8-1.1-2.7-1.2 0-2.4 0-3.6 0-.3.9-.6 1.7-.9 2.6-.4.2-.8.2-1.4 0 1.1-2.9 2.2-5.8 3.2-8.7.5-.3.9-.2 1.5-.1 1.2 2.8 2.4 5.7 3.6 8.7zm-4.3-7.6c-.3 1.6-1.1 2.6-1.2 3.9.9.1 1.7.1 2.6 0-.4-1.3-.8-2.4-1.4-3.9z" fill="#fcd201"/><path d="m99.1 41.2c-1.1.3-2.2.6-3.2.9-.3-.3-.4-.7-.4-1.3 2.8-.9 5.7-1.7 8.6-2.6.8 1.1 1.2 2.4 1.2 3.7 0 1.2-.6 2.1-1.8 2.5s-2.3.1-3.1-.9c-.7-.6-.9-1.5-1.3-2.3zm4.4-1.4c-1.1.3-2.2.5-3.1 1 .1 1 .3 2 1.4 2.3.7.3 1.5.1 2-.5.6-.9.2-1.8-.3-2.8z" fill="#fcd001"/><path d="m26.3 27.8c-.1.5-.5.7-.5.8-2.2-2.1-4.4-4.1-6.6-6.1.6-1 1.3-1.8 2.2-2.4 1.3-1 2.5-1 3.6 0 1.1 1.1 1.3 2.4.4 3.7-.4.6-.9 1.1-1.4 1.6.8.8 1.5 1.6 2.3 2.4zm-5.6-5.7c.9.8 1.6 1.5 2.5 2.3.8-.6 1.6-1.2 1.4-2.4-.1-.8-.6-1.4-1.4-1.6-1.1-.1-1.7.8-2.5 1.7z" fill="#fcd001"/><path d="m19 30.1c-.9-1.4-1.9-2.8-2.8-4.3 0-.4.3-.7.7-1.2 1.6 2.7 3.6 5 4.7 7.9.3 1 .1 1.9-.7 2.6-.4.1-.5-.2-.8-.4.5-1 .6-2-.3-3-2.2-.4-4.5-.7-6.8-1.1-.2-.6.3-.8.6-1.2 1.7.3 3.5.6 5.2.9.1.1.1.2.3 0 0-.1 0-.1-.1-.2z" fill="#fcd001"/><path d="m84.1 23.6c0 .4 0 .7-.3.8-2.1-.2-4-2-4.2-3.9-.3-2.3 1.2-4.6 3.4-5.4 2.1-.7 4.5.3 5.7 2.2-.1.4-.4.5-.7.7-1.3-1.4-2.6-2.4-4.6-1.7-1.4.5-2.6 2.3-2.5 3.8.1 2 1.6 2.8 3.2 3.5z" fill="#fcd101"/><path d="m10.7 37.3c-.4.9-.8 1.6-1.1 2.3-.5.2-.7-.1-1.1-.3.9-2 1.8-4 2.7-5.9.5-.2.8 0 1.1.3-.3.7-.6 1.5-1 2.4 2.4 1.1 4.8 2.2 7.1 3.3.2.5-.1.9-.4 1.3-2.4-1.2-4.7-2.3-7.3-3.4z" fill="#fcd101"/><path d="m98.1 73.7c.1 0 .2.1.3.1-.2 0-.2 0-.3-.1z" fill="#130b0b"/><path d="m30.1 28.8c6.6-6.1 14.4-9.6 23.3-10.4 11.7-1 21.8 2.9 30.1 10.9 6.2 5.9 9.7 13.5 11.1 22 1.1 6.6.2 13-2.3 19.2-8-4.1-16.1-8.1-24.1-12.2-2.4-1.2-4.9-2.5-7.3-3.7-.3-.2-.7-.2-1-.8 2.1.3 4.1.7 6.1 1 6.7 1.1 13.5 2.2 20.2 3.3.4.1.7 0 1.1 0 0 .1.1.2.3.1-.1 0-.2-.1-.3-.1-1.1-.9-2.4-1.4-3.7-2-17.5-8.9-35-17.8-52.5-26.7-.3-.1-.7-.4-1-.6z" fill="#df0508"/><path d="m91.5 72.7c-1.6 3.6-3.8 6.9-6.3 9.9-19.1 0-38.1 0-57.2 0-4.3-5-7.4-10.7-8.8-17.1-3-13 .5-24.4 8.8-34.5.1-.2.3-.3.5-.4l4.5 16.2c.2.8.5 1.7.7 2.7 2.2.4 4.4.7 6.8 1.2.7 2.5 1.4 5.1 2.1 7.7-.7 0-1-.3-1.4-.5-6.2-3.1-12.3-6.2-18.5-9.4-.4-.2-.8-.5-1.3-.5 0 0-.1-.1 0 0-.1 0 0 0 0 0 .2 2.1 1 4.1 1.5 6.1 1.4 5.1 2.8 10.2 4.2 15.3 2.4.4 4.8.8 7.2 1.2 8.9 1.5 17.8 2.9 26.7 4.4 6.2 1 12.5 2.1 18.7 3.1.4.1.7 0 1.1 0 0 .1.1.2.3.1-.1 0-.2-.1-.3-.1-1.2-1-2.7-1.5-4.1-2.2-4.9-2.5-9.8-5-14.7-7.5-.3-.1-.5-.3-.7-.4l.1-.1c5 .8 9.9 1.6 14.9 2.4 5.1.7 10.1 1.6 15.2 2.4z" fill="#de0508"/><path d="m27.8 68.7c-1.8-6.4-3.5-12.8-5.4-19.6 18.1 9.2 35.9 18.3 53.8 27.3 0 .1-.1.2-.1.3-16.1-2.6-32.2-5.3-48.3-8z" fill="#fcfcfc"/><path d="m93.3 72.2c-1.9-.3-3.7-.6-5.6-.9-9.4-1.6-18.8-3.1-28.3-4.7-.6-.1-1.2-.2-1.8-.5-4.7-2.4-9.3-4.7-14.1-7.1-1.3-4.7-2.6-9.4-4-14.4 18.1 9.2 35.9 18.3 53.8 27.3z" fill="#fcfcfc"/><path d="m38.7 43.4c-.1 1.4.6 2.6.9 3.9.2.8.4 1.5.6 2.4-2-.3-3.9-.6-5.9-1-1.8-6.4-3.5-12.8-5.4-19.6 18.1 9.2 35.9 18.3 53.7 27.3 0 .1-.1.2-.1.3-1.9-.3-3.7-.6-5.6-.9-6.3-1-12.6-2.1-18.9-3.1-.8-.1-1.6-.4-2.4-.7-5.3-2.7-10.6-5.4-15.9-8.1-.2-.2-.6-.5-1-.5-.1 0-.1 0 0 0-.1 0-.2.2 0 0z" fill="#fbfbfb"/><path d="m61.4 68c-.2 0-.4-.1-.6-.1.3-.3.5-.2.7 0-.1 0-.1 0-.1.1z" fill="#de0508"/><path d="m33.6 18.8c0 .1.1.1.1.2-.1.2-.2 0-.3-.1 0 .1.1 0 .2-.1z" fill="#df0708"/><path d="m33.8 13.9c-.1-.1-.1-.1 0-.2.1.1.1.2 0 .2z" fill="#df0708"/><path d="m67.3 88.7v6.5c-1.3.3-2.5.1-3.9.1.8-2.2.8-4.4 1.1-6.6z" fill="#e10e08"/><path d="m52.2 10.8c1.1-.1 2.2-.1 2.8.8.4.5.4 1.1 0 1.6-.7 1-1.7.8-2.7.7-.3-1-.1-2-.1-3.1z" fill="#e00c08"/><path d="m52.2 9.5c0-.8 0-1.6 0-2.5.9-.2 1.8-.4 2.5.4.4.5.4 1.1 0 1.6-.7.8-1.6.9-2.5.5z" fill="#e10d08"/><path d="m40.4 12c0-1.9.7-2.9 1.7-3.2 1.2-.4 2.3 0 3.1 1.2.8 1.1 1.1 2.4.9 3.8-.3 1.9-2.5 2.7-4 1.6-1.3-1-1.7-2.3-1.7-3.4z" fill="#e00808"/><path d="m95.6 36c-1.6 0-2.6-1.1-2.6-2.6 0-1.8 2.2-3.7 4.3-3.7 1.5 0 2.8 1.3 2.7 2.7 0 1.8-2.3 3.6-4.4 3.6z" fill="#e00908"/><path d="m89.3 24.2c2 1.9 2 3.2-.1 3.9-.9-.2-1.7-.8-2.2-1.7.8-.7 1.5-1.4 2.3-2.2z" fill="#e00c08"/><path d="m90.1 23.5c.7-.7 1.2-1.4 2.1-1.8.8.5 1.4 1.1 1.4 2.1 0 .6-.4 1-1 1.2-1.2.1-1.8-.7-2.5-1.5z" fill="#e11108"/><path d="m74.1 10.4c-.3 1-.6 1.9-1 2.9-1.1-.2-2-.5-2.4-1.6-.3-.6 0-1.3.6-1.6 1-.7 1.9-.2 2.8.3z" fill="#e00c08"/><path d="m36.7 91.6c0-1 0-1.9 0-2.8 1-.3 2-.2 2.9-.1.8.1 1.1.7 1.1 1.4 0 .8-.4 1.3-1.1 1.4-1 .2-1.9.1-2.9.1z" fill="#e00c08"/><g fill="#e11308"><path d="m63.1 8c .2 1.4.6 2.6.6 3.9-.8-.1-1.4-.2-2.3-.3.5-1.2 1.1-2.3 1.7-3.6z"/><path d="m101.4 48.8c1.4.3 2.6.5 4 .7-1.3.6-2.3 1.1-3.5 1.7-.4-.7-.3-1.5-.5-2.4z"/><path d="m31.1 92.5c-1 .2-1.8.2-2.7 0 .4-1.2.8-2.2 1.2-3.3.1 0 .2-.1.3-.1.3 1.1.8 2.2 1.2 3.4z"/><path d="m82.3 92.5c.2-1.3.8-2.4 1.1-3.8.7 1.3 1 2.5 1.5 3.7-.9.3-1.7.2-2.6.1z"/><path d="m56.3 88.6c.6 1.5 1 2.6 1.5 3.9-.9.2-1.7.1-2.6 0 0-1.3.8-2.3 1.1-3.9z"/></g><path d="m103.5 39.8c.5 1 .9 1.9.2 2.8-.5.7-1.3.8-2 .5-1-.4-1.3-1.3-1.4-2.3 1-.5 2.1-.7 3.2-1z" fill="#e10d08"/><path d="m20.7 22.1c.7-1 1.4-1.8 2.5-1.6.8.1 1.3.7 1.4 1.6.1 1.2-.7 1.8-1.4 2.4-.8-.8-1.6-1.6-2.5-2.4z" fill="#e00908"/><path d="m19 30.1c0 .1.1.1.1.2-.1.1-.2.1-.3 0 .1-.1.2-.1.2-.2z" fill="#df0708"/><path d="m87.4 58.2c.1 0 .2.1.3.1-.2.1-.3 0-.3-.1z" fill="#130b0b"/><path d="m80.9 78.2c.1 0 .2.1.3.1-.2 0-.3 0-.3-.1z" fill="#130b0b"/><path d="m21.5 47.9c-.1 0-.1 0 0 0z" fill="#130b0b"/><path d="m38.7 43.4c-.2.2-.1 0 0 0-.1 0-.1 0 0 0z" fill="#130b0b"/></svg>