<svg enable-background="new 0 0 113.4 113.4" viewBox="0 0 113.4 113.4" xmlns="http://www.w3.org/2000/svg"><circle cx="56.7" cy="56.7" fill="#ffaf3a" r="56.7"/><circle cx="56.7" cy="56.7" fill="#474646" r="55.1"/><g fill="#eaed7a"><path d="m28.2 88.6c-.1 1.3-.1 2-.1 3.3-.9 0-1.4 0-2.3 0 .2.6.3 1.2.3 1.7 0 .6-.1 1.2-.4 1.9-.1.3-.2.6-.2.8 0 .1 0 .3.1.5.3 0 .5 0 .8-.1 0 .1 0 .2.1.3-.8.1-1.2.1-2 .2-.1-.3-.2-.6-.2-.9 0-.2.2-.7.4-1.5.2-.4.2-.8.3-1.2 0-.4 0-.7-.1-1s-.2-.6-.5-.9c-.2 0-.3 0-.5 0-.7.8-1 1.2-1.6 2 .2.3.4.7.6 1.2h.9v.3c-.8 0-1.3 0-2.1 0-.3-.6-.6-1.1-.8-1.5-.3-.4-.6-.7-.9-1-.4-.4-.9-.7-1.4-.9-.3-.1-.6-.2-1.1-.3 0-.1 0-.1 0-.2.7-.1 1.3 0 1.7.1.5.1 1 .4 1.5.7l.2-.2c.3-.3.4-.6.5-.8s.1-.6.1-1-.1-.7-.2-1.1c-.1-.2-.2-.5-.3-.8.1-.1.1-.1.2-.2.3.1.8.3 1.3.3.5.1.8.1 1.3.2.4-.4.6-.7.7-.9s.1-.4.1-.7c0-.2-.1-.4-.3-.6-.1-.1-.2-.2-.3-.2s-.3-.1-.5-.1c0-.1 0-.1 0-.2.4 0 .8 0 1 .1s.5.2.7.5c.3.3.5.5.5.8s.1.6 0 .9c-.1.2-.2.4-.4.7 1.2-.2 1.8-.2 2.9-.2zm-4.5 0c-.6-.1-1-.1-1.6-.2.1.3.2.5.2.7s.1.5.1.9c.5-.5.8-.8 1.3-1.4zm2.3.2c-.3 0-.5 0-.8 0-1.4 1.6-2.1 2.4-3.5 4.1.2.2.3.4.5.6 1.5-1.9 2.3-2.9 3.8-4.7zm1.1 0c-.3 0-.4 0-.7 0-.9 1.1-1.3 1.6-2.2 2.6 1.1.1 1.7.1 2.8.2 0-1.1 0-1.7.1-2.8z"/><path d="m31.9 94.2c.1 1 .2 1.5.4 2.6-1.3.2-1.9.3-3.3.3-.2.4-.4.6-.6 1 .4.5.6.7.9 1.2.5 0 .7-.1 1.2-.1v.2c-1 .1-1.5.1-2.4.2-.2-.4-.5-.7-.6-.9s-.4-.5-.8-.9c0-.1.1-.1.1-.1.2 0 .3 0 .4-.1s.3-.3.5-.6c.8-1.2 1.1-1.8 1.9-3 .4.1.7.1 1 .2zm-1.1.2c-.7.9-1 1.4-1.5 2.4.8-.1 1.2-.1 1.9-.2-.2-.9-.3-1.3-.4-2.2z"/><path d="m35.4 98.6c.4.5.6.7.9 1.2-.4 1-.6 1.4-1 2.4-.3-.1-.6-.2-1-.1-.3 0-.7.1-1.2.2-.2-.3-.4-.5-.6-.7s-.4-.3-.6-.4c-.3-.2-.7-.2-1.1-.2-.1 0-.2 0-.3 0l-.1-.1c0-.1 0-.1 0-.2 0 0 .1-.1.2-.1s.2-.1.4-.1c.3-.1.5-.2.8-.4.5-.2.7-.3 1.2-.6-.3-.5-.5-.7-.8-1.2.4-.8.6-1.2 1.1-2 .4.1.7.1 1 0 .3 0 .6-.2.9-.3.3.4.6.7.8.9.2.1.3.3.5.3.2.1.4.1.5.1s.2-.1.3-.2c0-.1 0-.2 0-.2-.1-.2-.1-.3 0-.5.1-.1.1-.2.2-.2s.2-.1.2 0c .1 0 .2.1.2.3v.4c-.1.2-.2.3-.3.4s-.3.3-.6.4c-.7.3-1 .5-1.6.9zm-1.1.6c-.9.5-1.3.7-2.2 1.1.2 0 .4.1.5.1.2 0 .3.1.4.1.4.2.8.6 1.1 1 .3-.7.4-1 .7-1.6-.1-.2-.3-.4-.5-.7zm-.7-1c .2.3.3.4.5.7.8-.4 1.1-.6 1.9-1.1-.3 0-.5-.1-.6-.2-.4-.2-.8-.5-1-1-.3.7-.4 1-.8 1.6z"/><path d="m38 98c .9-.6 1.3-.8 2.2-1.4.1 0 .1 0 .1.1-.3.6-.4.9-.6 1.6.4.2.6.2 1 .4-.1.3-.1.4-.2.7-.4-.1-.6-.2-1.1-.4-.6 1.6-.9 2.3-1.4 3.9.2.3.3.4.5.7.2-.1.3-.1.5-.2 0 .1 0 .1.1.2-.6.2-1 .4-1.6.6-.3-.6-.6-1.1-1.1-1.5v-.1c.2 0 .3-.1.4-.2s.2-.3.3-.6c.5-1.3.8-2 1.3-3.3-.2-.1-.3-.1-.5-.2 0-.2 0-.2.1-.3z"/><path d="m45.1 99.5c.3.4.4.7.7 1.1-.2.1-.3.2-.5.4-.3 1.3-.5 2-.8 3.3-.1.3-.1.6-.1.7s.1.2.1.2h.1c.1 0 .2-.1.4-.2 0 .1.1.1.1.2-.6.3-.9.5-1.5.8-.3-.3-.4-.6-.5-.8 0-.2 0-.6.1-1.1.3-1.3.5-2 .8-3.3-.1-.2-.2-.3-.3-.6.7-.3.9-.4 1.4-.7zm.9-1.9c.3.1.4.1.6.1-.4.5-.6.7-1 1.1-.1 0-.1 0-.2 0 .2-.5.3-.7.6-1.2z"/><path d="m50.5 100.5c.2.4.4.6.6 1 .2-.2.4-.3.6-.5.1.1.1.1.1.2-.3.2-.5.4-.5.5-.1.2-.2.4-.2.7-.1 1.2-.2 1.8-.3 2.9 0 .3 0 .5.1.6 0 .1.1.1.2.1s.2-.1.4-.2c.1.1.1.1.1.2-.6.4-.8.6-1.4.9-.3-.3-.5-.5-.6-.8-.1-.2-.1-.5 0-1 .2-1.3.3-2 .4-3.3-.2-.3-.2-.4-.4-.6-.4.3-.6.4-1.1.7-.2 1.3-.3 2-.5 3.4.1.2.2.3.4.5-.5.3-.7.4-1.2.7-.4-.4-.6-.6-.9-1.1.2-.1.3-.2.5-.3.2-1.2.3-1.9.6-3.1.1-.4.1-.7 0-.9 0-.1-.1-.2-.2-.2s-.2 0-.4.2c0-.1-.1-.1-.1-.2.5-.3.8-.5 1.3-.8.3.3.4.6.5.7.1.2.1.4 0 .7v.2c.9-.4 1.2-.7 2-1.2z"/><path d="m59.8 98.2c.3-.1 1.1.1 1.4.2.5.1 1 .4 1.4.7s.8.7 1.1 1.1.5.9.6 1.5c.1.5 0 1.1-.1 1.6-.2.5-.5 1.2-1.1 1.9s-1.2 1.3-1.8 1.7-1.3.6-1.9.6c-.7 0-1.4-.1-2-.4s-1.1-.8-1.5-1.4c-.3-.6-.5-1.3-.5-2 0-.4.1-.8.1-1.2.1-.4.2-1.1.4-1.3s.8-.5 1.2-.8c.3-.2.9-.7 1.8-1.5.5-.3.7-.7.9-.7zm-2.1 2.1c-.3.3-.5.5-.6.7-.2.2-.3.5-.4.9-.1.3-.2.7-.2 1.1 0 .9.3 1.7 1 2.4.2-.2.3-.4.3-.5.1-.2.1-.5.1-1-.1-1.5-.1-2.2-.2-3.6zm1.8-.9c-.2 0-.5 0-.7 0 .1 1.5.1 2.2.2 3.6v.8c0 .2-.1.3-.3.5-.4.5-.6.7-1.1 1.1.4.3.7.5 1.1.7.3.1.8.2 1.2.2-.1-2.7-.2-4.1-.4-6.9zm.3 1.6c.3.2.5.4.8.5.2.1.5.1.8.1s.5-.1.7-.2.4-.3.6-.6c-.2-.3-.5-.5-.6-.6-.4-.2-.7-.4-1.1-.5s-.8-.2-1.2-.2zm.2 2.6.7-.7c.2-.1.5-.2.8-.2s.6 0 .9.1.6.3.9.5c.1-.4.1-.8 0-1.1 0-.3-.1-.5-.1-.7 0-.1-.1-.3-.3-.5-.3.3-.5.6-.8.7-.2.1-.5.2-.8.2s-.5 0-.7-.1-.5-.2-.8-.5c.1 1 .1 1.4.2 2.3zm.2 2.7c.5-.1.9-.2 1.2-.3.5-.3.8-.6 1.1-1s .5-.9.7-1.4c-.6-.5-1.2-.7-1.7-.6-.3 0-.6.2-.9.4-.2.1-.4.4-.6.7.1.9.1 1.3.2 2.2z"/><path d="m66.6 97.6c0 .1 0 .1 0 0-.1.3-.3.6-.3.8s0 .5.1.9c.2.8.3 1.3.4 2.1.6-.7.9-1.1 1.4-1.9.4.2.6.4.8.6s.3.5.4.9c.4 1.4.6 2.2.9 3.6-.4.3-.8.6-1.1.9-.2.2-.4.4-.6.7-.4-.2-.8-.4-1.2-.4-.4-.1-.9-.1-1.6-.2v-.1c.1-.2.2-.3.2-.5 0-.3 0-.8-.2-1.7-.3-1.4-.4-2.1-.6-3.5-.1-.5-.2-.8-.3-1s-.3-.4-.5-.5c0-.1 0-.1.1-.2.3.1.5.2.6.2.1.1.2.1.3.2.3-.4.5-.6.6-.7.2 0 .3-.1.6-.2zm.8 7.1c.7.1 1 .2 1.7.3-.3-1.3-.5-2-.8-3.4-.1-.3-.1-.5-.2-.6s-.2-.2-.5-.3c-.3.4-.5.6-.8 1 .2 1.2.3 1.8.6 3z"/><path d="m71.3 96.3c0 .1 0 .1.1.2-.2.2-.3.5-.4.8 0 .3 0 .6.2 1.1.7 2.1 1 3.1 1.6 5.2.3.1.5.2.8.3.1-.1.1-.2.2-.3l.2.2c-.3.5-.5.8-.9 1.3-.5-.2-.8-.3-1-.4s-.5-.1-.8-.1c0-.1 0-.1 0-.1.1-.1.2-.2.2-.3s0-.3 0-.4c0 0-.1-.3-.2-.7-.5-1.7-.7-2.5-1.2-4.2-.1-.4-.2-.6-.3-.7s-.1-.3-.3-.4c-.1-.1-.3-.2-.5-.3 0-.1 0-.1 0-.1.3 0 .7.1 1 .4.2-.4.3-.7.5-.8s.6-.6.8-.7z"/><path d="m73.8 97.8c.5.2.7.3 1.2.5-.1.2-.1.4-.2.6.5 1.2.7 1.9 1.2 3.1.1.3.2.5.3.6s.2.1.2.1.1 0 .1-.1c0 0 .1-.2.2-.3.1 0 .1.1.2.1-.3.6-.5.9-.8 1.5-.4-.1-.7-.2-.8-.4-.2-.2-.3-.5-.5-1-.5-1.3-.7-1.9-1.2-3.2-.2-.1-.3-.2-.6-.3.3-.4.4-.7.7-1.2zm-.4-2.1c.2-.1.4-.1.6-.2-.1.6-.1.9-.2 1.5-.1 0-.1 0-.2.1-.1-.6-.1-.8-.2-1.4z"/><path d="m77.7 97.8c.4-.8.6-1.3.9-2.1.5.1.8.3 1 .4.2.2.4.4.6.7.7 1.3 1 2 1.7 3.3-.3.2-.5.5-.7.8s-.4.7-.6 1.1c-.6-.1-1-.2-1.5-.1-.4 0-.8.1-1.3.3 0-.1 0-.1-.1-.1.1-.1.2-.3.2-.4s-.1-.4-.2-.7c-.4-1-.7-1.5-1.1-2.5-.1-.1-.1-.2-.2-.3s-.2-.2-.4-.3-.3-.2-.4-.3-.2-.2-.2-.4c-.1-.3-.2-.6-.1-.9s.2-.7.6-1.1c.1 0 .1.1.2.1-.2.4-.3.8-.1 1 0 .1.1.2.2.2.1.1.2.2.5.3.2.1.5.3.6.4s.2.3.4.6zm.1.3c.5 1.1.7 1.6 1.2 2.7h1.8c-.6-1.2-.9-1.9-1.5-3.1-.1-.3-.3-.5-.4-.6s-.3-.2-.6-.2c-.2.5-.3.8-.5 1.2z"/><path d="m81.2 94.3c.5.1.8.2 1.3.3-.1.3-.1.4-.1.6.7 1.2 1 1.7 1.7 2.9.2.3.3.5.4.5.1.1.2.1.2 0l .1-.1c0-.1.1-.2.2-.4.1 0 .1 0 .2.1-.2.6-.4 1-.6 1.6-.4 0-.7-.1-.9-.2s-.4-.4-.7-.9c-.7-1.2-1-1.8-1.7-3-.2-.1-.4-.1-.6-.2.3-.4.4-.7.5-1.2zm-.7-2c .2-.1.4-.2.6-.4v1.5c-.1 0-.1.1-.2.1-.1-.4-.2-.7-.4-1.2z"/><path d="m87 91.5c1.1 1.5 1.7 2.2 2.8 3.7-.4.6-.6 1-.7 1.3-.1.2-.2.5-.3.7-.7.1-1.3.1-1.7.3-.3.1-.6.2-1 .4 0 0-.1 0-.1-.1.1-.2.1-.4.1-.5s-.1-.4-.3-.6c-.7-1.1-1.1-1.7-1.8-2.8.5-.6.7-1.2.9-1.9.6 0 1.3-.1 2.1-.5zm0 4.9c.7-.1 1-.2 1.7-.4-.9-1.3-1.4-1.9-2.3-3.2-.5.1-.9.2-1.1.2-.1 0-.3.1-.5.2.9 1.3 1.4 2 2.2 3.2z"/><path d="m90 87.8c.5.1.7.1 1.2.1 0-.3 0-.5 0-.8h.2c0 .4 0 .6.1.8s.2.4.4.6c.8.8 1.2 1.3 2 2.1.2.2.4.3.5.3h.2s.1-.2.1-.5h.2c-.1.7-.1 1.1-.2 1.8-.4.1-.8.1-1 0s-.5-.3-.8-.6c-.9-1-1.4-1.5-2.3-2.5-.3 0-.5 0-.8-.1-.1.5-.1.8-.2 1.3.9 1 1.3 1.5 2.2 2.6h.7c-.1.6-.2.8-.3 1.4-.6 0-.9 0-1.4.1 0-.3.1-.4.1-.6-.8-1-1.2-1.5-2-2.4-.3-.3-.5-.5-.7-.6-.1 0-.2 0-.3 0s-.1.2-.1.4c-.1 0-.1 0-.2-.1.1-.6.2-1 .3-1.6.4 0 .7 0 .9.1s.3.2.5.4c.1.1.1.1.1.2.4-1 .5-1.5.6-2.4z"/><path d="m79.2 75.6h.4s.1 0 .1.1c0 0 0 .1-.1.2-.2.1-.4.2-.6.2s-.3.1-.4.1c-.2.1-.3.1-.4.3-.2.3-.3.3-.6.2l-.1-.1c.5-.5 1.1-.7 1.7-1z"/><path d="m77.7 80.6c0-.4 0-.7 0-1.1 0-.2-.1-.4-.2-.6 0-.1-.1-.1-.2-.2s-.2-.2-.3-.3v-.1c.3.1.5.2.7.4v1.9c-.1.1 0 0 0 0z"/><path d="m75.2 53.3s0 .1 0 0c .1.1.1.1 0 0 .1 0 .1 0 0 0zm1.5 22.5c.1 0 .1 0 0 0zm-34.2-25.2c-.1 0-.2 0-.3 0s-.2 0-.2 0c-.3 0-.5.1-.7.2-.1 0-.2.1-.3.2h.3s.2 0 .3-.1h.4c.2-.1.3-.1.5-.1h.2c-.2 0-.2-.1-.2-.2.1.1.1.1 0 0 .3 0 .5 0 .7.1 0 0 .1 0 .1.1.1 0 .2 0 .3-.1s.2-.2.2-.4c.1-.3.2-.5.3-.7.1 0 .3-.1.4-.1h.5c.1 0 .3-.1.3-.2s0-.2 0-.2c.2-.1.4-.2.6-.4.1-.1.2-.2.2-.3s.1-.2-.1-.2c-.1.1-.3.3-.4.5-.1.1-.2.2-.4.3s-.4.2-.6.3c-.3.2-.6.3-1 .3-.3.1-.5.2-.6.4-.1 0-.1.1-.1.2l-.1.1-.1.1c-.2-.1-.2-.1-.2.2zm33.4 24.3c.1 0 .3.1.5.1 0-.3.1-.5.1-.8h.1s.1 0 .1-.1c0 0 0-.1-.1-.1-.2 0-.4-.1-.6-.2-.1 0-.3-.1-.4-.1-.1-.1-.3-.2-.4-.2s-.1-.1-.2-.1c-.5-.2-1-.4-1.5-.5-.1 0-.3-.1-.4-.1 0-.1-.1-.1-.2-.1 0-.1-.1-.1-.2-.1l-.1-.1c0-.1 0-.1-.1-.2 0-.1-.1-.1-.2-.1-.1-.1-.2-.2-.3-.2-.3 0-.6 0-1-.2h-.1c0-.1-.1-.1-.2-.1 0 0 0-.1-.1-.1s-.2-.1-.3-.1c-.4 0-.8 0-1.2 0-.1 0-.3 0-.5 0s-.3 0-.4-.1-.2-.1-.3-.1c0-.1-.1-.2-.2-.2 0-.1-.1-.1-.2-.1l-.1-.1c-.2-.2-.3-.3-.6-.3.1.1.2.1.2.2.1.3.3.6.4 1 .1.2.2.3.3.4h.4c.2.1.5.1.7.2s.4.1.6 0 .4-.1.6-.2h.1c.2.1.4.1.6.3.3.3.6.7.9 1.1.1.2.2.3.4.4.3.1.6.2 1 0h .2.6c.3 0 .6.1.9.2h.1c.2.2.4.2.6.2.2.5.4.5.5.5zm1.8 5.7s0 .1.1.1c0-.4 0-1.6 0-1.9-.2-.2-.4-.4-.7-.4v.1l.3.3.2.2c.1.2.2.4.2.6-.1.3-.1.6-.1 1zm-13.2-50c-.3-.1-.6-.3-.9-.4 0-.1-.1-.2-.3-.2v-.1c0-.1 0-.1-.1-.2-.2-.4-.4-.7-.4-1.2 0-.1 0-.2-.1-.2-.1-.1-.2-.2-.3-.3 0-.2-.1-.3-.1-.5s-.1-.3-.2-.3-.2-.1-.3-.2c-.2-.1-.5-.3-.8-.3-.1.2 0 .3.1.5s.2.4.3.5.2.2.3.2c.2.1.3.3.3.5 0 .3.1.6 0 .8v.1c0 .1 0 .2.1.3v.2c.2.3.3.5.7.5h.1c.2 0 .4.1.7.1.1 0 .2.1.2.1.3 0 .5.1.8.3h.1c.1-.1 0-.2-.2-.2zm11.8 44.6c-.2.2-.3.4-.3.7v.4l.2-.2c.1-.2.2-.3.3-.5 0-.1.1-.1.2-.1.1-.1.3-.2.5-.4 0 .2.2.2.3.2.3 0 .7-.1.9-.3l.9-.9c.1-.1.1-.1 0-.2 0 .2-.2.2-.3.1-.3 0-.6 0-.8.1-.1 0-.3.1-.4 0-.1 0-.2 0-.2.1s-.2.1-.2.2v.2c0 .1-.1.2-.1.3-.1.1-.3.2-.4.4 0-.1 0-.2-.1-.2-.3 0-.4.1-.5.1zm-.3-33c .2-.2.2-.4.1-.6 0 0 0-.1-.1-.1-.1-.2-.1-.3-.1-.5s0-.4-.2-.6c-.1-.1-.2-.3-.3-.4-.1-.2-.3-.3-.5-.4-.2 0-.3-.1-.3-.3 0-.1-.1-.1-.2-.2-.2 0-.2-.1-.2-.3 0 0 0 0 0-.1.1-.2.2-.5.3-.7.1-.1.1-.2.1-.3 0-.2.1-.4.1-.6 0-.1 0-.2 0-.3 0-.2 0-.3 0-.5 0-.3-.1-.5-.2-.7-.2-.3-.3-.5-.4-.9 0-.1-.1-.3-.1-.4s0-.2-.2-.3h-.1s0-.1-.1-.1c-.1-.2-.2-.2-.3-.2-.2 0-.3.1-.5.1-.2.1-.5.1-.7.1 0-.1-.1-.1-.2-.1 0-.1-.1-.1-.2-.1 0 0 0-.1-.1-.1.2.2 0 .2-.1.2s-.3 0-.4-.1h-.1v-.1c0-.1 0-.1-.1-.2s-.1-.1-.2-.2c-.1-.2-.2-.3-.3-.5-.2-.2-.4-.5-.4-.8 0-.2-.1-.3-.1-.4 0-.2-.1-.4-.2-.6 0-.1-.1-.2-.2-.3 0 0-.1 0-.2 0 0 0 0 .1.1.1.2.2.3.3.2.6 0 .1.1.9.1 1.1s.1.3.2.4.1.2.1.3c-.1.2-.1.5-.4.6-.1.1-.2.2-.3.2v.1s0 .1.1.1.2 0 .3-.1c.2-.2.4-.2.7-.2s.5 0 .8 0 .1 0 .1.1c.3 0 .5.1.8.2 0 .2.2.4.2.6.1.1.2.2.3.3.3.1.6.3.8.6v.2c0 .4.1.7.4.9.1 0 .1.1.2.1.1.1.3.2.3.4 0 .1.1.2 0 .2-.1.2-.1.4-.1.6v.7.2.1c-.1.4-.1.4.2.6 0 0 .1 0 .1.1.1.1.3.2.3.4.1.3.3.6.5.8.2.1.2.3.3.5s.2.5.2.7c0 .1.2.1.2.1zm-39.2-9.8s.1 0 0 0c .1.1.1 0 0 0 .3 0 .3-.2.5-.2.2-.1.3-.3.4-.5l.1-.1s.1 0 .1-.1c0 0 .1 0 0-.1v.1l-.1.1-.1.1c-.1 0-.2.1-.2.1-.1.1-.2.2-.3.3-.1 0-.2.1-.4.3.1-.1.1-.1 0 0zm15.8 47c-.1-.1-.2-.2-.3-.2 0 .1.1.2.2.2zm.9.4c-.1 0-.1 0-.2-.1-.2-.1-.3-.2-.5-.3h-.1v.1c.1.1.3.2.4.3.2.1.4.2.5.3h.5c.1 0 .1 0 .3-.2-.2 0-.4 0-.6 0 0 0-.1 0-.3-.1zm-.3-10.5c0-.1 0-.1 0-.2-.1 0-.1.1 0 .2zm.1-.4c.2-.2.4-.5.5-.7.1-.4.3-.8.5-1.1v-.1c-.5.2-.4.2-.6.6 0 .1-.1.2-.1.3s0 .1-.1.2c-.2.2-.1.5-.2.8-.1-.1-.1 0 0 0-.1 0 0 0 0 0zm18-17.5s0 .1 0 0zm8.2-11.5c0-.3-.1-.5-.2-.7 0-.1 0-.1-.1-.2 0-.2-.1-.4-.2-.6-.1-.3-.3-.5-.4-.8v-.1c-.3-.5-.7-1-1-1.4-.1-.1-.1-.2-.1-.3-.2-.3-.3-.7-.5-1-.1-.1-.1-.2-.2-.3-.1-.2-.2-.3-.4-.4-.1-.1-.2-.2-.3-.2-.1-.1-.2-.1-.2 0 0 0 0 .1-.1.2v.1c.1.1.1.3.1.4.1.1.3.2.2.4v.1c.1.2.1.4.2.5v.1.4.5c0 .3 0 .6-.1.9 0 .1-.1.2-.1.3 0 .2-.1.3-.2.4-.1.2-.1.3-.1.5 0 .1.1.3 0 .4.1.2.1.4.2.6 0 .1 0 .1.1.2.1.2.2.5.2.7 0 0 0 .1.1.1 0 .1-.1.1 0 .2v.2c0 .2 0 .3.1.4 0 0 0 .1.1.1-.1.1-.1.1-.2.2v.4c.1.2.1.3 0 .5-.1.1 0 .2 0 .3-.3 0-.7 0-1-.2-.1 0-.1-.1-.2-.1-.1-.1-.2-.1-.2-.2h-.1c0-.2-.1-.3-.3-.3 0-.1 0-.1-.2-.2 0-.2-.3-.2-.3-.4 0 0 0 0-.1 0h-.1c0-.1-.1-.1-.2-.1l-.1-.1c-.1-.1-.2-.2-.4-.2-.3 0-.6 0-.9 0-.1 0-.3 0-.4 0s-.1 0-.2 0c0-.2 0-.4 0-.6s-.1-.4-.1-.6l-.1-.1c0-.2 0-.3 0-.5 0-.1 0-.2 0-.2 0-.2-.1-.4-.1-.6s-.1-.3-.2-.5c.1 0 .1-.1.1-.1-.1-.1-.1-.2-.1-.3 0 0 0-.1-.1-.1 0-.1 0-.1 0-.2s0-.3 0-.4 0-.1-.1-.1c0-.1 0-.2 0-.3 0-.3-.1-.6-.4-.8-.2-.2-.4-.3-.7-.4-.1 0-.2-.1-.3-.1-.1.1-.2 0-.4 0s-.4 0-.6.1c-.1.1-.2 0-.4 0-.2-.1-.3 0-.4.1-.1-.2-.3-.2-.5-.1.2.3.4.6.7.8h.3l-.1.1.7.7v.1c.1.3.2.5.2.8v.2c.1.2.2.4.3.5s.2.2.3.3c.2.1.3.3.5.4h.1c.1.1.1.1.2.2l.1.1c0 .1.1.3.2.4.1.2.2.5.2.7 0 .1 0 .2.1.3v.3c0 .2.1.4 0 .6.2.2.2.4.3.6s.2.3.3.4.2.1.3.1h.1c0 .1 0 .1.2.2h.1c.1.1.1.2.3.2s.3.1.5.1c.1.1.3 0 .5.1.2.2.4.2.6.3 0 .1.1.1.2.1l.1.1c.2.2.5.4.5.8l.1.1s0 .1.1.2c0 .1 0 .2.1.2 0 .1 0 .2.1.3.2 0 .4.1.6.2h.1s.1 0 .1-.1h.1l.1.1c.1.2.3.3.4.3h.1c.1 0 .2.1.3.1.2.1.5.1.7.2h.1c.1-.1.2 0 .4-.1.3-.1.7-.1.9-.5 0-.1.1-.1.2-.1 0 0 .1 0 .1-.1.1-.1.2-.2.1-.4.1-.1.2-.2.2-.3s0-.1 0-.2c0-.3 0-.5-.1-.8 0-.4-.1-.7-.2-1 .1-.1.2-.3.1-.4 0-.1 0-.1-.1-.2 0-.2-.1-.5 0-.7-.1-.2-.1-.3-.1-.5 0-.1-.1-.2-.1-.2.1 0 .2 0 .2-.1v-.1c-.1-.1-.1-.3-.1-.4s0-.1-.1-.2c.1.1.1-.1 0-.3zm-.3-2.4c-.1 0 0 0 0 0zm .1.1c.1.2.2.2.3.3s.1.2.2.2.1.1.1.2c0 .3.1.6-.1.8v.2c.1.1 0 .4.2.5v.1s0 .2 0 .4c0 .1 0 .1.1.2h.1s0 0 0-.1c0-.2-.1-.3.1-.4 0-.1 0-.2.1-.4l-.1-.1c.1-.1.2-.1.1-.2 0-.3 0-.5 0-.8s-.1-.6-.5-.7c-.2-.1-.4-.2-.6-.2zm-10.9 39.1c.2 0 .5.1.7.2.2.2.4.3.6.5.1 0 .1 0 .2.1 0 .1 0 .2-.1.2s-.3 0-.4-.1h-.1-.1c-.1-.2-.4-.3-.5-.5-.1-.1-.2-.2-.4-.2-.1 0-.1 0-.2.1.3.3.3.3.5.7v.1l.1.1c.2 0 .3.1.5.1s.4.1.6.2l.3.3c.1-.2.1-.3 0-.4s0-.2-.1-.4c.2 0 .4.2.4.4s.1.3.2.5l.3.3c.1 0 .3 0 .4.1l1.2.3h.2c.2-.1.5-.2.7-.2.8-.2 1.5-.5 2.2-1 .1 0 .1-.1.2-.1.1-.1.2-.2.1-.4 0-.1-.1-.2 0-.2 0 .1.1.1.1.2s.1.2.1.2c.2.1.3.2.3.4 0 .1.1.1.1.1s.1 0 .1-.1c0-.2 0-.4 0-.5-.2-.2-.3-.3-.5-.5-.2-.1-.3-.3-.5-.6v.2s0 .1-.1.1-.1 0-.2.1c-.1 0-.2 0-.2 0-.4 0-.8 0-1.2-.2-.1 0-.1 0-.2 0-.1-.1-.1-.1-.2-.2-.5-.2-1-.4-1.5-.5-.2-.2-.4-.4-.6-.6 0 0-.1 0-.1-.1s0-.1-.1-.2c-.1 0-.2-.1-.3-.1s-.1.1-.2.1c-.3.1-.5.1-.8 0-.2-.1-.3-.1-.5-.1-.2-.2-.4-.4-.6-.6-.1-.1-.3-.1-.4-.1s-.1.1-.1.2c-.1.1-.2.1-.3.2-.2 0-.3.2-.4.4s-.2.5-.3.8v.4c.1.2.2.3.4.4.3-.2.5-.1.7-.1zm-17-19.4c0-.1 0-.2 0-.3-.1-.2-.1-.4-.1-.7 0-.2 0-.4 0-.7-.1-.3 0-.6-.2-.8 0-.3-.1-.6-.2-1 0-.3-.2-.5-.4-.6-.1-.1-.2-.1-.3-.2-.3-.1-.5-.4-.7-.7l-.1-.1c0-.1-.1-.1-.2-.1-.3 0-.6 0-.8 0-.1 0-.2 0-.3 0-.2.1-.4 0-.5.1-.2.1-.4.1-.5.1-.3 0-.7.1-1 .1-.4.1-.8.2-1.2.3-.1 0-.3.1-.4.2-.4.1-.9.3-1.3.4-.1 0-.2.1-.3.2-.2 0-.4.1-.6.3-.1 0-.1 0-.2.1-.1 0-.1 0-.2.1-.1 0-.1 0-.2.1l-.1.1c-.1 0-.3.1-.4.1-.2.1-.4.2-.7.2s-.6.1-1 .1h-.1c-.2.1-.4 0-.5.2l-.1.1c-.1 0-.1 0-.2.1-.1 0-.1.1-.1.2l-.1.1c-.1.1-.3.2-.4.3s-.2.2-.4.3c-.1.1-.3.1-.3.3l-.1.1c-.1 0-.3.1-.4.2s-.3.2-.5.2c-.3 0-.4.2-.5.5s-.1.3-.3.5c0 .1-.1.1-.1.1-.2.1-.4.2-.7.2-.1 0-.2 0-.3.1-.3.3-.5.6-.6.9s-.2.6-.4.9c-.1.3-.2.5-.3.8s-.2.7-.2 1-.1.7-.1 1v .1c-.1.3-.2.6-.4.8-.2.3-.2.6-.3 1v .4.5c-.1.3-.1.6-.1.9v.2.3 1.6.2c.1.1 0 .3.1.4 0 .1.1.3.1.4 0 .3.1.6.1.9v.1c.1.2.2.4.3.5.2.2.4.4.6.5 0 0 .1 0 .1.1.2.1.4.2.7.3.2.1.4.2.7.2h.3 1.1c.4 0 .8 0 1.2-.1.3 0 .5 0 .7-.1s.5 0 .7-.1.4 0 .5-.1c.4-.1.8-.3 1.2-.2.2-.1.4-.1.5-.1s.2 0 .3 0c .3-.1.6-.1.9-.1h.3c.2-.1.5-.1.7-.2s.5-.1.7-.2c.6-.2 1.2-.4 1.8-.5.2-.1.5-.1.7-.2s.4-.1.6-.2c.4-.1.8-.2 1.1-.4.1 0 .1-.1.2-.1s.1 0 .2-.1c.5-.2.9-.5 1.3-.9 0-.1.1-.1.1-.1.3-.2.5-.5.6-.8 0-.1.1-.2.1-.3.1-.1.1-.2.1-.3.1-.4.2-.7.2-1.1 0-.1 0-.1 0-.2s0-.2 0-.3c0-1 0-1.9 0-2.9 0-.1 0-.1 0-.2-.1-.3-.1-.6-.1-.9.7-1.2.7-2.7.7-4.1zm1 21.4c.2.1.3.2.5.4s.5.3.7.5h.1c.3 0 .5 0 .8.1.2 0 .3-.1.4-.1.3 0 .5-.2.6-.5.1-.2.2-.4.3-.6s.1-.5.1-.7c0-.3.1-.5.1-.7s.1-.5.1-.7c0-.1 0-.3 0-.4s0-.3.1-.4c.1 0 .1-.1.1-.1 0-.2 0-.4 0-.6s0-.3.1-.5c0-.2 0-.4 0-.7.1.2.1.2.1.4v.3c0 .5-.1.9.1 1.4v.1.7.2c-.1.1-.1.3-.1.5s0 .5 0 .7 0 .3.1.5c0 .4.3.6.6.8.4.3.9.4 1.3.6.4.1.7.2 1.1 0 .2-.1.3-.1.5-.1 0 0 .1 0 .1-.1s0-.1 0-.2c.1 0 .2-.1.2-.1.1-.1.1-.2.2-.2.3-.2.5-.4.7-.7.2-.2.3-.5.4-.7.1-.1.1-.3.1-.4 0-.2 0-.4.1-.7v-.1c-.1-.2-.1-.3-.1-.5l-.1-.1c0-.1.1-.1.1-.1 0-.3.1-.6-.1-.8v-.1c0-.1 0-.2-.1-.3-.1-.3-.3-.6-.3-.9v-.1c-.1-.1-.1-.3-.1-.4 0-.2 0-.4 0-.5 0-.3-.1-.6-.1-.9 0-.1 0-.2-.1-.3-.2-.2-.2-.5-.3-.8-.1-.1-.1-.3-.2-.4-.2-.2-.3-.3-.4-.5s-.1-.2-.3-.3c0-.1.1-.1.1-.2-.1-.1-.1-.2-.2-.2 0-.2 0-.3-.2-.5 0 0-.1-.1-.1-.2-.1-.1-.1-.2-.2-.3 0-.1-.1-.2-.1-.3-.2-.4-.3-.9-.4-1.3s-.2-.7-.3-1c0-.1-.1-.2-.2-.3s-.2-.2-.2-.2c-.1-.1-.1-.2-.2-.2-.1-.1-.2-.1-.2-.1l-.1-.1c-.3-.1-.6-.1-1-.1-.1 0-.1.1-.2.2-.3.1-.5.2-.8.2-.1 0-.2.1-.3.1v.1l-.1.1c-.1.1-.1.2-.2.3-.1.2-.1.4-.2.6-.1.4-.2.8-.5 1.1-.1.2-.3.4-.4.7s-.2.5-.3.8c-.1.2-.2.3-.3.5-.2.4-.4.8-.5 1.2-.1.2-.1.4-.2.6-.3.5-.5 1-.9 1.5-.2.3-.3.7-.3 1 0 .2 0 .4-.1.6s-.1.4-.2.6c-.1.4-.3.8-.4 1.2-.1.2-.1.4-.1.6v.9s.2.6.5.8c.7-.1 1 .1 1.4.4zm-.4-18c .1-.5.2-.9.4-1.4.1-.2.1-.4.1-.5 0-.7-.1-1.3.1-2-.1-.3 0-.7-.1-.9 0-.4 0-.7 0-1 0-.2-.1-.3-.2-.3 0 0-.1 0-.1.1v.1c.1.2.1.4 0 .6-.1.1-.1.3-.1.4 0 .2-.1.4-.1.5 0 .2-.1.3-.2.5-.1.3-.3.5-.1.8v.1c0 .4.2.7.2 1.1.1.1 0 .3 0 .4-.1.3-.2.6-.1.8 0 .3.1.5.2.7-.1 0-.1 0 0 0zm22.2-10.7c.3 0 .6.1.9.1h.1c.3.1.7.1 1-.1h.2c.3.1.5.1.8.2.2 0 .3.1.4.2l.1.1c.1 0 .1.1.2.1.1.1.2 0 .2.1.1 0 .3 0 .4.2h.2c.1 0 .1 0 .2.1s.2.1.3.1c.2 0 .4.1.5.1.2.1.4.1.6 0 .1-.1.2-.2.2-.2.1-.2.2-.4 0-.7.1 0 .2 0 .2-.1s0-.3 0-.4c-.1-.1 0-.3-.1-.4-.1-.2-.1-.3-.1-.5-.1-.3-.3-.5-.5-.5-.2-.1-.4-.1-.7-.1s-.6 0-.8 0c-.1 0-.1 0-.2 0-.2-.1-.3-.1-.5-.1h-.1c-.1 0-.2-.1-.4-.1-.7-.2-1.3-.4-1.9-.8-.1 0-.2 0-.2-.1 0 0 0-.1-.1-.1-.2-.1-.4-.2-.5-.4-.2-.3-.6-.3-.9-.5-.1-.1-.3-.1-.5 0v1.3.1c.1.2.1.4.1.5s0 .1.1.1c0 .1-.1.1-.1.2s0 .1.1.2c0 .1.1.2.1.3s.2.1.1.2c0 .1.1.2.1.3l.1.1c.1 0 .2.1.3.2-.2.2-.1.3.1.3zm.6 2.2c.1 0 .1.1 0 0 .2.2.3.2.4.3.2.1.4.2.5.4.1.1.2.1.3.1 0 .1 0 .3.1.3.1.1.2.1.2.2.1.2.2.2.4.3.1.1.2.2.4.3.3.1.6.3 1 .3.1 0 .2.1.3.1.1.1.3.1.4.2.5.2.6.2.9.5s.6.6.8 1.1c0 .1.1.3.2.4 0 .3.1.6.1.9.1.1.2.2.3.3 0-.1.1-.1.1-.2.1-.1.2-.1.3-.1.1.1.3.2.4.3-.1.1 0 .2.1.2 0 .3-.1.6 0 .9.2 0 .3-.1.4-.2.2-.2.4-.3.5-.5l.1-.1c.1 0 .2-.2.3-.3.1-.2.3-.3.4-.5 0 0 .1 0 .1-.1-.1.1-.1.2-.2.3-.4.5-.6 1-.8 1.6v.2 1.1c0 .4.2.8.3 1.1s.2.5.3.8c.2.4.2.8.3 1.2.1.8.2 1.6.2 2.3v3.2c0 .7-.1 1.5-.3 2.2 0 .2-.1.3-.1.5 0 .4-.2.7-.6.9-.3.1-.4.3-.4.7 0 .3 0 .6.1.9.1.5.1 1.1-.1 1.6-.1.4-.4.8-.7 1.1l-.1.1c-.4.4-.8.7-1 1.2-.1.2-.2.3-.4.4-.1.1-.3.1-.4.1-.2 0-.3 0-.5 0s-.4 0-.6.1c-.1 0-.2.1-.3.2s-.1.1-.1.3c0 .6-.1 1.2-.2 1.8v.9c0 .6-.1 1.1-.1 1.7v.5c0 .4 0 .7-.1 1 0 .1 0 .3-.1.4-.1.2-.1.5-.1.7 0 .4-.1.9-.1 1.3 0 .2-.1.3-.1.4 0-.3-.1-.5-.1-.8-.1-.2-.1-.4-.1-.6 0-1.1 0-2.2 0-3.4 0-.4.1-.7.1-1.1 0-.3.1-.5.1-.8 0-.2 0-.4-.1-.5-.1-.2-.2-.4-.2-.6 0-.1 0-.3 0-.4-.3-.1-.5 0-.7.2 0 0 0 .1-.1.1-.1.2-.2.3-.4.4-.3 0-.5 0-.8-.1-.2 0-.5 0-.7.2l-.1.1h-.1c-.1.1-.1.2-.1.4v.8c0 .1 0 .2-.1.3-.1.2-.2.4-.4.6s-.5.4-.8.6c-.1.1-.2.2-.3.3-.1 0-.1 0-.2.1-.1 0-.1 0-.2.1-.1 0-.1 0-.2.1-.1 0-.1 0-.2 0-.3.1-.5.1-.8.2-.1 0-.1.1-.2.1s-.1 0-.2.1l-.1.1c-.1 0-.1.1-.2.1-.2.3-.3.6-.5.9 0 .1-.1.2-.1.3-.1.2-.2.3-.4.4-.5.5-.8 1.1-.8 1.8v.3c-.1-.1-.1-.1-.1-.2s-.1-.3-.1-.4c0-.4-.1-.7-.1-1.1 0-.2 0-.4-.1-.6s-.2-.5-.4-.6-.4-.2-.6-.3c-.1.1-.2.2-.3.3-.2.1-.4.3-.6.5s-.3.4-.4.7c-.1.2-.1.4-.2.5-.1.2-.1.4-.1.7-.1-.3-.3-.5-.4-.7-.2-.3-.3-.6-.5-1-.1-.3-.4-.5-.6-.7-.1-.1-.2-.2-.3-.2 0-.1-.1-.1-.2-.1l-.1-.1c0-.1-.1-.1-.2-.1 0-.1-.1-.1-.2-.1l-.1-.1c-.3-.1-.6-.2-1-.2-.1 0-.1 0-.2 0-.2-.1-.4-.1-.5-.1-.7 0-1.4 0-2.1 0 0-.3-.1-.5-.2-.7-.1-.3-.2-.5-.3-.7 0-.1 0-.2-.1-.2-.2 0-.4.1-.6.1-.1 0-.3.1-.4.2 0 0 0 .1-.1.1s-.1 0-.2.1c-.1 0-.1.1-.1.2l-.1.1-.1.1c-.1.2-.3.5-.4.7 0 .1-.1.2-.2.3-.2.2-.4.4-.6.6-.1 0-.1 0-.2.1-.1 0-.1 0-.2 0-.3.1-.6.1-.9.1-.3-.2-.7 0-1 0-.1 0-.2 0-.2.1l-.1.1c-.1 0-.2 0-.3.2 0 0-.1 0-.1.1-.1.2-.2.5-.3.7-.1.3-.2.7-.4 1-.2.4-.4.8-.6 1.2-.1.1-.2.3-.3.4-.1.2-.3.4-.4.5s-.2.3-.3.4c-.3.4-.6.8-.8 1.2-.2.5-.4 1-.4 1.5v1.8c0 .3.1.6-.1 1 0 .3-.1.6-.2.8l-.1.1c-.2-.3-.3-.6-.3-1s-.1-.8.1-1.2c0-.5.1-1-.1-1.5 0-.4-.2-.7-.3-1.1-.2-.5-.4-.9-.6-1.4-.3-.6-.6-1.2-.9-1.7-.1-.3-.3-.6-.5-.8-.3-.4-.5-.8-.8-1.2-.4-.5-.8-1.1-1.3-1.5-.2-.2-.5-.4-.7-.7-.3-.3-.6-.5-.9-.8-.1-.1-.2-.2-.3-.2 0-.2-.1-.2-.3-.2 0-.2 0-.2-.3-.2v-.1c-.3-.2-.6-.4-1-.5h-.1c-.1-.1-.2-.1-.3-.2-.7-.2-1.4-.4-2.1-.6-.2-.1-.4-.2-.7-.1-.5-.1-1.1-.1-1.6-.2-.4 0-.8-.1-1.2-.2-.6-.2-1.1-.4-1.5-.9-.2-.2-.3-.4-.4-.7s-.2-.6-.2-.9c0-.5 0-1 .1-1.5.1-.4.1-.8.1-1.3.1-.3 0-.6.1-1v-.1c-.1-.1-.1-.1-.2-.1-.2 0-.3 0-.5 0-.4 0-.6-.2-.6-.5 0-.1 0-.2 0-.3 0-.2 0-.4-.1-.6 0-.2-.1-.3-.2-.5-.2-.2-.4-.4-.7-.6-.1 0-.2-.1-.3-.1-.1-.1-.2-.2-.3-.3s-.1-.3-.2-.4c-.2-.6-.2-1.1-.1-1.7 0-.2 0-.4.1-.5 0-.2 0-.4.1-.6 0-.4 0-.7-.1-1-.1-.2-.2-.5-.2-.7-.1-.3-.1-.5-.2-.8 0-.2 0-.4 0-.6.1-.9.4-1.7.6-2.5.2-.7.4-1.3.7-2 .1-.4.3-.7.4-1.1.1-.3.1-.5-.1-.7-.1-.3-.3-.6-.5-.8-.1-.2-.2-.3-.3-.5-.2-.3-.3-.7-.4-1.1 0-.2 0-.4-.1-.6 0-.6.1-1.2.2-1.8.1-.5.3-1.1.3-1.6 0-.3 0-.6 0-.8 0 0 0-.1-.1-.1-.1-.1-.2-.2-.2-.4 0-.3-.1-.6-.3-.9-.1-.1-.2-.3-.3-.4-.2-.3-.3-.6-.3-1 0-.3-.1-.6-.2-.8s-.1-.4-.1-.6c.1-.3 0-.6 0-.8 0-.3-.1-.6-.2-.8-.1-.4-.1-.9 0-1.3 0-.4 0-.7 0-1.1 0-.2 0-.2.1-.5-.1-.8-.1-1.6.1-2.5.2-.5.3-1 .6-1.5.4-.9.7-1.7 1.1-2.6.4-1 1-2 1.8-2.8.5-.5 1-.9 1.6-1.3.2-.1.3-.2.5-.3 1-.8 2-1.5 3.1-2.3.1-.1.2-.2.3-.4.2-.3.4-.6.6-.9.4-.6 1-1.1 1.5-1.5.1-.1.2-.2.3-.3s.2-.2.3-.2c.8-.5 1.5-1 2.3-1.5.6-.3 1.2-.8 1.8-1.1.3-.2.6-.4.9-.6.6-.3 1.2-.5 1.8-.7.2 0 .4-.1.6-.3.3-.2.6-.4.9-.6.6-.4 1.2-.6 1.9-.8.6-.1 1.3-.2 2-.3.5-.1 1-.1 1.5-.1.4 0 .8-.1 1.2 0 .5 0 .9 0 1.4-.1h.2c.5 0 .9-.1 1.4-.1h.5.8 1c .6 0 1.1 0 1.7.2.3.1.5.1.8.1.9.1 1.6.4 2.3 1 .2.2.4.3.7.5.2.1.4.3.5.4s.2.2.3.3c.3.4.7.6 1.2.8.3.1.5.2.7.3s.4.3.5.6c.2.7.7 1 1.2 1.3.2.1.4.2.6.3.4.2.7.5.9.9v.1c.3.6.6 1.2.9 1.7.5.9 1.1 1.8 1.7 2.6.1.1.2.2.3.3.6.5 1.2 1 1.9 1.4.3.2.5.4.7.6.8.7 1.4 1.5 1.9 2.4.3.6.6 1.2.9 1.8.2.3.3.7.5 1 .2.5.5.9.6 1.5.1.3.1.7.1 1v1.2s0 .9 0 1.3c.1.5 0 1.1 0 1.6 0 .4 0 .9-.1 1.3 0 .1 0 .2.1.3 0 .1.1.2.1.3.1.3.2.7.2 1v .4h-.1c-.2-.4-.3-.9-.4-1.3 0-.1 0-.1-.1-.2 0-.1 0-.2-.1-.3s-.1-.2-.1-.3-.1-.2-.1-.3c-.1-.1-.2-.2-.2-.4 0-.1-.1-.3-.2-.4-.1-.2-.1-.4-.3-.6-.1-.4-.2-.7-.2-1.1 0-.2 0-.3 0-.5s0-.3-.1-.4c0-.2-.1-.3 0-.4v-.1c-.1-.4-.2-.8-.4-1.1 0 0 0 0-.1 0v .1c0 .1.1.2 0 .3 0 .4-.1.8.1 1.1v.1.2.5c-.1.2 0 .3 0 .5v.3c-.1.3-.1.6-.2.8-.1.1-.1.2-.2.3s-.2.2-.3.3c-.3.1-.5.2-.8.2-.1 0-.1 0-.1.1v.1c-.1 0-.2 0-.3 0-.2.1-.3 0-.5 0-.1-.1-.3-.1-.4-.1-.1-.1-.2-.1-.4-.1-.2-.2-.4-.2-.6-.1 0 .1.1.2.2.2s.3 0 .4.1h.1v.1c.2 0 .3.1.5.1 0 0 0 0 .1-.1.2 0 .3 0 .5.1h.2.4c.3-.1.6-.1.9 0 .3 0 .6.2.8.3v.1l.1.1c0 .1 0 .1.1.2 0 .1 0 .1.1.2 0 .1 0 .1.1.2v.1c0 .3.1.6.1 1 .1.1.1.2.1.4 0 .3 0 .5-.1.8 0 .3 0 .5-.2.8-.1.1 0 .3.2.4.2-.2.2-.2.3-.4.1-.3.3-.7.2-1.1h.1c.1.3.1.5.1.8l-.1.1c0 .1 0 .2.1.3v.2c-.1 0-.1.1-.1.1v.4c0 .2-.1.2-.2.2-.2 0-.3 0-.5 0-.3 0-.5 0-.8 0 0 0 0 0-.1 0l-.1-.1c-.2-.1-.5-.1-.8-.1s0-.1-.1-.1l-.1-.1c.1 0 .1-.1.1-.2-.3 0-.5-.1-.8-.2-.1 0-.1 0-.2 0-.2-.2-.5-.3-.8-.3 0 0 0-.1-.1-.1s-.2-.1-.3-.1c-.2-.1-.3-.2-.5-.2-.1 0-.2 0-.3-.1-.2-.1-.5-.2-.8-.2-.1 0-.3-.1-.4-.1s-.1 0-.2 0c-.1-.2-.3-.2-.5-.2s-.4 0-.5 0-.2 0-.3 0c-.5-.1-1.1-.3-1.6-.4-.4-.1-.8-.2-1.2-.4-.5-.2-1-.2-1.5-.3-.3 0-.6-.1-.9-.1s-.7-.2-1-.1c-.3 0-.6.1-.9.1-.1 0-.3.1-.4.1.3.1.6.1 1 0 0 .1.1.1.2.1h.7s0 .1.1.1c.2.1.5.3.7.4s.4.3.7.4c.2.2.4.3.6.4.1 0 .2.1.2.2h.2c.1.2.3.3.5.2 0 0 0-.1-.1-.1s-.3-.1-.4-.1c0-.1 0-.1 0-.2-.1-.1-.2-.2-.3-.3s-.1-.1-.2-.2c0 0 0-.1 0-.2h.1c.1 0 .1 0 .2.1.2.1.3.1.5.2.1.1.2.2.4.3 0 0 0 .1.1.1 0 .2.2.3.3.4v.2c.1.1.2.1.3.2s.2.1.3.1h.5s.3 0 .5.1c.1 0 .2.1.2.1.2 0 .4.1.6.1h.1c.1 0 .2 0 .2-.1 1.3.7 1.3.9 1.5.9zm.3.7c-.1-.1-.2-.3-.4-.3-.1 0-.2-.1-.3-.2-.1-.2-.3-.2-.5-.2-.3 0-.6 0-1 0-.1 0-.2 0-.2-.1s-.1-.1-.2-.1-.2 0-.2.1c.1.1.2.2.4.2.1 0 .3 0 .4.1.1 0 .1.1.2.1s.3 0 .4.1c.1 0 .2 0 .3.1.4.1.8.3 1.2.4-.1-.1-.1-.1-.1-.2zm-.6 18.6c.5 0 .9-.1 1.4.1h.1c.2 0 .4-.1.6-.2s.5-.2.7-.2c0 0 .1 0 .1-.1-.1 0-.2 0-.2 0-.2.1-.4.1-.6.2-.3.1-.5.2-.9.1.2-.1.3-.2.4-.2.2-.1.2-.2.3-.3s.3-.2.5-.1c.1 0 .1.1.2.1.1-.1.3-.1.5-.1.1 0 .3.1.4.1.1.1.3.1.4 0 .3 0 .5-.1.8-.2.4-.1.7-.4 1-.6s.6-.4.9-.5c.1 0 .2-.1.2-.1.2-.1.3-.2.4-.4.2-.3.3-.6.5-.9.1-.1.2-.3.2-.5s0-.4.1-.5c.1-.2.1-.5.1-.7 0-.1 0-.1 0-.2v.1.1 2.4 1.1c0 .1 0 .3-.1.4-.1.3-.3.5-.5.7l-.1.1c-.2 0-.2 0-.3.2-.1 0-.2 0-.3 0-.4.1-.7.2-1.1.2-.1 0-.1 0-.2 0-.1.1-.3.1-.4.1s-.1 0-.2 0c-.2.1-.4 0-.5.2-.1 0-.1.1-.1.2l-.1.1.1.1h.6s.4 0 .5.1c.2 0 .3.1.5.1s.5 0 .7 0c .3 0 .5-.1.7-.3.2-.1.3-.2.5-.3.1 0 .2-.1.3-.2l.3-.3c0-.2 0-.3 0-.5s0-.5.1-.7c0-.1 0-.2 0-.2-.1-.2 0-.4-.1-.6-.1-.4-.1-.8-.1-1.2 0-.6 0-1.2 0-1.8 0-.4 0-.7 0-1.1s-.1-.7-.1-1.1c-.1-.2-.1-.5-.1-.7-.2-.6-.3-1.2-.7-1.7v-.1c-.1-.1-.1-.2-.1-.3 0-.3 0-.5-.1-.8-.3-.1-.6-.3-.8-.6-.1-.1-.1-.3-.2-.4-.1-.3-.3-.7-.5-1-.1-.1-.2-.3-.3-.4l-.1-.1c-.1 0-.2-.1-.3-.1v-.1c-.2-.2-.3-.4-.4-.6-.1-.1-.1-.3-.3-.3s-.3-.2-.4-.3c-.3-.3-.7-.6-1.1-.8h-.1c0-.1-.1-.1-.2-.1 0-.1-.1-.1-.2-.2-.4-.1-.7-.2-1.1-.4-.1 0-.1 0-.2 0l-.1-.1c-.2-.3-.6-.4-.9-.5-.1-.1-.3-.2-.4-.2-.1-.1-.3-.2-.4-.2l-.1-.1c-.4-.2-.7-.3-1.1-.4v-.1c-.1-.1-.2-.2-.4-.3-.1-.2-.3-.4-.6-.3-.1 0-.1 0-.2 0-.3 0-.5-.2-.8-.1-.2-.2-.4-.3-.7-.3 0-.1-.1-.2-.3-.2 0-.1-.1-.1-.2-.1l-.1-.1c-.1-.1-.2-.2-.3-.2l-.1-.1c-.2 0-.5-.1-.7-.1 0-.2 0-.2-.3-.2 0-.1-.1-.2-.2-.2-.3 0-.5-.1-.8-.1s-.6 0-.8-.2c-.1-.1-.2-.1-.3-.1-.3-.2-.6-.2-.8-.5-.1 0-.2 0-.3.1-.1 0-.2 0-.3 0s-.1.1-.1.2c-.2 0-.3 0-.5 0s-.3 0-.5 0c-.1 0-.2.1-.2.2l-.1.1c0 .1-.1.2-.1.3 0 .2-.1.3-.2.4l-.1.1c-.1 0-.1.1-.2.2 0 .1-.1.3-.1.4 0 .4 0 .8.2 1.2.1.2.3.5.4.7 0 .1.1.2.1.3 0 .2.1.4.2.6 0 .1.1.2.1.2v.7s-.1.4-.1.6v.3c0 .2-.1.4 0 .5s.1.3.2.5c.1.3.1.5.2.8h.1.1c.1-.1.1-.1.1 0v1.9.2.3c0 .3 0 .7-.1 1v .2 2.8.2c.1.2.1.4.1.6 0 .3.1.5.1.8.1.4.4.8.5 1.3l.3.3s.2.2.4.3c.1.1.2.2.2.2.5.4 1.1.7 1.7.9.6.3 1.3.5 2 .7.1 0 .2 0 .3.1.3.1.6.2.9.4.3.1.6.1.9.3.4 0 .8.2 1.2.2.2.1.3 0 .5.1s.4.1.5.1.2 0 .3.1c.2.1.5.2.8.2h.1c.3.1.6.1.9.1s.6 0 .9.1c.1 0 .1.1.2.1h.2c0-.1 0-.2 0-.3 0 0 .1 0 .1-.1-.2-.1-.4-.1-.7-.1-.1 0-.2 0-.2 0-.2-.1-.5-.1-.7-.1-.1 0-.1 0-.2 0-.2-.3-.4-.2-.5-.3zm-6.7-38.1c-.4-.1-.7-.3-1-.6h-.1v.1c.1.1.1.2.2.3 0 .1.1.1.1.2.1.2.2.3.3.4s.3.2.5.3.4.1.6.1c.1 0 .2 0 .3-.1 0-.1 0-.2 0-.3.1-.1.2-.1.3-.2.1 0 .1-.1.2-.1.3 0 .3-.3.3-.5 0-.1 0-.3-.1-.4s-.1-.3-.2-.4c0-.2-.1-.4-.1-.7-.2-.2-.2-.5-.5-.7v.4c.1.7.1 1.1-.2 1.6-.1.1-.1.2-.1.4v.1c-.1 0-.1 0-.2 0 0 .1-.2.1-.3.1zm-.4-.6c.1.1.2.1.3.1 0 .1.1.1.2.1s.1-.2.3-.2l.1-.1c.1-.2.2-.4.2-.6.1-.3.1-.6.1-.9v-.1c0-.1 0-.2 0-.3s-.1-.1-.2-.2l.1-.1c0-.1 0-.2 0-.3s-.1-.1-.1-.2c0 0-.1 0-.2 0 0-.1.1-.1.1-.2-.1-.1-.1-.1-.2-.2-.2-.3-.5-.4-.9-.4-.1-.1-.2-.2-.3-.2-.2 0-.3 0-.4 0s-.3.1-.4 0l-.1-.1c-.1 0-.2 0-.2 0-.1-.2-.2-.1-.4-.1s-.5 0-.7-.1-.4-.1-.5-.1-.2 0-.3 0-.2 0-.2-.1c0 0-.1.1 0 .1.1.3.1.7.3 1 0 .2.1.2.2.3.2.2.5.4.7.4.1 0 .1 0 .1.1.2.1.3.2.4.4s.1.5.2.7c-.1.1 0 .2.1.3 0 .1.1.1.2.2s.2.2.3.1h.2c.4.2.4.2.7.5.2 0 .2.1.3.2zm12.2 43c .1 0 .1-.1.1-.2l-.1-.1c-.1 0-.3 0-.4 0-.6.2-1.1.5-1.7.8.1 0 .1.1.1.1.3.2.4.2.6-.2.1-.2.2-.3.4-.3.1 0 .3-.1.4-.1.3.2.5.1.6 0zm-17.3-7.5c0-.1.1-.2 0-.3-.1.1-.2.1-.3.2s-.1.2-.2.3v.3.4-.1c0-.2.1-.4.2-.6.2 0 .2-.1.3-.2zm-9.1-15.4c0-.2-.1-.3-.2-.3s-.1-.1-.2-.1c-.2-.1-.4-.3-.5-.5s0-.3 0-.5c.1-.2 0-.4-.1-.5 0-.1-.1-.2-.2-.3l-.1-.1c0-.1-.1-.1-.2-.1l-.1-.1c-.1-.2-.3-.2-.5-.2s-.3 0-.5 0c-.1 0-.3 0-.4.2-.1 0-.1 0-.2.1-.1 0-.1 0-.2 0-.2.1-.5.2-.7.2-.3.1-.5.1-.8.1s-.5 0-.8 0c-.1 0-.2 0-.3.2h-.1c-.3.2-.6.3-.9.2-.2 0-.4 0-.6.1 0 0 0 .1.1.1.3-.1.5 0 .8-.1.2 0 .4-.1.6-.1.1 0 .2 0 .3-.1.2-.1.5-.1.7-.1h1.7c.1 0 .3 0 .4.1.2.1.4.2.7.2.1 0 .2.1.3.2 0 .1 0 .3.2.4.3.3.5.5.7.9l.3.3c.1.1.2.1.2.1.2.3.1.5.2.8.1-.2.1-.3.1-.4v-.1c.3-.4.3-.5.3-.6zm-.8 34c0-.1 0-.1 0 0-.3 0-.4.2-.5.4-.1.3-.2.6-.3.9-.1.1-.1.3-.3.3-.2.1-.2.2-.2.3s0 .3 0 .4 0 .2.1.4c.1-.2.2-.4.3-.5.1-.2.2-.4.3-.5.2-.2.3-.4.3-.7s0-.6.2-.8c.1-.1.1-.2.1-.2z"/></g><g fill="#ffaf3a"><path d="m12.9 28.2 4-4.5-.6 9.6s4.8-6.1 5.5-6.5c.7.8 1.8 2.1 1.8 2.1s-7.3 7.7-8.9 11.3c-1.9-1.6-1.9-1.8-1.9-1.8s0-9.2.1-10.2z"/><path d="m26.2 15.4 1.3 2.3s-2.3 1.3-1.9 1.9c.1.1.2.3 1.2-.4.9-.7 2.9-1.8 2.9-1.8l1.1 2.1-3.8 2.5s-.3.2 0 .7c.1.1.4.2.8-.1s.4-.3.4-.3l1.1-.7 1.2 2.2-4.2 2.9s-1.6 1-2.3-.1c-.8-1.1-2.9-4.9-2.9-4.9s-1-2.1 1.4-3.7c2.2-1.7 3.7-2.6 3.7-2.6z"/><path d="m27 15 4.4-2.5s2.1-1.2 3 .5c.2.5.3.8.3.8s.6.7-.9 1.5-2.1 1.1-2.1 1.1-.6.5-1-.3c-.1-.2-.4-.4-.8-.1-.5.3-1.8 1-1.8 1z"/><path d="m31.2 23.2 4.2-2.8s2-1.3.9-2.9c-.4-.4-.6-.7-.6-.7s-.3-.8-1.7.2-1.9 1.4-1.9 1.4-.7.4-.2 1c .1.2.2.5-.3.8s-1.7 1.1-1.7 1.1z"/><path d="m84.1 14.6-1.6 2.1s-2.1-1.5-2.5-1c-.1.2-.2.3.9.9 1 .6 2.9 1.8 2.9 1.8l-1.4 1.8-3.9-2.4s-.3-.2-.7.3c-.1.1 0 .4.4.7s.4.2.4.2l1.1.7-1.5 2-4.4-2.5s-1.6-1-.8-2.2c.7-1.2 3.3-4.6 3.3-4.6s1.5-1.8 3.9-.3c2.4 1.6 3.9 2.5 3.9 2.5z"/><path d="m84.8 15.2 4.1 3s2 1.4.8 2.9c-.4.4-.6.6-.6.6s-.4.8-1.7-.2c-1.4-1-1.9-1.5-1.9-1.5s-.7-.4-.2-1c .1-.2.2-.5-.3-.8s-1.7-1.2-1.7-1.2z"/><path d="m78.7 22.2 4.1 3s1.9 1.4 3-.1c.3-.5.4-.7.4-.7s.6-.6-.7-1.6c-1.4-1-2-1.3-2-1.3s-.6-.5-1 .2c-.2.2-.4.4-.8 0s-1.6-1.2-1.6-1.2z"/><path d="m41.8 17.6-2.2-9.2 5.3-1.5 3.4 4.1.6 5.2-1 .1-3.3-5.1-.7.1 1 5.2z"/><path d="m48.9 11 1.8-5 6.1-.3-.3 9.7-2.8.1-.2-5.4h-.7l-2.2 5.6-1 .1z"/><path d="m58.2 6.2-.4 7.1s-.1 2.1 2.1 2.5c2.1.3 3.5.7 3.5.7s.8.1 1-1.1.2-1.2.2-1.2.2-.6-.7-.8-2.2-.3-2-1.8.5-5.1.5-5.1z"/><path d="m74.1 9.2-2.3 6.7s-.7 2-2.9 1.6c-2.1-.5-3.5-.7-3.5-.7s-.7-.2-.5-1.4.2-1.2.2-1.2 0-.7 1-.5c1 .1 2.1.6 2.5-.9s1.4-5 1.4-5z"/><path d="m91.6 21-1.2 1.6s-.6.4.8 1.8c1.5 1.4 2.1 2.1 2.1 2.1s1 .8-.3 2.1c-1.3 1.4-3 3.1-3 3.1l3.3 3.8 5.7-6.1c.1.1-3-5-7.4-8.4z"/><path d="m99.4 30.2s2.5 2.8 3.2 4.8c-.6.5-1.4 1.2-1.4 1.2s-.3.3-1-.8-2.3-3.7-2.3-3.7z"/></g></svg>