<svg enable-background="new 0 0 113.5 113.5" viewBox="0 0 113.5 113.5" xmlns="http://www.w3.org/2000/svg"><circle cx="56.8" cy="56.8" fill="#afc910" r="55.5"/><path d="m103.2 24.3c4.6 6.7 7.7 14 9.2 22 .9 4.6 1.2 9.2 1 13.9-.6 9.4-3.2 18.2-8.2 26.3-2.8 4.6-6.2 8.8-10.2 12.4-6.2 5.6-13.3 9.7-21.3 12.1-4 1.2-8 2-12.1 2.3-1.9.2-3.8.2-5.7.2-7.3 0-14.3-1.5-21.1-4.3-5.7-2.3-10.8-5.6-15.4-9.6-8.4-7.3-14.1-16.4-17.2-27-1-3.5-1.7-7.2-2-10.9-.1-1.9-.2-3.8-.2-5.7 0-7.3 1.6-14.3 4.3-21.1 1.9-4.6 4.3-8.9 7.4-12.8.1-.1.1-.2.2-.3 3.9-5 8.5-9.2 13.9-12.7 6.1-4 12.8-6.6 20-8 4.7-.9 9.4-1.3 14.1-1 6.4.4 12.7 1.8 18.6 4.3 5.6 2.4 10.8 5.5 15.4 9.6 2.1 1.9 4.1 3.8 5.9 6 .1.1.2.2.2.3 1.1 1.1 1.9 2.3 2.8 3.6.3.2.3.3.4.4zm-46.6 88.1c31.4-.3 54.6-24.3 55.5-53.5 1-33.2-24.5-56.5-53.5-57.3-33-.9-56.8 24.6-57.3 54.2-.5 32.1 24.7 56.3 55.3 56.6z" fill="#fbd17a"/><path d="m100.2 20.4c-.1-.1-.2-.2-.2-.3 0 .1.1.2.2.3z" fill="#ffe5bd"/><path d="m12.1 21.9c-.1.1-.1.2-.2.3-.1-.1 0-.2.2-.3z" fill="#ffe5bd"/><path d="m103.2 24.3c-.1-.1-.1-.2-.2-.3.1 0 .2.1.2.3z" fill="#ffe5bd"/><path d="m56.6 112.4c-30.6-.3-55.8-24.5-55.2-56.7.5-29.6 24.2-55.1 57.3-54.2 28.9.8 54.4 24.1 53.5 57.3-.9 29.3-24.2 53.3-55.6 53.6zm21.9-42.2c2.6.9 5.2 1.9 7.6 3.3 1.5.9 3.1 1.8 3.4 4 2-1.1 4.3-1.4 5.3-3.9-4.1-2.3-8.5-3.4-12.9-4.7.6-1 1.6-1.5 2.3-2.2 2.6-2.5 4.9-5.4 7.2-8.2 2.2-2.7 3.8-5.6 3-9.3-.8-3.6-2.7-6.7-4.9-9.9-.5 12.3-7.1 21.1-14.8 29.4-.1 0-.2 0-.3 0-.1-.5.3-.8.5-1.1 1.7-2.1 3.3-4.2 4.7-6.5 2.9-4.5 5-9.3 6.3-14.4.4-1.7.4-3.4 0-5-.6-2.4-2-4.4-3.6-6.2-1.9-2.2-4.2-3.9-6.6-5.5-.2.2-.2.4-.1.6 1 4.9.7 9.7-.3 14.5-1.6 7.9-4.7 15.2-8.3 22.4-.3.5-.8.9-.7 1.7.1.1.3.3.5.3 2.3 1.2 4.4 2.7 6.5 4.3 1 .8 1.8 1.8 2.4 2.9.7 1.2.6 2.4-.1 3.7 3.3-.7 6.4-1.3 9.2-2.7.6-.3 1.3-.7 1.4-1.4 0-.6-.4-.9-.7-1.2-1.9-2-4.4-3.1-6.9-4.2-.1-.3-.1-.5-.1-.7zm-22.5 12.3s.1.1 0 0c .1.1 0 0 0 0-.3-.9-.8-1.8-1-2.7-.8-3.4-.1-6.7 1.2-9.8.3-.8.4-1.5.3-2.2-.9-6.4-1.3-12.9-1.7-19.4-.2-3.7-.1-7.4-.1-11.1 0-4 .4-8 .9-12 .2-1.3.7-2.6.5-4.1-.4.3-.7.5-1.1.7-4.3 2-8.2 4.7-11.2 8.4-2 2.3-3.4 4.8-3.3 8.1.3 7.7 2.3 15.1 4.9 22.3 1 2.8 2.2 5.6 3.3 8.5-.4.3-.8.5-1.2.8-1.9 1.3-3.7 2.7-5.2 4.4-1.1 1.3-2.1 2.6-1.7 4.3 2.3 1.7 12.2 3.8 15.4 3.8zm-17.7-15.1c-7.2-8-13.4-16.6-13.7-28.2-1.8 2.8-3.5 5.3-4.4 8.2-1 3-1.1 5.9.8 8.5 3.1 4.4 6.5 8.5 10.5 12.1.3.2.7.3.7.9-.2.1-.3.2-.5.3-3.5.9-6.8 2-10.2 3.3-.8.3-1.5.7-2 1.6 1.2 1.9 3.3 2.3 5 3.3 1.6-3.6 4.9-4.6 8-5.9.2 0 .5.1.6.3-1.9 1.1-3.8 2.2-5.1 4 .6 1.9 6.2 4.1 10.6 4.2-.8-1.7-.5-3.2.7-4.6 1.4-1.6 2.9-2.9 4.7-4 1.4-.8 2.8-1.7 4.2-2.5-3-5.4-5.4-10.8-7.3-16.5-1.8-5.6-3-11.2-2.8-17.1.1-1.8.4-3.5.5-5.5-4.2 2.9-7.8 6-9.8 10.5-1 2.1-1.1 4.3-.5 6.5 1.4 5.3 3.5 10.2 6.6 14.7 1.3 1.9 2.6 3.8 3.9 5.7-.2 0-.3.1-.5.2zm19.5 15.3c5.5-1 10.8-1.5 15.7-4.1-.7-5.1-5-6.9-8.1-9.7 0-.6.2-1.1.5-1.6 1.6-3.7 3.1-7.5 4.3-11.4 2-6.3 3.4-12.7 3.2-19.4 0-1.5-.5-2.7-1.3-3.9-3.5-5.4-8.5-8.9-14.3-11.5 0 .2-.1.3 0 .4 1.6 6.5 1.7 13.2 1.7 19.9 0 4.8-.1 9.7-.6 14.5-.4 3.6-.6 7.3-1.1 10.9-.2 1.4 0 2.7.5 4.1 1.3 3.9 2 7.8-.5 11.8z" fill="#b0ca10"/><g fill="#ffe152"><path d="m32.5 71.5c-3.1 1.3-6.4 2.3-8 5.9-1.7-.9-3.8-1.4-5-3.3.5-.9 1.1-1.3 2-1.6 3.3-1.3 6.7-2.5 10.2-3.3.2 0 .4-.2.5-.3 0-.6-.4-.7-.7-.9-4-3.6-7.4-7.8-10.5-12.1-1.9-2.7-1.7-5.6-.8-8.5 1-2.9 2.6-5.4 4.4-8.2.3 11.7 6.4 20.2 13.7 28.2.1.7 1.1.9 1 1.7-.3 0-.6 0-.8.2-1.3 0-2.4.5-3.6 1.1-.3.1-.6 0-.6.5h.6c1.2-.5 2.5-.8 3.6-1.5.3 0 .6 0 .7-.3.3 0 .6 0 .8-.4-.4-.6-.6-1.4-1.5-1.7-1.3-1.9-2.6-3.8-3.9-5.7-3.1-4.5-5.2-9.5-6.6-14.7-.6-2.2-.5-4.4.5-6.5 2.1-4.5 5.6-7.6 9.8-10.5-.2 2-.4 3.7-.5 5.5-.2 5.9 1 11.6 2.8 17.1 1.9 5.7 4.2 11.1 7.3 16.5-1.4.9-2.8 1.7-4.2 2.5-1.8 1.1-3.4 2.5-4.7 4-1.2 1.4-1.5 2.9-.7 4.6-4.3-.1-10-2.3-10.6-4.2 1.3-1.8 3.3-2.9 5.1-4 .2-.1.3-.2.5-.2.2-.1.5-.1.4-.5-.3-.2-.5 0-.7.1-.1.2-.3.2-.5.5z"/><path d="m57.8 82.7c2.4-4 1.8-8 .4-11.9-.5-1.4-.7-2.7-.5-4.1.5-3.6.7-7.3 1.1-10.9.5-4.8.6-9.7.6-14.5 0-6.6-.1-13.3-1.7-19.9 0-.1 0-.2 0-.4 5.7 2.7 10.8 6.1 14.3 11.5.8 1.2 1.3 2.4 1.3 3.9.2 6.7-1.3 13.1-3.2 19.4-1.2 3.9-2.7 7.7-4.3 11.4-.2.5-.5 1-.5 1.6 3.1 2.8 7.5 4.5 8.1 9.7-4.8 2.8-10.1 3.3-15.6 4.2z"/><path d="m56 82.5c-3.2 0-13.1-2-15.3-3.9-.4-1.8.7-3.1 1.7-4.3 1.5-1.8 3.3-3.1 5.2-4.4.4-.3.8-.5 1.2-.8-1.1-2.9-2.3-5.6-3.3-8.5-2.6-7.2-4.6-14.5-4.9-22.3-.1-3.3 1.3-5.8 3.3-8.1 3.1-3.7 6.9-6.4 11.2-8.4.3-.2.6-.4 1.1-.7.2 1.5-.3 2.8-.5 4.1-.6 4-1 8-.9 12 0 3.7-.1 7.4.1 11.1.4 6.5.7 13 1.7 19.4.1.8 0 1.5-.3 2.2-1.3 3.2-2 6.4-1.2 9.8.1 1 .6 1.9.9 2.8z"/><path d="m78.5 70.7c2.5 1.1 5 2.2 6.9 4.2.3.3.7.6.7 1.2-.1.7-.8 1.1-1.4 1.4-2.8 1.4-5.9 1.9-9.2 2.7.8-1.3.8-2.5.1-3.7-.6-1.1-1.4-2.1-2.4-2.9-2-1.6-4.2-3.1-6.5-4.3-.2-.1-.3-.2-.5-.3-.1-.7.4-1.1.7-1.7 3.7-7.1 6.7-14.5 8.3-22.4 1-4.8 1.3-9.7.3-14.5 0-.2-.1-.3.1-.6 2.4 1.6 4.6 3.3 6.6 5.5 1.6 1.8 3 3.8 3.6 6.2.5 1.7.4 3.4 0 5-1.3 5.1-3.4 10-6.3 14.4-1.5 2.2-3 4.4-4.7 6.5-.3.3-.6.6-.5 1.1-.2 0-.4 0-.4.4.1 0 .3.1.4.1 1.4.7 2.8 1.2 4.2 1.7z"/><path d="m74.6 68.7c7.7-8.3 14.4-17.1 14.8-29.4 2.2 3.2 4.1 6.2 4.9 9.9s-.8 6.6-3 9.3c-2.3 2.8-4.6 5.7-7.2 8.2-.7.7-1.7 1.2-2.3 2.2 4.4 1.3 8.8 2.4 12.9 4.7-1 2.5-3.3 2.8-5.3 3.9-.3-2.2-1.8-3.1-3.4-4-2.4-1.4-5-2.4-7.6-3.3-1.1-.6-2.6-.6-3.8-1.5z"/></g><path d="m74.6 68.7c1.1.9 2.6.9 3.8 1.6v.5c-1.4-.5-2.7-1-4.1-1.6 0-.2 0-.3 0-.5z" fill="#ccd227"/><path d="m39.4 69.2c0-.8-1-1-1-1.7.1-.1.2-.2.4-.3.8.3 1.1 1.1 1.5 1.7-.3.3-.6.3-.9.3z" fill="#ccd227"/><path d="m33.6 71.6c-.2.1-.3.2-.5.2-.1-.2-.3-.3-.6-.3.2-.3.5-.3.7-.3z" fill="#ccd227"/><path d="m56 82.5s.1.1 0 0c .1.1 0 0 0 0z" fill="#ffe152"/><path d="m38.6 69.5c-1.1.7-2.4 1-3.6 1.5 0-.2 0-.3 0-.5 1.2-.6 2.3-1.1 3.6-1z" fill="#ccd227"/><path d="m35 70.5v.5c-.2 0-.4 0-.6 0 0-.5.4-.5.6-.5z" fill="#b0ca10"/><path d="m33.6 71.6c-.1-.1-.2-.2-.3-.4.2-.1.4-.3.7-.1.1.4-.3.4-.4.5z" fill="#b0ca10"/><path d="m39.4 69.2c-.2.3-.5.2-.7.3l-.1-.1c.2-.3.5-.2.8-.2z" fill="#ccd227"/><path d="m74.4 68.7v.5c-.1 0-.3-.1-.4-.1 0-.4.2-.4.4-.4z" fill="#b0ca10"/></svg>