<svg enable-background="new 0 0 113.4 113.4" viewBox="0 0 113.4 113.4" xmlns="http://www.w3.org/2000/svg"><circle cx="56.7" cy="56.7" fill="#009fe4" r="56.7"/><circle cx="56.7" cy="56.7" fill="#fff" r="55.8"/><circle cx="56.7" cy="56.7" fill="#009fe4" r="47.3"/><path d="m18.1 23.2-2.1 2.4-1.7-1.5 5.9-6.9 1.8 1.5-2.1 2.4 4.1 3.5-1.8 2.1z" fill="#e11718"/><path d="m20.3 17.5 1.4 1.2-2.1 2.4 4 3.5-1.5 1.7-4-3.5-2.1 2.4-1.4-1.2zm-.1-.7-.3.4-5.7 6.6-.3.4.4.3 1.4 1.2.4.3.3-.4 1.7-2 3.7 3.2.4.3.3-.4 1.5-1.7.3-.4-.4-.3-3.7-3.2 1.7-2 .3-.4-.4-.3-1.4-1.2z" fill="#fffffe"/><path d="m24.9 22.6c-.4 0-.7-.1-1-.3s-.6-.5-1.1-1.1l-1.7-2 1.8-1.6 1.7 2c .3.3.4.5.5.5.1.1.2.1.3.1.1 0 .2 0 .3-.1s.3-.2.6-.5c.5-.4.7-.7.7-.9 0-.1 0-.2-.1-.4-.1-.1-.2-.3-.6-.7l-1.5-1.7 1.8-1.6 3.7 4.2-1.7 1.5-.2-.3c0 .2-.1.3-.2.5-.2.4-.5.7-1 1.2-.5.4-.9.7-1.2.8s-.6.2-.9.2c0 .2-.1.2-.2.2z" fill="#e11718"/><path d="m26.8 14.8 3.3 3.9-1.4 1.1-.5-.6-.1.1c.1.3.1.7-.1 1s-.5.7-1 1.1c-.4.4-.8.7-1.2.8-.3.1-.6.2-.8.2h-.1c-.3 0-.6-.1-.9-.3-.2-.2-.6-.5-1-1l-1.5-1.8 1.4-1.2 1.5 1.8c.2.3.4.5.6.6.1.1.3.1.4.2.1 0 .3 0 .4-.1.2-.1.4-.2.7-.5.5-.4.7-.7.8-1 0-.2 0-.4-.1-.5-.1-.2-.3-.4-.6-.8l-1.3-1.5zm0-.8-.4.3-1.4 1.2-.4.3.3.4 1.3 1.5c.4.4.5.6.5.7s.1.1 0 .2c0 0-.1.3-.6.7-.3.3-.5.4-.6.4s-.1.1-.2.1c0 0-.1 0-.1-.1-.1 0-.2-.2-.5-.5l-1.5-1.8-.3-.4-.4.3-1.4 1.2-.3.7.3.4 1.5 1.8c.5.6.9.9 1.1 1.1.3.2.7.4 1.1.4h.2c.3 0 .7-.1 1-.2.4-.2.8-.5 1.3-.9.5-.5.9-.9 1.1-1.3 0 0 0-.1.1-.1l.1.1.4-.3 1.4-1.2.4-.3-.3-.4-3.3-3.9z" fill="#fffffe"/><path d="m31.5 17.8c-.1 0-.2 0-.3 0-.2 0-.4-.1-.6-.3-.2-.1-.3-.3-.5-.5-.1-.1-.2-.3-.5-.7l-.7-1-.8.5-1-1.6.8-.5-.6-1 2-1.3.6 1 2.5-1.6 1 1.6-2.5 1.6.7 1c .3.4.4.5.4.5h.1c.1 0 .2 0 .4-.1.2-.2.3-.3.3-.3v-.1c0-.1-.1-.2-.2-.4l-.1-.2 1.9-1.2.1.2c.3.4.4.8.5 1s .1.5.1.8c0 .4-.2.7-.5 1s-.7.6-1.2 1c-.5.3-1 .6-1.3.7-.2-.2-.4-.1-.6-.1z" fill="#e11718"/><path d="m32.5 11.1.7 1.2-2.5 1.5.8 1.3c.2.3.4.5.5.6.1 0 .1.1.2.1s.3-.1.5-.2c.3-.2.5-.4.4-.6 0-.1 0-.1-.1-.2 0-.1-.1-.2-.3-.4l1.5-.9c.3.4.4.7.5.9s.1.4.1.7-.2.6-.4.8c-.2.3-.6.6-1.2.9-.5.3-.9.5-1.2.6-.2.1-.4.1-.5.1s-.2 0-.3 0c-.2 0-.3-.1-.5-.2-.1-.1-.3-.3-.4-.5-.1-.1-.2-.3-.4-.7l-.8-1.3-.8.5-.7-1.2.8-.5-.6-1 1.6-1 .6 1zm .2-.7-.4.3-2.1 1.3-.4-.6-.3-.4-.4.3-1.6 1-.4.3.3.4.4.6-.5.2-.5.3.3.4.7 1.2.3.4.4-.3.4-.3.5.8c.3.5.4.7.5.7.2.3.4.5.5.6.2.1.4.2.7.3h.4c.2 0 .5 0 .7-.1.3-.1.7-.3 1.3-.7s1-.7 1.3-1 .5-.7.5-1.1c0-.3 0-.6-.1-.9-.1-.2-.3-.6-.5-1l-.3-.4-.4.3-1.5.9-.4.3.3.4c.1.2.2.3.2.3s-.1.1-.2.1c-.1.1-.2.1-.2.1s-.1-.2-.3-.4l-.5-.8 2.1-1.3.4-.3-.3-.4-.6-1.1z" fill="#fffffe"/><path d="m36.5 14.9c-.2 0-.4 0-.5-.1-.3-.1-.6-.3-.9-.6-.2-.3-.5-.8-.8-1.5-.2-.4-.3-.7-.3-.9-.1-.2-.1-.5-.1-.7 0-.5.3-.9.7-1.3.4-.3 1.1-.7 2.2-1.2.8-.3 1.4-.6 1.9-.7.3-.1.5-.1.8-.1h.4c.4.1.7.3.9.5.2.3.5.7.7 1.3.2.4.3.8.4 1s .1.5.1.7c0 .6-.2 1.1-.8 1.5-.4.3-1.1.7-2.1 1.1-.9.4-1.5.6-2 .7-.2.2-.4.3-.6.3zm2.1-4.8c-.2 0-.5.1-1.1.3-.7.3-.9.5-1 .6s-.1.2-.1.3 0 .3.2.6c.1.3.3.5.3.5s.1.1.2.1c.2 0 .5-.1 1.2-.3.8-.4 1-.6 1.1-.7 0-.1.1-.3-.1-.8-.1-.3-.3-.5-.3-.6-.2 0-.3 0-.4 0v-.3z" fill="#e11718"/><path d="m39.4 8.1h.4c.3.1.6.2.8.4s.4.6.7 1.2c.2.4.3.8.4 1s .1.4.1.6c0 .5-.2.9-.7 1.3-.4.3-1.1.6-2 1.1-.9.4-1.5.6-1.9.7-.2.1-.4.1-.6.1s-.3 0-.5-.1c-.3-.1-.5-.3-.7-.5s-.4-.7-.7-1.4c-.2-.4-.3-.7-.3-.9-.1-.2-.1-.4-.1-.6 0-.4.2-.8.6-1.1s1.1-.7 2.1-1.1c.8-.3 1.4-.6 1.8-.7zm-2.2 4.8c.3 0 .7-.1 1.2-.4.7-.3 1.1-.5 1.2-.8.1-.2.1-.6-.1-1.1-.1-.3-.3-.5-.4-.6s-.3-.2-.4-.2c-.3 0-.7.1-1.2.4-.6.2-.9.5-1.1.6-.1.1-.2.3-.2.5s.1.4.2.7.3.5.4.6.2.2.4.3c-.1 0-.1 0 0 0m2.2-5.3c-.3 0-.5 0-.8.1-.5.1-1.1.3-1.9.7-1.1.5-1.8.9-2.2 1.2-.5.4-.7.9-.8 1.4 0 .3 0 .5.1.8.1.2.2.6.4 1 .3.7.6 1.2.8 1.5.3.3.6.6 1 .7.2.1.4.1.6.1s.5 0 .7-.1c.4-.1 1.1-.4 2-.7 1-.4 1.7-.8 2.1-1.1.6-.4.9-1 .9-1.7 0-.2-.1-.5-.1-.8-.1-.2-.2-.6-.4-1-.3-.6-.5-1.1-.8-1.4s-.6-.5-1-.6c-.3-.1-.5-.1-.6-.1zm-2.2 5.3v-.5c-.1 0-.1 0-.1 0s-.1-.1-.3-.5c-.1-.3-.2-.5-.2-.6s0-.1 0-.1.2-.2.9-.5c.6-.3.9-.3 1-.3h.1s.1.1.3.5c.2.5.2.6.2.6s-.1.2-.9.5c-.7.3-1 .3-1 .3z" fill="#fffffe"/><path d="m41 7.1 2.2-.6.1.4c.1-.2.2-.3.4-.4.3-.2.7-.4 1.3-.6.4-.1.7-.1 1-.1s.6.1.9.2c.4.3.7.8 1 1.6l.1.6-2.2.6-.1-.2c-.1-.3-.2-.4-.2-.5-.1-.1-.2-.1-.3-.1s-.3 0-.4.1c-.4.1-.6.2-.7.5 0 .1-.1.2 0 .4 0 .2.1.4.2.8l.6 2.3-2.3.6z" fill="#e11718"/><path d="m46 6c .3 0 .5.1.7.2.4.2.7.7.8 1.4 0 0 0 .2.1.3l-1.7.5c-.1-.3-.2-.5-.3-.6s-.3-.2-.5-.2c-.1 0-.3 0-.5.1-.4.1-.7.3-.8.6v.5s.1.5.2.8l.5 2-1.8.5-1.3-4.9 1.7-.5.2.7h.1c.1-.4.3-.6.5-.9.3-.2.6-.4 1.2-.5zm0-.5c-.3 0-.7.1-1.1.2-.6.2-1 .4-1.4.6 0 0 0 0-.1.1v-.2l-.5.1-1.7.5-.5.1.1.5 1.3 4.9.1.5.5-.1 1.8-.5.5-.1-.1-.5-.5-2c-.1-.4-.1-.6-.2-.7 0-.1 0-.2 0-.2.1-.2.3-.3.5-.3.1 0 .3-.1.4-.1h.1s.1.1.1.4l.1.5.5-.1 1.7-.5.5-.1v-.7c0-.2-.1-.3-.1-.4-.2-.9-.6-1.5-1.1-1.7-.2-.1-.5-.2-.9-.2z" fill="#fffffe"/><path d="m53.5 10.4c-.4 0-.7 0-.9 0-.4-.1-.8-.2-1.1-.4s-.5-.5-.6-.8-.2-.8-.2-1.5c0-.5 0-.9 0-1.1 0-.3.1-.5.2-.7.2-.5.6-.8 1.2-1 .5-.1 1.2-.2 2.2-.3h1.1.7c.7.1 1.2.3 1.5.7s.4 1 .5 1.9v.8.3c0 .6-.2 1.1-.5 1.4s-.6.4-1.1.6c-.5.1-1.2.2-2.1.2-.4-.1-.7-.1-.9-.1zm-.4-2.2v.2c0 .1.1.1.1.1.1 0 .2.1.8.1h.4c.4 0 .7-.1.9-.1s.3-.1.3-.1 0 0 .1-.2v-.2zm1.2-2c-.8 0-1 .1-1.1.2-.1 0-.1.1-.1.2l2.5-.1c0-.1 0-.1 0-.1s0-.1-.1-.1c0 0-.2-.1-.8-.1-.1 0-.3 0-.4 0z" fill="#e11718"/><path d="m55.3 4.8h.7c.6.1 1.1.3 1.3.6s.4.9.4 1.8v.5l-5 .3c0 .3 0 .4.1.6 0 .1.1.2.2.3.2.1.5.2.9.2h.4c.4 0 .7-.1.9-.1s.4-.1.4-.2c.1-.1.1-.2.1-.3l1.9-.1c0 .6-.2 1-.4 1.2s-.6.4-1 .5-1.1.2-2 .2c-.3 0-.6 0-.8 0-.3 0-.6 0-.9 0-.4-.1-.7-.2-1-.3-.3-.2-.4-.4-.5-.7s-.2-.8-.2-1.4c0-.5 0-.8 0-1.1s.1-.5.2-.7c.2-.4.5-.7 1.1-.8.4-.1 1.2-.2 2.1-.3.5-.2.8-.2 1.1-.2m-2.5 2.1 3-.1c0-.2 0-.3-.1-.4 0-.1-.1-.1-.1-.2-.1-.1-.5-.2-1-.2-.1 0-.2 0-.4 0-.6 0-1.1.1-1.3.2-.1.1-.2.4-.1.7m2.5-2.6c-.3 0-.7 0-1.1 0-1 .1-1.7.1-2.2.3-.7.2-1.1.6-1.4 1.1-.1.2-.2.5-.2.8s0 .7 0 1.2c0 .7.1 1.2.2 1.6s.4.7.7 1c .3.2.7.3 1.2.4h.9s.5 0 .9 0c .9 0 1.6-.1 2.1-.2s1-.3 1.3-.6c.4-.3.6-.9.6-1.6v-.2-.3c0-.3 0-.4 0-.5 0-1-.2-1.6-.5-2.1s-.9-.7-1.7-.8c-.2-.1-.5-.1-.8-.1zm-1.5 4.1 1.2-.1c-.2 0-.4 0-.7.1-.1 0-.2 0-.5 0 .1 0 .1 0 0 0z" fill="#fffffe"/><path d="m62.3 10.7c-.3 0-.6 0-.9-.1-.6-.1-1.1-.1-1.4-.2s-.6-.3-.8-.5c-.1-.2-.2-.4-.3-.6s-.1-.4-.1-.7c0-.1 0-.4.1-.8l.1-1.2-1-.1.2-1.9 1 .1.1-1.2 2.4.2-.1 1.2 3 .3-.2 1.9-3-.3-.1 1.2v.6c0 .1.2.1.4.2h.2c.2 0 .3 0 .3-.1v-.1c0-.1 0-.2.1-.5v-.3l2.2.2v.3c-.1.5-.1.9-.2 1.1s-.2.5-.4.7c-.2.3-.6.4-1 .5-.1 0-.3.1-.6.1z" fill="#e11718"/><path d="m59.6 3.7 1.9.2-.1 1.2 3 .3-.1 1.4-3-.3-.1 1.5v.8c.1.2.3.3.6.3h.2c.3 0 .4-.1.5-.2 0-.1.1-.1.1-.2s0-.2.1-.5l1.7.2c-.1.5-.1.8-.2 1s-.2.4-.4.6-.5.4-.8.4c-.2 0-.4 0-.6 0-.3 0-.5 0-.9 0-.6-.1-1.1-.1-1.3-.2s-.5-.2-.7-.4c-.1-.1-.2-.3-.2-.5s-.1-.4 0-.7c0-.1 0-.4.1-.8l.1-1.5-1-.1.1-1.4 1 .1zm-.4-.5-.1.5-.1.7h-.5l-.5-.1v.5l-.1 1.4-.1.4.5.1h.5l-.1 1c0 .5-.1.7-.1.9 0 .3 0 .6.1.8s.2.5.4.7c.2.3.5.5.9.6.3.1.8.2 1.5.3.3 0 .7.1.9.1.3 0 .5 0 .7-.1.4-.1.8-.3 1.1-.6.2-.2.4-.5.5-.8.1-.2.2-.6.2-1.1l.1-.5-.6-.2-1.7-.2-.5-.1-.1.5v.4h-.1-.1c-.1 0-.2 0-.2 0 0-.1 0-.2 0-.5l.1-1 2.5.2.5.1v-.4l.1-1.4.1-.5-.5-.1-2.5-.2.1-.7.1-.5-.5-.1-1.9-.2z" fill="#fffffe"/><path d="m74.6 13.6c-.3 0-.6 0-.9-.1-.5-.1-1.3-.4-2.4-.7-.8-.3-1.5-.5-1.9-.7s-.8-.4-1.1-.6c-.8-.5-1.1-1.2-.9-2 0-.3.1-.6.2-.8s.2-.7.5-1.5l1.2-3.4 2.5.9-1.2 3.4c-.3.9-.4 1.2-.4 1.3s0 .3.2.5c.2.1.6.3 1.6.7.7.2 1.2.4 1.5.4h.3s.2 0 .2 0c .1 0 .1-.1.2-.2s.2-.3.3-.6.2-.5.3-.7l1.2-3.4 2.5.9-1.2 3.4c-.4 1.1-.7 1.8-.9 2.1-.3.6-.8 1-1.4 1.1-.2 0-.3 0-.4 0z" fill="#e11718"/><path d="m69.3 4.1 2.1.7-1.1 3.1c-.2.7-.4 1.2-.4 1.4 0 .3.1.5.3.7.3.2.8.4 1.7.7.7.2 1.2.4 1.5.5h.3s.3 0 .4-.1.2-.1.3-.3c.1-.1.2-.3.3-.6s.2-.5.3-.7l1.1-3.1 2.1.7-1.1 3.1c-.4 1.1-.7 1.8-.8 2.1-.3.5-.7.9-1.2 1-.1 0-.2 0-.4 0s-.5 0-.8-.1c-.5-.1-1.3-.4-2.4-.7-.8-.3-1.4-.5-1.9-.7-.4-.2-.8-.4-1.1-.6-.7-.4-.9-1-.8-1.8 0-.3.1-.5.2-.8.1-.2.2-.7.5-1.5zm-.3-.6-.2.5-1.1 3.1c-.3.8-.4 1.3-.5 1.6-.1.2-.1.5-.2.8-.2.9.2 1.7 1 2.3.3.2.7.4 1.2.6.4.2 1.1.4 1.9.7 1.1.4 1.9.6 2.4.8.4.1.7.1 1 .1h.5c.7-.1 1.3-.6 1.6-1.2.2-.3.5-1 .9-2.1l1.1-3.1.2-.5-.5-.2-2.1-.7-.5-.4-.2.5-1.1 3.1c-.1.2-.2.4-.3.7s-.2.5-.2.5l-.1.1s0 0-.1 0-.1 0-.2 0c-.3 0-.7-.2-1.4-.4-1.1-.4-1.5-.6-1.6-.7s-.1-.2-.1-.2c0-.1.1-.4.4-1.3l1.1-3.1.2-.5-.5-.2-2.1-.7z" fill="#fffffe"/><path d="m74.9 10.5h7.7v2.4h-7.7z" fill="#e11718" transform="matrix(.4558 -.8901 .8901 .4558 32.4449 76.436)"/><path d="m79.5 8.1 1.7.9-3.3 6.4-1.7-.9zm-.2-.7-.2.5-3.3 6.3-.2.5.5.2 1.7.9.5.2.2-.5 3.3-6.4.2-.5-.5-.2-1.7-.8z" fill="#fffffe"/><path d="m82.9 18.4c-.2 0-.4 0-.6-.1-.4-.1-.8-.3-1.4-.7-.5-.3-.9-.6-1.1-.9-.2-.2-.4-.5-.5-.8-.1-.2-.1-.4 0-.6 0-.2.1-.4.3-.7 0-.1.2-.3.4-.7l.7-1-.8-.5 1-1.6.8.5.6-1 2 1.3-.6 1 2.5 1.6-1 1.6-2.4-1.6-.7 1c-.3.4-.3.5-.3.5 0 .1.1.2.3.3s.3.2.4.2.1-.1.1-.1.1-.2.3-.4l.1-.2 1.9 1.2-.1.3c-.3.4-.5.7-.7.9s-.4.3-.7.4c-.1 0-.3.1-.5.1z" fill="#e11718"/><path d="m82.4 10.6 1.6 1-.6 1 2.5 1.6-.7 1.1-2.5-1.5-.8 1.2c-.2.3-.3.6-.3.7 0 .2.1.4.4.6.2.1.4.2.5.2h.2c.1 0 .1-.1.2-.1 0-.1.1-.2.3-.4l1.5.9c-.3.4-.5.7-.6.8-.2.2-.4.3-.6.3-.1.1-.3.1-.5.1s-.3 0-.5-.1c-.3-.1-.8-.3-1.3-.7-.5-.3-.9-.6-1.1-.8s-.3-.5-.4-.7c0-.2 0-.4 0-.5 0-.2.1-.4.3-.6 0-.1.2-.3.4-.7l.8-1.2-.8-.5.7-1.1.8.5zm-.1-.7-.3.4-.4.6-.4-.3-.4-.2-.3.4-.7 1.2-.3.4.4.3.4.3-.5.7c-.3.4-.4.6-.5.7-.2.3-.3.5-.3.7-.1.2 0 .5 0 .7.1.3.3.7.5.9s.6.5 1.2.9 1.1.6 1.5.7c.2.1.4.1.6.1s.4 0 .6-.1c.3-.1.5-.3.8-.5.2-.2.4-.5.7-.9l.3-.4-.4-.3-1.5-.9-.4-.3-.3.4c-.1.2-.2.3-.2.3s-.1 0-.2-.1-.2-.1-.2-.1c0-.1.1-.2.2-.4l.5-.8 2.1 1.3.4.3.3-.4.7-1.1.3-.4-.4-.3-2.1-1.3.4-.6.3-.4-.4-.3-1.6-1z" fill="#fffffe"/><path d="m88.8 23.1c-.3 0-.6-.1-.9-.2-.4-.2-1.1-.7-1.9-1.4-.7-.6-1.2-1.1-1.5-1.5s-.5-.7-.5-1.1c-.1-.4 0-.7.2-1s .5-.7 1-1.3c.3-.3.5-.6.7-.7.2-.2.4-.3.6-.4s.4-.1.6-.1c.3 0 .6.1.8.2.5.2 1.1.7 2 1.5.7.6 1.1 1 1.4 1.4s.5.7.6 1c .1.4 0 .7-.1 1s-.4.7-.9 1.2c-.3.4-.6.6-.8.8s-.4.3-.6.4c-.1.2-.4.2-.7.2zm-1.2-5.3c-.1 0-.1 0-.2.1-.1 0-.3.2-.5.4-.3.3-.3.4-.4.5v.3c.1.1.3.4.8.9.7.6 1 .7 1 .7.1 0 .3-.1.7-.5.2-.3.3-.4.4-.5 0-.1 0-.2 0-.3-.1-.1-.3-.4-.8-.9-.6-.5-.8-.6-1-.7z" fill="#e11718"/><path d="m87.1 15.6c.2 0 .5.1.7.2.4.2 1.1.7 1.9 1.4.6.6 1.1 1 1.4 1.4.3.3.4.6.5.9s0 .6-.1.9-.4.7-.8 1.1c-.3.4-.6.6-.7.8-.2.2-.4.3-.5.4-.2.1-.4.2-.6.2-.3 0-.5-.1-.8-.2-.4-.2-1-.7-1.8-1.4-.7-.6-1.2-1.1-1.5-1.4s-.4-.6-.5-1c0-.3 0-.6.1-.9s.5-.7 1-1.3c.3-.3.5-.5.7-.7.2-.1.3-.3.5-.3s.3-.1.5-.1m1.3 5.3c.2 0 .5-.2.9-.6.2-.3.4-.5.4-.6.1-.2 0-.3 0-.5-.1-.2-.4-.6-.8-.9-.5-.4-.8-.7-1.1-.7-.1 0-.1 0-.2 0s-.2 0-.3.1c-.2.1-.4.3-.6.5s-.4.4-.4.6c-.1.1 0 .3 0 .5.1.2.4.6.9 1s .9.6 1.2.6zm-1.3-5.8c-.2 0-.5 0-.7.1s-.5.2-.7.4-.4.4-.7.7c-.5.6-.9 1-1 1.4-.2.4-.3.8-.2 1.2s.3.8.6 1.2c.3.3.8.8 1.5 1.5.8.7 1.5 1.2 1.9 1.5.3.2.7.3 1 .3s.6-.1.9-.2c.2-.1.4-.3.6-.5s.5-.5.8-.8c.5-.5.8-.9.9-1.3.2-.4.2-.8.1-1.2s-.3-.8-.6-1.2-.8-.8-1.4-1.4c-.9-.8-1.6-1.3-2-1.5-.4-.1-.7-.2-1-.2zm1.3 5.3s-.3-.1-.9-.6-.7-.7-.7-.8 0-.1 0-.1.1-.1.3-.4.4-.4.4-.4h.1c.1 0 .3.1.9.6.5.4.7.7.7.8s0 .1 0 .1-.1.2-.3.4c-.3.4-.5.4-.5.4z" fill="#fffffe"/><path d="m93.7 25.2.2-.2c.3-.2.3-.3.3-.4.1-.1 0-.4-.3-.7-.2-.3-.5-.4-.7-.4-.1 0-.3 0-.4.1s-.3.2-.6.5l-1.8 1.5-1.5-1.9 4.3-3.6 1.5 1.8-.3.3c.2 0 .4.1.5.2.3.2.7.5 1 .9.5.6.8 1.2.7 1.7 0 .5-.4 1-1 1.5l-.5.4z" fill="#e11718"/><path d="m93.2 20.6 1.1 1.4-.6.5.1.1h.4s.4 0 .6.1c.3.1.6.4 1 .8.5.6.7 1.1.7 1.5s-.4.9-.9 1.4c0 0-.1.1-.3.2l-1.1-1.4c.2-.2.4-.3.4-.5.1-.2 0-.5-.3-.9-.3-.3-.6-.5-.9-.5-.2 0-.3.1-.5.1-.2.1-.4.3-.7.5l-1.6 1.4-1.2-1.5zm0-.7-.4.3-3.9 3.3-.4.3.3.4 1.2 1.5.3.4.4-.3 1.6-1.4c.3-.3.5-.4.6-.5.1 0 .2-.1.2-.1.2 0 .4.2.5.3.2.3.2.4.2.4s-.1.1-.3.3l-.4.3.3.4 1.1 1.4.3.4.4-.3c.1-.1.2-.2.3-.2.7-.6 1.1-1.2 1.1-1.7.1-.6-.2-1.2-.8-1.9-.4-.5-.8-.8-1.1-1h-.1l.1-.1-.3-.4-1.1-1.4z" fill="#fffffe"/><path d="m38.8 104.9v-1.8l-5.4-2.6-1.4 1.1-3.5-1.7 9.2-6.7 4.3 2.1.3 11.4zm-.1-4.8-.1-3.5-.2-.1-2.8 2.1z" fill="#e11718"/><path d="m37.6 93.4 4.1 2 .3 10.8-3-1.4v-1.8l-5.7-2.8-1.4 1.1-3-1.5zm1.4 7.2-.1-4.1-.5-.3-3.2 2.4zm-1.4-7.8-.2.2-8.8 6.4-.7.5.8.4 3 1.5.3.1.3-.2 1.2-.9 5.1 2.5v1.5.3l.3.1 3 1.4.8.4v-.8l-.3-10.8v-.3l-.3-.1-4.1-2zm-1.5 5.8 2.3-1.7v2.9z" fill="#fffffe"/><path d="m50.2 107.8.1-.6c-.2.2-.5.3-.8.4-.2 0-.4.1-.7.1-.4 0-.9 0-1.4-.1-.8-.1-1.4-.3-1.9-.6-.5-.2-.8-.5-1.1-.9s-.4-.8-.4-1.3c0-.4 0-1.1.2-2l .6-3.3 3 .6-.6 3.3c-.1.5-.1.8-.1 1s0 .3.1.4.2.2.4.3.5.2 1 .3c.3.1.6.1.9.1s.5 0 .7-.1.3-.2.4-.4.2-.6.3-1.2l.5-2.9 3 .6-1.3 7.2z" fill="#e11718"/><path d="m45.1 99.7 2.5.5-.6 3.1c-.1.5-.1.8-.1 1.1 0 .2.1.4.2.6s.3.3.5.4.6.2 1 .3.7.1.9.1c.3 0 .6-.1.8-.2s.4-.3.5-.5.2-.7.3-1.3l.5-2.7 2.5.5-1.2 6.7-2.3-.4.2-1h-.1c-.3.4-.6.6-1.1.7-.2 0-.4.1-.6.1-.4 0-.8 0-1.3-.1-.8-.1-1.4-.3-1.8-.5s-.8-.5-1-.9-.4-.7-.4-1.1 0-1 .2-2zm-.4-.6-.1.5-.6 3.1c-.2 1-.2 1.6-.2 2.1s.2.9.5 1.4c.3.4.7.8 1.2 1s1.1.4 1.9.6c.5.1 1 .2 1.4.2.3 0 .5 0 .7-.1.1 0 .3-.1.4-.1l-.1.3.5.1 2.3.4.5.1.1-.5 1.2-6.7.1-.5-.5-.1-2.5-.5-.5-.1-.1.5-.5 2.7c-.1.7-.2 1-.3 1.2-.1.1-.1.2-.3.3-.1 0-.2.1-.5.1-.2 0-.5 0-.8-.1-.5-.1-.8-.2-.9-.2-.1-.1-.2-.1-.3-.2s-.1-.2-.1-.3 0-.4.1-.9l.6-3.1.1-.5-.5-.1-2.5-.5z" fill="#fffffe"/><path d="m57.3 104.6-3.2-3.4 4.1-.2 1.3 1.7 1.2-1.8 3.9-.1-2.8 3.5 3.4 3.7-3.9.2-1.7-2.1-1.5 2.3-3.8.1z" fill="#e11718"/><path d="m64.1 101-2.6 3.3 3.2 3.5-3.3.1-1.7-2.2h-.1l-1.6 2.4-3.1.1 2.8-3.6-3-3.1 3.4-.2 1.4 1.7h.1l1.3-1.9zm1.1-.5-1.1.1-3.3.1h-.3l-.1.2-.9 1.4-1-1.3-.2-.2h-.3l-3.4.2-1.1.1.8.8 2.7 2.8-2.5 3.3-.7.8h1.1l3.1-.1h.3l.1-.2 1.2-1.9 1.3 1.7.2.2h.3l3.3-.1h1.1l-.7-.8-2.9-3.2 2.3-2.9z" fill="#fffffe"/><path d="m64.5 100.5 3-.6 1.4 7.2-3 .6zm-.5-2.7 3-.6.5 2.4-3 .6z" fill="#e11718"/><path d="m66.8 97.5.4 1.9-2.5.5-.4-1.9zm.5 2.7 1.3 6.7-2.5.5-1.3-6.7zm-.1-3.3-.5.1-2.5.5-.5.1.1.5.4 1.9.1.5.1.3 1.3 6.7.1.5.5-.1 2.5-.5.5-.1-.1-.5-1.3-6.7-.1-.5-.1-.3-.4-1.9z" fill="#fffffe"/><path d="m68.6 96.5h3v10.1h-3z" fill="#e11718" transform="matrix(.9606 -.2778 .2778 .9606 -25.4528 23.4754)"/><path d="m70 96.6 2.7 9.2-2.4.7-2.7-9.2zm.4-.7-.5.1-2.4.7-.5.1.1.5 2.7 9.2.1.5.5-.1 2.4-.7.5-.1-.1-.5-2.7-9.2z" fill="#fffffe"/><path d="m71.5 98.7 2.8-1.1 2.6 6.8-2.8 1.1zm-1-2.6 2.8-1.1.9 2.3-2.8 1.1z" fill="#e11718"/><path d="m73.2 95.4.7 1.8-2.4.9-.7-1.8zm1 2.6 2.4 6.3-2.4.9-2.4-6.3zm-.7-3.3-.5.2-2.4.9-.5.2.2.5.7 1.8.1.3.2.5 2.4 6.3.2.5.5-.2 2.4-.9.5-.2-.2-.5-2.4-6.3-.2-.5-.1-.3-.7-1.8z" fill="#fffffe"/><path d="m79 103.5c-.1 0-.3 0-.4 0-.5-.1-1-.5-1.3-1.2-.4-.7-.5-1.4-.4-2 .1-.4.4-.8.7-1.1l-1.4.8-.1-.2c-.3-.5-.4-1-.3-1.3.1-.6.3-1.1.9-1.6.5-.5 1.4-1.1 2.7-1.8 1-.6 1.7-.9 2.1-1 .2-.1.5-.1.7-.1s.4 0 .6.1c.3.1.7.3.9.5.2.3.5.6.8 1.2l2.1 3.8-2.6 1.5-.3-.5c-.1.3-.2.5-.3.7-.2.2-.4.4-.7.7-.3.2-.8.5-1.6 1-.6.4-1.1.6-1.5.7-.1-.3-.3-.2-.6-.2zm3.4-5s-.2.1-1.4.7c-1 .5-1.2.8-1.2.8-.1.2-.1.3 0 .4.1.2.2.2.3.2.2 0 .5-.1 1.2-.5.9-.5 1.3-.8 1.4-1 .2-.2.1-.4.1-.5 0 0-.1-.1-.4-.1.1 0 .1 0 0 0zm-1-2.1c-.1 0-.4.1-1.2.5-1 .6-1.3.8-1.4.9 0 0-.1.1 0 .4v.1c.4-.2.8-.5 1.3-.8s.9-.5 1.2-.6h.4.1c-.2-.4-.4-.5-.4-.5z" fill="#e11718"/><path d="m82.2 94c .2 0 .4 0 .5.1.3.1.6.2.8.5.2.2.5.6.8 1.2l2 3.5-2.1 1.2-.5-.8-.1.1c0 .4-.1.8-.4 1.2-.1.2-.4.4-.7.6s-.8.5-1.6 1c-.6.3-1.1.6-1.4.7-.2.1-.4.1-.6.1-.1 0-.3 0-.4 0-.4-.1-.8-.5-1.2-1.1-.4-.7-.5-1.3-.3-1.8.1-.4.4-.7.8-1.1.4-.3 1.2-.8 2.4-1.5.5-.3.9-.5 1.1-.5h.3c.2 0 .3 0 .5.1l.1-.1-.2-.3c-.3-.5-.5-.7-.8-.7-.2 0-.7.2-1.3.5-.8.5-1.3.8-1.4.9-.2.2-.2.4-.1.7l-2.2 1.3c-.2-.5-.3-.9-.3-1.2 0-.5.3-1 .8-1.5.5-.4 1.4-1 2.7-1.8 1-.6 1.7-.9 2-1 .4-.3.6-.3.8-.3m-2.1 6.9c.4 0 .8-.2 1.4-.6.8-.4 1.3-.8 1.5-1 .2-.3.3-.5.1-.8-.1-.2-.3-.3-.5-.3h-.1c-.1 0-.6.3-1.5.7-.7.4-1.2.7-1.3.9-.2.2-.2.4 0 .7 0 .3.2.4.4.4m2.1-7.4c-.3 0-.5 0-.8.1-.4.1-1.1.5-2.1 1.1-1.4.8-2.3 1.4-2.8 1.9-.6.5-.9 1.1-.9 1.8 0 .4.1.9.3 1.5l.2.5.5-.3.1-.1c0 .1 0 .1-.1.2-.2.6-.1 1.4.4 2.2.4.7.9 1.2 1.5 1.3.2 0 .3.1.5.1s.5 0 .8-.1c.4-.1.9-.4 1.5-.7.8-.4 1.3-.8 1.6-1 .4-.3.6-.5.8-.7.1-.1.1-.2.2-.3l.1.2.4-.3 2.1-1.2.4-.3-.3-.4-2-3.5c-.3-.6-.6-1-.9-1.3s-.6-.5-1-.6c0-.1-.2-.1-.5-.1zm-2.4 3.9c.1-.1.3-.2.5-.3.8-.4 1-.5 1.1-.5s0 0-.1 0c-.3.1-.7.3-1.3.6 0 .1-.1.2-.2.2z" fill="#fffffe"/><path d="m68.9 42c2.6 1.3 3 3.6 3 6v4.4c.1 2.3 1.6 3.8 3.9 3.9 1.7.1 3.3 0 5 0 3.8 0 5.9 2.1 5.8 5.9 0 1.9.2 3.8-.2 5.7-.5 2.3-2.3 3.9-4.6 4-1.9 0-3.8 0-5.7 0-2 0-3.4-1-4.5-2.8-1.4 2.5-3.6 3-6.2 2.9-1.3-.1-2.5 0-3.8 0-2.7 0-4.4 1.7-4.4 4.4v5.3c0 2.8-1.9 4.9-4.7 5-2 .1-4 .1-6 0-2.6-.1-4.4-1.9-4.7-4.6-.2-2-.1-4.1 0-6.2.1-1.9 1.1-3.3 2.8-4.3-2.6-1.3-3.1-3.5-3-6 .1-1.4 0-2.8 0-4.2-.1-2.5-1.8-4.2-4.3-4.2-1.8 0-3.5 0-5.3 0-3 0-5-2-5.1-4.9-.1-1.8 0-3.5 0-5.3 0-3 1.6-4.9 4.5-5.2 2.1-.2 4.2-.1 6.3 0 1.9.1 3.4 1.2 4.3 3.1 1.4-3 3.9-3.3 6.7-3.3h3.8c2.4-.1 3.9-1.6 4-4 .1-1.6 0-3.1 0-4.7 0-4.1 2-6.1 6.1-6.1 1.7 0 3.4-.2 5.1.1 2.8.5 4.3 2.3 4.4 5.1v4.5c-.2 2.8-.7 3.9-3.2 5.5z" fill="#fff"/><g fill="#e30d14"><path d="m64.2 56.2c-1 0-1.9 0-2.9 0-3.1 0-5.2 2-5.2 5.1v5.1c-.1 3.1-1.6 4.5-4.7 4.5-1.6 0-3.1 0-4.7 0-2.6 0-4.2-1.7-4.2-4.3 0-1.7 0-3.4 0-5.1 0-3.3-2.1-5.4-5.3-5.4-1.7 0-3.4 0-5.1 0-2.5 0-4.1-1.5-4.3-3.9-.1-2-.1-3.9 0-5.9.1-2.3 1.7-3.8 4-3.9 1.9-.1 3.7-.1 5.6 0 2.4.1 3.8 1.5 4 3.8.1 1.8.1 3.7.1 5.6 0 3.2 1.9 5.3 5.1 5.4 2 .1 3.9.1 5.9 0 2.8-.1 4.8-2.3 4.8-5.1 0-1.8 0-3.6 0-5.4.1-2.6 1.6-4.2 4.2-4.3 1.9-.1 3.7-.1 5.6 0 2.3.1 3.8 1.6 3.9 3.9.1 1.8 0 3.6 0 5.4.1 3.4 2.1 5.4 5.5 5.4h4.8c2.9.1 4.4 1.6 4.4 4.5v5c-.1 2.6-1.7 4.1-4.3 4.1-1.6 0-3.1 0-4.7 0-2.9 0-4.5-1.6-4.6-4.5 0-1.7-.1-3.4 0-5.1.1-2.8-2.4-5.4-5.2-5.1-.9.3-1.8.2-2.7.2z"/><path d="m57.3 59.6c.9-1.6 2-2.5 3.9-2.4 2 .1 4 0 6 .1 2.4.1 3.8 1.7 3.9 4.1v5.3c0 2.5-1.7 4.1-4.1 4.2-1.8 0-3.5 0-5.3 0-3.3 0-5.3 2.1-5.3 5.3v5.1c0 2.4-1.5 4.1-3.9 4.2-1.9.1-3.9.1-5.9 0-2.2-.1-3.7-1.6-3.8-3.8-.1-1.9-.1-3.9 0-5.9.1-2.3 1.5-3.7 3.8-3.8 1.8-.1 3.7-.1 5.6-.1 3.3 0 5.4-2 5.5-5.2 0-1.2 0-2.4 0-3.6-.2-1.1-.1-2.3-.4-3.5z"/><path d="m56.3 49.2v3.3c-.1 2.2-1.6 3.7-3.8 3.7-1.9 0-3.7 0-5.6 0-2.5-.1-4.1-1.5-4.2-4.1-.1-2-.1-3.9 0-5.9.1-2.1 1.6-3.5 3.7-3.6 1.8-.1 3.7 0 5.6-.1 3.5-.1 5.5-2.1 5.5-5.7 0-1.6 0-3.1 0-4.7.1-2.9 1.6-4.4 4.5-4.4h4.7c2.9 0 4.4 1.6 4.4 4.5v4.5c0 2.9-1.6 4.5-4.5 4.6-1.7 0-3.4.1-5.1 0-2.7-.1-5.4 2.4-5.1 5.2 0 1-.1 1.8-.1 2.7z"/></g></svg>