<svg enable-background="new 0 0 113.4 113.4" viewBox="0 0 113.4 113.4" xmlns="http://www.w3.org/2000/svg"><path d="m56.8 0c31.4 0 56.6 25.4 56.6 57 0 31.2-25.4 56.4-56.9 56.4-31.4 0-56.5-25.4-56.5-57.1 0-31.1 25.5-56.3 56.8-56.3zm-52.6 69.8c6.2 24.7 29.2 41.9 54.3 41 26-.9 45.8-19.7 50.8-41.5-2.5-2.8-5-5.7-7.5-8.5-8.2.5-16.2 1-24.3 1.5 0-.1 0-.1 0-.2 9.4-1.9 18.9-3.8 28.4-5.8-.1.7-.1 1.3-.2 1.8 1.6.7 3.2 1.3 4.9 2 .4-5.9-.2-11.5-1.6-17.2-11.6 6.2-23 12.4-34.3 18.5.8 4.2 1.5 8.2 2.3 12.2.3 1.4 0 2.5-.7 3.7-5.7 10.3-11.4 20.6-17.1 30.9-.2.3-.3.8-.8 1 0-2.7 0-5.3 0-7.8 0-.7.1-1.3.3-1.9 4.4-12.7 8.6-25.6 12.9-38.6.2-.6.5-1.1 1-1.5 7.7-6.4 15.4-12.8 23-19.2 3.1-2.6 6.3-5.2 9.4-7.9-1.8-3.5-3.7-6.7-6.3-9.7-11.6 12.7-23.2 25.2-34.8 37.8v10.5c0 2.8.5 5.7-.2 8.3-.7 2.7-2.4 5.1-3.7 7.6-1 1.9-2 3.8-3 5.7-.5-.3-.6-.7-.7-1-2-3.8-3.9-7.5-5.9-11.3-.3-.6-.5-1.2-.5-2 0-5.9 0-11.9 0-17.8-11.6-12.7-23.3-25.3-35-38-2.5 2.9-4.6 6.2-6.3 9.7.2.2.4.3.5.5 10.6 8.9 21.3 17.8 31.9 26.6.7.6 1.2 1.3 1.5 2.2 3.6 10.9 7.1 21.9 10.8 32.7 1.5 4.4 2.5 8.8 2.1 13.4-.1.6 0 1.3 0 1.9-6.3-11-12.4-22-18.5-33-.3-.5-.3-1-.2-1.6.8-4.4 1.6-8.7 2.4-13.2-11.6-6.2-23.1-12.5-34.8-18.8-1.4 5.9-2.1 11.6-1.6 17.7 2-.8 3.7-1.5 5.5-2.3-.1-.6-.4-1.2-.1-1.8 9.5 1.9 18.9 3.8 28.3 5.8v.2c-8.1-.5-16.2-1-24.3-1.5-2.6 3-5.3 6-7.9 8.9z" fill="#070804"/><path d="m4.2 69.8c2.6-3 5.3-6 7.9-9l24.3 1.5c0-.1 0-.1 0-.2-9.4-1.9-18.9-3.8-28.3-5.8-.3.6 0 1.2.1 1.8-1.8.7-3.5 1.5-5.5 2.3-.5-6 .2-11.8 1.6-17.7 11.7 6.3 23.2 12.5 34.8 18.8-.8 4.4-1.6 8.8-2.4 13.2-.1.6-.1 1.1.2 1.6 6.1 11 12.2 22 18.5 33 0-.6 0-1.3 0-1.9.4-4.7-.6-9-2.1-13.4-3.7-10.9-7.2-21.8-10.8-32.7-.3-.9-.7-1.6-1.5-2.2-10.7-8.9-21.3-17.8-31.9-26.6-.2-.1-.3-.3-.5-.5 1.7-3.5 3.9-6.7 6.3-9.7 11.7 12.7 23.4 25.3 35.1 38v17.8c0 .7.2 1.3.5 2 2 3.7 3.9 7.5 5.9 11.3.2.3.2.7.7 1 1-1.9 2-3.8 3-5.7 1.3-2.5 3.1-4.9 3.7-7.6.6-2.6.2-5.5.2-8.3 0-3.5 0-7 0-10.5 11.6-12.5 23.1-25 34.8-37.6 2.5 3 4.5 6.2 6.3 9.7-3.2 2.6-6.3 5.3-9.4 7.9-7.7 6.4-15.4 12.8-23 19.2-.5.4-.8.9-1 1.5-4.2 12.9-8.5 25.9-12.8 38.8-.2.6-.3 1.2-.3 1.9v7.8c.5-.2.6-.7.8-1 5.7-10.3 11.4-20.6 17.1-30.9.7-1.2 1-2.3.7-3.7-.8-4-1.5-8.1-2.3-12.2 11.4-6.1 22.8-12.3 34.3-18.5 1.4 5.7 2 11.3 1.6 17.2-1.8-.7-3.3-1.4-4.9-2 .1-.6.1-1.1.2-1.8-9.6 1.9-19 3.9-28.4 5.8v.2c8-.5 16.1-1 24.3-1.5 2.5 2.8 5 5.6 7.5 8.5-5 21.8-24.8 40.5-50.8 41.5-25.4.6-48.3-16.6-54.5-41.3z" fill="#fae400"/></svg>