<svg enable-background="new 0 0 113.4 113.4" viewBox="0 0 113.4 113.4" xmlns="http://www.w3.org/2000/svg"><path d="m56.7 113.4c-31.3 0-56.7-25.4-56.7-56.7 0-31.4 25.4-56.7 56.9-56.7 31.2 0 56.5 25.5 56.5 56.8 0 31.2-25.4 56.6-56.7 56.6z" fill="#f08302"/><path d="m11.2 30.6c1.4-2.8 3.3-5.4 5.4-7.8 7.8-9.1 17.5-15.2 29.3-17.5 17.3-3.4 32.7.8 46.1 12.6 1.8 1.6 3.6 3.4 5 5.3-.4.4.3.5.2.8-.1.2-.2.2-.3.3h-.1v.1s0 0 .1-.1c.3 0 .6 0 .8.4 0 .4-.4.6-.7.9-.1.1-.2.1-.3.1-.2 0-.4 0-.6 0-1.5 0-2.4 1.1-3.4 2-.5.4-.3 1.1 0 1.7.4.8 1 1.6 1.5 2.3.3.3.5.7.6 1.1 0 .4.1.8.1 1.1.4.3.9 0 1.5.5.2.2.2.9.6 1.3.3 1.4.9 2.6 1.5 3.9.2.4.4.8.4 1.2-.3.7-.2 1.4.3 2 .1 0-.1.2.1.2 0-.2 0-.5.2-.6s.4-.1.6.1c.1.3.1.7.2 1v .3s-.1.2-.1.3c0 0 0 .1-.1.1-.1.2-.1.5-.3.7-.5.2-.7-.2-.9-.5 0-.1 0-.1 0-.2-.1.1-.1.1-.1.2 0 .3.1.5.3.7.3.2.5-.1.7-.2.1-.1.2-.1.3-.1.2 0 .3.2.4.3.4.5 1.3.1 1.8.8.3.6 0 1.2-.2 1.8-.4.4-1 .2-1.5.6-.2.8 0 1.7.1 2.7 1.8-.1 3.7-.2 4.2 2.2-.6.7-1.7.1-2.4.8-.2.9-.6 1.7-1.8 1.6-.2.9-.1 1.8 0 2.5.5.5 1.1.5 1.6.4 1.8-.1 2.2.3 2 2.2-1 .8-2.2.3-3.4.7-.1.8-.5 1.7-.1 2.6 1 .2 1.7.7 1.8 1.8.5.3 1 .2 1.4.4.7.3 1 .8 1.3 1.6-1.7 1.1-3.5 1.9-5.4 2.7-.3 0-.6-.1-1 .1-.3.9-.2 1.8-.1 2.7.4 2 1.5 3.7 2.1 5.8-1.8 1.1-4 .9-5.7 1.7-.1.7.3.9.5 1.2-.1.8-.9 1-1.3 1.5-1.1 0-1.9.5-2.6 1.3-.7.9-1.6 1.7-2.1 2.8-.3.4-.3.9-.6 1.2s-.8.3-1.2.5c-.7.3-.9.9-1.2 1.5-.4 1.1-.8 2.2-1.4 3.1-.8.1-1-.8-1.9-.9.4 1.5 1.8 2.2 2.3 3.4-.1 1.7-.2 1.7-1.9 2.2-1.1.4-2 1.1-3 1.6-1.6.8-2 .7-2.9-.9-.4-.7-.7-1.6-1.5-2.2-.4 1.4 1.6 4.1 3.1 4.5 1 .5.4 1.2.4 1.8-.3.4-.7.5-1 .8-4.4 2.2-9.1 3.7-14 4.4-8.8 1.2-17.4.6-25.8-2.5-.3-.1-.6-.3-1-.4-.1-.8-.6-1.7.5-2.3.2-.1.6 0 .9-.3-1.2-1.3-3.3-1.1-4.3-2.5-.1-.5 0-.8.4-1.1.9-.1 1.5.5 2.3.7s1.5.8 2.6.7c-1.3-1.4-3.4-1.2-4.4-2.5-.1-.5.1-.8.3-1 .9-.4 1.6.4 2.5.2-1.1-1.2-2.3-1.3-3.8-.3-.8-.1-1.1-.6-1-1.4.1-.1.2 0 .3-.1 0-.1-.2-.1-.2-.2-.4-.8.2-1.6 0-2.5-.9-.5-1.7-.2-2.5 0-.6.1-1.1-.3-1.6-.6-.7-.4-1.3-.9-2.1-1.2-.5-.4-1.3-.2-1.5-1-.1-.2-.1-.4-.4-.5-.8.3-1.3 1.1-1.9 1.7-1.2 1.1-1.8 1.2-2.9 0-.8-.8-1.8-1.4-1.8-2.8.6-1.3 2-1.9 2.7-3.2-1.3.1-1.6 1.6-2.8 1.9-.3.1-.6-.1-.9 0-.5.6-.1 1.3-.3 2.1-.9-.2-1.7-.2-2.5-.5-.7-.6-1.2-1.4-1.6-2.1-.4-.6-.4-1.3-.5-2 0-1.7.1-1.9 1.7-2.2.2-.5.3-1 .5-1.5.6-.8 1.8-.8 2.4-1.8-1.5-.4-2.4 1-3.6.9-.5-.5-.3-.9-.2-1.4.3-1.3.6-2.6 1-3.8.1-.5.2-1.1 0-1.6-.1-.7 0-1.4.1-2.1.1-1.2 0-2.4-1.5-2.9-.3-.1-.6-.3-.7-.6-.1-.2-.2-.5-.5-.6-1.2-.1-2.3.7-3.6.3.2-1.1.8-2 1.3-3 .4-.7.8-1.4 1.1-2.2.2-.5.3-1 .1-1.5-.1-.6-.5-1.1-.4-1.8.2-.7-.3-.9-.9-.9-.8-.1-1.6 0-2.3 0-1 0-1.4-.5-1.4-1.5 0-.8 0-1.6 0-2.3.1-1.1.4-1.4 1.5-1.5h2c .4 0 .9.1 1.2-.6-1.5-.2-2.9-.3-4.3 0-.7.2-.9.9-.9 1.5 0 1.7-.2 3.4.5 5.1 0 .6 0 1.1-.2 1.7-.7.5-1.4.6-2.1.1-.4-3.6-.3-7.2.3-10.8.5-.5 1-.8 1.6-1 .5.1.9-.2 1.2-.6.5-.6 1-1.3 1.6-1.9.3-.3.6-.6 1.2-.6.8 1.1.6 2.7 1.6 3.8.2-1.7-.9-3.2-.8-4.8.6-.5 1.2 0 1.7-.3.1-.5-.4-.5-.6-.8-.5-.6-1-1.3-1.3-2 0-.1 0-.2 0-.3.3-.4.6-.8.7-1.3 1.1-.7 2.4-.4 3.5-1.1.2-1-2-4.8-3.4-6.1-.2-.7-.2-1.5-.5-2.3z" fill="#fff"/><path d="m83.6 98.4c.4-.1.8-.2 1.1-.4.5-.4.4-1 .5-1.5.5-.2.7.5 1.2.3.2-.6-.7-.9-.6-1.7 1.3-1.1 3.3-.6 4.7-1.7-1.5-.2-2.9.7-4.5.5.1-1.8 1.4-3.2 1.5-4.9.3 0 .6-.3.9-.2.6-.3.2-1 .8-1.3.4 1.2 1.4 2 2.4 2.8.8.6 1.5.6 2.2 0 1-.9 1.9-1.9 2.6-3.1.4-.7.2-1.3-.4-1.9-.7-.6-1.6-1-1.9-2 .2-.6.5-1.1 1.2-1.2.7-.3 1.2.2 1.7.5.7.3 1.3.9 2.4.9-.6-1.3-2.1-1.1-2.7-2.2 1.4-1.1 3.3-.7 4.8-1.6.2-1.7-1.2-2.9-1.4-4.5 0-.1.1-.2.2-.3.7-.2 1.2.3 1.7.6.4.2.8.6 1.4.4-.3-.9-3.3-2.5-4.9-2.7-.4-.9-.1-1.8-.2-2.7.5-.5.9-.4 1.3-.1.2.2.1.6.5 1 1.4.4 3 1 4.8.9-.7-1.1-2.2-.6-3-1.6 1.2-1.2 3-1.4 4-2.4.4-.8-.3-1.3-.3-1.9.5-.6 1.2.3 1.7-.4.4-.6.1-1.2-.1-1.7 0-.5-.3-1-.4-1.5.1-.3.5-.5.6-.8.2-.4 0-.8-.2-1.2.1-.5.3-1-.2-1.4-.1-.1-.1-.2-.2-.2-.1-.1-.1-.1-.2-.2-.2-.2-.4-.2-.6-.4-.4-1.2-.2-2.5-.1-3.8.1-.9 1.1-1.1 1.3-1.7 0-.4-.2-.5-.4-.6s-.4.1-.4.3c-1.2 1.3-2.9 2.1-4.1 3.2-.3.4-.3.8-.4 1.1 0 .1-.2.2-.2.3.2.1.4-.1.6-.1 1.7.7 3.1 1.9 4.6 2.8.2.1.2.3.2.5-.3.3-.7.1-1 .3-.5.5.1 1.2-.5 1.7-.8.3-1.4-.2-2.1-.3-.5 0-1-.3-1.5-.1-.4.7.1 1 .4 1.5.5.8 1.5 1.4 1.4 2.5-.6 0-1.1 0-1.7 0-.1-.6-.1-1.2-.4-1.7-.4-.4-1 0-1.4-.5-.6-1 .1-2.1 0-3.2 1.2-.1 2.5.1 3.7-.4-.1-.5-.2-1-.3-1.5-.2-.3-.5-.4-.9-.4-2.7.3-2.8.1-2.7-2.5 0-.3.1-.6.1-1 .5 0 1.2.3 1.6-.4 0-.3.1-.7.2-1.1.8-.4 1.7-.4 2.7-.5-.3-.6-.6-1.1-.9-1.6-1-.8-2.2-.1-3.4-.4 0-1.2-.5-2.3 0-3.5.5 0 1-.1 1.4-.1.1-.6.2-1.1.3-1.7-.6-.4-1.3-.3-1.9-.3-.2-.3 0-.4 0-.6 1.1-.8 2.4-.8 3.9-.9-.5 2.4-2.1 4.1-2.6 6.2.9.4 4.1-.3 5.1-1 0-.4-.4-.4-.7-.5-.1-.1-.2-.1-.2-.2 0 .1-.1.2-.1.3-.8.5-1.7.7-2.8.5.3-1.8 1.4-3.1 2.2-4.5.1-.1.2-.1.3-.1.5.3.3.8.3 1.3.1.6 0 1.2.5 1.6 1.2 0 1.3-1 1.6-1.8l.1-.1c1.1 5.1 1.5 10.3.9 15.5-.1.1-.1.3 0 .5-.3 5.3-1.7 10.4-3.8 15.2-5.1 12-13.4 20.9-25.1 26.8-.4.2-.9.4-1.4.6l.8-.8c-.3-.4.6-1.2-.4-1.5 1-1 2.4-1.4 3.6-2.1.9-.4 1.3-.7 1.2-1.4z" fill="#fffefe"/><path d="m15.7 81.2c.2.6-.7 1.1 0 1.8-.7.3-1.3-.1-1.9.4-.3 1.1-.1 2.3.1 3.5-4.3-6-7.1-12.6-8.6-19.8-.4-2.1-.8-4.2-.7-6.4.6.1 1.3.2 2-.2 0-.5-.2-1.1.2-1.5.5-.2.9 0 1.4.2.4.3.5.6.3 1 0 .1-.1.1-.2.1 0 .1 0 .1.1.1.6 0 1.1.4 1.6.1.5-.4-.1-1 .5-1.3.4-.1.9-.2 1.2.2 0 .6.6 1 .5 1.6-1.3.6-2.8.6-4.2 1-.4.1-.9.1-1.2.7 1.2.4 2.3-.4 3.4-.3.1 0 .2.1.3.2.3.5-.1.8-.3 1.2-.6 1.2-1.3 2.4-1.9 3.6-.2.4-.5.8-.2 1.4 1.8.1 3.6-.8 5.4-.8 2.4 1.3 2.4 1.3 2.1 4.3v1.2c-1.7.6-3.3 1.4-4.8 2.3-.1.1-.2.3-.1.5 1.2.1 2.1-1.2 3.3-1.1.5.5.3 1 .2 1.5-.3 1.3-.6 2.6-.9 3.8-.1.4-.3.8.1 1.2.7.3 1.4-.8 2.3-.5z" fill="#fefefe"/><path d="m34.2 95.8c-.4.7.2 1 .7 1.4.4.4 0 .8-.1 1.2-1 2.4-.8 2.8 1.7 3.9.7.3 1.6.3 2 1.2-.7.6-.1 1.5-.5 2.2-5.8-2.2-11.1-5.3-15.7-9.4-2.5-2.2-4.8-4.5-6.8-7.2.8-.1 1.6-.2 2.5.3-.5-.8 0-1.5 0-2.2.5-.4.9 0 1.4 0 0 .1.1.2 0 .2-.8 1.8-.8 2 .6 3.4.6.6 1.1 1.2 1.8 1.7 1 .7 1.6.7 2.5-.1.5-.5 1-1.1 1.6-1.5.3-.3.5-.7 1.1-.6 0 .4.1.7.6.5.4-.1.6.1.6.4.1.7-.4 1.1-.7 1.6-.6 1-1.4 1.9-1.9 3.1 1.5 1.3 3.1 2.3 4.8 3.1.8.4 1.5-.1 1.8-1 .2-.4.3-.8.7-1.2 1-1.1 1-1.5-.1-2.5-.3-.2-.5-.4-.8-.7-.1-.1-.1-.2-.2-.3 0-.1 0-.1 0-.2.7-.6 1.4-.7 2.8-.1 0 .9-.7 1.8-.4 2.8z" fill="#fefefe"/><path d="m96.8 24.4c.2-.3.2-.5-.1-.8.1-.1.2-.2.3-.3 3 3.3 5.2 7.1 7.1 11.1 1.5 3.1 2.8 6.2 3.4 9.5-.2.2-.5.1-.8.1-.1 0-.1 0-.1 0s .1 0 .2.1.2.2.4.2c.2-.1.2-.4.4-.5.3.6.5 1.2.5 1.9-1 .2-1.7-.5-2.5-.9l-.1-.1c-.3-.6.4-1.1 0-1.7-.5-.3-.9 0-1.4 0-1.3.2-2.5.8-3.9.6-.2-.4-.3-.7-.2-1.2-.2 0-.4 0-.6-.1l-.1-.1c0-.2 0-.3.2-.4 1.6-.7 3.3-1.3 5-2.3-.6-1.8-1.3-3.6-2.3-5.1-.5-.7-1.3-.8-2.1-.5-1.1.4-2.2 1-3.2 1.7-.7-.2-.3-.9-.7-1.3-.4-.1-.9-.1-1.5-.2.4-.5-.3-.9.2-1.4 1.8.6 2.9-.6 4.1-1.5.8-.7.5-1.6.1-2.3-.5-.8-1.1-1.6-1.7-2.4-.2-.3-.6-.5-.5-1 .4-.2.2-.9.8-.8-.3-.4-.7-.3-.9-.3z" fill="#fefefe"/><path d="m11.7 40.3c.3.7-.3.9-.7 1.2v-.1h-.1.1c.5.6.9 1.3 1.2 2.1-.6.5-1.1.1-1.6-.2-.2-.3.2-.6 0-1 .1.4 0 .7-.3.9-.7.3-1.5-.4-2.3-.1.2.9 1.2.6 1.6 1.4-.8 1.6-2.3 2.8-3.3 4.4-.4.5-.9.8-1.6.9.3-4.3 1.6-8.4 3.1-12.4.9-2.4 2-4.7 3.4-6.9-.1.5.4.3.6.6 0 .5-.1 1.1-.1 1.6.1.2 0 .4.1.6.9 1.5.4 2.8-.3 4.2-.5 1-.9 1.8-2.1 1.9-.2 0-.4.2-.5.5.9.7 1.9-.3 2.8.4z" fill="#fefefe"/><path d="m108.9 61.6c-.2-.2-.2-.3 0-.5z" fill="#fff"/><path d="m48 48.3c1.3-4.4-.4-9.2-4.2-12-3.2-2.4-8.5-3.4-13.7.3-1.4-.8-2.9-1.7-4.5-2.6 4.5-5 13.6-7 20.8-2 7 4.8 9 14.1 4.7 21.5s-13.2 10.3-21 6.6c-8.2-3.9-10.7-13-8.6-19.2 1.5.9 3 1.7 4.4 2.5.1 6.8 2.4 10.7 7.4 12.5 4.2 1.5 9.2.3 11.8-2.8-8.1-4.7-16.1-9.3-24.3-14 .8-1.7 1.7-3.3 2.8-4.9 8.3 4.8 16.3 9.4 24.4 14.1z" fill="#f08302"/><path d="m87.8 34.2c-1.5.9-3 1.7-4.4 2.6-5.5-3.5-10.5-3.4-14.5.1-3.4 2.9-4.9 8.1-3.4 11.6 8-4.6 16.1-9.3 24.2-14 1.1 1.5 2 3.1 2.8 4.9-8.1 4.7-16.1 9.3-24.1 13.9 1.7 2.6 6.6 4 10.5 3 5.4-1.4 8.1-5.3 8.5-12.6 1.4-.8 2.9-1.7 4.4-2.5 2.5 7-1.7 15.9-8.8 19.1-7.8 3.5-16.9.6-21-6.8-4.2-7.6-2-17 5.3-21.7 7.6-5 16.5-2.3 20.5 2.4z" fill="#f08302"/><path d="m59.5 68.4v28c-1.9.1-3.7.1-5.6 0 0-9.4 0-18.7 0-28-3.7.5-7.4 4.3-8.2 8.4-1.1 5.3 1.1 9.5 6.8 12.9v5.1c-6.7-.9-12.6-9-12.1-16.3.6-8.9 7.4-15.5 16.5-15.5 8.8 0 15.7 6.7 16.2 15.7.4 7.4-5.7 15.4-12.3 16.2 0-1.7 0-3.3 0-5.1 5.5-2.7 8.1-7 6.9-13.2-.9-4-4.4-7.6-8.2-8.2z" fill="#f08302"/><path d="m43.6 64.5c-3 2.6-5.2 5.9-6.1 9.7-1.7 7.4 0 13.8 5.4 19.3.4.4.8.8 1.2 1.1 0 .5-.3.4-.6.3-5.2-1.7-9.8-4.3-13.7-8-11.3-10.5-15.5-23.3-12.8-38.5 0-.3.1-.5.1-.8.5-.2.2.3.4.4 1.1 7.4 5.1 12.5 11.9 15.6 4.5 2 9.2 2 13.9.5.3 0 .4.1.3.4z" fill="#f08302"/><path d="m96.3 48c2.1 9.5.9 18.6-3.5 27.1-5.1 9.8-12.9 16.5-23.4 20-.2.1-.5.2-.5-.2 4.2-3.4 6.8-7.8 7.5-13.2.8-6.9-1.5-12.6-6.6-17.3 0-.2 0-.4.3-.3 3.9 1.3 7.8 1.5 11.7.3 7.2-2.3 11.8-7.1 13.7-14.5.1-.4.2-.8.3-1.2.1-.2.1-.3.1-.5 0-.1 0-.2.1-.3.1 0 .2.1.3.1z" fill="#f08302"/><path d="m83.9 27c-2.2-.7-4.5-1.4-6.8-1.5-9.7-.3-18 6.1-20.1 15.8 0 .2-.1.4-.3.6-.2-.6-.3-1.3-.5-1.9-3-10.8-14.3-16.8-25.2-13.4-.5.2-1 .3-1.4.5-.1-.1-.1-.2 0-.3 6.3-5.8 13.8-9.2 22.3-10.2 11.9-1.4 22.5 1.9 31.6 9.7.2.2.3.3.5.5 0 0 0 .1-.1.2z" fill="#f08302"/><path d="m105.7 66.3c.3.6 1 1.2.5 2.2-1.3.6-2.7 1.4-4.2 2.1 1.1.6 2.5.4 3.4 1.2.1.5-.1.8-.6 1-1.7-.5-3.6-.7-5.3-1.4-.2-.5.1-.8.1-1.1 1.7-.9 3.5-1.8 5.3-2.7-.2-.5-.6-1-1-1.4-.7-.9-1.4-1.9-2-2.8-.4-.5-.6-1-.1-1.6 1.3-.2 2.6.6 3.9.7.4-.1.8-.1 1.1.3.6.3.8.7.4 1.3-1 .7-1.9-.1-2.9-.2-.1-.1-.3-.1-.4-.3-.1.1 0 .1.1.2.6.8 1.4 1.5 1.7 2.5z" fill="#040201"/><path d="m31.9 93.3c.2.2.4.3.6.5 1.6 1.3 1.6 2.4-.1 3.6-.3 1.8-1.4 2.5-2.9 1.7-1.5-.9-3-1.9-4.6-2.9.8-1.8 2.1-3.3 3-4.9.8-.2 1.2.5 1.8.8s1.1.9 1.9 1.1c.1-.1.2 0 .3.1z" fill="#040201"/><path d="m100.3 75c .3 1.3.9 2.4 1.4 3.5.5 1.2.3 1.7-1 2-1.2.3-2.5.5-4 .8 1.2.7 2.2 1.2 3.1 1.7.1.6-.1.9-.5 1.1-1.3-.6-2.6-1.3-3.9-1.9-.3-.3-.8-.4-1-.9-.2-.9.6-1 1.2-1.1 1.6-.4 3.2-.7 4.9-1-.6-1.5-1.2-3-1.9-4.5-.2-.5-.4-1-.2-1.6.3-.2.6-.4.9-.2 1.6.8 3.1 1.7 4.6 2.4.1.6-.2.9-.5 1.1-1.1-.2-2-1.2-3.1-1.4z" fill="#040201"/><path d="m46.9 103.8c.5.9 1.7 1.1 2.1 2.1-.6.8-1.1.4-1.6 0-1.2-.9-2.3-1.8-3.5-2.7-.5.5-.2 1.3-.8 1.6-.4.3-.6 0-1-.2.4-2 .8-3.9 1.5-5.8 2 .5 3.8.8 5.6 1.5 1.2.5 1.4 1.2 1 2.4s-1.3 1.2-2.2 1.1c-.3 0-.5-.1-.8-.1-.2.1-.2-.2-.3.1z" fill="#040302"/><path d="m17.7 24.7c1.6 1.2 3.1 2.3 4.7 3.5-1.2 1.7-2.3 3.4-3.7 4.8-.8.8-1.8.6-2.5-.3-.3-.4-.5-.6-.9-.8-1.3-.5-1.7-1.4-1-2.6.9-1.6 2.1-3 3.4-4.6z" fill="#040201"/><path d="m96.8 35.7c1-1.4 2.6-1.8 4.2-2.2.8-.2 1.3.5 1.6 1.1.8 1.6 1.5 3.2 2.3 5-1.9.9-3.6 1.9-5.5 2.3-.1 0-.2 0-.3 0-.2-.3-.4-.6-.4-1-.5-1.1-.9-2.1-1.4-3.2-.3-.6-.5-1.3-.5-2z" fill="#050302"/><path d="m100.1 43.7c1.9-.5 3.7-1 5.6-1.2.6 1-.1 1.6-.2 2.2-.8 1.4-1.6 2.9-2.5 4.5 1-.2 1.9-.3 2.7-.6.1-.1.1-.1.2-.1h1c .6.5.5 1.1-.2 1.3-1.7.4-3.4.9-5.1 1.1-.7-.6-.3-1.2 0-1.7.8-1.6 1.7-3.2 2.6-5-1.4.3-2.6.5-3.9.8-.1-.1-.2-.1-.2-.2-.2-.2-.4-.4-.2-.7.1-.1.1-.1.1-.2s.1-.1.1-.2z" fill="#050302"/><path d="m15.7 81.2c-.8.3-1.5.7-2.3 1-.8-.3-.7-.9-.6-1.6.5-1.8.9-3.6 1.4-5.6-1.3.6-2.4 1.2-3.5 1.7-.6-.2-.7-.5-.7-1.2 1.8-.6 3.3-2.2 5.5-2.2.3.5.3.9.1 1.4-.5 1.7-.9 3.5-1.4 5.5 1.3-.6 2.5-1.1 3.5-1.6.6.2.6.5.7 1-.7.8-1.9 1-2.7 1.6z" fill="#050302"/><path d="m10.1 62.5c-1.1.2-2.2.5-3.3.7-.4-.1-.7-.4-.6-1.1 1.8-.7 3.8-1.1 5.8-1.2.5.7.1 1.2-.2 1.8-.8 1.6-1.7 3.1-2.6 4.8 1.4-.3 2.5-.5 3.7-.7.6.2.6.6.5 1.1-1.8.7-3.7.9-5.5 1.2-.8-.6-.4-1.2-.1-1.7.8-1.7 1.9-3.2 2.6-4.9-.1-.2-.2 0-.3 0z" fill="#050302"/><path d="m96.7 25.6c1 1 1.8 2.1 2.5 3.3.8 1.3.6 2.1-.7 3-.4.3-.8.5-1.1.8-.9.8-1.8.8-2.7.1-.8-1.1-1.6-2.1-2.3-3.2-.7-1.2-.6-2 .6-2.7 1-.7 1.8-1.8 3.2-1.5.2.1.4 0 .5.2z" fill="#040301"/><path d="m38.5 103.5c-1-.4-2.1-.9-3.1-1.4-1.6-.8-1.9-1.5-1.2-3.2.2-.6.4-1.1.7-1.7 1-1.3 3-1.2 4.4.2 0 .4-.3.6-.6.7-.7-.2-1.4-.7-2.2-.7-.3.2-.4.5-.4.9 1.5 1 3.4 1.2 4.7 2.3.1.5-.2.7-.6.9-1.5-.6-3-1.2-4.6-1.9-.3.2-.4.5-.5.9 1.1 1 2.6 1.2 3.9 1.9.7.3 1.1.6.4 1.4-.3-.2-.6-.3-.9-.3z" fill="#060402"/><path d="m94.2 83.4c.7.6 1.4 1.2 2.1 1.8s.9 1.3.4 2.1c-.7 1.3-1.7 2.5-2.9 3.5-.7.6-1.5.7-2.3-.1-.5-.5-1-.9-1.5-1.3-.6-.5-.9-1-.8-1.8.6-1.5 1.8-2.6 2.9-3.7.5-.6 1.3-.8 2.1-.5z" fill="#060302"/><path d="m6.3 49c0-.6.3-1.1.7-1.5.8-.9 1.6-1.9 2.5-3-.7-.3-1.4-.2-1.9-.7-.2-.4-.1-.8.4-1 .8.1 1.6.3 2.4.4.1-.1.1-.1.2 0 .5.3 1.1.3 1.7.4.4.1.8.2 1.1.5.2.4.1.7-.2.9-.6.1-1.2-.1-1.8-.2-.1 1.9 1.6 3.5.7 5.8-1.3-1.5-1.1-3.2-1.9-4.8-.9 1-1.7 2-2.5 2.9-.5.4-.8.9-1.4.3z" fill="#060402"/><path d="m11.7 40.3c-.9.1-1.9.3-2.8.4-.5-.3-.5-.6-.3-1.1.6-.3 1.2-.4 2-.5.6-1.3 1.2-2.6 1.7-3.7 0-1-1.3-1.5-.5-2.5.5-.2.7.2.9.5.9 1.5 1.9 3 2.8 4.4.4.6.4 1.1 0 1.6-1.3.3-2.6.6-3.8.9z" fill="#050302"/><path d="m59.8 107.7c-.5.2-.8 0-1-.4.9-2 1.8-4 2.7-5.9.6-.3 1.1-.3 1.5.1 1.4 1.5 2.8 3 4.2 4.4.1.5-.2.7-.6.9-.9-.1-1.2-1-1.8-1.4-1.4.2-2.7.4-4.1.7-.3.6-.6 1.1-.9 1.6z" fill="#060402"/><path d="m8 59.3c-.5-.1-.9-.2-1.4-.3-1.3-2-.8-4.2-.4-6.3.1-.5.6-.9 1.2-.9h4.3c.4 1 .3 1.4-.7 1.4-1.2 0-2.3 0-3.6 0-.5 1.6-.4 3.1-.1 4.6 1.7.4 3.3-.3 4.6.4.2.6.1.9-.3 1.1-.5 0-.9 0-1.4 0-.8.5-1.5.3-2.2 0z" fill="#070403"/><path d="m87.6 89.1c.4.3.3.7.1 1.1-.5 1.2-1 2.3-1.5 3.6 1.7-.1 3.3-.9 5-.8-.3 1-.3 1-2.3 1.4-1 .2-1.9.5-3 .7.5.6.9 1.1 1.3 1.6-.1.4-.4.6-.7.7-.6-.1-.7-.7-1.2-1-.8-1.2-1.9-2.1-2.6-3.3.1-.4.3-.6.7-.6.7.2.9 1 1.5 1.4.5-1.2 1-2.4 1.5-3.6.2-.6.6-1 1.2-1.2z" fill="#060403"/><path d="m26.7 90.2c-1.1 1-2.1 2-3.1 3-1 .3-1.8-.1-2.4-.7s-1.3-1.2-1.9-1.9c-1.2-1.6-1.5-1.9-.1-3.4.8-.8 1.6-1.5 2.5-2.3.4 0 .6.3.9.8-1.1.9-2.2 1.9-3.3 2.8.6 1.8 1.8 2.6 2.8 3.5.4.4.9.1 1.3-.3.8-.8 1.7-1.6 2.5-2.4.6.1.9.4.8.9z" fill="#050302"/><path d="m55.9 101.5c.2.4.2.7-.1 1-.7.3-1.5-.3-2.3.3-.1.2-.1.5 0 .9 1.7.2 3.4.4 5.1.6.2.5.2.8-.2 1.1-1.6-.2-3.3-.3-5-.5-.1.8-.3 1.6-.4 2.2-.6.3-.9 0-1.3-.4.1-1.3.3-2.7.4-4.1.1-.7.5-1 1.1-1.2.9-.2 1.7-.2 2.7.1z" fill="#0a0605"/><path d="m75.4 102.5c.4.3.4.6.2 1-1.4.6-2.8 1.2-4.4 1.6-1.4.4-2 0-2.5-1.3-.4-1.1-.8-2.2-1.2-3.3.1-.4.5-.6.9-.7 1.1 1.1 1.1 2.8 2 4.2 1.7 0 3.3-1.3 5-1.5z" fill="#080504"/><path d="m83.6 98.4c.1.2.3.3.6.6-1.6 1.2-3.3 2-5.1 2.8-.9 0-1.5-.4-1.9-1.2-.5-1.1-1.2-2.2-1.8-3.2.2-.4.4-.6.9-.7 1 1 1.4 2.6 2.4 3.8 1.9-.1 3.2-1.7 4.9-2.1z" fill="#0b0806"/><path d="m98.7 41c .2.3.3.6.5.9 0 .2.1.3.2.5 0 .2.1.3.1.6-.1 0-.2.1-.3.1-.6-.6-1.4-1.2-.5-2.1z" fill="#fefefe"/><path d="m98.9 44c .3.3.5.7.9.7-.1.2-.1.4-.2.7-.5.1-.8-.1-1-.5s-.1-.7.3-.9z" fill="#fefefe"/><path d="m17.6 48.1c-.1-.1-.3-.3-.4-.4 0-.4-.2-.8.4-1.2z" fill="#fef5ed"/><path d="m96.1 48c0 .1 0 .1-.1.2 0 .1-.1.1-.2.1-.1-.5 0-.9.3-1.2.2.2.1.4.1.5-.1.1 0 .3-.1.4z" fill="#fcdab5"/><path d="m70.1 64.2c-.1.1-.2.2-.3.3-.2 0-.4-.1-.4-.5.2-.2.5-.1.7.2z" fill="#f7b978"/><path d="m43.5 94.9c.2-.1.5-.1.6-.3.1.1.3.2.4.3 0 .5-.3.3-.5.3-.2-.1-.3-.2-.5-.3z" fill="#f39635"/><path d="m43.6 64.5c-.1-.1-.2-.2-.3-.3.2-.2.4-.3.7-.3.1.4-.1.5-.4.6z" fill="#f6ad61"/><path d="m96.8 24.4c0 .2 0 .5-.3.5-.3-.4 0-.5.3-.5z" fill="#fefefe"/><path d="m44 95.2c.2-.1.4 0 .5-.3.2.1.4.3.5.4-.2.2-.4.1-.6 0-.1 0-.2-.1-.4-.1z" fill="#f8b874"/><path d="m84.3 27c .2.1.3.1.3.4-.2.2-.4.1-.6-.1.1-.2.2-.3.3-.3z" fill="#fcd9b5"/><path d="m68.9 95.4c-.2.2-.4.2-.6.2-.1-.3.1-.4.3-.5.2.1.3.1.3.3z" fill="#faca96"/><path d="m99.8 44.1c.1.2.2.5.2.7-.1 0-.2 0-.3 0 0-.3-.3-.5.1-.7z" fill="#fefefe"/><path d="m68.9 95.4c-.1-.1-.2-.2-.3-.3.1-.1.2-.1.3-.2.2.1.3.1.5.2-.2.1-.3.2-.5.3z" fill="#f7af65"/><path d="m28.8 27.4c-.1.1-.1.2-.3.1 0-.2.1-.3.3-.4.1.1.1.2 0 .3z" fill="#fde9d5"/><path d="m45.2 95.3c.2.1.3.1.3.4-.2.1-.2 0-.3-.1l-.1-.1c0-.1.1-.1.1-.2z" fill="#feead5"/><path d="m29.5 26.7v.3c-.1.2-.3.2-.5.2-.1-.1-.1-.1-.1-.2l.1-.1c.2 0 .4-.1.5-.2z" fill="#f4a85a"/><path d="m84.3 27c-.1.1-.2.2-.2.2-.1-.1-.2-.1-.2-.2s0-.2 0-.3c.1.1.3.2.4.3z" fill="#f5a856"/><path d="m45.2 95.3v.2c-.3 0-.5 0-.7-.2h.6z" fill="#fbcd9e"/><path d="m29.1 27v .2c-.1.1-.2.1-.2.2 0-.1 0-.2 0-.2 0-.1.1-.2.2-.2z" fill="#f9c794"/><path d="m96.7 25.6c-.2-.1-.3-.2-.5-.3.3 0 .5.1.5.3z" fill="#fefefe"/><path d="m96.1 48c0-.2 0-.4.2-.5v.5c-.1 0-.2 0-.2 0z" fill="#f5a34d"/><path d="m95.8 48.3c.1 0 .1 0 .2-.1 0 .2 0 .4-.2.5 0-.1 0-.3 0-.4z" fill="#f5a34d"/><path d="m46.9 103.8c-.1 0-.2 0-.3-.1.2-.2.4 0 .5.1z" fill="#bab5b8"/><path d="m99.1 43.1s0 .1 0 0z" fill="#fefefe"/><path d="m98.9 44h .1z" fill="#fefefe"/><path d="m99.9 43.8c0 .1-.1.2-.1.2.1 0 .1-.1.1-.2z" fill="#fefefe"/><path d="m34.2 95.8.1.1z" fill="#fefefe"/><path d="m107.1 59.1c.2.2.5.5.7.6.2.6-.1.8-.5 1h-.1c-1.7-1.1-3.3-2.1-5-3.2-.3.1-.4-.1-.4-.3-.1-.3-.2-.7 0-1.2 1.4-1.1 3-2.3 4.6-3.5.1-.1.1-.2.2-.2.4-.2.8-.2 1.1.2.2 1.1-1 1.2-1.5 2 .1 1.3-.2 2.7.2 4.1.2 0 .4.1.4.3.1 0 .2.1.3.2z" fill="#050302"/><g fill="#fff"><path d="m104 63.7c1.1 0 2 .7 3.2.5 1 .6.5 1.4.5 2.1-.7.5-1.3.1-2 .1-.7-.8-1.4-1.6-1.9-2.6.1-.2.2-.2.2-.1z"/><path d="m105.5 44.8c1 0 1.6.7 2.5.9.2 1.4-.5 2.1-1.7 2.4-1.1-.9-.7-2.2-.8-3.3z"/><path d="m107.1 60.7h.1c.7.3.5.9.5 1.5-.2.4-.6.5-.9.7-.4 0-.8 0-1.1-.3.1-.6-.5-1.3.3-1.9.2-.3.7 0 1.1 0z"/><path d="m106.4 55.4c.7-.2 1.2-.2 1.4.7-.1.3-.3.6-.5.9-.3 0-.6-.1-.9-.3-.1-.3 0-.8 0-1.3z"/><path d="m101.7 57.1c.1.1.3.2.4.3-.5.4-.8.4-1-.2.2-.3.4-.1.6-.1z"/><path d="m105.5 51.9h-.1c-.2-.1-.3-.2-.3-.4.3-.3.4 0 .5.2-.1.1-.1.2-.1.2z"/><path d="m108.8 57.7c.2.3.1.4 0 .6-.4-.3-.2-.4 0-.6z"/><path d="m106.6 52.3c-.1.1-.2.1-.2.2-.1-.1-.2-.2-.1-.4.2-.1.2.1.3.2z"/><path d="m106.8 58.9c-.2 0-.4-.1-.4-.3.1-.1.2-.2.4-.1z"/><path d="m105.9 48.5c-.1 0-.1 0-.2.1 0-.1.1-.1.1-.2 0 0 0 .1.1.1z"/><path d="m107.1 59.1c-.1-.1-.2-.1-.3-.2.1 0 .2.1.3.2z"/></g><path d="m9.3 73c-.6-.3-.6-.6-.6-1.1 1.6-.9 3.5-1.3 5.1-2 .6.2.7.5.7 1-1.6 1.1-3.5 1.4-5.2 2.1z" fill="#0c0907"/><path d="m8 59.3h2.1c.4.4.5.9 0 1.5-.7-.1-1.5.2-2.1-.6.4-.3.1-.6 0-.9z" fill="#fff"/><path d="m8 60.2c-.1 0-.2-.1-.3-.1 0-.1.1-.2.1-.2.2 0 .1.2.2.3z" fill="#fff"/><path d="m10.1 62.5c.1-.1.2-.1.2-.2.2.1.1.2 0 .2s-.2 0-.2 0z" fill="#5d5454"/><path d="m31.9 93.3c-.1-.1-.2-.1-.3-.2.1 0 .2.1.3.2z" fill="#fff"/><path d="m106.6 43.8c.3 0 .6-.2 1 0 0 .3 0 .7-.1 1-.6-.1-1-.4-.9-1z" fill="#fff"/><path d="m99.3 42.4c-.2-.1-.5-.2-.2-.5.1 0 .2 0 .2.1z" fill="#fff"/><path d="m106.6 43.8h-.1v-.1z" fill="#fff"/><path d="m10.5 43.1h-.2c.3-.4-.3-.5-.4-.8.3-.3.6-.5.9-.1.2.4 0 .7-.3.9z" fill="#fff"/><path d="m11 41.5c-.2-.1-.4-.1-.5-.4.4-.2.5.1.5.4z" fill="#fff"/><path d="m33.7 85c-2.4-1.5-4.1-3.6-5.9-5.7-2.4-3-4.2-6.3-5.5-9.9-.9-2.4-1.5-4.8-1.9-7.3 3.9 3.9 9 6.4 14.9 6.8-.5 1.3-1 2.6-1.4 3.9-1.1 3.9-1.2 7.9-.2 11.9.1.2.1.3 0 .3z" fill="#fff"/><path d="m33.7 85c0-.1 0-.1 0-.2.1.1.2.2.1.3 0 .1 0 0-.1-.1z" fill="#fac58f"/><path d="m20.4 62.1s-.1-.1 0 0z" fill="#f59b38"/><path d="m79.6 84.8c1.5-5.5.6-10.7-1.6-15.8 5.8-.5 10.7-2.7 14.9-6.6-1.6 9.2-5.8 16.8-13 22.7-.2 0-.3-.1-.3-.3z" fill="#fff"/><path d="m79.6 84.8.3.3c0 .2-.2.3-.4.3-.1-.2-.1-.4.1-.6z" fill="#facea2"/><path d="m42.7 22.6c9.4-3.6 18.5-3.6 27.9 0-6 1.4-10.5 4.7-13.9 9.7-3.4-4.9-7.8-8.2-14-9.7z" fill="#fff"/><path d="m104 63.7c-.1 0-.2 0-.3 0s-.1-.1-.2-.1c.3-.2.4 0 .5.1z" fill="#bcb7bc"/><path d="m32.3 95.1c.1.5 0 .7-.4 1-1.4-.5-2.6-1.6-4-2.4.2-.4.4-.8.8-1.1 1.2.9 2.5 1.5 3.6 2.5z" fill="#fcfcfb"/><path d="m31.1 97.5c-.9.8-1 .7-4.5-1.8.2-.4.4-.8.8-1 1.1 1 2.7 1.4 3.7 2.8z" fill="#fbfafa"/><path d="m100.3 75c-.1 0-.1-.1-.2-.1.2-.2.2 0 .2.1z" fill="#877f7f"/><path d="m48.5 102.8c-1.5-.2-2.9-.7-4.3-1 0-.6 0-1 .4-1.5 1.4.5 2.9.6 4.2 1.3.3.5 0 .8-.3 1.2z" fill="#fcfcfc"/><path d="m19.7 27.8c.5.4.8.6 1.2.9-1.1 1.2-1.7 2.6-2.9 3.6-.4 0-.7-.2-.9-.7.6-1.4 1.7-2.4 2.6-3.8z" fill="#fbfbfb"/><path d="m17.7 26.3c.4.3.7.5 1.1.8-1 1.3-1.8 2.6-2.9 3.7-1-.3-.9-.8-.5-1.4.8-1 1.5-2 2.3-3.1z" fill="#fcfcfc"/><path d="m99.8 40.5c-.6-1.5-1.5-2.8-1.7-4.4 1-.5 1.9-1.1 3.1-1.2 1 1.3 1.4 2.7 2 4.2-1.1.4-2.2.9-3.4 1.4z" fill="#fefefe"/><path d="m93.2 28.6c.8-.9 1.7-1.4 2.7-2 1.2 1 2 2.2 2.7 3.7-1 .7-1.7 1.4-2.7 1.9-1.3-1.1-2-2.4-2.7-3.6z" fill="#fefefe"/><path d="m90.3 88c .7-1.5 1.7-2.6 3-3.6.9.8 1.7 1.4 2.6 2.2-.7 1.5-1.7 2.5-2.9 3.5-1.1-.5-1.8-1.4-2.7-2.1z" fill="#fefefe"/><path d="m14.3 38.4c-.8.1-1.4.4-2.2.3.3-.7.6-1.4 1-2.2.4.6.8 1.2 1.2 1.9z" fill="#f4f3f3"/><path d="m62.3 102.7c.6.6 1 1.1 1.6 1.7-.9.1-1.6.3-2.6.4.4-.8.6-1.3 1-2.1z" fill="#f8f7f7"/><path d="m104.9 57.7c-.6-.4-1.2-.8-1.8-1.2.7-.5 1.2-.8 1.8-1.3z" fill="#f9f8f8"/></svg>