<?xml version="1.0" encoding="UTF-8"?>
<svg id="uuid-405bc68a-8b1a-4a77-8c7a-66fa7ca5d8b4" xmlns="http://www.w3.org/2000/svg" version="1.1" viewBox="0 0 566.9 566.9">
  <!-- Generator: Adobe Illustrator 29.0.1, SVG Export Plug-In . SVG Version: 2.1.0 Build 192)  -->
  <defs>
    <style>
      .st0 {
        fill: #f18700;
      }

      .st1 {
        fill: #f6f6f6;
      }

      .st2 {
        isolation: isolate;
      }

      .st3 {
        fill: #009fe4;
      }
    </style>
  </defs>
  <g>
    <path class="st1" d="M284.1,557.7c-73.2,0-141.9-28.5-193.7-80.2-51.7-51.7-80.2-120.5-80.2-193.7s28.5-141.9,80.2-193.7C142.1,38.5,210.9,10,284.1,10s141.9,28.5,193.7,80.2c51.7,51.7,80.2,120.5,80.2,193.7s-28.5,141.9-80.2,193.7-120.5,80.2-193.7,80.2h0Z"/>
    <path class="st3" d="M283.5,12.1c36.6,0,72.2,7.2,105.6,21.3,32.3,13.7,61.3,33.2,86.3,58.2s44.5,54,58.2,86.3c14.2,33.4,21.3,69,21.3,105.6s-7.2,72.2-21.3,105.6c-13.7,32.3-33.2,61.3-58.2,86.3s-54,44.5-86.3,58.2c-33.5,14.2-69,21.3-105.6,21.3s-72.2-7.2-105.6-21.3c-32.3-13.7-61.3-33.2-86.3-58.2s-44.5-54-58.2-86.3c-14.1-33.5-21.3-69-21.3-105.6s7.2-72.2,21.3-105.6c13.7-32.3,33.2-61.3,58.2-86.3s54-44.5,86.3-58.2c33.4-14.1,69-21.3,105.6-21.3M283.5,7.1C130.8,7.1,7.1,130.8,7.1,283.5s123.7,276.4,276.4,276.4,276.4-123.7,276.4-276.4S436.1,7.1,283.5,7.1h0Z"/>
  </g>
  <g>
    <path class="st3" d="M24.8,283.5c0,69.1,26.9,134.1,75.8,182.9,44.2,44.2,101.7,70.5,163.5,75v-33.5c-112.4-9.7-201.5-102.2-205.7-216.1h61.1c4,80.2,65.9,145.5,144.6,154.8v-16.8c-69.5-9.2-123.9-67-127.9-138-.1-2.8-.2-5.5-.2-8.3s0-5.6.2-8.3c4-71,58.4-128.8,127.9-138v-16.8c-78.7,9.3-140.6,74.6-144.6,154.8h-61.1c4.2-113.9,93.3-206.5,205.7-216.1V25.5c-61.8,4.6-119.2,30.8-163.5,75.1-48.9,48.9-75.8,113.8-75.8,182.9h0Z"/>
    <path class="st3" d="M466.4,100.5c-44.2-44.2-101.7-70.5-163.5-75.1v33.5c112.4,9.7,201.5,102.2,205.7,216.1h-61.1c-4-80.2-65.9-145.5-144.6-154.8v16.8c69.5,9.2,123.9,66.9,127.9,138,.1,2.8.2,5.5.2,8.3s0,5.6-.2,8.3c-4,71-58.4,128.8-127.9,138v16.8c78.7-9.3,140.6-74.6,144.6-154.8h61.1c-4.2,113.9-93.3,206.5-205.7,216.1v33.5c61.8-4.6,119.2-30.8,163.5-75,48.9-48.9,75.8-113.8,75.8-182.9s-26.9-134.1-75.8-182.9h0Z"/>
  </g>
  <g>
    <path class="st0" d="M292.3,325.5c0-5.9,0-11.7-.2-17.5-.2-5.5,1.4-10.3,3.8-15,7-14.1,13.8-28.3,20.7-42.5-5-11.6-26.1-53.1-31.9-63.8-5.7,10.7-27.3,51.8-32.4,63.8,6.7,13.9,13.5,28.2,20.5,42.2,2.5,5.1,4.1,10.1,4,15.9-.1,5.4-.2,10.8-.2,16.2l-33.3,17.6,29.5,16.1c-2.7,7.1-5.4,14.2-8,21.2,3.1,8.1,15.2,27.6,19.4,34.3,4.1-7.2,17-26.3,19.8-34.4-2.2-5.8-4.3-11.7-6.8-17.5-.6-1.4-1.2-2.9-1.7-4.3l27.9-14.9-31.1-17.5h0ZM268.7,249.9l16.1-29.4,15.8,29.9-16.2,28.9-15.6-29.3Z"/>
    <path class="st0" d="M256.1,319c-2.9-12.5-5.7-25.1-8.6-37.5-33.8-13.5-60.3-32.9-62.8-73.1-8.1,6.2-15.5,22-17.9,37.7h.2c0-.1,21.8,10.4,21.8,10.4l-20.9,12.5c1.7,3.3,4.3,7.8,7.1,12.1l23.4-4.8-9.1,22.6h0c2.7,2.6,5.4,5,8.4,7.2,15.1-5,28.3-2.5,39.1,10.6-3.8,1.6-7.1,3.2-9.7,5.8-5.1,5.2-5.1,12.7.2,17.6,1,1,2.1,1.8,3.2,2.5l5.8-14.6,20.8-4.3c-.4-1.5-.7-3.1-1.1-4.6h0Z"/>
    <path class="st0" d="M401.9,246.1c-2.4-15.6-9.9-31.5-17.9-37.7-2.5,40.1-29.1,59.5-62.8,73.1-2.8,12.4-5.7,24.9-8.6,37.5-.4,1.5-.7,3.1-1.1,4.6l20.8,4.3,5.8,14.6c1.1-.7,2.2-1.5,3.2-2.5,5.3-4.9,5.3-12.4.2-17.6-2.6-2.6-5.9-4.1-9.7-5.8,10.8-13.1,24-15.7,39.1-10.6,3.1-2.1,5.8-4.6,8.5-7.1h0l-9.1-22.6,23.5,4.8c2.8-4.4,5.4-8.8,7.1-12.1l-20.9-12.5,21.8-10.5h.2q0,.1,0,.1Z"/>
  </g>
  <g class="st2">
    <g class="st2">
      <path class="st0" d="M135.9,182.2l-2.7,4.7-8.2-1.9-6.9,12,5.7,6.2-2.7,4.7-26.9-28.6,3.5-6,38.2,9ZM114.2,192.8l5.3-9.1-18.9-4.8,13.6,14Z"/>
    </g>
  </g>
  <g class="st2">
    <g class="st2">
      <path class="st0" d="M110.2,154.6l30.4,22.2-3.2,4.3-30.4-22.2,3.2-4.3Z"/>
    </g>
  </g>
  <g class="st2">
    <g class="st2">
      <path class="st0" d="M139.5,152.9l-4.8,5.3,11.9,10.8-3.6,4-27.8-25.3,9.9-10.9c4.2-4.6,8.6-4.8,13.3-.6l2,1.8c4.2,3.8,5.1,7.4,2.6,10.9l16.2,6.3-3.6,4-16.1-6.2ZM122.7,147.4l7.9,7.2,6.3-7c1.8-2,1.7-3.9-.3-5.7l-2-1.8c-2-1.8-3.9-1.7-5.7.3l-6.3,7Z"/>
    </g>
  </g>
  <g class="st2">
    <g class="st2">
      <path class="st0" d="M150.1,113.9c4.9-3.9,9.3-3.4,13.2,1.4l1.7,2.1c2.5,3.1,2.7,5.8.6,8.1,2.7-1.5,5.3-.7,7.8,2.4l1.7,2.1c3.9,4.9,3.4,9.3-1.4,13.2l-11.5,9.2-23.5-29.3,11.5-9.2ZM146.1,124l6.7,8.4,7.3-5.9c2.1-1.7,2.3-3.6.6-5.7l-1.7-2.1c-1.7-2.1-3.6-2.3-5.7-.6l-7.3,5.9ZM156.2,136.5l6.7,8.4,7.3-5.9c2.1-1.7,2.3-3.6.6-5.7l-1.7-2.1c-1.7-2.1-3.6-2.3-5.7-.6l-7.3,5.9Z"/>
    </g>
  </g>
  <g class="st2">
    <g class="st2">
      <path class="st0" d="M201.8,114.3c3.1,5.4,1.9,9.7-3.5,12.8l-5.8,3.3c-5.4,3.1-9.7,1.9-12.8-3.5l-9.3-16.3c-3.1-5.4-1.9-9.7,3.5-12.8l5.8-3.3c5.4-3.1,9.7-1.9,12.8,3.5l9.3,16.3ZM184.2,124.2c1.3,2.3,3.2,2.8,5.5,1.5l5.8-3.3c2.3-1.3,2.8-3.2,1.5-5.5l-9.3-16.3c-1.3-2.3-3.2-2.8-5.5-1.5l-5.8,3.3c-2.3,1.3-2.8,3.2-1.5,5.5l9.3,16.3Z"/>
    </g>
  </g>
  <g class="st2">
    <g class="st2">
      <path class="st0" d="M216.2,101.4l-6.7,2.5,5.6,15.1-5,1.9-13.1-35.2,13.8-5.1c5.9-2.2,9.9-.3,12.1,5.5l.9,2.5c2,5.3,1.1,8.9-2.7,10.9l11.5,13-5,1.9-11.4-12.9ZM203.8,88.8l3.7,10.1,8.8-3.3c2.5-.9,3.3-2.7,2.4-5.2l-.9-2.5c-.9-2.5-2.7-3.3-5.2-2.4l-8.8,3.3Z"/>
    </g>
  </g>
  <g class="st2">
    <g class="st2">
      <path class="st0" d="M234.5,73.4l20.9,23.3-5.1-26.4,5.3-1,7.1,36.9-5.3,1-20.9-23.3,5.1,26.4-5.3,1-7.1-36.9,5.3-1Z"/>
    </g>
  </g>
  <g class="st2">
    <g class="st2">
      <path class="st0" d="M287.5,83.8l.2,5.4-16.1.5.3,10.7,16.1-.5.2,5.4-21.5.7-1.2-37.6,21.5-.7.2,5.4-16.1.5.3,10.7,16.1-.5Z"/>
    </g>
  </g>
  <g class="st2">
    <g class="st2">
      <path class="st0" d="M328.9,110.8l-5.3-.9-1.1-8.4-13.6-2.4-3.8,7.5-5.3-.9,17.6-35.1,6.9,1.2,4.7,39ZM311.4,94.1l10.4,1.8-2-19.4-8.4,17.6Z"/>
    </g>
  </g>
  <g class="st2">
    <g class="st2">
      <path class="st0" d="M330.1,111.3l1.7-5.1,14,4.8c2.5.9,4.2,0,5.1-2.5l.9-2.5c.9-2.5,0-4.2-2.5-5.1l-5.1-1.7c-5.9-2-7.9-6-5.9-11.9l.9-2.5c2-5.9,6-7.9,11.9-5.9l14,4.8-1.7,5.1-14-4.8c-2.5-.9-4.2,0-5.1,2.5l-.9,2.5c-.9,2.5,0,4.2,2.5,5.1l5.1,1.7c5.9,2,7.9,6,5.8,11.9l-.9,2.5c-2,5.9-6,7.9-11.9,5.9l-14-4.8Z"/>
    </g>
  </g>
  <g class="st2">
    <g class="st2">
      <path class="st0" d="M356.6,120.7l2.5-4.7,13,6.9c2.4,1.3,4.2.7,5.4-1.7l1.3-2.4c1.3-2.4.7-4.2-1.7-5.4l-4.7-2.5c-5.5-2.9-6.8-7.2-3.9-12.7l1.3-2.4c2.9-5.5,7.2-6.8,12.7-3.9l13,6.9-2.5,4.7-13-6.9c-2.4-1.3-4.2-.7-5.4,1.7l-1.3,2.4c-1.3,2.4-.7,4.2,1.7,5.4l4.7,2.5c5.5,2.9,6.8,7.2,3.9,12.7l-1.3,2.4c-2.9,5.5-7.2,6.8-12.7,3.9l-13-6.9Z"/>
    </g>
  </g>
  <g class="st2">
    <g class="st2">
      <path class="st0" d="M402.7,150.3l-4.3-3.2,2.9-7.9-11-8.3-6.8,4.9-4.3-3.2,31.6-23.2,5.6,4.2-13.6,36.8ZM394.8,127.5l8.4,6.3,7.1-18.2-15.5,11.9Z"/>
    </g>
  </g>
  <g class="st2">
    <g class="st2">
      <path class="st0" d="M448.4,143.6l-20.3,19.5c-4.5,4.3-9,4.2-13.3-.3l-4.6-4.8c-4.3-4.5-4.2-8.9.3-13.3l20.3-19.5,3.7,3.9-20.3,19.5c-1.9,1.9-2,3.8-.1,5.7l4.6,4.8c1.9,1.9,3.8,2,5.7.1l20.3-19.5,3.7,3.9Z"/>
    </g>
  </g>
  <g class="st2">
    <g class="st2">
      <path class="st0" d="M431.2,174.2l9.3,13.2-4.4,3.1-12.4-17.6,30.8-21.6,3.1,4.4-26.4,18.5Z"/>
    </g>
  </g>
  <g class="st2">
    <g class="st2">
      <path class="st0" d="M482.6,198.7l-4.8,2.4-4.2-8.4-28.8,14.4-2.4-4.8,28.8-14.4-4.2-8.4,4.8-2.4,10.8,21.6Z"/>
    </g>
  </g>
  <g class="st2">
    <g class="st2">
      <path class="st0" d="M196.3,435.9c5.4,3.2,6.5,7.5,3.3,12.9l-1.4,2.3c-2,3.4-4.5,4.5-7.4,3.4,2.3,2,2.5,4.7.5,8.1l-1.4,2.3c-3.2,5.4-7.5,6.5-12.9,3.3l-12.7-7.5,19.2-32.3,12.7,7.5ZM177.2,449.6l-5.5,9.2,8.1,4.8c2.3,1.4,4.1.9,5.5-1.4l1.4-2.3c1.4-2.3.9-4.2-1.4-5.5l-8.1-4.8ZM185.5,435.8l-5.5,9.2,8.1,4.8c2.3,1.4,4.1.9,5.5-1.4l1.4-2.3c1.4-2.3.9-4.2-1.4-5.5l-8.1-4.8Z"/>
    </g>
  </g>
  <g class="st2">
    <g class="st2">
      <path class="st0" d="M218.3,487l-5-2,.7-8.4-12.8-5.1-5.3,6.6-5-2,24.4-30.8,6.5,2.6-3.4,39.1ZM204.6,467.1l9.8,3.9,2.1-19.4-11.8,15.5Z"/>
    </g>
  </g>
  <g class="st2">
    <g class="st2">
      <path class="st0" d="M237.9,453.2l10,29.7,5.7-26.2,5.2,1.1-8,36.7-5.2-1.1-10-29.7-5.7,26.2-5.2-1.1,8-36.7,5.2,1.1Z"/>
    </g>
  </g>
  <g class="st2">
    <g class="st2">
      <path class="st0" d="M259.8,495.6l.3-5.4,14.7.8c2.7.1,4.1-1.1,4.2-3.8v-2.7c.3-2.7-1-4.1-3.7-4.2l-5.4-.3c-6.3-.3-9.2-3.6-8.9-9.9v-2.7c.5-6.3,3.8-9.2,10-8.9l14.7.8-.3,5.4-14.7-.8c-2.7-.1-4.1,1.1-4.2,3.8v2.7c-.3,2.7,1,4.1,3.7,4.2l5.4.3c6.3.3,9.2,3.6,8.9,9.9v2.7c-.5,6.3-3.8,9.2-10,8.9l-14.7-.8Z"/>
    </g>
  </g>
  <g class="st2">
    <g class="st2">
      <path class="st0" d="M294.6,458.8l1.6,16,13.4-1.3-1.6-16,5.3-.5,3.8,37.4-5.3.5-1.6-16-13.4,1.3,1.6,16-5.3.5-3.8-37.4,5.3-.5Z"/>
    </g>
  </g>
  <g class="st2">
    <g class="st2">
      <path class="st0" d="M341.3,466.6l1.3,5.2-15.6,4,2.7,10.4,15.6-4,1.3,5.2-20.8,5.3-9.3-36.4,20.8-5.3,1.3,5.2-15.6,4,2.7,10.4,15.6-4Z"/>
    </g>
  </g>
  <g class="st2">
    <g class="st2">
      <path class="st0" d="M366.5,456.6l2.1,5-14.9,6.2,4.1,9.9,14.9-6.2,2.1,5-19.9,8.2-14.4-34.7,19.9-8.2,2.1,5-14.9,6.2,4.1,9.9,14.9-6.2Z"/>
    </g>
  </g>
  <g class="st2">
    <g class="st2">
      <path class="st0" d="M382.7,472.5l-2.8-4.6,12.7-7.6c2.3-1.4,2.8-3.2,1.4-5.5l-1.4-2.3c-1.4-2.3-3.2-2.8-5.5-1.4l-4.6,2.8c-5.4,3.2-9.7,2.2-12.9-3.2l-1.4-2.3c-3.2-5.4-2.2-9.7,3.2-12.9l12.7-7.6,2.8,4.6-12.7,7.6c-2.3,1.4-2.8,3.2-1.4,5.5l1.4,2.3c1.4,2.3,3.2,2.8,5.5,1.4l4.6-2.8c5.4-3.2,9.7-2.2,12.9,3.2l1.4,2.3c3.2,5.4,2.2,9.7-3.2,12.9l-12.7,7.6Z"/>
    </g>
  </g>
</svg>