<?xml version="1.0" encoding="UTF-8"?>
<svg xmlns="http://www.w3.org/2000/svg" version="1.1" viewBox="0 0 566.9 566.9">
  <!-- Generator: Adobe Illustrator 29.0.1, SVG Export Plug-In . SVG Version: 2.1.0 Build 192)  -->
  <defs>
    <style>
      .st0 {
        fill: #d51015;
      }

      .st1 {
        fill: #fff;
      }

      .st2 {
        fill: #df0408;
      }

      .st3 {
        fill: #040000;
      }

      .st4 {
        fill: #ffd503;
      }

      .st5 {
        fill: #070100;
      }
    </style>
  </defs>
  <g id="Capa_1">
    <g>
      <path class="st2" d="M332.6,411.2h-190.6c-23.1-26.8-38.9-57.7-45.3-93.2-7.4-33.7-3.4-66.5,8.6-98.5,22.8-61.4,66.1-100.3,128.9-118,32.8-9.9,65.7-9.6,98.5.2,62.1,18.1,105.1,56.8,127.7,117.8,12.1,32,16,64.8,8.6,98.5-6.4,35.3-22.1,66-45.3,93.2h-91.1Z"/>
      <path class="st2" d="M153.6,111.2h.1c0,0,0-.3,0-.7,0,.3,0,.5,0,.7ZM420.7,140.6c-82.5-78.9-211.3-72.9-288.4,13.4-62.9,70.5-63.3,194.9-3.7,256.9,1,1,2,2.1,3.1,3.1,2.1,2.1,4.2,4,6.5,5.9h289.7c74.6-73.1,71-204.6-7.2-279.3ZM299.8,71.4c1-1.8,1.4-2.5,1.7-3.2-.5,0-1.1,0-1.7,0v3.3ZM438.5,76.5c100.1,75.8,132.4,210,77.4,321.5-55,111.6-181.5,169.5-299.5,137.1C93.9,501.5,13.4,388.2,24.4,262.2c6.9-78.8,43-142.3,107.9-188.7.5-.4,1.1-.9,1.7-1.3,2.7-1.9,5.5-3.7,8.2-5.6.6-.4,1.3-.7,1.9-1.1,67.7-58.5,209.4-53.1,294.3,11.1ZM456.7,136c.2,0,.3-.2.4-.5-.4-.2-.7-.4-3.9-2.3,2.9,2.3,3.2,2.6,3.4,2.8ZM425,90.3v-.2c0,0,0,0,0,0,0,0,0,.1,0,.1ZM76,223.3c-.8-.9-1-1.3-1.3-1.6-.3.3-.6.7-.9,1,.5,0,1,.2,2.3.6Z"/>
      <path class="st3" d="M438.5,76.5C353.6,12.3,211.9,6.9,144.2,65.4c-.6.3-1.3.7-1.9,1.1-2.8,1.9-5.5,3.7-8.2,5.6-.6.4-1.1.9-1.7,1.3C67.4,119.9,31.3,183.4,24.4,262.2c-11.1,126,69.4,239.3,192,272.9,118,32.4,244.5-25.6,299.5-137.1,55-111.5,22.7-245.7-77.4-321.5ZM283.1,8.8c152.5.2,275.5,123.6,275.1,275.9-.5,152.4-123.5,275-275.7,274.8-152.5-.2-275.5-123.6-275.1-275.9C8,131.1,131,8.5,283.1,8.8Z"/>
      <path class="st0" d="M457.1,135.5c0,.2-.2.4-.4.5-.3-.2-.6-.5-3.4-2.8,3.2,1.9,3.5,2.1,3.9,2.3Z"/>
      <path class="st0" d="M425.1,90.1v.2c0,0-.1-.1,0-.1h0Z"/>
      <path class="st5" d="M332.6,419.9h-194.5c-2.3-1.9-4.4-3.8-6.5-5.9,2.1,2,4.3,4,6.5,5.9,64.8,0,129.7,0,194.5,0Z"/>
      <path class="st0" d="M299.8,68.1c.6,0,1.2,0,1.7,0-.3.7-.7,1.4-1.7,3.2v-3.3Z"/>
      <path class="st0" d="M153.6,110.5c0,.3,0,.6,0,.8h-.1c0-.3,0-.5,0-.8Z"/>
      <path class="st5" d="M128.5,410.9c1,1,2.1,2.1,3.1,3.1-1-1-2.1-2-3.1-3.1Z"/>
      <path class="st5" d="M460.4,219.5c-22.6-61-65.6-99.7-127.7-117.8-32.8-9.8-65.7-10.1-98.5-.2-62.8,17.7-106.1,56.6-128.9,118-12.1,32-16,64.8-8.6,98.5,6.5,35.5,22.2,66.4,45.3,93.2h281.8c23.1-27.2,38.9-57.9,45.3-93.2,7.3-33.7,3.4-66.5-8.6-98.5ZM132.2,154c77.1-86.3,205.9-92.3,288.4-13.4,78.2,74.7,81.8,206.2,7.2,279.3h-95.2c-64.9,0-129.7,0-194.5,0-2.2-1.9-4.4-3.8-6.5-5.9-1-1-2-2-3.1-3.1-59.6-62-59.2-186.5,3.7-256.9Z"/>
      <path class="st2" d="M74.7,221.7c.3.3.5.7,1.3,1.6-1.2-.3-1.8-.5-2.3-.6.3-.3.6-.7.9-1Z"/>
      <path class="st0" d="M284,4.2c154.2.1,278.9,125.4,278.7,280.1-.2,153.9-125.5,278.5-279.8,278.4-153.9-.1-278.7-125.3-278.7-279.4C4.3,129,129.5,4.1,284,4.2ZM282.6,559.4c152.2.2,275.2-122.4,275.7-274.8.4-152.3-122.5-275.7-275.1-275.9C131,8.5,8,131.1,7.5,283.5c-.4,152.3,122.5,275.7,275.1,275.9Z"/>
    </g>
    <g>
      <path class="st1" d="M34.1,282.6l.8-19.3,5.7.2-.3,6.5,34.1,1.4-.3,6.2-34.1-1.4-.3,6.5-5.7-.2Z"/>
      <path class="st1" d="M52.8,253.8l1.1-8.5,5.6.7-1.1,8.5,11.6,1.5,1.4-10.7,5.6.7-2.2,16.9-39.5-5.2,2.2-16.9,5.6.7-1.4,10.7,11,1.5Z"/>
      <path class="st1" d="M40.9,225.3c.7-3.1,2-5.2,4-6.3,2-1.1,4.5-1.3,7.7-.6l5,1.2c3.1.7,5.4,2,6.6,3.9,1.3,1.9,1.6,4.3.9,7.4l-.7,2.9,14.6,3.4-1.4,6.1-38.8-8.9,2.1-9ZM45.8,229.5l13.1,3,.7-2.9c.2-1,.1-1.8-.3-2.4-.4-.6-1.3-1.1-2.7-1.4l-5.8-1.3c-1.4-.3-2.4-.3-3.1.1-.6.4-1.1,1.1-1.3,2l-.7,2.9Z"/>
      <path class="st1" d="M47.5,201.9c1-3,2.5-4.9,4.6-5.9,2.1-.9,4.6-.9,7.7.1l4.9,1.6c3.1,1,5.1,2.5,6.2,4.5s1.1,4.5.2,7.4l-.9,2.8,14.2,4.7-2,5.9-37.8-12.6,2.9-8.7ZM52,206.5l12.8,4.3.9-2.8c.3-.9.3-1.7,0-2.4-.3-.7-1.2-1.2-2.6-1.7l-5.7-1.9c-1.4-.5-2.4-.5-3.1-.2-.7.3-1.2,1-1.5,1.9l-.9,2.8Z"/>
      <path class="st1" d="M91.6,198l-2.6,5.9-36.3-16.4,2.3-5.1,23,10.4-7-5.7-12.9-11.4,2.8-6.3,36.3,16.4-2.3,5.1-25.6-11.6,7.9,6.4,14.5,12.3Z"/>
      <path class="st1" d="M63.5,164.4l9.7-16.7,4.9,2.8-3.3,5.7,29.5,17.1-3.1,5.4-29.5-17.1-3.3,5.7-4.9-2.8Z"/>
      <path class="st1" d="M83.7,148.9c-2.6-1.9-4.2-4-4.6-6.3-.5-2.3.2-4.7,2-7.2,1.8-2.5,3.9-3.9,6.2-4.2,2.4-.3,4.8.5,7.5,2.3l16.8,12c2.6,1.9,4.2,4,4.6,6.3.5,2.3-.2,4.7-2,7.2s-3.9,3.9-6.2,4.2c-2.4.3-4.8-.5-7.5-2.3l-16.8-12ZM104.5,156.1c1.2.8,2.2,1.2,3,1.1.8-.1,1.5-.6,2.1-1.4.6-.8.8-1.6.7-2.4-.1-.8-.8-1.6-2-2.5l-17.5-12.5c-1.2-.8-2.2-1.2-3-1.1-.8.1-1.5.6-2.1,1.4-.6.8-.8,1.6-.7,2.4.1.8.8,1.6,2,2.5l17.5,12.5Z"/>
      <path class="st1" d="M97.4,115.5c2.1-2.4,4.2-3.6,6.5-3.6,2.3,0,4.6,1,7,3.1l3.9,3.4c2.4,2.1,3.8,4.3,4,6.6.2,2.3-.7,4.6-2.7,6.9l-1.9,2.2,11.3,9.9-4.1,4.7-30-26.2,6.1-6.9ZM99.7,121.5l10.1,8.9,1.9-2.2c.6-.7.9-1.5.9-2.2,0-.7-.6-1.6-1.7-2.5l-4.5-3.9c-1.1-.9-2-1.4-2.8-1.3-.7,0-1.4.4-2.1,1.2l-1.9,2.2Z"/>
      <path class="st1" d="M139.6,129l-4.7,4.4-27.1-29.2,4.1-3.8,17.2,18.5-4.3-8-7.4-15.5,5-4.7,27.1,29.2-4.1,3.8-19.1-20.5,4.8,8.9,8.6,16.9Z"/>
      <path class="st1" d="M168.2,105.6l-5.1,3.8-5.2-5.1-6.1,4.6,3.5,6.4-4.6,3.4-18.7-35.7,7.3-5.5,28.9,28.1ZM149.3,104l4.8-3.6-14.5-14.3,9.6,17.9Z"/>
      <path class="st1" d="M165.4,100.6c.6-.4,1.1-.7,1.5-1,.4-.3.6-.7.7-1.1.1-.4,0-.9,0-1.4-.2-.5-.5-1.2-.9-2l-14.3-26.5,15.2-8.9,20.1,34.4-5.5,3.2-17.3-29.4-4.7,2.8,11.6,21.1c1.7,3.2,2.4,5.8,2,7.9-.4,2.1-2,3.9-4.7,5.4l-.8.5-2.9-4.9Z"/>
      <path class="st1" d="M191.1,92.4l-16.2-36.4,5.7-2.5,6.1,13.7,2.7-1.2c2.9-1.3,5.3-1.5,7.4-.6,2.1.9,3.8,2.8,5.1,5.8l2.1,4.7c1.3,2.9,1.6,5.5.9,7.6s-2.5,3.9-5.4,5.1l-8.4,3.8ZM197.2,83.5c.9-.4,1.5-1,1.8-1.7.3-.7.1-1.7-.5-3l-2.4-5.5c-.6-1.3-1.2-2.1-1.9-2.4-.7-.3-1.5-.2-2.4.2l-2.7,1.2,5.5,12.3,2.7-1.2Z"/>
      <path class="st1" d="M216.5,82l-5.9,1.9-12.2-37.9,5.9-1.9,5.2,16.2,6.8-2.2-5.2-16.2,6.1-2,12.2,37.9-6.1,2-5.2-16.2-6.8,2.2,5.2,16.2Z"/>
      <path class="st1" d="M252.5,72.9l-6.2,1.3-2.5-6.9-7.5,1.5.4,7.3-5.6,1.2-1.7-40.3,9-1.8,14.2,37.7ZM236,63.4l5.9-1.2-7-19.1,1.1,20.3Z"/>
      <path class="st1" d="M253.3,72.9c.2-.8.3-1.5.4-2.3,0-.7,0-1.6-.1-2.6l-.6-6.1c-.2-2.1,0-3.9.4-5.4.4-1.5,1.4-2.7,3-3.5-2.8-1-4.5-3.6-4.8-7.7l-.3-3.1c-.3-3.1.2-5.4,1.5-7.1,1.3-1.6,3.6-2.6,6.8-2.9l9.4-.9,3.8,39.6-6.2.6-1.5-16.1-2.1.2c-1.4.1-2.4.6-3,1.4-.6.8-.8,2.1-.6,4l.6,6.2c0,.8.1,1.5.2,2,0,.5,0,1,0,1.3,0,.3,0,.6-.1.9,0,.2-.1.5-.2.8l-6.3.6ZM260.2,37.9c-1.1.1-1.9.5-2.3,1.2-.4.7-.6,1.8-.5,3.2l.4,3.9c.2,1.6.6,2.6,1.3,3.2.7.5,1.7.8,2.8.6l2.4-.2-1.2-12.2-3,.3Z"/>
      <path class="st1" d="M285.6,40.5c.2-3.2,1.1-5.7,2.8-7.3,1.7-1.6,4.1-2.4,7.2-2.2,3.1.1,5.4,1.1,6.9,2.9,1.5,1.8,2.2,4.3,2.1,7.5l-1,20.7c-.2,3.2-1.1,5.7-2.8,7.3-1.7,1.6-4.1,2.4-7.2,2.2-3.1-.1-5.4-1.1-6.9-2.9-1.5-1.8-2.2-4.3-2.1-7.5l1-20.7ZM290.8,61.9c0,1.4.2,2.5.7,3.1.6.6,1.3.9,2.3,1,1,0,1.8-.2,2.4-.8.6-.6,1-1.6,1-3l1-21.5c0-1.4-.2-2.5-.7-3.1-.6-.6-1.3-.9-2.3-1-1,0-1.8.2-2.4.8-.6.6-1,1.6-1,3l-1,21.5Z"/>
      <path class="st1" d="M306.1,72l6.1-39.3,17.3,2.7-.9,5.6-11.1-1.7-1.6,10.1,3.6.6c3.1.5,5.3,1.7,6.6,3.6,1.3,1.9,1.7,4.4,1.2,7.6l-.7,4.2c-.5,3.2-1.7,5.5-3.5,6.9-1.8,1.4-4.3,1.9-7.4,1.4l-9.8-1.5ZM316.8,67.9c1,.2,1.8,0,2.4-.4.6-.4,1.1-1.4,1.3-2.8l.8-5c.2-1.4,0-2.4-.4-3.1-.5-.6-1.2-1-2.2-1.1l-3.6-.6-1.9,12.4,3.6.6Z"/>
      <path class="st1" d="M335.7,46.3c.8-3.1,2.3-5.3,4.3-6.5,2-1.2,4.5-1.5,7.5-.7,3,.8,5,2.2,6.1,4.3,1.1,2.1,1.3,4.7.4,7.8l-5.4,20c-.8,3.1-2.3,5.3-4.3,6.5-2,1.2-4.5,1.5-7.5.7-3-.8-5-2.2-6.1-4.3-1.1-2.1-1.3-4.7-.4-7.8l5.4-20ZM336.3,68.3c-.4,1.4-.4,2.4,0,3.2.4.7,1.1,1.2,2,1.5s1.8.2,2.5-.2c.7-.4,1.3-1.3,1.6-2.7l5.6-20.8c.4-1.4.4-2.4,0-3.2-.4-.7-1.1-1.2-2-1.5-1-.3-1.8-.2-2.5.2-.7.4-1.3,1.3-1.6,2.7l-5.6,20.8Z"/>
      <path class="st1" d="M371.9,47.5c2.9,1.1,4.8,2.7,5.7,4.8.8,2.1.7,4.7-.5,7.7l-1.8,4.8c-1.1,3-2.7,5-4.8,6-2,1-4.5,1-7.4-.2l-2.8-1.1-5.3,14-5.8-2.2,14.2-37.2,8.6,3.3ZM367.1,51.7l-4.8,12.6,2.8,1.1c.9.4,1.7.4,2.4,0,.7-.3,1.3-1.1,1.8-2.5l2.1-5.6c.5-1.3.6-2.4.3-3s-.9-1.2-1.8-1.6l-2.8-1.1Z"/>
      <path class="st1" d="M381.3,61.6c1.4-2.9,3.3-4.7,5.5-5.5,2.2-.8,4.7-.5,7.5.9,2.7,1.4,4.5,3.2,5.1,5.5.7,2.3.3,4.8-1.1,7.7l-9.3,18.5c-1.4,2.9-3.3,4.7-5.5,5.5-2.2.8-4.7.5-7.5-.9-2.7-1.4-4.5-3.2-5.1-5.5-.7-2.3-.3-4.8,1.1-7.7l9.3-18.5ZM377.4,83.2c-.6,1.3-.8,2.3-.6,3.1.3.8.8,1.4,1.7,1.8.9.4,1.7.5,2.5.3.8-.3,1.5-1,2.2-2.3l9.7-19.2c.6-1.3.8-2.3.6-3.1s-.8-1.4-1.7-1.8c-.9-.4-1.7-.5-2.5-.3-.8.3-1.5,1-2.2,2.3l-9.7,19.2Z"/>
      <path class="st1" d="M392.5,102l-5.3-3.4,21.6-33.5,5.3,3.4-9.2,14.3,6,3.8,9.2-14.3,5.3,3.4-21.6,33.5-5.3-3.4,9.2-14.3-6-3.8-9.2,14.3Z"/>
      <path class="st1" d="M422.4,124.1l-4.9-4,3.7-6.3-6-4.8-5.4,4.9-4.5-3.6,30-26.9,7.1,5.8-20.1,34.9ZM419.3,105.3l4.7,3.8,10.3-17.5-15,13.8Z"/>
      <path class="st1" d="M445.1,114.4l19,21.1-3.8,3.4-19-21.1,3.8-3.4Z"/>
      <path class="st1" d="M453,158.4l33.4-21.7,9.6,14.7-4.8,3.1-6.1-9.4-8.5,5.6,2,3c1.7,2.6,2.3,5.1,1.8,7.3s-2.2,4.2-4.9,6l-3.6,2.3c-2.7,1.8-5.2,2.4-7.4,2s-4.2-1.9-6-4.6l-5.4-8.3ZM463.2,163.6c.5.8,1.2,1.3,1.9,1.5.8.2,1.7-.1,2.9-.9l4.2-2.8c1.2-.8,1.9-1.6,2-2.3.1-.8,0-1.6-.6-2.4l-2-3-10.5,6.9,2,3Z"/>
      <path class="st1" d="M474.4,195.4l-2.9-5.6,5.9-4.3-3.5-6.8-6.9,2.3-2.6-5.1,38.3-12.5,4.2,8.1-32.5,23.8ZM479.1,177l2.7,5.4,16.6-11.9-19.3,6.5Z"/>
      <path class="st1" d="M515.5,191.3c1.1,2.9,1.2,5.4.2,7.4-1,2-3,3.6-6,4.8l-4.8,1.9c-3,1.2-5.6,1.4-7.7.5-2.1-.8-3.7-2.7-4.9-5.6l-1.1-2.8-13.9,5.4-2.3-5.8,37.1-14.5,3.4,8.6ZM509.1,190.7l-12.6,4.9,1.1,2.8c.4.9.9,1.5,1.6,1.8.7.3,1.7.2,3-.3l5.6-2.2c1.3-.5,2.2-1.1,2.5-1.8.3-.7.3-1.5,0-2.4l-1.1-2.8Z"/>
      <path class="st1" d="M501.6,229.8l-5.1,1.4c-3.1.9-5.7.8-7.8-.2-2.1-1-3.5-3-4.4-6-.8-3-.6-5.4.6-7.4,1.2-2,3.4-3.4,6.5-4.3l19.9-5.6c3.1-.9,5.7-.8,7.8.2s3.5,3,4.4,6c.8,3,.6,5.4-.6,7.4-1.2,2-3.4,3.4-6.5,4.3l-3.7,1.1-1.6-5.7,4.1-1.2c1.4-.4,2.3-1,2.7-1.7.4-.7.5-1.6.2-2.5-.3-.9-.8-1.6-1.5-2-.7-.4-1.8-.4-3.2,0l-20.7,5.8c-1.4.4-2.3.9-2.7,1.7-.4.7-.4,1.6-.2,2.5.3.9.8,1.6,1.5,2,.7.4,1.8.4,3.1,0l5.5-1.5,1.6,5.7Z"/>
      <path class="st1" d="M500.3,248.5c-1.8,0-3.4-.2-4.9-.6-1.4-.3-2.6-.8-3.6-1.6-1-.8-1.8-1.8-2.4-3.2-.6-1.4-1.1-3.1-1.3-5.3l5.5-1c.2,1.6.5,2.8,1.1,3.6.6.8,1.6,1.2,3.1,1.2h.3s28.7-13.8,28.7-13.8l1.1,6.1-12.8,5.7-8.9,3.5,9.4-.2,13.9.4,1.1,6.4-30.4-1.4Z"/>
      <path class="st1" d="M508,265.5l-3.8-1.7-12.2.9-.4-6.2,39.7-2.8.4,6.2-17.3,1.2,17.9,6.9.4,6.2-18.3-7.4-21.4,10.2-.5-6.4,15.4-7.2Z"/>
    </g>
    <g>
      <path class="st1" d="M178,492.3h-10.2l-1.7-11.7h-12.4l-1.7,11.7h-9.3l10.3-64.5h14.8l10.3,64.5ZM154.9,471.9h9.8l-4.9-32.6-4.9,32.6Z"/>
      <path class="st1" d="M197.6,427.8c5.1,0,8.9,1.4,11.4,4.1,2.5,2.7,3.7,6.7,3.7,11.9v8.4c0,5.2-1.2,9.2-3.7,11.9-2.5,2.7-6.3,4.1-11.4,4.1h-4.8v24.2h-10.1v-64.5h14.9ZM192.8,437v21.8h4.8c1.6,0,2.8-.4,3.7-1.3.9-.9,1.3-2.5,1.3-4.8v-9.7c0-2.3-.4-3.9-1.3-4.8-.9-.9-2.1-1.3-3.7-1.3h-4.8Z"/>
      <path class="st1" d="M227.8,492.3h-10.4v-64.5h9v40.8l3.7-14.2,8.3-26.6h11.1v64.5h-9.1v-45.4l-4.1,15.8-8.5,29.6Z"/>
      <path class="st1" d="M289.5,492.3h-10.2l-1.7-11.7h-12.4l-1.7,11.7h-9.3l10.3-64.5h14.8l10.3,64.5ZM266.4,471.9h9.8l-4.9-32.6-4.9,32.6Z"/>
      <path class="st1" d="M323.4,501v-8.7h-21.6v8.7h-9.8v-17.7h4c.9-1.1,1.5-2.3,1.8-3.6.3-1.3.6-2.9.7-4.8l2.3-47.1h28.3v55.5h4.4v17.7h-10ZM308.3,474.7c-.1,2.5-.4,4.3-.9,5.5-.5,1.2-1.1,2.2-2,3h13.3v-46.2h-8.6l-1.8,37.7Z"/>
      <path class="st1" d="M349.2,492.3h-10.1v-64.5h10.1v27.6h11.5v-27.6h10.3v64.5h-10.3v-27.6h-11.5v27.6Z"/>
      <path class="st1" d="M411.1,492.3h-10.2l-1.7-11.7h-12.4l-1.7,11.7h-9.3l10.3-64.5h14.8l10.3,64.5ZM388,471.9h9.8l-4.9-32.6-4.9,32.6Z"/>
    </g>
  </g>
  <g id="Capa_2">
    <g>
      <polygon class="st4" points="297.9 221.8 292 292.4 294.7 362.7 323.9 305.9 342.1 285.6 346.8 298.9 369.7 245.7 400.6 218.1 392.6 187.7 393.7 139.5 349.2 160.8 330.8 160.8 303.9 235.2 297.9 221.8"/>
      <polygon class="st5" points="303.4 292.2 331.2 281.1 329.3 267.9 336.4 248.1 303.4 292.2"/>
      <polygon class="st4" points="312 371.1 396.9 278.5 403.4 224.1 430.1 269.5 385.4 343 382.8 333 312 371.1"/>
      <polygon class="st1" points="362.8 166.1 373.9 170.8 383.2 180.6 385 155.3 362.8 166.1"/>
      <polygon class="st4" points="269 221.8 275 292.4 272.2 362.7 243.1 305.9 224.8 285.6 220.2 298.9 197.2 245.7 166.3 218.1 174.4 187.7 173.2 139.5 217.7 160.8 236.1 160.8 263 235.2 269 221.8"/>
      <polygon class="st5" points="263.5 292.2 235.8 281.1 237.6 267.9 230.5 248.1 263.5 292.2"/>
      <polygon class="st4" points="255 371.1 170.1 278.5 163.5 224.1 136.9 269.5 181.5 343 184.1 333 255 371.1"/>
      <polygon class="st1" points="204.1 166.1 193 170.8 183.7 180.6 181.9 155.3 204.1 166.1"/>
      <polygon class="st4" points="259.4 370.6 307.4 370.6 299.7 388.6 283.1 401.8 265.1 386.2 259.4 370.6"/>
    </g>
  </g>
</svg>