<svg viewBox="0 0 566.93 566.93" xmlns="http://www.w3.org/2000/svg"><path d="m285.46 10.59c-149.91 0-271.87 122-271.87 271.87s122 271.88 271.87 271.88 271.88-122 271.88-271.88-121.96-271.87-271.88-271.87z" fill="#fff"/><path d="m286.04 279.08-.45.36.31-.07z" fill="#f1c410"/><path d="m285.5 279.52v-.06l-.32.08.08.16z" fill="#f1c410"/><path d="m285.5 279.46v.06l.09-.08z" fill="#f1c410"/><path d="m285.5 279.81v-.29l-.24.18.03.06z" fill="#f1c410"/><path d="m285.9 279.37-.31.07-.09.08v.29l.17.04z" fill="#f1c410"/><path d="m285.5 279.81-.21-.05.21.43z" fill="#f1c410"/><path d="m285.67 279.85-.17-.04v.38.01z" fill="#f1c410"/><path d="m285.5 280.21-.15.31.15.12z" fill="#f1c410"/><path d="m285.5 280.2v.01.43l.35.28z" fill="#f1c410"/><path d="m284.74 279.64-.7-.16.31.25z" fill="#f1c410"/><path d="m285.5 280.19v.02-.01z" fill="#f1c410"/><path d="m285.5 280.21v-.02l-.21-.43-.08-.01-.42.33.56.44z" fill="#f1c410"/><path d="m285.21 279.75-.47-.11-.39.09.44.35z" fill="#f1c410"/><path d="m285.26 279.7-.08-.16-.44.1.47.11z" fill="#f1c410"/><path d="m285.26 279.7-.05.05.08.01z" fill="#f1c410"/><ellipse cx="283.71" cy="279.59" fill="#fff" rx="257.45" ry="253.34"/><path d="m283.71 34.71c-135.24 0-244.87 109.64-244.87 244.88s109.63 244.88 244.87 244.88 244.88-109.64 244.88-244.88-109.59-244.88-244.88-244.88zm0 423.47c-100.23 0-181.49-79.95-181.49-178.59s81.26-178.59 181.49-178.59 181.5 80 181.5 178.6-81.21 178.58-181.5 178.58z" fill="#d7282f"/><path d="m283.91 4.91v273.64l60.79-84.51z" fill="#005470"/><path d="m283.91 280.04v108.02l162.97 118.34-.28-.88z" fill="#005470"/><path d="m547.06 194.17h-202.32l-.04-.13-60.79 84.51v.77l261.56-83.96z" fill="#2f748b"/><path d="m545.47 195.36-261.56 83.96v.72l103.66 33.87-.03-.1z" fill="#005470"/><path d="m283.91 280.04 162.69 225.48-59.03-191.61z" fill="#2f748b"/><path d="m283.91 278.55v-273.64l-.45-1.38-61.27 190.64h-.24l61.42 85.13z" fill="#2f748b"/><path d="m283.37 279.3-61.42-85.13h-200.88l261.72 85.51.4-.13z" fill="#005470"/><path d="m283.19 279.55-.4.13.25.08z" fill="#d7282f"/><path d="m21.07 194.17h-1.2l158.63 118.98 104.29-33.47z" fill="#2f748b"/><path d="m178.5 313.15.89.66-59.3 192.47 162.95-226.52-.25-.08z" fill="#005470"/><path d="m283.91 278.55-.54.75.12.15.42-.13z" fill="#d7282f"/><path d="m283.91 279.32-.42.13.42.59z" fill="#d7282f"/><path d="m283.37 279.3-.18.25.3-.1z" fill="#d7282f"/><path d="m283.19 279.55-.15.21.87.28-.42-.59z" fill="#d7282f"/><path d="m120.09 506.28-.03.12 163.4-118.66.45.32v-108.02l-.87-.28z" fill="#2f748b"/><path d="m283.61 280.13v.24l.24-.08.04-.07z" fill="#d7282f"/><path d="m283.61 280.62.24-.33-.24.08z" fill="#d7282f"/><path d="m283.97 280.25-.08-.03-.04.07z" fill="#d7282f"/><path d="m346.03 300.04 95.72-71.79h-121.25l-36.14-112.44v16.33l32.49 101.11h109.9l-86.53 64.9 32.2 104.53-88.06-63.95v6.18l97.25 70.62z" fill="#fff"/><path d="m283.67 338.23-88.75 64.45 32.21-104.53-86.53-64.9h109.89l33.18-103.23.69 2.12v-16.33l-.69-2.13-36.83 114.57h-121.24l95.71 71.79-35.58 115.49 97.94-71.12.69.5v-6.18z" fill="#fff"/><path d="m426.75 233.25h-109.9l-32.49-101.11-.69-2.12-33.18 103.23h-109.89l86.53 64.9-32.21 104.53 88.75-64.45.69.5 88.06 63.95-32.2-104.53z" fill="#d7282f"/><path d="m285.46 6.09c-152.63 0-276.37 123.74-276.37 276.37s123.74 276.38 276.37 276.38 276.38-123.74 276.38-276.38-123.74-276.37-276.38-276.37zm0 548.25c-149.91 0-271.87-122-271.87-271.88s122-271.87 271.87-271.87 271.88 122 271.88 271.87-121.96 271.88-271.88 271.88z" fill="#005470"/><path d="m484.07 83.86a280.87 280.87 0 1 0 -397.21 397.21 280.87 280.87 0 1 0 397.21-397.21zm-198.61 475c-152.63-.02-276.37-123.76-276.37-276.4s123.74-276.37 276.37-276.37 276.38 123.74 276.38 276.37-123.74 276.38-276.38 276.38z" fill="#005470"/><g fill="#fff"><text font-family="Tahoma-Bold, Tahoma" font-size="55.75" font-weight="700" transform="matrix(.57457679 -.81845068 .81845068 .57457679 117.51 189.42)">B</text><text font-family="Tahoma-Bold, Tahoma" font-size="55.75" font-weight="700" transform="matrix(.70981666 -.70438648 .70438648 .70981666 138.58 159.45)">E</text><text font-family="Tahoma-Bold, Tahoma" font-size="55.75" font-weight="700" transform="matrix(.82 -.58 .58 .82 161.78 136.27)">T</text><text font-family="Tahoma-Bold, Tahoma" font-size="55.75" font-weight="700" transform="matrix(.90689699 -.42135241 .42135241 .90689699 188.21 117.29)">A</text><text transform="matrix(.95517508 -.29604149 .29604149 .95517508 221.92 102.33)"/><text transform="matrix(.98 -.22 .22 .98 236.79 97.69)"/><text transform="matrix(.99031659 -.13882742 .13882742 .99031659 251.84 94.3)"/><text transform="matrix(.99995882 .00907559 -.00907559 .99995882 279.82 91.26)"/><text transform="matrix(.98735854 .15850273 -.15850273 .98735854 307.92 92.39)"/><text transform="matrix(.97071648 .24022804 -.24022804 .97071648 323.28 94.83)"/><text font-family="Tahoma-Bold, Tahoma" font-size="55.75" font-weight="700" transform="matrix(.92514348 .37961763 -.37961763 .92514348 338.12 97.46)">U</text><text font-family="Tahoma-Bold, Tahoma" font-size="55.75" font-weight="700" transform="matrix(.82462016 .56568684 -.56568684 .82462016 374.61 112.12)">N</text><text font-family="Tahoma-Bold, Tahoma" font-size="55.75" font-weight="700" transform="matrix(.71141303 .70277415 -.70277415 .71141303 408.34 135.94)">I</text><text font-family="Tahoma-Bold, Tahoma" font-size="55.75" font-weight="700" transform="matrix(.59 .8 -.8 .59 426.8 153.63)">T</text><text font-family="Tahoma-Bold, Tahoma" font-size="40.91" font-weight="700" transform="matrix(-.01 1 -1 -.01 57.27 267.31)">B</text><text font-family="Tahoma-Bold, Tahoma" font-size="40.91" font-weight="700" transform="matrix(.12186934 .99254615 -.99254615 .12186934 56.96 297.83)">U</text><text font-family="Tahoma-Bold, Tahoma" font-size="40.91" font-weight="700" transform="matrix(.25949333 .9657449 -.9657449 .25949333 61.14 330.3)">R</text><text font-family="Tahoma-Bold, Tahoma" font-size="40.91" font-weight="700" transform="matrix(.38139308 .92441296 -.92441296 .38139308 69.73 361.14)">E</text><text font-family="Tahoma-Bold, Tahoma" font-size="40.91" font-weight="700" transform="matrix(.49348653 .86975344 -.86975344 .49348653 80.24 386.47)">A</text><text font-family="Tahoma-Bold, Tahoma" font-size="40.91" font-weight="700" transform="matrix(.60751448 .7943086 -.7943086 .60751448 95.36 412.93)">U</text><text transform="matrix(.68 .73 -.73 .68 115.23 438.01)"/><text transform="matrix(.72 .69 -.69 .72 124.13 447.48)"/><text transform="matrix(.81014397 .58623097 -.58623097 .81014397 147.1 467.63)"/><text transform="matrix(.89818109 .43962567 -.43962567 .89818109 179.36 488.21)"/><text transform="matrix(.96039101 .27865588 -.27865588 .96039101 214.71 502.98)"/><text transform="matrix(.99376792 .11146893 -.11146893 .99376792 251.99 511.45)"/><text transform="matrix(.99827074 -.05878369 .05878369 .99827074 290.23 513.5)"/><text transform="matrix(.97333924 -.22937027 .22937027 .97333924 328.26 508.99)"/><text transform="matrix(.92 -.39 .39 .92 364.93 498.03)"/><text transform="matrix(.84 -.54 .54 .84 399.17 481)"/><text transform="matrix(.73927861 -.67339969 .67339969 .73927861 430.02 458.54)"/><text transform="matrix(.62 -.79 .79 .62 456.74 431.26)"/><text font-family="Tahoma-Bold, Tahoma" font-size="40.91" font-weight="700" transform="matrix(.54 -.84 .84 .54 465.42 420.69)">A</text><text font-family="Tahoma-Bold, Tahoma" font-size="40.91" font-weight="700" transform="matrix(.43271524 -.90153065 .90153065 .43271524 481.61 395.14)">E</text><text font-family="Tahoma-Bold, Tahoma" font-size="40.91" font-weight="700" transform="matrix(.31183747 -.95013546 .95013546 .31183747 493.54 370.32)">G</text><text font-family="Tahoma-Bold, Tahoma" font-size="40.91" font-weight="700" transform="matrix(.19885482 -.98002896 .98002896 .19885482 503.28 339.24)">I</text><text font-family="Tahoma-Bold, Tahoma" font-size="40.91" font-weight="700" transform="matrix(.11 -.99 .99 .11 507.48 317.91)">S</text><text font-family="Tahoma-Bold, Tahoma" font-size="40.91" font-weight="700" transform="matrix(-.01 1 -1 -.01 57.27 267.3)">B</text><text font-family="Tahoma-Bold, Tahoma" font-size="40.91" font-weight="700" transform="matrix(.12 .99 -.99 .12 56.96 297.83)">U</text><text font-family="Tahoma-Bold, Tahoma" font-size="40.91" font-weight="700" transform="matrix(.25949333 .9657449 -.9657449 .25949333 61.14 330.3)">R</text><text font-family="Tahoma-Bold, Tahoma" font-size="40.91" font-weight="700" transform="matrix(.38139308 .92441296 -.92441296 .38139308 69.73 361.14)">E</text><text font-family="Tahoma-Bold, Tahoma" font-size="40.91" font-weight="700" transform="matrix(.49348653 .86975344 -.86975344 .49348653 80.24 386.47)">A</text><text font-family="Tahoma-Bold, Tahoma" font-size="40.91" font-weight="700" transform="matrix(.60751448 .7943086 -.7943086 .60751448 95.36 412.93)">U</text></g></svg>