<svg enable-background="new 0 0 566.9 566.9" viewBox="0 0 566.9 566.9" xmlns="http://www.w3.org/2000/svg"><circle cx="283.5" cy="283.5" r="269.3"/><g fill="#be1622"><path d="m283.5 530.5c-66 0-128-25.7-174.7-72.4s-72.4-108.7-72.4-174.7 25.7-128 72.4-174.7 108.7-72.4 174.7-72.4 128 25.7 174.7 72.4 72.4 108.7 72.4 174.7-25.7 128-72.4 174.7-108.7 72.4-174.7 72.4zm0-491.1c-134.6 0-244 109.5-244 244 0 134.6 109.5 244 244 244 134.6 0 244-109.5 244-244s-109.5-244-244-244z"/><path d="m91.6 237h141.1v23h-141.1z"/><path d="m91.6 272h113.1v23h-113.1z"/><path d="m255.6 272h56.6v23h-56.6z"/><path d="m255.6 237h56.6v23h-56.6z"/><path d="m255.6 309h56.6v23h-56.6z"/><path d="m91.6 309h141.1v23h-141.1z"/><path d="m334.2 272h141.1v23h-141.1z" transform="matrix(0 1 -1 0 688.2139 -121.2839)"/><path d="m334.2 272h113.1v23h-113.1z"/><path d="m334.2 309h141.1v23h-141.1z"/><path d="m106.1 444.2c1.2-7.2 2.5-14.4 3.8-22.2 42.2-15 84.6-30.1 127-45.2 1.6 1.9 2.9 3.5 4.9 5.9-34.9 15.7-69.4 31.3-104.3 47 4.6 18.4 7 37 12.5 55-.2 1.5-.4 2.9-.9 5.7-14.8-12.5-29-24.6-43-36.5 0-3.7 0-6.7 0-9.7z"/><path d="m461.1 444.2c-1.2-7.2-2.5-14.4-3.8-22.2-42.2-15-84.6-30.1-127-45.2-1.6 1.9-2.9 3.5-4.9 5.9 34.9 15.7 69.4 31.3 104.3 47-4.6 18.4-7 37-12.5 55 .2 1.5.4 2.9.9 5.7 14.8-12.5 29-24.6 43-36.5 0-3.7 0-6.7 0-9.7z"/><path d="m461.1 122.7c-1.2 7.2-2.5 14.4-3.8 22.2-42.2 15-84.6 30.1-127 45.2-1.6-1.9-2.9-3.5-4.9-5.9 34.9-15.7 69.4-31.3 104.3-47-4.6-18.4-7-37-12.5-55 .2-1.5.4-2.9.9-5.7 14.8 12.5 29 24.6 43 36.5z"/><path d="m106.1 122.7c1.2 7.2 2.5 14.4 3.8 22.2 42.2 15 84.6 30.1 127 45.2 1.6-1.9 2.9-3.5 4.9-5.9-34.9-15.7-69.4-31.3-104.3-47 4.6-18.4 7-37 12.5-55-.2-1.5-.4-2.9-.9-5.7-14.8 12.5-29 24.6-43 36.5z"/><path d="m352.3 83.5c-13.7 7.7-27.4 15.3-41.2 23-.5.3-1 .6-1.6.9.7 7.7 1.4 15.2 2.2 23-2.9 4.7-5.9 9.6-9 14.6 2.8 6 5.1 12.4 8.1 18.4.1.5.2 1 .3 1.8-3.4 2.7-7.7 2.7-11.6 3.7-.6-.6-.7-1.2-.8-1.8-3.9-13.9-7.7-27.7-11.6-41.6-.1-.4-.2-.9-.2-1.3 0-4 0-8 0-12 0-.8 0-1.5 1.1-1.7 2.9 6.8 5.8 13.6 8.8 20.7 2.2-7.7 4.5-15.1 6.5-22.5.8-3 2.2-5.2 4.6-7.3 12.3-10.5 24.5-21.2 36.8-31.8.9-.8 1.9-1.4 2.5-2.5.8.1 1.1-1 2.1-1 2.7 5 4.4 10.4 5.4 15.7-.7 1.1-1.9.8-2.4 1.7z"/><path d="m257.3 163.3c2.6-6.1 5.1-12.2 7.7-18.5-2.9-4.8-5.9-9.6-8.9-14.5.7-7.7 1.4-15.3 2.2-23.1-4.3-2.4-8.7-4.9-13.1-7.3-9.6-5.4-19.2-10.7-28.8-16.1-.4-.2-.7-.5-1.1-.7-.5-.6-1.4-.4-2-1.4.9-5.3 2.7-10.6 5.3-15.7.9-.2 1.2.7 1.8.9 13.9 12.1 27.9 24.2 41.8 36.3.7.6 1.2 1.3 1.4 2.2 2.4 8.5 4.9 16.9 7.5 25.6 3-7 5.9-13.8 8.8-20.6 1 .2 1.1.8 1.1 1.5 0 4.2.3 8.3-.1 12.5-.3 3.2-1.6 6.4-2.5 9.5-3 10.8-6 21.6-9 32.4-.1.3-.2.6-.1 1-.5.2-.3.9-.8 1.4-4-.7-8.2-1.2-11.8-3.7.1-.6.3-1.1.6-1.7z"/><path d="m215.5 496.9c13.7-7.7 27.4-15.3 41.2-23 .5-.3 1-.6 1.6-.9-.7-7.7-1.4-15.2-2.2-23 2.9-4.7 5.9-9.6 9-14.6-2.8-6-5.1-12.4-8.1-18.4-.1-.5-.2-1-.3-1.8 3.4-2.7 7.7-2.7 11.6-3.7.6.6.7 1.2.8 1.8 3.9 13.9 7.7 27.7 11.6 41.6.1.4.2.9.2 1.3v12c0 .8 0 1.5-1.1 1.7-2.9-6.8-5.8-13.6-8.8-20.7-2.2 7.7-4.5 15.1-6.5 22.5-.8 3-2.2 5.2-4.6 7.3-12.3 10.5-24.5 21.2-36.8 31.8-.9.8-1.9 1.4-2.5 2.5-.8-.1-1.1 1-2.1 1-2.7-5-4.4-10.4-5.4-15.7.7-1.2 1.9-.9 2.4-1.7z"/><path d="m310.5 417c-2.6 6.1-5.1 12.2-7.7 18.5 2.9 4.8 5.9 9.6 8.9 14.5-.7 7.7-1.4 15.3-2.2 23.1 4.3 2.4 8.7 4.9 13.1 7.3 9.6 5.4 19.2 10.7 28.8 16.1.4.2.7.5 1.1.7.5.6 1.4.4 2 1.4-.9 5.3-2.7 10.6-5.3 15.7-.9.2-1.2-.7-1.8-.9-13.9-12.1-27.9-24.2-41.8-36.3-.7-.6-1.2-1.3-1.4-2.2-2.4-8.5-4.9-16.9-7.5-25.6-3 7-5.9 13.8-8.8 20.6-1-.2-1.1-.8-1.1-1.5 0-4.2-.3-8.3.1-12.5.3-3.2 1.6-6.4 2.5-9.5 3-10.8 6-21.6 9-32.4.1-.3.2-.6.1-1 .5-.2.3-.9.8-1.4 4 .7 8.2 1.2 11.8 3.7-.1.7-.4 1.2-.6 1.7z"/></g></svg>