<?xml version="1.0" encoding="UTF-8"?>
<svg id="Capa_1" xmlns="http://www.w3.org/2000/svg" version="1.1" viewBox="0 0 566.9 566.9">
  <!-- Generator: Adobe Illustrator 29.0.1, SVG Export Plug-In . SVG Version: 2.1.0 Build 192)  -->
  <defs>
    <style>
      .st0 {
        fill: #f18700;
      }

      .st1 {
        fill: #f6f6f6;
      }

      .st2 {
        isolation: isolate;
      }

      .st3 {
        fill: #009fe4;
      }
    </style>
  </defs>
  <path class="st1" d="M284.1,557.7c-73.2,0-141.9-28.5-193.7-80.2-51.7-51.7-80.2-120.5-80.2-193.7s28.5-141.9,80.2-193.7C142.1,38.5,210.9,10,284.1,10s141.9,28.5,193.7,80.2c51.7,51.7,80.2,120.5,80.2,193.7s-28.5,141.9-80.2,193.7-120.5,80.2-193.7,80.2h0Z"/>
  <path class="st3" d="M283.5,12.1c36.6,0,72.2,7.2,105.6,21.3,32.3,13.7,61.3,33.2,86.3,58.2s44.5,54,58.2,86.3c14.2,33.4,21.3,69,21.3,105.6s-7.2,72.2-21.3,105.6c-13.7,32.3-33.2,61.3-58.2,86.3s-54,44.5-86.3,58.2c-33.5,14.2-69,21.3-105.6,21.3s-72.2-7.2-105.6-21.3c-32.3-13.7-61.3-33.2-86.3-58.2s-44.5-54-58.2-86.3c-14.1-33.5-21.3-69-21.3-105.6s7.2-72.2,21.3-105.6c13.7-32.3,33.2-61.3,58.2-86.3s54-44.5,86.3-58.2c33.4-14.1,69-21.3,105.6-21.3M283.5,7.1C130.8,7.1,7.1,130.8,7.1,283.5s123.7,276.4,276.4,276.4,276.4-123.7,276.4-276.4S436.1,7.1,283.5,7.1h0Z"/>
  <path class="st3" d="M24.8,283.5c0,69.1,26.9,134.1,75.8,182.9,44.2,44.2,101.7,70.5,163.5,75v-33.5c-112.4-9.7-201.5-102.2-205.7-216.1h61.1c4,80.2,65.9,145.5,144.6,154.8v-16.8c-69.5-9.2-123.9-67-127.9-138-.1-2.8-.2-5.5-.2-8.3s0-5.6.2-8.3c4-71,58.4-128.8,127.9-138v-16.8c-78.7,9.3-140.6,74.6-144.6,154.8h-61.1c4.2-113.9,93.3-206.5,205.7-216.1V25.5c-61.8,4.6-119.2,30.8-163.5,75.1-48.9,48.9-75.8,113.8-75.8,182.9h0Z"/>
  <path class="st3" d="M466.4,100.5c-44.2-44.2-101.7-70.5-163.5-75.1v33.5c112.4,9.7,201.5,102.2,205.7,216.1h-61.1c-4-80.2-65.9-145.5-144.6-154.8v16.8c69.5,9.2,123.9,66.9,127.9,138,.1,2.8.2,5.5.2,8.3s0,5.6-.2,8.3c-4,71-58.4,128.8-127.9,138v16.8c78.7-9.3,140.6-74.6,144.6-154.8h61.1c-4.2,113.9-93.3,206.5-205.7,216.1v33.5c61.8-4.6,119.2-30.8,163.5-75,48.9-48.9,75.8-113.8,75.8-182.9s-26.9-134.1-75.8-182.9h0Z"/>
  <g class="st2">
    <g class="st2">
      <path class="st0" d="M77.7,243.4c.9-5,3.9-7.1,8.9-6.2l2.2.4c3.2.6,4.7,2.1,4.7,4.7.9-2.4,2.9-3.3,6.1-2.7l2.2.4c5,.9,7.1,3.9,6.2,8.9l-2.2,11.9-30.3-5.5,2.2-11.9ZM80.6,251.7l8.6,1.6,1.4-7.6c.4-2.2-.5-3.4-2.6-3.8l-2.2-.4c-2.2-.4-3.4.5-3.8,2.6l-1.4,7.6ZM93.6,254.1l8.6,1.6,1.4-7.6c.4-2.2-.5-3.4-2.6-3.8l-2.2-.4c-2.2-.4-3.4.5-3.8,2.6l-1.4,7.6Z"/>
    </g>
  </g>
  <g class="st2">
    <g class="st2">
      <path class="st0" d="M87.3,208.7l21.9,7.1c4.9,1.6,6.5,4.8,4.9,9.7l-1.7,5.2c-1.6,4.9-4.8,6.5-9.7,4.9l-21.9-7.1,1.4-4.2,21.9,7.1c2.1.7,3.5,0,4.2-2.1l1.7-5.2c.7-2.1,0-3.5-2.1-4.2l-21.9-7.1,1.4-4.2Z"/>
    </g>
  </g>
  <g class="st2">
    <g class="st2">
      <path class="st0" d="M110.4,200.1l-2.5,5.3,11.9,5.7-1.9,4-27.7-13.3,5.2-10.9c2.2-4.6,5.6-5.8,10.3-3.6l2,1c4.2,2,5.7,4.6,4.6,7.9l14.2,1.1-1.9,4-14.1-1.1ZM96,199.7l7.9,3.8,3.3-6.9c1-2,.4-3.4-1.5-4.4l-2-1c-2-1-3.4-.4-4.4,1.5l-3.3,6.9Z"/>
    </g>
  </g>
  <g class="st2">
    <g class="st2">
      <path class="st0" d="M122.9,169.9l3.7,2.4-7.1,11.1,7.4,4.8,7.1-11.1,3.7,2.4-9.5,14.8-25.9-16.6,9.5-14.8,3.7,2.4-7.1,11.1,7.4,4.8,7.1-11.1Z"/>
    </g>
  </g>
  <g class="st2">
    <g class="st2">
      <path class="st0" d="M153.8,159.7l-2.8,3.4-6.4-2.7-7.2,8.7,3.8,5.8-2.8,3.4-17.7-26.8,3.7-4.4,29.5,12.6ZM134.8,165.3l5.5-6.6-14.6-6.5,9.1,13.2Z"/>
    </g>
  </g>
  <g class="st2">
    <g class="st2">
      <path class="st0" d="M149.2,122.1l15.6,17c3.5,3.8,3.3,7.4-.5,10.9l-4,3.7c-3.8,3.5-7.4,3.3-10.9-.5l-15.6-17,3.2-3,15.6,17c1.5,1.6,3,1.7,4.7.2l4-3.7c1.6-1.5,1.7-3,.2-4.7l-15.6-17,3.2-3Z"/>
    </g>
  </g>
  <g class="st2">
    <g class="st2">
      <path class="st0" d="M193,120c2.7,4.3,1.9,7.9-2.4,10.6l-4.6,2.9c-4.3,2.7-7.9,1.9-10.6-2.4l-8.2-13c-2.7-4.3-1.9-7.9,2.4-10.6l4.6-2.9c4.3-2.7,7.9-1.9,10.6,2.4l8.2,13ZM179.1,128.7c1.2,1.9,2.7,2.2,4.5,1l4.6-2.9c1.9-1.2,2.2-2.7,1-4.5l-8.2-13c-1.2-1.9-2.7-2.2-4.5-1l-4.6,2.9c-1.9,1.2-2.2,2.7-1,4.5l8.2,13Z"/>
    </g>
  </g>
  <g class="st2">
    <g class="st2">
      <path class="st0" d="M208.7,101.6l1.9,4-12,5.6,5.6,12-4,1.9-13-27.9,15.9-7.4,1.9,4-12,5.6,3.7,8,12-5.6Z"/>
    </g>
  </g>
  <g class="st2">
    <g class="st2">
      <path class="st0" d="M229.5,104.8c.6,2.1,1.9,2.9,4.1,2.3l9.5-2.6,1.2,4.2-9.5,2.6c-4.9,1.4-8.1-.4-9.5-5.4l-4.1-14.8c-1.4-4.9.4-8.1,5.4-9.5l9.5-2.6,1.2,4.2-9.5,2.6c-2.1.6-2.9,1.9-2.3,4.1l4.1,14.8Z"/>
    </g>
  </g>
  <g class="st2">
    <g class="st2">
      <path class="st0" d="M267.2,97.3c.7,5.1-1.4,8-6.5,8.7l-5.4.8c-5.1.7-8-1.4-8.7-6.5l-2.2-15.2c-.7-5.1,1.4-8,6.5-8.7l5.4-.8c5.1-.7,8,1.4,8.7,6.5l2.2,15.2ZM250.9,99.6c.3,2.2,1.6,3.1,3.7,2.8l5.4-.8c2.2-.3,3.1-1.6,2.8-3.7l-2.2-15.2c-.3-2.2-1.6-3.1-3.7-2.8l-5.4.8c-2.2.3-3.1,1.6-2.8,3.7l2.2,15.2Z"/>
    </g>
  </g>
  <g class="st2">
    <g class="st2">
      <path class="st0" d="M276.1,100.3l13.2-.2v4.4c0,0-17.5.3-17.5.3l-.5-30.8h4.4c0,0,.4,26.3.4,26.3Z"/>
    </g>
  </g>
  <g class="st2">
    <g class="st2">
      <path class="st0" d="M314.4,99.2c-.6,5.1-3.4,7.4-8.5,6.8l-5.5-.6c-5.1-.6-7.4-3.4-6.8-8.5l1.7-15.3c.6-5.1,3.4-7.4,8.5-6.8l5.5.6c5.1.6,7.4,3.4,6.8,8.5l-1.7,15.3ZM298,97.4c-.2,2.2.7,3.4,2.9,3.6l5.5.6c2.2.2,3.4-.7,3.6-2.9l1.7-15.3c.2-2.2-.7-3.4-2.9-3.6l-5.5-.6c-2.2-.2-3.4.7-3.6,2.9l-1.7,15.3Z"/>
    </g>
  </g>
  <g class="st2">
    <g class="st2">
      <path class="st0" d="M328.7,78.7l7.4,24.5,5.4-21.3,4.3,1.1-7.5,29.8-4.3-1.1-7.4-24.5-5.4,21.3-4.3-1.1,7.5-29.8,4.3,1.1Z"/>
    </g>
  </g>
  <g class="st2">
    <g class="st2">
      <path class="st0" d="M356.1,86.8l-10.3,29-4.1-1.5,10.3-29,4.1,1.5Z"/>
    </g>
  </g>
  <g class="st2">
    <g class="st2">
      <path class="st0" d="M369.3,126l-4-1.8.9-6.8-10.3-4.7-4.6,5.1-4-1.8,21.3-24.1,5.2,2.4-4.5,31.8ZM359,109.2l7.8,3.6,2.5-15.8-10.3,12.2Z"/>
    </g>
  </g>
  <g class="st2">
    <g class="st2">
      <path class="st0" d="M376.4,125.4l11.2,7-2.3,3.7-14.9-9.3,16.2-26.1,3.7,2.3-13.9,22.4Z"/>
    </g>
  </g>
  <g class="st2">
    <g class="st2">
      <path class="st0" d="M411.3,157.8l-3.3-2.9,2.9-6.3-8.4-7.5-5.9,3.6-3.3-2.9,27.3-16.9,4.3,3.8-13.5,29.1ZM406.3,138.6l6.4,5.7,7-14.4-13.4,8.6Z"/>
    </g>
  </g>
  <g class="st2">
    <g class="st2">
      <path class="st0" d="M436.8,160.4l-3.3,2.9-8.7-9.9-9.9,8.7-2.9-3.3,23.1-20.3,11.6,13.2-3.3,2.9-8.7-9.9-6.6,5.8,8.7,9.9Z"/>
    </g>
  </g>
  <g class="st2">
    <g class="st2">
      <path class="st0" d="M450.2,179.3l-3.6,2.5-7.5-10.9-10.9,7.5-2.5-3.6,25.3-17.5,10,14.5-3.6,2.5-7.5-10.9-7.2,5,7.5,10.9Z"/>
    </g>
  </g>
  <g class="st2">
    <g class="st2">
      <path class="st0" d="M447.8,211.7l-2-3.9,4.9-4.9-5.2-10-6.8,1.2-2-3.9,31.5-6,2.6,5.1-23,22.4ZM449.9,192.1l4,7.6,11.7-10.9-15.6,3.3Z"/>
    </g>
  </g>
  <g class="st2">
    <g class="st2">
      <path class="st0" d="M478.1,205.6l-28.4,11.7-1.7-4.1,28.4-11.7,1.7,4.1Z"/>
    </g>
  </g>
  <g class="st2">
    <g class="st2">
      <path class="st0" d="M466.9,226.6l-1.8-5.6-12.6,3.9-1.3-4.2,29.4-9.2,3.6,11.5c1.5,4.9-.2,8.1-5,9.6l-2.1.7c-4.4,1.4-7.3.5-8.8-2.6l-11.1,8.9-1.3-4.2,11.1-8.8ZM477.8,217.1l-8.4,2.6,2.3,7.3c.7,2.1,2,2.8,4.1,2.2l2.1-.7c2.1-.7,2.8-2,2.2-4.1l-2.3-7.3Z"/>
    </g>
  </g>
  <g class="st2">
    <g class="st2">
      <path class="st0" d="M458,242.9l4.3-.8,2.1,11.9c.4,2.2,1.6,3.1,3.8,2.7l2.2-.4c2.2-.4,3.1-1.6,2.7-3.8l-.8-4.3c-.9-5.1,1.2-8,6.3-8.9l2.2-.4c5.1-.9,8,1.2,8.9,6.3l2.1,11.9-4.3.8-2.1-11.9c-.4-2.2-1.6-3.1-3.8-2.7l-2.2.4c-2.2.4-3.1,1.6-2.7,3.8l.8,4.3c.9,5.1-1.2,8-6.3,8.9l-2.2.4c-5.1.9-8-1.2-8.9-6.3l-2.1-11.9Z"/>
    </g>
  </g>
  <g class="st2">
    <g class="st2">
      <path class="st0" d="M181.6,426.6c5,3.7,5.7,8.1,2,13.1l-1.6,2.2c-2.3,3.2-4.9,4.1-7.7,2.7,2.1,2.2,2,4.9-.3,8.1l-1.6,2.2c-3.7,5-8.1,5.7-13.1,2l-11.9-8.8,22.3-30.3,11.9,8.8ZM161.3,438.3l-6.4,8.6,7.6,5.6c2.2,1.6,4,1.3,5.6-.9l1.6-2.2c1.6-2.2,1.3-4-.9-5.6l-7.6-5.6ZM170.9,425.3l-6.4,8.6,7.6,5.6c2.2,1.6,4,1.3,5.6-.9l1.6-2.2c1.6-2.2,1.3-4-.9-5.6l-7.6-5.6Z"/>
    </g>
  </g>
  <g class="st2">
    <g class="st2">
      <path class="st0" d="M181.7,464.8l14.3,7.5-2.5,4.8-19-10,17.5-33.3,4.8,2.5-15,28.5Z"/>
    </g>
  </g>
  <g class="st2">
    <g class="st2">
      <path class="st0" d="M227,489.6l-5.1-1.8.3-8.4-13-4.5-5,6.8-5.1-1.8,23-31.8,6.6,2.3-1.7,39.2ZM212.5,470.3l9.9,3.5,1.2-19.5-11.2,16Z"/>
    </g>
  </g>
  <g class="st2">
    <g class="st2">
      <path class="st0" d="M240.1,482.7c-.5,2.6.6,4.2,3.2,4.7l11.9,2.2-1,5.3-11.9-2.2c-6.2-1.2-8.7-4.8-7.5-11l3.5-18.5c1.2-6.2,4.8-8.7,11-7.5l11.9,2.2-1,5.3-11.9-2.2c-2.6-.5-4.2.6-4.7,3.2l-3.5,18.5Z"/>
    </g>
  </g>
  <g class="st2">
    <g class="st2">
      <path class="st0" d="M262.8,496l1.4-37.6,5.4.2-.7,18.2,15.5-17.7,6.7.3-15.5,18.2,14,19.3-6.7-.3-14.1-18.8-.7,18.2-5.4-.2Z"/>
    </g>
  </g>
  <g class="st2">
    <g class="st2">
      <path class="st0" d="M336,490.7l-5.3,1-3.9-7.5-13.6,2.5-1,8.4-5.3,1,4.4-39,6.9-1.2,17.8,35ZM313.9,481l10.4-1.9-8.5-17.6-1.8,19.4Z"/>
    </g>
  </g>
  <g class="st2">
    <g class="st2">
      <path class="st0" d="M340.9,488.8l-1.5-5.2,5.2-1.5,1.5,5.2-5.2,1.5Z"/>
    </g>
  </g>
  <g class="st2">
    <g class="st2">
      <path class="st0" d="M344.8,448l12.6,35.4-5.1,1.8-12.6-35.4,5.1-1.8Z"/>
    </g>
  </g>
  <g class="st2">
    <g class="st2">
      <path class="st0" d="M363.7,481l-2.1-4.9,4.9-2.1,2.1,4.9-4.9,2.1Z"/>
    </g>
  </g>
  <g class="st2">
    <g class="st2">
      <path class="st0" d="M379.1,455.8l-6.3,3.5,7.8,14.1-4.7,2.6-18.2-32.9,12.9-7.1c5.5-3,9.7-1.8,12.8,3.7l1.3,2.4c2.7,4.9,2.4,8.7-1,11.2l13.4,11.2-4.7,2.6-13.3-11.1ZM365,445.2l5.2,9.4,8.2-4.5c2.4-1.3,2.9-3.1,1.6-5.5l-1.3-2.4c-1.3-2.3-3.1-2.9-5.5-1.6l-8.2,4.5Z"/>
    </g>
  </g>
  <g class="st2">
    <g class="st2">
      <path class="st0" d="M403.5,459.6l-3.1-4.4,4.4-3.1,3.1,4.4-4.4,3.1Z"/>
    </g>
  </g>
  <polygon class="st0" points="283.5 211.7 294.8 231.7 306.1 216 283.5 175.7 260.8 216 272.1 231.7 283.5 211.7"/>
  <path class="st0" d="M254.8,327.7c-1.5,40.2,24.2,63.5,24.2,63.5v-73.2s-24,10.2-24.2,9.8Z"/>
  <path class="st0" d="M216.8,268.7c.2.5,2.8-16.5,19.5-16.8.2.5,13.9-.5,18.4,15.2,0,.8,0,26.2,0,26.2l24.3-9.4v-40.8s-17.2-2.5-22.5-17.8c.2,0-82.8,0-82.8,0,0,0,14.5,27.8,43,43.2Z"/>
  <polygon class="st0" points="319.6 274 342.9 314.7 283.5 290.2 224.1 314.7 247.3 274 235.6 259.7 183.8 349 283.5 308.5 383.1 349 331.4 259.7 319.6 274"/>
  <path class="st0" d="M287.9,318v73.2s25.8-23.2,24.2-63.5c-.2.5-24.2-9.8-24.2-9.8Z"/>
  <path class="st0" d="M287.9,243.2v40.8l24.3,9.4s0-25.5,0-26.2c4.6-15.8,18.2-14.8,18.4-15.2,16.8.2,19.2,17.2,19.5,16.8,28.5-15.5,43-43.2,43-43.2,0,0-83,0-82.8,0-5.2,15.2-22.5,17.8-22.5,17.8h0Z"/>
</svg>