<?xml version="1.0" encoding="UTF-8"?>
<svg id="Capa_1" xmlns="http://www.w3.org/2000/svg" version="1.1" viewBox="0 0 566.9 566.9">
  <!-- Generator: Adobe Illustrator 29.0.1, SVG Export Plug-In . SVG Version: 2.1.0 Build 192)  -->
  <defs>
    <style>
      .st0 {
        fill: #f18700;
      }

      .st1 {
        fill: #f6f6f6;
      }

      .st2 {
        isolation: isolate;
      }

      .st3 {
        fill: #009fe4;
      }
    </style>
  </defs>
  <path class="st1" d="M284.1,557.7c-73.2,0-141.9-28.5-193.7-80.2-51.7-51.7-80.2-120.5-80.2-193.7s28.5-141.9,80.2-193.7C142.1,38.5,210.9,10,284.1,10s141.9,28.5,193.7,80.2c51.7,51.7,80.2,120.5,80.2,193.7s-28.5,141.9-80.2,193.7-120.5,80.2-193.7,80.2h0Z"/>
  <path class="st3" d="M283.5,12.1c36.6,0,72.2,7.2,105.6,21.3,32.3,13.7,61.3,33.2,86.3,58.2s44.5,54,58.2,86.3c14.2,33.4,21.3,69,21.3,105.6s-7.2,72.2-21.3,105.6c-13.7,32.3-33.2,61.3-58.2,86.3s-54,44.5-86.3,58.2c-33.5,14.2-69,21.3-105.6,21.3s-72.2-7.2-105.6-21.3c-32.3-13.7-61.3-33.2-86.3-58.2s-44.5-54-58.2-86.3c-14.1-33.5-21.3-69-21.3-105.6s7.2-72.2,21.3-105.6c13.7-32.3,33.2-61.3,58.2-86.3s54-44.5,86.3-58.2c33.4-14.1,69-21.3,105.6-21.3M283.5,7.1C130.8,7.1,7.1,130.8,7.1,283.5s123.7,276.4,276.4,276.4,276.4-123.7,276.4-276.4S436.1,7.1,283.5,7.1h0Z"/>
  <path class="st3" d="M24.8,283.5c0,69.1,26.9,134.1,75.8,182.9,44.2,44.2,101.7,70.5,163.5,75v-33.5c-112.4-9.7-201.5-102.2-205.7-216.1h61.1c4,80.2,65.9,145.5,144.6,154.8v-16.8c-69.5-9.2-123.9-67-127.9-138-.1-2.8-.2-5.5-.2-8.3s0-5.6.2-8.3c4-71,58.4-128.8,127.9-138v-16.8c-78.7,9.3-140.6,74.6-144.6,154.8h-61.1c4.2-113.9,93.3-206.5,205.7-216.1V25.5c-61.8,4.6-119.2,30.8-163.5,75.1-48.9,48.9-75.8,113.8-75.8,182.9h0Z"/>
  <path class="st3" d="M466.4,100.5c-44.2-44.2-101.7-70.5-163.5-75.1v33.5c112.4,9.7,201.5,102.2,205.7,216.1h-61.1c-4-80.2-65.9-145.5-144.6-154.8v16.8c69.5,9.2,123.9,66.9,127.9,138,.1,2.8.2,5.5.2,8.3s0,5.6-.2,8.3c-4,71-58.4,128.8-127.9,138v16.8c78.7-9.3,140.6-74.6,144.6-154.8h61.1c-4.2,113.9-93.3,206.5-205.7,216.1v33.5c61.8-4.6,119.2-30.8,163.5-75,48.9-48.9,75.8-113.8,75.8-182.9s-26.9-134.1-75.8-182.9h0Z"/>
  <g class="st2">
    <g class="st2">
      <path class="st0" d="M163.2,104.4c5.2-3.5,9.5-2.7,13.1,2.4l1.5,2.2c2.2,3.2,2.2,6,0,8.1,2.8-1.3,5.3-.3,7.6,3l1.5,2.2c3.5,5.2,2.7,9.5-2.4,13.1l-12.2,8.4-21.3-31,12.2-8.4ZM158.5,114.1l6.1,8.9,7.7-5.3c2.2-1.5,2.6-3.4,1-5.6l-1.5-2.2c-1.5-2.2-3.4-2.6-5.6-1l-7.8,5.3ZM167.7,127.4l6.1,8.9,7.8-5.3c2.2-1.5,2.6-3.4,1-5.6l-1.5-2.2c-1.5-2.2-3.4-2.6-5.6-1l-7.8,5.3Z"/>
    </g>
  </g>
  <g class="st2">
    <g class="st2">
      <path class="st0" d="M198.3,121l14.5-7,2.3,4.8-19.3,9.4-16.4-33.8,4.8-2.3,14.1,29Z"/>
    </g>
  </g>
  <g class="st2">
    <g class="st2">
      <path class="st0" d="M211.4,80.2l13,35.3-5,1.9-13-35.3,5-1.9Z"/>
    </g>
  </g>
  <g class="st2">
    <g class="st2">
      <path class="st0" d="M224.8,75.9l22,22.3-6.3-26.1,5.2-1.3,8.8,36.5-5.2,1.3-22-22.3,6.3,26.1-5.2,1.3-8.8-36.5,5.2-1.3Z"/>
    </g>
  </g>
  <g class="st2">
    <g class="st2">
      <path class="st0" d="M258.3,106.8l-2.6-37.5,5.4-.4,1.2,18.2,13.5-19.2,6.7-.5-13.5,19.8,16,17.7-6.7.5-16-17.2,1.2,18.2-5.4.4Z"/>
    </g>
  </g>
  <g class="st2">
    <g class="st2">
      <path class="st0" d="M327.4,72.1l-.8,5.3-9.3-1.4-4.7,31.9-5.3-.8,4.7-31.9-9.3-1.4.8-5.3,23.9,3.6Z"/>
    </g>
  </g>
  <g class="st2">
    <g class="st2">
      <path class="st0" d="M352.6,96l-1.6,5.1-15.4-4.7-3.1,10.3,15.4,4.7-1.6,5.1-20.5-6.3,11-35.9,20.5,6.3-1.6,5.1-15.4-4.7-3.1,10.3,15.4,4.7Z"/>
    </g>
  </g>
  <g class="st2">
    <g class="st2">
      <path class="st0" d="M374.3,129.6l-4.8-2.3,1.2-8.3-12.4-6-5.7,6.2-4.8-2.3,26.5-29,6.3,3-6.1,38.8ZM362.1,108.8l9.5,4.6,3.4-19.2-12.9,14.7Z"/>
    </g>
  </g>
  <g class="st2">
    <g class="st2">
      <path class="st0" d="M397.6,99.6l5.8,4.3-8.5,28.8,24.9-16.7,5.8,4.3-22.3,30.3-4.3-3.2,16.7-22.7-24.7,16.8-3.5-2.5,8.7-28.6-16.7,22.7-4.3-3.2,22.3-30.3Z"/>
    </g>
  </g>
  <g class="st2">
    <g class="st2">
      <path class="st0" d="M158.6,436.1l-9.8,12.8-4.3-3.3,22.8-29.9,11.7,9c5,3.8,5.6,8.2,1.8,13.2l-1.6,2.1c-3.8,5-8.2,5.6-13.2,1.8l-7.5-5.7ZM168.4,423.3l-6.5,8.5,7.5,5.7c2.1,1.6,4,1.4,5.6-.8l1.6-2.1c1.6-2.1,1.4-4-.8-5.6l-7.5-5.7Z"/>
    </g>
  </g>
  <g class="st2">
    <g class="st2">
      <path class="st0" d="M195,478l-4.7-2.6,1.6-8.3-12.1-6.6-6,5.9-4.7-2.6,27.8-27.7,6.1,3.3-8,38.4ZM183.8,456.7l9.3,5,4.3-19-13.6,14Z"/>
    </g>
  </g>
  <g class="st2">
    <g class="st2">
      <path class="st0" d="M218.4,446.8l6.5,30.6,8.8-25.4,5.1,1.8-12.3,35.5-5.1-1.8-6.5-30.6-8.8,25.4-5.1-1.8,12.3-35.5,5.1,1.8Z"/>
    </g>
  </g>
  <g class="st2">
    <g class="st2">
      <path class="st0" d="M262.2,486.5c-1,6.2-4.6,8.8-10.8,7.7l-6.6-1.1c-6.2-1-8.8-4.6-7.7-10.8l3.1-18.5c1-6.2,4.6-8.8,10.8-7.7l6.6,1.1c6.2,1,8.8,4.6,7.7,10.8l-3.1,18.5ZM242.4,483.2c-.4,2.6.7,4.2,3.3,4.6l6.6,1.1c2.6.4,4.2-.7,4.6-3.3l3.1-18.5c.4-2.7-.7-4.2-3.3-4.6l-6.6-1.1c-2.6-.4-4.2.7-4.6,3.3l-3.1,18.5Z"/>
    </g>
  </g>
  <g class="st2">
    <g class="st2">
      <path class="st0" d="M274.9,487.1c0,2.7,1.3,4.1,4,4.1l12.1.2v5.4c0,0-12.2-.2-12.2-.2-6.3-.1-9.3-3.3-9.2-9.6l.3-18.8c.1-6.3,3.3-9.3,9.6-9.2l12.1.2v5.4c0,0-12.2-.2-12.2-.2-2.7,0-4.1,1.3-4.1,4l-.3,18.8Z"/>
    </g>
  </g>
  <g class="st2">
    <g class="st2">
      <path class="st0" d="M318.2,472.3l.7,5.3-16,2,1.3,10.7,16-2,.7,5.3-21.3,2.7-4.7-37.3,21.3-2.7.7,5.3-16,2,1.3,10.7,16-2Z"/>
    </g>
  </g>
  <g class="st2">
    <g class="st2">
      <path class="st0" d="M355.5,484.7l-5.2,1.5-4.6-7.1-13.3,3.7-.2,8.4-5.2,1.5.7-39.2,6.7-1.9,21.1,33.1ZM332.6,477.2l10.1-2.9-10.2-16.7v19.5Z"/>
    </g>
  </g>
  <g class="st2">
    <g class="st2">
      <path class="st0" d="M350.5,445.9l26,17.5-11.4-24.3,4.9-2.3,16,34-4.9,2.3-26-17.5,11.4,24.3-4.9,2.3-16-34,4.9-2.3Z"/>
    </g>
  </g>
  <g class="st2">
    <g class="st2">
      <path class="st0" d="M377.6,431.7l19.7,32-4.6,2.8-19.7-32,4.6-2.8Z"/>
    </g>
  </g>
  <g class="st2">
    <g class="st2">
      <path class="st0" d="M425.3,443.3l-4.3,3.3-6.9-4.9-10.9,8.4,2.9,7.9-4.3,3.3-14-36.7,5.5-4.3,31.9,22.9ZM401.2,444.9l8.3-6.4-15.7-11.7,7.3,18.1Z"/>
    </g>
  </g>
  <path class="st3" d="M268.7,244.7l-12-12s18.9-25.9,17.8-54.3l9.1-9.1,9.9,9.9s.1,88,100.1,97.7c-.3,0,0,16.6,0,16.6,0,0-34.8,0-63.9,24-1.1.9-12.1-12.1-12.1-12.1,0,0,16.7-15.2,33.5-20.2,0,0-47.3-18-67.2-66.9,0,0-5.3,14.9-15.1,26.4h0Z"/>
  <path class="st3" d="M299.5,325l12,12s-18.9,25.9-17.8,54.3l-9.1,9.1-9.9-9.9s-.1-88-100.1-97.7c.3,0,0-16.6,0-16.6,0,0,34.8,0,63.9-24,1.1-.9,12.1,12.1,12.1,12.1,0,0-16.7,15.2-33.5,20.2,0,0,47.3,18,67.2,66.9,0,0,5.3-14.9,15.1-26.4h0Z"/>
  <polygon class="st0" points="334.5 245.9 322.9 234.3 335.8 221.4 283.5 169.2 232.5 220.3 360.3 348.1 283.8 424.5 208.9 349.7 234.1 324.5 245.3 335.7 232.6 348.4 284.2 399.9 334.9 349.2 206.9 221.1 282.1 145.9 358.2 221.9 334.5 245.9"/>
</svg>