<svg enable-background="new 0 0 566.9 566.9" viewBox="0 0 566.9 566.9" xmlns="http://www.w3.org/2000/svg"><path d="m553.5 323.3.5.3-.2.2z" fill="#d93831"/><path d="m120.8 509.7c-1.5-.4-2.9-1.3-3.7-2.7-.9-1-1.5-2.1-2-3.4 0-.3 0-.5 0-.8l.3-.7.6-.4h.7c1.2.8.7-.7 1.2-.9.4-.4.8-.7 1.3-.8 2.2 0 4 .2 2.9 3.2-.4.7-1.3-.3-1.8.5.4-.2 1-.2 1.4.1 5.2 1.1 10.3 2.3 12.3 8.2.1.6-.7.8-.5 1.5.2-.4.1-1 .5-1.2.6-1 .8-2.4 2.8-2.8.7 5.2 7.4 3.2 9.3 8 4.7-3.9 5.6 3.3 9.2 2.9 1.9.9 2.9 3.2 5.2 3.5.5.3.9.7 1.3 1.1.6.9 1.2 1.8 1.9 2.7 3.5-1.8 6.7-.7 9.8 1.4 6.1 3.5 12.4 6.5 18.5 9.9-.3-2.7.4-3.3 3.1-2.7 3.6.8 5.1 4 7.2 6.5.4.4.9.7 1.3 1 10.3 1.2 20.3 4.2 30.7 5.3.6 0 1.2 0 1.8.1 26.1 6.6 52.4 7.2 78.9 2.8.6-.2 1.2-.2 1.7-.2 1.4.3 2.9-.1 4.1-1.1 1.1-1 2.4-1.7 3.9-2.2 1.2-.2 1.7.6 2.1 1.9 28.4-3 54.6-12.5 81.6-27.6 5.4-.1 11.2-5.7 18.4-8.5.7-1.5-1.7-2.8-.2-4.8 8 1.2 13-5.4 19.8-8.2.2-.5.5-1 .7-1.5.6-1.3.6-2.8 2-4.3 7 .4 11.1-4.6 15.2-9.5.1-.5.2-1.1.5-1.6 6.7-6.1 13.1-12.5 19.1-19.3.2-.2.4-.3.7-.5.5-.2 1-.4 1.5-.5 4.3-4.1 9.9-7.5 9.2-14.4.9-2.1 2.7-2.1 4.2-2.6.5-.2.9-.3 1.4-.4.9-.2 1.6-.9 1.8-1.8.1-.5.3-1 .5-1.5 3-6.7 7.6-12.4 11.7-18.4.2-.5.5-1 .8-1.5 3.1-5.6 6.8-10.9 7-15.1 14.5-25 22.5-50 27.5-76.1 0-.6 0-1.1.1-1.7 1.2-2.4-1.9-5.8 1.8-7.6.5-.2.7.5 1.1.5-.1-.6-.9-.5-1-1-.4-2.9-.3-5.8.2-8.7 2.6-13.7 3.3-27.6 2-41.5-.9-10.5 0-21.4-4.5-31.6-2-4.4-1.4-10.1-2.2-15.2-2.8-17-9.2-32.8-15.6-48.6-6.7-16.5-16.2-31.1-25.1-46.2-1.4-2.1-2.4-4.4-3.1-6.8-.3-.5-.6-1-.9-1.4-7-6.1-12.2-13.6-17.3-21.3-.3-.5-.6-1-.9-1.5-7.4-5.6-14-12.2-20.3-19-.1-.5.6-.8.5-1.4-.3.5-.9.8-1.5.7-5.3-2.5-9.4-6.7-13.8-10.4-14-11.8-30.5-19.6-46-28.9-.6-.1-1.1-.2-1.7-.4-5.6-.9-10-5.2-13-5.3-13.1-6.2-24-10.3-37.3-12.1-9.8-4.3-21.7-5.9-33.6-7.8-17.4-2.8-35-3.4-52.5-1.7-2.1.2-4.1-.9-6.1-1.1-.6.1-1.1.2-1.7.3-9.8 2.9-20.1 3-30 5.6-3.2.8-6.6 1-9.5-1.4-.3-.7-.4 1.1 0 .4.3-.4.3-.1.6.3 1.8 2 .4 3-1.3 3.7-2.1.9-4.4 1.4-6.7 1.5-7.8.2-14.2 4-20.8 8.6-3.6-1-7.2.6-10.7 2.5-5.5 3.3-11.5 5.8-17.7 7.5-2.2.5-4.2 1.8-5.6 3.6-2.8 3.2-6.2 4.5-10.3 2.5-1.9 4.2-6.1 7-10 9.1-8.5 4.8-16.4 10.4-23.8 16.7-16.8 13.9-32.1 29.8-45.7 47.1-.4.5-.9.8-1.5 1-.7.3-1.1-1-1.8-.2.5-.1.9.2 1 .7.2 5.2-5.2 7.5-6.3 12-.1.5-.3 1.1-.6 1.5-2.5 1.5-2.2 7-7.1 4.9-.4-.3-.8-.7-1.1-1.1-.8-.6-1.5-1.3-2.1-2.1-.1-.5 0-1 .3-1.4 14.4-24.8 33.3-45.8 54.9-64.3 40.3-34.5 86.9-56.1 139.4-63.9 142.9-21.3 276.2 67.3 312.1 205.3 39.8 153-53.1 306.9-207.3 342.4-78 18-151.1 3.8-218.2-40.2-1.2-.8-2.2-1.8-3.4-2.7-.1-2.7-2.1-2.3-3.8-2.5z" fill="#d93932"/><path d="m47 135.6.1 1.5c.6.8 1.8.5 2.5 1.3.7 1.4 1.2 2.9 1.5 4.5-.6 2.1-2.2 2.5-4 2.6 1.7 2.8 1.1 6.4-1.4 8.4-2.7 2.4-4.4 5.6-5 9.1-1.3 6.2-4.9 11.4-7.5 17.1-1.5 3.5-3 6.9-2.2 10.3-5.1 6.1-6.7 12.8-7.5 19.9-.5 3.4-2 6.7-4.2 9.3-.5.7-1.5.1-2.1-.8 1.2 1.8 2.6 3.8 1.8 5.9-2.8 7.6-.4 16.3-4.9 23.5-.4.7.5 1.5 1 2.1 3 3.8-2.4 4.9-2.5 7.7-.1.5-.3 1.1-.4 1.6 1.6 6.6-.7 13.3.1 20 .5 5 1.2 10.3-.7 15.1.9 4.4 4.2 8.2 1.3 11.5 2.4 9.8 2.8 18.9 4.8 27.8 2.4 10.6 3.9 21.4 8.8 31.2 1.1 2 1 4.5-.2 6.5-.7.5-1.3.7-1.8-.1 0 .4.4.7.9.8 4.3 1.6 5.4 5.6 3 10.7-1.7.8-3.4 1.6-5.2.2-.5-1.2.2-2.9-1.4-3.7l.1.1c-.4-1-.5-2-.4-3 0-.5 0-1 .1-1.4.2-.4.5-.8.9-1.1 0 0-.3 0-.4 0 0 .3-.1.6-.4.8-.2.3-.4.6-.6.9l-.6.1c-7.7-19.4-12-39.7-14.3-60.3-5.1-46.1.3-91.1 17.4-134.4 6.3-15.9 13.5-31.5 23.4-45.7z" fill="#d93932"/><path d="m23.3 383.4 5.1-1.3c4.6 1.5 5.7 6.4 8.9 9.2-2 8.9 4.2 14.4 8 20.8.2 4.6.2 9.2 5.9 11.1 1.2.4 1.6 2.3 2.3 3.5.2.5.4 1 .6 1.5.1.5.2 1 .1 1.5s-.2 1-.4 1.4c4 2.3 7 5.2 6.3 10.4 1.4-1.4 2.4-.5 3.4.3.4.4.9.8 1.3 1.2 1.5 1.5 2.7 3.1.9 5.7 3.1-.3 4.4 1.8 5.5 4.1.3.4.6.9.9 1.3 1.8 1.5 1.5 3.7 1.8 5.6-.2.2-.3.6-.2.9 0-.3.1-.7.2-1 0-1-.1-2.1 2.1-2.8.9 3.3 6 5.3 1.6 9.9-1 .3-2.1.2-3-.4-.6-.4-1.1-.8-1.6-1.2-.4-.2-.8-.2-1.2-.2-21.2-23.9-37.7-51.5-48.5-81.5z" fill="#d93932"/><path d="m115.9 503.3 1.3 3.7c-4.7-2.6-8.9-6-12.6-9.9.2-.2.3-.5.4-.7 1.6-1.3 3.5-1.3 5.4-1.2.5.1 1.1.3 1.6.6 1.8 1.8 5.7 2.3 3.8 6.3-.3.3-.4.6-.3.8s.3.4.4.4z" fill="#da3a32"/><path d="m83.2 477.3c-2.4-1.7-4.5-3.9-6-6.5.1-.3.3-.5.4-.8 1.2-1.2 2.7-1.8 4.4-1.8 6.4 3.2 6.8 3.7 7.6 9.2-1.9 2.5-3.7.4-5.5-.1z" fill="#da3a32"/><path d="m104.6 497.1c-3.8-2.3-7.2-5.3-10-8.8l.3-.7c1.2-1.1 2.6-1.8 4.2-2.2.5.1 1 .3 1.4.7.8 1.9 1.6 3.8 4 4.2.5.4.8.8 1.1 1.4.7 1.8.4 3.8-.8 5.3z" fill="#da3a32"/><path d="m120.8 509.7c1.7-2.3 3.5-1.3 5.2-.5.7 2.1-.7 2.4-1.7 3-1.4-.3-2.7-1.2-3.5-2.5z" fill="#d93831"/><path d="m90.7 484.7c-2.1-1.2-3.8-2.9-5.1-4.9.2-.2.3-.5.5-.7.8-.2 1.7-.3 2.5-.3.6.1 1.1.2 1.6.5 1.5 1.4 3.2 2.8 1.2 5.1z" fill="#da3a32"/><path d="m74.6 464.6c.5.9 1.5 1.4 2.5 1.3.8 1.2.2 2.2-.5 3.2l-.7.5c-1.8-1.1-3.2-2.7-4.1-4.7l.4-.4c.8-.6 1.8-.6 2.4.1z" fill="#da3a32"/><path d="m21.9 379.7 2.3 1.1-.9 2.6c-1.2-1-1.2-2.4-1.4-3.7z" fill="#d93932"/><path d="m22.1 375.8c0 1.3-.1 2.6-.2 4-1.3-.9-1.1-2.4-1.4-3.7l.5-.4c.2-.3.6-.4.9-.2.1.1.2.2.2.3z" fill="#d93932"/><path d="m94.6 488.4c-1.2-.4-2.1-1.2-2.6-2.4l.5-.6c.5-.2 1-.3 1.4-.2.5.1.9.4 1.2.8.3.7.2 1.5-.3 2.1z" fill="#da3a32"/><path d="m84.4 478.5-1.3-1.3.4-.2c.6-.1 1.2.2 1.3.8z" fill="#da3a32"/><path d="m85.7 479.8-1.2-1.3.3-.3c1-.2 1.5.2 1.3 1.2z" fill="#da3a32"/><path d="m92 486-1.3-1.2.3-.2c1-.1 1.3.3 1.2 1.2z" fill="#da3a32"/><path d="m77.2 470.8-1.2-1.3h.1c.9-.2 1.3.2 1.2 1.1z" fill="#da3a32"/><path d="m14.6 250.8c-2.2-2.1-1.5-2.1-1.2-4.1.4-3.2 2.2-6 2.2-9.4 0-4.5.1-9.1 2.4-13.1.3-3.1-3-5.3-1.8-8.5 1.6.3.7 2.9 2.8 2.8 1.7-2.5.3-6.5 4.5-7.8l-2.8-1.8c4.8-5.2 2.1-13.9 8.2-18.2.3-12.8 11.3-21.9 11.6-34.6 3.3-2.2 6.6-4.4 6.4-9.2l-2.7-.6c.7-3.4 3.8-1.6 5.5-2.6 1.2-1.9-.5-3.7 0-5.5l2.2 1.7c2.4-1.4 1.8-5.4 5.3-5.5l-1.4-3.2c3.9-2.5 6.8-5.9 7.7-10.6 17.9-21.5 37.5-41.5 60.5-59.4 2.8.4 14.4-7.1 15.6-11.6l3.9.3c2-1.7-.6-5.1 2.9-5.8 1.5.3-.1 1.8.6 2.4 7-.4 7.5-.7 9.7-6.1 12-.9 21.4-10.1 34.8-12.2 6.6-6.6 17.3-7 27.3-8.6.3-2.8-2.1-2-2.8-3.3 14.6 1.1 28.5-3 42.5-5.5 2.6-2.7 3.7 2 6.9.7 29.4-2.7 59 .9 89.7 10.1 3-1.9 28.7 6.5 31.2 11.6 6.6.3 11.6 4.5 17.3 6.4 8.7 2.7 15.9 8.3 23.7 12.7 8.7 4.8 16.9 10.4 24.5 16.9 4.2 3.7 8.7 7 13.1 10.4 2.3 2.9 5.1 5.3 8.3 7.2 2.5 1.5 4.6 2.9 5.4 6.1.7 2.6 3 3.9 5.7 3.8s1.6 1.8 1.9 2.9h-.4l.2.4.2-.3c6.1 7.7 11.3 16 18.8 22.5 3.3 10.2 10.7 18.1 15.7 27.3 7.1 13.1 13.9 26.2 18.2 40.5 1.4 4.6 4.4 8.8 7.2 14.3-2 11 6 22.1 5 35.7l3.8 6.7c3 25.6 1.7 51.2-1.1 76.8-1.7.2-2.5.9-1.8 2.7.7 1.7 1.1 3.4-.7 4.8 1.4 3.5.8 7.1-.5 10.2-4.3 10.6-6.4 21.9-10.2 32.7-3.7 10.6-9 20.3-13.3 30.5-.5 1.2-1.3 2.7-3.1 1.5.6 7.7-3.7 13.3-7.9 19-.6-.6-1.6-.9-1.5-2 .3-.2.4-.6.3-.9.1.4-.1.7-.3 1-.1 1.1.8 1.5 1.5 2-.7.9-.6 2.3.3 3.1-6.7 3.9-8.5 11.3-12.8 17 0 .9-.1 1.9-.1 3.1l-2.4-.6c-.6 2.6-3 1.3-4.4 2-1.2 1.9.6 3.2.3 4.6-1.7 5.4-7.4 7.5-9.7 12.4-1.2.1-1.1-.8-1.3-1.5h-1.3l-.6-.5c-.6-1-1-2.1-1.2-3.2-.1-.6-.1-1.1.1-1.7 4.3-7.5 10.6-13.5 15.3-20.7.5-.7.9-1.3 1.2-2.1.3-.7.6-1.5.9-2.2.4-.7.9-1.4 1.5-2 .5-.6 1.1-1.3 1.7-1.9 12.8-19 23-39.7 30.3-61.5.1-.5.2-1.1.3-1.6-.3-2.4 1.4-4.1 2.3-6.1.3-.9.5-1.7.8-2.6 4.3-16.3 8.2-32.7 9.5-49.5 0-.7 0-1.3 0-2 0-1.7.1-3.3.2-5 0-.6.1-1.3.3-1.9 1.6-15.4 1.4-30.9-.8-46.1-8.7 6.6-14.6 15.1-22.7 21.1-2.8 1.1-5.1.2-7.2-1.6-9.3-8.4-17.3-18.1-27.1-26.5 1 8.5 2.1 16.7 3.2 24.9.1 3.8.2 7.6.1 11.4-.3 9.4-1.1 18.7-2 28.1-.6 6.2-.6 12.4-3.4 18.2-4.1 16.7-9.5 32.9-17.5 48.2-.5 1-1.1 2.1-1.7 3.1-1.8 2.9-2.9 6.2-5 8.9-.9 1-1.8 2.2-2.4 3.4-10.1 16.5-22.6 31.3-37.1 44.1-5 4.4-9.7 9-15.1 13-.7.5-1.4 1-2.1 1.5-1.9 1.6-3.7 3.4-6.2 4.4-.8.4-1.5.9-2.2 1.5-25.6 17.5-53.8 28-84.4 32.3-1.6.1-3.3.3-4.8.9-47.5 5.4-92-3.8-133.2-28.3-2.4-1.3-4.6-2.8-6.6-4.6-2.7-2.1-6.1-3.1-8.9-5-16.4-14.8-33.1-29.3-46.1-47.4-3.1-3.9-5.8-8.1-8.1-12.5-.5-1-.9-2.2-1-3.4-.1-1 .8-2.6 0-2.8-4-.7-4-4.8-6.3-6.9-.6-.6-1.2-1.3-1.7-2.1-8-15.2-13.4-31.4-17.5-48.1-2.3-5.8-2.4-12-3.3-18-.9-8.8-1.7-17.6-2-26.5-.3-3.5-.4-7-.3-10.5 0-.6 0-1.2.1-1.7.2-1.1.4-2.2.5-3.4 1.3-7.3 1.8-14.7 3.1-22.6-9.9 8.5-17.8 18.1-27 26.3-1.9 1.7-4 2.9-6.6 2.1-6.9-4.6-11.8-11.3-17.8-16.8-2.3-2.1-4.2-4.4-6.8-6.2-.4-.3-.9-.5-1.3-.8-.9-.4-1.8-.7-2.8-.9z" fill="#d93831"/><path d="m484.7 464.6c-1.4 1.7.5 6.6-4.9 4.7-1.1 5.6-4.2 9.5-10.4 10.3 2.7 5.6-4.4 3.2-4.8 6.3l2.5.9c-5.8 2.2-7.4 8.3-12.7 10.4l-4.6-1.2c-1.9 1.3.1 4.5-2.7 5 .1.7.1 1.5 0 2.2-6.1 1.2-10.4 5.9-16.3 8.4-1.5 1-2.3-2.1-4.1-1.2-.2 2 3.1 2.5 1.6 5.3-7.9.5-13.1 9.4-21.5 8.4-4.3 5-10.3 8.3-16.8 9.4-6.3 1.2-9.7 9-16.6 6.4-1.8 1.3 0 2.6.1 2.4-14.3 1.6-26.7 6.9-40.4 9.8l-4.3-2.4c-1.6.8 1.3 2.9-1.3 3.2-2.7.2-1-2.8-2.4-3.4-2.3.9-4.3 2.6-5.4 4.9-2.4.4-2.7-1.6-4-2.2-2.8 3.4-7 1.7-10.5 2.7-11.3 3.2-23.1.6-34.7 1.3-5.2.1-10.4-.5-15.4-1.8-2.9-.6-5.9-.5-8.7.4-2.9-4.2-8.3-2.4-11.9-5.2-2.9 3.1-5.1-.1-7.3-1.1-1.1.8-.6 2.5-2.2 2.2-1.9 0-.4-2.3-1.1-2.5-7.4-.6-14.7-1.9-21.9-3.6-3.3-2.4-4.3-8.2-10.4-7.3l2.4 2c-5.9-1.5-12.1-2.5-16.5-7-1.6-1.3-3.2-.3-5.4.5l1.3-3.1c.2-.2.4-.5.6-.7 1.1-.7 2.3-1.2 3.5-1.5.7-.1 1.3-.2 2-.2 11.4 3.4 22.3 8.1 33.8 11.2 25.5 6.8 51.4 10.3 77.8 9.5 11 0 21.8-1.5 32.6-3 36.6-5.5 70.3-18.8 101.8-38 .5-.3 1-.6 1.5-.9 1.7-1 3-2.4 4.8-3.3 1-.6 1.9-1.1 2.8-1.8 15.4-10.1 29-22.2 41.6-35.5 1.9-2 3.5-4.8 6.9-4.8l.3.4c1.2.9.2 2.5 1.3 3.5z" fill="#d93831"/><path d="m77.2 470.6-1.2-1.1 1.1-3.7 2.8-2c-4.9-.3-2.9-3.8-3.7-5.8-2.3-.1-1.3 2.6-2.9 2.8-.4-2.3-.4-4.6-2.5-6.3-1.7-2.3-2.1-6.1-8-4.6 4.5-3.4 2.3-5 .5-6.7l-2-1.6-2.3 3.4c.8-3.8-.1-7-2.2-10.7-1.3-1.3-5.4.5-5.6-3.5.7-1 1.4 0 2.1 0v-2.5c-2-4.4-7.1-5.8-9.8-9.7l1.1-6.6.2-.7c.2-.4.6-.7.9-1 .4-.2.9-.3 1.3-.3.9-.1 1.5-1.2 2.6-.6 5 6.5 8.5 13.9 12.9 20.7.4.6.8 1.2 1.4 1.7.4.2.8.5 1.2.6.9.2 1.8.2 2.8 0 .8 0 1.5.3 2.1.9 1.2 2.2-2.4 3.2-1.3 5.4 17.7 24.3 38.6 45.2 63.5 62 .7.5 1.4.9 2.1 1.4 1.9 1.1 3.6 2.3 5.2 3.7.5.3 1 .6 1.4.9 5.5 4.1 12.4 6 17 11.4.1.9-.3 1.8-1 2.4l-.8.4c-1.5.6-2.9 1.8-4.6.7-1.8-.9-1-2.8-1.3-4-3.2-1.3-1.3 2.9-3.8 2.4-.8-1.4-1.7-2.9-2.6-4.4l-6.9-1.3v-3.8l-3.4 3c-.6-5.5-5.6-6-9.2-7.7-1.3-.6-2.6-.9-3.3-2.3.7-.5 1.1-1.1.2-2.3l-2.7-.2c-.8 0-.7 1-1.3 1.3h-1.3c.3-3.6-4.1-3.5-5-6.3l-6.1 1.1-.2-6.1h.4l-.2-.4-.2.3h-4.9c-1.1-1.7 1.7-3.5-.1-5l.3-.2-.3-.2v.4c-1.2 1.7-3 2-4.8 2.3-.1-.8-.1-1.5-.2-2.3.9-1.3.5-2.9.8-4.3.2-.5.4-.6.8-.5-.5-.2-.6.1-.8.4-.4 1.4 0 3-.8 4.4l-2.4-.1-1.2-1.2c1.3-2.2-.8-3.3-1.4-4.9.3-.2.5-.5.8-.8l.4-.4-.3.4c-.3.2-.6.4-.8.7l-3.6-.1-1.3-1.2-1.2-1.3c1.9-2.7 3 1.6 5.2.2-.1-4.4-3.8-5.9-6.9-7.8z" fill="#d93831"/><path d="m173.4 529.6c-2-1.8-5.2.6-6.8-2.1-1.8.3-.9 2.2-2.1 2.9-1.9-1.5-4-2.9-3.6-5.8h-3.7l-1.3-3.8c1.5-1.2 3.5-.8 5.1-1.7 1.7-.2 3.3.6 4.1 2 .1.5.1 1.1-.1 1.5.3-.4.7-.8 1.1-1.1 1.6-.2 3.2.7 3.9 2.2.6 2.1 2.4 1 3.7 1.3 1.7.4 3.3.8 3.7 2.8l-.4.4c-.9 1.2-2.6.2-3.6 1.4z" fill="#d93831"/><path d="m134.3 516.8c1.2-1.3 1.9-.5 2.8 0-1.6 1.5-1.9-.3-2.8 0z" fill="#d93831"/><path d="m518.9 134.5-1.8 2.4c-1.1-1.5-.7-1.9 1.8-2.4z" fill="#d93831"/><path d="m514.1 132.9c.4.7.1 1.1-.6 1.2-.1 0-.5-.2-.5-.3 0-.7.4-1 1.1-.9z" fill="#d93831"/><path d="m464.2 79.7 2-1.4c.1 1.5-.9 1-2 1.4z" fill="#d93831"/><path d="m530.2 162.9c.2.1.4.1.4.2 0 .2-.1.4-.2.5-.2-.1-.4-.1-.4-.2.1-.1.1-.3.2-.5z" fill="#d93831"/><path d="m117.2 502.1.2-1.6 1 .4v1.3c-.4.2-.9.2-1.2-.1z" fill="#da3a32"/><path d="m49.6 138.3c-1 .1-2-.4-2.5-1.3 1.1-.1 2 .4 2.5 1.3z" fill="#d93831"/><path d="m527.8 407.5c0-.3 0-.6.1-.9 0 .3 0 .6-.1.9z" fill="#d93831"/><path d="m212.5 18.7c-.1.2-.1.4-.2.4-.2 0-.4-.1-.5-.2 0-.2.1-.4.2-.4.2.1.4.1.5.2z" fill="#d93831"/><path d="m406.9 527.9c0-.2.1-.4.2-.4.2 0 .4.1.5.2 0 .2-.1.4-.2.4-.2-.1-.4-.1-.5-.2z" fill="#d93831"/><path d="m63.4 120.8-.5-.3.2-.3z" fill="#d93831"/><path d="m478.5 478.3.3-.5.2.2z" fill="#d93831"/><path d="m478.5 478.3-.3.6-.2-.3z" fill="#d93831"/><path d="m553.5 323.3.5.3-.2.2z" fill="#d93831"/><path d="m115.9 503.3-.7-.6.7-.6z" fill="#d93831"/><path d="m117.2 502.1h1.3l-.6.7z" fill="#d93831"/><path d="m120.9 503.3-.5-.2.2-.3z" fill="#d93831"/><path d="m133.4 513.3-.3.6-.2-.3z" fill="#d93831"/><path d="m47.1 410.8h-1.3c-.4.5-.9.8-1.3 1.3-5.3-3.8-6.7-10.1-9.6-14.7-1-2.6.7-4 1-5l-7.5-10.4c1.5-2.8-3.3-5.1-.1-7.6l-3.7-2.4c1.5-2.8 2.5-5.1-1-7.9-2.9-2.3-1.5-6.9-2.8-10.3-4.1-10.9-5.1-22.5-7.6-33.7-.9-4.2-.5-9-2.3-13.4 3.5-4.4-.5-8-1-11.5 1.7-8.9.9-17.4-.1-25.9-.2-1.9 2.6-2.3 2.1-4.6 1.4-2.4-3.8-3.7-1.1-6.5.1-3.1 3.9-4.3 3.8-7.5 1-.8 2.5-.8 3.6-.1l.3.2c1.5 2 2.1 4.5 1.6 7-1.9 13.1-.7 26.3-1.1 39.5 0 1.3 0 2.7.1 4 0 2.1.2 4.2.8 6.3.1.6.2 1.3.2 1.9 1.5 16.8 5.4 33.1 9.6 49.4.2.9.4 1.7.5 2.6-.9 2.4 1.6 3.7 1.8 5.7.3.5.5 1 .7 1.6 4 12.5 10.1 24.1 15 36.2 0 1.9-.2 3.9-.6 5.8z" fill="#d93831"/><path d="m22.2 373.4c-1.1-.8-2.9-1.3-1.1-3.1 1.7.6.7 2 1.1 3.1z" fill="#d93831"/><path d="m24.6 372.1-.5-.3.2-.3z" fill="#d93831"/><path d="m22.1 374.6v-1.3l.7.6z" fill="#d93831"/><path d="m22.1 375.8c-.4 0-.7 0-1.1-.1l1.1-1.1z" fill="#d93831"/><path d="m74.6 464.6-2.3-.1c.8-1.4 1.6-1 2.3.1z" fill="#d93831"/><path d="m73.4 460.8-.3.6-.2-.3z" fill="#d93831"/><path d="m164.7 522.1-3.8-2.1c-1.7.4-2.8-.6-3.7-1.8-5.5-4.2-12.3-6.4-17.6-11.2.6-2.1 2.6-2.3 4.2-3 .5-.2.9-.3 1.4-.5 1.2-.2 2.4-.5 3.6-.8.5-.2.9-.3 1.4-.4 1.2-.2 2.4-.5 3.5-.8.4-.2.9-.3 1.4-.5.9-.3 1.9-.5 2.8-.9.5-.2.9-.3 1.4-.5 1.3-.2 2.5-.6 3.7-1 .5-.2 1-.3 1.5-.5 2.9-.7 5.9-1.3 8.7-2.2 2.9-.7 2.9-2.8 2.3-5-.4-2.4-1.1-4.8-1.7-7.2-.2-.5-.3-1-.4-1.6-.2-1.3-.5-2.6-.9-3.9-.2-.5-.3-1-.4-1.6-.4-2.1-1-4.2-1.8-6.3-.2-.5-.4-1-.5-1.6-.3-1.4-.6-2.7-1-4-.2-.5-.4-1.1-.5-1.6-.1-2.4-2.3-4.9.2-7.3 22.1 14.6 46.8 24.9 72.8 30.3 22.5 4.6 45.2 5 68 2.9.5-.3 1.2-.3 1.7 0 1.8 2.5 2 5.4 1.5 8.9-5.7 4.2-12.9 2.6-19.2 4.6 15.1-2.5 30.4-4.3 45.4-7.9-7.5 2.3-15 4.4-22.4 3-2.1-2.9-1.4-5.7-3-7.7-.3-.5-.2-1.2.1-1.7 28-3.9 54.9-13.7 78.9-28.8l5.8-3.6c1.1.6 1.1 1.6 1.1 2.7-.1.5-.2 1-.4 1.5-.3 1-.5 2-.6 3-.1.5-.2 1-.4 1.5-.4 1.3-.7 2.6-.9 3.9-.1.5-.3 1.1-.5 1.6-.8 2-1.4 4.1-1.8 6.2-.1.5-.2 1-.4 1.5-.5 1.5-.9 3-1.1 4.5-.1.5-.2 1-.4 1.5-.6 2.3-1.2 4.6-1.6 6.9s-.3 4.2 2.4 5c2.8.9 5.7 1.5 8.6 2.2.5.1 1 .3 1.5.5 1.2.4 2.4.8 3.7 1 .5.1 1 .3 1.4.4.9.4 1.9.6 2.8.9.5.1 1 .3 1.4.5 1.2.3 2.5.6 3.8.8.5.1 1.1.3 1.6.5 2.8 1.6 7 .6 8.8 4.3-20.6 14.2-43.4 23.9-67.2 31.2-11.4 3.5-23 6.8-35 7.7-1.9.5-3.9 1.2-5.7-.5 2.4-7.8-.8-15.6-.1-23.1 3.8-4.2 8.2-2.9 12.8-1.6.2-5.3-.3-10.6-1.6-15.7-9.6 1.1-18.8 4-29.2 3.5.6 6.7.8 13.2 3.7 19.3-.3 8.3-6.2 13.3-11.2 18.7-1 .9-1.9 2-3 2.9-37.1 1.7-72.7-5.6-107.1-19.1-2.1-.8-4.3-1.5-6.4-2.3l-4.1-2c-1.6.3-2.6-.6-3.6-1.5l-3.9-2.1c-.1.4-.5.3-.8 0z" fill="#ffd900"/><path d="m282.6 104.5c98.3.1 177.2 79.4 177.1 178.1-.1 98.2-79.5 177.1-178.3 177-98.2-.1-177-79.6-176.8-178.4.2-97.9 79.7-176.8 178-176.7z" fill="#ffd900"/><path d="m483.2 460.6c-12.7 13.1-25.7 25.9-40.7 36.5-2.5 1.8-5.2 3.3-7.9 5-1.8.4-3.5 0-5.3-.2-.5-.1-1-.3-1.5-.4-1.2-.4-2.4-.7-3.6-.9-.5-.1-1-.2-1.5-.4-1.2-.4-2.5-.6-3.7-.9-.5-.1-1-.3-1.5-.5-2.2-.8-4.5-1.5-6.8-1.9-.5-.1-1-.3-1.5-.5-1.2-.4-2.5-.7-3.8-1-.5-.1-1-.4-1.5-.6-1-.6-2.1-1.1-2.1-2.4.3-1.2 1.1-2.3 2.2-2.9 23.5-13.3 43-31.5 61.4-51 1.3-1.2 3-1.8 4.8-2 7.4-.3 14.8-.1 22.2-.1 2.4 0 5-.4 6.8 1.9-3.8 8.6-11 14.6-16 22.3z" fill="#ffd900"/><path d="m407.4 449.6c20.4-16.5 38.8-34.8 52.4-57.4 3.3.4 2.7 3.2 2.8 5.2.2 11.6.1 23.2.1 34.9.1 2.7-.9 5.4-2.6 7.5-16.3 19.5-36 34.8-57.8 47.6-1.1.7-2.3.9-3.6.8-.9-.1-1.7-.8-2.1-1.7-.1-.6-.1-1.2 0-1.7.4-1.3.6-2.7.9-4 .1-.5.2-1.1.4-1.6.8-2.2 1.5-4.5 2-6.9.1-.5.3-1 .5-1.5.5-1.5.9-3 1.1-4.5.1-.5.3-1.1.5-1.6 1.3-3.5 1.9-7.2 2.9-10.7.2-.5.4-1 .7-1.5.6-1 1-2.1 1.8-2.9z" fill="#ffd900"/><path d="m107.1 392.2c12 20.2 28.2 36.8 45.9 52 2.8 2.4 5.9 4.6 7.7 7.9 3.6 5.1 3.8 11.3 5.7 17 .2.5.3 1.1.4 1.6.4 2.7 1 5.3 2 7.8.2.5.4 1 .5 1.6.3 1.4.6 2.7.9 4.1.1.6.2 1.2.1 1.8-.2 1-.9 1.7-1.9 2-1.7.2-3.4-.2-4.7-1.1-20.9-12.4-39.8-27.1-55.8-45.6-2.6-3-4-6.8-3.9-10.8.1-10.6-.1-21.2.1-31.8.3-2.4-1-5.7 3-6.5z" fill="#ffd900"/><path d="m535.8 368.7c-7.5 20.6-16.5 40.4-28.4 58.8-1.1 1.7-2.1 3.6-3.9 4.7-10.2 2.5-20.3 1.8-32 .3 5.5-10.5 12.3-18.4 17.4-27.3s9.5-18.5 14.4-27.6c.5-.8 1.1-1.6 1.9-2.2 1-.7 2.1-1.3 3.3-1.8.6-.2 1.1-.4 1.7-.5 4.1-.8 8.1-1.9 12-3.4.6-.2 1.2-.4 1.8-.5 4 .2 7.7-3.9 11.8-.5z" fill="#ffd900"/><path d="m468.2 378.3c7.5-15.6 13.5-31.8 17.8-48.5 3.1-.2 2.8 2.6 3.3 4.3 2.9 10.5 6.1 20.9 8.5 31.5.2.6.4 1.2.6 1.9.4 2.3 1.1 4.5 1.4 6.8.1 2.3-.4 4.6-1.4 6.6-6.4 14.2-14.2 27.7-23.2 40.4-2.1 2.9-2.1 2.9-6.2 4.6-2.9-4.6-3.4-35.2-.8-47.6z" fill="#ffd900"/><path d="m80.8 329.9c4.6 16.7 10.2 32.9 17.8 48.5 1.4 3.3 1.5 6.9 1.4 10.4v29.3c0 2.6.5 5.5-1.9 8-3.1-.1-4.8-2.5-6.5-4.8-9-12.7-16.8-26.3-23.3-40.5-1.2-2.2-1.6-4.7-1.4-7.3 3-13 6.7-25.9 10.3-38.8.6-1.8.2-4.8 3.6-4.8z" fill="#ffd900"/><path d="m32.1 251.5-11.4-10.2c10.1-54 33.7-99.9 73-137.3l3 1.8c-10.6 14.2-22.1 28-30.9 43.5-8.9 15.5-16.3 31.9-22.1 48.8-5.9 17.3-9.8 35.2-11.6 53.4z" fill="#ffd900"/><path d="m546 238.3c-.8 6.6-6.8 8.7-11 14.3-6.2-56.7-29.1-104.6-65.6-147.3 5.4-1.4 6.8 1.5 8.5 3.2 34.8 35.1 56.7 77.1 66.9 125.3.3 1.2.7 2.4 1 3.5.5.1.7.3.6.5s-.3.5-.4.5z" fill="#ffd900"/><path d="m45.3 266.1-4.2-4.8c-3.9-36.8 44.5-134.5 69.4-140.4 1.4 2.8-.9 4.2-2.3 5.8-30.9 37.1-49.6 79.5-54.9 127.6-.6 5.1-3.4 8.3-8 11.8z" fill="#ffd900"/><path d="m526.1 260.8c-1.5 2-2.8 3.8-5.2 4.7-4-2.9-6.8-6.3-7.4-11.6-5.4-47.9-24-90-54.8-127-1.9-2.3-1.9-2.3-2.4-5.8 23.7 3.8 70.9 98 69.8 139.7z" fill="#ffd900"/><path d="m548.3 308.7c-.9 17.7-5.1 34.7-10 51.6-.5 1.3-1.9 1.4-2.8 2.2-.4.2-.9.4-1.4.5-1.2.2-2.4.5-3.6.9-.5.2-.9.3-1.4.5-1 .3-1.9.6-2.9.9-.5.2-1 .3-1.5.4-1 .2-2 .4-2.9.7-.5.2-.9.3-1.4.4-1.2.2-2.4.5-3.6.8-.5.2-1 .3-1.5.5-1.3.4-2.6.7-3.9 1-.6 0-1.2-.2-1.7-.4-.5-.4-.8-1-1-1.5-.6-2.6.3-4.9 1.1-7.2 3.6-10.8 6.5-21.7 8.7-32.9.3-1.2.8-2.3 1.5-3.3.7-.9 1.6-1.6 2.6-2.1.4-.3.9-.5 1.4-.8.9-.5 1.7-1.1 2.6-1.6.4-.3.8-.5 1.3-.8.4-.3.9-.5 1.3-.7s.8-.5 1.3-.7c.8-.4 1.7-.8 2.5-1.2.4-.2.8-.5 1.1-.7s.7-.5 1.1-.8c.3-.3.7-.5 1.1-.7.6-.3 1.2-.5 1.7-.9.4-.2.8-.4 1.2-.6.6-.3 1.2-.6 1.7-1 .4-.3.8-.5 1.2-.8 1.4-1 3-1.9 4.6-2.7l.8-.2c.4.2.8.6.8 1.2z" fill="#ffd900"/><path d="m17.1 299.5c-.2-16.2-.2-32.4 1.4-48.6 1-.3 2.1 0 2.8.8 7.4 7.6 15.4 14.6 22.1 22.8 1.2 1.5 1.8 3.3 1.7 5.2-.2 11.1.4 22.2 1.1 33.3-.1.7-.3 1.3-.6 1.9s-.8 1-1.4 1.3c-.9.1-1.8-.1-2.6-.5-.5-.2-.9-.5-1.4-.8-.8-.5-1.5-1.2-2.4-1.7-.4-.2-.8-.5-1.2-.7-.6-.3-1.2-.6-1.8-.9-.4-.2-.8-.4-1.2-.6l-1.9-.9c-.4-.2-.8-.5-1.2-.8-1.4-1-3-1.9-4.5-2.6-.5-.2-.9-.5-1.3-.8-1.5-1.1-3.1-2-4.7-2.9-.4-.3-.8-.7-1.1-1.2-.5-.6-1.2-1.4-1.8-2.3z" fill="#ffd900"/><path d="m523.4 274.5c7-8.7 15.5-15.9 24.2-25 .8 5.9 1.8 10.4 1.9 15 .3 11 .2 22 .2 32.9 0 1.2-.7 2.3-1.1 3.5-.4.3-.7.8-.9 1.3-.3.4-.7.8-1.1 1.1-1.3.7-2.6 1.5-3.9 2.3-.4.3-.8.5-1.2.8-.6.3-1.2.6-1.8.9-.4.2-.8.4-1.2.6s-.7.4-1.1.6l-1 .7c-.3.3-.7.5-1 .8s-.7.5-1.1.7-.7.4-1.1.6-.8.4-1.2.6c-.6.3-1.2.6-1.7.9-.4.3-.8.5-1.2.7-.8.5-1.6 1.1-2.4 1.7-.5.3-1 .6-1.5.8-.8.4-1.8.5-2.7.3l-.8-.6c-.4-.6-.7-1.3-.8-2 .5-11.5 1-23 1-34.5-.1-1.8.4-3.4 1.5-4.7z" fill="#ffd900"/><path d="m440.9 134.6c31.5 29.6 52.5 64.8 58.6 108.4-5.8-4.8-13.1-8.3-15-16.2-8.1-33.6-24.6-62.9-46.1-89.5-.3-.6-.7-1.1-1.2-1.5-.7-.7-.7-1.8 0-2.4l.2-.2c.7-.5 1.6-.4 2.1.2l.1.1c.5.2.9.6 1.3 1.1z" fill="#ffd900"/><path d="m127.3 138.6c-20.9 26.4-37.1 55.1-44.9 88.2-1.1 4.8-8.2 12.3-14.9 16.3-1.3-3.8 0-7.4.8-10.9 8.7-38.1 28.1-69.9 56.5-96.4.3-.5.7-.9 1.1-1.1l.1-.1c.3-.5.7-.9 1.2-1.1l.1-.1c.5-.6 1.4-.8 2.1-.3.8.5.9 1.6.4 2.4-.1.1-.1.2-.2.2-.4.4-.8.9-1.1 1.4v-.1c-.6.4-1 .9-1.2 1.6z" fill="#ffd900"/><path d="m488.6 311.6c1.8-9.2 1.8-18.6 2.5-27.9 2.3-.9 2.6 1.2 3.4 2.3 3 4.2 5 8.9 7.9 13.2.3.5.5.9.7 1.4.5 1.1.9 2.3 1.5 3.3.2.4.5.8.7 1.1s.5.7.8 1.1c.3.3.5.7.7 1.1.3.6.5 1.1.8 1.7.2.4.4.7.6 1.1.3.6.6 1.1.9 1.7.3.4.5.7.7 1.1.5.8 1 1.5 1.6 2.2.3.4.5.8.8 1.2.6 1.1 1.1 2.3 1.7 3.4.3.5.5.9.7 1.4.5 1 .9 2.1 1.1 3.2.1.6.1 1.2 0 1.8-1.8 10.5-4.8 20.6-7.7 30.8-.8 2.8-1.8 5.6-4 7.6-.5.4-1.2.4-1.8.2-.9-1-1.5-2.1-1.9-3.4-.2-.6-.5-1.2-.6-1.9-1.6-7.1-3.7-14.1-5.6-21.1-2.7-8.6-4.4-17.5-5.5-26.6z" fill="#ffd900"/><path d="m75.8 283.7c.7 9.3.7 18.7 2.5 28-1.3 16.9-7.3 32.7-11.3 48.9-.3 1.4-1 2.8-1.9 3.9-4.7.2-4.8-3.8-5.7-6.6-3.4-10.3-6.1-20.9-8.1-31.6-.1-.6-.1-1.2 0-1.9.1-.9.4-1.7.8-2.5.1-.3.2-.5.3-.8s.3-.5.4-.7c.8-1.4 1.4-2.8 2.1-4.2.2-.5.5-.9.8-1.3.6-.8 1.1-1.6 1.7-2.5.2-.5.5-.9.7-1.3.8-1.3 1.3-2.8 2.1-4.2.3-.5.5-1 .8-1.4 3.7-6 6.8-12.4 10.7-18.3.9-1.5 1-4.3 4.1-3.5z" fill="#ffd900"/><path d="m49.6 272 28.4-29.4 1.6 1.2c-1.3 8.9-2.5 17.8-3.8 26.7-.6.8-.3 2.1-1.4 2.6v-.1c-2.6 9.2-9.1 16.3-13.2 24.7-1.1 2.2-2.5 4.3-3.6 6.5-.2.5-.5.9-.8 1.4-.3.4-.6.8-.9 1.2-.2.2-.3.4-.5.6-.4.6-.8 1.3-1.2 2-.2.5-.5 1-.8 1.5-.5.7-1.1 1.5-2.2 1.3-.6-.3-1.1-.8-1.4-1.4-2.6-12.9-3.8-25.8-.2-38.8z" fill="#ffd900"/><path d="m491.1 270.6-3.8-26.7 1.6-1.2 28.4 29.4c3.4 12.9 2.4 25.7 0 38.5-.3.6-.7 1.1-1.2 1.5-.8.4-1.8.2-2.2-.6-.3-.4-.6-.8-.8-1.3-.3-.6-.6-1.3-.9-1.9-.2-.4-.5-.7-.7-1.1s-.5-.7-.8-1-.5-.7-.7-1.1-.4-.8-.6-1.1-.4-.8-.6-1.2c-.3-.6-.6-1.2-1-1.8-.3-.4-.5-.8-.8-1.2-.5-.8-1.1-1.6-1.7-2.4-.3-.4-.6-.9-.9-1.4-4-8.6-10.3-16.1-13.3-25.4z" fill="#ffd900"/><path d="m107.1 392.2c-1.6.5-1.4 1.9-1.4 3.1v40.8c17.3 20.4 38.2 37.6 61.5 50.7.8.2 1.6.3 2.4.2.3-.4.8-.5 1.3-.3.3.4.5.8.5 1.3-.1.7-.4 1.4-.7 2-.2.4-.5.8-.9 1.1-.6.4-1.2.8-1.8 1.2-.4.3-.8.6-1.2.9s-.9.5-1.5.6l-.8-.1c-.5-.2-1.1-.4-1.6-.7-18.2-9.9-34-23-49.1-37-4.1-3.8-7.4-8.4-11.3-12.4-1.7-1.7-2.7-3.7-1.2-6.1 1.5-2.9 1.4-6 1.4-9.1 0-10.6-.1-21.2.1-31.8.1-2.6-1.1-6.1 3-7.1.5.9.9 1.8 1.3 2.7z" fill="#c83931"/><path d="m397.2 487.1c1.8.5 3.2-.5 4.6-1.4 22.4-13.1 42.5-29.8 59.3-49.5 0-13.7 0-27.6 0-41.5 0-1-.1-2.1-1.4-2.5.3-1.3 1.2-2.3 2.5-2.6 2 1.9 1.9 4.5 1.9 7 0 11.6.3 23.1-.1 34.7 0 1.3 0 2.5-.1 3.8 0 .5.1 1 .2 1.6.1.2.2.5.3.7.5.9 1.3 1.5 1.7 2.4-16.7 20-36.5 36.4-58.7 50-1.7 1.1-4 1.5-4.9 3.7-.2.4-.6.6-1 .6-.4-.1-.8-.2-1.1-.5-.3-.2-.7-.5-1-.8-.2-.1-.3-.2-.5-.4-.6-.3-1.1-.6-1.7-1-.4-.3-.7-.7-.9-1.1-.4-.6-.6-1.3-.8-2 0-.5.2-1 .5-1.4.4-.3.9-.2 1.2.2z" fill="#c83931"/><path d="m68.2 373.3c0 1 0 2.1.2 3.1 2.3 9.4 21.7 41.9 30.2 49.7v-47.8c.4.4.7.8 1.1 1.3.8 1.5.9 3.3 1.2 5 .3 2 .4 4.1.4 6.1v4c-.1 3 0 5.9-.1 8.9 0 .9 0 1.9-.1 2.8 0 1.2-.1 2.4-.1 3.5v1.7s0 1.1 0 1.7 0 1.1 0 1.7v2.5 4 2.3c0 .5 0 1-.1 1.5 0 .8-.2 1.5-.3 2.2-.1.5-.3.9-.6 1.4-.3.7-.7 1.4-1.1 2-.4.4-.8.7-1.2.9-1 .5-1.9 1-2.8 1.6-1 .7-2.1 1.1-3.3 1.3-.6.1-1.3.2-1.9.2-1.3 0-2.7.1-4 .2-5.4-.5-11.1 1.5-16.2-1.8h-2.5c-.7.7-1.8.7-2.5 0h-1.3c-.5-.4-.5-1.1-.1-1.5 0 0 .1-.1.1-.1 5.4-2.3 11.1-.7 16.6-1.2 3.1-.2 6.2.5 9.2-.5.6-2.3-1.2-3.5-2.3-4.9-9.6-13.1-17.2-27.4-24.3-42-.8-1.7-1.7-3.4-1.2-5.3 1.2-2.1 3.8-2.5 5.2-4.3.7-.5 1.3-.5 1.8-.2z" fill="#c73831"/><path d="m468.2 378.3v46.7c2.6.4 3.1-1.5 4-2.7 9.7-13.3 18.1-27.5 24.9-42.4 1-2.1 1.5-4.3 1.5-6.6.3-.4.8-.4 1.2-.2.5.5.8 1 1.1 1.6.4.5.9.9 1.5 1.1.9.1 1.7.6 2.3 1.3-3.7 9.9-8.8 19.1-14.1 28.3-5.1 8.9-11.2 17.2-18.2 26.9h31l-1.3 1.1c-.5.4-1.1.6-1.7.8-2.1 1-4.4.7-6.6.8-.6 0-1.3 0-1.9 0-2.2 0-4.3-.1-6.5-.1-.6 0-1.2 0-1.8 0h-2.7c-.6 0-1.2 0-1.8 0-2.3-.1-4.6.1-6.7-1-1.1-.8-2.2-1.5-3.4-2.1-.5-.3-.9-.6-1.3-1-.3-.5-.7-1-.9-1.5-.3-.5-.5-1.1-.7-1.7l-.3-.9c-.2-.6-.3-1.3-.3-1.9-.3-6.9-.1-13.8-.2-20.6 0-1.3.1-2.7.1-4s0-2.6 0-3.9c0-.6 0-1.3 0-1.9 0-1.9 0-3.9 0-5.8.1-1.3.2-2.6.5-3.8.3-1.3.6-2.5 1-3.7.6-1.1 1-1.9 1.3-2.8z" fill="#c73831"/><path d="m396 487.1v1.3c.2.9.6 1.8 1.3 2.5.6.8 1.8.5 2.5 1.3.4.4.8.8 1.2 1.3 1.1 1.1 2.7.2 3.9 1.1h-.1c1.4 1.6 3.6.1 5.1 1.3h-.1c2.8 1.3 5.9 1.7 8.9 2.5l-.1-.1c1.3 1.8 3.6.2 5.1 1.3l-.1-.1c1.3 1.7 3.6.1 5 1.4.6 1.7 4.1-.7 3.7 2.6l-3.7 3.8c-3.3-2.6-7.6-2.3-11.4-3.7h.1c-1.4-1.6-3.6 0-5-1.3-1-1.2-2.7-.3-3.9-1.1l.1.1c-1.3-1.8-3.6-.1-5-1.4-3.2-1.3-6.6-2.2-10.1-2.6-1.7.3-3.5-.6-4.3-2.1.3-1.2.6-2.7.9-4.2 2-2.1 1.3-5.1 2.2-7.5.3-.3.7-.5 1.1-.5-.2-.4-.3-.9-.3-1.4.1-1.1-.2-2.2.6-3.1-.1-.4 0-.8.2-1.2 1.5-2.4 1.5-5.1 2.2-7.7h-.1c2.2-1.2 0-3.6 1.4-5.1-.1-.3 0-.7.2-1 1-1.1.2-2.7 1.1-3.8.3-.3.7-.5 1.1-.5-.2-.5-.3-.9-.3-1.4.1-1.1-.1-2.1.6-3 2.9.1 4-2.8 6.2-3.8.3.2.5.6.4 1s-.2.5-.3.5c.1.4 0 .7-.2 1-1.8 4-2.6 8.3-3.5 12.6l.1-.1c-1.7 1.4-.1 3.6-1.3 5.1v-.1c-1 3-2.5 5.9-2.5 9.1.1.3 0 .7-.2.9-1.4 1-.2 2.7-1.1 3.9l.1-.1c-1.3.3-.9 1.7-1.7 2.3z" fill="#d63831"/><path d="m68.2 373.3h-1.1c-3-1.8 0-5.9-3-7.7-.2-.5-.1-1.1.3-1.6 4.6-17.5 9.2-35 13.8-52.5-.4 6.3 1.5 12.2 2.5 18.2-4.7 12.8-7.3 26.3-11.1 39.3-.3 1.6-.9 2.9-1.4 4.3z" fill="#d53831"/><path d="m99.8 407.1v-2.6c.8-3.3.8-6.7 0-9.9 0-1.3 0-2.5 0-3.8.8-2 .8-4.2 0-6.2 0-1.7 0-3.3-.1-5 3.2.5 1.2 4.5 3.6 5.3 1.4 1.5 2.8-.5 4.1.3.4 1.8-1.1 2.9-1.5 4.4-2.1 1.8-1.3 4.2-1.3 6.4-.1 12.6 0 25.2 0 37.7 0 2.8.1 5.5-3.7 5.9-1.2.6-2.3 0-3.3-.5-1.9-1-4-.5-6-.7-2.9-.4-5.2-1.4-4.4-5h3.8c.2.3.7.4 1 .2.1-.1.2-.1.2-.2 1 .1 2-.4 2.6-1.3 1-1.1 2.7-.1 3.7-1.3.8-.6.5-1.8 1.3-2.5.7-.7.8-1.8.1-2.5v-1.3c.6-.7.6-1.8 0-2.5v-5c.6-.7.6-1.8 0-2.5 0-.4 0-.8 0-1.3.3-.4.3-.9 0-1.3v-1.3c.6-.9.6-2.4-.1-3.5z" fill="#d83831"/><path d="m488.6 311.6 12.5 49c-1.7 2-2.1 4.8-4.1 6.6-3.2-11.5-6.5-23.1-9.8-34.6-.3-.9-.8-1.8-1.2-2.7-.6-3.3 1.7-5.8 2.5-8.2v-10.1z" fill="#d53831"/><path d="m514.7 324.5c-.2-.3-.2-.6-.1-.9-.5-.9-.3-2.1-1.2-2.8-.2-1.9-1.2-3.7-2.7-4.9l.1.1c-.2-.6-.4-1.1-.5-1.7 0-.4.3-.8.6-1l.6-.2-.6.1c-.2.3-.7.5-1.1.4-.5-.4-1-.9-1.3-1.5-.7-.7-.5-1.9-1.4-2.4v.1c-.6-.8-.3-2-1.4-2.5l.1.1c-.1-.7-.7-1-1.1-1.5v-.1c-.7-1.7-.9-3.8-2.7-4.9-.9-3.6.5-5 4.1-4.1.6 1.4 1.4 2.8 2.4 3.9.3.9.1 2 1.4 2.4.5.8.3 2 1.4 2.5l-.1-.1c.2.4.2.9 0 1.3-.2.3-.6.5-.9.3.4.3.6 0 .8-.2.3-.3.9-.3 1.2 0 .3.3.5.7.6 1.1-.3.3-.2.8.2 1.1l.6.2c.7.7.4 2 1.5 2.4l-.1-.3c.2.8.9.9 1.5 1.2s1.2.7 1.8 1.1 1.2.9 1.8 1.3c1.1.4 2 1.9 3.4.5l-.1.1c.8-.6 2-.3 2.5-1.4l-.1.1c1.4-.6 2.7-1.4 3.9-2.4.7-.6 1.9-.4 2.5-1.4h-.1c.8-.5 2-.3 2.5-1.4l-.1.1c.7-.1 1-.7 1.5-1h.1c.8-.4 1.9-.3 2.4-1.3.7-.6 2-.4 2.5-1.4l-.1.1c2.1-1.2 4.5-2 6.4-3.7.4-.3 1-.3 1.3.1v5c-.4.4-.8.9-1.2 1.4-1.3.2-2.7.3-3.7 1.3-.2.5-1.4-.6-1.1.7-.3.8-1 1.1-1.6 1.6-.7.7-1.9.4-2.4 1.4h.1c-.8.6-2 .3-2.5 1.4l.1-.1c-.7.1-1 .7-1.5 1.1-1.6 1-3.8.7-4.9 2.7v-.1c-.5.3-.9.6-1.4 1-.2.3-.5.4-.8.4-1.6.4-3 1.3-4.2 2.5-.8.6-2.2.4-2.5 1.7l-1.3 2c-2.2 1.3-3.9.8-5.1-1.5z" fill="#d73831"/><path d="m516 313.3-1-1.7c4.2-9.8 1.8-20.2 2.7-30.3.3-3-.3-6.1-.4-9.2l2.7 2.5h3.4c.8 11.3.5 22.6-.8 33.8-.2 2.4-.2 4.9 0 7.4-1.3 1.1-2.7 1-4.1.2l-1.2-1.3c-.4-.6-.9-.9-1.3-1.4z" fill="#c63831"/><path d="m49.6 272c-.2 13.3-1.7 26.7 2.1 39.7 1 .5.6 1.2.2 1.9-.4.4-.7.8-1.2 1.1l-.6.5c-.4.3-.9.7-1.3.9-.5.3-1 .4-1.6.5-1.2.1-2.3 0-2.9-1.2-.4-10.2-1-20.5-1.3-30.7-.1-3.5.3-7 .4-10.5h3.4z" fill="#c63831"/><path d="m467.1 395.8v3.8c-.7 1.1-.7 2.6 0 3.7 0 7.9 0 15.8.1 23.8-.3.2-.4.5-.3.9.1.3.2.4.3.4.4.4.8.9 1.3 1.3v1.2c-1.7 1.6-3.5 3-6.1 2.5-.1-14.6-.1-29.2-.2-43.7l4.8-8.7v3.7c-.7 1.1-.7 2.6 0 3.7v6.3c-.3.2-.3.8.1 1.1z" fill="#d73831"/><path d="m497.1 367.2c.2-2.9-.1-6.1 4.1-6.6v.1c.9 1.1-.5 3 1.3 3.7v-.2c.3.4.5.7.9 1l.9.9c.5.4.9.9 1.2 1.4.4.9.9-.1 1.4 0 .9-.1 1.8.3 2.4.9.5.4 1.3.3 1.7-.2.1-.2.4-.3.6-.2h.1c1.3-.8 3.1.2 4.2-1.2h-.1c1.5-1.2 3.7.4 5-1.4l-.1.1c1.2-.9 2.8 0 3.9-1.1.2-.3.5-.4.8-.2 1.3-.8 3 .1 4.2-1.2 1.5-1.3 3.7.3 5-1.3h-.1c.8-.6 1.9-.6 2.6.1.4 1.9-2.9 2.8-1.3 5-4.1 1.5-8.5 1.7-12.5 3.7l-.4.3h-.5c-4.4 1-8.8 1.7-12.9 3.5l-1.2.3c-1-.1-1.9.3-2.6 1l-1.3 1.2h-3.4c-.4-.4-.8-.8-1.2-1.2l-.1-2.5c-1.8-1.7-1.4-4.3-2.6-6.2z" fill="#d73831"/><path d="m55.7 305.5c5.6-11.2 11.8-22 18.7-32.4 2.6 3.2-.2 7.2 1.4 10.6-4.8 7.9-9.7 15.7-14.5 23.5-1-.1-2.1-.4-3.1-.7-.5 0-1 0-1.5-.1s-.9-.4-1-.9z" fill="#d53831"/><path d="m506.2 296.9c-2.4.3-3.9 1.5-4.1 4.1l-11-17.2c0-4.4 0-8.8 0-13.1 5.7 8.2 10.7 17 15.1 26.2z" fill="#d53831"/><path d="m493.5 433.4h7.5c.3.2.4.5.3.8s-.2.4-.3.4v2.5c-9.5 1.4-19 .2-28.5.6-.7 0-1.4 0-2 0-.7-.1-1.2-.6-1.3-1.3 0-1.6.4-3.1 1.3-4.4.5-.4 1.2-.4 1.6.1 2.2 2.2 5 .9 7.6 1.3 0 0 .3.5.3.4l-.3.4.5-.2c.3-.2.5-.4.8-.7h2.5l.3.5-.3.4.5-.2c.3-.2.5-.4.8-.7h7.5c.2.3.7.4 1 .2.1 0 .1-.1.2-.1z" fill="#d73831"/><path d="m165.8 471c-2.3-6.1-4-12.4-5-18.8 3.3.1 5 3.2 7.9 4 .4 2.7.8 5.5 1.2 8.2-1 2.4-2.4 4.7-4.1 6.6z" fill="#d53831"/><path d="m469.7 437.1h31.3l-1.7 1.5-30.9-.3c-.3-.2-.4-.6-.3-.9s.1-.5.2-.5c.5-.4 1.1-.3 1.4.2z" fill="#d43831"/><path d="m523.5 370.7c3.6-3.1 8.1-3.3 12.5-3.7-.1.6-.1 1.1-.2 1.7-4.3-.7-8 2.2-12.3 2z" fill="#d43831"/><path d="m439.6 133.4c-1.6-.1-2.3.9-2.4 2.4-1.4-.9-1.9-2.2-.5-3.3 1.2-.9 2.2-.4 2.9.9z" fill="#ffd900"/><path d="m129.6 135.7c0-1.5-.7-2.4-2.3-2.4.6-1.2 1.7-1.8 2.8-.9 1.4 1.2.9 2.4-.5 3.3z" fill="#ffd900"/><path d="m399.7 459.6-1.4-.1-.1-3.3 1.5-1.6z" fill="#d53831"/><path d="m311.2 489.7-1.8-.3c1.2-1.2 2.6-1.1 4.1-.9v.8c-.4.7-1.3 1-2 .6-.1 0-.2-.1-.3-.2z" fill="#ffd900"/><path d="m501 447.2-1.8-.6.6-1.2c1.4-.1 1 1 1.2 1.8z" fill="#d93932"/><path d="m484.7 464.6c-1.5-.9-1.2-2.3-1.2-3.6 1.5.8 1.2 2.3 1.2 3.6z" fill="#d93932"/><path d="m18.2 250.7-3.6.1c1.2-1.5 2.4-1.8 3.6-.1z" fill="#d93932"/><path d="m537.3 362.1-2.6-.1 3.7-1.7c-.4.6-.8 1.2-1.1 1.8z" fill="#d43831"/><path d="m514.7 422.1c.4.8.8 1.7 1.3 2.5l-1.6-.4c-.8-1-.4-1.6.3-2.1z" fill="#d93932"/><path d="m546 238.3c-.3-.2-.3-.6-.2-.9l1-.9.4 1.8z" fill="#d93932"/><path d="m74.4 273.2c0-1.1.5-2.1 1.4-2.6 0 1.1-.1 2.2-1.4 2.6z" fill="#d53831"/><path d="m406.1 452.4c0-.5-.1-1-.2-1.5l1.4-1.2z" fill="#d53831"/><path d="m547.3 308.5c.4-.5.8-1 1.2-1.4l-.2 1.6c-.3-.1-.6-.2-1-.2z" fill="#d43831"/><path d="m503.5 444.6-.5-.3.2-.2z" fill="#d93932"/><path d="m548.5 302-1.3-.1 1.4-1.1z" fill="#d43831"/><path d="m486 464.6.3-.5.2.2z" fill="#d93932"/><path d="m547.3 238.3.5.3z" fill="#d93932"/><path d="m127.3 138.6 1.2-1.5c-.4.5-.8 1-1.2 1.5z" fill="#49201d"/><path d="m437.2 135.8 1.2 1.5z" fill="#552522"/><path d="m128.5 137.1 1.1-1.4z" fill="#49201d"/><path d="m126 134.6-1.1 1.1z" fill="#49201d"/><path d="m57.1 134.5.5.3z" fill="#d93932"/><path d="m440.9 134.6-1.2-1.1z" fill="#552522"/><path d="m127.2 133.5-1.2 1.1z" fill="#49201d"/><path d="m504.7 122-.2.5-.3-.2z" fill="#d93932"/><path d="m486 99.5-.6.7-.6-.7z" fill="#d93932"/><path d="m484.7 99.5-.5-.3.3-.2z" fill="#d93932"/><path d="m403.5 39.5-.3.5-.3-.2z" fill="#d93932"/><path d="m258.4 10.7.6.3-.3.3z" fill="#d93932"/><path d="m551 330.8-.5-.3.2-.2z" fill="#d93932"/><path d="m514.7 422.1.3-.6.3.3z" fill="#d93932"/><path d="m501 434.6v-1.2h1.3z" fill="#d43831"/><path d="m290.9 549.4c0-1.3-.2-2.7 1.1-3.6 2.5 1.6 3.7-.9 5.2-1.9 4.3-3 6.9-7.5 10.3-11.3 0-2.5-2.7-3.9-2.1-6.4 3-5 4.1-5.3 11-2.8 1.4 5.7 4.3 11.6-.1 18 .3 1.6 3.1 1.5 3.4 3.5 1.6 1.4 3.6.7 5.4 1.1-11.2 2.4-22.6 4.1-34.2 3.4z" fill="#ffd900"/><path d="m417.1 503.4c4.1.3 8.4 0 11.4 3.7h-1.2z" fill="#d43831"/><path d="m432.2 503.3-3.7-2.6c2.2-.1 4.3.4 6.2 1.4-.5.9-1.5 1.4-2.5 1.2z" fill="#d43831"/><path d="m447.3 501-1.8-.6c.2-.5.4-.8.6-1.2 1.4-.2.9.9 1.2 1.8z" fill="#d93932"/><path d="m173.4 529.6c.9-1.5 2.3-1.2 3.7-1.2-.9 1.5-2.4 1.1-3.7 1.2z" fill="#d93932"/><path d="m201.5 545 1.9-1.4.3.6z" fill="#d93932"/><path d="m234.8 549.7-1.9-.5c1-1.1 1.3-.1 1.9.5z" fill="#d93932"/><path d="m464.7 485.8-.3.6-.2-.3z" fill="#d93932"/><path d="m315.9 552.1-.5-.3.3-.2z" fill="#d93932"/><path d="m98.4 438.3 2.5 1.3c16.7 20.1 36.6 36.4 58.7 50 1.7 1.1 4 1.5 4.9 3.7-.3.7-.9 1.3-1.5 1.7-.4.3-.9.5-1.4.6-1.2.3-2.5.5-3.7.9-.5.2-1 .3-1.5.5-2.3.4-4.6 1-6.8 1.9-.5.2-1 .4-1.5.5-1.2.3-2.5.4-3.7.8-.5.2-1 .3-1.4.4-1.2.2-2.4.5-3.6.8-.5.2-.9.3-1.4.4-1.2.2-2.4.4-3.6.5l-.7.1c-.5.1-1 0-1.3-.4-19.3-11.9-35.5-27.1-50.2-44.2-5.2-6.1-10.8-12-14.4-19.4 3.7-3.3 8.3-2 12.5-2.1 5.9-.1 11.9 1.7 18.1 2z" fill="#ffd900"/><path d="m62.1 377.1c7.7 19.5 18.8 37.1 32.2 55.2h-30.9c-.3.2-.8.2-1-.2-.1-.1-.1-.2-.1-.2l-13.8-22.4c-1.1-.8-1.8-2.2-1.7-3.5-5.9-12.1-11.1-24.5-15.7-37.2 1-1.9 2.8-1.5 4.3-1.2 8.4 2 16.9 4 25 7 .9.5 1.5 1.4 1.7 2.5z" fill="#ffd900"/><path d="m165.8 471c.1-1.4.3-2.8.4-4.3l3.6-2.2v.1c1.2 1.5-.5 3.8 1.4 5l-.1-.1c.4 2.6 1.1 5.2 2.2 7.6l.2 1.2c1.1 1.1.1 2.7 1.1 3.8.2.3.3.7.2 1.1.9 2.5.2 5.5 2.2 7.7.3 1.5.6 3 .9 4.2-.8 1.5-2.6 2.4-4.3 2.1-3.4.8-6.9 1-10.1 2.6-1.4 1.3-3.7-.4-5 1.4l.1-.1c-1.2.8-2.8-.1-3.9 1.1-1.4 1.3-3.6-.3-5 1.3h.1c-1.5 1.2-3.7-.4-5 1.4l.1-.1c-2.2.6-4.7.5-6.4 2.3-1.5-1.5-2.9-3.1-5-3.8-.2-.2-.4-.5-.3-.9.1-.3.2-.5.2-.5 1.5-1.2 3.6.3 5-1.3 1.4-1.3 3.7.4 5-1.4l-.1.1c1.5-1.2 3.7.4 5.1-1.3l-.1.1c2.9-1 6.2-.6 8.9-2.5h-.1c1.5-1.2 3.7.3 5.1-1.3h-.1c1.1-.9 2.8 0 3.9-1.1.4-.4.8-.8 1.2-1.3.7-.7 1.8-.5 2.5-1.3.8-.6.5-1.8 1.3-2.5v-1.3c-.5-.8-.2-2-1.5-2.3h.1c-1.1-1.5.9-3.8-1.3-5h.1c-.9-2.7-1.3-5.8-2.6-8.5z" fill="#d63831"/><path d="m98.4 438.3-30.8.3c-1-2.4 2-3.2 2.1-5.2h17.5c1 3.4 3.5 4.2 6.6 3.7 1.7-.3 3.6-1.4 4.6 1.2z" fill="#d53831"/><path d="m157.2 518.3 3.7 1.8c-1.1 3.8-3.4.2-5 .8z" fill="#d93932"/><path d="m46.8 405.9 1.7 3.5c-.1.6-.2 1.1-.3 1.7l-1-.3c-.7-1.6-2.2-3.1-.4-4.9z" fill="#d93932"/><path d="m138.4 507.1c1.3-3 3.9-2.6 6.4-2.4l-5.2 2.4z" fill="#d43831"/><path d="m95.9 480.8c0 1.8 1.8 4-1.3 5-1.1-2-.5-3.6 1.3-5z" fill="#da3a32"/><path d="m90.8 478.4c.8-1 1.5-1.7 2.2 0-.7 1.1-1.4-.1-2.2 0z" fill="#da3a32"/><path d="m109.1 493-1.9 1.4-.3-.6z" fill="#da3a32"/><path d="m110.8 496 .5-1.9c1.1 1 .1 1.3-.5 1.9z" fill="#da3a32"/><path d="m48.8 419-.9-.1z" fill="#d93932"/><path d="m64.6 433.4h2.5c-.8 1.2-1.6 1.2-2.5 0z" fill="#d53831"/><path d="m63.4 443.3.3-.5.2.2z" fill="#d93932"/><path d="m70.9 454.6.3-.5.2.2z" fill="#d93932"/><path d="m79.6 467.1.3-.5.3.2z" fill="#da3a32"/><path d="m79.6 467.1-.3.5-.2-.2z" fill="#da3a32"/><path d="m90.9 478.3-1.3 1.3z" fill="#da3a32"/><path d="m95.9 480.8.3-.5.2.2z" fill="#da3a32"/><path d="m99.6 484.6-.5-.3.2-.2z" fill="#da3a32"/><path d="m99.6 484.6.7.6-.7.6z" fill="#da3a32"/><path d="m104.6 490.8.6-.7.6.7z" fill="#da3a32"/><path d="m105.9 490.8.5.3-.2.3z" fill="#da3a32"/><path d="m108.4 493.3.3-.5.2.2z" fill="#da3a32"/><path d="m44.6 412.1 1.3-1.3z" fill="#d93932"/><path d="m53.4 428.3.3-.5.2.2z" fill="#d93932"/><path d="m133.3 502 .1 1.3-1.3-1.2c.4-.2.8-.3 1.2-.1z" fill="#d43831"/><path d="m53.4 430.8.5.3-.2.3z" fill="#d93932"/><path d="m62.2 431.8c.4.1.8.2 1.1.4v1.1z" fill="#d53831"/><path d="m169.7 524.6 3.6 1.5c-2 1.5-3.1.7-3.6-1.5z" fill="#d93932"/><path d="m160.9 524.6c.5-.7.6-2 2-1.5.1 1.6-1.1 1.3-2 1.5z" fill="#d93932"/><path d="m164.7 522.1 1.2.4c-.7.5-1 .2-1.2-.4z" fill="#d93932"/><path d="m28.5 360.3c-5-16.9-9.1-33.9-10-51.6.8-1.2 1.9-.6 2.8-.3.5.2.9.4 1.3.7.8.5 1.5 1.1 2.3 1.6.4.2.8.5 1.1.7.5.3 1.1.6 1.7.9.4.2.8.4 1.2.6.6.3 1.2.6 1.8.9.4.2.8.5 1.2.7l1.2.8.6.4c1.5.9 3.2 1.6 4.7 2.3.5.2.9.5 1.3.7 1 .8 2 1.5 3.1 2.1.5.2.9.5 1.3.8 1 .5 1.9 1.2 2.6 2 .7 1 1.2 2.1 1.5 3.2 2.2 10.9 5 21.7 8.5 32.2.9 2.5 1.9 5 1.4 7.8-.2.6-.5 1.1-.9 1.6-.5.3-1.1.5-1.7.5-1.4-.2-2.7-.5-4-1-.5-.1-1-.3-1.4-.5-1.2-.4-2.4-.7-3.6-.9-.5-.1-1-.2-1.4-.4-1-.3-2-.5-3-.7-.5-.1-1-.2-1.5-.4-1-.3-1.9-.7-2.9-1-.5-.1-1-.3-1.4-.5-1.2-.4-2.4-.7-3.6-.9-.5-.1-1-.3-1.4-.5-.8-.4-2.3-.5-2.8-1.8z" fill="#ffd900"/><path d="m39.2 319.7c-.3.1-.6 0-.8-.3-1.4-2.5-4.2-2.4-6.3-3.6-.5-.4-.8-1-1.5-1.1l.1.1c-.5-1.1-1.7-.9-2.5-1.4h.1c-.5-1-1.8-.7-2.4-1.4-1.2-1-2.5-1.8-3.9-2.3l.1.1c-.9-1.4-2.5-1.7-3.6-2.8 0-1.7-1.2-3.3 0-5 .2-.4.7-.5 1.1-.3.1.1.2.1.2.2 1.8 1.7 4.2 2.5 6.4 3.7l.6.9c.1.4.4.7.6 1 .5.1.9.1 1.4.1 1.2.3 2.2 1.3 3.6 1.7l-.1-.1c.5 1.1 1.7.9 2.5 1.4l-.1-.1c.5 1 1.8.7 2.5 1.4 1.2 1 2.5 1.8 3.9 2.4l-.1-.1c.5 1 1.8.8 2.5 1.4l-.1-.1c1.6 1.3 3.3 1.1 5 .2l1.3-1.3c.4-.4.9-.8 1.3-1.2s.6-1 .9-1.5h.1c1.3-.3 1.1-1.5 1.5-2.3.8-.6.6-1.8 1.3-2.4.4-.5 1-.8 1.1-1.5l-.1-.1 1.5.3c2.3-2.3 3 .3 4.1 1.4h-.1c-1.9 1.1-1.8 3.2-2.8 4.8-1 1.2-1.8 2.5-2.4 3.9h.1c-.3.2-.7.4-1.1.4-.4.2-.6.6-.5 1.1-.8 1-.3 2.4-1.1 3.3-.4.4-.7 1-.7 1.7-.1.4-.3.8-.4 1.2.1.3.1.6-.1.9-1.3 2.3-3 2.8-5.2 1.3l-1.3-2c-.3-1.4-1.7-1.1-2.5-1.7-1.2-1-2.6-1.8-4.1-2.3z" fill="#d73831"/><path d="m41.3 364.4c.3-.1.6-.1.8.2 1.1 1.1 2.7.2 3.9 1.1l-.1-.1c1.3 1.7 3.6.1 5 1.4h-.1c1.1 1.4 2.9.5 4.2 1.2.2-.2.5-.1.7.1.4.6 1.2.6 1.8.2 0 0 .1-.1.1-.1.9-.8 2.1-1.3 3.4-1.5.9-.3 1.8-.7 2.8-1l.7-.1 3.6 1.1c.2 2.2-2.7 4-1.1 6.4l-.7 3.4-4.4.3-1.3-1.2c-1.4-1.4-3.3-1.7-5-2.4-.4-.5.1-1 0-1.5-.5 0-.5.8-1 .7-2.3 0-4.6.1-6.5-1.7-.4-.5.2-1 0-1.5-.4.3-.2.9-.7 1.1-2.7.5-5.2-.4-7.7-1.3-.6-.4-1.3-.8-2-1.3-.6-.4-1.2-.9-1.7-1.4-1.1-.6-.3 1-1 .9-1.5.2-3.1.5-4.5-.5-1.2-.9-.2-3.6-3.4-2.5l2.2-2.5c.7-.7 1.8-.7 2.6-.1h-.1c1.4 1.6 3.6.1 5 1.3 1.5 1.4 3.2.5 4.5 1.3z" fill="#d83831"/><path d="m35.9 365.8c1-.1 2 .4 2.5 1.3.4.4.8.9 1.3 1.3 2.8 1.2 5.6 2.3 8.8 1.3 1.8 3 5.1 1.4 7.5 2.5 1.2 1.8 4.4 1.1 5 3.8-10-2-19.5-6.3-29.8-7.1-.1-.6-.1-1.1-.2-1.7 1.6-.3 3.6.4 4.9-1.4z" fill="#d33831"/><path d="m18.4 307c1.9 0 3.2.8 3.6 2.8l-3.5-1.1z" fill="#d43831"/><path d="m19.7 302-1.3.1c-.9-.5-1.4-1.6-1.2-2.6z" fill="#d43831"/><path d="m32.2 362-2.6.1c-.4-.6-.7-1.2-1.1-1.8z" fill="#d33831"/><path d="m41 399.7-1.9-.5c1-1.1 1.3-.2 1.9.5z" fill="#d93932"/><path d="m10.9 258.3.5.3-.2.2z" fill="#d93932"/><path d="m40.9 399.6.5.3-.2.2z" fill="#d93932"/><path d="m244.9 512.5c.7-4.7 1.5-9.6 2.2-14.6l-24.4-4c3.9-3.2 6.5-1.9 8.6-1.7 9.9 1.3 19.7 3 29.5 4.4 3.6.5 7.5 1.8 10.4-1.8 2.1 1.6 4.4 2.8 4.9 6.5-8 .3-15.5-2-23.4-2.7-2.6 4.3-1.2 9.6-3.1 14.3 4 2.6 8.6.5 11.9 3 1.9-1.1 3.3-2 4.8-2.9 2 1.5 4.2 2.6 4.7 6-7.4 1.3-14.2-2.4-21.8-1.8-.8 6-1.6 11.8-2.5 17.9 5.5 2.3 11.2 1.7 16.5 3.3l4.7-2.9c1.9 2.1 3.7 3.9 6.6 7-19-1.9-37.9-5-56.6-9.2 7.9-2.3 15.5 1.7 23.7 1l2.9-18.3-18.9-3.3.2-1.7c6.3-1.6 12.4 2.1 19.1 1.5z" fill="#0e66b0"/><path d="m319.7 544.9-8.7-2.9c1.2-3 3.9-2 5.9-2.9 1-5.3-1.4-10.3-1.4-15.5-2.7-1.3-5.1.2-7.6-.1l-2.1 3.5c-.2.6-.4 1.3-1.2 1.5-.7-.4-1.8-.7-2-1.2-1.7-6.8-2.8-13.6-3.3-20.6 10.6.5 20.1-1.1 30.6-4.3l2.9 1.4c1.4 2.3.8 18.4-.6 19.9-1.9.1-1.8-2-3.9-3-2.7-.1-5.5.4-8 1.4.7 5.2 1.4 10.5 2 15.7.4 2.9.2 5.5-2.6 7.1z" fill="#0e66b0"/><path d="m311.2 489.7 2.3-.3 3.5 1.1c1.2 2.2-2.1 3.9.2 6.4 4.8 1.5 9.9-1.6 15.5-1.2l3.9-4.7c2.4 1.3 5.4 1.8 7.3 5.7-19 3.2-37.6 6.1-56.5 7.3 7.6-4.4 16.5-3 24.5-6.1-.4-2.9-1.5-5.5-.7-8.2z" fill="#0e66b0"/><path d="m325 526.4c9.5-1.5 19.3 3.6 20.9 11-3.1 1.4-12.5-3.5-20.9-11z" fill="#0e66b0"/><path d="m304.6 528.6 1.2-1.5c.4 3 4.1 2.5 5.2 5.3-6.7 4.5-10 13.2-19.2 16.2.1-1.3.2-2.1.3-2.8 5.5-4.6 9.8-10.5 12.5-17.2z" fill="#0e66b0"/><path d="m253.6 521.9c8.6 1.4 12.4 6.7 8.8 12.1-4.3-3.2-5.3-8.6-8.8-12.1z" fill="#0e66b0"/><path d="m393.4 497.1c3.9-1.3 7.1.4 10.1 2.6-3.6-.1-7-1-10.1-2.6z" fill="#d43831"/><path d="m163.4 499.7c2.9-2.7 6.5-2.7 10.1-2.6-3.1 1.6-6.6 2.4-10.1 2.6z" fill="#d43831"/><path d="m395.8 469.4c.1 2.8.7 5.7-2.2 7.7 0-2.7.8-5.4 2.2-7.7z" fill="#d53831"/><path d="m392.1 483.3c-.1 2.7 1 5.8-2.2 7.5.5-2.6.6-5.3 2.2-7.5z" fill="#d53831"/><path d="m173.2 477c-2.2-2.1-2.6-4.8-2.2-7.6 1.5 2.3 2.3 5 2.2 7.6z" fill="#d53831"/><path d="m177 490.8c-3.3-1.8-2.1-4.9-2.2-7.7 1.4 2.4 1.7 5.1 2.2 7.7z" fill="#d53831"/><path d="m397.1 464.3c-1.1 1.5 3.1 4.5-1.4 5.1.3-1.8 0-3.7 1.4-5.1z" fill="#d53831"/><path d="m171.2 469.5c-2.2-1.2-1.3-3.3-1.4-5 1.5 1.4 1.1 3.3 1.4 5z" fill="#d53831"/><path d="m393.4 478.3v5.1l-1.4-.1c.2-1.8 0-3.6 1.4-5z" fill="#d53831"/><path d="m158.5 501.1c1.2-2.2 3.2-1.3 5-1.4-1.4 1.4-3.2 1.3-5 1.4z" fill="#d43831"/><path d="m403.4 499.7c1.8.1 3.8-.8 5 1.4-1.8-.1-3.6 0-5-1.4z" fill="#d43831"/><path d="m149.7 503.5c1.3-2 3.3-1.2 5-1.3-1.4 1.3-3.2 1.2-5 1.3z" fill="#d43831"/><path d="m412.2 502.1c1.8.1 3.8-.7 5 1.3-1.8 0-3.6.1-5-1.3z" fill="#d43831"/><path d="m144.7 504.8c1.2-2.2 3.3-1.3 5-1.4-1.4 1.4-3.2 1.4-5 1.4z" fill="#d43831"/><path d="m398.4 459.5c.1 1.4.4 2.9-1.1 3.8-.1-1.4-.2-2.8 1.1-3.8z" fill="#d53831"/><path d="m408.3 501c1.4-.1 2.9-.4 3.9 1.1-1.4 0-2.9.2-3.9-1.1z" fill="#d43831"/><path d="m174.5 482.1c-1.4-1-1.1-2.4-1.1-3.8 1.1 1 1.5 2.4 1.1 3.8z" fill="#d53831"/><path d="m154.7 502.1c.9-1.6 2.4-1.3 3.9-1.1-1 1.3-2.5 1.1-3.9 1.1z" fill="#d43831"/><path d="m453.5 282.2c-.1 94.2-77.5 171.3-171.8 171.1-94-.3-170.9-77.5-170.8-171.5.1-94.2 77.5-171.4 171.8-171.1 93.9.3 170.9 77.5 170.8 171.5z" fill="#d93831"/><path d="m418.6 498.2c-3.3.3-6.3-.2-8.9-2.5 3.2 0 6.2.9 8.9 2.5z" fill="#d43831"/><path d="m409.8 495.7c-1.8-.1-3.8.8-5.1-1.3 1.9.1 3.7-.1 5.1 1.3z" fill="#d43831"/><path d="m423.6 499.5c-1.8 0-3.8.8-5.1-1.3 1.8-.1 3.7-.2 5.1 1.3z" fill="#d43831"/><path d="m428.5 500.8c-1.8-.1-3.8.8-5-1.4 1.8 0 3.6 0 5 1.4z" fill="#d43831"/><path d="m404.8 494.5c-1.4.1-2.9.4-3.9-1.1l1.5-.1z" fill="#d43831"/><path d="m466 439.6c-.7.5-1.6.4-2.2-.3-.5-.7-.4-1.6.3-2.2.7-.5 1.6-.4 2.2.3 0 0 .1.1.1.1.5.2.9.5 1.1 1z" fill="#d73831"/><path d="m468.5 437.1v1.2c-.3.2-.7.3-1 .3l-.3-.3c-.2-1.1.3-1.5 1.3-1.2z" fill="#d73831"/><path d="m402.3 466c-.6-4.5.7-9.1 3.5-12.6-.5 4.3-1.3 8.6-3.5 12.6z" fill="#d53831"/><path d="m398.7 480c-1.6-3.7.7-6.3 2.5-9.1-.2 3.2-1 6.3-2.5 9.1z" fill="#d53831"/><path d="m401.1 471c.1-1.8-.8-3.8 1.3-5.1-.2 1.7.1 3.6-1.3 5.1z" fill="#d53831"/><path d="m397.4 484.7c-.2-.9-.4-1.9-.6-2.8.2-1 .9-1 1.7-1.1 0 1.4.2 2.9-1.1 3.9z" fill="#d53831"/><path d="m396 487.1c0-1.1.3-2 1.5-2.4-.1.8-.1 1.6-.2 2.4z" fill="#d53831"/><path d="m165.8 470.9c2.4 2.5 2.9 5.6 2.5 8.9-1.7-2.7-2.5-5.8-2.5-8.9z" fill="#d53831"/><path d="m168.2 479.7 2.1 1c-.3 1.4-.5 2.7-.8 4-1.5-1.4-1.1-3.3-1.3-5z" fill="#d53831"/><path d="m169.4 484.8 2.1.1c-.2.9-.4 1.5-.6 2.2h-1.3c0-.8-.1-1.6-.2-2.3z" fill="#d53831"/><path d="m509.8 374.5c3.8-3 8.3-3.6 12.9-3.5-4.1 1.8-8.5 2.9-12.9 3.5z" fill="#d43831"/><path d="m506 375.8c.6-1 .9-2.8 2.6-1z" fill="#d43831"/><path d="m497.1 367.1c2 1.6 2.1 4 2.6 6.2h-1.1c-1-1.9-1.6-4-1.5-6.2z" fill="#d53831"/><path d="m502.2 365.8c.1-.5.1-1.1.2-1.6 5.2-7.2 5.9-16 8.5-24.2 1.6-5.1 2.5-10.4 3.7-15.5 1.6.9 3.4 1.4 5.2 1.3-1.3 11.9-4.9 23.3-8.6 34.7-.8 2.5-2.3 4.9-1.5 7.8.3.2.4.6.3.9s-.2.4-.3.4l-3.7-1.2c-.3.3-.8.4-1.1.1 0 0-.1-.1-.1-.1l-1.2-1.2c-.5-.6-.9-1-1.4-1.4z" fill="#c73831"/><g fill="#d43831"><path d="m541 312.1c.4-.8.8-1.7 1.2-2.5 1.6-.7 2.9-2.9 5.1-1.1-1.7 1.7-3.9 2.9-6.3 3.6z"/><path d="m529.9 318.5c.2-3.6 2.9-2.4 4.9-2.7-1.4 1.4-3.1 2.3-4.9 2.7z"/><path d="m534.7 361.9c-1.3 2-3.3 1.2-5 1.3 1.4-1.4 3.2-1.2 5-1.3z"/><path d="m520.9 365.6c-1.2 2.1-3.3 1.3-5 1.4 1.4-1.6 3.3-1.3 5-1.4z"/><path d="m523.5 322.2c.5-1.8 2.3-2.9 4.2-2.5-1 1.3-2.5 2.2-4.2 2.5z"/><path d="m524.7 364.6c-1 1.5-2.5 1.2-3.9 1.1 1.1-1.4 2.5-1.2 3.9-1.1z"/><path d="m529.7 363.2c-1 1.7-2.6 1.3-4.2 1.2 1.2-1.2 2.7-1.2 4.2-1.2z"/><path d="m516 366.9c-1 1.8-2.7 1.3-4.2 1.2 1.1-1.2 2.6-1.1 4.2-1.2z"/><path d="m538.6 313.5c.4-1 1.4-1.5 2.4-1.4-.5.8-1.4 1.4-2.4 1.4z"/><path d="m536.1 314.8c.3-1.3 1.4-1.5 2.5-1.4-.5.9-1.4 1.5-2.5 1.4z"/><path d="m521.1 323.9c.2-1.5 1.2-1.8 2.5-1.7z"/><path d="m528.5 319.4 1.4-1z"/><path d="m534.8 315.8 1.5-1.1z"/><path d="m509.7 369.6c0-.4 0-.9 0-1.3.4-.1.8-.1 1.2 0z"/><path d="m25.9 307 .1-1.4c2.4.6 4.6 1.9 6.3 3.7l-5.2-1-.6-.2c-.1-.4-.3-.8-.6-1.1z"/><path d="m26 305.7c-2.7-.2-5.1-1-6.4-3.7 2.5.5 4.7 1.8 6.4 3.7z"/><path d="m41.1 314.4c-1.7.3-3.4-.7-3.9-2.4 1.5.2 3 1.1 3.9 2.4z"/><path d="m48.4 315.8c-1.7 1.7-3.4 1.9-5-.2.3-.1.6-.1.9 0z"/><path d="m34.8 310.7c-1.2.1-2.2-.1-2.5-1.4 1-.1 2 .5 2.5 1.4z"/><path d="m37.2 312c-1.1.2-2.1-.4-2.5-1.4 1 0 2 .5 2.5 1.4z"/><path d="m43.5 315.7c-1.1.1-2.1-.1-2.5-1.4 1 0 2 .5 2.5 1.4z"/><path d="m547.2 301.9c-1.3 2.7-3.6 3.5-6.4 3.7 1.7-1.8 3.9-3.1 6.4-3.7z"/><path d="m529.7 312c-.5 1.7-2.2 2.7-3.9 2.4.9-1.3 2.3-2.2 3.9-2.4z"/><path d="m518.5 315.8 4.1-.2c.3-.1.6-.1.9 0-1.6 2.1-3.3 1.9-5 .2z"/><path d="m538.5 307c-.1.5-.2 1.1-.3 2l-2.1-.6z"/><path d="m540.9 305.6c-.4 1-1.4 1.6-2.5 1.4.6-.9 1.5-1.4 2.5-1.4z"/><path d="m534.6 309.3c-.4 1.3-1.4 1.5-2.5 1.4.5-.9 1.5-1.5 2.5-1.4z"/><path d="m532.2 310.6c-.4 1-1.4 1.6-2.5 1.4.5-.9 1.5-1.4 2.5-1.4z"/><path d="m525.9 314.3c-.4 1.3-1.4 1.5-2.5 1.4.5-.9 1.5-1.4 2.5-1.4z"/><path d="m536 308.4-1.5 1z"/></g><path d="m502.1 300.9 3 1.4c-.1 1.1-.2 2.3-.4 3.5-1.4-1.3-2.3-3-2.6-4.9z" fill="#d53831"/><path d="m510.8 315.9c2.2.9 4.3 1.9 2.7 4.9-1.4-1.3-2.4-3-2.7-4.9z" fill="#d53831"/><path d="m502.5 364.4-1.9-.3c.2-1.2.4-2.4.6-3.5 1.2 1 1.1 2.5 1.3 3.8z" fill="#d53831"/><path d="m511 313.3c-.1.9-.1 1.8-.2 2.7-1.3-.9-2.2-2.3-2.3-3.9z" fill="#d53831"/><path d="m505.7 307.2c1.3.4 1.5 1.4 1.4 2.5-.9-.5-1.4-1.5-1.4-2.5z" fill="#d53831"/><path d="m507.1 309.6c.9.4 1.5 1.4 1.4 2.4z" fill="#d53831"/><path d="m513.4 320.8c1 .5 1.5 1.7 1.2 2.8-.4-.9-.8-1.8-1.2-2.8z" fill="#c73831"/><path d="m504.8 305.8 1.1 1.5z" fill="#d53831"/><path d="m62.1 368.3c-1.8-.1-3.5.3-5 1.3-.3-.2-.4-.5-.3-.9.1-.3.2-.5.3-.5-.3-7.7-4.3-14.5-5.9-21.9-1.5-6.8-3.8-13.5-4.2-20.5 1.8.1 3.6-.4 5.2-1.3 2.6 10.1 5 20.3 7.9 30.3.9 3.2 1.3 7 4.4 9.2.1.6.1 1.1.2 1.7-1.1.7-2 1.6-2.6 2.6z" fill="#c73831"/><path d="m54.6 315.8 1.5.2c-.4 1.9-1.3 3.6-2.7 4.8-.6-1.9-.6-3.7 1.2-5z" fill="#d53831"/><path d="m58.4 312c-.1-2.2.1-4.2 2.8-4.8-.4 1.8-1.4 3.5-2.8 4.8z" fill="#d53831"/><path d="m56 316c-.3-1.7.7-3.4 2.3-3.9 0 1.6-.9 3-2.3 3.9z" fill="#d53831"/><path d="m52.3 323.6-.2-1.6.5-.3.4.3z" fill="#c73831"/><path d="m53 322h-.9l1.2-1.2z" fill="#d53831"/><path d="m53.3 309.5.6 1.6c-.5 1.1-1.3.8-2 .7z" fill="#d53831"/><path d="m54.6 307.1c.1 1-.4 2-1.3 2.4 0-1 .5-1.9 1.3-2.4z" fill="#d53831"/><path d="m55.7 305.6-1.1 1.4z" fill="#d53831"/><path d="m508.6 300.8c-1.7-.4-2.8-2.2-2.4-3.9 1.3.8 2.2 2.3 2.4 3.9z" fill="#d53831"/><path d="m509.9 303.2-2.1-.2c.3-.9.5-1.5.7-2.2.9.4 1.5 1.4 1.4 2.4z" fill="#d53831"/><path d="m511.3 305.7c-1.3-.4-1.5-1.4-1.4-2.5.9.5 1.4 1.4 1.4 2.5z" fill="#d53831"/><path d="m512.2 309.5v-2.5c.9.5 1.4 1.4 1.3 2.4z" fill="#d53831"/><path d="m515 311.9c-1.3-.3-1.5-1.3-1.5-2.4.9.5 1.5 1.4 1.5 2.4z" fill="#d53831"/><path d="m511 307c0-.5.1-.9.2-1.4l1.1 1.4z" fill="#d53831"/><path d="m165.9 493.4c-1 1.5-2.4 1.2-3.9 1.1l2.4-1.3z" fill="#d43831"/><path d="m170.9 488.3c.1 1-.4 2-1.3 2.5-.1-1 .4-1.9 1.3-2.5z" fill="#d53831"/><path d="m169.7 490.8c-.5.9-1.5 1.4-2.5 1.3.5-.9 1.5-1.4 2.5-1.3z" fill="#d43831"/><path d="m167.2 492.1-1.2 1.3z" fill="#d43831"/><path d="m468.5 437.1-1.3 1.2-3.7.1c-.4-.4-.8-.8-1.2-1.2 0-1.3.1-2.5.1-3.8 1.9-1.2 3.5-3 6.1-2.5.4.2.6.6.6 1 .5.7.5-.3.9-.2.4-.1.8.1 1 .5 0 1.4.2 2.9-1.3 3.8v1.2z" fill="#d93831"/><path d="m397.2 490.8c-.8-.6-2.8-.7-1.3-2.5.9.6 1.4 1.5 1.3 2.5z" fill="#d53831"/><path d="m399.7 492.1c-1 .1-2-.4-2.5-1.3 1-.1 2 .4 2.5 1.3z" fill="#d43831"/><path d="m462.3 437.1 1.2 1.2z" fill="#d73831"/><path d="m401 493.3-1.2-1.3z" fill="#d43831"/><path d="m99.8 394.6c1.7 3.1 1.7 6.8 0 9.9z" fill="#d13831"/><path d="m99.8 384.6c1.6 1.8 1.6 4.4 0 6.2z" fill="#d13831"/><path d="m99.8 407.1c1.4 1.2 1.4 2.5 0 3.7 0-1.2 0-2.5 0-3.7z" fill="#d13831"/><path d="m98.4 430.8c-.9 1.5-2.3 1.2-3.7 1.3.9-1.5 2.3-1.2 3.7-1.3z" fill="#d53831"/><path d="m99.8 414.6c1.1.8 1.1 1.6 0 2.5 0-.9 0-1.7 0-2.5z" fill="#d13831"/><path d="m99.8 422.1c1.1.8 1.1 1.7 0 2.5 0-.9 0-1.7 0-2.5z" fill="#d13831"/><path d="m99.8 425.8c1.2.9 1.1 1.7-.1 2.5z" fill="#d13831"/><path d="m99.6 428.3c.1 1-.4 2-1.3 2.5 0-1 .5-2 1.3-2.5z" fill="#d13831"/><path d="m99.8 412.1c.2.3.3.6.4.9 0 .1-.3.2-.4.4z" fill="#d13831"/><path d="m92.1 433.4c-.4.7-.8.7-1.3 0z" fill="#d53831"/><path d="m467.1 403.3c-1.4-1.3-1.4-2.5 0-3.7z" fill="#d13831"/><path d="m467.1 388.3c-1.4-1.2-1.4-2.5 0-3.7z" fill="#d13831"/><path d="m471 432.1h-1.3c-.3.3-.8.4-1.2.1 0 0-.1-.1-.1-.1 0-.4 0-.8 0-1.3 1.4.1 2.8-.3 3.7 1.3z" fill="#d43831"/><path d="m499.8 375.8 1.2 1.2z" fill="#d53831"/><path d="m467.1 395.8c-.2-.3-.3-.6-.4-.9 0-.1.3-.3.4-.4-.1.5-.1.9 0 1.3z" fill="#d13831"/><path d="m467.2 428.3c-.2-.3-.4-.6-.5-.9 0-.1.3-.3.4-.4.1.5.1.9.1 1.3z" fill="#d13831"/><path d="m468.5 429.6-1.3-1.3z" fill="#d13831"/><path d="m479.7 434.6v-1.2h1.3z" fill="#d43831"/><path d="m483.5 434.6c0-.4 0-.8 0-1.2h1.3z" fill="#d43831"/><path d="m493.5 433.4c-.4.7-.8.7-1.3 0 .4-.1.9-.1 1.3 0z" fill="#d43831"/><path d="m399.7 459.6.5.3-.2.2z" fill="#d53831"/><path d="m393.5 483.3.5.3-.2.3z" fill="#d53831"/><path d="m511 307-1.4 1.3c-.1-1.5.9-1.1 1.4-1.3z" fill="#d53831"/><path d="m542.3 309.5-.6-.2.3-.3z" fill="#d43831"/><path d="m516 313.3 1.3 1.2z" fill="#d53831"/><path d="m512.2 313.3.6.3-.3.2z" fill="#d53831"/><path d="m511 313.3.6-.7.6.7z" fill="#d53831"/><path d="m512.2 309.5-.2.6-.3-.3z" fill="#d53831"/><path d="m49.6 314.5-1.3 1.3z" fill="#d53831"/><path d="m50.9 313.3-1.3 1.2z" fill="#d53831"/><path d="m502.2 365.8 1.3 1.2z" fill="#d53831"/><path d="m504.7 368.3h1.3l-.6.7z" fill="#d43831"/><path d="m483.5 434.6-.3.5-.2-.2z" fill="#d43831"/><path d="m479.7 434.6-.2.5-.3-.2z" fill="#d43831"/><path d="m157.1 495.7c-2.3 3.2-5.6 2.7-8.8 2.5 2.6-1.6 5.7-2.5 8.8-2.5z" fill="#d43831"/><path d="m162.1 494.5c-1.3 2.1-3.3 1.2-5.1 1.3 1.5-1.5 3.3-1.3 5.1-1.3z" fill="#d43831"/><path d="m148.3 498.1c-1.2 2.1-3.3 1.3-5.1 1.3 1.5-1.4 3.3-1.3 5.1-1.3z" fill="#d43831"/><path d="m138.4 500.8c-1.3 2-3.3 1.2-5 1.3 1.4-1.3 3.2-1.4 5-1.3z" fill="#d43831"/><path d="m143.4 499.4c-1.2 2.1-3.3 1.3-5 1.4 1.4-1.4 3.2-1.4 5-1.4z" fill="#d43831"/><path d="m32.2 315.8c2.2 1 6.2-1.2 6.3 3.6-2.4-.7-4.5-2-6.3-3.6z" fill="#d43831"/><path d="m37.2 363.3c-1.8-.1-3.8.7-5-1.3 1.8 0 3.6-.2 5 1.3z" fill="#d33831"/><path d="m51 367c-1.8-.1-3.8.8-5-1.4 1.7.1 3.6-.2 5 1.4z" fill="#d33831"/><path d="m21.9 309.7c1.7-.4 3.4.7 3.9 2.3-1.5-.1-3-1-3.9-2.3z" fill="#d43831"/><path d="m39.2 319.7c1.8-.4 3.7.6 4.2 2.5-1.7-.3-3.2-1.2-4.2-2.5z" fill="#d43831"/><path d="m46 365.7c-1.4.1-2.9.4-3.9-1.1 1.4-.1 2.9-.3 3.9 1.1z" fill="#d33831"/><path d="m41.3 364.4c-1.5.1-3.1.5-4.1-1.2 1.5 0 3-.1 4.1 1.2z" fill="#d33831"/><path d="m55.1 368.1c-1.5.1-3.2.6-4.2-1.2 1.5.1 3.1 0 4.2 1.2z" fill="#d33831"/><path d="m25.9 312.1c1-.2 2 .4 2.4 1.4-1 0-1.9-.6-2.4-1.4z" fill="#d43831"/><path d="m28.2 313.4c1.1-.1 2.2.1 2.5 1.4-1 .1-2-.5-2.5-1.4z" fill="#d43831"/><path d="m43.3 322.1c1.3 0 2.3.3 2.5 1.7-.9-.5-1.7-1.1-2.5-1.7z" fill="#d43831"/><path d="m30.6 314.7c.5.4 1 .7 1.5 1.1-.5-.4-1-.7-1.5-1.1z" fill="#d43831"/><path d="m57.1 368.3v1.3l-1.3-1.3c.4-.1.9-.2 1.3 0z" fill="#d33831"/><path d="m54.6 315.8-1.8-.4c1.1-1.1 1.4-.1 1.8.4z" fill="#d53831"/><path d="m27.1 308.3-.6.7-.6-.7c.3-.3.8-.4 1.2 0 0-.1 0 0 0 0z" fill="#d43831"/><path d="m27.1 308.3h-1.3v-1.3z" fill="#d93831"/><path d="m57.1 305.8.6.3-.3.2z" fill="#d53831"/><path d="m62.1 368.3c-.1-1.2.8-2.4 2-2.5h.5c-.4 1.2-1.3 2.1-2.5 2.5z" fill="#d53831"/><path d="m39.6 368.3-1.3-1.3z" fill="#d93831"/><path d="m35.9 365.8-.5-.3z" fill="#d33831"/><path d="m55.9 372.1.3-.5z" fill="#d33831"/><path d="m48.4 369.6.3-.5z" fill="#d33831"/><path d="m329.2 517.3-22.8 3.5-2-10 23.4-3.6z" fill="#ffd900"/><path d="m468.5 432.1h1.3l-.6.7z" fill="#d73831"/><path d="m466 434.6.3-.5.2.2z" fill="#d73831"/><path d="m466 434.6-.3.5-.2-.2z" fill="#d73831"/><path d="m469.7 435.8-.5-.3.2-.2z" fill="#d73831"/><path d="m121.2 92.1 18.5-14.4c1.7-1.3 3.3-1.8 4.8-1.4s3.2 1.7 4.9 3.9l3.1 3.9c1.2 1.6 1.9 3.1 2 4.5s-.4 2.7-1.4 3.8c1.4-.7 2.9-.8 4.4-.3s2.9 1.7 4.3 3.4l3.2 4.1c3.3 4.2 2.8 8-1.4 11.3l-17.1 13.4zm9 1.4 6 7.7 11.4-8.9c.8-.6 1.2-1.2 1.4-1.8.1-.6-.2-1.4-.9-2.3l-2.4-3.1c-.7-1-1.4-1.4-2-1.4s-1.3.3-2.1.9zm10.2 13.1 6.4 8.2 11.4-8.9c.9-.7 1.3-1.3 1.4-2 .1-.6-.3-1.6-1.3-2.8l-1.9-2.4c-.9-1.2-1.7-1.8-2.4-1.9s-1.4.2-2.3.9z" fill="#ffd900"/><path d="m158.4 65.4 5.6-3 15.6 29.4 18.1-9.6 3.6 6.8-23.8 12.6z" fill="#ffd900"/><path d="m210.6 77.6 17.3-5.4-10-31.8 6.1-1.9 9.4 29.9c.6 1.8.9 3.4 1.1 4.7s.1 2.3-.2 3.2c-.3.8-.8 1.5-1.5 2.1-.7.5-1.7 1-2.9 1.4l-16.5 5.2c-1.2.4-2.3.6-3.2.5-.9 0-1.7-.3-2.5-.8s-1.4-1.4-2-2.5-1.2-2.6-1.8-4.4l-9.4-29.9 6.1-1.9z" fill="#ffd900"/><path d="m241.9 34.9 27.8-3.2.8 7-21.5 2.4 1 9.1 12.5-1.4.8 7-12.5 1.4 1.1 10.1 21.7-2.5.9 7.7-28.1 3.2z" fill="#ffd900"/><path d="m303.3 31.8 6.5 1.2 1.9 28.3 12.1-25.8 4.4.8 2.4 28.4 11.4-25.9 5.6 1-17.7 38.5-4.2-.8-2.3-29.3-12.6 26.6-4.3-.8z" fill="#ffd900"/><path d="m358.5 48.9c.7-1.1 1.4-1.9 2.2-2.3.8-.5 1.6-.7 2.5-.6s1.9.3 3.1.8l18.5 7.7c1.2.5 2.1 1 2.8 1.6s1.1 1.3 1.4 2.2c.2.9.2 1.9-.1 3.2s-.8 2.8-1.5 4.6l-8.2 20c-.7 1.8-1.4 3.2-2.1 4.3s-1.4 1.9-2.2 2.3c-.8.5-1.6.7-2.5.6s-1.9-.3-3.1-.8l-18.5-7.7c-1.2-.5-2.1-1-2.8-1.6s-1.1-1.3-1.4-2.2c-.2-.9-.2-1.9.1-3.2s.8-2.8 1.5-4.6l8.2-20c.7-1.8 1.4-3.3 2.1-4.3zm14 36.5 9.9-24.1-19.3-8-9.9 24.1z" fill="#ffd900"/><path d="m406.7 66 5.3 3.5-18.3 27.8 17.1 11.3-4.2 6.4-22.4-14.8z" fill="#ffd900"/><path d="m439.1 89 20.5 18.8-4.9 5.2-15.8-14.5-7.4 7.9 8.5 7.8-5.1 5.5-8.5-7.8-10.6 11.4-4.7-4.3z" fill="#ffd900"/><path d="m360.9 357.3c-4 10.3-5.8 17.4-12.9 24.1s-42.8 32.1-42.8 32.1l-12-4.5v-16.5h-19.3v16.5l-12 4.5s-35.7-25.5-42.8-32.1-8.9-13.8-12.9-24.1-34.8-28.1-34.8-28.1 18.7 39.7 24.5 45.5 87.6 72.6 87.6 72.6 81.9-66.8 87.6-72.6 24.5-45.5 24.5-45.5-30.7 17.8-34.7 28.1z" fill="#0e66b0"/><path d="m415.7 302.5c-2.7-12.9-8.9-31.6-31.6-52.1-4.5-4.5-5.8-16.5-2.2-25.4s8.9-44.6-9.8-83.3c-6.7 8.9-20.5 43.7-41.9 57-10.2-3.6-31.8-7.6-46.6-7.6s-36.4 4-46.6 7.6c-21.4-13.4-35.2-48.1-41.9-57-18.7 38.8-13.4 74.4-9.8 83.4s2.2 20.9-2.2 25.4c-22.7 20.5-29 39.2-31.6 52.1 4.5-5.8 21.8-10.3 29.4-8.5 0 0-6.2 3.6-9.4 8 9.8.5 29.4 7.1 37 9.8 29.4-6.7 46 19.6 46 19.6 1.2-5.1 2.1-10.3 2.5-15.6.9-9.4-3.1-19.6-8.5-19.5-23.2-.8-23.2-23.7-23.2-23.7s7.6-.9 27.2 15.1 4.5 65.1 4.5 69.1 26.6 18.7 26.6 18.7 26.6-14.7 26.6-18.7-15.1-53 4.5-69.1 27.2-15.1 27.2-15.1 0 23-23.2 23.7c-5.4-.1-9.4 10.1-8.5 19.5.5 5.3 1.3 10.5 2.5 15.6 0 0 16.6-26.3 46-19.6 7.6-2.7 27.2-9.4 37-9.8-3.1-4.5-9.4-8-9.4-8 7.5-1.9 24.9 2.6 29.4 8.4z" fill="#0e66b0"/></svg>