<svg viewBox="0 0 566.93 566.93" xmlns="http://www.w3.org/2000/svg"><path d="m283.46 555.76a272.29 272.29 0 0 1 -192.53-464.83 272.29 272.29 0 1 1 385.07 385.07 270.48 270.48 0 0 1 -192.54 79.76z"/><path d="m283.46 14.17c148.73 0 269.3 120.57 269.3 269.29s-120.57 269.3-269.3 269.3-269.29-120.57-269.29-269.3 120.57-269.29 269.29-269.29m0-6a275.21 275.21 0 0 0 -194.66 470 275.36 275.36 0 1 0 194.66-470z" fill="#29abe2"/><circle cx="283.46" cy="283.46" fill="#29abe2" r="205.69" transform="matrix(.70710678 -.70710678 .70710678 .70710678 -117.41 283.46)"/><path d="m283.46 80.78c111.94 0 202.69 90.74 202.69 202.68s-90.75 202.69-202.69 202.69-202.68-90.75-202.68-202.69 90.74-202.68 202.68-202.68m0-6a208 208 0 1 0 81.24 16.4 207.43 207.43 0 0 0 -81.24-16.4z"/><g fill="#fff"><path d="m149.63 92.51c1.38-.34 2.64.24 3.76 1.73l4.23 5.6c1.61 2.13 1.34 4-.79 5.61l-16 12.07-18.1-24 14.43-10.88c2.13-1.61 4-1.35 5.61.78zm-10.45-3.87-8 6.06 3.61 4.79 8-6.06zm8.82 8.44-9.6 7.24 3.6 4.78 9.6-7.24z"/><path d="m170.37 66.51 11 19.11q2 3.48-1.47 5.47l-13.9 8c-2.32 1.34-4.14.84-5.47-1.47l-11-19.11c-1.33-2.31-.84-4.14 1.47-5.47l13.9-8c2.31-1.33 4.1-.84 5.47 1.47zm-6 5.74-8.68 5 8 13.9zm1.48 20 9.26-5.33-8-13.89z"/><path d="m206.67 74.45q1.54 3.69-2.14 5.25l-14.78 6.21-.49-6.32 11.09-4.66-.78-1.85-12.93 5.44c-2.46 1-4.21.32-5.25-2.14l-7-16.63 5.54-2.33 6.22 14.78 11.08-4.66-6.23-14.78 5.56-2.34z"/><path d="m230.52 56.89 2.7 9.65c.72 2.58-.21 4.22-2.78 4.94l-15.44 4.32c-2.57.72-4.22-.2-4.94-2.78l-5.94-21.23q-1.08-3.85 2.78-4.94l19.31-5.4 1.61 5.79-17.37 4.86 4.86 17.37 11.58-3.24-1.62-5.79-7.7 2.16.31-6.33 7.7-2.16c2.58-.72 4.22.21 4.94 2.78z"/><path d="m270.64 41.21-16 1.36.51 6 14-1.19q4-.35 4.33 3.63l.85 10q.35 4-3.65 4.33l-20 1.7-.51-6 18-1.55-.51-6-14 1.19c-2.66.23-4.11-1-4.33-3.63l-.85-10c-.23-2.67 1-4.13 3.65-4.35l20-1.7z"/><path d="m302.82 39.6-.85 22q-.15 4-4.15 3.85l-16-.62c-2.67-.11-4-1.49-3.85-4.16l.85-22c.1-2.67 1.49-4 4.16-3.85l16 .62c2.66.1 3.95 1.48 3.84 4.16zm-18.1 1.3-.69 18 12 .46.7-18z"/><path d="m324.84 68.87-15.84-2.44c-2.65-.41-3.76-1.93-3.36-4.57l4-25.75 5.94.91-3.65 23.77 13.86 2.13z"/><path d="m328.05 69.19 8-29 19.35 5.32c2.58.7 3.51 2.35 2.8 4.92l-5.9 21.27c-.7 2.57-2.34 3.51-4.92 2.8zm23.76-18.39-11.6-3.19-4.77 17.39 11.56 3.17z"/><path d="m370.45 50.67-10.39 28.21-5.64-2.08 10.39-28.21z"/><path d="m373.9 71.38-2.5 5.47 12.75 5.84-2.5 5.46-14.58-6.67q-3.65-1.67-2-5.31l9.17-20.05q1.67-3.65 5.31-2l14.58 6.67-2.5 5.46-12.73-5.8-2.5 5.47 7.29 3.33-4.32 4.63z"/><path d="m407.33 89-2.12 12.78-5.14-3.12 1.93-12.85-6-3.65-6.24 10.28-5.14-3.11 13.51-22.28c1.38-2.29 3.22-2.74 5.5-1.35l13.7 8.3c2.29 1.39 2.74 3.22 1.35 5.51l-5.19 8.56c-1.39 2.29-3.22 2.74-5.51 1.35zm2.06-5.79 3.11-5.14-10.28-6.23-3.12 5.16z"/><path d="m440.15 98.21-12.59-10-3.74 4.79 11 8.71q3.15 2.49.67 5.61l-6.22 7.86c-1.66 2.1-3.53 2.31-5.63.66l-15.72-12.44 3.72-4.7 14.16 11.18 3.73-4.72-11-8.7q-3.15-2.49-.67-5.62l6.22-7.84c1.67-2.1 3.55-2.33 5.64-.67l15.72 12.44z"/><path d="m242.92 292s-16.65 90-133.24 75.1c14.47 7 36.82 13.59 78.46 6.58-7 11.39-14.47 22.35-23.23 26.73 17.97-6.99 81.09-40.16 78.01-108.41z"/><path d="m263.52 282.09s-5.26 77.14-32 114.83c5.26 3.51 11.5 7 11.5 7s48.54-81.52 74.84-124.48c27.14-31.09 81.14-75.8 139.38-92.89-14-5.7-26.73-9.65-26.73-9.65s-104.31 22.36-166.99 105.19z"/><path d="m148.69 238.7c-13.59 12.71-23.23 32.87-18 42.52s11 21.47 11 21.47l10.52-5.26 29.79 42.08-8.76-51.28c7.45-4.38 48.21-14.9 86.78-20.16 39.44-54.35 121.84-89.41 147.26-96.86-162.6-35.5-245 54.79-258.59 67.49zm71-1.31c-16.21 3.5-49.08 13.86-49.08 13.86 25.42-33.91 99.49-59.88 99.49-59.88s-42.52 36.38-50.41 46.02z"/><path d="m84.18 185.54-3.87-2.08 2.45-4.56-15.48-8.33 1.84-3.41 15.48 8.32 2.45-4.56 3.87 2.08z"/><path d="m74.28 200.2-14.74-6.51q-2.68-1.19-1.63-3.55l4.18-9.47q1-2.37 3.73-1.18l14.73 6.51q2.69 1.19 1.64 3.55l-4.19 9.45q-1 2.39-3.72 1.2zm3.37-11.2-12.06-5.33-3.14 7.1 12.06 5.33z"/><path d="m48.34 217.18 3.06-9.88q.76-2.48 3.57-1.61l18.19 5.64-1.16 3.67-16.79-5.21-2.69 8.66z"/><path d="m67.82 229.53-21.28-5.47 1-3.76 21.28 5.47z"/><path d="m48.37 236.38 16.22 7.84-.76 3.78-20.43-9.86 1.06-5.31 22.66-1.29-.76 3.81z"/><path d="m50.17 250.92-4.36-.54-1.11 9-4.36-.54 1.26-10.27q.32-2.56 3.23-2.21l16 2q2.91.36 2.59 2.93l-1.27 10.27-4.37-.56 1.11-9-4.36-.54-.63 5.13-4.21-1.82z"/><path d="m61.24 276.25-22-.77.14-3.88 21.95.77z"/><path d="m56.88 292.67-.19-10.36-4.41.08.17 9.06c0 1.72-.93 2.6-2.87 2.64l-7.32.13c-2 0-2.95-.81-3-2.53l-.26-12.94 4.38-.08.23 11.64 4.39-.08-.16-9.05c0-1.73.92-2.61 2.86-2.64l7.32-.14c2 0 3 .81 3 2.53l.24 12.94z"/><path d="m63.91 318.57-4.35.59-.7-5.12-17.42 2.38-.52-3.85 17.41-2.38-.7-5.13 4.35-.59z"/><path d="m64.55 336.26-15.74 3.42c-1.91.42-3.05-.22-3.42-1.9l-2.19-10.12q-.56-2.54 2.31-3.15l15.75-3.42c1.91-.42 3 .22 3.41 1.91l2.2 10.11q.54 2.54-2.32 3.15zm-3.9-11.07-12.88 2.81 1.65 7.59 12.88-2.8z"/><path d="m57.86 364 1.76 4.84 16.53-6 1.32 3.65-17.89 6.51q-2.76 1-3.64-1.43l-5.75-15.8c-.59-1.63 0-2.77 1.86-3.44l17.95-6.52 1.33 3.64-16.52 6 1.77 4.87 16.52-6 1.28 3.68z"/><path d="m58.34 377.53 17.22-8.18q2.64-1.26 3.75 1.08l4.45 9.35q1.11 2.34-1.54 3.59l-17.22 8.19-1.67-3.51 5.31-2.52-3.33-7-5.31 2.47zm20.89 3-3.33-7-6.61 3.14 3.33 7z"/><path d="m80.45 401.22-6.07 7.08-1.93-3.36 6-7.21-2.28-3.93-7.61 4.39-1.94-3.36 16.5-9.52q2.53-1.47 3.83.78l5.17 9c.86 1.5.45 2.73-1.24 3.71l-6.35 3.66q-2.53 1.47-3.83-.78zm3.4-2.89 3.81-2.2-3.88-6.72-3.78 2.19z"/><path d="m92.9 427.22 3.1 4.08 14-10.71 2.37 3.08-15.12 11.61c-1.55 1.19-2.85 1.11-3.9-.26l-10.26-13.33q-1.57-2.06.75-3.84l15.09-11.61 2.36 3.07-13.93 10.69 3.17 4.12 13.93-10.72 2.37 3.07z"/><path d="m116.34 428-16.48 14.5-2.57-2.91 16.48-14.54z"/><path d="m127.6 439.86-3.14 3.07-3.62-3.7-12.58 12.28-2.71-2.78 12.58-12.28-3.62-3.7 3.15-3.07z"/><path d="m131.83 443.85-5.8 6.59 5.82 5.13 5.81-6.59 2.92 2.56-14.53 16.46-2.91-2.56 5.81-6.6-5.83-5.13-5.81 6.6-2.91-2.57 14.52-16.49z"/><path d="m160.56 466.31-2.5 3.61-4.25-2.92-10 14.43-3.19-2.21 10-14.44-4.25-2.95 2.51-3.61z"/><path d="m166.16 485.14-1.78 9.15-3.35-2 1.66-9.23-3.91-2.3-4.46 7.57-3.35-2 9.67-16.33q1.49-2.52 3.71-1.21l8.92 5.25q2.23 1.32.75 3.84l-3.72 6.31q-1.49 2.54-3.72 1.21zm1.54-4.2 2.23-3.79-6.69-3.93-2.24 3.78z"/><path d="m189.8 485.77-7.06 14.48q-1.29 2.63-3.61 1.5l-9.31-4.54c-1.55-.76-1.89-2-1-3.77l7.03-14.44c.85-1.76 2.06-2.26 3.61-1.5l9.3 4.54c1.55.72 1.9 1.96 1.04 3.73zm-11.11-3.77-5.78 11.85 7 3.4 5.78-11.85z"/><path d="m196.7 509.18-9.61-3.85q-2.4-1-1.31-3.68l7.08-17.65 3.6 1.45-6.54 16.31 8.41 3.37z"/><path d="m212.23 514.44-9.84-3.2q-2.46-.8-1.56-3.59l5.88-18.11 3.69 1.2-5.4 16.72 8.61 2.8z"/><path d="m233.66 501.87-10.07-2.48-1.05 4.28 8.79 2.17q2.52.62 1.82 3.45l-1.75 7.11q-.71 2.85-3.21 2.23l-12.57-3.1 1-4.25 11.38 2.77 1.05-4.27-8.79-2.16c-1.68-.41-2.28-1.56-1.82-3.45l1.75-7.11c.47-1.91 1.54-2.65 3.22-2.24l12.59 3.09z"/><path d="m250.44 500.47-3.29 21.72-3.84-.58 3.29-21.72z"/><path d="m250.39 522.82 1.86-19c.2-1.94 1.15-2.83 2.87-2.66l10.31 1q2.58.26 2.29 3.17l-1.86 19-3.86-.33 1.71-17.51-7.73-.76-1.72 17.51z"/><path d="m292.83 502.84.06 4.39-5.18.07.23 17.58h-3.88l-.23-17.58-5.18.07v-4.39z"/><path d="m298.65 502.52.77 8.76 7.73-.68-.77-8.76 3.87-.34 1.92 21.89-3.86.34-.77-8.75-7.74.68.77 8.75-3.86.34-1.93-21.89z"/><path d="m318.11 513.71.7 4.34 8.94-1.44.7 4.33-10.22 1.65q-2.55.42-3-2.48l-2.57-15.91c-.31-1.92.39-3 2.09-3.3l10.25-1.65.7 4.34-8.99 1.41.7 4.34 5.11-.82-.58 4.54z"/><path d="m339.16 496.14 2.35 8.47 7.48-2.09-2.35-8.46 3.74-1 5.89 21.16-3.74 1-2.36-8.46-7.48 2.08 2.36 8.47-3.74 1-5.89-21.17z"/><path d="m367.82 490 5.53 15.13q1 2.76-1.43 3.64l-9.73 3.55q-2.43.88-3.43-1.86l-5.53-15.14c-.66-1.84-.19-3 1.43-3.64l9.73-3.55q2.43-.92 3.43 1.87zm-10.44 5.36 4.52 12.39 7.3-2.66-4.52-12.39z"/><path d="m389.45 501.24-9.45 4.25q-2.36 1.06-3.56-1.61l-7.81-17.37 3.54-1.59 7.21 16 8.26-3.72z"/><path d="m392.69 499.8-10.44-19.33 11.4-6.16c1.51-.82 2.74-.37 3.67 1.35l7.68 14.18c.93 1.72.63 3-.88 3.81zm1.9-21-6.83 3.69 6.24 11.6 6.83-3.69z"/><path d="m412 468.15-8.71 5.63 2.39 3.7 7.61-4.91q2.17-1.41 3.76 1l4 6.16c1.06 1.64.86 2.92-.59 3.86l-10.87 7-2.45-3.59 9.77-6.33-2.38-3.67-7.61 4.91q-2.18 1.41-3.75-1l-4-6.15c-1.06-1.65-.87-2.95.58-3.88l10.87-7z"/><path d="m433.14 450 10.27 12.42q1.86 2.26-.13 3.91l-8 6.59q-2 1.65-3.86-.61l-10.27-12.42q-1.86-2.25.13-3.9l8-6.6c1.33-1.11 2.62-.9 3.86.61zm-8 8.55 8.4 10.16 6-4.94-8.4-10.17z"/><path d="m444.67 453.33 6.08 6.35-2.81 2.68-13.16-13.76q-2-2.12-.16-3.9l7.48-7.16 3 3.17-6.5 6.29 3 3.17 3.74-3.58 2.11 4.07z"/><path d="m458.68 419 3.37 2.82-3.32 4 13.47 11.18-2.5 3-13.47-11.3-3.32 4-3.37-2.83z"/><path d="m462.23 414.35 7.14 5.12 4.52-6.31-7.14-5.16 2.26-3.16 17.86 12.79-2.26 3.16-7.15-5.12-4.52 6.33 7.15 5.11-2.26 3.16-17.83-12.76z"/><path d="m483.4 406.83 3.75 2.29 4.71-7.73 3.76 2.29-5.39 8.83q-1.35 2.22-3.85.69l-13.76-8.39q-2.5-1.53-1.15-3.73l5.38-8.84 3.76 2.29-4.72 7.73 3.75 2.29 2.7-4.42 3.08 3.39z"/><path d="m483.69 379.44 8 3.69 3.25-7.05-8-3.69 1.62-3.52 19.95 9.21-1.63 3.53-8-3.69-3.22 7.08 8 3.69-1.66 3.49-19.94-9.18z"/><path d="m503.08 368.08 4.11 1.54 3.17-8.49 4.12 1.54-3.63 9.7c-.6 1.61-1.82 2.08-3.65 1.39l-15.09-5.64q-2.75-1-1.84-3.45l3.63-9.7 4.12 1.54-3.18 8.49 4.12 1.54 1.81-4.85 3.67 2.75z"/><path d="m515.74 359.33-18.3-5.33q-2.81-.83-2.09-3.3l2.89-9.94q.72-2.49 3.54-1.67l18.3 5.32-1.08 3.74-5.65-1.64-2.16 7.49 5.64 1.64zm-13.64-16.09-2.17 7.45 7 2.05 2.17-7.46z"/><path d="m515 327 9.23-1.28-.78 3.81-9.26 1.41-.91 4.45 8.6 1.77-.78 3.8-18.65-3.83c-1.91-.39-2.7-1.43-2.35-3.12l2.08-10.14q.53-2.54 3.39-1.95l7.18 1.47q2.87.6 2.35 3.13zm-4.47-.1-4.3-.88-1.56 7.6 4.3.89z"/><path d="m504.82 305.27 4.36.54-.65 5.14 17.47 2.19-.48 3.86-17.44-2.2-.65 5.14-4.36-.55z"/><path d="m527.69 294.88-19.06-.17c-1.95 0-2.92-.9-2.9-2.62l.1-10.35c0-1.73 1-2.58 2.95-2.56l19.06.18v3.88l-5.88-.06-.07 7.77 5.87.05zm-17.48-11.81-.08 7.77 7.33.07.07-7.77z"/><path d="m527.83 275.71-19 1.34c-1.95.14-3-.65-3.11-2.38l-.72-10.33c-.12-1.73.8-2.65 2.75-2.79l19-1.34.27 3.87-17.55 1.25.55 7.74 17.55-1.23z"/><path d="m526.44 256.59-21.72 3.3-2-12.8q-.39-2.57 2.51-3l15.93-2.41c1.93-.29 3 .41 3.29 2.12zm-19.11-8.87 1.16 7.67 13-2-1.16-7.67z"/><path d="m501.05 220.55 16.86-5 1.1 3.72-16.86 5 1.46 5 16.86-5 1.1 3.72-18.27 5.38c-1.87.56-3.05 0-3.54-1.65l-4.76-16.13c-.49-1.65.21-2.76 2.08-3.31l18.27-5.38 1.09 3.73-16.85 5z"/><path d="m492.09 207.67 20.6-7.65 1.35 3.64-20.6 7.65z"/><path d="m511.68 196.88-17.48 7.6q-2.68 1.16-3.72-1.21l-4.13-9.51q-1-2.37 1.66-3.54l17.47-7.59 1.55 3.56-16.13 7 3.09 7.12 16.14-7z"/><path d="m504 179.31-19.4 10.33-6.09-11.43q-1.22-2.28 1.37-3.66l14.23-7.55q2.58-1.36 3.8.91zm-21-2 3.65 6.85 11.64-6.16-3.65-6.85z"/></g></svg>