<svg viewBox="0 0 566.93 566.93" xmlns="http://www.w3.org/2000/svg"><path d="m283.07 16.6c-147.15 0-266.87 119.72-266.87 266.87s119.72 266.86 266.87 266.86 266.87-119.71 266.87-266.86-119.72-266.87-266.87-266.87z" fill="#7c7640"/><circle cx="283.07" cy="283.46" fill="#1d1d1b" r="195.76"/><path d="m283.07 5.43c-153.32 0-278 124.72-278 278s124.72 278 278 278 278-124.72 278-278-124.69-278-278-278zm0 550.38c-150.17 0-272.35-122.18-272.35-272.34s122.18-272.35 272.35-272.35 272.35 122.17 272.35 272.35-122.18 272.34-272.35 272.34z" fill="#022029"/><g fill="#fff"><text font-family="Impact, Impact" font-size="38.44" transform="matrix(.65 .76 -.76 .65 87.34 436.98)">V</text><text font-family="Impact, Impact" font-size="38.44" transform="matrix(.7 .71 -.71 .7 101.98 453.81)">I</text><text font-family="Impact, Impact" font-size="38.44" transform="matrix(.75 .66 -.66 .75 111.24 463.37)">O</text><text font-family="Impact, Impact" font-size="38.44" transform="matrix(.8 .6 -.6 .8 128.91 478.62)">L</text><text font-family="Impact, Impact" font-size="38.44" transform="matrix(.84 .54 -.54 .84 142.43 488.62)">E</text><text font-family="Impact, Impact" font-size="38.44" transform="matrix(.88 .47 -.47 .88 157.93 498.55)">N</text><text font-family="Impact, Impact" font-size="38.44" transform="matrix(.92 .38 -.38 .92 178.68 509.38)">C</text><text font-family="Impact, Impact" font-size="38.44" transform="matrix(.95 .3 -.3 .95 200.69 518.19)">E</text><text font-family="Impact, Impact" font-size="38.44" transform="matrix(.97 .25 -.25 .97 217.77 523.38)"></text><text font-family="Impact, Impact" font-size="38.44" transform="matrix(.98 .21 -.21 .98 225.98 525.5)">I</text><text font-family="Impact, Impact" font-size="38.44" transform="matrix(.99 .14 -.14 .99 238.95 528.32)">S</text><text font-family="Impact, Impact" font-size="38.44" transform="matrix(1 .09 -.08 1 260.73 531.01)"></text><text font-family="Impact, Impact" font-size="38.44" transform="matrix(1 .02 -.02 1 269.35 531.82)">T</text><text font-family="Impact, Impact" font-size="38.44" transform="matrix(1 -.07 .07 1 289.56 532.21)">H</text><text font-family="Impact, Impact" font-size="38.44" transform="matrix(.99 -.15 .15 .99 313.25 530.39)">E</text><text font-family="Impact, Impact" font-size="38.44" transform="matrix(.98 -.21 .21 .98 330.86 527.5)"></text><text font-family="Impact, Impact" font-size="38.44" transform="matrix(.96 -.27 .27 .96 339.51 525.83)">S</text><text font-family="Impact, Impact" font-size="38.44" transform="matrix(.94 -.35 .35 .94 361.12 519.78)">O</text><text font-family="Impact, Impact" font-size="38.44" transform="matrix(.9 -.43 .43 .9 382.91 511.29)">L</text><text font-family="Impact, Impact" font-size="38.44" transform="matrix(.87 -.5 .5 .87 398.28 504.03)">U</text><text font-family="Impact, Impact" font-size="38.44" transform="matrix(.82 -.57 .57 .82 418.54 492.1)">T</text><text font-family="Impact, Impact" font-size="38.44" transform="matrix(.78 -.63 .63 .78 434.64 480.58)">I</text><text font-family="Impact, Impact" font-size="38.44" transform="matrix(.73 -.68 .68 .73 445.08 472.3)">O</text><text font-family="Impact, Impact" font-size="38.44" transform="matrix(.66 -.75 .75 .66 462.25 456.09)">N</text><text font-family="Impact, Impact" font-size="50" transform="matrix(0 -1 1 0 68.46 296.1)">B</text><text font-family="Impact, Impact" font-size="50" transform="matrix(.13173737 -.99128465 .99128465 .13173737 68.62 268.33)">R</text><text font-family="Impact, Impact" font-size="50" transform="matrix(.25223825 -.96766516 .96766516 .25223825 72.25 241.48)">A</text><text font-family="Impact, Impact" font-size="50" transform="matrix(.39 -.92 .92 .39 77.8 217.62)">W</text><text font-family="Impact, Impact" font-size="50" transform="matrix(.51877326 -.85491187 .85491187 .51877326 94.57 180.5)">L</text><text font-family="Impact, Impact" font-size="50" transform="matrix(.59650507 -.8026093 .8026093 .59650507 104.63 163.88)">E</text><text font-family="Impact, Impact" font-size="50" transform="matrix(.68161533 -.73171069 .73171069 .68161533 117.07 146.87)">R</text><text font-family="Impact, Impact" font-size="50" transform="matrix(.76671715 -.64198506 .64198506 .76671715 135.56 127.08)">S</text><text font-family="Impact, Impact" font-size="50" transform="matrix(.82 -.58 .58 .82 156.02 110.45)">,</text><text font-family="Impact, Impact" font-size="50" transform="matrix(.84 -.54 .54 .84 163.6 105.12)"></text><text font-family="Impact, Impact" font-size="50" transform="matrix(.89 -.45 .45 .89 170.93 99.6)">M</text><text font-family="Impact, Impact" font-size="50" transform="matrix(.94557538 -.32540313 .32540313 .94557538 203.27 83.98)">E</text><text font-family="Impact, Impact" font-size="50" transform="matrix(.97603085 -.21763222 .21763222 .97603085 223.12 76.99)">R</text><text font-family="Impact, Impact" font-size="50" transform="matrix(.9957247 -.09237059 .09237059 .9957247 249.54 71.08)">C</text><text font-family="Impact, Impact" font-size="50" transform="matrix(.99978068 .02094242 -.02094242 .99978068 277.38 68.71)">E</text><text font-family="Impact, Impact" font-size="50" transform="matrix(.99112297 .13294836 -.13294836 .99112297 298.41 68.99)">N</text><text font-family="Impact, Impact" font-size="50" transform="matrix(.96722345 .25392676 -.25392676 .96722345 325.43 72.68)">A</text><text font-family="Impact, Impact" font-size="50" transform="matrix(.9286154 .37104371 -.37104371 .9286154 350.15 79.13)">R</text><text font-family="Impact, Impact" font-size="50" transform="matrix(.87781583 .4789983 -.4789983 .87781583 375.29 89.29)">Y</text><text font-family="Impact, Impact" font-size="50" transform="matrix(.84 .55 -.55 .84 396.39 101.16)"></text><text font-family="Impact, Impact" font-size="50" transform="matrix(.8 .6 -.6 .8 404.43 106.18)">E</text><text font-family="Impact, Impact" font-size="50" transform="matrix(.72489363 .68886081 -.68886081 .72489363 421.27 118.75)">N</text><text font-family="Impact, Impact" font-size="50" transform="matrix(.64 .76 -.76 .64 440.96 137.75)">F</text><text font-family="Impact, Impact" font-size="50" transform="matrix(.55484443 .83195412 -.83195412 .55484443 454.09 153.03)">O</text><text font-family="Impact, Impact" font-size="50" transform="matrix(.44432249 .89586691 -.89586691 .44432249 469.32 175.9)">R</text><text font-family="Impact, Impact" font-size="50" transform="matrix(.32639315 .9452341 -.9452341 .32639315 481.35 200.14)">C</text><text font-family="Impact, Impact" font-size="50" transform="matrix(.21712114 .97614467 -.97614467 .21712114 490.27 226.62)">E</text><text font-family="Impact, Impact" font-size="50" transform="matrix(.10695822 .99426352 -.99426352 .10695822 494.99 247.14)">R</text><text font-family="Impact, Impact" font-size="50" transform="matrix(-.01570732 .99987663 -.99987663 -.01570732 497.85 274.07)">S</text><path d="m252.7 354.92c-1.4-.06-3-.56-4.16-.1-3.42 1.3-5 .44-4.59-3.47-2.32 1.26.78 4.72-2.19 4.81-1.83 0-3.75.12-5.57.11-.8-1.38.11-3.08-1.07-4.47-1.68.89-.33 2.64-1.2 3.77a9.45 9.45 0 0 0 -6.34.55c-.42-2.38-.84-4.72-1.26-7.05 1.81 7.31-4.46 5.44-8.13 7.05v-8.92c-1.86 3.09-1.14 5.61-1.76 8.1-2.21-1-3.21-4.84-6.77-3-.91.48-.68-1-.78-1.63a12.66 12.66 0 0 0 -1.2-4.59c-.17 2.79-.34 5.57-.56 9.13-2.63-2.7-4.84-2.41-7 .49l-1.49-6.63c-1.76 1.32-.87 2.76-1.09 4.64-1.25-2.86-5.41.15-5.73-3.85a37.76 37.76 0 0 0 -1.09-7.58c-.19 2.81-.4 5.61-.53 8.41-.06 1.25-.19 2-1.81 2.27-1.9.27-1.85-1-1.94-2-.88-8.79-.72-17.63 1.74-26.07 1-3.29-1.17-6.45.85-9.51 1.26-1.92.77-5.54 3.31-5.93 2.3-.37 3.15 2.88 4.58 4.58 2.69 3.23 5.33 6.54 9 8.7 2 1.2 4.41 2.56 4.61-1.69a2.67 2.67 0 0 1 1.57-2.47c4-1.48 3.52-4.69 2.67-7.61-3.62-12.29-10.65-22.15-21.58-29-5-3.11-5.41-2.78-6.68 2.82-2.06 9.13-3.53 18.41-7.32 27.1-1.31 3 .83 5.53 2.78 7.38s2.51 3.54 1.51 6.05a20.42 20.42 0 0 0 -.72 4.56c-1.08.4-1.75-.59-2.6-.94-8.34-3.38-9.7-6.06-7.6-15.07a54 54 0 0 1 4-11.87c.8-1.63 1.21-2.93-1.4-2.72a1.5 1.5 0 0 1 -1.69-1.23c-.12-.89.86-1.06 1.56-1.32 4.61-1.73 6.86-4.93 7.44-10a60.35 60.35 0 0 1 5.17-19c3.08-6.47 6.76-7 11.53-1.69 3.6 4 5.69 9 8.79 13.36.63.88 1 2.41 2.35 2.15 1.57-.29 1.07-1.89 1-2.88-.17-4.39 2.17-7.08 6.09-9.4-.68 3-1.24 5.51-1.87 8-2.31 9.23 1.28 14.42 10.67 15.68a136.38 136.38 0 0 0 33.11.71c9.31-1 14.16-5.54 15.34-14.9a35.91 35.91 0 0 0  .2-8.36c-.29-2.77-1.37-5.29-2.2-8.49 10.89 6.39 19.44 14.67 28.46 23.14-12.88 4.7-15 16.43-18.66 27.1a24.64 24.64 0 0 0 -1 3.68c-1 5.59-4.48 8-9.85 9.54-11.6 3.34-23.12 4.61-34.94 1.81a37.38 37.38 0 0 1 -5.07-1.62c-7-2.74-7.87-4.09-8-11.52a8.56 8.56 0 0 0 -.44-2.61c-.75 2.76-.32 5.64-1.09 8.41-.48 1.75 1.4 2.57 2.54 3.46 7.82 6 16.94 7.75 26.51 7.89h9a27.66 27.66 0 0 0 -6.8 15.18c-.97 2.89-.84 5.72-.61 8.56z"/><path d="m356.54 329.23c0 3.2-.14 6.12 0 9 .21 3.61 1 7.19 3.78 9.7a4.18 4.18 0 0 1 1.21 5.07c-1.25 3.6-2.58 7.17-3.94 10.73-1.6 4.19-1.39 8 2.26 11.08 2 1.7 2.4 3.54 1.44 6.07a72.13 72.13 0 0 0 -3 10.21c-.71 3.31-1 6.77 3.41 8 1.87.54.91 1.86.72 2.78-.72 3.61-1.57 7.2-2.44 10.78a11 11 0 0 0 -.1 6c1.79 5.48-.74 9.32-4.57 12.66-4.76 4.14-10.44 6.77-16.06 9.44a244.89 244.89 0 0 1 -25.71 10.45c-1.17.41-2.28 1.15-4 .44a76.81 76.81 0 0 0 7-17.14c.63-2.24 2.31-1.62 3.69-1.66 8.06-.26 15.93-1.5 23.38-4.72a17.6 17.6 0 0 0 7.15-4.91 3.17 3.17 0 0 0  .4-3.89c-1-1.34-2 .17-2.85.61-8.56 4.71-17.61 4.07-26.77 2.7-1.56-.23-1.81-1-1.44-2.36a38.88 38.88 0 0 0 1.67-7.81c.17-3.74 1.89-4.76 5.41-5a64.77 64.77 0 0 0 20.55-5.33 5.58 5.58 0 0 0 2.11-1.5 2.71 2.71 0 0 0  .63-2.07c-.29-1-1.28-.44-2-.32-5.26.9-10.53 2.07-15.89 1.56-9.94-.94-9.43-1.26-6.09-9.48 1-2.47 2.35-4.87 2.9-7.43.81-3.76 3-4.64 6.48-4.57 4.31.08 8.64-.31 13-.61a9.58 9.58 0 0 0 3.26-.88 2.7 2.7 0 0 0 1.44-2.9c-.22-1.58-1.62-.83-2.46-.77a36.25 36.25 0 0 1 -14.54-2.42c-1.83-.63-2.93-1.42-2.94-3.7a83.23 83.23 0 0 0 -.87-11c-.37-2.64.61-3.21 3.05-3.15 5.46.14 10.94.28 16.32-1a6.92 6.92 0 0 0 2.45-.9 2.93 2.93 0 0 0 1.05-3.08c-.36-1.57-1.72-.82-2.52-.7a30 30 0 0 1 -17.5-2.1c-3.05-1.4-4.54-3.27-4.5-7 .1-7.23-.19-7.24 7-7.11 6.13.2 12.21.2 18.43-1.77z"/><path d="m253.61 394.75c-3 5.18-6 10.33-10 14.84a8.68 8.68 0 0 1 -3.88 2.94c-14.09 4.32-28.56 5.92-43.23 6.08-2.45 0-3.47-.81-2.81-3.34 1-4 2.12-8.09 2.9-12.18.34-1.76 1.24-1.5 2.4-1.42 7.16.49 14.07-.93 20.93-2.92-5.8-.33-11.61.27-17.41-.23-3.61-.31-5.74-1.1-4.82-5.36.36-1.68-.17-3.54-.18-5.32 0-.85-1.06-2.15.71-2.4 1.25-.17 1.2 1 1.5 1.77a3.38 3.38 0 0 0  .63 1.05c-.95-3.9 4.33-2.67 4.11-6.64.83 2.07 1.29 3.2 1.75 4.33 1.08 0-.11-2.28 2-1.62 2.38.74 5.43 0 5.64 4.12.27-2.46.58-4.83 3.34-4.88 2.38 0 1.21 3.12 2.94 4 1.11-1.59-.81-3-.27-4.56 4.36-1.77 5.2 1.42 6.21 5.13 1.18-2.37-.93-5.88 3-5.81 3 .05 1.27 3.59 3.29 4.35 1.1-1.12-1-3.7 2-4.06 3.36-.41 1.73 3.11 3.39 4 .78-1.16-.53-3.29 2.56-3.51 3.94-.29 3.27 2.51 4.4 5.24.11-3.11 1.69-3.46 3.64-4.48 7.18-3.75 15.21-3.61 22.64-6a59.08 59.08 0 0 0 20.37-11.64c1.62-1.4 3.33-2.71 5.52-4.49-.67 4.26-2.58 7.31-4.55 10.29a42.63 42.63 0 0 1 -10 10.36 26 26 0 0 0 -3.47 3c-2.85 3.09-2 5.55 2.11 6.43a30.58 30.58 0 0 0 9.5.11c2.27-.21 4.57-.29 6.86-.37a7.86 7.86 0 0 1 3.09.48 515.76 515.76 0 0 1 -52.37 18.11v.11c-1.15-1.62.61-2.43 1.12-3.48 1.79-3.68 4.07-7.13 5-11.18.58-.35.92-1 .47-1.44-.64-.75-.78.13-1.03.59z"/><path d="m312.81 368.73c.35-5.29 3.81-8.56 6.33-12.31 2.73-4.05 2.75-4.14-1.37-6.58-2.38-1.41-2.74-3.94-3-6.26-.81-6.31.36-12.72-.81-19a1.24 1.24 0 0 1  .83-1.52c4-1.27 6.74-4.42 9.88-7 1.07-.87 2.26-1.38 3.5-.65 1.48.87.35 2.23 0 3-4.37 9.73-1.35 19.77-1.43 29.67-.07 9.55-.41 19-3.13 28.29-2 6.94-7.36 11.21-13.68 11.63-5.43.36-11.07.44-16.62.46-4 0-8.06 1.14-12.3-.05.39-1.9 2-2.59 3.22-3.45 11-7.75 16.57-18.85 18.38-31.69 1.16-8.23-2.83-15.58-6.94-22.53-1.78-3-1.29-5.27 2-8.74 2.2-2.32 4.13-1.89 7-.83 6.3 2.29 6.58 7.18 6.63 12.4a102.86 102.86 0 0 1 -2.95 23.77c-1.05 4.66.29 8.22 4.46 11.39z"/><path d="m308.65 435.19c.51 5.64 1 5.93-6.89 5-6.16-.69-12-3-17.92-4.9-2-.66-2.11-1.6-1.91-3.36a21.69 21.69 0 0 0  .05-6.82c-.59-2.79.82-2.38 2.42-2 7.19 1.54 14.31 3.51 21.73 3.7a1.87 1.87 0 0 1 2.13 2c .09 1.82.21 3.6.39 6.38z"/><path d="m254 348c1.27-5.1 3.16-9.91 7-13.66 2.67-2.6 5.69-4.62 10.37-4.66-5.69 4.57-8.23 10.07-8 16.82a20.61 20.61 0 0 0 2.74 9.77c.82 1.41 1.78 3.1.67 4.63s-3.29.83-5 .92c-2.35.13-1.62-2-1.83-3.06-.8-4-3.65-4-6.71-3.8q.36-3.53.76-6.96z"/><path d="m280.91 441.44c-.38-2.86.33-3.73 3.53-2.66 7.27 2.44 14.51 5.3 22.44 4.8.36 0 1 0 1.06.16.94 2.4-.45 4.61-.65 6.93a1.87 1.87 0 0 1 -2.28 1.88c-6.55-.57-13.14-.87-19.21-3.81-3-1.46-5.45-3.35-4.89-7.3z"/><path d="m339.88 313.53c6.48.34 12.38 1.72 16.36 7.39.68 1 1.3 1.93.89 3.14-.51 1.51-1.91 1-2.92 1.05-7.53.32-14.21-3.21-21.34-4.75-1.07-.24-.94-1.1-.7-1.81.63-1.85.76-4.17 3.25-4.65a38 38 0 0 1 4.46-.37z"/><path d="m286.08 420.25a126.05 126.05 0 0 1 15.56-7c2.12-.76 3.31-.47 4 2.14 2.49 8.92 2.61 8.9-6.39 7.58-2.12-.32-4.23-.76-6.33-1.18s-4.1-.94-6.84-1.54z"/><path d="m192.07 361.11a18.62 18.62 0 0 1  .76-5.25c.23-.66-.06-1.65 1-1.7a2.17 2.17 0 0 1 2 1.49c1.23 2.62 2.57 5.2 3.56 7.91.41 1.14 1.65 3.44-.88 3.47-2 0-5 1.49-6.06-1.79a19.35 19.35 0 0 1 -.38-4.13z"/><path d="m217.44 364.39c0 1.31-.29 2.1-1.26 1.69-1.73-.72-4.2-.23-4.93-2.69s-3.54-4.93-1.08-8c .65-.8 1.19-1.76 2.36-.62 2.84 2.77 3.97 6.36 4.91 9.62z"/><path d="m245.51 361c-.46-2.78 1.16-4.09 3.82-4.14 4.68-.08 3.08 4 3.91 6.37.58 1.68-.59 2-2.12 2-5.28.02-5.46-.04-5.61-4.23z"/><path d="m205.36 366.4c-1-.44-3 1-3.17-1.31-.23-3-2.3-6.16.59-9 1-.94 1.63-.29 2.13.47a61.44 61.44 0 0 1 3.32 5.48c1.88 3.66 1.44 4.28-2.87 4.36z"/><path d="m223.1 365.9a5.1 5.1 0 0 1 -4.53-5.69 3.93 3.93 0 0 1 4.62-3.1c3.58.84 2.17 4.39 2.62 6.83.49 2.68-1.72 1.73-2.71 1.96z"/><path d="m240.5 366.09c-4.85.86-3.63-2.82-4.13-5.06s1.1-2.84 2.86-3c2.25-.14 4.16 3.05 4.2 6.51.04 3.01-2.21.99-2.93 1.55z"/><path d="m234.73 365.25c-2.19-.92-5.54 2.7-6.51-1.47-.53-2.3-1.67-6.09 2.41-6.18 4.98-.1 2.52 5 4.1 7.65z"/><path d="m190.64 367.15c-4.85-.75-4-4.14-3.66-6.81.22-1.85-.31-5.3 2.29-5.06s.47 3.1.61 4.76a39.57 39.57 0 0 0  .76 7.11z"/><path d="m210.71 379.3c-.11.95.77 2.62-.88 3s-1.83-1.4-2.4-2.45a11.06 11.06 0 0 1 -1.25-2.74c-.24-1.07-2-2.64.67-3.14 1.82-.34 3.31-.12 3.6 2.1.13 1.01.17 2.03.26 3.23z"/><path d="m231.34 376.67c-.42-2.06.27-2.21 1.73-2.37 3.11-.33 3.08 1.7 3.39 3.71.37 2.35-1.57 2.64-2.84 2.58-2.81-.14-1.87-2.77-2.28-3.92z"/><path d="m203.27 377.51c-.62 2 .07 5.14-2 5.28s-1.47-3.06-2-4.76c-.34-1-.95-2.63.51-3.4a3.39 3.39 0 0 1 2.58 0c1.39.54.45 2.01.91 2.88z"/><path d="m216.73 376.89c-.27 1.91 0 4.82-1.83 4.88-2.16.08-1.64-2.92-2-4.58s-1.47-4.39 2.3-3.79c2.48.39 1.05 2.38 1.53 3.49z"/><path d="m240.57 375.31c2.39-.5 2.85.49 2.87 2.44s-.8 3.41-2.7 3.36c-2.93-.08-1.87-2.9-2.32-4.46-.71-2.43 1.58-1.03 2.15-1.34z"/><path d="m245.64 377.18c.21-.83-.65-2.09 1.15-2.09 2.63 0 3.69 1.31 3.83 3.83a2.71 2.71 0 0 1 -3 3.06c-2.39-.48-1.62-3.05-1.98-4.8z"/><path d="m223.22 378.56c.39 1.66-.62 2.21-1.62 2.11-2.93-.29-2.13-2.9-2.58-4.66s.72-1.69 1.95-1.69c3.76-.01.95 3.3 2.25 4.24z"/><path d="m225.05 377c .36-1.29-.56-2.93 1.77-2.81 2.53.12 2.1 2 2.42 3.46.39 1.78-.61 3-2.1 2.92-2.48-.08-1.37-2.52-2.09-3.57z"/><path d="m258.43 363.18c.27 1.71-.15 2.68-1.23 2.22-3.26-1.38-1.39-4.75-2.47-7-.51-1.09.23-1.5 1-1.23 3.4 1.13 1.5 4.58 2.7 6.01z"/><path d="m196.45 383.81c-1.16-2.19-2.09-3.95-3-5.7-.54-1-.85-2 .6-2.36 1-.26 2.51-.76 2.69 1 .18 2.12 1.45 4.32-.29 7.06z"/><path d="m254 348q-.39 3.48-.76 7l-.26.1-.26-.09c-.23-2.84-.36-5.67.65-8.42z"/><path d="m248.07 410.06a1.36 1.36 0 0 1 -.35 0s0-.14-.05-.22l.43.33z"/><path d="m137.52 240.8-1-.08c.12-.25.24-.5.35-.75z"/><path d="m253.61 394.75c.25-.46.4-1.34 1.11-.68.45.42.11 1.09-.47 1.44z"/><path d="m185.66 239.81c4.72-7 9.51-13.54 14.46-20a36.74 36.74 0 0 1 11.65-9.54 183.69 183.69 0 0 1 33.35-14.27c10-3.25 20.14-6 30.41-8.25 2.24-.49 4.44-1.16 6.85-1.8-2.72-.43-5.24.09-7.75.22s-5.24.72-7.86 1a116.93 116.93 0 0 0 -14.52 2.9 194.93 194.93 0 0 0 -36 13.42c-4.78 2.29-9.45 4.76-14.11 7.27a15.59 15.59 0 0 0 -4.62 4.49c-5.34 6.77-10.15 13.92-14.86 21.14-4.12 6.35-8.17 12.75-12.44 19-3.55 5.2-7.31 10.25-11.33 15.12a127 127 0 0 1 -10.39 11.12c-.94.89-2 1.69-2.9 2.61a38.31 38.31 0 0 0 7.55-4.76 115 115 0 0 0 13.48-12.06 10.87 10.87 0 0 0 1.42-1.69c1.27-2 3.37-1.92 5.3-2.25 2.09-.36 4.2-.63 6.47-1-.74 1.64-2.2 2.3-3.24 3.35a126.39 126.39 0 0 1 -20.84 17.21 41.91 41.91 0 0 1 -16.4 6.74 19.46 19.46 0 0 1 -9.22-.54c-3.5-1.15-5.18-4-6.3-7.17a43.86 43.86 0 0 1 -1.82-10.07 67.09 67.09 0 0 1  .12-10.8 69 69 0 0 1 4.67-20.6 140.91 140.91 0 0 1 15.21-28.54c3-4.46 6.3-8.73 9.62-13 2.41-3.06 5.11-5.89 7.65-8.85a180.17 180.17 0 0 1 12.8-13.21 184.54 184.54 0 0 1 17.72-14.83 252.81 252.81 0 0 1 21.15-14c5.5-3.27 11.15-6.28 16.85-9.18q16.11-8.22 33-14.78c7.41-2.9 14.93-5.52 22.58-7.69a57.86 57.86 0 0 1 10.74-1.94c6.52-.58 12.84.36 19.17 1.71a101.56 101.56 0 0 1 20.72 7.15 148.83 148.83 0 0 1 24.28 14.13 153.11 153.11 0 0 1 23.17 20.25 36.35 36.35 0 0 1 6.08 10.39 50.9 50.9 0 0 1 3.34 12.1 31.84 31.84 0 0 1 -2.22 17.39c-2.82 6.73-7.08 12.6-10.95 18.71a88.05 88.05 0 0 0 -10.14 21.27c-.23.78-.4 1-1.34.81-4.23-.69-8.5-1.12-12.74-1.75-5.3-.79-10.64-1.19-16-1.68-5-.46-10-.84-15-1.12-3.82-.22-7.65-.37-11.47-.56-11.95-.59-23.91-.61-35.87-.46-4.26.05-8.53.09-12.78.26s-8.68.37-13 .54q-6.84.28-13.67.83c-4.71.38-9.44.71-14.15 1.13-5 .46-10 .89-15 1.6-3.57.51-7.19.71-10.78 1.17-2.93.36-5.83.9-8.74 1.35a9.12 9.12 0 0 1 -1.36.01z"/><path d="m174.44 257.67c3.05-3.94 5.48-7.92 8.08-11.78.66-1 1.94-.56 2.92-.75 2.86-.55 5.74-1 8.62-1.37 2.49-.34 5-.58 7.48-.9 2.71-.34 5.42-.72 8.14-1.06 1.86-.23 3.72-.45 5.59-.59 3.89-.29 7.76-.68 11.64-1.09 2.88-.31 5.78-.39 8.67-.59 5-.36 10.1-.76 15.15-1.08 2.45-.16 4.91-.2 7.35-.24 4.5-.06 9-.38 13.48-.36 7.85 0 15.7.07 23.55 0 5 0 9.9.28 14.85.36q6.23.1 12.46.52t12.68.83c4.35.28 8.69.71 13 1.1 3.88.35 7.77.65 11.64 1.14a31.14 31.14 0 0 1 5.51.79c2.79.89 4.36 3.71 3.88 7.12a5.59 5.59 0 0 1 -5.52 4.89c-3.08 0-6-.91-9-1.29-2.84-.36-5.67-.87-8.51-1.24-3.8-.5-7.62-1-11.43-1.36-2.47-.27-4.95-.42-7.43-.6-5.28-.37-10.55-.71-15.83-1.07-.19 0-.37 0-.56 0-4.39-.1-8.79-.21-13.19-.29-6.76-.12-13.53-.53-20.29-.18-3.8.2-7.6.09-11.39.19-5.41.14-10.82.32-16.22.57-4.42.2-8.84.42-13.25.84-4.88.46-9.78.82-14.67 1.28-3.31.32-6.63.61-9.94 1-3.49.36-7 .71-10.46 1.29-2.38.4-4.8.58-7.2.91q-5.13.7-10.26 1.5c-3.06.39-6.15.94-9.54 1.51z"/><path d="m489.95 362.12 11.83-15.91 5.43 19.06 18.79 6.33-16.45 11.06-.22 19.83-15.6-12.23-18.92 5.92 6.81-18.62-11.48-16.17z"/><path d="m76.61 362.12-11.82-15.91-5.44 19.06-18.79 6.33 16.46 11.06.21 19.83 15.61-12.23 18.92 5.92-6.81-18.62 11.48-16.17z"/></g><path d="m347.9 170.24h-1.16c-3.89 0-7.78 0-11.66 0a .85.85 0 0 0 -1 .84 4.15 4.15 0 0 0 0 .61q0 8.67 0 17.34a6.48 6.48 0 0 0  .46 2.86 3.36 3.36 0 0 1  .41 1.44 1.25 1.25 0 0 0  .32 1 2.31 2.31 0 0 1  .71 1.23 1.36 1.36 0 0 0  .28.46 16.26 16.26 0 0 1 1.24 1.53 5.18 5.18 0 0 0 2.52 2.26c.11 0 .19.15.29.22a8.14 8.14 0 0 0 2.66 1.31c1.16.3 2.34.62 3.53.83a6.41 6.41 0 0 0 3.43-.16 14.51 14.51 0 0 1 2.64-.58c.89-.17 1.61-.87 2.51-1.14.07 0 .11-.16.15-.25s.11-.25.24-.26a3.61 3.61 0 0 0 1.66-.93 19.31 19.31 0 0 0 1.64-1.62 2.73 2.73 0 0 0 1-1.85.39.39 0 0 1  .22-.28c.47-.21.54-.63.59-1.05a1.12 1.12 0 0 1  .53-1 .64.64 0 0 0  .27-.58c0-.65.08-1.3.12-1.95.09-1.57.41-3.12.38-4.72-.07-3.8 0-7.61 0-11.41a13 13 0 0 1  .09-2.49c.1-.49.16-1-.38-1.35a1.72 1.72 0 0 0 -1-.29z" fill="#1d1d1b"/></svg>