<svg enable-background="new 0 0 113.4 113.4" viewBox="0 0 113.4 113.4" xmlns="http://www.w3.org/2000/svg"><circle cx="56.7" cy="56.7" fill="#e10d15" r="56.7"/><circle cx="56.7" cy="56.7" fill="#0c0401" r="55.3"/><circle cx="56.7" cy="56.7" fill="#e10d15" r="37.8"/><g fill="#fff"><path d="m14.3 63.9.7-.1.8 3.8-.7.1-.3-1.6-6.3 1.4-.2-.7 6.3-1.4z"/><path d="m16 68.1.5 1.4c.3.8.4 1.3.4 1.6 0 .4 0 .8-.3 1.2-.2.4-.6.6-1 .8-.4.1-.7.1-1.1.1-.3-.1-.6-.3-.9-.5-.3-.3-.5-.7-.7-1.3l-2.3 3.5-.3-1 2.3-3.5-.1-.4-3.2 1.1-.2-.7zm-.5.9-2.3.8.4 1.2c.2.5.3.8.5 1s .4.3.6.4.5 0 .7 0c .2-.1.4-.2.6-.4.1-.2.2-.4.2-.6s-.1-.6-.2-1z"/><path d="m19.4 76.2c.5 1 .6 1.9.3 2.9s-.9 1.7-1.9 2.2c-.9.5-1.9.6-2.8.3-1-.3-1.7-.9-2.2-1.9-.5-.9-.6-1.9-.3-2.9s.9-1.7 1.8-2.2c.6-.3 1.3-.5 1.9-.4s1.3.2 1.9.6c.5.3 1 .8 1.3 1.4zm-.6.3c-.2-.5-.6-.9-1.1-1.1-.5-.3-1-.4-1.5-.5-.5 0-1.1.1-1.6.4-.8.4-1.3 1-1.5 1.8s-.2 1.6.2 2.3c.3.5.6.9 1.1 1.2s1 .5 1.5.5 1.1-.1 1.6-.4.9-.6 1.2-1.1.4-1 .5-1.5c0-.6-.2-1.1-.4-1.6z"/><path d="m21.5 80.2.4.6-3.5 2.6c-.4.3-.7.5-.8.6-.2.2-.3.4-.4.6s-.1.5 0 .8.2.5.3.8c.1.2.3.3.5.5.2.1.4.2.7.2.2 0 .5 0 .7-.1s.5-.3.9-.6l3.5-2.6.4.6-3.5 2.6c-.5.4-1 .6-1.4.8-.4.1-.8.1-1.3 0s-.9-.4-1.2-.8c-.3-.5-.5-.9-.6-1.4 0-.5.1-.9.4-1.3.2-.2.5-.6 1.1-1z"/><path d="m25.2 84.9 1 1c .6.6.9 1 1.1 1.3.2.4.3.7.3 1.2s-.2.8-.6 1.1c-.3.3-.7.5-1.1.6-.4 0-.8-.1-1.2-.3-.3-.2-.7-.6-1.4-1.2l-.4-.4-2.4 2.3-.5-.5zm0 1-1.7 1.7.8.9c.3.3.6.6.9.7s.5.1.7.1.4-.2.6-.3c.2-.2.3-.4.3-.6.1-.2 0-.5-.1-.7s-.3-.5-.6-.8z"/><path d="m29 88.7 3.2 2.6-.4.6-2.7-2.1-1.4 1.8 2.6 2.1-.4.5-2.6-2.1-1.8 2.2 2.6 2.1-.4.6-3.2-2.5z"/><path d="m29.1 96.2h.7c-.1.9.2 1.5.6 1.8.2.1.4.2.7.2.2 0 .5 0 .6-.1.2-.1.3-.2.5-.4.1-.2.2-.4.2-.7 0-.4-.2-.9-.4-1.6-.3-.7-.4-1.2-.4-1.4 0-.4.1-.8.3-1.1s.4-.5.6-.6.5-.2.9-.2c.3 0 .6.1.9.3s.5.4.7.7.3.7.3 1.3l-.7.1c0-.4-.1-.8-.2-1s-.2-.4-.4-.5c-.2-.2-.5-.2-.7-.2-.3.1-.4.2-.6.4-.1.1-.1.3-.2.4v.6c0 .1.2.5.4 1.1.3.7.4 1.3.4 1.7s-.1.8-.3 1.1c-.3.4-.7.7-1.2.8s-1 0-1.5-.3c-.4-.2-.6-.5-.8-.9s-.5-.9-.4-1.5z"/><path d="m35.8 101.7 3.4-6.4h.1l.7 6.5 4.7-4.5h.1l-1.5 7.1-.7-.2 1.1-5.1-4.2 3.9-.2-.1-.6-5.7-2.4 4.6z"/><path d="m46.7 97.8 4 .8-.1.7-3.3-.7-.4 2.2 3.3.7-.1.7-3.3-.7-.5 2.8 3.3.7-.1.7-4-.8zm2.8-1.6 1 .2-1.7 1.2-.7-.1z"/><path d="m50.7 99.3.1-.7 3.9.4-.1.7-1.6-.1-.6 6.5-.7-.1.6-6.5z"/><path d="m55.2 99h1.4c.8 0 1.3 0 1.6.1.4.1.8.3 1 .6.3.3.4.7.4 1.2 0 .4-.1.7-.3 1s-.4.5-.8.7c-.3.2-.8.2-1.4.3l2.6 3.3h-.9l-2.6-3.3h-.4v3.3h-.7zm.7.7v2.4h1.2c.5 0 .8-.1 1.1-.2.2-.1.4-.2.5-.4s.2-.4.2-.7c0-.2-.1-.5-.2-.7s-.3-.3-.5-.4-.6-.1-1.1-.1z"/><path d="m63.9 98.1c1.1-.2 2 0 2.9.6.8.6 1.4 1.4 1.5 2.4.2 1 0 2-.6 2.8s-1.4 1.4-2.4 1.5c-1 .2-2 0-2.8-.6s-1.4-1.4-1.5-2.4c-.1-.7-.1-1.3.2-2 .2-.6.6-1.2 1.1-1.6s1-.6 1.6-.7zm.2.7c-.5.1-1 .3-1.4.7s-.7.8-.9 1.3-.2 1-.1 1.6c.1.8.6 1.5 1.2 2 .7.5 1.4.6 2.3.5.5-.1 1-.3 1.5-.7.4-.3.7-.8.9-1.3s.2-1 .1-1.6-.3-1-.7-1.5c-.3-.4-.8-.7-1.3-.9-.6-.1-1.1-.2-1.6-.1z"/><path d="m68.5 97.3 1.4-.5c.8-.3 1.3-.4 1.6-.4.4 0 .8 0 1.2.3.3.2.6.5.8 1s .2.9 0 1.2c-.1.4-.4.7-.8.9-.3.2-.8.4-1.7.7l-.5.2 1.1 3.2-.7.2zm.9.4.8 2.3 1.2-.4c.5-.2.8-.3 1-.5s.3-.4.4-.6 0-.5 0-.7c-.1-.2-.2-.4-.4-.6-.2-.1-.4-.2-.6-.2s-.6.1-1 .2z"/><path d="m76.4 93.9c1-.5 1.9-.6 2.9-.3s1.7.9 2.2 1.8.6 1.9.3 2.9-.9 1.7-1.8 2.2-1.9.6-2.9.3-1.7-.9-2.2-1.8c-.3-.6-.5-1.3-.5-1.9 0-.7.2-1.3.6-1.9.3-.6.8-1 1.4-1.3zm.3.6c-.5.3-.8.6-1.1 1.1s-.4 1-.5 1.5c0 .5.1 1.1.4 1.6.4.8 1 1.3 1.8 1.5s1.6.2 2.3-.2c.5-.3.9-.6 1.2-1.1s.4-1 .5-1.5c0-.5-.1-1.1-.4-1.6s-.6-.9-1.1-1.2-1-.4-1.5-.4c-.6-.1-1.1 0-1.6.3z"/><path d="m80.5 91.6.6-.4 3.8 5.2 2.2-1.6.4.6-2.8 2.1z"/><path d="m83.7 89.2.5-.5 4.7 5.4-.5.5z"/><path d="m85.1 88.9-.5-.5 2.8-2.7.5.5-1.2 1.1 4.5 4.7-.5.5-4.5-4.7z"/><path d="m89.7 83.1 7.7 1.9-.5.6-2.5-.6-1.9 2.4 1.1 2.4-.5.6-3.5-7.1zm1.1 1 1.3 2.6 1.5-1.9z"/><path d="m91.9 79.9.4-.6 6 3.9-.4.6z"/><path d="m99.4 81.7-6.4-3.3.1-.1 7.1-1.8-4.9-2.5.3-.6 6.4 3.3-.1.1-7 1.8 4.8 2.5z"/><path d="m95.9 72.3 1.3-3.9.7.2-1.1 3.2 2.1.7 1.1-3.2.7.2-1.1 3.2 2.7.9 1.1-3.2.7.2-1.3 3.9z"/><path d="m103 69.7-.2-.7c.9-.2 1.4-.6 1.5-1.2.1-.2 0-.5 0-.7s-.2-.4-.3-.6c-.2-.2-.3-.2-.5-.3s-.5 0-.7.1c-.4.1-.8.5-1.4.9-.6.5-1 .8-1.2.9-.4.2-.8.2-1.2.1-.3-.1-.6-.2-.8-.4s-.4-.5-.5-.8-.1-.6 0-.9.2-.6.5-.9c.2-.3.6-.5 1.1-.7l.3.7c-.4.2-.7.4-.8.5s-.3.3-.3.6c-.1.3 0 .5.1.8.1.2.3.4.6.4h.5s.3-.1.5-.2c.1-.1.4-.3.9-.7.6-.5 1.1-.8 1.5-1 .4-.1.8-.2 1.1-.1.5.1.9.4 1.2.9s.4 1 .2 1.5c-.1.4-.3.8-.6 1.1-.5.3-.9.6-1.5.7z"/><path d="m12.3 41.3 4.2 1.4c.1 0 .2.1.2.2s0 .2-.1.4-.1.3-.2.3-.2.1-.3 0l-4.2-1.4-.7 2.2c0 .1-.1.2-.2.2s-.2 0-.3 0-.2-.1-.3-.2-.1-.1 0-.3l1.8-5.4c0-.1.1-.2.2-.2s.2 0 .3 0 .2.1.3.2.1.1 0 .3z"/><path d="m17.8 40.2c-.6 1.3-1.3 1.8-2.1 1.4l-.4-.2c-.8-.4-.9-1.2-.3-2.5l1.4-3c-.1-.1-.3 0-.4.1s-.3.4-.5.8l-.3.7c0 .1-.1.2-.2.2s-.2 0-.3-.1-.2-.1-.2-.2 0-.1 0-.3l.3-.7c.6-1.3 1.3-1.8 2.1-1.4l1.5.7c.8.4.9 1.2.3 2.5zm.2-2.2c.2-.4.3-.7.2-.9 0-.2-.1-.4-.2-.4l-.9-.4-1.4 3c-.2.4-.3.7-.2.9 0 .2.1.4.2.4l.4.2c.1.1.3 0 .5-.1s.4-.4.5-.8z"/><path d="m19.9 35.9c-.1.1-.2.2-.3.3-.1 0-.2 0-.3-.1l-2.3-1.5c-.8-.5-.7-1.3.1-2.6l.9-1.4c.8-1.2 1.6-1.6 2.3-1.1l2.3 1.5c.1.1.2.2.2.3s-.1.2-.1.3c-.1.1-.2.2-.3.3-.1 0-.2 0-.3-.1l-2.2-1.4c-.1-.1-.3-.1-.5 0s-.4.3-.6.7l-.9 1.4c-.2.4-.4.7-.4.9s0 .4.2.5l2.3 1.5c.1.1.2.2.2.3-.1-.1-.2 0-.3.2z"/><path d="m20 28-.7-.6c-.1-.1-.2-.2-.2-.3s.1-.2.2-.3.2-.2.3-.2.2 0 .3.1l.7.6 1-1.3c.1-.1.2-.1.3-.1s.2.1.3.1c.1.1.2.2.2.2 0 .1 0 .1-.1.2l-1 1.3 2.5 2.1c.1.1.1.2.1.3s-.1.2-.2.3-.2.2-.3.2-.2 0-.3-.1l-2.5-2.1-.3.3c-.1.1-.1.1-.2.1s-.2-.1-.3-.1c-.1-.1-.2-.2-.2-.2 0-.1 0-.1.1-.2z"/><path d="m30.9 21.3c.2.2.3.5.3.7 0 .3-.1.5-.2.8l.5-.1c.2 0 .3 0 .4.1s.1.2.1.3-.1.2-.2.3c-.2.1-.3.2-.5.3l-1.3.3-1.7 1.5c-1.2 1-2 1.1-2.7.4l-1.8-2c-.6-.7-.4-1.6.8-2.6l1.8-1.6c1.2-1 2-1.1 2.7-.4zm-1.4 2c .2-.2.3-.3.4-.4s.2-.2.2-.4c0-.1.1-.2 0-.3 0-.1-.1-.2-.1-.2l-1.7-2.1c-.1-.1-.3-.2-.5-.1-.2 0-.5.2-.9.5l-1.8 1.5c-.3.3-.6.6-.6.8-.1.2-.1.4 0 .5l1.8 2.1c.1.1.3.2.5.1.2 0 .5-.2.9-.5z"/><path d="m34.4 15.7c.1-.1.3-.1.3-.1.1 0 .2.1.3.2l1.4 2.3c.5.8.1 1.5-1.2 2.3l-1.6 1c-1.2.8-2.1.8-2.6 0l-1.4-2.3c-.1-.1-.1-.2 0-.3 0-.1.1-.2.3-.3.1-.1.3-.1.3-.1.1 0 .2.1.3.2l1.4 2.3c.1.1.2.2.5.2.2 0 .5-.1.9-.4l1.5-.9c.4-.2.6-.4.7-.6s.1-.4 0-.5l-1.4-2.3c-.1-.1-.1-.2 0-.3.1-.3.2-.3.3-.4z"/><path d="m36.3 15.3v.3c0 .1-.2.2-.3.2-.2.1-.3.1-.4.1s-.2 0-.2-.1v-.1-.1l-.5-1.3c0-.1 0-.2 0-.3s.2-.2.3-.2c.2-.1.3-.1.4-.1s.2.1.2.2v.1.1z"/><path d="m36.1 14.1c-.1-.1-.1-.3 0-.4s.2-.2.4-.3.4-.1.5-.1.2.1.3.3.1.3 0 .4-.2.2-.4.3-.4.1-.5.1c-.2-.1-.3-.2-.3-.3zm3 3.9c.1.1.1.2 0 .3s-.2.2-.3.2c-.1.1-.3.1-.4.1s-.2-.1-.2-.2l-1.5-3.3c-.1-.1-.1-.2 0-.3s.2-.1.3-.2.3-.1.4-.1.2.1.2.2z"/><path d="m40.3 17.5c.1.1.1.2 0 .3s-.2.1-.4.2-.3.1-.4.1-.2-.1-.2-.2l-2-4.5c-.1-.1-.1-.2 0-.3s.2-.1.3-.2c.2-.1.3-.1.4-.1s.2.1.2.2z"/><path d="m42.9 14.3.2.9c0 .2.2.3.4.3.2.1.6 0 1-.1l3.6-1h .3c.1.1.1.2.1.3v.3c0 .1-.1.1-.2.2l-3.6 1c-1.5.4-2.3.1-2.6-.8l-.7-2.6c-.3-.9.4-1.6 1.8-2l1.1-.3h.3c.1.1.1.2.1.3v.3c0 .1-.1.1-.2.2l-1.1.3c-.4.1-.7.3-.9.4-.2.2-.2.3-.2.5l.3 1 4.8-1.3h.3c.1.1.1.2.1.3v.3c0 .1-.1.1-.2.2z"/><path d="m49.2 15.1c-.2 0-.3 0-.4 0s-.1-.1-.2-.3l-.3-2.7c-.1-.9.6-1.4 2-1.6l1.7-.2c1.4-.2 2.2.2 2.3 1.1l.3 2.7c0 .1 0 .3-.1.3-.1.1-.2.1-.4.1s-.3 0-.4 0-.1-.1-.2-.3l-.3-2.7c0-.2-.1-.3-.3-.4s-.5-.1-1 0l-1.6.2c-.4.1-.7.1-.9.3-.2.1-.3.3-.2.4l.3 2.7c0 .1 0 .2-.1.3.1.1-.1.1-.2.1z"/><path d="m57.5 9.1c0-.2.2-.3.4-.3l4.3.4c.3 0 .7.1.9.2.3.1.5.2.7.3s.3.3.4.4c.1.2.1.3.1.5l-.1 1c0 .2-.1.4-.2.5s-.3.3-.5.4-.4.2-.7.2-.6 0-.9 0h-.3c-.2 0-.4 0-.6-.1s-.3 0-.4 0-.2 0-.3 0-.2 0-.3 0c .1 0 .2.1.3.1s.2.1.3.2.3.1.5.2.4.2.7.4l1.8.9c.2.1.2.2.2.4 0 .1-.1.2-.2.3-.1 0-.2.1-.4 0h-.1l-.2-.2c-.1 0-.1 0-.2 0s-.1 0-.1-.1l-4.3-2.3-.2 1.7c0 .1-.1.2-.2.3-.1 0-.2 0-.4 0s-.3 0-.4-.1-.1-.2-.1-.3zm1 .6-.2 1.8 3.6.3h.7s.3 0 .4-.1c.1 0 .2-.1.2-.1 0-.1.1-.1.1-.2l.1-.8c0-.1 0-.1 0-.2s-.1-.1-.2-.2-.2-.1-.4-.1-.4-.1-.6-.1z"/><path d="m65.2 13.5-.1.4c0 .2 0 .3.2.5s.5.3.9.4l.9.2c.1 0 .2.1.2.1v.3c0 .1-.1.2-.1.3s-.1.1-.2 0l-.9-.2c-1.4-.3-2-1-1.8-1.8l.4-1.6c.2-.9 1-1.1 2.4-.8l1.7.4c.7.2 1.3.4 1.5.7.3.3.4.7.3 1.1l-.2.9c0 .1-.1.2-.2.3s-.2 0-.4 0zm .2-.7 4.1 1 .1-.5c0-.2 0-.3-.2-.5-.2-.1-.5-.3-.9-.4l-1.6-.4c-.4-.1-.7-.1-1-.1-.2.1-.3.2-.4.3z"/><path d="m70.9 13.5c.1-.3.4-.5.7-.6s.8 0 1.4.2l1 .4c.1 0 .2.1.2.2s0 .2-.1.3c0 .1-.1.2-.2.2s-.1 0-.3 0l-1-.4c-.3-.1-.5-.2-.6-.1-.2 0-.3.1-.3.2l-.1.2c0 .1 0 .2.1.3s.3.2.6.4l1.6.6c.7.3 1.1.6 1.3.9s.3.6.1 1l-.1.2c-.1.2-.2.3-.3.4s-.3.2-.5.2-.4 0-.7 0c-.3-.1-.6-.2-1-.3l-2.9-1.2c-.1 0-.2-.1-.2-.2s0-.2.1-.3c0-.1.1-.2.2-.2h.3l3 1.2c.2.1.4.1.5.2s.2 0 .3 0h .2l.1-.1.1-.3c0-.1 0-.1 0-.2s0-.1-.1-.2-.1-.1-.3-.2c-.1-.1-.3-.1-.5-.2l-1.6-.6c-.6-.2-1-.5-1.2-.8s-.3-.6-.1-1z"/><path d="m77 14.8.4-.8c.1-.1.1-.2.2-.2s.2 0 .4.1c.1.1.2.2.3.2.1.1 0 .2 0 .3l-.4.8 1.4.7c.1.1.2.1.2.2s0 .2-.1.3-.1.2-.2.2-.1 0-.2 0l-1.5-.7-1.5 2.9c-.1.1-.1.2-.2.2s-.2 0-.4-.1c-.1-.1-.2-.2-.3-.2 0-.1 0-.2 0-.3l1.5-2.9-.4-.2c-.1-.1-.2-.1-.2-.2s0-.2.1-.3.1-.2.2-.2h.2z"/><path d="m79.2 18.9-.3.3c-.1.1-.1.3 0 .5s.3.4.7.7l.7.5c.1.1.1.1.1.2s0 .2-.1.3-.1.2-.2.2-.1 0-.2 0l-.8-.5c-1.2-.8-1.6-1.6-1.1-2.3l.9-1.4c.5-.7 1.3-.7 2.6.1l1.5 1c .6.4 1 .8 1.2 1.2s.1.7-.1 1.1l-.5.7c-.1.1-.2.2-.2.2-.1 0-.2 0-.4-.1zm.4-.7 3.5 2.3.3-.4c.1-.2.1-.3 0-.5s-.3-.4-.7-.6l-1.4-.9c-.4-.2-.7-.4-.9-.4s-.4 0-.5.2z"/><path d="m87.3 21.5c.1.1.1.1.1.2s-.1.2-.1.3c-.1.1-.2.2-.2.2-.1 0-.1 0-.2-.1l-.5-.4c-.3-.2-.5-.4-.7-.4s-.3 0-.4.2l-1.7 2.1c-.1.1-.2.2-.3.1-.1 0-.2-.1-.3-.2s-.2-.2-.2-.3 0-.2.1-.3l1.7-2.1c.3-.3.6-.5 1-.4.4 0 .9.3 1.4.7z"/><path d="m87.8 28.1c-1-1.1-1.1-1.9-.4-2.5l.3-.3c.7-.6 1.5-.3 2.4.8l2.2 2.5c.1-.1.1-.2.1-.4s-.2-.5-.5-.8l-.5-.5c-.1-.1-.1-.2-.1-.2 0-.1.1-.1.2-.2s.2-.1.3-.2c.1 0 .1 0 .2.1l.5.6c1 1.1 1.1 1.9.4 2.5l-1.3 1.1c-.7.6-1.5.3-2.4-.8zm1.9 1c .3.3.5.5.7.6s.4.1.5 0l .8-.7-2.2-2.5c-.3-.3-.5-.5-.7-.6s-.4-.1-.5 0l-.3.3c-.1.1-.2.3-.1.5 0 .2.2.5.5.8z"/><path d="m93 35.1c-.7-1.3-.7-2.2.1-2.7l3.3-1.9c.1-.1.2-.1.3 0s .2.2.2.3c.1.1.1.3.1.4s-.1.2-.2.3l-3.3 1.9c-.1.1-.2.2-.2.5 0 .2.1.6.3.9l1.1 2c .2.4.4.7.6.8s.4.1.5.1l3.3-1.9c.1-.1.2-.1.3 0s .2.2.2.3c.1.1.1.3.1.4s-.1.2-.2.3l-3.3 1.9c-.8.5-1.6 0-2.4-1.3z"/><path d="m95.4 39.8c-.1-.2-.1-.3-.1-.4s.1-.2.2-.2l2.5-.9c.8-.3 1.5.2 2 1.6l.6 1.6c.5 1.4.3 2.2-.5 2.5l-2.5.9c-.1.1-.2 0-.3 0-.1-.1-.1-.2-.2-.3-.1-.2-.1-.3-.1-.4s.1-.2.2-.2l2.5-.9c.1-.1.2-.2.3-.4s0-.5-.2-.9l-.6-1.5c-.1-.4-.3-.7-.5-.8s-.3-.2-.5-.1l-2.5.9c-.1.1-.2 0-.3 0 .2-.3.1-.4 0-.5z"/></g><path d="m88.3 56.7c.3 17-13.9 32.5-33.4 31.6-15.2-.8-30.6-13.6-29.8-33.4.7-15.2 13.6-30.7 33.5-29.7 15.6.7 29.9 13.7 29.7 31.5zm-31.6 29.9c16.9-.4 29.5-13.1 29.9-29.2.3-17.6-13.2-30.1-28.9-30.5-17.8-.4-30.5 13.2-30.8 29.2-.3 17.3 13.2 30.1 29.8 30.5z" fill="#060402"/><path d="m68.1 51.7c-1.7 3.5-3.3 7-5 10.5-1 2.1-2 4.2-3 6.4-.4.8-.9 1.4-1.5 2-2.6 1.2-4.4.2-5.7-2.4-2.4-5.2-4.9-10.4-7.3-15.6-.1-.3-.3-.6-.7-.9v1.4 18c0 .8.1 1.7.1 2.5 0 2.4-1.9 3.9-4.3 3.4-1.7-.3-2.7-1.5-2.7-3.3 0-10.2 0-20.5 0-30.7 0-1.5.2-2.9 1.4-4.2.8-.4 1.8-.9 2.9-1 1.9-.1 3.2.7 4 2.4 3.1 6.5 6.3 13 9.4 19.5.3.6.6 1.1.8 1.7.9.1.9-.5 1.1-1 3.1-6.7 6.1-13.4 9.2-20.1 1-2.1 3-2.8 5.1-2.4s3.4 2.2 3.4 4.2c-.1 9.8-.1 19.6-.1 29.4 0 .9.1 1.8.1 2.6-.1 2.2-2.4 3.7-4.4 2.8-1.8-.8-2.6-1.6-2.5-3.8.1-7.2 0-14.3 0-21.5-.1.1-.2.1-.3.1z" fill="#060402"/></svg>