<svg id="Capa_1" data-name="Capa 1" xmlns="http://www.w3.org/2000/svg" viewBox="0 0 566.93 566.93"><defs><style>.cls-1{fill:#030404;}.cls-2{fill:#fff;}.cls-3{fill:#627536;}.cls-4{fill:#c99400;}</style></defs><path class="cls-1" d="M284.41,4C130.72,3.61,10.52,126.15,4.52,269.71c-7,167.73,128,293.18,278.45,293.23S561.78,441.75,562.68,283.76C562.52,128.92,436.65,4.36,284.41,4Z"/><path class="cls-2" d="M142.86,138.54c34.56-35.2,79.21-53.57,130.6-56.81,0,12.44.08,24.15.12,35.42-5.11,3.52-11.24.59-16.14,3.68-11.47-.16-21.81,4.41-32.33,8a105.35,105.35,0,0,0-14,6,201.86,201.86,0,0,1,69.66,22.16q6.62,3.47,12.82,7.29a342,342,0,0,1,46.74-14.37c10.37-2.38,20.88-4,32.65-5.57a188.9,188.9,0,0,0-37.59-17.84c-13.1-4.58-26.74-6-39.92-8.32,0-12.76-.08-24.62-.12-36.23,57.71,3.89,105.73,27.8,142.59,71.38s52,94.74,46.57,152C478,374.42,425.21,458.71,327.38,480.55a220.77,220.77,0,0,1-30.62,4.6,15.17,15.17,0,0,1-.36-2.39c0-7.74-.07-15.49-.09-23.42,0-3.43,0-6.88,0-10.41,4.36-.54,8.61-1.19,12.79-2q32.44-5.89,58-20.58,49.6-28.42,73.84-89.89c-17.6-6.3-34.86-11.37-52.56-14.56-4.81-.86-9.65-1.61-14.55-2.19a180.19,180.19,0,0,1-26.3,54.2,235.53,235.53,0,0,1-14.63,18.69c-18.45,21.26-40.12,38.87-63.19,54.7,1.37,2.7,4.08.41,5,2.27,0,8.69.06,17.26.09,26.06,0,3.26,0,6.56,0,9.91-4.68-.4-9.28-.9-13.83-1.52Q251.79,482.83,243,481a223.09,223.09,0,0,1-30.76-8.62c-30-10.82-56-28-77.27-52.08a201.12,201.12,0,0,1-18.66-24.76q-3.78-5.9-7.29-12.2A248.67,248.67,0,0,1,92.6,347.5a201.46,201.46,0,0,1-10.52-42.69c-5-38.5,2.38-76.17,21.65-112.31q3.83-7.2,8.28-14.29,6.76-10.77,15-21.35c.7-.91,1.4-1.81,2.11-2.71A198.32,198.32,0,0,1,142.86,138.54Zm18.79,33.71c-8.67,8.28-15.07,18.37-21.18,28.72a159.43,159.43,0,0,0-19.32,52c19.95-23.4,42.28-44.52,67.94-62.51,8.72-6.1,17.86-11.56,28.18-17.45a188.94,188.94,0,0,0-41.55-2.37A117.17,117.17,0,0,0,161.65,172.25Zm99.93,15.36c-14.34,3.49-44,19.13-55.88,29.49A259.61,259.61,0,0,1,227,233.49c18.69,16.06,34.12,34.66,44.57,57.51q3.09,6.74,5.58,14c23.17-5.28,46.23-8.88,70.3-9.87-.83-3-1.72-6-2.68-9l3.61.12c1.39-37-13.21-67.76-34.44-97.16-10.29,3.78-20.3,8-30.06,12.49A194.43,194.43,0,0,0,261.58,187.61Zm-60.5,64.29c-27.52,20.87-53.15,44.54-77.68,70,.58,8.58,4.88,15.71,6.88,24,35.18-21.88,71.87-38.21,110.37-48.26C230.93,279.3,217.27,264.6,201.08,251.9ZM408.6,174.46c-14.6-2.16-48,1.16-62.86,6.3,18.7,28.63,31.58,58.72,33.21,92.54q1.14,3.4,2.19,6.88c.95,3.16,1.81,6.41,2.59,9.71a379.37,379.37,0,0,1,64,16.47C453.74,256,440,212.34,408.6,174.46ZM191.13,375.81a161.68,161.68,0,0,0-28.51,20c11.76,12.75,25,23.68,40.69,32,4.85,2.56,9.91,4.73,14.62,7.51s8.73,2.85,13.18-.28c1.1-.78,2.26-1.49,3.42-2.17q2.82-6.24,5.1-12.71a101.32,101.32,0,0,0,9.69-29.58c4.3-14.73,5.58-29.74,4.64-46.23C231.39,352.82,210.37,362.49,191.13,375.81ZM339,326.37a281.78,281.78,0,0,0-55,8.95c2.47,23.32,0,45.56-5.75,67.26a159.28,159.28,0,0,0,22.57-21,101.46,101.46,0,0,0,20.09-23.76A127.65,127.65,0,0,0,339,326.37Z"/><path class="cls-3" d="M140.47,201c6.11-10.35,12.51-20.44,21.18-28.72a117.17,117.17,0,0,1,14.07-1.63A188.94,188.94,0,0,1,217.27,173c-10.32,5.89-19.46,11.35-28.18,17.45-25.66,18-48,39.11-67.94,62.51A159.43,159.43,0,0,1,140.47,201Z"/><path class="cls-4" d="M205.7,217.1c11.85-10.36,41.54-26,55.88-29.49a194.43,194.43,0,0,1,22.32,14c9.76-4.52,19.77-8.71,30.06-12.49,21.23,29.4,35.83,60.12,34.44,97.16l-3.61-.12c1,2.94,1.85,5.91,2.68,9-24.07,1-47.13,4.59-70.3,9.87q-2.49-7.25-5.58-14c-10.45-22.85-25.88-41.45-44.57-57.51A259.61,259.61,0,0,0,205.7,217.1Z"/><path class="cls-3" d="M123.4,321.92c24.53-25.48,50.16-49.15,77.68-70,16.19,12.7,29.85,27.4,39.57,45.74-38.5,10.05-75.19,26.38-110.37,48.26C128.28,337.63,124,330.5,123.4,321.92Z"/><path class="cls-3" d="M345.74,180.76c14.88-5.14,48.26-8.46,62.86-6.3,31.38,37.88,45.14,81.5,39.15,131.9a379.37,379.37,0,0,0-64-16.47c-.78-3.3-1.64-6.55-2.59-9.71q-1-3.48-2.19-6.88C377.32,239.48,364.44,209.39,345.74,180.76Z"/><path class="cls-3" d="M162.62,395.79a161.68,161.68,0,0,1,28.51-20c19.24-13.32,40.26-23,62.83-31.51.94,16.49-.34,31.5-4.64,46.23a101.32,101.32,0,0,1-9.69,29.58q-2.28,6.48-5.1,12.71c-1.16.68-2.32,1.39-3.42,2.17-4.45,3.13-8.57,3-13.18.28s-9.77-4.95-14.62-7.51C187.62,419.47,174.38,408.54,162.62,395.79Z"/><path class="cls-4" d="M284,335.32a281.78,281.78,0,0,1,55-8.95,127.65,127.65,0,0,1-18.11,31.49,101.46,101.46,0,0,1-20.09,23.76,159.28,159.28,0,0,1-22.57,21C284,380.88,286.47,358.64,284,335.32Z"/><path class="cls-2" d="M283.5,283.31l-.19.2.19,0Z"/><path class="cls-2" d="M283.48,283.45h-.07l.11.05Z"/></svg>