<svg enable-background="new 0 0 113.4 113.4" viewBox="0 0 113.4 113.4" xmlns="http://www.w3.org/2000/svg"><circle cx="56.7" cy="56.7" fill="#305480" r="56.7"/><circle cx="56.7" cy="56.7" fill="#fff" r="54.2"/><circle cx="56.7" cy="56.7" fill="#305480" r="45.2"/><path d="m64.8 26.7 6.1-7.4-7.1 1-1.2-5.9-5.8 4.6-5.8-4.6-1.2 5.7-7.3-1 6.4 7.6c8.3-2.7 15.9 0 15.9 0z" fill="#fff"/><path d="m99.8 55.9-14.3-5.9c-.8-3.7-2.3-7.2-4.3-10.2l.1-.1 5.9-14.2-14.2 5.9-.1.1c-3-2-6.5-3.4-10.2-4.2-1.9-.4-3.9-.6-5.9-.6s-3.9.2-5.8.6c-3.7.7-7.2 2.2-10.2 4.2l-.1-.1-14.2-5.9 5.9 14.2c-2.1 3.1-3.6 6.6-4.4 10.3l-14.2 5.9 14 5.8c.7 3.9 2.2 7.5 4.3 10.7l-5.8 13.9 13.8-5.7c3.2 2.2 6.9 3.8 10.9 4.5l5.7 13.8 5.7-13.8c4-.8 7.6-2.4 10.9-4.6l13.9 5.8-5.8-14c2.1-3.2 3.5-6.8 4.3-10.6zm-49-26.2c1.9-.4 3.8-.6 5.8-.6s4 .2 5.9.7c3.1.7 5.9 1.9 8.5 3.5l-8.5 8.5-5.9 5.9-5.8-6-8.5-8.5c2.5-1.6 5.4-2.8 8.5-3.5zm-20.8 32.1c-.4-1.8-.6-3.6-.6-5.6 0-2.1.3-4.2.7-6.2.7-3.1 2-6 3.7-8.6l8.6 8.6 5.9 5.9-5.8 5.9-8.9 8.9c-1.7-2.7-2.9-5.7-3.6-8.9zm32.5 20.9c-1.9.4-3.9.7-5.9.7s-4-.2-5.8-.6c-3.2-.7-6.2-2-8.9-3.7l8.9-8.9 5.9-5.9 5.9 5.9 8.9 8.9c-2.7 1.6-5.7 2.9-9 3.6zm17.2-12.1-8.8-8.8-5.9-5.9 5.9-5.9 8.6-8.6c1.7 2.6 2.9 5.5 3.6 8.6.5 2 .7 4.1.7 6.2 0 1.9-.2 3.8-.6 5.6-.6 3.2-1.9 6.1-3.5 8.8z" fill="#fff"/><path d="m76.9 60.1s-8.6-8.6-8.7-9.5.3-1.8 1.4-3 3.7-4.2 5.1-5.9 4.9-6.6 4.3-7.6c-.5-.8-1.3-1.5-2.5-.3s-2.9 2.6-3.8 3.4c-.9.9-3.6 3.6-4.3 4.5-.8.9-1.8 1.7-2.8 2.6s-1.5 1.8-1.8 1.2-.6-1.7-.8-2.6-.7-2.3-.9-2.3-1.6.6-2.1 1.6-1 1.3-1.3-.6c-.2-1.9-.1-4.1-1.5-4.3-1.4-.3-5.4-.5-8.4 1s-8.6 6.6-9.8 10.7c-.6 2.2-1.1 3.7-1.4 5.9s-.4 7-1.3 8.9c-1 1.9-1.8 2.5-2.4 3.1-.5 1-1 1.6.1 2.2 2 .3 6.4.7 8.2 1.1s6.8.9 11.6 2.7c4.8 1.9 8.6 2.9 9.6 3.7 1.1.8 3.8 2.4 3.6 1s-1.7-5.6-2.5-6.8c-.8-1.3-2.2-4.2-2.6-5s-.7-2.2 1.3-1.5c1.9.7 3.3.7 4.6 1.2 1.4.5 1.3 1.8 1.2 2.9-.2 1.1-.4 1.8.4 2.4s3.4.2 4-1 1-2.2 1.9-3.2 1.9-1.5 2.2-2.9c0-1.6.2-2.7-.6-3.6z" fill="#305480"/><path d="m35 67.1c2.7-1.5 3.4-4 3.7-6.8.3-2.6.4-5.2 1-7.7 1.2-4.8 3.8-8.7 8-11.4.2-.3.7-.3 1-.5.4-.4.9-.6 1.4-.9.1 0 .2-.1.3-.1.2 0 .4.1.6 0 1.5-.3 3-.6 4.5-1 .9-.2 1.3.1 1.5 1 .2.8.5 1.7.7 2.5.6.6.3 1.5.7 2.2.2.4-.2.6-.7.6-3.2-.1-5.8 1.3-8.3 3.2-.1.1-.3.2-.4.3s-.2.1-.3.2-.2.2-.3.3c-1 1.1-1.9 2.3-2.8 3.4-.1.1-.1.2-.2.3 0 .1-.1.2-.2.3 0 .1-.1.2-.2.3s-.1.2-.2.3l-.1.1c-.3.4-.4.9-.9 1.2-1.2 2.1-1.7 4.5-2.4 6.7-.5 1.8-1 3.7-1.3 5.6-.1.9-.5 1.2-1.5 1-1.3-.4-2.8-.4-4.3-.5.3-.3.5-.5.7-.6z" fill="#d2ab47"/><path d="m77 35.9c-3.4 4.3-6.8 8.6-10.1 13-.5.6-.7.2-1.1 0-.1 0-.1 0-.2 0s-.2-.1-.3-.2l-.1-.1c-.4-.4-.9-.8-1.2-1.4.4-1.1.8-.3 1.2.2.3-.7 0-1.6.6-2 .4-.1.4.6.8.5.3-1.9.4-1.9 1.4-1.4.3-1.6.5-1.8 1.5-1.4.2-.7 0-1.7 1.3-1.4.2 0 .2-.1.2-.2.1-.8.4-1.2 1.3-1.1.2 0 .1-.3 0-.5.1-.1.1-.3.2-.4.1-.2.3-.4.6-.6 1-1.1 2.2-2 3.3-3 .1-.1.2-.1.3-.1s.2.1.3.1c0-.2 0-.1 0 0z" fill="#d2ab47"/><path d="m75 60.1c-2.8-2.6-5.4-5.3-8-8.2-.7-.6-1.4-1.3-2-2 0-.1 0-.1 0-.2-.1-.2-.2-.4-.4-.5-.2-.2-.4-.3-.7-.4-1.5-.9-1.2-2.6-1.7-3.9-.2-.8 0-1.7-.7-2.3-1.8 1.2-2.4 2.9-2.3 5 0 .2.2.4.2.7v.1s-.1 0-.1.1c0-.2-.1-.3-.2-.5-.2-.4-.3-.9-.4-1.3.1-.6-.2-.9-.8-.9-1.7-.1-3.3 0-4.8.7-2.8 1.3-4.8 3.5-6.7 5.8-.1.2-.3.4-.4.6-.2.3-.4.6-.5.9-.3.6-.6 1.2-.8 1.8-.1.3-.2.6-.3.9-1.5 3.5-2.3 7.1-2.9 10.9-.1.4-.3.9.4 1 1.4.2 2.8.4 4.1.6.3-.4.2-.8.2-1.1-.3-1.9-.2-3.7-.1-5.6.1-2.1.2-4.3 1-6.3.2-.3.3-.6.5-.9 0-.1.1-.2.1-.3s0-.1.1-.1c-.1 0-.1.1-.1.2s0 .2-.1.3c-.4.6.1 1.4-.2 2.1-.2 3.8.6 7.5 1.7 11.2.3 1.1 1.1 1.5 2.2 1.8 4.8 1.2 9.5 2.8 13.7 5.5.2 0 .4 0 .3-.3-1.1-3.3-2.9-6.4-4.8-9.4-1.1-1.7-2-3.5-4.1-4.3-.1-.1-.2-.2-.4-.3-.1-.1-.2-.1-.2-.2-.1-.1-.2-.2-.3-.2-.1-.1-.2-.2-.2-.3-.1-.1-.2-.2-.2-.3-.1-.1-.1-.2-.1-.3s0-.2 0-.2c0-.1-.1-.1-.1-.2s-.1-.1-.1-.2v-.1.1c.1.1.1.2.2.3s.3.1.4.2l.3.3c.1.1.2.2.3.2.1.1.2.2.3.2.1.2.4.1.5.3.1.1.2.2.3.2 1.6.8 3.3 1.2 5.2.8.5-.1 1 0 1.5.1 1.2.3 2.5.7 3.7 1 1.4.2 2.3.9 2.9 2.1.4.8.7 1.4.4 2.3-.1.4-.1.9-.2 1.6 1-1 2-1.5 2.4-2.5.3-.8.7-1.5 1.4-2.1.1-.2.3-.2.4-.3.1 0 .2-.1.2-.2.3-.2 0-.6.3-.7.4-1.2 1-2.3-.3-3.3zm-11.6-6.7c2.7-1.4 2.5-1 3.1.5-1 .1-2.2.6-3.1-.5z" fill="#d2ab47"/><path d="m33.5 101.9c-.4.7-1.2.7-2.3.1l-3.3-1.9c-.2-.1-.2-.2-.1-.4l2.2-3.7c.1-.2.2-.2.4-.1l3.3 1.9c1.1.7 1.5 1.4 1.1 2.1zm-4.7-2.2 2.8 1.6c.3.2.6.3.8.3s.3-.1.4-.2l1.2-2c .1-.1.1-.3 0-.5s-.3-.4-.7-.6l-2.8-1.6z" fill="#305480"/><path d="m34.6 103.4c-.1.1-.1.2-.2.2s-.2 0-.3-.1-.2-.1-.3-.2c0-.1 0-.2 0-.3l1.4-2.9c.1-.1.1-.2.2-.2s.2 0 .3.1.2.1.3.2v.3zm.9-4.2c.1-.1.1-.2.2-.2s.2 0 .4.1.3.2.3.3v.3c-.1.1-.1.2-.2.2s-.2 0-.4-.1-.3-.2-.3-.3c-.1-.1 0-.2 0-.3z" fill="#305480"/><path d="m36 104c-.1.1-.1.2-.2.2s-.2 0-.3-.1-.2-.1-.3-.2c0-.1 0-.2 0-.3l1.7-3.9c.1-.1.1-.2.2-.2s.2 0 .3.1.2.1.3.2v.3z" fill="#305480"/><path d="m37.9 103.5-.1.3c0 .1 0 .3.1.4s.4.3.7.4l.7.3c.1 0 .1.1.2.1v.3c0 .1-.1.2-.1.2s-.1 0-.2 0l-.8-.3c-1.2-.4-1.7-1-1.4-1.7l.5-1.4c.3-.7 1-.9 2.2-.5l1.5.5c.6.2 1.1.5 1.3.8s.3.6.1 1l-.3.7c0 .1-.1.2-.2.2s-.2 0-.3 0zm .2-.6 3.4 1.2.2-.4c.1-.1 0-.3-.1-.4s-.4-.3-.7-.4l-1.4-.5c-.4-.1-.6-.2-.8-.1-.2 0-.3.1-.4.2z" fill="#305480"/><path d="m44.2 107.1c-1.2-.3-1.8-.8-1.6-1.6l.1-.3c.2-.8.9-1 2.1-.7l2.8.6c0-.1 0-.2-.2-.4-.1-.1-.4-.2-.8-.3l-.6-.1c-.1 0-.2-.1-.2-.1 0-.1 0-.1 0-.3 0-.1.1-.2.1-.2s.1-.1.2 0l .7.1c1.2.3 1.8.8 1.6 1.6l-.3 1.4c-.2.8-.9 1-2.1.7zm1.9-.3c.4.1.6.1.8 0s .3-.1.3-.3l.2-.8-2.8-.6c-.4-.1-.6-.1-.8 0s-.3.1-.3.3l-.1.4c0 .1 0 .3.2.4.1.1.4.2.8.3z" fill="#305480"/><path d="m49 105.3c0-.3.2-.5.5-.7.3-.1.7-.2 1.2-.1l.9.1c.1 0 .2 0 .2.1v.3c0 .1 0 .2-.1.2s-.1.1-.2.1l-.9-.1c-.3 0-.4 0-.6 0-.1 0-.2.1-.2.2v.2c0 .1 0 .2.2.3.1.1.3.1.6.2l1.5.2c.6.1 1.1.2 1.3.4.3.2.4.5.3.8v.2c0 .2-.1.3-.2.4s-.2.2-.4.3-.4.1-.6.1-.5 0-.9 0l-2.7-.3c-.1 0-.2 0-.2-.1s0-.1 0-.3c0-.1 0-.2.1-.2 0-.1.1-.1.2-.1l2.8.3h.4s.2 0 .3 0 .1-.1.2-.1c0 0 0-.1.1-.1v-.2c0-.1 0-.1 0-.1l-.1-.1c-.1 0-.1-.1-.3-.1-.1 0-.3-.1-.4-.1l-1.5-.2c-.5-.1-.9-.2-1.2-.4s-.4-.5-.3-.8z" fill="#305480"/><path d="m59.5 109.6c-.1 0-.2 0-.2-.1s-.1-.1-.1-.3c0-.1 0-.2 0-.3s.1-.1.2-.1h.9c.3 0 .6-.1.7-.2s.2-.2.2-.4l-2.6.1c-1.3.1-1.9-.3-2-1.1l-.1-1.4c0-.8.6-1.2 1.8-1.3l1.5-.1c1.3-.1 1.9.3 2 1.1l.1 2.6c0 .4-.1.7-.4.9s-.7.3-1.3.4zm1.7-1.9-.1-1.9c0-.1-.1-.2-.3-.3s-.5-.1-.8-.1l-1.5.1c-.4 0-.6.1-.8.2s-.2.2-.2.4l.1 1.4c0 .1.1.2.3.3s.5.1.8.1z" fill="#305480"/><path d="m67.3 103.7h.3c.1 0 .1.1.1.2l.4 2.3c.1.8-.4 1.3-1.7 1.5l-1.6.3c-1.2.2-1.9-.1-2.1-.8l-.4-2.3c0-.1 0-.2.1-.3s.2-.1.3-.1h.3s.1.1.1.2l.4 2.3c0 .1.1.2.3.3s.5.1.8 0l1.5-.3c.4-.1.6-.2.8-.3s.2-.3.2-.4l-.4-2.3c0-.1 0-.2.1-.3s.4 0 .5 0z" fill="#305480"/><path d="m71.2 102.6 2.5-.9c1.2-.4 1.9-.3 2.2.5l.5 1.4c.3.7-.2 1.3-1.4 1.7l-1.5.5c-1.2.4-1.9.3-2.2-.5l-1.2-3.2c0-.1 0-.2 0-.3s.1-.1.3-.2c.1 0 .2-.1.3-.1s.1.1.2.2zm.3.6.7 1.8c0 .1.2.2.4.2s.5 0 .8-.1l1.4-.5c.4-.1.6-.3.7-.4s.2-.3.1-.4l-.5-1.4c0-.1-.2-.2-.4-.2s-.5 0-.8.1z" fill="#305480"/><path d="m79.3 103.5c-1.1.6-1.9.5-2.2-.2l-.2-.3c-.4-.7 0-1.3 1.2-1.9l2.6-1.3c-.1-.1-.2-.2-.4-.2s-.4.1-.8.3l-.6.3c-.1 0-.2.1-.2 0s-.1-.1-.2-.2-.1-.2-.1-.3 0-.1.1-.2l.6-.3c1.1-.6 1.9-.5 2.2.2l.7 1.3c.4.7 0 1.3-1.2 1.9zm1.3-1.5c.3-.2.6-.3.7-.5s.1-.3.1-.4l-.4-.8-2.5 1.3c-.3.2-.6.3-.7.5s-.1.3-.1.4l.2.3c.1.1.2.2.4.2s.5-.1.8-.2z" fill="#305480"/><path d="m81.8 99c-.2-.3-.2-.5-.1-.8s.4-.6.8-.9l.8-.5c.1-.1.2-.1.2 0 .1 0 .1.1.2.2s.1.2.1.2c0 .1 0 .1-.1.2l-.8.5c-.2.1-.4.3-.4.4s-.1.2 0 .3l.1.1c.1.1.2.1.3.1s.3-.1.5-.2l1.2-.8c.5-.3.9-.5 1.3-.5s.6.1.8.4l.1.2c.1.1.1.3.1.4s0 .3-.1.5-.2.3-.4.5-.4.4-.7.5l-2.3 1.5c-.1.1-.2.1-.2 0-.1 0-.1-.1-.2-.2s-.1-.2-.1-.2c0-.1 0-.1.1-.2l2.4-1.6c.1-.1.3-.2.4-.3s.2-.1.2-.2.1-.1.1-.2v-.1l-.1-.2-.1-.1s-.1 0-.2 0-.2 0-.3.1-.2.1-.4.2l-1.3.8c-.5.3-.8.4-1.2.5-.3 0-.6-.1-.7-.4z" fill="#305480"/><g fill="#d2ab47"><path d="m12.1 35.4.6-1.3c.2.1.4.1.4.2.3.1.6.3.7.5.2.2.2.5.1.8-.1.4-.3.9-.6 1.7-.4.8-.6 1.4-.8 1.7s-.4.6-.5.7c-.2.1-.3.2-.5.2s-.4 0-.6-.1-.6-.2-1.1-.4-.9-.4-1.1-.5-.4-.2-.5-.3c-.2-.2-.3-.6-.2-1s .4-1.2.9-2.3c.2-.6.4-1 .6-1.2.1-.2.3-.4.4-.5.2-.2.4-.2.6-.2s.5.1.9.2c0 0 .1 0 .2.1l-.6 1.3c-.1-.1-.2-.1-.3-.1s-.1 0-.2 0-.2.1-.3.3-.3.5-.4.9c-.2.4-.3.7-.3.9-.1.2-.1.3 0 .4 0 .1.1.2.2.3s.4.2.7.4c.3.1.6.2.7.3h.4s.2-.1.3-.3.2-.4.4-.8c.2-.5.4-.8.4-1 .1-.2.1-.3 0-.4-.1-.3-.2-.4-.5-.5z" stroke="#000" stroke-miterlimit="10" stroke-width=".2"/><path d="m17.2 30.1-.9-.1-1.6 2.7.5.8-.9 1.4-2.7-4.6 1.2-1.9 5.3.4zm-2-.1-2-.2-.2.2 1 1.7z" stroke="#000" stroke-miterlimit="10" stroke-width=".2"/><path d="m14.5 25.8.9-1.2 2.7 2.2 2.1-2.6.9.8-3.1 3.8z" stroke="#000" stroke-miterlimit="10" stroke-width=".2"/><path d="m18 21.4 3.7-3.7.8.8-2.7 2.7.5.5 2.6-2.6.7.7-2.6 2.6.5.5 2.7-2.7.8.8-3.6 3.8z" stroke="#000" stroke-miterlimit="10" stroke-width=".2"/><path d="m25.3 20.9-2.9-3.7 2.7-2.1c.5-.4.8-.6.9-.7.2-.1.3-.2.5-.3.4-.2.8-.2 1.2.1.1.1.3.2.4.4.1.1.3.4.5.7.3.3.4.6.6.8.1.2.2.4.3.5.1.4.1.8-.2 1.1-.1.2-.3.3-.5.5s-.5.4-.9.7zm.4-1.9 1.6-1.2c.3-.2.5-.4.6-.5s.2-.2.2-.3 0-.2-.1-.4c-.1-.1-.2-.3-.4-.6-.2-.2-.3-.4-.4-.5s-.2-.2-.3-.2-.2 0-.4.1-.4.2-.7.5l-1.6 1.2z" stroke="#000" stroke-miterlimit="10" stroke-width=".2"/><path d="m31 11.1c.9-.5 1.5-.8 1.9-1 .5-.2.9-.1 1.3.2.2.2.5.7.9 1.3s.6 1.1.7 1.4c.1.5-.1.8-.5 1.2-.3.2-.9.6-1.8 1.1s-1.5.8-1.9 1c-.5.2-.9.1-1.3-.2-.2-.2-.5-.7-.9-1.3s-.6-1.1-.6-1.4c-.1-.5.1-.8.5-1.2.2-.2.8-.6 1.7-1.1zm.6 1.1c-.7.4-1.1.6-1.2.7s-.2.3-.2.4.2.5.4.9c.1.3.3.4.3.5.2.2.4.2.7.1.2-.1.6-.3 1.1-.6s.8-.5 1-.6.3-.2.3-.3 0-.2 0-.3-.1-.3-.3-.6-.3-.5-.4-.6-.2-.2-.3-.3-.3 0-.4 0c-.1.2-.4.4-1 .7z" stroke="#000" stroke-miterlimit="10" stroke-width=".2"/><path d="m34.8 9.1 2.4-.9 3.6 2.4.1-.1-1.3-3.3 1.4-.5 1.7 4.4-2.3.9-3.6-2.4-.1.1 1.3 3.3-1.4.5z" stroke="#000" stroke-miterlimit="10" stroke-width=".2"/><path d="m41.9 6.5 1.5-.4 1.3 4.5-1.5.4z" stroke="#000" stroke-miterlimit="10" stroke-width=".2"/><path d="m50.2 9.6-.5-.8-3.1.5-.3.9-1.6.3 1.6-5.1 2.2-.4 3.3 4.2zm-1.2-1.7-1.2-1.6-.3.1-.6 1.9z" stroke="#000" stroke-miterlimit="10" stroke-width=".2"/><path d="m51.7 4.6 2.5-.1 2.6 3.4h.1l-.1-3.5h1.5l.1 4.7-2.5.1-2.6-3.4h-.2l.1 3.5h-1.5z" stroke="#000" stroke-miterlimit="10" stroke-width=".2"/><path d="m61.4 4.5 2.6.4.9 3.3 1.9-2.8 2.6.4-.8 4.7-1.4-.2.6-3.5h-.2l-2.3 3.2-1.2-.2-1.2-3.8h-.2l-.6 3.5-1.4-.2z" stroke="#000" stroke-miterlimit="10" stroke-width=".2"/><path d="m73.5 7.2c1 .3 1.6.6 2 .7.5.2.7.6.7 1.1 0 .3-.1.8-.4 1.5-.2.7-.4 1.2-.6 1.4-.3.4-.7.5-1.2.4-.4-.1-1-.3-2-.6s-1.6-.6-2-.8c-.5-.2-.7-.6-.7-1.1 0-.3.2-.8.4-1.6.2-.7.4-1.2.6-1.4.3-.4.7-.5 1.2-.4.4.2 1.1.4 2 .8zm-.4 1.1c-.7-.2-1.2-.4-1.3-.4-.2 0-.3 0-.4.2-.1.1-.2.4-.4.9-.1.3-.1.5-.2.6 0 .2.1.4.4.6.2.1.6.2 1.2.4.5.2.9.3 1.1.3s.3 0 .4 0 .2-.1.3-.2.1-.3.2-.6.2-.6.2-.7 0-.3 0-.4-.1-.2-.3-.3c-.1 0-.5-.1-1.2-.4z" stroke="#000" stroke-miterlimit="10" stroke-width=".2"/><path d="m75.4 12.9 2.1-4.2 3.1 1.6c.7.4 1.2.6 1.3.7s.3.2.3.4c.1.2.2.4.1.6 0 .2-.1.5-.3.8s-.3.5-.4.6-.2.2-.4.2-.4 0-.6-.1c.3.2.4.3.5.5v.4c0 .1-.1.4-.3.7l-.2.4-1.3-.6.1-.2c.1-.2.2-.4.2-.5s0-.2 0-.3-.1-.1-.1-.2c-.1-.1-.2-.1-.5-.3l-1.8-.9-.5 1.1zm2.4-1.4 1.8.9c.3.2.5.2.6.3h.2c.1 0 .1 0 .2-.1s.1-.2.2-.3.1-.2.1-.3 0-.2-.1-.2l-.1-.1s-.2-.1-.5-.3l-1.8-.9z" stroke="#000" stroke-miterlimit="10" stroke-width=".2"/><path d="m83.8 11.8 2.1 1.5-.6 3.3 2.9-1.7 2.1 1.5-2.7 3.8-1.2-.8 2.1-2.9-.2-.1-3.5 2-1-.7.6-3.9-.2-.1-2 2.9-1.2-.8z" stroke="#000" stroke-miterlimit="10" stroke-width=".2"/><path d="m91.5 24.3.3-.9-2.2-2.2-.8.3-1.2-1.2 5.1-1.6 1.6 1.6-1.6 5.1zm.6-1.9.6-1.9-.2-.2-1.9.6z" stroke="#000" stroke-miterlimit="10" stroke-width=".2"/><path d="m96.4 22.7 3.2 4.1-.9.7-2.3-3-.5.4 2.2 2.9-.8.6-2.2-2.9-.6.5 2.4 3-.9.7-3.2-4.2z" stroke="#000" stroke-miterlimit="10" stroke-width=".2"/><path d="m96 30 4.1-2.4 1.8 3c .4.7.7 1.1.7 1.3s.1.3.1.5-.1.4-.2.5c-.1.2-.4.3-.7.5s-.5.3-.7.3-.3 0-.5 0c-.2-.1-.3-.2-.5-.4.1.3.2.5.1.7 0 .1-.1.2-.2.3s-.3.2-.7.4l-.4.2-.7-1.2.2-.1c.2-.1.4-.2.5-.3l.2-.2c0-.1 0-.2 0-.2 0-.1-.1-.3-.3-.5l-1-1.7-1 .6zm2.8 0 1 1.7c.2.3.3.5.3.5 0 .1.1.1.1.1h.2c.1 0 .2-.1.3-.1.1-.1.2-.2.3-.2 0-.1.1-.1.1-.2s0-.1-.1-.2c0-.1-.1-.2-.3-.5l-1-1.7z" stroke="#000" stroke-miterlimit="10" stroke-width=".2"/><path d="m100.6 34.6.6 1.3c-.2.1-.3.2-.4.3v.3s.2.4.4 1 .4.9.4 1c .1.1.1.2.2.2.1.1.2.1.4 0 .1-.1.2-.1.2-.2s0-.2-.1-.5c-.1-.2-.2-.5-.4-1.1s-.3-.9-.4-1.1c-.1-.3-.2-.6-.2-.8s0-.4.1-.5c.1-.2.4-.5.8-.6.5-.2.9-.3 1.2-.2.2.1.4.2.6.5s.5.9.8 1.8c.3.6.5 1.1.5 1.4.1.4.1.7 0 1-.1.2-.4.4-.7.6 0 0-.1 0-.2.1l-.6-1.3c.1-.1.2-.1.2-.1l.1-.1c0-.1 0-.2-.1-.3s-.2-.5-.4-.9c-.2-.6-.4-.9-.5-1s-.2-.1-.4-.1c-.2.1-.2.2-.2.3s.2.6.5 1.4c.3.7.5 1.2.5 1.4.1.2.1.5.1.6 0 .2-.1.4-.2.5s-.4.3-.7.4c-.4.2-.7.3-1 .2-.2 0-.3-.1-.5-.2-.1-.1-.3-.3-.4-.6s-.4-.8-.7-1.6c-.3-.7-.5-1.1-.6-1.5-.1-.3-.1-.6-.1-.8s.1-.4.2-.5.3-.3.7-.4z" stroke="#000" stroke-miterlimit="10" stroke-width=".2"/></g></svg>