<?xml version="1.0" encoding="utf-8"?>
<!-- Generator: Adobe Illustrator 23.0.1, SVG Export Plug-In . SVG Version: 6.00 Build 0)  -->
<svg version="1.1" id="Capa_1" xmlns="http://www.w3.org/2000/svg" xmlns:xlink="http://www.w3.org/1999/xlink" x="0px" y="0px"
	 viewBox="0 0 558.5 558.4" style="enable-background:new 0 0 558.5 558.4;" xml:space="preserve">
<style type="text/css">
	.st0{fill:#010101;}
	.st1{fill:#0B0D08;}
	.st2{fill:#FFED00;}
	.st3{fill:#E73631;}
	.st4{enable-background:new    ;}
</style>
<title>QUIAN GAO</title>
<path class="st0" d="M278.9,558.4C128,560.4-3.4,433.3,0.1,272.4C3.3,126.3,125.3-3.6,286.9,0.1c145.5,3.3,275.6,125.2,271.5,287.5
	C554.6,434.7,432.3,560.1,278.9,558.4z"/>
<path class="st1" d="M482.2,402.9c-1.5,3.7-3.6,7.1-6.4,10C475.7,408.2,478.6,405.3,482.2,402.9z"/>
<path class="st1" d="M476.6,398.8c0.6-2.5,1.9-4.7,3.7-6.4C480.3,395.3,479.5,397.7,476.6,398.8z"/>
<path class="st1" d="M472.7,405c0.8-2.4,2.1-4.5,4-6.2C476.4,401.5,475.9,404.1,472.7,405z"/>
<path class="st1" d="M470.3,408.8c0.3-1.6,1.2-3,2.5-3.9C473.2,407,472.4,408.3,470.3,408.8z"/>
<path class="st1" d="M467.8,412.5c0.3-1.6,1.2-2.9,2.5-3.9C470.7,410.7,469.9,412.1,467.8,412.5z"/>
<path class="st1" d="M475.8,412.8c-0.3,1.6-1.2,3-2.6,3.8c-0.4-1.7,0.7-3.4,2.4-3.8C475.7,412.9,475.7,412.8,475.8,412.8z"/>
<path class="st1" d="M463.1,420.3l-1.2,1.2l-0.3-0.3c0-0.6,0.4-1.2,1.1-1.3L463.1,420.3z"/>
<ellipse class="st2" cx="276.3" cy="278.8" rx="201.3" ry="201.5"/>
<path class="st3" d="M296,484.1c-47.5,4.2-91.5-5.9-131.7-31.7c-1.2-0.8-1.9,0-2.5,0.9c-1,2.3-0.3,4.6,0.3,6.8
	c2.1,7.2,4,14.5,5.7,21.8c0.6,2.4,1.7,4.8,0.2,7.3c-1.7,1.7-4.1,1.9-6.2,2.6c-7.6,2.1-15.4,4-22.9,6.4c-2.3,0.7-5.1,1-5.3,4.4
	c2.2,1.2,4.4,2.4,6.5,3.7c43.4,25.1,89.9,38.4,140.3,37.7c11.4,0.1,22.4-0.2,33.6-2.5l2.1-0.2l1.3-0.3c2.5-0.3,8.3-1.6,12.8-2.5
	c32-6.5,61.6-19,89.5-35.8c-0.2-3.3-3-3.6-5.3-4.3c-7.7-2.4-15.6-4.3-23.3-6.5c-2.3-0.7-5-0.8-6.9-4.3c1.5-7.3,3.6-15.3,5.7-23.2
	c1-3.5,2.8-7,1.4-10.9c-0.6-0.9-1.3-1.6-2.5-0.8c-24.7,15.9-51.5,26.3-80.7,30.3L296,484.1z"/>
<path class="st2" d="M332.5,513.9l-10.9-7.2l-11,7l3.5-12l-9.1-7.5l11.9,0.1c1.6-3.9,3.1-7.7,4.9-12.1l4.6,12l12.2,0.1l-0.6,0.4
	l-9.3,7.1C329.9,505.6,331.1,509.5,332.5,513.9z"/>
<path class="st2" d="M243.2,513.9l-10.9-7.2l-11,7l3.5-12l-9.1-7.5l11.9,0.1l4.9-12.1l4.6,12l12.2,0.1l-0.6,0.4l-9.3,7.1
	C240.6,505.6,241.8,509.5,243.2,513.9z"/>
<path class="st2" d="M294.4,539.5l-17.6-11.6L259,539.2c2-6.9,3.8-13,5.7-19.4L250,507.6l19.3,0.2l7.8-19.5l7.5,19.3l19.7,0.2
	l-1,0.7L288.2,520C290.2,526.2,292.2,532.4,294.4,539.5z"/>
<path class="st3" d="M437.2,311.9l33.1-33.1l-33.1-33.1l-71.8,14.8c-2.3-11.3-6.6-22.2-12.8-31.9l60.9-40.1v-46.8h-46.8l-39.8,60.4
	c-9.7-6.6-20.5-11.3-32-13.7l14.5-70.5l-33-33.1l-33.1,33.1l14.5,70.5c-11.5,2.4-22.3,7.1-32,13.7L186,141.7h-46.8v46.8l60.9,40.2
	c-6.2,9.8-10.6,20.6-12.8,31.9l-71.8-14.8l-33.1,33.1l33.1,33.1l71.8-14.7c2.2,11.3,6.6,22.1,12.8,31.9l-61,40V416h46.8l39.8-60.5
	c9.7,6.6,20.5,11.3,32,13.7l-14.5,70.5l33.1,33.1l33.1-33.1l-14.5-70.5c11.5-2.4,22.3-7.1,32-13.7l39.8,60.5h46.8v-46.8l-60.9-40.1
	c6.2-9.7,10.5-20.5,12.7-31.9L437.2,311.9z M276.3,364.1c-46.3,0-83.8-38.2-83.8-85.2s37.5-85.2,83.8-85.2s83.8,38.2,83.8,85.2
	S322.6,364.1,276.3,364.1z"/>
<path class="st3" d="M319.3,335.3l-43.8-28.9l-44.3,28.2c5-17.2,9.4-32.4,14.1-48.3L208.8,256l48,0.4c6.4-15.9,12.5-31.1,19.5-48.6
	l18.6,48.2l49.1,0.4l-2.4,1.8L304,286.9L319.3,335.3z"/>
<path class="st3" d="M43,307l24.3-41.8c0.6-8.6,1.6-17.1,3.2-25.5l-29,30.5c-0.1,2.9-0.2,5.7-0.2,8.6C41.3,288.2,41.9,297.6,43,307z
	"/>
<path class="st3" d="M98.7,390l-0.9,41.5c18,21.1,39.6,38.8,63.8,52.4l-10.1-36.8C130.4,431.5,112.6,412.1,98.7,390z"/>
<path class="st3" d="M72.7,328.3l-12.8,42.2c7.8,18.4,17.9,35.7,30.1,51.5l1-45.3C82.9,361.3,76.8,345.1,72.7,328.3z"/>
<path class="st3" d="M66.8,281.8l-22,37.9c2.3,13.2,5.8,26.1,10.3,38.7l14.2-46.7C67.8,301.8,67,291.8,66.8,281.8z"/>
<path class="st3" d="M34.3,278.8c0-3.1,0.1-6.2,0.2-9.3L11.9,246c-1.3,10.9-2,21.8-2,32.7c0,5.6,0.2,11.2,0.5,16.7l26,15.4
	C35,300.3,34.3,289.6,34.3,278.8z"/>
<path class="st3" d="M52.8,372l-28.7-7.1c7.5,21.9,17.8,42.7,30.6,61.9l30.4,0.5C71.9,410.4,61.1,391.8,52.8,372z"/>
<path class="st3" d="M105.2,450c-4.7-4.7-9.2-9.6-13.5-14.6l-31.3-0.5c17.4,24.1,38.7,45.1,63.1,62.2l31-9
	C136.5,477.6,119.9,464.8,105.2,450z"/>
<path class="st3" d="M38,321.2l-26.8-15.9c1.7,17.2,5.1,34.2,10,50.7l28,6.9C44.3,349.4,40.5,335.4,38,321.2z"/>
<path class="st3" d="M89.2,101.1c0,0-13.7,9.2-16,11.4s-46.8,44.5-60,122.8l10.7,10.8C27.6,207.8,46.6,147.4,89.2,101.1z"/>
<path class="st3" d="M44.5,254.6c0.2-28.6,21.8-99.7,59.7-138.5C74.6,129,33.3,209.5,32.9,255.3l5.7,5.8L44.5,254.6z"/>
<path class="st3" d="M117.8,134.8c-5.1-0.2-44.6,33.1-57.6,102.8L75,221.4C76.2,213.7,75.8,193.3,117.8,134.8z"/>
<path class="st3" d="M511.5,304.3l-24.3-41.8c-0.5-8.6-1.6-17.1-3.2-25.5l29,30.6c0.1,2.9,0.2,5.7,0.2,8.6
	C513.2,285.6,512.6,294.9,511.5,304.3z"/>
<path class="st3" d="M455.8,387.3l0.9,41.5c-18,21.1-39.6,38.8-63.8,52.4l10.1-36.8C424,428.8,441.9,409.5,455.8,387.3z"/>
<path class="st3" d="M481.8,325.6l12.8,42.1c-7.8,18.4-17.9,35.6-30.1,51.4l-1-45.3C471.6,358.6,477.7,342.4,481.8,325.6z"/>
<path class="st3" d="M487.6,279.1l22,37.9c-2.3,13.2-5.8,26.1-10.3,38.7L485.1,309C486.6,299.1,487.5,289.1,487.6,279.1z"/>
<path class="st3" d="M520.1,276.2c0-3.1-0.1-6.2-0.2-9.3l22.6-23.5c1.3,10.9,2,21.8,2,32.7c0,5.6-0.2,11.2-0.5,16.7l-26,15.4
	C519.4,297.7,520.1,286.9,520.1,276.2z"/>
<path class="st3" d="M501.6,369.4l28.7-7.1c-7.5,21.9-17.8,42.7-30.6,61.9l-30.4,0.5C482.5,407.8,493.4,389.2,501.6,369.4z"/>
<path class="st3" d="M449.3,447.3c4.7-4.7,9.2-9.6,13.5-14.6l31.3-0.5c-17.4,24.1-38.7,45.1-63.1,62.2l-31-9
	C418,474.9,434.5,462.1,449.3,447.3z"/>
<path class="st3" d="M516.5,318.5l26.8-15.9c-1.7,17.2-5.1,34.2-10,50.7l-28,6.9C510.2,346.7,514,332.7,516.5,318.5z"/>
<path class="st3" d="M465.3,98.5c0,0,13.7,9.2,16,11.4s46.8,44.4,60,122.8l-10.7,10.8C526.9,205.1,507.9,144.7,465.3,98.5z"/>
<path class="st3" d="M509.9,251.9c-0.2-28.6-21.8-99.7-59.7-138.5c29.6,12.9,70.9,93.4,71.3,139.2l-5.7,5.8L509.9,251.9z"/>
<path class="st3" d="M436.7,132.1c5.1-0.2,44.6,33.1,57.6,102.8l-14.9-16.2C478.3,211,478.6,190.6,436.7,132.1z"/>
<g class="st4">
	<path class="st2" d="M130.1,74.4l13.7-9.3c3.5-2.4,5.5-1.8,9.1,3.5l10,14.7c3.6,5.2,3.3,7.3-0.2,9.7l-2,1.4l7.2,5.6l-4.3,2.9
		l-7-5.8l-7.7,5.2c-3.5,2.4-5.5,1.8-9.1-3.5l-10-14.7C126.4,78.9,126.6,76.8,130.1,74.4z M151.6,92.9l-5.8-4.9l1.9-4l7.9,6.2l4-2.7
		l-12-17.7l-14.3,9.7l12,17.7L151.6,92.9z"/>
</g>
<g class="st4">
	<path class="st2" d="M145.6,105c-2.6,0-4.6-2.1-6.9-5.4l-10-14.7c-2.3-3.4-3.1-5.6-2.7-7.5c0.4-2,1.9-3.2,3.3-4.1L143,64
		c4.8-3.3,7.7-1.1,11.1,3.8l10,14.7c2.3,3.4,3.1,5.6,2.7,7.5c-0.4,2-1.9,3.2-3.3,4.1l-0.4,0.3l7.2,5.6l-6.8,4.6l-7-5.8l-6.8,4.6
		C148.2,104.5,146.9,105,145.6,105z M147.2,65.2c-0.8,0-1.6,0.5-2.5,1.1L131,75.6c-1.3,0.9-1.9,1.6-2.1,2.3
		c-0.2,1.1,0.5,2.8,2.3,5.4l10,14.7c3.5,5.2,4.7,4.7,7.1,3.1l8.5-5.8l7,5.8l1.8-1.2l-7.2-5.6l3.6-2.5c1.3-0.9,1.9-1.6,2.1-2.3
		c0.2-1.1-0.5-2.8-2.3-5.4l-10-14.7C149.7,66.3,148.4,65.2,147.2,65.2z M144.8,99.2l-13.6-20L147.9,68l13.6,20l-6,4.1l-7.3-5.8
		l-0.7,1.4l6.4,5.4L144.8,99.2z M135.2,80l10.4,15.3l3.7-2.5l-5.2-4.4l3.1-6.6l8.5,6.7l1.9-1.3l-10.4-15.3L135.2,80z"/>
</g>
<g class="st4">
	<path class="st2" d="M162.8,54.3l4.7-2.4L182.6,82l-4.7,2.4L162.8,54.3z"/>
</g>
<g class="st4">
	<path class="st2" d="M177.3,86.3L161,53.6l7.2-3.6l16.3,32.7L177.3,86.3z M164.7,54.9l13.8,27.6l2.1-1.1l-13.8-27.6L164.7,54.9z"/>
</g>
<g class="st4">
	<path class="st2" d="M190.3,42.1l4.8-1.7l23.6,27.3l-5.5,2l-5-6l-13.4,4.8l0.1,7.8l-4.9,1.8L190.3,42.1z M203.9,58.7l-9.2-11.3V62
		L203.9,58.7z"/>
</g>
<g class="st4">
	<path class="st2" d="M188.4,80.1l0.5-39l6.6-2.4L221,68.3l-8.4,3l-5-6l-11.5,4.2l0.1,7.8L188.4,80.1z M191.7,43.1l-0.5,33l2-0.7
		l-0.1-7.8l15.3-5.5l5,6l2.7-1l-21.6-25L191.7,43.1z M193.3,64.1l0.1-20.6l13,15.9L193.3,64.1z M196.1,51.4V60l5.5-2L196.1,51.4z"/>
</g>
<g class="st4">
	<path class="st2" d="M220.1,32.5l3.5-0.6l19.1,16.8c1.1,0.9,2.2,1.9,3.2,3.1c-0.6-2.7-1.1-4.7-1.3-5.7l-3.2-17.5l4.6-0.8l6.1,33.3
		l-3.5,0.6l-19.9-17.6c-0.8-0.7-1.5-1.4-2.3-2.4c0.6,2.5,1,4.3,1.2,5.2l3.3,18l-4.6,0.8L220.1,32.5z"/>
</g>
<g class="st4">
	<path class="st2" d="M225,67.5l-6.6-36.1l5.6-1l19.4,17c-0.1-0.4-0.2-0.8-0.2-1.1l-3.4-18.9l7.4-1.4l6.6,36.1l-5.6,1L228.8,46
		c0.1,0.3,0.1,0.5,0.1,0.6l3.5,19.4L225,67.5z M221.7,33.7l5.6,30.5l1.8-0.3l-3-16.6c-0.1-0.8-0.5-2.4-1.2-5.2l-1.5-5.9l3.9,4.6
		c0.8,0.9,1.6,1.7,2.2,2.2L249,60.2l1.4-0.3l-5.6-30.5l-1.8,0.3l2.9,16.1c0.2,1,0.6,3,1.2,5.6l1.3,5.7l-3.8-4.5c-0.8-1-1.8-1.9-3-3
		L223,33.3L221.7,33.7z"/>
</g>
<g class="st4">
	<path class="st2" d="M268.8,32.3v21.4h16.3v-7.5h-8.5v-5.8h13.6V52c0,6.3-1.4,8-5.6,8h-15.5c-4.2,0-5.6-1.6-5.6-8V34.3
		c0-6.3,1.4-8,5.6-8h15.5c4.1,0,5.6,1.6,5.6,7.6c0,0.3,0,0.5,0,0.8l-5.1,1.4v-3.8H268.8z"/>
</g>
<g class="st4">
	<path class="st2" d="M284.7,61.5h-15.5c-5.8,0-7-3.4-7-9.4V34.3c0-5.9,1.1-9.4,7-9.4h15.5c5.8,0,7,3.5,7,9.1v1.9l-7.9,2.1v-4.2
		h-13.5v18.5h13.5v-4.7h-8.5V39h16.5v13C291.7,58,290.5,61.5,284.7,61.5z M269.2,27.8c-2.9,0-4.2,0.3-4.2,6.6v17.8
		c0,6.3,1.3,6.6,4.2,6.6h15.5c2.9,0,4.2-0.3,4.2-6.6V41.9H278v2.9h8.5v10.3h-19.2V30.9h19.2v3.4l2.3-0.6c0-5.7-1.5-5.9-4.2-5.9
		C284.6,27.8,269.2,27.8,269.2,27.8z"/>
</g>
<g class="st4">
	<path class="st2" d="M331.4,38.2L326,58.9l15.8,4.1l1.9-7.3l-8.3-2.1l1.5-5.6l13.2,3.4l-2.9,11.2c-1.6,6.1-3.3,7.4-7.4,6.3l-15-3.9
		c-4.1-1.1-5-3-3.4-9.1l4.5-17.2c1.6-6.1,3.3-7.4,7.4-6.3l15,3.9c4,1,5,2.9,3.5,8.8c-0.1,0.3-0.1,0.5-0.2,0.8l-5.3,0.1l1-3.7
		L331.4,38.2z"/>
</g>
<g class="st4">
	<path class="st2" d="M342,70.7c-0.8,0-1.6-0.1-2.6-0.4l-15-3.9c-1.5-0.4-3.4-1.1-4.5-2.8c-1-1.7-1-4,0.1-8l4.5-17.2
		c1.5-5.7,3.5-8.8,9.2-7.3l15,3.9c1.5,0.4,3.4,1.1,4.5,2.8c1,1.7,1,4,0,7.7l-0.5,1.8l-8.2,0.1l1.1-4.1l-13.1-3.4l-4.7,17.9l13.1,3.4
		l1.2-4.5l-8.3-2.1l2.2-8.3l16,4.1L348.7,63C347.3,67.8,345.7,70.7,342,70.7z M331,33.5c-1.6,0-2.6,1.1-3.8,5.6l-4.5,17.2
		c-0.8,3.1-0.9,4.9-0.4,5.9c0.4,0.6,1.2,1.1,2.7,1.5l15,3.9c2.7,0.7,4.1,0.8,5.7-5.3l2.6-9.9l-10.5-2.7l-0.7,2.8l8.3,2.1l-2.6,10
		l-18.6-4.8l6.1-23.4l18.6,4.8l-0.9,3.2h2.4c0.7-2.7,0.7-4.3,0.2-5.3c-0.4-0.7-1.2-1.1-2.7-1.5l-15-3.9
		C332.2,33.7,331.6,33.5,331,33.5z"/>
</g>
<g class="st4">
	<path class="st2" d="M376.6,46.9l4.6,2.1l-2,36.1l-5.4-2.4l0.5-7.9l-13-5.8l-5.4,5.7l-4.8-2.1L376.6,46.9z M374.9,68.4l1.2-14.5
		L366,64.4L374.9,68.4z"/>
</g>
<g class="st4">
	<path class="st2" d="M380.5,87.2l-8.1-3.7l0.5-7.9l-11.2-5l-5.4,5.7l-7.5-3.4l27.5-27.7l6.4,2.9L380.5,87.2z M375.3,81.8l2.6,1.2
		l1.8-33.1l-2.8-1.3L353.7,72l2,0.9l5.4-5.7l14.8,6.7L375.3,81.8z M376.2,70.5l-12.6-5.7L377.9,50L376.2,70.5z M368.4,63.9l5.3,2.4
		l0.7-8.6L368.4,63.9z"/>
</g>
<g class="st4">
	<path class="st2" d="M408.3,63.2l13.7,9.1c3.5,2.3,3.7,4.4,0.2,9.7l-9.8,14.8c-3.5,5.3-5.5,5.9-9,3.6l-13.7-9.1
		c-3.5-2.3-3.7-4.4-0.2-9.7l9.8-14.8C402.7,61.5,404.8,60.9,408.3,63.2z M407.1,95.3L419,77.5L404.7,68l-11.8,17.8L407.1,95.3z"/>
</g>
<g class="st4">
	<path class="st2" d="M406.7,103.1c-1.2,0-2.6-0.5-4.1-1.5l-13.7-9.1c-1.5-1-3.3-2.5-3.4-4.9c-0.1-1.8,0.8-3.8,2.8-6.8l9.8-14.8
		c3.3-5,6.1-7.2,11-4l13.7,9.1c1.5,1,3.3,2.5,3.4,4.9c0.1,1.8-0.8,3.8-2.8,6.8l-9.8,14.8C411.3,101,409.3,103.1,406.7,103.1z
		 M405,63.3c-1.2,0-2.5,1.1-4.6,4.2l-9.8,14.8c-1.6,2.4-2.3,4-2.3,5.1c0,0.7,0.3,1.4,2.1,2.6l13.7,9.1c2.3,1.5,3.6,2.1,7.1-3.2
		l9.8-14.7c1.6-2.4,2.3-4,2.3-5.1c0-0.7-0.3-1.4-2.1-2.6l-13.7-9.1C406.6,63.8,405.8,63.3,405,63.3z M407.5,97.3l-16.6-11.1
		L404.3,66L421,77.1L407.5,97.3z M394.8,85.4l12,7.9L417,77.9L405,70L394.8,85.4z"/>
</g>
<rect x="379.9" y="38.3" transform="matrix(0.4106 -0.9118 0.9118 0.4106 186.6151 373.1931)" class="st2" width="4.2" height="7.9"/>
</svg>
