<svg enable-background="new 0 0 113.4 113.4" viewBox="0 0 113.4 113.4" xmlns="http://www.w3.org/2000/svg"><circle cx="56.7" cy="56.7" fill="#0b0a0a" r="56.7"/><circle cx="56.7" cy="56.7" fill="#fff" r="54.4"/><circle cx="56.7" cy="56.7" fill="#0b0a0a" r="48.6"/><circle cx="56.7" cy="56.7" fill="#ef7e00" r="46.7"/><circle cx="56.7" cy="56.7" fill="#0b0a0a" r="46.4"/><circle cx="56.7" cy="56.7" fill="#ef7e00" r="44.3"/><g fill="#fff"><path d="m20.4 66v6c0 .2-.1.3-.2.4s-.3.1-.5.1-.4 0-.5-.1-.2-.2-.2-.4v-6h-3.1c-.2 0-.3 0-.3-.1-.1-.1-.1-.2-.1-.4s0-.3.1-.4c0-.2.1-.2.3-.2h7.7c.2 0 .3 0 .3.1.1.1.1.2.1.4s0 .3-.1.4-.2.1-.3.1h-3.2z"/><path d="m27.3 72.4c-2.1 0-3.1-.6-3.1-1.9v-3.7c0-1.3 1-1.9 3.1-1.9h3c2.1 0 3.1.6 3.1 1.9v3.7c0 1.3-1 1.9-3.1 1.9zm3-1.1c.6 0 1.1-.1 1.3-.2.3-.2.4-.4.4-.6v-3.7c0-.2-.1-.4-.4-.6s-.7-.2-1.3-.2h-2.9c-.6 0-1.1.1-1.3.2-.3.2-.4.3-.4.6v3.7c0 .2.1.4.4.6s.7.2 1.3.2z"/><path d="m45.5 65.3c.1-.1.2-.2.4-.3.1-.1.3-.1.5-.1.5 0 .8.2.8.7v6.4c0 .2-.1.3-.2.4s-.3.1-.5.1-.4 0-.5-.1-.2-.2-.2-.4v-4.9l-4.2 5c-.1.1-.2.2-.4.3-.1.1-.3.1-.5.1s-.4 0-.5-.1-.3-.2-.4-.3l-4.2-5v4.9c0 .2-.1.3-.2.4s-.3.1-.5.1-.4 0-.5-.1-.2-.2-.2-.4v-6.4c0-.5.3-.7.8-.7.3 0 .6.1.8.4l4.8 5.8z"/><path d="m51.1 72.4c-2.1 0-3.1-.6-3.1-1.9v-3.7c0-1.3 1-1.9 3.1-1.9h5.1c.2 0 .3 0 .3.1.1.1.1.2.1.4s0 .3-.1.4-.2.1-.3.1h-5.1c-.6 0-1.1.1-1.3.2-.3.2-.4.3-.4.6v3.7c0 .2.1.4.4.6s.7.2 1.3.2h5.1c.2 0 .3 0 .3.1s.1.2.1.4 0 .3-.1.4c0 .1-.2.1-.3.1h-5.1z"/><path d="m62.4 64.9c.2 0 .4 0 .5.1l.3.3 4.5 6.5c0 .1.1.2.1.2 0 .1 0 .1-.1.2s-.1.1-.2.2c-.1 0-.2.1-.2.1-.1 0-.2 0-.3 0s-.2 0-.3 0-.1-.1-.2-.2l-1.2-1.8h-5.8l-1.2 1.8c0 .1-.1.1-.2.2-.1 0-.2 0-.3 0s-.2 0-.3 0-.2-.1-.2-.1c-.1-.1-.1-.1-.2-.2s-.1-.1-.1-.2 0-.1.1-.2l4.3-6.5c.1-.1.2-.2.3-.3.4-.1.5-.1.7-.1zm-2.1 4.5h4.3l-2.2-3.2z"/><path d="m70.8 66v6c0 .2-.1.3-.2.4s-.3.1-.5.1-.4 0-.5-.1-.2-.2-.2-.4v-6h-3.1c-.2 0-.3 0-.3-.1s-.1-.3-.1-.5 0-.3.1-.4.2-.1.3-.1h7.7c.2 0 .3 0 .3.1.1.1.1.2.1.4s0 .3-.1.4-.2.1-.3.1h-3.2z"/><path d="m78 69.2c-2.1 0-3.1-.6-3.1-1.9v-.4c0-1.3 1-1.9 3.1-1.9h1c .2 0 .3 0 .3.1.1.1.1.2.1.4s0 .3-.1.4-.2.1-.3.1h-1.1c-.6 0-1 .1-1.3.2s-.4.3-.4.6v.4c0 .2.1.4.4.6s.7.2 1.3.2h2.5c2.1 0 3.1.6 3.1 1.9v.5c0 1.3-1 1.9-3.1 1.9h-5.1c-.2 0-.3 0-.3-.1-.1 0-.1-.1-.1-.3s0-.3.1-.4.2-.1.3-.1h5.1c.6 0 1-.1 1.3-.2.3-.2.4-.3.4-.6v-.5c0-.2-.1-.4-.4-.6s-.7-.2-1.3-.2h-2.4z"/></g><path d="m40.8 13.8 11.5 11s11.2 12 16.3-2.3c2.6-7.3 3-8.3 3-8.3l4.2 1.8 2.1 45.2-45.4-43.9z" fill="#0b0a0a"/><path d="m12.1 61.5s45.6-3.9 28.7-21.4c-13.8-13.8-15.2-15.9-15.2-15.9l4.8-5.6 46.7 44.3h-65.5z" fill="#0b0a0a"/></svg>