<?xml version="1.0" encoding="UTF-8"?><svg id="Capa_1" xmlns="http://www.w3.org/2000/svg" viewBox="0 0 566.93 566.93"><defs><style>.cls-1{fill:#6e488d;stroke:#6e488d;stroke-miterlimit:10;}.cls-2{fill:#e30613;}</style></defs><circle class="cls-2" cx="283.46" cy="283.46" r="280.63"/><g><circle class="cls-1" cx="283.03" cy="273.65" r="48.46"/><path class="cls-1" d="m273.69,466.34v-131.04s-70.63-8-52.42-87.51l-59.08-34.65,10.66-16.44-46.2-28.43s-42.2,53.75-26.65,141.25l52.42-11.1-.89-17.77h18.66s-7.55,68.85,51.08,85.73c.44,1.33,0,42.2,0,42.2l52.42,57.75Z"/><path class="cls-1" d="m293.24,466.34v-131.04s70.63-8,52.42-87.51l59.08-34.65-10.66-16.44,46.2-28.43s42.2,53.75,26.65,141.25l-52.42-11.1.89-17.77h-18.66s7.55,68.85-51.08,85.73c-.44,1.33,0,42.2,0,42.2l-52.42,57.75Z"/><path class="cls-1" d="m231.04,231.35s50.19-52.86,102.61,0c.44,1.33,41.31-23.49,41.31-23.49,0,0-94.61-107-183.01,0l39.09,23.49Z"/></g><g><path class="cls-1" d="m70.06,276.76h-36.33v-61.4c5.26-3.08,10.97-6.43,17.14-10.05v-55.28c16.15-9.39,32.02-18.6,48.17-27.99v-20.1c17.91-10.3,35.48-20.4,53.66-30.85,6.02,10.36,11.97,20.62,18.31,31.53-33.69,19.43-67.15,38.72-100.95,58.21v115.93Z"/><path class="cls-1" d="m516.25,418.09c-16.49,9.57-32.17,18.68-48.21,27.99v20.11c-17.87,10.27-35.44,20.37-53.71,30.87-5.95-10.24-11.91-20.5-18.32-31.52,33.63-19.39,67.08-38.67,100.93-58.18v-115.91h36.28v61.43c-5.37,3.12-10.93,6.36-16.97,9.88v55.32Z"/><path class="cls-1" d="m497.02,160.85c-33.65-19.4-66.93-38.58-100.92-58.17,6.04-10.54,11.91-20.78,18.11-31.6,17.99,10.32,35.69,20.48,53.57,30.74v20.11c15.94,9.26,31.97,18.58,48.15,27.99v55.26c5.79,3.38,11.51,6.72,17.36,10.15v61.39h-36.28v-115.85Z"/><path class="cls-1" d="m170.76,465.5c-6.17,10.81-12.04,21.08-18.03,31.58-18.09-10.4-35.63-20.48-53.39-30.68v-20.04c-15.93-9.28-31.95-18.61-48.34-28.16v-55.25c-6.1-3.58-11.82-6.94-17.38-10.2v-61.2h36.25v115.7c33.63,19.42,67.03,38.71,100.89,58.26Z"/><path class="cls-1" d="m283.42,15.66c16.25,9.34,31.97,18.38,48.01,27.61,5.77-3.27,11.53-6.53,17.72-10.03,17.6,10.21,35.3,20.48,53.45,31.02-6.18,10.71-12.1,20.96-18.23,31.58-33.84-19.54-67.26-38.85-100.97-58.32-33.38,19.32-66.64,38.57-100.66,58.26-5.91-10.13-11.88-20.36-18.35-31.44,17.78-10.36,35.4-20.62,53.42-31.12,5.75,3.27,11.51,6.54,17.73,10.07,15.68-9.05,31.56-18.21,47.87-27.63Z"/><path class="cls-1" d="m217.91,534.76c-17.85-10.3-35.39-20.42-53.46-30.85,6.13-10.65,12.02-20.89,18.19-31.59,33.72,19.51,67.09,38.82,100.77,58.31,33.52-19.36,66.94-38.66,100.94-58.3,6.04,10.43,11.98,20.69,18.26,31.53-17.97,10.38-35.68,20.61-53.47,30.88-6-3.36-11.79-6.6-17.66-9.88-16.05,9.22-31.95,18.35-48.06,27.61-16.13-9.3-32.02-18.46-47.93-27.63-5.81,3.28-11.41,6.44-17.58,9.91Z"/></g></svg>