<svg enable-background="new 0 0 113.4 113.4" viewBox="0 0 113.4 113.4" xmlns="http://www.w3.org/2000/svg"><circle cx="56.7" cy="56.7" fill="#3d3d3d" r="56.7"/><circle cx="56.7" cy="56.7" fill="#fff" r="55"/><g stroke-miterlimit="10" stroke-width=".5"><path d="m47.5 4.3c2.8 0 4.1.9 5 3.7.5 1.7 1.5 3.2 2.9 4.3.9.7 1.7.6 2.6 0 1.4-1 2.4-2.3 2.8-3.9 1-3.7 3.2-4.5 6.7-3.9 8.5 1.7 16.2 5.4 22.9 10.9 2 1.7 3.9 3.5 5.6 5.4.6.7 1.2 1.4 1.5 2.3.8 1.8.7 3.5-.7 4.9-1.3 1.3-2.1 2.8-2.6 4.5-.5 1.8-3.1 3.2-5.1 3-4.8-.6-9.4.3-13.9 1.7-1.9.6-3.4 1.9-4.5 3.6-1.8 2.7-3.6 5.5-5.5 8.1-1.5 2-3.6 3.5-5.6 5-.5.3-1 .3-1.5 0-.8-.4-1.7-.5-2.4-.1-1.1.6-2 .2-2.9-.5-2.6-2-4.9-4.2-6.6-7-1.5-2.4-2.8-4.8-4.8-6.9-1.1-1.1-2.4-2-4-2.4-3.2-.9-6.4-1.5-9.7-1.7-.9-.1-1.8 0-2.6.1-2.8.4-5.3-1.2-6.2-3.9-.3-1-.8-1.9-1.6-2.7-2.8-2.7-2.6-5.2 0-8 6.8-7.7 15.3-12.9 25.2-15.7 1.6-.3 3.3-.9 5-.8z" fill="#3d3d3d" stroke="#bcce63"/><path d="m49.2 80.8c0-1.7.4-3.3 1.1-4.7.9-1.7 1.6-3.5 2.6-5.1 1.8-3.2 2.6-6.6 3-10.1 0-.2 0-.4.1-.6.1-.3.2-.7.7-.7.4 0 .5.4.6.7.2 1 .4 2 .5 3 .4 3.6 2.1 6.6 3.6 9.7 1 2 2.2 3.9 2.6 6.2.2 1.1.3 2.2 0 3.3-1.1 4.1-2.3 8.1-4.7 11.6-1.8 2.7-3.3 2.7-5.1 0-2.5-3.7-3.8-7.8-4.8-12.1-.2-.5-.1-.9-.2-1.2z" fill="#3d3d3d" stroke="#bcce63"/><path d="m62 43.1c-1.3 1.7-2.7 3.6-4.1 5.5-.6.7-1.4.9-2 .1-1.4-1.7-2.8-3.4-4.2-5-.8-.9-.8-1.8 0-2.8 1.2-1.6 2.4-3.2 3.6-4.8.9-1.3 1.5-1.3 2.5-.1 1.3 1.5 2.6 3.1 3.9 4.7.6.6.9 1.4.3 2.4z" fill="#8bcd1d" stroke="#c3e261"/></g></svg>