<?xml version="1.0" encoding="UTF-8"?><svg id="a" xmlns="http://www.w3.org/2000/svg" viewBox="0 0 566.93 566.93"><defs><style>.b,.c{fill:#fff;}.d{fill:#0d0703;}.c{font-family:Cambria, Cambria;font-size:74.22px;}</style></defs><circle class="b" cx="283.46" cy="283.46" r="279.21"/><g><circle class="b" cx="283.52" cy="275.54" r="265.17"/><path class="d" d="M552.11,232.49c-17.67-91.8-70.69-157.84-155.08-198.35-16.47-7.91-33.82-13.44-51.57-17.68-7.94-1.9-12.11-.22-14.11,5.28-2.32,6.38,.12,11.9,6.88,15.14,3.2,1.54,6.44,3.07,9.8,4.16,107.74,34.83,168.98,147.85,139.16,256.92-29.78,108.92-138.98,174.76-249.97,150.2-108.09-23.91-179.74-127.84-162.39-237.15,12.27-77.31,55.94-131.91,127.65-163.7,8.38-3.72,17.2-6.45,25.64-10.06,7.32-3.13,9.91-8.82,7.68-15.32-1.93-5.64-6.33-7.27-14.56-5.38C77.16,49.59-14.98,194.31,15.75,339.28c26.86,126.72,138.65,217.27,268.21,217.25,11.89,.22,23.71-.91,35.46-2.43,8.74-1.13,17.46-2.7,26.04-4.74,143.32-34.13,234.45-172.51,206.65-316.88Z"/></g><g><path d="M445.41,271.32c-2.88,.34-4.69,.24-5.97-1.91-.97-1.65-1.51-3.48-1.73-5.35-.57-4.82,.23-9.6,.62-14.38,.22-2.75,.26-5.47-.23-8.17-1.05-5.68-4.37-9.86-8.81-13.33-2.92-2.27-6.22-3.98-9.15-6.22-2.34-1.77-4.1-3.97-3.43-7.19,.52-2.46,2.17-4.3,3.84-6.05,1.56-1.63,3.23-3.18,4.56-4.99,4.86-6.63,7.32-13.95,6.2-22.27-.6-4.53-2.35-8.55-5.51-11.85-4.05-4.21-9.24-5.96-14.92-6.35-4.5-.3-8.83,.67-12.95,2.46-8.39,3.65-14.69,9.77-19.94,17.09-7.5,10.47-10.71,22.29-10.99,35.03-.07,3.05,.23,6.09,.48,9.13,.43,5.22,1.42,10.33,2.57,15.42,1.84,8.15,4.28,16.15,6.41,24.23,2.07,7.85,3.78,15.78,4.3,23.9,.3,4.76,.12,9.55-1.06,14.21-1.37,5.41-3.84,10.21-8.58,13.49-5.32,3.69-11.2,5.28-17.7,4.54-4.93-.56-9.23-2.46-12.83-5.83-5.08-4.76-7.33-10.87-7.87-17.63-.35-4.54,.24-9.05,1.19-13.51,1.41-6.63,3.64-12.99,6.18-19.25,6.14-15.18,11.88-30.5,16.67-46.16,2.04-6.67,4.07-13.36,4.56-20.35,.46-6.53,.1-13.04-1.6-19.41-3.64-13.63-11.17-24.6-22.53-32.97-10.16-7.48-21.62-11.38-34.1-12.27-6.08-.43-12.18-.12-18.2,1.03-9.48,1.81-18.4,5.09-26.52,10.39-5.96,3.89-11.19,8.59-15.38,14.37-7.06,9.73-10.26,20.84-11.29,32.65-.46,5.38-.15,10.76,.46,16.14,.58,5.15,1.55,10.22,2.78,15.24,2.17,8.88,4.98,17.58,8.06,26.18,3.07,8.56,6.49,17.01,8.49,25.91,1.66,7.37,2.8,14.79,1.18,22.34-1.38,6.38-4.23,11.93-9.53,15.94-5.37,4.08-11.5,5.33-18.09,4.18-3.92-.69-7.45-2.39-10.48-4.98-5.86-5-8.25-11.64-8.67-19.12-.24-4.33,.12-8.66,.82-12.93,1.21-7.3,3.18-14.42,5.49-21.46,2.92-8.89,6.35-17.62,8.71-26.71,2.16-8.26,3.64-16.64,4.05-25.16,.22-4.59,.06-9.19-.44-13.78-.55-5.04-1.51-9.96-3.23-14.72-2.45-6.75-6.22-12.58-11.97-17.01-4.29-3.31-9.13-5.37-14.39-6.48-4.01-.85-8.07-1.29-12.2-1.02,.19,1.23,.54,2.4,.52,3.57-.08,6.29-4.68,8.67-10.1,7.96-4.34-.56-8.06-2.58-10.99-6.1-1.29,.86-2.55,1.72-3.83,2.55-2.78,1.8-5.64,1.96-8.56,.33-.84-.46-1.67-.97-2.5-1.45-2.16-1.26-4.26-2.73-6.98-2.07-2.39,.57-4.76,.01-7.12-.16-2.33-.18-4.65-.53-6.99-.41-.8,.05-1.69,.14-2.18,.98,.11,1.99,1.4,2.66,5.22,2.59-1.76,.83-3.24,.67-4.67-.13-1.07-.59-1.57-1.51-1.29-2.83,.99-1.36,2.56-1.34,4.02-1.41,4.59-.21,9.14,.88,13.76,.29,1.5-.19,2.72-.64,3.74-1.67,.64-.66,1.19-1.42,1.77-2.14,1.77-2.24,4.05-3.44,7.3-2.4,3.84,1.24,6.48,3.97,8.93,6.93,3.5,4.24,7.73,6.7,13.42,6.17,2.96-.28,5.41-2.12,6.02-5.02,.67-3.18-.49-5.88-2.67-8.14-4.01-4.16-9.2-5.44-14.73-5.72-5.04-.25-10.08,.08-15.06,.82-6.54,.98-13.01,2.35-19.23,4.7-3.72,1.4-7.41,2.89-10.27,5.79-2.51,2.55-2.09,5.25,.39,7.48,3.41,3.06,7.56,4.16,12.03,4.32,6.77,.25,13.51-.76,20.29-.54,2.33,.08,4.66,.27,6.86,1.1,3.15,1.19,6.16,2.65,8.14,5.55,1.39,2.04,.8,3.8-1.46,4.77-2.57,1.11-5.32,1.2-8.03,1.32-4.96,.22-9.88-.44-14.81-.83-4.68-.38-9.34-.61-13.99,.16-.99,1.19-.83,1.95,.56,2.5,.58,.24,1.18,.33,1.81,.3,2.49-.14,4.95,.14,7.37,.62,6.78,1.35,13.49,3.11,20.42,3.7,5,.43,9.96,.46,14.82-.89,3.66-1.02,6.88-2.81,9.36-5.84,1.87-2.3,2.95-4.93,3.74-7.98,1.27,0,2.46-.02,3.65,0,5.24,.09,8.84,2.73,11.22,7.25,2.45,4.63,2.93,9.72,3.22,14.81,.19,3.32-.16,6.62-.47,9.93-.38,4.02-1.04,7.98-2.1,11.88-2.52,9.29-6.72,17.86-11.11,26.35-4.37,8.47-9.02,16.79-12.75,25.58-3.38,7.96-6.06,16.13-6.71,24.79-.45,6.09,.02,12.16,1.63,18.1,3.72,13.76,11.4,24.84,22.86,33.23,8.81,6.46,18.77,10.14,29.63,11.25,5.52,.56,11.04,.24,16.47-.82,11.49-2.24,21.43-7.51,29.76-15.73,6.25-6.17,10.89-13.44,14.16-21.59,2.4-5.98,3.88-12.18,4.47-18.57,.38-4.05,.4-8.11,.11-12.19-.3-4.05-.76-8.06-1.48-12.03-1.59-8.89-4.09-17.56-6.74-26.18-4.17-13.57-8.65-27.05-12.18-40.81-1.38-5.38-3.07-10.71-2.31-16.46,.66-5.02,2.63-9.35,6.24-12.76,5.38-5.08,12.08-7.17,19.34-7.56,3.8-.2,7.55,.26,11.21,1.31,5.65,1.62,10.57,4.4,14.01,9.28,4.05,5.75,4.52,12.15,2.79,18.77-2.37,9.06-5.46,17.91-8.5,26.76-4.48,13.04-9.4,25.92-13.55,39.07-2.56,8.13-4.52,16.41-5.11,24.92-.42,6.04-.17,12.07,.93,18.06,2.24,12.18,7.18,22.97,15.82,31.98,4.84,5.05,10.54,8.75,16.94,11.4,6.91,2.87,14.12,4.34,21.6,4.85,5.11,.35,10.16,.04,15.17-.69,5.82-.85,11.45-2.51,16.82-4.96,8.49-3.87,15.59-9.47,20.88-17.17,5.84-8.5,8.45-18.14,9.23-28.3,.42-5.46,.23-10.93-.45-16.39-.58-4.71-1.4-9.37-2.59-13.95-2.19-8.38-5.55-16.32-8.93-24.26-3.99-9.39-8.08-18.75-10.21-28.79-1.36-6.44-2.15-12.93-1.19-19.54,1.17-8.14,4.51-15.13,10.74-20.58,2.28-1.99,4.89-3.53,7.84-4.45,5.52-1.73,9.05,1.58,8.85,6.81-.1,2.78-1.27,5.18-2.65,7.47-1.54,2.56-3.24,5.03-4.85,7.55-2.4,3.76-4.18,7.78-4.15,12.31,.03,5.39,2.4,9.63,6.84,12.72,3.18,2.22,6.62,3.98,10.13,5.59,6.1,2.82,9.99,7.28,11.07,14.03,.73,4.57,.8,9.21,1.39,13.79,.4,3.1,1.02,6.14,2.56,8.91,.84,1.5,2.14,2.27,3.86,2.38,1.74,.12,3.41-.19,5.06-.71,1.4-.44,2.83-.78,4.24-1.16-1.73,.07-3.39,.49-5.07,.69Zm-233.01-78.37s.03-.07,.04-.11c.01,.02,.03,.03,.02,.05,0,.02-.03,.04-.06,.06Zm44.35,53.8v-.04s0,.03,0,.04h0Zm84.41-90.5s.04,.08,0,.17c0-.09,0-.17,0-.17Z"/><path d="M135.12,179.58c1.23,.99,2.3,.91,3.42-.18,.73-.7,1.38-1.49,2.03-2.27,1.46-1.74,3.04-1.98,4.86-.6,.84,.64,1.58,1.42,2.37,2.13,1.19,1.06,2.28,1.19,3.59,.3,.73-.49,1.37-1.11,2.04-1.69,1.74-1.5,3.21-1.51,4.93,0,.6,.53,1.13,1.12,1.71,1.67,1.1,1.07,2.38,1.32,3.77,.68,1.12-.52,2.07-1.29,2.98-2.27-1.28-.13-2.09,.68-2.99,1.15-1.2,.63-2.2,.49-3.14-.38-.61-.57-1.16-1.21-1.74-1.81-1.88-1.91-3.45-2.02-5.58-.41-.6,.45-1.16,.96-1.77,1.38-1.3,.89-2.27,.81-3.48-.18-.77-.63-1.25-1.48-1.92-2.19-1.85-1.95-3.55-1.99-5.45-.12-.66,.65-1.31,1.32-1.98,1.96-1.15,1.1-2.13,1.18-3.42,.26-.87-.62-1.6-1.39-2.33-2.16-1.45-1.53-3.13-2.43-5.32-1.66-1.05,.37-1.95,1.01-2.89,1.6-3.29,2.08-6.72,3.34-10.75,2.57-8.08-1.55-11.49-10.1-7.7-16.09h0c.19-.19,.36-.39,.35-.69-.41-.12-.44,.23-.56,.47-.46,.3-.79,.72-.99,1.21-1.65,3.91-1.66,7.71,.88,11.3,1.76,2.49,4.22,4.08,7.06,5.26-5.79,2.33-7.37,7.49-5.86,10.89,0-.5,.05-.86,0-1.2-.7-3.99,2.94-8.16,7.29-8.35,1.78-.08,3.6-.17,5.37-.61,2.51-.63,4.53-2.1,6.63-3.47,1.64-1.07,3.26-1.25,4.83,.15,1.25,1.12,2.46,2.28,3.76,3.33Z"/><path d="M152.55,163.77c2.35,0,4.15-1.72,4.15-4,0-2.23-1.78-4.05-3.98-4.07-2.35-.03-4.26,1.81-4.25,4.11,0,2.14,1.88,3.96,4.08,3.97Z"/><path d="M156.59,156.15h0c-.13-.06-.26-.16-.34,.06l.18,.12c1.08,1.51,1.59,3.16,.99,4.96-.59,1.76-1.85,2.94-3.68,3.48,3.33,.09,5.66-1.82,7.99-3.77-1.52-1.9-3.26-3.46-5.13-4.86Z"/><path d="M106.99,160.3s0,.01,0,.02c.01,0,.02,0,.03,0l-.02-.02Z"/><path d="M106.98,160.32c-.22-.05-.3,.02-.23,.24,.14-.02,.22-.09,.23-.24Z"/><path d="M106.75,160.56s-.01,0-.02,0h0s0,.01,0,.02c.01,0,.02,0,.03,0,0-.01,0-.02,0-.03Z"/><path d="M106.99,160.3l.02,.02v-.04h-.02Z"/><path d="M107.41,160.12h0s-.03-.04-.04-.06v.07l-.02,.02h.04l.02-.03Z"/><path d="M107.06,160.09l-.04,.2,.33-.15-.29-.05Z"/><path d="M148.7,163.37c.11,.02,.21,.04,.18-.15-.03,0-.05,0-.08,0,.03-.13-.08-.26-.17-.39-1.17-1.32-1.29-2.94-.89-4.49,.58-2.25,2.33-3.35,4.57-3.76-1.63-.2-3.11,.3-4.06,1.46-1.28,1.56-2.67,3.01-4.15,4.52,1.54,.86,2.94,1.64,4.35,2.42l.22,.4v.04s.02-.03,.03-.04Z"/></g><text class="c" transform="translate(77.55 427.05) rotate(48.88)"><tspan x="0" y="0">Θ</tspan></text><text class="c" transform="translate(114.5 467.7) rotate(37.37)"><tspan x="0" y="0">ρ</tspan></text><text class="c" transform="translate(150.95 495.02) rotate(26.61)"><tspan x="0" y="0">α</tspan></text><text class="c" transform="translate(194.97 516.37) rotate(15.36)"><tspan x="0" y="0">σ</tspan></text><text class="c" transform="translate(242 528.57) rotate(4.41)"><tspan x="0" y="0">υ</tspan></text><text class="c" transform="translate(288.09 531.56) rotate(-6.13)"><tspan x="0" y="0">μ</tspan></text><text class="c" transform="translate(334.1 526.08) rotate(-16.7)"><tspan x="0" y="0">ή</tspan></text><text class="c" transform="translate(378.19 512.22) rotate(-27.22)"><tspan x="0" y="0">δ</tspan></text><text class="c" transform="translate(417.82 491.3) rotate(-37.69)"><tspan x="0" y="0">η</tspan></text><text class="c" transform="translate(453.4 462.81) rotate(-47.16)"><tspan x="0" y="0">ς</tspan></text></svg>