<svg id="Grupo_1" data-name="Grupo 1" xmlns="http://www.w3.org/2000/svg" viewBox="0 0 566.93 566.93"><defs><style>.cls-1{fill:#1d1d1b;}.cls-2{fill:#ffe400;}.cls-3{font-size:54.71px;}.cls-3,.cls-4{fill:#fff;font-family:Jura-Bold, Jura;font-weight:700;}.cls-4{font-size:53px;}.cls-5{fill:#d20a11;}</style></defs><g id="Capa_5_copia_3_Imagen" data-name="Capa 5 copia 3 Imagen"><circle class="cls-1" cx="283.46" cy="283.46" r="269.29"/><path class="cls-2" d="M283.46,547A263.53,263.53,0,0,1,97.12,97.12,263.53,263.53,0,1,1,469.81,469.81,261.78,261.78,0,0,1,283.46,547Zm0-520.07C142,26.93,26.93,142,26.93,283.46S142,540,283.46,540,540,424.92,540,283.46,424.92,26.93,283.46,26.93Z"/><path class="cls-2" d="M283.46,476.5c-106.44,0-193-86.6-193-193s86.59-193,193-193,193,86.59,193,193S389.9,476.5,283.46,476.5Zm0-379.07c-102.58,0-186,83.45-186,186s83.45,186,186,186,186-83.45,186-186S386,97.43,283.46,97.43Z"/></g><text class="cls-3" transform="matrix(-0.54, -0.84, 0.84, -0.54, 114.98, 407.16)">Б</text><text class="cls-3" transform="translate(97.48 379.65) rotate(-113.44)">Р</text><text class="cls-3" transform="translate(84.75 350.63) rotate(-103.88)">О</text><text class="cls-3" transform="translate(76.39 317.24) rotate(-93.49)">Н</text><text class="cls-3" transform="matrix(0.12, -0.99, 0.99, 0.12, 74.25, 280.69)">Е</text><text class="cls-3" transform="translate(78.63 246.12) rotate(-74.53)">Т</text><text class="cls-3" transform="translate(86.27 218.47) rotate(-66.98)">А</text><text class="cls-3" transform="matrix(0.53, -0.85, 0.85, 0.53, 99.22, 187.73)">Н</text><text class="cls-3" transform="translate(118.83 156.79) rotate(-47.53)">К</text><text class="cls-3" transform="matrix(0.8, -0.6, 0.6, 0.8, 141.42, 132.03)">О</text><text class="cls-3" transform="translate(168.9 111.21) rotate(-27.19)">В</text><text class="cls-3" transform="translate(200.17 95.01) rotate(-17.89)">Ы</text><text class="cls-3" transform="matrix(0.98, -0.18, 0.18, 0.98, 239.08, 82.71)">Й</text><text class="cls-3" transform="translate(275.26 76.33) rotate(-1.05)"> </text><text class="cls-3" transform="translate(292.24 75.44) rotate(9.59)">О</text><text class="cls-3" transform="translate(326.42 81.63) rotate(17.35)">Т</text><text class="cls-3" transform="translate(353.76 90.08) rotate(25.43)">Р</text><text class="cls-3" transform="translate(382.57 103.7) rotate(33.8)">Я</text><text class="cls-3" transform="matrix(0.74, 0.67, -0.67, 0.74, 411.21, 122.91)">Д</text><text class="cls-3" transform="translate(436.06 146.14) rotate(48.8)"> </text><text class="cls-3" transform="translate(447.99 158.94) rotate(55.81)">Ч</text><text class="cls-3" transform="translate(467.79 188.05) rotate(65.61)">Е</text><text class="cls-3" transform="translate(482.02 219.68) rotate(75.47)">Р</text><text class="cls-3" transform="translate(490.18 250.19) rotate(85.9)">Н</text><text class="cls-3" transform="translate(492.69 286.66) rotate(96.53)">О</text><text class="cls-3" transform="translate(488.64 320.96) rotate(105.82)">Б</text><text class="cls-3" transform="translate(479.78 352.46) rotate(114.35)">О</text><text class="cls-3" transform="translate(465.45 383.94) rotate(123.47)">Г</text><text class="cls-4" transform="matrix(0.87, 0.5, -0.5, 0.87, 149.26, 488.91)">А</text><text class="cls-4" transform="matrix(0.95, 0.31, -0.31, 0.95, 186.18, 509.66)">Р</text><text class="cls-4" transform="translate(223.38 520.57) rotate(10.78)">И</text><text class="cls-4" transform="matrix(1, -0.02, 0.02, 1, 268.08, 528.96)">А</text><text class="cls-4" transform="translate(309.26 527.61) rotate(-10.13)">Д</text><text class="cls-4" transform="translate(350.18 519.64) rotate(-19.96)">Н</text><text class="cls-4" transform="translate(391.91 503.51) rotate(-29.89)">А</text><path class="cls-2" d="M417.57,277.27l-86.66-1.36a49.67,49.67,0,0,0-6.48-24.78,48.58,48.58,0,0,0-18.3-17.94l41.81-76.12C386.78,173.22,424.21,237.76,417.57,277.27Z"/><path class="cls-2" d="M235.45,275.41H148.59a133.85,133.85,0,0,1,13.31-58.72c11.71-24.27,29.13-43.34,52.46-57.58q22.29,37.5,44.35,74.65C240.5,249.76,238,254.13,235.45,275.41Z"/><path class="cls-2" d="M349.43,392.25c-38.78,23.09-92.54,24.1-133.62-.7l43.54-75.2c15.65,8.37,31.31,8.42,47.44.23Z"/><path class="cls-2" d="M283.39,306.72a31.69,31.69,0,1,1,31.51-31.46A31.63,31.63,0,0,1,283.39,306.72Z"/><path class="cls-5" d="M283.46,442.81a4.53,4.53,0,0,1-.52,0c-4.64-.71-8.65-3.19-10.47-6.48-.2-.35-.43-.72-.67-1.1-1.35-2.12-3.59-5.68-1.33-9.39a6.45,6.45,0,0,0,.11-.92,10.46,10.46,0,0,1,.44-2.4h-1.88a3.5,3.5,0,0,1-3.45-4,24.21,24.21,0,0,0,.16-4,22.14,22.14,0,0,1,.9-7.82,6.91,6.91,0,0,0-.47-5,11.81,11.81,0,0,1-.63-6.52c.06-.56.11-1.09.11-1.46a3.51,3.51,0,0,1,.38-1.59l2.46-4.82a3.52,3.52,0,0,1,3.12-1.91h.06c.23-4.88.23-9.84.24-14.65,0-6.58,0-13.38.59-20.15a236.53,236.53,0,0,0,.37-24.84c-.08-3.65-.16-7.43-.16-11.16V288.4c-1.44-2.7-3.06-6-1-10.56.72-1.6-.22-3.78-1.75-6.93a3.49,3.49,0,0,1,.21-3.4l2.57-4c0-.92,0-1.86-.05-2.83-.06-3.28-.14-7,.15-10.68a26.66,26.66,0,0,0-.5-6,32.64,32.64,0,0,1-.54-8.69,3.53,3.53,0,0,1,1.48-2.5l.51-.35a10.15,10.15,0,0,0-1.08-4.36l-.15-.38c-2.35-5.91-3.24-10.73-2.86-15.62a33.6,33.6,0,0,0,0-3.52v-.4l-2.23-1.69a2.77,2.77,0,0,0-.49,0,10,10,0,0,0-3.32.92,20.6,20.6,0,0,1-3.86,1.21,6.6,6.6,0,0,0-.64,1.2,29.79,29.79,0,0,1-3.18,5.55c-.45.67-.91,1.35-1.34,2.06a3.54,3.54,0,0,1-3,1.65,3.46,3.46,0,0,1-1.61-.4l-3.1-1.62-.2.12a9.32,9.32,0,0,1-4.75,1.55,6.74,6.74,0,0,1-1.66-.21,3.5,3.5,0,0,1-2.21-1.67h-15l-.74,1.28a3.51,3.51,0,0,1-2.58,1.71,3.4,3.4,0,0,1-.45,0,3.5,3.5,0,0,1-2.47-1l-1.61-1.6L212,218.7a3.39,3.39,0,0,1-1.45.32,3.5,3.5,0,0,1-2.86-1.47l-2.8-4a3.49,3.49,0,0,1-.64-2V198.29c0-11.5,0-23.35,0-35.2,0-1.13,0-2.26,0-3.38-.07-5.83-.14-11.84,1.66-18.31a3.52,3.52,0,0,1,1.78-2.18l2.49-1.27a3.58,3.58,0,0,1,1.59-.38,3.49,3.49,0,0,1,2.3.87l1.28,1.11,3.49-1.84a3.56,3.56,0,0,1,1.64-.41,3.51,3.51,0,0,1,1.82.52,3.46,3.46,0,0,1,1.66,2.68l.09.05c.19.11.4.24.62.39h13.74l1.3-1.55a3.49,3.49,0,0,1,2.68-1.25,3,3,0,0,1,.6.05l4.2.73,1.47-1.26a3.49,3.49,0,0,1,2.27-.84,3.43,3.43,0,0,1,1.33.26l.25.09a4.63,4.63,0,0,1,2,1.11c2.7,2.66,5.12,5.06,7.54,7.53a4.27,4.27,0,0,0,.71.6V144.8a3.52,3.52,0,0,1,2.29-3.29l3.32-1.22c2.14-5.87,6.49-11,13.23-15.57a3.57,3.57,0,0,1,2-.61,3.52,3.52,0,0,1,2,.61c6.75,4.59,11.1,9.7,13.24,15.57l3.32,1.22a3.52,3.52,0,0,1,2.29,3.29v1.61a4.27,4.27,0,0,0,.71-.6c2.39-2.45,4.73-4.76,7.54-7.53a4.63,4.63,0,0,1,2-1.11l.25-.09a3.41,3.41,0,0,1,1.32-.26,3.49,3.49,0,0,1,2.28.84l1.47,1.26,4.2-.73a3,3,0,0,1,.6-.05,3.49,3.49,0,0,1,2.68,1.25l1.3,1.55h13.74c.22-.15.43-.28.62-.39l.09-.05a3.53,3.53,0,0,1,1.66-2.65,3.57,3.57,0,0,1,1.86-.53,3.35,3.35,0,0,1,1.6.39l3.49,1.84,1.28-1.11a3.49,3.49,0,0,1,2.3-.87,3.58,3.58,0,0,1,1.59.38l2.49,1.27a3.52,3.52,0,0,1,1.78,2.18c1.8,6.46,1.73,12.48,1.66,18.3,0,1.13,0,2.26,0,3.39,0,11.7,0,23.41,0,34.78v13.71a3.49,3.49,0,0,1-.64,2l-2.8,4a3.5,3.5,0,0,1-2.86,1.47,3.44,3.44,0,0,1-1.46-.32l-3.43-1.57-1.61,1.6a3.5,3.5,0,0,1-2.47,1,3.4,3.4,0,0,1-.45,0,3.51,3.51,0,0,1-2.58-1.71l-.74-1.28h-15a3.49,3.49,0,0,1-2.22,1.67,6.61,6.61,0,0,1-1.65.21,9.32,9.32,0,0,1-4.75-1.55l-.2-.12-3.1,1.62a3.46,3.46,0,0,1-1.61.4,3.51,3.51,0,0,1-3-1.66c-.44-.7-.89-1.38-1.34-2.05a29.79,29.79,0,0,1-3.18-5.55,6.6,6.6,0,0,0-.64-1.2,20.37,20.37,0,0,1-3.86-1.21,10,10,0,0,0-3.32-.92,2.7,2.7,0,0,0-.49,0l-2.24,1.69v.4c0,1.31-.05,2.45,0,3.52.38,4.89-.5,9.71-2.85,15.62l-.15.38a10.15,10.15,0,0,0-1.08,4.36l.51.35a3.47,3.47,0,0,1,1.47,2.5,32.36,32.36,0,0,1-.53,8.7,26.58,26.58,0,0,0-.5,6c.29,3.69.21,7.4.15,10.68,0,1,0,1.91-.05,2.83l2.57,4a3.47,3.47,0,0,1,.2,3.4c-1.52,3.15-2.46,5.33-1.74,6.93,2,4.52.4,7.86-1,10.56v26.07c0,3.73-.08,7.51-.16,11.17a236.38,236.38,0,0,0,.37,24.83c.59,6.77.59,13.57.59,20.15,0,4.81,0,9.77.24,14.65h.06a3.49,3.49,0,0,1,3.11,1.91l2.47,4.82a3.51,3.51,0,0,1,.38,1.59c0,.37.05.9.11,1.46a11.81,11.81,0,0,1-.63,6.52,7,7,0,0,0-.48,5,22.16,22.16,0,0,1,.91,7.82,24.21,24.21,0,0,0,.16,4,3.5,3.5,0,0,1-3.45,4h-1.88a11,11,0,0,1,.44,2.4,6.45,6.45,0,0,0,.11.92c2.26,3.71,0,7.26-1.33,9.39-.24.38-.47.75-.67,1.1-1.82,3.29-5.83,5.77-10.47,6.48A4.71,4.71,0,0,1,283.46,442.81Z"/><path class="cls-1" d="M283.46,127.61c5.64,3.84,10.5,8.68,12.4,15.38l4.92,1.81v5.64a10.83,10.83,0,0,0,1.25.07,7.23,7.23,0,0,0,5.46-2.25c2.47-2.53,5-5,7.5-7.49a3.67,3.67,0,0,1,1.06-.45l2.72,2.33,5.83-1,2.34,2.8h16.64c.94-1.15,3-1.15,2.93-3.64l5.63,3,3.08-2.7,2.49,1.27c2,7.2,1.5,14,1.51,20.75,0,16.48,0,32.95,0,48.48l-2.8,4-5.65-2.59-3.32,3.33c-.77-1.31-1.32-2.26-1.76-3H326.11c-.17.64-.29,1.1-.46,1.77a3.58,3.58,0,0,1-.83.11c-1.94,0-3.39-1.65-5.1-2l-4.56,2.38c-1.53-2.46-3.27-4.62-4.26-7.07-.62-1.54-1.73-3.15-2.69-3.25-2.86-.3-5.37-2.27-8.37-2.27a6.45,6.45,0,0,0-2,.32l-4.18,3.15c0,2.25-.12,4.11,0,6,.38,4.94-.81,9.51-2.63,14.06-.92,2.31-2,4.77-1.18,8.06l1.71,1.19c.56,5.21-1.42,9.78-1,14.63s.09,10,.09,14.25l3.12,4.9c-1.6,3.32-3.21,6.71-1.79,9.88,1.5,3.32.13,5.5-1.33,8.26v26.94c0,12.11-.82,24.28.22,36.3,1.06,12.17.19,24.28.93,36.5l1.5,1.51h1.95l2.46,4.81c0,1.86.73,4.56-.18,6.47a10.34,10.34,0,0,0-.63,7.67c1.31,3.82.33,7.4.92,11.26H292l-2.36,2.58c4.41.54,2.51,3.94,3.81,6,1.45,2.33-.89,4.91-2.05,7-1.38,2.49-4.61,4.2-7.94,4.71-3.32-.51-6.55-2.22-7.93-4.71-1.17-2.11-3.5-4.69-2-7,1.3-2.08-.6-5.48,3.81-6L274.93,419h-5.79c.6-3.86-.38-7.44.93-11.26a10.34,10.34,0,0,0-.63-7.67c-.92-1.91-.18-4.61-.18-6.47l2.46-4.81h1.95l1.5-1.51c.74-12.22-.13-24.33.93-36.5,1-12,.22-24.19.22-36.3V287.53c-1.46-2.76-2.83-4.94-1.34-8.26,1.43-3.17-.18-6.56-1.78-9.88l3.12-4.9c0-4.23-.3-9.27.09-14.25s-1.6-9.42-1.05-14.63l1.72-1.19c.84-3.29-.26-5.75-1.19-8.06-1.81-4.55-3-9.12-2.62-14.06.15-1.84,0-3.7,0-6l-4.18-3.15a6.51,6.51,0,0,0-2-.32c-3,0-5.5,2-8.36,2.27-1,.1-2.08,1.71-2.69,3.25-1,2.45-2.73,4.61-4.26,7.07l-4.56-2.38c-1.71.38-3.16,2-5.1,2a3.51,3.51,0,0,1-.83-.11c-.17-.67-.29-1.13-.46-1.77H221.24c-.44.76-1,1.71-1.76,3l-3.32-3.33-5.65,2.59-2.8-4c0-15.53,0-32,0-48.48,0-6.76-.49-13.55,1.51-20.75l2.49-1.27,3.08,2.7,5.63-3c0,2.49,2,2.49,2.93,3.64H240l2.35-2.8,5.83,1,2.71-2.33a3.63,3.63,0,0,1,1.07.45c2.52,2.48,5,5,7.5,7.49a7.23,7.23,0,0,0,5.46,2.25,10.83,10.83,0,0,0,1.25-.07V144.8l4.91-1.81c1.91-6.7,6.77-11.54,12.4-15.38m-2.91,304.28h5.83l1.5-4.77h-8.83l1.5,4.77m2.91-311.28a7,7,0,0,0-3.94,1.22c-6.79,4.63-11.38,9.79-13.93,15.72l-1.86.68a7,7,0,0,0-2.65,1.74c-1.35-1.35-2.75-2.73-4.22-4.18a8.24,8.24,0,0,0-3.31-1.95l-.08,0a6.89,6.89,0,0,0-2.59-.5,7,7,0,0,0-4.56,1.69l-.21.18-2.58-.45a7.05,7.05,0,0,0-6.57,2.4l-.25.3H226.56a7,7,0,0,0-6.14-3.64,7,7,0,0,0-3.27.81l-1.4.74a7.07,7.07,0,0,0-4-1.28,6.87,6.87,0,0,0-3.18.77l-1.38.7-1.11.56a7,7,0,0,0-3.56,4.36c-1.94,6.95-1.86,13.5-1.79,19.28,0,1.12,0,2.23,0,3.34,0,11.81,0,23.62,0,35.08v13.41a7,7,0,0,0,1.29,4.06l.51.72,2.29,3.22a7,7,0,0,0,8.62,2.31l1.23-.56a7,7,0,0,0,4.83,1.94,6.8,6.8,0,0,0,.9-.06,7.05,7.05,0,0,0,4.86-3h11.39a6.88,6.88,0,0,0,3,1.57,10.4,10.4,0,0,0,2.48.31,11.44,11.44,0,0,0,5-1.2l1.45.75a7,7,0,0,0,9.18-2.51c.39-.63.82-1.27,1.28-1.94a35.69,35.69,0,0,0,3.3-5.68c1-.31,1.94-.66,2.75-1,.38-.15.88-.35,1.29-.49,0,.62,0,1.18,0,1.69-.54,7.06,1.51,13.19,3.1,17.19l.15.38c.28.68.48,1.19.61,1.61a7.06,7.06,0,0,0-1.75,3.93,35.64,35.64,0,0,0,.56,9.61,23.18,23.18,0,0,1,.47,5.21c-.3,3.87-.22,7.67-.16,11,0,.6,0,1.19,0,1.76l-2,3.14a7,7,0,0,0-.41,6.82,18.32,18.32,0,0,1,1.64,4.11c-2.38,5.45-.69,9.8.79,12.71v25.21c0,3.77.08,7.56.16,11.23a230.07,230.07,0,0,1-.36,24.46c-.6,6.93-.6,13.81-.6,20.46,0,3.95,0,8-.14,12a7,7,0,0,0-2.89,3l-1,2L263,390.41a6.88,6.88,0,0,0-.77,3.18c0,.19-.05.72-.09,1.1a15.13,15.13,0,0,0,.95,8.39,3.41,3.41,0,0,1,.32,2.38,25.52,25.52,0,0,0-1.09,9,22.09,22.09,0,0,1-.12,3.47,7,7,0,0,0,1.6,5.62,7,7,0,0,0,2.86,2c-2,5,.86,9.48,2.15,11.53.23.35.44.69.56.91,2.37,4.29,7.24,7.37,13,8.25a6.87,6.87,0,0,0,2.09,0c5.78-.88,10.65-4,13-8.25.12-.22.33-.56.56-.91,1.29-2.05,4.15-6.56,2.15-11.53a7,7,0,0,0,2.86-2,7,7,0,0,0,1.6-5.62,22.09,22.09,0,0,1-.12-3.47,25.52,25.52,0,0,0-1.09-9,3.41,3.41,0,0,1,.32-2.38,15.13,15.13,0,0,0,.95-8.39c0-.38-.09-.91-.09-1.1a6.88,6.88,0,0,0-.77-3.18l-.19-.38-2.27-4.44a7,7,0,0,0-2.89-3c-.13-4-.13-8.05-.14-12,0-6.65,0-13.53-.6-20.46a230.07,230.07,0,0,1-.36-24.46c.08-3.67.16-7.46.16-11.23V289.26c1.48-2.91,3.17-7.26.78-12.71a18.9,18.9,0,0,1,1.65-4.11,7,7,0,0,0-.41-6.82l-2-3.14c0-.57,0-1.16,0-1.76.06-3.36.14-7.16-.16-11a23.18,23.18,0,0,1,.47-5.21,35.64,35.64,0,0,0,.56-9.61,7.06,7.06,0,0,0-1.75-3.93c.13-.42.33-.93.61-1.61l.15-.38c1.59-4,3.64-10.13,3.09-17.19,0-.51-.05-1.07,0-1.69.41.14.91.34,1.29.49.81.32,1.72.67,2.75,1a35.69,35.69,0,0,0,3.3,5.68c.46.67.89,1.31,1.28,1.94a7,7,0,0,0,9.18,2.51l1.45-.75a11.4,11.4,0,0,0,5,1.2,10.4,10.4,0,0,0,2.48-.31,6.88,6.88,0,0,0,3-1.57h11.39a7,7,0,0,0,4.86,3,6.8,6.8,0,0,0,.9.06,7,7,0,0,0,4.83-1.94l1.23.56a7,7,0,0,0,8.62-2.31l1.39-1.95,1.41-2a7,7,0,0,0,1.29-4.06V198.15c0-11.46,0-23.26,0-35.07,0-1.11,0-2.22,0-3.34.07-5.78.15-12.33-1.79-19.28a7,7,0,0,0-3.56-4.36l-.77-.39-1.72-.87a6.87,6.87,0,0,0-3.18-.77,7.07,7.07,0,0,0-4,1.28l-.61-.32-.79-.42a7,7,0,0,0-9.41,2.83H330.22l-.25-.3a7.05,7.05,0,0,0-6.57-2.4l-2.58.45-.21-.18a7,7,0,0,0-4.56-1.69,6.89,6.89,0,0,0-2.59.5l-.08,0a8.24,8.24,0,0,0-3.31,1.95c-1.47,1.45-2.87,2.83-4.22,4.18a7.11,7.11,0,0,0-2.65-1.74l-1.86-.68c-2.55-5.93-7.14-11.09-13.94-15.72a7,7,0,0,0-3.94-1.22Z"/></svg>