<svg enable-background="new 0 0 113.4 113.4" viewBox="0 0 113.4 113.4" xmlns="http://www.w3.org/2000/svg"><circle cx="56.7" cy="56.7" fill="#ef7e00" r="56.7"/><circle cx="56.7" cy="56.7" fill="#fff" r="54.7"/><path d="m56.7 19.8c-20.4 0-36.9 16.5-36.9 36.9s16.5 36.9 36.9 36.9 36.9-16.5 36.9-36.9-16.5-36.9-36.9-36.9zm0 66.1c-16.1 0-29.2-13.1-29.2-29.2s13.1-29.2 29.2-29.2 29.2 13.1 29.2 29.2-13.1 29.2-29.2 29.2z" fill="#ef7e00"/><circle cx="56.7" cy="35.3" fill="#ef7e00" r="6.1"/><circle cx="56.7" cy="78.1" fill="#ef7e00" r="6.1"/><circle cx="80.9" cy="34.3" fill="#fff" r="8.4"/><circle cx="30.8" cy="77.8" fill="#fff" r="8.4"/><circle cx="80.9" cy="34.3" fill="#fc0" r="6.1"/><g fill="#ef7e00"><circle cx="83.2" cy="18.5" r="6.1"/><circle cx="29" cy="94" r="6.1"/><circle cx="77.4" cy="56.7" r="6.1"/><circle cx="35.8" cy="56.7" r="6.1"/></g><circle cx="30.8" cy="77.8" fill="#fc0" r="6.1"/><path d="m13.5 68.1c.4 1.6.1 2.6-.9 2.8l-2.9.7c-1 .2-1.7-.4-2.1-2.1l-1-4c0-.1 0-.2 0-.3.1-.1.2-.1.3-.1h.3c.1 0 .1.1.2.2l1 4c .1.5.3.8.4 1 .2.2.4.3.5.2l2.9-.7c.2 0 .3-.2.4-.4.1-.3.1-.6-.1-1.1l-1-4c0-.1 0-.2 0-.3.1-.1.2-.1.3-.1h.3c.1 0 .1.1.2.2z"/><path d="m12.2 60.8c.1 1.7-.3 2.5-1.4 2.6l-4.2.3c-.2 0-.3 0-.3-.1-.1-.1-.1-.2-.1-.4s0-.3 0-.4.1-.2.3-.2l4.2-.3c.2 0 .3-.1.4-.4.1-.2.2-.6.1-1.1l-.3-4.1c0-.1 0-.2.1-.3.1 0 .2-.1.3-.1h.4s.1.1.1.3z"/><path d="m12.1 53.8c-.2 1.7-.8 2.5-1.8 2.4l-3-.3c-1-.1-1.5-1-1.3-2.6l.2-2.5c.2-1.7.8-2.5 1.8-2.4l3 .3c1 .1 1.5 1 1.3 2.6zm-.7-2.5c0-.5 0-.9-.1-1.1s-.3-.4-.4-.4l-3-.3c-.2 0-.4.1-.5.3s-.2.6-.3 1.1l-.2 2.4c0 .5 0 .9.1 1.1s.3.4.4.4l3 .3c.2 0 .3-.1.5-.3s.2-.6.3-1.1z"/><path d="m13.3 46c-.4 1.6-1.2 2.3-2.2 2l-2.9-.8c-1-.3-1.3-1.2-.9-2.8l1.1-4c0-.1.1-.2.2-.2s.2 0 .3 0 .3.1.3.2c.1.1.1.2 0 .3l-1.1 4c-.1.5-.2.8-.1 1.1s.2.4.4.5l2.9.8c.2 0 .4 0 .5-.2.2-.2.3-.5.5-1l1.1-4c0-.1.1-.2.2-.2s.2 0 .3 0 .2.1.3.1c.1.1.1.2 0 .3z"/><path d="m11.8 38.7-.3-5.1c0-.1 0-.2 0-.3s.1-.2.2-.4c.1-.1.1-.2.2-.3s.2-.1.3 0c .2.1.2.2.2.4l.2 5.1 4.1-3.3c.2-.1.3-.2.5-.1.1.1.2.1.2.2v.3c-.1.2-.1.3-.2.4s-.1.1-.2.2l-4.1 3.2 2 .9c.2.1.2.2.2.3s0 .2-.1.4-.2.3-.2.3c-.1.1-.2.1-.4 0l-4.9-2.2c-.1-.1-.2-.2-.2-.3s0-.2.1-.4.2-.3.2-.4.2-.1.4 0z"/><path d="m18.2 23.7c0-.1 0-.3 0-.4s.1-.2.2-.3c.2-.3.5-.4.8-.2l4.2 3.1c.1.1.2.2.2.3s-.1.2-.2.4-.2.3-.3.3-.2 0-.3-.1l-3.3-2.4 1.3 5.2v.4c0 .1-.1.2-.2.3s-.2.2-.3.3-.2.1-.4.1l-5.3.3 3.3 2.4c.1.1.2.2.2.3s-.1.2-.2.4c-.1.1-.2.2-.3.3-.1 0-.2 0-.3-.1l-4.2-3.1c-.3-.2-.3-.5-.1-.8.2-.2.4-.3.6-.4l6.1-.4z"/><path d="m23 18.6c.1-.1.2-.2.4-.2h.3l6.2 1.5c.1 0 .1.1.2.1 0 0 .1.1.1.2v.2c0 .1 0 .1-.1.2 0 .1-.1.1-.1.2-.1 0-.2.1-.3.1s-.1 0-.2 0l-1.7-.4-3.5 3.1.3 1.7v.2c0 .1-.1.1-.1.2-.1 0-.1.1-.2.1s-.1.1-.2.1-.1 0-.2 0-.1 0-.2-.1c0 0-.1-.1-.1-.2l-.9-6.3c0-.1 0-.2 0-.3 0-.2.1-.3.3-.4zm1.1 3.9 2.6-2.3-3.1-.8z"/><path d="m29.7 16.5 2.6-4.4c0-.1.1-.2.2-.2.1-.1.2-.1.4-.2.1-.1.2-.1.3-.1s.2.1.3.2.1.3 0 .5l-2.7 4.3 5.2-.4c.2 0 .3 0 .4.2.1.1.1.2 0 .3 0 .1-.1.2-.2.3-.2.1-.3.2-.4.2s-.2.1-.3.1l-5.2.3 1.1 1.9c.1.1.1.3 0 .4s-.2.2-.3.3c-.2.1-.3.1-.4.2s-.2-.1-.3-.2l-2.8-4.6c-.1-.1-.1-.3 0-.4s.2-.2.3-.3c.2-.1.3-.1.4-.2.1 0 .2.1.3.2z"/><path d="m36.6 13.8.4.9c.1.2.2.3.5.3s.6 0 1.1-.2l3.8-1.5c.1-.1.2-.1.3 0s .1.2.2.3v.3s-.1.2-.2.2l-3.8 1.6c-1.5.6-2.5.5-2.9-.5l-1.1-2.8c-.4-1 .2-1.8 1.7-2.4l1.2-.5h.3c.1.1.1.2.2.3s.1.3.1.3c0 .1-.1.2-.2.2l-1.3.5c-.5.2-.8.4-.9.6-.2.2-.2.4-.1.6l.4 1 5.1-2.1c.1-.1.2-.1.3 0s .1.2.2.3.1.3.1.3c0 .1-.1.2-.2.2z"/><path d="m42.2 8.2c-.1-.3 0-.4.3-.5l4.7-1c .4-.1.7-.1 1-.1s.6 0 .8.1.4.2.6.3c.1.1.2.3.3.5l.2 1v .6c-.1.2-.2.4-.4.5-.2.2-.4.3-.7.4s-.6.2-1 .3l-.3.1c-.2.1-.5.1-.6.1-.2 0-.3.1-.5.1-.1 0-.3 0-.4.1-.1 0-.2 0-.3.1h.3s.2 0 .4.1c.2 0 .4.1.6.1s.5.1.9.1l2.2.4c.2 0 .3.1.3.3 0 .1 0 .3-.1.3-.1.1-.2.1-.4.2h-.1c-.1 0-.1 0-.2 0s-.1 0-.2 0-.1 0-.2 0l-5.3-1 .4 1.8c0 .2 0 .3-.1.3-.1.1-.2.1-.4.2-.2 0-.3 0-.4 0s-.2-.1-.2-.3zm1.2.3.4 2 3.8-.8c.3-.1.5-.1.7-.2s.3-.1.4-.2.2-.1.2-.2 0-.1 0-.2l-.1-1c0-.1-.1-.1-.1-.2-.1-.1-.1-.1-.3-.1-.1 0-.3 0-.5 0s-.4.1-.7.1z"/><path d="m53.7 9.4c-1.7.1-2.5-.4-2.6-1.5v-.3c0-1.1.8-1.6 2.4-1.7h.8c.1 0 .2 0 .3.1 0 .1.1.2.1.3v.3s-.1.1-.3.1h-.9c-.5 0-.8.1-1 .2s-.3.3-.3.5v.3c0 .2.1.3.3.5.2.1.6.2 1.1.1l2-.1c1.7-.1 2.5.4 2.6 1.5v.4c0 1.1-.8 1.6-2.4 1.7l-4.2.2c-.1 0-.2 0-.3-.1 0-.1-.1-.2-.1-.3 0-.2 0-.3 0-.3 0-.1.1-.1.3-.1l4.2-.2c.5 0 .8-.1 1-.2s.3-.3.3-.5v-.4c0-.2-.1-.3-.3-.5-.2-.1-.6-.2-1.1-.2z"/><path d="m100 73.9c-.3-.1-.6-.3-.8-.5s-.3-.4-.3-.7c-.1-.3-.1-.5 0-.8 0-.3.1-.6.2-.9l1.4-4.6c.1-.2.2-.3.5-.3l5.1 1.5c.3.1.3.2.3.5l-1.4 4.5c-.1.4-.2.7-.4.9-.1.3-.3.5-.5.7s-.4.3-.7.3c-.3.1-.5 0-.9-.1-.3-.1-.5-.2-.7-.4s-.3-.4-.4-.7c-.2.2-.4.4-.6.5-.1.2-.4.2-.8.1zm.3-1.1c.2 0 .3.1.4.1s.2 0 .3-.1.2-.2.3-.4.2-.4.3-.7l1.2-3.8-1.6-.5-1.2 4c-.1.3-.1.5-.1.7s0 .3 0 .4.1.2.2.2c0 0 .1 0 .2.1zm3.3-4.7-1.2 3.9c-.1.2-.1.5-.2.6v.4c0 .1.1.2.2.3s.2.1.4.2c.1 0 .3.1.4.1s.2 0 .3-.1l.3-.3c.1-.2.2-.4.2-.6l1.2-3.9z"/><path d="m102.1 79.7c-.1.1-.2.3-.3.3-.1.1-.2.1-.3.1l-6.4.9c-.1 0-.1 0-.2 0s-.1-.1-.1-.1-.1-.1-.1-.2 0-.1 0-.2 0-.1.1-.2c0-.1.1-.1.1-.2.1 0 .1-.1.2-.1l1.8-.2 2.1-4.2-.9-1.5c0-.1-.1-.1 0-.2s0-.1.1-.2c0-.1.1-.1.1-.2.1-.1.1-.1.2-.1s.1-.1.2-.1h.2c.1 0 .1.1.1.1l3.1 5.5c.1.1.1.2.1.3 0 .2-.1.4-.1.5zm-2.5-3.2-1.6 3.1 3.2-.4z"/><path d="m96.6 84.2-.8 5c0 .1 0 .2-.1.3s-.1.2-.2.4c-.1.1-.2.2-.3.2s-.2 0-.3-.1-.2-.3-.1-.5l.9-5-4.7 2.3c-.2.1-.3.1-.5 0-.1-.1-.2-.2-.2-.3s0-.2.1-.3c.1-.2.2-.3.3-.3l.2-.2 4.8-2.2-1.7-1.3c-.1-.1-.2-.2-.2-.3s.1-.2.2-.4l.3-.3c.1 0 .2 0 .3.1l4.3 3.3c.1.1.2.2.2.3s-.1.2-.2.4c-.1.1-.2.2-.3.3-.1 0-.2 0-.3-.1z"/><path d="m88.2 88.4c1.2-1.1 2.2-1.3 2.9-.6l2.9 3.1c.1.1.2.2.1.3 0 .1-.1.2-.3.3-.1.1-.3.2-.4.2s-.2 0-.3-.1l-2.9-3.1c-.1-.1-.3-.2-.6-.1s-.6.3-.9.6l-1.9 1.7c-.4.3-.6.6-.7.9-.1.2 0 .4.1.6l2.9 3.1c.1.1.2.2.1.3 0 .1-.1.2-.3.3-.1.1-.3.2-.4.2s-.2 0-.3-.1l-2.9-3.1c-.7-.8-.5-1.7.8-2.9z"/><path d="m78.1 96c .1 0 .1-.1.2-.1h.1.2.2l6.8.9-2.3-3.7c-.1-.1-.1-.3-.1-.3.1-.1.2-.2.3-.3.2-.1.3-.2.4-.2s.2.1.3.2l2.9 4.6c.1.1.1.2.1.3s-.1.2-.3.3-.3.2-.4.2-.3 0-.4 0l-6.8-.9 2.3 3.7c.1.1.1.3.1.3-.1.1-.2.2-.3.3-.2.1-.3.2-.4.2s-.2-.1-.3-.2l-2.9-4.6c-.1-.1-.1-.3-.1-.4.1-.1.3-.2.4-.3z"/><path d="m76.1 97.4c-.1-.1-.1-.3 0-.4l.3-.3c.2-.1.3-.1.4-.1s.2.1.3.2l2.4 4.9c.1.1.1.3 0 .4s-.2.2-.3.3c-.2.1-.3.1-.4.1s-.2-.1-.3-.2z"/><path d="m68.8 99.8c.1 0 .1 0 .2-.1h.2.2c.1 0 .1 0 .2.1l6.5 2.4-1.5-4.1c-.1-.2 0-.3 0-.4.1-.1.2-.2.4-.2.2-.1.3-.1.4-.1s.2.1.2.3l1.8 5.1c.1.1 0 .3 0 .3-.1.1-.2.2-.3.2-.2.1-.3.1-.4.1s-.3 0-.4-.1l-6.4-2.4 1.5 4.1c.1.2 0 .3 0 .4-.1.1-.2.2-.4.2-.2.1-.3.1-.4.1s-.2-.1-.2-.3l-1.8-5.1c-.1-.2 0-.3 0-.4-.1.1 0 0 .2-.1z"/></svg>