<?xml version="1.0" encoding="UTF-8"?>
<svg id="uuid-c2c026a7-059c-40da-9ddb-cc8ee0fbb826" data-name="Capa 1" xmlns="http://www.w3.org/2000/svg" viewBox="0 0 566.93 566.93">
  <defs>
    <style>
      .uuid-cfb78daa-6276-437f-8395-b248412f0314 {
        fill: #010101;
      }

      .uuid-010ffe11-f93a-439b-b1b2-e4dd87c33c6f {
        fill: #fbfbfb;
      }

      .uuid-b569bdc8-55cc-4137-bbc1-e3cd89212766 {
        fill: #944b96;
      }
    </style>
  </defs>
  <circle class="uuid-cfb78daa-6276-437f-8395-b248412f0314" cx="283.46" cy="283.46" r="278.66"/>
  <g>
    <path class="uuid-b569bdc8-55cc-4137-bbc1-e3cd89212766" d="M426.78,426.78c-38.28,38.28-89.18,59.36-143.31,59.36s-105.03-21.08-143.31-59.36c-38.28-38.28-59.36-89.18-59.36-143.31,0-7.29.39-14.52,1.15-21.67l-75.55-8.09c-1.04,9.78-1.59,19.7-1.59,29.76,0,153.9,124.76,278.66,278.66,278.66,113.57,0,211.25-67.96,254.66-165.42l-71.09-27.12c-9.86,20.98-23.38,40.31-40.25,57.19ZM25.03,346.25c0-13.17,10.67-23.84,23.84-23.84s23.84,10.67,23.84,23.84-10.67,23.84-23.84,23.84-23.84-10.67-23.84-23.84ZM84.74,445.42c-13.17,0-23.84-10.67-23.84-23.84s10.67-23.84,23.84-23.84,23.84,10.67,23.84,23.84-10.67,23.84-23.84,23.84Z"/>
    <path class="uuid-b569bdc8-55cc-4137-bbc1-e3cd89212766" d="M89.2,225.43l-71.12-27.13c-3.03,9.44-5.55,19.09-7.56,28.94l74.31,15.74c1.2-5.92,2.65-11.78,4.37-17.54Z"/>
    <path class="uuid-b569bdc8-55cc-4137-bbc1-e3cd89212766" d="M283.46,4.8c-113.35,0-210.89,67.68-254.42,164.84l70.7,28.02c9.87-21.1,23.45-40.54,40.41-57.51,38.28-38.28,89.18-59.36,143.31-59.36s105.03,21.08,143.31,59.36c38.28,38.28,59.36,89.18,59.36,143.31,0,7.24-.39,14.42-1.13,21.52l75.56,8.1c1.03-9.73,1.56-19.61,1.56-29.62,0-153.9-124.76-278.66-278.66-278.66ZM462.3,145.96c0-13.17,10.67-23.84,23.84-23.84s23.84,10.67,23.84,23.84-10.67,23.84-23.84,23.84-23.84-10.67-23.84-23.84ZM516.55,245.36c-13.17,0-23.84-10.67-23.84-23.84s10.67-23.84,23.84-23.84,23.84,10.67,23.84,23.84-10.67,23.84-23.84,23.84Z"/>
    <path class="uuid-b569bdc8-55cc-4137-bbc1-e3cd89212766" d="M476.08,346.82l70.7,28.02c3.62-10.44,6.62-21.17,9-32.13l-74.31-15.74c-1.46,6.72-3.25,13.35-5.39,19.85Z"/>
  </g>
  <g>
    <path class="uuid-010ffe11-f93a-439b-b1b2-e4dd87c33c6f" d="M68.16,157.96l-2.86-2.05-1.21-.87,5.82-8.12,34.86-5.73-20.31-14.57,5.82-8.12,32.5,23.31-5.82,8.12-48.81,8.02ZM79.52,166.11l-7.3-5.24,13.95-2.29,16.25,11.66-5.82,8.12-17.07-12.25Z"/>
    <path class="uuid-010ffe11-f93a-439b-b1b2-e4dd87c33c6f" d="M121.73,137.11l-.99-1.1,1.12-21.17-21.17-1.14-3.34-3.72,7.43-6.68,21.17,1.14,11.14-10.02,6.68,7.44-11.14,10.02-.37,7.06,14.86-13.36,7.06.38,3.34,3.72-33.43,30.05-2.35-2.61ZM108.49,99.96l22.29-20.04,3.34,3.72-.37,7.06-11.14,10.02-14.11-.76Z"/>
    <path class="uuid-010ffe11-f93a-439b-b1b2-e4dd87c33c6f" d="M141.96,77.47l-1.73-3.06-.73-1.29,8.7-4.91,13.62,3.79-2.83,10.21-17.02-4.74ZM157.46,104.88l-.73-1.29,13.21-47.67,8.7-4.91,2.46,4.35-13.21,47.67-8.7,4.91-1.73-3.06ZM176.01,86.95l2.83-10.22,17.02,4.74,2.46,4.35-8.7,4.91-13.62-3.79Z"/>
    <path class="uuid-010ffe11-f93a-439b-b1b2-e4dd87c33c6f" d="M205.73,51.56l-14.28,4.54-2.12-6.66-.91-2.87,38.07-12.1,1.51,4.76-3.24,6.28-9.52,3.03,9.09,28.58-9.52,3.03-9.09-28.58Z"/>
    <path class="uuid-010ffe11-f93a-439b-b1b2-e4dd87c33c6f" d="M254.16,32.62l.03-3.52v-1.48s10,.09,10,.09l34.64,35.32-.05,5-9.99-.09-34.64-35.32ZM274.14,32.8l.05-5,9.99.09,34.64,35.32-.04,5-9.99-.09-34.64-35.32ZM308.96,48.12l.18-20,9.99.09-.27,30-9.9-10.09Z"/>
    <path class="uuid-010ffe11-f93a-439b-b1b2-e4dd87c33c6f" d="M321.75,65.92l.41-1.43,43.26-24,9.6,2.75-11.04,38.44-9.6-2.75,1.38-4.81-14.4-4.13,12.36-6.86,4.8,1.38,2.76-9.61-30.9,17.14-9.6-2.75.97-3.38Z"/>
    <path class="uuid-010ffe11-f93a-439b-b1b2-e4dd87c33c6f" d="M367.95,79.21l.71-1.3,47.45-14,8.77,4.78-2.39,4.39-47.45,14-8.77-4.78,1.68-3.09ZM381.11,55.06l4.3-7.89,8.77,4.78-9.57,17.56-13.56,4,10.06-18.46Z"/>
    <path class="uuid-010ffe11-f93a-439b-b1b2-e4dd87c33c6f" d="M410.27,102.26l.99-1.11,21.16-1.26-1.23-21.16,3.32-3.74,7.46,6.64,1.23,21.16,11.2,9.95-6.64,7.47-11.2-9.95-7.05.42,14.93,13.27.41,7.05-3.32,3.74-33.59-29.86,2.34-2.63ZM445.71,84.95l22.39,19.91-3.32,3.74-7.06.42-11.2-9.95-.82-14.11Z"/>
  </g>
  <g>
    <path class="uuid-010ffe11-f93a-439b-b1b2-e4dd87c33c6f" d="M108.95,459.46l13.18,12.26.15,4.24-2.05,2.2-19.77-18.39,8.48-.31ZM109.67,449.88l3.07-3.3,8.48-.31,15.38,14.31-2.04,2.2-4.24.15-10.98-10.22-4.24.15-4.09,4.4-8.48.31,7.16-7.69Z"/>
    <path class="uuid-010ffe11-f93a-439b-b1b2-e4dd87c33c6f" d="M131.8,468.87l3.72-5.09,4.19-.65,19.37,14.17-8.39,1.3-12.11-8.86-7.09,9.7-8.39,1.3,8.68-11.87ZM133.92,481.21l9.69,7.09,5.32-7.27,8.39-1.3-10.63,14.54-4.19.65-16.95-12.4,8.39-1.3Z"/>
    <path class="uuid-010ffe11-f93a-439b-b1b2-e4dd87c33c6f" d="M154.27,487.89l2.65-4.7,2.28,8.18-5.89,10.47-5.23-2.94,6.19-11ZM158.39,480.56l1.04-1.84.44-.78,5.23,2.94,5.71,20.45,7.36-13.09,5.23,2.94-11.78,20.95-5.23-2.94-7.99-28.62Z"/>
    <path class="uuid-010ffe11-f93a-439b-b1b2-e4dd87c33c6f" d="M190.29,500.73l-8.3-3.5,1.63-3.87.7-1.67,22.12,9.33-1.17,2.77-3.93,1.6-5.53-2.33-7,16.61-5.53-2.33,7-16.61Z"/>
    <path class="uuid-010ffe11-f93a-439b-b1b2-e4dd87c33c6f" d="M205.34,508.5l2.03-6.91,4.06,7.46-5.08,17.29-5.76-1.69,4.74-16.15ZM214.65,519.37l-2.88-.84,1.69-5.76,5.76,1.69,3.73-2.04-8.64-2.54-4.06-7.46,23.03,6.76-1.69,5.76-7.45,4.07h-.02c-.31.16-.92.5-1.84,1.02l5.08,9.32-.85,2.88-5.76-1.69-6.09-11.18Z"/>
    <path class="uuid-010ffe11-f93a-439b-b1b2-e4dd87c33c6f" d="M230.57,531.17l.15-.88,24.19-17.24,5.92,1-3.98,23.69-5.92-1,.5-2.96-8.87-1.49,6.91-4.93,2.96.5,1-5.92-17.28,12.32-5.92-.99.35-2.08Z"/>
    <path class="uuid-010ffe11-f93a-439b-b1b2-e4dd87c33c6f" d="M261.48,521.48l.33-7.19,20.98.98-6.27,5.72-8.99-.42-.14,3,8.99.42,9.41-8.58,3,.14-.28,6-6.27,5.72,5.71,6.28-.28,6-23.97-1.12,6.27-5.72,8.99.42-2.86-3.14-8.99-.42-.14,3-6.27,5.72.78-16.8Z"/>
    <path class="uuid-010ffe11-f93a-439b-b1b2-e4dd87c33c6f" d="M291.39,537.53l-.07-.89,19.4-22.52,5.99-.44,1.77,23.96-5.99.44-.22-3-8.98.66,5.54-6.43,2.99-.22-.44-5.99-13.86,16.08-5.98.44-.16-2.11Z"/>
    <path class="uuid-010ffe11-f93a-439b-b1b2-e4dd87c33c6f" d="M318.29,516.64l-.41-2.07-.17-.88,5.89-1.16,17.63,11.83-2.91-14.73,5.89-1.16,4.65,23.57-5.89,1.16-24.68-16.56ZM319.92,524.88l-1.04-5.29,7.05,4.73,2.32,11.79-5.89,1.16-2.44-12.39Z"/>
    <path class="uuid-010ffe11-f93a-439b-b1b2-e4dd87c33c6f" d="M356.47,523.62l8.55-2.81,3.82-7.58-7.58-3.83-8.55,2.81,2.82,8.56-3.82,7.58-4.6-13.97-1.97-5.99,17.1-5.62,11.36,5.75,1.88,5.71-5.73,11.36-17.1,5.62,3.82-7.58Z"/>
    <path class="uuid-010ffe11-f93a-439b-b1b2-e4dd87c33c6f" d="M375.74,508.14l-2.7-5.71,1.43-4,21.7-10.26-2.86,8-13.56,6.41,5.13,10.86-2.86,8-6.28-13.3ZM387.6,512.16l10.85-5.13-3.85-8.15,2.86-8,7.69,16.29-1.43,4-18.99,8.98,2.86-8Z"/>
    <path class="uuid-010ffe11-f93a-439b-b1b2-e4dd87c33c6f" d="M400.93,493.94l-3.86-6.08,5.07-3.22,9.65,15.21-1.85,8.29-9.01-14.2ZM414.32,498.24l12.66-8.04,4.14.93,1.61,2.54-20.26,12.87,1.85-8.29Z"/>
    <path class="uuid-010ffe11-f93a-439b-b1b2-e4dd87c33c6f" d="M434.64,489.86l-.57-.69,1.22-12.67-12.67-1.24-1.91-2.32,4.63-3.81,12.67,1.24,6.95-5.72,3.82,4.64-6.95,5.72-.41,4.22,9.26-7.62,4.22.41,1.91,2.32-20.84,17.15-1.34-1.63ZM427.67,467.22l13.9-11.43,1.91,2.32-.41,4.22-6.95,5.72-8.45-.83Z"/>
    <path class="uuid-010ffe11-f93a-439b-b1b2-e4dd87c33c6f" d="M447.59,460.18l-5.22-4.97,8.49-.21,13.06,12.42-4.14,4.35-12.19-11.6ZM461.52,456.87l-2.07,2.17-4.35-4.14,4.14-4.35-.11-4.25-6.2,6.52-8.49.21,16.54-17.39,4.35,4.14.22,8.49-.02.02c0,.35.03,1.05.07,2.1l10.61-.26,2.18,2.07-4.14,4.35-12.73.31Z"/>
    <path class="uuid-010ffe11-f93a-439b-b1b2-e4dd87c33c6f" d="M469.2,440.56l-5.07-3.75-.63-4.2,14.27-19.29,1.26,8.4-8.92,12.06,9.66,7.15,1.26,8.4-11.83-8.75ZM481.54,438.51l7.13-9.65-7.24-5.36-1.26-8.4,14.48,10.72.63,4.2-12.49,16.88-1.26-8.4Z"/>
    <path class="uuid-010ffe11-f93a-439b-b1b2-e4dd87c33c6f" d="M495.69,422.32l-1.57-.89,7.36-13.07-20.44,5.7-2.62-1.47,2.94-5.23,28.61-7.98,2.62,1.47-13.24,23.53-3.66-2.06ZM482.83,404.75l8.83-15.68,5.23,2.95-5.88,10.46-8.17,2.28Z"/>
  </g>
  <g>
    <polygon class="uuid-010ffe11-f93a-439b-b1b2-e4dd87c33c6f" points="367.05 225.76 397.5 177.59 370.87 136.96 283.46 270.91 196.06 136.96 169.43 177.59 199.88 225.76 103.16 225.76 103.16 309.97 122.26 267.93 221.37 267.93 236.3 276.29 283.46 336.59 330.63 276.29 345.56 267.93 444.66 267.93 463.77 309.97 463.77 225.76 367.05 225.76"/>
    <polygon class="uuid-010ffe11-f93a-439b-b1b2-e4dd87c33c6f" points="283.46 389.89 211.82 295.39 184.36 295.39 283.46 439.87 382.57 295.39 355.11 295.39 283.46 389.89"/>
  </g>
</svg>