<svg enable-background="new 0 0 113.4 113.4" viewBox="0 0 113.4 113.4" xmlns="http://www.w3.org/2000/svg"><path d="m56.6 0c32.5.1 57 26.7 56.8 57.2-.3 31.3-25.8 56.4-57.4 56.2-30.8-.1-56.2-25.8-56-56.8.1-31.3 25.5-56.7 56.6-56.6z"/><path d="m56.6 2.6c30.2.7 54 23.6 54.1 54s-23.4 53.3-53.8 54.4c-31.3-.9-54.1-24.6-54.1-54.1-.1-30.8 23.9-53.5 53.8-54.3z" fill="#da802e"/><path d="m31.1 53.8c-2.5-4.4-5-8.9-7.5-13.3-.9-1.6-.7-2.7.9-3.9 3.3-2.5 7-4.5 10.5-6.9 2.2-1.5 4.6-2.4 7.2-2.1 2 .2 3.6-.4 5.3-1.3 1.6-.8 3.2-1.5 4.9-2.3.6-.2 1.1-.6 1.9-.2.1 1.7-1.2 3-1.5 4.6.1.1.1.2.2.2 4.3 0 8.6.2 12.9-.1 1.7-.1 3.3-.1 5 .1 1.6.2 2.6 1.2 3 2.8.3 1 .7 2.1.8 3.1.2 1.7 1.3 2.5 2.7 3.2 2.3 1.1 4.7 1.4 7.1 1.7 2.6.3 5.3.3 7.9.3.7 0 1.4 0 2.1.1 3.1.4 3.9 1.3 4.2 4.4.3 3.6.9 7.2.7 10.9-.6 16-7.1 28.7-21 37.3-.2.2-.5.3-.8.4-.1.1-.2.1-.2.1-1.5-1.5-2.9-2.9-4.4-4.4.1-.2.5-.2.9-.4 8.2-4.5 14-11 17.1-19.9 1.9-5.5 2.6-11.3 1.9-17.1-.4-3.1-2.1-4.5-5.3-4.6-2.7-.1-5.4 0-8.1 0-5.8-.2-6.2-.4-7.8-6.1-.5-1.8-1-3.6-1.4-5.5-.3-1.6-1.1-2.6-2.6-3.3-2.9-.1-5.8-.1-8.7.1-3 .2-6.1.1-9.1.1-.7 0-1.2-.3-1.5-1.1.3-1.6 2.5-1.9 2.8-3.6-.5-.4-1-.2-1.4 0-.9.4-1.7.9-2.4 1.6-1.6 1.6-3.6 2-5.7 1.4-1.5-.4-2.8 0-3.9.9-2 1.6-4.1 3.1-6.2 4.7-.5.4-1.1.8-1.3 1.4.5.5 1.1.3 1.6.3h17c1.4 0 2.7.3 4 1 .4.2.8.4 1 .9 2.9 2.7 3.6 6.4 4.6 9.9.6 2.4 1.1 4.8 2 7.1.7.6.2 1.4.5 2.1 1.1 4.2 2.2 8.5 3.4 12.7.5 1.8 1 3.5 1.5 5.3.5.3.4.9.4 1.3.4 1.8.9 3.5 1.3 5.3-.1 0-.1.1-.2.1-.7-.7-1.4-1.4-2-2.1-4.3-5.1-9.8-9-14.9-13.1-1.2-.9-2.5-1-3.7-.2s-2.6 1.4-3.1 2.8c0 .8.6 1 1.1 1.5-.3 1.1-1.1 1.5-2.1 1.3-1-.1-1.8-.6-2.3-1.5-2-3.7-4-7.4-5.9-11.1 1.8.8 3.2 2.4 5.2 2.9.4-.9 0-1.6-.1-2.4-.5-3.8-1-7.7-2-11.4-.4-1.3-1-2.4-1.8-3.4-.6-.7-1.2-1.2-2.2-.9s-1.9.8-2.2 2c-.5 1.9.1 3.8.3 5.7-.3.1.1.5-.6.6z"/><path d="m5.1 56.8h7.2c.2 11.4 4 21.5 11.7 29.9s17.4 13 28.8 14.2v7.1c-23.3-.6-47.7-21.6-47.7-51.2z"/><path d="m101.1 56.8h7.1c.8 24.5-19.3 49.5-47.4 51.3 0-2.4 0-4.7 0-7.2 11.3-1.2 20.9-5.9 28.6-14.3 7.7-8.3 11.5-18.3 11.7-29.8z"/><path d="m53.9 39.3c-1.9-1.2-3.9-1.7-6.2-1.6-5.5.1-11.1 0-16.6 0-.5 0-1 .2-1.4-.3.1-.7.7-1.1 1.2-1.5 2.5-1.9 4.9-3.7 7.4-5.6.9-.7 1.9-1 3.1-.6 2.5.8 4.6.3 6.4-1.6.6-.6 1.3-1.1 2.1-1.3.7-.2 1.3-.5 2.1.1-.2 2-2.4 2.4-3.1 3.9.1.6.5.7.9.8.6.3 1.3-.1 1.8.3.2.5-.2.8-.4 1.1-.4.6-.5 1.3-.1 1.9.5.9 1.3 1.6 1.5 2.7.5-.2.3-.5.4-.7.2-.4.3-.8.1-1.3-.2-.4-.2-.8.2-1.1.3-.2.7-.3.9-.7.3-.5.8-.7 1.4-1-.2-.3-.7-.1-.7-.7 0-.3.4-.3.8-.4.7.1 1.5-.1 2.2.1.2 1-.8.6-1.2 1.1-.1.1 0 .3.1.4.2.4.7.6.6 1.2-.4.4-.9-.8-1.3 0-.3.3-.6.5-.9.7-.2 0-.4-.1-.6-.1-.2.4.4.6.2.9-.5.1-.4.6-.5.9.2.3.4.6.6 1-.2.1-.4.2-.6.3.1.3.6.3.6.7-.2.5-.8-.1-1 .4z" fill="#da802e"/><path d="m89.7 59c .1.4-1.2.2-.4.9-.4.3-.5-.1-.7-.2-.3.4-.7.7-.6 1.3-.7.3-.7-.6-1.2-.7-.6-.4-1.5.2-1.9-.7.4-.3.9.1 1.4-.2-.4-.2-.8-.3-1.2-.5.2-.4.4-.7.5-1.1-.2-.4-.9-.4-.8-1.1.3-.2.5.2.8.3.2-.5 1.4-.1 1-1.1-.4 0-.1.4-.3.4-.5.1-.4-.6-.8-.5-.8-.3-.8 1.1-1.6.7-.1-.6-.4-1.1-.9-1.4-1.3-.7-2.1-2-3.1-3-.3-.5-.6-1.1-.4-1.8.1-.3.3-.5.1-.9-.8-.3-1.2.2-1.4 1-.1.4.2.7.1 1.1-.2.1-.4.3-.6.5-.5-.5-.6-1.2-1.2-1.4.2-.7.6-.4.9-.3.4-.4.5-.9.6-1.5.8-.1 1.5.1 2.1-.2.6.4.2 1.2.9 1.4.2-.2 0-.3 0-.5.6-.3 1 .1 1.5.3.3.2.6.4.9.6s.4.5.7.8c.8.9.5 2.2 1 3 .7.4 1.1-.3 1.7-.3.1.4.2.7.4.9.5.4.9-.1 1.4.2.3.2 0 .5 0 .8-.2.1-.5-.1-.8.2-.2.7-.9 1.3-1.4 2 .9.9 2.4 0 3.3 1z" fill="#d87e2d"/><path d="m59 5.8c2.1.3 4.1.4 6.1 1 1 .3 1.5.9 1.4 2-.2 1.2-.8 1.6-2 1.6-.6 0-1.2-.2-1.9 0 .9.8 2.2 1.1 2.8 2.4-2.3 0-3.7-2-5.7-2.6-.4.5 0 1.3-.6 1.9-.8.1-1-.3-.9-1 .3-1.7.5-3.4.8-5.3z" fill="#fdfdfc"/><path d="m14.7 35.9c.3.7 1.9.6 1.2 2-1.9-.6-3.4-1.9-5.1-2.6-.1-.2-.2-.3-.1-.3.7-2.2 1.8-4.2 3.4-5.8.6-.6 1.3-.3 2 .1.6.4 1 .9.8 1.7-.2.6-.4 1.2-.7 2 1.2.1 1.7-1.6 3.3-1.4-1.2 2.1-3.4 2.7-4.8 4.3z" fill="#fdfdfc"/><path d="m102.1 42c-.2 1.5.1 2.8-.6 4.1-1.1-1.1-.5-2.3-.5-3.3 0-1.1.1-2.1.1-3.2-.7 0-1.2.5-1.9.4-.5-.5-.5-.9.2-1.2 1.7-.6 3.3-1.2 5.2-1.8.8 2.3 1.9 4.2 2 6.6 0 .9-.6 1.2-1.3 1.4-.8.3-1.4.1-1.9-.5-.6-.7-.7-1.6-1.3-2.5z" fill="#fdfcfc"/><path d="m24.7 25c-1.3 1.8-3.6 2.1-5.3 3.4.4.4.8.8 1.2 1.1.1.4 0 .8-.5 1-1.5-1-2.8-2.4-4.3-3.5 0-.3-.1-.6 0-.8 1.2-1.4 2.3-3 3.7-4.2.8-.7 1.7-.7 2.6.1s.7 1.6.2 2.5c-.3.5-.7 1-1.2 1.6 1.2-.3 2.1-1.5 3.6-1.2z" fill="#fdfdfc"/><path d="m41.1 14.5c-.6-2.1-1.1-4-1.7-6 2.2-.7 4.2-1.4 6.4-1.7.3 0 .7 0 .8.2 1.2 1.2 1.3 2.7 1.5 4.2.1 1-.8 1.5-1.7 1.7-1.6.6-3.3 1.1-5.3 1.6z" fill="#fdfcfc"/><g fill="#fdfcfb"><path d="m53.7 5.7c.5 0 1.1-.1 1.6 0 1 .1 1.6.7 1.6 1.7 0 .8.1 1.6.2 2.4.1.9-.3 1.7-1.2 1.9-1.6.4-3.3.6-4.9.3-.9-.2-1.5-.7-1.5-1.7 0-.7-.1-1.5-.1-2.2 0-1.4.3-1.8 1.7-2.1.3-.1.7-.1 1-.2.6-.1 1.1-.1 1.6-.1z"/><path d="m14.8 40.1c-.4 1.6-.8 3.3-1.7 4.7-.5.7-1.2 1-2.1.7-.6-.2-1.3-.4-1.9-.7-1.5-.5-1.9-1.1-1.5-2.6.3-1.3.8-2.5 1.3-3.7.4-1 1.2-1.4 2.3-1 .8.3 1.6.6 2.4.8.9.3 1.1.9 1.2 1.8z"/><path d="m30.8 19.6c-1.3 1.5-2.7 3-4.5 3.8-.7.3-1.4.1-1.9-.6-.3-.4-.7-.9-1-1.3-1.4-1.7-1.3-2.4.3-3.9.4-.3.7-.8 1.4-.8.5 1.5-1.5 1.5-1.5 2.6 0 .5.4.7.6 1 1.8-.8 2.8-2.9 4.9-3.2.1.1.2.3.3.4-1.4 1.2-2.9 2.4-4.3 3.6.1.5.4.8.8 1 1.8-.3 2.8-2.5 4.9-2.6z"/><path d="m101.6 47.1c.9-.3 1 .2 1 .8.1 1.2.3 2.3.5 3.5.1.5.2.9.5 1.2.4.3.7 0 1-.2.1-1.2 0-2.3-.1-3.4-.2-1.5.2-2.3 1.2-2.5 1.4-.2 1.9.2 2.3 1.9.1.5.2 1 .1 1.5-.5 0-.5 0-1.4-2-.3-.2-.6-.2-.9-.1-.2.3-.3.6-.3.9.1.9.3 1.8.4 2.7.1 1.6-.5 2.3-1.8 2.4-.7.1-1.3-.2-1.5-.8-.8-1.8-1-3.9-1-5.9z"/></g><path d="m79.8 11.6c1.2.9 2.1 6.9 1.3 7.8-1-.4-.6-1.4-.9-2.3-1.3-.6-2.7-1.4-3.9-2-.9.1-1.4.8-2.2.7-.4-.4-.3-.7.2-1 1.7-1 3.6-2.1 5.5-3.2z" fill="#fcfcfb"/><path d="m101.4 30.8c.5 1.6-2 7.2-3.1 7.3-.6-.9.3-1.5.4-2.5-.7-1.2-1.5-2.5-2.3-3.8-1.9-.2-1.9-.2-2.3-1z" fill="#fdfcfb"/><path d="m92.7 21c .6 0 .8.2 1 .6-.9 1.2-2.2 2-3.3 3.3.6 1.7 2 2.7 3.3 3.8 1.5-.8 2.4-2.2 3.7-3.1.5.1.7.3.7 1-1 .9-2 1.9-3.1 2.8-.7.6-1.4.4-2.1-.1-1.4-1-2.5-2.2-3.4-3.7-.4-.7-.4-1.4.3-2 .9-.7 1.9-1.7 2.9-2.6z" fill="#fdfcfb"/><path d="m63.5 33c1.2-.1 2.4-.3 3.4.7.3 1.2.3 1.2 2.8 3.5.1.5-.3.9-.1 1.4.2.7 1 .8 1.3 1.6-.9.5-1.8.5-2.6-.2 0-.2-.1-.2-.2-.2-.8-.7-.2-1.5-.2-2.3-.6-1-1.9-1.3-2.7-2.2s-2.3-.6-3.1-1.6c0-.4.2-.5.5-.5.2-.1.6.2.9-.2z" fill="#0a0603"/><path d="m82.2 19.4c.6-1.4 1.6-2.4 2.4-3.4.4-.5.9-.5 1.5-.3 1 .3 1.9.9 2.6 1.9-1.4.7-1.9-1.1-3.2-.7-.7.7-1.3 1.7-2.1 2.8 1.2 1.3 2.5 2.4 4 3 .8-.5 1-1.3 1.7-1.5.5.1.8.5.5.9-.5.7-.8 1.6-1.8 1.7-.2 0-.4 0-.6 0-2-1.1-3.9-2.3-5-4.4z" fill="#fdfcfb"/><path d="m32.6 12.6c-.5 1-1.8.9-2.2 2 .5 1.1 1.1 2.1 1.8 3.2 1.6-.7 3.2-1.4 4.4-2.6-.3-.7-.6-1.2-.9-1.8.2-.5.4-.6.8-.6 1.7 1.9 1.6 3-.6 4.3-.9.5-1.8 1-2.8 1.4-1.4.6-1.9.3-2.7-.9-.4-.7-.8-1.4-1.2-2.2-.5-.9.1-1.6.7-2.2 1.2-.9 1.9-1.1 2.7-.6z" fill="#fdfcfb"/><path d="m7.3 46.6c.1 1.9-.7 3.7-.4 5.6 1.2.5 2.4.4 3.6.6 1-1.8.6-3.9 1.3-5.6.5-.2.9 0 .8.4-.4 2.2.1 4.6-1.7 6.4-1.4 0-2.7-.2-3.9-.4-.8-.2-1.1-.8-1.1-1.6-.1-1.7.4-3.4.5-5.1 0-.5.3-.6.9-.3z" fill="#fdfcfb"/><path d="m85 59.6c.7.4 1.6.1 2.3.2.5.3.2 1 .8 1.2.1.1.2.2.2.3.4.3 1.6-.3 1.3 1-.3 0-.6.1-.9.3-.3-.1 0 .3-.2.3-.6.2-1-.1-1.5-.3-.1-.1-.1-.1-.2-.2-.1-.6-.3-1.2-.8-1.6-1.1.1-2.2.2-3.2 0-1.2 0-2.3.9-3.6.6.2-1.5 2.2-2.9 4-2.9.5.4.9 1.2 1.8 1.1z" fill="#0b0703"/><path d="m79.3 71.9c-.3.5-.7.8-1.3.9-.6-1.5.9-4.1 2.5-4.3.3.3.7.2 1 .3 1 .2 1.7-.6 2.5-1 .5-.3.9 0 1.2.3l.4.4c.3-.1.5-.1.8-.2.5 0 .8-.5 1.3-.2.1.4-.2.7-.3 1-.4 0-.3.4-.5.6-.2.1-.4.3-.6.4-.4.2-.8.2-1.2 0-.3-.3-.7-.5-.9-.9-.2-.3-.3-.3-.6-.1-.2.1-.5.2-.7.3-.5.2-.9.6-1.3.8s-.8.4-1.2.6c-.2.2-.5 0-.7.2 0 .3-.2.6-.4.9z" fill="#0a0603"/><path d="m64 45.7c-.3.1-.5.2-.8.3-.2-.4-.3-.8-.7-1.1-.8-1.1-2.3-1.5-3.1-2.6 0-.1 0-.2 0-.3.1-.1.2-.3.3-.4.6-1.4.6-1.4 2.5-1 .4-.1.7.1 1 .3.1.2.4.1.5.2h.3c.4.1.6.9 1.1.2.7 0 .5.7.8 1-.2.3-.5.4-.5.8 0 .5.5.9.3 1.4-.3.6-.9.3-1.2.5-.4.2-.3.5-.5.7z" fill="#d07a2b"/><path d="m69 79.3c0-1.4 1.1-1.8 2.1-2.2.7-1.8.6-3.6.3-5.5 1.5.4 2.2 1.2 2.6 2.4-1 1-1.8 2.1-1.6 3.6-.6.4-1 .7-1.5 1-.1.5-.3 1-.4 1.4-.7.3-1.1-.1-1.5-.7z" fill="#0c0703"/><path d="m80.2 76.2c-.5-.6-.9-1-1.2-1.4-.1-.6.1-1 .6-1.3.9.3 1.8-.2 2.6.1 1.4-.5 2.3-1.4 3.1-2.6.7.8.7 1.5.2 2-1.4 1.5-3.1 2.7-5.3 3.2z" fill="#0a0603"/><path d="m68.9 61.3c-1.8-.2-2.5-1.5-1.6-2.9.6-.9 1.2-1.8 2.3-2.5.8.5 2.2 0 2.7 1.5-1.7.9-3.9 1.3-3.4 3.9z" fill="#0a0603"/><path d="m79.5 65.4c-.2-.7-.3-1.3-.4-1.8.2-.6.6-.8 1.2-.9.6.7 1.6.7 2.2 1.3 1.5.3 2.7-.3 4-.8.2 1-.2 1.6-1 1.9-2 .6-3.9.9-6 .3z" fill="#0a0603"/><path d="m83.2 50.6c-.3 0-.5-.2-.7-.5-.2-.4 0-.8.3-1.1.4-.1.8.2 1.2.3 1.2.9 2.1 2.1 3 3.3.2.2.3.4.3.6-.1.2-.2.5-.4.6-.1.1-.1.1-.2.2-.2.3-.5.5-.7.8-.5.2-.9.1-1.3-.3-.2-1-.3-2.2-.9-3.2 0-.5-.2-.7-.6-.7z" fill="#0b0603"/><path d="m80.3 52c1.1 1.1 1.9 2.4 3.4 3.2.4.2 1.1.6.4 1.3-1 0-1.9-.1-2.8-.5-1-.4-1.8-.8-1.6-2.2.1-.6-.4-1-.6-1.6.1-.3.2-.5.5-.6.2.1.4.3.7.4z" fill="#0b0703"/><path d="m74.3 69.2c.2.5.1.8-.3 1.2-1.3-1.1-3.4-1-4.5-2.7 0-.5-.1-1.1.1-1.8 1.2.3 2.5-.5 3.8.5-.6.7-1.4.4-2 1 1 .5 1.6 1.7 2.9 1.8z" fill="#0c0704"/><path d="m77.6 83.2c-1.6-.4-3.4.7-5.1-.4-.2-.5-.5-1-.7-1.5 1.4-1.3 2.7-1.7 3.5-1.3 0 .4-.3.5-.6.8-.2.2-.4.4-.9.8 1.4.3 2.4.8 3.7.5.4.2.5.5.1 1.1z" fill="#0e0804"/><path d="m66.2 75.1c.4-.8.2-1.7.9-2.6.9 0 1.9-1 3 0-.5.7-1 1.3-1.4 1.8-.4.3-.8-.1-1.3.1 0 .3.4.5.4.9-.2.1-.2.4-.5.4.3 0 .4-.3.6-.4.5.2 0 .8.4 1 .2.4.4.8.6 1.2-.5.7-1.1.3-1.6.3-1.2-.6-1.4-1.5-1.1-2.7z" fill="#0a0603"/><path d="m69.8 14.4c-.2-.4-.1-.6.2-.9.6-.1 1.2.5 2 .2 1.1-1.2.8-3.2 2-4.3.2-.1.4 0 .7.2-.3 1.6-.7 3.4-1.7 4.7-.8 1.2-2.1.5-3.2.1z" fill="#fcfbf9"/><path d="m89.7 59c-1.2-.1-2.4-.2-3.4-.3-.4-.5-.4-1-.2-1.5.3-.1.6-.2.9-.3.1-.5.2-1 .3-1.5.6-.4.9.1 1.2.4.3.2.3.5.5.8.1.2.3.3.4.5.7.5 1 1.1.3 1.9z" fill="#0a0603"/><path d="m64 45.7c-.1-.3-.2-.6-.2-.8.5-.7 1.2-.2 1.7-.3.2-.6-.5-.9-.5-1.5 0-.4.2-.9 1-.8 1 1.1 1.5 2.5 1.9 4-1.3-.2-2.6-.4-3.9-.6z" fill="#120b05"/><path d="m71.2 49.4c-1 0-1.9.6-2.9.2-.3.3-.6.5-.9.7-.6 0-.9-.3-1.2-.7.4-1 1.3-.7 2-.8 2-1.4 3.4-1.4 4.7.1.3.4 0 .6-.1.6-.6.3-1-.5-1.6-.1z" fill="#110a04"/><path d="m77 62.1c0 .3-.4.5-.1 1.1.2.2.5.6.8.9-.6 1-3.1.7-4.4-.5 1.1-.5 1.5-1.8 2.6-2.3.5.1.9.4 1.1.8z" fill="#0b0703"/><path d="m62.2 39.2c-.9-.6-1.7-1.2-2.3-2 .3-.6.5-1.2.7-1.7.5-.4.9-.3 1.4-.1.5 1 .8 2.1 1.7 2.9-.1.8-.7 1-1.5.9z" fill="#0a0603"/><path d="m39.1 15.3c-.8-1.9-1.7-3.7-2.3-5.6.8-.5 1.1-.2 1.4.4.6 1.5 1.3 3.1 1.9 4.5-.1.5-.3.7-1 .7z" fill="#fcfaf8"/><path d="m73.5 55.3c-.8-.2-1.6.4-2.3-.4.9-.8 1.3-2.1 2.9-2.2.4.9.8 1.8 1.3 2.6-.4.6-.8.6-1.3.6-.2-.2-.4-.4-.6-.6z" fill="#0b0603"/><path d="m67.6 54.4c-.3-1-.1-1.6.4-2.4 1.1.5 2.4-.2 3.7.1-.5 2.5-2.7 1.6-4.1 2.3z" fill="#100a04"/><path d="m80.2 78.5c-.5 1-1.2 1.5-1.9 1.8-.6 0-.7-.5-1.1-.7-.4 0-.9-.1-1.4-.1.1-1.8 1.1-2 4.4-1z" fill="#0d0803"/><path d="m72 61c0-.6.5-.8.8-1.2.3-.1.3-.3.4-.6 0-1.1 0-1.1.7-1.8 1.1.7 1.4 1.9.9 3.2-.7.3-1.5.7-2.3 1-.2-.1-.4 0-.6-.1-.1-.1 0-.3.1-.5z" fill="#0e0804"/><path d="m91 53.6c.2.3.6.5.5 1-.2.3-.3.7-.4.9-.1.6.3 1.1-.1 1.6-.8-.2-1.6-.3-1.7-1.5-.3-1-.1-1.9 0-2.8.9-.3 1.2.4 1.7.8z" fill="#160d05"/><path d="m63.2 48c1.5.4 2.1 1.6 2.9 2.6 0 .6-.1.9-.7 1.3-1.3-1.1-2.2-2.8-4-3.3 0-.4.3-.4.5-.4.5-.1.9.1 1.3-.2z" fill="#100904"/><path d="m75 77.6c-.3 0-.6.1-.9-.3.7-1 .5-2.3 1.1-3.2.6-.2 1-.1 1.3.1.5.4-.3 1.2.6 1.4.1.6 0 1.1-.5 1.5-.1.1-.3.2-.4.3-.5 0-.8.3-1.2.2z" fill="#080502"/><path d="m55 35.2c0-.2-.1-.5.1-.7.3-.2.5-.1.8-.1 1.6.7 1.6 2.3 1.9 3.8-1-.1-1.8-.4-2.6-1.1.2-.6.6-1.3-.2-1.9z" fill="#150c05"/><path d="m56.4 33.5c-.3-.3-.5-.7-.4-1.1.5-.5 1.2-.1 1.8-.4.6-.5 1.3-.7 2-.1.2.3.3.7.2 1.1-.2.1-.5.3-.6.4-.6.6.8 1.8-.8 1.8-.1-.3 0-.6-.1-.7-.7-.6-1.4-.9-2.1-1z" fill="#080502"/><path d="m78.3 67.5c-.8.6-1.6.7-2.4.6-.5-.3-.3-.8-.6-1.1s-.9-.3-1.2-.9c1.2-1.3 2.5-.8 4.2 1.4z" fill="#0c0703"/><path d="m72.2 61.5c.1 0 .1-.1.2-.1 0 .1.1.1.1.2 0 .6-.4.9-.6 1.4-.6 0-1.1.1-1.7.1-.6.2-.8.8-1.2 1.2-.7-.2-.9-.8-1-1.4.7-1.5 2.1-.9 3.2-1.1.3-.3.7-.1 1-.3z" fill="#0f0904"/><path d="m62.2 39.2c.6-.2 1.1-.5 1.5-1 .9.6 2 .7 3.1 1.1-1 1.6-2.8 1.5-4.6-.1z" fill="#100a04"/><path d="m61.7 51.4c1.5.2 2.5.9 2.7 2.1-.4.5-1 .6-1.6.7-.6-.3-.6-.3-1.1-2.8z" fill="#190f06"/><path d="m59.7 32c-.7-.5-1.3 0-2 .1-.8-.6-1.7-.2-2.6-.3-.7.4-1.5.4-2.2.3-.3 0-.7 0-1 .1-.2 0-.4 0-.5-.2-.5-.6-1.3 0-1.8-.5 5.8 0 11.6 0 17.4-.1.2 0 .5 0 .7.2-2.2 0-4.5 0-6.7 0-.4.1-.9-.1-1.3.4z" fill="#854e1e"/><path d="m79.5 51.8c-.2.2-.3.3-.5.5-.2-.3-.5-.5-.7-.8s-.4-.6-.5-.9c.2-.5.5-1.1.7-1.6.6-.1 1.1-.1 1.7 0 .3.5 0 .9-.3 1.2-.5.5 0 1.1-.4 1.6z" fill="#0f0904"/><path d="m66 57.8c-.4-1.4-1.5-1.6-2.8-1.6.8-1.1 1.9-.8 2.8-1 .7.5.8 1 .5 1.6-.4.2.2.9-.5 1z" fill="#0f0904"/><path d="m59.5 42.2c1.1.8 2.5 1.3 3.3 2.5-.1.2 0 .4-.2.6-.3.2-.6-.1-.9-.1-1.1-.5-1.4-1.8-2.5-2.4-.2-.1.1-.4.3-.6z" fill="#150c05"/><path d="m71.2 49.4c0-.2 0-.3-.1-.6.5.2 1 .4 1.4.6.4-.1.4-.3.4-.6.2 0 .4.2.5.4-.4.6-.8 1.2-1.2 1.8-.3.2-.7.1-1.1.1-.2-.6.6-1.2.1-1.7z" fill="#050301"/><path d="m62.3 40.5c-.6 0-1.2 0-1.8.2-.5.3 0 .9-.5 1.2-.9-.6-.8-1.5-.8-2.4 1.2-.2 2.1.5 3.1 1z" fill="#110a04"/><path d="m64.5 57.8c.4.3.3.7.5 1.1-.6.9-1.3.9-2 .5-.2-.7 0-1.1.5-1.4.3 0 .6-.2 1-.2z" fill="#100a05"/><path d="m61 56.1c.2-.2.5-.4.7-.6.5 0 .8.2 1 .6-.7.2-.6 1.3-1.6 1.2-.4-.4-.5-.8-.1-1.2z" fill="#1e1207"/><path d="m56.4 33.5c1.1-.7 1.5.5 2.3.8.1.4-.1.7-.2 1-.5-.2-.6-.8-1.2-.8-.2-.4-.8-.5-.9-1z" fill="#0f0904"/><path d="m84 49.3c-.3 0-.6-.1-1-.2-.1.3-.3.6-.4 1-.5-.2-1-.4-1.5-.6.1-.9.9-.5 1.3-.7.5-.2 1.1-.1 1.6.5z" fill="#100904"/><path d="m66 57.8c.4-.2.1-.8.5-1 .1 1.1-.2 2.1-.5 3-.1.4-.3 1.1-1.1.6.5-.8 1-1.7 1.1-2.6z" fill="#261506"/><path d="m76.5 77.1c.2-.5.3-1 .5-1.5.5 0 .9 0 1.2.5-.2.9-1.1.7-1.7 1z" fill="#150c05"/><path d="m82.7 60.8c.8 0 1.6-.2 2.3 0 .5-.1.2-.5.4-.6.9.5 1.3 1.3 1.3 2.2-.2-.4-.4-.8-.6-1.2-1.1-.5-2.3.2-3.4-.4z" fill="#110a04"/><path d="m91 53.6c-.5-.3-.9-.5-1.5-.8-.3 1-.3 1.9-.3 2.8-.5-1-.2-2.1-.2-3.3 1.1.1 1.7.4 2 1.3z" fill="#d87e2d"/><path d="m68.3 76.3c-.4-.2-.1-.8-.5-1 0-.4-1-.5-.5-1.2.5-.2 1 0 1.5.2-.6.6-.5 1.3-.5 2z" fill="#0f0904"/><path d="m81.9 72.3c.3-1.4.6-1.5 1.5-.7-.2.7-.8.6-1.5.7z" fill="#351f0c"/><path d="m84.5 62.9c-.6.3-1 .2-1.5 0 0-.6.3-.8.7-.8.5-.1.8.2.8.8z" fill="#2f1b0a"/><path d="m61.7 45.2c.2-.6.5-.2.7 0 .1-.2.2-.3.3-.5.5.3.8.7.4 1.3-.5-.1-1-.3-1.4-.8z" fill="#0e0805"/><path d="m64.9 61.1c-.8.8-1.2.2-1.8-.4 1.2-.2 1.2-.2 1.8.4z" fill="#2f1b0a"/><path d="m65.3 38c-.6-.1-.9-.5-1.1-1 .4-.4.8-.3 1.1 0 .4.3.5.6 0 1z" fill="#2c1a09"/><path d="m89.7 59c .2-.7 0-1.3-.3-1.9.7.1 1.2.4 1.5 1.1-.1.3-.2.6-.6.6 0-.1 0-.2 0 0-.1.2-.3.2-.6.2z" fill="#d87e2d"/><path d="m66.2 75.1c-.1 1.1.1 2 1 2.7-.4.3-.7-.6-1.1-.2-.3-.4-.3-.9-.4-1.3.5-.3 0-.9.5-1.2z" fill="#af6623"/><path d="m69.9 74.7c.7.9.6 1.1-.5 1.2-.2-.5.1-.8.5-1.2z" fill="#321d0b"/><path d="m59.2 39.5c.2.8.2 1.7.8 2.4-.2 0-.3 0-.5 0-.3-.7-.9-1.5-.3-2.4z" fill="#301c0b"/><path d="m68.3 51.1c.6-.7 1-.6 1.4 0-.4.6-.9.5-1.4 0z" fill="#37200c"/><path d="m77.6 80.8c-.5.6-.9.8-1.3.1.3-.7.7-.7 1.3-.1z" fill="#43270e"/><path d="m65.2 41.3c.1.2.2.3.4.6-.9.3-1.3-.1-1.5-.8.4-.2.7.2 1.1.2z" fill="#27160a"/><path d="m70 60.1c.1-.5.5-.7.7-.8.4.1.6.3.4.6-.2.6-.6.5-1.1.2z" fill="#281809"/><path d="m86.9 62.6c.5-.1 1.1.6 1.6 0 .3-.1.6-.6 1-.2-.7.7-1.6 1-2.6.2z" fill="#110a04"/><path d="m74.9 68.1c-.5.4-.8.3-1.1-.1.4-.7.5-.7 1.1.1z" fill="#271607"/><path d="m54.2 36.9c-.2-.2-.5-.4-.5-.8.2-.6.6-.3 1-.1.1.5 0 .8-.5.9z" fill="#2e1b09"/><path d="m89.6 62.3c0-.9-.9-.6-1.3-1h1.7c.2.6-.1.8-.4 1z" fill="#110a04"/><path d="m84.5 69.1c.2.3.5.7.7 1-.5 0-.7-.5-1.1-.7s-.8.2-1.2.2c0-.1 0-.1 0-.2s0-.1.1-.1c.3-.1.5-.2.8-.3.2-.1.5-.1.7.1z" fill="#1e1207"/><path d="m88.5 52.7c.1.3.1.5.2.8-.2.3-.6-.1-.8.3-.3-.6 0-.9.6-1.1z" fill="#d87e2d"/><path d="m61 56.1c-.1.4.1.8.2 1.2-.4.3-.1.7-.3 1-.2-.7-.3-1.4-.5-2.1.3 0 .4-.1.6-.1z" fill="#ab6524"/><path d="m79.3 71.9c.1-.4.2-.8.3-1.2.4-.2.6.1.9.1-.4.4-.8.8-1.2 1.1z" fill="#140c04"/><path d="m63.2 48c-.5.6-1.3-.1-1.8.6-.5-.2-.3-.5.1-.5.6-.1 1.1-.1 1.7-.1z" fill="#613a14"/><path d="m64.5 57.8c-.3.6-.7.3-1 .2.2-.4.5-.7 1-.2z" fill="#020102"/><path d="m63.5 33c0 .2.1.5-.3.7-.2-.1-.5-.3-.8-.5.3-.3.7-.2 1.1-.2z" fill="#1e1206"/><path d="m83 69.3v.2c-.4.4-.7.7-1.2.7.2-.4.7-.7 1.2-.9z" fill="#140c04"/><path d="m31.1 53.8c.3-.2.2-.5.3-.8.2.3.2.7.3 1s-.1.4-.3.3c-.1-.2-.2-.3-.3-.5z" fill="#331f0d"/><path d="m86.9 53.8c.3-.4.3-.8.1-1.2.8.4.8.8-.1 1.2z" fill="#d87e2d"/><path d="m77 62.1c-.3-.3-.7-.5-1-.8.6-.2.9.2 1 .8z" fill="#110a04"/><path d="m72.2 61.5c-.3.4-.6.2-1 .3.2-.3.5-.6.7-.8.1.2.1.4.3.5z" fill="#150c05"/><path d="m87.8 68.1c-.5 0-.9.3-1.3.2.4 0 .7-1 1.3-.2z" fill="#0b0703"/><path d="m68 39.8c.2-.3.4-.4.7-.1 0 .3-.3.3-.4.3-.2-.1-.3-.1-.3-.2z" fill="#080503"/><path d="m73.2 59.2c.1.2.2.4.2.5-.2.4-.4.1-.6 0 .1-.1.3-.3.4-.5z" fill="#150c05"/><path d="m85.2 68.1c-.4-.1-.8-.2-1.2-.3.5-.4.9-.4 1.2.3z" fill="#0b0703"/><path d="m81.5 68.8c-.4.3-.7.1-1-.3.4 0 .7.1 1 .3z" fill="#140c04"/><path d="m87.1 69.6c0-.2 0-.5 0-.8.3-.2.3.2.5.2-.1.4-.3.5-.5.6z" fill="#0b0703"/><path d="m89 56.6c-.3-.2-.5-.4-.5-.8.6 0 .5.4.5.8z" fill="#d87e2d"/><path d="m31.9 54.8c.2.2.3.4.1.6-.3-.1-.3-.3-.4-.6l.1-.1c.1 0 .2 0 .2.1z" fill="#9b5d21"/><path d="m31.9 54.8c-.1 0-.2 0-.3.1-.1-.2-.2-.4-.2-.5.1-.1.2-.2.3-.3.2.1.2.4.2.7z" fill="#563310"/><path d="m75 77.6c.3-.2.7-.3 1.1-.2-.4.2-.7.5-1.1.2z" fill="#150c05"/><path d="m85.3 70.1h1.2c-.4.3-.8.3-1.2 0z" fill="#1e1207"/><path d="m63.7 41c-.2 0-.5.1-.5-.2.3 0 .5-.1.5.2z" fill="#080300"/><path d="m56 63c-1.1.1-1.8-.6-2.5-1.2-2.8-2.4-5-5.4-6.6-8.7-.9-1.9-2-3.7-3.5-5.2-.4-.4-.9-.8-1.5-1.4 3.8 8.9 4.4 13.6 2.1 15.9-.6-1.6-.8-3.2-1.2-4.7-.8-3.3-1.4-6.7-2.6-9.9-.2-.5-.4-1-.6-1.5-1.8-3.8-5.6-4.3-8.6-1.3-.2.2-.4.4-.6.7-.8-1.1-1.2-2.1-1.3-3.3-.1-1.1.5-1.8 1.6-1.8 4.8 0 9.7-.2 14.5.1 3.7.2 5.8 2.8 6.8 6.1 1.4 4.8 2.7 9.6 4.1 14.4.2.6.4 1.2-.1 1.8z" fill="#da802e"/><path d="m45.6 32.5c-2.4 3.9-6.1 5.5-9.1 4.1 2.6-.4 4.9-.9 5-4.1z" fill="#030202"/><path d="m51.5 32h .4c.9 0 1.4.9 2.1 1.3.1.1.1.3.3.4 0 .2.1.5-.1.7-.3.2-.6 0-.9 0-.2 0-.3 0-.5.2.1.7.5 1.4.3 2.1.1.3.5.4.4.9-.5.7-1.1.3-1.3-.2-.3-.9-.9-1.5-1.3-2.2-.4-.6-.4-1.2-.4-1.9.3-.5.6-.9 1-1.3z" fill="#100904"/><path d="m39.8 32.2c-.5 2.6-.5 3-2.8 3.1-.7 0-1.3.7-2.4.6 1.8-1.3 3.4-2.4 5.2-3.7z" fill="#0c0703"/><path d="m54.2 33.7c-.1-.1-.2-.1-.3-.2-.3-.4 0-.9-.4-1.3-.2 0-.8.3-.8-.4h2.5c-.1.1-.2.2-.3.4.2.3.5.3.8 0v .9c-.7-.1-1.1.2-1.5.6z" fill="#da802e"/><path d="m53 36.7c-.2-.8-.5-1.7-.8-2.6.5-.2.8 0 1 .3-.4.4.1.7.1 1.1.1.5.5 1-.3 1.2z" fill="#da802e"/><path d="m53.8 38.4c0-.3.1-.5.3-.7.1.3.2.6-.3.7z" fill="#da802e"/><path d="m82.1 51c .6.2.8.7.8 1.2-.5.4-.8.1-1.1-.2-.2-.3-.2-.7.3-1z" fill="#311d0a"/><path d="m79.5 51.8c-.2-.5-.1-1.1.3-1.5-.3.7.3 1.2.4 1.7-.2-.1-.4-.1-.7-.2z" fill="#170d06"/><path d="m83.2 50.6c.3-.1.6.1.9.2.1.2-.2.3-.3.4-.2-.2-.4-.4-.6-.6z" fill="#100904"/><path d="m88.2 59.3c-.5 0-.7 0-1 0 .3-.4.6-.3 1 0z" fill="#da802e"/><path d="m60 7c1.8.4 3.5.3 5 1 .2.5.1.9-.2 1.4-1.6.3-3.3-.4-5.1-.5.2-.6.3-1.2.3-1.9z" fill="#db8230"/><path d="m14.5 30.1c.5.1.9.3 1.3.8-.5 1.5-1.6 2.9-2.3 4.4-.7 0-1.1-.5-1.7-.7.9-1.7 1.5-3.3 2.7-4.5z" fill="#db8231"/><path d="m105.6 43.4c-.4.4-.8.4-1.3.6-.9-1.5-1.3-3.2-1.9-4.8.5-.4 1.1-.5 1.7-.7.5 1.7 1.4 3.2 1.5 4.9z" fill="#db8230"/><path d="m20.3 22.6c.6.2.9.5 1.2.9-.7 1.5-2.1 2.7-3.2 4-.5-.4-.9-.7-1.4-1.2 1.1-1.3 2.1-2.7 3.4-3.7z" fill="#db8230"/><path d="m40.9 9.1c1.8-.4 3.3-1.1 5.1-1.2.6 1.2.8 2.3 1.1 3.6-1.6 1-3.4 1.1-5 1.7-.5-1.4-.8-2.7-1.2-4.1z" fill="#da812e"/><path d="m55.7 7c .1 1.2.1 2.3.2 3.5-1.6.8-3.3.5-5.1.4-.1-1.3-.2-2.4-.1-3.8 1.6-.3 3.2-.7 5-.1z" fill="#da812e"/><path d="m8.6 43.2c.2-1.7.7-3.2 1.6-4.6 1.2.2 2.2.7 3.4 1 .1 1.8-.6 3.3-1.5 4.8-1.3-.2-2.4-.6-3.5-1.2z" fill="#da812f"/><path d="m80 15.8c-1-.4-1.9-.8-2.7-1.5.8-.4 1.5-.8 2.4-1.3 0 1 .2 1.9.3 2.8z" fill="#db8434"/><path d="m100.4 32c-.4.9-.7 1.7-1.2 2.5-.5-.9-1-1.6-1.6-2.6 1 0 1.8 0 2.8.1z" fill="#db8434"/><path d="m88.6 62.6c-.6-.2-.7-.4-.4-.7.5 0 .2.4.4.7z" fill="#110a04"/><path d="m85.6 69.2c.5-.4.8-.5 1.1.1-.4.4-.7.1-1.1-.1z" fill="#0b0703"/><path d="m84.5 69.1c-.2 0-.5 0-.7 0 0-.3.1-.5.4-.6.1.1.2.4.3.6z" fill="#0b0703"/><path d="m63.7 43.1c-1 .1-1.6-.5-2.2-1.3.8-.5 1.5-.4 2.2.1.4.3.5.8 0 1.2z" fill="#1d1106"/><path d="m81.4 74.1c.5 0 .8-.1.8.5-.3 0-.5-.1-.8-.5z" fill="#130a03"/><path d="m81.9 65.2c-.2-.4-.3-.7-.5-1.1.6.2 1.1.3.5 1.1z" fill="#110a04"/><path d="m67.7 75.3c-.1.5-.3.6-.6.8-.1-.2-.2-.4-.2-.5.2-.4.6.2.8-.3z" fill="#0f0904"/><path d="m62.3 37.4c.3.2.4.4.1.7-.3-.2-.2-.4-.1-.7z" fill="#140c06"/><path d="m52.7 31.7c.4.5 1 .1 1.5.3-.3.5.1 1-.2 1.5-.7-.5-1.4-1-2-1.5.1-.3.4-.3.7-.3z" fill="#da802e"/><path d="m90.3 58.8c-.3-.2-.4-.5-.1-.8.5.2.2.5.1.8z" fill="#da802e"/></svg>