<svg enable-background="new 0 0 113.4 113.4" viewBox="0 0 113.4 113.4" xmlns="http://www.w3.org/2000/svg"><circle cx="56.7" cy="56.7" fill="#020304" r="56.7"/><circle cx="56.7" cy="56.7" fill="#fff" r="52"/><path d="m56.7 2c30.1-.4 55 24.7 54.8 55.1-.2 29.7-24.8 54.6-55.4 54.3-29.5-.3-54.5-24.8-54.1-55.4.3-29.6 24.6-54.3 54.7-54zm13.7 67.2c0-.8-.1-1.7-.3-2.7-.2-.9-.5-1.1-1.4-.6-2.9 1.6-6 1.9-9.1.7-4.2-1.6-6.8-5.5-6.8-10.1 0-1.5 0-1.5-1.5-1.1-2.8.8-5.1 2.4-6.9 4.6-3.7 4.7-4.6 10-2 15.5s7.1 8.4 13.2 8.5c8.2.3 14.8-6.4 14.8-14.8zm-27.2 21.7c.2-.3.1-.5 0-.7-.8-2.3-1.6-4.7-2.3-7-1.3-4.1-2.6-8.1-3-12.4-1-9.1 5.9-17.6 15-18.9.7-.1 1.5-.3 1.4-1-.1-.6-1-.3-1.5-.3-2.9.5-5.6 1.4-8 3.2-5.3 3.8-8.1 8.9-8.3 15.4-.1 2.5.6 5 1.2 7.5.9 3.7 2 7.3 3.2 10.9.1.3.3.7.1 1-.3.3-.6-.1-.9-.2-4.5-2.4-8.3-5.6-11.5-9.7-6.3-8.2-8.7-17.4-7.1-27.6 1.3-8.6 5.4-15.8 12.1-21.5 8.3-7.1 17.9-9.7 28.7-8.1 8.7 1.3 15.9 5.4 21.5 12.1 7.4 8.8 10 18.9 7.9 30.1-1.7 9-6.5 16.2-13.7 21.7-2.8 2.2-6 3.9-9.4 5-.3.1-.6.3-.8.1-.3-.3.1-.6.2-.9.7-1.5 1.4-3 2.1-4.6 1.8-4.4 4.1-8.6 4.7-13.4.4-3.2 0-6.3-1.3-9.2-.1-.2-.2-.5-.4-.5-.3 0-.4.3-.5.6-.2.5.1 1 .2 1.4 1.3 3.7 1.3 7.4 0 11.1-2 5.7-4.4 11.1-7.1 16.5-.1.3-.5.6-.2.9.2.2.6 0 .9-.1 6-1.6 11.3-4.5 15.7-8.8 8.7-8.4 12.5-18.7 11.4-30.8-.8-8.1-4-15.2-9.5-21.1-8.5-8.8-18.9-12.7-31.1-11.6-8.1.8-15.1 3.9-21 9.4-9 8.4-13 18.8-11.8 31 1.3 12.2 7.4 21.5 17.8 28 1.7 1 3.4 2 5.3 2.5zm4.9-46.6c2.2 1 4.5.1 5.5-2.2.3-.8.8-1 1.6-1h6.4c2.9 0 2.9-.1 2.5-2.9-.1-.5 0-1.1-.5-1.4 0 0-.2.1-.3.1-.3.6.2.9.4 1.3.6 1.3.3 1.9-1.1 1.9-2.5 0-5.1 0-7.6 0-.7 0-1.2-.2-1.2-1 0-.5-.2-1-.5-1.5-.1-.2-.2-.4-.4-.2-.1.1-.2.4-.2.5.1.3.3.6.5.9.8 1.3.8 2.1-.2 3.3-1.3 1.5-2.9 2.3-4.9 2.2zm-13.6-4c-.1 1.8.4 2.3 1.8 2.7 1 .3 1.9.1 2.9 0 1.9-.3 2.8-1.4 2.6-3.3s-.5-3.7-.7-5.6c0-.3-.2-.7.1-1 1-1.1.1-1.4-.7-1.8-.2.4-.3.8-.2 1.2.8 2.3.8 4.7 1.2 7 .1.6.1 1.1-.4 1.6-1.6 1.9-5.3 1.5-6.6-.8zm39.5 4c2.1 1 3.3.6 4.4-1.4.8-1.5.7-3.1.3-4.7-.1-.3-.3-.6-.7-.7s-.7.1-1 .5c-1 1.3-.6 2.6.9 3 .7.2.8.5.3 1.1-1 1.4-2.3 2.3-4.2 2.2zm-7.5 0c1.8 1 2.7.8 4.7-1.1 1.1-1.1 1.3-4.2.5-5.4-.1-.2-.2-.5-.5-.3-.2.1-.2.4-.1.6.1.3.3.5.5.8.7 1.3.7 2.1-.2 3.2-1.4 1.4-2.9 2.3-4.9 2.2z" fill="#ef7e00"/><path d="m42.4 26.3c.1.2-9.8 7.4-9.8 7.4l-3.5 17.7 19-7.1s-2.5 2.9-1.7 2.9 11.1-1.2 12.3-.4c1.3.8 14.3 4.6 14.3 4.6l10.9-5.7-4.9-12.4-27.8-7z" fill="#b2c910"/><path d="m83.8 33.5c-5.7-6.7-12.9-10.8-21.5-12.1-10.7-1.6-20.4 1.1-28.7 8.1-6.7 5.7-10.8 12.9-12.1 21.5-1.6 10.2.8 19.4 7.1 27.6 3.1 4.1 7 7.2 11.5 9.7.3.2.6.5.9.2.3-.2 0-.6-.1-1-1.2-3.6-2.3-7.2-3.2-10.9-.6-2.5-1.3-4.9-1.2-7.5.2-6.5 3-11.6 8.3-15.4 2.4-1.7 5.2-2.7 8-3.2.5-.1 1.4-.4 1.5.3 0 .2 0 .4-.2.5l18.4 11.1c.1-.2.2-.5.5-.6.3 0 .3.2.4.5 1.3 3 1.7 6 1.3 9.2-.6 4.8-2.9 9.1-4.7 13.4-.6 1.5-1.4 3-2.1 4.6-.1.3-.5.6-.2.9.2.2.6 0 .8-.1 3.4-1.1 6.6-2.8 9.4-5 7.2-5.5 12-12.7 13.7-21.7 2.2-11.3-.4-21.4-7.8-30.1z" fill="#020304"/><circle cx="63.4" cy="56.7" fill="#ef7e00" r="11"/><g fill="#fff"><path d="m15.2 45.8c0 .2-.1.3-.2.4s-.2.2-.3.2l-7.1 2.7c-.1 0-.2 0-.2 0-.1 0-.1-.1-.2-.1-.1-.1-.1-.1-.1-.2s0-.2 0-.3 0-.2 0-.3.1-.2.1-.2.1-.1.2-.1l2-.7 1.4-5.4-1.4-1.5c-.1-.1-.1-.1-.1-.2s0-.2 0-.2c0-.1.1-.2.1-.2 0-.1.1-.1.2-.2s.1-.1.2-.1.1 0 .2 0 .1.1.2.1l5 5.5c.1.1.2.2.2.4s-.2.2-.2.4zm-3.7-3-1 4 3.5-1.3z"/><path d="m6.6 53.1c.1-2 .8-2.9 2-2.9l5 .3c.2 0 .3.1.4.2s.1.3.1.5-.1.4-.1.5c-.1.1-.2.2-.4.1l-5-.3c-.2 0-.4.1-.6.4s-.3.7-.3 1.3l-.3 4.9c0 .2-.1.3-.2.3s-.2.1-.4 0c-.2 0-.3 0-.4-.1s-.1-.2-.1-.3z"/><path d="m9.5 68.3c-.6.1-1.1-.1-1.5-.5-.4-.5-.6-1.2-.8-2.1l-.4-3c-.3-2 .2-3 1.4-3.2l3.5-.5c1.2-.2 2 .7 2.3 2.7l.2 1.4c0 .2 0 .3-.1.3-.1.1-.2.1-.4.1s-.3 0-.4 0-.2-.1-.2-.3l-.2-1.5c-.1-.6-.2-1-.4-1.2s-.4-.3-.6-.3l-3.5.5c-.2 0-.4.2-.5.5s-.1.7 0 1.3l.4 2.9c.1.6.2 1 .4 1.2s.4.3.6.3l1.8-.3c.2 0 .3 0 .4.1s.1.3.2.5v.5c0 .1-.2.2-.3.2z"/><path d="m9.2 73c-.7-1.8-.5-3 .7-3.4l4.6-1.8c.2-.1.3-.1.4 0s .2.2.3.4.1.4.1.5-.1.2-.3.3l-4.7 1.9c-.2.1-.3.3-.4.6 0 .3 0 .7.2 1.3l1.1 2.8c.2.5.4.9.7 1.1.2.2.5.3.7.2l4.6-1.8c.2-.1.3-.1.4 0s .2.2.3.4.1.4.1.5-.1.2-.3.3l-4.6 1.8c-1.2.4-2.1-.3-2.8-2.1z"/><path d="m20.7 80.1c.1.2.2.3.2.4s0 .3-.1.4l-2.8 7.1c0 .1-.1.1-.2.2-.1 0-.1.1-.2.1s-.2 0-.2 0c-.1 0-.2-.1-.2-.1-.1-.1-.1-.1-.2-.2s-.1-.2-.1-.2c0-.1 0-.2 0-.2l.8-1.9-3-4.7h-2c-.1 0-.2 0-.2-.1-.1 0-.1-.1-.2-.2 0-.1-.1-.1-.1-.2s0-.2 0-.3 0-.2 0-.2c0-.1.1-.1.1-.2.1 0 .1-.1.2-.1h7.4c.1 0 .3 0 .4.1.2 0 .3.1.4.3zm-4.7.7 2.3 3.5 1.4-3.5z"/><path d="m20.3 91.3c-1.4-1.4-1.6-2.5-.8-3.4l2.5-2.5c.9-.9 2-.6 3.4.8l3.5 3.5c.1.1.2.2.1.3 0 .1-.1.2-.2.3s-.2.2-.3.2-.2 0-.3-.1l-3.4-3.4c-.4-.4-.8-.7-1.1-.8s-.5 0-.7.1l-2.5 2.5c-.2.2-.2.4-.1.7s.3.7.7 1.1l3.4 3.5c.1.1.2.2.1.3s-.1.2-.2.3-.2.2-.3.2-.2 0-.3-.1z"/><path d="m26.5 96.3c-.1.2-.2.2-.4.2-.1 0-.3-.1-.4-.2-.2-.1-.3-.3-.3-.4-.1-.1 0-.3.1-.4l4-5c .1-.2.2-.2.4-.2.1 0 .3.1.4.2.2.1.3.3.3.4s0 .3-.1.4z"/><path d="m29.9 99.2c-1.7-1-2.2-2.1-1.6-3.1l2.6-4.2c.1-.2.2-.2.3-.2s.3.1.5.2.3.2.4.3 0 .2-.1.4l-2.6 4.2c-.1.2-.1.4.1.7.1.3.5.6 1 .9l4.2 2.5c.1.1.2.2.2.3s-.1.2-.1.4c-.1.2-.2.3-.3.3-.1.1-.2 0-.3 0z"/><path d="m37.8 100-.4 1.1c-.1.2 0 .4.2.7.2.2.6.5 1.1.7l4.5 1.6c.1.1.2.1.2.2s0 .2-.1.4-.1.3-.2.3c-.1.1-.2.1-.3 0l-4.5-1.7c-1.9-.7-2.6-1.6-2.1-2.8l1.2-3.3c.4-1.2 1.6-1.4 3.4-.7l1.4.5c.1.1.2.1.2.2s0 .2-.1.4-.1.3-.2.4-.2.1-.3 0l-1.4-.5c-.5-.2-1-.3-1.3-.2s-.5.2-.6.4l-.4 1.2 6.1 2.2c.2.1.2.1.3.2 0 .1 0 .2-.1.4s-.1.3-.2.4-.2.1-.3 0z"/><path d="m48.2 103c-1.9-.3-2.8-1.1-2.6-2.3l.1-.4c.2-1.2 1.3-1.7 3.2-1.4l1 .2c.2 0 .3.1.3.2v.4s-.1.3-.1.4c-.1.1-.2.1-.3.1l-1-.2c-.6-.1-1-.1-1.3 0s-.4.3-.4.5l-.1.4c0 .2.1.4.3.6s.6.3 1.2.4l2.3.4c2 .3 2.8 1.1 2.6 2.3l-.1.5c-.2 1.2-1.3 1.7-3.2 1.4l-4.8-.8c-.2 0-.3-.1-.3-.2s0-.2 0-.4.1-.3.1-.4c.1-.1.2-.1.3-.1l4.9.8c.6.1 1 .1 1.3 0s .4-.3.4-.5l.1-.5c0-.2-.1-.4-.3-.6s-.6-.3-1.2-.4z"/><path d="m61.2 106.7c-2 .2-3-.3-3.2-1.5l-.4-3.5c-.1-1.2.8-2 2.7-2.2l4.9-.6c.2 0 .3 0 .3.1.1.1.1.2.1.4v.4c0 .1-.1.2-.3.2l-4.8.5c-.6.1-1 .2-1.2.4s-.4.4-.3.6l.4 3.5c0 .2.2.4.5.5s.7.2 1.3.1l4.8-.5c.2 0 .3 0 .3.1.1.1.1.2.1.4v.4c0 .1-.1.2-.3.2z"/><path d="m70.9 104.9c-1.9.6-3 .3-3.4-.8l-1.1-3.4c-.4-1.2.4-2.1 2.2-2.7l2.8-.9c1.9-.6 3-.3 3.4.8l1.1 3.4c.4 1.2-.4 2.1-2.2 2.7zm2.4-1.9c.6-.2.9-.4 1.1-.6s.3-.4.2-.6l-1.1-3.4c-.1-.2-.3-.3-.6-.4s-.7 0-1.3.2l-2.7.9c-.6.2-.9.4-1.1.6s-.3.4-.2.7l1.1 3.4c.1.2.3.3.6.4s.7 0 1.3-.2z"/><path d="m74.8 96.4c-.2-.3-.1-.5.2-.6l4.8-2.8c.4-.2.8-.4 1.1-.5.4-.1.7-.2 1-.2s.5 0 .8.1c.2.1.4.3.5.5l.6 1.1c.1.2.2.4.2.7 0 .2-.1.5-.2.7s-.4.5-.6.7-.6.5-1 .7l-.3.2c-.3.1-.5.3-.7.4s-.4.2-.5.3-.3.2-.4.2-.2.1-.3.2c.1 0 .2 0 .4-.1s.3-.1.5-.1.4-.1.7-.1.6-.1 1-.2l2.6-.4c.2 0 .4 0 .5.2s.1.3 0 .4-.2.2-.4.3c0 0-.1.1-.2.1s-.1.1-.2.1-.1.1-.2.1-.1 0-.2 0l-6.3.8 1.1 1.9c.1.2.1.3 0 .4s-.2.2-.4.3-.3.2-.5.2c-.1 0-.2-.1-.3-.2zm1.4-.1 1.2 2 4-2.3c.3-.2.5-.3.7-.5.2-.1.3-.3.4-.4s.1-.2.1-.3 0-.2-.1-.3l-.5-.9c0-.1-.1-.1-.2-.2-.1 0-.2-.1-.3 0-.1 0-.3.1-.5.2s-.5.2-.8.4z"/><path d="m82.9 91.6c-.2-.2-.2-.4 0-.7l4.1-3.8c.3-.3.7-.6 1-.7.3-.2.6-.3.9-.4s.5-.1.8 0c .2.1.4.2.6.4l.9.9c.2.2.3.4.3.6s0 .5-.1.8-.2.6-.5.9c-.2.3-.5.6-.8.9l-.3.3c-.2.2-.4.4-.6.5s-.3.3-.4.4-.2.2-.3.3-.2.2-.3.3c.1 0 .2-.1.3-.1.1-.1.3-.1.4-.2s.4-.2.7-.3.6-.2 1-.4l2.4-.9c.2-.1.4 0 .5.1s.2.3.1.4c0 .1-.1.3-.3.4l-.1.1c-.1 0-.1.1-.2.1s-.1.1-.2.1-.1.1-.2.1l-6 2.1 1.5 1.6c.1.1.2.3.1.4 0 .1-.1.3-.3.4s-.3.2-.4.3c-.1 0-.3 0-.4-.2zm1.4-.4 1.6 1.7 3.4-3.1c.2-.2.4-.4.6-.6.1-.2.2-.3.3-.5.1-.1.1-.2.1-.3s-.1-.2-.1-.2l-.7-.8c-.1-.1-.1-.1-.2-.1s-.2 0-.3 0-.3.1-.5.3c-.2.1-.4.3-.7.5z"/><path d="m93.5 86.4 1 .7c.2.1.4.1.7 0s .6-.4.9-.9l2.8-3.9c.1-.1.2-.2.3-.2s.2.1.4.2l.3.3c0 .1 0 .2-.1.3l-2.8 3.9c-1.1 1.6-2.2 2-3.2 1.3l-2.9-2.1c-1-.7-.9-1.9.2-3.5l.9-1.2c.1-.1.2-.2.3-.2s.2.1.4.2l.3.3c0 .1 0 .2-.1.3l-.8 1.2c-.3.5-.5.9-.6 1.2 0 .3 0 .5.2.6l1 .7 3.8-5.3c.1-.1.2-.2.3-.2s.2.1.4.2l.3.3s0 .2-.1.3z"/><path d="m102.8 72.2c.6.3.9.7 1 1.3s-.1 1.3-.5 2.2l-1.2 2.8c-.8 1.8-1.8 2.5-2.9 2l-3.3-1.6c-1.1-.5-1.3-1.7-.5-3.5l.6-1.3c.1-.1.1-.2.3-.2.1 0 .2 0 .4.1s.3.2.3.2c.1.1.1.2 0 .3l-.6 1.3c-.2.5-.3 1-.3 1.3s.1.5.3.6l3.2 1.4c.2.1.4 0 .7-.1.2-.2.5-.5.7-1.1l1.2-2.7c.2-.5.3-1 .3-1.3s-.1-.5-.3-.6l-1.6-.7c-.2-.1-.3-.2-.3-.3s0-.3.1-.5.2-.3.3-.4.2-.1.4 0z"/><path d="m104.7 70.1c.2.1.3.1.3.3 0 .1 0 .3-.1.5s-.1.4-.2.4c-.1.1-.2.1-.4.1l-6.1-1.8c-.2-.1-.3-.1-.3-.3 0-.1 0-.3.1-.5s.1-.4.2-.5.2-.1.4-.1z"/><path d="m105.2 59.5c1.2.2 1.7 1.3 1.4 3.2l-.9 5.6c0 .3-.2.4-.5.4l-6.2-1c-.3 0-.4-.2-.4-.5l.9-5.6c.3-2 1.1-2.8 2.3-2.6zm-.4 7.7.7-4.7c.1-.6.1-1 0-1.3s-.3-.5-.5-.5l-3.5-.5c-.2 0-.4.1-.6.3s-.3.7-.4 1.2l-.7 4.7z"/><path d="m106.9 55c .1 2-.4 3-1.7 3.1l-3.5.2c-1.2.1-1.9-.9-2-2.8l-.2-2.9c-.1-2 .4-3 1.7-3.1l3.5-.2c1.2-.1 1.9.9 2 2.8zm-1.2-2.8c0-.6-.1-1-.3-1.3s-.4-.4-.6-.4l-3.5.2c-.2 0-.4.2-.5.4-.1.3-.2.7-.1 1.3l.2 2.8c0 .6.1 1 .3 1.3s.4.4.6.4l3.5-.2c.2 0 .4-.2.5-.4s.2-.7.2-1.3z"/><path d="m99.7 49.2c-.3.1-.5 0-.6-.3l-1.5-5.4c-.1-.4-.2-.8-.2-1.2s0-.7.1-1 .2-.5.3-.7c.2-.2.4-.3.6-.4l1.2-.3c.2-.1.5-.1.7 0s .4.2.7.4c.2.2.4.5.6.8s.3.7.4 1.1l.1.4c.1.3.1.5.2.7s.1.4.2.6c0 .2.1.3.1.4s.1.3.1.4c0-.1 0-.2 0-.4 0-.1 0-.3 0-.5s0-.4.1-.7.1-.6.1-1l .3-2.6c0-.2.1-.4.3-.4s.3 0 .4.1.2.2.2.5v.2s0 .1 0 .2v.2.2l-.8 6.3 2.1-.6c.2-.1.3 0 .4.1s.2.2.2.5c.1.2.1.4 0 .5 0 .1-.1.2-.3.3zm.3-1.5 2.3-.6-1.3-4.5c-.1-.3-.2-.6-.3-.8s-.2-.4-.3-.5-.2-.2-.3-.2-.2 0-.3 0l-1 .3c-.1 0-.2.1-.2.1-.1.1-.1.2-.1.3s0 .3 0 .6c0 .2.1.5.2.8z"/></g></svg>