<svg enable-background="new 0 0 113.4 113.5" viewBox="0 0 113.4 113.5" xmlns="http://www.w3.org/2000/svg"><circle cx="56.7" cy="57" fill="#40b4e5" r="55.9"/><path d="m113.4 56.1c.3 31.8-24.1 55.6-53.2 57.3-16.8 1-31.4-4.6-43.4-16.4-11-10.9-16.7-24.2-16.8-39.6-.2-31.8 25.1-57 56.7-57.4 31.8.4 56.4 25.5 56.7 56.1zm-4.9 3.3c.3-5.1-.2-10.2-1.5-15.2-2-7.9-5.7-15-11-21.2-.2-.3-.4-.6-.8-.6s-.6.3-.8.6c-.9 1.1-1.9 2.1-2.7 3.2-1.9 2.4-3.4 5.1-4.3 8.1-.9 3.1-.9 6.3-.9 9.5 0 2.9 1.2 5.3 3.4 7.2 2.4 2.1 5.4 2.3 7.7.5.8-.7 1.4-1.5 1.9-2.5 1.2-2.5 1.4-5 .4-7.6-.4-.9-1-1.7-2-1.9-1.6-.3-3.8 1.3-4.1 3 .8-.1 1.6-.3 2.4 0 2.1.6 3.3 2.8 2.7 5-.7 2.3-2.5 3.5-4.8 3-.5-.1-.9-.2-1.3-.4-2.6-1.2-4.2-3.9-3.4-6.7.8-2.9 2.5-5.1 5-6.6 2.1-1.2 4.4-1.3 6.5.1 1.5 1 2.5 2.5 2.9 4.2 1.2 4.3.2 8.2-2.5 11.7-1.5 1.9-3.4 3.3-5.9 3.6-3.9.5-9.1-2-11.1-6.7-1.8-4.2-1.8-8.6-1.3-12.9.6-4.6 2.5-8.6 5.4-12.2 1.3-1.7 2.8-3.4 4.3-4.8-.2-.5-.5-.7-.9-.8-.2.2-.5.3-.7.5-1.4 1.4-3 2.7-4.6 3.9-3 2.3-6.3 4-9.9 5-5 1.3-10.1 1.4-15.1.2-4.2-1-7.4-3.4-8.8-7.6-1-2.9-.5-5.4 1.6-7.7 2.5-2.7 5.7-4.1 9.4-4.4 2.8-.2 5.4.2 7.8 1.9 2.6 1.9 3.3 5 1.6 7.6-1.8 2.6-4.2 4.2-7.4 4.9s-6.5-1.8-7.1-4.6c-.3-1.3.3-3.1 1.4-3.8.8-.6 1.8-.8 2.7-.8 2.5-.2 4.5 1.7 4.3 3.8 0 .4-.1.8 0 1.1.9-.2 1.7-.7 2.3-1.6 1.3-1.7 1-3.2-1-4.1-1.8-.8-3.7-.7-5.5-.5-1.6.2-3.2.8-4.5 1.8-2.5 1.3-3 3.9-1.4 6.3 1.3 2 3.1 3.4 5.4 4 2.5.7 5.1.5 7.6.4 2.1-.1 4.2-.4 6.3-1 3.6-1.1 6.7-3 9.6-5.3 1.1-.9 2.3-1.7 3.3-3-.2-.1-.3-.1-.4-.2-6.3-4.9-13.3-8.2-21-9.9-5.2-1.1-10.4-1.4-15.6-.9-4.6.4-9 1.5-13.3 3.1-2.7 1-5.2 2.3-7.8 3.7-.7.3-1.5.4-1.8 1.4.7-.2 1.2-.2 1.6-.7.6.1 1.1-.3 1.7-.4 3.5-.6 6.8 0 9.7 2 2.6 1.8 3.7 3.9 2.7 7.4-.6 2.1-1.7 3.8-3 5.5-1.4 1.8-2.9 3.6-4.1 5.5-1.5 2.2-3.1 4.3-5.2 6-1.3 1.1-2.8 1.9-4.5 1.7-2.3-.2-3.8-1.6-4.6-3.6-.9-2.1-1-4.3-.5-6.5.7-3.6 2.4-6.7 5.1-9.3 1.8-1.7 4.1-1.2 5.9-.6.9.3 1.2 1.2 1.1 2s-.9 1.4-1.8 1.4c-.4 0-.8 0-1.2-.1s-.8-.2-1.2 0c-.6.4-1 1-1.4 1.6-1.9 2.5-3.3 5.2-2.9 8.5.2 1.3.4 2.6 1.9 3.2 1.5-.5 2.4-1.7 3.3-2.8 2.5-3 4.7-6.1 7.2-9.1 1-1.2 1.8-2.5 2.2-4 .5-1.8 0-3-1.4-4.1-.6-.4-1.3-.8-2-1-3.6-1-6.7.2-9.6 2.2-2.1 1.4-3.8 3.2-5.5 5-1.6 1.7-2.8 3.6-3.3 5.9-.5 2.5-.5 5-.2 7.5.4 3.1 1.3 5.9 2.9 8.5.8 1.3 1.8 2.4 3.1 3.1 2 1.1 3.9 1.1 5.7-.6.7-.6 1.3-1.4 1.8-2.1 1.4-2 2.3-4.2 3.3-6.3 1.8-3.5 4.5-5.7 8.1-7.1 2.2-.9 4.5-1.3 6.7-1.8 1.2-.3 2.5-.7 3.8-.5.6.5 1.3 1 1.1 2s-.9 1.4-1.8 1.6c-.2 0-.5.1-.7.1-2.5.5-5 1.1-7.4 2-2.9 1.1-5.2 2.9-6.6 5.8-.5.8-.9 1.8-1.4 2.7-1.2 2.4-2.5 4.7-4.5 6.5-3.1 2.8-7.3 3-10.7.6-2.2-1.5-3.7-3.7-4.9-6-1.4-2.8-2.2-5.8-2.6-8.9-.4-3.3-.3-6.6.9-9.7.1-.2.2-.4-.1-.6-.4 0-.5.3-.7.5-2.9 4-5.2 8.3-6.9 13s-2.7 9.5-3 14.4c-.3 4.5 0 9 1 13.4 1.1 5.1 2.8 10 5.4 14.6 2.3 4.2 5.1 8 8.4 11.4 2.4 2.5 5.1 4.7 7.9 6.6 3.2 2.1 6.5 3.9 10.1 5.3 5 1.9 10.1 3.1 15.5 3.4 4.7.3 9.3 0 13.9-1 5.1-1.1 10-2.9 14.5-5.5 4-2.3 7.7-5 10.9-8.3 1.2-.6 1.7-1.8 2.6-2.6 1.8-1.7 3.2-3.7 4.6-5.8.3-.4.8-.7.7-1.3 1.6-2.8 3.1-5.6 4.3-8.7 2-5 3.1-10.3 3.4-15.7zm-13.6-12.6c.4-.3.5-.6.1-1-.6 0-1.1-.5-1.8-.6.2 1.1.9 1.4 1.7 1.6zm-31.2-27.9c-.3-.5-.5-1-.6-1.5-.5-.1-.5-.1-.9-.1 0 1 .5 1.6 1.5 1.6z" fill="#2a3773"/><path d="m16.1 26.2c-1.2 3.2-1.3 6.4-.9 9.7.4 3.1 1.2 6.1 2.6 8.9 1.2 2.3 2.6 4.5 4.9 6 3.4 2.4 7.6 2.1 10.7-.6 2-1.8 3.3-4.1 4.5-6.5.5-.9.9-1.8 1.3-2.7 1.4-2.9 3.6-4.7 6.6-5.8 2.4-.9 4.9-1.4 7.4-2 .2-.1.5-.1.7-.1.9-.2 1.6-.6 1.8-1.6s-.5-1.5-1.1-2c-1.4-.3-2.6.2-3.8.5-2.3.5-4.5 1-6.7 1.8-3.6 1.4-6.3 3.7-8.1 7.1-1.1 2.1-2 4.3-3.3 6.3-.5.8-1.1 1.5-1.8 2.1-1.8 1.7-3.7 1.7-5.7.6-1.4-.6-2.4-1.7-3.2-3-1.6-2.6-2.6-5.4-2.9-8.5-.3-2.5-.3-5 .2-7.5.5-2.3 1.7-4.2 3.3-5.9 1.7-1.8 3.5-3.6 5.5-5 2.9-2 6-3.2 9.6-2.2.7.2 1.4.5 2 1 1.5 1 1.9 2.3 1.4 4.1-.4 1.5-1.2 2.8-2.2 4-2.5 3-4.8 6.1-7.2 9.1-.9 1.1-1.8 2.2-3.3 2.8-1.5-.6-1.7-1.8-1.9-3.2-.5-3.3 1-6 2.9-8.5.4-.5.8-1.1 1.4-1.6.4-.2.8 0 1.2 0 .4.1.8.1 1.2.1.9 0 1.6-.7 1.8-1.4.2-.8-.2-1.7-1.1-2-1.8-.6-4.1-1-5.9.6-2.7 2.6-4.4 5.7-5.1 9.3-.4 2.2-.4 4.4.5 6.5.9 2 2.3 3.4 4.6 3.6 1.8.2 3.2-.6 4.5-1.7 2.1-1.7 3.7-3.8 5.2-6 1.3-1.9 2.8-3.7 4.1-5.5 1.3-1.7 2.4-3.4 3-5.5.9-3.4-.1-5.6-2.7-7.4-2.9-2-6.2-2.6-9.7-2-.6.1-1 .6-1.7.4-.4.5-1 .5-1.6.7.3-1 1.1-1.1 1.8-1.4 2.5-1.4 5.1-2.7 7.8-3.7 4.3-1.6 8.7-2.7 13.3-3.1 5.3-.5 10.5-.2 15.6.9 7.7 1.7 14.7 5 20.9 9.8.1.1.3.2.4.2-1 1.3-2.2 2.1-3.3 3-2.9 2.4-6 4.3-9.6 5.3-2.1.6-4.2.9-6.3 1-2.5.1-5.1.3-7.6-.4-2.3-.7-4.1-2-5.4-4-1.5-2.5-1-5 1.3-6.8 1.3-1 2.9-1.6 4.5-1.8 1.8-.2 3.7-.3 5.5.5 2 .9 2.3 2.4 1 4.1-.7.9-1.4 1.4-2.3 1.6-.2-.4-.1-.8 0-1.1.2-2.2-1.8-4-4.3-3.8-1 .1-1.9.2-2.7.8-1.1.8-1.7 2.5-1.4 3.8.6 2.8 3.9 5.3 7.1 4.6 3.1-.7 5.6-2.3 7.4-4.9s1-5.7-1.6-7.6c-2.3-1.7-5-2.1-7.8-1.9-3.7.3-6.9 1.7-9.4 4.4-2 2.2-2.6 4.8-1.6 7.7 1.5 4.3 4.6 6.7 8.8 7.6 5 1.2 10.1 1 15.1-.2 3.7-.9 6.9-2.7 9.9-5 1.6-1.2 3.2-2.5 4.6-3.9.2-.2.5-.4.7-.5.4.1.7.4.9.8-1.6 1.5-3 3.1-4.3 4.8-2.8 3.6-4.8 7.6-5.4 12.2-.5 4.4-.5 8.8 1.3 12.9 2 4.7 7.2 7.2 11.1 6.7 2.5-.3 4.4-1.7 5.9-3.6 2.7-3.5 3.7-7.4 2.5-11.7-.5-1.7-1.5-3.2-2.9-4.2-2.1-1.4-4.4-1.4-6.5-.1-2.5 1.5-4.3 3.7-5 6.6-.8 2.9.8 5.6 3.4 6.7.4.2.9.3 1.3.4 2.3.5 4.1-.6 4.8-3 .6-2.2-.5-4.3-2.7-5-.8-.2-1.6-.1-2.4 0 .3-1.7 2.6-3.3 4.1-3 1.1.2 1.7 1 2 1.9 1 2.6.7 5.1-.4 7.6-.5 1-1 1.8-1.9 2.5-2.3 1.8-5.2 1.6-7.7-.5-2.2-1.9-3.4-4.3-3.4-7.2 0-3.2 0-6.4.9-9.5.8-3 2.4-5.6 4.3-8.1.8-1.1 1.8-2.1 2.7-3.2.2-.3.4-.6.8-.6.4.1.6.4.8.6 5.3 6.2 9 13.3 11 21.2 1.3 5 1.8 10.1 1.5 15.2-.3 5.5-1.4 10.8-3.4 15.9-1.2 3-2.6 5.9-4.3 8.7.1.6-.5.9-.7 1.3-1.3 2.1-2.7 4.1-4.6 5.8-.9.8-1.4 2-2.6 2.6-3.2 3.3-6.9 6-10.9 8.3-4.6 2.6-9.4 4.4-14.5 5.5-4.6.9-9.2 1.3-13.9 1-5.4-.3-10.5-1.5-15.5-3.4-3.6-1.4-6.9-3.2-10.1-5.3-2.9-1.9-5.5-4.2-7.9-6.6-3.3-3.4-6.1-7.2-8.4-11.4-2.5-4.6-4.3-9.5-5.4-14.6-.9-4.4-1.2-8.9-1-13.4.3-4.9 1.3-9.8 3-14.4 1.7-4.7 4-9 6.9-13 .2-.2.3-.6.7-.5.7.5.6.7.5.9z" fill="#40b4e5"/><path d="m93.2 45.2c.8.1 1.3.6 1.8.6.3.4.3.7-.1 1-.8-.2-1.5-.5-1.7-1.6z" fill="#40b4e5"/><path d="m63.7 18.9c-1.1-.1-1.6-.6-1.5-1.6.4-.1.4-.1.9.1.1.5.4 1 .6 1.5z" fill="#40b4e5"/><path d="m95.2 90.9c-.4 0-.6.3-.8.6-.6.6-1.3 1.2-1.9 1.8-2.6 2.3-5.7 3.7-9.1 4.2-2.7.4-5.2-.2-7.6-1.2-1.5-.7-2.7-1.7-3.6-3.1-1.2-1.8-1.1-3.7-.4-5.6.7-2 1.8-3.8 3.2-5.4 2.4-2.8 4.3-5.9 6.6-8.7 1-1.3 2.2-2.3 3.6-3.2 4-2.6 7.5.6 8.3 3.6s.5 5.9-.7 8.8c-1 2.4-2.3 4.6-4.3 6.3s-5.2 1.5-6.8-.3c-.3-1.7.4-2.5 2.1-2.5h.1c1.7.5 2.5-.5 3.4-1.7 1.5-2 2.6-4.1 2.8-6.7.1-1.3-.2-2.6-.7-3.7-.5-1.2-1.4-1.3-2.5-.5-1.2 1-2.2 2.2-3.2 3.4-2.3 3-4.7 5.9-7 8.9-.7.9-1.1 1.9-1.4 2.9-.6 1.8.2 3.3 1.8 4.3 2 1.2 4.1 1.3 6.2.8 2.5-.5 4.7-1.8 6.6-3.5 1.6-1.5 3.3-2.9 4.6-4.6 1.8-2.2 2.8-4.6 3-7.4.3-4.3-.2-8.5-2.2-12.3-.8-1.5-1.6-2.8-2.9-3.9-.9-.8-2-1.2-3.1-1.5-.9-.2-1.7.1-2.4.6-1.6 1-2.7 2.4-3.5 4-.9 1.6-1.7 3.1-2.5 4.8-1.9 3.9-4.9 6.5-9 7.9-2.8 1-5.8 1.5-8.7 2.1-1 .2-2.1-.5-2.3-1.5-.2-.8.4-1.7 1.5-2 1-.3 2-.4 3.1-.7 2.2-.5 4.4-1.1 6.5-2 2.5-1.1 4.3-2.9 5.5-5.3.7-1.5 1.5-3 2.3-4.5.9-1.7 2-3.4 3.5-4.7 3.5-3 8.1-3 11.7.1 2.6 2.3 4.2 5.4 5.3 8.6 1.1 3.3 1.6 6.6 1.4 10.1-.1 2.1-.6 4.1-1.4 6.1-.5.1-.6.6-.8.9-1 1.9-2.4 3.5-3.8 5.2-.3.1-.5.3-.5.5z" fill="#283773"/><path d="m53.3 73.4c-.2.6-.8.7-1.3.9-4.7 2.7-9.5 5.5-14.3 8-2.5 1.3-5 2.7-7.7 3.4-.4.1-.8.2-1.1.2-1.1 0-1.8-.7-1.8-1.8s.3-2.1.6-3.1c1.1-3.2 2.6-6.3 4.1-9.4 1.9-3.9 3.8-7.9 5.8-11.8.2-.4.4-.9.8-1.3.3.4.3.9.4 1.3.4 3 1.4 5.8 3.3 8.2 1.7 2.3 4.1 3.7 6.8 4.6 1.3.4 2.6.4 3.9.6.1.1.3 0 .5.2zm-20.2 6.7c1.5.2 2.3-.2 2.6-1.2.2-.8-.2-1.8-1.1-2.2-.7-.4-1.6 0-2.4 1.1-.2 1 0 1.8.9 2.3zm5.6-4.8c-.2-.9-.7-1.5-1.6-1.7-.9.3-1.4.9-1.5 1.8.2.5.5.9.9 1.2.3.1.7.1 1.1 0 .5-.3 1-.6 1.1-1.3zm.7-2.3c1.4.2 1.5.1 2.1-1.1-.3-.7-.7-1.4-1.5-1.3s-1.2.7-1.2 1.4c0 .5.2.8.6 1z" fill="#d02423"/><path d="m80.8 52c-.3-5-2.1-9.2-5.4-12.8-2.4-2.6-5.2-4.6-8.4-6.2-1.6-.8-3.2-1.4-4.8-2.1 1.1-.3 2.2-.2 3.2-.1 2.4.2 4.9.5 7.2 1.1 2.4.6 4.5 1.6 6.3 3.3 1.7 1.6 2.5 3.7 2.9 6 .5 3.4 0 6.8-.6 10.2 0 .2 0 .5-.4.6z" fill="#283774"/><path d="m40.7 56.1c-.6.1-.6-.3-.6-.6-.3-3.4-.5-6.8.5-10.2 1.2-3.9 3.9-6.1 7.6-7.2 2.6-.8 5.2-1 7.9-1.1 1.5-.1 3.1-.1 4.8.1-.4.4-.9.5-1.2.6-4.1 1.2-7.8 3-11.1 5.7-4 3.2-6.8 7.2-7.6 12.4-.2.1-.2.2-.3.3z" fill="#283774"/><path d="m75.9 62c-.6 4.3-3.1 7.1-7.1 8.6-2.5 1-5.1 1.2-7.8 1.4-1.9.1-3.8.1-5.9 0 .6-.5 1.1-.6 1.7-.8 3.2-1 6.2-2.4 8.9-4.2 4.1-2.8 7.3-6.4 8.9-11.2 0-.1.1-.2.2-.3.7-.4.4-1.1.4-1.6.3-.1.3-.6.7-.5v3.3c0 .4 0 .7.3.9.1.3.1.6 0 .9-.4.1-.3.5-.3.8z" fill="#283774"/><path d="m44.7 51.1c1.9-1.9 3.8-3.9 5.7-5.9.2.1.3.1.3.2.4 1.6.8 3.3.8 4.9.1 2.7-.9 5-3 6.7-2.7-1.2-4.3-3.3-3.8-5.9zm1.8 3.4c.9-1.5 2.2-2.9 1.4-5-1 .7-1.8 1.3-2.4 2.1-.1 1.6.1 2.1 1 2.9z" fill="#2e3a77"/><path d="m66.5 61.1c-2.2 1.8-4.5 3.5-6.6 5.2-2.6.4-4.8-1.3-5.9-4 1.6-1.3 3.3-2.3 5.5-2.4 2.4-.1 4.7.6 7 1zm-4.7 2.2c-2.2-.8-3.8.4-5.6.9.7.9 1.6 1.2 2.6 1.4 1.3-.3 2-1.3 3-2.3z" fill="#2e3a77"/><path d="m68.4 59.1c0 .4-.2.7-.4.9-.1 0-.2 0-.3 0-2.5-1.2-5.1-1.2-7.7-.9-.9.1-1.8 0-2.8.3-1.9.6-3.7 1.1-5.1 2.6-.1.1-.3.2-.5.3-.1.1-.2.1-.3.1-.4-.1-.7-.4-.6-.8 2.3-2.6 5.2-3.5 8.5-3.8 1-.1 2-.1 3-.2 2-.2 4.7.5 6.2 1.5z" fill="#263e7b"/><path d="m52.2 44c .2-.3.5-.5 1-.4.9 1.8 1.4 3.7 1.2 5.9-.1 1.1-.2 2.2-.4 3.2-.5 2.4-1.1 4.8-3.1 6.5-.4.4-.8.8-1.1 1.2-.6 0-.8-.2-1-.7.4-.7 1-1.2 1.6-1.8.5-.5.8-1.1 1.2-1.7 1.1-2.2 1.3-4.5 1.6-6.9.2-1.5-.1-3-.6-4.5-.3-.2-.5-.5-.4-.8z" fill="#263e7b"/><path d="m16.8 59.5c-1.5 0-2.8-1.2-2.7-2.6 0-1.2 1.4-2.5 2.6-2.5 1.4 0 2.7 1.2 2.7 2.5.1 1.4-1.1 2.5-2.6 2.6z" fill="#283875"/><path d="m53.3 98.4c-1.5 0-2.7-1.1-2.6-2.5 0-1.3 1.4-2.6 2.7-2.6s2.7 1.4 2.7 2.6c-.1 1.3-1.4 2.5-2.8 2.5z" fill="#283774"/><path d="m52.8 91.6c-1.1 0-2.1-.9-2.1-2.1 0-1 1-2 2-2s2.1 1 2.2 2c0 1.1-1 2.1-2.1 2.1z" fill="#273a77"/><path d="m23.1 61c-1.1 0-2-.9-2-2s1-2 2.2-2c1.1 0 2 1 2 2-.1 1.1-1.1 2.1-2.2 2z" fill="#283875"/><path d="m29.3 61.3c-.9 0-2-1-2-1.9 0-1 .9-1.8 1.9-1.8s2 .9 2 1.8c.1.8-1 1.8-1.9 1.9z" fill="#273a77"/><path d="m56 83.8c0 .9-1 1.8-1.9 1.9-.9 0-2-1-2-1.9s1-1.9 2-1.9c.9.1 1.9 1.1 1.9 1.9z" fill="#273a77"/><path d="m35 57c-.7 1.1-1.2 1.4-1.8 1.2-.7-.2-1-.8-.9-1.9.2-.4.6-.6 1.1-.8.9.1 1.4.6 1.6 1.5z" fill="#263d79"/><path d="m56.4 81.1c-.2-.8.1-1.3.7-1.7.8-.3 1.4.1 1.8.7.1.9-.1 1.5-.8 1.7s-1.3-.1-1.7-.7z" fill="#263d79"/><path d="m76.2 57.6c-.3-.2-.4-.6-.3-.9 0-1.1 0-2.2 0-3.3.3 1.3.4 2.7.3 4.2z" fill="#283774"/><path d="m75.9 62c0-.9 0-1.9 0-2.8 0-.3-.1-.6.3-.8.2 1.3 0 2.4-.3 3.6z" fill="#283774"/><path d="m75.9 53.3c-.4-.1-.5.4-.7.5-.1-.7 0-1.4.5-2.2.3.7.2 1.2.2 1.7z" fill="#283774"/><path d="m75.2 53.8c-.1.6.2 1.2-.4 1.6 0-.5.1-1.1.4-1.6z" fill="#283774"/><path d="m33.1 80.1c-.9-.5-1.1-1.3-.9-2.3.8-1.1 1.7-1.5 2.4-1.1.9.4 1.3 1.4 1.1 2.2-.3.9-1.2 1.3-2.6 1.2z" fill="#3f306e"/><path d="m38.7 75.3c-.1.7-.6 1-1.1 1.3-.4.1-.7.1-1.1 0-.4-.3-.7-.7-.9-1.2.1-.9.6-1.5 1.5-1.8 1 .2 1.5.8 1.6 1.7z" fill="#492f6c"/><path d="m39.4 73c-.4-.3-.6-.6-.7-1 0-.7.5-1.3 1.2-1.4.9-.1 1.2.6 1.5 1.3-.6 1.3-.7 1.3-2 1.1z" fill="#492f6c"/><path d="m46.5 54.5c-.9-.8-1.1-1.4-.9-2.9.5-.9 1.4-1.4 2.4-2.1.7 2.1-.5 3.5-1.5 5z" fill="#ebe8f3"/><g fill="#e6e3f0"><path d="m61.8 63.3c-1 1-1.7 2-3 2.3-1-.2-1.9-.5-2.6-1.4 1.8-.5 3.4-1.7 5.6-.9z"/><path d="m9.9 48.4-.3 1.6c-.3 0-.4-.1-.5-.1-.4-.1-.7-.2-.9-.4s-.3-.5-.4-.9c0-.4.1-1.1.3-2 .2-1 .4-1.7.5-2.1s.3-.7.4-.9.3-.3.5-.3c.2-.1.4-.1.7 0 .2 0 .7.1 1.3.2s1 .2 1.3.3.5.2.6.3c.3.2.5.6.5 1 0 .5-.1 1.4-.4 2.7-.1.7-.3 1.2-.4 1.5s-.2.5-.3.7c-.2.2-.4.3-.6.4-.2 0-.6 0-1-.1 0 0-.1 0-.3-.1l.3-1.6h.4s.1 0 .2-.1c.1 0 .1-.2.2-.4s.2-.6.3-1.1.2-.8.2-1 0-.3 0-.4c-.1-.1-.2-.2-.3-.3-.2-.1-.5-.2-.9-.2-.5-.2-.8-.2-.9-.2-.2 0-.3 0-.4.1s-.2.2-.2.4-.1.5-.3 1c-.1.6-.2 1-.2 1.2s0 .4 0 .4c.1.2.3.3.6.4z"/><path d="m7.3 51.6 5.3.2-.1 3.9c0 .9-.1 1.5-.1 1.7s-.1.4-.2.5c-.1.2-.3.3-.5.4s-.6.1-1 .1-.7 0-.9-.1-.3-.1-.4-.3c-.1-.1-.2-.4-.2-.7 0 .3-.1.6-.3.7-.1.1-.2.1-.4.2-.1 0-.4 0-.9 0h-.5l.1-1.6h.3.6s.2-.1.3-.1c.1-.1.1-.1.1-.2s0-.3 0-.7l.1-2.3h-1.4zm2.6 1.7-.1 2.3v.7s0 .1.1.2c0 .1.1.1.2.2.1 0 .2.1.4.1s.3 0 .4 0 .2-.1.2-.2 0-.1.1-.2c0-.1 0-.3 0-.7l.1-2.3z"/><path d="m13.1 63c .2 1.1.3 1.9.3 2.4 0 .6-.2 1-.7 1.3-.3.1-.9.3-1.7.4s-1.4.2-1.8.1c-.5-.1-.9-.4-1-1-.1-.4-.3-1.2-.4-2.3-.2-1.1-.3-1.9-.3-2.4 0-.6.2-1 .7-1.3.3-.1.9-.3 1.8-.4.8-.1 1.4-.2 1.7-.1.5.1.9.4 1 1 0 .3.2 1.1.4 2.3zm-1.4.2c-.1-.9-.2-1.4-.3-1.5-.1-.2-.2-.3-.4-.3s-.5 0-1.1.1c-.3 0-.6.1-.7.2-.3.1-.4.3-.4.7 0 .2.1.7.2 1.4.1.6.2 1.1.2 1.3.1.2.1.4.2.5s.2.1.3.1.4 0 .7-.1c.4-.1.7-.1.8-.2.2-.1.3-.1.4-.2s.2-.3.1-.5c.2-.3.1-.8 0-1.5z"/><path d="m12.4 73.6.5 1.5c-.2.1-.4.2-.5.2-.4.1-.7.2-1 .1-.3 0-.5-.2-.8-.6-.2-.3-.5-1-.8-1.9-.3-1-.5-1.7-.6-2.1s-.1-.8-.1-1 .1-.4.2-.5.3-.3.6-.4c.2-.1.6-.3 1.2-.5s1-.3 1.3-.4.5-.1.6-.1c.4 0 .7.2.9.6s.6 1.2 1 2.5c.2.7.4 1.1.4 1.4.1.3.1.6.1.8 0 .3-.1.5-.3.6-.2.2-.5.3-.9.5 0 0-.1 0-.3.1l-.5-1.5c.2-.1.3-.1.3-.1.1 0 .1-.1.1-.1 0-.1 0-.2 0-.5s-.2-.6-.3-1.1c-.2-.5-.3-.8-.4-1s-.2-.3-.3-.3c-.1-.1-.3-.1-.4-.1s-.2.2-.6.3-.6.2-.8.3c-.1.1-.2.2-.3.3v.5s.1.5.3 1c .2.6.3 1 .4 1.2s.2.3.3.4c.1 0 .4 0 .7-.1z"/><path d="m13.2 76.6.8 1.4c-.2.1-.4.3-.4.4s0 .2.1.3.2.5.5 1c .3.6.5 1 .6 1.1s.1.2.2.3.2.1.4 0c .1-.1.2-.2.2-.3s-.1-.3-.2-.5-.3-.6-.6-1.1c-.3-.6-.5-1-.6-1.2-.2-.3-.3-.6-.3-.8s0-.4 0-.6c.1-.3.4-.6.9-.8.5-.3 1-.4 1.3-.3s.5.2.7.5.6.9 1.1 1.9c.4.7.6 1.2.7 1.5.2.5.2.8.1 1.1s-.3.5-.8.7c0 0-.1.1-.2.1l-.8-1.4c.1-.1.2-.1.2-.2 0 0 .1-.1.1-.2s0-.2-.1-.4-.3-.5-.5-1c-.3-.6-.6-1-.7-1.1s-.3-.1-.4 0c-.2.1-.2.2-.2.4 0 .1.3.6.7 1.6.4.8.6 1.3.7 1.6s.2.5.2.7-.1.4-.2.6-.4.3-.7.5c-.4.2-.8.4-1.1.4-.2 0-.4-.1-.6-.2s-.3-.3-.5-.6-.5-.9-1-1.7c-.4-.7-.7-1.2-.8-1.6s-.2-.6-.2-.9c0-.2.1-.4.2-.6s.4-.3.7-.5z"/><path d="m17.7 87.2 4-3.6 2.4 2.7c.5.5.8.9.9 1.1.3.4.4.8.3 1.1s-.4.7-.9 1.2c-.5.4-.9.7-1.2.8-.2 0-.4 0-.6-.1s-.4-.2-.7-.4c-.2-.2-.5-.5-.9-.9l-1.4-1.5-1 .9zm3.1-.5 1.4 1.5c.3.3.4.4.5.5s.1.1.2.1.2 0 .3 0 .2-.1.3-.2.2-.2.3-.3 0-.2 0-.3-.2-.3-.5-.7l-1.5-1.6z"/><path d="m27.7 96.7.2-1-2.8-2.2-.9.4-1.5-1.1 5.5-2.4 2 1.6-1.1 5.9zm.5-2.3.4-2.2-.3-.2-2.1 1z"/><path d="m30.6 98.6 2.5-4.7 3.5 1.8c.8.4 1.3.7 1.5.8s.3.2.4.4.2.4.1.6c0 .2-.2.5-.4.9-.2.3-.3.6-.5.7-.1.1-.3.2-.4.3-.2 0-.4 0-.7-.1.3.2.5.4.5.6v.4s-.2.4-.4.8l-.2.4-1.4-.7.1-.3c.1-.3.2-.5.3-.6 0-.1 0-.2 0-.3s-.1-.2-.2-.2-.3-.2-.6-.3l-2-1.1-.6 1.2zm2.7-1.6 2 1.1c.4.2.6.3.6.3h.2c.1 0 .2 0 .2-.1.1-.1.1-.2.2-.3.1-.2.1-.3.1-.4s0-.2-.1-.2c0 0-.1-.1-.2-.1s-.3-.2-.6-.3l-2-1.1z"/><path d="m43.9 104.3-.2-1-3.4-1.1-.7.7-1.8-.6 4.3-4.2 2.4.8 1.1 5.9zm-.3-2.3-.4-2.2-.3-.1-1.6 1.6z"/><path d="m47.4 105.1.6-5.3 3.8.4c.7.1 1.1.1 1.3.2.2 0 .4.1.6.2.5.2.8.5.9 1 0 .2.1.4.1.6s0 .5-.1 1-.1.8-.2 1.1c-.1.2-.1.5-.2.6-.2.4-.6.7-1.1.8-.2 0-.5 0-.7 0-.3 0-.7-.1-1.3-.1zm1.7-1.1 2.2.3c.4 0 .7.1.9.1s.3 0 .4-.1.2-.2.2-.3c.1-.2.1-.4.1-.7s.1-.6 0-.7c0-.2-.1-.3-.1-.4-.1-.1-.2-.2-.4-.2s-.5-.1-1-.2l-2.2-.3z"/><path d="m56.2 100.5h1.7l.1 5.3h-1.7z"/><path d="m59.6 104.1 1.6-.2c0 .3.1.4.2.5.1 0 .2.1.3 0 .1 0 .5-.1 1.2-.1.7-.1 1.1-.2 1.2-.2s.2-.1.3-.1c.1-.1.2-.2.1-.4 0-.2-.1-.3-.2-.3s-.3 0-.5 0-.6.1-1.3.1c-.7.1-1.1.1-1.3.1-.4 0-.7 0-.9 0s-.4-.1-.5-.2c-.2-.2-.4-.6-.5-1.1-.1-.6 0-1 .2-1.3.1-.2.4-.4.7-.5.4-.1 1.1-.2 2.2-.4.8-.1 1.3-.2 1.6-.2.5 0 .8.1 1.1.3.2.2.3.5.4 1v .2l-1.6.2c0-.1-.1-.2-.1-.3s-.1-.1-.1-.1c-.1 0-.2 0-.4 0s-.5.1-1.1.1c-.7.1-1.1.2-1.2.2-.1.1-.2.2-.2.4s.1.3.3.3c.1 0 .7 0 1.7-.1.9-.1 1.4-.1 1.7-.1s.5 0 .7.1.4.2.5.4.2.5.2.9c.1.5 0 .9-.1 1.1s-.2.3-.4.5-.4.2-.7.3-1 .2-1.9.3c-.8.1-1.4.2-1.8.2s-.7 0-.9-.1-.4-.2-.5-.4-.2-.5-.2-.8z"/><path d="m69.9 98.3c1.1-.4 1.9-.6 2.3-.6.6-.1 1.1.1 1.4.5.2.3.4.8.7 1.6s.4 1.4.4 1.7c0 .5-.3.9-.8 1.2-.4.2-1.1.5-2.2.8-1.1.4-1.9.6-2.3.6-.6.1-1.1-.1-1.4-.5-.2-.3-.4-.9-.7-1.7-.2-.8-.4-1.3-.4-1.7 0-.5.3-.9.8-1.2.4-.1 1.1-.3 2.2-.7zm.5 1.3c-.8.3-1.3.4-1.5.5s-.3.3-.3.5.1.5.2 1.1c.1.3.2.5.3.7s.4.3.7.3c.2 0 .7-.2 1.4-.4.6-.2 1-.3 1.2-.4s.3-.2.4-.3.1-.2.1-.4-.1-.4-.2-.7c-.1-.4-.2-.6-.3-.8s-.2-.3-.3-.3c-.1-.1-.3-.1-.5-.1-.1 0-.5.1-1.2.3z"/></g></svg>