<svg enable-background="new 0 0 113.4 113.4" viewBox="0 0 113.4 113.4" xmlns="http://www.w3.org/2000/svg"><circle cx="56.7" cy="56.7" r="56.7"/><circle cx="56.7" cy="56.7" fill="#fff" r="43.4"/><path d="m73.5 39.1-3.6 3.6h-9.2v-10.5l2.8-3.6-6.8-7.5-6.9 7.5 2.9 3.6v10.5h-9.3l-3.5-3.6-7.6 7.6 7.6 7.5 3.5-3.6h9.3v33l-2.9 3.6 6.9 7.5 6.8-7.5-2.8-3.6v-33h9.2l3.6 3.6 7.5-7.5z" fill="#c31a18"/><g fill="#fff"><path d="m13.3 75.1.9 1.7-2.8 3.9.2.3 4.8-.2.9 1.7-6.5.2-1.3-2.4z"/><path d="m16.3 83.7.9 1.3-3.3 2.3-.9-1.3zm1.3-.9.9 1.3-.9.7-.9-1.3z"/><path d="m15.5 87.6 1 1.2c-.1.1-.2.3-.1.5s.3.5.6.8c.3.4.6.6.7.7.2.1.3.1.4 0s .1-.2.1-.4c0-.1-.3-.4-.8-1s-.8-.9-.8-1.1c-.3-.4-.3-.8-.3-1 .1-.2.2-.4.5-.6.5-.4.9-.5 1.3-.2.3.2.8.7 1.5 1.5.4.5.7.9.9 1.2s.2.5.2.8c0 .1 0 .3-.1.4s-.2.3-.4.4l-1-1.2c.1-.1.1-.2.1-.2 0-.1-.2-.4-.5-.8s-.5-.6-.7-.7-.3-.1-.4 0-.1.3 0 .5.5.7 1.3 1.6c.4.4.6.8.6 1.1s-.1.6-.5.9c-.2.2-.5.3-.7.4-.2 0-.4 0-.6-.1-.4-.2-.9-.7-1.7-1.6-.5-.6-.8-1-1-1.3s-.2-.6-.2-.8c.1-.4.3-.7.6-1z"/><path d="m25.2 96.9 1.2 1c-.2.3-.4.4-.6.5s-.3.2-.5.2c-.3 0-.6 0-.9-.2s-.8-.5-1.4-1c-.5-.4-.8-.7-1-1-.2-.2-.3-.5-.4-.7s0-.5.1-.7.3-.6.7-1c .3-.4.6-.6.8-.8.2-.1.4-.2.7-.2s.5.1.8.2c.3.2.7.5 1.2.9s.9.8 1.1 1c .2.3.4.5.4.8v.6c-.1.2-.2.4-.5.7l-1.2-1c .1-.2.2-.4.1-.6s-.3-.4-.6-.7-.6-.5-.8-.5c-.1 0-.2 0-.4.1-.1.1-.3.2-.4.4-.2.2-.3.4-.3.5v.4c.1.2.3.4.6.7s.6.4.8.5.3.1.5-.1z"/><path d="m28.7 96.5 1.2.8-.3.5h.1c.3-.1.5-.2.8-.2s.6.2.9.4c.5.3.8.7.9 1s-.1.8-.4 1.3c0 0-.1.1-.2.2l-1.2-.8c.1-.2.2-.4.2-.5 0-.2-.1-.4-.5-.6-.3-.2-.6-.2-.8-.2-.1 0-.2.1-.3.2s-.2.3-.4.6l-.9 1.6-1.3-.8z"/><path d="m36.6 105.5-1.3-.6.3-.5h-.1c-.2.2-.5.3-.8.3s-.7-.1-1.1-.4c-.4-.2-.7-.4-1-.6-.2-.2-.4-.4-.5-.7s-.1-.5-.1-.7.2-.6.4-1.1l.8-1.7 1.4.7-.8 1.7c-.1.3-.2.5-.2.6v.4c0 .1.1.2.2.3s.3.2.6.3c.4.2.8.3 1 .2.1 0 .3-.1.4-.2s.2-.4.4-.7l.7-1.5 1.4.7z"/><path d="m42.4 105.7 1.5.5c-.1.3-.2.6-.3.7-.1.2-.2.3-.4.4s-.5.2-.9.1c-.3 0-.9-.2-1.6-.4-.6-.2-1-.4-1.3-.5s-.5-.3-.6-.5-.2-.4-.2-.7.1-.7.3-1.2c.1-.5.3-.8.4-1s .3-.4.5-.5.5-.1.8-.1.8.2 1.5.4c.6.2 1.1.4 1.4.6s.5.3.7.6c.1.2.2.4.2.6s0 .5-.1.9l-1.5-.5c0-.2 0-.4-.1-.6-.1-.1-.4-.3-.9-.4-.4-.1-.7-.2-.9-.2-.1 0-.2.1-.3.2s-.2.3-.3.6c-.1.2-.1.4-.1.6 0 .1.1.2.2.3.2.1.4.3.9.4.4.1.7.2.9.2-.1-.2.1-.3.2-.5z"/><path d="m45.5 104 1.5.3-.9 4-1.5-.3zm.3-1.6 1.5.3-.2 1.1-1.5-.3z"/><path d="m47.6 107.3 1.5.2c0 .2.1.3.2.4.2.1.5.2 1 .2.5.1.8.1 1 0 .2 0 .3-.1.3-.3 0-.1-.1-.2-.2-.3-.1 0-.5-.1-1.3-.2-.7-.1-1.2-.2-1.3-.2-.5-.1-.8-.3-.9-.6-.1-.2-.1-.5-.1-.8.1-.6.3-1 .8-1.1.3-.1 1.1-.1 2.2.1.7.1 1.2.2 1.5.3s.5.2.7.4c.1.1.2.2.2.3s0 .3 0 .6l-1.5-.2c0-.1 0-.2-.1-.2-.1-.1-.4-.2-.9-.2-.5-.1-.8-.1-1 0-.2 0-.3.1-.3.2 0 .2.1.3.3.3s.9.1 2.1.3c.6.1 1 .2 1.2.4s.3.6.3 1c0 .3-.1.5-.2.7s-.3.3-.5.4c-.4.1-1.1.1-2.3 0-.7-.1-1.3-.2-1.6-.3s-.6-.2-.7-.4c-.4-.2-.5-.5-.4-1z"/><path d="m54.5 107.8h1.8v1.5h-1.8z"/><path d="m60.8 109.3-.9-5.7 4.1-.6c.7-.1 1.2-.2 1.4-.2s.5 0 .7 0c .6 0 1 .3 1.3.8.1.2.2.4.2.6.1.2.1.6.2 1 .1.5.1.9.1 1.2s0 .5 0 .7c-.1.5-.4.9-.9 1.1-.2.1-.5.2-.8.2-.3.1-.7.1-1.4.2zm1.5-1.7 2.4-.4c.4-.1.8-.1 1-.2s.3-.1.4-.2.1-.2.1-.4 0-.4-.1-.8-.1-.6-.2-.8-.1-.3-.2-.4-.3-.1-.4-.1c-.2 0-.5 0-1.1.1l-2.4.4z"/><path d="m73.2 105.4 1.4-.5c.1.4.1.8-.1 1-.1.2-.4.4-.7.6s-.8.4-1.5.6c-.6.2-1 .3-1.3.3s-.6 0-.8-.1-.4-.2-.6-.4c-.1-.2-.3-.6-.4-1.1-.1-.4-.2-.7-.2-.8 0-.2 0-.4 0-.6.1-.4.3-.6.7-.9.3-.2.9-.4 1.6-.6.6-.2 1.1-.3 1.4-.4.5-.1.9 0 1.1.2.3.2.5.6.7 1.3 0 .1.1.2.1.4l-3.8 1.2c.1.2.1.3.2.4l.2.2c.2.1.5 0 1-.1.3-.1.6-.2.7-.3.2-.1.2-.2.3-.2 0 0 0-.1 0-.2zm-.4-1.2c-.1-.2-.1-.3-.1-.3l-.1-.1c-.2-.1-.5 0-1.1.1-.5.2-.8.3-.9.4s-.2.3-.1.6z"/><path d="m74.1 100.3 1.4-.6.4 1.1-1.4.6zm.6 1.5 1.4-.6 1.6 3.8-1.4.6z"/><path d="m82.9 98.6 3.4-2.1c.1.1.1.1.1.1.4.7.7 1.2.9 1.6.3.6.2 1.1-.3 1.6-.2.2-.5.4-.8.6s-.8.5-1.5 1c-.8.5-1.4.9-1.8 1.1s-.7.3-1 .3c-.2 0-.4-.1-.5-.2-.2-.1-.3-.3-.5-.5s-.5-.6-.9-1.3c-.3-.4-.5-.8-.6-1s-.2-.5-.2-.7c-.1-.5.1-.9.5-1.2.4-.4 1.2-.9 2.2-1.6.6-.4 1.1-.7 1.5-.9s.7-.3 1-.4c.4-.1.8 0 1.2.3.2.2.3.4.6.8l-1.5.9c-.1-.1-.2-.2-.2-.3 0 0-.1-.1-.2-.1s-.3.1-.6.2-.6.4-1.1.7-.9.6-1.1.7c-.2.2-.3.3-.4.4v.4c0 .1.2.4.4.8.3.4.5.7.6.8s.3.2.4.2.3 0 .4-.1.6-.3 1.2-.7c.7-.4 1.1-.7 1.2-.8l.3-.3s.1-.2.1-.2-.1-.2-.2-.3c0 0 0-.1-.1-.1l-1.9 1.2z"/><path d="m86.6 95.1 1.1-.9.4.5h.1c-.1-.3 0-.6.1-.8s.3-.5.7-.8c.5-.4.9-.6 1.2-.6s.7.3 1.1.7c0 0 .1.1.2.2l-1.1.9c-.2-.2-.3-.3-.4-.3-.2-.1-.4 0-.7.3-.3.2-.4.5-.4.7 0 .1 0 .2.1.4.1.1.2.3.4.5l1.1 1.3-1.2 1z"/><path d="m92.7 91.2-1 1.1c-.2-.2-.4-.4-.4-.6-.1-.3 0-.6.2-1s .6-.9 1.2-1.5l1-1s .4-.2.7-.2c.2 0 .4 0 .5.1.2.1.4.3.7.5l1.8 1.7-1 1.1-.4-.4v.1c.1.2.1.5 0 .7 0 .1-.1.3-.3.5-.1.2-.4.5-.7.8s-.5.5-.7.6-.4.2-.6.2c-.3 0-.6-.1-.9-.4s-.5-.6-.5-1c0-.2.1-.5.3-.8s.5-.7 1.1-1.3c.2-.3.4-.4.6-.5.1-.1.3-.1.5-.1l-.2-.1c-.2-.2-.4-.3-.6-.3-.1 0-.4.2-.7.6-.4.4-.6.7-.6.8-.1.1-.1.3 0 .4zm1.5 0c-.3.4-.5.6-.6.8 0 .2 0 .3.1.4s.3.1.4.1c.1-.1.4-.3.6-.6.4-.4.6-.7.7-.9s.1-.3-.1-.5c-.1-.1-.3-.1-.4 0-.1 0-.3.2-.7.7z"/><path d="m94.5 85.8.9-1.2.8.5 1.4-2 .9.6-1.4 2 1 .7c.3.2.4.3.5.3.2 0 .3-.1.5-.3s.2-.4.2-.6c0-.1-.1-.1-.1-.1s-.1-.1-.3-.2l.8-1.1c.3.2.5.4.6.5s.2.3.3.5.1.5 0 .7c-.1.3-.3.6-.6 1s-.5.7-.7.8c-.2.2-.4.3-.6.3s-.3 0-.4 0-.3-.1-.5-.2c-.1 0-.2-.2-.5-.4l-1-.7-.5.7-.9-.6.5-.7z"/><path d="m96.6 81.4.8-1.3 1 .6-.8 1.3zm1.4.9.8-1.3 3.5 2.1-.8 1.3z"/><path d="m101.2 79.2-.7 1.4c-.3-.2-.5-.3-.6-.5-.2-.3-.2-.6-.1-1s .3-1 .7-1.8c.3-.6.5-1 .7-1.2s.3-.3.6-.4c.2-.1.4-.1.6 0 .2 0 .5.1.8.3l2.2 1.1-.6 1.3-.5-.2v.1c.2.2.2.4.2.7 0 .1 0 .3-.1.5s-.2.6-.4 1-.3.6-.5.8c-.1.2-.3.3-.5.4-.3.1-.6.1-1-.1s-.7-.5-.8-.8c-.1-.2-.1-.5 0-.8s.3-.8.7-1.5c.2-.3.3-.5.4-.7.1-.1.2-.2.4-.3v-.1l-.2-.1c-.3-.1-.5-.2-.6-.1s-.3.3-.5.7c-.2.5-.4.8-.4.9s.1.3.2.4zm1.4-.5c-.2.5-.3.8-.3.9 0 .2.1.3.2.3.1.1.3.1.4-.1.1-.1.3-.3.4-.7.2-.5.4-.8.4-1s0-.3-.2-.4c-.1-.1-.3 0-.4.1s-.2.4-.5.9z"/><path d="m22.9 23.7-3.7-4.1 2.8-2.5c.6-.5.9-.8 1.1-.9.5-.3.8-.4 1.2-.3.3.1.7.4 1.2.9s.7.9.8 1.2c0 .2 0 .4-.1.6s-.2.4-.5.7c-.2.2-.5.5-1 .9l-1.6 1.4.9 1zm-.6-3.2 1.6-1.4c.3-.3.5-.4.5-.5.1-.1.1-.1.1-.2s0-.2 0-.3-.1-.2-.3-.4c-.1-.1-.2-.2-.3-.3-.1 0-.2 0-.3 0s-.3.2-.7.5l-1.6 1.4z"/><path d="m33.1 15.8-.9-.5-3.1 2 .1 1-1.6 1-.5-6.2 2.2-1.4 5.4 3.1zm-2-1.3-2-1.2-.3.2.2 2.3z"/><path d="m33.1 9.5 2.7-1.1 4.2 2.7.2-.1-1.6-3.8 1.6-.7 2.1 5.1-2.7 1.2-4.3-2.7-.2.1 1.6 3.8-1.6.7z"/><path d="m45.6 5.1c1.2-.3 2-.4 2.4-.4.6-.1 1.1.2 1.4.6.2.3.4.9.5 1.8.2.8.3 1.5.2 1.8 0 .5-.4.9-1 1.1-.4.2-1.2.4-2.4.6-1.2.3-2 .4-2.4.4-.6.1-1.1-.2-1.4-.6-.2-.3-.4-.9-.5-1.8-.2-.8-.3-1.4-.2-1.8 0-.5.4-.9 1-1.1.4-.1 1.2-.3 2.4-.6zm.3 1.4c-.9.2-1.4.3-1.6.4s-.3.2-.3.4 0 .6.1 1.1c.1.3.1.6.2.7.1.3.4.4.7.3.3 0 .7-.1 1.4-.3.7-.1 1.1-.3 1.3-.3.2-.1.4-.2.5-.3s.1-.2.1-.4c0-.1 0-.4-.1-.7-.1-.4-.2-.7-.2-.8-.1-.2-.1-.3-.2-.4s-.3-.1-.5-.1c-.2.2-.6.3-1.4.4z"/><path d="m56.5 7.4 1.7-.1v.5c0 .4 0 .8-.1 1-.1.3-.4.5-.8.6s-1.1.2-2.1.2c-1.1 0-1.8.1-2.2 0-.4 0-.8-.1-1-.2s-.4-.2-.5-.4-.2-.4-.2-.7c0-.2-.1-.7-.1-1.4 0-.6 0-1.1 0-1.4s0-.5.1-.7c.1-.4.4-.6.9-.7s1.4-.2 2.8-.3h1.6c.3 0 .6.1.8.1.3.1.4.3.6.5.1.2.2.6.2 1v .3l-1.7.1c0-.2 0-.3 0-.4s0-.1-.1-.2-.2-.1-.5-.1-.7 0-1.2 0-.9 0-1.1.1c-.2 0-.3.1-.4.2-.3.3-.4.4-.4.6s0 .5 0 .9 0 .7.1.9c0 .2.1.3.2.4s.3.1.5.1.6 0 1.1 0c .6 0 1.1-.1 1.3-.1s.4-.1.4-.2.1-.3.1-.6z"/><path d="m59.7 4 6.1.7-.1 1.3-4.4-.5-.1.8 4.2.5-.1 1.2-4.2-.5-.3.9 4.5.5-.2 1.3-6.1-.7z"/><path d="m71.6 11.9-.2-1-3.5-1-.7.8-1.8-.5 4.3-4.5 2.5.7 1.3 6.1zm-.4-2.3-.5-2.3-.3-.1-1.6 1.7z"/><path d="m76.3 7.7 2.7 1.3.8 5 .2.1 1.8-3.7 1.5.8-2.4 5-2.6-1.3-.8-5-.2-.1-1.8 3.7-1.5-.8z"/><path d="m84.6 12 1.5 1-3 4.6-1.5-1z"/><path d="m88.6 21.9.2-1-2.8-2.3-1 .4-1.4-1.2 5.8-2.4 2 1.7-1.3 6.1zm.6-2.3.5-2.3-.3-.2-2.2.9z"/></g></svg>