<svg enable-background="new 0 0 190.9 190.8" viewBox="0 0 190.9 190.8" xmlns="http://www.w3.org/2000/svg"><path d="m95.4 188c-50.9.4-93.1-42-92.6-93.6.5-50.3 42.3-92.3 94-91.6 50.2.7 92.1 42.5 91.3 94.2-.8 50-42.1 91.5-92.7 91z" fill="#3b3b3b"/><path d="m95.5 2.8h1.2c50.3.7 92.2 42.5 91.4 94.2-.8 49.7-41.7 91-91.9 91-.3 0-.6 0-.8 0-.3 0-.5 0-.8 0-50.6 0-92.4-42.3-91.8-93.6.5-49.9 41.7-91.6 92.7-91.6m0-2.8c-52.1 0-94.9 42.3-95.5 94.3-.3 25.7 9.6 49.9 27.8 68.3 18 18.2 41.7 28.2 66.8 28.2h.8.8c51.4 0 93.9-42.1 94.7-93.8.4-25.5-9.2-49.6-27-68-17.9-18.3-41.7-28.7-67.1-29-.4 0-.8 0-1.3 0z" fill="#b6d05c"/><path d="m95.3 95.2c.1 0 .3.1.4.1-.1.1-.2.2-.3.3-.1-.1-.3-.1-.4-.2.2 0 .3-.1.3-.2z"/><g fill="#fcfcf5"><path d="m23.6 129.4-3.8 3.9 5.5-.2.9 2-7.6.3-.6-1.3c-.3-.7-.3-1.3 0-1.6l2.7-2.9-4.7.3-.7-1.4c-.3-.7-.3-1.2.1-1.5l4.6-5.1.9 2-3.7 4.1 5.4-.4z"/><path d="m27.8 137.2 3.4 5-1.4.9-3-4.4-3 2 3 4.4-1.4.9-3.4-5c-.5-.8-.4-1.5.4-2l3.4-2.3c.8-.4 1.5-.3 2 .5zm.5 5.5-1 1.5-2.2-3.2 1-1.5z"/><path d="m36.7 153.8c.5.5.9.5 1.2.2l.2-.2c.3-.3.3-.7-.2-1.2l-2.4-2.4-3.8 3.7-1.5-1.6 5-4.9 4.6 4.7c1 1 1.1 2 .1 2.9l-1 1c-.3.3-.7.4-1 .3.1.3 0 .7-.4 1l-1.2 1.2-1.5-1.6.9-.8c.3-.3.3-.7-.2-1.2l-1.7-1.7.7-1.7z"/><path d="m43.6 155.7 4.7 3.8-1.1 1.3-4.2-3.3-2.3 2.8 4.2 3.3-1.1 1.3-4.7-3.8c-.8-.6-.8-1.3-.2-2l2.6-3.2c.6-.8 1.3-.8 2.1-.2zm2.1 5.1-.5 1.8-3-2.4.5-1.8z"/><path d="m51.3 161.6 3.5 2.2c1.2.8 1.6 1.6 1 2.6l-4.5-2.8c-.5-.3-.9-.4-1.1-.1-.1.2.1.5.6.8l2.6 1.9c1.1.9 1.4 1.8.8 2.8l-.2.3c-.7 1.1-1.6 1.3-2.9.5l-3.5-2.2c-1.2-.8-1.6-1.6-1-2.6l4.7 2.9c.4.3.7.2.9 0 .1-.2 0-.4-.4-.7l-2.8-2c-1.2-.9-1.4-1.8-.8-2.8l.2-.3c.8-1.1 1.7-1.3 2.9-.5z"/><path d="m63.6 174.1c-.5 1-1.4 1.2-2.7.6l-3.8-1.7c-1.3-.6-1.7-1.5-1.2-2.7l1.3-2.9c.5-1.2 1.5-1.5 2.8-.9l3.8 1.7c1.3.6 1.7 1.4 1.3 2.4l-4.8-2.2c-.6-.3-1-.2-1.2.3l-.9 2c-.2.4 0 .8.6 1.1z"/><path d="m73.2 171.7 2.1.6-1.5 4.9c-.4 1.2-1.3 1.6-2.7 1.2l-3.9-1.2c-1.4-.4-1.9-1.3-1.5-2.5l1.5-4.9 2.1.6-1.4 4.4c-.1.5.1.8.7 1l2.1.6c.6.2 1 .1 1.1-.4z"/><path d="m78.2 173 6 1.1-.3 1.7-5.2-1-.7 3.6 5.2 1-.3 1.7-6-1.1c-1-.2-1.3-.7-1.2-1.7l.8-4c .2-1.1.7-1.5 1.7-1.3zm4.3 3.5.4 1.8-3.8-.7-.4-1.8z"/><path d="m94.9 177.6 2.3-2.8h2.4l-3.6 4.2v2.9h-2.2v-2.9l-3.6-4.2h2.4z"/><path d="m102.9 174.6 4.8-.6c1.4-.2 2.2.4 2.4 1.6l.4 3.1c.2 1.3-.5 2-1.9 2.2l-4.8.6c-1.4.2-2.2-.4-2.4-1.6l-.4-3.1c-.2-1.3.5-2 1.9-2.2zm.3 2.4.3 2.2c.1.5.4.7 1.1.6l2.9-.4c.6-.1.9-.4.9-.8l-.3-2.2c-.1-.5-.4-.7-1.1-.6l-2.9.4c-.6 0-.9.3-.9.8z"/><path d="m117.5 171.7 2.1-.6 1.3 4.9c.3 1.2-.2 2.1-1.6 2.4l-4 1.1c-1.4.4-2.3-.1-2.6-1.3l-1.3-4.9 2.1-.6 1.2 4.4c.1.5.5.6 1.1.4l2.1-.6c.6-.2.9-.5.7-1z"/><path d="m127.6 171.8c.6-.2.8-.6.6-1l-.1-.2c-.2-.4-.6-.5-1.2-.3l-3.1 1.3 2 4.9-2 .8-2.7-6.5 6-2.5c1.3-.6 2.3-.2 2.8 1l .6 1.3c.2.4.2.8-.1 1.1.4 0 .6.3.8.7l.6 1.6-2 .8-.5-1.1c-.2-.4-.6-.5-1.2-.3l-2.2.9-1.3-1.3z"/><path d="m136.3 163.6 5.1-3.3.9 1.4-4.5 2.9 2.9 4.5-1.8 1.2-3-4.7c-.6-.8-.4-1.5.4-2zm5.5-.4 1.5 1-3.3 2.1-1.5-1z"/><path d="m147.5 155.4 1.7-1.4 3.3 3.9c.8 1 .7 2-.4 2.9l-3.2 2.6c-1.1.9-2.1.9-2.9-.1l-3.3-3.9 1.7-1.4 3 3.5c.3.4.7.3 1.2-.1l1.7-1.4c.5-.4.6-.8.3-1.2z"/><path d="m150.3 153 5.5-5.8 1.2 1.2-5.5 5.8zm3.5-.8 1.8-1.3 3.4 3.1-1.5 1.6z"/><path d="m160.6 140.9 1.3-1.8 4.1 3c1 .8 1.1 1.7.3 2.9l-2.4 3.3c-.9 1.2-1.8 1.4-2.9.6l-4.1-3 1.3-1.8 3.7 2.7c.4.3.8.2 1.2-.4l1.3-1.8c.4-.5.4-.9 0-1.2z"/><path d="m168.4 134.6c.3-.6.3-1-.2-1.2l-.2-.1c-.4-.2-.8-.1-1.1.5l-1.6 3 4.7 2.6-1 1.9-6.2-3.4 3.1-5.7c.7-1.3 1.6-1.6 2.7-1l1.3.7c.4.2.6.5.6.9.3-.2.7-.2 1.1 0l1.5.8-1 1.9-1.1-.6c-.4-.2-.8-.1-1.1.5l-1.2 2.1-1.8-.2z"/><path d="m168.2 127.5 2.2-5.6 1.6.6-2 5 3.4 1.3 2-5 1.6.6-2.2 5.6c-.4.9-1 1.2-1.9.8l-3.8-1.5c-1-.3-1.3-.9-.9-1.8zm4.3-3.5h1.8l-1.4 3.6h-1.8z"/><path d="m41.9 35.3c1.1 1.3.9 2.6-.5 4l-4.4 4.3c-1.5 1.5-3 1.6-4.3.2l-3.2-3.3c-1.3-1.4-1.2-2.8.3-4.3l4.4-4.2c1.5-1.5 2.9-1.6 4-.5l-5.6 5.5c-.7.7-.8 1.3-.3 1.8l2.2 2.3c.5.5 1.1.4 1.8-.2z"/><path d="m48 21.3 2.7-1.8 4.1 6.3c1 1.6.7 3-1.1 4.2l-5.1 3.3c-1.8 1.2-3.2 1-4.3-.6l-4.1-6.3 2.7-1.8 3.7 5.7c.4.6 1 .6 1.8.1l2.7-1.8c.8-.5 1-1.1.6-1.7z"/><path d="m55 17.1 8.3-3.4c2-.8 3.3-.3 4.1 1.4l.4 1c .1.2.1.5-.1.8.8.2 1.4.7 1.8 1.6l.4 1c .6 1.5 0 2.7-1.8 3.4l-9.2 3.7zm8.4.8c.9-.4 1.2-.8 1.1-1.2-.2-.4-.7-.5-1.6-.1l-4 1.6 2 5 4.6-1.9c.9-.4 1.2-.8 1.1-1.2s-.7-.5-1.6-.1l-3.3 1.3-1.9-1.9z"/><path d="m73.6 10.4 8.8-1.8.5 2.5-7.7 1.6 1.1 5.3 7.7-1.6.5 2.5-8.8 1.8c-1.4.3-2.2-.3-2.5-1.7l-1.2-6c-.4-1.5.2-2.3 1.6-2.6zm7.8 2.4 1.6 2.2-5.6 1.1-1.6-2.1z"/><path d="m105.5 8.1-.5 7.5c-.1 1.9-1.2 2.8-3.4 2.7l-3.6-.2c-2.1-.1-3.2-1-3.1-2.7l5.4.3c1 .1 1.5-.3 1.5-1l .4-6.8z"/><path d="m116.5 16.4-.8-3.1-5.5 6-3.1-.8 7.7-8.8 3.5.8 2.8 11.4-3.1-.8-.5-2-3.2-.8-.4-2.7zm-3.1-10.4 3.1.8-.6 2.4-3.1-.8zm4.5 1.1 3.1.8-.6 2.4-3.1-.8z"/><path d="m135.5 25.5c-.8 1.5-2.1 1.8-4 .9l-5.5-2.6c-1.9-.9-2.5-2.2-1.7-4l2-4.2c.8-1.7 2.2-2.1 4.1-1.2l5.5 2.6c1.9.9 2.6 2.1 1.9 3.6l-7.1-3.3c-.9-.4-1.4-.3-1.8.4l-1.4 2.9c-.3.6 0 1.2.8 1.6l2.9 1.4c.9.4 1.4.3 1.8-.4l.2-.3-2.3-1.1.1-2.7 6.2 2.9z"/><path d="m144.7 21.9 7.3 5.2-1.4 2-6.4-4.5-3.1 4.4 6.4 4.5-1.4 2-7.3-5.2c-1.2-.8-1.3-1.8-.5-3l3.5-5c .7-1.1 1.7-1.2 2.9-.4zm3.6 7.3-.6 2.7-4.7-3.3.6-2.7z"/><path d="m158 39.4c.7.7 1.3.8 1.8.3l.3-.2c.5-.5.4-1.1-.2-1.8l-3.5-3.6-5.6 5.5-2.2-2.3 7.4-7.2 6.7 6.9c1.5 1.5 1.6 3 .2 4.3l-1.5 1.5c-.5.5-1 .7-1.5.5.2.5 0 1-.5 1.5l-1.8 1.7-2.2-2.3 1.3-1.2c.5-.5.4-1.1-.2-1.8l-2.5-2.6 1-2.5z"/></g><ellipse cx="95.5" cy="95.4" fill="#b6d05c" rx="74.3" ry="74.2"/><g fill="#3b3b3b"><path d="m76.1 76h38.7v38.7h-38.7z"/><path d="m132.1 104.3v-5.1-7.6-5.1-8.1-5.1-14.4h-14.3-5.1-8.1-5.1-7.6-5.1-8.1-5.1-14.7v14.3 5.1 8.1 5.1 7.6 5.1 8.1 5.1 14.6h14.3 5.1 8.1 5.1 7.6 5.1 8.1 5.1 14.6v-14.3-5.1zm-7.4 19.7h-58.4v-58.3h58.3v58.3z"/><path d="m73.3 44.3h10.3v17.5h-10.3z"/><path d="m107.4 44.3h10.3v17.5h-10.3z"/><path d="m90.3 44.3h10.3v17.5h-10.3z"/><path d="m73.3 129h10.3v17.5h-10.3z"/><path d="m107.4 129h10.3v17.5h-10.3z"/><path d="m90.3 129h10.3v17.5h-10.3z"/><path d="m132.7 69.6h10.3v17.5h-10.3z" transform="matrix(0 1 -1 0 216.1824 -59.4493)"/><path d="m132.7 103.7h10.3v17.5h-10.3z" transform="matrix(0 1 -1 0 250.2652 -25.3665)"/><path d="m132.7 86.7h10.3v17.5h-10.3z" transform="matrix(0 1 -1 0 233.2238 -42.4079)"/><path d="m48 69.6h10.3v17.5h-10.3z" transform="matrix(0 1 -1 0 131.4625 25.2707)"/><path d="m48 103.7h10.3v17.5h-10.3z" transform="matrix(0 1 -1 0 165.5452 59.3535)"/><path d="m48 86.7h10.3v17.5h-10.3z" transform="matrix(0 1 -1 0 148.5038 42.3121)"/></g></svg>