<svg viewBox="0 0 566.93 566.93" xmlns="http://www.w3.org/2000/svg"><path d="m482.07 84.86a280.87 280.87 0 1 0 -397.21 397.21 280.87 280.87 0 1 0 397.21-397.21zm-198.61 475c-152.63-.02-276.37-123.76-276.37-276.4s123.74-276.37 276.37-276.37 276.38 123.74 276.38 276.37-123.74 276.38-276.38 276.38z" fill="#d7282f"/><path d="m283.46 7.09c-152.63 0-276.37 123.74-276.37 276.37s123.74 276.38 276.37 276.38 276.38-123.74 276.38-276.38-123.74-276.37-276.38-276.37zm0 548.25c-149.91 0-271.87-122-271.87-271.88s122-271.87 271.87-271.87 271.88 122 271.88 271.87-121.96 271.88-271.88 271.88z" fill="#d7282f"/><path d="m283.46 11.59c-149.91 0-271.87 122-271.87 271.87s122 271.88 271.87 271.88 271.88-122 271.88-271.88-121.96-271.87-271.88-271.87z" fill="#fff"/><path d="m278.97 455.55-34.97-88.57-103.15 31.59 53.75-93.54-89.02-60.96 106.65-16.29-6.92-94.97-.95-12.66 79.26 73.25 79.24-73.23-7.85 107.61 106.65 16.29-89.02 60.96 53.75 93.52-12.21-3.72-90.94-27.85-39.6 100.29z" fill="#e65f54"/><path d="m357 132.44v.32l-7.22 98.94v.32l96.75 14.78 1.95.3-82.07 56.2-.31.21 49.75 86.57h-.13l-95.24-29.16h-.1l-36.65 92.82-36.73-92.9h-.05l-95.42 29.22.66-1.15 49.09-85.42-.34-.23-82-56.18.52-.08 97.84-15h.34l-7.25-99.36v-.22l73.33 67.77zm-73 151.56-.27.22h-.06-.19l-.26.06-.43-.09.19.15.27.21.33.27.09.07.22.17-.21-.44.1-.21.14-.29zm84.8-176.11-18.64 17.21-66.54 61.49-66.54-61.49-18.6-17.19 1.84 25.26v.21l6.57 90.15-89 13.61-.53.08-25 3.82 20.9 14.31 74.74 51.19-44.52 77.46-.66 1.15-12.62 22 24.22-7.42 86.63-26.53 33.27 84.28 9.31 23.52 9.3-23.58v-.05l33.24-84.22 86.51 26.5h.13l24.22 7.42-12.62-22-45.15-78.56 74.74-51.16 20.94-14.35-25-3.82-1.95-.3-87.62-13.39 6.57-90v-.32l1.85-25.26z" fill="#d7282f"/><path d="m283.29 283.87.2-.04v-88.09l-.03.02-76.84-71.01.02.22z" fill="#e65f54"/><path d="m282.97 285.37 77.31-160.28.03-.34-77.68 71.78v89.08l.06-.01z" fill="#d7282f"/><path d="m352.7 229.1.02-.34-68.89 54.83-.09.18 170.35-39.18z" fill="#d7282f"/><path d="m360.28 125.08-76.45 158.51 68.89-54.83z" fill="#e65f54"/><path d="m456.13 244.9-2.04-.31-170.35 39.18-.14.3 86.52 19.72z" fill="#e65f54"/><path d="m421.93 394.73-52.13-90.72.32-.22-86.52-19.72-.11.22.22.46 138.09 109.94z" fill="#d7282f"/><path d="m421.8 394.69-138.09-109.94 38.29 79.37z" fill="#e65f54"/><path d="m283.39 284.5-38.4 79.61.05-.02 38.42 97.32.03-.06v-176.78z" fill="#e65f54"/><path d="m283.49 284.57v176.78l38.39-97.26.12.03-38.29-79.37z" fill="#d7282f"/><path d="m282.56 283.83-171.21-39.01-.55.08 85.98 58.87 85.98-19.78z" fill="#d7282f"/><path d="m283.04 284.22-137.34 109.3-.7 1.21 99.99-30.62 38.4-79.61z" fill="#d7282f"/><path d="m283.04 284.22-.28-.23-85.98 19.78.35.24-51.43 89.51z" fill="#e65f54"/><path d="m282.56 283.83-68.68-54.68-102.53 15.67z" fill="#e65f54"/><path d="m282.14 285.72.28-.06-77.51-160.69 7.68 105.3-.36.05 69.46 55.3z" fill="#d7282f"/><path d="m283.46 203.45h-.09v162.12h.09c45.5 0 82.39-36.29 82.39-81.06s-36.85-81.06-82.39-81.06z" fill="#005470"/><path d="m201.08 284.51c0 44.74 36.83 81 82.29 81.06v-162.12c-45.46.05-82.29 36.32-82.29 81.06z" fill="#1b6c84"/><path d="m283.86 282.89-.31.25.21-.05z" fill="#f1c410"/><path d="m283.49 283.19v-.04l-.22.05.06.11z" fill="#f1c410"/><path d="m283.49 283.15v.04l.06-.05z" fill="#f1c410"/><path d="m283.49 283.39v-.2l-.16.12.02.05z" fill="#f1c410"/><path d="m283.76 283.09-.21.05-.06.05v.2l.12.02z" fill="#f1c410"/><path d="m283.49 283.39-.14-.03.14.29z" fill="#f1c410"/><path d="m283.61 283.41-.12-.02v.26z" fill="#f1c410"/><path d="m283.49 283.66-.11.21.11.08z" fill="#f1c410"/><path d="m283.49 283.65v.01.29l.24.19z" fill="#f1c410"/><path d="m282.97 283.27-.48-.11.22.17z" fill="#f1c410"/><path d="m283.49 283.65v.01z" fill="#f1c410"/><path d="m283.49 283.66v-.01l-.14-.29-.06-.02-.28.23.37.3z" fill="#f1c410"/><path d="m283.29 283.34-.32-.07-.26.06.3.24z" fill="#f1c410"/><path d="m283.33 283.31-.06-.11-.3.07.32.07z" fill="#f1c410"/><path d="m283.33 283.31-.04.03.06.02z" fill="#f1c410"/><path d="m229.23 337.45a1.5 1.5 0 0 1 -1.41-2l39.67-112.95a1.5 1.5 0 0 1 1.42-1h30.95a1.5 1.5 0 0 1 1.41 1l39.67 113a1.5 1.5 0 0 1 -1.41 2zm72.71-24-17.94-53.57-18 53.56z" fill="#d7282f"/><path d="m299.86 223 39.67 113h-110.3l39.68-113zm-36 91.94h40.14l-20-59.78-20.1 59.78m36-94.94h-30.99a3 3 0 0 0 -2.84 2l-39.67 113a3 3 0 0 0 2.83 4h110.3a3 3 0 0 0 2.83-4l-39.67-113a3 3 0 0 0 -2.83-2zm-31.79 91.94 15.89-47.35 15.86 47.35z" fill="#fff"/><path d="m467 99.91a259.59 259.59 0 1 0 -367.09 367.09 259.59 259.59 0 0 0 367.09-367.09zm17.2 183.55c0 110.7-90.06 200.76-200.76 200.76s-200.73-90.06-200.73-200.76 90.06-200.75 200.75-200.75 200.76 90.06 200.76 200.75z" fill="#005470"/><g fill="#fff"><path d="m85.76 228.63q-2.2 9.12-9 13.15t-16.76 1.61q-9.64-2.32-14.07-9.09t-2.23-15.88a32.26 32.26 0 0 1 1.3-4.29 27.83 27.83 0 0 1 1.66-3.52 26.35 26.35 0 0 1 1.84-2.75c.74-1 1.36-1.76 1.87-2.35l9.63 2.34-.25 1q-.82.57-2 1.47a24.68 24.68 0 0 0 -2.4 2.1 17.22 17.22 0 0 0 -2.23 2.76 10.56 10.56 0 0 0 -1.48 3.4 11.73 11.73 0 0 0 -.28 4.21 10 10 0 0 0 1.56 4.08 11.93 11.93 0 0 0 3.59 3.51 18.78 18.78 0 0 0 6 2.47 18 18 0 0 0 6.6.53 11.75 11.75 0 0 0 4.79-1.63 9.86 9.86 0 0 0 3.06-3 11.82 11.82 0 0 0 1.62-3.71 11.3 11.3 0 0 0 .26-4 15.9 15.9 0 0 0 -.74-3.44 21.9 21.9 0 0 0 -1.1-2.77c-.42-.83-.79-1.55-1.12-2.17l.22-.92 9.5 2.26c.17.83.35 1.79.56 2.87a24.37 24.37 0 0 1 .4 3.3 34.12 34.12 0 0 1 0 3.78 28.17 28.17 0 0 1 -.8 4.68z"/><path d="m97.41 195.48q-3.42 7.68-9 10.15t-12.69-.71l-24.3-10.85 4.27-9.56 23.76 10.6c2.64 1.17 4.84 1.55 6.58 1.14s3.11-1.76 4.11-4 1.09-4.09.3-5.68-2.55-3-5.3-4.22l-23.76-10.6 4.27-9.56 24.35 10.81q7 3.14 9 8.85t-1.59 13.63z"/><path d="m107.16 173.78-34.5-23.43 15.85-23.35 6.58 4.47-10 14.71 6 4.11 9.21-13.56 6.57 4.47-9.2 13.55 8.71 5.92 10-14.71 6.58 4.47z"/><path d="m153.2 118.55-8.91 9.15-19.07-2.33-2.61 2.69 11 10.66-7.26 7.47-29.94-29.09 11.7-12a37.06 37.06 0 0 1 4.54-4 13.06 13.06 0 0 1 4.61-2.15 11 11 0 0 1 5.08 0 10.74 10.74 0 0 1 4.92 3 12.93 12.93 0 0 1 4.07 7 15.31 15.31 0 0 1 -.62 7.45zm-32.5-8.1a5.61 5.61 0 0 0 -2.35-1.45 4 4 0 0 0 -2.65.21 7.59 7.59 0 0 0 -1.91 1.2c-.61.52-1.34 1.21-2.17 2.07l-2.44 2.5 8 7.84 2.09-2.15a22.1 22.1 0 0 0 2.39-2.84 5.49 5.49 0 0 0 1-2.65 4.86 4.86 0 0 0 -.3-2.38 7 7 0 0 0 -1.66-2.35z"/><path d="m159 64 12.36 42.33-8.92 6.31-35.76-25.78 8.87-6.27 23.72 17.83-8.9-28.31z"/><path d="m211 62.58q4.17 9.21 1.63 16.72t-11.13 11.38q-8.61 3.88-15.92.75t-11.42-12.22q-4.16-9.21-1.64-16.7t11.09-11.42q8.58-3.87 15.9-.8t11.49 12.29zm-9.87 4.42a22.89 22.89 0 0 0 -3.31-5.46 13.28 13.28 0 0 0 -3.65-3.08 8.13 8.13 0 0 0 -3.78-1 9 9 0 0 0 -6.39 2.86 8.37 8.37 0 0 0 -1.74 3.48 12.71 12.71 0 0 0 -.13 4.79 22.64 22.64 0 0 0 1.87 6.17 22.63 22.63 0 0 0 3.32 5.5 12.75 12.75 0 0 0 3.63 3 7.75 7.75 0 0 0 3.8 1 8.6 8.6 0 0 0 3.52-.77 8.42 8.42 0 0 0 2.94-2.21 7.69 7.69 0 0 0 1.71-3.49 13.47 13.47 0 0 0 .14-4.72 22.7 22.7 0 0 0 -1.93-6.07z"/><path d="m273.33 69a50.27 50.27 0 0 1 -6.74 3.17 36.88 36.88 0 0 1 -8.41 2.27q-9.74 1.4-16.31-3.4t-8.05-15.04q-1.38-9.7 3.56-16.38t15-8.1a30.09 30.09 0 0 1 8.57-.22 45.78 45.78 0 0 1 7.05 1.7l1.38 9.68-.94.13-2.39-1.34a24.37 24.37 0 0 0 -3-1.43 18.52 18.52 0 0 0 -3.81-1 14.72 14.72 0 0 0 -4.4 0 13.92 13.92 0 0 0 -4.73 1.53 11.09 11.09 0 0 0 -3.55 3.11 11.88 11.88 0 0 0 -2 4.58 17 17 0 0 0 -.11 6.07q1 7.23 5.15 10.16t10.42 2l1.3-.21q.74-.13 1.29-.27l-1.16-8.1-8 1.14-1.1-7.73 18.05-2.57z"/><path d="m318.85 52.78q-.63 10.09-6.4 15.54t-15.15 4.84q-9.44-.6-14.42-6.8t-4.36-16.15q.64-10 6.38-15.52t15.16-4.88q9.39.6 14.41 6.74t4.38 16.23zm-10.78-.71a22.71 22.71 0 0 0 -.36-6.38 13.09 13.09 0 0 0 -1.79-4.42 8 8 0 0 0 -2.87-2.64 8.14 8.14 0 0 0 -10.18 1.75 12.82 12.82 0 0 0 -2.35 4.17 22.61 22.61 0 0 0 -1.21 6.35 23 23 0 0 0 .35 6.41 13.18 13.18 0 0 0 1.8 4.37 7.74 7.74 0 0 0 2.89 2.66 8.72 8.72 0 0 0 3.47 1 8.44 8.44 0 0 0 3.63-.57 7.87 7.87 0 0 0 3.15-2.28 14 14 0 0 0 2.34-4.11 22.62 22.62 0 0 0 1.13-6.31z"/><path d="m348.87 81.68-27-6.7 10-40.48 10.13 2.5-8.12 32.76 16.9 4.24z"/><path d="m394.5 78.9a21.14 21.14 0 0 1 -6.6 8.47 19.19 19.19 0 0 1 -8.78 3.81 18.2 18.2 0 0 1 -7.56-.44 52.55 52.55 0 0 1 -7.66-2.74l-11.9-5.41 17.12-38 11.79 5.31a57.75 57.75 0 0 1 7.29 3.89 18.2 18.2 0 0 1 5.45 5.43 18.8 18.8 0 0 1 3 9.14 22.07 22.07 0 0 1 -2.15 10.54zm-9.77-4.49a16.14 16.14 0 0 0 1.6-7 10.37 10.37 0 0 0 -2.09-6 10.11 10.11 0 0 0 -3.55-3q-2.08-1.06-5.05-2.4l-.18-.08-10.71 23.84.18.08c2.15 1 4 1.74 5.48 2.32a9.52 9.52 0 0 0 4.82.53 10.46 10.46 0 0 0 5.41-2.48 16.38 16.38 0 0 0 4.09-5.81z"/><path d="m399.62 108.55a34.27 34.27 0 0 1 -6.37-5.58 44.65 44.65 0 0 1 -4.2-5.75l5.69-8.12.78.55a23.42 23.42 0 0 0 3.32 7.35 20.7 20.7 0 0 0 5.19 5.38 18.44 18.44 0 0 0 2.06 1.2 7.87 7.87 0 0 0 2.29.85 5.16 5.16 0 0 0 2.28 0 3.25 3.25 0 0 0 1.91-1.41 3.09 3.09 0 0 0 .45-2.79 7.91 7.91 0 0 0 -1.59-2.86q-1.43-1.68-3.12-3.48a38 38 0 0 1 -3-3.61c-2-2.78-3-5.37-3.05-7.74a12 12 0 0 1 2.42-7.13 11.21 11.21 0 0 1 9.5-4.92 20.34 20.34 0 0 1 12.22 4.13 36.72 36.72 0 0 1 5.6 4.8 32.48 32.48 0 0 1 4.23 5.46l-5.46 7.8-.76-.53a20.84 20.84 0 0 0 -2.72-6 18 18 0 0 0 -4.84-5.07 14 14 0 0 0 -2.14-1.25 9.22 9.22 0 0 0 -2.31-.7 4.63 4.63 0 0 0 -2.15.12 3.06 3.06 0 0 0 -1.72 1.21 3.11 3.11 0 0 0 -.53 2.72 11.74 11.74 0 0 0 2.62 3.91l2.79 3.07a38.12 38.12 0 0 1 2.7 3.4 14.18 14.18 0 0 1 2.87 7.15 10.88 10.88 0 0 1 -2.28 6.94 12 12 0 0 1 -9.7 5.35q-6.16.32-12.98-4.45z"/><path d="m423.22 126.55 23.66-24.06-8.78-8.65 5.58-5.67 25 24.63-5.57 5.67-8.79-8.64-23.67 24.06z"/><path d="m441 144.86 33.66-24.62 16.68 22.76-6.43 4.69-10.5-14.35-5.9 4.32 9.68 13.22-6.42 4.7-9.67-13.23-8.5 6.22 10.5 14.36-6.42 4.69z"/><path d="m470.09 191-10.53-19.84 6.44-3.46 2.8 5.3 24-12.72-2.8-5.28 6.43-3.41 10.53 19.84-6.43 3.42-2.81-5.3-24 12.72 2.81 5.3z"/><path d="m484.06 229.51-3.21-9.51 22.44-24.51-27.56 9.27-3.05-9.08 39.53-13.29 4.09 12.19-18.41 20.22 22.65-7.61 3.05 9.08z"/><path d="m160.27 476.45a20.38 20.38 0 0 1 -8 6.51 18.34 18.34 0 0 1 -9 1.69 17.27 17.27 0 0 1 -7-2 49.92 49.92 0 0 1 -6.58-4.24l-10-7.56 24.15-31.94 9.91 7.49a55.94 55.94 0 0 1 6 5.2 17.31 17.31 0 0 1 3.94 6.25 17.89 17.89 0 0 1 .86 9.2 21.11 21.11 0 0 1 -4.28 9.4zm-8.19-6.29a15.28 15.28 0 0 0 3-6.21 10.09 10.09 0 0 0 -3.35-9.61c-1.16-1-2.56-2.06-4.22-3.31l-.15-.12-15.11 20 .15.11c1.8 1.37 3.35 2.48 4.63 3.36a9.19 9.19 0 0 0 4.4 1.51 9.92 9.92 0 0 0 5.59-1.16 15.67 15.67 0 0 0 5.06-4.57z"/><path d="m156.87 497.29 18.69-35.41 23.94 12.65-3.56 6.75-15.1-8-3.28 6.2 13.91 7.35-3.56 6.75-13.91-7.31-4.72 8.94 15.1 8-3.57 6.75z"/><path d="m215.52 523-25.16-9 13.52-37.68 9.47 3.39-10.94 30.5 15.69 5.63z"/><path d="m231 526.59 6.55-31.73-11.55-2.4 1.54-7.47 33 6.82-1.54 7.48-11.59-2.39-6.55 31.72z"/><path d="m256.09 531.65 15.5-39.32 11 .55 11.51 40.66-10.37-.54-2.1-8.29-12.56-.62-2.91 8zm23.7-14.28-3.42-13.37-4.74 13z"/><path d="m336.16 529.11q-7.92 1.53-12.92-1.47t-6.43-10.37l-4.81-25.1 9.88-1.91 4.74 24.52c.53 2.73 1.44 4.67 2.72 5.8s3.1 1.48 5.42 1 3.81-1.41 4.63-2.9 1-3.65.4-6.48l-4.79-24.49 9.87-1.91 4.85 25.08q1.41 7.26-2 12t-11.56 6.23z"/><path d="m396.18 509.16-9 3.54-24.58-20.31 10.22 26-8.56 3.36-14.66-37.25 11.48-4.5 20.28 16.66-8.36-21.39 8.56-3.37z"/><path d="m423.9 493.28-18.61 10.9-3.53-6 5-2.91-13.17-22.48-5 2.91-3.54-6 18.61-10.91 3.53 6-5 2.91 13.17 22.48 5-2.91z"/><path d="m438.29 483-20-25.48-9.3 7.31-4.72-6 26.5-20.83 4.72 6-9.3 7.31 20 25.48z"/></g></svg>