<svg enable-background="new 0 0 113.3 113.3" viewBox="0 0 113.3 113.3" xmlns="http://www.w3.org/2000/svg"><path d="m56.9 0c31.3 0 56.5 25.6 56.4 57.1-.1 31-25.6 56.3-56.8 56.2-31.3-.1-56.6-25.5-56.5-56.8-.1-31.4 25.3-56.6 56.9-56.5zm55.2 56.8c0-30.6-24.8-55.6-55.4-55.6-30.7 0-55.6 24.8-55.6 55.5 0 30.6 24.9 55.5 55.5 55.5 30.5 0 55.4-24.9 55.5-55.4z" fill="#0099d4"/><path d="m56.7 1.2c30.5 0 55.4 25 55.4 55.6 0 30.5-25 55.4-55.5 55.4-30.6 0-55.5-24.9-55.5-55.5 0-30.7 24.9-55.5 55.6-55.5z" fill="#fff"/><path d="m56.8 10c25.7 0 46.5 21 46.4 47-.1 25.5-21.1 46.3-46.8 46.3-25.8 0-46.6-21-46.5-46.8 0-25.8 21-46.5 46.9-46.5zm45.4 46.8c0-25.2-20.4-45.8-45.6-45.8-25.3 0-45.8 20.4-45.8 45.7 0 25.2 20.5 45.6 45.7 45.6s45.7-20.5 45.7-45.5z" fill="#0081b3"/><path d="m56.7 11c25.1 0 45.6 20.6 45.6 45.8 0 25.1-20.5 45.6-45.6 45.6-25.2 0-45.7-20.5-45.7-45.6-.1-25.4 20.4-45.8 45.7-45.8z" fill="#0081b3"/><path d="m12.5 83.9c-.8-.7-1.2-1.5-1.5-2.2l-.7-1.4 89.4-52.1.7.4c.8.5 1.1 1.2 1.5 1.8.1.2.2.4.4.6l.7 1.1-89.8 52.4z" fill="#0085b5"/><path d="m99.7 29.7c.7.5.9 1.3 1.4 2.1-29.3 17-58.5 34.1-87.7 51.1-.7-.6-1-1.3-1.4-2.1 29.3-17.1 58.5-34.1 87.7-51.1m0-3-1.4.8-77.8 45.4-9.8 5.6-2 1.3 1 2.1.2.3c.4.8.8 1.8 1.8 2.6l1.4 1.2 1.6-.9 64.3-37.5 23.5-13.7 2.3-1.4-1.5-2.3c-.1-.1-.2-.3-.3-.5-.3-.7-.8-1.6-1.9-2.3z" fill="#fff"/><path d="m25.4 84.6c-.7-.7-1-1.4-1.4-2.1-.1-.2-.2-.3-.2-.5l-.6-1.1 54-31.6.7.5c.9.7 1.5 1.5 2 2.8l.4 1-54.2 31.7z" fill="#0084b5"/><path d="m77.1 50.9c.8.6 1.2 1.3 1.6 2.2-17.5 10.2-35 20.4-52.4 30.6-.7-.7-1-1.4-1.4-2.3 17.4-10.1 34.8-20.3 52.2-30.5m.2-3.1-1.5.9-52.2 30.5-2.1 1.2 1.1 2.2c.1.2.2.3.2.5.4.7.8 1.6 1.6 2.4l1.4 1.4 1.7-1 52.3-30.6 1.9-1.1-.8-2c-.6-1.4-1.3-2.5-2.4-3.3z" fill="#fff"/><path d="m32.5 59.2 51.5-30.1.7.6c.7.6 1.1 1.4 1.4 2 .1.2.2.4.3.6l.6 1.1-52.1 30.5z" fill="#0084b5"/><g fill="#fff"><path d="m83.9 30.6c.7.6 1 1.4 1.4 2.3-16.6 9.7-33.2 19.4-49.9 29.2-.4-.9-.8-1.6-1.2-2.4 16.6-9.7 33.2-19.4 49.7-29.1m.3-3.1-1.6 1-42.4 24.7-7.3 4.3-2.1 1.2 1.1 2.2.6 1.1.6 1.3 1.2 2.4 2.4-1.4 20.8-12.2 29.1-17 2.2-1.3-1.2-2.2c-.1-.2-.2-.4-.3-.5-.4-.7-.8-1.6-1.7-2.4z"/><path d="m6.6 48.4.6-2.5 4.9-1.4v-.1l-4.4-1 .3-1.4 5.8 1.4-.6 2.5-4.9 1.4v.2l4.4 1-.3 1.4z" stroke="#fff" stroke-miterlimit="10" stroke-width=".8572"/><path d="m14.3 38.7.5-1.2c.4.2.7.4.8.7.1.2.1.5.1.8s-.2.7-.4 1.3c-.2.5-.3.8-.5 1s-.3.4-.5.5-.4.1-.7.1-.6-.2-1.1-.4c-.4-.1-.7-.3-.8-.4-.2-.1-.3-.2-.5-.3-.3-.3-.4-.6-.3-.9 0-.3.2-.8.4-1.4.2-.5.4-.9.5-1.1.2-.3.5-.5.8-.6.3 0 .8.1 1.5.3.1 0 .2.1.4.2l-1.2 3.1c.2.1.3.1.4.1s.2 0 .3 0c .2-.1.3-.3.5-.7.1-.3.2-.5.2-.6s0-.2 0-.3c-.2 0-.3-.1-.4-.2zm-1.2-.5c-.2-.1-.3-.1-.3-.1-.1 0-.1 0-.2 0-.2 0-.3.3-.5.7s-.2.7-.2.8c0 .2.2.3.5.4z" stroke="#fff" stroke-miterlimit="10" stroke-width=".8572"/><path d="m12.7 35 .6-1 .5.3v-.1c-.3-.4-.3-.9.1-1.6.2-.3.4-.6.7-.7.2-.1.5-.2.9-.1-.2-.2-.3-.5-.3-.8s.1-.6.3-.9.4-.5.5-.7c.2-.1.4-.2.6-.3.2 0 .5 0 .7.1s.6.3 1.1.5l1.7 1-.6 1.1-1.7-1c-.3-.2-.5-.3-.6-.3s-.2-.1-.3-.1c-.2 0-.4.2-.6.5s-.2.6-.2.8c0 .1.1.2.3.3.1.1.3.2.6.4l1.5.9-.6 1.1-1.7-1c-.3-.2-.5-.3-.6-.3s-.2-.1-.3 0c-.2 0-.4.2-.6.5s-.3.6-.2.8c0 .1.1.2.3.3.1.1.3.2.6.4l1.5.9-.6 1.1z" stroke="#fff" stroke-miterlimit="10" stroke-width=".8572"/><path d="m18.9 25.4c.4-.4.7-.8.9-.9.2-.2.4-.3.7-.3.2 0 .5 0 .7.1s.5.3 1 .7c.3.3.5.4.7.6.1.1.3.3.3.4.2.3.3.7.1 1.1-.1.3-.4.7-.9 1.3-.4.5-.7.8-.9 1s-.4.3-.7.3c-.2 0-.5 0-.7-.2-.2-.1-.6-.4-1.1-.8-.3-.2-.5-.4-.6-.5s-.2-.3-.3-.4c-.2-.3-.2-.6-.1-.9.1-.4.4-.9.9-1.5zm.9.8c-.3.3-.4.6-.4.7s0 .2.1.4c.1.1.2.3.4.5s.4.3.5.3.2.1.3 0c .2-.1.4-.3.7-.6.3-.4.5-.6.4-.8 0-.2-.2-.4-.5-.7-.2-.2-.4-.3-.5-.3s-.2-.1-.4 0c-.1 0-.3.2-.6.5z" stroke="#fff" stroke-miterlimit="10" stroke-width=".8572"/><path d="m22.5 19.2 2-1.6 4.7 1.9.1-.1-2.8-3.5 1.2-.9 3.7 4.7-2 1.6-4.7-1.9-.1.1 2.8 3.5-1.2.9z" stroke="#fff" stroke-miterlimit="10" stroke-width=".8572"/><path d="m32.1 14.3c.5-.3.9-.5 1.2-.6s.5-.1.7-.1.4.2.6.3.4.5.7 1c .2.3.3.6.4.8s.1.4.2.5c.1.4 0 .7-.3 1-.2.2-.6.5-1.3.9-.5.3-1 .5-1.2.6s-.4.1-.7.1c-.2-.1-.4-.2-.6-.4s-.4-.6-.7-1.1c-.2-.3-.3-.5-.4-.7s-.1-.3-.1-.5c0-.3 0-.6.2-.9.3-.2.7-.5 1.3-.9zm.7 1c-.4.2-.6.4-.7.5s-.1.2 0 .4c0 .1.1.3.3.6.1.2.3.4.3.5.1.1.2.1.3.1.2 0 .5-.1.8-.3.4-.2.6-.4.7-.6s0-.5-.3-.8c-.1-.2-.3-.4-.4-.5s-.2-.1-.3-.1c-.1-.1-.4 0-.7.2z" stroke="#fff" stroke-miterlimit="10" stroke-width=".8572"/><path d="m36.7 15.2 1.2-.5c.1.2.2.2.4.3.2 0 .4-.1.8-.2.4-.2.6-.3.7-.4s.1-.2.1-.4c-.1-.1-.2-.2-.4-.2-.1 0-.4.1-1 .4-.6.2-.9.4-1.1.4-.4.1-.7 0-.9-.1s-.3-.4-.4-.7c-.2-.6-.2-1 0-1.3.2-.2.7-.5 1.6-.9.5-.2.9-.4 1.2-.4.3-.1.5 0 .7.1.1.1.2.1.3.2s.2.3.3.5l-1.2.5c-.1-.1-.1-.1-.2-.2-.1 0-.4 0-.8.2s-.6.3-.7.4-.1.2-.1.3c.1.2.2.2.4.1.2 0 .7-.3 1.6-.6.4-.2.8-.2 1.1-.1s.5.4.7.8c.1.3.2.6.2.8s-.1.4-.2.6c-.2.3-.8.6-1.6 1-.6.2-1 .4-1.3.4s-.5 0-.7-.1c-.3-.2-.5-.5-.7-.9z" stroke="#fff" stroke-miterlimit="10" stroke-width=".8572"/><path d="m43.6 7.8 5.2-1.1.3 1.4-3.8.7.2.8 3.6-.8.3 1.3-3.7.9.2.9 3.8-.8.3 1.4-5.2 1.1z" stroke="#fff" stroke-miterlimit="10" stroke-width=".8572"/><path d="m50.4 9.4-.1-1.1.6-.1c0-.4 0-.8 0-1s .1-.4.2-.5c.1-.2.3-.3.5-.4s.5-.1.9-.2h.6l.1 1c-.2 0-.3 0-.3 0-.3 0-.6.1-.7.2 0 .1-.1.1-.1.2s0 .2 0 .4l1.2-.1.1 1.1-1.2.1.3 3.1-1.3.1-.3-3.1z" stroke="#fff" stroke-miterlimit="10" stroke-width=".8572"/><path d="m54.5 9v-1.1h.7c0-.4 0-.8.1-.9 0-.2.1-.3.2-.5s.3-.3.5-.3c.2-.1.5-.1.9-.1h.6v1c-.2 0-.3 0-.3 0-.4 0-.6.1-.7.2 0 .1-.1.1-.1.2s0 .2 0 .4h1.2v1.1h-1.2v3.1h-1.3v-3.1z" stroke="#fff" stroke-miterlimit="10" stroke-width=".8572"/><path d="m63 12.5-1.2-.1.1-.6h-.1c-.1.3-.3.4-.5.5s-.6.1-1 .1-.7-.1-.9-.2-.4-.3-.5-.5-.2-.4-.2-.7c0-.2 0-.7 0-1.2l.2-1.9 1.3.1-.2 1.9v.7c0 .1 0 .2.1.3s.2.2.3.2.3.1.5.1c.4 0 .7 0 .9-.2.1-.1.2-.2.2-.4s.1-.4.1-.8l.2-1.7 1.3.1z" stroke="#fff" stroke-miterlimit="10" stroke-width=".8572"/><path d="m68.5 9.3 1.2.3-.9 3.8c-.1.3-.1.6-.2.7 0 .1-.1.3-.2.4-.1.2-.2.3-.4.5-.2.1-.3.2-.5.2-.4.1-.9 0-1.7-.1-.5-.1-.9-.2-1.1-.4-.2-.1-.4-.3-.5-.5-.2-.3-.2-.7-.1-1.1l1.3.3c0 .2.1.3.2.4s.3.2.6.2.6.1.7.1c.2 0 .3-.1.4-.1.1-.1.1-.2.2-.3 0-.1.1-.3.2-.6v-.3c-.2.2-.4.4-.6.4s-.5 0-.9-.1-.7-.2-1-.3c-.2-.1-.4-.2-.5-.4s-.2-.4-.2-.7.1-.7.2-1.2c.1-.6.3-1.1.5-1.3s.4-.4.7-.4.7 0 1.3.1c.4.1.7.2.9.3s.3.3.4.6h.1zm-1.4.8c-.5-.1-.8-.1-.9-.1s-.2.1-.2.2-.1.3-.2.5c-.1.4-.1.6-.1.7s.1.2.2.3.4.2.7.3c.5.1.8.1 1 0 .1 0 .2-.1.2-.2.1-.1.1-.3.2-.5s.1-.4.1-.6c0-.1-.1-.2-.1-.3-.2-.1-.5-.2-.9-.3z" stroke="#fff" stroke-miterlimit="10" stroke-width=".8572"/><path d="m71.1 10.1 1.2.4-1.3 4-1.2-.4zm.5-1.7 1.2.4-.4 1.1-1.2-.4z" stroke="#fff" stroke-miterlimit="10" stroke-width=".8572"/><path d="m74.5 10.2 1.2.5-.4.9 1.8.8-.4 1-1.8-.8-.6 1.2c-.1.3-.2.5-.2.6 0 .2.1.3.3.4s.4.1.5 0l .1-.1s.1-.2.2-.4l1.1.4c-.2.4-.3.6-.4.8s-.2.3-.4.4-.4.2-.6.2-.6-.1-1-.3-.6-.3-.8-.4-.3-.3-.3-.5c0-.1-.1-.3 0-.4s.1-.3.1-.5c0-.1.1-.3.3-.6l.5-1.1-.6-.3.4-1 .6.3z" stroke="#fff" stroke-miterlimit="10" stroke-width=".8572"/><path d="m41.5 100.1 2.3 1.3c-.2.4-.3.6-.4.7-.3.6-.7 1-1 1.2-.4.3-.9.3-1.5.1s-1.6-.7-3-1.4c-1.4-.8-2.4-1.4-3-1.8s-1-.8-1.2-1.1-.3-.6-.3-.9.1-.7.3-1.1.5-1 1-1.9.9-1.5 1.1-1.8c.2-.4.5-.6.7-.8.5-.4 1.1-.4 1.8-.2s2 .9 4 2c1 .5 1.7 1 2.1 1.2.4.3.7.6.9.8.2.4.4.7.3 1.1 0 .4-.2.9-.6 1.5 0 0-.1.2-.2.4l-2.3-1.3c.1-.3.2-.4.2-.5s0-.2 0-.3-.2-.3-.6-.5c-.3-.2-.9-.6-1.6-1s-1.2-.7-1.5-.8-.5-.2-.7-.1c-.2 0-.4.2-.6.4s-.5.6-.8 1.2-.5 1-.6 1.2c-.1.3-.1.5 0 .7s.2.4.5.5c.3.2.7.5 1.5.9.9.5 1.5.8 1.8.9s.5.2.7.1c.2 0 .4-.3.7-.7z" stroke="#fff" stroke-miterlimit="10" stroke-width=".8572"/><path d="m47.6 97.2 2.6.5-.7 3.9c-.2.9-.2 1.5-.2 1.7 0 .3.2.6.5.8s1.1.4 2.2.6c.9.2 1.5.3 1.9.3s.6 0 .8-.2c.1-.1.2-.2.3-.4s.1-.4.2-.8.2-.7.2-.9l.7-3.9 2.6.5-.7 3.9c-.3 1.3-.5 2.2-.6 2.6-.2.7-.7 1.1-1.3 1.4-.4.1-.8.2-1.4.1-.6 0-1.6-.2-2.9-.4-1-.2-1.8-.4-2.3-.5s-1-.3-1.4-.5c-.9-.4-1.3-1-1.3-1.9 0-.3 0-.7.1-.9s.1-.9.3-1.9z" stroke="#fff" stroke-miterlimit="10" stroke-width=".8572"/><path d="m59.5 99.2 10.3-1.4.3 2.2-3.8.5.8 6.3-2.7.4-.8-6.3-3.8.5z" stroke="#fff" stroke-miterlimit="10" stroke-width=".8572"/><path d="m70.3 97.7 9.5-4.3.9 2-3.5 1.6 2.6 5.8-2.5 1.1-2.6-5.8-3.5 1.6z" stroke="#fff" stroke-miterlimit="10" stroke-width=".8572"/><path d="m80.6 92.8 7.2-6.2 1.3 1.5-5.2 4.5.8.9 5-4.3 1.2 1.4-5 4.3.9 1 5.3-4.6 1.4 1.6-7.2 6.3z" stroke="#fff" stroke-miterlimit="10" stroke-width=".8572"/><path d="m96 90-7.3-4.5 3.3-5.4c.8-1.3 1.3-2 1.4-2.2.2-.2.4-.4.7-.6s.7-.2 1-.2.9.3 1.5.7c.5.3.9.6 1.1.8s.3.5.4.7c0 .3 0 .7-.2 1.1.3-.4.7-.7 1-.8.2 0 .4 0 .6.1s.6.3 1.3.7l.7.4-1.3 2.2-.4-.2c-.4-.2-.7-.4-.9-.5s-.4-.1-.5-.1-.3.1-.4.2-.3.4-.6.9l-1.9 3.1 1.9 1.1zm-2.4-4.5 1.9-3.1c.3-.6.5-.9.6-1s .1-.2.1-.3 0-.3-.1-.4-.3-.2-.5-.4c-.2-.1-.4-.2-.6-.3-.1 0-.3 0-.4.1s-.2.1-.2.2c-.1.1-.3.4-.6.9l-1.9 3.1z" stroke="#fff" stroke-miterlimit="10" stroke-width=".8572"/><path d="m100.1 76.8.6-2.5c.4.1.7.1.9-.1.1-.1.2-.3.3-.4.1-.2.2-.8.5-1.8.3-1.1.4-1.7.4-1.9s.1-.4 0-.5c0-.2-.2-.3-.6-.4-.2-.1-.4 0-.5.1s-.2.4-.3.8c-.1.3-.3 1-.5 2-.3 1-.5 1.7-.6 2-.2.6-.3 1.1-.5 1.4s-.4.5-.7.7c-.4.2-1.1.2-1.9 0-.9-.2-1.6-.6-1.9-1-.2-.3-.3-.8-.3-1.4.1-.6.3-1.7.7-3.5.3-1.2.5-2.1.7-2.6.3-.7.6-1.2 1-1.4s1-.2 1.7 0c .1 0 .2 0 .4.1l-.6 2.5c-.2 0-.4-.1-.5-.1s-.2.1-.3.1c-.1.1-.2.3-.3.6s-.2.9-.4 1.8c-.3 1.1-.4 1.7-.4 2s .2.4.5.5.5 0 .6-.2.4-1.1.8-2.7c.4-1.3.6-2.2.8-2.7s.4-.8.6-1c .3-.3.6-.4.9-.5.4 0 .8 0 1.4.1.8.2 1.3.4 1.7.7.2.2.4.5.5.8s.1.7 0 1.3-.3 1.6-.7 3.1c-.3 1.3-.6 2.2-.8 2.8s-.4 1-.7 1.3-.5.4-.9.5c-.3 0-.8 0-1.4-.1z" stroke="#fff" stroke-miterlimit="10" stroke-width=".8572"/></g><path d="m6.6 48.4.6-2.5 4.9-1.4v-.1l-4.4-1 .3-1.4 5.8 1.4-.6 2.5-4.9 1.4v.2l4.4 1-.3 1.4z" fill="#e4251c"/><path d="m14.3 38.7.5-1.2c.4.2.7.4.8.7.1.2.1.5.1.8s-.2.7-.4 1.3c-.2.5-.3.8-.5 1s-.3.4-.5.5-.4.1-.7.1-.6-.2-1.1-.4c-.4-.1-.7-.3-.8-.4-.2-.1-.3-.2-.5-.3-.3-.3-.4-.6-.3-.9 0-.3.2-.8.4-1.4.2-.5.4-.9.5-1.1.2-.3.5-.5.8-.6.3 0 .8.1 1.5.3.1 0 .2.1.4.2l-1.2 3.1c.2.1.3.1.4.1s.2 0 .3 0c .2-.1.3-.3.5-.7.1-.3.2-.5.2-.6s0-.2 0-.3c-.2 0-.3-.1-.4-.2zm-1.2-.5c-.2-.1-.3-.1-.3-.1-.1 0-.1 0-.2 0-.2 0-.3.3-.5.7s-.2.7-.2.8c0 .2.2.3.5.4z" fill="#e4251c"/><path d="m12.7 35 .6-1 .5.3v-.1c-.3-.4-.3-.9.1-1.6.2-.3.4-.6.7-.7.2-.1.5-.2.9-.1-.2-.2-.3-.5-.3-.8s.1-.6.3-.9.4-.5.5-.7c.2-.1.4-.2.6-.3.2 0 .5 0 .7.1s.6.3 1.1.5l1.7 1-.6 1.1-1.7-1c-.3-.2-.5-.3-.6-.3s-.2-.1-.3-.1c-.2 0-.4.2-.6.5s-.2.6-.2.8c0 .1.1.2.3.3.1.1.3.2.6.4l1.5.9-.6 1.1-1.7-1c-.3-.2-.5-.3-.6-.3s-.2-.1-.3 0c-.2 0-.4.2-.6.5s-.3.6-.2.8c0 .1.1.2.3.3.1.1.3.2.6.4l1.5.9-.6 1.1z" fill="#e4251c"/><path d="m18.9 25.4c.4-.4.7-.8.9-.9.2-.2.4-.3.7-.3.2 0 .5 0 .7.1s.5.3 1 .7c.3.3.5.4.7.6.1.1.3.3.3.4.2.3.3.7.1 1.1-.1.3-.4.7-.9 1.3-.4.5-.7.8-.9 1s-.4.3-.7.3c-.2 0-.5 0-.7-.2-.2-.1-.6-.4-1.1-.8-.3-.2-.5-.4-.6-.5s-.2-.3-.3-.4c-.2-.3-.2-.6-.1-.9.1-.4.4-.9.9-1.5zm.9.8c-.3.3-.4.6-.4.7s0 .2.1.4c.1.1.2.3.4.5s.4.3.5.3.2.1.3 0c .2-.1.4-.3.7-.6.3-.4.5-.6.4-.8 0-.2-.2-.4-.5-.7-.2-.2-.4-.3-.5-.3s-.2-.1-.4 0c-.1 0-.3.2-.6.5z" fill="#e4251c"/><path d="m22.5 19.2 2-1.6 4.7 1.9.1-.1-2.8-3.5 1.2-.9 3.7 4.7-2 1.6-4.7-1.9-.1.1 2.8 3.5-1.2.9z" fill="#e4251c"/><path d="m32.1 14.3c.5-.3.9-.5 1.2-.6s.5-.1.7-.1.4.2.6.3.4.5.7 1c .2.3.3.6.4.8s.1.4.2.5c.1.4 0 .7-.3 1-.2.2-.6.5-1.3.9-.5.3-1 .5-1.2.6s-.4.1-.7.1c-.2-.1-.4-.2-.6-.4s-.4-.6-.7-1.1c-.2-.3-.3-.5-.4-.7s-.1-.3-.1-.5c0-.3 0-.6.2-.9.3-.2.7-.5 1.3-.9zm.7 1c-.4.2-.6.4-.7.5s-.1.2 0 .4c0 .1.1.3.3.6.1.2.3.4.3.5.1.1.2.1.3.1.2 0 .5-.1.8-.3.4-.2.6-.4.7-.6s0-.5-.3-.8c-.1-.2-.3-.4-.4-.5s-.2-.1-.3-.1c-.1-.1-.4 0-.7.2z" fill="#e4251c"/><path d="m36.7 15.2 1.2-.5c.1.2.2.2.4.3.2 0 .4-.1.8-.2.4-.2.6-.3.7-.4s.1-.2.1-.4c-.1-.1-.2-.2-.4-.2-.1 0-.4.1-1 .4-.6.2-.9.4-1.1.4-.4.1-.7 0-.9-.1s-.3-.4-.4-.7c-.2-.6-.2-1 0-1.3.2-.2.7-.5 1.6-.9.5-.2.9-.4 1.2-.4.3-.1.5 0 .7.1.1.1.2.1.3.2s.2.3.3.5l-1.2.5c-.1-.1-.1-.1-.2-.2-.1 0-.4 0-.8.2s-.6.3-.7.4-.1.2-.1.3c.1.2.2.2.4.1.2 0 .7-.3 1.6-.6.4-.2.8-.2 1.1-.1s.5.4.7.8c.1.3.2.6.2.8s-.1.4-.2.6c-.2.3-.8.6-1.6 1-.6.2-1 .4-1.3.4s-.5 0-.7-.1c-.3-.2-.5-.5-.7-.9z" fill="#e4251c"/><path d="m43.6 7.8 5.2-1.1.3 1.4-3.8.7.2.8 3.6-.8.3 1.3-3.7.9.2.9 3.8-.8.3 1.4-5.2 1.1z" fill="#e4251c"/><path d="m50.4 9.4-.1-1.1.6-.1c0-.4 0-.8 0-1s .1-.4.2-.5c.1-.2.3-.3.5-.4s.5-.1.9-.2h.6l.1 1c-.2 0-.3 0-.3 0-.3 0-.6.1-.7.2 0 .1-.1.1-.1.2s0 .2 0 .4l1.2-.1.1 1.1-1.2.1.3 3.1-1.3.1-.3-3.1z" fill="#e4251c"/><path d="m54.5 9v-1.1h.7c0-.4 0-.8.1-.9 0-.2.1-.3.2-.5s.3-.3.5-.3c.2-.1.5-.1.9-.1h.6v1c-.2 0-.3 0-.3 0-.4 0-.6.1-.7.2 0 .1-.1.1-.1.2s0 .2 0 .4h1.2v1.1h-1.2v3.1h-1.3v-3.1z" fill="#e4251c"/><path d="m63 12.5-1.2-.1.1-.6h-.1c-.1.3-.3.4-.5.5s-.6.1-1 .1-.7-.1-.9-.2-.4-.3-.5-.5-.2-.4-.2-.7c0-.2 0-.7 0-1.2l.2-1.9 1.3.1-.2 1.9v.7c0 .1 0 .2.1.3s.2.2.3.2.3.1.5.1c.4 0 .7 0 .9-.2.1-.1.2-.2.2-.4s.1-.4.1-.8l.2-1.7 1.3.1z" fill="#e4251c"/><path d="m68.5 9.3 1.2.3-.9 3.8c-.1.3-.1.6-.2.7 0 .1-.1.3-.2.4-.1.2-.2.3-.4.5-.2.1-.3.2-.5.2-.4.1-.9 0-1.7-.1-.5-.1-.9-.2-1.1-.4-.2-.1-.4-.3-.5-.5-.2-.3-.2-.7-.1-1.1l1.3.3c0 .2.1.3.2.4s.3.2.6.2.6.1.7.1c.2 0 .3-.1.4-.1.1-.1.1-.2.2-.3 0-.1.1-.3.2-.6v-.3c-.2.2-.4.4-.6.4s-.5 0-.9-.1-.7-.2-1-.3c-.2-.1-.4-.2-.5-.4s-.2-.4-.2-.7.1-.7.2-1.2c.1-.6.3-1.1.5-1.3s.4-.4.7-.4.7 0 1.3.1c.4.1.7.2.9.3s.3.3.4.6h.1zm-1.4.8c-.5-.1-.8-.1-.9-.1s-.2.1-.2.2-.1.3-.2.5c-.1.4-.1.6-.1.7s.1.2.2.3.4.2.7.3c.5.1.8.1 1 0 .1 0 .2-.1.2-.2.1-.1.1-.3.2-.5s.1-.4.1-.6c0-.1-.1-.2-.1-.3-.2-.1-.5-.2-.9-.3z" fill="#e4251c"/><path d="m71.1 10.1 1.2.4-1.3 4-1.2-.4zm.5-1.7 1.2.4-.4 1.1-1.2-.4z" fill="#e4251c"/><path d="m74.5 10.2 1.2.5-.4.9 1.8.8-.4 1-1.8-.8-.6 1.2c-.1.3-.2.5-.2.6 0 .2.1.3.3.4s.4.1.5 0l .1-.1s.1-.2.2-.4l1.1.4c-.2.4-.3.6-.4.8s-.2.3-.4.4-.4.2-.6.2-.6-.1-1-.3-.6-.3-.8-.4-.3-.3-.3-.5c0-.1-.1-.3 0-.4s.1-.3.1-.5c0-.1.1-.3.3-.6l.5-1.1-.6-.3.4-1 .6.3z" fill="#e4251c"/><path d="m41.5 100.1 2.3 1.3c-.2.4-.3.6-.4.7-.3.6-.7 1-1 1.2-.4.3-.9.3-1.5.1s-1.6-.7-3-1.4c-1.4-.8-2.4-1.4-3-1.8s-1-.8-1.2-1.1-.3-.6-.3-.9.1-.7.3-1.1.5-1 1-1.9.9-1.5 1.1-1.8c.2-.4.5-.6.7-.8.5-.4 1.1-.4 1.8-.2s2 .9 4 2c1 .5 1.7 1 2.1 1.2.4.3.7.6.9.8.2.4.4.7.3 1.1 0 .4-.2.9-.6 1.5 0 0-.1.2-.2.4l-2.3-1.3c.1-.3.2-.4.2-.5s0-.2 0-.3-.2-.3-.6-.5c-.3-.2-.9-.6-1.6-1s-1.2-.7-1.5-.8-.5-.2-.7-.1c-.2 0-.4.2-.6.4s-.5.6-.8 1.2-.5 1-.6 1.2c-.1.3-.1.5 0 .7s.2.4.5.5c.3.2.7.5 1.5.9.9.5 1.5.8 1.8.9s.5.2.7.1c.2 0 .4-.3.7-.7z" fill="#e4251c"/><path d="m47.6 97.2 2.6.5-.7 3.9c-.2.9-.2 1.5-.2 1.7 0 .3.2.6.5.8s1.1.4 2.2.6c.9.2 1.5.3 1.9.3s.6 0 .8-.2c.1-.1.2-.2.3-.4s.1-.4.2-.8.2-.7.2-.9l.7-3.9 2.6.5-.7 3.9c-.3 1.3-.5 2.2-.6 2.6-.2.7-.7 1.1-1.3 1.4-.4.1-.8.2-1.4.1-.6 0-1.6-.2-2.9-.4-1-.2-1.8-.4-2.3-.5s-1-.3-1.4-.5c-.9-.4-1.3-1-1.3-1.9 0-.3 0-.7.1-.9s.1-.9.3-1.9z" fill="#e4251c"/><path d="m59.5 99.2 10.3-1.4.3 2.2-3.8.5.8 6.3-2.7.4-.8-6.3-3.8.5z" fill="#e4251c"/><path d="m70.3 97.7 9.5-4.3.9 2-3.5 1.6 2.6 5.8-2.5 1.1-2.6-5.8-3.5 1.6z" fill="#e4251c"/><path d="m80.6 92.8 7.2-6.2 1.3 1.5-5.2 4.5.8.9 5-4.3 1.2 1.4-5 4.3.9 1 5.3-4.6 1.4 1.6-7.2 6.3z" fill="#e4251c"/><path d="m96 90-7.3-4.5 3.3-5.4c.8-1.3 1.3-2 1.4-2.2.2-.2.4-.4.7-.6s.7-.2 1-.2.9.3 1.5.7c.5.3.9.6 1.1.8s.3.5.4.7c0 .3 0 .7-.2 1.1.3-.4.7-.7 1-.8.2 0 .4 0 .6.1s.6.3 1.3.7l.7.4-1.3 2.2-.4-.2c-.4-.2-.7-.4-.9-.5s-.4-.1-.5-.1-.3.1-.4.2-.3.4-.6.9l-1.9 3.1 1.9 1.1zm-2.4-4.5 1.9-3.1c.3-.6.5-.9.6-1s .1-.2.1-.3 0-.3-.1-.4-.3-.2-.5-.4c-.2-.1-.4-.2-.6-.3-.1 0-.3 0-.4.1s-.2.1-.2.2c-.1.1-.3.4-.6.9l-1.9 3.1z" fill="#e4251c"/><path d="m100.1 76.8.6-2.5c.4.1.7.1.9-.1.1-.1.2-.3.3-.4.1-.2.2-.8.5-1.8.3-1.1.4-1.7.4-1.9s.1-.4 0-.5c0-.2-.2-.3-.6-.4-.2-.1-.4 0-.5.1s-.2.4-.3.8c-.1.3-.3 1-.5 2-.3 1-.5 1.7-.6 2-.2.6-.3 1.1-.5 1.4s-.4.5-.7.7c-.4.2-1.1.2-1.9 0-.9-.2-1.6-.6-1.9-1-.2-.3-.3-.8-.3-1.4.1-.6.3-1.7.7-3.5.3-1.2.5-2.1.7-2.6.3-.7.6-1.2 1-1.4s1-.2 1.7 0c .1 0 .2 0 .4.1l-.6 2.5c-.2 0-.4-.1-.5-.1s-.2.1-.3.1c-.1.1-.2.3-.3.6s-.2.9-.4 1.8c-.3 1.1-.4 1.7-.4 2s .2.4.5.5.5 0 .6-.2.4-1.1.8-2.7c.4-1.3.6-2.2.8-2.7s.4-.8.6-1c .3-.3.6-.4.9-.5.4 0 .8 0 1.4.1.8.2 1.3.4 1.7.7.2.2.4.5.5.8s.1.7 0 1.3-.3 1.6-.7 3.1c-.3 1.3-.6 2.2-.8 2.8s-.4 1-.7 1.3-.5.4-.9.5c-.3 0-.8 0-1.4-.1z" fill="#e4251c"/></svg>