<svg viewBox="0 0 566.93 566.93" xmlns="http://www.w3.org/2000/svg"><text fill="#8ebeb9" font-family="Tahoma-Bold, Tahoma" font-size="49" font-weight="700" transform="matrix(.75 -.66 .66 .75 126.71 746.89)">C</text><text fill="#8ebeb9" font-family="Tahoma-Bold, Tahoma" font-size="49" font-weight="700" transform="matrix(.84 -.54 .55 .84 150.48 726.12)">Y</text><text fill="#8ebeb9" font-family="Tahoma-Bold, Tahoma" font-size="49" font-weight="700" transform="matrix(.90704401 -.42103581 .42103581 .90704401 176.98 708.74)">B</text><text fill="#8ebeb9" font-family="Tahoma-Bold, Tahoma" font-size="49" font-weight="700" transform="matrix(.9558956 -.29370667 .29370667 .9558956 206.44 695.11)">E</text><text fill="#8ebeb9" font-family="Tahoma-Bold, Tahoma" font-size="49" font-weight="700" transform="matrix(.98766102 -.15660685 .15660685 .98766102 234.11 686.33)">R</text><text fill="#8ebeb9" font-family="Tahoma-Bold, Tahoma" font-size="49" font-weight="700" transform="translate(267.96 680.83)">G</text><text fill="#8ebeb9" font-family="Tahoma-Bold, Tahoma" font-size="49" font-weight="700" transform="matrix(.98768834 .15643447 -.15643447 .98768834 303.19 680.59)">H</text><text fill="#8ebeb9" font-family="Tahoma-Bold, Tahoma" font-size="49" font-weight="700" transform="matrix(.94882091 .31581464 -.31581464 .94882091 338.89 686.12)">O</text><text fill="#8ebeb9" font-family="Tahoma-Bold, Tahoma" font-size="49" font-weight="700" transform="matrix(.89 .46 -.46 .89 373.42 697.78)">S</text><text fill="#8ebeb9" font-family="Tahoma-Bold, Tahoma" font-size="49" font-weight="700" transform="matrix(.82035154 .57185955 -.57185955 .82035154 400.05 711.37)">T</text><text fill="#8ebeb9" font-family="Tahoma-Bold, Tahoma" font-size="49" font-weight="700" transform="matrix(.74 .68 -.68 .74 423.82 727.81)">S</text><path d="m283.46 553.43a270 270 0 0 1 -190.89-460.86 268.19 268.19 0 0 1 190.89-79.07h.91a270 270 0 0 1 190.29 460.55 268.24 268.24 0 0 1 -190.29 79.37z" fill="#35495e"/><path d="m283.46 16.5h.9c147 .49 266.07 119.81 266.07 267s-119 266.47-266.07 267h-.9c-147.44 0-267-119.53-267-267s119.52-267 267-267m0-6a273 273 0 0 0 -106.25 524.5 271.38 271.38 0 0 0 106.25 21.45h.92a273 273 0 0 0 105.93-524.23 271.21 271.21 0 0 0 -105.93-21.71h-.92z" fill="#f1c412"/><path d="m481 85.91a279.38 279.38 0 1 1 -395.09 395.09 279.38 279.38 0 0 1 395.09-395.09zm75.83 197.55c0-150.74-122.63-273.37-273.38-273.37s-273.36 122.63-273.36 273.37 122.63 273.38 273.37 273.38 273.38-122.63 273.38-273.38z" fill="#f1c410"/><path d="m184.41 315.91c9.75 2.51 18.41 4.76 27.09 7 2.45.63 5.12 1.52 4.34-2.85-.54-3.05.95-3.23 3.44-2.6 11.1 2.79 22.22 5.53 33.38 8.13 2.49.58 3.53 1.48 3.42 4.24-.25 6.15.08 12.33-.15 18.48-.1 2.81.66 4.13 3.5 4.8 7.42 1.77 14.77 3.83 22.14 5.81a12.88 12.88 0 0 0 6.86 0c7.37-2 14.74-4 22.15-5.81 2.69-.66 3.75-1.76 3.62-4.7-.27-6.32 0-12.66-.14-19 0-2.21.57-3.15 2.85-3.68 11.48-2.68 22.92-5.53 34.34-8.43 2.49-.64 3.48.07 3.05 2.56-.69 4 1.39 3.83 4.24 3.06 8.77-2.33 17.57-4.54 27.2-7-3.65 12.57-7.14 24.43-10.52 36.32-.48 1.7-1.69 1.78-3 2.11-4.82 1.23-9.59 2.65-14.45 3.71-2.45.53-3.51 1.61-3.13 4.07a4.2 4.2 0 0 1 0 1c-.29 4.43 1.88 10.1-.9 13s-8.22 2.84-12.54 4c-18 4.74-35.95 9.42-53.9 14.21a7.47 7.47 0 0 1 -4.22.07c-20.83-5.58-41.68-11.11-62.6-16.36-4-1-5.12-2.66-5-6.71.3-12.31.18-12.68-11.61-15.16-6.46-1.35-9.73-4.12-11.12-10.84-2.01-9.68-5.34-19.08-8.34-29.43z" fill="#fff"/><path d="m105.55 190.27c27 6.55 53.13 12.87 79.23 19.22 22.27 5.42 44.51 11 66.82 16.24 3.17.75 4.4 1.77 4.3 5.16-.24 9-.21 18 0 27 .07 3.13-.56 4-3.83 3.23q-64.56-16-129.17-31.83c-1.84-.45-3-1.14-3.66-2.84z" fill="#fff"/><path d="m314.94 261.64c0-10.8.14-20.95-.08-31.1-.07-3.2 1.09-4.08 4.05-4.79q66.81-16.17 133.55-32.63c2.7-.66 5.41-1.28 8.92-2.11-4.83 12.62-9.44 24.59-14 36.59-.64 1.7-1.91 2.1-3.39 2.47l-126.19 31.09c-.8.2-1.62.28-2.86.48z" fill="#fff"/><path d="m428.2 253c-3.71 11.75-7.36 22.93-10.7 34.2a4.88 4.88 0 0 1 -4 3.75q-47.67 12.46-95.33 25c-2.32.61-3.22.24-3.19-2.43.15-13 .17-26 .14-39 0-2 .59-2.93 2.64-3.41 11.64-2.71 23.28-5.43 34.84-8.45 3.2-.83 2.79.81 2.86 2.73.19 5.76.22 5.73 5.93 4.27q32.05-8.22 64.14-16.4a20.3 20.3 0 0 1 2.67-.26z" fill="#fff"/><path d="m141.82 252.62 47.18 11.95c7.4 1.87 14.84 3.59 22.18 5.69 2.92.83 4.11.36 3.59-2.72-.87-5.1 1.3-5.5 5.63-4.33 10.41 2.83 20.91 5.35 31.43 7.75 2.45.56 3.23 1.45 3.21 3.94q-.1 19.23.11 38.47c0 2.54-.66 3.17-3.12 2.53q-47.9-12.6-95.83-25.09c-2-.52-2.87-1.63-3.47-3.63-3.46-11.25-7.07-22.45-10.91-34.56z" fill="#fff"/><g fill="#f1c410"><path d="m141.53 115.06q-6 5.25-12.78 4.69t-12.49-7.2q-5.57-6.39-5.3-13.28t6.29-12.16a28.07 28.07 0 0 1 3-2.32 24 24 0 0 1 2.89-1.63 22.5 22.5 0 0 1 2.65-1c1-.32 1.81-.55 2.45-.71l5.58 6.41-.69.59h-2.13a21.33 21.33 0 0 0 -2.71.28 15 15 0 0 0 -2.92.81 9.18 9.18 0 0 0 -2.7 1.64 9.86 9.86 0 0 0 -2.23 2.82 8.51 8.51 0 0 0 -.93 3.61 10.11 10.11 0 0 0 .77 4.22 16 16 0 0 0 3 4.69 15.43 15.43 0 0 0 4.34 3.63 9.94 9.94 0 0 0 4.14 1.24 8.49 8.49 0 0 0 3.61-.57 10.13 10.13 0 0 0 3-1.79 9.61 9.61 0 0 0 2.16-2.65 13.21 13.21 0 0 0 1.18-2.75 17.48 17.48 0 0 0 .6-2.52c.12-.78.22-1.47.29-2.07l.62-.53 5.49 6.32c-.29.66-.63 1.42-1 2.27a20.83 20.83 0 0 1 -1.35 2.5 28.5 28.5 0 0 1 -1.86 2.63 24.42 24.42 0 0 1 -2.97 2.83z"/><path d="m158.93 58.24 1 24.08 8.12 12.48-7.5 4.87-7.86-12.09-22-11 8.53-5.56 12.78 6.92-1.31-14.33z"/><path d="m201.54 65.44a10.37 10.37 0 0 1 1.05 4.65 9.41 9.41 0 0 1 -1.05 4.15 12.56 12.56 0 0 1 -3 3.9 23.14 23.14 0 0 1 -5.26 3.18l-12.92 6-15.05-32.32 11.4-5.3a44.15 44.15 0 0 1 5.52-2.23 11.32 11.32 0 0 1 4-.45 6.76 6.76 0 0 1 3.75 1.29 8.08 8.08 0 0 1 2.53 3.2 8.42 8.42 0 0 1 .77 4.76 7.59 7.59 0 0 1 -2 4.23l.08.17a9.71 9.71 0 0 1 6 .35 8.19 8.19 0 0 1 4.18 4.42zm-16.54-8.44a3.93 3.93 0 0 0 -1.15-1.42 2.67 2.67 0 0 0 -1.8-.62 5.67 5.67 0 0 0 -2.07.5c-.74.32-1.84.81-3.28 1.48l-.56.27 3.16 6.79 1-.47c1.39-.65 2.35-1.11 2.89-1.4a5.17 5.17 0 0 0 1.52-1.25 2.92 2.92 0 0 0 .76-1.89 4.92 4.92 0 0 0 -.47-1.99zm8.13 12.18a4.33 4.33 0 0 0 -1.69-2.06 4.11 4.11 0 0 0 -2.42-.44 6.87 6.87 0 0 0 -2.17.63c-.87.38-2 .9-3.48 1.57l-1.49.7 3.76 8.09.43-.2q3.16-1.47 4.36-2.08a7.53 7.53 0 0 0 2.2-1.73 3.53 3.53 0 0 0 1-2.15 4.66 4.66 0 0 0 -.51-2.35z"/><path d="m210 74.15-10.5-34.05 23-7.07 2 6.5-14.5 4.47 1.83 6 13.36-4.1 2 6.49-13.37 4.11 2.65 8.6 14.53-4.51 2 6.5z"/><path d="m270.25 60.73-10.76 1.7-11.85-11.35-3.16.5 2.05 12.91-8.78 1.39-5.58-35.19 14.14-2.24a31.83 31.83 0 0 1 5.15-.44 10.87 10.87 0 0 1 4.26.89 9.33 9.33 0 0 1 3.48 2.58 9.21 9.21 0 0 1 1.86 4.52 11.19 11.19 0 0 1 -.78 6.85 13 13 0 0 1 -4.23 4.77zm-18.08-22.16a4.85 4.85 0 0 0 -.87-2.2 3.35 3.35 0 0 0 -1.92-1.21 6.25 6.25 0 0 0 -1.91-.16c-.69 0-1.54.15-2.55.31l-2.95.47 1.51 9.47 2.52-.4a17.73 17.73 0 0 0 3.09-.72 4.66 4.66 0 0 0 2-1.3 4.28 4.28 0 0 0 1-1.79 5.92 5.92 0 0 0 .08-2.47z"/><path d="m301.37 58.83a44.08 44.08 0 0 1 -6.08 1.88 31.46 31.46 0 0 1 -7.37.93q-8.39 0-13.38-4.81t-5-13.73q0-8.37 4.95-13.44t13.62-5.08a25.58 25.58 0 0 1 7.27.83 38.36 38.36 0 0 1 5.79 2.29v8.35h-.81l-1.85-1.41a20.52 20.52 0 0 0 -2.36-1.57 16.14 16.14 0 0 0 -3.1-1.3 12 12 0 0 0 -3.72-.54 11.43 11.43 0 0 0 -4.18.73 9.27 9.27 0 0 0 -3.36 2.21 10.24 10.24 0 0 0 -2.23 3.64 14.6 14.6 0 0 0 -.81 5.12q0 6.24 3.16 9.2t8.56 2.95h1.12c.43 0 .81 0 1.13-.07v-7h-6.91v-6.68h15.56z"/><path d="m336.5 66-8.83-1.4 2.47-15.6-12-1.9-2.47 15.6-8.82-1.4 5.55-35.2 8.83 1.4-2 12.88 12 1.9 2-12.88 8.83 1.4z"/><path d="m378.75 60.75q-2.73 8.19-8.67 11.44t-13.56.7q-7.63-2.53-10.41-8.75t-.11-14.28q2.72-8.16 8.64-11.44t13.57-.74q7.62 2.55 10.43 8.71t.11 14.36zm-8.75-2.94a19.18 19.18 0 0 0 1.09-5.35 11.08 11.08 0 0 0 -.5-4 6.82 6.82 0 0 0 -1.8-2.81 7.49 7.49 0 0 0 -2.65-1.55 7.3 7.3 0 0 0 -3-.39 7.19 7.19 0 0 0 -3.14 1.14 10.85 10.85 0 0 0 -2.85 2.94 19.26 19.26 0 0 0 -2.38 5 19.52 19.52 0 0 0 -1.11 5.37 11.08 11.08 0 0 0 .54 4 6.64 6.64 0 0 0 1.8 2.84 7.44 7.44 0 0 0 2.66 1.55 7.22 7.22 0 0 0 3.11.32 6.66 6.66 0 0 0 3.1-1.2 11.72 11.72 0 0 0 2.82-2.88 19.19 19.19 0 0 0 2.31-4.98z"/><path d="m386.19 85.17a28.78 28.78 0 0 1 -6-4 36 36 0 0 1 -4.23-4.37l3.86-7.53.73.37a20.21 20.21 0 0 0 3.66 5.8 17.84 17.84 0 0 0 5 3.94 16.15 16.15 0 0 0 1.87.77 7.15 7.15 0 0 0 2 .45 4.58 4.58 0 0 0 1.92-.29 2.81 2.81 0 0 0 1.45-1.42 2.65 2.65 0 0 0 .06-2.42 6.67 6.67 0 0 0 -1.68-2.23c-.93-.84-1.94-1.7-3-2.58a30.1 30.1 0 0 1 -3-2.7 11.93 11.93 0 0 1 -3.48-6.19 10.21 10.21 0 0 1 1.21-6.31 9.59 9.59 0 0 1 7.46-5.28 17.41 17.41 0 0 1 10.82 2.06 31.11 31.11 0 0 1 5.33 3.45 27.52 27.52 0 0 1 4.21 4.12l-3.71 7.24-.7-.36a17.77 17.77 0 0 0 -2.97-4.69 15.52 15.52 0 0 0 -4.68-3.72 13.57 13.57 0 0 0 -1.95-.81 7.94 7.94 0 0 0 -2-.31 4 4 0 0 0 -1.81.35 2.77 2.77 0 0 0 -1.43 3.59 9.77 9.77 0 0 0 2.66 3l2.72 2.28a31.28 31.28 0 0 1 2.68 2.56 12.06 12.06 0 0 1 3.26 5.71 9.36 9.36 0 0 1 -1.11 6.14 10.29 10.29 0 0 1 -7.61 5.7q-5.23.92-11.54-2.32z"/><path d="m408.68 97.51 16.49-23.65-8.63-6 3.88-5.58 24.58 17.13-3.87 5.59-8.63-6-16.5 23.62z"/><path d="m434.19 118.34a29.39 29.39 0 0 1 -4.76-5.44 36.37 36.37 0 0 1 -2.9-5.33l5.73-6.24.6.55a19.81 19.81 0 0 0 2 6.56 17.54 17.54 0 0 0 3.78 5.14 14.71 14.71 0 0 0 1.61 1.24 6.81 6.81 0 0 0 1.84 1 4.41 4.41 0 0 0 1.91.18 2.75 2.75 0 0 0 1.78-1 2.69 2.69 0 0 0 .7-2.31 6.59 6.59 0 0 0 -1-2.6c-.67-1-1.42-2.15-2.24-3.3a31.28 31.28 0 0 1 -2.13-3.38 12.07 12.07 0 0 1 -1.71-6.9 10.17 10.17 0 0 1 2.86-5.76 9.55 9.55 0 0 1 8.59-3.1 17.41 17.41 0 0 1 9.88 4.86 32.29 32.29 0 0 1 4.21 4.75 28.41 28.41 0 0 1 3 5.1l-5.51 6-.58-.53a17.84 17.84 0 0 0 -1.62-5.39 15.23 15.23 0 0 0 -3.53-4.84 12.65 12.65 0 0 0 -1.66-1.3 8.39 8.39 0 0 0 -1.88-.85 4 4 0 0 0 -1.83-.14 2.8 2.8 0 0 0 -2.35 3.08 10 10 0 0 0 1.78 3.6c.7 1 1.37 2 2 2.92a33.17 33.17 0 0 1 1.9 3.17 12.2 12.2 0 0 1 1.62 6.38 9.27 9.27 0 0 1 -2.71 5.62 10.29 10.29 0 0 1 -8.85 3.47q-5.3-.41-10.53-5.21z"/><path d="m24.42 240.24a21.71 21.71 0 0 1 .16-2.92 41.35 41.35 0 0 1 .89-4.45 14.06 14.06 0 0 1 1.8-4.49 8.86 8.86 0 0 1 2.73-2.74 8 8 0 0 1 3.39-1.21 12.12 12.12 0 0 1 3.83.14q2.07-7.26 7.86-10.34t13.85-1.15q8.36 2 12.14 7.62t1.93 13.46q-1.92 7.84-7.81 11.14t-14.3 1.32a21.19 21.19 0 0 1 -9.9-5.06 14.45 14.45 0 0 1 -4.5-8.68c-1.7-.38-3-.28-3.78.29a5.91 5.91 0 0 0 -1.87 3.57 10.41 10.41 0 0 0 0 4.12l-.2.86zm20.4-7a11.64 11.64 0 0 0 3.11 2.56 19.51 19.51 0 0 0 5.13 1.86 19.17 19.17 0 0 0 5.42.63 11.19 11.19 0 0 0 4-.86 6.76 6.76 0 0 0 2.64-2 7.44 7.44 0 0 0 1.31-2.77 7.34 7.34 0 0 0 .13-3 7.1 7.1 0 0 0 -1.44-3 10.76 10.76 0 0 0 -3.18-2.66 19.63 19.63 0 0 0 -5.18-1.94 19.4 19.4 0 0 0 -5.44-.64 11.31 11.31 0 0 0 -3.94.88 6.62 6.62 0 0 0 -2.66 2 7.33 7.33 0 0 0 -1.37 5.92 6.62 6.62 0 0 0 1.47 3.01z"/><path d="m30.55 265.36q.57-7.16 4.33-10.72t10.42-3l22.7 1.76-.71 8.91-22.16-1.76a9 9 0 0 0 -5.62.95q-1.92 1.25-2.17 4.4a5.56 5.56 0 0 0 1.38 4.65c1.08 1.05 2.91 1.68 5.47 1.89l22.15 1.76-.7 8.91-22.64-1.8q-6.57-.53-9.78-4.56t-2.67-11.39z"/><path d="m29.92 286.52 36.36 9.56.67 9.73-34.72 14.42-.63-9.18 7.1-2.71-.76-11.16-7.41-1.72zm15.08 19.42 11.48-4.42-12-2.83z"/><path d="m40 356.71-1.88-8.4 21.26-18.79-24.24 5.4-1.78-8 34.77-7.76 2.39 10.71-17.52 15.55 20-4.42 1.78 8z"/><path d="m45.63 372.89 26.95-10.23-3.73-9.83 6.35-2.42 10.64 28-6.35 2.41-3.73-9.82-27 10.24z"/><path d="m71.25 426-5.25-9.58 6.67-15-1.54-2.81-11.45 6.3-4.28-7.8 31.22-17.11 6.9 12.54a31.79 31.79 0 0 1 2.16 4.71 10.89 10.89 0 0 1 .6 4.3 8.61 8.61 0 0 1 -4.89 7.45 11.09 11.09 0 0 1 -6.71 1.58 12.94 12.94 0 0 1 -5.92-2.36zm14.75-24.54a4.9 4.9 0 0 0 1.78-1.56 3.43 3.43 0 0 0 .49-2.22 6.31 6.31 0 0 0 -.5-1.85c-.28-.63-.66-1.39-1.15-2.29l-1.44-2.61-8.41 4.62 1.23 2.24a18.37 18.37 0 0 0 1.73 2.66 4.68 4.68 0 0 0 1.91 1.47 4.11 4.11 0 0 0 2 .35 5.84 5.84 0 0 0 2.36-.81z"/><path d="m108.76 445.59q-6.83 5.3-13.57 4.69t-11.66-6.95q-4.93-6.33-3.79-13.06t7.87-11.92q6.8-5.27 13.54-4.7t11.69 6.93q4.93 6.35 3.83 13t-7.91 12.01zm-5.64-7.3a19.6 19.6 0 0 0 3.88-3.84 11.27 11.27 0 0 0 1.82-3.64 6.86 6.86 0 0 0 .07-3.33 7.55 7.55 0 0 0 -1.34-2.76 7.32 7.32 0 0 0 -2.3-2 7.09 7.09 0 0 0 -3.25-.72 11 11 0 0 0 -4 .85 22.88 22.88 0 0 0 -8.65 6.67 11.25 11.25 0 0 0 -1.78 3.62 6.74 6.74 0 0 0 -.07 3.36 7.59 7.59 0 0 0 1.34 2.77 7.23 7.23 0 0 0 2.42 2 6.56 6.56 0 0 0 3.24.73 11.7 11.7 0 0 0 3.95-.83 19.54 19.54 0 0 0 4.67-2.88z"/><path d="m123.17 483.62-6.31-5.85 6.79-27.54-16.87 18.23-6-5.55 24.22-26.16 8 7.45-5.53 22.69 13.86-15 6 5.55z"/><path d="m145.88 499.78-15.69-11 3.57-5.1 4.18 2.94 13.31-19-4.19-2.93 3.57-5.1 15.7 11-3.57 5.1-4.19-2.94-13.31 19 4.19 2.93z"/><path d="m166.37 512.23q-7.08-3.75-9-10.23t2.21-14.25q4-7.49 10.49-9.73t13.6 1.5a28.39 28.39 0 0 1 3.27 2 25.74 25.74 0 0 1 2.56 2.12 24.14 24.14 0 0 1 1.88 2.1c.66.82 1.17 1.5 1.55 2l-4 7.51-.81-.43c-.2-.54-.46-1.2-.79-2a21.37 21.37 0 0 0 -1.23-2.43 14.45 14.45 0 0 0 -1.81-2.43 9.33 9.33 0 0 0 -2.5-1.94 10.22 10.22 0 0 0 -3.43-1.12 8.44 8.44 0 0 0 -3.7.44 10.11 10.11 0 0 0 -3.66 2.23 16.12 16.12 0 0 0 -3.31 4.45 15.25 15.25 0 0 0 -1.83 5.35 10.06 10.06 0 0 0 .34 4.31 8.5 8.5 0 0 0 1.83 3.16 10.36 10.36 0 0 0 2.73 2.12 9.92 9.92 0 0 0 3.25 1.06 13.62 13.62 0 0 0 3 .11 18.42 18.42 0 0 0 2.56-.35c.78-.17 1.45-.32 2-.47l.71.38-3.91 7.41-2.37-.1a20.57 20.57 0 0 1 -2.81-.36 29.5 29.5 0 0 1 -3.12-.79 24.22 24.22 0 0 1 -3.7-1.62z"/><path d="m216.28 531-18.28-5.7 1.85-5.93 4.88 1.52 6.9-22.14-4.88-1.52 1.85-5.94 18.3 5.7-1.9 5.94-4.89-1.52-6.89 22.13 4.88 1.52z"/><path d="m254.83 538.52-8.49-1.44-9.34-26.78-4.15 24.49-8.06-1.37 6-35.12 10.82 1.83 7.78 22 3.33-20.13 8.06 1.37z"/><path d="m272.1 539.32.53-28.82-10.52-.2.13-6.79 30 .55-.12 6.79-10.52-.19-.6 28.83z"/><path d="m298.07 539.13-4.07-35.4 23.94-2.73.77 6.75-15.08 1.72.71 6.2 13.89-1.58.77 6.75-13.89 1.59 1 8.93 15.08-1.72.77 6.75z"/><path d="m362.78 526.45-10.54 2.77-12.91-10.12-3.09.81 3.31 12.64-8.6 2.26-9-34.46 13.84-3.64a31.27 31.27 0 0 1 5.09-.95 11 11 0 0 1 4.32.46 9.38 9.38 0 0 1 3.72 2.23 9.09 9.09 0 0 1 2.3 4.33 11 11 0 0 1 -.09 6.89 13 13 0 0 1 -3.73 5.17zm-20.19-20.25a4.85 4.85 0 0 0 -1.08-2.11 3.45 3.45 0 0 0 -2-1 5.93 5.93 0 0 0 -1.92 0c-.68.11-1.51.29-2.5.55l-2.89.76 2.44 9.28 2.47-.65a18.41 18.41 0 0 0 3-1 4.75 4.75 0 0 0 1.89-1.5 4.18 4.18 0 0 0 .83-1.88 6 6 0 0 0 -.24-2.45z"/><path d="m381.47 479.69 2.76 37.57-8.57 3.66-25.26-27.92 8.53-3.65 16.61 19.16-2.37-25.25z"/><path d="m400.86 509.29-18.28-30.58 20.66-12.35 3.49 5.83-13 7.79 3.21 5.36 12-7.17 3.48 5.83-12 7.17 4.62 7.72 13-7.78 3.49 5.83z"/><path d="m452.79 472.59-6.67 5.41-26.31-10.6 15.66 19.27-6.34 5.16-22.47-27.64 8.51-6.92 21.68 8.67-12.85-15.84 6.34-5.15z"/><path d="m464.74 460.29-21.2-19.53-7.13 7.73-5-4.6 20.31-22 5 4.6-7.13 7.73 21.21 19.54z"/><path d="m492 426.69-11.3 15.48-5-3.67 3-4.13-18.77-13.67-3 4.13-5-3.67 11.3-15.48 5 3.67-3 4.13 18.72 13.67 3-4.13z"/><path d="m496.9 382.54q7.58 4.15 9.7 10.57t-1.73 13.47q-3.87 7.07-10.46 8.68t-14.08-2.47q-7.53-4.12-9.7-10.55t1.69-13.48q3.87-7 10.43-8.71t14.15 2.49zm-4.45 8.08a19.81 19.81 0 0 0 -5.07-2 11.31 11.31 0 0 0 -4.07-.22 6.86 6.86 0 0 0 -3.08 1.27 7.45 7.45 0 0 0 -2 2.33 7.54 7.54 0 0 0 -.92 2.9 7.18 7.18 0 0 0 .6 3.27 10.74 10.74 0 0 0 2.38 3.33 19.4 19.4 0 0 0 4.47 3.23 19.64 19.64 0 0 0 5.09 2.05 11.19 11.19 0 0 0 4 .19 6.76 6.76 0 0 0 3.11-1.27 7.6 7.6 0 0 0 2-2.34 7.34 7.34 0 0 0 .87-3 6.81 6.81 0 0 0 -.63-3.26 11.6 11.6 0 0 0 -2.33-3.29 19.28 19.28 0 0 0 -4.42-3.19z"/><path d="m526.21 354.38-2.91 8.1-28 4.52 23.38 8.39-2.76 7.69-33.53-12 3.7-10.32 23.05-3.79-19.22-6.97 2.76-7.69z"/><path d="m534.89 314.78q-.93 7.11-4.87 10.48t-10.57 2.5l-22.56-3 1.17-8.86 22 2.89a9 9 0 0 0 5.66-.66c1.32-.77 2.12-2.19 2.4-4.28a5.57 5.57 0 0 0 -1.15-4.72c-1-1.1-2.81-1.83-5.36-2.16l-22-2.9 1.17-8.86 22.53 3q6.53.85 9.54 5.05t2.04 11.52z"/><path d="m535.88 259.17.22 8.6-24.48 14.36 24.83-.64.21 8.17-35.61.92-.29-11 20.11-11.87-20.4.52-.21-8.17z"/><path d="m531.75 231.73 3 18.93-6.14 1-.79-5-22.91 3.6.8 5-6.15 1-3-18.94 6.15-1 .79 5 22.91-3.6-.8-5.06z"/><path d="m528.25 216.93-27.79 7.68 2.8 10.14-6.55 1.81-8-28.89 6.55-1.81 2.82 10.14 27.78-7.69z"/></g></svg>