<?xml version="1.0" encoding="UTF-8"?><svg id="Capa_1" xmlns="http://www.w3.org/2000/svg" viewBox="0 0 566.93 566.93"><defs><style>.cls-1{fill:#f6f6f6;}.cls-2{fill:#ef7e00;}.cls-3{fill:#1d1d1b;}</style></defs><path class="cls-2" d="m283.73,566.15c-153.92.21-279.76-124.78-279.47-278.96C4.54,128.09,133.82,7.53,283.07,7.73c154.76.21,279.6,124.55,279.61,279.19.01,154.33-124.56,279.03-278.95,279.24Z"/><g><path class="cls-1" d="m283.71,553.78c-147.1.2-267.36-119.25-267.09-266.59C16.91,135.13,140.45,19.91,283.09,20.1c147.9.2,267.2,119.03,267.22,266.81.01,147.49-119.04,266.66-266.59,266.86Z"/><path class="cls-1" d="m283.33,559.77c-72.86,0-141.39-28.43-193.02-80.08-51.51-51.53-79.8-119.9-79.67-192.51.14-74.21,29.13-143.42,81.64-194.9,25.13-24.64,54.32-43.96,86.74-57.43,33.21-13.8,68.28-20.76,104.07-20.73,73.16.1,141.8,28.44,193.29,79.81,51.52,51.41,79.9,119.94,79.91,192.98,0,72.93-28.3,141.43-79.71,192.89-51.41,51.46-119.9,79.86-192.86,79.96h-.39Zm-.61-533.68C139.52,26.09,22.88,143.14,22.61,287.2c-.13,69.4,26.92,134.76,76.16,184.02,49.37,49.39,114.9,76.57,184.56,76.57h.37c143.71-.2,260.62-117.23,260.61-260.88-.01-143.62-117.2-260.63-261.24-260.83h-.36Z"/></g><g><path class="cls-3" d="m65.9,179.76c3.99,1.65,4.67,5.65,2.04,11.99l-7.54,18.23c-.41.99-1.12,1.27-2.12.85l-20.32-8.41c-.99-.41-1.28-1.11-.87-2.09l7.54-18.23c2.62-6.34,5.93-8.69,9.92-7.04l11.35,4.7Zm-7.82,25.99l6.33-15.31c.78-1.89,1.1-3.37.97-4.44-.13-1.07-.54-1.75-1.23-2.03l-11.35-4.7c-.71-.29-1.48-.1-2.32.56-.84.67-1.65,1.95-2.43,3.83l-6.33,15.31,16.37,6.77Z"/><path class="cls-3" d="m58.62,154.71c.34-.58.71-1,1.11-1.26.4-.26.84-.41,1.32-.45l26.35-2.04c.3,0,.57.06.81.2.22.13.39.32.51.57.12.25.19.52.21.81.02.29-.01.59-.09.9-.07.31-.19.59-.34.85-.17.28-.36.5-.58.67-.22.17-.49.26-.8.29l-7.24.49-9.85,16.65,3.18,6.37c.14.27.18.55.14.83-.05.28-.15.55-.3.81-.14.24-.33.47-.56.68-.23.21-.49.38-.76.5s-.54.19-.81.21c-.27.02-.52-.04-.76-.19-.2-.12-.38-.32-.54-.6l-11.36-23.3c-.21-.42-.29-.87-.25-1.36.04-.49.24-1.03.6-1.63Zm9.41,13.69l7.32-12.37-13.07.84,5.75,11.53Z"/><path class="cls-3" d="m84.27,142.2l3.2,2.52c.58.46,1.37.49,2.36.09s2.12-1.4,3.39-3l10.31-13.06c.34-.44.69-.63,1.05-.57s.78.28,1.27.67c.47.37.78.73.93,1.07.15.34.05.73-.3,1.16l-10.39,13.17c-4.25,5.39-8.08,6.75-11.46,4.08l-9.64-7.61c-3.39-2.67-2.95-6.71,1.3-12.1l3.21-4.07c.33-.42.67-.6,1.03-.54.35.06.78.28,1.27.67.49.39.81.75.94,1.08.14.33.04.71-.29,1.12l-3.13,3.96c-1.26,1.6-1.98,2.93-2.14,3.98-.17,1.05.05,1.82.65,2.29l3.5,2.76,13.99-17.73c.35-.44.69-.63,1.05-.57.35.06.78.28,1.27.67.49.39.81.75.94,1.08.14.33.03.71-.31,1.15l-13.99,17.73Z"/><path class="cls-3" d="m119.64,85.16c-.03-.58.07-1.08.27-1.53.21-.44.52-.85.93-1.23,1.26-1.16,2.43-1.16,3.5,0l14.42,15.67c.46.5.61.95.46,1.37-.15.42-.5.89-1.07,1.41-.56.52-1.06.83-1.49.95-.43.11-.88-.08-1.33-.57l-11.17-12.14,1.17,21.77c.02.61-.05,1.13-.21,1.57-.17.44-.47.86-.91,1.27-.5.46-.98.76-1.45.91-.47.15-1.01.18-1.59.09l-21.62-2.94,11.17,12.14c.46.5.61.95.46,1.37-.15.42-.5.89-1.07,1.41-.55.5-1.04.81-1.47.92-.43.11-.88-.08-1.33-.57l-14.42-15.67c-1.07-1.16-.98-2.32.27-3.46.84-.77,1.79-1.09,2.85-.97l24.86,3.37-1.2-25.15Z"/><path class="cls-3" d="m150.31,92.64c-5.74,3.76-9.8,3.84-12.16.23l-6.73-10.27c-2.37-3.61-.68-7.3,5.07-11.06l8.47-5.55c5.74-3.76,9.8-3.84,12.16-.23l6.73,10.27c2.37,3.61.68,7.3-5.07,11.06l-8.47,5.55Zm6.29-8.62c1.71-1.12,2.8-2.16,3.29-3.11s.52-1.74.12-2.36l-6.73-10.27c-.42-.64-1.16-.92-2.22-.85-1.06.07-2.45.67-4.15,1.79l-8.24,5.4c-1.71,1.12-2.81,2.15-3.3,3.1-.49.95-.53,1.74-.11,2.38l6.73,10.27c.41.62,1.14.9,2.21.84,1.07-.06,2.46-.65,4.16-1.77l8.24-5.4Z"/><path class="cls-3" d="m195.61,68.15c-.29.14-.54.24-.74.31-.2.07-.4.1-.61.09-.21,0-.44-.03-.69-.08-.25-.05-.57-.12-.95-.23l-27.34-7.31,7.56,16.1c.29.61.29,1.09.03,1.45-.27.36-.75.7-1.44,1.02-.67.32-1.23.46-1.68.44-.45-.02-.81-.34-1.1-.95l-9.45-20.13c-.28-.59-.29-1.06-.05-1.42s.69-.69,1.34-.99c.69-.33,1.28-.49,1.76-.5.48,0,1.06.08,1.74.28l27.03,7.38-7.57-16.13c-.29-.61-.3-1.09-.03-1.45.27-.36.74-.69,1.41-1.01.69-.33,1.26-.48,1.71-.46.45.02.81.34,1.1.95l9.45,20.13c.29.61.29,1.09.03,1.45-.27.36-.77.71-1.5,1.05Z"/><path class="cls-3" d="m204.32,63.5c.23.63.2,1.11-.1,1.45-.3.33-.81.63-1.53.89-.7.25-1.27.35-1.71.29-.44-.06-.78-.41-1.01-1.04l-7.63-20.89c-.23-.63-.2-1.11.1-1.44.3-.33.8-.62,1.49-.88.72-.26,1.3-.36,1.74-.3.44.06.78.41,1.01,1.04l7.63,20.89Z"/><path class="cls-3" d="m213.93,50.46c-6.62,1.83-10.5.66-11.65-3.5l-.36-1.31c-1.15-4.16,1.59-7.15,8.21-8.98l3.35-.93c.54-.15.93-.09,1.18.16.25.25.46.68.63,1.29.17.6.21,1.08.12,1.43-.08.35-.4.6-.93.74l-3.46.95c-1.97.54-3.29,1.18-3.97,1.91-.68.73-.91,1.46-.71,2.2l.36,1.31c.2.72.77,1.22,1.73,1.51s2.42.16,4.39-.38l7.92-2.19c6.62-1.83,10.5-.66,11.65,3.5l.46,1.68c1.15,4.16-1.59,7.15-8.21,8.98l-16.44,4.54c-.54.15-.93.09-1.18-.16-.25-.26-.46-.69-.63-1.29-.17-.6-.21-1.08-.12-1.43.08-.35.4-.6.93-.74l16.54-4.57c1.97-.54,3.29-1.18,3.97-1.91.68-.73.91-1.46.71-2.2l-.46-1.68c-.2-.72-.78-1.22-1.73-1.51-.96-.29-2.42-.16-4.39.38l-7.92,2.19Z"/><path class="cls-3" d="m240.03,33.65l3.53,19.66c.12.66,0,1.13-.35,1.41-.35.28-.9.48-1.66.62-.73.13-1.31.13-1.73,0-.43-.14-.7-.53-.82-1.2l-3.53-19.66-10.31,1.85c-.55.1-.94,0-1.16-.27s-.4-.72-.51-1.34c-.11-.62-.11-1.09,0-1.43.12-.34.45-.56,1-.66l25.21-4.53c.55-.1.94,0,1.16.27s.4.72.51,1.34c.11.62.11,1.09,0,1.43-.12.34-.45.56-1,.66l-10.34,1.86Z"/><path class="cls-3" d="m278.58,51.39c-6.87-.11-10.26-2.32-10.19-6.64l.2-12.28c.07-4.31,3.54-6.42,10.4-6.3l10.13.16c6.87.11,10.26,2.32,10.19,6.64l-.2,12.28c-.07,4.31-3.54,6.42-10.4,6.3l-10.13-.16Zm10.05-3.6c2.04.03,3.53-.21,4.47-.73.94-.52,1.41-1.15,1.42-1.89l.2-12.28c.01-.77-.44-1.42-1.36-1.95-.92-.54-2.4-.82-4.44-.85l-9.85-.16c-2.04-.03-3.53.2-4.47.71-.94.51-1.41,1.14-1.42,1.91l-.2,12.28c-.01.74.44,1.39,1.36,1.94.92.55,2.4.84,4.44.87l9.85.16Z"/><path class="cls-3" d="m333.44,48.88c-.21,1.47-.67,2.63-1.38,3.48-.72.85-1.58,1.46-2.6,1.85-1.02.38-2.15.59-3.41.61-1.26.02-2.52-.05-3.78-.23l-19.47-2.73c-1.06-.15-1.51-.76-1.36-1.84l3.05-21.78c.15-1.06.75-1.51,1.81-1.36l19.2,2.69c1.49.21,2.85.5,4.06.88,1.21.38,2.23.9,3.05,1.57.82.67,1.41,1.49,1.78,2.48.37.99.45,2.21.24,3.65-.17,1.22-.54,2.24-1.12,3.08-.57.83-1.51,1.46-2.81,1.89,1,.54,1.76,1.25,2.28,2.13.52.88.67,2.09.46,3.63Zm-4.71-.52c.09-.67.1-1.24.03-1.72-.07-.48-.3-.9-.67-1.25s-.92-.65-1.65-.88c-.73-.23-1.69-.43-2.89-.6l-16.27-2.28-.97,6.93,16.75,2.35c1.13.16,2.04.22,2.75.19.71-.03,1.26-.15,1.67-.36.4-.21.69-.52.87-.92.17-.4.3-.88.38-1.46Zm-20.81-10.47l16.4,2.3c1.03.14,1.9.22,2.6.22s1.28-.08,1.74-.27c.46-.18.81-.48,1.04-.91.23-.42.4-1,.51-1.74.08-.6.09-1.12.01-1.58s-.29-.85-.63-1.18c-.34-.33-.85-.6-1.52-.83-.67-.22-1.55-.41-2.63-.56l-16.58-2.32-.96,6.86Z"/><path class="cls-3" d="m346.53,48.67c-6.61-1.86-9.33-4.87-8.16-9.02l.37-1.31c1.17-4.15,5.06-5.3,11.67-3.44l3.35.94c.54.15.85.4.93.75.08.35.04.82-.13,1.43-.17.6-.38,1.03-.63,1.29-.25.25-.65.31-1.18.16l-3.45-.97c-1.97-.55-3.43-.69-4.38-.42-.96.27-1.54.78-1.75,1.52l-.37,1.31c-.2.71.03,1.44.7,2.19.67.74,1.99,1.39,3.95,1.94l7.91,2.22c6.61,1.86,9.33,4.87,8.16,9.02l-.47,1.67c-1.17,4.15-5.06,5.3-11.67,3.44l-16.41-4.62c-.54-.15-.85-.4-.93-.75-.08-.35-.04-.82.13-1.43.17-.6.38-1.03.63-1.29.25-.25.65-.31,1.18-.16l16.52,4.65c1.96.55,3.43.69,4.38.42.96-.27,1.54-.78,1.75-1.52l.47-1.67c.2-.71-.03-1.44-.7-2.19-.67-.74-1.99-1.39-3.95-1.94l-7.91-2.22Z"/><path class="cls-3" d="m371.12,56.81l-1.6,3.75c-.29.68-.12,1.45.53,2.31.64.86,1.9,1.68,3.78,2.48l15.3,6.53c.51.22.79.51.82.86s-.07.82-.31,1.4c-.24.56-.5.95-.79,1.18s-.69.24-1.2.02l-15.43-6.58c-6.32-2.7-8.63-6.03-6.93-10l4.82-11.3c1.69-3.97,5.7-4.61,12.01-1.91l4.77,2.04c.49.21.75.49.79.85s-.07.82-.31,1.4c-.25.58-.51.97-.79,1.19-.28.22-.67.22-1.16.02l-4.64-1.98c-1.88-.8-3.35-1.14-4.4-1.03-1.06.12-1.74.53-2.04,1.23l-1.75,4.1,20.77,8.87c.51.22.79.51.82.86s-.07.82-.31,1.4c-.25.58-.51.97-.79,1.19-.28.22-.68.22-1.19,0l-20.77-8.87Z"/><path class="cls-3" d="m402.97,56.48c.55-.92,1.29-1.09,2.23-.53l16.78,10.04c1.35.81,2.5,1.65,3.45,2.53.95.88,1.68,1.75,2.18,2.62.51.87.79,1.73.84,2.57s-.14,1.63-.58,2.37l-2.25,3.76c-.44.74-1.04,1.28-1.81,1.64-.77.35-1.65.51-2.66.48-1.01-.03-2.12-.26-3.34-.68-1.22-.42-2.51-1.04-3.86-1.84l-1.19-.71c-.88-.52-1.64-.98-2.28-1.37-.65-.39-1.22-.73-1.71-1.04-.49-.31-.93-.59-1.32-.85-.39-.26-.76-.51-1.13-.76l-.04.06c.25.31.52.64.81.99.29.35.65.79,1.06,1.31s.92,1.16,1.51,1.92c.59.76,1.31,1.7,2.17,2.84l5.46,7.2c.48.64.53,1.28.15,1.92-.32.54-.72.8-1.18.79s-1.03-.21-1.69-.6c-.14-.08-.31-.19-.51-.33-.2-.14-.41-.28-.61-.44-.2-.16-.39-.33-.57-.5s-.32-.36-.42-.55l-12.95-18.01-3.93,6.57c-.35.58-.74.85-1.19.83-.45-.02-1-.23-1.65-.62-.64-.38-1.07-.76-1.3-1.14-.23-.38-.17-.86.17-1.44l11.36-19Zm2.86,4.23l-4.22,7.05,13.86,8.29c1.02.61,1.89,1.06,2.61,1.36.73.3,1.34.48,1.84.55.5.07.9.04,1.19-.1.3-.13.53-.34.69-.62l1.93-3.23c.15-.26.22-.55.21-.89-.02-.33-.17-.71-.47-1.11-.3-.41-.75-.86-1.36-1.36-.61-.5-1.42-1.05-2.43-1.66l-13.86-8.29Z"/><path class="cls-3" d="m431.7,104.17c-.52-.42-.88-.85-1.09-1.29s-.29-.89-.25-1.37l1.75-26.46c.05-.35.14-.62.29-.8.16-.2.37-.33.64-.4.26-.07.56-.09.87-.05.32.03.63.11.93.24.3.13.57.28.8.47.23.19.44.43.61.72.17.29.25.59.23.9l-1.82,24.56,23.55-6.93c.54-.19,1.09-.06,1.65.4.23.19.44.42.61.68.18.26.31.54.4.84.09.29.13.58.11.85-.01.27-.11.52-.28.73-.18.22-.41.36-.7.42l-25.39,7.27c-.46.13-.93.14-1.41.02-.47-.12-.97-.39-1.49-.81Z"/><path class="cls-3" d="m470.55,105.25c.47.48.78.95.92,1.41.15.45.18.92.09,1.39l-5,25.96c-.07.29-.21.54-.41.73-.18.18-.41.29-.68.35-.27.05-.55.05-.84-.01-.29-.06-.57-.17-.84-.32-.28-.15-.52-.34-.73-.55-.23-.23-.39-.48-.49-.73-.1-.26-.13-.54-.07-.85l1.44-7.11-13.46-13.9-6.99,1.39c-.3.06-.58.03-.84-.09-.26-.12-.5-.29-.71-.5-.19-.2-.36-.44-.5-.72-.14-.28-.24-.57-.28-.87s-.04-.58.01-.84c.05-.26.18-.49.38-.68.17-.16.41-.28.72-.36l25.48-4.8c.46-.09.92-.05,1.38.12.46.17.93.51,1.41,1.01Zm-15.69,5.46l10,10.33,2.64-12.83-12.64,2.5Z"/><path class="cls-3" d="m482.47,160.6c-.19-.26-.34-.49-.44-.67-.1-.18-.17-.38-.2-.58-.03-.21-.05-.44-.05-.69,0-.26.02-.58.05-.98l2.18-28.22-14.44,10.38c-.55.39-1.02.49-1.42.29-.4-.2-.82-.61-1.27-1.23-.43-.6-.68-1.12-.74-1.57-.06-.44.18-.86.73-1.25l18.06-12.98c.53-.38.99-.48,1.38-.31.4.17.8.55,1.22,1.13.45.62.72,1.17.82,1.64.1.47.11,1.06.05,1.77l-2.31,27.92,14.47-10.4c.55-.39,1.02-.49,1.42-.29s.82.6,1.25,1.2c.45.62.7,1.15.76,1.6s-.18.86-.73,1.25l-18.06,12.98c-.55.39-1.02.49-1.42.29-.4-.2-.84-.63-1.31-1.29Z"/><path class="cls-3" d="m511.29,168.03l-17.62,9.42c-.59.32-1.08.35-1.44.1-.37-.25-.74-.71-1.1-1.39-.35-.65-.53-1.21-.53-1.65,0-.45.29-.83.89-1.14l17.62-9.42-4.94-9.24c-.26-.49-.3-.89-.1-1.19.19-.3.57-.6,1.12-.89.55-.3,1.01-.44,1.37-.43s.67.25.93.75l12.07,22.59c.26.49.3.89.1,1.19-.19.3-.57.6-1.12.89-.55.29-1.01.44-1.37.43s-.67-.25-.93-.75l-4.95-9.27Z"/><path class="cls-3" d="m512.2,195.11c-2.46-6.41-1.67-10.39,2.36-11.93l1.27-.49c4.03-1.54,7.27.89,9.73,7.3l1.25,3.25c.2.52.18.92-.05,1.19-.23.27-.64.52-1.22.75-.58.22-1.05.31-1.41.26-.35-.05-.63-.34-.83-.86l-1.28-3.35c-.73-1.91-1.49-3.16-2.28-3.76-.79-.6-1.54-.77-2.26-.5l-1.27.49c-.69.27-1.14.89-1.33,1.87-.2.98.07,2.43.8,4.33l2.94,7.67c2.46,6.41,1.67,10.39-2.36,11.94l-1.62.62c-4.03,1.54-7.27-.89-9.73-7.3l-6.1-15.92c-.2-.52-.18-.92.05-1.19.23-.27.64-.52,1.22-.75.58-.22,1.05-.31,1.41-.26.35.05.63.33.83.86l6.14,16.02c.73,1.91,1.49,3.16,2.28,3.77.79.6,1.54.77,2.26.5l1.62-.62c.69-.27,1.14-.89,1.33-1.87.19-.98-.07-2.43-.8-4.33l-2.94-7.67Z"/></g><g><path class="cls-3" d="m218.72,528.57c-.47,1.41-1.14,2.46-2,3.16-.86.7-1.83,1.15-2.89,1.34-1.07.19-2.22.18-3.46-.03-1.24-.21-2.46-.52-3.67-.93l-18.63-6.29c-1.01-.34-1.34-1.03-.99-2.06l7.04-20.84c.34-1.01,1.02-1.35,2.03-1l18.37,6.2c1.43.48,2.7,1.02,3.82,1.62,1.12.6,2.02,1.3,2.7,2.11.68.81,1.11,1.73,1.29,2.77.18,1.04.03,2.25-.44,3.63-.39,1.17-.95,2.1-1.67,2.82-.72.71-1.76,1.16-3.11,1.34.88.71,1.5,1.55,1.85,2.52.35.96.27,2.18-.22,3.65Zm-4.53-1.38c.22-.64.33-1.2.35-1.68.02-.48-.12-.93-.42-1.36-.3-.42-.79-.81-1.46-1.17-.67-.36-1.58-.74-2.72-1.12l-15.56-5.26-2.24,6.63,16.02,5.41c1.08.36,1.96.6,2.67.7.7.1,1.27.09,1.71-.05.44-.13.78-.38,1.02-.74.24-.36.46-.81.64-1.36Zm-18.51-14.15l15.69,5.3c.99.33,1.83.57,2.52.7.69.13,1.28.16,1.76.06.48-.09.88-.33,1.19-.7.31-.37.58-.91.82-1.61.19-.57.29-1.09.3-1.55,0-.46-.12-.89-.4-1.27-.27-.39-.72-.75-1.34-1.09-.62-.34-1.44-.69-2.48-1.04l-15.86-5.36-2.22,6.56Z"/><path class="cls-3" d="m240.16,514.32c.66.12,1.18.33,1.57.61.38.28.68.65.88,1.08l10.93,24.07c.11.28.14.56.09.83-.05.25-.17.48-.36.68-.19.2-.42.36-.69.47-.27.12-.56.19-.88.23-.31.03-.62.02-.92-.03-.32-.06-.59-.17-.83-.31-.23-.15-.42-.37-.55-.65l-2.94-6.64-19.02-3.56-4.9,5.17c-.21.22-.45.36-.73.41-.28.05-.57.05-.87,0-.27-.05-.55-.15-.83-.3-.28-.15-.52-.33-.73-.54-.21-.22-.36-.45-.47-.69-.11-.24-.14-.5-.09-.78.04-.23.17-.46.38-.71l18.01-18.65c.32-.34.72-.57,1.19-.7.47-.12,1.05-.12,1.73,0Zm-9.65,13.52l14.13,2.65-5.26-12-8.87,9.35Z"/><path class="cls-3" d="m262.8,528.01l18.8-8.97c.33-.17.69-.28,1.08-.33.39-.05.97-.06,1.76-.02.51.02.94.18,1.3.46.36.29.52.69.5,1.23-.03.69-.43,1.21-1.19,1.54l-19.02,8.44,18.71,10.67c.72.41,1.07.96,1.03,1.65-.03.53-.23.92-.61,1.17-.38.25-.83.36-1.34.33-.79-.04-1.37-.1-1.75-.19-.38-.09-.73-.23-1.04-.43l-18.45-10.97-.44,8.9c-.03.67-.25,1.1-.66,1.29-.4.19-.99.27-1.75.23-.74-.04-1.3-.17-1.69-.4-.38-.23-.56-.68-.53-1.35l1.09-22.21c.03-.67.25-1.1.66-1.29.4-.19.98-.26,1.72-.23.77.04,1.34.17,1.72.4.38.23.56.68.53,1.35l-.43,8.72Z"/><path class="cls-3" d="m299.54,543.32c-6.84.56-10.44-1.3-10.8-5.6l-1.42-17.2c-.06-.67.1-1.13.48-1.37.38-.24.93-.39,1.67-.45.76-.06,1.35,0,1.76.17.41.18.64.6.7,1.27l1.42,17.2c.06.74.57,1.34,1.53,1.79.96.46,2.45.6,4.49.43l10.41-.86c2.03-.17,3.49-.56,4.36-1.16.87-.61,1.27-1.28,1.21-2.02l-1.42-17.2c-.06-.67.1-1.13.48-1.37s.95-.39,1.71-.45c.74-.06,1.31,0,1.73.17.41.18.64.6.7,1.27l1.42,17.2c.35,4.3-2.89,6.73-9.74,7.3l-10.68.88Z"/><path class="cls-3" d="m354.08,534.41c-.32.07-.58.12-.79.14-.21.03-.41.01-.62-.04-.2-.05-.42-.12-.66-.22-.24-.1-.53-.24-.88-.42l-25.18-12.92,3.98,17.33c.15.66.06,1.13-.28,1.42-.34.29-.88.52-1.63.7-.72.17-1.3.19-1.73.08-.43-.12-.72-.5-.87-1.16l-4.98-21.67c-.15-.63-.06-1.1.25-1.4.31-.3.82-.53,1.52-.69.75-.17,1.36-.21,1.83-.12.47.09,1.02.31,1.65.64l24.86,12.92-3.99-17.36c-.15-.66-.06-1.13.28-1.42.34-.29.87-.52,1.59-.69.75-.17,1.33-.2,1.77-.08.43.12.72.5.87,1.16l4.98,21.67c.15.66.06,1.13-.28,1.42-.34.29-.9.53-1.69.71Z"/><path class="cls-3" d="m364.64,529.06c.21.64.16,1.12-.15,1.44-.31.32-.83.6-1.56.84-.71.23-1.28.31-1.72.23-.44-.08-.76-.43-.97-1.07l-6.89-21.14c-.21-.64-.16-1.12.15-1.44.31-.32.82-.6,1.52-.83.73-.24,1.31-.32,1.75-.24.44.08.76.43.97,1.07l6.89,21.14Z"/><path class="cls-3" d="m396.4,518.14c-.3.13-.55.22-.75.28-.2.06-.41.08-.61.07-.21-.01-.44-.05-.69-.1-.25-.06-.56-.14-.94-.26l-27.07-8.27,6.98,16.35c.26.62.26,1.1-.03,1.45-.28.35-.77.67-1.48.97-.68.29-1.25.42-1.69.38-.44-.04-.8-.36-1.06-.98l-8.73-20.45c-.25-.6-.26-1.07,0-1.42.25-.35.71-.66,1.38-.95.7-.3,1.3-.45,1.78-.44.48,0,1.06.12,1.73.34l26.75,8.33-7-16.39c-.26-.62-.26-1.1.02-1.45.28-.35.76-.67,1.45-.96.7-.3,1.28-.43,1.72-.4.44.04.8.37,1.06.98l8.73,20.45c.26.62.25,1.1-.03,1.45-.28.35-.79.68-1.54,1Z"/></g><g><g><path class="cls-2" d="m245.83,434.23h-99.87l33.42-53.77.74-1.18,4.76-7.67,11.2-17.99-34.58-56.03,34.81-58.96-16.25-26.12-34.1-54.87h98.18l40.19-68.07,39.61,68.07h97.01l-33.73,54.88-16.09,26.17,34.26,58.89-34.04,55.96,49.6,80.69h-98.68l-37.94,62.38-38.5-62.38Zm-19.77-138.29l58.2,93.59,57.54-93.59-57.54-93.61-58.2,93.61Z"/><path class="cls-1" d="m284.32,94.52l36.74,63.14,1.45,2.49h93.97l-31.39,51.07-15.31,24.9-1.57,2.55,1.5,2.59,32.76,56.31-32.47,53.38-1.59,2.61,1.6,2.6,15.02,24.43,31.44,51.15h-95.61l-1.46,2.4-35.09,57.7-35.62-57.72-1.47-2.37h-96.76l30.31-48.77h.01l1.47-2.36,4.76-7.66,10.38-16.68,1.64-2.63-1.63-2.64-32.97-53.43,33.28-56.35,1.54-2.61-1.6-2.57-15.45-24.83-31.73-51.05h95.11l1.45-2.46,37.29-63.16m-.04,299.77l4.24-6.89,54.62-88.84,1.61-2.62-1.61-2.62-54.62-88.86-4.24-6.89-4.27,6.87-55.24,88.86-1.64,2.64,1.64,2.64,55.24,88.84,4.27,6.87m.08-309.66l-41.63,70.51h-101.25l36.48,58.69,15.45,24.83-34.81,58.95,34.56,56-10.38,16.68-4.76,7.67h-.01l-36.53,58.77h102.97l39.91,64.67,39.33-64.67h101.74l-36.12-58.77-15.02-24.43,32.63-53.64,1.39-2.28-1.35-2.32-32.91-56.56,15.31-24.9,36.07-58.69h-100.04l-41.03-70.51h0Zm-.1,300.15l-55.24-88.84,55.24-88.86,54.62,88.86-54.62,88.84h0Z"/></g><g><polygon class="cls-3" points="338.87 295.94 284.25 384.78 229.01 295.94 284.25 207.08 338.87 295.94"/><path class="cls-1" d="m284.25,385.73l-55.83-89.79,55.83-89.81,55.2,89.81-.16.26-55.04,89.53Zm-54.65-89.79l54.65,87.89,54.04-87.89-54.04-87.91-54.65,87.91Z"/></g><g><polygon class="cls-3" points="158.59 297.61 193.15 353.61 178 377.96 131.24 377.96 57.38 298.34 131.01 213.83 177.95 213.83 193.4 238.66 158.59 297.61"/><path class="cls-1" d="m178.28,378.46h-47.26l-74.31-80.11,74.07-85.02h47.45l15.75,25.33-34.81,58.95,34.56,56.01-15.45,24.86Zm-46.83-1h46.27l14.83-23.86-34.55-55.99,34.81-58.95-15.14-24.34h-46.44l-73.18,84,73.4,79.13Z"/></g><g><polygon class="cls-3" points="408.32 297.61 373.76 353.61 388.9 377.96 435.67 377.96 509.53 298.34 435.9 213.83 388.96 213.83 373.51 238.66 408.32 297.61"/><path class="cls-1" d="m435.89,378.46h-47.26l-15.45-24.86.16-.26,34.4-55.74-34.81-58.95,15.75-25.33h47.45l.15.17,73.92,84.85-.31.33-74.01,79.78Zm-46.71-1h46.27l73.4-79.13-73.18-84h-46.44l-15.14,24.34,34.81,58.95-34.55,55.99,14.83,23.86Z"/></g></g></svg>