<svg enable-background="new 0 0 113.4 113.4" viewBox="0 0 113.4 113.4" xmlns="http://www.w3.org/2000/svg"><circle cx="56.7" cy="56.7" fill="#fff" r="56.7"/><circle cx="56.7" cy="55.2" fill="#fff" r="53.3"/><path d="m49.3 90.4c2.4-20.3 4.9-40.6 7.3-60.8h.2c2.4 20.2 4.8 40.4 7.3 60.7 6.1-1.1 11.7-3.3 16.7-6.8 10-7 16-16.6 18-28.7 3.2-20.3-9.2-40.3-29-46.7-.8-.3-1.6-.6-2.4-1-1-.5-1.4-1.6-1.1-2.7s.9-1.5 2.3-1.3c3.2.5 6.3 1.5 9.3 2.8 17.8 7.8 28.9 21.2 32.9 40.2 6.1 29.4-13.5 58.6-42.8 64.5-29.1 5.9-57.1-11.9-64.5-40-7.9-29.7 10.4-60.4 40.4-67.5 2.4-.6 3.6.3 3.3 2.3-.1.8-.6 1.3-1.3 1.7-1.4.7-2.9 1.1-4.3 1.7-14.8 6.1-23.9 17-26.7 32.8-4 22.6 11.3 44.4 33.7 48.6.1 0 .3.1.7.2z" fill="#050302"/><path d="m56.6 22.7c-.6-2.6-1.1-5.2-1.7-7.8-.7-3.1-1.3-6.1-2-9.2-.6-2.5.6-4.1 3.2-4.1h1.4c2.3.1 3.5 1.5 3.1 3.7-1.2 5.7-2.5 11.5-3.7 17.2-.1.1-.2.1-.3.2z" fill="#0c0807"/></svg>