<svg enable-background="new 0 0 113.4 113.4" viewBox="0 0 113.4 113.4" xmlns="http://www.w3.org/2000/svg"><circle cx="56.7" cy="56.7" fill="#fff" r="56.7"/><circle cx="56.7" cy="55.1" fill="#fff" r="53.7"/><path d="m112.2 56.6c0 26.4-18.7 49.2-44.6 54.3-29.9 5.9-58.9-13.3-65.1-43-6.1-29.5 12.2-58.4 41.6-65.4 1.8-.4 2.7-.1 3 1.1.4 1.3-.1 2.4-1.6 3.1-1.7.7-3.4 1.2-5.1 2-14.6 6.5-23.4 17.5-26 33.3-3.7 22.3 11.8 43.9 34 48.3 22.1 4.4 44.4-9.3 50-32.1 5.3-21.6-7.3-43.9-28.6-50.7-.8-.3-1.6-.6-2.4-1-1-.5-1.4-1.7-1-2.8s1.2-1.4 2.2-1.2c3.2.6 6.3 1.6 9.2 2.9 18.1 7.9 29.2 21.6 33.3 40.9.8 3.4 1.1 6.9 1.1 10.3z" fill="#050302"/><path d="m51.1 16.4c-.3-1.6-.9-3.3-.6-5.1.2-1.1.8-1.7 2-1.7h8.4c1.5 0 2.3.8 2.3 2.3s-.5 2.9-.8 4.4c14.3 3.3 23.1 12.1 26.4 26.5 1.6-.4 3.2-.8 4.9-.7 1.2.1 1.9.8 1.9 1.9v8.6c0 1.3-1.2 2.2-2.6 2.1-1.4-.2-2.8-.4-4.2-.8-3.3 14.2-12 23-26.3 26.4.3 1.4.6 2.8.7 4.3.1 1.8-.6 2.7-2.4 2.7-2.6 0-5.2 0-7.8 0-1.7 0-2.6-.9-2.4-2.7.1-1.4.4-2.8.8-4.2-14.3-3.2-23.2-11.9-26.6-26.2-1.5.2-3 .7-4.6.6-1.3-.1-2-.8-2-2.1 0-2.7 0-5.5 0-8.2 0-1.6 1.1-2.5 2.7-2.2.7.1 1.4.2 2 .3s1.3.2 1.9.4c3.1-14.4 11.9-23.3 26.3-26.6zm-22.6 37c2.7 13.9 13.9 21.8 23.5 23.1.1-.2.2-.4.2-.6.4-2.6 1-5.2 1.7-7.8.2-.9.4-1.8 1.3-2.4h3.3c.6.4.9 1.1 1.1 1.8.4 1.6.7 3.2 1.2 4.8.3 1.3.4 2.7.9 4 11.8-1.8 21.3-11.4 23.2-23.1-.3-.1-.6-.2-.8-.2-2.4-.5-4.9-1-7.3-1.6-2.7-.7-2.6-.7-2.8-3.4-.1-1.4.6-2 1.7-2.3 1.6-.4 3.3-.8 4.9-1.2 1.4-.3 2.9-.4 4.3-1-2.2-13-12.8-21.7-23.3-23.3-.6 2.9-1.1 5.8-1.9 8.6-.2.9-.4 1.8-1.3 2.3-1.1 0-2.3 0-3.4 0-.6-.4-.9-1-1-1.6-.4-1.6-.7-3.3-1.2-4.9-.4-1.5-.4-3-1-4.4-14.1 2.6-22 14.1-23.2 23.6 2.7.7 5.6 1.1 8.3 1.8 2.8.8 2.8.7 2.8 3.6 0 1.1-.4 1.7-1.4 2-1.1.4-2.2.6-3.3.9-2.1.4-4.3.8-6.5 1.3z" fill="#0b0600"/><path d="m28.5 53.4c2.2-.5 4.3-.9 6.4-1.4 1.1-.2 2.2-.5 3.3-.9 1-.4 1.4-.9 1.4-2-.1-2.8 0-2.8-2.8-3.6-2.7-.8-5.5-1.2-8.3-1.8 1.2-9.4 9.1-20.9 23.2-23.6.6 1.4.6 3 1 4.4.5 1.6.8 3.3 1.2 4.9.2.6.4 1.2 1 1.6h3.4c.9-.5 1-1.5 1.3-2.3.8-2.8 1.3-5.7 1.9-8.6 10.6 1.7 21.1 10.4 23.4 23.4-1.4.5-2.9.6-4.3 1-1.6.4-3.3.7-4.9 1.2-1.1.3-1.8.9-1.7 2.3.1 2.7.1 2.7 2.8 3.4 2.4.7 4.9 1.1 7.3 1.6.3.1.6.2.8.2-1.9 11.7-11.4 21.3-23.2 23.3-.5-1.3-.6-2.7-.9-4-.4-1.6-.7-3.2-1.2-4.8-.2-.7-.5-1.4-1.1-1.8-1.1 0-2.2 0-3.3 0-.9.6-1.1 1.5-1.3 2.4-.6 2.6-1.2 5.1-1.7 7.8 0 .2-.2.4-.2.6-9.5-1.5-20.8-9.4-23.5-23.3z" fill="#fefefe"/></svg>