<svg enable-background="new 0 0 113.4 113.4" viewBox="0 0 113.4 113.4" xmlns="http://www.w3.org/2000/svg"><path d="m0 56.6c0-31.4 25.3-56.6 56.8-56.6 31.3 0 56.7 25.6 56.6 57-.2 31.2-25.7 56.6-57.1 56.4-31.1-.2-56.3-25.5-56.3-56.8z" fill="#010203"/><path d="m111.6 56.6c0 30.2-24.6 54.9-54.8 54.9-30.2.1-55-24.6-55-54.9 0-30.2 24.7-55 54.9-54.9s54.8 24.7 54.9 54.9z" fill="#fff"/><path d="m56.7 12.7c24.4 0 44 19.6 44 44.1 0 24.3-19.7 43.8-44.1 43.8-24.2 0-44-19.9-43.9-44.3.1-24.1 19.7-43.6 44-43.6z" fill="#020203"/><path d="m73.4 12.7c-.2-.5-.8-.2-1-.6-.5.8-.4 1.7-1.2 2.3-.7-1 .3-1.7.2-2.5-.2-.4-.6-.4-1-.3-.5.1-.5-.5-.8-.5-.8.2-1-1-1.8-.8-.1-.5.2-.4.4-.5.4-.3.7-.6 1.3-.6.3 0 .7 0 .6-.5-.3-.2-.8 0-1-.4.6-.7 1.6-.8 2.2-1.6-.2-.1-.4-.2-.7-.4-.5.4-.8 1.2-1.7.7.4-.7 1.3-.9 1.5-1.8.8 1 1.8 1 2.8 1.4.4-.3-.3-.6.2-.9.7.1.7.7.9 1.2 1.1.8 2.7.5 3.8 1.7-.6.2-1 .3-1.2.4-.2.3.1.6-.2.8-.6.2-1.2.4-1.8.6.4.9 1.2 1.4 2 2-.5.5-1.4.1-1.5.8-.9-.2-1.4-.6-2-.5z" fill="#060608"/><path d="m43.7 6.8c.2 0 .4-.1.5.2.1.5-.8.4-.6 1-.7.1-1.1.5-.9 1.4.5-.4 0-1.3.9-1.4.4-.2.6 0 1 .3-.8.8-.5 1.9-.9 2.9.3.5.7.8 1.2.9.3-.5-.1-1.1.4-1.6.6.7.1 1.7 1.2 2.2-1.5.8-2.2-.1-3.3-.7-.6 2.6-3.5 2-5.2 3.8-.5-1.4-1-2.8-1.5-4.1.5-.3 1 .1 1.5-.4-.4-1.3-.9-2.8-1.4-4.2.4-.3.8-.4 1.3-.1-.2.5-.4 1.1.2 1.7.5-.1 1-.2 1.2-.9.6-.1.9.2 1.4.4.1-.9-.6-1.6-.6-2.4.3-.3.7-.1 1.1-.1.3.5.3 1.1.7 1.6.3.2.6-.1.9-.2.2-.2.5-.6.9-.3z" fill="#08080a"/><path d="m53.3 5.1c.4.2.6-.3.9-.4.3.2.7.3 1 .8-1.2.6-2.6.2-3.7.7.6 1.5 1.4 2.4 4.5 4.3-.5.7-1 .6-1.7.1-1.2-.9-1.9-2.1-3.1-3.3.1 1.8.8 3.4.2 5.4-1-1.6-.5-3.2-1.1-4.7-.9 1.5-1.7 3-3.3 3.9 1-1.8 2.4-3.3 2.8-5.4-1-.7-2.2.7-3.3-.5 1.3-.1 2.4-.3 3.5-.4.2-.7-.1-1.4-.1-2.1.5-.3.8 0 1.1 0 .4.3 0 .8.3 1.2.6.5 1.4.1 2 .4z" fill="#0a090c"/><path d="m94.5 83.5c2.2-1.2 4.3-.2 6.3-.7-1.4-.9-2.6-1.7-3.8-2.5 0-.4.2-.6.5-.8 1.9 1.2 3.7 2.4 5.6 3.5v.4c-1.9.8-4 0-6 .5 1.4.9 2.6 1.7 3.8 2.4.1.4-.1.6-.4.8-1.9-1.1-3.8-2.2-6-3.6z" fill="#09090b"/><path d="m10.1 83.1c2-1.2 3.8-2.4 5.7-3.6 2.3 2.9 2.4 4.4.2 5.9-2.4 1.8-3.6 1.3-5.9-2.3z" fill="#070709"/><path d="m24.6 91.6c0 1.9-2 3.9-3.8 3.9-1.5 0-2.8-1.3-2.8-2.9 0-1.8 2.1-3.9 3.9-3.9 1.5 0 2.7 1.3 2.7 2.9z" fill="#0b0b0d"/><path d="m98.8 88.7c0 1.6-1.3 2.8-2.8 2.8-1.9 0-3.9-2-3.9-3.8 0-1.5 1.3-2.8 2.9-2.8 1.9 0 3.9 1.9 3.8 3.8z" fill="#0a090c"/><path d="m28.9 95.4c.4 0 .4-.5.8-.6.7.2 1.1.9 1.9 1 .4.7 1.3.8 1.7 1.4.1.3-.2.5-.4.8-1-.6-1.9-1.2-3-1.9-.3.5-.6.9-1 1.4.7.9 1.8 1.2 2.6 1.9.1.4-.2.5-.3.9-1-.6-1.9-1.2-2.9-1.8-.4.6-.7 1.1-1.2 1.7 1 .7 2 1.3 3 1.9.1.4-.2.6-.4.8-1.3-.8-2.5-1.6-3.8-2.5.9-1.8 2.3-3.2 3-5z" fill="#08080b"/><path d="m85.2 101.9c-1.4.8-2.6 1.5-4 2.3-1.1-2-2.2-3.9-3.4-5.9 1.3-.8 2.5-1.5 3.8-2.2.3.1.5.3.5.8-.9.5-1.9 1.1-3 1.7.3.5.6 1 .9 1.6 1-.6 2-1.1 2.9-1.6.1.2.3.4.5.8-1 .6-1.9 1.1-2.9 1.7.4.6.7 1.2 1 1.8 1.1-.6 2.1-1.2 3.1-1.7.4.1.5.3.6.7z" fill="#09080b"/><path d="m78.7 103.2c-.4-.5-.9-.5-1.4-.4s-1 .1-1.5.1c-.9.1-1.5-.3-1.8-1.1-.3-.9-.1-1.7.7-2.2 1.2-.9 2.5-.7 3.5.6-.3.4-.5.6-1 .2-1.1-.7-1.7-.5-2.5.8.4 1.1 1.3.8 2 .7 1.8-.2 2.6.1 3 1.3.3 1-.3 2-1.4 2.5-1.3.6-2.7.4-3.3-1.1.1-.2.3-.3.6-.4.6.8 1.4 1.1 2.4.5.7-.3.9-.8.7-1.5z" fill="#0b0a0d"/><path d="m20.3 85.5c0 .3.1.6-.1 1-1.2 1.9-2.3 3.8-3.5 5.8-.2-.3-.4-.6-.6-.8.3-.6.7-1.2 1.1-1.8-.5-.6-1-1.2-1.5-1.8-.6.2-1.3.4-1.9.7-.4-.1-.5-.3-.6-.6 0-.1.1-.2.1-.2 1.9-.7 3.9-1.4 5.8-2.1.4-.4.8-.3 1.2-.2z" fill="#0b0a0d"/><path d="m62.9 6.1c-.4 0-.7 0-1.2 0-.4 1.4-.1 2.9-.9 4.2-.5-1.8.2-3.4.1-5.2.7.1 1.1.7 1.8.4.1-.6.1-1.3.2-1.9.5-.3.8 0 1.1.2.3.3-.2.5 0 .8.7.2 1.3.4 2-.1.4.1.6.4.8.7-.2.6-.8.1-1.1.4.2.2.3.4.5.6-.8 1.4-.4 3-.8 4.5-.3 0-.5.1-.8.1l-.1-.1c-.3-.6-.1-1.3 0-1.9.1-.7.3-1.4-.3-2-.5-.4-1-.4-1.3-.7z" fill="#0c0c0e"/><path d="m43 108.4c-.1-.8-.1-1.4-.2-2.1-.7-.4-1.5-.5-2.3-.8-.4.5-.8 1.1-1.2 1.6-.4.2-.6-.1-1-.3 1.4-1.9 2.8-3.8 4.1-5.7.6 0 .9.1 1 .8.1 2.2.3 4.3.5 6.6-.3 0-.6 0-.9-.1z" fill="#0b0b0d"/><path d="m69.1 108.7c-.4.1-.7.2-1 .2-.4-.6-.7-1.2-1.1-1.8-.8.1-1.6.1-2.3.5-.4.7.3 1.9-1.1 2.2-.4-2.4.7-7 1.8-7.3 1.2 2 2.4 4 3.7 6.2z" fill="#0d0c0f"/><path d="m50.3 104.9c-.3 0-.6 0-.9 0 0-1-.6-1.6-1.7-1.6-1 0-1.6.7-1.8 1.7-.1.3-.2.6-.2 1-.1 1.1 0 2.1 1.2 2.5 1.1.4 1.7-.4 2.2-1.2.3 0 .6.1.8.4-.8 1.6-1.7 2-3.2 1.7-1.3-.3-2-1.3-2-2.8-.1-2.5 1.2-4.1 3.2-4 1.4-.2 2.2.6 2.4 2.3z" fill="#0a0a0c"/><path d="m62.1 107.4c.4.1.6.1.8.2-.2 1.5-.9 2.3-2.1 2.5-1.5.2-2.5-.4-3-1.7-.4-1-.6-2-.2-3.1.4-1.2 1.1-2 2.4-2.1 1.4-.2 2.3.4 2.8 1.7-.2.3-.5.3-.8.4-.5-.9-1.1-1.6-2.2-1.2s-1.3 1.3-1.3 2.3c0 .4.1.8.2 1.2.3.9.8 1.5 1.7 1.6 1 0 1.5-.7 1.7-1.8z" fill="#0b0a0d"/><path d="m87.4 94.3c-.2.3-.4.5-.5.7-.4-.2-.9-.3-1.2-.5-1.5.6-1.9 1.2-1.6 2.3.4 1.5 1.8 2.7 2.9 2.6 1.2-.1 1.7-1 1.4-2.7.2-.2.4-.2.7-.2.7 1.3.6 2.3-.4 3.1-.9.8-2.2 1-3.3.3-1.2-.8-2.1-1.8-2.2-3.4-.1-1.2.4-2.1 1.4-2.6.9-.5 1.8-.3 2.8.4z" fill="#0a0a0d"/><path d="m28.9 95.4c-.8-.7-1.7-1.4-2.6-2.1-.5.4-.8.9-1.2 1.5.7.6 1.4 1.1 2.1 1.7 0 .4-.2.6-.6.7-.7-.5-1.3-1.1-2.1-1.6-.6.8-1.2 1.5-1.9 2.3-.3-.1-.5-.3-.7-.6 1.4-1.7 2.8-3.5 4.2-5.3 1.1.9 2.2 1.7 3.2 2.6-.2.2-.3.5-.4.8z" fill="#0b0b0d"/><path d="m88.2 92.3c-.6.5-1 .8-1.4 1.2-.4-.1-.5-.4-.6-.7 1.2-1.1 2.4-2.1 3.5-3.2.3.2.5.3.5.6-.2.6-.9.8-1.2 1.4 1.3 1.4 2.5 2.8 3.8 4.2-.1.4-.3.5-.6.7-1.4-1.3-2.6-2.7-4-4.2z" fill="#0f0e10"/><path d="m38.3 100.6c-.6-.3-1.1-.5-1.6-.7-.2-.4 0-.6.3-.8 1.4.6 2.9 1.2 4.3 1.7.1.4-.1.6-.3.9-.6-.2-1.1-.4-1.8-.7-.7 1.8-1.4 3.5-2.1 5.2-.4.2-.6 0-.9-.2.7-1.8 1.4-3.5 2.1-5.4z" fill="#0e0e10"/><path d="m55.4 104.2c-.7 0-1.3 0-1.9 0-.6 1.9 0 3.9-.9 5.8 0 .1-.3 0-.5 0-.2-2 .3-3.9.2-5.8-.6-.4-1.2-.1-1.7-.3-.2-.3-.1-.5 0-.9 1.6.1 3.1.2 4.6.4.3.2.1.4.2.8z" fill="#0d0d10"/><path d="m70.2 107.3c1 0 1.8-.5 2.7-.6.4.1.2.4.5.6-1.2.6-2.5.7-3.8 1.3-.6-2.2-1.3-4.3-1.9-6.6.3-.1.6-.2.9-.2.6 1.9 1.1 3.7 1.6 5.5z" fill="#100f12"/><path d="m58.9 11.6c-.7.1-.8.1-.7-.7.1-1.3.3-2.6.5-3.9-.6-.2-.7.7-1.4.3 1.1-1.4 2.2-2.7 2.7-4.4.5 0 .9.2 1.1.5-2 1.9-1.4 4.5-2 6.8-.2.6.2 1.1-.2 1.4z" fill="#100f12"/><path d="m95.3 93.7c.1-.1-.1.1-.3.3-1.7-1.6-3.3-3.1-4.9-4.7.2-.2.4-.4.7-.8 1.4 1.7 2.9 3.4 4.5 5.2z" fill="#1f1e20"/><path d="m58.9 11.6c.1-.4-.1-.9.2-1.2 0 .3.1.7.1 1 2.2-.2 3-1 3.3-3.2.1-.7.2-1.4.3-2.1.5 0 1-.2 1.4.2-.2.3-.5.2-.6.2 1 .9-.1 1.9-.2 2.9-.2.4-.3.9-.7 1-1 1.4-2.5 1.9-3.8 1.2z" fill="#1a191c"/><path d="m33.9 97.6c.5 0 .7.2.9.4-1 1.9-2.1 3.8-3.1 5.7-.4 0-.6-.1-.8-.4 1-1.9 2-3.8 3-5.7z" fill="#121114"/><path d="m55.9 103.3c.8-.1.9.3.9.9v5.8c-.4.2-.7.2-.9.1 0-2.4 0-4.6 0-6.8z" fill="#111012"/><path d="m62.7 10.4c.2-.3.3-.7.5-1 .6.3 1 .7 1.3 1.3.5.5 1.4.8.8 1.9-1.1-.6-1.3-2.1-2.6-2.2z" fill="#232225"/><path d="m69.6 11.2c.4-.1.5.4.8.5.1.2.2.3.4.6-1.1.3-2.2.8-3.6.5.5-.6 1.1-.5 1.5-.7s1.1-.1.9-.9z" fill="#1e1d20"/><path d="m31.5 95.8c-.7-.5-.5-1.2-.5-1.9.6 0 .9.3.9.9.4.1 1-.2 1.2.5-.3.3-.9.6-1.6.5z" fill="#2a292c"/><path d="m53.3 5.1c-.7.5-1.5.2-2.2.3-.5-.6-.1-1.2 0-1.8h.3c.7.4 1.5.7 1.9 1.5z" fill="#f7f6f7"/><path d="m73.4 12.7c.4.4.8.7 1.1 1.1.4.4.6.8.2 1.6-.8-.9-1.5-1.7-2.2-2.5.4-.5.7-.1.9-.2z" fill="#282629"/><path d="m70.6 8.6c.3.5-.3.6-.5 1-.7-.4-1.3.2-1.9.2 0-.4.1-.7.1-1.2.2 0 .5-.1.7-.1.6 0 1.1-.1 1.6.1z" fill="#2c2b2e"/><path d="m42.9 7.3c-.4.2-.8.3-1.2.5-.4-.7-.8-1.4-.6-2.2h.3c.4.3.9.5 1.3.9.2.2.5.5.2.8z" fill="#f4f4f5"/><path d="m53.4 5.1c-.7-.5-1.6-.7-2-1.5.9-.1 1.6.2 2.2.6.1.4-.2.6-.2.9z" fill="#28272a"/><path d="m42.9 7.3c0-.7-.7-.7-1-1.1-.2-.2-.6-.3-.5-.7 1.1-.2 1.7.7 2.3 1.3-.4 0-.5.4-.8.5z" fill="#1d1c1f"/><path d="m20.3 85.5c.2-.5.3-1 .5-1.6.4.1.5.5.7.7-.2.4-.4.8-.6 1.1-.4.3-.4-.1-.6-.2z" fill="#2c2a2e"/><path d="m70.6 8.6c-.5 0-1 0-1.5 0 0-.1 0-.2 0-.3.5.4 1.2-.4 1.5.3z" fill="#faf9fa"/><path d="m99.6 56.7c0 23.6-19.3 43-43 43-23.6 0-43-19.3-43-43 0-23.6 19.4-43 43-43 23.7 0 43 19.3 43 43z" fill="#3889b8"/><path d="m75.1 11.5c-1 .7-2.4.4-5.4-1.1 1.8-.3 3.2 1.1 5.4 1.1z" fill="#f3f2f3"/><path d="m71.2 9.9c.8-.5 1.3-.9 1.9-1.3.2.6.4 1.2.6 1.8-.9.3-1.6-.4-2.5-.5z" fill="#f6f6f6"/><path d="m73.5 7.3c.9.3 1.9.6 2.9.9-.7.7-2.1.4-3.2-.6-.1-.2 0-.4.3-.3z" fill="#f5f5f6"/><path d="m75.1 9.2c-.1.5-.5.5-.7.6-.3-.2-.4-.4-.4-.8.3 0 .7.1 1.1.2z" fill="#d9d8da"/><path d="m73.5 7.3c-.1.1-.2.2-.3.3-.3 0-.6 0-.9 0 0-.3 0-.5 0-.7.4.1.8.1 1.2.4z" fill="#d6d5d7"/><path d="m72 8.1c-.1.4-.2.5-.5.5-.2-.1-.3-.3-.1-.5.2-.1.4 0 .6 0z" fill="#cecdd0"/><path d="m42.7 11.5c-.2.3-.3.5-.5.8s-.4.5-.7.9c-.4-.9-.9-1.7-.7-2.6-.2-.2-.5-.4-.8-.4-.3.4-.7.8-1.3.7-.2-.5-.4-1.1-.6-1.6.5-.2 1-.4 1.5-.6.3.6.8.8 1.4.2.6.8 1.1 1.7 1.7 2.6z" fill="#fcfcfc"/><path d="m38.3 14.3c-.3-.8-.5-1.4-.7-2.1.7-.5 1.6-.6 2.4-1 .3.8.5 1.4.8 2.2-.9.4-1.7.6-2.5.9z" fill="#fcfcfc"/><path d="m43.5 8c-.6.6 0 1.5-.5 2.3-.6-.4-.7-1.1-1.1-1.7.5-.3.9-.9 1.6-.6z" fill="#f6f5f6"/><path d="m15.5 80.8c1.5 2.1 1.5 2.9-.3 4-1.8 1.2-2.5.9-3.8-1.4 1.4-.9 2.8-1.8 4.1-2.6z" fill="#fdfdfd"/><path d="m21.8 89.7c1 0 1.9.8 1.9 1.8.1 1.3-1.6 3-2.9 3.1-1 0-1.8-.8-1.9-1.8.1-1.4 1.6-3.1 2.9-3.1z" fill="#fefefe"/><path d="m98 88.7c0 1-.8 1.8-1.9 1.8-1.3 0-3-1.5-3.1-2.7 0-1 .9-1.9 2-1.9 1.4 0 3 1.5 3 2.8z" fill="#fefefe"/><path d="m16.5 87.4c.8-.3 1.5-.5 2.3-.9-.1 1-.7 1.5-1.2 2.2-.3-.4-.7-.8-1.1-1.3z" fill="#f6f5f6"/><path d="m64.5 10.7c-.4-.5-1.3-.4-1.3-1.3.4-.8.1-1.7.7-2.4-.1-.3-.3-.4-.6-.6.4 0 .7-.1 1-.1.6 0 .6.4.5.9-.1 1.1-.2 2.3-.3 3.5z" fill="#fdfcfd"/><path d="m65.4 5.4c-.7.7-1.3.3-2 .1.8-.5.8-.5 2-.1z" fill="#e4e3e5"/><path d="m42.6 105.2c-.5-.2-1-.3-1.5-.5.3-.9.9-1.4 1.5-2.3z" fill="#fbfafb"/><path d="m66.6 106.1c-.6.3-1.1.4-1.7.3.1-.8.2-1.6.3-2.6.5.9.9 1.6 1.4 2.3z" fill="#f8f7f8"/><path d="m43.7 71.8c-.2.2-.3.3-.5.5 0 .5-.3.9-.5 1.2-.6.2-.8-.3-1-.7-.5-.7-1-1.4-1.5-2.1-.5-.6-.3-1.1 0-1.7v-.1c.1-.3.2-.6.4-.9.2-.4.4-.8.5-1.2.4-.6.5-1.2.9-1.8.2-.3.3-.6.4-1 .3-.4.4-1 .7-1.4.2-.3.2-.7.4-1 0-.1 0-.2 0-.3.4-.4.5-1 .8-1.4.2-.3.2-.6.4-.9.4-.5.5-1.2.7-1.7.3-.3.4-.6.5-1 .2-.3.3-.6.5-.9.1-.3.2-.5.3-.8.2-.4.4-.8.5-1.2.1-.2.2-.4.3-.6.1-.3.3-.6.4-.9.2-.4.4-.9.6-1.3.1-.2.2-.4.3-.6.1-.3.3-.6.4-.9.1-.2.2-.5.3-.8.3-.6.5-1.3.7-1.9.3-.3.4-.6.5-1 .2-.3.3-.6.5-.9.1-.3.2-.5.3-.8.2-.4.4-.8.5-1.2.4-.6.5-1.2.9-1.8.2-.2.2-.5.4-.8.3-.6.4-1.2.7-1.7.2-.4.2-.8.6-1.1.3-.1.5-.1.6.3.1.3 0 .7 0 1v50.9c0 .4.1.8-.1 1.2-.4.3-.7 0-1-.2-.9-1.3-1.9-2.7-2.8-4-.2-.5-.6-.8-.6-1.4 0-9.2 0-18.5 0-27.7 0-.5.1-1-.2-1.5-.4.2-.4.5-.5.9-.3.5-.8 1-.8 1.6v.2c-.3.4-.5.9-.7 1.4 0 .1 0 .3-.1.4-.2.6-.4 1.1-.6 1.6 0 .1 0 .3-.1.4-.3.4-.5.9-.7 1.4 0 .1 0 .3-.1.4-.2.4-.5.7-.6 1.1s-.3.8-.5 1.2c-.2.6-.4 1.2-.7 1.7-.2.6-.4 1.2-.8 1.8-.2.7-.6 1.3-.6 2z" fill="#e73831"/><path d="m62.5 45c .2.1.3.2.2.4.2.4.4.9.6 1.3.1.2.2.5.3.8s.3.6.5.9c.1.3.2.6.4.9.3.4.3.9.6 1.3.1.2.2.5.3.7s.2.5.3.7c.1.3.3.6.4.9 0 .2.2.4.3.6.2.6.4 1.2.7 1.7.2.4.4.8.5 1.2.2.4.3.7.5 1 .1.2.2.5.3.8.2.3.3.6.5.8.1.4.3.8.5 1.2.1.2.2.5.3.8.2.3.3.6.5.8.1.3.2.6.4.9.2.5.4.9.7 1.3.2.5.4.9.6 1.4.1.3.3.6.4.9 0 .2.2.4.3.6.2.6.4 1.2.7 1.7.2.6.6 1.1.3 1.8 0 .4-.5.5-.4.9-.4.5-.8 1-1.2 1.6-.3.4-.4.8-1 .7-.5-.5-.6-1.2-.9-1.8s-.5-1.2-.8-1.8-.5-1.2-.8-1.8-.5-1.2-.8-1.8c-.2-.4-.4-.7-.5-1.1-.1-.6-.5-1.2-.8-1.8-.1-.6-.5-1.2-.8-1.8-.1-.5-.4-1-.6-1.4-.1-.6-.5-1.2-.8-1.7 0-.1 0-.2 0-.3-.3-.7-.6-1.4-.8-2.1-.1-.2-.2-.4-.4-.4-.3.5-.1 1-.1 1.5v26.9c0 .5.1.9-.1 1.4-.7 1.1-1.4 2.2-2.3 3.3-.2.3-.4.6-.5 1 0 0-.1.1-.2.1-.3.3-.5.9-1.1.8-.4-.3-.3-.6-.3-.9 0-17.2 0-34.3 0-51.5 0-.4-.4-1.1.6-1 .4.2.4.7.6 1.1.3.5.4 1 .7 1.5.1.2.2.5.3.8.1.2.2.5.3.7.1.3.3.6.4.9s.2.5.3.8c.4.4.6 1.1.9 1.8z" fill="#e73831"/><g fill="#eee417"><path d="m74.8 86.9c-.7 1.6-1.3 2.9-2 4.3 1.4.7 2.7 1.3 4.3 2.1-3.2 1.2-6.1 2.2-9.2 3.3-1.4-.6-2.9-1.3-4.4-2 .7-1.4 1.3-2.8 2-4.4 3-1 6-2.1 9.3-3.3z"/><path d="m49.8 94.6c-1.5.7-2.9 1.4-4.4 2-3-1.1-5.9-2.1-9.2-3.3 1.6-.8 2.9-1.4 4.3-2.1-.7-1.4-1.3-2.7-2-4.3 3.2 1.2 6.2 2.2 9.2 3.3.7 1.4 1.4 2.8 2.1 4.4z"/><path d="m29.7 79.2c2.3 1.9 4.7 3.9 7 5.8.2 1.6.3 3.2.5 4.8-1.6.1-3.2.3-4.8.4-2.4-2-4.9-4.1-7.5-6.3 1.8-.2 3.2-.3 4.7-.5-.1-1.2-.2-2.2-.2-3.3 0-.2-.4-.7.3-.9z"/><path d="m83.9 80.3c-.1 1-.1 2.1-.2 3.3 1.5.1 3 .3 4.7.5-2.6 2.2-5 4.2-7.5 6.3-1.6-.1-3.1-.3-4.8-.4.1-1.6.3-3.1.4-4.8 2.3-1.9 4.7-3.9 7-5.9.8.1.4.6.4 1z"/><path d="m74 25.8c1.8-.2 3.2-.3 4.7-.4-.1-1.5-.2-3-.4-4.7 2.6 2.2 5.1 4.3 7.5 6.3.1 1.6.3 3.1.4 4.8-1.5.1-3 .3-4.4.4-.2 0-.5-.1-.7-.3-2.3-2.1-4.6-4-7.1-6.1z"/><path d="m83.6 33.7c1.7.1 3 .8 4.5.9.4-1.4.8-2.8 1.3-4.5 1.7 2.9 3.3 5.7 4.9 8.5-.4 1.5-.8 3-1.3 4.7-1.6-.4-3-.8-4.6-1.3-1.6-2.6-3.2-5.4-4.8-8.3z"/><path d="m95.9 71.6c-1.7 3-3.3 5.6-4.9 8.4-1.5.4-3 .8-4.7 1.3-.4-1.5-.8-3.1-1.2-4.6 1.6-2.7 3.2-5.5 4.9-8.5.5 1.7.8 3.1 1.3 4.6 1.4-.4 2.8-.8 4.6-1.2z"/><path d="m28.2 76.6c-.4 1.6-.8 3.1-1.2 4.6-1.6-.4-3.1-.8-4.6-1.3-1.6-2.7-3.2-5.4-4.9-8.4 1.7.4 3.1.8 4.6 1.2.4-1.4.8-2.8 1.3-4.6 1.6 3 3.2 5.7 4.8 8.5z"/><path d="m24 30.1c.5 1.7.9 3.1 1.2 4.5 1.5-.1 2.8-.9 4.5-.9-1.6 2.9-3.2 5.5-4.7 8.2-1.5.4-3 .8-4.6 1.3-.4-1.5-.8-3-1.3-4.6 1.6-2.7 3.1-5.5 4.9-8.5z"/><path d="m35 20.6c-.1 1.8-.3 3.2-.4 4.8 1.5.1 2.9.3 4.7.4-.7.6-1.1 1-1.6 1.4-1.4 1.1-2.8 2.2-4.1 3.5-1.2 1.2-2.5 1.6-4.1 1.2-.7-.2-1.5-.1-2.3-.2-.1-1.6.2-3 .3-4.5 0-.2.1-.4.3-.5 2.3-2 4.6-4 7.2-6.1z"/><path d="m92 56.1c1 1.4 1.8 2.6 2.8 3.9 1.2-.9 2.5-1.7 3.9-2.7-.6 3.4-1.2 6.5-1.7 9.6-1.3.9-2.6 1.8-3.9 2.8-.8-1.2-1.7-2.4-2.5-3.6-.2-.3-.2-.6-.1-1 .4-2.9.9-5.8 1.5-9z"/><path d="m98.1 52.5c-.9 1.3-1.8 2.6-2.8 3.9-1.3-.9-2.6-1.8-3.9-2.7-.5-3-1.1-6.1-1.7-9.3 1.5.4 2.5 1.7 3.9 2.3.8-1.2 1.7-2.4 2.7-3.8.7 3.4 1.2 6.4 1.8 9.6z"/><path d="m20.3 69.7c-1.3-.9-2.6-1.8-3.9-2.8-.6-3.1-1.1-6.2-1.7-9.6 1.4 1 2.6 1.8 3.9 2.7.9-1.2 1.8-2.5 2.8-3.9.6 3.3 1.2 6.4 1.7 9.6-1 1.3-1.9 2.6-2.8 4z"/><path d="m23.5 44.6c-.5 3-1 6-1.6 9.1-1.3.9-2.6 1.8-3.9 2.8-.9-1.3-1.8-2.6-2.8-3.9.5-3.1 1.1-6.2 1.7-9.6 1 1.4 1.9 2.6 2.7 3.9 1.2-.8 2.4-1.6 3.5-2.4.1 0 .3 0 .4.1z"/></g><path d="m56.8 14.7c.9 2.5 1.8 5 2.8 7.7h8.1c0 .1.1.2.1.3-2.1 1.6-4.2 3.3-6.4 5 .8 2.6 1.5 5.2 2.4 8.1-2.5-1.7-4.7-3.2-7-4.8-2.2 1.5-4.5 3.1-7 4.8.8-2.9 1.6-5.5 2.4-8.1-2.1-1.6-4.3-3.3-6.4-4.9 0-.1 0-.2 0-.3h8.1c1-2.7 1.9-5.2 2.9-7.8-.2 0-.1 0 0 0z" fill="#eee319"/><path d="m59.2 37.6c-.1-.1-.3-.2-.5-.3v53.4c.6 0 .7-.6 1.1-.7-.2.9-.9 1.5-1.5 2.4 0-19.2 0-38.1 0-57.4.5 1.1.8 1.9 1.2 2.7-.2 0-.3 0-.3-.1z" fill="#ffdc00"/><path d="m54.1 90.5c.2.1.5.1.8.2 0-17.8 0-35.5 0-53.2-.2-.2-.4 0-.5.1s-.2.1-.2 0c .3-.8.7-1.5 1.1-2.7v57.4c-.5-.7-1-1.1-1.2-1.8z" fill="#fd0"/><path d="m58.5 97.7c.4-1.5.8-2.9 1.2-4.2 1.1-.5 2.1-.9 3.4-1.4-.6 2-1.1 3.8-1.7 5.5-.9.3-1.8.2-2.9.1z" fill="#ece31f"/><path d="m50.1 92.1c1.3.6 2.3 1 3.4 1.4.4 1.3.8 2.7 1.2 4.1-1 .2-1.9.1-2.9.1-.5-1.8-1-3.5-1.7-5.6z" fill="#ece31e"/><path d="m55.2 97.6c0-1 0-1.9 0-2.8 1-.3 1.9-.2 2.9-.1v2.9c-.9.1-1.9 0-2.9 0z" fill="#ece221"/><path d="m50.3 55.6c.1-.3.2-.5.3-.9.1.2.2.3.2.3v30.3c.1.3 0 .3-.2.3 0-3.5 0-6.9-.1-10.4 0-6.3 0-12.7 0-19-.1-.2-.4-.3-.2-.6z" fill="#ffdc00"/><path d="m62.8 85.7c0-1.2-.1-2.4-.1-3.7 0-8.6 0-17.2 0-25.8 0-.5 0-.9 0-1.5.4.2.5.5.6.9.1.3-.1.4-.2.6v28c-.1.5.2 1.1-.3 1.5z" fill="#ffdc00"/><path d="m62.5 45c-.6-.6-.9-1.3-1-2.1 0-.1.1-.2.2-.1.4.6.8 1.3.8 2.2z" fill="#e8be3a"/><path d="m45.1 68.1c0-.7.2-1.3.8-1.8h.1c-.1.6-.4 1.3-.9 1.8z" fill="#f5c620"/><path d="m41.6 72.8c.4.1.5.7 1 .6.1-.1.2-.1.3 0-.1.3-.2.6-.4 1-.3-.5-.8-.9-.9-1.6z" fill="#f7d629"/><path d="m66.6 63.5c.4.5.7 1.1.8 1.8-.1.1-.2.1-.3 0-.3-.6-.7-1.1-.8-1.8.1-.1.2-.1.3 0z" fill="#f7c818"/><path d="m53 40.9c-.3.6-.5 1.3-.9 1.8-.1.1-.2.1-.2 0 .3-.7.5-1.4 1-2 0 0 .1.1.1.2z" fill="#f9d823"/><path d="m69.3 70c .5.5.7 1.1.8 1.8 0 .1 0 .2-.2.1-.3-.6-.5-1.2-.8-1.8.1-.1.1-.1.2-.1z" fill="#f5c71f"/><path d="m42.1 65c-.2.6-.5 1.3-.9 1.8-.1.1-.2.1-.2 0 .3-.7.5-1.4 1-2 0 0 .1.1.1.2z" fill="#f8d727"/><path d="m43.7 71.8c-.3-.8.2-1.4.7-1.9h.1c-.2.7-.4 1.3-.8 1.9z" fill="#f7c71a"/><path d="m44.5 69.9c-.2-.7.1-1.3.7-1.8h.1c-.2.6-.4 1.3-.8 1.8z" fill="#f6c71d"/><path d="m66.6 63.5c-.1 0-.2 0-.3 0-.3-.6-.7-1.1-.8-1.8.1-.1.2-.2.3 0 .5.5.7 1.1.8 1.8z" fill="#f6c715"/><path d="m70.9 73.4c.5.1.7-.4 1-.6 0 .7-.6 1-.8 1.6-.4-.3-.5-.6-.5-1 .1-.1.2-.1.3 0z" fill="#f7d628"/><path d="m67.9 66.3c.3.6.7 1.2.7 1.9 0 .1 0 .2-.2.2-.3-.6-.5-1.2-.8-1.8.1-.2.1-.3.3-.3z" fill="#f4c620"/><path d="m68.4 68.3c.1 0 .1-.1.2-.2.5.5.7 1.1.8 1.8 0 .1-.1.1-.2.1-.3-.5-.6-1.1-.8-1.7z" fill="#f5c71e"/><path d="m63.5 56.2c.4.7.8 1.3.8 2.1-.5-.4-.7-1-.8-1.6-.1-.1-.1-.3 0-.5z" fill="#f5c71d"/><path d="m70.9 73.4c-.1 0-.2 0-.3 0-.3-.5-.5-1-.7-1.5.1 0 .1-.1.2-.1.5.4.6 1 .8 1.6z" fill="#f6c71d"/><path d="m64.3 58.6c.7.3.8 1 1 1.6-.1.2-.3.1-.4 0-.3-.5-.4-1.1-.6-1.6z" fill="#e7b93a"/><path d="m50.3 46.5c-.2.7-.4 1.4-.8 2-.1 0-.2-.1-.2-.2.2-.7.5-1.4 1-2.1.1.1.1.1 0 .3.1 0 .1 0 0 0z" fill="#f6d629"/><path d="m73.1 68.7c-.4-.6-.7-1.1-.8-1.8.1-.1.2-.1.3 0 .3.5.6.9.5 1.5 0 .1.1.1.1.2 0-.1 0 0-.1.1z" fill="#e8be3a"/><path d="m73.1 68.7c0-.1 0-.3.1-.4.3.7 1.1 1.2.5 2.1-.1.1-.2.1-.2 0 .3-.7-.3-1.2-.4-1.7z" fill="#f4c521"/><path d="m40.1 69.1c0 .6-.2 1.1 0 1.7-1-.6-.7-1.2 0-1.7z" fill="#e8be3a"/><path d="m67 55.2c-.4-.6-.7-1.1-.8-1.8.1-.1.2-.1.3 0 .3.5.6.9.5 1.5 0 .1.1.1.1.2 0 0 0 0-.1.1z" fill="#e9be39"/><path d="m49.2 58.4c-.2-.8.2-1.3.8-1.6 0 .7-.3 1.2-.8 1.6z" fill="#e7b93a"/><path d="m54.1 38.6c-.2.5-.4 1.1-.7 1.5-.1 0-.2-.1-.2-.2.2-.6.3-1.1.7-1.5.1 0 .1.1.2.2z" fill="#f7c715"/><path d="m45.5 57.2c-.1.6-.3 1.3-.7 1.8-.1.1-.2.1-.3 0 .2-.7.5-1.4 1-2.1l.1.1c0 .1-.1.1-.1.2z" fill="#f7d62b"/><path d="m64.8 60.2h.4c.3.5.5 1 .6 1.5-.1 0-.2 0-.3 0-.2-.5-.4-1-.7-1.5z" fill="#f8c814"/><path d="m43.1 62.7c-.2.5-.3 1-.7 1.3-.1.1-.1.1-.2 0 .2-.6.3-1.1.7-1.5.1 0 .2.1.2.2z" fill="#f7c819"/><path d="m44.4 59.9c-.2.5-.3 1.2-.9 1.4.1-.6.3-1.2.7-1.6.1 0 .2.1.2.2z" fill="#f7c815"/><path d="m48.5 50.6c0 .6-.3 1-.5 1.5-.2 0-.3 0-.2-.2.2-.4.4-.8.6-1.3 0-.2 0-.1.1 0z" fill="#ffdc00"/><path d="m48.5 60c0-.6 0-1.1.7-1.4 0 .6-.1 1.1-.7 1.4z" fill="#e7b938"/><path d="m47.8 61.8c0-.6 0-1.1.7-1.4-.1.6-.1 1.1-.7 1.4z" fill="#e8b936"/><path d="m47 63.6c0-.6 0-1.1.7-1.4-.1.5-.1 1.1-.7 1.4z" fill="#e9ba36"/><path d="m67.9 66.3c-.1.1-.2.2-.2.3-.2-.4-.6-.7-.5-1.3h.3c.1.3.3.6.4 1z" fill="#f9c816"/><path d="m46 66.3c-.1 0-.1 0 0 0-.3-.5.1-.9.3-1.3.1-.1.2-.1.3 0-.2.5-.3 1-.6 1.3z" fill="#f4c51e"/><path d="m71.7 65.5c-.2-.5-.4-1-.5-1.5.1-.1.1-.1.2 0 .3.4.5.8.6 1.3 0 .2-.1.3-.3.2z" fill="#fd0"/><path d="m65 50.6c-.2-.5-.4-.9-.7-1.4 0-.1.1-.2.2-.2.3.3.5.7.5 1.2.2.2.1.3 0 .4z" fill="#f7c814"/><path d="m71.3 64c-.1 0-.1 0-.2 0-.4-.3-.5-.8-.7-1.3 0-.1.1-.2.2-.2.3.5.5 1 .7 1.5z" fill="#f7c815"/><path d="m60.2 39.9c-.2-.5-.4-.9-.7-1.4 0-.1.1-.2.2-.2.2.4.4.8.5 1.2 0 .1 0 .2.1.2 0 .1-.1.2-.1.2z" fill="#f8c815"/><path d="m63.2 46.8c-.4-.4-.5-.9-.5-1.4.4.3.6.7.7 1.2 0 0 0 .1-.2.2z" fill="#e7ba38"/><path d="m69.3 60.2c-.4-.4-.5-.8-.5-1.3.1-.1.1-.1.2 0 .2.3.3.7.5 1 0 .2 0 .3-.2.3z" fill="#e7b939"/><path d="m51.9 42.7h.2c0 .5-.2.9-.5 1.3-.1-.1-.2-.2-.2-.3.1-.4.3-.7.5-1z" fill="#e7ba38"/><path d="m68.1 57.4c-.3-.3-.5-.7-.5-1.1 0-.1.1-.2.2-.2.2.3.3.7.5 1 0 .2-.1.3-.2.3z" fill="#e8ba38"/><path d="m40.9 66.8h.2c0 .5-.2.9-.5 1.3-.1-.1-.2-.2-.2-.3.2-.3.4-.7.5-1z" fill="#e8ba38"/><path d="m47.3 53.4c-.1.5-.2.9-.5 1.3-.1-.1-.2-.2-.2-.3.2-.3.3-.7.5-1 0-.2.1-.1.2 0z" fill="#e8ba38"/><path d="m46.6 65.1c-.1 0-.2 0-.3 0 .1-.4.1-.9.7-1.1 0 .4-.2.7-.4 1.1z" fill="#e9ba35"/><path d="m67.8 56.1c-.1.1-.1.1-.2.2-.4-.3-.4-.7-.6-1.1 0-.1 0-.3.1-.4.3.4.6.8.7 1.3z" fill="#f4c621"/><path d="m43 73.4c-.1 0-.2 0-.3 0 .1-.4.2-.8.5-1.1.4.4 0 .8-.2 1.1z" fill="#e7b938"/><path d="m83.9 80.3c-.2-.3.1-.8-.3-1.1.1-.1.1-.3.2-.4.3.6.3 1.1.1 1.5z" fill="#b2bf7d"/><path d="m29.7 79.2c-.4.3-.2.7-.3 1.1-.3-.4-.2-.9-.2-1.3.3-.1.4 0 .5.2z" fill="#b1bf7e"/><path d="m54.1 38.6c-.1-.1-.1-.2-.2-.2.1-.3.2-.5.3-.8h.2c-.1.3-.2.7-.3 1z" fill="#fd0"/><path d="m59.7 38.3c-.1.1-.1.2-.2.2-.1-.3-.2-.6-.3-1h .2c.1.3.2.6.3.8z" fill="#fd0"/><path d="m53.1 39.9.2.2c-.1.3-.2.5-.3.8-.1-.1-.1-.2-.2-.3.1-.2.2-.5.3-.7z" fill="#ffdc00"/><path d="m61.7 42.7c-.1 0-.2.1-.2.1-.3-.1-.3-.3-.3-.6-.1-.2-.1-.4 0-.6.3.3.4.7.5 1.1z" fill="#e3c047"/><path d="m68.1 57.4c.1-.1.1-.2.2-.3.1.3.3.7.4 1-.1.1-.2.1-.3 0-.1-.2-.2-.4-.3-.7z" fill="#ffdb00"/><path d="m42.2 64h .2c0 .4-.1.7-.3 1-.1-.1-.1-.2-.2-.3.1-.2.2-.4.3-.7z" fill="#fd0"/><path d="m45.5 57.2c0-.1 0-.2 0-.3.1-.2.2-.5.3-.7.1-.1.2-.1.2 0-.1.3-.1.8-.5 1z" fill="#ffdc00"/><path d="m50.3 55.6c.1.2.2.4.2.6-.2.2-.3.4-.5.5-.2-.4.1-.7.3-1.1z" fill="#f6d62a"/><path d="m60.8 41.4c-.1-.3-.2-.5-.3-.8 0-.1 0-.2.2-.2.1.3.2.5.3.8.1.2 0 .2-.2.2z" fill="#ffdc00"/><path d="m46.6 54.4c.1.1.1.2.2.3-.1.2-.2.5-.4.7-.1.1-.2.1-.3 0 .2-.4.3-.7.5-1z" fill="#ffdc00"/><path d="m50.6 85.6c.1-.1.2-.2.2-.3.2.4.3.7.5 1.1-.4-.1-.6-.4-.7-.8z" fill="#ffdc06"/><path d="m40.5 67.8c.1.1.1.2.2.3-.1.3-.2.6-.5.8-.2-.4.1-.7.3-1.1z" fill="#ffdb04"/><path d="m43.1 62.7c-.1-.1-.1-.2-.2-.2 0-.4.2-.7.5-.8.1.4-.1.7-.3 1z" fill="#fd0"/><path d="m70.6 62.5c-.1.1-.1.2-.2.2-.1-.3-.2-.6-.4-1 .1-.1.2-.1.2 0 .2.3.3.5.4.8z" fill="#ffde00"/><path d="m59.9 89.9c-.2-.5.2-.7.5-1 .1.5-.1.8-.5 1z" fill="#ffdc01"/><path d="m65.6 52c-.1-.3-.2-.5-.3-.8 0-.1 0-.2.2-.2.1.3.2.5.3.8s0 .3-.2.2z" fill="#fd0"/><path d="m69.3 60.2c.1-.1.1-.2.2-.3.1.3.3.7.4 1-.1.1-.2.1-.3 0 0-.2-.1-.4-.3-.7z" fill="#ffdc00"/><path d="m64.5 49c-.1.1-.1.2-.2.2-.1-.3-.2-.6-.3-1 .1-.1.2-.1.2 0 .1.3.2.6.3.8z" fill="#fd0"/><path d="m49.3 48.3.2.2c-.1.3-.2.5-.3.8-.2.1-.3 0-.2-.2.1-.3.2-.6.3-.8z" fill="#fd0"/><path d="m63.2 46.8c.1-.1.1-.2.2-.3.1.3.3.7.4 1-.1.1-.2.1-.3 0 0-.2-.1-.5-.3-.7z" fill="#ffdb00"/><path d="m44.4 59.9c-.1-.1-.1-.2-.2-.2.1-.3.2-.5.3-.8h.3c-.2.4-.3.7-.4 1z" fill="#fd0"/><path d="m50.3 46.5c0-.1 0-.2 0-.3.1-.2.2-.5.3-.7.1-.1.2-.1.2 0 0 .4-.1.8-.5 1z" fill="#fd0"/><path d="m51.4 43.7c.1.1.1.2.2.3-.1.2-.2.5-.4.7-.1.1-.2.1-.3 0 .2-.3.3-.7.5-1z" fill="#ffdc00"/><path d="m65.5 51.1c-.1.1-.1.1-.2.2-.2-.1-.2-.4-.3-.6 0-.1 0-.3.1-.4.1.2.3.5.4.8z" fill="#f5d62c"/><path d="m69.7 61h .3c.1.3.2.5.4.8-.1 0-.2 0-.2 0-.2-.3-.4-.6-.5-.8z" fill="#f7d72c"/><path d="m63.5 56.2v.6c-.1-.2-.3-.4-.4-.5.1-.2.2-.4.2-.6 0 .1.1.3.2.5z" fill="#f5d52f"/><path d="m73.5 70.4h.2c0 .4-.2.7-.5.9-.3-.5.2-.6.3-.9z" fill="#ffdb0f"/><path d="m72.6 66.8c-.1 0-.2 0-.3 0-.1-.1-.2-.3-.3-.4-.1-.2-.1-.4 0-.6.3.3.5.7.6 1z" fill="#dfca54"/><path d="m60.8 41.4c.1-.1.1-.2.2-.2.1.2.2.3.3.5v.6c-.2-.3-.4-.6-.5-.9z" fill="#f7c816"/><path d="m66.5 53.3c-.1 0-.2 0-.3 0-.1-.1-.2-.3-.3-.4-.1-.2-.1-.4 0-.6.4.3.6.7.6 1z" fill="#e1cb51"/><path d="m66.1 52.3v.6c-.1-.3-.3-.6-.4-.9.1-.1.1-.1.2-.2 0 .2.1.3.2.5z" fill="#f3bd19"/><path d="m63.6 47.5h.3c.1.3.2.5.4.8-.1 0-.2 0-.2 0-.2-.3-.4-.5-.5-.8z" fill="#f8d72a"/><path d="m47.8 51.8.2.2c-.1.3-.3.6-.4.9-.2-.2-.2-.4 0-.6 0-.1.1-.3.2-.5z" fill="#f7c815"/><path d="m48.5 50.6h-.2c0-.4.2-.8.5-1.1.2.2.1.4 0 .6s-.2.3-.3.5z" fill="#e1cb53"/><path d="m46.1 55.4h.3c-.1.3-.3.5-.4.8-.1 0-.2 0-.2 0 .1-.3.2-.6.3-.8z" fill="#f8d725"/><path d="m60.7 40.4c-.1.1-.1.1-.2.2-.2-.1-.2-.4-.3-.6 0-.1.1-.3.1-.4.2.2.3.5.4.8z" fill="#f6d62d"/><path d="m68.4 58.2h.3c.1.3.2.5.4.8-.1 0-.2 0-.2 0-.2-.3-.3-.6-.5-.8z" fill="#f9d727"/><path d="m47.5 52.3v.6c-.1.1-.2.3-.2.4-.1 0-.2 0-.3 0 .1-.3.2-.7.5-1z" fill="#e3c049"/><path d="m51 44.7h.3c-.1.3-.3.5-.4.8-.1 0-.2 0-.2 0 0-.3.1-.6.3-.8z" fill="#f8d727"/><path d="m72.2 65.8v.6c-.1-.3-.3-.6-.4-.9l.2-.2c0 .2.1.3.2.5z" fill="#f4be1b"/><path d="m48.8 50.1c0-.2 0-.4 0-.6.1-.2.2-.3.2-.5l.2.2c-.1.3-.3.6-.4.9z" fill="#f3bd17"/><path d="m56.8 17c .7 1.9 1.4 3.9 2.1 5.9 2.2.5 4.4 0 6.7.5-1.7 1.6-3.7 2.6-5.1 4.2.4 2.1 1.3 3.9 1.6 6-1.2-.3-1.9-1.1-2.8-1.7-3.1-2-2.1-2-5.2 0-.9.6-1.6 1.4-2.9 1.7.6-2.1 1.2-4 1.7-6-1.4-1.7-3.5-2.6-5-4.5h6.4c.8-2.2 1.5-4.2 2.2-6.1z" fill="#e73731"/></svg>