<svg viewBox="0 0 566.93 566.93" xmlns="http://www.w3.org/2000/svg"><circle cx="283.46" cy="283.46" fill="#d93831" r="269.29"/><g fill="#fff"><path d="m492 436.44c-6.38 11.22-15.18 20.53-24 29.79a227.65 227.65 0 0 1 -33.69 28.77c-1.8 1.28-3.55 2.63-5.9 2.67-10.47-.45-20.16-4-29.85-7.51-1.74-2.93.75-4 2.5-5 15.78-9.05 29.68-20.56 43-32.77 5.17-4.72 9-10.8 14.71-15 .76-.41 1.57-.7 2.37-1l-.13.05a119.13 119.13 0 0 1 30.99 0z"/><path d="m137.35 497.82c-18.57-11.44-34.23-26.2-48.46-42.56a150.81 150.81 0 0 1 -14.19-18.51c1.86-2.48 4.47-1 6.66-1 6.57-.09 13.17-.57 19.72.37l1.25.07a1.8 1.8 0 0 1 2.4 0 .81.81 0 0 0 .86.22 18.6 18.6 0 0 1 2.39 1c7.31 5.12 12.17 12.69 18.8 18.58a264.63 264.63 0 0 0 37.46 28.3c2 1.24 5.95 1.74 4.15 5.92-10.06 3.68-20.13 7.35-31.04 7.61z"/><path d="m402 449.57c1.81-3.22 4.74-5.31 7.47-7.65 17.1-14.69 32.67-30.74 44.3-50.26 2.62-.33 1.7 1.73 1.71 2.81.07 12.63 0 25.27.08 37.91 0 2.86-1.33 4.95-3 7-10.86 12.77-23.56 23.42-37.18 33.12a157.83 157.83 0 0 1 -15.66 10.12c-2.09 1.15-4.21 2.57-6.67.78-1.53-4.64 1-8.66 2.15-12.8 2.04-7.08 2.64-14.6 6.8-21.03z"/><path d="m113.15 391.66c13.17 21.87 30.93 39.55 50.64 55.45 3.92 4.18 4.4 9.77 5.6 14.89 1.66 7.06 5.48 13.7 4.53 21.31-2.42 1.92-4.59.56-6.64-.66-11.59-6.87-22.77-14.37-32.71-23.49-7.08-6.5-14.91-12.25-20.55-20.23-1.42-2-2.66-3.92-2.65-6.53.06-12.64 0-25.29.08-37.93 0-1.08-.91-3.14 1.7-2.81z"/><path d="m69.81 429.92c-12.81-18.92-22.4-39.48-30.13-60.92a1.89 1.89 0 0 1 1.85-1.26c9.89 1.84 19.94 3.21 28.74 8.71 5.73 9.65 9.85 20.16 15.91 29.67 3.82 5.88 7.43 11.88 11.67 17.49 1.38 1.83 3.37 3.6 2.06 7-9.36.36-18.93.08-28.49.14a1.61 1.61 0 0 1 -1.61-.83z"/><path d="m527.24 369c-7.71 21.46-17.35 42-30.11 60.93-5.06 2.36-10.37.09-15.51.84-4.92-.17-9.9.42-16.12-.6 5.09-9.91 11.88-17.79 16.94-26.69s9-18.4 14.32-27.14c8.81-5.32 18.78-6.81 28.65-8.6a1.87 1.87 0 0 1 1.83 1.26z"/><path d="m462 378.27a262.14 262.14 0 0 0 17.22-46.86c3-.08 2.78 2.52 3.24 4.21 3.4 12.61 7.29 25.1 10.07 37.89a13.16 13.16 0 0 1 -1.52 7.56 236 236 0 0 1 -22.22 38.57c-1.53 2.11-3 4.3-7.09 4.81-.02-15.45-1.87-30.8.3-46.18z"/><path d="m87.74 331.43c4.24 14.69 8.6 29.35 15.63 43 .46.88 1 1.72 1.48 2.58a3.36 3.36 0 0 1 .47 1.93 336.71 336.71 0 0 1 -.14 45c-3.54.53-5.06-1.74-6.55-3.78a231 231 0 0 1 -23.13-40.16 11.53 11.53 0 0 1 -1.07-6.47c2.84-12.77 6.64-25.29 10.07-37.91.5-1.68.24-4.29 3.24-4.19z"/><path d="m464.29 114.84c21.93 3.67 65.15 82.5 72.56 130.36-2.3 4-6.18 6.9-10.44 11.2a251.48 251.48 0 0 0 -20.57-75.69c-10.69-23.91-25.24-45.39-41.55-65.87z"/><path d="m40.71 256-11-10.18c9.74-52 32.52-96.4 71.33-132.1 1.89 4.71-1.89 6.66-3.94 9.16a257.38 257.38 0 0 0 -45.33 81.82 229.21 229.21 0 0 0 -11.06 51.3z"/><path d="m517.69 265.24-4.49 4.24c-4.39-2.88-6.94-6.38-7.54-11.68-5.18-45.78-23-86.19-52.25-121.66-2.29-2.77-2.3-2.75-3.15-6 21.66.76 69.62 96.35 67.43 135.1z"/><path d="m53.8 269.53-4.49-4.27c-3-36.88 41.11-126.2 66.83-135.75 2 2.6-.42 4-1.68 5.54-30.08 35.94-48.17 77-53.32 123.71-.54 4.86-3.37 7.9-7.34 10.77z"/><path d="m37.25 360.8c-4.73-16.31-8.73-32.8-9.66-49.8.17-.11.39-.34.5-.29 10.45 4.15 20.91 8.29 28.26 17.49a282.69 282.69 0 0 0 8.65 32.5c.9 2.61 2 5.32.2 8.05-4.78 1.67-9-1-13.23-2.18-5.08-1.37-10.77-1.48-14.72-5.77z"/><path d="m539.33 311c-.93 17.05-4.92 33.52-9.67 49.83-8.51 5.28-17.89 7.57-27.8 8-2-2.68-.83-5.41.07-8a279.58 279.58 0 0 0 8.59-32.53 7.11 7.11 0 0 1 2.64-3.93 213.83 213.83 0 0 1 23.92-13.73 2.13 2.13 0 0 1 2.25.36z"/><path d="m515.23 278c6.86-8.36 15-15.46 23.23-23.93 3.18 16.67 2 32.4 2.2 48.07-6.64 7.7-16 11.22-24.58 15.87-1.51.82-2.67-.17-3.19-1.76.06-11.69.75-23.36.89-35a5.46 5.46 0 0 1 1.45-3.25z"/><path d="m26.27 302.12c.13-15.57-.84-31.19 2.07-48.12l23 22.91a5.79 5.79 0 0 1 1.92 4.3c0 11.64.71 23.26.87 34.89-.55 1.89-2 2.76-3.61 1.8-8.38-4.83-17.83-7.99-24.25-15.78z"/><path d="m75 249.23c-2.43-28.66 37.89-99.68 60.37-108.4 1.7 2.45-.6 3.67-1.72 5-20.76 25.32-36.39 53.26-44.07 85.34-1.93 7.83-9.01 11.33-14.58 18.06z"/><path d="m491.82 248.33c-7.53-6.64-13.67-12.6-16.08-22.49-7.21-29.56-22.42-55.2-41.36-78.75-1.39-1.73-3.76-3.08-3.22-6 20.38 4.17 64.3 81.21 60.66 107.24z"/><path d="m481.64 313.83c1.73-8.91 1.71-18 2.41-27 3.24-.33 3.66 2.64 4.7 4.43 5.95 10.24 12 20.43 17.66 30.84a15.36 15.36 0 0 1 1.3 3.42 7.05 7.05 0 0 1 .08 1.89 229.73 229.73 0 0 1 -7.8 30.81c-.86 2.78-1.19 6.54-5.49 6.75-3.17-4.19-3.39-9.41-4.67-14.2-3.26-12.17-7.58-24.15-8.19-36.94z"/><path d="m82.87 286.86c.71 9 .68 18.07 2.41 27-1.11 16.17-7 31.23-10.71 46.82a8.52 8.52 0 0 1 -2.1 4.27c-4.09.06-4.53-3.47-5.33-6-3.27-10.47-6.42-21-8-31.88.41-4.79 3.41-8.42 5.61-12.4 4.25-7.69 8.67-15.28 13.09-22.86 1.16-2.01 1.58-5.18 5.03-4.95z"/><path d="m484 274.17-3.69-25.83 1.63-1.2 27.33 28.46c3.07 8.84 2.59 31.4-.81 38.35-1.34 1-2.34.22-3-.84-7.28-12.89-15.96-25.03-21.46-38.94z"/><path d="m57.65 275.6 27.35-28.39 1.56 1.13-3.69 25.83c-2.85 9.55-9.22 17.25-13.78 25.9a97.67 97.67 0 0 1 -6.62 11.42c-.93 1.29-1.36 3.67-3.95 2.56a5.27 5.27 0 0 1 -1.62-3.14c-.9-11.79-3.29-23.62.75-35.31z"/></g><path d="m59.91 313.65c7.4-13.32 14.72-26.68 23-39.48.73 4.23-1.38 8.45 0 12.69-8.21 12.78-15.82 25.9-22.72 39.44-1.22 2.18-2.87 2.68-5 1.26-8.41-6.89-18.19-11.4-27.6-16.56l-1.32-8.87 26.24 15.6c2.1-2.03 5.06-2.49 7.4-4.08z" fill="#d63831"/><path d="m335.1 538.15c30.86-6.26 59.38-18.36 86.28-34.52-.23-3.19-2.89-3.49-5.1-4.17-7.44-2.32-15-4.13-22.5-6.26-2.26-.64-4.81-.78-6.65-4.1 1.43-7 3.44-14.72 5.53-22.39.93-3.41 2.65-6.77 1.38-10.48-.61-.84-1.25-1.54-2.38-.77-23.85 15.35-49.69 25.37-77.86 29.18a1.48 1.48 0 0 0 -.46.93l-3 .14-.06-.16a9.63 9.63 0 0 0 -2.58.07c-1.8.13-3.61.23-5.41.39-45.78 4.09-88.22-5.68-127-30.56-1.15-.75-1.8 0-2.39.83-.93 2.22-.31 4.39.29 6.51 2 7 3.87 14 5.5 21 .53 2.3 1.65 4.63.16 7.05-1.65 1.62-3.91 1.86-6 2.46-7.36 2.08-14.8 3.84-22.1 6.13-2.21.7-4.93 1-5.13 4.2 2.09 1.17 4.19 2.33 6.27 3.53 41.84 24.23 86.74 37 135.28 36.31a157.57 157.57 0 0 0 32.73-2.85 3.85 3.85 0 0 0 2.2-.44c4.42.11 8.68-1.18 13-2.03zm-16.4 1.34c0 .16-.09.31-.13.47h-.37z" fill="#fff"/><path d="m325.46 503.36a14.43 14.43 0 0 1 1.38 8.65c-2.24.49-4.34 1.08-6.48 1.39-4.73.67-9.49 1.21-14.34 1.81-1.69-2.56-.2-5.69-2.52-8.35 7.58-2.01 14.64-2.64 21.96-3.5z" fill="#fdfdfd"/><path d="m455.63 298.83-134.39 31.84-37.78 49.11-37.77-49.11-134.39-31.84 102.54 96.6 38.86-12.41-23.2 22.67 53.96 29.14 53.97-29.14-23.2-22.67 38.85 12.41z" fill="#fff"/><path d="m283.46 339.91-25.97-5.06 20.24 16.6 5.73 15.38 5.74-15.38 20.24-16.6z" fill="#fff"/><path d="m283.46 245.49-40.9 21.51 7.81-45.55-33.09-32.26 45.73-6.65 20.45-41.44 20.46 41.44 45.73 6.65-33.09 32.26 7.81 45.55z" fill="#fd0"/><path d="m381.2 258.08-24.83 13.06 4.74-27.65-20.08-19.58 27.76-4.04 12.41-25.15 12.42 25.15 27.76 4.04-20.09 19.58 4.74 27.65z" fill="#fd0"/><path d="m185.74 258.08-24.83 13.06 4.74-27.65-20.09-19.58 27.76-4.04 12.42-25.15 12.41 25.15 27.76 4.04-20.09 19.58 4.75 27.65z" fill="#fd0"/><text fill="#fefefe" font-family="MicrosoftJhengHeiUIBold, Microsoft JhengHei UI" font-size="87.83" font-weight="700" transform="matrix(.99 -.17 .17 .99 201.14 118.93)">刀</text><text fill="#fefefe" font-family="MicrosoftJhengHeiUIBold, Microsoft JhengHei UI" font-size="87.83" font-weight="700" transform="matrix(.97625822 .21661001 -.21661001 .97625822 282.74 103.82)">鹰</text><text fill="#fefefe" font-family="MicrosoftJhengHeiUIBold, Microsoft JhengHei UI" font-size="87.83" font-weight="700" transform="matrix(.99 -.17 .17 .99 201.14 717.4)">刀</text><text fill="#fefefe" font-family="MicrosoftJhengHeiUIBold, Microsoft JhengHei UI" font-size="87.83" font-weight="700" transform="matrix(.97625822 .21661001 -.21661001 .97625822 282.74 702.29)">鹰</text><path d="m218.9 519.67 18.47 4.33 3-12.76-15.19-3.54 1.48-6.33 15.19 3.55 2.24-9.61-16.51-3.85 1.49-6.38 41.26 9.62-1.49 6.38-17.72-4.14-2.24 9.62 16.59 3.86-1.47 6.31-16.6-3.87-3 12.76 19.6 4.55-1.48 6.33-45.1-10.5zm30.79-2.56 5.62-2.25q3 6 5.05 10.37l-6.36 2.33q-1.92-5.19-4.31-10.45z" fill="#d93831"/><path d="m292.49 496.35 19.6-2.83c-.84-1.47-1.58-2.72-2.22-3.77l8-2q1 1.81 2.37 4.62l18.92-2.74.85 5.91-46.69 6.75zm14.51 25.1 5.62 3.56q-4.06 5.18-10.16 11.49-2.82-2.41-5.18-4.21a87.85 87.85 0 0 0 9.72-10.84zm31-5.31-14.11 2 1.23 8.48a8.27 8.27 0 0 1 -.55 4.9 6 6 0 0 1 -3.18 2.9c-1.47.63-4.57 1.28-9.31 2a43.29 43.29 0 0 0 -2.57-6.73q3.33-.19 6.09-.59c1.68-.25 2.4-1.24 2.15-3l-1-6.91-15.75 2.3-2.46-17 37-5.35zm-7.72-4.91-.75-5.2-23.25 3.36.75 5.2zm1.14 7.18q6.92 3.42 13 6.72l-3.62 5.93q-5.3-3.33-12.75-7.45z" fill="#d93831"/><path d="m313.8 484.64a1.61 1.61 0 0 0 -.12.92c-1.2 1.27-2.47 1.1-3.78.17l-2.22-.11c2.84-.39 3.32-.46 6.12-.98z" fill="#fff"/></svg>