<svg enable-background="new 0 0 113.4 113.4" viewBox="0 0 113.4 113.4" xmlns="http://www.w3.org/2000/svg"><path d="m113.4 56.7c0 31.3-25.4 56.7-56.8 56.7-31.2 0-56.7-25.5-56.6-56.7 0-31.3 25.5-56.7 57-56.7 31 0 56.4 25.5 56.4 56.7zm-44.9 18.9c.1.1.2.2.2.3-.5 4.6-1.6 9.1-3 13.5-2.2.7-4.4.9-6.5 1.3v7.4c20.5-1 38.5-18.9 38.2-41.4-.3-23-19-39.6-38.2-40.3v7.4c5.9.5 11.1 2.3 16.1 5.7-4.1 1.6-7.6 3.8-10.7 6.6-4.3-4.6-9.3-8.4-14.5-11.8 1.7-.6 3.2-.4 4.7-.5 0-2.6 0-5 0-7.5-19.4.4-37.9 16.2-39.1 38.6-1.3 24.2 17.9 42.6 39.1 43.2 0-2.5 0-5 0-7.5-.3 0-.6 0-.8 0s-.5 0-1.1-.1c6.5-3.8 11.4-9 15.6-14.9z" fill="#111110"/><path d="m68.5 75.6c-4.2 5.8-9.1 11.1-15.7 14.9.6.1.9.1 1.1.1h.8v7.5c-21.1-.6-40.4-19-39.1-43.2 1.3-22.4 19.8-38.2 39.1-38.7v7.5c-1.5.2-3.1 0-4.7.5 5.3 3.5 10.3 7.2 14.5 11.8 3.2-2.8 6.6-5 10.7-6.6-5-3.4-10.3-5.2-16.1-5.7 0-2.5 0-5 0-7.4 19.2.8 37.9 17.4 38.2 40.3.3 22.6-17.7 40.4-38.2 41.4 0-2.4 0-4.9 0-7.4 2.2-.4 4.4-.6 6.5-1.3 1.4-4.4 2.5-8.9 3-13.5.1 0 0-.1-.1-.2 0 .2.1.2.3 0-.1 0-.2 0-.3 0zm17-2.4c-3.2 1.2-6.4 2.4-9.8 3.3-.5 3.1-1.2 6.1-2 9.4 5.2-3.2 9.2-7.3 11.9-12.5 0-.1 0-.2.1-.3-.1-.1-.1-.1-.2-.2zm-38.7-43.3c-1.3-1-2.9-1.6-4.4-2.4-.5-.2-.8-.1-1.2.2-1.1.3-2.2.6-3 1.5-2.3 1-4.1 2.8-5.7 4.6-8.1 8.7-11.1 19-8.6 30.6 2.2 10.2 8.2 17.8 17.5 22.7.6.3 1.2.7 1.9.4 2.1-.7 4.3-1.5 6.3-2.6-.3-2.4-.6-4.9-.9-7.3-.1-1.4-.1-2.8-.2-4.2-.1-1.7-.1-3.5-.2-5.2.3-3.2.6-6.3 1.1-9.4.8-2.6 1.4-5.1 2.6-7.6 1.8-4 4.4-7.5 7.5-10.6-.9-1.3-2-2.3-3-3.3-2.8-3-6-5.4-9.7-7.4zm16.5 15.7c-2 1.8-4.7 6.4-6 10-2.1 5.9-2.6 11.9-2.4 18.1.1 2.4.2 4.8.5 7.3.4-.3.6-.4.8-.6 5.2-4.4 9-9.9 12.2-15.8.4-.8.6-1.6.4-2.4-.3-2-.6-3.9-1.1-5.9-1-3.7-2.5-7.2-4.4-10.7zm12.5 12.7c5.1-3.2 9.2-7.2 12.1-12.4-1-2.7-2.2-5.2-3.9-7.6-2.7 4.7-6.1 8.6-10.4 11.8 1 2.7 1.8 5.3 2.2 8.2zm13.9-3.9c-3.7 4.7-8.2 8-13.2 10.6v5.1c4.7-1.5 9-3.5 12.7-6.4.6-3 .8-6 .5-9.3zm-18.9-10.1c3.1-2.6 5.7-5.6 7.9-9.4-3.9 1.5-7.1 3.5-10.1 6 .8 1.1 1.5 2.2 2.2 3.4z" fill="#fefdfd"/><path d="m48.8 77.6c.3 2.4.6 4.9.9 7.3-2.1 1.1-4.2 1.9-6.3 2.6-.7.2-1.3-.1-1.9-.4-9.4-4.9-15.3-12.4-17.6-22.6-2.5-11.6.5-21.9 8.6-30.6 1.7-1.8 3.4-3.5 5.7-4.6-.3.9-.5 1.9-.8 2.8-2.2 8.5-3.4 17-1.4 25.7 1.9 8.1 6.2 14.7 12.8 19.8z" fill="#fecc00"/><path d="m63.3 45.6c1.9 3.4 3.4 7 4.4 10.8.5 1.9.8 3.9 1.1 5.9.1.9 0 1.6-.4 2.4-3.2 5.9-7 11.4-12.2 15.8-.2.2-.5.3-.8.6-.3-2.5-.4-4.9-.5-7.3-.2-6.2.3-12.2 2.4-18.1 1.3-3.7 4-8.2 6-10.1z" fill="#b1cb15"/><path d="m48.8 77.6c-6.6-5.1-10.9-11.7-12.7-19.8-2-8.7-.8-17.2 1.4-25.7.2-.9.5-1.9.8-2.8.8-1 1.9-1.2 3-1.5-.8 4.7-1.3 9.4-1.4 14.1-.1 9.8 2.2 18.7 8.6 26.4.1 1.7.1 3.5.2 5.2 0 1.3.1 2.7.1 4.1z" fill="#111110"/><path d="m48.5 68.2c-6.4-7.6-8.7-16.6-8.6-26.4.1-4.7.6-9.4 1.4-14.1.3-.3.7-.4 1.2-.2 1.5.8 3.1 1.4 4.4 2.4-.7 2.9-1 5.9-1.2 8.9-.3 7 .6 13.7 3.9 19.9-.6 3.2-.9 6.3-1.1 9.5z" fill="#fecc00"/><path d="m49.6 58.7c-3.3-6.3-4.2-13-3.9-19.9.1-3 .5-5.9 1.2-8.9 3.6 1.9 6.9 4.4 9.8 7.3 1 1 2.1 2.1 3 3.3-3.1 3.1-5.7 6.6-7.5 10.6-1.2 2.5-1.9 5.1-2.6 7.6z" fill="#111110"/><g fill="#e41717"><path d="m75.8 58.3c-.5-2.9-1.2-5.6-2.2-8.2 4.3-3.2 7.7-7.1 10.4-11.8 1.7 2.4 2.9 4.9 3.9 7.6-2.9 5.2-6.9 9.2-12.1 12.4z"/><path d="m89.7 54.4c.3 3.3.1 6.2-.5 9.3-3.8 2.9-8.1 4.9-12.7 6.4 0-1.7 0-3.4 0-5.1 5-2.6 9.5-5.8 13.2-10.6z"/><path d="m85.7 73.3c-2.8 5.3-6.8 9.3-12 12.6.8-3.2 1.4-6.3 2-9.4 3.4-.9 6.6-2.1 9.8-3.3 0 0 .1.1.2.1z"/><path d="m70.8 44.3c-.8-1.2-1.5-2.3-2.2-3.4 3-2.5 6.2-4.6 10.1-6-2.1 3.8-4.7 6.8-7.9 9.4z"/><path d="m85.5 73.2c0-.1 0-.2.1-.3l.2.2c0 .1 0 .2-.1.3-.1-.1-.2-.2-.2-.2z"/></g><path d="m68.5 75.6h.3c-.2.2-.2.2-.3 0z" fill="#111110"/></svg>