<svg enable-background="new 0 0 113.5 113.4" viewBox="0 0 113.5 113.4" xmlns="http://www.w3.org/2000/svg"><path d="m96.7 96.8c-2.4 2.7-5.3 5-8.4 7-7.5 5.1-15.8 8.2-24.9 9.2-10.2 1.2-20.2-.1-29.5-4.5-17.7-8.2-28.9-21.8-32.7-40.9-3.7-19 1.3-35.8 14.6-50 .8-.9 1.7-1.7 2.6-2.5.1-.1.2-.2.3-.3 4.1-4 8.9-7 14-9.4 8.9-4.2 18.4-6 28.2-5.2 13.8 1 25.8 6.4 35.7 16.2 9.3 9.2 14.9 20.4 16.5 33.4 1.8 14.8-1.8 28.2-10.4 40.3-1.7 2.3-3.5 4.5-5.6 6.4-.2 0-.3.1-.4.3z" fill="#b0ca0e"/><path d="m96.7 96.8c0-.2.1-.3.3-.3-.1.1-.2.2-.3.3z" fill="#f3cf00"/><path d="m18.7 14.9c-.1.1-.2.2-.3.3.1-.1.2-.2.3-.3z" fill="#f8d00f"/><path d="m95.4 41.2c-4.9 4.9-9.9 9.9-14.9 14.9 5.1 5 10.2 10.1 15.2 15.1-4.3 13.1-17.7 26.1-35.9 27.3-20.1 1.3-36.3-11.4-41.9-27.5 5-5 10-10 15.1-15.1-4.9-4.9-9.8-9.8-14.6-14.6 4.2-12.5 17.6-25.2 35.4-26.4 21-1.5 36.4 12.2 41.6 26.3z" fill="#fff"/><path d="m30.7 97c .4.5 1.1.3 1.6.4 2 .4 2.5 1.2 1.9 3.2.6.3 1.2.6 1.8 1 .7-.6.5-1.3.4-2 .2-.3.4-.5.7-.5.5.4 0 2-1.2 3.7-3.7-1.5-7-3.7-10-6.2-.1-1.3.6-2 1.1-2.7.2 0 .4 0 .3.3-.1.5-.6.9-.5 1.5 1.5 1.7 2.3 1.9 3.6 1 .3 0 .4 0 .3.3z" fill="#fdfefc"/><path d="m52.6 106c .4-.8-.1-1.4-.3-2 .1-.3.2-.6.6-.8.7.9.3 1.9.4 3 .7.1 1.4.1 2.1.2.4-.8 0-1.4-.4-2 0-.3.1-.6.6-.8.9 1.2.4 2.5.4 3.9-2.6.2-5.1-.4-7.5-.8-.8-2.4.5-4.6-.1-6.8.2-.3.4-.7.9-.8.4 2.2-.8 4.3-.3 6.5 1.2.2 2.3.4 3.6.4z" fill="#fdfdfa"/><path d="m60.4 107.5c.3.7.9.9 1.6.9 1.7-.1 3.1-.7 4.6-2-.9-.3-1.6.2-2.3 0-.7-.5-.4-1.1-.2-1.7.1-.1.2-.1.3 0v .6c.8.3 1.6-.3 2.5.1.4 1 .1 1.9-.8 2.7-1.3 1.2-3 1.6-4.7 1.4-1.3-.1-1.6-1-1.5-3 .7 0 .1.7.5 1z" fill="#fcfdf9"/><path d="m72.9 100.5c0-.1-.1-.2-.1-.3s-.1-.2-.2-.3c-.2-.8-.7-1.3-1.3-1.9 0-.3.1-.7.1-1.3 1.7 1.7 1.8 4.2 3.5 5.8 1.1-.6 2.5-.5 3.3-1.8-.1-.3 0-.3.3-.3.2.4.5.9.8 1.5-1.4.6-2.6 1.6-4.1 1.6-.8-.3-1-.9-1.3-1.3 0-.1-.1-.2-.2-.3-.2-.1-.1-.4-.3-.5-.1-.1-.1-.4-.2-.5-.2 0-.1-.2-.3-.4z" fill="#fcfdf8"/><path d="m19.7 95.6c0-.1.1-.2.1-.4 1.5-2.8 1.9-3 4.6-1.5.1-.9.1-.9-1-1.5.7-.5 1.3-.5 1.9.1.6.8.2 2.3-.7 3.1-1-.7-1.7-1.7-2.9-1.9-1 .5-1 1.6-1.7 2.3-.3.2-.4.1-.3-.2z" fill="#fcfdf9"/><path d="m73.4 102.6c0 .1 0 .2.1.2.1.2.1.4.2.5.1.8.4 1.5.1 2.4-.9 2.3-2.3 3-4.9 2.3 2.2-.1 3.6-1.2 4.3-3.2.4-1.3-.5-2.1-1.4-2.7 0-.4-.2-.9.3-1 .1 0 .2.1.3.2.1.1.2.2.3.2.1.1.1.2.2.2.1.1.2.2.2.3.3.2.2.5.3.6z" fill="#fbfcf7"/><path d="m39.7 103.9c.4-1.1 1.3-1.9 2-2.9.7.6 1.3 1.2 1.5 2.1-.2.8-.5 1.6-1.5 1.8-.8.1-1.6-.1-2-1z" fill="#fbfcf5"/><path d="m30.7 97c-.1-.1-.1-.2-.2-.2 1.2-1.6 1.5-3.6 2.4-5.5.4.6.6.9.9 1.3-.1.7-.7.8-1.1 1.1-.5 1.1-.9 2.4-2 3.3z" fill="#f9faf0"/><path d="m87 95.4c.3.3.6.7.8 1.2-.9.7-1.8 1.3-2.7 2-.5 0-.6-.4-.7-.8.6-.9 1.9-1.1 2.4-2.2-.2-.1-.1-.2.2-.2z" fill="#fbfcf6"/><path d="m47.1 105.8c0 .2-.1.4-.1.7-1.2-.3-2.4-.4-3.3-1-.3-.5-.3-.9.1-1.3.8.7 1.9.6 2.8 1 .3.1.7 0 .5.6z" fill="#fcfcf7"/><path d="m47.1 105.8c-.2-.2-.4-.4-.6-.6.8-1 .7-2-.5-3.3 0-.4.1-.7.4-1.1 1.6 1.5 1.3 3.2.7 5z" fill="#f7f9eb"/><path d="m64.3 104.7c-.1 0-.2 0-.3 0 .6-1.8 1.2-2.3 2.6-2.3.1.2.3.4.4.6s0 .4.1.9c-1.5-1.1-2.1-.1-2.8.8z" fill="#fafbf3"/><path d="m27.4 94.2c-.1-.1-.2-.2-.3-.3.6-1.2 1.8-2.1 1.8-3.5.4-.2.7-.4 1.3-.3-.7 1.6-1.7 2.8-2.8 4.1z" fill="#f9fbf1"/><path d="m78.5 100.6c-.1.1-.2.2-.3.3-.4-.4-.8-.9-1.3-1-.3-.4-.2-.7-.1-1.1 1.1.2 1.4.9 1.7 1.8z" fill="#f6f8e8"/><path d="m87 95.4c-.1.1-.2.2-.3.3-.5-.4-1-.8-1.6-.9-.2-.3-.3-.7-.1-1 1 .1 1.5.9 2 1.6z" fill="#f9fbf1"/><path d="m78.1 104.6c-.1-1 .4-1 1-.9.3.4.3.7.1 1-.4.2-.7.2-1.1-.1z" fill="#eff3d7"/><path d="m82.9 91.7c.4-.1.7-.1 1-.2.4.3.3.6.2.9-.3.3-.6.3-.9.2-.4-.2-.2-.6-.3-.9z" fill="#f5f8e6"/><path d="m54.3 109.5c.2-.3.3-.7.5-1 .5 0 .8.2 1 .5 0 .3-.2.6-.4.8-.4 0-.8-.2-1.1-.3z" fill="#f0f4d9"/><path d="m54.2 109.5c.1.4-.2.6-.4.9-.4 0-.6-.2-.9-.5-.1-.4.1-.6.4-.9.4.2.7.3.9.5z" fill="#f7f9ea"/><path d="m37 97c .2-.2.5-.3.6-.4.5.1.5.6.7.8-.2.3-.4.5-.8.6-.2-.3-.4-.6-.5-1z" fill="#f7f9eb"/><path d="m64 110.5c-.1.3-.2.6-.3.9-.4.1-.7-.1-1-.3-.1-.4 0-.6.2-.9.4 0 .7.3 1.1.3z" fill="#f7f9ed"/><path d="m54.7 110.2c.3.2.5.3.7.5.1.4-.1.6-.3.8-.5.1-.7-.2-.9-.4 0-.4.1-.6.5-.9z" fill="#f8faf1"/><path d="m64 110.5c-.1-.4 0-.7.3-1 .4-.1.7.1.9.3.1.3 0 .6-.2.8-.4.2-.7-.2-1-.1z" fill="#f8faee"/><path d="m52.8 108.6c0 .3-.2.5-.5.7-.4 0-.6-.2-.8-.5-.1-.4.2-.6.4-.8.4 0 .7.2.9.6z" fill="#f3f6e1"/><path d="m35.2 95.7c-.4.2-.6.3-.8.4-.4-.2-.5-.5-.6-.9.2-.3.4-.4.8-.4.3.2.3.6.6.9z" fill="#f8faee"/><path d="m82.2 92.9c.3 0 .6-.1.8-.1.4.3.4.6.3.9-.3.3-.6.2-.9.2-.4-.2-.3-.5-.2-1z" fill="#f7f9eb"/><path d="m50.7 109.7c-.4-.2-.7-.3-.8-.6.1-.3.2-.5.5-.7.3 0 .6.2.8.5 0 .4-.2.6-.5.8z" fill="#f9faf1"/><path d="m60.4 107.5c-.4-.2-.1-.8-.5-1 .1-.5.1-1.1.5-1.6.1-.1.2-.1.2 0-.2.8-.3 1.7-.2 2.6z" fill="#ebf0c8"/><path d="m19.7 95.6c.1.1.2.2.3.3-.1.3-.3.5-.7.6-.1-.3.2-.6.4-.9z" fill="#edf2ce"/><path d="m72.9 100.5c.2.1.3.3.2.5-.1-.1-.2-.2-.2-.5z" fill="#bad03b"/><path d="m73.4 102.6c-.1-.2-.2-.3-.3-.5h.3z" fill="#bad03b"/><path d="m73.2 101.1c.2.1.3.3.2.5-.2-.1-.2-.3-.2-.5z" fill="#bad03b"/><path d="m73.4 101.6c.2.1.3.3.3.5-.1 0-.2 0-.3 0 0-.2 0-.3 0-.5z" fill="#bad03b"/><path d="m73.7 103.4c-.2-.1-.2-.3-.2-.5.2.1.2.3.2.5z" fill="#bad03b"/><path d="m60.6 104.9c-.1 0-.2 0-.2 0 0-.1.1-.2.1-.3.2 0 .1.2.1.3z" fill="#fefdf4"/><g fill="#bad03b"><path d="m72.4 101.3c-.1-.1-.2-.2-.3-.2.1.1.2.1.3.2z"/><path d="m72.7 101.5c-.1-.1-.2-.2-.3-.2.1.1.2.2.3.2z"/><path d="m72.9 101.8c-.1-.1-.2-.2-.2-.2.1 0 .1.1.2.2z"/><path d="m73.2 102.1c-.1-.1-.1-.2-.2-.3 0 .1.1.2.2.3z"/><path d="m73.7 102.1c.1.1.1.2.2.3-.1-.1-.2-.2-.2-.3z"/><path d="m72.7 100c .1.1.1.2.2.3-.1-.1-.2-.2-.2-.3z"/></g><path d="m65.3 59c-.4 3.8-.1 7.6-.2 11.3 0 1.2 0 2.4-.2 3.6-.8 5.1-3.9 8-9.5 9-3.1.6-6.3.4-9.4-.4-3-.8-5.9-2.1-8.7-3.6-.2-.6.7-.7.5-1.2-.1-.2-.2-.4-.2-.6 0-.1 0-.2 0-.3.1-.3.1-.5 0-.8 0-.3 0-.6 0-1 0-.1 0-.2 0-.3.1-.2.1-.5 0-.7 0-.1 0-.2 0-.3.1-.3 0-.6-.1-.9.3-.8.9-.3 1.4-.3 3.6 0 7.2.3 10.8-.5 2.6-.5 3.2-1.3 3.2-3.9 0-2.5 0-5 0-7.5-.1-.5-.8-.6-.8-1.1-.2-1 0-2.1-.1-3.2.1-.5.5-.4.8-.3.5.1.9.1 1.4 0 2.9-.1 5.8 0 8.7 0 .6 0 1.1.2 1.7.1h.3c.5.7 0 1.5.4 2.2.1.2.1.4 0 .7z" fill="#b0ca0e"/><path d="m56 39.7c0-1.8 0-3.7 0-5.5 0-1-.2-1.9-.9-2.7-.2 0-.4 0-.7 0-1.6-.1-2.2-1-1.3-2.3.9-1.4 2-2.7 2.9-4 .5 0 .8-.1 1.3-.1.4-.4.8-.8 1.3-1.2.5.4.9.8 1.3 1.2.3 0 .7.1 1.2.1 1.2 1.5 2.7 2.9 3.4 4.8.3.8-.2 1.3-1 1.5-.4.1-.8.1-1.3.1-.7.7-.9 1.5-.9 2.4v6.3c-.1.1-.1.1-.2 0-1-1-2.3-.7-3.6-.7-.4 0-.8.2-1.2.2-.1 0-.2 0-.3-.1z" fill="#b0cb0f"/><path d="m63.1 49.2h.6c.4.1.9-.2 1.1.4 0 .5-.4.6-.8.7-3.7.4-7.3.6-11-.1-.1 0-.2-.1-.3-.2-.4-.4-.3-.9-.5-1.3 0-.1-.1-.3-.1-.4 0-.3 0-.6.1-.8.2-.2.4-.3.7-.2s.3.5.4.8c.3-.2 0-.5.2-.6.6 0 .8.3.9 1 .2-.7.6-.8 1-.8.2-.1.3-.1.5.1 0 .1 0 .2-.1.3s-.2.1-.2.2c.1.1.3 0 .4 0 .2-.1.3-.4.4-.6 0-.1.1-.2.2-.2.5.5 1.4 0 1.8.7-.1.1-.1.2-.2.3.2.2.4.1.6 0 .1-.2-.1-.2-.2-.4.4-.5.8-.3 1.3-.2.2-.1.4 0 .6.1.5.5 1.1.1 1.6.1.2.6.8.7 1 1.1z" fill="#fdfefb"/><path d="m38.1 77.5c.5.8-.4 1-.7 1.3-.3-.1-.7-.3-1-.4-1.3-.6-2.4-1.4-2.2-3 .1-1.4 1.4-2.6 3-3l .1.1c0 .2 0 .3-.1.5-.1.1-.2.3-.3.3-.1.1-.3.1-.4.2s-.1.1-.2.2-.1.2-.2.4c-.1.1-.2.2-.3.3s-.1.1-.2.2l-.1.1c0 .1-.1.1-.1.2s0 .2 0 .3c.1.1.2.2.3.2.1.1.3.2.3.3s.1.2.1.3v.6.3c0 .1.1.2.2.3.1 0 .2.1.3.1.2.1.3.2.5.1h.3c.1.1.2.2.3.3l-.1.1h.1c.1-.2.2-.3.4-.3z" fill="#b3cc22"/><path d="m65.3 59c0-.3-.1-.6-.1-.9-.4-3.2-.3-6.3-.3-9.5 0-.2 0-.3 0-.5s0-.3 0-.5c-.3-.3-1 .2-1.1-.5.9-1.1.4-2-.5-2.8 0-.2.1-.2.3-.3.9.3 1.5.9 1.5 1.8.4 4.4.4 8.8.2 13.2z" fill="#b7ce2d"/><path d="m52.5 47.4c0 .2-.1.5-.1.7-.1.2-.1.4 0 .5.1.6.1 1.3.2 1.9v.4c0 .5-.1 1.1.1 1.6.4.6 1.5.2 1.6 1.2-.4.5-1.2.1-1.5.6-.2 0-.3-.1-.3.2.1.5.2 1-.2 1.5 0 1.1 0 2.3-.1 3.4-.3-.2-.2-.5-.2-.8 0-4 0-7.9 0-11.9 0-.3 0-.7.2-1 .5.5.4 1.1.3 1.7z" fill="#c2d447"/><path d="m54 43.8c.5-.6.9-1.1 1.4-1.8.4.3.8.6 1.2 1-.3.5-.6.9-.8 1.4-.6-.1-1.2-.2-1.8-.1-.1.1-.2.1-.3.1s-.2 0-.3-.1 0-.2 0-.2c.1-.1.1-.1.2-.1.2 0 .3-.1.4-.2z" fill="#b6cd2b"/><path d="m63.7 44.1c-.1.1-.2.2-.3.3-.6-.1-1.2-.2-1.8.1-.3-.4-.6-.9-.8-1.3.2-.5.6-.6.9-1 .1-.1.2-.2.3-.2.5.7 1 1.5 1.7 2.1z" fill="#b4cd27"/><path d="m53.5 44.3h.2s.1.1.1.1 0 .1-.1.1c0 .1-.1.1-.2.1-.2 0-.2.1-.3.3-.4.7-.4 1.5 0 2.2.1.1.1.2 0 .3-.2 0-.5 0-.7 0-.6-.4-.2-1.1-.4-1.6 0-.7.4-1.2 1-1.5.2-.1.3-.1.4 0z" fill="#b7ce2f"/><path d="m58.9 48.1c.3.1.7-.1 1 .2-.8.8-1.5.9-2.3.1.3-.4.8-.1 1.1-.3z" fill="#b7ce2e"/><path d="m53.2 47.4c0-.1 0-.2 0-.3.1.1.3.2.4.3 0 .4.5.4.6.7-.2.4-.4.6-.8.4-.4-.3-.4-.7-.2-1.1z" fill="#cfdc76"/><path d="m62.4 48.1c-.6.6-1.2 1-1.8 0 .3-.8.8-.5 1.3-.3.2.1.3.2.5.3z" fill="#bdd13e"/><path d="m63.9 47.1c.2.5.9 0 1.1.5-.5 0-.4.6-.7.7-.3-.4-.8-.2-1.2-.4 0-.5.5-.5.8-.8z" fill="#fafbf2"/><path d="m63 47.9c.4-.1.7-.1 1-.2.4.2.2.4.2.6-.2.1-.4.2-.6.2-.4 0-.5-.3-.6-.6z" fill="#c2d450"/><path d="m39 72.4c-.4 0-.7 0-1.2.1 0 .2 0 .3.1.5-.1.3-.4.4-.7.3-.1-.1-.2-.1-.2-.3s.3-.3.1-.6l-.1-.1c.7-.2 1.3-.2 2 .1z" fill="#b3cc22"/><path d="m60.5 47.6c.2-.2.3-.4.5-.7.2.2.4.3.6.4-.3.5-.3.5-1.1.3z" fill="#c9d75e"/><path d="m60.5 47.6c.4 0 .9.3 1.2-.2.2.1.3.3.3.5-.4.2-.9-.1-1.3.3-.2-.1-.3-.2-.5-.3 0-.1.1-.2.3-.3z" fill="#f8f9eb"/><path d="m56 39.7c.1 0 .2 0 .4.1 0 .1-.1.3-.1.4-.3.3.1.8-.3 1h-.1-.1c-.1 0-.1-.1-.1-.2s0-.1 0-.1c.1-.4.2-.8.3-1.2z" fill="#bfd247"/><path d="m56.8 47.4v.2c-.2.3-.5.3-.8.1-.1 0-.3-.1-.4-.1.1-.2.3-.4.3-.4.5-.2.6.1.9.2z" fill="#c1d44f"/><path d="m56 41.2c.1-.3-.1-.7.3-1 .1.3.1.5.2.8-.1.2-.3.2-.5.2z" fill="#e5ebb6"/><path d="m61.4 41.2c-.3 0-.7.1-.8-.3.1-.4.5.1.6-.2.2-.1.3 0 .4.2-.1.2-.1.3-.2.3z" fill="#eaefc3"/><path d="m59.4 42.5c-.2 0-.4 0-.4-.3.3-.3.5-.2.7.1-.2 0-.2.1-.3.2z" fill="#e7edc1"/><path d="m64.7 49.4c-.3 0-.7.1-1-.3.1-.1.4-.1.5-.3h.2.1c.2.3.4.4.2.6z" fill="#fafbf2"/><path d="m61.4 41c-.1-.1-.2-.2-.2-.3 0-.2 0-.3 0-.5h.2c.1.3.2.5.2.8-.1.1-.1.1-.2 0z" fill="#c0d243"/><path d="m58.2 41c-.4-.3-.4-.4-.2-.5.4 0 .3.2.2.5z" fill="#cedb73"/><path d="m61.9 42c-.1.1-.2.1-.3.2 0-.3 0-.7 0-1 .4.2.3.5.3.8z" fill="#e6edbe"/><path d="m58.2 42.1c-.1.3-.2.4-.5.3 0-.3.2-.4.5-.3z" fill="#d4e08f"/><path d="m59.3 40.7c-.1.2-.2.3-.4.1-.1-.1 0-.3.2-.3.1.1.2.1.2.2z" fill="#dde6a2"/><path d="m64.2 48.9c-.1.2-.3.2-.5.3.1-.2.3-.3.5-.3z" fill="#fdfefb"/><path d="m64.9 48.1c0 .1 0 .2.1.3 0 .1 0 .2-.1.3-.1 0-.1 0-.2-.1.1-.1.2-.3.2-.5z" fill="#fafbf2"/><path d="m55.7 41c0 .1 0 .2.1.3-.1 0-.1.1-.2.1-.1-.2 0-.3.1-.4z" fill="#e6edc0"/><path d="m64.5 48.9c.1-.1.2-.2.2-.3.1.3 0 .3-.2.3z" fill="#fafbf2"/><path d="m53.3 44.9c.1-.1.2-.2.3-.3-.2.1-.2.2-.3.3z" fill="#c0d34b"/><path d="m53.7 44.5c0-.1 0-.1 0-.2h.3c-.1.1-.2.1-.3.2z" fill="#c0d34b"/><path d="m53.5 44.3c-.1 0-.2 0-.3 0 .1-.1.2-.1.3-.2z" fill="#c0d34b"/><path d="m54 43.8c-.1.1-.2.2-.3.2.1-.1.2-.1.3-.2z" fill="#c0d34b"/><path d="m61.4 41h .2v.2h-.1-.1c0-.1 0-.1 0-.2z" fill="#b7ce2b"/><path d="m59.3 40.7c-.1-.1-.1-.1-.2-.2.2 0 .2.1.2.2z" fill="#cdda6b"/><path d="m59.4 42.5c.1-.1.2-.2.2-.2 0 .1-.1.2-.2.2z" fill="#cdda62"/><path d="m33.3 100c-1.4-.4-2.4-1.2-3.5-2 2.3-.1 3.4.5 3.5 2z" fill="#b6cd2b"/><path d="m42.5 103.7c-.7.3-1.2.3-1.7 0-.3-.6 0-1 .5-1.2.6.1.9.6 1.2 1.2z" fill="#b5cd27"/><path d="m64.5 48.9c.1-.1.1-.2.2-.3s.2-.2.3-.3c.3.2.2.5.2.8v8.9c-.8-.5.2-1.5-.5-2-.3-.2-.6-.2-.9-.2-3.3.2-6.6.1-9.9.1-.1-.1-.1.2 0 .1 0 0 0 0 .1.1 0 .1.1.1.1.2-.7.4-1.2 0-1.8-.2 0-.8 0-1.5 0-2.4.2.2.4.4.5.6.6-.4 1.3-.2 2-.2 2.6.1 5.3.1 7.9 0 .5 0 1-.1 1.5-.3.5-.4.5-.8 0-1.3-2.1.1-4.2.1-6.4.1-.4 0-.7 0-1.1 0-1.4.2-2.8-.4-4.2.2-.4-.5-.1-1.2-.2-1.8.3-.1.6.2 1 .1 3.4.5 6.7.2 10.1.2-3.5-.1-7 .3-10.5-.3-.2-.1-.4-.2-.6-.3 0-.8 0-1.5 0-2.3.1-.1.1-.1.2 0 .4.4.4.9.2 1.5 3.9.5 7.8.4 11.7.1.3 0 .4-.2.3-.5-.1-.2-.1-.4-.2-.6z" fill="#b2cc1d"/><path d="m54 56.3c-.4-.1-.9-.2-1.3-.3-.1-.7.3-.6.7-.5 3.7.3 7.4.3 11.1 0 .3.1.2.4.2.7-.4.4-.9 0-1.4.2-3-.1-6.1-.1-9.3-.1z" fill="#fbfcf5"/><path d="m37.9 74.9c.3.4 0 .7-.1 1.1-.1.1-.2.1-.3 0-.2-.1-.4-.3-.5-.5 0-.1 0-.2.1-.4.2-.2.5-.4.8-.2z" fill="#ebf1cb"/><path d="m37.4 77.5c-.1 0-.1 0-.2 0-.2-.1-.3-.3-.4-.5 0-.1 0-.2 0-.3.1-.2.1-.4.3-.6.1-.1.2-.1.3 0 .3.1.4.3.5.6v.2c-.1.3-.3.5-.5.6z" fill="#cedb75"/><path d="m63.4 56.3c.4-.3.9-.2 1.4-.2-.4.9-1-.1-1.4.2z" fill="#b2cc1d"/><path d="m37.1 73.2c.3-.1.5-.2.8-.2.1.3.2.5 0 .8-.3.2-.6.1-.8-.2-.1-.2-.1-.3 0-.4z" fill="#eff4da"/><path d="m37.9 74c .2.3.2.5 0 .8-.3.2-.6.1-.8-.2-.1-.1-.1-.2 0-.4.2-.2.5-.4.8-.2z" fill="#eff4d8"/><path d="m37.4 77.5c0-.4.2-.5.5-.5.1.2.1.3.2.5-.2.1-.2.3-.2.5-.1.1-.2.1-.2 0-.1-.2-.1-.4-.3-.5z" fill="#edf2d1"/><path d="m37.9 74c-.3.1-.5.2-.8.3-.1-.1-.1-.1-.2-.2 0-.1 0-.2 0-.3s.1-.2.2-.2c.3.1.5.2.8.2z" fill="#c5d557"/><path d="m37.9 76.8c-.3-.1-.5-.2-.6-.5 0-.2.1-.3.3-.2h.2c.3.1.2.4.1.7z" fill="#f3f6e0"/><path d="m37.1 74.5c.3.1.5.2.8.3v.2c-.3.1-.5.2-.8.3l-.1-.1c0-.1-.1-.2-.1-.2 0-.1 0-.2 0-.3l.2-.2c-.1 0 0 0 0 0z" fill="#bed141"/><path d="m59.8 30c-.8 0-1.5 0-2.2 0-.5-.6-.2-1.3-.5-1.9.9-1.1 1.7-1.3 2.5-.7.9.6 1 1.4.2 2.6z" fill="#fdfefc"/><path d="m56.6 48.4c-.9.4-.9.4-1.6-.3.3-.4.7-.1 1-.2.6-.2.7 0 .6.5z" fill="#bcd13e"/><path d="m60.4 49.2c.1.1.3.2.5.3-.4.3-.7.2-1 .1-.1-.3.1-.4.3-.4 0 .1.1.1.2 0z" fill="#e5ecb9"/><path d="m57.3 49.4c-.1.6-.6 0-.8.3-.1-.4.1-.5.3-.6.2.2.4.2.5.3z" fill="#e7eec1"/><path d="m56.6 48.4c0-.4-.3-.5-.6-.5 0-.1 0-.1 0-.2.3 0 .5-.1.8-.1 0 .3.1.6-.2.8z" fill="#f6f8e4"/><path d="m63.1 49.2c-.1.2-.3.3-.6.2.2-.5.4-.2.6-.2z" fill="#c8d761"/><path d="m54.8 49.3c-.1.1-.3.1-.4 0 .1-.3.3-.2.4 0z" fill="#b7ce32"/><path d="m57.3 49.4c-.2 0-.4 0-.5-.2.2-.1.4 0 .5.2z" fill="#c3d559"/><path d="m60.4 49.2c0 .1-.1.1-.1.2 0-.1-.1-.1-.1-.2s.1-.1.2 0z" fill="#b7ce2b"/><path d="m52.4 48.4c-.1 0-.1 0-.2 0 .1-.1.1-.2.2-.2s.1.1 0 .2z" fill="#b7ce2f"/><path d="m36.9 76.7v.2c0 .2-.1.4-.3.6-.1 0-.2 0-.2 0-.2-.2-.3-.3-.5-.5 0-.1 0-.2 0-.3.1-.2.2-.4.2-.6 0-.1-.1-.2-.1-.3 0 0 0-.1 0-.2.1-.1.1-.2.2-.2 0 0 .1 0 .1-.1h.2.1c.1.1.2.1.2.2 0 0 0 .1.1.1v.3c0 .1-.1.2-.1.4v.2c.1.1.1.2.1.2z" fill="#c7d75d"/><path d="m37.1 73.7c0 .1 0 .2-.1.4s-.2.4-.4.5c0 0-.1 0-.1.1-.1 0-.2 0-.3-.1-.2-.1-.3-.3-.4-.5 0-.2 0-.4.2-.5.1-.2.3-.3.5-.3.3 0 .4.2.6.4z" fill="#cfdd7a"/><path d="m35.1 75c0-.1 0-.2 0-.3.1-.1.2-.2.2-.3.1-.1.2-.1.3-.1.3 0 .4.1.6.3v.3c-.1.2-.3.3-.6.3-.3.2-.4 0-.5-.2z" fill="#c7d760"/><path d="m35.6 75.3c.2-.1.4-.2.5-.4.2 0 .3.1.4.3 0 .1 0 .2-.1.3-.1.1-.2.2-.3.2-.1.1-.2.1-.2 0-.1-.1-.2-.2-.3-.4-.1.1-.1.1 0 0-.1 0 0 0 0 0z" fill="#eff3d8"/><path d="m36.1 74.8c-.2-.1-.4-.2-.5-.4 0-.1 0-.1 0-.2.1-.1.2-.2.3-.3.3.1.4.2.5.5 0 .3-.1.4-.3.4z" fill="#f1f5dd"/><path d="m35.6 75.3v.2c-.2.1-.3.3-.5.2-.3-.2-.1-.4 0-.6.1 0 .3.1.5.2z" fill="#f7faee"/><path d="m36.1 76c .1.1.2.2.3.4-.2.1-.4.2-.6.3 0-.2 0-.5 0-.7.1-.1.2-.1.3 0z" fill="#f6f8e6"/><path d="m36.6 77.5c0-.2 0-.4.3-.6.3.1.3.3.3.6-.2.3-.4.1-.6 0z" fill="#f5f8e7"/><path d="m37.1 73.7c-.4 0-.5-.1-.5-.5.1-.1.2-.1.3-.2 0-.1.1-.1.1 0s0 .1.1.2v.3z" fill="#f2f6e0"/><path d="m35.8 77c .4 0 .6.1.5.5-.3.1-.5-.1-.5-.5z" fill="#f7f8e6"/><path d="m37 73c0-.2.1-.4.2-.5.3.2.1.4-.2.5z" fill="#b0ca0e"/><path d="m37.6 78h .2c.1.2 0 .3-.2.2-.1.1-.1-.1 0-.2z" fill="#fdfdf6"/><path d="m36.1 76c-.1 0-.2 0-.3 0 0-.1 0-.2 0-.3h.2c.1.1.1.2.1.3z" fill="#d1de7f"/><path d="m35.3 74.5c0 .2-.1.3-.2.3 0-.2.1-.3.2-.3z" fill="#fcfaea"/><path d="m35.6 74.3v.2c-.1 0-.2 0-.3 0 0-.2.1-.3.3-.2z" fill="#f5f9f0"/><path d="m57.6 52.3c2.3-.1 4.6.1 6.8-.3.6.7.5 1.5.1 2.2-3.9.4-7.9.4-11.8 0 0-.2 0-.4 0-.7.5 0 .9.1 1.3.1-.2-.6-.6-.6-1-.5-.5.2-.6-.1-.6-.5.2-.2.3-.5.5-.8 1.2.3 2.4.2 3.6.3.4.5.7.3 1.1.2z" fill="#fdfefb"/><path d="m52.2 50.7h.6c.2.3.2.5 0 .7-.2-.2-.4-.3-.5-.5-.1 0-.1-.1-.1-.2z" fill="#b7ce2f"/><path d="m52.7 51.4c0-.2 0-.5 0-.7 4 .4 7.9.3 11.9.1.1.9-.5.7-.9.7-3.6.4-7.3.3-11-.1z" fill="#fcfcf6"/><path d="m57.6 52.3c-.2.1-.5.3-.6.4-.3 0-.4-.2-.4-.4z" fill="#e5ebad"/><path d="m37.6 76c-.1.1-.2.2-.3.2h-.1-.1c-.1 0-.2-.1-.2-.2s0-.2 0-.3 0-.2.1-.3c.4.1.6.3.6.6z" fill="#b9cf2f"/><path d="m37.1 75.5v.2c0 .2-.1.2-.2 0-.1-.1-.2-.2-.3-.2-.1-.1-.1-.2 0-.3.2-.1.3-.1.5.1z" fill="#fdfdf9"/><path d="m37.1 76c0 .1.1.1.1.2-.1.2-.2.3-.3.5-.1-.1-.2-.2-.3-.3 0-.2.1-.4.2-.5.2 0 .2 0 .3.1z" fill="#fdfdfa"/><path d="m36.7 74.5c0-.3.2-.4.4-.4v.2s0 .1 0 .2c-.1.1-.3.1-.4 0z" fill="#fdfdf6"/><path d="m36.7 74.5h.4v.2c-.1.2-.3.2-.5.1-.1-.1-.1-.1-.1-.2s0-.1 0-.1z" fill="#eff4da"/><path d="m37.1 75.2c-.1 0-.3 0-.4 0s-.1 0-.2-.1c0-.1 0-.2.1-.3.2 0 .3-.1.4.1s.1.3.1.3z" fill="#eef3d6"/><path d="m37.1 75c-.2 0-.3 0-.5 0-.1-.1-.1-.2 0-.3h.5z" fill="#cad85f"/><path d="m37.1 76c-.1 0-.2 0-.2 0 0-.1 0-.2 0-.3h.2z" fill="#d1de7f"/><path d="m36.6 76.5.3.3c-.1-.1-.2-.2-.3-.3z" fill="#cedb75"/><path d="m36.6 75.5c.1.1.2.2.3.2-.1 0-.2-.1-.3-.2z" fill="#d1de7f"/><path d="m36.1 75.8c.1-.1.2-.2.3-.2-.1 0-.2.1-.3.2z" fill="#d1de7f"/><path d="m36.7 75.2c0 .1 0 .2-.1.3h-.1-.1c0-.1 0-.2 0-.3z" fill="#d1de7f"/><path d="m36.5 75.2c-.1 0-.1 0-.2 0-.1-.1-.2-.2-.3-.3 0-.1 0-.1 0-.2.1-.1.2-.2.3-.3h.1c0 .1.1.1.1.2s0 .2 0 .3c.1.2.1.3 0 .3z" fill="#b7ce27"/><path d="m36.1 73.5c.1 0 .1 0 0 0z" fill="#fdfbe7"/><path d="m57.3 53.7c.9-.7 1.7-.6 2.6 0-.9.2-1.7.2-2.6 0z" fill="#bacf36"/><path d="m55 53.7c.6-.5 1-.5 1.6 0-.6.2-1 .1-1.6 0z" fill="#b4cd25"/><path d="m62.2 53.7c-.6 0-1 0-1.7 0 .7-.4 1.1-.4 1.7 0z" fill="#b6cd27"/><path d="m64.2 53.5c-.3.3-.7.3-1.1.2 0-.3.2-.4.4-.4.2.2.5 0 .7.2z" fill="#d4e089"/><path d="m64.2 53.5c-.3-.1-.6.1-.7-.2.3 0 .6-.3.7.2z" fill="#b4cd22"/><path d="m54.5 52.6h.2s0 .1-.2 0c .1.1.1 0 0 0z" fill="#c1d453"/><path d="m62.6 52.6c-.1 0-.1 0-.2 0 .1 0 .1-.1.2 0 0-.1 0 0 0 0z" fill="#cdd952"/></svg>