<svg viewBox="0 0 566.93 566.93" xmlns="http://www.w3.org/2000/svg"><path d="m482.07 84.86a280.87 280.87 0 1 0 -397.21 397.21 280.87 280.87 0 1 0 397.21-397.21zm-198.61 475c-152.63-.02-276.37-123.76-276.37-276.4s123.74-276.37 276.37-276.37 276.38 123.74 276.38 276.37-123.74 276.38-276.38 276.38z" fill="#005470"/><path d="m283.46 7.09c-152.63 0-276.37 123.74-276.37 276.37s123.74 276.38 276.37 276.38 276.38-123.74 276.38-276.38-123.74-276.37-276.38-276.37zm0 548.25c-149.91 0-271.87-122-271.87-271.88s122-271.87 271.87-271.87 271.88 122 271.88 271.87-121.96 271.88-271.88 271.88z" fill="#005470"/><path d="m283.46 11.59c-149.91 0-271.87 122-271.87 271.87s122 271.88 271.87 271.88 271.88-122 271.88-271.88-121.96-271.87-271.88-271.87z" fill="#fff"/><path d="m283.46 508-24.94 11.19a49.27 49.27 0 0 1 -25.52 4c-36.31-3.84-52.67-4.41-89.24-17.59 36.11 3 76.39-1.38 126.93-22l4.05-1.69 3.59-1.71 5.12-2.49 5.13 2.49 3.59 1.71 4.05 1.69c50.54 20.65 90.82 25.07 126.93 22-37.46 13.5-53.71 13.77-91.92 17.88a39.49 39.49 0 0 1 -20.31-3.21z" fill="#d7282f"/><path d="m250.12 480.27c-22 11.5-41.4 16.87-66.17 20.41-12.76-2.43-32.23-8.45-53.58-18.57l-2.48-1.18c-.84-.39-1.62-.85-2.43-1.27-15.74-8.44-28.09-15.89-45.29-30.17 19 8.78 48.75 20.74 108.53 23.3 9.75.37 20.92.35 30.54-.94a186.71 186.71 0 0 0 30.88 8.42z" fill="#d7282f"/><path d="m316.8 480.27c21.95 11.5 41.41 16.87 66.18 20.41 12.76-2.43 32.23-8.45 53.58-18.57l2.48-1.18c.84-.39 1.62-.85 2.43-1.27 15.74-8.44 28.09-15.89 45.29-30.17-19 8.78-48.75 20.74-108.53 23.3-9.75.37-20.92.35-30.54-.94a186.62 186.62 0 0 1 -30.89 8.42z" fill="#d7282f"/><path d="m187.07 456.67-2.74.32c-.44.05-.93.12-1.46.16l-1.69.12-4.11.27-4.95.27c-.89.05-1.78.05-2.7.05h-2.83a195.76 195.76 0 0 1 -46.77-5.56c-32-21.22-57.18-46-78.71-82.77 32.61 32.38 79.3 56.78 119.66 68.34 1.09 1-.55-.4 8 6.45l4.81 3.49 2.45 1.77c.8.59 1.64 1.09 2.43 1.62l4.33 2.83c.64.41 1.21.81 1.74 1.13l1.37.8z" fill="#d7282f"/><path d="m379.86 456.67 2.74.32c.44.05.93.12 1.46.16l1.69.12 4.1.27 5 .27c.89.05 1.78.05 2.7.05h2.83a195.76 195.76 0 0 0 46.77-5.56c32-21.22 57.18-46 78.7-82.77-32.6 32.38-79.29 56.78-119.65 68.34-1.09 1 .55-.4-8 6.45l-4.81 3.49-2.45 1.77c-.8.59-1.64 1.09-2.43 1.62l-4.34 2.8c-.64.41-1.21.81-1.74 1.13l-1.37.8z" fill="#d7282f"/><path d="m135.56 412.45c-18.49-4.45-41.13-14.45-59.93-27.26-21.87-29.63-37.86-63.27-44.95-103.26 21.1 45.22 65.06 88 86.4 103.61a201.91 201.91 0 0 0 18.48 26.91z" fill="#d7282f"/><path d="m431.37 412.45c18.49-4.45 41.13-14.45 59.92-27.26 21.88-29.63 37.87-63.27 45-103.26-21.1 45.22-65.06 88-86.4 103.61a201.91 201.91 0 0 1 -18.52 26.91z" fill="#d7282f"/><path d="m101.88 353c-16.53-12.21-31.88-26.43-45.48-45.75-11.54-40.1-13-78.64-7.26-110.51 3.46 39.85 27.63 98.66 44.41 124.44a200.24 200.24 0 0 0 8.33 31.82z" fill="#d7282f"/><path d="m465.05 353c16.53-12.18 31.88-26.4 45.48-45.72 11.54-40.1 13-78.64 7.25-110.51-3.45 39.85-27.62 98.66-44.4 124.44a200.24 200.24 0 0 1 -8.33 31.79z" fill="#d7282f"/><path d="m90.2 285.26c-12.45-19.44-18.86-33-26.29-57.5.9-29.18 11.15-70.56 30.12-104.1-9.91 37.45-7.6 98.21-1.06 128.64-2.14 12.11-2.5 22.6-2.77 32.96z" fill="#d7282f"/><path d="m476.73 285.26c12.45-19.44 18.86-33 26.29-57.5-.9-29.18-11.15-70.56-30.12-104.1 9.91 37.45 7.6 98.21 1.06 128.64 2.14 12.11 2.5 22.6 2.77 32.96z" fill="#d7282f"/><path d="m101.76 217.45c-3.91-13.84-6.7-45.21-4.59-61.48 6-13.24 22.8-51.77 62.21-85.31-19.38 28.23-38.95 82.61-43.91 116.76a205.86 205.86 0 0 0 -13.71 30.03z" fill="#d7282f"/><path d="m465.17 217.45c3.91-13.84 6.69-45.21 4.59-61.48-6-13.24-22.8-51.77-62.21-85.31 19.38 28.23 38.94 82.61 43.91 116.76a205.86 205.86 0 0 1 13.71 30.03z" fill="#d7282f"/><path d="m135.46 157.76c3.24-23 9.77-43.64 16.41-57.57 27.08-27.87 57-46.68 85.56-57-27.75 19.53-65.84 66.48-79 90.93a190.51 190.51 0 0 0 -22.97 23.64z" fill="#d7282f"/><path d="m431.47 157.76c-3.24-23-9.77-43.64-16.41-57.57-27.08-27.87-57-46.68-85.56-57 27.75 19.53 65.84 66.48 79 90.93a190.51 190.51 0 0 1 22.97 23.64z" fill="#d7282f"/><path d="m187.12 113.23c11.12-6.53 17.73-9.52 29.55-14.28 8.71-7.7 37.31-38.09 66.79-52.85-16.61 3.73-45.93 12.9-62.11 20.52a194.19 194.19 0 0 0 -34.23 46.61z" fill="#d7282f"/><path d="m379.81 113.23c-11.12-6.53-17.73-9.52-29.55-14.28-8.71-7.7-37.31-38.09-66.8-52.85 16.62 3.73 45.94 12.9 62.12 20.52a194.46 194.46 0 0 1 34.23 46.61z" fill="#d7282f"/><path d="m283.46 86.18-.2.07c-12.22.32-20.41.86-32.7 3.1a215.77 215.77 0 0 1 32.9-23.25 215.84 215.84 0 0 1 32.91 23.25c-12.29-2.24-20.48-2.78-32.7-3.1z" fill="#d7282f"/><path d="m279.05 533.41-52.29-132.43-148.24 45.4 77.25-134.42-127.93-87.6 13.3-2.03 139.97-21.39-10.36-141.99-.93-12.65 113.88 105.24 113.85-105.22-.94 13.09-10.32 141.53 153.26 23.42-127.92 87.59 77.22 134.38-12.25-3.71-135.97-41.64-56.9 144.13z" fill="#035d88"/><path d="m391.66 58.58v.47l-10.66 145.66v.48l142.41 21.81 2.87.44-120.84 82.69-.45.31 73.24 127.45-.18-.05-140.22-42.95h-.15l-53.95 136.61v.08l-54-136.73h-.07l-140.49 43 1-1.7 72.27-125.75-.5-.34-120.82-82.67.77-.12 144-22 .5-.08-10.63-146.29v-.32l108 99.77zm-107.45 223.16-.4.32h-.08l-.28.06-.4.09-.62-.14.28.22.39.32.49.39.14.11.31.25-.31-.64.15-.32.21-.42.12-.26m119.26-247.72-18.6 17.2-101.17 93.53-101.17-93.49-18.6-17.19 1.84 25.26v.31l10 137.08-135.39 20.69-.77.11-25 3.83 20.9 14.31 113.66 77.83-67.7 117.74-1 1.7-12.62 22 24.22-7.42 131.72-40.34 50.61 128.1 9.3 23.58 9.3-23.59v-.08l50.55-128 131.57 40.24.18.05 24.23 7.43-12.63-22-68.64-119.41 113.67-77.83 20.9-14.31-25-3.83-2.87-.43-133.35-20.37 10-136.92v-.47z" fill="#2d3d4f"/><path d="m283.2 281.52.3-.06v-129.69l-.04.03-113.12-104.55.02.33z" fill="#1b6c84"/><path d="m282.74 283.73 113.82-235.98.04-.5-114.37 105.69v131.14l.09-.02z" fill="#005470"/><path d="m385.39 200.88.04-.5-101.43 80.73-.13.26 250.79-57.68z" fill="#005470"/><path d="m396.56 47.74-112.56 233.37 101.43-80.73z" fill="#1b6c84"/><path d="m537.66 224.15-3-.46-250.79 57.68-.21.45 127.38 29.03z" fill="#1b6c84"/><path d="m487.32 444.73-76.76-133.55.48-.33-127.38-29.03-.16.32.32.68 203.31 161.86z" fill="#005470"/><path d="m487.13 444.68-203.31-161.86 56.37 116.86z" fill="#1b6c84"/><path d="m283.36 282.44-56.54 117.21.08-.02 56.56 143.27.04-.08v-260.26z" fill="#1b6c84"/><path d="m283.5 282.56v260.26l56.53-143.19.16.05-56.37-116.86z" fill="#005470"/><path d="m282.13 281.47-252.06-57.45-.81.13 126.58 86.67 126.59-29.12z" fill="#005470"/><path d="m282.84 282.03-202.21 160.92-1.02 1.78 147.21-45.08 56.54-117.21z" fill="#005470"/><path d="m282.84 282.03-.41-.33-126.59 29.12.52.36-75.73 131.77z" fill="#1b6c84"/><path d="m282.13 281.47-101.12-80.51-150.94 23.06z" fill="#1b6c84"/><path d="m281.51 284.25.42-.1-114.11-236.56 11.3 155.02-.53.08 102.26 81.41z" fill="#005470"/><path d="m283.46 163.12h-.14v238.69h.14c67 0 121.29-53.43 121.29-119.35s-54.3-119.34-121.29-119.34z" fill="#d7282f"/><path d="m162.18 282.46c0 65.87 54.22 119.27 121.14 119.35v-238.69c-66.92.08-121.14 53.48-121.14 119.34z" fill="#e65f54"/><g fill="#fff"><path d="m227 200.81a9.68 9.68 0 0 1 2.19 4.4 8.76 8.76 0 0 1 -.17 4.37 8.36 8.36 0 0 1 -1.68 3 23.68 23.68 0 0 1 -2.67 2.61l-4.56 3.85-12.3-14.58 4.52-3.82a25.05 25.05 0 0 1 3.05-2.23 8.16 8.16 0 0 1 3.32-1.18 8.62 8.62 0 0 1 4.36.57 10 10 0 0 1 3.94 3.01zm-3.83 3.19a7.38 7.38 0 0 0 -2.57-2 4.86 4.86 0 0 0 -4.82.55c-.56.44-1.23 1-2 1.61l-.07.06 7.7 9.13.07-.06q1.23-1 2-1.8a4.3 4.3 0 0 0 1.17-1.88 4.78 4.78 0 0 0 0-2.73 7.47 7.47 0 0 0 -1.48-2.88z"/><path d="m234.91 207.16-9.37-16.62 11.24-6.34 1.78 3.17-7.08 4 1.64 2.91 6.53-3.68 1.79 3.17-6.53 3.68 2.36 4.2 7.09-4 1.79 3.17z"/><path d="m260.44 195.48-12 4.38-6.56-17.92 4.5-1.65 5.31 14.5 7.46-2.73z"/><path d="m265.54 194.48-2.89-15.17-5.54 1.06-.68-3.58 15.78-3 .68 3.57-5.54 1.06 2.9 15.17z"/><path d="m274.94 192.51 6.25-19.15 5.23-.05 6.64 19-4.93.05-1.23-3.88-6 .06-1.15 3.91zm10.87-7.51-2-6.27-1.89 6.31z"/><path d="m308.67 196a8.54 8.54 0 0 1 -5.2-3.36 6.87 6.87 0 0 1 -.55-5.79l3.24-11.75 4.62 1.28-3.17 11.47a4.93 4.93 0 0 0 -.07 3.06 2.91 2.91 0 0 0 2.1 1.58 3 3 0 0 0 2.59-.25 4.69 4.69 0 0 0 1.54-2.69l3.17-11.47 4.62 1.27-3.24 11.74a7.06 7.06 0 0 1 -3.38 4.68c-1.64.87-3.72.94-6.27.23z"/><path d="m333.55 206.35-4.08-2.14-.33-15.21-6.14 11.79-3.89-2 8.87-16.9 5.21 2.73.31 12.51 5.08-9.68 3.88 2z"/><path d="m343.45 214.15-8.11-6.32 2.05-2.63 2.16 1.69 7.63-9.8-2.18-1.68 2.05-2.63 8.11 6.31-2.05 2.63-2.11-1.72-7.63 9.8 2.17 1.69z"/><path d="m347.86 218.44 11.23-10.59-3.87-4.1 2.65-2.5 11 11.69-2.65 2.5-3.87-4.1-11.24 10.59z"/><path d="m185.36 327.05 15.33-2.37 1.86 3.57-10.76 11.18-1.79-3.37 2.24-2.2-2.13-4.1-3.08.57zm8.91 4.87 3.61-3.57-5 .9z"/><path d="m196.49 346.72a6.58 6.58 0 0 1 -1.49-4.54 5.31 5.31 0 0 1 2.47-3.73l7.63-5.45 2.15 3-7.45 5.34a3.76 3.76 0 0 0 -1.52 1.8 2.23 2.23 0 0 0 .49 2 2.3 2.3 0 0 0 1.67 1.1 3.62 3.62 0 0 0 2.23-.86l7.45-5.34 2.15 3-7.62 5.46a5.49 5.49 0 0 1 -4.3 1.17 6.53 6.53 0 0 1 -3.86-2.95z"/><path d="m217.41 359a7.56 7.56 0 0 1 -3.26 1.92 6.7 6.7 0 0 1 -3.37.12 6.61 6.61 0 0 1 -2.42-1.12 18.73 18.73 0 0 1 -2.16-1.92l-3.2-3.26 10.53-10.27 3.18 3.27a20.68 20.68 0 0 1 1.89 2.22 6.36 6.36 0 0 1 1.08 2.48 6.65 6.65 0 0 1 -.19 3.39 7.82 7.82 0 0 1 -2.08 3.17zm-2.62-2.74a5.6 5.6 0 0 0 1.42-2.09 3.61 3.61 0 0 0 .09-2.23 3.49 3.49 0 0 0 -.78-1.44c-.36-.41-.81-.89-1.34-1.44l-.05-.05-6.59 6.43.05.05q.87.89 1.5 1.47a3.28 3.28 0 0 0 1.51.79 3.69 3.69 0 0 0 2.1-.11 5.73 5.73 0 0 0 2.09-1.36z"/><path d="m214.79 366.27 9-11.62 7.86 6.09-1.71 2.26-5-3.84-1.58 2 4.57 3.54-1.72 2.22-4.57-3.54-2.27 2.93 5 3.84-1.72 2.22z"/><path d="m237.47 381.24-3.9-2.25-.86-6.72-1.14-.66-2.69 4.67-3.19-1.83 7.31-12.74 5.12 3a12.86 12.86 0 0 1 1.77 1.2 4.5 4.5 0 0 1 1.14 1.39 3.57 3.57 0 0 1 -.14 3.67 4.58 4.58 0 0 1 -2 2 5.36 5.36 0 0 1 -2.6.44zm-.05-11.8a2 2 0 0 0 .29-.94 1.4 1.4 0 0 0 -.3-.88 2.78 2.78 0 0 0 -.58-.55c-.23-.16-.53-.35-.89-.56l-1.07-.62-2 3.43.92.53a6.56 6.56 0 0 0 1.18.57 1.9 1.9 0 0 0 1 .11 1.63 1.63 0 0 0 .78-.31 2.52 2.52 0 0 0 .67-.78z"/><path d="m239.61 382.06 5.55-13.62 9.21 3.75-1.06 2.6-5.81-2.37-1 2.39 5.35 2.18-1.06 2.6-5.35-2.18-1.4 3.44 5.81 2.36-1.06 2.6z"/><path d="m258.46 388.67 2.93-14.4 9.74 2-.56 2.75-6.14-1.25-.52 2.52 5.66 1.15-.56 2.75-5.66-1.19-.74 3.64 6.15 1.25-.56 2.75z"/><path d="m276.3 391.71a12.57 12.57 0 0 1 -2.94-.53 16.2 16.2 0 0 1 -2.31-1l.25-3.49h.33a8.38 8.38 0 0 0 2.33 1.61 7.54 7.54 0 0 0 2.55.69 6.33 6.33 0 0 0 .84 0 3 3 0 0 0 .84-.15 2.1 2.1 0 0 0 .69-.42 1.16 1.16 0 0 0 .32-.78 1.13 1.13 0 0 0 -.37-.93 2.73 2.73 0 0 0 -1-.57c-.49-.17-1-.33-1.57-.49a12.37 12.37 0 0 1 -1.56-.55 4.92 4.92 0 0 1 -2.33-1.78 4.28 4.28 0 0 1 -.56-2.6 4 4 0 0 1 2-3.21 7.22 7.22 0 0 1 4.45-1 12.68 12.68 0 0 1 2.58.45 11.55 11.55 0 0 1 2.27.88l-.24 3.35h-.32a7.44 7.44 0 0 0 -1.91-1.33 6.55 6.55 0 0 0 -2.39-.65 5 5 0 0 0 -.87 0 3.42 3.42 0 0 0 -.82.21 1.66 1.66 0 0 0 -.63.42 1 1 0 0 0 -.3.68 1.09 1.09 0 0 0 .33.92 4 4 0 0 0 1.5.7l1.4.43a13.61 13.61 0 0 1 1.43.54 5 5 0 0 1 2.17 1.64 3.78 3.78 0 0 1 .56 2.51 4.23 4.23 0 0 1 -2 3.39 7.39 7.39 0 0 1 -4.72 1.06z"/><path d="m288.51 391.66-.71-11.88-4.33.26-.17-2.8 12.36-.74.16 2.8-4.33.26.71 11.88z"/><path d="m313.72 372.29-1.14 15.51-3.73 1-8.63-12.93 3.7-1 5.63 8.82.56-10.44z"/><path d="m326.5 382.84-7.36 2.92-.95-2.38 2-.78-3.53-8.89-2 .78-1-2.39 7.36-2.92.94 2.38-2 .78 3.53 8.89 2-.78z"/><path d="m340.8 375.3-3.1 1.7-9.94-6.2 5 9-2.95 1.65-7.16-12.84 4-2.21 8.2 5.08-4.1-7.36 2.94-1.64z"/><path d="m349.53 369.2a7 7 0 0 1 -5.38 1.64 7.71 7.71 0 0 1 -5-3.24 7.81 7.81 0 0 1 -1.88-5.6 6.91 6.91 0 0 1 2.88-4.87 11.73 11.73 0 0 1 1.31-.89 11.58 11.58 0 0 1 1.23-.6 7.68 7.68 0 0 1 1.11-.35c.42-.11.76-.19 1-.24l2.15 2.77-.3.23h-.88a8.86 8.86 0 0 0 -1.12.05 6.86 6.86 0 0 0 -1.22.27 3.67 3.67 0 0 0 -1.15.62 4 4 0 0 0 -1 1.09 3.49 3.49 0 0 0 -.46 1.47 4 4 0 0 0 .22 1.76 6.57 6.57 0 0 0 1.1 2 6.39 6.39 0 0 0 1.71 1.59 4 4 0 0 0 1.68.61 3.6 3.6 0 0 0 1.5-.16 4.2 4.2 0 0 0 1.26-.66 4.12 4.12 0 0 0 .95-1 5.68 5.68 0 0 0 .55-1.11 6.84 6.84 0 0 0 .31-1c.06-.32.12-.6.17-.85l.26-.2 2.12 2.73-.48.91a7.85 7.85 0 0 1 -.61 1 12.2 12.2 0 0 1 -.83 1 10.17 10.17 0 0 1 -1.2 1.03z"/><path d="m355.73 363.62-10.5-10.29 7-7.1 2 2-4.39 4.48 1.85 1.8 4-4.12 2 2-4 4.12 2.65 2.6 4.39-4.48 2 2z"/><path d="m373.19 342.77-2.67 3.62-6.77.1-.78 1.07 4.34 3.2-2.18 2.95-11.84-8.71 3.51-4.76a13.71 13.71 0 0 1 1.39-1.63 4.65 4.65 0 0 1 1.51-1 3.86 3.86 0 0 1 1.77-.25 3.74 3.74 0 0 1 1.86.8 4.56 4.56 0 0 1 1.76 2.23 5.4 5.4 0 0 1 .14 2.63zm-11.73-1.27a2 2 0 0 0 -.9-.39 1.35 1.35 0 0 0 -.91.2 2.63 2.63 0 0 0 -.61.51c-.19.21-.41.49-.66.83l-.73 1 3.19 2.35.62-.85a7.75 7.75 0 0 0 .7-1.11 1.83 1.83 0 0 0 .22-1 1.72 1.72 0 0 0 -.21-.82 2.56 2.56 0 0 0 -.71-.72z"/><path d="m374.25 340.7-12.92-7 4.73-8.74 2.47 1.33-3 5.52 2.27 1.22 2.75-5.07 2.46 1.33-2.75 5.08 3.27 1.77 3-5.51 2.47 1.37z"/></g><path d="m284.04 280.08-.45.36.31-.07z" fill="#f1c410"/><path d="m283.5 280.52v-.06l-.32.08.08.16z" fill="#f1c410"/><path d="m283.5 280.46v.06l.09-.08z" fill="#f1c410"/><path d="m283.5 280.81v-.29l-.24.18.03.06z" fill="#f1c410"/><path d="m283.9 280.37-.31.07-.09.08v.29l.17.04z" fill="#f1c410"/><path d="m283.5 280.81-.21-.05.21.43z" fill="#f1c410"/><path d="m283.67 280.85-.17-.04v.38.01z" fill="#f1c410"/><path d="m283.5 281.21-.15.31.15.12z" fill="#f1c410"/><path d="m283.5 281.2v.01.43l.35.28z" fill="#f1c410"/><path d="m282.74 280.64-.7-.16.31.25z" fill="#f1c410"/><path d="m283.5 281.19v.02-.01z" fill="#f1c410"/><path d="m283.5 281.21v-.02l-.21-.43-.08-.01-.42.33.56.44z" fill="#f1c410"/><path d="m283.21 280.75-.47-.11-.39.09.44.35z" fill="#f1c410"/><path d="m283.26 280.7-.08-.16-.44.1.47.11z" fill="#f1c410"/><path d="m283.26 280.7-.05.05.08.01z" fill="#f1c410"/><path d="m230.54 332.13a1.51 1.51 0 0 1 -1.41-2l39-111.15a1.5 1.5 0 0 1 1.41-1h30.46a1.5 1.5 0 0 1 1.42 1l39 111.15a1.47 1.47 0 0 1 -.2 1.36 1.49 1.49 0 0 1 -1.22.64zm71.52-23.68-17.62-52.61-17.7 52.61z" fill="#005470"/><path d="m300 219.48 39 111.15h-108.46l39-111.15zm-35.34 90.52h39.49l-19.71-58.82zm35.34-93.52h-30.42a3 3 0 0 0 -2.83 2l-39 111.15a3 3 0 0 0 2.83 4h108.5a3 3 0 0 0 2.83-4l-39-111.15a3 3 0 0 0 -2.83-2zm-31.17 90.52 15.6-46.4 15.57 46.4z" fill="#fff"/></svg>