<svg enable-background="new 0 0 113.9 113.9" viewBox="0 0 113.9 113.9" xmlns="http://www.w3.org/2000/svg"><circle cx="57" cy="57" fill="#fff" r="56.7" stroke="#000" stroke-miterlimit="10" stroke-width=".5"/><path d="m104.8 57c0-26.5-21.5-48-47.9-48-13.8 0-26.2 5.8-34.9 15.1l80.6 47.5c1.5-4.5 2.2-9.6 2.2-14.6z" fill="#fff"/><path d="m22 24.1c-8.1 8.6-13 20.1-13 32.9 0 26.5 21.5 47.9 47.9 47.9 21.3 0 39.4-14 45.6-33.2z"/><path d="m5.4 41.3c-.8-.3-.9-1-.5-2.3l1.3-3.6c.1-.2.2-.3.4-.2l4 1.5c.2.1.3.2.2.4l-1.3 3.6c-.5 1.3-1.1 1.8-1.9 1.5zm1.3-5.1-1.1 3c-.1.4-.2.7-.2.9s.1.3.3.4l2.2.8c.1.1.3 0 .4-.1.2-.1.3-.4.4-.8l1.1-3z"/><path d="m4.1 42.6c-.1 0-.2-.1-.2-.2s0-.2 0-.3.1-.2.1-.3c.1-.1.2-.1.3 0l4.2 1.2c.1 0 .2.1.2.2v.3s-.1.2-.1.3c-.1.1-.2.1-.3 0z"/><path d="m5.4 44.6-.8-.2c-.1 0-.3 0-.4.2s-.2.4-.3.8l-.6 3.2c0 .1-.1.2-.1.2-.1 0-.2 0-.3 0s-.2-.1-.3-.1-.1-.1-.1-.2l.6-3.2c.3-1.3.8-1.9 1.6-1.7l2.3.5c.8.2 1.1.9.8 2.2l-.2 1c0 .1-.1.2-.1.2-.1 0-.2 0-.3 0s-.2-.1-.3-.1-.1-.1 0-.2l.2-1c .1-.4.1-.7 0-.9s-.2-.3-.2-.3l-.7-.3-1 4.3c0 .1-.1.2-.1.2-.1 0-.2 0-.3 0s-.2-.1-.3-.1-.1-.1 0-.2z"/><path d="m6.5 59.5c.1.1.1.2.2.2s.1.2.1.3c0 .3-.2.5-.5.5h-4.1c-.1 0-.2 0-.3-.1 0-.1-.1-.2-.1-.3s0-.3.1-.3c0-.1.1-.1.3-.1h3.2l-3.3-2.7c-.1-.1-.2-.2-.2-.2 0-.1-.1-.2-.1-.3s0-.2.1-.3c0-.2.1-.2.2-.2l3.3-2.7h-3.2c-.1 0-.2 0-.3-.1s-.1-.2-.1-.3 0-.3.1-.3.1-.1.3-.1h4.1c.3 0 .5.2.5.5 0 .2-.1.4-.2.5l-3.8 3.1z"/><path d="m2.3 63.6c-.2-1.3.1-2 1-2.2l2.4-.3c.8-.1 1.3.5 1.5 1.9l.3 2c .2 1.3-.1 2-1 2.2l-2.4.2c-.8.1-1.3-.5-1.5-1.8zm1 1.8c.1.4.1.7.3.8.1.2.3.2.4.2l2.4-.3c.1 0 .3-.1.3-.3.1-.2.1-.5 0-.9l-.3-1.9c-.1-.4-.1-.7-.3-.8-.1-.2-.3-.2-.4-.2l-2.4.3c-.1 0-.3.1-.3.3-.1.2-.1.5 0 .9z"/><path d="m7.5 67.3c.2-.1.3 0 .4.2l1 3.7c.1.3.1.6.1.8v.7s-.1.3-.2.5c-.1.1-.2.2-.4.3l-.8.2c-.2 0-.3 0-.5 0-.2-.1-.3-.2-.4-.3s-.3-.3-.4-.5-.2-.5-.3-.8l-.1-.3c-.1-.2-.1-.4-.1-.5s-.1-.3-.1-.4-.1-.2-.1-.3 0-.2-.1-.3v.2.3.5s0 .4-.1.7l-.3 1.7c0 .2-.1.3-.2.3s-.2 0-.3 0c-.1-.1-.1-.2-.2-.3v-.1-.1-.1-.1l.6-4.2-1.4.4c-.1 0-.2 0-.3 0-.1-.1-.1-.2-.1-.3s0-.3 0-.3c0-.1.1-.1.2-.2zm-.2 1-1.5.4.8 3c .1.2.1.4.2.5s.1.2.2.3.1.1.2.1.1 0 .2 0l .7-.2c.1 0 .1 0 .1-.1 0 0 .1-.1.1-.2s0-.2 0-.4-.1-.3-.1-.6z"/><path d="m5.7 77.1c-.5-1.2-.4-2 .4-2.3l3.1-1.3h.3c.1.1.1.2.2.3s.1.3.1.3c0 .1-.1.2-.2.2l-3.1 1.3c-.1.1-.2.2-.2.4s0 .5.2.9l1.3 3.1v.2c0 .1-.1.1-.2.1s-.2.1-.3.1-.1-.1-.2-.2z"/><path d="m8.3 82.8c-.6-1.2-.6-2 .1-2.4l2.1-1.2c.7-.4 1.4 0 2.1 1.1l1 1.7c.6 1.2.6 2-.1 2.4l-2.1 1.2c-.7.4-1.4 0-2.1-1.1zm1.6 1.3c.2.3.4.6.6.7s.3.1.5.1l2.1-1.2c.1-.1.2-.2.2-.4s-.1-.5-.3-.8l-.9-1.7c-.2-.3-.4-.6-.6-.7s-.3-.1-.5-.1l-2.1 1.2c-.1.1-.2.2-.2.4s.1.5.3.8z"/><path d="m11.9 88.6c-.8-1.1-.8-1.9-.2-2.4l1.9-1.4c.7-.5 1.4-.2 2.2.9l1.9 2.7c.1.1.1.2 0 .2 0 .1-.1.1-.2.2s-.2.1-.3.1-.1 0-.2-.1l-1.9-2.8c-.2-.3-.4-.5-.6-.6s-.3-.1-.5 0l-1.9 1.4c-.1.1-.2.2-.1.5 0 .2.1.5.4.8l1.9 2.7c.1.1.1.2 0 .2 0 .1-.1.1-.2.2s-.2.1-.2.1c-.1 0-.1 0-.2-.1z"/><path d="m17.3 90.8 3.8 1.3c.1 0 .1.1.2.1s.1.1.2.2.1.2.1.2c0 .1 0 .2-.1.2-.1.1-.2.1-.4.1l-3.8-1.4 1.1 4c0 .2 0 .3-.1.4 0 .1-.2.1-.2.1-.1 0-.2-.1-.2-.1-.1-.1-.2-.2-.2-.3s-.1-.1-.1-.2l-1.1-4-1.3 1.2c-.1.1-.2.1-.3.1s-.2-.1-.3-.2-.2-.2-.2-.3 0-.2.1-.3l3.2-2.9c.1-.1.2-.1.3-.1s.2.1.3.2.2.2.2.3 0 .2-.1.3z"/><path d="m26.2 101.1c-.3.3-.6.5-1 .4-.4 0-.9-.3-1.4-.7l-1.6-1.3c-1.1-.8-1.3-1.6-.8-2.2l1.5-1.9c.5-.7 1.3-.6 2.4.2l.8.6c.1.1.1.1.1.2s-.1.2-.1.2c-.1.1-.1.2-.2.2s-.1 0-.2-.1l-.7-.6c-.3-.2-.6-.4-.8-.4s-.4 0-.4.1l-1.5 1.9c-.1.1-.1.3 0 .5s.3.4.6.7l1.6 1.2c.3.2.6.4.8.4s.4 0 .4-.1l.7-1c .1-.1.2-.1.2-.1.1 0 .2.1.3.2s.2.2.2.3 0 .2-.1.3z"/><path d="m28.6 98.8c.1-.2.3-.2.4-.1l3.3 1.9c.3.2.5.3.7.5s.3.3.4.5.2.3.2.5 0 .3-.1.5l-.4.7c-.1.1-.2.2-.4.3-.1.1-.3.1-.5.1s-.4 0-.7-.1c-.2-.1-.5-.2-.8-.4l-.2-.1c-.2-.1-.3-.2-.4-.3s-.2-.1-.3-.2-.2-.1-.3-.2c-.1 0-.1-.1-.2-.1 0 .1.1.1.2.2s.1.2.2.3.2.2.3.4c.1.1.3.3.4.6l1.1 1.4c.1.1.1.2 0 .4-.1.1-.1.2-.2.2s-.2 0-.3-.1c0 0-.1 0-.1-.1l-.1-.1-.1-.1-.1-.1-2.5-3.5-.8 1.3c-.1.1-.1.2-.2.2s-.2 0-.3-.1-.2-.1-.3-.2c0-.1 0-.2 0-.3zm.6.8-.8 1.4 2.7 1.6c.2.1.4.2.5.3s.3.1.4.1h.2c.1 0 .1-.1.1-.1l.4-.6s0-.1 0-.2 0-.1-.1-.2-.1-.2-.3-.3c-.1-.1-.3-.2-.5-.3z"/><path d="m34.2 107.1c-1.2-.5-1.7-1.2-1.3-2l1.3-3.1c.1-.1.1-.2.2-.2s.2 0 .3.1.2.1.3.2.1.2 0 .3l-1.3 3.1c-.1.1 0 .3.1.4s.4.3.7.5l1.9.8c.4.2.6.2.9.2.2 0 .3-.1.4-.2l1.3-3.1c.1-.1.1-.2.2-.2s.2 0 .3.1.2.1.3.2.1.2 0 .3l-1.3 3.1c-.3.8-1.1.9-2.3.4z"/><path d="m40.2 104.6c.1-.2.2-.3.4-.2l3.7 1.1c.3.1.6.2.8.3s.4.2.5.4.2.3.3.4c.1.2.1.3 0 .5l-.3.9c0 .2-.1.3-.3.4-.1.1-.3.2-.5.2s-.4.1-.7 0c-.3 0-.5-.1-.8-.2l-3.1-.9-.4 1.4c0 .1-.1.2-.2.2s-.2 0-.3 0-.2-.1-.3-.1c-.1-.1-.1-.2 0-.3zm.7.7-.5 1.6 3.1.9c.2.1.4.1.6.1h.4c.1 0 .2 0 .2-.1s.1-.1.1-.2l.2-.8c0-.1 0-.1 0-.2s-.1-.1-.1-.2c-.1-.1-.2-.1-.3-.2s-.3-.1-.5-.2z"/><path d="m46.4 106.3c0-.2.2-.3.4-.3l3.8.6c.3 0 .6.1.8.2s.4.2.6.3.3.3.3.4c.1.1.1.3.1.5l-.1 1c0 .2-.1.3-.2.4s-.3.2-.4.3c-.2.1-.4.1-.7.1s-.5 0-.8 0l-3.2-.5-.2 1.4c0 .1-.1.2-.2.2s-.2 0-.3 0-.2-.1-.3-.1c-.1-.1-.1-.1-.1-.3zm.8.5-.3 1.7 3.1.5c.2 0 .4.1.6.1h.4s.2-.1.2-.1.1-.1.1-.2l.1-.8c0-.1 0-.1 0-.2s-.1-.1-.2-.2-.2-.1-.3-.1-.3-.1-.6-.1z"/><path d="m53.6 109.8v.8c0 .1.1.3.3.4s.5.2.9.2l3.2.1c.1 0 .2 0 .2.1v.3c0 .1 0 .2-.1.3 0 .1-.1.1-.2.1l-3.3-.1c-1.3 0-2-.5-2-1.3l.1-2.4c0-.8.7-1.2 2-1.2h1c .1 0 .2 0 .2.1v.3c0 .1 0 .2-.1.3 0 .1-.1.1-.2.1h-1c-.4 0-.7 0-.9.1s-.3.2-.3.4v.9l4.4.1c.1 0 .2 0 .2.1v.3s0 .2-.1.3c0 .1-.1.1-.2.1z"/><path d="m67.6 109.6c0 .3 0 .5-.1.7s-.2.4-.4.5-.4.2-.6.3-.5.1-.7.2l-3.8.5c-.2 0-.3-.1-.4-.3l-.6-4.2c0-.2.1-.3.3-.4l3.7-.5c.3 0 .6-.1.8-.1s.5 0 .7.1.3.2.5.4c.1.2.2.4.2.7v.6c-.1.2-.2.4-.4.5.2 0 .4.1.5.3 0 .2.1.4.3.7zm-5.5-.8 3.2-.5c.2 0 .4-.1.5-.1s.2-.1.3-.1c.1-.1.1-.1.1-.2s0-.2 0-.4c0-.1 0-.2-.1-.3s0-.1-.1-.1-.2-.1-.3-.1-.3 0-.5 0l-3.2.5zm4.5 1c0-.1 0-.2-.1-.3 0-.1-.1-.2-.2-.2s-.2-.1-.4-.1-.3 0-.6 0l-3.2.4.2 1.3 3.3-.5c.2 0 .4-.1.5-.1s.2-.1.3-.2.1-.1.1-.2c.1 0 .1-.1.1-.1z"/><path d="m70.1 105.3h.3c.1 0 .2.1.2.1l4 3.3.1.1v.1c0 .1 0 .1-.1.1l-.1.1c-.1 0-.1.1-.2.1s-.1 0-.2 0-.1 0-.2-.1l-1.1-.9-3.6 1-.4 1.3c0 .1 0 .1-.1.1 0 0-.1.1-.2.1s-.1 0-.2 0-.1 0-.2 0-.1 0-.1-.1l-.1-.1s0-.1 0-.2l1.6-4.8c0-.1.1-.2.2-.2zm-.5 3.1 2.7-.7-1.9-1.7z"/><path d="m75.3 105.8 2.6-3.1c0-.1.1-.1.2-.1s.2-.1.3-.1.2 0 .3 0 .2.1.2.2c.1.1 0 .2-.1.4l-2.6 3.1h4c .2 0 .3.1.3.2v.3s-.1.1-.2.2-.3.1-.3.1c-.1 0-.1 0-.2 0l-4.2-.4.7 1.6v.3s-.2.1-.3.2-.2.1-.3.1-.2-.1-.2-.2l-1.7-4c0-.1 0-.2 0-.3.1-.1.2-.1.3-.2s.3-.1.3-.1c.1 0 .2.1.2.2z"/><path d="m82.9 105.3c-1.2.7-2 .6-2.4-.1l-1.6-2.9c-.1-.1-.1-.2 0-.3 0-.1.1-.1.3-.2.1-.1.2-.1.3-.1s.2.1.2.2l1.6 2.9c.1.1.2.2.4.2s.5-.1.8-.3l1.8-1c .3-.2.6-.4.7-.6s.1-.3.1-.5l-1.6-2.9c-.1-.1-.1-.2 0-.3 0-.1.1-.1.3-.2.1-.1.2-.1.3-.1s.2.1.2.2l1.6 2.9c.4.7 0 1.4-1.1 2.1z"/><path d="m91.9 99.4c-.1 0-.1.1-.1.1h-.1-.1s-.1 0-.2 0l-5.4-.2 2.1 2.8c.1.1.1.2.1.3s-.1.2-.2.3-.2.1-.3.1-.2 0-.2-.1l-2.6-3.5c-.1-.1-.1-.2-.1-.3s.1-.2.2-.2c.1-.1.2-.1.3-.2h.3l5.4.3-2.1-2.8c-.1-.1-.1-.2-.1-.3s.1-.2.2-.2c.1-.1.2-.1.3-.2s.2 0 .2.1l2.6 3.5c.1.1.1.2.1.3-.1.1-.1.1-.3.2z"/><path d="m93.3 97.8c.1.1.1.2.1.3s-.1.2-.2.3-.2.2-.3.2-.2 0-.3-.1l-2.9-3.2c-.1-.1-.1-.2-.1-.3s.1-.2.2-.3.2-.2.3-.2.2 0 .3.1z"/><path d="m98.3 93.3-.1.1s-.1 0-.1.1h-.1s-.1 0-.2 0l-5.5.6 2.5 2.4c.1.1.1.2.1.3s-.1.2-.2.3-.2.2-.3.2-.2 0-.3-.1l-3.1-3c-.1-.1-.1-.2-.1-.3s.1-.2.2-.3.2-.2.3-.2.2-.1.3-.1l5.4-.5-2.5-2.4c-.1-.1-.1-.2-.1-.3s.1-.2.2-.3.2-.2.3-.2.2 0 .3.1l3.1 3c .1.1.1.2.1.3-.1.1-.2.3-.2.3z"/><path d="m66.9 82.8c-8.1-.1-15.4-5.4-17.3-12.7-.7-2.5-.5-4.8 1.7-6.6 2.7-2.2 6.8-1.2 8.2 2 1.9 4.6 5.1 7.8 10.1 8.8s9-.7 12.3-4.5c.3-.4.6-1.2 1.3-.9.7.4.2 1.1 0 1.6-2.2 5.9-5.9 10.2-12.2 11.8-1.4.5-2.7.5-4.1.5z" fill="#e30a14"/><path d="m61 56.1c-4 .1-7.2 1.8-9.7 4.8-.2.2-.3.4-.4.5-.3.2-.4.7-.9.5-.4-.2-.3-.6-.2-1 1-3.1 2.5-5.9 4.8-8.2 1.8-1.8 3.9-3.1 6.3-3.9.5-.2 1-.1 1.4.1 6.9 4.1 13.9 8.2 20.8 12.2 1.3.8.8 2 .7 2.9-.2 2.2-2.3 4.1-4.8 4.4-1.6.2-4.4-1-5.3-3.1-2-5-5.7-8.3-11.2-9.2-.5 0-1 0-1.5 0z" fill="#e30a14"/></svg>