<svg enable-background="new 0 0 113.8 113.8" viewBox="0 0 113.8 113.8" xmlns="http://www.w3.org/2000/svg"><circle cx="56.9" cy="56.9" fill="#025ea3" r="56.9"/><path d="m14.7 56.9c0 23.3 18.9 42.2 42.2 42.2v-84.4c-23.3 0-42.2 18.9-42.2 42.2z" fill="#be1622"/><path d="m56.9 14.7v84.4c23.3 0 42.2-18.9 42.2-42.2s-18.9-42.2-42.2-42.2z" fill="#fff"/><path d="m99.7 25.6h-4.1l-1.3 4-1.3-3.9h-4.1l3.3-2.5-1.3-3.9 3.4 2.4 3.3-2.4-1.2 3.9z" fill="#fff"/><path d="m108.5 44.1-4-1-2.2 3.5-.3-4.2-4-1 3.9-1.5-.2-4.2 2.6 3.2 3.9-1.5-2.3 3.5z" fill="#fff"/><path d="m109.2 66-3.6-2-3.1 2.8.8-4-3.6-2 4.1-.6.8-4 1.7 3.7 4.2-.5-3.1 2.8z" fill="#fff"/><path d="m104 84.3-3.8-1.8-2.8 3 .5-4.1-3.7-1.8 4.1-.7.5-4.1 2 3.6 4.1-.7-2.9 3z" fill="#fff"/><path d="m93.7 98.1-4-1.1-2.3 3.5-.2-4.2-4-1.1 3.9-1.4-.2-4.2 2.6 3.3 3.9-1.5-2.3 3.5z" fill="#fff"/><path d="m14.1 25.6h4.2l1.2 4 1.3-3.9h4.2l-3.4-2.5 1.3-3.9-3.3 2.4-3.4-2.4 1.3 3.9z" fill="#fff"/><path d="m5.3 44.1 4-1 2.3 3.5.2-4.2 4-1-3.8-1.5.2-4.2-2.6 3.2-3.9-1.5 2.2 3.5z" fill="#fff"/><path d="m4.7 66 3.6-2 3 2.8-.8-4 3.7-2-4.1-.6-.8-4-1.8 3.7-4.1-.5 3 2.8z" fill="#fff"/><path d="m9.9 84.3 3.7-1.8 2.9 3-.6-4.1 3.8-1.8-4.1-.7-.5-4.1-2 3.6-4.1-.7 2.9 3z" fill="#fff"/><path d="m20.2 98.1 4-1.1 2.3 3.5.1-4.2 4-1.1-3.8-1.4.2-4.2-2.6 3.3-3.9-1.5 2.3 3.5z" fill="#fff"/><path d="m89.2 44.8c-.2-.1-.5-.1-.6.1-.3.3-.4.7-.6 1.1-.8 2.3-2.3 4-4.6 4.8-1.3.5-2.2 1.3-2.9 2.5-1.3 2.1-2.4 4.2-3.6 6.3-2.4 4.5-5 8.8-6.9 13.6-1.3 3.3-1.9 6.7-2.2 10.3 0 .2-.1.4.1.5s.5.1.6-.1.2-.5.3-.8c1.1-3.3 2.1-6.6 3.7-9.7 2.5-4.9 5.4-9.6 8.6-14.1 2.3-3.3 5.1-6.2 6.8-10 .6-1.3 1.2-2.5 1.5-3.8 0-.4.1-.6-.2-.7z" fill="#025ea3" stroke="#fff" stroke-miterlimit="10" stroke-width=".548"/><path d="m75.2 55.3c.1-.3.4-.6 0-1-.3-.2-.6-.2-.9-.1-1.8.8-3.7 1.1-5.5 1.7-.5.2-.7.4-.8 1.1 0 1.9.1 3.7-.3 5.6-.3 1.5-1 2.8-1.1 4.4.8 0 1.1-.5 1.5-1 1.5-1.9 3-3.8 4.3-5.8 1-1.6 2-3.3 2.8-4.9z" fill="#025ea3" stroke="#fff" stroke-miterlimit="10" stroke-width=".548"/><path d="m66.2 83.3c.6-1.8.3-3.6.1-5.3-.1-.5.2-1.1-.3-1.6-.8.9-.6 2.2-1.1 3.2-.8 1.8-2 3.4-3.4 4.8-.7.7-1.3 1.3-2.2 1.7-.8.4-1.6.6-2.3.7-.8 0-1.6-.3-2.3-.7-.9-.4-1.5-1-2.2-1.7-1.4-1.4-2.5-3-3.4-4.8-.5-1-.3-2.3-1.1-3.2-.5.5-.2 1.1-.3 1.6-.2 1.8-.5 3.6.1 5.3.1.2.1.3-.1.4.8 1.8 1.7 3.4 2.8 5.1 0 0 .1 0 .1.1 1.6.8 3.2 1.5 4.7 2.2.6.3 1.1.4 1.7.3.6.1 1.1-.1 1.7-.3 1.6-.8 3.2-1.5 4.7-2.2 0 0 .1 0 .1-.1 1-1.6 2-3.3 2.8-5.1-.2-.1-.2-.3-.1-.4z" fill="#025ea3" stroke="#fff" stroke-miterlimit="10" stroke-width=".548"/><path d="m24.7 44.8c.2-.1.5-.1.6.1.3.3.4.7.6 1.1.8 2.3 2.3 4 4.6 4.8 1.3.5 2.2 1.3 2.9 2.5 1.3 2.1 2.4 4.2 3.6 6.3 2.4 4.5 5 8.8 6.9 13.6 1.3 3.3 1.9 6.7 2.2 10.3 0 .2.1.4-.1.5s-.5.1-.6-.1-.2-.5-.3-.8c-1.1-3.3-2.1-6.6-3.7-9.7-2.5-4.9-5.4-9.6-8.6-14.1-2.3-3.3-5.1-6.2-6.8-10-.6-1.3-1.2-2.5-1.5-3.8-.1-.4-.2-.6.2-.7z" fill="#025ea3" stroke="#fff" stroke-miterlimit="10" stroke-width=".548"/><path d="m38.7 55.3c-.1-.3-.4-.6 0-1 .3-.2.6-.2.9-.1 1.8.8 3.7 1.1 5.5 1.7.5.2.7.4.8 1.1 0 1.9-.1 3.7.3 5.6.3 1.5 1 2.8 1.1 4.4-.8 0-1.1-.5-1.5-1-1.5-1.9-3-3.8-4.3-5.8-1.1-1.6-2-3.3-2.8-4.9z" fill="#025ea3" stroke="#fff" stroke-miterlimit="10" stroke-width=".548"/><path d="m88.5 41.7c-.5-.7-.9-1.5-1.3-2.3 0 0-3.3-7.3-5.9-8-.8-.3-1.7-.2-2.5-.4-1.6-.5-3.3-.9-5-1.1-2.2-.3-3.9 1.1-5.7 1.8-2.4.9-4.7 2.2-7.3 2.5-1.3.2-2.5.3-3.8.3s-2.5-.1-3.8-.3c-2.5-.3-4.8-1.6-7.3-2.5-1.9-.7-3.6-2.1-5.7-1.8-1.7.3-3.4.6-5 1.1-.8.2-1.7.1-2.5.4-2.6.7-5.9 8-5.9 8-.4.8-.8 1.6-1.3 2.3-.4.5-.4.9 0 1.5 1.1 1.7 2.2 3.4 3.4 5 .2.2.4.5.7.6 2.8 1.1 5.5 2.6 8.4 3.4 3.3.9 6.5 2.1 9.8 3 1.6.4 3.2 1.3 5 .6.9-.3 1.8-.6 2.7-.9.5-.2 1.1-.3 1.6-.3s1 .1 1.6.3c.9.3 1.8.6 2.7.9 1.8.6 3.4-.2 5-.6 3.3-.8 6.5-2.1 9.8-3 3-.8 5.6-2.3 8.4-3.4.3-.1.5-.4.7-.6 1.3-1.6 2.4-3.2 3.4-5 .1-.6.1-1-.2-1.5zm-49.1.8c-.1.3-.4.2-.6.2-1.1 0-2.1.1-3.2.1-1.9.1-2.8-1.2-3.3-2.5s-.6-2.6-.2-4c .1-.3-.3-.7.7-1.5.3.7.6 1.4 1 2 1 1.5 2.2 2.8 3.6 4 .5.4 1.1.8 1.6 1.2.2.1.4.3.4.5zm11.7 9.1c-.6.1-1.1.7-1.7.5-.8-.2-.3-1.1-.6-1.5s0-.5.3-.5c1.1.2 2.2.5 3.3 1.1-.6 0-.9.3-1.3.4zm13.9-1c-.4.4.2 1.3-.6 1.5-.6.2-1.1-.4-1.7-.5-.4-.1-.8-.4-1.3-.4 1-.6 2.1-.9 3.3-1.1.4 0 .7.1.3.5zm16.6-10.3c-.5 1.3-1.4 2.6-3.3 2.5-1.1 0-2.1 0-3.2-.1-.2 0-.6.1-.6-.2 0-.2.2-.4.4-.5.5-.4 1.1-.7 1.6-1.2 1.4-1.1 2.6-2.4 3.6-4 .4-.7.8-1.3 1-2 1 .8.6 1.2.7 1.5.4 1.4.3 2.7-.2 4z" fill="#025ea3" stroke="#fff" stroke-miterlimit="10" stroke-width=".548"/><g fill="#fff"><path d="m29.5 20.2-3.8-5.7c-.1-.1-.1-.1-.3 0-.1 0-.2 0-.2 0-.1 0-.1-.1-.2-.3-.1-.1-.1-.2-.1-.3s.1-.2.3-.3l2.2-1.5c.6-.4 1.4-.5 2.2-.2s1.7 1.1 2.6 2.5c.8 1.2 1.2 2.3 1.3 3.2 0 .9-.3 1.6-1 2l-2.5 1.6c-.1 0-.1.1-.2 0 0 0-.1-.1-.2-.2s-.1-.2-.2-.3c0 0 0-.1.1-.2.1 0 .1-.2 0-.3zm-2.3-7.1 4.3 6.5.2-.2c.2-.1.3-.3.2-.5 0-.2-.1-.5-.4-.9l-3.2-4.8c-.1-.2-.3-.3-.5-.4s-.4 0-.6.1z"/><path d="m33.3 9.5 1.4 2.9.3-.2c.1 0 .2-.1.2-.2s0-.2 0-.3c0-.2 0-.4 0-.4 0-.1 0-.1.1-.1.3-.1.4-.2.5-.2 0 0 .1.1.2.2l.8 1.7c.1.1.1.2.1.2s-.1.1-.3.2c-.1.1-.2.1-.3.1s-.2-.1-.3-.3-.2-.2-.3-.3c-.1 0-.1 0-.2 0l-.4.2 1.7 3.5.3-.1c.2-.1.3-.2.3-.3s0-.4-.1-.9c0-.2 0-.4 0-.4 0-.1.1-.2.3-.2.2-.1.3-.1.4 0 0 0 0 .1.1.2l.4 1.2c.1.2.1.4.1.4 0 .1-.1.1-.2.2l-3.3 1.7c-.1 0-.1 0-.2 0 0 0-.1-.1-.2-.3-.1-.1 0-.2.1-.3.1-.2.2-.3.1-.5l-3.2-6.3c0-.1-.1-.1-.3-.1-.1 0-.2 0-.2 0s-.1-.1-.2-.3c-.1-.1-.1-.2-.1-.2s.1-.1.2-.1l3.2-1.6c.1 0 .1-.1.2 0 .1 0 .1.1.2.1l.9 1.2c0 .1.1.1.1.1 0 .1 0 .2-.2.3s-.3.1-.4.1-.2-.1-.3-.2c-.3-.2-.4-.4-.6-.5-.1-.1-.2-.1-.3 0z"/><path d="m38.2 6.9s0-.1.1-.3c0-.1.1-.2.2-.2 0 0 .1 0 .3-.1 0 0 .1.1.2.2l1 1.7c.1.1.1.1.1.2s0 .1 0 .2c0 0-.1.1-.3.1-.2.1-.3.1-.4.1s-.2-.2-.5-.4c-.6-.6-1-.8-1.2-.7s-.2.2-.1.5.6.8 1.5 1.5c1 .8 1.7 1.4 2 1.8.4.4.7.9.9 1.4.3.7.3 1.3.1 1.7-.2.5-.5.8-.9 1-.3.1-.5.1-.8.1-.1 0-.2 0-.2 0l-.1.1c0 .2-.1.3-.3.4-.1 0-.1 0-.2 0 0 0-.1-.1-.1-.2l-.9-1.6c-.1-.2-.2-.3-.2-.3 0-.1 0-.2.2-.3.3-.1.4-.1.5-.1s.2.2.4.4c.6.7 1.1 1 1.4.9.1 0 .2-.1.2-.2s0-.2 0-.4c-.1-.2-.3-.4-.5-.7-.3-.2-.6-.5-1-.8-.9-.7-1.6-1.2-2-1.7-.4-.4-.8-.9-1-1.5s-.3-1.2-.2-1.6c.1-.5.4-.8.8-.9.1-.4.5-.4 1-.3z"/><path d="m44.4 10.9.5 1.8c.1.2.2.3.4.3.1 0 .2 0 .2.1 0 0 .1.1.1.3v.3s-.1.1-.2.1l-2.5.6c-.1 0-.2-.1-.3-.3 0-.2-.1-.3-.1-.3s.1-.1.2-.2.1-.1.2-.1c0 0 0-.1 0-.2l-1.7-6.5c0-.2-.2-.3-.4-.3-.1 0-.2-.1-.2-.2l-.1-.3c0-.1 0-.2 0-.2s.1-.1.2-.1l2.8-.7c.8-.2 1.5-.1 2.1.3s1 1 1.3 1.9c.1.5.2 1 .1 1.4 0 .4-.1.8-.3 1s-.4.5-.6.7c-.3.2-.6.3-.9.4zm-1.3-5.1 1.2 4.6.4-.1c.1 0 .2-.1.3-.3s.1-.4 0-.8l-.8-2.8c-.2-.6-.4-.9-.8-.8z"/><path d="m49.9 4.5.4 3.2.4-.1c.1 0 .2 0 .2-.1s.1-.2.1-.3c0-.3 0-.4 0-.5s.1-.1.1-.1c.3 0 .5-.1.5 0s .1.1.1.3l.3 1.9v.2s-.1.1-.3.1c-.1 0-.2 0-.3 0 0 0-.1-.2-.2-.4s-.1-.3-.2-.3c0 0-.1-.1-.2 0l-.4.1.5 3.8h.3c.2 0 .3-.1.4-.2s.1-.4.2-.9c0-.2.1-.4.1-.4.1-.1.2-.1.3-.1.2 0 .4 0 .4.2v.2 1.3.4s-.1.1-.2.1l-3.7.5c-.1 0-.2 0-.2 0s-.1-.2-.1-.4c0-.1 0-.2.2-.3s.3-.2.3-.4l-1-6.9c0-.1-.1-.1-.3-.2-.1 0-.2-.1-.2-.1s-.1-.1-.1-.3c0-.1 0-.2 0-.3 0 0 .1-.1.2-.1l3.5-.5h.2s.1.1.1.2l.5 1.4v.1c0 .1-.1.2-.2.2-.2 0-.3 0-.4 0s-.2-.1-.2-.3c-.2-.3-.3-.5-.4-.7-.1-.1-.2-.2-.3-.2z"/><path d="m55.6 8.4.1 2.8v.3l.1.1c.1.1.2.2.2.3 0 .2 0 .4-.1.4 0 .1-.1.1-.2.1l-2.4.1c-.1 0-.2-.1-.2-.3s0-.3 0-.4 0-.1.1-.1c.2-.1.3-.3.3-.5l-.1-6.6c0-.2-.1-.4-.3-.4-.1 0-.1-.1-.2-.1 0 0 0-.1 0-.3 0-.3.1-.4.2-.4l3.1-.1c.6 0 1.2.2 1.7.7s.8 1.1.8 1.9c0 1.1-.5 1.9-1.7 2.2 1 .2 1.6.9 1.6 1.9v1.3c0 .1 0 .2.1.3s.2.2.2.3v.4s-.1.1-.2.1h-1.5c-.2 0-.3-.1-.5-.3s-.2-.5-.2-.8v-2.3c0-.4-.2-.7-.7-.6zm-.1-4.4.1 3.8h.4c.4 0 .5-.4.5-1.1v-1.8c0-.3-.1-.5-.2-.7-.1-.1-.3-.2-.6-.2z"/><path d="m61.9 10.7-1.4-.1-.1.4c0 .1-.1.2-.1.3s.1.3.2.4.1.1.2.2 0 .1 0 .3 0 .2-.1.3h-.1l-1.5-.2c-.1 0-.1-.1-.1-.3s.1-.4.2-.5.2-.2.3-.3l1.7-6.5c0-.1 0-.2.1-.3 0-.1-.1-.2-.2-.3s-.1-.2-.1-.3c0-.2 0-.3.1-.4 0 0 .1-.1.2-.1l2.1.2c.1 0 .2.1.3.2 0 .1.1.4.1.8v.5l.3 6.2c0 .3.1.5.3.7l.1.1v.2c0 .2 0 .3-.1.3 0 0-.1.1-.2 0l-2.5-.3c-.1 0-.1-.1-.1-.2 0-.2 0-.3.1-.3 0 0 .1-.1.2-.1.1-.1.2-.2.2-.3 0 .2 0-.1-.1-.6zm-.1-5.1-1.1 4.3 1.2.1z"/><path d="m65 11.8 1.6-6.6c0-.1 0-.1-.2-.2-.1-.1-.1-.1-.2-.2 0-.1 0-.2 0-.4 0-.1.1-.2.1-.3h.4l2.6.6c.7.2 1.3.7 1.6 1.5s.3 2-.1 3.6c-.3 1.5-.8 2.5-1.5 3.1-.6.6-1.4.8-2.1.6l-2.9-.7c-.1 0-.1-.1-.2-.1 0 0 0-.1 0-.3s.1-.3.1-.3.1-.1.2-.1c.4.1.5 0 .6-.2zm3.7-6.5-1.8 7.6.3.1c.2 0 .4 0 .5-.1s.3-.4.4-.9l1.3-5.6c.1-.2 0-.5 0-.6-.1-.2-.2-.3-.4-.3z"/><path d="m76.2 6.7c.5.2.9.5 1.1 1s .4 1.1.4 1.8-.2 1.6-.6 2.6c-.5 1.2-1.1 2.1-1.9 2.8-.8.6-1.6.8-2.4.5s-1.3-1-1.4-1.9c-.2-1 0-2.1.5-3.4s1.1-2.3 1.9-2.9 1.5-.8 2.4-.5zm-.1 1.4c.2-.4.1-.7-.2-.8-.1 0-.2 0-.4 0s-.2.2-.3.4l-2.4 6.3c-.1.2-.1.4-.1.5s.1.2.2.3c.1 0 .3 0 .4-.1s.2-.2.3-.4z"/><path d="m81.8 10.2-1.5 2.8.3.2c.1 0 .2.1.2 0 .1 0 .1-.1.2-.2.2-.2.3-.3.3-.4h.2c.3.1.4.2.4.3 0 0 0 .1-.1.3l-.9 1.7c-.1.1-.1.2-.2.2 0 0-.2 0-.3-.1s-.2-.1-.2-.2 0-.2.1-.4.1-.3.1-.4-.1-.1-.1-.1l-.4-.2-1.7 3.4.3.1c.2.1.3.1.4 0s .3-.3.7-.6c.2-.2.3-.2.4-.3.1 0 .2 0 .4.1s.3.2.2.4c0 0-.1.1-.1.2l-.8 1c-.1.2-.2.3-.3.3 0 0-.1 0-.2 0l-3.3-1.7c-.1 0-.1-.1-.1-.1s0-.2.1-.3.2-.2.3-.2c.2 0 .4 0 .4-.2l3.3-6.2c0-.1 0-.2-.1-.3s-.1-.2-.1-.2 0-.1.1-.3c.1-.1.1-.2.2-.2 0 0 .1 0 .2.1l3.2 1.7c.1 0 .1.1.2.1v.2l-.6 1.3c0 .1 0 .1-.1.1 0 .1-.2.1-.3 0-.2-.1-.3-.2-.3-.3s0-.2 0-.4c.1-.4.1-.6.1-.8s-.1-.3-.2-.3z"/><path d="m86.8 12.7s.1 0 .3-.1h.3s.1.1.2.2c0 .1 0 .1-.1.2l-.8 1.8c0 .1-.1.1-.1.2s-.1.1-.1.1-.1-.1-.3-.1c-.2-.1-.2-.2-.3-.3 0-.1 0-.3.1-.7.1-.8.1-1.3-.1-1.4s-.3 0-.5.2c-.2.3-.3 1-.3 2.1-.1 1.3-.1 2.2-.3 2.7-.1.5-.3 1-.7 1.5-.4.6-.8 1-1.3 1.1s-.9.1-1.3-.1c-.2-.1-.4-.4-.5-.6 0-.1-.1-.2-.1-.2s-.1 0-.2 0c-.1.1-.3.1-.5-.1 0-.1 0-.2 0-.2s0-.1.1-.2l.8-1.7c.1-.2.2-.3.2-.3.1-.1.2-.1.3 0 .2.1.3.3.3.4s0 .3-.1.5c-.2.9-.2 1.5.1 1.7.1.1.2.1.3.1s.2-.1.3-.2c.1-.2.2-.5.2-.8 0-.4.1-.8.1-1.2 0-1.1.1-2 .2-2.6s.3-1.2.6-1.7c.4-.6.8-.9 1.2-1.1.5-.2.9-.1 1.2.1.4-.1.6.2.8.7z"/><path d="m37.8 103.7-.9 2.2c0 .1-.1.2-.1.2s0 .1.1.2.1.2 0 .3c-.1.2-.1.3-.2.3 0 0-.1 0-.2 0l-1.9-.8c-.1 0-.1-.1-.1-.3.1-.2.1-.2.1-.3l.1-.1c.2 0 .3-.1.4-.3l2.1-5.3c.1-.2.1-.3-.1-.4-.1-.1-.1-.1-.1-.1s0-.1.1-.2c.1-.2.2-.3.3-.3l2.5 1c .5.2.9.6 1.1 1.1s.2 1.1 0 1.7c-.4.9-1.1 1.3-2.1 1.2.8.5 1 1.2.6 2.1l-.4 1.1v.2c.1.1.1.2 0 .3-.1.2-.1.3-.2.3 0 0-.1 0-.2 0l-1.2-.5c-.1-.1-.2-.2-.3-.4 0-.2 0-.4.1-.7l.7-1.8c.1-.4 0-.6-.3-.8zm1.4-3.6-1.2 3.1.3.1c.3.1.6-.1.8-.7l.6-1.5c.1-.3.1-.5.1-.6-.1-.1-.2-.3-.4-.3z"/><path d="m41.7 102.3.1-.3c0-.1.1-.1.2-.1l1.5.5c.1 0 .1.1.1.2l-1.7 5.4v.1s0 .1.1.1c.1.1.1.2.1.3-.1.2-.1.3-.1.3s-.1 0-.2 0l-1.8-.6s-.1 0-.1-.1c0 0 0-.1.1-.3s.1-.3.2-.3.2-.1.2-.1l1.4-4.7c.1-.2 0-.3-.1-.4zm1.9-1.4c.4.1.5.3.4.5s-.2.3-.5.4-.6 0-.9-.1c-.4-.1-.5-.3-.5-.6.1-.2.2-.3.6-.3s.6 0 .9.1z"/><path d="m46.6 103.6.2-.8c0-.1 0-.2-.1-.3-.1 0-.1 0-.1-.1 0 0 0-.1 0-.2v-.2c0-.1 0-.1.1-.1h.2l1.5.3c.1 0 .1 0 .2.1s0 .1 0 .2l-1.5 6.6c0 .1 0 .3.2.3.1 0 .1.1.1.2l-.1.2c0 .1-.1.1-.2.1l-1.7-.4c-.1 0-.1 0-.1-.1s0-.1 0-.3v-.1c-.4.2-.8.3-1.1.3-1-.2-1.3-1.4-.8-3.4.3-1.5.7-2.4 1.1-2.8s.8-.5 1.2-.4c.3.2.6.5.9.9zm-.1.5c-.1-.1-.2-.2-.3-.2s-.2 0-.3.1-.1.2-.2.3l-.9 3.9v.3c0 .1.1.2.2.2s.2 0 .3-.1.2-.1.2-.2z"/><path d="m50.2 107-.3 2c0 .3 0 .5.1.6s.2.3.4.3.5 0 .6-.2c.2-.2.3-.5.3-.8 0-.2.1-.3.1-.3s.2 0 .4 0 .3.1.3.1.1.1 0 .3c-.1.5-.3.9-.7 1.3-.4.3-.8.5-1.4.4s-1.1-.4-1.4-1c-.4-.6-.5-1.5-.3-2.6.1-1.1.5-1.9.9-2.5.5-.5 1-.8 1.7-.7.5.1 1 .4 1.2.9.3.5.3 1.3.2 2.2l-.1.5zm.7-.5.2-1.6c0-.3 0-.5-.3-.5-.2 0-.3.1-.4.4l-.2 1.6z"/><path d="m57.6 104.2c.6 0 1.1.3 1.5.8s.6 1.4.6 2.4c0 1.2-.2 2-.6 2.7-.4.6-.9.9-1.5.9-.4 0-.8-.1-1.1-.4s-.6-.6-.7-1.1c-.2-.5-.3-1.1-.3-1.9 0-1.1.2-2 .6-2.6.3-.5.8-.8 1.5-.8zm.3 1.2c0-.4-.1-.6-.4-.6s-.4.3-.4.7l.1 4.1c0 .5.1.7.4.7s.4-.3.4-.7z"/><path d="m61.9 105.3c0-.1.1-.2.1-.4.1-.4.2-.7.3-.8s.2-.2.4-.2.4.1.5.2c.1.2.2.4.2.7.1.6-.1.9-.4.9-.2 0-.3-.1-.4-.3-.1-.1-.1-.2-.2-.2s-.2.2-.2.5l.4 3.9c0 .1.1.2.2.3.1 0 .2.1.2.3v.2.2h-.1l-1.8.2c-.1 0-.2 0-.2-.2v-.3c0-.1 0-.2.1-.2.1-.1.2-.2.1-.3l-.5-4.9c0-.1-.1-.2-.1-.2-.1 0-.1-.1-.2-.1 0 0 0-.1 0-.2s0-.2 0-.2.1-.1.2-.1l1.3-.1h.1s0 .1.1.2z"/><path d="m67.3 108.9-1.4-5.7c0-.1-.1-.1-.2-.1s-.2 0-.2-.1c0 0-.1-.1-.1-.3 0-.1 0-.2 0-.2s.1-.1.3-.1l2.3-.5c.6-.2 1.3 0 1.8.5.6.5 1 1.4 1.4 2.8.3 1.3.3 2.3.1 3-.3.7-.7 1.2-1.4 1.3l-2.5.6c-.1 0-.1 0-.2 0 0 0-.1-.1-.1-.2s0-.2 0-.3c0 0 0-.1.1-.2 0-.2.1-.3.1-.5zm.3-6.5 1.6 6.6.3-.1c.2 0 .3-.1.3-.3s0-.4-.1-.8l-1.2-4.9c-.1-.2-.1-.4-.3-.5-.1-.1-.3-.1-.5-.1z"/><path d="m71.6 100.5c.3-.1.6-.1.6.2.1.2 0 .4-.2.6s-.4.4-.7.5c-.4.1-.6.1-.7-.2-.1-.2 0-.4.2-.6.3-.3.5-.4.8-.5zm-.7 2.2-.1-.3c0-.1 0-.2.1-.2l1.5-.5c.1 0 .2 0 .2.1l1.8 5.3c0 .1 0 .1.1.1h.1c.1 0 .2.1.3.2.1.2.1.3.1.3s0 .1-.1.1l-1.8.6h-.1s-.1-.1-.1-.3c-.1-.2 0-.3 0-.3.1-.1.1-.1.1-.2l-1.5-4.6c-.1-.2-.2-.3-.3-.3-.2.1-.3 0-.3 0z"/><path d="m76 103.8.8 1.8c.1.2.2.4.4.5s.3.1.4.1c.2-.1.4-.3.4-.5.1-.3 0-.5-.1-.9-.1-.2-.1-.3-.1-.3s.1-.1.3-.2.3-.1.3-.1c.1 0 .1.1.2.2.2.5.2.9.1 1.4-.2.5-.5.8-1 1-.6.2-1.2.2-1.8-.2s-1.1-1-1.6-2.1c-.4-1-.6-1.9-.4-2.6.1-.7.5-1.2 1.1-1.4.5-.2 1-.2 1.5.2.5.3.9.9 1.3 1.8l.2.4zm.4-.8-.6-1.5c-.1-.3-.3-.4-.5-.3s-.2.3-.1.6l.6 1.5z"/></g></svg>