<svg enable-background="new 0 0 113.4 113.4" viewBox="0 0 113.4 113.4" xmlns="http://www.w3.org/2000/svg"><circle cx="56.7" cy="56.7" fill="#fff" r="56.7"/><ellipse cx="56.7" cy="56.7" fill="#fff" rx="53.4" ry="55"/><path d="m56.5 58.2c-.4 4.1-.9 8.2-1.3 12.3-.4 3.9-.8 7.8-1.2 11.6-.4 3.9-.8 7.8-1.2 11.7s-.8 7.9-1.3 11.8c-.2 1.6-.3 3.1-.5 4.9-1.4-1.9-2.5-3.9-3.5-5.8-3.7-6.8-6-14.1-6.8-21.8-.9-8.5.1-16.9 2.7-25.1 2.8-8.8 7.1-16.9 13-24.1.1-.1.2-.3.4-.5 1.8 2.1 3.4 4.3 4.9 6.6 5.2 8 8.8 16.6 10.6 25.9 2.3 12.2.8 24-4.3 35.3-1.4 3.1-3.1 6.1-5 9-.1.2-.1.5-.6.4-.2-2.3-.5-4.5-.7-6.8-.4-4.3-.9-8.5-1.3-12.8-.4-4.1-.8-8.1-1.2-12.2-.4-4.2-.9-8.4-1.3-12.5-.3-2.6-.5-5.3-.8-7.9 0-.4.1-.8-.2-1.2-.5.5-.5.9-.4 1.2z" fill="#040302"/><path d="m69.4 109.8c4.5-7.6 7.2-15.8 8.5-24.5 3.8-2.2 7.3-5 10.2-8.3 5.9-6.6 9.5-14.3 10.7-23.1 2.7-20.2-9.7-39.8-29.3-46-.7-.2-1.5-.6-2.2-1-1-.5-1.4-1.6-1.1-2.7s.9-1.5 2.3-1.3c3.3.5 6.4 1.6 9.4 2.9 17.7 7.8 29 21.2 32.8 40.2 5.9 29.3-12.6 57.2-40.9 64.2-.1 0-.3.1-.4.1 0-.2 0-.4 0-.5z" fill="#060403"/><path d="m44 110.2c-10.8-2.7-20.1-8-27.6-16.1-7.6-8.2-12.4-17.8-14-28.9-2.4-16.2 1.5-30.8 11.7-43.5 7.7-9.6 17.8-15.8 29.8-18.8 2.3-.6 3.5.4 3.2 2.3-.1.7-.5 1.3-1.1 1.6-.8.4-1.6.7-2.4 1-15.9 5.7-25.8 16.8-28.8 33.5-3.1 17 4.9 34.1 19.6 43.1.3.2.6.4 1.1.7 1.4 8.6 4 16.9 8.5 24.5z" fill="#060403"/><path d="m56.5 58.2c-.1-.3-.1-.6.2-1 .3.4.3.8.2 1.2-.1-.1-.3-.1-.4-.2z" fill="#b5afaf"/><path d="m44 110.2c0-.1 0-.3 0-.4.2.1.3.2.2.4z" fill="#8c8382"/><path d="m69.4 109.8v.4c-.1 0-.2 0-.2 0-.1-.2 0-.3.2-.4z" fill="#8b8382"/></svg>