<svg enable-background="new 0 0 113.4 113.4" viewBox="0 0 113.4 113.4" xmlns="http://www.w3.org/2000/svg"><circle cx="56" cy="55.9" fill="#192b4a" r="50.8"/><circle cx="56" cy="55.9" fill="#eaeada" r="43.8"/><path d="m80.8 33.4-.1-.2-.1-.2-.2-.1-1.4-1.5-3.2-2.7-3.6-2.2-3.6-1.7-3.8-1.3-4-.7-4-.2-3.7.2h-.3-.2l-3.9.7-3.9 1.3-3.7 1.7-3.4 2.1-3.1 2.6-1.5 1.6-.2.1-.1.2-.1.2-.9.9-2.4 3.3-1.6 2.9v.1l-.4.7-1.6 3.8-.7 2.7v.1l-.3 1.1-.5 4v1.9l-.1.2v.1.1 1.8l.5 4 1 3.9 1.5 3.8.4.7.2.4.1.1 1.4 2.5 2.4 3.3.9.9v.1.2l.1.2.1.1.4.1 1.3 1.4 3.1 2.6 3.4 2.1 1.4.7.1.2.2.1h.3l1.6.7 3.9 1.3 4 .8 3.8.2h.3.2l3.8-.2 4-.8 3.8-1.3 1.7-.7h.3l.2-.1.2-.2 1.3-.6 3.6-2.2 3.1-2.6 1.3-1.4.4-.1.3-.4v-.2-.1l.9-.9 2.4-3.3 1.4-2.5.1-.1.1-.2v-.1l.4-.7 1.5-3.8.5-2v-.1l.5-1.8.5-4v-1.8l.1-.1v-.3l-.1-.1v-1.8l-.5-4-1-3.9-1.5-3.8-.3-.6v-.1l-1.6-2.9-.8-1.1-.1-.1-1.5-2.1zm-3.5-1.2.7.7h-.8l-1.2-1.5-2.2-2.1.6.4zm.9 1.9h.9l.9.9 2.2 3.2 1 1.9h-1.5l-3.3-5.7zm-.8 1 2 3.2.9 1.9h-3.2l-2.6-5.7-.2-.3h2.3zm.2 6.2h3.4l1.4 4 .4 1.9h-3.7l-.4-2.2zm6.2 0 .2.4 1.4 3.6.5 1.9h-1.9l-.5-2.2-1.3-3.8zm.6 7.7-.1-.5h1.9l.2.7.5 3.9v1.4h-2v-1.4l-.4-3.7v-.4zm-5.1-.4-.1-.2h3.8l.2.7.4 3.9v1.4h-3.9v-1.4zm-1.8-3.3.3 1.9h-5.2l-1.1-6h4.7zm.7 3.9.4 3.9v1.4h-5.4l-.3-6h5.3zm8.6 6.4v1.4l-.5 3.9-.2.9h-1.9l.2-.6.4-4v-1.4h2zm-3.2 0v1.4l-.4 3.8-.2 1-.6-.1h-3.1l.5-4.7v-1.4zm-5 0v1.4l-.5 4.8-.8-.1h-4.5l.1-.7.2-5.4zm.5 7.3h3.7l-.4 1.8-1.3 3.7-.3.5h-3.2zm3.1 5.9 1.3-3.8.4-2.1h1.9l-.5 1.8-1.5 4.2zm-5.1 1.3h3.2l-.8 1.7-2 3.2-.9 1.1h-2.3l.3-.5zm4.5 0h1.5l-.9 1.7-2.2 3.2-1 1.1h-.8l.3-.5 2.1-3.3zm-3.8 7.2-.5.5-2.9 2.5-.6.4 2.2-2.1 1.1-1.4zm-41.8-45.1 2.9-2.5.6-.4-2.1 2.1-1.3 1.6h-.1-.7zm1.6.7.7-.8 2.5-2.4 3.6-2.5.4-.4.3.2-2.1 1.9-2.2 2.6-1 1.4zm3.6 0 .5-.7 2.1-2.5 2.3-2.1.9-.7h1.3l-1.6 2-1.9 3.3-.3.7zm-5.3 2.2.8-.9h2.3l-.2.2-2.6 5.7h-3.2l.9-1.9zm7 6.5.1-.3h5.7v.1l-.5 5.9h-6.2zm-5.9-.3h4.7l-1.1 6h-5.2l.3-1.9zm5-1.2h-4.6l.7-1.9 2.2-4.1h3.3l.1.5zm-8.6-5 .9-.9h.8l-2.3 3.5-1.2 2.5-.1-.1h-1.4l1-1.9zm-1.1 6.6.2-.4h3.3l-1.1 3.8-.4 2.2h-2.8-.9l.4-1.9zm-2.8-.4h1.6l-1.3 3.8-.5 2.2h-1.9l.5-1.9zm-2.3 7.1h1.9l-.5 4.5v1.4h-2v-1.4l.5-3.9zm2.5 4.6.4-3.9.2-.7h3.7l-.4 4.6v1.4h-3.9v-1.2zm5.5-4.6h5.2l-.2 6h-5.4v-1.4zm29.8-21.4h1.2l.9.6 2.3 2.1 2.1 2.5.5.7h-3.2-.2l-2.2-4zm3.2 0h .2l1.2.7 2.9 2.1 2.6 2.5.6.7h-2.2l-1-1.5-2.1-2.5zm-4.9 0 .6.5 1.6 2.1 1.9 3.3h-4.3l-1.1-3.8-.9-2.1zm.5-1.2-.6-.5 1.2.5zm-3.2 0-.4-.7-.5-.7.7.3 1.6 1.1zm-11.6 0 1.2-.5-.7.5zm.4 1.7.7-.6 2.1.1-.9 2.1-1.1 3.9-.1-.1h-4.1l.4-.8 1.6-2.6zm7.9-3.6h.2l.9.7.9 1.2h-2zm0 3.1h2.6l.2.4 1.9 5.5h-4.7zm-1.2-3.1v1.9l-2-.1.9-1.1.9-.7zm-3.3 1.9h-.9l-.4-.1 1.5-1 .5-.2.2-.1-.6.7zm.5 1.6.2-.4h2.6v5.9h-4.7l1-3.5zm4 12.7v-6h5l1 6zm-1.2-6v6h-6.1l1.1-6zm-10.7 0h4.5l-1 6h-5.6l1.7-5.2zm4.4 7.4.1-.3h6.2v6h-6.9zm7.5 5.8v-6h6.2l.5 6zm-8.1 1.1h6.9v6h-7.1zm24.3-13.4 1.7 3.2.7 1.9h-4.6l-1.9-5.6-.2-.4h3.6zm-3.9 3.1.5 1.9h-5.6l-1-6h4.5zm-4.9 3.3 5.7-.1 1.1 6h-6.3zm.6 7h6.4l.3 5.9h-6.5zm-8 0h6.9l.2 6h-7.1zm-15.6 0h6.3l-.2 6h-.3-6.2zm31 14.5h.1 5.1l-1.6 6.1h-.8-3.9l.1-.2zm-1-2-.1.8h-6.3l.2-6.2h6.5zm-7.4-5.3-.2 6.1h-6.9v-6.1zm11.5 14.5-.6 1.7-1.7 3.1-.7 1.2h-3.6l.4-.7 1.7-5.3zm-5.8 0-.5 1.8-1.7 4.2h-4.5l1.1-6zm-4.8-7.2h6.4l-1.2 6h-5.7zm-1.1 0-.6 6h-6.2v-6zm-8-7.3v6.1h-6.9l-.2-6.2zm-8.2 0 .2 6.1h-6.4l-.3-6.1zm1.4 7.3h6.8v6h-6.2zm-1.2 0 .6 6h-5.7l-1.1-6zm1.9 7.2h6.1v6h-5zm3.5 13.2-1.2-2.6-1-3.4h4.7v6zm-1.4-.2.1.2h-2l-.8-.7-3.1-4.6-.3-.7h4.2v-.2l1.1 3.8zm8-.5-.3.7h-2.5v-6h4.7zm-2.8 1.8h1.8l-.8 1-.9.7-.2.1zm-3 0h1.9v1.7l-.2-.1-.9-.7zm-4.5-9 .2.7h-4.5l-.5-1-1.7-5h5.6zm-5.9.1.2.5h-3.6l-2.3-4.2-.7-1.7h4.5l.1.1zm3.5 7.8-1.2-.8-2.3-2.1-2.6-3.1h3.4l2.1 3.8 1.7 2.2zm-2.1 0-1.6-.8-2.9-2.2-2.6-2.5-.5-.5h2.2l.8 1.3 2.2 2.6zm4 1.1h.5l.4.3zm10.4 1.2.5-.7.3-.5h1.3l-1.4.9-.6.2zm-6 0-.7-.3-1.4-.9h1.2l.2.5zm19.7-8.4h.3 1.9l-.5.6-2.6 2.5-2.9 2.1-1.4.8h-.1l2.3-2.1 2.2-2.6zm-4.7 0 .1.1h3.2l-2.6 3.1-2.3 2.1-1.2.8h-1.1l1.7-2.2 1.6-2.6zm-5.5-.2v.2h4.1l-1.8 3.2-1.6 2.1-.8.8h-1.9zm.8 7.4-.8.3.4-.3zm-6.7-14.3h6l-1 6h-5zm-16.8-9.1.1.7h-5.2l-.3-.9-.3-3.8v-1.4h5.4zm-5 1.9h5.2l1 5.8v.2h-4.7l-1.2-4.2zm-1.9-7.3v1.4l.3 4 .2.6-3.7.2-.2-1-.4-5.2zm-5.2 0 .1 1.4.5 4 .1.6h-1.9l-.2-.8-.5-3.9v-1.4h1.9zm1 7.3v.2l1.7 5.7.1.1h-1.6l-.3-.6-1.4-3.6-.5-1.8zm1.2 0h3.7l.4 2.1 1.1 4h-3.3l-.3-.6-1.3-3.7zm1.2 7.2 1.1 2.3 2.1 3.3.4.5h-.1l-.8-.1-1-1-2.3-3.3-.9-1.7zm2.1 1.7-.8-1.7h3.2l2.6 5.7.2.3h-2.3l-.9-1.1zm2.4 5.5 1.1 1.4 2.1 2.1-.6-.4-2.9-2.6-.5-.5z" fill="#e41b18"/><path d="m27.7 52c .8 1.4 2.3.7 2.3.7s-3.2 9.8.9 15.4 3.8 13.5 3.8 13.5 7.8-.8 13.7 2.8 15.4-.3 15.4-.3-.6 1.6.9 2.3c1.4.7 9.1-3.9 5.8-10.9 0 0-1.9 3.9-4.2 3.3s-4.7.7-3.4 2.4c0 0-5.2 1.3-9.1-3.8-3.9-5.2-2.7-7.5-1.7-9.2.8-1.2 11.5-13.8 19.1-22l2.2 2c-.4 1.2 0 2.6 1 3.6 1.4 1.3 3.6 1.2 4.9-.2s1.2-3.6-.2-4.9c-1-1-2.5-1.2-3.7-.7l-2.1-2c1-1 1.8-1.9 2.6-2.6 2.5.8 5.4.1 7.3-1.9 2.7-2.9 2.5-7.4-.4-10-2.9-2.7-7.4-2.5-10 .4-1.9 2.1-2.4 5-1.4 7.5-.7.8-1.5 1.8-2.4 2.8l-2-1.9c.4-1.3.1-2.7-.9-3.6-1.4-1.3-3.6-1.2-4.9.2s-1.2 3.6.2 4.9c1 .9 2.4 1.1 3.6.7l2.1 1.9c-7.4 8-19.2 19.7-20.3 20.6-1.6 1.2-3.8 2.5-9.3-.9-5.5-3.5-4.5-8.8-4.5-8.8 1.9 1.2 3-1.4 2.2-3.6s3-4.4 3-4.4c-7.3-2.8-11.2 5.3-10.5 6.7zm37.2-14c-.5.6-1.4.6-2 .1s-.6-1.4-.1-2 1.4-.6 2-.1.6 1.4.1 2zm15-2c-.8.9-2.2.9-3.1.1s-.9-2.2-.1-3.1 2.2-.9 3.1-.1c.8.8.9 2.2.1 3.1zm-4 12.1c.5-.6 1.4-.6 2-.1s.6 1.4.1 2-1.4.6-2 .1-.6-1.4-.1-2z" fill="#192b4a"/><path d="m52.6 55.2c0 .3.1.7.1 1 0 .1.1.1.1.2.3.3.5.7.8 1 .1.1.1.2.2.2.1.1.1-.2.2 0 0 .1.1.2.2.2.2.2.4.4.6.5.2.2.2.2.4 0 .1-.1.2-.1.3 0 .4.4.8.7 1.1 1.1l.2.2c.4.4.8.7 1.1 1.1l3 3 1.8 1.8c.2.1.2.4.4.5s.3.3.4.5l.5.5.5.5c.6.8 1.4 1.4 2.1 2.1.7.8 1.4 1.4 2.2 2.1.1.1.2.3.3.3.2.1.2.3.3.3.3.2.4.5.7.6.3.2.5.4.7.7.5.6 1.2 1.2 1.8 1.8.4.4.8.9 1.2 1.3.9.9 1.9 1.8 2.7 2.7.6.7 1.3 1.2 1.9 1.9.2.2.4.5.6.7.1.1.1.1.2.1.4 0 .7.1 1.1.1.2 0 .4.1.6.1s.4-.1.5.1h.3c.3 0 .5-.1.8.1.2.1.5-.1.7.1h.1c.5 0 .9.1 1.4.1.1 0 .2.1.4.1.1-.1.3 0 .5 0 .1 0 .3 0 .4.1.3.1.5 0 .8.1.2.1.4 0 .7 0 .2 0 .4.1.6.1h.2l-.1-.1c-.4-.6-.8-1.2-1.3-1.9-.4-.6-.8-1.3-1.3-1.9-.6-.8-1.2-1.7-1.7-2.5-.5-.7-1-1.4-1.4-2.1-.3-.6-.8-1.1-1.2-1.6-.3-.5-.7-1-1-1.5-.3-.4-.6-.9-.9-1.3s-.7-.9-.9-1.3c-.1-.2-.3-.4-.4-.6-.6-.6-1.2-1.2-1.8-1.9-.1-.1-.2-.2-.4-.1s-.2.1-.3 0c0 0-.1-.1-.2-.1-.1-.1-.1-.2 0-.3s.1-.2 0-.3c-.2-.1-.3-.3-.5-.4-.1-.1-.1-.1-.4-.1-.2 0-.3-.1-.4-.2s-.1-.2 0-.4c.1-.1 0-.1 0-.2-.1-.3-.4-.4-.6-.6h-.1c-.1 0-.2 0-.2 0-.3 0-.4 0-.4-.3 0-.4 0-.4-.3-.7l-.1-.1c-.1-.2-.2-.4-.5-.2-.2.1-.5-.2-.4-.4s0-.4-.1-.5-.3-.3-.4-.4-.2-.1-.4-.1c-.3.1-.4.1-.4-.2 0-.1 0-.2 0-.3.1-.1 0-.1 0-.2-.2-.2-.4-.4-.6-.7-.1-.1-.2-.1-.2 0 0 0-.1 0-.1.1-.1.1-.2.1-.2 0s-.3-.2-.1-.5c.1-.1 0-.2-.1-.3-.2-.1-.3-.3-.5-.4-.1-.2-.3-.2-.5-.1s-.3-.1-.4-.2c0 0 0-.2.1-.3 0-.1.1-.2 0-.3-.2-.1-.4-.3-.5-.5-.1-.1-.2-.1-.3 0-.3.1-.5 0-.5-.4s0-.4-.2-.6c-.1-.1-.1-.1-.1-.2-.1-.1-.2-.1-.3-.2s-.2 0-.3.1c-.2.1-.5-.2-.4-.4.1-.3 0-.4-.2-.6-.1-.1-.2-.2-.3-.3-.1-.2-.3-.2-.5-.2-.1 0-.2.1-.2.1-.1-.1-.1-.2-.1-.4 0 0 0 0 0-.1 0-.4 0-.4-.2-.6-.1-.1-.2-.2-.3-.3-.2-.2-.2-.2-.5-.1-.1 0-.3-.1-.3-.2s0-.1 0-.2 0-.3.1-.4c-.1-.1-.2-.2-.3-.3-.5-.5-1.1-.9-1.5-1.5-.8-.9-1.6-1.6-2.4-2.4-.2-.2-.5-.5-.7-.7-.1-.1-.1-.2-.1-.3s0-.2.1-.2c.3 0 .5-.1.8-.3.1-.1.2-.1.3-.1s.3 0 .3-.1c.1-.2.2.1.3 0 0-.1.2-.2.3-.2.1-.1.2-.2.3-.2.1-.1.2-.2.3-.2.2-.1.3-.3.5-.4.1-.1.1-.3 0-.5-.1-.1-.3-.3-.4-.4-.2-.2-.3-.2-.6 0-.5.4-1.1.7-1.8.9-.3.1-.6.2-.9.2s-.7 0-1 0c-.2 0-.4.1-.3-.2 0 0-.1 0-.2-.1-.4-.1-.8-.2-1.1-.4-.7-.4-1.4-.8-1.9-1.5-.2-.3-.4-.5-.6-.7-.3-.4-.7-.8-1.1-1.1-.6-.6-1.2-1.2-1.7-1.8-.6-.7-1.2-1.3-1.8-1.9-.4-.5-.9-.8-1.2-1.3-.1-.1-.2-.2-.3-.3-1-.9-1.9-1.8-2.9-2.8-.7-.7-1.5-1.4-2.2-2-.6-.5-1.2-1-1.9-1.6-.3-.2-.5-.5-.8-.7-.6-.4-1.1-1-1.8-1.4-.2-.1-.4-.3-.6-.5-.1-.1-.2-.2-.4-.2s-.3-.2-.4-.4c-.1-.1-.1-.1-.1-.2-.6-.7-1.3-1.3-2-2-.2-.2-.5-.3-.7 0-.3.2-.5.5-.8.7-.7.5-1.3 1.2-1.8 1.9-.4.4-.8.9-1.1 1.4 0 .1-.1.1-.2.2-.4.4-.8.7-1.1 1.2-.4.3-.7.7-1 1.1-.2.1-.1.3-.2.5 0 .1.1.3.1.4.2.2.4.4.7.6.1.1.1 0 .2 0 .5-.1.8-.4 1.3-.5.3-.1.9-.1 1.2-.1h.2c.2 0 .5-.1.6.1.2.1.4 0 .5.3 0 .1.2.1.3.1.5.2 1 .6 1.5.9.4.6 1 1 1.3 1.7.5 1 1.1 1.9 1.8 2.8.5.7 1 1.3 1.5 2 .3.1.4.4.6.6s.4.4.5.6c.2.2.4.5.6.7.3.2.5.5.8.7.1.1.2.3.3.4s.4.1.4.3c.1.2.2.3.4.4.3.2.6.3.8.6.3 0 .4.3.7.4.2 0 .4.2.6.4s.4.4.7.5c.1.1.3 0 .4.1s.2.2.4.2c.1 0 .3.1.4.2.2.2.6.3.8.5.1.1.2.2.4.3.4.2.8.6 1.1.9.1.1.2.1.2.2.2.4.5.8.5 1.2.1.5.3.9.1 1.4-.1.1 0 .3-.1.5-.1.1 0 .3-.1.4v.2c.1.2 0 .3-.1.5s-.4.3-.4.6c-.3 0-.3.3-.5.4-.3.5-.8.7-1.2 1.1-.2.2-.4.3-.6.5-.1.1-.1.3 0 .4.2.2.3.4.5.6.1.1.3.1.3 0 .1-.2.5-.2.5-.5 0-.1.3 0 .3-.2 0-.1.2-.2.3-.3l.1-.1c.4 0 .6-.4.9-.4.1-.2.4-.2.5-.3h.2c.1-.1.3-.2.4-.2.2.2.3-.1.4-.1.2 0 .4-.1.6-.2.3-.1.7-.1 1-.1.1 0 .2-.1.2-.1.2-.2.5 0 .7-.2.1.1.3.1.4.2.1.2.3.5.3.8s.2.5.2.8.1.5.1.7c.1-.4 0-.2 0 0z" fill="#192b4a"/><path d="m56.7 2.2c-30 0-54.4 24.4-54.4 54.4s24.4 54.4 54.4 54.4 54.4-24.4 54.4-54.4c0-29.9-24.4-54.4-54.4-54.4zm0 100.8c-25.5 0-46.3-20.8-46.3-46.3s20.8-46.3 46.3-46.3 46.3 20.8 46.3 46.3-20.8 46.3-46.3 46.3z" fill="#192b4a"/><path d="m56.7 0c-31.3 0-56.7 25.4-56.7 56.7s25.4 56.7 56.7 56.7 56.7-25.4 56.7-56.7-25.5-56.7-56.7-56.7zm0 112.2c-30.6 0-55.5-24.9-55.5-55.5s24.9-55.5 55.5-55.5 55.5 24.9 55.5 55.5-24.9 55.5-55.5 55.5z" fill="#192b4a"/><g fill="#eaeada"><path d="m7.5 64.7c0 .1 0 .1-.1.2 0 0-.1.1-.2.1-.2 0-.4 0-.7-.1-.2-.1-.5-.2-.6-.3s-.3-.2-.4-.4-.2-.3-.2-.5 0-.4 0-.6l.1-.6c0-.3.1-.5.1-.6s-.1-.2-.2-.4c-.1-.1-.1-.1-.1-.2s0-.1 0-.2c0 0 .1-.1.2-.1s.3 0 .5 0 .3.1.4.2c.3.2.4.5.5 1v .8 1c0 .1.1.2.1.3h.1.2c.2.2.2.2.3.4zm3.1-2.5.4-.1v.1.8c-.1.3-.2.5-.3.7-.2.3-.6.5-1 .6-.4 0-.7 0-1-.2s-.6-.5-.8-.8l-.3-.5c-.1-.1-.2-.4-.4-.6l-.1-.1c0-.1 0-.2-.1-.3 0-.1-.1-.2-.2-.4.1.1.3.2.4.3s.3.2.4.4l.5.5s.2.1.3.2c.1 0 .3.1.4.1h.6c.4-.1.7-.1.9-.2.1 0 .1-.1.1-.1.2-.2.2-.3.2-.4zm.4-.4-.4.1c0-.1-.1-.1-.1-.2l-.1-.1-.1.1c-.1.1-.1.2-.2.3s-.2.1-.3.1c-.2 0-.4 0-.6-.2-.2-.1-.3-.3-.3-.5s0-.4.2-.6c.1-.2.3-.3.6-.3.2 0 .4 0 .7.1.2.1.4.3.5.5-.1.2 0 .4.1.7z"/><path d="m10.1 65.9-.6.6-2.2.5c-.2 0-.3.1-.4.2s-.2.2-.2.4v.1c0 .1-.1.1-.2.1s-.1 0-.2 0c0 0-.1-.1-.1-.3l-.2-.9c-.1-.2 0-.4.1-.4h.1s.1.1.2.1c.2.2.5.3.9.2zm1.8 1.4-3.2 3-1.8.4-.3-1.1 4.1-3.9c.1-.1.1-.1.2-.2 0 0 0-.1.1-.2v-.2-.1l.1-.1h.1s.1 0 .1.1c0 0 .1.2.1.4zm-2.6 2.8.6-.6 1.1-.3c.2-.1.4-.1.5-.2s.2-.2.2-.4c0-.1 0-.1.1-.1 0 0 .1 0 .1-.1h.2s.1.1.1.2l.2 1v .3c0 .1-.1.1-.1.1-.1 0-.1 0-.1 0s-.1-.1-.2-.2-.2-.2-.4-.2c-.1 0-.3 0-.5 0z"/><path d="m13.4 72.4-5.3 2-.6-1.7v-.1c0-.1 0-.2 0-.2 0-.1.1-.1.1-.1.1 0 .2 0 .3.1s.1.1.1.1 0 0 .1 0 .1 0 .2 0l3.9-1.4c.1 0 .2-.1.2-.1s0 0 0-.1c0 0 0-.1 0-.2s0-.2.2-.2h.2s.1.1.1.2v.1zm-3.9 2.3 3.1-1.1c.2-.1.3-.2.4-.2.1-.1.1-.1.1-.2s0-.2 0-.3l.4-.2c.1.1.1.3.1.4.1.3.1.7-.1 1.1-.1.4-.3.7-.7 1-.3.3-.7.5-1.2.7s-1 .3-1.5.2c-.5 0-.9-.2-1.3-.5-.2-.1-.3-.3-.4-.4s-.2-.3-.3-.6l.4-.2c.1.1.1.2.2.2l.1.1h.2c.3.1.4.1.5 0z"/><path d="m15.1 78.8-.6.6-2.7.6c-.1 0-.1 0-.2.1-.2.1-.2.2-.2.4v.2c0 .1 0 .2-.1.2-.1.1-.2 0-.3-.2l-.6-.9c0-.1-.1-.2-.1-.2 0-.1 0-.1.1-.2.1 0 .2 0 .3.1s.2.1.2.2c.1 0 .1 0 .2.1.1 0 .3 0 .5-.1zm1.1-.3.8 1.5-3.7 3.4c-.1.1-.1.1-.2.2v.2s0 .1 0 .2c0 0 0 .1-.1.1-.1.1-.2 0-.3-.2l-1-1.8c0-.1-.1-.1 0-.2 0-.1 0-.1.1-.1h.1s.1 0 .2.1c.1 0 .1.1.1.1h.1s.1 0 .1-.1l.5-.4-.6-1 .5-.1.5.8 2.6-2.3z"/><path d="m14.5 85.9-.4.3c-.1-.2-.2-.4-.3-.7 0-.1 0-.2 0-.2v-.1l-.1-.1s-.1 0-.2 0-.1 0-.2-.1 0-.3.2-.4l1.2-.9c.1 0 .1-.1.2-.1s.1 0 .2.1c0 0 .1.1 0 .1 0 0 0 .1-.1.2-.2.2-.3.4-.4.6s-.2.4-.2.6c0 .3 0 .5.1.7zm4.5-3-.4.3c-.1-.1-.3-.2-.4-.2s-.3 0-.4.1-.2.2-.2.3-.1.3 0 .5c0 .1.1.4.2.9.1.3.1.5.1.6v.5c-.1.5-.3.8-.7 1.1-.3.2-.6.3-1 .3-.3 0-.7 0-1-.2-.2-.1-.3-.2-.5-.3s-.3-.3-.4-.4l.4-.3c.2.2.4.3.5.3s.3 0 .4-.1c.2-.1.2-.3.3-.5 0-.1 0-.4-.1-.7-.1-.4-.1-.6-.1-.8 0-.1 0-.3 0-.4 0-.6.3-1.1.8-1.5.3-.2.5-.3.8-.3s.6 0 .8.1c.3.1.6.4.9.7zm-.2.6.4-.3c.1.1.2.3.2.4s.1.3.1.5c0 .1 0 .1.1.1l.1.1h.2c.1 0 .1 0 .2.1 0 .1.1.1 0 .2 0 .1-.1.1-.2.2l-1.1.8c-.1 0-.1.1-.2.1s-.1 0-.2-.1c0 0 0-.1 0-.2v-.1l.1-.1c.1-.1.2-.2.3-.4.1-.1.1-.3.2-.4 0-.3-.1-.6-.2-.9z"/><path d="m17.6 89.9-.4.3c-.1-.2-.3-.4-.3-.7 0-.1-.1-.2-.1-.2s0-.1-.1-.1l-.1-.1s-.1 0-.2 0-.1 0-.2-.1-.1-.3.1-.4l1.1-1c .1-.1.1-.1.2-.1s.1 0 .2.1l.1.1c0 .1 0 .1-.1.2-.1.2-.2.4-.3.6s-.1.4-.1.7.1.5.2.7zm4.2-3.4-.4.3c-.1-.1-.3-.2-.4-.2s-.3 0-.4.1-.2.2-.2.3v.5c0 .1.1.4.2.8.1.3.1.5.2.6v.5c0 .5-.2.9-.6 1.2-.3.2-.6.4-.9.4-.3.1-.7 0-1-.1-.2-.1-.3-.2-.5-.3s-.3-.2-.4-.4l.4-.3c.2.1.4.2.5.2s.3 0 .4-.2c.1-.1.2-.3.2-.5 0-.1-.1-.4-.2-.7-.1-.4-.2-.6-.2-.7s-.1-.3-.1-.4c-.1-.6.1-1.2.6-1.6.2-.2.5-.3.8-.4s.6-.1.8 0c .5.4.9.6 1.2.9zm-.1.6.3-.3c.1.1.2.3.2.4.1.1.1.3.2.5 0 .1 0 .1.1.1l.1.1h.2c.1 0 .1 0 .2.1 0 .1.1.1 0 .2 0 .1-.1.1-.2.2l-1 .9c-.1.1-.1.1-.2.1s-.1 0-.2-.1c0 0-.1-.1-.1-.2v-.1s0-.1.1-.1c.1-.1.2-.2.2-.4.1-.2.1-.3.1-.4.2-.4.1-.7 0-1z"/><path d="m23.7 90.3-.4.8-2.4 1.4c-.1 0-.1.1-.2.1-.1.1-.1.3-.1.4l.1.1v.2c-.1.1-.2.1-.4-.1l-.8-.7c-.1-.1-.1-.1-.1-.2s0-.1.1-.2.1-.1.3 0c .1 0 .2.1.3.1s.1 0 .2 0 .3-.1.4-.2zm1-.6 1.2 1.1-2.5 4.3c0 .1-.1.1-.1.2s0 .1 0 .2 0 .1 0 .2c0 0 0 .1-.1.1-.1.1-.2.1-.4-.1l-1.5-1.4c-.1-.1-.1-.1-.1-.2s0-.1.1-.2l.1-.1h.2.1s.1 0 .1-.1l.1-.1.3-.5-.8-.8.4-.3.7.6 1.8-3z"/><path d="m25 95.5 1.9-2.6c.1-.1.1-.1.1-.2v-.1s0-.1-.1-.1c-.1-.1-.1-.2 0-.3 0-.1.1-.1.2-.1s.1 0 .2.1l.1.1 1.5 1.1.1.1.1.1v.1.1c-.1.1-.2.1-.3.1s-.1 0-.2-.1c0 0 0 0-.1 0s-.1.1-.2.1l-2.1 2.8c-.1.2-.2.3-.3.4 0 .1-.1.2-.1.2v.2s.1.1.1.2l-.3.4-.1-.1c-.3-.2-.5-.4-.7-.6s-.3-.5-.4-.7-.1-.5-.1-.7c.4 0 .5-.3.7-.5zm1.1 3 .3-.4c.2.1.5.2.8.1.3 0 .6-.2.8-.6l1.6-2.2c.2-.3.3-.6.1-.9 0-.1-.1-.2-.1-.2s0-.1.1-.1c0-.1.1-.1.2-.1s.1 0 .2.1l.8.6c.1.1.1.1.1.1s0 0 0 .1 0 .1 0 .2l-.1.1s-.1 0-.2 0-.3 0-.4.1-.3.2-.4.3l-1.6 2.2c-.3.4-.6.6-.9.7s-.5.1-.8 0c-.1 0-.3 0-.5-.1z"/><path d="m30.7 101.3-1.6-.9-.1-.1c-.1-.1-.1-.1-.2-.2 0-.1 0-.1 0-.2.1-.1.1-.1.3-.1h.2.1s.1-.1.2-.2l2.1-3.6c0-.1.1-.2.1-.2v-.1s0-.1-.1-.1c-.1-.1-.1-.2 0-.3 0-.1.1-.1.2-.1s.1 0 .2.1l.1.1 1.6.9.1.1c.1.1.2.1.2.2s0 .1 0 .2c-.1.1-.2.1-.3.1s-.2-.1-.2-.1 0 0-.1 0-.1.1-.2.2zm.2.2.2-.4c.1 0 .2.1.3.1s.2 0 .3 0 .3-.1.5-.2.3-.2.5-.3c.1-.1.2-.2.3-.2s.1 0 .2 0 .1.1.1.2c0 0 0 .1-.1.2l-.9 1.5z"/><path d="m38.1 98.8-2.1 4.4c0 .1-.1.2 0 .2v.1s.1.1.2.1c.1.1.1.2.1.3s-.1.1-.2.1-.1 0-.3-.1l-.1-.1-1.7-.8-.1-.1c-.1-.1-.2-.1-.2-.2s0-.1 0-.2c.1-.1.1-.2.3-.1h.2s0 0 .1 0 .1-.1.2-.2l2.1-4.4zm-2.9-1.4 1 .5-.2.5c-.1 0-.3.1-.4.1-.2.1-.4.3-.5.5l-.1.2c0 .1-.1.1-.2.1s-.1 0-.2 0-.1-.1-.1-.1c0-.1 0-.1 0-.2zm4.2 2-.7 1.5c0 .1-.1.1-.1.1-.1 0-.1 0-.2 0s-.1-.1-.1-.1c0-.1 0-.1 0-.2l.1-.2c.1-.3.1-.5.1-.7 0-.1-.1-.3-.2-.4l.2-.5z"/><path d="m43.8 100.8-1.3 4.7v.2.1s.1 0 .2.1.2.2.1.3c0 .1-.1.1-.2.1s-.1 0-.3 0h-.1l-1.8-.5h-.1c-.1 0-.2-.1-.2-.1 0-.1-.1-.1 0-.2 0-.1.1-.2.2-.2h.2s0 0 .1 0c0 0 .1-.1.1-.2l1.1-4c0-.1 0-.2 0-.2s0 0 0-.1c0 0-.1 0-.1-.1-.1-.1-.1-.2-.1-.3s.1-.1.1-.1h.2.1zm.4 3.2c.2.1.4.2.5.3s.2.2.3.3.1.2.2.4v.4l-.2.8v.2h.1s0 0 .1-.1.2-.1.2-.1.1 0 .1.1 0 .1 0 .2-.1.2-.2.3-.2.2-.4.2c-.1.1-.3.1-.4.1s-.3 0-.5-.1c-.4-.1-.6-.3-.7-.5-.1-.3-.2-.6-.1-.9l.2-.7c0-.1.1-.2.1-.3s0-.2 0-.3c-.1-.1-.1-.2-.3-.3l.1-.4h.3c.1 0 .1-.1.2-.1 0-.1.1-.1.1-.3l.3-1.1c0-.2.1-.3 0-.4 0-.1-.1-.2-.3-.3l.1-.4h.1c.3.1.5.2.7.2.3.1.5.3.7.5.3.3.4.7.2 1.2-.1.4-.3.6-.6.8-.1.1-.3.1-.4.1 0 .1-.2.1-.5.2z"/><path d="m49.3 102.1-.9 5.6-1.8-.3h-.1c-.1 0-.2 0-.2-.1 0 0-.1-.1-.1-.2s.1-.2.2-.2h.2s0 0 .1 0c0 0 .1-.1.1-.2l.7-4.1c0-.1 0-.2 0-.2s0 0 0-.1c0 0-.1 0-.1-.1-.1-.1-.1-.1-.1-.2s0-.1.1-.1.1 0 .2 0h .1zm-.5 5.6.1-.4h.5c.1 0 .3-.1.4-.2s.2-.2.3-.3.2-.2.3-.4c0-.1.1-.1.1-.2h.1c.1 0 .1 0 .1.1v.2l-.2 1.4zm.4-2.6.1-.5c.2-.1.3-.1.4-.2s.2-.2.2-.3.1-.2.1-.2.1 0 .2 0 .1.1.2.1v.2l-.3 1.6c0 .1 0 .2-.1.3 0 0-.1.1-.2 0-.1 0-.1 0-.1-.1 0 0 0-.1-.1-.2 0-.2-.1-.4-.1-.5-.1 0-.2-.1-.3-.2zm.5-3 1.6.3-.2 1.4c0 .1 0 .1-.1.2 0 0-.1 0-.2 0s-.1 0-.1-.1c0 0 0-.1-.1-.2-.1-.3-.2-.6-.3-.8-.2-.2-.4-.3-.7-.4z"/><path d="m53.9 102.5v.5c-.2 0-.4.2-.4.6l-.2 3.9v.3c0 .1.1.1.2.2v.5c-.1 0-.2 0-.2 0-.1 0-.2-.1-.3-.1-.3-.1-.5-.3-.8-.5-.2-.2-.4-.5-.5-.8-.2-.5-.3-1-.3-1.6s.2-1.1.4-1.5.6-.8 1-1c .2-.1.5-.2.7-.3.2-.2.3-.2.4-.2zm2 5.2c-.1.1-.3.2-.5.3s-.4.2-.5.2c-.2 0-.3.1-.5.1s-.3 0-.5 0v-.5c.1 0 .1 0 .2-.1l.1-.1c.1-.1.1-.2.1-.3l.1-1.2c0-.1 0-.2 0-.2s0 0-.1-.1c0 0-.1 0-.2-.1-.1 0-.2-.1-.2-.2s0-.1.1-.2h.3.1l1.5.1c.1 0 .2 0 .3.1 0 0 .1.1.1.2s0 .1 0 .1l-.1.1c-.1 0-.1.1-.1.1s0 .1 0 .2zm-1.6-4.7v-.4c.4.1.8.2 1.1.3.1 0 .1.1.2.1h.1s.1-.1.2-.2.1-.1.2-.1.1 0 .2.1v.2l-.1 1.6c0 .2-.1.3-.2.3s-.1 0-.2-.1c0 0-.1-.1-.1-.2 0-.2-.1-.3-.2-.6-.1-.2-.2-.4-.3-.5s-.2-.3-.4-.3c-.2-.2-.3-.2-.5-.2z"/><path d="m59.3 108.3-1.8.1h-.1c-.1 0-.2 0-.2 0-.1 0-.1-.1-.1-.2s0-.2.2-.2c.1 0 .1-.1.2-.1s0-.1 0-.2l-.1-4.1c0-.1 0-.2-.1-.2s-.1 0-.2-.1c-.1 0-.2-.1-.2-.2s0-.1.1-.2c.1 0 .1-.1.2-.1h.1l1.8-.1h.1.2c.1 0 .1.1.1.2s0 .2-.2.2c-.1 0-.1.1-.2.1v.2l.1 4.1c0 .1 0 .2.1.2s.1 0 .2.1c.1 0 .2.1.2.2s0 .1-.1.2c-.1 0-.1.1-.3.1z"/><path d="m62.2 102.4 1.1 2.2.2-1.3.2 1.4-.5 3.3h-.2l-2.2-4.5c-.1-.2-.1-.2-.2-.3 0 0-.1 0-.2-.1-.2 0-.3-.1-.3-.2s0-.1.1-.2c0 0 .1-.1.2-.1zm-1.4 2.1.6 1.2.2 1.2c0 .1 0 .2.1.3 0 .1 0 .1.1.2s.2.2.3.2l.2.1c.1 0 .2.1.2.2s-.1.2-.3.3l-1 .1c-.2 0-.3 0-.3-.2v-.1s0-.1.1-.1c.3-.2.4-.5.3-.9zm2.9-2.4 1.8-.3h.1c.2 0 .3 0 .3.2 0 .1 0 .2-.1.2s-.1.1-.2.1v.1.2l.6 4.1c0 .1 0 .2.1.2h.1.2c.1 0 .2.1.2.2s-.1.2-.3.3h-.1l-1.8.3h-.1c-.1 0-.2 0-.3 0s-.1-.1-.1-.2 0-.2.2-.3c.1 0 .2-.1.2-.1s0 0 .1-.1c0-.1 0-.1 0-.2z"/><path d="m68.5 101.1 1.4 5.5-1.8.5h-.1c-.1 0-.2 0-.2 0-.1 0-.1-.1-.1-.1 0-.1 0-.2.1-.3s.1-.1.1-.1 0 0 0-.1 0-.1 0-.2l-1.1-4c0-.1-.1-.2-.1-.2s0 0-.1 0c0 0-.1 0-.2 0s-.2-.1-.2-.2 0-.1 0-.2c0 0 .1-.1.2-.1h.1zm.4-.1 1.6-.4.4 1.4v.2s-.1.1-.1.1c-.1 0-.1 0-.1 0l-.1-.1c-.2-.3-.4-.5-.6-.6s-.5-.1-.8-.1zm.7 2.9-.1-.5.3-.3c.1-.1.1-.2.1-.4 0-.1 0-.2 0-.2l.1-.1c.1 0 .2 0 .2.1 0 0 .1.1.1.2l.4 1.5v.3c0 .1-.1.1-.1.1-.1 0-.1 0-.2 0 0 0-.1-.1-.1-.2-.1-.2-.2-.3-.3-.4-.1 0-.2-.1-.4-.1zm.7 2.6-.1-.4c.2-.1.3-.1.4-.2l.3-.3c.1-.1.2-.3.2-.4s.1-.3.1-.5c0-.1 0-.2 0-.2l.1-.1h.2s.1.1.1.2l.4 1.4z"/><path d="m73.1 99.6 3.4 2.8.7 1.7-1.1.4-4.4-3.5c-.1-.1-.2-.1-.2-.2-.1 0-.1 0-.2 0h-.2-.1l-.1-.1v-.1s0-.1.1-.1c0 0 .2-.1.3-.2zm-1.1 2 .7.5.8 2.1c.1.2.2.3.3.4s.2.2.4.2h.1c.1 0 .1.1.2.1v.2s-.1.1-.2.1l-.9.3c-.2.1-.4.1-.4-.1v-.1s.1-.1.1-.2c.2-.2.2-.5.1-.9zm4.3.2-.7-.5-.4-1.1c-.1-.2-.2-.4-.3-.5s-.3-.1-.4-.2c-.1 0-.1 0-.1 0l-.1-.1c0-.1 0-.1 0-.2 0 0 .1-.1.2-.1l1-.4c.1-.1.2-.1.3 0 .1 0 .1.1.1.1v.1s-.1.1-.1.2c-.1.1-.2.3-.2.4s0 .3.1.5z"/><path d="m75.9 98.5 1-.5.2.4c-.1.1-.1.3-.1.4 0 .2 0 .5.1.7l.1.2v.2s-.1.1-.1.1c-.1 0-.1 0-.2 0s-.1-.1-.2-.1zm2.9-1.5 2.2 4.3c0 .1.1.2.2.2h.1.2c.1 0 .2 0 .3.1v.2s-.1.1-.2.2l-.1.1-1.6.9-.1.1c-.1.1-.2.1-.3.1s-.1 0-.2-.1 0-.2.1-.3.1-.1.1-.1 0 0 0-.1 0-.1-.1-.2l-2.2-4.3zm1.2-.6.8 1.5v.2s-.1.1-.1.1c-.1 0-.1 0-.2 0s-.1-.1-.2-.1l-.2-.2c-.2-.2-.3-.4-.5-.5-.1-.1-.3-.1-.4-.1l-.2-.4z"/><path d="m83.8 93.8 3.3 4.6-1.5 1.1-.1.1c-.1.1-.2.1-.2.1-.1 0-.1 0-.2-.1s-.1-.2 0-.3.1-.1.1-.1 0 0 0-.1 0-.1-.1-.2l-2.5-3.3c-.1-.1-.1-.1-.2-.1h-.1s-.1 0-.2 0-.2 0-.3-.1c0-.1-.1-.1 0-.2 0-.1.1-.1.2-.2l.1-.1zm3.4 3.1-1.9-2.6c-.1-.2-.2-.3-.4-.3-.1 0-.1-.1-.2-.1s-.1 0-.3.1l-.3-.4c.1-.1.2-.2.3-.2.3-.2.7-.3 1.1-.2.4 0 .8.1 1.2.4.4.2.7.5 1 1s .5.9.6 1.4.1.9-.1 1.4c-.1.2-.2.4-.3.5s-.3.3-.5.4l-.3-.4c.1-.1.1-.2.1-.2s0-.1 0-.2 0-.1-.1-.2c.2-.2.1-.3.1-.4z"/><path d="m87.9 90.5 3.8 4.2-1.4 1.2-.1.1c-.1.1-.1.1-.2.1s-.1 0-.2-.1-.1-.2 0-.3c0-.1.1-.1.1-.1s0 0 0-.1 0-.1-.1-.2l-2.8-3.1c-.1-.1-.1-.1-.2-.1h-.1s-.1 0-.2.1c-.1 0-.2 0-.3-.1 0-.1-.1-.1 0-.2s.1-.1.1-.2l.1-.1zm.3-.3 1.2-1.1 1 1.1c.1.1.1.1.1.2s0 .1-.1.1l-.1.1s-.1 0-.2-.1c-.3-.2-.6-.2-.8-.2-.3 0-.5.1-.8.3zm2 2.2-.3-.4c.1-.2.1-.3.1-.4s0-.2-.1-.4c-.1-.1-.1-.2-.1-.2 0-.1 0-.1.1-.1.1-.1.1-.1.2 0 0 0 .1.1.2.2l1.1 1.2c.1.1.1.2.2.2 0 .1 0 .1-.1.2l-.1.1c-.1 0-.1 0-.2-.1-.2-.1-.3-.2-.4-.2-.3-.2-.5-.1-.6-.1zm1.8 2-.3-.3c.1-.1.2-.3.2-.4.1-.1.1-.3.1-.4 0-.2 0-.3 0-.4s-.1-.3-.1-.5c0-.1-.1-.2-.1-.2s0-.1.1-.1c.1-.1.1-.1.2-.1s.1.1.2.1l1 1.1z"/><path d="m94.9 89.2.8 1.3-.7.8-4.7-2.2c-.1 0-.1-.1-.2-.1h-.1c-.1 0-.1.1-.2.1 0 0-.1 0-.1-.1-.1-.1-.1-.1-.1-.2s.1-.2.1-.3l1.2-1.4.2-.2s.1 0 .1-.1h.1.1c.1.1.1.2.1.3v.2s0 .1.1.1l.1.1zm-.3-.5-.7-.3-1-1.5c-.1-.1-.1-.2-.1-.2s-.1-.1-.2-.1-.2 0-.3 0l-.1.1c-.1.1-.2.1-.3 0-.1 0-.1-.1-.1-.2s.1-.1.1-.2l.7-.8c.1-.1.1-.1.2-.2h.2l.1.1v.1l-.1.2v.4c0 .1.1.3.2.4z"/><path d="m98.9 86.5-1.1 1.5-.1.1c-.1.1-.1.1-.2.2-.1 0-.1 0-.2 0-.1-.1-.1-.2-.1-.3s0-.1 0-.2c0 0 0 0 0-.1s-.1-.1-.1-.2l-3.3-2.5c-.1-.1-.1-.1-.2-.1h-.1s-.1 0-.1.1c-.1.1-.2.1-.3 0-.1 0-.1-.1-.1-.2s0-.1.1-.2l.1-.1 1.1-1.5.1-.1.2-.2h.2c.1.1.1.2.1.3v.2.1s.1.1.1.2l3.3 2.5c.1.1.1.1.2.1h.1s.1 0 .1-.1c.1-.1.2-.1.3 0 .1 0 .1.1.1.2-.1.1-.1.1-.2.3z"/><path d="m100.8 83.4-1 1.6-.1.1c-.1.1-.1.1-.2.2-.1 0-.1 0-.2 0-.1-.1-.1-.1-.1-.3 0-.1 0-.1 0-.2 0 0 0 0 0-.1s-.1-.1-.2-.2l-3.5-2.2c-.1-.1-.2-.1-.2-.1h-.1s-.1 0-.1.1c-.1.1-.2.1-.3 0-.1 0-.1-.1-.1-.2s0-.1.1-.2l.1-.1 1-1.6.1-.1c.1-.1.1-.2.2-.2h.2c.1.1.1.2.1.3s-.1.2-.1.2 0 0 0 .1.1.1.2.2zm.2-.2-.4-.2c0-.1.1-.2.1-.3s0-.2 0-.3-.1-.3-.2-.5-.2-.3-.3-.5c-.1-.1-.2-.2-.2-.3s0-.1 0-.2.1-.1.2-.1c0 0 .1 0 .2.1l1.4.9z"/><path d="m98.9 74.9 5.2 2.2-.7 1.7v.1c0 .1-.1.2-.1.2-.1 0-.1 0-.2 0s-.2-.1-.1-.2c0-.1 0-.2 0-.2s0 0 0-.1c0 0-.1-.1-.2-.1l-3.8-1.6c-.1 0-.2-.1-.2 0h-.1l-.1.1c-.1.1-.2.1-.3.1s-.1-.1-.1-.1c0-.1 0-.1 0-.2v-.1zm4.5.9-3-1.3c-.2-.1-.3-.1-.5-.1-.1 0-.2 0-.2.1-.1 0-.1.1-.2.2l-.4-.2c.1-.1.1-.2.2-.3.2-.3.4-.6.8-.8s.8-.3 1.2-.3.9.1 1.3.3c.5.2.9.5 1.3.9.3.4.5.8.6 1.2v.6s-.1.4-.2.6l-.4-.2c0-.1 0-.2 0-.3s0-.1-.1-.2c0-.1-.1-.1-.2-.2 0 .2-.1.1-.2 0z"/><path d="m101 70.1c0 .1 0 .3.1.3.1.1.2.1.3.2l3.5 1.1c.2.1.4.1.5.1s.2-.1.3-.2l.4.1c-.2.6-.6 1-1.1 1.3-.7.4-1.5.4-2.4.1-.5-.1-.9-.3-1.2-.6-.3-.2-.6-.5-.8-.9-.1-.3-.2-.5-.3-.8 0-.3 0-.5.1-.8zm.1-.3-.4-.1c.1-.3.2-.5.4-.7s.4-.4.7-.5c.7-.4 1.5-.4 2.4-.2.9.3 1.6.7 1.9 1.4.3.5.4 1.1.2 1.7l-.4-.1c0-.1 0-.1 0-.2 0 0 0-.1-.1-.1-.1-.1-.2-.2-.5-.3l-3.5-1.1c-.1 0-.3-.1-.4 0-.1 0-.1 0-.3.2.1-.2.1-.1 0 0z"/><path d="m101.8 65 .5.1c0 .2.2.4.5.5l3.8.7h.3c.1 0 .1-.1.2-.2l.5.1c0 .1 0 .2-.1.2 0 .1-.1.2-.1.3-.1.3-.3.5-.6.7-.2.2-.5.3-.8.4-.5.2-1 .2-1.6.1s-1.1-.3-1.5-.6-.7-.6-.9-1.1c-.1-.3-.2-.5-.2-.8 0-.1 0-.3 0-.4zm.5-.3-.4-.1c.1-.4.3-.8.4-1 .1-.1.1-.1.1-.2v-.1s-.1-.1-.1-.2c-.1-.1-.1-.1-.1-.2s0-.1.1-.1h.2l1.6.3c.2 0 .3.1.3.3 0 .1 0 .1-.1.2 0 0-.1 0-.3.1-.2 0-.4.1-.6.1-.2.1-.4.1-.5.2-.2.1-.3.2-.4.3s-.1.2-.2.4zm4.9-1c .1.1.2.3.3.5s.1.4.2.6v.5s0 .3 0 .5l-.5-.1c0-.1 0-.1 0-.2l-.1-.1c-.1-.1-.2-.1-.3-.1l-1.2-.2c-.1 0-.2 0-.2 0h-.1s0 .1-.1.2-.1.2-.3.2c-.1 0-.1-.1-.1-.1 0-.1 0-.2 0-.3v-.1l.3-1.5c0-.1.1-.2.1-.2s.1-.1.2 0c .1 0 .1 0 .1.1l.1.1c0 .1.1.1.1.1s.1 0 .2.1z"/><path d="m102.4 60.2h.5c0 .2.1.3.2.4s.2.2.4.2c.1 0 .3 0 .4-.1s.2-.2.3-.3.2-.4.4-.8c.1-.2.2-.4.3-.6.1-.1.2-.3.4-.4.4-.3.8-.4 1.3-.4.4 0 .7.1 1 .3s.5.5.6.8c.1.2.1.4.2.6v.6h-.5c0-.2-.1-.4-.2-.5s-.2-.2-.4-.2-.4.1-.5.2-.2.3-.4.6-.3.6-.4.7-.2.2-.3.3c-.4.5-.9.7-1.5.7-.3 0-.6-.1-.9-.3-.3-.1-.5-.3-.6-.6-.2-.3-.3-.7-.3-1.2zm.5-.3h-.5c0-.2.1-.3.1-.4s.1-.3.2-.5c0-.1 0-.1 0-.1 0-.1 0-.1 0-.1l-.1-.1c-.1 0-.1-.1-.1-.2s0-.1.1-.2h.3l1.4.1c.1 0 .1 0 .2.1 0 0 .1.1.1.2s0 .1-.1.1c0 0-.1 0-.1.1 0 0-.1 0-.2 0s-.3.1-.4.1c-.1.1-.3.1-.4.2-.2.2-.4.5-.5.7zm4.9 1h .5c0 .2-.1.5-.3.7-.1.1-.1.2-.1.2v.1.1l.1.1c.1.1.1.1.1.2 0 .2-.1.2-.4.2l-1.5-.1c-.1 0-.1 0-.2-.1-.1 0-.1-.1-.1-.2s0-.1.1-.1c0 0 .1-.1.2-.1.2 0 .5-.1.7-.2s.4-.2.6-.4c.1-.1.2-.2.3-.4z"/><path d="m11.8 38.1-3-1.4c-.1 0-.2-.1-.2 0h-.1l-.1.1c-.1.1-.2.1-.3.1s-.1-.1-.1-.1c0-.1 0-.1 0-.2v-.1l.8-1.7v-.1l.1-.1.1-.1h.1c.1 0 .1.1.1.3v.2s0 0 0 .1.1.1.2.1l3.3 1.5c.2.1.4.2.5.2s.2 0 .3 0h .2s.1-.1.2-.2l.5.2v.1c-.2.3-.3.6-.5.8s-.4.4-.6.5-.5.2-.7.2c-.1-.1-.4-.2-.8-.4zm2.9-1.7-.5-.2c.1-.3.1-.5 0-.8s-.4-.5-.7-.7l-2.5-1.2c-.4-.2-.7-.1-.9.1-.1.1-.1.1-.2.1h-.1c-.1 0-.1-.1-.1-.1s0-.2.1-.3l.5-1c0-.1.1-.1.1-.2 0 0 0 0 .1-.1.1 0 .1-.1.2 0 .1 0 .1.1.1.1s0 .1 0 .2.1.3.2.4.2.2.4.3l2.5 1.2c.4.2.7.5.9.8.1.2.2.5.2.8-.2.2-.3.4-.3.6z"/><path d="m11.7 29.1.4.3c-.1.2-.1.3 0 .5 0 .1.1.2.2.3s.2.1.4.1c.1 0 .3-.1.5-.2.1-.1.4-.2.8-.5.2-.2.4-.3.6-.4s.3-.1.5-.2c.5-.1.9 0 1.3.2.3.2.6.5.7.8s.2.7.2 1c0 .2-.1.4-.1.6-.1.2-.1.4-.2.5l-.4-.3c.1-.2.1-.4.1-.6s-.1-.3-.3-.4-.4-.1-.6 0c-.1 0-.4.2-.6.4-.3.2-.5.4-.7.4-.1.1-.3.1-.4.2-.6.3-1.2.2-1.7-.1-.3-.2-.5-.4-.7-.6-.2-.3-.3-.5-.3-.8s.1-.7.3-1.2zm.6 0-.4-.3c.1-.1.2-.3.3-.3.1-.1.2-.2.5-.4l.1-.1v-.1l-.1-.1c0-.1 0-.1 0-.2s.1-.1.2-.1.2 0 .3.1l1.2.7c.1 0 .1.1.1.2v.2l-.1.1h-.1s-.1 0-.2 0-.3-.1-.5-.1-.3 0-.5 0c-.3 0-.6.2-.8.4zm4.1 3.2.4.3c-.1.2-.3.4-.6.6-.1.1-.2.1-.2.1l-.1.1v.1.2.2c-.1.1-.2.1-.4 0l-1.3-.8c-.1 0-.1-.1-.1-.2s0-.1 0-.2.1-.1.1-.1h.2c.2.1.5.1.7.1s.5 0 .7-.1c.2 0 .4-.2.6-.3z"/><path d="m14.7 24.9 1.1-1.4 4.7 2.2c.1 0 .2.1.2.1.1 0 .1 0 .2-.1.1 0 .1-.1.2-.1h.1c.1.1.1.2 0 .4l-1.3 1.8c-.1.1-.1.1-.2.1s-.1 0-.2 0l-.1-.1s0-.1 0-.2 0-.1 0-.2c0 0 0-.1-.1-.1l-.1-.1-.6-.3-.7.9-.3-.4.6-.8-3.2-1.5zm.7.9.8.4 1.7 2.3c0 .1.1.1.2.2s.3.1.5 0l .1-.1h.3c.1.1.1.2 0 .4l-.7.9c-.1.1-.1.1-.2.2-.1 0-.1 0-.2 0-.1-.1-.1-.2-.1-.3s0-.2.1-.3c0-.1 0-.1 0-.2s-.1-.3-.2-.4z"/><path d="m19.1 19.9 3.6 3.6c.1.1.2.1.2.1h.1s.1 0 .2-.1.2-.1.3 0 .1.1 0 .2c0 .1-.1.1-.2.2l-.1.1-1.4 1.4v.1c-.1.1-.1.1-.2.1s-.1 0-.2-.1-.1-.2 0-.3c0-.1.1-.1.1-.2 0 0 0 0 0-.1s0-.1-.1-.2l-3-3c-.1-.1-.1-.1-.2-.1h-.1s-.1 0-.2.1-.2 0-.3 0c-.1-.1-.1-.1-.1-.2s.1-.1.1-.2l.1-.1zm3 1.2c.2-.2.4-.3.5-.3.1-.1.3-.1.4-.1h.4c.1 0 .2.1.3.2l.6.6c.1.1.1.1.2 0 0 0 0 0 0-.1v-.1c0-.1 0-.2.1-.3 0 0 .1-.1.2 0 .1 0 .1 0 .2.1s.1.2.1.3v.5s-.1.3-.1.4c-.1.1-.2.3-.3.4-.3.3-.6.4-.9.4s-.6-.1-.9-.4l-.5-.5c-.1-.1-.2-.2-.2-.2-.1-.1-.2-.1-.3-.1s-.3 0-.4.1l-.3-.3c.1-.1.1-.2.1-.3s0-.1 0-.2-.1-.1-.2-.2l-.8-.8c-.1-.1-.2-.2-.4-.2-.1 0-.3 0-.4.1l-.3-.3.1-.1.6-.6c.3-.2.5-.3.9-.4.5-.1.9.1 1.2.4s.4.6.4 1c0 .2 0 .3-.1.5.1 0 0 .3-.2.5z"/><path d="m27.7 20.1-1.5 1.2-.1.1c-.1.1-.2.1-.2.1-.1 0-.1 0-.2-.1s-.1-.2 0-.3.1-.1.1-.1 0 0 0-.1 0-.1-.1-.2l-2.7-3.4c-.1-.1-.1-.1-.2-.1h-.1s-.1 0-.2.1c-.1 0-.2 0-.3-.1 0-.1-.1-.1 0-.2 0-.1.1-.1.2-.2l.1-.1 1.5-1.2.1-.1c.1-.1.2-.1.2-.1.1 0 .1 0 .2.1s.1.2 0 .3c0 .1-.1.1-.1.1s0 0 0 .1 0 .1.1.2l2.7 3.4c.1.1.1.1.2.1h.1s.1 0 .2-.1c.1 0 .2 0 .3.1 0 .1.1.1 0 .2s-.1.2-.3.3z"/><path d="m26.6 13.6 1.4-1 3.8 3.5.2.2h.2.2s.1 0 .1.1c.1.1 0 .2-.2.4l-1.8 1.2c-.1 0-.1.1-.2.1s-.1 0-.2-.1v-.1s0-.1.1-.2c0-.1 0-.1 0-.1v-.1l-.1-.1-.3-.6-1 .7-.2-.5.8-.5-2.6-2.5zm.4 1.1.7.6.9 2.7c0 .1.1.1.1.2.1.2.2.2.4.2h.2c.1 0 .2 0 .2.1.1.1 0 .2-.1.4l-.9.6c-.1.1-.2.1-.2.1-.1 0-.1 0-.2-.1 0-.1 0-.2 0-.3.1-.1.1-.2.1-.3s0-.1 0-.2 0-.3-.1-.5z"/><path d="m32.3 10.2 2.7 5.2-1.7.9-.1.1c-.1 0-.2.1-.2.1-.1 0-.1 0-.2-.1s0-.2 0-.3c.1-.1.1-.1.1-.1s0 0 0-.1 0-.1-.1-.2l-2-3.8c0-.1-.1-.1-.1-.2 0 0 0 0-.1 0 0 0-.1 0-.2 0s-.2 0-.3-.1c0-.1 0-.1 0-.2s.1-.1.2-.2l.1-.1zm2.9 3.7-1.6-3c-.1-.2-.2-.3-.3-.4s-.1-.1-.2-.1-.2 0-.3 0l-.2-.4c.1-.1.3-.1.4-.2.3-.1.7-.2 1.2-.1.4.1.8.3 1.1.6s.6.7.9 1.1c.3.5.4 1 .4 1.5s-.1 1-.3 1.4c-.1.2-.2.4-.4.5-.1.1-.3.2-.6.4l-.2-.4c.1-.1.2-.1.2-.2 0 0 0-.1.1-.2 0-.1 0-.2 0-.2-.1 0-.1-.2-.2-.3z"/><path d="m38.1 7.6 3.5 2.9.7 1.8-1.1.4-4.5-3.7c-.1-.1-.2-.1-.2-.2-.1 0-.1 0-.2 0h-.2-.1l-.1-.1v-.1s0-.1.1-.1c0 0 .2-.1.4-.2zm-1.2 2 .7.6.8 2.2c.1.2.2.3.3.4s.2.2.4.2h.1c.1 0 .1.1.2.1v.2s-.1.1-.2.2l-1 .3c-.2.1-.4.1-.4-.1v-.1s.1-.1.1-.2c.2-.2.2-.5.1-.9zm4.5.3-.7-.6-.4-1.1c-.1-.2-.2-.4-.3-.5s-.3-.2-.5-.2c-.1 0-.1 0-.1 0l-.1-.1c0-.1 0-.1 0-.2s.1-.1.2-.1l1-.4c.1-.1.2-.1.3 0 .1 0 .1.1.1.1v.1s-.1.1-.1.2c-.1.1-.2.3-.2.5 0 .1 0 .3.1.5z"/><path d="m43.5 7 .4.8-.1 2.9v.2c0 .2.2.3.3.3h.2c.1 0 .2.1.2.2s-.1.2-.3.3l-1.1.3c-.1 0-.2 0-.3 0s-.1-.1-.1-.2 0-.2.1-.2c.1-.1.2-.1.2-.2s.1-.1.1-.2c.1-.1.1-.3.1-.5zm0-1.1 1.7-.4 2.3 4.6c0 .1.1.2.1.2s.1.1.2.1.1 0 .2.1l.1.1c0 .1-.1.2-.3.3l-2 .5c-.1 0-.2 0-.2 0-.1 0-.1-.1-.1-.1 0-.1 0-.1 0-.1l.1-.1.1-.1v-.1-.1l-.3-.6-1.2.3v-.5l.9-.2-1.6-3.2z"/><path d="m52.4 4.4 1 2.4.3-1.3.1 1.4-.8 3.4h-.2l-2-4.8c-.1-.2-.1-.3-.2-.3 0 0-.1-.1-.2-.1-.2 0-.3-.1-.3-.2s0-.1.1-.2c.1 0 .1-.1.2-.1zm-1.6 2.1.5 1.3.1 1.3v.3c0 .1 0 .1.1.2s.2.2.3.3l.2.1c.1.1.2.1.2.2s-.1.2-.3.2h-1.1c-.2 0-.3-.1-.3-.2v-.1l.1-.1c.3-.2.4-.5.4-.9zm3.2-2.1 1.9-.1h.1c.2 0 .3.1.3.2s0 .2-.2.2c-.1 0-.1.1-.2.1v.1.2l.3 4.3c0 .1 0 .2.1.2h.1.2s.2.1.2.2-.1.2-.3.2h-.1l-1.9.1h-.1c-.1 0-.2 0-.3 0s-.1-.1-.1-.2.1-.2.2-.2.2-.1.2-.1 0 0 .1-.1c0-.1.1-.1.1-.2z"/><path d="m58.9 5.5.2.9-1 2.7v.2c0 .2.1.3.2.4l.1.1c.1 0 .1.1.1.2s-.1.2-.3.2l-1.1-.1c-.1 0-.2 0-.2-.1-.1 0-.1-.1-.1-.2s.1-.1.2-.2c.1 0 .2-.1.3-.1s.1-.1.2-.2.2-.3.2-.5zm.4-1.1 1.7.1.8 5.1c0 .1 0 .2.1.2 0 .1.1.1.2.1s.1.1.1.1v.1c0 .1-.1.2-.4.2h-2c-.1 0-.2 0-.2-.1 0 0-.1-.1-.1-.2s0-.1 0-.1.1-.1.2-.1h.2v-.1-.1l-.1-.7-1.2-.1.2-.5 1 .1-.6-3.6z"/><path d="m65.9 5.2-1 5v .2s0 .1.1.1c0 0 .1 0 .2.1s.2.1.2.3c0 .1-.1.1-.1.2-.1 0-.2 0-.3 0h-.1l-1.9-.4h-.1c-.1 0-.2-.1-.2-.1s-.1-.1-.1-.2.1-.2.2-.2.2 0 .2 0 0 0 .1 0c0 0 .1-.1.1-.2l.8-4.2c0-.1 0-.2 0-.2s0 0 0-.1c0 0-.1 0-.2-.1s-.1-.1-.1-.3c0-.1.1-.1.1-.1h.2.1zm.7 3.2c.3.1.4.2.6.2.1.1.2.2.3.3s.2.2.2.4v.4l-.2.9c0 .1 0 .1.1.2h.1s0 0 .1-.1.2-.1.2-.1.1 0 .1.1.1.1 0 .2c0 .1-.1.2-.2.3s-.2.2-.4.3c-.1.1-.3.1-.4.1s-.3 0-.5 0c-.4-.1-.6-.2-.8-.5s-.2-.6-.1-1l .1-.7c0-.2 0-.2 0-.3s0-.2-.1-.3-.2-.2-.3-.2l.1-.5c.2 0 .3 0 .3-.1.1 0 .1-.1.1-.2s.1-.2.1-.3l.2-1.1c0-.2 0-.3 0-.4-.1-.1-.2-.2-.3-.3l.1-.5h.1c.3.1.6.1.8.2.3.1.6.3.8.5.3.3.4.7.3 1.2-.1.4-.3.7-.6.9-.1.1-.3.2-.4.2.1.1-.1.1-.4.2z"/><path d="m70.6 12.4-1.8-.6h-.1c-.1 0-.2-.1-.2-.1s-.1-.1 0-.2c0-.1.1-.2.2-.2h.2s0 0 .1 0c0 0 .1-.1.1-.2l1.2-4.1c0-.1 0-.2 0-.2v-.1s-.1 0-.1-.1c-.1-.1-.1-.2-.1-.3s.1-.1.1-.1h.2.1l1.8.5h.1c.1 0 .2.1.2.1 0 .1.1.1 0 .2 0 .1-.1.2-.2.2s-.2 0-.2 0 0 0-.1 0c0 0-.1.1-.1.2l-1.2 4.2v.2.1s.1 0 .1.1c.1.1.1.2.1.3s-.1.1-.1.1c-.1 0-.1 0-.3 0z"/><path d="m73.8 8.8.1.9-.9 2.1c-.1.2-.1.4-.1.5s.1.3.2.4l.1.1c.1.1.1.1 0 .2 0 .1-.1.1-.1.1-.1 0-.2 0-.3-.1l-.9-.2c-.2-.1-.3-.2-.3-.4 0 0 0-.1.1-.1h.2c.3 0 .5-.2.7-.6zm2.3-.7.6 4.5-.7 1.8-1.1-.4-.8-5.8c0-.1 0-.2-.1-.3 0-.1-.1-.1-.1-.1l-.1-.1-.1-.1v-.1s0-.1.1-.1h.1c.1 0 .2 0 .4.1zm.8 3.9-.1-.8.5-1.1c.1-.2.1-.4.1-.6 0-.1-.1-.3-.2-.4l-.1-.1v-.1c0-.1.1-.1.1-.1h.2l1 .4c.1.1.2.1.2.2s0 .1 0 .2-.1.1-.1.1-.1 0-.2 0c-.2 0-.3.1-.5.2-.1.1-.2.2-.3.4z"/><path d="m81.8 10.9-2.8 5.1-1.7-.9-.1-.1c-.1-.1-.2-.1-.2-.2s0-.1 0-.2c.1-.1.1-.1.3-.1h.2s0 0 .1 0 .1-.1.2-.2l2.1-3.8c0-.1.1-.2.1-.2v-.1s0-.1-.1-.1c-.1-.1-.1-.2 0-.3 0-.1.1-.1.2-.1s.1 0 .2.1l.1.1zm-2.5 5.3.2-.4c.2.1.3.1.5.1h.4c.2 0 .3-.1.4-.1.1-.1.3-.2.4-.3s.1-.1.2-.1h.1c.1 0 .1.1.1.1 0 .1 0 .1-.1.2l-.7 1.3zm1.3-2.4.2-.4c.2 0 .3 0 .5-.1.1 0 .2-.1.3-.2s.1-.1.2-.2h.2c.1 0 .1.1.1.2 0 0 0 .1-.1.2l-.8 1.5c-.1.1-.1.2-.2.2s-.1 0-.2 0-.1-.1-.1-.1c0-.1 0-.1 0-.2.1-.2.1-.4 0-.5.1-.2 0-.3-.1-.4zm1.5-2.8 1.5.8-.7 1.3c0 .1-.1.1-.1.1s-.1 0-.2 0-.1-.1-.1-.1 0-.1 0-.2c.1-.3 0-.6-.1-.9s-.3-.5-.6-.7z"/><path d="m88.6 15.2-.3.4c-.2-.1-.3-.1-.4-.1s-.3.2-.4.3l-2.2 2.8-.1.1c0 .1-.1.1-.1.2v.2.2s.1.1.1.2l-.3.4c-.4-.3-.7-.8-.9-1.2-.1-.4-.1-.9 0-1.3.1-.5.4-.9.7-1.4.3-.3.6-.6.9-.8s.7-.4 1-.5c.4-.1.7-.1 1.1 0 .3.2.6.3.9.5zm-3.5 5.1.3-.4c.2.1.4.2.7.2h.5s.3-.1.5-.2c.1-.1.1-.1.2-.1h.2c.1 0 .1.1.1.2s0 .1-.1.2-.2.2-.4.3-.4.1-.6.2c-.3 0-.5 0-.7 0-.3-.2-.5-.3-.7-.4zm3.4-4.5.3-.4c.1.1.2.2.2.3.1.1.1.2.3.4.1.1.1.2.2.2.1.1.1.1.2 0h .1.2c.1 0 .1.1.1.2s0 .1-.1.2l-1.1 1.4c-.1.1-.1.1-.2.2-.1 0-.1 0-.2 0s-.1-.1-.1-.2 0-.1.1-.2c.1-.2.2-.4.2-.5.1-.3.1-.6.1-.8s0-.3-.1-.4c0-.2-.1-.3-.2-.4z"/><path d="m92.5 19.2c-.1-.1-.3-.1-.4-.1s-.2.1-.3.2l-2.7 2.8c-.2.2-.3.3-.3.5 0 .1 0 .2.1.3l-.3.3c-.4-.5-.6-1-.6-1.6 0-.8.3-1.5 1-2.3.3-.4.7-.6 1.1-.8s.8-.3 1.2-.3c.3 0 .6 0 .9.1s.5.2.7.5zm.2.2.3-.3c.2.2.4.5.5.7.1.3.2.5.2.9 0 .8-.3 1.6-1 2.3s-1.4 1.1-2.2 1.1c-.6 0-1.2-.2-1.7-.6l.3-.3c.1 0 .1.1.2.1h.2c.1 0 .3-.1.5-.3l2.7-2.8c.1-.1.2-.2.2-.3s0-.1 0-.2c-.1-.1-.1-.2-.2-.3z"/><path d="m96.9 23.5-4 3.2c-.1.1-.1.1-.1.2v.1s0 .1.1.2 0 .2-.1.3c-.1 0-.1.1-.2 0-.1 0-.1-.1-.2-.2l-.1-.1-1.2-1.5-.1-.1c-.1-.1-.1-.2-.1-.2 0-.1 0-.1.1-.2s.2-.1.3 0 .1.1.1.1 0 0 .1 0 .1 0 .2-.1l3.4-2.7c.1-.1.1-.1.1-.2v-.1s0-.1-.1-.2c0-.1 0-.2.1-.3.1 0 .1-.1.2 0 .1 0 .1.1.2.2l.1.1zm-1.5 2.9c.1.2.2.4.3.6.1.1.1.3.1.4s0 .3-.1.4-.1.2-.2.3l-.7.6c-.1.1-.1.1-.1.2h.1.1c.1 0 .2 0 .3.1v.2c0 .1 0 .1-.1.2s-.2.1-.3.1c-.2 0-.3 0-.5 0-.1 0-.3-.1-.4-.2s-.2-.2-.4-.3c-.2-.3-.3-.6-.3-.9s.2-.6.5-.8l.6-.5c.1-.1.2-.2.2-.2.1-.1.1-.2.2-.3 0-.1 0-.3-.1-.4l.4-.3c.1.1.2.2.3.2h.2c.1 0 .1-.1.2-.2l.9-.7c.1-.1.2-.2.3-.3 0-.1 0-.3-.1-.4l.4-.3.1.1c.2.2.4.5.5.7.2.3.3.6.3.9 0 .5-.2.8-.5 1.2-.3.3-.7.4-1 .3-.2 0-.3-.1-.4-.1-.3-.3-.5-.4-.8-.6z"/><path d="m100.8 29-4.3 2.7c-.1.1-.2.1-.2.2v.1s0 .1.1.2c0 .1 0 .2-.1.3-.1 0-.1 0-.2 0s-.1-.1-.2-.2l-.1-.1-1-1.6-.1-.1c-.1-.1-.1-.2-.1-.2 0-.1 0-.1.1-.2s.2-.1.3 0 .1.1.1.1 0 0 .1 0 .1 0 .2-.1l3.7-2.3c.1-.1.1-.1.2-.2v-.1s0-.1 0-.2 0-.2.1-.3h.2c.1 0 .1.1.2.2l.1.1zm-2.9 2.2.4-.2c.1.1.2.1.2.2h.2c.1 0 .3-.1.4-.2l1.2-.7c.1-.1.2-.1.2-.2s.1-.1.1-.2 0-.2 0-.4l.4-.2c.3.5.5.9.5 1.2.1.3 0 .7-.1 1s-.4.6-.7.8c-.4.2-.7.3-1.1.3-.3 0-.7-.1-1-.4-.1-.2-.4-.6-.7-1z"/><path d="m98.5 36.1-.4.2c-.1-.2-.2-.5-.2-.8 0-.1 0-.2 0-.2v-.1c0-.1-.1-.1-.1-.1s-.1 0-.2-.1c-.1 0-.1-.1-.2-.1-.1-.1 0-.3.2-.4l1.4-.7h.2c.1 0 .1.1.2.1v.2s-.1.1-.1.2c-.2.2-.4.4-.5.6s-.2.4-.3.6zm5.2-2.2-.4.2c-.1-.1-.2-.2-.4-.3-.1 0-.3 0-.4 0-.1.1-.2.2-.3.3s-.1.3-.1.5v.9.7s-.1.3-.1.5c-.2.5-.5.8-.9 1-.3.2-.7.2-1 .2-.4 0-.7-.2-1-.4-.2-.1-.3-.3-.4-.4-.1-.2-.2-.3-.3-.5l.4-.2c.2.2.3.3.5.4.1.1.3 0 .5 0 .2-.1.3-.2.3-.5 0-.1 0-.4 0-.7 0-.4 0-.7 0-.8s0-.3 0-.4c.1-.7.5-1.1 1-1.4.3-.1.6-.2.9-.2s.6.1.8.2c.4.2.7.5.9.9zm-.3.5.4-.2c.1.2.1.3.1.4s0 .3.1.6v.1l.1.1h.2c.1 0 .1.1.2.1v.2c0 .1-.1.1-.2.2l-1.3.6c-.1 0-.1 0-.2 0s-.1-.1-.2-.1c0-.1 0-.1 0-.2v-.1l.1-.1c.1-.1.2-.2.3-.3s.2-.3.2-.4c.2-.2.3-.5.2-.9z"/></g><path d="m37.6 87.1-1.2-.8.3-.4c.1-.2.2-.3.2-.4s0-.1-.1-.2-.2-.1-.2 0-.2.1-.3.2c-.1.2-.2.3-.2.4s0 .3.2.6c.3.7.5 1.3.5 1.6s-.2.7-.5 1.2c-.2.4-.5.6-.7.7s-.5.1-.8.1c-.3-.1-.6-.2-.9-.4s-.6-.5-.7-.8c-.2-.3-.2-.6-.1-.8.1-.3.2-.6.5-.9l.2-.3 1.2.8-.4.6c-.1.2-.2.3-.2.4s0 .1.1.2.2.1.3 0c .1 0 .2-.1.3-.3.2-.3.3-.5.3-.7 0-.1-.1-.4-.3-.9-.2-.4-.3-.7-.3-.9s0-.4 0-.6.2-.5.3-.7c.3-.4.5-.6.7-.7s.5-.1.8-.1c.3.1.6.2.9.4s.6.5.7.8c.2.3.2.5.2.7s-.2.5-.5.9z" fill="#94944b"/><path d="m40.4 90.6-1.7-.9-.5.9c-.1.2-.2.3-.2.4s0 .1.1.2.2.1.3 0 .2-.2.3-.4l.3-.6 1.3.7-.2.3c-.1.3-.3.5-.4.6s-.3.2-.5.3-.4.1-.7.1c-.2 0-.5-.1-.8-.3s-.5-.3-.7-.5-.3-.4-.3-.6 0-.4 0-.6.2-.5.3-.8l.7-1.3c.2-.4.4-.7.6-.8.2-.2.5-.2.8-.2s.6.1.9.3c.4.2.6.4.8.7s.2.5.2.8-.2.6-.4 1.1zm-1-1.4.2-.3c.1-.2.2-.4.2-.5s0-.1-.1-.2c-.1 0-.2-.1-.2 0-.1 0-.1.2-.3.4l-.2.3z" fill="#94944b"/><path d="m43.4 89.2-.2.4c.2-.1.4-.2.5-.2.2 0 .4 0 .6.1.4.1.6.4.7.9.2-.1.4-.2.5-.2.2 0 .4 0 .5.1.2.1.4.2.5.4s.2.4.1.5c0 .2-.1.5-.2.8l-1.2 3.3-1.4-.5 1.1-3c .1-.4.2-.6.2-.7s0-.2-.1-.2-.2 0-.2.1c-.1.1-.2.3-.3.7l-1.1 3-1.4-.5 1.1-2.9c.2-.5.3-.7.3-.8s0-.2-.1-.2-.1 0-.2 0-.1.1-.1.1c0 .1-.1.2-.2.4l-1.2 3.2-1.4-.5 1.7-4.6z" fill="#94944b"/><path d="m49 90.9-.1.4c.2-.1.3-.2.5-.3s.4-.1.5 0c .2 0 .4.2.5.3.1.2.2.3.2.5s0 .4-.1.8l-.4 2c-.1.4-.2.7-.3.9s-.2.3-.4.4-.4.1-.6 0c-.2 0-.3-.1-.5-.2-.1-.1-.3-.3-.3-.5l-.2 1.1-1.5-.3 1.2-5.5zm.1 1.5c.1-.3.1-.5.1-.5 0-.1-.1-.1-.2-.1s-.2 0-.2.1-.1.2-.2.5l-.4 2c-.1.3-.1.5-.1.6s.1.1.2.2c.1 0 .2 0 .2-.1s.1-.2.1-.5z" fill="#94944b"/><path d="m54.5 94.3-1.9-.2-.1 1.1v.4c0 .1.1.1.2.1s.2 0 .2-.1.1-.2.1-.5l.1-.6 1.4.1v.4c0 .3-.1.5-.1.7-.1.2-.2.3-.3.5-.2.2-.4.3-.6.4s-.5.1-.8.1-.6-.1-.8-.2-.4-.3-.5-.4c-.1-.2-.2-.4-.2-.6s0-.5 0-.8l.1-1.4c0-.4.1-.8.3-1 .1-.2.4-.4.6-.5.3-.1.6-.1.9-.1.4 0 .8.2 1 .3.3.2.4.4.5.7s.1.6.1 1.1zm-1.4-1v-.4c0-.3 0-.4 0-.5s-.1-.1-.2-.1-.2 0-.2.1-.1.2-.1.5v.4z" fill="#94944b"/><path d="m56.8 91.8-.1.6c.2-.5.5-.7 1-.7v1.7c-.3 0-.5 0-.6.1s-.2.2-.2.3 0 .4-.1.9v1.9h-1.5v-4.9z" fill="#94944b"/><path d="m59.5 90.6 2.6-.3.1 1.2-1.1.1.1 1.1 1-.1.1 1.1-1 .1.3 2.5-1.6.2z" fill="#94944b"/><path d="m64 89.9.2.8-1.5.3-.2-.8zm.2 1.1.9 4.8-1.5.3-.9-4.8z" fill="#94944b"/><path d="m67.7 88.9 1.7 5.8-1.4.4-.1-.3c-.1.2-.2.3-.3.4s-.3.2-.4.2c-.2.1-.4.1-.6 0s-.3-.2-.4-.3-.2-.4-.3-.7l-.6-2.2c-.1-.4-.2-.6-.2-.8s.1-.3.2-.5.3-.3.5-.3c.2-.1.4-.1.5 0 .2 0 .3.1.5.2l-.4-1.3zm-.8 2.6c-.1-.2-.1-.3-.1-.3 0-.1-.1-.1-.2 0-.1 0-.1.1-.2.1 0 .1 0 .2.1.4l.7 2.3c.1.2.1.3.2.4 0 .1.1.1.2 0 .1 0 .1-.1.2-.2 0-.1 0-.2-.1-.5z" fill="#94944b"/><path d="m72.7 90.8-1.8.7.4 1c .1.2.2.3.2.4.1 0 .1.1.2 0 .1 0 .2-.1.2-.2s0-.3-.1-.5l-.2-.6 1.3-.5.1.3c.1.3.2.5.2.7s0 .4 0 .6c-.1.2-.2.4-.3.6-.2.2-.4.3-.7.4s-.6.2-.8.2c-.3 0-.5 0-.7-.1s-.3-.2-.5-.4c-.1-.2-.3-.4-.4-.7l-.6-1.3c-.2-.4-.2-.7-.2-1s .1-.5.3-.7.4-.4.8-.5c.4-.2.7-.2 1.1-.2.3 0 .6.2.8.4s.4.5.6 1zm-1.7-.2-.1-.3c-.1-.2-.2-.4-.2-.4-.1-.1-.1-.1-.2 0-.1 0-.1.1-.1.2s.1.2.2.5l.1.3z" fill="#94944b"/><path d="m73.1 86.5 2.7 5.3-1.4.7-2.8-5.3z" fill="#94944b"/><path d="m74.9 85.4.4.7-1.3.8-.4-.7zm.6.9 2.5 4.2-1.3.8-2.5-4.2z" fill="#94944b"/><path d="m79.4 85.5-1.1.8-.2-.2c-.1-.2-.2-.3-.3-.3s-.1 0-.2 0-.1.1-.1.2 0 .1.1.2.2.2.2.3c.1 0 .2.1.3.1s.4 0 .7-.1c.5-.1.8-.1 1 0s .4.3.6.5c.2.3.4.6.4.8s0 .5-.1.7-.3.4-.6.7c-.3.2-.6.4-.9.4-.3.1-.5 0-.7-.1s-.4-.3-.7-.7l-.1-.2 1.1-.8.2.3c.2.2.3.3.3.4h.2c.1-.1.1-.1.1-.2s0-.2-.1-.3c-.1-.2-.2-.3-.3-.3s-.4 0-1 .1c-.5.1-.9 0-1-.1-.2-.1-.4-.3-.5-.5-.2-.3-.4-.6-.4-.8s0-.4.2-.7c.1-.2.3-.4.6-.6s.5-.3.7-.4.4-.1.6 0c .2 0 .3.1.4.2l.4.4z" fill="#94944b"/></svg>