<svg enable-background="new 0 0 113.3 113.4" viewBox="0 0 113.3 113.4" xmlns="http://www.w3.org/2000/svg"><circle cx="56.7" cy="57" fill="#afc910" r="55.5"/><path d="m56.6 113.4c-31.3 0-56.6-25.4-56.6-56.8 0-31.3 25.4-56.6 56.8-56.6 31.3 0 56.6 25.5 56.5 56.9.1 31.2-25.4 56.5-56.7 56.5zm55.8-56.8c0-30.5-24.9-55.5-55.5-55.6-30.8-.1-55.8 25-55.8 55.5-.1 30.8 25.1 55.9 55.8 55.8 30.5 0 55.5-24.9 55.5-55.7z" fill="#fdce00"/><path d="m112.4 56.6c.1 30.8-25 55.7-55.6 55.8-30.7.1-55.9-25-55.8-55.8.1-30.5 25-55.6 55.8-55.5 30.6 0 55.5 24.9 55.6 55.5zm-55.7 36.1c.2-.2.4-.3.5-.4 10.8-8.2 21.7-16.3 32.5-24.4.6-.4.9-1 1.1-1.6 1.5-5.4 1.9-10.8.7-16.3-3.9-19.2-21.5-31.4-40.9-28.3-20.4 3.3-33.8 24.5-28 44.4.2.8.6 1.4 1.3 1.9 2.1 1.5 4.1 3.1 6.2 4.6 2.6 1.9 5.2 3.9 7.8 5.8 3-2.1 5.8-4.1 8.7-6.1s5.8-4 8.7-6.1c-4.7-3.2-9.2-6.4-13.8-9.5 0-.4 0-.7 0-1 .2-7.8 7.2-14.5 15.2-14.5s15 6.7 15.2 14.5c0 1-.4 1.6-1.2 2.2-10 7-20 14-30 21-.4.3-.9.4-1 1 5.6 4.2 11.3 8.5 17 12.8z" fill="#b0ca0f"/><path d="m56.7 92.7c-5.7-4.3-11.3-8.5-17-12.8.2-.6.6-.7 1-1l30-21c .8-.5 1.2-1.1 1.2-2.2-.2-7.8-7.2-14.5-15.2-14.5s-15 6.7-15.2 14.5v1c4.6 3.1 9.1 6.3 13.8 9.5-3 2.1-5.9 4.1-8.7 6.1-2.9 2-5.7 4-8.7 6.1-2.6-1.9-5.2-3.9-7.8-5.8-2.1-1.5-4.1-3.1-6.2-4.6-.7-.5-1.1-1.1-1.3-1.9-5.8-19.9 7.5-41.1 28-44.4 19.4-3.2 37 9 40.9 28.3 1.1 5.5.7 10.9-.7 16.3-.2.7-.5 1.2-1.1 1.6-10.8 8.1-21.7 16.2-32.5 24.4-.1.1-.3.2-.5.4z" fill="#020504"/></svg>