<?xml version="1.0" encoding="utf-8"?>
<!-- Generator: Adobe Illustrator 23.0.1, SVG Export Plug-In . SVG Version: 6.00 Build 0)  -->
<svg version="1.1" id="Capa_1" xmlns="http://www.w3.org/2000/svg" xmlns:xlink="http://www.w3.org/1999/xlink" x="0px" y="0px"
	 viewBox="0 0 538.6 538.6" style="enable-background:new 0 0 538.6 538.6;" xml:space="preserve">
<style type="text/css">
	.st0{fill:#596423;}
	.st1{fill:#92A423;}
	.st2{fill:#C8D425;}
</style>
<circle class="st0" cx="269.3" cy="269.3" r="269.3"/>
<circle class="st1" cx="269.3" cy="269.3" r="200.5"/>
<g>
	<path class="st2" d="M269.3,472.8c-112.2,0-203.5-91.3-203.5-203.5S157.1,65.8,269.3,65.8s203.5,91.3,203.5,203.5
		S381.5,472.8,269.3,472.8L269.3,472.8z M269.3,71.8c-108.9,0-197.5,88.6-197.5,197.5s88.6,197.5,197.5,197.5
		s197.5-88.6,197.5-197.5S378.2,71.8,269.3,71.8L269.3,71.8z"/>
	<path class="st2" d="M104.9,114c0.7,1.3,1.2,2.8,1.4,4.3c0.2,1.5,0.1,3-0.3,4.4c-0.4,1.4-1.1,2.8-2.1,3.9l-6.6,7.8l-6.8-5.8
		l6.6-7.8c0.5-0.6,0.8-1.4,0.6-2.2c-0.1-0.8-0.5-1.6-1.2-2.1c-0.6-0.6-1.4-0.9-2.3-0.8c-0.8,0-1.5,0.4-2,1l-0.3,0.4
		c-1.1,1.4-2.5,2.5-4.1,3.3c-1.5,0.8-3.1,1.2-4.8,1.2c-1.4,0.1-2.8-0.2-4.1-0.6c-1.4-0.5-2.7-1.2-3.8-2.2c-1.1-1-2.1-2.1-2.9-3.4
		c-0.8-1.3-1.3-2.8-1.5-4.3c-0.2-1.7,0-3.4,0.6-5c0.7-2,1.8-3.9,3.3-5.5c0.5-0.6,1.1-1.2,1.7-1.9s1.3-1.3,1.9-1.9s1.3-1.1,1.9-1.6
		c0.5-0.4,1.1-0.8,1.6-1.2l4.9,7.4c-0.4,0.2-0.7,0.4-1,0.7c-0.4,0.3-0.8,0.7-1.3,1.2s-1,0.9-1.5,1.5s-1,1.1-1.4,1.6
		s-0.7,0.9-1.1,1.4c-0.3,0.5-0.6,1-0.8,1.6c-0.2,0.5-0.2,1.1-0.1,1.6c0.1,0.6,0.5,1.2,1,1.6c0.3,0.3,0.8,0.5,1.3,0.5
		c0.5,0,0.9-0.1,1.3-0.3c0.4-0.2,0.8-0.4,1.2-0.7c0.3-0.3,0.6-0.6,0.9-0.9l0.3-0.4c1-1.1,2.2-2,3.5-2.7c1.4-0.6,2.8-1,4.3-1
		c1.5-0.1,3.1,0.2,4.5,0.7c1.5,0.5,2.9,1.4,4.2,2.4C103.1,111.3,104.1,112.6,104.9,114L104.9,114z"/>
	<path class="st2" d="M124.8,78.8c0.5,1.7,0.6,3.4,0.3,5.1c-0.3,1.7-1,3.3-1.9,4.7c-1,1.5-2.1,2.8-3.5,4c-0.4,0.3-0.8,0.6-1.2,0.9
		l-1.3,0.8l8.6,10l-6.2,5.3l-18.9-22.1l-2.8,2.4L92,83.2l12.8-11c1.2-1,2.6-1.8,4.1-2.4c1.4-0.5,2.9-0.8,4.4-0.7
		c1.5,0.1,3.1,0.5,4.4,1.2c1.6,0.8,2.9,2,4,3.3C123.2,75.1,124.2,76.9,124.8,78.8L124.8,78.8z M113.1,77.9c-0.9,0.2-1.7,0.6-2.4,1.3
		l-3.8,3.2l4.4,5.1c0.6-0.3,1-0.5,1.4-0.8c0.4-0.3,0.8-0.6,1.2-0.9c0.5-0.4,0.9-0.9,1.4-1.4c0.4-0.5,0.8-1.1,1-1.7
		c0.2-0.6,0.3-1.2,0.3-1.9c-0.1-0.7-0.4-1.4-0.9-1.9C115,78.2,114,77.8,113.1,77.9L113.1,77.9z"/>
	<path class="st2" d="M145.9,88.5l-4.8-7.5l3.2-2.1l-10.9-17l-3.2,2l-4.8-7.5l13.3-8.5l4.8,7.6l-3.2,2l10.9,17l3.2-2.1l4.8,7.5
		L145.9,88.5z"/>
	<path class="st2" d="M187.8,65.8l-12.6-8.6l-0.2,0.1h-0.1h-0.1c-0.4,0.2-0.9,0.4-1.4,0.5l-1.4,0.4l5.4,12.1l-7.5,3.4l-11.8-26.7
		l-3.3,1.5l-3.6-8.2l15.1-6.7c1.5-0.7,3.1-1.1,4.7-1.2c3.2-0.3,6.3,0.8,8.6,2.9c1.3,1.2,2.3,2.7,3,4.3c0.9,2,1.3,4.1,1.2,6.3
		c-0.1,2.1-0.8,4.1-2,5.8l15.2,10L187.8,65.8z M174.1,41.8c-0.4-0.2-0.8-0.4-1.3-0.5c-0.5-0.1-1,0-1.4,0.1c-0.5,0.1-1,0.3-1.4,0.5
		l-4.3,1.9l2.8,6.2c1-0.2,2-0.4,2.9-0.9c0.6-0.3,1.2-0.6,1.7-0.9c0.6-0.3,1.1-0.8,1.6-1.3c0.4-0.5,0.7-1.1,0.9-1.7
		c0.1-0.7,0-1.5-0.3-2.1C174.9,42.6,174.6,42.1,174.1,41.8z"/>
	<path class="st2" d="M227.9,53.8l-2.3-3.1l-13.2,3.1l-0.6,3.8l-8.8,2.1l7.6-43.5l26.2,35.5L227.9,53.8z M215.4,36.8l-1.4,8l6.2-1.5
		L215.4,36.8z"/>
	<path class="st2" d="M244.6,51.2l-2.2-29l-3.7,0.3l-0.7-8.9l11.9-0.9l2.2,29l12.8-1l0.7,8.9L244.6,51.2z"/>
	<path class="st2" d="M322.3,26.8c-1.3-1.3-3-2.2-4.8-2.5c-1.3-0.2-2.6-0.2-3.9,0.2c-1.2,0.3-2.4,0.9-3.4,1.7
		c-1,0.8-1.9,1.8-2.6,2.9c-0.7,1.2-1.2,2.5-1.5,3.9c-0.5,2.7,0,5.5,1.5,7.8c0.7,1.1,1.6,2,2.6,2.8c1.1,0.8,2.3,1.3,3.6,1.5l6.8,1.2
		l-1.5,8.8l-6.8-1.2c-2.4-0.4-4.6-1.3-6.6-2.7c-1.9-1.4-3.6-3.1-4.9-5.1c-1.3-2.1-2.2-4.4-2.7-6.8c-1-5.2-0.1-10.5,2.6-15
		c1.3-2.1,2.9-3.9,4.8-5.4c1.9-1.4,4-2.5,6.3-3.1c2.3-0.6,4.8-0.8,7.1-0.3c3.4,0.6,6.6,2.2,9,4.7L322.3,26.8z"/>
	<path class="st2" d="M364,58c-1.6,1.9-3.6,3.5-5.9,4.7c-2.2,1.1-4.5,1.8-6.9,2.1c-5,0.4-9.9-1.4-13.4-4.9c-1.7-1.7-3.1-3.8-4-6
		c-1-2.3-1.5-4.8-1.5-7.3c-0.1-5.4,1.8-10.6,5.3-14.7c1.7-1.9,3.6-3.5,5.9-4.7c2.2-1.1,4.5-1.8,6.9-2c5-0.4,9.9,1.4,13.5,4.9
		c1.7,1.7,3.1,3.8,4,6c1,2.3,1.5,4.8,1.5,7.3C369.4,48.7,367.6,53.9,364,58L364,58z M361,44.1c0-1.4-0.3-2.8-0.8-4.1
		c-0.5-1.2-1.3-2.4-2.2-3.3c-2-1.9-4.7-2.9-7.4-2.7c-1.3,0.1-2.7,0.5-3.9,1.1c-1.2,0.7-2.3,1.5-3.2,2.6c-1.9,2.3-3,5.1-2.9,8.1
		c0,1.4,0.3,2.8,0.8,4.1c0.5,1.2,1.3,2.4,2.2,3.3c2,1.9,4.7,2.9,7.4,2.6c1.3-0.1,2.6-0.5,3.8-1.1c1.2-0.7,2.3-1.5,3.2-2.6
		C360,49.9,361,47,361,44.1L361,44.1z"/>
	<path class="st2" d="M386.4,83.3L386.1,68l-0.2-0.1h-0.1c-0.4-0.3-0.8-0.5-1.2-0.8l-1.2-0.9l-6.7,11.4l-7.1-4.2l14.7-25.2l-3.1-1.8
		l4.5-7.7l14.2,8.4c1.4,0.8,2.7,1.9,3.7,3.1c1,1.2,1.8,2.6,2.2,4.1c0.5,1.5,0.6,3.1,0.4,4.7c-0.2,1.8-0.8,3.5-1.7,5
		c-1.1,1.9-2.6,3.5-4.4,4.6c-1.8,1.1-3.8,1.7-5.9,1.7l0.8,18.2L386.4,83.3z M398,58.1c0-0.5-0.1-0.9-0.4-1.3
		c-0.2-0.4-0.5-0.8-0.9-1.1c-0.4-0.3-0.8-0.6-1.2-0.9l-4.1-2.4l-3.5,5.9c0.7,0.7,1.5,1.3,2.4,1.8c0.6,0.3,1.1,0.6,1.8,0.9
		c0.6,0.3,1.3,0.4,2,0.5c0.7,0.1,1.3,0,1.9-0.3c0.7-0.3,1.2-0.8,1.6-1.5C397.8,59.2,398,58.7,398,58.1z"/>
	<path class="st2" d="M433.5,94.1c-1.6,0.7-3.3,1.1-5,1.1c-1.7,0-3.4-0.4-5-1.1c-1.6-0.7-3.2-1.6-4.5-2.8c-0.4-0.3-0.7-0.6-1.1-1
		l-1-1.1l-8.5,10.1l-6.3-5.3l18.7-22.2l-2.8-2.4l5.8-6.9l12.9,10.8c1.3,1,2.3,2.3,3.1,3.7c0.8,1.3,1.2,2.8,1.4,4.3
		c0.2,1.5,0,3.1-0.5,4.6c-0.5,1.7-1.4,3.2-2.6,4.6C436.9,91.9,435.3,93.2,433.5,94.1L433.5,94.1z M432.5,82.4
		c-0.4-0.9-0.9-1.6-1.6-2.2l-3.8-3.2l-4.3,5.2c0.4,0.5,0.7,0.9,1,1.2c0.3,0.4,0.7,0.7,1.1,1c0.5,0.4,1,0.8,1.6,1.1
		c0.6,0.4,1.2,0.6,1.8,0.8c0.6,0.1,1.3,0.1,1.9,0c0.7-0.2,1.3-0.7,1.7-1.2C432.6,84.4,432.9,83.3,432.5,82.4L432.5,82.4z"/>
	<path class="st2" d="M448.5,129.3c-1.4,0.5-3,0.8-4.5,0.7c-1.5,0-2.9-0.4-4.3-1c-1.4-0.6-2.6-1.5-3.5-2.6l-6.7-7.7l6.8-5.9l6.7,7.7
		c0.5,0.6,1.3,1,2.1,0.9c1.7,0,3.2-1.3,3.4-2.9c0.1-0.8-0.1-1.6-0.7-2.2l-0.3-0.4c-1.2-1.3-2.1-2.9-2.6-4.6
		c-0.5-1.6-0.7-3.3-0.5-4.9c0.2-1.4,0.6-2.8,1.2-4c0.7-1.3,1.6-2.4,2.7-3.3c1.1-1,2.4-1.7,3.8-2.3c1.4-0.6,2.9-0.9,4.5-0.8
		c1.7,0.1,3.4,0.5,4.9,1.3c1.9,1,3.6,2.4,5,4.1c0.5,0.6,1,1.3,1.6,2s1,1.5,1.5,2.2s0.9,1.4,1.3,2.1c0.3,0.6,0.6,1.2,0.9,1.8
		l-8.1,3.8c-0.1-0.4-0.3-0.7-0.5-1.1c-0.3-0.4-0.6-0.9-1-1.5s-0.8-1.1-1.2-1.7s-0.9-1.1-1.3-1.6s-0.8-0.8-1.2-1.3
		c-0.4-0.4-0.9-0.8-1.4-1.1c-0.5-0.3-1-0.4-1.6-0.4c-0.6,0.1-1.2,0.3-1.7,0.8c-0.4,0.3-0.6,0.7-0.7,1.2c-0.1,0.4,0,0.9,0.1,1.3
		c0.1,0.4,0.3,0.9,0.5,1.3c0.2,0.4,0.5,0.7,0.7,1l0.3,0.4c1,1.1,1.7,2.4,2.1,3.9c0.4,1.4,0.5,2.9,0.4,4.4c-0.2,1.5-0.7,3-1.4,4.4
		C454.1,125.9,451.6,128.1,448.5,129.3L448.5,129.3z"/>
	<path class="st2" d="M56.7,389.4c-2.4,0.2-4.9-0.1-7.3-0.8c-2.3-0.7-4.4-1.8-6.2-3.3c-1.9-1.5-3.4-3.4-4.4-5.6
		c-0.8-1.5-1.3-3.2-1.5-4.9c-0.2-1.6-0.2-3.3-0.1-4.9l24.5-11.8l-1.6-3.3l8.1-3.9l5.8,12c1.1,2.2,1.6,4.5,1.6,7
		c0,2.4-0.4,4.7-1.3,6.9c-0.9,2.3-2.2,4.3-3.9,6.1C66.8,386.7,61.9,389,56.7,389.4L56.7,389.4z M63.8,377.5c0.9-1,1.6-2.1,2.1-3.3
		c0.5-1.2,0.7-2.5,0.7-3.8c0-1.3-0.3-2.6-0.9-3.7l-0.6-1.3l-18.9,9.1c0.1,0.2,0.1,0.4,0.2,0.6c0.1,0.2,0.2,0.4,0.3,0.6
		c0.6,1.2,1.4,2.2,2.4,3c1,0.8,2.1,1.4,3.4,1.8C56.6,381.8,60.9,380.6,63.8,377.5L63.8,377.5z"/>
	<path class="st2" d="M66.3,423.8l5.8-14.1l-0.1-0.2l-0.1-0.1c-0.3-0.4-0.6-0.8-0.8-1.3c-0.2-0.4-0.4-0.8-0.7-1.3l-10.8,7.7
		l-4.8-6.7l23.7-17l-2.1-2.9l7.3-5.2l9.6,13.4c1,1.3,1.7,2.8,2.1,4.4c0.4,1.5,0.6,3.1,0.4,4.6c-0.2,1.6-0.7,3.1-1.5,4.4
		c-0.9,1.5-2.1,2.8-3.6,3.8c-1.7,1.3-3.8,2.1-5.9,2.4c-2.1,0.3-4.2,0-6.1-0.8L72.2,432L66.3,423.8z M87.1,405.5
		c0.2-0.4,0.2-0.9,0.2-1.4c0-0.5-0.2-1-0.4-1.4c-0.2-0.5-0.5-0.9-0.8-1.3l-2.8-3.9l-5.5,4c0.3,0.9,0.8,1.8,1.4,2.6
		c0.4,0.5,0.8,1,1.3,1.5c0.5,0.5,1,0.9,1.6,1.3c0.6,0.3,1.2,0.5,1.9,0.5c0.7,0,1.4-0.3,2-0.7C86.5,406.5,86.8,406.1,87.1,405.5
		L87.1,405.5z"/>
	<path class="st2" d="M98.7,459.1l1.4-3.6l-9.8-9.4l-3.6,1.5l-6.6-6.3l40.7-17.2l-15.7,41.3L98.7,459.1z M106.2,439.4l-7.5,3.1
		l4.6,4.4L106.2,439.4z"/>
	<path class="st2" d="M136.3,487.2l0.7-3.8l-11.3-7.4l-3.2,2.1l-7.6-5l36.9-24.4l-7.8,43.5L136.3,487.2z M140,466.4l-6.8,4.5
		l5.3,3.5L140,466.4z"/>
	<path class="st2" d="M155.4,497.8l12.1-26.5l-3.4-1.5l3.7-8.1l10.8,5l-12.1,26.5l11.6,5.3l-3.7,8.1L155.4,497.8z"/>
	<path class="st2" d="M233.7,515c-0.8,1.3-1.9,2.4-3.1,3.3c-1.2,0.9-2.6,1.5-4,1.9c-1.4,0.4-2.9,0.4-4.4,0.1l-10-2l1.7-8.8l10,2
		c0.8,0.2,1.6,0,2.2-0.5c0.7-0.5,1.1-1.2,1.3-2c0.2-0.8,0-1.7-0.4-2.4c-0.4-0.7-1.1-1.2-1.9-1.3l-0.5-0.1c-1.7-0.3-3.4-1-4.9-2
		c-1.4-0.9-2.6-2.1-3.4-3.6c-0.7-1.2-1.2-2.5-1.5-3.9c-0.2-1.4-0.2-2.9,0.1-4.3c0.3-1.5,0.8-2.9,1.5-4.1c0.7-1.3,1.8-2.5,3-3.4
		c1.4-1,3-1.7,4.6-2c2.1-0.4,4.3-0.3,6.4,0.1c0.8,0.1,1.6,0.4,2.5,0.6s1.7,0.5,2.6,0.8s1.6,0.5,2.3,0.8c0.6,0.2,1.2,0.5,1.8,0.9
		l-4.1,7.9c-0.3-0.2-0.7-0.4-1.1-0.5c-0.5-0.2-1-0.4-1.7-0.6s-1.3-0.4-2-0.6s-1.4-0.4-2.1-0.5s-1.1-0.2-1.7-0.3
		c-0.6-0.1-1.2-0.1-1.8,0c-0.5,0.1-1.1,0.3-1.5,0.7c-0.5,0.4-0.8,1-0.9,1.6c-0.1,0.5-0.1,0.9,0.2,1.4c0.2,0.4,0.5,0.7,0.9,1
		c0.4,0.3,0.8,0.5,1.2,0.6c0.4,0.1,0.8,0.3,1.2,0.4l0.5,0.1c1.4,0.3,2.8,0.9,4,1.8c1.2,0.9,2.2,2,3,3.3c0.8,1.3,1.3,2.8,1.6,4.3
		c0.3,1.6,0.3,3.2-0.1,4.8C235.2,512.1,234.6,513.6,233.7,515L233.7,515z"/>
	<path class="st2" d="M270.4,525.2l-1.4-3.6l-13.5-0.5l-1.6,3.5l-9.1-0.3l18.9-40l15.8,41.3L270.4,525.2z M262.8,505.4l-3.5,7.3
		l6.4,0.2L262.8,505.4z"/>
	<path class="st2" d="M313.9,515.8c-0.5,1.6-1.4,3.1-2.6,4.3c-1.2,1.2-2.6,2.2-4.1,2.8c-1.6,0.7-3.3,1.2-5.1,1.4
		c-1.9,0.2-3.8,0.2-5.7,0c-1.7-0.2-3.6-0.5-5.6-1l-3.2-27.8l-3.7,0.4l-1-8.9l15.5-1.8c1.4-0.2,2.9,0,4.3,0.4
		c1.4,0.5,2.6,1.2,3.7,2.1c1.1,1,2,2.1,2.7,3.4c0.7,1.4,1.2,2.9,1.3,4.5c0.2,2,0,4.1-0.7,6c1.3,1,2.4,2.2,3.2,3.6
		C314.7,508.6,315,512.4,313.9,515.8L313.9,515.8z M301.2,494.7c-0.6-0.5-1.3-0.8-2.1-0.7l-3.3,0.4l0.7,6.1l3.4-0.4
		c0.7-0.1,1.4-0.5,1.8-1.1c0.4-0.7,0.6-1.5,0.5-2.2C302.2,495.9,301.8,495.2,301.2,494.7L301.2,494.7z M305.7,509.3
		c-0.3-0.4-0.7-0.7-1.1-0.9c-0.5-0.2-0.9-0.3-1.4-0.3c-0.5-0.1-1-0.1-1.5,0l-4.3,0.5l0.8,7.2h1.5c0.5,0,0.9,0,1.4-0.1
		c3.8-0.4,5.5-2.1,5.1-4.9C306.2,510.3,306,509.7,305.7,509.3z"/>
	<path class="st2" d="M360,498.6c-0.2,2.5-0.9,5-1.9,7.2c-1.1,2.2-2.5,4.2-4.4,5.8c-3.7,3.3-8.7,4.8-13.7,4.1
		c-2.4-0.4-4.7-1.2-6.8-2.4c-2.2-1.3-4-3-5.6-5c-1.6-2.1-2.9-4.5-3.6-7.1c-0.8-2.5-1.1-5.2-0.9-7.9c0.2-2.5,0.9-5,1.9-7.2
		c1.1-2.2,2.5-4.2,4.4-5.8c3.7-3.3,8.7-4.8,13.7-4.1c2.4,0.4,4.7,1.2,6.8,2.4c2.2,1.3,4.1,3,5.6,5
		C358.8,487.9,360.4,493.2,360,498.6L360,498.6z M349.3,489.1c-0.8-1.1-1.9-2-3.1-2.8c-1.2-0.7-2.4-1.2-3.8-1.4
		c-2.7-0.4-5.5,0.4-7.5,2.3c-1,0.9-1.8,2-2.4,3.2c-0.6,1.3-1,2.6-1.1,4c-0.2,2.9,0.7,5.9,2.5,8.2c0.9,1.1,1.9,2,3.1,2.8
		c1.2,0.7,2.4,1.2,3.8,1.3c1.3,0.2,2.7,0.1,4-0.3c1.3-0.4,2.5-1.1,3.5-2c1-0.9,1.8-2,2.4-3.2c0.6-1.3,1-2.6,1.1-4
		C352,494.4,351.1,491.5,349.3,489.1L349.3,489.1z"/>
	<path class="st2" d="M378,470.5l12.8,26l-7.4,3.6l-12.8-26l-8.3,4.1l-4-8.1l23.7-11.7l4,8.1L378,470.5z"/>
	<path class="st2" d="M412,484.6l-16.6-24l-3,2.1l-5.1-7.4l19.4-13.4l5.1,7.4l-9.6,6.6l3.5,5.1l9.6-6.7l4.9,7.1l-9.6,6.6l3,4.4
		l9.6-6.7l5.1,7.4L412,484.6z"/>
	<path class="st2" d="M455.9,436.4c0.8,1.9,1.3,3.9,1.3,6c0.1,2-0.3,4-1,5.8c-1.5,3.8-4.5,6.8-8.4,8.1c-1.9,0.7-3.9,0.9-5.9,0.8
		c-2.1-0.1-4.1-0.6-5.9-1.5c-2-0.9-3.8-2.2-5.3-3.8L415,435.6l5.9-5.7l15.8,16.3c1.3,1.4,3.2,2.3,5.1,2.4c0.9,0.1,1.8-0.1,2.6-0.4
		c1.8-0.6,3.2-2,3.8-3.7c0.3-0.8,0.5-1.8,0.5-2.7c0-0.9-0.2-1.8-0.6-2.7c-0.4-0.9-0.9-1.8-1.6-2.5l-9.5-9.9l-2.7,2.6L428,423
		l8.5-8.3l15.8,16.3C453.8,432.5,455.1,434.3,455.9,436.4L455.9,436.4z"/>
	<path class="st2" d="M486.3,411.7l-15.2-0.9l-0.1,0.2l0,0.1c-0.3,0.4-0.6,0.8-0.9,1.2l-1,1.1l10.8,7.6l-4.7,6.7l-23.8-16.8l-2.1,3
		l-7.3-5.1l9.5-13.5c0.9-1.3,2.1-2.5,3.4-3.4c1.3-0.9,2.7-1.5,4.2-1.9c1.5-0.3,3.1-0.3,4.7,0c1.7,0.4,3.4,1.1,4.8,2.1
		c1.8,1.2,3.2,2.9,4.2,4.8c0.9,1.9,1.4,3.9,1.3,6l18.2,0.7L486.3,411.7z M462.2,398.2c-0.5,0-0.9,0.1-1.4,0.3
		c-0.4,0.2-0.9,0.5-1.2,0.8c-0.4,0.4-0.7,0.7-1,1.1l-2.7,3.9l5.6,3.9c0.8-0.6,1.4-1.4,2-2.2c0.4-0.5,0.7-1.1,1-1.7
		c0.3-0.6,0.6-1.3,0.7-1.9c0.1-0.6,0.1-1.3-0.1-1.9c-0.3-0.7-0.7-1.3-1.4-1.7C463.2,398.4,462.7,398.2,462.2,398.2L462.2,398.2z"/>
	<path class="st2" d="M501.7,367.8c1,1.1,1.9,2.4,2.5,3.8c0.6,1.4,0.9,2.8,0.8,4.3c0,1.5-0.4,3-1,4.3l-4.4,9.2l-8.1-3.8l4.4-9.2
		c0.3-0.7,0.3-1.6,0-2.3c-0.3-0.8-0.9-1.4-1.7-1.7c-0.7-0.4-1.6-0.5-2.4-0.2c-0.8,0.2-1.4,0.8-1.7,1.5l-0.2,0.5
		c-0.7,1.6-1.8,3.1-3.1,4.3c-1.2,1.1-2.7,2-4.3,2.4c-1.3,0.4-2.7,0.6-4.1,0.5c-1.4-0.1-2.9-0.5-4.2-1.1c-1.3-0.6-2.6-1.5-3.6-2.5
		c-1.1-1.1-2-2.3-2.5-3.8c-0.6-1.6-0.9-3.3-0.8-5c0.2-2.2,0.8-4.2,1.7-6.2c0.3-0.7,0.7-1.5,1.2-2.3s0.9-1.5,1.4-2.3s0.9-1.4,1.4-2
		c0.4-0.5,0.8-1.1,1.3-1.5l6.7,5.9c-0.3,0.3-0.5,0.6-0.8,0.9c-0.3,0.4-0.6,0.9-1,1.5s-0.7,1.2-1.1,1.8s-0.7,1.3-1,1.9
		s-0.5,1-0.7,1.6c-0.2,0.6-0.3,1.1-0.4,1.7c-0.1,0.6,0,1.1,0.3,1.6c0.3,0.6,0.8,1,1.4,1.2c0.4,0.2,0.9,0.3,1.4,0.2
		c0.4-0.1,0.8-0.3,1.1-0.6c0.4-0.3,0.7-0.6,0.9-1c0.2-0.3,0.4-0.7,0.6-1.1l0.2-0.5c0.6-1.3,1.6-2.5,2.7-3.5c1.1-0.9,2.5-1.7,3.9-2.1
		c1.5-0.5,3-0.6,4.5-0.5c1.6,0.1,3.2,0.5,4.7,1.3C499.2,365.7,500.5,366.6,501.7,367.8L501.7,367.8z"/>
</g>
<path class="st1" d="M17,269.2c-0.1-5,1.9-9.7,5.5-13.2c3.5-3.5,8.3-5.5,13.2-5.4c10.3,0.3,18.4,8.8,18.2,19.2
	c-0.3,10-8.3,18-18.3,18.2c-5,0.1-9.7-1.9-13.2-5.5C18.9,279,16.9,274.2,17,269.2L17,269.2z"/>
<path class="st1" d="M489.7,269.2c-0.1-5,1.9-9.7,5.5-13.2c3.5-3.5,8.3-5.5,13.2-5.4c10.3,0,18.6,8.4,18.6,18.7
	c0,10.3-8.4,18.6-18.7,18.6c-4.9,0-9.7-2-13.2-5.5C491.6,279,489.6,274.2,489.7,269.2L489.7,269.2z"/>
<path class="st0" d="M155.3,222.9l9.7,94.5l105.2,102l105.2-102l9.6-94.5h-24.3l44.7-67.6l-67.6,80.5l35.8-0.4l-7.5,74.8l-95.9,99.5
	l-95.9-99.5l-7.5-74.8l35.8,0.4l-67.6-80.5l44.7,67.6H155.3z"/>
<path class="st0" d="M380.7,220l16.5,2.1L386.1,327L270.2,430L154.2,327l-11.1-104.8l16.5-2.1l-31.8-57.6l13.9,169.9l128.4,108.4
	l128.4-108.4l14-169.9L380.7,220z"/>
<path class="st0" d="M296.7,262.1l-26.5-93.9l-26.5,93.9l26.5,126.8L296.7,262.1z"/>
</svg>
