<?xml version="1.0" encoding="UTF-8"?>
<svg xmlns="http://www.w3.org/2000/svg" version="1.1" viewBox="0 0 566.9 566.9">
  <!-- Generator: Adobe Illustrator 29.0.1, SVG Export Plug-In . SVG Version: 2.1.0 Build 192)  -->
  <defs>
    <style>
      .st0 {
        fill: #fff;
      }

      .st1 {
        fill: #954b97;
      }

      .st2 {
        fill: #010101;
      }
    </style>
  </defs>
  <g id="Capa_1">
    <circle class="st1" cx="283.5" cy="283.5" r="278.7"/>
  </g>
  <g id="Capa_2">
    <g>
      <path class="st2" d="M426.8,426.8c-38.3,38.3-89.2,59.4-143.3,59.4s-105-21.1-143.3-59.4c-38.3-38.3-59.4-89.2-59.4-143.3s.4-14.5,1.1-21.7l-75.5-8.1c-1,9.8-1.6,19.7-1.6,29.8,0,153.9,124.8,278.7,278.7,278.7s211.3-68,254.7-165.4l-71.1-27.1c-9.9,21-23.4,40.3-40.3,57.2ZM25,346.3c0-13.2,10.7-23.8,23.8-23.8s23.8,10.7,23.8,23.8-10.7,23.8-23.8,23.8-23.8-10.7-23.8-23.8ZM84.7,445.4c-13.2,0-23.8-10.7-23.8-23.8s10.7-23.8,23.8-23.8,23.8,10.7,23.8,23.8-10.7,23.8-23.8,23.8Z"/>
      <path class="st2" d="M89.2,225.4l-71.1-27.1c-3,9.4-5.5,19.1-7.6,28.9l74.3,15.7c1.2-5.9,2.7-11.8,4.4-17.5Z"/>
      <path class="st2" d="M283.5,4.8c-113.4,0-210.9,67.7-254.4,164.8l70.7,28c9.9-21.1,23.4-40.5,40.4-57.5,38.3-38.3,89.2-59.4,143.3-59.4s105,21.1,143.3,59.4c38.3,38.3,59.4,89.2,59.4,143.3s-.4,14.4-1.1,21.5l75.6,8.1c1-9.7,1.6-19.6,1.6-29.6,0-153.9-124.8-278.7-278.7-278.7ZM462.3,146c0-13.2,10.7-23.8,23.8-23.8s23.8,10.7,23.8,23.8-10.7,23.8-23.8,23.8-23.8-10.7-23.8-23.8ZM516.6,245.4c-13.2,0-23.8-10.7-23.8-23.8s10.7-23.8,23.8-23.8,23.8,10.7,23.8,23.8-10.7,23.8-23.8,23.8Z"/>
      <path class="st2" d="M476.1,346.8l70.7,28c3.6-10.4,6.6-21.2,9-32.1l-74.3-15.7c-1.5,6.7-3.3,13.3-5.4,19.9Z"/>
    </g>
    <g>
      <path class="st0" d="M122.4,101.3l-11.5,9.6-4.5-5.4-1.9-2.3,30.6-25.7,3.2,3.8-.6,7-7.6,6.4,19.3,23-7.6,6.4-19.3-23Z"/>
      <path class="st0" d="M160.9,103.2l-.7-1.3,6.1-20.3-20.3-6.1-2.4-4.4,8.8-4.7,20.3,6.1,13.2-7.1,4.7,8.8-13.2,7.1-2,6.8,17.6-9.5,6.8,2,2.4,4.4-39.6,21.3-1.7-3.1ZM156.8,64l26.4-14.2,2.4,4.4-2,6.8-13.2,7.1-13.5-4.1Z"/>
      <path class="st0" d="M203.2,80.3l-.4-1.4,24.1-43.2,9.6-2.7,10.9,38.5-9.6,2.7-1.4-4.8-14.4,4.1,6.9-12.3,4.8-1.4-2.7-9.6-17.2,30.9-9.6,2.7-1-3.4Z"/>
      <path class="st0" d="M248.9,34.3v-3.5s0-1.5,0-1.5h10c0-.1,35.4,34.4,35.4,34.4v5c0,0-9.9.1-9.9.1l-35.4-34.5ZM249.1,48.3v-9c-.1,0,10,9.9,10,9.9l.3,20h-10c0,.1-.3-20.9-.3-20.9ZM268.9,34.1v-5c0,0,9.9-.1,9.9-.1l35.4,34.5v5c0,0-9.9.1-9.9.1l-35.4-34.5Z"/>
      <path class="st0" d="M321.2,48.7l.6-2.9,29.3,6.5-2.2,9.8-29.3-6.5,1.5-6.8Z"/>
      <path class="st0" d="M349.9,73.2l.6-1.4,46-18.3,9.2,4-15.8,36.7-9.2-4,2-4.6-13.8-5.9,13.1-5.2,4.6,2,4-9.2-32.8,13.1-9.2-4,1.4-3.2Z"/>
    </g>
    <g>
      <path class="st0" d="M177.1,514.5l13.9,5.5,13-5.6-5.6-13-13.9-5.5-5.6,13.9-13,5.6,9.1-22.8,3.9-9.8,27.8,11.1,8.4,19.5-3.7,9.3-19.5,8.4-27.8-11.1,13-5.6Z"/>
      <path class="st0" d="M218.6,511.8l2.2-11.8,8,11.7-5.5,29.5-9.8-1.8,5.1-27.5ZM235.9,528.3l-4.9-.9,1.8-9.8,9.8,1.8,5.8-4-14.7-2.7-8-11.7,39.3,7.3-1.8,9.8-11.6,8h0c-.5.3-1.4,1-2.9,2l10,14.6-.9,4.9-9.8-1.8-12-17.5Z"/>
      <path class="st0" d="M265.7,545.1v-1.5s34.5-35.5,34.5-35.5h10c0-.1.5,39.9.5,39.9h-10c0,.1,0-4.9,0-4.9l-15,.2,9.9-10.1h5c0,0-.1-10.1-.1-10.1l-24.6,25.3h-10c0,.1,0-3.4,0-3.4Z"/>
      <path class="st0" d="M312.9,520.1l-2.5-11.7,9.8-2.1,8.4,39.1-9.8,2.1-5.9-27.4ZM329.2,524.8l15.4-23.7,9.8-2.1,1,4.9-11.5,17.8,17.8,11.5,1,4.9-9.8,2.1-23.7-15.4Z"/>
      <path class="st0" d="M359.6,509.1l-4-11.3,9.4-3.3,13.2,37.7-9.4,3.3-9.3-26.4Z"/>
      <path class="st0" d="M373.9,509l-4.7-9.4,2.2-6.7,35.7-17.9-4.4,13.4-22.3,11.2,9,17.9-4.4,13.4-11-21.9ZM393.8,515.2l17.8-9-6.7-13.4,4.4-13.4,13.5,26.8-2.2,6.7-31.2,15.7,4.4-13.4Z"/>
      <path class="st0" d="M427.9,501.2l-1.9-2.4,19.6-15.5-35.1-4.2-3.1-3.9,7.8-6.2,49.1,5.8,3.1,3.9-35.3,27.8-4.3-5.5ZM419.2,466l23.5-18.6,6.2,7.9-15.7,12.4-14-1.7Z"/>
    </g>
    <g>
      <path class="st2" d="M273.1,315.7c-6.8-5.9-14.9-13-21.3-18.6v-30.8c.7-.4,1.3-.9,2-1.3,9.2,10,18.4,20,29.7,32.2,11.2-12.2,20.5-22.2,29.7-32.2.7.4,1.3.9,2,1.3v30.8c-6.4,5.6-14.5,12.7-21.3,18.6v28.9c13.9-14.2,27.7-28.2,42.9-43.6v-87.2c-17.9,18.7-34.8,36.2-52.6,54.8-.2-.2-.4-.4-.6-.6-.2.2-.4.4-.6.6-17.8-18.6-34.7-36.2-52.6-54.8v87.2c15.2,15.4,28.9,29.4,42.9,43.6v-28.9Z"/>
      <path class="st2" d="M208.5,153.6c-14.4,14.3-28.2,28.2-42.6,42.5v25.8c14.3-14.2,28.3-28.2,42.6-42.5v-25.9Z"/>
      <path class="st2" d="M208.3,214.8c-11.5,11.3-22.6,22.1-32.3,31.6,10.8,11,21.6,22,32.3,33v-64.5Z"/>
      <path class="st2" d="M208.1,109.9c-13.7,13.5-27.8,27.3-42.4,41.8v8.7c13.7-13.7,27.6-27.7,42.4-42.5v-7.9Z"/>
      <path class="st2" d="M369.3,302.5v13.7c-14.8,15-28.5,28.8-42.3,42.7-2.3-3.1.1-7.2-1.3-9.8-10.1,10.2-20.3,20.6-32.1,32.5v57.4c-3.3,3.5-6.6,6.9-10.1,10.5-3.5-3.6-6.8-7.1-10.1-10.5v-57.4c-11.8-11.9-22-22.3-32.1-32.5-1.5,2.6.9,6.7-1.3,9.8-13.8-13.9-27.4-27.7-42.3-42.7v-13.7c-.6.4-1.2.8-1.8,1.2-2.5-3.4-5.1-6.8-8.5-11.5v31.2c20.9,20.4,42.6,41.7,63.5,62.2v30.1c-1.3.9-2.5,1.9-3.8,2.8-5.6-6.7-11.1-13.4-16.8-20.2v25.1c18.8,18.8,36.3,36.3,53.2,53.2,16.9-16.9,34.4-34.4,53.2-53.2v-25.1c-5.7,6.9-11.2,13.5-16.8,20.2-1.3-.9-2.5-1.9-3.8-2.8v-30.1c20.9-20.4,42.7-41.7,63.5-62.2v-31.2c-3.4,4.7-6,8.1-8.5,11.5-.6-.4-1.2-.8-1.8-1.2Z"/>
      <path class="st2" d="M358.5,179.6c14.3,14.2,28.3,28.2,42.6,42.5v-25.8c-14.4-14.4-28.2-28.2-42.6-42.5v25.9Z"/>
      <path class="st2" d="M358.6,279.3c10.7-10.9,21.5-22,32.3-33-9.7-9.5-20.8-20.3-32.3-31.6v64.5Z"/>
      <path class="st2" d="M358.8,109.9v7.9c14.8,14.8,28.8,28.8,42.4,42.5v-8.7c-14.7-14.4-28.7-28.3-42.4-41.8Z"/>
    </g>
  </g>
</svg>