<svg enable-background="new 0 0 113.4 113.4" viewBox="0 0 113.4 113.4" xmlns="http://www.w3.org/2000/svg"><path d="m56.7.5c-31 0-56.1 25.2-56.1 56.2s25.2 56.1 56.1 56.1c31 0 56.2-25.2 56.2-56.1-.1-31-25.3-56.2-56.2-56.2z" fill="#fff"/><path d="m56.7 2.2c-30 0-54.4 24.4-54.4 54.4s24.4 54.4 54.4 54.4 54.4-24.4 54.4-54.4c0-29.9-24.4-54.4-54.4-54.4z" fill="#5d5d5d"/><path d="m56.7 0c-31.3 0-56.7 25.4-56.7 56.7s25.4 56.7 56.7 56.7 56.7-25.4 56.7-56.7-25.5-56.7-56.7-56.7zm0 112.2c-30.6 0-55.5-24.9-55.5-55.5s24.9-55.5 55.5-55.5 55.5 24.9 55.5 55.5-24.9 55.5-55.5 55.5z" fill="#5d5d5d"/><circle cx="56.7" cy="56.7" fill="#e4bb38" r="44.2"/><circle cx="56.7" cy="56.7" fill="#bbbb83" r="42.5"/><g fill="#fff"><path d="m12.3 41.7-.8 1.8-5.7-2.6 2.6-5.7c.5-1.2 1.3-1.5 2.4-1.1l2.6 1.2c1.1.5 1.3 1.3.8 2.5l-1.4 3.2h-1.7l1.3-3c .2-.5.2-.9-.2-1.1l-1.8-.8c-.4-.2-.7 0-1 .5l-1.4 3.2z"/><path d="m15.5 30.3c.3-.4.2-.7 0-.9l-.1-.1c-.3-.2-.6-.1-.8.3l-1.4 2 3.2 2.1-.9 1.3-4.2-2.8 2.6-3.9c.6-.9 1.3-1 2-.5l.9.6c.3.2.4.4.4.7.2-.1.5-.1.8.1l1 .7-.9 1.3-.7-.5c-.3-.2-.6-.1-.8.3l-1 1.4-1.3-.3z"/><path d="m18.8 22.5 1.1-1.1 2.7 2.5c.7.6.7 1.3 0 2.1l-2 2.2c-.7.8-1.4.8-2.1.2l-2.8-2.6 1.1-1.1 2.4 2.2c.3.2.5.2.9-.2l1.1-1.1c.3-.3.3-.6.1-.9z"/><path d="m25.4 16.6.8.9-.9 4.1 1.3-1.1c.8-.7 1.5-.7 2 0l-4.4 3.6-.8-.9 1.2-4.3-2.8 2.3-.8-.9z"/><path d="m27.5 15.2 3.7-2.3.6 1-3.3 2 1.4 2.2 3.3-2 .6 1-3.7 2.3c-.6.4-1.1.2-1.4-.3l-1.5-2.5c-.4-.6-.3-1.1.3-1.4zm4-.2 1.1.8-2.4 1.4-1.1-.8z"/><path d="m38.6 8.2 3.5-1.1c1.2-.4 2-.1 2.3.9l-4.6 1.4c-.5.2-.8.4-.7.7.1.2.4.2.9.1l2.8-.6c1.3-.2 2.1.1 2.4 1.1l.1.3c.3 1.1-.1 1.8-1.4 2.2l-3.5 1.1c-1.2.4-2 .1-2.3-.9l4.8-1.5c.4-.1.6-.3.5-.6-.1-.2-.3-.2-.7-.1l-3 .7c-1.3.2-2.1-.1-2.4-1.1l-.1-.3c-.3-1.2.1-1.9 1.4-2.3z"/><path d="m46.2 7.3 1.5-.2.7 5-1.6.2zm6.2-.8.7 5-1.5.2-.4-1.9-2.4.3-.7-1.1 2.9-.4-.2-1.9z"/><path d="m55.5 6.4 3.5.1c1 0 1.6.5 1.5 1.4v2.3c0 .9-.5 1.4-1.6 1.4l-3.5-.1c-1 0-1.5-.5-1.5-1.4v-2.3c.1-1 .6-1.5 1.6-1.4zm0 1.7v1.6c0 .3.2.5.7.5h2.1c.5 0 .7-.2.7-.5v-1.6c0-.3-.2-.5-.7-.5h-2.1c-.5 0-.7.1-.7.5z"/><path d="m67.5 11.4c-.2.8-.8 1.1-1.7.9l-2.9-.5c-1-.2-1.5-.7-1.3-1.6l.4-2.2c.2-.9.8-1.3 1.8-1.1l2.9.5c1 .2 1.5.7 1.3 1.4l-3.8-.6c-.5-.1-.7.1-.8.4l-.3 1.5c-.1.3.1.5.6.6z"/><path d="m71.2 8.4-.5 1.6.7.2 2.4-1.1 1.8.6-3.1 1.6 1.8 3.3-1.8-.6-2-3.4-.8 2.5-1.5-.5 1.6-4.8z"/><path d="m83.4 14.2 1.4 1.4-2.2 3.5-1.6-1zm-1.3-2.8 6 3.8-.8 1.3-6-3.8z"/><path d="m89.7 18.1 3.3 2.9-.8.9-2.9-2.5-1.7 2 2.9 2.5-.8.9-3.3-2.9c-.5-.5-.6-.9-.1-1.5l1.9-2.2c.5-.6 1-.6 1.5-.1zm1.4 3.7-.4 1.3-2.1-1.8.4-1.3z"/><path d="m94.5 26.8.6-1.5-3.9.8-1-1.2 5.5-1.3 1.1 1.3-2.1 5.2-1-1.2.3-.9-1-1.2.6-1.2z"/><path d="m98.9 32.9 2.9.1c.4 0 .7.2 1 .6l.7 1.2-4.3 2.6-.8-1.3 2.8-1.7-3.9-.1-.4-.6 1.7-3.5-2.8 1.7-.8-1.3 4.3-2.6.7 1.2c.2.4.3.8.1 1.2z"/><path d="m104.8 37.8 1.1 2.7c.4 1 .2 1.6-.6 1.9l-1.4-3.5c-.2-.4-.4-.6-.6-.5-.2.1-.2.3 0 .7l.7 2.2c.3 1 0 1.7-.7 2l-.2.1c-.9.3-1.5 0-1.9-.9l-1.1-2.7c-.4-1-.2-1.6.6-1.9l1.5 3.7c.1.3.3.4.5.4.2-.1.2-.3 0-.6l-.7-2.3c-.3-1 0-1.7.7-2l .2-.1c.9-.5 1.5-.2 1.9.8z"/><path d="m8.5 64.9-2.3 1.5 2.7.5.2 1.1-3.7-.7-.2-.7c-.1-.4 0-.7.2-.8l1.6-1.1-2.3-.4-.2-.8c-.1-.4 0-.6.2-.7l2.8-1.9.2 1.1-2.2 1.6 2.7.4z"/><path d="m8.9 69 .8 2.3-.6.2-.7-2-1.4.5.7 2-.6.2-.8-2.3c-.1-.4 0-.6.4-.7l1.6-.5c.2-.2.5-.1.6.3zm-.4 2.2-.5.5-.5-1.5.5-.5z"/><path d="m10.2 76.8.5-.7-2.2-.1-.4-.8 3.1.1.4.9-1.8 2.4-.4-.8.3-.4-.4-.8.5-.6z"/><path d="m12.4 80.4c.1.2.3.3.4.2h.1c.2-.1.2-.3.1-.5l-.7-1.3-1.8 1.1-.4-.8 2.4-1.4 1.3 2.3c.3.5.2.9-.2 1.1l-.5.3c-.2.1-.3.1-.4 0 0 .1-.1.3-.2.4l-.7.4-.4-.8.4-.2c.2-.1.2-.3.1-.5l-.5-.8.4-.6z"/><path d="m14.8 81.7 1.4 2-.6.4-1.2-1.7-1.2.8 1.2 1.7-.6.4-1.4-2c-.2-.3-.2-.6.2-.8l1.4-.9c.3-.3.6-.2.8.1zm.2 2.2-.4.6-.9-1.3.4-.6z"/><path d="m18 86.1 1.6 1.8c.4.4.4.8 0 1.2l-.2.2c-.1 0-.1.1-.2.1 0 .2 0 .4-.2.6l-.2.2c-.3.3-.7.2-1-.2l-1.8-2zm .5 2.2c.2.2.3.2.4.2.1-.1.1-.2-.1-.4l-.8-.9-1.1 1 .9 1c .2.2.3.2.4.2.1-.1.1-.2-.1-.4l-.6-.7.3-.7z"/><path d="m21.1 91.8.2-.8-2.1.7-.6-.6 3-1 .7.7-.9 3-.6-.6.1-.5-.6-.6.3-.7z"/><path d="m22.5 94.6-.7-.5 1.8-2.2 2.2 1.8c.4.4.5.7.2 1.1l-.8 1c-.3.4-.7.4-1.2.1l-1.2-1 .2-.7 1.1.9c.2.2.4.2.5 0l .5-.7c.1-.1.1-.3-.1-.5l-1.2-1z"/><path d="m31.1 97.4c.5.3.6.7.3 1.1l-.3.5c-.2.4-.6.4-1 .2l-1.2-.7.1-.7 1.1.7c.2.1.4.1.5 0v-.1c.1-.2 0-.3-.2-.4l-1.1-.7-1.1 1.8-.7-.5 1.5-2.4z"/><path d="m32.8 98.3 2.1 1.1-.3.6-1.9-1-.7 1.3 1.9 1-.3.6-2.1-1.1c-.3-.2-.4-.4-.2-.8l.7-1.5c.2-.2.5-.3.8-.2zm1.2 1.9-.1.7-1.4-.7.1-.7z"/><path d="m36.2 100 1.8.7c.5.2.7.6.5 1l-.5 1.2c-.2.5-.6.6-1.1.4l-1.8-.7c-.5-.2-.7-.6-.5-1l .5-1.2c.2-.5.6-.6 1.1-.4zm-.3.9-.3.8c-.1.2 0 .3.2.4l1.1.4c.2.1.4.1.5-.1l.3-.8c.1-.2 0-.3-.2-.4l-1.1-.4c-.3-.1-.5 0-.5.1z"/><path d="m41.8 102.1c.5.2.7.5.6 1l-.2.5c-.1.4-.5.6-1 .4l-1.3-.4-.1-.7 1.2.4c.2.1.4 0 .5-.2v-.1c.1-.2 0-.3-.3-.4l-1.3-.4-.7 2-.8-.3.9-2.7z"/><path d="m44 102.8-.5 2.1 2.1.5-.2.7-2.3-.6c-.4-.1-.5-.3-.4-.7l.5-2.2z"/><path d="m47.1 103.5 2.4.4-.1.7-2.1-.4-.2 1.4 2.1.4-.1.7-2.4-.4c-.4-.1-.5-.3-.5-.7l.3-1.6c0-.4.3-.6.6-.5zm1.8 1.4.2.7-1.5-.3-.2-.7z"/><path d="m50 106.8h-.2l.1-.8 1.1.1-.1.8c-.1.5-.4.7-.9.6z"/><path d="m54.3 104.4h2.4c.6 0 .9.3.9.8v.3c0 .1 0 .1-.1.2.2.1.3.3.3.6v.3c0 .4-.3.7-.8.7h-2.7zm2 1.1c.3 0 .4-.1.4-.2s-.1-.2-.4-.2h-1.2v1.4h1.3c.3 0 .4-.1.4-.2s-.1-.2-.4-.2h-1l-.3-.7z"/><path d="m60.8 104.2.9-.1.1 2c0 .5-.2.8-.8.8l-1.6.1c-.6 0-.9-.2-.9-.7l-.1-2 .9-.1.1 1.8c0 .2.1.3.4.3l.9-.1c.3 0 .4-.1.4-.3z"/><path d="m62.2 104.1 3.1-.5.1.7-3.1.5zm1.3.6.9.1.3 1.8-.9.1z"/><path d="m71.3 102.2 1.3 1.7.2-2.2.8-.3-.3 3-.6.2c-.3.1-.5.1-.6-.1l-1-1.2-.1 1.9-.6.2c-.3.1-.5 0-.6-.1l-1.7-2.1.8-.3 1.4 1.7.2-2.2z"/><path d="m74.5 101.1 2.2-.9.3.6-2 .8.5 1.3 2-.8.3.7-2.2.9c-.4.1-.6 0-.8-.3l-.6-1.5c-.1-.4 0-.6.3-.8zm2.2.3.5.5-1.4.6-.5-.5z"/><path d="m83.5 99.1c.2.4.1.7-.4 1l-1.4.8c-.5.3-.9.2-1.1-.2l-.6-1.1c-.3-.4-.1-.8.4-1.1l1.4-.8c.5-.3.9-.2 1.1.2l-1.8 1c-.2.1-.3.3-.2.4l.4.8c.1.2.3.2.5.1z"/><path d="m85.7 97.1-.8-.4.2 2.2-.7.5-.4-3.1.8-.5 2.8 1.5-.7.5-.5-.3-.7.5-.6-.4z"/><path d="m86.9 94.3c.2-.2.4-.2.7-.2l2.1.4-1.2-1.5.7-.5 1.7 2.2-.6.5c-.2.2-.4.2-.7.2l-2.1-.4 1.2 1.5-.7.5-1.7-2.2z"/><path d="m91.5 90.4 1.7-1.7c.4-.4.8-.5 1.2-.1l.2.2c.1 0 .1.1.1.2.2 0 .4 0 .6.2l.2.2c.3.3.3.7-.1 1.1l-1.8 1.9zm2.1-.8c.2-.2.2-.3.1-.4s-.2 0-.4.1l-.8.8 1 1 .9-1c .2-.2.2-.3.1-.4s-.2 0-.4.1l-.7.7-.7-.3z"/><path d="m94.6 87 1.5-1.9.5.4-1.3 1.6 1.1.9 1.3-1.6.5.4-1.5 1.9c-.2.3-.5.3-.8.1l-1.3-1c-.2-.2-.3-.5 0-.8zm2-.8.7.2-1 1.2-.7-.2z"/><path d="m99.5 80.1 2.1.4-1.3-1.8.4-.7 1.8 2.4-.3.5c-.2.3-.3.4-.5.3l-1.5-.3 1.1 1.5-.3.5c-.2.3-.3.4-.5.3l-2.7-.4.4-.7 2.2.3-1.3-1.7z"/><path d="m101.3 76.9.8-1.7c.2-.5.6-.7 1.1-.5l1.1.5c.5.2.6.6.3 1.1l-.8 1.7c-.2.5-.6.7-1.1.5l-1.1-.5c-.4-.2-.5-.6-.3-1.1zm.9.4.8.4c.2.1.3 0 .4-.2l.5-1c .1-.2.1-.4-.1-.5l-.8-.4c-.2-.1-.3 0-.4.2l-.5 1c-.1.2-.1.4.1.5z"/><path d="m104.8 72.2c.1-.2 0-.4-.1-.5h-.1c-.2-.1-.3 0-.4.3l-.5 1.3 2 .7-.3.8-2.6-1 .9-2.4c.2-.5.5-.7 1-.5l.5.2c.2.1.3.2.3.3.1-.1.2-.1.4 0l .6.2-.3.8-.5-.2c-.2-.1-.3 0-.4.3l-.3.9h-.7z"/><path d="m104.4 69.2.5-1.6c.2-.6.5-.8.9-.6l-.6 2c-.1.2 0 .4.1.4.1 0 .2-.1.2-.3l.4-1.2c.2-.5.5-.7 1-.6h.1c.5.1.7.5.5 1l-.5 1.6c-.2.6-.5.8-.9.6l.6-2.1c.1-.2 0-.3-.1-.3s-.2.1-.2.2l-.5 1.3c-.2.5-.5.7-1 .6h-.1c-.4-.1-.6-.4-.4-1z"/><path d="m105.4 65.7.5-2.4.7.1-.4 2.1 1.4.3.4-2.1.7.1-.5 2.4c-.1.4-.3.5-.7.4l-1.6-.3c-.5.1-.6-.2-.5-.6zm1.4-1.6.7-.1-.3 1.5-.7.1z"/></g><path d="m30.8 44.6c-.8 0-1.5 0-2.3 0-.4 0-.6.2-.8.4-.6 1-1.2 2.1-1.9 3-.8 1.1-.7 2.3-.3 3.5.8 2 1.8 3.9 2.9 5.8.4.6.4.5-.2 1-1.3 1.2-2.6 2.3-3.9 3.5-.2.2-.4.2-.6 0-.8-.9-1.7-1.7-2.5-2.6-.2-.2-.3-.5-.4-.8-.5-2.1-.9-4.2-1.5-6.3-.2-.9-.2-1.8-.1-2.8 0-.2.1-.4.1-.7 0-.9.4-1.6.8-2.3 2.9-4.8 5.8-9.6 8.6-14.4.9-1.5 2-2.6 3.4-3.6.8-.6 1.6-1 2.5-1.5.4-.3.9-.5 1.3-.7 1-.6 2.1-1 3.3-1.4 2.3-.7 4.5-1.3 6.8-1.7.9-.1 1.9-.2 2.8-.2.7-.1 1.4-.1 2.1-.1.4 0 .7.1 1.1.1.5.1.8.5.7 1.1-.1.3-.1.5-.2.8 0 .2-.1.3-.1.5-.4 1.2-.7 2.5-1 3.7v.5c.8 3.2 1.3 6.4 1.9 9.6.5 3.1.8 6.1 1.1 9.2.1.8.3 1.6.3 2.4.1.8.1 1.6.1 2.5v5.3c0 1 .1 1.9.1 2.9 0 .6-.2 1.1-.5 1.5-.6.9-1.3 1.9-1.9 2.8s-1.1 1.7-1.7 2.6c-.5.7-.4 1.2.1 1.9.4.5.8 1.2 1.1 1.8.1.2.1.5 0 .8s-.3.6-.4.9c-.1.2-.2.3-.4.1-1.2-1-2.3-1.9-3.5-2.9-.4-.3-.8-.5-1.3-.6-1.2-.1-2.3-.1-3.5 0-.6.1-1.2 0-1.8 0-1.8.1-3.5.3-5.3.4-.7 0-1.4.1-2 .6-.1.1-.3.1-.4-.1-1.3-2.2-3.3-3.6-5.3-4.9-.5-.3-1-.7-1.4-1.1-.1-.2-.2-.3 0-.4 1.3-1.4 2.6-2.8 3.9-4.2.1-.1.3-.1.5-.1.1 0 .2 0 .3.1 1.3.5 2.7 1.1 4 1.6.8.3 1.6.6 2.3.8.6.2 1.1.3 1.7.5 1.2.4 2.4.4 3.5 0 .7-.2 1.3-.5 2-.8.2-.1.3-.2.4-.4.3-.7.5-1.4.8-2.1.1-.4.1-.7-.2-1-1.8-2.3-3.7-4.6-5.7-6.7-1.8-1.8-3.6-3.6-5.4-5.4-.5-.6-1.1-1.1-1.6-1.6-.1-.1-.4-.3-.6-.3-.8 0-1.5 0-2.3 0 .5-.5.5-.5.5-.5z" fill="#5d5d5d"/><path d="m62.7 22.6c.5.1 1.1.1 1.8.2.6.1 1.1.1 1.7.1 1.9.1 3.6.6 5.4 1.1 1.1.3 2.1.6 3.2.9.6.2 1.1.4 1.6.7 1.2.6 2.3 1.2 3.4 1.9 1.8 1.1 3.3 2.6 4.4 4.5 2.2 3.8 4.5 7.5 6.8 11.3.8 1.3 1.5 2.5 2.3 3.8.2.3.3.6.3.9.1.8.2 1.6.3 2.5 0 .3 0 .6-.1.9-.5 2.1-1 4.3-1.5 6.4-.1.5-.3.9-.6 1.3-.7.9-1.6 1.8-2.3 2.6-.2.2-.4.2-.6 0-1.4-1.2-2.7-2.5-4.1-3.7-.2-.2-.2-.4 0-.6.8-1.5 1.6-3 2.4-4.6.4-.7.6-1.5.9-2.2.2-.7.2-1.4-.1-2-.6-1.2-1.1-2.4-1.9-3.4-.4-.5-.8-.8-1.6-.8-1.1.1-2.2.1-3.4 0-.7 0-1.2.2-1.6.8-.3.4-.8.7-1.2 1.1-3.8 3.8-7.4 7.4-10.5 11.5-.3.3-.5.7-.8 1s-.3.7-.2 1.1c.3.7.5 1.5.8 2.2.1.1.2.3.3.4 1 .5 1.9 1 3 1.1.8.1 1.5.1 2.3-.2 1-.3 2-.6 2.9-.9.3-.1.5-.2.8-.3.9-.4 1.8-.7 2.7-1.1.6-.3 1.3-.5 1.9-.8.3-.1.5-.1.7.2 1.2 1.4 2.5 2.7 3.8 4.1.2.2.2.3 0 .5-.3.3-.6.5-.9.7-1.4.9-2.8 1.8-3.9 2.9-.6.7-1.2 1.4-1.7 2.1-.2.2-.3.3-.5.1-.4-.4-1-.5-1.5-.5-1.6 0-3.2-.2-4.8-.4-.2 0-.5 0-.7 0-1.4 0-2.8-.1-4.2-.1-.5 0-1 0-1.5.1-.3 0-.6.2-.8.4-1.2 1-2.4 2-3.7 2.9-.3.3-.3.3-.5-.1 0-.1-.1-.2-.1-.3-.4-.5-.3-1 0-1.5s.6-1 1-1.5c.5-.7.5-1.1.1-1.8-.9-1.4-1.8-2.7-2.7-4-.5-.7-.9-1.4-1.3-2.1-.1-.2-.1-.4-.1-.6 0-1.7.1-3.4.2-5.1 0-.9 0-1.8 0-2.7 0-1.4.1-2.8.2-4.2.2-1.7.4-3.5.6-5.2.3-2.1.5-4.2.9-6.3.5-2.6 1-5.3 1.5-7.9.2-.8.2-1.6-.1-2.3-.2-.5-.3-1-.4-1.5 0-.2-.1-.4-.2-.5-.4-.7-.4-1.4-.5-2.1-.1-.4.3-.8.8-.8.4-.2.9-.2 1.6-.2z" fill="#5d5d5d"/><path d="m68 71.7c.1.6.2 1.2.2 1.8v3.8 6.7c0 .4-.1.7-.5 1-1.1.8-1.9 1.8-2.7 2.8-.7 1-1.6 1.8-2.4 2.8-.2.2-.4.1-.5 0-.6-.6-1.2-1.2-1.9-1.8-.2-.2-.5-.3-.8-.4-.2-.1-.3-.1-.3-.3s0-.4 0-.6c0-2.7 0-5.4 0-8.1 0-.3.1-.6.4-.8 1.7-1.3 3.4-2.7 5.1-4 .6-.5 1.1-1.1 1.7-1.7.4-.4.8-.7 1.2-1 .2-.1.3-.1.5-.2z" fill="#5d5d5d"/><path d="m44.9 79.3c0-1.5 0-3 0-4.4 0-.9.2-1.9.3-2.8 0-.3.2-.3.4-.2.5.4 1.1.8 1.5 1.3.9 1 1.9 1.8 2.9 2.6 1.2.9 2.4 1.9 3.6 2.8.2.2.3.4.3.7v3.9 4.6c0 .3-.1.5-.4.6-.2 0-.5.2-.6.4-.6.6-1.2 1.2-1.9 1.8-.3.3-.4.3-.6 0-1-1.1-1.9-2.2-2.8-3.4-.7-.9-1.4-1.7-2.3-2.3-.3-.2-.4-.4-.4-.7 0-1.7 0-3.3 0-4.9z" fill="#5d5d5d"/><path d="m71 83.1c0-.1 0-.3 0-.4 0-2.9 0-5.9 0-8.8 0-.6 0-1.2 0-1.8 0-.3.1-.3.4-.3 1.4.1 2.9.3 4.2.9.6.2 1.2.5 1.9.8.3.1.3.3.2.5-.4.9-.4 1.8-.4 2.8 0 .8-.1 1.6-.1 2.4 0 .1-.1.3-.2.3-1.7 1.5-3.6 2.7-5.7 3.5-.1 0-.1.1-.2.1 0 0 0 0-.1 0z" fill="#5d5d5d"/><path d="m42.2 83.1c-.2-.1-.3-.1-.5-.2-1.7-.8-3.4-1.6-4.8-2.8-.5-.4-.8-.8-.8-1.5 0-1 0-2.1-.1-3.1 0-.5-.2-.9-.3-1.3s-.1-.5.3-.6c1.9-.9 3.9-1.5 6-1.6.3 0 .4.1.4.4v1.9 3.3c-.2 1.7-.2 3.6-.2 5.5z" fill="#5d5d5d"/></svg>