<svg enable-background="new 0 0 113.4 113.3" viewBox="0 0 113.4 113.3" xmlns="http://www.w3.org/2000/svg"><circle cx="57" cy="56.8" fill="#fae500" r="55.7"/><path d="m56.7 113.3c-31.5 0-56.7-25.3-56.7-56.8 0-31.4 25.4-56.6 57-56.5 31.2 0 56.4 25.5 56.4 57 0 31-25.4 56.3-56.7 56.3zm-54.6-56.8c0 30 24.4 54.6 54.5 54.7s54.7-24.4 54.8-54.5-24.4-54.7-54.5-54.7c-30.2-.1-54.8 24.5-54.8 54.5z" fill="#28221f"/><path d="m62.2 70.5c-1.3 8.7-2.7 17.5-4 26.2-.1 0-.1 0-.2 0 0-.4 0-.9 0-1.3 0-25 0-50 0-74.9 0-.3 0-.7.1-1h .1c1.8 9 3.5 18 5.3 27 .1.7.3 1.3.4 2 .2 1.9 1.1 3.8.7 5.8-.8 5.4-1.6 10.8-2.4 16.2z" fill="#070804"/><path d="m49.7 45.3c1.7-8.6 3.3-17.2 5-25.8h.1c0 .4.1.9.1 1.3v74.4 1.5c-.1 0-.1 0-.2 0-1.3-8.8-2.7-17.5-4-26.3-.6-4.3-1.3-8.5-1.9-12.8-.2-1.7-.8-3.4-.6-5.1.5-2.3 1-4.8 1.5-7.2z" fill="#070804"/><path d="m40.8 65.4c-3 6.1-6 12.2-9.1 18.2-.1.2-.2.4-.3.6-.1-.1-.1-.2-.2-.3 0-.2 0-.4 0-.5 1.5-4.4 2.9-8.8 4.4-13.2 5.5-16.2 11-32.3 16.5-48.5.2-.6.4-1.2.6-1.9.7.5.4 1 .3 1.4-1.9 10-3.9 20-5.8 29.9v.5c-.3 1.2-.8 2.2-1.3 3.3-.7 1.3-1.3 2.7-1.9 4-.4.5-.7 1.2-.9 1.8-.8 1.6-1.6 3.1-2.3 4.7z" fill="#17170a"/><path d="m81.5 84.2c-3-6.1-6-12.2-9.1-18.2-.1-.2-.2-.4-.3-.5-.8-1.6-1.5-3.1-2.3-4.7-.3-.6-.6-1.2-.9-1.7-.9-2.5-2.6-4.7-3.2-7.3-1-5.2-2-10.4-3-15.7-1-5-2-10-2.9-15-.1-.3-.2-.7.1-.9.6 0 .5.4.6.7 4.3 12.7 8.6 25.3 12.9 38 2.7 8 5.4 16 8.1 24 .1.2.1.4.1.6s0 .4 0 .5c0 0 0 .1-.1.2z" fill="#17170a"/><path d="m45.1 14.5c.8 3.9 1.5 7.7 2.3 11.6-.7.8-1.4 1.8-2.2 2.8-.7-.7-1.3-1.4-2-2.2-3.5 2.7-7 5.4-10.7 8.1-.5-2-.5-3.9-1.3-5.9 4.7-4.8 9.2-9.5 13.9-14.4z" fill="#070804"/><path d="m67.7 14.5c4.7 4.9 9.2 9.6 13.7 14.4-.6 1.8-.7 3.6-1.2 5.6-3.4-2.6-6.8-5.2-10.2-7.7-.8.8-1.5 1.6-2.2 2.5-.9-1.1-1.7-2.1-2.5-3 .9-4.1 1.6-7.8 2.4-11.8z" fill="#070804"/><path d="m31.1 84.7c-.1.4-.3.7-.4 1.1-.2 0-.4 0-.5.1.3-.6.5-1.2.8-1.7 0 .1.1.3.1.5z" fill="#28221f"/><path d="m82 84.1c.3.5.5 1 .5 1.6-.6-.1-.6-.6-.7-1 0-.2.1-.4.2-.6z" fill="#28221f"/><path d="m30.1 85.8c.2 0 .4 0 .5-.1-.1.4-.2.8-.6 1.1-.3-.3-.1-.6.1-1z" fill="#f7e238"/><path d="m82.7 86c .1.3.4.5.1.8-.5 0-.4-.4-.4-.7.2 0 .2-.1.3-.1z" fill="#f7e238"/><path d="m54.8 19.5c-.1-.2-.1-.3-.1-.5h.1z" fill="#28221f"/><path d="m58.2 19.5c-.1-.2-.1-.3-.1-.5h.1z" fill="#28221f"/><path d="m31.1 84.7c-.1-.2-.2-.4-.2-.6 0-.1 0-.1.1-.2h.2c.1.1.1.2.2.3-.1.1-.2.3-.3.5z" fill="#17170a"/><path d="m82 84.1c-.1.2-.2.4-.2.6-.1-.2-.2-.3-.2-.5.1-.1.1-.2.2-.2s.2 0 .2.1c0-.1 0-.1 0 0z" fill="#17170a"/><g fill="#28221f"><path d="m31.2 83.9c-.1 0-.1 0-.2 0 0-.2 0-.4.2-.6z"/><path d="m81.9 83.9c-.1 0-.2 0-.2 0 0-.2 0-.4 0-.5.2.1.2.3.2.5z"/><path d="m82.7 86c-.1 0-.2.1-.3.1 0-.1 0-.3 0-.4.2.1.2.2.3.3z"/></g></svg>