<?xml version="1.0" encoding="utf-8"?>
<!-- Generator: Adobe Illustrator 23.0.1, SVG Export Plug-In . SVG Version: 6.00 Build 0)  -->
<svg version="1.1" id="Capa_1" xmlns="http://www.w3.org/2000/svg" xmlns:xlink="http://www.w3.org/1999/xlink" x="0px" y="0px"
	 viewBox="0 0 537.9 538" style="enable-background:new 0 0 537.9 538;" xml:space="preserve">
<style type="text/css">
	.st0{fill:#009FE3;}
	.st1{fill:#FFFFFF;}
</style>
<circle class="st0" cx="269.8" cy="269" r="205.3"/>
<path d="M516.9,164.6C459.2,27.7,301.5-36.5,164.6,21.1S-36.5,236.5,21.1,373.4s215.3,201.1,352.2,143.5
	c99.7-42,164.6-139.7,164.6-247.9C538,233.2,530.8,197.7,516.9,164.6z M269.8,474.3c-113.2,0-205.3-92.1-205.3-205.3
	S156.6,63.7,269.8,63.7S475.1,155.8,475.1,269S383,474.3,269.8,474.3z"/>
<g>
	<path class="st1" d="M234.1,298.1l-49.9,23.4l33-200.9L172,203.7l17.7-9.3L134.3,397l93.3-34.9L234.1,298.1z"/>
	<path class="st1" d="M270.8,78.7l-29.4,285l29.4,77.4l29.5-77.4L270.8,78.7z"/>
	<path class="st1" d="M305.5,298.1l49.9,23.4l-33-200.9l45.2,83.2l-17.7-9.3L405.3,397l-93.3-34.9L305.5,298.1z"/>
	<path class="st1" d="M131.5,442.1l4.8,3.4l-6.2,21.7l18.6-12.9l4.8,3.4l-26.2,18.1l-4.5-3.2L131.5,442.1z"/>
	<path class="st1" d="M151.2,465.1l4.8,2.9l-11.3,19l-4.8-2.9L151.2,465.1z M158.3,458.7c0.8,0.5,1.4,1.3,1.6,2.2
		c0.2,0.9,0.1,1.9-0.4,2.7c-0.5,0.8-1.3,1.4-2.2,1.6c-0.9,0.3-1.9,0.1-2.7-0.4c-0.8-0.5-1.4-1.3-1.6-2.2c-0.2-0.9-0.1-1.9,0.4-2.8
		C154.4,458.3,156.6,457.7,158.3,458.7z"/>
	<path class="st1" d="M159.8,470.3l5,2.5l-1,2c1.3-0.4,2.7-0.5,4.1-0.4c1.1,0.1,2.1,0.4,3.1,0.9c1.9,0.9,3.4,2.5,4,4.6
		c0.5,2,0.2,4.2-0.9,6l-6.6,13.1l-4.9-2.5l4.4-8.7c0.8-1.5,1.5-3.2,2-4.9c0.2-0.8,0.1-1.6-0.2-2.3c-0.4-0.7-0.9-1.3-1.6-1.6
		c-1-0.5-2.1-0.6-3.1-0.3c-1.1,0.4-2.1,1.1-2.9,2c-0.9,1.2-1.6,2.5-2.2,3.9l-4,7.9l-5-2.5L159.8,470.3z"/>
	<path class="st1" d="M198.6,492.2l-5.2,0.7c-0.4-1-1-1.9-1.7-2.7c-0.8-0.7-1.6-1.2-2.6-1.6c-1.7-0.7-3.7-0.8-5.4-0.1
		c-1.6,0.7-2.9,2.1-3.5,3.8c-0.7,1.6-0.6,3.4,0.1,5c0.8,1.6,2.2,2.8,3.9,3.4c2,0.9,4.4,0.8,6.3-0.3l3,4.4c-3.3,2-7.4,2.3-11,0.8
		c-3.6-1.4-6.1-3.5-7.3-6.5c-2.6-5.8,0-12.6,5.9-15.2c1-0.5,2.1-0.8,3.3-0.9c2.2-0.3,4.5,0,6.6,0.9c1.9,0.7,3.7,1.8,5.1,3.3
		C197.2,488.6,198.1,490.4,198.6,492.2L198.6,492.2z"/>
	<path class="st1" d="M220.8,506.7l-17.3-4.6c-0.2,1.5,0.2,2.9,1,4.2c0.9,1.2,2.3,2.1,3.8,2.5c1.9,0.5,4,0.3,5.7-0.7l4,3.3
		c-1.4,1.2-3.1,2.1-5,2.5c-2,0.3-4,0.2-5.9-0.3c-3.1-0.7-5.8-2.6-7.4-5.4c-1.6-2.7-1.9-5.8-1.1-8.8c0.7-3.1,2.6-5.7,5.3-7.3
		c2.6-1.6,5.8-2,8.8-1.1c3.1,0.7,5.8,2.7,7.4,5.4c1.6,2.9,1.9,6.3,0.9,9.4L220.8,506.7z M216.5,501c0-1.3-0.5-2.5-1.3-3.5
		c-0.9-1-2-1.8-3.3-2.1c-1.4-0.4-2.9-0.3-4.3,0.2c-1.1,0.5-2,1.3-2.7,2.3L216.5,501z"/>
	<path class="st1" d="M224.8,494.3l4.7,0.9l-0.5,2.7c0.6-0.9,1.5-1.6,2.5-2.1c0.9-0.4,1.9-0.5,2.9-0.3c0.8,0.2,1.5,0.5,2.1,1
		l-2.6,4.4c-0.4-0.4-1-0.6-1.5-0.8c-1-0.1-1.9,0.4-2.4,1.2c-0.8,0.9-1.4,2.9-2,6l-0.2,1.1l-1.6,8.8l-5.4-1L224.8,494.3z"/>
	<path class="st1" d="M257.6,511.6l-17.8-1.9c0,1.5,0.6,2.9,1.7,4c1.1,1.1,2.6,1.7,4.1,1.8c2,0.2,4-0.3,5.5-1.6l4.4,2.7
		c-1.2,1.4-2.8,2.5-4.6,3.2c-1.9,0.6-3.9,0.8-5.9,0.6c-3.2-0.2-6.1-1.7-8.1-4.2c-1.9-2.4-2.8-5.5-2.4-8.5c0.2-3.1,1.7-6,4.1-8
		c2.4-2,5.4-2.9,8.5-2.5c3.2,0.2,6.1,1.7,8.1,4.2c2,2.6,2.8,5.9,2.3,9.1L257.6,511.6z M252.6,506.7c-0.2-1.3-0.9-2.4-1.8-3.2
		c-1-0.9-2.3-1.4-3.6-1.6c-1.5-0.2-2.9,0.1-4.2,0.9c-1,0.7-1.8,1.6-2.3,2.6L252.6,506.7z"/>
	<path class="st1" d="M293,511.1l-17.8,0.7c0.3,1.5,1,2.8,2.2,3.7c1.3,0.9,2.8,1.3,4.3,1.2c2,0,3.9-0.9,5.3-2.4l4.8,2
		c-1,1.6-2.4,2.9-4,3.8c-1.8,0.9-3.7,1.4-5.8,1.4c-3.2,0.3-6.3-0.8-8.6-2.9c-2.3-2.1-3.6-5-3.6-8.1c-0.2-3.1,0.8-6.2,2.9-8.5
		c2-2.3,5-3.6,8-3.7c3.2-0.3,6.3,0.8,8.6,3c2.3,2.3,3.6,5.4,3.6,8.7L293,511.1z M287.2,507c-0.4-1.2-1.2-2.2-2.3-2.9
		c-1.1-0.7-2.5-1.1-3.8-1c-1.5,0-2.9,0.6-4,1.5c-0.9,0.8-1.5,1.8-1.9,3L287.2,507z"/>
	<path class="st1" d="M308.8,499.2l-3,3.9c-1.6-1.2-2.9-1.7-4-1.6c-0.5,0-1,0.2-1.4,0.6c-0.3,0.3-0.5,0.7-0.4,1
		c0,0.3,0.2,0.6,0.4,0.8c0.5,0.4,1.1,0.6,1.8,0.8l2.1,0.8c1.8,0.5,3.4,1.4,4.8,2.6c2.3,2.5,2.3,6.3,0.2,8.8
		c-1.4,1.6-3.4,2.6-5.5,2.7c-3,0.5-6.1-0.5-8.2-2.7l2.9-4.1c0.7,0.7,1.6,1.2,2.5,1.5c0.8,0.3,1.6,0.5,2.4,0.4
		c0.6-0.1,1.2-0.3,1.7-0.8c0.4-0.3,0.5-0.8,0.5-1.3c-0.1-0.8-1-1.6-2.7-2.2l-2-0.7c-3.8-1.3-5.9-3.3-6.2-6c-0.2-1.7,0.3-3.4,1.4-4.7
		c1.2-1.4,3-2.3,4.9-2.5c1.4-0.2,2.8,0,4.1,0.4C306.6,497.4,307.8,498.2,308.8,499.2L308.8,499.2z"/>
	<path class="st1" d="M311.5,487.3l5.5-1.1l1.6,8l3.2-0.6l0.9,4.7l-3.2,0.6l3.4,17l-5.5,1.1l-3.4-17l-2.8,0.5l-0.9-4.7l2.8-0.5
		L311.5,487.3z"/>
	<path class="st1" d="M329.5,483.6l15.8-4.9l1.7,5.4l-5.2,1.6l7.3,23.2l-5.5,1.7l-7.3-23.2l-5.1,1.6L329.5,483.6z"/>
	<path class="st1" d="M356.9,482c1.9-0.8,4-1.1,6-0.8c4.1,0.5,7.7,3.2,9.2,7.1c0.8,1.9,1.1,4,0.8,6c-0.2,2-1,4-2.3,5.6
		c-1.3,1.6-3,2.9-4.9,3.7c-2.8,1.2-6,1.2-8.8,0c-6-2.5-8.7-9.4-6.2-15.4c0.1-0.1,0.1-0.2,0.2-0.4C352.1,485.1,354.2,483,356.9,482
		L356.9,482z M358.9,486.8c-1.5,0.6-2.7,1.8-3.3,3.3c-0.6,1.6-0.5,3.4,0.2,4.9c0.6,1.6,1.8,2.9,3.4,3.7c1.5,0.7,3.2,0.7,4.7,0
		c1.5-0.6,2.7-1.8,3.3-3.3c0.6-1.6,0.5-3.4-0.2-5c-0.6-1.6-1.8-2.9-3.3-3.6C362.2,486.1,360.4,486.1,358.9,486.8L358.9,486.8z"/>
	<path class="st1" d="M368,468.7l5-2.5l3.6,7.3l3-1.5l2.1,4.3l-3,1.5l7.8,15.5l-5,2.5l-7.8-15.5l-2.5,1.3l-2.1-4.3l2.5-1.3
		L368,468.7z"/>
	<path class="st1" d="M381.5,471.3l4.8-2.9l5.5,9.1c0.7,1.3,1.6,2.5,2.6,3.5c0.6,0.5,1.4,0.8,2.1,0.9c0.8,0,1.7-0.2,2.4-0.6
		c0.7-0.4,1.3-1,1.7-1.8c0.3-0.8,0.4-1.6,0.2-2.4c-0.4-1.3-1-2.5-1.8-3.7l-5.6-9.3l4.8-2.9l4.8,8c2,3.3,3.1,5.7,3.3,7.3
		c0.3,1.7,0,3.5-0.8,5.1c-0.9,1.7-2.3,3.1-4,4c-1.7,1.2-3.8,1.7-5.9,1.6c-1.9-0.2-3.7-1-5-2.3c-1.7-1.8-3.2-3.8-4.3-6L381.5,471.3z"
		/>
	<path class="st1" d="M400.8,460l4.4-3.5l1.6,2c0.1-1.3,0.4-2.6,1-3.8c0.6-1.2,1.5-2.2,2.5-3c1-0.8,2.3-1.4,3.6-1.5
		c1.4-0.2,2.7,0.1,4,0.7c-0.3-3,1-5.9,3.4-7.8c1.1-0.9,2.5-1.5,3.9-1.7c1.3-0.2,2.6,0,3.8,0.6c1.6,1.1,3.1,2.4,4.2,4l8,10.2
		l-4.4,3.5l-7-8.8c-1.6-2-2.9-3.1-3.9-3.4c-1.1-0.3-2.2,0-3,0.7c-0.7,0.6-1.2,1.3-1.5,2.2c-0.2,0.9-0.2,1.9,0.1,2.8
		c0.6,1.5,1.4,2.8,2.4,4l6.2,7.8l-4.4,3.5l-6.6-8.4c-0.8-1.2-1.9-2.2-3-3.1c-0.7-0.5-1.4-0.7-2.3-0.7c-0.8,0-1.5,0.3-2.1,0.8
		c-0.7,0.6-1.2,1.3-1.5,2.2c-0.2,0.9-0.2,1.9,0.1,2.9c0.6,1.5,1.4,2.8,2.5,4l6.1,7.7l-4.4,3.5L400.8,460z"/>
	<path class="st1" d="M18,274.3l0.1-17.3h6L24,268.3l5.8,0l0.1-11.3h5.9l-0.1,11.3l8.4,0.1l0.1-11.3h6L50,274.5L18,274.3z"/>
	<path class="st1" d="M27.7,221.5l3.5,4.7c-3.4,2.5-5.3,5.5-5.8,9c-0.4,2.9,0.4,5.8,2.2,8c1.8,2.3,4.4,3.8,7.3,4
		c2,0.3,4,0.1,5.8-0.6c1.7-0.7,3.3-1.9,4.4-3.4c1.2-1.6,1.9-3.4,2.1-5.4c0.2-1.6,0.1-3.3-0.4-4.9c-0.7-1.9-1.7-3.6-3-5.2l4.8-3.5
		c1.7,2.1,3.1,4.6,4,7.2c0.6,2.4,0.8,4.8,0.4,7.2c-0.4,4.5-2.6,8.6-6.2,11.4c-3.6,2.7-8.2,3.9-12.6,3.1c-3-0.3-5.8-1.4-8.2-3.2
		c-2.3-1.8-4.1-4.1-5.2-6.8c-1.2-2.8-1.6-5.8-1.2-8.8C20.2,229.2,23.2,224.4,27.7,221.5L27.7,221.5z"/>
	<path class="st1" d="M23.8,213.7l1.6-5.9l11.7,3.1l2.7-10.2l-11.7-3.1l1.6-5.9l31,8.2l-1.6,5.9l-13.6-3.6l-2.7,10.2l13.6,3.6
		l-1.6,5.9L23.8,213.7z"/>
	<path class="st1" d="M37.5,168.5c1.7-4,4.9-7.2,9-8.7c4.2-1.7,8.8-1.6,12.9,0.2c4.1,1.6,7.4,4.9,9.1,9c3.5,8.3-0.5,17.9-8.8,21.4
		c-0.1,0-0.2,0.1-0.3,0.1c-7.1,2.6-15,0.4-19.7-5.6C36,180.3,35.2,174,37.5,168.5z M42.9,170.9c-1.1,2.5-1.1,5.5,0,8
		c1.2,2.7,3.4,4.8,6.1,5.8c5.3,2.4,11.5,0.1,13.9-5.1c0-0.1,0.1-0.2,0.1-0.3c1.1-2.5,1.1-5.4,0-7.9c-2.5-5.4-8.7-8-14.3-6
		C46.1,166.3,44,168.3,42.9,170.9L42.9,170.9z"/>
	<path class="st1" d="M63.7,155.9l5.4-9.5l4.8,2.7l-5.4,9.5L63.7,155.9z"/>
	<path class="st1" d="M84.5,148.8l-26.3-18.3l2.8-4.1c1.1-1.8,2.5-3.4,4.1-4.9c1.4-1.2,3.1-2,4.9-2.1c1.8-0.1,3.6,0.4,5,1.4
		c1,0.6,1.7,1.5,2.3,2.5c0.6,1.1,0.9,2.4,0.9,3.6c1.6-1,3.3-1.5,5.2-1.5c1.7,0.1,3.4,0.7,4.8,1.7c1.4,1,2.6,2.3,3.3,3.9
		c0.7,1.5,0.9,3.2,0.7,4.8c-0.4,2-1.3,3.9-2.5,5.6L84.5,148.8z M66.4,128.9l5.6,3.8l0.8-1.1c0.7-0.9,1.1-2.1,1.1-3.2
		c-0.1-1-0.7-1.8-1.5-2.3c-0.7-0.6-1.7-0.7-2.5-0.5c-1,0.4-1.9,1.1-2.5,2L66.4,128.9z M76.4,135.9l6.8,4.7l0.8-1.2
		c1.4-2.1,2.1-3.6,2.1-4.7c0-1.1-0.6-2.1-1.6-2.7c-1-0.8-2.3-1-3.6-0.6c-1.2,0.4-2.5,1.6-3.9,3.5L76.4,135.9z"/>
	<path class="st1" d="M74.2,108.3l4.1-4.8c2.3-2.7,4.1-4.3,5.6-5c1.5-0.7,3.1-0.9,4.7-0.7c1.8,0.3,3.5,1.2,4.8,2.4
		c1.5,1.2,2.5,2.8,3,4.6c0.4,1.8,0.2,3.8-0.5,5.5l15.7,3.6l-4.3,5l-14.9-3.5l-0.4,0.4l10.3,8.8l-3.9,4.6L74.2,108.3z M87.6,111.9
		l1.2-1.4c1-1,1.7-2.2,2-3.5c0-1-0.4-1.9-1.2-2.5c-0.5-0.4-1.1-0.7-1.7-0.8c-0.6-0.1-1.2,0.1-1.8,0.4c-0.9,0.6-1.7,1.4-2.4,2.3
		l-1.1,1.3L87.6,111.9z"/>
	<path class="st1" d="M101.5,79.6l4.6-4l30.3,15.9l-4.7,4.1l-6.2-3.3l-9.7,8.5l2.4,6.7l-4.7,4.1L101.5,79.6z M109.4,83.9l4.1,11.1
		l6.4-5.6L109.4,83.9z"/>
	<path class="st1" d="M116.9,66.3l5.1-3.5l19.4,14.4l-6.1-23.4l5.1-3.5l8.6,32.9l-4.8,3.3L116.9,66.3z"/>
	<path class="st1" d="M157.2,40.7c3.9-2,8.4-2.3,12.5-0.7c4.3,1.4,7.8,4.5,9.7,8.6c2.1,3.9,2.4,8.5,1,12.8
		c-2.8,8.6-12.1,13.3-20.6,10.4c-0.1,0-0.2-0.1-0.4-0.1c-7.1-2.6-11.6-9.5-11.3-17c0.1-2.9,1.1-5.7,2.7-8.2
		C152.3,44,154.6,42,157.2,40.7z M159.8,46c-2.5,1.2-4.4,3.4-5.2,6.1c-0.9,2.8-0.6,5.8,0.8,8.4c2.4,5.3,8.6,7.6,13.8,5.2
		c0.1-0.1,0.2-0.1,0.4-0.2c2.5-1.2,4.4-3.4,5.1-6.1c1.7-5.7-1.3-11.8-6.9-13.9C165.2,44.6,162.3,44.7,159.8,46z"/>
	<path class="st1" d="M191.5,27.4l6.1-1.8c3.4-1,5.8-1.3,7.4-1.2c1.6,0.2,3.1,0.9,4.3,2c1.3,1.3,2.3,2.9,2.8,4.6
		c1.3,3.7-0.1,7.8-3.4,9.8l11.1,11.7l-6.3,1.8l-10.6-11l-0.5,0.2l3.8,13l-5.8,1.7L191.5,27.4z M200.8,37.7l1.8-0.5
		c1.3-0.3,2.6-0.9,3.6-1.8c0.6-0.8,0.7-1.8,0.3-2.7c-0.2-0.6-0.5-1.2-1-1.6c-0.5-0.4-1.1-0.6-1.7-0.7c-1.1,0-2.2,0.2-3.3,0.6
		l-1.6,0.5L200.8,37.7z"/>
	<path class="st1" d="M230.8,17.9l6-0.9l16.6,30l-6.2,0.9l-3.4-6.2l-12.7,1.8l-1.6,6.9l-6.2,0.9L230.8,17.9z M235,25.9l-2.6,11.5
		l8.4-1.2L235,25.9z"/>
	<path class="st1" d="M255.4,15.3l6.4-0.1c3.5-0.1,5.9,0.2,7.5,0.8c1.5,0.6,2.8,1.7,3.7,3.1c0.9,1.6,1.4,3.3,1.4,5.2
		c0.1,2-0.4,4-1.6,5.6c-1.2,1.5-2.8,2.7-4.6,3.2c-2.1,0.5-4.2,0.7-6.3,0.6l0.3,13.6l-6,0.1L255.4,15.3z M261.7,27.6h1.9
		c1.1,0,2.1-0.1,3.1-0.4c0.6-0.2,1-0.6,1.4-1.1c0.3-0.6,0.5-1.2,0.5-1.8c0.1-1.1-0.5-2.2-1.5-2.8c-1.2-0.5-2.5-0.7-3.8-0.5h-1.7
		L261.7,27.6z"/>
	<path class="st1" d="M280.3,15.2l6,0.3l-1.8,32l-6-0.3L280.3,15.2z"/>
	<path class="st1" d="M294.1,16l7,1c4.6,0.7,7.8,1.7,9.9,3.2c2.1,1.6,3.8,3.8,4.6,6.4c1.1,3,1.3,6.2,0.8,9.3c-0.3,2.3-1,4.6-2.2,6.6
		c-1,1.8-2.4,3.4-4.1,4.6c-1.5,1.1-3.2,1.8-5,2.1c-2.9,0.2-5.8,0.1-8.6-0.5l-7.2-1L294.1,16z M299.2,22.7l-3,20l2.8,0.4
		c2,0.4,4.1,0.4,6.1-0.1c1.4-0.5,2.6-1.5,3.5-2.7c1.1-1.6,1.8-3.4,2-5.3c0.5-3.4,0-6.1-1.6-8.2c-1.4-1.9-4-3.1-7.7-3.7L299.2,22.7z"
		/>
	<path class="st1" d="M338.5,24.6l6.1,2c3.3,1.1,5.6,2.1,6.8,3.2c1.2,1.1,2.1,2.5,2.4,4.1c0.4,1.8,0.3,3.6-0.3,5.4
		c-0.5,1.8-1.6,3.4-3,4.6c-1.5,1.1-3.4,1.7-5.3,1.7l2.7,15.9l-6.3-2l-2.6-15.1l-0.5-0.2l-4.2,12.8l-5.7-1.8L338.5,24.6z M340.4,38.4
		l1.8,0.6c1.3,0.5,2.6,0.7,4,0.5c0.9-0.3,1.6-1.1,1.8-2.1c0.2-0.6,0.2-1.3,0-1.9c-0.2-0.6-0.5-1.1-1-1.5c-0.9-0.6-1.9-1.1-3-1.3
		l-1.6-0.5L340.4,38.4z"/>
	<path class="st1" d="M365.1,33.9l15.8,7l-2.4,5.5l-10.3-4.6l-2.4,5.3l10.3,4.6l-2.4,5.3l-10.3-4.6l-3.4,7.7l10.3,4.6l-2.5,5.5
		l-15.8-7L365.1,33.9z"/>
	<path class="st1" d="M397.5,50.2l5.2,3.2L396.6,87l-5.4-3.2l1.3-6.9l-11-6.7l-5.6,4.4l-5.4-3.2L397.5,50.2z M395.7,59l-9.3,7.2
		l7.2,4.4L395.7,59z"/>
	<path class="st1" d="M437.1,85.8l-5.8,0.5c-0.3-4.2-1.8-7.4-4.6-9.7c-2.2-1.9-5.1-2.7-7.9-2.3c-2.9,0.3-5.5,1.8-7.3,4.1
		c-1.3,1.5-2.1,3.3-2.5,5.3c-0.3,1.8-0.1,3.7,0.6,5.5c0.7,1.8,1.9,3.4,3.5,4.6c1.3,1.1,2.8,1.8,4.4,2.2c2,0.4,4,0.5,6,0.2l0.5,5.9
		c-2.7,0.4-5.5,0.2-8.2-0.4c-2.3-0.7-4.5-1.9-6.4-3.4c-3.6-2.7-5.9-6.8-6.4-11.3c-0.4-4.5,1-9,4-12.4c1.8-2.4,4.2-4.2,7-5.3
		c2.7-1,5.6-1.3,8.5-0.8c3,0.5,5.8,1.7,8.1,3.6c2,1.6,3.7,3.7,4.8,6C436.4,80.5,437.1,83.1,437.1,85.8z"/>
	<path class="st1" d="M443.1,84.1l12.3,12.4l-4.3,4.2l-4.1-4.1L428.6,115l-4.3-4.3l18.5-18.3l-4-4L443.1,84.1z"/>
	<path class="st1" d="M458.1,99.5l3.9,4.5l-24.1,21.2l-3.9-4.5L458.1,99.5z"/>
	<path class="st1" d="M476.9,121.8c2.6,3.5,3.6,8,2.7,12.3c-1.7,9.1-10.2,15.2-19.4,13.9c-8.9-1.4-15-9.8-13.5-18.8
		c0-0.1,0-0.2,0.1-0.4c1.5-7.4,7.6-13,15.1-13.8c2.9-0.3,5.8,0.2,8.5,1.4C472.9,117.5,475.2,119.4,476.9,121.8z M472,125.2
		c-1.6-2.3-4-3.8-6.8-4.2c-2.9-0.4-5.8,0.4-8.1,2.1c-4.8,3.2-6.1,9.7-2.9,14.5c0.1,0.1,0.1,0.2,0.2,0.3c1.6,2.3,4,3.8,6.8,4.1
		c5.9,0.7,11.4-3.2,12.6-9C474.3,130.3,473.7,127.4,472,125.2L472,125.2z"/>
	<path class="st1" d="M489.7,142.7l2.6,5.1l-12.6,21.7l18.7-9.6l2.8,5.4l-28.5,14.6l-2.6-5.1l12.5-21.6l-18.7,9.6l-2.8-5.4
		L489.7,142.7z"/>
	<path class="st1" d="M509.2,184.8l1.8,5.8l-19.8,6.2c-1.2,0.3-2.4,0.8-3.5,1.6c-0.6,0.5-1,1.2-1.2,2c-0.2,0.9-0.2,1.8,0.1,2.6
		c0.3,0.9,0.8,1.8,1.5,2.4c0.6,0.6,1.4,0.9,2.3,1c1.5-0.1,2.9-0.4,4.3-0.9l19-6l1.8,5.8l-18.2,5.7c-2.1,0.8-4.3,1.3-6.6,1.5
		c-2.9,0-5.6-1.3-7.6-3.4c-1-1.2-1.7-2.6-2.2-4.1c-0.7-2-0.8-4.1-0.3-6.2c0.4-1.8,1.4-3.4,2.7-4.7c1.3-1.2,3.8-2.3,7.4-3.5
		L509.2,184.8z"/>
	<path class="st1" d="M517.9,213.9l1,5.7l-18.3,17.1l20.8-3.8l1.1,5.9l-31.5,5.8l-1-5.7l18.3-17.1l-20.7,3.8l-1.1-5.9L517.9,213.9z"
		/>
	<path class="st1" d="M523.1,246.7l0.5,6l-31.9,2.9l-0.5-6L523.1,246.7z"/>
	<path class="st1" d="M524,256.6l0.5,17.5l-6,0.2l-0.2-5.8l-26,0.7l-0.2-6.1l26-0.7l-0.2-5.6L524,256.6z"/>
	<path class="st1" d="M18,274.3l0.1-17.3h6L24,268.3l5.8,0l0.1-11.3h5.9l-0.1,11.3l8.4,0.1l0.1-11.3h6L50,274.5L18,274.3z"/>
	<path class="st1" d="M27.7,221.5l3.5,4.7c-3.4,2.5-5.3,5.5-5.8,9c-0.4,2.9,0.4,5.8,2.2,8c1.8,2.3,4.4,3.8,7.3,4
		c2,0.3,4,0.1,5.8-0.6c1.7-0.7,3.3-1.9,4.4-3.4c1.2-1.6,1.9-3.4,2.1-5.4c0.2-1.6,0.1-3.3-0.4-4.9c-0.7-1.9-1.7-3.6-3-5.2l4.8-3.5
		c1.7,2.1,3.1,4.6,4,7.2c0.6,2.4,0.8,4.8,0.4,7.2c-0.4,4.5-2.6,8.6-6.2,11.4c-3.6,2.7-8.2,3.9-12.6,3.1c-3-0.3-5.8-1.4-8.2-3.2
		c-2.3-1.8-4.1-4.1-5.2-6.8c-1.2-2.8-1.6-5.8-1.2-8.8C20.2,229.2,23.2,224.4,27.7,221.5L27.7,221.5z"/>
	<path class="st1" d="M23.8,213.7l1.6-5.9l11.7,3.1l2.7-10.2l-11.7-3.1l1.6-5.9l31,8.2l-1.6,5.9l-13.6-3.6l-2.7,10.2l13.6,3.6
		l-1.6,5.9L23.8,213.7z"/>
	<path class="st1" d="M37.5,168.5c1.7-4,4.9-7.2,9-8.7c4.2-1.7,8.8-1.6,12.9,0.2c4.1,1.6,7.4,4.9,9.1,9c3.5,8.3-0.5,17.9-8.8,21.4
		c-0.1,0-0.2,0.1-0.3,0.1c-7.1,2.6-15,0.4-19.7-5.6C36,180.3,35.2,174,37.5,168.5z M42.9,170.9c-1.1,2.5-1.1,5.5,0,8
		c1.2,2.7,3.4,4.8,6.1,5.8c5.3,2.4,11.5,0.1,13.9-5.1c0-0.1,0.1-0.2,0.1-0.3c1.1-2.5,1.1-5.4,0-7.9c-2.5-5.4-8.7-8-14.3-6
		C46.1,166.3,44,168.3,42.9,170.9L42.9,170.9z"/>
	<path class="st1" d="M63.7,155.9l5.4-9.5l4.8,2.7l-5.4,9.5L63.7,155.9z"/>
	<path class="st1" d="M84.5,148.8l-26.3-18.3l2.8-4.1c1.1-1.8,2.5-3.4,4.1-4.9c1.4-1.2,3.1-2,4.9-2.1c1.8-0.1,3.6,0.4,5,1.4
		c1,0.6,1.7,1.5,2.3,2.5c0.6,1.1,0.9,2.4,0.9,3.6c1.6-1,3.3-1.5,5.2-1.5c1.7,0.1,3.4,0.7,4.8,1.7c1.4,1,2.6,2.3,3.3,3.9
		c0.7,1.5,0.9,3.2,0.7,4.8c-0.4,2-1.3,3.9-2.5,5.6L84.5,148.8z M66.4,128.9l5.6,3.8l0.8-1.1c0.7-0.9,1.1-2.1,1.1-3.2
		c-0.1-1-0.7-1.8-1.5-2.3c-0.7-0.6-1.7-0.7-2.5-0.5c-1,0.4-1.9,1.1-2.5,2L66.4,128.9z M76.4,135.9l6.8,4.7l0.8-1.2
		c1.4-2.1,2.1-3.6,2.1-4.7c0-1.1-0.6-2.1-1.6-2.7c-1-0.8-2.3-1-3.6-0.6c-1.2,0.4-2.5,1.6-3.9,3.5L76.4,135.9z"/>
	<path class="st1" d="M74.2,108.3l4.1-4.8c2.3-2.7,4.1-4.3,5.6-5c1.5-0.7,3.1-0.9,4.7-0.7c1.8,0.3,3.5,1.2,4.8,2.4
		c1.5,1.2,2.5,2.8,3,4.6c0.4,1.8,0.2,3.8-0.5,5.5l15.7,3.6l-4.3,5l-14.9-3.5l-0.4,0.4l10.3,8.8l-3.9,4.6L74.2,108.3z M87.6,111.9
		l1.2-1.4c1-1,1.7-2.2,2-3.5c0-1-0.4-1.9-1.2-2.5c-0.5-0.4-1.1-0.7-1.7-0.8c-0.6-0.1-1.2,0.1-1.8,0.4c-0.9,0.6-1.7,1.4-2.4,2.3
		l-1.1,1.3L87.6,111.9z"/>
	<path class="st1" d="M101.5,79.6l4.6-4l30.3,15.9l-4.7,4.1l-6.2-3.3l-9.7,8.5l2.4,6.7l-4.7,4.1L101.5,79.6z M109.4,83.9l4.1,11.1
		l6.4-5.6L109.4,83.9z"/>
	<path class="st1" d="M116.9,66.3l5.1-3.5l19.4,14.4l-6.1-23.4l5.1-3.5l8.6,32.9l-4.8,3.3L116.9,66.3z"/>
	<path class="st1" d="M157.2,40.7c3.9-2,8.4-2.3,12.5-0.7c4.3,1.4,7.8,4.5,9.7,8.6c2.1,3.9,2.4,8.5,1,12.8
		c-2.8,8.6-12.1,13.3-20.6,10.4c-0.1,0-0.2-0.1-0.4-0.1c-7.1-2.6-11.6-9.5-11.3-17c0.1-2.9,1.1-5.7,2.7-8.2
		C152.3,44,154.6,42,157.2,40.7z M159.8,46c-2.5,1.2-4.4,3.4-5.2,6.1c-0.9,2.8-0.6,5.8,0.8,8.4c2.4,5.3,8.6,7.6,13.8,5.2
		c0.1-0.1,0.2-0.1,0.4-0.2c2.5-1.2,4.4-3.4,5.1-6.1c1.7-5.7-1.3-11.8-6.9-13.9C165.2,44.6,162.3,44.7,159.8,46z"/>
	<path class="st1" d="M191.5,27.4l6.1-1.8c3.4-1,5.8-1.3,7.4-1.2c1.6,0.2,3.1,0.9,4.3,2c1.3,1.3,2.3,2.9,2.8,4.6
		c1.3,3.7-0.1,7.8-3.4,9.8l11.1,11.7l-6.3,1.8l-10.6-11l-0.5,0.2l3.8,13l-5.8,1.7L191.5,27.4z M200.8,37.7l1.8-0.5
		c1.3-0.3,2.6-0.9,3.6-1.8c0.6-0.8,0.7-1.8,0.3-2.7c-0.2-0.6-0.5-1.2-1-1.6c-0.5-0.4-1.1-0.6-1.7-0.7c-1.1,0-2.2,0.2-3.3,0.6
		l-1.6,0.5L200.8,37.7z"/>
	<path class="st1" d="M230.8,17.9l6-0.9l16.6,30l-6.2,0.9l-3.4-6.2l-12.7,1.8l-1.6,6.9l-6.2,0.9L230.8,17.9z M235,25.9l-2.6,11.5
		l8.4-1.2L235,25.9z"/>
	<path class="st1" d="M255.4,15.3l6.4-0.1c3.5-0.1,5.9,0.2,7.5,0.8c1.5,0.6,2.8,1.7,3.7,3.1c0.9,1.6,1.4,3.3,1.4,5.2
		c0.1,2-0.4,4-1.6,5.6c-1.2,1.5-2.8,2.7-4.6,3.2c-2.1,0.5-4.2,0.7-6.3,0.6l0.3,13.6l-6,0.1L255.4,15.3z M261.7,27.6h1.9
		c1.1,0,2.1-0.1,3.1-0.4c0.6-0.2,1-0.6,1.4-1.1c0.3-0.6,0.5-1.2,0.5-1.8c0.1-1.1-0.5-2.2-1.5-2.8c-1.2-0.5-2.5-0.7-3.8-0.5h-1.7
		L261.7,27.6z"/>
	<path class="st1" d="M280.3,15.2l6,0.3l-1.8,32l-6-0.3L280.3,15.2z"/>
	<path class="st1" d="M294.1,16l7,1c4.6,0.7,7.8,1.7,9.9,3.2c2.1,1.6,3.8,3.8,4.6,6.4c1.1,3,1.3,6.2,0.8,9.3c-0.3,2.3-1,4.6-2.2,6.6
		c-1,1.8-2.4,3.4-4.1,4.6c-1.5,1.1-3.2,1.8-5,2.1c-2.9,0.2-5.8,0.1-8.6-0.5l-7.2-1L294.1,16z M299.2,22.7l-3,20l2.8,0.4
		c2,0.4,4.1,0.4,6.1-0.1c1.4-0.5,2.6-1.5,3.5-2.7c1.1-1.6,1.8-3.4,2-5.3c0.5-3.4,0-6.1-1.6-8.2c-1.4-1.9-4-3.1-7.7-3.7L299.2,22.7z"
		/>
	<path class="st1" d="M338.5,24.6l6.1,2c3.3,1.1,5.6,2.1,6.8,3.2c1.2,1.1,2.1,2.5,2.4,4.1c0.4,1.8,0.3,3.6-0.3,5.4
		c-0.5,1.8-1.6,3.4-3,4.6c-1.5,1.1-3.4,1.7-5.3,1.7l2.7,15.9l-6.3-2l-2.6-15.1l-0.5-0.2l-4.2,12.8l-5.7-1.8L338.5,24.6z M340.4,38.4
		l1.8,0.6c1.3,0.5,2.6,0.7,4,0.5c0.9-0.3,1.6-1.1,1.8-2.1c0.2-0.6,0.2-1.3,0-1.9c-0.2-0.6-0.5-1.1-1-1.5c-0.9-0.6-1.9-1.1-3-1.3
		l-1.6-0.5L340.4,38.4z"/>
	<path class="st1" d="M365.1,33.9l15.8,7l-2.4,5.5l-10.3-4.6l-2.4,5.3l10.3,4.6l-2.4,5.3l-10.3-4.6l-3.4,7.7l10.3,4.6l-2.5,5.5
		l-15.8-7L365.1,33.9z"/>
	<path class="st1" d="M397.5,50.2l5.2,3.2L396.6,87l-5.4-3.2l1.3-6.9l-11-6.7l-5.6,4.4l-5.4-3.2L397.5,50.2z M395.7,59l-9.3,7.2
		l7.2,4.4L395.7,59z"/>
	<path class="st1" d="M437.1,85.8l-5.8,0.5c-0.3-4.2-1.8-7.4-4.6-9.7c-2.2-1.9-5.1-2.7-7.9-2.3c-2.9,0.3-5.5,1.8-7.3,4.1
		c-1.3,1.5-2.1,3.3-2.5,5.3c-0.3,1.8-0.1,3.7,0.6,5.5c0.7,1.8,1.9,3.4,3.5,4.6c1.3,1.1,2.8,1.8,4.4,2.2c2,0.4,4,0.5,6,0.2l0.5,5.9
		c-2.7,0.4-5.5,0.2-8.2-0.4c-2.3-0.7-4.5-1.9-6.4-3.4c-3.6-2.7-5.9-6.8-6.4-11.3c-0.4-4.5,1-9,4-12.4c1.8-2.4,4.2-4.2,7-5.3
		c2.7-1,5.6-1.3,8.5-0.8c3,0.5,5.8,1.7,8.1,3.6c2,1.6,3.7,3.7,4.8,6C436.4,80.5,437.1,83.1,437.1,85.8z"/>
	<path class="st1" d="M443.1,84.1l12.3,12.4l-4.3,4.2l-4.1-4.1L428.6,115l-4.3-4.3l18.5-18.3l-4-4L443.1,84.1z"/>
	<path class="st1" d="M458.1,99.5l3.9,4.5l-24.1,21.2l-3.9-4.5L458.1,99.5z"/>
	<path class="st1" d="M476.9,121.8c2.6,3.5,3.6,8,2.7,12.3c-1.7,9.1-10.2,15.2-19.4,13.9c-8.9-1.4-15-9.8-13.5-18.8
		c0-0.1,0-0.2,0.1-0.4c1.5-7.4,7.6-13,15.1-13.8c2.9-0.3,5.8,0.2,8.5,1.4C472.9,117.5,475.2,119.4,476.9,121.8z M472,125.2
		c-1.6-2.3-4-3.8-6.8-4.2c-2.9-0.4-5.8,0.4-8.1,2.1c-4.8,3.2-6.1,9.7-2.9,14.5c0.1,0.1,0.1,0.2,0.2,0.3c1.6,2.3,4,3.8,6.8,4.1
		c5.9,0.7,11.4-3.2,12.6-9C474.3,130.3,473.7,127.4,472,125.2L472,125.2z"/>
	<path class="st1" d="M489.7,142.7l2.6,5.1l-12.6,21.7l18.7-9.6l2.8,5.4l-28.5,14.6l-2.6-5.1l12.5-21.6l-18.7,9.6l-2.8-5.4
		L489.7,142.7z"/>
	<path class="st1" d="M509.2,184.8l1.8,5.8l-19.8,6.2c-1.2,0.3-2.4,0.8-3.5,1.6c-0.6,0.5-1,1.2-1.2,2c-0.2,0.9-0.2,1.8,0.1,2.6
		c0.3,0.9,0.8,1.8,1.5,2.4c0.6,0.6,1.4,0.9,2.3,1c1.5-0.1,2.9-0.4,4.3-0.9l19-6l1.8,5.8l-18.2,5.7c-2.1,0.8-4.3,1.3-6.6,1.5
		c-2.9,0-5.6-1.3-7.6-3.4c-1-1.2-1.7-2.6-2.2-4.1c-0.7-2-0.8-4.1-0.3-6.2c0.4-1.8,1.4-3.4,2.7-4.7c1.3-1.2,3.8-2.3,7.4-3.5
		L509.2,184.8z"/>
	<path class="st1" d="M517.9,213.9l1,5.7l-18.3,17.1l20.8-3.8l1.1,5.9l-31.5,5.8l-1-5.7l18.3-17.1l-20.7,3.8l-1.1-5.9L517.9,213.9z"
		/>
	<path class="st1" d="M523.1,246.7l0.5,6l-31.9,2.9l-0.5-6L523.1,246.7z"/>
	<path class="st1" d="M524,256.6l0.5,17.5l-6,0.2l-0.2-5.8l-26,0.7l-0.2-6.1l26-0.7l-0.2-5.6L524,256.6z"/>
</g>
</svg>
