<svg enable-background="new 0 0 113.4 113.4" viewBox="0 0 113.4 113.4" xmlns="http://www.w3.org/2000/svg"><circle cx="56.7" cy="56.7" fill="#fff" r="56.7"/><circle cx="56.7" cy="55.1" fill="#fff" r="53.8"/><path d="m53.6 91.1c1 2.2 2 4.4 3.1 6.8 1.1-2.4 2.1-4.6 3.1-6.8 18.9-1.4 34.1-14.8 38.5-32.5 5.4-21.7-7.1-44.2-28.5-51.1-.7-.2-1.3-.5-2-.8-1.4-.7-1.9-1.8-1.5-3.1.4-1.1 1.3-1.5 2.9-1.1 3.9.9 7.6 2.2 11.2 3.9 16.7 8.3 27.2 21.6 30.7 39.8 5.6 28.5-12 56.6-40.5 64-29.7 7.7-59.3-9.5-67.6-39.1-8.1-29.4 10-60.7 39.8-68.2.7-.2 1.3-.3 2-.4 1.1-.2 1.9.1 2.2 1.2.4 1.1 0 2.2-1 2.8-.8.4-1.6.8-2.4 1.1-16.4 5.8-26.4 17.3-29.3 34.5-3.7 22.5 11.7 44 34 48.3 1.8.3 3.5.6 5.3.7z" fill="#050302"/><path d="m77.2 48.3c-6.8 15-13.6 29.9-20.5 45.1-6.8-15.1-13.6-30-20.4-45 2.6-5.8 5.2-11.6 8-17.6 4.2 9.2 8.3 18.3 12.5 27.5 4.2-9.2 8.3-18.3 12.5-27.5 2.6 5.9 5.2 11.7 7.9 17.5z" fill="#1d1616"/><path d="m56.7 3.3c3.9 8.6 7.7 17 11.5 25.4-3.8 8.4-7.6 16.7-11.5 25.3-3.9-8.6-7.7-16.9-11.5-25.3 3.8-8.4 7.6-16.8 11.5-25.4z" fill="#1d1716"/></svg>