<svg id="Capa_1" data-name="Capa 1" xmlns="http://www.w3.org/2000/svg" viewBox="0 0 566.93 566.93"><defs><style>.cls-1{fill:#2d3d4f;}.cls-2{fill:#fff;}.cls-3{fill:#ffd100;}</style></defs><path class="cls-1" d="M283.46,562.68A279.22,279.22,0,0,1,86,86,279.22,279.22,0,0,1,480.9,480.9,277.43,277.43,0,0,1,283.46,562.68Z"/><path class="cls-2" d="M283.46,489.07a205.6,205.6,0,1,1,145.39-60.22A204.29,204.29,0,0,1,283.46,489.07Z"/><path class="cls-3" d="M283.46,562.68A279.22,279.22,0,0,1,86,86,279.22,279.22,0,0,1,480.9,480.9,277.43,277.43,0,0,1,283.46,562.68Zm0-549.48c-149,0-270.26,121.24-270.26,270.26S134.44,553.73,283.46,553.73,553.73,432.49,553.73,283.46,432.49,13.2,283.46,13.2Z"/><path class="cls-2" d="M70.34,219.44,37.93,208.05l7.7-21.92,6.19,2.17L47,202.12l5.68,2,4.48-12.73,6.18,2.17-4.48,12.73L67,209.17l4.86-13.82,6.19,2.17Z"/><path class="cls-2" d="M93.26,166.91l-3.8,7.39-27.36.8,21.29,11-3.62,7L49.24,177.34l4.85-9.41,22.51-.73-17.49-9,3.61-7Z"/><path class="cls-2" d="M103.15,153.75A28.51,28.51,0,0,1,98.52,159a34.64,34.64,0,0,1-4.76,3.43l-6.66-4.72.46-.64a19.35,19.35,0,0,0,6-2.7,17.14,17.14,0,0,0,4.46-4.25,16.7,16.7,0,0,0,1-1.69,6.94,6.94,0,0,0,.72-1.88,4.26,4.26,0,0,0,0-1.88,2.68,2.68,0,0,0-1.15-1.58,2.56,2.56,0,0,0-2.3-.39,6.65,6.65,0,0,0-2.36,1.3c-.93.78-1.89,1.63-2.89,2.55a29.2,29.2,0,0,1-3,2.45,11.57,11.57,0,0,1-6.4,2.48,9.82,9.82,0,0,1-5.86-2,9.25,9.25,0,0,1-4-7.85,16.82,16.82,0,0,1,3.46-10.05,29.47,29.47,0,0,1,4-4.61,25.7,25.7,0,0,1,4.52-3.46l6.4,4.54-.44.62a17,17,0,0,0-5,2.21,14.8,14.8,0,0,0-4.19,4,11.72,11.72,0,0,0-1,1.75,7.66,7.66,0,0,0-.58,1.91,3.68,3.68,0,0,0,.08,1.77,2.68,2.68,0,0,0,3.23,1.86,9.49,9.49,0,0,0,3.23-2.13l2.55-2.28a30.3,30.3,0,0,1,2.81-2.21,11.68,11.68,0,0,1,5.91-2.33,9,9,0,0,1,5.7,1.91,9.9,9.9,0,0,1,4.39,8Q107.11,148.16,103.15,153.75Z"/><path class="cls-2" d="M125.13,126l-12.34,13.8-4.47-4,3.29-3.68-16.67-14.9-3.29,3.68-4.47-4,12.33-13.79,4.47,4-3.29,3.68,16.67,14.9,3.29-3.68Z"/><path class="cls-2" d="M148.63,102a45,45,0,0,1-3.24,5.21,30.11,30.11,0,0,1-4.79,5.35q-6.1,5.33-12.8,5t-12.34-6.82q-5.31-6.09-4.89-12.92t6.71-12.32a24.93,24.93,0,0,1,5.82-4,37.36,37.36,0,0,1,5.68-2l5.29,6.06-.59.52-2.25.14a19.19,19.19,0,0,0-2.7.36,14.94,14.94,0,0,0-3.09,1,12.12,12.12,0,0,0-3,2,11.37,11.37,0,0,0-2.59,3.17,9.22,9.22,0,0,0-1,3.74,9.8,9.8,0,0,0,.68,4.06,14,14,0,0,0,2.65,4.25q4,4.53,8.12,4.7t8.1-3.28c.23-.2.5-.44.8-.73s.56-.54.78-.77l-4.44-5.07-5,4.39-4.23-4.85L137.5,89.3Z"/><path class="cls-2" d="M179,84.57,172,89,148,75.89l12.82,20.23-6.66,4.22-18.4-29,8.94-5.67,19.8,10.75L154,59.79l6.66-4.23Z"/><path class="cls-2" d="M224.49,65.68l-9.77,3.65-13.65-9.81-.76,2.8,4.06,10.87-8.09,3L184.27,44l8.09-3,5.33,14.29,5-18.13L212,33.67,206.1,52.89Z"/><path class="cls-2" d="M222.59,66.3l4-36,9.2-2,18.67,31.09-8.68,1.9-3.59-6.4-10.55,2.31-.6,7.31ZM239,49.16l-5.85-10.32-1,11.82Z"/><path class="cls-2" d="M263.41,58.82l-2.24-27.71-10.12.81-.53-6.53,28.84-2.33.53,6.54-10.12.81L272,58.13Z"/><path class="cls-2" d="M313.49,59.12l-8.61-.55,1-15.19-11.72-.75-1,15.2-8.62-.54L286.71,23l8.62.54-.8,12.55,11.72.75.8-12.56,8.61.55Z"/><path class="cls-2" d="M319.39,60.18l7.06-33.62,22.74,4.77-1.35,6.41-14.34-3-1.24,5.9,13.22,2.77-1.35,6.41L330.92,47l-1.78,8.49,14.34,3L342.13,65Z"/><path class="cls-2" d="M376.63,76.89l-9.9-3.56L362,58.24l-2.91-1L354.8,69.05l-8.07-2.89,11.6-32.34,13,4.67a29.38,29.38,0,0,1,4.57,2,10.72,10.72,0,0,1,3.19,2.72,9.15,9.15,0,0,1,1.75,3.8,8.87,8.87,0,0,1-.54,4.7,10.65,10.65,0,0,1-3.83,5.43,12.51,12.51,0,0,1-5.8,2.07Zm-5-27.13a4.69,4.69,0,0,0,.28-2.26,3.27,3.27,0,0,0-1.06-1.92,6,6,0,0,0-1.55-1c-.6-.28-1.37-.59-2.29-.92l-2.72-1-3.12,8.71,2.32.83a19.2,19.2,0,0,0,2.95.83,4.64,4.64,0,0,0,2.33-.16,4.09,4.09,0,0,0,1.68-1A5.78,5.78,0,0,0,371.61,49.76Z"/><path class="cls-2" d="M393,85.83l-16.5-8.38,2.72-5.35,4.4,2.24,10.13-19.93-4.4-2.24,2.72-5.35,16.49,8.38-2.71,5.35-4.41-2.24L391.35,78.25l4.4,2.23Z"/><path class="cls-2" d="M421.52,104.58l-6.85-4.7,2.63-27.25L403.75,92.39l-6.51-4.47,19.44-28.33,8.73,6L423.32,88l11.13-16.23L441,76.24Z"/><path class="cls-2" d="M425.9,108.42l23.3-25.24,17.08,15.76-4.45,4.81-10.76-9.94L447,98.24l9.92,9.16-4.44,4.81-9.92-9.15-5.88,6.37,10.76,9.94L443,124.18Z"/><path class="cls-2" d="M463.3,150.07q-4.57-6.23-3.5-12.66T467.7,126q6.58-4.83,13.2-4t11.18,7a26.21,26.21,0,0,1,2,3.11,25.13,25.13,0,0,1,1.34,2.91,21.59,21.59,0,0,1,.75,2.63c.23,1,.39,1.79.49,2.42l-6.6,4.84-.52-.7c0-.56.1-1.24.14-2a21.44,21.44,0,0,0-.05-2.63,14.49,14.49,0,0,0-.55-2.87,8.76,8.76,0,0,0-1.37-2.73,9.53,9.53,0,0,0-2.5-2.42,8.21,8.21,0,0,0-3.4-1.18,9.9,9.9,0,0,0-4.11.4,15.6,15.6,0,0,0-4.75,2.47,14.85,14.85,0,0,0-3.83,3.88,9.78,9.78,0,0,0-1.52,3.89,8.24,8.24,0,0,0,.27,3.51,9.84,9.84,0,0,0,1.48,3,9.4,9.4,0,0,0,2.38,2.29,12.87,12.87,0,0,0,2.56,1.36,18.51,18.51,0,0,0,2.37.77c.74.18,1.4.33,2,.45l.47.63-6.51,4.78-2.11-1.17a18,18,0,0,1-2.29-1.5,25.26,25.26,0,0,1-2.38-2A22.09,22.09,0,0,1,463.3,150.07Z"/><path class="cls-2" d="M486.45,188l-4.05-7.62,13.45-7.14-5.51-10.38L476.89,170l-4.05-7.63,30.35-16.11,4.05,7.62-11.11,5.9,5.51,10.37,11.1-5.9,4,7.63Z"/><path class="cls-2" d="M515.27,217.34q-7.87,2.72-13.84.08t-8.51-10q-2.55-7.35.57-13.12t10.88-8.45q7.81-2.72,13.82-.11t8.54,10q2.53,7.34-.53,13.1T515.27,217.34Zm-2.9-8.43a18.61,18.61,0,0,0,4.73-2.31,10.76,10.76,0,0,0,2.79-2.76,6.46,6.46,0,0,0,1.09-3,7.38,7.38,0,0,0-1.85-5.47,6.87,6.87,0,0,0-2.72-1.7,10.61,10.61,0,0,0-3.92-.46,21.91,21.91,0,0,0-10,3.42,10.73,10.73,0,0,0-2.75,2.76,6.46,6.46,0,0,0-1.11,3,7.35,7.35,0,0,0,.38,2.95,6.84,6.84,0,0,0,1.59,2.57,6.42,6.42,0,0,0,2.74,1.67,11.47,11.47,0,0,0,3.86.47A18.51,18.51,0,0,0,512.37,208.91Z"/><path class="cls-1" d="M283.06,490a36.08,36.08,0,0,1-5.45-.41v0a22.86,22.86,0,0,1-12.35-8.24,21.17,21.17,0,0,1-4.11-8.82c-.11-.52-.21-1-.29-1.57a26.41,26.41,0,0,1-.3-3.07l-.63-.11-.89-.14a21.71,21.71,0,0,1-14.74-8.82,20.13,20.13,0,0,1-2.26-4.14,4,4,0,0,1-.84.09,4.6,4.6,0,0,1-1.27-.19c-11.73-3.68-16.71-12.31-14-24.32q1.84-8.21,3.74-16.44c-3.39,5.43-6.88,10.94-10.53,16.3a18.37,18.37,0,0,1-15.26,7.89A19.05,19.05,0,0,1,193,434.67a3.78,3.78,0,0,1-.89-.85,19.15,19.15,0,0,1-7.91,1.69A23.36,23.36,0,0,1,170,430.33,23.23,23.23,0,0,1,135,427c-5.79-6.64-6.37-16-1.51-24.47,0,0,.2-.35.25-.42l.07-.11a22.7,22.7,0,0,1,3.08-4.19l.27-.31c-4.14-5.08-6-10.71-5.44-16.35a19.42,19.42,0,0,1,1.39-5.5,4.37,4.37,0,0,1-1.26-1.54c-2-4.19-3.72-8.82-2.43-14.32a20,20,0,0,1,9-12.95c5-3.09,10-6.27,15-9.38q-9,2.06-17.91,4.08a18.65,18.65,0,0,1-4.12.46,19.14,19.14,0,0,1-11.59-4,17.64,17.64,0,0,1-7.15-11.08,4.16,4.16,0,0,1,.06-1.72,20,20,0,0,1-8.32-6.32,24.24,24.24,0,0,1-4.93-11.67,23.25,23.25,0,0,1-13.71-41.52,19.29,19.29,0,0,1,6.12-3.46,23.08,23.08,0,0,1,7.46-1.53c.12-.55.21-1,.3-1.49.22-1.1.4-2,.7-3a22.14,22.14,0,0,1,12.54-14,4.36,4.36,0,0,1,0-1.57,18.74,18.74,0,0,1,18.24-15.34,18.4,18.4,0,0,1,3.9.42c6.16,1.34,12.39,2.76,18.47,4.16-5.34-3.31-10.74-6.72-16-10.26-8.43-5.68-10.61-17.25-5-26.35a4.15,4.15,0,0,1,1-1.11,20.22,20.22,0,0,1-1.54-6.53,21.39,21.39,0,0,1,5.14-15.32c-.2-.21-.4-.44-.62-.69l-.09-.1a1.54,1.54,0,0,1-.17-.19q-.17-.19-.33-.42l-.17-.23a23.4,23.4,0,0,1-5-13.54,21.94,21.94,0,0,1,5.66-16,3.33,3.33,0,0,1,.69-.57,24.37,24.37,0,0,1,2.54-2.37A21.13,21.13,0,0,1,153.78,131a23.85,23.85,0,0,1,16.15,6.29c4.63-3.58,9.62-5.47,14.46-5.47a19.08,19.08,0,0,1,7.84,1.7,4.08,4.08,0,0,1,1.12-1,20.55,20.55,0,0,1,10.9-3.26,19.06,19.06,0,0,1,16,8.9c3.32,5,6.58,10.12,9.69,15.11q-1.78-7.86-3.53-15.7a27.62,27.62,0,0,1-.4-9,17.36,17.36,0,0,1,15.31-15.29,5.3,5.3,0,0,1,.57,0,3.54,3.54,0,0,1,.46,0c2.51-7.5,9.11-12.26,18.27-13.16v0a21.66,21.66,0,0,1,4.86-14.13,23.09,23.09,0,0,1,12.7-8.32,29.4,29.4,0,0,1,5.44-.68,57,57,0,0,1,6.43,1h0a23,23,0,0,1,10.38,6.48,21.5,21.5,0,0,1,6,12.52,26.21,26.21,0,0,1,.19,3.09c9.29.87,16,5.59,18.73,13.09A3.31,3.31,0,0,1,326,113a4.6,4.6,0,0,1,.91.09c9.39,2,15,8.8,15.09,18.08a32.38,32.38,0,0,1-.74,7.12q-1.71,7.65-3.44,15.3c3-4.84,6.17-9.83,9.23-14.76a20.38,20.38,0,0,1,17-9.33,18.17,18.17,0,0,1,10.58,3.35,3.9,3.9,0,0,1,.9.87,19.76,19.76,0,0,1,7.75-1.59,23.77,23.77,0,0,1,14.16,5.06,23,23,0,0,1,10.72-5.75c.6-.14,1.22-.25,1.82-.34l.29-.05c.2,0,.4-.07.61-.09a23.57,23.57,0,0,1,2.48-.13,23.12,23.12,0,0,1,14.86,5.42h0a4.07,4.07,0,0,1,.52.47,25,25,0,0,1,2.23,2.27,3.88,3.88,0,0,1,.53.55A23.08,23.08,0,0,1,430.35,170a22.87,22.87,0,0,1,5.15,17,20.06,20.06,0,0,1-1.33,5.08,4.1,4.1,0,0,1,1,1.28c5.63,10.88,3.09,20.92-7,27.55-2.66,1.75-5.38,3.43-8,5.07-2,1.25-4.09,2.53-6.13,3.85,6.1-1.4,12.36-2.81,18.58-4.08a15,15,0,0,1,3-.3A20.67,20.67,0,0,1,450,231.61a14.26,14.26,0,0,1,4.36,10.23c0,.11,0,.23,0,.34,7.16,2.56,11.95,9.08,13,17.7a23.29,23.29,0,0,1,22.76,23.3c0,.44,0,.88-.06,1.31v.14a5,5,0,0,1,.07.76,4.43,4.43,0,0,1-.16,1.15c-.12.5-.22,1-.32,1.51a29.83,29.83,0,0,1-.95,3.69A22.53,22.53,0,0,1,468,306.54h-.47c-1.1,8.83-5.11,15-11.93,18.3-.4.19-.8.37-1.23.53a3.89,3.89,0,0,1,0,1.23c-.8,4.35-1.87,6.55-4.59,9.41a18.58,18.58,0,0,1-13.94,6,27,27,0,0,1-6-.72l-16.95-3.88,3.61,2.27c4,2.53,8.16,5.14,12.26,7.67a19.8,19.8,0,0,1,8.63,12.83,18.54,18.54,0,0,1-3,14.59,4,4,0,0,1-.65.71,20.42,20.42,0,0,1,1.54,7.73,23.75,23.75,0,0,1-4.83,14.58c.31.35.6.7.88,1.05a23.13,23.13,0,0,1,5,14.45,23.42,23.42,0,0,1-5.47,15c-.43.51-.9,1-1.39,1.51a4.31,4.31,0,0,1-1.53,2,25.81,25.81,0,0,1-14.86,5,23,23,0,0,1-15.68-6.31,23,23,0,0,1-14.4,5.47,19.08,19.08,0,0,1-7.82-1.67,4.23,4.23,0,0,1-1,.94,21.25,21.25,0,0,1-11.1,3.28,19,19,0,0,1-16-8.95c-3.28-5-6.47-10.07-9.57-15.06,1.34,5.87,2.65,11.67,3.92,17.51a19,19,0,0,1-3,15.07,17.64,17.64,0,0,1-12.22,7.34l-.51,0-.51,0c-2.7,7.43-9.53,12.38-18.15,13.16,0,.15,0,.3,0,.45s0,.74-.05.94a22.67,22.67,0,0,1-18.07,20.57h0a25.2,25.2,0,0,1-5.2.55Z"/><path class="cls-1" d="M283.59,77.92a60.14,60.14,0,0,1,6.15.9,22.05,22.05,0,0,1,9.93,6.2,20.61,20.61,0,0,1,5.75,12,22.92,22.92,0,0,1,.18,3.08s0,.1,0,.15,0,.07,0,.1c0,.18,0,.37,0,.55h.16c9.82.7,16.55,5.63,18.91,13.38A3.08,3.08,0,0,1,326,114a3.17,3.17,0,0,1,.69.07c8.91,1.93,14.25,8.33,14.31,17.1a30.93,30.93,0,0,1-.72,6.9c-1.56,7-3.16,14.06-4.74,21q1.5-2.37,3-4.76c3.09-4.9,6.27-10,9.38-15A19.34,19.34,0,0,1,364,130.49a17.21,17.21,0,0,1,10,3.16A3.32,3.32,0,0,1,375.1,135a18.92,18.92,0,0,1,8.15-1.86c4.84,0,9.61,1.8,14.18,5.33l.06.06a22,22,0,0,1,10.86-6.1,16.69,16.69,0,0,1,1.74-.33c.29,0,.57-.1.87-.13a20.49,20.49,0,0,1,2.36-.13A22.06,22.06,0,0,1,427.55,137l0,0a2.85,2.85,0,0,1,.44.41,21.53,21.53,0,0,1,2.22,2.26,3.33,3.33,0,0,1,.46.46A22.18,22.18,0,0,1,429,169.93a22,22,0,0,1,5.49,16.9,19.19,19.19,0,0,1-1.57,5.57,3.2,3.2,0,0,1,1.38,1.37c5.37,10.37,2.95,19.94-6.63,26.25-2.64,1.74-5.36,3.43-8,5.06-3.38,2.09-6.86,4.25-10.15,6.51L409,232l3.39-.77c6.71-1.53,13.64-3.12,20.52-4.52a14.45,14.45,0,0,1,2.83-.28,19.69,19.69,0,0,1,13.56,5.91,13.27,13.27,0,0,1,4.07,9.5,3.2,3.2,0,0,1-.21,1c7.39,2.25,12.47,8.94,13.29,18.06l.46,0a22.25,22.25,0,0,1,22.2,22.3c0,.52-.05,1-.08,1.52a3.1,3.1,0,0,1,.08.69,3.59,3.59,0,0,1-.12.88c-.13.56-.24,1.08-.34,1.58a29,29,0,0,1-.91,3.56A21.5,21.5,0,0,1,468,305.54l-.93,0-.46,0a2.43,2.43,0,0,1,0,.27c-.94,8.82-4.79,14.93-11.45,18.17a16.71,16.71,0,0,1-2,.79,3.24,3.24,0,0,1,.15,1.69c-.77,4.18-1.74,6.17-4.34,8.9A17.58,17.58,0,0,1,435.78,341a26.12,26.12,0,0,1-5.77-.69c-7.56-1.72-15.19-3.47-22.75-5.21,2.91,1.81,5.81,3.63,8.65,5.42,4,2.52,8.16,5.14,12.26,7.67a18.83,18.83,0,0,1,8.18,12.17,17.58,17.58,0,0,1-2.84,13.82,3.25,3.25,0,0,1-1.07,1,19.26,19.26,0,0,1,1.78,8.08,23.06,23.06,0,0,1-5.07,14.58l0,.06a21.12,21.12,0,0,1,1.38,1.6,22.32,22.32,0,0,1-.43,28.21c-.47.56-1,1.09-1.49,1.6a3.16,3.16,0,0,1-1.24,1.7,24.79,24.79,0,0,1-14.28,4.8,22,22,0,0,1-15.63-6.65c-4.45,3.79-9.44,5.81-14.45,5.81a18.27,18.27,0,0,1-8.18-1.94,3.22,3.22,0,0,1-1.21,1.35A20.18,20.18,0,0,1,363,437.44a18.08,18.08,0,0,1-15.19-8.5c-4-6.14-8-12.48-11.77-18.61-.32-.51-.64-1-1-1.53,1.77,7.69,3.57,15.56,5.26,23.36a18.06,18.06,0,0,1-2.86,14.27A16.66,16.66,0,0,1,326,453.36l-.39,0a3.27,3.27,0,0,1-1.16-.22c-2.37,7.61-9.34,12.92-18.5,13.42,0,.18,0,.34,0,.52s0,.18,0,.27c0,.3,0,.58,0,.87l0,.59c-.65,10-7.82,17.56-17.29,19.67a25.73,25.73,0,0,1-5,.51h-.48c-2.62-.07-5.19-.31-5.23-.34a21.94,21.94,0,0,1-11.81-7.87,20.12,20.12,0,0,1-3.93-8.43c-.1-.5-.2-1-.28-1.51v-.06a22.65,22.65,0,0,1-.29-3.42s0-.05,0-.08,0-.15,0-.23l-.33,0-1.12-.2-.93-.16a20.7,20.7,0,0,1-14.05-8.4,19.75,19.75,0,0,1-2.49-4.8,3.37,3.37,0,0,1-1.43.33,3.27,3.27,0,0,1-1-.15c-11.17-3.49-15.9-11.71-13.32-23.14,1.67-7.4,3.38-14.86,5.08-22.27l-.48.77c-4.22,6.8-8.59,13.83-13.19,20.58a17.37,17.37,0,0,1-14.43,7.45,18.06,18.06,0,0,1-10.29-3.2,3.25,3.25,0,0,1-1.08-1.33,18.12,18.12,0,0,1-8.28,2A22.63,22.63,0,0,1,170,429a22.22,22.22,0,0,1-34.18-2.65c-6-6.81-5.77-15.79-1.43-23.36l.12-.22.2-.31a21.93,21.93,0,0,1,2.94-4l.46-.51.17-.18.25-.27c-4.36-5-6.37-10.66-5.79-16.28a18.59,18.59,0,0,1,1.68-6,3.26,3.26,0,0,1-1.64-1.57c-1.94-4-3.57-8.46-2.36-13.65a19,19,0,0,1,8.6-12.32c5.63-3.49,11.33-7.09,16.83-10.58,1-.65,2.08-1.3,3.11-2-7.87,1.82-15.78,3.63-23.63,5.41a17.94,17.94,0,0,1-3.9.44,18.15,18.15,0,0,1-11-3.84,16.61,16.61,0,0,1-6.75-10.45,3.23,3.23,0,0,1,.36-2.13,18.62,18.62,0,0,1-8.82-6.36,23.47,23.47,0,0,1-4.85-12h-.19a22.25,22.25,0,0,1-13.77-39.74,18.37,18.37,0,0,1,5.82-3.31,22.32,22.32,0,0,1,7.95-1.48h.08a3.35,3.35,0,0,1,.05-.63c.14-.61.24-1.16.34-1.66a29.13,29.13,0,0,1,.68-2.92,21,21,0,0,1,12.82-13.66,3.2,3.2,0,0,1-.25-2,17.74,17.74,0,0,1,17.26-14.53,17.09,17.09,0,0,1,3.69.4c7.23,1.57,14.55,3.26,21.64,4.88l2.7.62c-7-4.3-14.17-8.75-21.1-13.41-8-5.38-10-16.35-4.68-25a3.21,3.21,0,0,1,1.44-1.24,19.16,19.16,0,0,1-1.81-7,20.21,20.21,0,0,1,5.51-15.27c-.43-.43-.84-.88-1.24-1.34-.07-.09-.16-.17-.24-.27s-.32-.42-.49-.63a22.41,22.41,0,0,1-4.76-13,20.92,20.92,0,0,1,5.38-15.24,2.91,2.91,0,0,1,.62-.49,20.75,20.75,0,0,1,2.52-2.35,20.05,20.05,0,0,1,13.49-5,22.66,22.66,0,0,1,16.08,6.62c4.65-3.79,9.67-5.8,14.53-5.8h0a18,18,0,0,1,8.23,2,3.24,3.24,0,0,1,1.26-1.48,19.5,19.5,0,0,1,10.37-3.11,18.1,18.1,0,0,1,15.13,8.45c4.41,6.63,8.67,13.45,12.82,20.16-1.64-7.17-3.26-14.37-4.85-21.51a26.78,26.78,0,0,1-.39-8.68,16.37,16.37,0,0,1,14.45-14.4,3.21,3.21,0,0,1,1.58.18c2.17-7.65,8.63-12.61,18.14-13.39l.28,0,.19,0c0-.19,0-.39,0-.58a.41.41,0,0,0,0-.11v-.12c0-.07,0-.14,0-.21a20.59,20.59,0,0,1,4.64-13.46,22,22,0,0,1,12.21-8,27.68,27.68,0,0,1,5.15-.64m0-2a32,32,0,0,0-5.68.71,24.08,24.08,0,0,0-13.25,8.68,22.55,22.55,0,0,0-5.06,13.88c-8.84,1.11-15.27,5.78-18,13l-.47,0A18.35,18.35,0,0,0,225,128.43a29.08,29.08,0,0,0,.42,9.33c.71,3.18,1.45,6.47,2.24,10-2.15-3.4-4.36-6.81-6.59-10.17a20,20,0,0,0-16.79-9.34,21.53,21.53,0,0,0-11.43,3.41,5.15,5.15,0,0,0-.86.68,20,20,0,0,0-7.57-1.5A24.55,24.55,0,0,0,170,136a24.86,24.86,0,0,0-16.2-6A22.16,22.16,0,0,0,139,135.44a23.94,23.94,0,0,0-2.53,2.34,5.07,5.07,0,0,0-.77.65,23,23,0,0,0-5.93,16.7A24.38,24.38,0,0,0,135,169.24l.16.22c.12.16.24.32.37.47s.13.15.2.23l.06.06.06.06A22.49,22.49,0,0,0,131,185.65a21.18,21.18,0,0,0,1.35,6.18,4.84,4.84,0,0,0-.68.87c-5.93,9.55-3.62,21.72,5.26,27.7,3.62,2.43,7.31,4.81,11,7.13-4.21-1-8.46-1.92-12.69-2.83a19,19,0,0,0-4.11-.45,19.73,19.73,0,0,0-19.22,16.15,5.39,5.39,0,0,0-.09,1.13,23.2,23.2,0,0,0-12.44,14.31c-.31,1-.5,2-.72,3.11,0,.23-.09.48-.14.73a24.1,24.1,0,0,0-7,1.55,20.39,20.39,0,0,0-6.41,3.64,24.25,24.25,0,0,0,13.5,43.24,25,25,0,0,0,5,11.33,21.1,21.1,0,0,0,8,6.32,5,5,0,0,0,.07,1.28,18.62,18.62,0,0,0,7.53,11.7,19.63,19.63,0,0,0,16.53,3.74l12.19-2.78c-3.32,2.09-6.66,4.19-10,6.25a21,21,0,0,0-9.5,13.58c-1.35,5.79.41,10.62,2.51,15a5.06,5.06,0,0,0,1,1.39A20.53,20.53,0,0,0,130.7,381c-.58,5.66,1.19,11.3,5.13,16.41a24.68,24.68,0,0,0-2.91,4l0,.08-.15.24-.09.15,0,.07c-5.07,8.82-4.46,18.62,1.59,25.59A24.28,24.28,0,0,0,154,437.79a24,24,0,0,0,16.14-6.16,24,24,0,0,0,14.13,4.88,20.07,20.07,0,0,0,7.64-1.49,4.41,4.41,0,0,0,.58.47,20.09,20.09,0,0,0,11.43,3.56A19.34,19.34,0,0,0,220,430.72c2.54-3.72,5-7.53,7.42-11.33-.88,3.86-1.67,7.34-2.43,10.69-2.8,12.4,2.55,21.7,14.67,25.49a5.25,5.25,0,0,0,1.57.24h.21a21,21,0,0,0,2.08,3.64,22.75,22.75,0,0,0,15.41,9.23c.2,0,.41.06.7.11q.07,1.1.27,2.31v.08c.07.48.17,1,.3,1.61a22.19,22.19,0,0,0,4.3,9.23,23.84,23.84,0,0,0,12.86,8.58v0a31.6,31.6,0,0,0,5.7.43h.53a28.52,28.52,0,0,0,5.42-.57h0A23.65,23.65,0,0,0,307.83,469c0-.18,0-.36,0-.55,8.35-1,15-5.86,17.88-13l.46,0a18.65,18.65,0,0,0,12.92-7.75,20,20,0,0,0,3.19-15.86c-.85-3.9-1.73-7.84-2.61-11.75,2.11,3.37,4.26,6.74,6.44,10.06a20,20,0,0,0,16.86,9.4A22.23,22.23,0,0,0,374.62,436a5,5,0,0,0,.78-.59,20.23,20.23,0,0,0,7.56,1.47,23.74,23.74,0,0,0,14.36-5.17,23.85,23.85,0,0,0,15.72,6,26.8,26.8,0,0,0,15.44-5.16,5.3,5.3,0,0,0,1.8-2.23,19.29,19.29,0,0,0,1.3-1.43,24.38,24.38,0,0,0,5.71-15.66,24.07,24.07,0,0,0-5.24-15.07l-.39-.49a24.54,24.54,0,0,0,4.56-14.53,21.69,21.69,0,0,0-1.37-7.48c.1-.12.2-.24.29-.37a19.52,19.52,0,0,0,3.17-15.37,20.78,20.78,0,0,0-9.09-13.48c-3.62-2.24-7.29-4.54-10.86-6.79l11.2,2.56a28.38,28.38,0,0,0,6.22.74,19.52,19.52,0,0,0,14.66-6.28c2.88-3,4-5.34,4.86-9.92a6.36,6.36,0,0,0,.08-.75c.22-.1.43-.19.64-.3,6.91-3.36,11.07-9.47,12.36-18.19a23.58,23.58,0,0,0,21.21-15.46,30,30,0,0,0,1-3.81c.11-.5.21-1,.33-1.5a5.2,5.2,0,0,0,.18-1.37,5.4,5.4,0,0,0-.07-.8h0c0-.44.07-.9.07-1.4a24.29,24.29,0,0,0-22.88-24.27c-1.27-8.31-5.95-14.65-12.86-17.41a15.31,15.31,0,0,0-4.64-10.58,21.7,21.7,0,0,0-15-6.52,16.23,16.23,0,0,0-3.23.32c-4.31.88-8.63,1.83-12.9,2.79l1.18-.73c2.64-1.64,5.36-3.33,8-5.09,10.38-6.84,13.12-17.62,7.31-28.84a5.3,5.3,0,0,0-.74-1.08,21.06,21.06,0,0,0,1.14-4.7,23.68,23.68,0,0,0-4.84-17,24,24,0,0,0,.61-31.12,5.91,5.91,0,0,0-.6-.63,24.11,24.11,0,0,0-2.25-2.28,4.27,4.27,0,0,0-.63-.57,24.14,24.14,0,0,0-15.46-5.61,23,23,0,0,0-2.58.14c-.22,0-.44.06-.66.09l-.28,0c-.63.09-1.27.21-1.9.36a24,24,0,0,0-10.57,5.44,24.36,24.36,0,0,0-14.08-4.78,20.67,20.67,0,0,0-7.48,1.4,4.72,4.72,0,0,0-.59-.5A19.24,19.24,0,0,0,364,128.49a21.41,21.41,0,0,0-17.87,9.8c-2,3.28-4.09,6.56-6.12,9.8.75-3.34,1.47-6.52,2.16-9.6a33.65,33.65,0,0,0,.76-7.34c-.06-9.78-6-16.9-15.88-19A4.81,4.81,0,0,0,326,112c-2.89-7.23-9.46-11.85-18.42-12.94a23.08,23.08,0,0,0-6.47-15.41,24.07,24.07,0,0,0-10.8-6.74v0a50.29,50.29,0,0,0-6.71-1Z"/><path class="cls-3" d="M284.53,81.66c.11,1.74.32,3.49.32,5.23q0,50.82,0,101.64v4.89h12.81c.33-4,.75-7.8.94-11.59.45-8.93.78-17.87,1.16-26.81q1-24.65,2.07-49.3a46.85,46.85,0,0,0,.06-8c-1-7.31-5.31-12.09-12.11-14.75a21,21,0,0,1-2.38-1.28Z"/><path class="cls-3" d="M279.73,81.66a7.07,7.07,0,0,1-1.53,1c-8.58,2.56-13.87,9.16-13.64,18,.28,10.85,1,21.69,1.55,32.53.08,1.6.11,3.2.17,4.79q1.16,26.82,2.31,53.62a11.17,11.17,0,0,0,.36,1.67c4.17.81,8.39.39,12.8.3v-8.3q0-49.62,0-99.26c0-1.44-.06-2.87-.1-4.31Z"/><path class="cls-3" d="M288.52,485.58c7.48-1.71,15-9.79,13.7-20.85-.14-1.1-.34-2.21-.38-3.32-.44-11.47-.78-23-1.3-34.42-.56-12.56-1.29-25.11-2-38.23L284.77,390v5.2q0,43.1,0,86.19c0,1.75-.14,3.5-.22,5.25A40,40,0,0,0,288.52,485.58Z"/><path class="cls-3" d="M281.65,486.62q.06-18.47.11-36.92,0-27.33,0-54.67v-5l-13.27-1.27c-.32,3.05-.72,5.71-.86,8.38-.44,8.78-.78,17.56-1.18,26.33-.64,14-1.37,28.08-1.93,42.12-.41,10.18,4.11,16.58,13.72,19.94A20.37,20.37,0,0,0,281.65,486.62Z"/><path class="cls-3" d="M81.3,282.65H185c.7-4.44.37-8.79.21-13.18a9.89,9.89,0,0,0-1.6-.41c-9.27-.42-18.53-.78-27.8-1.22-17.4-.83-34.8-1.76-52.21-2.51a44.69,44.69,0,0,0-9,.68C87.85,267.11,81,275.41,81.3,282.65Z"/><path class="cls-3" d="M185.19,298.77V285.63H81.45c.23,9.8,8.24,17.51,18.52,17.36,9.1-.14,18.19-.9,27.29-1.39l3.83-.17q26.37-1.12,52.73-2.27A7.58,7.58,0,0,0,185.19,298.77Z"/><path class="cls-3" d="M381.07,285.64v12.78c2,.25,3.9.58,5.79.68q11,.6,22,1.06c11,.46,22.07.83,33.1,1.27q12.47.49,24.92,1.07c8,.38,15.07-5.18,17.41-11.91.51-1.47.73-3,1.18-4.95Z"/><path class="cls-3" d="M381.18,268.87v12.62c3.16.91,97.63,1.2,103.71.29.18-8.5-7.2-16.23-16.25-16.68-4.46-.21-9,0-13.43.25-10.38.47-20.76,1.08-31.14,1.57C409.87,267.59,395.67,268.22,381.18,268.87Z"/><path class="cls-3" d="M220.4,368.47l-10-9L141.84,428c6.14,6,16.37,6.39,23.35.7a34.88,34.88,0,0,0,3.43-3.34q20.53-22.47,41-45C213.18,376.5,216.68,372.59,220.4,368.47Z"/><path class="cls-3" d="M366.56,345.86l-7.93,10.52,69.49,68.7c6.87-7.19,4.51-18.66-1.05-24-5.08-4.86-10.29-9.59-15.5-14.33C396.67,373.2,381.75,359.66,366.56,345.86Z"/><path class="cls-3" d="M199.83,346.09c-7,6.4-13.73,12.52-20.45,18.63-12.4,11.28-24.7,22.69-37.27,33.79-8.53,7.53-9.9,18-3.11,27.1l69-68.86Z"/><path class="cls-3" d="M425.15,428.51,355.9,359.38,346,368.3c6.74,7.38,13.42,14.68,20.08,22q16.29,17.93,32.53,35.88C405.58,433.89,416.08,434.92,425.15,428.51Z"/><path class="cls-3" d="M305.25,104.39c-1.37,29.57-2.75,59.14-4.13,89h10.57c.82-5.11,1.68-10.26,2.46-15.42q3.24-21.53,6.42-43.05c.6-4.1,1.21-8.22,1.46-12.35C322.67,112,316.45,105.18,305.25,104.39Z"/><path class="cls-3" d="M352.35,193.65c5.8,0,11.24-.07,16.67,0a5.91,5.91,0,0,0,4.67-1.83q25.2-25.29,50.46-50.52a15.31,15.31,0,0,0,1.16-1.47c-8.75-6.64-19.2-5.94-26.4,1.91q-23.15,25.26-46.1,50.68A4.51,4.51,0,0,0,352.35,193.65Z"/><path class="cls-3" d="M141.42,140.33q11.76,11.58,23.5,23.19C173.77,172.3,182.7,181,191.34,190a10.8,10.8,0,0,0,9.23,3.73c4.45-.29,8.94-.07,14.28-.07-3.62-4.06-6.73-7.61-9.91-11.11q-18.52-20.39-37.09-40.76C160.9,134.12,148.33,133.3,141.42,140.33Z"/><path class="cls-3" d="M255.45,193.47h9.33c.86-4.18-2.25-78.78-3.66-88.93-10.34.85-16.48,7.28-15.93,17.39.35,6.36,1.45,12.68,2.37,19,2.07,14.21,4.23,28.4,6.36,42.6C254.39,186.66,254.89,189.79,255.45,193.47Z"/><path class="cls-3" d="M463.06,305.66l-82-3.79c-.43,3.68-.83,7.1-1.28,11,3.09.54,6,1.11,8.94,1.55,17.66,2.64,35.32,5.3,53,7.83,3.94.57,8,.83,11.76-1C459,318.54,462.22,313.51,463.06,305.66Z"/><path class="cls-3" d="M185.3,266.08V254.77c-4.22-.7-8.55-1.49-12.91-2.14-16.25-2.39-32.55-4.48-48.74-7.2-10.42-1.74-17.4,5.11-19.53,12.18-.37,1.21-.55,2.47-1,4.33,2.93.28,5.69.68,8.48.8,18.82.81,37.64,1.53,56.46,2.34C173.67,265.32,179.23,265.72,185.3,266.08Z"/><path class="cls-3" d="M140.77,395.75l57.36-52.3c-1.8-3.45-3.56-6.8-5.5-10.49-4.89,3.59-9.64,7.05-14.36,10.54-11.69,8.66-23.42,17.26-35,26C134.06,376.42,133,386.87,140.77,395.75Z"/><path class="cls-3" d="M186.58,312.7c-.47-3.59-.86-6.58-1.31-10-9-.91-18,.67-27,.82-9.26.15-18.52.71-27.77,1.13-9,.4-18,.87-27.27,1.32a20.35,20.35,0,0,0,4.18,10.49c4,5.11,9.52,6.79,15.82,5.87,14-2.05,28.09-4.18,42.14-6.27,5-.75,10.1-1.46,15.15-2.22C182.42,313.52,184.26,313.12,186.58,312.7Z"/><path class="cls-3" d="M381.19,254.8v11l81.74-3.84c-.76-10.73-8.18-17.47-18.06-16.26-13.29,1.63-26.53,3.66-39.79,5.56C397.21,252.35,389.36,253.57,381.19,254.8Z"/><path class="cls-3" d="M343.54,370.14l-10,6.5c7.53,10.14,14.91,20.12,22.33,30.07,4.66,6.26,9.16,12.67,14.11,18.7,6.67,8.12,16.77,8.61,25.2,1.31C378,407.91,360.86,389.12,343.54,370.14Z"/><path class="cls-3" d="M427.84,142.42,376.77,193.5l4.69.49v14.5c3-2.55,5.45-4.55,7.79-6.69,12.18-11.07,24.3-22.22,36.5-33.27A18.86,18.86,0,0,0,427.84,142.42Z"/><path class="cls-3" d="M426.25,396.05a19.87,19.87,0,0,0,4.41-12.59,15.16,15.16,0,0,0-6.45-12.7Q404.64,356.11,385,341.58l-11.35-8.44-5.36,10.06Z"/><path class="cls-3" d="M234.74,193.65c-5.15-6.94-9.78-13.2-14.43-19.45-7.44-10-14.83-20-22.33-30-7.09-9.41-17-10.49-26.45-2.74,3.17,3.51,6.31,7,9.49,10.52,11.75,12.86,23.56,25.67,35.24,38.58,2,2.18,3.91,3.42,7,3.14C226.73,193.41,230.27,193.65,234.74,193.65Z"/><path class="cls-3" d="M261.48,464.06c1.18-25.37,2.34-50.35,3.52-75.84l-11.61-2.68c-1.49,9.84-2.91,19.11-4.28,28.39-1.42,9.62-2.39,19.33-4.28,28.86-2.35,11.83,5.79,19.73,14.48,20.91C259.78,463.76,260.25,463.86,261.48,464.06Z"/><path class="cls-3" d="M139.24,142.29c-6.3,6.67-6.28,19.16,1.82,26.43,13.66,12.26,27.17,24.68,40.75,37,1.05.95,2.17,1.83,3.81,3.21,0-4.13,0-7.71,0-11.29s.07-3.64,4.79-4.21Z"/><path class="cls-3" d="M232.69,376.59l-9.76-6.26L171.58,426.6c8.5,7,18.75,6.5,25-1.74C208.73,409,220.55,392.88,232.69,376.59Z"/><path class="cls-3" d="M312.89,385.4l-11.09,2.79q1.72,37.8,3.44,75.4c9.95-.45,16.87-7.34,16.51-16.78a148.22,148.22,0,0,0-1.92-15.65C317.58,416,315.25,400.93,312.89,385.4Z"/><path class="cls-3" d="M395.15,141.28c-10.53-8.13-20.49-4.5-25.71,2.56L333.76,192a15.32,15.32,0,0,0-.87,1.63c4.56,0,8.81-.07,13.06,0,2.36.05,3.27-1.84,4.51-3.17,6.3-6.8,12.49-13.71,18.74-20.56q12.1-13.31,24.23-26.59C394,142.75,394.44,142.13,395.15,141.28Z"/><path class="cls-3" d="M381.54,229.54c1.35-.91,2.15-1.4,2.9-2,13.09-9.74,26.06-19.63,39.29-29.16,9.14-6.58,9.54-17.88,2.46-26.19-2.34,2.07-4.72,4.12-7,6.22-11.24,10.23-22.38,20.56-33.75,30.63-2.91,2.58-4.26,5.23-3.93,9.09C381.77,221.65,381.54,225.17,381.54,229.54Z"/><path class="cls-3" d="M140.85,172.44c-6.52,6.34-7.13,18.49,1.55,24.95q16.32,12.18,32.68,24.31c3.31,2.47,6.64,4.91,10.47,7.74,0-5.18-.08-9.78,0-14.37,0-2.34-1.74-3.34-3.06-4.58-5.71-5.36-11.53-10.59-17.31-15.87l-22-20C142.46,173.86,141.65,173.15,140.85,172.44Z"/><path class="cls-3" d="M243.52,193.46H252c-3-25.49-8.13-50.43-10.45-75.73a13.19,13.19,0,0,0-11.64,11.53,23.35,23.35,0,0,0,.33,7.6c4,18.2,8.25,36.36,12.42,54.53A15.5,15.5,0,0,0,243.52,193.46Z"/><path class="cls-3" d="M325.66,117.5c-2.31,23.78-6.55,47.29-10,70.92-.23,1.54-.25,3.12-.38,5h8.6c.84-3.35,1.76-6.71,2.54-10.09q5.24-22.85,10.37-45.71a27.13,27.13,0,0,0,.63-6.16C337.35,124.11,333,119.1,325.66,117.5Z"/><path class="cls-3" d="M379.13,316.18c-.78,2.89-1.52,5.62-2.37,8.78,2.48.59,4.76,1.14,7.05,1.67q23.31,5.37,46.63,10.71c6,1.36,11.45.65,15.9-4,2.14-2.25,2.84-3.68,3.49-7.25C426.34,323.87,403.15,319.38,379.13,316.18Z"/><path class="cls-3" d="M189.37,324.46c-.72-2.64-1.45-5.37-2.26-8.36l-70.56,10.25a13.48,13.48,0,0,0,5.49,8.41,14.59,14.59,0,0,0,12.23,2.83c18-4.07,36.06-8.28,54.08-12.45A4.7,4.7,0,0,0,189.37,324.46Z"/><path class="cls-3" d="M185.25,251.43v-9.65L164.14,237c-10.1-2.3-20.19-4.67-30.32-6.87a14.37,14.37,0,0,0-17,11.55c6.09.75,12.21,1.39,18.3,2.27,15.16,2.17,30.3,4.45,45.45,6.69C181.93,250.81,183.33,251.1,185.25,251.43Z"/><path class="cls-3" d="M240.91,450.79c.83-6.74,1.5-13.2,2.43-19.63,2.26-15.48,4.63-30.94,7-46.74L241.53,381c-.5,1.91-1,3.55-1.36,5.21-3.47,15.08-7,30.16-10.37,45.26C227.59,441.28,231.48,447.84,240.91,450.79Z"/><path class="cls-3" d="M381.56,242.24v9.16c22.7-2.78,45.27-7.31,68.22-9.44.2-7.12-9.46-13.28-16.55-11.83-8.11,1.65-16.19,3.53-24.26,5.37q-12.35,2.81-24.67,5.74A25.17,25.17,0,0,0,381.56,242.24Z"/><path class="cls-3" d="M324.91,380.92l-8.75,3.46c2.58,22,7,43.86,9.13,66,7.91-.95,13.4-8.88,11.58-17.27-2.46-11.36-5.12-22.68-7.71-34C327.81,393.21,326.42,387.34,324.91,380.92Z"/><path class="cls-3" d="M195.33,136.35c3.07,3.79,6.08,7.28,8.83,11,10.8,14.45,21.51,29,32.28,43.44a7.65,7.65,0,0,0,3.38,2.73c-.22-1.31-.39-2.64-.68-3.94-1.26-5.59-2.5-11.19-3.88-16.76a19,19,0,0,0-2-5.33c-5.53-9-11-17.95-16.87-26.71C211.4,133.27,202.67,131.74,195.33,136.35Z"/><path class="cls-3" d="M430.57,372.5c5.14-7.18,2.1-17.28-4.41-21.31-8.94-5.54-17.8-11.22-26.76-16.74a17.4,17.4,0,0,0-4.86-1.85q-8.12-2-16.28-3.78c-1-.21-2.62-.21-2.95.32-1,1.63.85,2.07,1.76,2.75q14,10.44,28,20.82c6.65,5,13.31,9.89,19.9,14.91C426.88,369.05,428.57,370.73,430.57,372.5Z"/><path class="cls-3" d="M371.85,136.56c-7.47-5.28-17.46-1.78-21.52,4.76-5.46,8.8-11,17.56-16.49,26.35a9.36,9.36,0,0,0-1.2,2.59c-1.85,7.68-3.63,15.37-5.47,23.17,2.28.28,2.65-1.42,3.42-2.45C341.76,176,352.86,161,364.05,146.09,366.52,142.81,369.25,139.73,371.85,136.56Z"/><path class="cls-3" d="M135.38,372.46c9.92-9.24,20.93-16.31,31.29-24.21,7.36-5.6,14.87-11,22.32-16.47.88-.64,1.8-1.21,2.71-1.82l-.5-1c-.8-.21-1.66-.72-2.39-.57-6.39,1.34-12.75,2.78-19.11,4.26a9.09,9.09,0,0,0-2.58,1.22c-8.91,5.59-17.77,11.27-26.72,16.81A15.69,15.69,0,0,0,133.26,361C132.31,365.06,133.57,368.7,135.38,372.46Z"/><path class="cls-3" d="M330.84,378.16c-2,.75-3.16,1.28-2.66,3.27,1.35,5.41,2.32,10.91,3.87,16.25.69,2.38,2.33,4.51,3.67,6.66,4.8,7.71,9.55,15.47,14.53,23.06,4.88,7.42,13.63,9.11,21.32,4.37-9.87-10.81-17.82-23.1-26.68-34.68C340.15,390.9,335.59,384.57,330.84,378.16Z"/><path class="cls-3" d="M235.28,378.2c-9.34,12.59-18.52,25.05-27.8,37.43-4,5.35-8.2,10.55-12.3,15.8,6.23,4.37,15.6,3.24,20.15-3.42,6.37-9.36,12.19-19.09,18.24-28.68a5.84,5.84,0,0,0,.75-1.74c1.24-5.27,2.39-10.57,3.7-15.83C238.54,379.66,237.53,378.86,235.28,378.2Z"/><path class="cls-3" d="M381.87,238.74c1.7-.34,3.1-.67,4.52-.89a50.13,50.13,0,0,0,21-8.7c5.92-4.08,12.18-7.65,18.19-11.61,8.15-5.37,10.07-13.25,5.53-22-10.84,9.92-23.24,17.78-34.82,26.72-3.79,2.93-7.73,5.67-11.56,8.55C381.22,233.44,381.25,233.47,381.87,238.74Z"/><path class="cls-3" d="M135.85,195.72c-4.33,7-3,16,3.73,20.56,9.26,6.24,18.86,12,28.34,17.89a9,9,0,0,0,2.66,1c4.81,1.16,9.63,2.27,14.57,3.42,1.06-3.38.13-5.6-2.78-7.7-12.56-9.07-25-18.34-37.37-27.62C141.84,200.87,138.88,198.22,135.85,195.72Z"/><path class="cls-1" d="M284.3,384.17a107.86,107.86,0,0,1-19.57-1.85c-22.09-4.1-40.43-14.76-54.52-31.7-12.58-15.14-19-32-19.13-50.21-.15-24,0-48.44.1-72.05q.07-13.83.13-27.67c0-.38,0-.77.06-1.18H375.92v2.38l-.06,13q-.08,13.65-.12,27.28c0,2.46,0,4.92,0,7.38,0,3.21.06,6.53,0,9.78-.07,5.8-.2,11.7-.32,17.4l-.18,8.45c0,2.41,0,4.86,0,7.22a110.2,110.2,0,0,1-.53,15c-3.16,24.24-14.84,43.85-34.72,58.29-16.92,12.29-35.69,18.52-55.76,18.52Z"/><path class="cls-3" d="M373.41,202q0,6.23-.05,12.46-.08,13.83-.12,27.65c0,2.48,0,5,0,7.42,0,3.19.06,6.49,0,9.71-.07,5.79-.2,11.68-.32,17.38-.06,2.82-.12,5.63-.17,8.45-.05,2.45,0,4.92,0,7.3A106.52,106.52,0,0,1,372.3,307c-3.07,23.53-14.41,42.57-33.71,56.58-16.49,12-34.75,18.05-54.29,18.05a105.5,105.5,0,0,1-19.11-1.81c-21.5-4-39.35-14.36-53.05-30.84-12.21-14.69-18.46-31-18.56-48.63-.15-24,0-48.36.1-71.94q.06-13.22.12-26.44H373.41m5-5H189.11c-.1,1.22-.3,2.45-.3,3.67-.12,33.25-.43,66.5-.23,99.74.11,19.57,7.27,36.83,19.71,51.79,14.65,17.62,33.47,28.39,56,32.56a109.13,109.13,0,0,0,20,1.9c20.5,0,39.65-6.24,57.23-19,20.41-14.82,32.47-35,35.73-60,1-7.41.4-15,.54-22.51.17-8.62.4-17.24.5-25.87.07-5.72-.07-11.45-.06-17.18q.06-20.12.18-40.23V197Z"/><path class="cls-3" d="M198.67,220.31v5.23a5.88,5.88,0,0,0,.67.07c2.3,0,4.59,0,6.89,0a5.82,5.82,0,0,1,5.59,3.32,17.65,17.65,0,0,1,1.79,8.29c.06,9.33,0,18.66.09,28a67,67,0,0,0,5.21,26.31,43.56,43.56,0,0,0,7.44,11.83c3.11,3.5,7.1,5.64,11.33,7.41a105.06,105.06,0,0,0,21.43,6c4,.75,8.12,1.3,12.18,1.95.31.05.61.12,1,.2v.95c0,7.29,0,14.58,0,21.88a23.65,23.65,0,0,1-1.86,10.1,22.59,22.59,0,0,1-1.77,3c-1.87,2.79-4.74,3.84-7.89,4.16s-6.58.49-9.87.72l-.79.05v3.93h66.74v-4.1c-1.62,0-3.22.11-4.8,0-2.56-.22-5.12-.54-7.66-.92-3.2-.47-5.36-2.43-7-5.1a16.93,16.93,0,0,1-2.55-8.47c-.16-8.64-.13-17.28-.17-25.92a1.46,1.46,0,0,1,.08-.29c1.81-.25,3.67-.47,5.53-.77,10.33-1.65,20.53-3.79,30.24-7.87,7.72-3.24,12.77-9,16.37-16.31a59.72,59.72,0,0,0,5.84-20.71c.34-3.33.46-6.7.5-10.06.08-8.67,0-17.34.1-26a18.06,18.06,0,0,1,1.63-8,6,6,0,0,1,6-3.6c2.26.06,4.53,0,6.79.05.15,0,.3,0,.51-.06v-5.28c-1.05-.05-2.11-.13-3.17-.15-4.59-.09-9.18-.38-13.75.3-4.33.63-8.52,1.66-12,4.55-2.54,2.12-3.82,5-4.86,8a66.48,66.48,0,0,0-2.9,13.59,213.55,213.55,0,0,0-1.15,25,128.11,128.11,0,0,1-1.22,18c-1.48,10-7.19,16.35-16.52,19.74a64.75,64.75,0,0,1-17.58,3.53,2.38,2.38,0,0,1-.47-.07v-1q0-34.46,0-68.92a43.8,43.8,0,0,1,.47-7.51c.92-5.28,3.75-7.9,9.05-8.77,1.73-.28,3.48-.55,5.23-.66s3.51,0,5.35,0v-5.89H252.13v5.79h1.39a41.9,41.9,0,0,1,11.2,1.25,9.19,9.19,0,0,1,7,7.89,46,46,0,0,1,.54,7.79q.06,34.54,0,69.1V313c-1.46-.13-2.83-.19-4.19-.37a59.28,59.28,0,0,1-15.22-3.74c-5.36-2.2-9.76-5.54-12.53-10.75a30.47,30.47,0,0,1-2.93-10.54c-.85-6.62-.81-13.29-1-19.94s-.44-13.19-1-19.76a61.88,61.88,0,0,0-3.5-16.23c-2.13-5.88-6.44-9.06-12.34-10.46a41,41,0,0,0-10-1.16c-3.49,0-7,.14-10.47.21C199,220.24,198.86,220.28,198.67,220.31Z"/><path class="cls-2" d="M211.19,508.24a13.38,13.38,0,0,1-2.38,3.89,9.47,9.47,0,0,1-3.37,2.49,14.36,14.36,0,0,1-2.4.79,11.93,11.93,0,0,1-2.64.32,16.07,16.07,0,0,1-2.87-.27,17.68,17.68,0,0,1-3.23-1l-4.22-1.68L186,523.05l-8-3.22,12.55-31.36,12.44,5a22.14,22.14,0,0,1,4.59,2.41,12.59,12.59,0,0,1,3,3,8.53,8.53,0,0,1,1.54,4.27A11.08,11.08,0,0,1,211.19,508.24Zm-8.35-3.12a4.2,4.2,0,0,0,.27-2.54,3.6,3.6,0,0,0-1-1.94,7.64,7.64,0,0,0-2-1.43c-.68-.33-1.61-.73-2.8-1.2l-1.14-.46-3.76,9.39.56.23,2.16.84a13.24,13.24,0,0,0,1.82.55,6.13,6.13,0,0,0,1.53.14,3.82,3.82,0,0,0,1.39-.24,4.32,4.32,0,0,0,1.75-1.18A7.53,7.53,0,0,0,202.84,505.12Z"/><path class="cls-2" d="M219.51,535.12a29.27,29.27,0,0,1-6.54-2.53,35.87,35.87,0,0,1-4.9-3.24l2.07-7.76.77.21a19.4,19.4,0,0,0,4.67,4.68,17.63,17.63,0,0,0,5.57,2.69,14.31,14.31,0,0,0,1.93.35,6.91,6.91,0,0,0,2,0,4.25,4.25,0,0,0,1.76-.65,2.62,2.62,0,0,0,1.08-1.6,2.5,2.5,0,0,0-.45-2.26,6.76,6.76,0,0,0-2.05-1.74c-1.06-.6-2.2-1.2-3.42-1.81a31.23,31.23,0,0,1-3.36-1.93,11.74,11.74,0,0,1-4.59-5.09,9.54,9.54,0,0,1-.17-6.1,9,9,0,0,1,5.95-6.35,17.14,17.14,0,0,1,10.67-.19,31.85,31.85,0,0,1,5.76,2.18,27.36,27.36,0,0,1,4.85,3l-2,7.44-.74-.19a17.42,17.42,0,0,0-3.83-3.85,15.33,15.33,0,0,0-5.21-2.55,12,12,0,0,0-2-.37,8.15,8.15,0,0,0-2,.1,3.77,3.77,0,0,0-1.63.68,2.43,2.43,0,0,0-1,1.39,2.51,2.51,0,0,0,.38,2.22,9.44,9.44,0,0,0,3.15,2.27l3,1.59a30.33,30.33,0,0,1,3.07,1.86,11.7,11.7,0,0,1,4.28,4.67,8.72,8.72,0,0,1,.23,5.93,9.67,9.67,0,0,1-6,6.77Q226.16,536.9,219.51,535.12Z"/><path class="cls-2" d="M257.59,542.15l-18.36-2.92.93-5.82,4.9.78,3.45-21.71-4.9-.78.93-5.82,18.36,2.92-.92,5.82-4.91-.78-3.45,21.71,4.9.78Z"/><path class="cls-2" d="M294.62,544.77q-7,.09-10.74-3.16T280,532l-.26-21.57,8.67-.1.26,21.07a8.4,8.4,0,0,0,1.42,5.22c.92,1.14,2.4,1.69,4.44,1.67a5.48,5.48,0,0,0,4.37-1.71c.92-1.12,1.37-2.89,1.34-5.33L300,510.22l8.67-.1.26,21.55q.09,6.23-3.53,9.62T294.62,544.77Z"/><path class="cls-2" d="M347.88,538.53l-8.25,1.29-16.8-21.2,3.65,23.26-7.84,1.23-5.22-33.37,10.51-1.65,13.88,17.41-3-19.11,7.84-1.23Z"/><path class="cls-2" d="M373.57,531.42l-17.9,5.06-1.6-5.67,4.77-1.35-6-21.15-4.77,1.35L346.48,504l17.9-5.06,1.6,5.68L361.21,506l6,21.15,4.77-1.35Z"/><path class="cls-2" d="M387.27,526.47l-10.19-25.36-9.46,3.8-2.4-6,27-10.84,2.4,6-9.47,3.81,10.19,25.36Z"/><path class="cls-3" d="M283.46,501.33a217.87,217.87,0,0,1-154-371.92A217.87,217.87,0,0,1,437.52,437.52,216.44,216.44,0,0,1,283.46,501.33Zm0-430.78c-117.4,0-212.91,95.51-212.91,212.91s95.51,212.92,212.91,212.92,212.92-95.51,212.92-212.92S400.87,70.55,283.46,70.55Z"/></svg>