<svg enable-background="new 0 0 113.4 113.4" viewBox="0 0 113.4 113.4" xmlns="http://www.w3.org/2000/svg"><circle cx="56.7" cy="56.7" fill="#e10d15" r="56.7"/><circle cx="56.7" cy="56.7" fill="#0c0401" r="55.3"/><circle cx="56.7" cy="56.7" fill="#e10d15" r="37.8"/><g fill="#fff"><path d="m19.2 74.2 2.3 4.6-.8.4-1.8-3.8-2.5 1.3 1.9 3.8-.8.4-1.9-3.8-3.1 1.6 1.9 3.8-.8.4-2.3-4.6z"/><path d="m20.1 90.3-.5 2.1-.7-.9.4-1.4c-.8-.3-1.5-.8-2.1-1.5-.8-1-1.1-2.2-1-3.5.2-1.3.7-2.3 1.8-3.1.7-.5 1.4-.9 2.3-1 .8-.1 1.6 0 2.4.3s1.4.8 2 1.5c.8 1 1.1 2.2 1 3.5-.2 1.3-.8 2.3-1.8 3.1-.5.4-1.1.7-1.7.9-.7 0-1.4.1-2.1 0zm .2-.9c1.1.1 2.1-.1 2.9-.8.6-.4 1-1 1.2-1.6.3-.6.3-1.3.2-2s-.4-1.3-.8-1.8-.9-.9-1.6-1.2c-.6-.3-1.3-.3-2-.2s-1.3.4-1.9.8c-.8.7-1.3 1.5-1.5 2.5-.1 1 .1 2 .8 2.8.4.6 1 1 1.6 1.2l.8-3.1.9.9z"/><path d="m28.1 87 .7.6-3.5 4.1c-.4.5-.7.8-.7.9-.2.3-.3.6-.3.9s0 .6.2.9.4.6.6.8.5.3.8.4.6.1.9 0 .6-.2.8-.4c.2-.1.5-.5 1-1l3.5-4.1.7.6-3.5 4.1c-.5.6-1 1.1-1.4 1.3-.4.3-1 .4-1.6.4s-1.1-.2-1.7-.7-.9-1-1.1-1.6-.1-1.2.1-1.7c.1-.3.5-.9 1.1-1.6z"/><path d="m33.8 91.6.7.5-5 7.5-.7-.5z"/><path d="m35.7 92.9 1.6.8c.9.5 1.5.8 1.8 1.1.4.3.7.8.8 1.3s0 1-.2 1.5c-.3.5-.6.9-1.1 1.1s-1 .2-1.5.1c-.4-.1-1.1-.4-2.1-.9l-.6-.3-1.9 3.7-.8-.4zm.4 1.2-1.4 2.7 1.3.7c.5.3 1 .4 1.3.5s.6 0 .8-.2c.3-.1.5-.4.6-.6.1-.3.2-.5.2-.8s-.1-.6-.3-.8-.6-.5-1.1-.7z"/><path d="m41.6 95.8 4.9 1.6-.3.8-4-1.3-.9 2.7 4 1.3-.3.8-4-1.3-1.1 3.3 4 1.3-.3.8-4.8-1.6z"/><path d="m49 107.2 1.7-8.9h.1l3.3 7.5 4-7.2h.1l.8 9h-.9l-.6-6.5-3.5 6.2h-.2l-2.9-6.6-1.2 6.4z"/><path d="m60.4 98.4.9-.1.9 8.9-.9.1z"/><path d="m62.7 98.2 1.7-.4c1-.2 1.6-.3 2-.3.5 0 1 .2 1.4.5s.7.8.8 1.3.1.9-.1 1.3c-.1.4-.4.8-.8 1-.4.3-.9.5-1.7.7l4 3.4-1.1.2-4-3.4-.5.1.9 4.1-.9.2zm1.1.7.6 3 1.5-.3c.6-.1 1-.3 1.3-.4.3-.2.4-.4.5-.7s.1-.6.1-.9c-.1-.3-.2-.5-.4-.8-.2-.2-.5-.3-.7-.4-.3 0-.7 0-1.3.1z"/><path d="m72.6 95.4 7.3 6.7-.9.4-2.4-2.2-3.6 1.5-.2 3.3-.9.4.5-9.9zm.6 1.8-.2 3.6 2.8-1.2z"/><path d="m84.7 89.8-.2.9c-.7-.1-1.4-.1-2 0s-1.2.4-1.6.7c-.6.4-1 .9-1.3 1.6s-.5 1.3-.4 2 .3 1.3.7 1.8c.4.6.9 1 1.6 1.3.6.3 1.3.4 2.1.3.7-.1 1.4-.3 2-.8.8-.5 1.2-1.2 1.5-2 .2-.8.1-1.6-.2-2.3l-2.3 1.7-.5-.7 3.2-2.2c.8 1.1 1.1 2.3.9 3.4s-.8 2.1-2 2.9c-1.4 1-2.8 1.3-4.2.9-1.1-.3-2-.9-2.7-1.8-.5-.7-.8-1.5-.9-2.3s.1-1.7.4-2.4.9-1.4 1.7-2c .6-.4 1.3-.7 2-.9s1.4-.2 2.2-.1z"/><path d="m84.7 87.6 3.5-3.7.6.6-2.9 3.1 2 1.9 2.9-3 .6.6-2.9 3 2.6 2.4 2.9-3 .6.6-3.5 3.7z"/><path d="m92.5 86.8 2-2.7.6.4-2 2.7z"/><path d="m93.4 76 .7.4-1.6 2.8 1.9 1.6c.1-.4.2-.7.4-1 .4-.7 1-1.1 1.7-1.3s1.5-.1 2.2.4c.5.3.9.7 1.2 1.2s.4 1 .4 1.5-.2 1.1-.5 1.6c-.4.6-.9 1-1.5 1.3s-1.3.2-1.9-.1l.5-.8c.3.1.6.2.9.1s.5-.1.8-.3.5-.4.6-.6c.3-.5.4-1.1.2-1.7s-.5-1.1-1.1-1.4c-.5-.3-1-.4-1.6-.3-.5.1-.9.5-1.3 1-.3.5-.5 1.1-.6 1.9l-3.4-3z"/><path d="m26 27.8c-1.3 1.3-2.3 1.5-3.1.7l-2.3-2.2c-.8-.8-.6-1.8.7-3.1l3.1-3.1c.1-.1.2-.1.3-.1s.2.1.3.2.2.2.2.3 0 .2-.1.3l-3.1 3.1c-.4.4-.6.7-.7 1s0 .5.1.6l2.3 2.2c.1.1.3.2.6.1s.6-.3 1-.7l3.1-3.1c.1-.1.2-.1.3-.1s.2.1.3.2.2.2.2.3 0 .2-.1.3z"/><path d="m27.2 21.7c-.7-.8-.3-1.8 1.1-2.8l1.6-1.1c1.4-1 2.4-1.1 3-.2l1.1 1.6c.6.8.2 1.8-1.2 2.8l-1.6 1.1c-1.4 1-2.4 1.1-3 .2zm4.8-3.4c-.1-.2-.3-.2-.6-.2s-.6.2-1 .5l-1.5 1.1c-.4.3-.7.6-.8.8s-.1.4 0 .6l1.1 1.6c.1.1.3.2.5.2.3 0 .6-.2 1-.5l1.5-1.1c.4-.3.7-.6.8-.8s.1-.4 0-.6z"/><path d="m43.3 16.5c-.2.1-.3.1-.4.1s-.2-.1-.3-.3l-1.3-2.9c-.1-.2-.2-.3-.5-.3-.2 0-.6.1-1 .3l-.5.2c-.2.1-.4.2-.5.3s-.2.2-.3.3-.1.2-.1.3v.3l1.3 2.9c.1.2.1.3 0 .4s-.2.2-.4.3-.3.1-.4.1-.2-.1-.3-.2l-1.3-2.9c0-.1-.1-.2-.2-.2s-.2-.1-.3-.1-.3 0-.4 0c-.2 0-.4.1-.6.2l-.5.2c-.5.2-.8.4-.9.6s-.2.4-.1.6l1.3 2.9c.1.2.1.3 0 .4s-.2.2-.4.3-.3.1-.4.1-.2-.1-.3-.3l-1.3-2.9c-.2-.5-.2-.9.1-1.3s.7-.8 1.4-1.1l.8-.4c.7-.3 1.3-.4 1.7-.3.2-.4.7-.8 1.4-1.1l.8-.4c.7-.3 1.2-.4 1.7-.4s.8.3 1 .8l1.3 2.9c.1.2.1.3 0 .4.2.1 0 .2-.1.2z"/><path d="m52.8 14.5c-.2 0-.3 0-.4 0s-.2-.1-.2-.3l-.6-3.1c0-.2-.2-.3-.4-.4s-.6-.1-1.1 0l-.5.2c-.2 0-.5.1-.6.2-.2.1-.3.1-.4.2s-.1.2-.2.2v.3l.6 3.1c0 .2 0 .3-.1.4s-.2.1-.4.2c-.2 0-.3 0-.4 0s-.2-.1-.2-.3l-.6-3.1c0-.1-.1-.2-.1-.2-.1-.1-.1-.1-.3-.2-.1 0-.3-.1-.4-.1-.2 0-.4 0-.6.1l-.5.1c-.5.1-.8.2-1 .4s-.2.3-.2.5l.6 3.1c0 .2 0 .3-.1.4s-.2.1-.4.2c-.2 0-.3 0-.4 0s-.2-.1-.2-.3l-.6-3.1c-.1-.5 0-.9.4-1.3.3-.3.9-.6 1.6-.7l.9-.2c.7-.1 1.3-.1 1.7.1.3-.4.8-.6 1.6-.8l.9-.2c.7-.1 1.3-.1 1.7.1s.7.5.8 1l .6 3.1c0 .2 0 .3-.1.4 0-.1-.2 0-.4 0z"/><path d="m54.5 12.5v.5c0 .2.1.3.3.5.2.1.6.2 1.1.2h1c .1 0 .2 0 .3.1 0 .1.1.2.1.3 0 .2 0 .3-.1.3 0 .1-.1.1-.3.1h-1.1c-1.7 0-2.5-.5-2.5-1.6v-2c0-1 .9-1.6 2.6-1.5h2.1c.9 0 1.5.1 1.9.4s.6.7.6 1.2v1c0 .2 0 .3-.1.4s-.2.1-.4.1zm0-.9h4.9v-.6c0-.2-.1-.4-.3-.5s-.6-.2-1.1-.2h-2c-.5 0-.9.1-1.1.2s-.3.3-.3.5z"/><path d="m64.4 14.9c0 .2-.1.3-.2.3s-.3 0-.4 0c-.2 0-.3-.1-.4-.2s-.1-.2-.1-.4l1-5.7c0-.2.1-.3.2-.3h.4s.3.1.4.2.1.2.1.4z"/><path d="m66.5 11c-.1.1-.1.2-.2.2s-.3 0-.5 0-.3-.1-.4-.2-.1-.2-.1-.3v-.1s0-.1.1-.1l.5-1.4c.1-.1.1-.2.2-.2h.5s.3.1.4.2.1.2.1.3v.1.1z"/><path d="m67.3 13.7-.1.4c-.1.2 0 .4.2.5.2.2.5.4 1 .5l1 .3c.1 0 .2.1.2.2s0 .2 0 .3-.1.2-.2.3-.2.1-.3 0l-1-.3c-1.6-.5-2.3-1.2-2-2.2l.6-1.9c.3-1 1.3-1.3 2.9-.8l2 .6c.9.3 1.4.6 1.8.9.3.4.4.8.2 1.3l-.3 1c-.1.2-.1.3-.2.3s-.2 0-.5 0zm .2-.8 4.7 1.4.2-.6c.1-.2 0-.4-.2-.6s-.5-.3-1-.5l-1.9-.6c-.5-.1-.9-.2-1.1-.1s-.4.2-.5.3zm3.1-2c-.1 0-.2 0-.3 0s-.2 0-.4-.1c-.1 0-.2-.1-.3-.2s-.1-.2 0-.3c0-.2.2-.3.4-.3l2-.4h.3s.2 0 .4.1c.1 0 .2.1.3.2s.1.2 0 .3c0 .1-.2.2-.4.3z"/><path d="m74.6 18.5c-1.5-.8-2-1.6-1.6-2.5l.9-1.7c.5-.9 1.5-1 3-.3l4 2c .1.1.2.1.2.2s0 .2-.1.3-.1.2-.2.3-.2 0-.3 0l-4-2c-.5-.2-.8-.3-1.1-.3s-.4.1-.5.3l-.9 1.7c-.1.2 0 .3.1.6.1.2.4.4.9.7l4 2c .1.1.2.1.2.2s0 .2-.1.3-.1.2-.2.3-.2 0-.3 0z"/><path d="m80.2 21.2c-.1.1-.2.2-.3.2s-.2-.1-.4-.2-.3-.2-.3-.3 0-.2.1-.4l3.1-4.8c.1-.1.2-.2.3-.2s.2.1.4.2.3.2.3.3c.1.1 0 .2-.1.4z"/><path d="m82.1 23c-1.3-1.1-1.7-2-1-2.8l.3-.4c.7-.8 1.6-.7 3 .4l3 2.4c.1-.1.1-.3 0-.5s-.4-.5-.8-.8l-.7-.5c-.1-.1-.2-.2-.1-.3 0-.1.1-.2.2-.3s.2-.2.3-.2.2 0 .3.1l.7.6c1.3 1.1 1.7 2 1 2.8l-1.2 1.5c-.7.8-1.6.7-3-.4zm2.4.8c.4.3.7.5 1 .5s.4 0 .6-.1l.7-.9-3-2.4c-.4-.3-.7-.5-1-.5s-.4 0-.6.2l-.2.3c-.1.1-.1.3 0 .6.1.2.3.5.7.8z"/><path d="m87.1 26.9c-.1.1-.2.2-.3.1-.1 0-.2-.1-.4-.2-.1-.1-.2-.3-.2-.4s0-.2.1-.3l3-3c .1-.1.2-.2.3-.1.1 0 .2.1.4.2.1.1.2.3.3.4 0 .1 0 .2-.1.3zm3-4.9c.1-.1.3-.2.4-.2s.3.1.5.3.3.3.3.5c0 .1 0 .3-.2.4-.1.1-.3.2-.4.2s-.3-.1-.5-.3-.3-.3-.3-.5c0-.1.1-.2.2-.4z"/><path d="m92.8 26.2c.1.1.1.2.1.3s-.1.2-.2.3-.2.2-.3.2-.2 0-.3-.1l-.5-.5c-.3-.3-.5-.5-.7-.6s-.4 0-.5.1l-2.3 2.1c-.1.1-.2.2-.4.1-.1 0-.2-.1-.3-.3-.1-.1-.2-.3-.2-.4s0-.2.2-.3l2.3-2.1c.4-.3.8-.5 1.3-.3.5.1.9.5 1.4 1z"/></g><path d="m41.8 86.6c1.5-3.4 3-6.9 4.5-10.3 2-4.5 4-9.1 6-13.6.1-.2.3-.4.1-.8-1.7.7-3.5 1.3-5.2 2-.2 0-.2 0-.3-.1 3.8-5.7 7.5-11.5 11.5-17.5-1.8.5-3.3.9-4.9 1.3 0-.1-.1-.1-.1-.2 1.2-1.5 2.5-2.9 3.7-4.4 4.7-5.5 9.3-10.9 14-16.4.1-.1.2-.1.3-.2h.2c-.6 2.2-1.8 4.2-2.7 6.3-1.1 2.8-2.4 5.5-3.6 8.3-.1 0-.2.1 0 .2.1 0 .1-.1.2-.1 1.3 0 2.4-.8 3.8-.8-3.4 6-6.8 11.7-10.2 17.6 1.9-.4 3.4-1.2 5.4-1.7-1.1 1.5-2.1 2.8-3 4.1-6.4 8.7-12.7 17.5-19.1 26.2-.1.1-.2.2-.3.3-.1 0-.2-.1-.3-.2z" fill="#050302"/></svg>