<svg id="Capa_1" data-name="Capa 1" xmlns="http://www.w3.org/2000/svg" viewBox="0 0 566.93 566.93"><defs><style>.cls-1{fill:#ef7e07;}.cls-2{fill:#fff;}.cls-3{fill:#1c1c1b;}</style></defs><circle cx="283.46" cy="283.46" r="279.21"/><circle class="cls-1" cx="283.46" cy="283.46" r="268.58"/><path class="cls-2" d="M46.43,327.34l4.37-.61c.8-.12,1.41-.71,1.85-1.79a10.12,10.12,0,0,0,.18-4.9L50.31,302.2a1.21,1.21,0,0,1,.34-1.25,3.18,3.18,0,0,1,1.47-.49,3.21,3.21,0,0,1,1.53.07c.38.13.6.5.69,1.1l2.54,18q1.56,11.06-5.38,12l-13.18,1.86q-6.95,1-8.51-10.07L29,317.88a1.2,1.2,0,0,1,.34-1.21,3.35,3.35,0,0,1,1.47-.49,3.26,3.26,0,0,1,1.55.07,1.18,1.18,0,0,1,.67,1.07l.77,5.41a10.23,10.23,0,0,0,1.51,4.66,2.45,2.45,0,0,0,2.28,1.2l4.78-.68L39,303.68a1.22,1.22,0,0,1,.34-1.24,3.22,3.22,0,0,1,1.47-.5,3.27,3.27,0,0,1,1.55.07,1.24,1.24,0,0,1,.67,1.1Z"/><path class="cls-2" d="M54.2,284.33a4,4,0,0,1-.33,1.8,2.94,2.94,0,0,1-1,1.15L29.5,304a1.68,1.68,0,0,1-.86.3,1.33,1.33,0,0,1-.78-.26,2.72,2.72,0,0,1-.64-.7,3.38,3.38,0,0,1-.44-.94,3.52,3.52,0,0,1-.15-1,3,3,0,0,1,.18-1,1.77,1.77,0,0,1,.6-.81l21.85-15.31-22-15a1.82,1.82,0,0,1-.8-1.66,3.46,3.46,0,0,1,.58-1.89,3,3,0,0,1,.64-.68,1.31,1.31,0,0,1,.81-.26,1.24,1.24,0,0,1,.83.29l23.51,16.32a3,3,0,0,1,1,1.16A4.18,4.18,0,0,1,54.2,284.33Z"/><path class="cls-2" d="M28.71,250.77a4.24,4.24,0,0,1,.57-1.73,3,3,0,0,1,1.12-1l25.39-13.25a1.6,1.6,0,0,1,.9-.15,1.44,1.44,0,0,1,.75.35,2.09,2.09,0,0,1,.55.72,3.38,3.38,0,0,1,.3.93,3.29,3.29,0,0,1,0,1,2.32,2.32,0,0,1-.29.91,1.73,1.73,0,0,1-.67.64l-7,3.57-2.72,20.78,5.88,5a1.37,1.37,0,0,1,.49.77,2.47,2.47,0,0,1,0,.94,3.24,3.24,0,0,1-.27.91,2.79,2.79,0,0,1-.55.83,2.66,2.66,0,0,1-.72.55,1.37,1.37,0,0,1-.83.14,1.81,1.81,0,0,1-.79-.37L29.63,253.89a2.69,2.69,0,0,1-.82-1.25A4.3,4.3,0,0,1,28.71,250.77Zm15.21,9.63,2-15.44-12.67,6.41Z"/><path class="cls-2" d="M62.09,198.82q6.7,2,3.5,12.71L59.42,232a1.54,1.54,0,0,1-2.19,1.15l-22.82-6.87a1.53,1.53,0,0,1-1.16-2.16l6.16-20.47Q42.62,193,49.34,195Zm-5.62,28.86,5.17-17.18a10.23,10.23,0,0,0,.57-4.89,2.47,2.47,0,0,0-1.55-2.06l-12.74-3.84a2.46,2.46,0,0,0-2.45.86,10.41,10.41,0,0,0-2.2,4.4l-5.18,17.18Z"/><path class="cls-2" d="M61.43,189.71l4,1.89a2.48,2.48,0,0,0,2.52-.48,10.16,10.16,0,0,0,2.85-4l7.71-16.29c.26-.54.58-.83,1-.86a3.32,3.32,0,0,1,1.5.4,3.28,3.28,0,0,1,1.24.9,1.22,1.22,0,0,1,0,1.3L74.4,189q-4.77,10.1-11.11,7.09l-12-5.7q-6.34-3-1.56-13.09l2.4-5.07c.25-.53.56-.8.95-.83a3.29,3.29,0,0,1,1.5.4,3.1,3.1,0,0,1,1.26.91,1.19,1.19,0,0,1,0,1.26l-2.34,4.94a10.28,10.28,0,0,0-1.3,4.73,2.43,2.43,0,0,0,1.25,2.25L57.75,188l10.47-22.12c.26-.54.58-.83,1-.85a3.13,3.13,0,0,1,1.5.39,3.35,3.35,0,0,1,1.26.91,1.23,1.23,0,0,1,0,1.29Z"/><path class="cls-2" d="M62.57,155a1.55,1.55,0,0,1-.45-2.44L73.94,135a23,23,0,0,1,2.93-3.59,13,13,0,0,1,3-2.21,6.29,6.29,0,0,1,2.82-.76,4.41,4.41,0,0,1,2.53.77l3.94,2.65a4.34,4.34,0,0,1,1.67,2.05,6.33,6.33,0,0,1,.37,2.9,12.91,12.91,0,0,1-.93,3.58A22.45,22.45,0,0,1,88,144.42l-.84,1.25c-.62.92-1.15,1.72-1.61,2.39s-.86,1.28-1.22,1.79-.69,1-1,1.38l-.88,1.18.06,0c.35-.25.73-.52,1.12-.82l1.47-1.07q.88-.65,2.16-1.53l3.2-2.19,8.1-5.5a1.74,1.74,0,0,1,2.09-.06,1.49,1.49,0,0,1,.79,1.33,4,4,0,0,1-.75,1.79q-.15.22-.39.54c-.15.21-.33.42-.51.63s-.38.4-.58.59a2.61,2.61,0,0,1-.62.42l-20.22,13,6.88,4.62c.61.41.89.85.84,1.33a4.28,4.28,0,0,1-.77,1.76A4,4,0,0,1,84,168.62a1.46,1.46,0,0,1-1.54-.26Zm4.74-2.86,7.39,5,9.75-14.53a20.65,20.65,0,0,0,1.62-2.75,8.59,8.59,0,0,0,.71-1.95,2.4,2.4,0,0,0,0-1.3,1.69,1.69,0,0,0-.63-.79l-3.38-2.27a1.68,1.68,0,0,0-1-.27,2.25,2.25,0,0,0-1.23.44A8.32,8.32,0,0,0,79,135.06a21.47,21.47,0,0,0-1.93,2.54Z"/><path class="cls-2" d="M102.76,123.53q-7.55,8.24-12.71,3.5L89,126q-5.16-4.73,2.37-13l2.55-2.78a1.24,1.24,0,0,1,1.18-.54,3.21,3.21,0,0,1,1.31.83,3.13,3.13,0,0,1,.94,1.24,1.25,1.25,0,0,1-.43,1.22l-2.62,2.86a9.61,9.61,0,0,0-2.55,4,2.45,2.45,0,0,0,.62,2.42l1.08,1a2.47,2.47,0,0,0,2.46.38,9.17,9.17,0,0,0,3.81-2.87l6-6.56q7.55-8.24,12.71-3.5l1.39,1.28q5.17,4.72-2.37,13l-12.48,13.63a1.23,1.23,0,0,1-1.17.53,4.2,4.2,0,0,1-2.25-2.06,1.21,1.21,0,0,1,.42-1.22l12.56-13.71a9.46,9.46,0,0,0,2.54-4,2.43,2.43,0,0,0-.61-2.42L115,114.48a2.47,2.47,0,0,0-2.46-.38,9.23,9.23,0,0,0-3.81,2.87Z"/><path class="cls-2" d="M133,95.07l2.6,3.56a2.45,2.45,0,0,0,2.44.79,10.23,10.23,0,0,0,4.41-2.14L157,86.66a1.26,1.26,0,0,1,1.26-.29,3.23,3.23,0,0,1,1.13,1.07,3.14,3.14,0,0,1,.66,1.39c.06.39-.16.77-.65,1.12l-14.68,10.71q-9,6.57-13.15.9l-7.84-10.75q-4.14-5.67,4.88-12.25l4.55-3.3a1.19,1.19,0,0,1,1.22-.27,4.27,4.27,0,0,1,1.8,2.47,1.19,1.19,0,0,1-.63,1.09l-4.42,3.22a10.36,10.36,0,0,0-3.4,3.53,2.46,2.46,0,0,0,0,2.58l2.84,3.9,19.78-14.42a1.26,1.26,0,0,1,1.26-.29,3.22,3.22,0,0,1,1.12,1.07,3.33,3.33,0,0,1,.68,1.4,1.26,1.26,0,0,1-.66,1.11Z"/><path class="cls-2" d="M174.6,81.71a4,4,0,0,1-1.74.55,2.93,2.93,0,0,1-1.48-.31L145.65,69.17a1.74,1.74,0,0,1-.68-.62,1.28,1.28,0,0,1-.13-.8,2.48,2.48,0,0,1,.31-.9,3.53,3.53,0,0,1,.62-.83,3.59,3.59,0,0,1,.81-.61,3,3,0,0,1,1-.3,1.7,1.7,0,0,1,1,.14l23.8,12.06,2.89-26.44a1.76,1.76,0,0,1,1.08-1.48,3.3,3.3,0,0,1,.94-.34,3.35,3.35,0,0,1,1,0,2.6,2.6,0,0,1,.9.24,1.36,1.36,0,0,1,.62.59,1.28,1.28,0,0,1,.12.87l-3.31,28.43a3,3,0,0,1-.56,1.42A4.19,4.19,0,0,1,174.6,81.71Z"/><path class="cls-2" d="M192.16,43.39a4,4,0,0,1,1.8-.32,2.84,2.84,0,0,1,1.42.51l23.69,16.09a1.59,1.59,0,0,1,.55.72,1.46,1.46,0,0,1,.06.83,2.31,2.31,0,0,1-.38.83,3.45,3.45,0,0,1-.68.7,3.53,3.53,0,0,1-.86.49,2.5,2.5,0,0,1-.94.17,1.67,1.67,0,0,1-.88-.29l-6.46-4.49-19.6,7.44-1.61,7.55a1.46,1.46,0,0,1-.45.79,2.61,2.61,0,0,1-.8.49,3.49,3.49,0,0,1-.94.19,3.17,3.17,0,0,1-1-.09,2.73,2.73,0,0,1-.83-.37,1.36,1.36,0,0,1-.51-.67,1.65,1.65,0,0,1,0-.87l6.14-27.41a2.6,2.6,0,0,1,.71-1.32A4.2,4.2,0,0,1,192.16,43.39Zm-1.29,18,14.56-5.52-11.64-8.13Z"/><path class="cls-2" d="M246.75,33.4l3.37,21.38a1.46,1.46,0,0,1-.41,1.52,4.16,4.16,0,0,1-1.81.63,4.07,4.07,0,0,1-1.88,0,1.48,1.48,0,0,1-.85-1.32L241.8,34.18,230.59,36a1.21,1.21,0,0,1-1.25-.32,3.11,3.11,0,0,1-.52-1.46,3.21,3.21,0,0,1,0-1.55c.13-.37.5-.6,1.09-.69l27.42-4.32a1.24,1.24,0,0,1,1.25.32,3.22,3.22,0,0,1,.52,1.46,3.34,3.34,0,0,1,0,1.55,1.24,1.24,0,0,1-1.1.69Z"/><path class="cls-2" d="M273,26.76a4,4,0,0,1,1.8.27A3.09,3.09,0,0,1,276,28l17.34,22.8a1.64,1.64,0,0,1,.29.86,1.4,1.4,0,0,1-.21.8,2.05,2.05,0,0,1-.62.66,3.06,3.06,0,0,1-.86.45,3.4,3.4,0,0,1-1,.19,2.6,2.6,0,0,1-.95-.13,1.78,1.78,0,0,1-.74-.56l-4.69-6.31-21,.82-3.93,6.64a1.43,1.43,0,0,1-.68.61,2.33,2.33,0,0,1-.91.21,3.18,3.18,0,0,1-.95-.12,2.81,2.81,0,0,1-.9-.4,2.47,2.47,0,0,1-.67-.61,1.48,1.48,0,0,1-.28-.8,1.74,1.74,0,0,1,.24-.84l14.53-24a2.71,2.71,0,0,1,1.1-1A4.2,4.2,0,0,1,273,26.76ZM266,43.37l15.56-.61-8.44-11.4Z"/><path class="cls-2" d="M304.38,54.93q-11.08-1.24-10.31-8.21l1.47-13.23q.78-7,11.87-5.73l18.36,2c.6.07,1,.28,1.12.64A3.28,3.28,0,0,1,327,32a3.32,3.32,0,0,1-.45,1.48,1.24,1.24,0,0,1-1.24.38l-18.21-2a10.38,10.38,0,0,0-4.89.31A2.43,2.43,0,0,0,300.49,34L299,47.27a2.47,2.47,0,0,0,1.27,2.23,10.17,10.17,0,0,0,4.7,1.4l18.25,2c.6.06,1,.28,1.11.63a4.52,4.52,0,0,1-.34,3,1.17,1.17,0,0,1-1.22.39Z"/><path class="cls-2" d="M348,39.15l-5.34,21c-.18.7-.5,1.11-1,1.23a5.38,5.38,0,0,1-3.62-.92,1.47,1.47,0,0,1-.27-1.55l5.34-21-11-2.8c-.59-.15-.93-.41-1-.79a3.31,3.31,0,0,1,.1-1.55,3.31,3.31,0,0,1,.65-1.41,1.25,1.25,0,0,1,1.28-.2L360.08,38c.58.15.92.41,1,.79a3.19,3.19,0,0,1-.1,1.55,3.25,3.25,0,0,1-.65,1.41,1.25,1.25,0,0,1-1.28.2Z"/><path class="cls-2" d="M361.47,66c-.24.69-.59,1.07-1.07,1.15a4.26,4.26,0,0,1-1.9-.3,4.09,4.09,0,0,1-1.63-.92,1.5,1.5,0,0,1-.14-1.57l7.89-22.76c.24-.69.6-1.07,1.08-1.15a5.33,5.33,0,0,1,3.53,1.23,1.46,1.46,0,0,1,.13,1.56Z"/><path class="cls-2" d="M373.79,72.53q-10.19-4.57-7.3-11L372,49.41Q374.83,43,385,47.6l16.85,7.58c.55.25.84.56.87,1a3.25,3.25,0,0,1-.37,1.51,3.33,3.33,0,0,1-.88,1.28,1.26,1.26,0,0,1-1.3,0l-16.71-7.52a10.28,10.28,0,0,0-4.75-1.2,2.43,2.43,0,0,0-2.23,1.29L371,63.59a2.46,2.46,0,0,0,.52,2.51,10.14,10.14,0,0,0,4.05,2.78l16.74,7.53c.55.25.84.56.86.94A4.54,4.54,0,0,1,392,80.12a1.18,1.18,0,0,1-1.29,0Z"/><path class="cls-2" d="M424.1,68.48a4.12,4.12,0,0,1,1.32,1.26,3.09,3.09,0,0,1,.42,1.45l.89,28.63a1.58,1.58,0,0,1-.25.87,1.46,1.46,0,0,1-.64.53,2.21,2.21,0,0,1-.89.18,3.3,3.3,0,0,1-1-.14,3.07,3.07,0,0,1-.9-.41,2.47,2.47,0,0,1-.7-.66,1.58,1.58,0,0,1-.27-.88l-.17-7.86L404.41,80l-7.06,3.13a1.35,1.35,0,0,1-.9.11,2.37,2.37,0,0,1-.87-.36,3,3,0,0,1-.7-.65,3,3,0,0,1-.51-.85,2.35,2.35,0,0,1-.18-.88,1.33,1.33,0,0,1,.24-.81,1.51,1.51,0,0,1,.67-.55L420.89,68a2.57,2.57,0,0,1,1.48-.2A4.16,4.16,0,0,1,424.1,68.48ZM408.81,78l13,8.53-.26-14.19Z"/><path class="cls-2" d="M433.48,109.77q-8.33-7.44-3.65-12.67l12.45-13.95a1.44,1.44,0,0,1,1.43-.64,4,4,0,0,1,1.61,1A4.36,4.36,0,0,1,446.5,85a1.49,1.49,0,0,1-.48,1.5l-12.45,14a2.45,2.45,0,0,0-.27,2.54,10,10,0,0,0,3,3.85l13.78,12.3c.45.4.63.79.54,1.16a3.29,3.29,0,0,1-.8,1.28,3.49,3.49,0,0,1-1.22,1,1.18,1.18,0,0,1-1.23-.38Z"/><path class="cls-2" d="M483.53,156.26a5.75,5.75,0,0,1-6,.88q-3-1.29-6.33-5.71l-6.79-9.18q-6.65-9-1-13.15l10.7-7.91q5.64-4.17,12.28,4.8l3.16,4.27a1.25,1.25,0,0,1,.3,1.26,3.48,3.48,0,0,1-1.06,1.14,3.28,3.28,0,0,1-1.4.68,1.24,1.24,0,0,1-1.11-.65l-3.08-4.16a10.22,10.22,0,0,0-3.55-3.37,2.42,2.42,0,0,0-2.58,0l-10.7,7.91a2.48,2.48,0,0,0-.77,2.45,10.16,10.16,0,0,0,2.17,4.4l6.62,8.94a10,10,0,0,0,3.55,3.35,2.48,2.48,0,0,0,2.56,0l5.39-4a1.5,1.5,0,0,1,1.53-.35,4.13,4.13,0,0,1,1.38,1.3,4.25,4.25,0,0,1,.86,1.73,1.46,1.46,0,0,1-.76,1.38Z"/><path class="cls-2" d="M501.71,150.42a1.55,1.55,0,0,1,2.36.77l9.8,18.78a22.84,22.84,0,0,1,1.76,4.3,12.69,12.69,0,0,1,.52,3.66,6.17,6.17,0,0,1-.68,2.84,4.35,4.35,0,0,1-1.89,1.86l-4.21,2.2a4.34,4.34,0,0,1-2.59.48,6.23,6.23,0,0,1-2.73-1.07,12.49,12.49,0,0,1-2.7-2.52,22.27,22.27,0,0,1-2.52-3.9l-.7-1.33-1.33-2.56c-.38-.73-.71-1.37-1-1.93s-.52-1.07-.73-1.53l-.62-1.34-.06,0c.05.43.11.89.18,1.37s.15,1.1.24,1.81.2,1.6.31,2.63.24,2.32.39,3.85l1,9.75a1.74,1.74,0,0,1-.95,1.86,1.48,1.48,0,0,1-1.54.06,4,4,0,0,1-1.22-1.52c-.08-.15-.18-.35-.29-.59s-.21-.49-.31-.75-.17-.53-.24-.79a2.5,2.5,0,0,1-.07-.75l-1.74-24L482.77,166a1.46,1.46,0,0,1-1.56.09,4.18,4.18,0,0,1-1.18-1.51,4.1,4.1,0,0,1-.55-1.8c0-.48.33-.89,1-1.23ZM502,156l-7.89,4.11,8.09,15.51a23.17,23.17,0,0,0,1.64,2.74,8.59,8.59,0,0,0,1.39,1.55,2.32,2.32,0,0,0,1.16.59,1.63,1.63,0,0,0,1-.18l3.61-1.88a1.66,1.66,0,0,0,.69-.7,2.31,2.31,0,0,0,.2-1.3,8.22,8.22,0,0,0-.48-2,21,21,0,0,0-1.31-2.91Z"/><path class="cls-2" d="M499,204.71q-3.58-10.56,3.05-12.82l12.61-4.28q6.63-2.27,10.23,8.31l3.53,10.39q3.59,10.56-3.05,12.82l-12.61,4.28q-6.63,2.26-10.23-8.31Zm7.34,8.94a10.16,10.16,0,0,0,2.37,4.29,2.48,2.48,0,0,0,2.45.76l12.61-4.28a2.45,2.45,0,0,0,1.49-2.1,10.39,10.39,0,0,0-.75-4.85l-3.43-10.1a10.26,10.26,0,0,0-2.36-4.3,2.42,2.42,0,0,0-2.46-.75l-12.61,4.28a2.46,2.46,0,0,0-1.47,2.09,10.05,10.05,0,0,0,.73,4.85Z"/><path class="cls-2" d="M508.61,238.69q-1.91-11,5-12.2L532,223.3a1.44,1.44,0,0,1,1.52.39,4,4,0,0,1,.65,1.76,4.14,4.14,0,0,1,0,1.91,1.47,1.47,0,0,1-1.3.88l-18.43,3.19c-.8.14-1.39.75-1.79,1.83a10,10,0,0,0,0,4.88l1.93,11.15a10,10,0,0,0,1.67,4.59,2.48,2.48,0,0,0,2.3,1.11l18.43-3.2a1.48,1.48,0,0,1,1.52.39,4,4,0,0,1,.66,1.8,4.14,4.14,0,0,1,0,1.88c-.15.46-.59.75-1.3.87l-18.43,3.2q-6.92,1.2-8.82-9.8Z"/><path class="cls-2" d="M538.3,263.19a1.54,1.54,0,0,1,1.76,1.74l.28,21.38a22,22,0,0,1-.37,4.62,12.35,12.35,0,0,1-1.18,3.51,6.25,6.25,0,0,1-1.89,2.23,4.42,4.42,0,0,1-2.52.81l-5.46.07a4.44,4.44,0,0,1-2.54-.74,6.31,6.31,0,0,1-2-2.18,12.45,12.45,0,0,1-1.27-3.47,22.16,22.16,0,0,1-.5-4.62l-.24-18.13-8,.11a1.46,1.46,0,0,1-1.44-.63,4.14,4.14,0,0,1-.36-1.88,4.06,4.06,0,0,1,.31-1.85,1.48,1.48,0,0,1,1.43-.66Zm-2.27,5-9.53.12.23,17.69a22.18,22.18,0,0,0,.23,3.18,8.7,8.7,0,0,0,.53,2,2.43,2.43,0,0,0,.77,1,1.75,1.75,0,0,0,1,.29l4.71-.07a1.67,1.67,0,0,0,.94-.31,2.34,2.34,0,0,0,.76-1.07,8.57,8.57,0,0,0,.48-2,22.38,22.38,0,0,0,.15-3.19Z"/><path class="cls-2" d="M523.12,311.85q1.53-11.06,8.47-10.1l1.46.2q6.94,1,5.43,12L538,317.7a1.25,1.25,0,0,1-.66,1.11,3.28,3.28,0,0,1-1.55.07,3.23,3.23,0,0,1-1.48-.49,1.25,1.25,0,0,1-.34-1.25l.53-3.84a9.42,9.42,0,0,0-.21-4.77,2.43,2.43,0,0,0-1.88-1.65l-1.46-.2a2.47,2.47,0,0,0-2.24,1.08,9.26,9.26,0,0,0-1.5,4.54L526,321.11q-1.51,11.06-8.47,10.1l-1.87-.25q-6.94-1-5.42-12l2.51-18.3c.09-.6.31-1,.67-1.11a3.27,3.27,0,0,1,1.55-.07,3.2,3.2,0,0,1,1.48.49,1.24,1.24,0,0,1,.34,1.24l-2.53,18.42a9.34,9.34,0,0,0,.2,4.77A2.43,2.43,0,0,0,516.3,326l1.87.26a2.46,2.46,0,0,0,2.24-1.08,9.25,9.25,0,0,0,1.5-4.53Z"/><path class="cls-2" d="M83.14,434.6q-9.56-12.06-2-18.07l14.39-11.39q7.59-6,17.14,6.06l15.82,20a1.73,1.73,0,0,1,.46,1.73,4.37,4.37,0,0,1-1.41,1.61,4.46,4.46,0,0,1-1.89,1c-.53.09-1.05-.2-1.57-.85l-15.69-19.81q-2.83-3.59-5-4.49a3.37,3.37,0,0,0-3.56.16L85.43,421.91c-.87.69-1.19,1.83-1,3.41s1.3,3.57,3.19,6l15.73,19.85a1.68,1.68,0,0,1,.45,1.7,4.83,4.83,0,0,1-1.43,1.6,4.69,4.69,0,0,1-1.86,1c-.53.11-1-.16-1.57-.81Z"/><path class="cls-2" d="M118.11,472.25q-11.89-9.76-5.75-17.24L124,440.83q6.15-7.47,18,2.3l11.7,9.6q11.89,9.78,5.75,17.25l-11.66,14.18q-6.14,7.47-18-2.3Zm15.1,5.14q3.53,2.91,5.9,3.3c1.58.27,2.72,0,3.42-.89l11.65-14.18a3.36,3.36,0,0,0,.23-3.55c-.58-1.48-2-3.19-4.4-5.13l-11.37-9.34q-3.54-2.91-5.89-3.32c-1.56-.28-2.71,0-3.43.91l-11.66,14.18c-.7.86-.77,2-.21,3.53s2,3.21,4.39,5.15Z"/><path class="cls-2" d="M165.68,465.37a2.14,2.14,0,0,1,3.26-1L195,477.53a30.52,30.52,0,0,1,5.41,3.41,17,17,0,0,1,3.53,3.67,8.6,8.6,0,0,1,1.52,3.74,6,6,0,0,1-.62,3.59l-3,5.85a6,6,0,0,1-2.53,2.63,8.56,8.56,0,0,1-3.91,1,17,17,0,0,1-5.05-.66,31.26,31.26,0,0,1-6-2.34l-1.85-.94-3.55-1.79c-1-.51-1.9-1-2.66-1.38s-1.45-.78-2.05-1.12l-1.77-1,0,.09c.4.44.83.9,1.3,1.39s1,1.1,1.73,1.84,1.49,1.63,2.45,2.69,2.14,2.4,3.54,4l8.91,10.15a2.39,2.39,0,0,1,.43,2.84,2,2,0,0,1-1.68,1.31,5.5,5.5,0,0,1-2.58-.72c-.22-.11-.48-.26-.8-.44a10.63,10.63,0,0,1-1-.59c-.32-.22-.62-.45-.91-.69a3.33,3.33,0,0,1-.68-.79L162.09,487.8,156.93,498c-.46.9-1,1.35-1.68,1.36a5.78,5.78,0,0,1-2.53-.75,5.68,5.68,0,0,1-2.07-1.57,2,2,0,0,1,.11-2.16Zm4.72,6-5.54,10.95,21.53,10.89a30.25,30.25,0,0,0,4,1.75,11.68,11.68,0,0,0,2.8.63,3.31,3.31,0,0,0,1.77-.27,2.34,2.34,0,0,0,1-1l2.53-5a2.26,2.26,0,0,0,.22-1.35,3.29,3.29,0,0,0-.82-1.61,12.12,12.12,0,0,0-2.17-1.88,29.48,29.48,0,0,0-3.8-2.21Z"/><path class="cls-2" d="M209.17,487.1a2.13,2.13,0,0,1,3-1.73l28.36,7a30.39,30.39,0,0,1,6,2.11,17,17,0,0,1,4.26,2.8,8.65,8.65,0,0,1,2.32,3.3,6,6,0,0,1,.19,3.64l-1.57,6.36a6.06,6.06,0,0,1-1.88,3.13,8.61,8.61,0,0,1-3.59,1.84,17.28,17.28,0,0,1-5.08.48,31.59,31.59,0,0,1-6.32-1l-2-.5-3.86-1c-1.09-.27-2.06-.52-2.9-.75s-1.58-.44-2.25-.64l-1.94-.59,0,.1c.49.34,1,.69,1.59,1.07l2.09,1.4c.82.56,1.82,1.26,3,2.08s2.62,1.87,4.34,3.12l10.95,7.91a2.37,2.37,0,0,1,1.05,2.67,2,2,0,0,1-1.34,1.65,5.35,5.35,0,0,1-2.68-.13l-.88-.24c-.34-.11-.7-.23-1.05-.37s-.71-.3-1-.47a3.63,3.63,0,0,1-.84-.61l-26.35-20.1-2.76,11.1c-.24,1-.69,1.55-1.33,1.71a5.81,5.81,0,0,1-2.64-.17,5.65,5.65,0,0,1-2.36-1.07,2,2,0,0,1-.38-2.13Zm5.94,4.79-3,11.91,23.42,5.82a31.25,31.25,0,0,0,4.33.8,11.76,11.76,0,0,0,2.87,0,3.28,3.28,0,0,0,1.66-.66,2.24,2.24,0,0,0,.72-1.18l1.36-5.45a2.4,2.4,0,0,0-.09-1.37,3.2,3.2,0,0,0-1.16-1.38,11.17,11.17,0,0,0-2.53-1.35,30,30,0,0,0-4.2-1.31Z"/><path class="cls-2" d="M262.37,518l-.17,6.08c0,1.11.64,2.08,2,2.92s3.57,1.29,6.62,1.37l24.85.69a1.72,1.72,0,0,1,1.62.75,4.37,4.37,0,0,1,.33,2.12,4.53,4.53,0,0,1-.45,2.06,1.68,1.68,0,0,1-1.66.69l-25.05-.7q-15.39-.42-15.12-10.09l.51-18.35q.27-9.68,15.65-9.24l7.75.21a1.63,1.63,0,0,1,1.56.75,4.45,4.45,0,0,1,.34,2.11,4.55,4.55,0,0,1-.45,2.1,1.65,1.65,0,0,1-1.61.65l-7.53-.2c-3.06-.09-5.28.24-6.69,1a3.37,3.37,0,0,0-2.16,2.83l-.18,6.65,33.73.94a1.72,1.72,0,0,1,1.62.74,4.39,4.39,0,0,1,.33,2.12,4.27,4.27,0,0,1-.45,2.09,1.68,1.68,0,0,1-1.65.66Z"/><path class="cls-2" d="M350.47,516.22a7.91,7.91,0,0,1-2.52,7.93c-2.28,2-5.91,3.49-10.89,4.41l-15.49,2.89q-15.13,2.82-16.9-6.68l-3.37-18q-1.77-9.51,13.36-12.33l7.21-1.34a1.73,1.73,0,0,1,1.74.39,4.57,4.57,0,0,1,.77,2,4.46,4.46,0,0,1,0,2.14c-.17.51-.67.84-1.48,1l-7,1.31q-4.5.83-6.33,2.37a3.38,3.38,0,0,0-1.51,3.21l3.37,18.05c.2,1.09,1.06,1.9,2.56,2.43s3.77.51,6.77-.05l15.08-2.81c3-.56,5.1-1.35,6.3-2.39a3.4,3.4,0,0,0,1.49-3.19l-1.7-9.1a2.07,2.07,0,0,1,.48-2.1,5.58,5.58,0,0,1,2.45-.93,5.83,5.83,0,0,1,2.67,0c.65.19,1.07.79,1.25,1.78Z"/><path class="cls-2" d="M365,518.27a2,2,0,0,1-.22,2.16,5.69,5.69,0,0,1-2.32,1.26,5.55,5.55,0,0,1-2.56.36c-.66-.11-1.15-.65-1.47-1.6L348,488.91a2.05,2.05,0,0,1,.22-2.16,5.6,5.6,0,0,1,2.27-1.24,5.76,5.76,0,0,1,2.62-.38c.65.12,1.14.65,1.46,1.6Z"/><path class="cls-2" d="M411.78,489q4.29,8.67-9.52,15.49l-26.44,13a2.13,2.13,0,0,1-3.22-1.14L358.05,487a2.12,2.12,0,0,1,1.09-3.21l26.43-13.05q13.81-6.81,18.09,1.86Zm-34.39,21.5,22.2-11c2.73-1.35,4.56-2.69,5.46-4s1.12-2.5.62-3.49l-8.12-16.46c-.51-1-1.56-1.58-3.17-1.66s-3.77.56-6.51,1.91l-22.19,11Z"/><path class="cls-2" d="M435.75,482.91q-12,9.7-18.05,2.19l-11.57-14.25q-6.09-7.5,5.86-17.21l11.74-9.54q12-9.69,18-2.19l11.57,14.25q6.09,7.51-5.85,17.21Zm8.05-13.77q3.54-2.88,4.41-5.12c.57-1.49.51-2.67-.19-3.53l-11.57-14.25a3.36,3.36,0,0,0-3.43-.93c-1.57.27-3.54,1.36-5.91,3.29l-11.42,9.27c-2.37,1.92-3.85,3.63-4.43,5.11a3.36,3.36,0,0,0,.2,3.55L423,480.78c.7.86,1.84,1.16,3.42.91s3.55-1.35,5.92-3.27Z"/><path class="cls-2" d="M438.49,435a2.14,2.14,0,0,1-.37-3.4l18-23a30.9,30.9,0,0,1,4.4-4.64,17.26,17.26,0,0,1,4.3-2.74,8.7,8.7,0,0,1,4-.76,6.05,6.05,0,0,1,3.4,1.31l5.15,4.05a6,6,0,0,1,2.08,3,8.66,8.66,0,0,1,.21,4,17.41,17.41,0,0,1-1.64,4.82,31.08,31.08,0,0,1-3.46,5.39l-1.28,1.63-2.46,3.13c-.7.89-1.32,1.67-1.87,2.34s-1,1.27-1.5,1.79l-1.34,1.53.08.06c.51-.3,1.05-.64,1.62-1l2.14-1.33c.85-.52,1.89-1.14,3.12-1.87s2.78-1.63,4.62-2.69l11.71-6.74a2.38,2.38,0,0,1,2.87.13,2,2,0,0,1,1,1.91,5.4,5.4,0,0,1-1.21,2.38c-.15.19-.35.43-.59.7a9.75,9.75,0,0,1-.77.82,9.92,9.92,0,0,1-.85.75,3.28,3.28,0,0,1-.9.51l-29.13,15.81,9,7.07a2,2,0,0,1,1,1.91,5.78,5.78,0,0,1-1.24,2.33,5.62,5.62,0,0,1-1.94,1.72,2,2,0,0,1-2.1-.53Zm6.81-3.45,9.65,7.57,14.9-19a30.77,30.77,0,0,0,2.51-3.61,11.39,11.39,0,0,0,1.16-2.63,3.25,3.25,0,0,0,.08-1.78,2.24,2.24,0,0,0-.78-1.15l-4.42-3.47a2.39,2.39,0,0,0-1.28-.47,3.13,3.13,0,0,0-1.74.49,11.3,11.3,0,0,0-2.27,1.75,32.53,32.53,0,0,0-2.92,3.3Z"/><polygon class="cls-3" points="287.66 102.4 325.71 191.18 287.66 241.56 287.66 102.4"/><path class="cls-2" d="M290.16,114.58l32.68,76.25L290.16,234.1V114.58m-5-24.36V249l43.42-57.49L285.16,90.22Z"/><polygon class="cls-3" points="241.78 191.18 279.82 102.4 279.82 241.56 241.78 191.18"/><path class="cls-2" d="M277.33,114.58V234.1l-32.68-43.27,32.68-76.25m5-24.36L238.91,191.53,282.33,249V90.22Z"/><polygon class="cls-3" points="428.76 174.61 382.61 259.45 319.49 260.78 428.76 174.61"/><path class="cls-2" d="M420.74,184.12,381.11,257l-54.22,1.13,93.85-74m16-19L312.08,263.44l71.61-1.51.46-.21.05,0,52.57-96.66Z"/><polygon class="cls-3" points="330.64 193.55 423.9 168.46 314.63 254.63 330.64 193.55"/><path class="cls-2" d="M412.79,174l-93.85,74,13.75-52.46L412.79,174M435,162.88Zm0,0L328.59,191.52l-18.27,69.69L435,162.88Z"/><polygon class="cls-3" points="324.52 298.11 460.19 329.09 365.17 346.42 324.52 298.11"/><path class="cls-2" d="M331.24,302.21l116.52,26.61L366.15,343.7l-34.91-41.49M317.8,294l46.39,55.13,108.43-19.78L317.8,294Z"/><polygon class="cls-3" points="326.26 290.47 383.85 264.6 461.93 321.45 326.26 290.47"/><path class="cls-2" d="M383.56,267.47l67.05,48.83L334.09,289.7l49.47-22.23m.64-5.71-.09.16h-.42l-65.25,29.32L473.25,326.6,384.2,261.76Z"/><polygon class="cls-3" points="285.99 387.4 298.36 325.49 358.83 450.82 285.99 387.4"/><path class="cls-2" d="M299.35,333.29l51.94,107.65-62.56-54.47,10.62-53.18m-2-15.61-14.11,70.65,83.12,72.37-69-143Z"/><polygon class="cls-3" points="305.42 322.08 361.58 350.93 365.89 447.42 305.42 322.08"/><path class="cls-2" d="M310.91,327.71l48.24,24.78,3.7,82.87L310.91,327.71m-11-11.26,69,143L364,349.37l-64.08-32.92Z"/><polygon class="cls-3" points="205.27 350.06 261.68 321.72 200.09 446.5 205.27 350.06"/><path class="cls-2" d="M256.14,327.3l-52.9,107.18,4.45-82.84,48.45-24.34m11.09-11.17-64.29,32.3v0h0l-.06,0-5.9,110,70.28-142.4Z"/><polygon class="cls-3" points="268.71 325.19 280.53 387.2 207.12 449.97 268.71 325.19"/><path class="cls-2" d="M267.65,333l10.15,53.27-63.05,53.91L267.65,333m2.12-15.59-70.28,142.4,83.77-71.63-13.49-70.77Z"/><polygon class="cls-3" points="182.54 264.08 240.35 289.46 104.95 321.6 182.54 264.08"/><path class="cls-2" d="M182.86,267l49.65,21.8L116.23,316.36,182.86,267m-.65-5.74L93.68,326.85l154.5-36.68-66-29Z"/><polygon class="cls-3" points="106.76 329.23 242.16 297.08 201.93 345.74 106.76 329.23"/><path class="cls-2" d="M235.48,301.24,200.92,343l-81.73-14.18,116.29-27.61m13.36-8.32Zm0,0L94.33,329.61l108.58,18.84,0,0,45.9-55.51Z"/><polygon class="cls-3" points="144 166.8 236.81 193.53 251.74 254.88 144 166.8"/><path class="cls-2" d="M155,172.57l79.71,23,12.82,52.69L155,172.57M133,161l122.94,100.5-17-70L133,161Z"/><polygon class="cls-3" points="183.69 258.51 139.04 172.87 246.78 260.94 183.69 258.51"/><path class="cls-2" d="M146.89,182.51l92.53,75.65-54.19-2.09-38.34-73.56m-15.7-19.29L182.14,261l72,2.78L131.19,163.22Z"/></svg>