<svg enable-background="new 0 0 113.4 113.4" viewBox="0 0 113.4 113.4" xmlns="http://www.w3.org/2000/svg"><circle cx="57.2" cy="56.7" fill="#afc910" r="55.5"/><path d="m56.8 0c31.3 0 56.7 25.4 56.6 56.8 0 31.3-25.5 56.6-56.9 56.6-31.2 0-56.6-25.5-56.5-56.8 0-31.3 25.5-56.6 56.8-56.6z" fill="#b0ca10"/><path d="m1.9 56.6c0-30.3 24.6-54.8 55-54.7 30.2 0 54.7 24.7 54.6 55.1-.1 30.2-24.7 54.7-55 54.6-30.2-.1-54.7-24.7-54.6-55z" fill="#fff"/><path d="m96.4 56.6c0 21.9-17.7 39.7-39.7 39.7-21.9 0-39.7-17.8-39.7-39.7 0-21.8 17.8-39.6 39.7-39.6 21.9.1 39.6 17.8 39.7 39.6z" fill="#b0ca0e"/><path d="m86.3 21c1.5-.6 2.8-1.7 4.3-2.4.4.3.8.7 1.3 1.1-1.1 2.3-2.2 4.6-3.3 7-.5-.4-.9-.7-1.3-1 .5-1.5 1.4-2.7 1.8-4.2-1.3.7-2.6 1.4-4 2.2-.4-.3-.8-.7-1.2-1 .4-1.3.9-2.5 1.3-3.8.1-.3-.1-.4-.3-.3-1 .7-2.1 1.5-3.2 2.3-.4-.3-.8-.6-1.3-1 2.1-1.6 4.2-3.1 6.3-4.6.5.4.9.7 1.3 1.1-.5 1.6-1.3 3-1.7 4.6z" fill="#b0cb11"/><path d="m45.5 13.1c.3.2.7.4 1 .6-.1.5-.4.9-.7 1.4-.4-.2-.7-.3-1.1-.5-2 1.7-4.1 1.7-5.8.3-1.5-1.3-1.8-3.3-.8-5 .9-1.6 2.8-2.3 4.5-1.8 2.2.6 3.1 2.1 2.9 5z" fill="#b0cb12"/><path d="m54.8 11.7c.3.3.6.5.9.8-.2.5-.5.9-1 1.2-.3-.2-.7-.5-1-.7-2.8 1.1-4.6.7-5.8-1-1-1.5-.9-3.5.3-4.8 1.3-1.4 3.2-1.8 4.9-.9 1.8 1 2.4 2.7 1.7 5.4z" fill="#b0ca12"/><path d="m25.5 16.1c1.7 1.9 3.3 3.8 5 5.7-.4.4-.8.7-1.2 1.1-.7-.8-1.4-1.6-2.1-2.4-1 .6-1.8 1.5-2.7 2.3.7.9 1.4 1.7 2.1 2.5-.4.4-.8.7-1.2 1-1.7-1.9-3.3-3.7-5-5.6.4-.4.7-.7 1.1-1 .7.5 1.1 1.2 1.8 1.8.8-.7 1.7-1.5 2.6-2.3-.6-.7-1.1-1.3-1.6-2 .5-.3.8-.6 1.2-1.1z" fill="#b0cb12"/><path d="m75.7 15.7c-.5.4-.9.7-1.4 1.1-.5-.2-.9-.5-1.6-.8 2.1-1.8 4.2-3.5 6.3-5.2.5.2 1 .5 1.6.8-.2 2.6-.3 5.3-.5 8-.6 0-1-.4-1.5-.6-.3-.6.1-1.2-.1-1.8-.9-.6-1.9-.9-2.8-1.5z" fill="#b0cb13"/><path d="m35.4 16.9c-.9.6-1.8 1.1-2.8 1.6.1.6.1 1.1.2 1.7-.4.4-.9.7-1.5.8-.3-2.7-.6-5.3-1-8 .5-.3 1-.6 1.5-.9 2.2 1.6 4.3 3.2 6.6 4.8-.6.3-1 .6-1.5.9-.5-.3-.9-.6-1.5-.9z" fill="#b0cb12"/><path d="m63.4 104.2c.7.6 1.3 1.2 2 1.9-.3.3-.5.6-.9 1-.9-.8-1.8-1.7-2.6-2.5-.5 0-.9 0-1.3.2.1.8.1 1.5.2 2.3-.4.3-.7.2-1.2.1-.3-2.7-.6-5.3-.9-8.1 1.1-.1 2.2-.3 3.2-.3 1.2 0 2.2.4 2.7 1.6.5 1.1.3 2.4-.6 3.3-.2.2-.4.3-.6.5z" fill="#b0cb13"/><path d="m60.1 11.8c.5-.2 1-.4 1.4-.5 1.6 1.1 2.5 1.2 3.6.2-.2-.8-.9-.8-1.5-.9s-1.1-.2-1.7-.5c-.7-.4-1.2-1-1.2-1.8.1-.9.5-1.5 1.4-1.9 1.5-.7 3.4-.1 4.4 1.3-.3.4-.8.4-1.2.7-1.8-.8-2.2-.8-3 0 .4.7 1.1.6 1.7.8 1.8.5 2.8 1.4 2.5 2.7-.2 1.3-1.8 2.3-3.5 2-1-.3-2.1-.8-2.9-2.1z" fill="#b0cb13"/><g fill="#b0cb14"><path d="m71.5 99.7c1.6-.2 2.5-1.9 4.2-1.1.4-.4.6-.9 1-1.2 1.2-1 3-.7 3.8.8.5.8.8 1.7 1.2 2.6-.3.4-.7.5-1.1.6-.4-.8-.7-1.5-1.1-2.3s-.9-1.2-1.8-.8c-.8.4-.9 1.1-.5 1.9.3.7.7 1.5 1 2.2-.3.4-.6.5-1.1.5-.3-.7-.7-1.5-1.1-2.3-.3-.7-.9-1.1-1.7-.8s-.9 1-.6 1.8.7 1.6 1 2.3c-.2.5-.7.4-1 .8-.7-1.7-1.4-3.2-2.2-5z"/><path d="m29.5 93.9c.6-.5.9.1 1.4.5-1 1.3-2 2.6-3.1 4-.5-.3-1-.4-.8-1.2-2-.3-3-1.2-3-2.8 0-1.4.9-2.5 2.3-2.8 1.3-.3 2.5.5 3.2 2.3z"/><path d="m22.6 87.8c.9.9 1.7 1.8 2.5 2.6-.3.3-.6.5-.9.9-.8-.9-1.7-1.7-2.5-2.6-.8.8-1.6 1.5-2.3 2.2-.5-.1-.5-.6-1-.8 2-1.9 4-3.8 6-5.7 1.2 1.2 2.3 2.4 3.4 3.6-.2.5-.5.7-.8.9-.9-.8-1.7-1.6-2.7-2.5-.5.3-1.1.8-1.7 1.4z"/><path d="m93.1 89.4c.3-.1.7-.2 1-.2.5 1.5-.1 2.7-1.4 3.3s-2.9 0-3.6-1.2-.3-2.8.8-3.6c1.2-.9 3.1-.6 3.9.7-.1.3-.7.5-.7 1-.3.7-.9 1.1-1.5 1.8 1.2-.3 1.1-1.2 1.5-1.8z"/><path d="m70.7 103.8c.2.1.5.1.7.4-.6 1.5-1.8 2.2-3.2 1.9s-2.3-1.5-2.2-3c .1-1.4 1.1-2.5 2.5-2.6 1.5-.1 2.6.7 3.1 2.5-.1.3-.4.3-.7.4-.8.5-1.6.7-2.6.9.6.5 1 .1 1.4-.1.3-.2.5-.6 1-.4z"/><path d="m69.7 7.5c.6-.1 1 .2 1.6.3-.6 1.9-1.1 3.7-1.7 5.6 1 .3 2 .6 3 1-.2.5-.3 1-.5 1.5-1.5-.5-3-.9-4.6-1.4.7-2.4 1.4-4.7 2.2-7z"/></g><path d="m81.2 96.3c.1-1.6 1.4-2.8 2.9-2.7s2.7 1.3 2.7 2.8-1.4 2.8-2.9 2.8c-1.5-.1-2.8-1.4-2.7-2.9z" fill="#b1cb15"/><path d="m36.2 101.5c0-1.6 1.2-2.8 2.7-2.8s2.8 1.3 2.8 2.8-1.2 2.8-2.7 2.8-2.8-1.2-2.8-2.8z" fill="#b1cb15"/><path d="m30.4 99.9c-.5-.1-.8-.3-1.1-.6.8-1.4 1.6-2.9 2.6-4.5.7.9 1.9.9 2.7 1.5 1 .7 1.4 2 .9 3.2-.2.4-.4.8-.7 1.2-.2.4-.5.9-.7 1.3-.5-.1-.8-.3-1.1-.6.4-.7.8-1.4 1.2-2.1.4-.8.3-1.6-.5-2-.8-.5-1.6-.2-2.1.6-.4.6-.8 1.3-1.2 2z" fill="#b1cb16"/><path d="m53.7 102.8c-.5.3-.9.6-1.4.4-.4-.2-.9-.4-1.2.2.2.4.6.4 1 .5 1.2.3 1.9 1 1.8 1.9s-1.1 1.7-2.2 1.6c-.9 0-1.6-.4-2.2-1.2.2-.4.6-.4 1-.5.7.2 1.4.8 2.2-.1-1.2-.8-4-.4-2.5-3.1.5-1.2 2.3-.9 3.5.3z" fill="#b1cb16"/><path d="m44.5 100.7c0 .8-.3 1.4-.4 2.1-.4 1.8.3 2.5 2.3 2 .8-.9.6-2.2 1.1-3.3.4-.2.7 0 1.1.1-.1 1.1-.3 2.1-.7 3.1-.5 1.3-1.6 1.8-3 1.5-1.5-.4-2.3-1.2-2.2-2.7 0-.2 0-.3 0-.5.2-.9.4-1.7.6-2.6.5 0 .9.2 1.2.3z" fill="#b1cb17"/><path d="m84.7 92.1c.2-.2.3-.4.5-.7-.5-.7-1.1-1.3-1.6-2 .2-.4.5-.6.9-.9.5.6 1.1 1.2 1.6 1.9.5.1.6-.4 1-.5.4.1.5.5.8.8 0 .5-.5.5-.7 1 .9 1 1.7 2.1 2.6 3.1-.1.5-.5.7-.9.9-.9-1-1.8-2.1-2.6-3.1-.4-.2-.5.3-.9.2-.2-.2-.4-.5-.7-.7z" fill="#b1cb15"/><path d="m58.7 13.2c-.6.1-1 .1-1.5 0 0-2.4 0-4.9 0-7.4.6-.1 1.1-.1 1.5.1z" fill="#b1cb16"/><path d="m70.7 103.8c-.4 0-.5.4-.8.6-.7.7-1.5.7-2.3-.1 1.1-.4 2.2-.7 3.3-.9 0 .1-.1.2-.2.4z" fill="#fcfdf8"/><path d="m84.9 18.6c.1-.2.2-.3.2-.5.4.5.3.7.1.8-.1-.1-.2-.2-.3-.3z" fill="#ecf1d1"/><path d="m56.3 20.1c.9-.2 1.1.5 1.4.9 7.8 9.8 15.5 19.6 23.3 29.4 1.6 2.1 3.3 4.1 5 6.3-9.7 12.2-19.3 24.4-28.8 36.5-1 .4-1.3-.4-1.7-.9-4.4-5.5-8.8-11.1-13.2-16.7-4.7-5.8-9.4-11.7-14.1-17.7-.3-.3-.6-.6-.7-1.3 9.6-12.1 19.2-24.2 28.8-36.5z" fill="#fff"/><path d="m89.1 21.5c0-.1.1-.1.1-.2.1.2 0 .2-.1.2z" fill="#dde69f"/><path d="m86.3 21s0 .1 0 0z" fill="#d2de7f"/><path d="m43.9 12.1c-.6 0-1-.5-1.7-.6-.2.4-.4.8-.6 1.2.4.5 1.1.5 1.3 1-1 .7-2 .6-2.8-.1s-1-1.9-.5-2.9c.5-.9 1.7-1.4 2.7-1.1 1.1.4 1.6 1.2 1.6 2.5z" fill="#fefefe"/><path d="m53.3 10.5c-.3-.2-.5-.4-.7-.6s-.4-.3-.6-.5c-.5.2-.7.7-1 1.1.2.6.9.7 1.2 1.2-1 .5-2.1.3-2.7-.6-.7-.8-.7-2 0-2.9s1.9-1.2 2.9-.6c.9.6 1.3 1.6.9 2.9z" fill="#fefefd"/><path d="m77.2 14.6c.1-.1.1-.3.2-.3.4-.3.8-.6 1.3-1 .2.7 0 1.3 0 2-.7-.1-1.1-.4-1.5-.7z" fill="#fcfdf9"/><path d="m32.1 14.4c.8.6 1.3.9 1.8 1.3-.4.5-.9.6-1.4.9-.1-.6-.2-1.3-.4-2.2z" fill="#fafbf2"/><path d="m60.5 103.4c-.3-1-.3-2-.4-3 1-.3 2.1-.6 3.1.2.5.4.5 1.2.3 1.7-.7 1.2-1.9 1-3 1.1z" fill="#fefefd"/><path d="m26.8 92.8c.8 0 1.5.8 1.4 1.5-.1.9-.6 1.5-1.5 1.4-.9 0-1.4-.5-1.5-1.5 0-.7.7-1.5 1.6-1.4z" fill="#fefefd"/><path d="m90.1 90.6c-.4-1.6.4-2.5 2-2.1-.7.6-1.3 1.3-2 2.1z" fill="#f9fbf0"/><path d="m93.1 89.4c.1 1.6-.5 2.1-2.2 2.1.8-.8 1.3-1.7 2.2-2.1z" fill="#fdfdfa"/><path d="m67.2 103c .6-1.5 1.6-1.8 2.8-.7-.9.3-1.8.5-2.8.7z" fill="#fbfcf4"/><path d="m85.4 96.4c0 .9-.6 1.4-1.5 1.4-.8.1-1.6-.7-1.6-1.5s.8-1.5 1.6-1.5c1.1.1 1.5.6 1.5 1.6z" fill="#fefefd"/><path d="m40.5 101.5c0 .8-.8 1.6-1.6 1.5-.9-.1-1.4-.6-1.5-1.5-.1-.8.7-1.6 1.5-1.6.9 0 1.6.8 1.6 1.6z" fill="#fefefc"/><path d="m28.9 56.8c9.2-11.7 18.4-23.4 27.7-35.2v70.2c-9.3-11.7-18.5-23.3-27.7-35z" fill="#b0ca0e"/><path d="m67.1 46.9c1.8.1 3.5.2 5.5.2-1.6 1.2-2.9 2.3-4.4 3.4.5 1.7 1 3.4 1.6 5.3-1.6-1.1-3.1-2.1-4.6-3.1-1.5 1-2.9 2-4.6 3.1.6-1.9 1-3.6 1.6-5.3-1.4-1.1-2.8-2.2-4.4-3.4 2-.1 3.7-.2 5.5-.2.6-1.7 1.2-3.3 1.9-5.2.7 1.8 1.3 3.5 1.9 5.2z" fill="#b0cb0f"/><path d="m62.2 64.5c-1.4-1.1-2.8-2.2-4.3-3.4 2-.1 3.7-.2 5.5-.2.6-1.7 1.2-3.3 1.9-5.2.6 1.8 1.2 3.5 1.9 5.2 1.7.1 3.5.2 5.5.3-1.5 1.2-2.9 2.3-4.3 3.4.5 1.7 1 3.4 1.5 5.3-1.6-1.1-3.1-2.1-4.6-3.1-1.5 1-2.9 2-4.6 3.1.5-1.9 1-3.6 1.5-5.4z" fill="#b0cb0f"/><path d="m52.6 62.9c-1.7-1.1-3.1-2.1-4.6-3.1-1.5 1-2.9 2-4.6 3.1.5-1.9 1-3.6 1.5-5.3-1.4-1.1-2.8-2.1-4.3-3.4 2-.1 3.7-.2 5.5-.3.6-1.7 1.2-3.4 1.9-5.2.7 1.8 1.3 3.5 1.9 5.2 1.8.1 3.5.2 5.5.2-1.5 1.2-2.9 2.2-4.3 3.4.4 1.7.9 3.4 1.5 5.4z" fill="#fff"/></svg>