<?xml version="1.0" encoding="UTF-8"?>
<svg id="Capa_2" data-name="Capa 2" xmlns="http://www.w3.org/2000/svg" viewBox="0 0 566.93 566.93">
  <defs>
    <style>
      .cls-1 {
        fill: #f4f6e7;
      }

      .cls-1, .cls-2, .cls-3 {
        stroke-width: 0px;
      }

      .cls-2 {
        fill: #4d6f38;
      }

      .cls-3 {
        fill: #a22428;
      }
    </style>
  </defs>
  <circle class="cls-2" cx="283.46" cy="283.46" r="269.29"/>
  <g>
    <path class="cls-3" d="M528.88,283.47c0-127.51-103.3-231.34-230.61-232.23v36.34c107.27.89,194.26,88.41,194.26,195.89s-87,195-194.26,195.88v36.34c127.31-.89,230.61-104.71,230.61-232.23Z"/>
    <path class="cls-3" d="M270.3,479.37c-108.02,0-195.91-87.88-195.91-195.91s87.88-195.91,195.91-195.91c.55,0,1.09.02,1.64.02v-36.34c-.55,0-1.09-.02-1.64-.02-128.06,0-232.25,104.19-232.25,232.25s104.19,232.25,232.25,232.25c.55,0,1.09-.02,1.64-.02v-36.34c-.55,0-1.09.02-1.64.02Z"/>
  </g>
  <g>
    <path class="cls-1" d="M226.96,249.04l-.17-.05c-.88.15-88.32,15.54-114.48,34.31l.06.17-.06.17c26.16,18.77,113.6,34.15,114.48,34.31l.17-.05,33.98-34.28-.06-.15.06-.15-33.98-34.28Z"/>
    <path class="cls-1" d="M520.74,283.34c-16.9-23.6-105.09-51.19-109.08-52.43v-74.62l-.09-.16-30.96-18.12-.23.03-96.91,96.53-96.91-96.53-.23-.03-30.96,18.12-.09.16v74.62c-4,1.24-92.18,28.83-109.08,52.43l.06.13-.06.13c16.9,23.6,105.09,51.19,109.08,52.43v74.62l.09.16,30.96,18.12.23-.03,96.91-96.53,96.91,96.53.23.03,30.96-18.12.09-.16v-74.62c4-1.24,92.18-28.83,109.08-52.43l-.06-.13.06-.13ZM376.91,375.44l-25.83-25.83c3.11-.38,22.56-2.87,25.79-5.59-.23,3.45-.11,18.47.04,31.42ZM190.06,344.02c3.23,2.72,22.68,5.21,25.79,5.59l-25.83,25.83c.15-12.95.27-27.97.04-31.42ZM190.02,191.48l25.83,25.83c-3.11.38-22.56,2.87-25.79,5.59.23-3.45.11-18.47-.04-31.42ZM376.87,222.91c-3.23-2.72-22.68-5.21-25.79-5.59l25.83-25.83c-.15,12.95-.27,27.97-.04,31.42ZM283.21,283.47c-2.69,2.63-48.6,47.44-50.42,49.21-29.02-.02-69.39-13.43-98.16-24.68-29.34-11.47-52.89-23.09-55.8-24.53,2.91-1.45,26.46-13.06,55.8-24.53,28.77-11.25,69.14-24.65,98.16-24.68,1.82,1.77,47.73,46.58,50.42,49.21ZM432.3,308c-28.77,11.25-69.14,24.65-98.16,24.68-1.82-1.77-47.73-46.58-50.42-49.21,2.69-2.63,48.6-47.44,50.42-49.21,29.02.02,69.39,13.43,98.16,24.68,29.34,11.47,52.89,23.09,55.8,24.53-2.91,1.45-26.46,13.06-55.8,24.53ZM488.49,283.48v-.02s0-.02,0-.02v.03Z"/>
    <path class="cls-1" d="M340.11,249.01l-.17.05-33.98,34.28.07.17-.04.1,33.98,34.28.17.05c.88-.15,88.32-15.54,114.48-34.31l-.06-.2.04-.11c-26.16-18.77-113.6-34.15-114.48-34.31Z"/>
  </g>
</svg>