<svg id="Capa_1" data-name="Capa 1" xmlns="http://www.w3.org/2000/svg" viewBox="0 0 566.93 566.93"><defs><style>.cls-1{fill:#e6e6e6;}.cls-2{fill:#8c1002;}.cls-3{fill:#be1622;}</style></defs><circle class="cls-1" cx="283.46" cy="283.46" r="278.66" transform="translate(-117.41 283.46) rotate(-45)"/><path class="cls-2" d="M283.46,14.17c-148.72,0-269.29,120.57-269.29,269.29s120.57,269.3,269.29,269.3,269.3-120.57,269.3-269.3S432.19,14.17,283.46,14.17Zm0,470.58c-111,0-201.28-90.3-201.28-201.29S172.48,82.18,283.46,82.18s201.29,90.3,201.29,201.28S394.45,484.75,283.46,484.75Z"/><path class="cls-1" d="M138.68,465.48l.14-.2.49-.67a2.69,2.69,0,0,0,.32-.59.94.94,0,0,0-.15-1.12l-.27-.34a.94.94,0,0,1,.08-1.17c.42-.58,1-.61,1.75-.06l12.15,8.89a6.42,6.42,0,0,0,.7.48,2.69,2.69,0,0,0,.7.1,1.67,1.67,0,0,1,1.12.3c.44.32.54.54.49,1.36l-.4,5.58a1.26,1.26,0,0,1-.13.69.89.89,0,0,1-.67.25.87.87,0,0,1-.62-.16,1.67,1.67,0,0,1-.47-1,9.73,9.73,0,0,0-4.38-7l-1.84-1.35a2.65,2.65,0,0,0-1.61-.7c-.32,0-.65.28-1.29,1.15l-1.22,1.67a.93.93,0,0,0,.2,1.41l1.39.94c1,.71,1.3.76,2.29.37.41-.14.6-.15.87,0l.07.06a.84.84,0,0,1,.33.5,4.6,4.6,0,0,1-.11.62l-.78,5.23a1.31,1.31,0,0,1-.21.59,1,1,0,0,1-1.32.08c-.19-.14-.31-.45-.41-1a10.41,10.41,0,0,0-.74-2.4,6.28,6.28,0,0,0-1.65-1.91l-1.33-.94c-.6-.44-.94-.39-1.38.22l-3.13,4.28c-1.1,1.51-1.27,2.09-.87,2.61l.29.32a1,1,0,0,1-.05,1.19c-.43.58-1,.6-1.75,0l-7.07-5.17c-.78-.57-.93-1.12-.49-1.73s.55-.64,1.49-.21,1.17.08,2.34-1.52l.54-.73Z"/><path class="cls-1" d="M156.05,478c.3-.49.46-.81.55-1a4.88,4.88,0,0,0,.27-.56.94.94,0,0,0-.23-1.13l-.3-.32a1,1,0,0,1,0-1.17c.37-.62.94-.69,1.74-.21l7.29,4.4c.82.5,1,1,.63,1.68a.92.92,0,0,1-1.06.48l-.42-.11c-.35-.11-.61,0-.95.41a6.08,6.08,0,0,0-1,1.43l-5.93,9.81c-.88,1.46-.75,2,.67,2.85l1.6,1a10.13,10.13,0,0,0,1.68.87,8.15,8.15,0,0,0,3.6.31l1.22-.17a1.65,1.65,0,0,1,1,.15,1,1,0,0,1,.42.57,1.19,1.19,0,0,1,0,.89,1.56,1.56,0,0,1-.55.44L161,501.28c-.7.34-.79.36-1.22.1a1.61,1.61,0,0,1-.74-1.28,1.37,1.37,0,0,0-.83-1.17l-11.28-6.81c-.82-.5-1.05-1.06-.66-1.7a1,1,0,0,1,1.06-.48l.44.16c.72.19,1-.08,2.06-1.8l.5-.83Z"/><path class="cls-1" d="M170.16,501.39a1.62,1.62,0,0,0-.41.56c-.22.43-.13.68.39,1.1.68.46.8.82.5,1.45s-.9.75-1.74.35l-5.72-2.8c-.86-.42-1.1-.94-.78-1.61s.63-.73,1.44-.47a2,2,0,0,0,1.67-.15,6.76,6.76,0,0,0,1.55-1.18l13.36-11.44c.42-.36.67-.41,1.05-.22l5.2,2.54c.41.2.54.4.45,1l-1.79,17.06a5.68,5.68,0,0,0-.06,1.9,1.94,1.94,0,0,0,.94,1.43c.68.46.79.85.5,1.44s-.91.76-1.74.36l-9-4.42c-.87-.42-1.11-.94-.78-1.61s.61-.71,1.43-.47c.63.14.91,0,1.17-.5a3.67,3.67,0,0,0,.19-.51l.19-1.14,0,.28.11-.91-.92-.58-4.82-2.36-1-.41-.71.69.2-.2Zm5.1-3.22,2.39,1.13c.49.24.75.24.9-.06a2.21,2.21,0,0,0,.13-.47l.47-4.24c0-.36,0-.61-.09-.65s-.32.05-.56.26L175.11,497a1.11,1.11,0,0,0-.2.27A.63.63,0,0,0,175.26,498.17Z"/><path class="cls-1" d="M190,509.75l7.63-10.08a6,6,0,0,0,1-1.58c.15-.42,0-.65-.44-.91-.83-.55-.9-.7-.66-1.41s.79-.9,1.67-.59l6.74,2.36c.94.33,1.24.82,1,1.52s-.43.77-1.41.66c-.46,0-.67,0-.79.35a5.43,5.43,0,0,0,0,2.11l.43,3.42a.29.29,0,0,0,.22.27.43.43,0,0,0,.34-.07l2.25-2.52a4.51,4.51,0,0,0,1.14-1.54c.15-.42,0-.65-.52-.94-.71-.44-.85-.77-.63-1.4s.78-.87,1.66-.56l6.54,2.29c.91.32,1.23.78,1,1.48s-.37.8-1.39.69c-.48-.07-.67,0-.81.42a5.54,5.54,0,0,0-.09,2l.58,13a9.32,9.32,0,0,0,.16,1.9,1.56,1.56,0,0,0,.5,1.1l.4.24a1,1,0,0,1,.29,1.15c-.23.68-.78.87-1.71.54l-8.84-3.09c-.93-.33-1.24-.82-1-1.52s.56-.79,1.39-.63c.65.07.88,0,1-.5a5,5,0,0,0,.17-1.84l-.06-6a.41.41,0,0,0-.27-.41.4.4,0,0,0-.47.15l-7.08,8a.61.61,0,0,1-.52.23.58.58,0,0,1-.34-.5l-1.09-10.88a.54.54,0,0,0-.26-.44c-.14-.05-.34.07-.45.22l-3.48,4.67a6,6,0,0,0-1,1.5c-.17.48,0,.75.52,1,.74.45.89.73.65,1.41s-.81.89-1.69.58l-5.07-1.77c-.91-.32-1.21-.81-1-1.52a.92.92,0,0,1,.94-.69h.45C188.39,511.75,188.76,511.4,190,509.75Z"/><path class="cls-1" d="M219.81,519.89l6.27-11a5.81,5.81,0,0,0,.82-1.7c.1-.44,0-.65-.55-.85-.89-.43-1-.58-.83-1.31s.67-1,1.58-.8l7,1.48c1,.2,1.34.65,1.18,1.38s-.32.82-1.31.83c-.46,0-.66.1-.74.45a5.7,5.7,0,0,0,.3,2.09l.86,3.34a.29.29,0,0,0,.25.24A.47.47,0,0,0,235,514l1.91-2.78a4.85,4.85,0,0,0,.94-1.67c.09-.44-.05-.66-.65-.88-.75-.34-.93-.65-.8-1.3s.67-1,1.58-.77l6.78,1.43c.94.2,1.31.62,1.15,1.35s-.27.83-1.28.86c-.49,0-.67.11-.76.52a6,6,0,0,0,.17,2l2.23,12.79a10.32,10.32,0,0,0,.4,1.87,1.6,1.6,0,0,0,.64,1l.43.18a1,1,0,0,1,.44,1.11c-.15.7-.67,1-1.63.76l-9.16-1.94c-1-.21-1.33-.65-1.18-1.39s.46-.85,1.3-.79c.65,0,.86-.16,1-.63a5.05,5.05,0,0,0-.06-1.85l-.83-5.94a.41.41,0,0,0-.77-.16l-6,8.88a.56.56,0,0,1-.49.29.54.54,0,0,1-.4-.45l-2.47-10.64c0-.19-.2-.38-.31-.4s-.33.11-.43.28l-2.85,5.07a5.84,5.84,0,0,0-.77,1.61c-.11.5.06.75.65,1,.79.35,1,.6.83,1.31s-.7,1-1.61.79l-5.25-1.11c-.94-.2-1.31-.64-1.15-1.38a.91.91,0,0,1,.84-.8l.44-.06C218.43,522.08,218.75,521.69,219.81,519.89Z"/><path class="cls-1" d="M255.26,527.52a1.71,1.71,0,0,0-.18.68c0,.48.12.67.76.88.8.19,1,.49,1,1.17s-.57,1-1.5,1l-6.33-.57c-1-.09-1.38-.49-1.31-1.23s.32-.91,1.17-.95a2,2,0,0,0,1.51-.74,6.66,6.66,0,0,0,1-1.65l8.41-15.45c.26-.49.48-.62.9-.58l5.77.52c.44.05.64.18.77.77l4.4,16.57a5.67,5.67,0,0,0,.62,1.8,2,2,0,0,0,1.39,1c.79.19,1,.52,1,1.18s-.58,1-1.51.94l-10-.9c-1-.09-1.37-.49-1.31-1.24s.32-.87,1.17-.94c.64-.1.87-.29.93-.88a5.22,5.22,0,0,0,0-.55l-.23-1.13.06.28-.22-.9-1.06-.21-5.35-.49-1.05,0-.41.89.11-.26Zm3.63-4.82,2.63.21c.54.05.79,0,.82-.38a1.94,1.94,0,0,0,0-.49l-1.07-4.13c-.12-.34-.22-.56-.31-.57s-.28.16-.43.44l-2.16,3.87a1.06,1.06,0,0,0-.09.33A.63.63,0,0,0,258.89,522.7Z"/><path class="cls-1" d="M280.27,512.58c0-.72.4-1.1,1.33-1.14L291,511c.93,0,1.39.3,1.42,1.05s-.11.91-1,1.1c-.56.17-.7.36-.68.78a5.39,5.39,0,0,0,.59,1.83l4.24,9.69a.43.43,0,0,0,.34.26c.21,0,.35-.17.46-.41l3.5-9.92a4.69,4.69,0,0,0,.49-1.85c0-.45-.27-.62-.91-.74s-1.09-.37-1.12-1,.4-1.1,1.33-1.14l5.54-.25c1,0,1.45.3,1.49,1.05a1,1,0,0,1-.62,1l-.45.11c-.26.1-.49.38-.74.9s-.32.71-.7,1.77l-6.13,16.7c-.14.39-.16.42-.64.45l-6.12.27a.66.66,0,0,1-.77-.42L283,516.16a9.43,9.43,0,0,0-.86-1.71c-.26-.53-.51-.76-.75-.78l-.43-.13A1,1,0,0,1,280.27,512.58Z"/><path class="cls-1" d="M306.56,514.92a5.77,5.77,0,0,0-.39-1.7.88.88,0,0,0-.92-.69,2.18,2.18,0,0,1-.43-.09.94.94,0,0,1-.76-.86c-.11-.74.29-1.16,1.21-1.29l13.1-1.85a1.9,1.9,0,0,0,1.25-.54,1.6,1.6,0,0,0,.44-.37,1.8,1.8,0,0,1,.66-.24c.51-.07.7,0,1.2.59l3.14,3.52a1.75,1.75,0,0,1,.44.76.81.81,0,0,1-.18.63,1.08,1.08,0,0,1-.7.46c-.2,0-.5-.11-1.06-.45a6.32,6.32,0,0,0-1.15-.66,14.17,14.17,0,0,0-1.81-.74,8.6,8.6,0,0,0-3.22-.12l-1.58.22c-1.66.23-2,.67-1.73,2.3l.28,2a.89.89,0,0,0,1.12.85l1.07-.16c.5-.07.64-.21.82-.84s.5-1,1-1a1.18,1.18,0,0,1,1.08.55l3.25,3.69a1.7,1.7,0,0,1,.43.73.86.86,0,0,1-.26.73,1.11,1.11,0,0,1-.72.47,2.31,2.31,0,0,1-1.12-.42,12.37,12.37,0,0,0-1.95-.94,5.15,5.15,0,0,0-2.14-.12l-1,.15a.93.93,0,0,0-.83,1.15l.69,4.93c.23,1.6.64,1.94,2.3,1.7l2.39-.27a14.32,14.32,0,0,0,3.9-1.1,7.67,7.67,0,0,0,2.74-2.48c.36-.5.57-.74.86-.79a1.06,1.06,0,0,1,1.11.79,1.89,1.89,0,0,1-.16.81l-2,5.31c-.27.71-.43.85-.84.91a1.87,1.87,0,0,1-1.35-.51,2.06,2.06,0,0,0-.63-.36,2.82,2.82,0,0,0-.93,0l-14.79,2.09c-1,.13-1.48-.16-1.58-.87a1,1,0,0,1,.52-1.07,4.19,4.19,0,0,0,.43-.16,1,1,0,0,0,.69-.91,8.14,8.14,0,0,0-.16-1.77l-.11-.77Z"/><path class="cls-1" d="M338.5,522.79c.21.85.6,1.21,1.26,1.24a2.62,2.62,0,0,0,.43,0,1,1,0,0,1,.84.79c.17.73-.18,1.18-1.08,1.41l-8.48,2.06c-.93.23-1.49,0-1.66-.74a1,1,0,0,1,.41-1.08,3.05,3.05,0,0,0,.42-.2,1,1,0,0,0,.61-1,5.25,5.25,0,0,0-.27-1.73l-.14-.58-2.71-11.1a5.08,5.08,0,0,0-.56-1.66.92.92,0,0,0-1-.62,1.86,1.86,0,0,0-.44,0,1,1,0,0,1-.84-.78c-.18-.73.18-1.19,1.08-1.41L336,505c7.72-1.88,13.4.16,14.65,5.29a6.67,6.67,0,0,1-.16,3.74c-.62,1.54-1.37,2.25-3.38,3.23l2.45,1.72a11.28,11.28,0,0,0,2,1.29,2.93,2.93,0,0,0,1.78.47c.85-.06,1.11.13,1.26.77s-.17,1.18-1.07,1.4l-9.94,2.43c-.9.22-1.43,0-1.6-.76a.93.93,0,0,1,.41-1.09l.39-.18c.23-.18.38-.34.34-.49a.88.88,0,0,0-.29-.42A10.89,10.89,0,0,0,341.3,521L340,520l-.41.1-.79.19c-.11,0-.18,0-.27,0-.41.1-.6.33-.5.74l.17.67Zm-3.13-12.95,1.5,6.15c.24,1,1.24,1.28,2.84.89,2.8-.69,4-2.47,3.42-5a5.12,5.12,0,0,0-6.17-4C335.62,508.21,335.12,508.82,335.37,509.84Z"/><path class="cls-1" d="M351.37,505.78c-.59-1.77-.93-2.22-1.61-2.15h-.47a.93.93,0,0,1-.92-.74c-.23-.68.09-1.16,1-1.47l8-2.71c.91-.3,1.45-.11,1.69.6a1,1,0,0,1-.32,1.12l-.37.22c-.4.3-.48.83-.2,1.66l.36,1.05,3.86,11.42c.59,1.77,1,2.21,1.66,2.13h.45a.91.91,0,0,1,.91.74c.24.68-.08,1.16-1,1.46l-8.24,2.79c-.91.3-1.48.11-1.72-.6a1,1,0,0,1,.32-1.12c.05,0,.18-.12.38-.28.63-.38.72-.85.33-2a3.8,3.8,0,0,0-.31-.72Z"/><path class="cls-1" d="M366.4,499.68c-.27-.67-.58-.8-1.19-.56l-.57.29a2.75,2.75,0,0,0-.74.4,6.5,6.5,0,0,0-1.87,2.75c-.25.68-.45,1.15-.55,1.38a1.72,1.72,0,0,1-.81.81,1.08,1.08,0,0,1-.69.05.89.89,0,0,1-.67-.47,1.55,1.55,0,0,1-.05-.76l.71-6a1.15,1.15,0,0,1,.79-.93,1.42,1.42,0,0,1,.76-.14l.61.24a1.89,1.89,0,0,0,1.42-.15l10.47-4.2a1.62,1.62,0,0,0,1.09-.92c.27-.53.46-.7.74-.81.59-.24.76-.21,1.31.28l4.23,3.93a1.67,1.67,0,0,1,.32.42,1,1,0,0,1-.65,1.26,1.61,1.61,0,0,1-1.28-.13l-1.18-.6a5.19,5.19,0,0,0-4-.51l-.66.23c-.66.26-.8.58-.54,1.22l4.82,12a10.88,10.88,0,0,0,.7,1.59,1,1,0,0,0,1,.55l.42-.07a1,1,0,0,1,1,.67c.27.67,0,1.18-.91,1.53l-8,3.22c-.87.35-1.42.18-1.7-.51a1,1,0,0,1,.26-1.14l.35-.24c.65-.49.61-.92-.13-2.76l-.25-.61Z"/><path class="cls-1" d="M388.33,505.61a2.14,2.14,0,0,0,.2.67c.22.43.46.51,1.12.34s1.14-.13,1.45.48,0,1.19-.78,1.6l-5.68,2.85c-.86.43-1.43.31-1.76-.36s-.2-.94.49-1.42a2,2,0,0,0,.9-1.42,6.87,6.87,0,0,0,0-2l-1-17.56c0-.55.08-.77.45-1l5.18-2.6c.4-.2.64-.19,1.06.24l12.47,11.77a5.39,5.39,0,0,0,1.48,1.2,1.9,1.9,0,0,0,1.7.12c.78-.25,1.15-.11,1.45.48s.05,1.18-.78,1.6l-9,4.5c-.86.43-1.42.31-1.76-.36s-.19-.91.5-1.42c.49-.41.59-.7.32-1.23a3.58,3.58,0,0,0-.3-.46l-.79-.84.2.2-.66-.64-1,.37-4.8,2.41-.91.52.12,1,0-.28Zm.55-6,2.34-1.21c.49-.25.65-.46.5-.76a1.94,1.94,0,0,0-.3-.38l-3.09-2.95c-.28-.23-.48-.36-.56-.32s-.16.28-.13.6l.2,4.43a1.16,1.16,0,0,0,.1.32A.64.64,0,0,0,388.88,499.6Z"/><path class="cls-1" d="M401.61,482.69c-.38-.62-.71-.7-1.27-.35l-.51.38a2.8,2.8,0,0,0-.66.52,6.44,6.44,0,0,0-1.38,3c-.13.72-.25,1.21-.31,1.46a1.63,1.63,0,0,1-.66.93,1,1,0,0,1-.67.17.91.91,0,0,1-.74-.35,1.4,1.4,0,0,1-.17-.74l-.31-6a1.13,1.13,0,0,1,.62-1.05,1.4,1.4,0,0,1,.72-.26l.64.13a1.89,1.89,0,0,0,1.38-.39l9.61-5.91a1.63,1.63,0,0,0,.92-1.09c.18-.56.33-.77.59-.92.54-.33.71-.33,1.34.06l4.83,3.16a1.93,1.93,0,0,1,.39.35,1,1,0,0,1-.43,1.36,1.63,1.63,0,0,1-1.29.08l-1.26-.38a5.18,5.18,0,0,0-4,.16l-.61.33c-.61.38-.69.71-.33,1.3l6.78,11a9.65,9.65,0,0,0,1,1.45.94.94,0,0,0,1,.38l.4-.14a1,1,0,0,1,1.08.5c.38.61.16,1.17-.63,1.65l-7.39,4.54c-.79.49-1.36.42-1.76-.22a1,1,0,0,1,.06-1.17,3.23,3.23,0,0,0,.31-.29c.56-.59.44-1-.6-2.7l-.34-.56Z"/><path class="cls-1" d="M415.73,474.64c-1.08-1.51-1.54-1.85-2.16-1.58l-.46.14a.92.92,0,0,1-1.08-.44c-.42-.59-.27-1.14.51-1.7l6.88-4.92c.78-.56,1.36-.53,1.79.08a1,1,0,0,1,0,1.16l-.29.32c-.31.4-.22.93.28,1.64l.65.9,7,9.81c1.08,1.51,1.56,1.83,2.21,1.55l.43-.12a.92.92,0,0,1,1.09.43c.42.59.26,1.14-.49,1.68l-7.08,5.07c-.78.56-1.38.54-1.81-.07a1,1,0,0,1,0-1.16c0-.06.14-.17.28-.39.5-.54.45-1-.26-2a3.71,3.71,0,0,0-.51-.6Z"/><path class="cls-1" d="M429.67,478.66a1.06,1.06,0,0,1,.13-1.48c.26-.21.6-.26,1.3-.22a19,19,0,0,0,5-.83,14.14,14.14,0,0,0,4.77-2.67c2-1.69,2.67-3.32,1.71-4.47-.77-.92-2.11-1-4.48-.18l-2.33.77c-6.79,2.29-9.32,2.21-11.43-.33-2.25-2.7-1.62-6.07,1.66-8.8a23.48,23.48,0,0,1,3.36-2.29,5,5,0,0,0,.89-.58,1.49,1.49,0,0,0,.69-1.23c0-.55.08-.7.36-.93s.41-.3,1.21-.14l5.05,1.3a1.13,1.13,0,0,1,.63.33.78.78,0,0,1,.13.76,1.13,1.13,0,0,1-.36.65,1.81,1.81,0,0,1-.94.27,26.24,26.24,0,0,0-3,.47,10.59,10.59,0,0,0-4.18,2c-1,.8-1.19,1.53-.65,2.18a1.31,1.31,0,0,0,1.34.44,5.57,5.57,0,0,0,1-.27c.48-.12.86-.28,1.23-.4l2.1-.89a18.23,18.23,0,0,1,6.29-1.59,7.3,7.3,0,0,1,5.73,2.57c2.74,3.3,1.68,7.8-2.72,11.47a29.71,29.71,0,0,1-5.21,3.35,9.16,9.16,0,0,0-1.31.82c-.32.27-.39.56-.32,1.16a1.07,1.07,0,0,1-.39,1.22c-.39.33-.53.36-1.26,0l-5.27-2A1.88,1.88,0,0,1,429.67,478.66Z"/><path class="cls-1" d="M68.94,398l-.38.17-1.31.6a4.67,4.67,0,0,0-1,.6,1.61,1.61,0,0,0-.71,1.8l.11.74a1.64,1.64,0,0,1-1.1,1.69c-1.12.51-2,.06-2.66-1.39L51.23,378.65a11.06,11.06,0,0,0-.64-1.3,4.93,4.93,0,0,0-1-.75c-.94-.58-1.16-.82-1.42-1.39-.38-.84-.34-1.25.42-2.44l5.29-8a2.16,2.16,0,0,1,.77-.92,1.53,1.53,0,0,1,1.22.18,1.67,1.67,0,0,1,.8.77,3,3,0,0,1-.19,1.95c-1.81,5.23-1.65,8.94.69,14.1l1.62,3.56a4.55,4.55,0,0,0,1.82,2.39c.5.23,1.2.14,2.88-.63l3.24-1.47a1.59,1.59,0,0,0,.89-2.27l-1.29-2.58c-.85-1.87-1.3-2.23-3.11-2.48-.73-.12-1-.27-1.26-.79l-.06-.14a1.55,1.55,0,0,1-.08-1,9.29,9.29,0,0,1,.7-.82l5.57-7.17a2.09,2.09,0,0,1,.8-.7,1.66,1.66,0,0,1,2,1c.17.38.08.93-.23,1.86a17.49,17.49,0,0,0-.92,4.2,10.76,10.76,0,0,0,.86,4.25l1.19,2.51c.54,1.17,1.08,1.37,2.25.84l8.3-3.77c2.9-1.32,3.64-2,3.48-3.16l-.16-.72A1.66,1.66,0,0,1,86.81,372c1.12-.51,2-.07,2.66,1.39l6.22,13.68c.68,1.5.44,2.46-.73,3s-1.36.5-2.41-.94c-.93-1.17-1.69-1.1-4.78.3l-1.4.64Z"/><path class="cls-1" d="M74.61,353.7a2.86,2.86,0,0,0,1.19-.13c.79-.22,1-.6,1-1.76-.19-1.39.13-2,1.27-2.29s2,.29,2.44,1.82l3,10.5c.45,1.58.07,2.49-1.17,2.85-1.09.3-1.65,0-2.24-1.3a3.5,3.5,0,0,0-2.11-2,11.54,11.54,0,0,0-3.28-.62l-29.9-4c-.94-.11-1.29-.38-1.49-1.07l-2.71-9.56c-.21-.74-.11-1.15.75-1.71l23.83-17.24a9.91,9.91,0,0,0,2.51-2.1,3.36,3.36,0,0,0,.75-2.84c-.18-1.39.18-2,1.27-2.28s2,.28,2.45,1.82l4.7,16.58c.45,1.59.07,2.5-1.17,2.85-1.09.31-1.6,0-2.24-1.29-.54-1-1-1.22-2-.94a6.49,6.49,0,0,0-.86.35l-1.68,1.07.41-.28-1.3.9.31,1.84,2.51,8.86.59,1.71,1.69.11-.49,0Zm-10-2.85-1.28-4.34c-.26-.89-.57-1.23-1.11-1.08a4,4,0,0,0-.75.38l-6,4.25c-.47.41-.76.7-.72.85s.42.36,1,.42l7.53,1.08a2,2,0,0,0,.57-.06A1.09,1.09,0,0,0,64.65,350.85Z"/><path class="cls-1" d="M41.86,319c-1.23.15-1.59.6-1.45,1.73l.23,1.06a5.38,5.38,0,0,0,.32,1.41c.41,1.25,1.84,2.84,3.73,4.33,1,.71,1.71,1.24,2.05,1.52a2.94,2.94,0,0,1,1,1.69,1.87,1.87,0,0,1-.22,1.17,1.62,1.62,0,0,1-1.09.91,2.4,2.4,0,0,1-1.27-.27l-9.59-3.83A2,2,0,0,1,34.37,327a2.5,2.5,0,0,1,.1-1.31l.67-.91a3.19,3.19,0,0,0,.38-2.43l-2.29-19.22a2.81,2.81,0,0,0-1-2.21c-.76-.69-1-1.08-1-1.59-.13-1.07,0-1.35,1-2l8.4-5.25a3.12,3.12,0,0,1,.84-.36,1.77,1.77,0,0,1,1.8,1.65,2.84,2.84,0,0,1-.79,2.06L41,297.11c-1.87,2.19-2.84,4.48-2.62,6.32l.09,1.18c.15,1.23.61,1.59,1.78,1.45l22.08-2.63a16.71,16.71,0,0,0,2.95-.46,1.63,1.63,0,0,0,1.35-1.35l.06-.73a1.68,1.68,0,0,1,1.56-1.33c1.22-.14,1.93.6,2.12,2.19l1.76,14.77c.19,1.58-.33,2.42-1.61,2.57a1.7,1.7,0,0,1-1.77-.93c-.08-.25-.08-.25-.24-.69-.51-1.29-1.25-1.41-4.63-1l-1.12.14Z"/><path class="cls-1" d="M63.24,252.46c3.23.24,4.18,0,4.56-1.06l.21-.7a1.67,1.67,0,0,1,1.78-1c1.23.09,1.79.91,1.67,2.5l-1.11,14.94c-.12,1.64-.79,2.37-2.07,2.27s-1.43-.21-1.66-2a1.76,1.76,0,0,0-1.38-1.6,11,11,0,0,0-3-.37l-4.93-.37a2.16,2.16,0,0,0-2.64,2.18l-.36,4.88a2.23,2.23,0,0,0,2.29,2.54l4.93.36c3.39.26,4.18.06,4.56-1l.21-.7a1.66,1.66,0,0,1,1.78-1c1.23.09,1.79.91,1.66,2.55l-1.1,14.84c-.12,1.64-.79,2.36-2.07,2.27s-1.48-.27-1.66-2a1.8,1.8,0,0,0-1.38-1.65,11.09,11.09,0,0,0-3-.38l-1.24-.09L40,286.5c-3.44-.25-4.12-.09-4.52,1.17l-.27.75a1.72,1.72,0,0,1-1.77,1c-1.24-.09-1.79-1-1.67-2.6l1.09-14.63c.12-1.69.8-2.41,2.08-2.32a1.71,1.71,0,0,1,1.56,1.25l.15.79c.17,1.09.92,1.41,4.31,1.66l3.44.25c1.64.13,2.47-.59,2.59-2.28l.36-4.77a2.22,2.22,0,0,0-2.29-2.55L41.68,264c-3.28-.25-4.12-.05-4.52,1.11l-.26.7a1.62,1.62,0,0,1-1.77,1c-1.23-.1-1.79-.91-1.67-2.5l1.08-14.63c.12-1.65.8-2.37,2.08-2.28a1.65,1.65,0,0,1,1.56,1.26l.15.73c.14.89,1,1.42,2.42,1.52l1.9.09Z"/><path class="cls-1" d="M43.93,241.52a10.1,10.1,0,0,0-3-.45,1.5,1.5,0,0,0-1.68,1,6.29,6.29,0,0,1-.41.64,1.65,1.65,0,0,1-1.86.66c-1.25-.3-1.67-1.19-1.29-2.74l5.34-22.07a3.28,3.28,0,0,0-.07-2.34,2.72,2.72,0,0,0-.31-.93,3.09,3.09,0,0,1,0-1.21c.21-.85.48-1.1,1.7-1.55L50,209.79a2.92,2.92,0,0,1,1.48-.23,1.41,1.41,0,0,1,.89.7,1.74,1.74,0,0,1,.3,1.39c-.09.35-.49.73-1.4,1.41a10.86,10.86,0,0,0-1.78,1.43,23.76,23.76,0,0,0-2.32,2.4A15.22,15.22,0,0,0,45,222l-.64,2.65c-.68,2.81-.17,3.56,2.58,4.23l3.4.82a1.52,1.52,0,0,0,2.05-1.25l.44-1.8c.2-.85.06-1.15-.83-1.84s-1.25-1.42-1.05-2.22.63-1.06,1.55-1.37l7.94-2.84a3,3,0,0,1,1.44-.24,1.52,1.52,0,0,1,1,.88,1.88,1.88,0,0,1,.29,1.45c-.1.4-.58.86-1.38,1.52A21.45,21.45,0,0,0,59,224.46a8.68,8.68,0,0,0-1.55,3.34l-.43,1.75a1.61,1.61,0,0,0,1.3,2.06l8.31,2c2.7.66,3.5.21,4.17-2.59l1.07-4a23.79,23.79,0,0,0,.72-6.92,13.39,13.39,0,0,0-2.21-5.94c-.58-.88-.84-1.36-.71-1.86a1.82,1.82,0,0,1,2-1.28,3.42,3.42,0,0,1,1.19.76L80,218.43c1,.86,1.08,1.21.91,1.91a3.18,3.18,0,0,1-1.66,1.83,4.12,4.12,0,0,0-1,.76,5.18,5.18,0,0,0-.52,1.52l-6,24.91c-.39,1.6-1.19,2.26-2.39,2a1.75,1.75,0,0,1-1.38-1.5,7.43,7.43,0,0,0,0-.79,1.69,1.69,0,0,0-1-1.68,14.27,14.27,0,0,0-2.92-.86l-1.3-.31Z"/><path class="cls-1" d="M80.39,198.43c1.37.61,2.28.45,3-.41a5.23,5.23,0,0,0,.44-.6,1.64,1.64,0,0,1,1.94-.31c1.18.52,1.43,1.48.78,2.93l-6.1,13.68c-.67,1.51-1.57,2-2.75,1.48a1.68,1.68,0,0,1-1-1.7,4.48,4.48,0,0,0,.17-.77,1.74,1.74,0,0,0-.77-1.92,9.28,9.28,0,0,0-2.63-1.45l-.94-.42-17.91-8a8.74,8.74,0,0,0-2.83-1,1.58,1.58,0,0,0-1.88.68,3.27,3.27,0,0,0-.48.57,1.66,1.66,0,0,1-2,.32c-1.17-.52-1.42-1.48-.77-2.94L53.61,183c5.56-12.46,14.3-18,22.57-14.34a11.66,11.66,0,0,1,4.91,4.17c1.44,2.44,1.61,4.21.83,8l4.91-1.53a19.82,19.82,0,0,0,3.9-1.42,5.09,5.09,0,0,0,2.5-1.93c.82-1.21,1.34-1.37,2.38-.91s1.42,1.48.77,2.94l-7.15,16c-.65,1.45-1.53,1.91-2.7,1.38a1.58,1.58,0,0,1-1-1.7l.15-.72c0-.51-.06-.88-.3-1a1.61,1.61,0,0,0-.88,0,18.73,18.73,0,0,0-3.6.75l-2.67.67-.29.66-.57,1.27a4.21,4.21,0,0,1-.24.4,1,1,0,0,0,.48,1.46l1.09.48Zm-20.85-9.36,9.92,4.42c1.6.72,3-.34,4.18-2.92,2-4.52.89-8.06-3.15-9.86-4.75-2.12-9.93-.37-11.94,4.14C57.59,187,57.9,188.34,59.54,189.07Z"/><path class="cls-1" d="M86,168l-5.35-3.39c-.52-.33-.67-.67-.43-1.06l7.33-11.69c.33-.52.58-.54,1.11-.21l5.48,3.46c.91.58,1.08.81.8,1.24l-7.48,11.84C87.23,168.54,86.84,168.48,86,168Z"/><path class="cls-1" d="M85.75,142.62c-2.54-1.92-3.47-2.23-4.36-1.48l-.67.46a1.59,1.59,0,0,1-2-.16c-1-.75-1-1.73,0-3.05l8.75-11.58c1-1.32,2-1.56,3-.79a1.65,1.65,0,0,1,.64,1.9l-.31.67c-.3.81.11,1.63,1.3,2.53l1.53,1.15,16.51,12.46c2.55,1.93,3.5,2.2,4.42,1.41l.64-.42a1.59,1.59,0,0,1,2,.16c1,.74,1,1.73,0,3l-9,11.92c-1,1.31-2,1.6-3,.82a1.68,1.68,0,0,1-.63-1.9c0-.11.13-.34.26-.77.54-1.14.21-1.9-1.47-3.17a6.5,6.5,0,0,0-1.13-.73Z"/><path class="cls-1" d="M115.61,146.42a1.69,1.69,0,0,1-.37-2s.1-.25.36-.73c.72-1.16.39-1.78-2-4.17L98.94,125a11.58,11.58,0,0,0-2.23-2,1.58,1.58,0,0,0-2-.07l-.69.4a1.69,1.69,0,0,1-2-.43c-.87-.87-.73-1.89.39-3l8.31-8.36a3,3,0,0,1,1.13-.84l1.23-.08,19-.79a1.08,1.08,0,0,0,.9-.26c.29-.29.22-.72-.14-1.09l-3.84-3.8a11.08,11.08,0,0,0-2.26-2,1.65,1.65,0,0,0-2-.14l-.65.44a1.73,1.73,0,0,1-2-.4q-1.32-1.31.42-3.06l5.84-5.87c1.17-1.17,2.15-1.28,3.06-.38a1.64,1.64,0,0,1,.41,1.93l-.44.66a1.64,1.64,0,0,0,.26,1.85,13,13,0,0,0,2,2.22l19.72,19.58c.58.58.58.95.22,1.31l-3.63,3.58c-.47.47-.69.47-1.16,0l-.08-.07-.8-.8c-1.13-1.12-1.53-1.38-2.59-1.34l-27.11.86a.78.78,0,0,0-.65.29.7.7,0,0,0,0,.95l10.59,10.52c2.37,2.35,3.1,2.64,4.19,2l.66-.36a1.65,1.65,0,0,1,2,.39c.91.91.77,1.86-.35,3L118.7,146C117.54,147.17,116.52,147.33,115.61,146.42Z"/><path class="cls-1" d="M178.08,95.69c.26-.17.41-.4.9-1.16a2.38,2.38,0,0,1,.69-.72,1.67,1.67,0,0,1,1.09-.23,1.61,1.61,0,0,1,.84.61c.23.35.32,1.4.14,4.19l-.27,4.39a1.2,1.2,0,0,1-.57,1,10.6,10.6,0,0,1-3,1,15,15,0,0,1-3.63.14,38,38,0,0,1-5.94-1.1,39.91,39.91,0,0,1-3.26,2.44c-12,8-22.12,7.39-28.31-1.84-6.65-9.92-3.63-22.78,7-29.89s23.38-5.15,29.8,4.43a19.2,19.2,0,0,1,2.69,6.13c1.06,4.18.78,6.35-1.42,10.73C176.31,96.19,177.35,96.17,178.08,95.69Zm-12.68-2.1a10.08,10.08,0,0,0-1.44-4,27,27,0,0,0-1.52-2.45c-5.24-7.82-11.7-11.17-16-8.28-4.1,2.76-3.65,10.45,1.13,17.59,4.42,6.58,9.62,8.6,14.19,5.54.3-.2.53-.42,1-.83-.58-.23-1.07-.4-1.51-.6a7.78,7.78,0,0,0-1.61-.47,3.14,3.14,0,0,0-1.73.48,1.49,1.49,0,0,0-.53.6l-.34.6a1.24,1.24,0,0,1-.28.32c-.39.25-.89,0-1.29-.63-1.32-2-.44-5.09,2-6.73a9.57,9.57,0,0,1,6.2-1.37A13.46,13.46,0,0,1,165.4,93.59Z"/><path class="cls-1" d="M174.46,63.82c-.58-1.37-1.08-1.78-2.25-1.51-1.62.29-1.91.14-2.4-1.05s0-2,1.46-2.63l12.54-5.34c1.47-.62,2.43-.36,2.93.83a1.56,1.56,0,0,1-.36,1.94l-.57.51a1.5,1.5,0,0,0-.59,1.76,18,18,0,0,0,.83,2.89l5.85,16.14.22.52c1.64,3.89,4.73,5,8.9,3.23,4.6-1.94,5.88-4.88,4.08-9.15l-.24-.57-7.29-15c-1.53-3.1-2-3.62-3.38-3.38a3,3,0,0,0-.74.09A1.7,1.7,0,0,1,191.76,52c-.5-1.19,0-2.06,1.49-2.7L201,46c1.51-.65,2.45-.42,2.95.76a1.67,1.67,0,0,1-.39,2l-.58.47c-.82.57-.91,1.27-.33,2.65.12.29.5,1.07.89,1.86l7.35,14.1c.29.55.5,1.07.75,1.64,1.59,3.8,1.67,6.5.2,9.36-1.62,3.31-4.51,5.47-10.44,8-6.64,2.8-10.81,3.5-14.61,2.31a9.91,9.91,0,0,1-6.34-5.76c-.16-.38-.22-.8-.36-1.13l-5-16.44C174.85,64.88,174.58,64.1,174.46,63.82Z"/><path class="cls-1" d="M212.6,51.26c-.85-3.08-1.39-3.89-2.55-3.84l-.81,0a1.59,1.59,0,0,1-1.5-1.35c-.33-1.19.25-2,1.84-2.43l14-3.86c1.59-.44,2.5-.05,2.84,1.19a1.64,1.64,0,0,1-.65,1.89l-.66.34c-.72.47-.9,1.37-.5,2.81l.51,1.84,5.5,19.94c.85,3.07,1.45,3.87,2.66,3.8l.76.06A1.59,1.59,0,0,1,235.52,73c.33,1.19-.25,2-1.79,2.42l-14.38,4c-1.59.44-2.55.06-2.89-1.18a1.69,1.69,0,0,1,.65-1.89c.09-.07.32-.19.68-.45,1.12-.58,1.32-1.38.76-3.42a6.92,6.92,0,0,0-.45-1.26Z"/><path class="cls-1" d="M231.88,64.88a1.8,1.8,0,0,1,1.54-2c.56-.08,1.12.15,2.1.85a32.34,32.34,0,0,0,8.09,3.35,24,24,0,0,0,9.36.43c4.49-.62,6.89-2.4,6.54-5-.28-2-2.17-3.34-6.36-4.32l-4.09-1c-12-2.82-15.57-5.23-16.35-10.84-.82-6,3.16-10.3,10.4-11.3a38.18,38.18,0,0,1,7-.28,12.75,12.75,0,0,0,1.81,0A2.59,2.59,0,0,0,254,33.57c.51-.8.75-.93,1.36-1,.77-.1.88-.07,1.89.88l6.19,6.48a2,2,0,0,1,.61,1.06,1.36,1.36,0,0,1-.5,1.21,1.9,1.9,0,0,1-1.11.62,3.08,3.08,0,0,1-1.62-.45,40.25,40.25,0,0,0-4.8-2,18.21,18.21,0,0,0-7.87-1q-3.22.45-2.92,2.59a2.27,2.27,0,0,0,1.55,1.86,10.27,10.27,0,0,0,1.74.54c.81.25,1.5.36,2.15.54l3.88.61c4.79.84,7.78,1.78,10.59,3.37a12.51,12.51,0,0,1,6,8.94c1,7.29-4.61,12.89-14.35,14.23-2.75.38-4.77.45-10.63.17a13.66,13.66,0,0,0-2.65,0c-.71.09-1.08.46-1.52,1.4s-.86,1.31-1.67,1.43-1.09,0-1.87-1.1l-5.88-7.66A3.4,3.4,0,0,1,231.88,64.88Z"/><path class="cls-1" d="M275.5,40.86c0-3.19-.33-4.11-1.46-4.36l-.78-.26a1.59,1.59,0,0,1-1.09-1.69c0-1.23.77-1.86,2.41-1.86l14.52-.08c1.64,0,2.42.6,2.42,1.89a1.63,1.63,0,0,1-1.12,1.65l-.72.16c-.82.26-1.23,1.09-1.22,2.58v1.9l.11,20.69c0,3.19.39,4.12,1.57,4.37l.72.25A1.58,1.58,0,0,1,292,67.79c0,1.24-.76,1.86-2.35,1.87l-14.93.08c-1.65,0-2.47-.61-2.48-1.89a1.72,1.72,0,0,1,1.12-1.66c.11,0,.36-.1.77-.26,1.24-.26,1.65-1,1.63-3.09a5.94,5.94,0,0,0-.11-1.34Z"/><path class="cls-1" d="M306.78,40.42c.15-1.23-.21-1.69-1.33-1.82l-1.09,0a5,5,0,0,0-1.44,0c-1.31.1-3.2,1.11-5.09,2.59-.93.82-1.62,1.36-2,1.63a3,3,0,0,1-1.88.55,1.83,1.83,0,0,1-1.08-.5,1.58,1.58,0,0,1-.63-1.27,2.56,2.56,0,0,1,.56-1.17l6-8.4a2,2,0,0,1,2-.74,2.4,2.4,0,0,1,1.24.41l.73.86a3.15,3.15,0,0,0,2.27,1l19.21,2.35a2.82,2.82,0,0,0,2.39-.49,2.42,2.42,0,0,1,1.78-.61c1.08.13,1.31.31,1.74,1.5l3.1,9.4a2.86,2.86,0,0,1,.15.9,1.76,1.76,0,0,1-2,1.36,2.82,2.82,0,0,1-1.81-1.25l-1.28-1.87c-1.69-2.33-3.68-3.82-5.52-4l-1.17-.2c-1.23-.15-1.68.21-1.83,1.39L317.08,64a18.6,18.6,0,0,0-.26,3,1.64,1.64,0,0,0,1,1.63l.69.24a1.65,1.65,0,0,1,.92,1.82c-.15,1.23-1,1.74-2.62,1.55L302,70.38c-1.58-.2-2.27-.9-2.12-2.18a1.71,1.71,0,0,1,1.33-1.5l.73-.06c1.37-.2,1.66-.89,2.07-4.26l.14-1.13Z"/><path class="cls-1" d="M357.4,43.1c12.25,3.76,18.86,14.83,15.49,25.8s-13.27,15-26.89,10.81c-13.43-4.13-19.38-12.63-16.17-23.11C333.37,45.09,345.15,39.34,357.4,43.1Zm-14.22,16-.24.79c-2.35,7.63-.62,13.05,4.74,14.7s9.65-1.62,11.85-8.8c2.74-8.9,1.11-16.56-3.76-18.06C351.29,46.34,345.92,51.2,343.18,59.08Z"/><path class="cls-1" d="M384.51,87.87c-.72,1.31-.63,2.23.17,3a4.35,4.35,0,0,0,.56.48,1.67,1.67,0,0,1,.15,2c-.61,1.13-1.59,1.3-3,.53l-13.14-7.18c-1.44-.79-1.87-1.73-1.25-2.86a1.69,1.69,0,0,1,1.78-.9,4.64,4.64,0,0,0,.75.24,1.75,1.75,0,0,0,2-.62,9.34,9.34,0,0,0,1.66-2.5l.49-.9,9.41-17.21a8.88,8.88,0,0,0,1.2-2.74,1.58,1.58,0,0,0-.53-1.93,3.26,3.26,0,0,0-.53-.53,1.64,1.64,0,0,1-.16-2c.62-1.13,1.59-1.3,3-.53L402,62.42c12,6.54,16.82,15.7,12.47,23.64a11.58,11.58,0,0,1-4.54,4.56c-2.56,1.24-4.33,1.27-8,.19l1.13,5a20.57,20.57,0,0,0,1.09,4,5.16,5.16,0,0,0,1.73,2.64c1.14.91,1.26,1.45.71,2.44s-1.59,1.3-3,.54L388.18,97c-1.4-.76-1.78-1.67-1.16-2.8a1.6,1.6,0,0,1,1.78-.91l.71.21c.5,0,.87,0,1-.21a1.67,1.67,0,0,0,.12-.87,19.64,19.64,0,0,0-.46-3.66l-.46-2.71-.63-.35-1.22-.66c-.18-.1-.25-.2-.38-.27a1,1,0,0,0-1.49.36l-.57,1Zm11-20-5.2,9.53c-.84,1.54.09,3,2.58,4.4,4.33,2.37,8,1.54,10.08-2.35,2.49-4.56,1.16-9.86-3.17-12.23C397.72,66.06,396.38,66.26,395.51,67.84Z"/><path class="cls-1" d="M421.78,108.32,441,98.18a10.82,10.82,0,0,0,2.75-1.7c.53-.56.53-1,0-1.75-.89-1.45-.89-1.74,0-2.66s1.88-.82,3,.29l8.77,8.56c1.22,1.19,1.34,2.17.44,3.09s-1.23.89-2.66,0c-.7-.39-1.06-.46-1.49,0s-.72,1.1-1.49,3.29l-1.83,5.63a.51.51,0,0,0,.16.58.79.79,0,0,0,.58.14l5.32-2.29a8.15,8.15,0,0,0,2.9-1.56c.54-.56.53-1-.13-1.86-.78-1.19-.75-1.81,0-2.62s1.84-.79,3,.33l8.51,8.3c1.18,1.15,1.34,2.1.44,3s-1.15,1-2.66.07c-.69-.47-1.06-.46-1.56.06a9.78,9.78,0,0,0-1.57,3l-8.52,20.59a16.78,16.78,0,0,0-1.13,3.08,2.7,2.7,0,0,0,0,2.07l.45.65a1.67,1.67,0,0,1-.38,2c-.86.88-1.85.78-3.06-.4l-11.49-11.22c-1.22-1.19-1.34-2.17-.44-3.09s1.44-.82,2.62,0c.95.57,1.39.57,2,0a8.93,8.93,0,0,0,1.6-2.75l4.25-9.37a.69.69,0,0,0-.95-.94l-16.84,7.38a1,1,0,0,1-1,0,.92.92,0,0,1-.16-1l6.19-17.7a1,1,0,0,0-.08-.87.84.84,0,0,0-.88,0l-8.78,4.73a10.26,10.26,0,0,0-2.6,1.63c-.62.63-.61,1.14.06,2,.81,1.22.85,1.77,0,2.65s-1.92.79-3.06-.32l-6.59-6.44c-1.18-1.15-1.3-2.13-.4-3a1.56,1.56,0,0,1,2-.39l.69.32C417.76,110.22,418.6,110,421.78,108.32Z"/><path class="cls-1" d="M474.48,133a10.09,10.09,0,0,0,2.31-1.91,1.49,1.49,0,0,0,.36-1.93c-.11-.43-.21-.67-.2-.74a1.63,1.63,0,0,1,.75-1.82c1.05-.73,2-.45,2.91.87l12.86,18.7a3.24,3.24,0,0,0,1.79,1.51,2.72,2.72,0,0,0,.89.39,3.05,3.05,0,0,1,.89.83c.49.72.5,1.09,0,2.3l-3,7.51a2.8,2.8,0,0,1-.83,1.25,1.38,1.38,0,0,1-1.11.21,1.79,1.79,0,0,1-1.23-.71c-.21-.3-.22-.86-.12-2a10.78,10.78,0,0,0,.13-2.27,28.45,28.45,0,0,0-.24-3.34,15.47,15.47,0,0,0-2.29-5.05l-1.54-2.24c-1.64-2.38-2.54-2.51-4.87-.9l-2.88,2a1.52,1.52,0,0,0-.44,2.36l1.05,1.53c.5.72.81.82,1.92.61s1.89,0,2.35.7a2,2,0,0,1,0,2.07l-3.18,7.81A3,3,0,0,1,480,162a1.55,1.55,0,0,1-1.33.16,2,2,0,0,1-1.27-.75,4,4,0,0,1-.21-2,21.74,21.74,0,0,0-.06-3.72,8.72,8.72,0,0,0-1.44-3.37l-1-1.49a1.6,1.6,0,0,0-2.4-.4l-7,4.84c-2.29,1.58-2.49,2.46-.86,4.84l2.25,3.45a24.55,24.55,0,0,0,4.67,5.16,13.47,13.47,0,0,0,5.91,2.31c1,.15,1.57.29,1.86.71a1.82,1.82,0,0,1-.35,2.31,3.37,3.37,0,0,1-1.36.37l-9.73,1c-1.28.13-1.62,0-2-.6a3.2,3.2,0,0,1-.25-2.46,4.28,4.28,0,0,0,.08-1.24,5.06,5.06,0,0,0-.78-1.4l-14.53-21.12c-.93-1.36-.89-2.38.13-3.08a1.74,1.74,0,0,1,2,0s.25.26.57.55a1.69,1.69,0,0,0,1.93.35,13.09,13.09,0,0,0,2.59-1.59l1.1-.76Z"/><path class="cls-1" d="M471.53,175.77a1.68,1.68,0,0,1,2,.35s.2.19.55.6c.84,1.09,1.53,1,4.63-.39l18.81-8.49a11.46,11.46,0,0,0,2.65-1.37,1.58,1.58,0,0,0,.77-1.81l-.13-.79a1.68,1.68,0,0,1,1.1-1.68c1.13-.51,2,0,2.68,1.44l4.85,10.75a3.09,3.09,0,0,1,.38,1.35l-.37,1.18-6,18a1.14,1.14,0,0,0-.08.94c.17.38.6.46,1.07.25l4.93-2.22a11.83,11.83,0,0,0,2.63-1.41,1.65,1.65,0,0,0,.84-1.79l-.18-.77a1.74,1.74,0,0,1,1.08-1.73c1.13-.5,2,0,2.71,1.49l3.4,7.56c.68,1.5.44,2.45-.74,3a1.61,1.61,0,0,1-1.94-.31l-.46-.63a1.65,1.65,0,0,0-1.83-.42A12.14,12.14,0,0,0,512,200l-25.33,11.43c-.75.34-1.09.21-1.31-.26l-2-4.66c-.28-.61-.2-.82.41-1.09l.09,0,1-.47c1.45-.66,1.83-.94,2.17-1.94l8.87-25.63a.75.75,0,0,0,0-.71.67.67,0,0,0-.88-.34l-13.6,6.14c-3,1.37-3.58,2-3.36,3.2l.11.75a1.66,1.66,0,0,1-1.08,1.73c-1.17.53-2,.06-2.66-1.4l-3.61-7.86C470.13,177.3,470.35,176.29,471.53,175.77Z"/><path class="cls-1" d="M495.26,214.3l20-4.82a17.5,17.5,0,0,0,1.79-.48,8.47,8.47,0,0,0,1.07-.37,1.47,1.47,0,0,0,1.05-1.57l.07-.81a1.69,1.69,0,0,1,1.4-1.45c1.2-.29,2,.37,2.37,1.92L526,219.35c3.2,13.52-3.44,26.61-14.9,29.36a14.37,14.37,0,0,1-13.85-3.65c-2.88-2.75-4.52-6.06-5.87-11.66L487,215.27c-.39-1.6,0-2.53,1.22-2.83a1.75,1.75,0,0,1,1.92.7l.38.7C491.15,215,492,215.09,495.26,214.3Zm23.26,7.79-19.36,4.66c-2.9.7-3.81,1.76-3.32,3.82A7.73,7.73,0,0,0,499.6,235c2.38,1.33,5.39,1.5,9.14.6,8-1.93,13.86-7.52,12.74-12.17C521.17,222.09,520.27,221.67,518.52,222.09Z"/><path class="cls-1" d="M534.75,274.17c.46,12.81-7.84,22.69-19.31,23.1s-18.5-7.62-19-21.87c-.5-14,5.58-22.45,16.54-22.84C525,252.12,534.28,261.37,534.75,274.17ZM515,266l-.82,0c-8,.29-12.53,3.7-12.33,9.31s4.69,8.58,12.19,8.31c9.31-.33,16-4.38,15.83-9.48C529.68,269.46,523.33,266,515,266Z"/><path class="cls-1" d="M499.57,296.61a1.13,1.13,0,0,1,.63.32l23.28,26.83a1.28,1.28,0,0,0,.79.55c.71.12,1.19-.84,1.57-3.12l.08-.51.75-5.46a9.66,9.66,0,0,0-2-7.64c-1.25-1.56-1.6-2.3-1.47-3.06.19-1.12.86-1.69,1.82-1.52a1,1,0,0,1,.58.25l8.22,6.74a2.08,2.08,0,0,1,.53,1.81c-.06.36-.2.59-.85,1.37a3.85,3.85,0,0,0-1.13,2.37l-4.93,29.54a1.05,1.05,0,0,1-1.28.83,2,2,0,0,1-1-.64l-23.49-26.82a1.3,1.3,0,0,0-.76-.49c-.61-.1-1.15,1.58-1.82,5.64-.23,1.37-.46,2.74-.58,4.08a13.46,13.46,0,0,0,2,9.31c1.44,2,1.87,2.92,1.74,3.68a1.68,1.68,0,0,1-2,1.54,1.19,1.19,0,0,1-.54-.24l-8.55-7.22a2.5,2.5,0,0,1-.94-2.19c.11-.61.28-.69,1.23-1.42.82-.54,1-.87,1.27-2.6l5.14-30.81A1.46,1.46,0,0,1,499.57,296.61Z"/><path class="cls-1" d="M493.71,349.43a3.08,3.08,0,0,0-1-.6c-.78-.29-1.17-.1-1.8.87-.68,1.23-1.27,1.51-2.38,1.1s-1.46-1.41-.91-2.91l3.76-10.24c.57-1.55,1.41-2.06,2.62-1.61s1.36.93,1.05,2.35a3.5,3.5,0,0,0,.55,2.84,12,12,0,0,0,2.29,2.43l21.86,20.79c.7.64.82,1.07.57,1.74l-3.42,9.33c-.27.72-.58,1-1.61.94l-29.42,0a9.8,9.8,0,0,0-3.26.23,3.36,3.36,0,0,0-2.27,1.85c-.67,1.24-1.31,1.5-2.38,1.11s-1.45-1.42-.9-2.91L483,360.5c.56-1.54,1.41-2.06,2.62-1.61s1.3.92,1.05,2.36c-.13,1.1.08,1.56,1.05,1.92a8.49,8.49,0,0,0,.9.22l2,.12h-.49l1.58,0,.83-1.67,3.17-8.65.52-1.72-1.3-1.08.38.3Zm6.38,8.15-1.51,4.27c-.32.87-.27,1.33.26,1.52a3.7,3.7,0,0,0,.83.14l7.32.06c.62-.05,1-.12,1.08-.26s-.13-.55-.54-.92l-5.46-5.29a1.76,1.76,0,0,0-.49-.29A1.08,1.08,0,0,0,500.09,357.58Z"/><path class="cls-3" d="M405.13,254.66c5.76,25.5-5.22,48.73-16.1,64.35,8.43-72.15-47.61-110.89-47.61-110.89-66.89-61.18-20.7-110.39-20.7-110.39C200.47,142.28,208.43,277.27,208.43,277.27c-29.46-37.24-8.76-75.8-8.76-75.8-101.94,105.06-19.11,180.2-19.11,180.2-27.88-22.61-43-51.2-43-51.2C139.77,419,212,452.6,255.61,464.83l.08,0c6.61,1.85,12.54,3.21,17.47,4.19v-90h-39.9s-13.29.24-13.29,8.37c0-11.2,4.37-13.16,6.89-16.65-2.52-3.5-6.89-4.16-6.89-16.66,0,8.13,13.29,8.38,13.29,8.38h39.9V332.46h-69s-13.3.24-13.3,8.37c0-11.21,4.38-13.16,6.9-16.65-2.52-3.5-6.9-4.16-6.9-16.66,0,8.13,13.3,8.37,13.3,8.37h69V275c0-9.6-3.69-9.85-10.1-15,19,.25,20.2,10.1,20.2,10.1v.14s1.23-9.85,20.19-10.09c-6.4,5.17-10.09,5.41-10.09,15v40.72h69.45s13.3-.24,13.3-8.37c0,12.5-4.38,13.16-6.9,16.66,2.52,3.49,6.9,5.44,6.9,16.65,0-8.13-13.3-8.37-13.3-8.37H293.36v30.06h39.89s13.3-.5,13.3-8.62c0,12.49-4.37,13.4-6.89,16.9,2.52,3.49,6.89,5.45,6.89,16.65,0-8.13-13.3-8.37-13.3-8.37H293.36V469.2l3.32-1.44.63-.28,3-1.35c1.65-.73,3.29-1.47,4.9-2.21l.35-.16.3-.14,3.74-1.75,4.38-2.1c1.39-.68,2.79-1.35,4.15-2l2.25-1.14q5.57-2.82,10.79-5.67l.77-.41c2-1.07,3.85-2.14,5.72-3.21l.87-.5C491.37,358.85,405.13,254.66,405.13,254.66Z"/></svg>