<?xml version="1.0" encoding="UTF-8"?>
<svg id="Capa_2" xmlns="http://www.w3.org/2000/svg" version="1.1" viewBox="0 0 566.9 566.9">
  <!-- Generator: Adobe Illustrator 29.0.1, SVG Export Plug-In . SVG Version: 2.1.0 Build 192)  -->
  <defs>
    <style>
      .st0 {
        fill: #010101;
      }

      .st1 {
        fill: #fff;
      }

      .st2 {
        isolation: isolate;
      }

      .st3 {
        fill: #fffdfc;
      }

      .st4 {
        fill: #fefefd;
      }

      .st5 {
        fill: #fefcfc;
      }

      .st6 {
        fill: #fefdfd;
      }

      .st7 {
        fill: #fefdfc;
      }

      .st8 {
        fill: #fefefe;
      }

      .st9 {
        fill: #e73731;
      }
    </style>
  </defs>
  <circle class="st9" cx="283.5" cy="283.5" r="279.2"/>
  <circle class="st0" cx="283.5" cy="283.5" r="268.9"/>
  <circle class="st9" cx="283.5" cy="283.5" r="262"/>
  <circle class="st0" cx="283.5" cy="283.5" r="178.4"/>
  <circle class="st9" cx="283.5" cy="283.5" r="171.4"/>
  <circle class="st0" cx="283.5" cy="283.5" r="165.7"/>
  <g class="st2">
    <g class="st2">
      <path class="st3" d="M93.6,380.7l2.2,4.2-26.8,13.9-2.2-4.2,26.8-13.9Z"/>
    </g>
  </g>
  <g class="st2">
    <g class="st2">
      <path class="st3" d="M98.1,389.9l2.1,3.2-10.1,17.9,20.4-2.2,2,3.1-25.3,16.5-2.4-3.6,15.6-10.2c.3-.2.6-.4,1.1-.7.5-.3,1-.6,1.7-1-.7.2-1.3.4-1.8.5-.6.1-1,.2-1.4.3l-16.8,1.9-.5-.8,8.5-14.6c.3-.5.6-.9.9-1.4.3-.5.7-.9,1.1-1.4-1,.7-1.9,1.4-2.6,1.9l-15.6,10.2-2.1-3.2,25.3-16.5Z"/>
    </g>
  </g>
  <g class="st2">
    <g class="st2">
      <path class="st3" d="M115.7,415.8l11.2,13.1c1,1.2,1.4,2.3,1.2,3.5-.2,1.1-1.1,2.4-2.7,3.8l-5.1,4.4c-1.6,1.4-3,2.1-4.1,2.1-1.2,0-2.2-.5-3.3-1.7l-8.2-9.6-8.9,7.7-3-3.5,22.9-19.7ZM114.8,422.6l-6.1,5.2,6.9,8c.5.6.9.9,1.4.9.4,0,1-.2,1.8-.9l2.4-2.1c.8-.7,1.2-1.2,1.2-1.7,0-.4-.2-.9-.7-1.5l-6.9-8Z"/>
    </g>
  </g>
  <g class="st2">
    <g class="st2">
      <path class="st3" d="M132.1,434.2l15,14.1-3.5,3.7-11.6-10.9-4.6,4.9,6.8,6.4-3.5,3.7-6.8-6.4-5.1,5.4,11.7,11-3.9,4.1-15.1-14.3,20.7-22Z"/>
    </g>
  </g>
  <g class="st2">
    <g class="st2">
      <path class="st3" d="M149.9,450.4l14,10.1c1.3.9,1.9,2,2,3.1,0,1.2-.5,2.6-1.8,4.3l-4.2,5.7c-1.2,1.7-2.4,2.7-3.5,3-1.1.3-2.3,0-3.6-.9l-2.1-1.6.8,14.7-5.4-3.9v-14c.1,0-3.5-2.6-3.5-2.6l-6.7,9.2-3.7-2.7,17.7-24.4ZM150.6,457.3l-4.9,6.8,8.5,6.2c.6.4,1.1.6,1.6.6.4,0,1-.5,1.6-1.3l2.1-2.9c.6-.8.8-1.4.7-1.9-.1-.4-.4-.9-1-1.3l-8.5-6.2Z"/>
    </g>
  </g>
  <g class="st2">
    <g class="st2">
      <path class="st3" d="M171.9,465.6l4,2.4-15.5,25.9-4-2.4,15.5-25.9Z"/>
    </g>
  </g>
  <g class="st2">
    <g class="st2">
      <path class="st3" d="M187.5,474.3l4.1,2-2.9,32.2-4.7-2.3.7-7-11.5-5.6-5,4.9-4.2-2.1,23.5-22.1ZM185.4,493.4l1.5-12.9-9.4,9.1,7.9,3.9Z"/>
    </g>
  </g>
  <g class="st2">
    <g class="st2">
      <path class="st3" d="M203.7,481.7l4.4,1.6-8.2,23.1,14.2,5.1-1.9,5.3-18.6-6.6,10.1-28.4Z"/>
    </g>
  </g>
  <g class="st2">
    <g class="st2">
      <path class="st3" d="M238.4,522.9l-4.6-.9,4.7-24.4-9.1-1.8,1-5.3,22.8,4.4-1,5.3-9.1-1.8-4.7,24.3Z"/>
    </g>
  </g>
  <g class="st2">
    <g class="st2">
      <path class="st3" d="M261.8,495.7l4.5.4,8.9,31.1-5.2-.4-1.8-6.8-12.7-1.1-2.9,6.4-4.7-.4,13.9-29.1ZM266.6,514.3l-3.3-12.6-5.5,11.9,8.8.8Z"/>
    </g>
  </g>
  <g class="st2">
    <g class="st2">
      <path class="st3" d="M283.9,502.1l.7,19.1,12.6-.5-.2-6.5,4.7,1.3v3.6c.2,1.4.1,2.6,0,3.5-.1.9-.4,1.7-.8,2.2-.4.5-.9.9-1.5,1.2-.6.2-1.4.4-2.3.4l-12,.4c-.9,0-1.7,0-2.4-.2-.6-.2-1.2-.5-1.6-1.1s-.7-1.2-.9-2.2c-.2-.9-.3-2.1-.4-3.5l-.6-15.9c0-1.4,0-2.6.1-3.5.1-.9.4-1.7.8-2.2.4-.5.9-.9,1.5-1.2.6-.2,1.4-.4,2.3-.4l12-.4c.9,0,1.7,0,2.4.2.6.2,1.2.5,1.6,1.1.4.5.7,1.2.9,2.2.2.9.3,2.1.4,3.5v2.9c.1,0-4.5,1.3-4.5,1.3l-.2-5.7-12.6.5Z"/>
    </g>
  </g>
  <g class="st2">
    <g class="st2">
      <path class="st3" d="M319.5,524l-4.6.7-3.6-24.5-9.1,1.3-.8-5.3,23-3.3.8,5.3-9.2,1.3,3.6,24.5Z"/>
    </g>
  </g>
  <g class="st2">
    <g class="st2">
      <path class="st3" d="M325.5,492.2l4.6-1,6.5,29.5-4.6,1-6.5-29.5Z"/>
    </g>
  </g>
  <g class="st2">
    <g class="st2">
      <path class="st3" d="M341.4,494l5.7,18.3,12.1-3.8-1.9-6.2h4.9s1.1,3.4,1.1,3.4c.4,1.3.7,2.5.8,3.4.1.9,0,1.7-.1,2.3-.2.6-.6,1.1-1.1,1.5-.5.4-1.3.7-2.2,1l-11.5,3.6c-.9.3-1.7.4-2.3.4s-1.3-.2-1.8-.6c-.5-.4-1-1-1.5-1.8-.4-.8-.9-1.9-1.3-3.3l-4.8-15.2c-.4-1.3-.7-2.5-.8-3.4-.1-.9,0-1.7.1-2.3.2-.6.6-1.1,1.1-1.5.5-.4,1.3-.7,2.2-1l11.5-3.6c.9-.3,1.7-.4,2.3-.4.7,0,1.3.2,1.8.6.5.4,1,1,1.5,1.8.4.8.9,1.9,1.3,3.3l.9,2.7-4.1,2.5-1.7-5.5-12.1,3.8Z"/>
    </g>
  </g>
  <g class="st2">
    <g class="st2">
      <path class="st3" d="M367.6,478.8l4.1-1.9,23,22.7-4.8,2.2-4.9-5-11.6,5.3.6,7-4.3,1.9-2.1-32.2ZM381,492.6l-9-9.4,1,13,8-3.6Z"/>
    </g>
  </g>
  <g class="st2">
    <g class="st2">
      <path class="st3" d="M383.7,471.1l4-2.4,12.6,21,13-7.7,2.9,4.9-17,10.1-15.5-25.9Z"/>
    </g>
  </g>
  <g class="st2">
    <g class="st2">
      <path class="st3" d="M408.3,455.9l3.6-3.2,17.1,11.9-9.2-18.8,2.5-2.1,17.4,11.7-9.6-18.5,3.1-2.7,13.9,27.9-2.4,2.1-17.9-12.1,9.5,19.4-2.4,2.1-25.7-17.7Z"/>
    </g>
  </g>
  <g class="st2">
    <g class="st2">
      <path class="st3" d="M434.2,432.3l3.2-3.4,21.9,20.7-3.2,3.4-21.9-20.7Z"/>
    </g>
  </g>
  <g class="st2">
    <g class="st2">
      <path class="st3" d="M441.5,424.9l2-2.5,22.7-.2c.7,0,1.3,0,2,0,.6,0,1.3,0,2,.2-1-.7-1.9-1.3-2.6-1.9s-1.3-.9-1.6-1.2l-12.5-9.8,2.6-3.3,23.7,18.6-2,2.5h-23.8c-.5,0-1,0-1.4,0-.5,0-1,0-1.5-.1,1,.7,1.8,1.2,2.4,1.7.6.5,1.1.8,1.5,1.1l12.8,10.1-2.6,3.3-23.7-18.6Z"/>
    </g>
  </g>
  <g class="st2">
    <g class="st2">
      <path class="st3" d="M465.9,400.9l16.5,9.7,7.4-12.6-5.8-3.4-3.9,6.6-4.4-2.6,6.2-10.5,9,5.3c1.2.7,2.2,1.4,2.9,2,.7.6,1.2,1.2,1.5,1.8.3.6.3,1.2.2,1.9-.1.7-.4,1.4-.9,2.2l-7,12c-.5.8-1,1.4-1.5,1.9-.5.4-1.1.7-1.7.8-.7,0-1.4,0-2.3-.4-.9-.3-1.9-.8-3.2-1.6l-13.7-8c-1.2-.7-2.2-1.4-2.9-2-.7-.6-1.2-1.2-1.5-1.8-.3-.6-.3-1.2-.2-1.9.1-.7.4-1.4.9-2.2l7-12c.5-.8.9-1.4,1.4-1.9.5-.5,1.1-.7,1.7-.8.7,0,1.4,0,2.3.3.8.3,1.9.8,3,1.5l.6.4-1.2,4.6-2.9-1.7-7.4,12.6Z"/>
    </g>
  </g>
  <path class="st8" d="M79.1,199.7c-11.1-29.6,4-58.3,17-67.6-.7,24.1-2.4,47.1-17,67.6Z"/>
  <path class="st6" d="M64.6,254.9c-17.2-22.7-12.9-54.1-1.2-69.6,5.5,23.6,10.1,46.3,1.2,69.6Z"/>
  <path class="st4" d="M64.7,312.1c-20.8-15.6-27-45.7-19.1-66.9,11.2,21.6,21.8,42.1,19.1,66.9Z"/>
  <path class="st8" d="M44.4,308.5c16.2,17.5,31.6,34.7,35.3,59.3-22.6-10.1-40.6-39.8-35.3-59.3Z"/>
  <path class="st6" d="M106.8,154.1c-1.4-16.3,11.6-37.1,28.8-45.6,2,16-14.7,42.5-28.8,45.6Z"/>
  <path class="st7" d="M134.2,157.2c-11.1,16.6-24,28.4-43,34.2,5.8-18.4,24.7-33.7,43-34.2Z"/>
  <path class="st6" d="M89.8,249.3c3.4,12.8-7.4,40.8-18.8,49-4.5-16.7,4.7-40.7,18.8-49h0Z"/>
  <path class="st6" d="M87.7,300.1c6.4,12.6,3.1,42.4-5.6,52.5-8.5-16-6.2-38.6,5.6-52.5Z"/>
  <path class="st7" d="M105.1,200.4c-.4,13.9-17.8,37.6-30.9,42.7-.5-16.5,14-36.8,30.9-42.7Z"/>
  <path class="st8" d="M487.6,199.4c-10.9-14.1-19.9-50.8-16.4-66.4,16.1,7,25.1,43.4,16.4,66.4Z"/>
  <path class="st4" d="M503.4,185.1c11.8,15.9,15.9,47.5-1.2,69.7-8.9-23-4.3-45.8,1.2-69.7Z"/>
  <path class="st8" d="M521.1,245.7c6.9,14,5.3,47-19,66.8-2.5-24.9,7.6-45.8,19-66.8Z"/>
  <path class="st6" d="M487.1,367.7c3.8-24.6,19.2-41.9,35.4-59.4,3.4,15.8-7.8,47.7-35.4,59.4Z"/>
  <path class="st6" d="M430.8,108.5c15.8,5.8,30.7,29.2,29.2,45.6-14-3.3-28.5-25.9-29.2-45.6Z"/>
  <path class="st5" d="M434.2,157.3c16-.1,34.9,15,41,32.8-12.9-.1-37.5-19.8-41-32.8Z"/>
  <path class="st6" d="M477,249.2c14.1,8.3,22.5,29.8,19,48.8-10.9-6.2-22.3-35.5-19-48.8Z"/>
  <path class="st7" d="M461.9,200.5c15.5,4.3,30.1,24.3,30.8,42.3-12.8-4.1-31.3-29.6-30.8-42.3Z"/>
  <path class="st6" d="M479.1,300c11.4,13.6,13.4,31.6,6.1,52.5-9-7.5-12.9-39.4-6.1-52.5Z"/>
  <g class="st2">
    <g class="st2">
      <path class="st3" d="M275.6,76c0,3.6-.6,6.8-1.6,9.5-1,2.7-2.5,4.3-4.6,4.6-1.2.2-2.4,0-3.5-.4-1.1-.5-2.6-1.5-4.2-2.9-1.7-1.4-3.2-3.2-4.7-5.4-1.5-2.2-2.7-4.5-3.7-6.9-1-2.4-2.2-6.4-3.5-12-1.3-5.5-2.5-11.3-3.6-17.3l-31.4,5.4-.9-5.4,37-6.3c1,5.7,1.9,10.7,2.8,15.1,4-5.4,6.9-10,8.8-13.8l5.2,2c-2.4,4.7-5.6,9.8-9.7,15.1,6.4,3.1,11.6,5.9,15.7,8.4l-2.5,5.1c-4.5-3.1-9.7-6-15.6-8.7,1.8,7.9,4.1,13.6,6.9,17.2,2.8,3.5,4.7,5.2,5.8,5,.2,0,.5-.2.7-.4.2-.3.5-1.3.8-3.3.3-1.9.4-4,.4-6.3l5.6,1.7Z"/>
    </g>
  </g>
  <g class="st2">
    <g class="st2">
      <path class="st3" d="M330.2,85.9l-23.4-2.4-.2,1.7c-.2,2.1-.7,3.6-1.5,4.5-.8.9-1.9,1.4-3.3,1.5-1.4,0-3.3,0-5.7-.2l-3.6-.4-1.4-5.6c2.8.4,5.6.7,8.2,1,.5,0,.9,0,1.3-.3.3-.2.5-.6.6-1.1l.2-1.6-24.6-2.5.5-4.8,24.6,2.5.3-2.8-18.1-1.8.5-4.6,18.1,1.8.2-2.5c-1.9,0-4.3-.2-7.3-.4l-1.1-5.1c6.8.6,13,.6,18.7,0l2.3,4.7c-1.8.4-4.1.6-7,.7l-.3,3.2,16.6,1.7-.5,4.6-16.6-1.7-.3,2.8,23.4,2.4-.5,4.8ZM333.2,69.4l-3.3,4.8c-8.2-3.9-14-8.6-17.3-14.2l-13.4-1.4c-4.6,3.9-11.1,7.3-19.5,10.1l-2.4-5c5.4-1.5,10-3.4,13.9-5.9l-11.8-1.2.5-4.7,17,1.7c1.3-1.2,2.4-2.6,3.4-4l-16.3-1.7.5-4.7,18.8,1.9c1.3-2.6,2.5-5.4,3.6-8.4l5.5.7c-.8,2.6-2,5.4-3.4,8.3l21.3,2.2-.5,4.7-23.4-2.4c-1,1.6-2.1,2.9-3.1,4l29.6,3-.5,4.7-12.8-1.3c3,3.5,7.6,6.4,13.7,8.7ZM297.7,42.2l-5.8,1c-1.2-2.5-2.7-4.7-4.4-6.7l5.6-1.3c1.5,1.7,3,4,4.5,7.1ZM328.1,40.4c-1.8,2.2-3.9,4.1-6.3,5.9l-5.1-2.6c2.2-1.6,4.3-3.5,6.2-5.7l5.2,2.3Z"/>
    </g>
  </g>
  <path class="st1" d="M416.6,260.7c-4,5-8,10-12,15-.9,1.2-2.2,1.5-3.5,2-19.6,7.2-39.1,14.4-58.7,21.5-.7.2-1.3.6-2.1.9-.1,1-.2,2-.4,3.4,19.8-7.2,39.2-14.3,59.6-21.7-5.1,6.2-9.5,11.7-14,17.2-.7.9-1.8,1-2.8,1.4-14.8,5.1-29.5,10.2-44.4,15.4-.2,1-.4,2.1-.7,3.7,14.3-4.9,28.2-9.6,42.1-14.4.1.2.3.3.4.5-4.6,5.6-9.2,11.3-13.9,16.9-.5.6-1.7.8-2.5,1.1-10.7,3.4-21.4,6.9-32.1,10.1-3.7,1.1-6.6,3-9.1,6.6,11-3.8,21.6-7.4,33-11.2-4.1,5.1-7.8,9.7-11.5,14.2-.6.8-1.6.9-2.5,1.2-10.6,3.4-21.2,6.7-31.8,10-1.7.5-3,1.4-4.2,2.6-7.4,7.3-14.9,14.5-22.6,22-.7-.1-1.3-1.2-2-2-6.8-6.8-13.5-13.5-20.2-20.4-1.1-1.1-2.3-1.8-3.7-2.2-10.6-3.3-21.2-6.7-31.8-10-1.4-.4-2.4-1-3.4-2.1-3.4-4.3-6.9-8.5-10.8-13.4,11.3,3.8,21.9,7.4,32.5,11-2-2.5-3.7-4.9-7-5.9-11.2-3.4-22.4-7-33.6-10.6-1-.3-2.1-.4-2.8-1.3-4.6-5.6-9.1-11.2-13.4-17.3,13.9,4.7,27.8,9.5,41.8,14.2.5-1.5,0-2.4-.3-3.6-10.5-3.6-21.1-7.4-31.6-11-10.2-3.5-18.7-9.5-25.5-18-1-1.3-2.1-2.6-2.9-4.5,19.4,7,38.7,14,58.4,21.2-.1-1.3-.2-2.3-.3-3.4-15.7-5.8-31.3-11.6-47-17.3-11.8-4.3-21.6-11.6-29.3-22.1.1-.2.2-.4.4-.6,24.1,9,48.3,18.1,72.4,27.1.5.2,1,.3,1.5.5.7-.9,0-1.8.2-2.8-12-4.5-23.8-9-35.7-13.5-13.9-5.3-27.8-10.5-41.8-15.8-.9-.3-1.8-.6-2.4-1.4-4.4-5.4-8.7-10.7-12.8-16.6,30.2,11.6,60.3,23.2,90.6,34.8.1-.9.2-1.7.4-2.5.1,0,.3,0,.4,0,2.6,10.2,5.2,20.5,7.7,30.7,1.4,5.4,2.7,10.8,4,16.2.4,1.9,1.3,3.4,2.8,4.8,14.5,13.9,28.9,27.9,43.4,41.8.7.6,1.4,1.3,2.3,2.1,5.5-5.3,10.9-10.5,16.3-15.8,9.7-9.3,19.4-18.7,29.1-28,1.7-1.6,2.5-3.4,3.1-5.6,3.8-15.3,7.6-30.7,11.5-46,1.3.4.2,1.5,1,2.3,30-11.5,60.1-23.1,90.2-34.6.1.1.3.3.4.4-3.4,4.2-7,8.4-10.2,12.7-2.2,2.9-4.8,4.6-8.2,5.9-24.7,9.2-49.4,18.6-74.1,27.9-.6.9-.6,1.8-.4,3.1,24.8-9.3,49.5-18.5,74.1-27.8.1.2.2.4.3.6h0Z"/>
  <path class="st1" d="M283.3,342.7c15.7-15.2,31-30,46.9-45.5-1.7,6.7-3.2,12.7-4.7,18.6-.2.9-.8,1.4-1.4,2-13.5,12.8-27,25.5-40.8,38.6-1.3-1.2-2.6-2.4-3.9-3.6-11.5-10.9-23-21.9-34.6-32.7-2.4-2.2-4-4.6-4.6-7.9-1-4.9-2.4-9.7-3.9-15.2,15.9,15.5,31.4,30.4,47,45.5h0Z"/>
  <path class="st1" d="M283.3,313.2c18.1-17.5,35.8-34.7,54.2-52.5-2,7.8-3.7,14.6-5.4,21.5-.2,1-1,1.7-1.7,2.3-15.6,14.8-31.2,29.5-47.1,44.5-1.5-1.4-3-2.7-4.5-4.1-13.3-12.6-26.5-25.2-39.9-37.7-2.8-2.6-4.6-5.3-5.4-9.1-1.2-5.6-2.8-11.2-4.5-17.5,18.4,17.8,36.2,35.1,54.3,52.5h0Z"/>
  <path class="st1" d="M150,260.7c-.3-.1-.6-.2-.4-.8.2,0,.5,0,.8.1-.1.2-.2.4-.4.6Z"/>
  <path class="st1" d="M416.3,260.1c.2,0,.5-.1.7-.2.3.5,0,.7-.4.8-.1-.2-.2-.4-.3-.6h0Z"/>
  <path class="st1" d="M282.9,247.2c-9,6.9-17.7,13.5-27.4,21,3.6-12,6.8-22.7,10.1-33.9-8.8-6.9-17.1-13.4-26.8-20.9h32.8c3.4-9.7,6.5-18.8,10.2-29.3,4.9,11.2,8.3,19.1,12.5,28.5h33.4c-10.1,7.9-18.3,14.4-26.9,21.1,2.8,10.7,5.4,21.3,8.9,33.9-9.2-7-17.6-13.4-26.9-20.4h0Z"/>
</svg>