<svg id="Capa_1" data-name="Capa 1" xmlns="http://www.w3.org/2000/svg" viewBox="0 0 566.93 566.93"><defs><style>.cls-1,.cls-7{fill:#ce5237;}.cls-1{stroke:#f39200;stroke-width:10px;}.cls-1,.cls-2,.cls-3{stroke-miterlimit:10;}.cls-2{font-size:53.4px;}.cls-2,.cls-3,.cls-8{fill:#f39200;}.cls-2,.cls-3{stroke:#fff;stroke-width:2px;font-family:Impact;}.cls-3{font-size:58.02px;}.cls-4{fill:none;}.cls-5{fill:#fff;}.cls-6{fill:#494681;}</style></defs><circle class="cls-1" cx="283.46" cy="283.46" r="269.29"/><text class="cls-2" transform="matrix(0.88, -0.48, 0.48, 0.88, 171.04, 108.24)">A</text><text class="cls-2" transform="matrix(0.94, -0.34, 0.34, 0.94, 198.31, 93.43)">R</text><text class="cls-2" transform="matrix(0.97, -0.22, 0.22, 0.97, 229.43, 82.76)">I</text><text class="cls-2" transform="translate(248.48 78.28) rotate(-5.86)">S</text><text class="cls-2" transform="translate(279.98 75.44) rotate(2.4)">T</text><text class="cls-2" transform="translate(308.62 76.99) rotate(9.95)">E</text><text class="cls-2" transform="translate(334.61 81.98) rotate(16.33)">I</text><text class="cls-2" transform="translate(353.44 87.39) rotate(23.39)">A</text><text class="cls-2" transform="matrix(0.86, 0.5, -0.5, 0.86, 381.9, 100.39)">!</text><text class="cls-3" transform="matrix(0.72, 0.69, -0.69, 0.72, 101.24, 455.27)">E</text><text class="cls-3" transform="matrix(0.81, 0.58, -0.58, 0.81, 125.94, 478.25)">X</text><text class="cls-3" transform="translate(156.56 499.13) rotate(28.57)">-</text><text class="cls-3" transform="translate(179.68 511.43) rotate(21.48)">T</text><text class="cls-3" transform="translate(214.12 524.34) rotate(12.44)">O</text><text class="cls-3" transform="translate(255.06 532.37) rotate(3.32)">Y</text><text class="cls-3" transform="translate(293.15 534.25) rotate(-7)">M</text><text class="cls-3" transform="matrix(0.95, -0.3, 0.3, 0.95, 344.81, 526.36)">A</text><text class="cls-3" transform="translate(382.29 513.75) rotate(-26.73)">K</text><text class="cls-3" transform="translate(418.37 494.46) rotate(-35.33)">E</text><text class="cls-3" transform="translate(445.8 474.44) rotate(-43.98)">R</text><circle class="cls-4" cx="283.46" cy="277.73" r="58" transform="matrix(0.53, -0.85, 0.85, 0.53, -101.81, 372.85)"/><path class="cls-5" d="M474.36,255.31a10.35,10.35,0,0,0-8.54-8.67L431.52,241c-1.12-.53-2.68-1.26-4.64-2.15a9.48,9.48,0,0,0,1-.87,10.34,10.34,0,0,0,2.52-10.9l-2.92-8.16,20.09-23a10.35,10.35,0,0,0,1.08-12.14,192.82,192.82,0,0,0-27.3-35.31,10.35,10.35,0,0,0-12.05-2L382,160.1l-20-13.6L364.7,116a10.35,10.35,0,0,0-6.28-10.45,191,191,0,0,0-41.58-12.24,10.78,10.78,0,0,0-1.78-.15,10.33,10.33,0,0,0-9.16,5.55l-14.2,27.12-24.18.57L251.94,100A10.36,10.36,0,0,0,243,94.91a10.08,10.08,0,0,0-2.3.26c-2.82.64-5.72,1.37-8.61,2.17A108.18,108.18,0,0,0,214.86,103c-5.55,2.11-11,4.49-16.26,7.06a10.36,10.36,0,0,0-5.67,10.8l5.35,36.31a10.32,10.32,0,0,0,.82,2.76l.19.43-.38-.34a10.36,10.36,0,0,0-12.85-.21l-7.89,6-28.09-12.13a10.35,10.35,0,0,0-11.9,2.69,192.43,192.43,0,0,0-25.28,36.78,10.36,10.36,0,0,0,1.76,12.06L136,227.09l-6.86,23.17L99.31,257a10.36,10.36,0,0,0-8,9.18,195.77,195.77,0,0,0-.72,23.29v.07a207.11,207.11,0,0,0,1.89,21.18,10.35,10.35,0,0,0,8.53,8.77l30.16,5.08,8.08,22.78-20.23,23a10.35,10.35,0,0,0-1.1,12.18A195.29,195.29,0,0,0,145.15,418a10.34,10.34,0,0,0,12,2l27.4-13.64L204.53,420l-2.84,30.5A10.35,10.35,0,0,0,208,461a193.21,193.21,0,0,0,42.82,12.62,10.33,10.33,0,0,0,10.93-5.43l16-30.82c2.59-2.25,7-6.19,12.65-11.52a10.34,10.34,0,0,0,9.33,14.8h.48l15.44,26a10.35,10.35,0,0,0,11.25,4.8,194.42,194.42,0,0,0,42.06-15.05,10.35,10.35,0,0,0,5.65-10.82L370,415.34l19.16-14.78,28.11,12a10.33,10.33,0,0,0,11.89-2.73A192.53,192.53,0,0,0,454.39,373a10.33,10.33,0,0,0-1.81-12.07L431.1,339.18l6.78-23.24,29.85-6.77a10.35,10.35,0,0,0,8-9.25,194.48,194.48,0,0,0,.6-22.64A182.41,182.41,0,0,0,474.36,255.31ZM283.46,343a65.31,65.31,0,1,1,65.31-65.3A65.38,65.38,0,0,1,283.46,343Z"/><path class="cls-6" d="M201.9,290.33a81.47,81.47,0,0,1,27.57-68.41c18-15.89,31.63-26.72,58.1-27.4C308.29,194,331.4,198.2,356.3,207c30,10.61,53.12,19.16,64.39,23.52l-5-13.88L439.8,189A182.32,182.32,0,0,0,414,155.62L381.2,172.08l-30.05-20.44,3.24-36.55a180.26,180.26,0,0,0-39.32-11.58L298,136l-36.35.85L243,105.26c-2.83.64-5.63,1.36-8.41,2.13a98.9,98.9,0,0,0-16,5.23c-5.28,2-10.46,4.25-15.49,6.72l5.35,36.31h0l2.65,5.83C182.74,208.33,187.51,254.93,201.9,290.33Z"/><path class="cls-6" d="M465.45,299.08A187.13,187.13,0,0,0,466,277.6a168.94,168.94,0,0,0-1.89-20.75l-36.15-6-.06-.16c-4.2-2-38.49-17.8-76.34-31.15A321.53,321.53,0,0,0,319.82,210a82,82,0,0,1,45.18,81c-.6,28.47,1.36,57.27-29.73,95.37-17.82,21.85-30.24,37.46-35.55,44l6.09-.49,18.73,31.59a183.79,183.79,0,0,0,39.81-14.25l-5.46-36.28,28.79-22.22,33.69,14.44a181.8,181.8,0,0,0,23.85-34.88l-25.76-26.08,10.19-34.94Z"/><path class="cls-6" d="M350.46,330.42a82,82,0,0,1-128.55,7c-1.13-1.29-2.2-2.6-3.23-3.94h0c-6.37-7.15-26.64-21.77-36.75-60.82a152.16,152.16,0,0,1-4.12-55.69A150.15,150.15,0,0,1,192.35,168l-12.71,9.72L146,163.21A181.48,181.48,0,0,0,122.06,198l25.61,26.19L137.36,259l-35.78,8.05a185.08,185.08,0,0,0-.69,22.06,198.07,198.07,0,0,0,1.8,20.13l36.17,6.1L151,349.61l-24.25,27.56a185.22,185.22,0,0,0,25.81,33.57l32.85-16.36,30,20.53L212,451.47a183.34,183.34,0,0,0,40.53,11.95l16.93-32.6C270.19,430.18,327.75,381.92,350.46,330.42Z"/><path class="cls-5" d="M496,321,485.52,304.9H471.05v4.66L462,321H394.85L382.79,305.7v3.86L373.72,321H323.44l-9.06-11.4V305.8L302.3,321H251.92l-9.06-11.4V305.8L230.78,321H180.4L173,311.69,165.65,321H106.31V305.72l9.2-11.27h13.34v-22H103.29v24.2H64.49v12.89L55.42,321H41.27V257.37L50.34,246h50.28L108,255.2l7.55-9.23H230.78l15.55,19.52v4.77h3.83l-7.3-9.18V246H302.3l12.08,15.16v-3.76l9.06-11.4h14.15v48.48h41.82V265.51L394.85,246h56.46v7l5.59-7h50.27l15.65,19.51v19.83L510.88,299.9,524.42,321Zm-54-26.51,5.85,7.06V265.42L442,272.47h-3.64v22Zm-151.32,0,3.88-4.78V277.26l-3.88-4.79H266.07v22Zm-71.52,0,3.88-4.78V277.26l-3.88-4.79H194.56v22Zm-47.8,0V270.26h7.3L173,263.2l-7.38,9.27H152.17v22Zm324.31-16.16,2.36-2.88-2.37-2.94H471.05v5.82Z"/><path class="cls-7" d="M506.45,247.46l1.1,1.38,13,16.16.81,1v18.77l-.83,1-11.47,14,9,14,3.64,5.67h-24.9l-1.08-1.67-9.37-14.4H469.56V309l-.8,1-6.39,8-1.11,1.39H395.58l-1.11-1.4L381.7,301.91l-.4-.51V309l-.8,1-6.39,8L373,319.47H324.16l-1.1-1.39-6.39-8-.8-1v-7.51l-.31.39-12.87,16.16-1.11,1.39H252.64l-1.1-1.39-6.39-8-.8-1v-7.51l-.31.39-12.87,16.16-1.11,1.39H181.12l-1.1-1.39-6.39-8-.6-.76-.61.76-6.38,8-1.11,1.39H107.8V306.25l.83-1,6.48-7.93,1.11-1.35h14.13V271H63v.68H101.8v23.52H63V309l-.8,1-6.38,8-1.11,1.39H42.76V257.89l.8-1,6.39-8,1.11-1.39H99.9l1.1,1.39,6.39,8,.56.7.68-.83,6.48-7.94,1.11-1.35H230.06l1.11,1.39L244,265l.8,1v5.73h19.74V296h26.79l4.66-5.76V276.73L291.37,271H252.64l-1.1-1.39-6.39-8-.8-1V247.46h57.23l1.11,1.39L315.56,265l.31.39v-7.51l.8-1,6.39-8,1.1-1.39H336.1V296h44.8V266l.8-1,12.77-16.16,1.11-1.4h54.23v9.81l.31-.39,6.39-8,1.11-1.39h48.83m-66.9,19.84,6.59-7.93h0l-6.59,7.93M150.67,296h22.16v-24.2h20.23V296h26.8l4.65-5.76V276.73L219.86,271H181.12l-1.1-1.39-6.39-8-.6-.76-.61.76-6.38,8L164.93,271H150.67v25m254.58-24.29h31.6v23.52H405.17l.62.77h35.49l1.11,1.33,6.58,7.93.36.43V261.28l-.36.44-6.58,7.93L441.28,271H405.79l-.54.68m64.31,8.12h26.8l3.58-4.36L496.35,271H469.56v8.8m38.32-35.3h-51.7l-.9,1.12-1.1,1.39-1.38,1.73v-4.24H394.13l-.9,1.13-1.1,1.4-12.77,16.16-.8,1-.64.82v28H339.09V244.48H322.72l-.89,1.12L320.72,247l-6.39,8-.8,1-.65.82h0L305,247l-1.1-1.39-.9-1.12H241.37v12.38L233.5,247l-1.1-1.39-.9-1.12H114.8l-.9,1.09-1.1,1.35L108,252.83,103.34,247l-1.11-1.39-.89-1.12H49.62l-.9,1.12L47.61,247l-6.38,8-.8,1-.65.82v65.6H56.14l.9-1.12,1.1-1.39,6.39-8,.8-1,.65-.82V298.16h38.81V274h22.57v19H114.8l-.9,1.1-1.1,1.35-6.48,7.94-.83,1-.68.83v17.26h61.56l.9-1.12,1.1-1.39,4.66-5.86,4.65,5.86,1.11,1.39.89,1.12H231.5l.9-1.12,1.1-1.39,7.87-9.87h0l.64.82.8,1,6.39,8,1.11,1.39.89,1.12H303l.9-1.12,1.1-1.39,7.86-9.87h0l.65.82.8,1,6.39,8,1.11,1.39.89,1.12h51.72l.9-1.12,1.11-1.39,6.38-8,.8-1,.65-.82V310l7.85,9.93,1.1,1.4.9,1.13H462.7l.9-1.12,1.11-1.39,6.38-8,.8-1,.65-.82v-3.69h12.17l8.48,13,1.09,1.68.89,1.35h32l-3-4.6-3.64-5.67L512.72,300l10.09-12.31.83-1,.68-.82V265l-.66-.82-.81-1-13-16.16-1.1-1.38-.9-1.11ZM170.51,268.77,173,265.6l2.52,3.17h-5ZM439.83,274h2.86l.89-1.08,1.1-1.33,1.66-2v27.81l-1.66-2-1.1-1.33-.89-1.08h-2.86V274Zm-286.17,0h12.71l.9-1.13,1.1-1.39,1.48-1.85V293H153.66V274Zm318.88,0h22.38l1.17,1.44L495,276.8H472.54V274Zm-205,0H290l3.1,3.82v11.35L290,293H267.57V274Zm-71.52,0h22.38l3.1,3.82v11.35l-3.1,3.82H196.05V274Z"/><path class="cls-8" d="M98.12,275.34V291.5H59.31v16.26l-6.38,8H46.44V259.17l6.39-8H98.12l6.39,8v8.13H59.31v8Z"/><path class="cls-8" d="M163.16,315.79H111.48v-8.23l6.48-7.93H134V267.3H111.48v-8.22l6.48-7.94h51.58v8.13l-6.38,8H147v32.33h22.54v8.13Z"/><path class="cls-8" d="M228.29,251.14l12.87,16.16v32.33l-12.87,16.16H182.9l-6.39-8V275.43h12.87v24.2h32.23l6.58-8.13V275.43l-6.58-8.13H182.9l-6.39-8v-8.13Z"/><path class="cls-8" d="M299.81,251.14l12.87,16.16v32.33l-12.87,16.16H254.42l-6.39-8V275.43H260.9v24.2h32.23l6.58-8.13V275.43l-6.58-8.13H254.42l-6.39-8v-8.13Z"/><path class="cls-8" d="M371.23,315.79H325.94l-6.39-8V259.17l6.39-8h6.48v48.49h45.2v8.13Z"/><path class="cls-8" d="M433.17,275.34V291.5H397.46l6.58,8.13h35.51l6.59,7.93v8.23H397.36l-12.78-16.16V267.3l12.78-16.16h48.78v8.23l-6.59,7.93H404l-6.49,8Z"/><path class="cls-8" d="M459.39,251.14h45.29l13,16.16v16.16l-13.16,16.07,10.45,16.26H498.78l-10.45-16.07h-16V283.46H498.1l6.58-8-6.58-8.13H465.88v40.46l-6.39,8H453V259.17Z"/></svg>