<?xml version="1.0" encoding="UTF-8"?>
<svg id="Capa_1" xmlns="http://www.w3.org/2000/svg" version="1.1" viewBox="0 0 566.9 566.9">
  <!-- Generator: Adobe Illustrator 29.1.0, SVG Export Plug-In . SVG Version: 2.1.0 Build 142)  -->
  <defs>
    <style>
      .st0 {
        fill: #fff;
      }

      .st1 {
        fill: #35495e;
      }

      .st2 {
        fill: #be1622;
      }

      .st3 {
        fill: #f1c410;
      }
    </style>
  </defs>
  <path class="st1" d="M284.4,4.3c-.3,0-.6,0-.9,0C129.3,4.3,4.3,129.3,4.3,283.5s125,279.1,279.1,279.1.6,0,.9,0c153.7-.5,278.2-125.3,278.2-279.1S438.1,4.9,284.4,4.3Z"/>
  <path class="st2" d="M284.2,75.2c-.2,0-.5,0-.7,0-115.1,0-208.3,93.3-208.3,208.3s93.3,208.3,208.3,208.3.5,0,.7,0c114.7-.4,207.6-93.5,207.6-208.3s-92.9-207.9-207.6-208.3Z"/>
  <path class="st3" d="M480.9,86c52.7,52.7,81.8,122.9,81.8,197.4s-29,144.7-81.8,197.4c-52.7,52.7-122.8,81.8-197.4,81.8s-144.7-29-197.4-81.8C33.3,428.2,4.2,358,4.2,283.5s29-144.7,81.8-197.4C138.8,33.3,208.9,4.3,283.5,4.3s144.7,29,197.4,81.8ZM556.7,283.5c0-150.7-122.6-273.2-273.2-273.2S10.2,132.8,10.2,283.5s122.6,273.2,273.2,273.2,273.2-122.6,273.2-273.2Z"/>
  <g>
    <path class="st0" d="M108.7,117.4l-6.8,7.8,3.5,3.1,6.3-7.2,3.5,3.1-6.3,7.2,8,7-4.1,4.6-18.6-16.3,10.9-12.4,3.5,3.1Z"/>
    <path class="st0" d="M134.6,120.1l-9.5,9.3-3-3.1,2.5-2.5-11.2-11.5-2.5,2.5-3-3.1,9.5-9.3,3,3.1-2.5,2.5,11.2,11.5,2.5-2.5,3,3.1Z"/>
    <path class="st0" d="M154.8,103.1l-5.9,4.8-11.1-2.7-1.7,1.4,5.7,7-4.8,3.9-15.7-19.1,7.7-6.3c1.1-.9,2-1.6,2.9-2.1.9-.5,1.8-.8,2.9-1,1-.1,2,0,3,.3,1,.3,1.9,1,2.7,2.1,1.2,1.5,1.8,2.9,1.9,4.4,0,1.5-.2,2.9-.9,4.3l13.1,2.9ZM136.2,96.2c-.4-.5-.8-.8-1.3-1-.5-.2-1-.2-1.6,0-.4.1-.8.3-1.2.6-.4.3-.9.6-1.4,1.1l-1.6,1.3,4.2,5.2,1.4-1.1c.7-.5,1.2-1.1,1.6-1.5.4-.5.7-1,.8-1.5.1-.5.1-1,0-1.4-.1-.5-.4-1-.8-1.5Z"/>
    <path class="st0" d="M156,102.6l-13.7-20.6,13.9-9.3,2.6,3.9-8.8,5.8,2.4,3.6,8.1-5.4,2.6,3.9-8.1,5.4,3.5,5.2,8.8-5.8,2.6,3.9-13.9,9.3Z"/>
    <path class="st0" d="M186.9,75.4c.6,1.1.9,2.1.9,3.2,0,1-.2,2-.6,2.9-.5,1.1-1.1,2-2,2.8-.8.8-2,1.6-3.5,2.4l-8.7,4.7-11.7-21.8,7.7-4.1c1.6-.9,2.8-1.4,3.7-1.8s1.8-.5,2.7-.5c1,0,1.9.3,2.6.7.8.5,1.4,1.2,1.9,2.1.6,1.1.8,2.2.7,3.3,0,1.1-.5,2.1-1.2,3h0c1.5-.3,2.9-.3,4.2.1,1.3.4,2.3,1.4,3.1,2.9ZM175.1,70.2c-.2-.4-.5-.7-.9-.9-.4-.3-.8-.4-1.3-.4-.4,0-.9.2-1.4.4-.5.2-1.2.6-2.2,1.2l-.4.2,2.5,4.6.7-.4c.9-.5,1.6-.9,2-1.1.4-.2.7-.5,1-.9.3-.4.5-.9.5-1.3,0-.4-.2-.9-.4-1.4ZM181.2,78.3c-.4-.7-.8-1.1-1.3-1.4s-1-.3-1.7-.2c-.4,0-.9.2-1.5.5-.6.3-1.4.7-2.3,1.2l-1,.5,2.9,5.5.3-.2c1.4-.8,2.4-1.3,2.9-1.6.5-.3,1-.7,1.5-1.3.4-.5.6-1,.6-1.5,0-.5-.1-1.1-.4-1.6Z"/>
    <path class="st0" d="M190.7,81.9l-1.7-26,6.3-2.6,17.1,19.7-5.9,2.4-3.3-4.1-7.2,3,.5,5.3-5.8,2.4ZM200.2,67.7l-5.4-6.6.8,8.5,4.7-1.9Z"/>
    <path class="st0" d="M218.8,71.1l-5.8-19.1-7,2.1-1.4-4.5,19.9-6,1.4,4.5-7,2.1,5.8,19.1-5.9,1.8Z"/>
    <path class="st0" d="M240.6,65.1l4.4-25.7,6.7-1.1,12.1,23.1-6.3,1-2.3-4.7-7.7,1.2-.7,5.2-6.1,1ZM253.1,53.5l-3.8-7.7-1.2,8.4,5-.8Z"/>
    <path class="st0" d="M270.3,61.1l-1.2-20-7.3.4-.3-4.7,20.8-1.3.3,4.7-7.3.4,1.2,20-6.2.4Z"/>
    <path class="st0" d="M290.6,60.5l.6-20-7.3-.2v-4.7c.1,0,20.9.6,20.9.6v4.7c-.1,0-7.4-.2-7.4-.2l-.6,20-6.2-.2Z"/>
    <path class="st0" d="M303.5,60.8l11.4-23.5,6.7.9,5.1,25.6-6.3-.8-.9-5.2-7.7-1-2.2,4.8-6.2-.8ZM318.7,53.2l-1.5-8.4-3.5,7.8,5,.6Z"/>
    <path class="st0" d="M338.8,67.2c-3.6-.8-6.2-2.6-7.8-5.3-1.6-2.7-2-6-1-9.9.9-3.8,2.7-6.6,5.3-8.4,2.7-1.8,5.8-2.2,9.4-1.4,1,.2,1.8.5,2.5.8s1.4.6,2.1,1c.5.3,1.1.7,1.6,1.1.6.4,1,.8,1.4,1.1l-1.3,5.7h-.6c-.2-.5-.5-.9-.9-1.3-.4-.5-.8-.9-1.3-1.4-.5-.5-1-.9-1.6-1.3-.6-.4-1.3-.7-2-.9-.9-.2-1.7-.3-2.5-.1-.8.1-1.6.4-2.4.9-.7.5-1.4,1.2-2.1,2.1-.6,1-1.1,2.1-1.4,3.6-.4,1.5-.4,2.8-.3,3.9.2,1.1.5,2.1,1,2.8.5.7,1.1,1.3,1.8,1.8.7.4,1.4.8,2.2.9.8.2,1.6.2,2.4.1.8,0,1.5-.2,2-.5.6-.2,1.2-.4,1.7-.7.5-.2.9-.5,1.3-.7h.5c0,.1-1.3,5.8-1.3,5.8-.5.1-1.1.2-1.7.3-.6.1-1.3.2-1.9.3-.8,0-1.6,0-2.2,0-.7,0-1.6-.2-2.8-.5Z"/>
    <path class="st0" d="M370.4,76.6l-7.1-2.5-3.1-11.7-1.7,1.2-2.7,7.9-5.9-2,8.1-23.4,5.9,2-3.6,10.4,11-7.8,6.8,2.3-12.1,8,4.3,15.5Z"/>
    <path class="st0" d="M420.4,74.9l-17.5,18.5-5.9-3.3,4-15.3-10.8,11.5-5.9-3.3,6.6-24.6,5.6,3.1-5.1,16.1,11.7-12.5,5.4,3-4.7,16.4,11.2-12.7,5.5,3.1Z"/>
    <path class="st0" d="M420,105.5l-10.8-7.8,2.5-3.5,2.9,2.1,9.4-13.1-2.9-2.1,2.5-3.5,10.8,7.8-2.5,3.5-2.9-2.1-9.4,13.1,2.9,2.1-2.5,3.5Z"/>
    <path class="st0" d="M438.9,121.5l-4.5-3.9,4.2-19.2-11.3,13-4.3-3.7,16.3-18.6,5.7,5-3.4,15.8,9.3-10.7,4.3,3.7-16.3,18.6Z"/>
    <path class="st0" d="M456.9,138.9c-1.1-.5-2.3-1.3-3.8-2.2-1.5-1-2.8-2.1-3.9-3.4-2.6-2.9-3.9-5.9-3.8-9.1.1-3.2,1.7-6.2,4.7-9,2.9-2.6,5.9-3.8,9.2-3.7,3.3.1,6.3,1.7,9,4.6,1.4,1.5,2.4,2.9,3,4.1.6,1.2,1.1,2.6,1.5,4l-4.3,3.9-.4-.4c0-.4,0-.9-.1-1.6,0-.7-.2-1.3-.3-1.9-.2-.7-.4-1.4-.8-2.2-.4-.8-.8-1.5-1.5-2.2-.7-.8-1.5-1.4-2.3-1.8s-1.7-.7-2.7-.7c-.9,0-1.9.1-2.9.6-1,.4-2,1.1-3,2-2.1,1.9-3.2,3.9-3.3,5.9,0,2,.8,3.9,2.5,5.8.1.2.3.4.5.6.2.2.4.4.6.5l3.6-3.3-3.2-3.5,3.4-3.1,7.3,8-9,8.2Z"/>
  </g>
  <g>
    <path class="st0" d="M99,448.8l14.9-14.2-5.2-5.4,3.5-3.3,14.8,15.5-3.5,3.3-5.2-5.4-14.9,14.2-4.4-4.6Z"/>
    <path class="st0" d="M137.4,467.2c-2.7,3.1-5.6,4.9-8.8,5.2s-6.3-.7-9.2-3.2c-2.9-2.5-4.4-5.4-4.5-8.6,0-3.2,1.2-6.4,3.8-9.5,2.7-3.1,5.6-4.8,8.8-5.2,3.2-.4,6.3.7,9.2,3.2,2.9,2.5,4.4,5.4,4.5,8.6s-1.2,6.4-3.8,9.5ZM132.4,462.9c1-1.1,1.7-2.2,2.2-3.2.5-1,.7-1.9.8-2.8,0-.9-.1-1.7-.4-2.3-.3-.7-.8-1.3-1.3-1.7-.6-.5-1.2-.9-1.9-1.1-.7-.2-1.5-.2-2.4,0-.8.2-1.7.5-2.7,1.2-1,.6-1.9,1.5-2.9,2.6-1,1.2-1.7,2.3-2.2,3.2-.4,1-.7,1.9-.7,2.8,0,.9,0,1.7.4,2.4s.8,1.3,1.3,1.7c.6.5,1.2.8,2,1.1.7.2,1.5.2,2.4,0,.9-.2,1.8-.6,2.6-1.1.9-.6,1.8-1.4,2.9-2.6Z"/>
    <path class="st0" d="M152.9,493.4l-6.4-4.4-.5-11.7-1.9-1.3-5.3,7.7-5.2-3.6,14.4-21,8.4,5.8c1.2.8,2.1,1.6,2.9,2.3.8.7,1.3,1.6,1.8,2.6.4,1,.6,2,.5,3.1,0,1-.5,2.1-1.3,3.3-1.1,1.6-2.4,2.7-3.8,3.2-1.4.5-2.9.6-4.5.4l.9,13.8ZM154.4,473.1c.4-.5.6-1,.6-1.6,0-.5,0-1-.4-1.6-.2-.4-.5-.7-.9-1-.4-.3-.9-.7-1.5-1.1l-1.8-1.2-3.9,5.6,1.5,1c.7.5,1.4.9,2,1.1s1.1.4,1.7.3c.5,0,1-.2,1.4-.4.4-.3.8-.7,1.2-1.3Z"/>
    <path class="st0" d="M165.2,500.7c-3.3-1.8-5.4-4.3-6.3-7.4-.9-3.1-.3-6.5,1.7-10.1,1.9-3.5,4.5-5.8,7.6-6.8,3.1-1,6.4-.6,9.7,1.2.9.5,1.7,1,2.3,1.5s1.3,1,1.8,1.5c.4.4.9.9,1.3,1.5.5.6.8,1.1,1.1,1.5l-2.9,5.3-.6-.3c-.1-.4-.3-.9-.5-1.4-.2-.6-.5-1.1-.9-1.7-.3-.6-.8-1.2-1.3-1.8s-1.1-1-1.8-1.4c-.8-.4-1.6-.7-2.4-.8-.8-.1-1.7,0-2.7.3-.9.3-1.8.8-2.6,1.6-.9.8-1.7,1.8-2.4,3.1-.8,1.4-1.2,2.7-1.4,3.8-.1,1.1,0,2.2.2,3.1.3.9.7,1.6,1.3,2.3.6.6,1.2,1.2,1.9,1.5.7.4,1.5.7,2.3.8.8.1,1.5.2,2.1.1.7,0,1.3-.1,1.8-.2s1-.2,1.5-.3l.5.3-2.9,5.2c-.5,0-1.1,0-1.8-.1-.7,0-1.3-.1-2-.3-.8-.2-1.6-.4-2.2-.6s-1.5-.6-2.6-1.2Z"/>
    <path class="st0" d="M197.6,515.1l-5.9-2.5,4.4-10.4-8-3.4-4.4,10.4-5.9-2.5,9.9-23.4,5.9,2.5-3.6,8.6,8,3.4,3.6-8.6,5.9,2.5-9.9,23.4Z"/>
    <path class="st0" d="M220.2,522.3l-16.2-5.1,7.6-24.3,6.1,1.9-6.1,19.7,10.1,3.2-1.4,4.6Z"/>
    <path class="st0" d="M236.6,526.1l-13.3-3.1,1-4.3,3.6.8,3.7-16.1-3.6-.8,1-4.3,13.3,3.1-1,4.3-3.6-.8-3.7,16.1,3.6.8-1,4.3Z"/>
    <path class="st0" d="M263.3,528.8c-1.2.3-2.7.5-4.5.7-1.8.2-3.6.2-5.3,0-4-.5-7-2.1-9-4.7-2-2.6-2.8-6-2.2-10.2.5-4,2.2-7,4.8-9,2.7-2.1,6.1-2.8,10.1-2.2,2.1.3,3.8.7,5.1,1.3,1.3.6,2.6,1.3,3.9,2.2l-.8,5.9h-.6c-.3-.4-.7-.8-1.2-1.3-.5-.5-1-1-1.5-1.3-.6-.4-1.3-.9-2.1-1.2-.8-.4-1.7-.6-2.6-.8-1.1-.1-2.1-.1-3,0-.9.2-1.8.6-2.6,1.2-.8.6-1.4,1.4-1.9,2.4-.5,1-.9,2.2-1.1,3.5-.4,2.9,0,5.2,1.3,6.8s3.2,2.6,5.8,2.9c.2,0,.5,0,.8,0s.6,0,.8,0l.7-4.9-4.9-.7.7-4.7,11,1.5-1.7,12.4Z"/>
    <path class="st0" d="M291.1,531.3l-6.4-.2.3-11.3-8.7-.2-.3,11.3-6.4-.2.7-25.4,6.4.2-.3,9.3,8.7.2.3-9.3,6.4.2-.7,25.4Z"/>
    <path class="st0" d="M302.7,530.7l-1.5-20.5-7.5.5-.4-4.8,21.3-1.6.4,4.8-7.5.5,1.5,20.5-6.4.5Z"/>
    <path class="st0" d="M349.6,515.6c.3,1.2.3,2.4,0,3.4-.3,1-.7,1.9-1.4,2.7-.8.9-1.7,1.7-2.7,2.2-1.1.6-2.4,1-4.2,1.4l-9.9,2.1-5.4-24.9,8.8-1.9c1.8-.4,3.2-.6,4.2-.7,1,0,1.9,0,2.8.3,1,.3,1.8.8,2.4,1.5.6.7,1,1.6,1.3,2.6.3,1.2.2,2.4-.2,3.4-.4,1.1-1.1,2-2.1,2.6h0c1.6.1,3,.5,4.1,1.3,1.1.8,1.9,2,2.3,3.7ZM339.4,507.1c0-.4-.3-.8-.6-1.2-.3-.4-.7-.6-1.2-.7-.4,0-1,0-1.5,0-.6.1-1.4.3-2.5.5h-.4c0,0,1.1,5.4,1.1,5.4l.8-.2c1.1-.2,1.8-.4,2.2-.5.4-.1.8-.3,1.3-.6.5-.3.7-.7.8-1.2.1-.5,0-1,0-1.5ZM343.2,516.9c-.2-.8-.5-1.3-.9-1.7-.4-.4-.9-.6-1.6-.7-.4,0-.9,0-1.6,0-.7.1-1.6.3-2.7.5l-1.2.2,1.3,6.2h.3c1.6-.4,2.7-.7,3.4-.8.6-.2,1.2-.4,1.8-.9.5-.4.9-.8,1-1.3.2-.5.2-1.1,0-1.7Z"/>
    <path class="st0" d="M378.7,514.4l-7.4,2.4-9.6-6.7-2.2.7,2.9,8.9-6,2-7.9-24.2,9.7-3.2c1.3-.4,2.5-.7,3.6-.9,1-.2,2.1-.1,3.1.1,1,.3,2,.7,2.8,1.4.8.7,1.4,1.7,1.8,3,.6,1.9.7,3.5.2,4.9-.5,1.4-1.3,2.7-2.4,3.8l11.5,7.6ZM363.4,500.9c-.2-.6-.5-1.1-.9-1.5-.4-.4-.9-.6-1.5-.6-.4,0-.9,0-1.4.1-.5.1-1.1.3-1.8.5l-2,.7,2.1,6.5,1.7-.6c.8-.3,1.5-.6,2.1-.9.6-.3,1-.7,1.3-1.2.3-.4.5-.9.5-1.4s0-1.1-.3-1.8Z"/>
    <path class="st0" d="M393.2,507.9l-12.6,5.4-1.8-4.1,3.4-1.4-6.6-15.2-3.4,1.5-1.8-4.1,12.6-5.4,1.8,4.1-3.4,1.5,6.6,15.2,3.4-1.5,1.8,4.1Z"/>
    <path class="st0" d="M416.3,494.1c-.8.9-1.8,2-3.2,3.3-1.4,1.2-2.8,2.3-4.3,3.1-3.5,1.9-6.9,2.4-10,1.5-3.2-.9-5.8-3.2-7.8-6.9-1.9-3.5-2.4-6.9-1.5-10.1.9-3.2,3.2-5.9,6.8-7.8,1.9-1,3.5-1.7,4.8-2,1.4-.3,2.8-.5,4.4-.5l2.9,5.2-.5.3c-.4,0-.9-.1-1.6-.3-.7-.1-1.4-.2-2-.2-.7,0-1.5,0-2.4.2-.9.2-1.7.5-2.5.9-1,.5-1.8,1.2-2.4,1.9-.6.7-1.1,1.6-1.4,2.5-.3.9-.3,1.9-.2,3,.2,1.1.6,2.3,1.2,3.5,1.4,2.6,3.1,4.2,5.1,4.7,2,.5,4.1.2,6.4-1.1.2-.1.4-.2.7-.4.3-.2.5-.3.7-.4l-2.4-4.4-4.3,2.4-2.3-4.2,9.8-5.3,6,11Z"/>
    <path class="st0" d="M420.2,493.5l-7.5-25.8,5.7-4,21.6,16-5.4,3.8-4.3-3.4-6.6,4.6,1.7,5.2-5.3,3.7ZM426.6,477.1l-6.9-5.4,2.7,8.4,4.3-3Z"/>
    <path class="st0" d="M452.1,452.6c1.6,1.8,2.6,3.7,3,5.8.5,2.1.4,4-.1,5.8-.4,1.5-1.2,2.9-2.2,4.1-1,1.2-2.2,2.4-3.5,3.5l-6,5.2-16.8-19.1,5.9-5.2c1.3-1.2,2.7-2.2,4-3,1.3-.9,2.8-1.4,4.4-1.6,2-.3,3.9,0,5.8.7,1.9.7,3.7,2,5.3,3.9ZM447.1,456.9c-1.1-1.3-2.3-2.1-3.5-2.7-1.2-.5-2.5-.6-3.8-.4-1,.2-1.8.6-2.6,1.2-.7.6-1.6,1.3-2.6,2.2h0c0,0,10.5,12.1,10.5,12.1h0c1.1-1,2-1.8,2.7-2.5.7-.7,1.2-1.5,1.5-2.5.4-1.2.4-2.4,0-3.6s-1.1-2.5-2.2-3.7Z"/>
    <path class="st0" d="M464.2,458.4l-18.5-17.4,11.8-12.5,3.5,3.3-7.4,7.9,3.2,3.1,6.8-7.3,3.5,3.3-6.8,7.3,4.7,4.4,7.4-7.9,3.5,3.3-11.8,12.5Z"/>
  </g>
  <path class="st3" d="M430.8,136.2c39.3,39.3,61,91.7,61,147.3s-21.7,108-61,147.3c-39.3,39.3-91.7,61-147.3,61s-108-21.7-147.3-61c-39.3-39.3-61-91.7-61-147.3s21.7-108,61-147.3c39.3-39.3,91.7-61,147.3-61s108,21.7,147.3,61ZM487.3,283.5c0-112.4-91.4-203.8-203.8-203.8s-203.8,91.4-203.8,203.8,91.4,203.8,203.8,203.8,203.8-91.4,203.8-203.8Z"/>
  <g>
    <path class="st3" d="M293.8,109.3h0c-3.2,0-6.3,0-9.5,0-1-3-2-5.9-3-8.9,0,0,0,0,0,0,0,0,0,0,0,0-.9,3-1.9,6-2.8,9h-9.6c2.6,2,5.2,3.8,7.8,5.6-.9,3-1.9,6-2.8,9,0,0,0,0,0,0,2.5-1.9,5.1-3.8,7.6-5.6,2.6,1.8,5.1,3.6,7.7,5.5,0,0,0,0,0,0-1-3-2-6-3-8.9,2.5-1.9,5.1-3.8,7.6-5.7Z"/>
    <path class="st3" d="M325.8,115h0c-3.1-.7-6.2-1.3-9.3-1.9-.4-3.1-.8-6.2-1.1-9.3,0,0,0,0,0,0,0,0,0,0,0,0-1.5,2.7-3,5.5-4.6,8.2l-9.4-1.8c2.2,2.4,4.4,4.7,6.5,7-1.5,2.8-3.1,5.5-4.6,8.3,0,0,0,0,0,0,2.9-1.3,5.7-2.7,8.6-4,2.2,2.3,4.3,4.6,6.4,6.9,0,0,0,0,0,0-.4-3.1-.8-6.2-1.1-9.4,2.9-1.3,5.7-2.7,8.6-4Z"/>
    <path class="st3" d="M356.2,126.9h0c-2.9-1.3-5.8-2.6-8.7-3.9.3-3.1.6-6.2.9-9.3,0,0,0,0,0-.1,0,0,0,0,0,0-2.1,2.3-4.2,4.7-6.3,7-2.9-1.3-5.8-2.5-8.7-3.8,1.6,2.8,3.2,5.5,4.8,8.3-2.1,2.4-4.2,4.7-6.3,7.1,0,0,0,0,0,0,3.1-.7,6.2-1.3,9.2-2,1.6,2.7,3.2,5.4,4.8,8.2,0,0,0,0,0,0,.3-3.1.6-6.3.9-9.4,3.1-.7,6.2-1.3,9.3-2Z"/>
    <path class="st3" d="M236.8,116.1h0c3.1-.7,6.2-1.4,9.3-2.1.3-3.1.6-6.2.9-9.4,0,0,0,0,0,0,0,0,0,0,0,0,1.6,2.7,3.2,5.4,4.8,8.1,3.1-.7,6.2-1.4,9.3-2.1-2.1,2.4-4.2,4.8-6.3,7.1,1.6,2.7,3.2,5.4,4.8,8.2,0,0,0,0,0,0-2.9-1.3-5.8-2.5-8.7-3.8-2.1,2.4-4.2,4.7-6.3,7.1,0,0,0,0,0,0,.3-3.1.6-6.3.9-9.4-2.9-1.3-5.8-2.5-8.7-3.8Z"/>
    <path class="st3" d="M206.8,128.8h0c2.9-1.4,5.7-2.7,8.6-4.1-.4-3.1-.8-6.2-1.2-9.3,0,0,0,0,0-.1,0,0,0,0,0,0,2.1,2.3,4.3,4.6,6.4,6.9,2.9-1.4,5.7-2.7,8.6-4.1-1.6,2.8-3.1,5.6-4.6,8.4,2.2,2.3,4.3,4.6,6.5,6.9,0,0,0,0,0,0-3.1-.6-6.2-1.2-9.3-1.8-1.5,2.8-3,5.5-4.6,8.3,0,0,0,0,0,0-.4-3.1-.8-6.2-1.2-9.4-3.1-.6-6.2-1.2-9.3-1.8Z"/>
  </g>
  <g>
    <path class="st3" d="M298.3,464.3h0c-3.2,0-6.3.1-9.5.2-.9,3-1.9,6-2.8,9,0,0,0,0,0,0,0,0,0,0,0,0-1-3-2-5.9-3-8.9h-9.6c2.6-1.8,5.1-3.7,7.7-5.6-1-3-2-6-3-9,0,0,0,0,0,0,2.6,1.8,5.1,3.6,7.7,5.5,2.5-1.9,5.1-3.8,7.6-5.6,0,0,0,0,0,0-.9,3-1.9,6-2.8,9,2.6,1.8,5.2,3.7,7.7,5.5Z"/>
    <path class="st3" d="M330.1,457.7h0c-3.1.7-6.2,1.4-9.3,2.1-.3,3.1-.6,6.2-.9,9.4,0,0,0,0,0,0,0,0,0,0,0,0-1.6-2.7-3.2-5.4-4.8-8.1-3.1.7-6.2,1.4-9.3,2.1,2.1-2.4,4.2-4.8,6.3-7.1-1.6-2.7-3.2-5.4-4.8-8.2,0,0,0,0,0,0,2.9,1.3,5.8,2.5,8.7,3.8,2.1-2.4,4.2-4.7,6.3-7.1,0,0,0,0,0,0-.3,3.1-.6,6.3-.9,9.4,2.9,1.3,5.8,2.5,8.7,3.8Z"/>
    <path class="st3" d="M360.2,445.1h0c-2.9,1.4-5.7,2.7-8.6,4.1.4,3.1.8,6.2,1.2,9.3,0,0,0,0,0,.1,0,0,0,0,0,0-2.1-2.3-4.3-4.6-6.4-6.9-2.9,1.4-5.7,2.7-8.6,4.1,1.6-2.8,3.1-5.6,4.6-8.4-2.2-2.3-4.3-4.6-6.5-6.9,0,0,0,0,0,0,3.1.6,6.2,1.2,9.3,1.8,1.5-2.8,3-5.5,4.6-8.3,0,0,0,0,0,0,.4,3.1.8,6.2,1.2,9.4,3.1.6,6.2,1.2,9.3,1.8Z"/>
    <path class="st3" d="M241.1,458.8h0c3.1.7,6.2,1.3,9.3,1.9.4,3.1.8,6.2,1.1,9.3,0,0,0,0,0,0,0,0,0,0,0,0,1.5-2.7,3-5.5,4.6-8.2,3.1.6,6.2,1.2,9.4,1.8-2.2-2.4-4.4-4.7-6.5-7,1.5-2.8,3.1-5.5,4.6-8.3,0,0,0,0,0,0-2.9,1.3-5.7,2.7-8.6,4-2.2-2.3-4.3-4.6-6.4-6.9,0,0,0,0,0,0,.4,3.1.8,6.2,1.1,9.4-2.9,1.3-5.7,2.7-8.6,4Z"/>
    <path class="st3" d="M210.8,446.9h0c2.9,1.3,5.8,2.6,8.7,3.9-.3,3.1-.6,6.2-.9,9.3,0,0,0,0,0,.1,0,0,0,0,0,0,2.1-2.3,4.2-4.7,6.3-7,2.9,1.3,5.8,2.5,8.7,3.8-1.6-2.8-3.2-5.5-4.8-8.3,2.1-2.4,4.2-4.7,6.3-7.1,0,0,0,0,0,0-3.1.7-6.2,1.3-9.2,2-1.6-2.7-3.2-5.4-4.8-8.2,0,0,0,0,0,0-.3,3.1-.6,6.3-.9,9.4-3.1.7-6.2,1.3-9.3,2Z"/>
  </g>
  <g>
    <path class="st1" d="M433.3,289.4c0-.4,0-.8,0-1.1,0-1.2,0-2.3,0-3.4,0-.7,0-1.4,0-2.2,0-1,0-2.1,0-3.1,0-.7,0-1.3,0-2-.7-19.1-5.1-37.6-13-55.6-.8-1.9-1.4-4-3.4-5.7-.2-.2-.3-.4-.5-.6-13.3,22.2-15.7,45.7-12.1,70.7-31,5.1-41.5,25.4-39.7,54.3-.7.3-1.3.5-1.9.6-5.1-.7-9.7-1.6-14.4-1.1-.3,0-.6,0-.9.1,0,0,0,0,0,0-13,1.2-18.6,8.6-16.7,21.7.2,1.3.7,2.6,0,4.1-.3,0-.5.1-.7.2-1.3,0-2.5-.5-3.7-1-.5-.3-1-.5-1.5-.7-10.3-4.2-19.3-1.3-24.9,8.4-5.3,9.2-8,19.5-11.9,29.3-1.5,3.7-2.8,7.5-4.7,12.7-1.9-5.2-3.2-9-4.7-12.7-3.9-9.8-6.6-20.1-11.9-29.3-5.6-9.7-14.5-12.7-24.9-8.4-.5.2-1,.5-1.5.7-1.2.5-2.4.9-3.7,1-.2,0-.5,0-.7-.2-.7-1.5-.1-2.8,0-4.1,2-13.1-3.7-20.5-16.7-21.7,0,0,0,0,0,0-.3,0-.6,0-.9-.1-4.7-.5-9.3.4-14.4,1.1-.6,0-1.2-.3-1.9-.6,1.8-28.8-8.6-49.1-39.7-54.3,3.7-25,1.2-48.5-12.1-70.7-.2.2-.3.4-.5.6-2,1.7-2.6,3.8-3.4,5.7-7.9,18-12.2,36.5-13,55.6,0,.7,0,1.3,0,2,0,1,0,2.1,0,3.1,0,.7,0,1.4,0,2.2,0,1.1,0,2.3,0,3.4,0,.4,0,.8,0,1.1.2,4.4.5,8.8,1.1,13.3,2.9,23.3,10.8,44.3,23.2,62.9,10.7,16.4,24.8,30.5,42.2,42.2,9.7,6.5,19.6,11.7,29.7,15.7,3.2,2.2,7.1,2.8,10.7,3.8.4.1.8.2,1.3.3,13.5,4,27.4,5.9,41.6,5.7,14.2.1,28.1-1.7,41.6-5.7.4-.1.8-.2,1.3-.3,3.6-1,7.5-1.5,10.7-3.8,10.1-4,20-9.2,29.7-15.7,17.5-11.7,31.5-25.8,42.2-42.2,12.4-18.6,20.3-39.5,23.2-62.9.6-4.5.9-8.9,1.1-13.3Z"/>
    <path class="st3" d="M452.1,165.8c-27,15.7-46.7,37.5-56,67.8-2.2,7.1-3.8,14.3-4.2,21.7-.4,7.2,0,14.4,0,21.9-24.7,8-36.1,26-38.9,50.9-7.5.1-14.7,1.2-21.2,5.2-6.6,3.9-10.6,9.6-12.4,17.2-20.2,0-29.3,13-35.7,31.3-6.6-17.7-15.3-31.3-35.6-31.2-4.9-16.8-17.6-22-33.9-22.4-2.7-24.4-13.8-42.7-38.7-50.7,0-10.2.4-20.5-1.4-30.6-5.8-32-22.9-56.5-49.4-74.8-3.2-2.2-6.5-4.2-9.8-6.2.8-2.5,2.9-.4,4.2-1.2,48,4.5,95.3,32.1,120.4,70.4-2.2,4.2-4.7,8.6-6.8,13.1-8.3,17.8-5.5,33.9,7.2,48.6,3.1,3.7,6.9,6.3,11.5,7.8,9.2,2.9,17.3-.9,21-9.7.6-1.3,1.1-2.7,1.9-4.7,6.1,4.9,12.2,5.1,17.7.6,1.9.4,1.6,1.7,1.9,2.5,4.9,12.5,17.5,16.3,28.3,8,12.8-9.8,22.8-29.4,13.2-51.1-2.3-5.2-5-10.2-7.7-15.5,19.6-27.9,45.4-47.7,77.3-59.7,15.2-5.7,30.9-9,47-10.9,0,.6.2,1.1.2,1.7Z"/>
    <path class="st1" d="M183.2,171.4c17.1-15.1,35.8-25.6,56.7-31.5,52.6-14.7,100.1-4,142.9,31-8.6,5.9-17.5,10.2-25.3,16.2-16.8,12.7-30.9,27.7-42.5,45.1-1.6,2.3-1.1,4.1.5,6.4,4.9,6.8,9.1,14.2,11.1,22.5,2.8,12-2.3,23.1-11.1,30.4-2.5,2.1-5.4,2.5-9.1.9-2.3-7.4-4.8-15.2-7.4-23.5-5.6,3.9-9,9.8-15,12.6-7-1.8-9.5-9-15-13-4.1,8-4.6,16.7-8.4,24-4.4,2-7.8.3-10.7-2.4-10.4-10-12.6-24.5-6.2-37.6,2.9-5.9,6.4-11.3,10.2-17.3-16.7-28-40.7-48-70.4-63.8Z"/>
  </g>
</svg>