<svg enable-background="new 0 0 113.3 113.4" viewBox="0 0 113.3 113.4" xmlns="http://www.w3.org/2000/svg"><path d="m113.3 56.7c.2 31.3-25.5 56.9-57 56.7-31.1-.2-56.9-25.8-56.3-57.7.4-30.7 25.8-56.3 57.8-55.7 30.6.6 55.6 25.7 55.5 56.7zm-56.8 55.2c31.1-.9 54.9-24.2 55.1-54.8.3-31.5-24.2-55.4-54.8-55.5-31-.1-55.2 23.9-55.2 54.9 0 31.1 24.1 54.6 54.9 55.4z" fill="#282827"/><path d="m56.5 111.9c-30.9-.9-55-24.3-54.9-55.3 0-31 24.3-55 55.2-54.9 30.6.1 55.1 24 54.8 55.5-.2 30.6-23.9 53.9-55.1 54.7zm-.6-89.1c-.9 0-1.7.3-2.3 1.1-1.4.3-2.5 1.2-3.7 2-2.5 1.8-5.2 2.5-8.4 2.4-9.7-.2-19.4-.1-29-.1-.7 0-1.5-.1-2 .7-.2.1-.4.2-.6.2-.5 1.1.2 2 .7 2.8 1.2 2.2 2.5 4.3 3.7 6.5 3.1 5.4 6.4 10.7 9.3 16.2 1.5 2.8 3.9 5.3 4 8.8 0 3.1.8 6.2-1 9.1-.4.5-.5 1.2-.1 1.8.2 0 .3.1.5.1.1.9.9.9 1.4.8 2.7-.4 4.8.9 7 2.1 1.1.6 2.2 1.4 2.8 2.6 3.3 6.3 7.2 12.3 10.6 18.6 1.7 3.2 3.6 6.3 5.5 9.5.4.6.8 1.3 1.7 1.4.2.1.5.1.7 0 .9-.2 1.4-.8 1.7-1.5.8-1.5 1.7-2.9 2.5-4.4 2.6-4.6 5.4-9.1 7.9-13.7 1.8-3.3 3.7-6.6 5.5-9.9 1.7-3.1 4.3-4.9 8-4.7.5 0 1.1.1 1.6 0 .7-.1 1.5 0 1.8-.8.1 0 .2 0 .2-.1.5-.7.2-1.4-.1-2.1-.5-1.1-.7-2.3-.7-3.5 0-1.3.1-2.6-.1-3.9-.3-2 0-3.9 1.2-5.6.8-1.2 1.7-2.4 2.3-3.7 1.7-3.7 3.8-7.1 5.9-10.6 2.5-4.4 5.1-8.9 7.6-13.3.5-.8.7-1.7.6-2.6-.6-.9-1.5-.9-2.3-.9-10.8 0-21.6 0-32.4 0-.6 0-1.1 0-1.7-.1-3.1-1-5.9-2.5-8.4-4.6-.3-.3-.6-.7-1.1-.6-.2-.1-.5-.1-.8 0z" fill="#4b4b4b"/><path d="m56.7 23c .5-.1.8.3 1.1.6 2.5 2.1 5.3 3.6 8.4 4.6.6.2 1.1.1 1.7.1h32.4c.9 0 1.7 0 2.3.9.2.9-.1 1.7-.6 2.6-2.6 4.4-5.1 8.8-7.6 13.3-2 3.5-4.2 6.9-5.9 10.6-.6 1.3-1.4 2.5-2.3 3.7-1.2 1.7-1.5 3.6-1.2 5.6.2 1.3.1 2.6.1 3.9 0 1.2.2 2.4.7 3.5.3.6.6 1.3.1 2.1-.2-1.3-1.2-2.4-1.3-3.7-.2-2.3-.1-4.7-.3-7-.1-1.8.5-3.3 1.3-4.8 4.8-8.4 9.7-16.8 14.5-25.2.8-1.3 1.7-2.6 2.2-4.5-12.3 0-24.5 0-36.6-.1-.5-.7-1.4-.7-2.1-1.1-1.9-1.1-3.9-2.1-5.9-3.2-.1-.1-.1-.1-.2-.2-.3-.7-.6-1.1-.8-1.7z" fill="#9b815c"/><path d="m65.8 29c12.2 0 24.3 0 36.6.1-.5 1.9-1.4 3.2-2.2 4.5-4.8 8.4-9.7 16.8-14.5 25.2-.8 1.5-1.4 3-1.3 4.8.1 2.3 0 4.7.3 7 .1 1.4 1.1 2.4 1.3 3.7-.1 0-.2 0-.2.1-2.9.3-5.9-.4-8.5 1.2 0-.1 0-.2 0-.3.5-.5 1.2-.6 1.7-1.2h6.5c-.2-1.3-1.2-2.1-1.4-3.2.1-3.3-.3-6.6-.2-9.9.1-.1.2-.1.3-.2 3.5-6.1 7-12.1 10.4-18.2 2.3-4 4.6-8.1 6.9-12.1.1-.2.2-.4.4-.6-.1 0-.2-.1-.3-.1-.9 0-1.9 0-2.8 0-10.3 0-20.6 0-30.8 0-1 0-1.7.1-2.2-.8z" fill="#ecc663"/><path d="m9.9 29.3c.2-.1.4-.2.6-.2.1 0 .2.1.4.1h35.1c-.5.8-1.2.8-2 .8-10.5 0-21 0-31.5 0-.4 0-.8 0-1.2 0-.3 0-.4.2-.2.5l.7.7c0 .5.2.8.4 1.2.7 1.2 1.4 2.3 2.1 3.5 4.2 7.3 8.5 14.6 12.6 22 .6 1.1 1.6 2.1 1.5 3.6-.2-.1-.3-.2-.5-.3-2.2-3.9-4.4-7.7-6.6-11.6-3.7-6.8-7.7-13.5-11.4-20.3z" fill="#ecc663"/><path d="m56.6 109.5c-.2.1-.5.1-.7 0 0-.4-.4-.7-.6-1-1.4-2.4-2.9-4.7-4.1-7.2-.1-.1-.1-.2-.2-.2-1.7-3-3.4-6-5.1-9-.1-.1-.1-.2-.2-.2-1.8-3.2-3.6-6.3-5.4-9.5-.1-.2-.3-.3-.4-.5-.4-1.2-1.2-2.1-1.8-3.2 0-.2 0-.3 0-.5.6.1.8.5 1 .9 1.8 3.1 3.6 6.3 5.4 9.4 3.4 5.9 6.8 11.9 10.2 17.8.4.7.7 1.6 1.5 2.2 1-1.7 1.9-3.3 2.8-4.9 3.2-5.6 6.5-11.2 9.7-16.8 1.9-3.2 3.7-6.5 5.5-9.7.6-.5 1.3-.9 1.9-1.2.2.1.3.2.5.2-1 .6-2 1.2-2.6 2.3-1.1 1.9-2.2 3.9-3.3 5.8-3.4 5.9-6.8 11.9-10.2 17.8-1 2.5-2.5 5-3.9 7.5z" fill="#ecc663"/><g fill="#9b815c"><path d="m56.6 109.5c1.4-2.5 2.9-5 4.3-7.5 3.4-5.9 6.8-11.9 10.2-17.8 1.1-1.9 2.2-3.8 3.3-5.8.6-1.1 1.6-1.7 2.6-2.3.2-.1.2-.2.2-.4 2.7-1.6 5.7-.9 8.5-1.2-.3.9-1.2.7-1.8.8-.5.1-1 .1-1.6 0-3.7-.2-6.3 1.6-8 4.7-1.8 3.3-3.7 6.6-5.5 9.9-2.5 4.6-5.4 9.1-7.9 13.7-.8 1.5-1.7 2.9-2.5 4.4-.4.7-.9 1.3-1.8 1.5z"/><path d="m9.9 29.3c3.6 6.9 7.7 13.5 11.5 20.3 2.2 3.9 4.4 7.7 6.6 11.6.2 1.1.3 2.3.3 3.4v5.7c-.3 1.5-1.4 2.7-1.8 4.1-.4-.6-.3-1.3.1-1.8 1.9-2.8 1.1-6 1-9.1 0-3.5-2.5-6-4-8.8-3-5.5-6.2-10.8-9.3-16.2-1.2-2.2-2.5-4.3-3.7-6.5-.4-.8-1.1-1.6-.7-2.7z"/><path d="m40.4 82.4c1.8 3.2 3.6 6.3 5.4 9.5.1.1.1.2.2.2 1.7 3 3.4 6 5.1 9-.2.3.1.2.2.2 1.2 2.5 2.7 4.8 4.1 7.2.2.3.6.6.6 1-.9-.1-1.3-.8-1.7-1.4-1.8-3.1-3.7-6.3-5.5-9.5-3.4-6.3-7.2-12.3-10.6-18.6-.6-1.1-1.7-1.9-2.8-2.6-2.2-1.2-4.3-2.5-7-2.1-.5.1-1.3.1-1.4-.8h1.2c.3.6.8.4 1.3.4 1.5-.1 2.7.4 4 1 1.6.8 3.2 1.8 4.7 2.9.6 1.1 1.4 2 1.8 3.2-.1.2.1.3.4.4z"/><path d="m46 29.1c-11.7 0-23.4 0-35.1 0-.1 0-.2 0-.4-.1.5-.8 1.3-.7 2-.7 9.7 0 19.4-.1 29 .1 3.1.1 5.8-.7 8.4-2.4 1.1-.8 2.2-1.8 3.7-2l .1.1c-.2.2-.3.4-.5.5-2.4 1.4-4.8 2.9-7.2 4.5z"/></g><path d="m28.3 74.4c-.4 0-.8 0-1.2 0-.2 0-.3-.1-.5-.1.4-1.5 1.5-2.6 1.8-4.1.4 0 .6-.3.9-.5v.2c-.4 1.5-1.5 2.6-2 4.2h4.6v.3c-1.2 0-2.4 0-3.6 0z" fill="#ecc663"/><path d="m56.7 23c .2.6.5 1 .9 1.5l.2.2c0 .2-.1.4-.1.6-.7-.5-.8-1.3-1.3-1.8-.3.2-.5.5-.8.7-.1 0-.1 0-.2-.1 0-.2 0-.5 0-.7.3-.1.5-.3.5-.7.3 0 .6 0 .8.3z" fill="#ecc663"/><path d="m55.9 22.8c0 .4-.2.6-.5.7-.7-.3-1 .6-1.6.5l-.1-.1c.5-.8 1.3-1.1 2.2-1.1z" fill="#9b815c"/><path d="m55.6 24.3c.3-.2.5-.4.8-.7.5.5.7 1.3 1.3 1.8 0-.3.1-.4.1-.6 2 1.1 4 2.1 5.9 3.2.7.4 1.5.5 2.1 1.1.5.8 1.2.8 2 .8h30.8 2.8c-.2.1-.3.3-.5.4-6.7 2.6-13.4 5.2-20.2 7.9-5.4-3-10.8-6-16.2-8.9-2.1-1.1-4.1-2.5-6.4-3.3-.1-.1-.1-.2-.2 0l .1.1c.2.5.4.9.7 1.4 6.6 11.4 13.2 22.9 19.8 34.3 1.8 3.1 3.5 6.3 5.4 9.2.2 1.1 1.2 1.9 1.4 3.2-2.2 0-4.4 0-6.5 0-15.3 0-30.7 0-46 0 0 .1-.1.2-.1.3 7.3 4 14.6 8 22 12 .5 7 .9 14 1.4 21h .3c1-7.1 2.1-14.2 3.1-21.2 2.7-1.7 5.4-3.3 8-4.9 2.3-1.4 4.5-2.9 6.9-4.2-1.8 3.2-3.7 6.5-5.5 9.7-3.2 5.6-6.5 11.2-9.7 16.8-.9 1.6-1.9 3.2-2.8 4.9-.8-.6-1.1-1.4-1.5-2.2-3.4-5.9-6.8-11.9-10.2-17.8-1.8-3.1-3.6-6.3-5.4-9.4-.2-.4-.5-.9-1-.9-.1-.1-.2-.2-.3-.2 0 0-.1-.1-.3-.3.2.2.2.2.2.3.1.1.2.2.2.3v.5c-1.5-1.1-3-2-4.7-2.9-1.3-.7-2.5-1.1-4-1-.4 0-1 .3-1.3-.4h3.6c0-.1 0-.2 0-.3-1.5 0-3 0-4.6 0 .5-1.6 1.6-2.7 2-4.2.4-.2.5-.6.7-.9 7.8-13.3 15.3-26.4 22.9-39.5 1-1.8 2.2-3.5 2.9-5.4z" fill="#e1944a"/><path d="m57.8 24.7c-.1-.1-.1-.1-.2-.2.1.1.2.1.2.2z" fill="#e1944a"/><path d="m84 70.9c-2-3-3.7-6.1-5.4-9.2-6.6-11.4-13.2-22.9-19.8-34.3-.3-.5-.5-.9-.7-1.4l.1-.1c2.3.9 4.3 2.2 6.4 3.3 5.4 2.9 10.8 5.9 16.2 8.9 6.7-2.6 13.5-5.2 20.2-7.9v.3c-5.9 4.2-11.8 8.5-17.4 12.5v10.2c0 2.6.2 5.2.3 7.9-.3 3.3.2 6.5.1 9.8z" fill="#4b4b4b"/><path d="m74.5 77c-2.4 1.2-4.6 2.8-6.9 4.2-2.7 1.6-5.3 3.2-8 4.9-1 7.1-2.1 14.1-3.1 21.2-.1 0-.2 0-.3 0-.5-7-.9-14-1.4-21-7.4-4-14.7-8-22-12 0-.1.1-.2.1-.3h46c-.4.6-1.2.7-1.7 1.2-.3.1-.5.2-.7.4-.7.5-1.4.9-2 1.4z" fill="#4b4b4b"/><path d="m83.8 61.1c-.1-2.6-.2-5.2-.3-7.9 0-3.3 0-6.6 0-10.2 5.7-4.1 11.5-8.3 17.4-12.5h.5c-2.3 4-4.6 8.1-6.9 12.1-3.5 6.1-6.9 12.1-10.4 18.2-.1.1-.2.2-.3.3z" fill="#e1944a"/><path d="m101.4 30.5c-.2 0-.3 0-.5 0 0-.1 0-.2 0-.3.2-.1.3-.3.5-.4.1 0 .2.1.3.1-.1.2-.2.4-.3.6z" fill="#9b815c"/><path d="m76.5 75.8c.2-.3.4-.4.7-.4v.3c0 .2-.1.3-.2.4-.2-.1-.3-.2-.5-.3z" fill="#e1944a"/><path d="m53.7 24c .6.1 1-.8 1.6-.5v.7c-6 3.7-12 7.4-18 11.1-2.2 1.4-4.4 2.7-6.7 4.1-6.2-3-12.3-5.8-18.4-8.7-.4-.3-.7-.8-1.3-.4-.2-.3-.1-.4.2-.5h1.2 31.5c.8 0 1.6.1 2-.8 2.4-1.5 4.8-3 7.2-4.5.4-.1.6-.3.7-.5z" fill="#e1944a"/><path d="m29.2 69.8c-.3.2-.5.5-.9.5 0-1.9-.1-3.8 0-5.7 0-1.2-.1-2.3-.3-3.4.1.1.3.2.5.3.1-1.5-.9-2.5-1.5-3.6-4.2-7.4-8.4-14.7-12.6-22-.7-1.2-1.4-2.4-2.1-3.5-.3-.5-.5-.9-.5-1.4h.3c5.5 4.2 11 8.3 16.6 12.5.1 8.8.3 17.5.5 26.3z" fill="#e1944a"/><path d="m12.1 31c-.1 0-.2 0-.3 0-.2-.2-.5-.5-.7-.7.6-.4.9.1 1.3.4-.2.1-.3.2-.3.3z" fill="#9b815c"/><path d="m40.4 82.4c-.3 0-.4-.2-.4-.5.1.2.2.3.4.5z" fill="#e1944a"/><path d="m51.3 101.3c-.1-.1-.4 0-.2-.2 0 0 .1.1.2.2z" fill="#e1944a"/><path d="m45.9 92.1c-.1-.1-.1-.2-.2-.2.1 0 .2.1.2.2z" fill="#e1944a"/><path d="m12.1 31c .1-.1.2-.2.3-.3 6.1 2.9 12.2 5.8 18.4 8.7 2.2-1.4 4.4-2.7 6.7-4.1 6-3.7 12-7.4 18-11.1.1 0 .1 0 .2.1-.7 2-1.9 3.6-2.9 5.4-7.7 13.1-15.2 26.2-22.8 39.4-.2.3-.3.8-.7.9 0-.1 0-.2 0-.2-.2-8.7-.4-17.5-.6-26.2-5.7-4.3-11.1-8.4-16.6-12.6z" fill="#4b4b4b"/><path d="m58 26c0-.2.1-.2 0 0 .1-.1.1-.1 0 0z" fill="#4b4b4b"/><path d="m38 78s-.1-.1-.2-.3c.1.2.1.3.2.3z" fill="#ecc663"/><path d="m38 78c .1.1.2.2.3.2-.2 0-.3-.1-.3-.2z" fill="#ecc663"/></svg>