<?xml version="1.0" encoding="UTF-8"?><svg id="Capa_1" xmlns="http://www.w3.org/2000/svg" viewBox="0 0 566.93 566.93"><defs><style>.cls-1{font-size:35px;}.cls-1,.cls-2,.cls-3{fill:#dbe284;}.cls-1,.cls-3{font-family:BIGMACCA, BIGMACCA;}.cls-4{fill:#dbe285;}.cls-3{font-size:60px;}</style></defs><g><path d="m284.04,562.2c-74.29,0-144.14-28.93-196.67-81.46S5.91,358.36,5.91,284.07s28.93-144.14,81.46-196.67C139.9,34.87,209.75,5.94,284.04,5.94s144.14,28.93,196.67,81.46c52.53,52.53,81.46,122.38,81.46,196.67s-28.93,144.14-81.46,196.67c-52.53,52.53-122.38,81.46-196.67,81.46Z"/><path class="cls-4" d="m284.04,8.44c37.21,0,73.31,7.29,107.29,21.66,32.82,13.88,62.3,33.76,87.61,59.07,25.31,25.32,45.19,54.79,59.07,87.61,14.37,33.98,21.66,70.07,21.66,107.29s-7.29,73.31-21.66,107.29c-13.88,32.82-33.76,62.3-59.07,87.61-25.32,25.31-54.79,45.19-87.61,59.07-33.98,14.37-70.07,21.66-107.29,21.66s-73.31-7.29-107.29-21.66c-32.82-13.88-62.3-33.76-87.61-59.07-25.31-25.32-45.19-54.79-59.07-87.61-14.37-33.98-21.66-70.07-21.66-107.29s7.29-73.31,21.66-107.29c13.88-32.82,33.76-62.3,59.07-87.61,25.32-25.31,54.79-45.19,87.61-59.07,33.98-14.37,70.07-21.66,107.29-21.66m0-5C129.05,3.44,3.41,129.08,3.41,284.07s125.64,280.63,280.63,280.63,280.63-125.64,280.63-280.63S439.03,3.44,284.04,3.44h0Z"/></g><g><path class="cls-2" d="m408.9,255.25c-5.02,13.4-10.29,26.72-14.93,40.25-1.96,5.71-5.08,9.78-9.92,13.33-19.43,14.29-38.5,29.06-57.92,43.38-6.37,4.7-12.58,9.61-19.28,14.32,7.27,2.7,14.23,5.28,21.5,7.98,16.38-12.28,32.83-24.62,49.29-36.96.18.09.35.18.53.28-5.95,15.99-11.91,31.98-17.85,47.94,11.61,8.16,31.01,2.56,46.21-13.49,21.78,28.27,43.51,56.5,65.25,84.72-.11.18-.21.36-.32.53-88.81-32.95-177.63-65.9-266.72-98.96,1.75-4.86,3.01-9.61,5.14-13.93,1.87-3.8,6-5.64,9.3-8.11,13.32-9.95,26.78-19.7,40.13-29.6,5.55-4.12,10.75-8.74,16.49-12.59,11.36-7.61,22.15-15.95,32.95-24.29,6.53-5.04,12.97-10.21,19.6-15.11,13.91-10.29,27.91-20.45,41.88-30.67,8.2-6,16.4-12.01,24.61-18.01.41-.3.85-.57,1.29-.87,3.67-11.21-1.24-23.04-15.98-38.21,28.27-21.8,56.53-43.58,84.78-65.36.17.09.33.18.5.27-1.19,3.31-2.35,6.63-3.58,9.92-12.95,34.83-25.92,69.65-38.82,104.49-.85,2.29-2.11,3.97-4.07,5.45-17.83,13.41-35.71,26.75-53.3,40.48-5.92,4.62-11.56,9.68-17.82,13.76-12.44,8.13-23.61,17.97-35.91,26.24-6.25,4.2-12.32,8.58-18.08,13.38-12.05,10.04-24.93,18.99-37.33,28.58-.83.64-1.65,1.28-2.97,2.3,7.3,2.72,14.17,5.29,21.29,7.95,13.89-11.92,29.78-21.21,44.2-32.56,14.61-11.5,29.66-22.43,44.52-33.6,14.94-11.23,29.89-22.45,44.84-33.67.16.15.33.3.49.45Z"/><path class="cls-2" d="m310.96,211.61c-6.02-2.29-11.88-5.21-18.09-6.74-20.09-4.95-38.74-13.89-58.3-20.3-4.1-1.34-8.1-2.96-12.11-4.56-17.05-6.81-33.23-2.93-45.1,10.83-.75.87-1.28,1.93-2.11,3.21-22.25-28.93-43.99-57.19-65.92-85.71,3.38.67,260.1,95.93,262.85,97.51-8.61,5.57-16.95,11.29-25.6,16.49-9.54,5.74-17.97,12.99-27.1,19.28-11.07,7.63-21.85,15.68-32.78,23.52-11.68,8.37-23.4,16.67-35.07,25.06-8.67,6.23-17.27,12.56-25.93,18.81-8.66,6.24-17.35,12.44-26.04,18.64,0,0-1.97,1.37-1.95,1.37,0,0-.02,0-.02,0-3.6,9.93-8.96,18.13-11.76,27.99-4.44,15.65,1.1,28.55,12.72,39.25.7.65,1.44,1.26,2.15,1.89.07.06.1.17.33.56-28.24,21.69-56.52,43.41-84.83,65.16-.83-.95-.02-1.67.23-2.34,17.96-48.36,35.95-96.7,53.9-145.07.73-1.98,1.79-3.45,3.49-4.71,23.18-17.25,45.84-35.19,68.93-52.55,10.59-7.96,21.29-15.86,32.21-23.41,11-7.6,22.29-14.79,33.49-22.09.87-.56,1.19-1.73,2.41-2.1Z"/><path class="cls-2" d="m134.58,360.76c-14.09-28.94-20.11-58.81-17.91-90.19,2.15-30.81,12.04-59.05,29.4-85,6.18,7.98,12.16,15.69,18.26,23.56-4.06,7.29-7.74,14.79-10.66,22.65-10.38,28-11.95,56.51-4.95,85.5.65,2.69.57,5.07-.45,7.68-4.57,11.65-8.96,23.36-13.7,35.8Z"/><path class="cls-2" d="m368.49,438.87c-59.85,29.79-128.75,20.88-174.75-11.69,7.76-6.01,15.46-11.97,23.32-18.05,7.27,4.03,14.67,7.71,22.44,10.56,27.13,9.97,54.81,12.14,83.03,5.57,4.49-1.04,8.5-1.05,12.89.79,9.98,4.17,20.2,7.79,30.32,11.65.76.29,1.49.63,2.75,1.16Z"/><path class="cls-2" d="m388,138.35c-7.93,6.13-15.56,12.04-23.34,18.06-3.96-2-7.86-4.1-11.87-5.98-31.65-14.78-64.43-17.55-98.23-9.12-1.41.35-2.64.4-4.01-.12-11.89-4.56-23.81-9.06-35.71-13.59-.47-.18-1.07-.19-1.26-.82,47.72-25.12,118.28-27.08,174.41,11.57Z"/><path class="cls-2" d="m446.5,205.47c25.72,48.8,26.45,119.69-11.54,174.48-5.96-7.78-11.85-15.47-17.9-23.37,3.34-6.2,6.64-12.46,9.3-19.05,11.92-29.57,13.57-59.8,6.08-90.65-.22-.93-.63-1.8-.26-2.79,4.76-12.81,9.51-25.62,14.33-38.62Z"/><path class="cls-2" d="m236.55,204.67c10.31,3.88,20.52,7.72,31.27,11.77-27.79,20.93-55.19,41.58-82.62,62.24-.79-1-.03-1.72.23-2.42,5.35-14.53,10.76-29.03,16.1-43.56.61-1.65,1.49-2.9,2.94-3.97,9.96-7.42,19.84-14.93,29.76-22.41.76-.57,1.54-1.1,2.32-1.65Z"/></g><text class="cls-1" transform="translate(75.58 196.47) rotate(108.37)"><tspan x="0" y="0">E</tspan></text><text class="cls-1" transform="translate(66.1 225.44) rotate(100.94)"><tspan x="0" y="0">X</tspan></text><text class="cls-1" transform="translate(60.36 255.44) rotate(93.15)"><tspan x="0" y="0">R</tspan></text><text class="cls-1" transform="translate(58.72 288.21) rotate(85.04)"><tspan x="0" y="0">A</tspan></text><text class="cls-1" transform="translate(61.76 320.79) rotate(77.25)"><tspan x="0" y="0">H</tspan></text><text class="cls-1" transform="translate(152.99 477.39) rotate(30.41)"><tspan x="0" y="0">F</tspan></text><text class="cls-1" transform="translate(179.37 492.79) rotate(22.6)"><tspan x="0" y="0">R</tspan></text><text class="cls-1" transform="translate(209.65 505.07) rotate(15.23)"><tspan x="0" y="0">E</tspan></text><text class="cls-1" transform="translate(239.08 512.87) rotate(7.52)"><tspan x="0" y="0">E</tspan></text><text class="cls-1" transform="translate(269.37 516.8) rotate(-.27)"><tspan x="0" y="0">L</tspan></text><text class="cls-1" transform="translate(302.19 516.49) rotate(-8.38)"><tspan x="0" y="0">A</tspan></text><text class="cls-1" transform="translate(334.52 511.51) rotate(-16.17)"><tspan x="0" y="0">N</tspan></text><text class="cls-1" transform="translate(363.71 502.91) rotate(-23.62)"><tspan x="0" y="0">C</tspan></text><text class="cls-1" transform="translate(391.56 490.58) rotate(-31.05)"><tspan x="0" y="0">E</tspan></text><text class="cls-1" transform="translate(482.77 405.68) rotate(-62.02)"><tspan x="0" y="0">O</tspan></text><text class="cls-1" transform="translate(496.93 378.74) rotate(-69.49)"><tspan x="0" y="0">P</tspan></text><text class="cls-1" transform="translate(507.47 350.19) rotate(-76.85)"><tspan x="0" y="0">E</tspan></text><text class="cls-1" transform="translate(514.35 320.47) rotate(-84.58)"><tspan x="0" y="0">R</tspan></text><text class="cls-1" transform="translate(517.3 287.76) rotate(-92.7)"><tspan x="0" y="0">A</tspan></text><text class="cls-1" transform="translate(515.54 255.08) rotate(-100.51)"><tspan x="0" y="0">T</tspan></text><text class="cls-1" transform="translate(509.85 225.17) rotate(-107.99)"><tspan x="0" y="0">O</tspan></text><text class="cls-1" transform="translate(500.36 196.15) rotate(-115.71)"><tspan x="0" y="0">R</tspan></text><text class="cls-3" transform="translate(166.85 111.87) rotate(-27.49)"><tspan x="0" y="0">S</tspan></text><text class="cls-3" transform="translate(208.02 89.92) rotate(-14.1)"><tspan x="0" y="0">A</tspan></text><text class="cls-3" transform="translate(256.72 77.4) rotate(-.11)"><tspan x="0" y="0">M</tspan></text><text class="cls-3" transform="translate(307.1 77.3) rotate(13.3)"><tspan x="0" y="0">S</tspan></text><text class="cls-3" transform="translate(352.57 87.54) rotate(26.63)"><tspan x="0" y="0">A</tspan></text></svg>