<svg enable-background="new 0 0 113.4 113.4" viewBox="0 0 113.4 113.4" xmlns="http://www.w3.org/2000/svg"><circle cx="56.7" cy="56.7" fill="#00a5e6" r="56.7"/><circle cx="56.7" cy="56.7" fill="#fff" r="54.9"/><g fill="#00a5e6"><path d="m13.7 84.4 5.7-4.4 3 3.9c.6.8 1 1.3 1.1 1.5.4.6.5 1.2.3 1.6-.1.4-.6.9-1.3 1.5-.7.5-1.3.8-1.7.9-.3 0-.5 0-.8-.1s-.5-.3-.8-.7c-.2-.2-.6-.7-1.1-1.4l-1.7-2.2-1.4 1.1zm4.2-.5 1.7 2.2c.3.4.5.6.6.7s.2.1.2.2c.1.1.2.1.4 0s .3-.1.5-.3.3-.3.4-.4.1-.2 0-.4c0-.1-.2-.4-.6-1l-1.8-2.1z"/><path d="m25.7 97.3.3-1.3-3.6-3.1-1.3.5-1.9-1.6 7.6-3 2.6 2.2-1.9 8zm .8-3.1.7-3-.3-.3-2.8 1.2z"/><path d="m32.2 93.2 3.4 1.8.9 6.5.2.1 2.4-4.8 2 1-3.3 6.4-3.4-1.8-.9-6.5-.2-.1-2.4 4.8-2-1z"/><path d="m46.3 99c1.5.4 2.6.7 3.1.9.8.3 1.2.8 1.2 1.5 0 .5-.1 1.3-.4 2.4s-.5 1.9-.8 2.3c-.3.6-.9.9-1.8.8-.6-.1-1.6-.3-3.1-.6-1.5-.4-2.6-.7-3.1-.9-.8-.3-1.2-.8-1.2-1.5 0-.5.1-1.3.4-2.4s.5-1.8.7-2.2c.3-.6.9-.9 1.8-.8.6-.1 1.6.1 3.2.5zm-.5 1.8c-1.1-.3-1.8-.4-2.1-.4s-.5.1-.6.3-.3.7-.5 1.4c-.1.4-.2.7-.2.9 0 .4.2.6.6.8.3.1.9.3 1.8.5s1.4.3 1.7.4c.3 0 .5 0 .7-.1.1-.1.3-.2.4-.4s.2-.5.3-.9c.1-.5.2-.9.2-1.1s0-.4-.1-.6-.2-.3-.5-.4-.7-.1-1.7-.4z"/><path d="m58.2 104.8h2.2v.7c0 .6-.1 1-.3 1.3s-.6.6-1.1.7-1.5.2-2.8.1c-1.4 0-2.4-.1-2.9-.1-.6-.1-1-.2-1.3-.3s-.5-.3-.6-.6c-.1-.2-.2-.6-.2-1 0-.3 0-.9 0-1.8 0-.8 0-1.4.1-1.8s.1-.7.2-.9c.2-.5.6-.7 1.2-.9.6-.1 1.9-.2 3.7-.1.9 0 1.6.1 2 .1.4.1.8.1 1 .3.3.2.6.4.7.7s.2.8.2 1.4v.4h-2.2c0-.2 0-.4 0-.5s-.1-.1-.1-.2c-.1-.1-.3-.1-.6-.2-.3 0-.9-.1-1.6-.1s-1.2 0-1.4 0c-.3 0-.5.1-.6.2s-.2.3-.3.5c-.1.3-.1.6-.1 1.2v1.2c0 .2.1.4.3.5.1.1.3.2.6.2s.7.1 1.4.1h1.7c.3 0 .5-.1.6-.2s.1-.4.2-.9z"/><path d="m60.7 100.4 7.9-1.4.3 1.7-5.7 1.1.2 1 5.5-1 .3 1.6-5.5 1 .2 1.1 5.8-1.1.3 1.7-7.9 1.5z"/><path d="m78.9 102.6-1-.9-4.4 1.8-.1 1.4-2.3 1 .8-8.2 3.2-1.3 6.3 5.2zm-2.4-2.1-2.3-2-.4.2-.2 3.1z"/><path d="m78.1 95 3.1-2.3 6.2 2.1.2-.1-3.2-4.3 1.8-1.3 4.2 5.9-3.1 2.2-6.2-2.1-.2.1 3.2 4.3-1.8 1.3z"/><path d="m86.6 88.5 1.6-1.6 5.1 5.1-1.6 1.6z"/><path d="m99.3 84.6-1.4-.2-2.9 3.8.6 1.2-1.5 2-3.5-7.4 2-2.7 8.1 1.3zm-3.1-.6-3-.5-.3.4 1.4 2.8z"/><path d="m17.4 24.6 4.1-4.4 1 .9-2.9 3.2.8.7 2.7-3 1 .9-2.7 3 1.5 1.3-1.2 1.3z"/><path d="m30 20.4-1.1.9-.4-.5h-.1c.1.3 0 .5-.1.8s-.4.5-.8.9c-.4.3-.7.5-.9.6-.3.1-.5.2-.8.1-.3 0-.5-.1-.7-.2s-.5-.4-.8-.8l-1.1-1.4 1.2-1 1.2 1.4c.2.2.3.4.4.5s.2.1.3.1.2 0 .4-.1c.1-.1.3-.2.5-.4.4-.3.6-.6.6-.8 0-.1 0-.3-.1-.4s-.2-.3-.5-.6l-1-1.2 1.2-1z"/><path d="m31.8 14.5 1.2-.8 2 3.1c.2.3.3.5.3.6.1.1.1.2.1.4s0 .4 0 .6c-.1.2-.1.4-.3.6-.3.3-.8.8-1.6 1.2-.5.3-1 .6-1.3.7s-.6.1-.8.1c-.3-.1-.6-.3-.9-.6l1.3-.8c.1.1.3.1.4.1.2 0 .4-.2.7-.4s.6-.4.7-.5.2-.3.2-.4 0-.2 0-.3-.1-.3-.3-.5l-.2-.3c0 .3-.1.5-.2.7s-.4.4-.9.7c-.4.3-.8.5-1.1.6s-.5.2-.7.1c-.3 0-.5-.1-.7-.3s-.4-.5-.7-.9c-.3-.5-.5-.9-.5-1.2s.1-.6.3-.8c.2-.3.6-.6 1.2-.9.4-.3.8-.4 1-.5s.5 0 .8.1h.1zm-.7 1.6c-.5.3-.8.5-.9.7-.1.1-.1.2 0 .3 0 .1.1.3.2.5s.3.4.4.4c.1.1.2.1.4 0 .2 0 .5-.2.8-.4.5-.3.8-.6.9-.8 0-.1 0-.2 0-.3s-.1-.2-.2-.4-.2-.3-.3-.4-.2-.1-.3-.1c-.3.1-.6.2-1 .5z"/><path d="m35.8 13.8-1.4.6c-.1-.3-.2-.5-.1-.7.1-.3.2-.6.5-.8s.9-.6 1.7-.9c.6-.3 1-.4 1.3-.5.2-.1.5 0 .7 0 .2.1.3.2.4.3s.3.4.4.7l1 2.2-1.3.6-.2-.5h-.1c0 .3-.1.5-.3.7-.1.1-.2.2-.4.3s-.5.3-1 .5c-.4.2-.7.3-.9.3s-.4 0-.6 0c-.3-.1-.5-.3-.6-.7-.2-.4-.2-.8-.1-1.1.1-.2.3-.4.5-.6.3-.2.7-.4 1.5-.8.3-.1.5-.2.7-.3.2 0 .3 0 .5.1h.1l-.1-.2c-.1-.3-.3-.4-.4-.5s-.4.1-.8.2c-.5.2-.8.4-.9.5s-.2.4-.1.6zm1.3.5c-.5.2-.7.4-.8.5s-.1.3-.1.4c.1.1.2.2.3.2s.4-.1.8-.3c.5-.2.8-.4.9-.5s.2-.3.1-.4-.2-.2-.4-.2c.1 0-.2.1-.8.3z"/><path d="m39.6 10.7 4.4-1.4.4 1.1-1.8 2.5 2.5-.8.3 1-4.7 1.5-.3-1 1.9-2.7-2.3.7z"/><path d="m44.5 7.5 1.5-.3.2 1.1-1.5.3zm.3 1.6 1.5-.3.9 3.9-1.5.3z"/><path d="m49.8 12.1-.4-5.7 4.1-.3c.7-.1 1.2-.1 1.4-.1h.7c.6.1 1 .4 1.2.9.1.2.1.4.2.6 0 .2.1.6.1 1 0 .5.1.9 0 1.2 0 .3 0 .5-.1.7-.1.5-.5.8-1 1-.2.1-.5.1-.8.2-.3 0-.7.1-1.4.1zm1.6-1.6 2.4-.2c.4 0 .8-.1 1-.1s.4-.1.4-.2c.1-.1.1-.2.2-.4s0-.4 0-.8-.1-.6-.1-.8-.1-.3-.2-.4-.2-.2-.4-.2-.5 0-1.1 0l-2.4.2z"/><path d="m58 7.6 1.4.1v.6h.1c.2-.2.4-.4.6-.5s.6-.1 1-.1c.6 0 1 .2 1.2.4.2.3.3.7.3 1.3v.3l-1.4-.1c0-.2 0-.4 0-.5-.1-.2-.3-.3-.7-.3s-.6.1-.8.2c-.1.1-.1.2-.2.3 0 .1-.1.4-.1.7l-.2 1.8-1.5-.1z"/><path d="m66.2 8.5c.7.1 1.2.3 1.5.4s.6.3.7.4c.2.2.3.4.3.6s0 .6-.1 1.1c-.1.4-.1.6-.2.8s-.1.3-.2.5c-.2.3-.5.5-1 .5-.4 0-1-.1-1.8-.2-.7-.1-1.3-.3-1.6-.4s-.5-.3-.7-.5-.2-.4-.3-.7c0-.3 0-.7.2-1.2.1-.3.1-.6.2-.7.1-.2.1-.3.2-.4.2-.3.5-.4.9-.4s1 0 1.9.2zm-.2 1.1c-.5-.1-.8-.1-1-.1-.1 0-.2.1-.3.2s-.1.3-.2.6-.1.4 0 .6c0 .1.1.2.2.3.2.1.5.2 1 .3.6.1.9.1 1.1 0s .3-.3.4-.8c.1-.3.1-.5 0-.6 0-.1-.1-.2-.2-.3-.2 0-.6-.1-1-.2z"/><path d="m69.9 9.4 1.3.5-.2.6h.1c.2-.2.5-.3.7-.3.3 0 .7.1 1.1.2.5.2.8.3 1 .5s.4.4.5.6.2.5.1.7c0 .2-.1.6-.3 1.1l-.4 1.7-1.4-.5.6-1.7c.1-.3.2-.5.2-.6s0-.2-.1-.3c-.1-.2-.4-.4-.9-.5-.5-.2-.9-.2-1.1-.1-.1.1-.2.2-.3.3s-.2.4-.3.7l-.5 1.5-1.4-.5z"/><path d="m76.7 10.1 1.4.7-1 2h .1c.2-.2.5-.2.8-.2s.6.1 1.1.4c.4.2.8.4 1 .6s.4.4.5.6.1.5.1.7c0 .3-.2.6-.4 1.1-.2.3-.3.5-.4.7s-.2.3-.3.4c-.2.2-.5.3-.9.3s-.8-.2-1.5-.5c-.6-.3-1-.6-1.2-.9-.2-.2-.2-.4-.2-.6h-.1l-.2.4-1.3-.6zm1.4 3.7c-.5-.2-.8-.3-1-.3-.1 0-.2.1-.3.1-.1.1-.2.3-.3.5-.1.3-.2.4-.2.6 0 .1 0 .2.2.4s.4.3.8.5c.5.2.8.3 1 .3.1 0 .2-.1.3-.2s.2-.3.3-.5.2-.4.2-.5 0-.2-.1-.3c-.2-.2-.5-.4-.9-.6z"/><path d="m84.2 16.1c.6.4 1 .7 1.2.9.3.2.4.5.5.7s.1.5 0 .7-.2.6-.5 1c-.2.3-.4.5-.5.7-.1.1-.2.3-.4.4-.3.2-.7.3-1.1.1-.4-.1-.9-.4-1.6-.9-.6-.4-1.1-.7-1.3-1-.2-.2-.4-.5-.5-.7s-.1-.5 0-.7.3-.6.6-1.1c.2-.3.3-.5.5-.6.1-.1.3-.2.4-.3.3-.2.6-.2 1-.1.4 0 1 .4 1.7.9zm-.6.9c-.4-.3-.7-.4-.9-.5-.1 0-.3 0-.4.1s-.3.2-.4.5c-.1.2-.2.4-.3.5 0 .1 0 .2.1.4s.4.4.8.7c.5.3.8.5 1 .5s.4-.2.7-.5c.2-.2.2-.4.3-.5 0-.1 0-.3-.1-.4-.2-.3-.4-.5-.8-.8z"/><path d="m88.2 18 1.1 1-.6.7 1.8 1.6-.7.8-1.8-1.6-.8.9c-.2.2-.3.4-.3.5 0 .2.1.3.3.5s.4.3.5.2c.1 0 .1-.1.1-.1s.1-.1.3-.3l1 .9c-.3.3-.5.5-.6.6s-.3.2-.5.2-.5 0-.7-.1c-.3-.1-.6-.3-1-.7-.4-.3-.6-.6-.8-.8-.1-.2-.2-.4-.2-.6 0-.1 0-.3.1-.4 0-.1.1-.3.3-.4 0-.1.2-.2.4-.5l.8-.9-.6-.5.7-.8.6.5z"/><path d="m89.1 23.6 1 1.1c-.1.1-.1.3-.1.5.1.2.3.4.6.8s.6.6.7.7c.2.1.3.1.4 0s .1-.2 0-.4c0-.1-.3-.4-.8-1-.5-.5-.8-.9-.9-1-.3-.4-.4-.7-.3-1 .1-.2.2-.4.4-.6.4-.4.9-.5 1.3-.3.3.2.8.6 1.6 1.4.5.5.8.9.9 1.2.2.3.3.5.3.7 0 .1 0 .3-.1.4s-.2.3-.3.4l-1-1.1c.1-.1.1-.2.1-.2 0-.1-.2-.4-.6-.8-.3-.3-.6-.6-.7-.7-.2-.1-.3-.1-.4 0s-.1.3 0 .5c.1.1.6.7 1.4 1.6.4.4.6.8.6 1.1s-.1.6-.5.9c-.2.2-.4.3-.7.4-.2.1-.4 0-.6-.1-.4-.2-.9-.7-1.7-1.5-.5-.5-.8-1-1-1.2-.2-.3-.3-.5-.3-.8.2-.4.4-.7.7-1z"/><path d="m16.3 56.7c0-22.3 18.1-40.4 40.4-40.4s40.3 18.1 40.3 40.4-18.1 40.3-40.4 40.3c-22.2 0-40.3-18.1-40.3-40.3zm40.9 36.5c9.5-12.1 19.1-24.2 28.7-36.2-.1-.7-.5-1-.8-1.4-1.4-1.8-2.8-3.5-4.2-5.3-7.7-9.8-15.5-19.6-23.2-29.3-.3-.4-.6-1.1-1.4-.8-9.7 12.1-19.3 24.3-28.9 36.6.4.5.7.9.9 1.2 4 5.1 8 10.1 12 15.2 5.1 6.4 10.2 12.9 15.2 19.3.4.5.8 1.1 1.7.7z"/></g><path d="m57.2 93.2c-.9.3-1.3-.2-1.6-.7-5.1-6.4-10.2-12.9-15.2-19.3-4-5.1-8-10.1-12-15.2-.3-.4-.6-.7-.9-1.2 9.7-12.2 19.3-24.5 28.9-36.6.8-.3 1.1.4 1.4.8 7.7 9.8 15.5 19.6 23.2 29.3 1.4 1.8 2.8 3.5 4.2 5.3.3.4.7.7.8 1.4-9.7 12-19.3 24.2-28.8 36.2zm-10.6-36.5h6.1c-1.3-3.7-2.6-7.3-3.8-10.9h5.4c1.2 3.6 2.5 7.3 3.7 10.9-1.7 0-3.4 0-5.2 0 1.3 3.7 2.6 7.3 3.8 10.8h7.4c1.2-3.6 2.5-7.1 3.8-10.8-1.8 0-3.5 0-5.2 0 1.1-3.7 2.5-7.3 3.7-10.9h5.3c-1.3 3.7-2.5 7.2-3.7 10.8h16.4c-9.3-11.8-18.5-23.4-27.7-35-9.2 11.7-18.4 23.3-27.7 35.1h12.5v10.8h5.1c.1-3.7.1-7.3.1-10.8z" fill="#fdfeff"/><path d="m41.5 56.7c-4.1 0-8.2 0-12.5 0 9.3-11.7 18.4-23.3 27.7-35.1 9.1 11.6 18.3 23.2 27.6 35-5.6 0-11 0-16.4 0 1.2-3.6 2.5-7.1 3.7-10.8-1.8 0-3.5 0-5.3 0-1.2 3.5-2.6 7.2-3.7 10.9-1.5 0-3 0-4.6 0-1.2-3.6-2.5-7.3-3.7-10.9-1.8 0-3.6 0-5.4 0 1.3 3.6 2.5 7.2 3.8 10.9-2.1 0-4.1 0-6.1 0 0-3.6 0-7.3 0-10.9-1.8 0-3.4 0-5.2 0 .1 3.7.1 7.3.1 10.9z" fill="#00a5e6"/><path d="m62.6 56.7h5.2c-1.3 3.7-2.5 7.2-3.8 10.8-2.4 0-4.8 0-7.4 0-1.2-3.5-2.5-7.1-3.8-10.8h5.2c.6 1.8 1.2 3.6 1.8 5.3.4.1.6.2.9-.1.7-1.8 1.3-3.5 1.9-5.2z" fill="#00a6e7"/><path d="m46.6 56.7v10.8c-1.7 0-3.3 0-5.1 0 0-3.6 0-7.2 0-10.8z" fill="#00a7e7"/><path d="m46.6 56.7c-1.7 0-3.4 0-5.2 0 0-3.6 0-7.2 0-10.9h5.2z" fill="#fff"/><path d="m62.6 56.7c-.6 1.7-1.2 3.5-1.9 5.2-.2.2-.5.2-.9.1-.6-1.7-1.2-3.5-1.8-5.3z" fill="#fbfdff"/></svg>