<svg enable-background="new 0 0 113.4 113.3" viewBox="0 0 113.4 113.3" xmlns="http://www.w3.org/2000/svg"><circle cx="56.7" cy="56.7" fill="#fff" r="55.8"/><path d="m0 56.6c.4-31.6 25.1-56.6 56.8-56.6s56.7 25.1 56.6 56.8c-.1 31.6-25.1 56.6-56.7 56.5-31.7 0-56.4-25-56.7-56.7zm1.8 0c-.2 15 6.2 29.2 16.1 38.9 10.4 10.2 22.9 15.7 37.5 16 15.6.4 29.1-5 40.1-16 10.4-10.3 15.8-23 16.1-37.7.3-15.5-5-28.9-16-39.9-10.4-10.4-23.1-15.8-37.9-16-15.5-.3-28.8 5.1-39.8 16-10.6 10.6-15.8 23.7-16.1 38.7z" fill="#009fe2"/><path d="m1.8 56.6c.2-15 5.4-28.1 16.1-38.7 11-10.9 24.3-16.3 39.8-16 14.8.2 27.5 5.6 37.9 16.1 10.9 11 16.3 24.4 16 39.9-.3 14.7-5.7 27.3-16.1 37.7-11.1 11-24.5 16.4-40.1 16-14.6-.3-27.1-5.8-37.5-16-9.8-9.8-16.2-24-16.1-39zm77.1 43.7c-.3.4-.7.7-1.2 1.1.4.3.7.6 1 .8.3 0 .5 0 .6-.1 1.3-.4 2.4-1.2 3.6-1.9 1.3-.8 1.6-1.9.2-3.1-.1 0-.1-.1-.2-.1-.9-.2-1.5.2-2.2.6s-1.4.7-2.2 1.1c-.1-.3-.1-.4-.1-.6.6-.5 1.2-1 2-1.1.7-.1 1.3-.4 1.9-.8.1 0 .1-.1.1-.2-.1-.1-.2-.2-.3-.3s-.3-.2-.6-.4c-1.9.5-3.6 1.4-5 2.7-.2 1 .1 1.7.9 2.3.6.1 1 0 1.5 0zm2.8-78.2c.2.7.9.9 1.3 1.4.4-.2.9-.4 1.2-.5.9.8 1.7 1.4 2.4 2.1-.1.5-.2.9-.3 1.3.4.4.7.9 1.3 1.1.9-2.4 1.8-4.7 2.7-7-.3-.4-.6-.7-.9-1s-.7-.5-1-.7c-.2.1-.4.2-.5.3-1.7.9-3.3 1.8-5 2.6-.3.1-.6.2-1 .2.1-.2.1-.4.3-.6 1.1-1.6 2.2-3.2 3.3-4.8-.5-.4-.9-.8-1.5-.9-1.3 1.9-2.6 3.8-4 5.8.5.4.9.7 1.3.9.2-.1.3-.1.4-.2zm-16.3-7c .5.2 1 .4 1.7.6.2-.4.5-.8.7-1.1 1.2.4 2.2.7 3.2 1 .1.5.1.9.2 1.4.6 0 1 .5 1.7.3-.2-2.5-.3-5-.5-7.5-.8-.2-1.5-.5-2.4-.7-1.5 1.9-2.9 3.8-4.4 5.7-.6-.2 0-.8-.4-1.2-1.2-.2-2.5-.4-3.9-.5.1-.4.1-.7.2-1.1.7.1 1.3.2 1.9.2.6.1 1.2.1 1.9.1.1-.5.2-.9.3-1.5-1.4-.2-2.6-.3-4-.5 0-.3 0-.6.1-.9 1.4.2 2.7.3 4.1.5.4-.5.2-1.1.3-1.7-1.9-.3-3.7-.5-5.7-.8-.2 2.4-.6 4.7-.9 7.2 1.2.2 2.3.3 3.4.5.8-.1 1.6-.1 2.5 0zm-8.7 82c22.4 0 40.3-18 40.4-40.2.1-22.5-18-40.5-40.3-40.5-22.4 0-40.4 18-40.5 40.3 0 22.3 18.1 40.3 40.4 40.4zm20.3-77.5c.8.5 1.5 1 2.4 1.2.6-1.1 1.1-2.1 1.7-3.1.5-1.1 1.1-2.1 1.6-3.2-.3-.2-.5-.3-.7-.4-.1-.2-.4-.2-.6-.3-.8 1.5-1.6 3-2.3 4.4h-.1c0-1.9 0-3.8 0-5.7-.8-.4-1.6-.8-2.5-1.3-1.1 2.1-2.2 4.3-3.4 6.4.5.3.9.6 1.5.6.8-1.5 1.6-3 2.3-4.6h.1zm-39.5-.7c.2-.1.4-.1.6-.2.3-.1.6-.3.9-.4-.3-.9-.6-1.6-1-2.4-.3-.8-.7-1.5-.9-2.5 1.6 1.4 3.1 2.7 4.5 3.9.8-.4 1.6-.7 2.5-1.1-1-2.3-1.8-4.5-2.8-6.7-.5.2-.9.4-1.4.6.6 1.6 1.3 3.1 1.9 4.6-.1 0-.1.1-.2.1-1.4-1.2-2.9-2.5-4.4-3.8-.9.4-1.7.7-2.5 1.1 1 2.4 1.9 4.6 2.8 6.8zm12-11.2c-1.6 0-3.2.4-4.8.9-.8.3-1.2.9-1 1.9.2 1.3.5 2.6.8 3.8.2.8.7 1.4 1.4 1.5.8-.1 1.3-.2 1.9-.2.6-.1 1.1-.2 1.7-.4.8-.2 1.5-.3 1.9-1.2.1-1.6-.3-3.3-.8-5-.3-.6-.5-1-1.1-1.3zm-16.9 85.4c-1.2 2.2-2.3 4.1-3.5 6.2.7.4 1.3.7 1.9 1.1.6-.6.7-1.5 1.4-2 1.4.8 2.9 1.5 4.3 2.3.3-.5.5-.9.8-1.4-1.4-1.1-3-1.6-4.4-2.6.2-.4.4-.7.7-1 1.6.9 3.1 1.7 4.6 2.5.2-.4.4-.7.6-1.1 0-.1 0-.2.1-.5-2.1-1-4.3-2.2-6.5-3.5zm24.5-80.6c-1 .4-2 .4-3.2.1 0-1.2-.6-2.4.2-3.5 1.1 0 2.4-.8 3.3.7.4-.1 1 .2 1.4-.3-.1-.3-.1-.5-.2-.8-.2-1.1-.3-1.3-1.4-1.5-.2-.1-.5-.1-.7-.1-1 .1-2 .1-3 .2-.7.1-1.2.5-1.3 1.3 0 .5-.2.9-.2 1.4 0 1 .1 2.1.2 3.1 0 .6.3 1 .8 1.3 1.5.4 2.9.3 4.4.1.6-.1 1-.3 1.3-.9 0-.6.1-1.2-.1-1.8-.5 0-1 0-1.5 0 .1.2.1.4 0 .7zm-30.4 6c-1-.3-1.6 0-2.2.5-.5.5-1 .8-1.5 1.3s-1 1-1.5 1.6c1.6 1.8 3.2 3.5 4.8 5.3.4-.4.8-.7 1.1-1-.4-.5-.7-.9-1.1-1.4.9-.8 1.9-1.7 2.7-2.4 0-.6 0-.9 0-1.4-.8-.8-1.6-1.7-2.3-2.5zm10.6.5c-2.2-1.6-4.2-3.1-6.2-4.7-.7.5-1.4.9-2 1.4.6 2.5 1 5 1.7 7.6.5-.4 1-.7 1.3-.9 0-.6 0-1 0-1.4.9-.6 1.8-1.1 2.7-1.7.4.2.8.4 1.2.7.3-.4.7-.6 1.3-1zm7.8 86.7c.3.2.6.6 1 .7 1.3.3 2.6.6 3.9.7 1.7.2 2.4-1.1 1.7-2.7-1.3-.9-2.9-.7-4.3-1.2 0-.2 0-.3 0-.5.9-.2 1.8 0 2.6.5.6.3 1.3.5 1.9.4.1-.1.1-.1.1-.1 0-.8-.3-1.2-1.1-1.4-1-.3-2.1-.3-3.2-.6s-1.9 0-2.4 1c-.3 1.4.5 1.9 1.6 2.1h.1c.8.2 1.7.3 2.5.5.3.1.5.2.4.6-.9.2-1.9.1-2.6-.4-.6-.4-1.2-.5-1.9-.7-.1 0-.2.1-.3.1zm20.1 1.1c.7-.1 1.5-.2 2.3-.4s1.6-.4 2.2-.9c.2-.4.6-.8.2-1.3-.5.1-1 .2-1.5.3-.9.9-1.9.9-3 .8-.1-.2-.2-.3-.3-.6 1.6-.4 3.2-.7 4.8-1 0-1.1-.2-1.9-1.2-2.5-.4 0-.9-.1-1.4 0-.8.1-1.6.3-2.4.5-1.9.5-1.9 1.2-1.8 2.8 0 .1.1.3.2.4.1 1 .6 1.8 1.9 1.9zm-21.9-1.2c.5-1.6 1.1-3.1 1.6-4.7-.7-.2-1.2-.4-1.8-.6-.4 1.1-.8 2.1-1.2 3-1.7.2-2.1 0-2.7-1 .3-1 .6-2 1-3.1-.4-.1-.7-.3-1-.3-.3-.1-.6-.2-.9-.2-.3 1-.7 1.9-.9 2.8-.2.8-.3 1.6.4 2.1 1.1.8 2.2 1.3 3.7 1 0 .1.1.3.2.5.5.2 1 .4 1.6.5zm26.8-5.1c.6 1.6 1.2 3.1 1.8 4.7.6-.2 1.2-.4 1.8-.6-.3-.9-.6-1.6-.9-2.4-.3-.7 0-1.2.7-1.5.3-.1.6-.1.8-.1.3.2.5.4.7.6.5-.2 1-.4 1.5-.7-.2-.4-.4-.7-.6-1-.5-.7-.8-.8-1.7-.6s-1.7.6-2.1 1.5c-.1-.2-.2-.3-.3-.5-.6.2-1.1.4-1.7.6zm-13.4 6.9h1s .6-.1 1-.1c-.1-2.4-.2-4.7-.3-7.1-.7.1-1.2.2-1.9.3 0 2.2.1 4.5.2 6.9zm-3.4-5.1c-.1 1.7-.1 3.2-.2 4.9.6.3 1.2.2 2 .1 0-.9 0-1.7 0-2.5s.1-1.7.2-2.5c-.7 0-1.3 0-2 0zm6.9 5c .7.1 1.3.1 1.9-.3-.1-.8-.2-1.6-.3-2.4s.1-1.6-.3-2.2c-.6 0-1.2 0-1.8 0 .2 1.6.4 3.3.5 4.9zm-6.7-5.7c.6.2 1.2.2 1.8.1 0-.5 0-1 0-1.5-.6 0-1.2 0-1.8 0zm8.1-1.4c-.7 0-1.3 0-2 0-.1.6.1 1.1.3 1.6.6-.1 1.1-.2 1.7-.3 0-.5 0-.9 0-1.3z" fill="#fdfeff"/><path d="m56.7 97.1c-22.3 0-40.4-18.1-40.4-40.5.1-22.3 18-40.3 40.5-40.3 22.3 0 40.4 18.1 40.3 40.5-.1 22.3-18 40.3-40.4 40.3zm-22.5-27.2c-1.1 1.2-2.1 2.4-3.1 3.5l8.9 8.9c1.2-1 2.4-2.1 3.5-3.1 2.3.9 4.4 1.8 6.5 2.7.3 3.8.5 7.6.8 11.4 3.1.2 10.7.1 11.7-.1.3-3.8.5-7.5.8-11.3 2.2-.9 4.4-1.8 6.6-2.7 1.2 1 2.4 2.1 3.7 3.2 1.5-1.5 3-3 4.5-4.4 1.5-1.5 3-2.9 4.3-4.4-1.1-1.4-2.3-2.5-3.1-3.7.9-2.2 1.8-4.3 2.6-6.5 3.8-.3 7.6-.5 11.4-.8 0-3.9 0-7.8 0-11.7-3.9-.3-7.7-.5-11.4-.8-.1-.2-.2-.2-.2-.3-.6-1.9-1.3-3.8-2.3-5.6-.1-.2-.1-.6-.1-.8 1.1-1.3 2.1-2.4 3-3.4-3-3-5.9-5.9-8.9-8.9-1.1 1-2.3 2.1-3.5 3.1-2.2-.9-4.4-1.8-6.6-2.7-.3-3.8-.5-7.6-.8-11.4-2.3-.2-10.7-.1-11.6.1-.3 3.8-.5 7.6-.8 11.4-.2.1-.4.2-.5.2-1.8.6-3.6 1.2-5.3 2.2-.3.1-.6.1-.8.2-1.2-1.1-2.4-2.1-3.6-3.2-3 3-5.9 5.9-8.9 8.9 1.2 1.3 2.2 2.5 3.2 3.7-.9 2.3-1.8 4.4-2.7 6.6-3.8.3-7.7.4-11.4.8v11.6c3.9.3 7.7.5 11.4.8.9 2.1 1.8 4.3 2.7 6.5z" fill="#00a5e6"/><g fill="#00a7e7"><path d="m77 19.6c0-2 0-4 0-5.9h-.1c-.8 1.5-1.6 3-2.3 4.6-.6 0-1-.4-1.5-.6 1.1-2.2 2.2-4.3 3.4-6.4.9.4 1.6.9 2.5 1.3v5.7h.1c.8-1.4 1.5-2.9 2.3-4.4.2.1.5.2.7.3s.4.2.7.4c-.6 1.1-1.1 2.1-1.6 3.2-.5 1-1.1 2-1.7 3.1-.9-.4-1.7-.8-2.5-1.3z"/><path d="m37.5 18.9c-.9-2.2-1.8-4.4-2.7-6.7.8-.4 1.7-.7 2.5-1.1 1.5 1.3 2.9 2.5 4.4 3.8.1 0 .1-.1.2-.1-.6-1.5-1.2-3-1.9-4.6.5-.2.9-.4 1.4-.6 1 2.2 1.8 4.4 2.8 6.7-.8.4-1.7.7-2.5 1.1-1.5-1.3-2.9-2.5-4.5-3.9.2 1 .6 1.7.9 2.5s.6 1.6 1 2.4c-.3.1-.6.3-.9.4-.3 0-.5 0-.7.1z"/><path d="m49.5 7.7c.6.3.9.8 1.1 1.3.6 1.7.9 3.4.8 5-.4.8-1.1 1-1.9 1.2-.6.1-1.1.3-1.7.4s-1.1.2-1.9.2c-.7-.1-1.2-.6-1.4-1.5-.3-1.3-.6-2.5-.8-3.8-.2-1 .2-1.6 1-1.9 1.6-.6 3.2-.9 4.8-.9zm-4 2.5c-.1 1.4 0 2.5.8 3.5 1.1 0 2.1-.2 3.1-.6.7-.8.1-1.5 0-2.2-.1-.5-.1-1.2-.9-1.5-.9.4-1.9.6-3 .8z"/><path d="m32.6 93.1c2.2 1.2 4.4 2.4 6.5 3.6 0 .2 0 .4-.1.5-.2.3-.4.7-.6 1.1-1.5-.8-3.1-1.7-4.6-2.5-.2.3-.4.6-.7 1 1.3 1.1 2.9 1.6 4.4 2.6-.2.4-.5.8-.8 1.4-1.5-.8-2.9-1.6-4.3-2.3-.7.5-.7 1.4-1.4 2-.6-.3-1.2-.7-1.9-1.1 1.2-2.1 2.3-4.1 3.5-6.3z"/></g><path d="m65.4 15.1c-.8-.1-1.7-.1-2.5-.2-1.1-.1-2.2-.3-3.4-.5.2-2.5.6-4.8.9-7.2 2 .3 3.8.5 5.7.8 0 .6.1 1.2-.3 1.7-1.4-.2-2.7-.3-4.1-.5 0 .4 0 .6-.1.9 1.3.1 2.6.3 4 .5-.1.6-.2 1-.3 1.5-.7 0-1.3-.1-1.9-.1-.6-.1-1.2-.2-1.9-.2-.1.4-.1.7-.2 1.1 1.4.2 2.7.4 3.9.5.4.5-.2 1 .4 1.2-.1.2-.1.4-.2.5z" fill="#00a8e8"/><path d="m57.1 12.5c0-.3.1-.5.1-.8h1.5c.2.6.1 1.3.1 1.8-.3.6-.8.8-1.3.9-1.5.2-2.9.3-4.4-.1-.5-.3-.7-.8-.8-1.3-.1-1-.2-2.1-.2-3.1 0-.5.1-.9.2-1.4 0-.8.6-1.2 1.3-1.3 1-.1 2-.2 3-.2.2 0 .5 0 .7.1 1.1.3 1.2.4 1.4 1.5 0 .3.1.5.2.8-.4.5-1 .2-1.4.3-.9-1.5-2.2-.7-3.3-.7-.7 1.2-.1 2.3-.2 3.5 1.1.4 2.1.4 3.1 0z" fill="#00a5e6"/><path d="m26.7 18.5c.7.8 1.5 1.7 2.3 2.5v1.4c-.8.7-1.7 1.5-2.7 2.4.4.5.8.9 1.1 1.4-.4.3-.7.6-1.1 1-1.6-1.8-3.2-3.6-4.8-5.3.5-.6 1-1.1 1.5-1.6s1-.9 1.5-1.3c.5-.5 1.1-.7 2.2-.5zm-.5 1.7c-1 .6-1.7 1.2-2.3 2.1l1.1 1.1c.8-.7 1.5-1.3 2.2-1.9-.4-.5-.6-.8-1-1.3z" fill="#00a7e7"/><path d="m81.9 21.9c.3-.1.7-.1 1-.2 1.7-.9 3.4-1.7 5-2.6.1-.1.3-.1.5-.3.3.2.7.5 1 .7.3.3.6.6.9 1-.9 2.3-1.8 4.6-2.7 7-.6-.2-.9-.7-1.3-1.1.1-.4.2-.8.3-1.3-.8-.7-1.6-1.4-2.4-2.1-.4.2-.8.3-1.2.5-.4-.5-1.1-.7-1.3-1.4.1 0 .2-.1.2-.2zm5.5 1.6c.3-1 .9-1.7.8-2.8-.8.5-1.6.9-2.5 1.4.6.5 1.1.9 1.7 1.4z" fill="#00a7e7"/><path d="m65.4 15.1c.1-.1.2-.2.2-.4 1.4-1.9 2.9-3.8 4.4-5.7.8.3 1.6.5 2.4.7.2 2.5.3 5 .5 7.5-.7.2-1.1-.2-1.7-.3-.1-.5-.1-.9-.2-1.4-1-.3-2-.6-3.2-1-.2.3-.5.7-.7 1.1-.7-.2-1.2-.3-1.7-.5zm5.2-4.2c-.6.8-1.2 1.5-1.8 2.3.7.3 1.4.5 2.2.6-.1-1.1.2-2-.4-2.9z" fill="#00a7e7"/><path d="m37.3 19c-.6.4-1 .6-1.4.9-.4-.2-.8-.4-1.2-.7-.9.5-1.8 1.1-2.7 1.7v1.4c-.3.2-.8.5-1.3.9-.7-2.6-1.1-5.1-1.7-7.6.7-.4 1.3-.9 2-1.4 2.1 1.6 4.1 3.2 6.3 4.8zm-4-.9c-.8-.7-1.6-1.2-2.5-2 0 1.3.4 2.2.6 3.3.7-.4 1.2-.8 1.9-1.3z" fill="#00a7e7"/><path d="m45.1 105.7c0-.4 0-.7 0-1 .1 0 .2-.1.3-.1.7.1 1.3.3 1.9.7.7.5 1.7.6 2.6.4.1-.4-.1-.6-.4-.6-.8-.2-1.7-.3-2.5-.5h-.1c-1.1-.3-1.9-.8-1.6-2.1.5-1 1.3-1.3 2.4-1 1 .3 2.1.3 3.2.6.8.2 1.1.6 1.1 1.4 0 0 0 .1-.1.1-.7.1-1.3-.1-1.9-.4-.8-.4-1.6-.6-2.6-.5v.5c1.4.5 3 .3 4.3 1.2.7 1.6-.1 2.8-1.7 2.7-1.3-.1-2.6-.4-3.9-.7-.4-.1-.7-.5-1-.7z" fill="#00a9e8"/><path d="m78.9 100.3c-.5 0-.9 0-1.3.1-.8-.5-1.1-1.3-.9-2.3 1.4-1.3 3.1-2.2 5-2.7.2.2.4.3.6.4l.3.3c-.1.1-.1.2-.1.2-.6.4-1.1.7-1.9.8s-1.4.6-2 1.1c0 .2.1.3.1.6.8-.4 1.5-.7 2.2-1.1s1.3-.8 2.2-.6c0 0 .1 0 .2.1 1.4 1.2 1.1 2.3-.2 3.1-1.2.7-2.3 1.4-3.6 1.9-.2.1-.4.1-.6.1-.3-.2-.6-.5-1-.8.2-.5.6-.8 1-1.2.4.1.7.2 1.2.3.6-.3 1.2-.7 1.8-1 .3-.2.4-.5 0-.9-1 .4-2.1.9-3 1.6z" fill="#00a8e8"/><path d="m65.2 106.8c-1.3-.1-1.8-.9-2-2 0-.1-.1-.3-.2-.4-.2-1.6-.1-2.3 1.8-2.8.8-.2 1.6-.4 2.4-.5.5-.1 1 0 1.4 0 1 .6 1.2 1.5 1.2 2.5-1.6.3-3.1.7-4.8 1 .2.3.2.4.3.6 1.1.1 2.2.1 3-.8.5-.1.9-.2 1.5-.3.3.5 0 .9-.2 1.3-.7.5-1.5.8-2.2.9-.7.3-1.4.4-2.2.5zm2.5-3.8c-.1-.5-.1-.5-.6-.8-.6.1-1.2.3-1.7.5-.4.1-.6.4-.3.9.8-.2 1.7-.4 2.6-.6z" fill="#00a8e8"/><path d="m43.3 105.6c-.6-.2-1.1-.3-1.6-.4-.1-.2-.1-.4-.2-.5-1.4.4-2.6-.2-3.7-1-.7-.5-.6-1.4-.4-2.1.3-.9.6-1.8.9-2.8.3.1.6.1.9.2s.6.2 1 .3c-.3 1.1-.7 2.1-1 3.1.6 1 1 1.2 2.7 1 .4-.9.8-1.9 1.2-3 .6.2 1.1.4 1.8.6-.5 1.5-1 3-1.6 4.6z" fill="#00a8e8"/><path d="m70.1 100.5c.6-.2 1.1-.4 1.7-.6.1.2.2.3.3.5.4-.9 1.2-1.3 2.1-1.5s1.2-.1 1.7.6c.2.3.3.6.6 1-.5.2-1 .4-1.5.7-.2-.2-.4-.4-.7-.6-.2 0-.6 0-.8.1-.7.3-.9.8-.7 1.5.3.8.6 1.5.9 2.4-.6.2-1.1.4-1.8.6-.7-1.6-1.2-3.1-1.8-4.7z" fill="#00a8e8"/><path d="m56.7 107.4c-.1-2.4-.1-4.7-.2-7 .7-.1 1.2-.2 1.9-.3.1 2.4.2 4.7.3 7.1-.4 0-.7.1-1 .1-.3.1-.6.1-1 .1z" fill="#00abe9"/><path d="m81.7 22.1c-.1 0-.2.1-.4.2-.4-.3-.8-.6-1.3-.9 1.3-2 2.7-3.9 4-5.8.6.1 1 .5 1.5.9-1.1 1.7-2.2 3.2-3.3 4.8-.1.2-.2.4-.3.6 0 .1-.1.2-.2.2z" fill="#00a8e8"/><path d="m53.3 102.3h2c-.1.9-.1 1.7-.2 2.5v2.5c-.7.1-1.4.2-2-.1.1-1.7.2-3.3.2-4.9z" fill="#00a9e8"/><path d="m60.2 107.3c-.2-1.6-.3-3.3-.5-5h1.8c.5.6.2 1.5.3 2.2.1.8.2 1.6.3 2.4-.5.5-1.1.5-1.9.4z" fill="#00a9e8"/><path d="m53.5 101.6c0-.5 0-1 0-1.4h1.8v1.5c-.6.1-1.2.1-1.8-.1z" fill="#00aeea"/><path d="m61.6 100.2v1.3c-.5.1-1.1.2-1.7.3-.2-.5-.4-.9-.3-1.6z" fill="#00aeea"/><path d="m34.2 69.9c-.9-2.2-1.8-4.4-2.7-6.6-3.8-.3-7.6-.5-11.4-.8 0-3.9 0-7.7 0-11.6 3.8-.4 7.6-.5 11.4-.8.9-2.2 1.8-4.3 2.7-6.6-1-1.1-2.1-2.3-3.2-3.7 3-2.9 5.9-5.9 8.9-8.8 1.2 1.1 2.4 2.1 3.6 3.2.2-.1.6-.1.8-.2 1.7-.9 3.4-1.6 5.3-2.2.1 0 .3-.1.5-.2.3-3.8.5-7.6.8-11.4.9-.2 9.3-.3 11.7-.1.3 3.8.5 7.6.8 11.4 2.2.9 4.4 1.8 6.6 2.7 1.2-1 2.4-2.1 3.5-3.1 3 3 5.9 5.9 8.9 8.9-.9 1-1.9 2.2-3 3.4 0 .2 0 .5.1.8 1 1.8 1.7 3.7 2.3 5.6 0 .1.1.1.2.3 3.7.3 7.6.5 11.4.8v11.7c-3.8.3-7.6.5-11.4.8-.9 2.1-1.7 4.2-2.6 6.5.9 1.3 2.1 2.4 3.1 3.7-1.3 1.5-2.9 2.9-4.3 4.4s-2.9 2.9-4.5 4.4c-1.3-1.1-2.5-2.2-3.7-3.2-2.2.9-4.4 1.8-6.6 2.7-.3 3.8-.5 7.5-.8 11.3-.9.2-8.6.3-11.7.1-.3-3.8-.5-7.6-.8-11.4-2.2-.9-4.3-1.8-6.5-2.7-1.1 1-2.4 2.1-3.5 3.1-3-3-5.9-5.9-8.9-8.9.9-1.1 2-2.3 3-3.5zm18.9 6.5c.1-.1.1-.2.2-.3-.3-.2-.5-.4-.8-.7-.8-.8-1.6-1.6-2.4-2.4-1.1-1.1-1.1-2.1 0-3.2.1-.1.2-.2.2-.2l4.5-4.5.5-.5c1-.8 1.8-.8 2.8 0 .1.1.2.2.3.2 1.7 1.7 3.3 3.3 4.9 5 1.1 1.1 1.1 2.1 0 3.2-.9.9-1.8 1.8-2.6 2.6-.2.2-.3.4-.5.6 2-.1 5-1.2 7.6-2.9 2.3-1.5 4.2-3.4 5.7-5.7 1.7-2.6 3-6 2.7-7.7-.3.4-.5.7-.7 1-.8.8-1.6 1.6-2.4 2.4-1.1 1.1-2.1 1.1-3.2 0-.1-.1-.2-.2-.2-.2-1.5-1.5-3-3-4.5-4.5-.2-.2-.3-.3-.5-.5-.8-1-.8-1.8 0-2.8.1-.1.2-.2.2-.3 1.7-1.7 3.3-3.3 5-4.9 1.1-1.1 2.1-1.1 3.2 0 .9.9 1.8 1.8 2.6 2.6.2.2.4.3.7.6-.4-2.9-1.5-5.4-3-7.7s-3.4-4.2-5.7-5.7c-2.6-1.7-6-3-7.6-2.7.3.3.6.5.9.8l2.4 2.4c1.1 1.1 1.1 2.1 0 3.2-.1.1-.2.2-.2.2-1.5 1.5-3 3-4.5 4.5-.2.2-.3.3-.5.5-1 .8-1.8.8-2.8 0-.1-.1-.2-.2-.3-.2-1.7-1.7-3.3-3.3-4.9-5-1.1-1.1-1.1-2.1 0-3.2.9-.9 1.8-1.8 2.6-2.6.2-.2.3-.4.6-.7-2.9.4-5.4 1.5-7.7 3s-4.2 3.4-5.7 5.7c-1.7 2.6-3 6-2.7 7.6.3-.3.5-.6.8-.9l2.4-2.4c1.1-1.1 2.1-1.1 3.2 0 .1.1.2.2.2.2l4.5 4.5.5.5c.8 1 .8 1.8 0 2.8-.1.1-.2.2-.2.3-1.7 1.7-3.3 3.3-5 4.9-1.1 1.1-2.1 1.1-3.2 0-.9-.9-1.8-1.8-2.6-2.6-.2-.2-.4-.3-.8-.6.7 4.3 2.6 7.8 5.5 10.7 2.9 3 6.4 4.9 10.5 5.6z" fill="#fdfeff"/><path d="m45.5 10.2c1-.2 2-.5 3-.7.8.3.8.9.9 1.5.1.7.6 1.4 0 2.2-.9.3-2 .6-3.1.6-.8-1.1-.8-2.2-.8-3.6z" fill="#f9fdff"/><path d="m26.2 20.2c.3.4.6.8 1 1.3-.8.7-1.4 1.3-2.2 1.9-.4-.4-.7-.8-1.1-1.1.6-.8 1.3-1.5 2.3-2.1z" fill="#f4fbff"/><path d="m87.4 23.5c-.6-.5-1.1-.9-1.7-1.4.9-.5 1.7-.9 2.5-1.4.1 1.1-.5 1.8-.8 2.8z" fill="#f4fbff"/><path d="m81.7 22.2c.1-.1.2-.2.3-.3-.1.1-.2.2-.3.3z" fill="#fdfeff"/><path d="m70.6 10.9c.6 1 .3 1.9.4 2.9-.8-.1-1.5-.3-2.2-.6.6-.9 1.2-1.6 1.8-2.3z" fill="#f0f9fe"/><path d="m33.3 18.1c-.7.5-1.2.8-1.9 1.3-.2-1.1-.6-2-.6-3.3 1 .8 1.7 1.4 2.5 2z" fill="#f0f9fe"/><path d="m78.9 100.3c1-.7 2-1.2 3.1-1.7.4.4.3.7 0 .9-.6.4-1.3.7-1.8 1-.6 0-.9 0-1.3-.2z" fill="#fdfeff"/><path d="m67.7 103c-.9.2-1.8.4-2.7.5-.3-.4-.1-.7.3-.9.6-.2 1.2-.3 1.7-.5.6.4.6.4.7.9z" fill="#e8f6fe"/><path d="m53.1 76.4c-4.1-.7-7.6-2.6-10.6-5.6-2.9-2.9-4.8-6.4-5.5-10.7.4.3.6.5.8.6.9.9 1.7 1.8 2.6 2.6 1.1 1.1 2.1 1.1 3.2 0 1.7-1.6 3.3-3.3 5-4.9.1-.1.2-.2.2-.3.8-1 .8-1.8 0-2.8-.1-.2-.3-.3-.5-.5-1.5-1.5-3-3-4.5-4.5-.1-.1-.2-.2-.2-.2-1.2-1.1-2.1-1.1-3.2 0-.8.8-1.6 1.6-2.4 2.4-.2.2-.5.5-.8.9-.3-1.6 1-5 2.7-7.6 1.5-2.3 3.4-4.2 5.7-5.7s4.7-2.6 7.7-3c-.3.4-.4.6-.6.7-.9.9-1.8 1.7-2.6 2.6-1.1 1.1-1.1 2.1 0 3.2 1.6 1.7 3.3 3.3 4.9 5 .1.1.2.2.3.2 1 .8 1.8.8 2.8 0 .2-.1.3-.3.5-.5l4.5-4.5c.1-.1.2-.2.2-.2 1.1-1.2 1.1-2.1 0-3.2-.8-.8-1.6-1.6-2.4-2.4-.2-.2-.5-.5-.9-.8 1.5-.3 5 1 7.6 2.7 2.3 1.5 4.2 3.4 5.7 5.7s2.6 4.7 3 7.7c-.4-.3-.6-.4-.7-.6-.9-.9-1.7-1.8-2.6-2.6-1.1-1.1-2.1-1.1-3.2 0-1.7 1.6-3.3 3.3-5 4.9-.1.1-.2.2-.2.3-.8 1-.8 1.8 0 2.8.1.2.3.3.5.5l4.5 4.5c.1.1.2.2.2.2 1.2 1.1 2.1 1.1 3.2 0 .8-.8 1.6-1.6 2.4-2.4.2-.2.4-.6.7-1 .3 1.7-1 5.1-2.7 7.7-1.5 2.3-3.4 4.2-5.7 5.7-2.5 1.7-5.5 2.8-7.6 2.9.2-.2.3-.4.5-.6.9-.9 1.8-1.7 2.6-2.6 1.1-1.1 1.1-2.1 0-3.2-1.6-1.7-3.3-3.3-4.9-5-.1-.1-.2-.2-.3-.2-1-.8-1.8-.8-2.8 0-.2.1-.3.3-.5.5-1.5 1.5-3 3-4.5 4.5-.1.1-.2.2-.2.2-1.1 1.2-1.1 2.1 0 3.2.8.8 1.6 1.6 2.4 2.4.2.2.5.5.8.7 0 .1 0 .2-.1.3z" fill="#00a5e6"/></svg>