<svg viewBox="0 0 566.93 566.93" xmlns="http://www.w3.org/2000/svg"><path d="m283.46 562.84a279.38 279.38 0 0 1 -197.55-476.93 279.38 279.38 0 1 1 395.09 395.09 277.52 277.52 0 0 1 -197.54 81.84zm0-552.75c-150.74 0-273.37 122.63-273.37 273.37s122.63 273.38 273.37 273.38 273.38-122.63 273.38-273.38-122.63-273.37-273.38-273.37z" fill="#063"/><ellipse cx="283.46" cy="283.46" fill="#063" rx="266.46" ry="262.2"/><path d="m283.46 15.38c-148.06 0-268.09 120-268.09 268.08s120 268.09 268.09 268.09 268.09-120 268.09-268.09-120.02-268.08-268.09-268.08zm0 463.61c-109.73.01-198.69-87.54-198.69-195.53s89-195.52 198.69-195.52 198.7 87.54 198.7 195.52-88.96 195.54-198.7 195.54z" fill="#063"/><ellipse cx="283.46" cy="283.46" fill="#063" rx="131.29" ry="129.19"/><path d="m283.46 552.43a269 269 0 0 1 -190.18-459.15 269 269 0 1 1 380.37 380.37 267.2 267.2 0 0 1 -190.19 78.78zm0-494.93c-124.59 0-226 101.37-226 226s101.37 226 226 226 226-101.37 226-226-101.4-226-226-226z" fill="#fff"/><g fill="#063"><path d="m175.6 47.24-13.6 7.15 3.21 6.12 12.52-6.57 3.27 6.19-12.54 6.57 7.32 14-8.1 4.26-17-32.46 21.7-11.4z"/><path d="m206.81 67.65q-6.93 2.52-11.88.52c-3.3-1.34-5.74-4.15-7.3-8.46l-8-22 8.64-3.13 7.8 21.49c.87 2.4 2 4 3.29 4.86s3 .9 5.05.16a5.66 5.66 0 0 0 3.76-3.28c.53-1.46.34-3.44-.56-5.92l-7.8-21.5 8.64-3.14 8 22q2.31 6.36-.09 11.1t-9.55 7.3z"/><path d="m252.72 54.86-28.43 6-1.41-6.73 11.81-25.77-15.62 3.28-1.44-6.84 26.6-5.58 1.43 6.78-11.8 25.65 17.42-3.65z"/><path d="m282.87 52.46-29 2.25-.53-6.85 15-24-15.84 1.21-.54-7 27.09-2.07.55 7-15 23.91 17.75-1.38z"/><path d="m316.37 43a10.76 10.76 0 0 1 -1.31 4.73 9.71 9.71 0 0 1 -3 3.25 12.62 12.62 0 0 1 -4.66 2 23.94 23.94 0 0 1 -6.31.32l-14.64-.85 2.14-36.6 12.91.76a43.57 43.57 0 0 1 6.09.66 11.71 11.71 0 0 1 3.81 1.52 7 7 0 0 1 2.77 3 8.3 8.3 0 0 1 .73 4.13 8.64 8.64 0 0 1 -1.61 4.69 8 8 0 0 1 -3.88 2.86v.19a10.08 10.08 0 0 1 5.27 3.34 8.46 8.46 0 0 1 1.69 6zm-9.44-.73a4.52 4.52 0 0 0 -.54-2.69 4.16 4.16 0 0 0 -2-1.57 7.07 7.07 0 0 0 -2.28-.49c-1-.08-2.28-.17-3.91-.27l-1.7-.09-.5 9.17h.49c2.39.14 4 .22 5 .24a7.64 7.64 0 0 0 2.84-.5 3.63 3.63 0 0 0 1.92-1.48 4.75 4.75 0 0 0 .68-2.31zm-1.44-15a4.36 4.36 0 0 0 -.35-1.85 2.79 2.79 0 0 0 -1.34-1.42 5.69 5.69 0 0 0 -2.12-.55c-.82-.08-2.05-.16-3.69-.26h-.64l-.45 7.74 1.15.06c1.57.1 2.68.14 3.31.15a5.42 5.42 0 0 0 2-.4 3 3 0 0 0 1.64-1.37 5.15 5.15 0 0 0 .49-2.09z"/><path d="m356.11 43.79q-1.86 8.68-7.56 12.69t-13.78 2.27q-8.1-1.75-11.65-7.75t-1.72-14.6q1.83-8.64 7.52-12.68t13.79-2.32q8.09 1.73 11.67 7.71t1.73 14.68zm-9.28-2a20.25 20.25 0 0 0 .5-5.6 11.53 11.53 0 0 0 -1-4.07 7 7 0 0 0 -2.16-2.66 7.61 7.61 0 0 0 -2.88-1.28 6.81 6.81 0 0 0 -6.18 1.5 11.38 11.38 0 0 0 -2.57 3.32 20.25 20.25 0 0 0 -1.86 5.37 19.59 19.59 0 0 0 -.51 5.61 11.2 11.2 0 0 0 1 4 6.92 6.92 0 0 0 2.17 2.69 7.73 7.73 0 0 0 2.89 1.33 7.34 7.34 0 0 0 3.23 0 6.84 6.84 0 0 0 3-1.58 11.88 11.88 0 0 0 2.54-3.31 20.14 20.14 0 0 0 1.83-5.32z"/><path d="m362.79 65.72 10.28-27.83-10.15-3.74 2.42-6.56 28.93 10.68-2.42 6.56-10.15-3.75-10.28 27.83z"/><path d="m393.64 79.82a29.92 29.92 0 0 1 -6.15-4.17 36.93 36.93 0 0 1 -4.29-4.54l4.06-7.71.74.39a20.61 20.61 0 0 0 3.7 6 17.94 17.94 0 0 0 5.11 4.12 16.6 16.6 0 0 0 1.92.82 7.27 7.27 0 0 0 2.09.49 4.52 4.52 0 0 0 2-.28 2.88 2.88 0 0 0 1.51-1.44 2.74 2.74 0 0 0 .07-2.5 6.87 6.87 0 0 0 -1.7-2.31c-.95-.88-2-1.77-3.1-2.7a32.7 32.7 0 0 1 -3-2.81 12.33 12.33 0 0 1 -3.51-6.41 10.49 10.49 0 0 1 1.33-6.48 9.84 9.84 0 0 1 7.74-5.29 17.86 17.86 0 0 1 11.1 2.25 32.15 32.15 0 0 1 5.44 3.62 29 29 0 0 1 4.3 4.26l-3.91 7.41-.72-.38a18.21 18.21 0 0 0 -3-4.94 15.74 15.74 0 0 0 -4.77-3.88 12.16 12.16 0 0 0 -2-.86 8.07 8.07 0 0 0 -2.09-.35 4 4 0 0 0 -1.86.34 2.68 2.68 0 0 0 -1.37 1.24 2.74 2.74 0 0 0 -.15 2.44 10.15 10.15 0 0 0 2.7 3.11l2.77 2.37a35.51 35.51 0 0 1 2.72 2.67 12.45 12.45 0 0 1 3.29 5.92 9.55 9.55 0 0 1 -1.23 6.3 10.57 10.57 0 0 1 -7.89 5.77q-5.39.93-11.85-2.47z"/><path d="m141.13 494.28a9.46 9.46 0 0 1 -3.34 2.85 8.87 8.87 0 0 1 -3.83.92 11.5 11.5 0 0 1 -4.48-.82 21 21 0 0 1 -4.84-2.93l-10.41-8 19.91-26 9.19 7a41 41 0 0 1 4.18 3.54 10.41 10.41 0 0 1 2.06 3 6.28 6.28 0 0 1 .55 3.6 7.37 7.37 0 0 1 -1.53 3.43 7.76 7.76 0 0 1 -3.55 2.67 7.08 7.08 0 0 1 -4.3.17l-.1.14a9 9 0 0 1 2.27 5 7.48 7.48 0 0 1 -1.78 5.43zm-6.63-5.28a4 4 0 0 0 .95-2.26 3.68 3.68 0 0 0 -.67-2.15 6.33 6.33 0 0 0 -1.44-1.51c-.68-.54-1.6-1.26-2.77-2.15l-1.21-.93-5 6.53.35.26c1.7 1.31 2.88 2.19 3.55 2.67a6.91 6.91 0 0 0 2.35 1 3.32 3.32 0 0 0 2.17-.13 4.37 4.37 0 0 0 1.72-1.33zm6.5-11.82a3.86 3.86 0 0 0 .67-1.54 2.48 2.48 0 0 0 -.27-1.73 5.19 5.19 0 0 0 -1.3-1.48c-.57-.47-1.44-1.14-2.61-2l-.45-.34-4.21 5.51.82.62q1.68 1.29 2.37 1.77a4.74 4.74 0 0 0 1.67.69 2.63 2.63 0 0 0 1.86-.19 4.51 4.51 0 0 0 1.45-1.31z"/><path d="m152.18 513.47q-5.7-3.32-7.17-7.86t1.61-9.86l10.5-18.11 7.12 4.13-10.24 17.69a8.2 8.2 0 0 0 -1.44 5.05 5 5 0 0 0 2.78 3.55 5.11 5.11 0 0 0 4.41.7c1.31-.48 2.55-1.75 3.74-3.79l10.26-17.69 7.12 4.12-10.5 18.1q-3 5.24-7.66 6.3t-10.53-2.33z"/><path d="m200.44 535.3-9.26-3.84-3.83-14.6-2.72-1.13-4.63 11.11-7.56-3.14 12.56-30.28 12.17 5.05a28.4 28.4 0 0 1 4.25 2.13 10 10 0 0 1 2.91 2.75 7.89 7.89 0 0 1 .76 8.15 10.19 10.19 0 0 1 -3.9 5 11.93 11.93 0 0 1 -5.62 1.71zm-3.51-26.08a4.43 4.43 0 0 0 .37-2.14 3.1 3.1 0 0 0 -.92-1.87 5.82 5.82 0 0 0 -1.43-1c-.56-.29-1.27-.62-2.14-1l-2.54-1.05-3.38 8.15 2.17.9a17.7 17.7 0 0 0 2.78.93 4.37 4.37 0 0 0 2.22-.05 3.93 3.93 0 0 0 1.65-.91 5.53 5.53 0 0 0 1.22-1.96z"/><path d="m205.15 536.49 8.8-31.58 21.33 5.94-1.67 6-13.46-3.75-1.54 5.53 12.39 3.49-1.67 6-12.4-3.45-2.22 8 13.45 3.75-1.68 6z"/><path d="m230.74 543.59 16-30.7 8.87 1.38 5.9 34.09-8.37-1.3-1-6.93-10.17-1.58-3.05 6.3zm20.5-9.61-1.64-11.19-5 10.17z"/><path d="m280.51 549.75q-6.58-.16-10.06-3.45t-3.32-9.42l.53-20.93 8.22.21-.51 20.45a8.32 8.32 0 0 0 1.15 5.11 5 5 0 0 0 4.15 1.78 5.11 5.11 0 0 0 4.21-1.5c.91-1 1.4-2.75 1.46-5.12l.51-20.44 8.23.2-.53 20.91q-.15 6.06-3.7 9.21t-10.34 2.99z"/><path d="m313.87 548.29 5.78-34.11 8.87-1.41 16.07 30.64-8.37 1.33-3.07-6.29-10.15 1.61-1 6.94zm16.57-15.43-5-10.15-1.6 11.2z"/><path d="m350 541.9-9-31.53 21.3-6.06 1.71 6-13.43 3.82 1.57 5.53 12.38-3.52 1.71 6-12.38 3.52 2.27 8 13.43-3.82 1.71 6z"/><path d="m403.44 520.77a39.37 39.37 0 0 1 -4.47 3.78 28.53 28.53 0 0 1 -5.91 3.43q-7.11 3-13.07.74t-9.19-9.83q-3-7.1-.63-13.16t9.71-9.2a23.35 23.35 0 0 1 6.46-1.91 35.78 35.78 0 0 1 5.73-.14l3 7.07-.69.29-2.08-.53a19.27 19.27 0 0 0 -2.56-.48 14 14 0 0 0 -3.1 0 11.3 11.3 0 0 0 -3.34.87 10.91 10.91 0 0 0 -3.28 2.12 8.83 8.83 0 0 0 -2.06 3.08 9.35 9.35 0 0 0 -.57 3.89 13.36 13.36 0 0 0 1.15 4.63q2.25 5.28 6 6.66a11 11 0 0 0 8.31-.58c.27-.11.58-.26.94-.42s.67-.33.93-.47l-2.53-5.91-5.84 2.49-2.42-5.65 13.17-5.62z"/><path d="m425.78 510.29-15.32 8.71-2.84-5 4.09-2.34-10.58-18.52-4.13 2.4-2.84-5 15.32-8.75 2.84 5-4.09 2.34 10.58 18.52 4.09-2.33z"/><path d="m440.76 500.86a26.39 26.39 0 0 1 -5.79 3.27 33.2 33.2 0 0 1 -5.35 1.63l-4.55-6.32.61-.44a18.39 18.39 0 0 0 6.28-.57 16.34 16.34 0 0 0 5.33-2.45 15.56 15.56 0 0 0 1.42-1.21 6.51 6.51 0 0 0 1.23-1.48 4 4 0 0 0 .56-1.7 2.58 2.58 0 0 0 -.55-1.79 2.46 2.46 0 0 0 -2-1.06 6.41 6.41 0 0 0 -2.53.44c-1.07.42-2.2.89-3.38 1.41a28.39 28.39 0 0 1 -3.45 1.29 11.07 11.07 0 0 1 -6.54.26 9.46 9.46 0 0 1 -4.66-3.65 8.81 8.81 0 0 1 -1.19-8.32 16 16 0 0 1 6.22-8 28.29 28.29 0 0 1 5.07-2.92 24.83 24.83 0 0 1 5.14-1.72l4.37 6.07-.59.43a16.1 16.1 0 0 0 -5.15.45 14.07 14.07 0 0 0 -5 2.28 11.42 11.42 0 0 0 -1.46 1.24 7.53 7.53 0 0 0 -1.11 1.54 3.59 3.59 0 0 0 -.47 1.62 2.44 2.44 0 0 0 .45 1.59 2.48 2.48 0 0 0 1.89 1.1 9.07 9.07 0 0 0 3.57-.93l3-1.27a30.75 30.75 0 0 1 3.22-1.13 11.13 11.13 0 0 1 6-.27 8.54 8.54 0 0 1 4.56 3.49 9.49 9.49 0 0 1 1.48 8.62q-1.33 4.64-6.63 8.5z"/></g><path d="m405.77 143.52v77.59l-42.43 42.43-67.07-.66v-80.63l38.73-38.73zm17.23-17.23h-95.14l-48.86 48.82v104.83l91.37.9 52.63-52.59v-102z" fill="#fff"/><path d="m263.6 296.46v77.54l-42.43 42.43-67.06-.66v-80.58l38.73-38.73zm17.24-17.24h-95.14l-48.82 48.83v104.83l91.36.89 52.6-52.59v-102z" fill="#fff"/><path d="m297 298.61h43.08l28.72 28.72v51h-48.12l-23.33-23.33s-.35-57.47-.35-56.39z" fill="#fff"/><path d="m190.19 182.11h43.08l28.73 28.72v51h-48.12l-23.33-23.33s-.36-57.5-.36-56.39z" fill="#fff"/></svg>