<svg enable-background="new 0 0 113.4 114.1" viewBox="0 0 113.4 114.1" xmlns="http://www.w3.org/2000/svg"><circle cx="56.7" cy="57.4" fill="#fff" r="56.7"/><circle cx="56.7" cy="55.9" fill="#fff" r="53.7"/><path d="m112.1 58.7c0 24.7-18.1 47.2-43.5 52.8-29.8 6.6-59.6-12.4-66-42.1-6.5-29.8 11.7-58.9 41.3-66 2.3-.6 3.6.4 3.1 2.5-.2.8-.7 1.2-1.4 1.6-2 1-4.2 1.5-6.3 2.5-13.8 6.5-22.4 17.1-24.9 32.2-3.8 22.7 10.6 43.8 33.2 48.9s45.8-9.8 50.7-32.4c4.8-22-7.4-43.3-28.9-50.3-.8-.2-1.5-.6-2.2-1-1-.5-1.4-1.7-1-2.9.4-1.1 1.2-1.4 2.3-1.2 3.3.6 6.6 1.7 9.7 3 17.8 8 28.8 21.6 32.9 40.8.8 3.4 1.1 6.9 1 11.6z" fill="#050302"/><path d="m51.7 72.9c-13.6-21.7-12.3-51.6 5-72.9 18.5 23.3 17.5 53.2 4.9 72.9-.7-4.3-1.1-8.6-2-12.8-.7-3.3.5-6.1 1.1-9.1 2.3-11.7.9-22.9-3.9-34-1 1.9-1.7 3.8-2.3 5.6-2.5 7.4-3.3 15.1-2.6 22.9.3 2.7.6 5.5 1.5 8.1.8 2.3.7 4.6.3 6.9-.7 4.1-1.3 8.2-2 12.4z" fill="#060403"/><path d="m58.1 90.3c1.2-3.5 3.1-6.5 4.8-9.5 12.5-3 20.8-10.6 24.8-22.9-5-3.1-10.1-5.2-15.7-6.8.5-3 .8-6 1-9.1 9 2.2 17.3 6.1 24.7 11.6-1.9 19.7-18.9 36.3-39.6 36.7z" fill="#070504"/><path d="m40.4 42c .3 3 .4 6 1.1 9.1-5.5 1.6-10.8 3.7-15.8 6.8 4 12.2 12.2 19.8 24.7 22.9 1.7 3 3.6 6.1 4.8 9.5-17.6 0-36.9-13.9-39.5-36.6 7.3-5.5 15.6-9.4 24.7-11.7z" fill="#070503"/></svg>