<?xml version="1.0" encoding="UTF-8"?>
<svg xmlns="http://www.w3.org/2000/svg" viewBox="0 0 566.93 566.93">
  <defs>
    <style>
      .uuid-bedd629a-345c-43ec-b09b-1d49d3321b84 {
        fill: #fff;
      }

      .uuid-41728af0-1925-45d5-b9a3-18e38a934414 {
        fill: #28347d;
      }

      .uuid-c007f710-e184-4d74-94eb-93060dc9a967 {
        fill: #cc1333;
      }
    </style>
  </defs>
  <g id="uuid-a2a884b7-4467-4d85-9edf-c05527c8c5d3" data-name="Capa_1">
    <ellipse class="uuid-41728af0-1925-45d5-b9a3-18e38a934414" cx="283.47" cy="283.46" rx="279.47" ry="279.21"/>
    <g>
      <path class="uuid-c007f710-e184-4d74-94eb-93060dc9a967" d="M548.41,253.37c-14.42-132.76-127.73-236.46-264.95-236.46S32.94,120.61,18.52,253.37h81.14c13.68-87.45,90.47-154.74,182.37-154.52,91.75.22,167.64,67.15,181.42,154.52h84.97Z"/>
      <path class="uuid-c007f710-e184-4d74-94eb-93060dc9a967" d="M283.46,550.02c137.31,0,250.69-103.84,264.98-236.73h-84.97c-13.73,87.95-89.99,155-182.09,154.79-92.26-.21-167.79-66.87-181.63-154.79H18.48c14.29,132.89,127.67,236.73,264.98,236.73Z"/>
      <path class="uuid-c007f710-e184-4d74-94eb-93060dc9a967" d="M559.69,313.28h-7.22c-6.41,61.14-33.43,117.81-77.73,161.88-51.09,50.83-119.02,78.82-191.27,78.82s-140.18-27.99-191.27-78.82c-44.3-44.07-71.33-100.74-77.73-161.88H5.67c14.3,140.08,133.22,249.39,277.8,249.39s263.5-109.31,277.8-249.39h-1.57Z"/>
      <path class="uuid-c007f710-e184-4d74-94eb-93060dc9a967" d="M14.49,253.37c6.46-61.04,33.47-117.6,77.7-161.61C143.28,40.93,211.21,12.94,283.46,12.94s140.18,27.99,191.27,78.82c44.23,44,71.24,100.57,77.7,161.61h8.79C546.8,113.42,427.95,4.25,283.46,4.25S20.13,113.42,5.7,253.37h8.79Z"/>
    </g>
    <g>
      <path class="uuid-bedd629a-345c-43ec-b09b-1d49d3321b84" d="M242.34,68.4c5.73,5.39,10.72,10.71,14.95,15.95l-5.73,4.23c-.06-.06-1.25-1.45-3.59-4.17-13.57,5.3-26.51,9.77-38.82,13.43l-2.01-6.03c3.98-1.21,6.99-2.15,9.04-2.81,2.22-3.35,4.13-6.36,5.73-9.01-6.65-3.92-13.1-7.31-19.35-10.18l3.44-5.93c2.46,1.15,4.31,2.06,5.56,2.73,1.97-3.29,3.72-6.5,5.27-9.64l-18.78,4.99-1.57-5.92,20.76-5.52-1.54-5.81,7.42-1.97,1.54,5.81,20.77-5.52,1.57,5.92-21.3,5.66c-2.23,5.05-4.9,10.11-8,15.2,3.49,1.88,6.06,3.3,7.71,4.29,3.68-6.39,7.09-13.19,10.24-20.41l6.79,2.34c-4.74,10.48-10.03,20.33-15.87,29.56,5.1-1.74,10.77-3.76,16.99-6.07-2.08-2.17-4.29-4.37-6.65-6.58l5.41-4.55Z"/>
      <path class="uuid-bedd629a-345c-43ec-b09b-1d49d3321b84" d="M297.89,40.87l4.49-4.08c2.62,2.14,5.27,4.65,7.95,7.53l-3.98,3.58,4.45.04-.05,6.07-12.86-.11c.4,5.35,1.03,10.03,1.89,14.04.86,4.02,1.66,6.82,2.41,8.4s1.36,2.38,1.85,2.38c.85,0,1.58-2.94,2.19-8.83l5.93,2.5c-.38,5.04-1.28,8.78-2.71,11.19-1.43,2.42-3.11,3.62-5.04,3.6-1.23-.01-2.39-.34-3.5-1-1.11-.66-2.22-1.79-3.34-3.4-1.12-1.61-2.1-3.64-2.95-6.12-.85-2.47-1.61-5.65-2.29-9.54s-1.17-8.31-1.5-13.29l-9.18-.08-.06,7.74,8.79.07-.05,6.18-8.79-.08-.08,9.85c3.86-.64,7.51-1.31,10.93-2.02l.4,5.9c-8.96,2.08-19.53,3.75-31.72,5.02l-.78-6.19c.41-.03.99-.09,1.75-.18.76-.08,1.33-.15,1.7-.18l.18-21.15,6.79.06-.17,20.32c.26-.03.66-.1,1.2-.18.54-.09,1.01-.16,1.42-.21.41-.05.78-.09,1.11-.13l.21-24.88-14.03-.12.05-6.07,30.06.25c-.12-3.16-.16-6.98-.13-11.47l6.96.06c-.03,3.78.03,7.61.18,11.47l7.79.07c-2.65-2.69-5.13-5.03-7.46-7.02ZM264.51,44.87l.05-5.9,22.38.19-.05,5.9-22.38-.19Z"/>
      <path class="uuid-bedd629a-345c-43ec-b09b-1d49d3321b84" d="M345.28,96.57c-2.21-.64-5.39-1.65-9.55-3.04l1.3-5.13c-2.67.97-5.46,1.73-8.36,2.28l-1.03-6.49c8.13-1.29,14.9-3.74,20.31-7.36,0-.96-.08-2.01-.25-3.14-4.06,2.31-8.74,4.05-14.02,5.23-1.77,2.39-4.53,3.04-8.27,1.96l-.96-.28.33-5.99.75.21c1.21.35,2.09.32,2.63-.08.54-.4,1.04-1.41,1.5-3.01.48-1.68.63-3.23.44-4.65-.19-1.42-.79-3.31-1.82-5.65l-8.16,28.35-6.53-1.88,13.6-47.23,17.97,5.17-1.56,5.4s-.08.07-.1.15c-.02.07-.05.12-.1.14l4.55,1.31c-.25-1.96-.55-3.92-.91-5.88l6.94-.15c.45,2.33.81,5.02,1.09,8.08l5.56,1.6c2-1.86,3.92-3.97,5.76-6.33l5.9,3.44c-.97,1.34-2.43,3.01-4.39,4.99l7.01,2.02-1.65,5.72-9.63-2.77c-.54,3.21-.89,6.12-1.07,8.73,2.02-1.12,3.9-2.28,5.63-3.48l2.44,5.8c-2.82,2.01-5.51,3.65-8.08,4.91.29,5.69,1.41,10.6,3.34,14.75l-5.14,5.59c-2.39-4.71-3.89-10.38-4.48-17.02-.6-6.64-.22-13.67,1.14-21.07l-1.82-.52c-.9.59-2.07,1.22-3.5,1.89,3.33,8.3,3.79,16.6,1.4,24.91-1.15,3.99-2.3,6.56-3.46,7.69-1.16,1.13-2.75,1.41-4.79.82ZM337.41,49.47l-5.24-1.51-3.47,12.03c3.4-3.35,6.3-6.86,8.71-10.53ZM346.48,68.25c-.38-1.11-.66-1.99-.87-2.62-2.45.72-5.24,1.31-8.38,1.76l-1.11-6c4.17-.42,7.98-1.23,11.42-2.45l-7.92-2.28c-1.73,2.25-3.38,4.15-4.94,5.7,1.27,3.38,1.74,6.56,1.42,9.56,3.88-.85,7.34-2.08,10.38-3.67ZM347.34,83.56c-2.84,1.81-5.96,3.32-9.36,4.55,2.42.85,4.32,1.48,5.71,1.88.64.19,1.16.06,1.55-.36.39-.43.88-1.64,1.45-3.64.3-1.04.51-1.84.64-2.42Z"/>
    </g>
    <g>
      <path class="uuid-bedd629a-345c-43ec-b09b-1d49d3321b84" d="M140.88,445.84l20.43,16.72-4.72,5.77-18.96-15.52c-1.14-.84-2.39-1.16-3.74-.97-1.35.19-2.6.64-3.74,1.36s-2.13,1.6-2.98,2.63c-.85,1.03-1.51,2.18-1.99,3.44-.48,1.26-.68,2.57-.6,3.94s.65,2.52,1.69,3.47l13.1,10.72c.54.39,1.05.33,1.53-.19l2.04-2.5c.44-.6.4-1.11-.11-1.53l-13.45-11,4.73-5.78,17.15,14.04c.8.66,1.27,1.5,1.4,2.51.07.97-.2,1.85-.8,2.65l-.07.09-8.25,10.08c-.66.75-1.47,1.18-2.41,1.27-.99.1-1.89-.15-2.69-.76l-18.36-15.02c-1.92-1.76-2.95-3.89-3.09-6.38-.14-2.49.24-4.87,1.17-7.14.92-2.27,2.16-4.35,3.71-6.25,1.55-1.9,3.36-3.51,5.41-4.85,2.05-1.34,4.31-2.19,6.77-2.56,2.46-.36,4.74.22,6.84,1.75Z"/>
      <path class="uuid-bedd629a-345c-43ec-b09b-1d49d3321b84" d="M174.42,469.97l2.25,1.22,19.38,10.52-3.56,6.56-19.97-10.83c-1.28-.61-2.56-.69-3.85-.25-1.29.44-2.44,1.12-3.42,2.04-.99.92-1.8,1.97-2.44,3.14-.64,1.17-1.07,2.43-1.31,3.76-.24,1.33-.19,2.66.15,3.98.34,1.32,1.11,2.35,2.31,3.09l19.97,10.83-3.56,6.56-20.71-11.23-.93-.5c-2.21-1.37-3.62-3.27-4.23-5.69-.61-2.42-.67-4.83-.2-7.23.48-2.4,1.3-4.68,2.47-6.83,1.17-2.15,2.63-4.08,4.4-5.78,1.77-1.7,3.82-2.96,6.17-3.78,2.35-.82,4.7-.67,7.05.44ZM186.35,499.13l-20.07-10.89,3.56-6.56,20.07,10.89-3.56,6.56Z"/>
      <path class="uuid-bedd629a-345c-43ec-b09b-1d49d3321b84" d="M217.86,487.6c1.84.59,3.58,1.39,5.23,2.38s3.15,2.17,4.51,3.53c1.36,1.35,2.44,2.92,3.26,4.7.81,1.78.96,3.64.46,5.59l-.71,2.23-6.39,19.88-7.16-2.3,6.58-20.46c.28-1.12.16-2.16-.37-3.13-.53-.97-1.19-1.82-1.99-2.54-.8-.73-1.67-1.36-2.61-1.89s-1.92-.97-2.95-1.3c-1.03-.33-2.07-.55-3.15-.66s-2.15-.11-3.22.02c-1.07.12-2.11.43-3.1.91-.99.48-1.7,1.26-2.12,2.33l-6.58,20.46-7.1-2.28,6.39-19.88.72-2.23c.72-1.87,1.92-3.3,3.6-4.28,1.68-.98,3.46-1.62,5.36-1.93,1.89-.31,3.8-.39,5.72-.24,1.92.15,3.8.52,5.64,1.11Z"/>
      <path class="uuid-bedd629a-345c-43ec-b09b-1d49d3321b84" d="M274.55,518.17c.53,1.56.7,3.09.52,4.6-.18,1.47-.72,2.9-1.63,4.26-.91,1.37-2.26,2.52-4.05,3.44-1.79.93-3.98,1.24-6.56.93l-.33-.04c-.22.01-.45,0-.67-.02l-22.23-2.64c-.99-.16-1.79-.61-2.39-1.38-.6-.76-.86-1.64-.78-2.64l3.01-25.33c.16-.99.61-1.79,1.38-2.39.76-.6,1.64-.86,2.64-.78l19.02,2.26c.22.03.44.07.66.13l.33.04c2.57.38,4.62,1.22,6.15,2.53,1.53,1.3,2.57,2.71,3.14,4.21.57,1.51.77,2.98.6,4.42-.18,1.48-.7,2.87-1.56,4.19-.04.07-.09.12-.13.15,1.38,1.25,2.35,2.6,2.88,4.04ZM264.03,524.1c.7.12,1.29.06,1.79-.18.5-.24.88-.54,1.14-.9.27-.36.43-.74.47-1.15.03-.26-.04-.63-.2-1.12s-.46-.91-.89-1.26c-.43-.35-.99-.58-1.68-.71l-3.54-.42-16.15-1.92-.45,3.82c-.12,1,.34,1.55,1.37,1.68l.44.05,17.7,2.1ZM264.17,510.71c.47-.21.84-.47,1.1-.79.26-.32.41-.67.46-1.04.04-.37-.03-.74-.2-1.12-.18-.38-.48-.73-.91-1.06-.43-.33-.99-.56-1.69-.68l-14.93-1.78c-1.03-.12-1.61.31-1.73,1.31l-.41,3.48,16.48,1.96c.71.05,1.31-.05,1.83-.29Z"/>
      <path class="uuid-bedd629a-345c-43ec-b09b-1d49d3321b84" d="M302.55,532.89c-1.93.14-3.84.06-5.74-.24-1.9-.3-3.74-.83-5.51-1.57-1.77-.74-3.36-1.79-4.76-3.13s-2.24-3.01-2.5-5l-.18-2.33-1.55-20.6,7.44-.56,1.6,21.21c.16,1.14.67,2.06,1.52,2.76.85.7,1.79,1.23,2.8,1.6,1.01.37,2.06.63,3.13.77s2.14.17,3.22.09c1.07-.08,2.13-.27,3.17-.57,1.04-.3,2.03-.71,2.98-1.23s1.79-1.19,2.53-2c.74-.82,1.1-1.81,1.09-2.96l-1.6-21.21,7.5-.56,1.55,20.6.18,2.33c.04,2.01-.54,3.78-1.75,5.32-1.21,1.54-2.63,2.81-4.27,3.81s-3.38,1.79-5.21,2.38c-1.84.58-3.72.95-5.64,1.1Z"/>
      <path class="uuid-bedd629a-345c-43ec-b09b-1d49d3321b84" d="M322.51,496.8l37.24-10.32,1.99,7.19-14.97,4.15,6.8,24.52-7.24,2.01-6.8-24.52-15.03,4.17-1.99-7.19Z"/>
      <path class="uuid-bedd629a-345c-43ec-b09b-1d49d3321b84" d="M385.04,497.05l10.42-5.18-3.13-3.04c-1.21-1.1-2.37-2.12-3.49-3.08-1.12-.96-2.26-1.77-3.42-2.43-1.09-.7-2.04-.89-2.84-.58-.76.46-1.21,1.35-1.35,2.66-.14,1.31-.16,2.7-.07,4.17.09,1.47.21,3.02.35,4.65l1.96,17.56-7.38,3.67-2-21.77c-.32-4.48-.29-8.25.1-11.31.37-3,2-5.24,4.87-6.71,2.88-1.39,5.63-1.34,8.26.15,2.63,1.49,5.65,3.75,9.06,6.78l16.21,14.7-7.58,3.77-3.83-3.69-12.81,6.37-3.32-6.68Z"/>
      <path class="uuid-bedd629a-345c-43ec-b09b-1d49d3321b84" d="M414.76,486.77l11.04-8.29-10.76-14.34-11.04,8.29-4.48-5.97,28.06-21.06,4.48,5.97-11,8.26,10.77,14.34,11-8.26,4.48,5.97-28.06,21.06-4.48-5.97Z"/>
    </g>
  </g>
  <g id="uuid-971a7976-21ee-4d8e-8a30-0b81cbc25bc9" data-name="Capa_2">
    <g>
      <path class="uuid-c007f710-e184-4d74-94eb-93060dc9a967" d="M309.23,314.35l20.08-27.65c1.41-1.94,1.44-4.56.08-6.54l-20.57-29.74c-1.06-1.53-2.79-2.44-4.65-2.44h-45.88c-1.92,0-3.71.97-4.75,2.59l-19.18,29.71c-1.24,1.92-1.2,4.4.09,6.28l19.07,27.67c1.06,1.53,2.8,2.45,4.66,2.45h46.48c1.81,0,3.51-.87,4.58-2.33Z"/>
      <path class="uuid-c007f710-e184-4d74-94eb-93060dc9a967" d="M344.86,135.14h-122.49c-1.5,0-2.93.59-3.99,1.65l-82.04,81.74c-1.06,1.06-1.66,2.5-1.66,4.01v121.55c0,1.5.6,2.94,1.66,4l82.04,82.04c1.06,1.06,2.5,1.66,4,1.66h122.28c1.5,0,2.94-.6,4-1.66l81.94-81.94c1.06-1.06,1.66-2.5,1.66-4v-121.66c0-1.5-.6-2.94-1.66-4l-81.74-81.74c-1.06-1.06-2.5-1.66-4-1.66ZM408.79,339.16l-69.17,69.17c-1.06,1.06-2.5,1.66-4,1.66h-104.21c-1.5,0-2.94-.6-4-1.66l-69.27-69.27c-1.06-1.06-1.66-2.5-1.66-4v-103.46c0-1.5.6-2.94,1.66-4.01l69.24-68.99c1.06-1.06,2.5-1.65,3.99-1.65h104.44c1.5,0,2.94.6,4,1.66l68.96,68.96c1.06,1.06,1.66,2.5,1.66,4v103.6c0,1.5-.6,2.94-1.66,4Z"/>
      <path class="uuid-c007f710-e184-4d74-94eb-93060dc9a967" d="M236.38,176.04l-14.7,14.7c-2.21,2.21-2.21,5.79,0,8l32.27,32.27c1.06,1.06,2.5,1.66,4,1.66h48.27c1.5,0,2.94-.6,4-1.66l33.6-33.6c2.21-2.21,2.21-5.79,0-8l-13.76-13.76c-1.07-1.07-2.52-1.66-4.02-1.66l-85.68.39c-1.49,0-2.92.6-3.97,1.66Z"/>
      <path class="uuid-c007f710-e184-4d74-94eb-93060dc9a967" d="M255.28,337.15l-33.6,33.6c-2.21,2.21-2.21,5.79,0,8l13.76,13.76c1.07,1.07,2.52,1.66,4.02,1.66l85.68-.39c1.49,0,2.92-.6,3.97-1.66l14.7-14.7c2.21-2.21,2.21-5.79,0-8l-32.27-32.27c-1.06-1.06-2.5-1.66-4-1.66h-48.27c-1.5,0-2.94.6-4,1.66Z"/>
      <path class="uuid-c007f710-e184-4d74-94eb-93060dc9a967" d="M326.61,330.1l28.45,27.32c2.22,2.13,5.74,2.1,7.92-.08l26.73-26.73c1.06-1.06,1.66-2.5,1.66-4v-28.8c0-3.12-2.53-5.66-5.66-5.66h-34.99c-1.82,0-3.54.88-4.6,2.36l-20.2,28.21c-1.64,2.29-1.35,5.42.68,7.37Z"/>
      <path class="uuid-c007f710-e184-4d74-94eb-93060dc9a967" d="M212.43,292.15h-34.99c-3.12,0-5.66,2.53-5.66,5.66v28.8c0,1.5.6,2.94,1.66,4l26.73,26.73c2.18,2.18,5.7,2.21,7.92.08l28.45-27.32c2.03-1.95,2.32-5.09.68-7.37l-20.2-28.21c-1.06-1.48-2.77-2.36-4.6-2.36Z"/>
      <path class="uuid-c007f710-e184-4d74-94eb-93060dc9a967" d="M236.54,237.55l-28.45-27.32c-2.22-2.13-5.74-2.1-7.92.08l-26.73,26.73c-1.06,1.06-1.66,2.5-1.66,4v28.8c0,3.12,2.53,5.66,5.66,5.66h34.99c1.82,0,3.54-.88,4.6-2.36l20.2-28.21c1.64-2.29,1.35-5.42-.68-7.37Z"/>
      <path class="uuid-c007f710-e184-4d74-94eb-93060dc9a967" d="M350.72,275.49h34.99c3.12,0,5.66-2.53,5.66-5.66v-28.8c0-1.5-.6-2.94-1.66-4l-26.73-26.73c-2.18-2.18-5.7-2.21-7.92-.08l-28.45,27.32c-2.03,1.95-2.32,5.09-.68,7.37l20.2,28.21c1.06,1.48,2.77,2.36,4.6,2.36Z"/>
    </g>
  </g>
</svg>