<svg enable-background="new 0 0 113.4 113.3" viewBox="0 0 113.4 113.3" xmlns="http://www.w3.org/2000/svg"><circle cx="56.6" cy="56.6" fill="#fff" r="55.5"/><path d="m0 56.6c0-31.3 25.5-56.6 56.9-56.6 31 0 56.5 25.6 56.5 56.7-.1 31.3-25.4 56.7-56.7 56.6s-56.7-25.4-56.7-56.7zm56.8 55.4c30.2.2 55.5-24.7 55.4-55.6-.1-30.7-25.2-55.3-55.5-55.3-30.2 0-55.8 24.7-55.5 56.2.3 30.1 25.1 55 55.6 54.7z" fill="#fdce00"/><path d="m56.8 112c-30.5.3-55.3-24.6-55.6-54.7-.3-31.5 25.3-56.2 55.5-56.2 30.3 0 55.4 24.6 55.5 55.3.1 31-25.2 55.9-55.4 55.6zm-19-61.4c1.2-9.3 7.5-15.3 13.1-16.7-1.3 4.3-2.4 8.7-3.9 12.8-1.5 4-1.7 7.9.6 11.6 2.2 3.5 6.6 5.7 10.6 5.3 2.5-.3 4.6-1.3 6.6-2.8 3.5-2.7 4.8-7.6 3.8-11.5-1.1-4-2.5-8-3.8-11.9-.4-1.2-.7-2.4-1.1-3.7 2.8.8 5.5 2.4 8 5 3.1 3.3 4.9 7.2 5.1 11.8h11.4c-.2-5.3-1.6-10.3-4.4-14.7-5.6-8.7-13.6-13.7-24-14.7-.9-2.7-1.7-5.4-2.7-8.3-.9 3-1.7 5.7-2.5 8.4-18.2 1.6-28.5 18.5-27.9 29.4zm39 3.7c-1.2 11.2-10.8 17.4-19.5 17.5-3.6 0-7-1.1-10.1-3-5.5-3.3-8.3-8.4-9.4-14.5-3.8 0-7.5 0-11.2 0 .2 14 13 28.1 29.1 28.8 17.8.8 31.6-13 32.4-28.8-3.7 0-7.4 0-11.3 0z" fill="#b0cb10"/><path d="m37.8 50.6c-3.8 0-7.5 0-11.2 0-.5-10.9 9.8-27.8 28-29.2.8-2.7 1.6-5.4 2.5-8.4.9 2.9 1.8 5.5 2.7 8.3 10.4.9 18.4 5.9 24 14.7 2.8 4.4 4.2 9.3 4.4 14.7-3.8 0-7.5 0-11.4 0-.2-4.6-2-8.5-5.1-11.8-2.5-2.7-5.2-4.2-8-5 .4 1.3.8 2.5 1.1 3.7 1.3 4 2.7 7.9 3.8 11.9s-.3 8.8-3.8 11.5c-2 1.6-4.1 2.6-6.6 2.8-4.1.4-8.4-1.8-10.6-5.3-2.3-3.8-2.1-7.6-.6-11.6 1.5-4.2 2.6-8.5 3.9-12.8-5.6 1.2-11.9 7.2-13.1 16.5z" fill="#fffffe"/><path d="m76.8 54.3h11.3c-.9 15.8-14.6 29.6-32.4 28.8-16-.7-28.8-14.8-29.1-28.8h11.2c1.1 6.1 3.9 11.2 9.4 14.5 3.1 1.9 6.4 3 10.1 3 8.7-.1 18.3-6.3 19.5-17.5z" fill="#fefefd"/></svg>