<?xml version="1.0" encoding="UTF-8"?>
<svg id="uuid-52afbca1-126f-4189-a011-74d7a5365d5b" data-name="Capa 1" xmlns="http://www.w3.org/2000/svg" viewBox="0 0 566.93 566.93">
  <defs>
    <style>
      .uuid-ef914350-ba9a-4ffd-ab7e-b5a3218bd1f1 {
        fill: #881812;
      }

      .uuid-083ad575-10ac-4bd3-b42c-e7df14a6c990 {
        fill: #006c92;
      }

      .uuid-2af12300-6bf5-4c44-92b0-e0849d58e3b0 {
        fill: #fecd57;
      }
    </style>
  </defs>
  <g>
    <path class="uuid-2af12300-6bf5-4c44-92b0-e0849d58e3b0" d="M280.97,542.48c-69.22,0-134.29-26.95-183.23-75.9S21.85,352.57,21.85,283.35s26.95-134.29,75.9-183.23c48.94-48.94,114.02-75.9,183.23-75.9s134.29,26.95,183.23,75.9c48.94,48.94,75.9,114.02,75.9,183.23s-26.95,134.29-75.9,183.23c-48.94,48.94-114.02,75.9-183.23,75.9Z"/>
    <path class="uuid-ef914350-ba9a-4ffd-ab7e-b5a3218bd1f1" d="M280.98,27.72c141.18,0,255.63,114.45,255.63,255.63s-114.45,255.63-255.63,255.63S25.35,424.53,25.35,283.35,139.8,27.72,280.98,27.72M280.98,20.72c-35.45,0-69.85,6.94-102.23,20.64-31.27,13.23-59.36,32.16-83.48,56.28-24.12,24.12-43.05,52.2-56.28,83.48-13.7,32.38-20.64,66.78-20.64,102.23s6.94,69.85,20.64,102.23c13.23,31.27,32.16,59.36,56.28,83.48,24.12,24.12,52.2,43.05,83.48,56.28,32.38,13.7,66.78,20.64,102.23,20.64s69.85-6.94,102.23-20.64c31.27-13.23,59.36-32.16,83.48-56.28,24.12-24.12,43.05-52.2,56.28-83.48,13.7-32.38,20.64-66.78,20.64-102.23s-6.94-69.85-20.64-102.23c-13.23-31.27-32.16-59.36-56.28-83.48s-52.2-43.05-83.48-56.28c-32.38-13.7-66.78-20.64-102.23-20.64h0Z"/>
  </g>
  <g>
    <path class="uuid-083ad575-10ac-4bd3-b42c-e7df14a6c990" d="M459.17,464.17l-17.29-27.31c37.61-39.92,58.76-91.47,59.99-146.36l24.18-10.77-24.5-7.27c-3.11-54.16-25.67-104.65-64.35-143.33-38.96-38.96-89.92-61.58-144.54-64.42l-7.91-17.97-1.4-5.71-1.66,7.33-7.72,16.15c-56.43,1.73-109.23,24.51-149.33,64.62-38.6,38.6-61.15,88.96-64.33,143.01l-24.4,7.41,24.06,10.75c1.23,57.21,24.08,110.81,64.68,151.4.14.14.28.27.41.4l-17.86,27.87,28.12-18.29c38.8,34.07,87.64,53.27,139.53,54.66l10.05,19.34,10.13-19.71c51.2-3.2,99.04-23.8,136.67-58.96l27.5,17.16ZM271.22,481.69l-3.72-7.16c4.44.31,8.92.47,13.42.47,7.22,0,14.38-.41,21.45-1.21l-3.77,7.34c-5.83.52-11.72.8-17.68.8-3.25,0-6.48-.08-9.69-.24ZM280.92,470.91c-5.27,0-10.48-.23-15.64-.67l-40.05-77.07,58.83-38.28,60.13,37.52-39.57,76.98c-7.76.99-15.68,1.51-23.71,1.51ZM144.56,426.78l3.77-5.88c2.6,2.54,5.25,5,7.97,7.38l-5.94,3.87c-1.97-1.75-3.9-3.54-5.79-5.36ZM84.4,285.41c0-4.09.14-8.15.39-12.18l7.08-2.15c-.35,4.74-.53,9.52-.53,14.33,0,3.38.09,6.74.27,10.09l-7.07-3.16c-.08-2.3-.14-4.61-.14-6.93ZM95.41,285.41c0-5.26.23-10.46.66-15.61l103.85-31.54,65.87-137.74c1.37-.11,2.74-.2,4.12-.28l-40.67,179.25-38.62,60.28-94.81-42.39c-.25-3.96-.4-7.95-.4-11.97ZM97.02,260.98c10.93-82.71,76.55-148.4,159.23-159.43l-62.14,129.95-97.09,29.48ZM360.57,239.14l105.24,31.22c.4,4.96.61,9.98.61,15.05,0,4.07-.15,8.11-.41,12.12l-87.62,39.04-37.08-58.57-43.37-177.3c.57.05,1.14.1,1.71.15l60.91,138.29ZM309.11,102.04c81.21,12.43,145.24,77.72,155.78,159.53l-98.37-29.19-57.41-130.34ZM477.44,285.41c0,2.38-.06,4.74-.14,7.1l-7.07,3.15c.18-3.4.28-6.82.28-10.25,0-4.63-.17-9.23-.5-13.8l7.07,2.1c.23,3.87.36,7.77.36,11.7ZM280.92,88.89c1.93,0,3.84.04,5.76.09l1.71,7c-2.48-.1-4.97-.16-7.47-.16-.54,0-1.09.02-1.63.02l1.58-6.95s.03,0,.05,0ZM280.92,99.9c2.84,0,5.67.07,8.48.2l44.31,181.13,37.33,58.96-23.09,44.93-63.96-39.91-62.53,40.68-21.9-42.13-1.39-.62,38.73-60.45,41.47-182.75c.85-.01,1.7-.03,2.56-.03ZM465.17,306.84c-4.33,37.42-19.83,71.48-43.08,98.75l-39.28-62.05,82.36-36.7ZM296.92,96.5l-1.03-4.2,1.88,4.27c-.28-.02-.57-.05-.85-.07ZM272.45,89.08l-1.59,7.01c-1.01.05-2.02.12-3.03.18l3.42-7.14c.4-.02.8-.03,1.2-.05ZM186.16,346.72l-41.37,64.57c-26.08-28.19-43.54-64.46-48.15-104.59l89.52,40.02ZM150.62,417.31l43.04-67.17,20.9,40.22-54.64,35.54c-3.2-2.76-6.3-5.63-9.31-8.6ZM218.35,397.65l37.16,71.51c-33.26-4.58-63.74-17.99-88.97-37.81l51.81-33.71ZM351.14,396.76l49.05,30.61c-24.09,20.27-53.39,34.54-85.58,40.47l36.53-71.08ZM354.89,389.47l21.21-41.26,40.34,63.73c-3.16,3.39-6.45,6.65-9.85,9.79l-51.7-32.26ZM414.97,419.46c1.28-1.28,2.53-2.58,3.77-3.89l3.77,5.96c-2.04,2.12-4.12,4.2-6.26,6.23l-6.01-3.75c1.59-1.49,3.17-3,4.72-4.55ZM428.24,415.31l-3.81-6.01c25.55-29.51,41.15-65.68,45.08-104.38l7.25-3.23c-3.57,43.37-21.29,82.79-48.51,113.63ZM502.53,281.26l-.64.29c0-.16,0-.32,0-.48l.65.19ZM476.38,264.98l-7.2-2.14c-4.96-42.1-23.77-81.06-54.2-111.49-29.54-29.54-67.12-48.12-107.81-53.72l-3.25-7.38c90.87,10.64,163,83.52,172.47,174.74ZM261.86,89.81l-3.51,7.34c-42.1,4.96-81.06,23.76-111.5,54.2-30.3,30.3-49.08,69.05-54.14,110.94l-7.21,2.19c9.82-92.3,83.79-165.71,176.35-174.66ZM59.95,280.77c0,.19,0,.38,0,.57l-.76-.34.77-.23ZM85.06,301.52l7.24,3.24c4.15,41.25,21.57,79.64,50.16,110.15l-3.81,5.94c-30.13-31.63-49.84-73.26-53.6-119.34ZM156.83,437.67l6.02-3.92c27.45,21.93,60.12,35.64,94.97,39.85l3.83,7.38c-39.52-3.86-75.65-19.48-104.83-43.31ZM284.84,507.89l-.78-1.5c.52,0,1.04,0,1.56-.02l-.78,1.52ZM308.36,480l3.9-7.58c33.84-5.6,65.36-20.24,91.66-42.73l6.07,3.79c-28.03,24.47-63.05,41.11-101.63,46.53Z"/>
    <path class="uuid-083ad575-10ac-4bd3-b42c-e7df14a6c990" d="M286.05,314.89c16.19,0,29.37-13.17,29.37-29.37s-13.17-29.37-29.37-29.37-29.37,13.17-29.37,29.37,13.17,29.37,29.37,29.37ZM286.05,264.32c11.69,0,21.2,9.51,21.2,21.2s-9.51,21.2-21.2,21.2-21.2-9.51-21.2-21.2,9.51-21.2,21.2-21.2Z"/>
    <path class="uuid-083ad575-10ac-4bd3-b42c-e7df14a6c990" d="M286.05,378.09c-19.46,0-35.3,15.83-35.3,35.3s15.83,35.3,35.3,35.3,35.3-15.83,35.3-35.3-15.83-35.3-35.3-35.3ZM286.05,440.51c-14.96,0-27.13-12.17-27.13-27.13s12.17-27.13,27.13-27.13,27.13,12.17,27.13,27.13-12.17,27.13-27.13,27.13Z"/>
    <path class="uuid-083ad575-10ac-4bd3-b42c-e7df14a6c990" d="M394.11,314.89c16.19,0,29.37-13.17,29.37-29.37s-13.17-29.37-29.37-29.37-29.37,13.17-29.37,29.37,13.17,29.37,29.37,29.37ZM394.11,264.32c11.69,0,21.2,9.51,21.2,21.2s-9.51,21.2-21.2,21.2-21.2-9.51-21.2-21.2,9.51-21.2,21.2-21.2Z"/>
    <path class="uuid-083ad575-10ac-4bd3-b42c-e7df14a6c990" d="M205.15,285.52c0-16.19-13.17-29.37-29.37-29.37s-29.37,13.17-29.37,29.37,13.17,29.37,29.37,29.37,29.37-13.17,29.37-29.37ZM154.58,285.52c0-11.69,9.51-21.2,21.2-21.2s21.2,9.51,21.2,21.2-9.51,21.2-21.2,21.2-21.2-9.51-21.2-21.2Z"/>
  </g>
</svg>