<?xml version="1.0" encoding="UTF-8"?>
<svg id="Capa_1" xmlns="http://www.w3.org/2000/svg" version="1.1" viewBox="0 0 566.9 566.9">
  <!-- Generator: Adobe Illustrator 29.0.1, SVG Export Plug-In . SVG Version: 2.1.0 Build 192)  -->
  <defs>
    <style>
      .st0 {
        fill: #1c1411;
      }

      .st1 {
        fill: #f6f6f6;
      }

      .st2 {
        fill: #fff;
      }

      .st3 {
        isolation: isolate;
      }

      .st4, .st5 {
        fill: #ef781b;
      }

      .st6 {
        fill: #1d1d1b;
      }

      .st5 {
        stroke: #fff;
        stroke-miterlimit: 10;
        stroke-width: 2px;
      }
    </style>
  </defs>
  <g>
    <path class="st6" d="M283.5,13.6c149,0,269.8,120.8,269.8,269.8s-120.8,269.8-269.8,269.8S13.6,432.5,13.6,283.5,134.4,13.6,283.5,13.6Z"/>
    <path class="st0" d="M535.1,162.4c2,4.1,3.8,8.2,5.6,12.4-1.8-4.2-3.6-8.3-5.6-12.4Z"/>
    <path class="st0" d="M55.8,121.8c3.9-5.5,8-10.8,12.3-16-4.3,5.2-8.3,10.5-12.3,16Z"/>
    <path class="st0" d="M480.9,86c6.3,6.3,12.3,12.9,18,19.8-5.7-6.9-11.7-13.5-18-19.8Z"/>
    <path class="st0" d="M548,193.9c1.5,4.3,2.8,8.7,4.1,13.1-1.2-4.4-2.6-8.8-4.1-13.1Z"/>
    <path class="st0" d="M283.5,4.2h0c36.1,0,70.7,6.9,102.4,19.4-31.7-12.5-66.2-19.4-102.4-19.4Z"/>
    <path class="st0" d="M498.9,105.9c4.3,5.2,8.4,10.5,12.2,16-3.9-5.5-8-10.8-12.2-16Z"/>
    <path class="st0" d="M518.7,133c6,9.4,11.5,19.3,16.5,29.4-4.9-10.2-10.4-20-16.5-29.4Z"/>
    <path class="st0" d="M41.2,144.5c1.5-2.7,3.2-5.4,4.8-8-1.6,2.6-3.2,5.3-4.8,8Z"/>
    <path class="st0" d="M95.7,76.8c2.6-2.3,5.2-4.6,7.8-6.8-2.6,2.2-5.2,4.5-7.8,6.8Z"/>
    <path class="st0" d="M133,48.2c5.7-3.6,11.5-7.1,17.4-10.3-5.9,3.2-11.7,6.7-17.4,10.3Z"/>
    <path class="st0" d="M165.3,30.4c2.2-1,4.5-2.1,6.8-3.1-2.3,1-4.5,2-6.8,3.1Z"/>
    <path class="st0" d="M68,105.9c4.3-5.2,8.7-10.2,13.3-15-4.6,4.8-9.1,9.9-13.3,15Z"/>
    <path class="st0" d="M31.8,162.4c2.9-6.1,6.1-12.1,9.5-17.9-3.4,5.9-6.5,11.8-9.5,17.9Z"/>
    <path class="st0" d="M86,86c3.2-3.2,6.4-6.2,9.7-9.2-3.3,3-6.5,6.1-9.7,9.2Z"/>
    <path class="st0" d="M490.1,471.2c-3,3.3-6.1,6.5-9.2,9.7,3.2-3.2,6.2-6.4,9.2-9.7Z"/>
    <path class="st0" d="M439.6,515c-5.6,3.8-11.3,7.3-17.1,10.7,5.9-3.4,11.6-6.9,17.1-10.7Z"/>
    <path class="st0" d="M461.1,498.9c-5.2,4.3-10.5,8.4-16,12.2,5.5-3.9,10.8-8,16-12.2Z"/>
    <path class="st0" d="M476.1,485.6c-4.9,4.6-9.9,9.1-15,13.3,5.2-4.3,10.2-8.7,15-13.3Z"/>
    <path class="st0" d="M398.4,538c-4.1,1.9-8.3,3.6-12.5,5.3,4.2-1.7,8.4-3.4,12.5-5.3Z"/>
    <path class="st0" d="M14.8,207c1.2-4.4,2.6-8.8,4.1-13.1-1.5,4.3-2.8,8.7-4.1,13.1Z"/>
    <path class="st0" d="M385.8,23.6c19,7.5,37,17,53.7,28.3-16.7-11.3-34.7-20.8-53.7-28.3Z"/>
    <path class="st0" d="M283.5,562.7c36.1,0,70.7-6.9,102.4-19.4-31.7,12.5-66.2,19.4-102.4,19.4h0Z"/>
    <path class="st0" d="M422.4,525.7c-7.8,4.5-15.8,8.6-24.1,12.3,8.2-3.7,16.3-7.8,24.1-12.3Z"/>
    <path class="st0" d="M445.1,55.8c5.5,3.9,10.8,8,16,12.3-5.2-4.3-10.5-8.3-16-12.3Z"/>
    <path class="st0" d="M461.1,68c6.9,5.7,13.5,11.7,19.8,18-6.3-6.3-12.9-12.3-19.8-18Z"/>
    <path class="st0" d="M498.9,461.1c-2.9,3.5-5.8,6.8-8.8,10.1,3-3.3,5.9-6.7,8.8-10.1Z"/>
    <path class="st0" d="M540.7,392.1c-1.8,4.2-3.6,8.3-5.6,12.4,2-4.1,3.8-8.2,5.6-12.4Z"/>
    <path class="st0" d="M511.2,445.1c-2.6,3.6-5.3,7.2-8,10.8,2.8-3.5,5.4-7.1,8-10.8Z"/>
    <path class="st0" d="M532.1,410.6c-4.1,8-8.6,15.8-13.4,23.4,4.8-7.5,9.3-15.4,13.4-23.4Z"/>
    <path class="st4" d="M552.1,207c-1.2-4.4-2.6-8.8-4.1-13.1-2.2-6.5-4.6-12.9-7.3-19.1-1.8-4.2-3.6-8.3-5.6-12.4-4.9-10.2-10.4-20-16.5-29.4-2.4-3.8-4.9-7.5-7.5-11.1-3.9-5.5-8-10.8-12.2-16-5.7-6.9-11.7-13.5-18-19.8-6.3-6.3-12.9-12.3-19.8-18-5.2-4.3-10.5-8.3-16-12.2-1.8-1.3-3.7-2.6-5.5-3.8-16.7-11.3-34.7-20.8-53.7-28.3-31.7-12.5-66.2-19.4-102.4-19.4h0c-39.6,0-77.3,8.3-111.4,23.1-2.3,1-4.5,2-6.8,3.1-3,1.4-6,2.8-8.9,4.4-2,1-4,2.1-6,3.2-5.9,3.2-11.7,6.7-17.4,10.3-5.7,3.6-11.2,7.5-16.6,11.5-1.8,1.3-3.6,2.7-5.3,4.1-2.6,2-5.1,4.1-7.6,6.2-2.6,2.2-5.2,4.5-7.8,6.8-3.3,3-6.5,6.1-9.7,9.2-1.6,1.6-3.1,3.2-4.7,4.8-4.6,4.8-9.1,9.9-13.3,15-4.3,5.2-8.3,10.5-12.2,16-3.4,4.8-6.6,9.7-9.7,14.7-1.6,2.6-3.2,5.3-4.8,8-3.4,5.9-6.5,11.8-9.5,17.9-4.9,10.2-9.2,20.7-12.9,31.5-1.5,4.3-2.8,8.7-4.1,13.1-6.9,24.3-10.6,49.9-10.6,76.4,0,53,14.8,102.6,40.4,144.8,3.5,5.8,7.2,11.4,11.1,16.9,9.1,12.8,19.2,24.8,30.3,35.8,3.2,3.2,6.4,6.2,9.7,9.2,1.7,1.5,3.3,3,5,4.5,3.4,2.9,6.8,5.8,10.3,8.5,1.8,1.4,3.5,2.7,5.3,4.1,5.4,4,10.9,7.8,16.6,11.5,1.9,1.2,3.8,2.4,5.7,3.6,3.8,2.3,7.7,4.6,11.7,6.7,2,1.1,4,2.1,6,3.2,38.1,19.5,81.3,30.5,127.1,30.5h0c36.1,0,70.7-6.9,102.4-19.4,4.2-1.7,8.4-3.4,12.5-5.3,8.2-3.7,16.3-7.8,24.1-12.3,5.9-3.4,11.6-6.9,17.1-10.7,1.9-1.2,3.7-2.5,5.5-3.8,5.5-3.9,10.8-8,16-12.2s10.2-8.7,15-13.3c1.6-1.5,3.2-3.1,4.8-4.7,3.2-3.2,6.2-6.4,9.2-9.7s5.9-6.7,8.8-10.1c1.4-1.7,2.8-3.5,4.2-5.2,2.8-3.5,5.4-7.1,8-10.8,2.6-3.6,5.1-7.4,7.5-11.1,4.8-7.5,9.3-15.4,13.4-23.4,1-2,2-4,3-6.1,2-4.1,3.8-8.2,5.6-12.4,14.1-33.4,21.9-70.1,21.9-108.7s-3.7-52.1-10.6-76.4h0ZM283.5,553.3c-149,0-269.8-120.8-269.8-269.8S134.4,13.6,283.5,13.6s269.8,120.8,269.8,269.8-120.8,269.8-269.8,269.8h0Z"/>
  </g>
  <g class="st3">
    <g class="st3">
      <path class="st2" d="M77,175.3l-7.1,15.4c-2.3,4.9-5.5,7.2-8.1,6l-3.4-1.6c-2.7-1.2-3-5.1-.7-10.1l.5-1.1c1.5-3.2,2.1-4.5,2.9-5.9h0c-1,.9-2,2-5.6,5.4l-5.7,5.4c-.5.5-1,.6-1.6.3-1-.5-1-1.2-.4-2.5.2-.5.8-1.6,1.4-2l14.3-12.8-6-2.8c-1-.5-1-1.2-.4-2.4.5-1.2,1.1-1.7,2.1-1.2l17.4,8c.8.4,1.1,1,.7,1.9ZM73,176.3l-6.4-3-5.8,12.7c-1.7,3.7-1.4,5.1-.4,5.6l3,1.4c1,.5,2.2-.2,3.9-3.9l5.8-12.7Z"/>
    </g>
  </g>
  <g class="st3">
    <g class="st3">
      <path class="st2" d="M59.9,215.2l-21.8,6.9c-.3,0-.5,0-.7,0-.9-.3-1.2-1.6-.9-2.6.2-.5.5-.9,1-1.1l6-1.8,5-16-3.9-4.7c-.3-.4-.3-.9-.2-1.4.3-.9,1.3-1.9,2.2-1.6.2,0,.4.2.6.4l14.1,17.4c.5.6.7,1.4.3,2.6-.4,1.1-.9,1.7-1.7,1.9ZM51,203.6l-3.7,11.9,10.8-3.3-7.1-8.6Z"/>
    </g>
  </g>
  <g class="st3">
    <g class="st3">
      <path class="st2" d="M56.5,230.3l-3,16.8c-1,5.4-3.5,8.4-6.4,7.8l-4.3-.8c-2.9-.5-4.2-4.2-3.2-9.6l2.6-14.2-6.3-1.1c-1.1-.2-1.3-.9-1-2.2.2-1.3.6-1.9,1.7-1.7l18.8,3.4c.9.2,1.3.7,1.1,1.6ZM52.8,232.3l-7.5-1.3-2.5,13.9c-.7,4,0,5.3,1,5.5l3.7.7c1.1.2,2.1-.8,2.8-4.8l2.5-13.9Z"/>
    </g>
  </g>
  <g class="st3">
    <g class="st3">
      <path class="st2" d="M31.3,259.4c-1.1-.1-1.3-.8-1.2-2.1.1-1.3.5-1.9,1.6-1.8l19.1,2c1.1.1,1.3.8,1.2,2.1-.1,1.3-.5,2-1.6,1.9l-19.1-2Z"/>
    </g>
  </g>
  <g class="st3">
    <g class="st3">
      <path class="st2" d="M34.2,290.6c-3.7,0-5.5-3.1-5.4-9l.4-17.1c0-.9.5-1.4,1.4-1.3l19,.5c.9,0,1.4.5,1.3,1.4l-.4,17.1c-.2,6-2.1,8.9-5.8,8.8l-10.6-.3ZM32.5,267.2l-.4,14.3c0,3.5.9,5.1,2.2,5.1l10.6.3c1.3,0,2.4-1.5,2.5-5l.4-14.3-15.3-.4Z"/>
    </g>
  </g>
  <g class="st3">
    <g class="st3">
      <path class="st2" d="M38.8,331.3c-3.8.5-6-2.3-6.8-8.1l-1.3-9c-.8-5.9.6-9.1,4.3-9.6l10.5-1.5c3.7-.5,6,2.2,6.8,8l.6,4.2c.1,1-.4,1.2-1.4,1.4-1.1.2-1.6,0-1.8-.9l-.6-4.1c-.5-3.5-1.7-4.9-3-4.7l-10.5,1.5c-1.3.2-2.1,1.8-1.6,5.3l1.2,8.8c.5,3.5,1.7,4.8,3,4.6l5.3-.7c1.2-.2,1.5.5,1.7,1.8s0,2.1-1.1,2.2l-5.3.7Z"/>
    </g>
  </g>
  <g class="st3">
    <g class="st3">
      <path class="st2" d="M55.5,331.9l4.4,16.3c1.4,5.3.4,9-2.4,9.8l-3.7,1c-2.8.8-5.6-2-7-7.3l-.3-1.2c-.9-3.4-1.3-4.8-1.6-6.4h0c-.1,1.4-.2,2.8-.8,7.7l-.9,7.8c0,.7-.4,1.1-1.1,1.3-1,.3-1.6-.3-1.9-1.6-.1-.6-.4-1.7-.2-2.4l2.8-19-6.4,1.7c-1.1.3-1.5-.3-1.9-1.6-.3-1.3-.3-2,.9-2.3l18.5-4.9c.9-.2,1.5,0,1.7,1ZM53.1,335.2l-6.9,1.8,3.6,13.5c1.1,4,2.2,4.8,3.2,4.6l3.1-.8c1-.3,1.6-1.6.5-5.6l-3.6-13.5Z"/>
    </g>
  </g>
  <g class="st3">
    <g class="st3">
      <path class="st2" d="M45.6,374.3c-2.2-5.5-1.6-9,1.9-10.3l9.9-4c3.5-1.4,6.3.7,8.5,6.2l3.3,8.1c2.2,5.5,1.6,9-1.9,10.3l-9.9,4c-3.5,1.4-6.3-.7-8.5-6.2l-3.3-8.1ZM55.9,384.9l9.9-4c1.2-.5,1.6-2.3.3-5.6l-3.2-7.9c-1.3-3.3-2.8-4.3-4.1-3.8l-9.9,4c-1.2.5-1.6,2.3-.3,5.6l3.2,7.9c1.3,3.3,2.9,4.3,4.1,3.8Z"/>
    </g>
  </g>
  <g class="st3">
    <g class="st3">
      <path class="st2" d="M58.2,402.2c-2.9-5.2-2.7-8.7.6-10.5l13.1-7.2c1-.6,1.6,0,2.2,1.1.6,1.2.7,1.9-.3,2.4l-13.1,7.2c-1.1.6-1.3,2.4.4,5.5l4.3,7.9c1.7,3.1,3.3,3.9,4.5,3.3l13.1-7.2c1-.6,1.6,0,2.2,1.1.6,1.1.7,1.9-.3,2.4l-13.1,7.2c-3.3,1.8-6.3,0-9.2-5.1l-4.5-8.1Z"/>
    </g>
  </g>
  <g class="st3">
    <g class="st3">
      <path class="st2" d="M83.4,439.7l1.8-24.4-12.5,9c-.9.7-1.6.3-2.3-.8-.8-1-.9-1.8,0-2.4l15.6-11.3c.9-.7,1.5-.3,2.3.7.8,1.1.8,1.7.8,2.9l-1.9,24.2,12.5-9c.9-.7,1.6-.3,2.3.8.8,1.1,1,1.8,0,2.5l-15.6,11.3c-1,.7-1.6.3-2.4-.9-.6-.9-.7-1.2-.6-2.5Z"/>
    </g>
  </g>
  <g class="st3">
    <g class="st3">
      <path class="st2" d="M110.9,463.4c-2.7,2.5-6.1,1.7-10.2-2.7l-11.7-12.5c-.6-.7-.6-1.3,0-2l13.9-13c.7-.6,1.3-.6,2,0l11.7,12.5c4.1,4.4,4.7,7.8,2,10.3l-7.8,7.3ZM93.2,448l9.8,10.5c2.4,2.6,4.2,3,5.2,2.1l7.8-7.3c1-.9.6-2.7-1.8-5.3l-9.8-10.5-11.2,10.5Z"/>
    </g>
  </g>
  <g class="st3">
    <g class="st3">
      <path class="st2" d="M143.7,470.7l-.8,22.8c0,.3-.1.5-.3.7-.5.7-1.9.6-2.7,0-.4-.3-.7-.8-.7-1.3l.3-6.3-13.3-10.1-5.8,2.1c-.5.2-1,0-1.4-.3-.8-.6-1.3-1.9-.7-2.6.1-.2.3-.3.6-.4l21.1-7.5c.8-.3,1.6-.1,2.5.6.9.7,1.2,1.4,1.2,2.3ZM129.8,475.2l9.9,7.5.6-11.3-10.5,3.8Z"/>
    </g>
  </g>
  <g class="st3">
    <g class="st3">
      <path class="st2" d="M160.1,484.6l-9.2,14.6c-.6,1-1.3.8-2.5.1-1.1-.7-1.5-1.3-.9-2.3l9.2-14.6-7.7-4.8c-.8-.5-.7-1.1-.1-2s1-1.3,1.9-.8l18.8,11.7c.8.5.7,1.1.1,2-.6.9-1,1.3-1.9.8l-7.7-4.8Z"/>
    </g>
  </g>
  <g class="st3">
    <g class="st3">
      <path class="st2" d="M182.3,496.6l-7.6,15.5c-.5,1-1.2,1-2.4.4-1.2-.6-1.7-1.1-1.2-2.1l7.6-15.5-8.1-4c-.9-.4-.8-1-.3-2,.5-1,.9-1.4,1.8-.9l19.9,9.7c.9.4.8,1,.3,2-.5,1-.9,1.4-1.8.9l-8.2-4Z"/>
    </g>
  </g>
  <g class="st3">
    <g class="st3">
      <path class="st2" d="M202.8,502.8l5.7,22.1c0,.3,0,.5,0,.7-.3.8-1.7,1.1-2.6.7-.5-.2-.9-.5-1-1l-1.5-6.1-15.6-5.9-5,3.7c-.4.3-.9.3-1.4.1-.9-.4-1.8-1.4-1.5-2.3,0-.2.2-.4.4-.5l18.2-13.1c.7-.5,1.5-.6,2.6-.1,1.1.4,1.6,1,1.8,1.8ZM190.8,511l11.6,4.4-2.7-11-9,6.6Z"/>
    </g>
  </g>
  <g class="st3">
    <g class="st3">
      <path class="st2" d="M218.6,529.6c-5.8-1.4-8.2-4-7.3-7.6l2.6-10.3c.9-3.6,4.2-4.7,10-3.3l14.3,3.6c.9.2,1,.8.7,1.9s-.6,1.5-1.5,1.3l-14.2-3.5c-3.4-.9-5.2-.2-5.5,1.1l-2.6,10.3c-.3,1.3.9,2.6,4.3,3.5l14.2,3.5c.9.2,1,.8.7,1.9-.3,1-.6,1.5-1.5,1.3l-14.3-3.6Z"/>
    </g>
  </g>
  <g class="st3">
    <g class="st3">
      <path class="st2" d="M243.6,521.9l16.8-6.4c.6-.2,1.1-.3,2.5,0,.9.1,1.6.7,1.4,1.6,0,.6-.4,1-1.1,1.2l-17,5.9,15.4,10.5c.6.4.8.9.8,1.5-.1.9-.9,1.3-1.8,1.2-1.3-.2-1.8-.4-2.4-.7l-15.1-10.8-1,7.6c-.2,1.1-.9,1.3-2.2,1.1-1.3-.2-1.9-.5-1.8-1.7l2.5-19.1c.2-1.1.9-1.3,2.2-1.1,1.3.2,2,.5,1.8,1.7l-1,7.5Z"/>
    </g>
  </g>
  <g class="st3">
    <g class="st3">
      <path class="st2" d="M285.3,538c-5.9.2-9-1.6-9-5.4l-.3-10.6c0-3.8,2.8-5.7,8.8-5.8l8.8-.2c5.9-.2,9,1.6,9,5.4l.3,10.6c0,3.7-2.8,5.7-8.8,5.8l-8.8.2ZM298.8,532.1l-.3-10.6c0-1.3-1.6-2.3-5.1-2.2l-8.5.2c-3.5,0-5,1.1-5,2.5l.3,10.6c0,1.3,1.6,2.3,5.1,2.2l8.5-.2c3.5,0,5-1.2,5-2.5Z"/>
    </g>
  </g>
  <g class="st3">
    <g class="st3">
      <path class="st2" d="M305.4,515.4l16.9-2.5c5.4-.8,9,.6,9.5,3.5l.6,4.3c.4,2.9-2.7,5.3-8,6.1l-14.3,2.1.9,6.3c.2,1.1-.5,1.5-1.8,1.7-1.3.2-2,0-2.2-1.1l-2.8-18.9c-.1-.9.2-1.4,1.2-1.6ZM308.4,518.2l1.1,7.5,14-2.1c4-.6,5.1-1.6,4.9-2.7l-.5-3.7c-.2-1.1-1.4-1.7-5.5-1.1l-14,2.1Z"/>
    </g>
  </g>
  <g class="st3">
    <g class="st3">
      <path class="st2" d="M339.1,522.6l.9,3.4c.3,1.2,2.1,1.9,5.5,1l13.9-3.7c.9-.2,1.3.2,1.6,1.3.3,1,.2,1.6-.7,1.9l-14,3.8c-5.7,1.5-9.1.5-10.1-3.1l-2.8-10.3c-1-3.6,1.4-6.2,7.2-7.7l4.3-1.2c.9-.2,1.2.2,1.5,1.3.3,1,.2,1.6-.7,1.9l-4.2,1.1c-3.4.9-4.6,2.3-4.3,3.6l1,3.7,18.9-5.1c.9-.2,1.3.2,1.6,1.3.3,1,.2,1.6-.7,1.9l-18.9,5.1Z"/>
    </g>
  </g>
  <g class="st3">
    <g class="st3">
      <path class="st2" d="M358.5,504l15.7-6.2c5.1-2,8.9-1.5,10,1.3l1.4,3.5c1.1,2.7-1.4,5.8-6.4,7.8l-1.1.4c-3.3,1.3-4.7,1.8-6.1,2.3h0c1.4,0,2.8,0,7.8,0h7.8c.7,0,1.2.3,1.4.9.4,1-.1,1.6-1.4,2.1-.5.2-1.6.6-2.4.5l-19.2-.6,2.4,6.2c.4,1.1-.1,1.6-1.3,2.1-1.2.5-1.9.5-2.4-.6l-7.1-17.8c-.3-.9,0-1.5.8-1.8ZM362.1,506.1l2.6,6.6,13-5.2c3.8-1.5,4.6-2.7,4.2-3.7l-1.2-3c-.4-1-1.8-1.4-5.6.1l-13,5.2Z"/>
    </g>
  </g>
  <g class="st3">
    <g class="st3">
      <path class="st2" d="M398.4,486.9l20.5,10c.2.1.4.3.5.5.4.8-.3,2-1.2,2.5-.5.3-1,.3-1.4.1l-5.6-2.8-14.6,8.1-.4,6.1c0,.5-.4.9-.8,1.2-.9.5-2.2.4-2.7-.4-.1-.2-.1-.4-.1-.7l1.7-22.3c0-.8.5-1.5,1.6-2.1,1-.6,1.8-.6,2.6-.2ZM396.9,501.5l10.9-6-10.1-5.1-.8,11.1Z"/>
    </g>
  </g>
  <g class="st3">
    <g class="st3">
      <path class="st2" d="M417.7,477.5l9.7,14.3c.6.9.2,1.6-.9,2.3-1.1.7-1.8.9-2.4,0l-9.7-14.3-7.5,5.1c-.8.5-1.3.2-1.9-.7-.6-.9-.7-1.5,0-2l18.3-12.4c.8-.5,1.3-.2,1.9.7s.7,1.5,0,2l-7.5,5.1Z"/>
    </g>
  </g>
  <g class="st3">
    <g class="st3">
      <path class="st2" d="M441,481.8c.7.9.3,1.5-.7,2.4-1,.8-1.7,1-2.4.1l-11.8-15.2c-.7-.9-.3-1.5.7-2.3,1-.8,1.8-1,2.5-.1l11.8,15.2Z"/>
    </g>
  </g>
  <g class="st3">
    <g class="st3">
      <path class="st2" d="M451.3,474.9c-4.4,4-7.8,4.6-10.4,1.8l-7.1-7.9c-2.5-2.8-1.6-6.1,2.8-10.1l6.5-5.9c4.4-4,7.8-4.6,10.4-1.8l7.1,7.9c2.5,2.8,1.6,6.1-2.8,10.1l-6.5,5.9ZM457.7,461.5l-7.1-7.9c-.9-1-2.7-.7-5.3,1.7l-6.3,5.7c-2.6,2.4-3.1,4.2-2.2,5.1l7.1,7.9c.9,1,2.7.7,5.3-1.7l6.3-5.7c2.6-2.4,3-4.2,2.2-5.1Z"/>
    </g>
  </g>
  <g class="st3">
    <g class="st3">
      <path class="st2" d="M481.5,442.2l-24.2,3.9,11.7,10c.9.7.6,1.4-.2,2.5-.8,1-1.5,1.3-2.4.6l-14.6-12.5c-.8-.7-.6-1.4.2-2.4.9-1,1.5-1.2,2.7-1.4l23.9-3.7-11.7-10c-.9-.7-.6-1.4.2-2.4.9-1,1.5-1.4,2.4-.6l14.6,12.5c.9.8.6,1.4-.3,2.5-.7.8-1,.9-2.3,1.1Z"/>
    </g>
  </g>
  <g class="st3">
    <g class="st3">
      <path class="st2" d="M484.6,423.5c-3.3,4.9-6.5,6.3-9.6,4.2l-1-.7c-3.1-2.1-3-5.6.4-10.5l1.7-2.5c.5-.8,1.1-.7,2,0,.9.6,1.2,1.1.7,1.9l-1.7,2.6c-2,2.9-1.9,4.6-.8,5.3l1,.7c1.1.7,2.7.2,4.7-2.7l4-5.9c3.3-4.9,6.5-6.3,9.6-4.2l1.2.8c3.1,2.1,3,5.6-.4,10.5l-8.3,12.2c-.5.8-1.1.7-2,0-.9-.6-1.2-1.1-.7-1.9l8.3-12.3c2-2.9,1.9-4.6.8-5.3l-1.2-.8c-1.1-.7-2.7-.2-4.7,2.7l-4,5.9Z"/>
    </g>
  </g>
  <g class="st3">
    <g class="st3">
      <path class="st2" d="M503.7,391c-2.5,5.4-5.5,7.3-8.9,5.7l-1.1-.5c-3.4-1.6-3.8-5.1-1.3-10.4l1.3-2.7c.4-.9,1-.8,2-.4,1,.5,1.4.9,1,1.8l-1.3,2.8c-1.5,3.2-1.1,4.8,0,5.4l1.1.5c1.2.6,2.7-.2,4.2-3.4l3-6.4c2.5-5.4,5.5-7.3,8.9-5.7l1.4.6c3.4,1.6,3.8,5.1,1.3,10.4l-6.3,13.3c-.4.9-1,.8-2,.4-1-.5-1.4-.9-1-1.8l6.3-13.4c1.5-3.2,1.1-4.8,0-5.4l-1.4-.6c-1.2-.6-2.7.2-4.2,3.4l-3,6.4Z"/>
    </g>
  </g>
  <g class="st3">
    <g class="st3">
      <path class="st2" d="M527.1,354.8l1.6-1.5c.6-.5,1-.7,1.6-.5.9.3,1.1,1,.6,2.4-.2.7-.6,1.3-1,1.8l-3.9,3.5-2.8,8.4c-1.9,5.6-4.6,7.8-8.1,6.7l-10-3.4c-3.6-1.2-4.4-4.6-2.5-10.2l3-8.9c1.9-5.6,4.6-7.9,8.1-6.7l10,3.4c2.2.7,3.3,2.5,3.4,5ZM522.5,353.6l-10.1-3.4c-1.3-.4-2.7.7-3.8,4l-2.9,8.6c-1.1,3.3-.6,5.1.6,5.5l10.1,3.4c1.2.4,2.7-.7,3.8-4l2.9-8.6c1.2-3.7.6-5.1-.6-5.5Z"/>
    </g>
  </g>
  <g class="st3">
    <g class="st3">
      <path class="st2" d="M531.9,338.9c-1.2,5.8-3.6,8.4-7.3,7.6l-14.6-3c-1.1-.2-1.2-1-1-2.2.3-1.3.7-1.9,1.8-1.7l14.6,3c1.3.3,2.6-1,3.3-4.5l1.8-8.8c.7-3.4,0-5.1-1.3-5.4l-14.6-3c-1.1-.2-1.2-1-1-2.3.3-1.3.7-1.9,1.8-1.7l14.6,3c3.7.7,4.9,4,3.7,9.8l-1.9,9.1Z"/>
    </g>
  </g>
  <g class="st3">
    <g class="st3">
      <path class="st2" d="M516.6,299.8l19.7-11.6c.3-.1.5-.2.7-.2.9,0,1.5,1.3,1.4,2.3,0,.5-.3,1-.7,1.3l-5.4,3.1-1.3,16.7,4.9,3.7c.4.3.5.8.5,1.3,0,1-.9,2.1-1.8,2-.2,0-.4-.1-.6-.3l-17.7-13.7c-.6-.5-1-1.3-.9-2.5,0-1.2.5-1.8,1.2-2.3ZM527.9,309.1l1-12.4-9.8,5.6,8.9,6.8Z"/>
    </g>
  </g>
  <g class="st3">
    <g class="st3">
      <path class="st2" d="M531.4,257.6c3.7-.2,5.7,2.7,6,8.6l.8,17c0,.9-.4,1.4-1.3,1.5l-19,.9c-.9,0-1.4-.4-1.5-1.3l-.8-17c-.3-6,1.4-9,5.1-9.2l10.6-.5ZM534.9,280.8l-.7-14.3c-.2-3.5-1.3-5-2.6-5l-10.6.5c-1.3,0-2.3,1.7-2.1,5.2l.7,14.3,15.3-.8Z"/>
    </g>
  </g>
  <g class="st3">
    <g class="st3">
      <path class="st2" d="M514.8,255.5l-2.9-16.7c-.9-5.4.4-9,3.3-9.6l3.7-.6c2.9-.5,5.4,2.5,6.3,7.9l.2,1.2c.6,3.5.8,4.9,1,6.5h0c.3-1.4.5-2.8,1.5-7.6l1.6-7.6c.1-.7.5-1.1,1.2-1.2,1.1-.2,1.5.5,1.7,1.8,0,.6.2,1.7,0,2.4l-4.5,18.6,6.5-1.1c1.1-.2,1.5.4,1.7,1.7.2,1.3,0,2-1.1,2.2l-18.9,3.3c-.9.2-1.4-.2-1.6-1.2ZM517.5,252.4l7-1.2-2.4-13.8c-.7-4-1.7-5-2.8-4.8l-3.2.6c-1.1.2-1.7,1.5-1,5.5l2.4,13.8Z"/>
    </g>
  </g>
  <g class="st3">
    <g class="st3">
      <path class="st2" d="M528.4,214.1c1.7,5.7.8,9.1-2.8,10.1l-10.2,3.1c-3.6,1.1-6.2-1.2-7.9-6.9l-2.5-8.4c-1.7-5.7-.8-9.1,2.8-10.1l10.2-3.1c3.6-1.1,6.2,1.2,7.9,6.9l2.5,8.4ZM519.1,202.6l-10.2,3.1c-1.3.4-1.8,2.1-.8,5.5l2.5,8.2c1,3.4,2.4,4.5,3.7,4.2l10.2-3.1c1.2-.4,1.8-2.1.8-5.5l-2.5-8.2c-1-3.4-2.5-4.5-3.7-4.2Z"/>
    </g>
  </g>
  <g class="st3">
    <g class="st3">
      <path class="st2" d="M511.9,172.8l-6.9,23.5,14.1-6.2c1-.5,1.6,0,2.1,1.3.5,1.2.6,1.9-.5,2.4l-17.6,7.7c-1,.4-1.6,0-2.1-1.2-.5-1.2-.5-1.9-.1-3l7-23.2-14.1,6.2c-1,.5-1.6,0-2.1-1.2-.5-1.2-.6-2,.5-2.4l17.6-7.7c1.1-.5,1.6,0,2.1,1.3.4,1,.4,1.3,0,2.6Z"/>
    </g>
  </g>
  <g class="st3">
    <g class="st3">
      <path class="st2" d="M214.2,54.8c1.3,3.6-1,6.3-6.4,8.4l-8.5,3.2c-5.6,2.1-9,1.4-10.3-2.1l-3.7-9.9c-1.3-3.5.8-6.3,6.4-8.4l4-1.5c.9-.3,1.3,0,1.7,1.1.4,1,.4,1.6-.5,1.9l-3.9,1.4c-3.3,1.2-4.4,2.7-3.9,4l3.7,9.9c.5,1.2,2.3,1.7,5.6.4l8.3-3.1c3.3-1.2,4.3-2.7,3.9-4l-1.9-5c-.4-1.1.1-1.6,1.4-2,1.2-.5,2-.5,2.4.6l1.9,5Z"/>
    </g>
  </g>
  <g class="st3">
    <g class="st3">
      <path class="st2" d="M226.4,57.6c-5.8,1.4-9.1.2-9.9-3.4l-2.4-10.3c-.9-3.7,1.6-6.1,7.4-7.5l8.5-2c5.8-1.4,9.1-.2,9.9,3.4l2.4,10.3c.8,3.6-1.6,6.1-7.4,7.5l-8.5,2ZM238.5,49.1l-2.4-10.3c-.3-1.3-2-1.9-5.5-1.1l-8.3,1.9c-3.4.8-4.7,2.1-4.4,3.4l2.4,10.3c.3,1.3,2,1.9,5.5,1.1l8.3-1.9c3.4-.8,4.7-2.2,4.4-3.4Z"/>
    </g>
  </g>
  <g class="st3">
    <g class="st3">
      <path class="st2" d="M255.3,39.8c.9-.1,1.1.4,1.3,1.4s0,1.5-.9,1.6l-11.2,1.6c-.9.1-1.1-.4-1.3-1.3s0-1.5.9-1.7l11.2-1.6Z"/>
    </g>
  </g>
  <g class="st3">
    <g class="st3">
      <path class="st2" d="M259.7,29.6l17-.8c5.4-.3,8.9,1.5,9.1,4.5l.2,4.4c.1,2.9-3.2,5-8.6,5.3l-14.5.7.3,6.4c0,1.1-.6,1.4-1.9,1.5-1.3,0-2-.2-2.1-1.3l-.9-19.1c0-.9.4-1.4,1.3-1.4ZM262.4,32.7l.4,7.6,14.1-.7c4.1-.2,5.2-1.1,5.1-2.2l-.2-3.8c0-1.1-1.2-1.9-5.3-1.7l-14.1.7Z"/>
    </g>
  </g>
  <g class="st3">
    <g class="st3">
      <path class="st2" d="M296.9,50.9c-5.9-.5-8.7-2.5-8.4-6.3l.8-10.6c.3-3.8,3.4-5.4,9.3-4.9l8.7.7c5.9.5,8.7,2.5,8.4,6.3l-.8,10.6c-.3,3.7-3.4,5.4-9.3,4.9l-8.7-.7ZM311,46.4l.8-10.6c.1-1.3-1.3-2.5-4.9-2.7l-8.5-.7c-3.5-.3-5.1.6-5.2,2l-.8,10.6c0,1.3,1.3,2.5,4.9,2.7l8.5.7c3.5.3,5.1-.7,5.2-2Z"/>
    </g>
  </g>
  <g class="st3">
    <g class="st3">
      <path class="st2" d="M344.4,52.5c-.7,3.7-4,4.9-9.8,3.7l-16.7-3.4c-.9-.2-1.3-.7-1.1-1.7l3.8-18.6c.2-.9.7-1.3,1.6-1.1l16.7,3.4c5.8,1.2,8.4,3.6,7.6,7.3l-2.1,10.4ZM321,50.1l14,2.9c3.5.7,5.2,0,5.5-1.3l2.1-10.4c.3-1.3-1.1-2.6-4.5-3.3l-14-2.9-3.1,15Z"/>
    </g>
  </g>
  <g class="st3">
    <g class="st3">
      <path class="st2" d="M356.2,52.3c-5.6-1.9-7.9-4.6-6.7-8.1l.4-1.1c1.2-3.6,4.6-4.4,10.2-2.5l2.9.9c.9.3.9.9.6,1.9-.3,1-.7,1.5-1.6,1.2l-2.9-1c-3.3-1.1-4.9-.6-5.3.7l-.4,1.1c-.4,1.2.5,2.6,3.9,3.7l6.7,2.2c5.6,1.9,7.9,4.6,6.7,8.1l-.5,1.4c-1.2,3.6-4.6,4.4-10.2,2.5l-14-4.6c-.9-.3-.9-.9-.6-1.9s.7-1.5,1.6-1.2l14.1,4.7c3.3,1.1,4.9.6,5.3-.7l.5-1.4c.4-1.2-.5-2.6-3.9-3.7l-6.7-2.2Z"/>
    </g>
  </g>
  <g>
    <polygon class="st5" points="151.8 141.6 193.7 183.5 218.6 277.8 245.4 304.7 245.4 233.6 280.1 268.3 280.1 484.8 175.3 367 142.8 141.6 199.9 353.8 246.5 400.4 246.5 355 193.3 297.3 151.8 141.6"/>
    <polygon class="st1" points="306.7 145.9 283.5 82.1 260.2 145.9 203.9 168.4 260.2 194.3 283.5 257.1 306.7 194.3 363 168.4 306.7 145.9"/>
    <polygon class="st5" points="415.1 141.6 373.2 183.5 348.4 277.8 321.5 304.7 321.5 233.6 286.9 268.3 286.9 484.8 391.7 367 424.1 141.6 367 353.8 320.4 400.4 320.4 355 373.6 297.3 415.1 141.6"/>
  </g>
</svg>