<svg viewBox="0 0 566.93 566.93" xmlns="http://www.w3.org/2000/svg"><circle cx="283.46" cy="285.32" fill="#63140f" r="269.29"/><g fill="#ce6a14"><text font-family="Optimus-Bold, Optimus" font-size="39" font-weight="700" transform="matrix(.27804782 -1.26991709 1.3871402 .30371377 75.03 257.17)">D</text><text font-family="Optimus-Bold, Optimus" font-size="39" font-weight="700" transform="matrix(.50857697 -1.19639018 1.3068262 .55552253 84.17 218.64)">E</text><text font-family="Optimus-Bold, Optimus" font-size="39" font-weight="700" transform="matrix(.72 -1.08 1.18 .79 100.32 182.43)">S</text><text font-family="Optimus-Bold, Optimus" font-size="39" font-weight="700" transform="matrix(.86885763 -.96699867 1.05626008 .94905987 123.48 149.9)">I</text><text font-family="Optimus-Bold, Optimus" font-size="39" font-weight="700" transform="matrix(.99862333 -.83231691 .90914617 1.09080394 137.75 133.86)">G</text><text font-family="Optimus-Bold, Optimus" font-size="39" font-weight="700" transform="matrix(1.13612451 -.63183945 .69016309 1.24099754 168.61 109.04)">N</text><text font-family="Optimus-Bold, Optimus" font-size="39" font-weight="700" transform="matrix(1.24030871 -.38940251 .42534735 1.35479874 203.33 90.22)">A</text><text font-family="Optimus-Bold, Optimus" font-size="39" font-weight="700" transform="matrix(1.29309032 -.13385599 .14621192 1.4124525 247.21 77.61)">T</text><text font-family="Optimus-Bold, Optimus" font-size="39" font-weight="700" transform="matrix(1.3 .05 -.05 1.42 285.85 74.78)">I</text><text font-family="Optimus-Bold, Optimus" font-size="39" font-weight="700" transform="matrix(1.27789935 .2386907 -.26072369 1.39585929 307.31 75.5)">O</text><text font-family="Optimus-Bold, Optimus" font-size="39" font-weight="700" transform="matrix(1.20987517 .47560706 -.51950925 1.32155595 346.08 83.46)">N</text><text transform="matrix(1.11827103 .66292525 -.72411835 1.22149605 382.69 99.05)"/><text font-family="Optimus-Bold, Optimus" font-size="39" font-weight="700" transform="matrix(1 .83 -.91 1.09 406.28 113.23)">C</text><text font-family="Optimus-Bold, Optimus" font-size="39" font-weight="700" transform="matrix(.83388452 .9973147 -1.08937452 .91085848 435.47 138.21)">O</text><text font-family="Optimus-Bold, Optimus" font-size="39" font-weight="700" transform="matrix(.6356035 1.13402301 -1.23870206 .69427459 460.35 169.04)">D</text><text font-family="Optimus-Bold, Optimus" font-size="39" font-weight="700" transform="matrix(.41 1.23 -1.35 .45 479.1 203.91)">E</text><text font-family="Optimus-Bold, Optimus" font-size="39" font-weight="700" transform="matrix(.23288934 1.27896933 -1.39702804 .25438682 490.66 242.15)">:</text><text font-family="Optimus-Bold, Optimus" font-size="39" font-weight="700" transform="matrix(.42474 1.22865615 -1.34207056 .46394677 43.11 355.64)">G</text><text font-family="Optimus-Bold, Optimus" font-size="39" font-weight="700" transform="matrix(.6560818 1.12229973 -1.22589662 .7166432 59.36 398.71)">R</text><text font-family="Optimus-Bold, Optimus" font-size="39" font-weight="700" transform="matrix(.86 .98 -1.07 .94 84.68 439.21)">E</text><text font-family="Optimus-Bold, Optimus" font-size="39" font-weight="700" transform="matrix(.99 .85 -.92 1.08 115.32 471.75)">I</text><text font-family="Optimus-Bold, Optimus" font-size="39" font-weight="700" transform="matrix(1.1 .7 -.76 1.2 135.36 488.61)">F</text><text transform="matrix(1.19045255 .52232434 -.5705389 1.30034048 174.06 511.52)"/><text font-family="Optimus-Bold, Optimus" font-size="39" font-weight="700" transform="matrix(1.26 .34 -.37 1.37 204.12 524.15)">O</text><text font-family="Optimus-Bold, Optimus" font-size="39" font-weight="700" transform="matrix(1.3 .11 -.12 1.42 248.45 534.73)">P</text><text font-family="Optimus-Bold, Optimus" font-size="39" font-weight="700" transform="matrix(1.29469077 -.11737043 .12820462 1.41420068 293.8 537.37)">E</text><text font-family="Optimus-Bold, Optimus" font-size="39" font-weight="700" transform="matrix(1.25 -.35 .38 1.37 339.2 532.11)">R</text><text font-family="Optimus-Bold, Optimus" font-size="39" font-weight="700" transform="matrix(1.16 -.59 .64 1.27 385.05 518.11)">A</text><text font-family="Optimus-Bold, Optimus" font-size="39" font-weight="700" transform="matrix(1.03 -.8 .87 1.12 430.71 493.06)">T</text><text font-family="Optimus-Bold, Optimus" font-size="39" font-weight="700" transform="matrix(.86530756 -.9701767 1.05973147 .94518211 465.07 464.82)">O</text><text font-family="Optimus-Bold, Optimus" font-size="39" font-weight="700" transform="matrix(.66 -1.12 1.22 .73 494.71 429.77)">R</text><text font-family="Optimus-Bold, Optimus" font-size="39" font-weight="700" transform="matrix(.43459049 -1.22520656 1.33830255 .47470654 517.97 387.89)">S</text></g><path d="m283.46 16c-148.46 0-269.29 120.83-269.29 269.31s120.83 269.3 269.29 269.3 269.3-120.81 269.3-269.3-120.76-269.31-269.3-269.31zm0 530.65c-144.11 0-261.35-117.24-261.35-261.36s117.24-261.29 261.35-261.29 261.36 117.2 261.36 261.31-117.25 261.36-261.36 261.36z" fill="#1e0a0c"/><path d="m280.51 476s-8.79-37.38-18.14-40.13c-.55.55 9.07 0 9.07 0v-28.56s-47.54-135.78-165.72-193.5c.55 0 151.17 70.37 151.17 70.37v-12.65l-74.77-33.53s-4.4-54.42-36.28-88.5c2.2.55 55 92.35 121.48 108.84z" fill="#ededed"/><path d="m286.42 476s8.79-37.38 18.14-40.13c.55.55-9.07 0-9.07 0v-28.56s47.51-135.78 165.73-193.5c-.55 0-151.17 70.37-151.17 70.37v-12.65l74.76-33.53s4.4-54.42 36.28-88.5c-2.2.55-55 92.35-121.48 108.84z" fill="#ededed"/><path d="m60.94 308.73-11.72-14.38a1.82 1.82 0 0 1 0-2.31l11.72-14.38a1.82 1.82 0 0 1 2.83 0l11.72 14.34a1.82 1.82 0 0 1 0 2.31l-11.72 14.42a1.82 1.82 0 0 1 -2.83 0z" fill="#b72318"/><path d="m499.16 308.73-11.72-14.38a1.82 1.82 0 0 1 0-2.31l11.72-14.38a1.82 1.82 0 0 1 2.83 0l11.72 14.34a1.82 1.82 0 0 1 0 2.31l-11.71 14.42a1.82 1.82 0 0 1 -2.84 0z" fill="#b72318"/></svg>