<?xml version="1.0" encoding="UTF-8"?>
<svg id="uuid-09eed21f-671d-4619-9c96-f3010c0aecbe" xmlns="http://www.w3.org/2000/svg" version="1.1" viewBox="0 0 566.9 566.9">
  <!-- Generator: Adobe Illustrator 29.0.1, SVG Export Plug-In . SVG Version: 2.1.0 Build 192)  -->
  <defs>
    <style>
      .st0 {
        fill: #f18700;
      }

      .st1 {
        fill: #f6f6f6;
      }

      .st2 {
        isolation: isolate;
      }

      .st3 {
        fill: #009fe4;
      }
    </style>
  </defs>
  <g>
    <path class="st1" d="M284.1,557.7c-73.2,0-141.9-28.5-193.7-80.2-51.7-51.7-80.2-120.5-80.2-193.7s28.5-141.9,80.2-193.7C142.1,38.5,210.9,10,284.1,10s141.9,28.5,193.7,80.2c51.7,51.7,80.2,120.5,80.2,193.7s-28.5,141.9-80.2,193.7-120.5,80.2-193.7,80.2h0Z"/>
    <path class="st3" d="M283.5,12.1c36.6,0,72.2,7.2,105.6,21.3,32.3,13.7,61.3,33.2,86.3,58.2s44.5,54,58.2,86.3c14.2,33.4,21.3,69,21.3,105.6s-7.2,72.2-21.3,105.6c-13.7,32.3-33.2,61.3-58.2,86.3s-54,44.5-86.3,58.2c-33.5,14.2-69,21.3-105.6,21.3s-72.2-7.2-105.6-21.3c-32.3-13.7-61.3-33.2-86.3-58.2s-44.5-54-58.2-86.3c-14.1-33.5-21.3-69-21.3-105.6s7.2-72.2,21.3-105.6c13.7-32.3,33.2-61.3,58.2-86.3s54-44.5,86.3-58.2c33.4-14.1,69-21.3,105.6-21.3M283.5,7.1C130.8,7.1,7.1,130.8,7.1,283.5s123.7,276.4,276.4,276.4,276.4-123.7,276.4-276.4S436.1,7.1,283.5,7.1h0Z"/>
  </g>
  <g>
    <path class="st3" d="M24.8,283.5c0,69.1,26.9,134.1,75.8,182.9,44.2,44.2,101.7,70.5,163.5,75v-33.5c-112.4-9.7-201.5-102.2-205.7-216.1h61.1c4,80.2,65.9,145.5,144.6,154.8v-16.8c-69.5-9.2-123.9-67-127.9-138-.1-2.8-.2-5.5-.2-8.3s0-5.6.2-8.3c4-71,58.4-128.8,127.9-138v-16.8c-78.7,9.3-140.6,74.6-144.6,154.8h-61.1c4.2-113.9,93.3-206.5,205.7-216.1V25.5c-61.8,4.6-119.2,30.8-163.5,75.1-48.9,48.9-75.8,113.8-75.8,182.9h0Z"/>
    <path class="st3" d="M466.4,100.5c-44.2-44.2-101.7-70.5-163.5-75.1v33.5c112.4,9.7,201.5,102.2,205.7,216.1h-61.1c-4-80.2-65.9-145.5-144.6-154.8v16.8c69.5,9.2,123.9,66.9,127.9,138,.1,2.8.2,5.5.2,8.3s0,5.6-.2,8.3c-4,71-58.4,128.8-127.9,138v16.8c78.7-9.3,140.6-74.6,144.6-154.8h61.1c-4.2,113.9-93.3,206.5-205.7,216.1v33.5c61.8-4.6,119.2-30.8,163.5-75,48.9-48.9,75.8-113.8,75.8-182.9s-26.9-134.1-75.8-182.9h0Z"/>
  </g>
  <g class="st2">
    <g class="st2">
      <path class="st0" d="M71.6,254.3l14.7,2.5,2-12.3-14.7-2.5.8-4.9,34.4,5.7-.8,4.9-14.7-2.5-2,12.3,14.7,2.5-.8,4.9-34.4-5.7.8-4.9Z"/>
    </g>
  </g>
  <g class="st2">
    <g class="st2">
      <path class="st0" d="M96.8,214.2l4.8,1.5-4.5,14.3,9.5,3,4.5-14.3,4.8,1.5-6,19-33.3-10.5,6-19,4.8,1.5-4.5,14.3,9.5,3,4.5-14.3Z"/>
    </g>
  </g>
  <g class="st2">
    <g class="st2">
      <path class="st0" d="M127.8,194.1l-2.1,4.5-7.7-1.1-5.5,11.6,5.7,5.3-2.1,4.5-27-24.5,2.8-5.8,36,5.6ZM108.6,205.5l4.2-8.8-17.8-3.1,13.6,11.9Z"/>
    </g>
  </g>
  <g class="st2">
    <g class="st2">
      <path class="st0" d="M110.8,157.1l2.8-4.1,23.1,28.1-3.6,5.4-34.8-10.8,2.8-4.1,29.7,9.4-19.9-23.9Z"/>
    </g>
  </g>
  <g class="st2">
    <g class="st2">
      <path class="st0" d="M119.6,146l15.8,4.8-6.5-15.2,3.7-4.1,8.2,20.7,11.1,10-3.3,3.7-11.1-10-21.5-5.9,3.7-4.1Z"/>
    </g>
  </g>
  <g class="st2">
    <g class="st2">
      <path class="st0" d="M163.4,106.3l3,4-6.9,5.3,18,23.8-4,3-18-23.8-7,5.3-3-4,17.9-13.5Z"/>
    </g>
  </g>
  <g class="st2">
    <g class="st2">
      <path class="st0" d="M209.4,120l-4.4,2.4-5.6-5.4-11.2,6.2,1.6,7.7-4.4,2.4-7.6-35.6,5.7-3.1,26,25.5ZM187.2,118.1l8.6-4.7-12.7-12.9,4.1,17.6Z"/>
    </g>
  </g>
  <g class="st2">
    <g class="st2">
      <path class="st0" d="M212.3,109.8c.9,2.3,2.5,3.1,4.8,2.2l10.5-4,1.8,4.7-10.5,4c-5.4,2.1-9.2.4-11.2-5.1l-6.2-16.3c-2.1-5.4-.4-9.2,5.1-11.2l10.5-4,1.8,4.7-10.5,4c-2.3.9-3.1,2.5-2.2,4.8l6.2,16.3Z"/>
    </g>
  </g>
  <g class="st2">
    <g class="st2">
      <path class="st0" d="M247.2,72.5l1.1,4.9-8.5,1.9,6.6,29.1-4.9,1.1-6.6-29.1-8.5,1.9-1.1-4.9,21.9-4.9Z"/>
    </g>
  </g>
  <g class="st2">
    <g class="st2">
      <path class="st0" d="M259.7,71l4.2,34.6-4.9.6-4.2-34.6,4.9-.6Z"/>
    </g>
  </g>
  <g class="st2">
    <g class="st2">
      <path class="st0" d="M272.8,96.1c0,2.5,1.4,3.7,3.8,3.6l11.2-.3v5c.1,0-11.1.3-11.1.3-5.8.2-8.8-2.7-9-8.5l-.5-17.4c-.2-5.8,2.7-8.8,8.5-9l11.2-.3v5c.1,0-11.1.3-11.1.3-2.5,0-3.7,1.4-3.6,3.8l.5,17.4Z"/>
    </g>
  </g>
  <g class="st2">
    <g class="st2">
      <path class="st0" d="M316.6,107.2l-5-.5-1.5-7.7-12.7-1.4-3.1,7.2-5-.5,14.2-33.5,6.4.7,6.6,35.8ZM299.5,92.8l9.7,1.1-3-17.9-6.8,16.8Z"/>
    </g>
  </g>
  <g class="st2">
    <g class="st2">
      <path class="st0" d="M323.9,104.1l14.5,3.7-1.2,4.8-19.3-4.9,8.6-33.8,4.8,1.2-7.3,29Z"/>
    </g>
  </g>
  <g class="st2">
    <g class="st2">
      <path class="st0" d="M366.7,108.4l-6-2.9-6.4,13.5-4.5-2.1,14.9-31.5,12.4,5.9c5.3,2.5,6.6,6.4,4.2,11.6l-1.1,2.3c-2.2,4.7-5.2,6.5-9,5.3l-1.2,16.1-4.5-2.1,1.2-16ZM367,92.1l-4.3,9,7.9,3.7c2.3,1.1,3.9.5,5-1.8l1.1-2.3c1.1-2.3.5-3.9-1.8-5l-7.9-3.7Z"/>
    </g>
  </g>
  <g class="st2">
    <g class="st2">
      <path class="st0" d="M400.9,122.8l-2.7,4.2-12.5-8.2-5.5,8.3,12.5,8.2-2.7,4.2-16.6-10.9,19.2-29.1,16.6,10.9-2.7,4.2-12.5-8.2-5.5,8.3,12.5,8.2Z"/>
    </g>
  </g>
  <g class="st2">
    <g class="st2">
      <path class="st0" d="M402.5,138.4c-1.6,1.9-1.5,3.6.3,5.3l3.7,3.3c1.9,1.6,3.6,1.5,5.3-.3l4.1-4.7-5.6-4.9,3.3-3.7,9.3,8.2-7.4,8.4c-3.8,4.4-7.9,4.6-12.3.8l-3.7-3.3c-4.4-3.8-4.6-7.9-.8-12.3l11.5-13.1c3.8-4.4,7.9-4.6,12.3-.8l10.3,9-3.3,3.7-10.3-9c-1.9-1.6-3.6-1.5-5.3.3l-11.5,13.1Z"/>
    </g>
  </g>
  <g class="st2">
    <g class="st2">
      <path class="st0" d="M441.4,139.5l-25.5,23.8-3.4-3.6,25.5-23.8,3.4,3.6Z"/>
    </g>
  </g>
  <g class="st2">
    <g class="st2">
      <path class="st0" d="M447.3,145.4l3.9,5.5-15.7,23,26.7-7.6,3.9,5.5-28.3,20.4-2.9-4,21.2-15.3-26.6,7.8-2.3-3.2,15.8-22.8-21.2,15.3-2.9-4,28.3-20.4Z"/>
    </g>
  </g>
  <g class="st2">
    <g class="st2">
      <path class="st0" d="M466.1,204.4l-4.5,2.2-6.6-13.4-8.9,4.4,6.6,13.4-4.5,2.2-8.8-17.9,31.2-15.5,8.8,17.9-4.5,2.2-6.6-13.4-8.9,4.4,6.6,13.4Z"/>
    </g>
  </g>
  <g class="st2">
    <g class="st2">
      <path class="st0" d="M484.5,210.7l-19.1,21.9,23.7-7.7,1.5,4.7-33.2,10.7-1.5-4.7,19.1-21.9-23.7,7.7-1.5-4.7,33.2-10.7,1.5,4.7Z"/>
    </g>
  </g>
  <g class="st2">
    <g class="st2">
      <path class="st0" d="M496.2,260.6l-4.9.8-1.4-8.6-29.5,4.7-.8-4.9,29.5-4.7-1.4-8.6,4.9-.8,3.5,22.1Z"/>
    </g>
  </g>
  <g class="st2">
    <g class="st2">
      <path class="st0" d="M124.6,411.3c-2,1.8-2.2,3.6-.4,5.7l3.5,4.1c1.8,2,3.6,2.2,5.7.4l5.1-4.4-5.3-6.1,4.1-3.5,8.8,10.2-9.2,7.9c-4.8,4.1-9.2,3.8-13.3-1l-3.5-4.1c-4.1-4.8-3.8-9.2,1-13.3l14.2-12.3c4.8-4.1,9.2-3.8,13.3,1l9.6,11.2-4.1,3.5-9.6-11.2c-1.8-2-3.6-2.2-5.7-.4l-14.2,12.3Z"/>
    </g>
  </g>
  <g class="st2">
    <g class="st2">
      <path class="st0" d="M156.2,433.9l-5.5-4.7-10.4,12.3-4.1-3.5,24.4-28.6,11.2,9.6c4.8,4.1,5.1,8.5,1.1,13.2l-1.7,2c-3.7,4.3-7.3,5.3-10.8,3l-5.7,16.4-4.1-3.5,5.7-16.3ZM161.1,417l-7,8.2,7.2,6.1c2,1.7,3.9,1.6,5.7-.5l1.7-2c1.7-2,1.6-3.9-.5-5.7l-7.2-6.1Z"/>
    </g>
  </g>
  <g class="st2">
    <g class="st2">
      <path class="st0" d="M186.7,430.1l-21.2,31-4.4-3,21.2-31,4.4,3Z"/>
    </g>
  </g>
  <g class="st2">
    <g class="st2">
      <path class="st0" d="M201.1,456.9l-2.6,4.7-14.1-7.7-7.7,14.1-4.7-2.6,18-33,18.9,10.3-2.6,4.7-14.1-7.7-5.2,9.4,14.1,7.7Z"/>
    </g>
  </g>
  <g class="st2">
    <g class="st2">
      <path class="st0" d="M226.4,466.8l-1.9,5-15.1-5.6-5.6,15.1-5-1.9,13.1-35.2,20.1,7.5-1.9,5-15.1-5.6-3.8,10.1,15.1,5.6Z"/>
    </g>
  </g>
  <g class="st2">
    <g class="st2">
      <path class="st0" d="M241.1,453.9l-9.6,36.4-5.2-1.4,9.6-36.4,5.2,1.4Z"/>
    </g>
  </g>
  <g class="st2">
    <g class="st2">
      <path class="st0" d="M250,456l12.1,28.9,3.9-26.6,5.3.8-5.4,37.2-5.3-.8-12.1-28.9-3.9,26.6-5.3-.8,5.4-37.2,5.3.8Z"/>
    </g>
  </g>
  <g class="st2">
    <g class="st2">
      <path class="st0" d="M308.3,457.7l.4,5.4-9.4.7,2.3,32.1-5.4.4-2.3-32.1-9.4.7-.4-5.4,24.1-1.7Z"/>
    </g>
  </g>
  <g class="st2">
    <g class="st2">
      <path class="st0" d="M328.6,475.3l-7,1.6,3.6,15.7-5.2,1.2-8.5-36.6,14.4-3.3c6.1-1.4,9.9.9,11.3,7l.6,2.6c1.3,5.5,0,9-4,10.5l9.8,14.4-5.2,1.2-9.7-14.3ZM317.9,461.3l2.4,10.5,9.2-2.1c2.6-.6,3.6-2.2,3-4.8l-.6-2.6c-.6-2.6-2.2-3.6-4.8-3l-9.2,2.1Z"/>
    </g>
  </g>
  <g class="st2">
    <g class="st2">
      <path class="st0" d="M372.3,467.3c2.4,5.8.7,9.9-5.1,12.3l-6.2,2.5c-5.8,2.4-9.9.7-12.3-5.1l-7.1-17.4c-2.4-5.8-.7-9.9,5.1-12.3l6.2-2.5c5.8-2.4,9.9-.7,12.3,5.1l7.1,17.4ZM353.7,474.9c1,2.5,2.8,3.2,5.3,2.2l6.2-2.5c2.5-1,3.2-2.8,2.2-5.3l-7.1-17.4c-1-2.5-2.8-3.2-5.3-2.2l-6.2,2.5c-2.5,1-3.2,2.8-2.2,5.3l7.1,17.4Z"/>
    </g>
  </g>
  <g class="st2">
    <g class="st2">
      <path class="st0" d="M401,450.4c3.3,5.3,2.3,9.6-3.1,12.9l-5.7,3.5c-5.3,3.3-9.6,2.3-12.9-3.1l-9.8-16c-3.3-5.3-2.3-9.6,3.1-12.9l5.7-3.5c5.3-3.3,9.6-2.3,12.9,3.1l9.9,16ZM383.8,461c1.4,2.3,3.3,2.7,5.5,1.3l5.7-3.5c2.3-1.4,2.7-3.3,1.3-5.5l-9.8-16c-1.4-2.3-3.3-2.7-5.5-1.3l-5.7,3.5c-2.3,1.4-2.7,3.3-1.3,5.5l9.8,16Z"/>
    </g>
  </g>
  <g class="st2">
    <g class="st2">
      <path class="st0" d="M406.8,437.3l10.5,12.2-4.1,3.5-24.5-28.5,11.2-9.6c4.8-4.1,9.2-3.7,13.3,1l1.8,2c4.1,4.8,3.7,9.2-1,13.3l-7.1,6.1ZM396.3,425.1l7,8.1,7.1-6.1c2-1.8,2.2-3.6.4-5.7l-1.8-2c-1.8-2-3.6-2.2-5.7-.4l-7.1,6.1Z"/>
    </g>
  </g>
  <g class="st2">
    <g class="st2">
      <path class="st0" d="M437.9,430.8l-4.1-3.5,9.6-11.2c1.7-2,1.6-3.9-.5-5.7l-2-1.7c-2-1.7-3.9-1.6-5.7.5l-3.5,4.1c-4.1,4.8-8.5,5.1-13.3,1.1l-2-1.7c-4.8-4.1-5.1-8.5-1.1-13.3l9.6-11.2,4.1,3.5-9.6,11.2c-1.7,2-1.6,3.9.5,5.7l2,1.7c2,1.7,3.9,1.6,5.7-.5l3.5-4.1c4.1-4.8,8.5-5.1,13.3-1.1l2,1.7c4.8,4.1,5.1,8.5,1.1,13.3l-9.6,11.2Z"/>
    </g>
  </g>
  <g>
    <path class="st0" d="M224.1,214.4c.7,1,1.2,2,2.6.4-.7-1-1.2-1.9-2.6-.4ZM225.2,233.9c.8,1.2,1.6,1.4,2.4.2-.6-.5-1.1-1.4-2.4-.2ZM223.8,233.9c.5-.4.5-.7,0-1.1-.5.4-.5.7,0,1.1ZM268.5,286.3c-.5.4-.5.7,0,1.1.5-.4.5-.7,0-1.1ZM353.1,198.9h0c0,0,.1,0,.1,0h-.1c0,0,0,0,0,0Z"/>
    <path class="st0" d="M385.4,277c-3.5.7-7,1.4-11.1,2.3,2.9,2.8,6.1.1,8.9,2.1,1.8,5-1.5,7.8-5.9,11.6,1.1-2.8,1.8-4.4,2.7-6.7-5.1-.2-10.2,0-13.1-4.9-2.9,1.9-5.7,2.9-8.9,3-.9,5.7,4.3,6.3,6.7,8.9-7.2,0-11.9-4-13.2-11.2,1.4-2,4.3-.5,6.6-3.4-6.8-1.5-12.9-3.3-19.9-2.7.2,4-.8,7.3-4.4,9.8-1.3-4.6-4.2-6.9-9.7-6.5,3,3.8,1.5,6.9-.6,9.9-2.6,3.8-5.6,7.1-8.8,10.3l-11.2,9.1c-2.7,1.4-5.2,3.1-8,4.8-.5,6.2.3,12.6-1.2,18.9-2,8.6-6.4,15.3-13.4,20.4-12.8,9.4-15.4,20.1-8.1,34.2,2.5,4.9,6.3,8.3,11.6,8.7,2.9-.7,1.6-3.6,3.5-4.4,6.4.9,8.9,2.5,12.7,8.1-.4,1.2-.9,2.6-1.4,4.1.5,2.1,1,4.4,1.5,7-3.3-2.3-5.3-6.2-9.9-6.5-1,2.2,2.3,3.7.9,6.3-4.7-2.1-9.6-4.5-15.2-1.9-4-4.9-7.1-9.8-12.2-13.2-4.7-3.2-8.7-7.6-11.6-12.5.9-1.6,2.6.1,3.5-1.4-4.9-4.5-9.6-9.2-11.9-17.1,3.1,2,5.3,3.4,8.5,5.4-2.2-6.5-6.7-11.4-5.3-17.7,2.1-1,3.4.9,5.2.5,8.7-3.2,15.7-16.1,14.2-27-2.6,3.5-5,6.8-7.5,10-2.7,3.5-6,6.4-9.9,8.4-6.1,3.2-11.6,2.9-15.7-1-4.1-3.9-5.6-11.8-3.1-17.2,2.2-4.9,5.9-8.7,9-13,1.4-1.9,3.6-4,1-6.9-3.6-.4-5.4,2.4-7.3,4.6-6.6,7.8-15.7,7.2-24.1,6-7.7-1.1-10.6-9.8-6.1-17.1.4,1.9.7,3.3,1,4.7,2,2,4.3,2.3,7,1.8,5.5-.9,9.3-4.8,13.6-7.8,7.4-5.3,12.8-5.9,18.6-2,6.5,4.3,7.7,10.7,2.8,16.7-3.4,4.1-6.7,8.1-9.6,12.6-1.8,2.8-2.9,5.7-1.3,9.5,1.9-1.4,2.2-4.2,5-4.3,0,1.9-1.2,3.8-.1,5.6,4.7,2,9.1.4,13.4-4.8,3.8-4.7,6.3-10.1,8.9-15.6,1.9-4.1,4-8.1,6.7-11.8,3.8-5.3,8.5-9.1,15.5-10,6.3-.9,12-3.7,18.2-7.4-2.7-1.1-5.2-.4-6.5-2.3-3.5,3-7,5.2-10.9,6.7-2.1-.3-.4-3.4-3.2-3.4-5.2,3.2-10.6,7.4-17.9,6.9-.4-3.3,4.4-3.6,3.2-7.8-8.5,2.2-17.2,6.8-27.6,2,6.2-2.4,11.4-4,15.5-9.9-3.6.6-6.1,1.2-8.6,1.5-9.8,1-19.2.6-26.4-7.6.3-.3.6-.6.9-.8,7.7.8,15.4,1.5,23.4-3.7-9.2-.2-17-1.7-24.4-5-6.6-3-13-6.5-15.7-13.9h0c9.1,4.4,18.7,6.4,30.1,5.1-15.9-7.5-29.9-15.9-37.7-31.5,8.3,4.4,15.8,10.3,26,10.2-14.9-9-28.1-19.1-32-37.4,9.1,9.7,20.1,15.7,33.1,18.7-14.7-11.5-30-22.3-33.2-42.7,7.8,11.7,19.6,17.8,31.9,23,6.3,2.6,13,4.6,19.2,7.4,15.9,7,19.1,13.4,13.4,29.5-3.6,10-.8,18.1,6,24.8,6.6,6.6,15.4,6.2,23.5,2.9,6.1-2.5,12.1-5.3,19.6-6.7-7.4-1.7-7.8-1.6-24,3.6-10.2-6.6-11-16.8-9.9-27.7-2.5,0-2,3.1-4.5,3-2-9.5-1.3-18.5,5.2-26.7-4-4.6-.4-12.2-7.2-15.8,7.6-.9,13.2,1.5,17.3,7.6,7.2-2,14.2-8.6,22.1-1.2,4.4-.5,8.9-5.6,13.5-1.2,3.5,3.4,1.6,7.7.9,11.8-9.1-4.1-17.5-.8-21,8.1,3.2,3.7,7.4,5.1,13.3,4.6-4.2,3.7-8.5,2.9-12.7,3.9,7.5,4.2,17.1,2.3,24.2,8.2-1-4,.8-6.9,1.7-10.2,4.7,2,4.5,6.6,6.6,10.5,8.8-5.1,17.6-9.7,23.5-17.2-.8-5.3-5.4-5.8-7.4-8.5,2.5-5.2,3.5-6.1,7.1-6.2-.5,3.4,1.8,5.1,3.8,7.1,2.7-1.1,0-3.7,1.9-4.8,4-1.3,7.9-1.3,12.4,0-2.4,1.8-5.2.6-7.1,2.7-.8,2,0,4.3,0,6.7,2.9.5,3-2.9,5.4-3.6,3,1,5.4,3.1,7.7,5.9-2.7,1.2-4.2-1.9-7.1-.5-1.9,2.8-3.9,6.7-8.1,8.1-1,2.2-1.9,4.4-2.7,6.3,1.1,2.6,3.8,2.8,5.9,4.6-4.7,2-8.4.9-11.9-1.1-.5-2.9,3.3-4,1.6-7.4-8,2.5-12.5,9.6-18.9,14.5,2.2,3.3,4.1,6.3,6.4,9.8-3.5-1.1-6.5-2-9.5-2.9-1.8-3-3.6-5.8-5.3-8.7,0,6.2,4.1,10.8,4.7,16.7.5,2-2.6,1-2.4,3.1,3.6,3.9,8,2.7,12.6,1.2,1.1,3.6-1.6,5.7-2.5,8.8,6.8,2.9,13.9,4.8,21.2,5.6,6.8.7,8-.8,7.9-7.5,0-1.1,0-2.1,0-3.4,4.4-1.3,8-.3,11.2,2.7-1.1,2.1-2.9.2-4.2,1.6-.6,2.1-1.2,4.5-2,7.1,2.5,1.3,4.4-1.1,6.7-1.1,2.7,1,4.7,3,6,5.8-.4.4-.9.7-1.3,1.1h0Z"/>
    <path class="st0" d="M329.5,359.5c.4-2,3.3-2.4,3-5.5-8.3,2.3-16.6,4.1-26.7.8,6.5-3,11.5-5.4,9.5-12.3-2.5-8.6-9.5-9.5-17.3-9.3.7-5.9,1.4-11.4,2-17.2,3.1-2.6,6.5-5.3,9.6-8.2,1-1,3.6-1.6,2-4.1h0c1.6,1.4,2,.2,2.3-1h-.2c16-7.6,25.3-1.3,24.4,16.6-.2,3.4-1,6.5-2.5,9.4-1.4,2.7-3.2,5.1-5.5,8.5,10.9-.2,20.9.1,29.9-3.9,1.8-2.9-.5-4.6-.8-7.2,3.5-5.7,8.6-8.8,15.7-9.1-.1,2-2.5,1.3-2.4,2.9-.9.2-2.2.2-1.5,2,.8-.3,1.6-.6,2.3-.9,3.3-.5,6.5-.6,9.5,1.6-.8,1.8-3.2.3-4,2,.3,2.2,2.9,1.3,4,2.7-1.5,1.4-3.6.5-5.8,1.8-4.1,3.7-4.6,12.9-13.6,11.6-4.9,5.8-11,9.4-17.3,13-6.8-1.7-10.6,5.2-16.7,5.9h.1c0-.1,0,0,0,0Z"/>
    <path class="st0" d="M302.7,211.8c3.2-3.9,6.8-3.5,10.1-2.8,10.1,2.1,10,2.2,15.5-6.8,1.7,4,1.3,7-1.6,9.9-2.9,2.9-6.5,4-10.5,2.4-4.2-1.7-8.4-3.5-13.6-2.8h0Z"/>
    <path class="st0" d="M273.7,182.1c7.4.9,11.2,4.8,15.8,8.7-2.5,1.6-4.3,2.7-6.6,4.1-2.4-4.3-5.1-8.2-9.1-12.8h0Z"/>
    <path class="st0" d="M329.4,359.6c-.4-.3-.8-.5-1,.2.5.5.8.1,1.1-.3h-.1Z"/>
    <path class="st0" d="M204.6,249.1h-.1c0,0,.1,0,.1,0s0,0,0,0h0Z"/>
    <path class="st0" d="M381.4,263.8c-.5-.1-.3,0,0,0-.2,0-.5.2,0,0Z"/>
  </g>
</svg>