<svg enable-background="new 0 0 114.3 114.3" viewBox="0 0 114.3 114.3" xmlns="http://www.w3.org/2000/svg"><ellipse cx="57.1" cy="57.1" fill="#fff" rx="56.7" ry="56.7" stroke="#00aae8" stroke-miterlimit="10" stroke-width=".872" transform="matrix(.02243667 -.9997 .9997 .02243667 -1.2675 112.9708)"/><g fill="#6fb62c"><path d="m12.4 80.3 1.8 3.3c-.1 0-.1.1-.1.1-.7.4-1.2.6-1.6.8-.6.2-1.1.1-1.5-.4-.2-.2-.4-.5-.6-.8s-.5-.8-.8-1.4c-.4-.8-.7-1.4-.9-1.8-.1-.4-.2-.7-.2-1 0-.2.1-.4.2-.5s.3-.3.5-.5c.2-.1.6-.4 1.3-.7l1-.5s.5-.2.7-.2c.4-.1.8.1 1.2.5s.8 1.2 1.4 2.2c.3.6.6 1.1.7 1.5.2.4.3.7.3 1 .1.4 0 .8-.4 1.1-.2.1-.4.3-.8.5l-.8-1.5c.1-.1.2-.1.3-.2 0 0 .1-.1.1-.2s0-.3-.2-.6c-.1-.3-.3-.6-.6-1.1s-.5-.9-.6-1.1-.3-.3-.4-.4c-.1 0-.2 0-.4 0-.2.1-.4.2-.8.4s-.7.4-.8.5-.2.2-.3.3c0 .1 0 .2.1.4.1.1.3.5.6 1.2.4.7.6 1.1.7 1.2s.2.2.3.3.1.1.2.1.2-.1.3-.1c0 0 .1 0 .1-.1l-1-1.9z"/><path d="m16.5 82.8 1 1.3-2 1.5c-.5.4-.7.6-.8.7-.1.2-.2.4-.1.6s.3.6.8 1.2c.3.5.6.8.8.9.2.2.3.2.4.3h.3c.1 0 .2-.1.4-.3.2-.1.4-.3.5-.4l2-1.5 1 1.3-2 1.5c-.7.5-1.2.8-1.4 1-.4.2-.8.3-1.2.1-.2-.1-.5-.3-.7-.6-.3-.3-.7-.8-1.2-1.5-.4-.5-.7-.9-.9-1.2s-.4-.6-.5-.8c-.2-.5-.2-1 .2-1.5.1-.2.3-.3.4-.4s.5-.4 1-.8z"/><path d="m21.5 96.7.3-1-2.6-2.5-1 .3-1.4-1.3 5.9-1.9 1.9 1.8-1.7 5.9zm.7-2.2.7-2.2-.2-.2-2.2.8z"/><path d="m23.5 98.5 3.1-4.5 3.3 2.3c.8.5 1.2.9 1.4 1 .1.1.3.3.3.5.1.2.1.4.1.7-.1.2-.2.5-.5.9-.2.3-.4.6-.6.7-.1.1-.3.2-.5.2s-.4 0-.7-.2c.3.2.4.4.4.7 0 .1 0 .3-.1.4s-.2.4-.5.8l-.3.4-1.3-.9.2-.2c.2-.3.3-.4.3-.6.1-.1.1-.2.1-.3s-.1-.2-.1-.2c-.1-.1-.3-.2-.5-.4l-1.9-1.3-.8 1.1zm3-1.3 1.9 1.3c.3.2.5.4.6.4s.1.1.2.1.2 0 .2-.1.2-.2.3-.3.2-.3.2-.4 0-.2 0-.3-.1-.1-.1-.2c-.1-.1-.3-.2-.6-.4l-1.9-1.3z"/><path d="m30.1 103 2.4-4.9 3.5 1.7c.6.3 1 .5 1.2.6s.4.2.6.4c.4.3.6.8.5 1.3 0 .2-.1.4-.2.6s-.2.5-.4.9-.4.8-.5 1-.3.4-.4.6c-.4.4-.8.5-1.3.4-.2-.1-.5-.1-.7-.2-.3-.1-.7-.3-1.2-.6zm2.1-.6 2.1 1c .4.2.7.3.9.4s.3.1.4.1.2-.1.3-.2.2-.4.4-.7.2-.5.3-.7c0-.2.1-.3 0-.4 0-.1-.1-.2-.3-.3s-.4-.3-.9-.5l-2.1-1z"/><path d="m43.2 108.3-.2-1-3.5-1.1-.7.7-1.8-.6 4.4-4.4 2.5.8 1.1 6.1zm-.3-2.3-.4-2.3-.3-.1-1.6 1.7z"/><path d="m48 109.4.6-5.4 3.9.4c.7.1 1.2.1 1.4.2.2 0 .4.1.7.2.5.2.9.5 1 1 0 .2.1.4.1.6s0 .6-.1 1c-.1.5-.1.9-.2 1.1s-.1.5-.2.7c-.2.5-.6.7-1.1.8-.2 0-.5 0-.8 0s-.7 0-1.3-.1zm1.8-1.2 2.3.2c.4 0 .7.1.9.1s.3 0 .4-.1.2-.2.2-.3c.1-.2.1-.4.1-.8 0-.3 0-.6 0-.8s-.1-.3-.1-.4c-.1-.1-.2-.2-.4-.2s-.5-.1-1-.1l-2.3-.2z"/><path d="m56.1 104.7 6.1-.2.1 1.3-4.4.2v.8l4.2-.2v1.2l-4.2.2v.9l4.4-.2.1 1.3-6.1.2z"/><path d="m71.5 108.2-.7-.8-3.5.8-.2 1-1.9.4 1.6-6 2.5-.6 4 4.7zm-1.5-1.8-1.5-1.8-.3.1-.6 2.3z"/><path d="m73.2 105.8 1.5-.6c.1.3.2.4.3.4h.3s.5-.2 1.1-.4c.7-.3 1-.4 1.2-.5s.2-.1.3-.2.1-.2 0-.5c-.1-.2-.1-.2-.2-.3-.1 0-.3 0-.5.1s-.6.2-1.2.4-1.1.4-1.3.4c-.4.1-.7.2-.9.2s-.4 0-.6-.1c-.3-.1-.5-.5-.7-1-.2-.6-.3-1-.2-1.3.1-.2.3-.5.6-.7s1-.5 2.1-.9c.7-.3 1.3-.5 1.6-.6.5-.1.9-.1 1.1 0 .3.1.5.4.7.9 0 0 0 .1.1.2l-1.5.6c-.1-.1-.1-.2-.2-.3 0 0-.1-.1-.2-.1s-.2 0-.4.1-.5.2-1.1.4c-.7.3-1 .4-1.2.5-.1.1-.2.2-.1.4s.2.3.3.2c.1 0 .7-.2 1.7-.6.8-.3 1.4-.5 1.7-.6s.5-.1.7-.1.4.1.6.3.3.4.4.8c.2.5.3.9.2 1.1 0 .2-.1.4-.3.5-.1.2-.4.3-.7.5s-.9.4-1.9.8c-.8.3-1.3.5-1.7.6s-.7.1-.9.1-.4-.1-.6-.3c-.1-.2-.3-.4-.4-.8z"/><path d="m80 103.1 1.4-.8c.1.2.3.4.4.4s.2 0 .3-.1.5-.2 1.1-.6 1-.6 1.1-.6c.1-.1.2-.2.3-.2.1-.1.1-.3 0-.4s-.2-.2-.3-.2-.3.1-.5.2-.6.3-1.2.6-1 .5-1.2.6c-.4.2-.6.3-.9.4s-.4 0-.6 0c-.3-.1-.6-.4-.9-.9s-.4-1-.3-1.3.2-.5.5-.7.9-.6 1.9-1.2c.7-.4 1.2-.7 1.5-.8.5-.2.8-.2 1.1-.1s.5.3.8.8c0 0 .1.1.1.2l-1.4.8c-.1-.1-.1-.2-.2-.3 0 0-.1-.1-.2-.1s-.2 0-.4.1-.5.3-1 .6c-.6.4-1 .6-1.1.7s-.1.3 0 .4c.1.2.2.2.4.2.1 0 .7-.3 1.6-.8.8-.4 1.3-.7 1.6-.8s.5-.2.7-.2.4.1.6.2.4.4.6.7c.3.4.4.8.4 1.1 0 .2-.1.4-.2.6s-.3.4-.6.5c-.3.2-.9.6-1.7 1-.7.4-1.3.7-1.6.8s-.7.2-.9.2-.4-.1-.6-.2-.3-.4-.5-.7z"/><path d="m92.3 97.1-.9-.4-2.8 2.2.2 1-1.5 1.2-1.1-6.1 2-1.6 5.6 2.5zm-2.1-1.1-2.1-1-.3.2.5 2.3z"/><path d="m90.3 91.5 1.2-1.3 2.9 2.8 2.7-2.8 1 1-3.9 4.1z"/><path d="m93.5 88.3 4-5.2 1.1.8-1.5 1.9 3.2 2.5-1.1 1.4-3.2-2.5-1.5 1.9z"/><path d="m99.4 79.7c.6-1 1-1.7 1.3-2.1.4-.5.8-.7 1.4-.6.4.1.9.3 1.7.8.7.4 1.3.8 1.5 1 .4.4.5.9.2 1.5-.2.4-.5 1.1-1.1 2.2-.6 1-1 1.7-1.3 2.1-.4.5-.8.7-1.4.6-.4-.1-.9-.3-1.7-.8-.7-.4-1.2-.7-1.5-1-.4-.4-.5-.9-.2-1.5.1-.5.5-1.2 1.1-2.2zm1.2.7c-.4.8-.7 1.2-.7 1.4-.1.2 0 .4.1.5s.4.4.9.6c.3.2.5.3.7.3.3.1.5 0 .7-.3.1-.2.4-.6.7-1.2s.5-1 .6-1.2.1-.4.1-.5-.1-.2-.2-.3-.3-.2-.6-.4-.6-.3-.8-.4-.3-.1-.4-.1-.3.1-.4.3-.3.6-.7 1.3z"/></g><circle cx="57.1" cy="57.1" fill="#00aae8" r="44"/><ellipse cx="66.8" cy="66.4" fill="#fff" rx="3.7" ry="2.3" transform="matrix(.7071 -.7071 .7071 .7071 -27.3828 66.6563)"/><ellipse cx="71.9" cy="71.5" fill="#fff" rx="2.7" ry="1.8" transform="matrix(.7071 -.7071 .7071 .7071 -29.5234 71.7562)"/><ellipse cx="77.3" cy="76.9" fill="#fff" rx="1.8" ry=".9" transform="matrix(.7071 -.7071 .7071 .7071 -31.7106 77.1855)"/><ellipse cx="82.5" cy="82.1" fill="#fff" rx="1.1" ry=".7" transform="matrix(.7071 -.7071 .7071 .7071 -33.8851 82.3854)"/><ellipse cx="57.1" cy="67.8" fill="#6fb62c" rx="4.5" ry="2.6" stroke="#fff" stroke-miterlimit="10" stroke-width=".087201"/><ellipse cx="57.1" cy="76.8" fill="#6fb62c" rx="3.5" ry="2.6" stroke="#fff" stroke-miterlimit="10" stroke-width=".087201"/><ellipse cx="57.1" cy="86.4" fill="#6fb62c" rx="2.6" ry="1.5" stroke="#fff" stroke-miterlimit="10" stroke-width=".087201"/><ellipse cx="57.1" cy="95.3" fill="#6fb62c" rx="1.6" ry=".9" stroke="#fff" stroke-miterlimit="10" stroke-width=".087201"/><ellipse cx="57.1" cy="46.4" fill="#6fb62c" rx="4.5" ry="2.6" stroke="#fff" stroke-miterlimit="10" stroke-width=".087201"/><ellipse cx="57.1" cy="37.5" fill="#6fb62c" rx="3.5" ry="2.6" stroke="#fff" stroke-miterlimit="10" stroke-width=".087201"/><ellipse cx="57.1" cy="27.8" fill="#6fb62c" rx="2.6" ry="1.5" stroke="#fff" stroke-miterlimit="10" stroke-width=".087201"/><ellipse cx="57.1" cy="19" fill="#6fb62c" rx="1.6" ry=".9" stroke="#fff" stroke-miterlimit="10" stroke-width=".087201"/><ellipse cx="66.7" cy="47.6" fill="#fff" rx="2.3" ry="3.7" transform="matrix(.7071 -.7071 .7071 .7071 -14.1277 61.1114)"/><ellipse cx="71.8" cy="42.5" fill="#fff" rx="1.8" ry="2.7" transform="matrix(.7071 -.7071 .7071 .7071 -9.0278 63.2521)"/><ellipse cx="77.3" cy="37.1" fill="#fff" rx=".9" ry="1.8" transform="matrix(.7071 -.7071 .7071 .7071 -3.5571 65.5393)"/><ellipse cx="82.6" cy="31.9" fill="#fff" rx=".7" ry="1.1" transform="matrix(.7071 -.7071 .7071 .7071 1.6428 67.7138)"/><ellipse cx="47.6" cy="66.4" fill="#fff" rx="2.3" ry="3.7" transform="matrix(.7071 -.7071 .7071 .7071 -33.0174 53.0911)"/><ellipse cx="42.4" cy="71.5" fill="#fff" rx="1.8" ry="2.7" transform="matrix(.7071 -.7071 .7071 .7071 -38.1173 50.9505)"/><ellipse cx="37" cy="76.9" fill="#fff" rx=".9" ry="1.8" transform="matrix(.7071 -.7071 .7071 .7071 -43.5173 48.6926)"/><ellipse cx="31.7" cy="82.1" fill="#fff" rx=".7" ry="1.1" transform="matrix(.7071 -.7071 .7071 .7071 -48.7879 46.4888)"/><ellipse cx="47.5" cy="47.6" fill="#fff" rx="3.7" ry="2.3" transform="matrix(.7071 -.7071 .7071 .7071 -19.7624 47.5463)"/><ellipse cx="42.4" cy="42.5" fill="#fff" rx="2.7" ry="1.8" transform="matrix(.7071 -.7071 .7071 .7071 -17.6218 42.4463)"/><ellipse cx="37" cy="37.1" fill="#fff" rx="1.8" ry=".9" transform="matrix(.7071 -.7071 .7071 .7071 -15.3639 37.0464)"/><ellipse cx="31.8" cy="31.9" fill="#fff" rx="1.1" ry=".7" transform="matrix(.7071 -.7071 .7071 .7071 -13.2601 31.8172)"/><ellipse cx="67.9" cy="57.1" fill="#6fb62c" rx="2.6" ry="4.5" stroke="#fff" stroke-miterlimit="10" stroke-width=".087201"/><ellipse cx="76.9" cy="57.1" fill="#6fb62c" rx="2.6" ry="3.5" stroke="#fff" stroke-miterlimit="10" stroke-width=".087201"/><ellipse cx="86.5" cy="57.1" fill="#6fb62c" rx="1.5" ry="2.6" stroke="#fff" stroke-miterlimit="10" stroke-width=".087201"/><ellipse cx="95.4" cy="57.1" fill="#6fb62c" rx=".9" ry="1.6" stroke="#fff" stroke-miterlimit="10" stroke-width=".087201"/><ellipse cx="46.4" cy="57.1" fill="#6fb62c" rx="2.6" ry="4.5" stroke="#fff" stroke-miterlimit="10" stroke-width=".087201"/><ellipse cx="37.4" cy="57.1" fill="#6fb62c" rx="2.6" ry="3.5" stroke="#fff" stroke-miterlimit="10" stroke-width=".087201"/><ellipse cx="27.7" cy="57.1" fill="#6fb62c" rx="1.5" ry="2.6" stroke="#fff" stroke-miterlimit="10" stroke-width=".087201"/><ellipse cx="18.9" cy="57.1" fill="#6fb62c" rx=".9" ry="1.6" stroke="#fff" stroke-miterlimit="10" stroke-width=".087201"/><circle cx="57.1" cy="57.1" fill="#fff" r="4.8"/><path d="m16.1 23.8 2-2.1 4.9.7.1-.1-3-2.8 1.2-1.2 4 3.8-2 2.1-4.9-.7h-.2l3 2.8-1.2 1.2z" fill="#6fb62c"/><path d="m29.8 18.5-1.1.8-.4-.5h-.1c.1.3 0 .5-.1.8-.1.2-.4.5-.8.8s-.7.5-.9.6c-.1.2-.4.2-.6.2-.3 0-.5-.1-.6-.3-.2-.1-.4-.4-.8-.8l-1.1-1.4 1.1-.9 1.1 1.4c.2.2.3.4.4.5s.2.1.3.1.2 0 .4-.1c.1-.1.3-.2.5-.3.4-.3.6-.5.6-.8 0-.1 0-.3-.1-.4s-.2-.3-.4-.6l-1-1.2 1.1-.9z" fill="#6fb62c"/><path d="m28.2 14.8 1.2-.7.3.5h.1c0-.5.3-1 1-1.4.4-.2.8-.4 1.1-.4s.6.1.9.2c0-.3 0-.6.2-.8s.5-.5.9-.7c.3-.2.7-.3.9-.4.3-.1.5 0 .7 0 .2.1.4.2.6.4s.4.5.6.9l.9 1.6-1.3.7-.9-1.5c-.1-.2-.2-.4-.3-.5s-.2-.1-.2-.2c-.2-.1-.5 0-.8.2-.4.2-.6.4-.6.6v.4s.1.3.3.6l.8 1.4-1.4.8-.9-1.6c-.1-.3-.3-.4-.3-.5-.1-.1-.1-.1-.2-.2-.2-.1-.5 0-.8.2-.4.2-.6.4-.7.6v.4c0 .1.1.4.3.6l.8 1.4-1.3.8z" fill="#6fb62c"/><path d="m43.6 13.6-1.4.5-.7-2h-.1c-.1.3-.2.5-.4.6-.2.2-.5.3-1 .5s-.9.3-1.2.3-.5 0-.7-.1-.4-.2-.5-.4-.3-.5-.4-.9c-.2-.5-.3-.8-.3-1.1s0-.5.1-.7.3-.4.5-.5.6-.3 1.1-.5.8-.3 1.1-.3c.2 0 .5.1.7.3h.1l-.2-.5 1.3-.5zm-4.2-3.2c-.5.2-.8.4-.9.5s-.1.2-.1.3.1.3.1.5c.1.2.1.3.2.4s.2.1.3.2c.2 0 .5 0 1-.2s.8-.4.9-.5c.1-.2.1-.4-.1-.8-.1-.2-.2-.4-.2-.5-.1-.1-.2-.1-.3-.2-.1 0-.4.1-.9.3z" fill="#6fb62c"/><path d="m48.6 10.7-1.4.4-.1-.6h-.1c-.1.3-.2.5-.4.6-.2.2-.6.3-1 .4s-.8.2-1.1.1c-.3 0-.5-.1-.7-.2s-.4-.3-.5-.5-.2-.6-.3-1.1l-.5-1.6 1.4-.3.4 1.7c.1.3.1.5.2.6s.1.2.2.3.2.1.4.1c.1 0 .3 0 .6-.1.5-.1.7-.3.9-.4.1-.1.1-.2.1-.4 0-.1 0-.4-.1-.8l-.4-1.6 1.4-.3z" fill="#6fb62c"/><path d="m50.2 7.8-1.4.2c0-.3 0-.5.1-.7.1-.3.4-.5.7-.6.4-.1 1-.2 1.8-.3.6-.1 1.1-.1 1.3-.1s.4.1.6.2c.1.1.2.3.3.4.1.2.1.4.2.8l.3 2.3-1.4.2-.1-.5h-.1c-.1.2-.2.4-.4.5-.1.1-.3.1-.5.2-.2 0-.6.1-1 .2-.4 0-.7.1-.9 0-.2 0-.4-.1-.5-.2-.2-.2-.3-.4-.4-.8s0-.8.2-1 .4-.3.7-.4.8-.2 1.6-.3h.7s.3.1.4.2h.1v-.2c0-.3-.1-.5-.2-.5-.1-.1-.4-.1-.8 0-.5.1-.8.1-1 .2-.2 0-.3.1-.3.2zm1.1 1c-.5.1-.8.1-.9.2s-.2.2-.2.3c0 .2.1.3.2.3s.4 0 .8 0c .5-.1.8-.1 1-.2s.2-.2.2-.4-.1-.3-.3-.3c.1 0-.3 0-.8.1z" fill="#6fb62c"/><path d="m54.7 6h1.4v.6h.1c.2-.4.8-.7 1.6-.6.5 0 .8.1 1.1.2s.5.3.6.6c.1-.3.3-.5.6-.6s.6-.2 1.1-.2c.4 0 .7.1 1 .2s.5.2.6.4c.2.2.3.4.3.6s.1.6 0 1.1l-.1 1.9h-1.4l.1-1.8c0-.3 0-.5 0-.6s-.1-.2-.1-.3c-.1-.1-.4-.2-.8-.2s-.7.1-.9.2c-.1.1-.1.2-.2.3 0 .1-.1.4-.1.7l-.1 1.6h-1.4l.1-1.8c0-.3 0-.5 0-.6s-.1-.2-.1-.3c-.1-.1-.4-.2-.8-.2s-.7.1-.9.2c-.1.1-.1.2-.2.3 0 .1-.1.4-.1.7l-.1 1.6h-1.4z" fill="#6fb62c"/><path d="m65.4 10.6 1.4-5.3 3.8 1c .7.2 1.1.3 1.3.4s.4.1.6.3c.5.2.8.6.8 1.2v.6s-.1.5-.2 1-.2.8-.3 1.1c-.1.2-.2.4-.3.6-.3.4-.7.6-1.2.6-.2 0-.5 0-.8-.1-.3 0-.7-.2-1.3-.3zm2-.9 2.2.6c.4.1.7.2.9.2h.5c.1-.1.2-.2.3-.3.1-.2.2-.4.2-.7.1-.3.1-.6.1-.8s0-.3-.1-.4-.2-.2-.3-.3c-.2-.1-.5-.2-1-.3l-2.2-.6z" fill="#6fb62c"/><path d="m74.2 9.1 1.4.5-1.4 3.6-1.4-.5zm.5-1.5 1.4.5-.4 1-1.4-.5z" fill="#6fb62c"/><path d="m76.5 9.7 1.2.6-.3.5h.1c.4-.3 1-.3 1.7.1.4.2.7.4.9.7s.3.5.3.8c.2-.2.5-.3.8-.3s.6.1 1.1.3c.4.2.6.4.8.5.2.2.3.4.4.6s.1.5 0 .7c0 .2-.2.6-.4 1l-.8 1.6-1.3-.7.8-1.6c.1-.3.2-.4.2-.5s0-.2 0-.3c-.1-.2-.3-.4-.6-.6-.4-.2-.7-.2-.9-.2-.1 0-.2.1-.3.2s-.2.3-.4.6l-.6 1.7-1.3-.7.8-1.6c.1-.3.2-.5.2-.6s0-.2 0-.3c-.1-.2-.3-.4-.6-.6-.4-.2-.7-.3-.9-.2-.1 0-.2.1-.3.2s-.2.3-.4.6l-.7 1.4-1.3-.4z" fill="#6fb62c"/><path d="m84.7 14.2 1.2.8-2.1 3.2-1.2-.8zm.9-1.4 1.2.8-.6.9-1.2-.8z" fill="#6fb62c"/><path d="m87.6 15 1.2.9-.5.7 1.8 1.4-.6.8-1.8-1.4-.7.9c-.2.2-.3.4-.3.5 0 .2.1.3.3.5s.4.2.5.2.1-.1.1-.1.1-.1.2-.3l1.1.8c-.2.3-.4.5-.5.6s-.3.2-.5.2c-.2.1-.5 0-.7-.1s-.6-.3-1-.6-.6-.5-.8-.7c-.1-.2-.2-.4-.3-.6 0-.1 0-.3 0-.4s.1-.3.2-.4c0-.1.2-.2.4-.5l.7-.9-.6-.5.6-.8.6.5z" fill="#6fb62c"/><path d="m91.5 18.1 1.1 1-.6.7 1.7 1.6-.7.8-1.7-1.6-.8.8c-.2.2-.3.4-.3.5s0 .3.2.5.4.3.5.2c.1 0 .1 0 .1-.1s.1-.1.3-.3l1 .9c-.3.3-.5.5-.6.5-.1.1-.3.2-.5.2s-.5 0-.7-.1-.5-.3-.9-.7c-.3-.3-.6-.6-.7-.8s-.2-.4-.2-.6c0-.1 0-.3.1-.4 0-.1.1-.3.3-.4 0-.1.2-.2.4-.5l.8-.8-.6-.5.7-.8.6.5z" fill="#6fb62c"/><path d="m94.8 26.4 1 1.1c-.3.2-.7.4-.9.3-.2 0-.5-.2-.8-.4s-.6-.6-1.1-1.1c-.4-.4-.6-.8-.8-1-.2-.3-.2-.5-.3-.7 0-.2 0-.5.2-.7.1-.2.4-.5.8-.8.3-.2.5-.4.7-.5s.3-.2.5-.2c.3-.1.7 0 1 .2s.7.6 1.2 1.1c.4.5.7.8.8 1.1.3.4.3.8.2 1.1s-.4.7-.9 1.1c0 0-.1.1-.3.3l-2.5-2.9c-.1.1-.2.2-.3.3 0 .1-.1.2-.1.3 0 .2.2.5.5.8.2.2.4.4.5.5s.2.2.3.2.2 0 .3-.1zm.9-.7c.1-.1.2-.2.2-.2s.1-.1.1-.2c0-.2-.2-.5-.5-.9s-.6-.6-.7-.6c-.2-.1-.4 0-.6.2z" fill="#6fb62c"/></svg>