<svg enable-background="new 0 0 113.6 113.5" viewBox="0 0 113.6 113.5" xmlns="http://www.w3.org/2000/svg"><path d="m23.5 102.7c-.3-.1-.6-.3-.7-.5-.2-.2-.3-.4-.4-.7 0-.1 0-.1 0-.2 0 0 0-.1.1-.1l.1-.1h.1c.2.2.1-.1.2-.2s.2-.1.3-.2c.4 0 .8 0 .6.6-.1.1-.3-.1-.4.1h.3c1.1.2 2.1.5 2.5 1.7 0 .1-.2.2-.1.3 0-.1 0-.2.1-.2.1-.2.2-.5.6-.6.2 1.1 1.5.6 1.9 1.6 1-.8 1.1.7 1.9.6.4.2.6.6 1 .7.1.1.2.1.3.2.1.2.2.4.4.6.7-.4 1.4-.1 2 .3 1.2.7 2.5 1.3 3.8 2-.1-.5.1-.7.6-.6.7.2 1 .8 1.5 1.3.1.1.2.1.3.2 2.1.3 4.1.8 6.2 1.1h.4c5.3 1.3 10.7 1.5 16 .6h.4c.3.1.6 0 .8-.2s.5-.3.8-.4c.3 0 .4.1.4.4 5.8-.6 11.1-2.5 16.6-5.6 1.1 0 2.3-1.2 3.7-1.7.1-.3-.4-.6 0-1 1.6.2 2.7-1.1 4-1.7 0-.1.1-.2.1-.3.1-.3.1-.6.4-.9 1.4.1 2.3-.9 3.1-1.9 0-.1 0-.2.1-.3 1.4-1.2 2.7-2.5 3.9-3.9l.1-.1c.1 0 .2-.1.3-.1.9-.8 2-1.5 1.9-2.9.2-.4.6-.4.9-.5.1 0 .2-.1.3-.1.2 0 .3-.2.4-.4 0-.1.1-.2.1-.3.6-1.4 1.5-2.5 2.4-3.7 0-.1.1-.2.2-.3.6-1.1 1.4-2.2 1.4-3.1 3-5.1 4.6-10.2 5.6-15.5 0-.1 0-.2 0-.3.2-.5-.4-1.2.4-1.5.1 0 .1.1.2.1 0-.1-.2-.1-.2-.2-.1-.6-.1-1.2 0-1.8.6-2.8.6-5.6.4-8.4-.2-2.1 0-4.3-.9-6.4-.4-.9-.3-2-.5-3.1-.6-3.5-1.9-6.7-3.2-9.9-1.4-3.3-3.3-6.3-5.1-9.4-.3-.4-.5-.9-.6-1.4-.1-.1-.1-.2-.2-.3-1.4-1.2-2.5-2.8-3.5-4.3-.1-.1-.1-.2-.2-.3-1.5-1.1-2.8-2.5-4.1-3.9 0-.1.1-.2.1-.3-.1.1-.2.2-.3.1-1.1-.5-1.9-1.4-2.8-2.1-2.8-2.4-6.2-4-9.3-5.9-.1 0-.2 0-.3-.1-1.1-.2-2-1-2.6-1.1-2.7-1.3-4.9-2.1-7.6-2.5-2-.9-4.4-1.2-6.8-1.6-3.5-.6-7.1-.7-10.7-.3-.4 0-.8-.2-1.2-.2-.1 0-.2 0-.3.1-2 .6-4.1.6-6.1 1.1-.7.2-1.3.2-1.9-.3-.1-.1-.1.2 0 .1s0 0 .1.1c.4.4.1.6-.3.8s-.9.3-1.4.3c-1.6 0-2.9.8-4.2 1.8-.7-.2-1.5.1-2.2.5-1.1.6-2.3 1.2-3.6 1.5-.5.1-.8.3-1.1.7-.6.6-1.3.9-2.1.5-.4.9-1.2 1.4-2 1.8-1.7 1-3.3 2.1-4.8 3.4-3.4 2.9-6.5 6.1-9.3 9.6-.1.1-.2.2-.3.2-.1.1-.2-.2-.4 0 .1 0 .2 0 .2.1 0 1.1-1.1 1.5-1.3 2.4 0 .1-.1.2-.1.3-.5.3-.4 1.4-1.4 1-.1-.1-.2-.1-.2-.2-.1-.1-.3-.2-.4-.4 0-.1 0-.2.1-.3 2.9-5 6.8-9.3 11.1-13.1 8.2-7 17.7-11.4 28.3-13 29-4.3 56.1 13.7 63.4 41.7 8.1 31.1-10.8 62.3-42.1 69.6-15.8 3.6-30.7.8-44.3-8.2-.2-.2-.5-.4-.7-.6-.4-.4-.8-.3-1.2-.4z" fill="#d93932"/><path d="m8.5 26.7v.3c.1.2.4.1.5.3.1.3.2.6.3.9-.1.4-.4.5-.8.5.4.6.2 1.3-.3 1.7-.6.5-.9 1.1-1 1.8-.3 1.3-1 2.3-1.5 3.5-.3.7-.6 1.4-.4 2.1-1 1.2-1.4 2.6-1.5 4.1-.1.7-.4 1.3-.9 1.9-.1.1-.3 0-.4-.2.3.4.5.8.4 1.2-.6 1.5-.1 3.3-1 4.8-.1.1.1.3.2.4.6.8-.5 1-.5 1.6 0 .1-.1.2-.1.3.3 1.4-.1 2.7 0 4.1.1 1 .2 2.1-.1 3.1.2.9.9 1.7.3 2.3.5 2 .6 3.8 1 5.6.5 2.1.8 4.3 1.8 6.3.2.4.2.9 0 1.3-.1.1-.3.1-.4 0 0 .1.1.1.2.2.9.3 1.1 1.1.6 2.2-.3.2-.7.3-1 0-.1-.2 0-.6-.3-.8-.1-.2-.1-.4-.1-.6 0-.1 0-.2 0-.3s.1-.2.2-.2h-.1c0 .1 0 .1-.1.2 0 .1-.1.1-.1.2h-.1c-1.6-3.9-2.4-8.1-2.9-12.2-1-9.4.1-18.5 3.5-27.3 1.2-3.2 2.6-6.4 4.6-9.3z" fill="#d93932"/><path d="m3.7 77.1c.3-.1.7-.2 1-.3.9.3 1.2 1.3 1.8 1.9-.4 1.8.8 2.9 1.6 4.2 0 .9 0 1.9 1.2 2.2.2.1.3.5.5.7.1.1.1.2.1.3v.3c0 .1 0 .2-.1.3.8.5 1.4 1.1 1.3 2.1.3-.3.5-.1.7.1.1.1.2.2.3.2.3.3.6.6.2 1.2.6-.1.9.4 1.1.8.1.1.1.2.2.3.4.3.3.7.4 1.1 0 .1-.1.1 0 .2 0-.1 0-.1 0-.2 0-.2 0-.4.4-.6.2.7 1.2 1.1.3 2-.2.1-.4 0-.6-.1-.1-.1-.2-.2-.3-.2s-.2 0-.3 0c-4.3-4.9-7.6-10.4-9.8-16.5z" fill="#d93932"/><path d="m22.5 101.4c.1.2.2.5.3.7-1-.5-1.8-1.2-2.6-2l .1-.1c.3-.3.7-.3 1.1-.2.1 0 .2.1.3.1.4.4 1.2.5.8 1.3 0 0-.1.1 0 .2z" fill="#da3a32"/><path d="m15.9 96.1c-.5-.3-.9-.8-1.2-1.3 0-.1.1-.1.1-.2.3-.2.5-.4.9-.4 1.3.7 1.4.8 1.5 1.9-.4.5-.7.1-1.1 0-.1 0-.2 0-.2 0z" fill="#da3a32"/><path d="m20.2 100.2c-.8-.5-1.4-1.1-2-1.8 0 0 0-.1.1-.1.2-.2.5-.4.8-.4.1 0 .2.1.3.1.2.4.3.8.8.8.1.1.2.2.2.3.2.3.1.7-.2 1.1z" fill="#da3a32"/><path d="m23.5 102.7c.3-.5.7-.3 1.1-.1.1.4-.1.5-.3.6-.4 0-.6-.2-.8-.5z" fill="#d93831"/><path d="m17.4 97.7c-.4-.2-.8-.6-1-1l .1-.1c.2-.1.3 0 .5-.1.1 0 .2 0 .3.1.3.3.6.6.2 1 0 0 0 0-.1.1z" fill="#da3a32"/><path d="m14.1 93.6c.1.2.3.2.5.3.2.2 0 .4-.1.6l-.1.1c-.4-.2-.7-.5-.8-1l .1-.1c.1-.1.3-.1.4.1z" fill="#da3a32"/><path d="m3.4 76.3c.1.1.3.1.5.2-.1.2-.1.4-.2.5-.2-.1-.2-.4-.3-.7z" fill="#d93932"/><path d="m3.5 75.5v.8c-.3-.2-.2-.5-.3-.7l.1-.1c0-.1.1-.1.2 0z" fill="#d93932"/><path d="m18.2 98.4c-.2-.1-.4-.2-.5-.5l.1-.1c.1 0 .2-.1.3 0 .1 0 .2.1.2.2.1.1 0 .2-.1.4z" fill="#da3a32"/><path d="m16.1 96.4c-.1-.1-.2-.2-.3-.3h.1c.1 0 .2 0 .3.2 0 0 0 0-.1.1z" fill="#da3a32"/><path d="m16.4 96.7c-.1-.1-.2-.2-.3-.3l.1-.1c.2 0 .3.1.2.4z" fill="#da3a32"/><path d="m17.7 97.9c-.1-.1-.2-.2-.3-.2h.1c.2-.1.3 0 .2.2z" fill="#da3a32"/><path d="m14.7 94.8c-.1-.1-.2-.2-.2-.3.1 0 .2.1.2.3z" fill="#da3a32"/><path d="m2 50.1c-.4-.4-.3-.4-.3-.8.1-.7.5-1.2.4-1.9 0-.9 0-1.9.5-2.7.1-.6-.6-1.1-.4-1.7.3.1.1.6.6.6.3-.5.1-1.3.9-1.6-.3-.2-.4-.3-.6-.4 1-1 .4-2.8 1.7-3.7.1-2.6 2.3-4.4 2.4-7 .7-.4 1.3-.9 1.3-1.9-.2 0-.4-.1-.5-.1.1-.7.8-.3 1.1-.5.2-.4-.1-.8 0-1.1.2.1.3.2.4.4.5-.3.4-1.1 1.1-1.1-.1-.2-.2-.4-.3-.6.8-.5 1.4-1.2 1.6-2.2 3.6-4.4 7.6-8.4 12.3-12.1.6.1 2.9-1.4 3.2-2.4.3 0 .5 0 .8.1.4-.3-.1-1 .6-1.2.3.1 0 .4.1.5 1.4-.1 1.5-.1 2-1.2 2.4-.2 4.3-2.1 7.1-2.5 1.3-1.3 3.5-1.4 5.5-1.7.1-.6-.4-.4-.6-.7 3 .2 5.8-.6 8.6-1.1.5-.5.8.4 1.4.1 6-.5 12 .2 18.2 2.1.6-.4 5.8 1.3 6.3 2.3 1.3.1 2.4.9 3.5 1.3 1.8.5 3.2 1.7 4.8 2.6 1.8 1 3.4 2.1 5 3.4.8.7 1.8 1.4 2.7 2.1.5.6 1 1.1 1.7 1.5.5.3.9.6 1.1 1.2.1.5.6.8 1.2.8.5 0 .3.4.4.6h-.1v.1-.1c1.2 1.6 2.3 3.3 3.8 4.6.7 2.1 2.2 3.7 3.2 5.5 1.4 2.7 2.8 5.3 3.7 8.2.3.9.9 1.8 1.5 2.9-.4 2.2 1.2 4.5 1 7.3.2.3.5.8.8 1.4.6 5.2.3 10.4-.2 15.6-.3 0-.5.2-.4.5s.2.7-.1 1c .3.7.2 1.5-.1 2.1-.9 2.2-1.3 4.4-2.1 6.6-.8 2.1-1.8 4.1-2.7 6.2-.1.2-.3.6-.6.3.1 1.6-.7 2.7-1.6 3.9-.1-.1-.3-.2-.3-.4.1-.1.1-.1.1-.2 0 .1 0 .1-.1.2 0 .2.2.3.3.4-.2.2-.1.5.1.6-1.4.8-1.7 2.3-2.6 3.4v.6c-.2 0-.3-.1-.5-.1-.1.5-.6.3-.9.4-.2.4.1.7.1.9-.3 1.1-1.5 1.5-2 2.5-.2 0-.2-.2-.3-.3-.1 0-.2 0-.3 0l-.1-.1c-.1-.2-.2-.4-.2-.6 0-.1 0-.2 0-.3.9-1.5 2.2-2.7 3.1-4.2.1-.1.2-.3.2-.4.1-.2.1-.3.2-.4s.2-.3.3-.4.2-.3.3-.4c2.6-3.9 4.6-8.1 6.2-12.5 0-.1 0-.2.1-.3-.1-.5.3-.8.5-1.2.1-.2.1-.3.2-.5.9-3.3 1.7-6.6 1.9-10.1 0-.1 0-.3 0-.4 0-.3 0-.7 0-1 0-.1 0-.3 0-.4.3-3.1.3-6.1-.2-9.4-1.8 1.3-3 3.1-4.6 4.3-.6.2-1 0-1.5-.3-1.9-1.7-3.5-3.7-5.5-5.4.2 1.7.4 3.4.7 5.1v2.3c-.1 1.9-.2 3.8-.4 5.7-.1 1.2-.1 2.5-.7 3.7-.8 3.4-1.9 6.7-3.6 9.8-.1.2-.2.4-.3.6-.4.6-.6 1.3-1 1.8-.2.2-.4.4-.5.7-2.1 3.4-4.6 6.3-7.5 9-1 .9-2 1.8-3.1 2.6-.1.1-.3.2-.4.3-.4.3-.8.7-1.3.9-.2.1-.3.2-.4.3-5.2 3.6-10.9 5.7-17.1 6.6-.3 0-.7.1-1 .2-9.7 1.1-18.7-.8-27.1-5.7-.5-.3-.9-.6-1.3-.9-.6-.4-1.2-.6-1.8-1-3.3-3-6.7-6-9.4-9.6-.6-.8-1.2-1.6-1.6-2.5-.1-.2-.2-.4-.2-.7 0-.2.2-.5 0-.6-.8-.1-.8-1-1.3-1.4-.1-.1-.2-.3-.3-.4-1.6-3.1-2.7-6.4-3.6-9.8-.5-1.2-.5-2.4-.7-3.7-.2-1.8-.3-3.6-.4-5.4-.1-.7-.1-1.4-.1-2.1 0-.1 0-.2 0-.3 0-.2.1-.5.1-.7.3-1.5.4-3 .6-4.6-2 1.7-3.6 3.7-5.5 5.3-.4.3-.8.6-1.3.4-1.4-.9-2.4-2.3-3.6-3.4-.5-.4-.9-.9-1.4-1.3-.1-.1-.2-.1-.3-.2-.2-.1-.4-.2-.6-.2.1-.3 0-.3 0-.3z" fill="#d93831"/><path d="m97.5 93.6c-.3.3.1 1.3-1 .9-.2 1.1-.9 1.9-2.1 2.1.6 1.1-.9.7-1 1.3.1 0 .2.1.5.2-1.2.5-1.5 1.7-2.6 2.1-.3-.1-.6-.2-.9-.3-.4.3 0 .9-.6 1v .4c-1.2.2-2.1 1.2-3.3 1.7-.3.2-.5-.4-.8-.2 0 .4.6.5.3 1.1-1.6.1-2.7 1.9-4.4 1.7-.9 1.1-2.2 1.7-3.4 1.9-1.3.2-2 1.8-3.4 1.3-.4.3 0 .5 0 .5-2.9.3-5.4 1.4-8.2 2-.2-.1-.5-.3-.9-.5-.3.2.3.6-.3.7-.5 0-.2-.6-.5-.7-.5.2-.9.6-1.1 1-.5.1-.6-.3-.8-.4-.6.7-1.4.3-2.1.5-2.3.7-4.7.1-7.1.3-1 .1-2.1-.1-3.1-.4-.6-.1-1.1-.1-1.8.1-.6-.8-1.7-.5-2.4-1-.6.6-1 0-1.5-.2-.2.2-.1.5-.4.4-.4 0-.1-.5-.2-.5-1.6-.1-3-.4-4.5-.7-.7-.5-.9-1.7-2.1-1.5.2.2.3.3.5.4-1.2-.3-2.5-.5-3.4-1.4-.3-.3-.6-.1-1.1.1.1-.3.2-.5.3-.6l.1-.1c.2-.1.5-.2.7-.3h.4c2.3.7 4.5 1.6 6.9 2.3 5.2 1.4 10.4 2.1 15.8 1.9 2.2 0 4.4-.3 6.6-.6 7.4-1.1 14.3-3.8 20.7-7.7.1-.1.2-.1.3-.2.3-.2.6-.5 1-.7.2-.1.4-.2.6-.4 3.1-2.1 5.9-4.5 8.5-7.2.4-.4.7-1 1.4-1l .1.1c.2 0 0 .4.3.6z" fill="#d93831"/><path d="m14.7 94.8c-.1-.1-.2-.2-.2-.2.1-.2.1-.5.2-.7.1-.1.3-.2.6-.4-1-.1-.6-.8-.8-1.2-.5 0-.3.5-.6.6-.1-.5-.1-.9-.5-1.3-.3-.5-.4-1.2-1.6-.9.9-.7.5-1 .1-1.4-.1-.1-.3-.2-.4-.3-.2.2-.3.4-.5.7.2-.8 0-1.4-.4-2.2-.3-.3-1.1.1-1.1-.7.1-.2.3 0 .4 0 0-.2 0-.3 0-.5-.4-.9-1.4-1.2-2-2 .1-.4.1-.9.2-1.3v-.1c0-.1.1-.1.2-.2.1 0 .2-.1.3-.1.2 0 .3-.2.5-.1 1 1.3 1.7 2.8 2.6 4.2.1.1.2.2.3.3.1 0 .2.1.2.1h.6s.3 0 .4.2c.2.5-.5.7-.3 1.1 3.6 4.9 7.8 9.2 12.9 12.6.1.1.3.2.4.3.4.2.7.5 1.1.7.1.1.2.1.3.2 1.1.8 2.5 1.2 3.4 2.3 0 .2-.1.4-.2.5-.1 0-.1 0-.2.1-.3.1-.6.4-.9.1-.4-.2-.2-.6-.3-.8-.6-.3-.3.6-.8.5-.2-.3-.3-.6-.5-.9-.5-.1-.9-.2-1.4-.3 0-.3 0-.5 0-.8-.3.2-.5.4-.7.6-.1-1.1-1.1-1.2-1.9-1.6-.3-.1-.5-.2-.7-.5.1-.1.2-.2 0-.5-.2 0-.4 0-.6 0s-.1.2-.3.3c-.1 0-.2 0-.3 0 .1-.7-.8-.7-1-1.3-.4.1-.8.1-1.2.2 0-.4 0-.8 0-1.2h.1v-.1.1c-.3 0-.7 0-1 0-.2-.4.3-.7 0-1h .1-.1v.1c-.2.3-.6.4-1 .5 0-.2 0-.3 0-.5.2-.3.1-.6.2-.9 0-.1.1-.1.2-.1-.1 0-.1 0-.2.1-.1.3 0 .6-.2.9-.2 0-.3 0-.5 0-.1-.1-.2-.2-.2-.2.3-.4-.2-.7-.3-1 .1 0 .1-.1.2-.2l.1-.1-.1.1c-.1 0-.1.1-.2.1-.2 0-.5 0-.7 0-.1-.1-.2-.2-.3-.2-.1-.1-.2-.2-.2-.3.4-.5.6.3 1 0 0-.9-.8-1.2-1.4-1.6-.2 0-.5.1-.8.2z" fill="#d93831"/><path d="m34.2 106.8c-.4-.4-1.1.1-1.4-.4-.4.1-.2.5-.4.6-.4-.3-.8-.6-.7-1.2-.2 0-.5 0-.8 0-.1-.3-.2-.5-.3-.8.3-.2.7-.2 1-.3.4 0 .6.1.8.4v.3c.1-.1.1-.2.2-.2.4 0 .6.1.8.4.1.4.5.2.8.3s.7.2.7.6l-.1.1c-.1.1-.4-.1-.6.2z" fill="#d93831"/><path d="m26.3 104.2c.3-.3.4-.1.6 0-.4.3-.5-.1-.6 0z" fill="#d93831"/><path d="m104.4 26.5c-.2.3-.3.4-.4.5-.2-.3-.1-.4.4-.5z" fill="#d93831"/><path d="m103.4 26.2c.1.1 0 .2-.1.2 0 0-.1 0-.1-.1s.1-.1.2-.1z" fill="#d93831"/><path d="m93.3 15.4c.2-.1.3-.2.4-.3 0 .3-.2.2-.4.3z" fill="#d93831"/><path d="m106.7 32.3s.1 0 0 0c .1.1.1.1 0 0z" fill="#d93831"/><path d="m22.8 101.2c0-.1 0-.2.1-.3.1 0 .1.1.2.1v.3c-.2-.1-.2-.1-.3-.1z" fill="#da3a32"/><path d="m9.1 27.3c-.2 0-.4 0-.5-.3.2 0 .4.1.5.3z" fill="#d93831"/><path d="m106.2 82c0-.1 0-.1 0-.2z" fill="#d93831"/><path d="m42.2 3c-.1 0-.1.1 0 0-.1.1-.1.1-.1.1l.1-.1c-.1 0-.1 0 0 0z" fill="#d93831"/><path d="m81.6 106.4s.1-.1 0 0c .1-.1.1-.1 0 0 .1 0 .1 0 0 0z" fill="#d93831"/><path d="m11.9 23.7h-.1v-.1z" fill="#d93831"/><path d="m96.2 96.4v-.2l.1.1z" fill="#d93831"/><path d="m96.2 96.4-.1.1v-.1z" fill="#d93831"/><path d="m111.4 64.9h.1v.1z" fill="#d93831"/><path d="m22.5 101.4v-.2z" fill="#d93831"/><path d="m22.8 101.2h.3l-.1.1c-.1 0-.2-.1-.2-.1z" fill="#d93831"/><path d="m23.5 101.4h-.1l.1-.1z" fill="#d93831"/><path d="m26.1 103.5-.1.1v-.1z" fill="#d93831"/><path d="m8.6 82.6c-.1 0-.2 0-.3 0-.1.1-.2.2-.3.3-1.1-.8-1.4-2.1-2-3-.2-.5.1-.8.2-1-.6-.7-1.1-1.4-1.6-2.1.3-.6-.7-1 0-1.5-.3-.2-.5-.4-.7-.5.3-.6.5-1-.2-1.6-.6-.5-.3-1.4-.6-2.1-.8-2.2-1-4.6-1.5-6.8-.2-.9-.1-1.8-.5-2.7.7-.9-.1-1.6-.2-2.3.3-1.8.2-3.5 0-5.3 0-.4.5-.5.4-.9.3-.5-.8-.8-.2-1.3 0-.6.8-.9.8-1.5.2-.2.5-.2.7 0h .1c.4.4.4.9.3 1.4-.4 2.7-.1 5.3-.2 8v .8c0 .4.1.8.2 1.3v.4c.3 3.4 1.1 6.7 2 10 0 .2.1.4.1.5-.2.5.3.7.4 1.2.1.1.1.2.1.3.8 2.5 2 4.9 3.1 7.4 0 .2 0 .6-.1 1z" fill="#d93831"/><path d="m3.5 75c-.2-.2-.6-.3-.2-.6.3.1.1.4.2.6z" fill="#d93831"/><path d="m4 74.8-.1-.1z" fill="#d93831"/><path d="m3.5 75.3c0-.1 0-.2 0-.3l.1.1c0 .1-.1.1-.1.2z" fill="#d93831"/><path d="m3.5 75.5c-.1 0-.2 0-.2 0 .1-.1.1-.2.2-.2z" fill="#d93831"/><path d="m14.1 93.6c-.2 0-.3 0-.5 0 .2-.3.4-.3.5 0z" fill="#d93831"/><path d="m13.9 92.8-.1.1z" fill="#d93831"/><path d="m32.4 105.2c-.3-.1-.5-.3-.8-.4-.3.1-.6-.1-.8-.4-1.1-.9-2.5-1.3-3.6-2.3.1-.4.5-.5.8-.6.1 0 .2-.1.3-.1.2-.1.5-.1.7-.2.1 0 .2-.1.3-.1.2-.1.5-.1.7-.2.1 0 .2-.1.3-.1.2-.1.4-.1.6-.2.1 0 .2-.1.3-.1.3-.1.5-.1.8-.2.1 0 .2-.1.3-.1.6-.1 1.2-.3 1.8-.5.6-.1.6-.6.5-1-.1-.5-.2-1-.3-1.5 0-.1-.1-.2-.1-.3 0-.3-.1-.5-.2-.8 0-.1-.1-.2-.1-.3-.1-.4-.2-.9-.4-1.3 0-.1-.1-.2-.1-.3-.1-.3-.1-.5-.2-.8 0-.1-.1-.2-.1-.3 0-.5-.5-1 0-1.5 4.5 3 9.4 5.1 14.8 6.2 4.6.9 9.2 1 13.8.6.1-.1.2-.1.4 0 .4.5.4 1.1.3 1.8-1.1.8-2.6.5-3.9.9 3.1-.5 6.2-.9 9.2-1.6-1.5.5-3 .9-4.5.6-.4-.6-.3-1.2-.6-1.6-.1-.1 0-.2 0-.3 5.8-.8 11.1-2.8 16-5.8.4-.2.8-.5 1.2-.7.2.1.2.3.2.5 0 .1 0 .2-.1.3-.1.2-.1.4-.1.6 0 .1 0 .2-.1.3-.1.3-.1.5-.2.8 0 .1-.1.2-.1.3-.2.4-.3.8-.4 1.3 0 .1 0 .2-.1.3-.1.3-.2.6-.2.9 0 .1-.1.2-.1.3-.1.5-.2.9-.3 1.4s-.1.9.5 1c .6.2 1.2.3 1.7.4.1 0 .2.1.3.1.2.1.5.1.7.2.1 0 .2.1.3.1.2.1.4.1.6.2.1 0 .2.1.3.1.2.1.5.1.8.2.1 0 .2.1.3.1.6.3 1.4.1 1.8.9-4.2 2.9-8.8 4.9-13.6 6.3-2.3.7-4.7 1.4-7.1 1.6-.4.1-.8.2-1.1-.1.5-1.6-.2-3.2 0-4.7.8-.9 1.7-.6 2.6-.3 0-1.1-.1-2.1-.3-3.2-2 .2-3.8.8-5.9.7.1 1.4.2 2.7.7 3.9-.1 1.7-1.3 2.7-2.3 3.8-.2.2-.4.4-.6.6-7.5.4-14.8-1.1-21.8-3.9-.4-.2-.9-.3-1.3-.5-.3-.1-.6-.3-.8-.4-.3.1-.5-.1-.7-.3-.3-.1-.5-.3-.8-.4 0 .2-.1.2-.2.1z" fill="#010203"/><path d="m56.4 20.4c20 0 36 16.1 36 36.2 0 20-16.2 36-36.2 35.9-19.9 0-35.9-16.2-35.9-36.2 0-19.9 16.1-35.9 36.1-35.9z" fill="#191211"/><path d="m97.1 92.7c-2.6 2.7-5.2 5.3-8.3 7.4-.5.4-1.1.7-1.6 1-.4.1-.7 0-1.1 0-.1 0-.2-.1-.3-.1-.2-.1-.5-.1-.7-.2-.1 0-.2-.1-.3-.1-.2-.1-.5-.1-.8-.2-.1 0-.2-.1-.3-.1-.4-.2-.9-.3-1.4-.4-.1 0-.2-.1-.3-.1-.2-.1-.5-.1-.8-.2-.1 0-.2-.1-.3-.1-.2-.1-.4-.2-.4-.5.1-.3.2-.5.5-.6 4.8-2.7 8.7-6.4 12.5-10.4.2-.1.3-.2.5-.3.1-.1.3-.1.4-.1 1.5-.1 3 0 4.5 0 .5 0 1-.1 1.4.4-.7 1.9-2.1 3.1-3.2 4.6z" fill="#020203"/><path d="m81.7 90.5c4.1-3.3 7.9-7.1 10.6-11.7.7.1.6.6.6 1v7.1c0 .6-.2 1.1-.5 1.5-3.3 4-7.3 7.1-11.7 9.7-.2.1-.5.2-.7.2s-.4-.1-.4-.3c0-.1 0-.2 0-.4.1-.3.1-.5.2-.8 0-.1 0-.2.1-.3.2-.5.3-.9.4-1.4 0-.1.1-.2.1-.3.1-.3.2-.6.2-.9 0-.1.1-.2.1-.3.3-.7.4-1.5.6-2.2 0-.1.1-.2.1-.3.1-.2.2-.4.3-.6z" fill="#020203"/><path d="m20.7 78.9c2.4 4.1 5.7 7.5 9.3 10.6.6.5 1.2.9 1.6 1.6.7 1 .8 2.3 1.2 3.5 0 .1.1.2.1.3.1.5.2 1.1.4 1.6 0 .1.1.2.1.3.1.3.1.6.2.8v.4c0 .2-.2.3-.4.4-.4.1-.7-.1-1-.2-4.2-2.5-8.1-5.5-11.3-9.3-.6-.6-.8-1.3-.8-2.2 0-2.2 0-4.3 0-6.5.1-.5-.2-1.2.6-1.3z" fill="#020203"/><path d="m107.8 74.1c-1.5 4.2-3.3 8.2-5.8 12-.2.4-.4.7-.8 1-2.1.5-4.1.4-6.5.1 1.1-2.1 2.5-3.7 3.5-5.5s1.9-3.8 2.9-5.6c.1-.2.2-.3.4-.4.2-.2.4-.3.7-.4.1 0 .2-.1.4-.1.8-.2 1.6-.4 2.4-.7.1 0 .2-.1.4-.1.8-.2 1.6-1 2.4-.3z" fill="#020203"/><path d="m94.1 76c1.6-3.2 2.7-6.5 3.6-9.8.6 0 .6.5.7.9.6 2.1 1.2 4.2 1.7 6.4 0 .1.1.2.1.4.1.5.2.9.3 1.4 0 .5-.1.9-.3 1.3-1.3 2.9-2.9 5.6-4.7 8.2-.4.6-.4.6-1.3.9-.5-.9-.6-7.2-.1-9.7z" fill="#020203"/><path d="m15.4 66.2c.9 3.4 2.1 6.7 3.6 9.8.3.7.3 1.4.3 2.1v6c0 .5.1 1.1-.4 1.6-.6 0-1-.5-1.3-1-1.9-2.6-3.4-5.3-4.7-8.2-.2-.5-.3-1-.3-1.5.6-2.7 1.4-5.3 2.1-7.9.1-.3 0-.9.7-.9z" fill="#020203"/><path d="m5.5 50.3c-.9-.8-1.6-1.4-2.3-2.1 2.1-11 6.8-20.3 14.8-27.9.2.1.4.2.6.4-2.2 2.9-4.5 5.7-6.3 8.8-1.8 3.2-3.3 6.5-4.5 9.9-1.1 3.5-1.9 7.1-2.3 10.9z" fill="#070505"/><path d="m109.9 47.6c-.2 1.3-1.4 1.8-2.2 2.9-1.3-11.5-5.9-21.2-13.3-29.9 1.1-.3 1.4.3 1.7.7 7.1 7.1 11.5 15.7 13.6 25.5.1.2.1.5.2.7.1-.1.1 0 0 .1z" fill="#070505"/><path d="m8.2 53.2c-.3-.4-.6-.7-.9-1-.8-7.5 9-27.3 14.1-28.5.3.6-.2.8-.5 1.2-6.2 7.6-10 16.2-11.1 26-.1 1-.7 1.6-1.6 2.3z" fill="#070505"/><path d="m105.8 52.2c-.3.4-.6.8-1.1 1-.8-.6-1.4-1.3-1.5-2.3-1.1-9.7-4.9-18.3-11.1-25.8-.4-.5-.4-.5-.5-1.2 4.9.6 14.5 19.8 14.2 28.3z" fill="#070505"/><path d="m57.8 12.3c-.3 2.4-.5 2.7-2.3 3-.2-.8-1.1-.6-1.7-1.1.7-.8 1.5.2 2.5-.3.5-.4.3-1.2.3-2.1-1.1.6-1.9 1.5-3 1.8-1 .3-1.9 1.1-3.1.5 2.3-1 4.5-2 5.8-4.1-1.6.9-3.1 1.7-4.8 2.1-.2 0-.4.1-.8-.3 1.6-1.1 3.9-1.4 4.8-3.4-1.5.5-2.8 1.4-4.5 1.2 1-1 2.5-1 3.4-2.1-.7-.8-2 .5-2.6-.7-.4.3-.9.7-1.4-.1.6-.7 1.1-1.5 1.3-2.5 1.3.9 2.7.3 4 .5.2-.7-.6-.9-.3-1.7.9.2 1.5.7 1.7 1.6 1.4-.1 2.9.6 4.2-.2.4.2.7.5.8.7-.7.8-1.3 1.6-2 2.4-1.3 0-2.6 0-4.1 0 .3 1 .8 1.7 1.3 2.5 1.1-.4 1.8-1.3 2.6-2 .6.1.9.4 1.3.9-1.1.6-2.1 1.2-3.3 1.8 1.2 1.4 2.8 2.2 4.4 2.9-.2.6-.8.6-1.1.9-1.5-.4-2.4-1.6-3.5-2.5-.1.1.1.2.1.3z" fill="#050303"/><path d="m37.5 8.1c.9-.3 1.8-.4 2.3-1.2.5 0 .9.2 1.3.5-.4.6-.9 1.3-1 2.1 1.3.2 2.1-1.2 3.4-1 0 2 1.5 3.5 1.4 5.7-1.5-.9-2.4.2-3.5.4-.1.7.2 1.2.5 1.8 1.4-.4 2.7-.8 3.9-1.5.1-.8-.4-1.4-.1-2.1.9.5.6 1.8 1.5 2.1-.1.7-.6.9-1.1 1.1-1.1.4-2.1.9-3.2 1.2-1.6.6-1.8.4-2.4-1.1-.1-.3-.2-.5-.4-.8-.8.3-1.6.6-2.3.8-.4.3-.1 1-.9 1.1-.9-1.4-1.1-3.1-2-4.7-.4.1-.5.6-1.3.6 1.1-1.9 2.3-3.6 2.5-5.7.5-.2 1-.1 1.5 0v .6c-.2 0-.2 0-.1.1z" fill="#050203"/><path d="m110.4 61.9c-.2 3.6-1 7.1-2 10.5-.1.3-.4.3-.6.4-.1 0-.2.1-.3.1-.2.1-.5.1-.7.2-.1 0-.2.1-.3.1-.2.1-.4.1-.6.2-.1 0-.2.1-.3.1-.2 0-.4.1-.6.1-.1 0-.2.1-.3.1-.2.1-.5.1-.7.2-.1 0-.2.1-.3.1-.3.1-.5.2-.8.2-.1 0-.2 0-.3-.1s-.2-.2-.2-.3c-.1-.5.1-1 .2-1.5.8-2.2 1.3-4.4 1.8-6.7.1-.2.2-.5.3-.7s.3-.3.5-.4c.1-.1.2-.1.3-.2.2-.1.4-.2.5-.3s.2-.1.3-.2.2-.1.3-.1c.1-.1.2-.1.3-.1.2-.1.3-.2.5-.2.1 0 .2-.1.2-.1.1-.1.1-.1.2-.2s.1-.1.2-.1c.1-.1.2-.1.3-.2.1 0 .2-.1.2-.1.1-.1.2-.1.4-.2.1-.1.2-.1.2-.2.3-.2.6-.4.9-.5h.2c.1-.1.2 0 .2.1z" fill="#020203"/><path d="m2.5 60c0-3.3 0-6.6.3-9.9.2-.1.4 0 .6.2 1.5 1.5 3.1 3 4.5 4.6.3.3.3.7.3 1.1 0 2.3.1 4.5.2 6.8 0 .1-.1.3-.1.4-.1.1-.2.2-.3.3-.2 0-.4 0-.5-.1-.1 0-.2-.1-.3-.2-.2-.1-.3-.2-.5-.3-.1 0-.2-.1-.2-.1-.1-.1-.2-.1-.4-.2-.1 0-.2-.1-.2-.1-.1-.1-.3-.1-.4-.2-.1 0-.2-.1-.3-.2-.3-.2-.6-.4-.9-.5-.1 0-.2-.1-.3-.2-.3-.2-.6-.4-1-.6-.1-.1-.2-.1-.2-.2-.1-.2-.2-.4-.3-.6z" fill="#020203"/><path d="m105.3 54.9c1.4-1.8 3.2-3.2 4.9-5.1.2 1.2.4 2.1.4 3 .1 2.2 0 4.5 0 6.7 0 .2-.1.5-.2.7-.1.1-.1.2-.2.3s-.1.2-.2.2c-.3.2-.5.3-.8.5-.1.1-.2.1-.2.2-.1.1-.3.1-.4.2-.1 0-.2.1-.2.1-.1 0-.2.1-.2.1-.1 0-.1.1-.2.1-.1.1-.1.1-.2.2s-.1.1-.2.1-.2.1-.2.1c-.1 0-.2.1-.2.1-.1.1-.2.1-.4.2-.1.1-.2.1-.2.1-.2.1-.3.2-.5.3-.1.1-.2.1-.3.2-.2.1-.4.1-.6.1-.1 0-.1-.1-.2-.1-.1-.1-.1-.3-.2-.4.1-2.3.2-4.7.2-7 0-.3.1-.6.3-.9z" fill="#020203"/><path d="m88.5 26.5c6.4 6 10.7 13.2 11.9 22-1.2-1-2.7-1.7-3-3.3-1.6-6.8-5-12.8-9.4-18.2-.1-.1-.1-.2-.2-.3-.1-.2-.1-.4 0-.5s.3-.1.4 0c .2.1.3.2.3.3z" fill="#040203"/><path d="m24.8 27.3c-4.2 5.4-7.5 11.2-9.1 17.9-.2 1-1.7 2.5-3 3.3-.3-.8 0-1.5.2-2.2 1.8-7.7 5.7-14.2 11.5-19.6.1-.1.1-.2.2-.2.1-.1.1-.2.2-.2.1-.1.3-.2.4 0 .2.2.2.3 0 .5-.1.1-.2.2-.2.3s-.1.1-.2.2z" fill="#040203"/><path d="m98.2 62.5c.4-1.9.4-3.8.5-5.7.5-.2.5.2.7.5.6.8 1 1.8 1.6 2.7.1.1.1.2.2.3.1.2.2.5.3.7 0 .1.1.2.1.2.1.1.1.1.2.2s.1.1.1.2c.1.1.1.2.2.3 0 .1.1.1.1.2.1.1.1.2.2.3s.1.2.1.2c.1.2.2.3.3.5.1.1.1.2.2.3.1.2.2.5.3.7.1.1.1.2.1.3.1.2.2.4.2.6v.4c-.4 2.1-1 4.2-1.6 6.3-.2.6-.4 1.1-.8 1.5-.1.1-.2.1-.4 0-.2-.2-.3-.4-.4-.7-.1-.1-.1-.2-.1-.4-.3-1.4-.8-2.9-1.1-4.3-.4-1.7-.8-3.5-1-5.3z" fill="#030203"/><path d="m14.4 56.8c.1 1.9.1 3.8.5 5.7-.3 3.4-1.5 6.6-2.3 9.9-.1.3-.2.6-.4.8-.9 0-1-.8-1.2-1.3-.7-2.1-1.3-4.2-1.6-6.4 0-.1 0-.3 0-.4 0-.2.1-.3.2-.5 0-.1 0-.1.1-.2l.1-.1c.2-.3.3-.6.4-.8 0-.1.1-.2.2-.3.1-.2.2-.3.3-.5 0-.1.1-.2.2-.3.2-.3.3-.6.4-.9.1-.1.1-.2.2-.3.8-1.2 1.4-2.5 2.2-3.7 0-.3.1-.9.7-.7z" fill="#030203"/><path d="m9.1 54.4c1.9-2 3.8-4 5.8-6 .1.1.2.2.3.2-.3 1.8-.5 3.6-.8 5.4-.1.2-.1.4-.3.5-.5 1.9-1.8 3.3-2.7 5-.2.5-.5.9-.7 1.3 0 .1-.1.2-.2.3s-.1.2-.2.2l-.1.1c-.1.1-.2.3-.2.4s-.1.2-.2.3c-.1.2-.2.3-.4.3-.1-.1-.2-.2-.3-.3-.5-2.4-.8-5 0-7.7z" fill="#030203"/><path d="m98.7 54.1c-.3-1.8-.5-3.6-.8-5.4.1-.1.2-.2.3-.2 1.9 2 3.8 4 5.8 6 .7 2.6.5 5.2 0 7.8-.1.1-.1.2-.2.3-.2.1-.3 0-.5-.1-.1-.1-.1-.2-.2-.3s-.1-.3-.2-.4c0-.1-.1-.1-.1-.2-.1-.1-.1-.1-.2-.2s-.1-.1-.1-.2-.1-.2-.1-.2c0-.1-.1-.2-.1-.2-.1-.1-.1-.2-.2-.4-.1-.1-.1-.2-.2-.2-.1-.2-.2-.3-.4-.5-.1-.1-.1-.2-.2-.3-.7-1.8-1.9-3.4-2.6-5.3z" fill="#030203"/><path d="m70 4.7c.8 1 1.7 1.5 2.9 1.3.4.3.6.6.6 1.1-1.2.4-1.9 1.4-2.7 2.3 1.2 3 .7 4.8-1.5 5-.4-.4-.7-1-1.4-1.2-.6.9-.6 2.1-1.4 2.9-.6-.1-.8-.5-.6-.9 1.4-3.5 2.7-7 4.1-10.5z" fill="#090303"/><path d="m20.7 78.9c-.3.1-.3.4-.3.6v8.3c3.5 4.2 7.7 7.6 12.5 10.3.1.1.3 0 .5 0 .1-.1.2-.1.3-.1.1.1.1.2.1.3s-.1.3-.2.4c0 .1-.1.2-.2.2-.1.1-.2.2-.4.2-.1.1-.2.1-.2.2-.1.1-.2.1-.3.1s-.1 0-.2 0-.2-.1-.3-.1c-3.7-2-6.9-4.7-10-7.5-.8-.8-1.5-1.7-2.3-2.5-.3-.3-.6-.8-.2-1.2.3-.6.3-1.2.3-1.9 0-2.2 0-4.3 0-6.5 0-.5-.2-1.2.6-1.4.2.2.3.4.3.6z" fill="#c83931"/><path d="m79.7 98.1c.4.1.6-.1.9-.3 4.5-2.7 8.6-6 12-10.1 0-2.8 0-5.6 0-8.4 0-.2 0-.4-.3-.5.1-.3.3-.4.5-.5.4.4.4.9.4 1.4 0 2.3.1 4.7 0 7v .8.3s0 .1.1.1c.1.2.3.3.3.5-3.4 4.1-7.4 7.4-11.9 10.2-.4.2-.8.3-1 .7 0 .1-.1.1-.2.1s-.2 0-.2-.1c-.1 0-.1-.1-.2-.2 0 0-.1 0-.1-.1-.1-.1-.2-.1-.3-.2s-.1-.1-.2-.2-.1-.3-.2-.4c0-.1 0-.2.1-.3.1.1.2.1.3.2z" fill="#c83931"/><path d="m74.3 13.3c-1.5 2.6-3.9 3.9-6.1 3.2 2.1-.6 4-1.5 5.2-3.5 1.1-1.9 1.8-3.9 2.6-5.9.6-.1 1 .3 1.3.7-1.5 1.6-1.7 3.6-1.9 5.6s.3 3.9 1.6 5.4c-.5.5-.9.3-1.2.4-1.3-1.7-1.3-3.7-1.1-5.6 0-.3-.1-.4-.4-.3z" fill="#080303"/><path d="m12.8 75v .6c.5 1.9 4.4 8.5 6.1 10.1 0-3.4 0-6.5 0-9.7.1.1.2.2.2.3.2.3.2.7.2 1 .1.4.1.8.1 1.2v.8 1.8.6s0 .5 0 .7v.3.3.3.5.8.5.3c0 .2 0 .3-.1.5 0 .1-.1.2-.1.3-.1.1-.1.3-.2.4s-.2.1-.2.2c-.2.1-.4.2-.5.3-.2.1-.4.2-.7.3-.1 0-.3 0-.4 0-.3 0-.5 0-.8 0-1.1-.1-2.3.3-3.3-.4-.2 0-.3 0-.5 0-.2.1-.3.1-.5 0-.1 0-.2 0-.3 0-.1-.1-.1-.2 0-.3 1.1-.5 2.2-.2 3.4-.2.6 0 1.3.1 1.9-.1.1-.5-.2-.7-.5-1-1.9-2.7-3.5-5.6-4.9-8.5-.2-.3-.3-.7-.3-1.1.2-.4.8-.5 1.1-.9.1.1.2 0 .3.1z" fill="#c73831"/><path d="m94.1 76v9.5c.5.1.6-.3.8-.5 2-2.7 3.7-5.6 5.1-8.6.2-.4.3-.9.3-1.3.1-.1.2-.1.3 0s .2.2.2.3c.1.1.2.2.3.2.2.1.4.1.5.3-.8 2-1.8 3.9-2.9 5.7-1 1.8-2.3 3.5-3.7 5.5h6.3c-.1.1-.2.1-.3.2s-.2.1-.3.2c-.4.2-.9.1-1.3.2-.1 0-.3 0-.4 0-.4 0-.9 0-1.3 0-.1 0-.2 0-.4 0s-.4 0-.5 0-.2 0-.4 0c-.5 0-.9 0-1.4-.2-.2-.1-.4-.3-.7-.4-.1-.1-.2-.1-.3-.2s-.1-.2-.2-.3-.1-.2-.1-.3 0-.1-.1-.2c0-.1-.1-.3-.1-.4-.1-1.4 0-2.8 0-4.2 0-.3 0-.5 0-.8s0-.5 0-.8c0-.1 0-.3 0-.4 0-.4 0-.8 0-1.2 0-.3.1-.5.1-.8.1-.2.1-.5.2-.8s.2-.5.3-.7z" fill="#c73831"/><path d="m79.4 98.1v.3c0 .2.1.4.3.5.1.2.4.1.5.3l.3.3c.2.2.6 0 .8.2.3.3.7 0 1 .3.6.3 1.2.4 1.8.5.3.4.7 0 1 .3.3.4.7 0 1 .3.1.4.8-.1.8.5-.3.3-.5.5-.8.8-.7-.5-1.5-.5-2.3-.7-.3-.3-.7 0-1-.3-.2-.3-.6-.1-.8-.2-.3-.4-.7 0-1-.3-.7-.3-1.3-.4-2-.5-.3 0-.6-.1-.9-.4.1-.2.1-.6.2-.9.4-.4.3-1 .4-1.5.1-.1.1-.1.2-.1 0-.1-.1-.2-.1-.3 0-.2 0-.4.1-.6 0-.1 0-.2 0-.2.3-.5.3-1 .4-1.6.4-.2 0-.7.3-1 0-.1 0-.1 0-.2.2-.2 0-.6.2-.8.1-.1.1-.1.2-.1 0-.1-.1-.2-.1-.3 0-.2 0-.4.1-.6.6 0 .8-.6 1.3-.8.1.1.1.1.1.2s0 .1-.1.1v.2c-.4.8-.5 1.7-.7 2.6-.4.3 0 .7-.3 1-.2.6-.5 1.2-.5 1.9v.2c-.3.2 0 .6-.2.8-.1-.3 0 0-.2.1z" fill="#d63831"/><path d="m12.8 75c-.1 0-.1 0-.2 0-.6-.4 0-1.2-.6-1.6 0-.1 0-.2.1-.3.9-3.6 1.9-7.1 2.8-10.7-.1 1.3.3 2.5.5 3.7-1 2.6-1.5 5.3-2.3 8 0 .4-.2.6-.3.9z" fill="#d53831"/><path d="m19.3 81.9c0-.2 0-.3 0-.5.2-.7.2-1.3 0-2 0-.3 0-.5 0-.8.1-.4.2-.8 0-1.3 0-.3 0-.7 0-1 .6.1.2.9.7 1.1.3.3.6-.1.8.1.1.4-.2.6-.3.9-.4.4-.3.9-.3 1.3v7.7c0 .6 0 1.1-.8 1.2-.2.1-.5 0-.7-.1-.4-.2-.8-.1-1.2-.1-.6-.1-1-.3-.9-1h .8c.1.1.2.1.3 0 .2 0 .4-.1.5-.3.2-.2.6 0 .7-.3.2-.1.1-.4.3-.5.1-.2.2-.3 0-.5 0-.1 0-.2 0-.3.1-.2.1-.3 0-.5 0-.3 0-.7 0-1 .1-.2.1-.3 0-.5 0-.1 0-.2 0-.3.1-.1.1-.2 0-.3 0-.1 0-.2 0-.3.2-.2.2-.5.1-.7z" fill="#d83831"/><path d="m98.2 62.5c.8 3.3 1.7 6.6 2.5 10-.4.4-.4 1-.8 1.3-.7-2.3-1.3-4.7-2-7-.1-.2-.2-.4-.3-.6-.1-.7.3-1.2.5-1.7.1-.7.1-1.4.1-2z" fill="#d53831"/><path d="m103.5 65.1c0-.1 0-.1 0-.2-.1-.2-.1-.4-.2-.6-.1-.4-.2-.7-.6-1 0-.1-.1-.2-.1-.4 0-.1.1-.2.1-.2h.1-.1c-.1.1-.1.1-.2.1-.1-.1-.2-.2-.3-.3-.1-.1-.1-.4-.3-.5-.1-.2-.1-.4-.3-.5 0-.1-.1-.2-.2-.3-.1-.4-.2-.8-.5-1-.2-.7.1-1 .8-.8.1.3.3.6.5.8.1.2 0 .4.3.5.1.2.1.4.3.5v.3c0 .1-.1.1-.2.1.1.1.1 0 .2 0 .1-.1.2-.1.2 0 .1.1.1.1.1.2-.1.1 0 .2 0 .2h.1c.1.1.1.4.3.5v-.1c0 .2.2.2.3.2.1.1.2.1.4.2.1.1.2.2.4.3s.4.4.7.1c.2-.1.4-.1.5-.3.3-.1.6-.3.8-.5.1-.1.4-.1.5-.3.2-.1.4-.1.5-.3.1 0 .2-.1.3-.2.2-.1.4-.1.5-.3.1-.1.4-.1.5-.3.4-.3.9-.4 1.3-.8.1-.1.2-.1.3 0v1c-.1.1-.2.2-.2.3-.3 0-.5.1-.7.3 0 .1-.3-.1-.2.1-.1.2-.2.2-.3.3-.1.1-.4.1-.5.3-.2.1-.4.1-.5.3-.1 0-.2.1-.3.2-.3.2-.8.1-1 .5-.1.1-.2.1-.3.2 0 .1-.1.1-.2.1-.3.1-.6.3-.8.5-.2.1-.4.1-.5.4-.1.1-.2.3-.3.4-.6.6-.9.5-1.2 0z" fill="#d73831"/><path d="m103.8 62.8c-.1-.1-.1-.2-.2-.3.8-2 .4-4.1.5-6.2.1-.6-.1-1.2-.1-1.9.2.2.4.3.6.5h.7c.1 2.3.1 4.6-.2 6.9-.1.5 0 1 0 1.5-.3.2-.5.2-.8 0-.1-.1-.2-.2-.3-.3 0 0-.1-.1-.2-.2z" fill="#c63831"/><path d="m9.1 54.4c0 2.7-.4 5.4.4 8.1.2.1.1.3 0 .4s-.2.2-.2.2l-.1.1c-.1.1-.2.1-.3.2s-.2.1-.3.1c-.2 0-.5 0-.6-.2-.1-2.1-.2-4.2-.3-6.2 0-.7.1-1.4.1-2.1h.7c.2-.2.4-.4.6-.6z" fill="#c63831"/><path d="m93.9 79.6v.8c-.1.3-.1.5 0 .8v4.8c-.1.1-.1.1-.1.2s0 .1.1.1l.3.3v.3c-.3.3-.7.6-1.2.5 0-3 0-5.9 0-8.9.3-.6.7-1.2 1-1.8v.8c-.1.3-.1.5 0 .8v1.3c-.2-.2-.2-.1-.1 0z" fill="#d73831"/><path d="m100 73.8c0-.6 0-1.2.8-1.3.2.2-.1.6.3.8l.2.2s.1.1.2.2.2.2.2.3c.1.2.2 0 .3 0 .2 0 .4.1.5.2s.3.1.4 0c0-.1.1-.1.1 0 .3-.2.6 0 .9-.2.3-.2.8.1 1-.3.2-.2.6 0 .8-.2 0-.1.1-.1.2 0 .3-.2.6 0 .8-.2.3-.3.7.1 1-.3.2-.1.4-.1.5 0 .1.4-.6.6-.3 1-.8.3-1.7.4-2.5.7l-.1.1h-.1c-.9.2-1.8.3-2.6.7-.1 0-.2 0-.2.1-.2 0-.4.1-.5.2s-.2.2-.3.3c-.3 0-.5 0-.8 0-.1-.1-.2-.2-.2-.2 0-.2 0-.3 0-.5-.5-.7-.4-1.3-.6-1.6z" fill="#d73831"/><path d="m10.3 61.2c1.1-2.3 2.4-4.5 3.8-6.6.5.7 0 1.5.3 2.1-1 1.6-2 3.2-2.9 4.8-.2 0-.4-.1-.6-.1-.1 0-.2 0-.3 0-.2 0-.3-.1-.3-.2z" fill="#d53831"/><path d="m101.8 59.5c-.5.1-.8.3-.8.8-.7-1.2-1.5-2.3-2.2-3.5 0-.9 0-1.8 0-2.7 1.1 1.8 2.1 3.5 3 5.4z" fill="#d53831"/><path d="m99.2 87.2h1.5c.1.1.1.1.1.2s0 .1-.1.1v.5c-1.9.3-3.9 0-5.8.1-.1 0-.3 0-.4 0s-.2-.1-.3-.3c0-.3.1-.6.3-.9.1-.1.2-.1.3 0 .5.5 1 .2 1.5.3l.1.1-.1.1h.1c.1 0 .1-.1.2-.1h.5l.1.1-.1.1h.1c.1 0 .1-.1.2-.1h1.5c.2-.1.2-.1.3-.2z" fill="#d73831"/><path d="m32.7 94.9c-.5-1.2-.8-2.5-1-3.8.7 0 1 .7 1.6.8.1.6.2 1.1.2 1.7-.2.4-.5.9-.8 1.3z" fill="#d53831"/><path d="m94.4 88h6.4c-.1.1-.2.2-.3.3-2.1 0-4.2 0-6.3-.1-.1-.1-.1-.1-.1-.2s0-.1 0-.1c.1 0 .2 0 .3.1z" fill="#d43831"/><path d="m105.3 74.5c.7-.6 1.6-.7 2.5-.7v.3c-.9-.2-1.6.4-2.5.4z" fill="#d43831"/><path d="m88.3 26.3c-.3 0-.5.2-.5.5-.3-.2-.4-.4-.1-.7.2-.2.4-.1.6.2z" fill="#552522"/><path d="m25.3 26.8c0-.3-.1-.5-.5-.5.1-.3.3-.4.6-.2s.2.5-.1.7z" fill="#49201d"/><path d="m80.2 92.5c-.1 0-.2 0-.3 0 0-.2 0-.4 0-.7.1-.1.2-.2.3-.3z" fill="#d53831"/><path d="m74.3 13.3c.1-.2.1-.4.4-.4.2.2.1.4-.1.6-.1 0-.2-.1-.3-.2z" fill="#3e2122"/><path d="m62.2 98.7c-.1 0-.2 0-.4-.1.2-.2.5-.2.8-.2v.2c-.1.2-.2.2-.4.1z" fill="#432120"/><path d="m100.8 90c-.1 0-.2-.1-.4-.1 0-.1.1-.2.1-.2.3-.1.2.2.3.3z" fill="#d93932"/><path d="m97.5 93.6c-.3-.2-.3-.5-.2-.7.2.1.1.4.2.7z" fill="#d93932"/><path d="m2.7 50.1c-.2 0-.5 0-.7 0 .2-.3.4-.3.7 0z" fill="#d93932"/><path d="m108.1 72.7c-.2 0-.4 0-.5 0 .2-.1.5-.2.7-.3 0 .1-.1.2-.2.3z" fill="#d43831"/><path d="m103.5 84.9c.1.2.2.3.3.5-.1 0-.2-.1-.3-.1-.2-.1-.1-.3 0-.4z" fill="#d93932"/><path d="m57.8 12.3c-.1-.1-.2-.3-.1-.4.1 0 .1.1.2.1-.1.1-.1.2-.1.3z" fill="#9a3530"/><path d="m109.9 47.6c-.1-.1-.1-.1 0-.2s.1-.1.2-.2c0 .1.1.2.1.4-.1 0-.2 0-.3 0z" fill="#d93932"/><path d="m14.1 54.7c0-.2.1-.4.3-.5 0 .2 0 .4-.3.5z" fill="#d53831"/><path d="m81.5 91.1c0-.1 0-.2 0-.3.1-.1.2-.2.3-.2-.2.1-.2.3-.3.5z" fill="#d53831"/><path d="m37.5 8.1c-.1 0-.2 0-.3 0 0-.2.2-.2.3-.2z" fill="#d93732"/><path d="m110.2 61.8c.1-.1.2-.2.2-.3v.3c-.1.1-.2.1-.2 0z" fill="#d43831"/><path d="m101.3 89.5-.1-.1z" fill="#d93932"/><path d="m110.4 60.5c-.1 0-.2 0-.3 0 .1-.1.2-.1.3-.2z" fill="#d43831"/><path d="m97.7 93.6.1-.1z" fill="#d93932"/><path d="m110.2 47.6s.1 0 0 0z" fill="#d93932"/><path d="m24.8 27.3c.1-.1.2-.2.2-.3 0 .1-.1.2-.2.3z" fill="#49201d"/><path d="m87.8 26.8c.1.1.2.2.2.3 0-.1-.1-.2-.2-.3z" fill="#552522"/><path d="m25.1 27c .1-.1.2-.2.2-.3-.1.2-.1.2-.2.3z" fill="#49201d"/><path d="m24.6 26.5c-.1.1-.2.2-.2.2s.1-.1.2-.2z" fill="#49201d"/><path d="m10.6 26.5s.1 0 .1.1c0-.1-.1-.1-.1-.1z" fill="#d93932"/><path d="m88.5 26.5c-.1-.1-.2-.2-.2-.2.1.1.2.1.2.2z" fill="#552522"/><path d="m24.8 26.3c-.1.1-.2.2-.2.2.1-.1.1-.1.2-.2z" fill="#49201d"/><path d="m101.5 24v .1l-.1-.1z" fill="#d93932"/><path d="m97.7 19.4h-.2z" fill="#d93932"/><path d="m97.5 19.4-.2-.1h.1z" fill="#d93932"/><path d="m80.9 7.2v.1h-.1z" fill="#d93932"/><path d="m51.5 1.4h.1l-.1.1z" fill="#d93932"/><path d="m110.9 66.4-.1-.1h.1z" fill="#d93932"/><path d="m103.5 84.9.1-.1.1.1z" fill="#d93932"/><path d="m100.8 87.5c0-.1 0-.2 0-.3h.3c-.2.1-.3.2-.3.3z" fill="#d43831"/><path d="m58.1 110.8c0-.3 0-.5.2-.7.5.3.8-.2 1.1-.4.9-.6 1.4-1.5 2.1-2.3 0-.5-.6-.8-.4-1.3.6-1 .8-1.1 2.2-.6.3 1.2.9 2.4 0 3.7.1.3.6.3.7.7.3.3.7.1 1.1.2-2.4.5-4.7.8-7 .7z" fill="#0a0708"/><path d="m83.7 101.4c.8.1 1.7 0 2.3.7-.1 0-.2 0-.3 0-.6-.2-1.3-.4-2-.7z" fill="#d43831"/><path d="m86.8 101.4c-.3-.2-.5-.3-.8-.5.4 0 .9.1 1.3.3-.1.2-.3.2-.5.2z" fill="#d43831"/><path d="m89.8 100.9c-.1 0-.2-.1-.4-.1 0-.1.1-.2.1-.2.4 0 .3.2.3.3z" fill="#d93932"/><path d="m34.2 106.8c.2-.3.5-.2.7-.2-.1.2-.4.2-.7.2z" fill="#d93932"/><path d="m39.9 109.9c.2-.2.3-.2.4-.3 0 0 0 .1.1.1-.1.1-.2.1-.5.2z" fill="#d93932"/><path d="m46.7 110.9c-.1 0-.3-.1-.4-.1.2-.3.3-.1.4.1z" fill="#d93932"/><path d="m93.4 97.9-.1.1v-.1z" fill="#d93932"/><path d="m63.2 111.3h-.1v-.1z" fill="#d93932"/><path d="m19 88.2c.2.1.3.2.5.3 3.4 4.1 7.4 7.4 11.9 10.2.4.2.8.3 1 .7-.1.2-.2.3-.3.3-.1.1-.2.1-.3.1-.3.1-.5.1-.8.2-.1 0-.2.1-.3.1-.5.1-.9.2-1.4.4-.1 0-.2.1-.3.1-.3.1-.5.1-.8.2-.1 0-.2.1-.3.1-.2.1-.5.1-.7.2-.1 0-.2.1-.3.1-.2.1-.5.1-.7.1h-.1c-.1 0-.2 0-.3-.1-3.9-2.4-7.2-5.5-10.2-9-1.1-1.2-2.2-2.4-2.9-3.9.8-.7 1.7-.4 2.5-.4 1.3-.1 2.5.2 3.8.3z" fill="#020203"/><path d="m11.6 75.8c1.6 4 3.8 7.5 6.5 11.2-2.3 0-4.3 0-6.3 0-.1.1-.2 0-.2-.1-.9-1.5-1.9-3-2.8-4.5-.3-.2-.3-.4-.3-.7-1.2-2.5-2.3-5-3.2-7.6.2-.4.6-.3.9-.2 1.7.4 3.4.8 5.1 1.4.1.1.3.3.3.5z" fill="#020203"/><path d="m32.7 94.9c0-.3.1-.6.1-.9.3-.2.5-.3.7-.5.2.3-.1.8.3 1 .1.5.2 1.1.4 1.6v.3c.2.2 0 .5.2.8.1.1.1.1 0 .2.2.5 0 1.1.4 1.6.1.3.1.6.2.9-.2.4-.5.5-.9.4-.7.2-1.4.2-2 .5-.3.3-.8-.1-1 .3-.2.2-.6 0-.8.2-.3.3-.7-.1-1 .3-.3.3-.8-.1-1 .3-.4.1-.9.1-1.3.5-.3-.3-.6-.6-1-.8-.1-.1-.1-.1-.1-.2s0-.1 0-.1c.3-.3.7.1 1-.3.3-.3.7.1 1-.3.3-.2.8.1 1-.3.6-.2 1.3-.1 1.8-.5.3-.2.7.1 1-.3.2-.2.6 0 .8-.2.1-.1.2-.2.3-.3.1-.1.4-.1.5-.3.2-.1.1-.4.3-.5 0-.1 0-.2 0-.3-.1-.2 0-.4-.3-.5-.2-.3.2-.8-.3-1 0-.5-.1-1.1-.3-1.6z" fill="#d63831"/><path d="m19 88.2c-2.1 0-4.2 0-6.3.1-.2-.5.4-.7.4-1.1h3.6c.2.7.7.9 1.3.8.4-.1.8-.3 1 .2z" fill="#d53831"/><path d="m30.9 104.5c.3.1.5.2.8.4-.2.8-.7 0-1 .2 0-.3.1-.5.2-.6z" fill="#d93932"/><path d="m8.5 81.6c.1.2.2.5.3.7 0 .1 0 .2-.1.3-.1 0-.1 0-.2-.1-.1-.2-.4-.5 0-.9z" fill="#d93932"/><path d="m27.1 102.2c.3-.6.8-.5 1.3-.5-.3.2-.7.3-1.1.5 0 0-.1 0-.2 0z" fill="#d43831"/><path d="m18.5 96.9c0 .4.4.8-.3 1-.2-.4-.1-.8.3-1z" fill="#da3a32"/><path d="m17.4 96.4c.2-.2.3-.3.4 0-.1.2-.2 0-.4 0z" fill="#da3a32"/><path d="m21.1 99.3c-.2.2-.3.2-.4.3 0 0 0-.1-.1-.1.2 0 .3-.1.5-.2z" fill="#da3a32"/><path d="m21.5 99.9c0-.1.1-.3.1-.4.2.3 0 .3-.1.4z" fill="#da3a32"/><path d="m8.9 84.3c-.1 0-.1 0-.2 0z" fill="#d93932"/><path d="m12.1 87.2h.5c-.1.3-.3.3-.5 0z" fill="#d53831"/><path d="m11.9 89.2v-.1l.1.1z" fill="#d93932"/><path d="m13.4 91.5v-.1l.1.1z" fill="#d93932"/><path d="m15.2 94.1v-.1h.1z" fill="#da3a32"/><path d="m15.2 94.1-.1.1v-.1z" fill="#da3a32"/><path d="m17.4 96.4c-.1.1-.2.2-.3.3.2-.2.3-.3.3-.3z" fill="#da3a32"/><path d="m18.5 96.9v-.1h.1z" fill="#da3a32"/><path d="m19.2 97.6h-.1l.1-.1z" fill="#da3a32"/><path d="m19.2 97.6v.2s0-.1 0-.2z" fill="#da3a32"/><path d="m20.2 98.9h.2s-.1 0-.2 0z" fill="#da3a32"/><path d="m20.5 98.9.1.1z" fill="#da3a32"/><path d="m21 99.4.1-.1z" fill="#da3a32"/><path d="m8 82.9c.1-.1.2-.2.3-.3-.1.1-.2.2-.3.3z" fill="#d93932"/><path d="m9.8 86.2.1-.1z" fill="#d93932"/><path d="m26.1 101.2v.3c-.1-.1-.2-.2-.3-.2.1-.2.2-.2.3-.1z" fill="#d43831"/><path d="m9.8 86.7.1.1z" fill="#d93932"/><path d="m11.6 86.9c.1 0 .2 0 .2.1s0 .1 0 .2c0-.1-.1-.2-.2-.3z" fill="#d53831"/><path d="m33.5 105.7c.2.1.5.2.7.3-.4.4-.6.2-.7-.3z" fill="#d93932"/><path d="m31.7 105.8c.1-.1.1-.4.4-.3 0 .3-.3.2-.4.3z" fill="#d93932"/><path d="m32.4 105.2c.1 0 .2 0 .2.1s-.1.1-.2-.1z" fill="#d93932"/><path d="m4.8 72.4c-1-3.4-1.8-6.9-2-10.5.2-.2.4-.1.6-.1.1 0 .2.1.3.1.2.1.3.2.5.3.1 0 .2.1.2.1.1.1.2.1.3.2.1 0 .2.1.2.1.1.1.2.1.4.2.1 0 .2.1.2.1.1.1.2.1.2.2l.1.1c.3.2.6.3 1 .5.1 0 .2.1.3.1.2.1.4.3.6.4.1 0 .2.1.3.2.2.1.4.2.5.4s.2.4.3.7c.5 2.2 1 4.4 1.7 6.5.2.5.4 1 .3 1.6 0 .1-.1.2-.2.3s-.2.1-.3.1c-.3 0-.5-.1-.8-.2-.1 0-.2-.1-.3-.1-.2-.1-.5-.1-.7-.2-.1 0-.2-.1-.3-.1-.2-.1-.4-.1-.6-.1-.1 0-.2 0-.3-.1-.2-.1-.4-.1-.6-.2-.1 0-.2-.1-.3-.1-.2-.1-.5-.1-.7-.2-.1 0-.2-.1-.3-.1-.2.1-.5 0-.6-.2z" fill="#020203"/><path d="m6.9 64.1c-.1 0-.1 0-.2-.1-.3-.5-.8-.5-1.3-.7-.1-.1-.2-.2-.3-.2-.1-.2-.4-.2-.5-.3-.1-.2-.4-.1-.5-.3-.2-.2-.5-.4-.8-.5-.2-.3-.5-.3-.7-.6 0-.3-.2-.7 0-1 .1-.1.2-.1.3 0 .4.4.9.5 1.3.8 0 .1.1.1.1.2s.1.1.1.2h.3c.3.1.5.3.7.3.1.2.4.2.5.3.1.2.4.1.5.3.2.2.5.4.8.5.1.2.4.2.5.3.3.3.7.2 1 0 .1-.1.2-.2.3-.3.1-.1.2-.2.3-.3s.1-.2.2-.3c.3-.1.2-.3.3-.5.2-.1.1-.4.3-.5.1-.1.2-.2.2-.3.1 0 .2 0 .3.1.5-.5.6.1.8.3-.4.2-.4.7-.6 1-.2.3-.4.5-.5.8-.1.1-.1.1-.2.1s-.1.1-.1.2c-.2.2-.1.5-.2.7-.1.1-.1.3-.1.4s-.1.2-.1.2v.2c-.3.5-.6.6-1.1.3-.1-.1-.2-.3-.3-.4-.1-.3-.3-.2-.5-.4-.2-.2-.4-.4-.8-.5z" fill="#d73831"/><path d="m7.4 73.2h.2c.2.2.6 0 .8.2.3.4.7 0 1 .3.2.3.6.1.9.2h.1c.1.1.3.1.4 0 .2-.2.4-.2.7-.3.2-.1.4-.1.6-.2h.1c.2.1.5.1.7.2 0 .4-.6.8-.2 1.3 0 .2-.1.5-.1.7-.3 0-.6 0-.9.1-.1-.1-.2-.2-.3-.2-.3-.3-.7-.4-1-.5-.1-.1 0-.2 0-.3-.1 0-.1.2-.2.1-.5 0-.9 0-1.3-.3-.1-.1 0-.2 0-.3-.1.1 0 .2-.1.2-.6.1-1.1-.1-1.6-.3-.1-.1-.3-.2-.4-.3s-.2-.2-.3-.3c-.2-.1-.1.2-.2.2-.3 0-.6.1-.9-.1-.2-.2 0-.7-.7-.5.2-.3.3-.4.4-.5.2-.2.3-.1.5 0 .3.3.7 0 1 .3.2.3.5.1.8.3z" fill="#d83831"/><path d="m6.3 73.5c.2 0 .4 0 .5.3.1.1.2.2.3.3.6.2 1.1.5 1.8.3.4.6 1 .3 1.5.5.3.4.9.2 1 .8-2-.4-4-1.3-6.1-1.4 0-.1 0-.2 0-.3.3-.3.7-.1 1-.5z" fill="#d33831"/><path d="m2.7 61.6c.4 0 .6.2.7.6-.2-.1-.5-.2-.7-.2 0-.2 0-.3 0-.4z" fill="#d43831"/><path d="m3 60.5c-.1 0-.2 0-.3 0-.2-.1-.3-.3-.2-.5.1.2.3.4.5.5z" fill="#d43831"/><path d="m5.5 72.7c-.2 0-.4 0-.5 0-.1-.1-.1-.2-.2-.4.2.2.5.3.7.4z" fill="#d33831"/><path d="m7.3 80.4c-.1 0-.3-.1-.4-.1.2-.3.3-.1.4.1z" fill="#d93932"/><path d="m1.2 51.7h.1v.1z" fill="#d93932"/><path d="m7.3 80.4h.1l-.1.1z" fill="#d93932"/><path d="m48.7 103.3c.1-1 .3-1.9.5-3-1.6-.3-3.1-.5-5-.8.8-.6 1.3-.4 1.7-.3l6 .9c.7.1 1.5.4 2.1-.4.4.3.9.6 1 1.3-1.6.1-3.2-.4-4.8-.5-.5.9-.2 1.9-.6 2.9.8.5 1.7.1 2.4.6.4-.2.7-.4 1-.6.4.3.9.5 1 1.2-1.5.3-2.9-.5-4.4-.4-.2 1.2-.3 2.4-.5 3.6 1.1.5 2.3.3 3.4.7.4-.2.7-.4 1-.6.4.4.7.8 1.3 1.4-4-.4-7.8-1-11.5-1.9 1.6-.5 3.1.3 4.8.2.2-1.2.4-2.4.6-3.7-1.3-.2-2.6-.4-3.8-.7 0-.1 0-.2 0-.3 1.2-.2 2.5.5 3.8.4z" fill="#fdfdfd"/><path d="m63.9 109.9c-.6-.2-1.1-.4-1.8-.6.2-.6.8-.4 1.2-.6.2-1.1-.3-2.1-.3-3.2-.6-.3-1 0-1.5 0-.1.2-.3.5-.4.7 0 .1-.1.3-.2.3-.1-.1-.4-.1-.4-.2-.4-1.4-.5-2.8-.7-4.2 2.2.1 4.1-.2 6.2-.9.1 0 .4.2.6.3.3.5.2 3.7-.1 4-.4 0-.4-.4-.8-.6-.4 0-1 0-1.6.3.1 1.1.3 2.1.4 3.2 0 .6 0 1.2-.6 1.5z" fill="#fdfdfd"/><path d="m62.2 98.7c.2 0 .3 0 .5-.1.2.1.5.1.7.2.2.4-.4.8 0 1.3 1 .3 2-.3 3.1-.2.3-.3.5-.6.8-1 .5.3 1.1.4 1.5 1.2-3.9.7-7.6 1.2-11.5 1.5 1.5-.9 3.4-.6 5-1.2 0-.7-.3-1.2-.1-1.7z" fill="#fbfafb"/><path d="m65 106.1c1.9-.3 3.9.7 4.2 2.2-.6.3-2.5-.7-4.2-2.2z" fill="#fbfbfb"/><path d="m60.9 106.6c.1-.1.2-.2.2-.3.1.6.8.5 1.1 1.1-1.4.9-2 2.7-3.9 3.3 0-.3 0-.4.1-.6 1-1 1.9-2.2 2.5-3.5z" fill="#f9f8f9"/><path d="m50.5 105.2c1.7.3 2.5 1.4 1.8 2.5-.9-.7-1.1-1.8-1.8-2.5z" fill="#f7f7f7"/><path d="m78.9 100.2c.8-.3 1.4.1 2 .5-.7 0-1.4-.2-2-.5z" fill="#d43831"/><path d="m32.2 100.7c.6-.6 1.3-.5 2-.5-.6.3-1.3.5-2 .5z" fill="#d43831"/><path d="m79.4 94.5c0 .6.1 1.2-.4 1.6 0-.6.1-1.1.4-1.6z" fill="#d53831"/><path d="m78.6 97.3c0 .5.2 1.2-.4 1.5.1-.4.1-1 .4-1.5z" fill="#d53831"/><path d="m34.2 96.1c-.5-.4-.5-1-.4-1.6.2.5.4 1 .4 1.6z" fill="#d53831"/><path d="m34.9 98.9c-.7-.4-.4-1-.4-1.6.3.5.3 1 .4 1.6z" fill="#d53831"/><path d="m79.7 93.5c-.2.3.6.9-.3 1 0-.3 0-.7.3-1z" fill="#d53831"/><path d="m33.8 94.6c-.5-.2-.3-.7-.3-1 .3.2.2.6.3 1z" fill="#d53831"/><path d="m78.9 96.3v1c-.1 0-.2 0-.3 0 .1-.3 0-.7.3-1z" fill="#d53831"/><path d="m31.2 101c .2-.4.7-.3 1-.3-.3.3-.7.3-1 .3z" fill="#d43831"/><path d="m80.9 100.7c.4 0 .8-.2 1 .3-.3 0-.7 0-1-.3z" fill="#d43831"/><path d="m29.4 101.5c.3-.4.7-.2 1-.3-.3.3-.6.2-1 .3z" fill="#d43831"/><path d="m82.7 101.2c.4 0 .8-.1 1 .3-.3-.1-.7 0-1-.3z" fill="#d43831"/><path d="m28.4 101.7c.2-.4.7-.3 1-.3-.3.3-.7.3-1 .3z" fill="#d43831"/><path d="m79.9 92.5c0 .3.1.6-.2.8 0-.3 0-.6.2-.8z" fill="#d53831"/><path d="m81.9 101c .3 0 .6-.1.8.2-.3 0-.6 0-.8-.2z" fill="#d43831"/><path d="m34.4 97.1c-.3-.2-.2-.5-.2-.8.3.2.3.5.2.8z" fill="#d53831"/><path d="m30.4 101.2c.2-.3.5-.3.8-.2-.2.2-.5.2-.8.2z" fill="#d43831"/><path d="m91.1 56.5c0 19.1-15.7 34.8-34.9 34.8-19.1-.1-34.7-15.7-34.7-34.8s15.7-34.8 34.9-34.8c19.1 0 34.7 15.7 34.7 34.8z" fill="#d93831"/><path d="m84 100.4c-.7.1-1.3 0-1.8-.5.7 0 1.3.2 1.8.5z" fill="#d43831"/><path d="m82.2 99.9c-.4 0-.8.2-1-.3.4 0 .7 0 1 .3z" fill="#d43831"/><path d="m85 100.6c-.4 0-.8.2-1-.3.4.1.7.1 1 .3z" fill="#d43831"/><path d="m86 100.9c-.4 0-.8.2-1-.3.4 0 .7 0 1 .3z" fill="#d43831"/><path d="m81.2 99.6c-.3 0-.6.1-.8-.2h.3c.2.1.4.1.5.2z" fill="#d43831"/><path d="m93.6 88.5c-.2 0-.4 0-.5-.3.2-.2.4-.2.6-.2.1 0 .2.1.2.2-.1.1-.2.2-.3.3z" fill="#d73831"/><path d="m94.1 88v .2c-.1 0-.1.1-.2.1l-.1-.1c.1-.2.1-.3.3-.2z" fill="#d73831"/><path d="m80.7 93.8c-.1-.9.1-1.8.7-2.6-.1 1-.3 1.8-.7 2.6z" fill="#d53831"/><path d="m80 96.7c-.3-.8.1-1.3.5-1.9 0 .7-.2 1.3-.5 1.9z" fill="#d53831"/><path d="m80.5 94.9c0-.4-.2-.8.3-1-.1.3 0 .7-.3 1z" fill="#d53831"/><path d="m79.7 97.7c0-.2-.1-.4-.1-.6s.2-.2.3-.2c0 .2.1.5-.2.8z" fill="#d53831"/><path d="m79.4 98.1c0-.2.1-.4.3-.5v.5c-.1 0-.2 0-.3 0z" fill="#d53831"/><path d="m32.7 94.8c.5.5.6 1.1.5 1.8-.4-.5-.5-1.1-.5-1.8z" fill="#d53831"/><path d="m33.1 96.6c.1.1.3.1.4.2-.1.3-.1.5-.2.8-.2-.2-.1-.6-.2-1z" fill="#d53831"/><path d="m33.4 97.7h.4c0 .2-.1.3-.1.5-.1 0-.2 0-.3 0 0-.2 0-.4 0-.5z" fill="#d53831"/><path d="m102.5 75.3c.8-.6 1.7-.7 2.6-.7-.8.3-1.7.5-2.6.7z" fill="#d43831"/><path d="m101.8 75.5c.1-.2.2-.6.5-.2-.2.1-.4.2-.5.2z" fill="#d43831"/><path d="m100 73.8c.4.3.4.8.5 1.3-.1 0-.1 0-.2 0-.2-.5-.4-.9-.3-1.3z" fill="#d53831"/><path d="m59.1 5.9c-.2.3-.4.7-.9.7-2 0-4 0-5.9 0-.2-.6-.1-.8 0-.9h6.8c.1.1.1.1 0 .2z" fill="#d53831"/><path d="m59.1 5.9c0-.1 0-.1 0-.2.5-.1.9-.1 1.4 0-.1.2-.2.4-.2.5-.5.3-.7-.4-1.2-.3z" fill="#c93831"/><path d="m35.7 11c .3-.6.6-1.1.9-1.7.9-.3 1.8-.7 2.8-1 .1.7-.2 1.2-.5 1.9-.9.3-1.9.7-2.9 1-.1 0-.1-.1-.3-.2z" fill="#d63831"/><path d="m41 13.9c-.3-.4-.5-.8-.4-1.2.8-.4 1.7-.7 2.6-1 .2.4.4.7.4 1.2-.9.3-1.7.7-2.6 1z" fill="#d63831"/><path d="m37.2 15.3c-.2-.5-.3-.8-.5-1.3.9-.4 1.8-.7 2.7-1.1.2.4.3.8.4 1.1-.8.8-1.7.9-2.6 1.3z" fill="#d53831"/><path d="m40.3 11.8c-.4-.3-.5-.6-.5-1 .8-.6 1.7-.7 2.6-1.1.4.3.5.6.5 1.1-.9.4-1.8.7-2.6 1z" fill="#d63831"/><path d="m36 12.1c.9-.3 1.7-.6 2.5-.9.4.3.5.6.5 1-.7.6-1.7.7-2.4 1.1-.5-.3-.4-.7-.6-1.2z" fill="#d53831"/><path d="m35.7 11.3c-.1 0-.1.1-.2.1-.1-.2 0-.3.1-.4h.1c.1.1.1.2 0 .3z" fill="#79312f"/><path d="m35.7 11.3c0-.1 0-.2.1-.2.1.1.1.1.1.2z" fill="#da3731"/><path d="m101 73.5c0-.1 0-.2 0-.3 1.1-1.5 1.2-3.3 1.7-4.9.3-1 .5-2.1.8-3.2.3.2.7.3 1 .3-.3 2.4-1 4.7-1.7 7-.2.5-.5 1-.3 1.6.1.1.1.1.1.2s0 .1-.1.1c-.3-.1-.5-.2-.8-.3-.1.1-.2.1-.3 0s-.2-.2-.3-.3c.1 0 0-.1-.1-.2z" fill="#c73831"/><g fill="#d43831"><path d="m108.9 62.6c.1-.2.2-.3.3-.5.3-.1.6-.6 1-.2-.4.3-.8.5-1.3.7z"/><path d="m106.6 63.9c0-.7.6-.5 1-.5-.3.2-.6.4-1 .5z"/><path d="m107.6 72.7c-.3.4-.7.2-1 .3.3-.3.6-.3 1-.3z"/><path d="m104.8 73.5c-.3.4-.7.3-1 .3.3-.4.6-.3 1-.3z"/><path d="m105.3 64.6c.1-.4.4-.6.8-.5-.1.3-.4.5-.8.5z"/><path d="m105.6 73.2c-.2.3-.5.2-.8.2.2-.2.5-.2.8-.2z"/><path d="m106.6 73c-.2.3-.5.3-.8.2.2-.2.5-.2.8-.2z"/><path d="m103.8 73.7c-.2.4-.5.3-.9.2.3-.2.6-.2.9-.2z"/><path d="m108.4 62.9c.1-.2.3-.3.5-.3-.1.2-.3.2-.5.3z"/><path d="m107.9 63.1c.1-.3.3-.3.5-.3-.1.3-.3.3-.5.3z"/><path d="m104.8 65c0-.3.2-.4.5-.4-.1.1-.3.3-.5.4z"/><path d="m106.3 64.1c.1-.1.2-.1.3-.2-.1 0-.2.1-.3.2z"/><path d="m107.6 63.3c.1-.1.2-.1.3-.2-.1.1-.2.2-.3.2z"/><path d="m102.5 74.3c0-.1 0-.2 0-.3h.2c0 .1-.1.2-.2.3z"/><path d="m4.2 61.6c0-.1 0-.2 0-.3.5.1.9.4 1.3.8-.4-.1-.7-.1-1.1-.2h-.1c.1-.2 0-.3-.1-.3z"/><path d="m4.3 61.3c-.6 0-1-.2-1.3-.8.5.2.9.4 1.3.8z"/><path d="m7.3 63c-.4.1-.7-.1-.8-.5.4.1.6.3.8.5z"/><path d="m8.8 63.3c-.3.3-.7.4-1 0h .2z"/><path d="m6 62.3c-.2 0-.4 0-.5-.3.2 0 .4.1.5.3z"/><path d="m6.5 62.6c-.2 0-.4 0-.5-.3.2 0 .4.1.5.3z"/><path d="m7.8 63.3c-.2 0-.4 0-.5-.3.2.1.4.1.5.3z"/><path d="m110.1 60.5c-.3.5-.7.7-1.3.8.4-.4.8-.6 1.3-.8z"/><path d="m106.6 62.6c-.1.4-.4.5-.8.5.2-.3.5-.5.8-.5z"/><path d="m104.3 63.3h.8.2c-.3.4-.6.4-1 0z"/><path d="m108.4 61.5c0 .1 0 .2-.1.4-.2 0-.3-.1-.4-.1.1-.1.3-.2.5-.3z"/><path d="m108.9 61.3c-.1.2-.3.3-.5.3.1-.3.3-.3.5-.3z"/><path d="m107.6 62c-.1.3-.3.3-.5.3.1-.2.3-.3.5-.3z"/><path d="m107.1 62.3c-.1.2-.3.3-.5.3.1-.2.3-.3.5-.3z"/><path d="m105.8 63c-.1.3-.3.3-.5.3.1-.2.3-.2.5-.3z"/><path d="m107.9 61.8c-.1.1-.2.1-.3.2.1 0 .2-.1.3-.2z"/></g><path d="m101 60.3.6.3c0 .2 0 .5-.1.7-.3-.3-.5-.6-.5-1z" fill="#d53831"/><path d="m102.7 63.4c.4.2.9.4.6 1-.3-.3-.5-.7-.6-1z" fill="#d53831"/><path d="m101.1 73.2c-.1 0-.2 0-.4-.1 0-.3.1-.5.1-.7.2.2.2.5.3.8z" fill="#d53831"/><path d="m102.8 62.8v.5c-.3-.2-.4-.5-.5-.8.1.2.3.2.5.3z" fill="#d53831"/><path d="m101.7 61.6c.3.1.3.3.3.5-.2-.1-.3-.3-.3-.5z" fill="#d53831"/><path d="m102 62.1c.2.1.3.3.3.5-.1-.2-.2-.4-.3-.5z" fill="#d53831"/><path d="m103.3 64.4c.2.1.3.3.2.6-.1-.3-.1-.5-.2-.6z" fill="#c73831"/><path d="m101.5 61.3c.1.1.1.2.2.3 0-.1-.1-.2-.2-.3z" fill="#d53831"/><path d="m11.6 74c-.4 0-.7.1-1 .3-.1-.1-.1-.1-.1-.2s0-.1.1-.1c-.1-1.6-.9-2.9-1.2-4.4-.3-1.4-.8-2.7-.8-4.2.4 0 .7-.1 1.1-.3.5 2.1 1 4.1 1.6 6.2.2.7.3 1.4.9 1.9v.4c-.3 0-.5.2-.6.4z" fill="#c73831"/><path d="m10.1 63.3h.3c-.1.4-.3.7-.6 1-.1-.3-.1-.7.3-1z" fill="#d53831"/><path d="m10.8 62.6c0-.4 0-.9.6-1-.1.4-.3.7-.6 1z" fill="#d53831"/><path d="m10.4 63.4c-.1-.4.1-.6.5-.8-.1.3-.2.6-.5.8z" fill="#d53831"/><path d="m9.6 64.9c0-.1 0-.2 0-.3l.1-.1.1.1c-.1.1-.1.2-.2.3z" fill="#c73831"/><path d="m9.8 64.6c-.1 0-.1 0-.2 0 .1-.1.2-.2.3-.2-.1 0-.1.1-.1.2z" fill="#d53831"/><path d="m9.8 62.1c0 .1.1.2.1.3-.1.2-.3.2-.4.1.1-.1.2-.3.3-.4z" fill="#d53831"/><path d="m10.1 61.6c0 .2-.1.4-.3.5 0-.2.1-.4.3-.5z" fill="#d53831"/><path d="m10.3 61.3c-.1.1-.1.2-.2.3.1-.1.1-.2.2-.3z" fill="#d53831"/><path d="m102.3 60.3c-.4-.1-.5-.4-.5-.8.3.2.4.4.5.8z" fill="#d53831"/><path d="m102.6 60.8c-.1 0-.2 0-.4 0 .1-.2.1-.3.2-.5.1.1.2.3.2.5z" fill="#d53831"/><path d="m102.8 61.3c-.3-.1-.3-.3-.3-.5.3.1.3.3.3.5z" fill="#d53831"/><path d="m103 62.1c0-.2 0-.3 0-.5.2.1.3.3.3.5-.1 0-.2 0-.3 0z" fill="#d53831"/><path d="m103.6 62.5c-.3-.1-.3-.3-.3-.5.2.2.3.3.3.5z" fill="#d53831"/><path d="m102.8 61.6c0-.1 0-.2 0-.3.1.1.1.2.2.3z" fill="#d53831"/><path d="m68.2 12.5c.5-2.1 1.5-4.1 2.2-6.1.6-.1 1 .1 1.4.5-.6.8-1.2 1.5-1.9 2.3.6 1.3 1.1 2.6 0 3.8-.7.3-1.1-.3-1.7-.5z" fill="#d73831"/><path d="m68.3 12.6c0 .1-.1.1-.1.2-.2-.2-.1-.3.1-.2z" fill="#c73a30"/><path d="m32.7 99.4c-.2.3-.5.2-.8.2.2-.1.3-.2.5-.3.1.1.2.1.3.1z" fill="#d43831"/><path d="m33.7 98.4c0 .2 0 .4-.3.5.1-.2.1-.4.3-.5z" fill="#d53831"/><path d="m33.4 98.9c-.1.2-.3.2-.5.3.1-.3.3-.3.5-.3z" fill="#d43831"/><path d="m32.9 99.1c-.1.1-.2.2-.3.3.2-.1.3-.2.3-.3z" fill="#d43831"/><path d="m94.1 88c-.1.1-.2.2-.3.2-.2 0-.5 0-.7 0-.1-.1-.2-.2-.2-.3 0-.3 0-.5 0-.8.4-.2.7-.6 1.2-.5.1 0 .1.1.1.2.1.1.1-.1.2 0 .1 0 .2 0 .2.1 0 .3 0 .6-.3.8v.3s-.1 0-.2 0z" fill="#d93831"/><path d="m79.7 98.9c-.2-.1-.6-.1-.3-.5.2.1.3.3.3.5z" fill="#d53831"/><path d="m80.2 99.1c-.2 0-.4 0-.5-.3.2.1.4.1.5.3z" fill="#d43831"/><path d="m92.9 88c .1.1.2.2.2.3 0-.2-.1-.2-.2-.3z" fill="#d73831"/><path d="m80.4 99.4c-.1-.1-.2-.2-.3-.3.2.1.2.2.3.3z" fill="#d43831"/><path d="m19.3 79.3c.3.7.3 1.3 0 2 0-.6 0-1.3 0-2z" fill="#d13831"/><path d="m19.3 77.3c.3.4.3.8 0 1.3 0-.5 0-.9 0-1.3z" fill="#d13831"/><path d="m19.3 81.9c.3.3.3.5 0 .8 0-.3 0-.6 0-.8z" fill="#d13831"/><path d="m19 86.7c-.2.3-.5.2-.7.3.1-.4.4-.3.7-.3z" fill="#d53831"/><path d="m19.3 83.4c.2.2.2.3 0 .5 0-.2 0-.3 0-.5z" fill="#d13831"/><path d="m19.3 84.9c.2.2.2.3 0 .5 0-.1 0-.3 0-.5z" fill="#d13831"/><path d="m19.3 85.7c.2.2.2.4 0 .5-.1-.2-.1-.3 0-.5z" fill="#d13831"/><path d="m19.2 86.2c0 .2 0 .4-.3.5.1-.2.1-.4.3-.5z" fill="#d13831"/><path d="m19.3 82.9c0 .1.1.1.1.2 0 0-.1 0-.1.1 0-.1 0-.2 0-.3z" fill="#d13831"/><path d="m17.7 87.2c-.1.1-.2.1-.3 0z" fill="#d53831"/><path d="m93.9 81.1c-.3-.3-.3-.5 0-.8z" fill="#d13831"/><path d="m93.9 78.1c-.3-.3-.3-.5 0-.8z" fill="#d13831"/><path d="m94.7 87h-.2c-.1.1-.2.1-.3 0 0-.1 0-.2 0-.3.3 0 .6-.1.7.3-.1 0-.2 0-.2 0z" fill="#d43831"/><path d="m100.5 75.5c.1.1.2.2.2.2s-.1-.1-.2-.2z" fill="#d53831"/><path d="m93.9 79.6c0-.1-.1-.1-.1-.2 0 0 .1 0 .1-.1z" fill="#d13831"/><path d="m93.9 86.2c0-.1-.1-.1-.1-.2l.1-.1z" fill="#d13831"/><path d="m94.1 86.4c-.1-.1-.2-.2-.3-.3.2.2.3.3.3.3z" fill="#d13831"/><path d="m96.4 87.5c0-.1 0-.2 0-.3h.3c-.1.1-.2.2-.3.3z" fill="#d43831"/><path d="m97.2 87.5c0-.1 0-.2 0-.3h.3c-.1.1-.2.2-.3.3z" fill="#d43831"/><path d="m99.2 87.2c-.1.1-.2.1-.3 0z" fill="#d43831"/><path d="m80.2 92.5.1.1h-.1z" fill="#d53831"/><path d="m78.9 97.4h.1v.1z" fill="#d53831"/><path d="m102.8 61.6c-.1.1-.2.1-.3.3 0-.4.2-.3.3-.3z" fill="#d53831"/><path d="m109.1 62.1-.1-.1h.1z" fill="#d43831"/><path d="m103.8 62.8c.1.1.2.2.3.3-.1-.1-.2-.2-.3-.3z" fill="#d53831"/><path d="m103 62.8.1.1z" fill="#d53831"/><path d="m102.8 62.8h.2s-.1 0-.2 0z" fill="#d53831"/><path d="m103 62.1v.1l-.1-.1z" fill="#d53831"/><path d="m9.1 63.1c-.1.1-.2.2-.3.3.1-.2.2-.2.3-.3z" fill="#d53831"/><path d="m9.3 62.8c-.1.1-.2.2-.3.3z" fill="#d53831"/><path d="m101 73.5c.1.1.2.2.3.2-.1 0-.2-.1-.3-.2z" fill="#d53831"/><path d="m101.5 74h .3l-.1.1c-.1 0-.1-.1-.2-.1z" fill="#d43831"/><path d="m97.2 87.5-.1.1v-.1z" fill="#d43831"/><path d="m96.4 87.5v.1l-.1-.1z" fill="#d43831"/><path d="m30.9 99.9c-.5.6-1.1.5-1.8.5.6-.4 1.2-.5 1.8-.5z" fill="#d43831"/><path d="m31.9 99.6c-.3.4-.7.2-1 .3.3-.3.6-.3 1-.3z" fill="#d43831"/><path d="m29.1 100.4c-.3.4-.7.3-1 .3.3-.3.7-.3 1-.3z" fill="#d43831"/><path d="m27.1 100.9c-.3.4-.7.2-1 .3.3-.3.6-.3 1-.3z" fill="#d43831"/><path d="m28.1 100.6c-.2.4-.7.3-1 .3.3-.3.6-.3 1-.3z" fill="#d43831"/><path d="m5.5 63.3c.4.2 1.3-.2 1.3.7-.5-.1-.9-.3-1.3-.7z" fill="#d43831"/><path d="m6.5 73c-.4 0-.8.1-1-.3.4 0 .8 0 1 .3z" fill="#d33831"/><path d="m9.3 73.7c-.4 0-.8.2-1-.3.4.1.8 0 1 .3z" fill="#d33831"/><path d="m3.4 62.1c.4-.1.6.1.8.5-.3-.1-.6-.2-.8-.5z" fill="#d43831"/><path d="m6.9 64.1c.4-.1.7.1.8.5-.3 0-.5-.2-.8-.5z" fill="#d43831"/><path d="m8.3 73.5c-.3 0-.6.1-.8-.2.3-.1.6-.1.8.2z" fill="#d33831"/><path d="m7.4 73.2c-.3 0-.6.1-.8-.2.2 0 .5 0 .8.2z" fill="#d33831"/><path d="m10.2 74c-.3 0-.7.1-.9-.2.3-.1.6-.1.9.2z" fill="#d33831"/><path d="m4.2 62.6c.2 0 .4.1.5.3-.2-.1-.4-.1-.5-.3z" fill="#d43831"/><path d="m4.7 62.8c.2 0 .4 0 .5.3-.2 0-.4 0-.5-.3z" fill="#d43831"/><path d="m7.8 64.6c.3 0 .5.1.5.4-.2-.1-.4-.3-.5-.4z" fill="#d43831"/><path d="m5.2 63.1c.1.1.2.1.3.2-.1 0-.2-.1-.3-.2z" fill="#d43831"/><path d="m10.6 74v .3c-.1-.1-.2-.2-.3-.3z" fill="#d33831"/><path d="m10.1 63.3c-.1 0-.2 0-.4-.1.2-.2.3 0 .4.1z" fill="#d53831"/><path d="m4.5 61.8-.1.1-.1-.1c0-.1.1-.1.2 0z" fill="#d43831"/><path d="m4.5 61.8c-.1 0-.2 0-.3 0 0-.1 0-.2 0-.3z" fill="#d93831"/><path d="m10.6 61.3.1.1h-.1z" fill="#d53831"/><path d="m11.6 74c0-.3.2-.5.5-.5-.1.2-.3.4-.5.5z" fill="#d53831"/><path d="m7 74c-.1-.1-.2-.2-.3-.3.2.1.2.2.3.3z" fill="#d93831"/><path d="m6.3 73.5s-.1 0-.1-.1c0 .1 0 .1.1.1z" fill="#d33831"/><path d="m10.3 74.8s0-.1.1-.1c0 0 0 0-.1.1z" fill="#d33831"/><path d="m8.8 74.3s0-.1.1-.1c0 0-.1 0-.1.1z" fill="#d33831"/><path d="m65.9 104.3c-1.6.2-3.1.5-4.6.7-.1-.6-.3-1.2-.4-2 1.6-.2 3.1-.5 4.8-.7 0 .6 0 1.2.2 2z" fill="#09090b"/><path d="m48.1 71.9c-2.7-4.7-5.4-9.4-8.2-14.2 2.7-4.7 5.4-9.4 8.2-14.1h16.4c2.7 4.7 5.4 9.4 8.2 14.1-2.7 4.8-5.5 9.5-8.2 14.2-5.5 0-10.8 0-16.4 0z" fill="#fff"/><path d="m41 32.1c2 3.4 3.9 6.7 5.8 10.1-2.7 4.7-5.4 9.4-8.2 14.1-3.1 0-6.1 0-9.1 0-.3-.6-.1-1.1-.1-1.6 0-5.7 0-11.4 0-17.1 0-1.7.3-2.1 1.9-2.7 3.1-1.1 6.4-2 9.7-2.8z" fill="#fff"/><path d="m83.2 56.3c-3.1 0-6.1 0-9.2 0-2.7-4.7-5.4-9.4-8.2-14.1 1.9-3.4 3.9-6.7 5.8-10.1 3.5.8 7 1.8 10.3 3 .9.3 1.3 1.1 1.3 2z" fill="#fff"/><path d="m64.5 74.1c1.6 2.7 3.1 5.4 4.7 8.1-2.5 2.2-5.3 4.1-8.2 5.7-5 2.8-4.4 2.8-9.4 0-2.9-1.6-5.6-3.5-8.2-5.7 1.6-2.7 3.1-5.4 4.7-8.1z" fill="#fff"/><path d="m69.8 31.8c-1.8 3.1-3.6 6.1-5.3 9.1-5.5 0-10.9 0-16.4 0-1.7-3-3.5-6-5.3-9.2 9-1.6 17.9-1.5 27 .1z" fill="#fff"/><path d="m38.7 59.1 8.1 14.1c-1.6 2.8-3.2 5.5-4.8 8.3-8.4-7.6-12-13.2-12.6-22.4z" fill="#fff"/><path d="m65.8 73.2c2.7-4.7 5.4-9.4 8.2-14.1h9.2c-.2 9.7-5.7 16.3-12.5 22.4-1.7-2.8-3.3-5.5-4.9-8.3z" fill="#fff"/><path d="m94.2 87h .3l-.1.1c-.2-.1-.2-.1-.2-.1z" fill="#d73831"/><path d="m93.6 87.5.1-.1z" fill="#d73831"/><path d="m93.6 87.5v.1l-.1-.1z" fill="#d73831"/><path d="m94.4 87.7h-.1v-.1z" fill="#d73831"/><path d="m57.3 62.8v6.3c-.6.3-1.1.1-1.7.1-.3-2.1 0-4.2-.2-6.4-1.4 0-2.8 0-4.2 0-1.6 0-2-.4-2-2 0-3.5 0-7 0-10.5 0-1.6.4-1.9 2-1.9h10.8c1.3 0 1.7.4 1.7 1.7v10.9c0 1.4-.5 1.8-1.8 1.8-1.5 0-2.9 0-4.6 0z" fill="#020203"/><path d="m57.5 61.1c0-1.7 0-3.1 0-4.6h4.4v3.9c-1.3 1.1-2.9.4-4.4.7z" fill="#fefefe"/><path d="m51 60.5c0-1.4 0-2.7 0-4h4.4v4.5c-1.5-.1-3 .4-4.4-.5z" fill="#fefefe"/><path d="m51 50.6c.9-.8 1.4-.8 4.4-.6v4.4c-1.5 0-2.9 0-4.4 0 0-1.3 0-2.5 0-3.8z" fill="#fdfdfd"/><path d="m61.9 50.4v4.1c-1.5 0-2.9 0-4.4 0 0-1.5 0-2.9 0-4.5 1.4.1 2.9-.5 4.4.4z" fill="#fdfdfd"/></svg>