<svg enable-background="new 0 0 113.4 113.4" viewBox="0 0 113.4 113.4" xmlns="http://www.w3.org/2000/svg"><circle cx="56.7" cy="56.7" fill="#010203" r="56.7"/><circle cx="56.7" cy="56.7" fill="#fff" r="54.8"/><circle cx="56.7" cy="56.7" fill="#010203" r="43.9"/><circle cx="56.7" cy="56.7" fill="#3889b8" r="42.8"/><path d="m11.2 70.7c-.3.1-.6.1-.9.2-.3-.2-.4-.5-.6-.8.2-.2.4-.4.6-.5-.3-.9-.3-1.9-.8-2.7-1.3.3-2.5.6-3.8.9.2 1 .5 1.9.7 2.9.4-.1.8-.2 1.1-.3.2-.5-.2-1-.2-1.5.3-.4.7-.2 1-.5.4.9.6 1.7.7 2.7-.9.5-1.9.5-2.9.8-.3.1-.8-.1-.9-.4-.5-1.5-1.2-2.9-.8-4.6 1.9-.6 3.8-1.1 5.6-1.4 1.4 1.2 1.9 4.3 1.2 5.2z" fill="#060608"/><path d="m71.4 13.8-.1-.1h-.1c-.1-.1-.2-.1-.3-.2-.2 0-.3-.1-.5-.1-.1-.1-.2-.1-.3-.2-.3-.1-.6-.4-1-.3-.1-.1-.2-.2-.3-.2-.2-.3-.2-.5.1-.7 1 .6 2.1.9 3.3 1.4.8-2 1.5-3.9 2.2-5.8-2.2-1.1-2.2-1.1-2.2-1.6 2.1.6 4.1 1.8 6.4 2.2 0 .1.1.3.2.5-.1.7-2.3 4.3-2.6 4.4-.6-.5-1.1-.9-1.7-1.4.7-.3 1.1.5 1.7.4.3-.4.5-1 .7-1.6.2-.5.4-1.1.6-1.6-.8-.3-1.5-.6-2.4-.9-.7 1.9-1.5 3.8-2.3 5.9 1.2.3 2.2 1.3 3.6.8.2.4.8.7.4 1.3-1.9-.3-3.7-1.1-5.4-2.2z"/><path d="m47.8 12.3c0 .1 0 .2-.1.2 0 .1-.1.2-.2.2s-.1.1-.2.1c-.1.1-.3.1-.4 0-.3-.1-.6-.2-.9-.3-.1-.1-.1-.3 0-.4.3 0 .7-.1 1-.1.1-.1.2-.1.3-.2.2-.7.2-1.3 0-2 0-.2-.1-.5-.1-.7 0-.1-.1-.1-.1-.2-.2-.1-.3.1-.3.2s0 .2-.1.2c0 .1-.1.2-.2.2-.1.1-.1.2-.2.3-.1.1-.2.2-.3.2-.1.1-.2.2-.3.2 0 .1-.1.1-.2.2-.1 0-.2 0-.3.1-.2-.2-.1-.3 0-.5.1-.1.2-.2.2-.3.1-.1.2-.2.2-.3.1-.1.2-.2.3-.3 0-.1 0-.1 0-.2h.1c.1-.1.1-.2.2-.3.1-.1.2-.2.2-.3s0-.1.1-.2.1-.4.2-.5c0-.2 0-.3 0-.5-.1-.1-.1-.2-.2-.3 0-.1-.1-.2-.1-.2-.2-.2-.3-.2-.5 0 0 .1-.1.2-.1.3-.1.1-.2.2-.3.2-.1.1-.2.1-.3.2-.3.1-.5.2-.4-.2 0-.1.1-.2.2-.2.1-.1.1-.2.2-.2.1-.1.1-.2.2-.2.1-.1.2-.2.2-.3.1 0 .1-.1.1-.1 0-.1 0-.1 0-.1-.2-.4-.8-.6-.9-1.2.7-.1.9.4 1.2.7.2 0 .3-.1.3-.3 0-.1 0-.1.1-.2.1-.2.1-.4.2-.5 0-.1 0-.2.1-.2.3-.2.6-.1.9 0h .1v.1c.1.1.1.3 0 .4 0 .1-.1.1-.2.1-.2 0-.3.1-.3.3 0 .1 0 .2-.1.2-.1.1-.1.2-.2.3-.1.1-.2.2-.2.3v.4c0 .1.1.2.2.3.1.1.1.2.2.3s.1.1.1.2c.1.1.1.2.2.3s.1.1.1.2c.1.2.1.4.2.5 0 .1 0 .3.1.4.1.3 0 .6.2.9 0 .3 0 .6.1.9.2.5.1 1 0 1.5 0 .1 0 .2-.1.4-.1-.3-.2-.2-.2 0z"/><path d="m68.4 6.2c.4-.7-.4-.8-.6-1.2-.6.5-1.3.5-1.9.3 0-.7.9-.4.9-.9-.2-.4-.6-.6-1-.5-.4.5-.8.9-1.2 1.3-.5-.1-.9-.2-1.5-.3 0-.9-.5-1.3-1.3-1.6-.1.7.5.9.4 1.4-.9.3-1.7-.4-2.6-.1 0 .9.8.5 1.1.7.9.6 1.8.6 2.8.5 1.1 0 2.2.2 3.3.5.6-.2 1.1-.2 1.6-.1z"/><path d="m27.7 97.1c-1 .8-1.9 1.6-2.9 2.4-.3-.1-.5-.2-.7-.6.8-2 1.6-4.1 2.4-6.2.4.1.7.3 1 .7-.4 1.1-.9 2.3-1.3 3.4-.1.1-.1.2-.1.2.1.1-.1 0 .1 0 1-.8 2.1-1.6 3.1-2.4.2.1.4.3.6.4-.4 1.2-.8 2.4-1.2 3.6.1.2.2.1.3 0 .9-.8 1.8-1.5 2.7-2.3.4.1.6.3.8.6-1.8 1.4-3.5 3.1-5.4 4.4-.1-.2-.3-.3-.4-.5.4-1.3.9-2.5 1.3-3.8-.1-.2-.2.1-.3.1z" fill="#060608"/><path d="m18.9 87.6c.1-.2.3-.4.4-.7-.5-.7-1-1.3-1.6-2-.3.3-.6.5-.9.7.5 1 1.5 1.7 1.9 2.9-.7 1.1-1.7 1.9-3 2.3-1-1.1-2.1-2.1-2.5-3.5.2-.6.5-.9.9-1.2.4-.1.6.2.9.4.1.3-.4.4-.3.8.5.6 1 1.4 1.6 2.1.5-.2.8-.4 1-.8-.4-.6-.8-1.2-1.3-1.7-.7-.8-.6-1.5.2-2.1.6-.4 1.1-1 2-1.1 1 .7 1.6 1.8 2.3 2.8.4.6 0 1.2-.6 1.6-.5 0-.7-.4-1-.5z" fill="#050507"/><path d="m53.7 103.5c1.4.1 2.8-.2 3.9.1.5.5.3 1 .4 1.4-.2.3-.5.3-.7.4-.4 0-.1-.5-.5-.7-.7 0-1.5 0-2.3 0-.3.4-.2.8-.1 1.1 1.2.4 2.5-.3 3.6.6-.2 1.2.5 2.5-.5 3.6-1.3 0-2.7 0-4 0-.4-.9-1-1.6.3-2.1.8 1.5 2.1.6 3.1.9.3-.5.1-.8.2-1.2-1.1-.5-2.3-.1-3.5-.5-.6-1.2-.6-2.4.1-3.6z" fill="#050506"/><path d="m9.1 74.1c-.9.4-1.7.7-2.5.9-.4-.2-.3-.6-.7-.9 2.1-.9 4.1-1.7 6.1-2.4.5.2.5.6.6 1-.7.3-1.5.6-2.3 1 .4.9.7 1.8 1.1 2.8.8-.3 1.5-.6 2.3-.8.3.3.4.6.5 1.1-2 .8-4 1.6-6.1 2.4-.2-.4-.3-.7-.5-1 .9-.4 1.7-.7 2.6-1.1-.4-1.2-.7-2.1-1.1-3z" fill="#070709"/><path d="m50.3 102.9h.4c.2.1.4.1.6.2.2 0 .5 0 .7.1v1.2c-1.2.2-2.2-.4-3.4-.2-.3.4-.1.8-.2 1.2.6.1 1.1.2 1.7.2.3.4.1.8 0 1.2-.6 0-1.2-.1-1.8-.1-.3.3-.3.8-.4 1.2 1.1.5 2.2.3 3.4.7.2.4-.1.8-.1 1.2-1.5 0-2.9-.4-4.5-.6.3-2.2.6-4.3.9-6.4 1-.3 1.8.3 2.7.1z" fill="#060608"/><path d="m41.8 101.3c.5-.2.9.1 1.3.3.1 1.5.3 3 .5 4.7 1-1.4 1.8-2.6 2.7-3.9.3 0 .7.1 1.2.2-1.4 2-2.7 3.9-4 5.7-.4.2-.6 0-.9-.2-.3-2.3-.6-4.6-.8-6.8z" fill="#09090b"/><path d="m25 90.9c-.5.5-.8.7-1.1 1-.5-.5-1-.9-1.4-1.4-1.3 1.2-2.5 2.4-3.7 3.6-.4 0-.6-.4-.9-.6 1.3-1.2 2.5-2.4 3.9-3.7-.5-.5-.9-1-1.3-1.4.1-.5.5-.7.8-.9 1.1 1 2.3 2.1 3.7 3.4z" fill="#0b0a0d"/><path d="m38.8 100c .4.2.8.1 1 .5-.6 1.6-1.2 3.2-1.7 4.8 1 .4 2 .8 3.1 1.2-.2.4-.3.8-.5 1.3-1.4-.5-2.7-1-4.1-1.5.7-2.2 1.4-4.2 2.2-6.3z" fill="#0a090c"/><path d="m93.2 88.9c-.2-.1-.4-.2-.6-.3-.5.6-1.1 1.1-1.6 1.7 0 .5.4.6.7.9 1-.6 1.5-1.8 2.7-2.3 1.2.4 1.9 1.4 2.7 2.4-.5 1.4-1.6 2.3-2.7 3.1-.6.5-1.2-.1-1.8-.7.1-.2.2-.5.4-.8.3.1.5.2.7.3.6-.6 1.2-1.3 1.8-1.9-.1-.5-.5-.7-.8-1-1 .6-1.5 1.9-2.6 2.3-1.1-.5-2-1.3-2.5-2.5.6-1.1 1.5-1.8 2.2-2.6.4-.4.9-.4 1.4-.1.4.5.5.9 0 1.5z" fill="#070709"/><path d="m63.3 109.5c-.3-.4-.5-.9-.5-1.4.1-.4.5-.4.8-.6.3.1.1.5.4.7.8-.2 1.8-.2 2.7-.6 0-.4-.1-.8-.2-1.2-.8.1-1.7.2-2.5.4-.6.1-1.2 0-1.3-.6-.3-1-.7-2-.2-3.1 0-.1.1-.2.3-.2.1 0 .2 0 .2-.1.8-.1 1.6-.1 2.4-.3 1.2-.3 1.6.3 1.7 1.3-.2.3-.5.4-.7.5-.9-1.2-1.9 0-2.9-.2-.1.5.1.8.1 1.3.9-.1 1.7-.3 2.5-.4.5-.1 1 0 1.2.5.4 1.1.8 2.1.3 3.4-1.4.4-2.8.8-4.3.6z" fill="#070709"/><path d="m103.2 69.1c.2.5.7.2.9.4.3-.3.4-.6.3-.9-.1-.1 0-.2 0-.2.5-.7.2-1.7 1-2.2.6-.5 1-.1 1.5.2.7.3 1.5.2 2 1.1-.2 1.3-.5 2.6-.9 3.8-.6.5-1.2.2-1.7.2-.3-.3-.1-.6-.2-.8.2-.4.6 0 .8-.6.1-.6.3-1.4.5-2.2-.3-.5-.7-.4-1.2-.5-.5 1-.4 2.3-1.2 3.3-1.3 0-2.5-.1-3.5-1.1.3-1.1.5-2.2.8-3.2.1-.6.6-.8 1.2-.7.6 0 .9.4.8 1.1-1 .1-.9.9-1 1.7.1.1.1.4-.1.6z" fill="#060608"/><path d="m83.9 98.1c.7 1 1.4 2.1 2.1 3.2-.1.3-.4.5-.8.6-1.2-1.7-2.5-3.5-3.7-5.2.3-.7.7-.7 1.3-.4.9.5 1.9.9 2.8 1.4.6.1.4-.3.3-.5-.1-1.1-.3-2.2-.5-3.4 0-.3.4-.3.7-.6l3.9 5.4c-.3.2-.5.4-.8.7-.7-1-1.4-1.9-2.1-2.8-.3-.1-.4 0-.3.3 0 1 .4 2 .3 3-1.1-.5-2-1.4-3.2-1.7z" fill="#060608"/><path d="m96.9 80.6c.8-1.4 1.5-2.7 2.2-4.1.4.2.7.4 1.1.6-.5 1-1 2-1.5 2.9.3.4.7.5 1.1.6l.9-1.5c.4-.1.7.2 1 .4-.1.6-.6 1.1-.8 1.8.4.2.7.4 1.2.7.6-1 1.1-2 1.6-3 .5 0 .8.3 1.2.6-.7 1.3-1.4 2.6-2.2 4-1.8-.9-3.7-1.9-5.8-3z" fill="#060608"/><path d="m93.2 86.1c.1-.5.4-.7.7-.9.6.4 1.3.9 2 1.4.6-.8 1.1-1.6 1.7-2.4-.7-.5-1.3-.9-1.9-1.4-.1-.5.2-.7.6-1 1.7 1.2 3.5 2.5 5.2 3.7 0 .5-.3.7-.5 1-.8-.5-1.5-1-2.3-1.6-.6.8-1.1 1.6-1.8 2.4.7.5 1.4 1.1 2.1 1.5.2.5-.3.6-.4 1.1-1.8-1.3-3.5-2.5-5.4-3.8z" fill="#050506"/><path d="m70.4 105.7c.2.8.4 1.5.5 2.3-.2.3-.6.3-1 .5-.6-2.1-1.3-4.2-1.9-6.3.4-.3.7-.3 1.1-.4.3.7.5 1.4.8 2.3.5-1.1 1-2.1 1.4-3 .4-.1.9-.3 1.5-.5-.7 1.4-1.2 2.6-1.8 3.9 1.3.8 2.6 1.5 3.9 2.3-.4.5-1 .3-1.4.7-1-.6-2.1-1.2-3.1-1.8z" fill="#070709"/><path d="m77.4 105.8c-.3.4-.6.5-1.1.4-.8-1.9-1.6-3.9-2.4-5.8.3-.4.6-.5 1.1-.5.7 1.9 1.5 3.9 2.4 5.9z" fill="#100f12"/><path d="m92.4 96.4c-.3.3-.5.5-.8.8-1.5-1.7-2.9-3.3-4.4-5 .3-.3.5-.5.9-.8 1.4 1.6 2.8 3.3 4.3 5z" fill="#0d0d0f"/><path d="m52.3 9.7c.7-.4 1.2-.7 1.8-1.1-1.4-1.2-1.1-2.7-1.1-4.2-.1-.2-.4-.3-.7-.4-.3.3-.6.5-1.1.5-.3-.7-.8-1-1.5-1.1-.2.6.5.7.4 1.2-.6.5-1.2.2-1.8.1.3 2.6.5 5.3 1.3 8.2.8-1.1 1.9-1.3 2.3-2.1.7.4 1.1 1 1.9 1.1.2-.3.7-.3.7-.8-.7-.5-1.6-.7-2.2-1.4zm-1-4.6c.4-.2.8-.1.7.7-1 0-1.8.5-2.9.2.5-1.1 1.6-.5 2.2-.9zm-1.8 1.8c1-.1 1.9-.7 3.1 0-1 .8-2 .4-2.8.8-.4-.3-.4-.5-.3-.8zm.6 4.2c-.5-.8-.2-1.8-.6-2.6.3-.4.6-.3.9-.3.4.7.7 1.5 1.3 2.1-.5.3-1 .6-1.6.8zm1.8-2c-.4-.2-.5-.5-.6-1 .6-.2 1.1-.4 1.5.2-.2.3-.5.6-.9.8z"/><path d="m64.7 10.9c-.6-1.5.2-2.8.2-4.3.5-.2.8 0 1.2.4-1.1 1.1-.4 2.7-1.4 3.9z"/><path d="m43.4 11.4c-.1.1-.2.2-.4.3-.3-.2-.6-.3-.9-.5-.5-.1-.4-.4-.4-.8.4-.4-.1-.8-.2-1.1-.3-.9-.9-1.8-.7-3.1-1.5.5-2.7 1.5-4.2 1.6.2-.3.3-.5.4-.8-.4-.2-.8-.2-1.2 0-.1.4.3.9-.1 1.2s-.8 0-1.3.2c.5 1.4 1.1 2.8 1.6 4.1.6 0 .7-.6 1.2-.5.6 1.2.1 2.2-.4 3.2-.1.1-.2.1-.2.2-.2.2-.6.3-.5.7.1.1.2.1.3.1s.2 0 .3-.1c.1 0 .2-.1.3-.2l.1-.1c.1-.1.2-.1.3-.2.5-.5 1-1.1.9-1.9 0-.1 0-.3.1-.4.3-.3.2-.8.3-1.3.5.9.6 1.8 1.4 2.3.3.2.7.1 1 0h .3c1-.7 2.4-.6 3.3-1.9-.9.2-.4-.9-1.3-1zm-7.8-2.4c.5-.2 1-.4 1.6-.6.1.4.2.6.3.9-.5.2-1 .4-1.5.6-.3-.2-.3-.5-.4-.9zm1.1 2.5c-.4-.3-.4-.6-.3-1 .4-.2.9-.4 1.3-.5.3.2.3.5.6.9-.7.3-1.2.5-1.6.6zm1.4-3.3c.4-.5 1.1-.5 1.6-.8.4.2.4.5.5.9-.6.2-1.1.4-1.6.6-.4 0-.5-.3-.5-.7zm2.1 4.5c-.2-.5-.3-1-.5-1.5.2-.4.6-.3 1-.5-.2.7.5 1.6-.5 2zm-1.2-2c-.1-.3-.3-.6-.4-.9.6-.5 1.2-.5 1.9-.8.1.4.2.6.4.9-.5.4-1.2.4-1.9.8zm2.3 1.3c0-.1 0-.1 0-.1 0-.1.1-.3.2-.6.2.2.3.4.4.5 0 .3-.2.4-.5.4 0 0-.1-.1-.1-.2zm.4 1.5v-.1c-.1-.1-.1-.1-.1-.2s0-.1 0-.1c.3-.7 1.2-.4 1.6-.9h.2c0 1.2-1.2.8-1.7 1.3z"/><path d="m32.8 97.2c-1.1 1.9-2.1 3.6-2.8 5.6 1.3 1.2 2.9 1.7 4.5 2.5 1.2-1.8 2.2-3.7 3-5.7-1.5-1.1-3-1.8-4.7-2.4zm1.4 6.5c-.9-.5-1.8-.9-2.8-1.5.6-1.2 1.2-2.3 1.8-3.5 1 .5 1.9 1 2.8 1.5-.6 1.2-1.2 2.3-1.8 3.5z" fill="#050607"/><path d="m14.5 77.9c-1.7.5-4.7 2.3-5.3 3.3.6 1.3 1.4 2.7 2.4 4.2 2.1-.7 3.7-1.8 5.4-2.9 0-1.3-1.4-3.9-2.5-4.6zm-3.8 3.3c1.1-.7 2.3-1.3 3.4-2 .6.9 1.2 1.8 1.6 2.8-1.1.6-2.2 1.3-3.4 1.9-.5-.9-1.1-1.8-1.6-2.7z" fill="#050506"/><path d="m82.7 102c-.4-.2-.9-.2-1.2-.6 1-1 .8-2.1-1-4-1.6.2-2.8 1.3-4.2 1.9 1.1 2 2.1 4 3.1 5.9.4-.2.7-.4 1-.5-.4-.7-.7-1.4-1.1-2.2.2-.1.4-.3.5-.3 1.1.1 1.9.9 3 1.2.4-.3.9-.3 1.2-.8-.5-.2-.9-.4-1.3-.6zm-4.1-.7c-.2-.5-.5-.9-.7-1.4.7-.5 1.4-.9 2.1-1.1.5.3.6.8.8 1.2-.6.6-1.4.9-2.2 1.3z" fill="#060608"/><path d="m107.1 74.4c.1-.4.5-.7.3-1.3-.8.3-1.6.5-2.4.7-.3-.1-.1-.3-.1-.4-.3-1.2-2.2-2.1-3.9-1.8-.5 1.3-1.1 2.6-1.5 4.1 2.1.8 4.1 1.6 6.1 2.3.3-.4.5-.7.3-1.1-.7-.3-1.4-.6-2.2-.9.9-1.4 2.4-.9 3.4-1.6zm-4.5 1.1c-.5 0-1-.3-1.5-.5.3-.8.6-1.5.9-2.3.6.2 1.1.3 1.4.7-.1.7-.4 1.4-.8 2.1z" fill="#060608"/><path d="m35.3 46.2c-.3-.2-.7-.5-1-.7-.2-.4-.3-.7.1-1 1.3 0 2.5-.2 3.7-.5.2-.1.3-.1.5 0 .5-1.7.1-3.3-.1-5-.2-2.4-1-4.8-1-7.3 0-.6-.1-1.2.5-1.6.6-.1 1.1.2 1.6.6 2.4 1.6 4.9 3.2 7.3 4.8.2 0 .3.1.3.3.4.5.9.8 1.5 1 1.2.3 2.4 0 3.6.2 2.8.6 5.6.3 8.4.3.3-.2.7 0 1-.2h2.6c.3.1.5.1.7 0 .1-.1.2-.2.3-.3s.2-.2.4-.3c.2 0 .3-.1.4-.3.1-.1.2-.2.4-.3 2.1-1.3 4.1-2.6 6-4 0-.1.1-.1.2-.1.7-.5 1.4-.9 2.1-1.4.5-.3.9-.6 1.6-.1.6 3.3-.9 6.4-1 9.7-.1.6 0 1.3 0 1.9v1.2c0 .3-.1.6.1.9 1.3.3 2.6.6 4 .5.3.3.2.7.1 1-.3.2-.7.5-1 .7-.1.1-.2.2-.3.2-.1.1-.1.2-.2.3.4.7 1.1 1.2 1.7 1.8.1.1.2.2.3.3.1 0 .1.1.1.2.2.5.9.8.9 1.4 0 .2-.1.3-.3.4-.6.1-1.2.1-2-.3.2 1 .4 1.7.8 2.3.1.2.1.4.2.5 0 .2 0 .4.2.5.1.1.2.2.3.3.1.1.2.2.3.3.2.3.5.6.9.7.2 0 .3.1.3.3.1.2.2.2.4.2s.3.1.4.3c.3.2.5.4.8.6.1 0 .2 0 .2.1.1 0 .2.2.3.3.1.3.4.4.6.5.2 0 .3.1.4.3.1 0 .2.2.3.3.3.6 1.5.6 1 1.7-.2.2-.4.2-.6.3-.4-.1-.8-.2-1.2-.3-.6-.3-1.2.1-1.8-.2-.2 0-.3 0-.5 0-.3-.2-.6-.1-.9-.1-.2.1-.2.4-.3.6-.1.1-.2.2-.1.5 0-.1 0-.3.1-.4s.2-.1.3-.1c0 .1 0 .3.1.4.2.4 0 .8.2 1.1 0 .2 0 .3.1.5.1.3.1.5 0 .8-.2.1-.3-.1-.5-.2.1.3.2.6.2.9.1.2.1.3.1.5v.5c0-.2 0-.3 0-.5 0-.3-.1-.6 0-.9.1-.1.2-.1.3 0 0 .2 0 .5.1.7.4 1.5.2 3 .3 4.5 0 .1.1.3 0 .4v.4c.1.2.2.4 0 .6-.1.1-.2.1-.3.1s-.2-.1-.2-.1l-.1-.1c-.1-.1-.1-.1-.2-.2l-.1-.1c-.1-.1-.1-.2-.2-.3-.1-.1-.2-.2-.3-.2s-.1 0-.2-.1-.2-.2-.3-.2-.2 0-.2-.1c-.1-.1-.2-.1-.3-.2-.1 0-.2-.1-.3-.1s-.2-.1-.2-.1h-.1-.1c-.2-.1-.1.1-.2.2 0 .1-.1.3-.1.4-.2.3 0 .7-.3 1.1v.3c-.1.1-.1.4-.2.5 0 .1 0 .2-.1.3-.2 0-.3.1-.3.1 0 .1 0 .2-.1.2-.1.1-.1.4-.2.5 0 .1 0 .2-.1.3s-.2.2-.2.4c0 .1-.1.3-.1.4-.1.1-.1.2-.2.3 0 .1 0 .2-.1.2-.1.1-.1.2-.2.3 0 .1 0 .2-.1.2-.1.1-.1.2-.2.3 0 .1-.1.2-.1.3s-.1.2-.2.2c-.2.1-.1.3-.2.5-.1.1-.2.2-.3.3 0 .1 0 .2-.1.2-.1.1-.1.2-.2.3 0 .1-.1.2-.1.2 0 .1-.1.2-.1.2-.1.1-.2.2-.3.3 0 .1-.1.1-.1.2v.1h-.1c-.1.2-.3.4-.6.4-.3-.1-.4-.2-.5-.5 0-.1-.1-.2-.3-.3-.1-.1-.1-.2-.3-.3-.1-.1-.1-.1-.2-.2l-.1-.1c-.1-.1-.1-.1-.2-.2l-.1-.1c-.1-.1-.1-.1-.2-.2l-.1-.1c-.1-.1-.1-.1-.2-.2l-.1-.1c-.1-.1-.1-.1-.2-.2l-.1-.1c-.1-.1-.1-.1-.2-.2l-.1-.1c0-.1-.1-.1-.1-.2-.1-.1-.2-.2-.3-.2-.2-.2-.4-.2-.6 0-.1.1-.2.2-.3.3-.1.1-.1.1-.2.2 0 0 0 .1-.1.1-.1.2-.3.4-.4.6 0 .1-.1.2-.2.3-.3.2-.5.5-.7.8-.1.1-.2.2-.2.3-.1.1-.1.1-.2.2 0 0 0 .1-.1.1 0 .1-.1.1-.2.2l-.1.1c-.1.1-.1.1-.2.2l-.1.1c-.1.1-.1.1-.1.2s-.1.1-.1.2c-.1.1-.1.1-.2.2l-.1.1c-.1.1-.2.1-.3.2-.1.1-.2.2-.3.2-.1.1-.2.1-.3 0-.1-.1-.1-.1-.2-.2s-.1-.2-.1-.3c-.1-.2-.2-.3-.4-.3-.3 0-.4-.3-.4-.5 0-.1 0-.2.1-.3.1-.2.1-.4.2-.6 0-.1.1-.2.1-.3.1-.1.1-.3.2-.4s.1-.2.2-.2c.1-.1.2-.1.3-.1s.1.1.1.1c.4.3 0 .9.4 1.2.1-.1.1-.1.1-.2s.1-.1.2-.2l.1-.1.2-.2.1-.1.2-.2.1-.1.2-.2.1-.1c.1-.1.1-.2.2-.3 0-.1.1-.1.1-.2s.1-.1.2-.2l.1-.1c.1-.1.1-.1.2-.2l.1-.1c0-.1.1-.1.1-.2s.1-.1.1-.2.1-.1.2-.2l.1-.1c.1-.1.1-.1.2-.2l.1-.1c.1-.1.1-.1.2-.2l.1-.1c.1-.1.1-.2.2-.3s.1-.1.2-.2h.3c.1 0 .2 0 .2.1.1 0 .1.1.2.2l.1.1.2.2.1.1c.1 0 .1.1.2.1s.1.1.2.1l.2.2.1.1.2.2.1.1.2.2.1.1c.1 0 .1.1.2.1s.1.1.2.1.1.1.2.2l.1.1.2.2.1.1.2.2.1.1.2.2.1.1c.1 0 .1.1.2.1h.1c.1 0 .1-.1.1-.1 0-.1.1-.1.1-.2.1-.1.1-.2.2-.3 0-.1.1-.1.1-.2.1-.1.1-.2.2-.3 0-.1.1-.2.1-.2 0-.1.1-.2.1-.2 0-.1.1-.2.1-.2 0-.1.1-.2.1-.3s.1-.2.1-.3.1-.2.1-.3.1-.2.1-.2c0-.1.1-.2.1-.2 0-.1.1-.2.1-.2.1-.1.1-.2.2-.4 0-.1.1-.2.1-.2 0-.1.1-.3.1-.4s.1-.2.1-.3c.1-.1.1-.3.2-.4 0-.1.1-.2.1-.3.1-.2.1-.4.1-.6 0-.1 0-.2.1-.3.1-.2.1-.5.2-.7 0-.1.1-.2.1-.3.1-.2.1-.4.2-.6 0-.1.1-.2.1-.3.1-.4.3-.7.8-.7.1 0 .2 0 .3.1.1 0 .2.1.3.1s.2.1.3.1.1.1.2.2l.1.1c.1.1.2.1.3.2.1 0 .1.1.2.1.1.1.2.1.3.1s.2 0 .2-.1c.1-.4 0-.7 0-1 0-.1-.1-.2-.1-.3-.1-.5 0-1-.2-1.5 0-.1-.1-.2-.1-.3-.1-.7 0-1.4-.2-2.1 0-.1-.1-.2-.1-.3-.1-.6 0-1.3-.2-2 0-.1-.1-.2-.1-.4 0-.3-.1-.6-.1-.9 0-.1 0-.1.1-.2l.1-.1c.1 0 .1-.1.2-.1.9-.2 1.8-.1 2.6-.1.1 0 .2 0 .3.1h.2c0-.1 0-.2-.1-.2-1.2-.8-2.4-1.6-3.6-2.4-2.2-1.4-2.2-3.8-3-5.8-.1-.2 0-.3 0-.5 0-.1.1-.2.3-.4.6-.2 1.2 0 1.9.2-.8-1.1-2.2-1.6-2.9-2.6 0-.9.5-1.1 1.1-1.4 0-.1 0-.1-.1-.1-2.6.1-4.5-1.1-6.1-3.1-1.1-1.3-1.3-1.9-.4-3.4 1.1-2 2.7-3.8 3.7-5.9.2-.4.5-.8.8-1.5-2.6 2.7-5.7 4.2-8.4 6.3-1.2 1-2.6 1-4 .7-2.1-.4-3.9-.2-4.9 2-.1.2-.3.3-.5.3-.5-.1-.7-.6-.9-1-.7-1.2-1.8-1.6-3.1-1.5-.5 0-.9.2-1.4.2-1.7.2-3.3-.1-4.8-1.2-2.3-1.8-5-3.2-7-5.4-.1-.1-.3-.3-.6-.3 1.2 2.4 2.7 4.5 4.1 6.6 1.3 2.1 1 3-.7 4.6-1.5 1.5-3.2 2.5-5.5 2.3 1.2 1 1.3 1.5.2 2.2-.7.5-1.3 1.2-1.9 1.8.7 0 1.4-.6 2.1.4-1 1.9-.9 4.4-3 5.9-1.3.9-2.5 1.9-3.8 2.7l-.1.1c0 .1.1.1.2.1s.2 0 .3-.1c.9-.1 1.7-.1 2.6 0 .1 0 .2.1.3.2s.1.2.2.3v.4c-.1.5-.1.9-.1 1.4 0 .2 0 .4-.1.5.3.7.3 1.1.3 1.5 0 .1 0 .2-.1.4-.2.7-.1 1.4-.2 2 0 .1 0 .2-.1.4-.2.5-.2.9-.2 1.4 0 .1 0 .2-.1.3-.1.3-.2.5-.1.8.1.1.1.1.2.1s.2-.1.2-.1c.1 0 .2-.1.2-.1.1 0 .2-.1.2-.1.1 0 .2-.1.2-.1.1-.1.2-.1.3-.2l.2-.2c.1-.1.2-.1.3-.1s.2 0 .3-.1c.2 0 .4 0 .6.2.1.2.2.4.2.6s.1.4.1.6c0 .1.1.2.1.3.1.3.1.5.2.8 0 .1.1.2.1.3 0 .2.1.4.1.6 0 .1.1.2.1.3s.1.3.1.4.1.2.1.3c.1.1.1.2.2.4 0 .1.1.2.1.2.1.1.1.2.2.4 0 .1.1.2.1.2 0 .1.1.2.1.4 0 .1.1.1.1.2.1.1.1.1.1.2s.1.1.1.2.1.1.1.2.1.1.1.2c.1.1.1.2.2.3 0 .1.1.2.1.2 0 .1.1.2.1.4 0 .1.1.1.1.2.1.1.1.2.1.2 0 .1.1.2.1.2 0 .1 0 .1.1.2 0 .1.1.1.1.1.1 0 .1 0 .2-.1 0-.1.1-.1.1-.1 0-.1.1-.1.2-.2l.1-.1.2-.2.1-.1.2-.2.1-.1.2-.2c.1-.1.1-.1.2-.1s.1-.1.2-.1.1-.1.2-.1l.2-.2.1-.1.2-.2c.1-.1.1-.1.2-.1s.1-.1.2-.1.1-.1.2-.1c.1-.1.1-.1.2-.2l.1-.1c.1-.1.1-.1.2-.2l.1-.1c.1-.1.1-.1.2-.2.1 0 .2-.1.3-.1.2 0 .4.1.5.2s.1.1.2.2.1.2.2.3c0 .1.1.1.1.2l.2.2.1.1c.1.1.1.1.2.2l.1.1.2.2c0 .1.1.1.1.2s.1.1.1.2l.1.1c.1.1.1.1.2.2l.1.1.2.2c.1.1.1.1.1.2s.1.1.1.2.1.1.1.2l.2.2.1.1c.1.1.1.1.2.2l.1.1.2.2c.1.1.1.1.1.2s.1.1.1.2c.1.1.1.1.2 0 0-.2 0-.5.1-.7 0-.1.1-.2.1-.3.1-.1 0-.3 0-.4s0-.2.1-.3.3-.1.4 0c .1 0 .2.1.2.2.1.1.1.2.2.3s.1.2.1.3c.1.1.1.3.2.4 0 .1.1.2.1.3s.1.3.1.4.1.2.1.2c.1.1.1.2.2.4 0 .1.1.2.1.3s.1.3.1.4.1.2.1.2c.1.1.1.2.2.3 0 .1.1.1.1.2.1.1.1.2.2.3 0 .1.1.1.1.2s.1.1.1.2l.1.1.2.2c.1.1.1.1.1.2s.1.1.1.2c.1.1.1.1.2.2l.2.2c0 .1.1.2.1.3.1.2.1.4.2.6 0 .1.1.2.1.3 0 .4 0 .7.2 1.1 0 .1.1.3.1.4 0 .2 0 .4.1.5s.1.2.2.3.1.1.2.2l.1.1c.1.1.1.1.2.2s.1.1.1.2.1.1.1.2.1.1.1.2c.1.1.1.1.2.2l.1.1.2.2.1.1c.1.1.1.1.2.2l.1.1.2.2.1.1c.1.1.1.1.2.2l.1.1.2.2.1.1c.1.1.1.1.2.2l.1.1c.1 0 .1.1.2.1s.2.1.2.1l.2.2.1.1c.1 0 .2.1.2.1.1 0 .2.1.2.1.1.1.3.1.4.2.1 0 .2.1.3.1.3.1.6.1.9 0 .1 0 .2-.1.3-.1.1-.1.3-.1.4-.2.1 0 .2-.1.2-.1.1-.1.2-.1.3-.2l.2-.2c.1-.1.1-.1.2-.1s.1-.1.2-.1.1-.1.2-.1l.1-.1.2-.2.1-.1.2-.2.1-.1c.1-.1.1-.1.2-.2l.1-.1c.1-.1.1-.1.2-.2l.1-.1.2-.2.1-.1.2-.2.1-.1c.1-.1.1-.1.2-.2l.1-.1.2-.2.1-.1.2-.2.1-.1.2-.2.1-.1c.1-.1.1-.1.2-.2s.3-.2.4-.1.3.2.1.4c-.1.2-.1.3-.2.5l-.1.1c-.1.1-.1.1-.2.2l-.1.1c-.1.1-.1.1-.2.2l-.1.1c-.1.1-.1.1-.2.2l-.1.1c-.1 0-.2.1-.2.1-.1.1-.2.2-.3.3-.1.2-.2.3-.3.5-.1.1-.1.2-.2.3 0 .1-.1.2-.1.2 0 .1-.1.2-.2.2-.1.1-.2.2-.2.3s-.1.1-.1.2-.1.2-.2.2c-.1.1-.2.2-.2.3s0 .2-.1.2c0 .1-.1.2-.2.3-.1.1-.2.2-.2.3-.1.1-.2.1-.3.3-.1 0-.2.1-.3 0 0-.1-.1-.2-.2-.3-.2-.2-.4-.2-.6 0-.1.1-.1.2-.2.2-.1.1-.2.2-.2.3-.1.1-.2.1-.3.2-.1 0-.2 0-.3 0-.1-.1-.2-.1-.3-.2-.1-.1-.2-.2-.3-.3-.1-.1-.2-.2-.3-.3-.2-.2-.3-.2-.5 0-.1.1-.1.2-.2.3s-.2 0-.4 0c-.1-.1-.2-.2-.3-.3 0-.1-.1-.2-.2-.3-.1-.1-.1-.1-.2-.2s-.1-.1-.1-.2c-.1-.1-.1-.2-.2-.3-.1-.1-.1-.1-.2-.2s-.1-.1-.1-.2-.1-.1-.2-.2c-.1 0-.1-.1-.2-.2 0-.1-.1-.2-.1-.2-.1-.2-.2-.3-.3-.5-.1-.1-.1-.2-.3-.3-.1-.1-.1-.1-.2-.2l-.1-.1c-.1-.1-.1-.1-.2-.2l-.1-.1c-.1-.1-.1-.1-.2-.2l-.1-.1c0-.1-.1-.2-.1-.2-.2-.2-.4-.5-.6-.7 0-.1-.1-.2-.2-.3-.1-.1-.1-.2-.2-.3-.1.2-.1.2-.1.1-.2-.2 0-.6-.2-.8 0-.2 0-.3-.1-.5-.2-.3.1-.8-.3-1.1-.1-.1-.1-.2-.2-.3-.1 0-.1-.1-.1-.1 0-.2-.1-.3-.2-.4-.1-.1-.2-.2-.2-.3-.1-.1-.2-.3-.3-.5 0-.1-.1-.2-.1-.3 0-.2 0-.4-.1-.5-.1-.1-.1-.3-.2-.4s-.1-.2-.1-.2c0-.1 0-.3-.1-.4h-.1c0-.1-.1-.1-.1-.2-.1-.1-.1-.1-.2-.1h-.1c-.1.1-.2.2-.3.3-.1.1-.2.2-.3.3-.1 0-.2 0-.3 0-.1-.1-.1-.1-.2-.2l-.1-.1c-.1-.1-.1-.1-.2-.2s-.1-.1-.2-.2c0-.1-.1-.1-.1-.2s-.1-.1-.1-.2c-.1-.1-.1-.1-.2-.2l-.1-.1c-.1-.1-.1-.1-.2-.2l-.1-.1c-.1-.1-.1-.1-.2-.2l-.1-.1c-.1-.1-.1-.1-.2-.2l-.1-.1c-.1-.1-.1-.1-.2-.2s-.1-.2-.2-.3c-.2-.2-.3-.5-.5-.7-.1-.1-.1-.1-.2-.2s-.1-.1-.2-.2c-.1-.2-.2-.5-.4-.6-.1-.1-.1-.2-.3-.3-.1-.2-.3-.2-.5-.1s-.3.2-.5.3c-.1.1-.2.1-.3.3-.1.1-.2.2-.3.3-.1 0-.1.1-.1.2l-.1.1c-.1.1-.1.1-.2.2l-.1.1c-.1.1-.1.1-.2.2l-.1.1c-.1.1-.2.1-.3.2-.1.1-.2.2-.3.3-.2.2-.3.5-.5.7l-.1.1c-.1.1-.1.1-.2.2l-.1.1c-.1 0-.2 0-.2-.1-.1-.1-.2-.2-.3-.2-.1-.1-.1-.1-.2-.2 0-.1-.1-.2-.2-.3-.1-.1-.2-.1-.3-.2 0-.1-.1-.2-.1-.2 0-.1-.1-.1-.1-.2-.1-.1-.1-.2-.1-.2 0-.1 0-.3-.1-.3-.1-.1-.1-.2-.2-.2.4-.2.4-.2.4-.3-.1-.1-.2-.2-.3-.3 0-.1-.1-.2-.1-.2 0-.1-.1-.2-.1-.2-.1-.1-.1-.2-.1-.2 0-.1 0-.3-.1-.4-.1-.1-.2-.3-.3-.5s-.1-.4-.2-.5-.1-.1-.1-.2c-.1-.2-.1-.4-.3-.5 0-.1-.1-.2-.1-.3 0-.2-.1-.4-.2-.5-.1-.2-.1-.4-.3-.5 0-.1-.1-.2-.1-.3 0-.2 0-.4-.1-.5 0-.2 0-.4-.1-.7-.2-.3.1-.8-.3-1.1.2-.1.2-.1.1-.1h-.1-.1c-.1.1-.2.1-.3.2s-.1.1-.2.1c-.1.1-.2.1-.3.2s-.1.1-.2.1-.2.1-.3.2c0 .1-.1.1-.2.2-.1 0-.2.1-.2.1-.1 0-.1.1-.2.2 0 .1-.1.1-.1.2-.1.1-.1.1-.2.2l-.1.1c-.1.1-.1.1-.2.2l-.1.1c-.1 0-.2 0-.2-.1-.1-.1-.1-.2 0-.3 0-.1 0-.3.1-.4.2-.7.1-1.4.1-2.1 0-1 0-2 0-3 0-.1 0-.3.2-.3s.3.1.4.3c0 .1 0 .3-.1.4.1 0 .1-.1.1-.2s.1-.2.1-.3c0-1-.2-2 0-3 0-.1 0-.1 0-.2.2-.3.1-.7 0-1-.3-.2-.5-.2-.8 0-1.2.2-2.5.3-3.7.5-.2-.1-.5-.1-.6-.3-.3-.3-.2-.7 0-1 .1-.1.2-.2.4-.3.3 0 .5-.2.7-.5.1-.2.2-.3.4-.3.4-.1.7-.4.9-.7.1-.1.2-.2.4-.3.3-.1.5-.2.7-.5.1-.1.2-.2.3-.3.1-.2.4-.1.5-.3.1-.1.2-.1.3-.2 0-.1.1-.1.2-.1.3-.1.6-.3.8-.6.1-.1.2-.2.3-.3.1-.1.1-.2.3-.3 0-.1.1-.2.3-.3 0-.1.1-.2.2-.3.6-.9.7-1.9 1.1-2.9-.7.1-1.4.2-2 .1-.3-.1-.3-.4-.4-.6.3-.5.8-.7 1-1.3 0-.2.1-.3.3-.4.1-.1.2-.2.3-.3.5-.6 1.5-.8 1.4-1.8-.8.1-.9 0-1-.2z" fill="#010203"/><g fill="#eee417"><path d="m83.7 83.6c1.6.1 3 .3 4.7.5-2.6 2.2-5 4.2-7.5 6.3-1.5-.1-3.1-.3-4.8-.4.1-1.6.3-3.1.4-4.8 2.4-2 4.8-4.1 7.5-6.3-.1 1.7-.2 3.1-.3 4.7z"/><path d="m38.5 86.9c3.2 1.2 6.2 2.2 9.2 3.3.7 1.4 1.3 2.8 2.1 4.4-1.4.7-2.9 1.3-4.4 2-3-1.1-6-2.2-9.2-3.3 1.6-.8 2.9-1.4 4.3-2.1-.6-1.4-1.2-2.7-2-4.3z"/><path d="m77.1 93.3c-3.2 1.2-6.2 2.2-9.2 3.3-1.4-.7-2.9-1.3-4.4-2 .7-1.5 1.4-2.9 2.1-4.4 2.9-1.1 5.9-2.1 9.2-3.3-.7 1.6-1.3 2.9-2 4.3 1.4.7 2.7 1.3 4.3 2.1z"/><path d="m29.8 79.3c2.3 1.9 4.7 3.9 7 5.8.2 1.6.3 3.2.5 4.8-1.6.1-3.2.3-4.8.4-2.4-2-4.9-4.1-7.5-6.3 1.8-.2 3.2-.3 4.7-.5-.1-1.2-.2-2.2-.2-3.3-.1-.3-.4-.8.3-.9z"/><path d="m86.2 31.7c-1.4.1-2.7.2-4 .3-.3 0-.7 0-1-.2-2.3-1.9-4.6-3.9-7.2-6 1.7-.2 3.2-.3 4.7-.5-.1-1.5-.2-3-.4-4.7 2.6 2.2 5 4.2 7.4 6.3.3 1.6.5 3.1.5 4.8z"/><path d="m91.3 72.8c1.5-.4 2.9-.7 4.6-1.2-1.7 3-3.3 5.7-4.9 8.4-1.5.4-3 .8-4.6 1.3-.4-1.5-.8-3-1.3-4.6 1.6-2.7 3.2-5.4 4.9-8.5.5 1.7.9 3.1 1.3 4.6z"/><path d="m84.2 33.8c1.3.3 2.5.6 3.9 1 .4-1.5.8-2.9 1.3-4.6 1.7 2.9 3.3 5.6 4.9 8.5-.4 1.5-.8 3-1.3 4.7-1.6-.4-3-.8-4.6-1.3-1.5-2.6-3-5.3-4.5-7.9-.1-.4 0-.5.3-.4z"/><path d="m29.5 34.1c-1.5 2.6-3 5.3-4.5 7.9-1.5.4-3 .8-4.6 1.3-.4-1.6-.8-3.1-1.3-4.6 1.6-2.7 3.1-5.5 4.9-8.5.5 1.7.9 3.1 1.3 4.6 1.4-.3 2.6-.7 3.9-1 .3-.1.4 0 .3.3z"/><path d="m17.5 71.6c1.7.4 3.1.8 4.6 1.2.4-1.5.8-2.9 1.3-4.6 1.7 3 3.3 5.7 4.9 8.5-.4 1.6-.8 3.1-1.2 4.6-1.6-.4-3.1-.8-4.7-1.3-1.6-2.7-3.2-5.4-4.9-8.4z"/><path d="m94.8 60c1.3-.9 2.5-1.7 3.9-2.7-.6 3.4-1.1 6.4-1.7 9.6-1.3.9-2.6 1.8-3.9 2.8-.9-1.3-1.8-2.6-2.7-3.9.6-3.1 1.1-6.2 1.7-9.6.9 1.3 1.8 2.5 2.7 3.8z"/><path d="m98.1 52.6c-.9 1.3-1.8 2.6-2.8 3.9-1.3-.9-2.5-1.8-3.9-2.7-.5-3-1.1-6.2-1.7-9.7 1.4 1 2.6 1.9 3.9 2.7.9-1.3 1.7-2.4 2.8-3.9.6 3.4 1.2 6.5 1.7 9.7z"/><path d="m14.6 57.3c1.5 1 2.6 1.8 3.9 2.7.9-1.2 1.8-2.5 2.8-3.9.6 3.3 1.2 6.4 1.7 9.6-.9 1.3-1.8 2.6-2.7 4-1.3-.9-2.6-1.8-3.9-2.7-.6-3.2-1.1-6.3-1.8-9.7z"/><path d="m15.2 52.6c.5-3.1 1.1-6.2 1.7-9.6 1 1.4 1.8 2.5 2.8 3.8 1.2-.9 2.4-1.7 3.9-2.7-.6 3.4-1.1 6.5-1.6 9.6-1.3.9-2.6 1.8-3.9 2.8-1-1.3-2-2.6-2.9-3.9z"/><path d="m34.8 21.9c-.1 1.1-.2 2.2-.2 3.4 1.4.3 2.9.3 4.4.5.1.5-.3.6-.5.8-1.8 1.6-3.7 3.1-5.5 4.7-.8.7-1.5.9-2.5.8-1-.2-2.1-.2-3.2-.3-.2-1.6.2-3.1.3-4.8 2.3-1.9 4.7-3.9 7.1-5.9h.2c.1.1.2.2.3.4-.3.1-.3.2-.4.4z"/></g><path d="m45.7 22.5h8.1c1-2.7 1.9-5.2 2.9-8.1 1 2.9 1.9 5.4 2.9 8.1h8.1c0 .1.1.2.1.3-2.1 1.7-4.3 3.3-6.4 5 .8 2.6 1.5 5.2 2.4 8.1-2.5-1.7-4.7-3.2-7-4.8-2.2 1.5-4.5 3.1-7 4.8.8-2.9 1.6-5.5 2.4-8.1-2.1-1.6-4.3-3.3-6.4-4.9-.1-.2-.1-.3-.1-.4z" fill="#eee319"/><path d="m61.5 97.7c-1 0-1.9 0-2.8 0 .2-1.5.7-2.8 1.1-4.2 1-.4 2.1-.9 3.4-1.4-.6 2-1.2 3.8-1.7 5.6z" fill="#ece31f"/><path d="m53.6 93.5c.4 1.4.8 2.7 1.2 4.1-1 .2-1.9.1-2.9 0-.5-1.8-1.1-3.6-1.7-5.6 1.2.6 2.2 1.1 3.4 1.5z" fill="#ece31e"/><path d="m58.1 97.6c-1 0-1.9 0-2.9 0-.2-1-.1-1.9-.1-2.9 1-.2 1.9-.2 2.9 0 .1 1 .1 1.9.1 2.9z" fill="#ece221"/><path d="m65.1 77.3c0 .3-.1.6.2.7l.1.1-.1.1c-.2.1-.1.4-.2.5-.2.2-.3.4-.3.7-.1.2-.1.4-.2.5-.2.2-.3.5-.3.8-.2.1-.1.4-.2.5s-.1.2-.2.3c0 .1 0 .2-.1.2-.9.7-.5 1.7-.9 2.6 0 .1 0 .2-.1.2s-.1 0-.2 0c-.1-.1-.2-.2-.2-.3-.3-1.5-.4-3 .8-4.2.5-.6.9-1.2 1.2-1.9 0-.2 0-.8.7-.8z" fill="#030304"/><path d="m65.1 77.3c-.7 1.5-1.2 3-2.5 4 0 1.1 0 2.1-.2 3.1-.1.1-.2.2-.3.3h-.1-.1-.1.1v.2c-.1.1-.2.1-.3.2-.1.1-.2.2-.3.2 0 .1-.1.2-.3.3-.1.1-.1.2-.3.3-.1.1-.2.2-.3.3-.1.1-.2.2-.3.3-.1.1-.2.2-.3.3-.1.1-.2.2-.3.3-.1.1-.2.2-.3.3-.1.1-.2.2-.3.2-.1.1-.2.2-.4.3-.1 0-.1 0-.1.1-.1.1-.2.1-.3.2-.1.2-.4.1-.5.3-.2.1-.4.1-.5.2-.5.3-1 .2-1.5 0-.2-.1-.4-.1-.5-.2-.1-.2-.4-.1-.5-.3-.1 0-.2-.2-.3-.2-.1-.2-.4-.1-.4-.3-.1 0-.2-.1-.3-.2-.1-.1-.2-.1-.3-.3-.1-.1-.2-.2-.3-.3-.1-.1-.2-.1-.3-.3-.1-.1-.2-.1-.3-.3-.1-.1-.2-.1-.3-.3-.1 0-.2-.1-.3-.3-.2 0-.2-.3-.3-.4 0-.1-.1-.2-.2-.2 0-.1-.1-.2-.2-.2-.1-.1-.2-.2-.3-.3-.1-.2-.1-.4-.2-.6 0-.1 0-.3 0-.4-.2-.4 0-1-.2-1.4v-.1l.4-.3c-.2-.2 0-.6-.3-.7-.1-.1-.2-.2-.2-.3-.2-.1-.1-.4-.3-.5-.1-.1-.2-.2-.2-.3-.2-.1-.2-.2-.3-.4v-.1h-.1c-.1-.1-.2-.2-.2-.3s0-.1-.1-.2c-.1-.2-.1-.4-.2-.5-.1-.2-.1-.4-.2-.6 0-.1 0-.1-.1-.2-.1-.2-.1-.4-.2-.5-.2-.2-.1-.4-.2-.6 0-.1 0-.1-.1-.2s-.1-.4-.2-.5-.1-.1-.1-.2 0-.2-.1-.2c-.1-.2-.3-.1-.4 0 0 .1 0 .1-.1.2v.1c.1.1.1.1.1.2l-.1.1c-.4.4.3 1.1-.5 1.3-.1-.1-.1-.4-.3-.5-.1-.1-.1-.2-.2-.3-.1-.1-.2-.2-.2-.3-.1-.1-.2-.2-.2-.3-.2-.1-.1-.3-.3-.4-.1-.1-.1-.2-.2-.3-.1-.1-.2-.2-.2-.3-.2-.1-.3-.2-.3-.4 0-.1 0-.1-.1-.1-.1-.1-.1-.2-.2-.2-.1-.1-.2-.2-.2-.3-.1 0-.2-.1-.3-.3-.2-.1-.1-.4-.3-.5-.2-.3-.4-.6-.8-.3-.1.1-.2.2-.3.2-.1.1-.2.2-.3.3 0 .1-.1.2-.3.2 0 .3-.3.2-.4.3-.1.1-.2.2-.3.2-.1.1-.2.2-.3.2-.1.2-.3.1-.4.3-.1.1-.2.1-.3.2-.1.1-.2.2-.3.2-.1.1-.2.2-.3.2-.1.1-.2.2-.3.3-.1.1-.2.5-.5.2-.2-.2-.2-.4-.3-.6 0-.1 0-.1-.1-.2s-.1-.2-.2-.3c-.3-.2 0-.6-.3-.7-.1-.1-.1-.4-.3-.5-.1-.1-.2-.2-.2-.3s0-.1-.1-.2-.1-.2-.2-.3c-.2-.1-.2-.4-.3-.6 0-.1 0-.1-.1-.2s-.1-.4-.2-.5c-.1-.2-.1-.4-.2-.5-.3-.2-.1-.6-.3-.8-.2-.3-.1-.6-.2-.9v-.1l-.1-.1c-.3-.3 0-.7-.3-1-.2-.2-.2-.4-.2-.6.1-.2.1-.4-.1-.7-.3-.2-.6-.1-.8 0h-.1l.5.5c-.1.1-.2.2-.3.2-.1.2-.4.2-.5.3-.1.2-.4.1-.5.3-.1.2-.4.1-.5.3-.7-.2-.3-.6-.2-1l .1-.1v-.1c.3-.5-.1-1.1.2-1.6v-.1-.1c.3-.8-.1-1.6.2-2.4v-.1-.1c.2-.4 0-1 .2-1.4 0-.1 0-.3 0-.4.3-.5 0-1.1.2-1.6.1 0 .1-.1.1-.2s.1-.3 0-.4c-1.1-.2-2.2-.2-3.4 0-.2.1-.4.2-.5 0-.2-.2-.1-.3.1-.4.9-.5 1.7-1.2 2.6-1.6 3-1.5 3.4-4.4 4.5-7.2-1.1 0-1.9.4-3 .7 1.1-1.3 2.2-2.5 3.5-3.2 0-1.1-1-.9-1.4-1.4.8-.5 1.8-.3 2.6-.6 2.2-.5 3.5-2.2 4.7-4 .4-.6 0-1.2-.4-1.8-1.5-2.4-3-4.8-4.6-7.2-.2-.2-.4-.4-.2-.9.5.2 1 .5 1.4.9 2.4 2.5 5.4 4 8.1 6 1.2.9 2.6.5 3.9.3 1.2-.2 2.3-.2 3.4.3.4.8 1.3 1.2 1.4 2.3.5-.9 1.1-1.6 1.7-2.4 1.1-.5 2.2-.5 3.3-.3 1.8.3 3.3.1 4.9-1.1 2.7-2 5.5-3.8 8-6 .1-.1.3-.1.6 0-.9 1.6-1.9 3.1-2.8 4.7-.7 1.1-1.4 2.1-2.1 3.2-.8 1.2-.7 1.9.3 3 1.5 1.7 3.2 3.2 5.7 3 .3 0 .7.1 1 .2-.4.6-1.3.5-1.7 1.5 1.3.9 2.7 1.9 3.8 3.3-1.1-.3-2-.5-2.9-.7-.4.9.4 1.4.4 2 .4 2.9 2.4 4.4 4.6 5.8.6.4 1.1.7 1.7 1.1.2.1.2.3.1.5-.2.2-.3.1-.5 0-1.1-.2-2.2-.2-3.3 0-.1.1-.1.1-.1.2s0 .1.1.1c.2.3.1.6.2.9v.1l.1.1c.4.7-.1 1.6.2 2.3.4.8 0 1.7.3 2.6.4.6 0 1.2.3 1.8.1.5.5 1.1-.2 1.5-.2-.1-.4-.1-.5-.3-.2-.1-.4 0-.5-.3-.1 0-.2-.1-.3-.2l-.1-.1h-.1c-.2 0-.3-.1-.4-.2-.2-.2-.4-.1-.6-.1-.4.2-.1.7-.4.9-.2.2 0 .6-.3.8-.2.3 0 .7-.3 1-.3.3.1.8-.3 1-.1.2-.1.4-.2.6-.3.2 0 .6-.3.7-.1.2-.1.4-.2.5-.1.2-.1.4-.3.5-.1.1-.1.4-.3.5-.1.1-.1.4-.3.5-.1.2-.1.4-.3.5-.1.2-.1.4-.2.5-.1.1-.1.4-.3.5-.2.1.1.7-.5.5-.1-.1-.2-.2-.2-.3-.1 0-.2-.1-.3-.3-.1 0-.2-.1-.3-.3-.1 0-.2-.1-.3-.2-.1-.1-.2-.2-.3-.2-.1-.2-.4-.1-.4-.3-.2 0-.2-.1-.3-.2-.1 0-.2-.1-.3-.2-.1-.1-.2-.2-.3-.2-.1-.2-.4-.1-.4-.3-.2 0-.3-.1-.3-.2-.1 0-.2-.1-.3-.2-.2-.2-.4-.1-.6 0-.1.2 0 .4-.3.5 0 .1-.1.2-.2.3-.1.1-.2.2-.3.3-.1.1-.2.2-.2.3-.2.1-.1.4-.3.4 0 .1-.1.2-.2.3-.1.1-.2.2-.2.3-.2.1-.1.4-.3.4 0 .2-.1.2-.2.3-.1.1-.2.2-.2.3-.1.1-.2.2-.2.3-.1.1-.2.1-.2.2.4-.2.4-.2.4-.1-.1.2-.2.4-.4.4-.6-.4.3-1.4-.7-1.6 0 .1-.1.2-.2.3-.2.1-.1.3-.2.5-.1 0-.1.1-.1.2 0 .2 0 .4-.1.6z" fill="#fff"/><path d="m65.6 23.4c-1.5 1.6-3.6 2.6-5.1 4.3.6 2.1 1.2 4.1 1.8 6.1-.1.1-.2.1-.3 0-1.4-1-2.9-2-4.3-3-.7-.5-1.3-.5-2 0-1.4 1-2.9 2-4.3 3-.1.1-.2.1-.3 0 .6-2 1.2-4 1.8-6.1-1.4-1.7-3.5-2.7-5.1-4.3.8-.3 1.7 0 2.6-.2 1.3-.1 2.7.2 4.1-.3.7-2 1.4-3.9 2.3-6.2.8 2.3 1.5 4.3 2.3 6.2 1.4.4 2.7.2 4.1.3.6.2 1.5-.1 2.4.2z" fill="#e73731"/><path d="m60 79.5h-.2c-.4.3-.9-.1-1.3.2-1.1.2-2.2.2-3.3 0-.4-.3-.9 0-1.3-.2h-.1l-.1-.1c-.1-.1-.4-.1-.5-.2-.1-.1-.2-.2-.3-.2-.1-.1-.2-.2-.3-.2 0-.1-.1-.2-.2-.3-.1-.1-.2-.2-.2-.3-.3-1.5.1-3.1-.2-4.6-.4-1.7-.3-3.4 0-5.3-2.4-1.5-3.4-3.9-4.2-6.6-.4.1-.8.1-1.2.2.2.7.4 1.3.6 1.9 0 .1.1.2.2.3 0 .1.1.3.1.4.1.3 0 .3-.2.3-.1-.1-.1-.1-.1-.2s-.1-.2-.2-.3c-1.4-2.5-3.6-4.5-4.2-7.5-.2-1.1-1.5-1.5-2.3-2.2-.3-.3-.8-.3-1-.8 0-1 .7-1.7 1.2-2.5.1-.1.2-.2.2-.3s0-.1.1-.2.1-.2.2-.3c.2-.1.3 0 .4.2 0 .1 0 .2-.1.3-.1.1-.2.2-.2.3s0 .2-.1.2c-.1.2-.1.4-.2.5 0 .4-.1.8-.1 1.4 2.2.3 2.9 1.8 3.5 3.8.3 1.2 1.1 2.3 2.6 2.7.9-1 .3-2.7 1.7-3.3.3-.3.5-.1.5.2.1.3-.1.6-.1.9-.3 1.7.3 2.6 1.9 3.2.3.1.6.2.8.2.7.2 1.5.3 2.3.4-.9-1.4-1.7-2.9-.2-4.3.2-.1.3-.2.5-.3.1 0 .2-.1.4-.1.4-.1.9-.1 1.3 0 .2 0 .4.1.5.1.1.1.2.2.2.3 0 .2-.2.3-.4.3-.1.1-.3.1-.5.2-.1 0-.2.1-.3.1s-.2 0-.4.1v.1c.1-.1.3-.1.4-.1.7-.1 1.4-.1 2.1-.1.4 0 .7.1 1.1.3.1.1.2.1.4.2.2-.2.2-.6.5-.8l.1-.1c.1 0 .1 0 .2-.1.6.1.5.6.7.9 0 1.6-.9 2.6-2.1 3.8 2.1-.1 4-.3 5.7-1.3 1.2-.7 1.4-1.7 1.1-2.9-.1-.4-.2-.8-.4-1.2.1-.1.1-.1.2 0 .9.3 1.3.9 1.3 1.8 0 .5.1 1.1.7 1.5 1.6-.3 2.1-1.7 2.5-3 .5-1.8 1.5-3 3.2-3.4.4-.7-.1-1.3-.1-1.9 0-.1-.1-.2-.2-.3-.1-.1-.2-.1-.2-.2-.1 0-.1-.1-.1-.2s-.1-.2-.2-.3c0-.1-.1-.1-.1-.2-.1-.1-.1-.2 0-.3s.2-.1.3 0c .1.1.1.1.2.2.1 0 .1.1.1.2s.1.2.2.3c.1.1.1.2.2.3.5.9 1.3 1.7 1.3 2.7-.2.5-.6.6-.9.8-1.5.9-2.5 2-3 3.8-.5 2.2-2.2 4-3.5 5.9-.5 0-.3-.3-.3-.6.2-.6.4-1.2.6-1.9-.4-.1-.7-.2-1.1-.3-1.7 4.3-1.7 4.3-4.2 6.7.3 1.8.3 3.6 0 5.5-.3 1.2.1 2.4-.2 3.6 0 .1 0 .1-.1.2s-.2.2-.2.3 0 .1-.1.2c-.1.2-.1.4-.2.5-.1.1-.2.2-.2.3-.1 0-.2.1-.3.2-.2.5-.5.4-.6.5z" fill="#020203"/><path d="m60 52.4c.3-.6.5-1.3.9-1.9.7-1.1 1.7-1.9 3.1-1.9 1.5 0 3 0 4.3-1.1-.9 2.2-2.8 3.7-4 5.7-.1.2-.3.3-.6.4-.1.1-.3 0-.4.2.1.2.4.3.5.5.1.1.2.2.2.3s0 .1.1.2c0 .1 0 .2-.1.3-.2.1-.4.1-.7.1-.2 0-.3-.2-.5-.2-.2-.1-.5 0-.6-.3-.2 0-.2-.1-.3-.2-.3-.1-.5-.3-.8-.4-.3 0-.5.3-.8.4-.2.3-.3.6-.7.3 0-.4 0-.7 0-1.1.3-.6.1-1 .4-1.3z" fill="#09090a"/><path d="m52.8 50.9c.3 1.3 1.3 2.4.8 4.1-.4-.6-.8-1-1-1.4-.8.5-1.4.8-2 1.1-.2.1-.4.1-.6.2-.2 0-.3 0-.5 0-.1-.1-.1-.1-.1-.2s0-.1.1-.1l.2-.2c.4-.3.9-.4 1.3-1.1-2 .2-2.9-1-3.3-2.7-1.4-.6-2.1-1.8-2.6-3.3 1.5 1.4 3.3.9 5 1.2 1.2.4 2.1 1.3 2.7 2.4z" fill="#09090a"/><path d="m53.4 80.8c.5.1.8.3 1.2.6 1.5 1 3 1 4.5-.1.4-.3.8-.5 1.4-.5-1.2 2.5-2.3 3.1-5 2.6-1.3-.3-1.6-1.5-2.4-2.3 0-.3 0-.4.3-.3z" fill="#0c0c0d"/><path d="m61.3 67.4c-.2-.8.3-1.6-.2-2.4-.6.3-.7 1.2-1.4 1.4-.6 0-.7-.8-1.2-1-.5 0-.7.6-1 .8-.5 0-.5-.5-.7-.7-.5 0-.3.7-.8.6-.2-.2-.5-.5-.8-.8-.6.1-.7.9-1.3 1-.7-.2-.8-1-1.5-1.4-.5.8-.1 1.6-.3 2.6-1.5-1-1.7-2.4-2.1-4.3 4.6.8 9 .9 13.5 0 0 2.4-.7 3.6-2.2 4.2z" fill="#fdfdfd"/><path d="m54.8 68.6c1.1 1.2 1.1 2.8 2 4 .5-1.4.7-2.8 1.6-3.9 1 .4 1.2.8 1 2.1-.4 2.2-1.2 3.4-2.4 3.4-1.3.1-2.4-.8-2.7-2.5-.3-1-.9-2.2.5-3.1z" fill="#fdfdfd"/><path d="m52.6 75.2c.1-.1.1-.2.3-.4.5.9 1.1 1.8 1.5 2.6.5.4.6-.2.9-.2.5-.1.4.6.8.7.2-.2.4-.4.6-.6.4 0 .4.5.8.6.2-.2.4-.5.5-.6.5-.2.6.5 1.1.3.9-.6 1-1.9 1.9-2.5.3.2.1.6.3.8v.6c-.2.4 0 .8-.2 1.1-.1.1-.1.1-.1.2s-.1.2-.2.3c-.1.1-.2.2-.3.2-.1.1-.2.2-.4.2h-.1v.1c-.2.2-.6 0-.8.2-.2.2-.6 0-.8.2-1.2.2-2.4.3-3.5 0-.2-.2-.6 0-.8-.3-.2-.2-.6 0-.8-.2-.1-.1-.2-.1-.3-.2-.1-.1-.1-.2-.2-.3-.1-.2-.1-.4-.2-.6.1-.1 0-.1 0-.2-.2-.6-.2-1.3 0-2z" fill="#fcfcfc"/><path d="m56.9 57.5c1-.1 1.9-.6 2.8.2v.1c0 .1-.1.1 0 .1 0 0 0 .1.1.1-.4.3-.3.7-.3 1-.3.2-.5-.1-.7-.2 0-.2 0-.3-.1-.5-.3-.2-.6-.3-.9-.3-.2 0-.5-.1-.7-.2-.1-.1-.1-.1-.1-.2-.1-.1-.1-.1-.1-.1z" fill="#08090a"/><path d="m55.9 56.1c-1.1-.3-1.5-.7-1.8-1.5 1 0 1.5.4 1.8 1.5z" fill="#323232"/><path d="m55.4 53.1c.4.3.9.5.7 1.2-.9-.4-.9-.4-.7-1.2z" fill="#373839"/><path d="m58.5 53.4c0 .6-.5.7-1.1 1 .1-.9.2-1.4 1.1-1z" fill="#1f2021"/><path d="m59 55.2c-.2.3-.4.6-.8.7-.1.1-.2.1-.3 0-.1-.2-.1-.3 0-.5.1-.1.2-.2.2-.3.1-.2.3-.3.5-.3h.1c.1 0 .2.1.2.2.1.1.1.2.1.2z" fill="#242425"/><path d="m65.1 50.3c-.6 2-1.6 2.6-3.3 1.9.1-1.1.4-2.1 1.6-2.5.6-.1 1.3-.4 1.7.6z" fill="#faf9fa"/><path d="m51.7 52.2c-1.3.5-2.3.3-3-.8-.4-.7-.4-1.3.3-1.8 2 .2 2.5.6 2.7 2.6z" fill="#fafafa"/><path d="m57.7 57.9c.1 0 .2 0 .2.1-.1.1-.2.1-.2.2-.7-.1-1.4.2-2-.2.1 0 .2-.1.2-.1z" fill="#fff"/><path d="m63.5 5.8c-1.1.8-2.2-.2-3.3-.2-.2 2.1-.3 4.2-1.5 6.1 1.5 0 1.4-1.3 1.9-2.3.6-.1 1.2 0 1.8.3-.1.5-.2 1-.2 1.4-.5.2-1.1-.6-1.5.1.1.1.2.2.3.3.5 0 .7.5 1.3.8 1.6-1.7.7-4.1 1.8-5.9-.2-.2-.4-.4-.6-.6zm-1 3.2c-.6-.1-1.1-.2-1.6-.3-.2-.3-.2-.5 0-.7.6-.1 1.1.2 1.8.3-.1.1-.1.4-.2.7zm-1.6-2.3c.8-.1 1.5-.3 2.2.6-1 0-1.7.4-2.2-.6z"/><path d="m66.9 6.4c-.3 1.8-.5 3.5-.7 5.1-.7.4-1.2-.4-1.8.3.6.3 1.2.5 1.5.9.5 0 .8-.2 1-.3.1-.6.1-1.2.3-1.7.3-1.4.2-2.8 1-4.1-.5-.2-.9-.4-1.3-.2z"/></svg>