<svg viewBox="0 0 566.93 566.93" xmlns="http://www.w3.org/2000/svg"><path d="m283.46 555.76a272.29 272.29 0 0 1 -192.53-464.83 272.29 272.29 0 1 1 385.07 385.07 270.48 270.48 0 0 1 -192.54 79.76z"/><path d="m283.46 14.17c148.73 0 269.3 120.57 269.3 269.29s-120.57 269.3-269.3 269.3-269.29-120.57-269.29-269.3 120.57-269.29 269.29-269.29m0-6a275.21 275.21 0 0 0 -194.66 470 275.36 275.36 0 1 0 194.66-470z" fill="#29abe2"/><circle cx="283.46" cy="283.46" fill="#29abe2" r="205.69" transform="matrix(.70710678 -.70710678 .70710678 .70710678 -117.41 283.46)"/><path d="m283.46 80.78c111.94 0 202.69 90.74 202.69 202.68s-90.75 202.69-202.69 202.69-202.68-90.75-202.68-202.69 90.74-202.68 202.68-202.68m0-6a208 208 0 1 0 81.24 16.4 207.43 207.43 0 0 0 -81.24-16.4z"/><g fill="#fff"><path d="m31.73 271.71 5.83.05-.07 8 23.31.24v6l-23.32-.22-.08 8-5.83-.05z"/><path d="m51.73 248.29 12.18-3.22-.78 5.93-12.21 3.44-.9 6.93 11.56 1.51-.78 5.92-25-3.28q-3.86-.51-3.33-4.45l2.07-15.8q.51-3.94 4.37-3.44l9.63 1.26q3.85.51 3.34 4.46zm-5.94.46-5.79-.75-1.55 11.85 5.78.76z"/><path d="m45.92 212.42 20.67 5.44c2.51.66 3.42 2.28 2.75 4.84l-4.06 15.41c-.68 2.56-2.27 3.52-4.77 2.86l-20.67-5.45c-2.51-.66-3.42-2.27-2.75-4.84l4.06-15.4c.67-2.57 2.27-3.52 4.77-2.86zm-2.68 17.82 16.91 4.45 3-11.55-16.91-4.45z"/><path d="m78.54 197.27-5.85 14.82c-1 2.47-2.67 3.23-5.08 2.28l-23.49-9.28 2.19-5.55 21.69 8.56 5.12-13z"/><path d="m89 176.6-7.42 14.1c-1.24 2.34-3 2.92-5.3 1.71l-22.37-11.78 2.79-5.28 20.63 10.87 6.49-12.33z"/><path d="m80.34 164.46 10-14.89 4.83 3.26-11.11 16.54z"/><path d="m85 130.9 8.85 7.59 7.78-9.07-8.86-7.59 3.89-4.54 22.14 19-3.89 4.54-8.85-7.59-7.78 9.07 8.86 7.59-3.89 4.53-22.14-19z"/><path d="m105.64 108.25 15.71 17.23 8.83-8-15.7-17.24 4.41-4 17 18.67q2.61 2.86-.33 5.55l-11.78 10.75c-2 1.79-3.82 1.72-5.56-.19l-17-18.67z"/><path d="m128.83 88.31 6.75 9.51 9.74-6.92-6.75-9.51 4.87-3.45 16.88 23.76-4.87 3.46-6.75-9.51-9.7 6.92 6.75 9.51-4.87 3.46-16.88-23.77z"/><path d="m168.16 63.77 2.8 5.12-7 3.82 11.2 20.46-5.23 2.83-11.2-20.45-7 3.82-2.73-5.08z"/><path d="m186.1 74.72 2.23 5.39 12.88-5.33 2.23 5.38-14.72 6.1q-3.67 1.51-5.16-2.07l-8.18-19.75c-1-2.39-.27-4.1 2.19-5.11l14.71-6.1 2.23 5.39-12.87 5.38 2.23 5.39 7.36-3 .39 6.15z"/><path d="m221.56 62.27 7.82 9.88-5.74 1.65-8-9.82-6.71 1.94 3.23 11.2-5.74 1.66-7-24.28q-1.08-3.73 2.75-4.84l15.3-4.41c2.55-.73 4.19.14 4.91 2.63l2.62 9.34q1.08 3.73-2.75 4.84zm-2.8-5.27-1.61-5.61-11.48 3.31 1.61 5.61z"/><path d="m268.12 52.7 1 9.67q.39 3.87-3.57 4.27l-15.85 1.6q-4 .41-4.35-3.47l-2.18-21.27c-.26-2.57.93-4 3.57-4.26l19.81-2 .59 5.8-17.83 1.8 1.76 17.4 11.93-1.24-.58-5.8-7.91.8 1.4-6 7.9-.8c2.59-.2 4.04.93 4.31 3.5z"/><path d="m279.17 36.83-.41 23.32 11.94.21.43-23.31 6 .1-.45 25.26q-.07 3.89-4.05 3.82l-15.95-.29q-4-.06-3.91-3.95l.45-25.26z"/><path d="m299.77 66.3 3.39-25c.35-2.57 1.84-3.67 4.47-3.32l15.8 2.14q3.94.54 3.43 4.39l-3.39 25.05-5.92-.8 3.11-23.13-11.84-1.63-3.13 23.13z"/><path d="m326.65 69.89 6.35-24.47q1-3.77 4.83-2.77l15.44 4c2.56.67 3.52 2.25 2.88 4.76l-6.35 24.48-5.8-1.5 5.83-22.6-11.57-3-5.85 22.59z"/><path d="m352.88 76.63 9.22-23.54q1.42-3.62 5.13-2.16l14.83 5.8q3.7 1.46 2.29 5.07l-9.22 23.55-5.56-2.18 2.84-7.26-11.12-4.35-2.84 7.25zm25.2-15.19-11.08-4.36-3.55 9 11.13 4.35z"/><path d="m400.53 85.29-1.32 12.53-5.21-2.82 1.12-12.64-6.2-3.36-5.53 10.3-5.26-2.83 12-22.24q1.84-3.42 5.35-1.54l14 7.55q3.51 1.89 1.67 5.31l-4.61 8.56q-1.85 3.42-5.35 1.53zm1.67-5.72 2.8-5.14-10.52-5.66-2.77 5.13z"/><path d="m428.94 119.15-12.52-9.84q-3.14-2.46-.73-5.52l15.62-19.85 4.7 3.69-14.42 18.37 11 8.61z"/><path d="m456.32 104.5-16.38 16.59 8.5 8.4 16.39-16.58 4.25 4.2-17.75 18q-2.73 2.76-5.56 0l-11.35-11.21q-2.84-2.81-.1-5.56l17.75-18z"/><path d="m450.89 140 19.82-15.69q3-2.41 5.52.71l9.9 12.5c1.65 2.09 1.45 3.93-.58 5.54l-19.82 15.69-3.73-4.65 18.29-14.5-7.42-9.37-18.27 14.48z"/><path d="m467.74 161.24 24.91-15.13 10.35 17c1.38 2.27 1 4.07-1.25 5.42l-18.28 11.08q-3.32 2-5.39-1.38zm29.26 3.22-6.2-10.21-14.93 9.07 6.2 10.21z"/><path d="m511.34 193.37-21.49 9-2.32-5.51 21.49-9-3.09-7.36-21.5 9.05-2.31-5.5 23.28-9.81q3.59-1.5 5.13 2.17l10 23.85c1 2.45.35 4.17-2 5.18l-23.28 9.8-2.32-5.5 21.49-9.07z"/><path d="m496.14 218.12 24.51-6.23q3.76-1 4.74 2.9l3.93 15.44q1 3.86-2.79 4.82l-24.53 6.23-1.47-5.79 7.55-1.92-2.91-11.57-7.55 1.92zm27 11.62-2.95-11.58-9.41 2.39 2.94 11.58z"/><path d="m516.75 261.92-11 6.16-.73-5.93 11-6.37-.84-6.94-11.58 1.41-.72-5.93 25.08-3.06c2.57-.31 4 .85 4.34 3.48l1.93 15.82c.32 2.63-.81 4.11-3.38 4.42l-9.65 1.18c-2.57.31-4-.85-4.34-3.49zm5.64-1.93 5.79-.7-1.45-11.86-5.79.7z"/><path d="m523.64 277.22v3.78l11.63 4.25v6l-11.72-4.25a5.26 5.26 0 0 1 -3.88 4.57l-13.67 5.43v-6l11.69-4.93v-8.94l-11.66-.07v-6l29.15.16v6z"/><path d="m77.26 424.29 20.85-16c2.13-1.64 4-1.4 5.66.74l9.81 12.8c1.64 2.14 1.39 4-.75 5.66l-20.83 16-3.67-4.79 19.23-14.77-7.36-9.6-19.26 14.76z"/><path d="m115.71 462.79q-2.88 2.83-5.71-.05l-11.28-11.51 5.74-2.8 8.46 8.63 1.44-1.41-9.87-10.08c-1.88-1.91-1.86-3.82.06-5.7l13-12.72 4.23 4.32-11.54 11.3 8.46 8.64 11.54-11.31 4.24 4.33z"/><path d="m133.37 459.6 3 2.39 10.87-6.83 4.72 3.77-10.9 6.85a5.36 5.36 0 0 1 1.14 6l-4.41 14.56-4.73-3.77 3.6-12.57-7.07-5.65-7.59 9.45-4.69-3.8 18.9-23.67 4.72 3.77z"/><path d="m165.11 468.06a1.45 1.45 0 0 1 -.07-.35 4 4 0 0 1 .51-2.94 4 4 0 0 1 2.45-1.77 3.76 3.76 0 0 1 3.12.47 3.66 3.66 0 0 1 1.8 2.57 4 4 0 0 1 -.51 3 3.94 3.94 0 0 1 -2.4 1.74 1.72 1.72 0 0 1 -.39.1l4.67 2.87c2.29 1.41 2.72 3.26 1.31 5.55l-13.82 22.3-5.15-3.17 4.25-6.89-10.3-6.34-4.24 6.9-5.15-3.17 13.81-22.37q2.11-3.45 5.55-1.33zm4.24 9.72-10.3-6.34-5.29 8.6 10.29 6.34zm1.6-9.71a2.08 2.08 0 0 0 .25-1.83 2.39 2.39 0 0 0 -1-1.36 2.45 2.45 0 0 0 -1.67-.3 2.29 2.29 0 0 0 -1.79 2.9 2.43 2.43 0 0 0 1 1.37 2.35 2.35 0 0 0 1.66.29 2.12 2.12 0 0 0 1.6-1.07z"/><path d="m177.73 496.2-5.14 11-5.47-2.56 11.13-23.78c1.14-2.44 2.92-3.09 5.36-1.95l14.6 6.83-2.57 5.49-12.77-6-2.57 5.49 7.3 3.41-4.39 4.64z"/><path d="m191.49 509.24 11.37 4.1 8.23-22.79 5.68 2.05-8.91 24.69q-1.37 3.8-5.16 2.43l-15.16-5.47z"/><path d="m242.24 503.25-5.07 21.63c-.61 2.62-2.23 3.62-4.84 3l-15.7-3.67c-2.61-.62-3.61-2.23-3-4.85l5.06-21.63c.62-2.62 2.23-3.63 4.85-3l15.69 3.68q3.93.91 3.01 4.84zm-18.12-2.17-4.12 17.7 11.77 2.75 4.14-17.69z"/><path d="m263 520.15 3.5 12.56-6-.65-3.72-12.59-7-.76-1.31 12-6-.65 2.76-26.06q.44-4 4.44-3.59l16 1.74q4 .43 3.57 4.45l-1.09 10c-.29 2.67-1.77 3.87-4.44 3.58zm-.59-6.16.65-6-12-1.3-.65 6z"/><path d="m272.62 533.24-.38-30.24 20.17-.25q4-.06 4.08 4l.26 22.21q0 4-4 4.08zm17.83-24.43-12.09.15.23 18.15 12.09-.15z"/><path d="m336.85 500.62 4.33 21.78c.53 2.64-.53 4.22-3.16 4.75l-15.81 3.14q-4 .8-4.74-3.17l-4.34-21.79c-.52-2.64.53-4.22 3.17-4.74l15.81-3.15q3.95-.78 4.74 3.18zm-17.39 5.51 3.54 17.87 11.86-2.36-3.55-17.82z"/><path d="m344.35 494.34 7.62 23 11.48-3.8-7.6-23 5.74-1.9 8.25 24.92c.85 2.56 0 4.25-2.55 5.1l-15.29 5.06c-2.55.85-4.25 0-5.09-2.56l-8.25-24.92z"/><path d="m384.15 478.42 2.57 5.48-7.3 3.42 10.29 21.94-5.47 2.57-10.24-21.94-7.29 3.42-2.58-5.48z"/><path d="m390 475.3 13.69-8.51q3.42-2.13 5.55 1.3l7.46 12q2.14 3.44-1.29 5.56l-10.24 6.35-1.49-6.21 6.84-4.25-5.33-8.54-10.26 6.38 12.79 20.62-5.13 3.19-13.86-22.29c-1.43-2.33-.99-4.18 1.27-5.6z"/><path d="m430.76 451.33 13.93 17.3c1.69 2.1 1.48 4-.61 5.68l-12.55 10.11c-2.1 1.68-4 1.48-5.67-.62l-13.93-17.3q-2.54-3.15.6-5.68l12.56-10.11q3.14-2.52 5.67.62zm-12.86 12.95 11.4 14.15 9.41-7.58-11.39-14.15z"/><path d="m450.1 434.94-11.25 11.56 4.35 4.24 9.8-10.11q2.81-2.88 5.69-.08l7.24 7c1.93 1.88 1.95 3.78.08 5.7l-14.01 14.49-4.33-4.22 12.63-13-4.3-4.23-9.83 10.11q-2.82 2.88-5.7.08l-7.23-7q-2.91-2.82-.1-5.72l14-14.44z"/><path d="m462.53 409.83 4.8 3.69-4.9 6.39 19.22 14.76-3.65 4.79-19.22-14.75-4.91 6.39-4.87-3.69z"/><path d="m258.89 326c7.93 1.66 15.74 3.31 23.56 4.91a5.68 5.68 0 0 0 2.17-.07c7.68-1.61 15.36-3.25 23.18-4.91.35-3.77.72-7.54 1-11.31a46.37 46.37 0 0 1 8.23-23.33c5.55-7.92 11.83-15.18 19.81-21.1 11-8.13 23.8-10.75 37.45-10.64 6.59.06 13.17.62 19.76 1 2.63.14 5.26.37 7.9.4 4.5.05 6.29-1.19 6.66-5.3.89-9.74 1.73-19.51 2.17-29.28.36-8.28.14-16.58.16-24.88a28 28 0 0 0 -.23-3.66c-.55-4.4-2.27-6-7-6.29-4.53-.3-9.07-.46-13.61-.67-18.6-.85-36.37-5.05-53.74-11.1s-33.46-14.35-49.16-23.36c-2.74-1.57-4.71-1.69-7.52-.05a293 293 0 0 1 -44.22 21.65 201.52 201.52 0 0 1 -70 13.45 27.41 27.41 0 0 0 -3.51.17c-3.4.47-4.92 1.78-5.55 4.9a19.68 19.68 0 0 0 -.47 4.45q.65 22 1.41 44c.11 3.26.36 6.52.76 9.76.66 5.24 2 6.39 7.58 6.17 7.17-.28 14.34-.81 21.51-1.19a83.19 83.19 0 0 1 26.53 2.5 51.9 51.9 0 0 1 17.22 8.74c9.54 7.07 16.63 16 22.27 25.92 3.1 5.44 4.19 11.54 4.73 17.67.31 3.72.62 7.5.95 11.45zm6.15-4.43c-.83-5.26-1.16-9.9-2.33-14.36-3.45-13.19-11.61-23.91-21.55-33.53-9.25-9-20.24-15.43-33.65-17.14-7.92-1-16-.82-24.09-.83-5.12 0-10.23.66-15.35.93-3.09.17-3.95-.51-4.22-3.4s-.42-6-.51-9c-.42-13.72-.83-27.45-1.13-41.17a29 29 0 0 1 .87-5.28c44.76-.08 83.87-14.89 120.38-36.87 36.82 22.21 76 36.81 120.49 36.88a39 39 0 0 1 .73 5.73q-.72 24.66-1.63 49.32c-.13 3.3-1.11 3.9-4.75 3.71-8.34-.44-16.68-1.15-25-1.23-11-.11-21.52 1.66-31.31 6.69-9.42 4.83-16.92 11.55-23.46 19.32-5.89 7-11 14.46-13.64 23.06a83.44 83.44 0 0 0 -2.61 14c-.31 2.48-1.42 3.56-3.93 4.06-4.15.84-8.23 1.94-12.35 2.88a7.15 7.15 0 0 1 -3 .35c-6-1.27-11.9-2.69-18-4.14z"/><path d="m318.72 425-5.38-7.13c-10.42-1.41-20.19 3.18-24.73 11.84-2.1 4-3.76 8.19-5.74 12.57-1.31-3.42-2.43-6.82-3.88-10.1-4.73-10.66-12.55-15.14-25.29-14.48l-5.51 7.3c2.75-.46 5-.87 7.19-1.21 8-1.22 14.94 1.72 18.69 7.87a16.75 16.75 0 0 1 -1.8 19.85c-6.5 7.13-18.52 6.78-23.37-.68-4.46-6.86-.29-15.34 8.21-16.43a12 12 0 0 1 5.09.72c.59.19 1.08 1.54 1 2.31 0 .54-1.08 1.11-1.79 1.44-.46.2-1.14 0-1.72 0-4.34-.07-7.2 1.74-7.87 5s2 7.16 5.67 8.27a10.05 10.05 0 0 0 10.41-2.63 12.49 12.49 0 0 0 -.49-18.67c-4.18-3.6-9.25-3.16-14.13-2.15a31 31 0 0 0 -8.79 3.53c-7.16 4.08-7.47 4.33-14.86 5.38l-1.73 20.33c37.16 15.09 73.88 14.44 111.36.46-.5-7-1-13.82-1.5-21.13-6.92.41-11.87-3-17.06-6a24.5 24.5 0 0 0 -14.75-3c-6 .51-10.46 5.14-10.92 11.41a12.26 12.26 0 0 0 9.32 12.72c4.72 1 8.87-1.18 10.39-5.4 1.38-3.83-1.6-7.94-5.94-8.17a8.22 8.22 0 0 0 -1.31.07c-1.79.2-3.86.57-4-1.83-.15-2.23 2.09-2.42 3.75-2.62 4.34-.54 7.7 1.33 10.29 4.34 2.83 3.3 3 7 1.16 10.77-3.87 8-15.28 9.68-22.66 3.43a16.69 16.69 0 0 1 -4-19.89c3.33-6.68 10.21-10.28 18.26-9.4 2.61.15 5.15.75 8.43 1.31z"/><path d="m253.34 401.22c-1 3.77-2 7.83-3.11 12.3 7.31-.65 14.14.11 20.49 3.38 6.66 3.43 9.4 9.42 12.36 16.12 6-14.5 16.75-21.42 33.61-19.42l-3.23-12.47a88.58 88.58 0 0 1 -9.29 1c-9.62.07-16.62 3.74-20.48 12.64a13 13 0 0 1 -1.26-1.66c-3.6-7.12-9.77-10.51-18.11-10.91-3.47-.13-6.92-.59-10.98-.98z"/><path d="m256 397.88c1.69.33 3.29.77 4.93.93 2 .21 4.11.07 6.13.31 6.78.82 10.55 3 15.93 9 3.12-2.32 5.9-5.29 9.41-6.77 3.72-1.58 8.12-1.84 12.25-2.48 2.09-.32 4.33.09 6.33-1.7-.66-.58-1.08-1.27-1.63-1.37-9.12-1.77-18.27-3.47-27.41-5.18q-12.75 2.76-25.49 5.58c-.16.09-.18.8-.45 1.68z"/><path d="m226.51 432.51-11.51 1.55c-.53 2.4-1.21 4.73-1.52 7.1-.46 3.63-.65 7.3-1 10.94-.22 2.23.77 3.59 3.11 4.21 2.78.74 5.53 1.59 8.53 2.47.78-8.78 1.56-17.27 2.39-26.27z"/><path d="m351.71 433.88-10.54-1.15c-.24.61-.44.86-.42 1.09.8 8.09 1.61 16.18 2.49 24.94 3.22-1 6.37-1.89 9.41-3a2.89 2.89 0 0 0 1.6-2.16c-.07-6.6-.25-13.25-2.54-19.72z"/><path d="m265.92 383.06c5.76 1.27 10.72 2.4 15.71 3.43a7.59 7.59 0 0 0 3 0c5-1 9.95-2.19 15.15-3.35-9.5-4.14-21.02-4.21-33.86-.08z"/><path d="m266.51 371.5a43.34 43.34 0 0 0 32.83.3c-10.05-3.8-16.13-3.89-32.83-.3z"/><path d="m299.88 360.91c-9.6-4.1-25.21-4-33 0 5.1 1.15 10 2.29 14.91 3.32a7.58 7.58 0 0 0 3-.06c4.84-.98 9.63-2.06 15.09-3.26z"/><path d="m266.48 349.36c11.12 4.22 22.14 4.61 33.29-.05-5.31-1.14-10.53-2.26-15.77-3.35a4.25 4.25 0 0 0 -1.74 0c-5.26 1.12-10.48 2.26-15.78 3.4z"/><path d="m267.26 338.08c8.79 4.4 23 4.41 31.79 0-4.9-1.05-9.54-2.08-14.2-3a9.47 9.47 0 0 0 -3.44 0c-4.66.92-9.3 1.97-14.15 3z"/><path d="m309.43 384.75-16.37 3.56v.65l16.86 3.39c-.19-2.53-.32-4.75-.49-7.6z"/><path d="m273.37 388.3-16-3.46c-.15 2.57-.28 4.75-.43 7.38l16.4-3.22z"/><path d="m308.59 373.85-15.37 3.21-.12.72 15.49 3.28z"/><path d="m258.26 373.91v7l14.63-3v-.86z"/><path d="m307.88 347.63v-7.06l-14.52 3-.16.7z"/><path d="m308 369.82v-7.11l-14.46 3.29.06.8z"/><path d="m307.86 329.3-14.25 3.16v.84l14.25 3z"/><path d="m307.88 358.71v-7l-14.88 3.16v.56z"/><path d="m258.59 369.79 14.32-3 .15-.75-14.06-3.21c-.15 2.28-.26 4.29-.41 6.96z"/><path d="m259.13 358.53 14.22-3v-.64l-14.23-3z"/><path d="m259.14 329.37v6.86l13.8-2.94.12-.71z"/><path d="m259.26 340.67v6.7l13.66-2.95v-.78z"/><path d="m397.57 251.29a17.14 17.14 0 0 0 .9-3.57c.52-13.72 1-27.44 1.37-41.17.1-4.12-.37-4.32-4.79-4.52a208.29 208.29 0 0 1 -60.4-11.59 256.77 256.77 0 0 1 -45.87-21.26c-3.93-2.33-7-2.24-10.77.07a225.55 225.55 0 0 1 -39.7 19.16 205.07 205.07 0 0 1 -65.71 13.59c-1.17 0-2.34.11-3.51.2a8.7 8.7 0 0 0 -1.34.5 18.77 18.77 0 0 0 -.74 3.94q.18 14.47.56 28.95c.1 3.53.42 7.06.73 10.59.13 1.59.48 3.17.78 5.1zm-150.57-33.77c-3.08-2.32-3.06-4-.07-5.5 4.05-2.05 10-1.16 13.84 2.24 4.3 3.83 5.79 8.49 3.78 13.76-2.12 5.56-6.54 9.06-12.77 10-8.73 1.36-17.85-3.93-20.68-11.8-1-2.72-1.44-5.6-2.24-8.77-2.78 4.09-5.29 7.89-7.91 11.63a30 30 0 0 1 -12.42 10.06c-7.7 3.5-17.16 2.08-21.87-3.12-5.77-6.37-6-14.33-1-21.08 4.32-5.87 14.17-5.81 18.6-3.08 3.71 2.28 5.88 7.12 5 11.05-.39 1.71-1.1 3.27-3.41 2.94-2-.29-2.55-1.67-2.22-3.35.64-3.29-.87-5.61-3.93-7-2.91-1.31-7.21-.08-9.55 2.47a10.36 10.36 0 0 0 1.29 15.06c4.41 3.5 11.1 3.62 16.82.39 6.14-3.47 9.75-8.85 13.07-14.51 5.26-9 10.66-17.66 20.84-23.05 13.8-7.3 33-3.53 40.1 10a17.77 17.77 0 0 0 1 1.5c.45-.28.62-.33.68-.43.39-.58.76-1.16 1.12-1.75 5-8.31 12.88-12.44 22.92-12.94 11.42-.56 20.55 4.07 27.49 12.07 4 4.63 6.93 10 10.38 15.09 2.12 3.09 4 6.37 6.54 9.14 4.22 4.63 9.51 7.7 16.44 7.16a10.77 10.77 0 0 0 9.66-6.67 9.76 9.76 0 0 0 -1.82-11.09 9.1 9.1 0 0 0 -9.15-2.52c-2.9 1-4.4 3.36-4.22 7.2.08 1.75-.37 3-2.36 3.27s-2.93-1-3.18-2.61a11.44 11.44 0 0 1 -.08-4c.87-4.36 3.5-7.63 8.21-8.66 5.18-1.14 10.28-.7 14.28 3.16a15.57 15.57 0 0 1 2.82 18.22c-4 7-10.43 10.1-18.4 8.93s-13.84-5.62-18.45-11.48c-2.87-3.65-5.27-7.62-8.35-12.15-.29 2-.44 3.19-.63 4.35-1.08 6.8-4.82 11.81-11.5 14.92-8 3.71-17.22 1.38-21.95-5.63a12.5 12.5 0 0 1 2.74-17c3.76-3 9.65-3.76 13.58-1.84 1.8.88 2.86 2.17 1.93 3.94-.82 1.57-2.39 1.51-4.16 1-6.29-1.91-11.78 2.48-10.39 8.33a9.38 9.38 0 0 0 6.92 7.25 13.91 13.91 0 0 0 16.61-8.65c3.53-9.52-.94-22.55-15.47-25.83-10.21-2.31-21.14 1.56-25.45 9.33-3.49 6.29-4.05 12.91-2.61 19.81a30.92 30.92 0 0 0 7.49 14.31c-2.48 3.61-3.86 3.79-6.22.72-1.9-2.48-3.46-5.17-5.25-7.88-1.85 2.84-3.36 5.47-5.2 7.89-2.3 3-3.73 2.85-6.05-.53.46-.66.9-1.36 1.41-2a29.8 29.8 0 0 0 6.34-23.49c-.84-5.95-3.13-11.46-8.8-14.91-9-5.46-19.35-5.63-29.17.89-7.9 5.24-9.58 18.15-3.87 25.46a12.54 12.54 0 0 0 9.06 5.22 16.67 16.67 0 0 0 7.94-1.49 8.08 8.08 0 0 0 3.74-10.92c-2.33-4.3-5.59-5.16-11.84-3.03z"/><path d="m297.3 317.4c3.32-27.72 20.43-46.54 45.34-60.95h-118.4c24.8 14.24 41.94 33.2 45.17 60.81 9.26 4.27 18.34 4.47 27.89.14z"/><path d="m143.11 159.42.66.57.12 1.25-1.89 1.32-1 .28-.46-2.18-.71-2.91-.25-1.18 2.77-1.65 1.08-.15.2 2.78zm2.1 1.31 2.63 1 6.13 2.08 1.14.67.31-.36 3 .91 3.75 1.1 1.89 1.84 2 4.89.11.6.55.54 1 2.35 2.93 6 .79 1.44.33.42-2.9 3.27-1.22-1-4.16-1.48-.52-.65-.35.4-3.19-.86-4.21-1.37-2.6-.74-2.35-1.91.07-.45-3.05-6.08.1-1.06-.56-.16-3.19-6.21-.09-.33-.9-1.16-.19-.29 1.16-1.35.25-.35zm21.35 21-2.8-4.46v-.81l-.76-.46-2.8-5.55-1.16-.5-1.61-.63-4.89-1.77-.15-.7-1 .31-2.94-1.09-.88-.38 3.53 6.55-.3.64.8.25 2.08 3.9.47.34 1.6.57 1.34.58.12.74 1.13-.28 2.12.57 5.55 2z"/><path d="m182.75 173.84-1.47.74-2.61 1.77-2.08-2.46-7-8.18-1-.84-.82.74-.83.87-.63.31-1.06-1.11-1.25-2.03.6-.55.53-.41.72-.72-6.13-6.81-.26-1-.77-.14-1.78-1.76-1.27-1.26 1.11-1.84 1.38-2.27 4.94 1 1.45.82 2.38.13 2.46.87 6 1.16h-.1l1.38.24 2.38 2.57.32 1.65 1.4 8.94 1 3.66zm-14.75-14.84.66.38 1.43-1.36 1-1h.89l2 2.31-.26.94-2.08 1.73 4.65 5.37 1.7 2v-.1l-.71-4 .35-.89-.57-.07-1.11-4.24-.59-3-.28-1.61-1.51-.39-.92-.72-1.22.07-8.71-2.57h-.44l4.83 5.14z"/><path d="m179.92 146.77-5.82-7.63-.2-.93-.49.07-1.62-1.79 1.73-1.46 2.62-1.7 1.89 3 .52 1.11 3.62 5.15 1.34 2 1.27 1.39.79.91.25 1.07.62-.05 7.9 10.7.5.52.62.68 1 1.46-1.3 1.79-.84.56-1.8 1.27-2-3.83-.11-1.12-1-.31-1-1.39-5.28-7.24-.77-1.28-1.45-2.21z"/><path d="m214.53 148.92.29 1.73-2.26 1.35-1.46.74-1.85-3.26-2.34-3.91-2.28-4v-.28l-.58-.71-2.57-4.29-1.31-.73-.95-.28-1.11-.57-2.05-.75-3.06-1.35-1.95-.86 1.31 2.23.29 1.84.09.06.82.24 5.44 9.5.66 1.61 1.29 1.36 2.48 4.33.47.51 1.46 2.7-2.36 1.51-2 .71-1.65-3.48-.34-.3-.41-.71-3.19-6-.37-1.39-.86-.61-4.87-8.72-1.55-2.26-2.76-4.25-1.26-2.15 2.74-2.83 6.74 3 2 1h.43l2.68 1.43-2.09-3.56-.24-1.52-.76-.33-1.94-3.32 2.38-1.45 1.87-.7 1.56 2.87 5.55 10.43.69 1.94 1.25 1.1 5.6 8.9.77 1.33z"/><path d="m234.23 140.52v1.74l-2.42 1.05-1.55.52-1.37-3.48-1.76-4.21-1.7-4.28v-.28l-.47-.79-1.93-4.61-1.2-.91-.9-.41-1-.72-1.92-1-2.86-1.8-1.81-1.12 1 2.4v1.85l.08.07.77.36 4 10.17.44 1.69 1.08 1.53 1.84 4.64.39.57 1.07 2.88-2.59 1.16-2.05.42-1.14-3.68-.3-.35-.3-.75-2.31-6.42-.17-1.44-.76-.72-3.6-9.32-1.21-2.46-2.06-4.55-.94-2.32 3.11-2.41 6.31 3.86 1.84 1.32h.43l2.44 1.81-1.56-3.83-.12-1.56-.69-.44-1.45-3.55 2.56-1.1 1.95-.43 1.14 3.06 4 11.12.41 2 1.08 1.27 4.29 9.6.58 1.43z"/><path d="m250 99.13.16.84-.66 1.03-2.32-.14-1-.41 1-2 1.25-2.73.52-1.08 3.21.42.94.55-1.54 2.39zm6.58 26.94-.64.22-.82.84-3 1.35-.39.27-.87.56.12 3.45-.33.59.58 1.26.08 3.26-3 .27-1.84-.72.18-6-.09-3.06.42-.61-.23-.94-.16-6v-.92l.1-1-.16-.85.21-6.58.66-1.16-.65-.6v-2l.05-2.07-.09-3.06 3.83-.92.87.23.27 1.66.21.35.28.43 2.88 6.93-.17.91.65.32 4.42 10.94.12.66 2 4.16 1 2.88-.21.43.85.62.9 1.93-3.27 1.8-.61.11-.89-.27-1.74-5.83-.44-1.28.29-.54-.48-.21-.67-1.48zm-6-4.93v3.17.34l2.88-1.53 1.26-.58-1.91-4.91-.65-2.42-.35-.81-1.66-4.87.15 5.94-.43.32.38.71z"/><path d="m278.72 134.18.06-2.74.31-2.36.56-1.16-.49-.61-.28-6.19.07-2.07-.52-2.3-1-2.91-1.94-4.72-.7-1.62-.84-2.2.27-1.54-.92-.37-1.13-2 .07-1.54 2.63-.85 1.58-.41 1 2.58v.82l.4 1.15 1.05 3.58.94 1.86.41 1.72-.14.39.54.76.55 1.72.19-.24.82-3 .68-2.84.7-1.59.77-3.28.56-1.4.4-2.36 2.17.6 1 .32 1.5 1-1.3 3.48-1.09.49.53.43-.32.68-.7 1.49-.7 2.13-1.79 5.49-1.34 3.91.07 1.39-.14.53.07 1.39-.51 1.45.58.47-.14 3.46.2.81v2.07l.38 3.11-1.38 1z"/><path d="m297.75 135.28-1.53-.59-3.06-.76.43-3.19 1.41-10.61-.06-1.31-1.09-.12h-1.21l-.65-.26.12-1.53.64-2.4.81.09.66.12 1 .06 1-9.12.58-.86-.41-.67.12-2.5.14-1.77 2.11-.4 2.61-.5 2.53 4.37.36 1.64 1.5 1.84 1 2.43 3.12 5.2v-.1l.75 1.19-.32 3.49-1 1.34-5.71 7-2 3.21zm1.14-20.87.17.74 2 .16h1.4l.55.69-.37 3-.87.44-2.61-.43-.89 7-.32 2.58.06-.09 2.46-3.17.9-.34-.33-.47 2.41-3.65 1.85-2.46 1-1.3-.73-1.38-.06-1.16-.88-.87-3.91-8.18-.25-.37-.6 7z"/><path d="m318.69 122.78-1.13 5.11-.95 4.71.05.45-.86 3.9-2 .31-3-1 2-7.37 1.13-1.66-.28-.7.42-1.83 1.08-5.51.47-2.45.59-.85 1.84-9 .74-4.06 4-.64 5.94 8.17v1.24a8.77 8.77 0 0 0 .89 0l1.76 2.57-1 2.73-2.74 2.1-1.91 1.43-1 .8-1.73 1.51c.17.73.55 1.66.7 2.29l-.18.79a13.41 13.41 0 0 1 .72 1.35l1.13 3.61-.14.61.25.21.34 1.5.43 2 1.16 2-.36 1.35-4.27 1.23-.7-2.09-.77-4.12.23-.78-.5-.41-1-3.68-.17-1.17-1-4.22zm.55-2.38.37-.11 3-2.36c.84-.64 2.3-1.83 3.1-2.53l.67-.54-.66-1.39-.28-.3-3.31-5.26-.93 3.58-.11.47-.58.8v.89.3.54l-.78 4.2z"/><path d="m351.09 138.82-.65-.19-1.15.23-3.25-.61h-.48-1l-1.86 2.89-.61.31-.24 1.37-1.85 2.67-2.6-1.47-1.11-1.65 3.56-4.82 1.67-2.57.7-.27.34-.9 3.28-5 .5-.77.67-.81.35-.79 3.93-5.29 1.2-.57-.19-.87 1.09-1.62 1.21-1.67 1.67-2.56 3.67 1.42.59.68-.73 1.52v.41.51l-1.58 7.34-.66.65.35.63-2.59 11.5-.27.62-.72 4.56-.79 3-.42.23.35 1-.36 2.1-3.71-.39-.57-.25-.57-.73 1.89-5.78.37-1.31.54-.28-.28-.44.3-1.6zm-2.09-7.45h.06l-1.79 2.63-.19.28 3.25.39 1.36.24 1.23-5.12.84-2.36.17-.87 1.41-4.94-3.26 5h-.53l-.09.8z"/><path d="m365.85 153.19 2 1.07-.38.94-1.71 2.51-1.08.41-3-2.06-.6-.3-1.78-1-.23-.47-2-.74-1.81-1.18 1.58-2.86 1-.43.23-1.25 4.32-6.65 7.89-13.51.95-.39-.54-.6 2.31-4.68 2.15 1.27 1.56.48.51 1.58-1.67 2.64-1 1.31-2.86 4.55-2.94 4.4-1.2 2-.86.44.17.83-1.4 2.56-1.56 2.94h-.06l-1.55 3-.71 1.2 3.19 1.78z"/><path d="m378.56 162.18 1.88 1.26-.48.89-1.96 2.32-1.12.31-2.8-2.36-.57-.35-1.65-1.25-.18-.49-1.93-.94-1.68-1.36 1.86-2.68 1-.33.36-1.22 5-6.18 9.2-12.66 1-.28-.48-.65 2.84-4.41 2 1.48 1.51.63.35 1.63-1.95 2.46-1.12 1.2-3.31 4.25-3.33 4.09-1.4 1.89-.9.34.09.85-1.69 2.38-1.85 2.75h-.07l-1.83 2.82-.83 1.12 3 2.09z"/><path d="m394.44 168.7-.56-.38-1.17-.16-2.87-1.63-.45-.15-1-.38-2.71 2.14-.68.09-.67 1.21-2.58 2-2-2.24-.51-1.92 4.94-3.4 2.41-1.89h.75l.62-.74 4.72-3.67.73-.57.9-.54.59-.63 5.44-3.73 1.31-.15.11-.88 1.55-1.18 1.69-1.18 2.41-1.89 3 2.54.33.84-1.18 1.2-.15.38-.19.48-3.88 6.42-.84.4.13.71-6.2 10-.45.49-2.17 4.09-1.71 2.54-.47.08v1l-1 1.87-3.39-1.58-.46-.42-.3-.88 3.66-4.85.78-1.11.61-.09-.12-.51.8-1.42zm.44-7.72h.06l-2.54 1.9-.27.21 2.94 1.42 1.21.67 2.83-4.45 1.56-1.95.45-.77 2.94-4.21-4.69 3.63-.52-.15-.34.72zm17.38-13.53-.59.63-1.25.08-1.26-2-.24-1 2.19-.38 2.93-.62 1.18-.21 1.57 2.83.1 1.08-2.78.1z"/><path d="m400.56 185.46-2.4-.25h-2.55l-.34-.53v-.85l.44-.52-.21-.45.08-2.82.75-.53 2.53.27h2.29l.46.68-.36 1.4-.44 1.1.44.5-.1 1.49zm11.13-17.58 5.62-5.32h.75l.16-.91 1-.95.71-.94 1.23 1 2.93 3.63-1.89 1.34-.67-.25-.43 1-5.1 4.16-1.87.43-.2 1.07-3.84 3.05-3.91 3.19-1.48-.81-1.32-1.57.42-.76 1.66-1.39 4.82-4.18z"/></g></svg>