<svg viewBox="0 0 566.93 566.93" xmlns="http://www.w3.org/2000/svg"><circle cx="283.46" cy="287.46" fill="#d93831" r="269.29"/><g fill="#010100"><path d="m492 436.44c-6.38 11.22-15.18 20.53-24 29.79a227.65 227.65 0 0 1 -33.69 28.77c-1.8 1.28-3.55 2.63-5.9 2.67-10.47-.45-20.16-4-29.85-7.51-1.74-2.93.75-4 2.5-5 15.78-9.05 29.68-20.56 43-32.77 5.17-4.72 9-10.8 14.71-15 .76-.41 1.57-.7 2.37-1l-.13.05a119.13 119.13 0 0 1 30.99 0z"/><path d="m137.35 497.82c-18.57-11.44-34.23-26.2-48.46-42.56a150.81 150.81 0 0 1 -14.19-18.51c1.86-2.48 4.47-1 6.66-1 6.57-.09 13.17-.57 19.72.37l1.25.07a1.8 1.8 0 0 1 2.4 0 .81.81 0 0 0 .86.22 18.6 18.6 0 0 1 2.39 1c7.31 5.12 12.17 12.69 18.8 18.58a264.63 264.63 0 0 0 37.46 28.3c2 1.24 5.95 1.74 4.15 5.92-10.06 3.68-20.13 7.35-31.04 7.61z"/><path d="m402 449.57c1.81-3.22 4.74-5.31 7.47-7.65 17.1-14.69 32.67-30.74 44.3-50.26 2.62-.33 1.7 1.73 1.71 2.81.07 12.63 0 25.27.08 37.91 0 2.86-1.33 4.95-3 7-10.86 12.77-23.56 23.42-37.18 33.12a157.83 157.83 0 0 1 -15.66 10.12c-2.09 1.15-4.21 2.57-6.67.78-1.53-4.64 1-8.66 2.15-12.8 2.04-7.08 2.64-14.6 6.8-21.03z"/><path d="m113.15 391.66c13.17 21.87 30.93 39.55 50.64 55.45 3.92 4.18 4.4 9.77 5.6 14.89 1.66 7.06 5.48 13.7 4.53 21.31-2.42 1.92-4.59.56-6.64-.66-11.59-6.87-22.77-14.37-32.71-23.49-7.08-6.5-14.91-12.25-20.55-20.23-1.42-2-2.66-3.92-2.65-6.53.06-12.64 0-25.29.08-37.93 0-1.08-.91-3.14 1.7-2.81z"/><path d="m69.81 429.92c-12.81-18.92-22.4-39.48-30.13-60.92a1.89 1.89 0 0 1 1.85-1.26c9.89 1.84 19.94 3.21 28.74 8.71 5.73 9.65 9.85 20.16 15.91 29.67 3.82 5.88 7.43 11.88 11.67 17.49 1.38 1.83 3.37 3.6 2.06 7-9.36.36-18.93.08-28.49.14a1.61 1.61 0 0 1 -1.61-.83z"/><path d="m527.24 369c-7.71 21.46-17.35 42-30.11 60.93-5.06 2.36-10.37.09-15.51.84-4.92-.17-9.9.42-16.12-.6 5.09-9.91 11.88-17.79 16.94-26.69s9-18.4 14.32-27.14c8.81-5.32 18.78-6.81 28.65-8.6a1.87 1.87 0 0 1 1.83 1.26z"/><path d="m462 378.27a262.14 262.14 0 0 0 17.22-46.86c3-.08 2.78 2.52 3.24 4.21 3.4 12.61 7.29 25.1 10.07 37.89a13.16 13.16 0 0 1 -1.52 7.56 236 236 0 0 1 -22.22 38.57c-1.53 2.11-3 4.3-7.09 4.81-.02-15.45-1.87-30.8.3-46.18z"/><path d="m87.74 331.43c4.24 14.69 8.6 29.35 15.63 43 .46.88 1 1.72 1.48 2.58a3.36 3.36 0 0 1 .47 1.93 336.71 336.71 0 0 1 -.14 45c-3.54.53-5.06-1.74-6.55-3.78a231 231 0 0 1 -23.13-40.16 11.53 11.53 0 0 1 -1.07-6.47c2.84-12.77 6.64-25.29 10.07-37.91.5-1.68.24-4.29 3.24-4.19z"/></g><path d="m464.29 114.84c21.93 3.67 65.15 82.5 72.56 130.36-2.3 4-6.18 6.9-10.44 11.2a251.48 251.48 0 0 0 -20.57-75.69c-10.69-23.91-25.24-45.39-41.55-65.87z" fill="#070405"/><path d="m40.71 256-11-10.18c9.74-52 32.52-96.4 71.33-132.1 1.89 4.71-1.89 6.66-3.94 9.16a257.38 257.38 0 0 0 -45.33 81.82 229.21 229.21 0 0 0 -11.06 51.3z" fill="#070405"/><path d="m517.69 265.24-4.49 4.24c-4.39-2.88-6.94-6.38-7.54-11.68-5.18-45.78-23-86.19-52.25-121.66-2.29-2.77-2.3-2.75-3.15-6 21.66.76 69.62 96.35 67.43 135.1z" fill="#070405"/><path d="m53.8 269.53-4.49-4.27c-3-36.88 41.11-126.2 66.83-135.75 2 2.6-.42 4-1.68 5.54-30.08 35.94-48.17 77-53.32 123.71-.54 4.86-3.37 7.9-7.34 10.77z" fill="#070405"/><path d="m37.25 360.8c-4.73-16.31-8.73-32.8-9.66-49.8.17-.11.39-.34.5-.29 10.45 4.15 20.91 8.29 28.26 17.49a282.69 282.69 0 0 0 8.65 32.5c.9 2.61 2 5.32.2 8.05-4.78 1.67-9-1-13.23-2.18-5.08-1.37-10.77-1.48-14.72-5.77z" fill="#020100"/><path d="m539.33 311c-.93 17.05-4.92 33.52-9.67 49.83-8.51 5.28-17.89 7.57-27.8 8-2-2.68-.83-5.41.07-8a279.58 279.58 0 0 0 8.59-32.53 7.11 7.11 0 0 1 2.64-3.93 213.83 213.83 0 0 1 23.92-13.73 2.13 2.13 0 0 1 2.25.36z" fill="#020100"/><path d="m515.23 278c6.86-8.36 15-15.46 23.23-23.93 3.18 16.67 2 32.4 2.2 48.07-6.64 7.7-16 11.22-24.58 15.87-1.51.82-2.67-.17-3.19-1.76.06-11.69.75-23.36.89-35a5.46 5.46 0 0 1 1.45-3.25z" fill="#020100"/><path d="m26.27 302.12c.13-15.57-.84-31.19 2.07-48.12l23 22.91a5.79 5.79 0 0 1 1.92 4.3c0 11.64.71 23.26.87 34.89-.55 1.89-2 2.76-3.61 1.8-8.38-4.83-17.83-7.99-24.25-15.78z" fill="#020100"/><path d="m75 249.23c-2.43-28.66 37.89-99.68 60.37-108.4 1.7 2.45-.6 3.67-1.72 5-20.76 25.32-36.39 53.26-44.07 85.34-1.93 7.83-9.01 11.33-14.58 18.06z" fill="#050100"/><path d="m491.82 248.33c-7.53-6.64-13.67-12.6-16.08-22.49-7.21-29.56-22.42-55.2-41.36-78.75-1.39-1.73-3.76-3.08-3.22-6 20.38 4.17 64.3 81.21 60.66 107.24z" fill="#050100"/><path d="m481.64 313.83c1.73-8.91 1.71-18 2.41-27 3.24-.33 3.66 2.64 4.7 4.43 5.95 10.24 12 20.43 17.66 30.84a15.36 15.36 0 0 1 1.3 3.42 7.05 7.05 0 0 1 .08 1.89 229.73 229.73 0 0 1 -7.8 30.81c-.86 2.78-1.19 6.54-5.49 6.75-3.17-4.19-3.39-9.41-4.67-14.2-3.26-12.17-7.58-24.15-8.19-36.94z" fill="#020100"/><path d="m82.87 286.86c.71 9 .68 18.07 2.41 27-1.11 16.17-7 31.23-10.71 46.82a8.52 8.52 0 0 1 -2.1 4.27c-4.09.06-4.53-3.47-5.33-6-3.27-10.47-6.42-21-8-31.88.41-4.79 3.41-8.42 5.61-12.4 4.25-7.69 8.67-15.28 13.09-22.86 1.16-2.01 1.58-5.18 5.03-4.95z" fill="#030100"/><path d="m484 274.17-3.69-25.83 1.63-1.2 27.33 28.46c3.07 8.84 2.59 31.4-.81 38.35-1.34 1-2.34.22-3-.84-7.28-12.89-15.96-25.03-21.46-38.94z" fill="#030100"/><path d="m57.65 275.6 27.35-28.39 1.56 1.13-3.69 25.83c-2.85 9.55-9.22 17.25-13.78 25.9a97.67 97.67 0 0 1 -6.62 11.42c-.93 1.29-1.36 3.67-3.95 2.56a5.27 5.27 0 0 1 -1.62-3.14c-.9-11.79-3.29-23.62.75-35.31z" fill="#030100"/><path d="m59.91 313.65c7.4-13.32 14.72-26.68 23-39.48.73 4.23-1.38 8.45 0 12.69-8.21 12.78-15.82 25.9-22.72 39.44-1.22 2.18-2.87 2.68-5 1.26-8.41-6.89-18.19-11.4-27.6-16.56l-1.32-8.87 26.24 15.6c2.1-2.03 5.06-2.49 7.4-4.08z" fill="#d63831"/><path d="m313.8 484.59a1.63 1.63 0 0 0 -.12.92c-1.2 1.28-2.47 1.11-3.78.18-.74 0-3.44.1-4.18.06 2.76-.56 5.76-.69 8.08-1.16z" fill="#fff"/><path d="m335.1 538.15c30.86-6.26 59.38-18.36 86.28-34.52-.23-3.19-2.89-3.49-5.1-4.17-7.44-2.32-15-4.13-22.5-6.26-2.26-.64-4.81-.78-6.65-4.1 1.43-7 3.44-14.72 5.53-22.39.93-3.41 2.65-6.77 1.38-10.48-.61-.84-1.25-1.54-2.38-.77-23.85 15.35-49.69 25.37-77.86 29.18a1.48 1.48 0 0 0 -.46.93l-3 .14-.06-.16a2.35 2.35 0 0 0 -2.58.07c-1.8.13-3.61.23-5.41.39-45.78 4.09-88.22-5.68-127-30.56-1.15-.75-1.8 0-2.39.83-.93 2.22-.31 4.39.29 6.51 2 7 3.87 14 5.5 21 .53 2.3 1.65 4.63.16 7.05-1.65 1.62-3.91 1.86-6 2.46-7.36 2.08-14.8 3.84-22.1 6.13-2.21.7-4.93 1-5.13 4.2 2.09 1.17 4.19 2.33 6.27 3.53 41.84 24.23 86.74 37 135.28 36.31a157.57 157.57 0 0 0 32.73-2.85 3.85 3.85 0 0 0 2.2-.44c4.42.11 8.68-1.18 13-2.03zm-16.4 1.34c0 .16-.09.31-.13.47h-.37z" fill="#fff"/><path d="m325.46 503.36a14.43 14.43 0 0 1 1.38 8.65c-2.24.49-4.34 1.08-6.48 1.39-4.73.67-9.49 1.21-14.34 1.81-1.69-2.56-.2-5.69-2.52-8.35 7.58-2.01 14.64-2.64 21.96-3.5z" fill="#fdfdfd"/><path d="m120.65 287.66c.08-89.66 73.35-163.16 162.57-163.11s163.06 73.63 163 162.8c0 89.55-73.79 163.17-163.4 163-89.16-.11-162.24-73.41-162.17-162.69z" fill="none" stroke="#010100" stroke-miterlimit="10" stroke-width="3"/><text fill="#fefefe" font-family="MicrosoftJhengHeiUIBold, Microsoft JhengHei UI" font-size="87.83" font-weight="700" transform="matrix(.98 -.17 .17 .98 200.9 119.06)">海</text><text fill="#fefefe" font-family="MicrosoftJhengHeiUIBold, Microsoft JhengHei UI" font-size="87.83" font-weight="700" transform="matrix(.98 .22 -.22 .98 282.48 103.82)">盗</text><text fill="#fefefe" transform="matrix(.89656375 .44291472 -.44291472 .89656375 363.62 125.31)"/><text fill="#1d1d1b" font-family="MicrosoftYaHei-Bold, Microsoft YaHei" font-size="41.54" font-weight="700" transform="matrix(.99 .16 -.16 .99 233.26 525.37)">玉</text><text fill="#1d1d1b" font-family="MicrosoftYaHei-Bold, Microsoft YaHei" font-size="41.54" font-weight="700" transform="matrix(.99 -.14 .14 .99 300.65 532.18)">京</text><path d="m406.18 308.42a75.76 75.76 0 0 0 -6.87-20.88l-.12-.3a6.78 6.78 0 0 0 -1.87-2.94l-3.82-3.37-2.21 5.45-.54 1.32c-3.65 9.2-8.27 16.34-14.13 21.83-3.78 3.53-7.66 5.52-11.89 6.1-2.24.31-4.45.76-6.59 1.19l-2.82.56-12 2.26 11.26 4.62a24.78 24.78 0 0 0 4.49 1.25l.27.06 2.23.45a63.14 63.14 0 0 1 8.67 2.16 89.56 89.56 0 0 1 -9.07 8.3c-14.09 10.93-31 18.86-51.74 24.18v-.5c-.2-7.1-.53-14.3-.84-21.26q-.15-3.27-.29-6.52a55.27 55.27 0 0 1 29-14.31c11.7-2.07 17.38-10.07 15.59-21.77q-2.42-15.84-4.81-31.68-1.66-11-3.34-22.06c2.28-.27 4.56-.52 6.79-.77l6-.68 5.61-.65c3.45-.41 7-.84 10.53-1.21 2.12-.22 6.55-.69 8.81-5.28a15.22 15.22 0 0 0 1.21-10.88c-1.47-5.66-4.87-8.41-10.39-8.41h-.16c-6 .06-12 .08-17.77.07l-30.74-40a35.84 35.84 0 0 0 -8.7-25.53c-10.17-11.88-23.3-16.29-38-12.75-16.23 3.92-26.23 14.87-28.93 31.67a36 36 0 0 0 -.43 7.58l-29.57 38.97h-20.28a8.61 8.61 0 0 0 -7.08 3.63 14.42 14.42 0 0 0 -2.61 7.7 12.23 12.23 0 0 0 2.59 9.24 12.38 12.38 0 0 0 8.86 4c2.86.19 5.82.56 8.69.93l3.18.39 7.82 1 7.06.86 1.18.14q-1.51 9.71-3 19.4c-1.78 11.42-3.62 23.24-5.45 34.85-2 12.88 3.36 20.45 16 22.5a53.87 53.87 0 0 1 28.73 13.91l-.26 6.19c-.3 6.94-.6 14.09-.88 21.18-5.29-1.34-10.5-2.94-15.53-4.76-19-6.88-33.78-15.94-45.14-27.67a60.43 60.43 0 0 1 8.86-2.26c2.09-.42 4.24-.86 6.38-1.45l14-3.8-14.12-3.18c-2.78-.63-5.52-1.23-8.36-1.59a23.25 23.25 0 0 1 -13.64-6.9 58.83 58.83 0 0 1 -13-19.91c-.32-.77-.64-1.53-1-2.41l-3.85-9.32-3.37 7.9c-.48 1.1-.94 2.16-1.4 3.19-1 2.25-1.92 4.36-2.74 6.58-4.69 12.7-5.67 23.51-3.08 34a30.68 30.68 0 0 0 7.14 14.08l3.62 3.92 2.29-4.82a10.09 10.09 0 0 1 2.39-3.08 95.14 95.14 0 0 0 4.7 8.72 102.51 102.51 0 0 0 45.26 40.7c15.57 7.22 27.38 14.37 37.19 22.52 5.91 4.92 9.56 9.33 11.83 14.29l.84 1.82 3.53 7.69 3.42-6.44c.08-.14.14-.25.18-.34a5.56 5.56 0 0 0 .4-.81c2.52-6.32 6.92-11.74 14.27-17.57a156.7 156.7 0 0 1 32.38-19.52c12.62-5.81 22.76-12.48 31-20.41a104.35 104.35 0 0 0 22.16-30.63 9.49 9.49 0 0 1 2.34 3l2 4.24 3.59-3a20.66 20.66 0 0 0 4.78-6.58c3.97-8.47 5.06-17.74 3.31-28.39zm-97-61.63 4.06-.47 5.57-.64 8-.92 1.09 13.16q1.41 17.08 2.83 34.15c.21 2.62-.16 3.12-.17 3.14s-.43.49-3.08.84a68.08 68.08 0 0 0 -20.43 6.1c-.05-1.19-.11-2.38-.16-3.57l-.51-12.4c-.24-5.86-.49-11.92-.76-17.88-.13-2.91-.24-5.88-.35-8.75-.14-4-.29-8.12-.51-12.23zm-23.58-89.32a15.91 15.91 0 0 1 16.06 10.73 15.61 15.61 0 0 1 -1.14 12.93 16.07 16.07 0 0 0 -14-7.8h-.1a16.14 16.14 0 0 0 -13.87 7.73c-1.4-2.84-2.4-6.57-2-9.23 1.22-8.07 7.25-13.83 15.05-14.36zm-43.6 135.53 2.85-32.45 1.39-15.83 2.54.31 8.05 1c4.16.49 7.95.93 11.52 1.33l-.13 2.73c-.33 6.77-.67 13.77-1 20.67s-.6 14-.88 20.84l-.34 10.21v1a64 64 0 0 0 -20.61-5.8c-2.65-.27-3.14-.69-3.18-.73s-.42-.63-.21-3.28zm82.29-78.41c-6.87-.05-13.92-.1-20.89-.13 0-.61 0-1.24 0-1.88a42.74 42.74 0 0 0 -.23-5c9.17-4.57 15.58-11.5 18.89-20.32zm-74.58-9.32 1.53-17.51a40.89 40.89 0 0 0 2.31 4.64 37.32 37.32 0 0 0 16.45 15.26c-.15 2.19-.28 4.43-.37 6.8-4.69 0-9.42 0-14 .08l-6.7.05z" fill="#fff"/><path d="m275.42 393.7v-.24c.13-4.85.17-9.8.21-14.59.08-8.63.16-17.56.72-26.33.41-6.38-1.56-11.49-6.59-17.08a56 56 0 0 0 -33.48-18.18c-11.62-1.89-16.16-8.28-14.3-20.11 1.83-11.58 3.66-23.36 5.43-34.75 2.13-13.67 4.33-27.8 6.54-41.7a4.72 4.72 0 0 0 .08-.89 3.31 3.31 0 0 0 -.54 0h-.27c-.78 0-1.58 0-2.45 0-1.92 0-3.86-.06-5.92-.12l-4-.11-3-.06 31.5-41.47v4.5 1.15a13.57 13.57 0 0 1 0 1.58q-4.71 53.74-9.45 107.5c-.43 4.88.3 5.76 5.17 6.27a64.06 64.06 0 0 1 28.57 10.39l.59.4a3.53 3.53 0 0 0 1.54.78.94.94 0 0 0 .45-.13c.6-.29.69-.7.7-2.19v-.4l.3-17.39c.28-16.14.57-32.84.92-49.26 0-.2 0-.37 0-.5l-.52.17c-1.89.66-3.78 1.21-6 1.85l-3.1.91-3.22 1 21.2-46.18 21 45.48-12.62-4.12.09 7.55c.07 6.3.14 12.24.21 18.17q.1 8 .2 16.05.18 13 .33 26.1v.61c0 1.53.09 1.75.55 2a1.23 1.23 0 0 0 .46.11 4.09 4.09 0 0 0 1.77-.9l.36-.24a67.41 67.41 0 0 1 28.92-11.13c4.69-.62 5.44-1.55 5.05-6.22q-4.44-53.79-8.89-107.57c0-.41-.06-.81-.09-1.4 0-.34 0-.74-.07-1.25l-.3-4.94 31.68 41.18-2.9.14c-1.34.06-2.62.15-3.86.23-2.28.15-4.44.29-6.58.29-.5 0-1 0-1.48 0h-.28a2.78 2.78 0 0 0 -.92.1 4.8 4.8 0 0 0 .09 1.44c2.3 14.94 4.59 30.13 6.81 44.82q2.4 15.85 4.81 31.7c1.62 10.62-3.31 17.5-13.86 19.39a57.28 57.28 0 0 0 -38.83 25.3 11.15 11.15 0 0 0 -2 6.68c.2 10.88.32 21.95.44 32.65q.06 6 .14 12.08v.2l-10.13 39.67z" fill="#010100"/><path d="m325.28 181.59c9.18 11.92 17.88 23.23 26.89 34.95-3.79.18-7.11.52-10.36.52h-1.43-.33c-2.47 0-2.67 1.05-2.33 3.29 3.92 25.5 7.73 51 11.62 76.52 1.49 9.79-2.86 15.92-12.63 17.67-16.93 3-30.23 11.63-39.83 25.95a12.59 12.59 0 0 0 -2.21 7.54c.27 14.91.4 29.82.58 44.73l-8.7 34.06-9.55-33.32c.35-13.62.06-27.27.93-40.86.48-7.53-2.33-13-7-18.2a57.3 57.3 0 0 0 -34.37-18.66c-10.8-1.75-14.76-7.46-13-18.37 4-25.48 7.93-51 12-76.45.32-2 0-2.68-2-2.68h-.32c-.8 0-1.59 0-2.4 0-3.08 0-6.25-.16-9.85-.23l27-35.51v2.6l-9.45 107.5c-.5 5.71.8 7.32 6.52 7.91a62.94 62.94 0 0 1 27.9 10.16c.95.61 1.86 1.42 3 1.42a2.6 2.6 0 0 0 1.12-.28c1.67-.82 1.52-2.44 1.55-3.93.39-22.22.75-44.43 1.21-66.65 0-1.57-.27-2.14-1.06-2.14a5 5 0 0 0 -1.48.34c-2.7 1-5.48 1.69-9 2.75l18.42-40.13 18.08 39.31-11.33-3.7c.12 10.1.21 19 .32 27.84q.27 21.07.53 42.15c0 1.51-.25 3.17 1.45 3.93a2.62 2.62 0 0 0 1.08.24 5.7 5.7 0 0 0 3-1.39 65.47 65.47 0 0 1 28.15-10.84c5.5-.73 6.82-2.42 6.37-7.85q-4.45-53.79-8.9-107.58c-.05-.62-.07-1.24-.16-2.61m-3.62-9.7.59 9.88c0 .5.06.9.07 1.24 0 .58.06 1 .1 1.44q4.44 53.79 8.89 107.58c.21 2.5-.09 3.29-.29 3.53s-.92.72-3.45 1.06a68.73 68.73 0 0 0 -29.6 11.38l-.37.25-.41.28a1.09 1.09 0 0 1 0-.18v-.65c-.1-8.69-.22-17.53-.33-26.07q-.11-8-.2-16.08c-.08-6.08-.15-12.15-.22-18.63l-.06-5 1.64.54 5.67 1.84 6.6 2.16-2.9-6.31-13-28.3-5.06-11-2.76-6-2.76 6-18.43 40.15-2.81 6.11 6.45-1.93 3.09-.92c1.62-.47 3.08-.89 4.5-1.35-.33 16-.61 32.13-.88 47.8l-.3 17.2v.42.5l-.3-.2-.63-.43a65.59 65.59 0 0 0 -29.23-10.62c-2.75-.29-3.41-.76-3.57-.95s-.49-.92-.24-3.68c3.49-39.68 6.58-74.84 9.44-107.5a16.49 16.49 0 0 0 0-1.74c0-.31 0-.68 0-1.12v-9l-5.45 7.18-14.42 19-12.55 16.52-3.61 4.71 6 .12 3.95.1c2.07.07 4 .13 6 .13h1.54c-2.15 13.6-4.3 27.41-6.38 40.77-1.78 11.41-3.62 23.22-5.45 34.82-1 6.34-.23 11.2 2.34 14.85s6.93 6 13.21 7a54.55 54.55 0 0 1 32.6 17.69c4.73 5.26 6.59 10 6.21 16-.57 8.81-.65 17.76-.72 26.41-.05 4.78-.09 9.72-.22 14.56v.47l.13.45 9.6 33.29 3.1 10.74 2.76-10.83 8.7-34.06.1-.39v-.4q-.07-6.07-.14-12.16c-.12-10.68-.24-21.72-.44-32.58a9.48 9.48 0 0 1 1.7-5.8c9.16-13.67 21.54-21.74 37.83-24.65 5.67-1 9.87-3.39 12.48-7.05s3.49-8.38 2.62-14.07c-1.61-10.58-3.24-21.35-4.81-31.76-2.21-14.6-4.49-29.69-6.77-44.54h1.05c2.19 0 4.37-.15 6.68-.3 1.23-.08 2.51-.16 3.83-.22l5.81-.28-3.55-4.61-12.35-16.05-14.54-18.9-6-7.85z" fill="#010100"/></svg>