<svg id="Capa_1" data-name="Capa 1" xmlns="http://www.w3.org/2000/svg" viewBox="0 0 566.93 566.93"><defs><style>.cls-1{fill:#283148;}.cls-2{font-size:44.31px;}.cls-2,.cls-3,.cls-4,.cls-6{fill:#fff;}.cls-2,.cls-4{font-family:Ohno;}.cls-4{font-size:50.5px;}.cls-5{fill:#343635;}.cls-6{stroke:#fdfffe;stroke-miterlimit:10;stroke-width:1px;}.cls-7{fill:#9e1319;}.cls-8{fill:#ebebeb;}.cls-9{fill:#eaeaee;}</style></defs><title>Hannibal</title><circle class="cls-1" cx="283.46" cy="283.46" r="279.21"/><text class="cls-2" transform="matrix(0.6, 0.8, -0.8, 0.6, 66.87, 424.97)">E</text><text class="cls-2" transform="matrix(0.71, 0.7, -0.71, 0.71, 89.53, 454.74)">L</text><text class="cls-2" transform="matrix(0.78, 0.63, -0.63, 0.78, 115.91, 479.98)">I</text><text class="cls-2" transform="matrix(0.84, 0.55, -0.55, 0.84, 127.22, 489.73)">T</text><text class="cls-2" transform="matrix(0.91, 0.42, -0.42, 0.91, 158.63, 510.13)">E</text><text class="cls-2" transform="matrix(0.94, 0.33, -0.33, 0.94, 191.95, 524.9)"> </text><text class="cls-2" transform="matrix(0.97, 0.24, -0.24, 0.97, 203.96, 529.64)">B</text><text class="cls-2" transform="matrix(1, 0.1, -0.1, 1, 240.39, 538.41)">O</text><text class="cls-2" transform="matrix(1, -0.05, 0.04, 1, 277.66, 541.81)">D</text><text class="cls-2" transform="matrix(0.98, -0.18, 0.18, 0.98, 312.8, 540.13)">Y</text><text class="cls-2" transform="matrix(0.95, -0.32, 0.31, 0.95, 347.38, 533.7)">G</text><text class="cls-2" transform="matrix(0.9, -0.45, 0.45, 0.89, 382.97, 521.68)">U</text><text class="cls-2" transform="matrix(0.82, -0.57, 0.57, 0.82, 416.41, 504.62)">A</text><text class="cls-2" transform="matrix(0.73, -0.69, 0.68, 0.73, 447.04, 482.93)">R</text><text class="cls-2" transform="matrix(0.62, -0.78, 0.78, 0.62, 474.22, 457.08)">D</text><circle class="cls-3" cx="283.46" cy="283.46" r="203.91"/><text class="cls-4" transform="matrix(0.79, -0.58, 0.59, 0.81, 138.83, 111.97)">V</text><text class="cls-4" transform="matrix(0.88, -0.44, 0.44, 0.9, 168.93, 89.87)">A</text><text class="cls-4" transform="matrix(0.95, -0.25, 0.26, 0.97, 207.62, 71.21)">L</text><text class="cls-4" transform="matrix(0.98, -0.07, 0.07, 1, 249.27, 60.51)">K</text><text class="cls-4" transform="matrix(0.98, 0.13, -0.13, 0.99, 292.17, 58.04)">Y</text><text class="cls-4" transform="matrix(0.93, 0.32, -0.32, 0.95, 334.72, 64.02)">R</text><text class="cls-4" transform="matrix(0.88, 0.45, -0.45, 0.89, 375.79, 79.25)">I</text><text class="cls-4" transform="matrix(0.81, 0.57, -0.57, 0.82, 393.54, 87.72)">E</text><circle class="cls-5" cx="283.46" cy="283.46" r="279.21"/><path class="cls-3" d="M39,376.53l-2.3-5.45L64,359.31l2.88,6.82-15.66,14.8,21.42-1.16,2.88,6.82L48.23,398.35,45.9,392.9l16.38-7-17.31,1-2.31-5.46,12.71-11.92Z"/><path class="cls-3" d="M77.19,389.45,89.11,409.9l-5.13,3L75.05,397.6l-15.38,9.12,8.94,15.34-5.13,3L51.56,404.64Zm-6.52,12.47,7.44,12.78-5.12,3L65.54,405Z"/><path class="cls-3" d="M102.55,428.12a4.3,4.3,0,0,1,.87,3.31,4.35,4.35,0,0,1-1.75,2.95l-7.1,5.45a4.31,4.31,0,0,1-3.28.89A4.21,4.21,0,0,1,88.35,439l-.89-1.18-4.12,14.33-4.45-5.89,6.18-21.51-14.2,10.89-3.56-4.72L91,412.79Zm-17.48-3.36,7.13,9.44,4.73-3.63-7.12-9.43Z"/><path class="cls-3" d="M125.73,453.27a4.28,4.28,0,0,1,1.29,3.16,4.37,4.37,0,0,1-1.35,3.16l-1,1.05L108,443.81,95.37,456.47l16.57,16.83-1,1.05a4.28,4.28,0,0,1-3.14,1.32,4.21,4.21,0,0,1-3.14-1.31l-14.5-14.73a4.27,4.27,0,0,1-1.27-3.16,4.35,4.35,0,0,1,1.33-3.16L105,438.55a4.41,4.41,0,0,1,6.28,0Z"/><path class="cls-3" d="M131.43,458.48,150,473l-3.65,4.72-13.94-10.91-11,14.18,13.94,10.92-3.65,4.72-18.59-14.55Zm-1.5,14,11.61,9.09-3.65,4.73-11.62-9.09Z"/><path class="cls-3" d="M152.5,487l-10.08,16.62-5-3.08L152.89,475l6.92,4.23-2.39,19.58,9.3-15.34,5,3.08-15.5,25.57-5.66-3.47Z"/><path class="cls-3" d="M161,514.88l23.09-22.32,5.36,2.45-1.66,32.15-6.7-3.07.6-6.31-8.3-3.81,4.35-4.58,4.55,2.09,1-9.93L167.7,518Z"/><path class="cls-3" d="M230.76,523.32l7.31-10.45,7.12,1.87-13.1,15.12-3,11.58-5.7-1.51,3-11.57-4-19.62,7.13,1.88Z"/><path class="cls-3" d="M284.29,516.38a4.21,4.21,0,0,1,3.06,1.45,4.38,4.38,0,0,1,1.12,3.25l-.08,1.49L276.62,522l-1.25,23.9-5.89-.29,1.25-23.9L259,521.1l.08-1.49a4.31,4.31,0,0,1,1.46-3.12,4.24,4.24,0,0,1,3.19-1.14Z"/><path class="cls-3" d="M292,516.36l23.51-1.87.45,6-17.63,1.4,1.35,17.9,17.63-1.41.45,6-23.51,1.87Zm8.25,11.34,14.69-1.17.45,6-14.69,1.17Z"/><path class="cls-3" d="M323.26,543.71,329,512l5.77-1.19,17.42,26.93-7.22,1.49-3.2-5.45-9,1.85.85-6.28,4.91-1-5-8.58-3,22.44Z"/><path class="cls-3" d="M363.24,534.28l-5.57,2L348,508l7-2.44,13.54,16.7.38-21.59,7-2.45,9.7,28.22-5.56,2-5.81-16.92L373.89,529l-5.57,2-10.9-13.55Z"/><path class="cls-3" d="M400.75,483.74l4.95-3.23,12.89,20.06,14.85-9.7,3.23,5-19.81,12.93Z"/><path class="cls-3" d="M423.32,468.76l18.19-15.16,3.78,4.6-13.64,11.37L443,483.38,456.63,472l3.78,4.6-18.18,15.16Zm13.25,4.47,11.36-9.48,3.79,4.6-11.37,9.48Z"/><path class="cls-3" d="M464.6,472.91l-13.49-29.13,4.05-4.33,29.68,11.83-5.06,5.41-5.73-2.58-6.28,6.7-2.9-5.61,3.44-3.67-9-4.08,10.38,20.05Z"/><path class="cls-3" d="M464.34,429.47,478.9,408.9a4.38,4.38,0,0,1,6.19-1L502,420a4.36,4.36,0,0,1,1.82,2.89,4.3,4.3,0,0,1-.76,3.34l-14.55,20.57Zm18.54-15.9L472.6,428.09l14.5,10.39L497.38,424Z"/><path class="cls-3" d="M483,402.38l11.07-21,5.24,2.79L491,399.93l15.74,8.37,8.3-15.74,5.25,2.79-11.07,21Zm13.95-1,6.92-13.13,5.24,2.8-6.91,13.12Z"/><path class="cls-3" d="M502.38,360.28a4.4,4.4,0,0,1,5.75-2.56l8.32,3.19a4.45,4.45,0,0,1,2.57,5.76l-.53,1.38L532.75,364l-2.64,6.94L508.72,377l16.64,6.39L523.24,389l-27.73-10.64ZM508.72,377,513,365.93l-5.55-2.13-4.23,11.09Z"/><path class="cls-3" d="M217.71,506.56a4.25,4.25,0,0,1,2.51,2.3,4.37,4.37,0,0,1,.15,3.44l-3,8.45a4.32,4.32,0,0,1-2.26,2.55,4.17,4.17,0,0,1-3.39.17l-1.39-.51,4.32,14.3-6.92-2.52-6.48-21.45-6,16.91-5.54-2,10-28.18Zm-16.46,6.73,11.08,4,2-5.64-11.08-4Z"/><path class="cls-6" d="M146.88,105.18,123.65,70.44l6.82-4.62,23.23,34.73Zm-.77-19.68L158,77.41l9.3,13.89,6.82-4.62L150.93,52l-6.82,4.62,9.29,13.9-11.94,8.09Z"/><path class="cls-6" d="M178,84.15l-1.23-45,7.56-3.25,31.49,32L206.32,72l-5.92-6.56-11.73,5-.62-8.83,6.43-2.76-9.31-10.32,2.24,31.56Z"/><path class="cls-6" d="M222.5,38.57l5.78,26.57-8,1.75L211.35,26,222.4,23.6l16.39,22.12-5.33-24.53,8-1.75,8.89,40.88-9,2Z"/><path class="cls-6" d="M266.38,31.59l1,27.17-8.22.29-1.58-41.8,11.31-.4,12.26,24.68-.95-25.08,8.22-.28L290,58l-9.25.33Z"/><path class="cls-6" d="M299.85,58.91l3.74-41.64,8.2.78-3.74,41.64Z"/><path class="cls-6" d="M343.57,49.32,327.5,45.65,323.88,62l-8-1.83,9-40.79,26.11,6a6,6,0,0,1,3.87,2.76,6.16,6.16,0,0,1,.8,4.74L353.41,43A6,6,0,0,1,351,46.72a6.13,6.13,0,0,1,.62,4.43l-2.26,10.2a6,6,0,0,1-2.72,3.93,5.89,5.89,0,0,1-4.66.81l-12-2.75-4.22-9.54,16.07,3.68ZM329.3,37.49l16.07,3.67L347.18,33l-16.07-3.67Z"/><path class="cls-6" d="M352.47,68.55l31.6-31.68,7.55,3.33-1.38,45L380.79,81l.66-8.83L369.74,67l5.94-6.5,6.42,2.82,1-13.88L361.91,72.7Z"/><path class="cls-6" d="M417.34,53.2l6.81,4.68L405.53,85.52l20.45,14-4.66,6.91L394.06,87.75Z"/><path class="cls-7" d="M70.44,283.46c0,103.37,73.63,189.54,171.3,208.93V74.53C144.07,93.93,70.44,180.09,70.44,283.46Z"/><path class="cls-7" d="M496.49,283.46c0-104.67-75.5-191.71-175-209.64V493.11C421,475.18,496.49,388.14,496.49,283.46Z"/><path class="cls-8" d="M245.32,501.26v-4.55a218.74,218.74,0,0,0,72.58.64v3.91Z"/><path class="cls-5" d="M241.74,492.39v12.45h79.74V493.11a214.89,214.89,0,0,1-79.74-.72Z"/><path class="cls-8" d="M245.32,68.47H257q-5.85.72-11.64,1.75Zm72.58,1.11c-2.62-.41-5.24-.78-7.88-1.11h7.88Z"/><path class="cls-5" d="M321.48,64.89H241.74v9.64a215.16,215.16,0,0,1,79.74-.71V64.89Z"/><path class="cls-8" d="M283.11,498.49A143.3,143.3,0,0,1,249,494.34l-1.52-.38V73l1.52-.38a142.6,142.6,0,0,1,65.24-.72l1.56.35V494.71l-1.56.35A142.91,142.91,0,0,1,283.11,498.49Z"/><path class="cls-5" d="M283.11,70.44a140.6,140.6,0,0,1,30.66,3.38V493.11a140.47,140.47,0,0,1-64.32-.72V74.53a140.5,140.5,0,0,1,33.66-4.09m0-4a144.76,144.76,0,0,0-34.62,4.21l-3,.75V495.53l3,.75a144.51,144.51,0,0,0,66.15.73l3.13-.7V70.62l-3.13-.7a144.86,144.86,0,0,0-31.53-3.48Z"/><path class="cls-5" d="M465.33,259.71c-2.1-3.2-4.19-6.41-6.3-9.61L454.32,243c-2.57-3.9-5.15-7.8-7.7-11.71l-.1-.14h-.08l-53.13,0-42.16,0a2.24,2.24,0,0,0-.91.24c-5.49,2.83-11,5.67-16.52,8.56l-5.83,3-1.06-2.12-.43-.88-6.73-14.15c-5.62-11.82-11.43-24-17.17-36-1.31-2.74-2.74-5.5-4.12-8.16-.81-1.56-1.62-3.12-2.41-4.69a25,25,0,0,1-2.73-8.54,18.43,18.43,0,0,1,1.83-10q3.57-7.8,7.18-15.58l1.06-2.29a37.28,37.28,0,0,1,8.4-12.14,3.3,3.3,0,0,1,2.23-1,3.56,3.56,0,0,1,1.62.44c2.62,1.35,5.21,2.65,7.94,4l1,.51,6.9-19.6h2.3l.46.29.26.17.17.11L349,119.83c22.08,9.92,44.9,20.19,67.38,30.21a9,9,0,0,1,5.18,5.46,67.74,67.74,0,0,0,8.87,17.26c5,6.84,11.61,13.16,20.75,19.9l16.52,12.15,3.95,2.92v6.57q0,23.72,0,47.42a4.45,4.45,0,0,1-.2,1.2l-.06.22-1,4.35Zm-73.47-75.24s.16,0,.22,0q6.89,0,13.77,0h9.25c0-.9.07-1.81.15-2.72-3.08-1.24-6.15-2.55-8.76-3.67l-13.34-5.75q-11.59-5-23.2-10c7.21,7.28,14.6,14.73,21.9,22.06Z"/><path class="cls-9" d="M333.19,114.69a5.2,5.2,0,0,0,.64.39q40.89,18.37,81.79,36.7a7,7,0,0,1,4.17,4.37,70.16,70.16,0,0,0,9.13,17.74c5.88,8,13.23,14.46,21.15,20.3l16.52,12.15,3.18,2.35q0,26.52,0,53a5.09,5.09,0,0,1-.21,1c-3-4.55-6-9.12-8.95-13.67-4.14-6.29-8.3-12.56-12.42-18.86a1.83,1.83,0,0,0-1.75-1h0q-47.64,0-95.28.05a3.94,3.94,0,0,0-1.77.45c-6.85,3.52-13.69,7.08-20.66,10.7-.22-.43-.43-.84-.63-1.26Q316.15,214,304.19,189c-2.08-4.35-4.37-8.59-6.54-12.89a23.27,23.27,0,0,1-2.55-7.89,16.7,16.7,0,0,1,1.67-9q4.1-8.94,8.24-17.86a35.93,35.93,0,0,1,8-11.55,1.43,1.43,0,0,1,1-.47,1.56,1.56,0,0,1,.76.23c3.57,1.84,7.17,3.62,10.88,5.49q3.6-10.23,7.17-20.35h.44m72.74,71.74h9.83c.35,0,.71,0,1.14,0,.08-1.62.09-3.14.24-4.65a1.28,1.28,0,0,0-.95-1.57c-3-1.21-6-2.48-9-3.76q-18.63-8-37.26-16c-2.28-1-4.65-1.78-7-2.66l-.09.17c.15.19.3.39.47.57q13.58,13.69,27.17,27.37a2.38,2.38,0,0,0,1.54.59l13.86,0M334.26,110.9h-4.17l-.88,2.52L324,128.19l-.55,1.55c-2.41-1.21-4.72-2.36-7-3.57a5.36,5.36,0,0,0-2.48-.64,5.05,5.05,0,0,0-3.5,1.48,39.22,39.22,0,0,0-8.84,12.73l-.93,2c-2.4,5.19-4.89,10.56-7.31,15.85a20.31,20.31,0,0,0-2,11,26.82,26.82,0,0,0,2.93,9.18c.8,1.58,1.62,3.18,2.42,4.72,1.37,2.65,2.79,5.39,4.09,8.09,5.74,12,11.55,24.23,17.17,36l6.72,14.14c.15.31.3.62.46.93l.2.4,1.7,3.41,3.38-1.75,4.23-2.19c5.64-2.93,11-5.7,16.42-8.51l.1,0L393,233q26.24,0,52.48,0,3.64,5.56,7.29,11.08l4.67,7.08,6.19,9.44,2.75,4.22,4.89,7.46,1.92-8.72a.61.61,0,0,1,0-.11,6.15,6.15,0,0,0,.27-1.72q0-24.06,0-48.12v-6.83L472,205.63l-1-.74-2.18-1.61L462.93,199l-10.64-7.83c-9-6.62-15.45-12.82-20.35-19.5a65.91,65.91,0,0,1-8.62-16.78,10.71,10.71,0,0,0-6.18-6.54C394.61,138.26,371.73,128,349.6,118l-14.1-6.34h0l-.31-.2-.91-.57Zm58.41,71.71c-4.84-4.85-9.72-9.76-14.55-14.63l14.2,6.11,13.43,5.79c2,.85,4.21,1.8,6.51,2.75h-6.33l-13.26,0Z"/><path class="cls-5" d="M91.84,263.13l-.06-.21a4.45,4.45,0,0,1-.2-1.2q0-23.64,0-47.28v-6.82l.92-.56.35-.2a2.46,2.46,0,0,0,.37-.23c.93-.72,1.84-1.46,2.75-2.19,1.75-1.4,3.56-2.85,5.39-4.22,2.16-1.61,4.37-3.21,6.51-4.76,3.62-2.62,7.36-5.33,10.9-8.15,7.92-6.3,13.69-13,17.66-20.37,1.49-2.8,2.79-5.82,4.05-8.74.69-1.61,1.4-3.28,2.15-4.9a4.7,4.7,0,0,1,2.22-2.29q28.54-12.87,57.12-25.7l18.18-8.17c2.08-.93,4.15-1.89,6.22-2.84l3.27-1.51h2.18l6.85,19.6,4.18-2.09,1.31-.65c1.2-.59,2.33-1.15,3.44-1.77a3.07,3.07,0,0,1,3.91.54,36.51,36.51,0,0,1,8.3,12c1.22,2.66,2.41,5.39,3.56,8l2.43,5.51c.38.83.84,1.65,1.34,2.51l0,.07a19.26,19.26,0,0,1,.71,19c-1,2-2.05,4.08-3.07,6.06-1.28,2.49-2.6,5.07-3.83,7.63-5.26,11-10.58,22.14-15.72,32.95l-5.76,12.1-3.31,7-.84,1.75-10.81-5.6-3.49-1.81q-4.14-2.16-8.29-4.3a1.2,1.2,0,0,0-.51-.13h-42q-26.79,0-53.59,0c-6.72,10.12-13.52,20.43-20.09,30.4l-1.11,1.67-.12.3L93,268.58ZM158,184.53q6.48,0,13,0h0a.63.63,0,0,0,.59-.24q8.88-9,17.81-18l3.58-3.59-1.49.61c-6.76,2.79-13.76,5.68-20.61,8.57-6,2.54-12.09,5.21-18,7.79L148,181.85c0,.88.08,1.76.13,2.68Z"/><path class="cls-9" d="M230.48,114.69c2.36,6.74,4.72,13.49,7.11,20.35l6.08-3c1.62-.81,3.26-1.58,4.83-2.47a1.58,1.58,0,0,1,.74-.22,1.44,1.44,0,0,1,1,.5,34.61,34.61,0,0,1,7.87,11.35c2.05,4.48,4,9,6,13.52.42.94.95,1.85,1.46,2.75a17.36,17.36,0,0,1,.65,17.23c-2.26,4.59-4.69,9.09-6.9,13.71q-10.8,22.5-21.48,45c-1.1,2.3-2.19,4.61-3.32,7l-9.09-4.71c-3.93-2-7.85-4.1-11.79-6.12a3.07,3.07,0,0,0-1.35-.34H170.12l-53.58,0a1.68,1.68,0,0,0-1.24.6Q104.56,246,93.91,262.23a4.44,4.44,0,0,0-.24.49,5.09,5.09,0,0,1-.21-1q0-26.52,0-53a9.39,9.39,0,0,0,.92-.56c2.7-2.13,5.35-4.33,8.1-6.39,5.8-4.34,11.79-8.43,17.46-12.94,7.31-5.83,13.68-12.63,18.14-21,2.37-4.43,4.15-9.17,6.25-13.75a2.9,2.9,0,0,1,1.28-1.35q37.65-17,75.31-33.87c3.05-1.37,6.08-2.79,9.12-4.18h.45m-84.17,71.74H158l12.95,0h0a2.44,2.44,0,0,0,1.92-.79q8.9-9,17.82-18,4.8-4.84,9.63-9.67l-.14-.24c-.37.13-.75.25-1.11.4-9.66,4-19.34,8-29,12-7.8,3.29-15.55,6.73-23.31,10.12-.32.14-.78.49-.78.73,0,1.77.17,3.55.27,5.42m86.82-75.53h-3.91l-.74.34-2.9,1.33c-2,.94-4.13,1.91-6.2,2.84L201,123.67c-18.66,8.39-38,17.06-56.92,25.61a6.64,6.64,0,0,0-3.16,3.22c-.75,1.65-1.47,3.32-2.17,4.94-1.29,3-2.52,5.87-4,8.6-3.84,7.17-9.45,13.65-17.16,19.78-3.51,2.79-7.24,5.49-10.84,8.1-2.14,1.55-4.36,3.16-6.52,4.77-1.87,1.4-3.68,2.86-5.44,4.27l-2.7,2.14-.18.11-.4.23-1.83,1.1v7.18q0,24,0,48a5.74,5.74,0,0,0,.28,1.72l0,.12,2.4,10.9,4.67-10.14.09-.19,1-1.55c6.39-9.69,13-19.7,19.52-29.54l52.42,0h41.93c2.72,1.4,5.48,2.84,8.15,4.23l3.48,1.81c2.07,1.07,4.14,2.15,6.25,3.23l2.85,1.48,3.43,1.78,1.67-3.52,1.06-2.23,2.25-4.75L246.94,223c5.14-10.82,10.46-22,15.73-33,1.22-2.54,2.53-5.11,3.81-7.59,1-2,2.07-4,3.08-6.08a21.32,21.32,0,0,0-.77-20.82l0-.08a25.59,25.59,0,0,1-1.24-2.33q-1.23-2.75-2.44-5.51c-1.15-2.64-2.34-5.36-3.56-8A38.4,38.4,0,0,0,252.77,127a5,5,0,0,0-6.09-.8c-1.07.6-2.17,1.15-3.35,1.72l-1.33.66-2.27,1.14L238,124.82l-4-11.39-.89-2.53Zm-82.25,71.73,2.75-1.2c5.88-2.58,12-5.24,18-7.78,4.45-1.88,9-3.75,13.42-5.6-4.77,4.81-9.63,9.72-14.44,14.6l-12.54,0h-7.14Z"/><path class="cls-5" d="M372.91,461.82l-.48-.32-.37-.27a3.52,3.52,0,0,0-.4-.27c-33.73-16.78-62.09-30.88-90.83-45.13-31.56,15.65-63.22,31.4-90.43,44.93a6.53,6.53,0,0,0-.73.46l-.48.31-.46.29h-3.17l1.15-7.46q.91-5.83,1.8-11.67,1.4-9.26,2.77-18.51,1.41-9.53,2.84-19,1.32-8.76,2.66-17.52,1.18-7.87,2.38-15.74.68-4.49,1.34-9c.76-5.09,1.51-10.18,2.3-15.26,0,0,0-.06,0-.09l-.11-.12q-18.91-19.08-37.81-38.17l-22.42-22.64c-1.36-1.38-2.75-2.75-4.14-4.11l-2.48-2.44v-2.67l3.52-.49,4.31-.6,4.4-.63q7.36-1.05,14.73-2.12l11.51-1.7L185,270.29l14.53-2.11,9.41-1.36,6.64-1c6.14-.9,12.48-1.82,18.74-2.7h.05l0-.05c1-2.14,2-4.29,3-6.37l11.54-24.51Q262.83,202.6,276.75,173c.53-1.12,1-2.26,1.54-3.39l1.23-2.74h2.78l.43,1.3a3,3,0,0,1,.1.32,2.46,2.46,0,0,0,.09.29l12.7,27,31.68,67.37c5.64.78,11.36,1.62,16.9,2.43l2,.29,8,1.17,9.74,1.43,9.41,1.36,8.19,1.18c3.64.52,7.27,1.06,10.91,1.59l8.86,1.29q7.11,1,14.23,2.07l6,.84,4.38.61v2.74l-.65.57-.38.32c-.2.17-.41.34-.6.53l-30.26,30.55L392.12,314q-16.64,16.8-33.25,33.63h0c.21,1.63.47,3.29.72,4.89.11.68.21,1.36.32,2l.46,3q1.29,8.51,2.57,17l2.52,16.84c.47,3.13.95,6.26,1.42,9.39l1.59,10.53q.71,4.68,1.4,9.35c.44,3,.89,5.95,1.33,8.93l3,20c.36,2.34.72,4.69,1.09,7l.81,5.17Z"/><path class="cls-9" d="M281,168.76a7.32,7.32,0,0,0,.27.83q22.2,47.21,44.39,94.4a1.59,1.59,0,0,0,1.38,1c6.31.87,12.61,1.8,18.91,2.72l17.71,2.61,17.6,2.53,17.93,2.62q8,1.17,16.07,2.34c2.91.42,5.83.81,8.74,1.22v.23c-.36.31-.74.6-1.08.94q-15.14,15.27-30.25,30.55-17.55,17.73-35.09,35.47a1.9,1.9,0,0,0-.57,1.3c.3,2.43.71,4.84,1.08,7.26l3,20q1.28,8.42,2.52,16.85c1,6.64,2,13.27,3,19.91.92,6.1,1.82,12.19,2.74,18.28q1.5,10,3,20c.51,3.34,1,6.67,1.56,10h-.44a10.64,10.64,0,0,0-1-.66Q327,436.66,281.57,414.09a1.6,1.6,0,0,0-.75-.16,1.7,1.7,0,0,0-.73.15q-45.27,22.46-90.52,45a15,15,0,0,0-1.37.86h-.45c.88-5.65,1.77-11.29,2.62-16.94q2.82-18.78,5.61-37.56,2.51-16.64,5-33.26c1.22-8.07,2.39-16.15,3.63-24.22a1.87,1.87,0,0,0-.62-1.83L143.8,285.29c-2-2-4.05-4-6.08-6v-.23l6.23-.87c6.38-.91,12.75-1.81,19.13-2.74,7.39-1.08,14.78-2.2,22.18-3.28l23.94-3.48c8.45-1.22,16.9-2.48,25.36-3.66a1.71,1.71,0,0,0,1.53-1.15c1.23-2.7,2.5-5.38,3.77-8.06q19.29-41,38.59-82c.78-1.67,1.52-3.37,2.28-5.05H281m2.71-3.79h-5.35l-1,2.22c-.25.54-.49,1.09-.73,1.63-.5,1.11-1,2.26-1.53,3.37q-13.85,29.43-27.7,58.88l-10.89,23.12-.79,1.69c-.86,1.81-1.73,3.67-2.59,5.53-6,.84-12,1.72-17.83,2.57l-6.59,1-9.36,1.36-14.58,2.12L174.06,270l-11.52,1.71-14.67,2.11-4.45.63-4.25.6-2,.27-3.24.45v5.12L135.1,282,137,283.9c1.35,1.33,2.76,2.71,4.11,4.07L164,311.08l36.78,37.14c-.74,4.81-1.47,9.68-2.17,14.4-.44,3-.88,6-1.34,9q-1.19,7.92-2.39,15.82-1.33,8.71-2.65,17.44l-2.85,19.08q-1.36,9.24-2.76,18.48c-.58,3.88-1.19,7.82-1.79,11.64-.27,1.76-.55,3.52-.82,5.29l-.68,4.37h5.91l.92-.57.52-.35.52-.33c28.69-14.27,59.38-29.53,89.6-44.52,28.29,14,56.45,28,89.95,44.7l.19.13.42.3.95.64h6l-.68-4.38-.48-3.11c-.36-2.29-.72-4.59-1.07-6.88q-1.53-10-3-20l-1.35-9L370.32,411q-.78-5.22-1.58-10.43c-.48-3.16-1-6.33-1.43-9.49-.42-2.78-.83-5.55-1.25-8.33s-.85-5.68-1.28-8.52q-1.36-9.11-2.75-18.22l-.28-1.81c-.1-.69-.21-1.37-.32-2.06-.2-1.29-.4-2.61-.58-3.91,10.88-11,21.94-22.21,32.65-33l1.77-1.79,30.26-30.55a5.72,5.72,0,0,1,.47-.41l.41-.35,1.3-1.13v-5.26l-3.25-.45-2.72-.38-6-.84-14.4-2.1-1.66-.24-7-1-11-1.6L373.54,268l-9.39-1.35-9.73-1.43-8-1.18-2-.29c-5.2-.76-10.56-1.55-15.87-2.29q-15.9-33.84-31.82-67.68l-12.08-25.68,0-.09c0-.13-.07-.26-.12-.39l-.85-2.6Z"/><path class="cls-8" d="M311.22,268.07V389.75H291c0-.3.06-.6.06-.9q0-29.42,0-58.83c0-.88-.16-1.19-1.12-1.18q-9,.07-17.94,0c-1,0-1.13.3-1.12,1.18q0,29.37,0,58.74c0,.33,0,.66.06,1H250.8V268.07a4.93,4.93,0,0,1,.54-.05h18.84c.21,0,.41,0,.74.07v40.48H291.1V268h14.35C307.37,268,309.29,268.05,311.22,268.07Z"/></svg>