<svg viewBox="0 0 541.71 537.06" xmlns="http://www.w3.org/2000/svg"><ellipse cx="270.86" cy="268.53" fill="#283148" rx="270.86" ry="268.53"/><text fill="#fff" font-family="Ohno" font-size="42.98" transform="matrix(.58 .8 -.81 .58 60.74 404)">E</text><text fill="#fff" font-family="Ohno" font-size="42.98" transform="matrix(.65 .75 -.76 .65 73.98 422.29)">L</text><text fill="#fff" font-family="Ohno" font-size="42.98" transform="matrix(.69 .71 -.71 .7 88.03 438.28)">I</text><text fill="#fff" font-family="Ohno" font-size="42.98" transform="matrix(.74 .66 -.67 .75 95.93 446.53)">T</text><text fill="#fff" font-family="Ohno" font-size="42.98" transform="matrix(.8 .59 -.6 .81 113.05 461.62)">E</text><text fill="#fff" transform="matrix(.83 .53 -.54 .84 130.99 474.56)"/><text fill="#fff" font-family="Ohno" font-size="42.98" transform="matrix(.87 .48 -.48 .88 139.55 480.29)">B</text><text fill="#fff" font-family="Ohno" font-size="42.98" transform="matrix(.92 .37 -.38 .93 161.6 492.43)">O</text><text fill="#fff" font-family="Ohno" font-size="42.98" transform="matrix(.96 .26 -.26 .97 190.98 504.23)">D</text><text fill="#fff" font-family="Ohno" font-size="42.98" transform="matrix(.98 .15 -.16 .99 219.15 511.59)">Y</text><text fill="#fff" font-family="Ohno" font-size="42.98" transform="matrix(.99 .05 -.06 1 242.25 515.33)">G</text><text fill="#fff" font-family="Ohno" font-size="42.98" transform="matrix(.99 -.06 .06 1 271.64 516.85)">U</text><text fill="#fff" font-family="Ohno" font-size="42.98" transform="matrix(.98 -.17 .16 .99 299.73 515.11)">A</text><text fill="#fff" font-family="Ohno" font-size="42.98" transform="matrix(.96 -.27 .27 .96 327.36 510.22)">R</text><text fill="#fff" font-family="Ohno" font-size="42.98" transform="matrix(.92 -.37 .37 .93 351.47 503.48)">D</text><ellipse cx="270.86" cy="268.53" fill="#fff" rx="197.81" ry="196.11"/><text fill="#fff" font-family="Ohno" font-size="48.58" transform="matrix(.79 -.6 .61 .8 130.82 103.53)">V</text><text fill="#fff" font-family="Ohno" font-size="48.58" transform="matrix(.87 -.48 .49 .87 154.01 86.02)">A</text><text fill="#fff" font-family="Ohno" font-size="48.58" transform="matrix(.93 -.35 .36 .94 184.3 69.91)">L</text><text fill="#fff" font-family="Ohno" font-size="48.58" transform="matrix(.97 -.22 .22 .98 210.34 60.34)">K</text><text fill="#fff" font-family="Ohno" font-size="48.58" transform="matrix(.99 -.08 .08 1 240.38 53.9)">Y</text><text fill="#fff" font-family="Ohno" font-size="48.58" transform="matrix(.99 .06 -.06 1 270.97 51.77)">R</text><text fill="#fff" font-family="Ohno" font-size="48.58" transform="matrix(.98 .17 -.17 .98 302.17 54.42)">I</text><text fill="#fff" font-family="Ohno" font-size="48.58" transform="matrix(.95 .28 -.28 .96 318.92 57.35)">E</text><ellipse cx="270.86" cy="268.53" fill="#343635" rx="270.86" ry="268.53"/><g fill="#fff"><path d="m33.7 358-2.23-5.25 26.53-11.28 2.78 6.53-15.19 14.26 20.78-1.11 2.79 6.55-26.49 11.3-2.27-5.24 15.89-6.76-16.79 1-2.24-5.25 12.33-11.46z"/><path d="m70.76 370.46 11.56 19.67-5 2.92-8.64-14.75-14.92 8.77 8.67 14.75-5 2.92-11.53-19.67zm-6.33 12 7.22 12.29-5 2.93-7.23-12.3z"/><path d="m95.36 407.65a4.12 4.12 0 0 1 .84 3.18 4.18 4.18 0 0 1 -1.69 2.84l-6.89 5.24a4.21 4.21 0 0 1 -3.19.86 4.1 4.1 0 0 1 -2.85-1.65l-.86-1.12-4 13.78-4.32-5.68 6-20.68-13.77 10.47-3.46-4.54 23-17.45zm-17-3.23 6.91 9.08 4.63-3.5-6.9-9.07z"/><path d="m117.84 431.84a4 4 0 0 1 1.25 3 4.17 4.17 0 0 1 -1.3 3l-1 1-16.08-16.19-12.32 12.26 16.08 16.19-1 1a4.16 4.16 0 0 1 -3 1.27 4.1 4.1 0 0 1 -3.05-1.26l-14.14-14.11a4.06 4.06 0 0 1 -1.22-3 4.16 4.16 0 0 1 1.28-3l14.35-14.2a4.16 4.16 0 0 1 3.06-1.27 4.12 4.12 0 0 1 3 1.26z"/><path d="m123.37 436.85 18 14-3.55 4.54-13.52-10.49-10.64 13.64 13.56 10.46-3.55 4.55-18-14zm-1.46 13.46 11.27 8.75-3.54 4.54-11.27-8.74z"/><path d="m143.81 464.28-9.77 16-4.88-3 15-24.59 6.71 4.08-2.31 18.82 9-14.75 4.88 3-15 24.58-5.44-3.34z"/><path d="m152.06 491.09 22.39-21.47 5.2 2.36-1.6 30.92-6.5-3 .58-6.06-8.06-3.66 4.22-4.41 4.42 2 .92-9.55-15.08 15.78z"/><path d="m219.73 499.21 7.09-10.06 6.91 1.81-12.73 14.54-3 11.13-5.53-1.44 3-11.14-3.87-18.87 6.91 1.81z"/><path d="m271.65 492.53a4.24 4.24 0 0 1 4.06 4.52l-.08 1.44-11.42-.57-1.21 23-5.71-.29 1.21-23-11.42-.57.08-1.43a4.3 4.3 0 0 1 4.51-4.1z"/><path d="m279.13 492.51 22.8-1.8.44 5.74-17.11 1.35 1.31 17.2 17.11-1.36.44 5.74-22.81 1.8zm8 10.91 14.25-1.12.44 5.73-14.26 1.13z"/><path d="m309.46 518.81 5.54-30.47 5.6-1.14 16.9 25.9-7 1.43-3.1-5.24-8.69 1.77.83-6 4.76-1-4.87-8.25-2.94 21.58z"/><path d="m348.24 509.75-5.4 1.88-9.42-27.16 6.76-2.36 13.14 16.07.37-20.77 6.75-2.35 9.41 27.13-5.4 1.91-5.64-16.27-.23 16.8-5.41 1.88-10.57-13z"/><path d="m384.63 461.15 4.8-3.12 12.51 19.3 14.41-9.33 3.13 4.82-19.22 12.45z"/><path d="m406.53 446.74 17.64-14.59 3.67 4.43-13.23 10.94 11 13.27 13.23-10.93 3.67 4.42-17.64 14.59zm12.85 4.26 11-9.11 3.67 4.42-11 9.12z"/><path d="m446.57 450.73-13.09-28 3.93-4.16 28.79 11.38-4.9 5.2-5.57-2.49-6.08 6.45-2.82-5.4 3.34-3.53-8.76-3.92 10.07 19.28z"/><path d="m446.32 409 14.12-19.79a4.28 4.28 0 0 1 6-1l16.41 11.65a4.22 4.22 0 0 1 1.77 2.78 4.11 4.11 0 0 1 -.74 3.21l-14.11 19.75zm18-15.29-10 14 14.07 10 10-14z"/><path d="m464.43 382.9 10.73-20.19 5.09 2.68-8.05 15.14 15.27 8.06 8-15.14 5.09 2.68-10.74 20.19zm13.57-.9 6.71-12.62 5.09 2.68-6.71 12.62z"/><path d="m483.22 342.41a4.14 4.14 0 0 1 2.26-2.4 4.21 4.21 0 0 1 3.32-.07l8.07 3.07a4.22 4.22 0 0 1 2.4 2.25 4.09 4.09 0 0 1 .09 3.29l-.51 1.33 13.83-3.9-2.56 6.66-20.75 5.86 16.14 6.15-2.05 5.35-26.9-10.24zm6.15 16.09 4.1-10.67-5.38-2-4.09 10.62z"/><path d="m207.07 483.09a4.1 4.1 0 0 1 2.44 2.21 4.22 4.22 0 0 1 .14 3.31l-2.91 8.13a4.17 4.17 0 0 1 -2.19 2.45 4.1 4.1 0 0 1 -3.29.16l-1.35-.49 4.19 13.76-6.72-2.43-6.28-20.63-5.81 16.26-5.38-1.94 9.69-27.1zm-16 6.47 10.75 3.88 1.94-5.42-10.76-3.88z"/><path d="m138.35 97.06-22.53-33.4 6.62-4.45 22.56 33.4zm-.74-18.92 11.58-7.78 9 13.36 6.62-4.45-22.53-33.4-6.62 4.45 9 13.36-11.56 7.78z" stroke="#fdfffe" stroke-miterlimit="10"/><path d="m168.5 76.84-1.2-43.26 7.34-3.13 30.55 30.77-9.19 3.9-5.74-6.31-11.36 4.85-.6-8.5 6.23-2.65-9-9.93 2.17 30.35z" stroke="#fdfffe" stroke-miterlimit="10"/><path d="m211.72 33 5.6 25.56-7.8 1.68-8.62-39.31 10.72-2.32 15.9 21.27-5.17-23.59 7.8-1.68 8.62 39.32-8.77 1.89z" stroke="#fdfffe" stroke-miterlimit="10"/><path d="m254.28 26.29 1 26.13-8 .28-1.54-40.2 11-.38 11.9 23.74-.92-24.12 8-.28 1.53 40.2-9 .31z" stroke="#fdfffe" stroke-miterlimit="10"/><path d="m286.75 52.57 3.63-40 7.95.75-3.62 40.05z" stroke="#fdfffe" stroke-miterlimit="10"/><path d="m329.16 43.34-15.59-3.53-3.51 15.69-7.79-1.76 8.73-39.23 25.33 5.74a5.75 5.75 0 0 1 3.75 2.65 5.87 5.87 0 0 1 .78 4.55l-2.2 9.81a5.77 5.77 0 0 1 -2.35 3.59 5.83 5.83 0 0 1 .6 4.26l-2.19 9.8a6 6 0 0 1 -7.16 4.56l-11.69-2.64-4.09-9.17 15.58 3.53zm-13.84-11.34 15.59 3.53 1.75-7.85-15.58-3.53z" stroke="#fdfffe" stroke-miterlimit="10"/><path d="m337.79 61.83 30.66-30.46 7.32 3.2-1.34 43.25-9.16-4 .64-8.49-11.36-4.95 5.76-6.26 6.23 2.72 1-13.35-20.54 22.34z" stroke="#fdfffe" stroke-miterlimit="10"/><path d="m400.72 47.08 6.61 4.5-18.06 26.57 19.83 13.5-4.51 6.65-26.45-18z" stroke="#fdfffe" stroke-miterlimit="10"/></g><path d="m64.2 268.53c0 99.41 71.43 182.28 166.18 200.94v-401.88c-94.75 18.66-166.18 101.52-166.18 200.94z" fill="#9e1319"/><path d="m477.51 268.53c0-100.67-73.24-184.38-169.77-201.62v403.24c96.53-17.24 169.77-100.95 169.77-201.62z" fill="#9e1319"/><path d="m234 477.85v-4.08a213.31 213.31 0 0 0 70.19.61v3.47z" fill="#ebebeb"/><path d="m230.38 469.47v12h77.36v-11.32a210.65 210.65 0 0 1 -77.36-.68z" fill="#343635"/><path d="m234 61.9h9c-3 .4-6 .86-9 1.38zm70.19.78q-2.67-.42-5.36-.78h5.36z" fill="#ebebeb"/><path d="m307.74 58.32h-77.36v9.27a210.07 210.07 0 0 1 77.36-.68z" fill="#343635"/><path d="m270.51 475.4a140 140 0 0 1 -33.13-4l-1.52-.37v-405.03l1.52-.37a139.22 139.22 0 0 1 63.31-.63l1.57.34v406.41l-1.57.35a140 140 0 0 1 -30.18 3.3z" fill="#ebebeb"/><path d="m270.51 63.65a137.32 137.32 0 0 1 29.75 3.26v403.24a137.69 137.69 0 0 1 -62.4-.68v-401.88a137.78 137.78 0 0 1 32.65-3.94m0-4a141.83 141.83 0 0 0 -33.6 4.06l-3 .74v408.16l3 .74a141.46 141.46 0 0 0 64.21.7l3.14-.69v-409.66l-3.14-.7a142 142 0 0 0 -30.61-3.35z" fill="#343635"/><path d="m447.28 245.69-6.11-9.25-4.57-6.88q-3.75-5.62-7.48-11.26l-.09-.13h-.03-51.54-40.9a2.14 2.14 0 0 0 -.88.23c-5.33 2.72-10.64 5.45-16 8.23l-5.68 2.95-1-2.05-.42-.84-6.58-13.61c-5.44-11.37-11.08-23.12-16.65-34.66-1.27-2.64-2.66-5.29-4-7.85q-1.18-2.25-2.34-4.51a23.67 23.67 0 0 1 -2.65-8.21 17.65 17.65 0 0 1 1.77-9.6q3.47-7.49 7-15l1-2.21a36 36 0 0 1 8.15-11.67 3.24 3.24 0 0 1 2.17-.94 3.31 3.31 0 0 1 1.57.42c2.54 1.3 5.05 2.55 7.71 3.87l1 .48 6.7-18.84h2.23l.44.27.25.16.17.11 14 6.23c21.42 9.54 43.56 19.41 65.36 29.05a8.61 8.61 0 0 1 5 5.26 64.88 64.88 0 0 0 8.62 16.59c4.86 6.58 11.25 12.66 20.12 19.14l16 11.69 3.83 2.8v6.34q0 22.8 0 45.61a3.72 3.72 0 0 1 -.2 1.15c0 .07 0 .14-.05.21l-.94 4.19zm-71.28-72.37a2 2 0 0 0 .21 0q6.67 0 13.36 0h9c0-.86.07-1.74.14-2.62-3-1.19-6-2.45-8.49-3.53l-12.95-5.53q-11.24-4.8-22.5-9.59c7 7 14.17 14.17 21.25 21.21z" fill="#343635"/><path d="m319.09 106.21a5.73 5.73 0 0 0 .62.38q39.66 17.67 79.35 35.29a6.77 6.77 0 0 1 4 4.21 67 67 0 0 0 8.86 17c5.7 7.72 12.83 13.91 20.52 19.53l16 11.69 3.09 2.26q0 25.5 0 51a4.72 4.72 0 0 1 -.21 1q-4.32-6.57-8.63-13.14-6-9.06-12.05-18.13a1.77 1.77 0 0 0 -1.69-1q-46.21 0-92.43 0a3.8 3.8 0 0 0 -1.71.43c-6.65 3.39-13.28 6.81-20.05 10.3-.21-.42-.41-.82-.6-1.22q-11.6-24.04-23.16-48.18c-2-4.18-4.24-8.26-6.35-12.4a22.19 22.19 0 0 1 -2.46-7.59 15.83 15.83 0 0 1 1.61-8.62c2.65-5.73 5.33-11.46 8-17.18a34.61 34.61 0 0 1 7.74-11.1 1.35 1.35 0 0 1 .93-.46 1.58 1.58 0 0 1 .74.22c3.46 1.78 6.95 3.49 10.55 5.28l7-19.57h.43m70.57 69h9.53 1.11c.07-1.55.09-3 .23-4.47a1.24 1.24 0 0 0 -.92-1.51c-2.91-1.16-5.81-2.38-8.7-3.62-12.05-5.13-24.09-10.3-36.14-15.42-2.22-.94-4.52-1.7-6.78-2.55l-.09.16a6 6 0 0 0 .46.54q13.17 13.18 26.36 26.34a2.32 2.32 0 0 0 1.49.56q6.72 0 13.45 0m-69.53-72.63h-4l-.86 2.42-5.05 14.21-.53 1.49c-2.34-1.16-4.57-2.28-6.83-3.43a5.14 5.14 0 0 0 -2.4-.62 4.9 4.9 0 0 0 -3.4 1.42 37.63 37.63 0 0 0 -8.57 12.24l-.91 1.95c-2.33 5-4.73 10.15-7.08 15.24a19.36 19.36 0 0 0 -1.93 10.57 25.44 25.44 0 0 0 2.84 8.83c.77 1.52 1.57 3.05 2.35 4.54 1.33 2.54 2.7 5.18 4 7.78 5.57 11.54 11.21 23.3 16.66 34.67q3.26 6.8 6.52 13.6c.14.3.29.59.45.89l.19.38 1.65 3.29 3.27-1.68 4.1-2.12c5.48-2.81 10.64-5.48 15.94-8.18h.09 40.59 50.92q3.53 5.34 7.07 10.65l4.52 6.81c2 3 4 6.05 6 9.08l2.68 4.06 4.73 7.17 1.87-8.39a.62.62 0 0 0 0-.1 5.83 5.83 0 0 0 .26-1.65q0-23.15 0-46.28v-6.57l-1.49-1.1-1-.71-2.12-1.54-5.7-4.16-10.32-7.54c-8.72-6.36-15-12.32-19.74-18.74a63.26 63.26 0 0 1 -8.36-16.14 10.3 10.3 0 0 0 -6-6.29c-21.86-9.67-44-19.56-65.52-29.13l-13.68-6.1-.31-.2-.88-.54zm56.66 69c-4.69-4.67-9.42-9.39-14.11-14.08l13.78 5.88 13 5.57c1.92.81 4.09 1.73 6.32 2.65h-6.14c-3.52 0-8.13 0-12.87 0z" fill="#eaeaee"/><path d="m85 249-.06-.21a4.16 4.16 0 0 1 -.19-1.15q0-22.74 0-45.47v-6.57l.88-.53.34-.19a2.56 2.56 0 0 0 .37-.22l2.66-2.13c1.69-1.35 3.45-2.74 5.23-4.06 2.09-1.55 4.23-3.09 6.3-4.58 3.52-2.52 7.15-5.13 10.58-7.84 7.68-6.06 13.28-12.46 17.13-19.59 1.45-2.69 2.71-5.6 3.93-8.4.67-1.55 1.36-3.15 2.09-4.72a4.6 4.6 0 0 1 2.15-2.2q27.69-12.37 55.41-24.71l17.64-7.86c2-.9 4-1.82 6-2.74l3.17-1.44h2.11l6.65 18.84 4.06-2c.42-.22.85-.42 1.27-.63 1.16-.57 2.26-1.1 3.34-1.7a3.13 3.13 0 0 1 1.59-.45 3.23 3.23 0 0 1 2.19 1 35.22 35.22 0 0 1 8.06 11.5c1.18 2.56 2.34 5.18 3.46 7.71q1.17 2.65 2.35 5.3c.37.8.82 1.59 1.3 2.42v.06a18.4 18.4 0 0 1 .68 18.3c-1 2-2 3.92-3 5.82-1.24 2.4-2.53 4.88-3.72 7.34-5.1 10.55-10.26 21.3-15.24 31.69l-5.59 11.64-3.14 6.68-.81 1.69-10.49-5.39-3.38-1.75-8-4.13a1.33 1.33 0 0 0 -.49-.13h-40.76-52c-6.51 9.8-13.07 19.66-19.48 29.25l-1.07 1.61-.12.29-2.27 4.86zm64.17-75.6q6.3 0 12.59 0a.63.63 0 0 0 .58-.23q8.63-8.67 17.28-17.31l3.47-3.46-1.44.59c-6.57 2.68-13.35 5.46-20 8.25-5.83 2.44-11.73 5-17.43 7.48l-4.8 2.09c0 .84.08 1.69.14 2.57z" fill="#343635"/><path d="m219.45 106.21 6.91 19.57 5.9-2.92c1.56-.78 3.15-1.52 4.68-2.37a1.48 1.48 0 0 1 .71-.22 1.45 1.45 0 0 1 1 .48 33.61 33.61 0 0 1 7.63 10.92c2 4.31 3.86 8.67 5.81 13a29.12 29.12 0 0 0 1.42 2.64 16.6 16.6 0 0 1 .63 16.58c-2.19 4.41-4.55 8.74-6.7 13.18q-10.47 21.65-20.84 43.33l-3.21 6.72-8.82-4.53c-3.81-2-7.62-3.94-11.44-5.88a3 3 0 0 0 -1.31-.33h-40.92-52a1.68 1.68 0 0 0 -1.21.57q-10.38 15.57-20.69 31.16a3.42 3.42 0 0 0 -.23.47 4.69 4.69 0 0 1 -.2-1q0-25.5 0-51a7.34 7.34 0 0 0 .89-.55c2.62-2 5.19-4.16 7.86-6.14 5.63-4.17 11.44-8.11 16.93-12.45 7.1-5.6 13.27-12.14 17.6-20.15 2.3-4.26 4-8.82 6.07-13.22a2.82 2.82 0 0 1 1.24-1.31q36.51-16.31 73-32.57c3-1.32 5.9-2.68 8.85-4h.43m-81.64 69h11.36q6.27 0 12.56 0a2.38 2.38 0 0 0 1.86-.77q8.63-8.67 17.29-17.31 4.67-4.66 9.34-9.3l-.14-.24c-.36.13-.72.25-1.07.39-9.37 3.85-18.76 7.65-28.11 11.57-7.57 3.17-15.08 6.47-22.61 9.74-.31.13-.76.46-.75.7 0 1.7.16 3.4.26 5.2m84.21-72.6h-3.8l-.72.32-2.8 1.29-6 2.73-17.84 7.94c-18.1 8.07-36.82 16.4-55.21 24.62a6.44 6.44 0 0 0 -3.07 3.11c-.73 1.58-1.43 3.19-2.1 4.75-1.26 2.9-2.45 5.64-3.87 8.27-3.72 6.9-9.17 13.12-16.65 19-3.4 2.69-7 5.28-10.51 7.79-2.08 1.49-4.23 3-6.33 4.59-1.8 1.34-3.57 2.74-5.28 4.1l-2.61 2.07-.17.1c-.13.07-.27.14-.39.22l-1.77 1.06v53.07a5.77 5.77 0 0 0 .27 1.65v.12l2.33 10.47 4.53-9.74a1.08 1.08 0 0 0 .08-.19l1-1.48c6.2-9.32 12.6-18.95 18.93-28.42h50.85 40.68l7.91 4.07 3.37 1.74 6.06 3.11 2.76 1.42 3.34 1.72 1.62-3.39 1-2.15c.74-1.53 1.46-3 2.19-4.56l5.57-11.61c5-10.4 10.15-21.15 15.26-31.71 1.18-2.44 2.46-4.91 3.7-7.3 1-1.91 2-3.88 3-5.85a20.35 20.35 0 0 0 -.75-20v-.08a24.94 24.94 0 0 1 -1.2-2.24c-.8-1.76-1.58-3.53-2.36-5.3-1.12-2.53-2.28-5.15-3.46-7.72a37 37 0 0 0 -8.48-12.08 4.79 4.79 0 0 0 -5.91-.76c-1 .57-2.11 1.09-3.25 1.65l-1.29.63-2.2 1.1-1.67-4.7-3.87-11-.86-2.43zm-79.79 69 2.67-1.16c5.7-2.48 11.59-5.05 17.41-7.48 4.31-1.81 8.69-3.61 13-5.39-4.63 4.62-9.35 9.35-14 14h-19.05z" fill="#eaeaee"/><path d="m357.62 440.06-.46-.31-.36-.25a3.55 3.55 0 0 0 -.39-.27c-32.72-16.13-60.23-29.69-88.11-43.4-30.61 15.05-61.3 30.17-87.72 43.17a6.6 6.6 0 0 0 -.71.44l-.47.3-.44.28h-3.08l1.12-7.17c.59-3.74 1.18-7.48 1.74-11.23q1.35-8.9 2.69-17.8 1.37-9.15 2.76-18.32 1.27-8.42 2.57-16.84 1.17-7.57 2.32-15.14l1.29-8.63c.74-4.89 1.47-9.78 2.23-14.67a.28.28 0 0 0 0-.08l-.1-.12q-18.34-18.35-36.68-36.72l-21.74-21.77c-1.33-1.33-2.68-2.64-4-3.95l-2.4-2.34v-2.57l3.42-.47 4.18-.59 4.26-.6q7.14-1 14.29-2l11.17-1.63 10.35-1.52 14.09-2 9.13-1.31 6.44-.93c6-.86 12.11-1.75 18.18-2.6h.05c.93-2.06 1.92-4.13 2.87-6.14l11.19-23.56q13.51-28.49 27-57c.51-1.08 1-2.17 1.49-3.26l1.2-2.64h2.7l.41 1.25c0 .11.07.21.1.31a2.29 2.29 0 0 0 .09.28l12.32 26q15.39 32.34 30.76 64.74c5.48.75 11 1.56 16.4 2.34l1.92.27 7.73 1.13c3.15.47 6.29.93 9.44 1.38l9.13 1.3 7.95 1.14c3.53.5 7.05 1 10.58 1.53l8.6 1.25c4.6.66 9.2 1.33 13.8 2l5.79.81 4.25.59v2.63l-.63.55-.37.31a6.93 6.93 0 0 0 -.58.5l-29.38 29.36-1.77 1.77q-16.11 16.14-32.23 32.34c.2 1.57.45 3.16.69 4.7.11.66.21 1.31.31 2l.45 2.92 2.49 16.35c.42 2.77 2.05 13.57 2.45 16.2l1.38 9c.51 3.37 1 6.75 1.54 10.12q.68 4.5 1.36 9l1.29 8.58q1.46 9.63 2.94 19.26c.34 2.25.7 4.5 1.05 6.75l.78 5z" fill="#343635"/><path d="m268.41 158.21a6.83 6.83 0 0 0 .27.8q21.54 45.39 43.06 90.79a1.52 1.52 0 0 0 1.34 1c6.12.84 12.23 1.73 18.35 2.62 5.72.83 11.45 1.68 17.17 2.5s11.39 1.62 17.08 2.44 11.59 1.68 17.39 2.52l15.59 2.25 8.47 1.18v.21c-.34.3-.71.58-1 .91q-14.67 14.68-29.35 29.38-17 17-34 34.11a1.84 1.84 0 0 0 -.56 1.26c.3 2.33.69 4.65 1.05 7l2.94 19.26q1.23 8.1 2.45 16.2 1.46 9.58 2.92 19.16c.89 5.85 1.76 11.71 2.65 17.57q1.45 9.63 2.94 19.27c.49 3.21 1 6.41 1.5 9.62h-.43a8.69 8.69 0 0 0 -.95-.63q-44.1-21.74-88.2-43.45a1.67 1.67 0 0 0 -.73-.15 1.57 1.57 0 0 0 -.7.15q-43.93 21.6-87.82 43.26c-.46.23-.89.55-1.33.82h-.51c.85-5.43 1.71-10.86 2.53-16.29 1.83-12 3.62-24.08 5.45-36.12q2.43-16 4.89-32c1.18-7.76 2.31-15.53 3.52-23.29a1.79 1.79 0 0 0 -.6-1.77q-29.22-29.24-58.43-58.49c-1.94-1.94-3.93-3.85-5.89-5.77v-.21l6-.84q9.28-1.32 18.56-2.64c7.18-1 14.35-2.11 21.52-3.15 7.74-1.13 15.48-2.23 23.22-3.35 8.2-1.18 16.4-2.38 24.61-3.52a1.66 1.66 0 0 0 1.48-1.11c1.19-2.6 2.43-5.17 3.65-7.75l37.49-78.89c.76-1.61 1.47-3.24 2.21-4.86h.21m2.64-3.64h-5.2l-1 2.14c-.24.52-.47 1-.7 1.56-.48 1.07-1 2.18-1.48 3.24l-26.88 56.63-10.56 22.23-.77 1.63c-.83 1.74-1.68 3.53-2.51 5.32-5.78.8-11.63 1.65-17.29 2.47l-6.4.93-9.08 1.3c-4.71.68-9.43 1.35-14.14 2l-10.34 1.51-11.18 1.64q-7.11 1-14.23 2l-4.32.61c-1.37.2-2.75.38-4.12.57l-1.9.27-3.15.43v4.95l1.1 1.08 1.88 1.83c1.32 1.28 2.68 2.6 4 3.91l22.21 22.27 35.67 35.72c-.72 4.62-1.42 9.31-2.1 13.85-.43 2.88-.86 5.75-1.3 8.63q-1.16 7.6-2.32 15.2-1.29 8.4-2.56 16.78-1.39 9.18-2.77 18.35-1.34 8.88-2.68 17.77c-.56 3.73-1.16 7.52-1.74 11.19-.26 1.7-.53 3.4-.79 5.09l-.66 4.21h5.73l.89-.56.5-.32a5.93 5.93 0 0 1 .51-.32c27.84-13.68 57.62-28.41 86.92-42.82 27.44 13.49 54.76 27 87.26 43l.18.14.41.28.92.62h5.79l-.66-4.21-.47-3q-.53-3.3-1-6.62-1.49-9.62-2.94-19.25c-.44-2.9-.87-5.8-1.31-8.7s-.89-5.92-1.34-8.88l-1.53-10c-.46-3-.93-6.08-1.39-9.13-.41-2.67-.81-5.33-1.21-8s-.82-5.47-1.24-8.2l-2.67-17.53-.27-1.73c-.1-.66-.2-1.32-.31-2-.19-1.24-.4-2.51-.57-3.77 10.56-10.6 21.29-21.35 31.68-31.76l1.72-1.72q14.65-14.72 29.32-29.4a6 6 0 0 1 .46-.39l.39-.33 1.26-1.09v-5.06l-3.14-.43-2.65-.37c-1.94-.27-3.88-.53-5.82-.81l-14-2-1.61-.24-6.76-1-10.63-1.54-8-1.13-9.11-1.3-9.43-1.38-7.63-1.13-2-.28c-5-.73-10.24-1.49-15.39-2.2q-15.42-32.55-30.87-65.09l-11.74-24.7v-.09l-.12-.37z" fill="#eaeaee"/><path d="m297.78 253.72v117h-19.6a8.54 8.54 0 0 0 .07-.86q0-28.31 0-56.59c0-.84-.16-1.14-1.09-1.14q-8.7.07-17.41 0c-.93 0-1.09.29-1.09 1.14q0 28.24 0 56.5c0 .32 0 .63.07.95h-19.6v-117h.53 18.34c.2 0 .4 0 .71.06v38.94h19.59v-39h13.91c1.84-.04 3.7-.01 5.57 0z" fill="#ebebeb"/></svg>