<svg enable-background="new 0 0 113.4 113.3" viewBox="0 0 113.4 113.3" xmlns="http://www.w3.org/2000/svg"><circle cx="56.9" cy="56.7" fill="#fff" r="56.2"/><path d="m56.9 0c31-.2 56.9 25.6 56.5 57.4-.3 30.5-25.6 56.5-58 55.9-30.3-.6-54.8-25.3-55.4-55.6-.6-32.3 25.8-57.9 56.9-57.7zm54.8 56.7c-.2-30.5-24.4-54.9-54.7-55-30.7 0-55.2 24.3-55.2 54.7 0 30.7 24.4 55.2 54.9 55.2 30.6 0 54.9-24.4 55-54.9z" fill="#2b6282"/><path d="m111.7 56.7c-.2 30.5-24.5 54.9-55 54.9s-54.9-24.4-54.9-55.2c0-30.4 24.5-54.7 55.2-54.7 30.4 0 54.6 24.5 54.7 55zm-.6 0c0-30-24.1-54.3-54-54.3-30.3 0-54.6 24-54.6 54.2 0 30.1 24.1 54.4 54 54.5 30.2 0 54.7-24.5 54.6-54.4z" fill="#fde130"/><path d="m111.1 56.7c.1 29.9-24.4 54.4-54.6 54.3-29.9-.1-54-24.4-54-54.5s24.3-54.2 54.6-54.2c29.8.1 54 24.4 54 54.4zm-1.9 0c0-28.7-23-52-51.5-52.4-29.3-.5-52.8 22.8-53.3 51.4-.5 29.5 23 52.9 51.4 53.4 29.7.4 53.3-23.4 53.4-52.4z" fill="#2b6282"/><path d="m32.9 90.6c3-.6 3.7-1.4 3.6-4.4 0-.3.2-.8.5-.9 5.4-3.6 10.9-7.2 16.3-10.8.1-.1.3-.1.6-.3 0 1.5.1 2.8 0 4.1-.1 1.2.2 2.1 1.2 2.8.5.4.9 1.1 1.3 1.7 2-1.6 3.9-2.8 3.4-5.6-.2-1 0-2 0-3.2.5.3.8.4 1 .6 5.1 3.4 10.3 6.8 15.4 10.2.5.3.9.6.9 1.4-.2 2.7.7 3.7 3.4 4.2-11.8 9.4-32.4 11.2-47.6.2z" fill="#2b6282"/><path d="m55.1 15.1c-1.9 2.3-1.9 3-.2 5.4.2.3.3.8.2 1.1-1.8 4.9-3.7 9.8-5.6 14.6-.2.4-.6.8-.9 1.1-2.6 1.9-5.3 3.7-7.9 5.5-.7.5-1.7.9-2.5.9-4.6.1-9.1 0-13.7.1-.7 0-1.1-.2-1.5-.8-1.2-2.1-2.1-2.5-4.7-1.8 2.1-5.5 5.4-10.4 9.6-14.4 7.6-7.2 16.6-11.1 27.2-11.7z" fill="#2b6282"/><path d="m58.5 15.2c18.3.7 32 13.3 36.8 26.1-.2 0-.3 0-.5-.1-1.9-.6-3.2-.1-4.1 1.7-.4.9-1 1.1-1.9 1.1-4.5 0-9 0-13.4 0-.7 0-1.5-.3-2.1-.7-2.7-1.8-5.3-3.7-7.9-5.6-.4-.3-.7-.7-.9-1.1-1.9-4.9-3.8-9.8-5.6-14.7-.2-.4-.1-1.1.2-1.5 1.2-2.2 1.1-3.4-.6-5.2z" fill="#2b6282"/><path d="m83.6 52.2c.7-.5 1.4-1.1 2.1-1.6 1.6-1.2 3.2-2.5 4.8-3.7.3-.2.9-.3 1.2-.2 2.4 1 3.4.8 4.8-1.4 1.8 4.6 2.6 13.6.4 21.9-2.3 8.5-6.8 15.5-13.6 21.3.3-2.9-.2-3.7-2.9-4.7-.4-.1-.8-.5-.9-.9-2.3-6.8-4.5-13.7-6.7-20.6-.1-.4.1-1.1.4-1.4 1.9-1.7 4-3.3 5.9-5 .5-.5.9-.3 1.5 0 1.7.8 3.4 1.9 5.3 2.4 2.8.8 5.5-1.5 5.3-4.3-.1-1.6-1.1-2.7-2.7-2.6-1.1.1-2.1.5-3.1.8-.5.1-1.1.2-1.7.3 0 0 0-.1-.1-.3z" fill="#2b6282"/><path d="m30.2 88.5c-13.3-10.6-17.8-29-13.3-43.4.2.2.3.4.4.6 1 1.6 2.4 2.1 4.1 1.2.9-.5 1.4-.3 2.1.3 2 1.7 4.1 3.4 6.1 5.1 0 .1-.1.2-.1.4-.4-.1-.9-.1-1.3-.2-.8-.3-1.6-.7-2.4-.8-2.6-.5-4.2 1.5-3.4 4 .7 2.2 3.1 3.6 5.4 2.9 1.7-.5 3.3-1.4 4.9-2.2.7-.4 1.2-.4 1.9.1 1.6 1.4 3.3 2.7 4.9 4.1.3.3.6 1 .5 1.4-1.9 7.1-3.9 14.1-6 21.1-.1.4-.6.8-1 .9-2.5.7-3.2 1.8-2.8 4.5z" fill="#2b6282"/><path d="m60.5 72.8c-.7-.5-1.2-.8-1.8-1.3 0 .6-.1 1-.1 1.4v5.6c0 .8-.3 1-1 1-2.9-.1-2.4.3-2.5-2.4 0-1.8 0-3.5 0-5.3 0-.1-.1-.1-.2-.3-.5.4-1 .7-1.7 1.1 0-.5-.1-.8-.1-1.1 0-2.6 0-5.2 0-7.8 0-.9.2-1.5.9-2 1-.7 1.2-1.6 1.2-2.8-.1-8.5 0-17.1 0-25.6 0-.5 0-1 0-1.6-.7.1-1.2.2-2 .3 1.2-3.4 2.3-6.7 3.4-10h .3c1.2 3.3 2.3 6.6 3.5 10-.7-.1-1.2-.2-1.9-.3 0 .6-.1 1.1-.1 1.5v25.7c0 1.1.2 2.1 1.2 2.7.8.5.9 1.3.9 2.1z" fill="#2b6282"/><path d="m51.6 68.6c-2.4-2-4.7-3.9-7-5.8-3.3-2.7-6.6-5.4-9.8-8.1-.6-.5-1.1-.6-1.8-.1-1.7 1-3.5 1.9-5.3 2.6-1.4.6-3.1-.2-3.7-1.6-.3-.6-.3-1.6 0-2 .4-.5 1.3-.6 2-.7.5 0 1.1.3 1.6.6 1.3.7 2.5.6 3.6-.3 1.8-1.5 3.6-3.1 5.3-4.7 3.5-3.2 6.9-6.5 11-8.9 1.6-1 3.4-1.7 5.2-2.4 1.1-.4 1.3-.2 1.3.9 0 1.3.4 2.8-.2 3.8-.5.8-2.1 1-3.3 1.4-5.3 2.1-9.8 5.5-14.2 9.1-.1.1-.2.2-.3.4 2.4 2 4.7 3.9 7 5.8 2.5 2 4.9 4.1 7.4 6.1 1.3 1 1.6 2.1 1.2 3.9z" fill="#2b6282"/><path d="m61.9 68.6c-.5-1.8 0-2.8 1.2-3.8 4.7-3.7 9.2-7.6 13.8-11.3.2-.2.4-.3.8-.6-.8-.7-1.4-1.2-2.1-1.7-4.4-3.4-8.9-6.6-14.2-8.3-1.8-.6-1.8-.6-1.8-2.5 0-.7 0-1.4 0-2.1 0-1.1.3-1.4 1.3-1 1.5.6 3.1 1.2 4.5 2 3.6 1.9 6.5 4.6 9.5 7.3 2 1.8 4 3.7 6 5.6.6.5 1.2 1 1.9 1.4 1 .7 2 .7 3.1.1.6-.3 1.3-.6 1.9-.8 1.6-.3 2.6 1 2 2.5s-2.3 2.4-3.8 1.8c-1.8-.7-3.6-1.7-5.3-2.6-.7-.4-1.2-.4-1.8.1-5.1 4.3-10.3 8.5-15.4 12.7-.5.3-1 .7-1.6 1.2z" fill="#2b6282"/><path d="m29.2 91c .4.3.7.6 1.1 1-1.2 1.2-2.3 2.5-3.5 3.7-.4-.4-.8-.6-1.2-1 .4-.5.7-1 1.1-1.4-.8-.8-1.6-1.6-2.4-2.5-.5.5-1 .8-1.6 1.3-.3-.4-.6-.7-1-1.1 1.2-1.2 2.3-2.4 3.5-3.7.4.3.7.7 1.2 1-.4.5-.7.9-1.2 1.5.7.7 1.4 1.3 2.1 2 .2.1.6.1.9 0 .5-.2.7-.5 1-.8z"/><path d="m66 105.8c.6-.1 1-.1 1.4-.2.5-.1 1 0 1.5-.2.3-.1.5-.6.7-.9-.1-.1-.2-.1-.2-.2-.5.2-1 .4-1.6.6-1.7.4-2.8-.5-2.5-2.2.1-.5.9-1 1.4-1.2 1-.3 2-.4 3.2-.6.3 1.2.6 2.4.8 3.7.1.3 0 .6-.1.9-.5 1-3.5 1.6-4.3 1 0-.2-.1-.4-.3-.7zm1.5-1.5c.7-.6 1.1-.9 1.6-1.3-.3-.3-.7-.9-.8-.9-.6.2-1.1.6-1.6 1 .1.3.4.7.8 1.2z"/><path d="m104.3 54.8c-.7-.3-1.4-.5-2-.8-.3-.2-.7-.5-.8-.8-.1-.2.3-.6.6-.9.5-.4 1.2-.8 2-1.3-1.1 0-1.9 0-2.7 0-.2-1.2-.1-1.2 3.3-1.3 1.3 2-.6 2.5-1.9 3.4.8.3 1.3.4 1.8.7.3.2.7.5.7.9.3 1.5.2 1.5-1.2 1.6-.6 0-1.2.2-1.7.2-.2 0-.4-.3-.6-.4.2-.2.3-.5.5-.6.3-.1.7-.1 1-.2.3 0 .6-.1.9-.1.1-.3.1-.3.1-.4z"/><path d="m55.7 101.3c1.6-.5.8 1.1 1.3 1.5.7-.1 1.4-.2 2.1-.2 1.2 0 1.6.5 1.6 1.6.1 1.7-.2 2-1.9 2.1-.5 0-1.1-.1-1.6-.1s-1 0-1.6.1c.1-1.8.1-3.3.1-5zm2.6 4.3c.3-.4.9-.7 1-1.2.2-.7-.4-.9-1-.9s-1.3 0-1.4.9c0 .8.5 1 1.4 1.2z"/><path d="m75.5 100.7c-1.1.5-2.1.9-3.4 1.4 1.7 1 2.3-1 3.8-.8-.3.5-.4 1-.8 1.2-.8.4-1.7.8-2.6 1.1s-1.3-.4-1.6-1.1c-.3-.8-.7-1.6.3-2.2.8-.5 1.7-.8 2.6-1 1-.3 1.4.4 1.7 1.4z"/><path d="m100.2 69.1c1.3.4 2.4.8 3.6 1.2-.4 1.3-.7 2.5-1.3 3.6-.1.3-1.2.6-1.3.5-.6-.8-2.7.4-2.3-1.6.4-1.3.8-2.5 1.3-3.7zm-.2 3.6c.2.1.4.1.6.2.2-.7.4-1.5.7-2.2-.2-.1-.3-.1-.5-.2-.4.7-.6 1.4-.8 2.2zm1.4.4c.2.1.3.1.5.2.2-.7.4-1.4.6-2.2-.2 0-.3-.1-.5-.1-.2.6-.4 1.3-.6 2.1z"/><path d="m53.3 106.3c-.7-.1-1.1-.1-1.5-.1-1.8-.3-2.3-1.2-1.7-2.9v-.1c.4-.8 1.1-.8 1.8-.7 1.1.1 2.5-.2 3 1 .3.7 0 1.7-.3 2.5-.2.2-1.1.2-1.3.3zm-.8-3.4c-.6.6-1.2.9-1.3 1.3-.2.8.5.9 1.1 1 .6 0 1.4.1 1.3-.8 0-.5-.5-.8-1.1-1.5z"/><path d="m91.5 23.3c2.4 1.3.7 3.1.8 4.9.6-.5 1-.8 1.4-1.2.5-.5 1-.6 1.4.3-.9.8-1.8 1.6-2.7 2.4-2.3-1.3-.8-3-.7-4.9-.8.7-1.5 1.2-2.1 1.7-.8-.4-.8-.8-.2-1.3.7-.7 1.4-1.3 2.1-1.9z"/><path d="m102.1 65.8c.5 1 2.5-.2 2.4 1.8-1.2-.2-2.2-.3-3.2-.5-.2 0-.5-.5-.5-.6.2-.6.3-1.3.8-1.7.7-.5 1.5-.8 2.3-1.5-.8-.2-1.5-.3-2.3-.5-.2-.8.2-1.1.9-1 .5.1 1.1.1 1.6.3.4.1 1.1.4 1.1.6-.1.6-.2 1.4-.7 1.8-.7.6-1.6.9-2.4 1.3z"/><path d="m97.8 78.5c.5.2 1.1.4 1.5.8.3.2.4.5.5.8-.4.1-.7.2-1.1.2-.5-.1-1-.4-1.5-.7-.4-.2-1-.7-.9-.9.2-.7.3-1.5 1.3-1.6.8-.1 1.7-.3 2.9-.5-1-.5-1.7-.9-2.5-1.3.1-.7.3-1.1 1.1-.7.9.4 1.7.8 3 1.4-.7.7-1.1 1.4-1.8 1.8s-1.7.4-2.5.5c.1 0 .1.1 0 .2z"/><path d="m76.3 100.9c1-.4 2-.8 3.1-1.2-.1-.2-.2-.4-.2-.5-.6.3-1.2.7-1.9.8-.5.1-1.2.1-1.6-.2-.2-.1-.2-1.1 0-1.3.9-.7 2-1.2 3-1.7.2-.1.6.2 1.1.4-1.2.6-2.2 1-3.1 1.4.1.2.1.3.2.5.6-.3 1.2-.6 1.9-.9.6-.3 1.3-.5 1.7.3.5.7.1 1.3-.5 1.7-.8.5-1.5.9-2.4 1.3-.4.1-.9 0-1.3-.1.1-.2.1-.4 0-.5z"/><path d="m33.3 96.6c-.1 1.6-1.7 2.5-3 1.7-.4-.2-.7-.5-1.1-.7-1.6-1.2-1.4-1.9-.1-3.4.1-.1.3-.2.5-.3 1-.4 3.7 1.6 3.7 2.7zm-1-.2c-.8-.5-1.3-1-1.9-1.2-.2-.1-.6.6-1 .9.5.4.9 1 1.5 1.3.2 0 .8-.5 1.4-1z"/><path d="m86.9 19.2c.6.3.9.5 1.2.7.4.3.8.7 1.2 1.1 1.5 1.3 1.5 1.7.1 3.2-.8.8-1.5.9-2.3.1-.5-.5-1.1-.9-1.5-1.4-.3-.4-.7-1.2-.5-1.6.4-.8 1.1-1.4 1.8-2.1zm2.4 3.2c-.6-.5-1-1-1.6-1.4-.2-.2-.7-.2-.9-.1-.3.2-.7.8-.6 1 .3.5.7 1 1.2 1.4.2.2.7.3.9.2.4-.3.6-.7 1-1.1z"/><path d="m43.2 101.2c-.4 2.3-1.1 2.9-2.8 2.3-.4-.2-.8-.3-1.2-.5-1.4-.6-1.6-1.2-1.1-2.6.4-1 1-1.3 2-1 .8.2 1.5.5 2.2.9.5.2.7.7.9.9zm-1.3.5c0-.1 0-.3 0-.4-.6-.3-1.1-.7-1.7-.7-.3 0-.6.6-.9 1 .5.4 1 .8 1.6 1 .2 0 .7-.6 1-.9z"/><path d="m87.4 93.5c.9-.7 1.7-1.3 2.6-2-.1-.1-.2-.3-.3-.4-.3.2-.7.5-1 .7-.4.3-.8.8-1.3 1-.3.1-.9 0-1.1-.3-.2-.2-.4-.8-.3-1 .8-.9 1.7-1.8 2.6-2.6.1-.1.5 0 .8.1 0 .1.1.2.1.3-.4.3-.9.6-1.3.9s-.7.7-1.1 1.1l.3.3c.5-.4 1-.9 1.5-1.3.5-.5 1.1-1 1.8-.2.6.6.4 1.3-.1 1.9s-1.1 1.2-1.7 1.6c-.4.3-.9.3-1.4.4 0-.2 0-.3-.1-.5z"/><path d="m11.8 60.1c.1 2 .1 2-2 2.1-1.7.1-1.7.1-1.8-1.6 0-.3 0-.6-.1-.9-.2-2.3.6-3.1 2.8-2.5.4.1.8.6.9 1 .3.6.2 1.2.2 1.9zm-.9-.2c-.2-.7.2-1.7-1-1.6-1 0-1 .7-.9 1.4.1.6-.4 1.6.9 1.5.9-.1 1.2-.5 1-1.3z"/><path d="m16.5 32.1c.7-.4 1.3-.7 2 0s .2 1.3-.1 1.9-.7 1.2-1.2 1.7c-.3.3-.8.3-1.2.4 0 0-.1-.1-.1-.3.7-.9 1.4-1.8 2-2.6-.2-.1-.3-.2-.5-.4-.4.5-.8 1-1.1 1.6-.4.6-.9 1.3-1.8.7-1-.6-.6-1.3-.2-2 .3-.5.6-1.1 1-1.6.2-.3.7-.4 1-.6.1.5.2.8.2 1.2-1.1.2-1.2 1.1-1.5 1.8.1.1.3.2.4.3.4-.7.7-1.4 1.1-2.1z"/><path d="m101.8 38.7c.4 1.3.9 2.4 1.2 3.6.1.3-.3 1-.7 1.2-.8.4-1.6.5-2.6.8.1-.8.1-1.6.2-2.4.2-1.3-1.7-.6-1.6-2 1.1-.4 2.3-.8 3.5-1.2zm.7 3.6c-.7-1-1.1-1.5-1.5-2.1-.1.2-.4.4-.4.5.3.6.6 1.2 1 1.8.1.1.5-.1.9-.2z"/><path d="m83.8 21.5c-.2-.3-.6-.6-.5-.8.3-1.3-.9-1.3-1.5-1.8-.1-.1-.4.2-.7.3-.2 0-.6 0-.7-.1s-.2-.5-.1-.7c.6-.9 1.2-1.7 1.8-2.7 1.1.8 2.2 1.4 3.1 2.2.3.3.3 1.1.1 1.5-.2.7-.8 1.3-1.5 2.1zm-.9-4.4c-.3.3-.4.5-.6.7.6.4 1.1.9 1.7 1.3.1 0 .3-.3.5-.4-.5-.5-1-1-1.6-1.6z"/><path d="m69.9 14.4c.4-1.1.7-2.1 1.1-3 .1-.2.7-.4 1-.4.9.2 1.8.6 2.6.9.7.3 1 .8.7 1.5-.3.8-.7 1.6-1.1 2.5-.6-.6-1.1-1.4-1.9-1.7-.5-.2-1.4.1-2.4.2zm4.7-1.4c-1-.4-1.6-.6-2.3-.8-.1 0-.3.3-.5.5.6.3 1.2.7 1.9.9.1 0 .4-.3.9-.6z"/><path d="m102.7 45.5c.1.7.2 1.3.3 2 .1.8.1 1.4-.8 1.6s-1.3-.3-1.5-1-.4-1.4-.5-2.2c0-.5.3-.9.4-1.4.1 0 .3.1.4.1.1 1.1.3 2.3.4 3.4.2 0 .4 0 .6-.1-.1-.7-.2-1.4-.3-2.1-.1-1.1.3-1.6 1.3-1.5h.1c1.2.5 1 1.7 1.2 2.6.2.6.4 1.4-.7 1.8-.1-1.1-.3-2.1-.4-3.2-.2 0-.4 0-.5 0z"/><path d="m12.1 62.7c0 .3.1.7-.1.9-.9 1.3-.8 1.8.5 2.7.1.1.3.4.2.6 0 .2-.3.4-.4.4-.8.2-1.6.4-2.4.4-.3 0-.8-.3-.9-.6-.3-1-.4-2-.5-3-.1-.7.3-1.1 1-1.2.7 0 1.5-.1 2.6-.2zm-1.2 3.1c-.3-.6-.6-1.1-.9-1.7-.2.3-.5.6-.4.8.2.6.5 1.1.8 1.6 0-.2.2-.4.5-.7z"/><path d="m43.5 14.4c-.4 0-.7.1-1 0-1.2-.6-2-.3-2.5.9-.1.2-.4.4-.6.4-.1 0-.4-.2-.5-.4-.4-1-.7-2-1.2-3.1 1.3-.4 2.5-.9 3.7-1.3.7-.2 1.1.2 1.3.8.3.9.5 1.6.8 2.7zm-1.5-1.8c-.3-.3-.5-.5-.6-.5-.7.2-1.3.4-1.9.7-.1 0 0 .5 0 .5.3 0 .7.1 1 0 .5-.1.9-.4 1.5-.7z"/><path d="m22 25.1c-1.8 0-1.4 1.7-2.3 2.5-.8-.6-.8-1.2-.2-1.8.8-.8 1.1-2.2 2.6-2 .9.1 1.2 1.1.7 1.9-.4.6-.8 1.2-1.2 1.7.1.1.2.1.3.2.6-.6 1.1-1.3 1.8-1.9.2-.2.5-.1.8-.2 0 .2 0 .5-.1.7-.8 1-1.7 1.9-2.5 2.9-1.5-.9-1.6-1.3-.6-2.6.1-.4.4-.9.7-1.4z"/><path d="m13 41.9c-.3.7-.5 1.3-.8 2s-.6 1.2-1.5.9-1-.9-.8-1.6.4-1.4.7-2.1c.2-.3.6-.6 1-.8.1.1.2.2.3.3-.4 1-.8 1.9-1.3 2.9.2.1.4.2.5.2.3-.7.5-1.3.8-2 .3-.6.7-1.2 1.4-.8.4.2.9.8.9 1.1-.2 1-.5 2-.9 3-.1.3-.7.4-1 .6-.1-.1-.1-.2-.2-.3.5-1 .9-2 1.4-3.1-.1-.2-.3-.2-.5-.3z"/><path d="m34.5 18.3c-.7-1.3-1.2-2.3-1.8-3.5 1.2-.6 2.4-1.2 3.6-1.7.3-.1 1 .2 1.2.6.5.7.7 1.6 1.1 2.5-.9 0-1.8-.1-2.5.2-.6.3-1 1.1-1.6 1.9zm.4-2.3c.7-.5 1.2-.9 1.8-1.4-.2-.2-.5-.5-.5-.4-.6.3-1.2.7-1.8 1.1.1.2.2.4.5.7z"/><path d="m98.9 35.7c.2.4.3.7.4 1.1.2.5.3 1.1.4 1.6-.4-.4-.8-.9-1.2-1.4-.2-.3-.4-.7-.7-1.2-.6 1.4 1.3 2.3.5 3.5-.1 0-.3 0-.4.1-.6-1.2-1.2-2.4-1.8-3.7 1.2-.6 2.2-1.1 3.4-1.7.6 1.2 1.1 2.3 1.6 3.4.1.1-.1.4-.1.6-.2-.1-.5-.1-.6-.3-.3-.4-.4-.9-.7-1.3-.2-.3-.4-.6-.6-.8 0 0-.1.1-.2.1z"/><path d="m104.1 58.4c0 .4 0 .8-.1 1.2-.1.5-.3 1-.4 1.5-.1-.5-.3-1-.4-1.5-.1-.4-.1-.8-.1-1.2-.1 0-.3 0-.4 0-.1.7-.1 1.3-.3 2-.1.3-.3.6-.4.9-.1-.3-.4-.6-.4-.9 0-.9.1-1.7.1-2.6 0-.2 0-.4.1-.4 1-.1 2.1-.2 3.1-.1.2 0 .5.6.5.9.1.7 0 1.5 0 2.2 0 .3-.3.6-.5.9-.1-.3-.3-.6-.4-.9-.1-.7 0-1.4 0-2-.1 0-.3 0-.4 0z"/><path d="m13.2 38.6c.3-.6.6-1.3 1-1.9.1-.2.4-.3.6-.5 0 .3.1.6.1.8-.2.7-.5 1.3-.8 2 .1.1.2.1.3.2.2-.1.4-.3.5-.4.3-.5.5-1.1.8-1.7.1-.2.5-.3.7-.4 0 .2.2.5.1.7-.5 1.1-1 2.1-1.5 3.3-1.1-.5-2.2-1-3.5-1.6.5-1.2 1-2.3 1.6-3.4.1-.1.4-.2.5-.3.1.2.2.5.1.7-.3.8-.6 1.5-.9 2.3.1.1.2.1.4.2z"/><path d="m44.7 11.5c.9-.2 1.8-.4 3-.6-.5 1.5-2.2.7-2.8 1.7 1 .8 2.3-.8 3.2 0v .4c-1.2.3-2.3.6-3.5.8-.2 0-.6-.3-.7-.5-.3-1-.5-1.9-.7-3l3.6-.9c.2 0 .4.2.6.3-.2.2-.3.4-.5.5-.8.3-1.6.5-2.3.7.1.3.1.4.1.6z"/><path d="m14 77.8c-.4-.8-.7-1.5-1-2.2-.4.1-.8.2-1.2.3-.1-.3-.3-.5-.6-1 1.1-.5 2.2-1 3.3-1.4.3-.1.7.3 1 .4-.1.1-.2.3-.4.4-.3.2-.6.4-1.1.7.3.8.7 1.5 1 2.3.7-.1 1.6-.7 1.7.7-.8.4-1.7.7-2.5 1.2-.7.4-1.1.2-1.2-.6.2-.2.6-.5 1-.8z"/><path d="m12.1 53.4c-.1.5-.2 1.1-.2 1.6 0 1-.5 1.4-1.6 1.4-2.2 0-2.5-.4-2.3-2.6.1-.6.1-1.2.3-1.8.1-.2.5-.3.8-.4.1.3.2.6.2.9-.1.6-.3 1.1-.4 1.6-.1.6.2 1.1.9 1.1.7.1 1.2-.2 1.2-.9 0-.5-.1-1.1-.1-1.6 0-.4-.1-.7-.1-1.1 0 0 .4-.2.5-.1.3.2.5.5.7.9.1.3 0 .7.1 1-.1 0-.1 0 0 0z"/><path d="m33.6 100.2c-.4-.2-.7-.4-1.1-.6.6-1.1 1.1-2.1 1.6-3 1 .4 1.9.8 2.8 1.2 1.2.6 1.4 1.3.8 2.6-.2.5-.5 1-.7 1.4-1.3-.2-1.3-.3-.8-1.4.3-.5.9-1.1.2-1.8s-1.4-.6-1.9.2c-.4.4-.6.9-.9 1.4z"/><path d="m81.3 95.1c.4-.3.7-.5.9-.7 1.1.2 1.2 2.6 2.8 1.2 1.5-1.2-.5-1.8-.6-2.9l.8-.8c.8 1 1.4 1.9 2.2 2.8-.9.8-1.8 1.6-2.7 2.3-.7.5-1.4.4-2-.3-.4-.4-.8-.9-1.4-1.6z"/><path d="m13.3 46c-1.5 1.5-1.7 3.3-1.1 5.3-.1 0-.2 0-.4 0-.9-.7-1.8-1.4-2.7-2.2-.6-.5-.5-2 .2-2.2 1.2-.4 2.4-.8 3.6-1.1.2.1.3.1.4.2zm-3.8 2c .7.5 1 .7 1.6 1.1.1-.6.2-1 .3-1.6-.7.1-1.1.3-1.9.5z"/><path d="m13.1 67.7c-.4 1.9-.1 3.7 1.5 5-.1.1-.2.2-.3.3-1.3-.3-2.5-.4-3.7-.8-.6-.2-.8-1.6-.3-2.1.8-.9 1.5-1.7 2.3-2.6.1.1.3.2.5.2zm-2.5 3.6c.8.1 1.3.2 1.9.2-.2-.6-.3-1-.5-1.6-.5.5-.8.8-1.4 1.4z"/><path d="m77.9 16.2c-.3.4-.5.6-.8 1-.3-.1-.6-.3-1-.4.6-1.2 1.2-2.2 1.8-3.4 1.2.7 2.4 1.3 3.5 1.9 0 .2-.1.3-.1.5-.4-.1-.8-.1-1.2-.2-.6-.2-1.2-.4-1.8-.6.5.4.9.8 1.4 1.3.2.2.4.5.6.7-.3 0-.7.1-1 0-.3-.2-.8-.5-1.4-.8z"/><path d="m28.8 18.8c-.1-.2-.2-.3-.2-.4 0-.3 0-.6 0-.9.3.1.6.1.7.3.6.8 1.2 1.6 1.8 2.4-.6.6-1.2 1.1-1.8 1.6-.7.5-1.3.5-1.9-.2s-.6-1.4.2-2c .3-.3.7-.5 1.2-.8zm1.2 1.5c-.4-.4-.8-.8-.9-.7-.4.2-.7.6-1.1.9.2.3.5.8.7.7.4-.2.8-.5 1.3-.9z"/><path d="m44.2 104.6c-.4-.1-.7-.2-1.2-.4.2-1 .4-1.9.7-2.7.1-.2.5-.5.8-.5.6 0 1.3.2 1.9.4.4.2.9.4 1.2.8.1.2-.1.7-.2 1-.3-.1-.7-.1-.9-.3-1.1-1.1-1.5-1-2 .5 0 .4-.1.8-.3 1.2z"/><path d="m95.7 27.9c.7 1 1.5 2.1 2.2 3.2.1.2 0 .6 0 .9-.2-.1-.5-.2-.7-.3-.2-.2-.4-.5-.6-.8-.6.4-1.2.8-1.8 1.1-.2.1-.6-.1-1-.1.1-.3.1-.6.3-.8.2-.3.5-.4.9-.6.7-.4.9-.8.4-1.5-.2-.2 0-.6 0-1 0 0 .2 0 .3-.1z"/><path d="m62.8 105.4c-.1.1-.4.5-.6.5s-.7-.3-.7-.6c-.2-1.2-.4-2.4-.4-3.6 0-.3.3-.6.5-.9.3.2.7.4.8.7.1 1.3.2 2.5.4 3.9z"/><path d="m23.4 23.4c2.2-2.7 2.6-2.7 4.4-.3-.5 0-.9.1-1.2 0-.5-.3-.8-1.2-1.6-.4s.1 1.2.4 1.7c.1.1.1.2.2.3-.6.7-.8.6-2.2-1.3z"/><path d="m63.2 102.3c.8-.4 1.3-.2 1.4.7.1.7.3 1.3.2 2 0 .3-.4.5-.6.8-.2-.2-.6-.4-.6-.6-.2-1.1-.3-2-.4-2.9z"/><path d="m32.8 19.1c-.5-.9-1.1-1.7-1.6-2.7-.1-.2.2-.7.4-1.1.1 0 .2 0 .4.1.5.8 1 1.6 1.5 2.5.4.7.4.7-.7 1.2z"/><path d="m99 33.3c-.9.5-1.7 1.1-2.6 1.5-.2.1-.6-.1-.9-.1.1-.3.1-.7.3-.9.6-.4 1.3-.7 1.9-1.1.7-.5 1.1-.3 1.3.6z"/><path d="m20.4 32.5c-.6-.4-1.1-.8-1.6-1.2.3-.5.4-1.1 1.2-.6.9.7 1 .9.4 1.8z"/><path d="m63 100.8c.3-.1.7-.1 1.3-.3-.3.5-.4.9-.5 1-.3.1-.6-.2-.9-.3.1-.2.1-.3.1-.4z"/><path d="m67.5 104.3c-.4-.6-.6-.9-.8-1.2.5-.3 1.1-.8 1.6-1 .1-.1.5.6.8.9-.5.4-1 .8-1.6 1.3z" fill="#fff"/><path d="m58.3 105.6c-.9-.2-1.4-.4-1.4-1.2 0-.9.8-.9 1.4-.9s1.2.2 1 .9c-.1.5-.6.8-1 1.2z" fill="#fff"/><path d="m100 72.7c.2-.7.5-1.5.7-2.2.2.1.3.1.5.2-.2.7-.4 1.5-.7 2.2-.1-.1-.3-.2-.5-.2z" fill="#fff"/><path d="m101.4 73.1c.2-.7.4-1.4.6-2.2.2 0 .3.1.5.1-.2.7-.4 1.4-.6 2.2-.2 0-.4-.1-.5-.1z" fill="#fff"/><path d="m52.5 102.9c.5.7 1.1 1 1.1 1.4.1.9-.6.9-1.3.8-.6 0-1.3-.2-1.1-1 .2-.3.7-.6 1.3-1.2z" fill="#fff"/><path d="m32.3 96.4c-.7.5-1.2 1-1.4.9-.6-.3-1-.8-1.5-1.3.3-.3.8-1 1-.9.6.3 1.1.8 1.9 1.3z" fill="#fff"/><path d="m89.3 22.4c-.4.5-.6.9-.9 1.1-.2.1-.7 0-.9-.2-.5-.4-.9-.8-1.2-1.4-.1-.2.3-.8.6-1 .2-.1.7-.1.9.1.5.3.9.8 1.5 1.4z" fill="#fff"/><path d="m41.9 101.7c-.3.3-.8.9-1 .8-.6-.2-1.1-.7-1.6-1 .3-.3.6-1 .9-1 .6.1 1.2.5 1.7.7z" fill="#fff"/><path d="m10.9 59.9c.1.8-.2 1.2-1 1.2-1.3 0-.8-.9-.9-1.5-.1-.7 0-1.3.9-1.4 1.3 0 .9 1 1 1.7z" fill="#fff"/><path d="m16.5 32.1c-.4.7-.7 1.4-1.1 2.1-.1-.1-.3-.2-.4-.3.3-.8.4-1.7 1.5-1.8z" fill="#fff"/><path d="m102.5 42.3c-.4.1-.8.3-.9.3-.4-.6-.7-1.2-1-1.8 0-.1.2-.4.4-.5.4.5.8 1 1.5 2z" fill="#fff"/><path d="m82.9 17.1c.6.6 1.1 1 1.7 1.5-.2.2-.5.5-.5.4-.6-.4-1.1-.8-1.7-1.3.1-.1.2-.3.5-.6z" fill="#fff"/><path d="m74.6 13c-.5.3-.8.6-.9.6-.6-.3-1.3-.6-1.9-.9.2-.2.4-.5.5-.5.7.1 1.3.4 2.3.8z" fill="#fff"/><path d="m10.9 65.8c-.3.3-.4.5-.6.7-.3-.5-.6-1-.8-1.6-.1-.2.3-.5.4-.8.3.6.6 1.1 1 1.7z" fill="#fff"/><path d="m42 12.6c-.6.3-1 .6-1.5.7-.3.1-.7 0-1 0 0 0-.1-.5 0-.5.6-.3 1.3-.5 1.9-.7.1 0 .3.2.6.5z" fill="#fff"/><path d="m34.9 16c-.2-.3-.4-.5-.5-.7.6-.4 1.2-.8 1.8-1.1.1 0 .4.3.5.4-.6.5-1.2.9-1.8 1.4z" fill="#fff"/><path d="m67.6 10.5c.2.7.3 1.1.5 1.7-.6-.1-1-.2-1.7-.3.4-.5.7-.8 1.2-1.4z" fill="#fff"/><path d="m9.5 48c .8-.2 1.2-.3 1.8-.5-.1.6-.2 1-.3 1.6-.5-.4-.9-.6-1.5-1.1z" fill="#fff"/><path d="m10.6 71.3c.6-.6.9-.9 1.4-1.3.2.6.3 1 .5 1.6-.6-.2-1.1-.2-1.9-.3z" fill="#fff"/><path d="m30 20.3c-.6.4-.9.7-1.3.9-.1 0-.5-.5-.7-.7.4-.3.7-.7 1.1-.9.1-.1.5.3.9.7z" fill="#fff"/><path d="m57.6 4.3c-29.2-.5-52.7 22.8-53.2 51.4-.5 29.5 23 52.9 51.4 53.4 29.7.5 53.3-23.4 53.4-52.3-.1-28.8-23-52.1-51.6-52.5zm18.1 46.8c-4.4-3.4-8.9-6.6-14.2-8.3-1.8-.6-1.8-.6-1.8-2.5 0-.7 0-1.4 0-2.1 0-1.1.3-1.4 1.3-1 1.5.6 3.1 1.2 4.5 2 3.6 1.9 6.5 4.6 9.5 7.3 2 1.8 4 3.7 6 5.6.6.5 1.2 1 1.9 1.4 1 .7 2 .7 3.1.1.6-.3 1.3-.6 1.9-.8 1.6-.3 2.6 1 2 2.5s-2.3 2.4-3.8 1.8c-1.8-.7-3.6-1.7-5.3-2.6-.7-.4-1.2-.4-1.8.1-5.1 4.3-10.3 8.5-15.4 12.7-.4.4-.9.7-1.5 1.2-.5-1.8 0-2.8 1.2-3.8 4.7-3.7 9.2-7.6 13.8-11.3.2-.2.4-.3.8-.6-.9-.7-1.6-1.2-2.2-1.7zm-15.2 21.7c-.7-.5-1.2-.8-1.8-1.3 0 .6-.1 1-.1 1.4v5.6c0 .8-.3 1-1 1-2.9-.1-2.4.3-2.5-2.4 0-1.8 0-3.5 0-5.3 0-.1-.1-.1-.2-.3-.5.4-1 .7-1.7 1.1 0-.5-.1-.8-.1-1.1 0-2.6 0-5.2 0-7.8 0-.9.2-1.5.9-2 1-.7 1.2-1.6 1.2-2.8-.1-8.5 0-17.1 0-25.6 0-.5 0-1 0-1.6-.7.1-1.2.2-2 .3 1.2-3.4 2.3-6.7 3.4-10h .3c1.2 3.3 2.3 6.6 3.5 10-.7-.1-1.2-.2-1.9-.3 0 .6-.1 1.1-.1 1.5v25.7c0 1.1.2 2.1 1.2 2.7.8.5.9 1.3.9 2.1zm-2-57.6c18.3.7 32 13.3 36.8 26.1-.2 0-.3 0-.5-.1-1.9-.6-3.2-.1-4.1 1.7-.4.9-1 1.1-1.9 1.1-4.5 0-9 0-13.4 0-.7 0-1.5-.3-2.1-.7-2.7-1.8-5.3-3.7-7.9-5.6-.4-.3-.7-.7-.9-1.1-1.9-4.9-3.8-9.8-5.6-14.7-.2-.4-.1-1.1.2-1.5 1.2-2.2 1.1-3.4-.6-5.2zm14.7 45.8c1.9-1.7 4-3.3 5.9-5 .5-.5.9-.3 1.5 0 1.7.8 3.4 1.9 5.3 2.4 2.8.8 5.5-1.5 5.3-4.3-.1-1.6-1.1-2.7-2.7-2.6-1.1.1-2.1.5-3.1.8-.5.1-1.1.2-1.7.3 0-.1-.1-.3-.1-.4.7-.5 1.4-1.1 2.1-1.6 1.6-1.2 3.2-2.5 4.8-3.7.3-.2.9-.3 1.2-.2 2.4 1 3.4.8 4.8-1.4 1.8 4.6 2.6 13.6.4 21.9-2.3 8.5-6.8 15.5-13.6 21.3.3-2.9-.2-3.7-2.9-4.7-.4-.1-.8-.5-.9-.9-2.3-6.8-4.5-13.7-6.7-20.6-.1-.3.1-1 .4-1.3zm-45.3-34.2c7.6-7.2 16.6-11.1 27.1-11.6-1.9 2.3-1.9 3-.2 5.4.2.3.3.8.2 1.1-1.8 4.9-3.7 9.8-5.6 14.6-.2.4-.6.8-.9 1.1-2.6 1.9-5.3 3.7-7.9 5.5-.7.5-1.7.9-2.5.9-4.6.1-9.1 0-13.7.1-.7 0-1.1-.2-1.5-.8-1.2-2.1-2.1-2.5-4.7-1.8 2.2-5.6 5.5-10.5 9.7-14.5zm8.5 21.6c3.5-3.2 6.9-6.5 11-8.9 1.6-1 3.4-1.7 5.2-2.4 1.1-.4 1.3-.2 1.3.9 0 1.3.4 2.8-.2 3.8-.5.8-2.1 1-3.3 1.4-5.3 2.1-9.8 5.5-14.2 9.1-.1.1-.2.2-.3.4 2.4 2 4.7 3.9 7 5.8 2.5 2 4.9 4.1 7.4 6.1 1.3 1 1.7 2.1 1.2 3.9-2.4-2-4.7-3.9-7-5.8-3.3-2.7-6.6-5.4-9.8-8.1-.6-.5-1.1-.6-1.8-.1-1.7 1-3.5 1.9-5.3 2.6-1.4.6-3.1-.2-3.7-1.6-.3-.6-.3-1.6 0-2 .4-.5 1.3-.6 2-.7.5 0 1.1.3 1.6.6 1.3.7 2.5.6 3.6-.3 1.8-1.4 3.6-3 5.3-4.7zm16.9 26.1c.1-.1.3-.1.6-.3 0 1.5.1 2.8 0 4.1-.1 1.2.2 2.1 1.2 2.8.5.4.9 1.1 1.3 1.7 2-1.6 3.9-2.8 3.4-5.6-.2-1 0-2 0-3.2.5.3.8.4 1 .6 5.1 3.4 10.3 6.8 15.4 10.2.5.3.9.6.9 1.4-.2 2.7.7 3.7 3.4 4.2-11.8 9.3-32.4 11.1-47.6 0 3-.6 3.7-1.4 3.6-4.4 0-.3.2-.8.5-.9 5.4-3.4 10.9-7 16.3-10.6zm-36.4-29.4c.2.2.3.4.4.6 1 1.6 2.4 2.1 4.1 1.2.9-.5 1.4-.3 2.1.3 2 1.7 4.1 3.4 6.1 5.1 0 .1-.1.2-.1.4-.4-.1-.9-.1-1.3-.2-.8-.3-1.6-.7-2.4-.8-2.6-.5-4.2 1.5-3.4 4 .7 2.2 3.1 3.6 5.4 2.9 1.7-.5 3.3-1.4 4.9-2.2.7-.4 1.2-.4 1.9.1 1.6 1.4 3.3 2.7 4.9 4.1.3.3.6 1 .5 1.4-1.9 7.1-3.9 14.1-6 21.1-.1.4-.6.8-1 .9-2.5.8-3.3 2-2.8 4.6-13.3-10.7-17.8-29.1-13.3-43.5z" fill="#fde130"/><g fill="#2b6282"><path d="m14.2 80.3-.6-1.2 1.3-.6-1.2-2.5-1.3.6-.5-1.1 3.6-1.8.6 1.2-1.3.6 1.2 2.5 1.3-.6.6 1.2z"/><path d="m13.9 69.3-.5.5.8 2.5.8.1.4 1.3-4.5-.7-.6-1.8 3.1-3.3zm-1.2 1.2-1.2 1.2.1.2 1.7.2z"/><path d="m13.5 67.9-3.9.8-.6-2.9c-.1-.7-.2-1.1-.2-1.2s0-.3.1-.4c.1-.2.2-.3.3-.4s.4-.2.7-.2c.3-.1.5-.1.6-.1s.3.1.4.1c.1.1.2.2.3.4 0-.3 0-.5.1-.6s.1-.1.2-.2c.1 0 .3-.1.7-.2l.4-.1.2 1.2h-.2c-.2 0-.4.1-.5.1s-.2.1-.2.1c0 .1-.1.1-.1.2s0 .2.1.5l.3 1.7 1-.2zm-2.2-.8-.4-1.7c-.1-.3-.1-.5-.1-.5 0-.1 0-.1-.1-.1 0 0-.1-.1-.2-.1s-.2 0-.3 0-.2.1-.3.1v.1.2s0 .2.1.5l.3 1.7z"/><path d="m12.4 62.7-4 .3-.2-2.9c0-.5-.1-.8-.1-1s0-.3 0-.5c.1-.4.3-.7.6-.8.1-.1.3-.1.4-.1s.4-.1.7-.1h.8s.4 0 .5.1c.4.1.6.3.7.7.1.2.1.4.1.6s.1.5.1 1zm-1.1-1.2-.1-1.7c0-.3-.1-.5-.1-.7 0-.1-.1-.2-.1-.3-.1-.1-.2-.1-.3-.1s-.3 0-.6 0c-.2 0-.4 0-.6.1-.1 0-.2.1-.3.1-.1.1-.1.2-.1.3s0 .4 0 .8l.1 1.7z"/><path d="m10.7 53.1.1-1.2h.4c.3 0 .5.1.7.2s.3.3.4.6.1.8 0 1.5c0 .8-.1 1.3-.1 1.6s-.1.6-.2.7-.2.2-.3.3-.3.1-.5.1-.5 0-1 0-.8 0-1-.1c-.2 0-.4-.1-.5-.1-.2-.1-.4-.4-.5-.7s-.1-1 0-2.1c0-.5.1-.9.1-1.1s.1-.4.2-.6.2-.3.4-.4.4-.1.8-.1h.2l-.1 1.2c-.1 0-.2 0-.3 0 0 0-.1 0-.1.1 0 0-.1.2-.1.4s-.1.5-.1.9 0 .6 0 .8c0 .1 0 .3.1.3.1.1.2.1.3.2.1 0 .4.1.7.1s.5 0 .6 0 .2-.1.3-.1c.1-.1.1-.2.1-.3s0-.4.1-.8c0-.5 0-.8 0-.9 0-.2 0-.3-.1-.3-.2-.1-.4-.2-.6-.2z"/><path d="m13.1 47.4-.7.2-.5 2.6.6.5-.2 1.4-3.6-2.8.3-1.9 4.3-1.4zm-1.7.5-1.6.5v.2l1.4 1z"/><path d="m12.1 45.7.3-1.1c.2.1.3.1.4 0 .1 0 .1-.1.1-.2s.1-.4.3-.8c.1-.5.2-.8.3-.9 0-.1 0-.2 0-.3s-.1-.2-.3-.2c-.1 0-.2 0-.3 0s-.1.2-.2.4c0 .1-.1.4-.3.9s-.3.8-.3.9c-.1.3-.2.5-.3.6s-.2.2-.3.3c-.2.1-.5.1-.9 0s-.7-.3-.8-.5-.1-.4-.1-.7.2-.8.4-1.6c.2-.6.3-1 .4-1.2.2-.3.3-.6.5-.6.2-.1.5-.1.8 0 0 0 .1 0 .2.1l-.3 1.1c-.1 0-.2 0-.2 0s-.1 0-.1.1c0 0-.1.1-.1.3 0 .1-.1.4-.3.8-.2.5-.2.8-.2.9s.1.2.2.2.2 0 .3-.1.2-.5.4-1.2c.2-.6.4-1 .4-1.2.1-.2.2-.4.3-.5s.3-.2.4-.2.4 0 .7.1c.4.1.6.2.8.4.1.1.2.2.2.4s0 .3 0 .6c-.1.3-.2.7-.4 1.4-.2.6-.3 1-.4 1.3s-.2.5-.3.6-.3.2-.4.2c-.2 0-.4 0-.6-.1z"/><path d="m11.2 39.5 1.7-4.1.9.4-1.3 3 .5.2 1.2-2.8.8.3-1.1 2.9.6.3 1.3-3 .9.4-1.8 4z"/><path d="m15.5 36.2.6-1c .2.1.3.1.4.1s.1-.1.2-.2.2-.3.4-.8c.3-.5.4-.7.4-.8s.1-.2.1-.2c0-.1-.1-.2-.2-.3s-.2-.1-.3 0c-.1 0-.1.1-.2.3-.1.1-.2.4-.5.8s-.4.7-.5.8c-.2.3-.3.4-.4.5s-.2.2-.4.2-.5 0-.9-.2-.6-.5-.7-.7 0-.4.1-.7.4-.7.8-1.5c.3-.5.5-.9.7-1.1.2-.3.4-.5.6-.5s.5 0 .8.2c0 0 .1 0 .2.1l-.6 1c-.1-.1-.2-.1-.2-.1h-.1c-.1 0-.1.1-.2.2s-.2.4-.4.7c-.3.5-.4.7-.4.9s0 .2.2.3c.1.1.2.1.3 0s .3-.4.7-1.1c.3-.6.6-.9.7-1.1s.3-.3.4-.4.3-.1.5-.1.4.1.6.2c.3.2.6.4.7.5s.1.3.1.4-.1.3-.2.6c-.3.6-.5 1-.9 1.6-.3.5-.5.9-.7 1.1s-.3.4-.5.5c-.1.1-.3.1-.5.1s-.4-.1-.7-.3z"/><path d="m18.4 31.6.7-1.1 1 .7c.2.1.4.3.4.3.1.1.1.2.2.3v.4c0 .1-.2.3-.3.6-.1.1-.1.2-.2.3l-.5-.4v-.1l.1-.1c.1-.1.1-.2.1-.2 0-.1-.1-.1-.2-.2l-.1-.1-.2.3z"/><path d="m20.1 26.9-.7.9c-.2-.2-.4-.4-.5-.5-.2-.2-.3-.5-.2-.7 0-.2.1-.4.3-.6s.4-.5.8-1c .5-.6.9-1 1-1.2.2-.2.3-.3.5-.3.2-.1.3-.1.5 0s .4.2.6.4l.4.4s.1.2.2.3v.4c-.1.2-.2.5-.5.8-.5.7-.8 1.1-1 1.3-.1.2-.2.3-.2.4s0 .1 0 .1.1.1.2.2l2.4-2.8.7.6-3.1 3.6c-.1-.1-.2-.2-.4-.3-.3-.3-.6-.5-.7-.7-.2-.3-.3-.6-.1-1 .1-.1.1-.3.2-.4s.3-.4.6-.9.5-.7.6-.8.1-.2.1-.2c0-.1 0-.1 0-.2 0 0-.1-.1-.1-.2-.1-.1-.2-.1-.2-.1-.1 0-.1 0-.2 0s-.3.3-.6.7c-.3.3-.5.6-.6.7s-.2.2-.2.3c0 0 0 .1.1.1s0 .6.1.7z"/><path d="m22.8 23.4.7-.7.3.3c-.1-.2 0-.4 0-.6.1-.2.2-.4.5-.6.2-.2.5-.4.6-.5.2-.1.4-.1.5-.1.2 0 .4.1.5.1l.6.6.9.9-.8.7-.7-.9c-.2-.2-.3-.3-.3-.3-.1 0-.1-.1-.2-.1s-.4.1-.6.4c-.3.3-.4.5-.4.6s0 .2.1.3.2.2.3.4l.8.8-.8.7z"/><path d="m28.5 17 2.5 3.2-.8.6-.3-.3v.4c-.1.2-.3.5-.7.8-.3.2-.6.4-.7.5-.2.1-.4.1-.5.1-.2 0-.3-.1-.4-.2s-.3-.3-.5-.6c-.1-.2-.3-.4-.3-.5-.1-.1-.1-.3-.1-.4 0-.2 0-.5.2-.7.1-.2.4-.4.7-.6s.5-.4.7-.4c.2-.1.3 0 .5 0l-.9-1.2zm-.4 2.7c-.3.3-.5.5-.6.6 0 .1 0 .3.2.5.1.2.2.3.3.3.1.1.2.1.3 0 .1 0 .3-.2.6-.3.3-.2.5-.4.6-.6 0-.1 0-.1 0-.2s-.1-.2-.2-.3c-.1-.2-.2-.3-.3-.3s-.2-.1-.3 0c-.2 0-.3.1-.6.3z"/><path d="m30.4 15.7 1.1-.7 2.1 3.4-1.1.7z"/><path d="m34 18.2-1.8-3.6 2.6-1.3c.6-.3 1-.5 1.1-.5s.3-.1.4-.1c.2 0 .3.1.5.2.1.1.3.3.4.6s.2.5.2.6 0 .3 0 .4c-.1.1-.2.3-.4.4.2-.1.4-.1.6-.1.1 0 .2.1.2.2s.2.3.3.6l.2.3-1.1.5-.1-.2c-.1-.2-.2-.3-.2-.4-.1-.1-.1-.1-.2-.2-.1 0-.1 0-.2 0s-.2.1-.5.2l-1.5.8.5.9zm.2-2.4 1.5-.8c.3-.1.4-.2.5-.3l.1-.1c0-.1 0-.1 0-.2s0-.2-.1-.3-.1-.2-.2-.2-.1-.1-.2-.1c0 0-.1 0-.2 0s-.2.1-.5.2l-1.5.8z"/><path d="m38.8 15.7-1.4-3.8 2.8-1c .6-.2 1-.4 1.2-.4h.4c.2 0 .3.1.4.2s.2.4.3.7.2.5.2.6 0 .3-.1.4-.2.2-.4.3c.2-.1.4-.1.6 0 .1 0 .2.1.2.2.1.1.1.3.3.6l.1.3-1.1.4-.1-.2c-.1-.2-.1-.4-.2-.4 0-.1-.1-.1-.2-.2-.1 0-.1 0-.2 0s-.2.1-.5.2l-1.6.6.4 1zm .4-2.3 1.6-.6c.3-.1.4-.2.5-.2s.1-.1.1-.1.1-.1.1-.2 0-.2-.1-.3c0-.1-.1-.2-.1-.3s-.1-.1-.2-.1c0 0-.1 0-.2 0s-.2.1-.5.2l-1.6.6z"/><path d="m42.7 10 4.3-1.1.2.9-3.1.8.1.6 3-.8.2.9-3 .8.2.6 3.2-.8.2.9-4.3 1.1z"/><path d="m50.5 10.2 2.8-.4v.1c.1.6.1 1 .1 1.3 0 .5-.2.8-.7.9-.2.1-.4.1-.7.2-.3 0-.7.1-1.2.2-.7.1-1.2.1-1.5.1s-.5 0-.7-.1c-.1-.1-.2-.1-.3-.3-.1-.1-.1-.3-.2-.5 0-.2-.1-.5-.2-1.1 0-.4-.1-.6-.1-.8s0-.4 0-.5c.1-.3.3-.5.7-.7.4-.1 1-.2 1.9-.4.5-.1.9-.1 1.2-.1s.5 0 .7 0c .3.1.5.2.6.5.1.2.1.4.1.6l-1.2.2c0-.1 0-.2 0-.2s0-.1-.1-.1-.2 0-.4 0-.5 0-.9.1-.7.1-.9.1-.3.1-.4.2-.1.2-.1.3 0 .3 0 .6.1.6.1.7.1.2.2.3c.1 0 .2.1.3.1s.4 0 1-.1.9-.1 1-.1.2-.1.3-.1.1-.1.1-.1c0-.1 0-.1 0-.3v-.1l-1.6.2z"/><path d="m53.8 8h1.2v1.8.8c0 .2.1.3.3.3s.5.1 1 .1h.9s.3-.1.3-.1.1-.1.1-.2 0-.2 0-.4 0-.3 0-.4v-1.8h1.2v1.8c0 .6 0 1.1-.1 1.3 0 .3-.2.6-.5.7-.2.1-.4.2-.7.2s-.7.1-1.4.1c-.5 0-.9 0-1.1 0-.3 0-.5 0-.7-.1-.4-.1-.7-.4-.8-.8 0-.2 0-.3-.1-.4 0-.1 0-.4 0-.9z"/><path d="m59.9 8.1 1.3.1-.3 3 2.8.3-.1 1-4.1-.4z"/><path d="m68.3 13.5-.2-.7-2.6-.6-.5.6-1.4-.3 3-3.4 1.9.4 1.2 4.4zm-.4-1.7-.4-1.7-.2-.1-1.1 1.3z"/><path d="m69.7 13.9 1.4-3.8 2.8 1c .7.2 1 .4 1.2.4.1.1.2.1.3.3.1.1.2.3.2.5s-.1.4-.2.7-.2.5-.3.6-.2.2-.4.2c-.1 0-.3 0-.5 0 .2.1.4.2.4.4v.3s-.1.3-.2.7l-.1.4-1.1-.4.1-.2c.1-.2.1-.4.1-.5s0-.2 0-.2c0-.1-.1-.1-.1-.1-.1 0-.2-.1-.5-.2l-1.6-.6-.3 1zm1.8-1.5 1.6.6c.3.1.5.2.5.2h.2s.1 0 .2-.1c0-.1.1-.1.1-.3 0-.1.1-.2.1-.3s0-.1-.1-.2l-.1-.1c-.1 0-.2-.1-.5-.2l-1.6-.6z"/><path d="m77.9 12.8 3.7 2-.4.8-2.7-1.4-.4.7 2.5 1.3-.4.8-2.5-1.3-.7 1.2-1.1-.6z"/><path d="m79.9 18.4 2.3-3.3 2.4 1.7c.6.4.9.6 1 .7s.2.2.3.3c.1.2.1.3 0 .5 0 .2-.2.4-.4.7-.2.2-.3.4-.4.5s-.2.1-.4.2c-.1 0-.3 0-.5-.1.2.2.3.3.3.5 0 .1 0 .2-.1.3 0 .1-.2.3-.4.6l-.2.3-1-.7.1-.2c.1-.2.2-.3.2-.4s.1-.2 0-.2c0-.1 0-.1-.1-.2s-.2-.2-.4-.3l-1.4-1-.3.8zm2.1-1 1.4 1c .3.2.4.3.5.3s.1 0 .1 0c .1 0 .1 0 .2-.1.1 0 .1-.1.2-.2s.1-.2.1-.3 0-.1 0-.2l-.1-.1s-.2-.1-.4-.3l-1.4-1z"/><path d="m89 20.1c.6.6 1.1 1 1.3 1.2.3.4.4.7.2 1.1-.1.2-.4.6-.8 1.1s-.7.8-1 .9c-.3.2-.7.2-1.1-.1-.3-.2-.7-.6-1.4-1.1-.7-.6-1.1-1-1.3-1.2-.3-.4-.4-.7-.2-1.1.1-.2.4-.6.8-1.1s.7-.8.9-.9c.3-.2.7-.2 1.1.1.4.2.8.5 1.5 1.1zm-.7.8c-.5-.4-.8-.7-.9-.7-.1-.1-.3-.1-.4 0s-.3.3-.6.6c-.2.2-.3.3-.3.4-.1.2-.1.4.1.6.1.1.4.4.8.7s.6.5.8.6.3.1.3.2c.1 0 .2 0 .3-.1s.2-.2.4-.4.3-.4.4-.5.1-.2.1-.3 0-.2-.1-.3c-.2-.2-.5-.4-.9-.8z"/><path d="m91.7 22.6 1.4 1.6-.9 3.5.1.1 2.2-2 .8.9-3 2.6-1.4-1.6.9-3.6-.1-.1-2.2 2-.8-.9z"/><path d="m95.7 27.3 2.7 4-.8.6-1-1.5-2.5 1.7-.7-1.1 2.5-1.7-1-1.5z"/><path d="m98.6 31.8.6 1.1-3.5 2-.6-1.1z"/><path d="m99.7 33.6 1.9 4-.8.4-1.4-2.9-.5.3 1.3 2.8-.8.4-1.3-2.8-.6.3 1.4 2.9-.9.4-1.9-4z"/><path d="m98.1 39.6 3.8-1.3 1 2.8c.2.7.4 1 .4 1.2v.4c0 .2-.1.3-.3.4-.1.1-.4.2-.7.3s-.5.2-.6.2-.3 0-.4-.1-.2-.2-.3-.4c.1.2.1.4 0 .6-.1.1-.1.2-.2.2s-.3.1-.6.3l-.4.1-.4-1.1.2-.1c.2-.1.4-.1.4-.2.1 0 .1-.1.2-.2 0-.1 0-.1 0-.2s-.1-.2-.1-.5l-.6-1.6-1 .3zm2.3.5.6 1.6c.1.3.2.4.2.5s.1.1.1.1.1.1.2.1.2 0 .3-.1c.1 0 .2-.1.3-.1s.1-.1.1-.2c0 0 0-.1 0-.2s-.1-.2-.2-.5l-.6-1.6z"/><path d="m101.1 44.2.3 1.2c-.2 0-.3.1-.3.2v.2c0 .1.1.4.2.9s.2.8.2.9.1.2.1.2c.1.1.2.1.3.1s.2-.1.2-.1 0-.2 0-.4c0-.1-.1-.5-.2-.9-.1-.5-.1-.8-.2-1-.1-.3-.1-.5-.1-.7s.1-.3.1-.4c.1-.2.4-.3.8-.4s.8-.1 1 0 .3.3.4.5.2.8.4 1.6c.1.6.2 1 .2 1.2 0 .4 0 .6-.1.8s-.4.3-.7.4c0 0-.1 0-.2 0l-.3-1.2c.1 0 .2-.1.2-.1l.1-.1c0-.1 0-.2 0-.3s-.1-.4-.2-.8c-.1-.5-.2-.8-.3-.9s-.2-.1-.3-.1-.2.1-.2.2.1.5.2 1.3c.1.6.2 1.1.2 1.3s0 .4 0 .5c-.1.2-.2.3-.3.4s-.3.2-.6.2c-.4.1-.7.1-.9 0-.1 0-.3-.1-.4-.2s-.2-.3-.3-.5c-.1-.3-.2-.7-.4-1.4-.1-.6-.2-1-.2-1.3s0-.5 0-.7c.1-.2.1-.3.3-.4.1-.1.3-.2.6-.2z"/><path d="m105 49.2.2 2.2-2.5 1.4 2.7 1 .2 2.2-4 .3-.1-1.2 3-.2v-.2l-3.1-1.3-.1-1 2.9-1.8v-.2l-3 .3-.1-1.2z"/><path d="m105.5 57-.2 4.4h-.9l.2-3.2h-.6l-.2 3.1h-.9l.2-3.1h-.6l-.2 3.3h-1l .2-4.5z"/><path d="m105.2 62.2-.4 2.1-3.3 1.6v.1l3 .5-.2 1.2-4-.7.4-2.1 3.3-1.6v-.1l-3-.5.2-1.2z"/><path d="m99.8 68.9 3.8 1.3-.9 2.7c-.2.6-.3.9-.4 1-.1.2-.2.4-.3.5s-.2.1-.4.1c-.1 0-.3 0-.6-.1s-.5-.2-.6-.3-.1-.3-.1-.5c-.1.2-.2.3-.3.3-.2.1-.5.1-.9 0-.3-.1-.5-.2-.6-.4-.1-.1-.1-.2-.1-.3s0-.3.1-.5c0-.1.2-.5.4-1.2zm.5 1.4-.6 1.6c-.1.3-.2.5-.2.6s0 .1 0 .2.1.2.2.2c.2.1.3 0 .3-.1 0 0 .1-.3.3-.7l.6-1.6zm1.4.5-.6 1.6c-.1.4-.2.6-.2.7s.1.2.2.2c.2.1.3 0 .3-.1 0 0 .1-.2.2-.6l.6-1.6z"/><path d="m101.6 75.7-.9 1.9-3.6.6-.1.1 2.7 1.3-.5 1.1-3.6-1.8.9-1.9 3.6-.6.1-.1-2.7-1.3.5-1.1z"/><path d="m25.2 87.7 1.2 1.1-1.2 1.3 2.6 2.3 1.2-1.3 1.2 1.1-3.3 3.6-1.2-1.1 1.2-1.4-2.6-2.3-1.2 1.4-1.2-1.1z"/><path d="m31.9 94.7c.5.3.9.6 1.1.8s.4.4.4.6c.1.2.1.4 0 .6s-.2.5-.5.9c-.2.3-.3.5-.4.6s-.2.2-.3.3c-.3.2-.6.2-1 .1-.3-.1-.8-.4-1.4-.8s-.9-.6-1.2-.8c-.2-.2-.4-.4-.4-.6-.1-.2-.1-.4 0-.6s.3-.5.5-1c .2-.2.3-.4.4-.5s.2-.2.3-.3c.3-.1.5-.2.9-.1s.9.4 1.6.8zm-.6.9c-.4-.2-.6-.4-.8-.4-.1 0-.2 0-.3.1s-.2.2-.4.4c-.1.2-.2.3-.2.4s0 .2.1.3c.1.2.3.4.7.6.4.3.7.4.9.4s.4-.2.6-.5c.1-.2.2-.4.2-.5s0-.2-.1-.3-.3-.3-.7-.5z"/><path d="m34.3 96.4 1.1.6-.2.5h.1c.2-.2.4-.2.7-.2.2 0 .6.1.9.3.4.2.7.4.9.5s.3.4.4.6.1.4 0 .6c0 .2-.2.5-.4 1l-.7 1.4-1.2-.6.7-1.4c.1-.3.2-.4.2-.5s0-.2 0-.3c-.1-.2-.3-.4-.7-.6s-.7-.3-.9-.2c-.1 0-.2.1-.3.2s-.2.3-.3.6l-.6 1.3-1.2-.6z"/><path d="m41.4 99.5c.6.2 1 .4 1.3.5s.5.3.6.5.2.4.2.6-.1.5-.2 1c-.1.3-.2.5-.3.7s-.2.3-.2.4c-.2.3-.5.4-.9.3-.3 0-.8-.2-1.6-.4-.6-.2-1.1-.4-1.3-.5s-.4-.3-.6-.5c-.1-.2-.2-.4-.1-.6 0-.2.1-.6.3-1.1.1-.3.2-.5.3-.6s.2-.3.3-.4c.2-.2.5-.3.8-.3s.7.1 1.4.4zm-.3.9c-.4-.1-.7-.2-.9-.2-.1 0-.2.1-.3.2s-.2.3-.2.5c-.1.2-.1.4-.1.5s0 .2.1.3.4.3.8.4c.5.2.8.2 1 .2.2-.1.3-.3.4-.6.1-.2.1-.4.1-.5s-.1-.2-.1-.3c-.1-.2-.4-.3-.8-.5z"/><path d="m44.2 100.5 1.2.3-.1.5h.1c.2-.2.4-.3.6-.4.2 0 .5 0 .9.1.5.1.9.3 1 .6s.2.6 0 1.2c0 0 0 .1-.1.2l-1.2-.3c0-.2.1-.3 0-.4 0-.2-.2-.3-.6-.4-.3-.1-.5 0-.7.1-.1.1-.2.2-.2.3-.1.1-.1.3-.2.6l-.3 1.4-1.3-.3z"/><path d="m52.8 102c .6.1 1.1.1 1.3.2.3.1.5.2.7.3s.3.3.3.5 0 .5 0 1c0 .3-.1.6-.1.7 0 .2-.1.3-.1.4-.2.3-.4.5-.8.6-.3 0-.9 0-1.6 0-.7-.1-1.1-.1-1.4-.2s-.5-.2-.7-.3-.2-.3-.3-.6 0-.6 0-1.1c0-.3.1-.5.1-.7 0-.1.1-.3.2-.4.2-.2.4-.4.7-.5.3 0 .9 0 1.7.1zm-.1 1c-.4 0-.7 0-.9 0-.1 0-.2.1-.3.2s-.1.3-.1.5 0 .4 0 .5.1.2.2.2c.2.1.5.2.9.2.5 0 .8 0 1-.1s.2-.3.3-.7c0-.2 0-.4 0-.5s-.1-.2-.2-.3c-.2.1-.5 0-.9 0z"/><path d="m55.7 100.8h1.3l.1 1.9h.1c.1-.2.3-.4.5-.5s.5-.1 1-.1h1.1s.5.1.6.2c.2.1.3.3.4.5s.1.5.1 1v .7s0 .3-.1.4c-.1.3-.3.5-.6.6s-.7.2-1.4.2c-.6 0-1.1 0-1.3-.2-.1-.1-.2-.2-.3-.3h-.1v.5h-1.3zm2.6 2.3c-.5 0-.8.1-.9.2s-.2.1-.2.3v.5c0 .3 0 .4.1.5 0 .1.1.2.3.2.2.1.5.1.9.1.5 0 .8-.1.9-.2s.1-.1.2-.3c0-.1 0-.3 0-.5s0-.4-.1-.5c0-.1-.1-.2-.2-.2-.3-.1-.6-.1-1-.1z"/><path d="m61 100.6 1.3-.1.6 5-1.3.1z"/><path d="m62.9 100.4 1.3-.2.2 1-1.3.2zm.2 1.4 1.3-.2.5 3.5-1.3.2z"/><path d="m68.5 100.7 1.2-.3.8 3.2c.1.3.1.5.1.6s0 .2 0 .4-.1.3-.2.5-.2.3-.4.4c-.3.2-.9.4-1.7.6-.5.1-1 .2-1.2.2s-.5 0-.7-.1c-.3-.1-.5-.4-.6-.8l1.3-.3c.1.1.2.2.3.2s.4 0 .7-.1.6-.2.7-.2l.3-.3c0-.1.1-.2.1-.3s0-.3-.1-.5l-.1-.3c-.1.2-.2.4-.4.5s-.5.2-.9.3-.8.2-1.1.2-.5 0-.7-.1-.4-.2-.5-.4-.2-.5-.3-1-.1-.9-.1-1.2c.1-.3.3-.5.5-.6.3-.2.7-.3 1.3-.4.5-.1.8-.1 1-.1s.4.1.6.3h.1zm-.9 1.2c-.5.1-.8.2-.9.4-.1.1-.1.2-.1.3v.4c.1.2.1.4.2.5s.2.1.3.2c.2 0 .4 0 .8-.1.5-.1.8-.2.9-.4.1-.1.1-.2.1-.3s0-.2-.1-.4c0-.2-.1-.3-.2-.4s-.1-.1-.3-.2c0-.1-.3-.1-.7 0z"/><path d="m74.3 101.4 1.2-.5c.1.4.1.7 0 .9s-.3.4-.6.5c-.3.2-.7.4-1.3.6-.5.2-.9.3-1.1.3-.3 0-.5 0-.7 0-.2-.1-.4-.2-.5-.4s-.3-.5-.4-.9c-.1-.3-.2-.6-.2-.7 0-.2 0-.3 0-.5 0-.3.2-.6.5-.8s.7-.4 1.4-.6c.6-.2 1-.3 1.2-.4.4-.1.8 0 1 .1s.5.5.7 1.1c0 .1.1.2.1.3l-3.3 1.2c.1.2.1.3.2.4 0 .1.1.1.2.1.2 0 .5 0 .9-.2.3-.1.5-.2.6-.3s.2-.1.1-.2c0 .2 0 .1 0 0zm-.4-1c-.1-.1-.1-.2-.1-.3l-.1-.1c-.1-.1-.5 0-.9.2s-.7.3-.8.4-.1.3 0 .5z"/><path d="m76.1 100.7 1.2-.6c.1.1.2.2.4.2s.4-.1.8-.3.6-.3.8-.5c.1-.1.1-.2.1-.3-.1-.1-.2-.1-.3-.1s-.4.2-1 .5-.9.5-1.1.5c-.4.1-.7.1-.9 0s-.3-.3-.4-.5c-.2-.5-.2-.9.1-1.2.2-.2.7-.6 1.6-1 .5-.3.9-.4 1.2-.5s.5-.1.7-.1c.1 0 .2.1.3.2s.2.2.3.4l-1.2.6c-.1-.1-.1-.1-.2-.1s-.4.1-.8.3-.6.3-.7.4-.2.2-.1.3.2.2.4.1.7-.3 1.6-.8c.4-.2.8-.3 1.1-.3s.5.3.7.6c.1.2.2.5.2.6s-.1.4-.2.5c-.2.3-.8.6-1.7 1.1-.6.3-1 .5-1.3.6s-.5.1-.7 0c-.5-.1-.7-.3-.9-.6z"/><path d="m87.3 95.2-1 .7-.3-.4h-.1c0 .2 0 .5-.1.7s-.4.4-.7.7c-.3.2-.6.4-.9.5-.2.1-.5.1-.7.1s-.4-.1-.6-.3c-.2-.1-.4-.4-.7-.8l-.9-1.3 1.1-.8 1 1.3c.2.2.3.4.4.4.1.1.2.1.3.1h.3c.1 0 .3-.1.5-.3.4-.3.5-.5.6-.7 0-.1 0-.2 0-.4-.1-.1-.2-.3-.4-.6l-.8-1.2 1.1-.8z"/><path d="m87.2 93.8 1-.9c.1.1.2.1.4.1.2-.1.4-.2.7-.5s.5-.5.6-.6.1-.3 0-.3c-.1-.1-.2-.1-.3 0-.1 0-.4.3-.9.7s-.8.7-.9.8c-.3.2-.6.3-.9.3-.2 0-.4-.2-.6-.4-.4-.4-.4-.8-.3-1.1s.6-.8 1.3-1.4c.4-.4.8-.7 1-.8.2-.2.4-.2.6-.2.1 0 .2 0 .3.1s.2.2.4.3l-1 .9c-.1 0-.1-.1-.2-.1s-.4.2-.7.5-.5.5-.6.6-.1.2 0 .3.2.1.4 0c .1-.1.6-.5 1.4-1.2.4-.3.7-.5 1-.5s.6.1.8.4c.2.2.3.4.3.6s0 .4-.1.6c-.1.3-.6.8-1.3 1.5-.5.4-.8.7-1.1.9s-.5.2-.7.2c0-.3-.3-.5-.6-.8z"/></g></svg>