<svg enable-background="new 0 0 113.4 113.3" viewBox="0 0 113.4 113.3" xmlns="http://www.w3.org/2000/svg"><circle cx="56.8" cy="56.7" fill="#fff" r="55.5"/><path d="m113.4 56.7c0 31.3-25.4 56.6-56.7 56.6-31.4 0-56.8-25.5-56.7-57 .1-31.2 25.5-56.4 57-56.3 31.1-.1 56.4 25.4 56.4 56.7zm-56.7 55.6c31-.1 55-24.8 55.7-54.1.8-32.4-25.1-56.5-54.1-57.2-32.4-.8-56.7 25-57.3 54.4-.6 31.8 25.2 56.9 55.7 56.9z" fill="#eecc35"/><path d="m56.7 112.3c-30.5.1-56.2-25-55.6-56.9.5-29.4 24.8-55.2 57.2-54.5 29 .7 54.9 24.8 54.1 57.2-.8 29.4-24.7 54.1-55.7 54.2zm-31.8-34c-.1 0-.1 0-.2-.1-.1-.4-.2-.7-.3-1.1-1.8-6.8-2.5-13.6-.4-20.5 2.5-8.1 7.4-13.9 15.2-17.2 5.2-2.2 10.5-2.5 16-.9 2.5.7 4.8 1.7 6.7 3.4 4.7 4 5.8 9.3 5.3 15-.1 1.7-.5 3.4-.9 5.3 1.9-1.3 2.9-2.9 3.6-4.7 1.2-3.1 1.5-6.3 1.7-9.5.2-4.2-.4-8.3-2.7-11.9-4.7-7.5-12.4-10.3-20.7-11.2-5.1-.6-10.1 1.1-14.4 4.1-10.9 7.5-16.8 17.8-16.2 31.2.3 6.8 2.8 12.9 6.9 18.4.1.1.1.3.2.4s.2.4.5.3c0-.1-.1-.2-.1-.3-.1-.3-.2-.4-.2-.7 0 0 .1 0 0 0zm63.3-44.2c.1.1.1.3.3.1-.1-.1-.1-.1-.2-.2 0-.1-.1-.2-.2-.3 0 .2 0 .3.1.4zm-26 12.5c0 .2 0 .2.2.1-.1-.1-.1-.1-.2-.1-.5-1.2-1.5-1.9-2.5-2.5-2.3-1.4-4.9-1.9-7.6-2.2-3.7-.5-7.4-.6-11 .4-5.6 1.4-9.5 5-12.1 9.9-2.1 3.9-3.6 8.1-3.9 12.6-.3 4.8 1.1 9.5 3.5 13.7 3.1 5.6 7.8 9.6 13.3 12.8 4.3 2.5 9 4.1 14 4.5 6.6.5 12.7-1.1 18.5-4.1 1.7-.9 3.4-1.9 5-3.3-.6-.2-1 .1-1.3.2-7.7 2.3-15.4 2.9-23.1 0-6-2.3-10.6-6.1-13.8-11.7-2.4-4.3-3.4-8.9-3.1-13.8.3-4.3 1.5-8.3 4.2-11.6 4.1-5 9.6-5.9 15.6-5.4 1.3 0 2.8.5 4.3.5zm-15.5 3.9c-1.9 1.3-2.9 2.9-3.6 4.8-1.6 4.6-2.1 9.3-1.5 14 .6 5.2 3 9.4 7.1 12.6 2.7 2.1 5.9 3.5 9.1 4.6 6 2.1 11.9 2.1 17.6-.6 12.7-6.1 19.3-16.6 20.2-30.5.5-7.4-2.2-14.3-6.4-20.4-.2-.2-.3-.7-.7-.5v.4c.1.3.1.6.2.8 1.8 6.8 2.5 13.6.4 20.5-2.5 8.3-7.7 14.2-15.7 17.4-5.4 2.1-10.9 2.3-16.4.5-3.8-1.2-7-3.3-9-6.9-2.2-3.8-2.6-7.9-2-12.2.2-1.4.4-2.8.7-4.5z" fill="#b6c62f"/><path d="m24.5 78.6c-4-5.5-6.6-11.6-6.9-18.4-.6-13.4 5.3-23.7 16.2-31.2 4.3-3 9.3-4.6 14.4-4.1 8.3.9 16 3.7 20.8 11.3 2.3 3.6 2.9 7.7 2.7 11.9-.1 3.2-.5 6.5-1.7 9.5-.7 1.8-1.7 3.4-3.6 4.7.3-1.9.7-3.6.9-5.3.5-5.8-.6-11.1-5.3-15-2-1.7-4.3-2.6-6.7-3.4-5.5-1.6-10.8-1.3-16 .9-7.8 3.3-12.8 9.1-15.2 17.2-2.1 6.9-1.4 13.7.4 20.5.1.4.2.7.3 1.1-.2.1-.2.2-.3.3z" fill="#fdfdfb"/><path d="m46.7 50.5c-.3 1.7-.6 3.1-.8 4.5-.6 4.3-.1 8.4 2 12.2 2 3.6 5.3 5.6 9 6.9 5.5 1.8 11 1.7 16.4-.5 8-3.2 13.2-9.1 15.7-17.4 2.1-6.9 1.4-13.7-.4-20.5-.1-.3-.1-.6-.2-.8 0-.1 0-.2 0-.4.5-.2.6.3.7.5 4.3 6.1 6.9 13 6.4 20.4-.9 13.9-7.4 24.4-20.2 30.5-5.7 2.7-11.6 2.8-17.6.6-3.2-1.2-6.4-2.5-9.1-4.6-4.1-3.2-6.5-7.5-7.1-12.6-.6-4.8-.1-9.5 1.5-14 .8-1.8 1.8-3.4 3.7-4.8z" fill="#fdfdfb"/><path d="m62.2 46.6c-1.6 0-3-.5-4.6-.7-6-.6-11.5.4-15.6 5.4-2.7 3.4-3.9 7.3-4.2 11.6-.3 4.9.7 9.5 3.1 13.8 3.2 5.6 7.8 9.5 13.8 11.7 7.7 2.9 15.4 2.4 23.1 0 .4-.1.8-.4 1.3-.2-1.6 1.4-3.3 2.4-5 3.3-5.8 3.1-12 4.6-18.5 4.1-5-.4-9.7-1.9-14-4.5-5.5-3.2-10.1-7.2-13.3-12.8-2.4-4.3-3.8-8.9-3.5-13.7.3-4.4 1.8-8.6 3.9-12.6 2.7-4.9 6.6-8.5 12.1-9.9 3.6-.9 7.3-.9 11-.4 2.7.4 5.3.8 7.6 2.2 1.3.8 2.4 1.4 2.8 2.7z" fill="#fdfdfb"/><path d="m25 78.9c0 .1.1.2.1.3-.3.1-.4-.1-.5-.3.1.1.3 0 .4 0z" fill="#eecc35"/><g fill="#fdfdfb"><path d="m88.2 34.1c-.1-.1-.2-.2 0-.4.1.1.1.2.2.3-.1 0-.1.1-.2.1z"/><path d="m25 78.9c-.1 0-.3 0-.4.1-.1-.1-.1-.3-.2-.4.1-.1.2-.2.3-.3.1 0 .1 0 .2.1v.1c0 .1.1.2.1.4z"/><path d="m88.4 34c .1.1.1.1.2.2-.2.2-.3 0-.3-.1 0 0 0-.1.1-.1z"/><path d="m62.2 46.6c.1 0 .1.1.2.1-.2.1-.2 0-.2-.1z"/></g><path d="m24.9 78.3s.1 0 0 0z" fill="#eecc35"/></svg>