<svg enable-background="new 0 0 113.4 113.3" viewBox="0 0 113.4 113.3" xmlns="http://www.w3.org/2000/svg"><circle cx="56.5" cy="56.7" fill="#afc910" r="55.5"/><path d="m56.7 0c30.9-.1 57.4 25.4 56.6 58.2-.7 29.3-25 56.3-59.1 55.1-28.5-1-55.5-24.9-54.2-59.2 1.1-28.9 25-54.1 56.7-54.1zm55.6 56.7c-.4-31.3-24.5-54.8-53.7-55.6-33.3-1-56.8 24.8-57.6 53.6-.9 33.3 24.8 56.7 53.7 57.6 32.9.9 57.4-25 57.6-55.6z" fill="#fdcd00"/><path d="m112.3 56.7c-.2 30.6-24.7 56.6-57.6 55.6-28.8-.8-54.6-24.3-53.7-57.6.8-28.8 24.3-54.6 57.6-53.6 29.2.8 53.4 24.3 53.7 55.6zm-55.6-9.1c-.1-.1-.1-.1-.2-.2-5.5 2.8-11.4 4-17.4 5-4.8.8-9.6 1.2-14.4 1.5-4.6 4.5-7.8 9.7-8 16.4.5-.1.7-.1.9-.2 9.5-2.5 18.7-5.7 27.4-10.1 4.1-2.1 8.1-4.3 11.7-7.1h.5c1.2.8 2.4 1.7 3.6 2.5 9.5 6 19.7 10.1 30.4 13.3 2 .6 3.9 1.2 6.1 1.6-.2-6.8-3.5-11.9-8-16.4-3.3-.3-6.5-.5-9.7-.9-7.5-.9-14.9-2.2-21.9-5.5-.2-.1-.4-.1-.6 0-.1.1-.3.1-.4.1zm.4 40.6c.4.6 1 .6 1.6.7 1.3.1 2.5-.1 3.7-.4 4-1 7.2-3.2 10.1-6.1-3.1-2.6-5.7-5.6-8-8.7-2.1-2.7-4.2-5.6-6.3-8.3-.2-.3-.4-1.2-1-.4-.1 0-.3 0-.4 0-.7-.8-.8.1-1 .4-2.7 3.6-5.4 7.3-8.3 10.8-1.9 2.2-3.8 4.3-6.1 6.2 3.3 3.3 7.1 5.7 11.7 6.4 1.2.2 2.6.5 3.7-.6zm-.4-59c-1.8-2.1-4-3.5-6.9-3.8-4.5-.4-8.8.5-12.9 2.3-3.3 1.4-6.5 3.1-9.5 5 5.7 5.8 19.4 9.9 29.2 8.8h.6c10.8.6 20.6-1.9 29.4-8.7-1.4-.8-2.5-1.5-3.6-2.1-5.4-2.9-10.9-5.5-17.3-5.3-3.5.1-6.3 1.2-8.5 3.8-.2 0-.4 0-.5 0zm0 25.2c-.6-.3-.8.2-1.2.4-8 5.1-16.1 9.9-24.9 13.5-1.3.5-2.5 1-3.8 1.5.9 6.1 2.4 11.9 7.7 15.9 3.5-2.8 6.8-5.7 10-8.7 4.5-4.4 8.5-9.1 12.2-14.2h.5c.2.3.5.6.7.9 3.4 4.9 7.3 9.3 11.6 13.4 3.1 3.1 6.4 5.9 9.9 8.6 5.2-4.1 6.8-9.8 7.6-15.9-.3-.2-.5-.3-.7-.3-5.4-1.9-10.5-4.5-15.5-7.2-4.7-2.5-9.1-5.4-13.6-8.2-.1.2-.3.2-.5.3zm42.4-2c0-.3 0-.3 0-.3-7-5.1-14.6-9-22.9-11.7-.4-.1-.9-.1-1.4 0-3.7 1.1-7.5 1.5-11.3 1.8-2.1.1-4.2.2-6.3.4v4.1c13.4 5.6 27.6 5.6 41.9 5.7zm-42.5-9.9c-.5 0-.8-.1-1.1-.1-5.6-.2-11.1-.5-16.6-2-.6-.2-1.2 0-1.7.2-7.6 2.4-14.6 6.1-21.2 10.6-.5.3-.9.7-1.3 1 .3.3.6.2.8.2 4.9.1 9.7.1 14.6-.3 7.4-.5 14.8-1.3 21.9-3.7 1.6-.5 3.2-1.2 4.6-2 0-1.4 0-2.6 0-3.9z" fill="#afc910"/><path d="m57.3 54.2c4.5 2.8 8.9 5.7 13.6 8.2 5 2.7 10 5.3 15.4 7.1.2.1.4.2.7.3-.9 6.1-2.4 11.8-7.6 15.9-3.5-2.8-6.8-5.6-9.9-8.6-4.2-4.1-8.2-8.5-11.6-13.4-.2-.3-.5-.6-.7-.9 0-2.9 0-5.8.1-8.6z" fill="#050600"/><path d="m56.7 62.7c-3.6 5.1-7.7 9.8-12.2 14.2-3.1 3-6.4 5.9-10 8.7-5.2-4-6.7-9.7-7.7-15.9 1.3-.5 2.5-.9 3.7-1.4 8.8-3.6 17-8.4 24.9-13.5.3-.2.6-.8 1.2-.4.1 2.8.1 5.5.1 8.3z" fill="#050600"/><path d="m56.7 52.9c-3.6 2.8-7.6 5.1-11.7 7.1-8.8 4.4-18 7.7-27.4 10.1-.2.1-.5.1-.9.2.2-6.8 3.4-11.9 8-16.4 4.8-.3 9.6-.7 14.4-1.5 6-1 12-2.2 17.4-5l .2.2z" fill="#070900"/><path d="m57.2 47.6c.2-.1.4-.1.6 0 6.9 3.3 14.3 4.5 21.9 5.5 3.2.4 6.3.6 9.7.9 4.5 4.4 7.7 9.6 8 16.4-2.2-.4-4.1-1-6.1-1.6-10.7-3.2-21-7.3-30.4-13.3-1.2-.8-2.4-1.7-3.6-2.5-.2-1.9-.2-3.6-.1-5.4z" fill="#070900"/><path d="m57.1 29.2c2.2-2.6 5-3.7 8.5-3.8 6.4-.2 11.9 2.5 17.3 5.3 1.1.6 2.2 1.3 3.6 2.1-8.8 6.8-18.6 9.3-29.4 8.7.1-4.1.1-8.2 0-12.3z" fill="#050600"/><path d="m56.6 41.5c-9.8 1.1-23.5-3-29.2-8.8 3.1-1.9 6.2-3.6 9.5-5 4.1-1.8 8.4-2.7 12.9-2.3 2.8.2 5.1 1.6 6.9 3.8 0 4.1-.1 8.2-.1 12.3z" fill="#050600"/><path d="m99.1 52.4c-14.3-.1-28.5-.1-41.9-5.8 0-1.5 0-2.8 0-4.1 2.2-.1 4.2-.2 6.3-.4 3.8-.3 7.6-.7 11.3-1.8.5-.1.9-.1 1.4 0 8.3 2.6 15.9 6.6 22.9 11.7z" fill="#070900"/><path d="m56.6 42.5v3.9c-1.4.8-3 1.5-4.6 2-7.1 2.4-14.5 3.2-21.9 3.7-4.9.4-9.7.3-14.6.3-.2 0-.5.1-.8-.2.5-.3.9-.7 1.3-1 6.6-4.5 13.6-8.2 21.2-10.6.6-.2 1.1-.3 1.7-.2 5.4 1.5 11 1.9 16.6 2 .3 0 .6 0 1.1.1z" fill="#070900"/><path d="m56.7 88.2c-1.1 1.1-2.5.8-3.7.6-4.6-.7-8.3-3.1-11.7-6.4 2.3-1.9 4.2-4 6.1-6.2 2.9-3.5 5.6-7.1 8.3-10.8.2-.3.4-1.2 1-.4z" fill="#070900"/><path d="m57.1 65c .7-.8.8.1 1 .4 2.1 2.8 4.2 5.6 6.3 8.3 2.4 3.1 4.9 6.1 8 8.7-2.9 2.9-6.1 5.1-10.1 6.1-1.2.3-2.5.5-3.7.4-.6-.1-1.2-.1-1.6-.7.1-7.8.1-15.5.1-23.2z" fill="#070900"/><g fill="#a8c01a"><path d="m57.1 65v23.2c-.2 0-.3 0-.5 0 0-7.7 0-15.5 0-23.2z"/><path d="m56.6 41.5c0-4.1 0-8.2.1-12.3h.5c0 4.1 0 8.2.1 12.3-.3 0-.5 0-.7 0z"/><path d="m56.7 62.7c0-2.8 0-5.5 0-8.3.2-.1.4-.1.6-.2 0 2.8-.1 5.7-.1 8.5-.2 0-.4 0-.5 0z"/><path d="m57.2 47.6v5.3c-.2 0-.3 0-.5 0 0-1.8 0-3.5 0-5.3z"/><path d="m56.7 47.6c-.1-.1-.1-.1-.2-.2 0 .1.1.1.2.2z"/></g></svg>