<svg enable-background="new 0 0 113.4 113.5" viewBox="0 0 113.4 113.5" xmlns="http://www.w3.org/2000/svg"><circle cx="56.7" cy="56.8" fill="#afc910" r="55.5"/><path d="m113.4 56.9c0 31.3-25.5 56.9-57.2 56.6-31.1-.3-56.5-25.6-56.2-57.3.3-31 25.6-56.3 57.2-56.2 30.9.2 56.2 25.7 56.2 56.9zm-56.8-55.8c-30.8.1-55.1 24.9-55.6 54.7-.5 31.8 25.1 56.3 54.7 56.7 31.8.4 56.3-25.1 56.7-54.8.4-31.5-25.2-56.7-55.8-56.6z" fill="#eecc34"/><path d="m56.6 1.1c30.6-.1 56.3 25 55.8 56.6-.4 29.7-24.8 55.2-56.7 54.8-29.6-.4-55.2-24.9-54.7-56.7.5-29.8 24.8-54.6 55.6-54.7zm-9.4 12c-.5.1-1 .1-1.5.2-9.3 2.2-17.2 6.7-23.5 14.1-6.4 7.7-9.9 16.5-10.6 26.4-.5 6.5.6 12.8 2.9 18.9 2.9 7.6 7.5 13.9 13.8 19 5.7 4.6 12.1 7.7 19.2 9.2 1.6.3 3.2.6 4.9.6-1.4-6.5-1.7-12.9-1-19.2.7-6.4 2.4-12.6 5.2-18.7 2.8 6.1 4.5 12.2 5.2 18.6s.5 12.9-.9 19.2c.5.3.9.2 1.3.2 3.5-.7 6.9-1.3 10.3-2.6 5.3-2.1 10.1-4.9 14.3-8.7 4.4-3.9 7.9-8.6 10.4-13.9 2.6-5.4 4.1-11 4.5-16.9.3-4.5-.1-9-1.2-13.4-1.8-7.2-5-13.6-9.9-19.1-4.4-5-9.7-8.8-15.9-11.3-2.8-1.1-5.6-2.1-8.6-2.4-1.2-.5-2.4-.6-3.7-.5 1.2.3 2.5.5 3.7.8.2 0 .5.1.7.1 7.7 2.4 14.1 6.5 19.1 12.8 4.9 6.2 7.6 13.2 8.2 21 .4 5.8-.6 11.5-2.9 17-3.6 8.5-9.7 15-18.3 19.2-.3.1-.5.3-.9 0-1.2-14.3-6.3-27.3-15.3-38.9-9 11.8-14.2 24.8-15.3 39.4-5.6-2.6-10.3-6.1-14-10.9-6.8-8.6-9.5-18.3-7.8-29.2 1.3-8.6 5.2-15.9 11.6-21.9 4.6-4.3 10-7.2 16-8.8.8-.1 1.6-.2 2.5-.7-1.1-.1-1.8.1-2.5.4zm2.9-.6c.2.2.4.2.6 0-.2-.1-.4-.1-.6 0z" fill="#b6c72f"/><path d="m47.2 13.4c-6.1 1.7-11.4 4.5-16 8.8-6.4 6-10.3 13.2-11.6 21.9-1.7 10.9 1 20.6 7.8 29.2 3.7 4.8 8.4 8.2 14 10.9 1.2-14.6 6.3-27.6 15.3-39.4 9.1 11.7 14.1 24.6 15.3 38.9.4.3.7.1.9 0 8.6-4.1 14.7-10.6 18.4-19.4 2.3-5.4 3.3-11.1 2.9-17-.6-7.8-3.3-14.8-8.2-21-5-6.3-11.5-10.4-19.1-12.8-.2-.1-.5-.1-.7-.1 0-.1 0-.2 0-.3 3 .2 5.9 1.3 8.6 2.4 6.2 2.4 11.5 6.3 15.9 11.3 4.9 5.6 8.1 12 9.9 19.1 1.1 4.4 1.5 8.9 1.2 13.4-.4 5.9-1.9 11.5-4.5 16.9-2.6 5.3-6.1 10-10.4 13.9-4.2 3.8-9 6.6-14.3 8.7-3.3 1.3-6.8 1.9-10.3 2.6-.4.1-.8.1-1.3-.2 1.4-6.3 1.6-12.7.9-19.2-.7-6.4-2.4-12.5-5.2-18.6-2.9 6.1-4.5 12.3-5.2 18.7s-.4 12.8 1 19.2c-1.8 0-3.3-.2-4.9-.6-7.2-1.5-13.6-4.6-19.2-9.2-6.3-5.1-10.9-11.4-13.8-19-2.3-6.1-3.4-12.4-2.9-18.9.7-9.9 4.2-18.8 10.6-26.4 6.2-7.4 14.1-11.9 23.5-14.1.5-.1 1-.1 1.5-.2-.1.3-.1.4-.1.5z" fill="#f7e837"/><g fill="#dddb34"><path d="m66.2 13.1v.3c-1.2-.3-2.5-.5-3.7-.8 1.3-.1 2.5 0 3.7.5z"/><path d="m47.2 13.4c0-.1 0-.2 0-.3.7-.3 1.4-.5 2.4-.4-.9.5-1.6.6-2.4.7z"/><path d="m50.1 12.5c.2-.2.4-.1.6 0-.2.2-.4.2-.6 0z"/></g></svg>