<svg enable-background="new 0 0 116.3 116.3" viewBox="0 0 116.3 116.3" xmlns="http://www.w3.org/2000/svg"><circle cx="58.1" cy="58.1" fill="#b0cb0f" r="56.7" stroke="#f8d950" stroke-miterlimit="10" stroke-width="2.8571"/><g fill="#ffe148"><path d="m47.1 33.1 9.5-16.5 9.5 16.5-3.5 5.7-6-10-5.7 10z"/><path d="m47.1 83 9.5 16.5 9.5-16.5-3.5-5.8-6 10.1-5.7-10.1z"/><path d="m40.1 80.1c-7.2-7.6-14.1-14.9-21-22.2 6.8-6.8 14-13.9 21.2-21.1 3.1 3.2 6.4 6.6 9.9 10.2-1.3 1.3-2.9 2.9-4.7 4.6-1.7-1.6-3.4-3.2-5.1-4.8-3.5 3.7-7 7.3-10.6 11.1 3.4 3.2 7.1 6.7 11 10.3 10.6-10.8 21.1-21.4 31.8-32.2 7.1 7.6 13.9 14.8 20.6 22-6.3 6.2-13.4 13.2-20.3 20-2.9-3-6.2-6.3-9.6-9.8 1.2-1 2.9-2.5 5-4.2.9 1.3 2.3 3.2 3.5 5 4.4-4.4 8-8.1 11.4-11.5-3.2-3.3-6.6-6.9-9.8-10.3-10.7 10.7-21.7 21.5-33.3 32.9z"/></g></svg>