<svg enable-background="new 0 0 113.4 113.3" viewBox="0 0 113.4 113.3" xmlns="http://www.w3.org/2000/svg"><circle cx="56.6" cy="56.7" fill="#afc910" r="55.5"/><path d="m113.4 56.7c0 31.9-26.4 57.3-57.9 56.6-30.8-.6-56.1-26.2-55.5-58 .6-30.9 26.4-55.8 57.8-55.3 30.6.5 55.6 25.6 55.6 56.7zm-1.1.1c.4-30.6-25.2-55.8-55.4-55.8-30.6-.1-55.8 25.2-55.8 55.6s25.2 55.7 55.6 55.7c30.4.1 55.9-25.3 55.6-55.5z" fill="#fdce00"/><path d="m112.3 56.8c.3 30.2-25.2 55.5-55.6 55.5-30.5 0-55.7-25.3-55.6-55.7 0-30.5 25.3-55.7 55.8-55.6 30.2.1 55.8 25.3 55.4 55.8zm-52.4 21.3c14.1-2.7 22.9-13.8 21.2-27.8-1.3-11.4-10.4-20.1-22-21.3-11.5-1.3-22.8 6.5-26.1 17.6-1.5 5.3-1.4 10.6.6 15.7 3.5 8.8 10.3 13.6 19.4 15.7v6.3h6.8c.1-2.1.1-4.1.1-6.2z" fill="#b0ca0f"/><path d="m59.9 78.1v6.2c-2.3 0-4.5 0-6.8 0 0-2.1 0-4.1 0-6.3-9-2.1-15.9-6.8-19.4-15.7-2-5.1-2.2-10.4-.6-15.7 3.2-11.2 14.6-18.9 26.1-17.6 11.6 1.3 20.7 10 22 21.3 1.5 14-7.2 25.2-21.3 27.8zm0-30.2c3-.4 6.2-3.9 6.3-8.5 0-5.1-2.9-9.1-8.5-9.7-4.7-.5-8.9 2.1-10.3 7.4-1.2 4.5 1.9 9.6 5.7 10.7 0-2.2 0-4.5 0-6.7h6.8z" fill="#010200"/><path d="m59.9 47.9c0-2.2 0-4.4 0-6.7-2.3 0-4.5 0-6.8 0v6.7c-3.7-1.1-6.8-6.2-5.7-10.7 1.3-5.3 5.5-7.9 10.3-7.4 5.6.6 8.6 4.6 8.5 9.7-.1 4.5-3.3 8.1-6.3 8.4z" fill="#afc910"/></svg>