<svg id="Capa_1" data-name="Capa 1" xmlns="http://www.w3.org/2000/svg" viewBox="0 0 566.93 566.93"><defs><style>.cls-1{fill:#b7c62f;}.cls-2{fill:#b7c730;}.cls-3{fill:#fdfdf9;}.cls-4{fill:#eecc35;}.cls-5{fill:#222221;}</style></defs><path class="cls-1" d="M42.14,282.91c7.32,7.08,12.9,13,19.1,18.31,5.21,4.41,7.14,9.81,8.14,16.29C78.83,379,109.73,427.25,160.13,463c29.77,21.14,63.16,33.37,101.45,37.58l22.16,23.87c7-7.36,13.34-13.91,19.57-20.57a12.52,12.52,0,0,1,7.91-4.05c35.9-4.83,69-16.83,98.52-38.23C459,426,489,378.45,498.72,318.36c1.28-7.94,3.4-14.67,9.93-19.91,5.33-4.31,10-9.48,15.74-15.06-7.41-7.22-13.91-13.65-20.53-20a13.52,13.52,0,0,1-4.25-8.42c-4.29-29.94-13.38-58.31-29.49-84.05-18.29-29.22-41.68-53.33-71.29-71.63a212.11,212.11,0,0,0-81.2-30c-7-1-12.53-3.64-17.09-9.1-5-6.05-10.61-11.63-16.18-17.67-7.78,7.77-14.41,14.32-21,21a15.89,15.89,0,0,1-9.34,5c-16.31,2.59-32.58,6-47.79,12.29C130.54,112.27,84.34,168.09,69.41,249.05c-1.31,7.1-3.44,13-9.23,17.63C54.07,271.6,48.48,277.16,42.14,282.91Zm237.39,272C133.56,553.16,10,433.33,12,279.08,13.9,133.84,133.17,11.34,285.26,12,432.48,12.84,556.6,133.5,554.9,287,553.27,432.87,433.66,556.7,279.53,554.89Z"/><path class="cls-1" d="M61.24,301.22C55,296,49.46,290,42.14,282.91c6.34-5.75,11.93-11.31,18-16.23C66,262,68.1,256.15,69.41,249.05c14.93-81,61.13-136.78,136.85-168.23,15.21-6.32,31.48-9.7,47.79-12.29a15.89,15.89,0,0,0,9.34-5c6.56-6.63,13.19-13.18,21-21,5.57,6,11.15,11.62,16.18,17.67,4.56,5.46,10.07,8.06,17.09,9.1a212.11,212.11,0,0,1,81.2,30c29.61,18.3,53,42.41,71.29,71.63,16.11,25.74,25.2,54.11,29.49,84.05a13.52,13.52,0,0,0,4.25,8.42c6.62,6.32,13.12,12.75,20.53,20-5.77,5.58-10.41,10.75-15.74,15.06-6.53,5.24-8.65,12-9.93,19.91C489,378.45,459,426,409.74,461.64,380.2,483,347.12,495,311.22,499.87a12.52,12.52,0,0,0-7.91,4.05c-6.23,6.66-12.56,13.21-19.57,20.57l-22.16-23.87c-38.29-4.21-71.68-16.44-101.45-37.58-50.4-35.79-81.3-84.09-90.75-145.53C68.38,311,66.45,305.63,61.24,301.22Z"/><path class="cls-2" d="M93.86,232.08l-.27.51.36-.41Z"/><path class="cls-1" d="M285.33,7.09c-154-.92-278,123.19-278.24,275.4-.21,153.8,123,277.33,276.27,277.35,152.28.14,274.77-122.43,276.46-272.93C561.58,131.42,436.55,8,285.33,7.09Z"/><path class="cls-3" d="M98.78,312.83c-.59-.24-1-.58-.34-1.59l.34,1.59Z"/><path class="cls-3" d="M311.52,469.29l-.24.53.34-.43Z"/><path class="cls-4" d="M283.46,15.67A267.87,267.87,0,0,1,387.7,530.22,267.87,267.87,0,0,1,179.23,36.71a266.14,266.14,0,0,1,104.23-21m0-10C130,5.67,5.67,130,5.67,283.46S130,561.26,283.46,561.26s277.8-124.37,277.8-277.8S436.89,5.67,283.46,5.67Z"/><polygon class="cls-5" points="324.05 277.46 367.57 277.46 439.83 205.2 475.63 241 454.45 262.19 429.15 236.89 407.51 258.53 432.32 283.34 406.8 308.86 429.64 331.69 454.63 306.7 474.47 326.54 437.79 363.22 365.43 290.85 323.9 290.85 439.76 406.72 518.14 328.34 473 283.19 515.94 240.25 439.09 163.39 324.05 277.46"/><polygon class="cls-5" points="346.32 365.28 365.61 345.99 392.44 372.82 373.23 392.02 346.32 365.28"/><polygon class="cls-5" points="365.65 220.45 346.36 201.17 373.19 174.34 392.4 193.55 365.65 220.45"/><polygon class="cls-5" points="242.88 292.64 199.36 292.64 127.1 364.91 91.3 329.11 112.48 307.92 137.78 333.22 159.42 311.58 134.61 286.76 160.13 261.25 137.29 238.41 112.3 263.41 92.46 243.57 129.14 206.89 201.5 279.25 243.03 279.25 127.17 163.39 48.79 241.77 93.93 286.92 50.98 329.86 127.84 406.72 242.88 292.64"/><polygon class="cls-5" points="220.6 204.83 201.32 224.12 174.49 197.29 193.7 178.08 220.6 204.83"/><polygon class="cls-5" points="201.28 349.65 220.56 368.94 193.74 395.76 174.53 376.56 201.28 349.65"/><polygon class="cls-5" points="291.05 324.05 291.05 367.57 363.32 439.83 327.52 475.63 306.33 454.45 331.63 429.15 309.99 407.51 285.18 432.32 259.66 406.8 236.83 429.64 261.82 454.63 241.98 474.47 205.3 437.79 277.67 365.43 277.67 323.9 161.8 439.76 240.18 518.14 285.32 473 328.27 515.94 405.13 439.09 291.05 324.05"/><polygon class="cls-5" points="275.88 242.88 275.88 199.36 203.61 127.1 239.41 91.3 260.6 112.48 235.3 137.78 256.94 159.42 281.75 134.61 307.27 160.13 330.1 137.29 305.11 112.3 324.95 92.46 361.63 129.14 289.26 201.5 289.26 243.03 405.13 127.17 326.75 48.79 281.6 93.93 238.66 50.98 161.8 127.84 275.88 242.88"/></svg>