<svg enable-background="new 0 0 113.4 113.4" viewBox="0 0 113.4 113.4" xmlns="http://www.w3.org/2000/svg"><circle cx="56.7" cy="56.7" fill="#3b3b3b" r="56.7"/><circle cx="56.7" cy="56.7" fill="#fff" r="55"/><g stroke="#94c124" stroke-miterlimit="10" stroke-width=".5044"><path d="m90.5 40.9c-1.6 2.4-5.1 6.4-5.7 7.2s-3.4 4.4-9 4.1c-2 0-6.1.1-8 .4s-6.9 2-7.9 2.7c.3.8.5 2-.1 3.2-.7 1-1.7 1.5-2.5 1.6.1 1.1.6 6.8 2.4 10.1 1.6 3.1 3.4 6.7 3.4 6.7s1.3 2.9.9 5.9c-.3 1.4-2.8 9-4.3 11.5-.3.5-.8 1.2-1.3 1.7.1.6-.2.6-.5 1.4-.5 3.6.9 4.5 1.6 5.1.9.8 1.2 2 1.7 4 1.1 3.2 5.2 3 8.4 2.1 16.7-4.9 22.8-12 26.5-15.5 4.2-3.9 1.6-7.2.2-8.8-2.7-3.1-1.6-5.5-1.6-5.5.1-.2 1.7-2.2 5.6-1.3 2.1.5 6.2 1.1 7.5-4.5 1.2-4.9 4.4-13.7.5-30.7-.8-3.2-2.6-6.9-5.9-6.3-2 .5-3.3.9-4.4.5-.8-.3-2.3-1.1-5.2 1.1-.6.8-.3 1-1.3 1.2m0 38.3c-1 1.5-2.3 1.5-2.3 1.5s-15.6 2.1-17.4 2.3c-2.2.4-3.6-.4-4.5-2-.6-1-5.3-12.7-6.8-16.9-.5-1.3.1-2.9.1-3 .1-.1 1.2-1.3 2.5-1.5 4.3-.8 16.9-2.4 18-2.4 1.9-.1 3.2.8 4 2.9.6 1.6 6.5 16.2 6.5 16.2s.7 1.3-.1 2.9z" fill="#3c3c3d"/><path d="m22 38.9c-1-.1-.7-.4-1.3-1.2-2.9-2.2-4.4-1.4-5.2-1.1-1.1.4-2.3 0-4.4-.5-3.3-.6-5.2 3-5.9 6.3-3.9 17-.7 25.8.5 30.7 1.4 5.6 5.5 5 7.5 4.5 3.9-.8 5.5 1.1 5.6 1.3 0 .1 1.2 2.4-1.6 5.5-1.5 1.6-4 4.8.2 8.8 3.7 3.5 9.8 10.6 26.5 15.5 3.2.9 7.3 1.1 8.4-2.1.6-2 .9-3.3 1.7-4 .7-.6 2.1-1.5 1.6-5.1-.3-.8-.6-.8-.5-1.4-.5-.6-1-1.3-1.3-1.7-1.5-2.5-4-10.1-4.3-11.5-.4-3 .9-5.9.9-5.9s1.8-3.6 3.4-6.7c1.8-3.3 2.3-9 2.4-10.1-.8-.2-1.8-.6-2.5-1.6-.6-1.2-.4-2.4-.1-3.2-1-.8-6-2.4-7.9-2.7s-6-.5-8-.4c-5.6.3-8.4-3.3-9-4.1s-4.2-4.7-5.7-7.2m-1.4 33.3s5.9-14.6 6.5-16.2c.8-2.1 2.1-3 4-2.9 1.1 0 13.7 1.6 18 2.4 1.4.3 2.5 1.4 2.5 1.5s.5 1.6.1 3c-1.4 4.2-6.2 15.9-6.8 16.9-.8 1.7-2.3 2.4-4.5 2-1.7-.3-17.3-2.3-17.3-2.3s-1.3 0-2.3-1.5c-.8-1.7-.2-2.9-.2-2.9z" fill="#3c3c3d"/><path d="m95 19.6c-12.7-12-21.9-13.7-26.7-15.1-5.5-1.6-7 2.2-7.7 4.3-1.3 3.9-3.9 4.1-4 4.2-.1 0-2.7-.3-4-4.2-.6-2-2.1-5.9-7.7-4.3-4.9 1.5-14.1 3.1-26.7 15.1-2.4 2.3-4.6 5.7-2.4 8.3 1.5 1.5 2.4 2.4 2.6 3.5.2.9.2 2.6 3.6 4 1 .1 1.1-.3 1.7.5-.5.1-3.6.3-1 5 1.6 2.4 5.1 6.4 5.7 7.2s3.4 4.4 9 4.1c2 0 6.1.1 8 .4s7 2 7.9 2.8c.3-.7 1.4-2 3.2-2.1 1.8.1 2.9 1.4 3.2 2.1.9-.8 6-2.4 7.9-2.8 1.9-.3 6-.5 8-.4 5.6.3 8.4-3.3 9-4.1s4.2-4.7 5.7-7.2c2.6-4.7-.5-4.9-1-5 .6-.8.7-.4 1.7-.5 3.4-1.4 3.4-3.1 3.6-4 .2-1.1 1.1-2 2.6-3.5 2.4-2.6.2-6-2.2-8.3zm-24.6 16.8c-.6 1-8.3 11-11.2 14.4-.9 1.1-2.5 1.4-2.6 1.4s-1.7-.3-2.6-1.4c-2.9-3.3-10.6-13.4-11.2-14.4-1-1.6-.9-3.2.5-4.9 1.2-1.3 10.9-13.7 10.9-13.7s.7-1.1 2.5-1.2c1.8.1 2.5 1.2 2.5 1.2s9.6 12.4 10.7 13.8c1.4 1.7 1.5 3.3.5 4.8z" fill="#c67125"/></g></svg>