<?xml version="1.0" encoding="UTF-8"?>
<svg id="uuid-fb48848f-3bdf-478d-97df-8b5d00d86c95" data-name="Capa 1" xmlns="http://www.w3.org/2000/svg" viewBox="0 0 566.93 566.93">
  <defs>
    <style>
      .uuid-eea2db2a-16dc-4f0b-89bf-0a5e58258360 {
        fill: #fff;
      }

      .uuid-ae0b3289-68d8-419f-9432-bbd153f24dde {
        fill: #fece00;
      }

      .uuid-90a57ee6-c57b-4bfa-b6c5-0afa6db5e66b {
        fill: #89837e;
      }

      .uuid-95162f68-198a-486e-8598-566f88317acf {
        fill: #b0ca11;
      }

      .uuid-f0c2fd2f-294b-4aa5-8ede-aaba28af3976 {
        fill: #704182;
      }
    </style>
  </defs>
  <g>
    <path class="uuid-ae0b3289-68d8-419f-9432-bbd153f24dde" d="M4.3,276.5C9,121.3,136.07,1.04,288.66,4.32c157.59,3.39,278.96,131.25,273.91,289.07-4.94,154.07-133.83,273.36-287.12,269.18C122.49,558.4.48,429.81,4.3,276.5ZM283.75,9.62C134.82,8,9.06,131.81,9.27,283.38c.21,151.66,123.93,274.31,274.94,274.21,150.09-.1,273.31-123.65,273.71-273.5.41-151.09-124.54-276.04-274.17-274.48Z"/>
    <path class="uuid-95162f68-198a-486e-8598-566f88317acf" d="M283.75,9.62C134.82,8,9.06,131.81,9.27,283.38c.21,151.66,123.93,274.31,274.94,274.21,150.09-.1,273.31-123.65,273.71-273.5.41-151.09-124.54-276.04-274.17-274.48ZM339.58,369.05c.67-1.42,1.59-2.56,3.21-3.02.83,1.43-.33,2.13-.94,3-.76,0-1.51,0-2.27.01Z"/>
    <path class="uuid-90a57ee6-c57b-4bfa-b6c5-0afa6db5e66b" d="M341.85,369.04c-.76,0-1.51,0-2.27.01.67-1.42,1.59-2.56,3.21-3.02.83,1.43-.33,2.13-.94,3Z"/>
  </g>
  <g>
    <g>
      <path class="uuid-f0c2fd2f-294b-4aa5-8ede-aaba28af3976" d="M350.97,314.21c2.75-1.25,5.76-2.65,8.98-4.21,0,0-7.78,59.99-53.98,76.62,0,0,41.41.19,69.24-76.64,2.22-6.13,6.52-11.28,12.16-14.55,45.83-26.58,105.91-73.38,119.98-141.28,0,0,18.7,93.85-100.88,154.25,0,0,61.53-19.84,97.76-62.56,0,0-11.33,60.98-107.73,90.72,0,0,57.87-10.56,99.51-42.23,0,0-24.46,52.87-108.31,64.52,0,0,50.69.82,79.24-9.34,0,0-29.41,29.12-103.87,26.35,0,0,35.82,8.54,74.46,2.77,0,0-35.03,30.2-93.14,14.71,0,0,23.36,11.89,43.31,12.44,0,0-31.94,14.73-68.69,1.4-26.24-9.51-31.42-27.21-31.42-27.21,0,0,29.96-10.76,41.21-41.69,3.88-10.67,11.83-19.38,22.17-24.07Z"/>
      <path class="uuid-f0c2fd2f-294b-4aa5-8ede-aaba28af3976" d="M215.99,314.2c-2.76-1.25-5.76-2.65-8.98-4.21,0,0,7.79,59.99,54,76.61,0,0-41.41.2-69.26-76.62-2.22-6.13-6.52-11.28-12.16-14.54-45.84-26.57-105.92-73.35-120.01-141.25,0,0-18.68,93.86,100.92,154.23,0,0-61.54-19.82-97.77-62.54,0,0,11.35,60.98,107.74,90.69,0,0-57.87-10.55-99.52-42.21,0,0,24.47,52.86,108.32,64.49,0,0-50.69.83-79.24-9.33,0,0,29.42,29.12,103.88,26.33,0,0-35.82,8.54-74.46,2.78,0,0,35.04,30.2,93.14,14.69,0,0-23.36,11.9-43.31,12.45,0,0,31.94,14.72,68.69,1.39,26.23-9.52,31.41-27.22,31.41-27.22,0,0-29.96-10.75-41.22-41.68-3.89-10.67-11.83-19.37-22.18-24.07Z"/>
    </g>
    <circle class="uuid-f0c2fd2f-294b-4aa5-8ede-aaba28af3976" cx="283.46" cy="338.06" r="24.93"/>
    <polygon class="uuid-ae0b3289-68d8-419f-9432-bbd153f24dde" points="275.57 185.58 283.57 162.69 291.54 185.59 313.38 175.06 302.82 196.89 325.71 204.88 302.81 212.85 313.35 234.69 291.52 224.13 283.52 247.02 275.55 224.12 253.71 234.66 264.27 212.83 241.38 204.84 264.28 196.87 253.75 175.03 275.57 185.58"/>
    <polygon class="uuid-ae0b3289-68d8-419f-9432-bbd153f24dde" points="356.65 235.61 361.83 220.77 367 235.62 381.16 228.79 374.32 242.94 389.16 248.13 374.31 253.3 381.14 267.46 366.99 260.61 361.8 275.46 356.63 260.61 342.47 267.44 349.32 253.28 334.47 248.1 349.32 242.93 342.49 228.77 356.65 235.61"/>
    <polygon class="uuid-ae0b3289-68d8-419f-9432-bbd153f24dde" points="200.1 235.61 205.28 220.77 210.45 235.62 224.62 228.79 217.77 242.94 232.62 248.13 217.76 253.3 224.6 267.46 210.44 260.61 205.25 275.46 200.09 260.61 185.92 267.44 192.77 253.28 177.92 248.1 192.77 242.93 185.94 228.77 200.1 235.61"/>
  </g>
  <g>
    <path class="uuid-eea2db2a-16dc-4f0b-89bf-0a5e58258360" d="M87.62,118.72l8.32-8.76,13.14,12.47,16.63-17.52-13.14-12.47,8.32-8.76,35.04,33.26-8.31,8.76-13.14-12.47-16.63,17.52,13.14,12.47-8.32,8.76-35.04-33.26Z"/>
    <path class="uuid-eea2db2a-16dc-4f0b-89bf-0a5e58258360" d="M142.5,81.71c-3.42-5.7-1.56-13.15,4.14-16.57l20.71-12.44c5.7-3.42,13.15-1.56,16.57,4.14l18.65,31.07-10.36,6.22-9.33-15.53-20.71,12.43,9.33,15.54-10.36,6.22-18.65-31.07ZM176.68,68.24l-3.11-5.18-20.71,12.43,3.11,5.18,20.71-12.43Z"/>
    <path class="uuid-eea2db2a-16dc-4f0b-89bf-0a5e58258360" d="M207.4,35.43l1.95,6.98c-.13-.46-.59-.52-1.03-.34l15.97,8.9,9.05-15.88c-.48.07-.84.36-.71.82l-1.95-6.98,11.64-3.25,1.95,6.98c.94,3.37.39,6.79-.86,9.27l-10.44,17.65,4.89,17.51-11.63,3.25-4.89-17.51-18.07-9.69c-2.36-1.47-4.6-4.11-5.54-7.48l-1.95-6.98,11.64-3.25Z"/>
    <path class="uuid-eea2db2a-16dc-4f0b-89bf-0a5e58258360" d="M310.17,22.97v12.08s-18.11.01-18.11.01l.03,36.24h-12.08s-.03-36.23-.03-36.23h-18.12s0-12.07,0-12.07l48.32-.03Z"/>
    <path class="uuid-eea2db2a-16dc-4f0b-89bf-0a5e58258360" d="M329.72,25.61l11.65,3.21-4.82,17.47,23.3,6.42,4.81-17.47,11.65,3.21-12.84,46.59-11.65-3.21,4.81-17.47-23.29-6.42-4.81,17.47-11.65-3.21,12.84-46.59Z"/>
    <path class="uuid-eea2db2a-16dc-4f0b-89bf-0a5e58258360" d="M388.19,56.54c3.4-5.71,10.86-7.59,16.56-4.19l20.75,12.38c5.71,3.4,7.59,10.86,4.19,16.56l-18.57,31.12-10.38-6.19,9.28-15.56-20.75-12.38-9.28,15.56-10.37-6.19,18.57-31.12ZM416.22,80.29l3.09-5.19-20.75-12.38-3.09,5.19,20.75,12.38Z"/>
    <path class="uuid-eea2db2a-16dc-4f0b-89bf-0a5e58258360" d="M451.32,83.22l8.34,8.74-9.76,26,26.43-8.51,8.34,8.74-34.97,33.35-8.34-8.74,17.44-16.63-15.09,5.71-8-8.39,6.42-14.8-17.44,16.63-8.34-8.74,34.97-33.35Z"/>
  </g>
  <g>
    <path class="uuid-eea2db2a-16dc-4f0b-89bf-0a5e58258360" d="M99.74,419.71c4.73-4.33,12.15-4,16.48.73l15.75,17.21c4.33,4.73,4,12.15-.73,16.48l-25.82,23.63-7.88-8.61,12.91-11.82-15.75-17.21-12.91,11.81-7.88-8.61,25.82-23.63ZM119.06,449.47l4.3-3.94-15.75-17.21-4.3,3.94,15.75,17.21Z"/>
    <path class="uuid-eea2db2a-16dc-4f0b-89bf-0a5e58258360" d="M143.98,449.8l38.76,25.98-6.5,9.69-29.07-19.49-3.25,4.85,21.32,14.29-6.5,9.69-21.32-14.29-3.25,4.85,29.07,19.49-6.5,9.69-38.76-25.98,25.98-38.76Z"/>
    <path class="uuid-eea2db2a-16dc-4f0b-89bf-0a5e58258360" d="M187.61,478.28l32.87,12.03c6.03,2.21,9.15,8.94,6.95,14.97l-2,5.48c-2.21,6.03-8.94,9.15-14.97,6.95l-.66-.24,5.6,20.69-13.48-4.93-5.54-20.67-7.83-2.87-6.02,16.43-10.96-4.01,16.04-43.83ZM214.47,506.74l2-5.48-21.91-8.02-2,5.48,21.91,8.02Z"/>
    <path class="uuid-eea2db2a-16dc-4f0b-89bf-0a5e58258360" d="M235.4,507.15c.7-6.38,6.49-11.03,12.86-10.33l23.19,2.53c6.38.7,11.03,6.48,10.33,12.86l-2.53,23.19c-.7,6.38-6.49,11.03-12.86,10.33l-23.19-2.53c-6.38-.7-11.03-6.48-10.33-12.86l2.53-23.19ZM267.66,534.14l2.53-23.19-23.19-2.53-2.53,23.19,23.19,2.53Z"/>
    <path class="uuid-eea2db2a-16dc-4f0b-89bf-0a5e58258360" d="M318.61,514.58l1.07,11.62-27.88,2.56-1.07-11.62,27.88-2.56Z"/>
    <path class="uuid-eea2db2a-16dc-4f0b-89bf-0a5e58258360" d="M334.3,493.59l10,33.54,22.36-6.67-10-33.54,11.18-3.33,10,33.54c1.83,6.15-1.7,12.68-7.85,14.51l-22.36,6.67c-6.15,1.83-12.68-1.7-14.51-7.85l-10-33.54,11.18-3.33Z"/>
    <path class="uuid-eea2db2a-16dc-4f0b-89bf-0a5e58258360" d="M372.79,481.44l10.06-5.92,34.73,13-14.62-24.84,10.06-5.92,23.67,40.22-10.05,5.92-34.73-13,14.62,24.84-10.05,5.92-23.67-40.22Z"/>
    <path class="uuid-eea2db2a-16dc-4f0b-89bf-0a5e58258360" d="M416.69,453.47l8.98-7.45,29.81,35.91-8.98,7.45-29.81-35.91Z"/>
    <path class="uuid-eea2db2a-16dc-4f0b-89bf-0a5e58258360" d="M461.28,408.04l8.78,7.68-11.52,13.18,26.35,23.03-7.68,8.78-26.35-23.03-11.52,13.18-8.79-7.68,30.71-35.14Z"/>
  </g>
</svg>