<svg viewBox="0 0 566.93 566.93" xmlns="http://www.w3.org/2000/svg"><circle cx="283.46" cy="283.46" fill="#1c1411" r="269.29"/><circle cx="283.46" cy="283.46" fill="#ef781b" r="256.27"/><path d="m283.46 531.13c136.78 0 247.67-110.89 247.67-247.67s-110.89-247.66-247.67-247.66" fill="#1c1411"/><path d="m283.46 35.8c-136.78 0-247.66 110.88-247.66 247.66s110.88 247.67 247.66 247.67" fill="#3c3c3b"/><path d="m70.66 204.21-25.4-17.84 17.1 39.5-8.57-19.81z" fill="#ef781b"/><path d="m70.66 204.21-16.87 1.85 8.57 19.81z" fill="#ef781b"/><path d="m206.13 331.78-.08.21v-.13z" fill="#dadada"/><path d="m283.75 371.36-15.07-62.36.06-.19 15.49 5.26z" fill="#fff"/><path d="m232.49 349.84h.02l-.02.01z" fill="#fff"/><path d="m205.99 331.9.06.09.12.07 4.52 50.84-11.92-20.09-9.64-16.27.58-.35 16.26-14.29z" fill="#dadada"/><path d="m174.4 269.41-28-8.9 14.17-19.75z" fill="#ef781b"/><path d="m232.32 349.71v.06l-12.81-8.42z" fill="#fff"/><path d="m234.17 351.06-1.68-.71-.05-.24.04-.18z" fill="#fff"/><path d="m284.23 409.71-.24 44.76-28.93-2.15z" fill="#ef781b"/><path d="m232.49 350.35 1.68.71.01.01.28.12 18.22 7.75-11.62 35.11z" fill="#fff"/><path d="m232.48 349.9v.03l-.02-.01z" fill="#fff"/><path d="m190.39 315.82-.68 30.37-.58.35-10.56-17.82z" fill="#dadada"/><path d="m206.04 331.68.01.18-.06.04h-.02l-15.58-16.08z" fill="#fff"/><path d="m206.13 331.78.04.28-.12-.07z" fill="#dadada"/><path d="m132.01 276.08 21.16 23.93-25.63 4.47 3.76-27.77z" fill="#ef781b"/><path d="m163.4 287.98-2.3 20.99-7.93-8.96-21.16-23.93-24.79-28.02z" fill="#dadada"/><path d="m210.69 382.9-4.52-50.84.8.57 12.54 8.72 12.82 8.49.04.16v.01z" fill="#fff"/><path d="m232.41 349.84h-.08l-.01-.07z" fill="#fff"/><path d="m203.56 278.67.15.05 2.33 52.96-15.65-15.86z" fill="#dadada"/><path d="m232.48 349.93v-.03h.01l20.16 8.78v.02l-18.19-7.51-.28-.12-.01-.01z" fill="#fff"/><path d="m206.05 331.86-.01-.18.09.1z" fill="#fff"/><path d="m283.75 371.36.48 38.35-13.73-4.87z" fill="#dadada"/><path d="m133.21 236.55-25.99 11.51 4.83-14.78z" fill="#ef781b"/><path d="m232.49 349.87v.03h-.01z" fill="#fff"/><path d="m232.32 349.77.01.07-12.82-8.49z" fill="#fff"/><path d="m203.56 278.67.11-.34.04.39z" fill="#4f4f50"/><path d="m232.41 349.96.03.15-.03.16-.03-.22z" fill="#dadada"/><path d="m112.05 233.28-49.7-7.41 8.32-21.66z" fill="#ef781b"/><path d="m163.4 287.98 14.88 15.36-17.18 5.63z" fill="#fff"/><path d="m160.57 240.76-14.17 19.75-.18-.06-13.01-23.9z" fill="#ef781b"/><path d="m161.1 308.97 17.47 19.75-28.71 2.72 3.31-31.43z" fill="#ef781b"/><path d="m283.73 281.87.5 32.2-13.96-39.87.1-.15z" fill="#ef781b"/><path d="m178.28 303.34 12.11 12.48-11.82 12.9z" fill="#fff"/><path d="m268.74 308.81-26.2-8.89 27.73-25.72 13.96 39.87z" fill="#ef781b"/><path d="m232.33 349.84.15.06-.02.02z" fill="#fff"/><path d="m232.41 251.84-22.14 28.97-12.73-34.34z" fill="#ef781b"/><path d="m232.44 350.11.05.24-.06-.03-.02-.05z" fill="#dadada"/><path d="m132.01 276.08-.71.63h-26.79l-.02-.02 2.73-28.63z" fill="#ef781b"/><path d="m232.41 349.95-.04.05-.04-.16.13.08-.05.04z" fill="#fff"/><path d="m104.49 276.69.02.02h-.02z" fill="#ef781b"/><path d="m232.41 350.27.02.05h-.02z" fill="#dadada"/><path d="m197.54 246.47-23.14 22.94-13.83-28.65z" fill="#ef781b"/><path d="m174.4 269.41 23.14-22.94 12.73 34.34-6.56-2.09-.04-.39-.11.34-17.82-5.66-11.02-3.51z" fill="#ef781b"/><path d="m232.49 349.85v.02l-.01.03-.15-.06h.08l-.09-.07v-.06l.17.13z" fill="#fff"/><path d="m232.41 251.84 10.13 48.08-19.68-11.65-12.59-7.46z" fill="#ef781b"/><path d="m252.76 358.97 17.74 45.87-29.44-10.79 11.62-35.11.06.03z" fill="#dadada"/><path d="m232.38 350.05.03.22-.04-.22z" fill="#dadada"/><path d="m242.54 299.92 10.11 58.76-20.16-8.78v-.03-.02l.02-.01h-.02z" fill="#dadada"/><path d="m222.86 288.27 9.46 61.44-12.81-8.36-12.54-8.72-.84-.85z" fill="#dadada"/><path d="m198.77 362.81 11.92 20.09-26.59 12.97z" fill="#ef781b"/><path d="m232.43 350.32.06.03 8.57 43.7z" fill="#dadada"/><path d="m284.23 409.71-29.17 42.61-20.83-60.78 6.83 2.51 29.44 10.79z" fill="#ef781b"/><path d="m131.3 276.71-3.76 27.77-23.03-27.77z" fill="#ef781b"/><path d="m107.22 248.06-2.73 28.63-20.02-24.15z" fill="#ef781b"/><path d="m252.74 358.73v.02l-.03.09-.06-.14z" fill="#fff"/><path d="m252.85 359 17.65 45.84-17.74-45.87z" fill="#dadada"/><path d="m252.68 358.94v-.02l.03-.06.03.11z" fill="#dadada"/><path d="m189.13 346.54 9.64 16.27-31.33 1.71 11.13-35.8z" fill="#ef781b"/><path d="m210.27 280.81 12.59 7.46-16.73 43.51-.09-.1-2.33-52.96z" fill="#fff"/><path d="m252.65 358.68-10.11-58.76 26.2 8.89-.06.19-15.94 49.73-.09-.03z" fill="#fff"/><path d="m178.28 303.34.29 25.38-17.47-19.75z" fill="#dadada"/><path d="m206.13 331.78.84.85-.8-.57z" fill="#fff"/><path d="m268.68 309 15.07 62.36-.44-.18-30.13-12.27-.44-.18z" fill="#dadada"/><path d="m185.74 273.01 4.65 42.81-12.11-12.48z" fill="#dadada"/><path d="m252.85 359-.09-.03h-.02l-.03-.11v-.02l.03-.09z" fill="#dadada"/><path d="m178.57 328.72-11.13 35.8-17.58-33.08z" fill="#ef781b"/><path d="m198.77 362.81-14.67 33.06-16.66-31.35z" fill="#ef781b"/><path d="m252.68 358.92v.02l-18.22-7.75 18.19 7.51z" fill="#fff"/><path d="m270.37 274.05-.1.15-27.73 25.72-10.13-48.08z" fill="#ef781b"/><path d="m205.97 331.9-16.26 14.29.68-30.37z" fill="#fff"/><path d="m232.48 349.93-.04.18-.03-.15.05-.04z" fill="#fff"/><path d="m234.23 391.54 20.83 60.78-57.52-31.14z" fill="#ef781b"/><path d="m232.41 349.95v.01l-.03.09h-.01v-.04-.01z" fill="#fff"/><path d="m232.37 350.01v.04l-21.68 32.85z" fill="#dadada"/><path d="m242.54 299.92-10.05 49.92-.17-.13-9.46-61.44z" fill="#fff"/><path d="m234.23 391.54-36.69 29.64 13.15-38.28z" fill="#ef781b"/><path d="m283.25 371.34-30.4-12.34-.11-.25.44.16.67.29z" fill="#fff"/><path d="m133.21 236.55 13.01 23.9-39-12.39z" fill="#ef781b"/><path d="m210.69 382.9-13.15 38.28-13.44-25.31z" fill="#ef781b"/><path d="m206.05 331.86v.13l-.06-.09z" fill="#dadada"/><path d="m146.22 260.45.1.19.08-.13 28 8.9.32.09-11.32 18.48-56.18-39.92z" fill="#fff"/><path d="m232.43 350.32 8.63 43.73-6.83-2.51-23.54-8.64 21.68-32.85.04.22v.05z" fill="#dadada"/><path d="m153.17 300.01-3.31 31.43-22.32-26.96z" fill="#ef781b"/><path d="m185.74 273.01-7.46 30.33-3.56-33.84z" fill="#fff"/><path d="m174.72 269.5 3.56 33.84-14.88-15.36z" fill="#dadada"/><path d="m112.05 233.28-4.83 14.78-22.75 4.48-22.12-26.67z" fill="#ef781b"/><path d="m203.56 278.67-13.17 37.15-4.65-42.81z" fill="#fff"/><path d="m283.75 371.36-13.25 33.48-17.65-45.84 30.4 12.34-29.4-12.14 29.46 11.98z" fill="#fff"/><path d="m496.27 204.21 25.39-17.84-17.09 39.5 8.57-19.81z" fill="#ef781b"/><path d="m496.27 204.21 16.87 1.85-8.57 19.81z" fill="#ef781b"/><path d="m283.2 281.87-.5 32.2 13.96-39.87-.1-.15z" fill="#ef781b"/><path d="m296.66 274.2-13.96 39.87 15.49-5.26 26.19-8.89z" fill="#ef781b"/><path d="m282.7 314.07.48 57.29 15.07-62.36-.06-.19z" fill="#fff"/><path d="m283.18 371.36-.48 38.35 13.73-4.87z" fill="#dadada"/><path d="m282.7 409.71.24 44.76 28.93-2.15z" fill="#ef781b"/><path d="m282.7 409.71 29.17 42.61 20.83-60.78-6.84 2.51-29.43 10.79z" fill="#ef781b"/><path d="m298.25 309-15.07 62.36.43-.18 30.14-12.27.44-.18z" fill="#dadada"/><path d="m283.61 371.18-.43.18 13.25 33.48 17.64-45.84-30.39 12.34 29.4-12.14z" fill="#fff"/><path d="m283.68 371.34 30.39-12.34.12-.25-.44.16-.67.29z" fill="#fff"/><path d="m314.07 359-17.64 45.84 17.74-45.87z" fill="#dadada"/><path d="m314.17 358.97-17.74 45.87 29.43-10.79-11.61-35.11-.06.03z" fill="#dadada"/><path d="m296.56 274.05.1.15 27.72 25.72 10.14-48.08z" fill="#ef781b"/><path d="m298.19 308.81.06.19 15.94 49.73.09-.03v-.02l10.1-58.76z" fill="#fff"/><path d="m332.7 391.54-20.83 60.78 57.51-31.14z" fill="#ef781b"/><path d="m314.07 359 .1-.03h.02l.03-.11v-.02l-.03-.09z" fill="#dadada"/><path d="m314.28 358.7-.09.03v.02l.03.09z" fill="#fff"/><path d="m314.22 358.86-.03.11.06-.03v-.02z" fill="#dadada"/><path d="m314.25 358.94 18.22-7.75-18.19 7.51-.03.22z" fill="#fff"/><path d="m324.38 299.92-10.1 58.76 20.16-8.78v-.03-.02l-.02-.01h.02z" fill="#dadada"/><path d="m334.52 251.84-10.14 48.08 19.69-11.65 12.59-7.46z" fill="#ef781b"/><path d="m324.38 299.92 10.06 49.92.17-.13 9.46-61.44z" fill="#fff"/><path d="m332.7 391.54 36.68 29.64-13.14-38.28z" fill="#ef781b"/><path d="m332.76 351.06-.01.01-.28.12-18.22 7.75 11.61 35.11 8.58-43.7z" fill="#fff"/><path d="m332.76 351.06 1.68-.71.04-.24-.03-.18z" fill="#fff"/><path d="m334.42 349.84.02.01v-.01z" fill="#fff"/><path d="m334.48 350.11-.04.24.06-.03.02-.05z" fill="#dadada"/><path d="m334.44 349.87v.03h.01z" fill="#fff"/><path d="m334.44 349.9-20.16 8.78v.02l18.19-7.51.28-.12.01-.01 1.69-1.13v-.03z" fill="#fff"/><path d="m334.44 350.35-8.58 43.7 8.64-43.73z" fill="#dadada"/><path d="m334.45 349.9v.03l.02-.01z" fill="#fff"/><path d="m334.47 349.92-.02.01.03.18.04-.15z" fill="#fff"/><path d="m334.52 349.96-.04.15.04.16.03-.22z" fill="#dadada"/><path d="m334.6 349.84-.13.08.05.04v-.01l.04.05z" fill="#fff"/><path d="m334.52 350.27-.02.05h.02z" fill="#dadada"/><path d="m356.24 382.9-21.68-32.85-.04.22v.05h-.02l-8.64 43.73 6.84-2.51z" fill="#dadada"/><path d="m334.52 349.95v.01l.03.09h.01v-.04-.01z" fill="#fff"/><path d="m334.55 350.05-.03.22.04-.22z" fill="#dadada"/><path d="m334.6 349.84-.15.06.02.02z" fill="#fff"/><path d="m334.52 251.84 22.14 28.97 12.72-34.34z" fill="#ef781b"/><path d="m334.52 349.84.09-.07v-.06l-.17.13v.01.02l.01.03.15-.06z" fill="#fff"/><path d="m334.52 349.84h.08l.01-.07z" fill="#fff"/><path d="m334.56 350.01v.04l21.68 32.85z" fill="#dadada"/><path d="m334.61 349.77-.01.07 12.82-8.49z" fill="#fff"/><path d="m334.61 349.71v.06l12.81-8.42z" fill="#fff"/><path d="m344.07 288.27-9.46 61.44 12.81-8.36 12.54-8.72.84-.85z" fill="#dadada"/><path d="m356.66 280.81-12.59 7.46 16.73 43.51.09-.1 2.33-52.96z" fill="#fff"/><path d="m368.16 362.81-11.92 20.09 26.59 12.97z" fill="#ef781b"/><path d="m356.24 382.9 13.14 38.28 13.45-25.31z" fill="#ef781b"/><path d="m360.8 331.78-.84.85.8-.57z" fill="#fff"/><path d="m359.96 332.63-12.54 8.72-12.82 8.49-.04.16v.01l21.68 32.89 4.52-50.84z" fill="#fff"/><path d="m360.88 331.99-.12.07-4.52 50.84 11.92-20.09 9.64-16.27-.58-.35-16.26-14.29h-.02z" fill="#dadada"/><path d="m360.88 331.99-.08-.21-.04.28z" fill="#dadada"/><path d="m360.8 331.78.08.21v-.13z" fill="#dadada"/><path d="m360.88 331.86.01-.18-.09.1z" fill="#fff"/><path d="m360.88 331.99.06-.09-.06-.04z" fill="#dadada"/><path d="m360.89 331.68-.01.18.06.04h.02l15.58-16.08z" fill="#fff"/><path d="m360.96 331.9 16.26 14.29-.68-30.37z" fill="#fff"/><path d="m363.37 278.67-.11-.34-.04.39z" fill="#4f4f50"/><path d="m363.22 278.72-2.33 52.96 15.65-15.86-13.17-37.15z" fill="#dadada"/><path d="m363.37 278.67 13.17 37.15 4.65-42.81z" fill="#fff"/><path d="m377.8 346.54-9.64 16.27 31.33 1.71-11.13-35.8z" fill="#ef781b"/><path d="m368.16 362.81 14.67 33.06 16.66-31.35z" fill="#ef781b"/><path d="m369.38 246.47 23.15 22.94 13.83-28.65z" fill="#ef781b"/><path d="m381.19 273.01-4.65 42.81 12.11-12.48z" fill="#dadada"/><path d="m376.54 315.82.68 30.37.58.35 10.56-17.82z" fill="#dadada"/><path d="m381.19 273.01 7.46 30.33 3.55-33.84z" fill="#fff"/><path d="m388.65 303.34-12.11 12.48 11.82 12.9z" fill="#fff"/><path d="m388.65 303.34-.29 25.38 17.47-19.75z" fill="#dadada"/><path d="m405.83 308.97-17.47 19.75 28.71 2.72-3.31-31.43z" fill="#ef781b"/><path d="m388.36 328.72 11.13 35.8 17.58-33.08z" fill="#ef781b"/><path d="m392.2 269.5-3.55 33.84 14.88-15.36z" fill="#dadada"/><path d="m403.53 287.98-14.88 15.36 17.18 5.63z" fill="#fff"/><path d="m392.2 269.5.33-.09-23.15-22.94-12.72 34.34 6.56-2.09.04-.39.11.34 17.82-5.66z" fill="#ef781b"/><path d="m392.53 269.41 28-8.9-14.17-19.75z" fill="#ef781b"/><path d="m403.53 287.98 2.3 20.99 7.93-8.96 21.16-23.93 24.78-28.02z" fill="#dadada"/><path d="m406.36 240.76 14.17 19.75.17-.06 13.01-23.9z" fill="#ef781b"/><path d="m434.92 276.08-21.16 23.93 25.63 4.47-3.76-27.77z" fill="#ef781b"/><path d="m413.76 300.01 3.31 31.43 22.32-26.96z" fill="#ef781b"/><path d="m420.61 260.64-.08-.13-28 8.9-.33.09 11.33 18.48 56.17-39.92-39 12.39z" fill="#fff"/><path d="m433.71 236.55-13.01 23.9 39-12.39z" fill="#ef781b"/><path d="m433.71 236.55 25.99 11.51-4.82-14.78z" fill="#ef781b"/><path d="m434.92 276.08.71.63h26.79l.02-.02-2.74-28.63z" fill="#ef781b"/><path d="m435.63 276.71 3.76 27.77 23.03-27.77z" fill="#ef781b"/><path d="m454.88 233.28 4.82 14.78 22.76 4.48 22.12-26.67z" fill="#ef781b"/><path d="m454.88 233.28 49.7-7.41-8.32-21.66z" fill="#ef781b"/><path d="m459.7 248.06 2.74 28.63 20.02-24.15z" fill="#ef781b"/><path d="m462.44 276.69-.02.02h.02z" fill="#ef781b"/><g fill="#fff"><path d="m132.27 417.21 20.29 25 10.52-8.54a1.92 1.92 0 0 1 2-.53 5.45 5.45 0 0 1 1.92 1.65 5.36 5.36 0 0 1 1.2 2.19 2 2 0 0 1 -.94 1.86l-24.8 20.16a1.92 1.92 0 0 1 -2 .53 6.89 6.89 0 0 1 -3.12-3.84 1.94 1.94 0 0 1 .94-1.86l10.09-8.19-20.29-25-10.08 8.16a2 2 0 0 1 -2 .54 5.72 5.72 0 0 1 -1.93-1.66 5.32 5.32 0 0 1 -1.19-2.19 1.94 1.94 0 0 1 .94-1.85l24.78-20.14a2 2 0 0 1 2-.53 5.3 5.3 0 0 1 1.89 1.62 5.45 5.45 0 0 1 1.23 2.22 2 2 0 0 1 -.94 1.86z"/><path d="m162.65 458.73-3.43 4.74a3.28 3.28 0 0 0 0 3.4c.63 1.4 2.14 3 4.51 4.68l19.37 14c.65.47.95 1 .88 1.47a4.14 4.14 0 0 1 -.88 1.86 4.42 4.42 0 0 1 -1.47 1.41 1.63 1.63 0 0 1 -1.69-.36l-19.53-14.12q-12-8.67-6.55-16.21l10.34-14.3q5.46-7.55 17.45 1.13l6 4.37a1.57 1.57 0 0 1 .84 1.44 5.63 5.63 0 0 1 -2.37 3.28 1.58 1.58 0 0 1 -1.63-.35l-5.88-4.24q-3.56-2.58-5.84-2.84a3.24 3.24 0 0 0 -3.25 1.08l-3.75 5.18 26.3 19c.65.47.94 1 .88 1.47a4.24 4.24 0 0 1 -.88 1.86 4.33 4.33 0 0 1 -1.49 1.43 1.66 1.66 0 0 1 -1.67-.38z"/><path d="m203.55 501q-13.77-5.4-10.34-14l6.49-16.42q3.42-8.64 17.18-3.21l22.78 9c.75.3 1.15.7 1.22 1.21a5.73 5.73 0 0 1 -1.49 3.77 1.64 1.64 0 0 1 -1.71 0l-22.6-8.93c-2.73-1.08-4.85-1.51-6.37-1.31a3.25 3.25 0 0 0 -2.88 1.85l-6.49 16.41a3.27 3.27 0 0 0 .85 3.29q1.44 1.81 5.53 3.43l22.65 9c.74.29 1.14.69 1.19 1.2a4.6 4.6 0 0 1 -.42 2 4.55 4.55 0 0 1 -1.06 1.73 1.55 1.55 0 0 1 -1.7.08z"/><path d="m246.68 492.52 28-10.55a5 5 0 0 1 1.59-.34 16.25 16.25 0 0 1 2.52.19 3.21 3.21 0 0 1 1.81.83 2 2 0 0 1 .56 1.81 2.51 2.51 0 0 1 -1.89 2.07l-28.27 9.75 25.47 17.57a2.48 2.48 0 0 1 1.28 2.49 2 2 0 0 1 -1 1.61 3.15 3.15 0 0 1 -2 .31 15.46 15.46 0 0 1 -2.48-.48 4.92 4.92 0 0 1 -1.44-.75l-25.07-18-1.72 12.68c-.13 1-.49 1.55-1.09 1.77a5.6 5.6 0 0 1 -2.54.12 5.47 5.47 0 0 1 -2.37-.78 2 2 0 0 1 -.59-2l4.28-31.66c.13-1 .49-1.55 1.1-1.77a5.4 5.4 0 0 1 2.49-.12 5.57 5.57 0 0 1 2.41.78 2 2 0 0 1 .59 2z"/><path d="m299.88 516.84q-14.73 1.56-15.71-7.68l-2.63-24.66a1.94 1.94 0 0 1 .64-2 5.42 5.42 0 0 1 2.39-.71 5.52 5.52 0 0 1 2.53.19q.9.35 1 1.8l2.63 24.66a3.28 3.28 0 0 0 2.27 2.56q2.08.93 6.46.47l24.36-2.61a1.61 1.61 0 0 1 1.62.51 4.54 4.54 0 0 1 .55 1.93 4.68 4.68 0 0 1 -.13 2.07c-.18.49-.67.78-1.46.86z"/><path d="m334.12 495.82 2 5.5c.36 1 1.3 1.64 2.82 1.9s3.65-.1 6.4-1.1l22.46-8.12a1.66 1.66 0 0 1 1.72.1 4.31 4.31 0 0 1 1 1.78 4.46 4.46 0 0 1 .33 2c-.08.52-.49.92-1.24 1.19l-22.61 8.2q-13.92 5-17.09-3.71l-6-16.59q-3.17-8.75 10.75-13.78l7-2.54a1.62 1.62 0 0 1 1.67.11 5.71 5.71 0 0 1 1.38 3.81c-.08.51-.48.89-1.21 1.16l-6.81 2.46q-4.14 1.5-5.64 3.24a3.25 3.25 0 0 0 -.93 3.29l2.18 6 30.51-11.05a1.64 1.64 0 0 1 1.71.1 5.66 5.66 0 0 1 1.38 3.8c-.09.51-.5.9-1.25 1.17z"/><path d="m361.22 466.07a2.05 2.05 0 0 1 .62-3.23l23.09-16a29.83 29.83 0 0 1 5.36-3 16.8 16.8 0 0 1 4.73-1.3 8.33 8.33 0 0 1 3.86.43 5.8 5.8 0 0 1 2.75 2.17l3.59 5.18a5.8 5.8 0 0 1 1.06 3.33 8.31 8.31 0 0 1 -.95 3.76 16.69 16.69 0 0 1 -2.87 4 30.12 30.12 0 0 1 -4.71 4l-1.64 1.14-3.11 2.09-2.37 1.61c-.7.47-1.33.87-1.89 1.22l-1.66 1v.09l1.78-.47c.63-.18 1.41-.38 2.34-.62s2.06-.52 3.4-.84 3-.71 5-1.16l12.66-2.88a2.29 2.29 0 0 1 2.6.94 2 2 0 0 1 .33 2 5.19 5.19 0 0 1 -1.79 1.85l-.73.48c-.3.18-.61.36-.94.52a9.88 9.88 0 0 1 -1 .45 3 3 0 0 1 -1 .22l-31.25 6.27 6.27 9a2 2 0 0 1 .39 2 5.51 5.51 0 0 1 -1.8 1.79 5.44 5.44 0 0 1 -2.27 1 2 2 0 0 1 -1.78-1.08zm7.23-1.24 6.72 9.69 19.07-13.22a31.45 31.45 0 0 0 3.33-2.61 11.13 11.13 0 0 0 1.81-2.08 3.11 3.11 0 0 0 .62-1.61 2.15 2.15 0 0 0 -.4-1.27l-3.07-4.44a2.27 2.27 0 0 0 -1-.8 3 3 0 0 0 -1.74 0 11.21 11.21 0 0 0 -2.58 1 30 30 0 0 0 -3.62 2.21z"/><path d="m422 440.31q-9.6 11.26-16.68 5.24l-1.48-1.27q-7.08-6 2.52-17.3l3.24-3.8a1.65 1.65 0 0 1 1.54-.76 4.27 4.27 0 0 1 1.78 1 4.31 4.31 0 0 1 1.3 1.6 1.65 1.65 0 0 1 -.51 1.64l-3.34 3.92c-1.9 2.23-3 4.06-3.18 5.47a3.25 3.25 0 0 0 .93 3.19l1.48 1.26a3.29 3.29 0 0 0 3.28.4q2.05-.65 4.91-4l7.65-9q9.61-11.26 16.68-5.23l1.91 1.62q7.08 6-2.52 17.3l-15.89 18.65a1.67 1.67 0 0 1 -1.54.76 4.42 4.42 0 0 1 -1.78-1 4.31 4.31 0 0 1 -1.3-1.6 1.65 1.65 0 0 1 .51-1.64l16-18.76c1.91-2.23 3-4.06 3.19-5.47a3.29 3.29 0 0 0 -.93-3.19l-1.91-1.62a3.26 3.26 0 0 0 -3.27-.39c-1.38.43-3 1.76-4.92 4z"/><path d="m137.76 126.14 18.18 18.79a1.76 1.76 0 0 1 .65 1.78 6.4 6.4 0 0 1 -3.24 3.14 1.79 1.79 0 0 1 -1.76-.71l-18.18-18.79-9.85 9.53a1.49 1.49 0 0 1 -1.46.56 3.94 3.94 0 0 1 -1.53-1.09 4 4 0 0 1 -1-1.56 1.49 1.49 0 0 1 .61-1.44l24.05-23.35a1.51 1.51 0 0 1 1.46-.56 3.94 3.94 0 0 1 1.53 1.09 4 4 0 0 1 1 1.56 1.48 1.48 0 0 1 -.61 1.44z"/><path d="m180.58 127.69q-11.47 7.08-15.92-.12l-11.88-19.22a1.79 1.79 0 0 1 -.25-1.88 6.4 6.4 0 0 1 3.84-2.37c.58 0 1.1.32 1.57 1.07l11.87 19.22a3 3 0 0 0 2.85 1.18 12.14 12.14 0 0 0 5.49-2.16l11.62-7.18c2.28-1.41 3.74-2.72 4.39-4a3 3 0 0 0 .22-3.07l-11.88-19.16a1.79 1.79 0 0 1 -.25-1.88 5 5 0 0 1 1.75-1.56 4.93 4.93 0 0 1 2.12-.82c.58 0 1.1.31 1.57 1.06l11.84 19.2q4.46 7.22-7 14.3z"/><path d="m242.34 100.42a9.51 9.51 0 0 1 -1 .29 2.45 2.45 0 0 1 -.81 0 4.12 4.12 0 0 1 -.88-.21c-.33-.1-.73-.25-1.21-.44l-34.44-13.74 7.31 22.1a1.77 1.77 0 0 1 -.19 1.88 5.11 5.11 0 0 1 -2 1.11 4.93 4.93 0 0 1 -2.25.31c-.58-.1-1-.57-1.28-1.4l-9.14-27.63a1.84 1.84 0 0 1 .15-1.86 4.46 4.46 0 0 1 1.9-1.08 6.08 6.08 0 0 1 2.37-.38 8.14 8.14 0 0 1 2.22.64l34 13.8-7.32-22.14a1.75 1.75 0 0 1 .19-1.88 4.82 4.82 0 0 1 2-1.1 5 5 0 0 1 2.29-.32c.58.1 1 .56 1.28 1.4l9.14 27.63a1.8 1.8 0 0 1 -.19 1.89 5.27 5.27 0 0 1 -2.14 1.13z"/><path d="m287.37 86.9a7 7 0 0 1 -2.87 6.7q-3.25 2.33-9.88 2.9l-13.75 1.18q-13.44 1.16-14.16-7.29l-1.37-16q-.74-8.45 12.7-9.59l6.4-.55a1.52 1.52 0 0 1 1.49.49 5.24 5.24 0 0 1 .31 3.68 1.5 1.5 0 0 1 -1.38.73l-6.21.53a12.49 12.49 0 0 0 -5.72 1.52 2.94 2.94 0 0 0 -1.6 2.68l1.37 16a3 3 0 0 0 2 2.34 12.25 12.25 0 0 0 5.9.54l13.4-1.15c2.66-.22 4.56-.74 5.69-1.54a3 3 0 0 0 1.58-2.65l-.69-8.07a1.77 1.77 0 0 1 .6-1.79 4.73 4.73 0 0 1 2.21-.6 5.07 5.07 0 0 1 2.33.21 1.77 1.77 0 0 1 .94 1.65z"/><path d="m303.4 97.39q-13.33-2-12.09-10.36l3.32-22.35a1.79 1.79 0 0 1 1-1.6 6.46 6.46 0 0 1 4.46.67 1.76 1.76 0 0 1 .51 1.82l-3.3 22.35a3 3 0 0 0 1.41 2.74c1.08.87 3 1.5 5.59 1.89l13.52 2a12.18 12.18 0 0 0 5.9-.18 3 3 0 0 0 2.14-2.22l3.32-22.35q.19-1.31 1-1.59a4.92 4.92 0 0 1 2.32-.07 4.85 4.85 0 0 1 2.15.73 1.8 1.8 0 0 1 .51 1.83l-3.32 22.34q-1.25 8.39-14.58 6.4z"/><path d="m350.15 93.61q-12.58-4.83-9.55-12.74l.64-1.66q3-7.9 15.63-3.07l4.25 1.63c.68.26 1.05.63 1.12 1.09a5.21 5.21 0 0 1 -1.33 3.45 1.48 1.48 0 0 1 -1.56 0l-4.35-1.63q-3.74-1.44-5.66-1.08a3 3 0 0 0 -2.46 1.76l-.66 1.64a3 3 0 0 0 .65 2.94q1.17 1.58 4.92 3l10 3.86q12.58 4.83 9.54 12.75l-.82 2.12q-3 7.9-15.62 3.07l-20.83-8c-.68-.26-1-.62-1.12-1.09a3.87 3.87 0 0 1 .34-1.84 4 4 0 0 1 1-1.6 1.5 1.5 0 0 1 1.56-.06l21 8.06q3.75 1.44 5.66 1.08a3 3 0 0 0 2.46-1.77l.82-2.12a3 3 0 0 0 -.65-2.94q-1.19-1.58-4.92-3z"/><path d="m385 103.43 27.18 2.27a4.21 4.21 0 0 1 1.43.34 13 13 0 0 1 2 1.14 2.86 2.86 0 0 1 1.16 1.38 1.79 1.79 0 0 1 -.25 1.72 2.27 2.27 0 0 1 -2.36 1l-27.07-3 14.11 24.41a2.3 2.3 0 0 1 .07 2.56 1.79 1.79 0 0 1 -1.47.91 2.89 2.89 0 0 1 -1.73-.5 13.53 13.53 0 0 1 -1.85-1.37 4.22 4.22 0 0 1 -.89-1.18l-13.62-24.58-6.36 9.77a1.79 1.79 0 0 1 -1.6 1 4.93 4.93 0 0 1 -2.13-.9 4.85 4.85 0 0 1 -1.64-1.56 1.77 1.77 0 0 1 .29-1.88l15.89-24.38c.48-.74 1-1.08 1.59-1a4.88 4.88 0 0 1 2.1.87 5 5 0 0 1 1.65 1.55 1.76 1.76 0 0 1 -.3 1.87z"/><path d="m439.9 129.66a4.9 4.9 0 0 1 1.2 1.84 3.62 3.62 0 0 1 .11 1.82l-6.69 34a1.92 1.92 0 0 1 -.54.95 1.76 1.76 0 0 1 -.89.45 2.72 2.72 0 0 1 -1.1 0 4.31 4.31 0 0 1 -2.05-1.15 3 3 0 0 1 -.64-1 2 2 0 0 1 -.09-1.11l1.93-9.3-17.53-18.28-9.16 1.78a1.69 1.69 0 0 1 -1.09-.12 3 3 0 0 1 -.92-.66 4 4 0 0 1 -.66-1 3.72 3.72 0 0 1 -.36-1.13 3.1 3.1 0 0 1 0-1.1 1.7 1.7 0 0 1 .5-.89 2 2 0 0 1 .95-.46l33.37-6.15a3.28 3.28 0 0 1 1.8.17 5.21 5.21 0 0 1 1.86 1.34zm-20.57 7.05 13 13.57 3.53-16.78z"/></g></svg>