<?xml version="1.0" encoding="UTF-8"?><svg id="Capa_1" xmlns="http://www.w3.org/2000/svg" viewBox="0 0 566.93 566.93"><defs><style>.cls-1{font-size:34px;}.cls-1,.cls-2{fill:#fff;font-family:Tahoma-Bold, Tahoma;font-weight:700;}.cls-3{fill:#35495e;}.cls-3,.cls-4,.cls-5{stroke-width:0px;}.cls-4{fill:#be1622;}.cls-5{fill:#f1c410;}.cls-2{font-size:35px;}</style></defs><path class="cls-3" d="M284.4,4.35c-.31,0-.63-.01-.94-.01C129.31,4.34,4.34,129.31,4.34,283.46s124.97,279.13,279.13,279.13c.31,0,.63-.01.94-.01,153.72-.51,278.19-125.27,278.19-279.12S438.13,4.86,284.4,4.35Z"/><path class="cls-4" d="M284.17,75.16c-.23,0-.47,0-.7,0-115.05,0-208.32,93.27-208.32,208.32s93.27,208.32,208.32,208.32c.23,0,.47,0,.7,0,114.73-.38,207.62-93.49,207.62-208.31s-92.89-207.93-207.62-208.31Z"/><path class="cls-5" d="M480.9,86.03c52.74,52.74,81.78,122.86,81.78,197.43s-29.04,144.7-81.78,197.43c-52.74,52.74-122.85,81.78-197.43,81.78s-144.69-29.04-197.43-81.78C33.29,428.16,4.25,358.05,4.25,283.46s29.04-144.69,81.78-197.43C138.77,33.3,208.89,4.26,283.46,4.26s144.69,29.04,197.43,81.77ZM556.68,283.46c0-150.65-122.57-273.21-273.22-273.21S10.24,132.81,10.24,283.46s122.57,273.22,273.22,273.22,273.22-122.56,273.22-273.22Z"/><path class="cls-5" d="M430.76,136.16c39.35,39.35,61.02,91.66,61.02,147.3s-21.67,107.96-61.02,147.3c-39.35,39.35-91.65,61.02-147.3,61.02s-107.95-21.67-147.3-61.02c-39.35-39.34-61.02-91.65-61.02-147.3s21.67-107.95,61.02-147.3c39.35-39.34,91.66-61.01,147.3-61.01s107.95,21.67,147.3,61.01ZM487.31,283.46c0-112.4-91.45-203.84-203.84-203.84s-203.84,91.44-203.84,203.84,91.45,203.84,203.84,203.84,203.84-91.44,203.84-203.84Z"/><path class="cls-5" d="M293.83,109.27l-.02-.05c-3.16.04-6.32.08-9.49.12-1.01-2.98-2.01-5.94-3.01-8.9,0-.05,0-.08-.06-.08-.04.02-.05.05-.04.09-.93,2.99-1.86,5.98-2.79,8.98-3.17.04-6.33.08-9.56.12,2.64,1.87,5.22,3.69,7.8,5.52-.94,3.03-1.87,6.03-2.81,9.03.02,0,.03.02.05.03,2.53-1.88,5.05-3.76,7.58-5.65,2.58,1.83,5.15,3.64,7.72,5.45.01-.01.03-.03.04-.04-1.01-2.98-2.02-5.96-3.03-8.94,2.55-1.9,5.08-3.78,7.6-5.67Z"/><path class="cls-5" d="M325.82,115.03v-.05c-3.11-.6-6.21-1.21-9.32-1.81-.38-3.12-.76-6.23-1.14-9.33.02-.05.01-.08-.04-.09-.04.01-.06.04-.05.08-1.52,2.74-3.03,5.48-4.55,8.23-3.12-.61-6.21-1.21-9.38-1.83,2.21,2.37,4.36,4.68,6.52,6.99-1.54,2.77-3.06,5.52-4.59,8.27.01.01.03.02.04.03,2.86-1.33,5.71-2.66,8.57-3.99,2.16,2.31,4.3,4.61,6.45,6.91.02,0,.03-.02.05-.03-.38-3.12-.76-6.24-1.15-9.37,2.88-1.34,5.74-2.67,8.6-4Z"/><path class="cls-5" d="M356.18,126.91v-.05c-2.89-1.27-5.78-2.54-8.68-3.82.32-3.13.63-6.24.95-9.35.03-.04.03-.08-.02-.1-.04,0-.06.02-.07.06-2.08,2.34-4.16,4.68-6.25,7.02-2.91-1.28-5.79-2.55-8.75-3.85,1.63,2.79,3.23,5.52,4.82,8.25-2.11,2.37-4.2,4.71-6.29,7.06.01.01.02.03.03.04,3.08-.67,6.16-1.34,9.24-2.01,1.6,2.73,3.18,5.45,4.77,8.16.02,0,.04-.01.05-.02.31-3.13.63-6.26.94-9.39,3.1-.67,6.19-1.34,9.27-2.01Z"/><path class="cls-5" d="M236.81,116.14v-.05c3.09-.68,6.18-1.36,9.27-2.05.3-3.13.6-6.24.9-9.35-.02-.05-.01-.08.04-.1.04.01.06.04.05.07,1.58,2.7,3.17,5.4,4.76,8.11,3.1-.68,6.18-1.36,9.33-2.06-2.15,2.42-4.24,4.79-6.34,7.15,1.61,2.73,3.2,5.44,4.79,8.15-.01.01-.03.02-.04.04-2.89-1.26-5.77-2.51-8.67-3.77-2.1,2.37-4.19,4.72-6.27,7.07-.02,0-.03-.02-.05-.03.3-3.13.61-6.26.91-9.4-2.91-1.27-5.8-2.53-8.7-3.79Z"/><path class="cls-5" d="M206.76,128.78v-.05c2.86-1.34,5.72-2.69,8.58-4.03-.4-3.12-.79-6.22-1.18-9.32-.03-.04-.03-.08.02-.1.04,0,.06.02.07.06,2.14,2.28,4.28,4.57,6.43,6.86,2.87-1.35,5.73-2.69,8.65-4.06-1.56,2.83-3.09,5.6-4.61,8.37,2.17,2.31,4.32,4.61,6.47,6.9-.01.01-.02.03-.03.04-3.09-.59-6.19-1.18-9.29-1.77-1.53,2.77-3.04,5.52-4.56,8.28-.02,0-.04-.01-.05-.02-.39-3.12-.79-6.24-1.18-9.37-3.12-.6-6.22-1.19-9.32-1.78Z"/><path class="cls-5" d="M298.28,464.25l-.02.05c-3.16.04-6.32.08-9.49.12-.93,3.01-1.86,5.99-2.78,8.97.01.05,0,.08-.06.09-.04-.02-.05-.05-.04-.08-1-2.97-2-5.93-3.01-8.91-3.17.04-6.33.08-9.56.12,2.59-1.93,5.13-3.82,7.66-5.71-1.02-3-2.03-5.98-3.03-8.96.02,0,.03-.02.05-.03,2.57,1.82,5.14,3.64,7.72,5.46,2.54-1.89,5.06-3.77,7.58-5.65.01.01.03.03.04.04-.93,3-1.87,6.01-2.8,9.01,2.59,1.83,5.17,3.66,7.74,5.48Z"/><path class="cls-5" d="M330.12,457.7v.05c-3.09.68-6.18,1.36-9.27,2.05-.3,3.13-.6,6.24-.9,9.35.02.05.01.08-.04.1-.04-.01-.06-.04-.05-.07-1.58-2.7-3.17-5.4-4.76-8.11-3.1.68-6.18,1.36-9.33,2.06,2.15-2.42,4.24-4.79,6.34-7.15-1.61-2.73-3.2-5.44-4.79-8.15.01-.01.03-.02.04-.04,2.89,1.26,5.77,2.51,8.67,3.77,2.1-2.37,4.19-4.72,6.27-7.07.02,0,.03.02.05.03-.3,3.13-.61,6.26-.91,9.4,2.91,1.27,5.8,2.53,8.7,3.79Z"/><path class="cls-5" d="M360.17,445.06v.05c-2.86,1.34-5.72,2.69-8.58,4.03.4,3.12.79,6.22,1.18,9.32.03.04.03.08-.02.1-.04,0-.06-.02-.07-.06-2.14-2.28-4.28-4.57-6.43-6.86-2.87,1.35-5.73,2.69-8.65,4.06,1.56-2.83,3.09-5.6,4.61-8.37-2.17-2.31-4.32-4.61-6.47-6.9.01-.01.02-.03.03-.04,3.09.59,6.19,1.18,9.29,1.77,1.53-2.77,3.04-5.52,4.56-8.28.02,0,.04.01.05.02.39,3.12.79,6.24,1.18,9.37,3.12.6,6.22,1.19,9.32,1.78Z"/><path class="cls-5" d="M241.11,458.82v.05c3.11.6,6.21,1.21,9.32,1.81.38,3.12.76,6.23,1.14,9.33-.02.05-.01.08.04.09.04-.01.06-.04.05-.08,1.52-2.74,3.03-5.48,4.55-8.23,3.12.61,6.21,1.21,9.38,1.83-2.21-2.37-4.36-4.68-6.52-6.99,1.54-2.77,3.06-5.52,4.59-8.27-.01-.01-.03-.02-.04-.03-2.86,1.33-5.71,2.66-8.57,3.99-2.16-2.31-4.3-4.61-6.45-6.91-.02,0-.03.02-.05.03.38,3.12.76,6.24,1.15,9.37-2.88,1.34-5.74,2.67-8.6,4Z"/><path class="cls-5" d="M210.75,446.94v.05c2.89,1.27,5.78,2.54,8.68,3.82-.32,3.13-.63,6.24-.95,9.35-.03.04-.03.08.02.1.04,0,.06-.02.07-.06,2.08-2.34,4.16-4.68,6.25-7.02,2.91,1.28,5.79,2.55,8.75,3.85-1.63-2.79-3.23-5.52-4.82-8.25,2.11-2.37,4.2-4.71,6.29-7.06-.01-.01-.02-.03-.03-.04-3.08.67-6.16,1.34-9.24,2.01-1.6-2.73-3.18-5.45-4.77-8.16-.02,0-.04.01-.05.02-.31,3.13-.63,6.26-.94,9.39-3.1.67-6.19,1.34-9.27,2.01Z"/><path class="cls-3" d="M321.72,430.66c-2.31,2.27-4.47,4.39-6.77,6.65-2.96-2.87-5.81-5.96-9.06-8.65-4.22-3.49-8.51-6.88-12.97-10.07-2.8-2-5.78-3.67-9.29-4.15-1.03-.14-1.94.03-2.84.54-9.37,5.36-17.95,11.77-25.6,19.4-.65.65-1.33,1.27-2,1.91-2.01-2.11-3.98-4.19-5.98-6.29,8.3-7.24,17.76-13.38,28.29-18.42-1.31-1.28-2.53-1.1-3.63-1.07-6.21.18-11.61,2.69-16.66,6.07-7.33,4.91-14.4,10.26-22.57,13.78-20.24,8.71-40.16,3.29-55.02-11.69-.41-.41-.75-.89-1.29-1.53,1.38-.23,2.29.41,3.22.87,7.17,3.53,14.71,5.4,22.72,4.92,7.3-.44,14.24-2.35,20.95-5.29,9.64-4.23,19.33-8.48,29.69-10.6,8.06-1.65,16.48-2.31,24.33-.08,5.85,1.66,10.82.06,16.16-.79,11.18-1.78,22.04-.47,32.65,3.38,7.55,2.74,14.74,6.44,22.33,9.02,10.98,3.74,22.22,4.01,33.45.83,2.61-.74,4.92-2.2,7.37-3.34.64-.3,1.25-.7,2-.66.25.73-.26,1.07-.59,1.4-7.57,7.64-16.27,13.53-26.97,15.59-11.75,2.26-23.09.4-33.79-4.99-5.54-2.79-10.75-6.14-15.73-9.85-3.24-2.41-6.71-4.4-10.47-5.89-3.65-1.44-7.33-1.35-11.22-.25,10.52,5.2,20.06,11.85,29.28,19.27Z"/><path class="cls-3" d="M387.48,385.44c8.99-7.8,19.24-13.57,29.93-18.62,9.2-4.34,17.24-10.11,23.76-17.96,1.81-2.18,2.94-4.79,4.7-7.32.21.96-.03,1.6-.19,2.28-3.24,14-11.05,24.99-22.11,33.92-9.4,7.59-19.78,13-31.8,14.91-5.79.92-11.58,1.78-17.23,3.35-1.69.47-3.26,1.51-5.14,1.12-.24-.37.01-.63.23-.84,8.05-7.97,12.47-17.92,15.86-28.52,3.02-9.46,6.19-18.91,11.8-27.26,2.61-3.88,5.35-7.67,8.04-11.49.33-.48.67-.99,1.37-1.04.71.5.5,1.19.28,1.77-2.96,7.9-4,16.22-5.21,24.47-1.74,11.85-6.38,22.18-14.66,30.86-.25.32-.77.53-.49,1.09-.08.02-.16.03-.12.03-.03.02.03-.02.1-.06.44-.04.68-.35.88-.7Z"/><path class="cls-3" d="M181.17,387.65c-.63-.66-1.21-1.39-1.91-1.97-10.05-8.28-13.05-19.78-14.82-31.92-.95-6.51-2.14-12.98-4.14-19.27-.45-1.41-1.15-2.81-.84-4.36.51-.19.88.06,1.08.37,3.32,5.15,7.64,9.58,10.66,14.95,4.84,8.6,7.96,17.88,11.11,27.17,2.71,7.99,6.74,15.28,12.03,21.85.94,1.17,2.01,2.23,3.57,3.06-1.45.8-2.67.34-3.82.08-8.53-1.95-17.22-3.14-25.73-5.12-14.84-3.45-26.49-11.99-36.07-23.55-4.67-5.63-8.07-12.01-10.49-18.9-.6-1.7-.84-3.53-1.26-5.38.64.12.79.52.97.85,5.16,9.28,13.09,15.54,22.3,20.37,4.43,2.32,8.93,4.51,13.45,6.65,6.48,3.06,12.06,7.51,18,11.41,1.93,1.26,3.78,2.64,5.66,3.96.15.06.3.13.45.19.14-.31-.04-.37-.2-.44Z"/><path class="cls-3" d="M402.65,368.75c1.04-3.01,2.69-5.42,3.48-8.22,2.38-8.45,4.08-17.01,4.57-25.8.5-9.02,1.39-18.02,3.01-26.89,1-5.44,2.3-10.92,5.23-15.98.11.84.33,1.69.32,2.53-.13,7.91,1.56,15.59,3.07,23.27,2.11,10.7,1.19,20.95-3.78,30.75-.11.22-.19.45-.01.87.75-1,1.51-1.98,2.24-2.99.77-1.07,1.56-2.13,2.26-3.25,4.03-6.48,9.16-12.05,14.35-17.59,4.86-5.19,10.04-10.14,13.93-16.15,2.38-3.68,4-7.68,4.59-12.07.1-.77.11-1.59,1.08-2.16,1.24,2.82.85,5.71.69,8.56-1.08,18.98-10.32,33.62-24.75,45.2-9.26,7.42-19.42,13.6-29.54,19.77-.1.06-.25.05-.74.14Z"/><path class="cls-3" d="M109.7,298.05c1.02,2.46,1.1,4.94,2.1,7.19,2.32,5.22,5.29,9.98,9.23,14.14,7.08,7.46,14.41,14.7,20.71,22.87,1.58,2.05,2.8,4.31,4.27,6.42.62.9,1.15,1.89,2.18,2.52.28-.82-.3-1.3-.61-1.81-3.01-4.8-3.75-10.15-4.07-15.68-.53-9.45.96-18.64,2.92-27.81.58-2.7,1.02-5.44,1.08-8.22,0-.45,0-.94.51-1.35,1.24.58,1.45,1.87,1.82,2.97,1.78,5.19,2.63,10.59,3.57,15.97,1.8,10.27,2.14,20.71,3.52,31.02.97,7.27,2.42,14.41,5.89,20.99.52.99.89,2.05,1.3,3.09.06.16,0,.37,0,.65-.9.2-1.5-.4-2.12-.8-9.56-6.22-19.29-12.19-28.32-19.16-10.71-8.26-19.06-18.38-22.73-31.72-1.72-6.27-2.05-12.73-1.84-19.22.02-.65,0-1.33.58-2.06Z"/><path class="cls-3" d="M323.84,405.53c2.03-.89,3.9-.87,5.67-1.28,8.34-1.94,15.25-6.46,21.51-12.04,8.46-7.55,16.36-15.72,25.01-23.09,2.15-1.83,4.35-3.58,6.97-4.92.27.73-.09,1.14-.35,1.54-2.87,4.45-4.97,9.28-7.13,14.08-2.2,4.9-5.09,9.4-8.41,13.58-3.52,4.43-8.58,6.65-13.62,8.83-.52.22-1.05.4-1.55.78,3.67.24,7.26-.41,10.86-.81,8.45-.95,16.88-2,25.32-2.98,7.57-.88,14.94-2.44,21.7-6.19,1.99-1.1,3.68-2.54,5.36-4.02,1.52-1.35,3.04-2.7,4.73-3.91-.99,2.93-2.56,5.55-4.49,7.89-8.94,10.85-20.14,18.11-34.1,20.61-8.21,1.47-16.41.67-24.58-.76-9.21-1.62-18.2-4.26-27.39-5.97-1.75-.32-3.72.27-5.5-1.33ZM351.15,403.3s-.09-.03-.13-.05c.03.05.05.1.08.14l.05-.1Z"/><path class="cls-3" d="M146.87,387.6c1.74.46,2.64,1.46,3.6,2.29,6.69,5.81,14.65,8.74,23.24,10.08,9.25,1.44,18.64,1.65,27.93,2.79,3.86.47,7.72.93,11.58,1.4.81.1,1.62.28,2.51.07-.4-.83-1.15-.84-1.73-1-7.62-2.11-13.31-6.7-17.48-13.34-3.33-5.31-6.04-10.95-9-16.46-1.39-2.58-3.26-4.9-4.5-7.84,1.48-.09,2.3.76,3.15,1.37,5.06,3.61,9.64,7.79,14.19,12.01,5.56,5.16,11.09,10.36,16.63,15.53,3.28,3.06,7.07,5.24,11.26,6.8,4.67,1.75,9.28,3.68,14.2,5.15-2.9.64-5.8,1.23-8.68,1.93-7.1,1.72-14.13,3.77-21.29,5.18-10.6,2.08-21.31,3.06-31.95.17-12.56-3.41-22.41-10.84-30.33-20.99-1.16-1.49-2.37-2.99-3.33-5.16Z"/><path class="cls-3" d="M113.11,248.24c.29,3.14.51,6.29.87,9.42.79,6.91,3.8,13.09,6.41,19.41,2.9,7.04,6.68,13.75,7.94,21.4.51,3.08.91,6.2,1.92,9.45.82-.97.56-1.85.58-2.65.11-4.73-.66-9.56,1-14.13,4.37-12.09,9.76-23.72,16.23-34.84.34-.59.6-1.33,1.42-1.54.53.64.31,1.39.35,2.09.42,6.44-.91,12.72-1.77,19.05-1.26,9.17-4.2,17.93-6.86,26.73-1.66,5.48-2.75,10.96-2.86,16.67-.06,3.23.15,6.47-.36,9.68-.07.44,0,.94-.46,1.25-.52.2-.71-.22-.89-.54-3.19-5.67-7.64-10.37-11.67-15.41-9.07-11.34-14.3-24.24-15.56-38.81-.77-8.89.59-17.45,2.8-25.97.11-.43.32-.84.48-1.25.14,0,.29,0,.43,0Z"/><path class="cls-3" d="M428.73,327.89c-.71-1.32-.57-2.66-.43-3.96.84-7.82-.44-15.31-2.9-22.74-4.27-12.89-7.61-26.02-9.32-39.52-.23-1.84-.22-3.68-.17-5.53.02-.88.32-1.63,1.1-2.38,2.91,6.95,6.33,13.44,10.4,19.55,1.76,2.65,3.08,5.49,4.53,8.3,3,5.78,4.04,11.91,4.11,18.31,0,.72-.2,1.57.7,2.34,1.18-6.33,2.88-12.31,5.27-18.07,2.57-6.19,5.59-12.2,7.4-18.7,1.65-5.93,2.67-11.95,2.93-18.1.03-.65-.09-1.33.36-1.9,1.14,1.46,2.39,4.83,3.09,8.88,2.58,15,.95,29.53-5.16,43.5-1.54,3.52-4.01,6.5-6.26,9.58-4.69,6.45-9.46,12.84-14.21,19.25-.34.46-.6,1.03-1.42,1.19Z"/><path class="cls-3" d="M433.28,198.79c3.47,3.4,5.95,7.17,8.18,11.14,6.01,10.74,7.38,22.36,6.65,34.41-.31,5.11-1.6,9.97-3.39,14.75-2.43,6.48-3.21,13.43-5.49,19.96-.45,1.29-.83,2.6-1.62,3.8-.64-.51-.68-1.18-.86-1.77-3-9.95-8.66-18.39-14.83-26.58-4.63-6.15-9.47-12.19-12.26-19.49-1.48-3.87-3.09-7.69-3.86-11.79-.18-.94-.48-1.88-.21-2.82.69-.2.94.24,1.22.59,4.58,5.84,10.18,10.67,15.57,15.72,4.25,3.98,8.22,8.19,10.79,13.51,1.06,2.2,1.57,4.59,2.3,6.99.59-.75.49-1.57.49-2.32.08-13.52.44-27.02.94-40.53.17-4.61-1.09-8.84-3.17-12.89-.37-.71-.99-1.4-.43-2.66Z"/><path class="cls-3" d="M128.55,284.95c-1.82-11.28-6.9-21.31-9.65-32.04-2.7-10.54-2.45-21.33.71-31.66,2.03-6.61,5.58-12.79,10.16-18.18.41-.48.77-1.1,1.53-1.16.42.48.02.92-.15,1.26-3.52,7.08-3.92,14.68-2.95,22.23,1.49,11.68,2.62,23.31,1.33,35.08-.06.5-.22,1.04.3,1.74.73-3.07,1.45-5.98,2.65-8.73,3.6-8.24,9.38-14.77,16.18-20.44,3.16-2.63,6.18-5.32,8.65-8.62.42-.56.81-1.22,1.74-1.38.69,1.77.12,3.49-.35,5.13-2.54,8.73-6.46,16.72-11.8,24.16-4.91,6.83-9.77,13.75-13.72,21.23-1.55,2.93-2.37,6.13-3.48,9.22-.23.65-.32,1.38-1.16,2.15Z"/><path class="cls-3" d="M405.98,176.29c5.25.92,9.05,3.48,12.53,6.55,5.63,4.96,10.07,10.76,12.14,18.13.61,2.18.89,4.41.96,6.63.33,11.14.45,22.28.09,33.52-.22-.08-.46-.09-.52-.19-3.53-6.54-9.09-11.23-14.58-15.97-4.99-4.3-10.41-8.06-15.01-12.85-6.53-6.78-10.67-14.62-11.76-24.1.63.06.74.62,1.01.97.32.42.63.85.89,1.31,3.12,5.36,8.1,8.76,12.99,12.22,6.09,4.31,12.2,8.56,16.98,14.41.28.34.57.75,1.28.75-.36-2.82-1.36-5.44-2.05-8.14-1.48-5.8-3.03-11.58-4.64-17.34-1.23-4.42-3.09-8.53-6.46-11.81-1.22-1.19-2.34-2.48-3.85-4.1Z"/><path class="cls-3" d="M140.31,223.73c3.58-6.96,9.56-11.45,15.42-16.05,3.89-3.05,7.88-5.99,11.56-9.3,1.92-1.73,3.72-3.54,5.1-5.75.47-.76.95-1.6,2.16-1.62.4.83.18,1.62-.02,2.45-1.88,7.52-5.81,13.91-10.75,19.78-5.01,5.96-11.31,10.46-17.16,15.48-4.67,4-8.95,8.39-11.67,14.05-.13.27-.41.48-.63.73-.78-.47-.67-1.18-.63-1.79.55-7.87-.71-15.67-.92-23.5-.2-7.57.6-15.11,4.12-21.92,3.82-7.39,9.68-12.94,17.23-16.57.97-.47,1.98-1.04,3.21-.59-.04.24,0,.5-.11.59-5.79,4.7-8.4,11.18-9.93,18.18-1.85,8.43-4.1,16.73-6.81,24.92-.1.29-.11.62-.17.92Z"/><path class="cls-3" d="M415.98,205.69c-1.27.03-1.89-.74-2.59-1.29-10.9-8.74-20.77-18.44-28.73-30.01-2.83-4.12-5.96-8.03-9.74-11.37-.78-.69-1.52-1.46-1.82-2.97,10.62,3.8,21,7.49,28.74,15.88,7.73,8.37,10.99,18.96,14.14,29.78Z"/><path class="cls-3" d="M149.03,207.56c-.07-1.94.87-3.44,1.32-5.07.62-2.22,1.43-4.38,2.04-6.6,3.73-13.55,12.36-22.79,24.95-28.61,2.39-1.1,4.72-2.34,7.1-3.46,1.9-.89,3.84-1.64,6.3-1.43-.7.86-1.2,1.62-1.83,2.24-5.96,5.77-10.65,12.57-15.36,19.32-4.19,6.01-9.23,11.17-14.75,15.91-2.45,2.1-4.94,4.17-7.42,6.24-.65.54-1.24,1.17-2.36,1.45Z"/><path class="cls-5" d="M377.69,269.32c-1.44-13.78-4.3-27.54.55-42.43-6.63,6.42-8.06,13.94-10.82,20.91-.79-7.19-1.13-14.34-3.03-21.31-2.77-10.18-7.19-19.68-11.35-29.32-4.62-10.72-10.35-21.04-12.29-32.82-3.97,11.67-2.53,22.93,1.5,34.13,4.46,12.37,8.76,24.78,8.25,38.28-.23,6.05-1.49,11.88-2.57,16.87,0,.19-.09-.55.01-1.26,1.66-10.87.92-21.55-2.26-32.09-3.56-11.78-11.05-21.29-18.03-31.04-6.1-8.51-10.87-17.53-13.35-27.71-1.7-6.99-.24-14.2-1.46-21.59-1.55,5.22-3.51,10-4.35,14.97-2.42,14.33-.66,28.25,4.36,41.95,3.6,9.82,8.55,19.17,10.72,29.51,1.36,6.52,1.61,13.01-1.3,20.47-6.57-18.85-23.55-30.92-26.3-50.57-1.92.18-2.26,1.51-2.74,2.58-2.03,4.54-3.31,9.25-3.61,14.28-.51,8.76,1.84,17.19,2.61,25.8.81,9.05-1.09,17.34-6.49,25.29-12.49-11.19-15.35-25.26-14.5-40.83-7.38,8.66-12.2,18.46-15.87,29.81-5.02-12.16-3.46-23.11,1.01-33.99,3.57-8.68,8.3-16.91,10.16-26.25.18-.89-.1-2.29,1.57-2.37,2.07,4.84,1.97,10.15,3.21,16.5,6.59-25.28-4.58-44.64-16.54-64.27-.13.82-.31,1.26-.25,1.66.27,1.83.64,3.65.92,5.48,2.16,13.95,1.42,27.42-6.43,39.76-1.81,2.85-3.43,5.83-5.32,8.62-6.79,9.99-13.13,20.18-15.7,32.25-1.11-9.07.23-17.85,2.68-26.31,3.68-12.74,1.86-24.99-1.77-37.27-.66,11.18-2.59,22.08-6.97,32.39-3.37,7.95-7.15,15.72-10.68,23.6-3.62,8.08-6.2,16.48-7.41,26.4-2.6-8.8-6.23-15.91-12.73-21.37,2.23,8.33,2.38,16.65,1.62,24.96-.69,7.54-2.01,15.02-2.88,22.55-1.47,12.58.23,24.46,7.62,35.1,0,0,0,0,0,0,.06.15.12.29.18.44,1.58,3.74,5.61,11.65,7.96,14.98,3.26,4.61,6.97,8.83,11.07,12.7.16.15.32.3.47.45,1,.99,2.01,1.99,2.99,3,.33.34.65.68,1.01,1.06,0,0-.01.02-.02.03-.43.32-.86.63-1.28.94-1.6,1.04-3.15,2.14-4.45,3.55-.3.32-.59.65-.85.99-.66.82-1.23,1.67-1.59,2.63-.04.08-.08.15-.11.23-.42.97-.37,2-.24,2.99.28,3.18,1.52,6.02,3.14,8.68.73,1.2,1.36,2.63,2.51,3.36.04.05.08.09.12.14.66-.15,1.32-.28,1.98-.39.05,0,.11-.02.16-.03,4.81-.78,9.61-.56,14.38-.37,2.43.1,4.9.12,7.32.52,3.19.82,5.98,2.5,8.67,4.33,2,1.37,3.97,2.79,5.22,4.88.1,3.18-.49,6.2-1.11,9.2-.05.21-.1.41-.16.61-.61,2.2.03,3.68,1.61,4.94.79.78,1.73,1.32,2.54,1.31.65,0,1.08-.36,1.49-.75.11-.1.2-.22.29-.34.09-.09.17-.19.26-.3.99-1.16,2.03-1.89,3.1-2.19,1.1-.24,2.29-.14,3.28.36,2.22,1.11,2.9,3.05,2.94,5.34.02.98.17,1.59.57,1.97.5.58,1.38.51,2.89.81,1.59.32,2.48.49,3.12.31.8-.07,1.17-.58,1.57-1.79.15-.29.31-.61.49-.98.65-1.31,1.37-2.26,2.22-2.85.55-.33,1.18-.56,1.91-.67.23-.03.45-.05.67-.06.22,0,.44.02.67.06.73.11,1.36.34,1.91.67.85.59,1.57,1.54,2.22,2.85.18.37.34.69.49.98.41,1.22.78,1.72,1.57,1.79.63.17,1.53,0,3.12-.31,1.51-.3,2.39-.24,2.89-.81.4-.39.55-1,.57-1.97.04-2.29.72-4.23,2.94-5.34,1-.5,2.18-.61,3.29-.36,1.07.3,2.11,1.03,3.1,2.19.09.11.18.21.26.3.09.12.19.23.29.34.41.39.84.74,1.49.75.81,0,1.75-.53,2.54-1.31,1.58-1.26,2.21-2.74,1.61-4.94-.06-.2-.11-.41-.16-.61-.62-3.01-1.21-6.03-1.11-9.2,1.25-2.09,3.22-3.52,5.22-4.88,2.69-1.84,5.48-3.51,8.67-4.33,2.42-.4,4.89-.42,7.32-.52,4.77-.2,9.57-.41,14.38.37.05,0,.11.02.16.03.66.11,1.32.24,1.98.39.04-.05.08-.09.12-.14,1.15-.73,1.78-2.17,2.51-3.36,1.62-2.66,2.86-5.5,3.14-8.68.12-.98.17-2.02-.24-2.99-.03-.08-.07-.15-.11-.23-.36-.96-.93-1.82-1.59-2.63-.27-.34-.55-.67-.86-.99-1.3-1.4-2.85-2.5-4.45-3.55-.42-.31-.84-.62-1.28-.94,0,0-.01-.02-.02-.03.36-.38.69-.72,1.01-1.06.98-1.02,1.98-2.01,2.99-3,.16-.15.32-.3.47-.45,4.1-3.87,7.81-8.09,11.07-12.7,2.35-3.33,3.4-9.75,4.98-13.48h0c10.21-12.77,12.36-27.48,10.71-43.28ZM270.63,334.24c-.87,1.07-1.83,2-2.85,2.84-.58.45-1.17.89-1.78,1.3-.75.5-1.5.98-2.27,1.43-1.14.65-2.31,1.25-3.5,1.83-.58.28-1.17.55-1.76.8-1.9.78-3.84,1.41-5.84,1.87-.14.03-.29.06-.44.09-.16.04-.33.07-.49.1-.41.08-.82.15-1.24.22-.54.08-1.07.17-1.61.25-.81.1-1.63.17-2.45.22-.18,0-.36,0-.55-.02-.6,0-1.18-.01-1.75-.06-.24-.02-.47-.04-.71-.07-.18-.02-.37-.04-.55-.07-.02,0-.05,0-.07-.01-2.01-.3-3.89-.92-5.65-1.81,0,0,0,0-.01,0-2.49-1.45-4.72-3.1-6.67-4.98-1.16-1.14-2.23-2.35-3.2-3.63-2.18-2.94-3.78-6.32-4.73-10.2-.15-.62-.29-1.25-.37-1.87,0-.01,0-.02,0-.04,0-.01,0-.02,0-.03-.05-.48-.07-.97-.07-1.46.04-.87.22-1.74.66-2.59.2-.39.42-.7.68-.93.23-.18.48-.31.76-.4.43-.11.92-.08,1.5.08.37.11.75.21,1.12.31.18.07.36.13.55.18,1.63.44,3.25.89,4.88,1.34,2.81.79,5.62,1.57,8.43,2.37,6.54,1.85,13.09,3.7,19.62,5.6,2.75.8,5.48,1.66,8.2,2.55.31.1.62.2.93.31,2.77.95,3.08,2.2,1.24,4.47ZM292.89,358.37c-.03.13-.05.26-.09.39-.17.62-.32,1.25-.49,1.87-.29.82-.63,1.62-.96,2.43-.13.3-.27.6-.44.87-.19.27-.4.53-.63.78-.18.17-.37.32-.59.46-1.53-.32-2.27-1.35-2.69-2.66-.62-1.9-.97-3.85-1.14-5.85-.1-1.16-.25-2.31-.43-3.46-.03-.25-.07-.5-.11-.75-.07-.43-.11-.89-.23-1.31-.14-.75-.47-1.42-1.28-1.38-.81-.04-1.14.63-1.28,1.38-.11.43-.16.88-.23,1.31-.04.25-.08.5-.11.75-.18,1.15-.33,2.31-.43,3.46-.17,2-.52,3.95-1.14,5.85-.43,1.31-1.17,2.34-2.7,2.66-.22-.14-.42-.29-.59-.46-.23-.25-.44-.51-.63-.78-.17-.27-.31-.57-.44-.87-.33-.8-.67-1.61-.96-2.43-.17-.62-.33-1.25-.49-1.87-.04-.13-.06-.26-.09-.39-.14-1.01-.1-2.05.25-3.13,1.46-4.41,3.45-8.58,5.87-12.55.36-.59.69-1.2,1.06-1.78.19-.27.39-.55.59-.82.08-.1.16-.2.24-.3.31-.35.66-.66,1.07-.94.41.28.76.6,1.07.94.08.1.16.2.24.3.2.27.4.54.59.82.37.58.7,1.2,1.06,1.78,2.42,3.97,4.41,8.14,5.87,12.55.36,1.08.4,2.11.25,3.13ZM345.45,322.41s0,.03,0,.05c0,0,0,.01,0,.02-.08.63-.21,1.25-.37,1.88-.95,3.88-2.56,7.26-4.73,10.2-.97,1.28-2.04,2.49-3.2,3.63-1.95,1.88-4.18,3.53-6.67,4.98,0,0,0,0-.01,0-1.76.89-3.63,1.51-5.65,1.81-.02,0-.05,0-.07.01-.18.03-.37.04-.55.07-.23.03-.47.05-.71.07-.57.04-1.16.07-1.75.06-.18.01-.36.02-.55.02-.82-.05-1.64-.12-2.45-.22-.53-.08-1.07-.17-1.61-.25-.41-.06-.83-.14-1.24-.22-.16-.03-.33-.07-.49-.1-.15-.03-.29-.06-.43-.09-1.99-.46-3.94-1.09-5.84-1.87-.59-.25-1.18-.51-1.76-.8-1.18-.58-2.36-1.18-3.5-1.83-.76-.45-1.52-.93-2.27-1.43-.61-.41-1.21-.85-1.78-1.3-1.03-.84-1.99-1.78-2.85-2.84-1.85-2.27-1.54-3.52,1.24-4.47.31-.11.62-.21.93-.31,2.72-.89,5.45-1.75,8.2-2.55,6.53-1.9,13.08-3.75,19.62-5.6,2.81-.8,5.62-1.58,8.43-2.37,1.62-.45,3.25-.9,4.87-1.34.18-.05.37-.11.55-.18.37-.11.75-.21,1.12-.31.58-.16,1.07-.19,1.5-.08.27.08.53.22.76.4.26.22.48.53.68.93.43.85.62,1.72.66,2.59,0,.49-.02.98-.07,1.46Z"/><text class="cls-2" transform="translate(154.78 -89.45) rotate(27.75)"><tspan x="0" y="0">H</tspan></text><text class="cls-2" transform="translate(179.85 -76.49) rotate(22.12)"><tspan x="0" y="0">E</tspan></text><text class="cls-2" transform="translate(201.04 -67.97) rotate(17.22)"><tspan x="0" y="0">L</tspan></text><text class="cls-2" transform="translate(221.37 -61.73) rotate(12.48)"><tspan x="0" y="0">L</tspan></text><text class="cls-2" transform="translate(242.27 -57.07) rotate(7.27)"><tspan x="0" y="0">B</tspan></text><text class="cls-2" transform="translate(267.43 -54.01) rotate(2.06)"><tspan x="0" y="0">L</tspan></text><text class="cls-2" transform="translate(288.82 -53.22) rotate(-3.14)"><tspan x="0" y="0">A</tspan></text><text class="cls-2" transform="translate(314.18 -54.73) rotate(-8.56)"><tspan x="0" y="0">Z</tspan></text><text class="cls-2" transform="translate(337.05 -58.24) rotate(-13.71)"><tspan x="0" y="0">E</tspan></text><text class="cls-2" transform="translate(359.41 -63.67) rotate(-19.3)"><tspan x="0" y="0">R</tspan></text><text class="cls-2" transform="translate(384.75 -72.72) rotate(-25.02)"><tspan x="0" y="0">S</tspan></text><text class="cls-1" transform="translate(80.27 196.32) rotate(-63.97)"><tspan x="0" y="0">C</tspan></text><text class="cls-1" transform="translate(90.04 176.42) rotate(-58.83)"><tspan x="0" y="0">L</tspan></text><text class="cls-1" transform="translate(99.65 160.16) rotate(-53.2)"><tspan x="0" y="0">O</tspan></text><text class="cls-1" transform="translate(115.05 139.73) rotate(-47.28)"><tspan x="0" y="0">S</tspan></text><text class="cls-1" transform="translate(129.28 124.3) rotate(-42.01)"><tspan x="0" y="0">E</tspan></text><text class="cls-1" transform="translate(144.62 110.71) rotate(-38.18)"><tspan x="0" y="0"> </tspan></text><text class="cls-1" transform="translate(151.89 104.57) rotate(-33.7)"><tspan x="0" y="0">Q</tspan></text><text class="cls-1" transform="translate(173.15 90.39) rotate(-27.33)"><tspan x="0" y="0">U</tspan></text><text class="cls-1" transform="translate(194.92 79.16) rotate(-21.31)"><tspan x="0" y="0">A</tspan></text><text class="cls-1" transform="translate(216.02 70.86) rotate(-15.31)"><tspan x="0" y="0">R</tspan></text><text class="cls-1" transform="translate(239.28 64.55) rotate(-9.58)"><tspan x="0" y="0">T</tspan></text><text class="cls-1" transform="translate(259.25 61.15) rotate(-4.29)"><tspan x="0" y="0">E</tspan></text><text class="cls-1" transform="translate(279.54 59.51) rotate(1.54)"><tspan x="0" y="0">R</tspan></text><text class="cls-1" transform="translate(303.59 60.2) rotate(7.48)"><tspan x="0" y="0">S</tspan></text><text class="cls-1" transform="translate(324.5 63.14) rotate(11.53)"><tspan x="0" y="0"> </tspan></text><text class="cls-1" transform="translate(333.88 64.78) rotate(15.8)"><tspan x="0" y="0">B</tspan></text><text class="cls-1" transform="translate(355.75 70.95) rotate(21.72)"><tspan x="0" y="0">A</tspan></text><text class="cls-1" transform="translate(376.83 79.38) rotate(27.29)"><tspan x="0" y="0">T</tspan></text><text class="cls-1" transform="translate(394.86 88.65) rotate(32.61)"><tspan x="0" y="0">T</tspan></text><text class="cls-1" transform="translate(411.93 99.58) rotate(37.78)"><tspan x="0" y="0">L</tspan></text><text class="cls-1" transform="translate(426.93 111.14) rotate(42.98)"><tspan x="0" y="0">E</tspan></text><text class="cls-1" transform="translate(441.81 125.24) rotate(46.94)"><tspan x="0" y="0"> </tspan></text><text class="cls-1" transform="translate(448.52 131.97) rotate(51.41)"><tspan x="0" y="0">U</tspan></text><text class="cls-1" transform="translate(463.84 151.06) rotate(57.91)"><tspan x="0" y="0">N</tspan></text><text class="cls-1" transform="translate(477.28 172.88) rotate(63.27)"><tspan x="0" y="0">I</tspan></text><text class="cls-1" transform="translate(484.56 187.09) rotate(67.92)"><tspan x="0" y="0">T</tspan></text><text class="cls-2" transform="translate(154.78 494.05) rotate(27.75)"><tspan x="0" y="0">H</tspan></text><text class="cls-2" transform="translate(179.85 507.01) rotate(22.12)"><tspan x="0" y="0">E</tspan></text><text class="cls-2" transform="translate(201.04 515.53) rotate(17.22)"><tspan x="0" y="0">L</tspan></text><text class="cls-2" transform="translate(221.37 521.77) rotate(12.48)"><tspan x="0" y="0">L</tspan></text><text class="cls-2" transform="translate(242.27 526.43) rotate(7.27)"><tspan x="0" y="0">B</tspan></text><text class="cls-2" transform="translate(267.43 529.49) rotate(2.06)"><tspan x="0" y="0">L</tspan></text><text class="cls-2" transform="translate(288.82 530.28) rotate(-3.14)"><tspan x="0" y="0">A</tspan></text><text class="cls-2" transform="translate(314.18 528.77) rotate(-8.56)"><tspan x="0" y="0">Z</tspan></text><text class="cls-2" transform="translate(337.05 525.26) rotate(-13.71)"><tspan x="0" y="0">E</tspan></text><text class="cls-2" transform="translate(359.41 519.83) rotate(-19.3)"><tspan x="0" y="0">R</tspan></text><text class="cls-2" transform="translate(384.75 510.78) rotate(-25.02)"><tspan x="0" y="0">S</tspan></text></svg>