<?xml version="1.0" encoding="utf-8"?>
<!-- Generator: Adobe Illustrator 23.0.1, SVG Export Plug-In . SVG Version: 6.00 Build 0)  -->
<svg version="1.1" id="Capa_1" xmlns="http://www.w3.org/2000/svg" xmlns:xlink="http://www.w3.org/1999/xlink" x="0px" y="0px"
	 viewBox="0 0 502.2 502.2" style="enable-background:new 0 0 502.2 502.2;" xml:space="preserve">
<style type="text/css">
	.st0{fill:#1D1D1B;}
	.st1{fill:#FFFFFF;}
	.st2{fill:#009FE3;}
</style>
<circle class="st0" cx="251.1" cy="251.1" r="251.1"/>
<circle class="st1" cx="251.1" cy="251.1" r="190.9"/>
<g>
	<path class="st2" d="M288.2,105.1c0,0,38.3,4.6,63.6,34.2c4.1-2.8,11.3-6.7,13.8-13.9c1.5-4.4,1.2-9.1-0.8-13.3
		c-22-17.9-47.9-30.4-75.6-36.4C296.8,81.2,293.7,102.4,288.2,105.1z"/>
	<path class="st2" d="M310,166.3c8.9-6.5,35.4-6.5,29.3-15.8c-18.3-25.3-59.9-35.9-93.1-31.2c-13.2,1.5-28.6-0.6-31.4-11.1
		s2.6-17.1,5.9-19.3s17.5-6.7,25.7-2.8c4.5,2.6,5,9.3-0.2,12c-6.7-0.2-11.9-0.5-14.5-0.3s-3.9,5.9,0.2,7.3c4.8,0.2,38.5,1,42.1-0.1
		c14.3,0.1,15.2-29.3,1.9-31.6c-43.2-6-87.2,3.9-123.6,27.9c-3.7,3.1-7,6.6-9.8,10.5c-13.9,18.8,7,30.6,11.7,32.5
		c15.7,6.8,14.1,23.3,36.2,23.3C225.9,141.8,273.9,141.3,310,166.3L310,166.3z"/>
	<path class="st2" d="M397.4,286.8c0,0-4.6,38.3-34.2,63.6c2.8,4.1,6.7,11.3,13.9,13.8c4.4,1.5,9.1,1.2,13.2-0.9
		c17.9-21.9,30.4-47.8,36.4-75.6C421.3,295.4,400.1,292.3,397.4,286.8L397.4,286.8z"/>
	<path class="st2" d="M336.1,308.6c6.5,8.9,6.5,35.4,15.8,29.3c25.3-18.3,35.9-59.9,31.2-93.1c-1.5-13.2,0.5-28.6,11.1-31.4
		s17.1,2.6,19.3,5.9s6.7,17.5,2.8,25.6c-2.6,4.5-9.3,5-12-0.2c0.2-6.7,0.5-11.9,0.3-14.5s-6-3.9-7.3,0.2c-0.2,4.8-1,38.5,0.1,42.1
		c-0.1,14.3,29.3,15.2,31.6,2c1.1-8.2,1.7-16.5,1.7-24.8c0.1-35.1-10.2-69.5-29.6-98.8c-3.1-3.7-6.6-7-10.5-9.8
		c-18.8-13.9-30.6,7-32.5,11.7c-6.8,15.7-23.3,14.1-23.3,36.2C360.6,224.6,361.1,272.5,336.1,308.6L336.1,308.6z"/>
	<path class="st2" d="M216.2,397.8c0,0-38.3-4.6-63.6-34.2c-4.1,2.8-11.3,6.7-13.8,13.9c-1.5,4.4-1.2,9.1,0.8,13.3
		c22,17.9,47.9,30.4,75.6,36.4C207.6,421.6,210.6,400.5,216.2,397.8L216.2,397.8z"/>
	<path class="st2" d="M194.4,336.5c-8.9,6.5-35.4,6.5-29.3,15.8c18.3,25.3,59.9,35.9,93.1,31.2c13.2-1.5,28.6,0.6,31.4,11.1
		s-2.6,17.1-6,19.3s-17.5,6.7-25.6,2.8c-4.5-2.6-5-9.3,0.2-12c6.7,0.2,11.9,0.5,14.5,0.3s3.9-5.9-0.2-7.3c-4.8-0.2-38.5-1-42.1,0.1
		c-14.3-0.1-15.2,29.3-1.9,31.6c43.2,6,87.2-3.9,123.6-27.9c3.7-3.1,7-6.6,9.8-10.5c13.9-18.8-7-30.6-11.7-32.5
		c-15.7-6.8-14-23.3-36.2-23.3C278.4,361,230.5,361.5,194.4,336.5L194.4,336.5z"/>
	<path class="st2" d="M104.6,214.2c0,0,4.6-38.3,34.2-63.6c-2.8-4.1-6.7-11.3-13.9-13.8c-4.4-1.5-9.1-1.2-13.2,0.9
		c-17.9,21.9-30.4,47.8-36.4,75.6C80.8,205.5,102,208.6,104.6,214.2L104.6,214.2z"/>
	<path class="st2" d="M166,192.4c-6.5-8.9-6.5-35.4-15.8-29.3c-25.3,18.3-35.9,59.9-31.2,93.1c1.5,13.2-0.6,28.6-11.1,31.4
		s-17.1-2.6-19.3-5.9s-6.7-17.5-2.8-25.6c2.7-4.5,9.3-5,12,0.2c-0.2,6.7-0.5,11.9-0.3,14.5s5.9,3.9,7.3-0.2c0.2-4.8,1-38.5-0.1-42.1
		c0.1-14.3-29.3-15.2-31.6-1.9c-1.1,8.2-1.7,16.5-1.7,24.8c-0.1,35.1,10.2,69.5,29.6,98.8c3.1,3.7,6.6,7,10.5,9.8
		c18.8,13.9,30.6-7,32.5-11.7c6.8-15.7,23.3-14.1,23.3-36.2C141.4,276.4,140.9,228.5,166,192.4L166,192.4z"/>
</g>
<path class="st0" d="M308.5,283.2l3.8,1.4c-8.6,18.5-17.5,30.2-26.7,35.1s-20.1,7.5-32.8,7.5c-18.8,0-32.7-4.2-41.5-12.7
	s-13.3-18.7-13.3-30.7c0-15.5,7.2-26.5,21.6-33.1c-14.4-5.9-21.6-15.8-21.6-29.8c0-13.1,5.2-23.9,15.6-32.4
	c10.4-8.5,24.1-12.8,41.1-12.8c13.7,0,24.5,3.2,32.5,9.7s14.2,17.4,18.5,32.7l-3.6,1.4c-13.1-14.7-28.8-22.1-47.3-22.1
	c-17.1,0-29,3.1-35.6,9.4c-6.6,6.2-9.9,13-9.9,20.3c-0.1,5.6,2.4,10.8,6.7,14.3c4.2,3.7,9.6,5.7,15.2,5.7c8,0,15.9-1.5,23.4-4.3
	c8.5-3.2,14.4-4.9,17.6-4.9c5.5,0,9.5,1.6,11.9,4.7c2.2,2.6,3.5,5.9,3.6,9.4c0,3.8-1.8,7.1-5.3,9.7c-3.3,2.5-7.3,3.9-11.4,4
	c-4,0-10.9-1.8-20.9-5.4c-11.1-4-18.3-5.9-21.4-5.9c-5.4,0-10,2.3-13.8,7c-3.6,4.2-5.6,9.6-5.7,15.1c0,8,3.7,14.8,11.2,20.4
	c7.5,5.6,18.7,8.4,33.5,8.4C276.4,305.3,294.6,297.9,308.5,283.2L308.5,283.2z"/>
<g>
	<circle class="st1" cx="23.6" cy="238.5" r="12.3"/>
	<circle class="st1" cx="477" cy="238.5" r="12.3"/>
	<path class="st1" d="M68.4,100.7l6.1-6.4l7.1,6.9l13.2-13.7l-7.1-6.9l6.1-6.4l19.9,19.2l-6.1,6.4l-7.2-6.9l-13.2,13.7l7.2,6.9
		l-6.1,6.4L68.4,100.7z"/>
	<path class="st1" d="M99.7,69.6l24.7-18.1l3.8,5.2l-18,13.2l2.4,3.2l17-12.6l3.6,4.9l-17.1,12.5l2.6,3.6l18.1-13.3l3.9,5.3
		L116,91.9L99.7,69.6z"/>
	<path class="st1" d="M129.4,48.6l7.8-4.1l9.6,18.1l17.4-9.2l3.3,6.2L142.3,73L129.4,48.6z"/>
	<path class="st1" d="M177.4,26.6c3.9-1.4,7.8-2.5,11.8-3.4c3.2-0.6,5.6,0.2,7.1,2.5c1.5,2.7,2.7,5.5,3.6,8.5c1.1,2.9,1.8,5.9,2.2,9
		c0.1,2.7-1.3,4.8-4.2,6.2c-3.7,1.6-7.6,3-11.5,4.2c-3.9,1.4-7.9,2.5-11.9,3.4c-3.2,0.6-5.6-0.2-7.1-2.5c-1.5-2.7-2.8-5.6-3.6-8.7
		c-1-2.8-1.8-5.8-2.1-8.8c-0.1-2.7,1.3-4.8,4.2-6.2C169.6,29.2,173.4,27.8,177.4,26.6z M179.6,33.4c-2.6,0.7-5.1,1.7-7.6,2.8
		c-0.9,0.5-1.4,1.4-1.4,2.4c0.2,1.9,0.6,3.7,1.3,5.5c0.3,1.2,0.8,2.3,1.4,3.4c0.8,1.2,2.3,1.8,3.7,1.3c2.4-0.6,4.7-1.3,7-2.1
		c3.2-1.1,5.3-1.8,6.4-2.3c0.8-0.3,1.6-0.8,2.1-1.5c0.4-0.6,0.5-1.2,0.4-1.9c-0.2-1.2-0.5-2.4-0.9-3.5c-0.4-1.4-1-2.8-1.6-4.1
		c-0.3-0.7-0.8-1.3-1.3-1.8c-0.7-0.4-1.6-0.6-2.4-0.4C185.7,31.5,183.3,32.2,179.6,33.4L179.6,33.4z"/>
	<path class="st1" d="M201,20l33.1-4.7l1,7L222.9,24l2.9,20.4l-8.8,1.3l-2.9-20.4L202,27L201,20z"/>
	<path class="st1" d="M251.6,14.1l15.1,1.6l6.4,18.7l10-17l15.1,1.5l-2.8,27.5l-8.3-0.8l2.3-20.6l-1.4-0.1l-12.5,19.5l-7-0.7
		l-8.3-21.6l-1.5-0.2L257,42.4l-8.3-0.8L251.6,14.1z"/>
	<path class="st1" d="M304.8,21.4l8.6,2.2l-6.7,26.8l-8.6-2.2L304.8,21.4z"/>
	<path class="st1" d="M319.2,24.9l8.3,3l-7,19.3l18.5,6.7l-2.4,6.7l-26.8-9.7L319.2,24.9z"/>
	<path class="st1" d="M349.5,36.6l8,3.8l-12,24.9l-8-3.8L349.5,36.6z"/>
	<path class="st1" d="M361.4,41.9l28.4,17.6l-3.7,6l-10.5-6.5l-10.9,17.5l-7.5-4.7l10.9-17.5l-10.5-6.5L361.4,41.9z"/>
	<path class="st1" d="M392.9,62.5l7,5.4l-17,21.8l-7-5.4L392.9,62.5z"/>
	<path class="st1" d="M406.8,112.3l1.6-5l-12.9-13l-5,1.6l-6.8-6.8l29.9-9.1l9.2,9.3l-9.4,29.7L406.8,112.3z M410.7,101l3.7-11.2
		l-1.2-1.2L402,92.2L410.7,101z"/>
	<path class="st1" d="M56.2,334.1l4.9,8.8l-14.3,20.5l0.8,1.5l24.9-1.5l4.9,8.7l-33.3,1.8l-6.8-12.3L56.2,334.1z"/>
	<path class="st1" d="M71.4,411.4l2.3-5.2l-12.5-15.4l-5.6,1.2l-6.6-8.1l33.3-6.5l8.9,11l-13.5,31L71.4,411.4z M76.9,399.6l5.2-11.6
		l-1.2-1.4l-12.5,2.6L76.9,399.6z"/>
	<path class="st1" d="M81.3,422.2l19.4-22.8l16.8,14.3c3.9,3.4,6.3,5.4,7,6.2c0.7,0.8,1.3,1.7,1.6,2.7c0.4,1.2,0.4,2.5,0,3.7
		c-0.8,1.7-1.9,3.3-3.2,4.8c-1,1.3-2.2,2.4-3.4,3.4c-0.8,0.6-1.8,0.9-2.8,0.9c-1.3-0.1-2.6-0.6-3.7-1.3c1.2,1,1.9,2.4,2.1,3.9
		c0,0.8-0.2,1.5-0.6,2.2c-1,1.4-2,2.7-3.1,4l-1.8,2.1l-6.9-5.8l1-1.2c0.8-0.9,1.5-1.8,2.2-2.8c0.3-0.5,0.5-1.1,0.5-1.7
		c0-0.5-0.3-1-0.6-1.4c-0.9-0.9-1.8-1.7-2.8-2.5l-9.8-8.4l-4.9,5.8L81.3,422.2z M98,416.6l9.8,8.3c1.7,1.4,2.8,2.3,3.1,2.5
		c0.3,0.2,0.7,0.4,1.1,0.5c0.5,0.1,0.9,0,1.4-0.3c0.6-0.4,1.2-1,1.6-1.5c0.5-0.5,0.9-1.2,1.2-1.9c0.2-0.5,0.2-1,0-1.4
		c-0.2-0.4-0.4-0.7-0.7-1c-0.3-0.3-1.3-1.2-2.9-2.5l-9.8-8.3L98,416.6z"/>
	<path class="st1" d="M129.4,423.8l7.9,4.5l-6.9,11.9c-1,1.7-1.9,3.5-2.7,5.4c-0.4,1.1-0.1,2.4,0.8,3.1c2,1.7,4.2,3.1,6.5,4.3
		c1.9,1.1,3.8,2.1,5.8,3c0.9,0.4,1.9,0.5,2.8,0.4c0.5-0.2,0.9-0.5,1.3-0.9c0.6-0.7,1.2-1.5,1.7-2.3c0.7-1.1,1.3-2.1,1.8-2.8
		l6.9-11.9l7.9,4.5l-6.9,11.9c-2.5,4.1-4.2,6.8-5.1,7.9c-1.4,1.9-3.5,3-5.9,3c-1.7-0.1-3.4-0.5-4.9-1.3c-1.9-0.9-5-2.5-9.2-4.9
		c-3.1-1.8-5.5-3.2-7.2-4.3c-1.4-0.9-2.8-2-4.1-3.1c-2.3-1.9-3.1-5.1-2-7.8c0.4-1,0.8-2,1.3-3c0.4-0.9,1.5-2.8,3.2-5.9L129.4,423.8z
		"/>
	<path class="st1" d="M164.3,443.8l15.2,5.1l7.8,26.2l0.9,0.3l6.9-21.3l8.8,3l-9.5,28.4l-15.1-5l-7.9-26.2l-0.9-0.3l-6.9,21.2
		l-8.8-3L164.3,443.8z"/>
	<path class="st1" d="M234.6,491.1l-2-5.3l-19.7-2.3l-3.1,4.7l-10.4-1.2l19.4-27.9l14.1,1.6l12,31.6L234.6,491.1z M230.3,478.8
		l-4.4-12l-1.8-0.2l-7.1,10.6L230.3,478.8z"/>
	<path class="st1" d="M261.3,491.9l-3.6-29.8l21.5-2.6c3.8-0.5,6.3-0.7,7.5-0.8c1.2-0.1,2.5-0.1,3.7,0c2.8,0.1,5.3,1.8,6.4,4.3
		c0.5,1.1,0.8,2.2,1.1,3.3c0.3,1.2,0.5,3,0.8,5.4c0.3,2.7,0.5,4.7,0.5,6.1c0,1.3-0.1,2.6-0.3,3.8c-0.5,2.6-2.3,4.7-4.9,5.5
		c-1.3,0.5-2.7,0.8-4.1,1.1c-1.5,0.3-3.9,0.6-7.2,1L261.3,491.9z M269.3,483.2l12.6-1.6c1.7-0.2,3.4-0.5,5.1-0.9
		c0.8-0.2,1.6-0.5,2.2-1.1c0.5-0.6,0.8-1.4,0.8-2.1c0.1-1.4,0-2.8-0.2-4.2c-0.1-1.4-0.4-2.8-0.8-4.1c-0.2-0.8-0.6-1.4-1.2-2
		c-0.6-0.5-1.4-0.8-2.3-0.8c-1.9,0-3.7,0.2-5.6,0.5l-12.5,1.5L269.3,483.2z"/>
	<path class="st1" d="M298.5,456.1l9.3-2.4l7.4,29.1l-9.3,2.4L298.5,456.1z"/>
	<path class="st1" d="M307.8,454.8l9.3-3.7l18.4,16.9l1.6-0.6l1.9-24.9l9.3-3.6l-2.7,33.3l-13.1,5.1L307.8,454.8z"/>
	<path class="st1" d="M347.5,438.1l8.4-4.6l14.3,26.3l-8.4,4.6L347.5,438.1z"/>
	<path class="st1" d="M369.1,449.8l7.2-5.1c0.9,1.2,1.6,1.8,2.4,1.8c0.6-0.1,1.2-0.3,1.7-0.6c0.6-0.4,2.4-1.6,5.5-3.7s5-3.6,5.6-4.1
		c0.5-0.4,0.9-0.8,1.3-1.3c0.4-0.6,0.2-1.4-0.5-2.4c-0.3-0.6-0.9-1-1.6-1c-1,0.2-1.9,0.7-2.7,1.3c-0.9,0.7-2.9,2-6,3.9
		s-5.1,3.3-6.1,4c-1.4,1-2.9,1.8-4.5,2.4c-1,0.4-2.1,0.5-3.2,0.2c-1.7-0.4-3.4-1.8-5.1-4.3c-2-2.8-2.8-5.1-2.5-7
		c0.3-1.7,1.2-3.2,2.5-4.3c3.1-2.7,6.4-5.2,9.9-7.5c2.5-1.8,5.1-3.5,7.8-5c2.5-1.3,4.5-1.7,6-1.4s3,1.6,4.6,3.9l0.8,1.2l-7.2,5.1
		c-0.3-0.5-0.7-0.9-1.2-1.3c-0.3-0.2-0.6-0.3-1-0.2c-0.7,0.1-1.4,0.4-2,0.8c-0.9,0.5-2.6,1.7-5.2,3.6c-2,1.3-3.9,2.8-5.6,4.4
		c-0.6,0.7-0.5,1.7,0.1,2.4c0.4,0.8,1.3,1.1,2.2,0.8c2.8-1.6,5.6-3.3,8.2-5.1c4-2.7,6.8-4.4,8.2-5.2c1.2-0.7,2.5-1.1,3.8-1.3
		c1.2-0.1,2.4,0.2,3.5,0.9c1.3,1,2.5,2.2,3.4,3.7c1.4,1.7,2.3,3.7,2.7,5.8c0.1,1.1-0.1,2.2-0.6,3.2c-0.8,1.3-1.8,2.4-2.9,3.3
		c-1.5,1.3-4.5,3.5-8.9,6.6c-3.7,2.6-6.5,4.4-8.4,5.5c-1.4,0.9-3,1.5-4.7,1.8c-1.2,0.2-2.4-0.1-3.4-0.7c-1.3-1-2.4-2.2-3.3-3.6
		L369.1,449.8z"/>
	<path class="st1" d="M388.2,410.8l7.1-6.4l20,22.3l-7.1,6.4L388.2,410.8z"/>
	<path class="st1" d="M410.4,388c2.8-3.4,5.9-6.7,9.1-9.8c2.7-2.3,5.3-2.9,8-1.6c5.7,3.5,10.8,7.9,15.1,13c1.7,2.5,1.5,5.2-0.4,8.1
		c-2.6,3.6-5.4,7.1-8.3,10.4c-2.9,3.5-5.9,6.8-9.2,9.9c-2.7,2.3-5.3,2.9-8,1.6c-1.8-0.9-4.6-2.9-8.2-6c-2.6-2-4.9-4.4-6.9-7
		c-1.6-2.5-1.5-5.2,0.4-8.1C404.6,394.8,407.4,391.3,410.4,388L410.4,388z M416.3,393.1c-2,2.1-3.8,4.4-5.4,6.9
		c-0.5,0.9-0.5,2.1,0,3c1.2,1.6,2.6,3.1,4.3,4.4c1,0.9,2.1,1.7,3.2,2.4c1.4,0.7,2.8,0.5,4.1-0.8c1.9-1.8,3.7-3.8,5.4-5.8
		c2.4-2.8,4-4.7,4.6-5.7c0.6-0.8,1-1.7,1.1-2.6c0-0.7-0.2-1.4-0.7-2c-0.8-1-1.8-1.9-2.8-2.8c-1.2-1.1-2.4-2-3.7-2.9
		c-0.7-0.5-1.4-0.8-2.3-0.9c-0.9,0-1.8,0.3-2.5,1C420.9,387.9,419.1,389.8,416.3,393.1L416.3,393.1z"/>
	<path class="st1" d="M424.6,372.1l7.9-13.9l27.2-2.7l0.5-0.8l-19.5-10.8l4.6-8.1l26.1,14.7l-7.8,13.8l-27.2,2.8l-0.5,0.9l19.6,10.8
		l-4.6,8.1L424.6,372.1z"/>
</g>
</svg>
