<svg enable-background="new 0 0 113.4 113.4" viewBox="0 0 113.4 113.4" xmlns="http://www.w3.org/2000/svg"><circle cx="56.7" cy="56.7" fill="#009cdb" r="56.7"/><circle cx="56.7" cy="56.7" fill="#fff" r="55.6"/><circle cx="56.7" cy="56.7" fill="#009cdb" r="45.7"/><g stroke="#fff" stroke-miterlimit="10"><path d="m23.8 80.9 2.3 2.3-2.5 2.5 4.9 4.8 2.5-2.5 2.3 2.3-7 7.1-2.3-2.3 2.6-2.6-4.9-4.8-2.6 2.6-2.3-2.3z" fill="#fff" stroke-width="1.98"/><path d="m34.9 91.2 10 4.7-1 2.1-7.3-3.5-.6 1.3 6.9 3.3-.9 2-6.9-3.3-.7 1.5 7.4 3.5-1 2.2-10.1-4.8z" fill="#fff" stroke-width="1.98"/><path d="m45.9 96.5 4.2.4 2.7 3.8 3.4-3.2 4.2.4-5.3 4.5 4.6 5.5-4.3-.4-2.9-3.9-3.6 3.3-4.4-.4 5.6-4.6z" fill="#fff" stroke-width="1.98"/><path d="m74.8 104.2-1.3-1.4-6.4 1.8-.4 1.9-3.3 1 2.4-11.1 4.6-1.3 7.8 8.2zm-2.9-3.2-2.9-3.1-.6.2-.8 4.2z" fill="#fff" stroke-width="1.98"/><path d="m79.7 98.6 2.4-1.7c.3.4.6.6.8.6s.4-.1.6-.2.8-.5 1.8-1.3 1.7-1.2 1.9-1.4.3-.3.4-.5.1-.5-.2-.8c-.2-.2-.4-.4-.5-.3-.2 0-.5.2-.9.4-.3.2-1 .7-2 1.3-1 .7-1.7 1.1-2 1.4-.6.4-1.1.7-1.5.8s-.7.2-1.1.1c-.6-.1-1.1-.6-1.7-1.4-.7-.9-1-1.7-.9-2.3.1-.5.3-1 .8-1.5s1.6-1.3 3.3-2.6c1.2-.9 2-1.4 2.6-1.7.8-.4 1.5-.6 2-.5s1 .5 1.6 1.3c0 .1.1.2.3.4l-2.4 1.7c-.2-.2-.3-.4-.4-.4-.1-.1-.2-.1-.3-.1-.2 0-.4.1-.7.3s-.9.6-1.7 1.2c-1 .8-1.7 1.3-1.8 1.5-.2.2-.2.5.1.8.2.3.4.4.7.3.2-.1 1.1-.7 2.7-1.8 1.3-.9 2.2-1.5 2.7-1.8s.9-.4 1.3-.5c.4 0 .8.1 1.2.3.3.2.7.6 1.2 1.2.6.8.9 1.4.9 1.9 0 .4 0 .7-.2 1.1-.2.3-.5.7-1 1.1s-1.5 1.2-2.9 2.2c-1.2.9-2.1 1.5-2.8 1.9-.6.4-1.1.6-1.6.6-.4 0-.8 0-1.1-.2s-.7-.6-1.1-1.2z" fill="#fff" stroke-width="1.98"/><path d="m20.1 20.7 2.1-1.6 5.8 2.8.4-.3-1.4-6.3 2-1.6 1.8 8.5-2.9 2.3z" fill="#fff" stroke-width="1.98"/><path d="m30.2 13.3 1.8-1 3.8 6.8-1.8 1z" fill="#fff" stroke-width="1.98"/><path d="m34.3 12.2 1.9-.8.5 1.2 3-1.3.6 1.4-3 1.3.6 1.5c.2.4.3.6.4.7.2.1.4.1.8 0 .4-.2.6-.3.6-.5 0-.1 0-.2 0-.2s-.1-.2-.2-.5l1.7-.7c.2.5.3.9.4 1.1v.7c-.1.3-.3.6-.6.8s-.8.5-1.4.8-1.1.4-1.4.5-.6 0-.9-.1c-.2-.1-.4-.2-.5-.3s-.3-.3-.4-.6c-.1-.1-.2-.4-.4-.8l-.6-1.6-1 .4-.6-1.4 1-.4z" fill="#fff" stroke-width="1.98"/><path d="m41.1 10.9 1.9-.5.2.8h.1c.1-.4.3-.7.6-.9s.7-.4 1.3-.6c.8-.2 1.4-.2 1.8 0s .7.8.9 1.6c0 0 0 .2.1.4l-1.9.5c-.1-.3-.2-.5-.3-.6-.2-.2-.5-.2-1-.1s-.8.3-.9.6c-.1.2-.1.3-.1.5s.1.5.2.9l.6 2.2-2 .5z" fill="#fff" stroke-width="1.98"/><path d="m50.7 10.6-2.1.2c0-.4.1-.8.2-1 .2-.4.6-.6 1.1-.8s1.4-.3 2.6-.4c.9-.1 1.5-.1 1.9-.1s.6.2.9.4c.2.2.3.4.4.6.1.3.2.6.2 1.1l.3 3.3-2 .2-.1-.8h-.1c-.1.3-.3.6-.7.8-.2.1-.4.2-.7.2-.3.1-.8.1-1.5.2-.6 0-1 0-1.3 0s-.6-.1-.8-.3c-.3-.2-.5-.6-.5-1.2-.1-.6.1-1.1.4-1.4.2-.2.5-.4 1-.5.4-.1 1.2-.2 2.3-.3h1s .4.1.6.3h.1v-.3c0-.4-.1-.7-.3-.8s-.6-.1-1.2-.1c-.7.1-1.2.1-1.4.2s-.3.3-.3.5zm1.5 1.4c-.7.1-1.1.1-1.3.2s-.3.3-.3.5.1.4.3.4c.2.1.6.1 1.1 0 .7-.1 1.2-.1 1.5-.3.3-.1.4-.3.3-.5 0-.2-.1-.4-.4-.4 0 0-.4 0-1.2.1z" fill="#fff" stroke-width="1.98"/><path d="m60.4 6.2 2.6.5 1.7 6.3.4.1 3.9-5.2 2.5.5-5.3 6.9-3.6-.7z" fill="#fff" stroke-width="1.98"/><path d="m72 11.3 1.9.7-1.9 5.2-1.9-.7zm.7-2.2 1.9.7-.5 1.5-1.9-.7z" fill="#fff" stroke-width="1.98"/><path d="m75.1 12.4 1.7.9-.4.7h.1c.3-.2.7-.3 1-.3.4 0 .8.2 1.3.4.7.4 1.2.8 1.3 1.2s0 1-.3 1.8c0 0-.1.2-.2.3l-1.7-.9c.1-.3.2-.5.2-.7 0-.3-.3-.5-.7-.8-.4-.2-.8-.3-1.1-.1-.2.1-.3.2-.4.3-.1.2-.3.4-.5.8l-1 2.1-1.9-.9z" fill="#fff" stroke-width="1.98"/><path d="m84 22.1 1.7 1.2c-.4.5-.8.7-1.2.7s-.8-.1-1.2-.3-1.1-.6-1.9-1.2c-.6-.5-1.1-.9-1.4-1.2s-.5-.6-.6-.9-.1-.6 0-1c .1-.3.4-.8.8-1.3.3-.4.6-.7.7-.9.2-.2.4-.3.6-.5.4-.2.9-.2 1.5 0 .5.2 1.1.6 2 1.2.7.5 1.2 1 1.5 1.2.5.5.7 1 .7 1.4 0 .5-.3 1.1-.9 1.8-.1.1-.2.2-.3.4l-4.4-3.2c-.2.2-.3.4-.3.5s0 .2 0 .4c.1.2.4.6 1 1 .4.3.7.5.9.6s.4.2.5.1c.1.1.2.1.3 0zm1-1.4c.1-.2.2-.3.2-.4s0-.2 0-.3c0-.3-.4-.6-1-1.1-.6-.4-1-.6-1.2-.7-.3 0-.5.1-.7.4z" fill="#fff" stroke-width="1.98"/><path d="m86.1 23.7 1.5 1.5c-.2.2-.2.4-.1.6s.4.6.8 1.1c.5.5.8.8 1 .9s.4.1.5 0 .2-.3 0-.5c-.1-.1-.4-.5-1.2-1.3-.7-.7-1.1-1.2-1.2-1.4-.4-.5-.5-1-.4-1.4.1-.3.3-.6.6-.9.6-.6 1.2-.7 1.8-.4.4.2 1.2.8 2.2 1.9.6.7 1.1 1.2 1.3 1.6s.4.7.4 1c0 .2 0 .4-.1.5-.1.2-.2.4-.5.6l-1.5-1.5c.1-.1.1-.2.1-.3 0-.2-.3-.6-.8-1.1-.4-.5-.8-.8-1-.9s-.4-.1-.5 0c-.2.2-.1.4.1.6s.8.9 1.9 2.1c.5.6.8 1.1.9 1.5s-.1.9-.6 1.3c-.3.3-.6.5-.9.6s-.6.1-.9-.1c-.5-.2-1.3-.9-2.4-2-.7-.7-1.2-1.3-1.4-1.7s-.4-.7-.4-1.1c.2-.4.4-.8.8-1.2z" fill="#fff" stroke-width="1.98"/><path d="m60.7 39.3c-.6 1.1-1.2 2.1-1.9 3.2-3.8 6.3-7.7 12.6-11.5 18.9-.2.4-.5.6-1 .5-2.6 0-5.2 0-7.8-.1 7.4-12.6 14.8-25.2 22.2-37.8.3.5.5.9.8 1.3 8.5 14.5 16.9 29 25.3 43.6.1.2.2.6.1.8-1.3 2.6-2.7 5.2-4.1 7.9-7.3-12.8-14.6-25.5-21.8-38.3-.1 0-.2 0-.3 0z" fill="#be1622" stroke-linecap="round" stroke-linejoin="round" stroke-width=".7072"/><path d="m25.1 69.6c1.1-1.9 2.2-3.7 3.3-5.6 6.5-11.5 13-23 19.5-34.6.9-1.6 1.8-3.2 2.7-4.8.1-.2.4-.4.6-.5 2.9-.2 5.9-.3 9-.4-7.5 12.9-15 25.6-22.6 38.5h.9c8.4.1 16.9.3 25.3.4.7 0 1 .2 1.3.8 1.2 2.2 2.4 4.3 3.7 6.6-14.5.1-29 0-43.5-.2-.1 0-.1-.1-.2-.2z" fill="#be1622" stroke-linecap="round" stroke-linejoin="round" stroke-width=".7072"/><path d="m25.2 70.3c14.8.1 29.5.2 44.4.4-.1-.4-.2-.6-.3-.8-4.1-7.4-8.2-14.8-12.3-22.1-.2-.4-.3-.8 0-1.2 1.3-2.1 2.5-4.2 3.8-6.5 7.2 12.7 14.4 25.3 21.6 37.9-.3 0-.6 0-.8 0-16.9.1-33.8.1-50.7.2-.5 0-.8-.2-1-.6-1.4-2.2-2.9-4.5-4.3-6.7-.2-.2-.2-.3-.4-.6z" fill="#be1622" stroke-linecap="round" stroke-linejoin="round" stroke-width=".7072"/></g><path d="m23.8 80.9 2.3 2.3-2.5 2.5 4.9 4.8 2.5-2.5 2.3 2.3-7 7.1-2.3-2.3 2.6-2.6-4.9-4.8-2.6 2.6-2.3-2.3z" fill="#be1622"/><path d="m34.9 91.2 10 4.7-1 2.1-7.3-3.5-.6 1.3 6.9 3.3-.9 2-6.9-3.3-.7 1.5 7.4 3.5-1 2.2-10.1-4.8z" fill="#be1622"/><path d="m45.9 96.5 4.2.4 2.7 3.8 3.4-3.2 4.2.4-5.3 4.5 4.6 5.5-4.3-.4-2.9-3.9-3.6 3.3-4.4-.4 5.6-4.6z" fill="#be1622"/><path d="m74.8 104.2-1.3-1.4-6.4 1.8-.4 1.9-3.3 1 2.4-11.1 4.6-1.3 7.8 8.2zm-2.9-3.2-2.9-3.1-.6.2-.8 4.2z" fill="#be1622"/><path d="m79.7 98.6 2.4-1.7c.3.4.6.6.8.6s.4-.1.6-.2.8-.5 1.8-1.3 1.7-1.2 1.9-1.4.3-.3.4-.5.1-.5-.2-.8c-.2-.2-.4-.4-.5-.3-.2 0-.5.2-.9.4-.3.2-1 .7-2 1.3-1 .7-1.7 1.1-2 1.4-.6.4-1.1.7-1.5.8s-.7.2-1.1.1c-.6-.1-1.1-.6-1.7-1.4-.7-.9-1-1.7-.9-2.3.1-.5.3-1 .8-1.5s1.6-1.3 3.3-2.6c1.2-.9 2-1.4 2.6-1.7.8-.4 1.5-.6 2-.5s1 .5 1.6 1.3c0 .1.1.2.3.4l-2.4 1.7c-.2-.2-.3-.4-.4-.4-.1-.1-.2-.1-.3-.1-.2 0-.4.1-.7.3s-.9.6-1.7 1.2c-1 .8-1.7 1.3-1.8 1.5-.2.2-.2.5.1.8.2.3.4.4.7.3.2-.1 1.1-.7 2.7-1.8 1.3-.9 2.2-1.5 2.7-1.8s.9-.4 1.3-.5c.4 0 .8.1 1.2.3.3.2.7.6 1.2 1.2.6.8.9 1.4.9 1.9 0 .4 0 .7-.2 1.1-.2.3-.5.7-1 1.1s-1.5 1.2-2.9 2.2c-1.2.9-2.1 1.5-2.8 1.9-.6.4-1.1.6-1.6.6-.4 0-.8 0-1.1-.2s-.7-.6-1.1-1.2z" fill="#be1622"/><path d="m20.1 20.7 2.1-1.6 5.8 2.8.4-.3-1.4-6.3 2-1.6 1.8 8.5-2.9 2.3z" fill="#be1622"/><path d="m30.2 13.3 1.8-1 3.8 6.8-1.8 1z" fill="#be1622"/><path d="m34.3 12.2 1.9-.8.5 1.2 3-1.3.6 1.4-3 1.3.6 1.5c.2.4.3.6.4.7.2.1.4.1.8 0 .4-.2.6-.3.6-.5 0-.1 0-.2 0-.2s-.1-.2-.2-.5l1.7-.7c.2.5.3.9.4 1.1v.7c-.1.3-.3.6-.6.8s-.8.5-1.4.8-1.1.4-1.4.5-.6 0-.9-.1c-.2-.1-.4-.2-.5-.3s-.3-.3-.4-.6c-.1-.1-.2-.4-.4-.8l-.6-1.6-1 .4-.6-1.4 1-.4z" fill="#be1622"/><path d="m41.1 10.9 1.9-.5.2.8h.1c.1-.4.3-.7.6-.9s.7-.4 1.3-.6c.8-.2 1.4-.2 1.8 0s .7.8.9 1.6c0 0 0 .2.1.4l-1.9.5c-.1-.3-.2-.5-.3-.6-.2-.2-.5-.2-1-.1s-.8.3-.9.6c-.1.2-.1.3-.1.5s.1.5.2.9l.6 2.2-2 .5z" fill="#be1622"/><path d="m50.7 10.6-2.1.2c0-.4.1-.8.2-1 .2-.4.6-.6 1.1-.8s1.4-.3 2.6-.4c.9-.1 1.5-.1 1.9-.1s.6.2.9.4c.2.2.3.4.4.6.1.3.2.6.2 1.1l.3 3.3-2 .2-.1-.8h-.1c-.1.3-.3.6-.7.8-.2.1-.4.2-.7.2-.3.1-.8.1-1.5.2-.6 0-1 0-1.3 0s-.6-.1-.8-.3c-.3-.2-.5-.6-.5-1.2-.1-.6.1-1.1.4-1.4.2-.2.5-.4 1-.5.4-.1 1.2-.2 2.3-.3h1s .4.1.6.3h.1v-.3c0-.4-.1-.7-.3-.8s-.6-.1-1.2-.1c-.7.1-1.2.1-1.4.2s-.3.3-.3.5zm1.5 1.4c-.7.1-1.1.1-1.3.2s-.3.3-.3.5.1.4.3.4c.2.1.6.1 1.1 0 .7-.1 1.2-.1 1.5-.3.3-.1.4-.3.3-.5 0-.2-.1-.4-.4-.4 0 0-.4 0-1.2.1z" fill="#be1622"/><path d="m60.4 6.2 2.6.5 1.7 6.3.4.1 3.9-5.2 2.5.5-5.3 6.9-3.6-.7z" fill="#be1622"/><path d="m72 11.3 1.9.7-1.9 5.2-1.9-.7zm.7-2.2 1.9.7-.5 1.5-1.9-.7z" fill="#be1622"/><path d="m75.1 12.4 1.7.9-.4.7h.1c.3-.2.7-.3 1-.3.4 0 .8.2 1.3.4.7.4 1.2.8 1.3 1.2s0 1-.3 1.8c0 0-.1.2-.2.3l-1.7-.9c.1-.3.2-.5.2-.7 0-.3-.3-.5-.7-.8-.4-.2-.8-.3-1.1-.1-.2.1-.3.2-.4.3-.1.2-.3.4-.5.8l-1 2.1-1.9-.9z" fill="#be1622"/><path d="m84 22.1 1.7 1.2c-.4.5-.8.7-1.2.7s-.8-.1-1.2-.3-1.1-.6-1.9-1.2c-.6-.5-1.1-.9-1.4-1.2s-.5-.6-.6-.9-.1-.6 0-1c .1-.3.4-.8.8-1.3.3-.4.6-.7.7-.9.2-.2.4-.3.6-.5.4-.2.9-.2 1.5 0 .5.2 1.1.6 2 1.2.7.5 1.2 1 1.5 1.2.5.5.7 1 .7 1.4 0 .5-.3 1.1-.9 1.8-.1.1-.2.2-.3.4l-4.4-3.2c-.2.2-.3.4-.3.5s0 .2 0 .4c.1.2.4.6 1 1 .4.3.7.5.9.6s.4.2.5.1c.1.1.2.1.3 0zm1-1.4c.1-.2.2-.3.2-.4s0-.2 0-.3c0-.3-.4-.6-1-1.1-.6-.4-1-.6-1.2-.7-.3 0-.5.1-.7.4z" fill="#be1622"/><path d="m86.1 23.7 1.5 1.5c-.2.2-.2.4-.1.6s.4.6.8 1.1c.5.5.8.8 1 .9s.4.1.5 0 .2-.3 0-.5c-.1-.1-.4-.5-1.2-1.3-.7-.7-1.1-1.2-1.2-1.4-.4-.5-.5-1-.4-1.4.1-.3.3-.6.6-.9.6-.6 1.2-.7 1.8-.4.4.2 1.2.8 2.2 1.9.6.7 1.1 1.2 1.3 1.6s.4.7.4 1c0 .2 0 .4-.1.5-.1.2-.2.4-.5.6l-1.5-1.5c.1-.1.1-.2.1-.3 0-.2-.3-.6-.8-1.1-.4-.5-.8-.8-1-.9s-.4-.1-.5 0c-.2.2-.1.4.1.6s.8.9 1.9 2.1c.5.6.8 1.1.9 1.5s-.1.9-.6 1.3c-.3.3-.6.5-.9.6s-.6.1-.9-.1c-.5-.2-1.3-.9-2.4-2-.7-.7-1.2-1.3-1.4-1.7s-.4-.7-.4-1.1c.2-.4.4-.8.8-1.2z" fill="#be1622"/></svg>