<svg viewBox="0 0 566.93 566.93" xmlns="http://www.w3.org/2000/svg"><path d="m552.76 283.71c-2.46 149.65-115.83 267.05-266 268.8-153.91 1.79-271.6-116.64-272.56-267-1-153 117.15-269.81 266.55-271.06 153.25-1.33 269.95 117.92 272.01 269.26zm-7.73-.19c-1.15-146.06-115.68-261.52-261.76-261.6-144.88-.05-261.56 113.92-261.59 261.49-.04 146.59 115.25 261.59 261.48 261.59 147.4 0 260.67-116.39 261.84-261.48z" fill="#1d1d1b" stroke="#fff" stroke-miterlimit="10" stroke-width="2"/><path d="m285.29 45.55c-133.57-1-239.92 107.58-239.82 237.16.1 132.29 105.81 238.64 237.53 238.68 130.55 0 237.53-105.95 238.45-234.74.97-133.29-105.91-240.15-236.16-241.1z" fill="#fff"/><path d="m283.79 283.63h-.65l.12-.41.44.57z" fill="#fcfcfc"/><path d="m322.18 393.6c-1.77-2.81-1.93-5.8-2.33-8.63s-.87-5.48-2.88-7.84c-1.49 2.52-1.82 5.28-2.52 7.91-2 7.72-5.81 14.74-8.92 22-7 16.29-14 32.54-21.08 48.8-.3.68-.7 1.32-1.31 2.5-10.69-27.49-24.61-53.15-33.46-81.35-1.21 2.06-2.54 3.79-2.69 6.24a34 34 0 0 1 -1.73 9c-.39 1.17-.87 1.56-1.69.27-2-3.11-4.14-6.13-6-9.32-13.62-23.42-22.5-48.63-28.12-75.06-3-14-4.94-28.08-6.68-42.26-2.18-17.78-3.88-35.61-6-53.39-.25-2.09-.6-4.16-.86-6.25a6.65 6.65 0 0 1 1.68-5.6 111.72 111.72 0 0 0 8.41-12.48c11.33-18.31 26.28-32.49 46.23-41.1a106.76 106.76 0 0 1 24.18-7.26c1.56-.27 3.37-.71 5 .73a3.67 3.67 0 0 0 3.4.14c3.74-2.27 7.41-.61 10.89.22 19.38 4.6 36.42 13.56 50.31 28.06 7.32 7.64 12.94 16.56 18.71 25.35a52.12 52.12 0 0 0 5.72 7.95c1.25 1.29.41 3.39.23 5.09-.89 8.13-1.92 16.24-2.86 24.36-.86 7.44-1.76 14.87-2.48 22.32q-1.59 16.46-4.17 32.78c-4.82 30.21-12.32 59.6-26.9 86.81-3.5 6.52-6.83 13.12-11.24 19.1a11.56 11.56 0 0 1 -.84.91zm29.59-207.82 1.24 1.16a1.86 1.86 0 0 0 -.86-1.69 82.68 82.68 0 0 0 -13.24-16.13 97.16 97.16 0 0 0 -17.82-12.81c-17.09-9.61-35-14.09-54.55-8.64-21.19 5.91-38.11 17.94-51 35.73a5.41 5.41 0 0 0 -1.5 3.44 60.11 60.11 0 0 1 10.61-8.66c0 3.44-.09 6.57 0 9.69a3.82 3.82 0 0 1 -1.56 3.4c-15.28 13.13-14.31 34.32-3.65 47 1.52 1.8 4.68 2.84 4.42 5.34-.24 2.23-2.15 4.29-3.33 6.43-.08.14-.24.25-.29.4-.42 1.19-1 1.08-1.88.39-4.71-3.84-9-8-11.47-13.75-.83-1.94-1.84-3.8-2.77-5.7a12.61 12.61 0 0 0 -.45 4.79c1 7.76 2.08 15.52 2.6 23.32a197.58 197.58 0 0 0 2.98 21.51c2.72 15.18 6.35 30.15 10.38 45 5.47 20.18 11.22 40.27 23.17 58.09a43.16 43.16 0 0 0 .31-8.86 50.75 50.75 0 0 1 0-12.38c2.85-18 5.06-36.12 8.43-54 1.48-7.87 2.88-15.77 5.48-23.39.28-.81.25-1.87 1.28-1.87s1 1.25 1.25 1.94c6.69 17.57 13.28 35.17 20 52.72 1.07 2.77 1.62 5.85 3.87 8.35a30.79 30.79 0 0 0 1.57-3.05q10.86-28.44 21.69-56.9c.41-1.08.28-3 1.71-2.93s1.55 2.07 1.82 3.17c2.68 11.07 5.15 22.19 6.79 33.48 1.24 8.54 2.79 17 3.9 25.6 1 7.68 3 15.24 2.82 23.06-.1 4.28 0 8.56 0 12.84 0 .78-.35 1.69.67 2.36 2.45-4.41 5-8.74 7.29-13.22 3.62-7.08 6.08-14.65 8.6-22.16 5.42-16.12 9.39-32.64 13.25-49.18a292.42 292.42 0 0 0 5.93-31.38c1.22-10.1 1.82-20.29 3.2-30.38a17.79 17.79 0 0 0 .1-7c-1.21 2.38-2.29 4.15-3.06 6-2.37 5.82-6.76 9.92-11.42 13.83-.92.78-1.44.86-2-.36a47.45 47.45 0 0 0 -3-5.24c-1-1.53-.93-2.48.57-3.77 7.31-6.27 10.7-14.53 11.16-23.94.5-10.58-3.62-19.32-11.57-26.29-.6-.53-1.52-.86-1.52-1.88 0-3.66 0-7.31 0-11.23a87.3 87.3 0 0 1 9.85 7.75z" fill="#060707"/><path d="m296.17 211.67c-.13-5 2.21-8.85 5.1-12.22 7.19-8.42 16.41-11.65 27.16-9s17.28 9.65 19.75 20.32a26.4 26.4 0 0 1 -21.41 31.86c-12.11 2-23.35-3.62-28.71-14.1-.19-.38-.35-.76-.55-1.13-.89-1.73-.21-2.26 1.51-2 5.29.81 10.59 1.6 15.88 2.44a7 7 0 0 0 5.72-1.21c7-5.38 13.82-11 21.05-16.09 1.4-1 1.1-6.11-.38-7-2.3-1.38-4.66-2.67-7-4a3.86 3.86 0 0 0 -3.56-.07c-11.37 4.07-22.8 8.07-34.56 12.2z" fill="#060707"/><path d="m270.08 225.22c-3.94 9.83-10.66 15.67-20.37 17.37-15.26 2.69-28.15-6.3-31.43-21.41-3.06-14.06 8-29.56 22.31-31.27 13.46-1.6 25.16 5.41 29.46 17.68.14.39.21.81.36 1.2a2.34 2.34 0 0 1 -.19 2.59c-.26.25-1.32-.29-2-.53-10.48-3.71-21-7.4-31.41-11.16-2-.73-3.81-.88-5.64.5a15.24 15.24 0 0 1 -3.72 2.11c-2.73 1-3.52 2.92-3.32 5.68a3.59 3.59 0 0 0 1.62 3.05c5.83 4.31 11.74 8.54 17.19 13.29 3.83 3.34 7.61 4.1 12.44 3 4.62-1.12 9.44-1.39 14.7-2.1z" fill="#060707"/><path d="m226.18 177.16c4.61-2 9-3.57 13.5-3.9 17.94-1.32 32.18 5.25 42.05 20.58 1.43 2.23 1.79 2.26 3.18 0 7.43-11.84 18.15-18.78 31.92-20.56a37.6 37.6 0 0 1 19.56 2.29c1.21.51 2.49.87 4.39 1.53-4.11 1.93-7.18 4.5-10.63 6.46-1.21.69-2.66.15-3.95 0-14.69-1.78-30.35 5.73-35.87 22.27a38.82 38.82 0 0 0 -1.21 6.67c-.19 1.35-4.15 6.39-5.43 6.72a1.35 1.35 0 0 1 -.49 0c-.95-.15-5.38-4.91-5.47-5.91a32.77 32.77 0 0 0 -34.59-29.9c-4.92.32-8.78-.58-12.41-3.65a33.06 33.06 0 0 0 -4.55-2.6z" fill="#060707"/><path d="m280.62 323.94c-1.28-.18-1.46-.75-1.59-1.33-1.79-8.2-5.4-15.75-8.38-23.53s-7.1-14.94-9.81-22.8c-1.08-3.14.21-5.55.82-8.19.9-3.91 2.21-7.73 3.38-11.58a2.13 2.13 0 0 0 0-1.8 45.63 45.63 0 0 1 -13.74 4.5c-.49.08-1 .14-1.49.23-2.23.44-3.11-.34-2.86-2.72.23-2.17-.69-4.81.26-6.46s4-1 6.05-1.59a39.35 39.35 0 0 0 17.06-10.33c2.13-2.2 4.4-4.27 6-7l.64.21q1.84 46.14 3.66 92.39z" fill="#060707"/><path d="m301.17 254.69c1.15 3.94 1.92 7.83 3.41 11.42 2.44 5.88 1.51 11.27-1.19 16.71a331.08 331.08 0 0 0 -15 36.13 8.79 8.79 0 0 0 -.81 3.64c.06.66-.3 1.27-1 1.25-1 0-.54-.9-.53-1.37.15-5.4.09-10.83.61-16.2.57-5.82.46-11.65.76-17.47.93-17.89 1.46-35.8 2.14-53.7a9.54 9.54 0 0 1 .62-3.59c3.49 4.26 7.06 8.31 11.57 11.47a33.44 33.44 0 0 0 15.44 6.33c1.83.21 3 .63 2.49 2.87a18.35 18.35 0 0 0 -.13 3.79c0 4.08-.13 4.12-4.32 3.23a43.15 43.15 0 0 1 -7-1.75c-2.23-.89-4.48-1.76-7.06-2.76z" fill="#060707"/><path d="m242 254.75c.38 5.08.39 5-4.78 4.23a44.3 44.3 0 0 1 -11.22-3.47c-1.6-.7-1.69-1.38-.92-2.79 1-1.83 1.8-3.77 2.63-5.68.48-1.1 1-1.49 2.22-.82a27 27 0 0 0 10.29 3.13c1.37.12 1.9.73 1.77 2.1-.06 1.09.01 2.2.01 3.3z" fill="#060707"/><path d="m324.53 254.69c.14-4.75.12-4.81 4.6-5.78a30.92 30.92 0 0 0 7.75-2.73c1-.54 1.48-.38 1.89.58.53 1.22 1.06 2.43 1.64 3.63 2.16 4.5 2.18 4.54-2.55 6.34a44.67 44.67 0 0 1 -11.36 2.74c-1.65.18-2.29-.29-2-2a16 16 0 0 0 .03-2.78z" fill="#060707"/><g fill="#1d1d1b"><path d="m137.25 166.06 16.1 13.94-6.44 7.44-26.69-23.12 6.44-7.44 10.2 8.83 15.3-17.66-10.16-8.82 6.44-7.44 26.69 23.13-6.44 7.43-10.19-8.83-13.59 15.69z"/><path d="m156.19 126 7.69-6.13 22 27.62-7.69 6.13z"/><path d="m187.94 124 8.26 15.58-8.69 4.61-16.51-31.19 32-17a6.58 6.58 0 0 1 5.16-.53 6.37 6.37 0 0 1 3.91 3.21l5.75 10.84a6.37 6.37 0 0 1 .46 5 6.52 6.52 0 0 1 -3.33 4l-21.06 11.17zm-.24-.45 19-10.09a1.79 1.79 0 0 0 .87-1.09 1.91 1.91 0 0 0 -.16-1.51l-2.29-4.33a1.92 1.92 0 0 0 -1.16-1 1.79 1.79 0 0 0 -1.39.1l-19 10.09z"/><path d="m232.17 103.84 3.8 17.22-9.61 2.12-7.61-34.48 35.42-7.83a6.55 6.55 0 0 1 5.12.87 6.37 6.37 0 0 1 2.91 4.14l2.65 12a6.4 6.4 0 0 1 -.9 5 6.6 6.6 0 0 1 -4.28 2.94l-23.27 5.14zm-.11-.5 21-4.64a1.82 1.82 0 0 0 1.13-.83 1.93 1.93 0 0 0 .25-1.49l-1.06-4.79a1.93 1.93 0 0 0 -.85-1.24 1.76 1.76 0 0 0 -1.37-.27l-21 4.64z"/><path d="m276 113.68a6.51 6.51 0 0 1 -4.69-2.21 6.37 6.37 0 0 1 -1.7-4.77l1.22-22a6.36 6.36 0 0 1 2.17-4.6 6.59 6.59 0 0 1 5-1.68l29.47 1.63a6.53 6.53 0 0 1 4.69 2.21 6.36 6.36 0 0 1 1.64 4.74l-1.21 22a6.35 6.35 0 0 1 -2.21 4.55 6.55 6.55 0 0 1 -4.91 1.69zm6.4-26.68a1.73 1.73 0 0 0 -1.31.49 1.87 1.87 0 0 0 -.64 1.36l-.81 14.69a1.88 1.88 0 0 0 .49 1.43 1.76 1.76 0 0 0 1.24.64l19.63 1.1a1.78 1.78 0 0 0 1.31-.49 1.93 1.93 0 0 0 .64-1.37l.81-14.69a1.9 1.9 0 0 0 -.49-1.43 1.81 1.81 0 0 0 -1.27-.63z"/><path d="m326.73 110.81a1.77 1.77 0 0 0 1.06.92l20.53 6.45-2.5 8-25.23-7.93a6.57 6.57 0 0 1 -4-3.3 6.35 6.35 0 0 1 -.46-5l8.59-27.37 9.39 2.94-7.5 23.87a2 2 0 0 0 .12 1.42z"/><path d="m355.41 113.29-7-24.77 11.29 5.53 3.86 13.74 13.23-5.36 11.31 5.57-23.86 9.66-7.1 14.49-8.83-4.33z"/><path d="m397 126.35 5.61 8.55-15.78 18.25-7.44-6.43zm-7-17.2 32.56 28.15-5.46 6.31-32.6-28.16z"/><path d="m413.39 158.76-13.94 2.66-6.79-8.86 38.8-7.44 5.49 7.16a4.48 4.48 0 0 1 .41 5l-15.91 32.81-6.79-8.86 2.39-4.94-8.26-10.77zm.61-.13 7.13 9.29 5.7-11.75z"/><path d="m108.48 377.27-10.48.55-4.09-7.16 29.13-1.56 3.3 5.78a3.28 3.28 0 0 1 -.19 3.71l-14.9 22.41-4.09-7.16 2.25-3.37-5-8.71zm.46 0 4.28 7.5 5.35-8z"/><path d="m127.49 401.07-9.88 8.4-4.7-5.53 19.86-16.94 4.41 5.19c.92 1.08 1.21 2 .88 2.8l-7.54 17.76 18.77-4.57c.82-.21 1.68.22 2.6 1.3l4.41 5.19-19.86 16.93-4.7-5.53 9.87-8.4-14.09 3.45-5.69-6.7z"/><path d="m154.67 434.91-9.53 4.35-6.42-5.17 26.53-12.09 5.19 4.18a3.29 3.29 0 0 1 1.18 3.53l-5.68 26.29-6.43-5.17.86-4-7.81-6.29zm.42-.2 6.73 5.42 2-9.42z"/><path d="m207.33 449.42-2.44 4.4-22.57 4.53 15.37 8.5-3 5.39-26.22-14.51 2.43-4.4 22.57-4.53-15.36-8.5 3-5.39z"/><path d="m203.5 476a4.83 4.83 0 0 1 -2.88-2.52 4.71 4.71 0 0 1 -.23-3.73l5.34-15.4a4.74 4.74 0 0 1 2.5-2.79 4.85 4.85 0 0 1 3.83-.19l20.59 7.15a4.86 4.86 0 0 1 2.88 2.52 4.73 4.73 0 0 1 .23 3.74l-5.35 15.39a4.7 4.7 0 0 1 -2.49 2.79 4.85 4.85 0 0 1 -3.83.19zm10-17.62a1.29 1.29 0 0 0 -1 .08 1.39 1.39 0 0 0 -.73.84l-3.57 10.26a1.45 1.45 0 0 0 .06 1.12 1.32 1.32 0 0 0 .75.7l13.73 4.77a1.34 1.34 0 0 0 1-.09 1.39 1.39 0 0 0 .73-.84l3.53-10.22a1.42 1.42 0 0 0 -.06-1.11 1.29 1.29 0 0 0 -.76-.71z"/><path d="m243.5 461.51a9.17 9.17 0 0 1 6.2 3.86l10.57 15.42 2.53-16.28 7.17 1.11-4 25.77-4.93-.77a9.21 9.21 0 0 1 -6.21-3.86l-10.43-16.26-2.65 17.12-7.18-1.11 4-25.77z"/><path d="m295.41 491.6a4.82 4.82 0 0 1 -3.7-1 4.67 4.67 0 0 1 -1.84-3.25l-1.93-16.18a4.71 4.71 0 0 1 1-3.6 4.91 4.91 0 0 1 3.36-1.85l21.7-2.59a4.82 4.82 0 0 1 3.7 1 4.69 4.69 0 0 1 1.84 3.25l1.93 16.19a4.69 4.69 0 0 1 -1 3.59 4.81 4.81 0 0 1 -3.36 1.85zm1.25-20.21a1.33 1.33 0 0 0 -.89.53 1.41 1.41 0 0 0 -.29 1.07l1.28 10.79a1.41 1.41 0 0 0 .54 1 1.33 1.33 0 0 0 1 .3l14.42-1.72a1.29 1.29 0 0 0 .89-.53 1.4 1.4 0 0 0 .3-1.07l-1.3-10.76a1.43 1.43 0 0 0 -.54-1 1.33 1.33 0 0 0 -1-.3z"/><path d="m330 469.84 17.27-5.27 3.76 5.29-17.39 5.31-3.53-5 4.59 15.05-7 2.12-6.18-20.26a4.71 4.71 0 0 1 .38-3.72 4.84 4.84 0 0 1 3-2.42l23.89-7.28 1.8 5.89-20.42 6.22a1.36 1.36 0 0 0 -.78.68 1.42 1.42 0 0 0 -.1 1.11z"/><path d="m359.15 459.9 16.21-7.9 4.56 4.62-16.33 8-4.27-4.34 6.93 14.13-6.52 3.2-9.33-19a4.7 4.7 0 0 1 -.23-3.73 4.85 4.85 0 0 1 2.56-2.85l22.42-11 2.71 5.52-19.16 9.4a1.28 1.28 0 0 0 -.66.79 1.35 1.35 0 0 0 .08 1.11z"/><path d="m375.07 440.5 6.16-3.86 13.82 22.12-6.16 3.85z"/><path d="m400.58 446a1.4 1.4 0 0 0 1 .55 1.26 1.26 0 0 0 1-.26l16.68-13.29.79 1a4.7 4.7 0 0 1 1 3.6 4.82 4.82 0 0 1 -1.88 3.34l-15.64 12.43a4.85 4.85 0 0 1 -3.67 1.08 4.67 4.67 0 0 1 -3.28-1.8l-10.14-12.76a4.67 4.67 0 0 1 -1-3.6 4.82 4.82 0 0 1 1.88-3.33l15.68-12.42a4.87 4.87 0 0 1 3.68-1.08 4.66 4.66 0 0 1 3.27 1.8l.79 1-16.74 13.28a1.25 1.25 0 0 0 -.48.91 1.4 1.4 0 0 0 .31 1.07z"/><path d="m419.25 418.92 12.1-13.39 5.95 2.61-12.2 13.48-5.57-2.45 6 5.46a1.4 1.4 0 0 0 1 .38 1.32 1.32 0 0 0 .95-.42l14.31-15.83 4.57 4.13-16.75 18.52a4.8 4.8 0 0 1 -3.45 1.67 4.7 4.7 0 0 1 -3.53-1.24l-12.09-10.93a4.74 4.74 0 0 1 -1.59-3.39 4.86 4.86 0 0 1 1.32-3.6l16.74-18.52 4.57 4.13-14.31 15.83a1.33 1.33 0 0 0 -.33 1 1.42 1.42 0 0 0 .49 1z"/><path d="m442.55 396 11 6.94-3.87 6.15-22.07-13.9 14.28-22.67a4.87 4.87 0 0 1 3.11-2.24 4.73 4.73 0 0 1 3.69.62l6.13 3.86c.92.58 1.59 1.79 2 3.62 1.83-.42 3.21-.34 4.13.24l5.67 3.57-3.87 6.15-4.91-3.09a1.41 1.41 0 0 0 -1.09-.2 1.31 1.31 0 0 0 -.86.58l-7.44 11.82zm-.32-.2 8.47-13.45a1.28 1.28 0 0 0 .15-1 1.35 1.35 0 0 0 -.65-.9l-3.06-1.94a1.43 1.43 0 0 0 -1.1-.19 1.33 1.33 0 0 0 -.85.57l-8.47 13.45z"/></g><path d="m456.42 464.45c-7.21-.6-13.89-5-21.22-7.37-3.89-1.28-2.09-3.64 0-5.51 22.61-20.06 39.05-44.54 51.86-71.72 6.86-14.55 13-29.36 15.39-45.31 1.16-7.64 3.77-7.6 8.78-3.18 3.7 3.27 7.92 6 11.32 9.57 3.73 3.89 5.38 8 3.65 14.3-10.86 39.65-30.9 73.94-58.78 103.87-3.8 4.1-6.35 5.32-11 5.35z" fill="#171818"/><path d="m426.12 460c.36.62.86 1.1.93 1.63 4.1 32.33 8.91 26.92-21.82 44.78-27.81 16.16-58.05 25.8-90.11 29.79-9.05 1.12-15.57.21-19.23-9.4-2.12-5.57-9.56-10.77-7.15-15.95 1.81-3.9 10.33-1.13 15.84-1.6 30.35-2.63 58-13.53 85.42-26.1 13.41-6.15 23.16-16.93 36.12-23.15z" fill="#171818"/><path d="m532.5 311.12c-5.9 4.2-13.81 5.19-21 8.09-3.8 1.55-4-1.41-3.55-4.21 4.27-29.91 1-59.22-6.82-88.23-4.17-15.54-9.1-30.78-17.56-44.52-4.05-6.58-2-8.23 4.64-8.1 4.94.1 9.93-.53 14.82 0 5.36.55 9.29 2.64 12 8.54 17.35 37.28 24.23 76.39 22.33 117.25-.19 5.57-1.36 8.15-4.86 11.18z" fill="#171818"/><path d="m491.34 144.76c-1.83 7-7.28 12.83-10.9 19.63-1.93 3.62-3.95 1.44-5.43-.95-15.88-25.71-37.18-46.12-61.74-63.41-13.16-9.26-26.7-17.8-42-22.94-7.33-2.46-6.84-5-1.63-9.19 3.86-3.09 7.3-6.77 11.38-9.51 4.47-3 8.82-3.92 14.71-1.15 37.2 17.52 67.54 43.15 92.27 75.76 3.35 4.45 4.11 7.17 3.34 11.76z" fill="#171818"/><path d="m351.55 43.06c3.13 6.53 2.73 14.5 4.36 22 .86 4-2.08 3.65-4.76 2.77-28.73-9.33-58.15-11.15-88.09-8.49-16.06 1.43-31.88 3.66-46.88 9.66-7.18 2.85-8.46.58-7.18-6 .95-4.85 1.2-9.88 2.54-14.6 1.46-5.21 4.21-8.72 10.46-10.4 39.71-10.65 79.42-10.68 119.33-1.74 5.51 1.22 7.85 2.81 10.22 6.8z" fill="#171818"/><path d="m184.29 56.15c6.5 3.19 11.13 9.69 17.07 14.6 3.17 2.61.63 4.15-2 5.12-28.36 10.46-52.59 27.27-74.42 47.9-11.69 11.06-22.76 22.63-30.84 36.6-3.86 6.69-6.27 5.71-9.33-.23-2.26-4.4-5.18-8.5-7.06-13-2-5-2.08-9.43 1.81-14.65 24.56-33 55.71-57.6 92.57-75.33 5.04-2.46 7.91-2.67 12.2-1.01z" fill="#171818"/><path d="m58.73 175.75c7-2 14.75-.25 22.45-.58 4.1-.17 3.25 2.67 1.93 5.17-14.11 26.73-20.85 55.43-23.28 85.38-1.3 16-1.79 32 1.56 47.83 1.6 7.56-.86 8.44-7.1 6.07-4.62-1.76-9.53-2.85-14-5-4.87-2.33-7.86-5.62-8.46-12.1-3.79-40.94 2.89-80.09 18.44-117.92 2.16-5.15 4.12-7.19 8.46-8.85z" fill="#171818"/><path d="m40.36 345.61c4.09-6 11.18-9.63 16.89-14.81 3-2.75 4.2 0 4.79 2.74 6.27 29.56 19.42 55.95 36.71 80.52 9.26 13.16 19.12 25.78 31.79 35.78 6.06 4.78 4.74 7-1.57 9.2-4.68 1.61-9.16 3.91-13.92 5.11-5.22 1.32-9.63.71-14.24-3.89-29.1-29-49-63.41-61.25-102.44-1.67-5.34-1.47-8.16.8-12.21z" fill="#171818"/><path d="m137.27 487.3c-.72-7.21 2.36-14.57 3.39-22.21.55-4.06 3.19-2.72 5.42-1 23.84 18.57 50.9 30.29 79.95 37.95 15.56 4.1 31.23 7.39 47.36 6.88 7.72-.24 8.16 2.33 4.72 8.05-2.54 4.24-4.48 8.89-7.35 12.88-3.14 4.37-6.91 6.74-13.4 6.2-41-3.48-78.32-16.94-112.83-38.91-4.72-2.99-6.39-5.28-7.26-9.84z" fill="#171818"/></svg>