<svg id="Capa_1" data-name="Capa 1" xmlns="http://www.w3.org/2000/svg" viewBox="0 0 566.93 566.93"><defs><style>.cls-1,.cls-6{fill:#fff;}.cls-2{fill:#050404;}.cls-3{fill:#f2f0f0;}.cls-4{fill:#efeded;}.cls-5{fill:#efeeed;}.cls-6{font-size:68.68px;font-family:Cambria;}</style></defs><circle class="cls-1" cx="283.7" cy="283.8" r="279.21"/><circle class="cls-1" cx="283.72" cy="275.99" r="264.15"/><path class="cls-2" d="M284,457.92c103.38,0,192.25-75.59,210.45-177.18,18.11-101.08-42-212-154.09-242.86-5.31-1.46-9.48-3.33-9.72-9.7-.27-7.37,3.49-11.61,10.79-10.62,15.08,2.06,29.48,6.94,43.38,12.87C475.4,69,532.36,136.45,551.2,233c28.37,145.26-65.57,284.92-208.77,316.34A271.93,271.93,0,0,1,18.31,344.87C-15.58,199.48,73.88,53.2,221.59,18.05c10.73-2.56,16.5,2.15,14.93,11.9-.86,5.31-4.72,6.62-9,7.78A206.32,206.32,0,0,0,151.66,75.8C105,113.09,77.45,161.61,71.3,220.89c-7.49,72.16,16.6,133.41,70,182.31C180.73,439.29,231.6,457.92,284,457.92Z"/><path class="cls-3" d="M411,410.64l-.28.47.25-.5Z"/><path class="cls-3" d="M407.59,412.87l.27-.47-.26.48Z"/><path class="cls-4" d="M439.15,384.73l.17-.18-.2.15Z"/><path class="cls-4" d="M440.26,383.59l.26-.47-.26.47Z"/><path class="cls-3" d="M403.09,416.26l-.26.48c.08-.17.17-.33.26-.49Z"/><path class="cls-3" d="M399.7,418.5,400,418l-.26.5Z"/><path class="cls-3" d="M399.72,418.52l-.27.47.25-.49Z"/><path class="cls-3" d="M396.33,420.75l.27-.47-.26.48Z"/><path class="cls-5" d="M128.28,384.73c-.16-.15-.32-.3.18.18-.43-.55-.29-.38-.16-.2Z"/><path class="cls-5" d="M128.3,384.71c.18.13.35.27-.19-.15.47.49.32.33.17.17Z"/><path class="cls-4" d="M432.37,391.47l.27-.48-.26.49Z"/><path class="cls-4" d="M432.38,391.48l-1.13,1.13h0l1.13-1.13Z"/><path class="cls-5" d="M139.54,396l.14.13-.12-.15Z"/><path class="cls-4" d="M427.86,396c.13-.17.27-.34-.13.16l.15-.14Z"/><path class="cls-5" d="M155.31,409.51l.15.14c-.4-.51-.27-.33-.13-.16Z"/><path class="cls-3" d="M412.09,409.48l.28-.47c-.08.16-.17.33-.25.5Z"/><path class="cls-5" d="M155.33,409.49c.17.14.34.27-.18-.15l.16.17Z"/><path class="cls-3" d="M371.55,434.27l.27-.47-.26.47Z"/><text class="cls-6" transform="translate(155.81 497.79) rotate(24.79)">Ὁ</text><text class="cls-6" transform="translate(209.73 521.27) rotate(12.43)">π</text><text class="cls-6" transform="translate(255.19 530.5) rotate(2.6)">λ</text><text class="cls-6" transform="translate(292.3 531.54) rotate(-4.27)">ῖ</text><text class="cls-6" transform="matrix(0.98, -0.19, 0.19, 0.98, 315.11, 530.03)">τ</text><text class="cls-6" transform="matrix(0.94, -0.35, 0.35, 0.94, 352.13, 522.69)">α</text><text class="cls-6" transform="translate(392.43 506.58) rotate(-28.32)">ι</text><text class="cls-6" transform="translate(181.79 -139.06) rotate(17.6)">Μ</text><text class="cls-6" transform="matrix(1, 0.09, -0.09, 1, 241.81, -121.74)">ά</text><text class="cls-6" transform="matrix(1, -0.08, 0.08, 1, 286.05, -118.52)">χ</text><text class="cls-6" transform="matrix(0.97, -0.24, 0.24, 0.97, 323.8, -121.55)">α</text><text class="cls-6" transform="translate(365.69 -132.82) rotate(-21.58)">ι</text><path class="cls-2" d="M117,289.88s67.62,22.27,87.87,60.74c.41-.4-6.88-23.89,8.91-45.35,0,.4-13,53.05,81,136.47,0-.41,9.72-117.85,9.72-117.85s-41.71-26.72-33.61-55.07c-.41.4,61.15,44.55,61.15,44.55l-8.1,50.21L337.7,373.7V321.46l14.57-32.8V264.37H311.78l-1.22-4.46L345,248.57s9.31-12.21-32.4-61.79c1.21.64,38.06,27.24,41.71,49.58,0,0-2.43-77.69-103.67-77.69.41-.4-62.77,5.67-73.7,60.34C177.33,219.42,175.31,289.07,117,289.88Z"/><path class="cls-2" d="M362.8,225.08l68.44-41.3s-13.36-44.14-24.3-49c-1.62-.41-27.53,6.07-27.53,6.07l21.46-15s-37.66-41.3-70.06-44.14c.41,0-14.17,17.82-14.17,17.82l8.1-21.06s-59.13-10.93-82.61,6.89c1.21,0,2,20.24,2,20.24l-8.5-18.22s-47,22.27-62.77,53.86c1.21.4,10.53,19.84,10.53,19.84l-16.2-14.17s-19.84,29.56-17.41,70.87l13.36,7.28s10.12-76.94,101.64-81.8C265.61,143.28,348.22,144.9,362.8,225.08Z"/></svg>