<svg enable-background="new 0 0 112.8 112.8" viewBox="0 0 112.8 112.8" xmlns="http://www.w3.org/2000/svg"><circle cx="56.4" cy="56.4" fill="#e73731" r="56.4"/><circle cx="56.4" cy="56.4" fill="#020203" r="54.3"/><circle cx="56.4" cy="56.4" fill="#e73731" r="52.9"/><circle cx="56.4" cy="56.4" fill="#020203" r="36"/><circle cx="56.4" cy="56.4" fill="#e73731" r="34.6"/><circle cx="56.4" cy="56.4" fill="#020203" r="33.5"/><g fill="#fffdfc"><path d="m15.6 84 6.5-4.5.7 1-6.5 4.5z"/><path d="m17.7 87 5.8-5.3.7.7-1.9 5.1 5.2-1.4.7.7-5.8 5.3-.8-.8 3.6-3.3c.1-.1.2-.1.3-.2s.2-.2.4-.3c-.2.1-.4.2-.5.2s-.2.1-.3.1l-4.3 1.2-.2-.2 1.6-4.1c.1-.2.1-.3.2-.4s.1-.2.2-.4c-.1.1-.2.2-.3.3s-.2.2-.3.3l-3.6 3.3z"/><path d="m24.3 93.9 4.8-6.3 3.6 2.8c.3.3.5.5.5.8s-.2.7-.5 1.1l-1.1 1.4c-.3.4-.6.7-.9.7-.3.1-.6 0-.9-.3l-2.6-2-1.9 2.4zm7.2-2.8-2.2-1.7-1.3 1.7 2.2 1.7c.2.1.3.2.4.2s.2-.1.4-.3l.5-.7c.1-.2.2-.3.2-.5 0-.1-.1-.3-.2-.4z"/><path d="m30.4 98.3 3.8-6.9 4.7 2.6-.6 1.2-3.6-2-.9 1.5 2.1 1.2-.6 1.2-2.1-1.2-.9 1.7 3.7 2-.7 1.3z"/><path d="m37.2 101.8 2.6-7.4 4.2 1.5c.4.1.6.4.7.6.1.3.1.7-.1 1.2l-.6 1.7c-.2.5-.4.8-.7 1s-.6.2-1 0l-.6-.2 1.3 3.6-1.7-.6-1-3.5-1.1-.4-1 2.8zm5.9-4.8-2.6-.9-.7 2.1 2.6.9c.2.1.4.1.5 0s .2-.2.3-.4l.3-.9c.1-.2.1-.4.1-.5s-.3-.2-.5-.3z"/><path d="m44.8 104.2 1.7-7.7 1.2.3-1.7 7.7z"/><path d="m47.3 104.9 3.8-7.5 1.2.1 2.2 8.2-1.4-.1-.4-1.8-3.3-.4-.8 1.7zm2.6-2.9 2.3.2-.8-3.3z"/><path d="m56 105.6-.3-7.9 1.2-.1.3 6.4 4-.2.1 1.5z"/><path d="m65.2 104.8.9-8.4 1.1-.3 4.9 6.9-1.3.4-1.1-1.5-3.2.9-.1 1.8zm1.5-3.6 2.2-.6-1.9-2.8z"/><path d="m75.4 94.5-3.5 1.6 2.1 4.6 3.5-1.6-.7-1.6-1.8.8-.6-1.2 2.9-1.3 1.1 2.5c.3.7.4 1.1.4 1.5-.1.3-.3.6-.8.8l-3.3 1.5c-.5.2-.8.2-1.1.1-.3-.2-.6-.6-.9-1.2l-1.7-3.8c-.3-.7-.4-1.1-.4-1.5.1-.3.3-.6.8-.8l3.3-1.5c.5-.2.8-.2 1.1-.1.3.2.5.6.8 1.2l.1.2-1 .8z"/><path d="m81.4 98.6-4.4-6.5 4.5-3 .8 1.1-3.5 2.3 1 1.5 2-1.4.8 1.1-2 1.4 1.1 1.6 3.5-2.4.8 1.2z"/><path d="m87.7 94.1-5.5-5.7.6-.6 5.9.8c.2 0 .4.1.5.1.2 0 .3.1.5.1-.3-.3-.5-.5-.7-.7-.1-.1-.2-.2-.3-.3l-2.9-3 .8-.8 5.5 5.7-.6.6-6.2-.8c-.2 0-.3-.1-.4-.1s-.2-.1-.4-.1l.5.5s.3.3.4.4l3 3.1z"/><path d="m90.2 81.9 5.2 3.9-.7 1-5.2-3.9-1.5 1.9-1.1-.9 3.7-4.8 1.1.9z"/></g><path d="m15.1 39.4c-2.2-6 .8-11.8 3.4-13.7-.1 4.9-.5 9.6-3.4 13.7z" fill="#fefefe"/><path d="m12.1 50.6c-3.5-4.6-2.6-10.9-.2-14.1 1.1 4.8 2 9.4.2 14.1z" fill="#fefdfd"/><path d="m12.2 62.2c-4.2-3.2-5.4-9.2-3.9-13.5 2.3 4.3 4.4 8.5 3.9 13.5z" fill="#fefefd"/><path d="m8 61.4c3.3 3.5 6.4 7 7.1 12-4.5-2-8.1-8-7.1-12z" fill="#fefefe"/><path d="m20.7 30.2c-.3-3.3 2.3-7.5 5.8-9.2.4 3.2-3 8.6-5.8 9.2z" fill="#fefdfd"/><path d="m26.2 30.9c-2.2 3.3-4.9 5.7-8.7 6.9 1.2-3.8 5-6.9 8.7-6.9z" fill="#fefdfc"/><path d="m17.2 49.5c.7 2.6-1.5 8.3-3.8 9.9-.9-3.4 1-8.3 3.8-9.9z" fill="#fefdfd"/><path d="m16.8 59.7c1.3 2.6.6 8.6-1.1 10.6-1.7-3.2-1.3-7.8 1.1-10.6z" fill="#fefdfd"/><path d="m20.3 39.6c-.1 2.8-3.6 7.6-6.2 8.6-.1-3.3 2.8-7.4 6.2-8.6z" fill="#fefdfc"/><path d="m97.6 39.4c-2.2-2.9-4-10.3-3.3-13.4 3.3 1.3 5.1 8.7 3.3 13.4z" fill="#fefefe"/><path d="m100.8 36.5c2.4 3.2 3.2 9.6-.2 14.1-1.8-4.7-.9-9.3.2-14.1z" fill="#fefefd"/><path d="m104.4 48.7c1.4 2.8 1.1 9.5-3.8 13.5-.6-5 1.5-9.2 3.8-13.5z" fill="#fefefe"/><path d="m97.5 73.4c.8-5 3.9-8.5 7.2-12 .7 3.2-1.6 9.6-7.2 12z" fill="#fefdfd"/><path d="m86.1 21c3.2 1.2 6.2 5.9 5.9 9.2-2.8-.6-5.7-5.2-5.9-9.2z" fill="#fefdfd"/><path d="m86.8 30.9c3.2 0 7 3 8.3 6.6-2.6 0-7.5-4-8.3-6.6z" fill="#fefcfc"/><path d="m95.5 49.5c2.8 1.7 4.5 6 3.8 9.9-2.2-1.4-4.5-7.3-3.8-9.9z" fill="#fefdfd"/><path d="m92.4 39.6c3.1.9 6.1 4.9 6.2 8.6-2.5-.9-6.3-6-6.2-8.6z" fill="#fefdfc"/><path d="m95.9 59.7c2.3 2.8 2.7 6.4 1.2 10.6-1.8-1.5-2.6-7.9-1.2-10.6z" fill="#fefdfd"/><path d="m40.8 13.3c-.6.4-.1.9-.1 1.3.4 2.3-.2 4.8-1.8 6.6-.3-.1-.5-.2-.6-.5 1.3-2.1 2.1-4.3 1.2-6.9-1 .4-2 .8-3 1.2-.5 0-.4-.3-.6-.7 1.1-.5 2.2-.9 3.3-1.4 0-.8-.5-1.5-.6-2.1.1-.4.4-.3.6-.5.6.7.6 1.5 1 2.2 1.6-.6 3.1-1.2 4.6-1.8.3.2.3.4.4.7-1 .7-2.2.9-3.3 1.5-.1.2-.3.3-.5.3-.1 0-.2.1-.2.1-.1 0-.3 0-.4 0z" fill="#fefdfd"/><path d="m41.9 13.2c.4.8.7 1.7 1.1 2.7.8-1.1.8-2.2 1.2-3.3.3-.2.5-.1.8.1-.1 1.6-.7 3-1.4 4.4 0 .4.1.8.5 1.1.8-.2 1.6-.5 2.2-.9.3-.7-.2-1.2-.2-1.7.2-.3.5-.2.7-.2.7 1.7.6 2.3-.3 2.8-2.1 1.2-3 1.2-3.8.1-.4.5-.9 1-1.3 1.4-.4.1-.6-.1-.8-.3v-.1c.4-.8 1.3-1.2 1.6-2.2-.4-1.1-.9-2.4-1.3-3.6 0-.1.1-.2.2-.2.4-.3.6-.3.8-.1z" fill="#fefdfd"/><path d="m41 10.7c-.2-.4-.1-.6.1-.9.9 0 1.8.1 2.8.6-1.1 1.1-2.1 0-2.9.3z" fill="#fefdfd"/><path d="m61.3 16.4c-.4-.5-1.3-.6-1.6-1.3.7-1.2 1.2-2.5 1.2-4.1-1.3 0-2.6 0-3.9 0 0-1 0-1.8 0-2.7h3.1c0 .6.1 1-.3 1.4-.5.2-1.1-.1-1.6.2-.1.3.1.6.2.8.7.1 1.4.1 2.1-.3.5-.9.5-1.9.6-3-1.7 0-3.4 0-5.1 0v9.6c1.2.4 2-.4 2.9-1 .7.4 1.2 1 2 1.2.2-.3.5-.4.4-.8zm-4.4-.2c0-1.2 0-2.2 0-3.2 0-.2 0-.5 0-.8.3.2.4.4.4.7.3.7.6 1.5 1 2.2-.3.5-.8.8-1.4 1.1zm1.1-4.3h2c-.1.9-.4 1.6-.9 2.4-.7-.7-.9-1.5-1.1-2.4z" fill="#fefdfd"/><path d="m52.3 7.2c-.2 3.2.3 6.3-1 9.1.2.4.4.6.8.5.7-1.1.7-2.4 1-3.7.5 0 .9-.1 1.4.1.1.9.2 1.8-.1 2.7-.4.2-.9-.1-1.3.2 0 .3 0 .6.3.8.6 0 1.3.3 1.9-.5.2-3 .2-6.1.2-9.2-1.1-.1-2.1-.1-3.2 0zm2.2 5c-.4.2-.9.1-1.4.1 0-.6 0-1.1 0-1.6.5-.3.9-.1 1.4.1.1.4.2.9 0 1.4zm0-2.6c-.4 0-.9 0-1.3 0 0-.5 0-.9 0-1.5h1.4c.1.5.1 1-.1 1.5z" fill="#fefdfd"/><path d="m74.8 17.4c.1-.6-.3-.6-.7-.8-.9-.4-1.7-.7-2.7-1.1.1-.4.3-.7.4-1-.2-.1-.4-.3-.8-.3-.2.3-.4.5-.6.9-1.1-.4-2.2-.8-3.2-1.2-.1.2-.3.4-.2.8.9.4 1.9.8 2.9 1.2-1.3 1.5-2.9 1.3-4.5 1.3-.1.4-.1.6.2.8 2.1.3 3.9-.1 5.3-1.7 1 .4 1.9.8 2.8 1.2-.4.9-.7 1.6-1.3 2.2-.7 0-1.1-.5-1.8-.4-.4.9.5.9.9 1.1.7.3 1.4.3 1.8-.4.5-.9 1-1.8 1.5-2.6z" fill="#fefdfd"/><path d="m76.4 12.2c-1.5-.6-2.9-1.2-4.2-1.7.1-.5 0-.9-.6-1-1.2.6-2.6.8-4 1 0 .4.1.6.3.8.6.1 1.1-.1 1.7-.1.4.5.8 1 1 1.8-1.4.1-2.6-.2-3.9-.3-.1.5 0 .8.4.9 1.3.1 2.6.2 4 .3.5 0 .8.2 1 .6 1 .8 2.1 1.6 3.1 2.5.4 0 .7-.2.8-.6-1-.8-2.1-1.4-3-2.4 1.1-.8 2.7-.2 3.4-1.8zm-4.5.7c-.3-.5-.7-1-1-1.5-.1-.1-.2-.3-.3-.4.3-.2.5-.1.6.1 1 .4 2 .8 3.3 1.3-1 .5-1.7.5-2.6.5z" fill="#fefdfd"/><path d="m71.2 14.2c.2.1.4.2.5.3-.1-.1-.2-.2-.5-.3z" fill="#fefdfd"/><path d="m38.9 76.4c-1.4-1.5-2.4-2.3-4.3-3.3 7.1-4.2 11.4-8.9 12.9-16-7.2 0-9.8.2-12 .6v-4.6c2 .2 4.2.3 8.3.3 4.2 0 6.3-.1 8.4-.3-1.2 10-4.1 15.7-13.3 23.3zm20.1-2.5c0 3.4-.5 4-8.1 5.3-.3-1.7-.8-3.1-1.9-5 5-.1 5.8-.7 5.8-2.2v-24.7c-8.1 0-10.7 0-12.7.4v-4.4c2.6.3 5 .4 8.6.4 5.2 0 6.5-.1 8.6-.4-.1 1.2-.2 1.9-.2 6.1.9 2.8 2 5.2 3.2 7.4 3.7-2.9 6.8-6.3 8.9-9.2 1.4 1.5 3.2 2.9 4.2 3.4.7.4.7.8-.5.9-.8.1-2.3.9-10.7 7.9 3.7 4.7 8.1 8 14 10.5-1.7 1.7-2.5 3-3.1 4.9-7.2-4.4-12.2-9.1-16-18.3v17zm1.4-31.8c-3.6-2-7-3.4-11.4-4.9l2.3-3.7c4.2 1.3 7.5 2.6 11.5 4.4z" fill="#fefdfd"/></svg>