<svg enable-background="new 0 0 566.9 566.9" viewBox="0 0 566.9 566.9" xmlns="http://www.w3.org/2000/svg"><circle cx="283.5" cy="283.5" fill="#3788b7" r="279.2"/><g fill="#fd0"><path d="m499.7 442.1c-6.6 11.6-15.7 21.3-24.9 30.9-10.6 11.1-22.4 21.1-34.9 29.9-1.9 1.3-3.7 2.7-6.1 2.8-10.9-.5-20.9-4.1-31-7.8-1.8-3 .8-4.1 2.6-5.2 16.4-9.4 30.8-21.3 44.6-34 5.4-4.9 9.3-11.2 15.3-15.6.8-.4 1.6-.7 2.5-1.1h-.1c10.5-1.3 21.3-1.3 32 .1z"/><path d="m132 505.7c-19.3-11.9-35.5-27.2-50.2-44.1-5.4-6-10.4-12.4-14.8-19.2 1.9-2.6 4.6-1 6.9-1.1 6.8-.1 13.7-.6 20.5.4l1.3.1c.7-.6 1.8-.6 2.5 0 .2.2.6.3.9.2.8.3 1.7.6 2.5 1 7.6 5.3 12.6 13.2 19.5 19.3 12.1 10.9 25 20.7 38.8 29.3 2.1 1.3 6.2 1.8 4.3 6.1-10.5 3.9-20.9 7.8-32.2 8z"/><path d="m406.4 455.7c1.9-3.3 4.9-5.5 7.7-7.9 17.7-15.2 33.9-31.9 45.9-52.1 2.7-.4 1.8 1.8 1.8 2.9.1 13.1 0 26.2.1 39.3 0 3-1.4 5.1-3.1 7.2-11.2 13.3-24.4 24.3-38.5 34.4-5.2 3.8-10.6 7.4-16.3 10.5-2.2 1.2-4.4 2.7-6.9.8-1.6-4.8 1-9 2.2-13.3 2.1-7.3 2.7-15.2 7.1-21.8z"/><path d="m106.9 395.6c13.7 22.7 32.1 41 52.5 57.5 4.1 4.3 4.6 10.1 5.8 15.4 1.7 7.3 5.7 14.2 4.7 22.1-2.5 2-4.8.6-6.9-.7-12-7.1-23.6-14.9-33.9-24.4-7.3-6.7-15.4-12.7-21.3-21-1.5-2.1-2.8-4-2.8-6.8.1-13.1 0-26.2.1-39.3 0-1-.9-3.1 1.8-2.8z"/><path d="m61.9 435.3c-13.3-19.7-23.2-40.9-31.2-63.2.3-.8 1.1-1.3 1.9-1.3 10.3 1.9 20.7 3.3 29.8 9 5.9 10 10.2 20.9 16.5 30.8 3.9 6.1 7.7 12.3 12.1 18.2 1.4 1.9 3.5 3.7 2.1 7.3-9.7.4-19.6.1-29.5.1-.7 0-1.3-.3-1.7-.9z"/><path d="m536.2 372.1c-8 22.3-18 43.5-31.2 63.2-5.3 2.4-10.8.1-16.1.9-5.1-.2-10.3.4-16.7-.6 5.3-10.3 12.3-18.4 17.6-27.7s9.3-19.1 14.9-28.1c9.1-5.5 19.5-7.1 29.7-8.9.8-.2 1.4.5 1.8 1.2z"/><path d="m468.5 381.8c7.5-15.6 13.5-31.9 17.9-48.6 3.1-.1 2.9 2.6 3.4 4.4 3.5 13.1 7.6 26 10.4 39.3.3 2.7-.3 5.4-1.6 7.8-6.4 14-14.1 27.4-23 40-1.6 2.2-3.1 4.5-7.4 5 0-16.1-1.9-32 .3-47.9z"/><path d="m80.5 333.2c4.4 15.2 8.9 30.4 16.2 44.6l1.5 2.7c.4.6.5 1.3.5 2 1 15.5 1 31.1-.1 46.7-3.7.5-5.3-1.8-6.8-3.9-9.4-13.1-17.4-27-24-41.7-1-2.1-1.4-4.4-1.1-6.7 2.9-13.2 6.9-26.2 10.4-39.3.6-1.8.3-4.5 3.4-4.4z"/><path d="m471 108.6c22.7 3.8 67.5 85.5 75.2 135.2-2.4 4.2-6.4 7.1-10.8 11.6-3-27.1-10.2-53.6-21.4-78.5-11-24.8-26.1-47-43-68.3z"/><path d="m31.8 255-11.5-10.6c10.1-53.9 33.7-99.9 74-137 2 4.9-2 6.9-4.1 9.5-20.7 25.2-36.7 53.9-47 84.8-5.8 17.3-9.7 35.2-11.4 53.3z"/><path d="m526.3 264.6-4.7 4.4c-4.5-3-7.2-6.6-7.8-12.1-5.4-47.5-23.8-89.4-54.2-126.1-2.4-2.9-2.4-2.9-3.3-6.3 22.6.8 72.3 99.9 70 140.1z"/><path d="m45.3 269-4.7-4.4c-3.1-38.2 42.6-130.8 69.3-140.7 2 2.7-.4 4.2-1.7 5.8-31.2 37.1-49.9 79.8-55.2 128.2-.6 5-3.5 8.1-7.7 11.1z"/><path d="m28.2 363.6c-4.9-16.9-9-34-10-51.6.2-.1.4-.4.5-.3 10.8 4.3 21.7 8.6 29.3 18.1 2.3 11.4 5.3 22.6 8.9 33.7.9 2.7 2.1 5.5.2 8.4-5 1.7-9.3-1-13.7-2.3-5.2-1.4-11.1-1.5-15.2-6z"/><path d="m548.8 312c-1 17.7-5.1 34.8-10 51.7-8.8 5.5-18.5 7.9-28.8 8.3-2.1-2.8-.9-5.6.1-8.3 3.6-11 6.6-22.3 8.9-33.7.4-1.6 1.4-3.1 2.7-4.1 8-5.3 16.2-10 24.8-14.2.7-.4 1.6-.2 2.3.3z"/><path d="m523.8 277.8c7.1-8.7 15.5-16 24.1-24.8 3.3 17.3 2.1 33.6 2.3 49.8-6.9 8-16.6 11.6-25.5 16.5-1.6.9-2.8-.2-3.3-1.8.1-12.1.8-24.2.9-36.3.1-1.3.6-2.5 1.5-3.4z"/><path d="m16.8 302.8c.1-16.1-.9-32.4 2.1-49.9l23.8 23.8c1.3 1.1 2 2.8 2 4.5 0 12.1.7 24.1.9 36.2-.6 2-2 2.9-3.7 1.9-8.6-5.1-18.4-8.4-25.1-16.5z"/><path d="m67.3 248c-2.5-29.7 39.3-103.4 62.6-112.4 1.8 2.5-.6 3.8-1.8 5.2-21.5 26.2-37.7 55.2-45.7 88.4-2 8.2-9.3 11.8-15.1 18.8z"/><path d="m499.5 247c-7.8-6.9-14.2-13.1-16.7-23.3-7.5-30.6-23.3-57.2-42.9-81.6-1.4-1.8-3.9-3.2-3.3-6.2 21.1 4.3 66.7 84.2 62.9 111.1z"/><path d="m488.9 315c1.8-9.2 1.8-18.6 2.5-28 3.4-.3 3.8 2.7 4.9 4.6 6.2 10.6 12.4 21.2 18.3 32 .6 1.1 1 2.3 1.3 3.5.1.7.1 1.3.1 2-2 10.8-4.6 21.4-8.1 31.9-.9 2.9-1.2 6.8-5.7 7-3.3-4.4-3.5-9.8-4.8-14.7-3.4-12.7-7.8-25.1-8.5-38.3z"/><path d="m75.5 287c.7 9.3.7 18.7 2.5 28-1.2 16.8-7.3 32.4-11.1 48.5-.3 1.7-1 3.2-2.2 4.4-4.2.1-4.7-3.6-5.5-6.3-3.4-10.9-6.7-21.8-8.3-33 .4-5 3.5-8.7 5.8-12.9 4.4-8 9-15.8 13.6-23.7 1.1-2 1.6-5.2 5.2-5z"/><path d="m491.4 273.8c-1.3-8.9-2.5-17.9-3.8-26.8l1.7-1.3 28.3 29.5c3.2 9.2 2.7 32.5-.8 39.8-1.4 1-2.4.2-3.1-.9-7.6-13.3-16.6-25.8-22.3-40.3z"/><path d="m49.3 275.3 28.4-29.4 1.6 1.2c-1.3 8.9-2.6 17.8-3.8 26.8-3 9.9-9.6 17.9-14.3 26.9-2 4.1-4.3 8.1-6.9 11.8-1 1.3-1.4 3.8-4.1 2.6-.9-.9-1.5-2-1.7-3.3-.8-12.2-3.3-24.5.8-36.6z"/><path d="m337 547.5c32-6.5 61.6-19 89.5-35.8-.2-3.3-3-3.6-5.3-4.3-7.7-2.4-15.6-4.3-23.3-6.5-2.3-.7-5-.8-6.9-4.3 1.5-7.3 3.6-15.3 5.7-23.2 1-3.5 2.8-7 1.4-10.9-.6-.9-1.3-1.6-2.5-.8-24.7 15.9-51.5 26.3-80.7 30.3-.3.3-.5.6-.5 1l-3.1.1-.1-.2c-.9-.1-1.8-.1-2.7.1-1.9.1-3.7.3-5.6.4-47.5 4.2-91.5-5.9-131.7-31.7-1.2-.8-1.9 0-2.5.9-1 2.3-.3 4.5.3 6.7 2.1 7.2 4 14.5 5.7 21.8.6 2.4 1.7 4.8.2 7.3-1.7 1.7-4.1 1.9-6.3 2.5-7.6 2.2-15.3 4-22.9 6.4-2.3.7-5.1 1-5.3 4.4 2.2 1.2 4.3 2.4 6.5 3.7 43.4 25.1 89.9 38.4 140.3 37.6 11.4.2 22.8-.8 33.9-3 .8.1 1.6-.1 2.3-.5 4.7.3 9.1-1 13.6-2zm-17 1.4c0 .2-.1.3-.1.5h-.4z"/><path d="m214.3 46.6-4.7 7.1c-4.9-4.2-10.5-7.8-16.8-10.9l4.9-6.9c5.7 2.7 11.2 6.2 16.6 10.7zm2.1 21.4-4.2 7.3c-5-3.7-10.7-6.8-17.1-9.3l4.5-7.3c6.6 2.6 12.2 5.7 16.8 9.3zm1.9 16c-1.4 12.2-3.7 22.9-7 32.1l-7.9-3.9c3.4-9.5 5.7-19.9 7-31.2zm51.9-22.6-47.9 8.2-5.9-34.5 47.9-8.2zm-20.3 38.5c-7.1 4.7-13.9 8.6-20.2 11.5l-3.7-5.8c.3-1 .2-3-.3-6.1l-4.5-26.2 7.9-1.4 1.3 7.4 15.1-2.6 1.2 7.2-15.1 2.6 2.4 14c4.5-2.5 9.3-5.3 14.3-8.5zm8.8-57.7-1.2-6.8-31.8 5.5 1.2 6.8zm2.3 13.2-1.1-6.5-31.9 5.5 1.1 6.5zm20.4 30.5c.7 5.1.7 8.8 0 11.3-.6 2.5-2.1 4.2-4.2 5.1-2.2.9-5.4 1.8-9.8 2.5-4.4.8-7.4 1-8.9.8-1.5-.3-2.8-1-3.8-2.2s-1.8-3.1-2.2-5.5l-5-28.8 8-1.4 1.3 7.4 19.1-3.3 1.2 7.2-19.1 3.3 2.4 14.2c.1.7.6 1.2 1.4 1.4s2.9.1 6.1-.5c2.6-.4 4.2-.9 4.8-1.5.6-.5.9-1.7 1.1-3.5.1-1.8-.1-4.1-.6-7z"/><path d="m315.8 78.5c-7.4 11.3-14.5 19.9-21.2 25.9l-5.9-6.1c7.7-7.1 14.8-15.7 21.3-25.9zm2.4-15.7-6.4 5.6c-3.4-5.2-7.9-10.2-13.6-14.9l6.7-5.2c5.5 4.5 9.9 9.3 13.3 14.5zm6-20.1-7.1 4.9c-2.9-5.9-6.9-11.3-12.1-16.4l6.8-4.9c6 6.2 10.1 11.6 12.4 16.4zm44.7 60.9c-1.3 5.2-2.7 8.8-4.2 10.7s-3.1 3-4.7 3.4-5.3-.1-10.9-1.4c-5.3-1.2-8.5-2.2-9.7-2.9s-2.1-1.9-2.7-3.2c-.6-1.4-.8-2.8-.4-4.4l3.8-17.2-19-4.2 6.2-27.8 8.1 1.8-4.5 20.2 10.9 2.4 5.8-26.3-22.6-5 1.7-7.7 22.6 5 2.4-10.7 8 1.8-2.4 10.7 22.5 5-1.7 7.7-22.5-5-5.8 26.3 10.9 2.4 4.5-20.2 8 1.8-6.2 27.8-18.8-4.2-3.2 14.2c-.2.8 0 1.5.6 2.2s2.3 1.3 5.2 1.9c3.6.8 5.9.8 6.9.1 1.1-.7 2.4-3.9 4-9.5z"/></g><path d="m207.2 530.8-4.4-1.6 4.5-12.4-13.6-4.9-4.5 12.4-4.4-1.6 10.2-28.2 4.4 1.6-4.3 12 13.6 4.9 4.3-12 4.4 1.6z" fill="#3788b7"/><path d="m241.7 526c-1.8 8.4-6.6 11.8-14.3 10.2-7.4-1.6-10.2-6.5-8.5-14.6l3.8-17.6 4.5 1-3.8 17.5c-1.2 5.6.5 8.9 5.1 9.8 4.5 1 7.3-1.3 8.4-6.6l3.8-17.8 4.5 1zm-4-21-3.3-.7-4.3-7.8 4.3.9z" fill="#3788b7"/><path d="m273.7 541.6-5.2-.4-12.6-23.3c-.5-.9-.8-1.6-1-2.2h-.1c.1.8 0 2.3-.2 4.4l-1.6 19.9-4.5-.4 2.4-30 5.5.4 12.2 22.8c.6 1.1 1 1.8 1.1 2.3h.1c-.1-.9 0-2.4.1-4.3l1.6-19.6 4.5.4z" fill="#3788b7"/><path d="m283.5 541.6-1.7-30 9.1-.5c10.6-.6 16.1 4 16.7 13.7.3 4.7-1 8.5-3.9 11.5s-6.6 4.6-11.3 4.8zm3.2-26.2 1.3 22 4.1-.2c3.5-.2 6.3-1.3 8.2-3.4s2.8-4.9 2.6-8.5c-.2-3.5-1.3-6.1-3.3-7.8s-4.9-2.5-8.5-2.3z" fill="#3788b7"/><path d="m336.5 522.6c1.6 8.5-1.5 13.5-9.3 14.9-7.4 1.4-11.9-2-13.5-10.2l-3.3-17.7 4.6-.9 3.3 17.6c1.1 5.6 3.9 8 8.5 7.1 4.5-.8 6.2-4 5.2-9.4l-3.4-17.9 4.6-.9zm-11.8-17.8-3.3.6-7-5.6 4.3-.8z" fill="#3788b7"/><path d="m371.9 524.8-4.9 1.6-20.5-16.6c-.8-.6-1.3-1.2-1.8-1.6h-.1c.4.7.9 2.1 1.5 4.1l6.2 18.9-4.3 1.4-9.3-28.5 5.2-1.7 20 16.3c.9.8 1.6 1.3 1.9 1.6h.1c-.4-.8-.9-2.2-1.5-4l-6.1-18.6 4.3-1.4z" fill="#3788b7"/><path d="m314.9 492c-.1.3-.2.6-.1 1-1.3 1.3-2.6 1.1-3.9.2l-2.3-.1c2.9-.4 3.4-.5 6.3-1.1z" fill="#fd0"/><path d="m210.2 317.8-28.4-29.1v-41.1l-40.1 41.1 97.9 96.8v-84h87.9v122.4l-29.7 30.6v-122.4h-28.9v122.4l-165.9-165.9 108.6-108.6z" fill="#ea0303" stroke="#fd0" stroke-miterlimit="10" stroke-width="4"/><path d="m357 258.4 28.4 29.1v41.2l40.1-41.2-97.9-96.8v84.1h-87.9v-122.4l29.7-30.6v122.4h28.9v-122.4l165.9 165.8-108.7 108.7z" fill="#ea0303" stroke="#fd0" stroke-miterlimit="10" stroke-width="4"/></svg>