<svg enable-background="new 0 0 113.4 113.4" viewBox="0 0 113.4 113.4" xmlns="http://www.w3.org/2000/svg"><path d="m0 56.7c0-31.3 25.4-56.7 56.7-56.7 31.4 0 56.7 25.4 56.7 56.8 0 31.3-25.4 56.6-56.8 56.6-31.3 0-56.6-25.3-56.6-56.7z" fill="#e73631"/><path d="m112.1 56.8c0 30.7-24.9 55.5-55.6 55.4-30.5 0-55.3-24.9-55.3-55.5 0-30.7 24.9-55.5 55.6-55.4 30.5.1 55.3 24.9 55.3 55.5z" fill="#fff"/><g fill="#e73631"><path d="m56.7 90.1c-8.8-11.1-17.6-22.2-26.4-33.3 8.8-11.1 17.5-22.2 26.4-33.4 8.8 11.2 17.6 22.2 26.4 33.4-8.8 11.1-17.6 22.1-26.4 33.3z"/><path d="m85.2 101.3c-5.1 3.4-10.8 5.7-16.8 7.1-14.2 3.2-27.5.7-39.9-6.8-.1-.1-.3-.2-.4-.3.2-.6.7-.6 1.2-.7 1.6-.5 3.2-.9 4.8-1.3.4-.1.8-.2 1.1-.6.2-.9-.3-1.8-.5-2.7-.3-1.4-1-2.7-.9-4.2.1-.2.2-.3.5-.3 14.9 8.8 29.8 8.8 44.7 0 .2 0 .4.1.5.3.1 1.5-.6 2.8-.9 4.2-.2.9-.6 1.7-.5 2.7 1 .6 2.2.7 3.4 1.1 1.2.5 2.6.5 3.7 1.5z"/><path d="m86.9 100.2c-2-.2-3.8-.6-5.6-1.2-.3-.1-.6-.2-.9-.4-.1-.1-.2-.2-.2-.3.2-.5.7-.7 1.1-.9 4-2.5 7.7-5.3 10.8-9 .2-.3.4-.5.7-.6.2-.1.5-.1.6-.2 1.9-.3 3.8-.1 5.7-.1.4 0 .5.2.3.6-3.4 4.6-7.5 8.6-12.2 12-.1 0-.2.1-.3.1z"/><path d="m26.6 100.2c-4.3-2.7-7.9-6.2-11.1-10.1-.5-.7-1.1-1.3-1.6-2-.3-.5.1-.5.5-.5 1.8-.1 3.7-.2 5.5.1.2.1.4.1.6.2.9.5 1.3 1.4 1.9 2.1 2.9 2.9 6.1 5.4 9.6 7.6.4.2.8.4 1.1.8 0 .1 0 .2-.1.3-.3.2-.6.3-.8.4-1.4.3-2.7.8-4.1 1.1-.6 0-1 .1-1.5 0z"/><path d="m21.6 78.5c2.7 4.5 6.3 8.1 10.4 11.4 1 2.4 1.9 4.8 2.1 7.5-.6.4-1.1-.1-1.6-.3-4.1-2.3-7.6-5.5-10.8-8.9-.3-.3-.5-.7-.5-1.2 0-2.6 0-5.3 0-7.9 0-.4-.1-.8.4-.6z"/><path d="m81.3 89.9c4.1-3.3 7.7-6.9 10.4-11.4.4-.1.3.2.3.4v7.9c0 .5-.2.9-.5 1.2-3.2 3.4-6.6 6.6-10.7 8.9-.5.3-1 .7-1.6.4-.1-.2-.1-.4-.1-.6.8-2.3 1-4.7 2.2-6.8z"/><path d="m106.7 74.2c-1.6 4.3-3.5 8.3-6 12.1-1 .4-2.1.1-3.2.2-1 0-2 .1-3.2-.1.8-2.1 2.3-3.6 3.4-5.4 1.1-1.9 1.9-3.8 3-5.7 1.7-1.1 3.7-1.2 5.5-1.7.3-.2.7 0 .5.6z"/><path d="m12.7 86.3c-2.5-3.8-4.5-7.9-6-12.1-.2-.5.2-.7.6-.6 1.8.5 3.8.6 5.5 1.7 1.5 3.1 3.1 6.1 5.1 8.9.5.7 1.1 1.2 1.1 2.2-1 .2-2 .1-3 .1-1.2-.2-2.3.3-3.3-.2z"/><path d="m16.6 66.5c.5 3.3 1.9 6.2 3.3 9.2.4 1.2.1 2.4.2 3.5 0 1.9.1 3.9-.1 5.9-.6.1-.8-.2-1.1-.5-2-2.7-3.8-5.6-5.1-8.8-.1-.3-.2-.7-.2-1.1.6-2.5 1.4-5 2-7.5.1-.4.1-1.3 1-.7z"/><path d="m93.5 75.4c1.5-2.8 2.7-5.8 3.2-8.9.2-.3.4-.4.6-.1s.3.6.4.9c.6 2.5 1.3 4.9 1.9 7.4 0 1.4-.8 2.5-1.4 3.7-1 2-2.2 4-3.6 5.8-.3.4-.6.9-1.4.9-.1-3.1-.3-6.2 0-9.3.1-.1.2-.3.3-.4z"/></g><path d="m94.4 21.1c7.8 7.4 12.5 16.6 14.4 27.1-.2.3-.4.5-.5.7-.4.5-.8 1-1.4 1.5-.8-5.5-2.3-10.6-4.5-15.5s-5.2-9.3-8.6-13.3c.2-.2.4-.3.6-.5z" fill="#e83e36"/><path d="m19.5 21.5c-7.1 8.3-11.7 17.8-12.9 28.9-.9-.5-1.4-1.2-2.1-2 2-10.6 6.6-19.7 14.5-27.2.1.1.3.2.5.3z" fill="#e83e36"/><path d="m21.9 24.5c.1 0 .3 0 .5-.1 0 .2 0 .4-.1.5 0 .1-.1.2-.2.2-.1.1-.2.2-.2.3-5.4 6.5-9 13.9-10.6 22.3-.2 1-.3 2-.4 2.9-.1 1.1-.5 1.9-1.4 2.5-.5-.1-.7-.5-1.1-1 1.3-10.4 5.4-19.7 13.1-27.2.1-.1.1-.2.2-.2 0-.1.1-.2.2-.2z" fill="#e83e36"/><path d="m91.9 25c6.4 6.1 10.2 13.6 12.2 22.2.4 1.7.7 3.4.8 5.2-.3.3-.6.6-.9.9-.9-.6-1.4-1.2-1.5-2.3-1.1-9.6-4.9-18.1-11-25.5-.1-.1-.1-.2-.2-.3-.1-.1-.2-.1-.2-.2s0-.3-.1-.5c.2 0 .4.1.5.1s.2.1.2.2c.1 0 .2.1.2.2z" fill="#e83e35"/><path d="m109.4 62c-.4 3.4-1 6.7-2 9.9-.4.7-1.2.8-1.9 1-.9.3-1.8.5-2.7.7-.3.1-.6.2-1 .2-.1 0-.2-.1-.3-.2-.2-.4-.1-.7 0-1.1.9-2.3 1.4-4.7 1.9-7.1.2-.6.7-.9 1.2-1.2 1.1-.7 2.2-1.3 3.3-1.9.5-.3 1-.7 1.5-.3z" fill="#e73631"/><path d="m5.9 71.9c-.9-3.3-1.6-6.6-2-9.9.1-.1.1-.1.2-.1 2.2.7 4.1 1.7 5.7 3.4.5 2.4 1.1 4.9 1.9 7.3.1.3.2.6 0 1-.1.1-.2.2-.3.3-.3 0-.6-.1-1-.1-1.2-.4-2.4-.5-3.5-1-.3-.3-.7-.5-1-.9z" fill="#e73631"/><path d="m104.4 55c1.4-1.7 3-3.1 4.8-4.9.2 1.3.3 2.4.4 3.4.1 1.9 0 3.8.1 5.7 0 .5-.2.9-.5 1.2-1.4 1.2-2.9 2.2-4.8 2.7-.3-.1-.4-.3-.4-.6.1-2.5 0-5 .4-7.5z" fill="#e73631"/><path d="m3.7 60c0-3.2-.2-6.4.5-9.8 1.7 1.7 3.3 3.2 4.7 4.9.4 1.2.2 2.4.3 3.6.2 1.1 0 2.2.2 3.3.1.4 0 .8-.4 1.1-1.3 0-2.2-1-3.3-1.6-.7-.4-1.6-.7-2-1.5z" fill="#e73631"/><path d="m88.1 27.4c6.2 5.8 10.3 12.8 11.5 21.3-1.3-1.1-2.7-2-3.2-3.9-1.5-6.3-4.8-11.8-8.7-16.8-.1-.1-.2-.2-.2-.3-.1-.1-.2-.1-.2-.2-.1 0-.1-.1-.1-.2s0-.2 0-.3h.3c0 .1.1.2.3.2 0 .1.1.2.3.2z" fill="#e73731"/><path d="m24.3 28.3.4-.4c.2 0 .3-.1.3-.3.1 0 .2-.1.3-.3.2 0 .2-.1.3-.3.4 0 .5.2.3.5-.1.1-.1.2-.2.3-.1.1-.2.2-.2.3-.1.1-.2.1-.2.3-.2.1-.1.3-.3.4-.1.1-.1.2-.2.3-2.6 3.7-5 7.5-6.5 11.8-.4 1.1-.9 2.3-1.1 3.4-.3 2.1-1.8 3.1-3.1 4.5-.4-4.6 4.3-14.8 10.2-20.5-.1 0-.1 0 0 0z" fill="#e73731"/><path d="m97.7 61.5c.1-1.5.2-3 .3-4.5.3-.1.5 0 .6.3 1.4 2.4 3 4.8 4.1 7.4 0 2.6-.9 5.1-1.7 7.5-.1.3-.4.7-.8.6-.3-.3-.4-.6-.5-1-.6-2.3-1.2-4.5-1.8-6.8-.4-1.2-.4-2.3-.2-3.5z" fill="#e73731"/><path d="m15.4 57c .1 1.5.2 3 .3 4.5.1.7.2 1.5-.1 2.2-.5 3.1-1.2 6.1-2.4 9-.5.1-.7-.3-.8-.6-.8-2.4-1.7-4.9-1.7-7.5 1-2.4 2.5-4.6 3.8-6.9.1-.3.3-.8.9-.7z" fill="#e73731"/><path d="m10.2 54.5c1.9-2 3.7-3.9 5.6-5.9.1.1.3.2.4.3-.6 2-.2 4.2-1.3 6.1-.9 2.5-2.5 4.6-3.8 6.9-.2.3-.4.6-.8.2-.8-2.5-.7-5-.1-7.6z" fill="#e73731"/><path d="m98 54.2c-.2-1.8-.5-3.5-.8-5.5 2.1 2.1 4 4 5.9 5.9.6 2.5.7 5.1-.1 7.6-.4.4-.7.1-.9-.3-1.3-2.6-3-5-4.1-7.7z" fill="#e73731"/><path d="m97.7 61.5c-.1 2.7 1.1 5.1 1.7 7.7.2 1.2.6 2.3.9 3.5.5.3.9.7 1.5 1h .1c.3-.2.6 0 .8-.2 1.5-.7 3.2-.7 4.7-1.5-.2.7-.5 1.5-.7 2.2 0-.3-.1-.5-.5-.4-1.8.6-3.8.8-5.5 1.6-.9.5-1-.2-1.3-.8-.9-2.4-1.4-5-2.1-7.5-.1-.2.3-1.1-.6-.7.7-1.5.6-3.2 1-4.9z" fill="#fffdfc"/><path d="m13.1 72.7c.8-3 1.5-6 2.5-9 .5.9.8 1.8 1 2.8-.9-.5-.5.4-.6.6-.7 2.3-1.3 4.6-1.9 6.9-.1.2-.2.5-.3.7-.2.2 0 .6-.3.8-.3.3-.7.2-1 0-1.8-.8-3.7-1.1-5.5-1.6-.4-.1-.4.1-.5.4-.1-.8-.3-1.5-.7-2.2 1.5.7 3.2.8 4.7 1.5.2.3.6.1.8.2 0-.1.1-.1.1 0 .8-.4 1.3-.8 1.7-1.1z" fill="#fffdfc"/><path d="m69.5 17.4c-.5.1-.9-.1-1.3-.3-.5-2.1-.9-4.2-1.4-6.6-.5 2.1-1 3.9-1.5 5.7-.4.3-.7.1-1.1-.1.6-2.4 1.2-4.8 1.8-7.2.6-.1 1 .2 1.5.2.4 1.9.8 3.8 1.2 5.6h.2c.4-1.6.8-3.2 1.3-4.7.4-.2.7 0 1.1.1-.6 2.4-1.2 4.9-1.8 7.3z" fill="#e73832"/><path d="m98 54.2c1.7 2.6 3.2 5.3 4.7 8.1.7.1 1.1 1 2 .8 1.4-1 2.9-1.8 4.4-2.6.1.5.2 1 .3 1.6-2 .8-3.9 1.9-5.7 3.3-.8.4-1.1-.1-1.3-.8-1.2-2.1-2.4-4.2-3.7-6.3-.2-.4-.3-1-.8-1.2.1-1 .1-2 .1-2.9z" fill="#fffdfc"/><path d="m79.3 97.3c2-.7 3.6-2.1 5.3-3.3 2.7-2 5.1-4.3 7.3-6.8 0-2.7 0-5.4 0-8.2 0-.2 0-.4-.2-.5.1-.1.1-.3.2-.4h.3v9.3c.1.1.2.2.2.2.1.2.4.1.5.3-3.3 4-7.3 7.2-11.6 9.9-.3.2-.7.5-1 .7-.7.3-1-.2-1.2-.6-.1-.3-.3-.6.2-.6z" fill="#fef4f1"/><path d="m21.6 78.5c-.2.1-.2.3-.2.5v8.2c3.5 4 7.4 7.3 12 9.9.2.1.5.1.7.2.5 0 .4.3.3.6-.3.5-.6.9-1.2.6-4.4-2.7-8.5-5.8-11.9-9.7-.3-.3-.5-.6-.8-1 .1-.2.4-.1.5-.3.1-.1.2-.2.2-.2 0-3.1 0-6.1 0-9.2.3 0 .3.2.4.4z" fill="#fef4f1"/><path d="m10.7 62.2c1.3-2.4 2.7-4.9 4.2-7.2-.1.7.5 1.3.5 2-1.4 1.7-2.3 3.8-3.5 5.7-.4.6-.7 1.2-1.1 1.8-.2.7-.4 1.2-1.3.8-1.7-1.3-3.6-2.5-5.6-3.3 0-.2 0-.3 0-.5.2.1.4.1.5.2.1-.7-.9-1-.8-1.7 1.7 1 3.3 2 5 3 .9.2 1.4-.5 2.1-.8z" fill="#fffcfc"/><path d="m63.2 11.6c0 3-1.7 4.7-4.3 4.1-.1 0-.2 0-.2 0-1.2-.4-2-1.3-2.2-2.6-.2-1.8-.1-3.5 1.5-4.7 1.1-.8 2.3-.8 3.5-.2 1.3.7 1.7 2 1.7 3.4z" fill="#e73832"/><path d="m75.1 16.6c0-.4.1-.6.4-.9.8.3 1.5.7 2.5 1.1-.5 1-.9 2-1.3 3-2.3.2-4.2-.8-4.7-2.5s.6-4.3 2.2-5.1c1.6-.9 3.6-.2 5.2 1.7-.1.3-.3.7-.5 1.1-1-1.3-2-2.6-3.9-1.9-1.1.4-2 2.2-1.9 3.5s.9 1.9 2.8 2.3c.2-.5.5-1 .7-1.6-.6-.2-1-.5-1.5-.7z" fill="#e73832"/><path d="m33 98.5c.4-.3 1.3-.3 1-1.2-.7-2.5-1.3-4.9-2-7.4.5.5 1.1.9.8 1.7.6.3.4-.9 1-.4.2.2.1.5.2.7.6 2.3 1.2 4.7 1.8 7.2-2.6.8-5.1 1.5-7.7 2.2-.3-.7-1.2-.4-1.6-1.1l5.7-1.5c.3-.1.7.1.8-.2z" fill="#fffcfc"/><path d="m33.8 13.4c.4-.2.6-.3 1-.5.4.9.8 1.7 1.3 2.7 1-.4 1.9-.9 3-1.3-.4-.9-.7-1.7-1.1-2.5.1-.5.5-.5 1-.6 1 2.3 2.1 4.5 3.1 6.8-.2.4-.6.4-1 .6-.5-1.1-1-2.1-1.5-3.3-1 .5-2 .9-3 1.4.5 1.1 1 2.2 1.4 3.2-.2.4-.6.4-1 .5-1.1-2.3-2.1-4.6-3.2-7z" fill="#e73832"/><path d="m79.3 97.3c-.3.9.6.9 1 1.2.2.4.6.1.8.3 1.9.5 3.8 1 5.7 1.5-.3.5-.7.2-1.1 0s-.8-.3-1.1.1c-.1.6 1 .2.6.9-2.5-.7-5-1.5-7.7-2.2.6-2.5 1.2-4.8 1.8-7.2.1-.2 0-.5.2-.7.7-.3 1.2-.9 1.8-1.3-.6 2.4-1.3 4.9-2 7.4z" fill="#fffcfb"/><path d="m47.1 8.9c.4 1.7.9 3.4 1.3 5.1.3 1.6-.5 2.6-2.1 3-1.7.4-2.9-.1-3.3-1.7-.5-1.6-.9-3.3-1.3-4.9.3-.4.6-.4 1-.4.1.1.2.2.2.3.4 1.4.7 2.9 1.1 4.3.4 1.3 1 1.7 2 1.4 1.1-.3 1.5-.9 1.2-2.3-.4-1.5-.8-3-1.2-4.5.3-.3.7-.4 1.1-.3z" fill="#e73932"/><path d="m54.4 8.3c0 .3 0 .7.1 1.2-1.1-.4-2.1-1-3.2-.2-.5.4-.4.9-.3 1.3.4.6 1 .6 1.5.7 2 .3 2.7 1 2.6 2.5-.1 1.4-1.3 2.3-3.1 2.2-.6 0-1.2-.2-1.8-.3-.4-.5-.3-.9-.3-1.5 1.2.5 2.3 1.2 3.5.3.5-.4.5-.9.3-1.4-.5-.7-1.3-.6-2-.7-1.6-.4-2.2-1-2.1-2.3 0-1.2.8-2 2.3-2.2.9-.1 1.4-.1 2.5.4z" fill="#e73932"/><path d="m99.5 74.7c.3.4.6.9 1.3.8-1.5 3.9-3.7 7.3-6.3 10.8 1 .1 1.9.1 2.8.1.1 0 .1.1.1.1l-.1.1c-.4 0-.8 0-1.2 0-.1.1-.2.1-.2 0-.2 0-.3 0-.5 0-.1.1-.2.1-.3 0-.3 0-.6 0-.8-.2s-.5 0-.7-.3c-.1-.1-.1-.4-.2-.5-.2-.3-.2-.7 0-1 0-.3 0-.7 0-1-.1-.7-.1-1.5 0-2.2 0-.2 0-.3 0-.5-.2-1.6-.2-3.1 0-4.7 0-.2 0-.3 0-.5.1-.1.1-.1.2 0v9.3c.5.1.5-.2.7-.4 1.9-2.6 3.6-5.4 4.9-8.3 0-.6.3-1.1.3-1.6z" fill="#fef4f1"/><path d="m12.6 75.4c.3 0 .5 0 .8-.1.2-.3.3-.5.5-.7 0 1.3.8 2.2 1.3 3.3 1.3 2.5 2.7 4.9 4.7 7 0-3.1 0-6.2 0-9.3.1.2.2.3.2.5.2.7.1 1.5 0 2.2v.5c.1.7.2 1.3 0 2v .5c.2.7.2 1.5 0 2.2v.8c.1.4.2.8 0 1.2-.2.1-.1.4-.3.5-.2.2-.5 0-.7.3-.7.5-1.5.1-2.2.2-.1.1-.2.1-.2 0-.2 0-.3 0-.5 0-.1 0-.1-.1-.1-.1l.1-.1h2.8c-2.6-3.5-4.9-7-6.4-10.9z" fill="#fef4f1"/><path d="m10.7 62.2c-.5.8-1 1.3-2 .8.9 0 .4-.6.4-1-.1-2.3-.5-4.7-.2-7h .7c.2-.2.4-.3.6-.5-.1 2.3-.2 4.7.2 7 0 .3-.1.6.3.7z" fill="#fef2ee"/><path d="m104.7 63c-1 .6-1.5-.1-2-.8.5-.7.4-1.5.5-2.2.1-1.8 0-3.7 0-5.5.2.2.4.3.6.5h.7c.3 2.3 0 4.7-.2 7-.1.4-.5 1 .4 1z" fill="#fef3ef"/><path d="m58.7 5.1c.6 0 1 .1 1.3.1.4.6.6 1.3.9 2.1-1.5-.1-1.5-1.4-2.2-2.2z" fill="#e94c3f"/><path d="m42.6 7.1c.4-.1.8-.2 1.2-.4.4.5.9 1 1.3 1.6-.9.4-.9.4-2.5-1.2z" fill="#e8453a"/><path d="m99.5 88.1c-.1-.7-.6-.4-1-.4-1.7-.1-3.3-.1-5-.1.1-.2.2-.4.4-.4 1.9.2 3.8 0 5.8.1.2.4 0 .6-.2.8z" fill="#fffbfa"/><path d="m19.9 87.6c-1.7 0-3.3 0-5 .1-.3 0-.9-.3-1 .4-.2-.2-.3-.3-.2-.8 2 .2 4.1-.3 6.2.3z" fill="#fffbfa"/><path d="m93.2 76.2v4.7c-.4-1.6-.4-3.2 0-4.7z" fill="#fffbfa"/><path d="m97.2 86.6c0-.1 0-.1 0-.2 1.2 0 2.3-.1 3.5-.1-.7.9-1.8.1-2.6.4-.3 0-.6-.1-.9-.1z" fill="#fffbfa"/><path d="m16.1 86.4v.2c-.9 0-1.8.1-2.7.1-.4 0-.6-.1-.8-.4 1.2 0 2.4 0 3.5.1z" fill="#fffbfa"/><path d="m20.1 83.6c0-.7 0-1.5 0-2.2.5.7.5 1.5 0 2.2z" fill="#fffbfa"/><path d="m15.6 63.7c0-.7.1-1.5.1-2.2.3.7.4 1.5-.1 2.2z" fill="#fffdfc"/><path d="m20.1 78.4c0-.7 0-1.5 0-2.2.4.7.4 1.4 0 2.2z" fill="#fffbfa"/><path d="m93.2 81.4v2.2c-.4-.7-.4-1.5 0-2.2z" fill="#fffbfa"/><path d="m20.1 80.9c0-.7 0-1.3 0-2 .4.7.4 1.3 0 2z" fill="#fffbfa"/><path d="m25.8 27.6c0-.2-.1-.4-.3-.5.1-.3.3-.5.6-.2.2.4 0 .6-.3.7z" fill="#ea5243"/><path d="m20.1 85.6c0-.4 0-.8 0-1.2.4.4.4.8 0 1.2z" fill="#fffbfa"/><path d="m93.2 84.6v1c-.3-.3-.3-.6 0-1z" fill="#fffbfa"/><path d="m20.9 87.6c-.1.2-.3.2-.5.3-.2-.1-.3-.2-.5-.2.3-.1.6-.1 1-.1z" fill="#fffbfa"/><path d="m93 87.9c-.2 0-.4 0-.5-.3h1c-.2.1-.3.2-.5.3z" fill="#fffbfa"/><path d="m34 91.9c-.3-.2-.2-.5-.2-.7.2.1.3.2.5.4-.1 0-.2.1-.3.3z" fill="#f39981"/><path d="m79.5 91.1c0 .3.1.5-.2.7-.1-.1-.2-.2-.3-.3.2-.1.3-.2.5-.4z" fill="#f29881"/><path d="m19.1 86.4c.2-.3.5-.2.7-.3-.1.3-.4.2-.7.3z" fill="#fffbfa"/><path d="m93.5 86.1c.3 0 .6 0 .7.3-.3-.1-.6 0-.7-.3z" fill="#fffbfa"/><path d="m19.9 86.1c0-.2 0-.4.3-.5-.1.2-.1.4-.3.5z" fill="#fffbfa"/><path d="m93.2 85.6c.2.1.2.3.2.5-.1-.1-.2-.3-.2-.5z" fill="#fffbfa"/><path d="m24.8 28.9c0-.2.1-.4.3-.4-.1.1-.2.2-.3.4z" fill="#ea5243"/><path d="m21.1 87.4c-.1.1-.2.2-.2.2 0-.1.1-.2.2-.2z" fill="#fffbfa"/><path d="m92.5 87.6c-.1-.1-.2-.2-.2-.2s.1.1.2.2z" fill="#fffbfa"/><path d="m21.9 25.5c.1-.1.1-.2.2-.3-.1.1-.2.2-.2.3z" fill="#ed6b56"/><path d="m24.3 28.3c0 .1-.1.1-.2.2.1-.1.2-.2.2-.2z" fill="#ea5243"/><path d="m22.1 25.2c.1-.1.1-.2.2-.2-.1 0-.1.1-.2.2z" fill="#ed6b56"/><path d="m91.9 25c-.1-.1-.2-.1-.2-.2.1 0 .2.1.2.2z" fill="#ed6b56"/><path d="m25.4 28.2c.1-.1.2-.2.2-.3-.1.1-.2.2-.2.3z" fill="#ea5243"/><path d="m87.5 27.7c.1.1.1.2.2.3 0-.2-.1-.2-.2-.3z" fill="#ec6450"/><path d="m21.6 24.7c-.1.1-.2.1-.2.2.1 0 .1-.1.2-.2z" fill="#ed6b56"/><path d="m25.6 27.9c.1-.1.1-.2.2-.3-.1.2-.1.2-.2.3z" fill="#ea5243"/><path d="m91.7 24.7c-.1-.1-.1-.1-.2-.2 0 .1.1.1.2.2z" fill="#ed6b56"/><path d="m25.1 27.6c0 .2-.1.2-.3.3 0-.1.1-.2.3-.3z" fill="#ea5243"/><path d="m86.9 100.2c.1-.1.2-.1.4-.2-.2.1-.3.2-.4.2z" fill="#fffcfb"/><path d="m87.3 27.4c.1.1.1.2.2.2-.1 0-.1-.1-.2-.2z" fill="#ec6450"/><path d="m25.3 27.4c-.1.1-.2.2-.3.3.1-.2.2-.2.3-.3z" fill="#ea5243"/><path d="m25.6 27.1c-.1.1-.2.2-.3.3.1-.1.2-.2.3-.3z" fill="#ea5243"/><path d="m88.1 27.4c-.2 0-.3-.1-.3-.3.1.1.2.2.3.3z" fill="#ec6450"/><path d="m87.8 27.1c-.1-.1-.2-.2-.3-.2.1.1.2.2.3.2z" fill="#ec6450"/><path d="m87.2 26.9v.3c-.2-.1-.2-.2 0-.3z" fill="#ec6450"/><path d="m24.6 29.2c.1-.1.1-.2.2-.3-.1.1-.1.2-.2.3z" fill="#ea5243"/><path d="m16.6 86.6h.2l-.1.1s0 0-.1-.1z" fill="#fffbfa"/><path d="m95 86.6h.3c-.2.2-.3.1-.3 0z" fill="#fffbfa"/><path d="m95.7 86.6h.2l-.1.1s-.1-.1-.1-.1z" fill="#fffbfa"/><path d="m91 24.9c.1.1.1.2.2.2 0 0-.1-.1-.2-.2z" fill="#ed6b56"/><path d="m93.4 75.7c-.1 0-.1 0-.2 0 .1-.1.2-.2.2-.2.1 0 0 .1 0 .2z" fill="#fffbfa"/><path d="m87.5 26.9c-.1 0-.2 0-.3 0 0-.1.1-.1.1-.2.1.1.2.1.2.2z" fill="#ec6450"/><path d="m91.2 25.2c.1.1.1.2.2.3 0-.1-.1-.2-.2-.3z" fill="#ed6b56"/><path d="m25.1 28.5c.1-.1.2-.2.2-.3 0 .1-.1.2-.2.3z" fill="#ea5243"/><path d="m21.9 24.5c-.1.1-.1.1-.2.2 0-.1.1-.1.2-.2z" fill="#ed6b56"/><path d="m56.6 49.3h11.2c2.6 0 4 2.4 2.7 4.6-.7 1.1-1.7 1.4-2.9 1.4-3.2 0-6.5 0-9.7 0-.4 0-.8 0-1.2 0-.2.5-.2.9-.1 1.5h7 3.9c2.1 0 3.4 1.2 3.4 2.9 0 1.8-1.3 3-3.5 3-3.2 0-6.4 0-9.6 0-.4 0-.8 0-1.3 0v25.4c-.1 0-.2.1-.2.1-8.3-10.4-16.5-20.9-24.9-31.5 8.3-10.5 16.6-21 25.1-31.7.1 8.3.1 16.2.1 24.3z" fill="#fff"/><path d="m53.7 107.5c.4.1.7.2 1.1.3.3.5.2.9-.3 1.3-3.3-.4-6.7-.9-10-1.4-.2-.6-.2-.9.1-1.3 1.4-.2 2.7.4 4.2.3.4-1.1.3-2.2.6-3.4-1.2-.2-2.3-.3-3.4-.5-.4-.4-.3-.8 0-1.3 1.1-.1 2.2.3 3.4.3.3-.7.4-1.5.4-2.4-1.3-.2-2.5-.4-3.7-.6-.4-.6-.2-1 .2-1.4 3 .4 6.1.8 9.1 1.2.5.5.4.9-.2 1.4-1.2-.1-2.5-.3-3.9-.5-.1.8-.2 1.6-.4 2.3 1.3.4 2.5.2 3.7.7.2.4.2.8-.1 1.1-.5.3-1.1 0-1.6.1.5.9 1.1 1.7 1.4 2.7-.2.2-.5.4-.7.5-.2.2-.5.1-.7.1-.8-.9-1.4-2-1.8-3.2-.3.8-.5 1.7-.4 2.6.4.4.9.2 1.3.4.6.4 1.1.5 1.7.7z" fill="#fffefe"/><path d="m62.2 105.5c-.4 1.7-1.9 2.5-3.1 3.5-.5-.3-.9-.5-1-1.1.9-.7 1.8-1.4 2.5-2.3.1-.1.1-.1.1-.2 0 0 0 0-.1 0-.4 0-.9 0-1.4 0-.5-1-.4-2.1-.6-3.2-.1-.3.1-.5.5-.6.2-.1.4-.2.6-.2s.4-.1.6-.1c.1 0 .2-.1.3-.1.2 0 .3 0 .5-.1.2 0 .4-.1.6-.2.3-.1.6-.1.8-.1.4 0 .8-.1 1.2-.2h.5s.3 0 .5 0c .3 0 .6-.1.8.1.3 0 .7-.1 1.1.3.1.9.3 2.1.4 3-.4.6-.9.5-1.4.7 1.1.7 2.3 1.1 3.1 2 0 .6-.3.8-.8 1-1.2-.7-2.4-1.3-3.5-2-.3-.3 0-.6 0-.9s-.1 0-.2 0c-.8 0-.4.5-.4.9 0 1 .5 1.9-.1 2.9-.6.3-1.3.5-2 .4-.5-.3-.6-.6-.6-1 .3-.6.8-.4 1.3-.6.1-.6 0-1.3-.2-1.9.1-.1 0-.1 0 0z" fill="#fffefe"/><path d="m59.2 101.3c-.5 0-1.1 0-1.6 0-.3-.3-.4-.6-.2-1.1 1.2-.5 2.6-.4 3.9-.7-.3-.7-.1-1.2.7-1.4.5.2.7.7 1.2 1.1 1.3-.2 2.7-.3 4-.5.4.3.6.6.5 1-.5.6-1.3.5-2 .6-.3.2-.6.2-1 .3-.1 0-.2 0-.3 0-.2 0-.3 0-.5 0-.4 0-.8.2-1.2.2-.3 0-.6 0-.9 0-.3.1-.5.1-.8.2-.1 0-.2 0-.3 0-.2 0-.3.1-.5.1-.4.2-.7.2-1 .2z" fill="#fffdfd"/><path d="m53.7 107.5c-.6 0-1.2.1-1.8-.2.4-.4.8-.2 1.2 0h .6z" fill="#ea5243"/><path d="m59.2 101.3c.3-.3.6-.3 1-.2.1 0 .1.1.1.2v.1c-.1.1-.2.1-.4.2-.2 0-.5 0-.7 0-.1-.2-.1-.3 0-.3z" fill="#ef7963"/><path d="m64.6 100.5c.3-.2.7-.3 1.1-.2v.2c-.2.2-.5.3-.8.2-.1 0-.3-.1-.3-.2z" fill="#f39a84"/><path d="m62.2 105.5c-.1-.1-.2-.2-.4-.3.5-.1.5-.1.6.3-.1 0-.2 0-.2 0z" fill="#e73631"/><path d="m60.6 105.3c.1-.1.2-.3.3-.1 0 .2-.1.3-.3.4.1-.2.1-.3 0-.3z" fill="#f9d0c1"/><path d="m64.4 104.7c.1-.1.2-.1.3-.2.2.2 0 .2-.1.2z" fill="#facfc1"/><path d="m81.1 98.8c-.3 0-.6.1-.8-.3.3.1.5.2.8.3z" fill="#fef4f1"/><path d="m33 98.5c-.1.4-.5.3-.8.3.3-.1.6-.2.8-.3z" fill="#fef4f1"/><path d="m102.5 64.5c.3.5.6.8 1.3.8-.3 2.4-1 4.7-1.7 6.9-.2.5-.4.9-.3 1.4-.8.2-1.2-.3-1.5-1 1-1 1-2.3 1.4-3.5.3-1.4.8-3 .8-4.6z" fill="#fef3ef"/><path d="m102.7 73.4c-.2.3-.5.3-.8.2.2-.2.5-.2.8-.2z" fill="#fef3ef"/><path d="m9.6 65.2c.6.1 1-.3 1.3-.8.2 2.8 1 5.4 2 8 0 .1.2.1.3.2-.3.7-.6 1.3-1.5 1-.1-1.4-.8-2.7-1.1-4-.4-1.5-.8-2.9-1-4.4z" fill="#fef3ef"/><path d="m11.5 73.6c-.3 0-.6.1-.8-.2.3 0 .6 0 .8.2z" fill="#fef3ef"/><path d="m57.6 12.1c.1-.8.1-1.4.4-2 .4-.9 1.1-1.5 2.1-1.3 1 .1 1.6.8 1.8 1.7s.1 1.7-.1 2.6c-.4 1.2-1.2 1.8-2.3 1.7-1.2-.1-1.7-1-1.9-2.1 0-.2 0-.5 0-.6z" fill="#fffefe"/><path d="m56.5 61.7c-3.6 0-7.2 0-10.8 0-1.6 0-2.5-.7-2.5-2 0-1.2.9-2 2.4-2h22c1.5 0 2.5.8 2.4 2 0 1.2-.9 1.9-2.4 1.9-3.6.1-7.3.1-11.1.1z" fill="#e73631"/><path d="m56.7 54.3c-3.6 0-7.2 0-10.8 0-1.7 0-2.6-.7-2.6-2s .9-2 2.6-2h22c .9 0 1.7.3 2.1 1.2.3.7.2 1.4-.2 2-.5.7-1.2.8-2 .8-3.8 0-7.4 0-11.1 0z" fill="#e73631"/><path d="m53.1 107.2c-.4 0-.8 0-1.2 0-.5 0-1.1 0-1.6-.2.1-1.1.3-2.2.4-3.2.4-.3.7 0 1-.1-.4 1.6 1.1 2.3 1.4 3.5z" fill="#e73c34"/><path d="m53 104c-.1 0-.1-.1-.2-.1.1-.1.1 0 .2.1z" fill="#f5a68f"/><path d="m60.3 102.8c1.7-.2 3.3-.4 4.8-.7.3.2.3.5.3.9-1.6.2-3.2.5-4.8.7-.4-.2-.3-.5-.3-.9z" fill="#e83e35"/><path d="m62.6 100.8c.4-.2.8-.3 1.3-.2.1 0 .1.1.1.1s0 .1-.1.1c-.4.1-.8.3-1.3.2 0-.1-.1-.1 0-.2z" fill="#ee715b"/><path d="m60.9 101c .2-.2.5-.2.8-.2.1.1.1.1.1.2l-.1.1c-.1.2-.3.2-.5.2-.2-.1-.3-.2-.3-.3z" fill="#f4a38d"/><path d="m61.6 101.1c0-.1 0-.2 0-.2h1v .2c-.3-.1-.6-.1-1 0z" fill="#ea5847"/><path d="m63.9 100.8c0-.1 0-.1 0-.2h.5c.1 0 .1.1.1.1l-.1.1c-.2-.1-.4-.1-.5 0z" fill="#e7362f"/><path d="m64.4 100.7c0-.1 0-.1 0-.2.1-.1.1-.1.2-.1.1.1.2.2.3.2-.2.1-.4.1-.5.1z" fill="#ef7962"/><path d="m60.2 101.3c0-.1 0-.1 0-.2h.5c.1 0 .1.1.1.1l-.1.1c-.1 0-.2.1-.2.1-.2 0-.3 0-.3-.1z" fill="#e73e35"/><path d="m60.6 101.2c0-.1 0-.1 0-.2.1-.1.1-.1.2-.1l.3.3c-.1 0-.3 0-.5 0z" fill="#ed6b56"/><path d="m60.2 101.3c.1 0 .2 0 .2.1-.2.2-.4.2-.6.2.1-.2.2-.3.4-.3z" fill="#fffdfd"/></svg>