<svg enable-background="new 0 0 113.4 113.4" viewBox="0 0 113.4 113.4" xmlns="http://www.w3.org/2000/svg"><path d="m56.7 113.4c-31.4 0-56.7-25.3-56.7-56.9 0-31.3 25.4-56.5 56.9-56.5 31.2 0 56.6 25.6 56.5 57.1-.2 31-25.5 56.3-56.7 56.3zm.1-111.3c-30 0-54.6 24.4-54.7 54.4-.1 30.1 24.4 54.7 54.5 54.8s54.7-24.4 54.7-54.5c.1-30.1-24.5-54.7-54.5-54.7z" fill="#28221f"/><g fill="#070804"><path d="m36.4 41.3c3.3-4.2 6.6-8.4 9.9-12.6 2.3-2.9 4.5-5.7 6.8-8.6.1.1.2.2.3.3-.8 4-1.7 7.9-2.5 11.9-.9 4.3-1.8 8.5-2.7 12.8-.1.4-.2.7-.3 1.1-.3 1.7-.9 3.2-2.2 4.5-2.1 2.3-4.1 4.7-6.2 7-.4.4-.8.8-1.1 1.1-1.4-.1-2.2-1.3-3.5-1.7-.4 2.4-.9 4.6-1.3 7-2.9.9-5.8 1.8-8.8 2.8 0-3.6 0-7.1 0-10.7.9-1.1 1.8-2.4 2.7-3.7.5-.5 1-1.1 1.4-1.8.9-1 1.8-2.1 2.6-3.3 1.7-1.9 3.4-4 4.9-6.1z"/><path d="m64.7 45.3c-.7-3.6-1.5-7.1-2.2-10.7-1-4.8-2-9.5-3-14.3.1-.1.2-.2.3-.3 5.3 6.8 10.7 13.6 16 20.4.2.3.5.5.7.8 1.6 2.2 3.3 4.3 5 6.4.8 1 1.6 2.1 2.5 3.1.4.8 1 1.4 1.6 2.1.8 1.1 1.7 2.3 2.6 3.4v10.5c-1.6-.5-3.1-1-4.6-1.5-.5-.2-.7-.6-.9-1-1.5-2.6-2.9-5.2-4.5-7.9-1.4.7-2.7 1.4-4 2.1-.3-.3-.6-.5-.9-.8-1.7-1.9-3.3-3.9-5-5.8-1.7-1.8-3.2-3.7-3.4-6.3-.1 0-.2-.1-.2-.2z"/><path d="m58.2 19.6c1.8 9 3.5 18 5.3 27 .1.7.3 1.3.4 2 .2 1.9 1.1 3.8.7 5.8-.8 5.4-1.6 10.8-2.4 16.2-1.3 8.7-2.7 17.5-4 26.2-.1 0-.1 0-.2 0 0-.4 0-.9 0-1.3 0-25 0-50 0-74.9 0-.3 0-.7.2-1z"/><path d="m54.8 19.6c0 .4.1.9.1 1.3v74.4 1.5c-.1 0-.1 0-.2 0-1.3-8.8-2.7-17.5-4-26.3-.6-4.3-1.3-8.5-1.9-12.8-.2-1.7-.8-3.4-.6-5.1.4-2.5.9-4.9 1.4-7.4 1.7-8.6 3.3-17.2 5-25.8z"/><path d="m65.8 87.6c.4-1 .9-2.1 1.4-3.4 1 1.1 1.9 2.1 2.8 3.1 3.5-2.7 7.1-5.4 10.7-8.1.4 2 .5 3.9 1.2 5.9-4.5 4.7-9.1 9.5-13.8 14.4-.7-3.9-1.4-7.8-2.3-11.9z"/><path d="m45.6 99.6c-4.7-4.9-9.2-9.6-13.7-14.4.7-1.7.7-3.6 1.2-5.5 3.4 2.6 6.7 5.1 10.2 7.7 1-1.2 2.1-2.3 3.2-3.5.6 1.4 1.1 2.7 1.6 3.9-1 3.8-1.6 7.7-2.5 11.8z"/></g><path d="m56.8 2.1c-30 0-54.6 24.4-54.7 54.4-.1 30.1 24.4 54.7 54.5 54.8s54.7-24.4 54.7-54.5c.1-30.1-24.5-54.7-54.5-54.7zm-29.2 50.5c.5-.5 1-1.1 1.4-1.8.9-1 1.8-2.1 2.6-3.3m-.1 0c1.7-2 3.3-4.1 4.9-6.2 3.3-4.2 6.6-8.4 9.9-12.6 2.3-2.9 4.5-5.7 6.8-8.6 0-.2.2-.3.4-.4.1.3.1.5-.2.7-.8 4-1.7 7.9-2.5 11.9-.9 4.3-1.8 8.5-2.7 12.8.2 0 .5.1.7.2-.2-.1-.5-.2-.7-.2-.1.4-.2.7-.3 1.1-.3 1.7-.9 3.2-2.2 4.5-2.1 2.3-4.1 4.7-6.2 7-.4.4-.8.8-1.1 1.1-1.4-.1-2.2-1.3-3.5-1.7-.4 2.4-.9 4.6-1.3 7-2.9.9-5.8 1.8-8.8 2.8 0-3.6 0-7.1 0-10.7.9-1.1 1.8-2.4 2.7-3.7m18.2 47.1c-4.7-4.9-9.2-9.6-13.7-14.4.7-1.7.7-3.6 1.2-5.5 3.4 2.6 6.7 5.1 10.2 7.7 1-1.2 2.1-2.3 3.2-3.5.6 1.4 1.1 2.7 1.6 3.9-1 3.8-1.6 7.7-2.5 11.8zm9.3-2.8c-.1 0-.1 0-.2 0-1.3-8.8-2.7-17.5-4-26.3-.6-4.3-1.3-8.5-1.9-12.8-.2-1.7-.8-3.4-.6-5.1.4-2.5.9-4.9 1.4-7.4 1.7-8.6 3.3-17.2 5-25.8 0-.2 0-.3 0-.5h.1v.5c0 .4.1.9.1 1.3v74.4c.1.7.1 1.2.1 1.7zm3.2 0c-.1 0-.1 0-.2 0 0-.4 0-.9 0-1.3 0-25 0-50 0-74.9 0-.3 0-.7.1-1 0-.2 0-.3 0-.5h.1v.5c1.8 9 3.5 18 5.3 27 .1.7.3 1.3.4 2 .2 1.9 1.1 3.8.7 5.8-.8 5.4-1.6 10.8-2.4 16.2-1.3 8.8-2.6 17.5-4 26.2zm5.4-50.2c.1-.3.2-.6.3-.9.2-.2.4-.3.6-.3-.2 0-.5.1-.6.3-.1.3-.2.6-.3.9zm4.8 53c-.8-4-1.6-7.9-2.4-12 .4-1 .9-2.1 1.4-3.4 1 1.1 1.9 2.1 2.8 3.1 3.5-2.7 7.1-5.4 10.7-8.1.4 2 .5 3.9 1.2 5.9-4.5 4.8-9.1 9.6-13.7 14.5zm8.2-58.3c1.6 2.2 3.3 4.3 5 6.4.8 1 1.6 2.1 2.5 3.1.4.8 1 1.4 1.6 2.1.8 1.1 1.7 2.3 2.6 3.4v10.5c-1.6-.5-3.1-1-4.6-1.5-.5-.2-.7-.6-.9-1-1.5-2.6-2.9-5.2-4.5-7.9-1.4.7-2.7 1.4-4 2.1-.3-.3-.6-.5-.9-.8-.4.2-.8.3-1.2.4.4 0 .8-.1 1.2-.4-1.7-1.9-3.3-3.9-5-5.8-1.7-1.8-3.2-3.7-3.4-6.3 0-.1-.1-.1-.1-.2-.7-3.6-1.5-7.1-2.2-10.7-1-4.8-2-9.5-3-14.3-.2-.2-.3-.4-.2-.7.2.1.4.2.4.4 5.3 6.8 10.7 13.6 16 20.4.2.3.4.5.7.8" fill="#fae500"/><path d="m53.4 20.4c-.1-.1-.2-.2-.3-.3 0-.2.2-.3.4-.4.1.3.1.5-.1.7z" fill="#28221f"/><path d="m59.8 20.1c-.1.1-.2.2-.3.3-.2-.2-.3-.4-.2-.7.3.1.4.2.5.4z" fill="#28221f"/><path d="m54.8 19.6c-.1-.2-.1-.3-.1-.5h.1z" fill="#28221f"/><path d="m58.2 19.6c-.1-.2-.1-.3-.1-.5h.1z" fill="#28221f"/></svg>