<svg enable-background="new 0 0 113.4 113.4" viewBox="0 0 113.4 113.4" xmlns="http://www.w3.org/2000/svg"><path d="m56.7 0c31.5 0 56.7 25.3 56.7 56.9 0 31.4-25.4 56.5-57 56.5-31.2 0-56.4-25.5-56.4-57.1 0-31 25.5-56.3 56.7-56.3zm0 111.3c30.1 0 54.6-24.6 54.6-54.7 0-30-24.6-54.5-54.6-54.5-30.1 0-54.7 24.6-54.6 54.6 0 30.1 24.6 54.7 54.6 54.6z" fill="#28221f"/><path d="m62.2 70.6c-1.3 8.7-2.7 17.5-4 26.2-.1 0-.1 0-.2 0 0-.4 0-.8 0-1.3 0-25 0-50 0-75.1 0-.3 0-.6 0-.9h.1.1c1.7 9 3.5 18 5.2 27 .1.7.3 1.3.4 2 .2 1.9 1.1 3.8.7 5.8-.7 5.5-1.5 10.9-2.3 16.3z" fill="#090a05"/><path d="m54.9 19.6v1.3 74.4 1.5c-.1 0-.1 0-.2 0-1.3-8.8-2.7-17.5-4-26.3-.6-4.3-1.3-8.5-1.9-12.8-.2-1.7-.8-3.4-.6-5.1.4-2.5.9-4.9 1.4-7.4 1.7-8.6 3.3-17.2 5-25.8z" fill="#090a05"/><path d="m46.1 50.4c-.9-1-1.8-2-2.8-3.1-3.3 2.5-6.5 4.9-9.7 7.4-.3.3-.6.6-1.1.6-.2-1.4-.4-2.7-.6-4.1-.2-.5-.3-1.1-.5-1.7.5-.6.9-1.1 1.4-1.6 2-1.9 3.9-3.8 5.6-5.9 2.3-2.1 4.6-4.2 6.8-6.3.6 2.7 1.2 5.9 1.9 9-.1.8.3 1.4.5 2.2-.5 1.3-1 2.4-1.5 3.5z" fill="#090a05"/><path d="m80.1 48c .5.5.9 1.1 1.4 1.6-.2.6-.3 1.1-.5 1.7-.2 1.3-.4 2.6-.6 3.8-3.4-2.6-6.7-5.1-10.2-7.7-1.3.9-1.9 2.6-3.4 3.3-.5-1.3-1-2.6-1.5-3.9.2-.6.5-1.3.5-2 .8-2.9 1.2-5.9 1.8-8.8 0-.2.1-.4.1-.3 2.2 2.1 4.5 4.2 6.8 6.3 1.7 2.1 3.6 4.1 5.6 6z" fill="#090a05"/><path d="m90.2 45.4c2.2 2.1 4.5 4.1 6.7 6.2-.1.1-.2.2-.3.2-2.9-2-5.8-4-8.7-6-2.5-1.9-5.1-3.7-7.8-5.5-6-3.4-9.7-9-14-14.2-2.2-2.7-4.4-5.4-6.6-8.1.8-.2 1 .4 1.3.7 7.1 6.4 14.2 12.9 21.3 19.3.4.4.9.8 1.4 1.1 2.1 2.3 4.4 4.3 6.7 6.3z" fill="#090a05"/><path d="m25 45.9c-2.9 2-5.8 4-8.7 6-.1-.1-.2-.2-.3-.2 2.2-2.1 4.5-4.1 6.7-6.2 2.4-2.1 4.8-4.2 7-6.4 4.3-3.9 8.7-7.8 13-11.7 3.2-2.9 6.3-5.8 9.5-8.7.3-.2.5-.6 1.2-.6-1.3 1.6-2.4 3-3.6 4.4-3.2 4-6.5 7.9-9.7 11.9-1.2 1.5-2.7 2.8-4.3 3.9-.9.6-1.8 1.3-2.7 1.9-2.7 1.7-5.5 3.6-8.1 5.7z" fill="#090a05"/><path d="m56.7 2.1c-30.1 0-54.7 24.6-54.6 54.6 0 30.1 24.6 54.6 54.7 54.6s54.6-24.6 54.6-54.7c-.1-30-24.6-54.5-54.7-54.5zm-40.4 49.7c-.2.3-.5.4-.8.5-.1.2-.3.3-.5.3 0 .1-.1.2-.2.1-.1-.2.1-.2.2-.2.1-.1.2-.3.3-.4.2-.2.5-.4.7-.6 2.2-2.1 4.5-4.1 6.7-6.2-3.4-3.4-6.8-6.7-10.2-10.1 3.4 3.4 6.8 6.8 10.2 10.1 2.4-2.1 4.8-4.2 7-6.4 4.3-3.9 8.7-7.8 13-11.7 3.2-2.9 6.3-5.8 9.5-8.7.3-.2.5-.6 1.2-.6-1.3 1.6-2.4 3-3.6 4.4-3.2 4-6.5 7.9-9.7 11.9-1.2 1.5-2.7 2.8-4.3 3.9-.9.6-1.8 1.3-2.7 1.9-2.8 1.9-5.6 3.8-8.3 5.8s-5.6 4-8.5 6zm19.7 23.1c-.1 0-.2 0-.2 0-.2-1.2-.4-2.4-.6-3.7.8.2 1.4.4 2.1.7-.5 1-.9 2-1.3 3zm18.9 22c-.1 0-.1 0-.2 0-1.3-8.8-2.7-17.5-4-26.3-.6-4.3-1.3-8.5-1.9-12.8-.2-1.7-.8-3.4-.6-5.1.4-2.5.9-4.9 1.4-7.4-.2 0-.4 0-.7 0-.2 0-.4-.1-.6-.2-.4-.1-.8-.3-1.3-.3-.1.8.3 1.4.5 2.2-.5 1.1-1 2.3-1.5 3.4-.9-1-1.8-2-2.8-3.1-3.3 2.5-6.5 4.9-9.7 7.4-.3.3-.6.6-1.1.6-.1.2-.2.4-.4.5.2-.1.3-.3.4-.5-.2-1.4-.4-2.7-.6-4.1-.2-.5-.3-1.1-.5-1.7.5-.6.9-1.1 1.4-1.6-1.8-.6-3.8-1-5.8-1.5 2 .5 4 .9 5.9 1.6 2-1.9 3.9-3.8 5.6-5.9 2.3-2.1 4.6-4.2 6.8-6.3.6 2.7 1.2 5.9 1.9 9 .4 0 .9.2 1.3.3.2.1.4.1.6.2.2 0 .4.1.7 0 1.7-8.6 3.3-17.2 5-25.8 0-.2 0-.4 0-.5h.2v.5 1.3 74.4zm3.2 0c-.1 0-.1 0-.2 0 0-.4 0-.8 0-1.3 0-25 0-50 0-75.1 0-.3 0-.6 0-.9 0-.2 0-.4 0-.5h.2v.5c1.7 9 3.5 18 5.2 27 .1.7.3 1.3.4 2 .2 1.9 1.1 3.8.7 5.8-.8 5.4-1.6 10.8-2.4 16.2-1.2 8.8-2.5 17.5-3.9 26.3zm18.8-22.1c-.4-.9-.8-1.8-1.2-2.8.6-.4 1.2-.5 1.9-.7.1 1.3-.3 2.4-.7 3.5zm21.2-22c-.1.1-.2 0-.2-.1-.5-.1-.9-.4-1.3-.8-2.9-2-5.8-4-8.7-6-.6.2-1.3.4-1.9.6.6-.2 1.3-.4 1.9-.6-2.5-1.9-5.1-3.7-7.8-5.5-2 .3-3.8 1.1-5.7 1.7 1.8 2.1 3.7 4 5.7 5.9.5.5.9 1.1 1.4 1.6-.2.6-.3 1.1-.5 1.7-.2 1.3-.4 2.6-.6 3.8-3.4-2.6-6.7-5.1-10.2-7.7-1.3.9-1.9 2.6-3.4 3.3-.3.7-.5 1.4-.6 2.1.1-.7.3-1.4.6-2.1-.5-1.3-1-2.6-1.5-3.9.2-.6.5-1.3.5-2 .8-2.9 1.2-5.9 1.8-8.8 0-.2.1-.4.1-.3 2.2 2.1 4.5 4.2 6.8 6.3 1.9-.6 3.8-1.3 5.7-1.7-6-3.4-9.7-9-14-14.2-2.2-2.7-4.4-5.4-6.6-8.1.8-.2 1 .4 1.3.7 7.1 6.4 14.2 12.9 21.3 19.3.4.4.9.8 1.4 1.1 3.2-1 6.4-2.1 9.6-3.1-3.2 1-6.4 2.1-9.6 3.1 2.2 2.2 4.4 4.2 6.8 6.2 2.2 2.1 4.5 4.1 6.7 6.2.4.2.8.5 1.1 1-.2.1 0 .1-.1.3z" fill="#fae500"/><path d="m35.1 71.1c.8.2 1.4.4 2.1.7-.4 1.1-.8 2.1-1.2 3.1-.1 0-.2 0-.2 0-.3-1.2-.5-2.4-.7-3.8z" fill="#28221f"/><path d="m76.9 74.8c-.4-.9-.8-1.8-1.2-2.8.6-.4 1.2-.5 1.9-.7.1 1.3-.3 2.4-.7 3.5z" fill="#28221f"/><g fill="#615a2e"><path d="m96.6 51.8c.1-.1.2-.2.3-.2.4.2.8.5 1.1 1h-.1c-.6-.1-.9-.4-1.3-.8z"/><path d="m16 51.6c.1.1.2.2.3.2-.2.3-.5.4-.8.5-.1-.1-.2-.1-.2-.2.2-.1.5-.3.7-.5z"/><path d="m54.9 19.6h-.2c0-.2 0-.4 0-.5h.2z"/><path d="m58.2 19.6h-.2c0-.2 0-.4 0-.5h.2z"/><path d="m15 52.6c.1-.1.2-.3.3-.4.1.1.2.1.2.2-.1.2-.3.3-.5.2z"/><path d="m15 52.6c0 .1-.1.2-.2.1s.1-.1.2-.1z"/><path d="m97.9 52.6c.1 0 .2 0 .2.2-.1 0-.2-.1-.2-.2z"/></g></svg>