<?xml version="1.0" encoding="UTF-8"?>
<svg id="uuid-485875a2-a12b-4322-ab5d-95b3953afddb" data-name="Capa 1" xmlns="http://www.w3.org/2000/svg" viewBox="0 0 566.93 566.93">
  <defs>
    <style>
      .uuid-0a64aea1-a860-41da-aa90-24cb894351dc {
        fill: #fefdfc;
      }

      .uuid-d5a2b6e9-d941-4bbc-a165-02a76ece9abc {
        fill: #fefefe;
      }

      .uuid-86da03c8-25e7-43f3-aaa1-c57479fce488 {
        fill: #fffdfc;
      }

      .uuid-c241ccfb-0b8b-4acc-989f-9cb471cf9c91 {
        fill: #fefcfc;
      }

      .uuid-46c9f5ea-780e-4523-a32c-5da29c65c444 {
        fill: #fefdfd;
      }

      .uuid-d65e2297-61d5-4946-a7c4-b5105c7c7564 {
        fill: #e73731;
      }

      .uuid-6642410b-ca21-4260-9ba2-c116cab44c0f {
        fill: #010101;
      }

      .uuid-e1d82ac9-0d57-4a54-b178-8ba6218fbcd2 {
        fill: #fefefd;
      }
    </style>
  </defs>
  <g>
    <circle class="uuid-d65e2297-61d5-4946-a7c4-b5105c7c7564" cx="283.46" cy="283.46" r="279.21"/>
    <circle class="uuid-6642410b-ca21-4260-9ba2-c116cab44c0f" cx="283.46" cy="283.46" r="268.87"/>
    <circle class="uuid-d65e2297-61d5-4946-a7c4-b5105c7c7564" cx="283.46" cy="283.46" r="261.98"/>
    <circle class="uuid-6642410b-ca21-4260-9ba2-c116cab44c0f" cx="283.46" cy="283.46" r="178.35"/>
    <circle class="uuid-d65e2297-61d5-4946-a7c4-b5105c7c7564" cx="283.46" cy="283.46" r="171.36"/>
    <circle class="uuid-6642410b-ca21-4260-9ba2-c116cab44c0f" cx="283.46" cy="283.46" r="165.72"/>
    <g>
      <path class="uuid-86da03c8-25e7-43f3-aaa1-c57479fce488" d="M91.85,378.54c1.01-.36,1.88-.5,2.62-.41.73.09,1.38.38,1.95.88.57.5,1.11,1.21,1.64,2.13l8.31,14.51c.52.92.86,1.75,1.01,2.49.15.74.07,1.46-.22,2.13-.3.68-.86,1.36-1.68,2.05-.82.69-1.92,1.43-3.29,2.22l-15.58,8.93c-1.37.79-2.57,1.36-3.58,1.72-1.01.36-1.88.5-2.62.41-.73-.09-1.39-.38-1.95-.88-.57-.5-1.11-1.21-1.64-2.13l-1.23-2.14-6.19,6.85-2.6-4.54,6.35-6.58-4.64-8.09c-.52-.92-.86-1.75-1.01-2.49-.15-.74-.07-1.46.22-2.13.3-.68.86-1.36,1.68-2.05.82-.69,1.92-1.43,3.29-2.22l15.58-8.93c1.37-.79,2.57-1.36,3.58-1.72ZM77.76,401.34l5.36-5.51,3.91,2.17-6.89,7.5,2.41,4.2,18.72-10.73-8.66-15.12-18.72,10.73,3.87,6.76Z"/>
      <path class="uuid-86da03c8-25e7-43f3-aaa1-c57479fce488" d="M112.84,405.06l3.11,4.27-27.53,20.04-3.11-4.27,27.53-20.04Z"/>
      <path class="uuid-86da03c8-25e7-43f3-aaa1-c57479fce488" d="M125.28,420.92l3.39,3.82-16.8,32.36-3.95-4.44,3.76-6.99-9.56-10.75-7.33,2.98-3.51-3.95,33.99-13.02ZM114.81,439.93l7.12-12.86-13.72,5.42,6.61,7.43ZM138.93,414.02l3.16,3.55-12.55,2.67-1.87-2.11,11.26-4.12Z"/>
      <path class="uuid-86da03c8-25e7-43f3-aaa1-c57479fce488" d="M138.52,435.41l2.76,2.33-.73,25.63c-.01.74-.04,1.47-.1,2.2-.06.73-.16,1.5-.3,2.3.86-1.11,1.6-2.06,2.2-2.85.6-.79,1.08-1.38,1.42-1.78l11.53-13.67,3.63,3.06-21.96,26.03-2.76-2.33.83-26.85c.04-.54.08-1.08.13-1.62.05-.53.12-1.11.21-1.72-.78,1.06-1.46,1.95-2.01,2.66-.56.71-1,1.25-1.31,1.62l-11.87,14.08-3.63-3.06,21.96-26.03Z"/>
      <path class="uuid-86da03c8-25e7-43f3-aaa1-c57479fce488" d="M163.97,455.96l19.4,12.29-3.18,5.02-14.94-9.46-4.8,7.58,8.07,5.11-3.32,5.24-8.07-5.11-6.92,10.93-4.46-2.83,18.22-28.77Z"/>
      <path class="uuid-86da03c8-25e7-43f3-aaa1-c57479fce488" d="M184.44,468.6l21.03,9.87-2.47,5.26-16.25-7.63-3.22,6.87,9.48,4.45-2.47,5.26-9.48-4.45-3.59,7.65,16.45,7.72-2.72,5.79-21.23-9.96,14.47-30.83ZM195.1,459.76l5.45,2.56-2.99,6.76-5.6-2.63,3.14-6.69ZM200.55,462.31l5.15,2.42-3.14,6.69-5-2.34,2.99-6.76Z"/>
      <path class="uuid-86da03c8-25e7-43f3-aaa1-c57479fce488" d="M209.51,480.09l3.45,1.04,9.5,23.82c.28.68.54,1.37.78,2.06.24.69.45,1.43.64,2.23.35-1.37.65-2.53.89-3.49.24-.96.44-1.69.59-2.2l5.16-17.12,4.55,1.37-9.83,32.61-3.45-1.04-9.89-24.97c-.18-.51-.36-1.03-.52-1.54-.17-.51-.33-1.06-.49-1.66-.3,1.29-.56,2.37-.79,3.24s-.42,1.54-.56,2l-5.31,17.63-4.55-1.37,9.83-32.61Z"/>
      <path class="uuid-86da03c8-25e7-43f3-aaa1-c57479fce488" d="M244.74,495.69l-2.96,21.38,16.34,2.26,1.04-7.52-8.54-1.18.8-5.75,13.64,1.89-1.61,11.64c-.22,1.57-.49,2.86-.83,3.88-.33,1.02-.76,1.79-1.28,2.32-.52.53-1.15.86-1.89,1-.75.14-1.64.14-2.69,0l-15.52-2.15c-1.05-.14-1.91-.39-2.59-.72-.68-.34-1.2-.83-1.55-1.48s-.55-1.51-.6-2.58c-.04-1.07.04-2.39.26-3.96l2.46-17.78c.22-1.57.49-2.86.83-3.88.33-1.02.76-1.79,1.28-2.32.52-.53,1.15-.86,1.89-1s1.64-.14,2.69,0l15.52,2.15c1.02.14,1.87.37,2.55.69.68.32,1.2.8,1.55,1.45.35.65.57,1.48.63,2.49.07,1.01,0,2.28-.21,3.8l-.11.79-5.29.67.52-3.79-16.34-2.26Z"/>
      <path class="uuid-86da03c8-25e7-43f3-aaa1-c57479fce488" d="M279.36,493.27l6.02-.34,10.55,24.07,7.37-25.07,5.27-.29-10.58,34.7-3.65.2-14.99-33.27Z"/>
      <path class="uuid-86da03c8-25e7-43f3-aaa1-c57479fce488" d="M317.6,489.79l5.02-.93,18.99,31.13-5.84,1.08-4.04-6.84-14.15,2.61-1.24,7.81-5.19.96,6.46-35.82ZM328.45,508.6l-7.32-12.74-2.46,14.55,9.78-1.8Z"/>
      <path class="uuid-86da03c8-25e7-43f3-aaa1-c57479fce488" d="M336.99,485.94l3.42-1.17,21.6,13.83c.63.39,1.24.8,1.83,1.22.59.42,1.2.91,1.81,1.44-.51-1.31-.95-2.43-1.31-3.35-.36-.92-.63-1.63-.8-2.13l-5.78-16.93,4.5-1.54,11,32.23-3.42,1.17-22.58-14.54c-.45-.31-.89-.63-1.32-.94-.43-.32-.89-.67-1.36-1.07.51,1.22.92,2.25,1.24,3.1.32.84.56,1.5.71,1.95l5.95,17.43-4.5,1.54-11-32.23Z"/>
      <path class="uuid-86da03c8-25e7-43f3-aaa1-c57479fce488" d="M374.74,478.09l10.06,19.09,14.6-7.69-3.54-6.71-7.63,4.02-2.71-5.14,12.18-6.42,5.48,10.39c.74,1.4,1.27,2.61,1.59,3.64.32,1.02.43,1.9.32,2.63-.11.73-.43,1.37-.95,1.92s-1.25,1.07-2.19,1.56l-13.86,7.3c-.94.49-1.78.8-2.52.92-.75.12-1.46.02-2.12-.3-.67-.32-1.33-.9-1.99-1.75-.66-.85-1.36-1.97-2.1-3.37l-8.37-15.88c-.74-1.4-1.27-2.61-1.59-3.64-.32-1.02-.43-1.9-.32-2.63.11-.73.43-1.37.95-1.92.52-.55,1.25-1.07,2.19-1.56l13.86-7.3c.91-.48,1.73-.79,2.47-.93.74-.14,1.44-.05,2.11.27.67.32,1.32.87,1.96,1.65s1.33,1.85,2.04,3.21l.37.7-3.91,3.63-1.79-3.39-14.6,7.69Z"/>
      <path class="uuid-86da03c8-25e7-43f3-aaa1-c57479fce488" d="M416.41,478.7l12.08-8.98-16.49-22.2,4.24-3.15,15.51,20.87c.94,1.27,1.66,2.39,2.13,3.35.48.96.72,1.81.72,2.55,0,.74-.22,1.42-.65,2.04-.43.62-1.07,1.25-1.92,1.88l-11.51,8.55c-.85.63-1.63,1.06-2.35,1.3-.72.24-1.43.24-2.14.03-.71-.21-1.45-.69-2.24-1.42-.78-.73-1.65-1.74-2.59-3.01l-15.51-20.87,4.24-3.15,16.49,22.2Z"/>
      <path class="uuid-86da03c8-25e7-43f3-aaa1-c57479fce488" d="M426.73,434.37l3.62-3.6,33.25,14.96-4.21,4.19-7.19-3.36-10.2,10.15,3.39,7.15-3.74,3.72-14.91-33.21ZM446.3,443.76l-13.24-6.38,6.19,13.39,7.05-7.01Z"/>
      <path class="uuid-86da03c8-25e7-43f3-aaa1-c57479fce488" d="M440.56,420.1l11.78-15.48c1.07-1.4,2.25-2.12,3.55-2.16,1.3-.04,2.9.66,4.79,2.1l6.36,4.84c1.89,1.44,2.99,2.79,3.3,4.06.31,1.27-.07,2.6-1.14,4l-1.81,2.38,16.58-.54-4.58,6.02-15.78-.51-3.04,3.99,10.24,7.79-3.14,4.13-27.1-20.62ZM448.38,419.53l7.56,5.75,7.19-9.46c.5-.65.73-1.23.7-1.73-.03-.5-.5-1.1-1.41-1.79l-3.26-2.48c-.91-.69-1.61-.99-2.11-.88-.49.1-.99.48-1.49,1.14l-7.19,9.45Z"/>
      <path class="uuid-86da03c8-25e7-43f3-aaa1-c57479fce488" d="M458.22,396.29l7.03-12.8c2.06-3.75,4.91-5.88,8.55-6.38,3.63-.5,7.79.54,12.45,3.1,2.82,1.55,5.12,3.32,6.91,5.3,1.79,1.99,2.95,4.03,3.46,6.12.35,1.46.32,2.96-.1,4.49-.41,1.53-1.11,3.18-2.08,4.96l-6.38,11.61-29.85-16.4ZM488.29,399c.8-1.47,1.35-2.83,1.65-4.09.29-1.26.27-2.46-.06-3.6-.33-1.13-1.01-2.23-2.04-3.28-1.03-1.05-2.47-2.08-4.32-3.1-3.05-1.67-5.66-2.4-7.84-2.17-2.18.22-3.87,1.43-5.07,3.61l-4.51,8.21,18.92,10.39,3.28-5.98Z"/>
    </g>
    <g>
      <g>
        <path class="uuid-d5a2b6e9-d941-4bbc-a165-02a76ece9abc" d="M79.14,199.67c-11.12-29.6,3.96-58.31,17.02-67.59-.65,24.15-2.37,47.12-17.02,67.59Z"/>
        <path class="uuid-46c9f5ea-780e-4523-a32c-5da29c65c444" d="M64.6,254.94c-17.24-22.68-12.86-54.14-1.24-69.59,5.53,23.58,10.13,46.27,1.24,69.59Z"/>
        <path class="uuid-e1d82ac9-0d57-4a54-b178-8ba6218fbcd2" d="M64.73,312.15c-20.85-15.63-26.96-45.74-19.14-66.87,11.23,21.56,21.79,42.1,19.14,66.87Z"/>
        <path class="uuid-d5a2b6e9-d941-4bbc-a165-02a76ece9abc" d="M44.39,308.48c16.18,17.51,31.62,34.72,35.29,59.26-22.64-10.12-40.63-39.77-35.29-59.26Z"/>
        <path class="uuid-46c9f5ea-780e-4523-a32c-5da29c65c444" d="M106.84,154.14c-1.44-16.33,11.62-37.07,28.75-45.64,2,16.01-14.69,42.5-28.75,45.64Z"/>
        <path class="uuid-0a64aea1-a860-41da-aa90-24cb894351dc" d="M134.22,157.23c-11.12,16.55-24.03,28.37-42.97,34.16,5.78-18.43,24.68-33.71,42.97-34.16Z"/>
        <path class="uuid-46c9f5ea-780e-4523-a32c-5da29c65c444" d="M89.79,249.31c3.37,12.8-7.36,40.82-18.76,48.99-4.47-16.67,4.73-40.71,18.76-48.99Z"/>
        <path class="uuid-46c9f5ea-780e-4523-a32c-5da29c65c444" d="M87.72,300.13c6.42,12.62,3.1,42.41-5.58,52.46-8.5-16.04-6.23-38.62,5.58-52.46Z"/>
        <path class="uuid-0a64aea1-a860-41da-aa90-24cb894351dc" d="M105.13,200.35c-.43,13.91-17.78,37.63-30.86,42.7-.49-16.54,14.02-36.81,30.86-42.7Z"/>
      </g>
      <g>
        <path class="uuid-d5a2b6e9-d941-4bbc-a165-02a76ece9abc" d="M487.57,199.35c-10.92-14.14-19.94-50.79-16.35-66.43,16.15,6.97,25.11,43.37,16.35,66.43Z"/>
        <path class="uuid-e1d82ac9-0d57-4a54-b178-8ba6218fbcd2" d="M503.37,185.09c11.81,15.85,15.94,47.53-1.18,69.67-8.89-23.03-4.27-45.75,1.18-69.67Z"/>
        <path class="uuid-d5a2b6e9-d941-4bbc-a165-02a76ece9abc" d="M521.07,245.69c6.89,13.96,5.3,46.97-18.98,66.81-2.51-24.94,7.6-45.76,18.98-66.81Z"/>
        <path class="uuid-46c9f5ea-780e-4523-a32c-5da29c65c444" d="M487.06,367.69c3.81-24.59,19.21-41.93,35.44-59.4,3.37,15.81-7.81,47.74-35.44,59.4Z"/>
        <path class="uuid-46c9f5ea-780e-4523-a32c-5da29c65c444" d="M430.77,108.55c15.75,5.76,30.73,29.17,29.17,45.57-14.05-3.33-28.53-25.95-29.17-45.57Z"/>
        <path class="uuid-c241ccfb-0b8b-4acc-989f-9cb471cf9c91" d="M434.25,157.27c15.99-.1,34.85,14.99,41.03,32.81-12.86-.13-37.45-19.79-41.03-32.81Z"/>
        <path class="uuid-46c9f5ea-780e-4523-a32c-5da29c65c444" d="M476.98,249.25c14.09,8.27,22.51,29.83,19.05,48.78-10.88-6.25-22.32-35.54-19.05-48.78Z"/>
        <path class="uuid-0a64aea1-a860-41da-aa90-24cb894351dc" d="M461.85,200.51c15.48,4.26,30.09,24.31,30.82,42.31-12.8-4.14-31.33-29.58-30.82-42.31Z"/>
        <path class="uuid-46c9f5ea-780e-4523-a32c-5da29c65c444" d="M479.11,300.05c11.38,13.65,13.38,31.61,6.14,52.49-9.02-7.54-12.92-39.44-6.14-52.49Z"/>
      </g>
    </g>
    <g>
      <path class="uuid-86da03c8-25e7-43f3-aaa1-c57479fce488" d="M279.01,45.92l-54.45,7.12-.68-5.19,54.46-7.12.68,5.19ZM256.18,85.95c.21,1.61.03,2.88-.54,3.82-.57.93-1.32,1.6-2.26,2-.93.4-2.62.76-5.06,1.08-1.22.16-2.32.27-3.28.34l-2.66-5.12c.91-.02,1.88-.09,2.92-.23,2.38-.31,3.94-.6,4.66-.86.72-.26,1.04-.74.95-1.43l-.83-6.33-12.01,1.57c-.19,5.87-1.47,10.6-3.86,14.18l-4.97-2.33c3.22-4.21,4.22-10.98,3-20.32l-2.09-16.01,21.79-2.85,4.25,32.48ZM246.71,41.41l-5.4,3.38c-2.68-1.14-5.91-2.14-9.69-2.99l5.44-3.57c3.53.72,6.75,1.78,9.65,3.18ZM248.12,64.28l-.67-5.13-11.4,1.49.67,5.13,11.4-1.49ZM249.45,74.46l-.7-5.32-11.4,1.49.7,5.32,11.4-1.49ZM268.35,36.93c-3.1,2.44-5.88,4.24-8.34,5.41l-6.09-1.88c3.08-1.81,5.83-3.67,8.25-5.58l6.17,2.05ZM267.34,79.83l-5.44.71-3.54-27.04,5.44-.71,3.54,27.04ZM279.25,82.22c.34,2.61-.03,4.42-1.12,5.45-1.09,1.02-3.26,1.75-6.52,2.17-1.28.17-2.65.3-4.11.41l-2.45-5.15,7.82-1.02c.29-.04.53-.24.75-.59.21-.36.29-.71.25-1.06l-4.16-31.81,5.32-.69,4.22,32.3Z"/>
      <path class="uuid-86da03c8-25e7-43f3-aaa1-c57479fce488" d="M310.63,47.23l-4.19,3.42c-1.89-3.09-3.7-5.72-5.45-7.9-1.91,2.33-4.04,4.53-6.41,6.63l11.02,1.56-.72,5.07-3.81-.54-.66,4.67,7.81,1.1-.7,4.94-7.81-1.1-2.37,16.75c3.02-.34,5.72-.69,8.11-1.03l-.71,5c-7.43,1.19-14.5,1.91-21.22,2.17l-.17-5.19c3.92-.13,6.75-.26,8.49-.39l2.55-18.07-7.32-1.03.7-4.94,7.32,1.04.66-4.67-4.03-.57.36-2.56c-.7.53-1.37.96-2.02,1.3l-2.51-4.71c4.43-2.9,8.63-7.36,12.6-13.38l4.92,2.22c-.22.53-.55,1.06-1,1.6,2.07,2.37,4.26,5.24,6.56,8.62ZM290.73,79.74l-4.77.48c.37-3.97.46-8.32.25-13.04l4.55-.69c.29,4.54.28,8.96-.04,13.25ZM306.64,69.51c-.9,4.29-2.02,7.93-3.38,10.92l-4.29-1.82c1.24-2.62,2.41-6.15,3.49-10.59l4.18,1.49ZM337.55,89.54l-12.63-1.79-.94,6.62-5.43-.77.94-6.62-12.82-1.81.68-4.79,12.82,1.81.49-3.45-10.31-1.46.6-4.24,10.31,1.46.49-3.45-11.75-1.66.68-4.82,11.75,1.66.56-4,5.43.77-.56,4,11.81,1.67-.68,4.82-11.81-1.67-.49,3.45,10.25,1.45-.6,4.24-10.25-1.45-.49,3.45,12.63,1.79-.68,4.79ZM342.92,62.78l-2.57,4.52c-6.58-2.65-11.45-5.27-14.61-7.85-5.52,1.75-10.69,2.79-15.5,3.1l-1.77-5.1c4.67-.15,8.97-.78,12.9-1.88-1.6-1.6-2.88-3.3-3.82-5.12-1.59.85-2.69,1.4-3.28,1.65l-3.04-4.26c4.36-1.62,8.52-4.84,12.48-9.66l4.72,2.25c-.62.99-1.32,1.88-2.12,2.66l15.08,2.13-.68,4.79c-2.97,2.69-6.2,5.05-9.68,7.07,3.72,2.31,7.68,4.21,11.89,5.7ZM333.97,49.06l-12.02-1.7-.35.26c1.05,1.97,2.73,3.98,5.04,6,2.82-1.28,5.26-2.8,7.34-4.57Z"/>
    </g>
  </g>
  <g>
    <path class="uuid-46c9f5ea-780e-4523-a32c-5da29c65c444" d="M272.84,268.73l-28.82-23.22.38-61.35,36-48.74v248.22s-38.8-102.57-38.8-102.57c-21.73-19.41-43.01-39.57-65.11-58.59-1.55-1.33-3.32-2.93-5.19-3.77l45.25,87.86c15.22,29.55,31.05,58.86,46,88.54,6.27,12.44,12.56,24.97,17.85,37.86l-.93.69-31.77-57.45c-40.25-15.97-64.49-54.11-61.79-97.58.31-4.94,2.17-9.98,1.68-14.86l-36.63-71.94,25.52,21.7,70.38,63.24,25.98,67.24v-75.27Z"/>
    <path class="uuid-46c9f5ea-780e-4523-a32c-5da29c65c444" d="M245.29,380.48l16.21,27.69c-40.83-7.47-76.74-36.45-92.8-74.57-13.08-31.04-12.66-66.49-.25-97.66l14.42,28.3c-10.49,48.9,16.26,98.01,62.43,116.24Z"/>
    <path class="uuid-46c9f5ea-780e-4523-a32c-5da29c65c444" d="M253.94,163.73l-14.28,19.47-.59,10.27c-9.7,5.16-19.09,11.14-27.17,18.63-1.56,1.45-3.6,5.26-5.46,4.06l-15.59-12.3c-.46-.55-.04-.79.24-1.21.56-.82,3.18-3.59,4.03-4.47,6.31-6.49,14.85-13.22,22.48-18.12,11.21-7.19,23.61-12.45,36.33-16.32Z"/>
    <path class="uuid-46c9f5ea-780e-4523-a32c-5da29c65c444" d="M239.3,242.06l-34.19-27.05c6.18-6.45,16.24-14.56,23.94-19.15,1.22-.73,8.36-3.09,9.37-3.21,1.34-.16.88-.6.88.04v49.37Z"/>
    <path class="uuid-46c9f5ea-780e-4523-a32c-5da29c65c444" d="M294.09,268.73l28.82-23.22-.38-61.35-36-48.74v248.22s38.8-102.57,38.8-102.57c21.73-19.41,43.01-39.57,65.11-58.59,1.55-1.33,3.32-2.93,5.19-3.77l-45.25,87.86c-15.22,29.55-31.05,58.86-46,88.54-6.27,12.44-12.56,24.97-17.85,37.86l.93.69,31.77-57.45c40.25-15.97,64.49-54.11,61.79-97.58-.31-4.94-2.17-9.98-1.68-14.86l36.63-71.94-25.52,21.7-70.38,63.24-25.98,67.24v-75.27Z"/>
    <path class="uuid-46c9f5ea-780e-4523-a32c-5da29c65c444" d="M321.63,380.48l-16.21,27.69c40.83-7.47,76.74-36.45,92.8-74.57,13.08-31.04,12.66-66.49.25-97.66l-14.42,28.3c10.49,48.9-16.26,98.01-62.43,116.24Z"/>
    <path class="uuid-46c9f5ea-780e-4523-a32c-5da29c65c444" d="M312.99,163.73l14.28,19.47.59,10.27c9.7,5.16,19.09,11.14,27.17,18.63,1.56,1.45,3.6,5.26,5.46,4.06l15.59-12.3c.46-.55.04-.79-.24-1.21-.56-.82-3.18-3.59-4.03-4.47-6.31-6.49-14.85-13.22-22.48-18.12-11.21-7.19-23.61-12.45-36.33-16.32Z"/>
    <path class="uuid-46c9f5ea-780e-4523-a32c-5da29c65c444" d="M327.63,242.06l36.29-28.71c-6.18-6.45-16.09-12.17-23.78-16.76-1.22-.73-7.21-4.1-8.21-4.23-1.34-.16-4.3-2.32-4.3-1.68v51.38Z"/>
    <rect class="uuid-46c9f5ea-780e-4523-a32c-5da29c65c444" x="280.4" y="434.13" width=".46" height=".94"/>
    <path class="uuid-46c9f5ea-780e-4523-a32c-5da29c65c444" d="M286.3,434.13c.31.16.31.31,0,.47v-.47Z"/>
  </g>
</svg>