<svg enable-background="new 0 0 113.4 113.4" viewBox="0 0 113.4 113.4" xmlns="http://www.w3.org/2000/svg"><circle cx="56.7" cy="56.8" fill="#fff" r="56.2"/><path d="m113.4 56.8c0 31.5-25.4 56.7-57 56.6-31.3 0-56.6-25.6-56.4-57.3.2-30.9 25.3-56 56.6-56.1 31.4-.1 56.8 25.4 56.8 56.8zm-1.1-.1c0-30.6-24.9-55.5-55.5-55.5-30.9 0-55.6 24.8-55.6 55.7 0 30.6 24.9 55.4 55.7 55.4 30.5 0 55.4-25.1 55.4-55.6z" fill="#353534"/><path d="m112.3 56.7c0 30.5-24.9 55.6-55.4 55.6-30.7 0-55.6-24.8-55.7-55.4 0-30.9 24.7-55.6 55.6-55.7 30.5 0 55.4 24.9 55.5 55.5zm-3.8 0c-.2-28.6-23.4-51.7-51.8-51.5-28.6.2-51.5 23.4-51.4 51.7.1 28.5 23.5 51.5 51.9 51.4 28.3-.2 51.5-23.6 51.3-51.6z" fill="#fff"/><path d="m108.5 56.7c.2 28.1-23 51.4-51.2 51.6-28.5.2-51.8-22.9-52-51.4-.1-28.4 22.8-51.5 51.4-51.7 28.3-.2 51.6 22.9 51.8 51.5zm-86.4-26.9c.9.7 1.8 1.3 2.8 2 .3.2.6.6 1 0 .5-.6-.1-.7-.4-.9-1.4-1.1-2.8-2.1-4.3-3.2-.3-.3-.7-.7-1.2-.1-.4.5-.4.8 0 1.3.9 1.3 1.8 2.6 2.7 3.9-.4.2-.7.1-1.1 0-1.2-.4-2.5-.7-3.7-1.2-.9-.4-1 .4-1.3.8-.5.5.2.6.4.8l4.5 3.3c.3.2.5.6.9.1.4-.6 0-.7-.3-1-1-.8-2.1-1.5-3.3-2.4 1.4.1 2.4.7 3.6.9.5.1 1.1.8 1.7.1s-.2-1.1-.5-1.6c-.5-.9-1.1-1.8-1.7-2.6.1-.1.2-.2.2-.2zm53 42c-.7.9-.5 1.2.6 1.2 2.7-.1 5.4 0 8 0 .2.7-.3.9-.1 1.3h.4c.8 0 1.7-.1 2.5 0 1 .1 1.4-.3 1.8-1.1 3.6-6.8 5-14.1 3.9-21.7-2.5-19.3-20.8-33.1-40.1-30.4-23.6 3.3-37.4 28.4-27.4 50 1.9 4.1.8 3.1 5.2 3.1.3-.4-.5-.6-.1-1.2h9c0-1.1-.5-1.3-1.3-1.3-2.8 0-5.7 0-8.5 0-.9 0-1.3-.2-1.7-1-5.9-12-3.8-26.9 5.3-36.7.3.3.5.7.8 1 6.1 8.7 12.2 17.5 18.3 26.2.3.4.4.9 1 1.1 0-8.8 0-17.5 0-26.2 0-.5-.1-.8-.5-1.2-4-3.8-2.9-9.1 2.3-11 .3-.1.9 0 .7-.6 9.7-.5 18 2.7 24.9 9.4 9.9 9.6 12.8 24.7 7.2 36.7-2.1-2.4-3.1-5.8-6.4-7.1-.5-.2-.7-.6-1.1.1-1.5 3.2-3.2 6.3-4.7 9.4zm-7.1.1c2.8-3.7 5.7-7.4 8.7-11.3-.7 0-1.1.1-1.5.1s-.9.2-1.1-.3.2-.8.5-1c .8-.9 1.6-1.7 2.5-2.5.7-.6.7-1 .2-1.8-2.1-3-4.2-6-6.3-9-2.7-3.9-5.4-7.7-8.1-11.6-.2-.3-.3-1-.8-.5-.6.6-1.3 1.2-1.3 2.3.1 6.3 0 12.6 0 18.9v16.6c-.1 2.5-.1 2.5 2.3 2.5h.4c2.2.4 3.6-.5 4.5-2.4zm7.5-12.1c1.1-.1 1.9-.1 3-.2-4.6 6-9 11.8-13.4 17.6 2 .3 3.8.7 5.9 1-3.8 3.4-7.3 6.6-11.1 10 0-.9 0-1.4 0-1.9 0-16.4 0-32.7 0-49.1 0-1.5.2-2.8 1.4-4 2.9-2.9 1.4-7.3-2.3-8.5-.4-.1-1-.5-1.3-.1-.2.3-.1.9-.1 1.4 0 .6.6.6.9.8 2.5 1.4 2.6 4.9.1 6.3-.8.5-1 1-1 1.9v67.3c0 .3-.2.7.2 1.1 8.1-9.8 16.2-19.6 24.3-29.4 0-.1-.1-.2-.1-.3-2.9 0-5.9 0-9 0 .3-.6.5-1 .7-1.4 1.9-3.6 3.8-7.3 5.6-10.9.5-1 .9-1.2 1.7-.4.2.2.4.5.7.3s.2-.5.2-.8c.1-1.9.2-3.7.4-5.6 0-.7.3-1.4.1-1.9-2.3 2.4-4.5 4.5-6.9 6.8zm-43.8 2c .3-.2.5-.3.6-.4 1.3-1 1.3-1 2 .5 1.8 3.5 3.6 7.1 5.4 10.6.7 1.3.7 1.3-.7 1.3-2.5.1-5.1.2-7.8.3 8.2 10 16.3 19.7 24.6 29.7 0-5.2 0-10 0-14.8 0-18 0-35.9 0-53.9 0-.8-.1-1.3-1-1.7-1.4-.7-2.3-1.9-2.1-3.6.1-1.5 1-2.5 2.4-3 1.1-.4.8-1.3.6-1.9s-.9-.1-1.3.1c-4.1 1.4-5.1 6.2-1.9 9.1.7.6 1 1.3 1 2.2v50.7c0 .3.1.7-.2 1.1-3.6-3.2-7.1-6.5-10.9-9.8 2.1-.4 3.9-.7 5.9-1-4.5-5.9-8.9-11.7-13.4-17.6 1.1-.1 2 .3 2.8.1-2.2-2.2-4.4-4.3-6.6-6.4.2 2.6.4 5.4.6 8.4zm66.3-18c .8 1 1.6 1.4 2.7.8 1.1-.7 1.2-1.6.7-2.8-.3-.9-.7-1.7-.9-2.6-.2-.6-.4-.6-.9-.4-1.8.7-3.5 1.3-5.3 2-.4.1-.8.2-.5.8.3.7.6.3 1 .2.3-.1.6-.2 1-.3s.8-.6 1.2-.2c.3.5.7 1.1.3 1.8-.2.3-.3.6-.5.9-.3.4-.7.9-1 1.3-.8 1.2-.1 2.9 1.3 3.1.7.1.9.4 1.1 1 .3 1.1.5 2.2-1 2.7-.1 0-.1.1-.2.1-.5.3-.4.8-.2 1.1.3.4.6 0 .8-.2 1.6-1.1 3.2-2.1 4.8-3.2.4-.2.9-.3.8-1-.2-.7-.7-.7-1.2-.8-2-.3-3.9-.7-6-1.1.5-1.1 1.5-1.9 2-3.2zm-31.3-30.1c0-2.2-1.5-3.8-3.4-3.8-2 0-3.6 1.8-3.5 4 .1 2 1.7 3.6 3.6 3.5.8-.1 1.5-.3 2.1.4.2.2.5.4.8 0 .4-.4.1-.6-.2-.8-.5-.3-.5-.5-.1-1 .6-.6.7-1.5.7-2.3zm-53.6 50.4c1.4-1.3 2.7-2.4 4-3.5.4-.4.5-.8.3-1.2-.2-.5-.7-.1-1-.1-1.8.2-3.5.4-5.3.6-.4 0-.9 0-.8.7.1.6.5.5.9.5 1.3-.2 2.6-.3 4.3-.5-1.6 1.4-2.9 2.6-4.2 3.7-.4.3-.5.6-.3 1.1.2.6.6.3.9.3 1.8-.2 3.6-.5 5.4-.7.4-.1.9 0 .7-.7-.1-.7-.5-.4-.9-.4-1.2 0-2.5.4-4 .2zm21.2-43.9c.2-.4.4-.7.4-1.1.2-.8-.1-1.5-.8-2-.6-.5-1.3-.6-1.9-.2-1 .6-2 1.3-3.1 2-.3.2-.4.4-.1.7 1.2 1.7 2.3 3.4 3.4 5.2.2.3.4.3.7.1s.5-.4.2-.8c-.4-.5-.6-1-1-1.5s-.3-.8.2-1.2c1.3-.9 2.2.1 3.3.5 1 .4 1 .4 1.9-.4-1-.5-2-1.1-3.2-1.3zm-17.5 31.5c.5.1.8 0 .9-.5.3-1.4.5-2.7.8-4.1.1-.3.1-.7-.4-.7-.5-.1-.6.1-.6.5-.2.9-.3 1.8-.5 2.7-.1.3 0 .8-.6.8-1.2.1-1.7-.5-1.4-1.6.1-.6.2-1.2.3-1.7.1-.4.4-.9-.4-.9-.7-.1-.6.4-.7.8-.1.7-.3 1.3-.4 2-.1.9-.5.8-1.2.7-.8-.1-.8-.5-.7-1.1.2-.8.3-1.6.5-2.5.1-.3.2-.7-.4-.7-.4-.1-.6 0-.7.5-.2 1.3-.5 2.6-.7 3.8-.1.5 0 .8.5.9 2 .3 3.9.7 5.7 1.1zm25.3-37.3c0 2.1 1.6 4.1 3.5 4.1s3.5-1.5 3.5-3.4c0-2.1-1.6-4.1-3.5-4.1-1.8-.1-3.5 1.5-3.5 3.4zm49.9 16.6c-.1-.8-.7-1.7-1-2.6-.1-.4-.4-.8.1-1.1s1-.2 1.4.2c.5.6 1 1.2.5 2-.3.6 0 .9.4 1 .3.1.5-.3.7-.5.7-1.2-.2-3.2-1.7-3.8-1.3-.5-2.5.3-2.6 1.7 0 .8.4 1.4.7 2.1.2.6.6 1.2.2 1.8-.2.4-.7.4-1 .2-.7-.2-1.2-.8-1.4-1.5-.1-.4-.2-.9.1-1.2.4-.5.1-.8-.2-1-.5-.3-.6.2-.8.5-.7 1.3 0 3.2 1.5 4.1 1.4.7 3.1-.2 3.1-1.9zm-79.3 10.4c0 1.3.4 2 1.3 2.4s1.6 0 2.2-.8c.4-.6.9-1.2 1.3-1.8.3-.5.7-.5 1.1-.4.5.1.5.5.5.9.1 1.2-.6 2.2-1.7 2.3-.7 0-.7.5-.7.8 0 .5.5.3.8.3 1.5 0 2.9-1.8 2.7-3.6-.1-.9-.6-1.6-1.4-1.9-.9-.3-1.6.1-2.1.7-.3.4-.6 1-.9 1.3-.4.4-.6 1.4-1.5.9s-.4-1.3-.1-2c .2-.4.6-.8 1.1-.7.7.1.7-.5.7-.8 0-.5-.5-.3-.8-.3-1.4.1-2.5 1.6-2.5 2.7zm90.5 22.2c0-2-1.7-3.5-3.9-3.5-2 0-3.5 1.6-3.5 3.6s1.7 3.5 3.9 3.5c2-.1 3.5-1.6 3.5-3.6zm-50.1-46.6h.6c1.3-.1 2.3-1 2.3-2.1 0-1.3-.9-1.8-1.9-2.1-.6-.2-1.2-.2-1.7-.3-.4-.1-.9-.2-.9-.7 0-.6.4-.9.8-1 .8-.2 1.7-.3 2.1.6.2.5.5.6.9.3.5-.3.2-.7 0-1-.6-1.1-2.4-1.5-3.7-.8-.8.4-1.3 1-1.2 1.9s.6 1.5 1.5 1.7c.8.2 1.6.3 2.3.5.4.1.7.4.7.8 0 .5-.2.8-.6 1-1 .5-2.2.2-2.8-.8-.3-.5-.5-.4-.9-.3-.6.2-.2.6-.1.8.4 1.1 1.4 1.6 2.6 1.5zm-26 12.1c1.8 0 3.4-1.6 3.4-3.4 0-2-1.9-3.9-3.9-3.9-1.7 0-3.4 1.6-3.4 3.4 0 1.9 2 4 3.9 3.9zm49.5-10.9c.9.5 1.7 1 2.5 1.5.3.2.7.5 1-.1.4-.6-.2-.6-.5-.8-.7-.4-1.4-.9-2.1-1.2-.8-.4-.4-.8-.1-1.2.2-.4.3-1 1.1-.5.7.5 1.5.9 2.3 1.3.4.2.7.4.9-.1.3-.6-.2-.6-.5-.8-.5-.3-.9-.6-1.4-.8-2.4-1.4-2.4-1.4-3.8 1-.7 1.3-2.3 2.7-1.9 3.8s2.3 1.6 3.6 2.3c.3.2.6.6.9.1s-.1-.7-.4-1c-.8-.5-1.6-.9-2.4-1.4-.3-.2-.6-.4-.3-.8.5-.3.6-1 1.1-1.3zm17.2 53.1c-.1 1 .5 1.7 1.4 2.1 1 .4 1.6-.2 2.2-.8.3-.3.5-.8.8-1.1.4-.5.7-1.6 1.6-.9.8.5.3 1.4 0 2.1-.2.5-.6.7-1 .6-.8-.1-.8.5-.8.8.1.5.6.3 1 .3 1.3-.1 2.4-1.8 2.2-3.4-.1-.8-.5-1.4-1.2-1.6-.7-.3-1.3-.1-1.8.4-.6.7-1.2 1.4-1.8 2.1-.3.4-.6.5-1 .4-.4-.2-.6-.5-.6-1 0-1.1.7-2.1 1.8-2.2.6-.1.8-.3.8-.7-.1-.5-.6-.4-.9-.4-1.5-.1-2.7 1.5-2.7 3.3zm-9.2-47.6c.8.7 1.6 1.4 2.4 2.1.3.3.4.4.8 0s .1-.6-.1-.8c-.6-.6-1.3-1.1-1.9-1.6-.4-.3-.5-.6-.2-1 .5-.7 1-1.1 1.7-.3.5.6 1.1 1 1.7 1.5.3.2.5.4.8.1.4-.4.1-.6-.2-.8-1-.9-2.1-1.7-3.1-2.6-.4-.4-.5-.2-.8.1-1.2 1.5-2.5 3-3.7 4.5-.3.4-.4.7 0 1 1 .8 2 1.7 3 2.5.3.2.6.5.9.1.4-.4 0-.6-.3-.8-.4-.3-.8-.7-1.2-1-1.4-1.4-1.4-1.4.2-3zm-16.7-7.4c0 1.6.9 2.5 2.5 2.9 1.3.3 2.5-.4 3-1.7.5-1.2.8-2.5 1.2-3.7.2-.4.3-.8-.3-1s-.7.3-.8.7c-.4 1.1-.7 2.2-1.1 3.3-.5 1.3-1 1.6-2.1 1.3-1.2-.4-1.5-1.1-1.1-2.2.4-1.2.8-2.5 1.2-3.7.1-.4.1-.6-.4-.7-.3-.1-.6-.2-.7.2-.4 1.5-1.2 3.1-1.4 4.6zm-49.6 49.1c-1.8 1.5-3.6 3-5.4 4.5-.3.2-.5.4-.3.8.2.3.2.6.7.6 2.1.1 4.3.3 6.4.4.2 0 .6.1.6-.3 0-.3-.1-.6-.4-.8-.2-.1-.6-.2-.9-.1-1.3.2-1.4-.8-1.7-1.7-.4-.9-.1-1.4.7-1.8.6-.3.9-.8.3-1.6zm76.2-27.4c-1.4.1-2.3-.8-2.2-2.2.1-1.3 1-1.9 2.1-2.3.8-.4 1.6-.5 2.3.2.8.8 1 1.6.4 2.6-.3.4.1.6.3.8.4.3.6-.1.7-.3.3-.6.6-1.2.4-1.9-.4-1.7-1.9-2.8-3.5-2.7-1.8.1-3.7 1.8-3.8 3.4-.1 2 1.5 3.7 3.4 3.5.4 0 .8 0 .7-.6-.1-.5-.3-.8-.8-.5zm-48.9 33.8c.7.9.8 2.3 2.1 2.5 1.4.1 2.9 0 4.3 0 1 0 .7-.7.7-1.2s.3-1.3-.7-1.3c-2.2 0-4.3 0-6.4 0zm52.4-15.7c.4-.2.6-.3.8-.4 1.4-.6 2.9-1.2 4.3-1.7.6-.2.7-.6.5-1.1-.3-.6-.7-.1-.9 0-1.8.8-3.6 1.6-5.4 2.3-.4.2-.7.4-.7.9s.3.6.7.7c1.8.6 3.6 1.3 5.5 1.9.3.1.8.7 1 0 .2-.6-.2-.9-.8-1.1-1.6-.4-3.1-.9-5-1.5zm-83.7-.3s0 .1 0 0c .8.1 1.5.1 2.3.2.5 0 .8 0 .8-.6 0-.7-.5-.6-.9-.6-.9 0-1.9 0-2.8 0-.8 0-1.6.1-2.2-.2-.5-.3-.1-1.2-.2-1.8 0-.4-.2-.5-.6-.5-.3 0-.4.2-.4.5-.1 1.6-.1 3.1-.2 4.7 0 .4 0 .7.5.7s.5-.3.6-.6c.2-1.7.2-1.7 2-1.6.4-.2.7-.2 1.1-.2zm21.6-40.1s.2-.1.4-.2c.9-.6 1.4-.3 1.7.7.5 1.3 1 2.6 1.6 3.8.2.4.3.7.8.5s.4-.5.2-.9c-.5-1.1-.8-2.2-1.4-3.2-.6-1.2-.9-2.1.9-2.4.2 0 .6-.2.4-.6-.2-.3-.3-.5-.8-.3-1.4.6-2.9 1.2-4.3 1.8-.2.1-.5.2-.3.5.1.1.2.5.8.3z" fill="#161514"/><path d="m75.5 59.8c2.4-2.3 4.6-4.5 6.8-6.6.1.6-.1 1.2-.1 1.9-.1 1.9-.2 3.7-.4 5.6 0 .3.1.6-.2.8s-.6-.1-.7-.3c-.8-.8-1.2-.6-1.7.4-1.8 3.7-3.7 7.3-5.6 10.9-.2.4-.4.7-.7 1.4h9c0 .1.1.2.1.3-8.1 9.8-16.2 19.6-24.3 29.4-.4-.4-.2-.8-.2-1.1 0-22.4 0-44.9 0-67.3 0-.9.2-1.4 1-1.9 2.5-1.4 2.4-4.9-.1-6.3-.3-.2-.9-.2-.9-.8 0-.5-.1-1 .1-1.4.3-.4.8 0 1.3.1 3.7 1.2 5.2 5.6 2.3 8.5-1.2 1.2-1.4 2.4-1.4 4v49.1 1.9c3.8-3.4 7.3-6.6 11.1-10-2.1-.4-3.9-.7-5.9-1 4.5-5.9 8.9-11.6 13.4-17.6-.9-.1-1.8 0-2.9 0z" fill="#df1717"/><path d="m31.7 61.8c-.2-3-.4-5.8-.6-8.5 2.2 2.1 4.4 4.3 6.6 6.4-.8.2-1.7-.1-2.8 0 4.5 5.9 8.9 11.7 13.4 17.6-2 .4-3.8.7-5.9 1 3.7 3.4 7.3 6.6 10.9 9.8.3-.4.2-.8.2-1.1 0-16.9 0-33.8 0-50.7 0-.9-.3-1.6-1-2.2-3.2-2.9-2.2-7.7 1.9-9.1.4-.1 1.1-.7 1.3-.1s.5 1.4-.6 1.9c-1.3.5-2.2 1.5-2.4 3-.2 1.7.7 2.9 2.1 3.6.9.4 1 .9 1 1.7v53.9 14.8c-8.3-10-16.4-19.8-24.6-29.7 2.7-.1 5.3-.2 7.8-.3 1.4 0 1.4 0 .7-1.3-1.8-3.5-3.6-7.1-5.4-10.6-.8-1.5-.7-1.5-2-.5-.1.1-.3.2-.6.4z" fill="#df1717"/><path d="m55.2 23.4c.2.6-.4.5-.7.6-5.2 1.9-6.4 7.2-2.3 11 .4.4.5.7.5 1.2v26.2c-.6-.2-.7-.7-1-1.1-6.1-8.7-12.2-17.5-18.3-26.2-.2-.3-.5-.7-.8-1 2.4-2.7 5.1-4.9 8.3-6.6 4.4-2.5 9.1-4 14.3-4.1z" fill="#b1def7"/><path d="m60.8 71.8c0-5.5 0-11.1 0-16.6 0-6.3 0-12.6 0-18.9 0-1.1.6-1.7 1.3-2.3.5-.5.6.2.8.5 2.7 3.9 5.4 7.7 8.1 11.6 2.1 3 4.2 6 6.3 9 .5.7.5 1.2-.2 1.8-.9.8-1.7 1.7-2.5 2.5-.3.3-.8.5-.5 1 .2.5.7.4 1.1.3.4 0 .8-.1 1.5-.1-3 3.9-5.8 7.6-8.7 11.3-2.4 0-4.8 0-7.2-.1z" fill="#b1def7"/><path d="m55.2 23.4c-5.1.1-9.9 1.7-14.3 4.1-3.1 1.7-5.9 3.9-8.3 6.6-9.1 9.8-11.3 24.7-5.3 36.7.4.8.9 1.1 1.7 1h8.5c.8 0 1.3.2 1.3 1.3-3.1 0-6.1 0-9 0-.4.6.3.8.1 1.2-4.4 0-3.3 1-5.2-3.1-9.9-21.7 3.9-46.7 27.4-50 19.3-2.7 37.5 11.1 40.1 30.4 1 7.6-.3 14.9-3.9 21.7-.4.8-.9 1.2-1.8 1.1-.8-.1-1.7 0-2.5 0-.1 0-.3 0-.4 0-.2-.4.3-.6.1-1.3-2.6 0-5.3 0-8 0-1.2 0-1.4-.3-.6-1.2h8.9c2.5 0 2.5 0 3.4-2.4 5.6-12 2.7-27.2-7.2-36.7-7-6.8-15.4-10-25-9.4z" fill="#df1717"/><path d="m87.3 69.5c-.9 2.4-.9 2.4-3.4 2.4-3 0-5.9 0-8.9 0 1.6-3.1 3.2-6.2 4.7-9.4.4-.8.6-.3 1.1-.1 3.4 1.3 4.4 4.6 6.5 7.1z" fill="#b1def7"/><g fill="#efefef"><path d="m98 43.8c-.5 1.3-1.4 2.1-2.1 3.3 2.1.4 4.1.8 6 1.1.6.1 1.1.1 1.2.8s-.4.8-.8 1c-1.6 1.1-3.2 2.2-4.8 3.2-.2.2-.6.6-.8.2-.2-.3-.3-.8.2-1.1.1 0 .1-.1.2-.1 1.5-.5 1.3-1.6 1-2.7-.1-.6-.4-.9-1.1-1-1.4-.1-2.1-1.9-1.3-3.1.3-.5.7-.9 1-1.3.2-.3.4-.6.5-.9.4-.7.1-1.3-.3-1.8-.3-.5-.8.1-1.2.2-.3.1-.6.2-1 .3s-.7.5-1-.2.1-.7.5-.8c1.8-.7 3.6-1.3 5.3-2 .5-.2.7-.2.9.4.3.9.6 1.8.9 2.6.4 1.1.4 2.1-.7 2.8-1 .5-1.8.2-2.6-.9zm2.6-1.1c0-.9-.9-2.7-1.2-2.6-.5.2-1.4.1-1.5.9-.2.9 1 2.6 1.7 2.7.7 0 1-.4 1-1zm1.1 6.6c-1-.3-1.8-.4-2.7-.5.1.6.2 1.1.2 1.7 0 0 .1 0 .2.1.7-.4 1.4-.8 2.3-1.3z"/><path d="m22 30c .6.9 1.2 1.7 1.7 2.6.3.5 1.1.8.5 1.6-.6.7-1.2 0-1.7-.1-1.1-.2-2.2-.8-3.6-.9 1.2.9 2.2 1.6 3.3 2.4.3.2.8.4.3 1-.4.5-.6.1-.9-.1-1.5-1.1-3-2.2-4.5-3.3-.2-.2-.9-.3-.4-.8.3-.4.4-1.1 1.3-.8 1.2.5 2.5.8 3.7 1.2.3.1.6.2 1.1 0-.9-1.3-1.8-2.7-2.7-3.9-.4-.5-.3-.8 0-1.3.5-.6.8-.1 1.2.1 1.4 1 2.9 2.1 4.3 3.2.3.2.9.3.4.9-.4.6-.7.2-1 0-.9-.7-1.8-1.3-2.8-2-.1 0-.3-.1-.3 0-.2.1 0 .1.1.2z"/><path d="m66.7 13.7c0 .8-.1 1.7-.8 2.4-.4.4-.4.7.1 1 .3.2.6.4.2.8-.3.3-.6.2-.8 0-.6-.7-1.3-.5-2.1-.4-1.7.1-3.4-1.6-3.5-3.6-.1-2.2 1.5-4 3.5-4 1.9 0 3.4 1.5 3.4 3.8zm-3.7 2.8c0-.9.1-1.7 1.3-.9.4.3.7 0 .9-.4.4-.9.6-1.9.2-2.9-.3-.9-1-1.3-1.9-1.4-.8 0-1.5.3-1.9 1-1.1 1.7-.5 3.6 1.4 4.6z"/><path d="m13.1 64.1c1.5.2 2.8-.2 4.1-.3.4 0 .8-.2.9.4.1.7-.3.6-.7.7-1.8.2-3.6.5-5.4.7-.3 0-.7.3-.9-.3-.2-.5 0-.8.3-1.1 1.3-1.1 2.6-2.3 4.2-3.7-1.7.2-3 .3-4.3.5-.4.1-.8.2-.9-.5-.1-.6.4-.6.8-.6 1.8-.2 3.5-.4 5.3-.6.3 0 .8-.4 1 .1s.1.9-.3 1.2c-1.4 1.1-2.7 2.3-4.1 3.5z"/><path d="m34.3 20.2c1.3.2 2.3.8 3.4 1.3-.9.9-.9.8-1.9.4s-2-1.3-3.3-.5c-.6.4-.6.7-.2 1.2s.6 1 1 1.5c.3.4.1.6-.2.8s-.5.2-.7-.1c-1.1-1.7-2.3-3.4-3.4-5.2-.2-.3-.1-.5.1-.7 1-.7 2-1.4 3.1-2 .6-.4 1.3-.3 1.9.2s1 1.2.8 2c-.3.4-.5.7-.6 1.1zm-4.3-.9c.3.5.6.9.9 1.3.2.3.3.5.7.2.6-.4 1.2-.8 1.7-1.3.4-.4.5-.8.2-1.4-.4-.5-.9-.5-1.3-.3-.8.6-1.4 1-2.2 1.5z"/><path d="m16.8 51.7c-1.8-.4-3.7-.8-5.6-1.1-.6-.1-.6-.4-.5-.9.3-1.3.5-2.6.7-3.8.1-.4.3-.5.7-.5.5.1.4.4.4.7-.2.8-.3 1.6-.5 2.5-.1.6-.1 1 .7 1.1.7.1 1.1.1 1.2-.7.1-.7.3-1.3.4-2 .1-.4 0-.9.7-.8s.4.6.4.9c-.1.6-.2 1.2-.3 1.7-.2 1.1.3 1.7 1.4 1.6.6 0 .5-.5.6-.8.2-.9.4-1.8.5-2.7.1-.4.1-.6.6-.5s.5.4.4.7c-.3 1.4-.5 2.7-.8 4.1-.2.5-.5.6-1 .5z"/><path d="m42.1 14.4c0-1.9 1.7-3.4 3.5-3.4s3.5 2 3.5 4.1c0 1.9-1.7 3.4-3.5 3.4-1.9-.1-3.5-2-3.5-4.1zm5.8.7c0-1.7-1-3-2.4-3-1.3 0-2.2.9-2.2 2.3 0 1.7 1 3.1 2.4 3.1 1.3-.1 2.2-1.1 2.2-2.4z"/><path d="m92 31c0 1.7-1.7 2.6-3.1 1.8-1.5-.8-2.3-2.8-1.5-4.1.2-.3.3-.8.8-.5.3.2.6.5.2 1-.3.3-.2.8-.1 1.2.2.7.6 1.3 1.4 1.5.4.1.8.1 1-.2.4-.6 0-1.2-.2-1.8-.3-.7-.7-1.3-.7-2.1 0-1.4 1.3-2.2 2.6-1.7 1.5.7 2.4 2.6 1.7 3.8-.2.3-.4.7-.7.5s-.7-.5-.4-1c .5-.8 0-1.4-.5-2-.4-.4-.9-.5-1.4-.2s-.3.7-.1 1.1c.3 1 1 1.8 1 2.7z"/><path d="m12.7 41.4c0-1.1 1.1-2.6 2.3-2.6.3 0 .8-.2.8.3 0 .3 0 .9-.7.8-.5-.1-.9.3-1.1.7-.3.7-.8 1.5.1 2s1.1-.5 1.5-.9.6-.9.9-1.3c.5-.7 1.2-1 2.1-.7s1.3 1 1.4 1.9c.2 1.8-1.2 3.6-2.7 3.6-.3 0-.8.1-.8-.3 0-.3 0-.8.7-.8 1.2-.1 1.8-1.1 1.7-2.3 0-.4-.1-.8-.5-.9s-.8-.1-1.1.4c-.4.6-.9 1.2-1.3 1.8-.5.8-1.3 1.1-2.2.8-.7-.5-1.2-1.2-1.1-2.5z"/><path d="m103.2 63.6c0 2-1.5 3.5-3.5 3.5-2.2 0-3.9-1.5-3.9-3.5s1.5-3.5 3.5-3.6c2.2.1 3.9 1.7 3.9 3.6zm-3.5 2.3c1.6 0 2.5-.7 2.5-2.2s-1-2.4-2.8-2.4c-1.5 0-2.5.8-2.5 2.2-.1 1.4 1.1 2.4 2.8 2.4z"/><path d="m53.1 17c-1.2 0-2.2-.4-2.6-1.6-.1-.2-.5-.6.1-.8.4-.1.6-.2.9.3.6 1.1 1.7 1.3 2.8.8.4-.2.7-.5.6-1 0-.4-.3-.7-.7-.8-.8-.2-1.6-.4-2.3-.5-.9-.2-1.4-.8-1.5-1.7s.4-1.5 1.2-1.9c1.3-.7 3.1-.3 3.7.8.2.3.5.7 0 1-.4.3-.7.2-.9-.3-.4-.9-1.3-.8-2.1-.6-.5.1-.9.4-.8 1 0 .6.5.6.9.7.6.1 1.2.2 1.7.3 1.1.3 2 .8 1.9 2.1 0 1.1-1 2-2.3 2.1-.2.1-.4.1-.6.1z"/><path d="m27.1 29.1c-1.9 0-3.9-2-3.9-3.9 0-1.8 1.6-3.4 3.4-3.4 1.9 0 3.8 2 3.9 3.9-.1 1.8-1.7 3.4-3.4 3.4zm2.3-3.3c0-1.3-1.6-3-2.9-3-1.1 0-2.1 1.1-2.1 2.2 0 1.4 1.5 3 2.8 3 1.1.1 2.2-1 2.2-2.2z"/><path d="m76.6 18.2c-.5.3-.6.9-.9 1.4-.3.4-.1.6.3.8.8.5 1.6.9 2.4 1.4.4.2.8.4.4 1-.3.5-.7.1-.9-.1-1.3-.7-3.2-1.3-3.6-2.3-.4-1.1 1.2-2.5 1.9-3.8 1.3-2.4 1.4-2.4 3.8-1 .5.3 1 .5 1.4.8.3.2.8.2.5.8-.3.5-.6.3-.9.1-.8-.5-1.6-.8-2.3-1.3s-.8.1-1.1.5c-.2.4-.7.8.1 1.2.7.3 1.4.8 2.1 1.2.3.2.8.2.5.8s-.7.3-1 .1c-1-.6-1.8-1-2.7-1.6z"/><path d="m93.8 71.3c0-1.8 1.2-3.4 2.6-3.4.3 0 .9-.2.9.4.1.5-.2.7-.8.7-1.1.1-1.8 1.1-1.8 2.2 0 .5.2.8.6 1s .7 0 1-.4l1.8-2.1c.5-.6 1.2-.7 1.8-.4.7.3 1.1.8 1.2 1.6.1 1.6-.9 3.3-2.2 3.4-.3 0-.9.2-1-.3 0-.4 0-.9.8-.8.4.1.8-.1 1-.6.3-.7.8-1.5 0-2.1-.9-.6-1.1.5-1.6.9-.3.3-.5.8-.8 1.1-.6.7-1.2 1.2-2.2.8-.8-.3-1.4-1-1.3-2z"/><path d="m84.6 23.7c-1.6 1.6-1.6 1.6.1 3 .4.3.8.6 1.2 1 .2.2.6.4.3.8-.4.5-.6.2-.9-.1-1-.8-2-1.7-3-2.5-.4-.4-.4-.6 0-1 1.3-1.5 2.5-3 3.7-4.5.2-.3.4-.5.8-.1 1 .9 2.1 1.8 3.1 2.6.3.2.6.4.2.8-.3.4-.6.2-.8-.1-.6-.5-1.2-.9-1.7-1.5-.8-.9-1.2-.4-1.7.3-.3.4-.3.7.2 1 .7.5 1.3 1.1 1.9 1.6.3.2.5.4.1.8s-.5.2-.8 0c-1.1-.8-1.9-1.5-2.7-2.1z"/><path d="m67.9 16.3c.2-1.5.9-3.1 1.4-4.8.1-.4.4-.3.7-.2.5.1.5.3.4.7-.4 1.2-.8 2.5-1.2 3.7-.4 1.1-.1 1.9 1.1 2.2 1.1.3 1.7 0 2.1-1.3.4-1.1.7-2.2 1.1-3.3.1-.4.2-.9.8-.7s.4.6.3 1c-.4 1.2-.7 2.5-1.2 3.7-.5 1.4-1.7 2-3 1.7-1.5-.2-2.5-1.1-2.5-2.7z"/><path d="m18.3 65.4c.7.8.4 1.3-.4 1.8-.7.4-1 1-.7 1.8s.4 1.8 1.7 1.7c.3 0 .6 0 .9.1s.4.5.4.8c0 .4-.4.3-.6.3-2.1-.1-4.3-.3-6.4-.4-.4 0-.5-.3-.7-.6-.2-.4 0-.6.3-.8 1.8-1.7 3.6-3.2 5.5-4.7zm-4.3 4.8c1 .3 1.8.3 2.8.2-.4-.6-.3-1.3-.8-1.8-.7.6-1.3 1-2 1.6z"/><path d="m94.5 38c .5-.3.7 0 .8.5.1.6-.4.5-.7.6-1.9.2-3.5-1.5-3.4-3.5.1-1.6 2-3.3 3.8-3.4 1.6-.1 3 1 3.5 2.7.2.7 0 1.3-.4 1.9-.1.2-.3.6-.7.3-.3-.2-.6-.3-.3-.8.6-1 .4-1.8-.4-2.6-.7-.7-1.5-.6-2.3-.2-1 .5-2 1.1-2.1 2.3-.1 1.3.8 2.2 2.2 2.2z"/></g><path d="m45.6 71.8h6.4c1 0 .7.8.7 1.3s.3 1.3-.7 1.2c-1.4 0-2.9.1-4.3 0-1.3-.1-1.5-1.5-2.1-2.5z" fill="#df1717"/><path d="m98 56.1c1.8.6 3.4 1.2 5 1.7.6.2 1 .5.8 1.1-.3.7-.7.1-1 0-1.8-.6-3.6-1.3-5.5-1.9-.4-.1-.7-.2-.7-.7s.2-.7.7-.9c1.8-.8 3.6-1.6 5.4-2.3.3-.1.7-.6.9 0 .2.5.1.9-.5 1.1-1.5.5-2.9 1.1-4.3 1.7-.2-.2-.4-.1-.8.2z" fill="#efefef"/><path d="m60.8 71.8c2.4 0 4.8 0 7.2.1-.9 1.9-2.3 2.8-4.5 2.4-.1 0-.3 0-.4 0-2.4 0-2.4 0-2.3-2.5z" fill="#df1717"/><path d="m14.3 55.8c-.4 0-.8 0-1.1 0-1.8-.1-1.8-.1-2 1.6 0 .4-.1.6-.6.6s-.5-.3-.5-.7c.1-1.6.1-3.1.2-4.7 0-.3.1-.5.4-.5s.5.1.6.5c0 .6-.3 1.5.2 1.8.6.3 1.5.2 2.2.2h2.8c.4 0 .9-.1.9.6 0 .6-.4.6-.8.6-.8.2-1.5.1-2.3 0z" fill="#efefef"/><path d="m35.9 15.7c-.6.2-.7-.1-.8-.4-.2-.3.1-.4.3-.5 1.4-.6 2.9-1.2 4.3-1.8.4-.2.6 0 .8.3.2.4-.1.6-.4.6-1.7.3-1.5 1.3-.9 2.4.5 1 .9 2.2 1.4 3.2.2.4.2.7-.2.9-.5.2-.7-.1-.8-.5-.5-1.3-1.1-2.5-1.6-3.8-.3-1-.8-1.3-1.7-.7-.2.2-.4.3-.4.3z" fill="#efefef"/><path d="m100.6 42.7c-.1.6-.3 1-1 1s-1.8-1.7-1.7-2.7c.1-.7 1-.6 1.5-.9.3-.1 1.2 1.7 1.2 2.6z" fill="#353534"/><path d="m101.7 49.3c-.8.5-1.6 1-2.2 1.4-.1-.1-.2-.1-.2-.1-.1-.6-.2-1.1-.2-1.7.8-.1 1.6 0 2.6.4z" fill="#353534"/><path d="m22 30c-.1 0-.2-.1-.1-.2h.3c-.1 0-.2.1-.2.2z" fill="#161514"/><path d="m63 16.5c-2-.9-2.6-2.8-1.5-4.6.4-.7 1.1-1 1.9-1 .9.1 1.6.5 1.9 1.4.4 1 .2 2-.2 2.9-.2.4-.4.7-.9.4-1-.9-1.1 0-1.2.9z" fill="#161514"/><path d="m30 19.3c.8-.5 1.4-1 2.1-1.4.5-.3 1-.2 1.3.3.4.5.2 1-.2 1.4-.5.5-1.2.8-1.7 1.3-.4.3-.5.1-.7-.2-.2-.5-.5-.9-.8-1.4z" fill="#353534"/><path d="m47.9 15.1c0 1.4-.9 2.4-2.2 2.4s-2.3-1.3-2.4-3.1c0-1.4.9-2.4 2.2-2.3 1.4-.1 2.4 1.2 2.4 3z" fill="#161514"/><path d="m99.7 65.9c-1.7 0-2.9-1-2.8-2.4 0-1.4 1.1-2.2 2.5-2.2 1.8 0 2.8.9 2.8 2.4s-.9 2.3-2.5 2.2z" fill="#161514"/><path d="m29.4 25.8c0 1.2-1.1 2.3-2.2 2.3-1.4 0-2.9-1.6-2.8-3 0-1.2 1-2.2 2.1-2.2 1.2-.1 2.9 1.6 2.9 2.9z" fill="#161514"/><path d="m14 70.2c.7-.6 1.3-1.1 2-1.6.6.5.4 1.2.8 1.8-1 .1-1.8.1-2.8-.2z" fill="#353534"/></svg>