<?xml version="1.0" encoding="utf-8"?>
<!-- Generator: Adobe Illustrator 23.0.1, SVG Export Plug-In . SVG Version: 6.00 Build 0)  -->
<svg version="1.1" id="Capa_1" xmlns="http://www.w3.org/2000/svg" xmlns:xlink="http://www.w3.org/1999/xlink" x="0px" y="0px"
	 viewBox="0 0 558.4 558.4" style="enable-background:new 0 0 558.4 558.4;" xml:space="preserve">
<style type="text/css">
	.st0{fill:#B31917;}
	.st1{fill:#69180B;}
	.st2{fill:#EA5B12;}
	.st3{fill:#FFFFFF;}
	.st4{enable-background:new    ;}
</style>
<title>JAAN STAAR VERSION 2</title>
<circle class="st0" cx="279.2" cy="279.2" r="279.2"/>
<circle class="st1" cx="279.2" cy="279.2" r="269.6"/>
<circle class="st0" cx="279.2" cy="279.2" r="258.3"/>
<circle class="st1" cx="279.2" cy="279.2" r="231.7"/>
<path class="st2" d="M278.4,387.9l-4.9-43c-3.8-33-7.5-66-11.3-99c-1.8-15.9-3.8-31.8-5.5-47.6c-0.5-4.6,1.5-8.8,2.6-13.1
	c6.3-25.4,12.5-50.8,18.8-76.2c0.4-1.6,1.3-3.1,2.6-4.2c2.3,9.6,4.6,19.3,6.9,28.9c4.7,19.5,9.2,39.1,14,58.5
	c2.4,9.9-0.6,19.3-1.7,28.8c-3.9,33.4-8.3,66.7-12.4,100c-2.6,21-5.2,42.1-7.8,63.1C279.3,385.5,278.9,386.7,278.4,387.9z"/>
<path class="st3" d="M150.1,164.2c4.3,2.7,8.6,5.4,13,8.1c13.7,8.6,27.3,17.3,41,25.8c2.3,1.4,4,3.6,4.6,6.2
	c14.8,50.8,29.7,101.5,44.6,152.2c0.5,1.7,1.1,3.3,0.4,5.2L149.5,164.8L150.1,164.2z"/>
<path class="st3" d="M303.2,360.8c12-40.8,24-81.5,36-122.3c3.4-11.5,6.7-23,10.1-34.6c0.5-2.3,1.9-4.2,3.9-5.5
	c17.8-11.1,35.5-22.4,53.3-33.5c0.8-0.3,1.5-0.6,2.4-0.8L304.3,361.4L303.2,360.8z"/>
<path class="st2" d="M299.2,429c-4.9,6.6-10.3,14-15.9,21.2c-2.2,2.8-5.3,3.3-7.9,0.3c-5.5-6.5-10.9-13-16.3-19.5
	c-3-3.6-2.9-7.1,0-10.9c4.8-6,9.2-12.3,13.9-18.5c3.6-4.8,5.9-4.9,9.9-0.3c5.2,5.9,10.1,12,15.2,18.1
	C300.4,422,301.5,424.9,299.2,429z"/>
<path class="st3" d="M350.5,388.3c-5,6.6-10.3,14-15.9,21.2c-2.2,2.9-5.3,3.3-7.9,0.3c-5.5-6.4-10.9-13-16.3-19.5
	c-3-3.6-2.9-7.1,0-10.8c4.8-6,9.2-12.3,13.9-18.5c3.6-4.8,5.9-4.9,9.9-0.3c5.2,5.9,10.1,12,15.2,18.1
	C351.6,381.3,352.7,384.2,350.5,388.3z"/>
<path class="st3" d="M248.9,388.3c-4.9,6.6-10.3,14-15.9,21.2c-2.2,2.9-5.3,3.3-7.9,0.3c-5.5-6.4-10.9-13-16.3-19.5
	c-3-3.6-2.9-7.1,0-10.8c4.8-6,9.2-12.3,13.9-18.5c3.6-4.8,5.9-4.9,9.9-0.3c5.2,5.9,10.1,12,15.2,18.1
	C250,381.3,251.1,384.2,248.9,388.3z"/>
<g class="st4">
	<path class="st3" d="M142.9,112l4.8,5.6c1.8,2.1,3,4.3,3.8,6.8c0.8,2.5,1.1,5,0.9,7.5c-0.2,2.5-0.9,4.9-2,7.3
		c-1.2,2.4-2.8,4.4-4.8,6.2l-5.4-6.3c1.2-1,2.1-2.2,2.8-3.6c0.7-1.4,1.1-2.8,1.2-4.2c0.1-1.4-0.1-2.9-0.5-4.3
		c-0.4-1.4-1.2-2.8-2.2-4l-4.8-5.6l-3.4,2.9l-5.4-6.3l12.7-10.9l5.4,6.3L142.9,112z"/>
</g>
<g class="st4">
	<path class="st3" d="M180.5,118.2l-3.1-1.9L166,124l0.6,3.6l-7.7,5.1l-6.4-41.2l35.7,21.5L180.5,118.2z M163.5,108l1.2,7.6l5.4-3.6
		L163.5,108z"/>
</g>
<g class="st4">
	<path class="st3" d="M212,102.9l-2.7-2.4l-12.6,5.4l-0.1,3.7l-8.5,3.6l1.3-41.7l31.1,27.8L212,102.9z M197.1,89.6l-0.3,7.6l5.9-2.5
		L197.1,89.6z"/>
</g>
<g class="st4">
	<path class="st3" d="M225.4,77.5l4.2,19.8l-8.1,1.7l-8.1-37.8l30.5,17.1L241.5,67l-3.7,0.8l-1.7-8.2l11.8-2.5l8.1,37.6L225.4,77.5z
		"/>
</g>
<g class="st4">
	<path class="st3" d="M301.3,85.2c-0.7,1.3-1.5,2.5-2.6,3.4c-1.1,1-2.3,1.7-3.7,2.2c-1.4,0.5-2.9,0.7-4.4,0.6l-10.4-0.6l0.5-8.3
		l10.4,0.6c0.8,0,1.6-0.2,2.2-0.8c0.6-0.5,0.9-1.2,1-2c0-0.8-0.2-1.6-0.7-2.2s-1.2-0.9-2.1-1H291c-1.9-0.1-3.6-0.5-5.2-1.2
		s-2.9-1.7-4-2.9c-0.9-1-1.6-2.2-2-3.4c-0.4-1.2-0.6-2.6-0.5-4s0.4-2.7,1-4s1.4-2.5,2.6-3.5c1.1-1,2.6-1.8,4.4-2.3
		c1.8-0.6,3.9-0.8,6.5-0.6c0.8,0,1.7,0.1,2.6,0.3c0.9,0.1,1.8,0.3,2.7,0.4c0.9,0.2,1.7,0.3,2.5,0.5s1.4,0.4,1.9,0.6l-3,7.8
		c-0.3-0.1-0.6-0.2-1.2-0.3c-0.5-0.1-1.1-0.2-1.8-0.4c-0.7-0.1-1.4-0.2-2.1-0.3s-1.5-0.2-2.1-0.2s-1.2,0-1.8,0
		c-0.6,0-1.2,0.1-1.8,0.2c-0.6,0.1-1,0.4-1.4,0.8s-0.6,0.9-0.6,1.6c0,0.5,0.1,0.9,0.4,1.2s0.6,0.6,1,0.8c0.4,0.2,0.8,0.4,1.3,0.5
		s0.9,0.2,1.2,0.2h0.5c1.5,0.1,3,0.5,4.3,1.1c1.3,0.7,2.5,1.5,3.5,2.6s1.7,2.3,2.2,3.8c0.5,1.4,0.7,2.9,0.6,4.5
		C302.3,82.5,302,83.9,301.3,85.2z"/>
</g>
<g class="st4">
	<path class="st3" d="M327,69.6l-5.7,26.5l-8.1-1.7l5.7-26.5l-9.1-2l1.7-8.2l26.2,5.6l-1.7,8.2L327,69.6z"/>
</g>
<g class="st4">
	<path class="st3" d="M350.1,105.1l-0.3-3.6l-12.9-4.7l-2.6,2.6l-8.7-3.1L355,66.7l3.7,41.5L350.1,105.1z M348.3,85.2l-5.4,5.4
		l6.1,2.2L348.3,85.2z"/>
</g>
<g class="st4">
	<path class="st3" d="M380.9,121.4l0.3-3.6l-11.8-7l-3,2.1l-7.9-4.7l34.4-23.5l-4.1,41.4L380.9,121.4z M382.9,101.6l-6.3,4.3
		l5.6,3.3L382.9,101.6z"/>
</g>
<g class="st4">
	<path class="st3" d="M404.8,139.9l1.5-14.5l-0.2-0.2l-0.1-0.1l0,0c-0.4-0.4-0.8-0.7-1.1-1c-0.3-0.3-0.6-0.7-1-1.1l-7.9,9.4
		l-6.3-5.3l17.5-20.7l-2.8-2.4l5.4-6.4l12.8,10.8c1.3,1.1,2.4,2.3,3.2,3.7c0.8,1.4,1.4,2.8,1.7,4.3c0.3,1.5,0.2,3-0.2,4.5
		s-1.1,2.9-2.3,4.3c-1.4,1.6-3,2.8-4.9,3.4c-1.9,0.7-3.8,0.8-5.9,0.4l-1.5,17.3L404.8,139.9z M419.1,118.5c0-0.5,0-0.9-0.2-1.3
		s-0.4-0.9-0.8-1.3c-0.3-0.4-0.7-0.8-1.1-1.1l-3.7-3.1l-4.1,4.9c0.5,0.8,1.2,1.5,2.1,2.2c0.5,0.4,1,0.8,1.6,1.2
		c0.6,0.4,1.2,0.7,1.9,0.9c0.7,0.2,1.3,0.2,1.9,0.1s1.2-0.5,1.7-1.1C418.9,119.5,419.1,119,419.1,118.5z"/>
</g>
<g class="st4">
	<path class="st3" d="M185.6,482.6l-6.1-20v-0.1l-6.8,13.7l-7.4-3.7l12-24.2l-3.4-1.7l3.7-7.5l10.8,5.4l-6.5,13h0.1l21.3-7.9
		l2.9,7.8l-17.6,6.5l7.2,23.8L185.6,482.6z"/>
</g>
<g class="st4">
	<path class="st3" d="M203.9,490l2.5-7.9l3.7,1.2l5.6-17.8l-3.7-1.2l2.5-7.9l15.2,4.8l-2.5,7.9l-3.7-1.2l-5.6,17.8l3.7,1.2l-2.5,7.9
		L203.9,490z"/>
</g>
<g class="st4">
	<path class="st3" d="M228.5,497.2l1.6-8.2l3.8,0.7l3.6-18.4l-3.8-0.7l1.6-8.2l15.7,3l-1.6,8.2l-3.8-0.7l-3.6,18.4l3.8,0.7l-1.6,8.2
		L228.5,497.2z"/>
</g>
<g class="st4">
	<path class="st3" d="M284.3,494.5c-0.9,1.8-2,3.4-3.4,4.7c-1.4,1.3-3.1,2.3-4.9,3.1c-1.9,0.7-3.9,1.1-6,1s-4.1-0.5-5.9-1.4
		s-3.4-2-4.7-3.4c-1.3-1.4-2.3-3.1-3.1-5s-1.1-3.9-1-6l0.8-21l8.3,0.3l-0.8,21c0,1,0.1,1.9,0.5,2.7c0.3,0.8,0.8,1.6,1.4,2.2
		s1.3,1.2,2.1,1.6c0.8,0.4,1.7,0.6,2.7,0.7c0.9,0,1.8-0.1,2.7-0.5c0.9-0.3,1.6-0.8,2.3-1.4c0.6-0.6,1.2-1.3,1.6-2.1
		c0.4-0.8,0.6-1.7,0.7-2.7l0.5-12.7l-3.8-0.1l0.3-8.3l12,0.4l-0.8,21C285.6,490.7,285.2,492.7,284.3,494.5z"/>
</g>
<g class="st4">
	<path class="st3" d="M308,473.3l3.5,26.8l-8.2,1.1l-3.5-26.8l-9.2,1.2l-1.1-8.3l26.6-3.5l1.1,8.3L308,473.3z"/>
</g>
<g class="st4">
	<path class="st3" d="M345.8,492.3l-2.4-2.8l-13.2,3.6l-0.6,3.6l-8.9,2.4l7-41.1l27,31.7L345.8,492.3z M332.8,477.2l-1.3,7.5
		l6.2-1.7L332.8,477.2z"/>
</g>
<g class="st4">
	<path class="st3" d="M360.6,465.3l8.9,18.1l-7.4,3.6l-17-34.7l33.7,9.2l-5.1-10.4l-3.4,1.7l-3.7-7.5l10.8-5.3l16.9,34.5
		L360.6,465.3z"/>
</g>
</svg>
