<?xml version="1.0" encoding="UTF-8"?>
<svg id="uuid-986d844f-05cb-4abe-8790-4b5a7fcf6aab" xmlns="http://www.w3.org/2000/svg" version="1.1" viewBox="0 0 566.9 566.9">
  <!-- Generator: Adobe Illustrator 29.1.0, SVG Export Plug-In . SVG Version: 2.1.0 Build 142)  -->
  <defs>
    <style>
      .st0 {
        fill: #fff;
      }

      .st1 {
        fill: #35495e;
      }

      .st2 {
        fill: #be1622;
      }

      .st3 {
        isolation: isolate;
      }

      .st4 {
        fill: #f1c410;
      }
    </style>
  </defs>
  <path class="st1" d="M284.4,4.3c-.3,0-.6,0-.9,0-154.1,0-279.1,125-279.1,279.1s125,279.1,279.1,279.1.6,0,.9,0c153.7-.5,278.2-125.3,278.2-279.1S438.1,4.9,284.4,4.3Z"/>
  <path class="st2" d="M284.2,75.2h-.7c-115.1,0-208.3,93.3-208.3,208.3s93.3,208.3,208.3,208.3h.7c114.7-.4,207.6-93.5,207.6-208.3s-92.9-207.9-207.6-208.3h0Z"/>
  <path class="st4" d="M480.9,86c52.7,52.7,81.8,122.9,81.8,197.4s-29,144.7-81.8,197.4c-52.7,52.7-122.9,81.8-197.4,81.8s-144.7-29-197.4-81.8C33.3,428.2,4.2,358,4.2,283.5s29-144.7,81.8-197.4C138.8,33.3,208.9,4.3,283.5,4.3s144.7,29,197.4,81.8h0ZM556.7,283.5c0-150.6-122.6-273.2-273.2-273.2S10.2,132.8,10.2,283.5s122.6,273.2,273.2,273.2,273.2-122.6,273.2-273.2Z"/>
  <g>
    <g class="st3">
      <g class="st3">
        <path class="st0" d="M59.4,240.1c1.1.2,2,.5,2.9,1,.9.5,1.6,1.2,2.1,2,.6.9,1,2,1.2,3.2.2,1.2.1,2.5-.1,3.9-.2,1.1-.4,2.1-.6,3-.2.9-.5,1.8-.8,2.4l-4.9-.8v-.6c.4-.5.6-.9.9-1.5.3-.5.5-1.2.6-2,.2-1.1.2-1.9,0-2.6-.2-.6-.6-1.1-1.1-1.4-.5-.3-1.1-.6-1.8-.7-.7-.1-1.5-.3-2.3-.4l-9.8-1.6-.9,5.6-4.4-.7,1.9-11.7,17.2,2.8Z"/>
      </g>
    </g>
    <g class="st3">
      <g class="st3">
        <path class="st0" d="M66.7,239.6l-21.9-14.2,1.7-6.6,26-2-1.6,6.2-5.3.3-1.9,7.5,4.5,2.7-1.5,6ZM60.9,223.5l-8.5.4,7.3,4.4,1.2-4.9Z"/>
      </g>
    </g>
    <g class="st3">
      <g class="st3">
        <path class="st0" d="M81.9,191.5l-2.2,5.8-15.3-5.8,8.3,8-1.5,4-11.5.4,15.3,5.8-2.1,5.5-23.1-8.8,2.5-6.7,13.4-.8-9.5-9.4,2.5-6.7,23.1,8.8Z"/>
      </g>
    </g>
    <g class="st3">
      <g class="st3">
        <path class="st0" d="M89.5,176.5l-6,11.9-3.9-1.9,1.6-3.2-14.4-7.2-1.6,3.2-3.9-1.9,6-11.9,3.9,1.9-1.6,3.2,14.4,7.2,1.6-3.2,3.9,1.9Z"/>
      </g>
    </g>
    <g class="st3">
      <g class="st3">
        <path class="st0" d="M91.2,173.3l-21.1-12.8,8.7-14.3,4,2.4-5.5,9,3.7,2.2,5-8.3,4,2.4-5,8.3,5.3,3.2,5.5-9,4,2.4-8.7,14.3Z"/>
      </g>
    </g>
    <g class="st3">
      <g class="st3">
        <path class="st0" d="M105.9,150.2l-13.9-22.1,4.3-5.2,24.4,9.2-4,5-4.9-2-4.9,6,2.9,4.4-3.9,4.8ZM107.5,133.2l-7.9-3.2,4.7,7.1,3.2-3.9Z"/>
      </g>
    </g>
    <g class="st3">
      <g class="st3">
        <path class="st0" d="M138.3,114.6l-5.4,5.3-11.3-1.6-1.6,1.6,6.4,6.4-4.4,4.4-17.4-17.5,7-7c1-1,1.9-1.7,2.7-2.3.8-.6,1.8-1,2.8-1.2,1-.2,2-.2,3,0,1,.2,1.9.8,2.9,1.8,1.3,1.3,2.1,2.7,2.3,4.2.2,1.4,0,2.9-.4,4.4l13.3,1.6ZM119.1,109.5c-.4-.4-.9-.7-1.4-.9-.5-.1-1-.1-1.6.1-.4.2-.8.4-1.1.7-.4.3-.8.7-1.3,1.2l-1.5,1.5,4.7,4.7,1.3-1.3c.6-.6,1.1-1.2,1.4-1.7.4-.5.6-1,.6-1.6,0-.5,0-1-.2-1.4s-.5-.9-1-1.4Z"/>
      </g>
    </g>
    <g class="st3">
      <g class="st3">
        <path class="st0" d="M137.3,115.6l-9-24.5,5.3-4.3,22,14-5,4-4.4-3-6,4.9,2,4.9-4.8,3.9ZM142.3,99.3l-7.1-4.8,3.2,7.9,3.9-3.2Z"/>
      </g>
    </g>
    <g class="st3">
      <g class="st3">
        <path class="st0" d="M174.9,88.4l-5,3.2-17.3-9.4,9.3,14.5-4.8,3.1-13.4-20.8,6.4-4.1,14.3,7.7-7.7-11.9,4.8-3.1,13.4,20.8Z"/>
      </g>
    </g>
    <g class="st3">
      <g class="st3">
        <path class="st0" d="M183,84.2l-9-17.9-6.5,3.3-2.1-4.2,18.6-9.4,2.1,4.2-6.5,3.3,9,17.9-5.5,2.8Z"/>
      </g>
    </g>
    <g class="st3">
      <g class="st3">
        <path class="st0" d="M196.9,77.4l-9.1-23,15.6-6.1,1.7,4.4-9.8,3.9,1.6,4,9-3.6,1.7,4.4-9,3.6,2.3,5.8,9.8-3.9,1.7,4.4-15.6,6.1Z"/>
      </g>
    </g>
    <g class="st3">
      <g class="st3">
        <path class="st0" d="M223.4,68.4c-1.8.5-3.5.8-4.9.9s-2.9,0-4.2-.2l-1.6-5.6.5-.2c1.5.7,3,1.1,4.6,1.2,1.6.1,3.1,0,4.4-.4.3,0,.8-.3,1.3-.5.5-.2,1-.5,1.2-.7.4-.3.6-.7.8-1.1.2-.4.2-.9,0-1.4-.2-.6-.5-1-1.1-1.2-.6-.2-1.2-.3-1.9-.3-.9,0-1.8,0-2.8.1-1,0-1.9,0-2.8,0-2-.1-3.6-.6-4.7-1.5-1.1-.9-1.9-2.1-2.4-3.8-.6-2.2-.2-4.3,1.3-6.2s3.6-3.3,6.5-4.1c1.4-.4,2.9-.7,4.3-.8,1.5-.1,2.8,0,4.1,0l1.6,5.4-.5.2c-1.1-.5-2.4-.8-3.8-1-1.4-.2-2.8,0-4.1.3-.5.2-1,.3-1.4.5-.4.2-.8.5-1.2.8-.3.3-.6.6-.7,1-.2.4-.2.8,0,1.2.2.6.5,1,1.1,1.3s1.5.3,2.8.2c.9,0,1.7,0,2.5-.1.8,0,1.6,0,2.6,0,1.8.1,3.3.6,4.4,1.3,1.1.8,1.9,2,2.4,3.6.7,2.4.3,4.5-1.1,6.5-1.4,2-3.7,3.4-6.9,4.3Z"/>
      </g>
    </g>
    <g class="st3">
      <g class="st3">
        <path class="st0" d="M254.6,52.6l-10.9,1.7-.7-4.6,10.9-1.7.7,4.6Z"/>
      </g>
    </g>
    <g class="st3">
      <g class="st3">
        <path class="st0" d="M290.6,59.1h-6c0,.1-9.9-16.9-9.9-16.9l.3,17.2h-5.7c0,.1-.5-24.6-.5-24.6h7.6c0-.1,8.2,13.9,8.2,13.9l-.3-14.2h5.7c0-.1.5,24.6.5,24.6Z"/>
      </g>
    </g>
    <g class="st3">
      <g class="st3">
        <path class="st0" d="M294.9,59.4l2.1-24.6,16.7,1.4-.4,4.7-10.5-.9-.4,4.3,9.7.8-.4,4.7-9.7-.8-.5,6.2,10.5.9-.4,4.7-16.7-1.4Z"/>
      </g>
    </g>
    <g class="st3">
      <g class="st3">
        <path class="st0" d="M319.9,62.2l3.5-19.7-7.2-1.3.8-4.6,20.5,3.7-.8,4.6-7.2-1.3-3.5,19.7-6.1-1.1Z"/>
      </g>
    </g>
    <g class="st3">
      <g class="st3">
        <path class="st0" d="M357.1,71.4l-7.3-2.1-4.1-10.6-2.1-.6-2.5,8.7-5.9-1.7,6.8-23.8,9.6,2.7c1.3.4,2.4.8,3.4,1.2.9.4,1.7,1,2.4,1.8.7.8,1.2,1.7,1.4,2.6.3,1,.2,2.1-.2,3.4-.5,1.8-1.4,3.2-2.5,4.1-1.1.9-2.5,1.5-4.1,1.8l5.1,12.4ZM352.2,52.1c.2-.6.2-1.1,0-1.6-.1-.5-.4-.9-.9-1.3-.3-.3-.7-.5-1.2-.7-.4-.2-1-.4-1.7-.6l-2-.6-1.8,6.4,1.7.5c.8.2,1.5.4,2.2.5.6,0,1.2,0,1.7-.2.5-.2.9-.5,1.2-.8.3-.4.6-.9.7-1.5Z"/>
      </g>
    </g>
    <g class="st3">
      <g class="st3">
        <path class="st0" d="M383.6,69.1c-1.5,3.7-3.7,6.2-6.6,7.5-2.9,1.3-6,1.2-9.4-.2-3.4-1.4-5.7-3.6-6.8-6.6-1.1-3-.9-6.3.7-9.9,1.5-3.7,3.7-6.2,6.6-7.5,2.8-1.3,6-1.3,9.4.2,3.4,1.4,5.7,3.6,6.8,6.5,1.1,2.9.9,6.3-.7,9.9ZM377.7,66.6c.6-1.4.9-2.6,1-3.6s0-2-.2-2.8c-.2-.8-.6-1.5-1.1-2-.5-.5-1.1-.9-1.8-1.2-.7-.3-1.4-.4-2.1-.4-.7,0-1.4.2-2.2.7-.7.4-1.4,1-2.1,1.9-.7.9-1.3,2-1.9,3.3-.6,1.4-.9,2.6-1,3.7-.1,1,0,2,.2,2.8.2.8.6,1.5,1.1,2.1.5.5,1.1.9,1.8,1.2.7.3,1.4.4,2.1.4.8,0,1.5-.3,2.2-.7.8-.5,1.5-1.1,2.1-1.9s1.2-1.9,1.8-3.3Z"/>
      </g>
    </g>
    <g class="st3">
      <g class="st3">
        <path class="st0" d="M392.5,87.9l-11.8-6.2,2-3.8,3.1,1.7,7.6-14.2-3.1-1.7,2-3.8,11.8,6.3-2,3.8-3.1-1.7-7.6,14.2,3.1,1.7-2,3.8Z"/>
      </g>
    </g>
    <g class="st3">
      <g class="st3">
        <path class="st0" d="M420.8,91.4c-1.3,1.9-2.8,3.4-4.7,4.3-1.8,1-3.7,1.4-5.5,1.4-1.5,0-3-.3-4.4-1-1.4-.6-2.8-1.4-4.2-2.4l-6.5-4.3,13.6-20.6,6.4,4.2c1.5,1,2.7,1.9,3.9,3,1.1,1,2,2.2,2.7,3.7.8,1.8,1.1,3.6.9,5.6-.2,2-.9,4-2.3,6ZM415.5,87.9c.9-1.4,1.4-2.7,1.6-3.9.2-1.3,0-2.5-.7-3.7-.4-.9-1-1.5-1.8-2.1s-1.7-1.2-2.7-1.9h0c0,0-8.5,12.9-8.5,12.9h0c1.2.8,2.2,1.5,3,1.9.8.5,1.7.7,2.8.8,1.2,0,2.3-.3,3.4-.9,1.1-.7,2-1.7,2.9-3Z"/>
      </g>
    </g>
    <g class="st3">
      <g class="st3">
        <path class="st0" d="M439.4,123.7l-4.6-4.2,7.4-8.1-6.2-5.7-7.4,8.1-4.6-4.2,16.7-18.2,4.6,4.2-6.1,6.7,6.2,5.7,6.1-6.7,4.6,4.2-16.7,18.2Z"/>
      </g>
    </g>
    <g class="st3">
      <g class="st3">
        <path class="st0" d="M440.7,125l24.1-10.1,4.5,5.1-13,22.6-4.2-4.8,2.8-4.5-5.1-5.8-4.8,2.2-4.1-4.7ZM457.2,129.3l4.5-7.3-7.8,3.5,3.3,3.8Z"/>
      </g>
    </g>
    <g class="st3">
      <g class="st3">
        <path class="st0" d="M469.5,161.4l-3.4-4.9,8.6-17.7-14.1,9.9-3.3-4.6,20.2-14.2,4.4,6.2-7,14.6,11.6-8.2,3.3,4.6-20.2,14.2Z"/>
      </g>
    </g>
    <g class="st3">
      <g class="st3">
        <path class="st0" d="M493.2,178.5c-2,1.1-4.1,1.7-6.1,1.6-2.1,0-3.9-.5-5.5-1.3-1.3-.7-2.5-1.7-3.4-2.9s-1.8-2.6-2.6-4.1l-3.7-6.8,21.7-11.9,3.7,6.7c.8,1.5,1.5,3,2.1,4.4.5,1.4.7,2.9.6,4.5-.1,1.9-.7,3.7-1.8,5.4-1.1,1.7-2.7,3.1-4.8,4.2ZM490.2,172.9c1.4-.8,2.5-1.7,3.3-2.7.7-1,1.1-2.2,1.1-3.6,0-1-.2-1.9-.6-2.7s-.9-1.8-1.5-2.9h0c0-.1-13.6,7.3-13.6,7.3h0c.7,1.3,1.3,2.3,1.8,3.2.5.8,1.2,1.5,2.1,2,1.1.6,2.2.8,3.4.8,1.2,0,2.6-.5,4-1.3Z"/>
      </g>
    </g>
    <g class="st3">
      <g class="st3">
        <path class="st0" d="M490,202.5l-6.5-15.2,22.7-9.7,2.4,5.7-18.4,7.9,4,9.5-4.3,1.9Z"/>
      </g>
    </g>
    <g class="st3">
      <g class="st3">
        <path class="st0" d="M490.8,204.8l23.5-7.7,5.2,15.9-4.5,1.5-3.3-10-4.1,1.3,3,9.2-4.5,1.5-3-9.2-5.9,1.9,3.3,10-4.5,1.5-5.2-15.9Z"/>
      </g>
    </g>
    <g class="st3">
      <g class="st3">
        <path class="st0" d="M501.9,246.5l-1.6-7.4,7.4-8.7-.5-2.2-8.9,2-1.3-6,24.1-5.3,2.1,9.7c.3,1.3.5,2.5.5,3.6,0,1,0,2-.4,3-.4,1-.9,1.8-1.6,2.5-.7.7-1.8,1.2-3.1,1.5-1.8.4-3.4.3-4.8-.3-1.3-.6-2.5-1.5-3.5-2.7l-8.5,10.4ZM516.5,233.1c.6-.1,1.1-.4,1.5-.7.4-.3.6-.8.8-1.4,0-.4,0-.9,0-1.3,0-.5-.2-1.1-.3-1.7l-.4-2-6.5,1.4.4,1.7c.2.8.4,1.5.6,2.1.2.6.6,1,1,1.4.4.3.8.5,1.3.6.5,0,1,0,1.7,0Z"/>
      </g>
    </g>
  </g>
  <g>
    <g class="st3">
      <g class="st3">
        <path class="st0" d="M100.2,450.3l14.8-14.3-5.2-5.4,3.5-3.4,14.9,15.4-3.5,3.4-5.2-5.4-14.8,14.3-4.4-4.6Z"/>
      </g>
    </g>
    <g class="st3">
      <g class="st3">
        <path class="st0" d="M138.8,468.4c-2.7,3.1-5.6,4.9-8.8,5.3-3.2.4-6.3-.7-9.2-3.2-2.9-2.5-4.5-5.3-4.6-8.6-.1-3.2,1.1-6.4,3.8-9.5,2.6-3.1,5.6-4.9,8.8-5.3,3.2-.4,6.3.6,9.2,3.1,2.9,2.5,4.5,5.3,4.6,8.6.1,3.2-1.1,6.4-3.8,9.5ZM133.8,464.1c1-1.2,1.7-2.2,2.1-3.3.5-1,.7-2,.7-2.8,0-.9-.1-1.7-.4-2.3-.3-.7-.8-1.3-1.3-1.7-.6-.5-1.2-.9-1.9-1.1-.7-.2-1.5-.2-2.4,0-.8.2-1.7.6-2.7,1.2-1,.6-1.9,1.5-2.9,2.7-1,1.2-1.7,2.3-2.2,3.3-.4,1-.7,1.9-.7,2.8,0,.9.1,1.7.4,2.4.3.7.8,1.3,1.3,1.7.6.5,1.2.8,2,1,.7.2,1.5.2,2.4,0,.9-.2,1.8-.6,2.6-1.2.9-.6,1.8-1.4,2.8-2.7Z"/>
      </g>
    </g>
    <g class="st3">
      <g class="st3">
        <path class="st0" d="M154.5,494.5l-6.5-4.4-.6-11.7-1.9-1.3-5.2,7.7-5.3-3.6,14.3-21.1,8.5,5.7c1.2.8,2.1,1.6,2.9,2.3.8.7,1.4,1.6,1.8,2.5.4,1,.6,2,.6,3.1s-.5,2.1-1.2,3.3c-1.1,1.6-2.3,2.7-3.8,3.2-1.4.5-2.9.7-4.5.4l1,13.8ZM155.8,474.1c.4-.5.6-1.1.6-1.6,0-.5,0-1-.4-1.6-.2-.4-.5-.7-.9-1-.4-.3-.9-.7-1.5-1.1l-1.8-1.2-3.8,5.7,1.5,1c.7.5,1.4.9,2,1.1.6.3,1.1.4,1.7.3.5,0,1-.2,1.4-.4.4-.3.8-.7,1.2-1.3Z"/>
      </g>
    </g>
    <g class="st3">
      <g class="st3">
        <path class="st0" d="M166.9,501.7c-3.4-1.8-5.5-4.3-6.4-7.4-.9-3.1-.3-6.5,1.7-10.2,1.9-3.5,4.4-5.8,7.6-6.9,3.1-1,6.4-.7,9.7,1.2.9.5,1.7,1,2.3,1.5.7.5,1.3,1,1.8,1.5.4.4.9.9,1.3,1.5.5.6.8,1.1,1.1,1.5l-2.9,5.3-.6-.3c-.1-.4-.3-.9-.6-1.4-.2-.6-.5-1.1-.9-1.7-.3-.6-.8-1.2-1.3-1.8-.5-.6-1.1-1-1.8-1.4-.8-.4-1.6-.7-2.4-.8-.8-.1-1.7,0-2.7.3-.9.3-1.7.8-2.6,1.6-.9.8-1.7,1.8-2.4,3.2-.8,1.4-1.2,2.7-1.3,3.8-.1,1.1,0,2.2.2,3.1.3.9.7,1.6,1.3,2.3.6.6,1.2,1.1,1.9,1.5.7.4,1.5.7,2.3.8.8.1,1.5.2,2.1,0,.7,0,1.3-.1,1.8-.2.6-.1,1-.2,1.5-.3l.5.3-2.8,5.3c-.5,0-1.1,0-1.8-.1-.7,0-1.3-.1-2-.3-.8-.2-1.6-.4-2.2-.6-.7-.2-1.5-.6-2.6-1.2Z"/>
      </g>
    </g>
    <g class="st3">
      <g class="st3">
        <path class="st0" d="M199.4,515.8l-5.9-2.4,4.3-10.4-8-3.3-4.3,10.4-5.9-2.4,9.7-23.5,5.9,2.4-3.6,8.6,8,3.3,3.6-8.6,5.9,2.4-9.7,23.5Z"/>
      </g>
    </g>
    <g class="st3">
      <g class="st3">
        <path class="st0" d="M222,522.9l-16.3-4.9,7.4-24.3,6.1,1.9-6,19.7,10.1,3.1-1.4,4.6Z"/>
      </g>
    </g>
    <g class="st3">
      <g class="st3">
        <path class="st0" d="M238.4,526.6l-13.4-3,1-4.3,3.6.8,3.6-16.2-3.6-.8,1-4.3,13.4,3-1,4.3-3.6-.8-3.6,16.2,3.6.8-1,4.3Z"/>
      </g>
    </g>
    <g class="st3">
      <g class="st3">
        <path class="st0" d="M265.2,529c-1.2.3-2.7.6-4.5.8-1.8.2-3.6.2-5.3,0-4-.5-7-2.1-9-4.7-2.1-2.6-2.8-6-2.3-10.2.5-4,2.1-7,4.8-9,2.7-2.1,6-2.8,10.1-2.3,2.1.3,3.8.7,5.1,1.3,1.3.6,2.6,1.3,3.9,2.2l-.8,5.9h-.6c-.3-.4-.7-.7-1.2-1.3-.5-.5-1-1-1.5-1.3-.6-.4-1.3-.8-2.1-1.2-.8-.4-1.7-.6-2.6-.7-1.1-.1-2.1-.1-3,.1-.9.2-1.8.6-2.6,1.2-.8.6-1.4,1.4-1.9,2.4-.5,1-.9,2.2-1.1,3.5-.4,2.9,0,5.2,1.4,6.8,1.3,1.6,3.2,2.6,5.8,2.9.2,0,.5,0,.8,0,.3,0,.6,0,.8,0l.6-4.9-4.9-.6.6-4.7,11,1.4-1.6,12.4Z"/>
      </g>
    </g>
    <g class="st3">
      <g class="st3">
        <path class="st0" d="M292.9,531.3h-6.4c0-.1.2-11.4.2-11.4l-8.7-.2-.2,11.3h-6.4c0-.1.5-25.6.5-25.6h6.4c0,.1-.2,9.4-.2,9.4l8.7.2.2-9.3h6.4c0,.1-.5,25.6-.5,25.6Z"/>
      </g>
    </g>
    <g class="st3">
      <g class="st3">
        <path class="st0" d="M304.6,530.6l-1.7-20.5-7.5.6-.4-4.8,21.4-1.7.4,4.8-7.5.6,1.7,20.5-6.4.5Z"/>
      </g>
    </g>
    <g class="st3">
      <g class="st3">
        <path class="st0" d="M351.4,515.1c.3,1.2.3,2.4,0,3.4-.3,1-.7,2-1.4,2.7-.8.9-1.7,1.7-2.7,2.3-1,.6-2.4,1-4.2,1.4l-9.9,2.2-5.5-24.8,8.8-2c1.8-.4,3.2-.6,4.2-.7,1,0,1.9,0,2.8.3,1,.3,1.8.8,2.4,1.5.6.7,1,1.6,1.3,2.6.3,1.2.2,2.4-.2,3.4s-1.1,2-2,2.6h0c1.6.1,3,.5,4.1,1.3,1.1.8,1.9,2,2.3,3.7ZM341.1,506.7c0-.4-.3-.8-.6-1.2-.3-.4-.7-.6-1.2-.7-.5,0-1,0-1.5,0s-1.4.3-2.5.5h-.4c0,0,1.2,5.4,1.2,5.4l.8-.2c1.1-.2,1.8-.4,2.2-.5.4-.1.8-.3,1.2-.6.4-.3.7-.7.8-1.2,0-.5,0-1,0-1.5ZM344.9,516.5c-.2-.8-.5-1.3-.9-1.7-.4-.4-.9-.6-1.6-.7-.4,0-.9,0-1.6.1-.7.1-1.6.3-2.7.6l-1.2.3,1.4,6.2h.3c1.6-.4,2.7-.7,3.4-.9.6-.2,1.2-.5,1.8-.9.5-.4.8-.8,1-1.4.2-.5.2-1.1,0-1.7Z"/>
      </g>
    </g>
    <g class="st3">
      <g class="st3">
        <path class="st0" d="M380.4,513.8l-7.4,2.5-9.7-6.6-2.2.7,3,8.8-6,2-8.1-24.1,9.7-3.3c1.3-.5,2.5-.8,3.6-.9,1-.2,2.1-.1,3.1.1,1,.3,2,.7,2.8,1.4.8.7,1.4,1.7,1.8,3,.6,1.8.7,3.5.3,4.9-.4,1.4-1.2,2.7-2.4,3.9l11.6,7.5ZM365,500.3c-.2-.6-.5-1.1-.9-1.4s-.9-.6-1.5-.6c-.4,0-.9,0-1.4.1-.5.1-1.1.3-1.8.5l-2,.7,2.2,6.5,1.7-.6c.8-.3,1.5-.6,2.1-.9.6-.3,1-.7,1.3-1.2.3-.4.5-.9.5-1.4,0-.5,0-1.1-.3-1.7Z"/>
      </g>
    </g>
    <g class="st3">
      <g class="st3">
        <path class="st0" d="M394.9,507.2l-12.5,5.5-1.8-4.1,3.3-1.5-6.7-15.2-3.3,1.5-1.8-4.1,12.5-5.5,1.8,4.1-3.3,1.5,6.7,15.2,3.3-1.5,1.8,4.1Z"/>
      </g>
    </g>
    <g class="st3">
      <g class="st3">
        <path class="st0" d="M417.9,493.2c-.8.9-1.8,2-3.2,3.3-1.3,1.2-2.8,2.3-4.3,3.1-3.5,1.9-6.8,2.5-10,1.6s-5.8-3.1-7.9-6.8c-1.9-3.5-2.5-6.9-1.5-10.1.9-3.3,3.2-5.9,6.8-7.9,1.9-1,3.5-1.7,4.8-2,1.4-.3,2.8-.5,4.4-.6l2.9,5.2-.5.3c-.4,0-.9-.1-1.7-.2-.7-.1-1.4-.2-2-.2-.7,0-1.5,0-2.4.3-.9.2-1.7.5-2.5.9-1,.5-1.7,1.2-2.4,1.9-.6.7-1.1,1.6-1.3,2.5-.3.9-.3,1.9-.1,3,.2,1.1.6,2.3,1.3,3.5,1.4,2.6,3.2,4.2,5.2,4.7,2,.5,4.1.1,6.4-1.1.2-.1.4-.2.7-.4s.5-.3.7-.4l-2.4-4.4-4.3,2.4-2.3-4.2,9.7-5.4,6.1,10.9Z"/>
      </g>
    </g>
    <g class="st3">
      <g class="st3">
        <path class="st0" d="M421.8,492.5l-7.7-25.7,5.7-4,21.7,15.8-5.4,3.8-4.3-3.3-6.5,4.6,1.7,5.2-5.2,3.7ZM428.1,476.1l-7-5.4,2.7,8.4,4.2-3Z"/>
      </g>
    </g>
    <g class="st3">
      <g class="st3">
        <path class="st0" d="M453.4,451.4c1.6,1.8,2.6,3.7,3.1,5.8.5,2.1.4,4,0,5.8-.4,1.5-1.1,2.9-2.1,4.1-1,1.2-2.2,2.4-3.5,3.6l-6,5.3-16.9-19,5.9-5.2c1.3-1.2,2.7-2.2,4-3.1,1.3-.9,2.8-1.4,4.4-1.7,2-.3,3.9-.1,5.8.6,1.9.7,3.7,2,5.3,3.8ZM448.4,455.7c-1.1-1.3-2.3-2.1-3.5-2.6s-2.5-.6-3.8-.3c-1,.2-1.8.6-2.6,1.2-.7.6-1.6,1.3-2.6,2.2h0c0,0,10.6,12,10.6,12h0c1.1-1,2-1.9,2.7-2.5.7-.7,1.2-1.5,1.5-2.6.3-1.2.3-2.4,0-3.6-.4-1.2-1.1-2.5-2.2-3.7Z"/>
      </g>
    </g>
    <g class="st3">
      <g class="st3">
        <path class="st0" d="M465.5,457.1l-18.7-17.3,11.7-12.6,3.6,3.3-7.4,8,3.3,3,6.8-7.3,3.6,3.3-6.8,7.3,4.7,4.4,7.4-8,3.6,3.3-11.7,12.6Z"/>
      </g>
    </g>
  </g>
  <path class="st4" d="M430.8,136.2c39.4,39.4,61,91.7,61,147.3s-21.7,108-61,147.3c-39.4,39.4-91.6,61-147.3,61s-107.9-21.7-147.3-61c-39.3-39.3-61-91.6-61-147.3s21.7-107.9,61-147.3c39.3-39.3,91.7-61,147.3-61s108,21.7,147.3,61h0ZM487.3,283.5c0-112.4-91.5-203.8-203.8-203.8s-203.8,91.4-203.8,203.8,91.4,203.8,203.8,203.8,203.8-91.4,203.8-203.8Z"/>
  <g>
    <path class="st1" d="M329.4,228.6l-8.8,13.1s10.5,12.2-26.6,44.8c.1,2.4-6.8,87.2-6.8,87.2l29.9-32.5s-24.3-27.7,6.9-42.1c-1.2.5,49-42.5,49-42.5l-43.5-28h0Z"/>
    <polygon class="st1" points="361.9 305.4 374.2 331.9 407.5 329.7 439.8 293.7 361.9 305.4"/>
    <path class="st4" d="M283.5,175.6s-57,24.2,0,86.5c0,0,0,0,0,.1,0,0,0,0,0,0,0,0,0,0,0,0,0,0,0,0,0-.1,57-62.2,0-86.5,0-86.5h0Z"/>
    <path class="st1" d="M237.5,228.6l8.8,13.1s-10.5,12.2,26.6,44.8c-.1,2.4,6.8,87.2,6.8,87.2l-29.9-32.5s24.3-27.7-6.9-42.1c1.2.5-49-42.5-49-42.5l43.5-28h0Z"/>
    <path class="st0" d="M465.6,232.6s-105.1,14.1-126.3,16-21.7,23.6-21.7,23.6l15.8,51.7-50,51.3-50-51.3,15.8-51.7s-.5-21.6-21.7-23.6c-21.2-2-126.3-16-126.3-16l29.7,50,90.8,8-21.9,43.2,83.5,87.9,83.5-87.9-21.9-43.2,90.8-8,29.7-50h0Z"/>
    <polygon class="st1" points="205 305.4 192.8 331.9 159.4 329.7 127.1 293.7 205 305.4"/>
  </g>
</svg>