<?xml version="1.0" encoding="UTF-8"?><svg id="Capa_1" xmlns="http://www.w3.org/2000/svg" viewBox="0 0 566.93 566.93"><defs><style>.cls-1{font-size:34px;}.cls-1,.cls-2{fill:#fff;font-family:Tahoma-Bold, Tahoma;font-weight:700;}.cls-3{fill:#35495e;}.cls-3,.cls-4,.cls-5{stroke-width:0px;}.cls-4{fill:#be1622;}.cls-5{fill:#f1c410;}.cls-2{font-size:35px;}</style></defs><path class="cls-3" d="M284.4,4.35c-.31,0-.63-.01-.94-.01C129.31,4.34,4.34,129.31,4.34,283.46s124.97,279.13,279.13,279.13c.31,0,.63-.01.94-.01,153.72-.51,278.19-125.27,278.19-279.12S438.13,4.86,284.4,4.35Z"/><path class="cls-4" d="M284.17,75.16c-.23,0-.47,0-.7,0-115.05,0-208.32,93.27-208.32,208.32s93.27,208.32,208.32,208.32c.23,0,.47,0,.7,0,114.73-.38,207.62-93.49,207.62-208.31s-92.89-207.93-207.62-208.31Z"/><path class="cls-5" d="M480.9,86.03c52.74,52.74,81.78,122.86,81.78,197.43s-29.04,144.7-81.78,197.43c-52.74,52.74-122.85,81.78-197.43,81.78s-144.69-29.04-197.43-81.78C33.29,428.16,4.25,358.05,4.25,283.46s29.04-144.69,81.78-197.43C138.77,33.3,208.89,4.26,283.46,4.26s144.69,29.04,197.43,81.77ZM556.68,283.46c0-150.65-122.57-273.21-273.22-273.21S10.24,132.81,10.24,283.46s122.57,273.22,273.22,273.22,273.22-122.56,273.22-273.22Z"/><text class="cls-1" transform="translate(101.71 157.75) rotate(-53.24)"><tspan x="0" y="0">J</tspan></text><text class="cls-1" transform="translate(111.46 144.43) rotate(-48.33)"><tspan x="0" y="0">A</tspan></text><text class="cls-1" transform="translate(126.32 127.37) rotate(-41.72)"><tspan x="0" y="0">M</tspan></text><text class="cls-1" transform="translate(148.75 107.81) rotate(-35.91)"><tspan x="0" y="0">I</tspan></text><text class="cls-1" transform="translate(161.59 98.37) rotate(-31.28)"><tspan x="0" y="0">E</tspan></text><text class="cls-1" transform="translate(179.2 87.87) rotate(-27.45)"><tspan x="0" y="0"> </tspan></text><text class="cls-1" transform="translate(187.71 83.33) rotate(-24.15)"><tspan x="0" y="0">“</tspan></text><text class="cls-1" transform="translate(202.39 76.62) rotate(-19.41)"><tspan x="0" y="0">S</tspan></text><text class="cls-1" transform="translate(222.16 69.58) rotate(-13.85)"><tspan x="0" y="0">A</tspan></text><text class="cls-1" transform="translate(244.06 63.93) rotate(-7.16)"><tspan x="0" y="0">M</tspan></text><text class="cls-1" transform="translate(273.49 60.35) rotate(-.2)"><tspan x="0" y="0">U</tspan></text><text class="cls-1" transform="translate(298.01 60.32) rotate(5.7)"><tspan x="0" y="0">S</tspan></text><text class="cls-1" transform="translate(318.9 62.49) rotate(10.57)"><tspan x="0" y="0">”</tspan></text><text class="cls-1" transform="translate(334.89 65.56) rotate(13.97)"><tspan x="0" y="0"> </tspan></text><text class="cls-1" transform="translate(344.2 67.61) rotate(18.24)"><tspan x="0" y="0">A</tspan></text><text class="cls-1" transform="translate(365.72 74.63) rotate(24.41)"><tspan x="0" y="0">R</tspan></text><text class="cls-1" transform="translate(387.64 84.59) rotate(30.55)"><tspan x="0" y="0">A</tspan></text><text class="cls-1" transform="translate(407.22 96.01) rotate(36.79)"><tspan x="0" y="0">N</tspan></text><text class="cls-1" transform="translate(427.61 111.4) rotate(42.77)"><tspan x="0" y="0">T</tspan></text><text class="cls-1" transform="translate(442.52 125.15) rotate(48.14)"><tspan x="0" y="0">E</tspan></text><text class="cls-1" transform="translate(456.15 140.3) rotate(53.6)"><tspan x="0" y="0">S</tspan></text><text class="cls-2" transform="translate(133.19 479.75) rotate(33.6)"><tspan x="0" y="0">N</tspan></text><text class="cls-2" transform="translate(156.98 495.31) rotate(27.95)"><tspan x="0" y="0">E</tspan></text><text class="cls-2" transform="translate(177.22 505.98) rotate(22.88)"><tspan x="0" y="0">T</tspan></text><text class="cls-2" transform="translate(198.31 514.91) rotate(17.34)"><tspan x="0" y="0">R</tspan></text><text class="cls-2" transform="translate(224.15 522.92) rotate(11.14)"><tspan x="0" y="0">O</tspan></text><text class="cls-2" transform="translate(251.95 528.11) rotate(5.95)"><tspan x="0" y="0">I</tspan></text><text class="cls-2" transform="translate(270.14 530.16) rotate(.81)"><tspan x="0" y="0">D</tspan></text><text class="cls-2" transform="translate(297.76 530.2) rotate(-3.54)"><tspan x="0" y="0"> </tspan></text><text class="cls-2" transform="translate(309.13 529.73) rotate(-7.77)"><tspan x="0" y="0">R</tspan></text><text class="cls-2" transform="translate(335.92 526.03) rotate(-14.02)"><tspan x="0" y="0">O</tspan></text><text class="cls-2" transform="translate(363.59 518.94) rotate(-20.1)"><tspan x="0" y="0">V</tspan></text><text class="cls-2" transform="translate(387.08 510.22) rotate(-25.58)"><tspan x="0" y="0">E</tspan></text><text class="cls-2" transform="translate(407.88 500.29) rotate(-31.32)"><tspan x="0" y="0">R</tspan></text><path class="cls-5" d="M430.76,136.16c39.35,39.35,61.02,91.66,61.02,147.3s-21.67,107.96-61.02,147.3c-39.35,39.35-91.65,61.02-147.3,61.02s-107.95-21.67-147.3-61.02c-39.35-39.34-61.02-91.65-61.02-147.3s21.67-107.95,61.02-147.3c39.35-39.34,91.66-61.01,147.3-61.01s107.95,21.67,147.3,61.01ZM487.31,283.46c0-112.4-91.45-203.84-203.84-203.84s-203.84,91.44-203.84,203.84,91.45,203.84,203.84,203.84,203.84-91.44,203.84-203.84Z"/><path class="cls-5" d="M403.73,196.58l.02-.04c-1.75-2.02-3.5-4.04-5.26-6.06,1.37-2.28,2.74-4.54,4.1-6.8.04-.02.05-.05.02-.08-.03-.01-.06,0-.07.02-2.44,1.03-4.87,2.07-7.32,3.11-1.76-2.03-3.51-4.04-5.3-6.1.24,2.72.47,5.39.7,8.05-2.47,1.05-4.91,2.08-7.36,3.12,0,.01,0,.03,0,.04,2.59.6,5.19,1.2,7.78,1.8.23,2.66.46,5.31.7,7.96.02,0,.03,0,.05,0,1.37-2.28,2.74-4.56,4.11-6.84,2.62.61,5.21,1.21,7.81,1.81Z"/><path class="cls-5" d="M417.49,220.36l.03-.03c-1.31-2.33-2.61-4.66-3.92-7,1.81-1.95,3.6-3.89,5.4-5.83.04-.01.06-.04.04-.08-.03-.02-.05-.02-.08,0-2.59.52-5.19,1.04-7.79,1.55-1.31-2.34-2.61-4.67-3.95-7.05-.32,2.71-.64,5.37-.95,8.02-2.63.52-5.23,1.04-7.84,1.56,0,.01,0,.03,0,.04,2.42,1.12,4.83,2.23,7.25,3.35-.31,2.66-.63,5.29-.94,7.93.02,0,.03,0,.05.01,1.81-1.95,3.61-3.9,5.42-5.86,2.44,1.12,4.86,2.24,7.28,3.36Z"/><path class="cls-5" d="M426.41,246.43l.04-.03c-.76-2.56-1.52-5.12-2.28-7.69,2.19-1.51,4.37-3,6.55-4.49.04,0,.07-.02.05-.07-.02-.03-.05-.03-.08,0-2.65-.07-5.29-.13-7.95-.2-.76-2.57-1.52-5.13-2.3-7.74-.91,2.58-1.8,5.1-2.69,7.61-2.68-.07-5.34-.14-7.99-.21,0,.01,0,.03,0,.04,2.11,1.62,4.22,3.24,6.34,4.86-.89,2.52-1.78,5.03-2.66,7.53.01,0,.03.02.04.02,2.19-1.51,4.38-3.01,6.58-4.52,2.13,1.63,4.25,3.26,6.36,4.88Z"/><path class="cls-5" d="M368.16,163.55l.04-.03c2.13,1.62,4.25,3.24,6.38,4.86,2.19-1.52,4.36-3.02,6.52-4.53.02-.04.04-.05.08-.03.02.03,0,.06-.02.08-.88,2.5-1.75,4.99-2.63,7.5,2.13,1.63,4.26,3.24,6.43,4.9-2.73-.06-5.41-.12-8.07-.18-.89,2.53-1.76,5.04-2.64,7.54-.01,0-.03,0-.04,0-.77-2.55-1.53-5.1-2.3-7.65-2.67-.06-5.33-.12-7.99-.18,0-.02,0-.03,0-.05,2.19-1.51,4.37-3.03,6.56-4.54-.77-2.57-1.54-5.12-2.31-7.68Z"/><path class="cls-5" d="M343.59,151.07l.03-.03c2.43,1.11,4.86,2.22,7.29,3.34,1.8-1.96,3.58-3.91,5.37-5.85,0-.04.03-.06.08-.04.02.03.02.05,0,.08-.31,2.63-.61,5.26-.92,7.9,2.44,1.12,4.86,2.23,7.35,3.36-2.68.54-5.3,1.07-7.92,1.6-.31,2.66-.61,5.3-.92,7.94-.01,0-.03,0-.04,0-1.31-2.32-2.62-4.64-3.93-6.96-2.62.53-5.23,1.05-7.83,1.58,0-.01-.01-.03-.02-.04,1.8-1.96,3.6-3.92,5.4-5.88-1.32-2.34-2.63-4.66-3.94-6.98Z"/><path class="cls-5" d="M177.16,393.33l-.04.02c-1.75-2.02-3.5-4.04-5.26-6.06-2.45,1.04-4.88,2.07-7.31,3.1-.03.03-.05.04-.09,0,0-.03,0-.06.03-.07,1.37-2.27,2.73-4.53,4.1-6.81-1.76-2.03-3.51-4.04-5.3-6.1,2.66.62,5.27,1.22,7.87,1.82,1.38-2.3,2.75-4.57,4.12-6.85.01,0,.03,0,.04.01.23,2.65.46,5.3.7,7.96,2.61.6,5.19,1.2,7.78,1.8,0,.02,0,.03,0,.05-2.45,1.04-4.9,2.08-7.35,3.12.23,2.67.46,5.33.7,7.99Z"/><path class="cls-5" d="M198.77,410.29l-.04.03c-2.13-1.62-4.25-3.24-6.38-4.86-2.19,1.52-4.36,3.02-6.52,4.53-.02.04-.04.05-.08.03-.02-.03,0-.06.02-.08.88-2.5,1.75-4.99,2.63-7.5-2.13-1.63-4.26-3.24-6.43-4.9,2.73.06,5.41.12,8.07.18.89-2.53,1.76-5.04,2.64-7.54.01,0,.03,0,.04,0,.77,2.55,1.53,5.1,2.3,7.65,2.67.06,5.33.12,7.99.18,0,.02,0,.03,0,.05-2.19,1.51-4.37,3.03-6.56,4.54.77,2.57,1.54,5.12,2.31,7.68Z"/><path class="cls-5" d="M223.33,422.77l-.03.03c-2.43-1.11-4.86-2.22-7.29-3.34-1.8,1.96-3.58,3.91-5.37,5.85,0,.04-.03.06-.08.04-.02-.03-.02-.05,0-.08.31-2.63.61-5.26.92-7.9-2.44-1.12-4.86-2.23-7.35-3.36,2.68-.54,5.3-1.07,7.92-1.6.31-2.66.61-5.3.92-7.94.01,0,.03,0,.04,0,1.31,2.32,2.62,4.64,3.93,6.96,2.62-.53,5.23-1.05,7.83-1.58,0,.01.01.03.02.04-1.8,1.96-3.6,3.92-5.4,5.88,1.32,2.34,2.63,4.66,3.94,6.98Z"/><path class="cls-5" d="M149.44,353.48l-.03.03c1.31,2.33,2.61,4.66,3.92,7-1.81,1.95-3.6,3.89-5.4,5.83-.04.01-.06.04-.04.08.03.02.05.02.08,0,2.59-.52,5.19-1.04,7.79-1.55,1.31,2.34,2.61,4.67,3.95,7.05.32-2.71.64-5.37.95-8.02,2.63-.52,5.23-1.04,7.84-1.56,0-.01,0-.03,0-.04-2.42-1.12-4.83-2.23-7.25-3.35.31-2.66.63-5.29.94-7.93-.02,0-.03,0-.05-.01-1.81,1.95-3.61,3.9-5.42,5.86-2.44-1.12-4.86-2.24-7.28-3.36Z"/><path class="cls-5" d="M140.52,327.41l-.04.03c.76,2.56,1.52,5.12,2.28,7.69-2.19,1.51-4.37,3-6.55,4.49-.04,0-.07.02-.05.07.02.03.05.03.08,0,2.65.07,5.29.13,7.95.2.76,2.57,1.52,5.13,2.3,7.74.91-2.58,1.8-5.1,2.69-7.61,2.68.07,5.34.14,7.99.21,0-.01,0-.03,0-.04-2.11-1.62-4.22-3.24-6.34-4.86.89-2.52,1.78-5.03,2.66-7.53-.01,0-.03-.02-.04-.02-2.19,1.51-4.38,3.01-6.58,4.52-2.13-1.63-4.25-3.26-6.36-4.88Z"/><path class="cls-5" d="M424.52,437.34c-1.65.9-2.52-1.1-3.95-1.04-1.74-1.31-3.71-2.19-5.7-3.03-3.5-2.08-7.07-4.02-10.83-5.61-7.71-4.49-15.69-8.46-23.66-12.46-7.38-3.98-14.72-8.06-22.31-11.64-1.23-.94-2.57-1.7-4.07-2.14-2.55-1.66-5.27-3-8.04-4.26-3.82-1.99-7.64-3.99-11.46-5.98-.41-.21-.81-.42-1.22-.63-3.28-1.98-6.66-3.8-10.19-5.31-3.49-2.17-7.14-4.04-10.9-5.73-7.16-4.14-14.56-7.84-21.96-11.53-.64-.43-1.23-.99-2.08-.99-2.9-2.02-6.12-3.46-9.29-4.98-8.12-4.44-16.26-8.83-24.61-12.82-2.92-1.93-6.08-3.42-9.23-4.93-.82-.49-1.57-1.13-2.59-1.22-3.54-2.27-7.28-4.15-11.11-5.88-4.61-2.5-9.22-5.01-13.91-7.56v-7.78c0-3.82,0-7.64,0-11.46,0-3.81,0-7.62,0-11.43,0-3.82,0-7.64,0-11.46,0-3.81,0-7.62,0-11.43,0-3.82,0-7.64,0-11.46,0-3.81,0-7.62,0-11.44v-5.94c.89-.37,1.64-.69,2.39-1.01,7.95-1.55,15.81-3.44,23.61-5.61,1.89-.04,3.65-.59,5.46-1.24-2.1-2.16-4.1-4.23-6.11-6.3-.96-1.31-2.09-2.44-3.39-3.41-6.56-7.11-13.29-14.06-20.21-20.82-.33-.32-.66-.63-.99-.95-3.29-3.38-6.58-6.77-9.87-10.15-.42-.77-1-1.37-1.76-1.8-3.01-3.48-6.25-6.72-9.65-9.83-.91-.92-1.83-1.84-2.74-2.76-2.74-2.84-5.49-5.67-8.23-8.51-.44-.73-.94-1.4-1.72-1.81-3.22-3.66-6.66-7.1-10.25-10.4-.38-.73-.95-1.28-1.67-1.67-3.09-3.58-6.41-6.95-9.85-10.2-.2-.21-.39-.42-.59-.63-3.24-3.63-6.63-7.12-10.25-10.38-.36-.37-.72-.75-1.07-1.12-2.7-2.93-5.41-5.86-8.11-8.79.22-.15.45-.3.67-.45,2.62,1.24,5.23,2.48,7.85,3.72,7.53,4.23,15.19,8.24,22.95,12.03,7.52,4.23,15.17,8.23,22.93,12,7.53,4.23,15.18,8.23,22.94,12.03,7.53,4.23,15.18,8.22,22.94,12,2,1.32,4.08,2.49,6.34,3.31,1.6,1.16,3.37,2.02,5.2,2.77,1.83,1.12,3.66,2.25,5.7,2.95.2.14.39.27.59.41.18.06.36.11.54.17.1.28.25.51.61.42,1.35.68,2.69,1.36,4.04,2.04,11.35,6.23,22.83,12.21,34.4,18.03,3.71,2.17,7.49,4.2,11.42,5.93,7.48,4.32,15.16,8.26,22.94,12.01.57.66,1.31,1,2.16,1.12,2.96,1.95,6.17,3.45,9.36,4.98.77.5,1.54,1,2.39,1.55v4.84c0,3.82,0,7.64,0,11.47,0,3.81,0,7.62,0,11.43,0,3.82,0,7.64,0,11.46,0,3.81,0,7.62,0,11.43,0,3.82,0,7.64,0,11.47,0,3.81,0,7.62,0,11.43v8.93c-4.84,1.26-9.37,2.43-13.89,3.61-3.81.84-7.62,1.68-11.43,2.51-2,.65-4.21.6-6.31,1.85,2.02,1.93,3.86,3.69,5.71,5.46.18.19.37.38.55.57,3.46,3.83,7.02,7.56,10.84,11.04.21.65.71,1.03,1.27,1.35,2.84,3.42,6.01,6.51,9.25,9.55.52.51,1.04,1.03,1.56,1.54,3.51,3.61,7.03,7.23,10.54,10.84.14.15.28.29.42.44l.13.12c.14.14.29.27.43.41,1.08,1.2,2.12,2.43,3.24,3.58,11.86,12.14,23.74,24.26,35.62,36.38,9.4,9.6,18.8,19.19,28.2,28.79ZM345.87,375.09l-.48-.48c-5.41-6.32-11.05-12.45-16.81-18.45-1.33-2.05-3.19-3.61-4.9-5.32-1.56-2.35-3.63-4.24-5.66-6.16-1.81-2.63-4.1-4.82-6.39-7.02-1.02-1.76-2.47-3.12-4.01-4.4-2.25-2.94-4.76-5.64-7.46-8.17-.89-1.52-2.07-2.77-3.44-3.86-2.57-3.01-5.09-6.07-8.04-8.73-.61-1.05-1.33-2.01-2.35-2.71-3.01-3.32-5.78-6.85-9.13-9.85-.28-.34-.56-.67-.84-1.01-1.57-2.41-3.81-4.2-5.7-6.31.04-1.1-.38-2.28.66-3.42,1.33-.57,2.45-.01,3.71.87,8.13,5.69,16.31,11.29,24.48,16.92,1.5,1.38,3.14,2.57,4.98,3.49.91.95,1.92,2.19,3.24,1.98,5.13-.79,10.22-1.81,15.32-2.75,4.15-.61,8.29-1.22,12.51-1.83v-59.85c-8.05-4.39-16.02-8.75-24-13.1-3.17-1.9-6.32-3.83-9.72-5.3-.15-.58-.63-.55-1.08-.57-3.61-2.45-7.47-4.45-11.37-6.36-7.76-4.62-15.64-9.01-23.68-13.1-1.18-1.03-2.56-1.71-4.01-2.26-2.35-1.6-4.81-2.99-7.43-4.09-3.66-2.33-7.41-4.49-11.37-6.27-.46-.64-1.12-.94-1.88-1.09-3.06-1.71-6.13-3.42-9.19-5.13-7.94-4.47-15.88-8.94-23.82-13.41-.14.19-.27.39-.41.58,5.76,6.19,11.52,12.38,17.28,18.57,1.74,2.29,3.63,4.46,5.8,6.36,1.4,1.83,2.82,3.63,4.6,5.11,2.41,2.8,4.71,5.7,7.5,8.14.81,1.2,1.67,2.36,2.84,3.25,2.65,2.87,5.3,5.75,7.95,8.62.68.75,1.37,1.51,2.05,2.26,2.97,3.6,6.09,7.06,9.43,10.33.57.62,1.14,1.24,1.7,1.86,1.04,1.23,2.05,2.48,3.13,3.67,8.68,9.59,17.38,19.17,26.07,28.75-.4.85.27,1.93-.89,2.93-1.38.96-2.75-.1-4.09-.91-4.43-2.67-8.84-5.38-13.26-8.07-7.63-4.65-15.27-9.31-22.9-13.96-.48-.77-1.22-.77-1.98-.63-3.76.7-7.56,1.2-11.22,2.36-3.79.66-7.59,1.33-11.38,1.99v59.9c7.96,4.33,15.98,8.68,23.99,13.04,1.41.95,2.8,1.95,4.49,2.39,2.11,1.7,4.57,2.78,6.98,3.96,3.7,2.32,7.51,4.46,11.46,6.32.62.64,1.35,1.09,2.25,1.24,2.93,1.95,5.98,3.68,9.21,5.08,7.46,4.54,15.14,8.69,22.88,12.73,7.37,4.33,14.81,8.52,22.42,12.43,2.39,1.52,4.79,3.04,7.45,4.08,1.21.97,2.5,1.79,4,2.23,4.35,2.5,8.71,5,13.06,7.51.12-.17.25-.33.37-.5-3.3-3.51-6.61-7.03-9.91-10.54-.98-1.08-1.96-2.16-2.94-3.24l-.07-.1Z"/><path class="cls-3" d="M352.86,355.6c-2.12-2.48-4.4-4.8-6.86-6.95-1.15-1.48-2.41-2.84-3.91-3.97-2.75-3.17-5.6-6.24-8.74-9.04-.74-1.19-1.75-2.11-2.85-2.96-.58-.71-1.17-1.42-1.93-2.35,2.08-.6,4.01-1.16,5.93-1.71,3.89-.65,7.74-1.48,11.49-2.75,2.65-.47,5.54-.46,6.94-3.44,1.4-1.21,1.07-2.85,1.06-4.39,0-2.55-.06-5.11-.09-7.66,0-3.81,0-7.62,0-11.44s0-7.64,0-11.46,0-7.62,0-11.44,0-7.64,0-11.46,0-7.62,0-11.44,0-7.64,0-11.46c.03-1.79.21-3.6.06-5.38-.16-1.85-.74-3.7-2.54-4.65-5.39-2.83-10.82-5.57-16.24-8.34-7.73-4.42-15.67-8.46-23.63-12.44-2.28-1.18-4.57-2.36-6.85-3.54-.2-.13-.39-.26-.59-.4-.19-.06-.38-.11-.58-.17-10.43-5.54-20.85-11.09-31.29-16.61-2.17-1.15-4.38-2.21-6.57-3.31-1.54-.79-3.09-1.58-4.63-2.38-2.16-1.38-4.39-2.62-6.8-3.53-3.18-1.77-6.37-3.53-9.62-5.34,1.43-1.29,3.5-.98,4.99-2.04,1.61-.09,3.13-.57,4.59-1.21,3.82-.75,7.64-1.51,11.47-2.26,3.83-.36,7.65-.72,11.48-1.08,3.82,0,7.64,0,11.47,0,3.83.36,7.65.73,11.48,1.09,4.01.78,8.02,1.56,12.03,2.34,1.26.72,2.62,1.06,4.06,1.13,1.08.67,2.3.93,3.54,1.11.33.14.66.29.99.43.36.07.72.15,1.08.22.22.13.44.26.65.39.19.02.38.05.57.07,3.82,1.56,7.65,3.12,11.47,4.68,7.78,4.01,15.2,8.61,22.27,13.77.53.71,1.16,1.29,1.99,1.63,3.37,3.1,6.75,6.2,10.12,9.3,4.66,5.31,9.07,10.83,13.2,16.55.07.17.15.34.22.51.13.17.26.35.39.52,1.5,2.5,3,5.01,4.5,7.51,1.55,3.24,3.1,6.48,4.65,9.72-.05.67.19,1.22.65,1.69,1.32,3.82,2.64,7.64,3.96,11.45.02.19.05.38.07.58-.15.65,0,1.21.5,1.67.61,3.07,1.22,6.13,1.83,9.2.53,4.4,1.05,8.81,1.58,13.21.03,3.23.05,6.46.08,9.69-.37,3.82-.74,7.64-1.11,11.46-.69,3.45-1.38,6.89-2.07,10.34l-.18.52c-.03.38-.05.76-.08,1.14-1.15,3.63-2.3,7.26-3.46,10.89-3.08,7.55-6.68,14.84-10.94,21.8-.76,1.16-1.53,2.32-2.29,3.47-2.31,3.02-4.62,6.04-6.94,9.06-1.77,1.46-3.2,3.24-4.59,5.05-1.78,1.64-3.57,3.28-5.82,5.36-1.98-2.2-3.81-4.23-5.64-6.26-1.31-1.77-2.87-3.3-4.56-4.71Z"/><path class="cls-3" d="M277.78,367.82c3.53,2.02,7.08,4,10.83,5.6,7.5,4.28,15.16,8.26,22.93,12.03,3.04,2.25,6.84,3.18,9.77,5.63-3.25.98-6.49,1.97-9.74,2.95-3.82.75-7.64,1.5-11.47,2.25-3.83.36-7.65.73-11.48,1.09-3.82,0-7.65,0-11.47,0-3.83-.36-7.65-.72-11.48-1.08-4.01-.79-8.02-1.57-12.03-2.36-3.64-1.11-7.28-2.23-10.91-3.34-.13-.14-.28-.18-.45-.12-3.67-1.52-7.33-3.04-11-4.56-7.79-4.06-15.27-8.61-22.33-13.86-1.76-1.47-3.52-2.95-5.27-4.42-2.26-2.14-4.52-4.29-6.78-6.43-1.71-1.92-3.42-3.83-5.13-5.75-2.13-2.79-4.27-5.58-6.4-8.37-.44-.87-.8-1.79-1.66-2.37-4.42-7.34-8.37-14.91-11.55-22.87-1.23-4.19-2.46-8.38-3.69-12.57-.7-3.44-1.4-6.89-2.1-10.33-.37-3.82-.74-7.64-1.11-11.46.02-3.06.03-6.11.05-9.17.53-4.58,1.07-9.16,1.6-13.74.81-3.81,1.61-7.62,2.42-11.44,1.32-3.82,2.64-7.64,3.97-11.46.61-.89,1-1.86,1.16-2.93,1.3-2.65,2.61-5.3,3.91-7.96,2.46-4,4.93-8,7.39-11.99.2-.09.29-.25.25-.47,2.99-3.68,5.99-7.35,8.98-11.03h.15s-.02-.16-.02-.16l.15-.02v-.14c.55-.61,1.09-1.21,1.63-1.82,1.78-1.63,3.56-3.26,5.83-5.34,1.79,2.01,3.47,3.89,5.15,5.77,8.38,8.59,16.75,17.17,25.13,25.76,1.35,1.5,2.71,3,4.25,4.7-2.15.61-4.06,1.15-5.97,1.69-6.02,1.32-12.16,2.17-17.63,4.61-2.76,3.44-1.72,7.2-1.78,10.79,0,3.81,0,7.62,0,11.44,0,3.82,0,7.64,0,11.46,0,3.81,0,7.62,0,11.44,0,3.82,0,7.64,0,11.46,0,3.81,0,7.62,0,11.44,0,3.82,0,7.64,0,11.46.26,3.82-1.2,7.82,1.15,11.43,1.66,2.33,4.39,2.91,6.74,4.11,3.47,2.15,7.1,4.01,10.81,5.69,1.01.81,2.12,1.42,3.39,1.72,2.76,1.84,5.71,3.3,8.74,4.61,3.84,2.03,7.67,4.07,11.51,6.1,1.53.78,3.06,1.57,4.59,2.35,1.72.92,3.45,1.84,5.17,2.76,4.12,2.26,8.19,4.61,12.51,6.49.2.65.84.51,1.28.72Z"/></svg>