<svg enable-background="new 0 0 113.4 113.4" viewBox="0 0 113.4 113.4" xmlns="http://www.w3.org/2000/svg"><circle cx="56.7" cy="56.7" fill="#afc910" r="55.5"/><path d="m56.6 113.4c-31.8 0-57.4-26.3-56.6-58.2.8-30.1 25.4-55.3 57.1-55.2 31.6.2 56.7 26 56.3 57.8-.4 30.6-26.2 55.9-56.8 55.6zm55.5-56.5c.2-30.6-24.7-55.5-55.2-55.7-30.8-.1-55.7 25.1-55.7 55.5 0 30.2 24.6 55.6 55.6 55.5 30.8-.1 55.5-25.2 55.3-55.3z" fill="#fdce00"/><path d="m112.1 56.9c.1 30.2-24.5 55.3-55.3 55.4-31 .1-55.6-25.3-55.6-55.5 0-30.3 24.9-55.6 55.7-55.5 30.5 0 55.5 25 55.2 55.6zm-66.3 8.1c-1 2.2-1.8 4.3-2.7 6.2-.5 1-.5 1.8.1 2.8 4 7.2 7.9 14.5 11.9 21.7.4.8.7 1.7 1.5 2.3 4.8-8.5 9.5-17 14.2-25.3-.9-2.7-2.2-5.1-2.9-7.8h10.1c1.7 4.2 3.3 8.2 4.9 12.3h7.8c-2.5-6.3-5-12.4-7.4-18.4-17.9 0-35.7 0-53.5 0-2.4 6.1-4.9 12.2-7.4 18.5h7.8c1.8-4.1 3.5-8.3 5.2-12.3zm37.6-9.3c2.5-6.2 4.9-12.3 7.4-18.5-2.8 0-5.2 0-7.8 0-1.8 4.1-3.5 8.3-5.3 12.3-3.5 0-6.8 0-10.3 0 1.1-2.7 2.1-5.2 3.1-7.7-4.6-8.5-9.1-16.9-13.8-25.6-5 8.7-9.8 17.2-14.6 25.6 1.1 2.6 2.2 5.1 3.3 7.8-3.5 0-6.8 0-10.2 0-1.8-4.1-3.6-8.2-5.3-12.3-2.6 0-4.9 0-7.5 0 2.5 6.3 5 12.4 7.4 18.5 18-.1 35.7-.1 53.6-.1z" fill="#b0cb0f"/><path d="m45.8 65c-3.5 0-6.8 0-10.3 0-1.7 4-3.5 8.2-5.2 12.3-2.6 0-5 0-7.8 0 2.5-6.2 4.9-12.3 7.4-18.5h53.5c2.4 6 4.9 12.1 7.4 18.4-2.7 0-5.2 0-7.8 0-1.6-4-3.3-8.1-4.9-12.3-3.3 0-6.7 0-10.1 0 .7 2.7 2 5.1 2.9 7.8-4.7 8.3-9.4 16.8-14.2 25.3-.8-.6-1.1-1.5-1.5-2.3-4-7.2-7.9-14.5-11.9-21.7-.6-1-.6-1.8-.1-2.8.9-2 1.7-4 2.6-6.2zm10.7 15.5c1.5-2.9 3-5.5 4.4-8.1-1.5-2.9-2.7-5.9-4.4-8.9-1.5 3.1-2.9 6-4.3 8.9 1.4 2.7 2.8 5.2 4.3 8.1z" fill="#ffe148"/><path d="m83.4 55.7c-17.9 0-35.6 0-53.5 0-2.4-6.1-4.9-12.2-7.4-18.5h7.5c1.7 4 3.5 8.2 5.3 12.3h10.2c-1.1-2.6-2.2-5.2-3.3-7.8 4.8-8.4 9.7-16.9 14.6-25.6 4.7 8.7 9.2 17.1 13.8 25.6-1 2.5-2 5.1-3.1 7.7h10.3c1.7-4 3.5-8.2 5.3-12.3h7.8c-2.6 6.3-5 12.5-7.5 18.6zm-31.2-13.6c1.5 3 3 5.9 4.6 9.2 1.5-3.3 2.8-6.3 4.1-9.2-1.4-2.7-2.7-5.3-4.1-8-1.6 2.7-3.1 5.3-4.6 8z" fill="#ffe148"/><path d="m56.5 80.5c-1.5-2.9-2.9-5.5-4.4-8.2 1.4-2.9 2.8-5.8 4.3-8.9 1.7 3 2.9 6 4.4 8.9-1.3 2.7-2.7 5.4-4.3 8.2z" fill="#b1cb12"/><path d="m52.2 42.1c1.6-2.7 3-5.3 4.7-8.1 1.4 2.8 2.7 5.3 4.1 8-1.3 2.9-2.6 5.9-4.1 9.2-1.8-3.2-3.2-6.2-4.7-9.1z" fill="#b2cb12"/></svg>