<svg enable-background="new 0 0 113.4 113.4" viewBox="0 0 113.4 113.4" xmlns="http://www.w3.org/2000/svg"><circle cx="56.9" cy="56.5" r="55.5"/><path d="m56.8 0c31.3 0 56.8 25.5 56.6 56.9-.2 31.5-25.2 56.4-56.7 56.5-31.3.1-56.7-25.5-56.7-56.9.1-31.2 25.6-56.5 56.8-56.5zm52.8 56.4c-.1-28.9-22.8-53.3-53.3-53.2-29.5 0-53 23.2-53 53.1 0 30.2 24.1 53 53 53.1 29.6.1 53.1-23.7 53.3-53z" fill="#231c1f"/><path d="m109.6 56.4c-.2 29.2-23.6 53.1-53.3 53-28.9-.1-53-22.9-53-53.1 0-30 23.5-53.1 53-53.1 30.5-.1 53.2 24.3 53.3 53.2zm-13.6-32.2c-.1-.1-.2-.2-.2-.2-.1-.1-.1-.2-.2-.3 0-.1-.1-.1-.1-.1 0-.2-.2-.3-.3-.4 0-.1 0-.1-.1-.1-.1-.1-.1-.2-.2-.2-.1-.1-.2-.2-.2-.2-.1-.1-.2-.2-.2-.2-.2-.4-.5-.5-.9-.7-1.1-1.2-2.2-2.3-3.3-3.5-.1-.1-.2-.1-.3-.2s-.2-.2-.4-.3c-.2-.4-.4-.6-.8-.7 0-.1-.1-.1-.1-.2-12.3-9.7-26.2-13.3-41.6-10.6-11.9 2.1-21.8 8-29.6 17.3-10.2 12.1-14 26.1-11.2 41.7 2.5 14.5 10.3 25.8 22.6 33.9.8.5 1.5 1.2 2.7 1.4-.1-1.9-.2-3.6-.4-5.3-.3-.1-.6-.2-.8-.3-6.5-1-13.1-6.9-13.1-16.1 0-15.6 0-31.3 0-46.9 0-2.6.5-5.1 1.6-7.5 1.5-3.2 4-5.5 7-7.3.2 0 .5 0 .7-.3.1 0 .2-.1.2-.1.8-.1 1.5-.4 2.2-.8h.2c2.7-.5 5.4-.4 8.1-.4h36.1c4.4 0 8.8-.5 13 1.1.2.2.4.3.7.3.1.1.2.1.3.2.1.2.3.3.5.2 0 0 .1.1.1 0 .1.3.3.4.6.4.2.2.5.3.7.5.1.2.2.3.4.3l.2.2c.2.3.4.5.7.7.8.9 1.7 1.8 2.5 2.7 2.3 3.5 2.9 7.3 2.9 11.4-.1 15.1-.1 30.2 0 45.3.1 9.8-8 16.6-16.4 16.4-12.1-.3-24.3-.1-36.4-.1-.5 0-1-.2-1.6.3-.2 3-.4 6.1-.6 9.3.5.2.9.3 1.3.5 8.2 2.3 16.6 2.8 24.9.8 18.7-4.5 31.3-16 37.6-34.1 2.8-7.9 3.2-16.1 1.7-24.4-1.1-6.4-3.3-12.4-6.9-17.9 0-.3-.2-.6-.5-.7 0-.2-.1-.4-.3-.5-.1-.1-.1-.2-.2-.2 0-.2-.1-.4-.3-.5 0-.1 0-.1-.1-.2 0-.2-.1-.3-.3-.4v-.1c0-.3-.2-.5-.4-.6 0 0 0-.1-.1-.1-.1-.1-.1-.2-.2-.3 0-.3-.2-.5-.4-.6 0 0 0-.1-.1-.1-.1-.1-.1-.2-.2-.3s-.1-.2-.2-.2c0-.2-.1-.3-.3-.4.1-.1 0-.2 0-.3zm-53.9 64.9c.6 0 .9.1 1.3.1 10.9 0 21.8-.1 32.7 0 7.9.1 14-6.1 13.9-13.9-.1-13.3 0-26.7 0-40 0-7.9-5.7-13.6-13.7-13.7-11.5 0-23 0-34.5 0-.4 0-.9-.1-1.2.2v20.9h26.2c.4-3.1 0-5.8-2.5-8.1 3.8-.4 7 .4 9.4 3.2 1.4 1.7 1.3 3.1-.2 4.7-.1.2-.4.3-.2.7 3.9 0 7.5 1.3 10.7 3.9-3.2 2.7-6.4 4.5-10.7 4 .2.3.3.5.4.6 1 1.3 1 2.2.1 3.6-.6.9-1.4 1.5-2.2 2-2.3 1.4-4.7 2-7.5 1.6 2.4-2.3 3.5-6.1 2.5-8.2-8.6 0-17.2 0-26 0 .1 2.5-.1 4.8.1 7.2 1.2.2 2.3-.3 3.5 0-.9 10.4-1.5 20.7-2.1 31.2zm-11.3-1.7c-.6-9.8-1.2-19.6-1.9-29.5 1.3 0 2.5.3 3.6 0 0-2.5 0-4.8 0-7.2-3.1 0-6 0-9 0 0 .3-.1.5-.1.8 0 8.2-.1 16.4 0 24.6.1 4.7 2.2 8.4 6.1 11 .4.2.7.5 1.3.3zm1.7-64.9c-.2 0-.3-.1-.4 0-4.4 1.4-8.1 6.2-8.5 10.8-.3 3-.1 5.9-.2 8.9 0 .2 0 .5.3.7h8.8c0-6.9 0-13.6 0-20.4z" fill="#d11d21"/><path d="m42.1 89.1c.7-10.5 1.3-20.8 1.9-31.1-1.2-.3-2.3.1-3.5 0-.2-2.4 0-4.7-.1-7.2h26c1 2.1-.1 5.9-2.5 8.2 2.8.4 5.2-.2 7.5-1.6.9-.5 1.7-1.1 2.2-2 .9-1.4.9-2.3-.1-3.6-.1-.1-.2-.3-.4-.6 4.3.5 7.5-1.3 10.7-4-3.2-2.6-6.8-3.8-10.7-3.9-.2-.4.1-.5.2-.7 1.5-1.5 1.6-3 .2-4.7-2.4-2.9-5.5-3.7-9.4-3.2 2.5 2.3 2.9 5 2.5 8.1-8.8 0-17.4 0-26.2 0 0-7 0-13.9 0-20.9.3-.3.8-.2 1.2-.2h34.5c8 0 13.7 5.7 13.7 13.7 0 13.3-.1 26.7 0 40 .1 7.8-6.1 14-13.9 13.9-10.9-.2-21.8 0-32.7 0-.2-.1-.6-.2-1.1-.2z" fill="#1e191d"/><path d="m29.2 16c-.1 0-.1 0-.2 0-.8-.1-1.6.1-2.2.8-.1 0-.2.1-.2.1-.3 0-.5 0-.7.3-3 1.8-5.5 4.1-7 7.3-1.1 2.4-1.6 4.9-1.6 7.5v46.9c0 9.2 6.6 15.2 13.1 16.1.2 0 .4.1.8.3.1 1.7.2 3.4.4 5.3-1.1-.3-1.9-.9-2.7-1.4-12.3-8.1-20.1-19.4-22.6-33.9-2.7-15.5 1-29.6 11.2-41.7 7.7-9.3 17.7-15.2 29.6-17.3 15.4-2.8 29.3.9 41.6 10.6.1 0 .1.1.1.2.2.4.4.6.8.7.1.1.2.2.4.3.1.1.2.1.3.2 1.1 1.2 2.2 2.3 3.3 3.5-.2.1-.3.3-.3.6-.8-.9-1.7-1.8-2.5-2.7-.1-.4-.3-.6-.7-.7-.1-.1-.1-.1-.2-.2-.1-.2-.2-.3-.4-.3-.2-.2-.5-.3-.7-.5-.1-.3-.3-.4-.6-.4h-.1c-.1-.2-.3-.2-.5-.2-.1-.1-.2-.1-.3-.2-.1-.3-.4-.3-.7-.3-1.4-1.1-3.1-1.3-4.7-1.4-16.7-.1-33.4 0-50.1 0-1-.1-1.9-.1-2.6.5z" fill="#221b1e"/><path d="m93.2 22.2c0-.2.1-.4.3-.6.3.2.7.3.9.7.1.1.2.2.2.2.1.1.2.2.2.2.1.1.1.2.2.2l.1.1c0 .2.1.3.3.4.1 0 .1.1.1.1.1.1.1.2.2.3.1.1.1.2.2.2.1.1.1.2.2.2 0 .2.1.4.3.4.1.1.1.2.2.2.1.1.1.2.2.3l.1.1c0 .3.2.5.4.6.1.1.1.2.2.3l.1.1c0 .3.2.5.4.6v.1c0 .2.1.3.3.4.1.1.1.1.1.2 0 .2.1.4.3.5.1.1.1.2.2.2 0 .2 0 .4.3.5 0 .4.1.6.5.7 3.5 5.5 5.8 11.5 6.9 17.9 1.4 8.3 1 16.5-1.7 24.4-6.3 18.2-18.9 29.6-37.6 34.1-8.3 2-16.7 1.6-24.9-.8-.4-.1-.8-.3-1.3-.5.2-3.1.4-6.3.6-9.3.6-.4 1.1-.3 1.6-.3 12.1 0 24.3-.2 36.4.1 8.4.2 16.5-6.7 16.4-16.4-.1-15.1-.1-30.2 0-45.3 0-3.8-.7-7.6-2.9-11.1z" fill="#231b1e"/><path d="m30.8 87.4c-.5.3-.8-.1-1.1-.3-4-2.6-6.1-6.3-6.1-11-.1-8.2 0-16.4 0-24.6 0-.2.1-.4.1-.8h9v7.2c-1.1.3-2.3 0-3.6 0 .5 9.9 1.1 19.7 1.7 29.5z" fill="#261d20"/><path d="m32.5 22.5v20.3c-3 0-5.9 0-8.8 0-.3-.2-.3-.5-.3-.7.1-3-.1-5.9.2-8.9.4-4.6 4.1-9.3 8.5-10.8.1.1.2.1.4.1z" fill="#221b1e"/><path d="m29.2 16c .7-.7 1.6-.6 2.4-.6h50.1c1.6 0 3.3.3 4.7 1.4-4.2-1.6-8.7-1.1-13-1.1-12 0-24 0-36.1 0-2.7-.1-5.4-.2-8.1.3z" fill="#58352f"/><path d="m26.9 16.9c.6-.7 1.3-.9 2.2-.8-.8.4-1.5.6-2.2.8z" fill="#58352f"/><path d="m89.6 17.7c-.4-.1-.6-.3-.8-.7.3.1.6.3.8.7z" fill="#58352f"/><path d="m89.9 18.9c.4 0 .7.2.7.7-.3-.2-.5-.4-.7-.7z" fill="#58352f"/><path d="m88 17.5c.3-.1.5.1.6.4-.3 0-.5-.1-.6-.4z" fill="#58352f"/><path d="m99.8 29.6c-.3-.1-.5-.3-.5-.7.3.1.4.4.5.7z" fill="#583630"/><path d="m86.4 16.8c.3 0 .5 0 .7.3-.3 0-.5-.1-.7-.3z" fill="#58352f"/><path d="m26 17.3c.1-.3.4-.3.7-.3-.2.2-.5.2-.7.3z" fill="#58352f"/><path d="m97.4 26.1c-.3-.1-.4-.3-.4-.6.2.1.4.3.4.6z" fill="#583630"/><path d="m98.1 27.1c-.2-.1-.4-.3-.4-.6.2.1.4.3.4.6z" fill="#583630"/><path d="m87.4 17.2c.2 0 .4.1.5.2-.3.1-.4 0-.5-.2z" fill="#58352f"/><path d="m89.3 18.4c.2 0 .4.1.4.3-.2-.1-.4-.1-.4-.3z" fill="#58352f"/><path d="m95.4 23.6c-.2 0-.3-.1-.3-.4.2.1.3.2.3.4z" fill="#583630"/><path d="m96.5 24.9c-.2 0-.3-.2-.3-.4.2.1.3.2.3.4z" fill="#583630"/><path d="m98.5 27.5c-.2-.1-.3-.2-.3-.4.1.1.3.2.3.4z" fill="#583630"/><path d="m98.9 28.2c-.2-.1-.3-.2-.3-.5.2.1.2.3.3.5z" fill="#583630"/><path d="m99.3 28.9c-.2-.1-.3-.3-.3-.5.2.1.3.3.3.5z" fill="#583630"/><path d="m87.1 17c .1.1.2.1.3.2-.1-.1-.2-.1-.3-.2z" fill="#58352f"/><path d="m90.2 18.2c-.1-.1-.2-.1-.3-.2.1 0 .2.1.3.2z" fill="#58352f"/><g fill="#583630"><path d="m94.6 22.6c-.1-.1-.2-.2-.2-.2s.1.1.2.2z"/><path d="m95 23.1c-.1-.1-.1-.2-.2-.2.1 0 .2.1.2.2z"/><path d="m95.8 24c-.1-.1-.1-.2-.2-.3 0 .1.1.2.2.3z"/><path d="m96 24.2c-.1-.1-.1-.2-.2-.2 0 .1.1.2.2.2z"/><path d="m96.2 24.5c-.1-.1-.1-.2-.2-.2 0 0 .1.1.2.2z"/><path d="m96.9 25.4c-.1-.1-.1-.2-.2-.3.1.1.1.2.2.3z"/><path d="m97.6 26.4c-.1-.1-.1-.2-.2-.3.1.1.1.2.2.3z"/></g></svg>