<?xml version="1.0" encoding="utf-8"?>
<!-- Generator: Adobe Illustrator 24.0.2, SVG Export Plug-In . SVG Version: 6.00 Build 0)  -->
<svg version="1.1" id="Capa_1" xmlns="http://www.w3.org/2000/svg" xmlns:xlink="http://www.w3.org/1999/xlink" x="0px" y="0px"
	 viewBox="0 0 566.9 566.9" style="enable-background:new 0 0 566.9 566.9;" xml:space="preserve">
<style type="text/css">
	.st0{fill:#FFFFFF;}
	.st1{fill:#EF7D00;}
	.st2{enable-background:new    ;}
</style>
<title>Securitate</title>
<circle class="st0" cx="283.5" cy="283.5" r="279.2"/>
<circle class="st1" cx="283.5" cy="283.5" r="245.1"/>
<path class="st0" d="M109.1,294.2c6.8,11.1,15.8,20.8,26.3,28.4c23.6,17.1,50.4,25.8,78.7,30.6c39.3,6.6,78.2,5.8,116.3-7.1
	c14.9-5,28.5-12.5,39.3-24.3c8.5-9.2,13.3-20,13.8-32.6s-4.6-21.9-15.8-27.6c-6.2-3.2-12.8-5.7-19.1-8.7c-2-0.9-4.3-1.6-5.8-4.3
	c5.9-2.3,11.4-0.2,16.8,0.4c9.9,1,19.6,3.3,28.9,6.8c17.7,6.8,29.9,19.6,36.7,37c7.1,18.1-0.1,37.8-17.4,51.5
	c-18.4,14.6-40.1,21.1-62.7,25c-30.2,5.2-60.7,7.4-91.2,5.7c-35.8-2-70.6-9-102.8-25.7c-9.7-4.9-18.6-11.4-26.3-19.1
	c-8.7-8.9-13.8-19.6-16.3-31.7C108.3,297.2,107.6,295.8,109.1,294.2z"/>
<path class="st0" d="M462.5,272.8c-6.7-10-15-18.9-24.5-26.4c-22.3-17.1-48-26.2-75.2-31.4c-37.5-7.1-74.9-7.3-112.1,2.7
	c-16.9,4.6-32.7,11.5-45.7,23.5s-19.3,27.1-16.9,45c0.9,6.5,4.3,11.5,9.5,15.5c6.6,5,14.3,7.7,21.8,11.1c2.1,1,4.2,2,6.3,3
	c0.8,0.4,1.8,1,1.5,2.2s-1.5,1-2.4,1.1c-28.4,4.1-64-14.2-76.7-39.4c-8.4-16.7-5.8-34.8,6.7-48.7c16.3-18.1,37.8-26.2,60.7-31.1
	c32.7-7,66.3-9.6,99.7-7.8c36.5,1.9,72.2,8.8,105,26.1c15,7.9,28.2,17.9,36.4,33.4C460,258.1,461.6,265.2,462.5,272.8z"/>
<path d="M160,455.7c-0.8,2.7-2.3,5.3-5.2,3.4c-4.7-3.1-9.1-6.4-13.4-10.1c-1.9-1.5-0.5-3.2,0.6-4.5s2.2-3.5,4.1-2.2
	c4.9,3.4,9.9,6.9,13.5,11.8C159.8,454.5,160,455.1,160,455.7z"/>
<path d="M283.2,18.9C140.6,19,19,133,18.9,283.4C18.8,434.1,141.4,548.6,283.7,548C426,548.4,548.3,433.6,548,283
	C547.7,133.1,426.4,18.8,283.2,18.9z M152.3,226.9c12.9-14.1,29.4-22.1,47.3-27.6c22.1-6.7,44.8-9.2,67.8-10.8
	c10.9-0.7,21.7-1.3,32.6-1.4c42.4,0.7,83.5,7.3,121.9,26.7c10.3,5.1,19.7,11.9,27.7,20.1c13.2,13.8,18.3,30.8,19.3,49.4
	c0.1,2,0.6,4.7-2.2,5.3c-2.3,0.5-3.4-1.7-4.1-3.5c-11.1-26.9-32.6-42.7-58.4-53c-52.3-20.9-105.7-23.9-159.8-7.8
	c-16.8,5-32.1,13.1-43,27.6c-6.3,8-9.6,18-9.4,28.2c0.1,8.8,3.7,15.3,11,19.9c4.8,3.1,10.1,5.1,15.3,7.3c4.7,1.8,9.2,4.1,13.5,6.9
	c1.9,1.4,4,2.8,3.2,5.6c-0.7,2.5-3,3.2-5.1,3.3c-32.1,0.6-65.1-6.5-83.6-37.1C134.3,266.3,136.6,244.1,152.3,226.9L152.3,226.9z
	 M302.5,277.1c3.7,10.6-1.4,22.3-11.3,28.9c-14,9.4-29.6,10.8-45.8,9.1c-0.5,0-0.9-0.6-1.7-1.1c3.3-3.4,7.6-4.9,11.4-6.9
	c4.1-2.2,8-4.9,11.4-8c4-3.7,6-8,5.3-13.5c-2.7-20.1,9-29.4,22-34.5c8.2-3.3,16.9-5.1,26.8-4c-4.4,3.4-8.1,6-11.5,9.1
	C303,261.7,299.3,267.7,302.5,277.1L302.5,277.1z M104.1,278.4c2.4-0.6,3.4,1.5,4.1,3.3c12.3,29.1,36,45.3,64.2,55.5
	c51,18.6,102.8,21.3,155,5.2c15.4-4.8,29.3-12.5,40.2-24.8c7.1-7.9,11.2-18,11.6-28.6c0.6-11.3-4.9-19.3-15-24.1
	c-7-3.3-14.2-6.3-21.2-9.8c-3.1-1.6-7.9-3-6.9-7.5c1.1-4.8,6-4.1,9.8-4.1c16,0,31.8,3.1,46.6,9.1c17.8,7.4,30,20.7,36.8,38.5
	c7.3,18.9,0.8,39.5-15.8,54c-16,14-35,21.3-55.4,26c-28.4,6.5-57.3,8-90.8,8.7c-38.9-0.6-81-7.2-120-27.5
	c-8.6-4.5-16.6-10.2-23.7-16.9c-15-14-20.3-32.2-22-51.9C101.6,281.6,101.4,279,104.1,278.4L104.1,278.4z"/>
<path d="M283.2,18.9C140.6,19,19,133,18.9,283.4C18.8,434.1,141.4,548.6,283.7,548C426,548.4,548.3,433.6,548,283
	C547.7,133.1,426.4,18.8,283.2,18.9z M152.3,226.9c12.9-14.1,29.4-22.1,47.3-27.6c22.1-6.7,44.8-9.2,67.8-10.8
	c10.9-0.7,21.7-1.3,32.6-1.4c42.4,0.7,83.5,7.3,121.9,26.7c10.3,5.1,19.7,11.9,27.7,20.1c13.2,13.8,18.3,30.8,19.3,49.4
	c0.1,2,0.6,4.7-2.2,5.3c-2.3,0.5-3.4-1.7-4.1-3.5c-11.1-26.9-32.6-42.7-58.4-53c-52.3-20.9-105.7-23.9-159.8-7.8
	c-16.8,5-32.1,13.1-43,27.6c-6.3,8-9.6,18-9.4,28.2c0.1,8.8,3.7,15.3,11,19.9c4.8,3.1,10.1,5.1,15.3,7.3c4.7,1.8,9.2,4.1,13.5,6.9
	c1.9,1.4,4,2.8,3.2,5.6c-0.7,2.5-3,3.2-5.1,3.3c-32.1,0.6-65.1-6.5-83.6-37.1C134.3,266.3,136.6,244.1,152.3,226.9L152.3,226.9z
	 M302.5,277.1c3.7,10.6-1.4,22.3-11.3,28.9c-14,9.4-29.6,10.8-45.8,9.1c-0.5,0-0.9-0.6-1.7-1.1c3.3-3.4,7.6-4.9,11.4-6.9
	c4.1-2.2,8-4.9,11.4-8c4-3.7,6-8,5.3-13.5c-2.7-20.1,9-29.4,22-34.5c8.2-3.3,16.9-5.1,26.8-4c-4.4,3.4-8.1,6-11.5,9.1
	C303,261.7,299.3,267.7,302.5,277.1L302.5,277.1z M104.1,278.4c2.4-0.6,3.4,1.5,4.1,3.3c12.3,29.1,36,45.3,64.2,55.5
	c51,18.6,102.8,21.3,155,5.2c15.4-4.8,29.3-12.5,40.2-24.8c7.1-7.9,11.2-18,11.6-28.6c0.6-11.3-4.9-19.3-15-24.1
	c-7-3.3-14.2-6.3-21.2-9.8c-3.1-1.6-7.9-3-6.9-7.5c1.1-4.8,6-4.1,9.8-4.1c16,0,31.8,3.1,46.6,9.1c17.8,7.4,30,20.7,36.8,38.5
	c7.3,18.9,0.8,39.5-15.8,54c-16,14-35,21.3-55.4,26c-28.4,6.5-57.3,8-90.8,8.7c-38.9-0.6-81-7.2-120-27.5
	c-8.6-4.5-16.6-10.2-23.7-16.9c-15-14-20.3-32.2-22-51.9C101.6,281.6,101.4,279,104.1,278.4L104.1,278.4z"/>
<g class="st2">
	<path class="st0" d="M162.2,473.8c-6.1-3.8-8-7.6-5.7-11.4l0.7-1.2c2.4-3.9,6.6-3.9,12.7-0.1l3.1,1.9c0.5,0.3,0.7,0.6,0.7,1
		c0,0.4-0.2,0.8-0.5,1.4c-0.3,0.6-0.7,0.9-1,1.1c-0.3,0.2-0.7,0.1-1.2-0.2l-3.2-2c-1.8-1.1-3.3-1.7-4.3-1.7c-1,0-1.8,0.3-2.2,1
		l-0.7,1.2c-0.4,0.7-0.4,1.5,0.1,2.4c0.5,0.9,1.6,2,3.4,3.1l7.3,4.5c6.1,3.8,8,7.6,5.7,11.4l-1,1.6c-2.4,3.9-6.6,3.9-12.7,0.1
		l-15.2-9.3c-0.5-0.3-0.7-0.6-0.7-1c0-0.4,0.2-0.8,0.5-1.4c0.3-0.6,0.7-0.9,1-1.1c0.3-0.2,0.7-0.1,1.2,0.2l15.3,9.4
		c1.8,1.1,3.3,1.7,4.3,1.7c1,0,1.8-0.3,2.2-1l1-1.6c0.4-0.7,0.4-1.5-0.1-2.4c-0.5-0.9-1.6-2-3.4-3.1L162.2,473.8z"/>
</g>
<g class="st2">
	<path class="st0" d="M185.6,487.5l-1.7,3.9c-0.3,0.7-0.1,1.5,0.6,2.4c0.7,0.9,2,1.8,4,2.6l16,6.8c0.5,0.2,0.8,0.5,0.9,0.9
		c0,0.4-0.1,0.9-0.3,1.5c-0.2,0.6-0.5,1-0.8,1.2c-0.3,0.2-0.7,0.3-1.3,0l-16.2-6.9c-6.6-2.8-9-6.3-7.3-10.5l5-11.8
		c1.8-4.2,6-4.8,12.6-2l5,2.1c0.5,0.2,0.8,0.5,0.8,0.9c0,0.4-0.1,0.9-0.3,1.5c-0.3,0.6-0.5,1-0.8,1.3c-0.3,0.2-0.7,0.2-1.2,0
		l-4.9-2.1c-2-0.8-3.5-1.2-4.6-1.1c-1.1,0.1-1.8,0.6-2.1,1.3l-1.8,4.3l21.8,9.3c0.5,0.2,0.8,0.5,0.9,0.9c0,0.4-0.1,0.9-0.3,1.5
		s-0.5,1-0.8,1.3s-0.7,0.2-1.3,0L185.6,487.5z"/>
</g>
<g class="st2">
	<path class="st0" d="M219.6,511.8c-7-1.8-9.9-4.9-8.8-9.3l3.2-12.5c1.1-4.4,5.2-5.7,12.2-3.9l17.3,4.5c0.6,0.1,0.9,0.4,1,0.8
		c0.1,0.4,0.1,0.9-0.1,1.5s-0.4,1.1-0.6,1.4s-0.7,0.3-1.2,0.2l-17.2-4.4c-2.1-0.5-3.7-0.7-4.7-0.4c-1.1,0.3-1.7,0.8-1.9,1.6
		l-3.2,12.5c-0.2,0.8,0.1,1.5,0.9,2.3s2.2,1.4,4.3,2l17.2,4.4c0.6,0.1,0.9,0.4,1,0.8c0.1,0.4,0,0.9-0.1,1.5
		c-0.2,0.6-0.4,1.1-0.6,1.4c-0.3,0.3-0.7,0.4-1.2,0.2L219.6,511.8z"/>
</g>
<g class="st2">
	<path class="st0" d="M254.1,518.7c-7.1-0.7-10.5-3.3-10-7.8l1.8-17.9c0.1-0.7,0.3-1.1,0.8-1.3c0.4-0.2,1-0.2,1.8-0.1
		c0.8,0.1,1.4,0.2,1.8,0.5c0.4,0.3,0.5,0.7,0.5,1.4l-1.8,17.9c-0.1,0.8,0.3,1.5,1.2,2.1c0.9,0.7,2.4,1.1,4.5,1.3l10.8,1.1
		c2.1,0.2,3.7,0.1,4.7-0.4c1-0.5,1.5-1.1,1.6-1.8l1.8-17.9c0.1-0.7,0.3-1.1,0.8-1.3c0.4-0.2,1-0.2,1.8-0.1c0.8,0.1,1.3,0.2,1.7,0.5
		c0.4,0.3,0.5,0.7,0.5,1.4l-1.8,17.9c-0.5,4.5-4.2,6.4-11.4,5.6L254.1,518.7z"/>
</g>
<g class="st2">
	<path class="st0" d="M280.5,496.4c-0.1-1.1,0.5-1.7,1.6-1.8l20.5-1.2c1.7-0.1,3.1-0.1,4.5,0.1c1.3,0.2,2.5,0.5,3.4,1
		c1,0.5,1.7,1,2.2,1.7c0.5,0.7,0.8,1.5,0.9,2.4l0.3,4.6c0.1,0.9-0.1,1.7-0.6,2.5c-0.5,0.8-1.1,1.4-2,2c-0.9,0.6-2,1-3.3,1.4
		c-1.3,0.4-2.8,0.6-4.4,0.7l-1.5,0.1c-1.1,0.1-2,0.1-2.8,0.2c-0.8,0-1.5,0.1-2.1,0.1c-0.6,0-1.2,0-1.6,0c-0.5,0-1,0-1.4,0l0,0.1
		c0.4,0.1,0.8,0.3,1.3,0.4s1,0.3,1.7,0.5c0.7,0.2,1.5,0.5,2.4,0.8c1,0.3,2.1,0.7,3.6,1.2l9,3c0.8,0.3,1.2,0.8,1.3,1.6
		c0,0.7-0.1,1.1-0.6,1.4c-0.4,0.3-1,0.4-1.8,0.5c-0.2,0-0.4,0-0.6,0c-0.3,0-0.5,0-0.8,0c-0.3,0-0.5-0.1-0.8-0.1
		c-0.3,0-0.5-0.1-0.7-0.2l-21.9-7.9l0.5,8c0,0.7-0.1,1.2-0.5,1.4c-0.4,0.2-1,0.4-1.8,0.4c-0.8,0-1.4,0-1.8-0.2
		c-0.4-0.2-0.7-0.6-0.7-1.3L280.5,496.4z M285.4,498.3l0.5,8.6l16.9-1c1.2-0.1,2.3-0.2,3.1-0.4c0.8-0.2,1.4-0.4,1.9-0.6
		c0.5-0.2,0.8-0.5,1-0.8c0.2-0.3,0.3-0.6,0.2-0.9l-0.2-3.9c0-0.3-0.1-0.6-0.3-0.9c-0.2-0.3-0.6-0.5-1.1-0.7c-0.5-0.2-1.2-0.3-2-0.4
		c-0.8-0.1-1.8-0.1-3.1,0L285.4,498.3z"/>
</g>
<g class="st2">
	<path class="st0" d="M323.8,515.5c0.1,0.7,0,1.2-0.4,1.5c-0.4,0.3-1,0.5-1.7,0.6c-0.8,0.1-1.4,0.1-1.8,0s-0.7-0.6-0.8-1.3l-3.8-23
		c-0.1-0.7,0-1.2,0.4-1.5c0.4-0.3,0.9-0.5,1.7-0.6c0.8-0.1,1.4-0.1,1.9,0s0.7,0.6,0.8,1.3L323.8,515.5z"/>
</g>
<g class="st2">
	<path class="st0" d="M338.8,490.8l5.2,20.3c0.2,0.7,0.1,1.2-0.3,1.5s-0.9,0.6-1.7,0.8c-0.8,0.2-1.4,0.2-1.8,0.1s-0.8-0.5-0.9-1.2
		l-5.2-20.3l-10.6,2.7c-0.6,0.1-1,0.1-1.2-0.2c-0.3-0.3-0.5-0.7-0.6-1.4c-0.2-0.6-0.2-1.1-0.1-1.5s0.4-0.6,1-0.8l26-6.6
		c0.6-0.1,1-0.1,1.2,0.2s0.5,0.7,0.6,1.4c0.2,0.6,0.2,1.1,0.1,1.5s-0.4,0.6-1,0.8L338.8,490.8z"/>
</g>
<g class="st2">
	<path class="st0" d="M359.1,480c0.7-0.3,1.2-0.4,1.7-0.3c0.5,0,1,0.2,1.4,0.5l23,15.4c0.3,0.2,0.4,0.4,0.5,0.7
		c0.1,0.2,0.1,0.5,0.1,0.8c-0.1,0.3-0.2,0.6-0.4,0.8c-0.2,0.3-0.4,0.5-0.7,0.7c-0.3,0.2-0.5,0.4-0.8,0.5c-0.3,0.1-0.6,0.2-0.9,0.2
		c-0.3,0-0.6-0.1-0.8-0.3l-6.3-4.3l-18.9,7.3l-1.5,7.3c-0.1,0.3-0.2,0.6-0.4,0.8c-0.2,0.2-0.5,0.4-0.8,0.5c-0.3,0.1-0.6,0.2-0.9,0.2
		c-0.3,0-0.6,0-0.9-0.1c-0.3-0.1-0.6-0.2-0.8-0.4c-0.2-0.2-0.4-0.4-0.5-0.6c-0.1-0.2-0.1-0.5-0.1-0.8l5.7-26.5
		c0.1-0.5,0.3-0.9,0.7-1.3S358.5,480.3,359.1,480z M358,497.4l14-5.4l-11.3-7.8L358,497.4z"/>
</g>
<g class="st2">
	<path class="st0" d="M386.5,471.7l9.9,18.5c0.3,0.6,0.4,1.1,0.1,1.5s-0.7,0.8-1.5,1.1c-0.7,0.4-1.3,0.6-1.7,0.6
		c-0.5,0-0.9-0.3-1.2-0.9l-9.9-18.5l-9.7,5.2c-0.5,0.3-0.9,0.3-1.2,0.1c-0.3-0.2-0.6-0.6-0.9-1.2c-0.3-0.6-0.5-1.1-0.5-1.4
		c0-0.4,0.3-0.7,0.8-1l23.7-12.7c0.5-0.3,0.9-0.3,1.2-0.1c0.3,0.2,0.6,0.6,0.9,1.2c0.3,0.6,0.5,1.1,0.5,1.4c0,0.4-0.3,0.7-0.8,1
		L386.5,471.7z"/>
</g>
<g class="st2">
	<path class="st0" d="M408.3,472.1l2.5,3.5c0.5,0.6,1.2,0.9,2.4,0.8c1.1-0.1,2.5-0.8,4.3-2.1l14.1-10.3c0.5-0.3,0.9-0.4,1.2-0.3
		c0.3,0.2,0.7,0.5,1.1,1c0.4,0.5,0.6,1,0.6,1.3c0.1,0.4-0.2,0.7-0.6,1.1l-14.2,10.4c-5.8,4.2-10.1,4.5-12.7,0.9l-7.6-10.4
		c-2.7-3.7-1.1-7.6,4.7-11.9l4.4-3.2c0.5-0.3,0.8-0.4,1.2-0.3c0.3,0.2,0.7,0.5,1.1,1c0.4,0.5,0.6,1,0.6,1.4c0,0.4-0.2,0.7-0.6,1.1
		l-4.3,3.1c-1.7,1.3-2.8,2.4-3.3,3.4c-0.5,1-0.5,1.8,0,2.5l2.8,3.8l19.2-14c0.5-0.3,0.9-0.4,1.2-0.3c0.3,0.2,0.7,0.5,1.1,1
		c0.4,0.5,0.6,1,0.6,1.4s-0.2,0.7-0.6,1.1L408.3,472.1z"/>
</g>
<g class="st2">
	<path class="st0" d="M60.1,328.6c4.1-1.1,7,1.6,8.8,8l5.1,18.6c0.3,1-0.1,1.7-1.1,1.9l-20.7,5.7c-1,0.3-1.6-0.1-1.9-1.1L45,343.2
		c-1.8-6.5-0.6-10.3,3.4-11.4L60.1,328.6z M69.6,353.4l-4.3-15.6c-0.5-1.9-1.2-3.3-1.9-4s-1.5-1-2.2-0.8l-11.6,3.2
		c-0.7,0.2-1.2,0.8-1.5,1.8c-0.3,1-0.1,2.5,0.4,4.4l4.3,15.6L69.6,353.4z"/>
</g>
<g class="st2">
	<path class="st0" d="M55.1,322l3.9-0.5c0.7-0.1,1.3-0.6,1.7-1.6c0.4-1,0.5-2.4,0.2-4.4l-2-16.1c-0.1-0.5,0-0.9,0.3-1.1
		c0.3-0.2,0.7-0.3,1.3-0.4c0.6-0.1,1,0,1.4,0.1c0.3,0.1,0.5,0.5,0.6,1l2.1,16.3c0.8,6.7-0.8,10.3-5,10.8l-11.9,1.5
		c-4.2,0.5-6.7-2.5-7.5-9.2l-0.6-5c-0.1-0.5,0-0.9,0.3-1.1c0.3-0.2,0.7-0.3,1.3-0.4c0.6-0.1,1.1-0.1,1.4,0.1c0.3,0.1,0.5,0.5,0.6,1
		l0.6,4.9c0.3,2,0.7,3.4,1.3,4.2c0.6,0.8,1.3,1.2,2,1.1l4.3-0.5l-2.8-21.9c-0.1-0.5,0-0.9,0.3-1.1c0.3-0.2,0.7-0.3,1.3-0.4
		s1.1-0.1,1.4,0.1c0.3,0.1,0.5,0.5,0.6,1L55.1,322z"/>
</g>
<g class="st2">
	<path class="st0" d="M41.5,288.5l19.5-0.6c0.7,0,1.1,0.2,1.3,0.5c0.2,0.4,0.3,0.9,0.4,1.7c0,0.7-0.1,1.3-0.3,1.7
		c-0.2,0.4-0.6,0.6-1.3,0.6L41.6,293l0.3,10.2c0,0.5-0.1,0.9-0.4,1.1c-0.3,0.2-0.8,0.3-1.4,0.3c-0.6,0-1.1-0.1-1.4-0.2
		c-0.3-0.2-0.5-0.5-0.5-1.1l-0.8-25c0-0.5,0.1-0.9,0.4-1.1c0.3-0.2,0.8-0.3,1.4-0.3c0.6,0,1.1,0.1,1.4,0.2c0.3,0.2,0.5,0.5,0.5,1.1
		L41.5,288.5z"/>
</g>
<g class="st2">
	<path class="st0" d="M52.3,270.5l4,0.4c0.7,0.1,1.4-0.3,2-1.2c0.6-0.9,1-2.3,1.2-4.3l1.6-16.3c0.1-0.5,0.2-0.9,0.6-1
		c0.3-0.1,0.8-0.2,1.4-0.1c0.6,0.1,1,0.2,1.3,0.4c0.3,0.2,0.4,0.6,0.4,1.1l-1.6,16.4c-0.7,6.7-3.1,9.9-7.3,9.4l-12-1.2
		c-4.2-0.4-6-4-5.3-10.7l0.5-5.1c0.1-0.5,0.2-0.9,0.6-1c0.3-0.1,0.8-0.2,1.4-0.1c0.6,0.1,1.1,0.2,1.4,0.4c0.3,0.2,0.4,0.6,0.4,1.1
		l-0.5,4.9c-0.2,2-0.1,3.5,0.3,4.4c0.4,1,1,1.5,1.8,1.5l4.4,0.4l2.2-22.1c0.1-0.5,0.2-0.9,0.6-1c0.3-0.1,0.8-0.2,1.4-0.1
		c0.6,0.1,1.1,0.2,1.4,0.4c0.3,0.2,0.4,0.6,0.4,1.1L52.3,270.5z"/>
</g>
<g class="st2">
	<path class="st0" d="M67.3,236.7c-1.5,6.5-4.3,9.3-8.5,8.4l-11.7-2.7c-4.1-1-5.4-4.7-3.9-11.2l3.8-16.2c0.1-0.5,0.4-0.8,0.7-0.9
		c0.3-0.1,0.8-0.1,1.4,0.1c0.6,0.1,1,0.3,1.3,0.6s0.3,0.6,0.2,1.1l-3.8,16.1c-0.5,1.9-0.5,3.4-0.2,4.4c0.3,1,0.8,1.6,1.5,1.8
		l11.7,2.7c0.7,0.2,1.4-0.1,2.1-0.9c0.7-0.8,1.3-2.1,1.8-4.1l3.8-16.1c0.1-0.5,0.4-0.8,0.7-0.9c0.3-0.1,0.8-0.1,1.4,0.1
		c0.6,0.1,1,0.3,1.3,0.5c0.3,0.2,0.3,0.6,0.2,1.1L67.3,236.7z"/>
</g>
<g class="st2">
	<path class="st0" d="M57.7,196l18.3,6.9c0.6,0.2,1,0.6,1,1c0.1,0.4,0,1-0.3,1.7c-0.3,0.7-0.5,1.2-0.9,1.5c-0.3,0.3-0.8,0.3-1.4,0.1
		l-18.3-6.9l-3.6,9.6c-0.2,0.5-0.5,0.8-0.8,0.8s-0.8,0-1.4-0.2s-1-0.5-1.2-0.7c-0.2-0.3-0.2-0.7-0.1-1.2l8.8-23.4
		c0.2-0.5,0.5-0.8,0.8-0.8s0.8,0,1.4,0.2c0.6,0.2,1,0.5,1.2,0.7c0.2,0.3,0.2,0.7,0.1,1.2L57.7,196z"/>
</g>
<g class="st2">
	<path class="st0" d="M83.1,186.6c0.6,0.3,0.9,0.6,0.9,1.1c0,0.4-0.1,1-0.4,1.7c-0.3,0.7-0.6,1.1-1,1.4s-0.8,0.3-1.4,0l-19.7-9.3
		c-0.6-0.3-0.9-0.6-0.9-1.1s0.1-1,0.4-1.6c0.3-0.7,0.7-1.1,1-1.4c0.3-0.3,0.8-0.3,1.4,0L83.1,186.6z"/>
</g>
<g class="st2">
	<path class="st0" d="M93.7,170.2c-0.3,0.6-0.7,1-1.1,1.2c-0.4,0.3-0.8,0.4-1.3,0.4L65.5,174c-0.3,0-0.6,0-0.8-0.2
		c-0.2-0.1-0.4-0.3-0.5-0.6c-0.1-0.2-0.2-0.5-0.2-0.8c0-0.3,0-0.6,0.1-0.9s0.2-0.6,0.3-0.8s0.4-0.5,0.6-0.7c0.3-0.2,0.5-0.3,0.8-0.4
		l24-1.7l-10.1-21.8c-0.3-0.5-0.2-1,0.1-1.7c0.2-0.3,0.3-0.5,0.6-0.7s0.5-0.4,0.8-0.5c0.3-0.1,0.5-0.2,0.8-0.2c0.3,0,0.5,0,0.8,0.2
		c0.2,0.1,0.4,0.3,0.5,0.6L94,167.3c0.2,0.4,0.3,0.9,0.2,1.4C94.2,169.1,94,169.7,93.7,170.2z"/>
</g>
<g class="st2">
	<path class="st0" d="M97.6,145.4l3.1,2.5c0.6,0.5,1.3,0.5,2.3,0.1c1-0.4,2.1-1.3,3.3-2.9l10.2-12.6c0.3-0.4,0.7-0.6,1-0.5
		c0.3,0.1,0.8,0.3,1.2,0.7c0.5,0.4,0.8,0.7,0.9,1.1c0.1,0.3,0,0.7-0.3,1.1l-10.3,12.7c-4.2,5.2-8,6.5-11.2,3.8l-9.3-7.5
		c-3.3-2.7-2.8-6.6,1.4-11.8l3.2-3.9c0.3-0.4,0.7-0.6,1-0.5c0.3,0.1,0.8,0.3,1.2,0.7c0.5,0.4,0.8,0.7,0.9,1.1c0.1,0.3,0,0.7-0.3,1.1
		l-3.1,3.8c-1.3,1.6-2,2.8-2.1,3.9c-0.2,1,0,1.8,0.6,2.2l3.4,2.7l13.9-17.2c0.3-0.4,0.7-0.6,1-0.5c0.3,0.1,0.8,0.3,1.2,0.7
		c0.5,0.4,0.8,0.7,0.9,1.1c0.1,0.3,0,0.7-0.3,1.1L97.6,145.4z"/>
</g>
<g class="st2">
	<path class="st0" d="M132.6,119.8c0.5,0.5,0.6,0.9,0.5,1.3c-0.1,0.4-0.5,0.9-1,1.4c-0.5,0.5-1,0.8-1.4,0.9
		c-0.4,0.1-0.9-0.1-1.3-0.5l-15-15.9c-0.5-0.5-0.6-0.9-0.5-1.3c0.1-0.4,0.5-0.9,1-1.4c0.5-0.5,1-0.8,1.5-0.9
		c0.4-0.1,0.9,0.1,1.3,0.5L132.6,119.8z"/>
</g>
<g class="st2">
	<path class="st0" d="M157.7,101.2c-0.3,0.2-0.5,0.3-0.6,0.5c-0.2,0.1-0.4,0.2-0.6,0.2s-0.4,0.1-0.7,0.1s-0.6,0-1,0l-27.8-1
		l10.8,13.7c0.4,0.5,0.5,1,0.3,1.4c-0.2,0.4-0.6,0.8-1.2,1.3c-0.6,0.5-1.1,0.7-1.5,0.8c-0.4,0.1-0.8-0.1-1.3-0.7l-13.5-17.2
		c-0.4-0.5-0.5-1-0.4-1.3c0.2-0.4,0.5-0.8,1.1-1.2c0.6-0.5,1.1-0.8,1.6-0.9s1-0.2,1.7-0.1l27.5,1.1l-10.8-13.8
		c-0.4-0.5-0.5-1-0.3-1.4c0.2-0.4,0.6-0.8,1.1-1.3c0.6-0.5,1.1-0.7,1.5-0.8c0.4-0.1,0.9,0.1,1.3,0.7l13.5,17.2
		c0.4,0.5,0.5,1,0.3,1.4C158.8,100.3,158.4,100.7,157.7,101.2z"/>
</g>
<g class="st2">
	<path class="st0" d="M164.5,84.5c-5.8,3.3-9.8,3.2-11.9-0.5l-0.7-1.1c-2.1-3.7-0.2-7.2,5.6-10.5l2.9-1.7c0.5-0.3,0.9-0.3,1.2-0.1
		c0.3,0.2,0.6,0.5,0.9,1.1c0.3,0.5,0.5,1,0.5,1.3c0,0.4-0.2,0.7-0.7,0.9l-3,1.7c-1.7,1-2.8,1.9-3.3,2.8c-0.5,0.9-0.5,1.6-0.1,2.3
		l0.7,1.1c0.4,0.6,1,1,2,1c1,0,2.3-0.4,4.1-1.4l7-4c5.8-3.3,9.8-3.2,11.9,0.5l0.8,1.5c2.1,3.7,0.2,7.2-5.6,10.5l-14.4,8.3
		c-0.5,0.3-0.9,0.3-1.2,0.1c-0.3-0.2-0.6-0.5-0.9-1.1c-0.3-0.5-0.5-1-0.5-1.3c0-0.4,0.2-0.7,0.7-0.9l14.5-8.4c1.7-1,2.8-1.9,3.3-2.8
		c0.5-0.9,0.5-1.6,0.1-2.3l-0.8-1.5c-0.4-0.6-1-1-2-1c-1,0-2.3,0.4-4.1,1.4L164.5,84.5z"/>
</g>
<g class="st2">
	<path class="st0" d="M178.5,62.5c-0.4-1-0.1-1.7,0.9-2l17.9-7.1c1.4-0.6,2.8-1,4-1.2c1.2-0.2,2.4-0.3,3.3-0.1
		c1,0.1,1.8,0.4,2.5,0.9c0.7,0.5,1.2,1.1,1.5,1.9l1.8,4.6c0.3,0.8,0.4,1.6,0.2,2.4c-0.2,0.8-0.6,1.6-1.2,2.3
		c-0.6,0.8-1.5,1.5-2.5,2.2c-1.1,0.7-2.3,1.3-3.7,1.9L188,74.2l2.7,6.7c0.2,0.6,0.2,1.1-0.1,1.4c-0.3,0.3-0.8,0.6-1.5,0.9
		c-0.7,0.3-1.2,0.4-1.7,0.3c-0.4,0-0.8-0.4-1-1L178.5,62.5z M183.4,62.7l3.2,8l14.8-5.9c1.1-0.4,1.9-0.8,2.6-1.2
		c0.7-0.4,1.2-0.8,1.5-1.1c0.4-0.3,0.6-0.7,0.6-1s0.1-0.6-0.1-0.9l-1.6-4c-0.1-0.3-0.3-0.5-0.6-0.7c-0.3-0.2-0.7-0.3-1.1-0.3
		c-0.5,0-1.1,0.1-1.9,0.2c-0.7,0.2-1.7,0.5-2.7,0.9L183.4,62.7z"/>
</g>
<g class="st2">
	<path class="st0" d="M219,61l1,3.9c0.2,0.7,0.8,1.2,1.8,1.5c1,0.3,2.5,0.2,4.4-0.3l15.8-3.9c0.5-0.1,0.9-0.1,1.1,0.2
		c0.2,0.3,0.4,0.7,0.6,1.3c0.1,0.6,0.2,1,0.1,1.4c-0.1,0.3-0.4,0.6-0.9,0.7l-15.9,3.9c-6.5,1.6-10.3,0.4-11.3-3.7l-2.9-11.6
		c-1-4.1,1.7-6.9,8.2-8.6l4.9-1.2c0.5-0.1,0.9-0.1,1.1,0.2c0.2,0.3,0.4,0.7,0.6,1.3c0.1,0.6,0.2,1.1,0.1,1.4
		c-0.1,0.3-0.4,0.6-0.9,0.7l-4.8,1.2c-1.9,0.5-3.3,1.1-4,1.8c-0.8,0.7-1,1.4-0.9,2.2l1,4.2l21.4-5.3c0.5-0.1,0.9-0.1,1.1,0.2
		c0.2,0.3,0.4,0.7,0.6,1.3s0.2,1.1,0.1,1.4s-0.4,0.6-0.9,0.7L219,61z"/>
</g>
<g class="st2">
	<path class="st0" d="M255.9,64.1c-6.7,0.7-10.2-1-10.7-5.2L244,47c-0.5-4.2,2.7-6.6,9.3-7.4l16.6-1.8c0.5-0.1,0.9,0.1,1.1,0.3
		c0.2,0.3,0.3,0.7,0.4,1.3s0,1.1-0.1,1.4c-0.1,0.3-0.5,0.5-1,0.6l-16.4,1.8c-2,0.2-3.4,0.6-4.2,1.2c-0.8,0.6-1.2,1.3-1.2,2l1.3,11.9
		c0.1,0.7,0.6,1.3,1.6,1.7c1,0.4,2.4,0.5,4.4,0.3l16.5-1.8c0.5-0.1,0.9,0.1,1.1,0.3c0.2,0.3,0.3,0.7,0.4,1.3c0.1,0.6,0,1-0.1,1.4
		c-0.1,0.3-0.5,0.5-1,0.6L255.9,64.1z"/>
</g>
<g class="st2">
	<path class="st0" d="M291.1,41.5L290.7,61c0,0.7-0.2,1.1-0.6,1.3c-0.4,0.2-1,0.3-1.7,0.3c-0.7,0-1.3-0.1-1.7-0.3
		c-0.4-0.2-0.6-0.6-0.6-1.3l0.4-19.5l-10.2-0.2c-0.5,0-0.9-0.2-1.1-0.5c-0.2-0.3-0.2-0.8-0.2-1.4c0-0.6,0.1-1.1,0.3-1.4
		s0.5-0.4,1.1-0.4l25,0.5c0.5,0,0.9,0.2,1.1,0.5s0.2,0.8,0.2,1.4c0,0.6-0.1,1.1-0.3,1.4c-0.2,0.3-0.5,0.4-1.1,0.4L291.1,41.5z"/>
</g>
<g class="st2">
	<path class="st0" d="M312.6,64.2c-6.6-1-9.7-3.6-9-7.8l1.8-11.9c0.6-4.2,4.3-5.8,10.9-4.8l9.8,1.5c6.6,1,9.7,3.6,9,7.8L333.3,61
		c-0.6,4.2-4.3,5.8-10.9,4.8L312.6,64.2z M322.8,62.1c2,0.3,3.5,0.3,4.4-0.1c1-0.4,1.5-0.9,1.6-1.6l1.8-11.9
		c0.1-0.7-0.2-1.4-1.1-2.1c-0.8-0.6-2.2-1.1-4.2-1.4l-9.5-1.4c-2-0.3-3.5-0.3-4.4,0.1c-1,0.4-1.5,0.9-1.6,1.7L308,57.1
		c-0.1,0.7,0.2,1.4,1.1,2.1c0.8,0.7,2.2,1.1,4.2,1.4L322.8,62.1z"/>
</g>
<g class="st2">
	<path class="st0" d="M341.2,45.7c0.3-1,1-1.3,2-1l18.3,5.6c1.5,0.5,2.8,1,3.9,1.6c1.1,0.6,2,1.3,2.7,2s1.1,1.5,1.4,2.2
		s0.2,1.6,0,2.4l-1.3,4.1c-0.2,0.8-0.7,1.5-1.3,2s-1.4,0.9-2.4,1.1c-1,0.2-2.1,0.2-3.3,0.1c-1.3-0.1-2.6-0.4-4.1-0.9l-1.3-0.4
		c-1-0.3-1.8-0.5-2.5-0.8c-0.7-0.2-1.3-0.4-1.9-0.6c-0.5-0.2-1-0.3-1.4-0.5c-0.4-0.2-0.8-0.3-1.2-0.5l0,0.1c0.3,0.2,0.6,0.5,1,0.8
		c0.4,0.3,0.8,0.6,1.3,1c0.5,0.4,1.1,0.9,1.9,1.5c0.7,0.6,1.6,1.3,2.7,2.2l6.9,5.6c0.6,0.5,0.8,1.1,0.6,1.8c-0.2,0.6-0.5,0.9-0.9,1
		c-0.4,0.1-1,0-1.7-0.2c-0.2,0-0.3-0.1-0.6-0.2c-0.2-0.1-0.5-0.2-0.7-0.3c-0.2-0.1-0.4-0.2-0.7-0.3s-0.4-0.3-0.5-0.4l-16.5-14.1
		l-2.2,7.1c-0.2,0.6-0.5,1-0.9,1.1s-1,0-1.7-0.2c-0.7-0.2-1.2-0.5-1.5-0.8c-0.3-0.3-0.4-0.8-0.2-1.4L341.2,45.7z M344.9,49.1
		l-2.4,7.7l15.1,4.7c1.1,0.3,2,0.6,2.8,0.7c0.8,0.1,1.4,0.1,1.9,0.1s0.9-0.2,1.1-0.4c0.3-0.2,0.4-0.4,0.5-0.7l1.1-3.5
		c0.1-0.3,0.1-0.6,0-0.9c-0.1-0.3-0.3-0.6-0.7-0.9c-0.4-0.3-0.9-0.6-1.6-1c-0.7-0.3-1.6-0.7-2.7-1L344.9,49.1z"/>
</g>
<g class="st2">
	<path class="st0" d="M376.3,82.7c-0.5-0.2-0.7-0.5-0.7-0.9c0-0.4,0.1-0.8,0.4-1.4c0.3-0.5,0.5-0.9,0.8-1.1c0.3-0.2,0.7-0.2,1.2,0.1
		l2.1,1c1.8,0.9,3.2,1.3,4.3,1.2c1-0.1,1.7-0.4,2.1-1.1l7.6-15.2c0.3-0.6,0.7-0.9,1.1-0.9c0.4,0,1,0.2,1.7,0.5
		c0.7,0.3,1.1,0.7,1.4,1s0.2,0.8-0.1,1.4l-7.6,15.2c-1.9,3.8-5.9,4.2-11.9,1.1L376.3,82.7z"/>
</g>
<g class="st2">
	<path class="st0" d="M398.8,82.7l-2.1,3.4c-0.4,0.6-0.3,1.4,0.2,2.3s1.6,1.9,3.3,3l13.7,8.7c0.5,0.3,0.7,0.6,0.7,1
		s-0.2,0.8-0.5,1.3c-0.3,0.5-0.6,0.8-0.9,1c-0.3,0.2-0.7,0.1-1.2-0.2l-13.9-8.8c-5.7-3.6-7.4-7.2-5.1-10.7l6.4-10.2
		c2.3-3.6,6.2-3.6,11.9,0l4.3,2.7c0.4,0.3,0.7,0.6,0.6,0.9c0,0.3-0.2,0.8-0.5,1.3c-0.3,0.5-0.6,0.9-1,1c-0.3,0.2-0.7,0.1-1.1-0.2
		l-4.2-2.6c-1.7-1.1-3.1-1.6-4.1-1.7c-1-0.1-1.8,0.2-2.2,0.9l-2.3,3.7l18.7,11.8c0.5,0.3,0.7,0.6,0.7,1s-0.2,0.8-0.5,1.3
		c-0.3,0.5-0.6,0.9-1,1c-0.3,0.2-0.7,0.1-1.2-0.2L398.8,82.7z"/>
</g>
<g class="st2">
	<path class="st0" d="M422.4,111.5c-5.2-4.3-6.4-8.1-3.7-11.3l10.8-13c0.4-0.5,0.8-0.7,1.3-0.6c0.4,0.1,0.9,0.4,1.5,0.8
		c0.6,0.5,0.9,0.9,1.1,1.3c0.2,0.4,0,0.9-0.4,1.4l-10.8,13c-0.5,0.6-0.5,1.3-0.2,2.3c0.4,1,1.3,2.1,2.8,3.4l12.8,10.7
		c0.4,0.3,0.6,0.7,0.5,1s-0.3,0.7-0.7,1.2c-0.4,0.5-0.8,0.8-1.1,0.9c-0.3,0.1-0.7,0-1.1-0.3L422.4,111.5z"/>
</g>
<g class="st2">
	<path class="st0" d="M447,119.6l-2.9,2.7c-0.5,0.5-0.7,1.2-0.4,2.3c0.2,1,1,2.3,2.4,3.7l11,11.9c0.4,0.4,0.5,0.8,0.4,1.1
		c-0.1,0.3-0.4,0.7-0.8,1.1c-0.4,0.4-0.8,0.6-1.2,0.7c-0.3,0.1-0.7-0.1-1.1-0.5l-11.1-12c-4.6-4.9-5.3-8.8-2.2-11.7l8.8-8.2
		c3.1-2.9,6.9-1.8,11.5,3.1l3.4,3.7c0.4,0.4,0.5,0.7,0.4,1.1c-0.1,0.3-0.4,0.7-0.8,1.1c-0.4,0.4-0.8,0.7-1.2,0.7
		c-0.3,0.1-0.7-0.1-1-0.4l-3.3-3.6c-1.4-1.5-2.5-2.4-3.5-2.7c-1-0.3-1.8-0.2-2.3,0.3l-3.2,3l15,16.2c0.4,0.4,0.5,0.8,0.4,1.1
		c-0.1,0.3-0.4,0.7-0.8,1.1s-0.8,0.7-1.2,0.7c-0.3,0.1-0.7-0.1-1.1-0.5L447,119.6z"/>
</g>
<g class="st2">
	<path class="st0" d="M472.8,168.6c-0.2-0.3-0.3-0.5-0.4-0.7c-0.1-0.2-0.2-0.4-0.2-0.6c0-0.2,0-0.4,0-0.7c0-0.3,0-0.6,0.1-1
		l2.6-27.5l-14.3,9.9c-0.5,0.4-1,0.5-1.4,0.3c-0.4-0.2-0.8-0.6-1.2-1.2c-0.4-0.6-0.6-1.1-0.7-1.5c-0.1-0.4,0.2-0.8,0.7-1.2
		l17.8-12.4c0.5-0.4,1-0.5,1.4-0.3c0.4,0.2,0.8,0.6,1.2,1.1c0.4,0.6,0.7,1.2,0.8,1.6c0.1,0.5,0.1,1,0,1.7l-2.7,27.2l14.3-9.9
		c0.5-0.4,1-0.5,1.4-0.3c0.4,0.2,0.8,0.6,1.2,1.2c0.4,0.6,0.7,1.1,0.7,1.6c0.1,0.4-0.2,0.8-0.7,1.2l-17.8,12.4
		c-0.5,0.4-1,0.5-1.4,0.3C473.6,169.7,473.2,169.2,472.8,168.6z"/>
</g>
<g class="st2">
	<path class="st0" d="M504.6,175.7c0.3,0.6,0.4,1.1,0.4,1.6c0,0.5-0.1,0.9-0.3,1.3l-12.5,22.7c-0.2,0.3-0.4,0.4-0.6,0.6
		c-0.2,0.1-0.5,0.1-0.7,0.1c-0.3,0-0.5-0.1-0.8-0.3c-0.2-0.1-0.5-0.3-0.7-0.6c-0.2-0.2-0.4-0.5-0.5-0.7c-0.1-0.3-0.2-0.6-0.2-0.8
		c0-0.3,0-0.5,0.2-0.8l3.5-6.2l-8.3-17l-6.9-0.8c-0.3,0-0.5-0.1-0.8-0.3c-0.2-0.2-0.4-0.4-0.5-0.7c-0.1-0.2-0.2-0.5-0.3-0.8
		c0-0.3,0-0.6,0-0.9s0.1-0.5,0.3-0.8c0.1-0.2,0.3-0.4,0.6-0.5c0.2-0.1,0.5-0.1,0.8-0.1l25.2,3.2c0.5,0.1,0.9,0.2,1.2,0.5
		C504,174.7,504.3,175.1,504.6,175.7z M488.3,176.1l6.2,12.6l6.3-11.1L488.3,176.1z"/>
</g>
<g class="st2">
	<path class="st0" d="M509.3,215.4l13.9,14.9c0.3,0.3,0.5,0.6,0.6,0.9c0.2,0.3,0.3,0.9,0.5,1.6c0.1,0.5,0.1,0.9-0.1,1.3
		c-0.2,0.4-0.5,0.7-1,0.8c-0.7,0.2-1.3,0-1.8-0.7l-13.4-15.3l-4.5,20.6c-0.2,0.8-0.6,1.3-1.2,1.4c-0.5,0.1-0.9,0.1-1.3-0.2
		c-0.3-0.3-0.6-0.7-0.7-1.2c-0.2-0.7-0.3-1.3-0.3-1.7c0-0.4,0-0.7,0.1-1.1l4.8-20.4l-8.4,2.2c-0.6,0.2-1.1,0.1-1.4-0.2
		c-0.3-0.3-0.5-0.8-0.7-1.6c-0.2-0.7-0.2-1.3-0.1-1.7c0.1-0.4,0.5-0.7,1.1-0.9l21-5.5c0.6-0.2,1.1-0.1,1.4,0.2
		c0.3,0.3,0.5,0.8,0.7,1.5c0.2,0.7,0.2,1.3,0.1,1.7c-0.1,0.4-0.5,0.7-1.1,0.9L509.3,215.4z"/>
</g>
<g class="st2">
	<path class="st0" d="M502.3,251.6c-0.8-6.7,0.9-10.2,5.1-10.8l11.9-1.5c4.2-0.5,6.7,2.6,7.5,9.2l1.2,9.8c0.8,6.7-0.9,10.2-5.1,10.8
		l-11.9,1.5c-4.2,0.5-6.7-2.6-7.5-9.2L502.3,251.6z M507.1,260.9c0.2,2,0.7,3.4,1.3,4.2c0.6,0.8,1.3,1.2,2,1.1l11.9-1.5
		c0.7-0.1,1.3-0.6,1.7-1.6c0.4-1,0.5-2.4,0.2-4.4l-1.2-9.6c-0.2-2-0.7-3.4-1.3-4.2c-0.6-0.8-1.3-1.2-2-1.1l-11.9,1.5
		c-0.7,0.1-1.3,0.6-1.7,1.6s-0.5,2.4-0.2,4.4L507.1,260.9z"/>
</g>
<g class="st2">
	<path class="st0" d="M504.3,289c0-0.7,0.1-1.2,0.3-1.6c0.2-0.4,0.5-0.8,0.9-1l21.5-14.4c0.3-0.2,0.6-0.3,0.8-0.3
		c0.2,0,0.5,0.1,0.7,0.3c0.2,0.2,0.4,0.4,0.6,0.6c0.2,0.3,0.3,0.6,0.4,0.9c0.1,0.3,0.1,0.6,0.1,0.9c0,0.3-0.1,0.6-0.2,0.9
		c-0.1,0.3-0.3,0.5-0.6,0.7l-20.1,13.3l19.4,14.1c0.5,0.3,0.7,0.8,0.7,1.5c0,0.3-0.1,0.6-0.2,0.9c-0.1,0.3-0.2,0.6-0.4,0.8
		c-0.2,0.2-0.4,0.4-0.6,0.6c-0.2,0.2-0.5,0.2-0.7,0.2c-0.3,0-0.5-0.1-0.7-0.3l-20.8-15.3c-0.4-0.3-0.7-0.6-0.9-1.1
		C504.4,290.2,504.3,289.7,504.3,289z"/>
</g>
<g class="st2">
	<path class="st0" d="M526.6,319.9c-0.1,0.7-0.3,1.2-0.5,1.6c-0.3,0.4-0.6,0.7-1,0.9l-23.2,11.5c-0.3,0.1-0.5,0.2-0.8,0.1
		c-0.2,0-0.5-0.1-0.7-0.3c-0.2-0.2-0.4-0.4-0.5-0.7c-0.1-0.3-0.2-0.5-0.3-0.8c0-0.3,0-0.6,0-0.9c0-0.3,0.1-0.6,0.3-0.8
		c0.1-0.2,0.3-0.4,0.6-0.6l6.4-3.1l2.8-18.7l-5.2-4.6c-0.2-0.2-0.4-0.4-0.4-0.7c-0.1-0.3-0.1-0.6,0-0.8c0-0.3,0.1-0.5,0.3-0.8
		c0.1-0.3,0.3-0.5,0.5-0.7c0.2-0.2,0.4-0.4,0.7-0.5c0.2-0.1,0.5-0.2,0.8-0.1c0.2,0,0.5,0.1,0.7,0.3l18.9,17c0.3,0.3,0.6,0.7,0.7,1.1
		C526.7,318.6,526.7,319.2,526.6,319.9z M513,310.9l-2.1,13.9l11.6-5.6L513,310.9z"/>
</g>
<g class="st2">
	<path class="st0" d="M496.4,343c1.9-6.4,4.9-9,8.9-7.8l11.5,3.4c4,1.2,5.1,5,3.2,11.5l-4.8,16c-0.2,0.5-0.4,0.8-0.7,0.9
		c-0.3,0.1-0.8,0-1.4-0.1c-0.6-0.2-1-0.4-1.2-0.6c-0.2-0.3-0.3-0.6-0.1-1.2l4.7-15.8c0.6-1.9,0.7-3.4,0.5-4.4
		c-0.2-1-0.7-1.6-1.4-1.8l-11.5-3.4c-0.7-0.2-1.4,0-2.2,0.8s-1.4,2-2,3.9l-4.7,15.9c-0.2,0.5-0.4,0.8-0.7,0.9
		c-0.3,0.1-0.8,0-1.4-0.2c-0.6-0.2-1-0.4-1.2-0.6c-0.3-0.2-0.3-0.6-0.2-1.1L496.4,343z M526.3,358.2c0.2,0.3,0.3,0.6,0.3,0.9
		c0,0.4-0.1,0.7-0.1,1c-0.2,0.6-0.4,1-0.7,1.4s-0.7,0.5-1,0.4c-0.2-0.1-0.4-0.2-0.5-0.4l-3.2-4.8c-0.2-0.3-0.3-0.6-0.3-1
		c0-0.4,0-0.8,0.2-1.3c0.2-0.5,0.3-0.9,0.6-1.2c0.2-0.3,0.5-0.5,0.8-0.6l5.3-2.3c0.2-0.1,0.5-0.1,0.7-0.1c0.3,0.1,0.6,0.4,0.6,0.9
		c0.1,0.5,0,1-0.1,1.6c-0.1,0.3-0.2,0.6-0.4,1c-0.2,0.3-0.4,0.5-0.7,0.6l-3.1,1.3L526.3,358.2z"/>
</g>
</svg>
