<?xml version="1.0" encoding="UTF-8"?>
<svg id="uuid-267a00ca-8b91-45cf-8198-c675c84752da" data-name="Capa 1" xmlns="http://www.w3.org/2000/svg" viewBox="0 0 566.93 566.93">
  <defs>
    <style>
      .uuid-e533f154-fa36-4b92-a561-53bb6998ff56 {
        fill: #fefdfc;
      }

      .uuid-842442a9-012d-41e8-98a3-fc693cde5efc {
        fill: #fefefe;
      }

      .uuid-0f6ce42f-1616-4d7e-8375-467236e8caef {
        fill: #fffdfc;
      }

      .uuid-766bf1da-69a3-44a3-b276-6bec71bd01ea {
        fill: none;
      }

      .uuid-40f90375-b996-425b-853e-b29328b7d652 {
        fill: #fefcfc;
      }

      .uuid-865919fb-b63f-42ab-8b72-72f86f37e40e {
        fill: #fefdfd;
      }

      .uuid-c27b0c08-0a91-4780-9752-0fef9f00b90e {
        fill: #e73731;
      }

      .uuid-a884874d-7f80-46f5-8de0-479d71d64e41 {
        fill: #010101;
      }

      .uuid-1504941e-20ad-4514-90a1-89d18000db9b {
        fill: #fefefd;
      }
    </style>
  </defs>
  <g>
    <circle class="uuid-c27b0c08-0a91-4780-9752-0fef9f00b90e" cx="283.46" cy="283.46" r="279.21"/>
    <circle class="uuid-a884874d-7f80-46f5-8de0-479d71d64e41" cx="283.46" cy="283.46" r="268.87"/>
    <circle class="uuid-c27b0c08-0a91-4780-9752-0fef9f00b90e" cx="283.46" cy="283.46" r="261.98"/>
    <circle class="uuid-a884874d-7f80-46f5-8de0-479d71d64e41" cx="283.46" cy="283.46" r="178.35"/>
    <circle class="uuid-c27b0c08-0a91-4780-9752-0fef9f00b90e" cx="283.46" cy="283.46" r="171.36"/>
    <circle class="uuid-a884874d-7f80-46f5-8de0-479d71d64e41" cx="283.46" cy="283.46" r="165.72"/>
    <g>
      <circle class="uuid-766bf1da-69a3-44a3-b276-6bec71bd01ea" cx="282.37" cy="285.24" r="241.59"/>
      <path class="uuid-0f6ce42f-1616-4d7e-8375-467236e8caef" d="M172.28,459.04l13.71,7.45c4.02,2.18,6.3,5.22,6.85,9.1.55,3.88-.54,8.32-3.25,13.32-1.64,3.01-3.51,5.49-5.63,7.41-2.12,1.93-4.29,3.17-6.51,3.72-1.56.38-3.16.36-4.8-.08-1.64-.43-3.4-1.17-5.3-2.2l-12.43-6.75,17.36-31.97ZM169.54,491.17c1.57.85,3.03,1.43,4.38,1.74,1.35.3,2.63.28,3.84-.08,1.21-.36,2.38-1.09,3.49-2.2,1.12-1.1,2.21-2.65,3.29-4.63,1.77-3.26,2.53-6.06,2.28-8.39-.25-2.33-1.55-4.13-3.89-5.4l-8.8-4.78-11,20.26,6.4,3.48Z"/>
      <path class="uuid-0f6ce42f-1616-4d7e-8375-467236e8caef" d="M202.12,474.59l19.6,6.89c1.77.62,2.89,1.59,3.36,2.9.47,1.31.28,3.16-.56,5.56l-2.83,8.05c-.84,2.39-1.85,3.96-3.04,4.69-1.19.73-2.67.78-4.44.16l-3.02-1.06,6,16.68-7.63-2.68-4.67-16.21-5.06-1.78-4.56,12.97-5.23-1.84,12.06-34.32ZM205.28,482.34l-3.37,9.58,11.97,4.21c.83.29,1.49.34,1.99.14.5-.2.96-.87,1.36-2.03l1.45-4.12c.41-1.15.47-1.96.21-2.43-.27-.47-.81-.85-1.64-1.14l-11.97-4.21Z"/>
      <path class="uuid-0f6ce42f-1616-4d7e-8375-467236e8caef" d="M231.01,488.95c.4-1.07.89-1.88,1.46-2.42s1.26-.87,2.06-.99c.8-.12,1.76-.08,2.87.12l17.58,3.16c1.11.2,2.02.49,2.73.88.71.39,1.24.94,1.59,1.65.35.71.53,1.63.53,2.78,0,1.15-.15,2.55-.45,4.22l-3.39,18.87c-.3,1.67-.65,3.04-1.05,4.11-.4,1.07-.89,1.88-1.46,2.42s-1.26.87-2.06.99-1.76.08-2.87-.12l-17.58-3.16c-1.11-.2-2.02-.49-2.73-.88-.71-.39-1.24-.94-1.59-1.65-.35-.71-.53-1.63-.53-2.78,0-1.15.15-2.55.45-4.22l3.39-18.87c.3-1.67.65-3.04,1.05-4.11ZM250.12,517.96l4.08-22.69-18.32-3.29-4.08,22.69,18.32,3.29Z"/>
      <path class="uuid-0f6ce42f-1616-4d7e-8375-467236e8caef" d="M266.7,490.19l20.77.47c1.88.04,3.25.62,4.1,1.72.85,1.1,1.25,2.92,1.19,5.46l-.19,8.11c-.06,2.54-.54,4.34-1.44,5.4s-2.29,1.57-4.17,1.53l-15.22-.35-.33,14.17-5.54-.13.83-36.37ZM272.1,496.59l-.22,9.66,12.69.29c.88.02,1.52-.14,1.94-.48.42-.34.64-1.12.67-2.35l.09-3.88c.03-1.22-.16-2.01-.56-2.38-.4-.36-1.04-.55-1.91-.57l-12.69-.29Z"/>
      <path class="uuid-0f6ce42f-1616-4d7e-8375-467236e8caef" d="M319.62,517.22l15.77-3.1-5.69-28.99,5.54-1.09,5.35,27.26c.33,1.66.5,3.06.51,4.21.02,1.15-.14,2.08-.48,2.79-.34.71-.86,1.27-1.56,1.67-.71.4-1.61.71-2.72.93l-15.03,2.95c-1.11.22-2.06.27-2.87.17-.8-.1-1.5-.42-2.08-.96-.58-.53-1.08-1.33-1.5-2.4s-.79-2.43-1.12-4.09l-5.35-27.26,5.53-1.09,5.69,28.99Z"/>
      <path class="uuid-0f6ce42f-1616-4d7e-8375-467236e8caef" d="M341.17,482.42l3.61-1.36,23.52,14.04c.68.4,1.35.81,2,1.24.65.43,1.31.93,1.99,1.47-.59-1.38-1.09-2.56-1.51-3.54-.42-.97-.72-1.72-.92-2.25l-6.74-17.88,4.75-1.79,12.83,34.04-3.61,1.36-24.6-14.76c-.49-.32-.97-.64-1.44-.96-.47-.32-.97-.69-1.49-1.09.59,1.29,1.06,2.38,1.43,3.27.37.89.65,1.58.83,2.06l6.93,18.41-4.75,1.79-12.83-34.04Z"/>
      <path class="uuid-0f6ce42f-1616-4d7e-8375-467236e8caef" d="M373.63,469.08l5.01-2.58,16.65,32.35-5.02,2.58-16.64-32.35Z"/>
      <path class="uuid-0f6ce42f-1616-4d7e-8375-467236e8caef" d="M413.73,488.02l-4.77,3.01-15.96-25.27-9.42,5.95-3.46-5.48,23.64-14.93,3.46,5.48-9.46,5.97,15.96,25.27Z"/>
    </g>
    <g>
      <g>
        <path class="uuid-842442a9-012d-41e8-98a3-fc693cde5efc" d="M79.14,199.67c-11.12-29.6,3.96-58.31,17.02-67.59-.65,24.15-2.37,47.12-17.02,67.59Z"/>
        <path class="uuid-865919fb-b63f-42ab-8b72-72f86f37e40e" d="M64.6,254.94c-17.24-22.68-12.86-54.14-1.24-69.59,5.53,23.58,10.13,46.27,1.24,69.59Z"/>
        <path class="uuid-1504941e-20ad-4514-90a1-89d18000db9b" d="M64.73,312.15c-20.85-15.63-26.96-45.74-19.14-66.87,11.23,21.56,21.79,42.1,19.14,66.87Z"/>
        <path class="uuid-842442a9-012d-41e8-98a3-fc693cde5efc" d="M44.39,308.48c16.18,17.51,31.62,34.72,35.29,59.26-22.64-10.12-40.63-39.77-35.29-59.26Z"/>
        <path class="uuid-865919fb-b63f-42ab-8b72-72f86f37e40e" d="M106.84,154.14c-1.44-16.33,11.62-37.07,28.75-45.64,2,16.01-14.69,42.5-28.75,45.64Z"/>
        <path class="uuid-e533f154-fa36-4b92-a561-53bb6998ff56" d="M134.22,157.23c-11.12,16.55-24.03,28.37-42.97,34.16,5.78-18.43,24.68-33.71,42.97-34.16Z"/>
        <path class="uuid-865919fb-b63f-42ab-8b72-72f86f37e40e" d="M89.79,249.31c3.37,12.8-7.36,40.82-18.76,48.99-4.47-16.67,4.73-40.71,18.76-48.99Z"/>
        <path class="uuid-865919fb-b63f-42ab-8b72-72f86f37e40e" d="M87.72,300.13c6.42,12.62,3.1,42.41-5.58,52.46-8.5-16.04-6.23-38.62,5.58-52.46Z"/>
        <path class="uuid-e533f154-fa36-4b92-a561-53bb6998ff56" d="M105.13,200.35c-.43,13.91-17.78,37.63-30.86,42.7-.49-16.54,14.02-36.81,30.86-42.7Z"/>
      </g>
      <g>
        <path class="uuid-842442a9-012d-41e8-98a3-fc693cde5efc" d="M487.57,199.35c-10.92-14.14-19.94-50.79-16.35-66.43,16.15,6.97,25.11,43.37,16.35,66.43Z"/>
        <path class="uuid-1504941e-20ad-4514-90a1-89d18000db9b" d="M503.37,185.09c11.81,15.85,15.94,47.53-1.18,69.67-8.89-23.03-4.27-45.75,1.18-69.67Z"/>
        <path class="uuid-842442a9-012d-41e8-98a3-fc693cde5efc" d="M521.07,245.69c6.89,13.96,5.3,46.97-18.98,66.81-2.51-24.94,7.6-45.76,18.98-66.81Z"/>
        <path class="uuid-865919fb-b63f-42ab-8b72-72f86f37e40e" d="M487.06,367.69c3.81-24.59,19.21-41.93,35.44-59.4,3.37,15.81-7.81,47.74-35.44,59.4Z"/>
        <path class="uuid-865919fb-b63f-42ab-8b72-72f86f37e40e" d="M430.77,108.55c15.75,5.76,30.73,29.17,29.17,45.57-14.05-3.33-28.53-25.95-29.17-45.57Z"/>
        <path class="uuid-40f90375-b996-425b-853e-b29328b7d652" d="M434.25,157.27c15.99-.1,34.85,14.99,41.03,32.81-12.86-.13-37.45-19.79-41.03-32.81Z"/>
        <path class="uuid-865919fb-b63f-42ab-8b72-72f86f37e40e" d="M476.98,249.25c14.09,8.27,22.51,29.83,19.05,48.78-10.88-6.25-22.32-35.54-19.05-48.78Z"/>
        <path class="uuid-e533f154-fa36-4b92-a561-53bb6998ff56" d="M461.85,200.51c15.48,4.26,30.09,24.31,30.82,42.31-12.8-4.14-31.33-29.58-30.82-42.31Z"/>
        <path class="uuid-865919fb-b63f-42ab-8b72-72f86f37e40e" d="M479.11,300.05c11.38,13.65,13.38,31.61,6.14,52.49-9.02-7.54-12.92-39.44-6.14-52.49Z"/>
      </g>
    </g>
    <g>
      <circle class="uuid-766bf1da-69a3-44a3-b276-6bec71bd01ea" cx="282.37" cy="285.24" r="197.96"/>
      <path class="uuid-0f6ce42f-1616-4d7e-8375-467236e8caef" d="M280.16,51.71l-2.08,5.25c-3.18-.87-6.51-2.01-9.99-3.42l.46,3.51-12.83,1.68.8,6.14,21.12-2.76.7,5.38-21.12,2.76,1.91,14.57,22.61-2.96.7,5.32-50.63,6.62-.7-5.32,22.34-2.92-1.91-14.58-20.72,2.71-.7-5.38,20.72-2.71-.8-6.14-13.02,1.7-.44-3.36c-2.18,1.74-4.8,3.56-7.86,5.47l-4.14-4.31c12-7.27,20.06-14.54,24.19-21.81l5.87.88c-.09.39-.32.82-.67,1.3,5.41,4.78,14.15,8.9,26.2,12.36ZM248.7,83.27l-5.02,2.49c-1.82-2.52-4.59-5.46-8.3-8.83l5.03-2.9c3.57,3.24,6.34,6.32,8.29,9.23ZM264.87,52.18c-5.81-2.6-10.49-5.27-14.04-8.02-3.13,3.95-6.87,7.73-11.23,11.32l25.27-3.31ZM274.58,71.55c-1.64,4.28-3.46,7.86-5.46,10.75l-5.75-1.67c2.08-2.82,3.94-6.26,5.58-10.33l5.63,1.25Z"/>
      <path class="uuid-0f6ce42f-1616-4d7e-8375-467236e8caef" d="M316.23,44.11c-2.86,6.32-8.77,11.14-17.73,14.46l2.5,1.26c-.26.5-.72,1.05-1.38,1.64l11.63,1.64-.66,4.7-8.94-1.26-.59,4.18,10.25,1.45-.68,4.82-10.25-1.45-1.17,8.3,3.88.55.82-5.8,5.13.72-1.75,12.42-5.13-.72.26-1.86-17.79-2.51,1.49-10.56,5.1.72-.82,5.8,3.88.55,1.17-8.3-10.74-1.52.68-4.82,10.74,1.52.59-4.18-1.98-.28c-1.35,1.05-2.8,1.99-4.35,2.81l-3.71-3.51c2.64-1.2,5.29-2.86,7.96-4.98-2,.5-3.88.87-5.63,1.1l-2.25-4.77c6.31-.58,11.72-2.18,16.24-4.8-2.49-2.38-4.55-4.18-6.21-5.39l-4.48,2.42-2.87-3.89c5.23-2.52,9.52-5.7,12.86-9.54l4.52,1.92c-.86,1.1-1.33,1.67-1.39,1.7l10.83,5.48ZM298.97,52.13c-1.78.41-4.27.83-7.46,1.25l-1.09-3.98c3.15-.28,5.64-.6,7.45-.97l1.09,3.7ZM309.33,46.03l-7.48-3.89-1.38,1.21c2.29,1.86,4.38,3.63,6.25,5.3,1.16-.87,2.03-1.75,2.61-2.62ZM316.59,79.42c-1.02,4.01-2.45,7.63-4.28,10.88l-3.71-1.68c1.73-3.16,3.16-6.66,4.29-10.51l3.71,1.3ZM340.46,71.96l-20.93-2.96-.46,3.23,20.45,2.89c-.31,2.2-.89,5.53-1.75,9.99-.86,4.46-1.62,7.14-2.29,8.03-.67.89-1.49,1.53-2.48,1.92-.99.39-2.52.44-4.59.14l-2.59-.37-.7-5.42c.87.16,1.63.29,2.28.38,1.63.23,2.63.26,3.02.08.39-.17.68-.43.89-.76.2-.33.55-1.58,1.06-3.74.5-2.16.91-4.22,1.23-6.19l-20.26-2.86,4.77-33.75,5.31.75c.91-1.43,1.71-2.93,2.41-4.52l5.33,1.72c-.65,1.49-1.26,2.7-1.85,3.63l11.41,1.61-2.55,18.07-17.55-2.48-.45,3.17,20.93,2.96-.63,4.46ZM320.22,90.33l-3.96.06c.75-3.57,1.2-6.99,1.33-10.27l3.48.06c.03,3.32-.25,6.71-.84,10.15ZM333.59,58.7l.38-2.72-12.36-1.75-.38,2.72,12.36,1.75ZM334.53,52.05l.38-2.68-12.36-1.75-.38,2.69,12.36,1.75ZM326.12,88.18l-3.49.25c.16-2.61.11-5.3-.14-8.05l3.4-.08c.28,2.16.35,4.78.23,7.88ZM331.17,86.34l-3.09.5c-.09-2.44-.3-4.55-.63-6.31l3.09-.28c.45,2.08.66,4.11.63,6.1Z"/>
    </g>
  </g>
  <g>
    <path class="uuid-842442a9-012d-41e8-98a3-fc693cde5efc" d="M372.94,191.36c4.98-8.06,7.35-17.52,7.32-27.01l-.9.14-64.6,47.19,6.97,18.24,51.21-38.56Z"/>
    <path class="uuid-842442a9-012d-41e8-98a3-fc693cde5efc" d="M301.86,342.03l-.88-17.37c-13.58,5.1-31.95,7.25-46.99.9l17.27.95c6.75-.21,14.69-1.23,20.48-3.41,5.29-1.95,13.06-16.09,15.62-21.35,13.44-27.14,15.45-57.84,2.44-85.69l-102.76,75.25,14.87-2.33c1.84-.29,9.32,2.12,11.21,3.33,10.41,6.62,3.12,12.78-3.38,20.47-4.34,1.07-8.98,2.22-13.37,2.52,4.38-5.01,8.42-10.96,13.26-15.5-10.81,8.02-22.28,15.3-32.95,23.49-7.4,5.67-22.11,16.12-25.1,24.88-1.8,5.26-2.93,8.63-4.99,13.93-2.61,6.7-3.55,14.21.71,20.48,18.98-24.27,56.03-38.33,85.64-27.13,5.1,17.75-9.36,32.28-22.1,42.26l-18.15,11.91c11.15-2.68,22.34-4.35,33.87-3.62,24.84-33.13,78.73-34.53,93.03-76.81l-17.58,10.36-20.17,2.47Z"/>
    <path class="uuid-842442a9-012d-41e8-98a3-fc693cde5efc" d="M323.33,249.05l46.4-33.67c5.4-5.93,8.76-12.84,7.84-21.04l-55.43,40.26,1.2,14.44Z"/>
    <path class="uuid-842442a9-012d-41e8-98a3-fc693cde5efc" d="M322.07,270.5l44.71-32.5c5-5.41,7.58-13.82,7.86-21.02l-50.56,37.03-2.02,16.49Z"/>
    <path class="uuid-842442a9-012d-41e8-98a3-fc693cde5efc" d="M315.07,296.55l43.81-32.36c5.49-6.31,9.16-14.08,10.42-22.35l-46.86,34.13-7.38,20.57Z"/>
    <path class="uuid-842442a9-012d-41e8-98a3-fc693cde5efc" d="M301.81,318.04l.14.9c24.05-9.73,43.5-23.96,55.38-47.49l-45.92,33.22c-3.24,4.71-5.82,8.98-9.61,13.37Z"/>
  </g>
</svg>