<?xml version="1.0" encoding="UTF-8"?>
<svg id="Capa_2" xmlns="http://www.w3.org/2000/svg" version="1.1" viewBox="0 0 566.9 566.9">
  <!-- Generator: Adobe Illustrator 29.0.1, SVG Export Plug-In . SVG Version: 2.1.0 Build 192)  -->
  <defs>
    <style>
      .st0 {
        fill: #f6f6f6;
      }

      .st1 {
        fill: #fff;
      }

      .st2 {
        isolation: isolate;
      }

      .st3 {
        fill: #cc1333;
      }
    </style>
  </defs>
  <ellipse class="st0" cx="283.5" cy="283.5" rx="279.5" ry="279.2"/>
  <path class="st3" d="M548.4,253.4c-14.4-132.8-127.7-236.5-265-236.5S32.9,120.6,18.5,253.4h81.1c13.7-87.4,90.5-154.7,182.4-154.5,91.8.2,167.6,67.2,181.4,154.5h85,0Z"/>
  <path class="st3" d="M283.5,550c137.3,0,250.7-103.8,265-236.7h-85c-13.7,88-90,155-182.1,154.8-92.3-.2-167.8-66.9-181.6-154.8H18.5c14.3,132.9,127.7,236.7,265,236.7h0Z"/>
  <path class="st3" d="M559.7,313.3h-7.2c-6.4,61.1-33.4,117.8-77.7,161.9-51.1,50.8-119,78.8-191.3,78.8s-140.2-28-191.3-78.8c-44.3-44.1-71.3-100.7-77.7-161.9H5.7c14.3,140.1,133.2,249.4,277.8,249.4s263.5-109.3,277.8-249.4h-1.6Z"/>
  <path class="st3" d="M14.5,253.4c6.5-61,33.5-117.6,77.7-161.6C143.3,40.9,211.2,12.9,283.5,12.9s140.2,28,191.3,78.8c44.2,44,71.2,100.6,77.7,161.6h8.8C546.8,113.4,428,4.2,283.5,4.2S20.1,113.4,5.7,253.4h8.8Z"/>
  <g class="st2">
    <g class="st2">
      <path class="st1" d="M137.4,85.3l5.7,8.7,4.4-2.9,1.4,2.1,2.1-2.2-5.8-8.8,5.9-3.9,4.9,7.5,3.2-3.3-6-9.1,5.4-3.5,5.2,8,8.8-8.9,2,3.1c3.8,5.8,6.4,10.1,7.9,13,1.5,2.9,2.2,4.9,2.1,6-.1,1.1-.8,2-2,2.9-1,.6-2.3,1.5-4,2.4l-4.5-4.6c.8-.4,1.7-1,2.9-1.7.2-.1.3-.3.3-.4,0-.2-.1-.6-.5-1.3-.3-.7-.9-1.7-1.7-3-.8-1.3-2-3.3-3.5-5.7l-4,3.9,11.5,17.6-5.4,3.5-10.7-16.4-3.1,3.3,12.4,19c.7,1,1.4,1.4,2.2,1.1.8-.3,3.1-1.7,7-4.2,1.1-.7,1.8-1.2,2.3-1.5.5-.3,1-.7,1.6-1.3.6-.5,1-.9,1.1-1.1.2-.2.3-.6.4-1.2.1-.6.1-1.1,0-1.3,0-.3-.3-.9-.7-1.7-.3-.8-.7-1.5-1-2.1-.3-.6-.9-1.5-1.6-2.8l6.5-2.5c1,1.7,1.7,3,2.2,4,.5,1,1,2.1,1.4,3.2.4,1.2.7,2,.7,2.6,0,.6,0,1.4-.3,2.2-.3.9-.6,1.6-1.1,2.1-.4.5-1.2,1.2-2.2,2.2-1,.9-2.1,1.8-3.2,2.5-1.1.7-2.6,1.7-4.4,2.9-2,1.3-3.6,2.4-4.9,3.1-1.2.8-2.4,1.3-3.5,1.8-1.1.4-2,.7-2.6.8-.6,0-1.2,0-1.9-.3-.6-.3-1.2-.7-1.6-1.3-.4-.5-1-1.3-1.6-2.3l-12.4-19-3.4,3.5-2.4-2.8-2.5,1.6,11.3,17.2c1.5-2,2.7-3.6,3.5-4.8l3.6,5.1c-3.4,5.4-7.2,10.3-11.3,14.6l-4.2-5.1c1.2-1.3,2.4-2.6,3.5-3.9l-12.5-19.2-4.1,2.6-3.4-5.2,4.1-2.6-5.7-8.7,6-3.9Z"/>
    </g>
  </g>
  <g class="st2">
    <g class="st2">
      <path class="st1" d="M199.7,67.1l10.9,33.9-6.8,2.2-7.4-23.1c-.6,2.5-1.2,4.4-1.8,5.9l-5-6.5c2.9-7.6,3.9-16.3,2.8-26l6.8-1.1c.8,5.5,1,10.4.6,14.7ZM234,93.1c-1,.3-3,.9-6.1,1.7l-2.2-5.7c2.7-.7,4.4-1.1,5.2-1.4,1.6-.5,2.4-.9,2.6-1.2.2-.3,0-1.1-.3-2.4l-3-9.3-14.7,4.7c3.8,1.7,7.3,3.5,10.5,5.5l-3.2,5.8c-3.1-1.9-6.9-3.8-11.4-5.9l2.6-4.9-7.2,2.3-1.8-5.7,23.4-7.5-1.3-4.2-23.5,7.6-1.9-5.8,13.6-4.4-1.6-4.9-11.3,3.6-1.8-5.6,11.3-3.6-1.7-5.2,7.1-2.3,1.7,5.2,13.1-4.2,1.8,5.6-13.1,4.2,1.6,4.9,15.4-5,1.9,5.8-5.4,1.7,1.3,4.2,5.4-1.7,1.8,5.7-5.4,1.7,2.8,8.9c.5,1.5.8,2.7,1,3.5.2.9.3,1.7.3,2.5,0,.8,0,1.4-.3,1.9-.2.4-.7.9-1.4,1.4-.7.5-1.5.9-2.3,1.2-.8.3-2,.7-3.6,1.2Z"/>
    </g>
  </g>
  <g class="st2">
    <g class="st2">
      <path class="st1" d="M318.5,69.6l-.3,6.3-22-1-.6,12.7-7.5-.3.6-12.7-22-1,.3-6.3,22,1,.3-6.5-20.2-.9.3-6.1,20.2.9.8-18.9,7.5.3-.8,18.9,20.2.9-.3,6.1-20.2-.9-.3,6.5,22,1ZM278.5,38.3c2.3,4.3,4.5,9,6.5,14l-6.7,2c-2.2-5.3-4.3-10-6.5-14l6.7-2.1ZM316.2,41.7c-2,4.5-4.6,9.2-7.8,14l-6.5-2.7c2.9-4.5,5.4-9.2,7.5-13.8l6.7,2.5Z"/>
    </g>
  </g>
  <g class="st2">
    <g class="st2">
      <path class="st1" d="M337.9,66.5c-2.4,6.2-4.6,11.1-6.8,14.7-2.2,3.6-4.7,6.7-7.5,9.4l-3.6-6.4c2.6-2.6,5.1-6.2,7.4-10.8,2.3-4.6,4.9-11.2,7.6-19.7l-3.9-1.3,2-6,7.3,2.4,2-6.3,6.9,2.2-2,6.3,7.5,2.4-1.2,3.5c3.3-2.5,6.4-5.4,9.3-8.7l5.7,3.6c-.8,1-1.7,2-2.5,2.9l16.8,5.5-1.9,5.9-5.4-1.8,1.4,5c-3.3.9-6,1.5-8,1.8-.5,2.6-.9,5.2-1.1,7.6,2-.6,4.3-1.5,7-2.6l1.8,5.9c-3,1.3-5.9,2.4-8.8,3.2.2,5.7,1.3,10.8,3.3,15.2l-6.5,3.6c-3.7-7.9-4.4-18.5-2.1-32-.9,0-1.6.2-2.1.2l-8.8,27.1-6.9-2.3,7.9-24.5c-1.7,0-3.1,0-3.9,0l-.2-4.3c-1.7,5.1-3.1,9.3-4.3,12.4-1.2,3.2-2.2,5.7-3,7.6-.8,1.9-1.7,3.2-2.4,4-.8.7-1.5,1.1-2.1,1.2-.6,0-1.4,0-2.3-.3-1.4-.5-3.5-1.4-6.2-2.7l1.9-6.3c1.4.8,2.5,1.4,3.3,1.7.5.1.8.1,1.1,0,.3-.2.7-.9,1.3-2.2.6-1.2,1.3-3.1,2.1-5.5.8-2.4,2-5.9,3.5-10.4l-3.5-1.1ZM340,60.5l9.9,3.2-.8,2.4c8.1.2,16.3-.6,24.8-2.4l-12.7-4.1c-2.7,2.4-5.6,4.5-8.7,6.2l-4.4-5.4c.9-.5,1.8-1.1,2.7-1.6l-9.2-3-1.5,4.8Z"/>
    </g>
  </g>
  <g class="st2">
    <g class="st2">
      <path class="st1" d="M378.6,108.6l-1.2,1.9-5.9-3.9,27.4-41.5,40.5,26.7-27.4,41.5-5.9-3.9,1.2-1.9-28.6-18.9ZM410.3,122.9l19.9-30.1-28.6-18.9-19.9,30.1,28.6,18.9ZM425.5,97l-3.2,4.9-3.8-2.5-7.1,10.8c-1,1.6-1.9,2.8-2.5,3.5-.6.8-1.2,1.4-1.8,2-.6.5-1.2.8-1.8.7-.6,0-1.3-.2-1.9-.5-.6-.3-1.5-.8-2.7-1.6-1.5-1-4-2.7-7.4-5.2l3.1-4.9c2.2,1.7,4,3,5.3,3.9.9.6,1.5.8,1.8.8.3,0,.8-.7,1.6-1.8l7.6-11.6-16.4-10.8,3.3-4.9,16.4,10.8,2.7-4,5.9,3.9-2.7,4,3.8,2.5ZM396.4,89.9l6.6.4c.2,4.2,0,8.5-.5,13l-6.5-.5c.4-4.2.5-8.4.4-12.9Z"/>
    </g>
  </g>
  <g class="st2">
    <g class="st2">
      <path class="st1" d="M65.1,395.6c-.6-1.1-1-2.3-1.4-3.5-.3-1.2-.5-2.5-.5-3.7,0-1.3.2-2.5.6-3.7.4-1.2,1.2-2.1,2.4-2.8l1.4-.7,2.2-1.1,2.3,4.4-2.5,1.3c-.6.4-1.1.9-1.3,1.6-.2.7-.3,1.4-.2,2.1,0,.7.2,1.4.4,2.1.2.7.5,1.3.8,2s.7,1.2,1.2,1.8c.5.5,1,1,1.5,1.5.6.4,1.2.8,1.9,1,.7.2,1.4.2,2.1-.1l12.4-6.5,2.3,4.4-12.1,6.3-1.4.7c-1.2.5-2.4.7-3.7.3-1.2-.3-2.4-.9-3.4-1.6-1-.7-2-1.6-2.8-2.5-.8-1-1.5-2-2.1-3.1Z"/>
    </g>
  </g>
  <g class="st2">
    <g class="st2">
      <path class="st1" d="M78.4,407.8l5.2,7.5,9.7-6.7-5.2-7.5,4.1-2.8,13.1,19-4.1,2.8-5.1-7.5-9.7,6.7,5.1,7.5-4.1,2.8-13.1-19,4.1-2.8Z"/>
    </g>
  </g>
  <g class="st2">
    <g class="st2">
      <path class="st1" d="M107.1,419.8l15.5,17.5c.5.5.7,1.1.6,1.8,0,.7-.3,1.2-.9,1.7-.5.5-1.1.7-1.8.6-.2,0-.4,0-.6,0l-19.4-3.6,10.8,12.2-3.7,3.3-15.5-17.5c-.5-.5-.7-1.1-.6-1.8,0-.7.3-1.2.8-1.7.5-.4,1-.6,1.6-.6h0s.2,0,.2,0c.2,0,.4,0,.6.1l19.5,3.8-11-12.4,3.7-3.3Z"/>
    </g>
  </g>
  <g class="st2">
    <g class="st2">
      <path class="st1" d="M124.2,457.2l5.7,5.1,1.1-2.7c.4-1,.7-2,1-2.9.3-.9.5-1.8.6-2.7.2-.8,0-1.5-.4-1.9-.5-.4-1.1-.4-2-.2-.8.2-1.7.6-2.6,1-.9.4-1.8.9-2.7,1.4l-10.2,5.6-4.1-3.6,12.8-6.6c2.7-1.3,5-2.2,6.9-2.7,1.9-.5,3.7,0,5.3,1.3,1.6,1.4,2.2,3.1,2,5.1-.3,2-.9,4.4-1.9,7.2l-5,13.5-4.2-3.7,1.3-3.3-7.1-6.2,3.3-3.7Z"/>
    </g>
  </g>
  <g class="st2">
    <g class="st2">
      <path class="st1" d="M153.7,462.5c.7.5,1.3,1.1,1.8,1.8.5.7.9,1.5,1.2,2.4,0,.2,0,.3.1.5.2,0,.3,0,.5,0,.9,0,1.8,0,2.7.3.8.2,1.6.6,2.3,1,.7.5,1.3,1.1,1.8,1.8.5.7.9,1.5,1.2,2.4.3.9.4,1.9.3,3,0,1.1-.5,2.2-1.2,3.3l-8.6,12.6-4.1-2.8,8.5-12.4c.3-.5.5-1,.6-1.4,0-.5,0-.9,0-1.2,0-.3-.2-.6-.4-.9s-.4-.5-.6-.6-.5-.3-.8-.3c-.3,0-.6,0-1,0-.4,0-.7.2-1.1.4-.4.2-.8.6-1.1,1l-8.5,12.4-4.1-2.8,8.5-12.4c.3-.5.5-1,.6-1.4,0-.5,0-.9,0-1.2,0-.3-.2-.6-.4-.9-.2-.3-.4-.5-.6-.6-.2-.2-.5-.3-.8-.3-.3,0-.6,0-1,0-.4,0-.7.2-1.1.4-.4.2-.8.6-1.1,1l-8.5,12.4-4.1-2.8,8.6-12.6c.8-1.1,1.7-1.8,2.7-2.3,1-.5,2-.7,2.9-.8.9,0,1.8,0,2.7.3.8.2,1.6.6,2.3,1Z"/>
    </g>
  </g>
  <g class="st2">
    <g class="st2">
      <path class="st1" d="M171.9,500.9c-1.1-.6-2.2-1.3-3.2-2.1-1-.8-1.8-1.7-2.6-2.8-.7-1-1.3-2.2-1.6-3.4-.3-1.2-.2-2.5.3-3.7l.7-1.4,6.2-12.1,4.4,2.2-6.4,12.5c-.3.7-.3,1.4,0,2.1.2.7.6,1.3,1,1.9.4.6.9,1.1,1.5,1.5s1.1.8,1.8,1.2c.6.3,1.3.6,2,.8.7.2,1.4.3,2.1.3.7,0,1.4,0,2.1-.3.7-.2,1.2-.6,1.6-1.3l6.4-12.5,4.4,2.2-6.2,12.1-.7,1.4c-.7,1.1-1.6,1.9-2.8,2.4-1.2.5-2.4.7-3.7.7-1.3,0-2.5-.1-3.7-.4-1.2-.3-2.4-.7-3.6-1.3Z"/>
    </g>
  </g>
  <g class="st2">
    <g class="st2">
      <path class="st1" d="M193.3,509.8l-4.7-1.7,6.6-18.2c.3-.6.7-1.1,1.3-1.3.6-.3,1.2-.3,1.9,0l1.7.6,4.2,1.5,8.5,3.1c.1,0,.3.1.4.2h.2c1.6.7,2.8,1.5,3.6,2.6.8,1.1,1.2,2.1,1.4,3.2s0,2-.3,2.9c-.3.9-.9,1.7-1.7,2.5-.8.7-1.8,1.2-3.1,1.6-1.3.3-2.8.2-4.4-.3l-6.1-2.2c-.2,1.2-.2,2.2.2,3,.4.8,1,1.3,1.8,1.6l9.4,3.4-1.7,4.6-10-3.6c-1.7-.6-3-1.8-3.9-3.7-.9-1.9-1.1-3.8-.8-5.7.3-2.2.5-3.5.6-3.7.2-.6.7-1.1,1.3-1.4.6-.3,1.2-.3,1.9,0l9.1,3.3c.4.1.8.2,1.2,0,.3,0,.6-.2.9-.4.2-.2.4-.4.5-.6,0-.2,0-.5,0-.7s-.2-.5-.4-.8c-.2-.3-.6-.5-1-.7l-9.4-3.4-2.8-1c-.6-.2-1,0-1.2.6l-5.4,14.9Z"/>
    </g>
  </g>
  <g class="st2">
    <g class="st2">
      <path class="st1" d="M228.6,512.3l7.5,1.7-.3-2.9c-.2-1.1-.3-2.1-.5-3-.2-1-.4-1.8-.7-2.7-.3-.8-.7-1.3-1.2-1.5-.6,0-1.2.2-1.8.8-.6.6-1.2,1.3-1.8,2.1-.6.8-1.2,1.6-1.8,2.5l-6.3,9.8-5.3-1.2,8-12c1.7-2.4,3.3-4.3,4.8-5.7,1.4-1.4,3.2-1.8,5.3-1.4,2,.5,3.4,1.7,4.2,3.5.7,1.9,1.3,4.3,1.8,7.2l2.2,14.3-5.4-1.2-.4-3.5-9.2-2.1,1.1-4.8Z"/>
    </g>
  </g>
  <g class="st2">
    <g class="st2">
      <path class="st1" d="M247.2,519.5l9.1.9,1.2-11.8-9.1-.9.5-4.9,23,2.4-.5,4.9-9-.9-1.2,11.8,9,.9-.5,4.9-23-2.4.5-4.9Z"/>
    </g>
  </g>
  <g class="st2">
    <g class="st2">
      <path class="st1" d="M291.5,505l.5,8,11.9-.7-.5-8,4.9-.3,1.3,21.8-4.9.3-.5-8.8-11.9.7.5,8.8-4.9.3-1.3-21.8,4.9-.3Z"/>
    </g>
  </g>
  <g class="st2">
    <g class="st2">
      <path class="st1" d="M323.2,515.4l7.6-1.3-1.4-2.5c-.6-.9-1.1-1.8-1.6-2.6-.5-.8-1.1-1.5-1.7-2.2-.6-.6-1.1-.9-1.7-.9-.6.2-1,.6-1.3,1.4-.3.8-.6,1.7-.8,2.6-.2.9-.4,1.9-.6,3l-2,11.5-5.3,1,2.8-14.1c.6-2.9,1.3-5.3,2.2-7.1.8-1.8,2.2-2.9,4.3-3.3,2.1-.3,3.8.2,5.2,1.6s2.9,3.4,4.5,6l7.5,12.3-5.5,1-1.7-3-9.3,1.7-.9-4.8Z"/>
    </g>
  </g>
  <g class="st2">
    <g class="st2">
      <path class="st1" d="M349.5,494.4c1.2-.4,2.5-.6,3.7-.7s2.5,0,3.8.2c1.2.2,2.4.7,3.5,1.3,1.1.7,1.9,1.6,2.4,2.8l.5,1.5,4,13.2-4.7,1.5-4.2-13.5c-.3-.7-.7-1.2-1.4-1.6s-1.3-.5-2-.6-1.4-.1-2.1,0c-.7,0-1.4.2-2.1.4-.7.2-1.3.5-2,.8-.6.3-1.2.8-1.7,1.2-.5.5-1,1-1.3,1.7-.4.6-.4,1.3-.3,2.1l4.2,13.5-4.7,1.4-4-13.2-.5-1.5c-.3-1.3-.2-2.5.3-3.7s1.3-2.2,2.2-3.1c.9-.9,1.9-1.6,3-2.3,1.1-.6,2.3-1.2,3.5-1.5Z"/>
    </g>
  </g>
  <g class="st2">
    <g class="st2">
      <path class="st1" d="M378.2,508.2l-4.5,2-7.9-17.6c-.3-.6-.3-1.3,0-1.9.3-.6.7-1.1,1.3-1.3l1.6-.7,4.1-1.9,8.3-3.7c.1,0,.3-.1.4-.1h.2c1.6-.7,3-1,4.3-.8,1.3.2,2.4.7,3.2,1.3s1.4,1.4,1.8,2.3c.4.9.6,1.9.5,2.9,0,1.1-.4,2.1-1.1,3.3-.7,1.1-1.8,2.1-3.4,2.8l-5.9,2.7c.7,1,1.4,1.7,2.2,2,.8.3,1.6.3,2.4-.1l9.1-4.1,2,4.5-9.7,4.4c-1.6.8-3.4.8-5.4,0-1.9-.7-3.4-1.9-4.6-3.6-1.3-1.8-2-2.9-2.1-3.1-.3-.6-.3-1.3,0-1.9.2-.6.7-1.1,1.3-1.4l8.8-4c.4-.2.7-.5.9-.8.2-.3.3-.6.4-.8,0-.3,0-.5,0-.7s-.3-.4-.5-.6c-.2-.2-.5-.2-.9-.3-.4,0-.7,0-1.2.2l-9.1,4.1-2.7,1.2c-.6.3-.7.7-.5,1.3l6.5,14.4Z"/>
    </g>
  </g>
  <g class="st2">
    <g class="st2">
      <path class="st1" d="M395,475.8l1.4,2.2c.5.9,1,1.6,1.6,2.3.6.6,1.3,1.1,2.2,1.3.9.2,1.7.1,2.5-.3l8.8-5.4-4.5-7.4,4.2-2.6,5.5,8.9c1,1.7,1.8,3.4,2.2,5.1.4,1.6.4,3.1,0,4.6-.4,1.5-1.3,2.7-2.7,3.7l-13,8-2.6-4.2,12-7.3c.8-.5,1.2-1.2,1.4-2.1.2-.8.1-1.6-.1-2.4l-9.6,5.9c-1.5.8-3,1.1-4.5.7s-2.9-1-4.1-2.1c-1.2-1.1-2.3-2.3-3.2-3.8l-1.6-2.6,4.2-2.6Z"/>
    </g>
  </g>
  <g class="st2">
    <g class="st2">
      <path class="st1" d="M429.8,451.3c1-.8,2.1-1.2,3.3-1.2,1.2,0,2.4.2,3.5.6,1.1.4,2.2,1,3.1,1.8,1,.7,1.8,1.6,2.6,2.5,1,1.3,1.8,2.6,2.4,4.2.6,1.5.8,3.1.7,4.8-.1,1.6-.8,3-2.1,4.2l-10,8.1c-1.4,1-2.9,1.4-4.5,1.2-1.6-.2-3.1-.8-4.5-1.7-1.4-.9-2.5-2-3.6-3.3-1-1.3-1.8-2.6-2.4-4.2-.6-1.5-.8-3.1-.7-4.8.1-1.7.8-3.1,2.1-4.2l.5-.4,8.9-7.2.5-.4ZM439.4,465.1c.7-.6,1.1-1.4,1.2-2.3,0-.9,0-1.8-.4-2.6-.3-.8-.8-1.6-1.3-2.3-.6-.7-1.2-1.3-2-1.7-.8-.5-1.6-.8-2.5-.9-.9-.1-1.7,0-2.5.6l-8.1,6.6c-.7.6-1.1,1.4-1.1,2.3,0,.9,0,1.8.4,2.6.3.8.7,1.6,1.3,2.3.6.7,1.2,1.3,2,1.8.7.5,1.6.8,2.5.9.9.1,1.7-.1,2.5-.7l8.1-6.6Z"/>
    </g>
  </g>
  <g class="st2">
    <g class="st2">
      <path class="st1" d="M449,432.7c1.3-1.2,2.7-1.7,4.3-1.7,1.6,0,3.2.4,4.6,1.1,1.5.7,2.8,1.6,3.9,2.7,1.2,1.1,2.1,2.4,2.9,3.8.8,1.4,1.2,2.9,1.3,4.6.1,1.6-.4,3.1-1.5,4.4l-9.3,9.8c-.5.5-1,.7-1.7.7-.6,0-1.2-.2-1.7-.6l-8.1-7.7,3.4-3.6,5.5,5.3c.5.5,1,.4,1.4,0l6-6.3c.6-.7.9-1.5.8-2.4s-.3-1.7-.7-2.5c-.4-.8-.9-1.5-1.6-2.1s-1.4-1.1-2.2-1.5c-.8-.4-1.7-.6-2.6-.6-.9,0-1.7.3-2.4.9l-10.1,10.6-3.6-3.4,11-11.5Z"/>
    </g>
  </g>
  <g class="st2">
    <g class="st2">
      <path class="st1" d="M472.4,425.8l4.6-6.1-2.7-.9c-1-.3-2-.5-3-.8-.9-.2-1.9-.4-2.7-.4-.9,0-1.5,0-1.8.5-.3.5-.3,1.2,0,2,.3.8.7,1.6,1.2,2.5s1,1.7,1.6,2.6l6.3,9.8-3.3,4.3-7.6-12.2c-1.5-2.5-2.6-4.8-3.3-6.7-.7-1.9-.4-3.7.9-5.4,1.3-1.7,2.9-2.5,4.9-2.3,2,.1,4.4.5,7.3,1.3l13.9,3.9-3.4,4.5-3.3-1-5.7,7.5-3.9-3Z"/>
    </g>
  </g>
  <g class="st2">
    <g class="st2">
      <path class="st1" d="M477.3,392.5c.6-1.1,1.4-2.1,2.3-3s1.8-1.7,2.9-2.4c1.1-.7,2.2-1.2,3.5-1.4,1.3-.3,2.5-.1,3.7.5l1.3.8,11.9,6.9-2.5,4.3-12.3-7.1c-.7-.3-1.4-.4-2.1-.2-.7.2-1.3.5-1.9.9s-1.1.9-1.6,1.4c-.5.5-.9,1.1-1.2,1.7-.4.6-.6,1.3-.9,1.9-.2.7-.4,1.4-.4,2.1,0,.7,0,1.4.2,2.1.2.7.6,1.3,1.2,1.7l12.3,7.1-2.5,4.3-11.9-6.9-1.3-.8c-1.1-.7-1.9-1.7-2.3-2.9s-.6-2.5-.5-3.7c0-1.3.3-2.5.6-3.7.4-1.2.9-2.4,1.5-3.5Z"/>
    </g>
  </g>
  <path class="st3" d="M384,241.2c11,28.2,11.2,56,0,84.1,17.9,7.4,35.9,14.9,53.8,22.3,0,.1,0,.2,0,.3-25.3,4.8-50.5,9.6-75.8,14.4-4.8,25.4-9.6,50.6-14.4,75.9-.1,0-.2,0-.3,0-7.5-18-14.9-36-22.3-54-28.1,11.3-56,11.2-83.9,0-7.5,18.1-14.9,36-22.3,53.9-.1,0-.2,0-.3,0-4.8-25.2-9.5-50.5-14.3-75.7-25.4-4.8-50.5-9.6-75.7-14.3v-.3c17.9-7.4,35.8-14.8,53.6-22.2-10.8-28.1-11.2-56,.1-84.2-17.9-7.4-35.8-14.8-53.7-22.2,0-.1,0-.2,0-.4,25.1-4.8,50.3-9.5,75.5-14.3,4.8-25.2,9.5-50.3,14.3-75.4.2,0,.3,0,.5,0,7.4,17.8,14.7,35.6,22.1,53.5,27.9-11,55.9-11.2,84,.1,7.4-17.9,14.8-35.8,22.2-53.7.1,0,.3,0,.4,0,4.8,25.1,9.5,50.1,14.3,75.5,25.2,4.8,50.5,9.6,76.2,14.4-18.4,7.6-36.3,15-54.3,22.4h0ZM238.7,283.4c-.2,23.1,18.1,43.9,43.5,44.4,25.9.4,45.4-19.6,45.5-44.4.1-23.7-18.2-44.6-44.4-44.6-27,0-44.9,21.8-44.6,44.6Z"/>
</svg>