<?xml version="1.0" encoding="utf-8"?>
<!-- Generator: Adobe Illustrator 23.1.0, SVG Export Plug-In . SVG Version: 6.00 Build 0)  -->
<svg version="1.1" id="Capa_1" xmlns="http://www.w3.org/2000/svg" xmlns:xlink="http://www.w3.org/1999/xlink" x="0px" y="0px"
	 viewBox="0 0 566.9 566.9" style="enable-background:new 0 0 566.9 566.9;" xml:space="preserve">
<style type="text/css">
	.st0{fill:#FFFFFF;}
	.st1{fill:none;}
	.st2{enable-background:new    ;}
</style>
<title>jhon hawkwood</title>
<circle class="st0" cx="283.5" cy="283.5" r="239.2"/>
<path d="M451.6,119.1c-2.2,7.1-5.4,13.8-9.5,20c-3.8,5.6-8.5,10.5-13.9,14.7c-6.1,4.8-12.5,9.1-19.3,12.9c-4.2,2.4-8.8,4.2-13.2,6.3
	c-4.7,2-9.3,4.3-13.8,6.9c-6.6,4-12.6,9-17.7,14.8c-4.2,4.7-80.7,134.9-80.9,135.2c-1.3-2.4-72.6-125.1-76.5-129.9
	c-3.9-5.1-8.4-9.7-13.3-13.9c-4.7-3.9-9.9-7.2-15.4-9.7c-5.4-2.5-10.9-4.8-16.3-7.4c-3.6-1.9-7.1-3.9-10.5-6.1
	c-3.4-2.1-6.7-4.4-9.9-6.7c-5.3-3.7-10-8.2-14-13.2c-3.4-4.4-6.3-9.2-8.6-14.2c-1.2-2.8-2.2-5.6-3.3-8.5c-0.1-0.2-0.1-0.4-0.1-0.6
	c0.3,0,0.5,0.1,0.8,0.1c1.5,0.7,87.3,38.3,92.5,40.5s10.2,4.2,14.8,7.3c1.8,1.3,3.5,2.9,4.9,4.6c4.1,5.1,7.9,10.5,11.3,16.1
	c2.2,3.6,4.5,7.1,6.6,10.8c3.9,6.6,7.6,13.3,11.4,20c1.8,3.2,3.5,6.4,5.2,9.7c0.2,0.2,0.3,0.5,0.5,0.7c0.1-0.2,0.3-0.4,0.4-0.7
	c1.7-4.8,3.7-9.6,5.1-14.5c1.4-4.6,2.2-9.4,3.3-14.1c0.8-3.4,1.5-6.7,3.7-9.5c1.2-1.6,3.1-2.7,5.1-2.9c5.8-0.6,11.6-0.3,17.3,0.9
	c2.4,0.4,4.7,1.3,6.7,2.7c0.3,0.2,0.5,0.5,0.7,0.8c-0.3,0.1-0.6,0.2-0.9,0.3c-2.7,0.5-5.2,1.8-7.2,3.8c-2.1,2.3-3,5.4-2.4,8.4
	c0.6,2.7,1.3,5.3,2.2,7.9c1.7,5.1,3.5,10.3,5.2,15.4c0.1,0.2,0.1,0.4,0.2,0.6c0.1,0.2,0.3,0.4,0.4,0.6c0.2-0.2,0.3-0.3,0.4-0.5
	c1.2-2.1,2.3-4.3,3.5-6.4c2.8-4.9,5.5-9.9,8.3-14.8c2.6-4.6,5.3-9.2,8.1-13.8c2-3.3,4.1-6.6,6.3-9.9c2.1-3.2,4.5-6.3,6.6-9.5
	c3.3-4.8,7.9-8.4,13.3-10.5C353.9,162.1,447.3,121.3,451.6,119.1z"/>
<path d="M443.6,161c-0.6,2.6-1.1,5.3-2,7.9c-2.2,6.4-6,12.3-11,16.9c-4.1,4-8.7,7.4-13.6,10.3c-5.6,3.3-11.5,6.1-17.7,8.3
	c-4.8,1.6-9.6,3.3-14.5,4.6c-4.6,1.3-9.4,2.1-14.1,3.1c-0.3,0-0.5,0-0.8,0c0.1-0.3,0.1-0.5,0.2-0.8c1.8-3.5,4.2-6.6,7.1-9.2
	c4.4-4,9.4-7.2,14.9-9.6c7.6-3.5,14.9-7.4,21.9-11.9c7.5-4.7,14.8-9.7,21.9-15.1c2.2-1.7,4.4-3.4,6.6-5c0.3-0.2,0.5-0.3,0.8-0.4
	l0.2,0.9L443.6,161z"/>
<path d="M196.5,212.2c-2.9-0.6-5.8-1-8.6-1.8c-5.9-1.6-11.8-3.2-17.6-5.1c-5.4-1.8-10.6-4-15.5-6.6c-5.2-2.6-10-5.8-14.5-9.4
	c-6.1-5-11-10.9-14.1-18.2c-1.4-3.3-2.3-6.8-2.5-10.4c0-0.2,0-0.5,0.1-0.7c0.2,0.1,0.5,0.3,0.7,0.4c2.2,1.7,4.4,3.5,6.7,5.1
	c5.4,3.9,10.8,7.7,16.2,11.4c6.3,4.3,12.8,8.2,19.6,11.7c3.2,1.6,6.5,3,9.7,4.7c2.5,1.3,5,2.7,7.4,4.3c3.4,2.2,6.5,4.9,9.1,8
	c1.4,1.9,2.7,3.9,3.9,5.9C197.1,211.9,197.3,212.3,196.5,212.2z"/>
<path d="M191.5,237c-3.8-0.1-7.5-0.7-11.2-1.7c-3.8-1-7.5-2.3-11.1-4.1c-5.2-2.7-9.9-6.4-13.7-10.9c-2.4-2.8-4.4-5.9-5.9-9.2
	c-0.1-0.2-0.2-0.5-0.3-0.8c0-0.2,0-0.4,0-0.6c0.2,0,0.4,0.1,0.6,0.2c2.8,1.3,5.5,2.8,8.3,4c5.9,2.7,11.9,5,18.1,6.8
	c3.4,1,6.8,2.1,10.2,2.9c4.4,1,8.8,1.7,13.3,2.5c2.3,0.4,4.6,0.6,6.8,0.9c0.7,0.1,0.8,0.4,0.7,1c-0.8,3-2.8,5.5-5.5,6.9
	C198.7,236.6,195.3,237,191.5,237z"/>
<path d="M375.9,237c-4.2,0-7.5-0.4-10.5-2.1c-2.8-1.5-4.8-4-5.7-7c-0.2-0.7-0.1-1,0.7-1.1c7.8-0.8,15.5-2.2,23-4.2
	c6-1.5,11.9-3.4,17.6-5.6c5.5-2.1,10.8-4.5,16-7.2c0.2-0.1,0.4-0.2,0.6-0.2c0,0.2,0,0.4-0.1,0.6c-1,2-2,4-3.2,5.9
	c-2.2,3.5-4.9,6.6-8,9.2c-4.2,3.7-9,6.5-14.3,8.3c-3.8,1.2-7.8,2.2-11.7,3C378.8,236.8,377.3,237,375.9,237z"/>
<path d="M376.5,250.8c-1.2,1.1-2.4,2.3-3.7,3.4c-3.1,2.7-6.7,4.8-10.5,6.2c-3,1.2-6.3,1.3-9.5,0.4c-4.1-1.3-6-4.8-4.7-8.9
	c0.8-2.3,1.9-4.5,3.4-6.4c0.4-0.6,0.7-0.8,1.4-0.2c3.1,2.8,6.9,4.6,11,5.3c3.7,0.7,7.4,0.8,11.1,0.3c0.5,0,1-0.2,1.5-0.3
	L376.5,250.8z"/>
<path d="M190.5,250.8c2.7,0.1,5.3,0.3,7.9,0.3c4.5,0,8.9-1.3,12.7-3.5c1.1-0.7,2.2-1.5,3.2-2.4c0.5-0.4,0.8-0.4,1.1,0.1
	c1.7,2.5,3.2,5,3.7,8c0.6,4.2-1.8,6.5-5.2,7.6c-3.2,0.9-6.6,0.7-9.7-0.6C198.9,258.2,194.6,254.8,190.5,250.8z"/>
<path class="st1" d="M390.8,497.3l-106.1-85.4l-106.1,86.6C245.6,531.1,324.1,530.7,390.8,497.3L390.8,497.3z"/>
<path class="st1" d="M436.5,467.3c54.7-45.4,86.3-112.8,86.2-183.9c0-132.1-107.1-239.2-239.2-239.2S44.3,151.4,44.3,283.5
	c-0.1,72,32.3,140.2,88.2,185.5l152-124L436.5,467.3z"/>
<path class="st1" d="M522.7,283.5c0-132.1-107.1-239.2-239.2-239.2S44.3,151.4,44.3,283.5c-0.1,66.6,27.7,130.1,76.6,175.4
	l160.4-116l164.9,116C495,413.6,522.7,350.1,522.7,283.5z"/>
<path class="st1" d="M381.7,501.6l-99.9-70.3l-97,70.1C247.3,529.7,319,529.8,381.7,501.6L381.7,501.6z"/>
<path d="M283.5,4.2C129.3,4.2,4.3,129.3,4.3,283.5c-0.1,74.9,30,146.8,83.6,199.2c4.2,4.1,8.6,8.2,13,12.1
	c13.6,11.8,28.4,22.2,44,31.2c1.1,0.6,2.2,1.3,3.4,1.9c84.2,46.5,186.4,46.5,270.5-0.1c1.9-1.1,3.8-2.2,5.7-3.3
	c15.5-9.1,30.1-19.7,43.6-31.6c3.8-3.4,7.6-6.9,11.2-10.5c53.4-52.4,83.4-124.1,83.3-198.9C562.7,129.3,437.7,4.2,283.5,4.2z
	 M283.5,522.7c-34,0-67.7-7.2-98.7-21.3l98.7-70.1l98.2,70.3C350.8,515.5,317.3,522.7,283.5,522.7z M446.1,458.9l-162.6-116
	l-162.6,116c-48.9-45.2-76.6-108.8-76.6-175.4c0-132.1,107.1-239.2,239.2-239.2s239.2,107.1,239.2,239.2
	C522.7,350.1,495,413.7,446.1,458.9L446.1,458.9z"/>
<polygon class="st0" points="213,434.3 231.6,440.6 213,446.9 206.7,465.5 200.4,446.9 181.8,440.6 200.4,434.3 206.7,415.7 "/>
<polygon class="st0" points="366.7,434.3 385.3,440.6 366.7,446.9 360.4,465.5 354,446.9 335.4,440.6 354,434.3 360.4,415.7 "/>
<polygon class="st0" points="289.8,384.9 308.4,391.2 289.8,397.5 283.5,416.1 277.2,397.5 258.5,391.2 277.2,384.9 283.5,366.3 "/>
<g class="st2">
	<path class="st0" d="M129.2,505.8l5.5-25.1l6.1,4l-3.8,17.5l3.5-2.6l2.9-13.3l6.1,4l-0.7,3l2.5-1.9l6.1,3.9l-10.9,8.2l-0.9,4.3
		l14.4-10.8l6.1,4l-20.6,15.4l-7.7-5l0.4-1.6l-1.3,1L129.2,505.8z"/>
</g>
<g class="st2">
	<path class="st0" d="M166.7,517.9l-3.7,7.8l-6.2-3l10.4-21.7l6.2,3l-3.7,7.8l9.3,4.5l3.7-7.8l6.2,3l-10.4,21.7l-6.2-3l3.7-7.8
		L166.7,517.9z"/>
</g>
<g class="st2">
	<path class="st0" d="M189.2,537l-6.4-2.5l8.7-22.5l6.4,2.5L189.2,537z"/>
</g>
<g class="st2">
	<path class="st0" d="M213.3,526.8l-5,16.5l-6.6-2l5-16.5l-8.3-2.5l2-6.6l23.1,7l-2,6.6L213.3,526.8z"/>
</g>
<g class="st2">
	<path class="st0" d="M249.6,527.7l-1.3,6.8l-16.9-3.1l-0.3,1.7l13.5,2.5l-1.3,6.8l-13.5-2.5l-0.3,1.7l16.9,3.1l-1.3,6.8l-23.7-4.3
		l4.6-23.7L249.6,527.7z"/>
</g>
<g class="st2">
	<path class="st0" d="M274.1,529.6c6.9,0.3,10.2,3,10,8.2l0,0.9l-6.9-0.3l0-0.9c0-0.6-0.5-0.9-1.7-0.9l-6.9-0.3
		c-1.1-0.1-1.7,0.2-1.8,0.8l-0.4,8.6c0,0.6,0.5,0.9,1.7,0.9l6.9,0.3c1.1,0.1,1.7-0.2,1.8-0.8l0-0.9l6.9,0.3l0,0.9
		c-0.2,5.2-3.8,7.6-10.7,7.3l-3.4-0.2c-6.9-0.3-10.2-3-10-8.2l0.4-8.6c0.2-5.2,3.8-7.6,10.7-7.3L274.1,529.6z"/>
</g>
<g class="st2">
	<path class="st0" d="M297.1,529.4l3.4-0.2c6.9-0.4,10.5,1.9,10.8,7.1l0.5,8.6c0.3,5.2-3,8-9.8,8.4l-3.4,0.2
		c-6.9,0.4-10.5-1.9-10.8-7.1l-0.5-8.6C286.9,532.6,290.2,529.8,297.1,529.4z M295.8,536.4c-1.1,0.1-1.7,0.4-1.7,1l0.5,8.6
		c0,0.6,0.6,0.8,1.8,0.8l6.9-0.4c1.1-0.1,1.7-0.4,1.7-1l-0.5-8.6c0-0.6-0.6-0.8-1.8-0.8L295.8,536.4z"/>
</g>
<g class="st2">
	<path class="st0" d="M321.9,537.9l2.2,13l-6.8,1.2l-4.1-23.8l7.1-1.2l5.9,5.5l3.7-7.1l7.1-1.2l4.1,23.8l-6.8,1.2l-2.2-13l-4,7.6
		L321.9,537.9z"/>
</g>
<g class="st2">
	<path class="st0" d="M356.9,534.8l-6.6,1.9l2.3,8.3l-6.6,1.9l-6.5-23.2l13.2-3.7c6.6-1.9,10.6-0.3,12,4.7
		C366.1,529.5,363.5,532.9,356.9,534.8z M348.4,530l8.3-2.3c1.1-0.3,1.6-0.7,1.4-1.3c-0.2-0.6-0.8-0.7-1.9-0.4l-8.3,2.3L348.4,530z"
		/>
</g>
<g class="st2">
	<path class="st0" d="M376.9,533.6l0.1,3.7l-6.8,2.7l-0.5-25.8l8.6-3.4l17.2,19.2l-6.8,2.7l-2.5-2.7L376.9,533.6z M376.7,519.3
		l0.1,6.9l4.5-1.8L376.7,519.3z"/>
</g>
<g class="st2">
	<path class="st0" d="M398.6,513.6l6.1,11.7l-6.1,3.2L387.5,507l6.3-3.3l14.9,7.1l-6.1-11.7l6.1-3.2l11.1,21.5l-6.3,3.3L398.6,513.6
		z"/>
</g>
<g class="st2">
	<path class="st0" d="M425.4,500.8l-15.8-5.4l7.2-4.8l7.6,2.6l0.5-8l7.2-4.8l-1,16.6l6.1,9.1l-5.7,3.8L425.4,500.8z"/>
</g>
<g class="st2">
	<path class="st0" d="M117.1,103.5c-5.7,5.3-10.5,5.7-14.4,1.4l-0.6-0.7l5.7-5.3l0.6,0.7c0.4,0.5,1.1,0.3,2.1-0.6l5.7-5.3
		c1-0.9,1.2-1.6,0.8-2l-12.3-13.6l5.7-5.3l12.3,13.6c3.9,4.3,3,9.1-2.8,14.3L117.1,103.5z"/>
</g>
<g class="st2">
	<path class="st0" d="M124.8,62.2L128,60c6.3-4.5,11.2-4.3,14.5,0.4l5.6,7.9c3.4,4.8,1.9,9.4-4.5,13.9l-3.2,2.2
		c-6.3,4.5-11.2,4.3-14.5-0.4l-5.6-7.9C117,71.3,118.5,66.7,124.8,62.2z M127.7,69.7c-1.1,0.7-1.4,1.4-1,1.9l5.6,7.9
		c0.4,0.5,1.1,0.4,2.1-0.3l6.3-4.5c1.1-0.7,1.4-1.4,1-1.9l-5.6-7.9c-0.4-0.5-1.1-0.4-2.1,0.3L127.7,69.7z"/>
</g>
<g class="st2">
	<path class="st0" d="M158,61.6l4.6,8.5l-6.8,3.6L143,50l6.8-3.6l4.6,8.5l10.2-5.5l-4.6-8.5l6.8-3.6L179.6,61l-6.8,3.6l-4.6-8.5
		L158,61.6z"/>
</g>
<g class="st2">
	<path class="st0" d="M184.5,43.2l5.3,13.8l-7.2,2.8l-9.7-25.2l7.5-2.9l15.8,9.7l-5.3-13.8l7.2-2.8l9.7,25.2l-7.5,2.9L184.5,43.2z"
		/>
</g>
<g class="st2">
	<path class="st0" d="M225.7,35.3l2,9.5l-7.6,1.6l-5.5-26.5l7.6-1.6l2,9.5l11.4-2.4l-2-9.5l7.6-1.6l5.5,26.5l-7.6,1.6l-2-9.5
		L225.7,35.3z"/>
</g>
<g class="st2">
	<path class="st0" d="M257.3,35.9l-1.1,4l-8.2,0.7l7.8-27.8l10.3-0.8L278.4,38l-8.2,0.7l-1.7-3.7L257.3,35.9z M261.7,20.5l-2.1,7.5
		l5.4-0.4L261.7,20.5z"/>
</g>
<g class="st2">
	<path class="st0" d="M283.4,38.2l-9-27.5l8.2,0.3l6.3,19.2l1.9-4.5L286,11.2l8.2,0.3l1.1,3.3l1.3-3.2l8.2,0.3L299,26l1.5,4.6
		l7.8-18.6l8.2,0.3L305.3,39L295,38.6l-0.6-1.7l-0.7,1.7L283.4,38.2z"/>
</g>
<g class="st2">
	<path class="st0" d="M331.4,25.5l9.1-8.1l9.6,1.8l-12.7,11.3l7.6,15.2l-9.6-1.8L329.9,33l-3.8-0.7l-1.8,9.5l-7.6-1.5l5.1-26.6
		l7.6,1.5l-1.8,9.5L331.4,25.5z"/>
</g>
<g class="st2">
	<path class="st0" d="M354.3,48.6l-0.6-28.7l7.8,2.7l0.4,20.1l3.1-3.7l-0.3-15.2l7.8,2.7l0.1,3.5l2.2-2.7l7.8,2.7l-9.8,11.7l0.1,4.9
		L385.8,31l7.8,2.7l-18.5,22.1l-9.8-3.4l0-1.8l-1.2,1.4L354.3,48.6z"/>
</g>
<g class="st2">
	<path class="st0" d="M407.4,41.1l3.4,1.8c6.9,3.6,9,7.9,6.3,13.1l-4.4,8.6c-2.7,5.2-7.4,6-14.3,2.4l-3.4-1.8
		c-6.9-3.6-9-7.9-6.3-13.1l4.4-8.6C395.8,38.3,400.5,37.5,407.4,41.1z M402.1,47.1c-1.1-0.6-1.9-0.6-2.2,0l-4.4,8.6
		c-0.3,0.6,0.1,1.2,1.3,1.7l6.9,3.6c1.1,0.6,1.9,0.6,2.2,0l4.4-8.6c0.3-0.6-0.1-1.2-1.3-1.7L402.1,47.1z"/>
</g>
<g class="st2">
	<path class="st0" d="M436.3,58.3l3.2,2.2c6.4,4.4,7.9,9,4.6,13.7l-5.5,7.9c-3.3,4.8-8.1,5-14.5,0.6l-3.2-2.2
		c-6.4-4.4-7.9-9-4.6-13.7l5.5-7.9C425.1,54.1,430,53.9,436.3,58.3z M430.3,63.6c-1.1-0.7-1.8-0.8-2.1-0.3l-5.5,7.9
		c-0.4,0.5,0,1.2,1,1.9l6.4,4.4c1.1,0.7,1.8,0.8,2.1,0.3l5.5-7.9c0.4-0.5,0-1.2-1-1.9L430.3,63.6z"/>
</g>
<g class="st2">
	<path class="st0" d="M465.9,81.4c5.8,5.2,6.8,9.9,2.9,14.3l-6.5,7.2c-3.9,4.3-8.7,3.9-14.5-1.2l-11.6-10.4l18.1-20.3L465.9,81.4z
		 M454.9,82.1l-7.8,8.7l7.2,6.5c1,0.9,1.7,1.1,2.1,0.6l6.5-7.2c0.4-0.5,0.2-1.2-0.8-2L454.9,82.1z"/>
</g>
</svg>
