<?xml version="1.0" encoding="UTF-8"?>
<svg id="uuid-b987b038-f497-476c-bf92-3c87aa679dc2" data-name="Capa 1" xmlns="http://www.w3.org/2000/svg" viewBox="0 0 566.93 566.93">
  <defs>
    <style>
      .uuid-41ed40e1-eea5-4f50-80e6-61bc1e250638 {
        fill: #010101;
      }

      .uuid-9d01db53-4012-4c5f-89f6-880000e1834c {
        fill: #fbfbfb;
      }

      .uuid-b2d1a055-2107-4825-b153-d8e8cf4c4433 {
        fill: #944b96;
      }
    </style>
  </defs>
  <circle class="uuid-9d01db53-4012-4c5f-89f6-880000e1834c" cx="283.46" cy="283.46" r="278.66"/>
  <g>
    <path class="uuid-41ed40e1-eea5-4f50-80e6-61bc1e250638" d="M421.96,421.96c-36.99,36.99-86.18,57.37-138.49,57.37s-101.5-20.37-138.49-57.37c-36.99-36.99-57.37-86.18-57.37-138.49,0-7.04.38-14.03,1.11-20.94l-73.01-7.82c-1.01,9.45-1.54,19.04-1.54,28.76,0,148.73,120.57,269.29,269.29,269.29,109.76,0,204.15-65.67,246.09-159.86l-68.7-26.21c-9.53,20.27-22.59,38.96-38.9,55.27ZM33.72,344.14c0-12.72,10.31-23.04,23.04-23.04s23.04,10.31,23.04,23.04-10.31,23.04-23.04,23.04-23.04-10.31-23.04-23.04ZM91.42,439.98c-12.72,0-23.04-10.31-23.04-23.04s10.31-23.04,23.04-23.04,23.04,10.31,23.04,23.04-10.31,23.04-23.04,23.04Z"/>
    <path class="uuid-41ed40e1-eea5-4f50-80e6-61bc1e250638" d="M95.73,227.38l-68.73-26.22c-2.92,9.12-5.36,18.45-7.31,27.96l71.82,15.21c1.16-5.73,2.56-11.38,4.22-16.95Z"/>
    <path class="uuid-41ed40e1-eea5-4f50-80e6-61bc1e250638" d="M283.46,14.17c-109.54,0-203.8,65.41-245.86,159.29l68.32,27.08c9.54-20.39,22.66-39.18,39.05-55.57,36.99-36.99,86.18-57.37,138.49-57.37s101.5,20.37,138.49,57.37c36.99,36.99,57.37,86.18,57.37,138.49,0,7-.37,13.93-1.09,20.8l73.02,7.82c1-9.4,1.51-18.95,1.51-28.62,0-148.73-120.57-269.29-269.29-269.29ZM456.29,150.58c0-12.72,10.31-23.04,23.04-23.04s23.04,10.31,23.04,23.04-10.31,23.04-23.04,23.04-23.04-10.31-23.04-23.04ZM508.71,246.64c-12.72,0-23.04-10.31-23.04-23.04s10.31-23.04,23.04-23.04,23.04,10.31,23.04,23.04-10.31,23.04-23.04,23.04Z"/>
    <path class="uuid-41ed40e1-eea5-4f50-80e6-61bc1e250638" d="M469.61,344.69l68.32,27.08c3.5-10.09,6.4-20.46,8.7-31.05l-71.81-15.21c-1.41,6.5-3.14,12.9-5.2,19.18Z"/>
  </g>
  <g>
    <path class="uuid-b2d1a055-2107-4825-b153-d8e8cf4c4433" d="M75.39,162.28l-2.76-1.98-1.17-.84,5.62-7.85,33.69-5.54-19.64-14.08,5.62-7.85,31.42,22.52-5.62,7.85-47.17,7.75ZM86.37,170.16l-7.06-5.06,13.48-2.22,15.71,11.26-5.62,7.85-16.51-11.83Z"/>
    <path class="uuid-b2d1a055-2107-4825-b153-d8e8cf4c4433" d="M127.15,142.12l-.96-1.07,1.07-20.46-20.46-1.09-3.23-3.59,7.18-6.46,20.46,1.09,10.77-9.69,6.46,7.18-10.77,9.69-.36,6.82,14.36-12.91,6.82.36,3.23,3.59-32.3,29.06-2.27-2.53ZM114.34,106.22l21.53-19.37,3.23,3.59-.36,6.82-10.77,9.69-13.64-.73Z"/>
    <path class="uuid-b2d1a055-2107-4825-b153-d8e8cf4c4433" d="M146.7,84.48l-1.67-2.96-.71-1.25,8.4-4.75,13.16,3.66-2.73,9.87-16.45-4.57ZM161.68,110.96l-.71-1.25,12.76-46.07,8.4-4.75,2.38,4.21-12.76,46.07-8.4,4.75-1.67-2.96ZM179.6,93.63l2.73-9.87,16.45,4.57,2.38,4.21-8.4,4.75-13.16-3.66Z"/>
    <path class="uuid-b2d1a055-2107-4825-b153-d8e8cf4c4433" d="M208.27,59.43l-13.8,4.39-2.05-6.44-.88-2.77,36.79-11.72,1.47,4.6-3.13,6.07-9.2,2.93,8.8,27.62-9.2,2.93-8.8-27.62Z"/>
    <path class="uuid-b2d1a055-2107-4825-b153-d8e8cf4c4433" d="M255.06,41.1l.03-3.4v-1.43s9.66.08,9.66.08l33.49,34.11-.04,4.83-9.65-.08-33.49-34.11ZM274.37,41.26l.04-4.83,9.65.08,33.49,34.11-.04,4.83-9.65-.08-33.49-34.11ZM308.02,56.04l.17-19.33,9.65.08-.25,28.99-9.57-9.74Z"/>
    <path class="uuid-b2d1a055-2107-4825-b153-d8e8cf4c4433" d="M320.35,73.24l.4-1.38,41.79-23.23,9.28,2.65-10.64,37.16-9.28-2.65,1.33-4.65-13.92-3.98,11.94-6.64,4.64,1.33,2.66-9.29-29.85,16.59-9.28-2.65.93-3.27Z"/>
    <path class="uuid-b2d1a055-2107-4825-b153-d8e8cf4c4433" d="M365,86.02l.69-1.26,45.86-13.54,8.48,4.62-2.31,4.24-45.85,13.54-8.48-4.62,1.62-2.98ZM377.72,62.68l4.16-7.62,8.48,4.62-9.25,16.97-13.1,3.87,9.72-17.84Z"/>
    <path class="uuid-b2d1a055-2107-4825-b153-d8e8cf4c4433" d="M405.88,108.27l.95-1.07,20.45-1.23-1.21-20.45,3.21-3.61,7.22,6.41,1.21,20.45,10.83,9.61-6.41,7.23-10.83-9.61-6.82.41,14.44,12.82.41,6.82-3.21,3.61-32.5-28.83,2.25-2.54ZM440.1,91.51l21.66,19.22-3.21,3.61-6.82.41-10.83-9.61-.81-13.64Z"/>
  </g>
  <g>
    <path class="uuid-b2d1a055-2107-4825-b153-d8e8cf4c4433" d="M103.07,460.83l.83-.95,5.99-.42,12.81,11.14-11.98.84-9.61-8.36,1.96-2.25ZM131.9,472.96l13.94-16.04,6.41,5.57-16.73,19.24-11.98.84-9.61-8.36,17.97-1.26Z"/>
    <path class="uuid-b2d1a055-2107-4825-b153-d8e8cf4c4433" d="M137.13,488.52l10.8-17.79,4.63-7.63,7.26,4.41-13.23,21.79,14.52,8.81-11.67,2.86-10.89-6.61-1.42-5.83ZM164.74,500.3l13.23-21.8,7.26,4.41-15.43,25.43-5.84,1.43-10.89-6.61,11.67-2.86Z"/>
    <path class="uuid-b2d1a055-2107-4825-b153-d8e8cf4c4433" d="M174.76,511.13l4.34-11.06,1.87-4.76,16.51-7.22,23.71,9.3-1.55,3.96-5.5,2.41-15.81-6.2-11.01,4.81-3.1,7.91,19.76,7.75,11.01-4.81-4.66,11.87-5.5,2.41-27.66-10.85-2.4-5.51ZM195.22,505.46l5.5-2.41,15.81,6.2-11.01,4.81-11.86-4.65,1.55-3.96Z"/>
    <path class="uuid-b2d1a055-2107-4825-b153-d8e8cf4c4433" d="M215.71,526.98l2.39-11.65,1.03-5.01,15.04-9.93,24.96,5.12-.85,4.16-5.01,3.31-16.64-3.41-10.03,6.62-1.71,8.33,20.8,4.27,10.03-6.62-2.56,12.49-5.01,3.31-29.12-5.97-3.3-5.02ZM234.92,517.91l5.01-3.31,16.64,3.41-10.03,6.62-12.48-2.56.86-4.16Z"/>
    <path class="uuid-b2d1a055-2107-4825-b153-d8e8cf4c4433" d="M258.74,536.88l.04-1.26,13.12-12.35-12.34-13.13.13-4.25,8.49.26,12.34,13.13,12.73.39-.26,8.49-12.73-.39-4.37,4.12,16.97.52,4.11,4.38-.13,4.25-38.19-1.17.09-2.99ZM272.41,506.28l25.46.78-.13,4.25-4.37,4.12-12.73-.39-8.23-8.75Z"/>
    <path class="uuid-b2d1a055-2107-4825-b153-d8e8cf4c4433" d="M299.91,517.41l-1.45-10.09,9.61,7.21,3.63,25.24-8.4,1.21-3.39-23.56ZM318.29,525.94l-4.2.6-1.21-8.41,8.4-1.21,3.6-4.81-12.61,1.81-9.61-7.21,33.61-4.83,1.21,8.41-7.19,9.62h-.03c-.3.41-.89,1.21-1.76,2.4l12.02,9.01.6,4.21-8.4,1.21-14.42-10.81Z"/>
    <path class="uuid-b2d1a055-2107-4825-b153-d8e8cf4c4433" d="M338.18,506.09l-.94-2.84-.4-1.2,8.06-2.66,26.81,13.54-6.66-20.19,8.06-2.66,10.65,32.3-8.06,2.66-37.54-18.96ZM341.9,517.38l-2.39-7.25,10.72,5.42,5.32,16.15-8.06,2.66-5.59-16.97Z"/>
    <path class="uuid-b2d1a055-2107-4825-b153-d8e8cf4c4433" d="M388.5,517.45l-.6-1.11,11.95-40.32,7.46-4.04,16.2,29.9-7.46,4.05-2.03-3.74-11.2,6.07,3.41-11.52,3.73-2.02-4.05-7.48-8.53,28.8-7.46,4.05-1.42-2.63Z"/>
    <path class="uuid-b2d1a055-2107-4825-b153-d8e8cf4c4433" d="M426.45,495.2l-13-16.26-5.58-6.98,6.63-5.3,15.92,19.92,13.26-10.6-1.32,11.94-9.95,7.95-5.97-.67ZM447.01,473.33l-15.92-19.92,6.63-5.3,18.58,23.24-.66,5.97-9.95,7.95,1.32-11.94Z"/>
    <path class="uuid-b2d1a055-2107-4825-b153-d8e8cf4c4433" d="M453.03,444l-8.5,9.48-4.43-3.97-1.9-1.71,22.68-25.28,3.16,2.84.33,6-5.67,6.32,18.99,17.02-5.67,6.32-18.99-17.02Z"/>
    <path class="uuid-b2d1a055-2107-4825-b153-d8e8cf4c4433" d="M485.36,437.26l-2.16-1.36,11.32-17.95-29.3,6.62-3.6-2.27,4.53-7.18,41.02-9.27,3.6,2.27-20.37,32.32-5.03-3.17ZM468.41,411.53l13.58-21.54,7.19,4.53-9.05,14.36-11.72,2.65Z"/>
  </g>
  <g>
    <polygon class="uuid-b2d1a055-2107-4825-b153-d8e8cf4c4433" points="292.23 351.51 292.23 192.53 400.98 163.13 366.16 224.5 345.04 211.37 314.21 219.07 320.49 230.49 353.03 220.79 357.02 238.48 370.72 250.76 345.04 276.26 351.6 285.01 374.15 263.6 374.15 237.91 443.22 237.91 364.16 316.97 335.62 426.01 300.32 365.21 321.35 355.22 329.05 323.83 316.49 323.83 308.79 357.22 292.23 351.51"/>
    <polygon class="uuid-b2d1a055-2107-4825-b153-d8e8cf4c4433" points="274.7 351.51 274.7 192.53 165.95 163.13 200.77 224.5 221.89 211.37 252.72 219.07 246.44 230.49 213.9 220.79 209.9 238.48 196.2 250.76 221.89 276.26 215.33 285.01 192.78 263.6 192.78 237.91 123.71 237.91 202.77 316.97 231.31 426.01 266.61 365.21 245.58 355.22 237.88 323.83 250.44 323.83 258.14 357.22 274.7 351.51"/>
  </g>
</svg>