<svg enable-background="new 0 0 566.9 566.9" viewBox="0 0 566.9 566.9" xmlns="http://www.w3.org/2000/svg"><circle cx="283.3" cy="278.8" fill="#0047a0" r="279.2"/><g fill="#fff"><path d="m499.5 437.4c-6.6 11.6-15.7 21.3-24.9 30.9-10.7 11.1-22.4 21.1-34.9 29.9-1.9 1.3-3.7 2.7-6.1 2.8-10.9-.5-20.9-4.1-31-7.8-1.8-3 .8-4.1 2.6-5.2 16.4-9.4 30.8-21.3 44.6-34 5.4-4.9 9.3-11.2 15.3-15.6.8-.4 1.6-.7 2.5-1.1h-.1c10.6-1.3 21.4-1.3 32 .1z"/><path d="m131.8 501c-19.3-11.9-35.5-27.2-50.2-44.1-5.4-6-10.3-12.4-14.7-19.2 1.9-2.6 4.6-1 6.9-1.1 6.8-.1 13.7-.6 20.4.4l1.3.1c.7-.6 1.8-.6 2.5 0 .2.2.6.3.9.2.8.3 1.7.6 2.5 1 7.6 5.3 12.6 13.2 19.5 19.3 12 10.9 25 20.7 38.8 29.4 2.1 1.3 6.2 1.8 4.3 6.1-10.4 3.9-20.9 7.7-32.2 7.9z"/><path d="m406.2 451c1.9-3.3 4.9-5.5 7.7-7.9 17.7-15.2 33.9-31.9 45.9-52.1 2.7-.4 1.8 1.8 1.8 2.9.1 13.1 0 26.2.1 39.3 0 3-1.4 5.1-3.1 7.2-11.2 13.3-24.4 24.3-38.5 34.4-5.2 3.8-10.6 7.3-16.2 10.5-2.2 1.2-4.4 2.7-6.9.8-1.6-4.8 1-9 2.2-13.3 2.1-7.3 2.7-15.2 7-21.8z"/><path d="m106.8 391c13.7 22.7 32.1 41 52.5 57.5 4.1 4.3 4.6 10.1 5.8 15.4 1.7 7.3 5.7 14.2 4.7 22.1-2.5 2-4.8.6-6.9-.7-12-7.1-23.6-14.9-33.9-24.4-7.3-6.7-15.4-12.7-21.3-21-1.5-2.1-2.8-4-2.8-6.8.1-13.1 0-26.2.1-39.3 0-1-1-3.2 1.8-2.8z"/><path d="m61.8 430.6c-13.2-19.6-23.2-40.9-31.2-63.2.3-.8 1.1-1.3 1.9-1.3 10.3 1.9 20.7 3.3 29.8 9 5.9 10 10.2 20.9 16.5 30.8 3.9 6.1 7.7 12.3 12.1 18.2 1.4 1.9 3.5 3.7 2.1 7.3-9.7.4-19.6.1-29.5.1-.7.1-1.4-.3-1.7-.9z"/><path d="m536.1 367.5c-8 22.3-18 43.5-31.2 63.2-5.3 2.4-10.8.1-16.1.9-5.1-.2-10.3.4-16.7-.6 5.3-10.3 12.3-18.4 17.6-27.7s9.3-19.1 14.8-28.1c9.1-5.5 19.5-7.1 29.7-8.9.8-.3 1.5.4 1.9 1.2z"/><path d="m468.4 377.1c7.5-15.6 13.5-31.9 17.9-48.6 3.1-.1 2.9 2.6 3.4 4.4 3.5 13.1 7.6 26 10.5 39.3.3 2.7-.3 5.4-1.6 7.8-6.4 14-14.1 27.4-23 40-1.6 2.2-3.1 4.5-7.4 5-.1-16.1-2-32 .2-47.9z"/><path d="m80.4 328.5c4.4 15.2 8.9 30.4 16.2 44.6l1.5 2.7c.4.6.5 1.3.5 2 1 15.5 1 31.1-.1 46.7-3.7.5-5.3-1.8-6.8-3.9-9.4-13.1-17.4-27-24-41.7-1-2.1-1.4-4.4-1.1-6.7 3-13.2 6.9-26.2 10.4-39.3.5-1.8.3-4.5 3.4-4.4z"/><path d="m470.8 104c22.7 3.8 67.5 85.5 75.2 135.2-2.4 4.2-6.4 7.1-10.8 11.6-3-27.1-10.2-53.6-21.3-78.5-11.1-24.8-26.2-47.1-43.1-68.3z"/><path d="m31.6 250.3-11.4-10.6c10.1-53.9 33.7-99.9 74-137 2 4.9-2 6.9-4.1 9.5-20.7 25.2-36.7 53.9-47 84.8-5.9 17.3-9.7 35.2-11.5 53.3z"/><path d="m526.2 259.9-4.7 4.4c-4.5-3-7.2-6.6-7.8-12.1-5.4-47.5-23.8-89.4-54.2-126.1-2.4-2.9-2.4-2.9-3.3-6.3 22.5.8 72.3 99.9 70 140.1z"/><path d="m45.2 264.4-4.7-4.4c-3.1-38.2 42.6-130.9 69.3-140.8 2 2.7-.4 4.2-1.7 5.8-31.2 37.3-49.9 79.9-55.3 128.3-.5 4.9-3.5 8.1-7.6 11.1z"/><path d="m28 359c-4.9-16.9-9-34-10-51.6.2-.1.4-.4.5-.3 10.8 4.3 21.7 8.6 29.3 18.1 2.3 11.4 5.3 22.6 8.9 33.7.9 2.7 2.1 5.5.2 8.4-5 1.7-9.3-1-13.7-2.3-5.2-1.5-11.1-1.6-15.2-6z"/><path d="m548.6 307.3c-1 17.7-5.1 34.8-10 51.7-8.8 5.5-18.5 7.9-28.8 8.3-2.1-2.8-.9-5.6.1-8.3 3.6-11.1 6.6-22.3 8.9-33.7.4-1.6 1.4-3.1 2.7-4.1 7.9-5.3 16.2-10 24.8-14.2.8-.3 1.7-.2 2.3.3z"/><path d="m523.6 273.1c7.1-8.7 15.5-16 24.1-24.8 3.3 17.3 2.1 33.6 2.3 49.8-6.9 8-16.6 11.6-25.5 16.5-1.6.9-2.8-.2-3.3-1.8.1-12.1.8-24.2.9-36.3.2-1.3.7-2.5 1.5-3.4z"/><path d="m16.7 298.1c.1-16.1-.9-32.4 2.1-49.9l23.8 23.8c1.3 1.1 2 2.8 2 4.5 0 12.1.7 24.1.9 36.2-.6 2-2 2.9-3.7 1.9-8.7-5.1-18.5-8.4-25.1-16.5z"/><path d="m67.1 243.3c-2.5-29.7 39.3-103.3 62.6-112.4 1.8 2.5-.6 3.8-1.8 5.2-21.5 26.3-37.7 55.2-45.7 88.5-1.9 8.1-9.2 11.7-15.1 18.7z"/><path d="m499.4 242.4c-7.8-6.9-14.2-13.1-16.7-23.3-7.5-30.6-23.2-57.2-42.9-81.7-1.4-1.8-3.9-3.2-3.3-6.2 21.1 4.3 66.6 84.2 62.9 111.2z"/><path d="m488.8 310.3c1.8-9.2 1.8-18.6 2.5-28 3.4-.3 3.8 2.7 4.9 4.6 6.2 10.6 12.4 21.2 18.3 32 .6 1.1 1 2.3 1.3 3.5.1.7.1 1.3.1 2-2 10.8-4.7 21.5-8.1 32-.9 2.9-1.2 6.8-5.7 7-3.3-4.4-3.5-9.8-4.8-14.7-3.4-12.7-7.8-25.2-8.5-38.4z"/><path d="m75.3 282.3c.7 9.3.7 18.7 2.5 28-1.2 16.8-7.3 32.4-11.1 48.5-.3 1.7-1 3.2-2.2 4.4-4.2.1-4.7-3.6-5.5-6.3-3.4-10.9-6.7-21.8-8.3-33 .4-5 3.5-8.7 5.8-12.9 4.4-8 9-15.8 13.6-23.7 1.2-1.9 1.7-5.2 5.2-5z"/><path d="m491.3 269.2c-1.3-8.9-2.5-17.9-3.8-26.8l1.7-1.3 28.3 29.5c3.2 9.2 2.7 32.5-.8 39.8-1.4 1.1-2.4.2-3.1-.9-7.6-13.3-16.6-25.9-22.3-40.3z"/><path d="m49.2 270.6 28.4-29.4 1.6 1.2c-1.3 8.9-2.6 17.8-3.8 26.8-3 9.9-9.6 17.9-14.3 26.9-2 4.1-4.3 8.1-6.9 11.8-1 1.3-1.4 3.8-4.1 2.6-.9-.9-1.5-2-1.7-3.3-.9-12.2-3.4-24.4.8-36.6z"/><path d="m336.9 542.9c32-6.5 61.6-19 89.5-35.8-.2-3.3-3-3.6-5.3-4.3-7.7-2.4-15.6-4.3-23.3-6.5-2.3-.7-5-.8-6.9-4.3 1.5-7.3 3.6-15.3 5.7-23.2 1-3.5 2.8-7 1.4-10.9-.6-.9-1.3-1.6-2.5-.8-24.7 15.9-51.5 26.3-80.7 30.3-.3.3-.5.6-.5 1l-3.1.1-.1-.2c-.9-.1-1.8-.1-2.7.1-1.9.1-3.7.3-5.6.4-47.5 4.2-91.5-5.9-131.7-31.7-1.2-.8-1.9 0-2.5.9-1 2.3-.3 4.5.3 6.7 2.1 7.2 4 14.5 5.7 21.8.6 2.4 1.7 4.8.2 7.3-1.7 1.7-4.1 1.9-6.3 2.5-7.6 2.2-15.4 4-22.9 6.4-2.3.7-5.1 1-5.3 4.4 2.2 1.2 4.3 2.4 6.5 3.7 43.4 25.1 89.9 38.4 140.3 37.7 11.4.2 22.8-.8 33.9-3 .8.1 1.6-.1 2.3-.5 4.7.1 9.1-1.2 13.6-2.1zm-17 1.4-.1.5h-.4c.1-.2.3-.4.5-.5z"/></g><path d="m326.9 506.8c1.4 2.8 1.9 5.9 1.4 9-2.3.5-4.5 1.1-6.7 1.4-4.9.7-9.8 1.3-14.9 1.9-1.8-2.7-.2-5.9-2.6-8.7 7.9-2.1 15.2-2.7 22.8-3.6z" fill="#fdfcfc"/><path d="m212 37.2c-.4-1.8-3.4-2.3-7.1-2.8-1.2-.2-2-.4-2.1-.8s.7-1 2.7-1.8c4-.5 6.5-.5 9.2-.3 2 .2 2.5.8 2.7 1.5.1.6-.1 1.3.1 2l.9 4.9 29.1-5.4-1.1-6.4c-.4-1.4-3.4-2.5-6.9-3.1-1.3-.2-2.1-.6-2.2-1s.7-.9 2.5-1.5c4.5-.6 7.9-.1 10.3.2 1.3.2 1.7.7 1.8 1.4s0 1.5.1 2.6c3 19.1 3.5 21.8 2.2 26.1-.5 1-1.1 1.8-1.7 1.9-.7.1-1.5-.7-2.3-3.4l-12.1 2.3c.8 4.8 1.4 9.3 1.4 12.9 7-1.5 14.3-3.4 20-4.9 4.1-1.3 3.4-2.3 6.8-2.9 1.4-.2 3.5-.4 7-.5 2.7-.1 3.9.9 4.1 2s-.8 2.4-2.9 2.7l-.4.1c-4.2.6-10.8 1.5-18.5 2.8-12.5 2.2-27.7 5.3-40 9.2-3.8 1.2-4.4 2.6-6.2 2.9-2.4.4-12.5-2-12.8-3.9-.1-.4.2-.6 1-.7.4-.1 1-.1 1.7-.1 4.8-.1 11.2-.8 18-2 5.7-1 11.8-2.3 17.5-3.7-.9-3.9-1.9-9-2.7-12.8l-11.5 2.3c.2 2.5-1.1 5.3-2.4 5.5-1.2.2-2-1.8-2.8-6zm6.6 5.2 1.9 12.2 29.2-5.6-2.1-12zm19.3 34c-.1-.7-.6-1.6-1.5-2.1-.6-.3-1-.7-1.1-1s.2-.7 1.1-.8c1.8-.3 6.1.8 6.4 2 .1.8-.7 1.7-.8 2.8 10.2.1 15.9 5.6 17 11.7 1.3 7.4-3.8 15.7-15 17.7s-18.5-4.1-19.8-11.6c-1.1-6.4 2.7-13.8 12.8-17 .7-.3 1-1 .9-1.7zm-8.9 17.4c.9 5.4 6.1 10.1 14.4 8.7s11.6-7.7 10.7-13c-1-5.6-6.1-10.3-14.5-8.9-8.3 1.4-11.6 7.6-10.6 13.2z" fill="#fefefe"/><path d="m321.9 65.9c-8.1-2.5-11.4-8.9-10.3-13.6s6-8.6 15.5-7.9c.6-.2.9-.7 1-1.2s-.1-1.2-.4-1.8c-4-.8-7.5-1.4-10.6-1.9-2.1 0-2.8.5-4 .2-1.4-.3-7.2-4.3-6.9-5.6.1-.3.4-.4 1.2-.2.3.1.7.2 1.2.4 2.1.9 6.3 2.2 11.6 3.3 7.2 1.6 16.3 3.2 19.6 3.5 4 .3 2.6-1.4 7.7-.2 1.5.3 6.3 1.4 5.8 3.7-.1.3-.4 1.7-4.3.8-3.8-.7-12.6-2.5-17.4-3.4.1.7.1 1.1 0 1.5-.2.7-.6.8-1.1 1.6 8.2 3.2 11.2 9 10.2 13.7-1.7 7.7-11 8.5-13.3 8l-1.2 5.5c8.4.6 20.9.9 27.3.6l7.6-34.3c.2-1.5-2.4-4.1-6.8-7-1-.6-1.9-1.3-1.7-1.8.1-.4 1-.7 3.3-.4 4.4 1 12.2 5 11.8 6.8-.1.4-.8 2.1-.9 2.6l-6.3 28.3c1.4.3 3.3.6 4.7.8 3.5.4 2.2-1.8 7.6-.6 1.7.4 6 1.3 5.4 3.9-.2 1-1.5 1.8-3.3 1.5-3.1-.6-10.7-2.2-14.9-2.9-1.6 6.6-3.1 12.6-5.5 15.4-1 1.4-2 2.1-2.7 1.9s-1-1.3-.5-3.7l2-9c-14 1.6-30.3 1.4-42.4.5-1.9.1-2.3 1.1-3.7.8-2-.5-11.4-6.9-11.1-8.3.1-.4.5-.5 1.4-.3.3.1.7.2 1.1.3 2.6.9 5.3 1.6 8 2.2 4.9 1.1 9.9 1.7 14.4 1.9zm-5.3-12.5c-.8 3.8 1.5 8.4 8 9.8 6.3 1.4 10.4-1.7 11.2-5.5.9-4-1.4-8.6-7.8-10-6.5-1.5-10.5 1.7-11.4 5.7zm6.2-26.1c3.9 1.4 7.4 2.6 13.1 4.1 2.3.5 6.1 1.4 5.7 3.1-.4 1.9-5.5.7-11.3-.6-1.8-.4-3.3-.7-4.1-1.1-2.2-.8-5.9-5.1-5.7-6 .1-.3.3-.3.7-.2.4.2.9.4 1.6.7zm15.8 57.7c1.1.1 1.9-.4 2-1.2.1-.4 0-1-.3-1.6-.4-.7-.6-1.2-.5-1.5.1-.4.5-.5 1-.3 2.1.5 5 3.2 4.8 4.2-.2.7-1.1 1-1.6 1.7 8.1 3.7 11 10.3 9.8 15.7-1.2 5.5-7.7 11.3-18.7 8.8-10.1-2.3-14.8-10-13.3-16.6 1.2-5.3 6.5-9.7 15.9-9.1zm-11.7 10.3c-1.1 4.8 1.6 10.3 9 11.9 7.5 1.7 12.1-2.2 13.2-7 1-4.6-1.6-10.1-9-11.8-7.4-1.6-12.2 2.3-13.2 6.9z" fill="#fefefe"/><path d="m224.9 516.6c-1.3 4.5-3.2 7.7-5.9 9.6s-5.7 2.4-9.2 1.4c-1.6-.4-2.9-1.1-3.9-1.9l1.5-5.4c.9 1.1 2.1 1.9 3.6 2.3 3.8 1.1 6.6-1.5 8.3-7.7l6.3-22.8 5.6 1.6z" fill="#0047a0"/><path d="m263.6 522c-1.6 10.8-7.4 15.4-17.2 13.9-9.4-1.4-13.4-7.4-11.8-17.8l3.4-22.5 5.8.9-3.4 22.3c-1.1 7.1 1.3 11.1 7.2 12 5.7.9 9.1-2.1 10.1-9l3.4-22.7 5.8.9z" fill="#0047a0"/><path d="m285.2 523.9c-.1 4.7-1.2 8.3-3.3 10.8s-5 3.8-8.6 3.7c-1.7 0-3.1-.3-4.3-.8l.1-5.6c1.1.9 2.5 1.3 4.1 1.3 3.9.1 6-3.1 6.1-9.5l.4-23.7 5.9.1z" fill="#0047a0"/><path d="m326.4 534.9-6.4.6-4.5-9.4-15.1 1.5-2.4 10.1-6.4.6 10.4-39.1 6.5-.7zm-13-13.5-6.7-14.3c-.2-.5-.5-1.4-.9-2.8h-.2c0 1.1-.1 2.1-.3 2.9l-3.7 15.4z" fill="#0047a0"/><path d="m362.2 526-7.5 1.9-17.1-13.2c-.6-.5-1.1-.9-1.4-1.3h-.1l4.6 18-5.7 1.4-9.3-36.6 5.7-1.4 4.4 17.3h.1c.1-.5.3-1.1.6-1.8l8.4-18.9 6.9-1.8-10.2 21.3z" fill="#0047a0"/><path d="m314.8 487.4c-.1.3-.2.6-.1 1-1.3 1.3-2.6 1.1-3.9.2l-2.3-.1c2.9-.5 3.4-.6 6.3-1.1z" fill="#fff"/><path d="m235.4 312.2 48.1 118.3 48-118.3-48 79.2z" fill="#cd2e3a"/><path d="m440.4 242.8c9.5-10.2 31.7-35.1 31.7-35.1l-148.1 50.7s-7.5 4.9-16.6 18.7-23.9 39.7-23.9 39.7-14.8-25.9-23.9-39.7-16.6-18.7-16.6-18.7l-148-50.7s22.2 24.9 31.7 35.1 29.3 8.9 29.3 8.9l60.1 7.6-75.2.9c22.9 20.4 36 16.5 36 16.5l45.1-4.9-55 17.4 9.9 4.9c9.9 4.9 14.6 1.8 14.6 1.8l16.2-6c16.2-6 31.7 6.9 31.7 6.9l44.1 75.2 44.1-75.2s15.4-12.9 31.7-6.9l16.2 6s4.8 3.1 14.6-1.8l9.9-4.9-55-17.5 45.1 4.9s13.1 3.9 36-16.5l-75.1-.9 60.2-7.6c0 .1 19.7 1.4 29.2-8.8z" fill="#cd2e3a"/><path d="m283.5 250.4-16.4 9.7 3.1-20.5-13.3-14.5 18.4-3 8.2-18.7 8.2 18.7 18.3 3-13.3 14.5 3.2 20.5z" fill="#cd2e3a"/></svg>