<svg enable-background="new 0 0 113.4 113.4" viewBox="0 0 113.4 113.4" xmlns="http://www.w3.org/2000/svg"><circle cx="56.7" cy="56.7" fill="#e73731" r="56.7"/><circle cx="56.7" cy="56.7" fill="none" r="54.1" stroke="#020203" stroke-miterlimit="10" stroke-width="1.3988"/><circle cx="56.7" cy="56.7" fill="none" r="35.9" stroke="#020203" stroke-miterlimit="10" stroke-width="1.3988"/><circle cx="56.7" cy="56.7" fill="#020203" r="34.1"/><path d="m14.4 82.4 6.4-4 .6 1-6.4 4z" fill="#fffdfc"/><path d="m16.2 85.3 5.9-4.8.6.7-2.1 4.7 5-1.1.6.7-5.9 4.8-.7-.8 3.6-2.9c.1-.1.2-.1.3-.2s.2-.2.4-.3c-.2.1-.4.1-.5.2-.1 0-.2.1-.3.1l-4.1.9-.1-.2 1.8-3.9c.1-.1.1-.3.2-.4s.1-.2.2-.3c-.1.1-.2.2-.3.3s-.2.2-.3.2l-3.6 2.9z" fill="#fffdfc"/><path d="m22.1 92.2 5-5.7 3.2 2.9c.3.3.4.5.4.8s-.2.6-.5 1l-1.1 1.3c-.3.4-.7.6-.9.7-.3.1-.6-.1-.9-.3l-2.4-2.1-2 2.2zm7-2.2-2-1.8-1.3 1.5 2 1.8c.2.1.3.2.4.2s.2-.1.4-.3l.5-.6c.1-.2.2-.3.2-.4.1-.1 0-.3-.2-.4z" fill="#fffdfc"/><path d="m27.6 96.8 4.2-6.3 4.3 2.8-.7 1.1-3.3-2.2-.9 1.4 2 1.3-.7 1.1-2-1.3-1 1.6 3.4 2.2-.8 1.2z" fill="#fffdfc"/><path d="m33.7 100.6 3.1-6.9 3.9 1.8c.4.2.6.4.6.7.1.3 0 .7-.2 1.1l-.7 1.6c-.2.5-.4.8-.7.9s-.6.1-.9 0l-.6-.3.9 3.6-1.5-.7-.7-3.4-1-.5-1.2 2.6zm6.1-4.1-2.4-1.1-.9 1.9 2.4 1.1c.2.1.3.1.4.1s.2-.2.3-.4l.4-.8c.1-.2.1-.4.1-.5 0-.2-.1-.2-.3-.3z" fill="#fffdfc"/><path d="m40.7 103.5 2.4-7.2 1.1.4-2.4 7.2z" fill="#fffdfc"/><path d="m42.9 104.3 4.4-6.8 1.1.2 1.3 8-1.3-.3-.3-1.7-3.1-.7-.9 1.5zm2.9-2.5 2.2.5-.4-3.2z" fill="#fffdfc"/><path d="m51.1 105.8.5-7.6 1.2.1-.4 6.1 3.8.2-.1 1.4z" fill="#fffdfc"/><path d="m64.3 99.1-3.3.5.2 1.6 3.1-.5c.5-.1.8 0 1 .2s.4.7.5 1.4l.1 1c .1.7.1 1.2-.1 1.4-.1.3-.4.4-.9.5l-3.1.4c-.5.1-.8 0-1-.2s-.4-.7-.5-1.4v-.2l1-.5.1.9 3.5-.5-.2-1.7-3.1.5c-.5.1-.8 0-1-.2s-.4-.7-.5-1.4l-.1-.8c-.1-.7-.1-1.2.1-1.4.1-.3.4-.4.9-.5l2.8-.4c.5-.1.8 0 1 .2s.4.6.5 1.2v.2l-1 .5z" fill="#fffdfc"/><path d="m68.5 104.6-2.2-7.3 4.9-1.5.4 1.2-3.8 1.2.5 1.6 2.2-.7.4 1.2-2.2.7.5 1.8 3.9-1.2.4 1.4z" fill="#fffdfc"/><path d="m75.4 102.4-3.3-6.8 3.9-1.9c.4-.2.7-.2.9-.1.3.1.5.4.7.9l.8 1.6c.2.5.3.8.2 1.1s-.3.5-.6.7l-.6.3 3.3 1.6-1.5.7-3.1-1.7-1 .5 1.2 2.6zm.7-7.3-2.4 1.1.9 1.9 2.4-1.1c.2-.1.3-.2.3-.3s0-.3-.1-.5l-.4-.8c-.1-.2-.2-.3-.3-.4s-.2 0-.4.1z" fill="#fffdfc"/><path d="m83.7 97.9-6.7-4.6 1.1-.8 4.8 3.4-1.5-5.6 1-.7 2 7.8z" fill="#fffdfc"/><path d="m87.3 95.2-4.8-5.8.9-.8 4.8 5.8z" fill="#fffdfc"/><path d="m88.4 85.6-2.2 2.3 3.5 3.3 2.2-2.3-1.2-1.1 1.1-.6.6.6c.5.5.8.9.8 1.2.1.3-.1.6-.4 1l-2.1 2.2c-.3.4-.7.5-1 .5s-.7-.3-1.2-.8l-2.9-2.8c-.5-.5-.8-.9-.8-1.2-.1-.3.1-.6.4-1l2.1-2.2c.3-.4.7-.5 1-.5.3.1.7.3 1.2.8l.5.5-.6 1z" fill="#fffdfc"/><path d="m95.1 87.3-6.2-4.4 3-4.2 1.1.7-2.3 3.3 1.4 1 1.3-1.9 1.1.7-1.3 1.9 1.5 1.1 2.3-3.3 1.2.8z" fill="#fffdfc"/><path d="m15.2 39.7c-2.3-6 .8-11.8 3.5-13.7-.2 4.8-.5 9.5-3.5 13.7z" fill="#fefefe"/><path d="m12.2 50.9c-3.5-4.6-2.6-11-.3-14.1 1.2 4.7 2.1 9.3.3 14.1z" fill="#fefdfd"/><path d="m12.3 62.5c-4.2-3.2-5.5-9.3-3.9-13.6 2.2 4.4 4.4 8.6 3.9 13.6z" fill="#fefefd"/><path d="m8.1 61.7c3.3 3.6 6.4 7 7.2 12-4.6-2-8.3-8-7.2-12z" fill="#fefefe"/><path d="m20.8 30.4c-.3-3.3 2.4-7.5 5.8-9.3.4 3.3-2.9 8.7-5.8 9.3z" fill="#fefdfd"/><path d="m26.4 31c-2.3 3.4-4.9 5.8-8.7 6.9 1.1-3.7 5-6.8 8.7-6.9z" fill="#fefdfc"/><path d="m17.3 49.7c.7 2.6-1.5 8.3-3.8 9.9-.9-3.3 1-8.2 3.8-9.9z" fill="#fefdfd"/><path d="m16.9 60c1.3 2.6.6 8.6-1.1 10.7-1.7-3.3-1.3-7.8 1.1-10.7z" fill="#fefdfd"/><path d="m20.5 39.8c-.1 2.8-3.6 7.6-6.3 8.7-.1-3.4 2.8-7.5 6.3-8.7z" fill="#fefdfc"/><path d="m98.1 39.6c-2.2-2.9-4-10.3-3.3-13.5 3.3 1.4 5.1 8.8 3.3 13.5z" fill="#fefefe"/><path d="m101.3 36.7c2.4 3.2 3.2 9.7-.2 14.1-1.8-4.6-.9-9.2.2-14.1z" fill="#fefefd"/><path d="m104.9 49c1.4 2.8 1.1 9.5-3.9 13.6-.5-5.1 1.6-9.3 3.9-13.6z" fill="#fefefe"/><path d="m98 73.8c.8-5 3.9-8.5 7.2-12.1.7 3.2-1.6 9.7-7.2 12.1z" fill="#fefdfd"/><path d="m86.6 21.2c3.2 1.2 6.2 5.9 5.9 9.3-2.9-.8-5.8-5.4-5.9-9.3z" fill="#fefdfd"/><path d="m87.3 31c3.2 0 7.1 3 8.3 6.7-2.6 0-7.6-4-8.3-6.7z" fill="#fefcfc"/><path d="m96 49.7c2.9 1.7 4.6 6.1 3.9 9.9-2.3-1.2-4.6-7.2-3.9-9.9z" fill="#fefdfd"/><path d="m92.9 39.8c3.1.9 6.1 4.9 6.3 8.6-2.7-.8-6.4-6-6.3-8.6z" fill="#fefdfc"/><path d="m96.4 60c2.3 2.8 2.7 6.4 1.2 10.7-1.8-1.5-2.6-8-1.2-10.7z" fill="#fefdfd"/><path d="m45.9 7.5c0 .4-.1 1-.3 1.7l-.2 1 1.4 8.3-1.1.3-1.1-6.3c-.2.4-.4.8-.7 1.2l-.7-1.1c.8-1.5 1.4-3.3 1.6-5.2zm7.4 3.3-6.3 1.1-.7-4.3 6.3-1.1zm-4.7 1.5c.1.3.1.7.2 1 .2 1.4.3 2.4.1 3.2-.1.8-.5 1.4-1 2l-1-.6c.4-.4.7-1 .9-1.7.1-.7.1-1.7-.1-3.1 0-.2-.1-.5-.1-.7zm3.4-2.4-.4-2.1-4 .7.4 2.1zm-.2 7.8-1.1.2-1-5.8 1.1-.2zm3.5-.7-1.6.3c-.3 0-.5 0-.7-.1s-.3-.3-.3-.6l-.8-4.8 1.1-.2.7 4.3c0 .1 0 .1.1.2s.1.1.2.1l1.1-.2z" fill="#fffdfc"/><path d="m69.1 7.9-.9 4.1c-.3 1.4-.6 2.6-.9 3.7s-.5 1.7-.6 1.9-.3.3-.4.4c-.2.1-.4.2-.6.2s-.8 0-1.7-.2c-.3 0-.6-.1-.8-.1l-.5-1.1c.6.1 1.2.2 1.7.3s.8.1 1 .1c.1 0 .2-.1.3-.2s.2-.6.5-1.3c.2-.8.5-1.8.8-3s .5-2.5.8-3.7l-3.2-.5c-.5 2.4-1.2 4.3-2.2 5.6s-2.5 2.4-4.4 3.3l-.7-1c2.1-1 3.6-2.1 4.4-3.3-.6-.9-1.4-1.9-2.5-3l .9-.8c1 .9 1.7 1.8 2.3 2.6.5-1 .9-2.3 1.1-3.7l-4.6-.7.2-1.1z" fill="#fffdfc"/><path d="m88.3 61.8c-.5.3-.9.5-1.3.8-1.2.7-2.3 1.4-3.5 2.1-.1.1-.2.1-.1.3.7 1.7 1.4 3.3 2.1 5 0 0 0 .1.1.1-.1 0-.1 0-.1 0-3.5-1.8-6.9-3.5-10.4-5.3-2.8-1.5-5.7-2.9-8.6-4.4-1.3-.6-2.5-1.3-3.8-1.9-.1 0-.1-.1-.1-.2.1-.1.1-.3.1-.4.1-.1.1-.1.2-.1.6.1 1.3.2 1.9.3 1 .2 2 .3 3.1.5 1.2.2 2.5.4 3.7.6 1.5.2 3 .5 4.5.7 1 .2 1.9.3 2.9.5 1.1.2 2.2.3 3.3.5s2.2.4 3.4.5c.8.1 1.7.3 2.5.4z" fill="#e73731"/><path d="m27.7 70.2c.4-1 .9-2 1.3-3 .3-.7.6-1.5.9-2.2 0-.1 0-.1-.1-.2-1.6-.9-3.1-1.9-4.7-2.8-.1 0-.1-.1-.2-.1h.1c.9-.1 1.8-.3 2.7-.4.8-.1 1.5-.2 2.3-.4 1-.2 2-.3 2.9-.5 1-.2 2-.3 3.1-.5 1-.2 2.1-.3 3.1-.5s2-.3 2.9-.5c1-.2 2.1-.3 3.1-.5s2-.3 3.1-.5c.7-.1 1.4-.2 2.1-.3.1 0 .1 0 .2.1 0 .1.1.3.1.4s0 .2-.1.2c-1 .5-1.9 1-2.9 1.5-3.1 1.6-6.1 3.1-9.2 4.7-3.5 1.8-7 3.6-10.6 5.4.1 0 0 0-.1.1z" fill="#e73731"/><path d="m56.7 62.5c.1 0 .1 0 0 0 .2 0 .3 0 .3.1.2 1.1.3 2.2.5 3.3.2 1 .3 2 .5 3.1.2 1 .3 2.1.5 3.1.2 1.1.3 2.2.5 3.3.2 1 .3 2.1.5 3.1s.3 2.1.5 3.1.3 2.1.5 3.1c.2 1.1.3 2.1.5 3.2v.1c-.3-.3-.6-.5-.8-.7-1.1-1-2.3-2-3.4-3-.1-.1-.1 0-.2 0-1.3 1.2-2.7 2.3-4 3.5-.1.1-.2.1-.3.2 0-.3.1-.5.1-.8.2-1.1.4-2.2.5-3.3.2-1.1.3-2.2.5-3.3.2-1 .3-2.1.5-3.1s.3-2.1.5-3.1.3-2.1.5-3.1.3-2.1.5-3.1.3-2.1.5-3.1c.1-.8.3-1.6.4-2.5 0-.2.1-.1.2-.1.1.1.2.1.2 0z" fill="#e73731"/><path d="m34.4 33c1.3.1 2.5.2 3.8.3.6.1 1.2.1 1.8.2.1 0 .2 0 .2-.1.4-1.8.8-3.6 1.2-5.4v-.1c.1 0 .1.1.1.1 3.8 7.6 7.7 15.1 11.5 22.7.1.1.1.2-.1.2-.1.1-.2.2-.3.2-.1.1-.1.1-.2 0-1.1-1.1-2.2-2.2-3.3-3.3-4.9-4.9-9.8-9.8-14.7-14.8.1.1 0 .1 0 0z" fill="#e73731"/><path d="m71.8 27.8c.1.4.2.8.3 1.2.3 1.4.7 2.9 1 4.3 0 .2.1.2.2.2 1.1-.1 2.2-.2 3.2-.3.7-.1 1.4-.1 2.2-.2.1 0 .1-.1.2 0 0 .1-.1.1-.1.1-5.1 5.1-10.2 10.2-15.2 15.2-.9.9-1.8 1.8-2.7 2.7-.1.1-.2.1-.3 0s-.2-.2-.3-.2c-.1-.1-.1-.1 0-.2.6-1.2 1.3-2.5 1.9-3.7 3.2-6.3 6.4-12.6 9.7-18.9-.2 0-.1-.1-.1-.2z" fill="#e73731"/><g fill="#fff"><path d="m38.1 38.5c.1 0 .1.1 0 0l13.5 13.5c.1.1.1.1 0 .2s-.2.2-.3.4c-.1.1-.1.1-.2.1-1.1-.5-2.1-1.1-3.2-1.6-4.6-2.3-9.2-4.7-13.7-7-.1 0-.1-.1-.2-.1.2-.1.4-.1.7-.2 1.2-.3 2.4-.6 3.6-.8.1 0 .1-.1.1-.2 0-.5-.1-1.1-.1-1.6 0-.4-.1-.7-.1-1.1 0-.5-.1-1-.1-1.6-.1.1-.1 0 0 0z"/><path d="m75.2 73.8c-.1 0-.1-.1-.1-.1-4.5-4.5-8.9-8.9-13.4-13.4-.1-.1-.1-.2 0-.3l.3-.3c.1-.1.1-.1.2-.1.9.5 1.8.9 2.7 1.4 4.7 2.4 9.5 4.8 14.2 7.2.1 0 .1.1.2.1-.3.1-.6.1-.9.2-1.1.3-2.2.5-3.4.8-.1 0-.1.1-.1.2.1.7.1 1.4.2 2 0 .4.1.8.1 1.2z"/><path d="m63 55.8c.5-.1 1-.2 1.5-.3.9-.1 1.8-.3 2.7-.4s1.8-.3 2.8-.4c1-.2 2-.3 3-.5s2-.3 2.9-.5c1.4-.2 2.7-.4 4.1-.7.7-.1 1.3-.2 2-.3-.2.3-.4.5-.6.7-.7.8-1.5 1.7-2.2 2.5-.1.1-.1.2 0 .3.9 1 1.8 2.1 2.7 3.1l.1.1c-.3 0-.6-.1-.9-.1-1-.2-2-.3-2.9-.5-.8-.1-1.5-.2-2.3-.4-1-.2-2.1-.3-3.1-.5-.8-.1-1.7-.3-2.5-.4-1-.2-1.9-.3-2.9-.5s-1.9-.3-2.9-.5c-.5-.1-1-.2-1.5-.2-.1 0-.1 0-.1-.1v-.1c0-.1 0-.2 0-.2s0 0 0-.1c.1.1.1.1.1 0z"/><path d="m31.2 59.5c.3-.3.6-.7.9-1 .7-.8 1.3-1.5 2-2.3.1-.1.1-.1 0-.2-.9-1-1.8-2-2.7-3.1-.1-.1-.1-.1-.2-.2.4.1.7.1 1 .2 1 .2 1.9.3 2.9.5.9.1 1.8.3 2.7.4 1 .2 1.9.3 2.9.5s1.9.3 2.9.5 2 .3 3.1.5c1 .2 2.1.3 3.1.5h.2c.2 0 .2.1.2.2s0 .3 0 .4 0 .1-.1.2c-.8.1-1.5.2-2.3.4-.8.1-1.7.3-2.5.4-1 .2-2 .3-3 .5-.7.1-1.4.2-2.1.3-1 .2-2 .3-2.9.5-.9.1-1.8.3-2.7.4-1 .2-2.1.3-3.1.5 0-.1-.1-.1-.3-.1z"/><path d="m45.6 33c .6.3 1.2.5 1.8.8.7.3 1.4.6 2.2.9.1 0 .2 0 .2-.1.7-1.2 1.4-2.3 2.1-3.5 0 0 .1-.1.1-.2 0 .3.1.5.1.7.2 1.3.4 2.5.6 3.8.2 1.4.4 2.7.6 4.1.2 1.2.4 2.3.6 3.5s.4 2.3.6 3.5c.2 1.1.3 2.2.5 3.3 0 .3 0 .3-.2.3-.1 0-.2.1-.3.1-.1.1-.2 0-.2-.1-2.9-5.6-5.8-11.3-8.6-16.9-.1-.1-.1-.1-.1-.2z"/><path d="m52 81.4c-.2-.4-.4-.7-.6-1.1-.5-.9-1-1.7-1.6-2.6-.1-.1-.1-.1-.2-.1-1.3.5-2.5 1.1-3.8 1.6 0 0-.1 0-.1.1 0-.1 0-.1 0-.1 2.9-5.6 5.7-11.3 8.6-16.9.1-.1.1-.2.3-.1.1 0 .2.1.3.1.2.1.2.1.2.3-.2 1.4-.5 2.9-.7 4.3s-.4 2.7-.6 4.1c-.2 1.6-.5 3.1-.7 4.7-.2 1.5-.5 3-.7 4.5-.3.3-.3.7-.4 1.2z"/><path d="m67.7 79.3c-.4-.2-.8-.4-1.3-.5-.9-.4-1.8-.8-2.7-1.2-.1 0-.1 0-.2.1-.7 1.2-1.4 2.3-2.1 3.5 0 .1-.1.1-.1.2-.1-.4-.1-.7-.2-1-.2-1-.3-2.1-.5-3.1s-.3-2-.5-3.1c-.2-1-.3-2.1-.5-3.1s-.3-2.1-.5-3.1-.3-1.9-.5-2.9c-.1-.9-.3-1.8-.4-2.7 0-.1 0-.1.1-.2.1 0 .3-.1.4-.1.1-.1.2 0 .2.1.6 1.2 1.2 2.3 1.8 3.5 2.3 4.5 4.6 9 6.8 13.4.2.1.2.1.2.2z"/><path d="m67.7 33c-.1.2-.2.4-.3.6-2.8 5.5-5.6 11-8.4 16.5-.1.1-.1.2-.3.1-.1-.1-.2-.1-.4-.1-.1 0-.1-.1-.1-.2.1-.5.2-1 .2-1.5.2-1 .3-2.1.5-3.1s.3-2.1.5-3.1.3-2.1.5-3.1.3-2.1.5-3.1.3-2.1.5-3.1c.1-.7.2-1.3.3-2 .1 0 .1.1.1.1.7 1.2 1.4 2.3 2.1 3.5.1.1.1.1.3.1 1.3-.5 2.6-1.1 3.8-1.6z"/><path d="m38 73.8c0-.3.1-.7.1-1 .1-.8.1-1.6.2-2.4 0-.3 0-.6.1-.9 0-.1 0-.1-.1-.2-1.3-.3-2.7-.6-4-.9-.1 0-.1 0-.2 0 0-.1.1-.1.2-.1l11.1-5.7c1.9-1 3.8-2 5.8-2.9.1 0 .1-.1.2 0s .2.2.3.4c.1.1.1.1 0 .2-.6.6-1.3 1.3-1.9 1.9-3.8 3.8-7.7 7.7-11.5 11.5-.1 0-.2.1-.3.1z"/><path d="m75.3 38.5c0 .5-.1.9-.1 1.4-.1.7-.1 1.3-.2 2 0 .3-.1.6-.1.9 0 .1 0 .1.1.1.6.1 1.3.3 1.9.4.7.2 1.5.3 2.2.5h.1c-.2.1-.4.2-.5.3-4.3 2.2-8.5 4.3-12.8 6.5-1.3.6-2.5 1.3-3.8 1.9-.1.1-.2.1-.2-.1-.1-.1-.2-.2-.2-.3-.1-.1-.1-.1 0-.2l2.2-2.2c3.7-3.7 7.5-7.4 11.2-11.2 0 .1.1 0 .2 0-.1 0-.1 0 0 0z"/><path d="m54.3 37.1c.3.2.5.4.7.6.5.4 1 .9 1.5 1.3.1.1.1.1.2 0 .7-.6 1.4-1.2 2.1-1.8.1 0 .1-.1.2-.1 0 .3-.1.6-.1.9-.2 1-.3 2.1-.5 3.1s-.3 2.1-.5 3.1-.3 2.1-.5 3.1c-.1.8-.2 1.5-.4 2.3 0 .1 0 .1-.2.1s-.3 0-.5 0c-.1 0-.1 0-.1-.1-.2-1.6-.5-3.1-.7-4.7-.2-1.4-.4-2.7-.7-4.1-.1-1.1-.3-2.4-.5-3.7z"/><path d="m47.3 73c-.1-.4-.2-.7-.3-1.1-.1-.6-.3-1.2-.4-1.8 0-.1-.1-.1-.2-.1-.6 0-1.1.1-1.7.1-.4 0-.8.1-1.2.1 0-.1.1-.1.1-.2l8.8-8.8c.1-.1.1-.1.2 0s .2.2.3.2c.1.1.1.1.1.2-.8 1.6-1.6 3.1-2.4 4.7-1.1 2.2-2.2 4.3-3.3 6.5.1.1.1.1 0 .2z"/><path d="m37.8 52.5c.5-.3.9-.6 1.4-.8.4-.2.8-.5 1.2-.7.1-.1.1-.1.1-.2-.4-.9-.7-1.7-1.1-2.6 0 0 0-.1-.1-.1.1.1.2.1.3.2 3.7 1.9 7.3 3.7 11 5.6.1.1.1.1.1.2-.1.1-.1.3-.1.4s0 .1-.1.1c-1.1-.2-2.1-.3-3.2-.5-1-.2-1.9-.3-2.9-.5s-1.9-.3-2.9-.5-2.1-.3-3.1-.5c-.3 0-.4 0-.6-.1z"/><path d="m74.1 48c-.1.1-.1.3-.2.4-.3.8-.7 1.6-1 2.4-.1.1 0 .2.1.2.8.5 1.6 1 2.4 1.4 0 0 .1.1.2.1-.3 0-.5.1-.7.1-1.4.2-2.8.4-4.2.7-1.4.2-2.7.4-4.1.6-.8.1-1.6.3-2.5.4-.4.1-.8.1-1.2.2-.1 0-.1 0-.1-.1-.1-.2-.1-.3-.2-.5 0-.1 0-.1.1-.2.7-.4 1.4-.7 2.1-1.1 3-1.5 6-3.1 9.1-4.6 0 .1.1 0 .2 0z"/><path d="m69.8 70.2c-.4 0-.8 0-1.2-.1-.1 0-.3 0-.4 0-.4 0-.8-.1-1.3-.1-.1 0-.2 0-.2.2-.2.9-.4 1.9-.6 2.8v.1c-.1 0-.1-.1-.1-.1-1.9-3.7-3.8-7.4-5.7-11.1-.1-.1-.1-.2.1-.2l.3-.3c.1-.1.1-.1.2 0l8.9 8.9c-.1-.2-.1-.2 0-.1z"/><path d="m56.7 62.5c-.1 0-.2 0-.3 0z"/><path d="m56.8 51.1c-.1-.1 0-.1 0 0z"/><path d="m56.6 51.1c-.1-.1-.1 0 0 0z"/><path d="m51.6 56.2c-.1.1-.1 0 0 0z"/><path d="m51.6 56s0 .1 0 0c-.1.1-.1 0 0 0z"/></g></svg>