<?xml version="1.0" encoding="UTF-8"?>
<svg id="uuid-372c6c5f-21be-4051-ba85-bbb903e42e5d" data-name="Capa 1" xmlns="http://www.w3.org/2000/svg" viewBox="0 0 566.93 566.93">
  <defs>
    <style>
      .uuid-5ffbc765-d9af-4530-9bc8-4a0a16f497f0 {
        fill: #050404;
      }

      .uuid-2c9b0aeb-fd04-45d4-8531-ee9be2d8bb31 {
        fill: #efeeed;
      }

      .uuid-1a60faa3-3892-4724-b089-0585694ec490 {
        fill: #fff;
      }

      .uuid-5d7c724d-dea4-4948-8ba6-6a7f9a2b8336 {
        fill: #f2f0f0;
      }

      .uuid-5d417db2-8c73-4cfa-985a-acc656240975 {
        fill: #efeded;
      }
    </style>
  </defs>
  <g>
    <circle class="uuid-1a60faa3-3892-4724-b089-0585694ec490" cx="283.7" cy="283.8" r="279.21"/>
    <g>
      <circle class="uuid-1a60faa3-3892-4724-b089-0585694ec490" cx="283.72" cy="275.99" r="264.15"/>
      <path class="uuid-5ffbc765-d9af-4530-9bc8-4a0a16f497f0" d="M284.03,457.92c103.38,0,192.25-75.59,210.45-177.18,18.11-101.08-41.95-212-154.1-242.86-5.31-1.46-9.48-3.33-9.71-9.7-.27-7.38,3.48-11.62,10.79-10.62,15.08,2.06,29.48,6.94,43.38,12.87,90.56,38.6,147.52,106.01,166.36,202.51,28.36,145.27-65.57,284.92-208.78,316.35-146.22,32.09-290.05-58.29-324.11-204.42C-15.58,199.48,73.88,53.2,221.59,18.05c10.73-2.55,16.5,2.16,14.93,11.9-.86,5.32-4.72,6.62-9.03,7.78-27.87,7.52-53.29,20.05-75.83,38.06-46.67,37.29-74.2,85.81-80.36,145.1-7.49,72.15,16.61,133.41,70.02,182.31,39.41,36.08,90.28,54.72,142.71,54.72Z"/>
      <path class="uuid-5d7c724d-dea4-4948-8ba6-6a7f9a2b8336" d="M410.99,410.64c-.09.16-.18.32-.28.48.08-.17.17-.33.25-.5l.02.02Z"/>
      <path class="uuid-5d7c724d-dea4-4948-8ba6-6a7f9a2b8336" d="M407.59,412.87c.09-.16.18-.32.27-.48-.09.16-.18.32-.26.48h0Z"/>
      <path class="uuid-5d417db2-8c73-4cfa-985a-acc656240975" d="M439.15,384.73c-.15.16-.3.32.17-.19-.56.42-.38.29-.21.16l.03.03Z"/>
      <path class="uuid-5d417db2-8c73-4cfa-985a-acc656240975" d="M440.26,383.59c.09-.16.18-.32.26-.47-.09.16-.17.32-.26.48h0Z"/>
      <path class="uuid-5d7c724d-dea4-4948-8ba6-6a7f9a2b8336" d="M403.09,416.26c-.09.16-.18.32-.27.48.09-.16.17-.32.26-.49h0Z"/>
      <path class="uuid-5d7c724d-dea4-4948-8ba6-6a7f9a2b8336" d="M399.7,418.5c.09-.16.18-.32.28-.48-.09.16-.17.33-.26.49l-.02-.02Z"/>
      <path class="uuid-5d7c724d-dea4-4948-8ba6-6a7f9a2b8336" d="M399.72,418.52c-.09.16-.18.32-.27.48.08-.16.17-.33.25-.49l.02.02Z"/>
      <path class="uuid-5d7c724d-dea4-4948-8ba6-6a7f9a2b8336" d="M396.33,420.75c.09-.16.18-.32.27-.47-.09.16-.17.32-.26.48h0Z"/>
      <path class="uuid-2c9b0aeb-fd04-45d4-8531-ee9be2d8bb31" d="M128.28,384.73c-.16-.15-.32-.3.18.17-.43-.55-.29-.38-.16-.2l-.03.03Z"/>
      <path class="uuid-2c9b0aeb-fd04-45d4-8531-ee9be2d8bb31" d="M128.3,384.71c.17.13.35.27-.19-.15.46.49.31.33.16.18l.03-.03Z"/>
      <path class="uuid-5d417db2-8c73-4cfa-985a-acc656240975" d="M432.37,391.47c.09-.16.18-.32.27-.48-.09.16-.18.32-.26.49h0Z"/>
      <path class="uuid-5d417db2-8c73-4cfa-985a-acc656240975" d="M432.38,391.48c-.37.38-.75.75-1.12,1.13h-.01c.38-.39.75-.76,1.13-1.14h0Z"/>
      <path class="uuid-2c9b0aeb-fd04-45d4-8531-ee9be2d8bb31" d="M139.54,395.99c-.16-.15-.32-.29.14.13-.4-.49-.26-.32-.12-.15l-.02.02Z"/>
      <path class="uuid-5d417db2-8c73-4cfa-985a-acc656240975" d="M427.86,395.97c.14-.17.27-.34-.13.16.47-.43.31-.29.15-.14l-.02-.02Z"/>
      <path class="uuid-2c9b0aeb-fd04-45d4-8531-ee9be2d8bb31" d="M155.31,409.51c-.16-.15-.32-.3.15.14-.41-.51-.27-.34-.13-.16l-.02.02Z"/>
      <path class="uuid-5d7c724d-dea4-4948-8ba6-6a7f9a2b8336" d="M412.09,409.48c.09-.16.19-.32.28-.47-.08.17-.17.34-.25.5l-.03-.03Z"/>
      <path class="uuid-2c9b0aeb-fd04-45d4-8531-ee9be2d8bb31" d="M155.33,409.49c.17.14.34.28-.18-.15.45.49.3.33.16.17l.02-.02Z"/>
      <path class="uuid-5d7c724d-dea4-4948-8ba6-6a7f9a2b8336" d="M371.55,434.27c.09-.16.18-.32.27-.47-.09.16-.18.32-.26.48h0Z"/>
    </g>
  </g>
  <g>
    <path class="uuid-5ffbc765-d9af-4530-9bc8-4a0a16f497f0" d="M110.82,443.25c7.82.93,15.67,1.56,23.55,1.38,1.46-4.74,3.94-9.26,7.66-13.51,7.5-8.58,17.38-12.87,28.3-14.73,13.66-2.32,27.4-4.19,41.11-6.16,15.56-2.23,29.43-7.8,40.13-19.85,3.26-3.68,6.71-7.2,9.88-10.95,15.43-18.22,31.74-35.57,49.95-51.07,5.8-4.93,11.64-9.8,18.06-15.2,0,3.17,0,5.42,0,7.67,0,13.12.1,26.24,0,39.36-.16,18.64,10.61,30.46,26.97,36.51.8.29,2.06.29,2.72-.15,3.09-2.06,6.04-4.33,9.41-6.79-1.29-.6-2.04-1-2.82-1.3-13.36-5.19-19.59-14.02-19.66-28.25-.08-16.53-.09-33.06.06-49.58.01-1.55,1.06-3.6,2.3-4.54,11.12-8.4,20.39-18.34,26.98-30.73,9.74-18.32,8.16-37.28-7.87-51.47-2.69-2.38-5.24-4.94-8.14-7.68,6.53-2.48,12.01-2.14,17.1,2.11,5.67,4.74,10.11,10.36,11.9,17.55,1.47,5.91,2.16,12,3.2,18.01.28-.3.91-.86,1.39-1.51,15.92-21.54,20.29-45.75,14.52-71.39-7.91-35.18-30.4-58.45-63.15-72.04-29.41-12.21-60.04-13.45-91.05-8.1-28.2,4.87-52.81,16.74-71.27,39.29-21.99,26.86-28.4,57.12-18.07,90.41,4.14,13.34,11.65,24.64,24.27,31.64,2.28,1.26,3.45,2.65,4.13,5.13,4.55,16.64,14.01,29.68,28.78,38.81,1.11.69,2.24,2.42,2.25,3.68.11,17.41.23,34.82-.08,52.23-.23,12.86-6.68,21.97-18.43,27.08-3.89,1.69-8.07,2.92-12.24,3.7-26.32,4.89-52.12,11.54-76.92,21.78-7.04,2.91-7.07,2.8-6.74,10.25.28,6.29.91,12.42,1.84,18.41ZM327.74,168.19c-11.39-3.63-21.59-9.17-28.41-19.51-1.02-1.55-1.88-3.21-2.78-4.76,10.37,3.54,20.44,7.13,30.6,10.42,13.31,4.31,25.53,10.49,34.67,21.3,4.39,5.19,7.66,11.32,10.9,17.47-12.26-13.53-28.37-19.62-44.99-24.91ZM179.18,182.04c8.74-28.82,27.71-48.01,55.98-57.83,31.21-10.85,62.87-11.37,94.41-1.59,22.64,7.02,41.36,19.74,53.12,41.03,2.77,5.01,4.72,10.46,6.76,15.85-26.01-36.48-62.82-51.75-105.88-51.29-43.11.45-79.97,15.68-104.38,53.85ZM198.82,191.65c-.21.24-.6.32-1.53.09,2.02-3.52,3.84-7.18,6.11-10.53,8.55-12.6,20.64-20.47,34.79-25.43,11.64-4.08,23.31-8.06,35.44-12.25-3.34,7.11-8.06,13.02-14.64,16.52-7.93,4.23-16.37,7.73-24.91,10.57-13.38,4.45-25.69,10.35-35.27,21.02ZM220.15,204.09c.85-1.2,1.53-2.24,2.29-3.22,6.18-7.97,14.96-11.66,24.12-14.81,10.67-3.66,21.05-7.97,29.25-16.05,3.29-3.24,6.03-7.04,8.98-10.54,3.32,3.79,6.59,8.07,10.42,11.76,7.82,7.53,17.75,11.35,27.78,14.87,7.27,2.55,14.58,5.09,20.3,10.56,2.42,2.31,4.56,4.92,6.31,7.99-4.46-1.79-8.83-3.89-13.41-5.3-10.82-3.32-21.78-4.47-32.57.11-8.79,3.73-13.56,13.63-11.27,22.83.16.66.98,1.38,1.66,1.66,4.08,1.67,8.23,3.17,12.32,4.81,11.99,4.82,23.23,2.79,33.96-3.71,3.83-2.32,7.59-4.78,11.83-7.46,0,6.03.26,11.53-.05,16.99-1.3,22.91-7.04,44.45-22.05,62.35-5.76,6.86-12.7,13.09-20.1,18.14-14.85,10.14-37.18,11.37-51.53-10.78-13.61-21-22.49-43.85-28.18-68.07-.88-3.75-1.47-7.58-2.34-12.15,11.66,8.01,23.35,9.64,36.24,3.55v65.79c8.93,1.29,17.42,2.51,25.91,3.74-2.42-3.66-2.06-7,1.38-9.64,1.44-1.1,3.3-1.78,5.07-2.3,1.75-.52,3.62-.62,5.99-.99-3.49-3.36-6.96-5.21-11.42-4.33-4.54.89-8.24.12-10.2-5.01,3.6-2.49,7.25-5.1,10.99-7.57,5.16-3.41,5.19-3.37,3.71-9.87-2.48.89-4.89,1.96-7.4,2.62-4.6,1.21-9.03-.61-8.79-6.85.41-10.71.15-21.44.06-32.16-.13-15.63-7.95-23.85-23.65-24.28-5.99-.16-12.13.27-17.99,1.47-5.84,1.2-11.4,3.71-17.62,5.83Z"/>
    <path class="uuid-5ffbc765-d9af-4530-9bc8-4a0a16f497f0" d="M334.17,96.65c12.52,5.49,25.29,10.4,37.82,15.52-5.65-29.14-45.25-56.25-72.92-49.5.36.81.64,1.62,1.07,2.35,8.18,13.94,19.1,25.08,34.03,31.63Z"/>
    <path class="uuid-5ffbc765-d9af-4530-9bc8-4a0a16f497f0" d="M229.27,99.3c13.83-5.57,25.75-13.75,34.57-25.99,2.44-3.39,4.59-7,7.04-10.76-29.01-3.58-60.77,12.84-73.92,49.23.73-.19,1.26-.27,1.75-.46,10.19-3.99,20.41-7.93,30.57-12.02Z"/>
    <path class="uuid-5ffbc765-d9af-4530-9bc8-4a0a16f497f0" d="M156.59,240.26c-2.71-30.03-19.63-56.16-45.65-67.02-2.74,29.46,13.41,54.28,45.65,67.02Z"/>
    <path class="uuid-5ffbc765-d9af-4530-9bc8-4a0a16f497f0" d="M457.68,172.84c-28.28,13.72-41.44,37.39-45.81,67.65,33.92-14.4,48.84-38.36,45.81-67.65Z"/>
    <path class="uuid-5ffbc765-d9af-4530-9bc8-4a0a16f497f0" d="M407.94,151.27c9.74-26.01-6.22-66.4-29.77-75.17-1.71,12.78-1.43,25.06,3.03,37.11,5.58,15.06,16.28,26.36,26.74,38.07Z"/>
    <path class="uuid-5ffbc765-d9af-4530-9bc8-4a0a16f497f0" d="M190.22,76.46c-18.33,7.87-37.72,34.79-29.38,74.36,25.62-25.47,34.79-45.77,29.38-74.36Z"/>
    <path class="uuid-5ffbc765-d9af-4530-9bc8-4a0a16f497f0" d="M397.25,258.41c-7.9,7.27-14.4,16.05-21.53,24.16,31,.97,57.86-13.68,71.18-39.9-.19-.14-.36-.35-.57-.39-.49-.1-1-.13-1.5-.16-18.14-1.22-34.31,4.08-47.58,16.29Z"/>
    <path class="uuid-5ffbc765-d9af-4530-9bc8-4a0a16f497f0" d="M122.02,242.25c8.87,23.34,46.47,45.2,70.16,41.01-16.58-25.22-36.93-43.73-70.16-41.01Z"/>
    <path class="uuid-5ffbc765-d9af-4530-9bc8-4a0a16f497f0" d="M150.08,194.62c5.71-27.16,6.83-53.64-12.42-77.27-15.45,23.21-13.44,55.81,12.42,77.27Z"/>
    <path class="uuid-5ffbc765-d9af-4530-9bc8-4a0a16f497f0" d="M431.16,117.61c-6.33,7.77-10.63,16.46-13.15,26.11-4.51,17.28-2.19,34.43.66,51.65,26.62-24.66,28.22-55.5,12.49-77.76Z"/>
  </g>
  <g>
    <path class="uuid-1a60faa3-3892-4724-b089-0585694ec490" d="M105.9,408.71c.12-.59-.16-1.25-.85-1.96-.31-.33-.64-.64-.99-.93s-.58-.51-.71-.64l.1-.29,2.49-1.73c.34.42,1.02,1.19,2.02,2.3,1,1.11,2.02,2.21,3.06,3.29.85.88,1.87,1.83,3.06,2.85,1.2,1.02,2,1.68,2.41,1.97l-2.4,1.92c-1.36-1.02-2.46-1.57-3.31-1.63-.85-.07-1.76.34-2.74,1.22l-21.63,19.61c-1.34,1.22-2.1,2.2-2.28,2.94-.18.73.16,1.54,1.01,2.43.47.49.92.93,1.37,1.33.44.39.74.64.9.74l-.1.29-2.68,1.73c-.38-.46-1.11-1.29-2.21-2.5-1.1-1.21-2.24-2.43-3.43-3.68l-5.46-5.6,2.68-1.63c1.1.95,2.01,1.57,2.73,1.86.71.29,1.41.29,2.09.02.68-.27,1.49-.87,2.44-1.78l20.67-19.73c1.05-1,1.63-1.8,1.76-2.39ZM116.04,425.97c1.99.04,3.33-.27,4.01-.93.85-.82.35-2.32-1.49-4.5l.1-.29,2.44-1.68c.34.42,1.05,1.3,2.13,2.62,1.08,1.32,1.98,2.36,2.7,3.11.75.79,1.62,1.64,2.59,2.55.97.92,1.62,1.51,1.93,1.77l-.16.53-2.34,1.59c-.98-.69-2.08-1.15-3.29-1.37-1.21-.22-3.3-.32-6.25-.32l-15.88.06-2.85,18.56c-.41,2.65-.48,4.75-.21,6.27.27,1.53.96,2.87,2.05,4.01v.38s-1.96,1.31-1.96,1.31c-.41-.3-1.21-.9-2.39-1.81-1.18-.91-1.88-1.47-2.1-1.7-.75-.78-1.22-2-1.39-3.66-.17-1.66-.06-3.62.34-5.88l3.7-20.03.73-.61,17.56.02Z"/>
    <path class="uuid-1a60faa3-3892-4724-b089-0585694ec490" d="M110.56,466.39c-.82-2.28-.97-4.71-.44-7.27.53-2.56,1.7-5.03,3.52-7.41,1.93-2.52,4.17-4.42,6.73-5.69,2.56-1.27,5.18-1.81,7.84-1.64,2.66.18,5.07,1.09,7.23,2.74,2.02,1.54,3.44,3.45,4.26,5.74.82,2.28.97,4.71.44,7.27-.53,2.56-1.7,5.03-3.52,7.41-1.9,2.49-4.14,4.37-6.72,5.66-2.58,1.28-5.19,1.85-7.83,1.68s-5.04-1.07-7.2-2.72c-2.05-1.57-3.49-3.49-4.31-5.78ZM121.75,469.15c2.33-.02,4.65-.62,6.97-1.79,2.32-1.17,4.26-2.78,5.83-4.84,1.54-2.02,2.29-4,2.26-5.93-.03-1.94-.88-3.54-2.53-4.8-1.59-1.21-3.55-1.81-5.89-1.8-2.34,0-4.68.59-7.02,1.75s-4.27,2.74-5.82,4.76c-1.57,2.06-2.34,4.05-2.3,5.99.03,1.94.88,3.54,2.53,4.8,1.66,1.27,3.65,1.89,5.97,1.87Z"/>
    <path class="uuid-1a60faa3-3892-4724-b089-0585694ec490" d="M140.84,487.49c-.6-1.93-.38-3.82.68-5.68.29-.51.52-.88.7-1.09l7.41-9.64c.17-.21.38-.54.63-.97,1.18-2.09.63-3.79-1.65-5.08-.99-.56-2.11-1.01-3.37-1.36l-.03-.64c2.22-2.18,4.61-3.31,7.15-3.38,1.7.96,2.69,2.32,3,4.08.3,1.76-.13,3.69-1.32,5.78-.36.63-.82,1.31-1.38,2.03l-5.25,6.65c-.35.43-.6.78-.75,1.06-.8,1.42-1.05,2.84-.72,4.24.32,1.41,1.17,2.5,2.55,3.28,2.44,1.38,4.99,1.24,7.64-.45,2.64-1.68,5.19-4.78,7.64-9.28.53-3.51.77-6.94.75-10.29l1.11-.16c1.77,2.3,2.79,4.68,3.07,7.13-.89,3.04-2.06,5.85-3.51,8.41-1.79,3.16-3.83,5.71-6.14,7.67s-4.68,3.15-7.14,3.58c-2.46.43-4.79.02-7-1.23-2.09-1.18-3.44-2.74-4.04-4.67Z"/>
    <path class="uuid-1a60faa3-3892-4724-b089-0585694ec490" d="M196.57,483.08c1.38,2.11,2.15,4.57,2.3,7.36.15,2.8-.36,5.67-1.53,8.62-1.76,4.42-4.39,7.44-7.89,9.05-3.5,1.61-7.35,1.58-11.56-.1-2.36-2.16-4.1-4.29-5.21-6.4l-.69.09-5.39,17.19c-1.64-.17-3.41-.55-5.32-1.17l-.42-.97,12.11-28.2c1.97-4.58,4.55-7.77,7.72-9.56,3.17-1.79,6.57-1.96,10.19-.52,2.4.96,4.29,2.49,5.67,4.6ZM179.37,503.03c1.77.71,3.6.86,5.49.46,1.89-.39,3.65-1.34,5.27-2.85,1.62-1.5,2.92-3.47,3.89-5.92,1.11-2.78,1.39-5.18.86-7.2-.54-2.02-1.84-3.44-3.9-4.26-3.2-1.28-6.28-.7-9.25,1.73-2.97,2.43-5.73,6.6-8.28,12.52,1.51,2.7,3.49,4.54,5.93,5.51Z"/>
    <path class="uuid-1a60faa3-3892-4724-b089-0585694ec490" d="M233.71,517.54c-1.34,2.76-3.29,4.43-5.84,5-2.19-.6-3.71-1.75-4.57-3.44-.86-1.69-1.02-3.82-.46-6.4l-.4-.37c-5.4,4.8-9.78,6.8-13.13,6.02-1.41-.33-2.55-1.22-3.42-2.68s-1.41-3.29-1.62-5.48c-.21-2.19-.03-4.52.55-7,.74-3.18,1.96-5.99,3.64-8.44,1.69-2.45,3.61-4.26,5.77-5.43,2.16-1.17,4.3-1.51,6.42-1.02,1.8.84,3.22,2.47,4.23,4.9,1.02,2.43,1.42,5.18,1.22,8.25l.53.12c2.34-3.04,4.61-6.49,6.81-10.36l.94-.13c.97,1.44,1.83,3.01,2.6,4.73-4.11,5.47-7.94,10-11.48,13.6-.37,1.96-.17,3.53.58,4.71.75,1.18,2.07,1.99,3.97,2.43,1.01.24,2.22.38,3.6.42l.07.58ZM215.83,512.19c2.44-1.48,5-3.77,7.68-6.87.29-3.66.13-6.39-.5-8.19-.63-1.8-1.78-2.9-3.46-3.29-1.59-.37-3.2-.07-4.82.9-1.62.97-3.08,2.48-4.37,4.53-1.29,2.05-2.25,4.4-2.87,7.05-1.03,4.42-.33,6.91,2.1,7.48,1.72.4,3.8-.14,6.24-1.62Z"/>
    <path class="uuid-1a60faa3-3892-4724-b089-0585694ec490" d="M245.34,522.54c-1.08-1.81-1.46-4.32-1.14-7.52l2.13-21.46.65-.34c2.02.27,3.86.94,5.52,1.99l-4.39,19.02c-.07.22-.13.56-.18,1.01-.13,1.17.08,2.09.65,2.74.56.66,1.52,1.06,2.87,1.21,1.26.14,2.63.11,4.11-.09l.25.85c-.98,2.63-2.7,4.54-5.16,5.72-2.48-.28-4.25-1.32-5.33-3.13Z"/>
    <path class="uuid-1a60faa3-3892-4724-b089-0585694ec490" d="M299.44,525.23l.06-2.67c1.84-.24,3.17-.57,3.98-1,.81-.43,1.18-1.03,1.12-1.8-.05-.68-.59-1.64-1.59-2.88l-8.28-10.53-5.57,8.77c-1.25,1.97-2.07,3.35-2.46,4.16-.39.81-.56,1.52-.51,2.16.05.59.4,1.03,1.06,1.31.66.29,1.67.42,3.03.41l.16.26-.24,2.96c-.55,0-1.67,0-3.38,0-1.71,0-3.08.04-4.12.13-1.08.09-2.36.22-3.82.41-1.46.19-2.42.32-2.87.4l-.31-.45.25-2.82c1.81-.69,3.45-1.81,4.91-3.36,1.47-1.55,3.24-3.84,5.31-6.88l6.71-9.82-9.94-12.58c-1.26-1.58-2.68-2.76-4.24-3.55-1.56-.78-3.4-1.23-5.49-1.33l-.16-.26.19-2.68c.72-.06,2.06-.13,4.01-.22,1.95-.09,3.87-.21,5.77-.36,2.21-.18,4.17-.41,5.88-.71,1.7-.3,2.78-.48,3.23-.57l.24.46v2.39c-1.9.29-3.23.66-4.01,1.11-.78.45-1.14,1.04-1.09,1.76.04.5.76,1.73,2.17,3.68,1.41,1.96,3.58,4.82,6.52,8.59l2.3-3.67c1.74-2.69,3.11-4.9,4.1-6.64,1-1.74,1.47-2.93,1.42-3.56-.05-.59-.39-1.01-1.02-1.28-.64-.27-1.66-.41-3.07-.44l-.16-.26.19-2.68c.54,0,1.67,0,3.38,0s3.08-.04,4.12-.12c1.08-.09,2.33-.22,3.75-.4,1.42-.18,2.35-.31,2.8-.39l.31.45-.21,2.54c-1.91.56-3.37,1.33-4.39,2.3s-2.43,2.8-4.26,5.5l-7.37,11.04,11.05,13.65c1.37,1.71,2.79,2.95,4.29,3.72,1.49.77,3.31,1.16,5.45,1.17l.16.26-.24,2.95c-.59,0-1.7.04-3.33.13s-3.33.2-5.09.34c-1.58.13-3.54.36-5.88.71-2.34.35-3.87.57-4.58.67l-.24-.46Z"/>
    <path class="uuid-1a60faa3-3892-4724-b089-0585694ec490" d="M340.69,487.98c2.35.91,4.41,2.44,6.18,4.62,1.76,2.18,3.03,4.8,3.81,7.88,1.16,4.62.8,8.6-1.09,11.96s-5.03,5.58-9.43,6.69c-3.18-.37-5.83-1.08-7.97-2.13l-.51.48,5.7,17.09c-1.43.83-3.09,1.55-4.99,2.17l-.91-.54-6.7-29.96c-1.09-4.87-.87-8.96.66-12.27,1.53-3.31,4.18-5.44,7.96-6.39,2.5-.63,4.93-.49,7.29.41ZM338.43,514.23c1.85-.46,3.42-1.41,4.72-2.84,1.3-1.43,2.17-3.22,2.6-5.39.43-2.17.33-4.53-.31-7.08-.73-2.9-1.91-5.02-3.52-6.34-1.62-1.32-3.5-1.71-5.66-1.17-3.34.84-5.5,3.12-6.48,6.82-.98,3.71-.78,8.71.62,15,2.81,1.31,5.48,1.64,8.03,1Z"/>
    <path class="uuid-1a60faa3-3892-4724-b089-0585694ec490" d="M368.67,508.23c-1.88-.73-3.23-2.08-4.02-4.06-.22-.55-.36-.96-.42-1.22l-2.94-11.8c-.06-.27-.18-.63-.37-1.1-.9-2.23-2.57-2.85-5.01-1.87-1.05.43-2.11,1.02-3.16,1.79l-.52-.38c-.33-3.1.28-5.66,1.8-7.7,1.81-.73,3.49-.67,5.06.19,1.57.86,2.8,2.4,3.7,4.63.27.67.52,1.46.73,2.35l1.94,8.24c.12.54.24.96.36,1.25.61,1.51,1.57,2.58,2.87,3.21,1.3.62,2.69.64,4.16.04,2.6-1.05,4.07-3.14,4.4-6.25.33-3.12-.51-7.03-2.51-11.75-2.42-2.59-4.95-4.92-7.59-6.99l.56-.96c2.9.05,5.4.73,7.5,2.04,1.83,2.59,3.29,5.25,4.4,7.98,1.36,3.37,2.09,6.56,2.18,9.58.09,3.02-.45,5.62-1.64,7.82-1.19,2.19-2.96,3.77-5.32,4.72-2.23.9-4.28.99-6.17.25Z"/>
    <path class="uuid-1a60faa3-3892-4724-b089-0585694ec490" d="M408.8,454.57c.5,1.86.7,3.55.59,5.08l-.35.75-7.11,4.13-.02.64c3.38,1.03,6.5,2.99,9.39,5.88,2.46,4.24,3.42,8.24,2.89,12.01s-2.57,6.68-6.09,8.73c-2.27,1.32-4.68,1.92-7.22,1.79-2.54-.13-4.95-.92-7.23-2.37-2.29-1.45-4.17-3.45-5.65-6-1.48-2.55-2.27-5.19-2.36-7.92-.09-2.73.48-5.25,1.7-7.56,1.22-2.31,3.01-4.15,5.36-5.52l9.35-5.43c1.45-.84,2.6-1.57,3.44-2.2.84-.62,1.66-1.34,2.44-2.16l.86.13ZM402.94,468.51c-1.47-1.04-3.04-1.64-4.71-1.82l-1.35.79c-1.96,1.14-3.46,2.66-4.5,4.58-1.04,1.92-1.51,4-1.41,6.25.1,2.25.77,4.43,2,6.55,1.46,2.51,3.17,4.14,5.15,4.88,1.97.74,3.96.53,5.96-.63,1.65-.96,2.88-2.34,3.68-4.15.81-1.81,1.12-3.8.93-5.97-.19-2.17-.87-4.28-2.06-6.32-1-1.73-2.24-3.11-3.7-4.14Z"/>
    <path class="uuid-1a60faa3-3892-4724-b089-0585694ec490" d="M443.14,456.67c.84,1.3,1.62,2.99,2.34,5.08-1.29,3.2-2.8,5.79-4.53,7.78-3.32,2.6-6.22,4.06-8.7,4.38-2.48.33-4.44-.44-5.9-2.3-.98-1.25-1.52-2.75-1.63-4.51-.11-1.76.18-3.63.88-5.61-1.78.3-3.42.2-4.93-.29-1.51-.49-2.75-1.36-3.73-2.61-1-1.29-1.41-2.84-1.22-4.66.19-1.82.88-3.67,2.08-5.56,1.2-1.89,2.76-3.59,4.69-5.09,1.68-1.31,3.28-2.28,4.81-2.9,1.25.86,2.31,1.82,3.19,2.86l-.19.75c-1.6.68-3.08,1.55-4.44,2.61-2.18,1.7-3.67,3.6-4.47,5.7-.81,2.1-.65,3.86.47,5.29.53.68,1.27,1.02,2.23,1.02.95,0,2.07-.35,3.35-1.07,1.47-2.53,3.35-4.72,5.64-6.58h.78c1.01,1.28,1.76,2.54,2.25,3.76-.87,1.32-2,2.52-3.39,3.61-.75.59-1.49,1.08-2.21,1.47-1.46,1.66-2.42,3.2-2.86,4.62-.45,1.41-.33,2.55.34,3.41.75.96,1.79,1.37,3.12,1.23,1.32-.14,2.72-.79,4.18-1.93,1.43-1.12,2.79-2.59,4.1-4.42,1.3-1.83,2.38-3.82,3.22-5.98l.54-.08Z"/>
    <path class="uuid-1a60faa3-3892-4724-b089-0585694ec490" d="M473.44,429.84c1.68,2.57,2.12,5.09,1.3,7.58-1.64,1.57-3.4,2.29-5.3,2.16-1.89-.12-3.8-1.08-5.73-2.88l-.53.15c1.35,7.09.83,11.88-1.56,14.36-1.01,1.04-2.36,1.57-4.06,1.56-1.7,0-3.54-.47-5.53-1.42-1.99-.94-3.9-2.29-5.73-4.06-2.35-2.27-4.14-4.75-5.38-7.45-1.24-2.7-1.81-5.28-1.71-7.74.1-2.45.9-4.46,2.41-6.03,1.65-1.12,3.77-1.49,6.38-1.12,2.6.37,5.17,1.43,7.71,3.18l.38-.39c-1.41-3.56-3.21-7.28-5.4-11.16l.37-.87c1.73-.09,3.53-.03,5.39.19,2.59,6.33,4.52,11.94,5.8,16.83,1.5,1.32,2.95,1.96,4.34,1.92,1.39-.04,2.77-.76,4.12-2.17.72-.75,1.46-1.71,2.21-2.88l.53.23ZM459.68,442.45c-.02-2.85-.68-6.22-1.97-10.11-2.99-2.13-5.42-3.38-7.29-3.76-1.87-.38-3.4.05-4.59,1.29-1.13,1.18-1.7,2.71-1.69,4.6,0,1.89.56,3.92,1.65,6.08,1.1,2.16,2.63,4.19,4.59,6.07,3.27,3.15,5.76,3.82,7.49,2.03,1.23-1.27,1.83-3.34,1.81-6.19Z"/>
    <path class="uuid-1a60faa3-3892-4724-b089-0585694ec490" d="M483.68,422.4c-2.1,0-4.45-.96-7.04-2.87l-17.35-12.82.04-.73c1.27-1.6,2.78-2.84,4.54-3.73l14.09,13.51c.15.17.41.4.77.67.94.71,1.84,1,2.69.85.85-.15,1.69-.77,2.51-1.85.77-1.01,1.44-2.2,2.03-3.58l.86.22c1.76,2.19,2.52,4.64,2.27,7.36-1.51,1.99-3.31,2.98-5.42,2.97Z"/>
  </g>
</svg>