<svg enable-background="new 0 0 113.6 113.4" viewBox="0 0 113.6 113.4" xmlns="http://www.w3.org/2000/svg"><path d="m60.6 113.4c-2.6 0-5.1 0-7.7 0-1.7-.2-3.5-.5-5.2-.7-22.9-3.5-41.7-21.4-46.4-44-.5-2.7-.9-5.4-1.3-8.1 0-2.6 0-5.1 0-7.7.2-1.7.5-3.5.7-5.2 3.6-22.9 21.5-41.8 44.2-46.4 2.7-.5 5.4-.9 8.1-1.3h7.7c1.7.2 3.5.5 5.2.7 22.9 3.5 41.7 21.4 46.4 44 .5 2.7.9 5.4 1.3 8.1v7.7c-.2 1.7-.5 3.5-.7 5.2-3.5 22.9-21.4 41.7-44 46.4-2.9.5-5.6.8-8.3 1.3z" fill="#b72318"/><g fill="#63140f"><path d="m57.1 98.4c2.2-2.9 5.1-5.4 5.6-9.1.2-1.8-.1-3.7-.4-5.5-.4-2.2.1-4 1.9-5.1 2.9-1.8 5.9-3.5 9-4.8 1.2-.5 2.9-.2 4.3.2 7.2 1.7 13.8 4.8 20.3 8.3 1.3.7 2.3 2.3 3.1 3.6.9 1.5.4 3.1-.7 4.5-5.7 7.3-12.8 12.9-21.4 16.3-16.7 6.6-33.1 5.8-48.9-2.8-6.2-3.4-11.3-8-15.7-13.6-1.3-1.7-1.5-3.5-.3-5.1.9-1.3 2.2-2.6 3.5-3.3 5.8-3.1 11.8-5.8 18.2-7.6 3.1-.9 5.9-1 8.7.9 1.5 1 3.3 1.7 4.8 2.7 2.2 1.4 3.6 3.4 2.7 6.2-1.9 5.9 1.5 10 5.3 14.2z"/><path d="m93.3 35.3c-2.6-.3-4.8-.6-7-.8-2.9-.3-5.4.9-7.5 2.9-2.9 2.9-5.2 2.8-8.7.8-1.9-1.1-3.7-2.4-5.6-3.6-1.7-1.1-2.3-3-2.8-4.8-1.7-5.9-2.4-11.9-2.7-18-.1-1.9-.1-3.9.3-5.7.8-3.1 3-4.3 6-3.8 16.7 2.8 29.3 11.6 38.1 26 5.8 9.5 8.5 19.8 8 31-.3 6-1.6 11.8-3.9 17.4-.8 2-2.3 3-4.4 2.8-1.5-.2-3.2-.5-4.4-1.3-5.7-3.6-11.2-7.5-16-12.2-2.1-2.1-3.6-4.4-3.4-7.5.2-2.3-.1-4.7.1-7 .2-2.1 1.4-3.5 3.5-4.2.9-.3 1.8-.7 2.7-1 1.8-.7 3.3-1.9 4.2-3.6 1.3-2.3 2.3-4.7 3.5-7.4z"/><path d="m20.4 35.8c1.2 2.6 2.2 5 3.4 7.3 1.2 2.2 3.3 3.3 5.6 4 3.5 1.1 4.9 2.3 5.1 7 .1 2.2-.2 4.4-.3 6.6-.1 2.1-1.5 3.6-2.9 5.1-4 4.2-8.7 7.6-13.6 10.9-1.9 1.3-3.7 2.8-6.1 3.1-3 .4-4.7-.6-5.8-3.4-5.2-13.4-5.1-26.8.4-39.9 7.7-18.1 21-29.7 40.6-33.6.4-.1.8-.1 1.2-.2 4.1-.6 6.9 1.5 6.8 5.7-.1 7.8-.8 15.6-3.3 23-.6 1.8-1.6 3.1-3.3 4.1-2 1.1-3.8 2.5-5.8 3.5-2.4 1.2-4.8 1.4-6.9-.8-3.9-4.1-8.6-3.8-13.5-2.9-.3.2-.8.3-1.6.5z"/></g><path d="m60.3 4.3c.5.1.9.1 1.4.2 1.2.2 2.3.3 3.5.5 10.4 1.6 19.9 6.3 27.7 13.7s13 16.7 15.1 26.9c.3 1.7.6 3.4.9 5.2.1.8.2 1.5.3 2.3v7.1c-.1.5-.1.9-.2 1.4-.2 1.2-.3 2.3-.5 3.5-1.6 10.4-6.3 19.9-13.7 27.7s-16.7 13-26.9 15.1c-1.7.3-3.4.6-5.2.9-.8.1-1.5.2-2.3.3h-7.1c-.5-.1-.9-.1-1.4-.2-1.2-.2-2.3-.3-3.5-.5-10.4-1.6-19.9-6.3-27.7-13.7s-13-16.7-15.1-26.9c-.3-1.7-.6-3.4-.9-5.2-.1-.8-.2-1.5-.3-2.3v-7.1c.1-.5.1-.9.2-1.4.2-1.2.3-2.3.5-3.5 1.6-10.4 6.3-19.9 13.7-27.7s16.7-13 26.9-15.1c1.7-.3 3.4-.6 5.3-.9.8-.1 1.5-.2 2.3-.3zm.3-4.3c-2.6 0-5.1 0-7.7 0-2.7.4-5.4.7-8.1 1.3-22.6 4.7-40.5 23.5-44 46.4-.3 1.7-.5 3.4-.7 5.2v7.7c.4 2.7.7 5.4 1.3 8.1 4.7 22.6 23.5 40.5 46.4 44 1.7.3 3.5.5 5.2.7h7.7c2.7-.4 5.4-.7 8.1-1.3 22.6-4.7 40.5-23.5 44-46.4.3-1.7.5-3.4.7-5.2 0-2.6 0-5.1 0-7.7-.4-2.7-.7-5.4-1.3-8.1-4.7-22.6-23.5-40.5-46.4-44-1.7-.3-3.5-.5-5.2-.7z" fill="#1e0a0c"/><path d="m75.9 61.2c.5.4 1 .8 1.5 1.2-.9 3.6-2.8 6.8-5.4 9.4-.3-.1-.6-.3-.9-.4-6-2.5-12.2-3.1-18.7-2.5-3.9.3-7.5 1.5-11 2.9-2.5-2.6-4.4-5.8-5.4-9.4.2-.1.3-.3.5-.4 8.3-6.4 13.1-15 14.7-25.3 0-.2.1-.4.1-.6.3-.1.6-.1.8-.2 1-.2 2-.3 3-.5h2.9c.7.1 1.3.2 2 .3s1.4.2 2 .4c.1.5.2 1 .2 1.5 1.8 9.6 6.3 17.6 13.7 23.6z" fill="#1e0a0c"/><path d="m77.4 62.4c6.4 5.1 13.1 9.9 19.7 14.9 2.1 1.6 4.2 3.3 6.3 5v1c-.9 1-1.9.9-3 .5-9.4-4-18.9-8-28.3-12-.3-.1-.6-.3-.9-.4-6-2.5-12.2-3.1-18.7-2.5-3.9.3-7.5 1.5-11 2.9-1.6.7-3.2 1.4-4.9 2-7.9 3.4-15.7 6.7-23.6 10-.3.1-.6.2-.8.3-.8.2-1.5.1-1.9-.7s-.1-1.4.5-1.9c1.8-1.4 3.7-2.8 5.5-4.2 6.6-5 13.2-9.8 19.7-14.9.2-.1.3-.3.5-.4 8.3-6.4 13.1-15 14.7-25.3 0-.2.1-.4.1-.6.3-2 .5-4.1.7-6.1 0-.4 0-.7 0-1.2-5 .9-9.4 2.8-13.3 6-5.8 4.8-9.2 10.9-10.2 18.3-.5 3.7-.3 7.4.8 11 .3 1 .1 1.6-.7 2.2-2 1.4-4 3-6.1 4.6-1.6-3.6-2.5-7.2-2.7-11-.7-12.5 3.5-23.1 13.1-31.4 5.5-4.8 12-7.6 19.3-8.4.8-.1 1.2-.3 1.4-1.3.5-4.6 1.1-9.2 1.8-13.8.1-.6.6-1.2 1-1.8h1c .3.6.9 1.2 1 1.8.7 4.6 1.3 9.3 1.8 13.9.1.9.5 1 1.2 1.1 10 1.2 18.1 5.8 24.4 13.6 7 8.8 9.4 18.9 7.5 29.9-.4 2.5-1.3 4.9-2 7.5-2.6-2-5-3.8-7.3-5.5 5.9-20.4-9.4-35.3-22.4-36.6.3 2.4.5 4.8.9 7.2.1.5.2 1 .2 1.5 1.6 9.5 6.1 17.5 13.5 23.5.2.5.7.9 1.2 1.3z" fill="none" stroke="#1e0a0c" stroke-miterlimit="10" stroke-width="4.3853"/><path d="m86.1 79.2c-5.7 7.1-12.7 11.7-21.4 13.6-1.8.4-3.3 1-4.4 2.6-1 1.6-2.3 2.9-3.6 4.5-1.5-1.9-3-3.8-4.5-5.5-.5-.5-1.2-1-1.8-1.1-8.8-1.6-16.2-5.8-22-12.7-.3-.4-.6-.8-1-1.3 2.8-1.2 5.5-2.3 7.9-3.4 2.5 1.9 4.7 3.9 7.3 5.4 11.2 6.6 25.2 4.6 34.3-4.6.7-.7 1.3-.8 2.2-.4 2.2.9 4.5 1.9 7 2.9z" fill="none" stroke="#1e0a0c" stroke-miterlimit="10" stroke-width="4.3853"/><path d="m72.1 71.8c-2.9 3-6.7 5.1-10.8 6-1 .2-2 .3-3 .5-1 0-1.9 0-2.9 0-.7-.1-1.3-.2-2-.3-4.6-.7-8.7-2.9-11.9-6.2-2.5-2.6-4.4-5.8-5.4-9.4-.1-.4-.2-.7-.3-1.1-.2-1-.3-2-.5-3 0-1 0-1.9 0-2.9.1-.7.2-1.3.3-2 1.3-8.4 7.6-15.3 15.8-17.3.3-.1.6-.1.8-.2 1-.2 2-.3 3-.5h2.9c.7.1 1.3.2 2 .3s1.4.2 2 .4c7.7 2 13.9 8.4 15.5 16.2.2 1 .3 2 .5 3v2.9c-.1.7-.2 1.3-.3 2s-.3 1.4-.4 2.1c-.9 3.7-2.8 6.9-5.3 9.5z" fill="none" stroke="#1e0a0c" stroke-miterlimit="10" stroke-width="4.3853"/><path d="m34.2 69.4-6.9-1.3c-.2 0-.3 0-.5.1-.1 0-.1.1-.2.1-.6.7-1.3 1.3-1.9 2-.2.2-.3.4-.1.7.3.4.2.9-.1 1.3-.6.8-1.4 1-2.5.4-.6.4-1.2.9-1.9 1.3-.3.2-.5.4-.3.9.2.6-.1 1.1-.5 1.5-.5.4-1 .6-1.6.4-.3-.1-.5-.1-.7.1-1.5 1.4-3 2.9-4.5 4.3-.5.5-1.1 1-1.6 1.5 2.8-.6 5.6-1.2 8.4-1.8.1 0 .3-.2.3-.3.1-.7.6-1.1 1.3-1.3.7-.1 1.2 0 1.7.6.1.1.3.2.4.1.8-.3 1.6-.7 2.4-1 0-.3 0-.4 0-.6.1-.6.6-1.1 1.3-1.2.6-.1 1.2 0 1.4.5.2.4.5.4.9.3.8-.2 1.7-.3 2.5-.5 0 0 .1 0 .1-.1.2-.1.3-.2.4-.4.9-2.2 1.8-4.3 2.7-6.5.2-.5-.1-1-.5-1.1z" fill="#ce6a14"/><path d="m101.1 81c-1.5-1.4-3-2.9-4.5-4.3-.2-.2-.4-.3-.7-.1-.6.3-1.1.1-1.6-.4-.4-.4-.7-.9-.5-1.5.2-.4 0-.6-.3-.9-.6-.4-1.3-.9-1.9-1.3-1.1.6-1.9.4-2.5-.4-.3-.4-.4-.9-.1-1.3.2-.3.1-.5-.1-.7-.7-.6-1.3-1.3-1.9-2-.1 0-.1-.1-.2-.1-.1-.1-.3-.1-.5-.1l-6.9 1.3c-.4.1-.7.5-.5.9.9 2.2 1.8 4.3 2.7 6.5.1.2.2.3.4.4 0 0 .1 0 .1.1.8.2 1.7.3 2.5.5.4.1.6.1.9-.3.2-.5.8-.6 1.4-.5.7.2 1.2.6 1.3 1.2v.6c.8.3 1.6.7 2.4 1 .1 0 .3 0 .4-.1.4-.6 1-.7 1.7-.6.7.2 1.1.6 1.3 1.3 0 .1.2.3.3.3 2.8.7 5.6 1.3 8.4 1.8-.6-.3-1.1-.8-1.6-1.3z" fill="#ce6a14"/><path d="m61.9 25.1c0-.1 0-.1 0-.2-.3-.9-.6-1.7-.8-2.6-.1-.3-.2-.5-.5-.4-.5 0-.9-.3-1.1-.7-.5-.9-.2-1.7.8-2.4-.1-.7-.2-1.5-.2-2.2 0-.4-.1-.6-.6-.7-.6-.1-.9-.6-1.1-1.2s-.1-1.2.4-1.6c.3-.2.3-.4.2-.7-.6-2-1.1-4-1.6-6-.2-.7-.4-1.4-.6-2.1-.9 2.8-1.6 5.5-2.4 8.3 0 .1 0 .3.1.4.6.5.7 1 .5 1.7s-.6 1.1-1.3 1.2c-.1 0-.3.2-.3.3-.1.9-.2 1.8-.3 2.6.2.1.4.2.5.3.5.4.7 1 .5 1.8-.2.6-.6 1-1.1 1s-.6.2-.7.6c-.2.8-.5 1.6-.8 2.5v.1c0 .2 0 .4.1.5 1.5 1.8 3 3.6 4.4 5.4.3.3.8.3 1.1 0l4.4-5.4c.3-.1.4-.3.4-.5z" fill="#ce6a14"/><path d="m59.6 47.9h3.5v13.1h7.6c.4 0 1.2.6 1.4 1 .3.4.8 1.4.8 2v2.4h-3.2s-.1-1.4-.1-1.7-.8-.5-1.2-.5c-1.3 0-5.5.1-5.5.1v2.1h-3.3z" fill="#fff"/><path d="m58.2 47.9h-3.5v13.1s-5.8 0-7.6 0c-.4 0-1.2.6-1.4 1-.3.4-.8 1.4-.8 2v2.4h3.2s.1-1.4.1-1.7.8-.5 1.2-.5c1.3 0 5.5.1 5.5.1v2.1h3.3z" fill="#fff"/><path d="m54.7 51.3s-5.3 0-7 0c-.6 0-1.8.2-2.2.5-.3.2-.6 1-.6 1.4v2.9h3.4s0-.9 0-1.3c0-.2 0-.6.2-.6h6.3v-2.9z" fill="#fff"/></svg>