<svg id="Capa_1" data-name="Capa 1" xmlns="http://www.w3.org/2000/svg" viewBox="0 0 566.93 566.93"><defs><style>.cls-1{fill:#060606;}.cls-2{fill:#fff;}.cls-3{fill:#e40e20;}.cls-4{fill:#70b62c;}</style></defs><path class="cls-1" d="M508.63,448.65C419.14,571.1,238.31,604,109.12,501.61-4,412-32.79,242.31,58.58,117.9,149.45-5.85,323.91-32.81,448.16,58,572.76,148.35,599.39,324.48,508.63,448.65Z"/><path class="cls-2" d="M308,261.87a90,90,0,0,1-3.64,17.76c-.49,1.76-1.91,2.53-3.37,3.31-17.51,9.33-36.42,13.19-56,14.24a213.29,213.29,0,0,1-53.7-4.21c-1.53-.31-2.91-.69-3.81-2.15a93.37,93.37,0,0,1-13.84-41.89Zm-8.47,187.46c-46.73,3.85-88-9.31-123.87-39.79,53.83,5.67,106.75,3.85,159.25-15.44A344.52,344.52,0,0,1,299.51,449.33ZM358.58,320c-1,11.68-3.66,21.79-6.53,31.85-.9,3.18-3.42,4.54-6.07,5.94-31.39,16.74-65.32,23.66-100.44,25.53-32.41,1.74-64.52-1.14-96.33-7.52-2.75-.56-5.23-1.25-6.85-3.87a167.52,167.52,0,0,1-24.81-75.16Z"/><path class="cls-2" d="M424.26,373.09c69.76-116.31-11.92-246.3-125.2-254.81,8.22,8.31,16.34,15.95,23.81,24.18C356.26,179.3,380,221,386.41,271.17c3.51,27.56,1.92,54.83-6.44,81.5q-3.44,10.9-6.88,21.88l-2.19,5.68a3.74,3.74,0,0,0-.31-.27c0,.19-.09.38-.14.57-.42,1.28-.83,2.56-1.24,3.85-.67,1.64-1.37,3.29-2,4.94-.74-.11-.68.08-.17.46-6.17,17.43-16.16,32.91-26.41,50.08,29.23-10.79,52.1-27.7,71.31-50.09l29,21.08C376.4,493,255,510.74,168.06,450.12c-92-64.13-113-186.85-54.36-277.07l29.09,21.16c-11.22,18.85-19.85,38.95-23.42,62.76,53.87-46.83,112.74-80.93,181.7-95.92-5.59-9.18-30.84-31.58-46.64-41.43-39.62,7.13-72.58,26.67-99.29,57.71l-28.84-21c58.28-75,177.49-105.5,274.09-38.43,88.81,61.66,112.73,187.94,52.69,276.13Z"/><path class="cls-3" d="M334.89,394.1a344.52,344.52,0,0,1-35.38,55.23c-46.73,3.85-88-9.31-123.87-39.79C229.47,415.21,282.39,413.39,334.89,394.1Z"/><path class="cls-3" d="M328.81,199.23a275.3,275.3,0,0,1-28.26,44.12c-37.33,3.07-70.32-7.44-99-31.79C244.6,216.09,286.87,214.64,328.81,199.23Z"/><path class="cls-4" d="M350.73,324.51A447.37,447.37,0,0,1,301.25,394c-60.94,2-113.74-17.74-158.33-59.62C212.47,345.17,281.31,346.19,350.73,324.51Z"/><path class="cls-3" d="M357.14,248.93a475.13,475.13,0,0,1-52.53,73.74c-64.7,2.12-120.76-18.82-168.1-63.29C210.35,270.86,283.44,272,357.14,248.93Z"/></svg>