<svg enable-background="new 0 0 113.4 113.4" viewBox="0 0 113.4 113.4" xmlns="http://www.w3.org/2000/svg"><circle cx="56.7" cy="56.7" fill="#3d3d3d" r="56.7"/><circle cx="56.7" cy="56.7" fill="#fff" r="55"/><g stroke-miterlimit="10"><path d="m47.3 4.8c2.8 0 4.1.9 5 3.7.5 1.7 1.5 3.2 2.9 4.3.9.7 1.7.6 2.6 0 1.4-1 2.4-2.3 2.8-3.9 1-3.7 3.2-4.5 6.7-3.9 8.5 1.7 16.2 5.4 22.9 10.9 2 1.7 3.9 3.5 5.6 5.4.6.7 1.2 1.4 1.5 2.3.8 1.8.7 3.5-.7 4.9-1.3 1.3-2.1 2.8-2.6 4.5-.5 1.8-3.1 3.2-5.1 3-4.8-.6-9.4.3-13.9 1.7-1.9.6-3.4 1.9-4.5 3.6-1.8 2.7-3.6 5.5-5.5 8.1-1.5 2-3.6 3.5-5.6 5-.5.3-1 .3-1.5 0-.8-.4-1.7-.5-2.4-.1-1.1.6-2 .2-2.9-.5-2.6-2-4.9-4.2-6.6-7-1.5-2.4-2.8-4.8-4.8-6.9-1.1-1.1-2.4-2-4-2.4-3.2-.9-6.4-1.5-9.7-1.7-.9-.1-1.8 0-2.6.1-2.8.4-5.3-1.2-6.2-3.9-.3-1-.8-1.9-1.6-2.7-2.8-2.7-2.6-5.2 0-8 6.8-7.5 15.3-12.7 25.2-15.5 1.6-.5 3.3-1 5-1z" fill="#3d3d3d" stroke="#bcce63" stroke-width=".5"/><path d="m51.7 42.9c-.3-.6-.4-1.1 0-1.6 1.3-1.7 2.6-3.4 4-5.1.4-.5 1.1-.5 1.5 0 .5.6 1 1.2 1.4 1.8l2.4 3c .5.6.6 1.3.1 1.9-1.2 1.6-2.4 3.2-3.7 4.8-.6.7-1.2.7-1.8 0-1-1.3-2-2.6-3.1-3.8-.3-.3-.5-.7-.8-1z" fill="#fff" stroke="#bcce63" stroke-width=".5446"/><path d="m106.3 75c-1.4 2.5-2.9 3.1-5.7 2.4-1.8-.4-3.5-.4-5.2.4-1 .4-1.4 1.1-1.3 2.2.2 1.7.8 3.2 2 4.4 2.7 2.7 2.3 5.1-.1 7.7-5.8 6.5-12.9 11.2-21.1 14.2-2.4.9-4.9 1.6-7.5 2.1-.9.2-1.8.3-2.7.1-1.9-.2-3.3-1.2-3.8-3.1-.5-1.7-1.3-3.2-2.6-4.5s-1.2-4.3 0-5.9c2.9-3.8 4.5-8.3 5.6-12.9.5-1.9.1-3.9-.8-5.7-1.4-3-2.9-5.9-4.2-8.9-1-2.3-1.1-4.9-1.4-7.4-.1-.6.3-1 .7-1.3.8-.5 1.3-1.2 1.3-2.1.1-1.3.9-1.8 1.9-2.2 3-1.3 6.1-2 9.4-2.1 2.8-.1 5.6 0 8.4-.7 1.6-.4 2.9-1.1 4.1-2.2 2.4-2.3 4.5-4.8 6.4-7.4.5-.7.9-1.5 1.2-2.3 1.1-2.6 3.7-4 6.5-3.4 1 .2 2.1.3 3.1 0 3.8-1 5.8.4 6.9 4 3.1 9.8 3.3 19.7.6 29.7-.4 1.7-.7 3.4-1.7 4.9z" fill="#c47139" stroke="#e8d577" stroke-width=".5"/><path d="m71.3 59.4c.6 0 1.1.2 1.4.8.8 2 1.6 4 2.3 6 .2.6-.1 1.2-.8 1.3s-1.5.2-2.3.3c-1.3.2-2.5.3-3.8.5-.8.1-1.4-.2-1.7-.9-.8-1.9-1.5-3.7-2.2-5.6-.3-.9 0-1.4.9-1.6 1.6-.2 3.2-.5 4.9-.7.5 0 .9-.1 1.3-.1z" fill="#fff" stroke="#e8d577" stroke-width=".5"/><path d="m7 75c1.4 2.5 2.9 3.1 5.7 2.4 1.8-.4 3.5-.4 5.2.4 1 .4 1.4 1.1 1.3 2.2-.2 1.7-.8 3.2-2 4.4-2.7 2.7-2.3 5.1.1 7.7 5.8 6.5 12.9 11.2 21.1 14.2 2.4.9 4.9 1.6 7.5 2.1.9.2 1.8.3 2.7.1 1.9-.2 3.3-1.2 3.8-3.1.5-1.7 1.3-3.2 2.6-4.5s1.2-4.3 0-5.9c-2.9-3.8-4.5-8.3-5.6-12.9-.5-1.9-.1-3.9.8-5.7 1.4-3 2.9-5.9 4.2-8.9 1-2.3 1.1-4.9 1.4-7.4.1-.6-.3-1-.7-1.3-.8-.5-1.3-1.2-1.3-2.1-.1-1.3-.9-1.8-1.9-2.2-3-1.3-6.1-2-9.4-2.1-2.8-.1-5.6 0-8.4-.7-1.6-.4-2.9-1.1-4.1-2.2-2.4-2.3-4.5-4.8-6.4-7.4-.5-.7-.9-1.5-1.2-2.3-1.1-2.6-3.7-4-6.5-3.4-1 .2-2.1.3-3.1 0-3.8-1-5.8.4-6.9 4-3.1 9.8-3.3 19.7-.6 29.7.4 1.7.8 3.4 1.7 4.9z" fill="#c47139" stroke="#e8d577" stroke-width=".5"/><path d="m42 59.4c-.6 0-1.1.2-1.4.8-.8 2-1.6 4-2.3 6-.2.6.1 1.2.8 1.3s1.5.2 2.3.3c1.3.2 2.5.3 3.8.5.8.1 1.4-.2 1.7-.9.8-1.9 1.5-3.7 2.2-5.6.3-.9 0-1.4-.9-1.6-1.6-.2-3.2-.5-4.9-.7-.5 0-.9-.1-1.3-.1z" fill="#fff" stroke="#e8d577" stroke-width=".5"/></g></svg>