<svg viewBox="0 0 566.93 566.93" xmlns="http://www.w3.org/2000/svg"><circle cx="283.46" cy="283.46" fill="none" r="276.38" stroke="#2d3d4f" stroke-miterlimit="10" stroke-width="9"/><g fill="#f1c410"><path d="m283.46 497.75-24.94 11.19a49.38 49.38 0 0 1 -25.52 4.06c-36.31-3.84-52.67-4.42-89.24-17.6 36.11 3.05 76.39-1.38 126.93-22l4.05-1.69 3.59-1.71 5.12-2.49 5.13 2.49 3.59 1.71 4.05 1.69c50.54 20.65 90.82 25.08 126.93 22-37.46 13.5-53.71 13.78-91.92 17.88a39.38 39.38 0 0 1 -20.31-3.21z"/><path d="m250.12 470.07c-22 11.5-41.4 16.87-66.17 20.42-12.76-2.43-32.23-8.46-53.58-18.58l-2.48-1.18c-.84-.39-1.62-.85-2.43-1.27-15.74-8.46-28.09-15.89-45.29-30.16 19 8.77 48.75 20.73 108.53 23.29 9.75.37 20.92.36 30.54-.94a186.71 186.71 0 0 0 30.88 8.42z"/><path d="m316.8 470.07c21.95 11.5 41.41 16.87 66.18 20.42 12.76-2.43 32.23-8.46 53.58-18.58l2.48-1.18c.84-.39 1.62-.85 2.43-1.27 15.74-8.44 28.09-15.89 45.29-30.16-19 8.77-48.75 20.73-108.53 23.29-9.75.37-20.92.36-30.54-.94a186.62 186.62 0 0 1 -30.89 8.42z"/><path d="m187.07 446.47-2.74.33c-.44 0-.93.11-1.46.15l-1.69.13-4.11.26-4.95.27c-.89.05-1.78.05-2.7.06h-2.83a195.25 195.25 0 0 1 -46.77-5.56c-32-21.21-57.18-46-78.71-82.77 32.61 32.38 79.3 56.78 119.66 68.34 1.09 1-.55-.4 8 6.45l4.81 3.49 2.45 1.77c.8.59 1.64 1.09 2.43 1.62l4.33 2.83c.64.41 1.21.81 1.74 1.13l1.37.8z"/><path d="m379.86 446.47 2.74.33c.44 0 .93.11 1.46.15l1.69.13 4.1.26 5 .27c.89.05 1.78.05 2.7.06h2.83a195.25 195.25 0 0 0 46.77-5.56c32-21.21 57.18-46 78.7-82.77-32.6 32.38-79.29 56.78-119.65 68.34-1.09 1 .55-.4-8 6.45l-4.81 3.49-2.45 1.77c-.8.59-1.64 1.09-2.43 1.62l-4.33 2.83c-.64.41-1.21.81-1.74 1.13l-1.37.8z"/><path d="m135.56 402.25c-18.49-4.48-41.13-14.46-59.93-27.26-21.87-29.63-37.86-63.27-44.95-103.26 21.1 45.22 65.06 88 86.4 103.62a202.46 202.46 0 0 0 18.48 26.9z"/><path d="m431.37 402.25c18.49-4.48 41.13-14.46 59.92-27.26 21.88-29.63 37.87-63.27 45-103.26-21.1 45.22-65.06 88-86.4 103.62a202.46 202.46 0 0 1 -18.52 26.9z"/><path d="m101.88 342.78c-16.53-12.19-31.88-26.41-45.48-45.73-11.54-40.1-13-78.64-7.26-110.51 3.46 39.85 27.63 98.67 44.41 124.46a200.45 200.45 0 0 0 8.33 31.78z"/><path d="m465.05 342.78c16.53-12.19 31.88-26.41 45.48-45.73 11.54-40.1 13-78.64 7.25-110.51-3.45 39.85-27.62 98.67-44.4 124.44a200.45 200.45 0 0 1 -8.33 31.8z"/><path d="m90.2 275.06c-12.45-19.44-18.86-33-26.29-57.49.9-29.19 11.15-70.57 30.09-104.11-9.91 37.45-7.6 98.21-1.06 128.64-2.11 12.11-2.47 22.6-2.74 32.96z"/><path d="m476.73 275.06c12.45-19.44 18.86-33 26.29-57.49-.9-29.19-11.15-70.57-30.12-104.11 9.91 37.45 7.6 98.21 1.06 128.64 2.14 12.11 2.5 22.6 2.77 32.96z"/><path d="m101.76 207.26c-3.91-13.85-6.7-45.21-4.59-61.48 6-13.25 22.8-51.78 62.21-85.32-19.38 28.23-38.95 82.62-43.91 116.76a206.28 206.28 0 0 0 -13.71 30.04z"/><path d="m465.17 207.26c3.91-13.85 6.69-45.21 4.59-61.48-6-13.25-22.8-51.78-62.21-85.32 19.38 28.23 38.94 82.62 43.91 116.76a206.28 206.28 0 0 1 13.71 30.04z"/><path d="m135.46 147.56c3.24-23 9.77-43.64 16.41-57.57 27.08-27.87 57-46.68 85.56-57-27.75 19.52-65.84 66.47-79 90.92a190.51 190.51 0 0 0 -22.97 23.65z"/><path d="m431.47 147.56c-3.24-23-9.77-43.64-16.41-57.57-27.08-27.87-57-46.68-85.56-57 27.75 19.52 65.84 66.47 79 90.92a190.51 190.51 0 0 1 22.97 23.65z"/><path d="m187.12 103c11.12-6.53 17.73-9.52 29.55-14.28 8.71-7.7 37.31-38.08 66.79-52.85-16.61 3.73-45.93 12.86-62.11 20.52a194.19 194.19 0 0 0 -34.23 46.61z"/><path d="m379.81 103c-11.12-6.53-17.73-9.52-29.55-14.28-8.71-7.7-37.31-38.08-66.8-52.85 16.62 3.73 45.94 12.86 62.12 20.52a194.46 194.46 0 0 1 34.23 46.61z"/><path d="m283.46 76-.2.07c-12.22.32-20.41.86-32.7 3.11a215.16 215.16 0 0 1 32.9-23.26 215.23 215.23 0 0 1 32.91 23.26c-12.29-2.25-20.48-2.79-32.7-3.11z"/></g><path d="m281.82 282.2.52-.12-.94-.22z" fill="#35495e"/><path d="m281.82 282.2.57.47.55-.45-.6-.14z" fill="#35495e"/><path d="m283.35 281.84.18-.39v-270.4l-.07-.17-57.74 149.13-1.13-.35 58.41 122.26z" fill="#2d3d4f"/><path d="m224.59 159.66-149.23-46.6.64 1.15 205.4 167.65.94.22.66-.16z" fill="#35495e"/><path d="m283.31 281.92.04-.08-.35.08.09.18z" fill="#35495e"/><path d="m283 281.92-.66.16.6.14.15-.12z" fill="#35495e"/><path d="m283.53 281.74v-.29l-.18.39.08-.02z" fill="#35495e"/><path d="m283.35 281.84-.04.08.12-.1z" fill="#35495e"/><path d="m153.18 251.13 128.22 30.73-205.4-167.65z" fill="#2d3d4f"/><path d="m24.07 342.6-.11.07 154.63 24.09 103.8-84.09-.57-.47z" fill="#2d3d4f"/><path d="m153.18 251.13.53.95-129.64 90.52 257.75-60.4-.42-.34z" fill="#35495e"/><path d="m283.31 281.92-.22.18.07.15z" fill="#35495e"/><path d="m283.09 282.1-.15.12.21.05.01-.02z" fill="#35495e"/><path d="m283.53 281.74-.1.08.1-.02z" fill="#35495e"/><path d="m283.53 282.37v-.57l-.1.02-.12.1-.15.33.02.03z" fill="#35495e"/><path d="m283.18 282.28-.02-.03-.01.02z" fill="#35495e"/><path d="m282.39 282.67.41.33.35-.73-.21-.05z" fill="#35495e"/><path d="m283.18 282.28-.03-.01-.35.73.73.6v-.57z" fill="#35495e"/><path d="m283.53 282.37-.35-.09.35.75z" fill="#35495e"/><path d="m178.59 366.76.82.13-11.44 159.91.93-.87 113.9-242.93-.41-.33z" fill="#35495e"/><path d="m168.9 525.93 114.56-107.95.07.06v-134.44l-.73-.6z" fill="#2d3d4f"/><path d="m387.64 368.57-103.66-84.61 114.79 240.25z" fill="#2d3d4f"/><path d="m283.98 283.96-.45-.36v134.44l115.42 108.76-.18-2.59z" fill="#35495e"/><path d="m283.53 11.05v270.4l57.35-122.3z" fill="#35495e"/><path d="m491.57 113.06-150.36 46.95-.33-.86-57.35 122.3v.05l208.01-168.38z" fill="#2d3d4f"/><path d="m283.53 281.5v.24l207.79-168.33-207.79 168.33v.06l130.12-30.49 77.89-138.19z" fill="#35495e"/><path d="m413.22 252.08.43-.77-130.12 30.49v.57l254.74 61.03 4.7-.73z" fill="#2d3d4f"/><path d="m283.53 283.6.45.36-.45-.93z" fill="#35495e"/><path d="m387.52 366.89 150.75-23.49-254.74-61.03v.66l.45.93 103.66 84.61z" fill="#35495e"/><ellipse cx="281.46" cy="273.46" fill="#fff" rx="179.97" ry="177.09"/><path d="m281.46 102.29a171.18 171.18 0 1 0 171.18 171.17 171.18 171.18 0 0 0 -171.18-171.17zm0 296c-70.06 0-126.86-55.9-126.86-124.85s56.8-124.84 126.86-124.84 126.87 55.9 126.87 124.84-56.8 124.87-126.87 124.87z" fill="#2e3e50"/><path d="m281.46 456.05a182.59 182.59 0 1 1 129.11-53.48 181.39 181.39 0 0 1 -129.11 53.48zm0-361c-98.39-.05-178.46 80.02-178.46 178.41s80 178.44 178.43 178.44 178.44-80 178.44-178.44-80.01-178.46-178.41-178.46z" fill="#35495e"/><path d="m349.5 331.57h-33l-55.5-74.64-10.9 12.16v62.48h-26.24v-156.11h26.27v68.9l43.47-51.71a48.85 48.85 0 0 1 16.28-13.28 39.83 39.83 0 0 1 17.4-4.19q3.63 0 7.82.14c2.8.09 4.48.14 5 .14v22.92h-1.5a32.15 32.15 0 0 0 -4.33-.28h-3.36c-.47 0-1.35.05-2.65.14a29.61 29.61 0 0 0 -5.17 1 24.59 24.59 0 0 0 -6.5 3.35 33.53 33.53 0 0 0 -5.94 5.17l-29.65 34.36z" fill="#2e3e50" stroke="#2d3d4f" stroke-miterlimit="10" stroke-width="6"/><path d="m129.11 447.15a2.56 2.56 0 0 1 -1.91-.88 2.68 2.68 0 0 1 -.46-.8 2.15 2.15 0 0 1 -.12-.5 2.67 2.67 0 0 1 0-.4c-.29-3.69-8.54-53.58-14.07-86.53a2.51 2.51 0 0 1 2.07-2.89c.64-.1 65.92-10.38 163.62-10.38a1385.46 1385.46 0 0 1 170 10.37 2.52 2.52 0 0 1 1.7 1 2.47 2.47 0 0 1 .46 1.91l-14.71 87.06a2.56 2.56 0 0 1 -1.05 1.65 2.51 2.51 0 0 1 -1.42.44 2.83 2.83 0 0 1 -.5 0c-.52-.11-52.89-10.58-141.65-10.58a1279.27 1279.27 0 0 0 -161.49 10.59 3.42 3.42 0 0 1 -.46 0z" fill="#f1c410"/><path d="m278.23 347.23a1384.55 1384.55 0 0 1 169.7 10.35l-14.72 87.07s-52.06-10.65-142.15-10.65a1279.37 1279.37 0 0 0 -161.94 10.62c.37-.72-14.12-87.06-14.12-87.06s64.6-10.35 163.23-10.35m0-4.98c-97.9 0-163.37 10.31-164 10.42a5 5 0 0 0 -4.14 5.76c5.4 32.18 13.48 81 14 86.13a5 5 0 0 0 5 5.11 4.57 4.57 0 0 0 .83-.07 1276.88 1276.88 0 0 1 161.14-10.58c88.45 0 140.64 10.42 141.15 10.53a5.65 5.65 0 0 0 1 .1 5.06 5.06 0 0 0 2.83-.88 5 5 0 0 0 2.1-3.29l14.72-87.06a5 5 0 0 0 -4.32-5.8 1388.41 1388.41 0 0 0 -170.31-10.39z" fill="#2d3d4f"/><path d="m205.37 420.94c-6.6.64-9.89 1-16.47 1.78-6.92-7.62-10.45-11.4-17.7-18.86l-2.2 3.89c1 6.91 1.49 10.37 2.49 17.28-5.43.78-8.15 1.2-13.57 2.1q-4.18-25.5-8.34-51c5.82-1 8.73-1.41 14.55-2.25 1.3 9.08 2 13.62 3.26 22.7 4.92-8.48 10-16.89 15.31-25.15 6.76-.81 10.14-1.18 16.91-1.84q-9.19 12.82-17.79 26.1c7.97 8.31 15.81 16.7 23.55 25.25z" fill="#2e3e50"/><path d="m204 421.08q6.81-26.71 14.65-53.1c6.39-.46 9.58-.66 16-1q11 25.26 21 50.88c-5.63.14-8.44.24-14.07.5-1.55-4.15-2.34-6.22-3.93-10.37-6.94.35-10.41.57-17.34 1.08-1.07 4.31-1.59 6.47-2.62 10.78-5.54.45-8.27.69-13.69 1.23zm30-22.27c-2.65-6.68-4-10-6.75-16.67-1.92 6.94-2.85 10.42-4.66 17.38 4.61-.32 6.89-.46 11.41-.71z" fill="#2e3e50"/><path d="m304.31 382.87a19.11 19.11 0 0 1 -1.53 6.81 14.73 14.73 0 0 1 -3.78 5.32 24.6 24.6 0 0 1 -3.23 2.4 19.57 19.57 0 0 1 -3.82 1.84 26 26 0 0 1 -4.5 1.15 31.14 31.14 0 0 1 -5.42.38c-2.93 0-4.4 0-7.33 0v16.89c-5.47 0-8.21 0-13.68.13q-.47-25.83-.92-51.66c9.07-.17 13.6-.18 22.66-.08a37.89 37.89 0 0 1 8.69 1 21.37 21.37 0 0 1 6.55 2.76 13.39 13.39 0 0 1 4.87 5.35 15.83 15.83 0 0 1 1.44 7.71zm-14.72-.14a6.19 6.19 0 0 0 -1.08-3.78 6 6 0 0 0 -2.74-2.22 13.73 13.73 0 0 0 -3.91-1c-1.25-.09-2.94-.14-5.08-.15h-2v15.47h1 3.79a23.18 23.18 0 0 0 3.11-.21 11.23 11.23 0 0 0 2.42-.65 6.51 6.51 0 0 0 2-1.09 6.84 6.84 0 0 0 2-2.64 11.29 11.29 0 0 0 .49-3.73z" fill="#2e3e50"/><path d="m355.78 386.69a19 19 0 0 1 -2 6.7 14.53 14.53 0 0 1 -4.15 5 24.7 24.7 0 0 1 -3.38 2.17 20 20 0 0 1 -3.94 1.58 26.3 26.3 0 0 1 -4.57.84 30.7 30.7 0 0 1 -5.43 0c-2.92-.23-4.38-.34-7.31-.54-.47 6.74-.7 10.11-1.17 16.86-5.46-.38-8.18-.54-13.64-.82q1.29-25.8 2.62-51.59c9.05.45 13.57.74 22.6 1.46a38.19 38.19 0 0 1 8.59 1.65 21.6 21.6 0 0 1 6.34 3.2 13.36 13.36 0 0 1 4.49 5.68 15.66 15.66 0 0 1 .95 7.81zm-14.69-1.14a6.2 6.2 0 0 0 -.81-3.85 6 6 0 0 0 -2.58-2.4 13.62 13.62 0 0 0 -3.83-1.23c-1.25-.18-2.93-.35-5.07-.5l-2-.15c-.44 6.17-.66 9.26-1.09 15.44l1 .06c1.33.1 2.59.18 3.78.25a26.94 26.94 0 0 0 3.12 0 11.87 11.87 0 0 0 2.45-.48 6.43 6.43 0 0 0 2.05-1 7 7 0 0 0 2.19-2.49 11.18 11.18 0 0 0 .79-3.65z" fill="#2e3e50"/><path d="m353.39 422q12.18-24.72 25.3-48.92c6.34.87 9.51 1.34 15.84 2.34q5.5 27 10 54.13c-5.55-1-8.33-1.51-13.89-2.42-.66-4.39-1-6.58-1.69-11-6.87-1.1-10.31-1.6-17.19-2.53-1.94 4-2.9 6-4.79 10-5.41-.67-8.13-1-13.58-1.6zm34-15.56c-1.21-7.08-1.84-10.63-3.15-17.71-3.32 6.4-4.95 9.61-8.16 16 4.55.67 6.81 1.01 11.33 1.71z" fill="#2e3e50"/><text fill="#fff" font-family="Tahoma-Bold, Tahoma" font-size="38.94" font-weight="700" transform="matrix(.56655007 -.82402732 .82402732 .56655007 164.96 208.91)">B</text><text fill="#fff" font-family="Tahoma-Bold, Tahoma" font-size="38.94" font-weight="700" transform="matrix(.71483892 -.69928915 .69928915 .71483892 179.22 187.76)">U</text><text fill="#fff" font-family="Tahoma-Bold, Tahoma" font-size="38.94" font-weight="700" transform="matrix(.84 -.54 .54 .84 198.8 168.46)">R</text><text fill="#fff" font-family="Tahoma-Bold, Tahoma" font-size="38.94" font-weight="700" transform="matrix(.92507721 -.3797791 .3797791 .92507721 221.62 153.83)">E</text><text fill="#fff" font-family="Tahoma-Bold, Tahoma" font-size="38.94" font-weight="700" transform="matrix(.97789286 -.20910657 .20910657 .97789286 242.63 144.96)">A</text><text fill="#fff" font-family="Tahoma-Bold, Tahoma" font-size="38.94" font-weight="700" transform="matrix(.99992322 -.01239152 .01239152 .99992322 267.44 139.41)">U</text><text fill="#fff" transform="matrix(.99109975 .13312134 -.13312134 .99109975 295.24 139.63)"/><text fill="#fff" font-family="Tahoma-Bold, Tahoma" font-size="38.94" font-weight="700" transform="matrix(.96 .27 -.27 .96 305.73 140.44)">A</text><text fill="#fff" font-family="Tahoma-Bold, Tahoma" font-size="38.94" font-weight="700" transform="matrix(.89748942 .44103599 -.44103599 .89748942 330.27 147.32)">E</text><text fill="#fff" font-family="Tahoma-Bold, Tahoma" font-size="38.94" font-weight="700" transform="matrix(.8 .6 -.6 .8 350.88 157.04)">G</text><text fill="#fff" font-family="Tahoma-Bold, Tahoma" font-size="38.94" font-weight="700" transform="matrix(.68046512 .73278047 -.73278047 .68046512 372.89 174.12)">I</text><text fill="#fff" font-family="Tahoma-Bold, Tahoma" font-size="38.94" font-weight="700" transform="matrix(.55644064 .83088736 -.83088736 .55644064 385.24 186.97)">S</text></svg>