<svg enable-background="new 0 0 113.3 113.4" viewBox="0 0 113.3 113.4" xmlns="http://www.w3.org/2000/svg"><path d="m56.7 113.4c-31.7-.1-56.9-25.4-56.7-57.4.2-30.7 25.2-56 56.8-56 31.4 0 56.6 25.5 56.5 57 0 31.2-25.4 56.5-56.6 56.4zm0-1.1c30.6 0 55.5-24.8 55.5-55.4.1-30.7-24.7-55.5-55.5-55.6-30.6-.1-55.4 24.6-55.5 55.3s24.7 55.6 55.5 55.7z" fill="#e5291e"/><path d="m56.7 112.3c-30.8 0-55.6-24.9-55.5-55.7.1-30.7 24.9-55.4 55.6-55.4 30.7.1 55.5 24.9 55.5 55.6-.1 30.6-25 55.5-55.6 55.5zm-27-42.1c-2.8-8.9-3.8-18-3.5-27.6-2.7 4.7-5.2 9.2-7.6 13.6 6.3 11.2 12.6 22.4 19 33.6h9.5c1 0 1.8-.2 2.7-.7 4.2-2.2 8-4.9 11.5-8.1 2.9-2.6 5.4-5.5 7.3-9-3.7-5-7.4-10-11.2-15.1 2.6-1 5.1-1.9 7.6-2.9 5.6 6.5 11.2 12.8 16.8 19.3-6.1 6.7-13.2 11.9-21.3 16.4h15.1c6.3-11.2 12.6-22.4 18.9-33.5-1-1.9-1.9-3.8-3.1-5.5-.9-1.4-1.4-3-2.9-3.9-5.3-3.2-11-5.8-17.1-7.1-2.4-.5-4.9-.9-7.4-.8-2.5 5.7-4.9 11.4-7.5 17.2-2.2-1.8-4.2-3.5-6.3-5.1 2.8-8.1 5.5-16.1 8.3-24.2 9 2 17.2 5.6 25.1 10.1-2.7-4.8-5.4-9.5-8.1-14.3-12.6 0-25.1 0-37.8 0-.2.2-.4.4-.6.7-1.2 2-2.3 4.1-3.4 6.1-.6 1.1-1.4 2.1-1.5 3.5-.4 5.7.1 11.2 1.4 16.7.8 3.4 2 6.8 3.9 9.9 6.2-.7 12.4-1.4 18.6-2.1-.4 2.8-.9 5.4-1.3 8-8.5 1.6-16.8 3.2-25.1 4.8z" fill="#fffefe"/><path d="m29.7 70.2c8.4-1.6 16.6-3.3 25.1-4.9.4-2.6.8-5.2 1.3-8-6.3.7-12.4 1.4-18.6 2.1-1.9-3.1-3.1-6.4-3.9-9.9-1.3-5.5-1.8-11.1-1.4-16.7.1-1.4.9-2.4 1.5-3.5 1.1-2.1 2.3-4.1 3.4-6.1.2-.3.4-.5.6-.7h37.8c2.7 4.8 5.4 9.5 8.1 14.3-7.9-4.5-16.1-8.1-25.1-10.1-2.8 8.1-5.5 16-8.3 24.2 2 1.7 4.1 3.4 6.3 5.1 2.5-5.8 5-11.5 7.5-17.2 2.5-.1 5 .2 7.4.8 6.1 1.3 11.7 3.9 17.1 7.1 1.6 1 2.1 2.5 2.9 3.9 1.1 1.8 2 3.6 3.1 5.5-6.3 11.2-12.6 22.3-18.9 33.5-4.9 0-9.8 0-15.1 0 8.1-4.5 15.2-9.8 21.3-16.4-5.8-6.3-11.3-12.7-17-19.1-2.5.9-5 1.9-7.6 2.9 3.7 5 7.4 10 11.2 15.1-1.9 3.5-4.5 6.4-7.3 9-3.5 3.2-7.3 5.8-11.5 8.1-.8.5-1.7.7-2.7.7-3.2 0-6.3 0-9.5 0-6.3-11.2-12.6-22.4-19-33.6 2.5-4.4 5-8.8 7.6-13.6-.1 9.5.9 18.6 3.7 27.5z" fill="#e30e15"/></svg>