<svg enable-background="new 0 0 113.3 113.4" viewBox="0 0 113.3 113.4" xmlns="http://www.w3.org/2000/svg"><circle cx="56.8" cy="56.7" fill="#fff" r="56"/><path d="m113.3 56.7c0 31.3-25.4 56.7-56.7 56.7s-56.7-25.4-56.6-56.8c0-31.2 25.5-56.6 56.7-56.6s56.6 25.4 56.6 56.7zm-1.7.1c0-30.5-24.7-55.2-55.2-55.2s-55.2 24.8-55.2 55.2c0 30.5 24.7 55.2 55.2 55.2s55.2-24.7 55.2-55.2z" fill="#010101"/><path d="m111.6 56.8c0 30.5-24.7 55.2-55.2 55.2s-55.2-24.7-55.2-55.2 24.7-55.2 55.2-55.2 55.2 24.7 55.2 55.2zm-29.4 30.5c-.2.1-.3.2-.5.3-1.2.6-2.5 1.1-3.8 1.7.1.6-.2 1-.5 1.7 1.7-1 3.2-2 4.5-3.2.1-.1.2-.3.3-.5.2 0 .3 0 .4-.1.1 0 .3 0 .3-.3-.2 0-.3 0-.4.2-.1.1-.2.1-.3.2zm-58.6-7.7c0-.1 0-.3-.3-.2.1.2.2.2.3.2 0 .2 0 .4.2.4 0-.2 0-.3-.2-.4zm58.6-53.3c.1.1.2.1.3.2.1.2.2.3.4.1-.1-.1-.2-.1-.3-.2s-.2-.1-.3-.2-.2-.3-.4-.4c-3-2.6-6.4-4.6-10.3-6.2.7 1.2 1.3 2.2 2 3.3 2.8.8 5.4 1.9 8.1 3.2.2 0 .3.1.5.2zm-58.7 7.6c-1.5 1.9-2.6 4-3.8 6.5.9-.5 1.5-.8 2.1-1.1.6-1.8 1.2-3.5 1.8-5.3.2-.1.3-.2.1-.4-.1.1-.1.2-.2.3zm70 38c-1.1.7-2.3 1.5-3.5 2.3-.8 3.1-2.1 6-3.5 8.9-.1.1-.2.2-.1.4.1-.1.2-.1.2-.2 1.9-2.1 3.5-4.3 4.8-6.8.9-1.5 1.9-2.9 2.1-4.6.1 0 .2 0 .1-.2 0 .1 0 .1-.1.2zm-7.2-41.7c.2-.2 0-.3-.1-.4-.1.2-.1.3-.1.4-.4.1-.4-.3-.5-.5-.5-1.1-1.4-1.8-2.4-2.4-2.8-1.6-5.8-2.8-9.1-3.7 1.3 3.2 2.2 6.2 2.9 9.5.8-1 1.1-1.9 1.4-2.8.3-1 .2-2 .3-3.2 4.4 3.3 7.8 7.3 10.5 11.9-.6-2.5-1.4-4.8-2.5-7-.2-.4-.6-.7-.4-1.2.5.2.6.7.8 1 1.3 2.5 2.2 5.2 3.1 7.8 1.3.6 2.3 1.4 3.4 2.1 0 .1.1.1.1.2.1-.2 0-.2-.1-.2 0-.1.1-.3 0-.4-1.7-4.1-4-7.7-6.9-11.1-.1-.1-.3-.2-.4 0zm-45.8-8.1c4.9-1.1 10-1.6 15-1.7 0-1.3 0-2.5 0-3.8-4.2 0-8.2.9-12.1 2.1-1.7.5-2.6 1.6-3.1 3.2-.1.1-.2.1 0 .2zm46.5 55.6c-.1-.8.5-1.5.2-2.4-3.2 1.1-6.5 1.9-9.9 2.5-.1 1.7-1.1 3.2-.7 4.8.4 2 1 3.9 1.3 6 1.6-.5 3-1.3 4.5-2 1.6-.8 2.8-1.9 3.6-3.6 1.3-2.7 2.5-5.5 3.1-8.5-.7 1.1-1.4 2.1-2.1 3.2zm-60.9 0c-.3-.4-.6-.7-.8-1.1-.5-1-1.3-1.5-2.4-1.7 1.3 7.2 5.6 12.9 12 14.1.5-3.6 2-7.3-.1-11.1-2.9-.5-5.9-1.2-9-2.1.1.8.2 1.3.3 1.9zm35.9-55.3c-.1 1.5-.3 3.1-.3 4.7 0 2.5.2 5 1.8 7.1 3.4.3 6.8.5 10.1 1 .9.1 1.5-.3 2.1-1-.7-3.7-1.5-7.4-3-11-5.1-1.3-10.2-1.9-15.4-2.1v7.6h.2c1.5-2 3-4.1 4.5-6.3zm8.1 86c21.8-5.2 43-27.8 39.4-58.1-3.2-27-27.2-48.8-56.9-46.8-27.3 1.9-49.6 24.7-49.6 53.2 0 28.1 20.9 47.4 39.8 51.6-1.8-4.3-3.6-8.5-5.4-12.8-.5-1.2-1.2-2-2.3-2.6-12.1-7.4-19.1-18.2-20.4-32.3-1.3-15.1 4.1-27.6 16.1-37 9.9-7.8 21.3-10.3 33.7-8 4 .7 7.7 2.1 11.4 4 .2-.5.5-1 .6-1.6-1.6-.7-3.2-1.4-4.8-2.1 1.1-2.5 2.1-4.8 3.2-7.3.3.4.7.3.9.8-.8 2-1.7 4-2.6 6.1 1.1.5 2 1 3.1 1.3.9-2.1 1.8-4.1 2.7-6.2.4.2.8.2 1 .6-.9 2-1.7 4-2.6 6 0 .4.5.3.4.6-.3.7-.7 1.5-1 2.3.3.2.4.3.6.4 4.3 2.5 8.1 5.6 11.3 9.5 8.5 10.6 11.5 22.6 8.6 35.9-2.7 12.1-9.6 21.2-20.3 27.4-.5.3-.9.5-1.1 1.1-1.9 4.7-3.9 9.2-5.8 14zm-17.8-83c0 1.5 0 2.9-.2 4.3-.4 3-1.3 5.8-4.4 6.9-4.1 1.4-8 .6-11.3-2.1-1.7-1.4-2.3-3.5-2.6-5.8-6.6 5.6-10.9 12.5-12.6 20.9-1.7 8.1.3 21.3 3.5 23.9 0-.6 0-1.2 0-1.9.1-2.3.3-4.6 1.2-6.8 1-2.6 2.9-3.9 5.4-3.7 1.3.1 2.4.6 3.5 1.2.4-.5.8-1 1.2-1.5 2.7-3.3 6.3-4 9.6-2 1.4.9 2.5 2.1 3.5 3.4 3.1 4.3 5 9.2 6.8 14.2.2.6.3 1.3.8 1.9 1-2.9 1.9-5.7 3.1-8.4 1.4-3.2 3-6.4 5.4-9.1 3.2-3.8 7.3-4.3 10.8-1.3.9.8 1.6 1.8 2.4 2.7.5-.2.9-.5 1.3-.6 2.7-1.1 6.3-.6 7.7 3.1.5 1.4.8 2.8 1 4.2.2 1.5.2 3.1.2 4.9 8-14.3 4.7-34.1-9.1-45-.5 4.7-3.2 7.2-7.6 8.1-6.5 1.4-10.2-1.4-10.8-8-.1-1.2 0-2.3 0-3.5-1.2 1.6-2.4 3.2-3.5 4.9-.5.5-.9.8-1.5.5-1.3-1.8-2.6-3.6-3.8-5.4zm23.6 63.9c-.7-1.6-1.7-2.3-3.1-2.2-1.3.1-2.3 1-2.7 2.4-1.4 5.1-2.9 10.1-4.3 15.2-.5 1.9-1.1 3.9-1.6 5.8-.8.2-1.4.3-2 .2.1-.5.2-.9.3-1.2 1.7-6.2 3.4-12.4 5.2-18.6.2-.8.2-1.5-.2-2.1-.7-1.2-2-1.8-3.3-1.5-1.2.2-2.2 1.3-2.3 2.6-.3 2.6-.6 5.3-.9 7.9-.5 4.4-.9 8.9-1.4 13.5 2.7-.4 5.5-.2 7.6-1 3-7.3 5.8-14.2 8.7-21zm-36.6-12.2c3.3-4.3 7.6-6.9 12.9-8.1-1.3-2.8-2.6-5.3-4.5-7.5-3.9-4.6-8.2-4.4-11.8.4-.4.6-.7 1.2-.6 2 .1 2 .2 4.1.4 6.1.2 2.3.4 4.5.8 6.8 1 .1 1.8.2 2.8.3zm34.1-.2c1 0 1.9-.1 2.8-.4.7-4.6 1.1-9.2 1.2-13.8 0-.2-.1-.5-.2-.7-1.8-3.7-6.5-4.8-9.8-2.3-3.1 2.4-4.8 5.8-6.5 9.4 5.1 1.2 9.2 3.7 12.5 7.8zm-33.7-53.9c-1.4 3.6-2.2 7.2-2.8 10.9.6.6 1.2 1.2 2.1 1.1 3.6-.4 7.1-.7 10.6-.9 1.8-2.3 2.2-5.4 1.3-12 1.5 2.2 2.9 4.2 4.5 6.5 0-2.7 0-5 0-7.4-5.3 0-10.5.6-15.7 1.8zm37.9 53.3c3.5-.5 6.7-1.3 10-2.4.3-3.4.1-6.7-1.5-9.8-1.4-2.6-4.8-3.2-7.2-1.2-.2 4.3-.5 8.7-1.3 13.4zm-44-13.8c-2.6-1.5-5.5-.8-6.7 1.7-1.6 3.3-1.8 6.8-1.3 10.4 3.1.8 6.1 1.6 9.3 1.9-.7-4.8-1-9.5-1.3-14zm24.2 48.8c-.3-.4-.2-.7-.2-1.1.2-1.9.4-3.9.6-5.8.5-4.5 1-8.9 1.4-13.4.2-2.4-1.3-4.1-3.4-3.9-1.8.1-3 1.9-2.8 4 .4 4.4.9 8.8 1.3 13.1.2 2.3.5 4.5.7 6.8.8.1 1.6.2 2.4.3zm-4.5-.5c0-.2 0-.4 0-.5-.4-4.1-.8-8.1-1.2-12.2-.3-2.8-.6-5.6-.9-8.4-.2-1.8-1.9-2.9-3.6-2.6-1.4.3-2.8 2.1-2.2 3.8.9 2.7 1.6 5.6 2.4 8.4 1 3.8 2.1 7.5 3.2 11.3.7.1 1.4.3 2.3.2zm-16.4-21.6c2.9 6.8 5.8 13.7 8.7 20.5 1 .2 1.9.6 3 .6-.1-.3-.1-.6-.2-.8-1.9-6.7-3.8-13.4-5.7-20.1-.4-1.3-1.4-2.2-2.7-2.3s-2.3.5-3.1 2.1zm-14-50.5c1.7-.4 1.7-.4 2.4-1.7 2.2-3.5 5-6.6 8.3-9.2.3-.2.5-.6 1-.5 0 1.7.1 3.4 1.2 5.1.7-3.1 1.5-6 2.6-8.9-8.9 1.7-13.7 6.1-15.5 15.2zm34.1-18.3c5.1.2 10.1.7 15.3 2.1-.9-1.9-1.6-3.7-3.9-4.1-1.1-.2-2.2-.6-3.2-.8-2.7-.6-5.4-1-8.4-.9.1 1.3.2 2.4.2 3.7zm36.5 37.1c.1 5.3-1.6 10.2-3.2 15.4 2.3-1.2 4.3-2.1 4.7-4.6.1-.6.3-1.2.5-1.8.7-2.9 1.2-5.9 1.1-9-1.1 0-2 0-3.1 0zm-3.2-16.7c1.7 5.2 3.2 10.1 3.2 15.3h3c .1-3.5-.7-6.9-1.4-10.2-.4-2.7-2.2-4-4.8-5.1zm-74 16.8c0 4.5.9 8.8 2.3 13 .5 1.4 1.4 2 2.9 2.4-1.2-5.2-1.8-10.3-1.9-15.4-1.1 0-2.1 0-3.3 0zm5.2-16.9c-1.7.4-2.5 1.3-3 2.7-.7 2.3-1.4 4.6-1.7 7-.3 1.9-.6 3.7-.4 5.7 1.1 0 2.1.1 3.2-.2.1-2.6.3-5.1.6-7.6.2-2.5.8-5 1.3-7.6zm18.6-20.6c-3 1.3-5.4 2.8-7.6 4.6 2.1-.7 4.2-1.5 6.3-2 .4-.9.7-1.6 1.3-2.6zm-16.9 59.2c.1 0 .2-.1.3-.1-.5-1.6-1.1-3.2-1.6-4.8-.7-.3-1.3-.6-2.1-1 1 2.2 2 4.1 3.4 5.9zm.6-5.4c-1-1.9-1.7-3.6-2.4-5.3.2 1.6.4 3.2.9 4.7.4.2.8.4 1.5.6zm-1.5-33.7c-.3 1.6-.6 3.2-1 4.7h.1c.7-1.7 1.4-3.4 2.2-5.2-.5.2-.8.3-1.3.5zm25.2-4.4c-1.7.1-3.4.2-5 .4 1.7.2 3.3.5 5-.4zm-10.4 45c .5-1 .8-1.6 1.2-2.3-.6-.1-1-.3-1.6-.1.1.7.2 1.4.4 2.4zm-4.6 8.1c.8.8 1.7 1.5 2.8 2 0-.6-.3-.9-.6-1.2-.7-.3-1.4-.5-2.2-.8zm43.3-10.6c-.4-.3-.8-.2-1.3.1.2.6.5 1.1.9 1.5.5-.5.4-1 .4-1.6zm-5.9-42.1c-1.2-.1-2.3-.2-3.5-.3 1.1.7 2.3.5 3.5.3zm-45.1 37.5c-.1 0-.1 0 0 0-.1.1-.1.2-.1.3h.1c0-.1 0-.2 0-.3zm63.6.3c.1-.1.1-.2 0-.3-.1.1-.1.2 0 .3zm-2.2 9.7c-.1 0-.1 0 0 0-.1.1 0 .1 0 0z" fill="#fefefe"/><path d="m70.1 108.4c2-4.7 3.9-9.3 5.8-13.9.2-.6.6-.8 1.1-1.1 10.7-6.2 17.6-15.3 20.3-27.4 2.9-13.3-.1-25.3-8.6-35.9-3.1-3.9-6.9-7-11.3-9.5-.2-.1-.3-.2-.6-.4.4-.8.7-1.6 1-2.3 0-.4-.5-.3-.4-.6.9-2 1.7-4 2.6-6-.2-.4-.6-.4-1-.6-.9 2-1.8 4.1-2.7 6.2-1.1-.3-2-.8-3.1-1.3.9-2.1 1.8-4.1 2.6-6.1-.2-.5-.6-.4-.9-.8-1.1 2.5-2.1 4.8-3.2 7.3 1.6.7 3.2 1.4 4.8 2.1 0 .6-.3 1-.6 1.6-3.6-1.8-7.4-3.2-11.4-4-12.4-2.3-23.8.2-33.7 8-12 9.3-17.4 21.9-16.1 37 1.2 14.1 8.3 24.9 20.4 32.3 1.1.7 1.8 1.4 2.3 2.6 1.7 4.3 3.6 8.5 5.4 12.8-18.9-4.3-39.8-23.6-39.8-51.7 0-28.6 22.3-51.3 49.6-53.2 29.7-2 53.7 19.8 56.9 46.8 3.5 30.3-17.6 52.9-39.4 58.1zm4-4.8c28.8-10.3 40.5-45.3 27-69.2-1.3.7-2.7 1.4-4 2.2 10.5 22.6 2.6 48.2-20.1 60.6-.9 2-1.9 4.1-2.9 6.4zm-62.5-69.1c-14.4 27.7 1.7 60.5 26.8 68.9-1-2.2-1.9-4.3-2.8-6.3-10.5-6.2-18.5-14.5-22.1-26.3-3.6-11.6-2.8-23 2.3-34.1-1.4-.7-2.7-1.5-4.2-2.2zm51.8-27.6c-.3 2.3-.6 4.5-.8 6.7.4.2.8.3 1.2.1.3-2.5.6-5 .9-7.6-2-.2-3.8-.5-5.7-.7-.3 2.7-.6 5.2-1 7.9.5 0 .8.1 1.2-.1.3-2.1.6-4.3.9-6.6 1.1 0 2.1.1 3.3.3zm18.7 10.1c1 .7 2 1.2 2.9 2-.7 1-1.3 1.9-1.9 2.9.3.3.5.6 1 .6 1.4-2.1 2.8-4.2 4.2-6.3-.3-.4-.6-.6-1-.6-.6.8-1.1 1.7-1.7 2.6-1-.7-1.9-1.3-2.9-2 .6-.9 1.2-1.7 1.8-2.6-.4-.2-.6-.6-1.1-.5-1.4 2.1-2.8 4.2-4.2 6.2.2.4.5.6.9.7.7-1.1 1.3-2.1 2-3zm-35.8-3.2c-1.2-1.2-1.7-3.2-4-3.2.5-1.4 1.1-2.7 1.7-4.2-.6.2-1 .3-1.3.5-.5 1.3-1 2.6-1.6 4.2-.4-1.3-.8-2.3-1.2-3.4-.4.2-.8.2-1 .6.8 2.4 1.5 4.8 2.3 7.2.5.1.8 0 1.1-.3-.2-1.1-.8-2.1-.8-3.3 2.3-.7 2.6 1.6 3.8 2.4.3-.1.7-.1 1-.5zm-28.9 16.3c1.4-2.1 3.1-.4 4.6-.5.3-.2.5-.5.7-.9-1.7-.4-3.3-1.5-5.1-.3-.4-1.4-.7-2.8-1.1-4.2-.4.4-.7.7-.8 1.2.4 1.3.7 2.6 1.2 4.2-1.1-.8-2-1.4-2.8-2-.4.3-.6.5-.6.9 2 1.5 4.1 3 6.2 4.5.3-.3.6-.5.6-1-1.1-.5-2-1.2-2.9-1.9zm15.3-19.1c.4 2.7.8 5.3 1.2 8.1.5-.2.9-.2 1-.5.1-.9-.3-1.7-.2-2.5.7-.4 1.4-.7 2.2-1.1.6.6 1.2 1.1 1.8 1.7.3-.2.7-.2.8-.4-1.9-2-3.7-4-5.5-5.9-.6.1-.9.3-1.3.6zm60 8.8c-2.4 1.2-4.9 2.5-7.4 3.7.3.3.5.7 1 .7.7-.3 1.4-.7 2.1-1 .7.5 1.3 1.2 1.9 1.9-.3.8-.7 1.5-1 2.2.2.4.4.6.9.7 1.2-2.4 2.3-4.9 3.5-7.3-.4-.4-.7-.6-1-.9zm-25.5-6.2c.3-.9.3-1.7.8-2.4.9.2 1.8.5 2.7.7.2-.3.4-.5.2-.9-.9-.3-1.8-.5-2.7-.8 0-.8.3-1.4.5-2.1 1 .3 2 .5 2.9.7.2-.3.3-.6.3-1-1.3-.3-2.7-.7-4.1-1.1-.7 2.6-1.4 5.1-2 7.6 1.5.4 2.9.8 4.4 1.2 0-.4.3-.7 0-1-1-.3-1.9-.6-3-.9zm-47.6 7c1.2 2.5 2.4 4.9 3.6 7.4.4-.1.7-.4.8-.8-.3-.7-.7-1.4-1-2.1.6-.6 1.3-1.2 2-1.8.7.3 1.4.7 2.1 1 .4-.2.7-.4.7-.9-2.4-1.2-4.8-2.4-7.2-3.6-.4.2-.7.5-1 .8zm76.7 9c1.6.2 2.4-.2 2.8-1.3.3-1.2-.6-2.6-2.2-3.3-.2.2-.4.4-.4.7.7.5 1.5.9 1.5 2-.2.6-.6.9-1.1 1-.9-.1-1.3-.7-1.9-1.2-.2.2-.4.3-.6.5 1 1.9 1 2.6 0 3s-1.7-.2-2.6-2.4c-.2.1-.4.1-.6.2-.1 0-.1.1-.2.1.3 2 1.6 3.3 3.1 3.3s2-.8 2.2-2.6zm-66.9-12.4c.3-1.5-.2-2.5-1.3-2.9-1-.3-3.1.8-3.2 2.3.2.1.4.2.6.4 1.3-1.6 2-2 2.7-1.3.7.6.5 1.4-.8 2.6.1.3.2.5.5.6.8-.4 1.9-1.4 2.6-.4 1.5 2.2-1 2.3-2 3.1.1.3.1.6.4.7 2.1-.6 3.4-1.8 3.2-3.2-.1-1.2-1-1.9-2.7-1.9zm26.5-5.3c-1.4.4-2.9.5-3.9-1-.8-1.1-.7-2.4-.1-3.6.9-1.7 2.5-1.4 4.1-1.1.3-.3.4-.6.1-.9-2.5-.7-4.6 0-5.5 1.9s-.3 4.4 1.3 5.4c1.1.7 3.7.8 4.3.1.1-.3.1-.5-.3-.8z" fill="#fe0d05"/><path d="m52.3 25.4c1.3 1.8 2.5 3.7 3.8 5.4.7.3 1 0 1.4-.5 1.1-1.7 2.3-3.3 3.5-4.9v3.5c.5 6.6 4.3 9.4 10.8 8 4.4-1 7.1-3.5 7.6-8.1 13.8 10.9 17.1 30.7 9.1 45 0-1.8 0-3.4-.2-4.9-.2-1.4-.5-2.9-1-4.2-1.4-3.7-5-4.2-7.7-3.1-.4.2-.8.4-1.3.6-.8-.9-1.5-1.9-2.4-2.7-3.5-2.9-7.6-2.4-10.8 1.3-2.3 2.7-3.9 5.8-5.4 9.1-1.2 2.7-2.1 5.5-3.1 8.4-.5-.6-.6-1.3-.8-1.9-1.8-5-3.6-9.9-6.8-14.2-1-1.3-2.1-2.5-3.5-3.4-3.3-2-6.9-1.3-9.6 2-.4.5-.8 1-1.2 1.5-1.1-.6-2.2-1.1-3.5-1.2-2.5-.2-4.4 1.1-5.4 3.7-.9 2.2-1.2 4.5-1.2 6.8v1.9c-3.2-2.6-5.2-15.7-3.5-23.9 1.7-8.4 6-15.2 12.6-20.9.3 2.3.9 4.4 2.6 5.8 3.4 2.8 7.2 3.6 11.3 2.1 3.1-1.1 4-3.9 4.4-6.9.2-1.4.3-2.8.3-4.3z" fill="#010101"/><path d="m75.9 89.3c-2.9 6.9-5.8 13.7-8.8 20.9-2.1.8-4.9.6-7.6 1 .5-4.6.9-9 1.4-13.5.3-2.6.5-5.3.9-7.9.2-1.4 1.1-2.4 2.3-2.6 1.3-.3 2.6.3 3.3 1.5.4.7.5 1.3.2 2.1-1.8 6.2-3.5 12.4-5.2 18.6-.1.4-.2.8-.3 1.2.7.1 1.3.1 2-.2.5-1.9 1.1-3.8 1.6-5.8 1.4-5.1 2.9-10.1 4.3-15.2.4-1.4 1.4-2.3 2.7-2.4 1.6 0 2.5.6 3.2 2.3z" fill="#fe0d05"/><path d="m39.3 77.1c-1-.1-1.9-.2-2.8-.3-.5-2.3-.6-4.5-.8-6.8-.2-2-.2-4.1-.4-6.1-.1-.8.2-1.4.6-2 3.6-4.8 7.9-4.9 11.8-.4 1.9 2.2 3.2 4.7 4.5 7.5-5.3 1.2-9.6 3.9-12.9 8.1z" fill="#0487fe"/><path d="m73.4 76.9c-3.3-4.1-7.4-6.6-12.5-7.8 1.7-3.6 3.4-7 6.5-9.4 3.2-2.5 8-1.4 9.8 2.3.1.2.2.5.2.7-.1 4.6-.5 9.2-1.2 13.8-.9.2-1.8.4-2.8.4z" fill="#0487fe"/><path d="m39.7 23c5.2-1.2 10.4-1.8 15.7-1.8v7.4c-1.6-2.3-3-4.3-4.5-6.5.9 6.6.5 9.7-1.3 12-3.5.2-7.1.5-10.6.9-.9.1-1.4-.5-2.1-1.1.6-3.7 1.4-7.3 2.8-10.9z" fill="#0487fe"/><path d="m62 22.4c-1.5 2.1-3 4.3-4.5 6.4-.1 0-.2 0-.2 0 0-2.5 0-5 0-7.6 5.1.1 10.3.7 15.4 2.1 1.5 3.6 2.4 7.2 3 11-.6.7-1.2 1.1-2.1 1-3.3-.5-6.7-.7-10.1-1-1.6-2.1-1.8-4.6-1.8-7.1 0-1.7.2-3.2.3-4.8.1 0 .1 0 0 0z" fill="#0487fe"/><path d="m77.6 76.3c.7-4.7 1.1-9.1 1.3-13.5 2.4-1.9 5.8-1.4 7.2 1.2 1.6 3.1 1.8 6.4 1.5 9.8-3.2 1.2-6.4 2-10 2.5z" fill="#0487fe"/><path d="m33.6 62.5c.3 4.6.6 9.2 1.3 14-3.2-.3-6.2-1.1-9.3-1.9-.5-3.6-.3-7.1 1.3-10.4 1.2-2.5 4.1-3.2 6.7-1.7z" fill="#0487fe"/><path d="m26.1 77.7c-.1-.5-.1-1.1-.2-1.8 3.1.9 6.1 1.6 9 2.1 2 3.8.6 7.4.1 11.1-6.4-1.3-10.8-6.9-12-14.1 1.1.1 1.9.6 2.4 1.7.1.2.4.6.7 1z" fill="#0487fe"/><path d="m57.8 111.3c-.8-.1-1.6-.2-2.4-.2-.2-2.3-.5-4.5-.7-6.8-.5-4.4-.9-8.8-1.3-13.1-.2-2.2 1-3.9 2.8-4 2.1-.2 3.7 1.6 3.4 3.9-.4 4.5-.9 8.9-1.4 13.4-.2 1.9-.4 3.9-.6 5.8 0 .3-.1.6.2 1z" fill="#fe0d05"/><path d="m53.3 110.8c-.8.1-1.6-.1-2.5-.2-1.1-3.8-2.1-7.5-3.2-11.3-.8-2.8-1.4-5.6-2.4-8.4-.6-1.8.9-3.6 2.2-3.8 1.7-.4 3.4.7 3.6 2.6.4 2.8.6 5.6.9 8.4.4 4.1.8 8.1 1.2 12.2.2.1.2.3.2.5z" fill="#fe0d05"/><path d="m36.9 89.2c.8-1.7 1.7-2.3 3.2-2.1 1.2.1 2.3 1 2.7 2.3 1.9 6.7 3.8 13.4 5.7 20.1.1.2.1.5.2.8-1.1 0-2-.4-3-.6-3-6.8-5.9-13.6-8.8-20.5z" fill="#fe0d05"/><g fill="#0487fe"><path d="m87 77.7c.7-1 1.4-2.1 2.1-3.1-.6 3-1.8 5.7-3.1 8.5-.8 1.7-1.9 2.8-3.6 3.6-1.5.7-2.9 1.5-4.5 2-.2-2.1-.8-4-1.3-6-.4-1.6.6-3.1.7-4.8 3.4-.6 6.7-1.4 9.9-2.5.4.8-.3 1.5-.2 2.3z"/><path d="m22.9 38.7c1.9-9.2 6.6-13.5 15.5-15.2-1.2 2.9-1.9 5.8-2.6 8.9-1.1-1.6-1.2-3.3-1.2-5.1-.5-.1-.7.3-1 .5-3.3 2.6-6 5.7-8.3 9.2-.8 1.3-.8 1.3-2.4 1.7z"/><path d="m86.3 30.7c-.2.5.2.9.4 1.2 1.1 2.2 1.9 4.6 2.5 7-2.7-4.6-6.1-8.6-10.5-11.9-.1 1.2 0 2.2-.3 3.2s-.7 1.9-1.4 2.8c-.8-3.3-1.6-6.4-2.9-9.5 3.3.9 6.3 2.1 9.1 3.7 1 .6 2 1.2 2.4 2.4.1.2.1.6.5.5-.3.4-.2.6.2.6z"/><path d="m57 20.4c-.1-1.3-.1-2.5-.2-3.7 2.9-.1 5.6.3 8.4.9 1.1.2 2.1.7 3.2.8 2.3.4 2.9 2.1 3.9 4.1-5.1-1.3-10.1-1.9-15.3-2.1z"/><path d="m40.3 21.9c.4-1.6 1.4-2.7 3.1-3.2 3.9-1.2 7.9-2.1 12.1-2.1v3.8c-5 .1-10.1.6-15 1.7-.1-.1-.2-.1-.2-.2z"/><path d="m93.5 57.5h3.1c.1 3.1-.4 6-1.1 9-.1.6-.4 1.2-.5 1.8-.4 2.6-2.4 3.4-4.7 4.6 1.6-5.2 3.3-10.1 3.2-15.4z"/><path d="m90.3 40.8c2.6 1.1 4.4 2.4 4.9 5.1.7 3.4 1.4 6.7 1.4 10.2-1 0-1.9 0-3 0-.1-5.2-1.6-10.1-3.3-15.3z"/><path d="m16.3 57.6h3.3c.2 5.2.7 10.2 1.9 15.4-1.4-.4-2.4-1-2.9-2.4-1.4-4.2-2.3-8.5-2.3-13z"/><path d="m21.5 40.7c-.5 2.6-1.1 5.1-1.3 7.7-.3 2.5-.5 5-.6 7.6-1.1.2-2.1.2-3.2.2-.2-2 .1-3.8.4-5.7.4-2.4 1-4.7 1.7-7 .4-1.6 1.3-2.4 3-2.8z"/><path d="m93.5 41.7c-1.1-.7-2.2-1.5-3.4-2.1-.8-2.7-1.8-5.3-3.1-7.8-.2-.4-.2-.9-.8-1 0-.2 0-.3 0-.5.2-.2.3-.1.4.1 2.9 3.3 5.2 7 6.9 11.1.1-.1 0 .1 0 .2z"/><path d="m86.5 83.1c1.4-2.9 2.7-5.9 3.6-8.9 1.2-.8 2.4-1.5 3.5-2.3-.3 1.7-1.2 3.1-2 4.6-1.3 2.4-2.9 4.7-4.8 6.8-.2-.1-.3-.2-.3-.2z"/><path d="m81.7 26c-2.6-1.3-5.3-2.4-8.1-3.2-.6-1-1.2-2-2-3.3 3.9 1.6 7.3 3.6 10.3 6.2 0 .2-.1.3-.2.3z"/><path d="m40.1 20.1c-.5 1-.9 1.8-1.3 2.5-2.1.5-4.2 1.4-6.3 2 2.2-1.8 4.6-3.2 7.6-4.5z"/><path d="m23.6 34c-.6 1.8-1.2 3.5-1.8 5.3-.6.3-1.2.6-2.1 1.1 1.2-2.5 2.3-4.6 3.8-6.5 0 0 .1 0 .1.1z"/><path d="m23.2 79.3c-1.3-1.8-2.3-3.7-3.4-6 .8.4 1.4.7 2.1 1 .5 1.6 1.1 3.2 1.6 4.8-.2.1-.2.1-.3.2z"/><path d="m82 87.8c-1.3 1.2-2.8 2.2-4.5 3.2.2-.7.5-1.2.5-1.7 1.3-.6 2.5-1.2 3.8-1.7 0 0 .1.1.2.2z"/><path d="m23.8 73.9c-.7-.3-1.1-.4-1.4-.5-.5-1.6-.7-3.1-.9-4.7.7 1.6 1.3 3.3 2.3 5.2z"/><path d="m22.3 40.2c.5-.2.8-.3 1.4-.5-.8 1.9-1.5 3.5-2.2 5.2h-.1c.3-1.5.6-3.1.9-4.7z"/><path d="m47.5 35.8c-1.7.9-3.3.7-5 .4 1.6-.2 3.2-.3 5-.4z"/><path d="m37.1 80.8c-.2-1-.3-1.7-.4-2.4.6-.2 1 0 1.6.1-.4.7-.7 1.3-1.2 2.3z"/><path d="m32.5 88.9c.8.3 1.5.6 2.2.8.3.4.5.6.6 1.2-1.1-.5-2-1.2-2.8-2z"/><path d="m75.8 78.3c-.1.6 0 1.1-.4 1.6-.4-.4-.7-.9-.9-1.5.5-.3.9-.4 1.3-.1z"/><path d="m69.9 36.2c-1.2.2-2.4.4-3.5-.3 1.2.1 2.3.2 3.5.3z"/><path d="m82.6 26.4c.1.1.2.1.3.2-.2.1-.3.1-.3-.2z"/><path d="m24.8 73.7v.3s0 0-.1 0c0-.1 0-.2.1-.3-.1 0-.1 0 0 0z"/><path d="m88.4 74c-.1-.1-.1-.2 0-.3.1.1.1.2 0 .3z"/><path d="m86 30.2c0-.1.1-.3.1-.4.1.2.2.3.1.4s-.1 0-.2 0z"/><path d="m82.5 87.1c.1-.2.2-.2.4-.2 0 .3-.2.3-.4.2.1.1 0 0 0 0z"/><path d="m82 25.8c.1.1.2.3.4.4l-.1.1c-.2-.1-.3-.2-.5-.2 0-.1.1-.2.2-.3z"/><path d="m23.6 79.6c.2.1.2.2.2.4-.2 0-.2-.2-.2-.4 0 .1 0 .1 0 0z"/><path d="m23.5 33.9c.1-.1.1-.2.2-.3.2.2.1.3-.1.4 0-.1-.1-.1-.1-.1z"/><path d="m81.7 87.5c.2-.1.3-.2.5-.3l.1.1c-.1.1-.2.3-.4.4 0 0-.1-.1-.2-.2z"/><path d="m40.5 22.1c-.1 0-.1 0-.2 0-.2-.1-.1-.2 0-.2 0 .1.1.1.2.2z"/><path d="m93.5 71.9c0-.1.1-.1.1-.2.1.2.1.2-.1.2z"/><path d="m82.5 26.5c-.1-.1-.2-.1-.3-.2l.1-.1c.1 0 .2.1.2.3.1-.1.1-.1 0 0z"/><path d="m86.7 83.3c-.1.1-.2.1-.2.2-.2-.2-.1-.3.1-.4-.1 0 0 .1.1.2z"/><path d="m23.5 79.7c-.1-.1-.1-.2-.2-.3.3-.1.3.1.2.3.1 0 .1 0 0 0z"/><path d="m82.2 87.3c.1-.1.2-.1.3-.2l.1.1c-.1.1-.2.1-.4.1z"/><path d="m93.5 41.7c.2-.1.2 0 .1.2 0-.1 0-.2-.1-.2z"/><path d="m86.2 83.7c-.1.1-.1.1 0 0-.1 0-.1 0 0 0z"/></g><path d="m74.1 103.6c1-2.3 1.9-4.4 2.8-6.4 22.7-12.4 30.6-38 20.1-60.6 1.3-.7 2.7-1.4 4-2.2 13.7 23.9 1.9 58.9-26.9 69.2z" fill="#fefefe"/><path d="m11.6 34.5c1.4.8 2.8 1.5 4.2 2.2-5.1 11.1-6 22.5-2.3 34.1 3.7 11.7 11.6 20 22.2 26.3.9 2 1.8 4.1 2.8 6.3-25.2-8.4-41.2-41.2-26.9-68.9z" fill="#fefefe"/><path d="m63.4 6.9c-1.2-.2-2.2-.3-3.3-.4-.3 2.2-.6 4.4-.9 6.6-.4.3-.7.1-1.2.1.3-2.7.6-5.2 1-7.9 1.9.2 3.7.5 5.7.7-.3 2.6-.6 5.1-.9 7.6-.4.3-.8.2-1.2-.1.2-2.1.5-4.3.8-6.6z" fill="#fefefe"/><path d="m82.1 17c-.7 1-1.3 1.9-2 2.9-.4-.1-.7-.3-.9-.7 1.4-2.1 2.8-4.2 4.2-6.2.5-.1.7.2 1.1.5-.6.9-1.2 1.8-1.8 2.6 1 .7 1.9 1.3 2.9 2 .6-.9 1.2-1.7 1.7-2.6.4.1.7.3 1 .6-1.4 2.1-2.8 4.2-4.2 6.3-.5.1-.7-.2-1-.6.6-.9 1.2-1.9 1.9-2.9-.9-.7-1.9-1.2-2.9-1.9z" fill="#fefefe"/><path d="m46.3 13.8c-.3.4-.7.4-1.1.4-1.2-.8-1.5-3.1-3.8-2.4 0 1.2.7 2.2.8 3.3-.3.3-.6.4-1.1.3-.8-2.4-1.5-4.8-2.3-7.2.2-.4.6-.3 1-.6.4 1.1.7 2.1 1.2 3.4.6-1.6 1.1-2.9 1.6-4.2.3-.1.7-.2 1.3-.5-.6 1.5-1.1 2.8-1.7 4.2 2.4.1 2.9 2.1 4.1 3.3z" fill="#fefefe"/><path d="m17.4 30.1c.9.7 1.8 1.3 2.7 2 0 .5-.3.7-.6 1-2.1-1.5-4.1-3-6.2-4.5 0-.4.3-.7.6-.9.8.6 1.7 1.2 2.8 2-.4-1.6-.8-2.9-1.2-4.2.1-.5.4-.8.8-1.2.4 1.4.7 2.8 1.1 4.2 1.8-1.2 3.4-.1 5.1.3-.1.4-.3.7-.7.9-1.4 0-3-1.6-4.4.4z" fill="#fefefe"/><path d="m32.7 11c .4-.3.7-.5 1.3-.6 1.8 1.9 3.6 3.9 5.5 5.9-.1.2-.5.2-.8.4-.6-.6-1.2-1.2-1.8-1.7-.8.4-1.5.7-2.2 1.1-.2.8.3 1.6.2 2.5-.1.3-.5.3-1 .5-.4-2.8-.8-5.4-1.2-8.1zm3.3 3.3c-.7-.8-1.3-1.5-2.1-2.4.2 1.2.3 2.2.5 3.2.6-.3 1.1-.6 1.6-.8z" fill="#fefefe"/><path d="m92.7 19.8c.3.3.6.6.9.9-1.2 2.4-2.3 4.9-3.5 7.3-.4-.1-.7-.4-.9-.7.3-.7.6-1.4 1-2.2-.5-.7-1.1-1.3-1.9-1.9-.7.4-1.4.7-2.1 1-.5-.1-.6-.4-1-.7 2.6-1.3 5-2.5 7.5-3.7zm-.9 1.6c-.8.4-1.6.8-2.3 1.1.4.5.8 1 1.2 1.5.6-.8.9-1.6 1.3-2.5 0-.1.1-.2.1-.3-.1-.1-.1-.1-.2-.2-.1.3-.1.4-.1.4z" fill="#fefefe"/><path d="m67.2 13.6c1.1.3 2 .6 2.9.8.3.4 0 .6 0 1-1.5-.4-2.8-.8-4.4-1.2.7-2.5 1.3-5 2-7.6 1.4.4 2.8.7 4.1 1.1.1.4-.1.7-.3 1-.9-.2-1.9-.5-2.9-.7-.3.7-.5 1.4-.5 2.1.9.3 1.8.5 2.7.8.1.4 0 .6-.2.9-.9-.2-1.7-.4-2.7-.7-.4.8-.4 1.6-.7 2.5z" fill="#fefefe"/><path d="m19.6 20.6.9-.9 7.2 3.6c0 .5-.4.6-.7.9-.7-.3-1.4-.7-2.1-1-.7.6-1.3 1.2-2 1.8.4.8.7 1.5 1 2.1-.2.4-.4.6-.8.8-1.1-2.4-2.3-4.8-3.5-7.3zm1.8.8c0-.1-.1-.2-.2-.1 0 .1.1.2.1.2.4.8.8 1.6 1.1 2.5.6-.4 1.1-.9 1.5-1.5-.9-.3-1.7-.7-2.5-1.1z" fill="#fefefe"/><path d="m96.3 29.6c-.2 1.9-.8 2.6-2.1 2.6-1.5 0-2.8-1.3-3.1-3.3.1 0 .1-.1.2-.1.2-.1.4-.1.6-.2.9 2.2 1.6 2.8 2.6 2.4s1-1.2 0-3c .2-.1.4-.3.6-.5.6.5 1 1.2 1.9 1.2.5-.1.9-.4 1.1-1-.1-1-.9-1.5-1.5-2-.1-.4.2-.5.4-.7 1.6.7 2.6 2.1 2.2 3.3-.4 1.1-1.3 1.5-2.9 1.3z" fill="#fefefe"/><path d="m29.4 17.2c1.7.1 2.6.7 2.7 1.9.1 1.4-1.1 2.7-3.2 3.2-.3-.1-.4-.4-.4-.7 1-.8 3.5-.8 2-3.1-.7-1-1.7 0-2.6.4-.3 0-.4-.3-.5-.6 1.2-1.2 1.4-2 .8-2.6-.7-.7-1.4-.3-2.7 1.3-.2-.1-.4-.3-.6-.4.1-1.5 2.3-2.6 3.2-2.3 1.1.3 1.6 1.4 1.3 2.9z" fill="#fefefe"/><path d="m55.9 11.9c.4.2.4.5.4.8-.6.7-3.2.6-4.3-.1-1.6-1-2.2-3.5-1.3-5.4s3-2.6 5.5-1.9c.3.3.1.6-.1.9-1.5-.2-3.1-.5-4.1 1.1-.6 1.2-.7 2.4.1 3.6.9 1.5 2.4 1.4 3.8 1z" fill="#fefefe"/><path d="m62 22.4c.1 0 .1 0 0 0z" fill="#fefefe"/><path d="m87 77.7v-.1z" fill="#fefefe"/><path d="m86 30.2h.3v.5c-.4 0-.5-.2-.3-.5z" fill="#fefefe"/><path d="m36 14.3c-.4.2-.9.5-1.6.8-.2-1.1-.3-2-.5-3.2.7.9 1.4 1.6 2.1 2.4z" fill="#fe0d05"/><path d="m91.9 21.6c-.4.8-.7 1.7-1.3 2.5-.4-.5-.8-1-1.2-1.5.7-.3 1.5-.7 2.3-1.1.1 0 .2 0 .2.1z" fill="#fe0d05"/><path d="m91.8 21.4c0-.1 0-.2.1-.3.1.1.1.1.2.2 0 .1-.1.2-.1.3-.1-.1-.2-.1-.2-.2z" fill="#fe0d05"/><path d="m21.4 21.4c.8.4 1.6.7 2.5 1.1-.4.6-.9 1.1-1.5 1.5-.4-.9-.8-1.7-1-2.6-.1.1-.1.1 0 0z" fill="#fe0d05"/><path d="m21.3 21.5c0-.1-.1-.2-.1-.2.2-.1.2 0 .2.1-.1.1-.1.1-.1.1z" fill="#fe0d05"/></svg>