<svg enable-background="new 0 0 113.4 113.4" viewBox="0 0 113.4 113.4" xmlns="http://www.w3.org/2000/svg"><circle cx="56.6" cy="56.9" fill="#fff" r="56.1"/><path d="m56.6 113.4c-31.6-.1-56.9-25.5-56.6-57.5.2-30.6 25.1-55.9 56.8-55.9 31.4 0 56.7 25.6 56.6 57-.1 31.2-25.7 56.6-56.8 56.4zm0-1.2c30.5.1 55.5-24.7 55.6-55.3s-24.6-55.5-55.2-55.7c-30.7-.2-55.7 24.6-55.8 55.3-.2 30.7 24.6 55.6 55.4 55.7z" fill="#e4231c"/><path d="m56.6 112.2c-30.8-.1-55.5-25.1-55.4-55.8s25.1-55.4 55.8-55.3c30.6.2 55.4 25.1 55.2 55.7-.2 30.7-25.1 55.6-55.6 55.4zm-19.1-21.5c.1.1.1.1.2.3 0-.3-.1-.4-.2-.3.2-.1 0-.3-.1-.4-1-1.6-.7-3.3-.5-5 .2.2.2 0 .2-.1-.1.1-.1.1-.2.1-1.6.9-3.3 1.7-5.3 1.4 1.8 1.4 3.4 2.9 5.5 3.7.1.3.2.4.4.3zm57.4-28.8c-1.1 1.3-2.6 2-4.8 2 1.9 1.1 3 2.4 3.7 4 .5-2 1.2-3.9 1.1-6 .4 0 .4-.2.2-.5 0 .3-.1.4-.2.5zm-9.2-23.9c1.8-.2 3.6-.3 5.3.6-1.1-2-2.2-3.9-3.7-5.5.4 1.9-.6 3.4-1.6 4.9 0 0-.1.1 0 0-.1 0 0 0 0 0zm-63.3 37.2c-.1-.1-.2-.3-.4-.1.1.1.2.1.2.2 1 2.2 2.5 4.1 4 6-.6-2.1.1-3.8 1.5-5.6-2 .4-3.7.3-5.3-.5zm16.1-52.9c-2.4.9-4.3 2.5-6.3 4.1 2-.5 3.8 0 5.5 1.3-.5-2 0-3.8.8-5.4.2.1.2 0 .1-.2 0 0-.1.1-.1.2zm-10.4 14.9c-.1.2 0 .2 0 0 .1.1 0 .1 0 0-.9-1.7-1.9-3.4-1.4-5.5-1.8 1.9-3.2 4.1-4.4 6.4 1.1-.7 2.3-1.2 3.6-1.2.8 0 1.4.5 2.2.3zm32.6 16.2c.3-.2.5-.2.7-.4 7.4-4.9 14.8-9.7 22.2-14.6 3.2-2.1 3.8-4.6 1.7-7.7-2.9-4.3-7.3-3.7-9.7-.4-5.3 7.3-10.3 14.8-15.4 22.2-.1.1-.1.2-.1.4.1.1.3.3.6.5zm-1.6-1.2c5.3-7.8 10.7-15.6 15.9-23.3.9-1.4 1-2.9.4-4.5-1-2.2-4.1-4-6.6-3.8-2.3.2-4.4 2.3-5 4.9-.7 3-1.3 6-1.9 9-1.2 5.7-2.5 11.5-3.7 17.2.3.2.5.3.9.5zm2.6 3h .6c8.7-1.7 17.4-3.3 26.1-5 3.8-.7 5.2-2.6 4.7-6.3-.6-4.5-5.1-6.7-8.9-4.3-7.5 4.8-15 9.7-22.5 14.6-.1.1-.2.2-.3.3 0 .2.1.4.3.7zm-3.4 6.8c1.7 9.2 3.4 18.4 5.2 27.5.3 1.8 1.4 3.1 3.2 3.6 2.3.8 5.8-.3 7.2-2.3 1.3-1.8 1.3-4.7-.2-6.9-.7-1-1.3-2-2-3.1-4.1-6.3-8.2-12.7-12.3-19-.1-.1-.1-.3-.3-.7-.3.7-.5.7-.8.9zm-6.7-3.6c-.1 0-.1 0 0 0-9.2 1.8-18.4 3.5-27.5 5.4-1.8.4-3.1 1.5-3.7 3.3-.7 2.3.4 5.8 2.4 7.2 1.7 1.3 4.7 1.1 6.9-.3 4.1-2.7 8.1-5.3 12.2-8 3.4-2.2 6.7-4.4 10.2-6.7-.6-.4-.2-.8-.5-.9zm9.8.9.2.2c7.7 5.3 15.3 10.5 23 15.7 1.4.9 2.9 1.1 4.5.5 2.1-.8 4.1-4.2 3.8-6.5-.2-2.3-2.2-4.5-4.7-5-8.7-1.9-17.5-3.8-26.3-5.6-.1 0-.2 0-.3 0 0 .1-.1.4-.2.7zm-9.1.9c-.1.1-.2.1-.3.1-7.6 5.1-15.2 10.1-22.8 15.2-1.7 1.1-2.5 2.9-2.1 4.9.4 2.3 2.8 4.9 4.9 5.4 2.1.4 4.7-.8 6.2-2.9 2.8-4 5.5-8.1 8.3-12.2 2.2-3.3 4.4-6.6 6.6-9.8-.2-.3-.4-.5-.8-.7zm1.1-7.6c-5.2-7.8-10.3-15.6-15.5-23.3-1-1.5-2.4-2.2-4.2-2.2-2.4 0-5.3 2.4-6 4.8-.6 2 .6 4.9 2.6 6.3 6 4.1 11.9 8.1 17.9 12.2l4.5 3c .3-.4.5-.6.7-.8zm-1.4 1.7c-.4-.3-.7-.5-1-.8-7.2-4.8-14.4-9.7-21.6-14.5-3-2-5.5-1.6-7.7 1.3-2.7 3.7-1.1 8.3 3.3 9.3 8.8 1.9 17.7 3.7 26.5 5.5.2-.2.3-.4.5-.8zm8.2 6.7c.2.3.3.6.5.8 4.8 7.3 9.6 14.6 14.3 21.9 2 3 4.5 3.6 7.5 1.7 4-2.4 4.2-7.4.4-10-4.7-3.2-9.4-6.5-14.1-9.7-2.7-1.9-5.4-3.7-8-5.5-.3.2-.5.4-.6.8zm1.7-3.7c9.3 1.9 18.4 3.9 27.6 5.8 1.7.3 3.2-.2 4.4-1.4 1.6-1.7 2.1-5.4.9-7.5-1-1.9-3.8-3.2-6.3-2.7-8.8 1.6-17.6 3.2-26.4 4.8-.1 0-.1.1-.2.2zm-7.8 4.2c-.2.2-.3.3-.4.4-5.1 7.7-10.3 15.3-15.3 22.9-1 1.5-1.1 3.2-.3 4.8 1.1 2.1 4.3 3.8 6.6 3.5s4.3-2.4 4.8-5.1c1.8-8.7 3.6-17.3 5.4-26.1-.2-.1-.5-.2-.8-.4zm1.1-9.7c0-.1-.1-.2-.1-.3-1.7-8.9-3.5-17.9-5.2-26.8-.4-1.9-1.3-3.3-3.1-4-2.3-.9-5.8.1-7.4 2.1-1.4 1.7-1.3 4.7.1 6.9.7 1 1.3 2 2 3.1 4.2 6.4 8.5 12.9 12.8 19.4.2-.4.6-.1.9-.4zm1.8-.2c0-.1.1-.2.1-.2 1.9-9.1 3.8-18.2 5.7-27.3.4-1.8-.2-3.5-1.7-4.7-1.9-1.6-5.5-1.8-7.5-.5-1.8 1.1-2.8 3.9-2.3 6.5.5 2.5.9 5.1 1.4 7.6 1.1 6.2 2.3 12.4 3.4 18.5.4.2.6.2.9.1zm-5.6 4.7c-.2 0-.3-.1-.5-.1-9-1.8-18-3.7-27-5.5-1.8-.3-3.4.2-4.6 1.6-1.6 1.9-1.9 5.6-.6 7.6 1.1 1.9 3.9 2.9 6.5 2.4 2.9-.6 5.9-1.1 8.8-1.7 5.8-1.1 11.6-2.2 17.4-3.3 0-.4 0-.7 0-1zm4.6 5.9c0 .1-.1.3-.1.4-1.8 9-3.7 18-5.5 27-.3 1.8.2 3.4 1.6 4.6 1.9 1.6 5.5 1.9 7.6.6 1.9-1.1 2.9-3.9 2.4-6.5-.6-2.9-1.1-5.9-1.7-8.8-1.1-5.8-2.2-11.6-3.3-17.3-.4-.2-.6-.2-1 0zm .6-.9c2.3 0 4.5-2.1 4.4-4.4-.1-2.6-1.8-4.4-4.3-4.4-2.6-.1-4.4 1.8-4.5 4.4-.1 2.3 2.1 4.4 4.4 4.4zm-37.2-16.5c-1 2.9-1.8 6.8-1.5 7.9 1-2 2.8-2.8 5.1-2.9-1.9-1.3-3.3-2.7-3.6-5zm33.7-26.8c-2.6-.1-5.1.7-7.7 1.4 2.3.2 3.9 1.5 4.9 3.6.4-2 1.1-3.7 2.8-5zm10.6 5.4c1.3-2 2.6-3.3 5-3.7-2.8-.8-5.3-1.4-7.8-1.6 1.8 1.1 2.8 2.7 2.8 5.3zm-40.9 39.8c-2.1-.4-3.8-1.1-5.2-3 .1 2.9.8 5.2 1.5 7.7.4-2.2 1.5-3.7 3.7-4.7zm53.4-34.9c1.7-1 3.3-1.7 5.5-1.4-2-1.7-3.8-2.9-5.8-3.8.8 1.6.9 3.2.3 5.2zm-26.6 62.1c-1.1 1.9-2.5 3.1-4.4 3.7 2.4.7 4.6 1.2 6.8 1.4-1.6-1.2-2.4-2.8-2.4-5.1zm25.8-4.7c.4 2 .4 3.6-.6 5.5 2.1-1.3 3.9-2.3 5.8-3.9-2.1.3-3.6-.4-5.2-1.6zm15-35.1c2.1.3 3.6 1.1 5 2.6-.1-2.4-.7-4.4-1.2-6.5-.7 1.7-1.8 3-3.8 3.9zm-27.4 40c-.3 2.1-1 3.6-2.6 5 2.4-.3 4.4-.6 6.7-1.4-2.1-.5-3.3-1.7-4.1-3.6zm22.2-14.1c1.1 1.6 1.6 3.1 1.5 5.2 1.3-2 2.6-3.5 3.4-5.4-1.5.7-3.1.6-4.9.2z" fill="#fff"/><g fill="#e31517"><path d="m60.7 53.4c-.2-.2-.4-.4-.6-.5 0-.1 0-.3.1-.4 5.1-7.4 10.1-14.9 15.4-22.2 2.4-3.3 6.8-3.9 9.7.4 2.1 3.1 1.5 5.7-1.7 7.7-7.4 4.9-14.8 9.7-22.2 14.6-.3.1-.4.2-.7.4z"/><path d="m59.1 52.2c-.3-.1-.6-.3-.9-.4 1.2-5.8 2.5-11.5 3.7-17.2.6-3 1.3-6 1.9-9 .6-2.6 2.7-4.7 5-4.9 2.4-.2 5.6 1.6 6.6 3.8.7 1.5.5 3.1-.4 4.5-5.3 7.6-10.6 15.3-15.9 23.2z"/><path d="m61.7 55.2c-.1-.3-.3-.5-.4-.8.1-.1.2-.2.3-.3 7.5-4.9 15-9.8 22.5-14.6 3.8-2.4 8.3-.2 8.9 4.3.5 3.7-.9 5.6-4.7 6.3-8.7 1.7-17.4 3.3-26.1 5-.1.1-.3.1-.5.1z"/><path d="m58.3 62c .3-.2.6-.2.8-.8.2.4.2.6.3.7 4.1 6.3 8.2 12.7 12.3 19 .7 1 1.3 2 2 3.1 1.4 2.2 1.5 5.2.2 6.9-1.5 1.9-4.9 3-7.2 2.3-1.8-.6-2.8-1.9-3.2-3.6-1.8-9.2-3.5-18.4-5.2-27.6z"/><path d="m51.6 58.4c.3.2-.1.6.4.8-3.5 2.3-6.9 4.5-10.2 6.7-4.1 2.7-8.1 5.3-12.2 8-2.2 1.5-5.2 1.6-6.9.3-1.9-1.4-3.1-4.9-2.4-7.2.6-1.8 1.9-3 3.7-3.3 9.1-1.8 18.3-3.6 27.4-5.4.1 0 .1 0 .2.1z"/><path d="m61.4 59.3c.1-.3.2-.5.3-.8h.3c8.8 1.9 17.5 3.7 26.3 5.6 2.5.5 4.5 2.8 4.7 5 .2 2.3-1.7 5.7-3.8 6.5-1.5.6-3.1.5-4.5-.5-7.7-5.2-15.3-10.5-23-15.7-.2 0-.2-.1-.3-.1z"/><path d="m52.3 60.2c.4.1.6.3.7.7-2.2 3.2-4.4 6.5-6.6 9.8-2.8 4.1-5.5 8.1-8.3 12.2-1.4 2.1-4.1 3.3-6.2 2.9s-4.5-3.1-4.9-5.4c-.3-2.1.4-3.8 2.1-4.9 7.6-5.1 15.2-10.1 22.9-15.2.1 0 .2 0 .3-.1z"/><path d="m53.4 52.6c-.2.2-.4.4-.6.7-1.5-1-3-2-4.5-3-6-4-11.9-8.1-17.9-12.2-2-1.4-3.2-4.3-2.6-6.3.7-2.4 3.6-4.7 6-4.8 1.8 0 3.2.7 4.2 2.2 5.1 7.8 10.2 15.6 15.4 23.4z"/><path d="m52 54.3c-.2.3-.3.6-.5.8-8.9-1.8-17.7-3.6-26.5-5.5-4.4-.9-6-5.5-3.3-9.3 2.1-2.9 4.7-3.3 7.7-1.3 7.2 4.8 14.4 9.7 21.6 14.5.3.3.6.5 1 .8z"/><path d="m60.2 61c .1-.3.3-.5.7-.7 2.6 1.8 5.3 3.7 8 5.5 4.7 3.2 9.4 6.5 14.1 9.7 3.7 2.6 3.5 7.6-.4 10-3.1 1.9-5.6 1.3-7.5-1.7-4.8-7.3-9.6-14.6-14.3-21.9-.3-.4-.4-.7-.6-.9z"/><path d="m61.9 57.3c0-.4 0-.6 0-.9l.2-.2c8.8-1.6 17.6-3.2 26.4-4.8 2.5-.5 5.3.8 6.3 2.7 1.1 2.1.7 5.8-.9 7.5-1.2 1.2-2.7 1.7-4.4 1.4-9.2-1.8-18.4-3.7-27.6-5.7z"/><path d="m54.1 61.5c.3.2.6.3.8.5-1.8 8.7-3.6 17.4-5.4 26.1-.6 2.7-2.6 4.8-4.8 5.1-2.3.3-5.5-1.3-6.6-3.5-.8-1.6-.7-3.3.3-4.8 5.1-7.7 10.2-15.3 15.4-22.9 0-.2.2-.3.3-.5z"/><path d="m55.2 51.8c-.3.3-.7 0-.8.4-4.3-6.6-8.6-13-12.8-19.4-.7-1-1.3-2-2-3.1-1.4-2.2-1.5-5.2-.1-6.9 1.5-2 5.1-3 7.4-2.1 1.8.7 2.8 2.1 3.1 4 1.7 8.9 3.5 17.9 5.2 26.8-.1.1 0 .1 0 .3z"/><path d="m57 51.6c-.3.1-.6.2-.9 0-1.1-6.1-2.3-12.3-3.4-18.5-.5-2.5-.9-5.1-1.4-7.6-.5-2.6.5-5.4 2.3-6.5 2-1.3 5.6-1.1 7.5.5 1.5 1.2 2 2.8 1.7 4.7-1.9 9.1-3.8 18.2-5.8 27.4.1-.2 0-.1 0 0z"/><path d="m51.4 56.3v.9c-5.8 1.1-11.6 2.2-17.4 3.3-2.9.6-5.9 1.1-8.8 1.7-2.6.5-5.4-.5-6.5-2.4-1.3-2.1-1-5.8.6-7.6 1.2-1.4 2.8-1.9 4.6-1.6 9 1.8 18 3.6 27 5.5.2.1.3.1.5.2z"/><path d="m56 62.2c.3-.1.6-.1 1 0 1.1 5.8 2.2 11.5 3.3 17.3.6 2.9 1.1 5.9 1.7 8.8.5 2.6-.5 5.4-2.4 6.5-2.1 1.3-5.8 1-7.6-.6-1.4-1.2-1.9-2.8-1.6-4.6 1.8-9 3.6-18 5.5-27 0-.1.1-.3.1-.4z"/><path d="m56.6 61.3c-2.3 0-4.5-2.1-4.4-4.4.1-2.6 1.9-4.5 4.5-4.4s4.3 1.8 4.3 4.4c.1 2.3-2.1 4.4-4.4 4.4z"/></g><path d="m28.1 37.2c-.8.2-1.4-.3-2.2-.3-1.3 0-2.5.5-3.6 1.2 1.3-2.3 2.6-4.5 4.4-6.4-.5 2.1.5 3.8 1.4 5.5z" fill="#e4231c"/><path d="m19.4 44.8c.3 2.3 1.7 3.7 3.6 5-2.4.1-4.1 1-5.1 2.9-.3-1.1.5-5 1.5-7.9z" fill="#e4231c"/><path d="m53.1 18c-1.7 1.2-2.3 3-2.8 5-1-2.2-2.6-3.4-4.9-3.6 2.6-.7 5-1.4 7.7-1.4z" fill="#e31517"/><path d="m63.7 23.4c0-2.6-1-4.2-2.8-5.3 2.6.2 5 .8 7.8 1.6-2.4.4-3.8 1.7-5 3.7z" fill="#e4231c"/><path d="m38.5 22.2c-.8 1.7-1.2 3.4-.8 5.4-1.7-1.3-3.5-1.8-5.5-1.3 2-1.5 3.9-3.1 6.3-4.1z" fill="#e4231c"/><path d="m22.8 63.2c-2.2 1-3.3 2.5-3.7 4.6-.6-2.4-1.4-4.8-1.5-7.7 1.4 2 3.1 2.7 5.2 3.1z" fill="#e31517"/><path d="m22.4 75.2c1.6.8 3.3 1 5.3.5-1.3 1.8-2.1 3.5-1.5 5.6-1.5-1.9-3-3.8-4-6 .1-.1.1-.1.2-.1z" fill="#e4231c"/><path d="m85.7 38c .9-1.5 2-3 1.6-5 1.5 1.7 2.6 3.5 3.7 5.5-1.7-.8-3.5-.7-5.3-.5z" fill="#e4231c"/><path d="m37.2 90.5c-2.1-.8-3.7-2.3-5.5-3.7 2 .3 3.6-.5 5.3-1.4-.2 1.7-.5 3.4.5 5-.2 0-.2.1-.3.1z" fill="#e4231c"/><path d="m76.2 28.3c.6-2 .6-3.6-.3-5.2 2 .9 3.8 2.2 5.8 3.8-2.3-.3-3.8.4-5.5 1.4z" fill="#e4231c"/><path d="m49.6 90.4c0 2.3.8 3.9 2.4 5.1-2.2-.2-4.4-.7-6.8-1.4 1.9-.6 3.2-1.8 4.4-3.7z" fill="#e4231c"/><path d="m75.4 85.7c1.6 1.2 3.1 1.9 5.2 1.7-1.8 1.6-3.6 2.6-5.8 3.9 1-2 1-3.6.6-5.6z" fill="#e4231c"/><path d="m90.4 50.6c2-.9 3.1-2.1 3.7-3.9.5 2.1 1.2 4.1 1.2 6.5-1.3-1.5-2.8-2.3-4.9-2.6z" fill="#e31517"/><path d="m95.1 62.1c0 2-.8 3.8-1.2 5.9-.7-1.6-1.8-2.9-3.7-4 2.2 0 3.6-.7 4.9-1.9-.1-.1-.1-.1 0 0z" fill="#e4231c"/><path d="m63 90.6c.9 1.9 2 3.1 4.1 3.7-2.3.7-4.3 1.1-6.7 1.4 1.5-1.5 2.2-3 2.6-5.1z" fill="#e4231c"/><path d="m85.2 76.5c1.8.5 3.4.6 4.9-.2-.8 1.9-2.1 3.4-3.4 5.4.1-2.1-.5-3.6-1.5-5.2z" fill="#e4231c"/><path d="m94.9 61.9c.1-.1.2-.3.2-.4.2.2.3.4-.1.6 0-.1 0-.1-.1-.2z" fill="#e4231c"/><path d="m38.5 22.3c0-.1.1-.1.1-.2.1.2.1.2-.1.2 0-.1 0 0 0 0z" fill="#e4231c"/><path d="m85.7 38c-.1.1 0 0 0 0z" fill="#e4231c"/><path d="m28.1 37.2c.1 0 .1.1.2.1-.2.1-.3.1-.2-.1z" fill="#e4231c"/><path d="m22.2 75.3c-.1-.1-.1-.1-.2-.2.2-.2.3 0 .4.1-.1 0-.1 0-.2.1z" fill="#e4231c"/><path d="m37 85.4c.1 0 .1-.1.2-.1-.1.1-.1.3-.2.1z" fill="#e4231c"/><path d="m37.4 90.4c.1.1.3.2.1.4-.2 0-.2-.1-.3-.2.1-.1.1-.2.2-.2z" fill="#e4231c"/><path d="m37.5 90.8c.2-.1.2-.1.2.2-.1-.1-.2-.2-.2-.2z" fill="#e4231c"/></svg>