<svg xmlns="http://www.w3.org/2000/svg" viewBox="0 0 566.93 566.93"><defs><style>.cls-1{fill:#1d1d1b;}.cls-2{fill:#be1622;}.cls-3{fill:#dadada;}</style></defs><title>Renegades Krakot</title><g id="Capa_1" data-name="Capa 1"><circle class="cls-1" cx="747.08" cy="-184.48" r="198.43"/></g><g id="Capa_2" data-name="Capa 2"><path class="cls-2" d="M747.08,13.94A197,197,0,0,1,631-23.52l-7-5.08,14.33-14.33a187.66,187.66,0,0,1-32.06-31.93L591.92-60.5l-5.09-7a196.91,196.91,0,0,1-38.18-117,196.89,196.89,0,0,1,38-116.78l5.08-7,14.54,14.54a187.29,187.29,0,0,1,32.06-31.93l-14.55-14.56,7-5.08a197,197,0,0,1,116.28-37.64A196.93,196.93,0,0,1,863.6-345.09l7,5.09-14.37,14.37A187.64,187.64,0,0,1,888.3-293.7L902.6-308l5.08,7A196.89,196.89,0,0,1,945.5-184.48,196.88,196.88,0,0,1,907.09-67.14L902-60.2,887.34-74.86a188,188,0,0,1-32.07,31.93l14.58,14.57-7.06,5.08A197,197,0,0,1,747.08,13.94ZM646.87-30.57A182.24,182.24,0,0,0,747.08-.84,182.24,182.24,0,0,0,847-30.35L832.41-44.89l7.45-5c.23-.16,24.41-16.64,40.44-40.44l5-7.44L900.13-83a182.2,182.2,0,0,0,30.6-101.52,182.2,182.2,0,0,0-30.06-100.7l-14.4,14.4-5-7.44c-16-23.8-40.21-40.28-40.45-40.45l-7.42-5,14.39-14.4a182.24,182.24,0,0,0-100.7-30.05,182.26,182.26,0,0,0-100.45,29.89l14.57,14.56-7.44,5c-.24.17-24.42,16.65-40.45,40.45l-5,7.44-14.65-14.65a182.16,182.16,0,0,0-30.22,101A182.19,182.19,0,0,0,593.81-83.29L608.3-97.78l5,7.44c16,23.8,40.21,40.28,40.45,40.44l7.42,5Z"/><circle class="cls-1" cx="283.46" cy="283.46" r="279.21"/><path class="cls-2" d="M202,443.93c4-5.27,8.11-10.53,12.29-15.71s8-10.6,12-15.84c3.31-4.28,7-8.31,10.09-12.72,3.87-5.45,8.18-10.55,12.15-15.92,3.33-4.52,6.93-8.85,10.41-13.26-.72-.5-1.52-.22-2.28-.22h-71.2c-2.37,0-2.37,0-2.37-2.45,0-5.25,0-10.51,0-15.77,0-.68-.29-1.43.3-2l70.84,0h21.12c1.06,0,2.12-.05,3.17-.07a2.31,2.31,0,0,1,.22,1.44v25.92a2.55,2.55,0,0,1-.16,1.25l-17.65,22.67q-11.67,15-23.35,30-9.71,12.51-19.36,25.07c-1.84,2.39-3.65,4.82-5.47,7.22a2,2,0,0,1-1.9,1.08c-9,0-18,0-27,0-.24,0-.38-.15-.56-.25l0,0c-.48-.55-.26-1.22-.26-1.84,0-5.46.07-10.92-.06-16.38,0-1.77.57-2.11,2.17-2.08,5,.09,9.93,0,14.9,0A3.05,3.05,0,0,0,202,443.93Z"/><path class="cls-2" d="M314.28,339a5,5,0,0,0-.2,2.48q0,44.1,0,88.19c0,6.92,0,13.84,0,20.76,0,1.31.17,1.9,1.33,1.88,4.26-.1,8.53,0,12.79-.05.56,0,1.25.24,1.45-.85a7.63,7.63,0,0,1-.14-2.29q0-10.89,0-21.79,0-21.47,0-42.94c0-.69-.53-1.74.45-2.14l-.34-25.91a37.6,37.6,0,0,1,0-6.71l-15-10.94C314.49,338.81,314.39,338.92,314.28,339Z"/><path class="cls-2" d="M373.87,477l13.56-17.41a2,2,0,0,0,.12-1V438.74a1.75,1.75,0,0,0-.16-1.1c-.82,0-1.63.05-2.44.05H368.72l-54.42,0c-.45.46-.22,1-.23,1.55,0,4,0,8.08,0,12.12,0,1.87,0,1.88,1.83,1.88h54.7c.57,0,1.19-.21,1.74.17-2.67,3.39-5.44,6.71-8,10.18s-5.11,6.58-7.61,9.91l11.56,10.73Z"/><path class="cls-2" d="M393.1,159.88l-9.16,11.66c.07,1.05-.69,1.44-1.46,1.82l-1.1,1.46c.08,1.06-.69,1.44-1.45,1.82l-1.1,1.46a11.72,11.72,0,0,1-4,5.11L350,214.93a6.44,6.44,0,0,1-2.91,3.65q-4.61,5.82-9.19,11.64a9.25,9.25,0,0,0-.63,1.06c-.46.47-1,.25-1.56.25-7.46,0-14.92,0-22.39,0-1.29,0-1.79-.24-1.76-1.68.09-4.67,0-9.34,0-14,0-.63-.24-1.41.73-1.61l0,0a81.84,81.84,0,0,0,9.4.14,46,46,0,0,0,7-.13c4.24-5.15,8.31-10.43,12.39-15.7Q348.58,189,356,179.4c4.62-5.91,9.09-11.94,14-17.65a19.51,19.51,0,0,0,1.33-1.83c-.6-.46-1.29-.2-1.93-.2q-27.61,0-55.22,0c-3,0-2.53.36-2.55-2.65q0-6.47,0-12.94c0-.56-.31-1.21.3-1.68l96.14,0a2.29,2.29,0,0,0,.36-.07v17.14c-3.91.4-7.83,0-11.75.18A12.3,12.3,0,0,0,393.1,159.88Z"/><path class="cls-2" d="M390.65,117.91c0,4.76-.08,9.53,0,14.29,0,1.68-.41,2.16-2.12,2.16q-37.33-.09-74.66,0c-.64,0-1.29.06-1.93.09-.86-.3-.61-1-.61-1.65,0-4.46.06-8.94-.05-13.4,0-1.47.49-1.72,1.8-1.72q32.2.06,64.4,0c3.82,0,7.64,0,11.46,0C389.53,117.68,390.14,117.46,390.65,117.91Z"/><path class="cls-2" d="M277.87,144.38c0,5.76-.08,11.51,0,17.26,0,2-.41,2.61-2.12,2.61q-37.23-.1-74.46,0c-.65,0-1.29.07-1.93.11-.86-.37-.61-1.27-.61-2,0-5.39.06-10.79-.05-16.19,0-1.78.48-2.07,1.8-2.07q32.11.06,64.23,0c3.81,0,7.62,0,11.44,0C276.75,144.11,277.36,143.84,277.87,144.38Z"/><path class="cls-2" d="M181.11,100.93c5.75,0,11.51.13,17.26,0,2-.05,2.61.61,2.6,3.1q-.09,54.3,0,108.6c0,.93.08,1.87.11,2.8-.36,1.26-1.26.89-2,.9-5.4,0-10.8-.09-16.19.06-1.78.06-2.08-.7-2.07-2.62q.06-46.83,0-93.66c0-5.56,0-11.12,0-16.68C180.83,102.58,180.57,101.68,181.11,100.93Z"/><path class="cls-2" d="M232.58,129.74c5.75,0,11.51.11,17.26,0,2-.05,2.61.54,2.61,2.75q-.1,48.35,0,96.67c0,.84.08,1.67.11,2.5-.36,1.13-1.26.79-2,.8-5.4,0-10.79-.08-16.19.06-1.78,0-2.08-.63-2.07-2.34q.06-41.68,0-83.37c0-4.95,0-9.9,0-14.85C232.31,131.2,232,130.4,232.58,129.74Z"/><path class="cls-2" d="M435.72,73.61a259.31,259.31,0,0,0-304.19-.24l-8.86,6.43,29.58,2.74A240,240,0,0,1,415,82.78l-.06,0,29.41-2.92Z"/><path class="cls-2" d="M83.2,415.68A240,240,0,0,1,83,151.57L80.6,121.86l-.1-.1-6.65,9.12a259.28,259.28,0,0,0,.23,305.48l6.6,9,2.59-29.78Z"/><path class="cls-2" d="M413.41,485.21a240.09,240.09,0,0,1-260.88-.63l.6-.59-30.47,3.16,9.19,6.64a259.32,259.32,0,0,0,302.8.31l9.17-6.59Z"/><path class="cls-2" d="M492.54,436.79a259.29,259.29,0,0,0,.78-305.58l-6.65-9.14-.47.47L484,152l.12-.13a240.06,240.06,0,0,1-.44,263.82l1.81,29.78.36.36Z"/><path class="cls-3" d="M63.54,264h47.87q.36,0,.36.36v7.92a.32.32,0,0,1-.36.36H71.64l.18.36v31c0,.19-.18.37-.54.55H63.54a.32.32,0,0,1-.36-.36V264.32Q63.23,264,63.54,264Z"/><path class="cls-3" d="M114.43,264.14h47.51q.36,0,.36.36v11.7L137.1,296h24.84q.36,0,.36.36v7.74a.32.32,0,0,1-.36.36H114.43a.32.32,0,0,1-.36-.36V264.5Q114.12,264.14,114.43,264.14Zm8.1,8.46V296h.72l30.05-23.4Z"/><path class="cls-3" d="M164.37,264.14h11.7q36.17,28,36.17,28.08V304.1a.32.32,0,0,1-.36.36h-7.74a.32.32,0,0,1-.36-.36v-7.74q-3.19-2.3-31.31-24.12V304.1a.32.32,0,0,1-.36.36h-7.74a.32.32,0,0,1-.36-.36V264.5Q164.06,264.14,164.37,264.14Z"/><path class="cls-3" d="M214.62,264.14h47.51q.36,0,.36.36v11.7L237.3,296h24.83q.36,0,.36.36v7.74a.32.32,0,0,1-.36.36H214.62a.32.32,0,0,1-.36-.36V264.5Q214.31,264.14,214.62,264.14Zm8.1,8.46V296h.72l30.06-23.4Z"/><path class="cls-3" d="M300.92,263.87h7.92c.23,0,.36.15.36.36v47q-1.32,1.31-18.18,14.4h-.36V315.34l10.08-8.09v-3.06H264.56a.32.32,0,0,1-.36-.37V292.67Q266.23,290.83,300.92,263.87Zm-27,31.86h26.82V274.67Q275,294.69,273.92,295.73Z"/><path class="cls-3" d="M348.52,264.14h7.92c.23,0,.36.15.36.36v39.6a.32.32,0,0,1-.36.36H312a.32.32,0,0,1-.36-.36v-11Q313.91,291,348.52,264.14Zm-27,31.86h26.82V274.94Q325.16,292.9,321.52,296Z"/><path class="cls-3" d="M395.22,256.76H403c.24,0,.36.16.36.36v47a.32.32,0,0,1-.36.36H358.33V292.94q1.31-1.31,36.53-28.8l-.18-.36V257.3Q394.68,257,395.22,256.76Zm-27.36,39.06V296h27l-.18-.9V275.3l.18-.36h-.18Q368.49,295.55,367.86,295.82Z"/><path class="cls-3" d="M405.48,264.14H453q.36,0,.36.36v11.7L428.15,296H453q.36,0,.36.36v7.74a.32.32,0,0,1-.36.36H405.48a.32.32,0,0,1-.36-.36V264.5Q405.17,264.14,405.48,264.14Zm8.1,8.46V296h.71l30.06-23.4Z"/><path class="cls-3" d="M455.42,264h48.05q.36,0,.36.36v7.92a.32.32,0,0,1-.36.36h-40v7.2h40q.36,0,.36.36V304.1a.32.32,0,0,1-.36.36H455.6c-.18,0-.36-.18-.54-.55v-7.73q0-.36.36-.36h39.95v-7.56H455.42a.32.32,0,0,1-.36-.36V287a.16.16,0,0,1,.18-.18l-.18-.36V264.32Q455.1,264,455.42,264Z"/></g></svg>