<svg enable-background="new 0 0 113.6 113.4" viewBox="0 0 113.6 113.4" xmlns="http://www.w3.org/2000/svg"><path d="m60.6 113.4c-2.6 0-5.1 0-7.7 0-1.7-.2-3.5-.5-5.2-.7-22.9-3.5-41.7-21.4-46.4-44-.5-2.7-.9-5.4-1.3-8.1 0-2.6 0-5.1 0-7.7.2-1.7.5-3.5.7-5.2 3.6-22.9 21.5-41.8 44.2-46.4 2.7-.5 5.4-.9 8.1-1.3h7.7c1.7.2 3.5.5 5.2.7 22.9 3.5 41.7 21.4 46.4 44 .5 2.7.9 5.4 1.3 8.1v7.7c-.2 1.7-.5 3.5-.7 5.2-3.5 22.9-21.4 41.7-44 46.4-2.9.5-5.6.8-8.3 1.3z" fill="#b72318"/><path d="m60.3 4.3c.5.1.9.1 1.4.2 1.2.2 2.3.3 3.5.5 10.4 1.6 19.9 6.3 27.7 13.7s13 16.7 15.1 26.9c.3 1.7.6 3.4.9 5.2.1.8.2 1.5.3 2.3v7.1c-.1.5-.1.9-.2 1.4-.2 1.2-.3 2.3-.5 3.5-1.6 10.4-6.3 19.9-13.7 27.7s-16.7 13-26.9 15.1c-1.7.3-3.4.6-5.2.9-.8.1-1.5.2-2.3.3h-7.1c-.5-.1-.9-.1-1.4-.2-1.2-.2-2.3-.3-3.5-.5-10.4-1.6-19.9-6.3-27.7-13.7s-13-16.7-15.1-26.9c-.3-1.7-.6-3.4-.9-5.2-.1-.8-.2-1.5-.3-2.3v-7.1c.1-.5.1-.9.2-1.4.2-1.2.3-2.3.5-3.5 1.6-10.4 6.3-19.9 13.7-27.7s16.7-13 26.9-15.1c1.7-.3 3.4-.6 5.2-.9.8-.1 1.5-.2 2.3-.3zm.3-4.3c-2.6 0-5.1 0-7.7 0-2.7.4-5.4.7-8.1 1.3-22.6 4.7-40.5 23.5-44 46.4-.3 1.7-.5 3.4-.7 5.2v7.7c.4 2.7.7 5.4 1.3 8.1 4.7 22.6 23.5 40.5 46.4 44 1.7.3 3.5.5 5.2.7h7.7c2.7-.4 5.4-.7 8.1-1.3 22.6-4.7 40.5-23.5 44-46.4.3-1.7.5-3.4.7-5.2 0-2.6 0-5.1 0-7.7-.4-2.7-.7-5.4-1.3-8.1-4.7-22.6-23.5-40.5-46.4-44-1.7-.3-3.5-.5-5.2-.7z" fill="#1e0a0c"/><path d="m57 96.9c2.2-2.8 4.9-5.2 5.4-8.8.2-1.7-.1-3.5-.4-5.3-.4-2.1.1-3.9 1.8-5 2.8-1.8 5.6-3.4 8.7-4.7 1.2-.5 2.8-.2 4.2.2 6.9 1.7 13.3 4.7 19.6 8 1.3.7 2.2 2.2 2.9 3.5.8 1.5.4 3-.7 4.3-5.5 7.1-12.3 12.5-20.7 15.8-16.1 6.4-31.9 5.6-47.2-2.7-6-3.3-11-7.8-15.1-13.1-1.2-1.6-1.4-3.4-.2-4.9.9-1.3 2.1-2.5 3.4-3.2 5.6-3 11.4-5.6 17.6-7.3 3-.8 5.7-.9 8.4.9 1.5 1 3.2 1.6 4.7 2.6 2.1 1.4 3.4 3.3 2.6 6-1.9 5.8 1.4 9.7 5 13.7z" fill="#63140f"/><path d="m92.1 36.1c-2.5-.3-4.6-.6-6.8-.8-2.8-.3-5.2.8-7.2 2.8-2.8 2.8-5 2.7-8.4.7-1.9-1.1-3.6-2.3-5.4-3.5-1.6-1.1-2.2-2.9-2.7-4.6-1.7-5.6-2.3-11.5-2.7-17.3-.1-1.8-.1-3.8.3-5.5.7-3 2.9-4.1 5.8-3.6 16.1 2.7 28.3 11.2 36.8 25.1 5.6 9.2 8.2 19.2 7.8 29.9-.2 5.8-1.6 11.4-3.8 16.8-.8 1.9-2.2 2.9-4.3 2.7-1.5-.2-3-.5-4.3-1.3-5.5-3.4-10.8-7.2-15.4-11.8-2-2-3.5-4.2-3.3-7.3.1-2.3-.1-4.5.1-6.8.2-2 1.4-3.4 3.4-4 .9-.3 1.8-.6 2.6-1 1.8-.7 3.2-1.8 4.1-3.5 1.2-2.2 2.2-4.4 3.4-7z" fill="#63140f"/><path d="m21.6 36.5c1.2 2.5 2.1 4.8 3.3 7 1.1 2.1 3.2 3.2 5.4 3.9 3.4 1 4.8 2.2 4.9 6.8.1 2.1-.2 4.3-.3 6.4s-1.4 3.5-2.8 4.9c-3.9 4.1-8.4 7.4-13.1 10.5-1.8 1.2-3.5 2.7-5.9 3-2.9.4-4.5-.5-5.6-3.3-5-12.9-5-25.9.4-38.5 7.4-17.5 20.3-28.7 39.2-32.5.4-.1.8-.1 1.2-.2 3.9-.6 6.6 1.4 6.5 5.5-.1 7.5-.8 15-3.2 22.2-.6 1.7-1.6 3-3.2 4-1.9 1.1-3.7 2.4-5.6 3.4-2.3 1.2-4.7 1.4-6.6-.7-3.7-4-8.3-3.7-13-2.8-.3.1-.8.2-1.6.4z" fill="#63140f"/><path d="m76 44.6v20.3c0 .7-.9 1.9-1.5 2.4-.7.6-2.3 1.5-3.2 1.5-3 0-9.1 0-12.1 0-.6 0-2-.8-2.4-1.2-.5-.5-1-1.9-1-2.5 0-2.5 0-9.5 0-9.5h4.9s-.1 4.4 0 5.8c0 .3 0 .9.2 1.1.1.2.5.5.7.5h8.2c.2 0 .9-.2 1-.4.2-.2.5-.8.5-1.1 0-2.7-.1-10.5-.1-10.5h-11v-5.2h11v-1.1h4.3.5z" fill="#ededed"/><path d="m37.4 44.6v20.5c0 .6.4 1.6.7 2.1.3.4 1.1 1.2 1.5 1.2h14.3v-6.4l-11 .1v-3.3h11v-6.6h-11.2v-7.6z" fill="#ededed"/><circle cx="65.5" cy="55.7" fill="#ededed" r="3.3"/><g fill="#adadad"><path d="m30.7 28.7-5.3.4c-.2 0-.5-.1-.5-.4l-1.4-5.1c-.1-.3.1-.6.5-.7 1.8-.1 3.5-.2 5.3-.4.2 0 .5.1.5.4.5 1.7.9 3.4 1.4 5.1.1.3-.1.7-.5.7z"/><path d="m17.7 47.1-5.3.4c-.2 0-.5-.1-.5-.4l-1.4-5.1c-.1-.3.1-.6.5-.7 1.8-.1 3.5-.2 5.3-.4.2 0 .5.1.5.4.5 1.7.9 3.4 1.4 5.1 0 .3-.2.7-.5.7z"/><path d="m33.7 44.3-6.1.4c-.3 0-.5-.2-.6-.4l-1.6-5.9c-.1-.4.2-.7.5-.8 2-.1 4.1-.3 6.1-.4.3 0 .5.2.6.4.5 2 1.1 3.9 1.6 5.9.2.4-.1.8-.5.8z"/><path d="m82.5 29 5.3.4c.2 0 .5-.1.5-.4l1.4-5.1c.1-.3-.1-.6-.5-.7-1.8-.1-3.5-.2-5.3-.4-.2 0-.5.1-.5.4-.5 1.7-.9 3.4-1.4 5.1 0 .3.2.6.5.7z"/><path d="m95.6 47.4 5.3.4c.2 0 .5-.1.5-.4l1.4-5.1c.1-.3-.1-.6-.5-.7-1.8-.1-3.5-.2-5.3-.4-.2 0-.5.1-.5.4-.5 1.7-.9 3.4-1.4 5.1 0 .3.2.7.5.7z"/><path d="m79.5 44.6 6.1.4c.3 0 .5-.2.6-.4l1.6-5.9c.1-.4-.2-.7-.5-.8-2-.1-4.1-.3-6.1-.4-.3 0-.5.2-.6.4-.5 2-1.1 3.9-1.6 5.9-.1.4.2.8.5.8z"/><path d="m46.5 93.4 3.3 4.1c.2.2.2.5 0 .7l-3.3 4.1c-.2.3-.6.3-.8 0-1.1-1.4-2.2-2.7-3.3-4.1-.2-.2-.2-.5 0-.7 1.1-1.4 2.2-2.7 3.3-4.1.2-.2.5-.2.8 0z"/><path d="m69 93.4 3.3 4.1c.2.2.2.5 0 .7l-3.3 4.1c-.2.3-.6.3-.8 0-1.1-1.4-2.2-2.7-3.3-4.1-.2-.2-.2-.5 0-.7 1.1-1.4 2.2-2.7 3.3-4.1.2-.2.6-.2.8 0z"/><path d="m57.5 81.9 3.9 4.7c.2.2.2.5 0 .8l-3.9 4.7c-.2.3-.7.3-.9 0-1.3-1.6-2.6-3.2-3.9-4.7-.2-.2-.2-.5 0-.8 1.3-1.6 2.6-3.2 3.9-4.7.2-.3.6-.3.9 0z"/></g></svg>