<?xml version="1.0" encoding="utf-8"?>
<!-- Generator: Adobe Illustrator 23.0.1, SVG Export Plug-In . SVG Version: 6.00 Build 0)  -->
<svg version="1.1" id="Capa_1" xmlns="http://www.w3.org/2000/svg" xmlns:xlink="http://www.w3.org/1999/xlink" x="0px" y="0px"
	 viewBox="0 0 538.6 538.6" style="enable-background:new 0 0 538.6 538.6;" xml:space="preserve">
<style type="text/css">
	.st0{fill:#B31917;}
	.st1{fill:#69180B;}
	.st2{fill:#EA5B12;}
</style>
<circle class="st0" cx="269.3" cy="269.3" r="269.3"/>
<circle class="st1" cx="269.3" cy="269.3" r="260"/>
<circle class="st0" cx="269.3" cy="269.3" r="249.1"/>
<circle class="st1" cx="269.3" cy="269.3" r="223.5"/>
<g>
	<path class="st2" d="M268.3,407.9c-2.2-19-4.1-36-6-52.9c-4.7-40.6-9.3-81.1-13.9-121.7c-2.2-19.5-4.6-39-6.7-58.5
		c-0.6-5.6,1.9-10.8,3.2-16.1c7.7-31.2,15.4-62.4,23.1-93.6c0.5-2,1.6-3.8,3.2-5.1c2.8,11.8,5.6,23.7,8.5,35.5
		c5.7,24,11.3,48,17.2,71.9c3,12.1-0.7,23.7-2.1,35.4c-4.7,41-10.1,81.9-15.2,122.9c-3.2,25.9-6.4,51.7-9.5,77.6
		C269.8,404.2,269.3,405.2,268.3,407.9z"/>
	<path class="st2" d="M110.7,132.9c5.3,3.3,10.6,6.6,15.9,10c16.8,10.6,33.6,21.3,50.4,31.8c2.8,1.7,4.9,4.4,5.7,7.6
		c18.2,62.4,36.5,124.7,54.8,187c0.6,2.1,1.4,4.1,0.5,6.4l-128.1-242L110.7,132.9z"/>
	<path class="st2" d="M298.8,374.6c14.8-50.1,29.5-100.2,44.2-150.3c4.2-14.1,8.3-28.3,12.4-42.5c0.6-2.8,2.4-5.2,4.8-6.8
		c21.9-13.6,43.7-27.5,65.5-41.2c0.9-0.4,1.9-0.7,2.9-1c-43.1,81.4-85.8,161.9-128.5,242.5L298.8,374.6z"/>
	<path class="st2" d="M294,458.3c-6.1,8.2-12.6,17.2-19.5,26c-2.7,3.5-6.5,4.1-9.7,0.3c-6.8-7.9-13.4-16-20-24
		c-3.7-4.4-3.6-8.7,0.1-13.3c5.9-7.4,11.3-15.2,17.1-22.7c4.5-5.9,7.2-6,12.1-0.4c6.3,7.3,12.5,14.8,18.6,22.2
		C295.3,449.7,296.7,453.3,294,458.3z"/>
	<path class="st2" d="M357,408.4c-6.1,8.2-12.6,17.2-19.5,26c-2.7,3.5-6.5,4.1-9.7,0.3c-6.8-7.9-13.4-16-20-24
		c-3.7-4.4-3.6-8.7,0.1-13.3c5.9-7.4,11.3-15.2,17.1-22.7c4.5-5.9,7.2-6,12.1-0.4c6.3,7.3,12.5,14.8,18.6,22.2
		C358.4,399.8,359.7,403.3,357,408.4L357,408.4z"/>
	<path class="st2" d="M232.1,408.4c-6.1,8.2-12.6,17.2-19.5,26c-2.7,3.5-6.5,4.1-9.7,0.3c-6.8-7.9-13.4-16-20-24
		c-3.7-4.4-3.6-8.7,0.1-13.3c5.9-7.4,11.3-15.2,17.1-22.7c4.5-5.9,7.2-6,12.1-0.4c6.3,7.3,12.5,14.8,18.6,22.2
		C233.5,399.8,234.8,403.3,232.1,408.4z"/>
</g>
</svg>
