<svg enable-background="new 0 0 113.4 113.4" viewBox="0 0 113.4 113.4" xmlns="http://www.w3.org/2000/svg"><circle cx="56.7" cy="56.7" fill="#241e1b" r="56.7"/><path d="m56.6.9c30.8 0 55.8 25 55.8 55.8s-25 55.8-55.8 55.8c-30.7 0-55.8-25-55.7-55.8 0-30.8 25-55.8 55.7-55.8zm54.9 55.6c0-30.2-24.7-54.9-55-54.7-30.6.3-54.5 24.3-54.7 55-.1 30.2 24.7 54.8 54.9 54.7 30.2 0 54.9-24.7 54.8-55z" fill="#cd0f1e"/><path d="m54.7 31.8c-.5.3-1.2.8-1.8.3-.7-.6-1.2-1.5-1-2.5.3-1.3.9-2.6 2-3.4 1.2-.9 2.1-2 2.8-3.6.6 1.8 1.8 2.8 3 3.9 1.7 1.6 2.1 3.5 1.2 5-.2.3-.4.6-.8.7-.5 0-1-.1-1.4-.4-.3-.6.4-1.1.3-1.7-.7-.3-.9.2-1 .7-.2.6-.2 1.2-.2 1.9v11.5c1.9 0 3.7.1 5.6 0 1.1 0 1.8-.8 1.8-1.7 0-1.1-.4-1.5-1.9-1.8.5-1.1 1.5-1.4 2.5-1.5.9-.1 2 .3 2.2 1.2.6 2.6 2.6 3.8 4.9 4.9-.7.5-1.3.8-1.9 1.2-1.2.7-2.2 1.6-2.6 3.1-.2 1-1 1.8-2.1 1.9-1.2.1-2.2-.3-3.1-1.4.8-.2 1.5-.3 1.9-1.1.5-1.2-.2-2.4-1.6-2.5-1.9-.1-3.7 0-5.6 0-.6 2.3.5 3.6 2.5 4.4-1.2 13.3-2.4 26.6-3.6 39.9-.1 0-.2 0-.3 0-1.2-13.3-2.4-26.6-3.6-39.9 1.8-.9 3.1-2.1 2.5-4.4-1.9 0-3.9-.1-5.8 0-.8 0-1.5.6-1.5 1.5-.1.9.4 1.6 1.3 1.8.2.1.4.1.7.2-.8 1.1-1.7 1.5-2.9 1.4-1-.1-1.9-.7-2.1-1.6-.5-2.2-2.2-3.2-4-4.2-.2-.1-.4-.2-.5-.5.7-.4 1.3-.8 2-1.2 1.1-.7 2-1.5 2.3-2.9.3-1.1 1.1-1.9 2.3-2 1.1-.1 2.2.3 2.8 1.3-.1.3-.4.2-.6.3-.8.2-1.2.7-1.3 1.5s.3 1.4 1 1.7c.5.2 1 .3 1.5.3h4.8c.3-.3.2-.6.2-.9 0-3.8 0-7.6 0-11.4 0-.7.1-1.6-.8-2-.8.8 0 1.3-.1 2z" fill="#df031b"/><path d="m57.9 85.2c.1-.9.2-1.6.2-2.3.4-.3.8-.1 1.2-.1h17.5c3.3 0 5.4-2 5.4-5.3 0-13.5 0-27.1 0-40.6 0-2.8-2.2-5-5-5.1-4.8 0-9.5 0-14.3 0-.4 0-.8 0-1.3 0 .4-.8.4-1.6.4-2.4.4-.3.8-.2 1.2-.2h16.2c3.2 0 5.4 2.1 5.4 5.4v45.6c0 2.9-2.2 5.2-5.2 5.2-6.9 0-13.8 0-20.8 0-.3-.2-.6-.2-.9-.2z" fill="#dc041b"/><path d="m54.9 82.7c.3.8.4 1.6.3 2.4-.4.3-.8.1-1.2.1-6.7 0-13.3 0-20 0-3.4 0-5.5-2.1-5.5-5.5 0-15 0-30 0-45 0-3.6 2.1-5.7 5.6-5.7h15.7 1.2c-.1.9.1 1.7.4 2.5-.7 0-1.3 0-1.9 0-4.4 0-8.9 0-13.3 0-3.1 0-5.2 2.1-5.2 5.2v40.6c0 3.1 2.1 5.2 5.2 5.2h17.3c.6.2 1 .2 1.4.2z" fill="#dc041b"/><g fill="#fff"><path d="m15.2 71.7.7 1.7-1.9.8 1.6 3.6 1.9-.8.7 1.7-5.2 2.3-.7-1.7 1.9-.8-1.6-3.7-1.9.8-.7-1.7z"/><path d="m18.7 82.1c.4.6.6 1 .8 1.3.1.3.2.6.2.8s-.1.5-.3.7-.5.4-.9.7c-.3.2-.6.3-.7.4-.2.1-.3.1-.5.2-.4.1-.8 0-1.1-.3s-.6-.8-1.1-1.5c-.4-.6-.7-1.1-.8-1.4s-.2-.6-.2-.8.1-.5.3-.6c.2-.2.5-.4 1-.8.3-.2.5-.3.7-.4s.3-.1.5-.1c.3 0 .6.1.9.3s.7.7 1.2 1.5zm-.9.6c-.3-.4-.5-.7-.6-.8-.2-.1-.3-.1-.5-.1-.1 0-.3.1-.6.3-.2.1-.4.3-.4.4-.1.1-.1.2-.1.4s.2.5.5.9c.3.5.6.8.7.8.2.1.5 0 .8-.2.2-.1.4-.3.5-.4s.1-.2.1-.4-.2-.5-.4-.9z"/><path d="m20.5 84.9.9 1.1-.5.4.1.1c.3-.1.6 0 .8.1.3.1.5.4.9.7.3.4.5.7.7.9s.2.5.1.8c0 .3-.1.5-.2.7s-.4.5-.8.8l-1.4 1.2-1-1.2 1.4-1.2c.2-.2.4-.4.5-.5s.1-.2.1-.3c0-.2-.2-.5-.5-.9s-.6-.6-.9-.6c-.1 0-.3 0-.4.1s-.3.2-.6.5l-1.2 1.1-1-1.2z"/><path d="m26.6 91.3c.5.5.9.8 1.1 1.1s.4.5.4.7c.1.2 0 .5-.1.7s-.3.5-.7.9c-.2.3-.4.5-.6.6-.1.1-.3.2-.4.3-.4.2-.7.2-1.1 0-.3-.2-.8-.6-1.5-1.1-.6-.5-1-.9-1.2-1.1-.2-.3-.3-.5-.4-.8 0-.2 0-.5.1-.7s.4-.6.8-1c .2-.3.4-.4.5-.5s.3-.2.4-.3c.3-.1.6-.1 1 .1.6.1 1.1.5 1.7 1.1zm-.7.9c-.4-.3-.7-.5-.8-.6-.1 0-.3 0-.4 0-.1.1-.3.2-.5.4s-.3.4-.3.5v.4c.1.2.3.5.7.8.4.4.7.6.9.6s.4-.1.7-.5c.2-.2.3-.4.3-.5s0-.3 0-.4c0-.2-.3-.4-.6-.7z"/><path d="m29.1 93.6 1.2.8-.3.5h.1c.3-.1.5-.2.8-.1.3 0 .6.2.9.4.5.3.8.7.8 1 .1.3-.1.8-.4 1.3 0 0-.1.1-.2.2l-1.2-.8c.1-.2.2-.3.2-.5s-.1-.4-.4-.6-.6-.3-.8-.2c-.1 0-.2.1-.3.2s-.2.3-.4.5l-1 1.4-1.2-.9z"/><path d="m35.5 100.7 1.3.7c-.2.4-.5.6-.8.7s-.6 0-.9-.1-.8-.3-1.5-.7c-.5-.3-.9-.5-1.2-.7s-.4-.4-.5-.6-.1-.5-.1-.7c.1-.3.2-.6.4-1.1.2-.3.3-.6.4-.8s.2-.3.4-.4c.3-.2.6-.3 1.1-.2.4.1.9.3 1.6.7.6.3 1 .6 1.2.7.4.3.6.6.6 1 0 .3-.1.8-.4 1.4 0 .1-.1.2-.2.4l-3.5-1.8c-.1.2-.2.3-.2.4v.3c.1.2.4.4.8.6.3.2.5.3.7.3.2.1.3.1.4 0 .2 0 .3 0 .4-.1zm.6-1.1c.1-.1.1-.2.1-.3s0-.1 0-.2c-.1-.2-.3-.4-.8-.7-.5-.2-.8-.4-1-.4s-.4.1-.5.4z"/><path d="m38.6 99.3 1.4.4-.2.6h.1c.4-.4.9-.4 1.8-.2.5.2.8.3 1 .5s.4.5.4.8c.2-.2.5-.4.8-.4s.7 0 1.2.2c.4.1.7.3.9.4.2.2.4.4.5.6s.2.5.1.7c0 .2-.1.6-.3 1.1l-.6 1.8-1.4-.5.6-1.8c.1-.3.1-.5.2-.6 0-.1 0-.2 0-.3-.1-.2-.3-.3-.7-.5-.4-.1-.7-.1-.9 0-.1.1-.2.2-.3.3s-.2.4-.3.7l-.5 1.6-1.4-.5.6-1.8c.1-.3.2-.5.2-.6s0-.2 0-.3c-.1-.2-.3-.3-.7-.5-.4-.1-.8-.2-1-.1-.1.1-.2.2-.3.3s-.2.4-.3.7l-.5 1.6-1.4-.5z"/><path d="m50 100.7 1.8.2-.8 5.7-1.8-.2z"/><path d="m52.2 102.7 1.4.1v.6h.1c.1-.3.4-.4.6-.5.3-.1.6-.1 1.1-.1s.9.1 1.1.2c.3.1.5.2.7.4s.3.4.3.6.1.6 0 1.2l-.1 1.8-1.5-.1.1-1.8c0-.3 0-.5 0-.7 0-.1-.1-.2-.1-.3-.1-.1-.5-.2-1-.3-.5 0-.9.1-1.1.2-.1.1-.2.2-.2.4 0 .1-.1.4-.1.8l-.1 1.6-1.5-.1z"/><path d="m58.3 103 1.4-.2.1.6h.1c.2-.5.7-.8 1.5-.9.5-.1.9-.1 1.2 0s .6.3.8.6c.1-.3.2-.6.5-.7.3-.2.6-.3 1.1-.4.4-.1.8-.1 1 0 .3 0 .5.1.7.3s.3.3.4.6c.1.2.2.6.2 1.1l.3 1.9-1.5.2-.3-1.9c0-.3-.1-.5-.1-.6s-.1-.2-.2-.3c-.2-.1-.5-.2-.9-.1s-.7.2-.9.4c-.1.1-.1.2-.1.4v.7l.2 1.7-1.5.2-.3-1.9c0-.3-.1-.5-.1-.6s-.1-.2-.2-.2c-.2-.1-.4-.2-.9-.1s-.7.2-.9.4c-.1.1-.1.2-.1.4s0 .4 0 .7l.2 1.7-1.5.2z"/><path d="m69.5 102.3-1.4.5c-.1-.3-.1-.6 0-.7.1-.3.3-.6.6-.8s.9-.4 1.8-.7c.6-.2 1.1-.3 1.3-.3s.5 0 .7.1.3.2.4.4.2.4.3.8l.7 2.3-1.4.4-.2-.5h-.1c0 .3-.2.5-.4.6-.1.1-.3.2-.5.3s-.6.2-1 .4c-.4.1-.7.2-.9.2s-.4 0-.6-.1-.4-.4-.6-.8c-.1-.5-.1-.8 0-1.1.1-.2.3-.4.6-.5s.8-.3 1.6-.6c.3-.1.6-.2.7-.2.2 0 .3 0 .5.1h.1l-.1-.2c-.1-.3-.2-.5-.3-.5s-.4 0-.9.1c-.5.2-.8.3-.9.4zm1.3.7c-.5.2-.8.3-.9.4s-.2.2-.1.4c0 .2.2.2.3.3.2 0 .4 0 .8-.2.5-.2.8-.3 1-.4s.2-.3.2-.4c0-.2-.2-.2-.3-.2-.1-.1-.4-.1-1 .1z"/><path d="m77.9 100.3 1.4-.6c.1.3.2.6.2.7 0 .2 0 .4-.1.5-.1.3-.3.5-.5.7-.3.2-.8.5-1.5.8-.6.3-1 .4-1.3.5s-.6.1-.8.1-.4-.2-.6-.4-.4-.5-.6-1c-.2-.4-.3-.8-.4-1s0-.5.1-.7.3-.4.6-.6.7-.4 1.3-.7 1.1-.5 1.4-.6.6-.1.9 0c .2.1.4.1.5.3.1.1.3.4.5.7l-1.4.6c-.1-.2-.3-.3-.5-.3s-.5.1-.9.3-.7.4-.8.5-.1.2-.1.4c0 .1.1.3.2.6.1.2.2.4.3.5s.2.1.4.1.5-.1.9-.3.7-.4.8-.5c0-.2 0-.4 0-.6z"/><path d="m85.5 97.7-1.2.8-.3-.5h-.1c0 .3 0 .5-.2.8-.2.2-.5.5-.9.8s-.7.4-1 .5-.5.1-.8 0-.5-.2-.6-.3c-.2-.2-.4-.5-.7-.9l-1-1.6 1.3-.8 1 1.6c.2.3.3.4.4.5s.2.1.3.2h.4c.1 0 .3-.1.6-.3.4-.3.7-.5.7-.7 0-.1 0-.3 0-.4s-.2-.4-.4-.7l-.9-1.4 1.3-.8z"/><path d="m82.8 92.5 1.2-.9 3.5 4.5-1.2.9z"/><path d="m87.5 92.4-1.1 1c-.2-.2-.3-.5-.3-.7 0-.3 0-.6.3-1 .2-.3.7-.8 1.3-1.4.5-.5.8-.7 1.1-.9.2-.1.4-.2.7-.2.2 0 .4.1.5.2.2.1.4.3.6.6l1.7 1.8-1.1 1-.4-.4h-.1c.1.2.1.5 0 .7-.1.1-.2.3-.3.5-.2.2-.4.4-.8.8-.3.3-.5.5-.7.6s-.4.2-.6.2c-.3 0-.6-.2-.8-.5-.3-.3-.5-.7-.4-1 0-.2.1-.5.3-.7l1.2-1.2c.3-.2.5-.4.6-.5s.3-.1.5-.1l-.1-.2c-.2-.2-.4-.3-.5-.3s-.4.2-.7.5c-.4.4-.6.6-.7.7-.3.2-.3.4-.2.5zm1.5.1c-.4.3-.6.6-.6.7-.1.2 0 .3.1.4s.2.2.4.1c.1-.1.4-.2.7-.5.4-.4.6-.6.7-.8s.1-.3 0-.5c-.1-.1-.2-.1-.4-.1-.2.1-.5.3-.9.7z"/><path d="m89.4 87.5 1-1.2.7.6 1.5-1.8.8.7-1.5 1.8.9.8c.2.2.4.3.5.3.2 0 .3-.1.5-.3s.3-.4.2-.5c0-.1-.1-.1-.1-.1s-.1-.1-.3-.3l.9-1.1.6.6c.1.1.2.3.2.5s0 .5-.1.7-.3.6-.7 1c-.3.4-.6.6-.8.8-.2.1-.4.2-.6.2s-.3 0-.4 0-.3-.1-.5-.3c-.1 0-.2-.2-.5-.4l-.9-.8-.5.6-.8-.7.5-.6z"/><path d="m99.4 82.4-.8 1.2-.5-.3v.1c.2.2.2.5.1.8s-.2.6-.5 1.1c-.3.4-.5.7-.7.9s-.5.3-.7.4c-.3 0-.5 0-.7 0-.2-.1-.6-.3-1-.6l-1.6-1 .8-1.3 1.5 1c .2.2.4.3.6.3.1 0 .2.1.4 0 .1 0 .2-.1.3-.2s.2-.3.4-.5c.3-.4.4-.7.4-1 0-.1-.1-.3-.2-.4s-.3-.3-.6-.5l-1.4-.9.8-1.3z"/><path d="m96.4 79.7.6-1.3.6.2v-.1c-.3-.4-.3-1 0-1.8.2-.4.4-.8.7-1 .2-.2.5-.3.9-.4-.2-.2-.3-.5-.4-.8s.1-.7.3-1.1.3-.7.5-.9.4-.4.6-.4c.2-.1.5-.1.7-.1s.6.2 1.1.4l1.7.8-.6 1.4-1.7-.8c-.3-.1-.5-.2-.6-.2s-.2 0-.3 0c-.2.1-.4.3-.5.7-.2.4-.2.7-.1.9.1.1.1.2.3.3.1.1.3.2.6.3l1.5.7-.6 1.4-1.7-.8c-.3-.1-.5-.2-.6-.2s-.2 0-.3 0c-.2.1-.4.3-.5.7-.2.4-.2.7-.1 1 0 .1.1.2.3.3.1.1.3.2.7.3l1.5.7-.6 1.4z"/><path d="m7.1 46.7.5-1.7 2 .6.3-.9-1.4-2.8.8-2.6 1.8 4 3.8-2.6-.7 2.5-2.8 1.8-.3.9 2.1.6-.5 1.7z"/><path d="m9.7 38.2 1.4-2.7 5.2-.7.1-.2-3.8-1.9.8-1.6 5.1 2.6-1.4 2.7-5.2.8-.1.1 3.8 1.9-.8 1.5z"/><path d="m14.2 30 1-1.5 4.7 3.2-1 1.5z"/><path d="m20 26.3 2.6-3c .1.1.1.1.1.1.6.5 1.1.9 1.3 1.2.5.5.5 1 .2 1.6-.1.3-.3.5-.6.8-.2.3-.6.7-1.1 1.3-.6.7-1.1 1.3-1.4 1.5-.3.3-.6.5-.9.5-.2.1-.4.1-.6 0-.2 0-.4-.1-.6-.3-.2-.1-.6-.5-1.2-1-.4-.3-.7-.6-.9-.8s-.3-.4-.4-.6c-.2-.4-.2-.9.1-1.3.3-.5.9-1.2 1.6-2.1.5-.5.9-1 1.2-1.3s.6-.5.8-.7c.4-.2.8-.3 1.2 0 .2.1.5.3.8.6l-1.1 1.3c-.1-.1-.2-.2-.3-.2s-.1 0-.2 0-.3.2-.5.4-.5.5-.8.9c-.4.5-.7.8-.8 1s-.2.4-.2.5.1.3.2.4.3.4.7.6c.4.3.6.5.8.6s.3.1.4.1.2-.1.3-.2.4-.5 1-1.1c.5-.6.8-1 .9-1.1s.2-.3.2-.4 0-.2 0-.3-.1-.2-.2-.3l-.1-.1-1.5 1.7z"/><path d="m21.8 20.7 1.4-1.2 1.3 1.6 3.1-2.5-1.3-1.6 1.4-1.2 3.6 4.4-1.5 1.3-1.3-1.6-3.1 2.5 1.3 1.6-1.4 1.2z"/><path d="m28.6 15.3 6-3.4.7 1.3-2.2 1.3 2.1 3.7-1.6.9-2.1-3.7-2.2 1.3z"/><path d="m36.9 15 1.6-.6c.1.3.2.4.4.4h.3s.5-.2 1.2-.4c.7-.3 1.1-.4 1.2-.5s.2-.1.3-.2.1-.3 0-.5-.1-.3-.2-.3-.3 0-.6.1c-.2.1-.6.2-1.3.4s-1.1.4-1.3.4c-.4.1-.7.2-.9.2s-.4 0-.6-.1c-.3-.2-.5-.5-.7-1-.2-.6-.3-1.1-.1-1.4.1-.3.3-.5.7-.7.3-.2 1.1-.5 2.2-.9.8-.3 1.3-.5 1.7-.6.5-.1.9-.1 1.2 0s .5.4.7.9c0 0 0 .1.1.3l-1.6.6c-.1-.1-.1-.2-.2-.3 0 0-.1-.1-.2-.1s-.2 0-.4.1-.6.2-1.1.4c-.7.3-1.1.4-1.2.5s-.2.2-.1.4.2.3.4.3c.1 0 .7-.2 1.8-.6l1.8-.6s.6-.1.8-.1.4.2.6.3c.2.2.3.5.5.8.2.5.3.9.2 1.2 0 .2-.1.4-.3.6-.1.2-.4.3-.7.5s-1 .4-2 .8c-.8.3-1.4.5-1.8.6s-.7.1-.9.1-.4-.1-.6-.3c-.1-.2-.3-.4-.4-.8z"/><path d="m49.4 7.3c1.2-.2 2.1-.3 2.5-.3.7 0 1.1.2 1.3.8.2.4.3 1 .4 1.9s.2 1.5.1 1.9c-.1.6-.4.9-1.1 1.1-.5.1-1.3.3-2.5.5s-2.1.3-2.5.3c-.7 0-1.1-.2-1.3-.8-.2-.4-.3-1-.4-1.9s-.1-1.5-.1-1.9c.1-.6.4-.9 1.1-1.1.5-.1 1.3-.3 2.5-.5zm.2 1.5c-.9.1-1.5.2-1.6.3-.2.1-.3.2-.4.4 0 .2 0 .6.1 1.2 0 .3.1.6.2.7.1.3.3.4.7.4.3 0 .8-.1 1.5-.2s1.2-.2 1.4-.2c.2-.1.4-.1.5-.2s.1-.2.2-.4c0-.2 0-.4-.1-.7-.1-.4-.1-.7-.2-.9s-.1-.3-.2-.4-.3-.2-.5-.2c-.3 0-.8.1-1.6.2z"/><path d="m54.7 6.9 6 .1v1.3l-4.3-.1v1.1l4.1.1v1.3l-4.1-.1v2h-1.7z"/><path d="m63.1 11.1 1.6.4c-.1.3 0 .5.1.6s.2.1.3.2c.1 0 .5.1 1.2.3s1.2.2 1.3.3h.4c.1 0 .2-.2.3-.4 0-.2 0-.3-.1-.4s-.2-.3-.5-.3c-.2 0-.7-.2-1.3-.3-.7-.2-1.1-.3-1.3-.4-.4-.1-.7-.2-.9-.3s-.4-.3-.4-.4c-.2-.3-.2-.7-.1-1.3s.4-1 .6-1.3c.2-.2.5-.2.9-.2s1.2.2 2.3.4c.8.2 1.4.3 1.7.4.5.2.8.4 1 .7.1.3.2.6.1 1.1 0 0 0 .1-.1.3l-1.6-.4c0-.2 0-.3 0-.3 0-.1 0-.1-.1-.2s-.2-.1-.4-.2-.6-.1-1.2-.3c-.7-.2-1.2-.2-1.3-.2-.2 0-.3.1-.3.3s0 .3.2.4c.1.1.7.2 1.8.5.9.2 1.5.4 1.8.5s.5.2.7.4.3.4.3.6 0 .5-.1 1-.3.9-.5 1.1c-.1.2-.3.3-.5.3-.2.1-.5.1-.8 0-.4 0-1.1-.2-2.1-.4-.8-.2-1.5-.3-1.8-.5-.4-.1-.7-.3-.9-.4-.2-.2-.3-.4-.3-.6s0-.5.1-.9z"/><path d="m75.7 16.8-.1-1.1-3.5-1.4-.8.7-1.8-.7 4.9-4.2 2.5 1 .6 6.4zm-.2-2.5-.2-2.4-.3-.1-1.8 1.6z"/><path d="m80.6 12.8 2.6 1.6.2 5.2.2.1 2.3-3.6 1.5 1-3.1 4.8-2.5-1.6-.2-5.2-.2-.1-2.3 3.6-1.5-1z"/><path d="m88.2 17.8 5.1 4.7-1 1.1-1.9-1.7-2.9 3.1-1.4-1.2 2.9-3.1-1.9-1.7z"/><path d="m93.8 23.1 1.2 1.4-4.3 3.8-1.2-1.4z"/><path d="m94.8 33.8.5-1-2.2-3.1-1.1.2-1.1-1.6 6.4-.8 1.5 2.2-3 5.7zm1.2-2.2 1.1-2.1-.2-.3-2.4.3z"/><path d="m100.3 37.2 1.7 3.6c-.1 0-.1.1-.1.1-.7.3-1.3.6-1.7.7-.6.2-1.1 0-1.6-.5-.2-.2-.4-.5-.5-.9-.2-.3-.4-.9-.8-1.6-.4-.9-.7-1.5-.8-1.9s-.2-.7-.1-1c0-.2.1-.4.2-.5.1-.2.3-.3.5-.4s.7-.4 1.4-.7c.5-.2.8-.4 1.1-.5s.5-.1.7-.2c.5 0 .9.2 1.2.6.3.5.8 1.3 1.3 2.4.3.7.5 1.2.7 1.6.1.4.2.7.3 1 .1.5-.1.8-.5 1.1-.2.1-.5.3-.8.5l-.7-1.6c.1-.1.2-.1.3-.2 0 0 .1-.1.1-.2s0-.3-.1-.6-.3-.7-.5-1.2c-.3-.5-.4-.9-.6-1.2-.1-.2-.3-.4-.4-.4-.1-.1-.3-.1-.4 0-.2 0-.5.2-.8.3-.4.2-.7.4-.9.5s-.3.2-.3.3 0 .2 0 .4c0 .1.2.6.6 1.3.3.7.5 1.1.6 1.3s.2.3.2.3c.1.1.1.1.2.1s.2 0 .4-.1c0 0 .1 0 .1-.1l-1-2.1z"/><path d="m105.7 44.8c.3 1.2.5 2 .5 2.5.1.7-.1 1.1-.6 1.4-.3.2-.9.4-1.8.6s-1.5.3-1.9.3c-.6 0-1-.3-1.2-1-.2-.4-.4-1.2-.7-2.4s-.5-2-.6-2.5c-.1-.7.1-1.1.6-1.4.3-.2.9-.4 1.8-.6.8-.2 1.5-.3 1.8-.3.6 0 1 .3 1.2 1 .4.4.6 1.2.9 2.4zm-1.4.4c-.2-.9-.4-1.4-.5-1.6s-.3-.3-.5-.3-.6 0-1.1.2c-.3.1-.6.2-.7.2-.3.1-.4.4-.3.7 0 .3.1.8.3 1.5s.3 1.1.4 1.3.2.4.3.5.2.1.4.1.4 0 .7-.1c.4-.1.7-.2.9-.3s.3-.2.4-.3.1-.3.1-.5c-.1-.1-.2-.6-.4-1.4z"/></g></svg>