<svg enable-background="new 0 0 113.4 113.4" viewBox="0 0 113.4 113.4" xmlns="http://www.w3.org/2000/svg"><circle cx="56.7" cy="56.7" fill="#050405" r="56.7"/><circle cx="56.7" cy="56.7" fill="#fff" r="45.6"/><path d="m47.1 38.2h-4.6v-4.6h-4.6v4.6h-4.6v4.5h4.6v4.6h4.6v-4.6h4.6z" fill="#c2091e"/><path d="m80 38.2h-4.6v-4.6h-4.6v4.6h-4.6v4.5h4.6v4.6h4.6v-4.6h4.6z" fill="#c2091e"/><path d="m47.1 70.6h-4.6v-4.6h-4.5v4.6h-4.6v4.6h4.6v4.6h4.5v-4.6h4.6z" fill="#c2091e"/><path d="m80 70.6h-4.6v-4.6h-4.5v4.6h-4.6v4.6h4.6v4.6h4.5v-4.6h4.6z" fill="#c2091e"/><path d="m94.4 70.6v-27.9h-9.2v9.4h-23.9v-23.9h9.3v-9.2h-27.9v9.2h9.4v23.9h-23.9v-9.4h-9.2v27.9h9.2v-9.3h23.9v23.9h-9.4v9.2h27.9v-9.2h-9.3v-23.9h23.9v9.3z" fill="#c2091e"/><g fill="#fff"><path d="m30.9 104.2 2.4-5.3 3.8 1.7c.7.3 1.1.5 1.3.6s.4.2.6.4c.5.3.7.8.6 1.4 0 .2-.1.4-.2.6s-.2.5-.4 1-.4.8-.5 1.1c-.1.2-.3.4-.4.6-.4.4-.8.5-1.4.4-.3-.1-.5-.1-.8-.2s-.7-.3-1.3-.6zm2.2-.7 2.2 1c .4.2.7.3.9.4s.4.1.5 0c .1 0 .2-.1.3-.3.1-.1.2-.4.4-.7.1-.3.2-.6.3-.8 0-.2 0-.3 0-.5 0-.1-.1-.3-.3-.4s-.5-.3-1-.5l-2.2-1z"/><path d="m43.1 107.5 1.5.4c-.2.4-.4.7-.7.8-.2.1-.5.1-.9.1s-.9-.2-1.6-.4c-.6-.2-1-.3-1.3-.5-.3-.1-.5-.3-.6-.5s-.2-.4-.2-.7.1-.6.2-1.1c.1-.4.2-.7.3-.8.1-.2.2-.3.3-.5.2-.3.6-.4 1-.4s.9.1 1.7.4c.7.2 1.1.4 1.4.5.5.2.7.5.8.8s.1.8-.1 1.5c0 .1-.1.2-.1.4l-3.9-1.1c-.1.2-.1.3-.1.4s0 .2.1.3c.1.2.4.3.9.5.3.1.6.2.8.2s.3 0 .4 0c0-.1.1-.2.1-.3zm.4-1.2c0-.2.1-.3.1-.3 0-.1 0-.1 0-.2-.1-.2-.4-.3-1-.5-.5-.1-.8-.2-1-.2s-.3.2-.4.5z"/><path d="m50.7 110.3-1.4-.2.1-.6h-.1c-.2.2-.4.4-.7.5s-.7.1-1.2 0-.8-.2-1.1-.3-.5-.3-.6-.5c-.2-.2-.2-.4-.3-.7 0-.2 0-.6.1-1.2l.3-1.9 1.5.2-.3 1.9c0 .3-.1.5-.1.6s0 .2.1.3.2.2.3.2c.1.1.3.1.6.2.5.1.8.1 1-.1.1-.1.2-.2.3-.3s.1-.4.2-.8l.3-1.6 1.5.2z"/><path d="m51.8 109.1 1.6.1c0 .2.1.3.3.4s.5.1 1 .1.8 0 1 0 .3-.1.3-.3c0-.1-.1-.2-.2-.3-.1 0-.5-.1-1.3-.1-.7 0-1.2-.1-1.4-.1-.5-.1-.8-.3-1-.5-.1-.2-.2-.4-.2-.8 0-.6.3-1 .7-1.2.3-.1 1.1-.2 2.2-.1.7 0 1.2.1 1.5.1.3.1.6.2.7.3s.2.2.2.3.1.3.1.6l-1.6-.1c0-.1-.1-.2-.1-.2-.1-.1-.4-.1-1-.2-.5 0-.8 0-1 0s-.3.1-.3.3.1.3.4.3c.2 0 .9.1 2.1.1.6 0 1 .1 1.2.3.3.2.4.5.4 1 0 .3-.1.6-.2.8s-.3.3-.5.4c-.4.2-1.1.2-2.3.2-.8 0-1.3-.1-1.6-.2s-.6-.2-.8-.4c-.2 0-.3-.3-.2-.8z"/><path d="m59.5 104.9 1.9-.3 2.7 4h .3l1.4-4.6 1.9-.3-2 6.1-2.7.4z"/><path d="m74.3 107.7-1.4.4-.2-.6h-.1c0 .3-.2.5-.4.7s-.6.3-1.1.5c-.5.1-.8.2-1.1.2s-.6-.1-.8-.2-.4-.3-.5-.5-.3-.6-.4-1.1l-.5-1.8 1.5-.4.5 1.8c.1.3.2.5.2.6s.1.2.3.3c.1.1.2.1.4.1.1 0 .4-.1.6-.1.5-.1.8-.3.9-.5.1-.1.1-.3.1-.4 0-.2-.1-.4-.2-.8l-.5-1.6 1.5-.4z"/><path d="m73.2 101.8 1.4-.5 2.1 5.4-1.4.5z"/><path d="m75.8 101.6 1.4-.6.4.9 2.2-1 .5 1-2.2 1 .5 1.1c.1.3.2.5.3.5.1.1.3.1.6 0s .4-.3.4-.4 0-.1 0-.2-.1-.2-.2-.4l1.3-.6c.2.4.3.6.3.8v.5c-.1.2-.2.5-.4.6-.2.2-.6.4-1 .6s-.8.3-1 .4-.5 0-.7 0c-.1 0-.3-.1-.4-.2s-.2-.2-.3-.4c0-.1-.1-.3-.3-.6l-.5-1.1-.7.3-.5-1 .7-.3z"/><path d="m20.6 95.2-3.5-3.6.8-.7 2.5 2.6.5-.5-2.4-2.5.7-.7 2.4 2.5.5-.5-2.5-2.6.8-.8 3.5 3.6z"/><path d="m15.3 83.5 1.1-.2v.5c.2.1.5.2.7.4s.6.7 1.2 1.5c.6.7.9 1.3 1.1 1.6.3.5.3.9 0 1.2-.2.2-.6.6-1.1 1-.6.4-1 .7-1.3.8-.4.2-.8.1-1.2-.3-.3-.3-.7-.8-1.3-1.5-.6-.8-1-1.3-1.2-1.6-.3-.5-.3-.9 0-1.2.1-.1.2-.3.4-.4s.4-.3.7-.6.6-.5.8-.6zm.5 3.8-.1-1.6c-.1 0-.1.1-.1.1-.3.2-.4.3-.5.5-.1.1-.2.2-.2.3s0 .2.1.4c.1.1.3.5.7 1 .4.6.7.9.8 1s .3.1.4.1c.2-.1.4-.2.8-.5.2-.2.4-.3.4-.4.1-.1.1-.2.1-.3s0-.3-.1-.4c-.1-.2-.3-.5-.7-.9-.3-.5-.6-.8-.7-.9l.3 1.6z"/><path d="m12.2 85.2-.7-1.2 1.8-1c .4-.2.7-.4.8-.5s.2-.3.1-.5c0-.2-.2-.5-.5-1.1-.2-.4-.4-.7-.5-.8s-.2-.2-.3-.3c-.1 0-.2 0-.2 0s-.2.1-.4.2-.3.2-.4.2l-1.8 1-.7-1.2 1.8-1c .6-.3 1.1-.6 1.3-.6.4-.1.7-.1 1 .1.2.1.4.3.5.5.2.3.5.7.8 1.3.3.5.5.8.6 1.1s.2.5.3.7c.1.5 0 .9-.3 1.2-.1.1-.3.2-.4.3s-.4.3-.9.5z"/><path d="m8.9 79.2-1.9-4.6 1-.4 1.4 3.3.6-.3-1.3-3.2.9-.4 1.3 3.2.7-.3-1.4-3.4 1-.4 1.9 4.6z"/><path d="m9.7 73.2-.4-1.3c.2-.1.3-.1.4-.2 0-.1 0-.2 0-.3s-.1-.4-.3-1-.3-.9-.3-1-.1-.2-.1-.3c-.1-.1-.2-.1-.4-.1-.1 0-.2.1-.2.2s0 .2.1.4c0 .2.1.5.3 1 .1.5.2.9.3 1.1.1.3.1.6.1.8s0 .3-.1.5-.4.4-.9.5-.9.1-1.1 0-.4-.3-.5-.6-.3-.9-.6-1.8c-.2-.6-.3-1.1-.3-1.4-.1-.4 0-.7.1-.9s.4-.4.8-.5c0 0 .1 0 .2-.1l.4 1.3c-.3.3-.4.3-.4.4l-.1.1v.3c0 .1.1.5.3.9.2.6.3.9.3 1 .1.1.2.1.3.1.2 0 .2-.1.2-.3 0-.1-.1-.6-.3-1.4-.2-.7-.3-1.2-.3-1.4s0-.4 0-.6.1-.3.3-.4c.1-.1.4-.2.7-.3.4-.1.7-.2 1-.1.2 0 .3.1.4.2s.2.3.3.6.3.8.5 1.6c.2.6.3 1.1.4 1.5.1.3.1.6 0 .8 0 .2-.1.3-.3.4-.1.1-.4.2-.8.3z"/><path d="m5.1 68.1-.9-5.3 1.1-.2.3 2 3.3-.6.2 1.4-3.3.6.3 2z"/><path d="m8.6 61.9-4.5.2-.1-3.3c0-.8-.1-1.2 0-1.4s.1-.3.1-.5c.1-.2.2-.3.4-.4s.5-.1.8-.1.6 0 .7 0 .3.1.4.2.2.3.2.5c0-.3.1-.5.2-.6s.2-.1.3-.2c.1 0 .4 0 .8-.1h.4l.1 1.3h-.2c-.3 0-.4 0-.5.1-.1 0-.2.1-.2.1 0 .1-.1.1-.1.2s0 .3 0 .6l.1 1.9 1.1-.1zm-2.3-1.3-.1-1.9c0-.3 0-.5 0-.6s0-.1-.1-.2c0-.1-.1-.1-.2-.1s-.2 0-.3 0-.3 0-.3.1c-.1 0-.1.1-.2.2v.2s0 .3 0 .6l.1 1.9z"/><path d="m3.9 55.8v-1.4l4.5.1v1.4z"/><path d="m6.9 53.9.1-1.3c.2 0 .4 0 .4-.1s.1-.1.1-.2.1-.4.1-1c .1-.6.1-.9.1-1s0-.2 0-.3-.1-.2-.3-.2c-.1 0-.2 0-.3.1s-.1.2-.1.4-.1.5-.2 1.1-.1.9-.2 1.1c0 .3-.1.6-.2.7-.1.2-.2.3-.3.4-.2.1-.5.2-1 .1s-.8-.2-1-.4c-.1-.2-.2-.4-.2-.7s0-.9.1-1.9c.1-.7.1-1.1.2-1.4.1-.4.2-.7.4-.8s.5-.2.9-.1h.2l.1 1.3c-.1 0-.2 0-.3 0 0 0-.1 0-.1.1s-.1.2-.1.3-.1.5-.1.9c-.1.6-.1.9-.1 1.1 0 .1.1.2.3.2s.3 0 .3-.2c0-.1.1-.6.2-1.4.1-.7.2-1.2.2-1.4.1-.2.1-.4.2-.6s.3-.3.4-.3c.2 0 .4-.1.7 0 .4 0 .7.1.9.3.1.1.2.2.3.4s.1.4.1.7-.1.8-.1 1.6c-.1.7-.1 1.2-.2 1.5s-.2.6-.3.7c-.1.2-.3.3-.4.3-.2 0-.4.1-.8 0z"/><path d="m5.8 42.5c.3-.9.5-1.6.6-1.9.2-.5.5-.7 1-.7.3 0 .8.1 1.5.3s1.1.4 1.4.5c.4.2.5.6.5 1.1-.1.4-.2 1-.5 1.9s-.5 1.6-.6 1.9c-.2.5-.5.7-1 .7-.3 0-.8-.1-1.5-.3s-1.1-.4-1.4-.5c-.4-.2-.5-.6-.5-1.1.1-.3.2-.9.5-1.9zm1.1.4c-.2.7-.3 1.1-.3 1.3s.1.3.2.4.4.2.9.3c.3.1.5.1.6.1.2 0 .4-.1.5-.4.1-.2.2-.6.4-1.1.1-.5.2-.9.3-1.1 0-.2 0-.3 0-.4s-.1-.2-.2-.2c-.1-.1-.3-.1-.6-.2s-.5-.1-.7-.2c-.2 0-.3 0-.4 0s-.2.1-.3.3-.2.5-.4 1.2z"/><path d="m11.2 40.4-4.1-1.7 1.3-3c .3-.7.5-1.1.6-1.3.1-.1.2-.3.3-.3.2-.1.3-.2.5-.2s.5.1.8.2.5.2.6.3.2.2.3.4v.6c.1-.3.3-.4.5-.5h.3c.1 0 .4.1.7.3l.4.2-.6 1.2-.2-.1c-.2-.1-.4-.2-.5-.2s-.2 0-.3 0-.1.1-.2.2c0 .1-.1.2-.2.5l-.8 1.8 1.1.4zm-1.6-2.1.7-1.8c.1-.3.2-.5.2-.6s0-.1 0-.2 0-.1-.1-.2-.2-.1-.3-.2-.2-.1-.3-.1-.1 0-.2.1l-.1.1c0 .1-.1.2-.2.5l-.7 1.8z"/><path d="m13.5 35-3.9-2.3 1.6-2.8c.3-.5.5-.8.6-1 .1-.1.2-.3.3-.4.3-.3.7-.5 1.1-.4.2 0 .3.1.5.2s.4.2.7.4.6.4.8.5.3.2.4.4c.3.3.3.7.2 1.1-.1.2-.1.4-.2.6s-.3.5-.5 1zm-.3-1.8 1-1.6c.2-.3.3-.5.4-.7s.1-.3.1-.4-.1-.2-.2-.3-.3-.2-.5-.4c-.2-.1-.4-.2-.6-.3-.1 0-.3-.1-.3 0-.1 0-.2.1-.3.2s-.2.3-.5.7l-1 1.6z"/><path d="m14.9 24.4c.6-.8 1-1.3 1.3-1.5.4-.4.8-.5 1.2-.3.3.1.7.4 1.3.8s.9.8 1.1 1c .3.4.3.8 0 1.2-.2.3-.6.9-1.2 1.6-.6.8-1 1.3-1.3 1.5-.4.4-.8.5-1.2.3-.3-.1-.7-.4-1.3-.8-.5-.4-.9-.8-1.1-1-.3-.4-.3-.8 0-1.2.2-.3.6-.9 1.2-1.6zm.9.7c-.4.6-.7.9-.8 1.1s-.1.3 0 .4.3.3.7.6c.2.2.4.3.5.3.2.1.4 0 .6-.2.1-.1.4-.5.8-.9.3-.4.6-.7.6-.9.1-.2.1-.3.1-.4s0-.2-.1-.3-.2-.2-.4-.4c-.3-.2-.4-.3-.6-.4-.1-.1-.2-.1-.3-.1s-.2.1-.4.2c0 .2-.3.5-.7 1z"/><path d="m20.7 22.2 1-.9c.1.2.3.2.4.2s.2-.1.2-.1l.7-.7s.7-.6.8-.7.1-.2.2-.2c0-.1 0-.2-.1-.4-.1-.1-.2-.1-.3-.1s-.2.1-.4.2c-.1.1-.4.4-.8.7-.4.4-.7.6-.8.7-.2.2-.5.4-.6.5-.2.1-.3.1-.5.1-.3 0-.5-.2-.8-.5-.3-.4-.5-.7-.5-1 0-.2.1-.4.3-.7.2-.2.6-.7 1.3-1.3.5-.5.8-.8 1.1-.9.3-.2.6-.4.9-.3.2 0 .5.2.8.5 0 0 .1.1.1.2l-1 .9c-.1-.1-.2-.1-.2-.2s-.1 0-.1 0c-.1 0-.2.1-.3.2s-.3.3-.7.6c-.4.4-.7.7-.7.8-.1.1 0 .2.1.4.1.1.2.1.3.1.1-.1.5-.4 1.1-.9.5-.5.9-.8 1.1-.9s.4-.2.5-.3c.2 0 .4 0 .5.1.2.1.4.2.6.5.3.3.5.6.5.8s0 .3 0 .5c-.1.2-.2.3-.4.6-.2.2-.6.6-1.2 1.2-.5.5-.9.8-1.1 1-.3.2-.5.3-.7.4-.2 0-.4 0-.5 0-.2-.1-.3-.2-.6-.5z"/><path d="m29.9 16.5-.8-.4-2.4 1.7.1.8-1.3.9-.7-5 1.7-1.2 4.5 2.3zm-1.7-.9-1.7-.9-.2.2.3 1.9z"/><path d="m29.1 11.6 2.1-1.1 3.7 1.8.1-.1-1.6-2.9 1.2-.7 2.1 4-2.1 1.1-3.7-1.8-.1.1 1.6 2.9-1.2.7z"/><path d="m40.6 9.3 1.2-.5c.1.2.1.3.2.4.1.3.2.6.1.8 0 .2-.2.5-.5.7s-.8.4-1.6.7-1.4.5-1.7.6c-.4.1-.6.1-.8.1s-.3-.1-.5-.2c-.1-.1-.2-.3-.4-.5-.1-.2-.2-.5-.4-1s-.3-.8-.4-1.1c-.1-.2-.1-.4-.1-.5 0-.3.2-.6.5-.8s1-.5 2.1-.9c.5-.2.9-.3 1.2-.4s.5-.1.6-.1c.2 0 .4.1.6.3.1.1.3.4.4.7 0 0 0 .1.1.2l-1.3.5c-.1-.1-.1-.2-.1-.3l-.1-.1c-.1 0-.2 0-.4 0-.2.1-.5.2-.9.3-.4.2-.7.3-.8.3-.1.1-.2.2-.3.2-.1.1-.1.2 0 .4 0 .2.1.4.2.7s.2.5.3.7c.1.1.2.2.3.2s.2 0 .4 0 .4-.1.8-.3c.5-.2.8-.3 1-.4s.3-.2.3-.2c.1 0 .1-.2 0-.5z"/><path d="m41.4 6.1 5.3-1.3.3 1.1-1.9.5.8 3.3-1.4.3-.8-3.3-1.9.5z"/><path d="m47.3 4.8 1.4-.2.7 4.4-1.4.2z"/><path d="m51.4 7.2 1.3-.1c0 .2.1.4.2.4s.2.1.3.1h1s .9-.1 1-.1.2 0 .3-.1c.1 0 .1-.2.1-.3s0-.2-.1-.3c-.1 0-.2-.1-.4-.1s-.5 0-1.1 0-.9 0-1.1 0c-.3 0-.6 0-.8-.1-.2 0-.3-.1-.4-.2-.2-.2-.3-.5-.3-1s .1-.9.2-1.1.4-.3.7-.3c.3-.1.9-.1 1.9-.2h1.4c.4 0 .7.1.9.3s.3.5.3.9v.2l-1.3.1c0-.1 0-.2 0-.3l-.1-.1c-.1 0-.2 0-.3-.1-.1 0-.5 0-.9 0-.6 0-.9.1-1.1.1-.1 0-.2.1-.2.3s.1.3.2.3.6 0 1.5 0h1.5c.2 0 .4.1.6.1.2.1.3.2.4.4s.1.4.1.7c0 .4 0 .7-.1 1-.1.2-.2.3-.3.4s-.4.1-.6.2c-.3 0-.8.1-1.7.1-.7 0-1.2 0-1.5 0s-.6-.1-.7-.2c-.2-.1-.3-.2-.4-.4s-.1-.4-.1-.7z"/><path d="m57.5 3.9 5 .3-.1 1.1-3.6-.3v.6l3.4.2-.1 1-3.4-.2v.7l3.6.2-.1 1.1-5-.3z"/><path d="m62.6 8.7.8-4.4 3 .5c.6.1 1 .2 1.2.2.4.1.7.3.8.6s.1.7 0 1.2-.2.9-.4 1.1c-.1.1-.3.2-.4.3-.2.1-.4.1-.7 0-.2 0-.6-.1-1.1-.2l-1.7-.3-.2 1.1zm1.7-1.9 1.7.3c.3.1.5.1.6.1h.2c.1 0 .1-.1.2-.1s.1-.2.1-.3c0-.2 0-.3 0-.4s-.1-.1-.1-.2c-.1 0-.3-.1-.7-.2l-1.7-.3z"/><path d="m69.5 5.4 1.3.4-.6 2c-.1.5-.2.7-.2.9s.1.3.2.4c.2.1.5.3 1.1.4.5.1.8.2 1 .3h.4c.1 0 .1-.1.2-.2 0-.1.1-.2.2-.4s.1-.3.2-.5l.6-2 1.3.4-.6 2c-.2.7-.4 1.1-.5 1.3-.2.3-.4.6-.8.6-.2 0-.4 0-.8 0-.3-.1-.8-.2-1.5-.4-.5-.2-.9-.3-1.2-.4s-.5-.2-.7-.3c-.4-.3-.6-.6-.5-1.1 0-.2.1-.3.1-.5 0-.1.1-.5.3-1z"/><path d="m76 7.6 1.3.6-1.4 3.1 2.9 1.3-.5 1-4.2-1.9z"/><path d="m83.2 14.3 1.2.7c-.1.2-.2.3-.2.4-.2.3-.4.5-.5.6-.2.1-.5.1-.8 0s-.8-.4-1.5-.8-1.3-.8-1.6-1-.5-.4-.6-.6-.1-.3-.1-.5.1-.4.2-.6.3-.5.5-1c .3-.4.5-.8.6-1s .3-.3.4-.4c.3-.2.6-.2.9-.1.4.1 1.1.5 2.1 1.1.5.3.9.5 1.1.7s.4.3.5.4c.1.2.2.4.2.6s-.1.5-.3.8c0 0 0 .1-.1.2l-1.2-.7c.1-.1.1-.2.1-.3v-.1c0-.1-.1-.2-.3-.3s-.4-.3-.8-.5-.6-.4-.8-.4c-.2-.1-.3-.1-.4-.1s-.2.1-.3.2-.2.3-.4.6-.3.5-.3.6 0 .2 0 .3.1.2.3.3c.1.1.4.3.8.5.5.3.8.4.9.5.2.1.3.1.4.1-.3.2-.1 0 0-.2z"/><path d="m83.8 16.7 2.7-3.6 2.6 2c .6.5 1 .8 1.1.9s.2.2.3.4.1.4 0 .6-.2.4-.4.7-.4.4-.5.5-.3.1-.4.2c-.2 0-.3-.1-.6-.2.2.2.3.4.3.6 0 .1 0 .2-.1.3s-.2.3-.4.6l-.3.3-1.1-.8.1-.2c.2-.2.3-.3.3-.4s.1-.2.1-.3 0-.1-.1-.2-.2-.2-.4-.4l-1.5-1.2-.7.9zm2.5-1 1.5 1.2c.3.2.4.3.5.4s.1.1.2.1.1 0 .2-.1c.1 0 .1-.1.2-.2s.1-.2.2-.3 0-.1 0-.2l-.1-.1c-.1 0-.2-.2-.5-.4l-1.5-1.2z"/><path d="m91.5 17.1 1.1 1-3 3.3-1.1-1z"/><path d="m94.6 19.9.9 1.1-1.2 1.1 2 2.3 1.2-1.1.9 1.1-3.4 2.9-.9-1.1 1.2-1.1-2-2.3-1.2 1.1-.9-1.1z"/><path d="m99 25.2.8 1.2-3.6 2.6-.8-1.2z"/><path d="m100.4 27 2.6 4.2-.9.6-1.9-3.1-.6.3 1.8 2.9-.8.5-1.8-2.9-.6.4 1.9 3.1-.9.6-2.6-4.3z"/><path d="m99.3 33.9 4.1-1.9 1.4 3c .3.7.5 1.1.6 1.3.1.1.1.3 0 .5 0 .2-.1.4-.2.5s-.4.3-.7.4-.5.2-.7.2-.3 0-.4-.1-.3-.2-.4-.4c.1.3.1.5 0 .7 0 .1-.1.2-.2.3s-.3.2-.7.3l-.4.2-.6-1.2.2-.1c.2-.1.4-.2.5-.3s.1-.1.2-.2c0-.1 0-.1 0-.2s-.1-.3-.2-.5l-.8-1.7-1 .5zm2.6.3.8 1.7c.1.3.2.5.3.5s.1.1.1.1c.1 0 .1.1.2 0 .1 0 .2 0 .3-.1s.2-.1.3-.2.1-.1.1-.2 0-.1 0-.2-.1-.2-.2-.5l-.8-1.7z"/><path d="m107 40.8c.3.9.5 1.6.5 1.9.1.5 0 .9-.4 1.1-.3.2-.7.4-1.4.6s-1.2.3-1.5.3c-.4 0-.8-.2-1-.7-.2-.3-.4-1-.7-1.9s-.5-1.6-.5-1.9c-.1-.5.1-.9.4-1.1s.7-.4 1.4-.6 1.1-.3 1.4-.3c.4 0 .8.2 1 .7.3.3.5 1 .8 1.9zm-1.1.3c-.2-.7-.4-1.1-.4-1.2-.1-.1-.2-.2-.4-.2s-.5.1-.9.2c-.3.1-.4.2-.6.2-.2.1-.3.3-.2.6 0 .2.1.6.3 1.1s.3.9.4 1c .1.2.2.3.2.3.1.1.2.1.3.1s.3-.1.6-.1c.3-.1.5-.2.7-.2.1-.1.2-.1.3-.2s.1-.2.1-.4c-.1-.2-.2-.6-.4-1.2z"/><path d="m105.1 45.1.2 1.3c-.2 0-.3.1-.4.2v.3s.1.4.2 1 .2.9.2 1 .1.2.1.3c.1.1.2.1.4.1.1 0 .2-.1.2-.2s0-.2 0-.4-.1-.5-.2-1.1-.1-.9-.1-1.1c0-.3-.1-.6 0-.8 0-.2.1-.3.2-.5.2-.2.5-.3.9-.4.5-.1.9-.1 1.1.1.2.1.3.3.4.6s.2.9.4 1.8c.1.7.2 1.1.2 1.4 0 .4 0 .7-.2.9-.1.2-.4.3-.8.4 0 0-.1 0-.2 0l-.2-1.3c.1 0 .2-.1.2-.1l.1-.1c0-.1 0-.2 0-.3s-.1-.5-.2-.9c-.1-.6-.2-.9-.2-1-.1-.1-.2-.2-.3-.1-.2 0-.2.1-.3.2 0 .1 0 .6.2 1.4.1.7.2 1.2.2 1.4s0 .4-.1.6-.2.3-.3.4c-.2.1-.4.2-.7.2-.4.1-.7.1-1 0-.2-.1-.3-.2-.4-.3s-.2-.3-.3-.6-.2-.8-.3-1.6c-.1-.7-.2-1.2-.2-1.5s0-.6.1-.7c.1-.2.2-.3.3-.4s.4-.2.7-.2z"/><path d="m109.4 53.8c.1 1 .1 1.6 0 2 0 .5-.3.9-.7 1-.3.1-.8.2-1.5.2s-1.2 0-1.5 0c-.4-.1-.7-.4-.8-.9-.1-.4-.1-1-.2-2s-.1-1.6 0-2c0-.5.3-.9.7-1 .3-.1.8-.2 1.5-.2s1.2 0 1.5 0c .4.1.7.4.8.9.1.4.1 1 .2 2zm-1.2.1c0-.7-.1-1.2-.1-1.3-.1-.2-.2-.3-.3-.3-.2 0-.5-.1-.9 0-.3 0-.5 0-.6.1-.2.1-.3.2-.4.5v1.2c0 .5.1.9.1 1.1s.1.3.2.4.2.1.3.1.3 0 .6 0 .6 0 .7-.1c.1 0 .3-.1.3-.1.1-.1.1-.2.2-.4 0-.2-.1-.6-.1-1.2z"/><path d="m109.4 57.8-.1 1.4-3.3-.2-.2 3.2-1.1-.1.3-4.6z"/><path d="m109.3 61.6-.3 1.8-2 1.2 1.6 1.7-.3 1.8-2.5-2.9-1.6-.2.2-1.4 1.6.2z"/><path d="m108.2 68.7-.7 2.4-3.2.4 2.4 2.1-.7 2.4-4.3-1.3.4-1.3 3.2 1 .1-.2-2.7-2.6.3-1.1 3.7-.6.1-.2-3.2-1 .4-1.3z"/><path d="m105.4 76.8-.6 1.3-4.1-1.8.6-1.3z"/><path d="m104.7 78.7-2.5 4.8-1-.5.9-1.8-3-1.6.7-1.3 3 1.6.9-1.8z"/><path d="m95.7 85.1.8.1 1.7-2.5-.4-.7.9-1.3 2.4 4.5-1.2 1.8-5-.6zm1.9.3 1.9.2.2-.2-.9-1.7z"/><path d="m98.1 89.4-1.6 1.8-4.1-.5-.1.1 2.5 2.2-.9 1-3.4-3 1.6-1.8 4.1.5.1-.1-2.5-2.2.9-1z"/><path d="m93.2 94.7-1 1-3.1-3.3 1-1z"/></g></svg>