<svg id="Capa_1" data-name="Capa 1" xmlns="http://www.w3.org/2000/svg" viewBox="0 0 566.93 566.93"><defs><style>.cls-1{fill:#ac2619;stroke-width:5px;}.cls-1,.cls-6{stroke:#fff;stroke-miterlimit:10;}.cls-2{font-size:40px;}.cls-2,.cls-3,.cls-5{fill:#fff;}.cls-2,.cls-3{font-family:BankGothicBT-Medium, Bank Gothic BT;font-weight:500;}.cls-3{font-size:42.67px;}.cls-4{fill:#36a9e1;}.cls-6{fill:#bc1818;stroke-width:4px;}</style></defs><circle class="cls-1" cx="296.88" cy="283.46" r="269.29"/><text class="cls-2" transform="translate(99.66 160.6) rotate(-54.3)">E</text><text class="cls-2" transform="matrix(0.68, -0.74, 0.74, 0.68, 114.21, 139.62)">Q</text><text class="cls-2" transform="translate(134.73 117.14) rotate(-40.5)">U</text><text class="cls-2" transform="matrix(0.83, -0.55, 0.55, 0.83, 156.83, 98.16)">E</text><text class="cls-2" transform="translate(177.98 83.81) rotate(-26.83)">S</text><text class="cls-2" transform="translate(202.92 71.38) rotate(-21.99)"> </text><text class="cls-2" transform="translate(212.93 66.76) rotate(-17.2)">C</text><text class="cls-2" transform="matrix(0.98, -0.17, 0.17, 0.98, 238.94, 58.3)">O</text><text class="cls-2" transform="translate(268.79 52.63) rotate(-2.33)">M</text><text class="cls-2" transform="translate(301.04 50.99) rotate(5.59)">M</text><text class="cls-2" transform="translate(333.23 54.05) rotate(12.68)">E</text><text class="cls-2" transform="matrix(0.94, 0.33, -0.33, 0.94, 358.25, 59.26)">N</text><text class="cls-2" transform="translate(386.65 69.04) rotate(26.85)">D</text><text class="cls-2" transform="translate(412.8 82.07) rotate(33.74)">A</text><text class="cls-2" transform="matrix(0.77, 0.64, -0.64, 0.77, 434.67, 96.58)">T</text><text class="cls-2" transform="translate(450.75 109.16) rotate(45.82)">O</text><text class="cls-2" transform="translate(472.09 130.85) rotate(52.84)">R</text><text class="cls-3" transform="matrix(0.78, 0.62, -0.62, 0.78, 128.03, 472.26)">F</text><text class="cls-3" transform="translate(148.16 488.13) rotate(34.09)">I</text><text class="cls-3" transform="matrix(0.88, 0.48, -0.48, 0.88, 159.14, 496.28)">D</text><text class="cls-3" transform="translate(188.92 512.63) rotate(21.54)">E</text><text class="cls-3" transform="matrix(0.97, 0.25, -0.25, 0.97, 216.7, 523.82)">S</text><text class="cls-3" transform="translate(247.47 531.52) rotate(9.43)"> </text><text class="cls-3" transform="translate(260.36 533.75) rotate(6.49)">I</text><text class="cls-3" transform="translate(273.9 535.91) rotate(1.06)">N</text><text class="cls-3" transform="translate(308.63 536.39) rotate(-5.66)">T</text><text class="cls-3" transform="translate(332.82 534.34) rotate(-12.05)">R</text><text class="cls-3" transform="translate(364.12 527.73) rotate(-19.1)">E</text><text class="cls-3" transform="translate(392.38 518.07) rotate(-25.79)">P</text><text class="cls-3" transform="translate(418.19 505.38) rotate(-30.48)">I</text><text class="cls-3" transform="translate(430.25 498.96) rotate(-35.77)">D</text><text class="cls-3" transform="matrix(0.73, -0.68, 0.68, 0.73, 457.86, 479.12)">A</text><path class="cls-4" d="M300.61,500.73c-1.27,0-2.56,0-3.84,0-1,0-2,0-3.07,0-56.38,0-109.86-22.6-150.61-63.64s-63.32-95-63.66-152c-.35-57.45,22.8-114,63.51-155.09C183.42,89.05,237.78,66.42,296,66.2h.86c58.52,0,113.2,22.47,154,63.26a216.38,216.38,0,0,1,63.48,151.87c.57,58.79-21.67,114-62.63,155.3-40.35,40.73-95.41,64.1-151.07,64.1Z"/><path class="cls-5" d="M296.87,68.7c120.41,0,213.84,95.86,215,212.65,1.2,125-100.65,216.88-211.23,216.88-1.26,0-2.53,0-3.79,0l-3.12,0C178.48,498.22,82.63,401.53,81.93,285,81.24,171.37,171.62,69.17,296,68.7h.85m0-5H296c-58.9.22-113.88,23.12-154.83,64.47A221.39,221.39,0,0,0,93.7,199.66a218.35,218.35,0,0,0,.81,169.78,222.2,222.2,0,0,0,46.81,69.39,219.06,219.06,0,0,0,68.8,47.05,209.65,209.65,0,0,0,83.58,17.34c1,0,2.07,0,3.11,0,1.26,0,2.54,0,3.8,0,56.33,0,112.05-23.64,152.87-64.85,41.43-41.83,63.93-97.61,63.36-157.08a219.61,219.61,0,0,0-64.22-153.6c-41.25-41.27-96.57-64-155.75-64Z"/><polygon class="cls-6" points="254.54 142.17 298.21 87.91 337.25 142.83 320.04 142.83 320.04 213.96 402.75 213.96 402.75 199.07 458.33 236.79 402.75 277.15 402.75 259.62 320.7 259.62 320.7 426.03 338.57 426.03 298.21 477.64 257.18 426.03 274.39 426.03 274.39 259.62 191.02 259.62 191.02 277.15 135.44 236.79 191.68 197.09 191.68 213.96 273.73 213.96 273.73 142.17 254.54 142.17 254.54 142.17"/><polygon class="cls-6" points="296.48 80.64 273.32 107.76 296.48 146.14 318.98 107.76 296.48 80.64"/><polygon class="cls-6" points="296.82 486.29 319.98 459.17 296.82 420.79 274.32 459.17 296.82 486.29"/><polygon class="cls-6" points="462.63 237.12 435.5 213.96 397.13 237.12 435.5 259.62 462.63 237.12"/><polygon class="cls-6" points="131.13 236.46 158.26 259.62 196.64 236.46 158.26 213.96 131.13 236.46"/><line class="cls-6" x1="296.48" y1="146.14" x2="296.48" y2="426.03"/><line class="cls-6" x1="193.26" y1="236.79" x2="397.75" y2="236.79"/></svg>