<?xml version="1.0" encoding="UTF-8"?>
<svg id="Capa_1" xmlns="http://www.w3.org/2000/svg" version="1.1" viewBox="0 0 566.9 566.9">
  <!-- Generator: Adobe Illustrator 29.0.1, SVG Export Plug-In . SVG Version: 2.1.0 Build 192)  -->
  <defs>
    <style>
      .st0 {
        fill: #fff;
      }

      .st1 {
        fill: none;
        stroke-width: 15px;
      }

      .st1, .st2 {
        stroke: #ffe500;
        stroke-miterlimit: 10;
      }

      .st3, .st2 {
        fill: #ffe500;
      }

      .st4 {
        fill: #1d71b8;
      }
    </style>
  </defs>
  <circle class="st4" cx="284.1" cy="282.8" r="279.2"/>
  <circle class="st1" cx="284.1" cy="282.8" r="267.5"/>
  <path class="st2" d="M417.9,391.5c68.6-67.3,65.3-188.3-6.6-257.1-76-72.6-194.5-67.1-265.5,12.4-60.9,68.1-58.2,191.2,5.4,244.7h266.7Z"/>
  <path class="st4" d="M408.4,380.5c63.7-62.5,60.7-174.9-6.1-238.8-70.6-67.4-180.6-62.3-246.6,11.5-56.5,63.3-54,177.5,5,227.3h247.7Z"/>
  <g>
    <path class="st0" d="M162.8,454.4l-2.5,4.6v15.6h-8v-50.8h8v22.1l10.4-22.1h8l-11.1,22.6,11.1,28.2h-8.2l-7.8-20.2Z"/>
    <path class="st0" d="M181.7,436c0-4.1,1-7.3,3.1-9.5,2.1-2.2,5.1-3.3,9-3.3s6.9,1.1,9,3.3c2.1,2.2,3.1,5.4,3.1,9.5v26.4c0,4.1-1,7.3-3.1,9.5-2.1,2.2-5.1,3.3-9,3.3s-6.9-1.1-9-3.3c-2.1-2.2-3.1-5.4-3.1-9.5v-26.4ZM189.7,462.9c0,1.8.4,3.1,1.1,3.9s1.8,1.1,3,1.1,2.3-.4,3-1.1,1.1-2,1.1-3.9v-27.4c0-1.8-.4-3.1-1.1-3.9s-1.8-1.1-3-1.1-2.3.4-3,1.1-1.1,2-1.1,3.9v27.4Z"/>
    <path class="st0" d="M219,474.6h-8v-50.8h8v21.8h9.1v-21.8h8.1v50.8h-8.1v-21.8h-9.1v21.8Z"/>
    <path class="st0" d="M265.1,481.4v-6.8h-17v6.8h-7.8v-13.9h3.1c.7-.9,1.1-1.8,1.4-2.8s.4-2.3.5-3.8l1.8-37.1h22.3v43.7h3.5v13.9h-7.9ZM253.2,460.8c0,1.9-.3,3.4-.7,4.4-.4,1-.9,1.8-1.6,2.4h10.4v-36.4h-6.7l-1.4,29.7Z"/>
    <path class="st0" d="M295.1,461.7c-.5,2.3-1.1,4.3-1.8,6-.7,1.7-1.6,3.1-2.8,4.2-1.2,1.1-2.7,1.9-4.6,2.4-1.9.5-4.2.6-6.9.4v-7.1c2,.1,3.6,0,4.8-.6,1.2-.5,1.9-1.7,2.2-3.6v-.4c0,0-10.9-39.2-10.9-39.2h7.9l4.3,17.3,2.5,11.9,1.9-11.8,3.6-17.4h8.3l-8.6,37.9Z"/>
    <path class="st0" d="M317.4,454.4l-2.5,4.6v15.6h-8v-50.8h8v22.1l10.4-22.1h8l-11.1,22.6,11.1,28.2h-8.2l-7.8-20.2Z"/>
    <path class="st0" d="M334.6,423.8h24.6v7.3h-8.3v43.5h-8v-43.5h-8.3v-7.3Z"/>
    <path class="st0" d="M362.1,436c0-4.1,1-7.3,3.1-9.5,2.1-2.2,5.1-3.3,9-3.3s6.9,1.1,9,3.3c2.1,2.2,3.1,5.4,3.1,9.5v26.4c0,4.1-1,7.3-3.1,9.5-2.1,2.2-5.1,3.3-9,3.3s-6.9-1.1-9-3.3c-2.1-2.2-3.1-5.4-3.1-9.5v-26.4ZM370.1,462.9c0,1.8.4,3.1,1.1,3.9.7.8,1.8,1.1,3,1.1s2.3-.4,3-1.1,1.1-2,1.1-3.9v-27.4c0-1.8-.4-3.1-1.1-3.9s-1.8-1.1-3-1.1-2.3.4-3,1.1c-.8.8-1.1,2-1.1,3.9v27.4Z"/>
    <path class="st0" d="M403.2,423.8c4,0,7,1.1,9,3.2,2,2.1,2.9,5.2,2.9,9.4v6.6c0,4.1-1,7.2-2.9,9.4-2,2.1-4.9,3.2-9,3.2h-3.8v19.1h-8v-50.8h11.7ZM399.4,431.1v17.2h3.8c1.3,0,2.2-.3,2.9-1,.7-.7,1-1.9,1-3.8v-7.6c0-1.8-.3-3.1-1-3.8-.7-.7-1.6-1-2.9-1h-3.8Z"/>
  </g>
  <g>
    <path class="st0" d="M54.4,292.7l-16.2-6.4-.3-6.1,16.3,6.6,22.8-8.8.4,6.3-17,6.6,3,1.3,14.4-.8.3,6.1-14.4.8-2.9,1.7,17.7,4.6.4,6.3-23.5-6.3-15.6,8.5-.3-6.1,15.4-8.1-15.8.9-.3-6.1,15.8-.9Z"/>
    <path class="st0" d="M55.2,268.9l.6-8.4,5.6.4-.6,8.4,11.4.8.7-10.6,5.6.4-1.1,16.7-39.1-2.6,1.1-16.7,5.6.4-.7,10.6,10.9.7Z"/>
    <path class="st0" d="M73,257.7c.1-.7.2-1.3.2-1.8,0-.5-.1-.9-.3-1.2-.2-.3-.6-.6-1.1-.8-.5-.2-1.2-.4-2.1-.6l-29-6,2.9-17.1,38.6,6.6-1.1,6.2-33.1-5.7-.9,5.3,23.2,4.7c3.5.7,5.9,1.9,7.2,3.5,1.3,1.6,1.6,4,1.1,7l-.2.9-5.5-.9Z"/>
    <path class="st0" d="M63,221.2l2.3-8.1,5.4,1.5-2.3,8.1,11,3.1,2.9-10.2,5.4,1.5-4.5,16.1-37.7-10.6,4.5-16.1,5.4,1.5-2.9,10.2,10.5,3Z"/>
    <path class="st0" d="M65.4,192.6c-1.6-.6-2.8-.8-3.6-.5-.8.3-1.4.9-1.7,1.8-.4.9-.4,1.7,0,2.5.3.8,1.1,1.4,2.5,1.9l3,1.2-2,5.3-2.7-1.1c-3-1.2-4.9-2.7-5.9-4.7-1-2-.9-4.4.1-7.2,1.1-2.8,2.7-4.6,4.9-5.5s4.7-.7,7.6.5l.9.4c3.9,1.5,5.9,3.8,5.9,6.9,1.2-1.2,2.6-1.9,4.1-2,1.5,0,3.2.2,5.1.9l2.9,1.1c3,1.2,4.9,2.8,6,4.8,1,2.1,1,4.5-.1,7.3-1.1,2.8-2.7,4.6-4.9,5.5-2.1.8-4.7.7-7.6-.5l-4-1.6,2.1-5.4,4.4,1.7c1.3.5,2.4.6,3.1.3.7-.3,1.3-.9,1.6-1.8.4-.9.4-1.7,0-2.5-.3-.8-1.3-1.4-3-2.1l-2.9-1.1c-1.7-.7-3-.8-3.9-.5-.9.3-1.6,1.1-2.2,2.5l-.5,1.4-5.2-2,.7-1.7c.4-1.1.5-2,.2-2.9-.3-.8-1.2-1.5-2.7-2.1l-2-.8Z"/>
    <path class="st0" d="M99.2,189.3l-2.8,5.5-34.8-18,2.8-5.5,14.9,7.7,3.2-6.2-14.9-7.7,2.9-5.6,34.8,18-2.9,5.6-14.9-7.7-3.2,6.2,14.9,7.7Z"/>
    <path class="st0" d="M81.9,158.6c-2.6-1.7-4.2-3.7-4.8-6-.5-2.3,0-4.7,1.7-7.2,1.7-2.5,3.6-4,5.9-4.4,2.3-.4,4.8.3,7.4,2l17,11.2c2.6,1.7,4.2,3.7,4.8,6,.5,2.3,0,4.7-1.7,7.2-1.7,2.5-3.6,4-5.9,4.4-2.3.4-4.8-.3-7.4-2l-17-11.2ZM102.6,164.9c1.2.8,2.2,1.1,3,.9.8-.2,1.5-.7,2-1.5.5-.8.7-1.6.5-2.4-.2-.8-.8-1.6-2-2.4l-17.7-11.6c-1.2-.8-2.2-1.1-3-.9-.8.2-1.5.7-2,1.5s-.7,1.6-.5,2.4c.2.8.8,1.6,2,2.4l17.7,11.6Z"/>
    <path class="st0" d="M134.1,146.7l-4-3.4-8.4,10.1,4,3.4-3.8,4.6-8.3-6.9,1.5-1.8c-.2-.8-.5-1.6-1-2.2-.5-.7-1.1-1.4-2-2.2l-21.1-19.4,11-13.2,25.9,21.5,1.7-2.1,8.3,6.9-3.9,4.7ZM116,143.5c1.1,1,1.8,1.9,2.2,2.6.4.7.6,1.4.6,2.1l5.1-6.2-21.6-18-3.3,4,16.9,15.5Z"/>
    <path class="st0" d="M114.8,115.9c-2.2-2.3-3.3-4.6-3.3-6.9,0-2.3,1.1-4.5,3.3-6.6,2.2-2.1,4.4-3.1,6.8-2.9,2.3.1,4.6,1.3,6.8,3.6l14.1,14.7c2.2,2.3,3.3,4.6,3.3,6.9,0,2.3-1.1,4.5-3.3,6.6-2.2,2.1-4.4,3.1-6.8,2.9-2.3-.1-4.6-1.3-6.8-3.6l-14.1-14.7ZM133.5,126.6c1,1,1.9,1.5,2.7,1.6s1.6-.3,2.3-1c.7-.7,1.1-1.4,1.1-2.2,0-.8-.5-1.7-1.4-2.8l-14.6-15.3c-1-1-1.9-1.5-2.7-1.6-.8,0-1.6.3-2.3,1-.7.7-1.1,1.4-1.1,2.2,0,.8.5,1.7,1.4,2.8l14.6,15.3Z"/>
    <path class="st0" d="M134.2,86.1c2.4-1.9,4.8-2.7,7-2.3,2.2.4,4.3,1.8,6.2,4.3l3.1,4c2,2.5,2.8,4.9,2.7,7.1-.2,2.2-1.5,4.3-3.9,6.2l-2.3,1.8,9,11.6-4.8,3.8-24.1-30.9,7.1-5.6ZM135.3,92.3l8.2,10.5,2.3-1.8c.8-.6,1.2-1.3,1.3-2,0-.7-.3-1.7-1.2-2.8l-3.6-4.6c-.9-1.1-1.7-1.7-2.4-1.8-.7,0-1.5.2-2.2.8l-2.3,1.8Z"/>
    <path class="st0" d="M150.8,85.4c-1.7-2.7-2.3-5.2-1.9-7.5.5-2.3,2-4.2,4.5-5.8,2.6-1.6,5-2.1,7.2-1.5,2.3.6,4.2,2.2,5.9,4.9l10.8,17.2c1.7,2.7,2.3,5.2,1.9,7.5-.5,2.3-2,4.2-4.5,5.8-2.6,1.6-5,2.1-7.2,1.5-2.3-.6-4.2-2.2-5.9-4.9l-10.8-17.2ZM167.1,99.7c.8,1.2,1.5,1.9,2.3,2.1.8.2,1.6,0,2.4-.5.8-.5,1.3-1.2,1.5-2,.2-.8-.1-1.8-.9-3l-11.3-17.9c-.8-1.2-1.5-1.9-2.3-2.1-.8-.2-1.6,0-2.4.5-.8.5-1.3,1.2-1.5,2-.2.8.1,1.8.9,3l11.3,17.9Z"/>
    <path class="st0" d="M191.1,70.5v-17.4s5.6-2.6,5.6-2.6l-.2,17.6,16.5,18-5.7,2.6-12.3-13.4v3.3c-.1,0,5.8,13.1,5.8,13.1l-5.5,2.5-6-13.1-2.6-2.1,2.2,18.1-5.7,2.6-2.7-24.2-13.6-11.4,5.6-2.6,13.2,11.4-6.6-14.4,5.5-2.5,6.6,14.4Z"/>
    <path class="st0" d="M220.3,84.3l-5.9,1.8-11.3-37.5,5.9-1.8,4.9,16.1,6.7-2-4.9-16.1,6-1.8,11.3,37.5-6,1.8-4.9-16.1-6.7,2,4.9,16.1Z"/>
    <path class="st0" d="M236,79.4l-6.3-38.6,6.1-1,2.4,14.5,2.9-.5c3.1-.5,5.5,0,7.2,1.3,1.8,1.4,2.9,3.6,3.4,6.8l.8,5c.5,3.1.2,5.6-1.1,7.5-1.2,1.9-3.4,3-6.4,3.5l-8.9,1.5ZM244.1,72.5c1-.2,1.6-.5,2.1-1.1.4-.6.5-1.6.3-3l-.9-5.8c-.2-1.4-.6-2.3-1.2-2.7-.6-.4-1.4-.6-2.3-.4l-2.9.5,2.1,13.1,2.9-.5ZM257.5,75.9l-6.3-38.6,6.1-1,6.3,38.6-6.1,1Z"/>
    <path class="st0" d="M272.1,52.1l8.4-.3.2,5.6-8.4.3.4,11.5,10.6-.4.2,5.6-16.7.7-1.5-39.1,16.7-.7.2,5.6-10.6.4.4,10.9Z"/>
    <path class="st0" d="M308,36.7c3.2.3,5.4,1.3,6.7,2.9,1.3,1.6,1.8,3.9,1.4,7v1.4c-.4,2-.8,3.6-1.6,4.9-.8,1.2-1.9,2.1-3.3,2.6,1.6.8,2.7,2,3.2,3.5.5,1.5.7,3.3.5,5.4l-.3,3.2c-.3,3-1.3,5.2-3,6.6-1.7,1.4-4.1,2-7.2,1.6l-9.6-1,4.1-38.9,9.2,1ZM302.7,57.7l-1.2,12,3.5.4c1,.1,1.9,0,2.4-.6.6-.5,1-1.5,1.1-2.9l.4-3.4c.2-1.8,0-3.1-.5-3.8-.5-.7-1.5-1.2-2.9-1.3l-2.7-.3ZM304.4,41.9l-1.1,10.3,2.4.2c1.1.1,2.1,0,2.8-.6.7-.5,1.1-1.6,1.3-3.1l.2-2.2c.1-1.4,0-2.5-.4-3.1-.4-.7-1.2-1.1-2.3-1.2l-2.9-.3Z"/>
    <path class="st0" d="M322,47.9c.7-3.1,1.9-5.3,3.9-6.6,1.9-1.3,4.4-1.7,7.3-1,3,.6,5,1.9,6.2,3.9,1.2,2,1.5,4.5.8,7.6l-4.2,19.9c-.7,3.1-1.9,5.3-3.9,6.6-1.9,1.3-4.4,1.7-7.3,1-3-.6-5-1.9-6.2-3.9-1.2-2-1.5-4.5-.8-7.6l4.2-19.9ZM323.7,69.4c-.3,1.4-.2,2.4.2,3.1.4.7,1.1,1.1,2.1,1.3.9.2,1.8,0,2.4-.4.7-.4,1.2-1.4,1.5-2.7l4.4-20.7c.3-1.4.2-2.4-.2-3.1-.4-.7-1.1-1.1-2.1-1.3-.9-.2-1.8,0-2.4.4-.7.4-1.2,1.4-1.5,2.7l-4.4,20.7Z"/>
    <path class="st0" d="M342.9,83.6l-6-2,12.2-37.2,5.2,1.7-7.7,23.5,4.8-7.5,9.8-13.8,6.4,2.1-12.2,37.2-5.3-1.7,8.6-26.2-5.4,8.4-10.5,15.4ZM367.4,41.2c-.6,1.8-1.6,3.1-3,3.8-1.4.7-3.1.7-5.2,0-2.1-.7-3.4-1.7-4-3.1-.6-1.4-.7-3-.1-4.8l3.6,1.2c-.3,1-.2,1.7,0,2.2.3.5.8.8,1.6,1.1.8.3,1.5.3,2,.1.5-.2,1-.7,1.4-1.7l3.6,1.2Z"/>
    <path class="st0" d="M380.9,83l-2.1,4.7c-1.3,2.9-3,4.8-5.1,5.7-2.1.9-4.5.7-7.3-.5-2.7-1.2-4.5-3-5.2-5.1-.7-2.2-.4-4.7.9-7.6l8.4-18.6c1.3-2.9,3-4.8,5.1-5.7,2.1-.9,4.5-.7,7.3.5s4.5,3,5.2,5.1c.7,2.2.4,4.7-.9,7.6l-1.6,3.5-5.3-2.4,1.7-3.8c.6-1.3.7-2.3.4-3.1-.3-.8-.9-1.3-1.8-1.7-.9-.4-1.7-.5-2.5-.2-.8.3-1.4,1.1-2,2.4l-8.7,19.3c-.6,1.3-.7,2.3-.4,3.1.3.7.9,1.3,1.8,1.7.9.4,1.7.5,2.5.2.8-.3,1.4-1.1,2-2.3l2.3-5.1,5.3,2.4Z"/>
    <path class="st0" d="M392.1,88.2l-3.4,2.1-6.1,10.4-5.3-3.1,19.7-33.8,5.3,3.1-8.6,14.7,15.5-10.7,5.3,3.1-16.2,10.8-3.5,23.1-5.5-3.2,2.7-16.5Z"/>
    <path class="st0" d="M412.4,120.7l-5-3.7,3.3-6.4-6.1-4.5-5.1,5.1-4.5-3.3,28.2-27.9,7.2,5.3-18.1,35.3ZM408.4,102.4l4.8,3.5,9.3-17.7-14.1,14.2Z"/>
    <path class="st0" d="M454.1,106c2.3,2.2,3.4,4.4,3.4,6.5,0,2.1-1.1,4.2-3.2,6.3l-1,1c-1.4,1.4-2.8,2.4-4.2,2.9-1.4.5-2.8.5-4.2,0,.8,1.6.9,3.2.4,4.7-.5,1.5-1.5,3-3,4.5l-2.2,2.3c-2.1,2.2-4.3,3.2-6.5,3.3-2.2,0-4.4-1-6.6-3.2l-6.9-6.8,27.4-27.9,6.6,6.5ZM436.8,119.1l-8.4,8.6,2.5,2.5c.7.7,1.5,1.1,2.3,1.1.8,0,1.7-.5,2.7-1.6l2.4-2.4c1.3-1.3,1.9-2.4,2-3.3,0-.9-.5-1.9-1.5-2.9l-2-1.9ZM447.9,107.8l-7.3,7.4,1.7,1.7c.8.8,1.7,1.2,2.6,1.3.9,0,1.9-.5,3-1.6l1.5-1.6c1-1,1.5-1.9,1.6-2.7s-.3-1.6-1-2.3l-2.1-2.1Z"/>
    <path class="st0" d="M458,147.1l-4,3.3c-2.4,2-4.8,3-7.1,2.9-2.3-.1-4.4-1.3-6.3-3.6-1.9-2.3-2.7-4.6-2.4-6.9.3-2.3,1.7-4.4,4.1-6.4l15.7-13c2.4-2,4.8-3,7.1-2.9,2.3.1,4.4,1.3,6.3,3.6,1.9,2.3,2.7,4.6,2.4,6.9-.3,2.3-1.7,4.4-4.1,6.4l-2.9,2.4-3.7-4.5,3.2-2.7c1.1-.9,1.7-1.8,1.7-2.6,0-.8-.2-1.6-.8-2.3-.6-.7-1.3-1.2-2.1-1.2-.8,0-1.8.3-2.9,1.2l-16.3,13.5c-1.1.9-1.7,1.8-1.7,2.6,0,.8.2,1.6.8,2.3.6.7,1.3,1.2,2.1,1.2.8,0,1.7-.3,2.8-1.2l4.3-3.6,3.7,4.5Z"/>
    <path class="st0" d="M463.6,182.4l-3.3-5.3,5.5-4.6-4-6.4-6.6,2.8-3-4.8,36.6-15.2,4.7,7.7-30,25.9ZM466.9,163.9l3.1,5,15.3-12.9-18.4,7.9Z"/>
    <path class="st0" d="M503.6,175.1c1.4,2.8,1.6,5.2.8,7.3-.8,2.1-2.7,3.8-5.5,5.2l-4.6,2.2c-2.8,1.4-5.3,1.8-7.5,1.1-2.1-.6-3.9-2.3-5.2-5.1l-1.3-2.6-13.2,6.4-2.7-5.5,35.2-17.1,4,8.1ZM497.3,175l-11.9,5.8,1.3,2.6c.4.9,1,1.4,1.7,1.7.7.2,1.7,0,3-.6l5.3-2.6c1.3-.6,2-1.3,2.3-2,.2-.7.2-1.5-.3-2.4l-1.3-2.6Z"/>
    <path class="st0" d="M475.3,208.2l-2.2-5.9,36.8-13.4,1.9,5.1-23.3,8.5,8.9-.9,16.9-.8,2.3,6.4-36.8,13.4-1.9-5.2,25.9-9.5-9.9.9-18.6,1.3Z"/>
    <path class="st0" d="M485.6,243.1l-1.5-6,6.6-2.7-1.8-7.3-7.1.7-1.4-5.5,39.5-3.4,2.2,8.7-36.5,15.6ZM494.2,226.5l1.4,5.7,18.5-7.7-19.9,1.9Z"/>
    <path class="st0" d="M483.2,263.1l5.2-.8-1.9-13-5.2.8-.9-5.9,10.6-1.6.4,2.4c.7.4,1.5.7,2.3.8.8,0,1.8,0,2.9,0l28.5-2.8,2.5,17-33.3,4.9.4,2.7-10.6,1.6-.9-6ZM497.6,251.7c-1.5.1-2.6.1-3.4,0-.8-.2-1.4-.5-2-.9l1.2,8,27.8-4.1-.8-5.1-22.8,2.3Z"/>
    <path class="st0" d="M489.3,277v-6.1c-.1,0,39-.7,39-.7v6.1c.1,0-16.7.3-16.7.3v7c.1,0,16.9-.3,16.9-.3v6.3c.1,0-39,.7-39,.7v-6.3c-.1,0,16.7-.3,16.7-.3v-7c-.1,0-16.9.3-16.9.3Z"/>
    <path class="st0" d="M487.7,313.5l.5-6.2,7.2-.4.7-7.5-7-1.7.5-5.6,38.5,9.6-.8,9-39.5,2.8ZM501.2,300.6l-.5,5.9,20-1.2-19.5-4.7Z"/>
  </g>
  <g>
    <path class="st0" d="M176.3,366.5c6.7-11.6,15.1-22,24.3-31.6,22.7-23.8,45.6-47.4,68.4-71.2,1.1-1.2,2.2-2.4,3.6-3.9-17.2-16.5-34.2-32.9-51-49.1,4.3-4.4,8.6-8.6,13-13.1,16.1,16.8,32.4,33.7,49,50.9,16.5-17.1,32.8-34,49.2-51,4.3,4.3,8.5,8.4,13.1,12.9-17.1,16.5-34,32.9-51,49.2,31.8,36.4,69.4,67.4,96.8,107.7-6.3-2.9-11.8-7-17.2-11.2-18.7-14.8-34.9-32.3-52.3-48.6-12.9-12.2-25.6-24.5-38.6-37.1-11.7,11.2-23,22.3-34.6,33.2-18.9,17.7-36.5,36.9-56.9,52.9-4.6,3.6-9.3,7.3-14.6,10-.4,0-.8,0-1.2-.1Z"/>
    <path class="st0" d="M193.4,155c-.9,1.4-1.6,2.5-2.4,3.8,10.3,9.2,20.5,18.4,31.7,28.5,3.7-4,7.3-8,11-12,2.2-2.4,4.4-3.9,7.3-1,2.7,2.7,1.2,4.8-.9,6.9-11.7,11.6-23.4,23.3-35,35.1-2.2,2.2-4.3,3.4-7,.8-2.7-2.6-1.4-4.8.7-7,3.9-3.8,7.7-7.6,11.8-11.7-9.4-10.5-18.7-20.8-28-31.2-1.9.8-3.1,3.1-6,1.5-2.8-3.3-2.7-7.4-.7-11.4,2.1-4.3,5.7-6.6,10.6-6.5,2.9,0,5.8.2,6.9,4.2Z"/>
    <path class="st0" d="M354.8,208.5c-9.6-9.4-19.2-18.8-28.7-28.3-1.9-1.9-1.9-4,0-6,2.1-2.1,4.2-2.1,6.3,0,4,4.1,7.9,8.3,12.2,12.7,10.7-9.6,21-18.9,31.5-28.2-.9-1.9-3.2-3.3-1.7-5.7,4.3-2.9,8.9-3.1,13-.2,4.4,3.1,6.1,7.4,4.7,12.7-1.3-.2-2.6-.4-3.9-.6-1.3.7-1.5,2-1.7,3.1-2-1.8-2.9.2-3.9,1.3-8.6,9.5-17.1,18.9-25.6,28.3-.2,1.6,1.5,2,1.6,3.3-3,1.6-3.9,4.3-3.8,7.5Z"/>
    <path class="st0" d="M354.8,208.5c-.1-3.2.7-5.9,3.8-7.5,3.6,3.4,7.2,6.7,10.7,10.2,1.9,1.9,1.8,4-.2,5.9-1.9,1.9-4,2-6,.1-2.8-2.8-5.6-5.8-8.3-8.7Z"/>
    <path class="st0" d="M386.5,168.1c.2-1.2.4-2.4,1.7-3.1,1.2.2,2.6.4,3.9.6-.9,2.9-2,5.3-5.5,2.6Z"/>
  </g>
  <g>
    <g>
      <polygon class="st4" points="214.9 318.4 214.9 330.9 284 374.1 353.1 330.9 353.1 318.4 284 356.4 214.9 318.4"/>
      <path class="st4" d="M279.7,299.1l2.1.2v54.7l-14.8-7.4v-46.2l2-.2c1.2-.1,2.3-.3,3.5-.5,2.2-.4,4.6-.8,7.2-.6Z"/>
      <path class="st4" d="M298.6,300.1h2.2v46.6l-14.7,7.3v-54.5l1.9-.3c2.2-.3,4.4,0,6.4.4,1.4.2,2.8.5,4.2.5Z"/>
      <path class="st4" d="M359.9,309.2l-21.2-3.4v19.7l-14,7.7v-29.6l-5-.8v33.2l-15,7.9v-42.9l8.5.7-29.2-4.7-29,4.6,8.4-.7v42.9l-14.9-7.8v-33.3l-5.1.8v29.6l-13.9-7.5v-19.1l1.2-.6c.2-.1.5-.3.8-.4l-23.4,3.7,18-23.7h.7c0,0-.5-7.6-.5-7.6l5.5-4.1c-.5-1.8-1-3.4-1.9-4.9l-6.1-1.1-.5-.7c-.5-.6-1-1.2-1.6-1.8-1.5-1.5-3.4-3.4-4.1-6.4l-.4-1.8,26.3-11.8v9.3s0,1.5,0,1.5c.7,8.6,3.5,15.9,9,23.3l2.2,3-14.6,2.1,16-1.1.7.6c5.6,4.7,11.6,8,18.4,10.2l8.8,2.8,8.5-2.8c7.3-2.4,13.3-5.7,18.5-10.1l.7-.6,15.3,1c-3.1-.5-6.3-1-9.5-1.8l-2.8-.7,2.2-4c3.9-7,7.6-13.5,7.6-21v-.9h.1v-10.3l27.7,11.8-7.4,10.1-.4.2c-1.6.8-3.3.8-4.8.8-.5,0-1.1,0-1.6,0-.7,1.4-1.2,2.9-1.6,4.6,0,.3-.1.5-.2.8.6.6,1.3,1.1,2.2,1.6.9.5,1.9,1.2,2.8,2l.9.8-.8,7.1h.6s18,23.8,18,23.8Z"/>
      <path class="st4" d="M283.8,291.3h.3c10.1,0,19.6-3.9,26.8-11.1,7.4-7.3,11.6-17.1,11.6-27.5,0-10.2-3.9-19.8-11.1-27.1-4.9-4.9-10.8-8.3-17.3-10.1l10.2-24.6h-40.8l10.3,24.7c-6.5,1.7-12.4,5.2-17.3,10-7.3,7.3-11.3,17-11.2,27.2,0,21.1,17.3,38.3,38.5,38.5ZM283.6,229.1h.2c13.2,0,23.6,10.3,23.8,23.6,0,6.4-2.6,12.6-7.7,17.3-4.5,4.2-10.2,6.6-15.1,6.2h-.2s-.2,0-.2,0c-6.2.4-12.2-1.8-16.8-6.2-4.8-4.5-7.5-10.8-7.5-17.1,0-13,10.5-23.7,23.4-23.8Z"/>
      <path class="st4" d="M271.5,266.1c3.4,3.2,7.7,5,12.1,5s.7,0,1,0c8.8-.6,17.8-6.5,17.9-18.4,0-4.9-1.9-9.5-5.4-13-3.5-3.5-8.2-5.5-13.2-5.4-10.2,0-18.5,8.4-18.5,18.5,0,4.9,2.2,9.8,6.1,13.5Z"/>
    </g>
    <g>
      <path class="st3" d="M284.1,216.6c19.9,0,36.3,16.3,36.2,36.2-.1,20.1-16.4,36.6-36.5,36.4-19.9-.1-36.2-16.4-36.3-36.3,0-20.1,16.3-36.4,36.5-36.4ZM284.7,278.7c11.2.8,25.4-10.6,25.1-25.8-.2-14.4-11.8-25.9-26.3-25.8-14.2.1-25.5,11.9-25.6,26,0,13.7,11.8,26.4,26.7,25.5Z"/>
      <path class="st3" d="M350.8,322.3v7.6c-22.2,13.9-44.5,27.8-66.9,41.7-22.4-14-44.6-27.9-66.9-41.7v-7.6c22.5,12.4,44.7,24.6,66.9,36.8,22.1-12.2,44.2-24.4,66.9-36.8Z"/>
      <path class="st3" d="M340.7,287.8c4.5,5.9,9,11.8,14,18.5-21.2-3.4-41.3-6.6-61.5-9.8,7.2-2.3,13.6-5.7,19.2-10.6,9.3.6,18.7,1.3,28.2,1.9Z"/>
      <path class="st3" d="M274.6,296.5c-20.1,3.2-40.2,6.4-61.4,9.8,5-6.6,9.5-12.5,14-18.5,9.4-.7,18.8-1.3,28.2-2,5.7,4.8,12,8.3,19.2,10.6Z"/>
      <path class="st3" d="M301,193.3c-2.8,6.8-5.5,13.3-8.4,20.2-5.6-.7-11.3-1-17.2.2-2.8-6.8-5.6-13.4-8.5-20.4h34.1Z"/>
      <path class="st3" d="M241.3,256.5c.7,9.2,3.8,17,9.4,24.4-7.6,1.1-14.6,2.1-21.8,3.2-.1-1.8-.2-3.2-.3-4.9,1.8-1.4,3.7-2.7,5.7-4.2-.7-2.7-1.4-5.4-3-7.8-1.9-.3-4-.7-6.2-1.1-1.8-2.3-4.6-3.9-5.3-7.3,7.1-3.2,14.1-6.3,21.5-9.7v5.4c-.4,1.3-2,1.4-3.1,2.5,1-.2,1.9-.3,3.2-.5Z"/>
      <path class="st3" d="M298.6,345.5c-3.3,1.7-6.6,3.3-10.2,5.1v-49c3.3-.5,6.5.9,10.2.9v43Z"/>
      <path class="st3" d="M269.2,302.7c3.4-.3,6.7-1.4,10.3-1.1v49c-3.6-1.8-6.8-3.4-10.3-5.2v-42.7Z"/>
      <path class="st3" d="M326.6,257.1c1.1-1.1,2.1.5,3.1-.2-1-.7-2-1.3-3-1.9v-5.8c7.4,3.2,14.6,6.3,22,9.4-1.8,2.5-3.5,4.8-5.4,7.4-1.9,1-4.3.2-6.7.7-1.6,2.4-2.1,5.2-2.9,7.8,1.3,2.3,3.9,3,6,4.9-.2,1.3-.3,2.9-.5,4.7-7.2-1-14.1-1.7-21.2-3.4,4.2-7.7,8.7-15,8.7-23.6Z"/>
      <path class="st3" d="M250.6,304.5c3.5-.3,6.8-.6,10.5-.9v36.7c-3.5-1.8-6.8-3.6-10.5-5.5v-30.4Z"/>
      <path class="st3" d="M317.4,334.8c-3.7,2-6.9,3.6-10.6,5.6v-36.7c3.6.3,7,.6,10.6.9v30.3Z"/>
      <path class="st3" d="M241.1,305.9v23.7c-3.3-1.8-6.2-3.4-9.4-5.1v-16.5c2.7-1.4,6-1.3,9.4-2.1Z"/>
      <path class="st3" d="M336.4,307.7v16.6c-3,1.7-6.1,3.3-9.5,5.2v-23.7c3.2.6,6.3,1.2,9.5,1.8Z"/>
      <path class="st3" d="M283.9,236.6c9,0,16.4,7.3,16.3,16.2,0,10-7.4,15.6-15.8,16.2-8.9.6-16.8-7.5-16.8-16.2,0-9,7.2-16.2,16.3-16.3Z"/>
    </g>
  </g>
</svg>