<svg id="Capa_1" data-name="Capa 1" xmlns="http://www.w3.org/2000/svg" viewBox="0 0 566.93 566.93"><defs><style>.cls-1{fill:#2a4b9b;}.cls-2{fill:#be1622;}.cls-3{fill:#fff;}.cls-4{fill:#af1922;stroke:#fff;}.cls-4,.cls-5{stroke-miterlimit:10;stroke-width:8px;}.cls-5{fill:none;stroke:#be1622;}</style></defs><circle class="cls-1" cx="283.46" cy="283.46" r="276.14"/><path class="cls-2" d="M283.46,562.68A279.22,279.22,0,0,1,86,86,279.22,279.22,0,0,1,480.9,480.9,277.43,277.43,0,0,1,283.46,562.68Zm0-552.28C132.9,10.4,10.4,132.9,10.4,283.46S132.9,556.52,283.46,556.52,556.52,434,556.52,283.46,434,10.4,283.46,10.4Z"/><polygon class="cls-3" points="21.39 263.27 21.39 263.36 26.17 268.13 539.17 268.13 544.04 263.27 21.39 263.27"/><polygon class="cls-3" points="45.77 287.46 54.57 297.19 510.04 297.19 518.83 287.46 45.77 287.46"/><polygon class="cls-3" points="79.95 321.76 87.59 331.49 477.02 331.49 484.65 321.76 79.95 321.76"/><polygon class="cls-3" points="452.18 353.89 112.43 353.89 115.7 358.75 448.94 358.75 452.18 353.94 452.18 353.89"/><polygon class="cls-4" points="284.48 106.62 328.56 237.49 462.82 237.49 352.97 316.82 397.72 447.69 284.48 369.04 170.56 451.08 215.32 321.57 104.11 239.52 239.73 239.52 284.48 106.62"/><circle class="cls-5" cx="283.46" cy="283.46" r="276.14"/><path class="cls-3" d="M93.64,161.39l-4.9,7.07L70,141.28,75,134l32,8-4.9,7.07-5.66-1.51-6.27,9.07Zm-7-9.67,4-5.8-10.53-3Z"/><path class="cls-3" d="M113.25,126.23l-10.93,12.11-4.58-4.13L91.07,114,97,107.4l6.66,20.26,5-5.57-4.91-4.43,5.32-5.89L114,116.2l2.07-2.29,4.58,4.13-2.07,2.29,4.59,4.14-5.32,5.89Z"/><path class="cls-3" d="M147.22,103.22l-6,5.16-16-18.78-8.38,7.16,16,18.78-6,5.15-20-23.46,20.44-17.48Z"/><path class="cls-3" d="M154,83.23l-2.86-5L172.9,65.73l2.86,5Z"/><path class="cls-3" d="M208.69,54,222,65.88l-7.89,2.8-10.65-9.55-3.74,1.33L204,72.3,196.48,75,186.15,45.87l7.47-2.66,4.06,11.43,3.74-1.33,1.35-9.37A9.58,9.58,0,0,1,204,40.29a5.78,5.78,0,0,1,3.16-2.36c.47-.17.93-.31,1.39-.43s.88-.21,1.26-.28.86-.13,1.23-.21l2,5.61-1.66.59a1.9,1.9,0,0,0-1,.8,3,3,0,0,0-.44,1.12Z"/><path class="cls-3" d="M249.14,51.59q1,4.53-.66,7c-1.08,1.66-3.13,2.8-6.15,3.44l-10.79,2.27c-3,.63-5.35.41-7-.67s-2.8-3.13-3.43-6.15l-2.91-13.8q-.94-4.53.67-7T225,33.24L235.79,31q4.53-.95,7,.66c1.66,1.08,2.8,3.13,3.44,6.15ZM238.47,39.42a2.33,2.33,0,0,0-3.13-2L228,38.92a2.34,2.34,0,0,0-2,3.13l2.91,13.81a2.33,2.33,0,0,0,3.13,2l7.33-1.54a2.34,2.34,0,0,0,2-3.13Z"/><path class="cls-3" d="M261.83,59c-2.87.23-5-.27-6.49-1.5s-2.29-3.26-2.52-6.1l-1.11-13.93c-.24-3,.28-5.31,1.56-6.8s3.46-2.36,6.54-2.6l15.82-1.26.49,6.15-14.06,1.12A2.34,2.34,0,0,0,259.63,37l1.11,14a2.06,2.06,0,0,0,2.38,2l1.93-.16,2.28-.18,2.4-.19a7.37,7.37,0,0,0,2.32-.56l5.54-.44.46,5.75a31.1,31.1,0,0,1-5.8,1l-5.3.42Z"/><path class="cls-3" d="M308.12,41.79,301.26,52.4,295.1,52l-5.47-11.39-1.08,17.17-7.92-.5,1.94-30.8,8.36.52,7.78,16.84,9.82-15.73,8.37.52L315,59.45,307,59Z"/><path class="cls-3" d="M348,58.09c-.66,3-1.82,5-3.49,6.12s-4,1.26-7,.6l-10.77-2.37q-4.52-1-6.12-3.49t-.6-7l3-13.78q1-4.51,3.49-6.11t7-.6L344.3,33.8q4.53,1,6.12,3.49t.6,7Zm-4.72-15.48a2.34,2.34,0,0,0-2-3.16l-7.32-1.61a2.35,2.35,0,0,0-3.16,2l-3,13.78a2.34,2.34,0,0,0,2,3.15l7.32,1.61a2.34,2.34,0,0,0,3.15-2Z"/><path class="cls-3" d="M356.51,70.11c-2.71-1-4.48-2.32-5.3-4s-.75-3.92.22-6.6l4.73-13.15q1.54-4.32,4.22-5.56t7,.33l14.94,5.37-2.09,5.81L367,47.49a2.33,2.33,0,0,0-3.38,1.59l-4.75,13.21a2.05,2.05,0,0,0,1.33,2.81l1.83.66,2.15.77,2.26.82a7.63,7.63,0,0,0,2.35.44L374,69.67l-1.95,5.43a31.65,31.65,0,0,1-5.71-1.46l-5-1.79Z"/><path class="cls-3" d="M402.85,81.72c-1.4,2.74-3.05,4.42-4.93,5s-4.19.2-6.94-1.21l-9.81-5c-2.74-1.4-4.42-3.05-5-4.93s-.2-4.19,1.21-6.94l6.43-12.55c1.41-2.75,3.06-4.42,4.94-5s4.19-.2,6.94,1.2l9.8,5q4.13,2.12,5,4.93c.61,1.88.21,4.2-1.2,6.94Zm-.62-16.18A2.34,2.34,0,0,0,401.08,62l-6.67-3.42a2.34,2.34,0,0,0-3.56,1.15l-6.44,12.55a2.35,2.35,0,0,0,1.15,3.57l6.67,3.41a2.33,2.33,0,0,0,3.56-1.14Z"/><path class="cls-3" d="M413.18,91.07A7.65,7.65,0,0,1,408.64,94a6.49,6.49,0,0,1-5-1.27c-.45-.32-.89-.66-1.31-1s-.79-.68-1.12-1-.76-.7-1.1-1l3.43-4.87L405.17,86a1.87,1.87,0,0,0,1.47.33,2.14,2.14,0,0,0,1.3-.81l14.28-18,20,14.09-17.77,25.23L418,102.26l14.21-20.19-7.57-5.33Z"/><path class="cls-3" d="M452.22,90.1,469,106l-17,18,2.4,2.27-8.17,8.65-5.45-5.15,3.61-4.47L432,113.44l-4.26,3.86-5.45-5.14,8.18-8.66,2.08,2a8.73,8.73,0,0,0,2.14-.46,14.69,14.69,0,0,0,2.1-.9,10.37,10.37,0,0,0,2.23-1.63Zm-5.91,28.4L459,105l-5.93-5.61L445.05,107a13.43,13.43,0,0,1-2.44,1.88,20.12,20.12,0,0,1-2.25,1.15,11.62,11.62,0,0,1-2.22.75Z"/><path class="cls-3" d="M455.22,137l-5.36-6.72,31.41-10.12,5.5,6.89-16.84,28.39-5.36-6.72,3.07-5-6.87-8.62Zm11.26-3.91,4.4,5.51,5.9-9.22Z"/><path class="cls-3" d="M476.71,167l-4.22-6.71,20.91-13.14-4.93-7.84,5.22-3.29,14.08,22.4-5.22,3.28-4.93-7.84Z"/><path class="cls-3" d="M179.63,511.72H171l11.68-30.87h8.82l11.69,30.87h-8.6l-2-5.51h-11Zm4-11.25h7.05l-3.53-10.36Z"/><path class="cls-3" d="M205.42,480.85h18.52q4.63,0,6.72,2.1t2.1,6.72v4.41q0,4.64-2.1,6.72t-6.72,2.1H213.36v8.82h-7.94Zm19.4,8.82a2.34,2.34,0,0,0-2.64-2.65h-8.82v9.71h8.82a2.34,2.34,0,0,0,2.64-2.65Z"/><path class="cls-3" d="M263.62,511.72h-7.93v-19l-10.59,19h-8.37V480.85h7.93v19l10.59-19h8.37Z"/><path class="cls-3" d="M274.43,511.72h-8.6l11.68-30.87h8.82L298,511.72h-8.6l-2-5.51h-11Zm4-11.25h7.06l-3.53-10.36Z"/><path class="cls-3" d="M304.63,480.85h23.15v24.69h3.3v11.91h-7.49l-.44-5.73H306l-.44,5.73H298V505.54h2.86a9.4,9.4,0,0,0,1.24-1.8,14.07,14.07,0,0,0,.9-2.1,10.12,10.12,0,0,0,.51-2.71Zm15.21,24.69V487h-8.16l-.66,11a13.73,13.73,0,0,1-.48,3,21.43,21.43,0,0,1-.84,2.38,11.87,11.87,0,0,1-1.1,2.07Z"/><path class="cls-3" d="M361.51,511.72h-7.94V499.15h-11v12.57h-7.94V480.85h7.94V493h11V480.85h7.94Z"/><path class="cls-3" d="M372.31,511.72h-8.6l11.69-30.87h8.82l11.68,30.87h-8.6l-2-5.51h-11Zm4-11.25h7.05l-3.52-10.36Z"/><path class="cls-3" d="M292,332.16H239.22v-20l34.25-60H302l-34.26,60H292V290.77h25.69v21.41h10v20h-10v20H292Z"/></svg>