<svg enable-background="new 0 0 113.6 113.4" viewBox="0 0 113.6 113.4" xmlns="http://www.w3.org/2000/svg"><path d="m60.6 113.4c-2.6 0-5.1 0-7.7 0-1.7-.2-3.5-.5-5.2-.7-22.9-3.5-41.7-21.4-46.4-44-.5-2.7-.9-5.4-1.3-8.1 0-2.6 0-5.1 0-7.7.2-1.7.5-3.5.7-5.2 3.6-22.9 21.5-41.8 44.2-46.4 2.7-.5 5.4-.9 8.1-1.3h7.7c1.7.2 3.5.5 5.2.7 22.9 3.5 41.7 21.4 46.4 44 .5 2.7.9 5.4 1.3 8.1v7.7c-.2 1.7-.5 3.5-.7 5.2-3.5 22.9-21.4 41.7-44 46.4-2.9.5-5.6.8-8.3 1.3z" fill="#1b160f"/><g fill="#395938"><path d="m57.1 98.4c2.2-2.9 5.1-5.4 5.6-9.1.2-1.8-.1-3.7-.4-5.5-.4-2.2.1-4 1.9-5.1 2.9-1.8 5.9-3.5 9-4.8 1.2-.5 2.9-.2 4.3.2 7.2 1.7 13.8 4.8 20.3 8.3 1.3.7 2.3 2.3 3.1 3.6.9 1.5.4 3.1-.7 4.5-5.7 7.3-12.8 12.9-21.4 16.3-16.7 6.6-33.1 5.8-48.9-2.8-6.2-3.4-11.3-8-15.7-13.6-1.3-1.7-1.5-3.5-.3-5.1.9-1.3 2.2-2.6 3.5-3.3 5.8-3.1 11.8-5.8 18.2-7.6 3.1-.9 5.9-1 8.7.9 1.5 1 3.3 1.7 4.8 2.7 2.2 1.4 3.6 3.4 2.7 6.2-1.9 5.9 1.5 10 5.3 14.2z"/><path d="m93.3 35.3c-2.6-.3-4.8-.6-7-.8-2.9-.3-5.4.9-7.5 2.9-2.9 2.9-5.2 2.8-8.7.8-1.9-1.1-3.7-2.4-5.6-3.6-1.7-1.1-2.3-3-2.8-4.8-1.7-5.9-2.4-11.9-2.7-18-.1-1.9-.1-3.9.3-5.7.8-3.1 3-4.3 6-3.8 16.7 2.8 29.3 11.6 38.1 26 5.8 9.5 8.5 19.8 8 31-.3 6-1.6 11.8-3.9 17.4-.8 2-2.3 3-4.4 2.8-1.5-.2-3.2-.5-4.4-1.3-5.7-3.6-11.2-7.5-16-12.2-2.1-2.1-3.6-4.4-3.4-7.5.2-2.3-.1-4.7.1-7 .2-2.1 1.4-3.5 3.5-4.2.9-.3 1.8-.7 2.7-1 1.8-.7 3.3-1.9 4.2-3.6 1.3-2.3 2.3-4.7 3.5-7.4z"/><path d="m20.4 35.8c1.2 2.6 2.2 5 3.4 7.3 1.2 2.2 3.3 3.3 5.6 4 3.5 1.1 4.9 2.3 5.1 7 .1 2.2-.2 4.4-.3 6.6-.1 2.1-1.5 3.6-2.9 5.1-4 4.2-8.7 7.6-13.6 10.9-1.9 1.3-3.7 2.8-6.1 3.1-3 .4-4.7-.6-5.8-3.4-5.2-13.4-5.1-26.8.4-39.9 7.7-18.1 21-29.7 40.6-33.6.4-.1.8-.1 1.2-.2 4.1-.6 6.9 1.5 6.8 5.7-.1 7.8-.8 15.6-3.3 23-.6 1.8-1.6 3.1-3.3 4.1-2 1.1-3.8 2.5-5.8 3.5-2.4 1.2-4.8 1.4-6.9-.8-3.9-4.1-8.6-3.8-13.5-2.9-.3.2-.8.3-1.6.5z"/></g><path d="m68.2 98.1-3.5-4.3c-.2-.2-.2-.5 0-.7l3.5-4.3c.2-.3.6-.3.9 0 1.2 1.4 2.4 2.9 3.5 4.3.2.2.2.5 0 .7-1.2 1.4-2.4 2.9-3.5 4.3-.2.2-.7.2-.9 0z" fill="#adadad"/><path d="m44.5 98.1-3.5-4.3c-.2-.2-.2-.5 0-.7l3.5-4.3c.2-.3.6-.3.9 0 1.2 1.4 2.4 2.9 3.5 4.3.2.2.2.5 0 .7-1.2 1.4-2.4 2.9-3.5 4.3-.3.2-.7.2-.9 0z" fill="#adadad"/><path d="m56.6 110.2-4.1-5c-.2-.2-.2-.6 0-.8l4.1-5c .3-.3.7-.3 1 0 1.4 1.7 2.7 3.3 4.1 5 .2.2.2.6 0 .8-1.4 1.7-2.7 3.3-4.1 5-.2.3-.7.3-1 0z" fill="#adadad"/><path d="m65.4 68.4c-2.9 0-5.8 0-8.7 0 0-5.2 0-10.3 0-15.5 0-.1.1-.1.1-.2 0-.5 0-.9 0-1.4 0-.4.1-.9.1-1.3.1-.4.1-.7.2-1.1.2-.6.4-1.2.7-1.7.2-.4.5-.7.9-1 .6-.5 1.4-.8 2.1-1 .7-.1 1.4-.4 2.1-.3 0 0 0-.1.1-.1h7.8l.1.1c.4.1.9 0 1.3.2.3.1.6.1.9.2.9.3 1.5.7 2.2 1.5.4.5.7.9.9 1.5s.5 1.1.4 1.7c0 .1.1.1.1.2v4.9c-1.6 0-3.2 0-4.7 0-.1-.5-.2-1-.2-1.5s-.3-1-.3-1.5c-.1-.1-.3-.2-.4-.4-.3-.3-.7-.4-1.1-.5s-.8 0-1.2 0-.8-.1-1.2-.1c-1.3-.1-2.6.2-3.9.1-.3 0-.5.3-.8.1-.4.3-.9.4-1.1 1 0 .1-.1.2-.1.2-.1.3-.2.6-.2 1 .1 1.2-.2 2.3-.2 3.5v6.1.6h3.5c.1.1.2.2.2.2.4 1.4.4 2.9.4 4.5z" fill="#eee"/><path d="m43.2 68.3c-1.4 0-2.8 0-4.1 0-.2 0-.2 0-.2-.2 0-1.1 0-2.3 0-3.4 0-.1.1-.1.1-.2 0-.7.3-1.2.8-1.7.2-.2.6-.3.9-.5.5-.2 1-.4 1.6-.4h8.5c.5 0 .4 0 .4-.4 0-2.2 0-4.5 0-6.7 0-.5 0-1.1 0-1.6 0-.2 0-.2-.2-.2-2.1 0-4.2 0-6.2 0-.3 0-.6.1-.9.4-.1.2-.4.3-.5.5s-.1.5-.2.8c-.1.5-.1.5-.6.5-1.3 0-2.5 0-3.8 0 0-1.2 0-2.4 0-3.6l.1-.1c.2-1.4.8-1.9 1.6-2.3.7-.3 1.5-.5 2.3-.5h2.6 5.4c.2 0 .3 0 .3-.3 0-1.2 0-2.4 0-3.6h4.2c.3 0 .3 0 .3.3v19.2 3.9c0 .2 0 .2-.2.2-1.4 0-2.9 0-4.3 0 0-.6 0-1.1 0-1.7 0-.4 0-.4-.3-.4-2.1 0-4.3 0-6.4 0-.2 0-.3-.1-.5.1-.2.3-.6.4-.7.8.1.4-.1.7 0 1.1z" fill="#eee"/><path d="m45 56.8c-.1-1 .5-1.6 1.2-2.2.5-.5 1.2-.4 1.8-.6.5.2 1.1.1 1.5.5.4.3.8.6 1 1.1.2.4.4.9.4 1.4s-.1 1-.3 1.4c-.3.5-.7 1.1-1.3 1.3-.4.2-.9.3-1.4.3-1.6-.1-3.1-1.5-2.9-3.2z" fill="#eee"/></svg>