<svg enable-background="new 0 0 113.4 113.4" viewBox="0 0 113.4 113.4" xmlns="http://www.w3.org/2000/svg"><circle cx="56.7" cy="56.7" fill="#3d3d3d" r="56.7"/><circle cx="56.7" cy="56.7" fill="#fff" r="55"/><g stroke-miterlimit="10"><path d="m99.7 55.5c.1 4.2-.5 8-1.6 11.8-.4 1.3-1.1 2.6-2.6 2.9s-2.8-.2-3.9-1.3c-.9-.9-1-2-.7-3.2 1-3.5 1.6-7 1.4-10.7-.3-8.5-3-16-8.6-22.5-4.9-5.7-11-9.5-18.2-11.4-2.7-.7-3.7-2.6-2.9-5 .5-1.5 1.4-2.2 3.1-2.2 2.7 0 5.2 1.1 7.7 2.2 14.7 6.6 23.3 18 25.8 33.9.4 1.9.6 3.8.5 5.5z" fill="#c47139" stroke="#e8d577" stroke-width=".5"/><path d="m13.7 55.7c.2-12.6 4.8-23.3 14.1-31.9 5-4.6 10.9-7.7 17.4-9.6.5-.1.9-.2 1.4-.3 2.5-.3 3.8.6 4.2 3 .4 2-.6 3.5-2.9 4.1-3.2.8-6.2 2-9 3.6-10.6 6.3-16.5 15.7-17.9 28-.5 4.5.1 8.8 1.3 13 .6 2.4-1 4.1-3.1 4.6-2 .4-3.4-.6-4.1-3.1-.5-1.9-.9-3.9-1.2-5.9-.1-1.7-.3-3.6-.2-5.5z" fill="#c47139" stroke="#e8d577" stroke-width=".5"/><path d="m55.8 98.7c-10.9-.2-21.1-4.3-29.5-12.5-.3-.3-.6-.6-.8-.9-1.8-2.4-.8-5.2 2.1-5.9 1.5-.4 2.5.3 3.4 1.2 2.5 2.5 5.3 4.7 8.5 6.4 4.2 2.3 8.6 3.7 13.3 4.2 9 .9 17.1-1.2 24.5-6.4 1.8-1.3 3.5-2.7 5-4.3 2.1-2.1 5.2-1.4 6.3 1.4.4.9.2 1.8-.3 2.6-1.2 1.9-2.9 3.2-4.6 4.6-7.9 6.3-16.9 9.5-27.9 9.6z" fill="#c47139" stroke="#e8d577" stroke-width=".5"/><path d="m73.8 42c-1.1 0-1.9-.6-2.7-1.3-4-3.6-8.8-5.5-14.2-5.6-5.7-.1-10.6 1.9-14.8 5.7-1.8 1.7-3.8 1.6-5.4-.2-1.4-1.6-1.4-3.7.2-5.1 1.1-.9 2.1-1.8 3.3-2.6 3.3-2.3 7-3.9 11-4.6 1.1-.2 1.6-.6 1.7-1.8.7-5.5 1.3-11.1 1.8-16.7.1-.9.2-1.7.7-2.5.7-1.2 1.9-1.2 2.5 0 .7 1.4.8 2.9.9 4.4.4 5.1 1.1 10.2 1.7 15.4.1.9.8 1 1.4 1.1 3.5.7 6.8 2 9.9 3.8 1.7 1 3.2 2.3 4.7 3.6 1.1 1 1.4 2.4.9 3.7-.6 1.7-2 2.7-3.6 2.7z" fill="#3d3d3d" stroke="#69a354" stroke-width=".2504"/><path d="m32 47.3c2.8 0 4.3 1.9 3.7 4.6-2.2 9.6 2.6 19.3 10.7 23.7 1.3.7 2.7 1.2 4.1 1.7 2.2.8 3 2.4 2.3 4.7-.7 2-2.4 2.9-4.6 2.2-5.2-1.6-9.6-4.4-13.2-8.6-1.5-1.7-1.4-1.7-3.5-.8-4.7 2-9.4 4-14 6.2-.8.4-1.6.6-2.4.7-1.3.1-2-.9-1.4-2.1.4-.8 1.1-1.5 1.9-2 4.4-3.1 8.8-6.3 13.1-9.5.9-.7 1.1-1.3.7-2.4-1.7-5.1-1.9-10.3-.7-15.6.3-1.9 1.4-2.9 3.3-2.8z" fill="#3d3d3d" stroke="#69a354" stroke-width=".2504"/><path d="m85.5 56.7c.1 3.2-.4 6.2-1.5 9.1-.4 1.1-.1 1.7.8 2.4 4.3 3.2 8.6 6.4 13 9.4.6.4 1.1.9 1.6 1.5.4.6.7 1.2.3 1.9s-1.1.7-1.8.7c-1.1-.1-2.1-.6-3.1-1-4.5-2.2-9-4-13.6-6-1.1-.5-1.8-.4-2.6.6-3.5 4.4-8.1 7.3-13.4 9-2.8.9-4.9-.6-5-3.5-.1-1.6.8-2.8 2.5-3.4 2.6-.8 5.1-2 7.2-3.8 6.4-5.4 9.2-12.2 7.9-20.5-.1-.4-.2-.8-.2-1.2-.5-2.4.5-4 2.9-4.5 2.2-.5 3.7.6 4.3 2.9.5 2.1.8 4.3.7 6.4z" fill="#3d3d3d" stroke="#69a354" stroke-width=".2504"/><path d="m56.5 66.3c-.8 0-1.5 0-2.3 0-1.6 0-1.7.1-1.7 1.6s.1 1.5 1.7 1.5h5.8c.7 0 1.3.2 1.8.8.6.7 1.3 1.4 1.9 2.1.1.1.2.2.2.3.4 1.6-1.4 1.6-1.9 2.5-.3.5-.7.4-1-.1-.8-1.4-2.1-1.6-3.6-1.6-1.9.1-3.8.1-5.6 0-1.9 0-2.6-.8-2.6-2.7 0-4.3 0-8.6 0-12.9 0-1.4.7-1.5 1.7-1.4 1 0 1.8.1 1.7 1.4-.1 1.1 0 2.2 0 3.2 0 .8.3 1.1 1.2 1.1h5.5c.9 0 1.3.3 1.3 1.2 0 3.2.3 2.8-2.7 2.8-.5.2-.9.2-1.4.2z" fill="#c47139" stroke="#e8d577" stroke-width=".5"/><path d="m49.2 48c0-1.8 0-3.5 0-5.3 0-3 1-4.2 3.9-4.7 2.4-.4 4.9-.4 7.4.1 1.6.3 2.6 1.4 2.9 3 .2 1.1.5 2.1.4 3.2 0 .7-.3 1.1-1 1-.5 0-1 0-1.4 0-.8.1-1.3-.3-1.4-1.1-.1-1.2-.9-1.7-2-1.7s-2.2-.1-3.2 0c-1.4.1-2 .6-2.1 2-.1 2.1-.1 4.2-.1 6.4 0 .8.6.9 1.2.9.5 0 1.3-.2 1.5.5.2.8.3 1.7-.1 2.6-.2.4-.6.3-1 .3-1.3 0-2.6 0-4 0-.8 0-1.1-.4-1.1-1.2.1-2 .1-4 .1-6z" fill="#c47139" stroke="#e8d577" stroke-width=".5"/></g></svg>