<svg enable-background="new 0 0 113.4 113.4" viewBox="0 0 113.4 113.4" xmlns="http://www.w3.org/2000/svg"><circle cx="56.7" cy="56.7" r="56.7"/><g fill="#be1622"><path d="m40.1 89.3c.8-1.1 1.6-2.1 2.5-3.2.8-1 1.6-2.2 2.4-3.2.7-.9 1.4-1.7 2-2.6.8-1.1 1.7-2.1 2.5-3.2l2.1-2.7c-.1-.1-.3 0-.5 0-4.8 0-9.6 0-14.5 0-.5 0-.5 0-.5-.5 0-1.1 0-2.1 0-3.2 0-.1-.1-.3.1-.4h14.4 4.3.6c.1.1 0 .2 0 .3v5.3.3c-1.2 1.5-2.4 3.1-3.6 4.6-1.6 2-3.2 4.1-4.7 6.1-1.3 1.7-2.6 3.4-3.9 5.1-.4.5-.7 1-1.1 1.5-.1.1-.2.2-.4.2-1.8 0-3.7 0-5.5 0 0 0-.1 0-.1-.1-.1-.1-.1-.2-.1-.4 0-1.1 0-2.2 0-3.3 0-.4.1-.4.4-.4h3c .4-.2.5-.1.6-.2z"/><path d="m63 68c-.1.2 0 .3 0 .5v17.9 4.2c0 .3 0 .4.3.4h2.6c.1 0 .3 0 .3-.2s0-.3 0-.5c0-1.5 0-2.9 0-4.4 0-2.9 0-5.8 0-8.7 0-.1-.1-.4.1-.4l-.1-5.3c0-.5 0-.9 0-1.4l-3.2-2.1c0-.1 0 0 0 0z"/><path d="m75 96c .9-1.2 1.8-2.4 2.8-3.5 0-.1 0-.1 0-.2 0-1.3 0-2.7 0-4 0-.1 0-.2 0-.2-.2 0-.3 0-.5 0-1.1 0-2.2 0-3.3 0-3.7 0-7.4 0-11 0-.1.1 0 .2 0 .3v2.5c0 .4 0 .4.4.4h11.1.4c-.5.7-1.1 1.4-1.6 2.1s-1 1.3-1.5 2l2.3 2.2c.2-.6.6-1.1.9-1.6z"/><path d="m79 31.6c-.6.8-1.2 1.6-1.9 2.4 0 .2-.1.3-.3.4-.1.1-.1.2-.2.3 0 .2-.1.3-.3.4-.1.1-.1.2-.2.3-.2.4-.5.8-.8 1-1.7 2.1-3.4 4.3-5 6.4-.1.3-.3.6-.6.7-.6.8-1.2 1.6-1.9 2.4-.1.1-.1.1-.1.2-.1.1-.2.1-.3.1-1.5 0-3 0-4.5 0-.3 0-.4 0-.4-.3 0-.9 0-1.9 0-2.8 0-.1 0-.3.1-.3.6.1 1.3 0 1.9 0h1.4c.9-1 1.7-2.1 2.5-3.2 1-1.3 2-2.6 3-3.9.9-1.2 1.8-2.4 2.8-3.6.1-.1.2-.2.3-.4-.1-.1-.3 0-.4 0-3.7 0-7.5 0-11.2 0-.6 0-.5.1-.5-.5 0-.9 0-1.8 0-2.6 0-.1-.1-.2.1-.3h19.5.1v3.5c-.8.1-1.6 0-2.4 0-.3-.2-.5-.3-.7-.2z"/><path d="m78.5 23.1v2.9c0 .3-.1.4-.4.4-5.1 0-10.1 0-15.2 0-.1 0-.3 0-.4 0-.2-.1-.1-.2-.1-.3 0-.9 0-1.8 0-2.7 0-.3.1-.3.4-.3h13.1 2.3c0-.1.2-.1.3 0z"/><path d="m55.6 28.5v3.5c0 .4-.1.5-.4.5-5 0-10.1 0-15.1 0-.1 0-.3 0-.4 0-.2-.1-.1-.3-.1-.4 0-1.1 0-2.2 0-3.3 0-.4.1-.4.4-.4h13 2.3s.2-.1.3.1z"/><path d="m35.9 19.6h3.5c.4 0 .5.1.5.6v22.1.6c-.1.3-.3.2-.4.2-1.1 0-2.2 0-3.3 0-.4 0-.4-.1-.4-.5 0-6.3 0-12.7 0-19 0-1.1 0-2.3 0-3.4.1-.2 0-.4.1-.6z"/><path d="m46.4 25.5h3.5c.4 0 .5.1.5.6v19.6.5c-.1.2-.3.2-.4.2-1.1 0-2.2 0-3.3 0-.4 0-.4-.1-.4-.5 0-5.6 0-11.3 0-16.9 0-1 0-2 0-3 0-.2 0-.4.1-.5z"/><path d="m87.6 14.1c-9-6.6-19.7-10-30.9-10-11.2-.1-21.8 3.4-30.9 9.9l-1.8 1.3 6 .6c8-5.2 17.1-7.9 26.7-7.9s18.8 2.7 26.7 8l6-.6z"/><path d="m16 83.5c-5.3-7.9-8-17.2-8-26.8s2.8-18.8 8-26.8l-.5-6-1.3 1.9c-6.7 9-10.2 19.7-10.2 30.9 0 11.3 3.5 22 10.1 31l1.3 1.8z"/><path d="m83.1 97.7c-7.9 5.1-16.9 7.8-26.4 7.8s-18.7-2.7-26.6-7.9l.1-.1-6.2.6 1.9 1.3c9 6.5 19.6 9.9 30.8 9.9 11.1 0 21.7-3.4 30.7-9.9l1.9-1.3z"/><path d="m99.1 87.8c6.7-9.1 10.2-19.8 10.2-31.1 0-11.2-3.5-21.9-10-30.9l-1.3-1.9-.1.1-.4 6c5.2 7.9 8 17.1 8 26.7s-2.8 18.9-8.1 26.9l.4 6 .1.1z"/></g><path d="m12 52.7h9.7s.1 0 .1.1v1.6s0 .1-.1.1h-8.1v.1 6.3s0 .1-.1.1h-1.5s-.1 0-.1-.1z" fill="#dadada"/><path d="m22.4 52.8h9.6s.1 0 .1.1v2.4l-5.1 4h5s .1 0 .1.1v1.6s0 .1-.1.1h-9.6s-.1 0-.1-.1l.1-8.2c-.1 0-.1 0 0 0zm1.6 1.7v4.8h.1l6.1-4.8z" fill="#dadada"/><path d="m32.5 52.8h2.4c4.9 3.8 7.3 5.7 7.3 5.7v2.4s0 .1-.1.1h-1.6s-.1 0-.1-.1v-1.6c-.4-.3-2.6-1.9-6.4-4.9v6.5s0 .1-.1.1h-1.6s-.1 0-.1-.1l.3-8.1c-.1 0 0 0 0 0z" fill="#dadada"/><path d="m42.7 52.8h9.6s.1 0 .1.1v2.4l-5.1 4h5s .1 0 .1.1v1.6s0 .1-.1.1h-9.6s-.1 0-.1-.1l.1-8.2c-.1 0 0 0 0 0zm1.7 1.7v4.8h.1l6.1-4.8z" fill="#dadada"/><path d="m60.2 52.7h1.6s.1 0 .1.1v9.5c-.2.2-1.4 1.2-3.7 2.9h-.1v-2.1l2-1.6v-.6h-7.3s-.1 0-.1-.1v-2.3c.4-.2 2.8-2.1 7.5-5.8zm-5.4 6.5h5.4v-4.3c-3.5 2.7-5.3 4.1-5.4 4.3z" fill="#dadada"/><path d="m69.9 52.8h1.6s.1 0 .1.1v8s0 .1-.1.1h-9s-.1 0-.1-.1v-2.2c.3-.3 2.8-2.3 7.5-5.9zm-5.5 6.4h5.4v-4.2c-3.1 2.4-4.9 3.8-5.4 4.2z" fill="#dadada"/><path d="m79.4 51.3h1.6s.1 0 .1.1v9.5s0 .1-.1.1h-9.1v-2.3c.2-.2 2.6-2.1 7.4-5.8v-.1-1.3c0-.2 0-.2.1-.2zm-5.6 7.9h5.5v-.2-4-.1c-3.6 2.9-5.4 4.3-5.5 4.3z" fill="#dadada"/><path d="m81.5 52.8h9.6s.1 0 .1.1v2.4l-5.1 4h5s .1 0 .1.1v1.6s0 .1-.1.1h-9.6s-.1 0-.1-.1l.1-8.2c-.1 0-.1 0 0 0zm1.6 1.7v4.8h.1l6.1-4.8z" fill="#dadada"/><path d="m91.6 52.7h9.8s.1 0 .1.1v1.6s0 .1-.1.1h-8.1v1.5h8.1s.1 0 .1.1v4.9s0 .1-.1.1h-9.7s-.1 0-.1-.1v-1.6s0-.1.1-.1h8.1v-1.5h-8.1s-.1 0-.1-.1v-.2-.1-4.7c-.1.1 0 0 0 0z" fill="#dadada"/></svg>