<svg enable-background="new 0 0 317.7 317.8" viewBox="0 0 317.7 317.8" xmlns="http://www.w3.org/2000/svg"><path d="m302.1 90c1.1 2.3 2.2 4.6 3.2 7-1-2.3-2.1-4.7-3.2-7z" fill="#1c1411"/><path d="m29.3 66.9c2.2-3.1 4.5-6.1 7-9.1-2.4 3-4.7 6-7 9.1z" fill="#1c1411"/><path d="m271.2 46.6c3.6 3.6 7 7.3 10.3 11.3-3.3-4-6.7-7.7-10.3-11.3z" fill="#1c1411"/><path d="m309.4 108c .8 2.5 1.6 4.9 2.3 7.5-.7-2.6-1.5-5.1-2.3-7.5z" fill="#1c1411"/><path d="m158.9 0c19.9 0 39.7 3.7 58.3 11-18.6-7.3-38.4-11-58.3-11z" fill="#1c1411"/><path d="m281.5 57.8c2.4 2.9 4.8 6 7 9.1-2.3-3.1-4.6-6.1-7-9.1z" fill="#1c1411"/><path d="m292.7 73.3c3.5 5.4 6.6 11 9.4 16.8-2.8-5.8-5.9-11.4-9.4-16.8z" fill="#1c1411"/><path d="m21.1 79.8c.9-1.5 1.8-3 2.7-4.6-.9 1.6-1.8 3.1-2.7 4.6z" fill="#1c1411"/><path d="m52.1 41.3c1.5-1.3 2.9-2.6 4.4-3.9-1.5 1.3-3 2.6-4.4 3.9z" fill="#1c1411"/><path d="m73.3 25.1c3.2-2.1 6.5-4 9.9-5.9-3.4 1.8-6.7 3.8-9.9 5.9z" fill="#1c1411"/><path d="m91.6 14.9c1.3-.6 2.6-1.2 3.9-1.7-1.3.6-2.6 1.1-3.9 1.7z" fill="#1c1411"/><path d="m158.9 5.4c-84.8 0-153.5 68.7-153.5 153.5s68.7 153.5 153.5 153.5 153.5-68.7 153.5-153.5c0-84.8-68.7-153.5-153.5-153.5zm0 281.6c-70.7 0-128.1-57.3-128.1-128.1s57.4-128.1 128.1-128.1 128.1 57.4 128.1 128.1c0 70.7-57.4 128.1-128.1 128.1z" fill="#1c1411"/><path d="m36.3 57.8c2.4-2.9 5-5.8 7.6-8.5-2.6 2.7-5.2 5.6-7.6 8.5z" fill="#1c1411"/><path d="m15.7 90c1.7-3.5 3.5-6.9 5.4-10.2-1.9 3.4-3.7 6.8-5.4 10.2z" fill="#1c1411"/><path d="m46.6 46.6c1.8-1.8 3.6-3.5 5.5-5.3-1.9 1.7-3.7 3.5-5.5 5.3z" fill="#1c1411"/><path d="m276.5 265.7c-1.7 1.9-3.5 3.7-5.3 5.5 1.8-1.8 3.6-3.6 5.3-5.5z" fill="#1c1411"/><path d="m247.7 290.6c-3.2 2.1-6.4 4.2-9.8 6.1 3.4-1.9 6.6-3.9 9.8-6.1z" fill="#1c1411"/><path d="m259.9 281.5c-2.9 2.4-6 4.8-9.1 7 3.2-2.3 6.2-4.6 9.1-7z" fill="#1c1411"/><path d="m268.5 273.9c-2.8 2.6-5.6 5.2-8.5 7.6 2.9-2.5 5.7-5 8.5-7.6z" fill="#1c1411"/><path d="m224.3 303.7c-2.3 1.1-4.7 2.1-7.1 3 2.3-.9 4.7-1.9 7.1-3z" fill="#1c1411"/><path d="m6 115.4c.7-2.5 1.5-5 2.3-7.5-.8 2.5-1.5 5-2.3 7.5z" fill="#1c1411"/><path d="m217.1 11.1c10.7 4.2 21 9.6 30.6 16.1-9.6-6.5-19.8-11.9-30.6-16.1z" fill="#1c1411"/><path d="m158.9 317.8c19.9 0 39.7-3.7 58.3-11-18.6 7.3-38.4 11-58.3 11z" fill="#1c1411"/><path d="m238 296.7c-4.4 2.6-9 4.9-13.7 7 4.7-2.1 9.2-4.4 13.7-7z" fill="#1c1411"/><path d="m250.8 29.4c3.1 2.2 6.1 4.5 9.1 7-2.9-2.5-5.9-4.8-9.1-7z" fill="#1c1411"/><path d="m259.9 36.3c3.9 3.2 7.7 6.7 11.3 10.3-3.6-3.6-7.3-7-11.3-10.3z" fill="#1c1411"/><path d="m281.5 260c-1.6 2-3.3 3.9-5 5.8 1.7-2 3.4-3.9 5-5.8z" fill="#1c1411"/><path d="m305.3 220.7c-1 2.4-2.1 4.7-3.2 7 1.1-2.3 2.2-4.6 3.2-7z" fill="#1c1411"/><path d="m288.4 250.8c-1.5 2.1-3 4.1-4.6 6.1 1.6-1.9 3.2-4 4.6-6.1z" fill="#1c1411"/><path d="m300.4 231.2c-2.3 4.6-4.9 9-7.6 13.3 2.6-4.3 5.2-8.7 7.6-13.3z" fill="#1c1411"/><path d="m158.9 30.8c-70.7 0-128.1 57.3-128.1 128.1s57.4 128.1 128.1 128.1 128.1-57.4 128.1-128.1-57.4-128.1-128.1-128.1zm0 251.9c-68.4 0-123.8-55.4-123.8-123.8s55.4-123.8 123.8-123.8 123.8 55.4 123.8 123.8c0 68.4-55.4 123.8-123.8 123.8z" fill="#ef781b"/><path d="m158.9 35.1c-68.4 0-123.8 55.4-123.8 123.8s55.4 123.8 123.8 123.8 123.8-55.4 123.8-123.8c0-68.4-55.4-123.8-123.8-123.8zm-60.4 29.2c50.7-32.3 117.9-18.7 151.9 30.9h-20c-13.4-15.4-31.4-26-51.3-30.3-6.9-1.5-13.9-2.3-20.9-2.3-18.2 0-35.9 5.2-51.2 15-7.6 4.8-14.5 10.7-20.5 17.5l-20-.1c8.5-12.3 19.4-22.7 32-30.7zm-54.6 93.9c0-14.9 3-29.7 8.8-43.4l10.8 16.8c-2.5 8.7-3.8 17.6-3.8 26.7 0 47.2 34.5 87.4 81.2 94.6l10.7 16.8c-60-2.2-107.7-51.4-107.7-111.5zm114.9 97.1-32.1-50.3c-16.3-25.5-32.5-51.1-49-76.6-2.3-3.6-1.6-5.3 1.7-7.3 25.4-15.8 50.7-31.6 76-47.5.9-.7 2-1.1 3.1-1.3h.4c1.2.1 2.3.5 3.2 1.1 25.4 16.1 51 32 76.5 47.9 2.5 1.6 4.1 2.7 1.8 6.3-27 42-53.9 84.2-81.3 127.3zm7.3 14.3 10.7-16.8c46.7-7.2 81.2-47.3 81.2-94.6 0-9-1.3-18-3.8-26.7l10.8-16.8c24 56.8-2.6 122.2-59.4 146.2-12.4 5.2-25.9 8.2-39.5 8.7z" fill="#1c1411"/><path d="m311.7 115.4c-.7-2.5-1.5-5-2.3-7.5-1.2-3.7-2.6-7.3-4.1-10.9-1-2.4-2.1-4.7-3.2-7-2.8-5.8-5.9-11.4-9.4-16.8-1.4-2.1-2.8-4.3-4.3-6.3-2.2-3.1-4.5-6.1-7-9.1-3.2-3.9-6.7-7.7-10.3-11.3s-7.3-7-11.3-10.3c-2.9-2.4-6-4.8-9.1-7-1-.7-2.1-1.5-3.1-2.2-26.1-17.6-57.1-27.1-88.7-27-21.8 0-43.4 4.5-63.4 13.2-1.3.6-2.6 1.1-3.9 1.7-1.7.8-3.4 1.6-5.1 2.5-1.1.6-2.3 1.2-3.4 1.8-3.3 1.8-6.6 3.8-9.8 5.8-3.2 2.1-6.4 4.3-9.4 6.6-1 .8-2 1.5-3 2.3-1.5 1.2-2.9 2.3-4.3 3.5s-3 2.5-4.4 3.9c-1.9 1.7-3.7 3.5-5.5 5.3-.9.9-1.8 1.8-2.7 2.7-2.6 2.8-5.2 5.6-7.6 8.5s-4.8 6-7 9.1c-1.9 2.7-3.8 5.5-5.5 8.3-.9 1.5-1.8 3-2.7 4.6-1.9 3.3-3.7 6.7-5.4 10.2-2.8 5.8-5.2 11.8-7.3 17.9-.8 2.5-1.6 4.9-2.3 7.5-12 42.5-5.9 88.1 17 125.9 2 3.3 4.1 6.5 6.3 9.6 5.2 7.3 10.9 14.1 17.2 20.4 1.8 1.8 3.6 3.6 5.5 5.3.9.9 1.9 1.7 2.9 2.5 1.9 1.7 3.9 3.3 5.9 4.9 1 .8 2 1.6 3 2.3 3.1 2.3 6.2 4.5 9.4 6.5 1.1.7 2.2 1.3 3.3 2 2.2 1.3 4.4 2.6 6.7 3.8 1.1.6 2.3 1.2 3.4 1.8 22.4 11.5 47.2 17.4 72.3 17.4 19.9 0 39.7-3.7 58.3-11 2.4-.9 4.8-1.9 7.1-3 4.7-2.1 9.2-4.5 13.7-7 3.3-1.9 6.6-3.9 9.7-6.1 1.1-.7 2.1-1.4 3.1-2.2 3.1-2.2 6.1-4.5 9.1-7s5.8-5 8.5-7.6c.9-.9 1.8-1.8 2.7-2.7 1.8-1.8 3.5-3.6 5.3-5.5 1.7-1.9 3.4-3.8 5-5.8.8-1 1.6-2 2.4-3 1.6-2 3.1-4 4.6-6.1s2.9-4.2 4.3-6.3c2.8-4.3 5.3-8.7 7.6-13.3.6-1.1 1.2-2.3 1.7-3.4 1.1-2.3 2.2-4.6 3.2-7 13.9-33.4 16.1-70.6 6.3-105.4zm-152.8 197c-84.8 0-153.5-68.7-153.5-153.5 0-84.8 68.7-153.6 153.5-153.5 84.8 0 153.5 68.7 153.5 153.5 0 84.8-68.7 153.5-153.5 153.5z" fill="#ef781b"/><path d="m136.6 187.8-8.4-13.2c-8.1-12.8-16.6-26-25-39-.7-.9-1.1-2-.9-3.1.2-.8.8-1.6 2.2-2.4 19.3-12 36.3-22.6 51.8-32.4.4-.3.8-.5 1.3-.7l-.1-23.5c-.6.2-1.1.5-1.6.9-22.7 14.3-47.6 29.8-76 47.5-1.6 1-2.3 1.8-2.5 2.5s.2 1.9 1.2 3.4c12.3 19 24.7 38.4 36.6 57.2l12.4 19.4 21.8 34.2 8.7 13.6-.1-31.1-4.8-7.6z" fill="#ef781b"/><path d="m240.4 124.5c-.2-.8-1.1-1.4-2.4-2.2l-11.2-7c-21.4-13.4-43.6-27.2-65.3-41-.6-.4-1.3-.7-2-.9l.1 23.5c.6.1 1.2.4 1.7.8 14.8 9.3 29.9 18.8 44.4 27.8l7.7 4.8c.9.6 1.9 1.2 2.1 2.2.1.9-.2 1.9-.8 2.6-14.6 22.7-28.8 45-43.8 68.6l-11 17.2.1 30.7 15.2-23.7c22.1-34.6 42.9-67.3 64.3-100.6.6-.9 1-1.8.9-2.8z" fill="#ad5b17"/><path d="m238.5 121.4c-25.5-15.9-51-31.8-76.5-47.9-.9-.7-2.1-1.1-3.2-1.1h-.4c-1.1.2-2.2.6-3.1 1.3-25.3 15.9-50.6 31.7-76 47.5-3.3 2-4 3.7-1.7 7.3 16.5 25.4 32.7 51 49 76.6l32.2 50.3.2-.4c27.4-43 54.3-85.2 81.3-127.3 2.3-3.6.8-4.7-1.8-6.3zm-78.5 130.1-.1-30.7 11-17.2c15-23.6 29.2-45.8 43.8-68.6.6-.7.9-1.7.8-2.6-.2-1-1.2-1.6-2.1-2.2l-7.7-4.8c-14.6-9.1-29.7-18.5-44.4-27.8-.5-.3-1.1-.6-1.7-.8l-.1-23.5c.7.2 1.4.5 2 .9 21.7 13.8 43.9 27.6 65.3 41l11.1 7c1.3.8 2.3 1.5 2.4 2.2 0 1-.3 1.9-.9 2.7-21.4 33.3-42.3 66-64.3 100.6zm-2 .7-8.7-13.6-21.8-34.2-12.4-19.4c-12-18.8-24.3-38.2-36.6-57.2-1-1.5-1.3-2.6-1.2-3.4s.9-1.6 2.5-2.5c28.4-17.7 53.3-33.2 76-47.5.5-.3 1.1-.6 1.6-.9l.1 23.5c-.4.2-.9.4-1.3.7-15.5 9.8-32.4 20.4-51.8 32.4-1.3.8-2 1.6-2.2 2.4-.1 1.1.2 2.2.9 3.1 8.4 12.9 16.8 26.2 25 39l8.4 13.2 16.5 25.8 4.8 7.6zm-4.3-39-16.5-25.8-8.5-13.2c-8.1-12.8-16.6-26-25-39-.6-.7-.9-1.6-.8-2.5.1-.6.7-1.2 1.8-1.9 19.3-12 36.3-22.6 51.8-32.4.6-.5 1.4-.8 2.2-.8.7 0 1.4.3 2 .7 14.8 9.3 29.9 18.8 44.4 27.9l7.7 4.8c1 .6 1.6 1.1 1.8 1.7 0 .7-.2 1.4-.7 2-14.6 22.7-28.8 45-43.8 68.6l-11.4 18z" fill="#fff"/><path d="m170.2 203.3c15-23.6 29.2-45.8 43.8-68.6.5-.6.7-1.3.7-2-.1-.6-.8-1.1-1.8-1.7l-7.7-4.8c-14.6-9.1-29.7-18.5-44.4-27.9-.6-.4-1.3-.7-2-.7-.8.1-1.6.3-2.2.8-15.5 9.8-32.4 20.4-51.8 32.4-1.2.7-1.7 1.3-1.8 1.9-.1.9.2 1.8.8 2.5 8.4 13 16.8 26.2 25 39l8.4 13.2 16.5 25.8 5.1 8z" fill="#1d1d1c"/><path d="m272.9 158.2c0-14.2-2.7-28.2-8-41.3l-9.5 14.8c2.4 8.6 3.7 17.5 3.7 26.5 0 47.6-34.6 88.1-81.6 95.5l-9.5 14.8c58.7-3 104.9-51.5 104.9-110.3z" fill="#ef781b"/><path d="m265.1 114.7-10.8 16.8c2.5 8.7 3.8 17.6 3.8 26.7 0 47.2-34.5 87.4-81.2 94.6l-10.7 16.8c61.6-2.1 109.8-53.7 107.7-115.3-.6-13.6-3.5-27.1-8.8-39.6zm-97.1 153.8 9.5-14.8c47-7.4 81.6-47.9 81.6-95.5 0-9-1.2-17.9-3.7-26.5l9.5-14.8c22.8 56.6-4.6 121-61.3 143.8-11.3 4.5-23.4 7.2-35.6 7.8z" fill="#fff"/><path d="m87 226.5c-18.2-18.1-28.4-42.7-28.3-68.4 0-9 1.2-17.9 3.7-26.5l-9.5-14.8c-22.8 56.6 4.6 121 61.2 143.8 11.4 4.6 23.4 7.2 35.7 7.9l-9.5-14.8c-20.2-3.2-38.8-12.7-53.3-27.2z" fill="#ef781b"/><path d="m87.7 225.8c-18-17.9-28.1-42.3-28-67.6 0-9 1.3-18 3.8-26.7l-10.8-16.8c-24 56.8 2.6 122.2 59.4 146.2 12.5 5.3 26 8.3 39.6 8.7l-10.7-16.8c-20.2-3.1-38.9-12.5-53.3-27zm-11.6 9.3c-30.4-31.4-39.5-77.7-23.2-118.2l9.5 14.8c-2.4 8.6-3.7 17.5-3.7 26.5 0 47.6 34.6 88.1 81.6 95.5l9.5 14.9c-27.9-1.5-54.3-13.4-73.7-33.5z" fill="#fff"/><path d="m107 77.6c15.3-9.8 33.1-15 51.2-15 7 0 14 .8 20.9 2.3 19.9 4.4 37.9 15 51.3 30.3h20c-34.8-50.7-104.3-63.6-155.1-28.7-11.2 7.7-20.9 17.4-28.7 28.6l20 .1c6-6.8 12.9-12.7 20.4-17.6zm-38.5 16.4c35.5-49.6 104.5-61.1 154.2-25.6 10 7.1 18.7 15.9 25.8 25.8h-17.6c-13.5-15.3-31.6-26-51.5-30.3-6.9-1.5-14-2.3-21.1-2.3-27.6.1-53.8 11.9-72.1 32.5z" fill="#fff"/><path d="m106.5 76.8c15.5-9.9 33.4-15.2 51.8-15.2 7.1 0 14.2.8 21.1 2.3 20 4.3 38 15 51.5 30.3h17.6c-35.4-49.7-104.5-61.2-154.2-25.8-9.9 7.1-18.6 15.8-25.8 25.7l17.6.1c6-6.7 12.8-12.6 20.4-17.4z" fill="#ef781b"/><g fill="#fff"><path d="m22.5 128.9c-.9 3.7-2.5 5.3-4.8 4.7l-.8-.1c-2.3-.6-3.1-2.7-2.2-6.4l.4-1.9c.1-.3.2-.5.4-.5.5-.1 1.1.1 1.5.4.2.2.2.4.1.7l-.5 2c-.3.8-.3 1.6-.2 2.4.1.5.4.8.9.9l.7.2c.5.1.9-.1 1.2-.4.5-.6.9-1.4 1-2.2l1.1-4.4c.9-3.7 2.5-5.3 4.8-4.7l1 .2c2.3.6 3.1 2.7 2.2 6.4l-2.2 9.1c-.1.3-.2.5-.4.5-.5.1-1.1-.1-1.5-.4-.2-.2-.2-.4-.1-.7l2.2-9.3c.3-.8.3-1.6.2-2.4-.1-.5-.4-.8-.9-.9l-1-.2c-.5-.1-.9.1-1.2.4-.5.6-.9 1.4-1 2.2z"/><path d="m18.7 114.6c-.4-.1-.7-.5-.6-.9 0-.1 0-.1.1-.2l4-10.2c.3-.7.6-1.5 1.1-2.1.3-.5.7-1 1.2-1.4.4-.3.8-.6 1.3-.7s.9-.1 1.4.1l2.6 1c .4.2.8.5 1.1.8.3.4.5.9.5 1.4.1.6.1 1.3-.1 1.9-.1.8-.4 1.6-.6 2.3l-3.3 8.7 3.8 1.5c.4.1.5.3.6.6 0 .3 0 .7-.2 1-.1.3-.3.6-.5.8s-.6.2-.8 0zm2.1-2 4.6 1.8 3.3-8.5c.2-.5.4-1 .5-1.6.1-.3.1-.7.1-1.1 0-.2-.1-.4-.2-.6-.1-.1-.2-.3-.4-.3l-2.3-.9c-.2-.1-.3-.1-.5 0s-.4.2-.6.4c-.2.3-.5.6-.6.9-.3.5-.5 1-.7 1.5z"/><path d="m33.8 97.1 2 1.1c.4.2.9.1 1.3-.2.7-.5 1.3-1.2 1.6-2l4.4-8.1c.1-.3.3-.4.5-.4.5.1 1 .3 1.4.7.1.2.1.5 0 .7l-4.5 8.2c-1.8 3.4-3.8 4.5-5.9 3.3l-6.1-3.3c-2.1-1.1-2.3-3.4-.4-6.8l1.4-2.5c.1-.3.3-.4.5-.4.5.1 1 .3 1.4.7.1.2.1.5 0 .6l-1.4 2.6c-.5.7-.7 1.5-.8 2.4-.1.5.2.9.6 1.2l2.2 1.1 6-11c .1-.3.3-.4.5-.4.5.1 1 .3 1.4.7.1.2.1.5 0 .7z"/><path d="m49.2 82.7c-2.2 3.1-4.3 4-6.3 2.6l-5.5-4c-2-1.4-1.8-3.7.5-6.8l5.5-7.7c.2-.2.4-.4.6-.3.5.1 1 .5 1.3.9.1.2 0 .5-.1.7l-5.5 7.6c-.5.7-.9 1.4-1.1 2.3-.1.5 0 1 .4 1.3l5.5 4c .4.2.9.2 1.3 0 .7-.4 1.4-1 1.8-1.8l5.5-7.6c.2-.2.4-.4.6-.3.5.1 1 .5 1.3.9.1.2 0 .5-.1.6z"/><path d="m57.2 71.1c.2.2.4.4.4.7-.1.3-.3.6-.5.8-.2.3-.5.5-.8.6s-.6 0-.8-.2l-9.4-8c-.2-.2-.4-.4-.4-.7.1-.3.3-.6.5-.8.2-.3.5-.5.8-.6s.6 0 .8.2z"/><path d="m59 70.3c-.2.2-.4.3-.6.2-.3-.1-.5-.2-.7-.4s-.4-.4-.5-.6c0-.2 0-.5.2-.6l.9-.9c.6-.6 1.1-1.3 1.4-2.1.2-.4.1-.9-.3-1.3l-7-6.6c-.2-.2-.4-.5-.3-.7.1-.3.3-.6.5-.8s.5-.4.8-.6c.3-.1.6 0 .8.3l7 6.6c1.7 1.6 1.3 3.9-1.3 6.7z"/><path d="m61.8 47.8c.2-.2.5-.4.8-.5s.5-.1.8 0l14.3 3.6c.2 0 .3.1.4.2s.2.2.2.4v.5c0 .2-.1.3-.2.5-.1.1-.2.3-.3.4s-.3.2-.4.3c-.2 0-.3 0-.5 0l-3.9-1-8.1 7 .6 3.9v.5c-.1.1-.2.3-.3.4s-.3.2-.4.3c-.2.1-.3.1-.5.1s-.3 0-.5 0c-.1 0-.3-.1-.4-.2s-.2-.3-.2-.4l-1.9-14.3c0-.3 0-.5.1-.8-.1-.5.1-.7.4-.9zm2.6 8.8 6-5.2-7-1.9z"/><path d="m83.5 48.8c-3.2 2.1-5.4 2.2-6.8.1l-5.2-8c-.2-.2-.2-.5-.1-.8.2-.3.4-.5.7-.7s.6-.3.9-.4c.3 0 .6.2.7.4l5.3 8c .3.4.8.6 1.2.5.8-.1 1.6-.5 2.3-1l7.9-5.2c.2-.2.4-.2.6-.1s.4.3.5.6c.2.2.3.5.3.7s-.1.4-.3.6z"/><path d="m107.3 35.8-.4.2c-.1 0-.2.1-.3.1s-.3 0-.4 0l-.5-.1-15.4-4 4.3 8.9c.2.2.2.6 0 .8-.2.3-.5.4-.8.6s-.6.2-.9.3c-.2 0-.4-.2-.6-.5l-5.4-11.1c-.2-.2-.2-.5 0-.8.2-.2.4-.4.7-.6s.7-.3 1-.3.7 0 1 .1l15.1 3.9-4.3-8.9c-.2-.2-.2-.6 0-.8s.5-.4.8-.6.6-.3 1-.3c.2 0 .5.2.6.5l5.3 11.1c.2.2.2.6 0 .8-.2.3-.5.5-.8.7z"/><path d="m113.9 18.4c.3-.1.6-.1.9-.1s.5.1.7.3l11.7 8.9c.1.1.2.2.3.4v.4c0 .2-.1.3-.2.4s-.2.2-.4.3c-.1.1-.3.2-.5.2-.2.1-.3.1-.5.1s-.3-.1-.4-.2l-3.2-2.5-10.2 3.4-1.1 3.8c0 .2-.1.3-.2.4s-.3.2-.4.2c-.2 0-.3.1-.5.1s-.3 0-.5 0-.3-.1-.4-.2-.2-.2-.2-.4c0-.1 0-.3 0-.4l3.9-13.9c.1-.3.2-.5.4-.7.3-.2.5-.4.8-.5zm-1.1 9.2 7.6-2.4-5.7-4.5z"/><path d="m136.5 18.9 9.5-6.7c.2-.1.4-.2.6-.3.3-.1.6-.1 1-.2.3 0 .5 0 .8.1.2.1.4.4.4.6 0 .4-.2.8-.5 1l-9.6 6.4 11.3 4.1c.4.1.7.4.7.8 0 .3 0 .5-.2.7s-.4.3-.7.3-.7.1-1 .1c-.2 0-.4-.1-.6-.1l-11.2-4.3.6 4.9c.1.3 0 .6-.2.8-.3.2-.6.3-.9.3-.3.1-.7 0-1-.1-.2-.1-.4-.3-.4-.7l-1.4-12.3c-.1-.3 0-.6.2-.8.3-.2.6-.3.9-.3.3-.1.7 0 1 .1.2.1.4.3.4.7z"/><path d="m151.6 12.3c0-.4.3-.8.7-.9h.2l10.9.1c.8 0 1.6.1 2.4.2.6.1 1.2.3 1.8.6.4.2.8.6 1.1 1s .4.8.4 1.3v2.4c0 .5-.1.9-.4 1.3s-.7.7-1.1 1c-.6.3-1.2.5-1.8.6-.8.1-1.6.2-2.4.2l-.8-.1h-1.5-1.1l-.9-.1-.8-.1.7.2.9.3 1.3.5 1.8 1.2 4.7 1.9c.4.1.6.5.6.9 0 .3-.1.6-.3.7-.3.1-.7.2-1 .2l-.8-.1-.4-.1c-.1 0-.2-.1-.4-.1l-11.3-5v4.3c0 .3-.1.6-.3.7-.3.1-.7.2-1 .2s-.7 0-1-.2c-.2-.2-.4-.5-.3-.7zm2.6 1.2v4.6l9 .1h1.6c.3 0 .7-.1 1-.3.2-.1.4-.2.5-.4.1-.1.2-.3.2-.5v-2.1c0-.2-.1-.3-.1-.5-.1-.2-.3-.3-.5-.4-.3-.1-.6-.2-1-.3-.5-.1-1.1-.1-1.6-.1z"/><path d="m172.9 25.4c0 .3-.1.6-.4.7s-.7.1-1 .1-.6-.1-.9-.3c-.2-.2-.3-.5-.3-.8l1.2-12.3c0-.3.1-.6.4-.7s.7-.1 1-.1.7.1 1 .3c.2.2.3.5.3.8z"/><path d="m175.9 26.5c-.5-.1-1.1-.3-1.5-.5-.3-.3-.5-.7-.4-1.1 0-.2.1-.4.2-.5s.2-.2.4-.3l14.8-9c .2-.1.4-.2.6-.2.3 0 .5 0 .8.1l.4.1c.1 0 .3.1.4.2s.2.2.2.3c.1.3 0 .6-.2.9-.2.1-.4.3-.5.4l-13.4 8 11.5 2c .3 0 .5.1.6.4.1.5 0 1.1-.3 1.5-.2.2-.4.2-.6.1z"/><path d="m206.3 34.1-.4-.1c-.1 0-.2-.1-.3-.2s-.2-.2-.3-.3-.2-.3-.3-.5l-8.4-13.3-3 9.4c-.1.4-.3.6-.5.6-.3 0-.7 0-1-.1s-.6-.2-.9-.5c-.2-.2-.2-.5-.1-.8l3.8-11.8c.1-.3.2-.5.5-.6s.6 0 .9.1.6.2.9.5c.2.2.4.5.6.8l8.2 13.2 3.1-9.4c.1-.4.3-.6.5-.6.3 0 .7 0 1 .1s.6.2.9.5c.2.2.2.5.1.8l-3.8 11.8c-.1.4-.3.6-.5.6-.4 0-.7 0-1-.2z"/><path d="m223 26.1c.3.1.5.3.8.6.2.2.3.5.3.7l2.4 14.5v.5c-.1.1-.2.2-.3.3s-.3.1-.4.2c-.3 0-.7 0-1-.2-.2-.1-.3-.2-.4-.3s-.2-.3-.2-.4l-.6-4-9.7-4.7-3.4 2.1c-.1.1-.3.1-.4.1-.2 0-.3-.1-.5-.1-.1-.1-.3-.2-.4-.3s-.2-.3-.3-.4-.1-.3-.2-.4c0-.1 0-.3 0-.4.1-.1.2-.2.3-.3l12.4-7.4c.2-.1.5-.2.7-.2.3-.1.6 0 .9.1zm-7.1 5.9 7.2 3.5-1.1-7.2z"/><path d="m232.1 47.4c-.3-.2-.4-.4-.3-.6.1-.3.2-.5.3-.7s.3-.4.5-.6c.2-.1.5 0 .6.1l1.1.8c.7.5 1.4.9 2.3 1 .5.1.9-.1 1.2-.4l5.5-7.9c.2-.3.4-.5.7-.4s.6.2.9.4.5.4.7.7c.1.3 0 .6-.2.8l-5.5 7.9c-1.4 2-3.6 1.9-6.8-.3z"/><path d="m244.8 49.2-1.5 1.7c-.3.4-.3.9-.1 1.3.4.8.9 1.4 1.6 1.9l7.1 6c .2.2.3.4.3.6-.2.5-.5.9-1 1.2-.2.1-.5 0-.6-.2l-7.1-6c-2.9-2.5-3.6-4.6-2.1-6.4l4.4-5.2c1.5-1.8 3.8-1.5 6.7 1l2.2 1.9c.2.1.3.3.3.6-.2.5-.5.9-1 1.2-.2.1-.5 0-.6-.2l-2.1-1.8c-.6-.6-1.4-1-2.2-1.3-.5-.1-1 0-1.3.3l-1.6 1.9 9.6 8.1c.2.2.3.4.3.6-.2.5-.5.9-1 1.2-.2.1-.5 0-.6-.2z"/><path d="m266.5 73.7c-1.8 1.6-3.9 1-6.5-1.8l-7.4-8.1c-.3-.3-.4-.8-.1-1.1 0-.1.1-.1.2-.1l9.1-8.2c.3-.3.8-.4 1.1-.1.1 0 .1.1.1.2l7.4 8.1c2.6 2.8 3 5.1 1.2 6.7zm-11.2-10.2 6.2 6.8c.5.7 1.2 1.2 2 1.5.4.2.9.2 1.3-.1l5.1-4.6c.3-.3.4-.9.3-1.3-.3-.8-.7-1.5-1.4-2.1l-6.2-6.8z"/><path d="m266.7 78.9c-.2.2-.5.3-.8.2-.3-.2-.5-.4-.7-.7-.2-.2-.4-.5-.4-.9 0-.3.1-.6.4-.7l9.9-7.5c.2-.2.5-.3.8-.2.3.2.5.4.7.6.2.3.4.6.4.9s-.1.6-.4.7z"/><path d="m275.7 94.2c-.1-.2-.2-.3-.2-.4-.1-.1-.1-.2-.1-.3s0-.3 0-.4 0-.3 0-.5l2.2-15.6-8.4 5.3c-.2.2-.5.2-.8.1-.3-.2-.5-.4-.7-.7s-.3-.6-.4-.9c0-.3.2-.6.4-.7l10.5-6.6c.2-.2.5-.2.8-.1.3.2.5.4.6.6.2.3.3.6.4.9 0 .3 0 .7-.1 1l-2.2 15.4 8.4-5.3c.2-.2.5-.2.8-.1.3.2.5.4.7.7s.3.6.4.9c0 .3-.2.6-.4.7l-10.5 6.6c-.2.2-.5.2-.8.1-.2-.2-.5-.4-.6-.7z"/><path d="m278.9 98.7c-.2.2-.6.2-.8 0-.3-.2-.5-.5-.6-.8-.2-.3-.3-.6-.3-.9 0-.2.2-.5.5-.6l11-5.7c.2-.2.5-.2.8 0s .5.5.6.8c.2.3.3.6.3.9 0 .2-.2.5-.5.6z"/><path d="m281.2 105.5c-1.5-3.5-1.1-5.8 1.1-6.7l6.3-2.6c2.2-.9 4.1.4 5.5 3.9l3.7 8.7c.1.2.1.5 0 .7-.2.2-.4.3-.7.4-.2.1-.5.2-.8.2-.2 0-.4-.2-.5-.5l-3.6-8.7c-.3-.8-.7-1.5-1.4-2.1-.3-.3-.8-.5-1.3-.3l-6.3 2.6c-.4.2-.7.7-.7 1.1 0 .9.2 1.7.5 2.5l3.6 8.7c.1.2.1.5 0 .6-.4.4-.9.6-1.4.6-.2 0-.4-.2-.5-.5z"/><path d="m301.6 121.4c.1.3.1.6.1.9-.1.3-.2.5-.3.7l-9.5 11.2c-.1.1-.2.2-.4.2-.1 0-.3 0-.4 0-.2-.1-.3-.1-.4-.2-.3-.2-.4-.5-.5-.9 0-.2-.1-.3 0-.5 0-.2.1-.3.2-.4l2.6-3.1-2.7-10.4-3.8-1.3c-.2 0-.3-.1-.4-.3-.1-.1-.2-.3-.2-.4 0-.2-.1-.3 0-.5 0-.2 0-.3.1-.5.1-.1.1-.3.2-.4s.2-.2.4-.2h.4l13.7 4.6c.2.1.5.2.6.4.1.4.2.7.3 1.1zm-9.1-1.7 2 7.7 4.8-5.5z"/><path d="m190.7 13.2c.6 0 1.1.2 1.6.5.4.3.5.8.4 1.2 0 .2-.1.4-.2.5s-.2.3-.4.4l-15.4 10.2c-.2.1-.4.2-.6.2-.3 0-.6 0-.8-.1l-.4-.1c-.1 0-.3-.1-.4-.2s-.2-.2-.3-.3c-.1-.3-.1-.7.2-1 .2-.2.4-.3.6-.4l14-9-12.4-1.7c-.3 0-.5-.1-.6-.4s-.1-.6 0-.9c0-.3.1-.6.3-.8s.4-.3.7-.2z"/><path d="m94.7 276.5-6 10.7c-.2.4-.4.5-.7.5-.4 0-.7-.2-1-.3-.3-.2-.6-.4-.8-.7-.1-.3-.1-.6.1-.9l6-10.7-5.6-3.1c-.3-.2-.5-.4-.5-.6.1-.6.4-1.1.8-1.5.2-.1.5-.1.7.1l13.7 7.6c.3.2.5.4.5.6-.1.6-.4 1.1-.8 1.5-.2.1-.5.1-.7-.1z"/><path d="m102.8 294.8c-3.9-1.5-5.4-3.5-4.5-6l3.8-9.9c.1-.4.4-.6.6-.6.3 0 .7.1 1 .2s.7.3.9.6.2.6 0 .9l-3.8 9.9c-.2.5 0 1 .4 1.4.7.7 1.5 1.2 2.4 1.4l6 2.3c.8.4 1.8.6 2.7.5.5 0 1-.3 1.2-.8l3.8-9.9c.1-.4.4-.6.6-.6.4 0 .7.1 1.1.2.3.1.6.3.9.6.2.3.2.6 0 .9l-3.7 9.9c-1 2.5-3.4 2.9-7.3 1.4z"/><path d="m135.3 304.4-.5-.1c-.1 0-.2-.1-.3-.2s-.2-.2-.3-.3-.2-.3-.4-.5l-10.5-13.8-2.3 10.6c-.1.4-.3.6-.5.7-.4.1-.7.1-1.1 0s-.7-.2-1-.4c-.2-.2-.3-.6-.2-.9l2.9-13.3c0-.3.2-.6.5-.7s.7-.1 1 0c .4.1.7.2 1 .4s.5.5.7.8l10.4 13.7 2.4-10.7c.1-.4.3-.6.5-.7.3-.1.7-.1 1.1 0s .7.2 1 .4c.2.2.3.6.2.9l-2.9 13.3c-.1.4-.3.6-.5.7-.4.2-.8.2-1.2.1z"/><path d="m159.3 302.3c0 1.2-.7 2.3-1.8 2.9-1.5.6-3.2.9-4.8.7l-6.4-.4c-4.2-.3-6.2-1.7-6-4.4l.5-7.5c.2-2.7 2.4-3.9 6.5-3.6l3 .2c.3 0 .5.1.7.3.1.3.1.6.1.9s-.1.6-.2.9c-.2.2-.4.3-.7.2l-2.9-.2c-.9-.1-1.9 0-2.7.3-.5.2-.9.6-.9 1.1l-.5 7.5c0 .5.3 1 .8 1.2.8.4 1.8.7 2.7.7l6.3.4c.9.1 1.9 0 2.7-.3.5-.2.8-.6.9-1.1l.2-3.8c0-.3.1-.6.4-.8.3-.1.7-.2 1.1-.1.4 0 .7.1 1.1.3.3.2.4.5.3.8z"/><path d="m168.4 305.7c-4.2.4-6.4-.8-6.6-3.4l-.9-10.5c-.1-.3 0-.6.3-.8s.6-.3 1-.3c.4-.1.7 0 1.1.1.3.2.5.5.4.8l.9 10.5c.1.5.4.9.9 1.1.9.3 1.8.4 2.8.2l6.4-.6c.9 0 1.8-.3 2.7-.7.5-.2.7-.7.7-1.2l-.9-10.5c-.1-.3 0-.6.3-.8s.6-.3 1-.3c.4-.1.7 0 1.1.1.3.2.5.5.4.8l.9 10.5c.2 2.6-1.7 4.1-5.9 4.5z"/><path d="m188.8 296.1c-4.1 1-6.4.2-7.1-2.4l-.2-.8c-.6-2.6 1.1-4.3 5.2-5.3l2.1-.5c.2-.1.5 0 .7.1.3.5.5 1.1.4 1.7-.1.2-.3.4-.6.4l-2.1.5c-.9.1-1.8.5-2.5 1.1-.4.3-.6.8-.5 1.3l.2.8c.1.5.5.9 1 1 .9.2 1.8.1 2.7-.1l4.9-1.2c4.1-1 6.4-.2 7.1 2.4l.3 1c .6 2.6-1.1 4.3-5.2 5.3l-10.1 2.3c-.2.1-.5.1-.7-.1-.3-.5-.5-1.1-.4-1.7.1-.2.3-.4.6-.4l10.2-2.4c.9-.1 1.8-.5 2.5-1.1.4-.3.6-.8.5-1.3l-.3-1c-.1-.5-.5-.9-1-1-.9-.2-1.8-.1-2.7.1z"/><path d="m203.4 289.5 8.3-9.7c.1-.2.3-.3.5-.5.3-.2.7-.3 1-.5.3-.1.6-.1.8-.1.3.1.5.3.6.6.2.4 0 .9-.3 1.2l-8.5 9.5 13.1 1.3c.4 0 .8.3 1 .7.1.3.1.6 0 .8-.2.2-.4.4-.7.5s-.7.2-1 .3c-.2 0-.5 0-.7 0l-13.1-1.6 2 5.1c.2.3.2.6 0 .9-.3.3-.6.4-.9.6-.3.1-.7.2-1 .2s-.5-.2-.6-.6l-4.9-12.7c-.2-.3-.2-.6 0-.9.3-.3.6-.4.9-.6s.7-.2 1.1-.2c.3 0 .5.2.6.6z"/><path d="m223.6 273.4c.3-.2.6-.3 1-.3.3 0 .6 0 .8.2l14.6 7c .2.1.3.2.4.3s.1.3.1.5-.1.3-.1.5c-.1.2-.2.3-.3.5-.1.1-.3.3-.4.4-.2.1-.3.2-.5.2s-.4 0-.5-.1l-4-1.9-10.3 5.8-.2 4.4c0 .2-.1.3-.2.5-.1.1-.3.3-.4.3-.2.1-.3.2-.5.2s-.4 0-.6 0-.3-.1-.5-.1c-.1-.1-.3-.2-.4-.3s-.1-.3-.1-.5l1.1-15.8c0-.3.1-.6.3-.8.1-.6.4-.8.7-1zm .8 10.2 7.7-4.3-7.2-3.5z"/></g></svg>