<svg enable-background="new 0 0 113.4 113.4" viewBox="0 0 113.4 113.4" xmlns="http://www.w3.org/2000/svg"><circle cx="56.7" cy="56.7" fill="#e73731" r="56.7"/><circle cx="56.7" cy="56.7" fill="#020203" r="54.6"/><circle cx="56.7" cy="56.7" fill="#e73731" r="53.2"/><circle cx="56.7" cy="56.7" fill="#020203" r="36.2"/><circle cx="56.7" cy="56.7" fill="#e73731" r="34.8"/><circle cx="56.7" cy="56.7" fill="#020203" r="33.6"/><g fill="#fffdfc"><path d="m14.5 82.6 6.4-4 .6 1-6.4 4z"/><path d="m16.4 85.6 5.9-4.8.6.7-2 4.7 5-1.1.6.7-5.9 4.8-.7-.8 3.6-3c .1-.1.2-.1.3-.2s.2-.2.4-.3c-.2.1-.4.1-.5.2-.1 0-.2.1-.3.1l-4.1.9-.1-.2 1.7-3.9c.1-.1.1-.3.2-.4s.1-.2.2-.3c-.1.1-.2.2-.3.3s-.2.2-.3.2l-3.6 3z"/><path d="m22.3 92.3 5-5.7 3.3 2.8c.3.3.4.5.4.8s-.2.6-.5 1l-1.1 1.3c-.3.4-.6.6-.9.7s-.6 0-.9-.3l-2.4-2.1-1.9 2.2zm7-2.2-2-1.7-1.3 1.5 2 1.7c.2.1.3.2.4.2s.2-.1.4-.3l.5-.6c.1-.2.2-.3.2-.4s0-.2-.2-.4z"/><path d="m27.8 96.9 4.1-6.4 4.3 2.8-.7 1.1-3.4-2.2-.9 1.4 2 1.3-.7 1.1-2-1.3-1 1.6 3.4 2.2-.8 1.2z"/><path d="m34 100.7 3.1-6.9 3.9 1.8c.4.2.6.4.7.7s0 .7-.2 1.1l-.7 1.6c-.2.5-.4.8-.7.9s-.6.1-.9 0l-.6-.3 1 3.6-1.5-.7-.7-3.4-1-.5-1.2 2.6zm6-4.1-2.4-1.1-.9 1.9 2.4 1.1c.2.1.3.1.4.1s.2-.2.3-.4l.4-.8c.1-.2.1-.4.1-.5s-.1-.3-.3-.3z"/><path d="m40.9 103.6 2.3-7.2 1.1.4-2.3 7.2z"/><path d="m43.2 104.4 4.3-6.9 1.1.2 1.3 8-1.3-.3-.3-1.7-3.1-.6-.9 1.5zm2.8-2.5 2.2.4-.4-3.2z"/><path d="m51.4 105.9.5-7.6 1.2.1-.4 6.1 3.8.2-.1 1.4z"/><path d="m64.5 99.1-3.3.5.2 1.6 3.1-.5c.5-.1.8 0 1 .2s.4.7.5 1.4l.2 1c .1.7.1 1.2 0 1.4-.1.3-.4.5-.9.5l-3.1.5c-.5.1-.8 0-1-.2s-.4-.7-.5-1.4v-.2l1-.5.1.9 3.5-.5-.3-1.7-3.1.5c-.5.1-.8 0-1-.2s-.4-.7-.5-1.4l-.1-.8c-.1-.7-.1-1.2 0-1.4.1-.3.4-.5.9-.5l2.8-.4c.5-.1.8 0 1 .2s.4.6.5 1.2v.2l-1 .5z"/><path d="m68.7 104.6-2.2-7.2 4.9-1.5.4 1.2-3.8 1.2.5 1.6 2.2-.7.4 1.2-2.2.7.6 1.8 3.9-1.2.4 1.4z"/><path d="m75.6 102.3-3.3-6.8 3.9-1.9c.4-.2.7-.2.9-.1.3.1.5.4.7.9l.8 1.6c.2.5.3.8.2 1.1s-.3.5-.6.7l-.6.3 3.4 1.5-1.5.7-3.1-1.7-1 .5 1.3 2.6zm.7-7.3-2.4 1.2.9 1.9 2.4-1.2c.2-.1.3-.2.3-.3s0-.3-.1-.5l-.4-.8c-.1-.2-.2-.3-.3-.4s-.2 0-.4.1z"/><path d="m83.9 97.7-6.7-4.6 1.1-.8 4.8 3.4-1.5-5.6 1-.7 2 7.8z"/><path d="m87.5 95-4.9-5.8.9-.8 4.9 5.8z"/><path d="m88.5 85.5-2.2 2.3 3.5 3.3 2.2-2.3-1.2-1.1 1.1-.6.6.6c.5.5.8.9.8 1.2.1.3-.1.6-.4 1l-2.1 2.2c-.3.4-.7.5-1 .5s-.7-.3-1.2-.8l-2.9-2.8c-.5-.5-.8-.9-.8-1.2-.1-.3.1-.6.4-1l2.1-2.2c.3-.4.7-.5 1-.5s.7.3 1.2.8l.5.5-.6 1z"/><path d="m95.3 87.1-6.2-4.4 3-4.2 1.1.7-2.3 3.3 1.4 1 1.3-1.9 1.1.7-1.3 1.9 1.5 1.1 2.3-3.3 1.2.8z"/></g><path d="m15.2 39.7c-2.3-6 .8-11.8 3.5-13.7-.2 4.8-.5 9.5-3.5 13.7z" fill="#fefefe"/><path d="m12.2 50.9c-3.5-4.6-2.6-11-.3-14.1 1.2 4.7 2.1 9.3.3 14.1z" fill="#fefdfd"/><path d="m12.3 62.5c-4.2-3.2-5.5-9.3-3.9-13.6 2.2 4.4 4.4 8.6 3.9 13.6z" fill="#fefefd"/><path d="m8.1 61.7c3.3 3.6 6.4 7 7.2 12-4.6-2-8.3-8-7.2-12z" fill="#fefefe"/><path d="m20.8 30.4c-.3-3.3 2.4-7.5 5.8-9.3.4 3.3-2.9 8.7-5.8 9.3z" fill="#fefdfd"/><path d="m26.4 31c-2.3 3.4-4.9 5.8-8.7 6.9 1.1-3.7 5-6.8 8.7-6.9z" fill="#fefdfc"/><path d="m17.3 49.7c.7 2.6-1.5 8.3-3.8 9.9-.9-3.3 1-8.2 3.8-9.9z" fill="#fefdfd"/><path d="m16.9 60c1.3 2.6.6 8.6-1.1 10.7-1.7-3.3-1.3-7.8 1.1-10.7z" fill="#fefdfd"/><path d="m20.5 39.8c-.1 2.8-3.6 7.6-6.3 8.7-.1-3.4 2.8-7.5 6.3-8.7z" fill="#fefdfc"/><path d="m98.1 39.6c-2.2-2.9-4-10.3-3.3-13.5 3.3 1.4 5.1 8.8 3.3 13.5z" fill="#fefefe"/><path d="m101.3 36.7c2.4 3.2 3.2 9.7-.2 14.1-1.8-4.6-.9-9.2.2-14.1z" fill="#fefefd"/><path d="m104.9 49c1.4 2.8 1.1 9.5-3.9 13.6-.5-5.1 1.6-9.3 3.9-13.6z" fill="#fefefe"/><path d="m98 73.8c.8-5 3.9-8.5 7.2-12.1.7 3.2-1.6 9.7-7.2 12.1z" fill="#fefdfd"/><path d="m86.6 21.2c3.2 1.2 6.2 5.9 5.9 9.3-2.9-.8-5.8-5.4-5.9-9.3z" fill="#fefdfd"/><path d="m87.3 31c3.2 0 7.1 3 8.3 6.7-2.6 0-7.6-4-8.3-6.7z" fill="#fefcfc"/><path d="m96 49.7c2.9 1.7 4.6 6.1 3.9 9.9-2.3-1.2-4.6-7.2-3.9-9.9z" fill="#fefdfd"/><path d="m92.9 39.8c3.1.9 6.1 4.9 6.3 8.6-2.7-.8-6.4-6-6.3-8.6z" fill="#fefdfc"/><path d="m96.4 60c2.3 2.8 2.7 6.4 1.2 10.7-1.8-1.5-2.6-8-1.2-10.7z" fill="#fefdfd"/><path d="m46.7 10.4c.3 1.9.3 3.5.1 4.8-.3 1.3-.8 2.5-1.6 3.7l-1-.6c.8-1.3 1.3-2.4 1.5-3.4-.5-.4-.9-.7-1.1-.8-.1.4-.2.7-.3.9l-1-.9c.5-1.5.7-3.1.5-4.9l-1.1.2-.2-1 3.7-.6.2 1-1.5.2c.1.6.1 1.2.1 1.8zm-.9 1.2-.8.1c0 .3-.1.6-.2 1.2.4.2.7.4 1 .6.1-.7.1-1.3 0-1.9zm7.7-4.5-6.9 1.2-.1-.8 6.9-1.2zm.2 3.6-6.2 1-.5-3.1 6.2-1zm .7 1.3-7 1.2-.1-.8 7-1.2zm.9 4.9-7.3 1.2-.1-.8 7.3-1.2zm-.8-1.3-6.2 1-.5-3 6.2-1zm-4.7-6.1-.1-.5-1.5.3.1.5zm.2 1.2-.1-.5-1.5.2.1.5zm.6 3.7-.1-.6-1.5.2.1.6zm.2 1.2-.1-.5-1.5.2.1.5zm1.5-6.5-.1-.5-1.5.2.1.5zm.2 1.1-.1-.5-1.5.3.1.5zm.7 3.8-.1-.6-1.5.3.1.6zm.2 1.1-.1-.5-1.5.3.1.5z" fill="#fffdfc"/><path d="m68.2 16.5c-.1.5-.2 1-.4 1.3s-.4.5-.6.6-.7.1-1.2 0-.9-.1-1.2-.2-.5-.2-.6-.4-.2-.5-.1-.8l.7-4.6-2.4-.4c-.1.2-.2.4-.4.7l2.2.3c-.3 1.4-.9 2.4-1.7 3.1s-1.8 1.1-3.1 1.3l-.5-1c .9-.1 1.7-.3 2.3-.6-.3-.4-.6-.7-.9-1-.2.1-.4.3-.6.4l-.6-.9c.8-.5 1.5-1.4 2.1-2.5l-1.6-.2c-.5 2.5-1.1 4.5-2 5.8l-.8-.8c.8-1.3 1.4-3 1.7-5.1l.8-5 9.5 1.4-.5 3.2-8.4-1.3-.1.8 9 1.3-.1 1-2.8-.4-.2 1.4 2.4.4-.1 1-2.4-.4-.3 2c0 .1 0 .2.1.3s.2.1.5.1c.4.1.6.1.8.1s.3-.1.4-.4.2-.6.3-1.1zm-.8-6.7.2-1.2-7.3-1.1-.2 1.2zm-4.5 4.1-1.5-.2c-.1.2-.2.3-.4.5.2.1.5.5 1 1.1.4-.4.7-.9.9-1.4z" fill="#fffdfc"/><path d="m56.7 84.3c-14.3.7-27.6-12.2-27.8-27.5-.1-14.9 12.9-28.7 29.5-27.8 13.4.8 26.5 13.1 26 28.8-.5 14.5-13.6 27.3-27.7 26.5zm-6.8-27.7v20.1c0 .6.2.8.7.9 4 1 8.1 1 12.1 0 .5-.1.7-.3.7-.9 0-13.4 0-26.8 0-40.2 0-.5-.2-.7-.7-.8-4-1-8-1-12 0-.7.2-.8.4-.8 1.1zm19.8 17.6c1.3-.9 2.3-1.9 3.3-3 2.8-3.1 4.6-6.6 5.2-10.8.1-.5-.1-.5-.5-.5-2.5 0-4.9 0-7.4 0-.4 0-.6.1-.6.5zm-26.1 0c0-4.7 0-9.3 0-13.8 0-.4-.2-.5-.5-.5-2.5 0-5 0-7.5 0-.4 0-.5 0-.4.5.5 2.3 1 4.6 2.2 6.7 1.6 2.7 3.6 5 6.2 7.1zm26.1-34.9v13.7c0 .5.2.6.6.6h7.3c.6 0 .6-.2.5-.7-.4-2.8-1.5-5.4-3-7.8-1.4-2.2-3.2-4.1-5.4-5.8zm-26.1 0c-1.3 1.2-2.5 2.1-3.5 3.3-2.6 3-4.3 6.5-4.9 10.4-.1.4-.1.6.5.6h7.4c.4 0 .6-.1.6-.5-.1-4.6-.1-9.1-.1-13.8z" fill="#fff"/></svg>