<svg enable-background="new 0 0 113.4 113.4" viewBox="0 0 113.4 113.4" xmlns="http://www.w3.org/2000/svg"><circle cx="56.7" cy="56.7" fill="#3d3d3d" r="56.7"/><circle cx="56.7" cy="56.7" fill="#fff" r="55"/><g stroke-miterlimit="10" stroke-width=".5"><path d="m17.5 57c0 15.9 10.2 30.9 24.7 36.5 1.2.4 2.3.8 3.6.7 2.1-.1 3.4-1.1 3.8-3.1.8-3.8 1.6-7.7 2.4-11.5.1-.5.3-1.1.5-1.6s.6-1 1.2-1c .7 0 .9.6 1.1 1.1.4 1.1.3 2.2.2 3.3-.3 3.9-.6 7.8-.9 11.7-.1 1.8-.4 3.5-1.1 5.1-1.2 2.8-3.2 3.9-6.3 3.2-8-1.8-15.1-5.4-21.1-11.1-7.4-6.9-12-15.3-13.9-25.2-1.4-7.4-1-14.7 1.3-21.9 1-3.2 3.1-4.4 6.6-3.8 1.3.2 2.6.7 3.9 1.3 3.8 1.8 7.6 3.7 11.4 5.6.8.4 1.6.9 2.3 1.5.4.4.8 1 .5 1.6-.3.7-.9.7-1.5.7-.4 0-.9-.1-1.3-.3-3.7-1.2-7.4-2.3-11-3.7-2.6-1-4.9.4-5.6 2.7-.7 1.9-.7 3.9-.9 5.9 0 .7.1 1.5.1 2.3z" fill="#3d3d3d" stroke="#bcce63"/><path d="m102.3 57c-.2 13.6-5.3 25.1-15.4 34.3-5.8 5.3-12.6 8.7-20.3 10.3-3.3.7-5.2-.3-6.4-3.5-.7-1.7-.9-3.6-1-5.4-.3-4.3-.8-8.7-.9-13 0-.7 0-1.4.5-1.9.6-.8 1.4-.8 1.9 0 .4.6.5 1.2.7 1.9.8 3.6 1.6 7.2 2.2 10.8.6 3.9 3.5 4.3 6.1 3.6 2.5-.7 4.8-1.9 7.1-3.3 9.4-5.7 15.4-14 18.1-24.7 1.3-5 1.5-10.2.6-15.3-.2-1.2-.5-2.3-1.2-3.2-1-1.4-2.6-2-4.2-1.5-3.8 1.2-7.6 2.5-11.4 3.7-.7.2-1.3.4-2 .3-.5 0-1-.1-1.2-.6s0-.9.3-1.3c.5-.7 1.2-1.2 2-1.5 4.5-2.1 8.9-4.5 13.4-6.4 1.2-.5 2.5-.8 3.8-.8 2.1-.1 3.9 1 4.7 3 1.2 3 1.8 6.1 2.2 9.3.3 1.8.4 3.5.4 5.2z" fill="#3d3d3d" stroke="#bcce63"/><path d="m57.1 18c-10-.1-18.3 3-25.6 9.1-2.1 1.7-3.3 4.8.1 7.5 2.8 2.3 5.5 4.8 8.2 7.2.4.4.8.8 1.1 1.3.3.4.4.9.1 1.3-.3.5-.8.5-1.3.5-.7 0-1.3-.3-1.9-.7-4.3-2.9-8.7-5.7-12.9-8.8-1-.8-1.8-1.7-2.5-2.7-1.4-2.1-1.1-4.3.8-6.4 5.8-6.4 12.8-10.7 21-13 11.2-3.1 22.1-2.1 32.6 2.9 5.2 2.5 9.8 5.9 13.6 10.3 2 2.3 2.1 4.4.3 6.8-1.2 1.7-2.9 2.9-4.6 4-3.4 2.3-6.9 4.6-10.3 7-.6.4-1.3.8-2.1.7-1.1-.1-1.5-.7-1-1.7.3-.5.7-1 1.1-1.4 2.7-2.4 5.4-4.8 8.1-7.2 1.3-1.1 2.4-2.2 2.2-4.1-.2-1.4-.9-2.6-2-3.5-6.7-5.5-14.3-8.8-23.1-9.1-.7 0-1.5-.1-1.9 0z" fill="#3d3d3d" stroke="#bcce63"/><path d="m87.2 74.8c-.6.1-1.1-.2-1.6-.3-2.1-.5-4.2-.5-6.4 0-4.5 1.1-9.1 1.4-13.7.6-3.1-.5-5.4-2.4-7.5-4.4-1.2-1.1-1.2-1.2-2.3 0-3.3 3.5-7.4 5-12.2 4.8-3.5-.1-7-.4-10.4-1.4-1.7-.5-3.5 0-5.2.3-.4.1-.8.4-1.3.2.1-.6.6-.8.9-1.2 1.5-1.6 2.6-3.4 3.2-5.6 1.2-4.6 3.4-8.8 6.5-12.4 1.9-2.3 4.7-3.2 7.4-4 1.5-.5 1.6-.5 1.1-2-1.8-5.7 0-10.6 3.3-15.2 1.5-2.1 3-4.1 4.9-5.9 1.2-1.1 1.7-2.7 2.2-4.2.2-.6.4-1.3.6-2.1.5.7.6 1.3.8 1.9.6 2 1.6 3.8 3.1 5.3 2.9 2.8 5 6.2 6.8 9.8 1.6 3.3 1.5 6.7.6 10.2-.4 1.7-.4 1.8 1.3 2.2 4.8 1.3 8.2 4.2 10.4 8.6 1.5 2.9 2.8 5.7 3.6 8.9.4 1.8 1.6 3.2 2.8 4.5.4.4.9.7 1.3 1 0 .1-.1.3-.2.4zm-36.1-21c-.1.1-.1.1-.2.1-.2 0-.4 0-.6 0-3-.2-5.9.3-8.4 2.1-5 3.5-7.4 8.6-8.6 14.3-.1.5.1.6.5.7 3.7 1.2 7.4 1.7 11.2 1.2 5.3-.7 9.4-3 11.6-8.1.1-.1.2-.3.4-.2.1.1.1.2.2.4 1.8 4.1 5.1 6.5 9.3 7.5 4.6 1.1 9 .6 13.5-.8.5-.2.5-.5.4-.9-.7-3.6-2-6.9-4.2-9.9-3.1-4.3-7.1-6.8-12.6-6.4-.3 0-.6.2-1-.1.1-.2.2-.3.3-.5 2.4-3.4 3-7.1 2-11.2-1.2-4.9-4.1-8.7-7.7-12-.3-.3-.5-.3-.8 0-2.7 2.5-5.1 5.2-6.5 8.7-1.3 3-2.1 6-1.4 9.3.4 2.2 1.4 4 2.6 5.8z" fill="#8bcd1d" stroke="#c3e261"/></g></svg>