<svg viewBox="0 0 566.93 566.93" xmlns="http://www.w3.org/2000/svg"><circle cx="283.46" cy="283.46" r="269.29"/><path d="m89.4 456.86 25.23-24.59 4.63 1.72.17.17-12.67 12.35 21.57-3.22.16.17 1.49 4.33-17.3 2.21a16.45 16.45 0 0 1 3.5 5.44q2.11 5.39-.94 8.37l-8.24 8.07-4.63-1.72-.16-.17 9.77-9.53c.77-.75.77-2.07 0-3.95a12 12 0 0 0 -2.29-3.54 10.37 10.37 0 0 0 -3.16-2.2c-1.86-.85-3.21-.88-4-.07l-8.26 8.05-4.71-1.75z" fill="#c1272d"/><path d="m136.06 453.57 4.82 1.07.18.15-17.91 23c-.66.85-.48 2.16.55 3.91a12.44 12.44 0 0 0 6.82 5.32q2.94.86 3.93-.42l16.61-21.31 4.82 1.08.19.15-17.91 23q-2.64 3.39-8.21 1.85a17.68 17.68 0 0 1 -10.3-8q-2.85-5-.2-8.41z" fill="#c1272d"/><path d="m143.48 502.94 14.52-25.24q2.15-3.72 7.87-3a17.75 17.75 0 0 1 11.32 6.52q3.51 4.58 1.37 8.3l-13.46 23.48-4.93-.4-.2-.12 14.55-25.24c.54-.93.17-2.2-1.09-3.8a12.4 12.4 0 0 0 -7.49-4.31q-3-.45-3.84 1l-13.49 23.4-4.92-.4z" fill="#c1272d"/><path d="m175.32 520.28 10.88-27q1.61-4 7.38-4.05a17.8 17.8 0 0 1 12.11 4.88q4.13 4 2.52 8l-10.09 25.06-4.93.29-.22-.09 6.18-15.37-13.3-5.35-5.38 13.38-4.93.3zm12.13-17.55 13.3 5.35 3.1-7.72c.4-1-.13-2.2-1.61-3.61a12.5 12.5 0 0 0 -8-3.23c-2 0-3.26.49-3.66 1.49z" fill="#c1272d"/><path d="m208.48 532.49 9.83-33.84 4.88-.79.22.07-9.83 33.84-4.87.78z" fill="#c1272d"/><path d="m244.65 529 4.67-1.62h.23l-.61 5.6c-.11 1.08.73 2.09 2.53 3a12.39 12.39 0 0 0 8.6.93c2-.54 3-1.35 3.12-2.42l.74-6.8c.11-1.09-.73-2.1-2.53-3a11.66 11.66 0 0 0 -4.22-1.23 15 15 0 0 1 -5.18-1.46q-4.19-2.21-3.85-5.29l.73-6.75q.34-3.12 4.89-4.34a15.06 15.06 0 0 1 5.43-.33 14.82 14.82 0 0 1 5.22 1.49q4.19 2.21 3.85 5.29l-.33 3-4.66 1.62h-.24l.47-4.27a1.92 1.92 0 0 0 -1.27-1.91 11.29 11.29 0 0 0 -7.12-.78c-1 .29-1.57.82-1.65 1.6l-.56 5.11a1.92 1.92 0 0 0 1.27 1.91 9.54 9.54 0 0 0 3.5 1 16.9 16.9 0 0 1 6.36 1.94q5.06 2.77 4.6 7l-.74 6.79c-.31 2.84-2.31 4.8-6 5.9a17.8 17.8 0 0 1 -13-1.41q-5.06-2.78-4.6-7z" fill="#c1272d"/><path d="m278.19 535.46-.52-20.9q-.1-4.3 5.17-6.64a17.73 17.73 0 0 1 13.05-.33c3.59 1.38 5.43 3.51 5.5 6.37l.52 20.91q.1 4.29-5.17 6.63a17.73 17.73 0 0 1 -13.05.33c-3.59-1.38-5.43-3.5-5.5-6.37zm4.7-.12c0 1.07 1 2 2.91 2.68a11.8 11.8 0 0 0 4.34.66 11.49 11.49 0 0 0 4.3-.88c1.88-.8 2.8-1.74 2.77-2.82l-.52-20.9q0-1.59-2.91-2.67a12.43 12.43 0 0 0 -8.64.21c-1.88.8-2.8 1.74-2.78 2.82z" fill="#c1272d"/><path d="m314.08 540.88-5.08-33.88 4.11-2.76h.23l4.75 31.76 15.91-2.43v.24l-1.28 4.27z" fill="#c1272d"/><path d="m330.1 503.72 3.77-3.19.23-.06 7.51 28.14c.28 1 1.43 1.69 3.45 1.93a12.52 12.52 0 0 0 8.36-2.23q2.44-1.83 2-3.39l-7-26.1 3.76-3.2.23-.06 7.59 28.15q1.11 4.14-3.47 7.66a17.86 17.86 0 0 1 -12.62 3.37c-3.82-.51-6.09-2.15-6.83-4.91z" fill="#c1272d"/><path d="m376.25 526.43-11.75-29.91-9.36 3.68-.08-.22.29-4.46 21.32-8.37.09.22-.3 4.45-7.58 3 11 27.95-3.38 3.6z" fill="#c1272d"/><path d="m393.58 519.08-15.23-31.78 3.11-3.84.21-.1 15.23 31.78-3.11 3.86z" fill="#c1272d"/><path d="m404 504.9-10.88-17.9q-2.24-3.68 1.18-8.33a17.72 17.72 0 0 1 11.16-6.79q5.7-.89 7.93 2.79l10.86 17.87q2.24 3.66-1.17 8.33a17.76 17.76 0 0 1 -11.16 6.78q-5.7.92-7.92-2.75zm4-2.44c.55.91 1.83 1.2 3.85.87a12.39 12.39 0 0 0 7.39-4.49q1.85-2.44 1-3.82l-10.86-17.87c-.55-.91-1.84-1.2-3.86-.87a11.68 11.68 0 0 0 -4.09 1.58 11.83 11.83 0 0 0 -3.3 2.91c-1.22 1.63-1.56 2.9-1 3.83z" fill="#c1272d"/><path d="m438.74 492.38-18.43-22.56q-2.71-3.33 0-8.42a17.78 17.78 0 0 1 10.12-8.26q5.52-1.67 8.25 1.67l17.09 20.92-2.12 4.46-.19.15-18.42-22.56q-1-1.26-3.94-.33a11.62 11.62 0 0 0 -3.84 2.13 11.79 11.79 0 0 0 -2.86 3.34q-1.49 2.67-.46 3.92l17.06 20.93-2.12 4.46z" fill="#c1272d"/><path d="m456.91 461.51 1.5-4.71.16-.17 4.12 3.85q1.19 1.11 3.95-.2a11.79 11.79 0 0 0 3.52-2.63 11.58 11.58 0 0 0 2.38-3.69c.75-1.9.72-3.21-.07-3.95l-5-4.67q-1.2-1.12-4 .2a11.79 11.79 0 0 0 -3.52 2.63 14.65 14.65 0 0 1 -4.32 3.29q-4.28 2-6.54-.09l-5-4.64q-2.29-2.14-.54-6.51a16.13 16.13 0 0 1 7.32-7.83q4.26-2 6.53.1l2.2 2.05-1.5 4.7-.16.17-3.14-2.93a1.93 1.93 0 0 0 -2.29-.13 9.63 9.63 0 0 0 -2.88 2.22 9.86 9.86 0 0 0 -2 3 1.93 1.93 0 0 0 .29 2.28l3.76 3.51a1.91 1.91 0 0 0 2.29.13 9.68 9.68 0 0 0 2.87-2.21 17 17 0 0 1 5.37-3.93q5.25-2.39 8.4.55l5 4.67q3.12 2.91 1.12 8.34a17.12 17.12 0 0 1 -3.55 5.62 16.92 16.92 0 0 1 -5.37 3.92q-5.25 2.39-8.4-.55z" fill="#c1272d"/><path d="m256.51 240.11-1.22-.38c-3.44-1.08-7-2.19-10.43-2.19a15.35 15.35 0 0 0 -1.68.09c-3.89.44-8.16 3.35-8.25 7.29-.13 5.26 6.61 8.4 8.69 9.24a56.5 56.5 0 0 0 20.53 3.84l13.42-13.06a145.64 145.64 0 0 1 -21.06-4.83z" fill="none"/><path d="m303.84 409.53a25.09 25.09 0 0 0 .59-6.31l-2.29 12.36a45 45 0 0 0 1.7-6.05z" fill="none"/><path d="m311.1 127.67a16.89 16.89 0 0 0 -16.87-16.79h-.09a16.88 16.88 0 0 0 .08 33.76h.09a16.9 16.9 0 0 0 16.79-16.97z" fill="none"/><path d="m325.75 308.82a18.22 18.22 0 0 0 7.65-3.82 14.68 14.68 0 0 0 2.74-3.19 11.45 11.45 0 0 0 .92-1.75 17.18 17.18 0 0 0 .6-2 12.81 12.81 0 0 0 -.78-8.06 21.18 21.18 0 0 0 -5.17-7 38.6 38.6 0 0 0 -4.38-3.5l-5.55 30a25.56 25.56 0 0 0 3.97-.68z" fill="none"/><path d="m246.29 334.26a12 12 0 0 0 2.51 12.28c2.3 2.29 5.85 3.7 10.54 4.19a43.77 43.77 0 0 0 4.55.22h.11l-3.87-25c-1.35.11-2.68.29-4 .52a12.76 12.76 0 0 0 -9.84 7.79z" fill="none"/><path d="m312.13 308.86a44.62 44.62 0 0 0 4.62.59c.87.06 1.74.09 2.57.09h.81l5.74-31c-.52-.33-1.05-.66-1.6-1a57.9 57.9 0 0 0 -8.12-4h-.64c-1.53 0-3.13.06-4.76.18-9.49.71-18.92 3.25-28 5.71-5.22 1.41-10.61 2.87-16 4-1 .2-1.95.39-2.95.57l-.23.07q-.51.17-1 .3c-1.48.41-3.07.77-4.72 1.09-.75.13-1.51.26-2.28.37l2.29 14.85c1.57-.08 3.15-.13 4.75-.13 17.11-.05 34.33 4.39 49.52 8.31z" fill="#c1272d"/><path d="m283.48 215.06c2.66 0 6-.45 7.86-2.43-5.57-5.23-7.56-12.37-5.76-20.73a38.61 38.61 0 0 1 4.55-11.37 1.61 1.61 0 0 1 .08-.48l.07-.21a41.11 41.11 0 0 1 1.67-6.11 3.39 3.39 0 0 1 -.29-.53 1.62 1.62 0 0 1 .88-2.16 5.3 5.3 0 0 1 .61-.19c.1-.21.2-.42.31-.63l1.67-5.06a1.6 1.6 0 0 1 1.49-1.1 1.59 1.59 0 0 1 .72.17c2.26-7.29 5.62-8.87 8.1-8.87a5.49 5.49 0 0 1 1.2.14l.06-1.22.43-.21a29.32 29.32 0 1 0 -27-.53l.42.23.3 61.17 1.16.08c.55.03.99.04 1.47.04zm-7.74-87.21a18.49 18.49 0 0 1 18.39-18.58h.1a18.49 18.49 0 0 1 .09 37h-.1a18.47 18.47 0 0 1 -18.48-18.39z" fill="#c1272d"/><path d="m289.44 473.46a4.29 4.29 0 0 1 -.87-.77 3.44 3.44 0 0 1 -.78-2.93 3.93 3.93 0 0 1 -.53-.55 3.54 3.54 0 0 1 -.56-3.55 4.4 4.4 0 0 1 -.65-.79 3.66 3.66 0 0 1 -.06-4.06c0-.07.09-.13.13-.19s-.21-.3-.3-.46a3.81 3.81 0 0 1 .18-4.16l.12-.14a3.84 3.84 0 0 1 .17-4.22 4.72 4.72 0 0 1 2.14-1.55 41.86 41.86 0 0 1 8.07-22.93l.2-.27.07-.09q1.38-2.31 2.51-4.54l4.45-24.05a22 22 0 0 0 -3.25-7.21 27.86 27.86 0 0 0 -7-6.89 45.58 45.58 0 0 0 -8.93-4.82 67.08 67.08 0 0 0 -9.84-3.17q-2.76-.66-5.44-1.11l17.63 114 2.62-14.15a3.07 3.07 0 0 1 -.08-1.4z" fill="#c1272d"/><path d="m282.16 245.54q-1.29-.15-2.58-.33l-13.14 12.79a118.8 118.8 0 0 0 19.21-2c4.15-.74 8.37-1.61 12.45-2.47 3.47-.72 7-1.45 10.53-2.11l-6.34-6.8v-.34-.21a32.35 32.35 0 0 1 -12 2 69.12 69.12 0 0 1 -8.13-.53z" fill="#c1272d"/><path d="m263.92 325.77q-1.12 0-2.22.06l3.87 25.08c3.38-.1 6.81-.46 10.14-.83a111.89 111.89 0 0 1 12.21-.9c.88 0 1.74 0 2.57.06a46.54 46.54 0 0 1 21.1 6.43l3.32-18a165 165 0 0 1 -21-5.61c-10.28-3.22-20.01-6.29-29.99-6.29z" fill="#c1272d"/><path d="m279.83 154.25a30.18 30.18 0 1 1 27.69.54v.94l.3.12h.5v-.5a30.94 30.94 0 0 0 -14.07-58.5h-.16a31 31 0 0 0 -15.09 57.87l.3 60.08.8.08z"/><path d="m311.91 127.67a17.69 17.69 0 1 0 -17.59 17.77 17.68 17.68 0 0 0 17.59-17.77zm-17.69 17a16.88 16.88 0 0 1 -.08-33.76h.09a16.88 16.88 0 0 1 .08 33.76z"/><path d="m303.11 244.32 6.45 6.93.95-.17-6.58-7.08v-.67c-.27.13-.55.24-.83.36z"/><path d="m304.43 403.22a23.47 23.47 0 0 0 -.28-2.92l-3.53 19.08c.57-1.28 1.08-2.54 1.52-3.8z"/><path d="m312.33 356.11.73.46 3.44-18.57c-.26 0-.53-.07-.79-.12z"/><path d="m264 351h.81l-3.87-25.05-.81.06z"/><path d="m327.33 279.45-.73-.5-5.6 30.55.83-.07z"/><path d="m254.71 285.89-.8.1 2.27 14.72h.81z"/><path d="m264.15 258h1.13l13.29-12.93-1-.15z"/><path d="m290.39 476.3a3.33 3.33 0 0 1 -.25-.28l-3.29 17.81-18.39-119-.84-.13 19.16 123.91 3.94-21.34a3.35 3.35 0 0 1 -.07-.77z"/><path d="m255.51 285.78-.8.11 2.29 14.78h.81z"/><path d="m286.92 489-17.63-114-.83-.13 18.39 119 3.29-17.87a3.25 3.25 0 0 1 -.6-1.15z"/><path d="m326.6 279-.73-.47-5.74 31h.82z"/><path d="m294.32 146.24a18.49 18.49 0 0 0 -.09-37h-.1a18.49 18.49 0 0 0 .09 37zm-17.78-18.39a17.69 17.69 0 1 1 17.78 17.59 17.68 17.68 0 0 1 -17.78-17.59z"/><path d="m304.15 400.3a21.31 21.31 0 0 0 -.43-2.11l-4.45 24.05c.49-1 .93-1.91 1.35-2.86z"/><path d="m280.63 153.77-.42-.23a29.37 29.37 0 1 1 27 .53l-.43.21-.06 1.22a5.08 5.08 0 0 1 .8.23v-.94a30.13 30.13 0 1 0 -27.69-.54l.29 60.63.81.06z"/><path d="m264.76 350.93h.81l-3.87-25.08-.81.05z"/><path d="m302.31 244.28v.34l6.34 6.8.93-.17-6.45-6.93v-.61c-.27.12-.54.25-.82.36z"/><path d="m265.28 258h1.16l13.14-12.79-1-.14z"/><path d="m311.59 355.67.74.44 3.38-18.28-.8-.12z"/><g fill="#c1272d"><path d="m328.84 271.27-1.19 6.46a42.13 42.13 0 0 1 5.16 4 22.91 22.91 0 0 1 5.55 7.53 14.39 14.39 0 0 1 .86 9.06 18.48 18.48 0 0 1 -.66 2.23 13.56 13.56 0 0 1 -1.06 2 16.76 16.76 0 0 1 -3 3.54 19.79 19.79 0 0 1 -8.33 4.22 27 27 0 0 1 -4.66.69l-4.69 25.32 1.62.22a59.6 59.6 0 0 0 7.56.48c16.61 0 33.39-6.8 43.47-19.91 11.61-15.1 12.18-38.59-.76-52.57-9.38-10.12-23.82-14-37.69-14-.71 0-1.43 0-2.14 0a121.82 121.82 0 0 0 -17 1.87l17.11 18.39z"/><path d="m304.73 241.11s13.6-6.67 9.49-25.57c0 0 16-16.85 5.48-32.94 0 0 0-.38 0-1a5.58 5.58 0 0 0 .77.49l-1-3.35a40.11 40.11 0 0 0 -.66-4.06 2 2 0 0 0 .48-.63 2.8 2.8 0 0 0 -.67-.18 15.17 15.17 0 0 0 -2.29-5.42l-.41-1.36c-.09.21-.16.43-.23.65a4.34 4.34 0 0 0 -1-.73s-.74-9.62-5.84-9.62a4 4 0 0 0 -.59 0l-4.14 84.06c.16-.1.39-.21.61-.34z"/><path d="m305.41 409.88a52 52 0 0 1 -4.59 12.84l-9.23 49.88h.11l-.17.17-.36 1.92a1.48 1.48 0 0 0 .31.42 2.42 2.42 0 0 0 1.08.62 1.65 1.65 0 0 0 -.27.53 1.52 1.52 0 0 0 .51 1.57 2.4 2.4 0 0 0 1 .47 2.12 2.12 0 0 0 -.13.38 1.55 1.55 0 0 0 .65 1.53 2.2 2.2 0 0 0 1 .38v.05a1.37 1.37 0 0 0 .58 1.36 2 2 0 0 0 1.22.37 1.63 1.63 0 0 0 .31 0h.25l.49-.1c.32-.08.64-.17 1-.28a7.43 7.43 0 0 0 1.56-.74l.36.39-.29-.43.18-.1a10.19 10.19 0 0 0 .82-.61 1.49 1.49 0 0 0 .58-1.09 1.57 1.57 0 0 0 -.43-1.11 1.7 1.7 0 0 0 -.34-.26 1.31 1.31 0 0 0 .31-.84 1.77 1.77 0 0 0 -.5-1.27 1.74 1.74 0 0 0 -.74-.44 1.78 1.78 0 0 0 -.39-1.3 2 2 0 0 0 -.34-.31 1.17 1.17 0 0 0 .22-.52 2 2 0 0 0 -.31-1.42 1.82 1.82 0 0 0 -.59-.55 1.49 1.49 0 0 0 .2-.15 1.47 1.47 0 0 0 .51-.78 2.18 2.18 0 0 0 -.21-1.65 2 2 0 0 0 -.77-.76 1.62 1.62 0 0 0 .57-.82 2.41 2.41 0 0 0 -.18-1.78 2.19 2.19 0 0 0 -.37-.48l.13-.08a1.7 1.7 0 0 0 .71-.84 2.73 2.73 0 0 0 0-2 2.43 2.43 0 0 0 -.57-.81 4.44 4.44 0 0 0 .49-.24 1.79 1.79 0 0 0 .8-.85 2.85 2.85 0 0 0 .08-2.11 2.68 2.68 0 0 0 -.74-1.07 3.58 3.58 0 0 0 .48-.24 1.91 1.91 0 0 0 .82-.86 2.88 2.88 0 0 0 .08-2.16 3 3 0 0 0 -1.8-1.71 6.09 6.09 0 0 0 -1.71-.55c4.81-10.47 16.4-16.78 24.22-25.65a46.18 46.18 0 0 0 7.71-47.37 45.37 45.37 0 0 0 -17-20.07l-7.38 39.85a26.34 26.34 0 0 1 .07 11.67z"/><path d="m263.89 352.56a46.75 46.75 0 0 1 -4.72-.23c-4.19-.44-8.51-1.67-11.5-4.65a13.52 13.52 0 0 1 -2.89-14 14.31 14.31 0 0 1 11-8.83c1.34-.25 2.68-.42 4-.54l-3.41-22h-.16c-8.44.56-17 2.42-24 7.17a33.67 33.67 0 0 0 -14.51 27.8 34.13 34.13 0 0 0 15 27.56c9.33 6.19 21 7.35 32.21 8l.71.05c.57.06 1.13.14 1.69.21l-3.17-20.51z"/><path d="m262.53 259.56a57.42 57.42 0 0 1 -19.53-3.91c-4.77-1.93-9.82-5.62-9.69-10.77.12-4.77 4.94-8.32 9.68-8.85a16.56 16.56 0 0 1 1.86-.1c4.11 0 8.16 1.42 12.12 2.64a142.11 142.11 0 0 0 22 4.94l.44-.43-.13-26.66c-12-1.19-23.87-5.57-35.71-5.57h-1.3a1 1 0 0 0 -.39-.11c-.75 0-1.5-.05-2.25-.05a50.6 50.6 0 0 0 -16.41 2.75 38.42 38.42 0 0 0 -8.55 4.16 27 27 0 0 0 -3.75 3 39.55 39.55 0 0 0 -3.18 3.54 38 38 0 0 0 -7.67 17.19 36.06 36.06 0 0 0 1.93 18.67 37.23 37.23 0 0 0 4.4 8.38 36.47 36.47 0 0 0 6.34 7 40 40 0 0 0 16.72 8.47 42.88 42.88 0 0 0 9.35 1.1c1.19 0 2.39.05 3.58.05 1.93 0 3.85-.05 5.78-.16s3.66-.27 5.48-.5l-2.17-14.09z"/><path d="m298.09 427.7c-.1.13-.21.26-.31.4a40.91 40.91 0 0 0 -7.78 23.19 4.35 4.35 0 0 0 -.46.11 3.49 3.49 0 0 0 -1.94 1.19 2.23 2.23 0 0 0 -.08 2.43 3.52 3.52 0 0 0 .95 1 2.88 2.88 0 0 0 -1.16.89 2.21 2.21 0 0 0 -.08 2.38 3.49 3.49 0 0 0 1.44 1.34 2.91 2.91 0 0 0 -1.31 1 2.08 2.08 0 0 0 .05 2.26 3.41 3.41 0 0 0 1.63 1.29h.06a2.4 2.4 0 0 0 -.81.86 1.9 1.9 0 0 0 .24 2.05 2.94 2.94 0 0 0 1.42 1 2.48 2.48 0 0 0 -.42.56 1.8 1.8 0 0 0 .28 1.93 2.13 2.13 0 0 0 .3.3l8.27-44.68z"/><path d="m281.05 243.78 1.3.17a70.32 70.32 0 0 0 8 .53 30 30 0 0 0 12.09-2.21l4.19-85.14a4 4 0 0 0 -1.12-.16c-2 0-4.91 1.45-6.92 9a8.36 8.36 0 0 0 -1.41 1.46 10.19 10.19 0 0 0 -.49-1.74l-1.69 5.15c-.24.47-.48 1-.72 1.51h-.12a2.69 2.69 0 0 0 -1 .19 1.81 1.81 0 0 0 .66.79 40.25 40.25 0 0 0 -2 6.9l-.1.3h.05c0 .18-.07.36-.11.56 0 0-12.68 19.31 1.82 31.29-1.85 3.36-6.08 4.29-10 4.29-.5 0-1 0-1.48 0l-1.06-.08.13 27.21z"/><path d="m262.08 282.77c.44-.12.87-.26 1.3-.39q1.51-.27 3-.57c14.81-3.06 29.17-8.6 44.25-9.72 1.62-.13 3.25-.19 4.88-.19h.95a57.74 57.74 0 0 1 8.63 4.2c.37.22.73.45 1.09.68l1-5.42-17.26-18.55c-8 1.45-16 3.34-24 4.77a118.68 118.68 0 0 1 -20.43 2h-.71l-11.58 11.3 2.06 13.31c.75-.11 1.49-.23 2.24-.37 1.5-.29 3.07-.63 4.58-1.05z"/><path d="m287.92 350.79c-7.37 0-14.74 1.48-22.1 1.72l3.18 20.81c2 .33 4.07.73 6.07 1.21a70.5 70.5 0 0 1 10.08 3.25 47.3 47.3 0 0 1 9.24 5 29.9 29.9 0 0 1 7.37 7.3 23.41 23.41 0 0 1 2.54 4.79l6.93-37.48a44.77 44.77 0 0 0 -20.86-6.53q-1.21-.07-2.45-.07z"/><path d="m319.32 311.15c-.89 0-1.79 0-2.69-.1a43.84 43.84 0 0 1 -4.84-.61c-16.23-4.19-32.64-8.33-49.24-8.33q-2.25 0-4.5.12l3.4 22c.82 0 1.65-.07 2.47-.07 17.14 0 33.93 9 51.29 12l4.62-25z"/><path d="m304.06 241.47 4.14-84.06a5.19 5.19 0 0 0 -.64.13l-.17-.1-4.16 84.47z"/><path d="m326.92 277.24.73.49 1.19-6.46.08-.4-17.11-18.39-.94.17 17.18 18.47z"/><path d="m263.66 259.59c-.38 0-.76 0-1.13 0l-11 10.75 2.17 14.09.8-.1-2.12-13.7z"/><path d="m260.64 324.29-3.4-22h-.81l3.41 22z"/><path d="m320.65 311.12-4.65 25.14.79.13 4.69-25.32z"/><path d="m291.11 473.43a1.58 1.58 0 0 0 .09 1.28l.36-1.92a1.89 1.89 0 0 0 -.45.64z"/><path d="m264.2 352.56 3.17 20.51.83.12-3.2-20.66z"/><path d="m279 243.51 1 .13.23-.22-.13-26.93-.8-.07.13 26.66z"/><path d="m305.36 398.16 7.38-39.85-.73-.47-7.14 38.55c.19.61.35 1.18.49 1.77z"/><path d="m299.56 425.13-8.74 47.25a4 4 0 0 0 .45.16l.32.06 9.23-49.88c-.41.81-.82 1.62-1.26 2.41z"/><path d="m319.83 311.14-4.62 25 .79.13 4.65-25.14z"/><path d="m265 352.53 3.19 20.66.84.13-3.22-20.81z"/><path d="m298.35 427.25-8.27 44.68a2.82 2.82 0 0 0 .74.45l8.74-47.25c-.4.72-.8 1.42-1.21 2.12z"/><path d="m304.87 396.39 7.13-38.55-.74-.46-6.93 37.48c.21.5.38 1.02.54 1.53z"/><path d="m327.18 271.37-1 5.42.74.45 1.13-6.12-17.18-18.47-.95.17z"/><path d="m264.79 259.61h-1.13l-11.32 11 2.12 13.7.8-.11-2.06-13.31z"/><path d="m280 243.64 1 .14-.13-27.21-.81-.06.13 26.93z"/><path d="m261.45 324.23-3.4-22h-.81l3.4 22z"/><path d="m303.23 241.91 4.16-84.47a4.29 4.29 0 0 0 -.79-.31l-4.19 85.14c.27-.12.59-.27.82-.36z"/></g><path d="m369.86 263.52c-8.69-9.38-22.49-14.52-38.86-14.52-.72 0-1.46 0-2.19 0a126 126 0 0 0 -18.29 2.08l.65.71a123.48 123.48 0 0 1 17.66-2h2.18c16.15 0 29.74 5.07 38.27 14.28 12.66 13.68 13 37.73.81 53.61-9.74 12.66-26.23 20.22-44.11 20.22a60.94 60.94 0 0 1 -7.66-.48c-.55-.07-1.11-.16-1.66-.25l-.15.79c.57.09 1.14.19 1.71.26a62.55 62.55 0 0 0 7.76.49c18.13 0 34.86-7.68 44.74-20.54a45.29 45.29 0 0 0 9.16-27.69c-.03-10.48-3.59-20.01-10.02-26.96z"/><path d="m331.71 283a21.18 21.18 0 0 1 5.17 7 12.81 12.81 0 0 1 .78 8.06 17.18 17.18 0 0 1 -.6 2 11.45 11.45 0 0 1 -.92 1.75 14.68 14.68 0 0 1 -2.74 3.19 18.22 18.22 0 0 1 -7.65 3.87 25.56 25.56 0 0 1 -4 .61l-.15.82a26.39 26.39 0 0 0 4.32-.65 19.18 19.18 0 0 0 8-4 16 16 0 0 0 2.88-3.37 11.6 11.6 0 0 0 1-1.9 14.56 14.56 0 0 0 .62-2.1 13.67 13.67 0 0 0 -.8-8.57 22.12 22.12 0 0 0 -5.37-7.26 40.7 40.7 0 0 0 -4.77-3.78l-.16.87a38.6 38.6 0 0 1 4.39 3.46z"/><path d="m308.79 156.56c5.11 0 6.35 7.76 6.59 9.87a.75.75 0 0 1 .48-.16.79.79 0 0 1 .73.57l.37 1.22a15.19 15.19 0 0 1 2.22 5.11 2.08 2.08 0 0 1 .32.12.81.81 0 0 1 .44.45.83.83 0 0 1 0 .64 2.66 2.66 0 0 1 -.34.53c.24 1.14.43 2.36.58 3.65l1 3.28a.83.83 0 0 1 -.26.86l-.16.1c9.2 15-3.57 30.56-5.69 33 3.92 19-9.86 26-10 26.05-.35.21-.71.39-1.08.58v.94c.52-.26 1-.54 1.54-.83a20.68 20.68 0 0 0 6.82-6.17c2.74-3.84 5.56-10.45 3.63-20.34a41.44 41.44 0 0 0 6.43-10.27c3.54-8.17 3.32-16-.6-22.81a1.59 1.59 0 0 0 .18-1.33l-1-3.21c-.14-1.15-.31-2.26-.51-3.3.07-.12.14-.24.2-.37a1.62 1.62 0 0 0 -.79-2.16 15.86 15.86 0 0 0 -2.16-4.86l-.33-1.1a1.59 1.59 0 0 0 -1.32-1.12c-.61-4.14-2.64-9.72-7.29-9.72-.17 0-.34 0-.51 0v.8a3.48 3.48 0 0 1 .51-.02z"/><path d="m243.62 254.16c-2.08-.84-8.82-4-8.69-9.24.09-3.94 4.36-6.85 8.25-7.29a15.35 15.35 0 0 1 1.68-.09c3.44 0 7 1.11 10.43 2.19l1.22.38a145.64 145.64 0 0 0 21.06 4.81l.73-.71a143.61 143.61 0 0 1 -21.55-4.87l-1.22-.38c-3.49-1.09-7.11-2.22-10.67-2.22a17 17 0 0 0 -1.77.09c-4.23.48-8.86 3.7-9 8.07-.14 5.78 7 9.12 9.19 10a56.85 56.85 0 0 0 20 3.86l.81-.79a56.5 56.5 0 0 1 -20.47-3.81z"/><path d="m303.84 409.53a45 45 0 0 1 -1.7 6.05l-.75 4a48.19 48.19 0 0 0 3.23-9.9 26 26 0 0 0 .35-9.41l-.54 2.91a25.09 25.09 0 0 1 -.59 6.35z"/><path d="m265.6 373.66-.68-.05c-11.26-.63-23.05-1.77-32.61-8.1a34.11 34.11 0 0 1 -.54-56.7c6.26-4.24 14.26-6.62 24.45-7.3h.09l-.13-.8c-10.34.68-18.47 3.11-24.85 7.43a34.92 34.92 0 0 0 .55 58c9.72 6.44 21.64 7.6 33 8.24h.4.26l2.08.27-.12-.83z"/><path d="m330.46 378.07a46.8 46.8 0 0 1 -7.85 48.22 99 99 0 0 1 -9.71 9.16c-5.6 4.82-10.9 9.39-13.95 15.41a4.72 4.72 0 0 1 .92.38 3.66 3.66 0 0 1 1.86 4.61.83.83 0 0 1 -.06.21 2.42 2.42 0 0 1 -.8 1 3 3 0 0 1 .27.57 3.76 3.76 0 0 1 0 2.5.83.83 0 0 1 -.06.21 2.44 2.44 0 0 1 -.84 1 1.15 1.15 0 0 1 .12.25 3.48 3.48 0 0 1 .11 2.36.85.85 0 0 1 0 .22 2.46 2.46 0 0 1 -.5.79 3.2 3.2 0 0 1 .28 2.11 1.36 1.36 0 0 1 0 .21 2.18 2.18 0 0 1 -.21.52 2.69 2.69 0 0 1 .34.47 3 3 0 0 1 .33 2 .75.75 0 0 1 0 .21 1.94 1.94 0 0 1 -.32.72l.09.13a2.72 2.72 0 0 1 .46 1.78.74.74 0 0 1 0 .21 1.7 1.7 0 0 1 0 .22 2.57 2.57 0 0 1 .55 1.3 2.14 2.14 0 0 1 .55.43 2.55 2.55 0 0 1 .72 1.59.73.73 0 0 1 0 .25 2.07 2.07 0 0 1 -.11.62 2.39 2.39 0 0 1 .56 1.34.73.73 0 0 1 0 .25 2.18 2.18 0 0 1 -.75 1.56l-.07.07c-.19.17-.35.29-.49.4a.82.82 0 0 1 -.27.8.84.84 0 0 1 -.52.18.81.81 0 0 1 -.51-.18 8.62 8.62 0 0 1 -1.15.49 10.17 10.17 0 0 1 -1 .3l-.52.11h-.26a2.32 2.32 0 0 1 -.44 0 2.83 2.83 0 0 1 -1.68-.51 2.19 2.19 0 0 1 -.92-1.45 3 3 0 0 1 -.66-.34 2.42 2.42 0 0 1 -1-2.07 3 3 0 0 1 -.53-.35 2.35 2.35 0 0 1 -.8-2.31 3.33 3.33 0 0 1 -.51-.4l-.29 1.54a3.23 3.23 0 0 0 1.11 1.81l.23.17a3.16 3.16 0 0 0 1.37 2.29 3.26 3.26 0 0 0 .4.24 3 3 0 0 0 1.18 1.55 3.68 3.68 0 0 0 2.11.64 4.89 4.89 0 0 0 .55-.05l.29-.05a5.6 5.6 0 0 0 .59-.12 11 11 0 0 0 1.1-.32 7 7 0 0 0 .88-.35 1.54 1.54 0 0 0 .52.09 1.62 1.62 0 0 0 1.6-1.4l.15-.12.11-.11.06-.06a2.94 2.94 0 0 0 1-2.1 1.41 1.41 0 0 0 -.05-.46 3.18 3.18 0 0 0 -.48-1.33 3 3 0 0 0 0-.43 1.3 1.3 0 0 0 0-.44 3.42 3.42 0 0 0 -.93-2 3.34 3.34 0 0 0 -.4-.35 3.69 3.69 0 0 0 -.43-1 1.22 1.22 0 0 0 0-.27 3.62 3.62 0 0 0 -.42-1.91 3 3 0 0 0 .17-.5 2.2 2.2 0 0 0 0-.36 3.88 3.88 0 0 0 -.45-2.47 1.63 1.63 0 0 0 -.11-.17.76.76 0 0 0 .06-.2 2.14 2.14 0 0 0 .06-.35 4.07 4.07 0 0 0 -.16-2.05 3 3 0 0 0 .32-.65 1.39 1.39 0 0 0 .09-.35 4.36 4.36 0 0 0 -.06-2.53 3.32 3.32 0 0 0 .61-.93 1.42 1.42 0 0 0 .11-.35 4.55 4.55 0 0 0 0-3 .76.76 0 0 0 0-.11 2.88 2.88 0 0 0 .56-.87 1.42 1.42 0 0 0 .11-.35 4.45 4.45 0 0 0 -2.28-5.51l-.16-.08c3-5.5 8.06-9.83 13.35-14.38a99.32 99.32 0 0 0 9.78-9.24 47.63 47.63 0 0 0 8-49.06 47 47 0 0 0 -18.14-21.19l-.16.85a46.17 46.17 0 0 1 17.38 20.84z"/><path d="m263.89 351a43.77 43.77 0 0 1 -4.55-.22c-4.69-.49-8.24-1.9-10.54-4.19a12 12 0 0 1 -2.51-12.28 12.76 12.76 0 0 1 9.82-7.8c1.29-.23 2.62-.41 4-.52l-.12-.8c-1.36.12-2.7.29-4 .53a13.54 13.54 0 0 0 -10.45 8.28 12.78 12.78 0 0 0 2.69 13.13c2.44 2.42 6.15 3.91 11 4.42a45.26 45.26 0 0 0 4.63.23h.18l-.04-.78z"/><path d="m248.23 285.7c-1.86.11-3.82.16-5.84.16-1.2 0-2.39 0-3.59-.05a43.08 43.08 0 0 1 -9.52-1.12 40.89 40.89 0 0 1 -17.05-8.64 37.4 37.4 0 0 1 -6.48-7.17 38.16 38.16 0 0 1 -4.49-8.55 36.62 36.62 0 0 1 -1.93-19.12 38.58 38.58 0 0 1 7.84-17.55 37.81 37.81 0 0 1 3.23-3.61 28.77 28.77 0 0 1 3.87-3.11 39.09 39.09 0 0 1 8.73-4.24 51 51 0 0 1 16.68-2.8h2.29a1.84 1.84 0 0 1 .51.1h1.14c6.9 0 13.89 1.49 20.66 2.93a138.72 138.72 0 0 0 15 2.64v-.81a142.07 142.07 0 0 1 -14.88-2.61c-6.8-1.45-13.84-2.95-20.82-2.95h-1a2.35 2.35 0 0 0 -.59-.1c-.77 0-1.56-.06-2.33-.06a52 52 0 0 0 -16.94 2.84 40.31 40.31 0 0 0 -8.91 4.34 29.25 29.25 0 0 0 -4 3.19 40.18 40.18 0 0 0 -3.33 3.72 39.36 39.36 0 0 0 -8 17.9 37.27 37.27 0 0 0 2 19.54 39.39 39.39 0 0 0 11.19 16 41.54 41.54 0 0 0 17.4 8.81 44 44 0 0 0 9.7 1.15c1.22 0 2.43.05 3.6.05 2 0 4-.06 5.88-.17s3.84-.28 5.63-.51l-.12-.79c-1.76.31-3.57.48-5.53.59z"/><path d="m283.48 215.87c3.08 0 7-.6 9-3.32-13.4-11.77-2.64-30-1.53-31.76v-.15a.66.66 0 0 1 0-.34l.08-.25a40.35 40.35 0 0 1 1.8-6.46 2.89 2.89 0 0 1 -.47-.72.81.81 0 0 1 .45-1.08 3.89 3.89 0 0 1 .86-.22c.16-.35.33-.7.5-1l1.7-5.12a.8.8 0 0 1 .74-.55.8.8 0 0 1 .75.51c0 .13.1.26.14.39l.3-.27c2.12-7.7 5.31-9.32 7.63-9.32a5 5 0 0 1 1.16.14v-.81a5.49 5.49 0 0 0 -1.2-.14c-2.48 0-5.84 1.58-8.1 8.87a1.59 1.59 0 0 0 -.72-.17 1.6 1.6 0 0 0 -1.49 1.1l-1.67 5.06c-.11.21-.21.42-.31.63a5.3 5.3 0 0 0 -.61.19 1.62 1.62 0 0 0 -.88 2.16 3.39 3.39 0 0 0 .29.53 41.11 41.11 0 0 0 -1.67 6.11l-.07.21a1.61 1.61 0 0 0 -.08.48 38.61 38.61 0 0 0 -4.55 11.37c-1.8 8.36.19 15.5 5.76 20.73-1.86 2-5.2 2.43-7.86 2.43-.45 0-.92 0-1.39 0l-1.16-.08v.8l1.12.09c.52-.06 1-.04 1.48-.04z"/><path d="m285.65 256a118.8 118.8 0 0 1 -19.21 2l-.84.81a115.33 115.33 0 0 0 20.19-2c4.16-.74 8.38-1.62 12.47-2.47 3.63-.75 7.31-1.52 11-2.2l-.64-.7c-3.55.66-7.06 1.39-10.53 2.11-4.09.84-8.29 1.71-12.44 2.45z" fill="#c1272d"/><path d="m288.73 469.46a3.78 3.78 0 0 1 -.86-.78 2.69 2.69 0 0 1 -.31-2.94 2.61 2.61 0 0 1 .17-.28 4 4 0 0 1 -1-1.06 2.86 2.86 0 0 1 0-3.15 3.26 3.26 0 0 1 .55-.62 3.76 3.76 0 0 1 -.7-.9 3 3 0 0 1 .13-3.27 3.14 3.14 0 0 1 .5-.53 3.54 3.54 0 0 1 -.35-.51 3 3 0 0 1 .14-3.32 4.25 4.25 0 0 1 2.26-1.45 41.29 41.29 0 0 1 7.94-23l.29-.38c.48-.79.93-1.58 1.37-2.36l.48-2.64q-1.12 2.24-2.51 4.54l-.07.09-.2.27a41.86 41.86 0 0 0 -8.07 22.93 4.72 4.72 0 0 0 -2.14 1.55 3.84 3.84 0 0 0 -.17 4.22l-.18.13a3.81 3.81 0 0 0 -.17 4.18c.09.16.2.31.3.46s-.09.12-.13.19a3.66 3.66 0 0 0 .06 4.06 4.4 4.4 0 0 0 .65.79 3.54 3.54 0 0 0 .56 3.55 3.93 3.93 0 0 0 .53.55 3.44 3.44 0 0 0 .78 2.93 4.29 4.29 0 0 0 .87.77 3.07 3.07 0 0 0 .1 1.41l.38-2.08a3.36 3.36 0 0 1 -.76-.65 2.58 2.58 0 0 1 -.44-2.7z"/><path d="m312 309.66a46.42 46.42 0 0 0 4.7.59c.89.06 1.78.1 2.63.1h.66l.15-.81h-.81c-.83 0-1.7 0-2.57-.09a44.62 44.62 0 0 1 -4.62-.59c-15.19-3.92-32.41-8.36-49.58-8.36-1.6 0-3.18.05-4.75.13l.12.8c1.53-.08 3.07-.13 4.63-.13 17.08 0 34.27 4.44 49.44 8.36z"/><path d="m284.57 379.27a45.58 45.58 0 0 1 8.93 4.82 27.86 27.86 0 0 1 7 6.89 22 22 0 0 1 3.25 7.21l.33-1.77a22.78 22.78 0 0 0 -2.91-5.89 29 29 0 0 0 -7.17-7.1 47.23 47.23 0 0 0 -9.09-4.91 68.72 68.72 0 0 0 -10-3.2c-1.95-.47-3.87-.85-5.75-1.16l.12.83q2.68.45 5.44 1.11a67.08 67.08 0 0 1 9.85 3.17z" fill="#c1272d"/><path d="m262.51 284.32q.51-.13 1-.3l.23-.07c1-.18 2-.37 2.95-.57 5.39-1.11 10.78-2.57 16-4 9.12-2.46 18.55-5 28-5.71 1.63-.12 3.23-.18 4.76-.18h.64a57.9 57.9 0 0 1 8.12 4c.55.33 1.08.66 1.6 1l.16-.85c-.44-.28-.89-.56-1.35-.83a57.69 57.69 0 0 0 -8.38-4.09h-.79c-1.55 0-3.18.07-4.82.19-9.56.71-19 3.27-28.19 5.74-5.21 1.4-10.59 2.86-15.95 4-1 .21-2 .4-3 .57l-.29.09-1 .3c-1.46.4-3 .76-4.64 1.07-.74.13-1.5.26-2.27.37l.13.79c.77-.11 1.53-.24 2.28-.37 1.74-.38 3.3-.74 4.81-1.15z" fill="#c1272d"/><path d="m282.25 244.74c-.64-.07-1.29-.16-1.93-.25l-.74.72q1.29.18 2.58.33a69.12 69.12 0 0 0 8.16.55 32.35 32.35 0 0 0 12-2v-.89a31.18 31.18 0 0 1 -12 2.1 67.51 67.51 0 0 1 -8.07-.56z"/><path d="m263.92 325c-.79 0-1.57 0-2.35.06l.13.8q1.1-.06 2.22-.06c10 0 19.71 3.07 30 6.33a165 165 0 0 0 21 5.61l.15-.79a162.8 162.8 0 0 1 -20.89-5.59c-9.92-3.16-20.18-6.36-30.26-6.36z"/><path d="m287.92 349.18a111.89 111.89 0 0 0 -12.21.9c-3.33.37-6.76.73-10.14.83l.13.8c3.37-.1 6.78-.47 10.1-.83a110.42 110.42 0 0 1 12.12-.9c.87 0 1.72 0 2.53.07a45.54 45.54 0 0 1 21 6.46l.16-.84a46.54 46.54 0 0 0 -21.1-6.43c-.85-.04-1.71-.06-2.59-.06z" fill="#c1272d"/><path d="m290.94 475.7a2.28 2.28 0 0 1 -.57-.9l-.23 1.22a3.33 3.33 0 0 0 .25.28l.26.23a3.35 3.35 0 0 0 .07.77l.29-1.54z"/><path d="m300.62 419.38-.57 3.11c.48-1 .93-1.92 1.34-2.87l.75-4c-.44 1.22-.95 2.48-1.52 3.76z"/><path d="m264.07 351.75h.82l-.13-.8h-.81z"/><path d="m260.08 325.94.81-.06-.12-.8-.81.06z"/><path d="m315.85 337-.14.79c.26.05.53.08.79.12l.15-.79z"/><path d="m268.33 374-.83-.12.12.83.84.13z"/><path d="m312.17 357 .73.46.16-.85-.73-.46z"/><path d="m327.33 279.45.16-.87-.73-.49-.16.86z"/><path d="m304.43 403.22.54-2.91c-.11-.72-.25-1.44-.42-2.15l-.4 2.14a23.47 23.47 0 0 1 .28 2.92z"/><path d="m257.12 301.47-.13-.8h-.81l.13.8z"/><path d="m310.22 252 .94-.16-.65-.71-.95.17z"/><path d="m321 309.5-.15.81.83-.06.15-.82z"/><path d="m303.19 242.82-.05.89c.28-.12.56-.23.83-.36v-.94c-.23.14-.5.28-.78.41z"/><path d="m264.15 258-.81.79h1.13l.81-.79z"/><path d="m278.57 245.07.73-.71-1-.15-.73.71z"/><path d="m307.48 155.73v.84l.24.11c.19 0 .38-.06.56-.08v-.8c-.17 0-.33 0-.5 0z"/><path d="m280.13 215.68v-.8l-.8-.08v.81z"/><path d="m254.58 285.09-.79.11.12.79.8-.1z"/><path d="m265.28 258-.81.79h1 .1l.84-.81h-1.16z"/><path d="m260.89 325.88.81-.05-.13-.8-.8.05z"/><path d="m264.89 351.73h.81l-.13-.8h-.81z"/><path d="m280.93 214.94-.81-.06v.8l.8.06z"/><path d="m257.8 300.63h-.81l.13.8h.8z"/><path d="m321 309.5h-.82l-.15.81h.82z"/><path d="m311.43 356.51.74.45.16-.85-.74-.44z"/><path d="m255.38 285-.8.1.13.8.8-.11z"/><path d="m314.91 337.71.8.12.14-.79-.79-.12z"/><path d="m309.27 252.12 1-.17-.66-.7-.93.17z"/><path d="m304.55 398.16c-.15-.59-.31-1.16-.5-1.74l-.33 1.77a21.31 21.31 0 0 1 .43 2.11z"/><path d="m306.64 156.31a5.8 5.8 0 0 1 .8.26v-.84a5.08 5.08 0 0 0 -.8-.23z"/><path d="m300.62 419.38c-.42.95-.86 1.9-1.35 2.86l-.48 2.64c.44-.8.86-1.6 1.26-2.39z"/><path d="m290.37 473.12s0 0 0-.05a3.64 3.64 0 0 1 -.47-.28l-.38 2.08a3.25 3.25 0 0 0 .6 1.15l.23-1.22a2.27 2.27 0 0 1 .02-1.68z"/><path d="m326.76 278.09-.73-.46-.16.85.73.47z"/><path d="m269.17 374.16-.84-.14.13.84.83.13z"/><path d="m278.57 245.07 1 .14.74-.72-1-.13z"/><path d="m302.32 244.07c.28-.11.55-.24.82-.36l.05-.89-.83.36z"/><path d="m332.26 282.36a22.12 22.12 0 0 1 5.37 7.26 13.67 13.67 0 0 1 .8 8.57 14.56 14.56 0 0 1 -.62 2.1 11.6 11.6 0 0 1 -1 1.9 16 16 0 0 1 -2.88 3.37 19.18 19.18 0 0 1 -8 4 26.39 26.39 0 0 1 -4.32.65l-.15.82a27 27 0 0 0 4.66-.69 19.79 19.79 0 0 0 8.33-4.22 16.76 16.76 0 0 0 3-3.54 13.56 13.56 0 0 0 1.06-2 18.48 18.48 0 0 0 .66-2.23 14.39 14.39 0 0 0 -.86-9.06 22.91 22.91 0 0 0 -5.55-7.53 42.13 42.13 0 0 0 -5.16-4l-.16.85a40.7 40.7 0 0 1 4.82 3.75z"/><path d="m243.31 254.91c-2.19-.89-9.33-4.23-9.19-10 .11-4.37 4.74-7.59 9-8.07a17 17 0 0 1 1.77-.09c3.56 0 7.18 1.13 10.67 2.22l1.22.38a143.61 143.61 0 0 0 21.55 4.87l.72-.7a142.11 142.11 0 0 1 -22-4.94c-4-1.22-8-2.64-12.12-2.64a16.56 16.56 0 0 0 -1.86.1c-4.74.53-9.56 4.08-9.68 8.85-.13 5.15 4.92 8.84 9.69 10.77a57.42 57.42 0 0 0 19.52 3.91l.81-.79a56.85 56.85 0 0 1 -20.1-3.87z"/><path d="m308.79 157.37c5.1 0 5.84 9.62 5.84 9.62a4.34 4.34 0 0 1 1 .73c.07-.22.14-.44.23-.65l.41 1.36a15.17 15.17 0 0 1 2.29 5.42 2.8 2.8 0 0 1 .67.18 2 2 0 0 1 -.48.63 40.11 40.11 0 0 1 .66 4.06l1 3.35a5.58 5.58 0 0 1 -.77-.49v1c10.55 16.09-5.48 32.94-5.48 32.94 4.11 18.9-9.49 25.57-9.49 25.57-.22.13-.45.24-.67.36l-.05.94c.37-.19.73-.37 1.08-.58.14-.07 13.92-7.07 10-26.05 2.12-2.42 14.89-18 5.69-33l.16-.1a.83.83 0 0 0 .26-.86l-1-3.28c-.15-1.29-.34-2.51-.58-3.65a2.66 2.66 0 0 0 .34-.53.83.83 0 0 0 0-.64.81.81 0 0 0 -.44-.45 2.08 2.08 0 0 0 -.32-.12 15.19 15.19 0 0 0 -2.22-5.11l-.37-1.22a.79.79 0 0 0 -.73-.57.75.75 0 0 0 -.48.16c-.24-2.11-1.48-9.87-6.59-9.87a3.48 3.48 0 0 0 -.55 0v.81a4 4 0 0 1 .59.04z"/><path d="m291.7 472.62h-.11v.19l.17-.17z"/><path d="m248.18 284.9c-1.93.11-3.85.16-5.78.16-1.19 0-2.39 0-3.58-.05a42.88 42.88 0 0 1 -9.35-1.1 40 40 0 0 1 -16.72-8.47 36.47 36.47 0 0 1 -6.34-7 37.23 37.23 0 0 1 -4.41-8.44 36.06 36.06 0 0 1 -1.89-18.69 38 38 0 0 1 7.67-17.19 39.55 39.55 0 0 1 3.18-3.54 27 27 0 0 1 3.75-3 38.42 38.42 0 0 1 8.55-4.16 50.6 50.6 0 0 1 16.41-2.75c.75 0 1.5 0 2.25.05a1 1 0 0 1 .39.11h1.3c11.84 0 23.71 4.38 35.71 5.57v-.81a138.72 138.72 0 0 1 -15-2.64c-6.77-1.44-13.76-2.93-20.66-2.93h-1.14a1.84 1.84 0 0 0 -.51-.1c-.76 0-1.53 0-2.29 0a51 51 0 0 0 -16.72 2.78 39.09 39.09 0 0 0 -8.73 4.24 28.77 28.77 0 0 0 -3.87 3.11 37.81 37.81 0 0 0 -3.23 3.61 38.58 38.58 0 0 0 -7.84 17.55 36.62 36.62 0 0 0 1.93 19.12 38.16 38.16 0 0 0 4.49 8.55 37.4 37.4 0 0 0 6.48 7.17 40.89 40.89 0 0 0 17.05 8.64 43.08 43.08 0 0 0 9.52 1.12c1.2 0 2.39.05 3.59.05 2 0 4-.05 5.84-.16s3.79-.28 5.56-.5l-.13-.8c-1.82.23-3.66.39-5.48.5z"/><path d="m328.85 250.61h2.14c13.87 0 28.31 3.91 37.69 14 12.94 14 12.37 37.47.76 52.57-10.08 13.11-26.86 19.91-43.47 19.91a59.6 59.6 0 0 1 -7.56-.48l-1.62-.22-.14.77c.55.09 1.11.18 1.66.25a60.94 60.94 0 0 0 7.66.48c17.88 0 34.37-7.56 44.11-20.22 12.21-15.88 11.85-39.93-.81-53.61-8.53-9.21-22.12-14.28-38.27-14.28-.73 0-1.45 0-2.18 0a123.48 123.48 0 0 0 -17.66 2l.65.69a121.82 121.82 0 0 1 17.04-1.86z"/><path d="m329.72 378.38a46.18 46.18 0 0 1 -7.72 47.37c-7.82 8.87-19.41 15.18-24.22 25.65a6.09 6.09 0 0 1 1.71.55 3 3 0 0 1 1.49 1.62 2.88 2.88 0 0 1 -.08 2.16 1.91 1.91 0 0 1 -.82.86 3.58 3.58 0 0 1 -.48.24 2.68 2.68 0 0 1 .74 1.07 2.85 2.85 0 0 1 -.08 2.11 1.79 1.79 0 0 1 -.8.85 4.44 4.44 0 0 1 -.49.24 2.43 2.43 0 0 1 .57.81 2.73 2.73 0 0 1 0 2 1.7 1.7 0 0 1 -.71.84l-.13.08a2.19 2.19 0 0 1 .37.48 2.41 2.41 0 0 1 .18 1.78 1.62 1.62 0 0 1 -.57.82 2 2 0 0 1 .77.76 2.18 2.18 0 0 1 .21 1.65 1.47 1.47 0 0 1 -.51.78 1.49 1.49 0 0 1 -.2.15 1.82 1.82 0 0 1 .59.55 2 2 0 0 1 .31 1.42 1.17 1.17 0 0 1 -.22.52 2 2 0 0 1 .34.31 1.78 1.78 0 0 1 .39 1.3 1.74 1.74 0 0 1 .74.44 1.77 1.77 0 0 1 .5 1.27 1.31 1.31 0 0 1 -.31.84 1.7 1.7 0 0 1 .34.26 1.57 1.57 0 0 1 .43 1.11 1.49 1.49 0 0 1 -.58 1.09 10.19 10.19 0 0 1 -.82.61l-.18.1.29.43-.36-.39a7.43 7.43 0 0 1 -1.56.74c-.32.11-.64.2-1 .28l-.49.1h-.25a1.63 1.63 0 0 1 -.31 0 2 2 0 0 1 -1.22-.37 1.37 1.37 0 0 1 -.58-1.36v-.05a2.2 2.2 0 0 1 -1-.38 1.55 1.55 0 0 1 -.65-1.53 2.12 2.12 0 0 1 .13-.38 2.4 2.4 0 0 1 -1-.47 1.52 1.52 0 0 1 -.51-1.57 1.65 1.65 0 0 1 .27-.53 2.42 2.42 0 0 1 -1.08-.62 1.48 1.48 0 0 1 -.31-.42l-.19 1.05a3.33 3.33 0 0 0 .51.4 2.35 2.35 0 0 0 .8 2.31 3 3 0 0 0 .53.35 2.42 2.42 0 0 0 1 2.07 3 3 0 0 0 .66.34 2.19 2.19 0 0 0 .92 1.45 2.83 2.83 0 0 0 1.68.51 2.32 2.32 0 0 0 .44 0h.26l.52-.11a10.17 10.17 0 0 0 1-.3 8.62 8.62 0 0 0 1.15-.49.81.81 0 0 0 .51.18.84.84 0 0 0 .52-.18.82.82 0 0 0 .27-.8c.14-.11.3-.23.49-.4l.07-.07a2.18 2.18 0 0 0 .75-1.56.73.73 0 0 0 0-.25 2.39 2.39 0 0 0 -.56-1.34 2.07 2.07 0 0 0 .11-.62.73.73 0 0 0 0-.25 2.55 2.55 0 0 0 -.72-1.59 2.14 2.14 0 0 0 -.55-.43 2.57 2.57 0 0 0 -.55-1.3 1.7 1.7 0 0 0 0-.22.74.74 0 0 0 0-.21 2.72 2.72 0 0 0 -.46-1.78l-.09-.13a1.94 1.94 0 0 0 .32-.72.75.75 0 0 0 0-.21 3 3 0 0 0 -.33-2 2.69 2.69 0 0 0 -.34-.47 2.18 2.18 0 0 0 .21-.52 1.36 1.36 0 0 0 0-.21 3.2 3.2 0 0 0 -.28-2.11 2.46 2.46 0 0 0 .5-.79.85.85 0 0 0 0-.22 3.48 3.48 0 0 0 -.11-2.36 1.15 1.15 0 0 0 -.12-.25 2.44 2.44 0 0 0 .84-1 .83.83 0 0 0 .06-.21 3.76 3.76 0 0 0 0-2.5 3 3 0 0 0 -.27-.57 2.42 2.42 0 0 0 .8-1 .83.83 0 0 0 .06-.21 3.66 3.66 0 0 0 -1.86-4.61 4.72 4.72 0 0 0 -.92-.38c3.05-6 8.35-10.59 13.95-15.41a99 99 0 0 0 9.71-9.16 46.8 46.8 0 0 0 7.85-48.22 46.17 46.17 0 0 0 -17.56-20.65l-.16.89a45.37 45.37 0 0 1 17.45 20.09z"/><path d="m304.62 409.72a48.19 48.19 0 0 1 -3.23 9.9l-.57 3.1a52 52 0 0 0 4.59-12.84 26.34 26.34 0 0 0 -.05-11.72l-.39 2.15a26 26 0 0 1 -.35 9.41z"/><path d="m265.68 372.86-.71-.05c-11.18-.62-22.88-1.78-32.21-8a34.13 34.13 0 0 1 -15-27.56 33.67 33.67 0 0 1 14.51-27.8c7-4.75 15.61-6.61 24-7.17h.16l-.12-.79h-.09c-10.19.68-18.19 3.06-24.45 7.3a34.11 34.11 0 0 0 .54 56.7c9.56 6.33 21.35 7.47 32.61 8.1l.68.05 1.9.24-.13-.83c-.56-.05-1.12-.13-1.69-.19z"/><path d="m263.89 351.76a45.26 45.26 0 0 1 -4.63-.23c-4.88-.51-8.59-2-11-4.42a12.78 12.78 0 0 1 -2.72-13.11 13.54 13.54 0 0 1 10.46-8.33c1.3-.24 2.64-.41 4-.53l-.12-.8c-1.34.12-2.68.29-4 .54a14.31 14.31 0 0 0 -11 8.83 13.52 13.52 0 0 0 2.89 14c3 3 7.31 4.21 11.5 4.65a46.75 46.75 0 0 0 4.72.23h.31l-.13-.81z"/><path d="m261.45 324.23.12.8c.78 0 1.56-.06 2.35-.06 10.1 0 20.34 3.23 30.25 6.36a162.8 162.8 0 0 0 20.89 5.59l.15-.79c-17.36-3-34.15-12-51.29-12-.82.03-1.65.06-2.47.1z"/><path d="m282.35 244-1.3-.17-.73.71c.64.09 1.29.18 1.93.25a67.51 67.51 0 0 0 8.07.54 31.18 31.18 0 0 0 12-2.1l.05-.91a30 30 0 0 1 -12.09 2.21 70.32 70.32 0 0 1 -7.93-.53z"/><path d="m287.92 350a110.42 110.42 0 0 0 -12.12.9c-3.32.36-6.73.73-10.1.83l.12.8c7.36-.24 14.73-1.72 22.1-1.72q1.24 0 2.49.06a44.77 44.77 0 0 1 20.86 6.53l.16-.87a45.54 45.54 0 0 0 -21-6.46c-.79-.07-1.64-.07-2.51-.07z" fill="#c1272d"/><path d="m285.79 256.79a115.33 115.33 0 0 1 -20.19 2l-.81.8h.71a118.68 118.68 0 0 0 20.43-2c8-1.43 16-3.32 24-4.77l-.65-.7c-3.7.68-7.38 1.45-11 2.2-4.11.85-8.28 1.73-12.49 2.47z" fill="#c1272d"/><path d="m311.79 310.44a43.84 43.84 0 0 0 4.84.61c.9.07 1.8.1 2.69.1h.51l.15-.81h-.66c-.85 0-1.74 0-2.63-.1a46.42 46.42 0 0 1 -4.7-.59c-15.16-3.92-32.35-8.36-49.44-8.36-1.56 0-3.1.05-4.63.13l.13.8q2.25-.12 4.5-.12c16.6.01 33.01 4.15 49.24 8.34z"/><path d="m262.29 283.55 1-.3.29-.09c1-.17 2-.36 3-.57 5.36-1.1 10.74-2.56 15.95-4 9.16-2.47 18.63-5 28.19-5.74 1.64-.12 3.27-.19 4.82-.19h.79a57.69 57.69 0 0 1 8.38 4.09c.46.27.91.55 1.35.83l.15-.84c-.36-.23-.72-.46-1.09-.68a57.74 57.74 0 0 0 -8.63-4.2h-.95c-1.63 0-3.26.06-4.88.19-15.08 1.12-29.44 6.66-44.25 9.72q-1.49.3-3 .57c-.43.13-.86.27-1.3.39-1.51.42-3 .76-4.58 1.05-.75.14-1.49.26-2.24.37l.12.8c.77-.11 1.53-.24 2.27-.37 1.59-.27 3.15-.58 4.61-1.03z" fill="#c1272d"/><path d="m289.5 469.7a2.48 2.48 0 0 1 .42-.56 2.94 2.94 0 0 1 -1.42-1 1.9 1.9 0 0 1 -.24-2.05 2.4 2.4 0 0 1 .81-.86h-.06a3.41 3.41 0 0 1 -1.63-1.29 2.08 2.08 0 0 1 -.05-2.26 2.91 2.91 0 0 1 1.31-1 3.49 3.49 0 0 1 -1.44-1.34 2.21 2.21 0 0 1 .08-2.38 2.88 2.88 0 0 1 1.16-.89 3.52 3.52 0 0 1 -.95-1 2.23 2.23 0 0 1 .08-2.43 3.49 3.49 0 0 1 1.94-1.19 4.35 4.35 0 0 1 .46-.11 40.91 40.91 0 0 1 7.81-23.19c.1-.14.21-.27.31-.4l.26-.45.44-2.37c-.44.78-.89 1.57-1.37 2.36l-.29.38a41.29 41.29 0 0 0 -7.94 23 4.25 4.25 0 0 0 -2.26 1.45 3 3 0 0 0 -.14 3.32 3.54 3.54 0 0 0 .35.51 3.14 3.14 0 0 0 -.5.53 3 3 0 0 0 -.13 3.27 3.76 3.76 0 0 0 .7.9 3.26 3.26 0 0 0 -.55.62 2.86 2.86 0 0 0 0 3.15 4 4 0 0 0 1 1.06 2.61 2.61 0 0 0 -.17.28 2.69 2.69 0 0 0 .31 2.94 3.78 3.78 0 0 0 .86.78 2.58 2.58 0 0 0 .43 2.68 3.36 3.36 0 0 0 .76.65l.16-.86a2.13 2.13 0 0 1 -.3-.3 1.8 1.8 0 0 1 -.21-1.95z"/><path d="m284.88 378.52a47.23 47.23 0 0 1 9.09 4.91 29 29 0 0 1 7.17 7.1 22.78 22.78 0 0 1 2.91 5.89l.29-1.56a23.41 23.41 0 0 0 -2.54-4.79 29.9 29.9 0 0 0 -7.37-7.3 47.3 47.3 0 0 0 -9.24-5 70.5 70.5 0 0 0 -10.08-3.25c-2-.48-4-.88-6.07-1.21l.13.84c1.88.31 3.8.69 5.75 1.16a68.72 68.72 0 0 1 9.96 3.21z" fill="#c1272d"/><path d="m283.48 216.67c3.94 0 8.17-.93 10-4.29-14.5-12-1.82-31.29-1.82-31.29 0-.2.07-.38.11-.56h-.05l.1-.3a40.25 40.25 0 0 1 2-6.9 1.81 1.81 0 0 1 -.66-.79 2.69 2.69 0 0 1 1-.19h.12c.24-.54.48-1 .72-1.51l1.71-5.17a10.19 10.19 0 0 1 .49 1.74 8.36 8.36 0 0 1 1.41-1.46c2-7.53 4.95-9 6.92-9a4 4 0 0 1 1.12.16v-.82a5 5 0 0 0 -1.16-.14c-2.32 0-5.51 1.62-7.63 9.32l-.3.27c0-.13-.09-.26-.14-.39a.8.8 0 0 0 -.75-.51.8.8 0 0 0 -.74.55l-1.7 5.12c-.17.34-.34.69-.5 1a3.89 3.89 0 0 0 -.86.22.81.81 0 0 0 -.45 1.08 2.89 2.89 0 0 0 .47.72 40.35 40.35 0 0 0 -1.8 6.46l-.08.25a.66.66 0 0 0 0 .34v.15c-1.11 1.79-11.87 20 1.53 31.76-1.93 2.72-5.89 3.32-9 3.32-.48 0-1 0-1.43 0l-1.12-.09v.81l1.06.08c.44.05.95.06 1.43.06z"/><path d="m253.66 284.4.13.8.79-.11-.12-.79z"/><path d="m291.11 473.43a1.89 1.89 0 0 1 .45-.64v-.19l-.32-.06a4 4 0 0 1 -.45-.16l-.45 2.42a2.28 2.28 0 0 0 .57.9l.07.06.19-1.05a1.58 1.58 0 0 1 -.06-1.28z"/><path d="m310.87 252.65.94-.17-.65-.69-.94.16z"/><path d="m280.13 216.49v-.81l-.81-.07v.81z"/><path d="m257.24 302.27-.12-.8h-.81l.12.79z"/><path d="m327.49 278.58.16-.85-.73-.49-.16.85z"/><path d="m312.74 358.31.16-.89-.73-.46-.16.88z"/><path d="m307.56 157.54a5.19 5.19 0 0 1 .64-.13v-.81c-.18 0-.37 0-.56.08l-.24-.11-.05.87z"/><path d="m316 336.26-.15.78.8.12.14-.77z"/><path d="m267.37 373.07.13.83.83.12-.13-.83z"/><path d="m260.77 325.08-.13-.79h-.8l.12.8z"/><path d="m320.8 310.31-.15.81.83-.05.15-.82z"/><path d="m303.23 241.91v.91c.28-.13.55-.27.82-.41l.05-.94z"/><path d="m305 400.31.39-2.15c-.14-.59-.3-1.18-.49-1.77l-.32 1.77c.14.71.28 1.43.42 2.15z"/><path d="m264.07 351.75.13.81h.81l-.12-.8z"/><path d="m263.34 258.77-.81.79h1.13l.81-.8z"/><path d="m279.3 244.36.73-.72-1-.13-.72.7z"/><path d="m300.05 422.49-.49 2.64c.43-.79.85-1.6 1.26-2.41l.57-3.1c-.39.95-.86 1.91-1.34 2.87z"/><path d="m298.79 424.88-.44 2.37c.41-.7.81-1.4 1.21-2.12l.49-2.64c-.4.79-.82 1.59-1.26 2.39z"/><path d="m290.08 471.93-.16.86a3.64 3.64 0 0 0 .47.28s0 0 0 .05a2.27 2.27 0 0 0 0 1.68l.45-2.42a2.82 2.82 0 0 1 -.76-.45z"/><path d="m304.55 398.16.32-1.77c-.16-.51-.33-1-.53-1.53l-.29 1.56c.19.58.35 1.15.5 1.74z"/><path d="m265 352.53h.81l-.12-.8h-.81z"/><path d="m315.21 336.13-.15.79.79.12.15-.78z"/><path d="m311.27 357.38.74.46.16-.88-.74-.45z"/><path d="m269 373.32-.84-.13.13.83.84.14z"/><path d="m255.26 284.19-.8.11.12.79.8-.1z"/><path d="m326.76 278.09.16-.85-.74-.45-.15.84z"/><path d="m306.6 157.13a4.29 4.29 0 0 1 .79.31l.05-.87a5.8 5.8 0 0 0 -.8-.26z"/><path d="m258.05 302.23-.13-.8h-.8l.12.8z"/><path d="m280.94 216.55v-.81l-.8-.06v.81z"/><path d="m280.32 244.49.73-.71-1-.14-.73.72z"/><path d="m320 310.33-.15.81h.82l.15-.81z"/><path d="m302.41 242.27-.05.91.83-.36v-.91c-.19.09-.51.24-.78.36z"/><path d="m309.92 252.82.95-.17-.65-.7-1 .17z"/><path d="m260.77 325.08.8-.05-.12-.8-.81.06z"/><path d="m265.5 258.81h-1l-.81.8h1.13l.81-.8z"/><path d="m279.22 244.44-26.78 26.06 4.76 30.79m50.35-145.15.07-1.45a30.13 30.13 0 1 0 -27.69-.54l.3 61.35m40.67 94.7 7.25-39.2-24.94-26.81.08-1.53m-3.12 179.6 15.77-85.23m-55-11.7 26 168.38 3.48-18.84m3.82-364.87a17.68 17.68 0 1 1 -17.6 17.77 17.68 17.68 0 0 1 17.6-17.77z" fill="none" stroke="#000" stroke-miterlimit="10" stroke-width="2"/><path d="m252.8 73.07 2.45 8-10.25 3.16 3 9.68-9 2.73-3-9.69-11 3.39-2.45-8 11.07-3.34-1.33-4.33-4.13 1.26a20.05 20.05 0 0 1 -1.17 5 44.68 44.68 0 0 0 -7-2.67c1.18-3.32.85-8.31 0-13.07l-.11.1a22.78 22.78 0 0 0 -5.83-4.5l9.55 31.19c2.1 6.85.11 9.36-8.61 12a28.81 28.81 0 0 0 -5-7.08c2.17-.53 4.49-1.24 5.27-1.48s.89-.55.65-1.33l-2.51-8.2-10.79 3.3c1.25 6.4 1.79 13.23.16 18.75a34.34 34.34 0 0 0 -7.72-2.16c2.35-8-.27-17.72-2.51-25l-3.14-10.27a49.94 49.94 0 0 0 -6-2.47c2.66-5.62 3.58-14.38 3.05-22.34l10.14-.35c0 .64-.5 1.14-1.42 1.35v2.91l5-1.52 1.05-.75 7.11 1.66a2.23 2.23 0 0 1 -1.16 1.27c-.34 2.15-.88 5-1.56 7.82l7-2.15 1.14 3.75c4.35-3.81 5.17-7.59 4.68-12l-6.4 2-2.29-7.69 22.86-7 1.79-.62 4.68-1.08c.2.64.41 1.56.59 2.36 5.07 18.65 5 20.14-6.95 23.46a19.68 19.68 0 0 0 -4.36-6.86 38 38 0 0 0 4-.95 1.94 1.94 0 0 0 1.46-1.22c.28-.72 0-2.63-1-6.82l-6.07 1.86c1 6.41.61 12.6-5.26 18.56l7.3-.61-.78-2.54 11-2.72c.15.73-.24 1.27-1.45 1.93l1.32 4.32 8.2-2.51 2.39 7.82-8.2 2.51 1.33 4.33zm-55-12.61a41 41 0 0 0 .53-4.26l-3.61 1.1c-.19 1.47-.4 2.88-.67 4.3zm-1 7.71 1.11 3.62 2.07-.64-1.11-3.61zm3.2 10.2c.41 1.36.77 2.52 1.1 3.83l2.13-.65-1.23-3.81zm5-12.69 1.11 3.61 2.13-.65-1.14-3.64zm4.29 14 2.13-.65-1.17-3.81-2.13.65zm19.65-16.12a1.9 1.9 0 0 1 -1.16.85c.15 1 .25 2 .34 2.94l1.81-.56z" fill="#c1272d"/><path d="m262.54 45.37c4.08 1.53 9.68 4.31 12.46 6.61l-5.89 8c-2.44-2.36-7.83-5.47-12-7.34zm-4.33 38.63a199.19 199.19 0 0 0 12.65-21.16l7.34 6.34c-3.5 7.07-7.33 13.93-10.65 19.19a2.05 2.05 0 0 1 .51 1.43 1.86 1.86 0 0 1 -.44 1.2zm8.93-56.74c4.08 1.6 9.54 4.45 12.25 6.75l-5.88 7.88c-2.37-2.42-7.69-5.6-11.83-7.54zm53.86 41-14.93-.39c3.06 7 8.18 13 15.32 16.28a37.3 37.3 0 0 0 -7.12 8.47c-8.06-4.41-13.27-11.62-16.82-20.72a34.19 34.19 0 0 1 -16.74 20 41.18 41.18 0 0 0 -8.06-7.17c8.91-4.57 13.39-10.6 15.59-17.3l-11.34-.3.24-9.18 13 .34c.2-2.22.33-4.52.38-6.75l.11-3.85-10.13-.26.24-9.19 10.13.27.28-10.81 11.8.92c-.08.81-.64 1.27-2.06 1.44l-.23 8.71 16.27.43-.49 19.8 4.8.13zm-20.55-20.34-.1 3.92c-.06 2.23-.19 4.45-.32 6.68l6.82.18.28-10.6z" fill="#c1272d"/><path d="m383.65 79.71-4 11c-1.51 4.2-3.3 6.57-9.9 4.76a68.89 68.89 0 0 0 13 9.51 41.06 41.06 0 0 0 -8.75 5.92 55.27 55.27 0 0 1 -16.56-17.9l-4.26 11.81-9.18-3.3 4.09-11.31a52.88 52.88 0 0 1 -23.66 2.88 43.35 43.35 0 0 0 -2.86-9.58 64.24 64.24 0 0 0 17.85.48l-8.45-3 6.42-17.98 18.11 6.54.78-2.16-23.76-8.58 2.89-8 23.76 8.58 1.31-3.63 7.74 3.25a63.62 63.62 0 0 0 -3.89-5.35l-6.54-2.36a26.45 26.45 0 0 1 .56 4.22l-9-.25a41.07 41.07 0 0 0 -.87-7.35 48.13 48.13 0 0 1 -7.87 4.7 56.8 56.8 0 0 0 -5.34-7.1 42.17 42.17 0 0 0 14.54-10.83l8.5 6.51a1.73 1.73 0 0 1 -2 .06c-.46.48-1 .93-1.44 1.41l13 4.71-1.56 4.32a32.55 32.55 0 0 0 9.89-7.49c2.9 2.12 5.79 4.24 8.6 6.4a1.62 1.62 0 0 1 -1.92.17 14.05 14.05 0 0 1 -1.6 1.44l17.22 6.21-2.5 6.66-9.66-3.48c.47 1.68.9 3.27 1.17 4.51l-9.39-.44a76.61 76.61 0 0 0 -1.59-7.67l-2.22-.8a32.45 32.45 0 0 1 -4.61 2.43l1.69.68c-.34.74-1 .94-2.41.71l-.6 1.65 24.28 8.76-2.9 8-24.26-8.71-.79 2.16zm-39.9-5.64-3.54 9.78a34.08 34.08 0 0 0 11.39-3.5l1.1-3zm18.17 6.56-1.15 3.18a35.67 35.67 0 0 0 5.61 8.13 43.29 43.29 0 0 0 -.36-5.38c1.19.5 2.77 1.08 3.28 1.26s.9.11 1.1-.46l1.17-3.24z" fill="#c1272d"/><path d="m290 330.07c-1.42-.48-2.86-.89-4.31-1.29l2.31 91.49 5-89.09c-1-.37-2-.77-3-1.11z"/><path d="m285.57 302.75c.91.29 1.85.39 2.78.59s1.83.51 2.74.78c1.13.34 2.26.68 3.4 1l3.38-59.66-14.24.16 1.43 57a1.78 1.78 0 0 1 .51.13z"/></svg>