<?xml version="1.0" encoding="UTF-8"?><svg id="Capa_1" xmlns="http://www.w3.org/2000/svg" viewBox="0 0 566.93 566.93"><defs><style>.cls-1{stroke:#000;stroke-miterlimit:10;stroke-width:.5px;}.cls-1,.cls-2{fill:#fff;}.cls-3{fill:#212120;}.cls-3,.cls-2{stroke-width:0px;}</style></defs><circle class="cls-1" cx="283.46" cy="283.46" r="279.21"/><path class="cls-3" d="M283.65,35.78c-136.12-.43-247.31,110.48-247.75,247.38-.44,136.21,110.82,247.79,247.27,247.98,136.31.19,248.27-111.41,247.85-248.18-.42-136.92-111.23-246.75-247.37-247.18Z"/><path class="cls-2" d="M313.26,486.32c-9.5,5.1-18.66,10.05-27.87,14.92-1.73.92-3.57.62-5.3-.36-8.85-5.01-17.71-9.99-26.9-15.17,2.68-6.32,5.21-12.5,7.91-18.61,14.31-32.34,18.75-66.45,18.37-101.46-.19-17.2-.03-34.41-.03-51.55,1.86-1.29,3.66-1.05,5.35-.71,2.38,1.43,2.01,3.68,2.04,5.76.36,22.64.76,45.28,1.03,67.91.38,31.63,8.81,61.33,21.4,90.04,1.27,2.9,2.52,5.81,4,9.22Z"/><path class="cls-2" d="M491.19,320.32c2.29,9.81,4.62,19.41,6.71,29.07.58,2.7-1.18,4.75-3.16,6.46-7.22,6.2-14.44,12.41-21.98,18.88-5.81-4.61-11.69-9.03-17.3-13.78-24.54-20.77-53.19-33.66-83.34-43.62-17.65-5.83-35.45-11.22-53.16-16.86-2.75-.88-5.4-2.07-8.07-3.1-.75-5.83,1.23-7.32,6.99-5.47,21.66,6.96,43.22,14.25,65.02,20.72,31.55,9.37,63.83,11.84,96.57,8.73,3.8-.36,7.61-.66,11.73-1.02Z"/><path class="cls-2" d="M298.15,260.81c7.68-10.49,15.4-21.04,23.12-31.6,10.45-14.3,20.95-28.58,30.52-43.49,15.05-23.45,23.28-49.58,29.48-76.47.23-1.01.55-2,.91-3.3,10.2,1.34,20.27,2.62,30.32,4,2.51.34,4.34,1.83,5.43,4.16,3.96,8.47,7.92,16.94,11.94,25.53-.81.62-1.37,1.19-2.04,1.54-36.91,19.39-66.31,47.34-91.36,80.21-10.01,13.14-19.77,26.49-29.7,39.69-3.27,4.34-5.23,4.25-8.61-.28Z"/><path class="cls-2" d="M264.59,264.48c-2.84-.54-4.11-2.65-5.54-4.52-13.03-17.02-26.02-34.06-39.06-51.06-21.6-28.15-48.71-49.82-79.42-67.22-1.25-.71-2.49-1.42-4.1-2.35,4.23-8.71,8.34-17.23,12.52-25.72,1.01-2.05,2.91-3.15,5.08-3.44,10.08-1.33,20.18-2.55,30.52-3.84,2.68,10.88,5.45,21.44,8.62,31.9,7.61,25.12,20.46,47.43,35.96,68.41,12.42,16.81,24.58,33.8,36.85,50.71.85,1.17,1.65,2.37,2.44,3.52-.83,1.76-1.97,2.96-3.87,3.59Z"/><path class="cls-2" d="M254.52,291.77c1.49,1.73,1.94,3.44,1.7,5.68-9.05,3.28-18.39,5.85-27.64,8.73-29.36,9.14-58.63,18.53-85.88,33.17-16.85,9.05-32.44,19.85-46.21,33.19-.76.73-1.57,1.4-2.67,2.37-7.63-6.78-15.26-13.48-22.78-20.31-1.59-1.45-2.46-3.52-1.98-5.77,2.01-9.42,4.08-18.82,6.19-28.51,7.93.58,15.56,1.14,23.19,1.71,32.08,2.4,63.27-2.37,93.82-11.87,13.06-4.06,25.94-8.67,39-12.72,5.77-1.79,11.65-3.23,17.3-5.41,1.9-.73,3.87-.5,5.97-.24Z"/><path class="cls-2" d="M260.44,285.3c.35-12.24,11.14-22.27,23.52-21.85,12.26.41,23.03,11.05,22.71,22.54-.27,9.41-8.8,21.53-24.73,20.96-12.47-.45-21.84-9.81-21.5-21.64Z"/><path class="cls-2" d="M411.04,452.57c-15.43-12.19-31.56-23.59-44.23-38.93-6.29-7.61-11.43-15.82-13.7-25.59-.72-3.1-.93-6.09,1.67-8.44,2.59-2.35,5.65-1.94,8.6-.91,5.07,1.79,9.35,4.73,12.9,8.85,13.37,15.5,22.28,33.57,30.29,52.17,1.76,4.1,3.9,8.06,4.96,12.45-.16.13-.32.26-.48.4Z"/><path class="cls-2" d="M333.92,386.52c-.31-1.37-.48-2.52.16-3.67,2.02-1.87,4.86-1.95,7.18-3.25-.5-1.45-1.67-2.27-2.78-3.25-4.04,1.32-7.01,3.42-8.74,7.46-2.44,5.71-6.96,9.64-12.57,12.11-5.84,2.57-11.69,5.46-18.46,4.83,1.77-16.6,18.22-33.85,33.72-35.48,6.23-.65,11.53,1.21,14.91,6.89,2.91,4.9,2.71,9.95-.41,13.26-3.05,3.24-7.39,3.64-13.01,1.08Z"/><path class="cls-2" d="M358.15,361.36c.08,2.13.68,3.81,1.75,5.48,2.34-1.84,3.41-4.78,5.99-6.15,1.63.21,2.69,1.15,3.79,2.38-.28,2.58-1.2,5.01-2.71,7.2-2.46,3.56-6.39,4.77-10.44,3.32-8.93-3.2-12.44-12.41-7.85-20.59,6.36-11.32,27.1-21.72,40.03-20.03,1.42.19,2.8.65,4.17.98-1.4,10.39-12.85,21.05-24.6,22.91-3.74.59-7.16,1.68-10.13,4.5Z"/><path class="cls-2" d="M359.52,456.65c-9.29-16.69-19.24-32.18-20.88-51.14-.72-8.4,1.74-13.18,8.54-15.85,12.27,16.95,17.39,42.47,12.34,66.98Z"/><path class="cls-2" d="M431.72,406.2c-25.9-2.02-46.27-13.32-63.66-31.17,5.32-5.33,11.28-6.07,17.69-3.55,6.45,2.53,11.96,6.72,17.46,10.83,9.1,6.79,18.66,13.03,26.39,21.5.52.56,1.02,1.14,2.12,2.39Z"/><path class="cls-2" d="M310.71,446.6c-.71-19.96,3.08-37.53,16.65-51.96,2.56-2.72,4-3.35,9.22-4.11,1.11,22.83-9.39,40.29-25.87,56.07Z"/><path class="cls-2" d="M301.08,306.91s.02,0,.04-.01c.3-.1.63-.14.94-.11,1.91.19,3.11,1.63,4.34,2.98,10.75,11.69,21.49,23.39,32.21,35.1,4.72,5.16,5.08,10.4,1,13.44-4.1,3.32-10.01.75-13.14-4.22-8.94-14.21-16.82-27.73-25.79-42.11-.97-1.56-1.34-4.46.39-5.07Z"/><path class="cls-2" d="M435.24,358.03c-18.87,11.4-42.79,13.98-62.3,6.43,1.27-3.28,3.67-5.27,6.9-6.62,17.51-7.34,35.1-5.87,52.74-.61.76.23,1.51.45,2.66.8Z"/><path class="cls-2" d="M381.61,457.24c-8.47-3.13-13.36-9.06-15.34-17.47-1.72-7.34-1.69-14.88-2.72-22.5,16.19,8.76,23.62,25.12,18.06,39.97Z"/><path class="cls-2" d="M391.99,399.28c6.57,1.92,13.1,3.98,19.26,7.01,8.42,4.14,12.94,10.7,14.06,20.33-8.46.5-15.9-1.69-21.96-7.73-5.4-5.38-9.12-11.87-11.98-18.88.2-.24.41-.48.61-.72Z"/><path class="cls-2" d="M335.67,417.24c3.83,6.64,6.94,12.54,8.17,19.18,1.62,8.8-2.19,16.44-10.58,21.73-8.15-13.85-.54-26.75,2.42-40.9Z"/><path class="cls-2" d="M399.1,372.9c14.22,1.49,29.28-.89,41.4,9.63-6.09,5.98-14.84,7.57-22.7,4.07-7.19-3.19-12.8-8.59-18.71-13.71Z"/><path class="cls-2" d="M414.03,461.48h-26.8v-22.26c8.79,7.3,17.39,14.45,26.8,22.26Z"/><path class="cls-2" d="M420.08,458.19c-5.08-11.08-9.73-21.21-14.75-32.15,8.09,2.33,15.34,4.42,22.74,6.55-2.63,8.43-5.17,16.56-7.99,25.6Z"/><path class="cls-2" d="M442.52,377.4c-7.62-2.86-14.67-5.5-22.68-8.51,6.76-2.38,12.63-4.44,18.87-6.64,1.27,5.03,2.47,9.81,3.81,15.14Z"/><path class="cls-2" d="M325.63,434.45c.4,8.17.75,15.32,1.14,23.21-4.7-2.53-8.82-4.74-13.38-7.19,3.99-5.22,7.81-10.22,12.24-16.01Z"/><path class="cls-2" d="M348.56,446.22c2.3,4.83,4.42,9.25,6.69,14.01h-16.73c3.42-4.77,6.57-9.16,10.05-14.01Z"/><path class="cls-2" d="M389.49,351.99c-1.86-2.03-.3-2.82.88-3.56,3.62-2.27,7.62-3.55,11.81-4.27,4.66-.81,9.32-1.6,13.82-2.36,1.18.7.98,1.65,1.04,2.78-9.27,2.5-18.49,4.98-27.55,7.42Z"/><path class="cls-2" d="M434.99,410.62c-1.38,5.23-2.59,9.81-4.08,15.42-3.21-5.87-6.04-11.04-9.22-16.83,4.66.5,8.72.93,13.3,1.42Z"/><path class="cls-2" d="M436.74,403.47c-3.46-3.99-6.47-7.47-9.93-11.48,4.86-1.11,9.24-2.12,14.11-3.24-.86,5.03-2.61,9.49-4.18,14.72Z"/><path class="cls-2" d="M318.2,401.83c-4.94,7.46-9.87,14.91-15.05,22.73-1.14-8.5,5.67-19.29,14.34-23.42.24.23.48.46.71.69Z"/><path class="cls-2" d="M365.3,448.48c3.97,4.25,7.41,7.93,11.32,12.11h-11.94c-.45-3.79.03-7.5.62-12.11Z"/><path class="cls-2" d="M299.55,429.69c2.9-1.89,5.4-3.52,8.44-5.5-.61,5.57-.75,10.6-2.24,16.63-3.02-3.86-4.19-7.55-6.2-11.12Z"/><path class="cls-2" d="M430.88,352.81c-5.08-1.03-10.17-2.06-15.6-3.17,2.11-2.61,4.65-4.2,7.05-6.23,3.06,2.74,6.06,5.43,9.07,8.12-.17.43-.35.85-.52,1.28Z"/><path class="cls-2" d="M398.05,341.16c.02-2.66.34-4.67,2-6.49,4.22-.96,7.59,1.37,12.14,3.33-5.24,1.17-9.51,2.13-14.14,3.16Z"/><path class="cls-2" d="M305.25,404.05c-2.59-.6-4.62-.76-6.78.43-1.92,3.88-.44,7.7.4,12.58,2.36-4.82,4.29-8.75,6.37-13.01Z"/><path class="cls-2" d="M411.52,452.17c.51.06.63.34.38.92-.3-.18-.58-.35-.87-.53.16-.13.32-.27.48-.4Z"/><path class="cls-2" d="M391.38,400c-.16-.24-.32-.48-.69-1.02.68.15.99.23,1.3.29-.2.24-.41.48-.61.72Z"/><path class="cls-2" d="M487.13,219.58c-16.46,10.77-32.38,22.45-50.94,29.6-9.21,3.55-18.63,5.83-28.61,4.88-3.16-.3-6.07-1.05-7.47-4.26-1.4-3.2-.05-5.97,1.86-8.44,3.3-4.24,7.45-7.37,12.48-9.43,18.94-7.76,38.91-10.49,59.08-12.18,4.45-.37,8.88-1.15,13.38-.76.07.19.15.39.23.58Z"/><path class="cls-2" d="M400.04,271.77c-1.39-.14-2.55-.34-3.43-1.32-1.13-2.51-.31-5.23-.8-7.84-1.53.02-2.68.86-3.97,1.61-.03,4.25,1.02,7.73,4.31,10.65,4.64,4.13,6.94,9.66,7.5,15.76.59,6.36,1.48,12.81-1.27,19.04-15.19-6.94-26.33-28.01-22.95-43.23,1.36-6.11,4.8-10.55,11.27-11.95,5.57-1.21,10.3.58,12.45,4.59,2.11,3.92,1.11,8.17-3.1,12.68Z"/><path class="cls-2" d="M383.86,240.81c2.04.6,3.83.57,5.75.07-1.01-2.8-3.45-4.75-3.93-7.63.71-1.48,1.95-2.19,3.46-2.84,2.35,1.09,4.37,2.73,5.97,4.85,2.6,3.46,2.5,7.57-.17,10.95-5.87,7.45-15.72,7.87-22.01.92-8.72-9.62-12.01-32.59-6.3-44.31.63-1.29,1.51-2.45,2.25-3.64,9.41,4.62,15.88,18.86,13.92,30.6-.62,3.73-.67,7.32,1.05,11.04Z"/><path class="cls-2" d="M474.66,269.73c-18.77,3.52-36.62,8.05-55.12,3.58-8.19-1.98-11.95-5.83-12.32-13.12,19.97-6.26,45.79-3.02,67.44,9.54Z"/><path class="cls-2" d="M449.72,185.26c-10.13,23.92-27.31,39.66-49.75,50.49-3.37-6.74-2.18-12.62,2.24-17.9,4.45-5.31,10.17-9.21,15.8-13.12,9.33-6.47,18.28-13.56,28.76-18.21.7-.31,1.41-.6,2.94-1.26Z"/><path class="cls-2" d="M449.66,312.84c-19.16-5.66-34.62-14.82-44-32.27-1.77-3.29-1.91-4.85-.97-10.05,22,6.19,35.23,21.69,44.97,42.31Z"/><path class="cls-2" d="M314.12,277.67s0-.03,0-.04c0-.32.07-.64.2-.93.78-1.75,2.53-2.43,4.2-3.17,14.5-6.48,28.99-12.97,43.51-19.42,6.39-2.84,11.47-1.52,13.06,3.31,1.85,4.94-2.46,9.73-8.17,11.12-16.31,3.97-31.63,7.16-48.11,11.11-1.78.43-4.65-.14-4.68-1.98Z"/><path class="cls-2" d="M405.14,166.65c4.83,21.51-.31,45.01-13.65,61.12-2.71-2.25-3.83-5.15-4.09-8.64-1.4-18.94,5.56-35.15,16.15-50.21.45-.65.91-1.29,1.6-2.27Z"/><path class="cls-2" d="M482.23,248.97c-5.65,7.04-12.83,9.8-21.43,9.01-7.5-.69-14.65-3.12-22.2-4.55,13.44-12.57,31.32-14.43,43.63-4.45Z"/><path class="cls-2" d="M430.55,220.74c3.9-5.63,7.93-11.16,12.76-16.04,6.6-6.67,14.26-8.88,23.74-6.89-2.2,8.18-6.65,14.54-14.3,18.38-6.81,3.42-14.15,4.89-21.7,5.37-.16-.27-.33-.54-.49-.81Z"/><path class="cls-2" d="M429.72,279.85c7.51-1.53,14.1-2.61,20.77-1.66,8.85,1.25,14.89,7.29,17.25,16.93-15.72,3.34-25.54-7.97-38.02-15.26Z"/><path class="cls-2" d="M407.79,205.64c5.93-13.01,8.44-28.05,22.27-36.21,3.74,7.67,2.47,16.47-3.34,22.82-5.31,5.8-12.21,9.41-18.93,13.39Z"/><path class="cls-2" d="M496.53,219.57c-3.01,9-5.71,17.06-8.5,25.42-6.83-2.28-13.63-4.56-21.11-7.06,9.71-6.02,19.22-11.91,29.61-18.36Z"/><path class="cls-2" d="M495.33,212.79c-12.12,1.31-23.2,2.5-35.17,3.79,4.77-6.93,9.05-13.15,13.42-19.49,7.16,5.17,14.07,10.16,21.74,15.7Z"/><path class="cls-2" d="M425.82,165.88c-5.12,6.32-9.87,12.17-15.26,18.82-.11-7.17-.21-13.39-.31-20,5.18.39,10.08.77,15.57,1.19Z"/><path class="cls-2" d="M442.86,294.83c7.88,2.21,14.77,4.15,22.37,6.28-3.89,3.66-7.29,6.86-11.06,10.41-3.68-5.44-7.22-10.65-11.31-16.69Z"/><path class="cls-2" d="M461.3,276.82c5.31-.65,10.18-1.25,15.4-1.9-1.78,5.33-3.43,10.25-5.31,15.87-3.44-4.76-6.6-9.13-10.1-13.97Z"/><path class="cls-2" d="M384.91,208.12c-2.52,1.12-2.77-.61-3.1-1.97-1.01-4.15-.95-8.35-.31-12.55.71-4.67,1.44-9.34,2.14-13.85,1.04-.89,1.87-.41,2.96-.11-.57,9.59-1.14,19.11-1.7,28.48Z"/><path class="cls-2" d="M454.94,183.56c4.52,2.97,8.48,5.57,13.33,8.76-6.58,1.19-12.39,2.23-18.89,3.4,1.95-4.26,3.65-7.98,5.56-12.16Z"/><path class="cls-2" d="M448.72,179.63c-4.88,2.01-9.14,3.76-14.04,5.78.48-4.96.92-9.43,1.41-14.41,4.5,2.41,8.17,5.48,12.63,8.63Z"/><path class="cls-2" d="M409.57,291.53c5.51,7.05,11.01,14.09,16.79,21.48-8.42-1.61-16.5-11.5-17.66-21.02.29-.15.59-.31.88-.46Z"/><path class="cls-2" d="M468.75,261.66c5.29-2.42,9.88-4.52,15.07-6.89l-3.79,11.32c-3.73-.78-7.11-2.4-11.29-4.43Z"/><path class="cls-2" d="M430.08,318.06c-.87-3.35-1.63-6.24-2.54-9.75,5.09,2.35,9.82,4.08,15.06,7.4-4.62,1.64-8.49,1.58-12.52,2.35Z"/><path class="cls-2" d="M398.81,169.12c-2.59,4.49-5.18,8.99-7.95,13.79-1.8-2.83-2.51-5.74-3.67-8.67,3.57-2.03,7.07-4.03,10.58-6.02.35.3.7.6,1.05.9Z"/><path class="cls-2" d="M377.36,196.57c-2.52-.86-4.32-1.81-5.52-3.96.43-4.3,3.7-6.77,7.01-10.45-.55,5.34-1,9.7-1.48,14.41Z"/><path class="cls-2" d="M407.57,304.52c-1.39,2.27-2.19,4.14-1.74,6.56,3.07,3.05,7.16,2.86,12.06,3.6-3.82-3.77-6.94-6.84-10.31-10.17Z"/><path class="cls-2" d="M80.79,219.58c16.46,10.77,32.38,22.45,50.94,29.6,9.21,3.55,18.63,5.83,28.61,4.88,3.16-.3,6.07-1.05,7.47-4.26,1.4-3.2.05-5.97-1.86-8.44-3.3-4.24-7.45-7.37-12.48-9.43-18.94-7.76-38.91-10.49-59.08-12.18-4.45-.37-8.88-1.15-13.38-.76-.07.19-.15.39-.23.58Z"/><path class="cls-2" d="M167.89,271.77c1.39-.14,2.55-.34,3.43-1.32,1.13-2.51.31-5.23.8-7.84,1.53.02,2.68.86,3.97,1.61.03,4.25-1.02,7.73-4.31,10.65-4.64,4.13-6.94,9.66-7.5,15.76-.59,6.36-1.48,12.81,1.27,19.04,15.19-6.94,26.33-28.01,22.95-43.23-1.36-6.11-4.8-10.55-11.27-11.95-5.57-1.21-10.3.58-12.45,4.59-2.11,3.92-1.11,8.17,3.1,12.68Z"/><path class="cls-2" d="M184.06,240.81c-2.04.6-3.83.57-5.75.07,1.01-2.8,3.45-4.75,3.93-7.63-.71-1.48-1.95-2.19-3.46-2.84-2.35,1.09-4.37,2.73-5.97,4.85-2.6,3.46-2.5,7.57.17,10.95,5.87,7.45,15.72,7.87,22.01.92,8.72-9.62,12.01-32.59,6.3-44.31-.63-1.29-1.51-2.45-2.25-3.64-9.41,4.62-15.88,18.86-13.92,30.6.62,3.73.67,7.32-1.05,11.04Z"/><path class="cls-2" d="M93.27,269.73c18.77,3.52,36.62,8.05,55.12,3.58,8.19-1.98,11.95-5.83,12.32-13.12-19.97-6.26-45.79-3.02-67.44,9.54Z"/><path class="cls-2" d="M118.21,185.26c10.13,23.92,27.31,39.66,49.75,50.49,3.37-6.74,2.18-12.62-2.24-17.9-4.45-5.31-10.17-9.21-15.8-13.12-9.33-6.47-18.28-13.56-28.76-18.21-.7-.31-1.41-.6-2.94-1.26Z"/><path class="cls-2" d="M118.27,312.84c19.16-5.66,34.62-14.82,44-32.27,1.77-3.29,1.91-4.85.97-10.05-22,6.19-35.23,21.69-44.97,42.31Z"/><path class="cls-2" d="M253.8,277.67s0-.03,0-.04c0-.32-.07-.64-.2-.93-.78-1.75-2.53-2.43-4.2-3.17-14.5-6.48-28.99-12.97-43.51-19.42-6.39-2.84-11.47-1.52-13.06,3.31-1.85,4.94,2.46,9.73,8.17,11.12,16.31,3.97,31.63,7.16,48.11,11.11,1.78.43,4.65-.14,4.68-1.98Z"/><path class="cls-2" d="M162.78,166.65c-4.83,21.51.31,45.01,13.65,61.12,2.71-2.25,3.83-5.15,4.09-8.64,1.4-18.94-5.56-35.15-16.15-50.21-.45-.65-.91-1.29-1.6-2.27Z"/><path class="cls-2" d="M85.7,248.97c5.65,7.04,12.83,9.8,21.43,9.01,7.5-.69,14.65-3.12,22.2-4.55-13.44-12.57-31.32-14.43-43.63-4.45Z"/><path class="cls-2" d="M137.37,220.74c-3.9-5.63-7.93-11.16-12.76-16.04-6.6-6.67-14.26-8.88-23.74-6.89,2.2,8.18,6.65,14.54,14.3,18.38,6.81,3.42,14.15,4.89,21.7,5.37.16-.27.33-.54.49-.81Z"/><path class="cls-2" d="M138.2,279.85c-7.51-1.53-14.1-2.61-20.77-1.66-8.85,1.25-14.89,7.29-17.25,16.93,15.72,3.34,25.54-7.97,38.02-15.26Z"/><path class="cls-2" d="M160.13,205.64c-5.93-13.01-8.44-28.05-22.27-36.21-3.74,7.67-2.47,16.47,3.34,22.82,5.31,5.8,12.21,9.41,18.93,13.39Z"/><path class="cls-2" d="M71.39,219.57c3.01,9,5.71,17.06,8.5,25.42,6.83-2.28,13.63-4.56,21.11-7.06-9.71-6.02-19.22-11.91-29.61-18.36Z"/><path class="cls-2" d="M72.6,212.79c12.12,1.31,23.2,2.5,35.17,3.79-4.77-6.93-9.05-13.15-13.42-19.49-7.16,5.17-14.07,10.16-21.74,15.7Z"/><path class="cls-2" d="M142.1,165.88c5.12,6.32,9.87,12.17,15.26,18.82.11-7.17.21-13.39.31-20-5.18.39-10.08.77-15.57,1.19Z"/><path class="cls-2" d="M125.06,294.83c-7.88,2.21-14.77,4.15-22.37,6.28,3.89,3.66,7.29,6.86,11.06,10.41,3.68-5.44,7.22-10.65,11.31-16.69Z"/><path class="cls-2" d="M106.63,276.82c-5.31-.65-10.18-1.25-15.4-1.9,1.78,5.33,3.43,10.25,5.31,15.87,3.44-4.76,6.6-9.13,10.1-13.97Z"/><path class="cls-2" d="M183.02,208.12c2.52,1.12,2.77-.61,3.1-1.97,1.01-4.15.95-8.35.31-12.55-.71-4.67-1.44-9.34-2.14-13.85-1.04-.89-1.87-.41-2.96-.11.57,9.59,1.14,19.11,1.7,28.48Z"/><path class="cls-2" d="M112.98,183.56c-4.52,2.97-8.48,5.57-13.33,8.76,6.58,1.19,12.39,2.23,18.89,3.4-1.95-4.26-3.65-7.98-5.56-12.16Z"/><path class="cls-2" d="M119.21,179.63c4.88,2.01,9.14,3.76,14.04,5.78-.48-4.96-.92-9.43-1.41-14.41-4.5,2.41-8.17,5.48-12.63,8.63Z"/><path class="cls-2" d="M158.36,291.53c-5.51,7.05-11.01,14.09-16.79,21.48,8.42-1.61,16.5-11.5,17.66-21.02-.29-.15-.59-.31-.88-.46Z"/><path class="cls-2" d="M99.18,261.66c-5.29-2.42-9.88-4.52-15.07-6.89,1.39,4.17,2.54,7.6,3.79,11.32,3.73-.78,7.11-2.4,11.29-4.43Z"/><path class="cls-2" d="M137.85,318.06c.87-3.35,1.63-6.24,2.54-9.75-5.09,2.35-9.82,4.08-15.06,7.4,4.62,1.64,8.49,1.58,12.52,2.35Z"/><path class="cls-2" d="M169.12,169.12c2.59,4.49,5.18,8.99,7.95,13.79,1.8-2.83,2.51-5.74,3.67-8.67-3.57-2.03-7.07-4.03-10.58-6.02-.35.3-.7.6-1.05.9Z"/><path class="cls-2" d="M190.57,196.57c2.52-.86,4.32-1.81,5.52-3.96-.43-4.3-3.7-6.77-7.01-10.45.55,5.34,1,9.7,1.48,14.41Z"/><path class="cls-2" d="M160.35,304.52c1.39,2.27,2.19,4.14,1.74,6.56-3.07,3.05-7.16,2.86-12.06,3.6,3.82-3.77,6.94-6.84,10.31-10.17Z"/><path class="cls-2" d="M285.65,75.04c-5.13,18.99-11.29,37.75-12.33,57.61-.52,9.86.24,19.52,4.24,28.71,1.27,2.91,2.88,5.44,6.37,5.78,3.48.34,5.7-1.8,7.44-4.39,3.01-4.45,4.69-9.37,5.09-14.79,1.5-20.41-2.1-40.24-6.75-59.94-1.03-4.34-1.67-8.8-3.43-12.95-.21,0-.42-.02-.62-.03Z"/><path class="cls-2" d="M263.07,174.03c.57,1.28,1.11,2.32,2.31,2.85,2.74.3,5.07-1.33,7.7-1.67.46,1.46.02,2.82-.3,4.27-4.03,1.35-7.67,1.42-11.46-.79-5.37-3.13-11.33-3.6-17.31-2.24-6.23,1.42-12.64,2.57-17.71,7.12,11.31,12.28,34.8,16.34,48.22,8.41,5.39-3.19,8.54-7.84,7.87-14.42-.58-5.67-3.75-9.61-8.23-10.41-4.38-.78-8.11,1.48-11.09,6.88Z"/><path class="cls-2" d="M297.51,179.8c-1.2-1.76-1.73-3.47-1.85-5.44,2.98.09,5.59,1.8,8.47,1.37,1.19-1.14,1.47-2.53,1.63-4.17-1.76-1.9-3.95-3.31-6.46-4.17-4.09-1.4-7.97-.02-10.36,3.56-5.27,7.89-2.6,17.38,5.96,21.21,11.85,5.3,34.71,1.3,44.08-7.76,1.03-.99,1.86-2.19,2.76-3.27-7.31-7.51-22.86-9.25-33.41-3.74-3.35,1.75-6.75,2.91-10.82,2.43Z"/><path class="cls-2" d="M241.85,102.46c2.48,18.94,3.72,37.31,13.7,53.51,4.42,7.17,9.25,9.55,16.3,7.64-.24-20.93-11.34-44.47-29.99-61.15Z"/><path class="cls-2" d="M329.89,99.96c-19.6,17.06-29.23,38.26-32.56,62.96,7.45,1.11,12.68-1.85,16.32-7.69,3.67-5.88,5.6-12.53,7.57-19.1,3.26-10.88,7.22-21.58,8.39-32.99.08-.76.13-1.52.28-3.19Z"/><path class="cls-2" d="M208.63,139.6c11.33,16.46,24.84,28.31,44.33,31.82,3.67.66,5.2.31,9.85-2.19-12.71-19-31.55-26.77-54.18-29.63Z"/><path class="cls-2" d="M284.12,257.54s.02,0,.04-.01c.3-.1.58-.26.82-.47,1.42-1.29,1.52-3.16,1.71-4.98,1.67-15.79,3.33-31.59,4.96-47.38.72-6.95-2.11-11.38-7.2-11.39-5.27-.23-8.49,5.36-8.04,11.22,1.29,16.74,3.01,32.29,4.37,49.18.15,1.83,1.58,4.38,3.33,3.84Z"/><path class="cls-2" d="M361.41,136.56c-21.95,2.08-42.7,14.26-53.87,31.94,2.98,1.88,6.09,2.04,9.48,1.21,18.44-4.54,31.69-16.19,42.72-30.93.47-.63.95-1.27,1.66-2.23Z"/><path class="cls-2" d="M259.24,88.82c-4.94,7.56-5.33,15.24-1.91,23.17,2.99,6.92,7.51,12.96,11.22,19.69,7.78-16.68,4-34.25-9.31-42.86Z"/><path class="cls-2" d="M302.1,129.19c4.14-5.46,8.15-11,11.29-17.1,4.29-8.34,4.02-16.31-.81-24.7-7.1,4.63-11.76,10.83-13.03,19.3-1.13,7.54-.26,14.96,1.63,22.3.31.07.62.14.92.21Z"/><path class="cls-2" d="M246.17,148.32c-.88-7.61-1.89-14.21-4.87-20.27-3.94-8.03-11.55-11.9-21.44-11.14,1.71,15.98,15.5,21.81,26.31,31.41Z"/><path class="cls-2" d="M323.52,146.14c10.53-9.67,24.05-16.73,27.51-32.4-8.45-1.18-16.42,2.76-20.66,10.25-3.87,6.85-5.16,14.52-6.86,22.15Z"/><path class="cls-2" d="M282.75,66.1c-7.62,5.65-14.45,10.72-21.53,15.97,4.29,5.78,8.56,11.55,13.26,17.88,2.71-11.1,5.36-21.97,8.26-33.85Z"/><path class="cls-2" d="M289.56,65.14c2.52,11.92,4.82,22.83,7.31,34.61,5.11-6.69,9.69-12.69,14.37-18.81-7.14-5.2-14.02-10.22-21.67-15.8Z"/><path class="cls-2" d="M355.72,116.66c-4.42,6.83-8.51,13.16-13.15,20.35,6.85-2.12,12.79-3.96,19.11-5.91-1.98-4.8-3.86-9.35-5.96-14.43Z"/><path class="cls-2" d="M227.85,140.48c-4.55-6.8-8.52-12.76-12.91-19.32-2.27,4.83-4.26,9.06-6.46,13.75,6.31,1.81,12.37,3.56,19.37,5.57Z"/><path class="cls-2" d="M239.26,117.36c-1.02-5.25-1.97-10.06-2.97-15.23-4.51,3.35-8.68,6.44-13.44,9.97,5.59,1.79,10.73,3.44,16.41,5.26Z"/><path class="cls-2" d="M328.27,168.66c-.29,2.74,1.44,2.45,2.83,2.34,4.26-.33,8.23-1.69,12.03-3.6,4.22-2.12,8.44-4.27,12.51-6.33.53-1.27-.19-1.9-.82-2.85-8.94,3.52-17.81,7.01-26.55,10.45Z"/><path class="cls-2" d="M329.88,94.47c-4.23-3.38-7.93-6.33-12.46-9.95.92,6.63,1.72,12.47,2.63,19.01,3.44-3.17,6.45-5.94,9.84-9.06Z"/><path class="cls-2" d="M335.55,99.16c-.4,5.27-.74,9.85-1.14,15.14,4.56-2,8.68-3.8,13.26-5.81-3.69-3.53-7.75-6.07-12.12-9.33Z"/><path class="cls-2" d="M241.32,171.1c-8.41-3.05-16.81-6.09-25.63-9.29,4.15,7.51,16.05,12.12,25.47,10.27.05-.33.11-.65.16-.98Z"/><path class="cls-2" d="M251.36,105.57c.66-5.78,1.23-10.79,1.87-16.47-3.53,2.62-6.44,4.77-9.59,7.11,1.9,3.31,4.49,6.01,7.71,9.36Z"/><path class="cls-2" d="M209.74,159.83c3.45-.21,6.43-.39,10.06-.61-3.81-4.11-6.92-8.07-11.71-12.02-.13,4.9,1.14,8.56,1.65,12.63Z"/><path class="cls-2" d="M361.03,143.35c-3.47,3.86-6.94,7.72-10.64,11.83,3.25.84,6.24.6,9.38.8.83-4.03,1.64-7.97,2.45-11.92-.39-.24-.79-.48-1.18-.72Z"/><path class="cls-2" d="M341.59,172.26c1.6,2.13,3.06,3.55,5.47,4.02,3.96-1.74,5.28-5.62,7.76-9.9-4.91,2.18-8.91,3.96-13.24,5.88Z"/><path class="cls-2" d="M229.59,177.03c-1.72,2.03-3.26,3.36-5.7,3.69-3.85-1.97-4.94-5.92-7.17-10.34,4.77,2.47,8.66,4.48,12.87,6.65Z"/><path class="cls-2" d="M155.25,456.35c7.7-18.1,14.46-36.66,25.92-52.91,5.69-8.07,12.25-15.19,21.08-19.95,2.8-1.51,5.63-2.5,8.58-.61,2.95,1.89,3.36,4.94,3.14,8.05-.39,5.36-2.1,10.26-5.14,14.78-11.44,16.97-26.53,30.33-42.36,42.94-3.49,2.78-6.75,5.89-10.7,8.06-.17-.12-.34-.24-.51-.36Z"/><path class="cls-2" d="M198.69,364.58c1.24-.66,2.31-1.13,3.58-.81,2.34,1.46,3.16,4.18,5.02,6.07,1.27-.87,1.75-2.21,2.41-3.54-2.33-3.55-5.15-5.86-9.5-6.46-6.15-.86-11.13-4.18-14.99-8.94-4.02-4.96-8.35-9.84-9.52-16.54,16.48-2.66,37.45,8.67,43.1,23.2,2.27,5.84,1.87,11.44-2.73,16.2-3.96,4.09-8.89,5.23-12.9,3.09-3.93-2.09-5.46-6.17-4.46-12.27Z"/><path class="cls-2" d="M229.33,381.33c-2.03.64-3.5,1.65-4.82,3.13,2.39,1.77,5.51,2.03,7.51,4.16.23,1.63-.4,2.9-1.3,4.29-2.56.4-5.15.16-7.66-.72-4.08-1.43-6.28-4.91-5.95-9.2.74-9.46,8.7-15.27,17.79-12.99,12.59,3.16,28.09,20.43,29.86,33.34.19,1.42.11,2.87.15,4.28-10.39,1.39-23.69-6.86-28.57-17.71-1.55-3.45-3.51-6.46-7.01-8.59Z"/><path class="cls-2" d="M137.77,407.72c13.66-13.36,25.99-27.03,43.84-33.6,7.91-2.91,13.17-1.79,17.53,4.07-13.13,16.3-36.4,27.95-61.38,29.53Z"/><path class="cls-2" d="M205.43,464.1c-4.86-25.52.67-48.15,13.32-69.62,6.55,3.73,8.82,9.29,8.08,16.13-.75,6.89-3.34,13.31-5.85,19.69-4.16,10.56-7.66,21.43-13.8,31.12-.41.65-.84,1.28-1.75,2.68Z"/><path class="cls-2" d="M134.62,357.99c19.07-5.93,37.02-6.9,54.51,2.39,3.3,1.75,4.28,2.98,6.39,7.81-21.73,7.07-41.34,1.54-60.9-10.2Z"/><path class="cls-2" d="M266.85,311.95s.01.02.02.03c.18.26.3.57.35.88.32,1.89-.76,3.43-1.73,4.97-8.45,13.44-16.91,26.89-25.39,40.32-3.73,5.91-8.69,7.64-12.7,4.5-4.28-3.08-3.36-9.46.62-13.79,11.36-12.36,22.33-23.52,33.84-35.96,1.25-1.35,3.95-2.46,4.99-.95Z"/><path class="cls-2" d="M252.83,454.82c-15.97-15.21-24.75-37.6-22.6-58.41,3.5.37,6.05,2.16,8.2,4.91,11.69,14.97,14.9,32.31,14.46,50.72-.02.79-.04,1.58-.07,2.78Z"/><path class="cls-2" d="M143,429.19c.79-9,5.23-15.28,12.82-19.39,6.62-3.59,13.91-5.55,20.99-8.54-4.19,17.92-18.02,29.4-33.81,27.94Z"/><path class="cls-2" d="M201.66,423.95c-.12,6.85-.39,13.69-1.7,20.43-1.78,9.21-6.92,15.3-15.91,18.92-2.71-8.03-2.55-15.78,1.68-23.22,3.77-6.63,9.05-11.92,15.07-16.52.29.13.57.27.86.4Z"/><path class="cls-2" d="M169.52,374.34c-5.4,5.44-10.27,10-16.35,12.92-8.06,3.88-16.43,2.22-23.74-4.49,11.22-11.51,25.66-7.56,40.1-8.43Z"/><path class="cls-2" d="M228.97,423.87c2.3,14.11,8.57,28.02,1.6,42.48-7.37-4.3-11.2-12.32-9.9-20.83,1.19-7.77,4.92-14.61,8.3-21.65Z"/><path class="cls-2" d="M147.44,461.58c-2.5-9.16-4.73-17.36-7.05-25.86,6.95-1.89,13.87-3.78,21.48-5.86-4.73,10.4-9.36,20.58-14.43,31.72Z"/><path class="cls-2" d="M152.21,466.55c9.35-7.82,17.9-14.97,27.13-22.69-.12,8.42-.23,15.96-.33,23.67-8.83-.32-17.34-.63-26.8-.98Z"/><path class="cls-2" d="M236.06,466.94c.75-8.1,1.45-15.6,2.24-24.12,4.07,5.9,7.61,11.02,11.37,16.46-4.52,2.55-8.81,4.96-13.61,7.66Z"/><path class="cls-2" d="M150.27,369.18c-7.78,2.54-14.59,4.76-22.09,7.21,1.2-5.2,2.25-9.75,3.42-14.8,6.08,2.47,11.92,4.85,18.67,7.6Z"/><path class="cls-2" d="M144.94,394.41c-4.05,3.49-7.77,6.7-11.75,10.14-1.48-5.42-2.84-10.42-4.4-16.14,5.5,2.04,10.56,3.93,16.16,6.01Z"/><path class="cls-2" d="M246.62,409.1c1.47-2.33,2.64-1.03,3.67-.09,3.15,2.89,5.43,6.42,7.23,10.27,2.01,4.28,3.99,8.57,5.92,12.71-.37,1.32-1.33,1.38-2.41,1.74-4.85-8.29-9.67-16.52-14.41-24.62Z"/><path class="cls-2" d="M202.03,468.42c-5.41.04-10.15.08-15.95.12,4.82-4.64,9.06-8.74,13.82-13.32.75,4.62,1.4,8.66,2.13,13.2Z"/><path class="cls-2" d="M209.39,468.23c2.94-4.39,5.51-8.2,8.46-12.61,2.35,4.39,4.47,8.36,6.83,12.76-5.08.49-9.84-.02-15.3-.16Z"/><path class="cls-2" d="M179.78,353.43c-8.49-2.8-16.98-5.6-25.89-8.54,7.9-3.34,20.11.4,26.37,7.67-.16.29-.32.58-.48.87Z"/><path class="cls-2" d="M147.17,411.15c-3.06,4.95-5.7,9.24-8.71,14.1l-3.14-11.52c3.53-1.43,7.24-1.95,11.85-2.59Z"/><path class="cls-2" d="M148,342.77c2.58,2.3,4.82,4.28,7.53,6.7-5.53.87-10.43,2.06-16.63,2.21,2.93-3.93,6.18-6.02,9.1-8.91Z"/><path class="cls-2" d="M256.73,449.25c-.34-5.18-.68-10.35-1.05-15.88,3.07,1.35,5.27,3.38,7.87,5.17-1.84,3.68-3.64,7.28-5.45,10.88-.46-.06-.91-.11-1.37-.17Z"/><path class="cls-2" d="M259.32,414.5c2.57-.68,4.6-.9,6.79.22,2.03,3.81.68,7.68-.02,12.58-2.51-4.75-4.56-8.62-6.77-12.81Z"/><path class="cls-2" d="M174.23,341.53c-.1-2.66-.48-4.66-2.2-6.43-4.24-.83-7.55,1.6-12.03,3.7,5.27,1.01,9.57,1.83,14.23,2.73Z"/></svg>