<svg enable-background="new 0 0 113.4 113.4" viewBox="0 0 113.4 113.4" xmlns="http://www.w3.org/2000/svg"><path d="m113.4 56.8c-.2 32.1-26.3 56.7-56.8 56.6-30.5 0-57.9-25.5-56.5-59.6 1.2-29.1 25.6-53.9 56.8-53.8 30.9.1 56.5 25.4 56.5 56.8zm-50 32.8c-1.3.7-2.9.3-4.3.9v7.3c24.3-1.9 37.6-21.6 38.5-38.8 1.1-20.8-14.5-41.5-38.5-43.2v7.2c.7.8 1.6.3 2.4.6-1.9 13.2-12.5 22.1-22.9 25.6 2.3-9.7 6.9-18.2 13.2-25.7 1.1.1 1.9-.1 2.8-.3 0-2.4 0-4.8 0-7.3-9.5.6-17.9 3.8-24.9 10.1-10.5 9.4-15.3 21.3-13.8 35.5 2.2 21 20.5 35.8 38.7 36.3 0-2.4 0-4.8 0-7.1-1.3-.6-2.8-.2-4.1-.8-.6-.7-1.4-1.3-1.3-2.4.3-6.3 1.3-12.5 3.5-18.5 2.8-7.6 7.3-13.8 14.5-17.9 2.1-1.2 4.2-2.2 6.6-2.6 1 6.6 1.3 13.2.3 19.8-1.2 8-4 15.2-10.2 20.9-.2-.1-.3.2-.5.4z" fill="#040405"/><path d="m73.8 48.3c-2.4.4-4.5 1.5-6.6 2.6-7.1 4.1-11.6 10.3-14.5 17.9-2.2 5.9-3.3 12.1-3.5 18.5 0 1.2.8 1.7 1.3 2.4 1.3.6 2.7.3 4.1.8v7.1c-18.2-.3-36.5-15.1-38.7-36.1-1.5-14.2 3.3-26.1 13.8-35.6 7-6.3 15.4-9.5 24.9-10.1v7.3c-.9.2-1.8.5-2.8.3-6.3 7.5-10.9 16-13.2 25.7 10.4-3.5 21-12.4 22.9-25.6-.7-.3-1.6.2-2.4-.6 0-2.3 0-4.7 0-7.2 24 1.6 39.6 22.4 38.5 43.2-.9 17.2-14.2 36.9-38.5 38.8 0-2.4 0-4.8 0-7.3 1.4-.6 3-.2 4.3-.9.2 0 .3.1.5 0 5.4-1.3 10.2-3.5 14.4-7.2 3.8-3.3 6.9-7.3 9-12 1.7-4 2.7-8.1 2.9-12.5.1-1.9.1-3.7-.2-5.6-.4-2-.6-4-1.5-5.9-1.9 0-3.8-.2-5.7.2-1 0-1.9 0-2.9.3-2.1.3-4.2.7-6.1 1.5zm-34.5 37.3c.1 0 .1.1 0 0 .1.1.1 0 0 0 0-.2 0-.3-.3-.2.1-.6-.3-1-.6-1.5-3.7-6.3-6.2-13-6.9-20.2-.2-1.8-.2-3.6-.4-5.5-2.7.5-5.3 1.1-8 1.4 0 1 .1 2 .3 2.9.5 3.4 1.7 6.7 3.2 9.7 1.9 3.9 4.7 7.2 8 10.1 1.3 1.2 2.7 2.4 4.4 3 .2.1.3.2.3.3zm2.3-58.8c-13.2 6.5-18.3 20-18.2 26.4 2.8-.4 5.6-.8 8.4-1.7 1.5-8.9 4.8-16.9 9.8-24.7zm24.5 4.4c5.8 3.8 11.8 6.7 18.9 7.5-4.5-6.4-10-11.1-17.3-13.6-.6 2.1-1.1 4.1-1.6 6.1zm-28.3 25.2c-1.1 6 2.5 20.4 5.9 23.4.4-3.2 1.1-6.2 1.9-9.3-3.7-4.3-4.7-9.6-5.3-15-1 .3-1.8.5-2.5.9zm14.9-.7c-1.6-1.3-2.4-3-3.2-4.7-1.1.6-2.1 1-3 1.7.1 3.5.5 6.9 1.8 10.5 1.3-2.7 2.7-5.1 4.4-7.5zm20-13.8c-3.3-1.5-6.4-3-9.3-4.9-.8 1.3-1.6 2.5-2.3 3.6 3.4 3.5 4.2 4.3 11.6 1.3zm-17.5 4.8c-.1 1.7.3 3.1 1.6 4.2 1.1-1 2.1-1.9 3.2-2.8-1.1-1-2.2-1.8-3.2-2.7-.5.5-1 .9-1.6 1.3z" fill="#fefefd"/><path d="m82.7 46.7c1.9-.3 3.8-.2 5.7-.2.9 1.9 1.1 4 1.5 5.9.4 1.8.3 3.7.2 5.6-.2 4.3-1.2 8.5-2.9 12.5-2 4.7-5.2 8.6-9 12-4.2 3.6-9 5.9-14.4 7.2-.2 0-.3 0-.5 0 .2-.2.3-.5.6-.7 6.1-5.6 9-12.8 10.2-20.9 1-6.6.7-13.2-.3-19.8 2-.8 4-1.2 6.1-1.3 1.6 9.6 1.6 19.2-1 28.8.6-.2.7-.6.8-.9.6-1.2 1.3-2.4 1.7-3.7 3.1-8 3.1-16.2 1.3-24.5z" fill="#a0c33f"/><path d="m41.6 26.8c-5 7.8-8.4 15.8-9.8 24.7-2.8.8-5.6 1.3-8.4 1.7-.1-6.4 5.1-19.9 18.2-26.4z" fill="#f5c62f"/><path d="m39.1 85.3c-1.7-.6-3-1.9-4.4-3-3.3-2.9-6.1-6.2-8-10.1-1.5-3.1-2.7-6.3-3.2-9.7-.1-.9-.3-1.9-.3-2.9 2.6-.3 5.2-.8 8-1.4.1 1.9.2 3.7.4 5.5.7 7.3 3.1 14 6.9 20.2.2.5.7.9.6 1.4z" fill="#de2d29"/><path d="m66.1 31.2c.5-2.1 1.1-4 1.6-6.1 7.3 2.4 12.8 7.1 17.3 13.6-7.1-.8-13.2-3.7-18.9-7.5z" fill="#de2d29"/><path d="m37.8 56.4c.7-.5 1.6-.7 2.6-1 .5 5.5 1.5 10.8 5.2 15.2-.8 3-1.5 6.1-1.9 9.3-3.5-3.1-7.1-17.5-5.9-23.5z" fill="#f5c62f"/><path d="m82.7 46.7c1.8 8.3 1.8 16.5-1.3 24.6-.5 1.3-1.1 2.5-1.7 3.7-.1.3-.2.7-.8.9 2.6-9.6 2.6-19.2 1-28.8.9-.4 1.9-.4 2.8-.4z" fill="#de2d29"/><g fill="#f5c62f"><path d="m52.7 55.7c-1.7 2.4-3.1 4.8-4.4 7.6-1.3-3.6-1.8-7-1.8-10.5.9-.7 1.9-1.2 3-1.7.8 1.6 1.6 3.3 3.2 4.6z"/><path d="m72.7 41.9c-7.4 3-8.1 2.2-11.6-1.3.7-1.1 1.5-2.3 2.3-3.6 2.9 1.9 5.9 3.4 9.3 4.9z"/><path d="m55.2 46.7c.6-.5 1-.9 1.6-1.3 1.1.9 2.1 1.8 3.2 2.7-1.1 1-2.1 1.9-3.2 2.8-1.3-1.1-1.7-2.5-1.6-4.2z"/></g><path d="m39.1 85.4c.3-.1.3.1.2.3 0-.2-.1-.3-.2-.3 0-.1 0 0 0 0z" fill="#de2d29"/><path d="m39.3 85.6c.1 0 .1 0 0 0 .2.1.1 0 0 0z" fill="#de2d29"/><path d="m78.9 76.2-.1.1v-.1z" fill="#f5c62f"/></svg>