<svg viewBox="0 0 566.93 566.93" xmlns="http://www.w3.org/2000/svg"><circle cx="283.46" cy="283.46" fill="#fff" r="276.38"/><path d="m283.94 86.07c99.13.24 181 73.49 194.82 168.71h68.3c-14.34-132.78-127.06-236.47-263.6-236.47s-249.25 103.69-263.59 236.47h68.24c13.7-95.3 96.54-168.95 195.83-168.71z" fill="#cc1333"/><path d="m283.46 548.62c136.62 0 249.41-103.85 263.63-236.75h-68.31c-13.79 95.84-96 169.22-195.53 169a197 197 0 0 1 -195-169h-68.41c14.22 132.9 127.01 236.75 263.62 236.75z" fill="#cc1333"/><path d="m551.1 311.87a269.13 269.13 0 0 1 -457.93 161.89 267 267 0 0 1 -77.34-161.89h-8.74c14.22 140.13 132.53 249.41 276.37 249.41s262.16-109.28 276.38-249.41z" fill="#cc1333"/><path d="m283.46 14.34a269.17 269.17 0 0 1 267.61 240.44h8.74c-14.35-139.95-132.6-249.13-276.35-249.13s-261.99 109.18-276.34 249.13h8.74a269.17 269.17 0 0 1 267.6-240.44z" fill="#cc1333"/><path d="m283.46 552.59a269.17 269.17 0 0 0 267.64-240.72h-4c-14.22 132.9-127 236.75-263.63 236.75s-249.41-103.85-263.63-236.75h-4a269.17 269.17 0 0 0 267.62 240.72z" fill="#feffff"/><path d="m283.46 18.31c136.54 0 249.26 103.69 263.6 236.47h4a269.13 269.13 0 0 0 -457.89-161.61 267.08 267.08 0 0 0 -77.31 161.61h4c14.35-132.78 127.14-236.47 263.6-236.47z" fill="#feffff"/><g fill="#fff"><path d="m169.54 56.07 2.79 4.5-8 4.95 1.46 2.36-5.57 3.44-1.47-2.32-11.06 6.8 1.46 2.36-5.57 3.44-1.46-2.35-8 5-2.78-4.5 8-5-1.83-3 5.57-3.44 1.83 3 11.09-6.84-1.83-3 5.57-3.44 1.83 3zm7.71 12.93-27.16 16.8 1.14 1.84c.62 1 1.36 1.35 2.22 1.06a74.23 74.23 0 0 0 8-4.58q6.67-4.14 14.49-9.61l3 4.25q-6.22 4.56-14.72 9.81-5 3.08-7.23 4.3t-4.37 2.26c-1.41.7-2.45.83-3.12.42a10.14 10.14 0 0 1 -1.81-1.4 16 16 0 0 1 -2.16-3l-1.14-1.84-4.88 3-2.77-4.31 16.06-10-1.61-2.61 5.65-3.5 1.62 2.62 16.06-9.94zm-24.32 28.2 5.44-3.36a19 19 0 0 1 3.12 11.16 16.58 16.58 0 0 1 -4.09 10.08l-5.64-2.31q5.84-8.02 1.17-15.57zm17 8.58-8.45-13.67 5.74-3.55 8.45 13.67zm.81-19.57 5.26-3.21 5.11 8.26c.43.69.74 1.07.94 1.14s.59-.07 1.16-.42a1.38 1.38 0 0 0 .79-1.7 58.67 58.67 0 0 0 -3.43-6.32l5.1-2.38c.89 1.58 1.58 2.8 2.06 3.67s.94 1.8 1.39 2.78.76 1.7.92 2.16a4.94 4.94 0 0 1 .25 1.65 2.5 2.5 0 0 1 -.25 1.37 9.25 9.25 0 0 1 -1 1.14 7.75 7.75 0 0 1 -1.43 1.18l-2.12 1.31q-4.06 2.52-5.36 2.54c-.86 0-1.76-.74-2.72-2.29z"/><path d="m233.11 58.89 1.52 4.53-2.91 1 2.74 8.22-6.21 2.07-.72-2.15-9.53 3.16.06.19a29.73 29.73 0 0 1 1.07 3.76 3.27 3.27 0 0 1 -.42 2.32 4.4 4.4 0 0 1 -2 1.72 41.6 41.6 0 0 1 -4.25 1.61c-1.37.45-3.8 1.18-7.29 2.17l-1.77-4.83c2.89-.78 5.09-1.43 6.62-2a4 4 0 0 0 1.5-.68c.11-.16.06-.53-.13-1.1l-.3-.91-16.87 5.64-1.35-4.06 16.92-5.55-.67-2-18.63 6.23-1.49-4.59 18.63-6.22-.65-2-16.87 5.63-1.4-4.05 16.86-5.64-.57-1.64-8.93 3-6.26 2.09-3.23-9.65 15.19-5.08-.54-1.62-18.15 6.07-1.57-4.68 18.15-6.07-1-2.92 6.88-2.3 1 2.92 18.16-6.07 1.56 4.68-18.15 6.07.54 1.62 15.19-5.08 3.23 9.65-15.19 5.08.54 1.63 15.72-5.26 2 6.07zm-38.21.24 8.93-3-.73-2.2-8.94 3zm15.81-5.29 8.93-3-.73-2.19-8.93 3zm3.77 11.28 9.52-3.18-.66-2-9.5 3.18zm2.19 6.54 9.51-3.18-.67-2-9.51 3.17z"/><path d="m257.06 42.91a58.59 58.59 0 0 0 6.53-15.3l6.13 1.19c-.22 1.08-.59 2.51-1.12 4.3l6.95-.14-.12-5.74 6.9-.15.12 5.75 15.31-.32.11 5.54-15.31.32.16 7.55 18.38-.38.12 5.74-13.2.27.27 12.85c0 1 .21 1.65.57 1.85a9.45 9.45 0 0 0 3.2.24c1.81 0 2.9-.42 3.25-1.13s.61-3.17.76-7.37l5.95.38c-.09 2.39-.16 4.23-.24 5.55a16.82 16.82 0 0 1 -.6 3.71 9.09 9.09 0 0 1 -1 2.46 4.18 4.18 0 0 1 -1.82 1.3 8.06 8.06 0 0 1 -2.65.69q-1.34.11-3.9.15c-1.92 0-3.43 0-4.54 0a15.92 15.92 0 0 1 -2.91-.45 3 3 0 0 1 -1.78-1.09 5 5 0 0 1 -.77-1.83 15.77 15.77 0 0 1 -.26-2.91l-.3-14.21-4.58.1q-1.37 16.75-18.19 21.79l-2.69-5.74a21.37 21.37 0 0 0 10.11-6 16.65 16.65 0 0 0 4.32-9.89l-14.25.3-.12-5.75 19.95-.41-.16-7.55-9.12.19a53.4 53.4 0 0 1 -3.52 6.84z"/><path d="m310.06 46.71 11.14 2.36-3.2 15.32a8 8 0 0 0 2.27 3.61 17 17 0 0 0 5.25 2.55 109.86 109.86 0 0 0 11.37 2.87l14.34 3-1.44 5.31-14-3a82.6 82.6 0 0 1 -14.43-4.08c-3.18-1.37-5.43-3-6.76-5a63 63 0 0 1 -7.81 3.8l-1.91-5.81c2.25-.86 4.42-1.83 6.54-2.89l2.46-11.63-4.93-1zm14.42-6.06-5 3.05q-2.49-4.55-6.58-10.76l5.1-2.94q3.13 4.58 6.48 10.65zm4.14 19.82 22.91 4.86-1.77 8.38-29.27-6.21 3.76-17.74 28.18 6-1.72 8.13-21.83-4.63zm28-21.14-2.09 9.85-11.53-2.45-.3 1.27 13.65 2.89-.9 4.24-34.45-7.35.9-4.24 14.24 3 .26-1.23-5.91-1.25-6-1.27 2.08-9.79 11.88 2.51.56-2.66 6.61 1.4-.57 2.66zm-28.72 24.5-.32 1.47 16.51 3.5.32-1.48zm1.67-7.89 15.43 3.26.33-1.53-15.43-3.26zm7.51-14.06.44-2.07-5.91-1.25-.44 2.07zm6.6 1.4 5.57 1.18.44-2.07-5.57-1.18z"/><path d="m360.81 85.06-.81 1.69-6-2.81 8.46-17.94 20.38 9.57-8.41 17.92-5.7-2.67.79-1.69zm1.11-22.74 2.35-5 4.65 2.19c.55-2.68 1.09-5.51 1.6-8.49l-2.28-1.07 2.29-4.88 8.3 3.89 1.86-4 6.06 2.84-1.86 4 8.62 4-2.29 4.88-2.1-1a81.71 81.71 0 0 1 -5.51 6.65l4.51 2.12-2.35 5zm9.81 22.13 3.12-6.66-8.71-4.08-3.14 6.65zm6.5-20.6a64.57 64.57 0 0 0 5.51-6.65l-7.74-3.61c-.54 3.19-1.1 6-1.69 8.44zm22.86 13.15a16.45 16.45 0 0 1 1.35 6.84 16.12 16.12 0 0 1 -1.44 6.65c-1.36 2.89-2.88 4.68-4.58 5.36s-3.76.46-6.19-.68l-2.92-1.37 1.33-5.66 1 .47c1.7.8 2.93 1.11 3.67.94s1.42-.89 2-2.17q2.27-4.83-.55-13a65.58 65.58 0 0 0 10.65-9.64l-5.52-2.59-16.7 35.47-5.79-2.72 18.9-40.26 17.23 8.09-2.22 4.74a77.1 77.1 0 0 1 -10.22 9.53z"/><path d="m420.26 122.57q-2.44-1.93-6.94-5.83l2.85-3.85a49.94 49.94 0 0 1 -7.78-1l1.38-5.79q10.88 2.58 19.52.84a18.5 18.5 0 0 0 .88-2.72 45.9 45.9 0 0 1 -13.54-.45q-3.45 2.09-7.59-1.21l-.71-.56 2.34-4.9.55.44a2.76 2.76 0 0 0 2.23.84 5.47 5.47 0 0 0 2.3-2 10.47 10.47 0 0 0 2-3.75 20.45 20.45 0 0 0 .42-5.35l-16.6 20.91-4.81-3.82 27.65-34.84 13.26 10.52-3.16 4a.19.19 0 0 0 -.14.08c0 .06-.08.09-.13.09l3.35 2.66c.47-1.72.9-3.47 1.27-5.23l5.85 2.26q-.65 3.16-1.87 7.14l4.11 3.25a47.45 47.45 0 0 0 7-3.31l3.76 4.91a40.53 40.53 0 0 1 -5.4 2.66l5.17 4.1-3.35 4.23-7.1-5.64a77.47 77.47 0 0 0 -3.9 6.94 59.27 59.27 0 0 0 5.91-1l.05 5.7a54.1 54.1 0 0 1 -8.45 1.33 35.63 35.63 0 0 0 -2.29 13.49l-6.23 2.91a42.34 42.34 0 0 1 2.11-15.79 70.63 70.63 0 0 1 8.22-17.24l-1.34-1.07a25.38 25.38 0 0 1 -3.58.38 33.8 33.8 0 0 1 -7.4 21.32q-3.51 4.43-5.55 5.25t-4.32-.9zm6.22-10.18a42.07 42.07 0 0 1 -9.4.58q2.6 2.32 4.13 3.54a1.29 1.29 0 0 0 1.43.23 10.43 10.43 0 0 0 2.47-2.54c.6-.77 1.06-1.37 1.37-1.81zm3.42-31.95-3.9-3.06-7 8.87a58 58 0 0 0 10.9-5.81zm1.1 18.84q.11-1.59.18-2.49a53.45 53.45 0 0 1 -7.62-1.42l1.13-5.4a44.26 44.26 0 0 0 10.4 1.88l-5.84-4.63a52 52 0 0 1 -6.1 3.07 18.81 18.81 0 0 1 -2.11 8.49 37.5 37.5 0 0 0 9.96.5z"/><path d="m72.58 333.65-37.06 11-2.52-8.42 37.06-11zm-8.23 9.57a65.06 65.06 0 0 1 9 9.61l10.53 13.17-9.23 2.74-7.18-9.54c-1.17-1.51-2.31-2.93-3.4-4.25a27.25 27.25 0 0 0 -3.45-3.5 3.66 3.66 0 0 0 -3.15-1.23 3.8 3.8 0 0 0 -2 2.75 27.11 27.11 0 0 0 -1 4.81c-.19 1.71-.37 3.51-.53 5.42l-.72 12.43-9.42 2.8 1.71-17.34a65.42 65.42 0 0 1 2.34-13 9.83 9.83 0 0 1 6.94-6.71 9.89 9.89 0 0 1 9.56 1.84z"/><path d="m59.43 408.37a28.55 28.55 0 0 1 -2.57-6.21 28 28 0 0 1 -1-6.61 17.84 17.84 0 0 1 1-6.58 9.53 9.53 0 0 1 4.07-5.11l2.39-1.34 21.08-11.77 4.25 7.61-21.7 12.13a4.89 4.89 0 0 0 -2.18 3 11.38 11.38 0 0 0 -.33 3.76 17.23 17.23 0 0 0 .73 3.69 17.94 17.94 0 0 0 1.48 3.46 18.21 18.21 0 0 0 2.17 3.08 17.18 17.18 0 0 0 2.71 2.52 11.09 11.09 0 0 0 3.36 1.7 4.92 4.92 0 0 0 3.68-.3l21.7-12.13 4.29 7.68-21.08 11.77-2.39 1.33a9.57 9.57 0 0 1 -6.51.77 18.65 18.65 0 0 1 -6.13-2.65 27.81 27.81 0 0 1 -5.08-4.36 28.47 28.47 0 0 1 -3.94-5.44z"/><path d="m85 444.2-5.86-6.54 25.48-22.85a4.17 4.17 0 0 1 3.17-1 4.43 4.43 0 0 1 3 1.53l2.13 2.37 5.34 6 10.74 12a4.81 4.81 0 0 1 .47.62l.26.29a14.07 14.07 0 0 1 3.45 7 12.24 12.24 0 0 1 -.5 6.13 10.81 10.81 0 0 1 -2.88 4.25 11.14 11.14 0 0 1 -4.65 2.46 11.88 11.88 0 0 1 -6.15-.17 14.18 14.18 0 0 1 -6.57-4.21l-7.64-8.52a8.35 8.35 0 0 0 -2.16 4.81 5.4 5.4 0 0 0 1.49 4l11.82 13.18-6.49 5.82-12.6-14a11.93 11.93 0 0 1 -3-9 16.07 16.07 0 0 1 3.62-9.62q3.57-4.79 4.11-5.26a4.33 4.33 0 0 1 6.15.33l11.48 12.79a4.33 4.33 0 0 0 1.78 1.16 3.5 3.5 0 0 0 1.63.16 2.31 2.31 0 0 0 1.2-.56 2.35 2.35 0 0 0 .68-1.14 3.42 3.42 0 0 0 0-1.63 4.41 4.41 0 0 0 -1-1.9l-11.78-13.13-3.48-3.87a1.52 1.52 0 0 0 -2.39-.13z"/><path d="m170.37 468.61a9.76 9.76 0 0 1 3.71 5.07 16.14 16.14 0 0 1 .74 6.34 23.34 23.34 0 0 1 -1.39 6.23 26.62 26.62 0 0 1 -3 5.7 27.2 27.2 0 0 1 -5.87 6.2 18.93 18.93 0 0 1 -7.74 3.57 10.9 10.9 0 0 1 -8.2-1.44l-18.73-12.85a10.8 10.8 0 0 1 -4.37-7.09 18.18 18.18 0 0 1 .59-8.52 28.85 28.85 0 0 1 3.74-7.69 28 28 0 0 1 5.84-6.22 18.9 18.9 0 0 1 7.73-3.61 10.63 10.63 0 0 1 8.18 1.47l1 .69 16.69 11.45zm-18.6 23.23a5.91 5.91 0 0 0 4.45.8 10.05 10.05 0 0 0 4.23-1.95 15.43 15.43 0 0 0 3.2-3.41 14.64 14.64 0 0 0 2-4.21 11 11 0 0 0 .3-4.64 5.8 5.8 0 0 0 -2.31-3.88l-15.27-10.45a5.76 5.76 0 0 0 -4.45-.76 10.94 10.94 0 0 0 -4.22 2 14.46 14.46 0 0 0 -3.21 3.37 15.15 15.15 0 0 0 -2 4.21 10 10 0 0 0 -.31 4.65 5.94 5.94 0 0 0 2.36 3.86z"/><path d="m222.1 501.28-28.2-10.81a4.57 4.57 0 0 0 -2.11-.22 3.57 3.57 0 0 0 -1.52.61 2.4 2.4 0 0 0 -.82 1 2.47 2.47 0 0 0 -.09 1.33 3.58 3.58 0 0 0 .73 1.46 4.29 4.29 0 0 0 1.72 1.25l17.25 6.62a14 14 0 0 1 6.27 4.66 12 12 0 0 1 2.32 5.77 11.9 11.9 0 0 1 -.69 5.35 11.49 11.49 0 0 1 -3.07 4.36 12.3 12.3 0 0 1 -5.58 2.74 13.09 13.09 0 0 1 -7.7-.82l-.37-.14a4.63 4.63 0 0 1 -.75-.22l-26.86-10.22 3.12-8.14 28.32 10.85a3.37 3.37 0 0 0 2.08.31 3.51 3.51 0 0 0 1.55-.69 2.73 2.73 0 0 0 .87-1.17 3.15 3.15 0 0 0 .09-1.32 3.28 3.28 0 0 0 -.65-1.68 4.17 4.17 0 0 0 -1.7-1.28l-17.26-6.61a14.11 14.11 0 0 1 -6.27-4.64 11.84 11.84 0 0 1 -2.36-5.68 11.09 11.09 0 0 1 .65-5.22 10.79 10.79 0 0 1 3-4.25 12.2 12.2 0 0 1 5.54-2.64 13.93 13.93 0 0 1 7.74.73l.36.14a4.63 4.63 0 0 1 .75.22l26.74 10.25z"/><path d="m240.27 495.78-2.16 14.09 20.9 3.21 2.17-14.08 8.68 1.33-5.86 38.21-8.69-1.34 2.38-15.5-20.91-3.21-2.37 15.51-8.69-1.33 5.86-38.21z"/><path d="m277.11 530.52 16.11-.89-1.16-20.93-16.11.9-.49-8.71 40.94-2.27.49 8.71-16.06.89 1.17 20.92 16.05-.89.48 8.71-40.94 2.27z"/><path d="m362.67 526.4-8.21 3.15-12.27-32a4.14 4.14 0 0 1 .19-3.31 4.46 4.46 0 0 1 2.48-2.25l3-1.14 7.47-2.87 15-5.77a5.92 5.92 0 0 1 .75-.22l.36-.14a14.12 14.12 0 0 1 7.74-.74 12.3 12.3 0 0 1 5.55 2.65 11 11 0 0 1 3 4.24 11.22 11.22 0 0 1 .65 5.22 11.92 11.92 0 0 1 -2.35 5.68 14.15 14.15 0 0 1 -6.27 4.64l-10.7 4.11a8.39 8.39 0 0 0 3.74 3.73 5.34 5.34 0 0 0 4.26 0l16.53-6.35 3.12 8.14-17.6 6.83a11.92 11.92 0 0 1 -9.5-.39 16.1 16.1 0 0 1 -7.7-6.81c-2.13-3.36-3.28-5.27-3.45-5.71a4.33 4.33 0 0 1 2.5-5.64l16-6.16a4.29 4.29 0 0 0 1.72-1.25 3.58 3.58 0 0 0 .73-1.46 2.47 2.47 0 0 0 -.09-1.33 2.4 2.4 0 0 0 -.82-1 3.57 3.57 0 0 0 -1.52-.6 4.46 4.46 0 0 0 -2.12.21l-16.46 6.33-4.82 1.81a1.52 1.52 0 0 0 -1 2.18z"/><path d="m403 499.85 13.43-9-11.62-17.44-13.43 9-4.83-7.26 34.12-22.73 4.84 7.26-13.38 8.91 11.6 17.41 13.37-8.91 4.84 7.26-34.13 22.73z"/><path d="m444.49 428.75a10.51 10.51 0 0 1 7.72-2.93 19.47 19.47 0 0 1 8.19 2.08 27.51 27.51 0 0 1 6.92 4.93 28.26 28.26 0 0 1 5.13 6.77 19 19 0 0 1 2.29 8.14 10.62 10.62 0 0 1 -2.76 7.81l-16.72 17.15a4.35 4.35 0 0 1 -6 .08l-14.15-13.78 6.14-6.29 9.69 9.45a1.58 1.58 0 0 0 2.53-.08l10.72-11a5.81 5.81 0 0 0 1.52-4.26 11.08 11.08 0 0 0 -1.21-4.49 14.79 14.79 0 0 0 -2.76-3.74 14.53 14.53 0 0 0 -3.81-2.67 11 11 0 0 0 -4.53-1.09 5.79 5.79 0 0 0 -4.21 1.62l-18.08 18.55-6.25-6.09z"/><path d="m463.3 404.75 1.58-2.54 13.63-21.88 7.4 4.61-14 22.54a5.79 5.79 0 0 0 -.57 4.48 10.82 10.82 0 0 0 2.15 4.13 14.37 14.37 0 0 0 7.78 4.85 10.93 10.93 0 0 0 4.66.1 5.8 5.8 0 0 0 3.77-2.48l14-22.54 7.4 4.61-14.56 23.37-.65 1.05a10.61 10.61 0 0 1 -6.93 4.54 19 19 0 0 1 -8.45-.28 28.42 28.42 0 0 1 -7.8-3.36 27.79 27.79 0 0 1 -6.44-5.55 19.72 19.72 0 0 1 -4-7.46 10.52 10.52 0 0 1 1.03-8.19zm34.85-11.88-14.15 22.65-7.41-4.61 14.11-22.65z"/><path d="m520.13 379.87-2.89 8.3-32.33-11.24a4.15 4.15 0 0 1 -2.41-2.29 4.43 4.43 0 0 1 -.11-3.34l1.05-3 2.63-7.56 5.28-15.18a4.17 4.17 0 0 1 .32-.72l.12-.37a14 14 0 0 1 4.43-6.38 12.21 12.21 0 0 1 5.6-2.53 10.8 10.8 0 0 1 5.18.44 11.26 11.26 0 0 1 4.41 2.87 11.91 11.91 0 0 1 2.82 5.46 14.23 14.23 0 0 1 -.5 7.79l-3.73 10.79a8.35 8.35 0 0 0 5.25-.45 5.37 5.37 0 0 0 2.78-3.24l5.81-16.72 8.24 2.87-6.2 17.82a11.89 11.89 0 0 1 -6.43 7 16 16 0 0 1 -10.16 1.5q-5.92-.82-6.6-1.06a4.33 4.33 0 0 1 -2.68-5.55l5.64-16.23a4.38 4.38 0 0 0 .15-2.12 3.56 3.56 0 0 0 -.65-1.5 2.31 2.31 0 0 0 -1.07-.78 2.38 2.38 0 0 0 -1.33-.05 3.64 3.64 0 0 0 -1.44.77 4.51 4.51 0 0 0 -1.19 1.76l-5.8 16.66-1.71 4.92a1.53 1.53 0 0 0 1.05 2.15z"/></g><path d="m198.9 189a139.07 139.07 0 0 1 65.32-17c12.89-.13 23.2-.13 32.86.38 7.24.39 5.34-14 3.87-19.71-3.12-12.17-15.17-17.91-18.94-19.71-27.13-12.93-63.75 9.43-76.15 17-6 3.66-48.57 30.54-65.33 83.89-4.51 14.35-4.25 34.91-4.25 34.91s17.17-54.84 62.62-79.76z" fill="#cc1333"/><path d="m370.35 378a139.08 139.08 0 0 1 -65.35 17c-12.88.13-23.19.13-32.85-.39-7.24-.38-5.34 14-3.87 19.72 3.12 12.17 15.17 17.91 18.94 19.71 27.14 12.96 63.78-9.44 76.17-17.04 6-3.65 48.57-30.53 65.33-83.88 4.51-14.35 4.25-34.91 4.25-34.91s-17.17 54.79-62.62 79.79z" fill="#cc1333"/><path d="m190.74 369a139.3 139.3 0 0 1 -18.36-65c-.39-12.88-.6-23.19-.29-32.86.24-7.25-14.09-5-19.79-3.46-12.11 3.32-17.6 15.53-19.3 19.32-12.36 27.38 10.76 63.53 18.59 75.78 3.78 5.91 31.53 47.93 85.21 63.57 14.45 4.21 35 3.53 35 3.53s-55.14-16.01-81.06-60.88z" fill="#cc1333"/><path d="m415.36 203.68c-3.78-5.91-31.53-47.92-85.21-63.57-14.45-4.21-35-3.53-35-3.53s55.12 16 81 60.95a139.19 139.19 0 0 1 18.35 65c.4 12.88.61 23.19.3 32.86-.24 7.25 14.09 5 19.79 3.46 12.11-3.37 17.59-15.53 19.32-19.35 12.39-27.42-10.72-63.57-18.55-75.82z" fill="#cc1333"/><path d="m264.39 175.34h37.68v18.58h-37.68z" fill="#cc1333"/><path d="m264.39 371.39h37.68v18.58h-37.68z" fill="#cc1333"/><path d="m371.97 263.81h18.58v37.68h-18.58z" fill="#cc1333"/><path d="m200.61 263.81h165.73v37.68h-165.73z" fill="#cc1333"/><path d="m175.91 263.81h18.58v37.68h-18.58z" fill="#cc1333"/><path d="m264.63 199.78h37.68v165.73h-37.68z" fill="#cc1333"/></svg>