<svg id="Capa_1" data-name="Capa 1" xmlns="http://www.w3.org/2000/svg" viewBox="0 0 566.93 566.93"><defs><style>.cls-1{fill:#060606;}.cls-2{fill:#e40e20;}.cls-3{fill:#70b62c;}.cls-4{fill:#fff;}</style></defs><path class="cls-1" d="M508.72,448.78c-89.49,122.45-270.32,155.31-399.51,53C-3.94,412.09-32.7,242.44,58.67,118,149.54-5.72,324-32.68,448.25,58.13,572.85,148.48,599.48,324.61,508.72,448.78Z"/><path class="cls-2" d="M528.88,283.47c0-127.52-103.3-231.35-230.61-232.23V87.58c107.27.89,194.27,88.41,194.27,195.89s-87,195-194.27,195.88v36.34C425.58,514.81,528.88,411,528.88,283.47Z"/><path class="cls-3" d="M270.3,479.37c-108,0-195.91-87.88-195.91-195.9S162.28,87.56,270.3,87.56l1.64,0V51.24c-.55,0-1.09,0-1.64,0C142.24,51.21,38.05,155.4,38.05,283.47S142.24,515.71,270.3,515.71l1.64,0V479.35Z"/><path class="cls-4" d="M185.05,266.81Z"/><path class="cls-4" d="M185.11,266.84l0,0h0Z"/><path class="cls-4" d="M444.62,359.64c-5.62-12.33-9-25.53-16.06-37.38-5.54-9.34-9.58-19.62-7.28-31.18,2-10.06,3.52-20.21,5.35-30.31,1.36-7.51,2.87-15,4.15-21.66-7.31-9-17.26-12.84-25.09-19.46-8.42-7.1-16.15-15.15-27.33-18.39,1.18-11.69,6.85-22.63,3.37-35.61-35.08-15.81-67.07-37.5-94-68.17,0,9-.47,16.34.1,23.64,1,12.46.59,25.18,4.82,37.16,6.31,17.91,5.22,35.91.45,53.69a186.56,186.56,0,0,0-6.26,41.85c-.56,15.12-.75,30.24-1.13,45.36-.11,4.64-.13,9.3-2.34,14.06,0,0,0,0,0-.06v69.24c.17-.63.33-1.27.51-1.91,3.05,15.24,3.51,30.59,4,45.93.09,2.88.45,5.36,2.64,7.34,5,1.16,10.26,1.05,14.54,3.81,11.86-5.92,24.08-3.1,36.31-2.76,3.58-3.59,5.13-8.41,7.21-12.86,7.27-15.51,15.75-29.16,34.48-33.35,9.72-2.17,17.24-1.35,22.53,6.18-4,4.37-11.06,5.5-13.58,11.51a2.5,2.5,0,0,0,2.88.81,45.71,45.71,0,0,0,14.35-5.31c6.34-3.86,13.62-5.62,20.41-8.5,4.41-1.87,7.34-4.62,8.87-9.32,2.13-6.54,3.09-13.45,6.3-19.66A5.39,5.39,0,0,0,444.62,359.64Zm-139.9-4.18c-4.75,3.33-5,9-5.6,14.32-2.71-.84-3.2-3-3.62-4.94-3.16-14.64-4.38-29.52-5.8-44.55,5.15-2,6.31-10.58,14.21-7.49.19,3.53-2.41,5.63-3.63,8.28C298,326.2,299.2,336,303,340c1.88,2,4.29,1.84,6.74,1.59,4.14-.42,4.14-.39,6.83,1.49C312.13,346.79,309.56,352.06,304.72,355.46Zm72.56-17.39c-15.24,5-30.5,3.71-45-3-7.76-3.59-13-9.72-14.46-18.59-1.19-7.18-4.77-14-2.48-21.52l-7.82-2.87c2.18-3.65,5.43-5.68,8.48-7.8,4.88-3.38,10-6.45,14.89-9.77,7.51-5.06,15.67-3.9,23.69-2.24,5.16,1.06,10.07,3.28,15.19,4.63,4.93,1.31,9.88,2.68,15.21,3,1.44-4.85-2.15-8.77-2.6-13.26,6.34.29,12.09,4.8,14.45,10.41,2.57,6.11,3.93,12.45,5.34,18.89C406.63,316.45,394.63,332.33,377.28,338.07Z"/><path class="cls-4" d="M185.16,266.87l.05,0h.09Z"/><path class="cls-4" d="M281.62,304.51c-.53-16.08-1-32.16-1.5-48.24a189.19,189.19,0,0,0-6.55-45.17c-3.54-12.7-5.17-26-2.74-39.19,2-11,6-21.62,7.12-32.9,1.29-13.24,1.19-26.49,1.22-40.66-4.2,4.45-8.86,7.38-12.12,11.2-8.43,9.91-19.05,17.17-28.58,25.72a51.51,51.51,0,0,1-7.29,5.49C216,150.12,199.6,157.21,184.79,167c-2.86,11.81,2.54,22.76,3.76,33.34-19.84,10.58-35,26.23-52.56,37.48,2.91,15.64,5.74,29.78,8.11,44,1.58,9.45,3.5,18.88-.3,28.48-5.05,12.73-12,24.44-18.34,36.5-2.78,5.31-5.58,11.1-3.49,16.53,3.39,8.82,4.66,18.35,9.62,27.53,14.18,4.44,27.34,13.34,43,16.07-2.39-6.46-9.15-7.92-13.61-12.39,3.4-3.72,7.06-7.62,12-7.26,12,.84,23.39,3.44,32,13.08,7.37,8.21,11.28,18.28,16.24,27.8,1.24,2.38,2,5.16,5,6.9,5.53-1.6,11.61-.68,17.65-1.19a34,34,0,0,1,18.08,3.73c4.49-3,9.7-2.62,14.53-3.93l2.12-3c1.17-16.5.52-32.65,4.63-48.3V313.18A24.78,24.78,0,0,1,281.62,304.51Zm-57.93,33.6c-18.23,6.65-39.63,1.67-52.49-12.55-6.07-6.7-8-14.89-7.33-23.21a74.45,74.45,0,0,1,6.84-26.87c2.31-4.75,9.59-9.3,14.5-8.58l-.05,0h0l0,0-.06,0h0l.06,0,0,0h0l.14,0h-.09l.06,0c-2.52,3.8-3.35,8.1-3.62,13.13,5.95-1.34,11.95-2.13,17.54-4.1,8.09-2.84,16.23-4.91,24.81-4.94,3.35,0,6.7.22,9.69,2.24,7.43,5,15.41,9.23,22.36,15,1.18,1,2.74,1.72,3,3.57-1.79,2-4.64,1.37-6.22,2.69-3.38,5.94-3.74,12.3-5.11,18.47C244.82,325.91,236,333.61,223.69,338.11Zm44.83,31.78c.44-13.48-12.51-17.5-17.72-27.13.76-2.4,3.07-1.51,5-1.34,7.25.64,7.53,0,10.52-6.14,3.27-6.66,2.13-12.31-1.79-18-.8-1.16-1.84-2.25-1.66-4.15,8.06-4.21,9,5.47,14.44,6.89C275.12,337,275.31,353.93,268.52,369.89Z"/><path class="cls-4" d="M180.32,197c-9.59,5.76-17.12,13.54-25.63,20a201.05,201.05,0,0,1-20.15,13.64c-4.36,2.55-5.53,6.39-5.33,11,.44,10.18,3.47,19.9,5.21,29.85s2.49,20.07,3.61,30.12c.71,6.32-2.22,11.48-5,16.79-2-.61-2.88-2.1-3.6-3.66-3.37-7.18-9.24-9.75-16.83-9.31-9.29.55-18.57,1.41-28,.83,3,2.34,6.62,3,10.15,3.75,4.25.85,8.55,1.43,12.83,2.16,9.89,1.68,11.59,2.61,19.62,10.85-17.78-3.46-35-6.31-52-10.56-6.36-1.59-13-2.1-19-5.06-2.36-1.17-4.27-2.38-3-6.18,21.21-7.34,41.6-17.83,63.11-26,.49-4.53,3.33-7,6.69-8.72,1.67-3.49,1.7-7,1.56-10.55-.44-11.28,3.21-21.81,6.51-32.33,5.81-18.49,10.63-37.46,19.7-54.66,5-9.48,12-18.22,21.72-23.78s19.69-10.89,29.62-16.17c9.52-5.06,20.23-5.89,30.52-8.21l13.54-3a94.69,94.69,0,0,1-24.58,20.91c-14,8.39-29.45,14.39-43.38,25.4C177,174.29,179.84,185.32,180.32,197ZM119.8,285.22c-5.66-.09-31.7,9.3-36.92,13.31,10.83-.84,21.14-2,31.62-2C115.32,292.33,118.36,289.4,119.8,285.22Z"/><path class="cls-4" d="M450.38,275.2c21.5,8.15,41.78,18.57,63,25.91,1.69,3.66-.09,5.06-2.73,6.3-8.11,3.81-17,4.66-25.55,6.66-14.74,3.44-29.69,6-45,9,5.17-7.53,12.36-10,20.48-11,7.41-.95,14.84-2.06,22.5-5.35-2.57-1.31-4.63-.55-6.47-.43-7.91.49-15.75-.61-23.62-.81-7.15-.18-12.38,2.7-15.43,9.23a6.85,6.85,0,0,1-3.53,3.67c-3.61-5.6-5.83-11.47-5.11-18.33,1.67-15.82,3.53-31.59,7.44-47.06a52.35,52.35,0,0,0,1.26-13.41c0-4.17-2.09-6.79-5.42-9-7.84-5.18-16.19-9.86-23.1-16.1s-14.73-11.84-22.58-17.74c.59-10.94,3.3-21.81,2.25-32.86-8.89-5.81-17.46-11.34-26.7-15.94-14.52-7.23-28.75-15.07-39.47-27.78-.46-.55-.83-1.19-1.76-2.52,14,4.36,28.1,4.57,40.8,10.13A218,218,0,0,1,396,146.33c14.68,9.86,22.62,24.83,28.06,41.28,5.54,16.73,11.52,33.33,15.85,50.44,1.72,6.81,3.27,13.69,2.28,20.92-.48,3.48.39,6.86,3.93,9A8.33,8.33,0,0,1,450.38,275.2Zm33.73,22.94c-11.64-6.2-24.07-9.63-37.17-13.67,1.54,5,4.8,7.81,5.43,12.1C463.12,296.41,473.6,297.87,484.11,298.14Z"/><path class="cls-4" d="M280.38,440c-1.86,9.93,1.87,20.18-5.54,29.41a64.68,64.68,0,0,1-10.14-27.37C269.38,439.92,274,438.38,280.38,440Z"/><path class="cls-4" d="M302.42,441.92c-1.75,9.83-4.4,18.71-10.23,27.2-7.77-8.76-3.48-19.11-5.83-28.36C292.43,437.59,297.12,440.27,302.42,441.92Z"/><path class="cls-4" d="M325.92,439.26c-3.12,6.95-2.5,15.05-9.57,20.15-6.55-4.38-5.19-11.53-7.75-17.55A26.93,26.93,0,0,1,325.92,439.26Z"/><path class="cls-4" d="M250.88,459.67c-7.39-5.37-6.64-13.54-9.91-20.32,6.29-1.45,11.39.18,17.12,2C256.23,447.5,256.88,454.3,250.88,459.67Z"/><path class="cls-4" d="M232.93,457.77c-1.75-6.29-5-11.17-5.47-17a14.65,14.65,0,0,1,11.6-.85c-.19,2.54-.38,5.05-.58,7.79C235,449.69,235.25,453.9,232.93,457.77Z"/><path class="cls-4" d="M334.29,457.41c-2.92-3.5-2.37-7.91-5.81-9.69-.28-2.67-.53-5-.8-7.57,3.78-1.88,7.39-1,11.51.16C339.41,446.5,335.54,451.24,334.29,457.41Z"/></svg>