<svg viewBox="0 0 566.93 566.93" xmlns="http://www.w3.org/2000/svg"><path d="m283.46 562.84a279.38 279.38 0 0 1 -197.55-476.93 279.38 279.38 0 1 1 395.09 395.09 277.52 277.52 0 0 1 -197.54 81.84zm0-552.75c-150.74 0-273.37 122.63-273.37 273.37s122.63 273.38 273.37 273.38 273.38-122.63 273.38-273.38-122.63-273.37-273.38-273.37z" fill="#063"/><ellipse cx="283.46" cy="283.46" fill="#063" rx="266.46" ry="262.2"/><path d="m283.46 15.38c-148.06 0-268.09 120-268.09 268.08s120 268.09 268.09 268.09 268.09-120 268.09-268.09-120.02-268.08-268.09-268.08zm0 463.61c-109.73.01-198.69-87.54-198.69-195.53s89-195.52 198.69-195.52 198.7 87.54 198.7 195.52-88.96 195.54-198.7 195.54z" fill="#063"/><ellipse cx="283.46" cy="283.46" fill="#063" rx="131.29" ry="129.19"/><path d="m283.46 552.43a269 269 0 0 1 -190.18-459.15 269 269 0 1 1 380.37 380.37 267.2 267.2 0 0 1 -190.19 78.78zm0-494.93c-124.59 0-226 101.37-226 226s101.37 226 226 226 226-101.37 226-226-101.4-226-226-226z" fill="#fff"/><g fill="#063"><path d="m120.05 121.33-6.19 7.19-15.18-1.84.63 2.56 8 6.89-5.12 6-23.69-20.45 5.12-5.94 10.51 9.05-4-16.62 5.92-6.88 3.73 17.9z"/><path d="m119.51 79.71 4.32 20.71 8.8 9.64-5.79 5.29-8.54-9.35-20.64-6.34 6.6-6 12 4.12-3.18-12.22z"/><path d="m147.2 98.22-14.82-20.51-7.48 5.41-3.5-4.83 21.32-15.41 3.49 4.83-7.48 5.41 14.83 20.5z"/><path d="m168.39 84.08-12.51-22-8 4.56-3-5.18 22.87-13 2.94 5.18-8 4.56 12.5 22z"/><path d="m180.37 39-5.54 2.35-2.24-5.27 5.54-2.35zm2 36.93-2.5-32.9 7.88-3.34 21.92 24.66-7.43 3.15-4.29-5.11-9 3.83.7 6.64zm7.31-40.87-5.54 2.35-2.24-5.27 5.54-2.35zm4.47 22.78-7-8.24 1.09 10.73z"/><path d="m236.74 57.76q-6.84 1.59-11.83-1.61t-6.74-10.71q-1.68-7.24 1.35-12.44t9.88-6.84a24.62 24.62 0 0 1 3.31-.56 22 22 0 0 1 2.91-.07 18.91 18.91 0 0 1 2.47.31c.89.16 1.63.32 2.19.46l1.72 7.22-.77.18c-.45-.24-1-.53-1.67-.85a16.92 16.92 0 0 0 -2.21-.9 13.16 13.16 0 0 0 -2.6-.57 7.86 7.86 0 0 0 -2.77.16 8.88 8.88 0 0 0 -2.98 1.23 7.35 7.35 0 0 0 -2.21 2.42 8.84 8.84 0 0 0 -1.13 3.58 13.85 13.85 0 0 0 .36 4.85 13.53 13.53 0 0 0 1.87 4.6 8.87 8.87 0 0 0 2.71 2.66 7.26 7.26 0 0 0 3 1 9 9 0 0 0 3-.17 8.28 8.28 0 0 0 2.76-1.17 11 11 0 0 0 2-1.65 16.1 16.1 0 0 0 1.5-1.71c.41-.55.77-1 1.07-1.48l.7-.16 1.67 7.16-1.74 1.34a18.16 18.16 0 0 1 -2.07 1.38 24.82 24.82 0 0 1 -2.52 1.27 20.28 20.28 0 0 1 -3.23 1.07z"/><path d="m277.31 35.75q.75 7.53-2.84 12.27t-10.6 5.43q-7 .7-11.48-3.27t-5.19-11.41q-.76-7.5 2.81-12.26t10.6-5.46q7-.71 11.48 3.22t5.22 11.48zm-8.06.78a16.55 16.55 0 0 0 -1.05-4.67 9.82 9.82 0 0 0 -1.85-3.05 5.87 5.87 0 0 0 -2.45-1.6 6.43 6.43 0 0 0 -2.68-.29 6.3 6.3 0 0 0 -2.55.77 6.23 6.23 0 0 0 -2.07 2.06 9.42 9.42 0 0 0 -1.23 3.37 16.93 16.93 0 0 0 -.12 4.84 17 17 0 0 0 1 4.7 10 10 0 0 0 1.87 3 5.93 5.93 0 0 0 2.46 1.62 6.62 6.62 0 0 0 2.68.29 6.21 6.21 0 0 0 2.61-.87 5.81 5.81 0 0 0 2-2.07 10.18 10.18 0 0 0 1.22-3.32 16.5 16.5 0 0 0 .16-4.78z"/><path d="m307.22 30.71a12.64 12.64 0 0 1 -.81 4.14 8.85 8.85 0 0 1 -2.09 3.24 12.8 12.8 0 0 1 -1.79 1.46 10.58 10.58 0 0 1 -2.14 1.12 13.56 13.56 0 0 1 -2.53.68 15.15 15.15 0 0 1 -3 .19l-4.11-.12-.29 10.22-7.84-.22.88-31.25 12.11.34a19.09 19.09 0 0 1 4.66.63 11.35 11.35 0 0 1 3.51 1.66 7.84 7.84 0 0 1 2.6 3.2 10.41 10.41 0 0 1 .84 4.71zm-8.06 0a4 4 0 0 0 -.57-2.3 3.26 3.26 0 0 0 -1.47-1.41 6.37 6.37 0 0 0 -2.11-.62c-.68-.07-1.59-.12-2.75-.15h-1.12l-.26 9.36h.55 2.09a11.2 11.2 0 0 0 1.73-.1 5.9 5.9 0 0 0 1.34-.37 3.63 3.63 0 0 0 1.1-.65 4.08 4.08 0 0 0 1.12-1.59 7.16 7.16 0 0 0 .35-2.2z"/><path d="m336.82 34.89a12.33 12.33 0 0 1 -1.29 4 8.83 8.83 0 0 1 -2.46 3 12.87 12.87 0 0 1 -1.95 1.23 10.36 10.36 0 0 1 -2.26.86 13.92 13.92 0 0 1 -2.59.38 14.84 14.84 0 0 1 -3-.18l-4.06-.6-1.5 10.11-7.76-1.15 4.55-30.94 12 1.78a18.93 18.93 0 0 1 4.5 1.17 11.34 11.34 0 0 1 3.29 2.07 7.92 7.92 0 0 1 2.24 3.51 10.46 10.46 0 0 1 .29 4.76zm-8-1a4 4 0 0 0 -.29-2.34 3.28 3.28 0 0 0 -1.3-1.52 6.61 6.61 0 0 0 -2-.87c-.67-.14-1.57-.3-2.72-.47l-1.1-.17-1.41 9.27.53.08 2.08.28a11.06 11.06 0 0 0 1.73.11 5.94 5.94 0 0 0 1.37-.21 3.19 3.19 0 0 0 1.17-.52 4.1 4.1 0 0 0 1.31-1.44 7.25 7.25 0 0 0 .64-2.2z"/><path d="m336.94 56.92 8.16-30.18 20.39 5.51-1.56 5.75-12.86-3.48-1.43 5.29 11.85 3.19-1.56 5.76-11.84-3.2-2.09 7.64 12.85 3.47-1.55 5.76z"/><path d="m388.28 74.69-8.86-3.61-3.72-13.91-2.6-1.06-4.34 10.61-7.22-2.95 11.82-28.94 11.64 4.75a27.57 27.57 0 0 1 4.07 2 9.66 9.66 0 0 1 2.79 2.61 7.53 7.53 0 0 1 .77 7.77 9.71 9.71 0 0 1 -3.7 4.78 11.24 11.24 0 0 1 -5.35 1.66zm-3.49-24.85a4.3 4.3 0 0 0 .35-2.05 3 3 0 0 0 -.89-1.78 5.48 5.48 0 0 0 -1.37-1 21.28 21.28 0 0 0 -2-.92l-2.43-1-3.18 7.79 2.07.85a16.33 16.33 0 0 0 2.65.86 4.09 4.09 0 0 0 2.12 0 3.69 3.69 0 0 0 1.57-.88 5.2 5.2 0 0 0 1.11-1.87z"/><path d="m415.81 79.63a9.06 9.06 0 0 1 -2.81 3.12 8.28 8.28 0 0 1 -3.5 1.37 11.09 11.09 0 0 1 -4.34-.2 20.55 20.55 0 0 1 -4.95-2.14l-10.86-6.19 15.47-27.17 9.59 5.46a40.37 40.37 0 0 1 4.4 2.81 10 10 0 0 1 2.34 2.61 6 6 0 0 1 1 3.33 7 7 0 0 1 -1 3.44 7.44 7.44 0 0 1 -3 3 6.75 6.75 0 0 1 -4 .71l-.09.15a8.49 8.49 0 0 1 2.8 4.46 7.11 7.11 0 0 1 -1.05 5.24zm-6.94-4.12a3.81 3.81 0 0 0 .61-2.26 3.51 3.51 0 0 0 -.92-2 6.13 6.13 0 0 0 -1.56-1.19c-.71-.43-1.68-1-2.89-1.68l-1.26-.72-3.85 6.81.37.21c1.77 1 3 1.69 3.7 2.06a6.77 6.77 0 0 0 2.36.69 3.19 3.19 0 0 0 2-.4 4.11 4.11 0 0 0 1.44-1.52zm4.57-12a3.6 3.6 0 0 0 .44-1.55 2.32 2.32 0 0 0 -.48-1.6 4.9 4.9 0 0 0 -1.4-1.23q-.9-.56-2.73-1.59l-.47-.27-3.29 5.73.86.49c1.17.67 2 1.12 2.47 1.36a4.51 4.51 0 0 0 1.67.44 2.51 2.51 0 0 0 1.73-.41 4.35 4.35 0 0 0 1.2-1.38z"/><path d="m446.08 95c-3.13 4-6.64 6.26-10.56 6.87s-7.71-.53-11.41-3.44-5.7-6.35-6-10.31 1.09-7.91 4.17-11.83 6.62-6.24 10.53-6.87 7.73.5 11.43 3.41 5.7 6.33 6 10.28-1.04 7.89-4.16 11.89zm-6.36-5a16.92 16.92 0 0 0 2.49-4.09 9.68 9.68 0 0 0 .78-3.49 6 6 0 0 0 -.65-2.85 6.68 6.68 0 0 0 -4.11-3.28 6.24 6.24 0 0 0 -2.91 0 9.5 9.5 0 0 0 -3.23 1.58 20.12 20.12 0 0 0 -5.95 7.51 9.84 9.84 0 0 0 -.74 3.46 5.88 5.88 0 0 0 .64 2.88 6.59 6.59 0 0 0 1.74 2.07 6.42 6.42 0 0 0 2.48 1.21 5.88 5.88 0 0 0 2.91-.08 10.29 10.29 0 0 0 3.19-1.54 17.13 17.13 0 0 0 3.36-3.38z"/><path d="m443.55 114 17.73-18-6.59-6.47 4.18-4.25 18.77 18.43-4.18 4.29-6.59-6.47-17.72 18.06z"/><path d="m462.84 135.74a25.78 25.78 0 0 1 -3.42-5.34 32 32 0 0 1 -1.83-5l5.78-4.68.45.56a17.52 17.52 0 0 0 .87 6 15.56 15.56 0 0 0 2.62 5 13.42 13.42 0 0 0 1.23 1.29 6 6 0 0 0 1.47 1.08 3.93 3.93 0 0 0 1.65.46 2.48 2.48 0 0 0 1.67-.63 2.34 2.34 0 0 0 .91-1.92 5.82 5.82 0 0 0 -.56-2.38c-.45-1-.95-2.05-1.52-3.15a28.45 28.45 0 0 1 -1.41-3.22 10.61 10.61 0 0 1 -.59-6.21 9 9 0 0 1 3.23-4.63 8.42 8.42 0 0 1 7.86-1.58 15.32 15.32 0 0 1 7.94 5.5 27.72 27.72 0 0 1 3 4.67 24.21 24.21 0 0 1 1.92 4.81l-5.56 4.49-.43-.54a15.56 15.56 0 0 0 -.71-4.89 13.46 13.46 0 0 0 -2.44-4.65 10.35 10.35 0 0 0 -1.27-1.34 6.86 6.86 0 0 0 -1.52-1 3.52 3.52 0 0 0 -1.58-.36 2.29 2.29 0 0 0 -1.48.51 2.35 2.35 0 0 0 -1 1.86 8.55 8.55 0 0 0 1.08 3.35c.47 1 .93 1.89 1.36 2.79a28.63 28.63 0 0 1 1.24 3 10.62 10.62 0 0 1 .58 5.75 8.1 8.1 0 0 1 -3.08 4.52 9 9 0 0 1 -8.13 1.87q-4.41-1.15-8.33-5.99z"/><path d="m279.46 343.62c3.1-4 48.23-62.43 48.23-115.06 0 0-25.28 28.69-47.88 28.69 0 .06-.06 10.54-.15 24.17 0-13.63.08-24.11.09-24.17-22.6-.22-47.6-29.15-47.6-29.15-.5 52.63 44.06 111.53 47.13 115.52v.23l.09-.11.08.11zm-5.68-17.89c-11.86-18.2-30.38-50.81-34.89-82.86 8.82 7.79 21.82 17.24 35.1 19.58.01 11.95-.14 41.82-.21 63.28z"/><path d="m278.92 216.28 12 34.51s-16.28-3.09-22.73.41c.24.13 10.73-34.92 10.73-34.92z"/><path d="m141.18 494.23a9.57 9.57 0 0 1 -3.34 2.85 8.88 8.88 0 0 1 -3.84.92 11.53 11.53 0 0 1 -4.48-.82 21.36 21.36 0 0 1 -4.83-2.93l-10.42-8 19.92-26 9.19 7a39.55 39.55 0 0 1 4.17 3.54 10.53 10.53 0 0 1 2.07 3 6.33 6.33 0 0 1 .55 3.61 7.42 7.42 0 0 1 -1.53 3.43 7.81 7.81 0 0 1 -3.55 2.67 7.08 7.08 0 0 1 -4.3.17l-.11.14a9 9 0 0 1 2.28 5 7.53 7.53 0 0 1 -1.78 5.42zm-6.63-5.23a4 4 0 0 0 .95-2.26 3.7 3.7 0 0 0 -.68-2.15 6.46 6.46 0 0 0 -1.43-1.51c-.69-.54-1.61-1.26-2.77-2.15l-1.21-.93-5 6.53.35.26c1.71 1.3 2.89 2.19 3.56 2.67a7.11 7.11 0 0 0 2.35 1.05 3.32 3.32 0 0 0 2.17-.13 4.37 4.37 0 0 0 1.71-1.38zm6.45-11.87a3.72 3.72 0 0 0 .66-1.54 2.42 2.42 0 0 0 -.26-1.73 5.19 5.19 0 0 0 -1.3-1.48q-.85-.7-2.61-2l-.49-.38-4.21 5.5.82.63c1.11.86 1.91 1.45 2.37 1.76a4.68 4.68 0 0 0 1.67.7 2.63 2.63 0 0 0 1.86-.19 4.51 4.51 0 0 0 1.49-1.27z"/><path d="m152.23 513.42q-5.7-3.31-7.18-7.86t1.62-9.85l10.5-18.12 7.12 4.13-10.29 17.69a8.33 8.33 0 0 0 -1.44 5 5 5 0 0 0 2.79 3.55 5.11 5.11 0 0 0 4.41.7c1.31-.48 2.55-1.75 3.74-3.79l10.26-17.7 7.12 4.13-10.5 18.1q-3 5.24-7.66 6.3t-10.49-2.28z"/><path d="m200.49 535.25-9.26-3.84-3.83-14.6-2.72-1.13-4.61 11.11-7.55-3.14 12.56-30.28 12.16 5.05a28.09 28.09 0 0 1 4.26 2.13 10.15 10.15 0 0 1 2.91 2.74 8.66 8.66 0 0 1 1.49 3.71 8.49 8.49 0 0 1 -.73 4.45 10.19 10.19 0 0 1 -3.9 5 12 12 0 0 1 -5.62 1.71zm-3.49-26.08a4.45 4.45 0 0 0 .38-2.14 3.08 3.08 0 0 0 -.92-1.87 5.82 5.82 0 0 0 -1.43-1.05c-.56-.29-1.27-.62-2.14-1l-2.54-1.05-3.38 8.15 2.17.9a17.36 17.36 0 0 0 2.78.93 4.37 4.37 0 0 0 2.22 0 3.93 3.93 0 0 0 1.65-.91 5.53 5.53 0 0 0 1.21-1.96z"/><path d="m205.2 536.44 8.8-31.58 21.33 5.94-1.68 6-13.45-3.75-1.54 5.53 12.39 3.46-1.68 6-12.37-3.4-2.22 8 13.45 3.75-1.68 6z"/><path d="m230.79 543.54 16-30.7 8.87 1.38 5.9 34.09-8.37-1.3-1-6.93-10.19-1.58-3.05 6.3zm20.5-9.61-1.64-11.2-5 10.17z"/><path d="m280.56 549.7q-6.6-.16-10.07-3.45t-3.31-9.42l.53-20.93 8.22.21-.51 20.44a8.27 8.27 0 0 0 1.15 5.12 5 5 0 0 0 4.15 1.78 5.11 5.11 0 0 0 4.21-1.5q1.36-1.58 1.46-5.12l.51-20.45 8.22.21-.52 20.91q-.15 6.06-3.7 9.21t-10.34 2.99z"/><path d="m313.92 548.24 5.78-34.11 8.86-1.41 16.07 30.64-8.36 1.33-3.07-6.29-10.2 1.6-1 6.93zm16.57-15.43-5-10.15-1.61 11.2z"/><path d="m350.08 541.85-9-31.53 21.3-6.06 1.71 6-13.43 3.82 1.57 5.53 12.37-3.52 1.72 6-12.32 3.54 2.27 8 13.43-3.82 1.71 6z"/><path d="m403.49 520.72a41.55 41.55 0 0 1 -4.49 3.78 28.34 28.34 0 0 1 -5.92 3.43q-7.1 3-13.06.74t-9.19-9.84q-3-7.08-.63-13.16t9.71-9.2a23.54 23.54 0 0 1 6.46-1.9 35.78 35.78 0 0 1 5.73-.14l3 7.07-.68.29-2.09-.54a20.42 20.42 0 0 0 -2.55-.47 14.57 14.57 0 0 0 -3.1 0 11.64 11.64 0 0 0 -3.34.88 10.61 10.61 0 0 0 -3.28 2.12 8.83 8.83 0 0 0 -2.06 3.08 9.51 9.51 0 0 0 -.58 3.89 13.39 13.39 0 0 0 1.16 4.63q2.25 5.28 6 6.66a11 11 0 0 0 8.31-.58l.94-.43c.36-.17.67-.32.93-.46l-2.53-5.92-5.84 2.5-2.39-5.65 13.17-5.62z"/><path d="m425.83 510.24-15.32 8.76-2.84-5 4.09-2.34-10.58-18.52-4.09 2.33-2.84-5 15.32-8.75 2.84 5-4.09 2.34 10.58 18.54 4.09-2.33z"/><path d="m440.81 500.81a27 27 0 0 1 -5.79 3.27 33.51 33.51 0 0 1 -5.35 1.63l-4.55-6.33.6-.43a18.43 18.43 0 0 0 6.29-.57 16.24 16.24 0 0 0 5.33-2.46 12.88 12.88 0 0 0 1.42-1.21 6.35 6.35 0 0 0 1.23-1.48 4.17 4.17 0 0 0 .56-1.69 2.58 2.58 0 0 0 -.55-1.79 2.43 2.43 0 0 0 -2-1.06 6.24 6.24 0 0 0 -2.53.44q-1.61.62-3.39 1.41a27.2 27.2 0 0 1 -3.45 1.29 11 11 0 0 1 -6.53.26 9.41 9.41 0 0 1 -4.66-3.65 8.84 8.84 0 0 1 -1.2-8.32 16 16 0 0 1 6.23-8 28 28 0 0 1 5.06-2.92 25.58 25.58 0 0 1 5.15-1.73l4.37 6.08-.59.42a16.49 16.49 0 0 0 -5.16.46 14.1 14.1 0 0 0 -5 2.28 10.78 10.78 0 0 0 -1.48 1.26 7.45 7.45 0 0 0 -1.11 1.53 3.63 3.63 0 0 0 -.47 1.63 2.36 2.36 0 0 0 .45 1.59 2.44 2.44 0 0 0 1.89 1.09 8.73 8.73 0 0 0 3.57-.93l3-1.26a30.75 30.75 0 0 1 3.22-1.13 11.13 11.13 0 0 1 6.05-.27 8.49 8.49 0 0 1 4.55 3.49 9.43 9.43 0 0 1 1.48 8.62q-1.33 4.67-6.64 8.48z"/></g><path d="m279.08 396c5.67-7.23 88-113.88 88-209.88 0 0-46.11 52.33-87.32 52.33 0 .11-.12 19.21-.27 44.09.08-24.87.14-44 .15-44.09-41.21-.4-86.83-53.17-86.83-53.17-.91 96 80.37 203.43 86 210.72v.42l.16-.21.17.21zm-10.36-32.65c-21.63-33.18-55.41-92.66-63.63-151.13 16.08 14.21 39.79 31.44 64 35.7-.09 21.81-.24 76.3-.37 115.43z" fill="#1d1d1b"/><path d="m278.09 163.71 21.84 63s-29.69-5.64-41.46.74c.53.2 19.62-63.74 19.62-63.74z" fill="#1d1d1b"/><path d="m279.92 480.88c-110.73 0-200.82-90.09-200.82-200.81s90.09-200.82 200.82-200.82 200.81 90.09 200.81 200.82-90.08 200.81-200.81 200.81zm0-382.95c-100.43 0-182.14 81.71-182.14 182.14s81.71 182.13 182.14 182.13 182.13-81.7 182.13-182.13-81.71-182.14-182.13-182.14z" fill="#1d1d1b"/><path d="m164.16 180.16-11.08-11.16a168.16 168.16 0 0 0 -1.2 220.83l11.12-11.11a152.54 152.54 0 0 1 1.15-198.56z" fill="#1d1d1b"/><path d="m279.92 127a152.32 152.32 0 0 1 98.94 36.42l11.14-11.11a168.23 168.23 0 0 0 -214.76-4.47l11.23 11.16a152.25 152.25 0 0 1 93.45-32z" fill="#1d1d1b"/><path d="m408.58 171-11.15 11.17a152.57 152.57 0 0 1 4.49 190.16l11.22 11.11a168.25 168.25 0 0 0 -4.56-212.44z" fill="#1d1d1b"/><path d="m279.92 433.13a152.24 152.24 0 0 1 -97.57-35.31l-11.14 11.18a168.14 168.14 0 0 0 218.84-1.28l-11.05-11.14a152.28 152.28 0 0 1 -99.08 36.55z" fill="#1d1d1b"/></svg>