<svg id="Capa_1" data-name="Capa 1" xmlns="http://www.w3.org/2000/svg" viewBox="0 0 566.93 566.93"><defs><style>.cls-1{fill:#fff;}.cls-2,.cls-4,.cls-5{fill:#f1c410;}.cls-3{fill:#1d1d1b;}.cls-4,.cls-5,.cls-6,.cls-7{stroke:#1d1d1b;stroke-width:3px;}.cls-4,.cls-5,.cls-7{stroke-linecap:round;}.cls-4,.cls-6{stroke-miterlimit:10;}.cls-5{stroke-linejoin:round;}.cls-10,.cls-6,.cls-7,.cls-9{fill:#2e3e50;}.cls-7{stroke-linejoin:bevel;}.cls-8{fill:none;}.cls-9{font-size:104.38px;letter-spacing:0.15em;}.cls-10,.cls-9{font-family:Tahoma-Bold, Tahoma;font-weight:700;}.cls-10{font-size:45px;}</style></defs><circle class="cls-1" cx="283.46" cy="283.46" r="269.25"/><path class="cls-2" d="M276.2,243.2l0-.82c-2.05-1.43-10.94-6.55-18.92-11l-.72-.4-1.38-24.09,32.64-59.34,13.27,9.11,7.24,72.46-.94.46c-28.1,13.64-29.24,13.64-29.67,13.64Z"/><path class="cls-3" d="M288.32,149.7l11.33,7.78,7.07,70.73s-27.8,13.49-29,13.49c0,0,0,0,0,0,0-.63-19.67-11.63-19.67-11.63l-1.31-22.83,31.64-57.52m-1-4.35-1.6,2.91-31.64,57.51-.42.76.05.86L255,230.23l.09,1.64,1.44.8c7.3,4.08,15.34,8.71,18.13,10.5v1.51l3,0c.81,0,1.91,0,30.33-13.79l1.88-.91-.21-2.09-7.07-70.72-.13-1.39-1.15-.79L290,147.23l-2.73-1.88Z"/><polygon class="cls-2" points="157.8 365.36 157.8 347.58 218.23 383.48 211.32 396.65 157.8 365.36"/><path class="cls-3" d="M159.3,350.21l56.94,33.84-5.52,10.51L159.3,364.5V350.21m-3-5.27v21.28l1.48.87,51.43,30.06,2.71,1.59,1.46-2.78,5.52-10.52,1.32-2.52-2.45-1.45-56.94-33.84-4.53-2.69Z"/><polygon class="cls-2" points="153.99 126.24 153.4 107.2 235.27 155.05 235.27 173.75 153.99 126.24"/><path class="cls-3" d="M155,109.86l78.79,46.05v15.23l-78.31-45.78-.48-15.5m-3.17-5.33L152,110l.48,15.51,0,1.66L154,128l78.3,45.78,4.52,2.63V154.19l-1.49-.87-78.79-46-4.68-2.74Z"/><polygon class="cls-2" points="154.47 141.68 153.88 122.64 235.27 170.19 235.27 188.89 154.47 141.68"/><path class="cls-3" d="M155.46,125.3l78.31,45.75v15.22L155.94,140.8l-.48-15.5M152.29,120l.17,5.42.49,15.5.05,1.66,1.43.84,77.82,45.47,4.52,2.64V169.33l-1.49-.87L157,122.71,152.29,120Z"/><polygon class="cls-2" points="154.96 156.99 154.37 138.16 235.27 185.45 235.27 203.94 154.96 156.99"/><path class="cls-3" d="M156,140.82l77.81,45.49v15l-77.34-45.21L156,140.82m-3.17-5.32.17,5.42.47,15.28.06,1.66,1.43.84,77.33,45.21,4.52,2.64v-22l-1.49-.87-77.81-45.49-4.68-2.73Z"/><polygon class="cls-2" points="155.44 172.34 154.86 153.65 235.27 200.64 235.27 219.02 155.44 172.34"/><path class="cls-3" d="M156.44,156.31l77.33,45.19v14.91l-76.86-44.94-.47-15.16M153.27,151l.17,5.42.47,15.15.05,1.66,1.44.84L232.25,219l4.52,2.64V199.78l-1.49-.87L158,153.72,153.27,151Z"/><polygon class="cls-2" points="155.91 187.77 155.33 169.07 235.27 215.79 235.27 234.17 155.91 187.77"/><path class="cls-3" d="M156.92,171.74l76.85,44.91v14.91l-76.38-44.67-.47-15.15m-3.17-5.33.17,5.42.47,15.16.05,1.65,1.43.84,76.38,44.67,4.52,2.64V214.93l-1.49-.87-76.85-44.91-4.68-2.74Z"/><polygon class="cls-2" points="156.4 203.24 155.81 184.46 235.27 230.9 235.27 249.36 156.4 203.24"/><path class="cls-3" d="M157.4,187.12l76.37,44.64v15l-75.9-44.39-.47-15.24m-3.17-5.33.17,5.42.47,15.25,0,1.65,1.44.84,75.89,44.39,4.52,2.64V230l-1.49-.87-76.37-44.64-4.68-2.74Z"/><polygon class="cls-2" points="156.87 218.55 156.29 199.99 235.27 246.16 235.27 264.41 156.87 218.55"/><path class="cls-3" d="M157.87,202.65,233.77,247v14.77l-75.43-44.11-.47-15m-3.17-5.33.17,5.42.47,15,0,1.66,1.43.84,75.43,44.11,4.52,2.64V245.3l-1.49-.87-75.89-44.37-4.69-2.74Z"/><polygon class="cls-2" points="157.35 234.01 156.77 215.4 235.27 261.29 235.27 279.57 157.35 234.01"/><path class="cls-3" d="M158.35,218.06l75.42,44.09V277l-75-43.82-.47-15.07m-3.16-5.32.16,5.42.47,15.07.06,1.66,1.43.83,74.94,43.82,4.52,2.64V260.43l-1.49-.87-75.41-44.09-4.68-2.73Z"/><polygon class="cls-2" points="156.4 249.1 155.81 230.32 235.27 276.76 235.27 295.23 156.4 249.1"/><path class="cls-3" d="M157.4,233l76.37,44.64v15l-75.9-44.39L157.4,233m-3.17-5.32.17,5.42.47,15.24,0,1.66,1.44.83,75.89,44.39,4.52,2.64V275.9l-1.49-.87-76.37-44.64-4.68-2.73Z"/><polygon class="cls-2" points="156.87 264.41 156.29 245.85 235.27 292.02 235.27 310.27 156.87 264.41"/><path class="cls-3" d="M157.87,248.51l75.9,44.37v14.77l-75.43-44.11-.47-15m-3.17-5.32.17,5.41.47,15,0,1.66,1.43.84,75.43,44.11,4.52,2.64V291.16l-1.49-.87-75.89-44.37-4.69-2.73Z"/><polygon class="cls-2" points="157.35 279.87 156.77 261.26 235.27 307.15 235.27 325.43 157.35 279.87"/><path class="cls-3" d="M158.35,263.92,233.77,308v14.81l-75-43.82-.47-15.08m-3.16-5.32.16,5.42.47,15.07.06,1.66,1.43.84,74.94,43.82,4.52,2.63V306.29l-1.49-.87-75.41-44.08-4.68-2.74Z"/><polygon class="cls-2" points="157.8 294.43 157.8 276.65 234.95 321.96 234.95 338.85 157.8 294.43"/><path class="cls-3" d="M159.3,279.27l74.15,43.55v13.44l-74.15-42.7V279.27m-3-5.24v21.26l1.5.87L232,338.86l4.5,2.59V321.1l-1.48-.87-74.15-43.54L156.3,274Z"/><polygon class="cls-2" points="157.8 308.51 157.8 290.77 235.82 335.9 224.9 347.75 157.8 308.51"/><path class="cls-3" d="M159.3,293.37l74.15,42.89-8.84,9.58L159.3,307.65V293.37m-3-5.2v21.21l1.48.86,65.32,38.19,2.08,1.22,1.64-1.77,8.84-9.59,2.54-2.75L235,333.66,160.8,290.77l-4.5-2.6Z"/><polygon class="cls-2" points="157.8 323.31 157.8 305.6 226.86 344.96 216.22 359.12 157.8 323.31"/><path class="cls-3" d="M159.3,308.18l65.34,37.25-8.8,11.7L159.3,322.47V308.18m-3-5.16v21.13l1.43.88,56.55,34.66,2.32,1.42,1.64-2.18,8.79-11.7,2.05-2.72-3-1.69-65.34-37.24L156.3,303Z"/><polygon class="cls-2" points="157.8 337.68 157.8 319.9 218.23 355.81 211.32 368.97 157.8 337.68"/><path class="cls-3" d="M159.3,322.53l56.94,33.84-5.52,10.52L159.3,336.82V322.53m-3-5.27v21.28l1.48.87,51.43,30.06,2.71,1.59,1.46-2.78,5.52-10.52,1.32-2.52-2.45-1.45L160.83,320l-4.53-2.7Z"/><polygon class="cls-2" points="157.8 351.4 157.8 333.62 218.23 369.53 211.32 382.7 157.8 351.4"/><path class="cls-3" d="M159.3,336.26l56.94,33.83-5.52,10.52L159.3,350.54V336.26m-3-5.27v21.27l1.48.87,51.43,30.07,2.71,1.58,1.46-2.78,5.52-10.51,1.32-2.52-2.45-1.46-56.94-33.83L156.3,331Z"/><polygon class="cls-2" points="157.8 379.74 157.8 361.96 218.23 397.86 211.32 411.03 157.8 379.74"/><path class="cls-3" d="M159.3,364.59l56.94,33.84-5.52,10.51L159.3,378.88V364.59m-3-5.27V380.6l1.48.87,51.43,30.06,2.71,1.59,1.46-2.78,5.52-10.52,1.32-2.52-2.45-1.45L160.83,362l-4.53-2.69Z"/><polygon class="cls-2" points="157.8 393.9 157.8 376.12 218.23 412.03 211.32 425.2 157.8 393.9"/><path class="cls-3" d="M159.3,378.76l56.94,33.83-5.52,10.52L159.3,393V378.76m-3-5.27v21.27l1.48.87,51.43,30.07,2.71,1.58,1.46-2.78L218.9,414l1.32-2.52L217.77,410l-56.94-33.83-4.53-2.69Z"/><polygon class="cls-2" points="157.8 407.86 157.8 390.08 218.23 425.99 211.32 439.15 157.8 407.86"/><path class="cls-3" d="M159.3,392.71l56.94,33.84-5.52,10.52L159.3,407V392.71m-3-5.27v21.28l1.48.87,51.43,30.07,2.71,1.58,1.46-2.78,5.52-10.52,1.32-2.52L217.77,424l-56.94-33.83-4.53-2.7Z"/><polygon class="cls-2" points="259.37 475.96 272.88 373.85 284.17 381 284.17 489.1 259.37 475.96"/><path class="cls-3" d="M274.06,376.37l8.61,5.45V486.6L261,475.13l13.07-98.76m-2.36-5-.62,4.65L258,474.73l-.27,2.07,1.84,1,21.68,11.48,4.4,2.33V380.17l-1.39-.88-8.62-5.45-4-2.51Z"/><polygon class="cls-2" points="237.45 463.57 264.45 368.58 275.57 375.62 262.19 477.52 237.45 463.57"/><path class="cls-3" d="M265.34,370.92l8.62,5.45-13,98.76-21.77-12.29,26.12-91.92m-1.79-4.68-1.09,3.86L236.33,462l-.64,2.28,2.05,1.16,21.78,12.28,3.87,2.18.58-4.4,13-98.76.25-1.9-1.62-1L267,368.39l-3.4-2.15Z"/><polygon class="cls-2" points="216.52 448.7 256.08 363.3 267.09 370.26 240.08 465.29 216.52 448.7"/><path class="cls-3" d="M256.73,365.48l8.61,5.44-26.12,91.92L218.41,448.2l38.32-82.72m-1.29-4.37L254,364.22l-38.32,82.72-1.05,2.27,2.05,1.44,20.81,14.65,3.46,2.43,1.15-4.07,26.13-91.92.61-2.15-1.89-1.2-8.62-5.45-2.89-1.83Z"/><polygon class="cls-2" points="194.79 437.79 247.48 357.98 258.45 364.91 218.05 452.52 194.79 437.79"/><path class="cls-3" d="M247.92,360l8.62,5.45L217.4,450.34l-20.52-13,51-77.31m-.88-4.11-1.62,2.46-51,77.3-1.68,2.56,2.58,1.63,20.52,13,2.89,1.84,1.44-3.12,39.13-84.86,1.11-2.38-2.23-1.41-8.61-5.45L247,355.92Z"/><polygon class="cls-2" points="172.84 426.77 239.91 352.46 250.91 359.41 196.3 439.43 172.84 426.77"/><path class="cls-3" d="M240.17,354.4l8.62,5.45-53,77.62-20.59-11.11,64.94-72m-.53-3.88L238,352.39l-64.94,72-2.56,2.84,3.36,1.81,20.58,11.11,2.38,1.28,1.53-2.23,53-77.62L253,359l-2.63-1.66-8.61-5.45-2.14-1.35Z"/><polygon class="cls-2" points="346.33 383.48 406.77 347.58 406.77 365.36 353.25 396.65 346.33 383.48"/><path class="cls-3" d="M405.27,350.21V364.5l-51.43,30.06-5.52-10.51,56.95-33.84m3-5.27-4.53,2.69-56.95,33.84-2.44,1.45,1.32,2.52L351.19,396l1.46,2.78,2.71-1.59,51.42-30.06,1.49-.87V344.94Z"/><polygon class="cls-2" points="329.3 155.05 411.17 107.2 410.58 126.24 329.3 173.75 329.3 155.05"/><path class="cls-3" d="M409.59,109.86h0m0,0-.48,15.5L330.8,171.14V155.91l78.79-46m3.17-5.33-4.68,2.74-78.79,46.05-1.49.87v22.17l4.51-2.63L410.62,128l1.43-.83.06-1.66.48-15.51.17-5.42Zm-3.17,2.33h0Zm0,6Z"/><polygon class="cls-2" points="329.3 170.19 410.69 122.64 410.1 141.68 329.3 188.89 329.3 170.19"/><path class="cls-3" d="M409.11,125.3h0m0,0-.49,15.5L330.8,186.27V171.05l78.31-45.75m3.16-5.33-4.68,2.74-78.3,45.75-1.49.87V191.5l4.51-2.64,77.83-45.47,1.43-.84.05-1.66.48-15.5.17-5.42Zm-3.16,2.33h0Zm0,6Z"/><polygon class="cls-2" points="329.3 185.45 410.19 138.16 409.61 156.99 329.3 203.94 329.3 185.45"/><path class="cls-3" d="M408.61,140.82h0m0,0-.48,15.29L330.8,201.32v-15l77.81-45.49m3.17-5.32-4.68,2.73-77.82,45.49-1.48.87v22l4.51-2.64,77.34-45.21,1.43-.84.05-1.66.48-15.28.17-5.42Zm-3.16,2.32Zm0,6h0Z"/><polygon class="cls-2" points="329.3 200.64 409.71 153.65 409.13 172.34 329.3 219.02 329.3 200.64"/><path class="cls-3" d="M408.13,156.31h0m0,0-.47,15.16L330.8,216.41V201.5l77.33-45.19m3.16-5.32-4.68,2.73-77.32,45.19-1.49.87v21.86l4.51-2.64,76.86-44.94,1.43-.84,0-1.66.48-15.15.16-5.42Zm-3.16,2.32h0Zm0,6Z"/><polygon class="cls-2" points="329.3 215.79 409.24 169.07 408.65 187.77 329.3 234.17 329.3 215.79"/><path class="cls-3" d="M407.65,171.74h0m0,0-.47,15.15L330.8,231.56V216.65l76.85-44.91m3.17-5.33-4.68,2.74-76.85,44.91-1.49.87v21.86l4.51-2.64,76.38-44.67,1.44-.84.05-1.65.47-15.16.17-5.42Zm-3.16,2.33Zm0,6h0Z"/><polygon class="cls-2" points="329.3 230.9 408.75 184.46 408.17 203.24 329.3 249.36 329.3 230.9"/><path class="cls-3" d="M407.17,187.12h0m0,0-.47,15.24-75.9,44.39v-15l76.37-44.64m3.17-5.33-4.68,2.74-76.37,44.64-1.49.87V252l4.51-2.64L408.21,205l1.43-.84.06-1.65.47-15.25.17-5.42Zm-3.16,2.33Zm0,6h0Z"/><polygon class="cls-2" points="329.3 246.16 408.28 199.99 407.7 218.55 329.3 264.41 329.3 246.16"/><path class="cls-3" d="M406.7,202.65h0m0,0-.47,15L330.8,261.79V247l75.9-44.37m3.16-5.33-4.68,2.74-75.89,44.37-1.49.87V267l4.51-2.64,75.43-44.11,1.44-.84.05-1.66.46-15,.17-5.42Zm-3.16,2.33h0Zm0,6Z"/><polygon class="cls-2" points="329.3 261.29 407.8 215.4 407.22 234.01 329.3 279.57 329.3 261.29"/><path class="cls-3" d="M406.21,218.06h0m0,0-.47,15.07L330.8,277v-14.8l75.41-44.09m3.17-5.32-4.68,2.73-75.42,44.09-1.48.87v21.75l4.51-2.64,74.95-43.82,1.43-.83.05-1.66.47-15.07.17-5.42Zm-3.16,2.32Zm0,6h0Z"/><polygon class="cls-2" points="329.3 276.76 408.75 230.32 408.17 249.1 329.3 295.23 329.3 276.76"/><path class="cls-3" d="M407.17,233h0m0,0-.47,15.24-75.9,44.39v-15L407.17,233m3.17-5.32-4.68,2.73L329.29,275l-1.49.87v21.94l4.51-2.64,75.9-44.39,1.43-.83.06-1.66.47-15.24.17-5.42ZM407.18,230Zm0,6h0Z"/><polygon class="cls-2" points="329.3 292.02 408.28 245.85 407.7 264.41 329.3 310.27 329.3 292.02"/><path class="cls-3" d="M406.7,248.51h0m0,0-.47,15L330.8,307.65V292.88l75.9-44.37m3.16-5.32-4.68,2.73-75.89,44.37-1.49.87v21.72l4.51-2.64,75.43-44.11,1.44-.84.05-1.66.46-15,.17-5.41Zm-3.16,2.32h0Zm0,6Z"/><polygon class="cls-2" points="329.3 307.15 407.8 261.26 407.22 279.87 329.3 325.43 329.3 307.15"/><path class="cls-3" d="M406.21,263.92h0m0,0L405.74,279,330.8,322.82V308l75.41-44.09m3.17-5.32-4.68,2.74-75.42,44.08-1.48.87V328l4.51-2.63,74.95-43.82,1.43-.84.05-1.66.47-15.07.17-5.42Zm-3.16,2.32Zm0,6h0Z"/><polygon class="cls-2" points="329.62 321.96 406.77 276.65 406.77 294.43 329.62 338.85 329.62 321.96"/><path class="cls-3" d="M405.27,279.27v14.29l-74.15,42.7V322.82l74.15-43.55m3-5.24-4.52,2.66L329.6,320.23l-1.48.87v20.35l4.49-2.59,74.16-42.7,1.5-.87V274Z"/><polygon class="cls-2" points="328.74 335.9 406.77 290.77 406.77 308.51 339.67 347.75 328.74 335.9"/><path class="cls-3" d="M405.27,293.37v14.28L340,345.84l-8.84-9.58,74.15-42.89m3-5.2-4.5,2.6-74.16,42.89-3.24,1.88,2.54,2.75,8.84,9.59,1.64,1.77,2.08-1.22,65.31-38.19,1.49-.86V288.17Z"/><polygon class="cls-2" points="337.71 344.96 406.77 305.6 406.77 323.31 348.34 359.12 337.71 344.96"/><path class="cls-3" d="M405.27,308.18v14.29l-56.55,34.66-8.79-11.7,65.34-37.25m3-5.16-4.49,2.56-65.34,37.24-2.95,1.69,2,2.72,8.79,11.7,1.64,2.18,2.33-1.42L406.84,325l1.43-.88V303Z"/><polygon class="cls-2" points="346.33 355.81 406.77 319.9 406.77 337.68 353.25 368.97 346.33 355.81"/><path class="cls-3" d="M405.27,322.53v14.29l-51.43,30.07-5.52-10.52,56.95-33.84m3-5.27-4.53,2.7-56.95,33.83-2.44,1.45,1.32,2.52,5.52,10.52,1.46,2.78,2.71-1.59,51.42-30.06,1.49-.87V317.26Z"/><polygon class="cls-2" points="346.33 369.53 406.77 333.62 406.77 351.4 353.25 382.7 346.33 369.53"/><path class="cls-3" d="M405.27,336.26v14.28l-51.43,30.07-5.52-10.52,56.95-33.83m3-5.27-4.53,2.69-56.95,33.83L344.35,369l1.32,2.52L351.19,382l1.46,2.78,2.71-1.58,51.42-30.07,1.49-.87V331Z"/><polygon class="cls-2" points="346.33 397.86 406.77 361.96 406.77 379.74 353.25 411.03 346.33 397.86"/><path class="cls-3" d="M405.27,364.59v14.29l-51.43,30.06-5.52-10.51,56.95-33.84m3-5.27L403.74,362l-56.95,33.84-2.44,1.45,1.32,2.52,5.52,10.52,1.46,2.78,2.71-1.59,51.42-30.06,1.49-.87V359.32Z"/><polygon class="cls-2" points="346.33 412.03 406.77 376.12 406.77 393.9 353.25 425.2 346.33 412.03"/><path class="cls-3" d="M405.27,378.76V393l-51.43,30.07-5.52-10.52,56.95-33.83m3-5.27-4.53,2.69L346.79,410l-2.44,1.46,1.32,2.52,5.52,10.51,1.46,2.78,2.71-1.58,51.42-30.07,1.49-.87V373.49Z"/><polygon class="cls-2" points="346.33 425.99 406.77 390.08 406.77 407.86 353.25 439.15 346.33 425.99"/><path class="cls-3" d="M405.27,392.71V407l-51.43,30.07-5.52-10.52,56.95-33.84m3-5.27-4.53,2.7L346.79,424l-2.44,1.45,1.32,2.52,5.52,10.52,1.46,2.78,2.71-1.58,51.42-30.07,1.49-.87V387.44Z"/><line class="cls-4" x1="408.44" y1="157.48" x2="408.45" y2="157.22"/><line class="cls-4" x1="331.12" y1="202.44" x2="331.12" y2="202.67"/><line class="cls-4" x1="407.97" y1="172.77" x2="407.97" y2="172.64"/><line class="cls-4" x1="331.12" y1="217.58" x2="331.12" y2="217.69"/><line class="cls-4" x1="407.01" y1="203.47" x2="407.01" y2="203.43"/><line class="cls-4" x1="331.12" y1="247.81" x2="331.12" y2="247.84"/><line class="cls-5" x1="405.27" y1="322.91" x2="405.27" y2="301.53"/><polygon class="cls-2" points="281.77 381 293.06 373.85 306.56 475.93 281.77 490.15 281.77 381"/><path class="cls-3" d="M291.88,376.37l13.06,98.76-21.67,12.43V381.82l8.61-5.45m2.36-5-4,2.51-8.61,5.45-1.4.88V492.74l4.49-2.58,21.67-12.43,1.75-1-.27-2L294.86,376l-.62-4.65Z"/><polygon class="cls-2" points="290.37 375.62 301.5 368.58 327.92 461.57 303.11 472.67 290.37 375.62"/><path class="cls-3" d="M300.6,370.92l25.53,89.81-21.79,9.75L292,376.37l8.62-5.45m1.79-4.68L299,368.39l-8.62,5.45-1.62,1,.25,1.9,12.35,94.11.53,4,3.67-1.64,21.79-9.75,2.37-1.06-.71-2.5L303.49,370.1l-1.1-3.86Z"/><polygon class="cls-2" points="298.85 370.26 309.86 363.3 349.49 448.81 325.21 463.01 298.85 370.26"/><path class="cls-3" d="M309.22,365.48l38.33,82.72-21.42,12.53L300.6,370.92l8.62-5.44m1.28-4.37-2.89,1.83L299,368.39l-1.9,1.2.62,2.15,25.52,89.81,1.06,3.73,3.34-2,21.43-12.53,2.35-1.38-1.15-2.47-38.33-82.73-1.44-3.1Z"/><polygon class="cls-2" points="307.49 364.91 318.45 357.98 370.87 435.83 346.89 450.35 307.49 364.91"/><path class="cls-3" d="M318,360l50.73,75.33-21.2,12.84L309.4,365.48,318,360m.86-4.1-2.46,1.56-8.62,5.45-2.22,1.41,1.1,2.38,38.15,82.72,1.4,3.05,2.88-1.74,21.19-12.83L373,436.3l-1.75-2.61-50.73-75.34-1.63-2.42Z"/><polygon class="cls-2" points="315.04 359.41 326.04 352.46 392.13 425.7 369.4 439.07 315.04 359.41"/><path class="cls-3" d="M325.77,354.4l64,70.94-19.94,11.73-52.7-77.22,8.62-5.45m.53-3.88-2.14,1.35-8.61,5.45L312.92,359l1.75,2.56,52.7,77.22,1.58,2.31,2.42-1.42,19.94-11.73,3.17-1.86L392,423.33l-64-70.94-1.7-1.87Z"/><polygon class="cls-6" points="283.27 380.69 283.72 380.4 283.21 380.66 283.27 380.69"/><polygon class="cls-6" points="283.14 380.69 283.21 380.66 282.69 380.4 283.14 380.69"/><path class="cls-7" d="M405.72,96.52,320.6,146.06,317,148.19v43.94l-6.58,3.8-6.08-51.54-20.86-15.32-26.93,15.32-.77,14.83,9.75-9.52,12.6,5.08-21.58,41.15-6.59-3.8V148.19l-3.61-2.13L161.21,96.52l-15.12,19.1.37,300.29,137,79,137-79,.37-300.29ZM288.36,156.31l6.47,3.08,4.83,39.93-16.2,13.4L266.31,199.8ZM405.72,403.86,283.46,475.13,161.21,403.86V113.21l73.67,43-.28,45.26V347.18l49.2,29.5L331.65,348V201.46h0V156.62l74.09-43.41Z"/><polygon class="cls-6" points="344.13 349.87 331.12 335.05 283.27 363.64 233.92 336.61 222.28 349.87 170.44 408.94 183.89 417.08 238.13 356.06 282.69 380.4 283.21 380.66 283.72 380.4 327.54 355.23 382.55 417.11 395.97 408.94 344.13 349.87"/><path class="cls-2" d="M282.85,137.18l1.33.85-2.95.16Z"/><path class="cls-3" d="M282.86,135.41s-7.26,4.51-7.72,4.6l13.8-.73-6.08-3.87Z"/><path class="cls-8" d="M283.46,490.44c111.71,0,203-89,206.84-199.76L87.73,350.77C115.73,432,192.89,490.44,283.46,490.44Z"/><path class="cls-8" d="M283.46,76.49c-105.38,0-192.62,79.18-205.36,181.17l395.79-55.27C442.29,128.45,368.83,76.49,283.46,76.49Z"/><path class="cls-2" d="M283.46,555.21A272.08,272.08,0,0,1,22.84,360.8a272.91,272.91,0,0,1-11.13-77.34c0-5.47.19-11.23.55-17.11a271.74,271.74,0,0,1,463.36-175,269.9,269.9,0,0,1,79.57,190v.89c0,.41,0,.81,0,1.22A271.74,271.74,0,0,1,283.46,555.21ZM91.1,352.79A204.46,204.46,0,0,0,487.67,293.6ZM283.46,79C181.64,79,95.18,154.31,81,254.73l389.27-54.36A204.41,204.41,0,0,0,283.46,79Z"/><path class="cls-3" d="M283.46,14.21A268.71,268.71,0,0,1,552.69,281.37c0,.7,0,1.4,0,2.09A269.25,269.25,0,0,1,93.08,473.85,267.92,267.92,0,0,1,14.21,283.46c0-5.68.2-11.33.55-17A269.25,269.25,0,0,1,283.46,14.21M78.1,257.66l395.79-55.27c-31.6-73.94-105.06-125.9-190.43-125.9-105.38,0-192.62,79.18-205.36,181.17M283.46,490.44c111.71,0,203-89,206.84-199.76L87.73,350.77c28,81.18,105.16,139.67,195.73,139.67m0-481.23A273.7,273.7,0,0,0,9.77,266.2c-.37,5.93-.56,11.74-.56,17.26A272.88,272.88,0,0,0,89.54,477.39,274.25,274.25,0,0,0,557.71,283.46c0-.43,0-.85,0-1.28s0-.56,0-.85A274.23,274.23,0,0,0,283.46,9.21ZM84,251.79c15.4-97.54,100-170.3,199.48-170.3A201.9,201.9,0,0,1,466.61,198.36L84,251.79Zm10.53,103L485,296.53c-6.75,106.41-94.15,188.91-201.55,188.91A202.18,202.18,0,0,1,94.51,354.81Z"/><text class="cls-9" transform="matrix(0.47, -0.06, -0.01, 1, 84.88, 342.14)">LAWKEEPERS</text><text class="cls-10" transform="matrix(0.59, -0.81, 0.81, 0.59, 96.66, 165.76)">B</text><text class="cls-10" transform="translate(114.19 141.54) rotate(-46.46)">A</text><text class="cls-10" transform="matrix(0.78, -0.62, 0.62, 0.78, 134.58, 119.82)">D</text><text class="cls-10" transform="translate(160.62 99.39) rotate(-31.1)">L</text><text class="cls-10" transform="matrix(0.91, -0.41, 0.41, 0.91, 181.78, 86.38)">A</text><text class="cls-10" transform="translate(208.89 74.01) rotate(-16.04)">N</text><text class="cls-10" transform="translate(241.14 64.67) rotate(-7.51)">D</text><text class="cls-10" transform="translate(273.93 60.46) rotate(0.32)">S</text><text class="cls-10" transform="translate(301.68 60.94) rotate(5.58)"> </text><text class="cls-10" transform="translate(314.16 61.73) rotate(11.03)">P</text><text class="cls-10" transform="matrix(0.95, 0.32, -0.32, 0.95, 342.22, 67.09)">A</text><text class="cls-10" transform="translate(370.45 76.72) rotate(26.21)">T</text><text class="cls-10" transform="matrix(0.83, 0.56, -0.56, 0.83, 394.4, 88.26)">R</text><text class="cls-10" transform="matrix(0.74, 0.67, -0.67, 0.74, 420.72, 105.68)">O</text><text class="cls-10" transform="matrix(0.64, 0.77, -0.77, 0.64, 445.44, 128.52)">L</text><text class="cls-10" transform="matrix(0.79, 0.61, -0.61, 0.79, 112.28, 473.66)">B</text><text class="cls-10" transform="translate(138.92 494.1) rotate(29.98)">U</text><text class="cls-10" transform="matrix(0.93, 0.38, -0.38, 0.93, 170.2, 511.91)">R</text><text class="cls-10" transform="translate(202.94 524.84) rotate(14.84)">E</text><text class="cls-10" transform="translate(232.07 532.5) rotate(7.88)">A</text><text class="cls-10" transform="translate(265.38 537.13) rotate(-0.13)">U</text><text class="cls-10" transform="translate(300.34 536.66) rotate(-5.05)"> </text><text class="cls-10" transform="matrix(0.98, -0.18, 0.18, 0.98, 315.3, 535.65)">A</text><text class="cls-10" transform="translate(347.98 529.49) rotate(-17.26)">E</text><text class="cls-10" transform="translate(376.88 520.54) rotate(-24.6)">G</text><text class="cls-10" transform="translate(409.28 505.18) rotate(-31.24)">I</text><text class="cls-10" transform="translate(429.71 492.86) rotate(-37.27)">S</text></svg>