<svg viewBox="0 0 541.71 537.06" xmlns="http://www.w3.org/2000/svg"><ellipse cx="270.86" cy="268.53" fill="#343635" rx="270.86" ry="268.53"/><g fill="#fff"><ellipse cx="270.86" cy="268.53" rx="197.81" ry="196.11"/><path d="m49.35 387.39a.56.56 0 0 1 -.85-.31l-2.61-5.61a.56.56 0 0 1 .31-.85l10.58-4.94-7.28-15.68-10.58 5a.57.57 0 0 1 -.86-.31l-2.68-5.76a.54.54 0 0 1 .33-.81l24.13-11.26a.54.54 0 0 1 .83.27l2.69 5.76a.57.57 0 0 1 -.32.85l-9.88 4.61 7.28 15.65 9.88-4.62a.57.57 0 0 1 .86.31l2.61 5.61a.57.57 0 0 1 -.31.86z"/><path d="m73.71 421.19c-.13.19-.26.35-.37.5a2.11 2.11 0 0 1 -.44.39l-.47.32a.55.55 0 0 1 -.87-.13l-3.43-5a.58.58 0 0 1 .09-.73l3.28-4.54-9.56-14-5.43 1.44a.66.66 0 0 1 -.73-.22l-2.78-4.08a.55.55 0 0 1 .2-.86l.46-.32a2 2 0 0 1 .53-.26l.6-.17 25.37-6.69a1 1 0 0 1 .76.08 1.23 1.23 0 0 1 .56.42l7.69 11.24a1.16 1.16 0 0 1 0 1.41zm6.86-27.67c-.15-.22-.3-.29-.45-.23l-14.06 3.62 7.94 11.6 8.5-11.81a.35.35 0 0 0 0-.41z"/><path d="m113.9 432.59a.55.55 0 0 1 -.88 0l-11.78-12.59a.84.84 0 0 0 -.59-.27l-2.72-.13a.82.82 0 0 0 -.55.24l-9.76 9.16a.75.75 0 0 0 -.31.56v3.63a1 1 0 0 0 .29.66l11.26 12a.57.57 0 0 1 0 .91l-2.16 2a.57.57 0 0 1 -.91 0l-14.27-15.2a1.41 1.41 0 0 1 -.38-1.06v-7.33a1.19 1.19 0 0 1 .4-.87l12-11.23a1.2 1.2 0 0 1 .89-.34l5.4.25a1.41 1.41 0 0 1 1 .46l15.26 16.25a.57.57 0 0 1 0 .91z"/><path d="m144 454.17a1 1 0 0 1 -.45.31l-11.8 3.14-2 16.07a1.51 1.51 0 0 1 -.32.67l-.47.6a.59.59 0 0 1 -.93.15l-4.88-3.81a.79.79 0 0 1 -.26-.71l1.92-14.89-8.38-6.54-7.82 10a.57.57 0 0 1 -.9.11l-5-3.91a.54.54 0 0 1 -.07-.87l16.41-20.94a.55.55 0 0 1 .87-.14l5 3.9a.58.58 0 0 1 .11.91l-6.35 8.1 8.34 6.51 12.52-3.65a.76.76 0 0 1 .69.08l4.22 3.29a.55.55 0 0 1 .13.87z"/><path d="m171.41 472.05a.55.55 0 0 1 -.85.21l-15.69-8.79a.85.85 0 0 0 -.7-.07l-2.48.64a1 1 0 0 0 -.6.5l-2.24 4 17.85 10a.55.55 0 0 1 .26.84l-1.41 2.5a.55.55 0 0 1 -.85.21l-17.85-10-2.27 4a.94.94 0 0 0 -.09.73l1 3.36a.91.91 0 0 0 .45.58l15.07 8.45a.56.56 0 0 1 .24.87l-1.45 2.57a.58.58 0 0 1 -.88.25l-18.79-10.54a1.9 1.9 0 0 1 -.83-1l-2.12-7a1.22 1.22 0 0 1 .12-.95l8.08-14.3a1.21 1.21 0 0 1 .75-.6l5.17-1.35a1.52 1.52 0 0 1 1.22.12l20.08 11.26a.57.57 0 0 1 .24.88z"/><path d="m205.16 485.73a1.18 1.18 0 0 1 0 .94l-2.28 6a1.8 1.8 0 0 1 -1 1.06l-4.27 1.81.82 10.42a3.09 3.09 0 0 1 0 .61 2.42 2.42 0 0 1 -.15.59l-.16.41a1.2 1.2 0 0 1 -.28.46c-.11.1-.3.1-.58 0l-5.62-2.03a.65.65 0 0 1 -.45-.63l-.39-10.4-13.38-5-3.31 8.79a.57.57 0 0 1 -.83.38l-5.88-2.19c-.38-.14-.49-.41-.34-.82l9.2-24.38a1 1 0 0 1 1.46-.71l24.16 9a1.64 1.64 0 0 1 1 .88zm-8.83-3a.88.88 0 0 0 -.51-.45l-13-4.84c-.42-.15-.72 0-.9.48l-3.09 8.19 13.67 5.11 3.05-1.28a.82.82 0 0 0 .46-.43l1.42-3.77a.86.86 0 0 0 0-.7z"/><path d="m256 494.8a1.46 1.46 0 0 1 .28 1.13l-2.4 17.29a1.49 1.49 0 0 1 -.59 1l-4.36 3.19a1.32 1.32 0 0 1 -1 .23l-21.61-2.94a1.23 1.23 0 0 1 -.9-.49l-3.34-4.21a1.48 1.48 0 0 1 -.29-1.14l2.41-17.29a1.49 1.49 0 0 1 .59-1l4.36-3.2a1.35 1.35 0 0 1 1-.23l21.62 2.94a1.3 1.3 0 0 1 .9.49zm-9.14-.8a1.06 1.06 0 0 0 -.71-.42l-11.54-1.58a1 1 0 0 0 -.8.22l-2 1.51a1 1 0 0 0 -.38.68l-1.92 13.59a.93.93 0 0 0 .17.75l1.54 2a1 1 0 0 0 .71.43l11.54 1.56a1.05 1.05 0 0 0 .8-.21l2-1.52a1 1 0 0 0 .38-.68l1.89-13.61a1 1 0 0 0 -.17-.76z"/><path d="m287.37 494.13a.54.54 0 0 1 -.6.61l-15.09.16a.86.86 0 0 0 -.6.25l-1.91 1.85a.77.77 0 0 0 -.23.6l.05 6.29 17.57-.19c.4 0 .61.21.61.63v2.91c0 .43-.19.64-.59.65l-17.58.19.08 9.83a.57.57 0 0 1 -.64.65l-6.36.07c-.4 0-.6-.2-.61-.64l-.18-22.12a1.2 1.2 0 0 1 .32-.88l3.85-3.79a1.45 1.45 0 0 1 1.08-.46l20.18-.22c.4 0 .6.21.6.64z"/><path d="m331.68 486.58a.53.53 0 0 1 -.46.71l-14.78 3.12a.82.82 0 0 0 -.54.36l-1.51 2.17a.86.86 0 0 0 -.11.65l1.28 6.14 17.21-3.63q.59-.12.72.51l.59 2.84q.14.63-.45.75l-17.21 3.63 2 9.62a.58.58 0 0 1 -.5.77l-6.23 1.31c-.39.09-.63-.08-.72-.5l-4.52-21.65a1.21 1.21 0 0 1 .13-.93l3-4.47a1.49 1.49 0 0 1 1-.66l19.75-4.17q.58-.12.72.51z"/><path d="m365.52 475.08a1.51 1.51 0 0 1 .79.87l6 16.36a1.44 1.44 0 0 1 0 1.17l-2.35 4.86a1.31 1.31 0 0 1 -.77.68l-20.49 7.57a1.25 1.25 0 0 1 -1 0l-4.94-2.16a1.51 1.51 0 0 1 -.79-.87l-6-16.36a1.49 1.49 0 0 1 0-1.17l2.35-4.86a1.3 1.3 0 0 1 .78-.68l20.48-7.57a1.27 1.27 0 0 1 1 0zm-8.46 3.6a1 1 0 0 0 -.82 0l-10.94 4.05a1 1 0 0 0 -.6.56l-1.08 2.29a1 1 0 0 0 0 .78l4.74 12.88a1 1 0 0 0 .52.58l2.3 1a1 1 0 0 0 .82 0l10.94-4.05a1 1 0 0 0 .6-.56l1.08-2.29a1 1 0 0 0 0-.78l-4.75-12.88a1 1 0 0 0 -.51-.58z"/><path d="m398.23 457.18a1.16 1.16 0 0 1 .71.61l3.17 5.61a1.77 1.77 0 0 1 .2 1.41l-1.31 4.42 8.53 6a2.48 2.48 0 0 1 .47.38 2.3 2.3 0 0 1 .35.49l.22.39a1.18 1.18 0 0 1 .17.51c0 .14-.12.29-.37.44l-5.27 3a.67.67 0 0 1 -.77-.07l-8.33-6.32-12.45 7.05 4.62 8.17a.55.55 0 0 1 -.24.87l-5.47 3.1a.55.55 0 0 1 -.84-.26l-12.81-22.64a1 1 0 0 1 .4-1.56l22.52-12.78a1.64 1.64 0 0 1 1.29-.17zm-8 4.84a.88.88 0 0 0 -.68.11l-12.05 6.87c-.4.22-.47.56-.22 1l4.3 7.6 12.73-7.2 1-3.15a.84.84 0 0 0 0-.63l-2-3.5a.89.89 0 0 0 -.56-.42z"/><path d="m424.5 436.3a.55.55 0 0 1 -.07.88l-8.2 6.43 14.06 17.88a.57.57 0 0 1 -.1.9l-5 4a.56.56 0 0 1 -.88-.13l-14.06-17.88-8.25 6.42a.57.57 0 0 1 -.9-.11l-1.94-2.47a.57.57 0 0 1 .11-.9l22.44-17.62a.55.55 0 0 1 .87.13z"/><path d="m462.73 423.1a.94.94 0 0 1 .34.81l.1 6a2.18 2.18 0 0 1 -.6 1.46l-13.71 14.63a2.2 2.2 0 0 1 -1.43.7l-6 .29a.94.94 0 0 1 -.83-.29l-15.79-14.76a.57.57 0 0 1 0-.91l4.36-4.65a.56.56 0 0 1 .89 0l14.7 13.76a.72.72 0 0 0 .55.18l3.09-.24a.65.65 0 0 0 .5-.24l7.65-8.15a.69.69 0 0 0 .21-.52v-3.09a.74.74 0 0 0 -.22-.54l-14.71-13.75a.56.56 0 0 1 -.06-.88l4.28-4.55a.57.57 0 0 1 .91 0z"/><path d="m488.91 393.16a.92.92 0 0 1 .34 1.44l-2.2 3.29a2.7 2.7 0 0 1 -1.8 1.16l-25.59 5.86 15.15 10.09a.55.55 0 0 1 .2.86l-2.47 3.69a.55.55 0 0 1 -.87.15l-21.73-14.47a.93.93 0 0 1 -.35-1.44l2.21-3.29a2.75 2.75 0 0 1 1.8-1.17l25.57-5.68-15.17-10.13a.56.56 0 0 1 -.18-.89l2.54-3.8a.55.55 0 0 1 .87-.14z"/><path d="m484.06 349.89a.54.54 0 0 1 .28.83l-7.58 16.34a.89.89 0 0 0 0 .7l.84 2.42a1 1 0 0 0 .54.55l4.14 1.91 8.62-18.6a.55.55 0 0 1 .82-.33l2.6 1.2a.55.55 0 0 1 .28.83l-8.6 18.6 4.17 1.91a.91.91 0 0 0 .74 0l3.27-1.32a.93.93 0 0 0 .55-.5l7.27-15.65a.58.58 0 0 1 .86-.31l2.67 1.23a.57.57 0 0 1 .32.85l-9.08 19.58a1.89 1.89 0 0 1 -.91.9l-6.8 2.69a1.21 1.21 0 0 1 -.95 0l-14.91-6.85a1.24 1.24 0 0 1 -.65-.7l-1.75-5a1.52 1.52 0 0 1 0-1.22l9.7-20.95a.57.57 0 0 1 .85-.31z"/></g><ellipse cx="270.86" cy="268.53" fill="#9e1319" rx="206.65" ry="204.88"/><path d="m143.86 79.49a1 1 0 0 0 .71.47l4.09.75a1.31 1.31 0 0 0 1-.19l14-9.06a.67.67 0 0 1 1 .26l2.09 3.22a.67.67 0 0 1 -.18 1.06l-18.42 12a1.83 1.83 0 0 1 -1.44.29l-8.78-1.63a1.47 1.47 0 0 1 -1-.67l-13.84-21.36a.69.69 0 0 1 .23-1.08l6.49-4.21a.68.68 0 0 1 1.08.23z" fill="#fff"/><path d="m209.72 54.67.49.57a3.13 3.13 0 0 1 .35.63l.25.64a.67.67 0 0 1 -.39 1l-6.89 2.7a.71.71 0 0 1 -.85-.3l-4.54-5.13-19.22 7.53.23 6.83a.77.77 0 0 1 -.46.81l-5.58 2.19a.67.67 0 0 1 -1-.46l-.26-.64a2.84 2.84 0 0 1 -.17-.7c0-.23 0-.48 0-.76l-1.1-31.89a1.34 1.34 0 0 1 .31-.89 1.62 1.62 0 0 1 .65-.54l15.46-6.07a1.44 1.44 0 0 1 1.68.4zm-31.06-15.67c-.3.12-.43.28-.39.47l.49 17.67 16-6.26-11.76-13.29a.41.41 0 0 0 -.49-.07z" fill="#fff"/><path d="m252.14 17.84a1.07 1.07 0 0 1 -.17.82l-11.76 15.28 16.79 12.83a1.1 1.1 0 0 1 .42.74l.16 1.06a.72.72 0 0 1 -.69 1l-7.85 1.21a2.42 2.42 0 0 1 -1.93-.35l-12.77-10.22-9.13 13.49a3 3 0 0 1 -.55.58 1.63 1.63 0 0 1 -.78.32l-5.88.9a1.53 1.53 0 0 1 -.57 0c-.15 0-.26-.28-.33-.7l-.17-1.07a1.13 1.13 0 0 1 .24-1l12.28-16.35-15.63-11.91a1 1 0 0 1 -.35-.64l-.17-1.12a.73.73 0 0 1 .69-.95l7.85-1.2a2.36 2.36 0 0 1 1.07 0 2.64 2.64 0 0 1 .77.38l11.76 9.28 9-12.52a1.77 1.77 0 0 1 1.25-.83l5.34-.82c.55-.09.86.11.94.6z" fill="#fff"/><path d="m315.72 52.36c0 .52-.31.76-.79.71l-5.25-.47c-.48-.05-.7-.33-.66-.85l2-23-16.44 21.89a1.17 1.17 0 0 1 -1.07.5l-6.61-.6a1.1 1.1 0 0 1 -1-.68l-12.42-24.49-2 23c0 .52-.31.76-.8.71l-5.14-.46c-.49 0-.71-.33-.66-.85l2.77-31.84c.07-.79.47-1.14 1.22-1.08l8.79.8a1.3 1.3 0 0 1 1 .83l12.64 25.79 16.94-23.12a1.3 1.3 0 0 1 1.23-.62l8 .72a1 1 0 0 1 1 1.27z" fill="#fff"/><path d="m366.27 39.15a.66.66 0 0 1 -1 .45l-20.8-7.06a1.07 1.07 0 0 0 -.85.08l-2.81 1.32a1.24 1.24 0 0 0 -.61.73l-1.76 5.25 23.66 8a.67.67 0 0 1 .5.95l-1.11 3.3a.68.68 0 0 1 -1 .45l-23.65-8-1.79 5.3a1.13 1.13 0 0 0 .06.9l2 3.8a1.12 1.12 0 0 0 .67.59l20 6.77a.69.69 0 0 1 .49 1l-1.14 3.39a.69.69 0 0 1 -1 .49l-24.91-8.45a2.29 2.29 0 0 1 -1.21-1l-4.14-7.88a1.44 1.44 0 0 1 -.07-1.17l6.37-18.92a1.45 1.45 0 0 1 .76-.88l5.87-2.78a1.94 1.94 0 0 1 1.49-.12l26.61 9a.7.7 0 0 1 .49 1z" fill="#fff"/><path d="m409.44 62.68a.66.66 0 0 1 -1 .24l-19-11a1.08 1.08 0 0 0 -.85-.09l-3 .74a1.19 1.19 0 0 0 -.74.59l-2.85 4.76 21.61 12.56a.67.67 0 0 1 .31 1l-1.74 3a.68.68 0 0 1 -1.05.25l-21.6-12.52-2.8 4.84a1.08 1.08 0 0 0 -.12.89l1.22 4.12a1.12 1.12 0 0 0 .55.71l18.23 10.6a.69.69 0 0 1 .29 1.07l-1.8 3.1a.69.69 0 0 1 -1.07.28l-22.75-13.21a2.37 2.37 0 0 1 -1-1.21l-2.49-8.54a1.42 1.42 0 0 1 .16-1.15l10-17.28a1.46 1.46 0 0 1 .92-.71l6.32-1.55a1.79 1.79 0 0 1 1.47.18l24.34 14.12a.69.69 0 0 1 .28 1.07z" fill="#fff"/><path d="m365.07 415.92c-.08-.15-.16-.3-.25-.45l-32.37-56 .18-.46a4.09 4.09 0 0 0 .81-1.29c.67-1.72 16.56-42.72 16.63-78.56a151.28 151.28 0 0 0 -1.13-18.16 216.48 216.48 0 0 0 -11-48.48c-2.7-8.45-4.77-13.73-4.86-13.95a4.3 4.3 0 0 0 -.95-1.44c1.23-2.07 2.47-4.18 3.66-6.3.91-1.65 1.26-1.84 1.71-2a15.54 15.54 0 0 0 5.38-3l.25-.19c4.35-3.28 7.32-7.6 9.65-11.39a201.72 201.72 0 0 0 13.26-25.06 182.59 182.59 0 0 0 12.47-39 4.17 4.17 0 0 0 -5.77-4.6 14.32 14.32 0 0 0 -4.29 3.11l-.57.54a185 185 0 0 0 -19.44 21.21 198.26 198.26 0 0 0 -20.88 32.53c-2.32 4.52-4.51 9.4-3.74 15a8.56 8.56 0 0 1 .08 1.12c-15.78-31.33-39.08-62.05-57.5-62.05-16.2 0-37.37 26.48-52.7 54.59a42.66 42.66 0 0 0 -1.48-4.71 66.9 66.9 0 0 0 -5-10l-.54-.94a194.9 194.9 0 0 0 -37.57-47.7c-.11-.1-.22-.2-.32-.31a8.64 8.64 0 0 0 -4.13-2.57 4.17 4.17 0 0 0 -5.17 4.64c0 .25.06.46.09.66.06.46.12.89.22 1.37a190.14 190.14 0 0 0 14.64 42.4 164.41 164.41 0 0 0 13.85 24.19c3.76 5.25 8 8.65 12.94 10.38l.2.36c.64 1.12 1.29 2.23 1.94 3.35-.56 1.27-1.1 2.55-1.64 3.84a4.15 4.15 0 0 0 -1.53 1.94c-.15.4-3.79 9.88-7.65 23.8a208.61 208.61 0 0 0 -6.75 30.91 165.32 165.32 0 0 0 -2.03 25.75c.1 19.11 4.82 39.94 8.9 54.42a9.84 9.84 0 0 0 -.1 4.1c1.58 7.46 3.19 14.29 4.93 20.82l-3.42 5.91q-14 24.15-27.9 48.3c-.15.25-.43.63-.7 1-1.11 1.48-2.95 3.95-2.08 7s3.6 4.28 5.22 5a11.09 11.09 0 0 1 1.39.7 4.16 4.16 0 0 0 6-1.32l31-53.58c8.32 18.22 18.42 34.71 28.65 46.72 8.18 9.59 20.46 21 32.56 21 18.61 0 41.69-31.36 56.87-62.93l18.47 32 7.44 12.97c1.65 2.85 2.84 4.91 5.46 5.51s4.52-.72 7.17-2.53l.12-.08a5.25 5.25 0 0 0 1.52-7.69z" fill="#343635" stroke="#343635" stroke-linecap="square" stroke-linejoin="bevel" stroke-width="12.68"/><path d="m332.17 188.79c1-1.84 2.09-3.38 4.29-4a12.54 12.54 0 0 0 4.19-2.45c3.66-2.76 6.25-6.42 8.6-10.25a198.31 198.31 0 0 0 13-24.53 178.58 178.58 0 0 0 12.19-38.1 13.42 13.42 0 0 0 -3.69 2.89 180.27 180.27 0 0 0 -19 20.74 192.08 192.08 0 0 0 -20.45 31.91c-2 3.91-3.93 8.09-3.32 12.54s-1 7.87-3.18 11.34l-.47.78c-17.71-38.68-42.46-68.32-57.9-68.32-14.12 0-37.57 27.7-55.05 64.14l-.91-1.56a3.24 3.24 0 0 1 -.59-2.59c1.1-4.46 0-8.7-1.54-12.84a70.82 70.82 0 0 0 -5.23-10.36 189.77 189.77 0 0 0 -36.76-46.67 6.16 6.16 0 0 0 -2.68-1.93c.12.77.16 1.28.27 1.77a185 185 0 0 0 14.32 41.46 157 157 0 0 0 13.48 23.57c2.9 4 6.41 7.4 11.28 9a3.89 3.89 0 0 1 2.09 2.09q1.48 2.6 3 5.17-1.86 4.19-3.59 8.47c-.23-.61-.36-.93-.36-.93s-3.67 9.54-7.53 23.45a203.12 203.12 0 0 0 -6.63 30.32 161.78 161.78 0 0 0 -2.06 25.1c.1 18.76 4.73 39.28 9.07 54.44a6.29 6.29 0 0 0 -.36 3.24c1.58 7.47 3.33 14.9 5.32 22.27q-16.09 27.84-32.18 55.7c-.91 1.57-2.81 3.25-2.38 4.76.53 1.85 3.19 2.16 5 3.45l5.87-10.15 27.72-47.81a4.66 4.66 0 0 0 .45.22c.94.39 1.91.75 2.87 1.09 17.33 39.48 41.89 68.75 59 68.75 15.41 0 39.3-29 56.46-67.82q15 25.94 29.95 51.89c2.58 4.47 2.55 4.42 6.77 1.54.94-.65.92-1.16.4-1.95-.22-.34-.4-.71-.61-1.06q-16.69-28.89-33.39-57.79c.54-1.32 1.07-2.64 1.58-4l.15.38s16.28-41.58 16.35-77a147.45 147.45 0 0 0 -1.1-17.71 214 214 0 0 0 -10.88-47.61c-2.69-8.45-4.78-13.74-4.78-13.74l-.18.47c-.51-1.26-1-2.51-1.56-3.76 1.6-2.66 3.19-5.31 4.69-8.01z" fill="#3e3e3d"/><path d="m268.24 439.13c-12.1 0-24.38-11.44-32.56-21-10.23-12-20.33-28.5-28.65-46.72l-31.03 53.59a4.16 4.16 0 0 1 -6 1.32 11.09 11.09 0 0 0 -1.39-.7c-1.62-.72-4.34-1.93-5.22-5s1-5.52 2.08-7c.27-.36.55-.74.7-1q13.92-24.16 27.9-48.3l3.42-5.91c-1.74-6.53-3.35-13.36-4.93-20.82a9.84 9.84 0 0 1 .1-4.1c-4.08-14.48-8.8-35.31-8.9-54.42a165.32 165.32 0 0 1 2.09-25.74 208.61 208.61 0 0 1 6.75-30.91c3.86-13.92 7.5-23.4 7.65-23.8a4.15 4.15 0 0 1 1.53-1.94c.54-1.29 1.08-2.57 1.64-3.84-.65-1.12-1.3-2.23-1.94-3.35l-.2-.36c-4.94-1.73-9.18-5.13-12.94-10.38a164.41 164.41 0 0 1 -13.85-24.19 190.14 190.14 0 0 1 -14.64-42.4c-.1-.48-.16-.91-.22-1.37 0-.2-.06-.41-.09-.66a4.17 4.17 0 0 1 5.17-4.64 8.64 8.64 0 0 1 4.13 2.57c.1.11.21.21.32.31a194.9 194.9 0 0 1 37.58 47.63l.54.94a66.9 66.9 0 0 1 5 10 42.66 42.66 0 0 1 1.48 4.71c15.33-28.11 36.5-54.59 52.7-54.59 18.42 0 41.72 30.72 57.5 62.05a8.56 8.56 0 0 0 -.08-1.12c-.77-5.6 1.42-10.48 3.74-15a198.26 198.26 0 0 1 20.88-32.53 185 185 0 0 1 19.44-21.21l.57-.54a14.32 14.32 0 0 1 4.29-3.11 4.17 4.17 0 0 1 5.77 4.6 182.59 182.59 0 0 1 -12.47 39 201.72 201.72 0 0 1 -13.26 25.06c-2.33 3.79-5.3 8.11-9.65 11.39l-.25.19a15.54 15.54 0 0 1 -5.38 3c-.45.12-.8.31-1.71 2-1.19 2.12-2.43 4.23-3.66 6.3a4.3 4.3 0 0 1 .95 1.44c.09.22 2.16 5.5 4.86 13.95a215.93 215.93 0 0 1 11 48.48 151.28 151.28 0 0 1 1.13 18.17c-.07 35.81-16 76.8-16.63 78.53a4.09 4.09 0 0 1 -.81 1.29l-.18.46 32.37 56c.09.15.17.3.25.45l.23.4a5.25 5.25 0 0 1 -1.52 7.69l-.12.08c-2.65 1.81-4.57 3.12-7.17 2.53s-3.81-2.66-5.45-5.51l-7.46-12.93-18.47-32c-15.24 31.6-38.32 62.96-56.93 62.96zm-60.18-77.84c.75.31 1.56.62 2.61 1a4.13 4.13 0 0 1 2.43 2.26c16.58 37.77 40.28 66.25 55.14 66.25 11.68 0 34.57-24.44 52.64-65.34a4.18 4.18 0 0 1 3.59-2.47h.38c-.21-.37-.42-.74-.64-1.11a4.17 4.17 0 0 1 -.25-3.66c.53-1.3 1.05-2.61 1.56-3.92a4.07 4.07 0 0 1 .76-1.25c2.93-7.95 15.39-43.54 15.45-73.88a145.94 145.94 0 0 0 -1.07-17.22.22.22 0 0 1 0-.08 208.08 208.08 0 0 0 -10.58-46.67v-.09c-1.71-5.34-3.17-9.43-4-11.63a4.26 4.26 0 0 1 -.87-1.33c-.5-1.24-1-2.48-1.53-3.71a4.16 4.16 0 0 1 .26-3.76c.17-.29.34-.58.52-.87h-.34a4.18 4.18 0 0 1 -3.55-2.43c-18.89-41.24-42.34-65.89-54.11-65.89-10.64 0-32.74 23.11-51.29 61.77a4.17 4.17 0 0 1 -3.58 2.37h-.35l.5.86a4.2 4.2 0 0 1 .2 3.78c-1.22 2.73-2.4 5.53-3.53 8.33a4.27 4.27 0 0 1 -1.34 1.76c-1.34 3.75-3.84 11.08-6.4 20.32v.07a199.54 199.54 0 0 0 -6.5 29.72s0 .06 0 .08a157.68 157.68 0 0 0 -2 24.47c.1 18.67 4.9 39.3 8.91 53.31a4.23 4.23 0 0 1 -.08 2.54 2.72 2.72 0 0 0 -.2 1c1.67 7.9 3.39 15.11 5.26 22a4.12 4.12 0 0 1 -.25 2.85 4.26 4.26 0 0 1 2.16.48zm159.21-239.66a183.89 183.89 0 0 0 -12.27 14.08 189.62 189.62 0 0 0 -20 31.15c-1.78 3.48-3.34 6.87-2.9 10.07a17.38 17.38 0 0 1 -.11 5.51 9.75 9.75 0 0 1 3.39-1.65 8.82 8.82 0 0 0 2.48-1.55l.27-.2c3.23-2.43 5.54-5.81 7.56-9.1a195.45 195.45 0 0 0 12.73-24 193.3 193.3 0 0 0 8.85-24.31zm-196.45 0a185 185 0 0 0 11.18 29.28 156.06 156.06 0 0 0 13.13 23c2.83 4 5.75 6.34 9.18 7.46a6.74 6.74 0 0 1 1.3.59 7.35 7.35 0 0 1 .21-1.62c.81-3.27 0-6.52-1.4-10.4a60 60 0 0 0 -4.4-8.78l-.54-1a189.27 189.27 0 0 0 -28.66-38.56z" fill="#343635"/><path d="m268.38 435.12c-29.67 0-81.92-88.33-79.6-165.13 2-67.29 53.61-148.53 77.79-148.53" fill="#9f1e1e"/><path d="m266.57 121.46c25.78 0 77.51 82.63 79.11 152 1.72 74.36-50.57 161.66-77.3 161.66" fill="#9f1e1e"/><path d="m202.48 200.25s16.75 42.44 16.67 79.06c-.07 35.43-16.35 77-16.35 77s-16.34-41.73-16.53-77.15c-.19-36.34 16.21-78.91 16.21-78.91z" fill="#343635"/><path d="m331.18 200.25s16.75 42.44 16.67 79.06c-.07 35.43-16.35 77-16.35 77s-16.34-41.71-16.5-77.13c-.22-36.36 16.18-78.93 16.18-78.93z" fill="#343635"/><path d="m277.43 351.62c-.09 1.63-.2 3.27-.28 4.9a153.63 153.63 0 0 1 -1.69 16.48 143 143 0 0 1 -5.59 23.26c-.76 2.27-1.73 4.48-2.6 6.72a3.31 3.31 0 0 1 -.52 1 7.28 7.28 0 0 1 -.27-1.36c0-8.49 0-17 0-25.48v-83.89c0-.77.06-1.54.09-2.31l.33-.05c.48 1.05 1 2.09 1.42 3.17a134.39 134.39 0 0 1 5.68 19.67 146.79 146.79 0 0 1 2.74 18.53c.26 3.12.36 6.25.54 9.37 0 .41.08.81.12 1.21z" fill="#343635"/><path d="m277.43 205.79c-.09 1.5-.21 3-.28 4.52a152.44 152.44 0 0 1 -1.91 17.57 137.34 137.34 0 0 1 -7.06 26.19c-.23.62-.51 1.23-.8 1.83a2.48 2.48 0 0 1 -.73.9v-112.61h.16a7.29 7.29 0 0 1 .85 1.33c.93 2.5 1.85 5 2.68 7.52a130.56 130.56 0 0 1 5.34 23c.65 4.74 1 9.53 1.46 14.3.14 1.45.2 2.9.29 4.36z" fill="#343635"/><path d="m250.17 341.61c.1-1.45.21-2.91.29-4.36a142.1 142.1 0 0 1 3-22.61 122.65 122.65 0 0 1 7.09-22.44c.09-.21.19-.4.38-.78v111.47h-.12c-.44-1.05-.9-2.09-1.32-3.14a125.58 125.58 0 0 1 -7.49-27.62 150.75 150.75 0 0 1 -1.7-18.37 7.12 7.12 0 0 0 -.13-.91z" fill="#343635"/><path d="m250.17 194.7c.1-1.43.21-2.85.28-4.28a141.06 141.06 0 0 1 1.91-17 126.63 126.63 0 0 1 7.82-27.24 5.18 5.18 0 0 1 .61-1.16v111.04c-.14-.25-.24-.4-.31-.56a120.18 120.18 0 0 1 -7.7-25.52 153 153 0 0 1 -2.49-23.29 5.55 5.55 0 0 0 -.12-.9z" fill="#343635"/><path d="m259.16 259.07a14.19 14.19 0 0 0 -4.37 5.57 22.53 22.53 0 0 0 -1.79 11.49 18.37 18.37 0 0 0 3.78 10.23 9.2 9.2 0 0 0 5.84 3.81l.58.06v-32.73a8.08 8.08 0 0 0 -4.04 1.57z" fill="#343635"/><path d="m274.18 268.94a16.23 16.23 0 0 0 -5.19-9.46 7.66 7.66 0 0 0 -5.76-2v32.73a8 8 0 0 0 6.76-3c3.49-3.77 4.6-8.4 4.74-14.1-.11-.88-.23-2.54-.55-4.17z" fill="#343635"/><path d="m261.61 307.68c-2.74 4.42-5.24 8.13-7.41 12-8.86 15.94-17.69 31.89-26.33 48-1.76 3.27-3.46 4.13-7 2.66-4.67-1.94-9.67-3.09-14.34-5a7.41 7.41 0 0 1 -3.91-4.16c-2.22-8-4.13-16.12-5.85-24.26a7.2 7.2 0 0 1 1.21-5c11.89-17.38 23.92-34.66 35.89-52 3.82-5.52 3.6-5.41-.27-11-10.46-15.11-20.73-30.36-31.12-45.52a7.5 7.5 0 0 1 -.58-8.54c3.2-6.43 5.58-13.25 8.62-19.76a10.24 10.24 0 0 1 4.22-4.33c4.33-2.34 8.93-4.18 13.37-6.34 2.51-1.23 3.87-.75 5.33 1.84 9.33 16.47 18.83 32.86 28.36 49.22 2.83 4.86 3.68 4.73 6.76 0 10.91-16.68 21.93-33.29 32.79-50 1.55-2.38 3-2.74 5.56-1.72 4.31 1.74 8.75 3.2 13.18 4.63a6.38 6.38 0 0 1 4.7 5.28c1.44 6.47 3 12.94 5.08 19.23 1 3 .33 5.05-1.42 7.34-12 15.59-23.74 31.31-35.83 46.8-2.7 3.45-3.09 5.81-.36 9.59 12.74 17.65 25.08 35.59 37.74 53.36a9.57 9.57 0 0 1 1.55 8.68c-1.85 7.38-3.61 14.79-5.08 22.25-.6 3-1.93 4.68-4.88 5.58-5.13 1.56-10.19 3.37-15.2 5.27-2.58 1-3.89.4-5.39-2-12.12-19.59-24.41-39.08-36.67-58.58-.65-1.06-1.48-1.95-2.72-3.52zm2.39-46.84a41.38 41.38 0 0 1 -3.89-4.66c-7.11-11.57-14.11-23.18-21.11-34.78-3.54-5.79-7.16-11.53-10.79-17.26-1.42-2.27-3-2.38-4.57-.1a52.91 52.91 0 0 1 -4.09 5.41c-2.55 2.76-2.19 5.07-.21 8.19 11.24 17.82 22.17 35.84 33.37 53.68 1.67 2.66 1.26 4.36-.4 6.76-12.93 18.73-25.55 37.68-38.67 56.28-3.43 4.88-3.65 8.56-.46 13.59 4.72 7.48 4.91 7.79 9.76.19 8.92-13.94 17.64-28 26.57-41.94 4.4-6.86 9.07-13.55 14-20.85 1.31 1.84 2.24 3 3.07 4.3q18.33 27.81 36.64 55.63c5.25 8 5.18 7.94 12.67 1.8 2.38-1.95 3-3.9 1.43-6.58-2.89-4.86-5.42-10-8.63-14.6-10.66-15.32-21.3-30.67-32.52-45.58-3.26-4.33-2.29-6.85.3-10.55 13.14-18.77 26.09-37.67 39-56.59.77-1.12 1.37-3.17.85-4.2-1.73-3.45-4-6.64-6.9-11.27z" fill="#ebebeb"/><path d="m304.3 374.12c-2 0-3.54-1.09-5-3.38-10.24-16.56-20.78-33.32-31-49.53l-5.68-9a11.79 11.79 0 0 0 -.87-1.2c-.39.63-.78 1.24-1.17 1.84-1.7 2.7-3.32 5.24-4.76 7.83-8.91 16-17.64 31.78-26.32 47.92-2.29 4.27-5.11 5.32-9.41 3.53-2.26-.94-4.68-1.72-7-2.47s-4.91-1.57-7.32-2.57a9.28 9.28 0 0 1 -5-5.43c-2.06-7.41-4-15.38-5.88-24.37a9.19 9.19 0 0 1 1.5-6.45c8.4-12.28 17-24.72 25.35-36.75l10.55-15.24c1.49-2.15 2.4-3.51 2.4-4.24s-.89-2-2.26-4l-.43-.61c-6.48-9.37-13-18.94-19.29-28.19q-5.91-8.69-11.83-17.34a9.45 9.45 0 0 1 -.68-10.47c1.74-3.51 3.28-7.24 4.77-10.84 1.21-2.92 2.46-5.94 3.82-8.87a12.22 12.22 0 0 1 5.06-5.22c2.7-1.46 5.52-2.74 8.25-4 1.71-.77 3.48-1.57 5.18-2.4 3.41-1.66 5.91-.83 7.86 2.62 9.6 17 19.3 33.67 28.35 49.2a16.37 16.37 0 0 0 1.63 2.46 19.31 19.31 0 0 0 1.85-2.52q6.52-10 13.08-19.92c6.48-9.85 13.18-20 19.71-30.08 2-3.09 4.44-3.85 7.89-2.46 4.3 1.74 8.8 3.22 13.05 4.59a8.34 8.34 0 0 1 6 6.69c1.28 5.74 2.88 12.49 5 19a9.05 9.05 0 0 1 -1.72 9.11q-6.42 8.37-12.79 16.76c-7.51 9.88-15.28 20.1-23 30.06-2.33 3-2.39 4.4-.32 7.27 7.31 10.13 14.61 20.53 21.67 30.59 5.24 7.46 10.65 15.18 16 22.73a11.49 11.49 0 0 1 1.85 10.27c-2.22 8.82-3.78 15.65-5.06 22.15-.75 3.8-2.67 6-6.21 7.05-4.54 1.38-9.33 3-15.07 5.23a7.68 7.68 0 0 1 -2.75.65zm-42.88-69.8 1.7 2.17 1.14 1.41a19.72 19.72 0 0 1 1.68 2.23l5.68 9c10.2 16.21 20.75 33 31 49.55 1.1 1.79 1.51 1.83 3.07 1.24 5.83-2.23 10.69-3.92 15.32-5.32 2.18-.67 3.08-1.71 3.55-4.11 1.3-6.57 2.87-13.47 5.11-22.35a7.69 7.69 0 0 0 -1.26-7.1c-5.39-7.56-10.81-15.28-16.05-22.75-7.05-10.05-14.34-20.43-21.64-30.55-3.55-4.9-2.4-8.3.4-11.89 7.76-9.94 15.52-20.15 23-30q6.39-8.4 12.79-16.77c1.57-2 1.84-3.39 1.13-5.57-2.21-6.72-3.84-13.58-5.14-19.41a4.48 4.48 0 0 0 -3.41-3.87c-4.31-1.39-8.89-2.89-13.31-4.67-1.76-.71-2.22-.58-3.22 1-6.54 10.06-13.24 20.25-19.72 30.1q-6.56 10-13.08 19.92c-1.7 2.6-3.06 4.44-5.09 4.44h-.07c-2.07-.05-3.37-2-4.85-4.55-9.05-15.54-18.76-32.26-28.37-49.24-1-1.85-1.36-1.78-2.82-1.06-1.75.85-3.55 1.66-5.28 2.45-2.67 1.21-5.43 2.45-8 3.85a8.37 8.37 0 0 0 -3.4 3.46c-1.33 2.85-2.56 5.83-3.75 8.71-1.51 3.66-3.08 7.45-4.88 11.08a5.62 5.62 0 0 0 .44 6.6q5.91 8.68 11.83 17.33c6.3 9.25 12.81 18.81 19.28 28.17l.41.59c4 5.73 4 6.67-.14 12.6l-10.54 15.24c-8.33 12-16.94 24.46-25.34 36.74a5.43 5.43 0 0 0 -.92 3.47c1.89 8.91 3.79 16.81 5.83 24.15a5.59 5.59 0 0 0 2.79 2.89c2.26.94 4.68 1.72 7 2.47s4.92 1.57 7.34 2.58 3.17.73 4.53-1.8c8.7-16.17 17.43-31.92 26.35-48 1.49-2.69 3.13-5.28 4.87-8 .84-1.31 1.7-2.67 2.58-4.1zm-43.42 51.31c-2.32 0-3.63-2.08-6.5-6.61-3.57-5.65-3.42-10.21.5-15.76 8-11.37 16-23.06 23.67-34.36 4.9-7.19 10-14.63 15-21.91 1.41-2 1.47-2.87.35-4.65-5.19-8.27-10.41-16.72-15.46-24.89-5.84-9.45-11.88-19.23-17.91-28.78-1.87-3-3.28-6.52.42-10.53a40.65 40.65 0 0 0 3.33-4.34l.61-.87c1.19-1.68 2.51-2.49 4-2.47s2.73.93 3.81 2.65l.72 1.14c3.33 5.27 6.77 10.73 10.08 16.15q4.6 7.56 9.18 15.14c3.9 6.44 7.93 13.1 11.93 19.63a17.64 17.64 0 0 0 2.09 2.6l45.69-63.51 1.52 2.43c.85 1.35 1.65 2.59 2.39 3.74a80.64 80.64 0 0 1 4.6 7.69c1 2-.07 4.82-1 6.15-12.37 18.13-25.67 37.53-39 56.6-2.3 3.29-2.93 4.86-.34 8.29 10.87 14.45 21.36 29.54 31.51 44.14l1.05 1.5c2.16 3.12 4 6.47 5.84 9.7.93 1.66 1.89 3.37 2.86 5 2 3.36 1.37 6.41-1.86 9.06l-.19.16c-4.08 3.34-6.13 5-8.52 4.65s-3.85-2.57-6.72-6.95l-.07-.09c-11.93-18.14-23.65-35.93-36.64-55.63-.42-.65-.87-1.27-1.41-2l-3 4.48c-3.28 4.82-6.38 9.38-9.38 14.05-4.59 7.17-9.21 14.49-13.67 21.58-4.21 6.68-8.56 13.59-12.89 20.36-2.59 4.03-4.18 6.45-6.59 6.46zm7.86-151.27a3.24 3.24 0 0 0 -.72.79l-.6.86a43.73 43.73 0 0 1 -3.65 4.74c-1.73 1.87-1.72 3.13 0 5.87 6 9.56 12.09 19.35 17.94 28.81 5 8.16 10.26 16.6 15.44 24.86 2.25 3.58 1.45 6.14-.44 8.88-5 7.28-10.08 14.71-15 21.9-7.71 11.31-15.68 23-23.7 34.4-3.06 4.34-3.16 7.12-.41 11.46a35.24 35.24 0 0 0 3.27 4.72 31.47 31.47 0 0 0 3.24-4.55c4.33-6.75 8.68-13.66 12.88-20.33 4.47-7.09 9.09-14.43 13.69-21.61 3-4.71 6.14-9.29 9.43-14.13 1.5-2.21 3-4.45 4.58-6.75l1.55-2.3 1.61 2.25 1.22 1.68c.71 1 1.32 1.81 1.89 2.68 13 19.7 24.72 37.49 36.65 55.63l.06.1c1.74 2.65 3.39 5.15 4.09 5.25s3-1.8 5.5-3.82l.19-.16c2-1.62 1.9-2.58 1-4.11-1-1.69-2-3.42-2.91-5.1-1.76-3.16-3.58-6.42-5.64-9.38l-1.02-1.5c-10.13-14.57-20.6-29.63-31.43-44-4.17-5.54-2.34-9.07.27-12.8 13.34-19.06 26.62-38.45 39-56.57a4.21 4.21 0 0 0 .7-2.29 78.57 78.57 0 0 0 -4.37-7.29l-.89-1.38-45.19 62.83-1.59-1.88c-.44-.52-.89-1-1.33-1.49a22.3 22.3 0 0 1 -2.73-3.41c-4-6.53-8-13.2-11.94-19.65q-4.58-7.56-9.18-15.13c-3.29-5.4-6.72-10.84-10-16.1l-.71-1.13a3.15 3.15 0 0 0 -.71-.85z" fill="#343635"/><path d="m325.53 356.33a6.27 6.27 0 0 1 1.76 2.44q17 29.48 34.06 59c.21.35.39.72.61 1.06.52.79.54 1.3-.4 1.94-4.22 2.89-4.2 2.93-6.77-1.53q-15.42-26.7-30.83-53.4a8.51 8.51 0 0 0 -1.66-2.54q1.62-3.5 3.23-6.97z" fill="#ebebeb"/><path d="m207.36 362.86q-14.46 25-28.94 50l-5.87 10.14c-1.82-1.28-4.47-1.59-5-3.44-.43-1.51 1.47-3.19 2.38-4.76q16.95-29.41 34-58.79z" fill="#ebebeb"/><path d="m212.58 200.25c-2.44-4.24-4.9-8.47-7.33-12.71a3.86 3.86 0 0 0 -2.09-2.09c-4.87-1.61-8.38-5-11.28-9a157.57 157.57 0 0 1 -13.49-23.58 185.26 185.26 0 0 1 -14.32-41.45c-.1-.5-.15-1-.26-1.77a6.13 6.13 0 0 1 2.67 1.92 189.81 189.81 0 0 1 36.77 46.68 71.21 71.21 0 0 1 5.23 10.35c1.52 4.15 2.64 8.39 1.53 12.85a3.28 3.28 0 0 0 .59 2.59l5.58 9.49a47.67 47.67 0 0 1 -3.6 6.72z" fill="#ebebeb"/><path d="m322.3 193.47c.88-1.49 1.71-3 2.64-4.47 2.19-3.47 3.79-6.91 3.18-11.34s1.32-8.63 3.32-12.54a192.67 192.67 0 0 1 20.44-31.84 180.36 180.36 0 0 1 19-20.74 13.45 13.45 0 0 1 3.69-2.9 178.4 178.4 0 0 1 -12.19 38.1 197.72 197.72 0 0 1 -13 24.54c-2.35 3.83-4.95 7.49-8.6 10.25a12.54 12.54 0 0 1 -4.18 2.47c-2.2.59-3.27 2.13-4.29 4-2.13 3.81-5.47 9.78-7.7 13.55-1.37-2.18-1.61-6.62-2.31-9.08z" fill="#ebebeb"/><path d="m145.18 344.46a3.5 3.5 0 0 1 -3.08-1.84l-33.82-62.39a3.5 3.5 0 0 1 0-3.31l33.33-62.92a3.5 3.5 0 0 1 3.09-1.86 3.49 3.49 0 0 1 3.09 1.85l33.82 63.29a3.48 3.48 0 0 1 0 3.3l-33.34 62.05a3.51 3.51 0 0 1 -3.08 1.85z" fill="#ebebeb"/><path d="m144.7 215.62 33.82 63.29-33.34 62-33.82-62.4 33.34-62.94m0-7a7 7 0 0 0 -6.17 3.72l-33.35 62.94a7 7 0 0 0 0 6.61l33.82 62.45a7 7 0 0 0 6.16 3.67 7 7 0 0 0 6.15-3.69l33.35-62a7 7 0 0 0 0-6.61l-33.81-63.29a7 7 0 0 0 -6.18-3.7z" fill="#343635"/><path d="m82.53 307.83a3.49 3.49 0 0 1 -2.82-1.42l-19.22-26a3.5 3.5 0 0 1 0-4.15l19-25.82a3.49 3.49 0 0 1 2.77-1.44 3.49 3.49 0 0 1 2.82 1.42l19.22 26a3.5 3.5 0 0 1 0 4.15l-19 25.82a3.49 3.49 0 0 1 -2.82 1.43z" fill="#ebebeb"/><path d="m82.26 252.49 19.23 26-19 25.82-19.23-26zm0-7a7 7 0 0 0 -5.63 2.85l-19 25.83a7 7 0 0 0 0 8.3l19.23 26a7 7 0 0 0 5.63 2.84 7 7 0 0 0 5.63-2.86l19-25.82a7 7 0 0 0 0-8.3l-19.23-26a7 7 0 0 0 -5.63-2.84z" fill="#343635"/><path d="m391.23 344.46a3.51 3.51 0 0 1 -3.08-1.85l-33.34-62.05a3.48 3.48 0 0 1 0-3.3l33.81-63.26a3.51 3.51 0 0 1 3.09-1.85 3.5 3.5 0 0 1 3.09 1.85l33.35 62.94a3.53 3.53 0 0 1 0 3.31l-33.82 62.39a3.5 3.5 0 0 1 -3.07 1.84z" fill="#ebebeb"/><path d="m391.71 215.62 33.34 62.94-33.81 62.44-33.35-62 33.82-63.29m0-7a7 7 0 0 0 -6.18 3.7l-33.81 63.29a7 7 0 0 0 0 6.61l33.35 62a7 7 0 0 0 6.15 3.69 7 7 0 0 0 6.15-3.67l33.82-62.4a7 7 0 0 0 0-6.61l-33.35-62.94a7 7 0 0 0 -6.17-3.72z" fill="#343635"/><path d="m453.88 307.83a3.5 3.5 0 0 1 -2.82-1.43l-19-25.82a3.5 3.5 0 0 1 0-4.15l19.23-26a3.46 3.46 0 0 1 2.81-1.42 3.49 3.49 0 0 1 2.82 1.43l19 25.82a3.48 3.48 0 0 1 0 4.15l-19.22 26a3.52 3.52 0 0 1 -2.82 1.42z" fill="#ebebeb"/><path d="m454.15 252.49 19 25.82-19.23 26-19-25.82zm0-7a7 7 0 0 0 -5.63 2.84l-19.23 26a7 7 0 0 0 0 8.3l19 25.82a7 7 0 0 0 5.63 2.86 7 7 0 0 0 5.63-2.84l19.23-26a7 7 0 0 0 0-8.3l-19-25.83a7 7 0 0 0 -5.63-2.85z" fill="#343635"/></svg>