<?xml version="1.0" encoding="utf-8"?>
<!-- Generator: Adobe Illustrator 24.0.2, SVG Export Plug-In . SVG Version: 6.00 Build 0)  -->
<svg version="1.1" id="Capa_1" xmlns="http://www.w3.org/2000/svg" xmlns:xlink="http://www.w3.org/1999/xlink" x="0px" y="0px"
	 viewBox="0 0 566.9 566.9" style="enable-background:new 0 0 566.9 566.9;" xml:space="preserve">
<style type="text/css">
	.st0{fill:#D93831;}
	.st1{fill:#0B0D08;}
	.st2{fill:#FFFFFF;}
	.st3{enable-background:new    ;}
	.st4{fill:#FFDD00;}
	.st5{fill:#F5333F;}
	.st6{font-family:'KozGoPr6N-Regular-90ms-RKSJ-H';}
	.st7{font-size:41.8031px;}
	.st8{fill:none;stroke:#F5333F;stroke-width:0.7524;stroke-miterlimit:10.0319;}
	.st9{font-size:41.5072px;}
	.st10{fill:none;stroke:#F5333F;stroke-width:0.7471;stroke-miterlimit:9.9609;}
</style>
<title>LEI GONG</title>
<path class="st0" d="M284.6,563.2c-150.9,2-282.3-125.1-278.8-286C9,131.1,131,1.2,292.6,4.9C438,8.2,568.2,130.1,564.1,292.4
	C560.3,439.5,438,564.9,284.6,563.2z"/>
<path class="st1" d="M482.3,403.6c0.6-2.5,1.9-4.7,3.7-6.4C486,400.1,485.2,402.5,482.3,403.6z"/>
<path class="st1" d="M478.4,409.8c0.8-2.4,2.1-4.5,4-6.2C482.1,406.3,481.6,408.9,478.4,409.8z"/>
<path class="st1" d="M476,413.6c0.3-1.6,1.2-3,2.5-3.9C478.9,411.8,478.1,413.1,476,413.6z"/>
<path class="st1" d="M473.5,417.3c0.3-1.6,1.2-2.9,2.5-3.9C476.4,415.5,475.6,416.9,473.5,417.3z"/>
<path class="st2" d="M301.7,488.9c-47.5,4.2-91.5-5.9-131.7-31.7c-1.2-0.8-1.9,0-2.5,0.9c-1,2.3-0.3,4.6,0.3,6.8
	c2.1,7.2,4,14.5,5.7,21.8c0.6,2.4,1.7,4.8,0.2,7.3c-1.7,1.7-4.1,1.9-6.2,2.6c-7.6,2.1-15.4,4-22.9,6.4c-2.3,0.7-5.1,1-5.3,4.4
	c2.2,1.2,4.4,2.4,6.5,3.7c43.4,25.1,89.9,38.4,140.3,37.7c11.4,0.1,22.4-0.2,33.6-2.5l2.1-0.2l1.3-0.3c2.5-0.3,8.3-1.6,12.8-2.5
	c32-6.5,61.6-19,89.4-35.8c-0.2-3.3-3-3.6-5.3-4.3c-7.7-2.4-15.6-4.3-23.3-6.5c-2.3-0.7-5-0.8-6.9-4.3c1.5-7.3,3.6-15.3,5.7-23.2
	c1-3.5,2.7-7,1.4-10.9c-0.6-0.9-1.3-1.6-2.5-0.8c-24.7,15.9-51.5,26.3-80.7,30.3L301.7,488.9z"/>
<path class="st2" d="M48.7,311.8L73,270c0.5-8.6,1.6-17.1,3.2-25.5l-29,30.5c-0.1,2.9-0.2,5.7-0.2,8.6C47,293,47.6,302.4,48.7,311.8
	z"/>
<path class="st2" d="M104.4,394.8l-0.9,41.5c18,21.1,39.6,38.8,63.8,52.4l-10.1-36.8C136.1,436.3,118.3,416.9,104.4,394.8z"/>
<path class="st2" d="M78.4,333.1l-12.8,42.2c7.8,18.4,17.9,35.7,30.1,51.5l1-45.3C88.6,366.1,82.5,349.9,78.4,333.1z"/>
<path class="st2" d="M72.6,286.6l-22,37.9c2.3,13.2,5.8,26.1,10.3,38.7l14.2-46.7C73.5,306.6,72.7,296.6,72.6,286.6z"/>
<path class="st2" d="M40,283.6c0-3.1,0.1-6.2,0.2-9.3l-22.6-23.5c-1.3,10.9-2,21.8-2,32.7c0,5.6,0.2,11.2,0.5,16.7l26,15.4
	C40.7,305.1,40,294.4,40,283.6z"/>
<path class="st2" d="M58.5,376.8l-28.7-7.1c7.5,21.9,17.8,42.7,30.6,61.9l30.4,0.5C77.6,415.2,66.8,396.6,58.5,376.8z"/>
<path class="st2" d="M110.9,454.8c-4.7-4.7-9.2-9.6-13.5-14.6l-31.3-0.5c17.4,24.1,38.7,45.1,63.1,62.2l31-9
	C142.2,482.4,125.6,469.6,110.9,454.8z"/>
<path class="st2" d="M43.7,326l-26.8-15.9c1.7,17.2,5.1,34.2,10.1,50.7l28,6.9C50,354.2,46.2,340.2,43.7,326z"/>
<path class="st2" d="M94.9,105.9c0,0-13.7,9.2-16,11.4s-46.8,44.4-60,122.8l10.7,10.8C33.3,212.6,52.3,152.2,94.9,105.9z"/>
<path class="st2" d="M50.2,259.4c0.2-28.6,21.8-99.7,59.7-138.5C80.3,133.8,39,214.3,38.6,260.1l5.7,5.8L50.2,259.4z"/>
<path class="st2" d="M123.5,139.6c-5.1-0.2-44.6,33.1-57.6,102.8l14.9-16.2C81.8,218.5,81.5,198.1,123.5,139.6z"/>
<path class="st2" d="M517.2,309.1l-24.3-41.8c-0.6-8.6-1.6-17.1-3.2-25.5l29,30.6c0.1,2.9,0.2,5.7,0.2,8.6
	C518.8,290.4,518.3,299.7,517.2,309.1z"/>
<path class="st2" d="M461.5,392.1l0.9,41.5c-18,21.1-39.6,38.8-63.8,52.4l10.1-36.8C429.7,433.6,447.6,414.3,461.5,392.1z"/>
<path class="st2" d="M487.5,330.4l12.8,42.1c-7.8,18.4-17.9,35.6-30.1,51.4l-1-45.3C477.2,363.4,483.4,347.2,487.5,330.4z"/>
<path class="st2" d="M493.3,283.9l22,37.9c-2.3,13.2-5.8,26.1-10.3,38.7l-14.2-46.7C492.3,303.9,493.2,293.9,493.3,283.9z"/>
<path class="st2" d="M525.8,281c0-3.1-0.1-6.2-0.2-9.3l22.6-23.5c1.3,10.9,2,21.8,2,32.7c0,5.6-0.2,11.2-0.5,16.7l-26,15.4
	C525.1,302.5,525.8,291.7,525.8,281z"/>
<path class="st2" d="M507.3,374.2l28.7-7.1c-7.5,21.9-17.7,42.7-30.6,61.9l-30.4,0.5C488.2,412.6,499.1,394,507.3,374.2z"/>
<path class="st2" d="M455,452.1c4.7-4.7,9.2-9.6,13.5-14.6l31.3-0.5c-17.4,24.1-38.7,45.1-63.1,62.2l-31-9
	C423.7,479.7,440.3,466.9,455,452.1z"/>
<path class="st2" d="M522.2,323.3l26.8-15.9c-1.7,17.2-5,34.2-10,50.7l-28,6.9C515.9,351.5,519.7,337.5,522.2,323.3z"/>
<path class="st2" d="M471,103.3c0,0,13.7,9.2,16,11.4s46.8,44.4,60,122.8l-10.7,10.8C532.6,209.9,513.6,149.5,471,103.3z"/>
<path class="st2" d="M515.6,256.7c-0.2-28.6-21.8-99.7-59.7-138.5c29.6,12.9,70.9,93.4,71.3,139.2l-5.7,5.8L515.6,256.7z"/>
<path class="st2" d="M442.4,136.9c5.1-0.2,44.6,33.1,57.6,102.8l-14.9-16.2C484,215.8,484.3,195.4,442.4,136.9z"/>
<g class="st3">
	<path class="st2" d="M149.8,68.3l4.5-2.6l13.5,23.7l14.7-8.3l3.1,5.5l-19.2,10.8L149.8,68.3z"/>
</g>
<g class="st3">
	<path class="st2" d="M165.9,99.4l-18-31.7l7-3.9l13.5,23.7l14.7-8.3l4.5,8L165.9,99.4z M151.7,68.8l15.2,26.8l16.8-9.4l-1.7-3
		l-14.7,8.3l-13.5-23.7L151.7,68.8z"/>
</g>
<g class="st3">
	<path class="st2" d="M181.1,51.7l21.4-8.3l2.1,5.4l-16.5,6.4l2.7,7l9.6-3.7l2.1,5.4l-9.6,3.7l3,7.8l16.7-6.5l2.3,5.9l-21.6,8.4
		L181.1,51.7z M187.8,33.4l4.4-1.7l-1.9,12.6l-2.6,1L187.8,33.4z"/>
</g>
<g class="st3">
	<path class="st2" d="M192.5,85l-13.2-34.1l24-9.3l3.1,8L189.9,56l1.7,4.4l9.6-3.7l3.1,8l-9.6,3.7l2,5.2l16.7-6.5l3.3,8.6L192.5,85z
		 M183,52.5l11.1,28.8l19-7.3l-1.3-3.3L195,77.2l-4-10.4l9.6-3.7l-1.1-2.7L190,64l-3.7-9.7l16.5-6.4l-1.1-2.7L183,52.5z M186.3,47.3
		l0.1-14.9l7.5-2.9l-2.3,15.8L186.3,47.3z M189.2,34.3l-0.1,8.1l1.3-8.5L189.2,34.3z"/>
</g>
<g class="st3">
	<path class="st2" d="M217,39.5l5.1-1.3l8.3,32.6l-5.1,1.3L217,39.5z"/>
</g>
<g class="st3">
	<path class="st2" d="M224.3,73.8l-9-35.3l7.8-2l9,35.3L224.3,73.8z M218.7,40.5l7.6,29.9l2.3-0.6l-7.6-29.9L218.7,40.5z"/>
</g>
<g class="st3">
	<path class="st2" d="M264.3,37.4l0.7,21.4l16.3-0.7l-0.3-7.5l-8.5,0.3l-0.2-5.8l13.6-0.5l0.4,11.6c0.1,1.6,0,2.9-0.2,3.9
		c-0.2,1.1-0.4,1.9-0.9,2.5c-0.4,0.6-1,1-1.7,1.3c-0.7,0.3-1.6,0.4-2.6,0.5l-15.5,0.6c-1,0-1.9,0-2.6-0.3c-0.7-0.2-1.3-0.6-1.8-1.2
		c-0.5-0.6-0.8-1.4-1-2.4c-0.2-1-0.4-2.3-0.4-3.9l-0.6-17.8c-0.1-1.6,0-2.9,0.2-3.9c0.2-1.1,0.4-1.9,0.9-2.5c0.4-0.6,1-1,1.7-1.3
		c0.7-0.3,1.6-0.4,2.6-0.5l15.5-0.6c1,0,1.9,0,2.6,0.2c0.7,0.2,1.3,0.6,1.8,1.1c0.5,0.6,0.8,1.3,1,2.3c0.2,1,0.4,2.2,0.4,3.7l0,0.8
		l-5.1,1.6l-0.1-3.8L264.3,37.4z"/>
</g>
<g class="st3">
	<path class="st2" d="M265.1,66.5c-1,0-1.8-0.1-2.5-0.3c-1-0.3-1.8-0.8-2.5-1.6c-0.6-0.8-1-1.7-1.3-3c-0.2-1.1-0.4-2.5-0.4-4.2
		l-0.6-17.8c-0.1-1.6,0-3.1,0.2-4.2c0.2-1.3,0.5-2.3,1.1-3.1c0.6-0.8,1.4-1.5,2.3-1.8c0.8-0.3,1.9-0.5,3.1-0.6l15.5-0.6
		c1.2,0,2.2,0,3,0.3c1,0.3,1.9,0.8,2.5,1.6c0.6,0.7,1,1.7,1.3,2.9c0.3,1.1,0.4,2.4,0.5,4l0.1,1.9l-7.9,2.5l-0.1-4.2l-13.5,0.5
		l0.6,18.5l13.5-0.5l-0.2-4.7l-8.5,0.3l-0.3-8.6l16.5-0.7l0.4,13.1c0.1,1.6,0,3.1-0.2,4.2c-0.2,1.3-0.5,2.3-1.1,3.1
		c-0.6,0.8-1.4,1.5-2.3,1.8c-0.9,0.3-1.9,0.5-3.1,0.6l-15.5,0.6C265.5,66.5,265.3,66.5,265.1,66.5z M280.5,32.2c-0.2,0-0.3,0-0.5,0
		l-15.5,0.6c-0.9,0-1.6,0.2-2.2,0.4c-0.4,0.2-0.8,0.4-1,0.8c-0.3,0.4-0.5,1.1-0.6,1.9c-0.1,1-0.2,2.2-0.1,3.7l0.6,17.8
		c0,1.5,0.2,2.7,0.4,3.7c0.2,0.8,0.4,1.4,0.7,1.8c0.3,0.3,0.6,0.6,1.1,0.7c0.6,0.2,1.3,0.2,2.2,0.2l15.5-0.6c0.9,0,1.6-0.2,2.2-0.4
		c0.4-0.2,0.8-0.4,1-0.8c0.3-0.4,0.5-1.1,0.6-1.9c0.1-1,0.2-2.2,0.1-3.7l-0.3-10.2l-10.8,0.4l0.1,2.9l8.5-0.3l0.3,10.3l-19.2,0.8
		l-0.8-24.2l19.2-0.8l0.1,3.4l2.2-0.7c-0.1-1.3-0.2-2.4-0.4-3.2c-0.2-0.8-0.4-1.4-0.8-1.8c-0.3-0.3-0.6-0.5-1-0.7
		C281.8,32.2,281.2,32.2,280.5,32.2z"/>
</g>
<g class="st3">
	<path class="st2" d="M302.1,35.7c0.3-1,0.8-1.8,1.3-2.3c0.5-0.5,1.1-0.8,1.9-1c0.7-0.1,1.6-0.1,2.7,0l16.4,2.3
		c1,0.1,1.9,0.4,2.6,0.7c0.7,0.3,1.2,0.8,1.5,1.5c0.3,0.6,0.5,1.5,0.6,2.5c0,1.1,0,2.4-0.3,3.9l-2.5,17.5c-0.2,1.5-0.5,2.8-0.8,3.8
		s-0.8,1.8-1.3,2.3c-0.5,0.5-1.1,0.8-1.9,1c-0.7,0.1-1.6,0.1-2.7,0l-16.4-2.3c-1-0.1-1.9-0.4-2.6-0.7c-0.7-0.3-1.2-0.8-1.5-1.5
		c-0.3-0.6-0.5-1.5-0.6-2.5c0-1.1,0-2.4,0.3-3.9l2.5-17.5C301.5,38,301.8,36.7,302.1,35.7z M320.9,61.8l3-21.1l-17.1-2.4l-3,21.1
		L320.9,61.8z"/>
</g>
<g class="st3">
	<path class="st2" d="M321.1,69.5c-0.5,0-1.1,0-1.7-0.1L303,67.1c-1.2-0.2-2.2-0.5-3-0.9c-0.9-0.5-1.7-1.2-2.1-2.1
		c-0.5-0.8-0.7-1.9-0.8-3.2c0-1.1,0-2.5,0.3-4.2l2.5-17.5c0.2-1.6,0.5-3,0.9-4.1c0.4-1.2,0.9-2.2,1.6-2.8c0.7-0.7,1.6-1.2,2.6-1.4
		c0.9-0.2,1.9-0.2,3.1,0l16.4,2.3c1.2,0.2,2.2,0.5,3,0.9c0.9,0.5,1.7,1.2,2.1,2.1c0.5,0.8,0.7,1.9,0.8,3.2c0,1.1-0.1,2.5-0.3,4.2
		l-2.5,17.5c-0.2,1.6-0.5,3-0.9,4.1c-0.4,1.2-0.9,2.2-1.6,2.8c-0.7,0.7-1.6,1.2-2.6,1.4C322.1,69.5,321.6,69.5,321.1,69.5z
		 M306.5,33.7c-0.3,0-0.6,0-0.9,0.1c-0.4,0.1-0.8,0.3-1.1,0.6c-0.4,0.4-0.7,0.9-0.9,1.7c-0.3,0.9-0.6,2.1-0.8,3.6l-2.5,17.5
		c-0.2,1.5-0.3,2.7-0.3,3.7c0,0.8,0.2,1.5,0.4,1.9c0.2,0.4,0.5,0.7,0.9,0.9c0.5,0.3,1.2,0.5,2.1,0.6l16.4,2.3c0.9,0.1,1.6,0.1,2.2,0
		c0.5-0.1,0.8-0.3,1.1-0.6c0.4-0.4,0.7-1,0.9-1.7c0.3-0.9,0.6-2.1,0.8-3.6l2.5-17.5c0.2-1.5,0.3-2.7,0.3-3.7c0-0.8-0.2-1.5-0.4-1.9
		c-0.2-0.4-0.5-0.7-0.9-0.9c-0.5-0.3-1.2-0.5-2.1-0.6l-16.4-2.3C307.3,33.7,306.9,33.7,306.5,33.7z M322.1,63.4l-19.9-2.8l3.4-23.9
		l19.9,2.8L322.1,63.4z M305.4,58.2l14.3,2l2.6-18.3l-14.3-2L305.4,58.2z"/>
</g>
<g class="st3">
	<path class="st2" d="M346.8,39.6l3.4,1.1l8.8,23.7c0.3,0.7,0.5,1.4,0.7,2.1s0.4,1.4,0.6,2.2c0.4-1.3,0.7-2.5,1-3.4
		c0.3-0.9,0.5-1.7,0.6-2.2l5.5-16.8l4.5,1.5l-10.6,31.9l-3.4-1.1l-9.2-24.9c-0.2-0.5-0.3-1-0.5-1.5c-0.2-0.5-0.3-1.1-0.4-1.7
		c-0.3,1.3-0.6,2.3-0.9,3.2c-0.3,0.9-0.5,1.5-0.6,2l-5.7,17.3l-4.5-1.5L346.8,39.6z"/>
</g>
<g class="st3">
	<path class="st2" d="M362.3,81.5l-5.4-1.8L348,55.5c-0.1,0.2-0.1,0.4-0.2,0.6l-6.2,18.6l-7.2-2.3l11.5-34.6l5.4,1.8l9,24.1
		c0.1-0.4,0.2-0.8,0.3-1l6-18.1l7.2,2.3L362.3,81.5z M359.1,77.4l1.4,0.5l9.7-29.2l-1.8-0.6l-5.1,15.4c-0.2,0.5-0.4,1.2-0.6,2.1
		c-0.3,0.9-0.6,2.1-1,3.4l-1.6,5.5l-1.2-5.6c-0.2-0.7-0.3-1.4-0.5-2.1c-0.2-0.7-0.4-1.3-0.7-2l-8.6-23.1l-1.4-0.5L338,70.6l1.8,0.6
		l5.3-15.9c0.1-0.4,0.3-1.1,0.6-1.9c0.2-0.8,0.5-1.9,0.9-3.1l1.4-5.6l1.3,5.6c0.1,0.6,0.3,1.1,0.4,1.6c0.2,0.5,0.3,1,0.5,1.5
		L359.1,77.4z"/>
</g>
<g class="st3">
	<path class="st2" d="M389.6,62.5l-10.1,18.8l14.4,7.8l3.6-6.6l-7.5-4.1l2.7-5.1l12,6.5l-5.5,10.2c-0.7,1.4-1.4,2.5-2.1,3.3
		c-0.7,0.8-1.3,1.4-2,1.7c-0.7,0.3-1.4,0.4-2.1,0.3c-0.7-0.1-1.6-0.4-2.5-0.9l-13.6-7.4c-0.9-0.5-1.6-1-2.2-1.6
		c-0.5-0.6-0.8-1.2-0.9-1.9c-0.1-0.7,0-1.6,0.3-2.6c0.3-1,0.9-2.2,1.6-3.6l8.4-15.6c0.7-1.4,1.4-2.5,2.1-3.3c0.7-0.8,1.3-1.4,2-1.7
		c0.7-0.3,1.4-0.4,2.1-0.3c0.7,0.1,1.6,0.4,2.5,0.9l13.6,7.4c0.9,0.5,1.6,1,2.1,1.5c0.5,0.5,0.8,1.2,0.9,1.9c0.1,0.7,0,1.6-0.3,2.5
		c-0.3,1-0.8,2.1-1.5,3.5l-0.4,0.7l-5.1-1.2l1.8-3.3L389.6,62.5z"/>
</g>
<g class="st3">
	<path class="st2" d="M393.6,96.9c-0.3,0-0.6,0-0.9-0.1c-0.9-0.2-1.9-0.5-2.9-1.1l-13.6-7.4c-1.1-0.6-1.9-1.2-2.5-1.9
		c-0.7-0.8-1.1-1.7-1.3-2.7c-0.1-0.9,0-2,0.4-3.2c0.4-1.1,0.9-2.4,1.7-3.8l8.4-15.6c0.8-1.4,1.5-2.6,2.2-3.5c0.8-1,1.6-1.7,2.5-2.1
		c0.9-0.4,1.9-0.6,2.9-0.4c0.9,0.2,1.9,0.5,2.9,1.1l13.6,7.4c1,0.6,1.8,1.2,2.5,1.8c0.7,0.8,1.2,1.7,1.3,2.7c0.1,0.9,0,2-0.3,3.1
		c-0.3,1.1-0.9,2.3-1.6,3.7l-0.9,1.7l-8-1.9l2-3.7l-11.9-6.5l-8.8,16.3l11.9,6.5l2.2-4.1L388,79l4.1-7.6l14.5,7.9l-6.2,11.5
		c-0.8,1.4-1.5,2.6-2.2,3.5c-0.8,1-1.6,1.7-2.5,2.1C395,96.8,394.3,96.9,393.6,96.9z M389.6,57.8c-0.3,0-0.6,0.1-0.9,0.2
		c-0.5,0.2-1,0.7-1.5,1.3c-0.6,0.8-1.3,1.8-2,3.1L376.9,78c-0.7,1.3-1.2,2.4-1.5,3.4c-0.3,0.8-0.4,1.5-0.3,2
		c0.1,0.4,0.2,0.8,0.6,1.2c0.4,0.4,1,0.9,1.8,1.3l13.6,7.4c0.8,0.4,1.5,0.7,2.1,0.8c0.5,0.1,0.9,0,1.3-0.2c0.5-0.2,1-0.7,1.5-1.3
		c0.6-0.8,1.3-1.8,2-3.1l4.8-9l-9.5-5.2l-1.4,2.6l7.5,4.1l-4.9,9.1l-16.9-9.2L389,60.6l16.9,9.2l-1.6,3l2.3,0.6
		c0.6-1.1,1-2.1,1.3-2.9c0.2-0.8,0.3-1.4,0.2-1.9c-0.1-0.4-0.2-0.8-0.6-1.1c-0.4-0.4-1-0.9-1.8-1.3l-13.6-7.4
		c-0.8-0.4-1.5-0.7-2.1-0.8C389.9,57.8,389.7,57.8,389.6,57.8z"/>
</g>
<rect x="315.7" y="16.3" transform="matrix(0.1383 -0.9904 0.9904 0.1383 245.982 338.8946)" class="st2" width="4.2" height="23.5"/>
<polygon class="st4" points="157.4,147 192.8,182.4 238.1,182.4 171.9,300.3 236.2,300.3 168,426.2 301.1,265.2 235.3,265.2 
	301.1,147 "/>
<polygon class="st4" points="273.7,243.1 313,243.1 346.5,182.1 394.8,182.1 428.9,147 326.5,147 "/>
<text transform="matrix(0.9968 7.974522e-02 -7.974522e-02 0.9968 241.0103 530.9803)" class="st5 st6 st7">雷</text>
<text transform="matrix(0.9968 7.974522e-02 -7.974522e-02 0.9968 241.0103 530.9803)" class="st8 st6 st7">雷</text>
<text transform="matrix(0.9939 -0.1104 0.1104 0.9939 288.6603 534.0602)" class="st5 st6 st9">神</text>
<text transform="matrix(0.9939 -0.1104 0.1104 0.9939 288.6603 534.0602)" class="st10 st6 st9">神</text>
<polygon class="st2" points="428.9,257 450.1,250.4 436.3,267.8 449,286 428.2,278.1 414.9,295.9 415.9,273.7 394.9,266.5 
	416.3,260.6 416.7,238.4 "/>
<polygon class="st2" points="415.3,356.9 446.4,373.4 411.5,377.3 405.4,411.9 390.9,379.9 356.1,384.9 382,361.1 366.6,329.6 
	397.1,346.9 422.4,322.5 "/>
<polygon class="st2" points="330.2,421.1 336.7,442.4 319.3,428.5 301.2,441.3 309,420.5 291.2,407.2 313.4,408.2 320.6,387.2 
	326.5,408.6 348.7,408.9 "/>
</svg>
