<svg id="Capa_1" data-name="Capa 1" xmlns="http://www.w3.org/2000/svg" viewBox="0 0 566.93 566.93"><defs><style>.cls-1{fill:#fdca2c;}.cls-2{fill:#b31d1d;}.cls-3{fill:#fff;}.cls-4{fill:none;stroke:#b31d1d;stroke-miterlimit:10;stroke-width:0.25px;}.cls-5{fill:#e9921a;}</style></defs><path d="M283.46,564.1C128.72,564.1,2.83,438.21,2.83,283.47S128.72,2.83,283.46,2.83s280.63,125.9,280.63,280.64S438.2,564.1,283.46,564.1"/><path d="M282.58,27.18c141.39,0,256,114.63,256,256s-114.62,256-256,256-256-114.62-256-256,114.62-256,256-256"/><path class="cls-1" d="M282.24,19.57c145.75,0,263.91,118.22,263.91,264.07S428,547.7,282.24,547.7,18.32,429.48,18.32,283.64,136.48,19.57,282.24,19.57"/><path class="cls-2" d="M282.24,48.18c130.09.19,235.39,105.8,235.2,235.89A235.56,235.56,0,0,1,373.81,500.6c-119.93,50.31-257.95-6.14-308.26-126.06C15.4,255,71.33,117.36,190.67,66.67a233.8,233.8,0,0,1,91.57-18.49m0-28.61C136.49,19.57,18.32,137.8,18.32,283.64S136.49,547.7,282.24,547.7,546.15,429.47,546.15,283.64,428,19.57,282.24,19.57"/><path d="M282.24,550.17a266.56,266.56,0,0,1-188.35-455A266.45,266.45,0,0,1,470.59,472.1a264.51,264.51,0,0,1-188.35,78.07m0-528.14C138.07,22,20.79,139.39,20.79,283.63s117.28,261.6,261.45,261.6,261.44-117.34,261.44-261.6S426.39,22,282.24,22m.48,499.5a238,238,0,0,1-93-457.12,234.75,234.75,0,0,1,92.07-18.7h.47a237.91,237.91,0,0,1,.48,475.81m-1-470.88A230,230,0,0,0,191.63,69C73.88,119,18.34,255.61,67.83,373.58,105.21,462.71,191.91,516.46,283,516.46a232.07,232.07,0,0,0,232-232.4c.19-128.51-104.22-233.23-232.74-233.41Z"/><path class="cls-2" d="M60.37,403.14l4.5-17.65,21.72,9.87,4.28-8.77,2.19-8.77L91.19,371,85,356.76l6.29-13.3s2.63-2.64,2.77-3.36-6.42-8-6.42-8l1.6-6.29L109.67,332s18.28,5.54,18.75,6,6.72,4.83,6.9,6.29,1.76,8.77,1.9,9.2.3,8.89.3,10.68V376.5c0,1.76,4.09,20.47,4.09,20.47l17.84,40.93,30.11,21.79L230,475.33l65.77,5.77L330.33,472,257.38,456.1l-9.07-2.49,86.55-24.67s66.8-42.54,67.55-42.84,26.46-16.23,25.72-16.37-27.93,5.71-27.93,5.71l9.81-12,21.19-55.27L426,285.37l-27.78-36.26-64.66,7L310.4,289.65l-9.65,29L285,324.45,263,315.68l-7-11.11,1.32-18.43,23.53-13.44-25.73-52.92L221.3,218.6l-30.78,11.11s-8.77-5.56-8.77-6.43-5.23-15-5.23-15l8.19-13.64-12.28,7.9-3.79-10.86,10.22-13.15L208.62,160l10.85-23.52L261.28,123l24.86-4.93,52.31-34.2L344,101.09l87.13,6.72,42.7,21.06,52,95.91-4.09,129.27-31.59,56.72-81.28,93L269.17,537.06,151,499.05s-47.94-40.36-49.12-43.87-33.33-42.1-33.33-42.1Z"/><path d="M391.55,155.11c15.56-5.6,65.46-28.73,63.37-34.43s-28.51-27.12-25.15-23.32c-28.07-4.53-74.56-.8-78.35-1-.44-7.16-4.94-16.78-6.91-20.18C305.91,102.83,286,111.43,273.89,113c-61.39,9.06-70.32,38.49-70.65,45-22.91,11.29-39.69,34-41.89,37.5.78,2.08,5.59,8.55,7.89,10.42s6.37,14.91,11.2,20.61,9.09,6.69,11.06,6.15c19.64,29.6,31.91,34.64,41.68,39-3.41-5.26-7.25-36.52-6-48.36,14.48,1.43,25.66,9.43,33.33,15.36s19,32.89,13.16,35.85c-7.12,4.82-26.64-4.93-29.6-6.8.77,9.22,4.38,19.62,7,22.26s2.86,4.06,2.42,6.9c1.21,38.27,50.12,32.47,59.75,27.64C300.94,277.22,365,254.85,383,254.85s38.6,13.6,40.79,55.26S383,386.43,383,386.43l21-7.52C324.59,440,234.78,451.19,234.78,451.19s17.5,17.4,85,22.07c-186.59,24.62-180-99.29-179.24-117.61S122.14,332.31,114.79,331c-24.89-18.76-35.2-.88-37.95,3,6.91.76,8.89,2.31,14.37,5.59-17.76,15.24-1.43,37.39-1.43,37.39s-.24.69-1.64,10.08c-1.38,14.41-19.19-6.79-24.66-16.56s-4.94-11.84-2.06.37c9.4,24.75,7.54,25.41,26.17,29.9,3.3-4.39,8.35-15.42,9.5-27.7-14.8-13.59-3.79-26-.14-31,.3,1.31,3.36,2.78,4.83.74,1.9-3.66-4-8.89-10.53-13.6,12.13-1.16,15.64,3.8,21.21,7.75,18.27-3.37,22.21,17.11,22.21,17.11s-15.79,90.05,74.56,118.7,141-7.31,141-7.31-56.47-2-93-11.1c95.9-11.4,186-95.58,186-95.58s-10.23,3.51-32.16,12C470.42,280.33,402,245.25,402,245.25l14.62-3a306.42,306.42,0,0,0-24.86-20.16c-3.79-37.73-34.64-55.26-43-60.83,19.3,16.09,25.17,47.37,26.43,53.11s-.66,5.7-3.62,6-14.58,1.87-19.3,3.84c2.85,0,20.28,7.78,27.31,10.53,5.59,2.4-.23,4-4.72,4.49-18.42,2-42.32,13.82-50.43,18.43s-14.7-5.16-18.4-7.36c9.87,14.15,5.57,25.88,2.5,29.73-6.8,9-14.7,22.25-14,31s-3.29,9.54-7.79,8.56A123.93,123.93,0,0,1,265,311.56c-5.79-2.75-5.79-10-5.79-13.95s10-2.84,15.66-6.45c28-17.88-2.95-55.34-6.65-60.2s.58-5.13,2.06-4.75,6.57,1.57,14.8,4.36c-13-11.42-22.37-17-41.66-20.62s-41.23,11.32-48.18,14.8-9.86-3.07-12.75-8.89.79-13.11.79-13.11l7.32-15s-7.89,6.18-11.22,8.73-4.79.16-6.76-2.66-1.46-4.79,4.09-9.73,19.48-9.24,22.7-9.68c-.85-.57-2.63-2.23,1.82-6.44s13.05-1.72,18.83.59c-1-1.21-6.9-9.79-6.9-9.79-1.32-3.84-.33-7,8.77-16.23,12.35-12.58,39.36-10.86,43.31-11.74,28.28-5.91,67.53-35.52,72.36-39.35-.33,24.33-16.56,40.23-22.92,46.59,27.42-6,38.71-25.65,38.71-25.65s10.75.44,17.21.11c6.26,6.46-12.17,26.2-17.21,31.69,31-4.28,48.25-29.06,48.25-29.06h18.2c5.48,9.38-19.19,32.51-28.29,40"/><path d="M304,241.59s17.84-28.51,22.23-32c.29-9.5,1.31-41.67-6.57-58.34,10.08,15.51,22.44,30.71,20,65.36-9.25,6.28-28.81,18.85-35.69,25"/><path d="M288.84,212.2l10.39-28.95-1.91-28.51s10.38,20,10.85,32.47c-4.71,5.4-17.72,19.73-19.33,25"/><path d="M199.22,216.08s11.63-9.24,18.75-10.7c-2.07,2.07-12.88,8.67-18.75,10.7"/><path d="M192.6,208.29s28.12-20.15,47.78-19.55a43.25,43.25,0,0,1,6.43.36c2.05.24,6,3.44,0,3.36s-36.11,4.75-54.21,15.83"/><path d="M222.53,168.6s5.64-13.82,19.84-14.48,26.65-2.24,40.47-12.72c-1.66,5.15-1.6,25-26.93,37.18,2.14-3.51,3.35-6.14,3.63-8.67s.32-5.59-3.14-2.68-23.23,14.8-33.87,1.37"/><path class="cls-3" d="M197,229.7l24-5.55s-3.79,21,6.74,39.77C221.54,259.53,209,250.47,197,229.7"/><path class="cls-3" d="M229.82,164.9s.65-1.31,6.07-2,9.5-2.56,10.74-2.42,2.19,1.32-1.39,4.39-10.21,7-15.42,0"/><path class="cls-3" d="M257.12,289.59s-6.9-7.63-9-16.19c4.83,2,12.83,6,14.16,6,2.34-.06,6.21,1.4,3.58,4.4s-6.88,5.44-8.79,5.8"/><polygon class="cls-2" points="64.63 259.54 65.43 254.31 92.86 258.5 95.44 241.6 101.79 242.57 98.41 264.7 64.63 259.54"/><rect class="cls-2" x="85.8" y="210.74" width="5.3" height="34.18" transform="translate(-154.98 249.53) rotate(-73.88)"/><path class="cls-2" d="M81.21,197.31l2.08-4.68,36.53,1.93L117.41,200l-8-.54-5.86,13.19,5.76,5.46L107.2,223ZM102.93,199l-14.7-1.17L98.88,208.1Z"/><path class="cls-2" d="M95.06,169.63l2.07-3L122.81,165a25.31,25.31,0,0,1,4.53,0c-2.42-1.52-4.09-2.57-5-3.19l-14.73-10.25,2.73-3.91,28,19.52-2.07,3-26.9,1.67a23.76,23.76,0,0,1-3.36,0c2.27,1.37,3.77,2.35,4.58,2.93l15.17,10.55-2.73,3.92Z"/><path class="cls-2" d="M129.26,135.67l15,15.59,11.92-11.42-5.28-5.48-6.24,6-4-4.19,9.94-9.54,8.18,8.49c4.45,4.62,4.61,6.75,1.53,9.71L149,155.64c-3.07,3-5.21,2.72-9.67-1.91l-12.49-13c-4.45-4.62-4.61-6.76-1.53-9.72l11.32-10.84c3-2.87,5.17-2.76,9.44,1.67l.55.58L143.85,127l-2.67-2.77Z"/><polygon class="cls-2" points="171.58 94.46 176.33 92.01 182.85 104.66 187.55 86.22 194.37 82.69 188.33 103.92 211.69 112.21 204.13 116.12 185.11 109.02 192 122.38 187.25 124.83 171.58 94.46"/><path class="cls-2" d="M214.83,75.46l4.92-1.53,22.56,28.65-5.72,1.79-4.82-6.31L217.9,102.4l-.34,7.92-5.08,1.59Zm13,17.39-8.78-11.79-.8,14.79Z"/><polygon class="cls-2" points="243.94 68.21 249.18 67.36 254.65 101.08 249.4 101.92 243.94 68.21"/><polygon class="cls-4" points="64.63 259.54 65.43 254.31 92.86 258.5 95.44 241.6 101.79 242.57 98.41 264.7 64.63 259.54"/><rect class="cls-4" x="85.8" y="210.74" width="5.3" height="34.18" transform="translate(-154.98 249.53) rotate(-73.88)"/><path class="cls-4" d="M81.21,197.31l2.08-4.68,36.53,1.93L117.41,200l-8-.54-5.86,13.19,5.76,5.46L107.2,223ZM102.93,199l-14.7-1.17L98.88,208.1Z"/><path class="cls-4" d="M95.06,169.63l2.07-3L122.81,165a25.31,25.31,0,0,1,4.53,0c-2.42-1.52-4.09-2.57-5-3.19l-14.73-10.25,2.73-3.91,28,19.52-2.07,3-26.9,1.67a23.76,23.76,0,0,1-3.36,0c2.27,1.37,3.77,2.35,4.58,2.93l15.17,10.55-2.73,3.92Z"/><path class="cls-4" d="M129.26,135.67l15,15.59,11.92-11.42-5.28-5.48-6.24,6-4-4.19,9.94-9.54,8.18,8.49c4.45,4.62,4.61,6.75,1.53,9.71L149,155.64c-3.07,3-5.21,2.72-9.67-1.91l-12.49-13c-4.45-4.62-4.61-6.76-1.53-9.72l11.32-10.84c3-2.87,5.17-2.76,9.44,1.67l.55.58L143.85,127l-2.67-2.77Z"/><polygon class="cls-4" points="171.58 94.46 176.33 92.01 182.85 104.66 187.55 86.22 194.37 82.69 188.33 103.92 211.69 112.21 204.13 116.12 185.11 109.02 192 122.38 187.25 124.83 171.58 94.46"/><path class="cls-4" d="M214.83,75.46l4.92-1.53,22.56,28.65-5.72,1.79-4.82-6.31L217.9,102.4l-.34,7.92-5.08,1.59Zm13,17.39-8.78-11.79-.8,14.79Z"/><polygon class="cls-4" points="243.94 68.21 249.18 67.36 254.65 101.08 249.4 101.92 243.94 68.21"/><polygon class="cls-5" points="479.56 141.15 481.86 144.76 469.16 158.2 486.82 152.58 488.39 155.02 475.85 168.72 493.3 162.75 495.27 165.87 469.02 174.41 467.52 172.04 480.5 157.98 462.22 163.71 460.69 161.29 479.56 141.15"/><path class="cls-5" d="M501.8,179.51l1.69,3.65-20,20.52-1.95-4.24L486,195l-4.75-10.24-6.18.57-1.74-3.75Zm-12.17,11.94,8.25-8.06-11.54,1Z"/><path class="cls-5" d="M511,201l.85,2.69-11.26,16.63a21.79,21.79,0,0,1-2.15,2.8c2.08-.76,3.55-1.29,4.33-1.53l13.39-4.22,1.12,3.54-25.49,8-.85-2.7,11.83-17.39a21.86,21.86,0,0,1,1.63-2.06c-1.93.74-3.26,1.2-4,1.43l-13.79,4.34L485.48,209Z"/><path class="cls-5" d="M520.21,233.38l1.94,11.36c1.13,6.59-3.13,10.9-11.31,12.29-4.95.83-9.29.09-12-2-1.86-1.43-2.74-3.76-3.27-6.9l-1.77-10.29Zm-19.81,13c.88,5.19,3.28,7.47,9.82,6.36,5.37-.9,7.9-3.35,7.24-7.21l-1.26-7.28-16.71,2.83Z"/><polygon class="cls-5" points="524.7 265.73 525.42 283.95 520.87 284.13 520.31 270.05 514.35 270.28 514.68 278.5 510.12 278.67 509.79 270.47 503.17 270.72 503.73 284.98 498.71 285.18 497.99 266.77 524.7 265.73"/><path class="cls-5" d="M525.14,295.2l-1.29,15.22c-.24,2.72-1.79,3.87-5.51,3.55l-6.24-.52c-3.72-.31-5.06-1.72-4.83-4.44l.2-2.34L496.71,314l.5-5.92,10.67-6.3.34-3.92L498.15,297l.35-4.05Zm-4.94,3.68-7.44-.63-.79,9.28c-.1,1.29.21,1.9,2,2.05l3.21.27c1.75.14,2.17-.41,2.27-1.67Z"/><polygon class="cls-5" points="521.68 325.7 520.94 329.76 494.56 324.95 495.3 320.88 521.68 325.7"/><path class="cls-5" d="M518.47,341.76l-.79,2.72-18.63,7.63a21.36,21.36,0,0,1-3.36,1.14c2.18.52,3.68.89,4.47,1.12l13.49,3.94-1,3.58-25.67-7.49.78-2.72,19.54-7.94a21.77,21.77,0,0,1,2.51-.81c-2-.45-3.38-.81-4.14-1l-13.87-4.06,1-3.58Z"/><path class="cls-5" d="M502.34,375.25l-15.46-6.92-5.29,11.82,5.43,2.43,2.77-6.17,4.16,1.85-4.43,9.87-8.41-3.77c-4.58-2.05-5.33-3.55-3.95-6.61l5-11.23c1.37-3.06,3-3.49,7.58-1.44l12.85,5.76c4.59,2.06,5.34,3.55,4,6.62l-5,11.22c-1.33,3-2.93,3.53-7.34,1.55l-.56-.25.66-4.13,2.73,1.22Z"/><path class="cls-5" d="M479.59,417.53l-4.68-3.35-6.47,9.05c-1.95,2.72-3.65,2.87-7.73-.06l-3-2.14c-4.08-2.92-4.5-4.58-2.55-7.3l6.41-9c1.95-2.73,3.65-2.88,7.73.05l.6.43-1.2,3.64-2.58-1.84-7.34,10.26,5,3.56,6.47-9.06c1.95-2.73,3.62-2.84,7.72.08l2.4,1.72c4.08,2.93,4.51,4.54,2.57,7.27L477,429.11c-1.84,2.59-3.58,2.88-7.34.2l-.46-.34,1.07-3.73,2.49,1.78Z"/><polygon class="cls-5" points="466.62 442.52 463.72 445.51 456.25 438.32 447.19 447.64 454.66 454.82 451.73 457.83 432.48 439.3 435.41 436.29 443.69 444.27 452.75 434.95 444.47 426.97 447.38 423.98 466.62 442.52"/><path class="cls-5" d="M437.67,470.51l-3.1,2.51-24.79-14.23,3.59-2.93,5.35,3.18,8.7-7.12-2.11-5.84,3.2-2.6Zm-14.57-8.84,9.85,6-3.84-10.92Z"/><path class="cls-5" d="M416.17,486.61,405,493.55c-2.85,1.76-4.44,1.23-7.09-3l-7.45-12c-2.65-4.27-2.43-5.94.42-7.7l11.14-6.94c2.85-1.78,4.44-1.24,7.1,3l7.44,12c2.65,4.27,2.43,5.93-.42,7.7m-22.84-11.35,8.95,14.38,11.62-7.22-9-14.39Z"/><polygon class="cls-5" points="390.45 501.43 386.68 503.16 377.61 483.43 365.46 489.01 363.37 484.44 379.29 477.13 390.45 501.43"/><polygon class="cls-5" points="366.07 511.8 362.17 513.19 353.19 488 357.1 486.62 366.07 511.8"/><path class="cls-5" d="M350.62,517.1l-2.75.67-15.94-12.31a20.93,20.93,0,0,1-2.66-2.33c.62,2.14,1.06,3.63,1.26,4.44l3.35,13.63-3.62.9-6.37-26,2.74-.68,16.66,12.94a18.23,18.23,0,0,1,1.95,1.76c-.62-2-1-3.33-1.16-4.09l-3.46-14,3.62-.89Z"/><path class="cls-5" d="M301.86,526.1l-3.35.11-8.92-15.88-7.69,16.42-3.31.12-.88-26.73,3.83-.12.54,16.51c0,.52,0,1.45,0,2.86a19.44,19.44,0,0,1,.95-2.83L289.24,503l.83,0,7.14,13.18a14.45,14.45,0,0,1,1.16,2.72c-.1-1.09-.17-2-.21-2.84l-.54-16.53,3.36-.11Z"/><path class="cls-5" d="M262.31,525.84l-13-1.45c-3.32-.36-4.23-1.77-3.71-6.76l1.51-14c.54-5,1.74-6.17,5.06-5.8l13,1.44c3.31.38,4.24,1.78,3.7,6.76l-1.5,14c-.54,5-1.74,6.17-5.05,5.8m-11-23-1.8,16.83,13.54,1.5,1.8-16.83Z"/><path class="cls-5" d="M232.65,521.73l-2.75-.7-8.29-18.35a21.49,21.49,0,0,1-1.27-3.31c-.44,2.19-.76,3.71-1,4.52l-3.46,13.61-3.61-.92,6.56-25.92,2.75.7,8.63,19.24a19.25,19.25,0,0,1,.91,2.48c.37-2.06.68-3.42.88-4.18l3.54-14,3.61.92Z"/><polygon class="cls-5" points="200.31 512.55 196.42 511.01 200.58 500.69 187.24 507.36 181.65 505.13 197.33 497.84 190.28 479.82 196.48 482.29 202.02 497.14 206.41 486.25 210.29 487.78 200.31 512.55"/></svg>