<svg enable-background="new 0 0 113.4 113.4" viewBox="0 0 113.4 113.4" xmlns="http://www.w3.org/2000/svg"><circle cx="56.7" cy="56.8" fill="#fff" r="56.2"/><path d="m0 56.6c0-31.3 25.4-56.7 56.8-56.6 31.3 0 56.6 25.5 56.6 56.9 0 31.2-25.5 56.5-56.8 56.5-31.3-.1-56.6-25.5-56.6-56.8zm56.5 56.1c30.9 0 55.9-24.8 56-55.8.1-30.9-24.9-56-55.8-56s-55.9 24.8-56 55.8c-.2 30.9 24.8 56 55.8 56z" fill="#d51015"/><path d="m56.5 112.7c-31 0-55.9-25.1-55.8-56 .1-30.9 25.1-55.8 56-55.8 31 0 55.9 25.1 55.8 56-.1 31-25.1 55.8-56 55.8zm-30.2-98.9c-.1.1-.2.2-.3.3-13.2 9.3-20.5 22.2-21.9 38.2-2.2 25.6 14.1 48.6 39 55.4 24 6.6 49.6-5.2 60.8-27.8s4.6-49.9-15.7-65.3c-17.2-13-46-14.1-59.8-2.2-.1.1-.3.1-.4.2-.6.4-1.1.8-1.7 1.2z" fill="#040000"/><path d="m28.4 12.4c13.7-11.9 42.5-10.8 59.8 2.2 20.3 15.4 26.9 42.6 15.7 65.3-11.2 22.6-36.9 34.4-60.8 27.8-24.9-6.8-41.2-29.8-39-55.4 1.4-16 8.7-28.9 21.9-38.3.2.3.5 1 .5 1 .8-.3 1.6-.5 2.2-1 .2-.2-.2-1.1-.3-1.6zm63.5 14.2c1.5.2 2.8-.2 3-1.8.2-2-1.2-3-3-3.7-.2.3-.4.6-.5.9 1 .6 2.2.9 2.2 2.3 0 .4-.5 1-.7 1-.9-.1-1.8-.4-3-.7.1-.1-.1.2-.3.4.7 1 1.9 2.1.8 3-2.4 2-2.8-.8-3.9-2-.3.2-.6.3-.9.5.9 1.9 1.9 3.7 4.3 3.4 1.8-.1 2.2-1.5 2-3.3 0 .1 0 .1 0 0zm-61.6-4.9c-1.3-1.8-2.6-3.6-4-5.5-.3.2-.6.5-1 .7 1.7 2.6 3.5 5.1 5.2 7.7.5-.3.8-.6 1-.7 0-2.7 0-5.3 0-8 1.3 1.9 2.5 3.6 3.7 5.5.4-.3.7-.5 1.1-.8-1.8-2.6-3.4-5.1-5.2-7.7-.4.3-.8.5-.8.5zm-16.2 22.6c-2-.7-4-1.5-6-2.2-.2.4-.3.8-.5 1.3 3 1.1 5.8 2.1 8.7 3.2.2-.6.3-1 .5-1.4-1.6-2.1-3.2-4.1-4.9-6.3 2.3.8 4.3 1.6 6.4 2.3.2-.5.3-.8.4-1.3-2.9-1.1-5.8-2.1-8.7-3.2-.2.5-.3.9-.4 1.3 1.6 2.1 3.2 4.1 4.7 6.1-.1.1-.1.2-.2.2zm46.2-31.3c-.1 0-.2 0-.3 0 .3-2.1.6-4.2 1-6.4-.5 0-.9-.1-1.3-.1-.5 3.1-.9 6.1-1.3 9.2.6.1 1 .1 1.5.2 1.7-2 3.4-4 5.2-6.1-.4 2.4-.7 4.5-1 6.7.5.1.8.1 1.3.2.5-3.1.9-6.1 1.4-9.2-.5-.1-.9-.1-1.4-.2-1.8 1.8-3.4 3.7-5.1 5.7zm25.7 71.4c15.1-14.8 14.4-41.5-1.5-56.7-16.8-16-42.9-14.8-58.6 2.7-13.4 15-12.8 42.2 1.2 54zm-22.8 3c-.6 2.7.6 5.8-1.9 8.2v2.8h1.3c0-.7.1-1.3.1-1.9h5.5c0 .7.1 1.3.1 1.9h1.2c0-1.1 0-2 0-3.1-.2-.1-.5-.3-.8-.5 0-2.5 0-5 0-7.5-1.9.1-3.7.1-5.5.1zm-13.3 2.2v6.9c.5 0 .8-.1 1.2-.1 0-3 0-6 0-9-.5 0-.9 0-1.4 0-1.4 2.1-2.8 4.2-4.4 6.6 0-2.4 0-4.5 0-6.6-.5 0-.8 0-1.2 0v8.9h1.3c1.3-2 2.7-4.1 4.5-6.7zm-14.8-78.8c1.2 3 2.3 5.8 3.5 8.7.5-.2.9-.4 1.3-.6-.5-1.3-1-2.6-1.5-3.9 1.4-.5 2.6-1 3.9-1.5.6 1.4 1.1 2.6 1.6 3.9.5-.2.8-.4 1.3-.6-1.2-2.9-2.3-5.7-3.4-8.6-.5.2-.9.4-1.3.5.5 1.2.9 2.3 1.4 3.5-1.3.5-2.6 1-3.9 1.5-.5-1.2-1-2.3-1.4-3.5-.6.3-1 .4-1.5.6zm-19.3 38.2c-3.2-.4-6.2-.8-9.3-1.1-.2 2-.4 3.7-.6 5.3 2.8 1.2 6.3-.3 8.2 3 .2 0 .5 0 1.1-.1-1.2-4.5-5.3-2.9-8-4.1.1-.8.2-1.6.4-2.6 2.7.3 5.3.6 8 1 .1-.5.1-.9.2-1.4zm.2-15.5c-1.1-.7-2.1-1.3-3.2-2-.2.4-.4.8-.7 1.2 2.6 1.7 5.2 3.3 7.8 5 .2-.4.5-.8.7-1.2-1.3-.8-2.4-1.6-3.5-2.3.8-1.2 1.5-2.3 2.3-3.5 1.2.8 2.4 1.5 3.6 2.3.3-.4.5-.8.7-1.2-2.7-1.7-5.2-3.3-7.8-5-.3.4-.5.7-.7 1.2 1.1.7 2.1 1.4 3.1 2.1-.8 1.1-1.5 2.1-2.3 3.4zm83.2 7.3c.9 2.9-1.9 3.2-2.9 4.7.1.4.3.8.5 1.3 1.5-1.6 3.8-2.2 3.9-4.8 1.7.7 3.2 1.3 4.9 1.9-.2-.7-.3-1.1-.5-1.6-1.6-.6-3.2-1.2-5-1.9 1.5-.5 2.7-.9 4-1.3-.2-.5-.3-.8-.4-1.3-3 .9-5.9 1.8-8.9 2.8.2.5.3.9.5 1.3 1.3-.3 2.5-.7 3.9-1.1zm-18.5-28.4c-.7-.3-1.1-.5-1.5-.7-1.5.8-3 1.6-4.7 2.5.6-1.5 1.1-2.6 1.7-3.9-.5-.2-.8-.3-1.3-.5-1.3 2.9-2.5 5.7-3.7 8.5.4.2.8.3 1.3.5.6-1.3 1.1-2.5 1.7-3.8 2.7 1.2 1.2 3.5 1.7 5.3.3.1.7.3 1.2.5 0-2.2.9-4.3-1-6 1.4-.8 2.9-1.6 4.6-2.4zm25.9 37.6c-3.2-.8-6.4-1.5-9.7-2.3.1.7.2 1 .3 1.5 1 .2 1.9.5 2.9.7.1 1 .2 2 .2 3-.9.4-1.8.8-2.7 1.2 0 .5.1.9.1 1.5 3.1-1.4 6-2.7 8.9-4 0-.5 0-1 0-1.6zm-71.3 37.2v9.2c.5 0 .9 0 1.3-.1 0-1.2 0-2.3 0-3.5 2.4-.3 6 .6 5.3-3.3-.6-3.9-4.3-1.4-6.6-2.3zm54.9-55.1c.3.5.5.9.7 1.2 1-.2 2-.4 3-.5.5 1 1 1.8 1.5 2.6-.7.8-1.3 1.5-2 2.3.3.4.5.8.8 1.2 2.2-2.6 4.3-5 6.4-7.4-.3-.5-.6-.9-.8-1.3-3.2.7-6.3 1.3-9.6 1.9zm-5.9-6.2c1-3.2 1.9-6.3 2.8-9.4-.5-.3-.9-.6-1.3-.9-2.7 1.9-5.2 3.8-7.9 5.7.5.3.8.6 1.1.8.8-.6 1.6-1.2 2.5-1.8.9.6 1.7 1.2 2.5 1.8-.3 1-.6 2-.8 2.9.3.3.6.5 1.1.9zm-26.2 67.8c.4 1 .7 1.8 1.1 2.8.5 0 .9 0 1.5-.1-1.3-3.1-2.5-6.1-3.6-9-.6 0-1 0-1.5 0-1.1 3-2.2 5.9-3.4 9h1.5c.3-.9.7-1.8 1-2.7zm24.7-6.3c-1.1 3-2.2 5.9-3.4 9h1.5c.3-.9.7-1.8 1-2.7h3.5c.4.9.7 1.9 1.1 2.7h1.5c-1.2-3.1-2.4-6-3.6-9-.6 0-1.1 0-1.6 0zm-48.7 9c-1.3-3.1-2.5-6.1-3.6-9-.6 0-1 0-1.5 0-1.1 3-2.2 5.9-3.4 9h1.5c.4-1 .7-1.9 1-2.7h3.5c.4.9.7 1.9 1.1 2.7zm38.3-5.4c0-1.2 0-2.4 0-3.6-.5 0-.9 0-1.2.1v9c .5 0 .8 0 1.3-.1 0-1.4 0-2.7 0-4h4.4v4h1.3c0-3 0-5.9 0-8.9-.4 0-.8 0-1.3 0v3.5c-1.5 0-2.9 0-4.5 0zm-24.9-74.8c2.4-.3 5.2.2 5.6-2.9.4-3.5-2.3-3.4-4.8-3.3-.1-1.1-.3-2.2-.4-3.3-.5.1-.9.2-1.3.3.3 3.1.6 6 .9 9.2zm-28.5 6.7c2.1 2.3 4.2 4.5 6.1 6.6 1.3-1.2 2.6-2.4 3.9-3.6-.4-.3-.6-.5-1-.8-.9 1-1.7 1.9-2.6 2.8-.8-.8-1.5-1.5-2.2-2.2.8-.9 1.6-1.7 2.5-2.6-.3-.3-.5-.5-.8-.8-.9 1-1.6 1.8-2.4 2.7-.7-.7-1.3-1.3-2-2 .8-.9 1.7-1.7 2.5-2.7-.3-.3-.6-.5-.6-.5-1.3 1.2-2.5 2.3-3.4 3.1zm34.3-16.7c.3 3.1.7 6.1 1 9.3.5-.1.9-.1 1.4-.2-.3-3.2-.7-6.2-1-9.3-.6.1-.9.1-1.4.2zm12-1.1c-.8.3-1.5.5-2 .6-.6-.4-1-.8-1.6-1.2-.1 1.6.6 2 1.6 2.1.9.2 1.6-.1 2-1.5z" fill="#df0408"/><path d="m28.4 12.4c.1.5.5 1.4.3 1.6-.6.5-1.4.8-2.2 1 0 0-.3-.6-.5-1 .1-.1.2-.2.3-.3.3.2.6.3 1.2.6.2-.7.3-1.2.4-1.8.2 0 .4 0 .5-.1z" fill="#fcf2f2"/><path d="m28 12.6c-.1.5-.3 1.1-.4 1.8-.6-.3-.9-.4-1.2-.6.5-.4 1-.8 1.6-1.2z" fill="#d51015"/><path d="m86 84.4c-19.6 0-39.2 0-58.8 0-14-11.8-14.6-39-1.2-54 15.6-17.5 41.8-18.8 58.5-2.7 15.9 15.1 16.6 41.8 1.5 56.7zm-67.3-20.7c1.3 7.2 4.5 13.5 9.2 18.9h18.7 20 18.5c4.7-5.5 7.9-11.8 9.2-18.9 1.5-6.8.7-13.5-1.7-20-4.6-12.4-13.3-20.3-25.9-23.9-6.7-2-13.3-2.1-20-.1-12.7 3.6-21.5 11.5-26.2 24-2.5 6.5-3.3 13.1-1.8 20z" fill="#070100"/><g fill="#fcf2f2"><path d="m63.2 87.4h5.5v7.5c.3.2.6.3.8.5v3.1c-.4 0-.8 0-1.2 0 0-.6-.1-1.2-.1-1.9-1.8 0-3.6 0-5.5 0 0 .6-.1 1.2-.1 1.9-.4 0-.8 0-1.3 0 0-1 0-2 0-2.8 2.5-2.5 1.3-5.5 1.9-8.3zm1.4 1.2c-.3 2.2-.6 4.3-.9 6.5h3.5c0-2.2 0-4.3 0-6.5-.9 0-1.8 0-2.6 0z"/><path d="m60.3 13c1.6-1.9 3.3-3.8 4.9-5.8.5.1.9.1 1.4.2-.5 3.1-.9 6.1-1.4 9.2-.5-.1-.9-.2-1.3-.2.3-2.2.7-4.4 1-6.7-1.8 2.1-3.5 4.1-5.2 6.1-.5-.1-.9-.1-1.5-.2.5-3.1.9-6.1 1.3-9.2.5 0 .8.1 1.3.1-.3 2.2-.7 4.3-1 6.4v.7c.4-.4.5-.5.5-.6z"/><path d="m14.3 44.1c-1.6-2-3.1-4-4.7-6.1.1-.4.3-.8.4-1.3 3 1.1 5.8 2.1 8.8 3.2-.1.4-.3.8-.4 1.3-2.1-.8-4.2-1.5-6.4-2.3 1.7 2.2 3.3 4.2 4.9 6.3-.1.4-.3.8-.5 1.4-2.9-1.1-5.8-2.1-8.7-3.2.2-.5.3-.8.5-1.3 2.1.8 4.1 1.5 6 2.2.1 0 .2.1.5.1-.3-.1-.4-.2-.4-.3z"/><path d="m49.9 89.6c-1.7 2.6-3.1 4.7-4.5 6.8-.4 0-.9 0-1.3 0 0-3 0-5.9 0-8.9h1.2v6.6c1.6-2.4 3-4.5 4.4-6.6h1.4v9c-.4 0-.7.1-1.2.1 0-2.3 0-4.3 0-7z"/><path d="m30.3 21.7c0-2.6 0-5.3 0-8.2.1 0 .4-.3.8-.5 1.7 2.6 3.4 5.1 5.2 7.7-.4.3-.7.5-1.1.8-1.2-1.8-2.4-3.6-3.7-5.5v8c-.2.2-.6.4-1 .7-1.7-2.6-3.4-5.1-5.2-7.7.4-.3.7-.5 1-.7 1.3 1.8 2.7 3.6 4 5.4 0 .1-.1.2 0-.2.1.4 0 .3 0 .2z"/><path d="m35.1 10.8c.5-.2.9-.3 1.3-.5.5 1.2.9 2.3 1.4 3.5 1.3-.5 2.5-1 3.9-1.5-.5-1.2-.9-2.3-1.4-3.5.4-.2.8-.3 1.3-.5 1.2 2.9 2.3 5.7 3.4 8.6-.4.2-.8.4-1.3.6-.5-1.3-1-2.5-1.6-3.9-1.3.5-2.5 1-3.9 1.5.5 1.3 1 2.6 1.5 3.9-.4.2-.8.4-1.3.6-1-3-2.1-5.8-3.3-8.8z"/><path d="m15.8 49c-.1.5-.1.9-.2 1.4-2.7-.3-5.3-.6-8-1-.1.9-.2 1.8-.4 2.6 2.7 1.2 6.8-.4 8 4.1-.6 0-.9.1-1.1.1-2-3.3-5.5-1.8-8.2-3 .2-1.6.4-3.4.6-5.3 3.1.3 6.1.7 9.3 1.1z"/><path d="m16 33.5c.8-1.2 1.5-2.3 2.2-3.5-1-.7-2.1-1.4-3.1-2.1.3-.4.5-.8.7-1.2 2.6 1.7 5.1 3.3 7.8 5-.2.4-.5.8-.7 1.2-1.2-.8-2.4-1.5-3.6-2.3-.7 1.1-1.5 2.3-2.3 3.5 1.2.8 2.3 1.5 3.5 2.3-.2.4-.5.8-.7 1.2-2.6-1.7-5.2-3.3-7.8-5 .2-.4.4-.7.7-1.2 1.2.7 2.2 1.4 3.3 2.1z"/><path d="m99.2 40.8c-1.3.4-2.6.8-3.9 1.2-.1-.4-.3-.8-.5-1.3 3-.9 5.9-1.9 8.9-2.8.2.5.3.8.4 1.3-1.3.4-2.5.8-4 1.3 1.9.7 3.4 1.3 5 1.9.1.5.3.9.5 1.6-1.7-.7-3.2-1.3-4.9-1.9-.1 2.6-2.4 3.2-3.9 4.8-.2-.6-.3-1-.5-1.3.9-1.6 3.8-2 2.9-4.8z"/><path d="m80.7 12.4c-1.7.9-3.2 1.6-4.7 2.4 1.9 1.8 1 3.9 1 6-.5-.2-.9-.3-1.2-.5-.5-1.8 1-4.1-1.7-5.3-.6 1.2-1.1 2.5-1.7 3.8-.4-.2-.8-.3-1.3-.5 1.2-2.8 2.4-5.6 3.7-8.5.4.2.8.3 1.3.5-.5 1.2-1 2.4-1.7 3.9 1.8-.9 3.2-1.7 4.7-2.5.5.2.9.4 1.6.7z"/><path d="m106.6 50v1.6c-2.9 1.3-5.8 2.6-8.9 4 0-.6-.1-1-.1-1.5.9-.4 1.8-.8 2.7-1.2-.1-1-.2-2-.2-3-1-.2-1.9-.5-2.9-.7-.1-.4-.1-.8-.3-1.5 3.3.8 6.4 1.5 9.7 2.3zm-5.4.1c.1.9.1 1.6.2 2.4 1.1-.5 2.1-1 3.4-1.6-1.3-.3-2.4-.6-3.6-.8z"/><path d="m35.3 87.2c2.3.9 6-1.6 6.7 2.4.6 3.9-3 3-5.3 3.3v3.5c-.5 0-.9 0-1.3.1-.1-3.1-.1-6-.1-9.3zm1.4 1.3v3.2c1.4-.4 3.8.8 3.9-1.6 0-2.6-2.5-1-3.9-1.6z"/><path d="m90.2 32.1c3.3-.7 6.4-1.3 9.6-1.9.3.4.5.8.8 1.3-2.1 2.4-4.2 4.9-6.4 7.4-.3-.5-.5-.8-.8-1.2.7-.8 1.3-1.5 2-2.3-.5-.8-1-1.7-1.5-2.6-1 .2-1.9.3-3 .5-.2-.3-.4-.6-.7-1.2zm6 2.5c.8-.9 1.5-1.8 2.5-2.9-1.4.3-2.5.5-3.7.8.4.7.8 1.4 1.2 2.1z"/><path d="m84.3 25.9c-.5-.3-.8-.5-1.2-.8.3-.9.5-1.9.8-2.9-.8-.6-1.6-1.1-2.5-1.8-.8.6-1.6 1.2-2.5 1.8-.4-.3-.7-.5-1.1-.8 2.7-1.9 5.3-3.8 7.9-5.7.4.3.8.6 1.3.9-.8 3-1.7 6-2.7 9.3zm1.1-8.5c-1 .7-2 1.4-3.1 2.2.7.5 1.3.9 2 1.4.5-1.3.8-2.4 1.1-3.6z"/><path d="m58.1 93.7c-1.2 0-2.3 0-3.5 0-.3.9-.7 1.8-1 2.7-.5 0-.9 0-1.5 0 1.1-3 2.3-6 3.4-9h1.5c1.2 2.9 2.4 5.8 3.6 9-.5 0-1 0-1.5.1-.3-1-.6-1.9-1-2.8zm-.4-1.2c-.4-1.2-.9-2.3-1.4-3.7-.5 1.4-.9 2.5-1.3 3.7z"/><path d="m82.8 87.4h1.5c1.2 3 2.4 5.9 3.6 9-.6 0-1 0-1.5 0-.3-.9-.7-1.8-1.1-2.7-1.2 0-2.3 0-3.5 0-.3.9-.7 1.8-1 2.7-.5 0-.9 0-1.5 0 1.2-3.1 2.4-6 3.5-9zm .8 1.4c-.5 1.4-.9 2.5-1.3 3.7h2.7c-.5-1.2-.9-2.3-1.4-3.7z"/><path d="m34.1 96.4c-.6 0-1 0-1.5 0-.3-.9-.7-1.8-1.1-2.7-1.1 0-2.3 0-3.5 0-.3.9-.7 1.8-1 2.7-.4 0-.8 0-1.5 0 1.1-3 2.3-6 3.4-9h1.5c1.2 2.9 2.4 5.9 3.7 9zm-4.4-7.6c-.5 1.4-.9 2.5-1.3 3.6h2.7c-.5-1.1-.9-2.2-1.4-3.6z"/></g><path d="m72.4 91h4.5c0-1.2 0-2.3 0-3.5h1.3v8.9c-.4 0-.8 0-1.3 0 0-1.3 0-2.7 0-4-1.5 0-2.9 0-4.4 0v4c-.5 0-.9 0-1.3.1 0-3 0-6 0-9 .3 0 .7 0 1.2-.1z" fill="#fefefe"/><path d="m47.5 16.2c-.3-3.2-.7-6.1-1-9.2.4-.1.8-.2 1.3-.3.1 1.1.3 2.2.4 3.3 2.4-.1 5.2-.2 4.8 3.3-.3 3.1-3.1 2.6-5.5 2.9zm1.4-.7c1.1-.7 2.1-1.2 2.7-1.9.3-.3 0-1.7-.5-1.9-.7-.4-1.7-.4-2.7-.6.1 1.5.3 2.7.5 4.4z" fill="#fcf2f2"/><path d="m19 22.9c.9-.8 2.1-1.9 3.4-3.1 0 0 .3.3.6.5-.9.9-1.7 1.8-2.5 2.7l2 2c .8-.9 1.5-1.7 2.4-2.7l.8.8c-.9.9-1.7 1.7-2.5 2.6l2.2 2.2c.9-.9 1.7-1.9 2.6-2.8.4.3.6.5 1 .8-1.3 1.2-2.6 2.4-3.9 3.6-1.9-2-4-4.2-6.1-6.6z" fill="#fcf2f2"/><path d="m91.8 26.7c.2 1.7-.2 3.1-2 3.3-2.4.3-3.4-1.5-4.3-3.4.4-.2.6-.4.9-.5 1.1 1.2 1.5 4 3.9 2 1.1-.9-.1-2-.8-3 .2-.2.4-.5.3-.4 1.2.3 2.1.6 3 .7.2 0 .7-.6.7-1 0-1.4-1.2-1.7-2.2-2.3.2-.3.3-.6.5-.9 1.7.7 3.2 1.6 3 3.7-.1 1.5-1.4 1.9-3 1.8 0-.1-.1-.2-.7-.6.6.5.7.6.7.6z" fill="#fcf2f2"/><path d="m53.3 6.2c.5-.1.9-.1 1.4-.2.3 3.1.7 6.1 1 9.3-.5.1-.9.1-1.4.2-.4-3.2-.7-6.2-1-9.3z" fill="#fcf2f2"/><path d="m65.3 5.1c-.3 1.4-1.1 1.7-2 1.6-1-.1-1.7-.6-1.6-2.1.6.5 1 .8 1.6 1.2.5-.2 1.1-.4 2-.7z" fill="#fcf2f2"/><path d="m60.3 13c-.1.1-.2.3-.3.6 0-.4 0-.5 0-.7.1 0 .2.1.3.1z" fill="#d51015"/><path d="m30.3 21.7c0 .1 0 .2 0-.2 0 .4 0 .3 0 .2z" fill="#d51015"/><path d="m46.7 19.7c6.7-2 13.3-1.9 20 .1v23.9h25.9c2.4 6.5 3.2 13.2 1.7 20-9.2 0-18.4 0-27.7 0v18.9c-6.7 0-13.3 0-20 0 0-6.3 0-12.5 0-18.9-9.4 0-18.7 0-27.9 0-1.5-6.8-.7-13.5 1.7-20h26.2c.1-8.1.1-16.1.1-24z" fill="#fdd900"/><path d="m18.7 63.7h27.9v18.9c-6.2 0-12.4 0-18.7 0-4.7-5.5-7.9-11.7-9.2-18.9z" fill="#df0408"/><path d="m66.7 82.6c0-6.2 0-12.5 0-18.9h27.7c-1.3 7.2-4.5 13.4-9.2 18.9-6.3 0-12.4 0-18.5 0z" fill="#df0408"/><path d="m46.7 19.7v24c-8.8 0-17.5 0-26.2 0 4.6-12.5 13.4-20.4 26.2-24z" fill="#df0408"/><path d="m92.6 43.7c-8.6 0-17.2 0-25.9 0 0-8 0-16 0-23.9 12.6 3.6 21.3 11.5 25.9 23.9z" fill="#df0408"/><path d="m64.6 88.6h2.7v6.5c-1.2 0-2.4 0-3.5 0 .2-2.1.5-4.2.8-6.5z" fill="#d51015"/><path d="m14.3 44.1.3.3c-.3-.1-.4-.1-.5-.1.1 0 .1-.1.2-.2z" fill="#df0408"/><path d="m101.2 50.1c1.2.3 2.2.5 3.7.8-1.3.6-2.3 1.1-3.4 1.6-.1-.8-.2-1.5-.3-2.4z" fill="#d51015"/><path d="m36.7 88.5c1.4.6 3.9-1 3.9 1.6 0 2.4-2.4 1.1-3.9 1.6 0-1.1 0-2 0-3.2z" fill="#df0408"/><path d="m96.2 34.6c-.4-.7-.8-1.4-1.2-2.1 1.2-.2 2.3-.5 3.7-.8-.9 1.1-1.7 2-2.5 2.9z" fill="#d51015"/><path d="m85.4 17.4c-.3 1.1-.6 2.3-1 3.6-.7-.5-1.3-.9-2-1.4 1-.8 2-1.5 3-2.2z" fill="#d51015"/><path d="m57.7 92.5c-1 0-1.7 0-2.7 0 .4-1.2.8-2.3 1.3-3.7.5 1.3 1 2.5 1.4 3.7z" fill="#d51015"/><path d="m83.6 88.8c.5 1.4.9 2.5 1.4 3.7-.9 0-1.7 0-2.7 0 .4-1.2.8-2.4 1.3-3.7z" fill="#d51015"/><path d="m29.7 88.8c.5 1.4.9 2.4 1.4 3.6-.9 0-1.7 0-2.7 0 .4-1.1.8-2.1 1.3-3.6z" fill="#d51015"/><path d="m48.9 15.5c-.2-1.7-.3-2.8-.5-4.4 1 .2 2 .1 2.7.6.4.3.7 1.6.5 1.9-.6.7-1.6 1.1-2.7 1.9z" fill="#d51015"/><path d="m91.8 26.7c-.1 0-.1-.1-.7-.6.7.4.8.5.7.6.1 0 .1 0 0 0z" fill="#d51015"/></svg>