<svg viewBox="0 0 566.93 566.93" xmlns="http://www.w3.org/2000/svg"><path d="m283.1 552.57c-145.54 1.92-272.27-120.57-268.86-275.67 3.1-140.84 120.76-266.03 276.59-262.49 140.29 3.18 265.8 120.67 261.83 277.16-3.59 141.72-121.61 262.65-269.56 261z" fill="#010101"/><path d="m489.55 436.72c-16 20.75-34 39.41-55.59 54.42-1.14.8-2.31 1.56-3.75 2.53l-21.92-5.18c-2.7-.55-5.48-.89-7.89-2.43-.15-2.72 1.8-3.92 3.66-5 18.16-10.95 34-24.65 48.52-40.06a50.1 50.1 0 0 1 8.95-7.17c8.34 0 16.74-.09 25.13 0 1.79 0 4.41-.54 2.89 2.89z" fill="#ffed00"/><path d="m158.7 488.49-22 5.23c-15.52-10.72-30.09-22.85-42.7-37.2-5.68-6.45-11-13.19-16.52-19.8-1.51-3.44 1.11-2.88 2.9-2.91 8.4-.13 16.81 0 25.35 0 11.14 7.58 19.09 18.68 29.47 27.19s21.51 15.6 32.59 23.64c-3.26 3.23-6.33 3.14-9.09 3.85z" fill="#ffed00"/><path d="m394.61 476.65c2.41-8.67 4.94-17.31 7.2-26a17.6 17.6 0 0 1 6.24-9.83c17.81-14.57 33.57-31 45.58-50.84 2.59-.32 1.67 1.69 1.67 2.77.07 11.62 0 23.23.08 34.85a10.36 10.36 0 0 1 -2.69 7.1 206.8 206.8 0 0 1 -53 43.77c-3.75 2.19-4.54 1.69-5.08-1.82z" fill="#ffed00"/><path d="m113.37 390c12 19.81 27.77 36.28 45.58 50.85a17.65 17.65 0 0 1 6.24 9.83c2.26 8.71 4.79 17.35 7.2 26 1.32 1.64.57 2.57-1.14 2.92a5.62 5.62 0 0 1 -4-1.09c-20-11.81-37.83-26.15-53-43.8a10.36 10.36 0 0 1 -2.69-7.1c.08-11.62 0-23.23.07-34.85.07-1.11-.84-3.12 1.74-2.76z" fill="#ffed00"/><path d="m499.7 373 26.06-6.38c-7.08 21.6-17.36 40.74-28.8 59.32-4.92 2.33-10.09.31-15.14.8a47 47 0 0 1 -13.79-.53c.6-4.36 3.85-6.81 6.24-9.79v.07a10.12 10.12 0 0 1 2.47-3.69l-.05.08a44.13 44.13 0 0 1 6.19-9.64l-.07.07c1-2.18 1.86-4.43 3.55-6.2v.07c.53-.76.24-2 1.41-2.38l-.07.08a52.86 52.86 0 0 1 3.72-7.31l-.08.1c3.15-4.67 2.53-11.53 8.36-14.67z" fill="#ffed00"/><path d="m70 425.92c-11.4-18.58-21.69-37.72-28.75-59.32l26.06 6.4c2.46.71 3.24 2.7 3.74 4.9v-.09c1.63 3.27 3.25 6.53 4.75 9.85l-.08-.09a53.53 53.53 0 0 1 3.72 7.32l-.08-.09c1.18.37.88 1.62 1.42 2.38v-.07c1.69 1.77 2.56 4 3.54 6.2l.1-.29-.14.28c3.65 3.89 5.86 8.71 8.59 13.2l-.06-.08c1.37 1.53 2.88 3 3.66 4.92l-.06-.08c1.1 1.35 2.57 2.51 2.66 4.78-5.59 1.41-11.15 1.24-16.6.73-4.21-.41-8.47 1.51-12.47-.85z" fill="#ffed00"/><path d="m76.11 371.65c4.9-13 7.17-26.82 11.79-41.08 4.68 15.94 9.25 31 17.07 44.72 1.41 11 .24 22.1.6 33.15.08 2.57 0 5.15 0 7.73 0 1.41-.86 1.92-2.11 2.06a2.65 2.65 0 0 1 -1.91-1l.06.09c-1.38-1.52-2.93-2.91-3.63-4.94l.07.08a7.1 7.1 0 0 1 -2.46-3.71l.07.08a6.32 6.32 0 0 1 -2.43-3.74l.06.07c-3.84-3.18-5.07-7.95-7.37-12.08l.08.1c-1.09-.46-.84-1.66-1.35-2.44a31.93 31.93 0 0 1 -7.17-14.6l.07.09a5.3 5.3 0 0 1 -1.44-4.58z" fill="#ffed00"/><path d="m462 375.29c7.83-13.74 12.4-28.78 17.08-44.72 4.62 14.26 6.9 28 11.79 41.08a5.33 5.33 0 0 1 -1.48 4.66l.29.12-.27-.16a39.87 39.87 0 0 1 -8.41 16.93l.06-.08c-1.08 2.13-1.84 4.44-3.61 6.16l.06-.07c-1.29 2-1.73 4.51-3.81 6l.05-.06a6.26 6.26 0 0 1 -2.42 3.72l.06-.07a7.08 7.08 0 0 1 -2.39 3.7l.07-.08c-1.61 2.25-1.95 5.72-5.7 5.9a2.06 2.06 0 0 1 -1.9-2.15c0-11.69 0-23.38 0-35.07-.02-1.94-.56-3.97.53-5.81z" fill="#ffed00"/><path d="m536.11 243.34-9.75 9.21a247.56 247.56 0 0 0 -20.56-74.86c-10.7-23.78-25.14-45.2-42.84-66 22.43 2.83 68.79 87.82 73.15 131.65z" fill="#ffeb00"/><path d="m40.68 253.05-10.06-11.15c9.34-50.56 32-94.9 70-131l2.6 1.51c-16.46 20-31.16 41.11-41.76 64.75a244.81 244.81 0 0 0 -20.78 75.89z" fill="#ffeb00"/><path d="m60.49 260.15-5.49 5.77c-2.84-.11-3.5-2.69-5.18-3.5-2.56-37.42 41.38-126.22 67.62-134.96-32.38 38.64-52.11 82.64-56.95 132.69z" fill="#ffeb00"/><path d="m455.6 130.44 1.58 1.59a1.1 1.1 0 0 1 .85.83c25.41 25.41 42 55.94 52.19 90.16a185.22 185.22 0 0 1 7.44 38 11.4 11.4 0 0 1 -4.84 5c-2.63-1.24-4.12-3.66-6.26-5.92a237.77 237.77 0 0 0 -20.22-74.91c-8.15-17.8-19-33.88-30.54-49.52a1.79 1.79 0 0 0 -1.24-1.49l.06.08a2.21 2.21 0 0 0 -1.18-1.34 3.91 3.91 0 0 0 -1.15-1.31 9.78 9.78 0 0 1 -1-1.28l-.09-.13a1.43 1.43 0 0 1 -.84-1l-.26-1.2a3.55 3.55 0 0 1 1-1c1.92-.12 2.62 1.46 3.62 2.61a1.09 1.09 0 0 1 .88.83z" fill="#ffeb00"/><path d="m538.19 312.71c-1.53 14.93-4.86 29.49-9.2 44.38l-23.7 6.91c-.73 1.53-2 .64-3.43 1.17a18.63 18.63 0 0 1 2.51-9.15v.07c1-2.78 1-5.85 2.58-8.46l-.07.1c1.21-4.87 2.16-9.8 3.68-14.59l-.08.1c.7-3.28.73-6.75 2.55-9.74l23.64-13.5c2.33-.12 1.91 1.3 1.52 2.71z" fill="#ffed00"/><path d="m532.52 257.25 5.5-4.16c1.77 15.71 3.53 30.83 1.28 46.11l-23.16 14.15c-.41.81-1 1.14-2 .49.13-12.93 2.34-25.88 1.38-39.47 5.37-5.78 11.18-11.45 17-17.12z" fill="#ffed00"/><path d="m494.69 359.22c-2.82-10.85-4.78-22-8.67-32.49-5-13.49-1.73-27-2.39-42.07l21.68 36.39c2.33 5.69-1.31 10.73-2.12 16a47.45 47.45 0 0 1 -4.12 13.95l.07-.1c-.71 1.16.21 2.83-1.18 3.77l.05-.09c-.96 1.65-.14 4.58-3.32 4.64z" fill="#ffed00"/><path d="m61.68 321.05 21.43-36c.08 15.24 2.64 29.32-2.61 43.41-3.68 9.9-5.53 20.48-8.19 30.76-3.21 0-2.34-3-3.32-4.64l.06.1c-3.51-9-5.28-18.56-7.75-27.88-.5-1.88-.86-3.91.38-5.75z" fill="#ffed00"/><path d="m126.92 150.17a.75.75 0 0 1 -.46.76 5.12 5.12 0 0 1 -1 1.22 3.34 3.34 0 0 0 -1.07 1.47c-15.18 21.9-28.38 44.86-34.4 71.06-2 8.73-7.75 13.43-14.1 18.43 5.45-35.67 21.4-66.11 46.11-92.11a4.53 4.53 0 0 1 1.11-1.16l.05-.06a9.09 9.09 0 0 1 1.13-1.19c.38-.41.77-.81 1.17-1.19q.57-.61 1.17-1.2c.39-.39.8-.78 1.22-1.14a7 7 0 0 1 1.18-1.13h.05c1.74 0 2.12.74 1 2.13l-.1.15a4.75 4.75 0 0 1 -1 1.26 3.85 3.85 0 0 0 -1.07 1.36v-.06a1.8 1.8 0 0 0 -.99 1.4z" fill="#fbe300"/><path d="m448.38 154.57c22 23 42.37 65.23 42.74 90-4.94-5.55-11.17-8.53-12.77-15.31-5.94-25.13-16.94-47.91-31.51-69.08-.67-1-1.18-2.08-1.76-3.12a12.25 12.25 0 0 1 -1-1.35l-.07-.12c-.82-.47-.52-1.74-1.49-2.12l.05.08c-.12-.64-.64-1-1-1.41a4.12 4.12 0 0 1 -.93-1.19.7.7 0 0 1 -.46-.78 2 2 0 0 0 -1.17-1.54 4.21 4.21 0 0 0 -1.06-1.35l-.08.05a1.25 1.25 0 0 1 -.35-.88c0-.33.05-.5.11-.5a1.89 1.89 0 0 1 1.37-.46 2.82 2.82 0 0 1 1.36.56l-.05.07c.41.38.79.77 1.16 1.18a10.68 10.68 0 0 1 1.16 1.17 6.59 6.59 0 0 1 1.12 1.18l.07.07a4.15 4.15 0 0 1 1.18 1.28l.09.09a3.05 3.05 0 0 1 1.08 1.12l.12.13a2.27 2.27 0 0 1 1 1.09l.16.18a1.48 1.48 0 0 1 .93.96z" fill="#fbe300"/><path d="m85.86 248.72c.32 18.63-9.86 33.18-18.71 48.28-2 3.43-3.79 7-5.68 10.48-.28.78-.71 1.4-2.21 1.54-2.42-11.6-2.47-23.3-1.26-35.02l27.62-27.54a1.66 1.66 0 0 1 .24 2.26z" fill="#ffed00"/><path d="m481.36 246.4 27.64 27.6c1 10.1 1.4 20.19-.59 30.24-.25 1.69-1.09 2.63-2.94 2.29-6.74-11.61-13.7-23.11-20.16-34.88-3.86-7-2.14-15.36-4.16-22.89a1.67 1.67 0 0 1 .21-2.36z" fill="#ffed00"/><path d="m394.61 476.65c.08.74.17 1.49.32 2.83a222.28 222.28 0 0 0 59.75-49.29c-.93-13.21 1-26.75-1.05-40.23 0-1.2.09-2.37 2.53-3.26v47.69c12.34-2.14 23.77-1 34.88-1.43 1.15 2.59-.14 3.19-1.49 3.76.82-2.71-1.13-2.36-2.67-2.36q-12.92 0-25.87 0a242.73 242.73 0 0 1 -61.21 51l8.49 3.09c-5.71.47-10.32-1.41-13.63-6.27-1.31-1.88-2.4-3.65-.05-5.53z" fill="#090b07"/><path d="m113.37 390c-1.8 6.65-.69 13.42-.79 20.13s0 13.24 0 20.33a221.61 221.61 0 0 0 59.52 49.13c.15-1.4.24-2.15.32-2.89 3.4 6-2.06 7.84-5.22 10.21a10.73 10.73 0 0 1 -8.47 1.63l8.41-3.05a245.22 245.22 0 0 1 -61.14-51.14c-8.67 0-17.28 0-25.89 0-1.52 0-3.48-.36-2.67 2.36-1.21-.41-2.1-1.06-2.17-3.5 11.64.06 23.15-1 35.29 1.14v-46.93c2.97-.42 2.63 1.24 2.81 2.58z" fill="#090b07"/><path d="m532.52 257.25-16.28 17.36a250 250 0 0 1 -1.7 37.6c-.14 1.19.87 1 1.6 1.14-.53 1.42-1.44 1.79-2.88.94.36-13.55 2.27-27.08 1.82-40.89 5.99-5.3 10.43-12.07 17.44-16.15z" fill="#0c0e09"/><path d="m474.27 416.4-6.13 9.52h28.86c-.6 1.39-1.63 2.52-3.15 2.32-9.2-1.18-18.46.21-28.14-.63 2.12-4.61 3.99-8.91 8.56-11.21z" fill="#0b0d08"/><path d="m70 425.92h28.11c.74-2.07-1.79-2.91-1.79-4.68 2.71 1 4.13 2.91 4.42 6.19a104.21 104.21 0 0 1 -22.25.24c-2.83-.31-6.49 2.76-8.49-1.75z" fill="#0b0d08"/><path d="m462 375.29.15 42.09a4.45 4.45 0 0 1 1.09 2.95v.81l-2.49 2.7c0-13.93-.1-26.63.07-39.33.08-3.07-1.22-6.42 1.18-9.22z" fill="#0b0d08"/><path d="m104.83 417.38q.08-21 .14-42.09c.27.29.78.58.78.87v47.21l-2.06-2.23v-.8a4.4 4.4 0 0 1 1.14-2.96z" fill="#0b0d08"/><path d="m85.92 393.12a63.79 63.79 0 0 1 7.37 12.08l-4.42-2c-2.37 5.78 4.42 8.43 3.91 13.23a53 53 0 0 1 -8.59-13.19c1.53-.36 3-.74 3.75-2.84.51-2.46-2.58-4.4-2.02-7.28z" fill="#0b0d08"/><path d="m61.68 321.05c.47 9.21 3.35 17.9 5.75 26.69.62 2.29 1.08 4.63 1.62 6.94-5.26-9.5-6.51-20.14-8.64-30.53a2.75 2.75 0 0 1 1.27-3.1z" fill="#0d0f09"/><path d="m507.7 305.26c1.84-10.38.86-20.87 1.29-31.31 2.62 9 1.23 18.09.71 27.11-.16 2.72-.36 5.54-.78 8.28-.23 1.55-1.06 2.15-2.15.43.98-1.37-.28-3.2.93-4.51z" fill="#0c0e09"/><path d="m499.07 351c1.85-7.84 3.76-15.68 5.53-23.54a54.8 54.8 0 0 0 .71-6.42c3.25 4.27.12 8.29-.68 12.3-1.22 6.06-1.74 12.41-5.56 17.66z" fill="#0d0e09"/><path d="m481 393.2q4.2-8.46 8.42-16.93c.48 7.27-2.86 12.65-8.42 16.93z" fill="#0b0d08"/><path d="m77.52 376.22a89.82 89.82 0 0 1 7.17 14.6c-5.43-3.37-7.97-8.16-7.17-14.6z" fill="#0b0d08"/><path d="m499.7 373c-4.36 4-4.48 10.44-8.45 14.67 1.97-5.4 1.11-12.4 8.45-14.67z" fill="#0b0d08"/><path d="m510.52 333.17a40.76 40.76 0 0 1 -3.68 14.59 28 28 0 0 1 3.68-14.59z" fill="#0d0e09"/><path d="m482.83 403.22a29.06 29.06 0 0 1 -6.19 9.64c-.06-4.58 2.75-7.31 6.19-9.64z" fill="#0b0d08"/><path d="m504.37 356.05c-.65 2.58-1.31 5.16-1.94 7.65 1 1.07 1.95.24 2.86.33-1.17 2.39-2.73 1.55-4.7.65.99-3.18.96-6.48 3.78-8.63z" fill="#0d0e09"/><path d="m75.75 387.64a23.9 23.9 0 0 1 -4.75-9.85 15.24 15.24 0 0 1 4.75 9.85z" fill="#0b0d08"/><path d="m69 354.58c1.66 1.15 1 3.93 3.32 4.64 0 1.07.38 2.21-.92 3.5-1.57-2.72-2.84-5.13-2.4-8.14z" fill="#0d0f09"/><path d="m464.58 417.61 4.44-5.19c0 3.46-1.79 5.79-4.58 7.53l-.5-.53c-.21-.75-.18-1.42.64-1.81z" fill="#0b0d08"/><path d="m494.69 359.22c2.28-.71 1.66-3.49 3.32-4.63.4 3-.95 5.4-2.14 8-1.79-1.1-1.11-2.32-1.18-3.37z" fill="#0d0e09"/><path d="m435.19 144.12a10.9 10.9 0 0 1 -3.71-5.07c2.89.12 4.07 1.72 5.18 3.46a1.81 1.81 0 0 1 -1.47 1.61z" fill="#c3b118"/><path d="m513 323.53c-.83 3.25-.91 6.7-2.55 9.74-.45-3.59-.35-7.03 2.55-9.74z" fill="#0d0e09"/><path d="m79.39 394.87a14.61 14.61 0 0 1 -3.72-7.32c2.7 1.7 3.61 4.3 3.72 7.32z" fill="#0b0d08"/><path d="m491.33 387.55a14.62 14.62 0 0 1 -3.72 7.31c.12-3.01 1.02-5.61 3.72-7.31z" fill="#0b0d08"/><path d="m506.91 347.66a17.85 17.85 0 0 1 -2.58 8.46c-.26-3.12.08-6.12 2.58-8.46z" fill="#0d0e09"/><path d="m130.22 145.9c-.34-.71-.68-1.42-1-2.13l2.43-2.42c1.15-.2 1.82 0 1.2 1.37a5.69 5.69 0 0 1 -2.63 3.18z" fill="#dcc700"/><path d="m477.46 399.28a12.3 12.3 0 0 1 3.61-6.16c-.07 2.74-.81 5.05-3.61 6.16z" fill="#0b0d08"/><path d="m84.23 403.29a14.54 14.54 0 0 1 -3.54-6.2c2.74 1.17 3.59 3.43 3.54 6.2z" fill="#0b0d08"/><path d="m486.31 397.09a14.51 14.51 0 0 1 -3.55 6.2c-.04-2.77.8-5.03 3.55-6.2z" fill="#0b0d08"/><path d="m473.71 405.2a14.6 14.6 0 0 1 3.81-6c-.23 2.67-.76 5.14-3.81 6z" fill="#0b0d08"/><path d="m96.38 421.32a9.48 9.48 0 0 1 -3.66-4.92c2.28.87 3.85 2.23 3.66 4.92z" fill="#0b0d08"/><path d="m71.05 377.88-3.74-4.88c3.46-.07 4.13 2 3.74 4.88z" fill="#0b0d08"/><path d="m98 412.42a10.77 10.77 0 0 1 3.63 4.94c-2.3-.86-3.92-2.2-3.63-4.94z" fill="#0b0d08"/><path d="m507.7 305.26c.32 1.63.78 3.29-.93 4.51l-1.31-3.29z" fill="#ffed00"/><path d="m76.11 371.65 1.48 4.66c-1.71-1.17-3.52-2.31-1.48-4.66z" fill="#0b0d08"/><path d="m435.19 144.12 1.47-1.61a7.65 7.65 0 0 0 1.25 1.16 4.5 4.5 0 0 0 1.26 1.2.89.89 0 0 1 0 1.25h-1.19a.68.68 0 0 1 -1.18 0 2.93 2.93 0 0 1 -1-1.16.92.92 0 0 1 -.61-.84z" fill="#e2cd00"/><path d="m489.41 376.31 1.48-4.66c2.04 2.35.23 3.49-1.48 4.66z" fill="#0b0d08"/><path d="m471.34 408.86a5.93 5.93 0 0 1 2.42-3.72c.4 2.02-.36 3.29-2.42 3.72z" fill="#0b0d08"/><path d="m93.23 405.13a6 6 0 0 1 2.43 3.74c-2.06-.44-2.82-1.71-2.43-3.74z" fill="#0b0d08"/><path d="m95.59 408.79a6 6 0 0 1 2.46 3.71c-2.05-.44-2.78-1.72-2.46-3.71z" fill="#0b0d08"/><path d="m469 412.5a6 6 0 0 1 2.45-3.71c.28 1.99-.45 3.27-2.45 3.71z" fill="#0b0d08"/><path d="m476.69 412.78a5.34 5.34 0 0 1 -2.47 3.69 3.06 3.06 0 0 1 2.47-3.69z" fill="#0b0d08"/><path d="m481.36 246.4c-.07.77-.15 1.54-.22 2.31-.81-.89-1.4-1.82-.56-3z" fill="#71682f"/><path d="m132.84 142.72-1.2-1.37 1.21-1.2c1.16-.32 1.66 0 1.14 1.22z" fill="#d4bf04"/><path d="m134 141.37-1.14-1.22c.47-.79 1-1.53 2.07-.93.51 1.1-.13 1.66-.93 2.15z" fill="#bfad1b"/><path d="m498 354.68c.09-1.35 0-2.75 1.18-3.77.19 1.46.55 2.95-1.18 3.77z" fill="#0d0e09"/><path d="m85.86 248.72c-.07-.77-.15-1.54-.23-2.31l.78-.74c.86 1.22.25 2.15-.55 3.05z" fill="#ffed00"/><path d="m442.5 153.48a2 2 0 0 1 1.5 2.12 2.48 2.48 0 0 1 -1.5-2.12z" fill="#e2cd00"/><path d="m84.65 390.78a2.68 2.68 0 0 1 1.35 2.44c-1.31-.34-1.46-1.32-1.35-2.44z" fill="#0b0d08"/><path d="m80.73 397.16a2.68 2.68 0 0 1 -1.42-2.38c1.36.22 1.52 1.22 1.42 2.38z" fill="#0b0d08"/><path d="m101.55 417.27a1 1 0 0 1 .87.34c.82.39.85 1.06.64 1.81-.16.18-.33.35-.5.53a2.39 2.39 0 0 1 -1.01-2.68z" fill="#0b0d08"/><path d="m487.68 394.78a2.66 2.66 0 0 1 -1.41 2.38c-.1-1.16.06-2.16 1.41-2.38z" fill="#0b0d08"/><path d="m451.15 127-1 1c-.21-.83.13-1.19 1-1z" fill="#f1da00"/><path d="m450.37 129.25.84 1z" fill="#f1da00"/><path d="m455.6 130.44-.83-.83z" fill="#f1da00"/><path d="m451.3 130.39 1 1.28z" fill="#f1da00"/><path d="m452.33 131.67 1.15 1.31z" fill="#f1da00"/><path d="m458 132.86-.85-.83z" fill="#f1da00"/><path d="m453.44 132.93 1.18 1.34z" fill="#f1da00"/><path d="m454.56 134.19c.41.5.82 1 1.24 1.49-.42-.49-.8-.99-1.24-1.49z" fill="#f1da00"/><path d="m437.92 143.68-1.25-1.16z" fill="#c3b118"/><path d="m129.16 143.81-1.16 1.13z" fill="#dcc700"/><path d="m439.16 144.87-1.26-1.2z" fill="#c3b118"/><path d="m127.94 145-1.22 1.14z" fill="#dcc700"/><path d="m435.75 144.89 1 1.16z" fill="#c3b118"/><path d="m439.1 146.11v-1.25l1.2 1.23z" fill="#c3b118"/><path d="m126.71 146.14-1.17 1.2z" fill="#dcc700"/><path d="m448.38 154.57-.93-1z" fill="#e2cd00"/><path d="m129.11 147.31 1-1.26z" fill="#dcc700"/><path d="m441.44 147.34-1.16-1.18z" fill="#e2cd00"/><path d="m436.73 146.09h1.18c0 .42-.05.84-.07 1.25z" fill="#c3b118"/><path d="m125.51 147.36-1.17 1.19z" fill="#dcc700"/><path d="m128 148.69 1.07-1.36z" fill="#dcc700"/><path d="m437.92 147.32 1.06 1.35z" fill="#e2cd00"/><path d="m442.64 148.56-1.16-1.17z" fill="#e2cd00"/><path d="m124.31 148.58-1.13 1.19z" fill="#dcc700"/><path d="m126.92 150.17c.38-.52.77-1 1.15-1.54-.38.51-.77 1.02-1.15 1.54z" fill="#dcc700"/><path d="m438.94 148.62 1.17 1.54z" fill="#e2cd00"/><path d="m443.8 149.78-1.12-1.18c.38.4.75.79 1.12 1.18z" fill="#e2cd00"/><path d="m123.13 149.83-1.13 1.17z" fill="#dcc700"/><path d="m445 151-1.1-1.15z" fill="#e2cd00"/><path d="m103.72 421.14-1.16-1.14.38-.36a1.2 1.2 0 0 1 1 1.25z" fill="#0b0d08"/><path d="m464.44 420c-.39.4-.78.79-1.16 1.19l-.25-.3a1.19 1.19 0 0 1 1-1.25z" fill="#0b0d08"/><path d="m125.5 152.15 1-1.22z" fill="#dcc700"/><path d="m440.57 150.94.93 1.19z" fill="#e2cd00"/><path d="m446.14 152.21-1.08-1.12z" fill="#e2cd00"/><path d="m124.43 153.63 1.07-1.47z" fill="#dcc700"/><path d="m441.52 152.15 1 1.4z" fill="#e2cd00"/><path d="m447.29 153.43c-.35-.36-.69-.72-1-1.09.31.37.65.73 1 1.09z" fill="#e2cd00"/><path d="m444.06 155.72 1 1.35z" fill="#e2cd00"/><path d="m104 420.84c-.35-.42-.7-.83-1-1.25-.17-.66-.35-1.32-.52-2l2.41-.23c.36 1.35.46 2.64-.89 3.48z" fill="#ffed00"/><path d="m464.06 419.59-1 1.25c-1.38-.88-1.28-2.13-.86-3.46l2.41.23c-.2.66-.38 1.32-.55 1.98z" fill="none"/><circle cx="283.46" cy="283.46" fill="#e73631" r="194.17"/><path d="m302.27 481.49c-45.78 4.08-88.22-5.69-127-30.57-1.15-.74-1.79 0-2.39.84-.92 2.21-.31 4.39.3 6.5 2 7 3.86 14 5.49 21 .53 2.29 1.66 4.62.17 7.05-1.65 1.62-3.92 1.86-6 2.45-7.35 2.08-14.8 3.85-22.09 6.14-2.22.69-4.94.95-5.14 4.19 2.09 1.18 4.2 2.34 6.27 3.54 41.84 24.23 86.75 37 135.29 36.31 11 .09 21.63-.21 32.42-2.4l2-.18 1.21-.3c2.42-.33 8-1.57 12.32-2.45 30.85-6.26 59.38-18.37 86.27-34.53-.22-3.19-2.89-3.48-5.1-4.17-7.43-2.32-15-4.13-22.5-6.25-2.25-.64-4.8-.78-6.64-4.11 1.43-7 3.44-14.71 5.53-22.39.92-3.41 2.65-6.76 1.37-10.47-.6-.84-1.25-1.54-2.38-.78-23.84 15.36-49.68 25.38-77.85 29.18z" fill="#e73631"/><g fill="#ffed00"><path d="m217.34 46.59a53.9 53.9 0 0 1 13.66 5.6l-2.17 4.13a58.89 58.89 0 0 0 -13.5-6zm1.57-19.11c4.6 1.42 10.37 3.95 13.32 6.11l-2.23 4.07c-2.89-2.24-8.62-5-13.3-6.53zm2.55 59.52a219.64 219.64 0 0 0 9.82-24l3.82 2.48a236.83 236.83 0 0 1 -8.86 22.64 1.54 1.54 0 0 1 .45.92 1.43 1.43 0 0 1 -.12.78zm13.84-36.21 7.92-1.11a86.43 86.43 0 0 0 4.78-12.55l-14.93 1.7-.48-4.24 18.69-2.13-1.05-9.18 6.07-.34c0 .55-.32.87-1.26 1.11l.89 7.87 21-2.39.49 4.24-23.14 2.64c-.15.5-.62.7-1.37.78-1.21 3.4-3.11 8-4.9 11.8 6.21-.92 13.23-2 20.11-3.06a83 83 0 0 0 -6.92-5.38l3.33-2.4c5.47 3.54 11.69 8.87 14.7 12.75l-3.5 2.76a39 39 0 0 0 -4-4.46c-12.24 2.16-25.1 4.32-33.21 5.59a1.28 1.28 0 0 1 -.85 1.07zm11.46 13.53c.88 7.74.8 16.76-7.74 24.61a14.31 14.31 0 0 0 -3.7-2.7c7.94-6.94 7.93-15 7.18-21.56l-.83-7.26 5.59-.29c0 .49-.33.8-1.2 1zm10.42 19.62-3.18-27.59 5.52-.28c0 .48-.32.87-1.19 1.1l3 26.29zm16.23-6.64c.29 2.47.46 2.8 2 2.62l2.19-.25c1.78-.2 2-.92 2.08-2.45 0-1.18-.23-3.79-.54-7.15a9.63 9.63 0 0 0 3.49 1.4c.71 8 1 11.33-4.33 11.94l-3.42.39c-5 .57-5.36-2.65-5.81-6.55l-2.59-22.66 5.73-.31c0 .49-.32.87-1.27 1z"/><path d="m322.45 83 28.84 4.16-.59 4.09-62-8.93.59-4.1 28.44 4.1 1.13-7.84-18.41-2.65.55-3.83 18.41 2.65 1-7-16.08-2.25a52.77 52.77 0 0 1 -9.05 8.65 23.88 23.88 0 0 0 -3.1-3.1c5.26-3.62 11-10.24 14.78-17.08l5.13 2.55c-.26.38-.77.52-1.58.4-1 1.66-2.08 3.32-3.3 5l13.78 2 1.12-7.82 6 1.29c-.13.47-.52.76-1.5.76l-.92 6.41 24.49 3.54-.57 4-24.48-3.53-1 7 19.17 2.76-.55 3.82-19.17-2.76zm28.23-51.48-3.46 24-45.08-6.52 3.46-24zm-7.62 19.48.93-6.41-35.88-5.16-.92 6.41zm1.45-10 .91-6.34-35.87-5.16-.92 6.34z"/><path d="m338.47 510.18-10.47-6.92-10.65 6.74 3.38-11.57-8.73-7.25 11.5.09 4.68-11.65 4.46 11.54 11.77.08-.58.42-9 6.86c1.17 3.71 2.3 7.4 3.64 11.66z"/><path d="m252.35 510.18-10.5-6.92-10.62 6.74 3.37-11.57-8.76-7.26 11.5.09 4.66-11.64 4.46 11.54 11.77.08-.58.42-9 6.86c1.19 3.71 2.35 7.4 3.7 11.66z"/><path d="m301.76 534.87-17-11.18-17.14 10.91c1.94-6.65 3.66-12.54 5.46-18.69l-14.16-11.75 18.59.15 7.56-18.82c2.59 6.71 4.87 12.6 7.21 18.64l19 .13-.94.68-14.54 11.06c1.9 6 3.78 12 5.96 18.87z"/><path d="m58 363.07-20-5.95a242.66 242.66 0 0 1 -9.25-44.41c-.39-1.41-.81-2.83 1.52-2.71l23.73 13.53c3.2 7.79 3.83 16.22 6.15 24.23l-.07-.1c1.53 2.61 1.58 5.68 2.58 8.46l-.05-.07a21.85 21.85 0 0 1 2.67 8.4c-2.85 1.32-5-.36-7.28-1.38z"/><path d="m50.86 313.34-23.14-14.13c-2.33-15.2-.37-30.27 1-45.45 3 .08 3.53 3.05 5.73 3.49 5.74 5.48 11.26 11.18 16.86 16.84-.59 13.37 1.2 26.39 1.61 39.65-.61.59-1.41.88-2.06-.4z"/><path d="m375.66 161.38h-29.42v32.72l-58.17 34.71v155.02l36.36-21.15v-11.24h-6.94v-61.15l27.1 15.54v73.38l-61.13 35.04-61.12-35.04v-73.38l27.1-15.54v61.15h-6.94v11.24l36.36 21.15v-155.02l-58.17-34.71v-32.72h-29.42v51.57l55.86 37.35-55.86 37.68v110.07l92.19 53.55 92.2-53.55v-110.07l-55.86-37.68 55.86-37.35z"/><path d="m283.46 108.39 14.12 28.59 31.55 4.59-22.83 22.25 5.39 31.43-28.23-14.84-28.22 14.84 5.39-31.43-22.83-22.25 31.55-4.59z"/></g></svg>