<svg enable-background="new 0 0 113.4 113.4" viewBox="0 0 113.4 113.4" xmlns="http://www.w3.org/2000/svg"><circle cx="56.7" cy="56.7" fill="#fff" r="56.7"/><circle cx="56.7" cy="56.7" fill="#be1622" r="43.2"/><path d="m28 24.3 12 11.7h32.5l12-11.7h7.4v3.4l-7.5-.2-1.2 1.2h-.6l-8.9 8.6h-4.1l-.8-.5-25.1.1-.6.4h-4.2l-8.9-8.7h-.8l-1.2-1.3-6.8.2v-3.2" fill="#0081c3"/><path d="m21.8 39.7 14.6 14.2h39.5l14.7-14.2h9v4.1l-9.1-.3-1.5 1.5h-.7l-10.8 10.5h-5l-1-.6-30.7.1-.7.5h-5l-10.9-10.6h-1l-1.4-1.6-8.4.3v-3.9" fill="#0081c3"/><path d="m20.4 57.8 15.2 14.9h41.1l15.3-14.9h9.4v4.4l-9.5-.3-1.5 1.5h-.8l-11.3 10.9h-5.1l-1.1-.6-31.9.1-.7.5h-5.3l-11.3-11h-1.1l-1.4-1.6-8.7.3v-4.2" fill="#0081c3"/><path d="m25.3 75.5 13.1 12.8h35.6l13.1-12.8h8.2v3.7l-8.2-.3-1.3 1.3h-.7l-9.7 9.5h-4.5l-.9-.5-27.6.1-.6.4h-4.5l-9.8-9.5h-1l-1.2-1.5-7.5.3v-3.5" fill="#0081c3"/><path d="m56.5 111c-30 0-54.5-24.4-54.5-54.5s24.4-54.5 54.5-54.5 54.5 24.4 54.5 54.5-24.5 54.5-54.5 54.5zm0-107.8c-29.4 0-53.3 23.9-53.3 53.3s23.9 53.3 53.3 53.3 53.3-23.9 53.3-53.3-23.9-53.3-53.3-53.3z" fill="#0081c3"/><path d="m56.7 105.7c-27 0-49-22-49-49s22-49 49-49 49 22 49 49-22 49-49 49zm0-92c-23.7 0-43 19.3-43 43s19.3 43 43 43 43-19.3 43-43-19.3-43-43-43z" fill="#0081c3"/><g fill="#fff"><path d="m27.9 94.1 1.2.8-.5 3.6.2.1 3.2-1.9 1.2.8-4.2 2.5-1.7-1.1z"/><path d="m29 101-2.5-1.6.8-6.5 2.6 1.7-.4 2.9 2.5-1.5 2.6 1.7z"/><path d="m33.4 97.6 1.2.7-2.1 3.9-1.2-.7z"/><path d="m30 98.5h5.9v2.8h-5.9z" transform="matrix(.4805 -.877 .877 .4805 -70.4742 80.7823)"/><path d="m33.7 101.2 1.2.5c-.1.2-.1.3-.1.4s.1.1.2.2c.1 0 .4.2.9.4s.8.4.9.4.2.1.3.1.2-.1.3-.2.1-.2 0-.3c0-.1-.2-.1-.4-.2s-.5-.2-.9-.5c-.5-.2-.8-.4-1-.5-.3-.1-.5-.3-.6-.4s-.2-.2-.3-.4 0-.6.2-1c .2-.5.4-.7.7-.8.2-.1.4-.1.7 0s .9.3 1.7.7c.6.3 1 .5 1.2.6.3.2.6.4.6.7.1.2 0 .5-.1.9 0 0 0 .1-.1.2l-1.2-.5c0-.1.1-.2.1-.2v-.1c0-.1-.1-.1-.3-.2-.1-.1-.4-.2-.8-.4-.5-.2-.8-.4-1-.4-.1 0-.2 0-.3.2-.1.1 0 .3.1.3.1.1.5.3 1.3.7.6.3 1.1.5 1.3.7.2.1.4.3.5.4.1.2.2.3.1.5 0 .2-.1.4-.2.7-.2.4-.3.6-.5.8-.1.1-.3.2-.5.2s-.4 0-.6-.1c-.3-.1-.8-.3-1.5-.6-.6-.3-1-.5-1.3-.7s-.5-.3-.6-.5-.2-.3-.2-.5.1-.4.2-.7z"/><path d="m37.5 105.2c-.2 0-.5-.1-.8-.2s-.8-.3-1.6-.7c-.6-.3-1.1-.5-1.4-.7-.4-.2-.6-.4-.8-.7s-.3-.6-.3-.9.1-.6.3-1l .4-.8.1.1c0-.3.1-.5.2-.9.3-.6.6-1 1.1-1.2.3-.1.8-.2 1.2 0 .3.1.9.3 1.8.7.6.3 1.1.5 1.3.7.5.3.8.7.9 1 .1.4.1.8-.2 1.4 0 0 0 .1-.1.2l-.2.5v.1c0 .3-.1.6-.3 1-.2.5-.5.8-.8 1.1-.1.1-.4.2-.8.3z"/><path d="m41.7 101.3 1.3.4-1.3 4.2-1.3-.4z"/><path d="m38.7 102.2h5.9v2.8h-5.9z" transform="matrix(.3047 -.9524 .9524 .3047 -69.7762 111.694)"/><path d="m43.4 102 2.3.5 1.5 3.7h.1l.7-3.2 1.3.3-1 4.3-2.3-.5-1.6-3.7h-.1l-.7 3.2-1.3-.3z"/><path d="m49 108.5-3.3-.8-.9-2.2-.4 1.9-2.8-.6 1.3-5.7 3.4.8.9 2.1.4-1.8 2.7.6z"/><path d="m49.5 103.3 1.5.1 1.3 3.4h.3l1.9-3.2 1.5.1-2.5 4.2-2.1-.2z"/><path d="m53.7 108.9-3-.3-2.3-6.1 3 .3 1.1 2.7 1.5-2.5 3 .3z"/><path d="m55.9 103.8h1.4v4.4h-1.4z"/><path d="m53.7 104.6h5.9v2.8h-5.9z" transform="matrix(.0010797 -1 1 .0010797 -49.392 162.5042)"/><path d="m57.9 106.8 1.3-.1c0 .2.1.4.2.4s.2.1.3.1.4 0 1-.1c.6 0 .9-.1 1-.1s.2 0 .3-.1c.1 0 .1-.2.1-.3s-.1-.2-.1-.3c-.1 0-.2-.1-.4 0-.2 0-.5 0-1.1 0s-.9 0-1.1 0c-.3 0-.6 0-.8 0s-.3-.1-.4-.2c-.2-.2-.3-.5-.3-.9 0-.5 0-.9.2-1.1.1-.2.3-.3.6-.4s.9-.1 1.8-.2c.6-.1 1.1-.1 1.4-.1.4 0 .7.1.9.3s.3.4.3.8v.2l-1.3.1c0-.1 0-.2-.1-.2l-.1-.1c-.1 0-.2 0-.3 0s-.5 0-.9.1c-.6 0-.9.1-1 .1s-.2.1-.2.3.1.2.2.3h1.4 1.4c.2 0 .4.1.6.1.2.1.3.2.4.4s.1.4.2.7c0 .4 0 .7-.1.9s-.2.3-.3.4-.4.2-.6.2c-.3 0-.8.1-1.6.2-.7.1-1.2.1-1.5.1s-.6-.1-.7-.1c-.2-.1-.3-.2-.4-.3s-.1-.4-.2-.7z"/><path d="m59.3 108.9c-.1 0-.1 0-.2 0-.4 0-.7-.1-1-.2-.3-.2-.6-.4-.7-.7-.1-.2-.2-.5-.2-1l-.1-.9h.2c-.1-.2-.2-.5-.2-.9-.1-.7.1-1.2.4-1.6.2-.3.6-.5 1-.6.3-.1 1-.2 1.9-.2.7-.1 1.2-.1 1.5-.1.6 0 1 .2 1.3.5s.5.7.5 1.3v.2.6.1c.1.2.2.6.2 1 0 .5 0 1-.2 1.3-.1.3-.3.5-.6.7-.2.1-.5.2-.9.3-.3.1-.9.1-1.7.2-.4 0-.8 0-1.2 0z"/><path d="m63.4 103.3 1.4-.2.7 4.4-1.4.2z"/><path d="m63 102.4h2.8v5.9h-2.8z" transform="matrix(.9874 -.1585 .1585 .9874 -15.8856 11.5385)"/><path d="m66.3 107.4-1.1-4.3 3.1-.8c.7-.2 1-.3 1.2-.3.3-.1.5-.1.7 0 .1 0 .3.1.4.3.1.1.2.3.2.6.1.3.1.5 0 .7 0 .2-.2.3-.4.4h.5c.2.1.4.4.5.8s.1.6 0 .8c0 .1-.1.2-.2.3s-.3.2-.5.2c-.1 0-.6.2-1.3.3zm.6-3 1.8-.5c.4-.1.6-.2.7-.2.1-.1.1-.2.1-.3 0-.2-.1-.3-.3-.3-.1 0-.3 0-.7.1l-1.7.6zm.4 1.6 1.8-.5c.4-.1.6-.2.7-.2s.1 0 .2-.1.1-.2.1-.4-.1-.3-.3-.3c0 0-.3.1-.8.2l-1.8.5z"/><path d="m65.8 108.2-1.4-5.7 3.8-.9c.9-.2 1.1-.3 1.2-.3.4-.1.7-.1 1 0s .5.3.7.5c.1.2.3.5.3.8.1.4.1.6.1.9.3.2.5.6.6 1.1s.1.9 0 1.2-.3.5-.5.7c-.2.1-.4.2-.7.3-.1 0-.4.1-1.3.4z"/><path d="m71 101.6 1.3-.5 1.4 4.2-1.3.5z"/><path d="m70.9 100.5h2.8v5.9h-2.8z" transform="matrix(.9478 -.3188 .3188 .9478 -29.2096 28.4513)"/><path d="m72.7 101 1.3-.6 1.3 3 2.9-1.3.4 1-4.2 1.8z"/><path d="m74.1 106-2.3-5.3 2.6-1.2 1.3 3 2.9-1.2 1 2.3z"/><path d="m77.2 99.1 1.3-.6 2 4-1.3.6z"/><path d="m77.4 97.8h2.8v5.9h-2.8z" transform="matrix(.8943 -.4474 .4474 .8943 -36.747 45.8996)"/><path d="m80.3 100.9 1.1-.7c.1.2.2.3.3.3s.2 0 .3-.1c.1 0 .4-.2.8-.5.5-.3.8-.5.9-.5.1-.1.2-.1.2-.2.1-.1 0-.2 0-.4-.1-.1-.1-.2-.2-.2s-.2.1-.4.2c-.1.1-.5.3-.9.5-.5.3-.8.4-.9.5-.3.2-.5.3-.7.3s-.3 0-.5 0c-.2-.1-.5-.3-.7-.7-.3-.4-.4-.8-.3-1.1 0-.2.2-.4.4-.6s.7-.5 1.5-1c .6-.3 1-.6 1.2-.7.4-.2.7-.2.9-.1s.4.3.6.6c0 0 .1.1.1.2l-1.1.7c-.1-.1-.1-.2-.2-.2h-.1c-.1 0-.2 0-.3.1s-.4.2-.8.5c-.5.3-.8.5-.9.6s-.1.2 0 .4c.1.1.2.2.3.1.1 0 .5-.3 1.3-.7.6-.4 1-.6 1.3-.7.2-.1.4-.2.6-.2s.4.1.5.2.3.3.5.6c.2.4.3.7.3.9s0 .3-.1.5c-.1.1-.2.3-.5.5-.2.2-.7.5-1.4.9-.6.3-1 .6-1.3.7s-.5.2-.7.2-.4 0-.5-.1-.3-.3-.4-.6z"/><path d="m81.3 102.5c-.3 0-.6-.1-.9-.3-.2-.2-.4-.4-.6-.8l-.5-.8.1-.1c-.2-.2-.4-.4-.6-.7-.4-.6-.5-1.1-.4-1.6.1-.4.3-.7.7-1 .3-.2.8-.6 1.6-1.1.6-.4 1-.6 1.3-.7.5-.2 1-.3 1.4-.2s.7.4 1 .9c0 0 .1.1.1.2l.3.5h.1c.2.2.4.4.6.8.3.5.4.9.4 1.2s-.1.6-.2.9c-.1.2-.3.4-.6.6s-.7.5-1.4.9c-.6.4-1 .6-1.4.8-.3.4-.7.5-1 .5zm0-1.4v.7z"/></g><path d="m28.1 93.9 1.2.8-.5 3.6.2.1 3.1-1.9 1.2.8-4.2 2.5-1.7-1.1z" fill="#be1622"/><path d="m33.5 97.4 1.2.7-2.1 3.9-1.2-.7z" fill="#be1622"/><path d="m33.8 100.9 1.2.5c-.1.2-.1.3-.1.4s.1.1.2.2.4.2.9.4.8.4.9.4.2.1.3.1.2-.1.3-.2.1-.2 0-.3c0-.1-.2-.1-.4-.2s-.5-.2-.9-.5c-.5-.2-.8-.4-1-.5-.3-.1-.5-.3-.6-.4s-.2-.2-.3-.4 0-.6.2-1c .2-.5.4-.7.7-.8.2-.1.4-.1.7 0s .9.3 1.7.7c.6.3 1 .5 1.2.6.3.2.6.4.6.6.1.2 0 .5-.1.9 0 0 0 .1-.1.2l-1.2-.5c0-.1.1-.2.1-.2v-.1c0-.1-.1-.1-.3-.2-.1-.1-.4-.2-.8-.4-.5-.2-.8-.4-1-.4-.1 0-.2 0-.3.2-.1.1 0 .3.1.3.1.1.5.3 1.3.7.6.3 1.1.5 1.3.7s.4.3.5.4c.1.2.2.3.1.5 0 .2-.1.4-.2.7-.2.4-.3.6-.5.8-.1.1-.3.2-.5.2s-.4 0-.6-.1c-.3-.1-.8-.3-1.5-.6-.6-.3-1-.5-1.3-.6-.3-.2-.5-.3-.6-.5s-.2-.3-.2-.5.1-.4.2-.7z" fill="#be1622"/><path d="m41.8 101.1 1.3.4-1.3 4.2-1.3-.4z" fill="#be1622"/><path d="m43.5 101.7 2.3.5 1.5 3.7h.1l.7-3.2 1.3.3-1 4.3-2.3-.5-1.5-3.7h-.1l-.7 3.2-1.3-.3z" fill="#be1622"/><path d="m49.5 103.1 1.5.1 1.3 3.4h.2l1.9-3.1 1.5.1-2.5 4.2-2-.2z" fill="#be1622"/><path d="m55.9 103.5h1.4v4.4h-1.4z" fill="#be1622"/><path d="m57.9 106.5 1.3-.1c0 .2.1.4.2.4s.2.1.3.1.4 0 1-.1c.6 0 .9-.1 1-.1s.2 0 .3-.1c.1 0 .1-.2.1-.3s-.1-.2-.1-.3c-.1 0-.2-.1-.4 0-.2 0-.5 0-1 0s-.9 0-1.1 0c-.3 0-.6 0-.7 0-.2 0-.3-.1-.4-.2-.2-.2-.3-.5-.3-.9 0-.5 0-.9.2-1.1.1-.2.3-.3.6-.4s.9-.1 1.8-.2c.6-.1 1.1-.1 1.4-.1.4 0 .7.1.9.3s.3.4.3.8v.2l-1.3.1c0-.1 0-.2-.1-.2l-.1-.1c-.1 0-.2 0-.3 0s-.5 0-.9.1c-.6 0-.9.1-1 .1s-.2.1-.2.3.1.2.2.3h1.4 1.4c.2 0 .4.1.6.1.2.1.3.2.4.4s.1.4.2.7c0 .4 0 .7-.1.9s-.2.3-.3.4-.3.1-.6.2c-.3 0-.8.1-1.6.2-.7.1-1.1.1-1.5.1-.3 0-.6-.1-.7-.1-.2-.1-.3-.2-.4-.3s-.1-.4-.2-.7z" fill="#be1622"/><path d="m63.4 103 1.4-.2.7 4.3-1.4.2z" fill="#be1622"/><path d="m66.3 107.1-1.1-4.3 3.1-.8c.7-.2 1-.2 1.2-.3.3-.1.5-.1.7 0 .1 0 .3.1.4.3.1.1.2.3.2.6.1.3.1.5 0 .7 0 .2-.2.3-.4.4h.5c.2.1.4.4.5.8.1.3.1.6 0 .8 0 .1-.1.2-.2.3s-.3.2-.5.2c-.1 0-.6.2-1.3.3zm.6-2.9 1.8-.5c.4-.1.6-.2.7-.2.1-.1.1-.2.1-.3 0-.2-.1-.3-.3-.3-.1 0-.3 0-.7.1l-1.8.5zm.4 1.5 1.8-.5c.4-.1.6-.2.7-.2s.1 0 .2-.1.1-.2.1-.4-.1-.3-.3-.3c0 0-.3.1-.8.2l-1.8.5z" fill="#be1622"/><path d="m70.9 101.3 1.3-.4 1.4 4.2-1.3.4z" fill="#be1622"/><path d="m72.7 100.8 1.3-.6 1.3 3 2.9-1.2.4 1-4.2 1.8z" fill="#be1622"/><path d="m77 98.8 1.3-.6 2 3.9-1.3.6z" fill="#be1622"/><path d="m80.1 100.6 1.1-.7c.1.2.2.3.3.3s.2 0 .3-.1c.1 0 .4-.2.8-.5.5-.3.8-.5.9-.5.1-.1.2-.1.2-.2.1-.1 0-.2 0-.4-.1-.1-.1-.2-.2-.2s-.2.1-.4.2c-.1.1-.4.3-.9.5-.5.3-.8.4-.9.5-.3.2-.5.3-.7.3s-.3 0-.5 0c-.2-.1-.5-.3-.7-.7-.3-.4-.4-.8-.3-1 0-.2.2-.4.4-.6s.7-.5 1.5-1c .6-.3 1-.6 1.2-.7.4-.2.7-.2.9-.1s.4.3.6.6c0 0 .1.1.1.2l-1.1.7c-.1-.1-.1-.2-.2-.2h-.1c-.1 0-.2 0-.3.1s-.4.2-.8.5c-.5.3-.8.5-.9.6s-.1.2 0 .3.2.2.3.1c.1 0 .5-.3 1.3-.7.6-.3 1-.6 1.3-.7.2-.1.4-.1.6-.2.2 0 .4.1.5.2s.3.3.5.6c.2.4.3.6.3.9 0 .2 0 .3-.1.5-.1.1-.2.3-.5.5-.2.2-.7.5-1.4.9-.6.3-1 .6-1.3.7s-.5.2-.7.2-.4 0-.5-.1-.3-.3-.4-.6z" fill="#be1622"/><path d="m5.8 62.5-.2-1.4 3.3-.4-.3-3.2 1.1-.1.5 4.6z" fill="#fff" stroke="#fff" stroke-miterlimit="10" stroke-width="1.144"/><path d="m5.3 54.1c0-1 0-1.6.1-2 .1-.5.3-.8.8-1 .3-.1.8-.1 1.5-.1s1.2.1 1.5.1c.4.1.7.5.7 1 0 .4.1 1 0 2 0 1-.1 1.6-.1 2-.1.5-.3.8-.8 1-.3.1-.8.1-1.5.1s-1.2-.1-1.5-.1c-.4-.1-.7-.5-.7-1 0-.4-.1-1 0-2zm1.1 0v1.3c0 .2.1.3.3.3s.5.1.9.1h.6c.2-.1.4-.2.4-.5 0-.2 0-.6.1-1.2 0-.6 0-.9 0-1.1s-.1-.3-.1-.4c-.1-.1-.1-.1-.3-.2-.1 0-.3 0-.6-.1-.3 0-.6 0-.7 0-.2 0-.3.1-.3.1-.1.1-.2.2-.2.4 0 .3-.1.7-.1 1.3z" fill="#fff" stroke="#fff" stroke-miterlimit="10" stroke-width="1.144"/><path d="m8.8 46.2.2-1.4c.2 0 .4 0 .4.1.3.1.6.1.8.3.2.1.3.4.3.7s0 .9-.1 1.7-.2 1.4-.3 1.8-.2.6-.3.8c-.1.1-.2.3-.4.3-.2.1-.4.1-.6.1s-.6-.1-1.1-.1c-.5-.1-.9-.1-1.1-.2s-.4-.1-.5-.2c-.3-.2-.4-.4-.4-.8s0-1.2.2-2.3c.1-.6.2-1 .2-1.2.1-.3.1-.5.2-.6.1-.2.3-.3.5-.4s.5-.1.8 0h .2l-.2 1.4c-.1 0-.2 0-.3 0s-.1 0-.1.1c-.1 0-.1.2-.2.4s-.1.5-.2 1c-.1.4-.1.7-.1.9s0 .3.1.4.2.2.3.2c.1.1.4.1.7.2s.6.1.7.1.3 0 .3-.1c.1-.1.1-.2.2-.3 0-.2.1-.5.2-.9.1-.5.1-.9.1-1 0-.2 0-.3-.1-.4.1-.5-.1-.5-.4-.6z" fill="#fff" stroke="#fff" stroke-miterlimit="10" stroke-width="1.144"/><path d="m6.5 43.6.4-1.3 2 .6c.5.1.7.2.9.2s.3-.1.4-.2c.1-.2.2-.5.4-1.1.1-.5.2-.8.2-1s0-.3 0-.4-.1-.1-.2-.2c-.1 0-.2-.1-.4-.2s-.3-.1-.5-.2l-2-.6.4-1.3 2 .6c.7.2 1.1.4 1.3.5.3.2.6.4.6.7v.8c-.1.3-.2.8-.4 1.5-.2.5-.3.9-.4 1.2s-.2.5-.3.7c-.2.4-.6.6-1.1.6-.2 0-.3 0-.5-.1-.1 0-.5-.1-1-.3z" fill="#fff" stroke="#fff" stroke-miterlimit="10" stroke-width="1.144"/><path d="m11.2 38.3.5-1.2c.2.1.4.1.4 0 .1 0 .1-.1.2-.2 0-.1.2-.4.4-.9s.4-.9.4-1 .1-.2.1-.3-.1-.2-.3-.3c-.1-.1-.2-.1-.3 0-.1 0-.1.2-.2.4s-.2.5-.5 1c-.2.5-.4.8-.5 1-.1.3-.3.5-.4.7-.1.1-.2.2-.4.3s-.6 0-1-.2c-.5-.2-.8-.4-.9-.7.1-.1.1-.4.1-.7.1-.3.3-.9.7-1.7.3-.6.5-1 .6-1.3.2-.4.4-.6.7-.6s.5 0 .9.1c0 0 .1 0 .2.1l-.5 1.2c-.1 0-.2-.1-.2-.1h-.1c-.1 0-.1.1-.2.3s-.2.4-.4.9-.4.9-.4 1 0 .2.2.3c.1.1.3 0 .3-.1.1-.1.3-.5.7-1.3.3-.7.5-1.1.6-1.3s.3-.4.4-.5c.2-.1.3-.2.5-.2s.4.1.7.2c.4.2.7.3.8.5.1.1.2.3.2.5s0 .4-.1.6c-.1.3-.3.8-.6 1.5-.3.6-.5 1.1-.6 1.4-.2.3-.3.5-.5.6s-.3.2-.5.2-.4-.1-.7-.2z" fill="#fff" stroke="#fff" stroke-miterlimit="10" stroke-width="1.144"/><path d="m10.9 31.6 2.7-4.7 1 .6-1 1.7 2.9 1.7-.7 1.2-2.9-1.7-1 1.7z" fill="#fff" stroke="#fff" stroke-miterlimit="10" stroke-width="1.144"/><path d="m19.9 23.2.9-1.1c.2.1.3.2.3.3.3.2.4.4.5.6s.1.5-.1.8-.5.8-1 1.4c-.5.7-.9 1.1-1.2 1.4s-.5.4-.7.5-.3.1-.5.1-.4-.1-.6-.3c-.2-.1-.5-.3-.9-.7-.4-.3-.7-.6-.9-.7-.2-.2-.3-.3-.3-.4-.1-.3-.1-.6.1-.9s.6-1 1.4-1.9c.4-.4.6-.8.8-1s .4-.3.5-.4c.2-.1.4-.1.6-.1.2.1.4.2.7.4 0 0 .1.1.2.1l-.9 1.1c-.1-.1-.2-.1-.3-.2h-.1c-.1 0-.2.1-.3.2-.2.2-.4.4-.6.7-.3.3-.4.6-.5.7s-.1.3-.1.3c0 .1.1.2.2.3s.3.3.5.5c.3.2.5.4.6.4.1.1.2.1.3.1s.2-.1.3-.2.3-.3.6-.7.5-.7.6-.8.1-.3.1-.3c.1.2 0 0-.2-.2z" fill="#fff" stroke="#fff" stroke-miterlimit="10" stroke-width="1.144"/><path d="m19.3 19.8 1-1 2.3 2.4 2.3-2.2.8.8-3.3 3.2z" fill="#fff" stroke="#fff" stroke-miterlimit="10" stroke-width="1.144"/><path d="m29.9 16.6-.8-.4-2.3 1.8.1.8-1.2 1-.8-5 1.7-1.3 4.6 2.2zm-1.7-.9-1.7-.8-.2.2.3 1.9z" fill="#fff" stroke="#fff" stroke-miterlimit="10" stroke-width="1.144"/><path d="m29.1 11.7 2.1-1.2 3.7 1.8.1-.1-1.6-2.9 1.2-.7 2.2 3.9-2.2 1.3-3.7-1.8-.1.1 1.6 2.9-1.2.7z" fill="#fff" stroke="#fff" stroke-miterlimit="10" stroke-width="1.144"/><path d="m37.2 12.5-1.6-4.2 3-1.1c.5-.2.9-.3 1.1-.4s.4-.1.5-.1c.5-.1.8.1 1.1.4.1.1.2.3.3.4.1.2.2.4.3.8s.2.7.3.9.1.4.1.6c0 .4-.2.7-.5 1-.2.1-.4.2-.6.3s-.5.2-1 .4zm.8-1.6 1.8-.7c.3-.1.6-.2.7-.3s.2-.2.3-.2c0-.1.1-.2 0-.3 0-.1-.1-.3-.2-.6s-.2-.5-.3-.6-.2-.2-.2-.3c-.1 0-.2-.1-.4 0-.1 0-.4.1-.8.3l-1.7.6z" fill="#fff" stroke="#fff" stroke-miterlimit="10" stroke-width="1.144"/><path d="m42.1 5.9 4.8-1.2.2 1-3.5.8.2.6 3.3-.8.2 1-3.3.8.2.7 3.5-.9.3 1-4.9 1.2z" fill="#fff" stroke="#fff" stroke-miterlimit="10" stroke-width="1.144"/><path d="m47.9 7.6 1.3-.2c0 .2.1.4.2.4h.3s.4 0 1-.1.9-.1 1-.1.2 0 .3-.1.1-.2.1-.4c0-.1-.1-.2-.1-.3-.1 0-.2 0-.4 0s-.5 0-1.1.1c-.6 0-.9.1-1.1.1-.3 0-.6 0-.8 0s-.3-.1-.4-.2c-.3 0-.4-.3-.4-.8-.1-.5 0-.9.2-1.1.1-.2.3-.3.6-.4s.9-.2 1.8-.3c.7-.1 1.1-.1 1.4-.1.4 0 .7.1.9.2.2.2.3.4.3.8v.2l-1.3.2c0-.1 0-.2-.1-.3s-.1-.1-.1-.1c-.1 0-.2 0-.3 0s-.5 0-.9.1c-.6.1-.9.1-1 .2s-.2.2-.2.3c0 .2.1.2.2.3.1 0 .6 0 1.4-.1.7-.1 1.2-.1 1.5-.1.2 0 .4 0 .6.1s.3.2.4.4.1.4.2.7c0 .4 0 .7-.1 1-.1.2-.2.3-.3.4s-.3.2-.6.2c-.3.1-.8.1-1.6.2-.7.1-1.2.1-1.5.1s-.6 0-.7-.1c-.2-.1-.3-.2-.4-.3s-.1-.4-.2-.7z" fill="#fff" stroke="#fff" stroke-miterlimit="10" stroke-width="1.144"/><path d="m53.6 4h5.4v1.1h-2v3.3h-1.4v-3.3h-2z" fill="#fff" stroke="#fff" stroke-miterlimit="10" stroke-width="1.144"/><path d="m59.6 4.1 1.4.1-.4 4.5-1.4-.1z" fill="#fff" stroke="#fff" stroke-miterlimit="10" stroke-width="1.144"/><path d="m62 4.2 2.4.4 1.7 3.7h.1l.5-3.3 1.4.2-.8 4.4-2.3-.4-1.7-3.7h-.1l-.6 3.3-1.4-.2z" fill="#fff" stroke="#fff" stroke-miterlimit="10" stroke-width="1.144"/><path d="m69.2 5.6 4.7 1.5-.3 1-3.5-1.1-.2.6 3.3 1-.3.9-3.3-1-.2.7 3.5 1.1-.3 1-4.8-1.4z" fill="#fff" stroke="#fff" stroke-miterlimit="10" stroke-width="1.144"/><path d="m78.8 14.2v-.9l-2.7-1.3-.7.5-1.4-.7 4.1-3 1.9 1 .1 5.1zm0-1.9v-1.9l-.2-.1-1.5 1.1z" fill="#fff" stroke="#fff" stroke-miterlimit="10" stroke-width="1.144"/><path d="m84.6 15.9 1.1.8c-.1.2-.2.3-.2.4-.2.3-.4.5-.6.6s-.5.1-.8 0-.8-.4-1.5-.9-1.2-.8-1.5-1.1c-.3-.2-.5-.4-.6-.6s-.1-.3-.1-.5.1-.4.2-.6.3-.5.6-.9.5-.7.7-.9c.1-.2.3-.3.4-.4.3-.2.6-.2.9 0 .4.1 1 .5 2 1.2.5.3.8.6 1 .7.2.2.3.3.4.5s.2.4.1.6c0 .2-.2.5-.4.8 0 0-.1.1-.1.2l-1.1-.8c.1-.1.1-.2.1-.3v-.1c0-.1-.1-.2-.3-.3s-.4-.3-.8-.6c-.4-.2-.6-.4-.7-.5s-.3-.1-.4-.1-.2.1-.3.2-.3.3-.5.6-.3.5-.4.6-.1.2 0 .3c0 .1.1.2.2.3s.4.3.7.5c.4.3.7.5.9.6s.3.1.4.1c.3 0 .5-.2.6-.4z" fill="#fff" stroke="#fff" stroke-miterlimit="10" stroke-width="1.144"/><path d="m87.8 14.8 4.1 3.6-.8.9-1.5-1.3-2.2 2.5-1.1-.9 2.2-2.5-1.5-1.3z" fill="#fff" stroke="#fff" stroke-miterlimit="10" stroke-width="1.144"/><path d="m92.2 18.8 1 1-3.2 3.1-1-1z" fill="#fff" stroke="#fff" stroke-miterlimit="10" stroke-width="1.144"/><path d="m95.9 22.7c.6.8 1 1.3 1.2 1.6.3.5.3.9 0 1.2-.2.2-.5.6-1.1 1-.5.4-1 .7-1.2.8-.4.2-.8.1-1.2-.3-.3-.3-.7-.8-1.3-1.5-.6-.8-1-1.3-1.2-1.6-.3-.5-.3-.9 0-1.2.2-.2.5-.6 1.1-1.1.5-.4.9-.7 1.2-.8.4-.2.8-.1 1.2.3.2.4.7.9 1.3 1.6zm-.9.8c-.5-.6-.7-.9-.9-1-.1-.1-.3-.1-.4-.1-.2.1-.4.2-.8.5-.2.2-.4.3-.4.4-.1.2-.1.4 0 .6s.3.5.7.9c.3.4.6.7.7.8s.2.2.4.2h.3c.1-.1.3-.2.5-.3.3-.2.4-.4.5-.5s.2-.2.2-.3 0-.2-.1-.4c-.1 0-.3-.3-.7-.8z" fill="#fff" stroke="#fff" stroke-miterlimit="10" stroke-width="1.144"/><path d="m98.3 26 1.2 2.1-1.7 3.7.1.1 2.9-1.8.7 1.2-3.8 2.3-1.2-2 1.7-3.7-.1-.1-2.9 1.7-.7-1.2z" fill="#fff" stroke="#fff" stroke-miterlimit="10" stroke-width="1.144"/><path d="m102.6 33.6 2 5.1-1.1.4-.7-1.9-3.1 1.2-.5-1.3 3.1-1.2-.7-1.9z" fill="#fff" stroke="#fff" stroke-miterlimit="10" stroke-width="1.144"/><path d="m104.8 39.4 1.3 4.8-1 .3-.9-3.5-.6.2.9 3.3-1 .3-.9-3.3-.7.2 1 3.5-1 .3-1.3-4.8z" fill="#fff" stroke="#fff" stroke-miterlimit="10" stroke-width="1.144"/><path d="m102.6 50.5.7-.5-.4-2.9-.8-.3-.2-1.5 4.8 1.7.3 2.1-4.1 2.9zm1.6-1.1 1.6-1.1v-.3l-1.8-.6z" fill="#fff" stroke="#fff" stroke-miterlimit="10" stroke-width="1.144"/><path d="m107.3 52.1-.1 2.5-2.9 1.3 2.9 1.4v2.5l-4.5-.1v-1.3l3.4.1v-.2l-3.3-1.8v-1.1l3.4-1.6v-.2h-3.4v-1.3z" fill="#fff" stroke="#fff" stroke-miterlimit="10" stroke-width="1.144"/><path d="m5.8 62.5-.2-1.4 3.3-.4-.3-3.2 1.1-.1.5 4.6z" fill="#be1622"/><path d="m5.3 54.1c0-1 0-1.6.1-2 .1-.5.3-.8.8-1 .3-.1.8-.1 1.5-.1s1.2.1 1.5.1c.4.1.7.5.7 1 0 .4.1 1 0 2 0 1-.1 1.6-.1 2-.1.5-.3.8-.8 1-.3.1-.8.1-1.5.1s-1.2-.1-1.5-.1c-.4-.1-.7-.5-.7-1 0-.4-.1-1 0-2zm1.1 0v1.3c0 .2.1.3.3.3s.5.1.9.1h.6c.2-.1.4-.2.4-.5 0-.2 0-.6.1-1.2 0-.6 0-.9 0-1.1s-.1-.3-.1-.4c-.1-.1-.1-.1-.3-.2-.1 0-.3 0-.6-.1-.3 0-.6 0-.7 0-.2 0-.3.1-.3.1-.1.1-.2.2-.2.4 0 .3-.1.7-.1 1.3z" fill="#be1622"/><path d="m8.8 46.2.2-1.4c.2 0 .4 0 .4.1.3.1.6.1.8.3.2.1.3.4.3.7s0 .9-.1 1.7-.2 1.4-.3 1.8-.2.6-.3.8c-.1.1-.2.3-.4.3-.2.1-.4.1-.6.1s-.6-.1-1.1-.1c-.5-.1-.9-.1-1.1-.2s-.4-.1-.5-.2c-.3-.2-.4-.4-.4-.8s0-1.2.2-2.3c.1-.6.2-1 .2-1.2.1-.3.1-.5.2-.6.1-.2.3-.3.5-.4s.5-.1.8 0h .2l-.2 1.4c-.1 0-.2 0-.3 0s-.1 0-.1.1c-.1 0-.1.2-.2.4s-.1.5-.2 1c-.1.4-.1.7-.1.9s0 .3.1.4.2.2.3.2c.1.1.4.1.7.2s.6.1.7.1.3 0 .3-.1c.1-.1.1-.2.2-.3 0-.2.1-.5.2-.9.1-.5.1-.9.1-1 0-.2 0-.3-.1-.4.1-.5-.1-.5-.4-.6z" fill="#be1622"/><path d="m6.5 43.6.4-1.3 2 .6c.5.1.7.2.9.2s.3-.1.4-.2c.1-.2.2-.5.4-1.1.1-.5.2-.8.2-1s0-.3 0-.4-.1-.1-.2-.2c-.1 0-.2-.1-.4-.2s-.3-.1-.5-.2l-2-.6.4-1.3 2 .6c.7.2 1.1.4 1.3.5.3.2.6.4.6.7v.8c-.1.3-.2.8-.4 1.5-.2.5-.3.9-.4 1.2s-.2.5-.3.7c-.2.4-.6.6-1.1.6-.2 0-.3 0-.5-.1-.1 0-.5-.1-1-.3z" fill="#be1622"/><path d="m11.2 38.3.5-1.2c.2.1.4.1.4 0 .1 0 .1-.1.2-.2 0-.1.2-.4.4-.9s.4-.9.4-1 .1-.2.1-.3-.1-.2-.3-.3c-.1-.1-.2-.1-.3 0-.1 0-.1.2-.2.4s-.2.5-.5 1c-.2.5-.4.8-.5 1-.1.3-.3.5-.4.7-.1.1-.2.2-.4.3s-.6 0-1-.2c-.5-.2-.8-.4-.9-.7.1-.1.1-.4.1-.7.1-.3.3-.9.7-1.7.3-.6.5-1 .6-1.3.2-.4.4-.6.7-.6s.5 0 .9.1c0 0 .1 0 .2.1l-.5 1.2c-.1 0-.2-.1-.2-.1h-.1c-.1 0-.1.1-.2.3s-.2.4-.4.9-.4.9-.4 1 0 .2.2.3c.1.1.3 0 .3-.1.1-.1.3-.5.7-1.3.3-.7.5-1.1.6-1.3s.3-.4.4-.5c.2-.1.3-.2.5-.2s.4.1.7.2c.4.2.7.3.8.5.1.1.2.3.2.5s0 .4-.1.6c-.1.3-.3.8-.6 1.5-.3.6-.5 1.1-.6 1.4-.2.3-.3.5-.5.6s-.3.2-.5.2-.4-.1-.7-.2z" fill="#be1622"/><path d="m10.9 31.6 2.7-4.7 1 .6-1 1.7 2.9 1.7-.7 1.2-2.9-1.7-1 1.7z" fill="#be1622"/><path d="m19.9 23.2.9-1.1c.2.1.3.2.3.3.3.2.4.4.5.6s.1.5-.1.8-.5.8-1 1.4c-.5.7-.9 1.1-1.2 1.4s-.5.4-.7.5-.3.1-.5.1-.4-.1-.6-.3c-.2-.1-.5-.3-.9-.7-.4-.3-.7-.6-.9-.7-.2-.2-.3-.3-.3-.4-.1-.3-.1-.6.1-.9s.6-1 1.4-1.9c.4-.4.6-.8.8-1s .4-.3.5-.4c.2-.1.4-.1.6-.1.2.1.4.2.7.4 0 0 .1.1.2.1l-.9 1.1c-.1-.1-.2-.1-.3-.2h-.1c-.1 0-.2.1-.3.2-.2.2-.4.4-.6.7-.3.3-.4.6-.5.7s-.1.3-.1.3c0 .1.1.2.2.3s.3.3.5.5c.3.2.5.4.6.4.1.1.2.1.3.1s.2-.1.3-.2.3-.3.6-.7.5-.7.6-.8.1-.3.1-.3c.1.2 0 0-.2-.2z" fill="#be1622"/><path d="m19.3 19.8 1-1 2.3 2.4 2.3-2.2.8.8-3.3 3.2z" fill="#be1622"/><path d="m29.9 16.6-.8-.4-2.3 1.8.1.8-1.2 1-.8-5 1.7-1.3 4.6 2.2zm-1.7-.9-1.7-.8-.2.2.3 1.9z" fill="#be1622"/><path d="m29.1 11.7 2.1-1.2 3.7 1.8.1-.1-1.6-2.9 1.2-.7 2.2 3.9-2.2 1.3-3.7-1.8-.1.1 1.6 2.9-1.2.7z" fill="#be1622"/><path d="m37.2 12.5-1.6-4.2 3-1.1c.5-.2.9-.3 1.1-.4s.4-.1.5-.1c.5-.1.8.1 1.1.4.1.1.2.3.3.4.1.2.2.4.3.8s.2.7.3.9.1.4.1.6c0 .4-.2.7-.5 1-.2.1-.4.2-.6.3s-.5.2-1 .4zm.8-1.6 1.8-.7c.3-.1.6-.2.7-.3s.2-.2.3-.2c0-.1.1-.2 0-.3 0-.1-.1-.3-.2-.6s-.2-.5-.3-.6-.2-.2-.2-.3c-.1 0-.2-.1-.4 0-.1 0-.4.1-.8.3l-1.7.6z" fill="#be1622"/><path d="m42.1 5.9 4.8-1.2.2 1-3.5.8.2.6 3.3-.8.2 1-3.3.8.2.7 3.5-.9.3 1-4.9 1.2z" fill="#be1622"/><path d="m47.9 7.6 1.3-.2c0 .2.1.4.2.4h.3s.4 0 1-.1.9-.1 1-.1.2 0 .3-.1.1-.2.1-.4c0-.1-.1-.2-.1-.3-.1 0-.2 0-.4 0s-.5 0-1.1.1c-.6 0-.9.1-1.1.1-.3 0-.6 0-.8 0s-.3-.1-.4-.2c-.3 0-.4-.3-.4-.8-.1-.5 0-.9.2-1.1.1-.2.3-.3.6-.4s.9-.2 1.8-.3c.7-.1 1.1-.1 1.4-.1.4 0 .7.1.9.2.2.2.3.4.3.8v.2l-1.3.2c0-.1 0-.2-.1-.3s-.1-.1-.1-.1c-.1 0-.2 0-.3 0s-.5 0-.9.1c-.6.1-.9.1-1 .2s-.2.2-.2.3c0 .2.1.2.2.3.1 0 .6 0 1.4-.1.7-.1 1.2-.1 1.5-.1.2 0 .4 0 .6.1s.3.2.4.4.1.4.2.7c0 .4 0 .7-.1 1-.1.2-.2.3-.3.4s-.3.2-.6.2c-.3.1-.8.1-1.6.2-.7.1-1.2.1-1.5.1s-.6 0-.7-.1c-.2-.1-.3-.2-.4-.3s-.1-.4-.2-.7z" fill="#be1622"/><path d="m53.6 4h5.4v1.1h-2v3.3h-1.4v-3.3h-2z" fill="#be1622"/><path d="m59.6 4.1 1.4.1-.4 4.5-1.4-.1z" fill="#be1622"/><path d="m62 4.2 2.4.4 1.7 3.7h.1l.5-3.3 1.4.2-.8 4.4-2.3-.4-1.7-3.7h-.1l-.6 3.3-1.4-.2z" fill="#be1622"/><path d="m69.2 5.6 4.7 1.5-.3 1-3.5-1.1-.2.6 3.3 1-.3.9-3.3-1-.2.7 3.5 1.1-.3 1-4.8-1.4z" fill="#be1622"/><path d="m78.8 14.2v-.9l-2.7-1.3-.7.5-1.4-.7 4.1-3 1.9 1 .1 5.1zm0-1.9v-1.9l-.2-.1-1.5 1.1z" fill="#be1622"/><path d="m84.6 15.9 1.1.8c-.1.2-.2.3-.2.4-.2.3-.4.5-.6.6s-.5.1-.8 0-.8-.4-1.5-.9-1.2-.8-1.5-1.1c-.3-.2-.5-.4-.6-.6s-.1-.3-.1-.5.1-.4.2-.6.3-.5.6-.9.5-.7.7-.9c.1-.2.3-.3.4-.4.3-.2.6-.2.9 0 .4.1 1 .5 2 1.2.5.3.8.6 1 .7.2.2.3.3.4.5s.2.4.1.6c0 .2-.2.5-.4.8 0 0-.1.1-.1.2l-1.1-.8c.1-.1.1-.2.1-.3v-.1c0-.1-.1-.2-.3-.3s-.4-.3-.8-.6c-.4-.2-.6-.4-.7-.5s-.3-.1-.4-.1-.2.1-.3.2-.3.3-.5.6-.3.5-.4.6-.1.2 0 .3c0 .1.1.2.2.3s.4.3.7.5c.4.3.7.5.9.6s.3.1.4.1c.3 0 .5-.2.6-.4z" fill="#be1622"/><path d="m87.8 14.8 4.1 3.6-.8.9-1.5-1.3-2.2 2.5-1.1-.9 2.2-2.5-1.5-1.3z" fill="#be1622"/><path d="m92.2 18.8 1 1-3.2 3.1-1-1z" fill="#be1622"/><path d="m95.9 22.7c.6.8 1 1.3 1.2 1.6.3.5.3.9 0 1.2-.2.2-.5.6-1.1 1-.5.4-1 .7-1.2.8-.4.2-.8.1-1.2-.3-.3-.3-.7-.8-1.3-1.5-.6-.8-1-1.3-1.2-1.6-.3-.5-.3-.9 0-1.2.2-.2.5-.6 1.1-1.1.5-.4.9-.7 1.2-.8.4-.2.8-.1 1.2.3.2.4.7.9 1.3 1.6zm-.9.8c-.5-.6-.7-.9-.9-1-.1-.1-.3-.1-.4-.1-.2.1-.4.2-.8.5-.2.2-.4.3-.4.4-.1.2-.1.4 0 .6s.3.5.7.9c.3.4.6.7.7.8s.2.2.4.2h.3c.1-.1.3-.2.5-.3.3-.2.4-.4.5-.5s.2-.2.2-.3 0-.2-.1-.4c-.1 0-.3-.3-.7-.8z" fill="#be1622"/><path d="m98.3 26 1.2 2.1-1.7 3.7.1.1 2.9-1.8.7 1.2-3.8 2.3-1.2-2 1.7-3.7-.1-.1-2.9 1.7-.7-1.2z" fill="#be1622"/><path d="m102.6 33.6 2 5.1-1.1.4-.7-1.9-3.1 1.2-.5-1.3 3.1-1.2-.7-1.9z" fill="#be1622"/><path d="m104.8 39.4 1.3 4.8-1 .3-.9-3.5-.6.2.9 3.3-1 .3-.9-3.3-.7.2 1 3.5-1 .3-1.3-4.8z" fill="#be1622"/><path d="m102.6 50.5.7-.5-.4-2.9-.8-.3-.2-1.5 4.8 1.7.3 2.1-4.1 2.9zm1.6-1.1 1.6-1.1v-.3l-1.8-.6z" fill="#be1622"/><path d="m107.3 52.1-.1 2.5-2.9 1.3 2.9 1.4v2.5l-4.5-.1v-1.3l3.4.1v-.2l-3.3-1.8v-1.1l3.4-1.6v-.2h-3.4v-1.3z" fill="#be1622"/></svg>