<?xml version="1.0" encoding="UTF-8"?>
<svg id="Capa_2" xmlns="http://www.w3.org/2000/svg" version="1.1" viewBox="0 0 566.9 566.9">
  <!-- Generator: Adobe Illustrator 29.0.1, SVG Export Plug-In . SVG Version: 2.1.0 Build 192)  -->
  <defs>
    <style>
      .st0 {
        fill: #010101;
      }

      .st1 {
        fill: #fff;
      }

      .st2 {
        isolation: isolate;
      }

      .st3 {
        fill: #fffdfc;
      }

      .st4 {
        fill: #fefefd;
      }

      .st5 {
        fill: #fefcfc;
      }

      .st6 {
        fill: #fefdfd;
      }

      .st7 {
        fill: #fefdfc;
      }

      .st8 {
        fill: #fefefe;
      }

      .st9 {
        fill: #e73731;
      }
    </style>
  </defs>
  <circle class="st9" cx="283.5" cy="283.5" r="279.2"/>
  <circle class="st0" cx="283.5" cy="283.5" r="268.9"/>
  <circle class="st9" cx="283.5" cy="283.5" r="262"/>
  <circle class="st0" cx="283.5" cy="283.5" r="178.4"/>
  <circle class="st9" cx="283.5" cy="283.5" r="171.4"/>
  <circle class="st0" cx="283.5" cy="283.5" r="165.7"/>
  <g class="st2">
    <g class="st2">
      <path class="st3" d="M110,407.8l2.8,3.8-24.4,17.8-2.8-3.8,24.4-17.8Z"/>
    </g>
  </g>
  <g class="st2">
    <g class="st2">
      <path class="st3" d="M115.9,416.3l2.5,2.8-7.3,19.2,19.8-5.2,2.5,2.8-22.5,20.1-2.9-3.2,13.9-12.4c.2-.2.6-.5,1-.8.4-.3.9-.7,1.5-1.2-.6.3-1.2.5-1.8.8-.5.2-1,.4-1.4.5l-16.3,4.4-.6-.7,6.3-15.7c.2-.5.4-1,.6-1.5.2-.5.5-1,.9-1.5-.9.9-1.7,1.6-2.3,2.2l-13.9,12.4-2.5-2.8,22.5-20.1Z"/>
    </g>
  </g>
  <g class="st2">
    <g class="st2">
      <path class="st3" d="M137.1,439.2l13.1,11.2c1.2,1,1.8,2.1,1.7,3.3,0,1.2-.7,2.5-2.1,4.1l-4.4,5.1c-1.4,1.6-2.6,2.5-3.8,2.7-1.1.2-2.3-.2-3.5-1.2l-9.6-8.2-7.7,8.9-3.5-3,19.7-22.9ZM137.2,446.1l-5.2,6.1,8,6.9c.6.5,1.1.7,1.5.7.4,0,1-.4,1.7-1.2l2.1-2.4c.7-.8,1-1.4.9-1.8,0-.4-.4-.9-.9-1.4l-8-6.9Z"/>
    </g>
  </g>
  <g class="st2">
    <g class="st2">
      <path class="st3" d="M156.1,454.9l16.9,11.7-2.9,4.2-13.1-9.1-3.8,5.5,7.6,5.3-2.9,4.2-7.6-5.3-4.3,6.2,13.2,9.2-3.2,4.7-17.1-11.8,17.2-24.8Z"/>
    </g>
  </g>
  <g class="st2">
    <g class="st2">
      <path class="st3" d="M176.1,468.3l15.3,7.9c1.4.7,2.2,1.6,2.4,2.8.2,1.1-.1,2.6-1.1,4.5l-3.3,6.3c-1,1.9-2,3-3,3.5-1.1.5-2.3.3-3.7-.4l-2.4-1.2,3,14.4-6-3.1-2-13.9-3.9-2-5.2,10.1-4.1-2.1,13.9-26.8ZM177.8,475l-3.9,7.5,9.4,4.8c.6.3,1.2.5,1.6.3.4-.1.9-.6,1.4-1.5l1.7-3.2c.5-.9.6-1.6.5-2-.2-.4-.6-.8-1.2-1.1l-9.4-4.8Z"/>
    </g>
  </g>
  <g class="st2">
    <g class="st2">
      <path class="st3" d="M200.1,480l4.3,1.8-11.5,27.9-4.3-1.8,11.5-27.9Z"/>
    </g>
  </g>
  <g class="st2">
    <g class="st2">
      <path class="st3" d="M216.9,486.3l4.3,1.4,2,32.3-5-1.6-.3-7-12.2-3.8-4.2,5.6-4.5-1.4,19.9-25.4ZM217.6,505.5l-.5-13-8,10.4,8.4,2.6Z"/>
    </g>
  </g>
  <g class="st2">
    <g class="st2">
      <path class="st3" d="M233.9,491.2l4.6.9-4.7,24.1,14.8,2.9-1.1,5.6-19.4-3.8,5.8-29.6Z"/>
    </g>
  </g>
  <g class="st2">
    <g class="st2">
      <path class="st3" d="M274.4,526.7l-4.7-.2,1-24.8-9.2-.4.2-5.4,23.2,1-.2,5.4-9.3-.4-1,24.8Z"/>
    </g>
  </g>
  <g class="st2">
    <g class="st2">
      <path class="st3" d="M293.5,496.4l4.5-.3,13.5,29.4-5.3.3-2.8-6.4-12.7.8-1.9,6.7-4.7.3,9.4-30.9ZM301.1,514.1l-5.1-12-3.7,12.5,8.8-.6Z"/>
    </g>
  </g>
  <g class="st2">
    <g class="st2">
      <path class="st3" d="M316.3,499.5l3.6,18.8,14.4-2.8-1.3-6.6-7.5,1.4-1-5.1,12-2.3,2,10.2c.3,1.4.4,2.5.4,3.5,0,1-.1,1.7-.4,2.3-.3.6-.7,1.1-1.3,1.4-.6.3-1.3.6-2.3.8l-13.6,2.6c-.9.2-1.7.2-2.4.1-.7,0-1.2-.4-1.7-.8-.5-.4-.9-1.1-1.2-2-.3-.9-.6-2-.9-3.4l-3-15.6c-.3-1.4-.4-2.5-.4-3.5,0-1,.1-1.7.4-2.3.3-.6.7-1.1,1.3-1.4.6-.3,1.3-.6,2.3-.8l13.6-2.6c.9-.2,1.7-.2,2.3-.2.7,0,1.2.3,1.7.8s.9,1.1,1.2,1.9.6,1.9.9,3.3v.7c.1,0-4.1,2.1-4.1,2.1l-.6-3.3-14.4,2.8Z"/>
    </g>
  </g>
  <g class="st2">
    <g class="st2">
      <path class="st3" d="M349.3,486l16.1-6.2c1.5-.6,2.7-.5,3.7,0,1,.6,1.9,1.9,2.6,3.8l2.4,6.3c.8,2,.9,3.5.6,4.6-.4,1.1-1.3,1.9-2.7,2.5l-11.8,4.5,4.2,11-4.3,1.6-10.8-28.2ZM355.5,489.2l2.9,7.5,9.8-3.8c.7-.3,1.1-.6,1.3-1,.2-.4.1-1.1-.2-2l-1.1-3c-.4-.9-.8-1.5-1.2-1.6-.4-.2-1,0-1.7.2l-9.8,3.8Z"/>
    </g>
  </g>
  <g class="st2">
    <g class="st2">
      <path class="st3" d="M373.3,480.5c-.3-.9-.4-1.7-.3-2.3,0-.6.4-1.2.8-1.7.5-.5,1.1-1,1.9-1.4l13.1-7c.8-.4,1.6-.7,2.2-.8.7-.1,1.3,0,1.9.3s1.2.8,1.8,1.5c.6.7,1.2,1.7,1.9,3l7.5,14c.7,1.2,1.1,2.3,1.4,3.2.3.9.4,1.7.3,2.3s-.4,1.2-.8,1.7c-.5.5-1.1,1-1.9,1.4l-13.1,7c-.8.4-1.6.7-2.2.8-.7.1-1.3,0-1.9-.3-.6-.3-1.2-.8-1.8-1.5-.6-.7-1.2-1.7-1.9-3l-7.5-14c-.7-1.2-1.1-2.3-1.4-3.2ZM400.7,489.5l-9-16.9-13.6,7.3,9,16.9,13.6-7.3Z"/>
    </g>
  </g>
  <g class="st2">
    <g class="st2">
      <path class="st3" d="M397.4,462.9l3.8-2.7,14.1,20,12.3-8.7,3.3,4.6-16.2,11.4-17.4-24.7Z"/>
    </g>
  </g>
  <g class="st2">
    <g class="st2">
      <path class="st3" d="M415.2,449.8l3.6-3,19.2,23.3-3.6,3-19.2-23.3Z"/>
    </g>
  </g>
  <g class="st2">
    <g class="st2">
      <path class="st3" d="M430.1,444.1l13.4,13.6,9-8.9-4.6-4.6,4.4-2.2,2.5,2.5c1,1,1.7,1.9,2.3,2.7.5.8.9,1.5.9,2.2s0,1.3-.3,1.9-.8,1.2-1.5,1.9l-8.5,8.4c-.7.7-1.3,1.1-1.9,1.4-.6.3-1.2.4-1.9.3-.6-.1-1.4-.4-2.1-1-.8-.5-1.7-1.3-2.6-2.3l-11.2-11.3c-1-1-1.7-1.9-2.3-2.7-.5-.8-.9-1.5-.9-2.2,0-.6,0-1.3.3-1.9.3-.6.8-1.2,1.5-1.9l8.5-8.4c.7-.7,1.3-1.1,1.9-1.4.6-.3,1.2-.4,1.9-.3.6,0,1.4.4,2.1,1,.8.5,1.7,1.3,2.6,2.3l2,2-2.5,4.1-4-4.1-9,8.9Z"/>
    </g>
  </g>
  <g class="st2">
    <g class="st2">
      <path class="st3" d="M441.8,424.4l12.8-16.1,4,3.2-9.9,12.5,5.3,4.2,5.8-7.3,4,3.2-5.8,7.3,5.9,4.7,10-12.6,4.4,3.5-12.9,16.3-23.6-18.8Z"/>
    </g>
  </g>
  <path class="st8" d="M79.1,199.7c-11.1-29.6,4-58.3,17-67.6-.7,24.1-2.4,47.1-17,67.6Z"/>
  <path class="st6" d="M64.6,254.9c-17.2-22.7-12.9-54.1-1.2-69.6,5.5,23.6,10.1,46.3,1.2,69.6Z"/>
  <path class="st4" d="M64.7,312.1c-20.8-15.6-27-45.7-19.1-66.9,11.2,21.6,21.8,42.1,19.1,66.9Z"/>
  <path class="st8" d="M44.4,308.5c16.2,17.5,31.6,34.7,35.3,59.3-22.6-10.1-40.6-39.8-35.3-59.3Z"/>
  <path class="st6" d="M106.8,154.1c-1.4-16.3,11.6-37.1,28.8-45.6,2,16-14.7,42.5-28.8,45.6Z"/>
  <path class="st7" d="M134.2,157.2c-11.1,16.6-24,28.4-43,34.2,5.8-18.4,24.7-33.7,43-34.2Z"/>
  <path class="st6" d="M89.8,249.3c3.4,12.8-7.4,40.8-18.8,49-4.5-16.7,4.7-40.7,18.8-49h0Z"/>
  <path class="st6" d="M87.7,300.1c6.4,12.6,3.1,42.4-5.6,52.5-8.5-16-6.2-38.6,5.6-52.5Z"/>
  <path class="st7" d="M105.1,200.4c-.4,13.9-17.8,37.6-30.9,42.7-.5-16.5,14-36.8,30.9-42.7Z"/>
  <path class="st8" d="M487.6,199.4c-10.9-14.1-19.9-50.8-16.4-66.4,16.1,7,25.1,43.4,16.4,66.4Z"/>
  <path class="st4" d="M503.4,185.1c11.8,15.9,15.9,47.5-1.2,69.7-8.9-23-4.3-45.8,1.2-69.7Z"/>
  <path class="st8" d="M521.1,245.7c6.9,14,5.3,47-19,66.8-2.5-24.9,7.6-45.8,19-66.8Z"/>
  <path class="st6" d="M487.1,367.7c3.8-24.6,19.2-41.9,35.4-59.4,3.4,15.8-7.8,47.7-35.4,59.4Z"/>
  <path class="st6" d="M430.8,108.5c15.8,5.8,30.7,29.2,29.2,45.6-14-3.3-28.5-25.9-29.2-45.6Z"/>
  <path class="st5" d="M434.2,157.3c16-.1,34.9,15,41,32.8-12.9-.1-37.5-19.8-41-32.8Z"/>
  <path class="st6" d="M477,249.2c14.1,8.3,22.5,29.8,19,48.8-10.9-6.2-22.3-35.5-19-48.8Z"/>
  <path class="st7" d="M461.9,200.5c15.5,4.3,30.1,24.3,30.8,42.3-12.8-4.1-31.3-29.6-30.8-42.3Z"/>
  <path class="st6" d="M479.1,300c11.4,13.6,13.4,31.6,6.1,52.5-9-7.5-12.9-39.4-6.1-52.5Z"/>
  <g class="st2">
    <g class="st2">
      <path class="st3" d="M269.9,52.8l-28.4,4.8c.4,9.4-.6,16.9-2.9,22.4-2.3,5.5-6.7,11.5-13.3,17.8l-4.4-3.5c5.9-5.3,9.9-10.7,12.2-16.1,2.3-5.4,3.2-12,2.9-19.7l-18.8,3.2-.9-5.2,19.4-3.3c-.3-3.7-.8-8-1.6-13l5.4-.9c.7,3.5,1.2,7.8,1.7,12.9l27.9-4.8.9,5.2ZM275,75.9c.2,1.3.2,3.2.1,5.9,0,2.6-.4,4.4-.9,5.3-.5.9-1.2,1.5-2,2-.8.4-3.4,1-7.8,1.8-2.6.4-5.1.8-7.3,1.1-2.3.3-3.9,0-4.9-.7-1-.7-1.6-1.8-1.9-3.4l-.4-2.6c-2.6,2.4-5.9,4.8-10.1,7.4l-3.8-3.7c5.4-3.4,9.7-6.7,12.8-9.9l-3.2-18.6,5.3-.9,2.5,14.4c3.3-4.1,6.6-9.9,10.1-17.3l5,1.7c-4.4,9.6-9,17.1-13.9,22.5l.7,4.3c.2,1.2,1,1.6,2.3,1.3,1.3-.3,4.9-.9,10.7-1.9.6-.1,1-.4,1.3-.9s.4-1.7.3-3.5c0-1.9-.2-3.8-.6-5.6l5.6,1.4ZM263,42.7l-2.5,4.5c-4.3-1.8-8.6-3-13.1-3.7l2.5-4.7c4.9.9,9.2,2.2,13.1,3.9Z"/>
    </g>
  </g>
  <g class="st2">
    <g class="st2">
      <path class="st3" d="M329.6,92.7l-54.5-5.6.6-5.5,24.4,2.5,2-19.2-21.2-2.2.6-5.5,21.2,2.2,1.6-16-22.8-2.3.6-5.5,51.1,5.2-.6,5.5-22.6-2.3-1.6,16,21.2,2.2-.6,5.5-21.2-2.2-2,19.2,24.4,2.5-.6,5.5Z"/>
    </g>
  </g>
  <polygon class="st1" points="225.5 295.8 142 221.7 254.7 221.7 276.9 251.8 276.9 403.3 243.4 340.6 254.7 304.2 254.7 270.3 234.4 243.4 187.3 243.4 225.5 295.8"/>
  <polygon class="st1" points="341.5 295.8 424.9 221.7 312.2 221.7 290.1 251.8 290.1 403.3 323.5 340.6 312.2 304.2 312.2 270.3 332.5 243.4 379.6 243.4 341.5 295.8"/>
</svg>