<svg viewBox="0 0 566.93 566.93" xmlns="http://www.w3.org/2000/svg"><path d="m284.36 16.51h-.9c-147.44 0-267 119.52-267 267s119.52 267 267 267h.9c147-.49 266.07-119.82 266.07-267s-119.04-266.51-266.07-267z" fill="#dadada"/><path d="m481 85.91a279.38 279.38 0 1 1 -395.09 395.09 279.38 279.38 0 0 1 395.09-395.09zm75.83 197.55c0-150.74-122.63-273.37-273.38-273.37s-273.36 122.63-273.36 273.37 122.63 273.38 273.37 273.38 273.38-122.63 273.38-273.38z" fill="#706f6f"/><g fill="#be1622"><path d="m161.4 99.2a30 30 0 0 1 -6.62 3.3 38 38 0 0 1 -6 1.5l-4.78-7.3.7-.45a20.4 20.4 0 0 0 7-.26 15.67 15.67 0 0 0 7.72-3.69 7.23 7.23 0 0 0 1.45-1.57 4.66 4.66 0 0 0 .73-1.85 2.85 2.85 0 0 0 -.52-2 2.7 2.7 0 0 0 -2.08-1.31 6.74 6.74 0 0 0 -2.84.34c-1.22.39-2.5.85-3.85 1.37a31.78 31.78 0 0 1 -3.91 1.23 12.33 12.33 0 0 1 -7.28-.09 10.45 10.45 0 0 1 -5-4.33 9.83 9.83 0 0 1 -.85-9.32 17.78 17.78 0 0 1 7.38-8.52 31.63 31.63 0 0 1 5.8-3 28.81 28.81 0 0 1 5.82-1.62l4.51 7-.68.43a18 18 0 0 0 -5.76.22 15.7 15.7 0 0 0 -5.7 2.24 11.51 11.51 0 0 0 -1.64 1.37 8 8 0 0 0 -1.33 1.64 4.08 4.08 0 0 0 -.62 1.78 2.7 2.7 0 0 0 .41 1.79 2.73 2.73 0 0 0 2 1.33 9.91 9.91 0 0 0 4-.82l3.41-1.24a33.47 33.47 0 0 1 3.65-1.06 12.41 12.41 0 0 1 6.74 0 9.5 9.5 0 0 1 4.86 4.14 10.51 10.51 0 0 1 1.15 9.67q-1.75 5.14-7.87 9.08z"/><path d="m206.11 36.1 5.68 37.21-9.25 3.9-14.17-18.52 3.54 23-9.25 3.9-22.66-30.04 8.75-3.69 14.14 20.61-3.89-24.94 8.36-3.53 14.86 20.31-4.64-24.62z"/><path d="m252.09 44.91q1.86 8.66-1.71 14.6t-11.61 7.67q-8.07 1.73-13.77-2.32t-7.49-12.57q-1.83-8.61 1.7-14.59t11.6-7.7q8-1.71 13.72 2.27t7.56 12.64zm-9.24 2a20.12 20.12 0 0 0 -1.85-5.34 11.43 11.43 0 0 0 -2.55-3.3 7 7 0 0 0 -3-1.55 7.72 7.72 0 0 0 -3.14 0 7.53 7.53 0 0 0 -2.88 1.28 7.34 7.34 0 0 0 -2.14 2.65 11.1 11.1 0 0 0 -1 4.07 19.85 19.85 0 0 0 .48 5.63 20.42 20.42 0 0 0 1.81 5.32 11.3 11.3 0 0 0 2.55 3.25 6.9 6.9 0 0 0 3.06 1.57 7.82 7.82 0 0 0 3.16 0 7.53 7.53 0 0 0 2.92-1.34 6.88 6.88 0 0 0 2.11-2.67 12.11 12.11 0 0 0 1-4 20.07 20.07 0 0 0 -.53-5.62z"/><path d="m293.66 60.67-11.15.59-10.85-12.82-3.28.17.71 13.39-9.09.48-1.94-36.48 14.64-.78a32.34 32.34 0 0 1 5.3.09 11.35 11.35 0 0 1 4.24 1.36 9.69 9.69 0 0 1 3.28 3 9.37 9.37 0 0 1 1.4 4.82 11.27 11.27 0 0 1 -1.52 6.89 13.18 13.18 0 0 1 -4.81 4.42zm-16.06-24.5a5.13 5.13 0 0 0 -.65-2.34 3.48 3.48 0 0 0 -1.83-1.43 6.24 6.24 0 0 0 -1.93-.37c-.71 0-1.58 0-2.63 0l-3.05.16.52 9.81 2.62-.14a18.66 18.66 0 0 0 3.22-.4 4.77 4.77 0 0 0 2.21-1.11 4.32 4.32 0 0 0 1.22-1.71 6.26 6.26 0 0 0 .3-2.47z"/><path d="m329.34 46.25a18.48 18.48 0 0 1 -3.15 8.85 16.65 16.65 0 0 1 -6.19 5.58 15.85 15.85 0 0 1 -6.39 1.72 45.57 45.57 0 0 1 -7.13-.21l-11.4-1.19 3.75-36.3 11.25 1.16a50 50 0 0 1 7.11 1.22 15.76 15.76 0 0 1 6 3 16.25 16.25 0 0 1 5 6.76 19.25 19.25 0 0 1 1.15 9.41zm-9.34-1a13.94 13.94 0 0 0 -.6-6.26 9.06 9.06 0 0 0 -3.4-4.42 9 9 0 0 0 -3.77-1.52c-1.35-.2-3-.4-4.85-.6h-.17l-2.35 22.73h.17c2.05.22 3.78.36 5.19.43a8.36 8.36 0 0 0 4.14-.89 9.1 9.1 0 0 0 3.81-3.55 14.34 14.34 0 0 0 1.83-5.96z"/><path d="m362.38 42.79-14.85-3.7-1.66 6.68 13.66 3.4-1.68 6.76-13.66-3.4-3.8 15.22-8.83-2.21 8.82-35.41 23.68 5.87z"/><path d="m396.29 68.1q-3.35 8.19-9.64 11.1t-13.91-.2q-7.64-3.12-10.05-9.65t.9-14.61q3.33-8.15 9.62-11.1t13.92.18q7.61 3.11 10.06 9.61t-.9 14.67zm-8.74-3.6a19.9 19.9 0 0 0 1.45-5.39 11.64 11.64 0 0 0 -.24-4.17 7 7 0 0 0 -1.65-3 7.53 7.53 0 0 0 -2.6-1.76 6.78 6.78 0 0 0 -6.32.38 11.14 11.14 0 0 0 -3.11 2.8 19.72 19.72 0 0 0 -2.77 4.93 19.79 19.79 0 0 0 -1.5 5.42 11.21 11.21 0 0 0 .27 4.12 6.85 6.85 0 0 0 1.65 3 7.74 7.74 0 0 0 2.61 1.77 7.63 7.63 0 0 0 3.16.54 6.87 6.87 0 0 0 3.25-1 12 12 0 0 0 3.08-2.75 19.91 19.91 0 0 0 2.72-4.89z"/><path d="m421.67 104.67-9.52-5.83-1.68-16.72-2.79-1.72-7 11.41-7.76-4.75 19.08-31.12 12.51 7.66a31.44 31.44 0 0 1 4.31 3.08 11.11 11.11 0 0 1 2.72 3.53 9.57 9.57 0 0 1 1 4.33 9.41 9.41 0 0 1 -1.58 4.77 11.37 11.37 0 0 1 -5.16 4.81 13.25 13.25 0 0 1 -6.47.91zm.66-29.29a5 5 0 0 0 .78-2.29 3.43 3.43 0 0 0 -.69-2.22 6.3 6.3 0 0 0 -1.38-1.4c-.57-.42-1.3-.91-2.19-1.45l-2.61-1.6-5.13 8.38 2.23 1.37a20.81 20.81 0 0 0 2.89 1.5 4.81 4.81 0 0 0 2.45.33 4.25 4.25 0 0 0 2-.71 6.22 6.22 0 0 0 1.65-1.91z"/><path d="m164.56 515.43-21.18-12.38 18.72-32 8 4.66-15.15 25.9 13.21 7.72z"/><path d="m213.69 496.37-20.07 15-6 14.27-8.52-3.64 5.83-13.84-3.32-25.34 9.68 4.08 1.5 15 11.53-9.52z"/><path d="m236.3 540.25-8.62-2.17-7.42-28.52-6.26 25.07-8.19-2.06 9.06-36 11 2.76 6.13 23.5 5.19-20.59 8.18 2.06z"/><path d="m278.07 544.81-10.67-1-5.93-12.43-8.27 11.1-10.2-.93 13.6-17.49-9.69-19.39 10.64 1 5.55 11.75 7.79-10.5 10.2.95-13.09 16.87z"/><path d="m316 543.25q-7.35.87-11.73-2.24t-5.2-10l-2.8-23.52 9.17-1.08 2.72 23c.31 2.56 1 4.4 2.12 5.54s2.73 1.58 4.89 1.33a5.71 5.71 0 0 0 4.43-2.36c.84-1.32 1.11-3.31.79-6l-2.73-23 9.17-1.08 2.79 23.49q.81 6.79-2.62 10.9t-11 5.02z"/><path d="m372 530-8.55 2.42-20.69-21 7.07 24.86-8.12 2.31-10.13-35.67 10.89-3.09 17.08 17.23-5.8-20.44 8.11-2.3z"/><path d="m398.44 518.72-18.15 7.88-2.58-5.93 4.84-2.11-9.61-22.13-4.84 2.1-2.58-5.94 18.15-7.88 2.58 5.94-4.85 2.1 9.6 22.14 4.85-2.11z"/><path d="m412.4 511.32-15.08-25.94-9.39 5.46-3.55-6.12 26.75-15.55 3.55 6.12-9.39 5.45 15.09 25.94z"/><path d="m277.44 347.44-87.37-228.65c-42.87 26.57-71.48 63.07-81.64 112.61-13.19 64.24 2.49 121.08 47.21 168.47 24.27 25.72 54.29 41.14 90.4 47.86-1.75-5.18-2.67-8.64-4-11.9-6.78-15.92-19.74-45.62-19.74-45.62-38.55-25.54-64.81-58.67-69.95-105.65-2.9-26.47 2.91-51.09 16.27-76 36.53 95.3 72.37 188.81 109.22 284.93"/></g><path d="m85.67 208.72c-26.35 90.28 7.43 180.19 82.5 234.85 41.38 30.12 75.15 17.74 97.23 56.91 2.57-14-14.61-38.67-27.36-41.53a151.28 151.28 0 0 1 -33.58-11.39c-96.91-47.07-137.46-151.76-97.05-253.91 26.43-66.85 99.59-110.28 170.38-112.17v-15c-84.53-.02-167.65 58.52-192.12 142.24z" fill="#706f6f"/><path d="m201.21 112.29c6 15.52 11.64 30.24 17.61 45.77q29.52-14.73 59-14.8v-49.06c-25.47.01-50.91 6.01-76.61 18.09z" fill="#be1622"/><path d="m289.49 347.44 87.37-228.65c42.87 26.57 71.48 63.07 81.64 112.61 13.19 64.24-2.49 121.08-47.21 168.47-24.29 25.72-54.29 41.13-90.4 47.86 1.75-5.18 2.67-8.64 4.05-11.9 6.78-15.92 19.74-45.62 19.74-45.62 38.55-25.54 64.81-58.67 69.95-105.65 2.9-26.47-2.91-51.09-16.27-76-36.53 95.31-72.36 188.82-109.22 284.94" fill="#8b1314"/><path d="m481.26 208.72c26.35 90.23-7.43 180.19-82.5 234.85-41.38 30.12-75.15 17.74-97.23 56.91-2.58-14 14.61-38.67 27.36-41.53a151 151 0 0 0 33.57-11.39c96.92-47.07 137.45-151.76 97.06-253.91-26.43-66.85-99.58-110.28-170.38-112.17v-15c84.53-.02 167.65 58.52 192.12 142.24z" fill="#575756"/><path d="m365.72 112.29c-6 15.52-11.64 30.24-17.61 45.77q-29.52-14.73-59-14.8v-49.06c25.47.01 50.89 6.01 76.61 18.09z" fill="#8b1314"/></svg>