<svg enable-background="new 0 0 113.4 113.4" viewBox="0 0 113.4 113.4" xmlns="http://www.w3.org/2000/svg"><path d="m113.4 56.8c0 31.3-25.3 56.6-56.6 56.6s-56.8-25.5-56.8-56.8 25.4-56.6 56.6-56.6c31.3 0 56.8 25.5 56.8 56.8zm-56.8-55.3c-31 .9-54.8 24.1-54.9 54.9-.1 31.1 24 55.1 54.8 55.2 30.9.1 55-24.1 55.1-54.8-.1-31.1-24.1-54.5-55-55.3z" fill="#272726"/><path d="m56.6 1.5c30.9.8 55 24.2 54.9 55.2 0 30.7-24.1 54.9-55.1 54.8-30.8-.1-54.9-24.1-54.8-55.2.2-30.7 24-53.9 55-54.8zm-1.7 28.7c0-.4.1-.8-.3-1.2-.3 0-.7 0-1.1 0-13.5 0-27 0-40.5 0-1.2 0-2.2.2-2.8 1.6 0 .1-.1.4 0 .7 6.9 12.9 14.6 25.3 21.7 38 .4 0 .7-.1.9-.4.4-.1.7-.3 1-.6 2.1-1.4 4.5-2.3 6.5-3.9-5.2-9-10.3-17.8-15.5-26.9h29.9c0-2.2 0-4.2 0-6.3.1-.3.2-.6.2-1zm-20.2 41.6c-.4 0-.7.1-.9.8.9 1.6 1.9 3.3 2.9 5 2.2 3.8 4.4 7.7 6.5 11.5 1.4 2.5 2.9 4.9 4.3 7.4 2.3 4 4.5 8 6.8 11.9.8 1.4 2.5 2.1 3.8.1 1.1-1.7 2-3.5 3-5.2 2.3-3.9 4.6-7.8 6.8-11.8 2.1-3.7 4.3-7.5 6.4-11.2.8-1.3 1.6-2.6 2.4-3.9 1.1-1.9 2.2-3.8 3.3-5.7-.3-.4-.6-.6-1-.6-.5-.3-1-.6-1.5-.9-1.8-1.1-3.6-2.2-5.6-3.3-5.1 8.8-10.1 17.6-15.3 26.5-4.9-8.5-9.7-16.8-14.4-25-2.3 1.1-4.2 2.4-6.2 3.6-.4.2-.9.4-1.3.8zm46.3-4.7c.8.7 1.1.1 1.5-.5 1-1.7 1.9-3.3 2.9-5 1.9-3.3 3.9-6.6 5.8-9.9 2.3-4.1 4.7-8.1 7-12.2 1.3-2.3 2.7-4.6 4-7 .9-1.7.7-2.4-.8-3.6-14.2 0-28.7 0-43.1 0-.3.4-.4.7 0 1.1v1.4 6.1h29.9c-5 8.6-9.8 17-14.7 25.5 2.1 1.2 4.2 2.3 6.3 3.5.4.3.8.5 1.2.6zm-49.3-25.3c-.1.9-.1 1.9.4 2.8 3.6 6.1 7.1 12.2 10.7 18.4 3.7 6.4 7.4 12.9 11.1 19.3.6 1.1 1.1 2.4 2.6 2.6 1.2-.2 1.8-.8 2.4-1.8 2-3.6 4.1-7.2 6.2-10.7 2.9-5.1 5.9-10.1 8.8-15.2 2.4-4.1 4.6-8.2 7-12.2.6-1 .9-2 .7-3.2-.6-.9-1.5-1.1-2.5-1.1-15.1 0-30.1 0-45.2 0-.9-.1-1.6.2-2.2 1.1z" fill="#4b4b4b"/><g fill="#e1954a"><path d="m36 71c2-1.2 3.9-2.5 6.2-3.6 4.8 8.2 9.5 16.5 14.4 24.9 5.1-8.9 10.2-17.6 15.3-26.4 2 1.1 3.9 2.2 5.7 3.3-.9 3.1-2.9 5.6-4.5 8.3-2.5 4.3-4.9 8.7-7.5 12.9-1.1 1.7-1.8 3.6-2.9 5.4-1.3 2.3-2.5 4.6-3.9 6.9-.8 1.3-1.3 2.7-2.5 3.7-.7-.3-1-.8-1.3-1.4-1.1-2.1-2.3-4.2-3.3-6.4-.9-1.8-2-3.4-3-5.1-2.1-3.7-4.2-7.5-6.4-11.1-2-3.8-4.3-7.5-6.3-11.4z"/><path d="m54.8 31.2v6.3c-9.9 0-19.8 0-29.9 0 5.2 9.1 10.3 17.9 15.5 26.9-2 1.7-4.4 2.6-6.5 3.9-7-12.1-13.9-24.3-20.9-36.3.5-.9 1.2-.8 1.8-.8z"/><path d="m79.8 66.5c-2.1-1.1-4.1-2.3-6.3-3.5 4.9-8.5 9.7-16.9 14.7-25.5-10 0-19.9 0-29.9 0 0-2.1 0-4.1 0-6.1h15.1 24.3c.6 0 1.3-.1 1.6.8-1.3 2.2-2.5 4.4-3.8 6.6-1.9 3.2-3.8 6.4-5.6 9.6-2.9 5-5.9 10-8.7 15.1-.6 1-1.3 1.8-1.4 3z"/></g><path d="m31.7 41.8c.5-.9 1.3-1.2 2.3-1.2h45.2c1 0 1.9.2 2.5 1.1.2 1.2-.1 2.2-.7 3.2-2.4 4-4.7 8.1-7 12.2-2.9 5.1-5.9 10.1-8.8 15.2-2.2 3.6-4.3 7.2-6.3 10.8-.5.9-1.2 1.6-2.4 1.8-1.4-.2-1.9-1.5-2.6-2.6-3.7-6.4-7.4-12.9-11.1-19.3-3.5-6.1-7.1-12.3-10.7-18.4-.5-.9-.4-1.8-.4-2.8zm.9.2c-.1.1-.2.2-.2.4 8 13.9 16.1 27.8 24.3 42.1 8.2-14.3 16.3-28.3 24.5-42.5-16.5 0-32.5 0-48.6 0z" fill="#897558"/><path d="m79.8 66.5c.1-1.1.8-2 1.4-2.9 2.9-5.1 5.8-10.1 8.7-15.1 1.9-3.2 3.8-6.4 5.6-9.6 1.3-2.2 2.6-4.4 3.8-6.6-.3-.8-1-.8-1.6-.8-8.1 0-16.2 0-24.3 0-5 0-10.1 0-15.1 0 0-.5 0-.9 0-1.4h43.7c-.9 2.6-2.3 4.6-3.4 6.6-3.4 6-6.9 12-10.4 18-2.4 4.2-4.8 8.4-7.2 12.5-.4-.2-.8-.4-1.2-.7z" fill="#eac060"/><path d="m36 71c2 3.9 4.3 7.6 6.5 11.3s4.2 7.4 6.4 11.1c1 1.7 2.1 3.3 3 5.1 1.1 2.2 2.3 4.2 3.3 6.4.3.5.6 1.1 1.3 1.4 1.2-1 1.7-2.4 2.5-3.7 1.4-2.3 2.6-4.6 3.9-6.9 1-1.8 1.8-3.6 2.9-5.4 2.6-4.2 5-8.6 7.5-12.9 1.6-2.7 3.6-5.2 4.5-8.3.5.3 1 .6 1.5.9-7.5 13-15 25.9-22.7 39.2-7.5-12.6-14.7-25-21.9-37.4.4-.4.9-.6 1.3-.8z" fill="#eac060"/><path d="m34.7 71.8c7.2 12.4 14.4 24.8 21.7 37.5 7.7-13.3 15.2-26.2 22.7-39.2.4.1.8.3 1 .6-1.1 1.9-2.2 3.8-3.3 5.7-.8 1.3-1.6 2.6-2.4 3.9-2.1 3.7-4.3 7.4-6.4 11.2-2.3 3.9-4.5 7.9-6.8 11.8-1 1.7-1.9 3.5-3 5.2-1.3 2-3 1.3-3.8-.1-2.3-3.9-4.6-7.9-6.8-11.9-1.4-2.5-2.9-4.9-4.3-7.4-2.2-3.8-4.4-7.7-6.5-11.5-1-1.7-2-3.5-2.9-5 .1-.7.4-.8.8-.8z" fill="#897558"/><path d="m54.8 31.2c-13.3 0-26.6 0-40 0-.6 0-1.3-.2-1.8.8 6.9 12 13.9 24.2 20.9 36.3-.3.3-.6.5-1 .6-.2-.4-.3-.8-.5-1.2-1.7-3-3.5-6-5.2-9-4.4-7.5-8.8-15.1-13.1-22.7-1.1-1.9-2.3-3.7-3.1-5.8 1.2-.1 2.3-.3 3.3-.3h39.2c.5 0 1-.1 1.4.2 0 .5-.1.8-.1 1.1z" fill="#eac060"/><path d="m81 67.1c2.4-4.2 4.8-8.4 7.2-12.5 3.5-6 6.9-12 10.4-18 1.2-2 2.6-4 3.4-6.6-14.7 0-29.2 0-43.7 0-.4-.3-.3-.7 0-1.1h43.1c1.5 1.2 1.7 1.9.8 3.6-1.3 2.4-2.7 4.7-4 7-2.3 4.1-4.7 8.1-7 12.2-1.9 3.3-3.9 6.6-5.8 9.9-1 1.7-1.9 3.3-2.9 5-.4.6-.7 1.2-1.5.5z" fill="#897558"/><path d="m54.9 30.2c-.4-.3-.9-.2-1.4-.2-13.1 0-26.1 0-39.2 0-1.1 0-2.2.2-3.3.3.8 2.1 2 3.9 3.1 5.8 4.4 7.6 8.7 15.1 13.1 22.7 1.7 3 3.5 6 5.2 9 .2.4.4.8.5 1.2-.2.3-.5.4-.9.4-7.2-12.7-14.8-25.2-21.7-38-.1-.2 0-.5 0-.7.6-1.4 1.6-1.6 2.8-1.6h40.5 1.1c.3.3.2.7.2 1.1z" fill="#897558"/><path d="m32.6 42h48.6c-8.2 14.2-16.3 28.2-24.5 42.4-8.2-14.2-16.3-28.2-24.3-42.1.1-.1.1-.2.2-.3zm2.5 1.7c.1.8.5 1.4.9 2 .9 1.6 1.8 3.2 2.7 4.8 1.5 2.5 2.9 5.1 4.4 7.6 2.4 4.1 4.7 8.2 7.1 12.3 1.8 3.2 3.7 6.3 5.6 9.4.2.4.5.9 1.3.9 7-12.2 14.1-24.5 21.2-36.7-.2-.5-.5-.7-1-.7-4-.4-41.5-.1-42.2.4z" fill="#eac060"/><path d="m35.1 43.7c.7-.5 38.2-.9 42.2-.5.5.1.8.2 1 .7-7.1 12.3-14.2 24.5-21.2 36.7-.9 0-1.1-.5-1.3-.9-1.9-3.1-3.7-6.3-5.6-9.4-2.4-4.1-4.7-8.2-7.1-12.3-1.5-2.5-2.9-5-4.4-7.6-.9-1.6-1.8-3.2-2.7-4.8-.4-.5-.8-1.1-.9-1.9z" fill="#e1954a"/></svg>