<svg enable-background="new 0 0 113.4 113.4" viewBox="0 0 113.4 113.4" xmlns="http://www.w3.org/2000/svg"><circle cx="56.7" cy="56.7" fill="#00a5e6" r="56.7"/><circle cx="56.7" cy="56.7" fill="#fff" r="54.9"/><circle cx="56.7" cy="56.7" fill="#00a5e6" r="52.7"/><g fill="#fff"><path d="m14.4 83.9 5.6-4.3 3 3.9c.6.8 1 1.3 1.1 1.5.4.6.5 1.1.3 1.5-.1.4-.6.9-1.3 1.5-.7.5-1.2.8-1.7.9-.3 0-.5 0-.8-.1s-.5-.3-.8-.7c-.2-.2-.6-.7-1.1-1.3l-1.7-2.2-1.2 1zm4.2-.4 1.7 2.1c.3.4.5.6.6.7s.2.1.2.2c.1.1.2.1.4 0 .1 0 .3-.1.5-.3s.3-.3.4-.4.1-.2 0-.4c0-.1-.2-.4-.6-.9l-1.7-2.1z"/><path d="m26.3 96.6.3-1.3-3.6-3.1-1.2.5-1.9-1.6 7.5-2.9 2.6 2.2-1.8 7.8zm.8-3 .7-2.9-.3-.3-2.8 1.2z"/><path d="m32.7 92.6 3.4 1.7.9 6.4.2.1 2.4-4.7 2 1-3.2 6.3-3.4-1.7-.9-6.4-.2-.1-2.4 4.7-2-1z"/><path d="m46.5 98.3c1.5.4 2.5.6 3.1.9.8.3 1.2.8 1.2 1.5 0 .5-.1 1.3-.4 2.3-.3 1.1-.5 1.8-.7 2.3-.3.6-.9.9-1.8.8-.6-.1-1.6-.3-3.1-.6-1.5-.4-2.5-.7-3.1-.9-.8-.3-1.2-.8-1.2-1.5 0-.5.1-1.3.4-2.4s.5-1.8.7-2.2c.3-.6.9-.9 1.8-.8.6 0 1.6.2 3.1.6zm-.4 1.8c-1.1-.3-1.8-.4-2-.4-.3 0-.5.1-.6.3s-.3.7-.5 1.4c-.1.4-.2.7-.2.9 0 .4.2.6.6.8.3.1.9.3 1.8.5.8.2 1.4.3 1.7.4.3 0 .5 0 .7-.1.1-.1.3-.2.3-.4.1-.2.2-.5.3-.9.1-.5.2-.9.2-1.1s0-.4-.1-.6-.2-.3-.5-.4c-.1 0-.7-.2-1.7-.4z"/><path d="m58.2 104h2.2v.7c0 .5-.1 1-.3 1.3s-.5.6-1.1.7c-.5.1-1.4.2-2.7.1-1.4 0-2.3-.1-2.9-.1-.6-.1-1-.2-1.3-.3s-.4-.3-.6-.6c-.1-.2-.2-.5-.2-.9 0-.3 0-.9 0-1.8 0-.8 0-1.4.1-1.8 0-.4.1-.6.2-.8.2-.4.6-.7 1.2-.9.6-.1 1.8-.2 3.7-.1.9 0 1.6 0 2 .1s.7.1 1 .3.5.4.7.7c.1.3.2.7.2 1.3v.4h-2.2c0-.2 0-.4 0-.5s-.1-.1-.1-.2c-.1-.1-.3-.1-.6-.2-.3 0-.8-.1-1.5-.1s-1.1 0-1.4 0-.4.1-.6.2c-.1.1-.2.3-.3.5s-.1.6-.1 1.2v1.1s.1.4.3.5c.1.1.3.2.6.2s.7.1 1.4.1h1.7c.3 0 .5-.1.6-.2 0-.2 0-.4 0-.9z"/><path d="m60.8 99.6 7.7-1.4.3 1.6-5.6 1.1.2 1 5.4-1 .3 1.5-5.4 1 .2 1.1 5.7-1.1.3 1.7-7.8 1.5z"/><path d="m78.6 101.7-1-.9-4.3 1.8-.1 1.3-2.3 1 .7-8 3.1-1.3 6.2 5.1zm-2.3-2-2.3-2-.4.2-.2 3z"/><path d="m77.9 94.3 3.1-2.2 6.1 2.1.2-.1-3.2-4.3 1.8-1.3 4.2 5.7-3 2.2-6.1-2.1-.2.1 3.2 4.3-1.8 1.3z"/><path d="m86.2 87.8 1.6-1.6 5 5-1.6 1.6z"/><path d="m98.7 84-1.3-.2-2.8 3.8.6 1.2-1.5 2-3.5-7.3 2-2.7 7.9 1.2zm-3-.6-3-.5-.3.3 1.4 2.7z"/><path d="m27 17.2 2.7-1.7 3.4 2.3-.4-4 2.7-1.7 3 4.9-1.5.9-2.2-3.7-.2.1.4 4.8-1.2.8-4.1-2.6-.3.2 2.3 3.7-1.5.9z"/><path d="m39.4 13.8-1.4.5c-.1-.3-.1-.6-.1-.8.1-.3.3-.6.6-.8s.9-.5 1.8-.8c.6-.2 1.1-.4 1.3-.4s.5 0 .7.1.3.2.4.4.2.4.4.8l.9 2.3-1.4.5-.2-.5h-.1c0 .3-.1.5-.3.7-.1.1-.3.2-.5.3s-.6.2-1 .4-.7.3-.9.3-.4 0-.6-.1c-.3-.1-.5-.4-.6-.8-.2-.4-.2-.8 0-1.1.1-.2.3-.4.6-.6s.8-.4 1.6-.7c.3-.1.6-.2.7-.2.2 0 .3 0 .5.1h.1l-.1-.2c-.1-.3-.2-.5-.4-.5s-.4 0-.9.2-.8.3-.9.4c-.2.2-.2.4-.2.5zm1.3.7c-.5.2-.8.3-.9.4s-.1.3-.1.4c.1.2.2.2.3.2.2 0 .4-.1.8-.2.5-.2.8-.3 1-.5.2-.1.2-.3.1-.4-.1-.2-.2-.2-.4-.2.1 0-.2.1-.8.3z"/><path d="m47.9 12.5 1.5-.3c.1.3.1.6.1.8s-.1.4-.2.5c-.1.2-.4.4-.7.6-.3.1-.9.3-1.6.5-.6.1-1.1.2-1.4.2s-.6 0-.8-.1-.4-.3-.5-.5-.3-.6-.4-1.2c-.1-.5-.2-.9-.1-1.1 0-.3.1-.5.2-.7.2-.2.4-.4.7-.5s.8-.3 1.5-.4 1.2-.2 1.5-.2c.4 0 .6 0 .9.1.2.1.3.2.4.4s.2.4.3.8l-1.5.3c-.1-.2-.2-.4-.4-.4s-.5 0-1 .1c-.4.1-.7.2-.9.3-.1.1-.2.2-.2.3s0 .3.1.6.1.4.2.5.2.2.3.2c.2 0 .5 0 .9-.1s.7-.2.9-.3c.2 0 .2-.1.2-.4z"/><path d="m49.7 8 1.5-.1.2 2.3h.1c.1-.3.3-.5.5-.6.3-.1.6-.2 1.1-.3h1.1c.3.1.5.2.7.3.2.2.3.4.4.6s.1.6.2 1.1l.2 2-1.5.1-.2-2c0-.2 0-.4-.1-.5 0-.1-.1-.2-.2-.3-.2-.1-.5-.2-1-.2s-.9.2-1 .4c-.1.1-.1.2-.2.4v.7l.1 1.7-1.5.1z"/><path d="m56.3 9.2h1.5v4.2h-1.5zm.1-1.7h1.5v1.2h-1.5z"/><path d="m58.8 9.2 1.4.1-.1.6h.1c.2-.3.4-.4.7-.5s.7-.1 1.1 0c .5 0 .9.1 1.1.2.3.1.5.3.6.5.2.2.3.4.3.7s0 .6 0 1.2l-.1 1.8-1.5-.2.2-1.9c0-.3 0-.6 0-.7s-.1-.2-.1-.3c-.1-.2-.5-.3-1-.3-.5-.1-.9 0-1.1.2-.1.1-.2.2-.2.3s-.1.4-.1.8l-.2 1.6-1.5-.2z"/><path d="m65.2 10 1.5.3-.8 4-1.5-.3zm.4-1.7 1.5.3-.3 1.2-1.5-.3z"/><path d="m66.7 13.1 1.5.4c0 .2 0 .3.2.4s.5.2.9.4c.5.1.8.2 1 .2s.3-.1.3-.2 0-.3-.2-.3c-.1 0-.5-.2-1.2-.4s-1.1-.4-1.3-.4c-.4-.2-.7-.4-.8-.7-.1-.2-.1-.5 0-.8.2-.6.5-.9 1-.9.4 0 1.1.1 2.1.4.7.2 1.1.4 1.4.5s.5.3.6.5c.1.1.1.2.1.4 0 .1 0 .3-.1.6l-1.5-.4c0-.1 0-.2 0-.2-.1-.1-.4-.2-.9-.4-.5-.1-.8-.2-1-.2s-.3.1-.3.2c0 .2 0 .3.3.4.2.1.8.3 2 .6.6.2.9.4 1.1.6.2.3.2.6.1 1.1-.1.3-.2.5-.4.7s-.3.2-.6.3c-.4.1-1.2-.1-2.3-.4-.7-.2-1.2-.4-1.5-.5s-.5-.3-.6-.5c0-.6 0-1 .1-1.4z"/><path d="m74.6 11.7 1.4.6-.4.9 2.2 1-.4 1-2.2-1-.5 1.1c-.1.3-.2.5-.2.6 0 .2.2.3.4.4.3.1.5.1.6 0l .1-.1s.1-.2.2-.4l1.3.6c-.2.4-.3.6-.4.8-.1.1-.2.3-.4.3-.2.1-.5.2-.7.1s-.7-.2-1.1-.4-.8-.4-1-.5-.3-.3-.4-.5c-.1-.1-.1-.3-.1-.4s.1-.3.1-.5c0-.1.1-.3.3-.6l.5-1.1-.7-.3.4-1 .7.3z"/><path d="m77.2 16.9 1.3.8c-.1.2-.1.3.1.5.1.1.4.3.8.6s.7.4.9.5c.2 0 .3 0 .4-.1s0-.2-.1-.4c-.1-.1-.4-.3-1.1-.7-.6-.4-1-.6-1.2-.7-.4-.3-.6-.6-.6-.9 0-.2.1-.5.2-.7.3-.5.7-.7 1.2-.7.4.1 1 .4 2 .9.6.4 1 .6 1.3.8.2.2.4.4.5.6 0 .1.1.3 0 .4 0 .1-.1.3-.2.5l-1.3-.8c0-.1 0-.2 0-.2-.1-.1-.3-.3-.8-.6-.4-.2-.7-.4-.9-.4s-.3 0-.4.1 0 .3.2.4.8.5 1.8 1.1c.5.3.8.6.9.9s.1.6-.2 1c-.2.3-.3.5-.5.6s-.4.2-.6.1c-.4 0-1.1-.4-2.1-1-.6-.4-1.1-.7-1.3-.9s-.4-.4-.5-.7-.1-.6.2-1z"/><circle cx="56.7" cy="56.7" r="39.9"/></g><path d="m50.5 74.8c.1-.5.2-1 .3-1.7 2.5-.1 5.1.3 7.8.4-.5 3.8-.9 7.4-1.3 11.1-11.9.9-26-7.1-28.5-24.3-2.3-15.5 7.7-26.7 18.1-29.9-.9.7-1.7 1.4-2.6 2.2-5.4 4.8-9 10.6-9.9 17.9-1.2 9.8 3.7 18.3 12 22.6 1.3.7 2.6 1.4 4.1 1.7z" fill="#00a6e5"/><path d="m54.7 39.9c.5-3.8.9-7.5 1.4-11.2 8.3 0 15.6 2.4 21 8.7 8 9.2 10 19.7 5.3 31-3 7.4-8.8 12.1-16.3 14.8 3.5-2.5 6.4-5.5 8.7-9.1 2.1-3.3 3.4-6.9 4-10.8.8-6.1-.5-11.5-4.1-16.4-2.7-3.7-6.3-6.1-10.5-7.8-.5-.2-1-.4-1.5-.6-.5.5-.2 1.1-.4 1.8-2.4-.1-4.9-.3-7.6-.4z" fill="#d22123"/><path d="m47.9 67.8c-.9-.6-1.6-1.5-2.4-2.3.2-.8.8-1.1 1.2-1.7-.4-.7-.8-1.5-1.3-2.2-.6.1-1.2.3-1.8.4-.6-1.1-.8-2.3-1-3.3.5-.7 1.3-.5 1.8-.9 0-.8 0-1.6 0-2.3-.5-.4-1.3-.3-1.8-1 .1-1 .5-2 .8-3 .7-.4 1.3.1 2 .1.4-.7.8-1.4 1.2-2.1-.2-.6-.9-.9-1.1-1.6.7-.8 1.5-1.7 2.4-2.3.7.1.9.7 1.5 1 .7-.4 1.4-.9 2.2-1.3-.1-.6-.2-1.1-.3-1.6 1-.7 2.2-.7 3.3-1.1.6.4.5 1 .8 1.5.8.2 1.7.1 2.5 0 .4-.5.2-1.2 1.1-1.5.9.4 2.1.3 3.1 1-.1.5-.2 1-.3 1.5.8.5 1.5.9 2.3 1.4.5-.2.7-.8 1.4-.9.9.6 1.6 1.6 2.3 2.3-.1.6-.6.8-.9 1.3.4.7.9 1.5 1.3 2.2.6.2 1.1-.3 1.7.1.3.9.6 2 .8 2.9-.3.8-.9.7-1.4.9-.2.9-.1 1.8-.1 2.7.4.4 1.1.3 1.4.9-.1 1-.5 2.1-.8 3-.7.5-1.2-.2-1.8.1-.4.6-.8 1.4-1.3 2.1.3.4.6.8 1 1.2-.7 1-1.6 1.8-2.5 2.5-.6-.2-.9-.7-1.4-1-.7.4-1.5.8-2.2 1.2-.2.6.3 1 0 1.7-.8.7-2.1.6-3.1 1-.7-.5-.5-1.3-1-1.8-.7 0-1.5 0-2.3 0-.4.5-.2 1.3-1 1.7-1-.4-2.2-.4-3.2-1.1.1-.6.2-1.1.4-1.7-.7-.5-1.4-.9-2.1-1.3-.4.5-.6 1.2-1.4 1.3zm8.9-1.4c5.3 0 9.7-4.2 9.9-9.3.2-5.7-4.2-10-9.3-10.2-5.7-.2-10.2 4-10.3 9.7 0 5.5 4.3 9.8 9.7 9.8z" fill="#00a7e4"/></svg>