<svg enable-background="new 0 0 113.3 113.3" viewBox="0 0 113.3 113.3" xmlns="http://www.w3.org/2000/svg"><circle cx="56.8" cy="56.7" fill="#afc910" r="55.5"/><path d="m0 55.3c1-31.5 26.8-55.9 57.7-55.3 32 .7 56.6 26.6 55.6 58.7-1 31.3-27.2 55.5-58.3 54.6-31-.8-55.8-26.9-55-58zm56.8-54.2c-30.3-.3-55.8 24.8-55.8 55.6s25.2 55.7 55.8 55.7c30.5 0 55.5-25.1 55.6-55.5.1-30.7-25.3-56.1-55.6-55.8z" fill="#fece00"/><path d="m56.8 1.1c30.4-.3 55.7 25 55.7 55.7-.1 30.4-25.1 55.5-55.6 55.5-30.7 0-55.8-24.9-55.8-55.7-.1-30.7 25.4-55.8 55.7-55.5zm11.3 73c-1.4 1-2.8 2.2-4.5 2.7-3.8-7.4-4.4-15.1-1.6-22.8 3.6-9.9 11.6-14.9 21.4-17.7-5.7-4.4-11.8-6.3-18.7-4.3-.5-5.2-1.7-9.9-6.5-12.8-4 3.2-6.4 7.3-7.1 12.3-6.8-1-13.1-.8-18.6 4.1 9.2 2.3 15.7 7.8 19.3 16.3 3.7 8.5 3.1 16.9-1.5 25-4-2.5-6.8-5.8-7.7-10.3-1.4-6.9 1.7-12.1 6.9-16.3-2.6-4.9-6.3-8.4-11.2-11-1.6 1.6-3.3 3.1-4.8 4.8-1.1 1.2-2.1 2.5-3 3.9-3.6 5.9-4.7 12.4-3.7 19.2 1 7 3.9 13.1 9.2 18 1.4 1.3 2.8 2.2 4.7 2.4 1.3.1 2.5.4 3.7.5 5 .4 9.8-.6 14.1-3.1 4.4-2.5 7.6-6.4 9.9-11 .1-.2.4-.3.2-.6-.2.2-.4.4-.5.7zm-25.4 15.3c0 .1-.1.2-.1.4 1.1.7 2.2 1.5 3.3 2 4.9 2.1 10 2.9 15.3 2.1 10.8-1.7 18.2-8.1 22.9-17.5 1.5-3.1 2.4-6.5 2.7-10.1.3-3.9.1-7.7-.8-11.4-1.2-4.6-3.7-8.5-6.7-12.2-.7-.9-1.5-1.8-2.8-2.4-4.6 2.4-8.7 5.5-11.4 10.2.3.3.5.5.7.6 4.6 3.7 6.5 8.8 6.4 14.5-.2 6.5-2.9 11.9-7.5 16.5-4.2 4.3-9.4 6.3-15.1 7.3-2.3.4-4.6 0-6.9 0z" fill="#b0ca11"/><path d="m68.6 74.1c-2.3 4.6-5.5 8.5-9.9 11-4.3 2.4-9.1 3.5-14.1 3.1-1.3-.1-2.5-.4-3.7-.5-1.9-.1-3.4-1.1-4.7-2.4-5.3-4.9-8.1-11-9.2-18-1-6.8.1-13.3 3.7-19.2.8-1.4 1.9-2.7 3-3.9 1.5-1.7 3.2-3.2 4.8-4.8 4.8 2.5 8.5 6.1 11.2 11-5.2 4.2-8.2 9.4-6.9 16.3.9 4.5 3.7 7.9 7.7 10.3 4.5-8.1 5.1-16.6 1.5-25-3.7-8.4-10.1-14-19.3-16.3 5.5-4.9 11.8-5.1 18.6-4.1.7-5 3.1-9.1 7.1-12.3 4.8 2.9 6 7.6 6.5 12.8 7-2 13.1 0 18.7 4.3-9.8 2.7-17.7 7.8-21.4 17.7-2.8 7.7-2.2 15.3 1.6 22.8 1.8-.4 3.1-1.6 4.5-2.7-.1-.1.1-.1.3-.1z" fill="#704182"/><path d="m42.7 89.4c2.3 0 4.7.3 6.9-.1 5.7-1 10.9-3 15.1-7.3 4.5-4.6 7.3-10 7.5-16.5.2-5.7-1.8-10.8-6.4-14.5-.2-.2-.4-.4-.7-.6 2.8-4.7 6.8-7.8 11.4-10.2 1.3.6 2.1 1.5 2.8 2.4 3 3.6 5.6 7.6 6.7 12.2.9 3.7 1.1 7.6.8 11.4-.3 3.5-1.1 7-2.7 10.1-4.8 9.5-12.1 15.8-22.9 17.5-5.3.8-10.4 0-15.3-2.1-1.2-.5-2.2-1.3-3.3-2 0 0 0-.1.1-.3z" fill="#704182"/><path d="m68.6 74.1c-.2 0-.3 0-.5 0 .1-.3.3-.5.7-.6.1.3-.1.4-.2.6z" fill="#89837e"/></svg>