<svg enable-background="new 0 0 113.4 113.4" viewBox="0 0 113.4 113.4" xmlns="http://www.w3.org/2000/svg"><circle cx="56.7" cy="56.7" fill="#3d3d3d" r="56.7"/><circle cx="56.7" cy="56.7" fill="#fff" r="55"/><path d="m76.5 31.2h14.3c3.2 0 5.4 2 5.8 4.9.1 1-.2 2-.7 2.9-3.3 5.8-6.5 11.6-9.9 17.3-1.6 2.7-3.2 5.6-4.9 8.3-.7 1-.3 1.5.6 2 2.9 1.6 5.8 3.3 8.6 5 1.4.8 2.4 2 2.2 3.7-.3 3.2-3.3 4.8-5.9 3.3-3-1.8-6-3.4-8.9-5.2-1.1-.7-1.5-.4-2.1.6-3.2 5.7-6.5 11.4-9.8 17.1-1.8 3-3.5 6.1-5.4 9.1-.9 1.4-2 2.4-3.9 2.4s-3.2-1-4.1-2.5c-2.4-4-4.8-8.1-7.1-12.1-2.6-4.5-5.2-9-7.7-13.5-1-1.7-1-1.7-2.7-.7-2.8 1.6-5.7 3.3-8.5 4.9-1.6.9-3.4.6-4.5-.5-1.4-1.4-1.7-3.4-.8-5 .3-.6.8-1 1.4-1.3 3.1-1.8 6.1-3.5 9.1-5.3.8-.4 1-.9.5-1.7-4.8-8.3-9.5-16.8-14.5-25-2.5-4.1.3-8.8 5-8.7 9.3.1 18.6 0 28 0 1.9 0 2-.1 2-2 0-3 0-6 0-9 0-1.8 1.2-3.2 2.8-3.6 2-.4 3.8.4 4.6 2 .3.6.3 1.1.3 1.7v9.5c0 1 .3 1.4 1.4 1.4zm1.1 9c0-.1-.1-.2-.1-.3-5.4 0-10.7 0-16.1 0-.8 0-1 .5-1 1.2v7.7c0 1 .3 1.2 1.2.7 2.2-1.3 4.4-2.6 6.6-3.8 3.2-1.9 6.3-3.7 9.4-5.5zm-45.5 6.7c-.1.1-.2.1-.3.2.5 1.4 1.4 2.6 2.1 3.8 1.9 3.3 3.8 6.6 5.7 9.8.3.6.6 1 1.4.5 2.3-1.4 4.6-2.7 7-4 .9-.5.7-.8 0-1.2-2.7-1.5-5.3-3.1-8-4.6s-5.3-3-7.9-4.5zm28.4 36.2c.1 0 .2.1.3.1 2.7-4.6 5.3-9.3 8-13.9.4-.6.2-1-.4-1.4-2.3-1.3-4.6-2.7-7-4-.6-.4-1-.3-1 .5.1 6.2.1 12.4.1 18.7zm21-35.9c-.5-.2-.8 0-1 .2-5 2.9-10.1 5.8-15.1 8.7-.9.5-.5.8.1 1.2 2.2 1.3 4.4 2.5 6.6 3.8.8.5 1.3.3 1.7-.5 1.5-2.6 3-5.2 4.5-7.8 1-1.8 2.1-3.7 3.2-5.6zm-45.6-7.1c.1.1.2.2.4.3 5.2 3 10.5 6 15.7 9 .7.4.8.1.8-.5 0-2.6 0-5.1 0-7.7 0-1.1-.4-1.4-1.4-1.4-4.8 0-9.6 0-14.4 0-.4.1-.8 0-1.1.3zm16.6 42.8c.1-.1.1-.2.1-.3 0-6 0-12.1 0-18.1 0-.9-.4-.9-1-.5-2.2 1.3-4.3 2.5-6.5 3.7-.9.5-.9.9-.4 1.7l5.7 9.9c.6 1.3 1.2 2.5 2.1 3.6z" fill="#3d3d3d" stroke="#bcce63" stroke-miterlimit="10" stroke-width=".5"/></svg>