<svg id="Capa_1" data-name="Capa 1" xmlns="http://www.w3.org/2000/svg" viewBox="0 0 566.93 566.93"><defs><style>.cls-1,.cls-6{fill:#fff;}.cls-2{fill:#050404;}.cls-3{fill:#f2f0f0;}.cls-4{fill:#efeded;}.cls-5{fill:#efeeed;}.cls-6{font-size:68.68px;font-family:Cambria;}.cls-7{fill:#020101;}</style></defs><circle class="cls-1" cx="283.7" cy="283.8" r="279.21"/><circle class="cls-1" cx="283.72" cy="275.99" r="264.15"/><path class="cls-2" d="M284,457.92c103.38,0,192.25-75.59,210.45-177.18,18.11-101.08-42-212-154.09-242.86-5.31-1.46-9.48-3.33-9.72-9.7-.27-7.37,3.49-11.61,10.79-10.62,15.08,2.06,29.48,6.94,43.38,12.87C475.4,69,532.36,136.45,551.2,233c28.37,145.26-65.57,284.92-208.77,316.34A271.93,271.93,0,0,1,18.31,344.87C-15.58,199.48,73.88,53.2,221.59,18.05c10.73-2.56,16.5,2.15,14.93,11.9-.86,5.31-4.72,6.62-9,7.78A206.32,206.32,0,0,0,151.66,75.8C105,113.09,77.45,161.61,71.3,220.89c-7.49,72.16,16.6,133.41,70,182.31C180.73,439.29,231.6,457.92,284,457.92Z"/><path class="cls-3" d="M411,410.64l-.28.47.25-.5Z"/><path class="cls-3" d="M407.59,412.87l.27-.47-.26.48Z"/><path class="cls-4" d="M439.15,384.73l.17-.18-.2.15Z"/><path class="cls-4" d="M440.26,383.59l.26-.47-.26.47Z"/><path class="cls-3" d="M403.09,416.26l-.26.48c.08-.17.17-.33.26-.49Z"/><path class="cls-3" d="M399.7,418.5,400,418l-.26.5Z"/><path class="cls-3" d="M399.72,418.52l-.27.47.25-.49Z"/><path class="cls-3" d="M396.33,420.75l.27-.47-.26.48Z"/><path class="cls-5" d="M128.28,384.73c-.16-.15-.32-.3.18.18-.43-.55-.29-.38-.16-.2Z"/><path class="cls-5" d="M128.3,384.71c.18.13.35.27-.19-.15.47.49.32.33.17.17Z"/><path class="cls-4" d="M432.37,391.47l.27-.48-.26.49Z"/><path class="cls-4" d="M432.38,391.48l-1.13,1.13h0l1.13-1.13Z"/><path class="cls-5" d="M139.54,396l.14.13-.12-.15Z"/><path class="cls-4" d="M427.86,396c.13-.17.27-.34-.13.16l.15-.14Z"/><path class="cls-5" d="M155.31,409.51l.15.14c-.4-.51-.27-.33-.13-.16Z"/><path class="cls-3" d="M412.09,409.48l.28-.47c-.08.16-.17.33-.25.5Z"/><path class="cls-5" d="M155.33,409.49c.17.14.34.27-.18-.15l.16.17Z"/><path class="cls-3" d="M371.55,434.27l.27-.47-.26.47Z"/><text class="cls-6" transform="translate(181.79 511.51) rotate(17.6)">Μ</text><text class="cls-6" transform="matrix(1, 0.09, -0.09, 1, 241.81, 528.83)">ά</text><text class="cls-6" transform="matrix(1, -0.08, 0.08, 1, 286.05, 532.05)">χ</text><text class="cls-6" transform="matrix(0.97, -0.24, 0.24, 0.97, 323.8, 529.02)">α</text><text class="cls-6" transform="translate(365.69 517.75) rotate(-21.58)">ι</text><path class="cls-7" d="M385.05,83.05c2.62-1,3.82.29,5,1.34,26.68,23.86,44.84,52.47,45.73,89.19.81,32.85-10.53,60.79-40.57,77.35-23.85,13.16-47.72,9.35-70.14-5.08-3.68-2.36-5.6-5.94-4.37-10.76,3.59-4.51,8.87-5,14.21-5.71,9.52-1.23,19.28.57,28.64-2.65,26.26-9,40.32-28.59,45.94-54.64,6.1-28.27-.85-54-17.53-77.33C389.38,91.17,386.16,87.91,385.05,83.05Z"/><path class="cls-7" d="M102,291.5A4.31,4.31,0,0,1,99.9,288c-2.85-43.25,6.92-81.86,43.23-109.24,24.09-18.17,51-24,79.47-10.41,20.22,9.69,31.28,27.09,36.06,48.61,1.29,5.8.46,7.46-3.64,11.68-7.63.52-13-4-17.83-9.06-9.23-9.61-19.18-17.84-32.62-20.84-27.35-6.09-49.93,3.59-69.78,21.39-17.89,16.05-26.73,36.9-30.15,60.33-.41,2.83-.83,5.67-1.36,8.48A12.45,12.45,0,0,1,102,291.5Z"/><path class="cls-7" d="M300.85,212.58c.58-9.14,6.52-15.15,12.58-21,7.72-7.38,13.7-15.77,16.55-26.17,6.79-24.76.26-46.77-14.85-66.44-15.82-20.59-37.07-32.31-62.79-36.19-4.48-.68-9.36-.68-13.36-3.35a2.9,2.9,0,0,1,3.09-2.74c30.4-1.91,59.42,2.75,84.82,20.62,26.76,18.85,42.46,44.31,41,78-1.48,34.55-28,55.72-53.81,61.42C309.5,217.75,304.59,218.09,300.85,212.58Z"/><path class="cls-7" d="M445.54,344.85c-6,9.6-14.21,16.45-22.3,23.25C405.5,383,385.05,393,362.08,395.37c-31.4,3.26-67.15-7.08-84.92-40-12.88-23.88-9.37-47.52,4.25-70.11,2-3.34,4.84-6.55,9.36-5.8s5.21,4.7,6.29,8.26a40.89,40.89,0,0,1,1.61,14.61c-2.39,36.25,25.41,58,50.12,65.22,33.06,9.7,62.07.41,88.72-19.47C439.56,346.51,441.28,344.11,445.54,344.85Z"/><path class="cls-7" d="M186.64,412.54c-4.37-1.32-7.14-4.7-10.17-7.62-22.55-21.77-38.22-47.38-40.25-79.25C134,291.44,144.48,262,175.61,244c23.65-13.65,47.65-10.15,70.33,4,3.32,2.06,6.37,5,5.56,9.53-.79,4.33-4.69,5.25-8.27,6.32a29.23,29.23,0,0,1-10.93,1.38c-41.52-3.61-66.38,30.48-71,61.52-4.27,28.62,3.66,53.94,21,76.65C185.94,408.19,186,408.18,186.64,412.54Z"/><path class="cls-7" d="M328.1,432.32c-1.41.7-2.24,1.44-3.14,1.53-44.66,4.25-94.27-11.52-117.33-57.06-14.68-29-11.06-61.55,9.45-82.32,10.87-11,23.72-18.91,39.59-20.35,8.39-.76,11.31,3.83,7.7,11.41a39.42,39.42,0,0,1-10.09,13.08c-18.94,16.13-27,44.65-13.65,74.47,13.91,31.16,38.68,48.85,72,55.08C317.66,429.09,323.16,428.62,328.1,432.32Z"/><path class="cls-7" d="M467.7,199.15a38.36,38.36,0,0,1,2.14,14.65c-.54,30.29-7.54,58.47-27.59,82.18-14.25,16.84-32.1,28.44-54,31.56-40.08,5.71-68.53-16.14-78-53.82a18.1,18.1,0,0,1-.35-5.5c.42-6.12,4.61-8.71,10.2-6.27a33.09,33.09,0,0,1,12.35,9c24,28.9,62.48,27.17,91,7.46,23.41-16.16,36.31-38.92,40.73-66.77.58-3.63,1.27-7.25,2-10.86C466.36,200.28,467,199.92,467.7,199.15Z"/><path class="cls-7" d="M122.29,146.68c8.1-11.88,17.54-20.25,27.81-27.74,21-15.35,44.23-24.45,70.7-23.81,35.66.87,65.1,21.32,74.61,49.47,7.1,21,3.52,40.88-7.62,59.58-3.91,6.56-6.23,7.43-12.7,6.42-5.15-6-5.59-13.58-5.4-21.19.23-8.69-.18-17.24-3.53-25.39-10.84-26.35-32-39.18-58.85-43.63-27.44-4.55-51.69,4-73.63,20.27C130.66,142.91,128,145.87,122.29,146.68Z"/><path class="cls-7" d="M286.32,269.54c-16.9-.38-25-15.37-23.85-26.81a24.21,24.21,0,0,1,25.83-21.58c13.18,1,23.26,12.35,22.4,25.23C309.8,259.83,298.63,270.44,286.32,269.54Z"/></svg>