<svg enable-background="new 0 0 113.4 113.4" viewBox="0 0 113.4 113.4" xmlns="http://www.w3.org/2000/svg"><circle cx="56.7" cy="56.7" fill="#fff" r="56.7"/><circle cx="56.7" cy="55.1" fill="#fff" r="53.7"/><path d="m112.1 56.5c0 26-18.2 48.7-43.4 54.1-29.9 6.4-58.9-11.7-65.9-41.5-6.9-29.4 11.2-59.2 41.3-66.4 1.7-.4 2.6-.1 3 1.1.5 1.3 0 2.5-1.5 3.1-1.8.8-3.7 1.4-5.5 2.2-14.5 6.5-23.2 17.5-25.6 33.1-3.5 22.5 11.7 43.8 34 48.1 23.5 4.6 46.1-10.8 50.4-34.3 3.8-21-8.6-41.8-29-48.3-.7-.2-1.3-.5-2-.8-1.4-.7-1.9-1.8-1.4-3.1.4-1.1 1.3-1.5 2.8-1.1 3.1.7 6.2 1.7 9.1 3 17.8 8 28.7 21.6 32.8 40.7.2 1 .4 2.1.5 3.2.2 2.3.4 4.7.4 6.9z" fill="#050302"/><path d="m68.1 74.6c11.8-6.2 17.9-15.7 16.6-29-1.1-11.4-7.6-19.1-18.2-23.6-3.3 5.7-6.5 11.3-9.8 17-3.3-5.7-6.5-11.2-9.7-16.8-6.7 1.9-15.1 9-17.7 19.6-3 12.3 2.6 26.6 16 32.7-1.5 3.4-3 6.8-4.4 10.2-14.5-5.9-25.8-22.4-23.4-41.1 2.7-20.6 19.3-32.5 33.6-34.1 1.8 3.2 3.7 6.3 5.6 9.7 1.9-3.3 3.8-6.5 5.6-9.7 13.2 1.4 29.5 12.1 33.3 31.7 3.7 19.4-7.7 37.2-23 43.5-1.5-3.3-3-6.7-4.5-10.1z" fill="#070504"/><path d="m45.7 27.6c1.4 2.2 1.4 2.5-.8 4-4.5 3.2-7.4 7.6-8.5 13-1.8 8.7 2.3 17.4 10 22 1.4.8 1.7 1.4 1.3 2.5-.5 1.4-1.4 1.7-2.8.9-3.4-1.9-6.2-4.5-8.4-7.7-7.5-11.1-4.7-26.3 6.4-33.9.7-.5 1.6-1.1 2.8-.8z" fill="#130e0c"/><path d="m67.7 27.6c1-.3 1.9.2 2.6.7 6.6 4.6 10.4 11 10.7 19 .4 9.7-3.7 17.2-12 22.4-.3.2-.7.4-1 .5-.9.3-1.6.3-2.2-.6-.6-1-.5-1.9.3-2.5.3-.3.7-.5 1.1-.7 12.8-7.6 13.5-26 1.4-34.7-.2-.1-.3-.2-.5-.3-1.7-1.5-1.8-1.8-.4-3.8z" fill="#14100d"/></svg>