<svg enable-background="new 0 0 113.4 118.4" viewBox="0 0 113.4 118.4" xmlns="http://www.w3.org/2000/svg"><circle cx="56.7" cy="61" r="56.7"/><circle cx="56.7" cy="61" fill="#fff" r="42"/><circle cx="56.7" cy="61" fill="#bf1713" r="40.6"/><path d="m56.5 117c-.6-.5-.7-1-.8-1.5l-.1-.2c-1.2-4.4-2.6-9.5-2.3-14.8.1-1.7 0-3.5-.1-5.2 0-1.1-.1-2.1-.1-3.2 0-.8-.2-1.1-1-1.2-3.9-.5-7.6-1.9-11-4-.2-.1-.4-.2-.7-.2s-.5.1-.9.2c-3.6 1.4-7.2 2.9-10.8 4.3l-.2.1c-.3.1-.6.2-.9.3l-1.8.6.4-1.1c.4-1 .8-2.1 1.2-3.1.9-2.3 1.7-4.4 2.7-6.5 1.1-2.3 1.5-4.4-.1-7.1-2.1-3.4-3.1-7.6-3.1-12.4 0-5.3 1.4-10.3 4.1-14.8.5-.9.6-1.6.1-2.6-1.2-2.8-2.4-5.8-3.5-8.6l-1.2-3.1c-.1-.1-.1-.3-.1-.4l-.2-.6.4-.2c.2-.1.3-.1.5-.1.3 0 .6.1.8.2.1 0 .1.1.2.1l.7.3c3.6 1.4 7.2 2.9 10.8 4.4.4.2.8.2 1.1.2.4 0 .8-.1 1.2-.4 2.2-1.3 4.6-2.3 6.9-2.9.4-.1.5-.2.5-.2s.1-.1-.1-.5c-.3-.8-.6-1.6-.7-2.3-.1-.6-.3-.7-.9-.7-.8 0-1.6 0-2.4 0-.9 0-1.9 0-2.8 0h-1c-.4 0-.9-.1-1.1-.4-.4-.6.1-1.1.3-1.3l.1-.1c1.7-1.8 3-2.8 4.8-2.8.7 0 1.5.2 2.5.5.3.1.6.2.9.3.5.2 1.1.4 1.6.5.3.1.5.1.8.1 1.4 0 2.4-1.1 2.4-2.5 0-2.8 0-5.6 0-8.4v-4.4c0-.1 0-.2 0-.3 0-.5-.1-1 .3-1.5.4-.4.4-.5.3-.5 0-.1-.4-.4-.6-.5l-.2-.1c-1-.7-1.6-1.8-1.7-3s .3-2.5 1.2-3.4c.8-.9 2.1-1.4 3.4-1.4 1.2 0 2.4.5 3.2 1.3.9.9 1.4 2.1 1.3 3.3s-.6 2.3-1.6 3.1c-.1.1-.2.2-.3.3-.3.2-.6.4-.6.6 0 .1.1.3.4.6.4.4.3.9.3 1.5v.3 5.6 6.8c0 1.7.9 2.8 2.4 2.8.4 0 .7-.1 1.1-.2l1.2-.4c.7-.2 1.4-.4 2.1-.6.5-.1 1-.2 1.4-.2 2.2 0 3.8 1.6 5.1 3.1.3.4.4.7.2 1-.2.4-.8.4-1 .4h-1.2c-.8 0-1.7 0-2.5 0s-1.6 0-2.4 0h-.1c-.7 0-1 .2-1.1 1s-.4 1.6-.7 2.2c-.1.3-.1.5-.1.5s.1.1.5.2c2.4.6 4.8 1.7 7.4 3.2.2.1.5.2.7.2.3 0 .6-.1 1.1-.3l11.4-4.6 2.3-.9-1.1 2.7c-.4 1.1-.8 2.1-1.2 3.1l-.7 1.7c-.8 2-1.6 4.1-2.5 6.1-.4.9-.3 1.6.2 2.4 2.8 4.6 4.1 9.6 4.1 14.8s-1.4 10-4 14.3c-.6.9-.6 1.7-.2 2.6 1.1 2.5 2.1 5.1 3.1 7.6l1.1 2.8c.1.3.2.6.4 1l .4 1.1-.5.2c-.2.1-.4.1-.6.1-.4 0-.8-.2-1-.3-.1 0-.2-.1-.2-.1l-.6-.2c-3.4-1.4-6.8-2.8-10.2-4.2-.4-.2-.7-.2-1-.2-.4 0-.8.1-1.3.4-3.2 1.9-6.5 3.2-10.1 3.6-.8.1-1.1.4-1.1 1.2 0 1.4-.1 2.8-.1 4.2-.1 2-.1 4.2-.1 6.2 0 4.1-1 7.9-2 11.7-.2.7-.4 1.4-.5 2-.1.2-.2.4-.2.5s-.1.1-.1.2l-.3.5zm-.1-81.7c-7 0-13.7 2.8-18.7 7.8-5 5.1-7.8 11.8-7.8 18.9 0 14.3 11.8 26.5 25.7 26.5h1s .7 0 1 0c13.9 0 25.6-12.1 25.7-26.5.1-14.6-11.9-26.5-26.6-26.7zm-4-5.2c.1.7.4 1.6 1.5 2 .1 0 .1 0 .1.1.2-.6.4-1.4.2-2 0-.1-.1-.2-.6-.2-.1 0-.3 0-.4 0s-.3 0-.3 0c-.1 0-.5 0-.5 0zm7.4-.1c-.2 0-.7 0-.8.1s-.1.2 0 .5v.7c0 .7 0 .8.4.9.1 0 .3-.1.7-.4.5-.5.8-1.2.8-1.6 0-.1 0-.2 0-.2-.1 0-.2 0-.2 0-.1 0-.2 0-.2 0-.1 0-.2 0-.3 0zm-3.1-27.1c-.5 0-1 .2-1.3.5s-.5.8-.5 1.3c0 1 .7 1.7 1.7 1.8 1.1 0 1.8-.7 1.8-1.8 0-.5-.2-1-.5-1.3-.2-.3-.6-.5-1.2-.5z" fill="#fff"/><path d="m56.7 1c1.1 0 2.1.4 2.9 1.1 1.6 1.6 1.5 4.2-.3 5.7-.8.6-1.7 1-.6 2.2.3.3.1.9.1 1.4v12.4c0 2 1.2 3.3 2.9 3.3.4 0 .8-.1 1.3-.2 1.1-.3 2.2-.7 3.3-1 .5-.1.9-.2 1.3-.2 2 0 3.4 1.4 4.7 2.9.5.6 0 .6-.4.6h-.1c-1.2 0-2.4 0-3.6 0-.8 0-1.6 0-2.3 0h-.1c-1 0-1.4.4-1.6 1.4-.1.7-.4 1.4-.7 2.1-.4.8-.1 1.2.7 1.4 2.6.7 5 1.8 7.3 3.2.3.2.7.3 1 .3.4 0 .8-.1 1.3-.3 3.8-1.5 7.6-3.1 11.4-4.6.3-.1.6-.2 1.2-.5-.7 1.7-1.3 3.2-1.9 4.7-1 2.6-2.1 5.2-3.2 7.7-.4 1-.4 1.9.2 2.9 2.7 4.5 4 9.4 4 14.5 0 4.9-1.3 9.7-3.9 14.1-.6 1.1-.7 2-.2 3.1 1.5 3.5 2.9 7 4.3 10.5.2.5.4 1 .6 1.5-.1 0-.3.1-.4.1-.4 0-.7-.2-1.1-.4-3.6-1.5-7.2-2.9-10.8-4.4-.4-.2-.8-.3-1.2-.3-.5 0-1 .2-1.5.5-3 1.9-6.3 3.1-9.9 3.6-1 .1-1.5.6-1.5 1.7 0 3.5-.2 7-.2 10.5.1 4.7-1.4 9.1-2.5 13.6 0 .2-.2.3-.3.6-.5-.4-.6-1-.7-1.4-1.3-4.8-2.5-9.6-2.3-14.6.1-2.8-.1-5.7-.2-8.5 0-1-.4-1.5-1.4-1.7-3.9-.5-7.5-1.9-10.8-3.9-.3-.2-.6-.3-1-.3s-.8.1-1.1.3c-3.7 1.5-7.3 2.9-11 4.4-.4.2-.8.3-1.6.6 1.4-3.4 2.5-6.6 3.9-9.6 1.3-2.7 1.5-4.9-.1-7.6-2.2-3.7-3-8-3-12.2 0-5.1 1.4-10.1 4.1-14.5.6-1.1.7-2 .2-3.1-1.6-3.8-3.2-7.7-4.8-11.6-.1-.2-.1-.4-.2-.6.1-.1.2-.1.3-.1.3 0 .5.2.8.3 3.8 1.5 7.7 3.1 11.5 4.7.5.2.9.3 1.3.3.5 0 1-.1 1.5-.4 2.1-1.3 4.4-2.2 6.8-2.8.9-.2 1.1-.6.8-1.5-.3-.7-.5-1.5-.7-2.2-.1-.9-.6-1.2-1.4-1.2h-.1c-.8 0-1.5 0-2.3 0-1.3 0-2.5 0-3.8 0-.2 0-.6 0-.7-.2-.2-.3.1-.5.3-.7 1.7-1.8 2.8-2.6 4.4-2.6.7 0 1.5.2 2.4.5s1.7.6 2.6.8c.3.1.6.1.9.1 1.6 0 2.9-1.2 2.9-3 0-4.3 0-8.5 0-12.8 0-.5-.2-1.1.2-1.4 1-1 .3-1.4-.5-2-1.8-1.4-2-4-.5-5.6.9-1.2 2-1.6 3.1-1.6m0 6c1.4 0 2.3-.9 2.3-2.3s-.9-2.3-2.3-2.3-2.3.9-2.3 2.3c.1 1.3 1 2.3 2.3 2.3zm-3.8 22.5c-.1 0-.3 0-.4 0-.3 0-.6.1-.5.7.1 1.1.7 2 1.8 2.5.1.1.3.1.5.1.1 0 .2-.1.3-.2.3-.8.5-1.7.2-2.5-.2-.7-.9-.5-1.5-.6-.2 0-.3 0-.4 0m6.5 3.2c.8 0 2.1-1.6 2-2.6 0-.5-.3-.6-.6-.6-.1 0-.3 0-.4 0s-.1 0-.2 0-.3 0-.4 0c-.8 0-1.5.1-1.3 1.2.1.7-.3 1.8.9 2-.1 0-.1 0 0 0m-3.7 56.3h1s .6 0 .9 0c13.4 0 26.1-11.7 26.2-27 .1-15-12.1-27-27.2-27.1-.1 0-.2 0-.3 0-14.9 0-27 12.3-27 27.2.2 15.2 12.8 26.9 26.4 26.9m1-89c-1.5 0-2.8.6-3.8 1.6-.9 1-1.4 2.4-1.3 3.8.1 1.3.8 2.5 1.9 3.4l.2.1c.1.1.2.1.3.2 0 0 0 .1-.1.1-.6.6-.5 1.4-.5 1.9v.3 4.4 8.4c0 1.2-.8 2-1.9 2-.2 0-.4 0-.7-.1-.5-.1-1.1-.3-1.6-.5-.3-.1-.6-.2-.9-.3-1.1-.3-1.9-.5-2.7-.5-2 0-3.4 1-5.2 3l-.1.1c-.9.9-.5 1.7-.3 1.9.4.6 1.2.6 1.5.6h1 2.8 2.3.1.4s0 .1.1.3c.1.8.4 1.6.7 2.5v.1h-.1c-2.4.6-4.8 1.6-7.1 2.9-.3.2-.7.3-1 .3s-.6-.1-.9-.2c-3.6-1.5-7.3-3-10.8-4.4l-.6-.4s-.1 0-.1-.1c-.2-.1-.6-.3-1-.3-.2 0-.5.1-.7.2l-.8.4.3.9.1.2c0 .2.1.3.2.5.4 1 .8 2 1.2 3 1.1 2.8 2.3 5.7 3.5 8.6.4.9.3 1.4-.1 2.2-2.8 4.6-4.2 9.6-4.2 15 0 4.9 1 9.2 3.1 12.7 1.3 2.2 1.3 4 .1 6.7-1 2.1-1.9 4.3-2.7 6.6-.4 1-.8 2-1.2 3.1l-.9 2.2 2.2-.8.7-.3c.4-.1.7-.2.9-.3l.4-.1c3.5-1.4 7.1-2.8 10.6-4.2.3-.1.6-.2.8-.2.1 0 .2 0 .4.1 3.4 2.2 7.2 3.5 11.2 4.1.4.1.5.1.5.7 0 1.1.1 2.2.1 3.2.1 1.7.1 3.5.1 5.2-.2 5.4 1.1 10.5 2.4 14.9 0 .1 0 .1.1.2.1.5.3 1.2 1 1.8l.9.7.6-1c0-.1.1-.1.1-.2.1-.2.2-.4.3-.7.2-.7.4-1.4.5-2 1-3.8 2.1-7.7 2-11.8 0-2.1 0-4.2.1-6.2 0-1.4.1-2.8.1-4.2 0-.5 0-.6.6-.7 3.6-.5 7.1-1.7 10.3-3.7.4-.2.7-.3 1-.3.2 0 .5.1.9.2 3.4 1.4 6.9 2.8 10.2 4.2l.6.3c.1 0 .1.1.2.1.3.1.7.3 1.3.3.2 0 .5 0 .7-.1l1-.3-.4-1-.2-.5c-.1-.4-.3-.7-.4-1-.4-.9-.7-1.9-1.1-2.8-1-2.5-2.1-5.1-3.2-7.7-.4-.8-.3-1.4.2-2.2 2.6-4.4 4-9.3 4.1-14.6 0-5.3-1.3-10.4-4.1-15.1-.4-.7-.5-1.2-.1-2 .9-2 1.7-4.1 2.5-6.1l.7-1.7c.4-1 .8-2 1.2-3.1l.6-1.6.9-2.2-2.2.9-.5.2c-.3.1-.5.2-.7.3l-4 1.6c-2.5 1-4.9 2-7.4 3-.8-.2-1.1-.2-1.3-.2s-.3 0-.4-.1c-2.7-1.6-5.1-2.6-7.6-3.3.3-.7.6-1.5.7-2.4 0-.4.1-.4.1-.4s.1-.1.4-.1h.1 2.4 2.5 1.1.1.1c.3 0 1.1 0 1.5-.7.2-.3.2-.9-.3-1.5-1.3-1.6-3-3.3-5.5-3.3-.5 0-1 .1-1.6.2-.7.2-1.4.4-2 .6-.4.1-.8.3-1.3.4-.4.1-.7.2-1 .2-1.2 0-1.9-.8-1.9-2.2 0-2.3 0-4.5 0-6.8 0-1.9 0-3.8 0-5.7 0-.1 0-.2 0-.3 0-.6.1-1.3-.5-1.8-.1-.1-.1-.1-.1-.2.1-.1.2-.2.3-.2.1-.1.2-.2.4-.3 1.1-.9 1.7-2.1 1.8-3.5s-.5-2.7-1.4-3.7c-1.1-.9-2.4-1.4-3.8-1.4zm0 6c-.8 0-1.3-.5-1.3-1.3 0-.4.1-.7.3-1 .2-.2.5-.3.9-.3s.7.1.9.3.3.6.3 1c .2.8-.3 1.3-1.1 1.3zm-3.7 24.5h.2.4.1c.1.3 0 .6-.1 1-.2-.3-.5-.6-.6-1zm6.5 0h .3.3.2c-.2.4-.5.8-.7 1 0-.1 0-.2 0-.2-.1-.2-.1-.5-.1-.8zm-3.8 57.4c-13.6 0-25.2-11.9-25.2-26 0-7 2.7-13.5 7.6-18.5 4.9-4.9 11.4-7.6 18.3-7.6h.3c14.4.2 26.2 11.9 26.1 26.2-.1 14.1-11.6 26-25.2 26-.3 0-.6 0-.9 0-.4-.1-.7-.1-1-.1z"/><path d="m56.7 88.9c-13.9.6-27.2-11.3-27.3-26.9 0-15 12.2-27.3 27.2-27.2 15.1.2 27.3 12.2 27.2 27.2 0 15.6-13.4 27.5-27.1 26.9zm20.6-27c-.4-11.7-9-20.6-20.7-20.6s-20.6 8.9-20.6 20.6c0 11.6 8.9 20.6 20.6 20.6 11.6 0 20.2-8.9 20.7-20.6z"/><path d="m77.3 61.9c-.5 11.7-9.1 20.6-20.7 20.6-11.7 0-20.6-9-20.6-20.6 0-11.7 8.9-20.6 20.6-20.6s20.3 8.9 20.7 20.6zm-33.9-5.8c-.7.7-1.4 1.3-2.1 1.9-3 2.9-4.5 8.5-2.2 12.8 5.6 10.8 18.5 13.5 27.7 8 1.6-1 1.7-1.3 1.2-3.1-.8-2.7-2.7-4.6-4.9-6.1-1.6-1.1-3.3-2.1-4.8-3.4-.7-.6-1.3-1.3-1.6-2.2-.5-1.6-1.6-2.4-3.3-2.3-.3 0-.6.3-.9 0 0-.1 0-.2.1-.3 1.2-2.2 1-2.5-1.6-2.4h-.1c-.6 0-1.3.4-1.7-.3-.3-.7.2-1.2.5-1.8.2-.4.4-.8.9-.9.1.4-.1.6-.2.9-.4 1-.3 1.4.9 1.4 1 0 2 .3 3 .4.6.1 1 .5.7 1.1-.3.9.1 1.3.9 1.3.9 0 1.4.5 1.7 1.3.6 1.3 1.6 2.3 2.8 3 1.5.9 3.2 1.1 4.9 1.5.9.2 1.8.4 2.6 1 1.2.8 1.6.7 2.3-.5.4-.7.5-1.5.5-2.2s-.3-1.1-1.1-.9c-1 .2-2 .3-3 0-.9-.3-1.6-.8-1.8-1.8 0-1.2 1-3 2-3.3 1.3-.4 3 .2 3.7 1.5.8 1.3 1.1 1.3 2.1.1.3-.4.6-.9.8-1.4.2-.4.4-.8.9-1.1 1.2-.6 1.2-1.4 0-2-1.6-.8-3.2-1.6-4.8-2.4-.5-.2-1-.5-.9-1.1.1-1-.5-1.5-1.3-1.8-.7-.3-1.4-.7-2.1-1-2.1-1-2.1-1-1.8-3.4.1-.5.3-1-.1-1.4-.4-.3-.8.1-1.2.3-2.3 1-4.5 2.3-7 2.8-3.1.6-6 1.7-8.8 3.1-1.7.9-3.3 1.9-4.6 3.2-.3.2-.7.5-.5.9.1.3.6.2.9.2.2.1.8 0 1.3.4z" fill="#fff"/><path d="m43.4 56.1c-.5-.5-1-.4-1.6-.4-.3 0-.7.1-.9-.2-.2-.4.2-.7.5-.9 1.4-1.3 2.9-2.3 4.6-3.2 2.8-1.4 5.7-2.5 8.8-3.1 2.6-.5 4.7-1.9 7-2.8.4-.2.8-.6 1.2-.3.5.3.2.9.1 1.4-.3 2.3-.3 2.3 1.8 3.4.7.3 1.4.7 2.1 1 .8.4 1.4.8 1.3 1.8-.1.7.5.9.9 1.1l4.8 2.4c1.2.6 1.2 1.4 0 2-.5.3-.7.6-.9 1.1s-.5 1-.8 1.4c-1 1.2-1.3 1.2-2.1-.1-.7-1.2-2.4-1.9-3.7-1.5-1 .3-2 2.1-1.8 3.4.1 1 .8 1.6 1.8 1.8 1 .3 2 .2 3 0 .8-.2 1.1.2 1.1.9 0 .8-.1 1.6-.5 2.2-.7 1.3-1.1 1.4-2.3.5-.8-.5-1.7-.7-2.6-1-1.7-.4-3.4-.7-4.9-1.5-1.2-.7-2.2-1.7-2.8-3-.4-.8-.8-1.3-1.7-1.3-.8 0-1.2-.4-.9-1.3.3-.7-.1-1-.7-1.1-1-.2-2-.4-3-.4-1.2 0-1.3-.5-.9-1.4.1-.2.3-.5.2-.9-.5.1-.7.5-.9.9-.3.6-.9 1.1-.5 1.8.3.7 1.1.3 1.7.3h.1c2.6 0 2.8.2 1.6 2.4-.1.1 0 .2-.1.3.3.3.6.1.9 0 1.7-.1 2.8.7 3.3 2.3.3.9.9 1.6 1.6 2.2 1.5 1.3 3.2 2.3 4.8 3.4 2.3 1.5 4.1 3.4 4.9 6.1.5 1.8.4 2.1-1.2 3.1-9.2 5.5-22.2 2.7-27.7-8-2.2-4.3-.7-9.9 2.2-12.8.8-.7 1.5-1.3 2.2-2z"/><path d="m67.1 52.5-3.3-1.3s.7 2.4 1.1 2.4c.5 0 .7.8 2.2-1.1z" fill="#fff"/><path d="m56.6 37c-13.8 0-24.9 11.1-24.9 24.9s11.1 24.9 24.9 24.9 24.9-11.1 24.9-24.9-11.1-24.9-24.9-24.9zm0 48.1c-12.8 0-23.3-10.4-23.3-23.3 0-12.8 10.4-23.3 23.3-23.3s23.3 10.4 23.3 23.3-10.4 23.3-23.3 23.3z" fill="#bf1713"/><path d="m52.4 30.1 1.2 2 .7-2z"/><path d="m60.6 30.1-1.2 2-.7-2z"/><g fill="#fff"><path d="m4.8 68.4-.4-3.4 1.2-.1.1 1.1 5-.5.1 1.2-5 .5.1 1.1z"/><path d="m4.4 64.3-.1-3.4h1.1l.1 2.2h1.1l-.1-2.2h1.1l.1 2.2 1.6-.1-.1-2.2h1.2l.1 3.4z"/><path d="m4.4 57.8.1-1.2 6.3-1.9-.1 1.2-1.3.4-.2 2.5 1.2.6-.1 1.2zm1.7-.4 2.1 1 .1-1.6z"/><path d="m4.9 53.2.2-1.2c.1-.7.3-1.1.4-1.4.2-.3.4-.5.7-.6s.7-.1 1-.1c.4.1.7.2.9.5.2.2.4.6.4 1l3-.9-.2 1.3-2.8.9v.1l2.6.5-.2 1.2zm2.5-.7.1-.4c.1-.4.1-.6 0-.8s-.2-.3-.4-.3c-.1 0-.3 0-.4 0-.1.1-.2.1-.3.2s-.1.3-.2.6l-.1.3z"/><path d="m5.8 48.5.3-1.1 4.9 1.3.4-1.7 1.1.3-.7 2.8z"/><path d="m7.5 43 .4-1.1h6.6l-.4 1.1h-1.4l-.9 2.3 1 .9-.4 1.1zm1.7 0 1.7 1.5.6-1.5z"/><path d="m12.9 34.2.3 1.1c-.8.2-1.4.6-1.7 1.2-.3.5-.3 1.1-.2 1.6.2.5.5 1 1 1.2.4.2.7.3 1.1.3s.7-.1 1-.3.6-.5.8-.8.3-.6.3-.9 0-.7-.2-1.1l1.1-.3c.2.6.2 1.1.2 1.6 0 .4-.2.9-.4 1.3-.5.8-1.1 1.4-1.9 1.6-.8.3-1.7.2-2.5-.3-.5-.3-1-.7-1.3-1.1-.3-.5-.4-1-.5-1.6 0-.6.1-1.2.4-1.7.2-.4.6-.8 1-1.1.5-.4 1-.6 1.5-.7z"/><path d="m12.6 32.7.7-1 1.9 1.3 1.2-1.7-1.9-1.3.7-1 5 3.6-.7 1-2.2-1.6-1.2 1.7 2.2 1.6-.7 1z"/><path d="m19.8 27-.7.8-.4-.4c-.3-.2-.5-.5-.6-.7s-.2-.5-.3-.9l.5-.1c0 .2.1.3.1.4s.1.2.2.4l.3-.3zm1.1-1.2-.7.7-.4-.3c-.3-.2-.5-.5-.6-.7s-.2-.5-.3-.9l.5-.1c0 .2.1.3.1.4s.1.2.2.4l.3-.3z"/><path d="m20.3 23.2 1-.9c.7-.6 1.2-.9 1.7-1.1.5-.1 1-.1 1.5.1s1 .5 1.5 1c .3.4.5.7.7 1.1.1.4.2.8.2 1.2s-.1.7-.3 1-.6.7-1.2 1.2l-1.1.9zm1.7.1 2.6 2.9.4-.4c.4-.4.7-.7.8-.9.1-.3.1-.5 0-.9-.1-.3-.3-.6-.5-1-.4-.5-.9-.8-1.4-.8s-1 .2-1.5.7z"/><path d="m25 19.3 2.7-2 .7.9-1.8 1.3.7.9 1.8-1.3.7.9-1.8 1.3.9 1.3 1.8-1.3.7.9-2.7 2z"/><path d="m30.3 15.8 1-.6 5.1 4.2-1.1.6-1-.9-2.2 1.2.2 1.4-1.1.6zm1.4 1.1.3 2.3 1.4-.8z"/><path d="m34.4 13.6 1.1-.5c.6-.3 1.1-.4 1.4-.4s.6.1.9.3.5.5.6.8c.2.4.2.7.1 1.1-.1.3-.3.6-.6.9l2.4 1.9-1.2.5-2.3-1.9h-.1l1 2.4-1.1.5zm2.1 1.7.3-.1c.3-.1.6-.3.7-.4s.1-.3 0-.5c-.1-.1-.1-.2-.2-.3s-.2-.1-.3-.1-.3.1-.6.2l-.3.1z"/><path d="m44.8 11-.6 1c-.7-.4-1.3-.5-2-.3-.6.2-1 .5-1.3 1s-.3 1-.2 1.6c.2.6.5 1 1 1.3s1.1.3 1.7.2c.4-.1.7-.3.9-.5s.4-.6.4-1l-1.7.5-.2-1.1 3-.9.1.2c.2.5.2 1 0 1.6-.1.5-.4 1-.7 1.4-.4.4-.8.6-1.4.8s-1.2.2-1.8.1-1.1-.4-1.5-.8-.7-.9-.9-1.5c-.2-.8-.2-1.5.2-2.3.4-.9 1.1-1.5 2.1-1.7.5-.2 1-.2 1.5-.1.5 0 .9.2 1.4.5z"/><path d="m46.1 9.6 1-.2.1.6c.1.4.1.7 0 1 0 .3-.1.6-.3.9l-.5-.2c.1-.2.1-.3.2-.4 0-.1.1-.3.1-.5l-.4.1zm1.7-.3 1-.2.1.6c.1.4.1.7 0 1 0 .3-.1.6-.3.9l-.5-.2c.1-.2.1-.3.2-.4 0-.1 0-.3.1-.5h-.4z"/><path d="m68.2 9.9 1.1.3.2 4.5 2.5-3.8 1.1.3-.5 6.3-1.1-.3.4-3.9-2.3 3.4-1-.3-.2-4.1-1.7 3.6-1.1-.3z"/><path d="m81.3 16-1.1.4c-.3-.8-.7-1.3-1.3-1.6-.5-.3-1.1-.3-1.6-.1s-.9.6-1.2 1.1c-.2.4-.3.7-.2 1.1 0 .4.1.7.4 1 .2.3.5.5.9.7.3.1.6.2.9.2s.7-.1 1.1-.2l.4 1.1c-.6.2-1.1.3-1.6.3-.4 0-.9-.1-1.4-.4-.9-.4-1.4-1-1.7-1.8s-.2-1.6.2-2.5c.3-.6.6-1 1.1-1.3s1-.5 1.6-.5 1.2.1 1.7.3.9.5 1.2.9c.2.3.5.8.6 1.3z"/><path d="m84.6 16.7.9.7-1.3 4.3 3.7-2.7.9.7-2.7 5.7-.9-.7 1.7-3.6-3.3 2.4-.8-.6 1.2-3.9-2.8 2.8-.9-.7z"/><path d="m91.6 21.9.8.8-2.8 2.9c-.2.2-.4.4-.4.6-.1.1-.1.3 0 .5 0 .2.1.3.3.4.1.1.3.2.5.3h.5c.1-.1.4-.2.6-.5l2.7-2.8.8.8-2.6 2.6c-.4.4-.8.7-1 .9s-.5.2-.8.2-.6 0-.8-.1c-.3-.1-.5-.3-.8-.5-.3-.3-.5-.7-.6-1-.1-.4-.1-.7 0-1s .4-.7.9-1.3z"/><path d="m96.5 27 .8 1c .4.5.7 1 .8 1.3s.1.6 0 .9-.3.6-.6.8c-.3.3-.6.4-1 .4-.3 0-.7-.1-1-.3l-1.2 2.9-.8-1 1.2-2.7-.1-.1-2 1.6-.7-.9zm-1.2 2.4.2.3c.2.3.4.5.6.5s.3 0 .5-.1c.1-.1.2-.2.2-.3s0-.2 0-.4c0-.1-.2-.3-.4-.5l-.2-.3z"/><path d="m100.4 32.1.7 1.1c.4.6.6 1 .6 1.3s0 .6-.1.9-.4.5-.7.8c-.3.2-.7.3-1 .3s-.7-.2-1-.4l-1.6 2.7-.7-1.1 1.5-2.6-.1-.1-2.2 1.4-.6-1zm-1.5 2.3.2.3c.2.3.4.5.5.6.2.1.3 0 .5-.1.1-.1.2-.2.2-.3s.1-.2 0-.4c0-.1-.1-.3-.3-.6l-.2-.3z"/><path d="m104.9 40.3c.3.8.4 1.6 0 2.4-.3.8-.9 1.4-1.8 1.8-.8.4-1.7.4-2.5 0s-1.4-.9-1.8-1.7c-.4-.9-.4-1.7 0-2.5.3-.8.9-1.4 1.7-1.7.5-.2 1.1-.3 1.7-.2s1.1.3 1.5.6c.7.4 1 .8 1.2 1.3zm-1 .5c-.2-.5-.6-.9-1.1-1.1s-1.1-.2-1.6.1c-.6.3-1 .7-1.2 1.3-.1.5-.1.9.1 1.4s.6.9 1.1 1.1 1.1.2 1.6 0 .9-.6 1.1-1.1c.2-.7.2-1.2 0-1.7z"/><path d="m106.8 45.9.3 1.1-3.9 1c-.3.1-.6.2-.7.3s-.2.2-.3.4v.5c.1.2.1.4.3.5.1.1.3.2.4.2.2 0 .4 0 .8-.1l3.7-1 .3 1.1-3.6.9c-.6.2-1 .2-1.3.2s-.5-.1-.8-.2-.5-.3-.7-.5-.3-.5-.4-.8c-.1-.4-.1-.8 0-1.2s.3-.7.6-.9.8-.4 1.5-.6z"/><path d="m108 58.6-.9-.7c.5-.6.7-1.2.6-1.9-.1-.6-.3-1.1-.8-1.5-.4-.4-1-.5-1.5-.5-.6.1-1.1.3-1.4.8-.4.5-.5 1-.5 1.6 0 .4.2.7.4 1s .5.5.9.6l-.2-1.8 1.1-.1.3 3.1h-.3c-.5.1-1.1 0-1.6-.3-.5-.2-.9-.6-1.2-1s-.5-.9-.5-1.5c-.1-.6 0-1.2.2-1.7s.6-1 1.1-1.3 1-.5 1.6-.6c.8-.1 1.5.1 2.2.6.8.6 1.2 1.4 1.3 2.4.1.5 0 1-.1 1.5 0 .5-.3.9-.7 1.3z"/><path d="m109.1 61.6-.1 1.2-2.3-.1-.1 2.1 2.3.1-.1 1.2-6.2-.3.1-1.2 2.7.1.1-2.1-2.7-.1.1-1.2z"/></g><path d="m27 101.7c-.2.2-.4.4-.6.5s-.4.1-.7 0c-.2 0-.4-.1-.7-.3-.2-.1-.4-.3-.6-.5l-3.1-2.6c-.2-.1-.2-.3 0-.5l2.9-3.5c.1-.2.3-.2.5 0l3.1 2.7c.2.2.4.4.6.6s.3.4.4.6.1.4 0 .6-.2.4-.4.7c-.2.2-.3.3-.5.4s-.4.1-.7 0c .1.2.2.4.2.6-.1.2-.2.5-.4.7zm-.7-.6c.1-.1.2-.2.2-.3s0-.2 0-.3-.1-.2-.2-.3-.2-.3-.4-.4l-2.6-2.2-.9 1.1 2.7 2.2c.2.2.3.3.5.3.1.1.2.1.3.1s.2 0 .3-.1c-.1.1 0 0 .1-.1zm-2.5-4.1 2.6 2.2c.2.1.3.2.4.3s.2.1.3.1.2 0 .3 0 .2-.1.3-.2.1-.2.2-.3c0-.1 0-.2 0-.3s-.1-.2-.2-.3-.2-.2-.4-.4l-2.6-2.2z" fill="#bf1713"/><path d="m33.2 102.5c.1.1.2.2.3.2 0 .1 0 .2-.1.3l-1.3 2.1c-.4.7-1.2.7-2.4 0l-1.4-.9c-1.1-.7-1.5-1.4-1-2.1l1.3-2.1c.1-.1.2-.2.2-.2s.2 0 .3.1.2.2.3.2c0 .1 0 .2-.1.3l-1.3 2.1c-.1.1-.1.3 0 .5s.3.4.7.6l1.4.9c.3.2.6.3.8.3s.4 0 .4-.2l1.3-2.1c.1-.1.2-.2.2-.2.2.1.3.2.4.2z" fill="#bf1713"/><path d="m33.7 107.4c-1.2-.6-1.7-1.2-1.3-2l .2-.3c.4-.8 1.1-.8 2.4-.3l2.8 1.3c.1-.1 0-.3-.1-.4s-.4-.3-.7-.5l-.6-.3c-.1 0-.2-.1-.2-.2s0-.2.1-.3.1-.2.2-.2h.2l.6.3c1.2.6 1.7 1.2 1.3 2l-.7 1.4c-.4.8-1.1.8-2.4.3zm2.1.1c.4.2.6.2.9.2.2 0 .3-.1.4-.2l.4-.8-2.8-1.3c-.4-.2-.6-.2-.9-.2-.2 0-.3.1-.4.2l-.2.4c-.1.1 0 .3.1.5s.4.3.7.5z" fill="#bf1713"/><path d="m38.8 109.2c0 .1-.1.2-.2.2s-.2 0-.3-.1-.2-.1-.3-.2-.1-.2 0-.3l1.2-3.2c0-.1.1-.2.2-.2s.2 0 .3.1.2.1.3.2.1.2 0 .3zm.6-4.5c.1-.1.1-.2.2-.3.1 0 .3 0 .4.1.2.1.3.2.4.3s.1.2 0 .4c-.1.1-.1.2-.2.3-.1 0-.3 0-.4-.1s-.3-.2-.4-.3 0-.3 0-.4z" fill="#bf1713"/><path d="m45.2 106.4c0-.1.1-.2.2-.2h.3s.2.1.3.2.1.2 0 .3l-1 3.5c-.2.8-1 1-2.3.6l-1.7-.5c-1.3-.4-1.8-1-1.6-1.8l.4-1.5c.2-.8 1-1 2.3-.6l2.7.8zm-3.2.7c-.4-.1-.7-.2-.9-.1s-.3.1-.4.3l-.4 1.5c0 .1 0 .3.2.4.1.2.4.3.8.4l1.6.5c.4.1.7.1.9.1s.3-.1.4-.3l.6-2z" fill="#bf1713"/><path d="m45.7 111.6c-.2 0-.3-.1-.3-.1-.1-.1-.1-.2-.1-.3l.8-4.5c0-.1.1-.2.2-.3h.3c.2 0 .3.1.3.1.1.1.1.2.1.3l-.1.8 2.7.5c1.3.2 1.9.8 1.8 1.6l-.4 2.5c0 .1-.1.2-.2.3-.1 0-.2 0-.4 0-.1 0-.3-.1-.3-.1-.1-.1-.1-.2-.1-.3l.4-2.5c0-.1 0-.3-.2-.4s-.4-.2-.8-.3l-2.7-.5-.5 3c0 .1-.1.2-.2.3 0 0-.1 0-.3-.1z" fill="#bf1713"/><path d="m63.4 112.4c-.2 0-.3 0-.3 0-.1 0-.1-.1-.2-.2l-.4-2.5c-.1-.8.4-1.3 1.8-1.6l1.5-.3c1.3-.2 2.1.1 2.2.9l.4 2.5c0 .1 0 .2-.1.3s-.2.1-.3.1-.3 0-.3 0c-.1 0-.1-.1-.2-.2l-.4-2.5c0-.1-.1-.3-.3-.3-.2-.1-.5-.1-.9 0l-1.5.3c-.4.1-.7.2-.8.3-.2.1-.2.3-.2.4l.4 2.5c0 .1 0 .2-.1.3 0-.1-.1-.1-.3 0z" fill="#bf1713"/><path d="m68.2 108.6c-.2-.8.3-1.4 1.6-1.8l1.5-.5c1.3-.4 2.1-.2 2.3.6l.5 1.5c.2.8-.3 1.4-1.6 1.8l-1.5.5c-1.3.4-2.1.2-2.3-.6zm4.5-1.4c0-.1-.2-.2-.4-.3-.2 0-.5 0-.9.1l-1.4.4c-.4.1-.6.3-.8.4-.1.1-.2.3-.2.4l.5 1.5c0 .1.2.2.4.3.2 0 .5 0 .9-.1l1.4-.4c.4-.1.6-.3.8-.4.1-.2.2-.3.2-.4z" fill="#bf1713"/><path d="m82.3 104.3c.1.3.2.5.2.8s-.1.4-.2.6-.3.4-.5.5c-.2.2-.4.3-.7.4l-3.6 1.8c-.2.1-.3 0-.4-.2l-2.1-4c-.1-.2-.1-.3.1-.4l3.6-1.8c.3-.1.5-.3.8-.3.3-.1.5-.1.7-.1s.4.1.6.2.3.3.5.6c.1.2.2.4.2.7 0 .2-.1.4-.3.7.2 0 .4 0 .6.1s.4.1.5.4zm-5.6 1.2 3-1.5c.2-.1.3-.2.5-.3l.3-.3c.1-.1.1-.2.1-.3s0-.2-.1-.4c-.1-.1-.1-.2-.2-.3s-.1-.1-.2-.1-.2 0-.4 0c-.1 0-.3.1-.5.2l-3.1 1.6zm4.8-.7c-.1-.1-.1-.2-.2-.3s-.2-.1-.3-.1-.2 0-.4 0-.3.1-.6.2l-3 1.5.7 1.3 3.1-1.6c.2-.1.4-.2.5-.3s.2-.2.2-.3.1-.2 0-.4c-.1 0 0 .1 0 0z" fill="#bf1713"/><path d="m85 104.3c-1.1.8-1.9.8-2.4.1l-.2-.3c-.5-.7-.1-1.4 1-2.2l2.5-1.7c-.1-.1-.2-.2-.4-.1-.2 0-.5.2-.8.4l-.6.4c-.1.1-.2.1-.2 0-.1 0-.1-.1-.2-.2s-.1-.2-.1-.3 0-.1.1-.2l.6-.4c1.1-.8 1.9-.8 2.4-.1l.9 1.3c.5.7.1 1.4-1 2.2zm1.2-1.7c.3-.2.5-.4.6-.6s.1-.3 0-.5l-.5-.8-2.5 1.7c-.3.2-.5.4-.6.6s-.1.3 0 .5l.2.3c.1.1.2.2.4.2s.5-.1.8-.4z" fill="#bf1713"/><path d="m86.7 99.4c-.2-.3-.3-.5-.2-.9.1-.3.3-.7.8-1.1l.7-.6c.1-.1.2-.1.2-.1s.1.1.2.2.1.2.1.2c0 .1 0 .1-.1.2l-.7.7c-.2.2-.3.3-.4.5-.1.1 0 .2 0 .3l.1.1c.1.1.2.1.3.1s.3-.2.5-.3l1.2-1c .5-.4.9-.7 1.3-.7.3-.1.6.1.9.3l.2.2c.1.1.2.3.2.4v.5c-.1.2-.2.4-.3.6-.2.2-.4.4-.6.7l-2.2 1.9c-.1.1-.2.1-.2.1s-.1-.1-.2-.2-.1-.2-.1-.2c0-.1 0-.1.1-.2l2.3-2c .1-.1.3-.2.3-.3s.1-.2.2-.3c0-.1 0-.1 0-.2s0-.1-.1-.1l-.2-.2-.1-.1s-.1 0-.2 0-.2.1-.3.1c-.1.1-.2.2-.4.3l-1.2 1.1c-.4.4-.8.6-1.2.6-.3 0-.6-.1-.8-.3z" fill="#bf1713"/><circle cx="56.7" cy="4.5" fill="#fff" r="1.5" stroke="#000" stroke-miterlimit="10" stroke-width="1.0253"/></svg>