<?xml version="1.0" encoding="UTF-8"?>
<svg id="Capa_1" xmlns="http://www.w3.org/2000/svg" version="1.1" viewBox="0 0 566.9 566.9">
  <!-- Generator: Adobe Illustrator 29.0.1, SVG Export Plug-In . SVG Version: 2.1.0 Build 192)  -->
  <defs>
    <style>
      .st0 {
        fill: #fff;
      }

      .st1 {
        fill: #e84e0f;
      }

      .st2 {
        fill: #f2f2f2;
      }

      .st3 {
        fill: #f1f1f1;
      }

      .st4 {
        fill: #efefef;
      }

      .st5 {
        fill: #fafafa;
      }

      .st6 {
        fill: #5a8bba;
      }

      .st7 {
        fill: #fff8e6;
      }
    </style>
  </defs>
  <path class="st1" d="M284,4.3C129.6,4.1,4.3,128.9,4.3,283.1c0,154.4,124.8,279.5,279,279.6,154.1,0,279.3-124.7,279.4-278.5.2-154.5-124.5-279.8-278.7-279.9ZM283,543.5c-143.2.1-259.5-116-259.6-259.3-.1-143.2,116-259.5,259.3-259.6,143.2-.1,259.5,116,259.6,259.3.1,143.2-116,259.5-259.3,259.6Z"/>
  <path class="st1" d="M427.9,419.9H138.1c-67-68.3-76.7-190-.2-272.2,75-80.5,203.5-83.7,283.4-6.4,80.1,77.6,78.7,202.7,6.6,278.6ZM423.2,411.2c65.2-73.3,69.7-184.2-6.2-260.6-75.3-75.9-191.5-76.7-267.9-.4-75.8,75.7-72.4,187-6.6,261h280.7Z"/>
  <path class="st3" d="M312.7,479.8v9c-2.4,1.6-4.3.9-6.5.6v-15.4c5.1-.7,5.8-5,6.8-9.1,2.2-9.8,2-19.9,2.1-30h27.7v35.8c.9,3.1,3.5,1.9,4.1,3.9v14.5c-2.1,1.2-4,1.1-6.5,0v-9.1h-27.7ZM335.6,473v-32.2c-4.8.1-9.4-.6-13.9.4-.4,5.6-.6,10.9-1.1,16.2-.6,5.2-2.3,10.2-3,15.5h18.1Z"/>
  <path class="st2" d="M221.1,434.8h5.5v31.1l1.2.4c7.1-10.5,14.1-21.1,21.1-31.5h6.8v43.9c-1.7,1.1-3.5.8-5.9.2v-30.7c-.4-.1-.8-.3-1.3-.4-7,10.4-13.9,20.8-21,31.3h-6.4v-44.4Z"/>
  <path class="st4" d="M184.9,462.1v16.3c-2.4,1.7-4.6.9-6.9.8v-44.3c7.9,0,15.8-.4,23.7.1,5.9.4,9.8,5.7,10.2,12,.3,6.2-3.1,11.6-8.5,13.5-5.9,2.1-12.1.3-18.5,1.5ZM185,455.5c5.3-.1,10,.6,14.6-.7,3.7-1.1,5.4-3.5,5.2-7.2-.2-4-2.5-6.6-6.6-6.7-4.4-.1-8.9-.7-13.2.4v14.2Z"/>
  <path class="st7" d="M273.4,465.7c-1.7,4.6-3.3,8.9-4.8,13.3-2.3.9-4.5.5-7.3.3,5.6-15,11.1-29.5,16.6-44.3h7.5c5.8,14.3,11.7,28.9,17.6,43.6-2.3,1.5-4.5.8-7.1.7-1.6-4.2-3.3-8.5-5.2-13.4-5.6-.8-11.4-.3-17.3-.2ZM281.9,441.7c-2.3,6.6-4.3,12.1-6.4,18.2h13.2c-2.3-6.1-4.4-11.7-6.8-18.2Z"/>
  <path class="st2" d="M412,434.9h7.6c5.8,14.5,11.6,29,17.6,43.8-2.1,1.4-4.4.5-6.9.9-1.8-4.6-3.6-9.1-5.4-13.8h-17.3c-1.6,4.3-3.2,8.7-4.8,13-2.2,1.1-4.4.7-7.3.2,5.5-14.7,11-29.2,16.6-44.1ZM415.9,441.7c-2.4,6.8-4.3,12.2-6.4,18.2,4.7.3,8.7.7,13.2-.2-2.3-6-4.3-11.4-6.8-18Z"/>
  <path class="st3" d="M172.1,479.3h-7.3c-1.8-4.5-3.6-9-5.4-13.6h-17.2c-1.6,4.3-3.3,8.9-4.9,13.2-2.3.8-4.3.6-7.2,0,5.5-14.7,11-29.3,16.4-43.7,2.6-.9,5-.6,7.7-.2,5.8,14.4,11.6,28.9,17.8,44.3ZM144.1,459.9h13.3c-2.1-5.8-4.1-11.2-6.6-18-2.5,6.8-4.5,12.1-6.7,18Z"/>
  <path class="st5" d="M389.3,479.1h-6.1v-19.9h-22.1v19.7c-2.4.8-4.2.7-6.3.2v-44h6.1v17.5h21.9v-16.6c2.3-1.8,4.3-1,6.6-.9v44.2Z"/>
  <path class="st6" d="M282.7,24.7c-143.3.1-259.4,116.4-259.3,259.6.1,143.3,116.4,259.4,259.6,259.3,143.3-.1,259.4-116.4,259.3-259.6-.1-143.3-116.4-259.4-259.6-259.3ZM164.8,479.3c-1.8-4.5-3.6-9-5.4-13.6h-17.2c-1.6,4.3-3.3,8.9-4.9,13.2-2.3.8-4.3.6-7.2,0,5.5-14.7,11-29.3,16.4-43.7,2.6-.9,5-.6,7.7-.2,5.8,14.4,11.6,28.9,17.8,44.3h-7.3ZM203.4,460.6c-5.9,2.1-12.1.3-18.5,1.5v16.3c-2.4,1.7-4.6.9-6.9.8v-44.3c7.9,0,15.8-.4,23.7.1,5.9.4,9.8,5.7,10.2,12,.3,6.2-3.1,11.6-8.5,13.5ZM255.7,478.8c-1.7,1.1-3.5.8-5.9.2v-30.7c-.4-.1-.8-.3-1.3-.4-7,10.4-13.9,20.8-21,31.3h-6.4v-44.4h5.5v31.1c.4.1.8.3,1.2.4,7.1-10.5,14.1-21.1,21.1-31.5h6.8v43.9ZM296,479.2c-1.6-4.2-3.3-8.5-5.2-13.4-5.6-.8-11.4-.3-17.3-.2-1.7,4.6-3.3,8.9-4.8,13.3-2.3.9-4.5.5-7.3.3,5.6-15,11.1-29.5,16.6-44.3h7.5c5.8,14.3,11.7,28.9,17.6,43.6-2.3,1.5-4.5.8-7.1.7ZM346.9,489c-2.1,1.2-4,1.1-6.5,0v-9.1h-27.7v9c-2.4,1.6-4.3.9-6.5.6v-15.4c5.1-.7,5.8-5,6.8-9.1,2.2-9.8,2-19.9,2.1-30h27.7v35.8c.9,3.1,3.5,1.9,4.1,3.9v14.5ZM389.3,479.1h-6.1v-19.9h-22.1v19.7c-2.4.8-4.2.7-6.3.2v-44h6.1v17.5h21.9v-16.6c2.3-1.8,4.3-1,6.6-.9v44.2ZM430.2,479.6c-1.8-4.6-3.6-9.1-5.4-13.8h-17.3c-1.6,4.3-3.2,8.7-4.8,13-2.2,1.1-4.4.7-7.3.2,5.5-14.7,11-29.2,16.6-44.1h7.6c5.8,14.5,11.6,29,17.6,43.8-2.1,1.4-4.4.5-6.9.9ZM427.9,419.9H138.1c-67-68.3-76.7-190-.2-272.2,75-80.5,203.5-83.7,283.4-6.4,80.1,77.6,78.7,202.7,6.6,278.6Z"/>
  <path class="st6" d="M321.7,441.2c-.4,5.6-.6,10.9-1.1,16.2-.6,5.2-2.3,10.2-3,15.5h18.1v-32.2c-4.8.1-9.4-.6-13.9.4Z"/>
  <path class="st6" d="M198.2,440.9c-4.4-.1-8.9-.7-13.2.4v14.2c5.3-.1,10,.6,14.6-.7,3.7-1.1,5.4-3.5,5.2-7.2-.2-4-2.5-6.6-6.6-6.7Z"/>
  <path class="st6" d="M275.5,459.9h13.2c-2.3-6.1-4.4-11.7-6.8-18.2-2.3,6.6-4.3,12.1-6.4,18.2Z"/>
  <path class="st6" d="M409.6,459.9c4.7.3,8.7.7,13.2-.2-2.3-6-4.3-11.4-6.8-18-2.4,6.8-4.3,12.2-6.4,18.2Z"/>
  <path class="st6" d="M144.1,459.9h13.3c-2.1-5.8-4.1-11.2-6.6-18-2.5,6.8-4.5,12.1-6.7,18Z"/>
  <path class="st6" d="M417,150.7c-75.3-75.9-191.5-76.7-267.9-.4-75.8,75.7-72.4,187-6.6,261h280.7c65.2-73.3,69.7-184.2-6.2-260.6Z"/>
  <g>
    <path class="st7" d="M95.6,125.3l24.6,18.9-2.4,3.2-21.9-16.8-8.8,11.4,21.9,16.8-2.4,3.2-24.6-18.9,13.7-17.8Z"/>
    <path class="st7" d="M105,115l9.2,9.3c3.5,3.5,6.3,6.4,9,9.6h0c-1.2-3.4-2.2-7.2-3.1-11.4l-4.1-18.4,2.8-2.8,21.8,22-2.7,2.7-9.3-9.4c-3.5-3.6-6.1-6.2-8.6-9.2h-.1c1.3,3.5,2.3,7.6,3.3,11.5l4,17.8-3,3-21.8-22,2.7-2.7Z"/>
    <path class="st7" d="M142.7,82.3l18.8,24.6-3.2,2.5-16.8-22-8.1,6.2,5.7,7.5c4.1,5.3,8.4,11.5,6.7,16.4-.5,1.3-1.4,3-2.9,4l-2.4-2.3c.8-.9,1.4-2.3,1.6-3.3.5-3.4-3-8.4-6-12.3l-7.9-10.4,14.5-11.1Z"/>
    <path class="st7" d="M181.5,76.6c5.3,9.3,2.5,17.4-4.4,21.3-7.1,4.1-15.2,1.4-19.9-6.7-4.9-8.5-2.8-17.2,4.4-21.3,7.3-4.2,15.3-1.3,19.9,6.7ZM160.9,89c3.3,5.7,9.4,9.1,14.8,6,5.5-3.2,5.7-10,2.2-16.1-3.1-5.3-9.1-9.3-14.8-6-5.7,3.3-5.6,10.2-2.2,16.2Z"/>
    <path class="st7" d="M187.8,61.3l-8.7,3.7-1.3-3.1,21.2-8.9,1.3,3.1-8.7,3.7,10.7,25.4-3.7,1.6-10.7-25.4Z"/>
    <path class="st7" d="M244.7,58.6c-1.2-4.2-2.6-9.2-3.4-13h-.1c-.2,3.8-.7,7.9-1.3,12.4l-2.1,15.9-3,.7-8.1-13.3c-2.4-3.9-4.5-7.6-6.1-11h0c.7,3.8,1.7,8.9,2.4,13.5l2.1,13.2-3.7.8-4.6-30.7,5-1.1,8.4,13.5c2.1,3.4,3.9,6.5,5.3,9.5h.1c0-3.3.4-6.8.9-10.9l2.1-15.8,5-1.1,8.6,29.8-3.8.8-3.7-13.1Z"/>
    <path class="st7" d="M272.2,54.8l-12,1,.9,11.1,13.4-1.1.3,3.3-17.4,1.5-2.6-30.9,16.7-1.4.3,3.3-12.7,1.1.8,9.8,12-1,.3,3.3Z"/>
    <path class="st7" d="M296.1,69.5l-3.8-7c-1.5-2.7-2.5-4.4-3.4-6.2h0c-.9,1.8-1.8,3.4-3.5,6.1l-3.9,6.7h-4.6c0-.1,9.9-15.6,9.9-15.6l-8.7-15.5h4.6c0,.1,3.9,7.5,3.9,7.5,1.1,2.1,1.9,3.6,2.7,5.3h.1c.9-1.8,1.7-3.2,2.9-5.2l4.4-7.2h4.6c0,.1-9.8,15-9.8,15l9.3,16.2h-4.6Z"/>
    <path class="st7" d="M310.6,61.1l-4.6,9.2-4.1-.6,14.9-29.1,4.8.7,6,32.2-4.2-.6-1.9-10.1-10.9-1.6ZM321.2,59.5l-1.7-9.3c-.4-2.1-.6-4-.8-5.8h0c-.7,1.7-1.5,3.5-2.4,5.3l-4.3,8.4,9.2,1.4Z"/>
    <path class="st7" d="M360,68.5c1-4.2,2.3-9.3,3.4-13h-.1c-2.1,3.1-4.4,6.5-7.1,10.1l-9.6,12.8-2.9-.9-.5-15.6c-.2-4.6-.2-8.8,0-12.6h0c-1.2,3.6-2.9,8.6-4.5,12.9l-4.6,12.5-3.7-1.1,11-29.1,4.9,1.5.7,15.9c.1,4,.2,7.6,0,10.9h.1c1.7-2.7,3.7-5.7,6.1-9l9.6-12.8,4.9,1.5-7.1,30.2-3.7-1.1,3.2-13.3Z"/>
    <path class="st7" d="M395.8,82.2c-4.6,9.6-12.9,11.9-20,8.5-7.4-3.5-9.8-11.8-5.8-20.2,4.3-8.9,12.6-12,20-8.4,7.6,3.7,9.8,11.9,5.8,20.2ZM373.9,72.2c-2.9,6-2.2,12.9,3.5,15.6,5.7,2.7,11.5-1,14.5-7.3,2.7-5.6,2.6-12.8-3.5-15.6-6-2.9-11.6,1.2-14.6,7.4Z"/>
    <path class="st7" d="M424,82.3l-1.8,2.8-11.2-7.3-4.5,7c.9.4,2.5,1.3,3.3,1.9,2.5,1.6,4.5,3.7,5.6,6.1,1.1,2.6,1.2,5.5-.8,8.5-1.6,2.4-3.6,3.8-5.8,4.2-3.5.7-7.5-.8-11.1-3.1-2.4-1.5-4-2.8-5-3.7l16.9-25.9,14.6,9.5ZM397.5,98.4c.7.7,1.5,1.3,2.7,2,2.1,1.4,4.6,2.1,6.8,1.6,1.5-.3,2.9-1.3,3.9-2.9,1.3-2,1.3-3.9.6-5.6-.7-1.8-2.2-3.3-4.1-4.5-.8-.5-1.9-1.1-2.8-1.6l-7.2,11Z"/>
    <path class="st7" d="M435.4,90.8l-8.4,10c-3.2,3.8-5.9,6.8-8.7,9.8h0c3.3-1.4,6.9-2.7,11-4l18-5.7,3.1,2.6-20,23.7-2.9-2.4,8.5-10.1c3.2-3.8,5.6-6.6,8.4-9.4h0c-3.4,1.5-7.3,2.9-11.1,4.1l-17.4,5.5-3.3-2.8,20-23.7,2.9,2.4Z"/>
    <path class="st7" d="M471.3,125.5l-22.9,20.9-2.7-3,20.4-18.7-6.9-7.6-6.9,6.3c-5,4.5-10.7,9.4-15.8,8.1-1.3-.4-3.1-1.2-4.3-2.5l2-2.5c1,.8,2.4,1.2,3.4,1.3,3.5.2,8.1-3.7,11.7-7.1l9.6-8.8,12.3,13.4Z"/>
    <path class="st7" d="M450.5,148.9c.9-.1,2-.3,3-.6,3.7-1,7.6-2.8,11.2-2.3,1,.2,2,.6,2.8,1.2h.1c-1.7-3.6-1.2-7.6,2.2-10.1,2.2-1.6,4.6-2,6.8-1.4,2.4.7,4.8,2.6,7.1,5.8,1.5,2.1,3,4.5,3.8,6.4l-24.8,17.9-2.3-3.2,10.9-7.8-1.7-2.4c-1.1-1.6-2.3-2.5-3.8-2.7-3-.5-7.2,1.5-10.2,2.3-.8.2-1.5.4-2.4.5l-2.5-3.5ZM482.9,146.3c-.3-.6-.9-1.8-1.9-3.3-2.3-3.2-5.5-5-9-2.5-3,2.2-2.8,6.1-.3,9.7.8,1.1,1.5,2.1,2,2.7l9.1-6.6Z"/>
  </g>
  <g>
    <g>
      <path class="st1" d="M404.4,277.1s0,0,0,0l-3.8,4.8h-.6l-5.5,20.6c-.5,1.7-2.2,2.7-3.9,2.2l-15-4c-2.6,5.8-5.8,11.4-9.6,16.6l11,11c1.2,1.2,1.2,3.2,0,4.5l-17.1,17.1c-1.2,1.2-3.2,1.2-4.5,0l-11-11c-5.2,3.7-10.8,7-16.6,9.6l4,15c.5,1.7-.5,3.4-2.2,3.9l-23.4,6.3c-1.7.5-3.4-.5-3.8-2.2l-4-15c-6.4.7-12.8.7-19.2,0l-4,15c-.5,1.7-2.2,2.7-3.9,2.2l-23.4-6.3c-1.7-.5-2.7-2.2-2.2-3.9l4-15c-5.8-2.6-11.4-5.8-16.6-9.6l-11,11c-1.2,1.2-3.2,1.2-4.4,0l-17.1-17.1c-1.2-1.2-1.2-3.2,0-4.5l11-11c-3.8-5.2-7-10.8-9.6-16.7l-15,4c-1.7.5-3.4-.5-3.9-2.2l-5.5-20.6h-.6l-3.8-4.8s0,0,0,0c-.2,1-.1,2,.1,3l6.3,23.4c1,3.6,4.8,5.8,8.4,4.8l12-3.2c2,4.1,4.3,8,6.8,11.8l-8.8,8.8c-2.7,2.7-2.7,7,0,9.7l17.1,17.1c2.7,2.7,7,2.7,9.7,0l8.8-8.8c3.8,2.5,7.7,4.8,11.8,6.8l-3.2,12c-1,3.6,1.2,7.4,4.9,8.4l23.4,6.3c3.6,1,7.4-1.2,8.4-4.8l3.2-12c4.6.3,9.1.3,13.7,0l3.2,12c1,3.6,4.8,5.8,8.4,4.8l23.4-6.3c3.6-1,5.8-4.8,4.8-8.4l-3.2-12c4.1-2,8.1-4.3,11.8-6.8l8.8,8.8c2.7,2.7,7,2.7,9.7,0l17.1-17.1c2.7-2.7,2.7-7,0-9.7l-8.8-8.8c2.5-3.8,4.8-7.7,6.8-11.8l12,3.2c3.6,1,7.4-1.2,8.4-4.8l6.3-23.4c.3-1,.3-2,.1-3Z"/>
      <path class="st1" d="M206.6,206.4c-1.7,2.5-3.2,4.9-4.7,7.6h4.3c1.6-2.7,3.3-5.5,5.2-8.1l-11-11c-1.2-1.2-1.2-3.3,0-4.5l17.1-17.1c1.2-1.2,3.2-1.2,4.4,0l11,11c5.2-3.7,10.8-7,16.6-9.6l-4-15c-.4-1.7.6-3.4,2.2-3.9l23.4-6.3c1.7-.5,3.4.5,3.9,2.2l4,15c6.4-.7,12.8-.7,19.2,0l4-15c.5-1.7,2.2-2.7,3.8-2.2l23.4,6.3c1.7.5,2.7,2.2,2.2,3.9l-4,15c5.8,2.6,11.4,5.8,16.6,9.6l11-11c1.2-1.2,3.2-1.2,4.5,0l17.1,17.1c1.2,1.2,1.2,3.2,0,4.5l-11,11c1.9,2.6,3.6,5.4,5.2,8.1h4.2c-1.4-2.7-3-5.2-4.7-7.7l8.8-8.8c2.7-2.7,2.7-7,0-9.7l-17.1-17.1c-2.7-2.7-7-2.7-9.7,0l-8.8,8.8c-3.8-2.5-7.7-4.8-11.8-6.8l3.2-12c1-3.6-1.2-7.4-4.8-8.4l-23.4-6.3c-3.6-1-7.4,1.2-8.4,4.8l-3.2,12c-4.5-.3-9.1-.3-13.7,0l-3.2-12c-1-3.6-4.8-5.8-8.4-4.8l-23.4,6.3c-3.6,1-5.8,4.8-4.9,8.4l3.2,12c-4.1,2-8.1,4.3-11.8,6.8l-8.8-8.8c-2.7-2.7-7-2.7-9.7,0l-17.1,17.1c-2.7,2.7-2.7,7,0,9.7l8.8,8.8Z"/>
      <path class="st1" d="M347,311c-10,11.7-23.4,20.4-38.6,24.5-2,.5-4,1-6.1,1.3h0s-13.3,16.4-13.3,16.4h0s-.1,0-.1,0c3,0,5.9-.2,8.9-.5,1.8-.2,3.5,1,3.9,2.7l3.9,14.5,22.3-6-3.9-14.5c-.5-1.8.4-3.6,2.1-4.3,5.6-2.5,11-5.6,16-9.2,1.5-1.1,3.5-.9,4.8.4l10.6,10.6,16.3-16.3-10.6-10.6c-1.3-1.3-1.5-3.3-.4-4.8,3.6-5,6.7-10.4,9.2-16,.8-1.7,2.6-2.5,4.3-2.1l14.5,3.9,5.1-19.1h-11.2l-23.5,29.1h-14.4Z"/>
      <path class="st1" d="M200.8,297.1c1.8-.5,3.6.4,4.4,2.1,2.5,5.6,5.6,11,9.2,16,1.1,1.5.9,3.5-.4,4.8l-10.6,10.6,16.3,16.3,10.6-10.6c1.3-1.3,3.3-1.5,4.8-.4,5,3.6,10.4,6.7,16,9.2,1.7.8,2.5,2.6,2.1,4.3l-3.9,14.5,22.3,6,3.9-14.5c.5-1.8,2.1-2.9,4-2.7,3,.3,6,.5,9,.5h0,0s-13.4-16.4-13.4-16.4c0,0,0,0,0,0-8.6-1.6-16.9-4.5-24.6-9-7.8-4.5-14.6-10.3-20.2-16.9h-14.4l-23.5-29.1h-11.2l5.1,19.1,14.5-3.9Z"/>
      <path class="st1" d="M210.5,214h18.5c10.1-12.7,24-21.8,39.9-26.1,19.6-5.3,40.4-2.5,58,7.6,8.3,4.8,15.6,11.1,21.5,18.4h18.5c-1.2-2-2.5-4-3.9-5.9-1.1-1.5-.9-3.5.4-4.8l10.6-10.6-16.3-16.3-10.6,10.6c-1.3,1.3-3.3,1.5-4.8.4-5-3.6-10.4-6.7-16-9.2-1.7-.8-2.5-2.6-2.1-4.3l3.9-14.5-22.3-6-3.9,14.5c-.5,1.8-2.1,2.9-4,2.7-6.1-.6-12.3-.6-18.5,0-1.8.2-3.5-1-4-2.7l-3.9-14.5-22.3,6,3.9,14.5c.5,1.8-.4,3.6-2.1,4.3-5.6,2.5-11,5.6-16,9.2-1.5,1.1-3.5.9-4.8-.4l-10.6-10.6-16.3,16.3,10.6,10.6c1.3,1.3,1.5,3.4.4,4.8-1.4,1.9-2.6,3.9-3.9,5.9Z"/>
      <path class="st1" d="M254.2,321.4c-5.1-2.9-9.7-6.5-13.8-10.4h-5.2c9.7,10.3,22.3,17.9,36.1,21.3h0s-4.1-5-4.1-5c-4.5-1.5-8.8-3.4-13-5.8Z"/>
      <path class="st1" d="M323.1,202c5.7,3.3,10.9,7.4,15.3,12h5c-17.7-20.3-45.9-29.9-73.6-22.5-14.5,3.9-26.8,11.7-36,22.5h5c8.6-9,19.6-15.6,31.9-18.9,17.7-4.7,36.4-2.3,52.3,6.9Z"/>
    </g>
    <path class="st1" d="M194.2,278.1h-15.7l-23.6-29.2h-14.1l-25.5-31.2h149.8l23.6,28.8,23.6-28.8h149.7l-25.5,31.2h-14.1l-23.6,29.2h-15.7l-23.5,29.1h-38l-33,40.4-33-40.4h-38l-23.5-29.1Z"/>
    <path class="st0" d="M288.7,297.5l-19.2-23.1h-89.2l-20.9-26h89.2l-2.7-3.3h-103.3l-19.4-23.7h140.2l19.4,23.7,5.9,7.3,5.9-7.3,19.4-23.7h140.2l-19.4,23.7h-103.3l-2.7,3.3h89.2l-21,26h-89.2l-19.2,23.1ZM319.9,303.5l-16.6,20.3-14.7,18-14.7-18-16.6-20.3h-38l-21-26h69.8l20.4,24.9,20.4-24.9h69.8l-20.9,26h-38Z"/>
    <path class="st1" d="M403.5,250.2h-74.4l-13.6,15.4,15.2-12.1s72.8-3,72.8-3.3ZM365.5,278.4h-59.3l-13.6,15.4,12.4-11.5s60.5-3.7,60.5-3.9ZM444.5,223.6h-93.2l-13.6,15.4,15.2-12.1s91.6-3,91.6-3.3Z"/>
    <path class="st1" d="M173.9,250.2h74.4l13.6,15.4-15.2-12.1s-72.8-3-72.8-3.3ZM211.8,278.4h59.3l13.6,15.4-12.4-11.5s-60.5-3.7-60.5-3.9ZM132.8,223.6h93.2l13.6,15.4-15.2-12.1s-91.6-3-91.6-3.3Z"/>
  </g>
</svg>