<?xml version="1.0" encoding="UTF-8"?>
<svg id="Capa_2" xmlns="http://www.w3.org/2000/svg" version="1.1" viewBox="0 0 566.9 566.9">
  <!-- Generator: Adobe Illustrator 29.0.1, SVG Export Plug-In . SVG Version: 2.1.0 Build 192)  -->
  <defs>
    <style>
      .st0 {
        fill: #f6f6f6;
      }

      .st1 {
        fill: #fff;
      }

      .st2 {
        fill: #cc1333;
      }
    </style>
  </defs>
  <ellipse class="st0" cx="283.5" cy="283.5" rx="279.5" ry="279.2"/>
  <g>
    <path class="st2" d="M548.4,253.4c-14.4-132.8-127.7-236.5-264.9-236.5S32.9,120.6,18.5,253.4h81.1c13.7-87.4,90.5-154.7,182.4-154.5,91.8.2,167.6,67.2,181.4,154.5h85Z"/>
    <path class="st2" d="M283.5,550c137.3,0,250.7-103.8,265-236.7h-85c-13.7,87.9-90,155-182.1,154.8-92.3-.2-167.8-66.9-181.6-154.8H18.5c14.3,132.9,127.7,236.7,265,236.7Z"/>
    <path class="st2" d="M559.7,313.3h-7.2c-6.4,61.1-33.4,117.8-77.7,161.9-51.1,50.8-119,78.8-191.3,78.8s-140.2-28-191.3-78.8c-44.3-44.1-71.3-100.7-77.7-161.9H5.7c14.3,140.1,133.2,249.4,277.8,249.4s263.5-109.3,277.8-249.4h-1.6Z"/>
    <path class="st2" d="M14.5,253.4c6.5-61,33.5-117.6,77.7-161.6C143.3,40.9,211.2,12.9,283.5,12.9s140.2,28,191.3,78.8c44.2,44,71.2,100.6,77.7,161.6h8.8C546.8,113.4,427.9,4.3,283.5,4.3S20.1,113.4,5.7,253.4h8.8Z"/>
  </g>
  <g>
    <path class="st1" d="M103,412.5c.5.7.9,1.4,1.2,2.3s.4,1.7.4,2.7c0,.2,0,.4,0,.5.2,0,.3,0,.5,0,.9.3,1.7.6,2.5,1.1.7.5,1.4,1,1.9,1.7.5.7.9,1.4,1.2,2.3.3.8.4,1.7.4,2.7,0,.9-.2,1.9-.6,3-.4,1-1.1,2-2.2,2.8l-12.1,9.3-3-3.9,11.9-9.1c.5-.4.8-.7,1-1.2.2-.4.3-.8.3-1.2,0-.4,0-.7-.1-1,0-.3-.2-.6-.4-.8-.2-.2-.4-.4-.7-.6s-.6-.3-.9-.3c-.3,0-.8,0-1.2,0-.5,0-.9.3-1.4.6l-11.9,9.1-3-3.9,11.9-9.1c.5-.4.8-.7,1-1.2s.3-.8.3-1.2c0-.4,0-.7-.1-1,0-.3-.2-.6-.4-.8-.2-.2-.4-.4-.7-.6-.3-.2-.6-.3-.9-.3-.3,0-.8,0-1.2,0s-.9.3-1.4.6l-11.9,9.1-3-3.9,12.1-9.3c1.1-.8,2.2-1.2,3.3-1.3s2.1,0,3,.2c.9.3,1.7.6,2.5,1.1.7.5,1.4,1,1.9,1.7Z"/>
    <path class="st1" d="M120.9,435.3l1.2,1.2,10.2,10.3-3.5,3.5-10.5-10.6c-.7-.6-1.5-.9-2.4-.9-.9,0-1.7.2-2.5.6-.8.4-1.5.9-2.1,1.5-.6.6-1.1,1.3-1.5,2.1-.4.8-.6,1.6-.7,2.5,0,.9.3,1.7.9,2.4l10.5,10.6-3.5,3.5-10.9-11-.5-.5c-1.1-1.3-1.7-2.8-1.6-4.4,0-1.6.5-3.2,1.3-4.6.8-1.4,1.7-2.7,2.9-3.8,1.1-1.1,2.4-2.1,3.9-2.8,1.4-.7,3-1.1,4.6-1.2,1.6,0,3.1.5,4.4,1.6ZM122.8,456l-10.6-10.7,3.5-3.5,10.6,10.7-3.5,3.5Z"/>
    <path class="st1" d="M134.6,449l20,15.8-3,3.9-8-6.3-10.4,13.2-3.9-3.1,10.4-13.2-8.1-6.4,3-3.9Z"/>
    <path class="st1" d="M175.2,483.1l-14.6-8.8c-.4-.2-.8-.3-1.2-.3-.4,0-.7,0-.9.2-.2.1-.4.3-.6.5-.1.2-.2.5-.2.7,0,.3,0,.6.3.9.2.3.4.6.8.9l8.9,5.4c1.4.9,2.4,2,3,3.2.6,1.2.8,2.4.7,3.4,0,1.1-.4,2-.9,2.9-.5.8-1.2,1.5-2.1,2.1-.9.6-2,.9-3.4,1-1.3,0-2.7-.3-4.2-1.2h-.2c-.1-.2-.3-.2-.4-.3l-13.9-8.4,2.5-4.2,14.6,8.8c.4.3.8.4,1.1.4.4,0,.7,0,.9-.2.3-.1.5-.3.6-.6,0-.1.1-.4.2-.7s0-.7-.2-1c-.2-.3-.4-.6-.8-.9l-8.9-5.4c-1.4-.9-2.4-2-3-3.2-.6-1.2-.8-2.3-.7-3.4,0-1.1.4-2,.9-2.8.5-.8,1.2-1.5,2.1-2.1s2-.9,3.3-.9c1.3,0,2.7.3,4.2,1.2h.2c.1.2.3.2.4.3l13.8,8.3-2.5,4.2Z"/>
    <path class="st1" d="M182.8,506.1c-1.2-.5-2.2-1.2-3.3-1.9s-1.9-1.7-2.7-2.6c-.8-1-1.4-2.1-1.8-3.3-.4-1.2-.3-2.4.1-3.7l.6-1.4,5.6-12.4,4.5,2-5.7,12.8c-.3.7-.3,1.4,0,2.1.3.7.6,1.3,1.1,1.8.5.5,1,1,1.6,1.4.6.4,1.2.8,1.8,1.1.6.3,1.3.5,2,.7s1.4.2,2.1.2c.7,0,1.4-.1,2.1-.4.7-.2,1.2-.7,1.6-1.4l5.7-12.8,4.5,2-5.6,12.4-.6,1.4c-.6,1.2-1.5,2-2.7,2.5-1.2.5-2.4.8-3.7.9-1.3,0-2.5,0-3.8-.3-1.2-.2-2.5-.6-3.6-1.1Z"/>
    <path class="st1" d="M211.1,493.1l-6.5,20.8-4.7-1.5,6.5-20.8,4.7,1.5ZM213,500c1.9-.6,4.3-1,7.3-1.2l9.5-.8-1.6,5.2-6.7.4c-1.1,0-2.1.2-3.1.3-1,0-1.9.3-2.7.5-.8.2-1.4.6-1.6,1.1-.1.5.1,1.1.7,1.8.6.7,1.2,1.3,1.9,2,.7.6,1.5,1.3,2.4,1.9l5.6,4.2-1.6,5.3-7.6-6.2c-2.3-1.9-4.1-3.6-5.4-5.2-1.2-1.6-1.6-3.3-1-5.4.6-2,1.9-3.3,3.9-3.9Z"/>
    <path class="st1" d="M239.2,500.8l1.7.3,14.3,2.6-.9,4.8-14.7-2.7c-.9-.1-1.7,0-2.5.6-.7.5-1.3,1.2-1.7,2s-.7,1.6-.9,2.5c-.2.9-.2,1.7,0,2.6.1.9.4,1.7.9,2.5.5.8,1.2,1.2,2.1,1.5l14.7,2.7-.9,4.8-15.3-2.8h-.7c-1.7-.5-2.9-1.4-3.8-2.8-.9-1.4-1.4-2.9-1.6-4.5-.2-1.6-.1-3.2.1-4.8.3-1.6.8-3.1,1.6-4.5s1.8-2.6,3.1-3.6c1.3-1,2.8-1.4,4.5-1.2ZM252.7,516.6l-14.8-2.7.9-4.8,14.8,2.7-.9,4.8Z"/>
    <path class="st1" d="M289.4,505.2c1.2,0,2.4.4,3.3,1.2,1,.8,1.8,1.7,2.4,2.7.6,1.1,1,2.2,1.3,3.3.3,1.2.4,2.4.4,3.6,0,1.6-.3,3.2-.8,4.8-.5,1.6-1.3,2.9-2.5,4.1-1.1,1.2-2.6,1.8-4.3,1.9h-12.8c-1.7-.1-3.1-.8-4.3-2-1.1-1.2-2-2.6-2.4-4.2-.5-1.6-.7-3.2-.7-4.8,0-1.6.3-3.2.7-4.8.5-1.6,1.3-2.9,2.5-4.1s2.6-1.8,4.3-1.9h.7s11.4,0,11.4,0h.7ZM288.1,522c.9,0,1.7-.4,2.3-1,.6-.6,1.1-1.4,1.3-2.3s.4-1.7.4-2.6-.1-1.7-.4-2.6c-.3-.8-.7-1.6-1.3-2.3s-1.4-1-2.3-1.1h-10.4c-.9,0-1.7.4-2.3,1-.6.7-1.1,1.4-1.3,2.3-.3.8-.4,1.7-.4,2.6,0,.9.1,1.8.4,2.6.3.9.7,1.6,1.3,2.3.6.6,1.4,1,2.3,1.1h10.4Z"/>
    <path class="st1" d="M303.1,526.5l-1.4-11.1c-.2-1.7-.2-3.4.1-5,.3-1.6.9-3,1.9-4.2,1-1.2,2.3-1.9,4-2.3l16.1-2,.6,4.9-14.9,1.9c-.9.2-1.6.6-2.2,1.3-.5.7-.8,1.5-.9,2.4,0,.9,0,1.8.1,2.8l1.4,10.7-4.9.6ZM308.8,513.9l16.2-2.1.6,4.9-16.2,2.1-.6-4.9Z"/>
    <path class="st1" d="M332.2,522.4l-2.7-10.9c-.4-1.7-.6-3.3-.5-4.9.1-1.6.6-3.1,1.4-4.4.8-1.3,2.1-2.2,3.7-2.7l15.7-3.9,1.2,4.8-14.5,3.6c-.9.3-1.6.8-2,1.6s-.6,1.6-.6,2.5.2,1.8.5,2.7l2.6,10.4-4.8,1.2ZM336.4,509.2l15.9-4,1.2,4.8-15.9,4-1.2-4.8Z"/>
    <path class="st1" d="M358.4,510.3l8.5-3.2-4.2-11.1-8.5,3.2-1.7-4.6,21.6-8.2,1.7,4.6-8.5,3.2,4.2,11.1,8.5-3.2,1.7,4.6-21.6,8.2-1.7-4.6Z"/>
    <path class="st1" d="M387,485.6c-.8.5-1.3,1.1-1.6,2-.2.9-.3,1.7-.2,2.6.1.9.4,1.7.8,2.5.4.8.9,1.5,1.5,2.1.6.6,1.4,1.1,2.2,1.4.9.3,1.7.2,2.6-.1l12.5-6.4,2.3,4.4-12.1,6.2-1.5.8c-1.6.7-3.1.8-4.7.2-1.5-.6-2.9-1.4-4-2.6-1.1-1.2-2.1-2.4-2.8-3.9-.6-1.1-1-2.2-1.3-3.3-.3-1.2-.4-2.4-.4-3.6,0-1.2.3-2.4.8-3.5.5-1.1,1.3-2,2.4-2.6l.6-.3,13-6.7,2.3,4.4-12.5,6.4Z"/>
    <path class="st1" d="M405.7,469.2l1.4-.9,12-8.1,2.8,4.1-12.4,8.4c-.7.6-1.2,1.3-1.3,2.2-.1.9,0,1.8.2,2.6.2.9.6,1.7,1.1,2.4.5.7,1.1,1.4,1.8,1.9.7.5,1.5.9,2.4,1.1.9.2,1.7,0,2.5-.4l12.4-8.4,2.8,4.1-12.9,8.7-.6.4c-1.5.9-3,1.1-4.6.7-1.6-.4-3-1.1-4.3-2.1-1.3-1-2.3-2.2-3.2-3.5s-1.6-2.8-2-4.3c-.5-1.6-.6-3.1-.3-4.8.2-1.6,1-2.9,2.4-4ZM426.4,471.1l-12.5,8.4-2.8-4.1,12.5-8.4,2.8,4.1Z"/>
    <path class="st1" d="M440,471.1l-3.7,3.3-12.7-14.5c-.4-.5-.6-1.1-.5-1.8,0-.7.4-1.2.9-1.7l1.4-1.2,3.4-3,6.8-6c.1,0,.2-.2.4-.3h.2c1.3-1.2,2.6-1.9,4-2,1.3-.2,2.5,0,3.4.3,1,.4,1.8.9,2.4,1.7.6.7,1.1,1.6,1.4,2.6s.2,2.2-.1,3.5c-.4,1.3-1.2,2.5-2.4,3.7l-4.9,4.2c1,.8,1.9,1.2,2.7,1.2.8,0,1.6-.2,2.3-.8l7.5-6.6,3.2,3.7-8,7c-1.3,1.2-3,1.8-5.1,1.6-2.1-.1-3.9-.8-5.4-2.1-1.8-1.4-2.8-2.2-2.9-2.4-.5-.5-.7-1.1-.6-1.8,0-.7.3-1.2.8-1.7l7.3-6.4c.3-.3.6-.7.7-1,.1-.3.1-.6.1-.9,0-.3-.1-.5-.3-.7-.2-.2-.4-.3-.6-.4-.3,0-.6,0-.9,0-.4,0-.7.2-1.1.5l-7.5,6.5-2.2,1.9c-.5.4-.5.9,0,1.3l10.4,11.9Z"/>
    <path class="st1" d="M462.8,424.5l-11.3,12.7c-.3.4-.5.7-.5,1.1,0,.3,0,.7,0,.9,0,.3.2.5.4.6.2.2.4.3.7.3.3,0,.6,0,.9,0,.3-.1.7-.3,1-.7l6.9-7.8c1.2-1.2,2.4-2,3.7-2.4,1.3-.3,2.5-.4,3.5,0,1,.3,1.9.8,2.7,1.4.7.7,1.3,1.5,1.7,2.5.4,1,.5,2.2.3,3.5s-.8,2.6-2,3.9v.2c-.2.1-.3.2-.4.4l-10.8,12.1-3.7-3.3,11.4-12.8c.3-.3.5-.7.6-1s0-.7,0-1c0-.3-.2-.5-.4-.7-.1-.1-.4-.2-.7-.3-.3,0-.7,0-1,0-.4,0-.7.3-1,.6l-6.9,7.8c-1.2,1.2-2.4,2-3.7,2.4-1.3.3-2.4.4-3.5.1s-1.9-.7-2.6-1.4c-.7-.6-1.3-1.4-1.6-2.4-.4-1-.5-2.1-.3-3.5.2-1.3.8-2.6,1.9-3.9v-.2c.2-.1.3-.2.4-.4l10.7-12.1,3.7,3.3Z"/>
  </g>
  <g>
    <path class="st1" d="M194.3,54l41.3-12,13.5,46.7-7.1,2.1-.7-2.5-27,7.9.7,2.5-7.1,2.1-13.5-46.7ZM205.1,64.9l27-7.9-2.1-7.2-27,7.8,2.1,7.2ZM206.8,70.5l2.1,7.2,27-7.9-2.1-7.2-27.1,7.9ZM210.5,83.3l2.1,7.2,27-7.9-2.1-7.2-27,7.9Z"/>
    <path class="st1" d="M267,49.8l.5,37.8h-7.1c0,.1-.3-24.1-.3-24.1-1.4,2.5-2.8,4.5-4,6l-2.5-8.5c4.7-6.8,7.9-14.9,9.4-24.2l6.9,1.1c-.6,4-1.6,7.9-2.9,11.9ZM270,44.7l24.1-.3v-7.8c-.1,0,7.3-.1,7.3-.1v7.8c.1,0,4.9,0,4.9,0v6.3c0,0-4.7,0-4.7,0l.4,27c0,2.3,0,3.9-.1,5-.1,1.1-.5,2-1.2,2.7-.7.7-1.6,1.1-2.7,1.3-1.1.1-2.8.2-5.1.3-1.8,0-5,0-9.7-.1l-.4-6.3c4.2.1,7.1.2,8.7.2,1.6,0,2.5-.1,2.8-.4.3-.2.4-1,.4-2.2l-.4-27.3-24.1.3v-6.3ZM272.9,58.9l5.6-3.9c3.4,4.8,6.7,9.8,9.7,15.2l-5.9,3.4c-2.8-5.1-6-10-9.5-14.7Z"/>
    <path class="st1" d="M387.9,62.2l-2,5.7-19.3-6.8-.9,2.7,16,5.6-7.2,20.5-6.7-2.4,1.1-3-10.3-3.7c-1.8,3-3.7,5.3-5.8,6.9,5.4,4.8,12.8,9,22.4,12.7l-3.2,5.6c-10.6-4.1-19-9.1-25.2-15.2-4.5,1.3-11.1,1.1-19.7-.7l.3-6.3c6.7,1.4,11.5,1.8,14.4,1.4-1.9-2.6-3.4-5.4-4.5-8.3l5.5-1.7-.5-.2-6.7-2.4,6.2-17.5,16.8,6,.9-2.7-20.1-7.1,2-5.7,20.1,7.1,1.4-3.8,7.2,2.5-1.4,3.8,19.3,6.8ZM343.9,75.8c1,2.5,2.3,4.8,3.9,7,1.3-1,2.5-2.5,3.6-4.3l-7.5-2.7ZM343.9,69.9l9.9,3.5c.8-1.8,1.8-4.1,2.8-7l-10.2-3.6-2.5,7.1ZM370.6,79.4l2.5-7.1-9.3-3.3c-1,2.9-2,5.3-2.8,7l9.5,3.4Z"/>
  </g>
  <path class="st2" d="M328.5,428h-1.2c.3-.8-.3-1.5-.5-2.2-4.3-13.5-8.6-26.9-12.9-40.4-.9-2.7-1.7-5.5-2.6-8.4,5.4-1.7,10.6-4,15.6-6.6,5.1-2.6,9.7-5.8,14.2-9.4-25-22.3-44.3-48.7-57.3-80.1-5.7,16.1-14,30.3-24.1,43.6-10,13.2-20.7,25.9-33.8,36.5,6.4,5,13.1,9.2,20.5,12.4-7.1,16.3-14.1,32.5-21.4,48.8-24.8-11.4-45.1-27.9-60.6-50.3-15.4-22.3-24.2-46.9-25.5-74v-17.5c1.6-33.2,13.6-62.2,35.3-87.1,21.8-25,49.4-40.3,81.7-47.1-.2-2.2-.4-4.3-.6-6.4-.8-6.1,4.4-10.9,9.6-10.9,11.1-.1,22.3,0,33.4,0,4.2,0,7.2,2.3,9,6.1,1,2.1.9,4.3.5,6.6-.2,1.4-.7,2.9-.5,4.4.3,0,.5.1.7.2,8.5,1.3,16.7,3.7,24.8,6.7,16.8,6.2,32,15.4,45.6,27.1,12.4,10.7,22.5,23.4,30.7,37.6,6.7,11.4,11.4,23.7,14.7,36.5,2.6,10.3,4.2,20.8,4.5,31.5.3,9.8-.6,19.6-2.3,29.2-2.3,13.3-6.3,26-12.3,38.1-8.1,16.5-18.8,31.1-32.4,43.6-15.1,13.9-32.4,24.1-51.8,30.6-.4.1-.9.2-1,.8ZM195.5,316.1c.7-.6,1.2-1,1.7-1.4,5.9-4.9,11.4-10.3,16.5-16.1,6.5-7.4,12.7-15.1,17.7-23.7,6.8-11.7,12.1-23.9,15.8-36.9,2.6-9.3,4.4-18.7,5.7-28.3.3-2.5.6-5,1-7.5-19.4,5.7-42.2,22.5-53.7,47.9-9.6,21.2-11.3,43.1-4.5,65.9ZM371.5,314c6.9-26.7,2.9-51.7-11.7-74.8-12-18.9-29.3-31.2-50.7-37.8,6.6,45.3,26.2,83.4,62.4,112.6Z"/>
</svg>