<?xml version="1.0" encoding="UTF-8"?>
<svg id="MINESCORP_JACKALS" xmlns="http://www.w3.org/2000/svg" version="1.1" viewBox="0 0 566.9 566.9">
  <!-- Generator: Adobe Illustrator 29.0.1, SVG Export Plug-In . SVG Version: 2.1.0 Build 192)  -->
  <defs>
    <style>
      .st0 {
        fill: #f6f6f6;
      }

      .st1 {
        fill: #fff;
      }

      .st2 {
        isolation: isolate;
      }

      .st3 {
        fill: #009fe4;
      }

      .st4 {
        fill: #fdfdfd;
      }
    </style>
  </defs>
  <path class="st3" d="M283.5,552.8c-71.9,0-139.6-28-190.4-78.9S14.2,355.4,14.2,283.5s28-139.6,78.9-190.4C143.9,42.2,211.5,14.2,283.5,14.2s139.6,28,190.4,78.9c50.9,50.9,78.9,118.5,78.9,190.4s-28,139.6-78.9,190.4c-50.9,50.9-118.5,78.9-190.4,78.9h0Z"/>
  <g class="st2">
    <g class="st2">
      <path class="st0" d="M151.2,81l6.9-3.8,24.5,21.6-5-32.3,6.9-3.8,19.7,36-5.1,2.8-14.8-27,5.2,32.2-4.1,2.2-24.3-21.8,14.8,27-5.1,2.8-19.7-36h.1Z"/>
    </g>
  </g>
  <g class="st2">
    <g class="st2">
      <path class="st0" d="M199.5,57.4l14.8,38.3-5.5,2.1-14.8-38.3s5.5-2.1,5.5-2.1Z"/>
    </g>
  </g>
  <g class="st2">
    <g class="st2">
      <path class="st0" d="M213.9,52.4l24.4,23.9-7.4-28.3,5.7-1.5,10.4,39.7-5.7,1.5-24.4-23.9,7.4,28.3-5.7,1.5-10.4-39.7s5.7-1.5,5.7-1.5Z"/>
    </g>
  </g>
  <g class="st2">
    <g class="st2">
      <path class="st0" d="M272.1,59.9l.6,5.8-17.5,1.8,1.2,11.7,17.5-1.8.6,5.8-23.3,2.4-4.2-40.8,23.3-2.4.6,5.8-17.5,1.8,1.2,11.7,17.5-1.8h0Z"/>
    </g>
  </g>
  <g class="st2">
    <g class="st2">
      <path class="st0" d="M278.9,83l.3-5.9,16.1.7c2.9,0,4.5-1.3,4.6-4.2v-2.9c.3-2.9-1.1-4.5-4.1-4.6l-5.9-.3c-6.8-.3-10.1-3.9-9.8-10.7v-2.9c.4-6.8,4-10.1,10.8-9.8l16.1.7-.3,5.9-16.1-.7c-2.9,0-4.5,1.3-4.6,4.2v2.9c-.3,2.9,1.1,4.5,4.1,4.6l5.9.3c6.8.3,10.1,3.9,9.8,10.7v2.9c-.4,6.8-4,10.1-10.8,9.8l-16.1-.7Z"/>
    </g>
  </g>
  <g class="st2">
    <g class="st2">
      <path class="st0" d="M317.3,75.8c-.5,2.9.6,4.6,3.5,5.1l12.9,2.5-1.1,5.8-12.9-2.5c-6.7-1.3-9.4-5.3-8.1-12l3.8-20.1c1.3-6.7,5.3-9.4,12-8.1l12.9,2.5-1.1,5.8-12.9-2.5c-2.9-.6-4.6.6-5.1,3.5l-3.8,20.1h0Z"/>
    </g>
  </g>
  <g class="st2">
    <g class="st2">
      <path class="st0" d="M366.6,89.7c-2.3,6.4-6.6,8.5-13.1,6.3l-6.9-2.4c-6.4-2.3-8.5-6.6-6.3-13.1l6.8-19.3c2.3-6.4,6.6-8.5,13.1-6.3l6.9,2.4c6.4,2.3,8.5,6.6,6.3,13.1l-6.8,19.3ZM345.9,82.4c-1,2.8,0,4.6,2.7,5.6l6.9,2.4c2.8,1,4.6,0,5.6-2.7l6.8-19.3c1-2.8,0-4.6-2.7-5.6l-6.9-2.4c-2.8-1-4.6,0-5.6,2.7,0,0-6.8,19.3-6.8,19.3Z"/>
    </g>
  </g>
  <g class="st2">
    <g class="st2">
      <path class="st0" d="M387.5,92.2l-6.9-3.7-8.4,15.5-5.2-2.8,19.5-36.1,14.2,7.7c6,3.3,7.4,7.9,4.1,13.9l-1.4,2.6c-2.9,5.4-6.5,7.3-10.9,5.6l-2.4,18.8-5.2-2.8,2.4-18.7h.2ZM389,73l-5.6,10.3,9,4.9c2.6,1.4,4.6.8,6-1.8l1.4-2.6c1.4-2.6.8-4.6-1.8-6l-9-4.9h0Z"/>
    </g>
  </g>
  <g class="st2">
    <g class="st2">
      <path class="st0" d="M409.3,105.6l-10.6,14-4.7-3.5,24.8-32.6,12.8,9.8c5.4,4.1,6.1,8.9,2,14.4l-1.8,2.3c-4.1,5.4-8.9,6.1-14.4,2l-8.2-6.2v-.2ZM419.9,91.6l-7.1,9.3,8.2,6.2c2.3,1.8,4.4,1.5,6.2-.8l1.8-2.3c1.8-2.3,1.5-4.4-.8-6.2l-8.2-6.2h-.1Z"/>
    </g>
  </g>
  <g class="st2">
    <g class="st2">
      <path class="st0" d="M200.4,462.7l5.3,2.5-12.5,26.5c-3.3,7.1-8.5,8.9-15.6,5.6l-2.6-1.3,2.5-5.3,2.6,1.3c3.5,1.7,6.1.7,7.8-2.8l12.5-26.5h0Z"/>
    </g>
  </g>
  <g class="st2">
    <g class="st2">
      <path class="st0" d="M224.3,515.2l-5.6-1.8v-9.2c.1,0-14.2-4.7-14.2-4.7l-5.3,7.5-5.6-1.8,24.5-35.1,7.2,2.4-1.1,42.8h.1ZM208.1,494.4l10.9,3.6.9-21.3-11.8,17.7h0Z"/>
    </g>
  </g>
  <g class="st2">
    <g class="st2">
      <g class="st2">
        <path class="st0" d="M238.5,507.4c-.5,2.9.7,4.6,3.6,5.1l13,2.2-1,5.8-13-2.2c-6.7-1.2-9.5-5.1-8.4-11.8l3.5-20.2c1.2-6.7,5.1-9.5,11.8-8.4l13,2.2-1,5.8-13-2.2c-2.9-.5-4.6.7-5.1,3.6l-3.5,20.2Z"/>
      </g>
    </g>
  </g>
  <g class="st2">
    <g class="st2">
      <g class="st2">
        <path class="st0" d="M263.5,521.6l1.1-41,5.9.2-.5,19.9,16.6-19.5,7.3.2-16.6,20.1,15.6,20.9-7.3-.2-15.6-20.3-.5,19.9-5.9-.2Z"/>
      </g>
    </g>
  </g>
  <g class="st2">
    <g class="st2">
      <g class="st2">
        <path class="st0" d="M330.3,517.9l-5.8.8-3.8-8.4-14.9,1.9-1.6,9.1-5.8.8,6.9-42.3,7.6-1,17.5,39.1ZM306.7,506.2l11.4-1.5-8.3-19.6-3.1,21.1Z"/>
      </g>
    </g>
  </g>
  <g class="st2">
    <g class="st2">
      <path class="st0" d="M340.9,509.1l16.9-4.8,1.6,5.6-22.6,6.4-11.1-39.5,5.6-1.6,9.5,33.8h.1Z"/>
    </g>
  </g>
  <g class="st2">
    <g class="st2">
      <path class="st0" d="M368.5,506.8l-2.4-5.4,14.7-6.6c2.7-1.2,3.4-3.1,2.2-5.8l-1.2-2.7c-1.2-2.7-3.1-3.4-5.8-2.2l-5.3,2.4c-6.2,2.8-10.8,1.1-13.5-5.2l-1.2-2.7c-2.8-6.2-1.1-10.8,5.2-13.5l14.7-6.6,2.4,5.3-14.7,6.6c-2.7,1.2-3.4,3.1-2.2,5.8l1.2,2.7c1.2,2.7,3.1,3.4,5.8,2.2l5.3-2.4c6.2-2.8,10.8-1.1,13.5,5.2l1.2,2.7c2.8,6.2,1.1,10.8-5.2,13.5l-14.7,6.6h0Z"/>
    </g>
  </g>
  <path class="st4" d="M168,272.4c7.9-7.4,15.2-14.3,22.6-21.3-6.1-27.8-12.1-55.2-18.4-84.4,20.6,16.1,39.7,31.1,59.2,46.4,17.3-16,34.3-31.7,52.1-48.1,17.3,15.9,34.5,31.8,52.2,48.1,19.3-15.1,38.4-30.1,59.1-46.4-6.3,29.1-12.3,56.4-18.4,84.3,7.3,7,14.8,14.1,22.5,21.5-12.8,22.5-25.5,44.6-38,66.9-2,3.6-5.2,4.5-8.5,5.8-6.3,2.5-12.6,5.1-19.1,7.8-3.9,11-7.8,21.8-11.9,33.5-12.1,4.9-24.7,10-37.8,15.4-12.3-5-24.9-10-37.9-15.3-3.9-11-7.9-22.2-11.6-32.7-1-.9-1.4-1.5-1.9-1.6-18.6-4-29.8-15.7-37.7-32.7-7.5-16.1-17.3-31.1-26.5-47.2h0ZM194.6,202.4c4.1,19.1,7.8,36.3,11.5,53.7-6.9,6.5-13.5,12.7-20.3,19.1,10.9,19.2,21.5,37.8,31.9,56.1,4.4,1.7,8.4,3.2,13.5,5.2-3.3-11.3-6.2-21-9.4-31.8,4.8,1.9,8.1,3.2,11.5,4.5,7.8,22.2,15.6,44.3,23.4,66.7,9.1,3.6,18.2,7.2,26.9,10.7,9.1-3.7,17.7-7.1,26.5-10.7,7.8-22.3,15.7-44.6,23.5-66.8,3.7-1.4,6.9-2.5,11.3-4.2-3.1,10.8-6,20.5-9.2,31.7,6-3,11.8-2.7,14.5-7.4,10.4-17.9,20.5-35.9,30.8-54-7.3-6.9-13.9-13.1-20.3-19.2,3.8-17.8,7.5-34.8,11.6-53.6-13.5,10.6-25.6,20-37.6,29.4-17.3-16-34.1-31.5-51.4-47.4-17.4,16-34.3,31.6-51.4,47.5-12.3-9.6-24.1-18.9-37.5-29.4h.2Z"/>
  <path class="st3" d="M194.6,202.4c13.3,10.5,25.2,19.8,37.5,29.4,17.1-15.8,34.1-31.4,51.4-47.5,17.2,15.9,34,31.4,51.4,47.4,12-9.4,24-18.8,37.6-29.4-4.1,18.8-7.8,35.9-11.6,53.6,6.4,6,13,12.3,20.3,19.2-10.3,18.1-20.4,36.2-30.8,54-2.8,4.7-8.6,4.4-14.5,7.4,3.3-11.2,6.1-20.9,9.2-31.7-4.4,1.6-7.7,2.8-11.3,4.2-7.8,22.2-15.7,44.5-23.5,66.8-8.9,3.6-17.4,7-26.5,10.7-8.7-3.5-17.7-7.1-26.9-10.7-7.9-22.3-15.6-44.4-23.4-66.7-3.4-1.3-6.7-2.6-11.5-4.5,3.2,10.8,6.1,20.5,9.4,31.8-5.1-2-9.1-3.5-13.5-5.2-10.4-18.4-21-36.9-31.9-56.1,6.8-6.4,13.4-12.6,20.3-19.1-3.7-17.4-7.4-34.7-11.5-53.7h-.2ZM223.9,273.9c2.8,7.9,4.9,13.9,7,19.7,9.6,4.9,18.7,9.6,27.8,14.2,3.2,8,6.3,15.8,9.4,23.5l1.4-.5c-2.1-13.1-4.1-26.2-6.2-39.3-12.8-5.7-25.2-11.2-39.5-17.6h.1ZM308.1,307.9c9.7-5,19.1-9.9,28.1-14.5,2.2-6.5,4.2-12.2,6.7-19.5-14.3,6.4-27.1,12.1-39.4,17.7-2.1,13.7-4.1,26.5-6.1,39.2l1.4.4c3-7.5,6-15.1,9.3-23.3h0Z"/>
  <path class="st4" d="M223.9,273.9c14.3,6.4,26.7,11.9,39.5,17.6,2.1,13.1,4.1,26.2,6.2,39.3l-1.4.5c-3.1-7.7-6.2-15.4-9.4-23.5-9.1-4.6-18.3-9.3-27.8-14.2-2.1-5.8-4.2-11.8-7-19.7h-.1Z"/>
  <path class="st4" d="M308.1,307.9c-3.3,8.2-6.3,15.8-9.3,23.3l-1.4-.4c2-12.7,4-25.5,6.1-39.2,12.4-5.5,25.1-11.2,39.4-17.7-2.5,7.2-4.5,13-6.7,19.5-8.9,4.6-18.3,9.5-28.1,14.5h0Z"/>
  <path class="st1" d="M284.1,469.4c-.1,0-9.8-.4-19.7-1.4-19.6-1.9-22.4-4.2-23.5-6.1h0c-.3-.7-.4-1.5-.5-2.1,0-.7-.2-1.7-.3-2.9-.3-2.4-.6-5.6-.9-8.8-.5-4.3-.9-8.6-1.2-10.9-6.8-2-31.3-10.3-56-30.4-16.8-13.6-30.1-29.9-39.7-48.4-11.8-22.6-17.8-48.6-18-77.2l-26.1-13.1.3-1.9c.2-1.7,5.7-41.4,31.3-81.8,15.1-23.8,34-42.8,56.2-56.4,27.8-17,60.8-25.6,98.2-25.6v5.5c-66,0-116.4,26.7-149.7,79.3-21.9,34.5-28.9,69.4-30.3,77.9l25.6,12.9v1.7c0,51.5,18.7,92.9,55.6,123,27.6,22.5,55.6,29.9,55.9,30l1.8.5.2,1.9c.9,8.5,2.2,21,2.6,24.5,3.8,2.1,22.4,4,38.4,4.7l-.2,5.5h0v-.4Z"/>
  <path class="st1" d="M280.4,469.4l-.2-5.5c16-.7,34.6-2.6,38.4-4.7.4-3.5,1.7-16,2.6-24.5l.2-1.9,1.8-.5c.3,0,28.3-7.5,55.9-30,36.9-30.1,55.6-71.5,55.6-123v-1.7l25.6-12.9c-1.4-8.4-8.4-43.4-30.3-77.9-33.4-52.6-83.8-79.3-149.7-79.3v-5.5c37.4,0,70.4,8.6,98.2,25.6,22.2,13.6,41.2,32.6,56.2,56.4,25.6,40.4,31.1,80.2,31.3,81.8l.3,1.9-26.1,13.1c-.2,28.6-6.3,54.6-18,77.2-9.6,18.5-23,34.8-39.7,48.4-24.7,20.1-49.1,28.3-56,30.4-.2,2.4-.7,6.6-1.2,10.9-.3,3.2-.7,6.4-.9,8.8-.1,1.2-.2,2.2-.3,2.9,0,.5-.1,1.4-.5,2.1h0c-1.1,2-3.9,4.2-23.5,6.1-9.9,1-19.6,1.4-19.7,1.4h0v.4Z"/>
  <path class="st1" d="M283.5,544.3c-35.2,0-69.4-6.9-101.5-20.5-31.1-13.1-59-32-82.9-55.9-23.9-24-42.8-51.9-55.9-82.9-13.6-32.2-20.5-66.3-20.5-101.5s6.9-69.4,20.5-101.5c13.1-31.1,32-59,55.9-82.9,24-23.9,51.9-42.8,82.9-55.9,32.2-13.6,66.3-20.5,101.5-20.5s69.4,6.9,101.5,20.5c31.1,13.1,59,32,82.9,55.9,24,24,42.8,51.9,55.9,82.9,13.6,32.2,20.5,66.3,20.5,101.5s-6.9,69.4-20.5,101.5c-13.1,31.1-32,59-55.9,82.9s-51.9,42.8-82.9,55.9c-32.2,13.6-66.3,20.5-101.5,20.5ZM283.5,28.1c-140.8,0-255.4,114.6-255.4,255.4s114.6,255.4,255.4,255.4,255.4-114.6,255.4-255.4S424.3,28.1,283.5,28.1Z"/>
  <path class="st1" d="M460.6,283.5c13.5-5.5,26.8-9.7,41.2-12.3,1.5,23.2-.4,45.9-6.3,68.2-12,45.6-36,83.7-72.2,114.4-7.7-11.9-15.9-23.2-25.4-33.4,41-36.6,62-82.1,62.7-137h0ZM447.8,363.6c10.3,3.4,19.9,7.4,29.7,11.3,2.6-5.7,5.1-10.9,6.7-16.6-10.3-3.1-20.4-5.4-30.8-7.7-1.8,4.2-3.6,8.3-5.6,13h0ZM490.8,336.3c-10.6-1.7-21-2.7-31.6-3.5-1.4,4.4-2.6,8.6-4,13.1,10.6,2,20.6,4.8,30.9,7.5,1.9-5.8,4-11.3,4.8-17.2h0ZM438.6,380.5c9.9,4.2,19,9.4,28.5,14.4,3-5.2,5.9-10,8.2-15.4-9.9-4.3-19.6-8.1-29.7-11.2-2.3,4-4.5,7.9-6.9,12.1h-.1ZM405.1,421c7.1,7.8,13.2,16.3,19.3,25.2,5-4.4,9.6-8.7,14-13.7-8-6.7-16.1-12.6-24.5-18.1-1-.6-1.9-.4-2.6.4-2,2-4,4.1-6.1,6.3h0ZM428,396c9.6,5.2,18.3,11.1,27.2,17,3.1-4.8,6.5-8.9,9-13.8-9.4-5.3-18.7-10.3-28.4-14.3-2.7,3.9-5.1,7.3-7.8,11.1h0ZM460.5,327.6c10.7,1.2,21.1,2.4,31.7,3.5,1.4-5.5,2.4-10.8,2.9-16.7-10.9.2-21.5,0-32.1,1.1-.9,4-1.6,7.8-2.5,12h0ZM416.2,409.9c9.2,5.9,17.5,12.2,25.8,19,3.4-3.7,6.7-7.6,9.9-11.8-8.8-6.3-17.6-12-27-17-2.9,3.3-5.6,6.4-8.6,9.9h0ZM489.4,295c-8.1,1.2-16.2,2.5-24.3,4.3-.5,3.8-.9,7.2-1.4,11.1,11-.8,21.6-.8,32.4-.9.2-4.8.8-8.9.7-13.7,0-2.6,1.2-2-7.4-.8h0ZM465.4,287v7.1c10.6-2.3,21.2-3.3,31.8-5.1v-11.8c-11.1,2.2-21.4,5.8-31.8,9.8h0Z"/>
  <path class="st1" d="M167.8,420.5c-9.5,10.1-17.7,21.4-25.4,33.4-36.2-30.7-60.3-68.8-72.2-114.4-5.8-22.3-7.7-45.1-6.3-68.2,14.4,2.5,27.7,6.7,41.2,12.3.7,54.9,21.6,100.4,62.7,137h0ZM112.3,350.6c-10.4,2.3-20.5,4.6-30.8,7.7,1.5,5.7,4.1,10.9,6.7,16.6,9.8-3.9,19.4-7.9,29.7-11.3-2-4.6-3.8-8.8-5.6-13h0ZM79.6,353.5c10.3-2.7,20.3-5.5,30.9-7.5-1.4-4.5-2.7-8.7-4-13.1-10.7.8-21.1,1.7-31.7,3.5.8,5.9,2.9,11.4,4.8,17.2h0ZM120.2,368.4c-10.2,3-19.9,6.9-29.7,11.2,2.2,5.4,5.1,10.1,8.2,15.4,9.4-5,18.6-10.1,28.4-14.4-2.4-4.3-4.6-8.1-6.9-12.1h0ZM154.5,414.7c-.8-.8-1.7-1-2.6-.4-8.4,5.5-16.5,11.4-24.5,18.1,4.4,5,9,9.4,14,13.7,6.1-8.8,12.1-17.3,19.3-25.2-2.1-2.2-4.1-4.3-6.1-6.3h0ZM129.9,384.9c-9.7,4-19.1,9-28.4,14.3,2.5,4.9,5.9,8.9,9,13.8,8.8-5.9,17.6-11.8,27.2-17-2.7-3.8-5.1-7.2-7.8-11.1h0ZM102.7,315.6c-10.6-1.1-21.2-1-32.1-1.1.6,5.8,1.5,11.2,2.9,16.7,10.5-1.2,21-2.3,31.7-3.5-.9-4.3-1.7-8-2.5-12h0ZM140.9,400c-9.4,5-18.2,10.7-27,17,3.2,4.3,6.4,8.1,9.9,11.8,8.3-6.7,16.6-13.1,25.8-19-3-3.5-5.8-6.6-8.6-9.9h0ZM68.9,295.8c0,4.8.4,8.9.7,13.7,10.8,0,21.5.1,32.4.9-.5-3.9-.9-7.4-1.4-11.1-8-1.7-16.1-3.1-24.3-4.3-8.7-1.2-7.4-1.8-7.4.8h0ZM68.6,277.2v11.8c10.6,1.8,21.2,2.8,31.8,5.1v-7.1c-10.4-4-20.6-7.6-31.8-9.8h0Z"/>
  <path class="st1" d="M105.1,200.9c-5.9,4.3-11,8-16.2,11.8,2,6.1,3.9,12.2,6.1,19.2-5.9-4.3-11-7.9-16.3-11.8-5.2,3.8-10.4,7.5-16.3,11.8,2.2-6.9,4.2-13.1,6.2-19.2-5.3-3.8-10.3-7.4-15.9-11.5h19.6c2.1-6.4,4.2-12.6,6.4-19.4,2.2,6.7,4.2,12.8,6.4,19.2h20.1,0Z"/>
  <path class="st1" d="M481.8,201c2.1-6.3,4.1-12.4,6.4-19.3,2.3,6.8,4.4,13.1,6.5,19.3h19.8c-5.7,4.2-10.8,7.8-16,11.6,2,6.1,3.9,12.2,5.9,18.3-.2.1-.4.2-.5.3-5.1-3.7-10.2-7.4-15.5-11.2-5.3,3.8-10.5,7.5-16.4,11.8,2.2-6.9,4.1-12.8,6.2-19.1-5.1-3.8-10.3-7.5-16.1-11.7h19.9-.2Z"/>
</svg>