<svg enable-background="new 0 0 113.4 113.3" viewBox="0 0 113.4 113.3" xmlns="http://www.w3.org/2000/svg"><path d="m113.4 56.7c0 31.2-25.4 56.6-56.7 56.6s-56.7-25.4-56.7-56.6c0-31.3 25.3-56.7 56.6-56.7 31.4.1 56.8 25.4 56.8 56.7z" fill="#0a0a0a"/><path d="m109.6 56.7c0 29.1-23.7 52.8-52.9 52.8s-52.8-23.7-52.8-52.8c-.1-29.2 23.6-52.8 52.8-52.8s52.9 23.6 52.9 52.8z" fill="#ef7e00"/><path d="m55.7 90.1c-1-1.6-2.2-3.9-2-6.7.1-1.5.1-3 .1-4.6 0-.5 0-1.1 0-1.6-5.1-.8-9.4-3.3-13-7.7l-6.7 3.8c-1.4.8-2.4 1.2-4 1.2-.5 0-1.1 0-1.9-.1l-1.2-.1.7-1c .2-.4.5-.7.7-1.1.7-1.1 1.4-2.3 2.8-3.1 1.8-.9 3.4-1.9 5.2-3 .6-.3 1.1-.7 1.7-1-2-5.2-2-10.2-.1-15.3l-1.9-1c-.5-.3-.9-.6-1.4-.9-1-.6-2-1.2-3-1.7-1.8-.8-2.7-2.2-3.4-3.7-.2-.4-.4-.7-.6-1.1l-.8-1.2 1.4.2c.4 0 .8.1 1.2.1 1.4.1 2.8.2 4.1 1 1.7 1 3.3 1.9 5.1 2.9.6.3 1.1.6 1.7.9 3.8-4.8 8.2-7.5 13.4-8.3 0-.6 0-1.2 0-1.8 0-1.8.1-3.7-.1-5.5-.2-2.1.7-3.8 1.6-5.5l.4-.8.7-1.4.6 1.4c.2.5.4.9.7 1.3.6 1.2 1.3 2.4 1.2 4-.1 2-.1 4 0 6.1v2.1c5.6.5 10.3 3.2 14.5 8.2.5-.3.9-.5 1.4-.8 1.4-.8 2.9-1.6 4.3-2.6 1.7-1.2 3.6-1.3 5.6-1.4l2.1-.1-.8 1.2c-.3.4-.5.8-.7 1.2-.8 1.3-1.5 2.7-3.2 3.5-1.6.8-3.1 1.7-4.7 2.6-.5.3-1 .6-1.5.9 1.2 2.6 1.4 5.4 1.4 7.8 0 3.1-.5 5.5-1.6 7.7l4.4 2.6c.2 0 .4.1.6.3.1 0 .3.1.4.3.1 0 .1.1.2.1 2 1 3.5 2.6 4.6 4.9l.5 1h-1.1-1.1c-1.7 0-3.3-.1-4.8-1.2-1.4-1-2.9-1.9-4.5-2.8-.5-.3-1-.6-1.6-.9-4 4.7-8.6 7.3-14.2 7.8v.8.6 1.4c0 1.4-.1 2.8.1 4.1.2 2.2-.7 3.9-1.7 5.5l-.8 1.5z" fill="#0a0a0a"/><path d="m56.3 23.7c.8 1.7 1.9 3.1 1.8 5-.1 2.9 0 5.8 0 8.9 6.4.4 11.1 3.6 15 8.5 2.1-1.2 4.3-2.3 6.3-3.7 1.8-1.2 3.7-1.2 5.8-1.3-1.1 1.7-1.7 3.5-3.6 4.4-2.3 1.1-4.5 2.5-6.9 3.9 1.4 2.6 1.6 5.3 1.6 8.1 0 2.7-.4 5.4-1.8 8 1.8 1.1 3.5 2.1 5.2 3.1h.1c.1 0 .1.1.2.2.1.1.4.1.5.3.1 0 .2.1.3.2 2 1 3.3 2.5 4.3 4.6-.2 0-.4 0-.6 0s-.3 0-.5 0c-1.5 0-3 0-4.4-1.1-2.1-1.5-4.4-2.7-6.6-4.1-3.8 4.7-8.5 7.6-14.6 8.1-.3.7-.1 1.3-.1 2 0 1.8-.1 3.7 0 5.5.2 2.2-.9 3.8-1.8 5.6-1.3-2-2.1-3.9-1.9-6.3.2-2.2 0-4.5 0-6.9-5.6-.7-10-3.5-13.6-8-2.4 1.3-4.8 2.7-7.3 4.1-1.4.8-2.3 1.1-3.6 1.1-.5 0-1.1 0-1.8-.1 1-1.4 1.5-3 3.2-3.9 2.5-1.3 5-2.9 7.5-4.4-2.2-5.3-2.3-10.5-.1-15.9-.9-.4-1.7-.9-2.5-1.3-1.5-.9-2.9-1.9-4.5-2.6-2-.8-2.6-2.7-3.7-4.5 1.8.2 3.5.1 5 1 2.4 1.4 4.9 2.8 7.4 4.2 3.5-4.6 7.9-7.8 14-8.6 0-2.7.2-5.4 0-8.1-.3-2.3.7-4 1.7-6m .1-3.4-1.3 2.7c-.1.3-.3.5-.4.7-.9 1.8-1.8 3.6-1.6 5.9.1 1.8.1 3.6.1 5.5v1.3c-5 .9-9.2 3.5-12.9 8-.4-.2-.8-.4-1.2-.7-1.8-1-3.4-1.9-5.1-2.9-1.5-.9-3-1-4.5-1.1-.4 0-.7-.1-1.1-.1l-2.9-.3 1.5 2.5c.2.4.4.7.6 1.1.8 1.5 1.7 3.1 3.8 4 1 .4 1.9 1 2.9 1.6.5.3.9.6 1.4.9l1.4.7c-1.6 4.8-1.6 9.7.2 14.6-.4.2-.8.5-1.2.7-1.8 1.1-3.4 2.1-5.2 3-1.6.8-2.4 2.2-3.1 3.3-.2.4-.4.7-.6 1l-1.3 2 2.4.3c.8.1 1.4.1 1.9.1 1.7 0 2.8-.4 4.3-1.3l5.1-2.9 1.1-.6c3.5 4.1 7.6 6.5 12.5 7.4v1c0 1.6.1 3.1-.1 4.6-.2 3.1 1 5.4 2.1 7.2l1.3 2 1.2-2.1.3-.5c.9-1.7 2-3.5 1.7-6-.1-1.3-.1-2.6 0-4 0-.5 0-.9 0-1.4 0-.2 0-.4 0-.6v-.1c5.2-.7 9.8-3.2 13.6-7.5.4.2.7.4 1.1.6 1.6.9 3.1 1.8 4.5 2.8 1.8 1.3 3.8 1.3 5.2 1.3h.2.2.6 2.3l-1-2.1c-1.1-2.4-2.7-4.1-4.8-5.2l-.1-.1c-.1-.1-.3-.2-.5-.3-.2-.2-.5-.3-.7-.4l-2.6-1.6-1.1-.7c1-2.2 1.4-4.6 1.4-7.5 0-2.3-.1-4.9-1.2-7.5.3-.2.7-.4 1-.6 1.6-.9 3.1-1.8 4.7-2.6 1.9-.9 2.7-2.4 3.5-3.7.2-.4.4-.8.7-1.1l1.5-2.4-2.8.2h-.6c-2 .1-4 .3-5.9 1.5-1.4.9-2.8 1.7-4.3 2.5-.3.2-.6.3-.9.5-4-4.7-8.6-7.3-13.9-7.9 0-.5 0-1 0-1.4 0-2.1 0-4.1 0-6.1.1-1.8-.7-3.2-1.3-4.4-.2-.4-.5-.8-.6-1.3z" fill="#fff"/><path d="m69.5 56.7c0 7.1-5.8 12.8-12.8 12.8-7.1 0-12.8-5.7-12.8-12.8s5.7-12.8 12.8-12.8 12.8 5.7 12.8 12.8z" fill="#ef7e00" stroke="#fff" stroke-miterlimit="10" stroke-width="1.4183"/><path d="m62.9 56.7c0 3.4-2.8 6.2-6.2 6.2s-6.2-2.8-6.2-6.2c0-3.5 2.8-6.2 6.2-6.2s6.2 2.8 6.2 6.2z" fill="#0a0a0a" stroke="#fff" stroke-miterlimit="10" stroke-width="1.4183"/><g fill="#fff"><path d="m9.3 44.7c-.1-.1-.2-.3-.2-.4 0-.2 0-.3 0-.5.1-.6.4-.8.9-.7l6.9 1c .2 0 .4.1.4.3 0 .1.1.3 0 .6 0 .2-.1.4-.2.5s-.2.2-.5.1l-5.3-.8 4.8 5.3c.1.1.2.3.3.4 0 .1.1.3 0 .5 0 .2-.1.4-.2.5s-.2.3-.4.4l-6.1 3.7 5.3.8c.2 0 .4.1.4.3 0 .1.1.3 0 .6 0 .2-.1.4-.2.5s-.2.2-.5.1l-6.9-1c-.5-.1-.7-.4-.6-.9.1-.4.2-.6.5-.8l7-4.3z"/><path d="m19.1 40.7c-1 2-2.1 2.7-3.4 2.1l-3.6-1.7c-1.3-.6-1.4-1.9-.5-3.9l1.4-3c1-2 2.1-2.7 3.4-2.1l3.6 1.7c1.3.6 1.4 1.9.5 3.9zm.3-3.5c.3-.6.4-1.1.4-1.4s-.1-.6-.4-.7l-3.6-1.7c-.2-.1-.5-.1-.8.1s-.6.6-.9 1.2l-1.4 2.9c-.3.6-.4 1.1-.4 1.4s.1.6.4.7l3.6 1.7c.2.1.5.1.8-.1s.6-.6.9-1.2z"/><path d="m27.1 24.8c.4.3.6.6.7 1 .1.3.1.7.1 1-.1.3-.2.7-.4 1s-.5.7-.7 1l-4.1 4.9c-.2.3-.5.3-.7.1l-5.5-4.6c-.3-.2-.3-.5-.1-.7l4.1-4.8c.3-.4.6-.7 1-1 .3-.3.6-.5 1-.6.3-.1.7-.1 1-.1.3.1.7.3 1.1.6.3.3.5.5.7.8.1.3.1.7 0 1.1.3-.2.7-.3 1-.3.1.1.4.3.8.6zm-7.5 5.2 3.5-4.1c.2-.3.4-.5.5-.7s.2-.4.2-.5c0-.2 0-.3-.1-.4s-.2-.3-.4-.4-.3-.2-.4-.3-.3-.1-.4 0c-.2 0-.3.1-.5.3-.2.1-.4.4-.6.6l-3.5 4zm6.5-4c-.2-.1-.3-.2-.5-.3-.1-.1-.3-.1-.5 0s-.3.1-.5.3-.4.4-.7.7l-3.5 4.1 1.7 1.5 3.6-4.2c.2-.3.4-.5.5-.7s.2-.4.2-.5 0-.3-.1-.4c.1-.2 0-.4-.2-.5z"/><path d="m30.3 24.9c.1.2.2.3.1.5-.1.1-.2.3-.4.4-.2.2-.3.3-.5.3-.1 0-.3 0-.4-.2l-4.7-5.5c-.1-.2-.2-.3-.1-.5.1-.1.2-.3.4-.4.2-.2.4-.3.5-.3s.3 0 .4.2z"/><path d="m33.9 22.8c-1.9 1.2-3.2 1.2-4 0l-3-4.8c-.1-.2-.1-.3-.1-.5.1-.1.2-.3.4-.4s.4-.2.5-.2.3.1.4.3l3 4.8c.1.2.4.3.7.3s.8-.2 1.4-.6l4.7-3c .2-.1.3-.1.4-.1.1.1.2.2.3.3.1.2.2.3.2.4s-.1.2-.2.3z"/><path d="m39.3 15.9.4 1.3c.1.2.3.4.6.4.3.1.8 0 1.5-.2l5.1-1.8c.2-.1.3 0 .4 0 .1.1.2.2.2.4.1.2.1.3.1.5 0 .1-.1.2-.3.3l-5.2 1.8c-2.1.7-3.4.4-3.9-.9l-1.3-3.8c-.5-1.3.4-2.4 2.5-3.1l1.6-.6c.2-.1.3 0 .4 0 .1.1.2.2.2.4.1.2.1.3.1.5 0 .1-.1.2-.3.3l-1.5.5c-.6.2-1.1.5-1.3.7-.2.3-.3.5-.2.7l.5 1.4 7-2.4c.2-.1.3 0 .4 0 .1.1.2.2.2.4.1.2.1.3.1.5s-.1.2-.3.3z"/><path d="m66.3 14.3c0 .5-.2.9-.4 1.2s-.5.5-.8.6-.7.2-1.1.2-.8 0-1.2 0l-6.4-.6c-.3 0-.5-.2-.5-.6l.7-7.1c0-.3.2-.5.6-.5l6.3.6c.5 0 .9.1 1.3.2s.7.3 1 .5.5.5.6.8.2.7.1 1.2c0 .4-.1.7-.3 1s-.5.5-.9.7c.3.2.6.4.8.7.2.2.2.6.2 1.1zm-1.5-.2c0-.2 0-.4 0-.6s-.1-.3-.2-.4-.3-.2-.5-.3-.6-.1-.9-.2l-5.3-.5-.2 2.3 5.5.6h.9c.2 0 .4-.1.5-.1.1-.1.2-.2.3-.3-.2-.1-.2-.3-.1-.5zm-7-3.1 5.4.5h.9c.2 0 .4 0 .6-.1.1-.1.3-.2.3-.3.1-.1.1-.3.1-.6 0-.2 0-.4 0-.5s-.1-.3-.2-.4-.3-.2-.5-.3-.5-.1-.9-.2l-5.4-.5z"/><path d="m69.1 9.5c.1-.3.4-.4.7-.3l6 2.3c.5.2.9.4 1.3.6s.6.5.9.7c.2.3.4.5.4.8.1.3 0 .5-.1.8l-.5 1.3c-.1.3-.3.5-.5.6-.2.2-.5.3-.8.3s-.7 0-1.1 0c-.4-.1-.9-.2-1.3-.4l-.4-.2c-.3-.1-.6-.2-.8-.3s-.4-.2-.6-.2c-.2-.1-.3-.1-.5-.2-.1-.1-.3-.1-.4-.2.1.1.2.2.3.3s.3.2.4.4c.2.1.4.3.6.5s.5.5.9.8l2.2 2c .2.2.2.4.2.6-.1.2-.2.3-.3.3-.2 0-.3 0-.6-.1 0 0-.1 0-.2-.1-.1 0-.1-.1-.2-.1s-.1-.1-.2-.1-.1-.1-.2-.2l-5.2-5-1.2 2.4c-.1.2-.2.3-.3.3s-.3 0-.6-.1c-.2-.1-.4-.2-.5-.3s-.1-.3 0-.5zm1.2 1.2-.9 2.5 4.9 1.9c.4.1.7.2.9.3.3.1.5.1.6.1.2 0 .3 0 .4-.1s.2-.1.2-.2l.4-1.1c0-.1 0-.2 0-.3s-.1-.2-.2-.3-.3-.2-.5-.4c-.2-.1-.5-.3-.9-.4z"/><path d="m77.9 21.3c-.1.2-.2.3-.4.3-.1 0-.3-.1-.5-.2s-.4-.2-.4-.4c-.1-.1-.1-.3 0-.5l3.6-6.3c.1-.2.2-.3.4-.3.1 0 .3.1.5.2s.4.2.4.4c.1.1.1.3 0 .5z"/><path d="m87.7 26.5c-.5.6-1 .8-1.7.7s-1.4-.5-2.3-1.2l-2.7-2.1c-1.7-1.4-2.2-2.7-1.3-3.8l2.5-3.1c.9-1.1 2.2-.9 3.9.5l1.2 1c .1.1.2.2.2.3s-.1.3-.2.4c-.1.2-.2.3-.4.3-.1 0-.2 0-.4-.1l-1.2-1c-.5-.4-.9-.7-1.3-.7-.3-.1-.6 0-.8.2l-2.3 3.2c-.2.2-.2.4 0 .8.1.3.4.7 1 1.1l2.6 2.1c.5.4.9.7 1.3.7.3.1.6 0 .7-.2l1.3-1.6c.1-.2.3-.2.4-.2s.3.1.5.3.3.3.4.4 0 .3-.1.5z"/><path d="m96.2 27.5c.1.2.2.3.2.5s0 .3 0 .5l-2.8 8.2c0 .1-.1.2-.2.2-.1.1-.1.1-.2.1s-.2 0-.3 0-.2-.1-.3-.1c-.1-.1-.2-.1-.2-.2-.1-.1-.1-.2-.1-.3s0-.2 0-.3l.8-2.2-3.7-5.1-2.3.1c-.1 0-.2 0-.3-.1-.1 0-.1-.1-.2-.2s-.1-.2-.1-.3-.1-.2-.1-.3 0-.2 0-.3.1-.2.2-.2.1-.1.2-.1l8.5-.4c.2 0 .3 0 .4.1.2.1.4.2.5.4zm-5.3 1.1 2.8 3.8 1.4-4z"/><path d="m98.7 46.3c-1.3.5-2.4-.3-3.2-2.4l-2.3-6c-.1-.3 0-.6.3-.7l6.7-2.5c.3-.1.6 0 .7.3l2.3 6c .8 2.1.5 3.4-.8 3.9zm-4-7.9 1.9 5.1c.2.6.5 1 .8 1.3.3.2.5.3.7.2l3.8-1.4c.2-.1.4-.3.4-.7.1-.3 0-.8-.3-1.5l-1.9-5.1z"/><path d="m105.5 51.5v.5c-.1.1-.1.3-.3.4l-6.5 5.7c-.1.1-.2.1-.3.1s-.2 0-.2 0c-.1 0-.2-.1-.2-.2-.1-.1-.1-.1-.1-.2s-.1-.2-.1-.3 0-.2 0-.3.1-.2.2-.2l1.8-1.5-.7-6.3-2.1-1.1c-.1 0-.2-.1-.2-.2s-.1-.2-.1-.3 0-.2 0-.3.1-.2.1-.3.1-.2.2-.2c.1-.1.1-.1.2-.1s.2 0 .3.1l7.5 3.9c.1.1.2.2.3.3.2.1.2.3.2.5zm-5.1-1.7.5 4.7 3.3-2.8z"/><path d="m92.7 76c1.1-1.9 2.3-2.6 3.5-1.9l3.5 2c1.2.7 1.3 2 .1 4l-2.8 4.8c-.1.2-.2.2-.3.2s-.3-.1-.4-.2c-.2-.1-.3-.2-.4-.3s0-.2 0-.4l2.8-4.8c.3-.6.5-1 .5-1.4 0-.3-.1-.6-.3-.7l-3.5-2c-.2-.1-.5-.1-.8.1s-.6.6-1 1.1l-2.8 4.8c-.1.2-.2.2-.3.2s-.3-.1-.4-.2c-.2-.1-.3-.2-.4-.3s-.1-.2 0-.4z"/><path d="m87.1 84c1.6-1.6 2.8-1.9 3.9-.9l2.9 2.8c1 1 .7 2.3-.8 3.9l-2.3 2.4c-1.6 1.6-2.8 1.9-3.9.9l-2.9-2.8c-1-1-.7-2.3.8-3.9zm-1.4 3.2c-.5.5-.7.9-.8 1.2s0 .6.1.8l2.9 2.8c.2.2.4.2.8.1.3-.1.7-.4 1.2-.9l2.2-2.3c.5-.5.7-.9.8-1.2s0-.6-.1-.8l-2.9-2.8c-.2-.2-.4-.2-.8-.1-.3.1-.7.4-1.2.9z"/><path d="m86.1 95.7c.2.3.1.5-.2.7l-5.5 3.3c-.4.3-.9.5-1.3.6s-.8.2-1.1.2-.6 0-.9-.2c-.3-.1-.4-.3-.6-.5l-.7-1.2c-.1-.2-.2-.5-.2-.8s.1-.6.3-.8c.2-.3.4-.6.7-.9s.7-.6 1.1-.8l.4-.2c.3-.2.5-.3.7-.4s.4-.2.6-.3.3-.2.4-.3.3-.1.4-.2c-.1 0-.3.1-.4.1s-.3.1-.5.1-.5.1-.8.1c-.3.1-.7.1-1.2.2l-2.9.5c-.3 0-.5 0-.6-.3-.1-.2-.1-.3 0-.5.1-.1.2-.3.4-.4 0 0 .1-.1.2-.1s.1-.1.2-.1.2-.1.2-.1h.2l7.2-1-1.3-2.1c-.1-.2-.1-.3-.1-.5.1-.1.2-.3.4-.4s.4-.2.5-.2.3.1.4.3zm-1.7.2-1.4-2.3-4.5 2.7c-.3.2-.6.4-.8.5-.2.2-.3.3-.4.4s-.1.3-.2.4c0 .1 0 .2.1.3l.6 1.1.2.2c.1 0 .2.1.4 0 .2 0 .4-.1.6-.2s.5-.2.9-.4z"/><path d="m75 101.9c.1.3 0 .6-.4.6l-6.1 1.8c-.5.1-1 .2-1.4.3-.4 0-.8 0-1.1-.1s-.6-.2-.8-.4-.4-.4-.4-.7l-.4-1.4c-.1-.3-.1-.5 0-.8s.2-.5.5-.7c.2-.2.5-.4.9-.6s.8-.4 1.3-.5l.4-.1c.3-.1.6-.2.8-.2.2-.1.4-.1.6-.2.2 0 .3-.1.5-.1.1 0 .3-.1.4-.1-.1 0-.3 0-.4 0s-.3 0-.5 0-.5 0-.8-.1c-.3 0-.7-.1-1.2-.1l-2.9-.3c-.3 0-.4-.2-.5-.4s0-.3.1-.5.3-.2.5-.3h.2.2.2.2l7.2.9-.7-2.4c-.1-.2 0-.4.1-.5s.3-.2.5-.3.4-.1.6-.1.2.2.3.4zm-1.6-.2-.7-2.6-5.1 1.5c-.4.1-.7.2-.9.3s-.4.2-.5.3-.2.2-.2.3v.3l.3 1.2c0 .1.1.2.2.2s.2.1.4.1h.6c.3 0 .6-.1.9-.2z"/><path d="m61.2 100.9v-1.3c0-.2-.2-.4-.5-.6s-.8-.2-1.5-.2l-5.4.2c-.2 0-.3 0-.4-.1s-.1-.3-.1-.5 0-.3.1-.5c.1-.1.2-.2.4-.2l5.5-.2c2.2-.1 3.4.6 3.4 2l .1 4c0 1.4-1.1 2.1-3.3 2.2l-1.7.1c-.2 0-.3 0-.4-.1s-.1-.3-.1-.5 0-.4.1-.5.2-.2.3-.2l1.6-.1c.7 0 1.1-.1 1.4-.3s.4-.4.4-.6v-1.5l-7.4.2c-.2 0-.3 0-.4-.1s-.1-.3-.1-.5 0-.4.1-.5.2-.2.4-.2z"/><path d="m42.5 97.6c.2-.7.5-1.2 1.2-1.4.6-.2 1.5-.2 2.6 0l3.4.7c2.2.5 3.1 1.4 2.8 2.8l-.9 3.9c-.3 1.4-1.5 1.8-3.7 1.3l-1.6-.3c-.2 0-.3-.1-.3-.2s0-.3 0-.5.1-.3.2-.4.2-.1.4-.1l1.5.3c.7.1 1.1.2 1.5.1.3-.1.5-.3.6-.5l.9-3.9c.1-.2-.1-.5-.3-.7-.3-.2-.7-.4-1.4-.6l-3.3-.7c-.7-.1-1.1-.2-1.5-.1-.3.1-.5.3-.6.5l-.4 2c0 .2-.1.3-.3.4-.1 0-.3 0-.6 0-.2-.1-.4-.1-.5-.2s-.1-.3-.1-.5z"/><path d="m40.9 94.9c.1-.2.2-.3.3-.3s.3 0 .6.1c.2.1.4.2.5.3s.1.3 0 .5l-2.7 6.8c-.1.2-.2.3-.3.3s-.3 0-.6-.1c-.2-.1-.4-.2-.5-.3s-.1-.3 0-.5z"/><path d="m30.3 91c .7-1.2 2-1.2 4-.1l5.5 3.3c.3.2.4.4.2.7l-3.7 6.2c-.2.3-.4.4-.7.2l-5.5-3.3c-1.9-1.1-2.5-2.3-1.8-3.5zm8 3.7-4.7-2.8c-.6-.3-1-.5-1.4-.5s-.6.1-.7.3l-2 3.5c-.1.2-.1.5.1.8s.6.6 1.1 1l4.7 2.8z"/><path d="m28.7 86.5c1.6 1.6 1.9 2.9.8 3.9l-2.9 2.8c-1 1-2.3.7-3.9-.9l-2.3-2.4c-1.6-1.6-1.9-2.9-.8-3.9l2.9-2.8c1-1 2.3-.7 3.9.9zm-3.2-1.5c-.5-.5-.9-.8-1.2-.9s-.6-.1-.8.1l-2.9 2.8c-.2.2-.2.4-.1.8s.4.7.8 1.2l2.3 2.3c.5.5.9.8 1.2.9s.6.1.8-.1l2.9-2.8c.2-.2.2-.4.1-.8-.1-.3-.4-.7-.8-1.2z"/><path d="m17 85.1c-.3.2-.5.1-.7-.2l-3.2-5.6c-.3-.4-.4-.9-.6-1.3-.1-.4-.2-.8-.2-1.1s.1-.6.2-.9c.1-.2.3-.4.5-.6l1.2-.7c.2-.1.5-.2.8-.2s.6.1.8.3c.3.2.6.4.8.7.3.3.5.7.8 1.1l.2.4c.2.3.3.5.4.8.1.2.2.4.3.6s.2.3.2.5c.1.1.1.3.2.4 0-.1 0-.3-.1-.4 0-.1-.1-.3-.1-.5s-.1-.5-.1-.8-.1-.7-.2-1.2l-.4-2.9c0-.3.1-.5.3-.6s.3-.1.5 0c .1.1.3.2.4.4 0 0 .1.1.1.2s.1.1.1.2.1.2.1.2v.2l.8 7.2 2.2-1.2c.2-.1.3-.1.5 0 .1.1.2.2.4.4.1.2.2.4.2.5s-.1.3-.3.4zm-.1-1.6 2.3-1.3-2.6-4.6c-.2-.3-.4-.6-.5-.8-.2-.2-.3-.4-.4-.5s-.2-.2-.4-.2c-.1 0-.2 0-.3.1l-1.1.6c-.1 0-.2.1-.2.2s-.1.2 0 .4c0 .2.1.4.2.6s.2.5.4.9z"/></g></svg>