<?xml version="1.0" encoding="UTF-8"?><svg id="Capa_1" xmlns="http://www.w3.org/2000/svg" viewBox="0 0 566.93 566.93"><defs><style>.cls-1{font-size:37.39px;}.cls-1,.cls-2,.cls-3{fill:#063;}.cls-1,.cls-3{font-family:Tahoma-Bold, Tahoma;font-weight:700;}.cls-4{fill:#f6f6f6;}.cls-4,.cls-2,.cls-5,.cls-6,.cls-7{stroke-width:0px;}.cls-5{fill:none;}.cls-6{fill:#1d1d1b;}.cls-7{fill:#fff;}.cls-3{font-size:36.32px;}</style></defs><path class="cls-2" d="M283.46,562.68c-74.58,0-144.7-29.04-197.43-81.78C33.3,428.16,4.25,358.04,4.25,283.46s29.04-144.7,81.78-197.43C138.77,33.3,208.88,4.25,283.46,4.25s144.7,29.04,197.43,81.78,81.78,122.85,81.78,197.43-29.04,144.7-81.78,197.43c-52.74,52.74-122.85,81.78-197.43,81.78ZM283.46,10.25C132.81,10.25,10.25,132.81,10.25,283.46s122.56,273.22,273.22,273.22,273.22-122.56,273.22-273.22S434.12,10.25,283.46,10.25Z"/><ellipse class="cls-2" cx="283.46" cy="283.46" rx="266.31" ry="262.05"/><path class="cls-2" d="M283.46,15.53C135.49,15.53,15.53,135.49,15.53,283.46s119.96,267.93,267.93,267.93,267.93-119.96,267.93-267.93S431.44,15.53,283.46,15.53ZM283.46,478.87c-109.67,0-198.58-87.49-198.58-195.41s88.91-195.41,198.58-195.41,198.58,87.49,198.58,195.41-88.91,195.41-198.58,195.41Z"/><ellipse class="cls-2" cx="283.46" cy="283.46" rx="131.21" ry="129.11"/><path class="cls-7" d="M283.46,552.27c-71.8,0-139.3-27.96-190.07-78.73-50.77-50.77-78.73-118.27-78.73-190.07s27.96-139.3,78.73-190.07S211.66,14.66,283.46,14.66s139.3,27.96,190.07,78.73c50.77,50.77,78.73,118.27,78.73,190.07s-27.96,139.3-78.73,190.07c-50.77,50.77-118.27,78.73-190.07,78.73ZM283.46,57.63c-124.52,0-225.83,101.31-225.83,225.83s101.31,225.83,225.83,225.83,225.83-101.31,225.83-225.83S407.99,57.63,283.46,57.63Z"/><path class="cls-2" d="M279.46,343.59c3.11-3.96,48.2-62.39,48.2-114.99,0,0-25.27,28.67-47.85,28.67,0,.06-.06,10.53-.15,24.16.05-13.63.08-24.09.08-24.16-22.58-.22-47.57-29.13-47.57-29.13-.5,52.6,44.03,111.46,47.1,115.45,0,.14,0,.23,0,.23,0,0,.05-.06.09-.11.04.05.09.12.09.12,0,0,0-.09,0-.23ZM273.78,325.7c-11.85-18.18-30.36-50.77-34.86-82.81,8.81,7.79,21.8,17.23,35.07,19.56-.04,11.95-.14,41.8-.21,63.24Z"/><path class="cls-2" d="M278.92,216.32l11.96,34.5s-16.26-3.09-22.71.4c.27.13,10.75-34.9,10.75-34.9Z"/><path class="cls-5" d="M208.56,251.26c-26.1,16.7-48.99,33.89-66.84,50.33-27.66,25.48-40.12,46.49-34.17,57.65,5.94,11.16,30.33,12.56,66.91,3.83,9.69-2.31,19.96-5.26,30.67-8.79,19.18-24.67,32.54-62.8,39.48-86.17-12.46-5.67-24.54-11.31-36.04-16.85Z"/><path class="cls-5" d="M250.12,247.59s.66-3.82,1.75-10.22c-4.02-1.71-8.02-3.39-11.97-5.04-9.1,5.19-17.94,10.48-26.46,15.83,10.45,5.01,21.35,10.09,32.54,15.19,2.74-9.61,4.14-15.75,4.14-15.75Z"/><path class="cls-5" d="M254.09,224.43c-2.95,1.6-5.88,3.22-8.78,4.84,2.46,1.03,4.93,2.07,7.42,3.13.42-2.43.87-5.1,1.37-7.97Z"/><path class="cls-5" d="M274.44,281.38c-.6,15.34-1.21,30.69-1.8,45.69,10.8-5.07,21.72-10.53,32.66-16.32-.22-5.48-.43-10.99-.65-16.51-9.86-4.09-19.97-8.39-30.22-12.85Z"/><path class="cls-5" d="M347.13,305.92c11.42,4.37,22.19,8.3,32.07,11.71,39.81,13.73,49.64,13.62,51.9,13.12-1.15-2-7.69-9.34-44.66-29.51-8.77-4.78-18.45-9.84-28.82-15.08-4.79,3.02-9.67,6.03-14.65,9.01,1.3,3.52,2.69,7.12,4.17,10.74Z"/><path class="cls-5" d="M334.31,269.22c7.98,3.83,15.67,7.61,23.04,11.31,11.93-7.6,23.2-15.32,33.63-23.01-1.87-3.12-2.97-6.76-2.97-10.67,0-11.49,9.32-20.81,20.81-20.81,5.46,0,10.41,2.12,14.13,5.56.76-.69,1.52-1.37,2.26-2.06,27.66-25.48,40.12-46.49,34.17-57.65-3.3-6.2-12.61-9.36-26.72-9.36-24.99,0-65.05,9.91-113.54,30.41,5.04,29.51,9.35,54.63,9.35,54.63,0,0,1.98,8.71,5.85,21.63Z"/><path class="cls-5" d="M279.24,243.88c8.08,3.57,16.05,7.15,23.85,10.72-.73-18.47-1.44-36.58-2.11-53.65-7.77,3.56-15.73,7.38-23.83,11.45-.38,9.78-.78,19.83-1.18,30.05,1.09.48,2.18.95,3.27,1.44Z"/><path class="cls-5" d="M164.63,203.31c-39.81-13.73-49.65-13.62-51.9-13.12,1.15,2,7.69,9.34,44.66,29.51,14.73,8.03,31.99,16.84,50.85,25.96,8.35-5.3,17.02-10.54,25.94-15.69-25.53-10.54-49.39-19.69-69.55-26.65Z"/><path class="cls-5" d="M277.26,248.36c-.5-.22-1-.44-1.5-.66-.37,9.39-.74,18.89-1.12,28.41,10.08,4.4,20.05,8.65,29.8,12.71-.38-9.59-.76-19.2-1.13-28.73-8.52-3.91-17.22-7.83-26.05-11.73Z"/><path class="cls-5" d="M341.26,290.48c3.8-2.28,7.55-4.58,11.23-6.89-5.26-2.62-10.66-5.28-16.22-7.98,1.46,4.63,3.13,9.64,4.99,14.86Z"/><path class="cls-4" d="M310.68,143.35c-2.45-43.54-14.1-54.57-14.1-54.57,0,0,1.82,46.27,4.2,106.9,5.88-2.67,11.72-5.22,17.49-7.65-2.55-14.94-5.23-30.7-7.59-44.68Z"/><path class="cls-4" d="M377.51,359.19c-11.06-12.55-20.35-29.82-27.77-47.03-6.95-2.63-14.15-5.42-21.56-8.37-1.93-.77-3.88-1.55-5.84-2.34-5.8-2.33-11.69-4.74-17.7-7.23.22,5.52.43,11.03.65,16.51.07,1.81.14,3.62.21,5.43,3.36,85.45,6.39,162.25,6.39,161.98,68.06-8.58,112.83-57.03,112.83-57.03,0,0-46.6-61.32-47.22-61.93Z"/><path class="cls-4" d="M254.09,224.43c-.49,2.87-.95,5.54-1.37,7.97-.31,1.79-.59,3.45-.85,4.97-1.1,6.41-1.75,10.22-1.75,10.22,0,0-1.4,6.14-4.14,15.75,6.77,3.08,13.63,6.16,20.58,9.23,2.7,1.19,5.39,2.37,8.07,3.54.37-9.53.75-19.03,1.12-28.41.07-1.76.14-3.52.21-5.27.4-10.21.8-20.27,1.18-30.05-5.68,2.85-11.43,5.81-17.25,8.91-1.94,1.04-3.88,2.08-5.8,3.12Z"/><path class="cls-4" d="M267.91,143.35c-4.08,24.12-9.1,53.52-12.76,74.93.81-.44,1.63-.88,2.44-1.31,6.61-3.52,13.21-6.9,19.78-10.17,2.6-66.01,4.64-118.03,4.64-118.03,0,0-11.65,11.04-14.1,54.57Z"/><path class="cls-4" d="M244.6,268.1c-6.93,23.37-20.29,61.5-39.48,86.17-1.33,1.71-2.68,3.35-4.06,4.92-.06.06-.63.79-1.58,2.03-8.22,10.67-45.63,59.9-45.63,59.9,0,0,44.76,48.44,112.83,57.03,0,.25,2.65-66.94,5.74-145.57.07-1.83.14-3.67.22-5.51.59-14.99,1.19-30.35,1.8-45.69-3.27-1.42-6.55-2.86-9.85-4.31-6.75-2.98-13.42-5.97-19.98-8.96Z"/><path class="cls-4" d="M333.63,300.67c4.59,1.81,9.09,3.56,13.5,5.25-1.47-3.63-2.86-7.22-4.17-10.74-.59-1.58-1.15-3.15-1.7-4.69-1.86-5.23-3.52-10.23-4.99-14.86-.7-2.23-1.36-4.36-1.97-6.4-3.87-12.92-5.85-21.63-5.85-21.63,0,0-4.31-25.12-9.35-54.63-5.92,2.5-11.97,5.16-18.13,7.98.67,17.07,1.38,35.18,2.11,53.65.07,1.83.14,3.66.22,5.5.38,9.53.75,19.14,1.13,28.73,7.96,3.32,15.77,6.5,23.37,9.53,1.95.78,3.89,1.55,5.82,2.31Z"/><path class="cls-6" d="M272.64,327.07c-.07,1.84-.14,3.68-.22,5.51,10.93-5.09,22-10.58,33.09-16.41-.07-1.81-.14-3.61-.21-5.43-10.95,5.79-21.87,11.25-32.66,16.32Z"/><path class="cls-6" d="M463.71,169.6c-7.18-13.48-32.88-15.72-72.37-6.29-21.97,5.24-46.87,13.71-73.07,24.72-5.77,2.43-11.61,4.98-17.49,7.65-7.74,3.51-15.55,7.23-23.41,11.13-6.57,3.26-13.17,6.65-19.78,10.17-.82.44-1.63.87-2.44,1.31-5.26,2.83-10.46,5.69-15.57,8.59-28.45-11.82-54.87-21.94-76.76-29.37-51.36-17.44-53.74-12.04-54.89-9.44-1.15,2.6-3.53,8,43.95,34.2,14.8,8.17,32.28,17.15,51.51,26.49-25.29,16.35-47.52,33.14-64.98,49.22-29.86,27.51-42.36,50.08-35.18,63.56,4.26,7.99,15.02,12.03,31.32,12.03,11.19,0,24.98-1.9,41.05-5.74,7.63-1.82,15.62-4.04,23.89-6.61.95-1.24,1.52-1.97,1.58-2.03,1.38-1.57,2.73-3.21,4.06-4.92-10.71,3.52-20.98,6.48-30.67,8.79-36.58,8.73-60.96,7.33-66.91-3.83-5.94-11.16,6.51-32.17,34.17-57.65,17.85-16.44,40.74-33.63,66.84-50.33,11.5,5.54,23.58,11.18,36.04,16.85,6.57,2.99,13.23,5.98,19.98,8.96,3.3,1.46,6.58,2.89,9.85,4.31,10.25,4.46,20.36,8.76,30.22,12.85,6,2.49,11.9,4.9,17.7,7.23,1.96.79,3.91,1.57,5.84,2.34,7.41,2.95,14.61,5.74,21.56,8.37,11.15,4.22,21.65,8.01,31.27,11.28,28.46,9.66,41.88,12.31,48.39,12.31,5.23,0,5.99-1.72,6.5-2.87,1.15-2.6,3.53-8-43.95-34.2-8.93-4.93-18.85-10.16-29.52-15.58,11.15-7.17,21.71-14.43,31.54-21.69,3.78,3.85,9.03,6.25,14.85,6.25,11.49,0,20.81-9.32,20.81-20.81,0-4.26-1.29-8.22-3.48-11.52.8-.73,1.6-1.45,2.39-2.17,29.86-27.51,42.36-50.08,35.18-63.56ZM157.39,219.69c-36.97-20.17-43.51-27.52-44.66-29.51,2.25-.49,12.09-.61,51.9,13.12,20.17,6.96,44.02,16.11,69.55,26.65-8.92,5.15-17.59,10.4-25.94,15.69-18.85-9.12-36.12-17.92-50.85-25.96ZM425.2,229.55c-.74.68-1.5,1.37-2.26,2.06-3.71-3.44-8.67-5.56-14.13-5.56-11.49,0-20.81,9.32-20.81,20.81,0,3.91,1.1,7.55,2.97,10.67-10.43,7.7-21.7,15.41-33.63,23.01-7.37-3.7-15.06-7.48-23.04-11.31.61,2.03,1.27,4.17,1.97,6.4,5.56,2.69,10.96,5.35,16.22,7.98-3.69,2.31-7.43,4.61-11.23,6.89.55,1.55,1.12,3.11,1.7,4.69,4.98-2.98,9.87-5.99,14.65-9.01,10.37,5.23,20.05,10.29,28.82,15.08,36.97,20.17,43.51,27.52,44.66,29.51-2.26.49-12.09.61-51.9-13.12-9.88-3.41-20.65-7.35-32.07-11.71-4.41-1.69-8.91-3.44-13.5-5.25-1.92-.76-3.87-1.53-5.82-2.31-7.61-3.04-15.41-6.22-23.37-9.53-9.75-4.06-19.71-8.31-29.8-12.71-2.68-1.17-5.38-2.35-8.07-3.54-6.95-3.07-13.81-6.15-20.58-9.23-11.19-5.09-22.09-10.18-32.54-15.19,8.52-5.35,17.36-10.64,26.46-15.83,3.96,1.65,7.95,3.33,11.97,5.04.26-1.52.55-3.18.85-4.97-2.49-1.05-4.96-2.1-7.42-3.13,2.9-1.63,5.83-3.24,8.78-4.84,1.93-1.05,3.86-2.09,5.8-3.12,5.83-3.1,11.57-6.06,17.25-8.91,8.11-4.07,16.06-7.89,23.83-11.45,6.16-2.82,12.2-5.48,18.13-7.98,48.49-20.5,88.56-30.41,113.54-30.41,14.12,0,23.42,3.16,26.72,9.36,5.94,11.16-6.51,32.17-34.17,57.65Z"/><path class="cls-6" d="M279.24,243.88c-1.09-.48-2.18-.96-3.27-1.44-.07,1.75-.14,3.51-.21,5.27.5.22,1,.44,1.5.66,8.83,3.9,17.53,7.82,26.05,11.73-.07-1.84-.14-3.67-.22-5.5-7.81-3.57-15.77-7.15-23.85-10.72Z"/><text class="cls-3" transform="translate(58.96 210.04) rotate(-68.58)"><tspan x="0" y="0">D</tspan></text><text class="cls-3" transform="translate(68.75 185.05) rotate(-62.41)"><tspan x="0" y="0">R</tspan></text><text class="cls-3" transform="translate(80.66 162.27) rotate(-56.49)"><tspan x="0" y="0">A</tspan></text><text class="cls-3" transform="translate(94.01 142.05) rotate(-50.72)"><tspan x="0" y="0">X</tspan></text><text class="cls-3" transform="translate(109.35 123.27) rotate(-45.01)"><tspan x="0" y="0">C</tspan></text><text class="cls-3" transform="translate(125.95 106.48) rotate(-38.94)"><tspan x="0" y="0">O</tspan></text><text class="cls-3" transform="translate(147.17 89.34) rotate(-32.63)"><tspan x="0" y="0">R</tspan></text><text class="cls-3" transform="translate(168.84 75.51) rotate(-26.78)"><tspan x="0" y="0">P</tspan></text><text class="cls-3" transform="translate(189.83 65.16) rotate(-22.75)"><tspan x="0" y="0"> </tspan></text><text class="cls-3" transform="translate(199.18 60.99) rotate(-18.79)"><tspan x="0" y="0">–</tspan></text><text class="cls-3" transform="translate(220.7 53.88) rotate(-14.8)"><tspan x="0" y="0"> </tspan></text><text class="cls-3" transform="translate(230.52 51.07) rotate(-10.91)"><tspan x="0" y="0">T</tspan></text><text class="cls-3" transform="translate(251.71 46.8) rotate(-4.91)"><tspan x="0" y="0">O</tspan></text><text class="cls-3" transform="translate(278.86 44.47) rotate(1.62)"><tspan x="0" y="0">R</tspan></text><text class="cls-3" transform="translate(304.56 45.22) rotate(7.72)"><tspan x="0" y="0">C</tspan></text><text class="cls-3" transform="translate(327.93 48.26) rotate(13.94)"><tspan x="0" y="0">H</tspan></text><text class="cls-3" transform="translate(354.22 54.93) rotate(19.68)"><tspan x="0" y="0">L</tspan></text><text class="cls-3" transform="translate(373.28 61.79) rotate(24.23)"><tspan x="0" y="0">I</tspan></text><text class="cls-3" transform="translate(388.9 68.55) rotate(29.59)"><tspan x="0" y="0">G</tspan></text><text class="cls-3" transform="translate(411.83 81.5) rotate(36.18)"><tspan x="0" y="0">H</tspan></text><text class="cls-3" transform="translate(433.62 97.58) rotate(42.19)"><tspan x="0" y="0">T</tspan></text><text class="cls-3" transform="translate(449.66 112.36) rotate(46.12)"><tspan x="0" y="0"> </tspan></text><text class="cls-3" transform="translate(456.92 119.51) rotate(50.34)"><tspan x="0" y="0">B</tspan></text><text class="cls-3" transform="translate(472.46 138.15) rotate(56.39)"><tspan x="0" y="0">R</tspan></text><text class="cls-3" transform="translate(486.59 159.72) rotate(61.54)"><tspan x="0" y="0">I</tspan></text><text class="cls-3" transform="translate(494.89 174.54) rotate(66.73)"><tspan x="0" y="0">G</tspan></text><text class="cls-3" transform="translate(505.12 199.05) rotate(71.2)"><tspan x="0" y="0">.</tspan></text><text class="cls-1" transform="translate(143.09 507.3) rotate(27.96)"><tspan x="0" y="0">M</tspan></text><text class="cls-1" transform="translate(174.38 523.63) rotate(21.16)"><tspan x="0" y="0">O</tspan></text><text class="cls-1" transform="translate(202.93 534.57) rotate(14.8)"><tspan x="0" y="0">O</tspan></text><text class="cls-1" transform="translate(232.54 542.29) rotate(8.41)"><tspan x="0" y="0">N</tspan></text><text class="cls-1" transform="translate(262.8 546.62) rotate(2.21)"><tspan x="0" y="0">R</tspan></text><text class="cls-1" transform="translate(291.55 547.61) rotate(-3.63)"><tspan x="0" y="0">A</tspan></text><text class="cls-1" transform="translate(318.69 545.82) rotate(-9.35)"><tspan x="0" y="0">K</tspan></text><text class="cls-1" transform="translate(345.85 541.2) rotate(-14.8)"><tspan x="0" y="0">E</tspan></text><text class="cls-1" transform="translate(369.62 534.94) rotate(-20.41)"><tspan x="0" y="0">R</tspan></text><text class="cls-1" transform="translate(396.53 524.75) rotate(-26.15)"><tspan x="0" y="0">S</tspan></text><text class="cls-1" transform="translate(143.09 -127.2) rotate(27.96)"><tspan x="0" y="0">M</tspan></text><text class="cls-1" transform="translate(174.38 -110.87) rotate(21.16)"><tspan x="0" y="0">O</tspan></text><text class="cls-1" transform="translate(202.93 -99.93) rotate(14.8)"><tspan x="0" y="0">O</tspan></text><text class="cls-1" transform="translate(232.54 -92.21) rotate(8.41)"><tspan x="0" y="0">N</tspan></text><text class="cls-1" transform="translate(262.8 -87.88) rotate(2.21)"><tspan x="0" y="0">R</tspan></text><text class="cls-1" transform="translate(291.55 -86.89) rotate(-3.63)"><tspan x="0" y="0">A</tspan></text><text class="cls-1" transform="translate(318.69 -88.68) rotate(-9.35)"><tspan x="0" y="0">K</tspan></text><text class="cls-1" transform="translate(345.85 -93.3) rotate(-14.8)"><tspan x="0" y="0">E</tspan></text><text class="cls-1" transform="translate(369.62 -99.56) rotate(-20.41)"><tspan x="0" y="0">R</tspan></text><text class="cls-1" transform="translate(396.53 -109.75) rotate(-26.15)"><tspan x="0" y="0">S</tspan></text></svg>