<svg enable-background="new 0 0 113.4 113.4" viewBox="0 0 113.4 113.4" xmlns="http://www.w3.org/2000/svg"><circle cx="56.7" cy="56.7" r="56.7"/><circle cx="56.7" cy="56.7" fill="#db802e" r="54"/><circle cx="56.7" cy="56.7" fill="#fefefe" r="37.9"/><circle cx="56.7" cy="56.7" fill="#db802e" r="36"/><path d="m26.4 74c6 10.5 17.3 17.6 30.3 17.6s24.3-7.1 30.3-17.6z" fill="#fefefe"/><path d="m28.8 75.3c5.5 9 15.9 15 27.9 15s22.4-6.1 27.9-15z"/><g fill="#fefefe"><path d="m73.5 64.6h-33.6c.1.2.2.5.3.7h33c .1-.2.2-.5.3-.7z"/><path d="m75.3 56.7c0-10.3-8.3-18.6-18.6-18.6s-18.6 8.3-18.6 18.6c0 .5 0 .9.1 1.4h37c .1-.5.1-.9.1-1.4z"/><path d="m74.7 61.3h-36c .1.3.1.5.2.8h35.6c.1-.2.1-.5.2-.8z"/><path d="m71.9 67.4h-30.4c.2.3.5.6.7.9h28.9c.3-.2.5-.5.8-.9z"/><path d="m69.5 70.1h-25.6c.6.6 1.3 1.1 2 1.6h21.6c.7-.4 1.4-1 2-1.6z"/><path d="m56.7 75.3c3.4 0 6.5-.9 9.2-2.5h-18.4c2.7 1.6 5.8 2.5 9.2 2.5z"/><path d="m13.2 81.9c-1.2-1.9-1.2-3.3 0-4l3.5-2.1c1.2-.8 2.4-.2 3.6 1.8l3 4.8c.1.2.1.3.1.4s-.2.2-.4.3-.3.2-.4.2-.2-.1-.3-.2l-2.9-4.8c-.4-.6-.7-1-1-1.1-.3-.2-.6-.2-.8-.1l-3.5 2.1c-.2.1-.3.4-.3.7s.2.8.5 1.4l3 4.8c.1.2.1.3.1.4-.1.1-.2.2-.4.3s-.3.2-.4.2-.2-.1-.3-.2z"/><path d="m20.1 91.2c-1.6-1.6-1.9-2.9-.9-3.9l2.9-2.9c1-1 2.3-.7 3.9.9l2.4 2.4c1.6 1.6 1.9 2.9.9 3.9l-2.9 2.9c-1 1-2.3.7-3.9-.9zm3.3 1.5c.5.5.9.8 1.2.9s.6 0 .8-.1l2.9-2.9c.2-.2.2-.4.1-.8-.1-.3-.4-.7-.9-1.2l-2.3-2.3c-.5-.5-.9-.8-1.2-.9s-.6-.1-.8.1l-2.9 2.9c-.2.2-.2.4-.1.8.1.3.4.8.9 1.2z"/><path d="m30.8 90.6c.2-.3.4-.4.7-.2l5.6 3.3c.5.3.8.5 1.2.8.3.3.6.6.7.9.2.3.3.6.3.9s0 .5-.2.8l-.7 1.3c-.1.2-.3.4-.6.5s-.5.2-.9.2c-.3 0-.7-.1-1.1-.2s-.8-.3-1.3-.6l-.4-.2c-.3-.2-.5-.3-.8-.5-.2-.1-.4-.2-.6-.3s-.3-.2-.4-.3-.3-.2-.4-.2c.1.1.2.2.3.3s.2.3.4.4c.1.2.3.4.5.6.2.3.4.6.7.9l1.8 2.4c.2.2.2.4.1.6s-.2.3-.4.3-.3-.1-.6-.2c0 0-.1-.1-.2-.1s-.1-.1-.2-.1c-.1-.1-.1-.1-.2-.2s-.1-.1-.1-.2l-4.3-6-1.3 2.2c-.1.2-.2.3-.4.3-.1 0-.3-.1-.6-.2-.2-.1-.4-.3-.4-.4-.1-.1-.1-.3.1-.5zm.9 1.4-1.4 2.3 4.6 2.7c.3.2.6.3.9.4.2.1.4.2.6.2h.4c.1 0 .2-.1.2-.2l.6-1.1c.1-.1.1-.2.1-.3s-.1-.2-.2-.4c-.1-.1-.3-.3-.5-.4-.2-.2-.5-.3-.8-.5z"/><path d="m40 96c .1-.3.3-.5.7-.4l6.2 1.8c.5.1.9.3 1.3.5s.7.4.9.7c.2.2.4.5.5.8s.1.5 0 .8l-.4 1.4c-.1.3-.2.5-.4.7s-.5.3-.8.4-.7.1-1.1.1-.9-.1-1.4-.3l-.4-.1c-.3-.1-.6-.2-.8-.2s-.5-.1-.6-.2c-.2-.1-.3-.1-.5-.2-.1 0-.3-.1-.4-.1.1.1.2.2.3.2.1.1.3.2.5.3s.4.3.6.5c.3.2.6.4.9.7l2.4 1.8c.2.2.3.4.2.6s-.2.3-.3.4c-.2 0-.3 0-.6 0-.1 0-.1 0-.2-.1-.1 0-.2-.1-.2-.1-.1 0-.2-.1-.2-.1-.1 0-.1-.1-.2-.1l-5.7-4.7-.7 2.4c-.1.2-.2.3-.3.4-.1 0-.3 0-.6-.1-.2-.1-.4-.2-.5-.3s-.1-.3-.1-.5zm1.3 1.1-.8 2.6 5.2 1.5c.4.1.7.2 1 .2s.5 0 .6 0c .2 0 .3-.1.4-.1.1-.1.1-.2.2-.3l.3-1.2c0-.1 0-.2 0-.3s-.1-.2-.2-.3-.3-.2-.6-.3c-.2-.1-.5-.2-.9-.3z"/><path d="m51.7 103.3-.1 1.4c0 .2.1.5.4.7s.8.3 1.5.3l5.5.2c.2 0 .3.1.4.2s.1.3.1.5 0 .4-.1.5-.2.2-.4.1l-5.6-.2c-2.3-.1-3.4-.8-3.3-2.3l.2-4.1c.1-1.4 1.2-2.1 3.5-2l1.7.1c.2 0 .3.1.3.2.1.1.1.3.1.5s0 .4-.1.5-.2.1-.4.1l-1.7-.1c-.7 0-1.2 0-1.5.2s-.5.4-.5.6l-.1 1.5 7.5.3c.2 0 .3.1.4.2s.1.3.1.5 0 .4-.1.5-.2.1-.4.1z"/><path d="m71.3 102.8c.1.7 0 1.3-.5 1.8s-1.3.8-2.4 1l-3.4.7c-2.2.5-3.5 0-3.8-1.4l-.8-4c-.3-1.4.7-2.3 2.9-2.8l1.6-.3c.2 0 .3 0 .4.1s.1.2.2.4v.5c0 .1-.1.2-.3.2l-1.6.3c-.7.1-1.1.3-1.4.5s-.4.5-.3.7l.8 4c0 .2.2.4.6.5.3.1.8.1 1.5 0l3.3-.7c.7-.1 1.1-.3 1.4-.6.3-.2.4-.5.3-.7l-.4-2c0-.2 0-.4.1-.5s.3-.2.5-.2.4-.1.6 0c .1 0 .2.2.3.4z"/><path d="m74.6 103.1c.1.2.1.4 0 .5s-.3.2-.5.3-.4.1-.6.1c-.1 0-.3-.1-.3-.3l-2.5-6.9c-.1-.2-.1-.4 0-.5s.3-.2.5-.3.4-.1.6-.1c.1 0 .3.1.3.3z"/><path d="m84.8 96.1c.7 1.3 0 2.4-1.9 3.5l-5.7 3.2c-.3.2-.6.1-.7-.2l-3.6-6.4c-.2-.3-.1-.6.2-.7l5.7-3.2c2-1.1 3.3-1 4 .2zm-7.4 5.2 4.8-2.7c.6-.3 1-.6 1.2-1 .2-.3.2-.6.1-.8l-2-3.6c-.1-.2-.4-.3-.7-.3s-.8.2-1.4.5l-4.8 2.7z"/><path d="m90 94.3c-1.7 1.6-3 1.8-4 .8l-2.8-3c-1-1-.7-2.3 1-3.9l2.4-2.3c1.7-1.6 3-1.8 4-.8l2.8 3c1 1 .7 2.3-1 3.9zm1.6-3.2c.5-.5.8-.9.9-1.2s.1-.6-.1-.8l-2.8-3c-.2-.2-.4-.2-.8-.1-.3.1-.8.4-1.3.8l-2.4 2.3c-.5.5-.8.9-.9 1.2s-.1.6.1.8l2.8 3c .2.2.4.2.8.1.3-.1.8-.4 1.3-.8z"/><path d="m89.8 83.8c-.3-.2-.4-.4-.2-.7l3.4-5.5c.3-.4.6-.8.9-1.1s.6-.5.9-.7.6-.3.9-.3.5.1.8.2l1.2.8c.2.1.4.4.5.6.1.3.2.6.1.9 0 .3-.1.7-.2 1.1s-.4.8-.6 1.3l-.2.4c-.2.3-.3.5-.5.8-.1.2-.3.4-.4.6s-.2.3-.3.4-.2.3-.3.4l.3-.3s.3-.2.4-.3c.2-.1.4-.3.6-.5.3-.2.6-.4 1-.7l2.4-1.8c.2-.2.4-.2.6 0 .2.1.3.2.3.4s-.1.3-.2.6c0 0-.1.1-.1.2s-.1.1-.2.2-.1.1-.2.2-.1.1-.2.1l-6 4.2 2.2 1.3c.2.1.3.3.3.4s-.1.3-.2.5-.3.4-.4.4c-.1.1-.3.1-.5-.1zm1.4-.9 2.3 1.4 2.8-4.6c.2-.3.4-.6.5-.9s.2-.4.2-.6 0-.3 0-.4-.1-.2-.2-.2l-1.1-.7c-.1-.1-.2-.1-.3-.1s-.2.1-.4.2-.3.2-.5.4-.4.5-.6.8z"/><path d="m8 56c-.1-.1-.2-.2-.3-.3s-.1-.2-.1-.4c0-.4.2-.7.6-.7l5.5-.4c.2 0 .3 0 .4.1s.1.2.1.4v.5c0 .1-.2.2-.3.2l-4.3.3 4.6 3.3c.1.1.2.2.3.3s.1.2.1.4 0 .3-.1.4c0 .1-.1.2-.2.3l-4.1 3.9 4.3-.3c.2 0 .3 0 .4.1s.1.2.1.4 0 .3-.1.4c0 .1-.2.2-.3.2l-5.5.4c-.4 0-.6-.2-.7-.6 0-.3.1-.5.3-.7l4.7-4.5z"/><path d="m14.7 51.1c-.3 1.8-1 2.5-2.1 2.4l-3.1-.6c-1.1-.2-1.5-1.1-1.2-2.9l.4-2.6c.3-1.8 1-2.5 2.1-2.4l3.1.5c1.1.2 1.5 1.1 1.2 2.9zm-.5-2.7c.1-.5.1-.9 0-1.2s-.2-.4-.4-.4l-3.1-.5c-.2 0-.4.1-.6.3s-.3.6-.4 1.1l-.4 2.5c-.1.5-.1.9 0 1.2s.2.4.4.4l3.1.5c.2 0 .4-.1.5-.3.2-.2.3-.6.4-1.1z"/><path d="m9.9 43.3c-.3-.1-.3-.3-.2-.5l1.8-4.7c.1-.4.3-.7.5-1s .4-.5.6-.7.4-.3.6-.3c.2-.1.4 0 .6 0l1.1.4c.2.1.4.2.5.4s.2.4.2.7 0 .6 0 .9c-.1.3-.1.7-.3 1.1l-.1.3c-.1.2-.2.5-.2.6s-.1.3-.2.5c-.1.1-.1.3-.2.4 0 .1-.1.2-.1.3.1-.1.1-.2.2-.3s.2-.2.3-.3.3-.3.4-.5c.2-.2.4-.4.6-.7l1.6-1.7c.1-.2.3-.2.5-.1s.2.1.3.3c0 .1 0 .3-.1.5 0 0 0 .1-.1.1s-.1.1-.1.2-.1.1-.1.2-.1.1-.1.1l-4 4.1 1.9.7c.2.1.3.2.3.3s0 .3-.1.5-.1.3-.2.4-.2.1-.4 0zm1-.9 2 .8 1.5-3.9c.1-.3.2-.5.2-.7s.1-.4.1-.5 0-.2-.1-.3c0-.1-.1-.1-.2-.1l-.9-.3c-.1 0-.2 0-.2 0-.1 0-.2.1-.3.2s-.2.2-.3.4-.2.4-.3.7z"/><path d="m15.5 30.4c.1-.1.2-.3.3-.3.1-.1.2-.1.3-.1l6.8-.3c.1 0 .1 0 .2.1.1 0 .1.1.1.2v.2.2c0 .1-.1.2-.1.2 0 .1-.1.1-.2.2s-.1.1-.2.1h-1.7l-2.7 4.2.8 1.7v.2c0 .1 0 .1-.1.2 0 .1-.1.1-.2.2s-.1.1-.2.1-.1 0-.2 0-.1 0-.2-.1c-.1 0-.1-.1-.1-.2l-2.7-6.1c-.1-.1-.1-.2-.1-.4 0 0 .1-.2.2-.3zm2.3 3.6 2-3.1-3.4.1z"/><path d="m29 24.5c-.1.1-.1.1-.2.1l-.1.1s-.1 0-.2 0-.1 0-.3 0l-7.3.7 3.3 3.2c.1.1.2.2.1.3s-.1.2-.3.4c-.1.1-.3.2-.4.3-.1 0-.2 0-.4-.1l-4.1-4c-.1-.1-.2-.2-.1-.3s.1-.2.2-.4c.1-.1.3-.2.4-.3.1 0 .3-.1.4-.1l7.2-.7-3.3-3.2c-.1-.1-.2-.2-.1-.3 0-.1.1-.2.2-.4.1-.1.3-.2.4-.3.1 0 .2 0 .4.1l4.1 4c .1.1.2.2.1.3.2.3.1.5 0 .6z"/><path d="m37.8 11.8c0-.1.1-.3.2-.4s.2-.2.3-.2c.4-.2.7-.1.9.2l2.6 4.9c.1.2.1.3 0 .4s-.2.2-.4.3-.3.1-.4.1-.2-.1-.3-.2l-2-3.8-1.2 5.5c0 .2-.1.3-.2.4s-.2.2-.3.3c-.2.1-.3.1-.4.1s-.3 0-.4-.1l-5.2-2.2 2 3.8c.1.2.1.3 0 .4s-.2.2-.4.3-.3.1-.4.1-.2-.1-.3-.2l-2.6-4.9c-.2-.4-.1-.6.3-.8.3-.1.5-.2.8-.1l6 2.5z"/><path d="m44.9 9.2h.4c.1 0 .2.1.3.2l5.1 4.5c.2 0 .2.1.2.2s0 .1 0 .2-.1.1-.1.2-.1.1-.2.1-.1.1-.2.1-.2 0-.2 0-.1 0-.2-.1l-1.4-1.3-4.9 1.2-.6 1.7c0 .1-.1.1-.1.2s-.1.1-.2.1-.1 0-.2 0-.2 0-.2 0c-.1 0-.1-.1-.2-.1s-.1-.1-.1-.2 0-.1 0-.2l2.3-6.3c0-.1.1-.2.2-.3 0-.1.1-.1.3-.2zm-.8 4.2 3.6-.9-2.5-2.3z"/><path d="m55.2 7.8c.2 0 .3 0 .4.1s.2.1.3.2l4.1 5.5c0 .1.1.1.1.2s0 .1-.1.2c0 .1-.1.1-.1.2s-.1.1-.2.1-.2 0-.2 0c-.1 0-.2 0-.2 0-.1 0-.1-.1-.2-.1l-1.2-1.6-5 .1-1 1.6c0 .1-.1.1-.2.1s-.1 0-.2 0-.1 0-.2 0-.2-.1-.2-.1c-.1 0-.1-.1-.2-.1 0-.1-.1-.1-.1-.2s0-.1.1-.2l3.5-5.7c.1-.1.2-.2.3-.2.2 0 .3-.1.5-.1zm-1.7 4 3.7-.1-2-2.7z"/><path d="m63.3 12c-1.8-.3-2.5-1-2.3-2.1l.1-.3c.2-1.1 1.2-1.5 2.9-1.2l.9.2c.1 0 .2.1.3.2v.4c0 .2-.1.3-.1.3-.1.1-.2.1-.3.1l-.9-.2c-.5-.1-.9-.1-1.1 0s-.4.2-.4.4l-.1.3c0 .2 0 .4.2.5.2.2.5.3 1.1.4l2.1.4c1.8.3 2.5 1 2.3 2.1l-.2.4c-.2 1.1-1.2 1.5-2.9 1.2l-4.3-.7c-.1 0-.2-.1-.3-.2 0-.1 0-.2 0-.4s.1-.3.1-.3c.1-.1.2-.1.3-.1l4.4.7c.5.1.9.1 1.1 0s .4-.2.4-.4l.1-.4c0-.2 0-.4-.2-.5-.2-.2-.6-.3-1.1-.4z"/><path d="m74 10.9c.2.1.3.1.4.2s.1.2.2.3l1.7 6.6v.2c0 .1-.1.1-.1.2-.1 0-.1.1-.2.1s-.2 0-.2 0c-.1 0-.2 0-.2 0-.1 0-.1-.1-.2-.1s-.1-.1-.1-.2l-.4-1.8-4.7-1.8-1.5 1.1c-.1 0-.1.1-.2.1s-.1 0-.2 0-.1-.1-.2-.1-.1-.1-.2-.2c0-.1-.1-.1-.1-.2s0-.1 0-.2.1-.1.1-.2l5.4-3.9c.1-.1.2-.1.3-.1 0-.1.2 0 .4 0zm-3.1 3 3.5 1.3-.8-3.3z"/><path d="m77.5 19.3c-.1.2-.2.2-.3.2s-.3 0-.4-.1c-.2-.1-.3-.2-.4-.3s-.1-.2 0-.4l2.7-5.1c.1-.2.2-.2.3-.2s.3 0 .4.1c.2.1.3.2.4.3s.1.2 0 .4z"/><path d="m83.8 19.3 4.5 3.7 1.6-1.9c.1-.1.2-.2.3-.2s.2.1.4.2c.1.1.2.2.3.3 0 .1 0 .2-.1.4l-3.7 4.4c-.1.1-.2.2-.3.2s-.2-.1-.4-.2-.3-.2-.3-.3 0-.2.1-.4l1.5-1.8-4.5-3.7-1.5 1.9c-.1.1-.2.2-.3.2s-.2-.1-.4-.2c-.1-.1-.2-.2-.3-.3 0-.1 0-.2.1-.4l3.7-4.4c.1-.1.2-.2.3-.2s.2.1.4.2.3.2.3.3 0 .2-.1.4z"/><path d="m88.9 29.1c-1.1-1.4-1.2-2.4-.4-3.1l3.5-2.8c.1-.1.3-.1.4-.1s.2.1.3.3.2.3.2.4 0 .2-.2.3l-3.5 2.8c-.2.1-.2.3-.2.6s.2.6.6 1l1.7 2.1c.3.4.6.7.9.8s.5.1.6 0l3.5-2.8c.1-.1.3-.1.4-.1s.2.1.3.3.2.3.2.4 0 .2-.2.3l-3.5 2.8c-.9.7-1.9.4-3-1z"/><path d="m95.9 40.5c0-.1-.1-.1-.1-.2s0-.1 0-.2 0-.1 0-.2 0-.1 0-.2l1.6-7.1-4.1 2.1c-.2.1-.3.1-.4 0s-.2-.2-.3-.4-.1-.3-.1-.4.1-.2.2-.3l5.1-2.6c.1-.1.3-.1.4 0s .2.2.3.3c.1.2.1.3.1.5 0 .1 0 .3-.1.5l-1.7 7.1 4.1-2.1c.2-.1.3-.1.4 0s .2.2.3.4.1.3.1.4-.1.2-.2.3l-5.1 2.6c-.2.1-.3.1-.4 0 .1-.2 0-.4-.1-.5z"/><path d="m102.8 43.7-5 1.5c-.2 0-.3 0-.4 0s-.1-.2-.2-.4-.1-.3 0-.4c0-.1.1-.2.3-.2l5-1.5-.8-2.6c0-.1 0-.2 0-.3.1-.1.2-.1.3-.2s.3-.1.4 0c .1 0 .2.1.2.2l1.9 6.4v.3c-.1.1-.2.1-.3.2-.2 0-.3.1-.4 0s-.2-.1-.2-.2z"/><path d="m101.2 49.1-1 .1c-.2 0-.3.2-.5.4-.1.3-.1.6-.1 1.2l.5 4.3c0 .1 0 .2-.1.3s-.2.1-.4.1-.3 0-.4 0-.1-.1-.2-.3l-.5-4.3c-.2-1.8.3-2.7 1.4-2.8l3.2-.4c1.1-.1 1.8.7 2 2.5l.2 1.3c0 .1 0 .2-.1.3s-.2.1-.4.1-.3 0-.4 0-.1-.1-.2-.3l-.1-1.3c-.1-.5-.2-.9-.3-1.1s-.3-.3-.5-.3l-1.1.1.7 5.8c0 .1 0 .2-.1.3s-.2.1-.4.1-.3 0-.4 0-.1-.1-.2-.3z"/><path d="m105.3 56.5c.3 0 .4.2.4.5l-.4 5c0 .4-.1.8-.2 1.1s-.2.6-.4.8c-.1.2-.3.4-.5.5s-.4.2-.6.1l-1.1-.1c-.2 0-.4-.1-.6-.2s-.3-.3-.4-.6c-.1-.2-.2-.5-.2-.9 0-.3 0-.7 0-1.1v-.4c0-.3 0-.5.1-.7 0-.2 0-.4 0-.5s0-.3 0-.4 0-.2 0-.3c0 .1-.1.2-.1.3s-.1.2-.2.4-.2.3-.3.6c-.1.2-.2.5-.4.8l-1 2.1c-.1.2-.2.3-.4.3s-.3-.1-.3-.2-.1-.3-.1-.5c0 0 0-.1 0-.2s0-.1 0-.2 0-.1.1-.2c0-.1 0-.1.1-.2l2.7-5.1-2-.2c-.2 0-.3-.1-.3-.2s-.1-.3 0-.5c0-.2.1-.3.1-.4.1-.1.2-.1.4-.1zm-.6 1.2-2.1-.2-.3 4.2v.8c0 .2 0 .4.1.5 0 .1.1.2.2.3s.1.1.2.1l1 .1c.1 0 .2 0 .2-.1s.1-.1.2-.2.1-.3.2-.5c0-.2.1-.4.1-.8z"/></g></svg>