<?xml version="1.0" encoding="UTF-8"?><svg id="Capa_1" xmlns="http://www.w3.org/2000/svg" viewBox="0 0 566.93 566.93"><defs><style>.cls-1{fill:#fff;}.cls-2{fill:#ef7e00;}.cls-3{font-family:Neuropol-Regular, Neuropol;font-size:34.95px;}.cls-3,.cls-4{fill:#1d1d1b;}</style></defs><g><text class="cls-3" transform="translate(680.46 337.13) rotate(-97.21)"><tspan x="0" y="0">M</tspan></text><text class="cls-3" transform="translate(675.23 292.14) rotate(-87.77)"><tspan x="0" y="0">O</tspan></text><text class="cls-3" transform="translate(676.52 260.05) rotate(-80.54)"><tspan x="0" y="0">T</tspan></text><text class="cls-3" transform="translate(680.98 231.85) rotate(-72.98)"><tspan x="0" y="0">H</tspan></text><text class="cls-3" transform="translate(691.1 199.06) rotate(-65.18)"><tspan x="0" y="0">E</tspan></text><text class="cls-3" transform="translate(703.73 171.38) rotate(-57.42)"><tspan x="0" y="0">R</tspan></text><text class="cls-3" transform="translate(722.36 143.16) rotate(-51.89)"><tspan x="0" y="0"> </tspan></text><text class="cls-3" transform="translate(729.09 133.63) rotate(-46.26)"><tspan x="0" y="0">H</tspan></text><text class="cls-3" transform="translate(752.88 108.88) rotate(-38.39)"><tspan x="0" y="0">E</tspan></text><text class="cls-3" transform="translate(776.49 89.74) rotate(-30.12)"><tspan x="0" y="0">A</tspan></text><text class="cls-3" transform="translate(806.26 72.4) rotate(-22.89)"><tspan x="0" y="0">L</tspan></text><text class="cls-3" transform="translate(833.33 60.85) rotate(-15.7)"><tspan x="0" y="0">E</tspan></text><text class="cls-3" transform="translate(862.56 52.47) rotate(-7.9)"><tspan x="0" y="0">R</tspan></text><text class="cls-3" transform="translate(896.16 48.33) rotate(-2.36)"><tspan x="0" y="0"> </tspan></text><text class="cls-3" transform="translate(907.77 47.21) rotate(3.38)"><tspan x="0" y="0">A</tspan></text><text class="cls-3" transform="translate(942.08 49.19) rotate(11.35)"><tspan x="0" y="0">G</tspan></text><text class="cls-3" transform="translate(973.42 55.25) rotate(19.32)"><tspan x="0" y="0">A</tspan></text><text class="cls-3" transform="translate(1000.33 64.44) rotate(25.32)"><tspan x="0" y="0">T</tspan></text><text class="cls-3" transform="translate(1026.27 76.45) rotate(32.95)"><tspan x="0" y="0">H</tspan></text><text class="cls-3" transform="translate(1055.06 94.97) rotate(41.44)"><tspan x="0" y="0">A</tspan></text><text class="cls-3" transform="translate(1081.5 119.09) rotate(47.22)"><tspan x="0" y="0"> </tspan></text><text class="cls-3" transform="translate(1090.2 126.76) rotate(54.4)"><tspan x="0" y="0">W</tspan></text><text class="cls-3" transform="translate(1114.6 160.77) rotate(62.93)"><tspan x="0" y="0">A</tspan></text><text class="cls-3" transform="translate(1130.78 192.45) rotate(71.26)"><tspan x="0" y="0">B</tspan></text><text class="cls-3" transform="translate(1141.31 222.82) rotate(79.37)"><tspan x="0" y="0">A</tspan></text><text class="cls-3" transform="translate(1147.86 257.79) rotate(87.77)"><tspan x="0" y="0">R</tspan></text><text class="cls-3" transform="translate(1149.3 291.35) rotate(96.12)"><tspan x="0" y="0">A</tspan></text></g><path class="cls-1" d="m283.07,5.17C133.82,4.96,4.54,125.53,4.25,284.64c-.28,154.18,125.56,279.17,279.47,278.96,154.39-.21,278.96-124.91,278.95-279.24-.01-154.63-124.85-278.97-279.61-279.19Z"/><g><path class="cls-2" d="m283.07,5.17C133.82,4.96,4.54,125.53,4.25,284.64c-.28,154.18,125.56,279.17,279.47,278.96,154.39-.21,278.97-124.91,278.95-279.24-.01-154.63-124.85-278.97-279.61-279.19Zm193.51,472.08c-51.41,51.46-119.9,79.86-192.86,79.96h-.39c-72.86,0-141.39-28.43-193.02-80.08-51.51-51.53-79.8-119.9-79.67-192.51.14-74.21,29.13-143.42,81.64-194.9,25.13-24.64,54.32-43.96,86.74-57.43,33.21-13.8,68.28-20.76,104.07-20.73,73.16.1,141.8,28.44,193.29,79.81,51.52,51.41,79.9,119.94,79.91,192.98,0,72.93-28.3,141.43-79.71,192.89Z"/><g><path class="cls-4" d="m24.33,302.13c-.49-.31-.85-.69-1.09-1.11-.24-.43-.4-.92-.47-1.47-.22-1.71.46-2.67,2.03-2.86l21.22-2.68c.67-.08,1.13.06,1.39.42.26.37.44.93.53,1.69.1.76.06,1.35-.09,1.77-.16.42-.57.67-1.24.76l-16.43,2.08,18.5,11.71c.51.33.9.7,1.16,1.09.26.39.43.89.51,1.49.08.67.05,1.24-.1,1.72-.15.48-.43.93-.85,1.36l-14.99,15.99,16.43-2.08c.67-.08,1.13.06,1.39.42.26.37.44.93.53,1.69.09.74.06,1.32-.1,1.74-.16.42-.57.67-1.24.76l-21.22,2.69c-1.57.2-2.46-.55-2.68-2.23-.14-1.13.15-2.1.87-2.89l17.22-18.38-21.28-13.65Z"/><path class="cls-4" d="m48.32,281.39c-.27,6.89-2.57,10.25-6.9,10.08l-12.33-.48c-4.33-.17-6.36-3.7-6.09-10.59l.4-10.16c.27-6.89,2.57-10.25,6.9-10.08l12.33.48c4.33.17,6.36,3.7,6.09,10.59l-.4,10.16Zm-3.38-10.17c.08-2.05-.13-3.55-.63-4.5-.5-.95-1.12-1.44-1.87-1.47l-12.33-.48c-.77-.03-1.43.41-1.99,1.32-.56.91-.88,2.39-.96,4.44l-.38,9.88c-.08,2.05.12,3.55.61,4.5.49.95,1.12,1.44,1.88,1.47l12.33.48c.75.03,1.4-.41,1.97-1.32.57-.91.9-2.39.98-4.44l.38-9.88Z"/><path class="cls-4" d="m30.68,240.7l19.79,3.3c.67.11,1.07.38,1.21.8.14.42.15,1.02.02,1.77-.12.74-.32,1.28-.59,1.64-.27.36-.74.48-1.41.37l-19.79-3.3-1.73,10.38c-.09.55-.31.89-.65,1.01-.34.12-.82.13-1.44.03-.62-.1-1.07-.27-1.35-.49-.28-.22-.38-.61-.28-1.17l4.23-25.37c.09-.55.31-.89.65-1.01.34-.12.82-.13,1.44-.03.62.1,1.07.27,1.35.49.28.22.38.61.28,1.16l-1.73,10.41Z"/><path class="cls-4" d="m41.73,222.55l6.59-21.52-9.06-2.77c-.65-.2-1.01-.52-1.1-.96-.08-.44-.01-1.03.21-1.76.22-.71.48-1.23.8-1.54.32-.32.8-.38,1.44-.18l21.35,6.54c.65.2,1.01.52,1.1.96.08.44.02,1.02-.2,1.73-.23.73-.5,1.26-.81,1.58s-.8.38-1.44.18l-8.69-2.66-6.59,21.52,8.69,2.66c.65.2,1.01.52,1.1.96.08.44.02,1.03-.21,1.76-.22.71-.49,1.23-.8,1.54-.32.32-.8.38-1.44.18l-21.35-6.54c-.65-.2-1.01-.52-1.1-.96-.08-.44-.02-1.02.2-1.73.23-.74.5-1.26.81-1.58.32-.32.8-.38,1.44-.18l9.06,2.77Z"/><path class="cls-4" d="m56.63,190.14l3.71,1.72c.68.31,1.45.16,2.33-.46.88-.62,1.75-1.86,2.61-3.72l7.01-15.16c.23-.51.53-.77.89-.8.36-.03.82.09,1.39.36.55.25.94.53,1.16.83.22.3.22.7-.02,1.21l-7.07,15.29c-2.9,6.26-6.31,8.48-10.24,6.66l-11.2-5.18c-3.93-1.82-4.45-5.86-1.56-12.12l2.19-4.73c.22-.49.52-.74.88-.77.36-.03.82.09,1.4.36.57.26.96.54,1.17.83.21.29.21.68-.02,1.17l-2.13,4.6c-.86,1.86-1.25,3.32-1.16,4.39.08,1.07.48,1.76,1.17,2.08l4.06,1.88,9.52-20.59c.23-.51.53-.77.89-.8s.82.09,1.39.36c.57.26.96.54,1.17.83.21.29.2.69-.03,1.2l-9.52,20.59Z"/><path class="cls-4" d="m57.26,158.13c-.9-.58-1.06-1.33-.47-2.25l10.57-16.55c.85-1.33,1.73-2.46,2.64-3.39.91-.93,1.81-1.63,2.7-2.11.89-.48,1.76-.74,2.6-.76s1.63.19,2.36.66l3.71,2.37c.73.46,1.25,1.08,1.59,1.86.33.78.46,1.67.4,2.68-.06,1.01-.33,2.12-.78,3.34-.46,1.21-1.11,2.49-1.97,3.82l-.75,1.18c-.55.86-1.03,1.61-1.44,2.25-.41.64-.77,1.2-1.1,1.68s-.62.92-.89,1.3-.53.75-.79,1.11l.06.04c.32-.24.66-.5,1.02-.78.36-.28.81-.62,1.34-1.03.54-.4,1.19-.89,1.97-1.46.78-.57,1.75-1.27,2.92-2.1l7.39-5.27c.66-.46,1.3-.5,1.93-.1.53.34.78.74.76,1.21-.02.47-.24,1.03-.66,1.68-.09.14-.2.31-.34.51-.14.2-.3.4-.46.6-.17.2-.34.38-.52.56-.18.17-.37.31-.57.4l-18.46,12.47,6.48,4.14c.57.36.84.77.8,1.21-.04.45-.26.99-.68,1.64-.4.63-.8,1.05-1.19,1.27-.39.22-.87.15-1.44-.21l-18.73-11.97Zm4.33-2.75l6.95,4.44,8.73-13.66c.64-1,1.12-1.86,1.44-2.58.32-.72.52-1.33.61-1.83.08-.5.06-.9-.06-1.2-.13-.3-.33-.54-.6-.72l-3.18-2.03c-.26-.16-.55-.24-.89-.23-.34,0-.71.15-1.13.44-.42.29-.89.73-1.4,1.32-.52.6-1.1,1.39-1.74,2.39l-8.73,13.67Z"/><path class="cls-4" d="m95.7,120.07l15.56-16.26-6.84-6.55c-.49-.47-.67-.92-.55-1.35.12-.43.45-.92.98-1.48.52-.54.99-.88,1.41-1.02.42-.14.88.02,1.37.49l16.13,15.44c.49.47.67.92.55,1.35-.12.43-.44.92-.96,1.45-.53.55-1.01.9-1.44,1.04-.43.14-.88-.02-1.37-.49l-6.56-6.28-15.56,16.26,6.56,6.28c.49.47.67.92.55,1.35-.12.43-.45.92-.98,1.48-.52.54-.99.88-1.41,1.02-.43.14-.88-.02-1.37-.49l-16.13-15.44c-.49-.47-.67-.92-.55-1.35.12-.43.44-.92.96-1.46.53-.56,1.01-.9,1.44-1.04.43-.14.88.02,1.37.49l6.84,6.55Z"/><path class="cls-4" d="m123.6,97.81l2.54,3.2c.46.58,1.23.8,2.29.64,1.06-.16,2.4-.88,4.01-2.15l13.09-10.37c.44-.35.82-.45,1.16-.31.33.14.69.45,1.08.95.38.48.6.89.66,1.26.07.36-.12.72-.56,1.07l-13.2,10.46c-5.41,4.28-9.45,4.73-12.14,1.33l-7.66-9.67c-2.69-3.4-1.33-7.24,4.07-11.52l4.08-3.23c.42-.33.8-.43,1.13-.29.33.14.69.45,1.08.95.39.49.62.92.67,1.27.06.36-.12.7-.54,1.03l-3.97,3.15c-1.61,1.27-2.61,2.4-3.02,3.39-.41.99-.37,1.79.11,2.39l2.78,3.51,17.78-14.09c.44-.35.82-.45,1.16-.31s.69.45,1.08.95c.39.49.62.92.67,1.27.06.35-.13.71-.57,1.05l-17.78,14.09Z"/><path class="cls-4" d="m151.71,59.74c.58-.34,1.12-.53,1.59-.56.48-.03.94.05,1.38.25l24.09,11.16c.27.14.48.33.62.57.13.22.19.47.17.75-.01.28-.09.55-.22.81-.13.26-.3.51-.52.75s-.45.42-.72.58c-.28.16-.56.27-.83.3s-.56,0-.85-.14l-6.58-3.13-16.81,9.75-.34,7.15c-.01.3-.11.57-.29.79-.18.22-.4.41-.66.57-.24.14-.52.25-.83.32-.31.07-.61.09-.91.06-.3-.03-.57-.1-.81-.22-.24-.12-.43-.29-.57-.54-.12-.2-.18-.46-.17-.79l1.48-25.99c.02-.47.17-.91.45-1.31.28-.4.72-.78,1.32-1.13Zm1.52,16.62l12.48-7.24-11.86-5.68-.62,12.93Z"/><path class="cls-4" d="m189.81,68.7c-6.35,2.68-10.37,2.03-12.06-1.96l-6.74-15.97c-.26-.62-.25-1.11.03-1.45.28-.35.77-.67,1.46-.96.71-.3,1.28-.43,1.73-.39.45.04.8.37,1.06.99l6.74,15.97c.29.69.96,1.1,2.02,1.23,1.06.14,2.53-.19,4.42-.99l15.78-6.66c.51-.22.91-.21,1.18.01.27.23.53.62.76,1.18.24.58.35,1.05.33,1.42s-.29.65-.81.87l-15.9,6.72Z"/><path class="cls-4" d="m208.83,49.97l1.11,3.93c.2.72.82,1.21,1.87,1.47,1.04.26,2.55.12,4.52-.44l16.08-4.52c.54-.15.93-.1,1.19.16.25.26.46.69.63,1.29.16.58.21,1.06.13,1.42-.08.36-.39.62-.93.77l-16.22,4.56c-6.64,1.87-10.54.71-11.72-3.46l-3.34-11.88c-1.17-4.17,1.56-7.19,8.2-9.06l5.01-1.41c.52-.15.9-.09,1.15.17.25.26.47.69.64,1.29.17.61.21,1.08.13,1.43-.08.35-.38.6-.9.74l-4.88,1.37c-1.97.56-3.34,1.21-4.09,1.97-.75.76-1.03,1.5-.82,2.25l1.21,4.31,21.83-6.14c.54-.15.93-.1,1.19.16.25.26.47.69.64,1.29.17.61.21,1.08.13,1.43-.08.35-.39.6-.93.75l-21.83,6.14Z"/><path class="cls-4" d="m233.57,29.66c-.15-1.06.32-1.67,1.4-1.82l19.45-2.7c1.57-.22,3-.28,4.3-.19,1.29.09,2.41.32,3.36.68.94.36,1.7.86,2.27,1.48.57.63.91,1.37,1.03,2.22l.6,4.36c.12.85-.01,1.66-.39,2.42-.38.76-.97,1.44-1.78,2.05-.81.61-1.83,1.13-3.05,1.57-1.22.44-2.62.77-4.18.99l-1.38.19c-1.02.14-1.9.26-2.65.37-.75.1-1.42.19-1.99.26-.58.07-1.1.12-1.57.16s-.92.08-1.36.12v.07c.4.09.82.18,1.26.27.45.09,1,.21,1.65.35.66.14,1.45.33,2.39.55s2.1.51,3.49.86l8.81,2.2c.78.2,1.22.67,1.32,1.4.09.62-.06,1.08-.43,1.37s-.94.48-1.7.59c-.16.02-.36.04-.61.07-.24.02-.5.03-.75.03-.26,0-.51-.01-.76-.04-.25-.02-.48-.08-.68-.17l-21.46-5.95,1.06,7.62c.09.67-.04,1.13-.41,1.4-.36.26-.93.45-1.69.55-.74.1-1.32.08-1.74-.08-.42-.15-.68-.56-.77-1.23l-3.05-22.02Zm4.9,1.51l1.13,8.17,16.06-2.23c1.18-.16,2.14-.36,2.9-.58.76-.22,1.35-.46,1.79-.73.43-.26.73-.53.87-.83.15-.29.2-.6.15-.92l-.52-3.74c-.04-.3-.17-.58-.4-.83-.22-.25-.58-.44-1.07-.58-.49-.13-1.13-.2-1.92-.21-.79,0-1.77.07-2.95.23l-16.06,2.23Z"/><path class="cls-4" d="m299.63,23.78c.67.04,1.22.18,1.64.41s.75.56,1.01.97l13.93,22.6c.15.26.21.54.2.82-.02.26-.11.5-.27.72-.17.22-.37.41-.63.56s-.54.26-.84.33c-.31.08-.61.1-.92.09-.33-.02-.61-.09-.86-.21-.25-.12-.46-.31-.63-.58l-3.76-6.24-19.4-1.14-4.23,5.77c-.18.25-.4.41-.68.5-.27.09-.56.12-.86.11-.28-.02-.57-.08-.86-.19s-.56-.26-.8-.45c-.23-.19-.42-.4-.56-.63-.14-.23-.2-.48-.18-.76.01-.23.11-.48.29-.75l15.58-20.85c.28-.38.65-.66,1.1-.85.45-.18,1.03-.25,1.73-.21Zm-7.9,14.69l14.41.85-6.76-11.29-7.65,10.44Z"/><path class="cls-4" d="m348,50.15c-.44,2.19-1.62,3.63-3.56,4.31-1.93.68-4.56.69-7.9.02l-10.38-2.08c-6.76-1.36-9.71-4.16-8.86-8.41l2.43-12.09c.85-4.25,4.66-5.69,11.42-4.34l4.83.97c.55.11.88.33.99.68.11.34.1.82-.02,1.44s-.3,1.06-.54,1.34c-.23.27-.62.35-1.17.25l-4.69-.94c-2.01-.4-3.52-.44-4.54-.11-1.02.33-1.6.87-1.75,1.63l-2.43,12.1c-.15.73.18,1.45.99,2.16s2.22,1.27,4.23,1.67l10.11,2.03c2.01.4,3.52.43,4.53.09,1.01-.34,1.58-.88,1.73-1.61l1.22-6.1c.13-.66.41-1.06.83-1.19.42-.13,1-.12,1.76.03s1.31.37,1.67.66.47.76.34,1.42l-1.23,6.1Z"/><path class="cls-4" d="m371.23,38.03c.64.22,1.12.51,1.46.85.34.34.57.74.71,1.21l7.18,25.55c.07.3.06.58-.04.84-.08.24-.24.45-.46.62-.22.17-.47.29-.76.36-.28.07-.59.1-.9.09-.32-.01-.62-.07-.9-.17-.31-.11-.57-.25-.77-.44-.21-.18-.36-.43-.45-.73l-1.9-7.04-18.33-6.43-5.65,4.39c-.24.19-.5.29-.79.3-.29,0-.57-.03-.86-.13-.26-.09-.52-.23-.78-.42-.25-.19-.47-.41-.64-.65-.17-.25-.29-.5-.36-.76-.07-.26-.06-.52.03-.78.08-.22.24-.44.49-.65l20.71-15.77c.37-.29.8-.46,1.29-.51.49-.05,1.06.04,1.72.27Zm-11.64,11.96l13.62,4.78-3.39-12.71-10.23,7.93Z"/><path class="cls-4" d="m397.51,53.12l-8.58,18.13c-.29.61-.66.93-1.11.95-.45.02-1.02-.13-1.71-.46-.67-.32-1.15-.66-1.41-1.02-.27-.36-.26-.84.03-1.45l8.58-18.13-9.51-4.5c-.5-.24-.77-.54-.79-.9-.02-.36.1-.82.37-1.39.27-.57.55-.96.84-1.17.29-.21.69-.2,1.2.04l23.25,11c.5.24.77.54.79.9s-.1.82-.37,1.39c-.27.57-.55.96-.84,1.17-.29.21-.69.2-1.2-.04l-9.54-4.51Z"/><path class="cls-4" d="m412,68.73l18.89,12.24,5.15-7.95c.37-.57.77-.83,1.22-.79.45.04.99.27,1.64.69.63.41,1.05.8,1.27,1.2.22.39.14.87-.22,1.44l-12.14,18.74c-.37.57-.78.83-1.22.79s-.98-.26-1.61-.67c-.65-.42-1.08-.82-1.29-1.21-.22-.39-.14-.87.22-1.44l4.94-7.63-18.89-12.24-4.94,7.62c-.37.57-.77.83-1.22.79s-.99-.27-1.64-.69c-.63-.41-1.05-.8-1.27-1.2-.22-.39-.14-.87.22-1.44l12.15-18.74c.37-.57.77-.83,1.22-.79.45.04.98.26,1.61.67.64.42,1.08.82,1.29,1.21.22.39.14.87-.22,1.44l-5.15,7.95Z"/><path class="cls-4" d="m457.85,88.57c.51.45.85.89,1.04,1.33.18.44.25.9.2,1.38l-2.96,26.38c-.05.3-.16.56-.35.76-.17.19-.39.33-.66.4-.27.08-.55.09-.84.05-.29-.04-.58-.12-.87-.26-.29-.13-.55-.3-.77-.5-.24-.22-.43-.45-.55-.7-.12-.25-.17-.53-.14-.84l.89-7.24-14.57-12.86-6.89,1.94c-.29.08-.57.08-.84-.02-.27-.1-.52-.25-.75-.45-.21-.18-.4-.41-.56-.68-.17-.27-.28-.55-.35-.84-.07-.29-.09-.57-.05-.84.03-.27.14-.5.33-.71.15-.17.38-.31.69-.41l25.13-6.81c.45-.13.92-.12,1.39.01.47.14.97.43,1.49.9Zm-15.28,6.7l10.82,9.55,1.64-13.05-12.46,3.5Z"/><path class="cls-4" d="m473.21,139.81c-1.07.22-2-.22-2.79-1.31-.39-.55-.63-1.1-.7-1.64-.08-.55.04-1.09.34-1.62l11.88-20.45c.15-.28.32-.49.53-.64.42-.3.88-.34,1.4-.12.51.22.99.63,1.42,1.24.31.43.49.83.53,1.19.04.36-.03.7-.22,1.04l-10.84,17.82,19.98-3.86c.74-.13,1.32-.11,1.73.05.42.16.83.53,1.23,1.09.43.61.64,1.11.63,1.51-.02.4-.21.92-.58,1.56l-10.11,17.64,20.48-4.35c.74-.16,1.41.17,2.01,1.01.43.61.67,1.19.71,1.75.04.56-.15.99-.56,1.29-.21.15-.47.25-.78.3l-23.31,4.48c-1.16.23-2.15-.24-2.97-1.39-.37-.51-.59-1.03-.68-1.55-.09-.52,0-1.05.3-1.57l9.81-17.16-19.43,3.72Z"/><path class="cls-4" d="m517.98,165.91c.31.6.47,1.14.48,1.62,0,.48-.1.93-.32,1.36l-12.42,23.46c-.15.26-.36.46-.6.58-.23.12-.48.16-.76.13s-.54-.12-.8-.26c-.26-.14-.5-.33-.72-.56-.22-.23-.4-.48-.54-.75-.15-.29-.23-.57-.26-.85-.02-.28.04-.56.18-.84l3.48-6.41-8.84-17.3-7.12-.72c-.3-.03-.56-.14-.78-.33-.21-.19-.39-.42-.53-.69-.13-.25-.22-.53-.27-.84-.05-.31-.06-.62-.02-.92.04-.3.13-.56.26-.8.13-.24.32-.42.57-.54.21-.11.47-.15.8-.13l25.88,2.86c.47.05.9.22,1.29.52.39.3.74.76,1.06,1.38Zm-16.67.63l6.57,12.85,6.3-11.54-12.87-1.31Z"/><path class="cls-4" d="m520.97,222.58c-1.41.48-2.66.59-3.74.33-1.08-.26-2.03-.76-2.83-1.49-.8-.74-1.5-1.66-2.09-2.78-.59-1.12-1.09-2.28-1.5-3.5l-6.34-18.7c-.34-1.01,0-1.7,1.04-2.05l20.92-7.09c1.01-.34,1.69,0,2.04,1.01l6.25,18.43c.49,1.43.83,2.78,1.04,4.04.2,1.26.19,2.41-.03,3.44-.23,1.04-.7,1.94-1.42,2.71-.72.77-1.78,1.4-3.17,1.87-1.17.4-2.26.53-3.26.39-1.01-.14-2-.7-2.97-1.67-.03,1.14-.32,2.15-.88,3.01s-1.57,1.55-3.05,2.05Zm-1.66-4.46c.64-.22,1.16-.47,1.55-.75s.67-.67.82-1.17c.15-.49.17-1.12.04-1.88-.12-.76-.38-1.71-.77-2.86l-5.3-15.62-6.65,2.26,5.46,16.08c.37,1.08.72,1.93,1.07,2.55.35.62.71,1.06,1.08,1.33s.78.39,1.21.37c.43-.03.93-.13,1.48-.32Zm0-23.4l5.34,15.75c.34.99.66,1.81.97,2.44.31.63.65,1.11,1.02,1.44.37.33.8.5,1.29.52.49.02,1.08-.09,1.79-.33.57-.19,1.05-.43,1.42-.7s.63-.64.77-1.09c.14-.45.16-1.03.06-1.74-.1-.7-.33-1.57-.68-2.61l-5.4-15.92-6.59,2.23Z"/><path class="cls-4" d="m542.24,236.49c.12.66.12,1.23,0,1.69-.13.46-.36.87-.7,1.21l-18.55,18.99c-.22.21-.47.34-.74.39-.25.05-.51.02-.76-.09s-.49-.26-.69-.47c-.21-.21-.38-.46-.53-.74-.15-.28-.25-.57-.3-.87-.06-.32-.06-.62,0-.89s.19-.52.41-.75l5.15-5.16-3.58-19.1-6.62-2.7c-.28-.11-.5-.29-.65-.54s-.26-.52-.31-.81c-.05-.28-.06-.57-.02-.88.04-.31.12-.61.24-.88.13-.27.28-.5.47-.69.19-.19.42-.31.7-.36.23-.04.5,0,.8.1l24.01,10.07c.44.18.8.47,1.09.86.29.39.5.94.62,1.62Zm-16.17-4.11l2.66,14.19,9.31-9.29-11.98-4.9Z"/><path class="cls-4" d="m544.28,259.42c1.07-.04,1.63.48,1.67,1.58l.76,19.62c.06,1.58-.02,3.01-.24,4.29-.22,1.28-.55,2.37-1.01,3.28-.45.9-1.02,1.61-1.7,2.11-.68.5-1.45.77-2.31.81l-4.4.17c-.86.03-1.65-.17-2.37-.62-.72-.45-1.34-1.11-1.86-1.97s-.94-1.93-1.26-3.19c-.32-1.26-.51-2.68-.57-4.26l-.05-1.4c-.04-1.02-.07-1.92-.1-2.67-.03-.76-.05-1.43-.06-2.01-.01-.58-.01-1.11,0-1.57,0-.47.01-.92.02-1.37h-.07c-.13.38-.26.79-.39,1.22-.13.44-.31.97-.51,1.61-.21.64-.47,1.41-.78,2.32-.31.91-.71,2.04-1.2,3.39l-3.06,8.55c-.27.76-.78,1.15-1.53,1.18-.63.02-1.07-.16-1.32-.56s-.39-.98-.42-1.75c0-.16,0-.37,0-.61,0-.25.02-.5.04-.75.02-.26.06-.51.11-.76.05-.25.13-.47.24-.66l8.04-20.77-7.68.3c-.68.03-1.12-.15-1.35-.54-.23-.39-.35-.97-.38-1.73-.03-.75.05-1.32.25-1.72.19-.4.63-.62,1.3-.65l22.21-.86Zm-1.98,4.73l-8.24.32.63,16.2c.05,1.19.14,2.17.29,2.95.15.77.33,1.39.54,1.85.21.46.46.77.74.95.27.18.57.26.9.25l3.77-.15c.3-.01.59-.12.86-.31.27-.2.5-.53.68-1.01.18-.47.31-1.1.4-1.89s.11-1.77.06-2.96l-.63-16.2Z"/><path class="cls-4" d="m545.34,312.63c-.07.67-.24,1.21-.49,1.62-.25.41-.59.73-1.02.96l-23.24,12.83c-.27.13-.55.19-.83.16-.26-.03-.49-.13-.71-.3-.22-.18-.39-.39-.53-.65s-.23-.55-.29-.86c-.06-.31-.07-.62-.04-.92.04-.33.12-.61.25-.85.13-.25.33-.45.61-.6l6.42-3.46,2.07-19.32-5.56-4.5c-.24-.19-.39-.42-.47-.7-.08-.28-.1-.57-.06-.87.03-.28.11-.56.23-.85.12-.29.29-.55.49-.77.2-.22.42-.4.65-.53.24-.13.49-.18.77-.15.23.03.48.13.74.33l20.08,16.57c.37.3.63.68.79,1.14.16.46.21,1.04.13,1.74Zm-14.3-8.6l-1.54,14.35,11.6-6.21-10.06-8.14Z"/></g><g><g><polygon class="cls-2" points="214.28 78.56 170.09 92.13 170.09 144.46 214.28 158.41 214.28 78.56"/><polygon class="cls-2" points="352.85 78.56 397.04 92.13 397.04 144.46 352.85 158.41 352.85 78.56"/><polygon class="cls-2" points="220.71 78.56 220.71 158.41 259.75 135.54 306.52 135.54 345.13 156.86 345.13 78.56 305.66 99.88 259.75 99.88 220.71 78.56"/><polygon class="cls-2" points="264.9 138.25 258.9 141.74 258.9 152.6 264.9 155.31 300.94 155.31 306.52 152.21 306.52 140.97 300.51 138.25 264.9 138.25"/><polyline class="cls-2" points="267.48 99.88 267.48 92.9 271.48 88.9 294.38 88.87 298.2 92.44 298.2 99.88"/></g><path class="cls-2" d="m276.34,510.42c-.38-9.29-.81-24.06-1.18-33.22,4.94,1.29,9.46,1.86,13.89,3.89-.31,7.41-.41,21.52-.73,29.33h-11.97Z"/><path class="cls-2" d="m287.47,538.09c-.07,3.06-2.24,5.18-5.26,5.18-2.99,0-5.19-2.14-5.24-5.19-.12-7.38-.2-7.67-.3-15.05,0-.71,0-1.43,0-2.36,3.8.94,7.28,1.81,10.85,2.7l-.06,14.73Z"/><path class="cls-2" d="m289.47,457.06c-5.15-2.1-10.16-3.65-15.65-4.82v-17.77c5.35.83,10.84,1.67,16.56,2.56-.3,5.52-.6,14.3-.92,20.03Z"/><g><path class="cls-2" d="m267.04,259.54c-.65-21.78-1.36-43.55-2.04-65.32-.14-4.33-.3-8.66-.38-12.99-.05-3.08,1.71-4.76,5.12-4.94,1.29-.07,2.41-.32,2.38-1.66-.03-1.31-1.17-1.65-2.44-1.66-.95,0-1.89,0-2.84,0-2.75-.03-4.24-1.32-4.29-3.84-.06-2.62-.06-5.25,0-7.88.05-2.31,1.34-3.52,3.9-3.53,10.81-.04,21.62-.04,32.44,0,2.66,0,3.93,1.24,3.97,3.67.04,2.56.06,5.13,0,7.69-.06,2.58-1.6,3.88-4.47,3.9-1.08,0-2.17-.06-3.24.03-1.11.09-1.97.6-1.89,1.75.07,1.02.84,1.4,1.92,1.51,4.47.45,5.73,1.74,5.6,5.81-1.03,32.21-2.07,64.41-3.11,96.62l-30.64-19.15Z"/><path class="cls-2" d="m268.77,278.96c9.4,2.43,18.52,4.78,27.87,7.19-.55,12.55-1.16,31.24-1.72,44.03l-24.77-6.07c-.51-12.5-.86-32.46-1.37-45.16Z"/><path class="cls-2" d="m270.41,358.77c7.37,1.82,15.85,3.81,23.38,5.66-.46,11.02-1.77,30.98-2.24,42.27,0,0-12.8-2.54-19.4-4.4-.52-11.46-1.21-31.83-1.74-43.54Z"/></g><path class="cls-2" d="m170.88,202.61c-4.66,7.34-1.27,17.49,7.35,22.55,5.95,3.49,12.82,5.44,19.63,7.43,19.79,5.76,50.06,11.1,70.34,15.52,24.23,5.28,48.48,10.52,72.47,16.45,11.58,2.86,22.22,7.84,30.56,15.23,19.61,17.36,15.05,43.95-9.58,56.85-5.67,2.97-11.77,5.13-18.33,6.44-1.02.2-1.96.29-3,0-11.46-3.1-22.93-6.17-34.39-9.25-.25-.07-4.31-1.3-4.79-1.57.2-2.86.4-5.82.61-8.89,9.86-2.02,23.33-2.99,32.98-4.89,5.7-1.13,10.49-3.47,14.4-6.92,5.36-4.74,4.86-10.47-1.21-14.65-5.68-3.91-12.5-6.18-19.26-8.5-17.6-6.02-36.11-9.8-54.38-14.14-27.91-6.63-66.06-13.51-93.38-21.69-11.9-3.57-22.82-8.47-30.99-16.63-8.83-8.82-11.62-18.92-9.83-30.05,1.35-8.37,3.68-16.42,10.07-23.35,9.9-10.75,28.28-15.27,43.97-10.84,2.22.63,4.23,1.54,6.18,2.57,10.9,5.76,21.8,11.51,32.7,17.26,5.09,2.68,5.5,4.94,1.91,8.9-3.71,4.08-8.67,5.77-14.78,5.36-6.73-.45-13.3.06-19.9,1.29-10.43,1.95-20.32.68-29.35-4.49Zm37.11-11.89c-4.51-7.43-12.64-9.22-19.97-4.49,3.39,7.1,11.92,9.07,19.97,4.49Z"/><path class="cls-2" d="m339.77,420.36c-12.37-4.57-24.67-8.61-37.21-12.01-.9-1.59.37-1.91,1.69-2.23,3.29-.8,6.58-1.61,9.86-2.45,5.03-1.29,9.52-3.43,13.55-6.12,10.02-6.68,10.73-17.33,1.52-24.72-5.72-4.59-12.3-8.22-20.18-10.11-28.77-6.92-57.64-13.53-86.62-19.83-9.32-2.02-17.61-5.58-24.73-10.89-13.59-10.14-16.91-22.48-12.17-36.6,3.77-11.22,12.3-19.19,24.69-24.99,6.05-2.83,11.38-3.85,18.2-1.83,8.96,2.66,20.55,5.23,29.74,7.36.61.14,3.21.79,3.92.99.44,2.18.56,4.79.54,7.08-6.44,1.96-17.23,2.1-23.61,4.12-5.8,1.84-11.49,3.9-16.72,6.68-1.39.74-2.76,1.55-3.98,2.46-4.54,3.39-5.49,7.59-2.94,12.06,2.31,4.03,6.03,6.69,11.18,8.27,15.92,4.88,32.19,8.87,48.47,12.83,20.21,4.91,40.38,9.92,59.64,16.99,3.13,1.15,6.16,2.47,9.2,3.78,16.16,6.96,24.79,22.46,22.46,37.68-2.16,14.12-11.7,24.17-26.52,31.49Z"/><path class="cls-2" d="m261.39,357.45c.38,1.46.48,2.71.2,4.15-4.87,1.48-10.02,2.54-14.44,5.03-5.3,2.97-10.54,5.93-13.73,10.66-4.78,7.09-2.43,14.93,5.97,19.24,10.97,5.63,23.22,8.66,35.65,11.37,17.4,3.8,34.8,7.64,51.93,12.19,13.05,3.47,20.61,12.13,21.36,23.2.5,7.34-3.9,12.46-10.17,16.93-7.04,5.02-15.61,7.4-24.69,9.02-4.68-3.25-9.53-6.27-14.89-8.71-.33-1.47-.24-2.88-.04-4.44,4.19-1.15,8.4-2.29,12.61-3.47,4.51-1.26,8.83-2.81,12.22-5.66,4.2-3.51,3.77-6.15-1.43-8.67-4.25-2.06-9.07-2.57-13.79-3.39-26.75-4.62-53.16-10.21-78.95-17.63-3.07-.88-5.94-2.14-8.76-3.45-16.89-7.81-21.89-20.18-19.96-34.91,1.58-12.04,9.64-21.23,20.83-28.86,1.01-.69,2.11-1,3.35-.73,12.27,2.7,24.53,5.43,36.73,8.13Z"/><path class="cls-2" d="m308.84,251.88c.11-2,.21-3.86.33-5.98,3.37-.76,6.74-1.52,10.11-2.29,16.18-3.7,45.61-7.5,61.21-12.63,5.61-1.85,11.08-3.91,15.19-7.72,5.57-5.15,7.19-13.71,3.47-19.63-2.86,1.49-5.75,2.95-9.01,3.78-6.8,1.75-13.71,2.1-20.61.65-6.38-1.34-12.82-1.76-19.34-1.28-7.27.53-12.61-1.82-16.3-6.81-1.95-2.63-1.45-4.96,1.7-6.64,11.95-6.37,23.79-12.88,35.98-18.94,13.4-6.67,34.49-3.34,45.92,6.83,7.02,6.25,10.2,13.87,11.8,22.01,1.56,7.94-.26,15.82-4.07,23.53-4.98,10.07-11.81,17.02-23.3,22.09-12.32,5.44-39.14,8.32-52.34,11.89-1.02.28-1.99.23-3,0-12.15-2.8-24.31-5.59-36.46-8.38-.35-.08-.66-.25-1.27-.49Zm53.16-60.18c7.32,4.38,16.51,3.18,19.89-4.65-8.25-4.33-15.24-2.73-19.89,4.65Z"/><path class="cls-2" d="m291.49,510.14c6.99-2.87,12-6.66,15.07-11.99,3.31-5.77,1.77-11.25-4.07-15.52-2.17-1.59-4.67-2.7-7.28-3.71-9.9-3.81-20.44-5.91-31.13-7.65-6.47-1.05-12.91-2.21-19.21-3.84-8.14-2.11-15.28-5.48-20.8-10.85-10.05-9.77-8.98-23.27,2.5-31.93.4-.3.89-.54,1.55-.93,11.96,4.79,24.27,9,38.34,9.99-1.48,1.38-2.68,1.1-3.74,1.16-5.68.31-11.31.75-16.55,2.79-6.85,2.66-7.46,6.06-1.82,10.12,3.34,2.4,7.33,3.81,11.51,4.92,13.08,3.47,26.13,6.99,38.43,12.05,7.05,2.9,13.97,6.01,19.92,10.3,11.82,8.52,12.56,20.34,1.97,29.91-4.31,3.89-9.61,6.58-15.53,8.55-1.28.42-2.57.82-4.63,1.47,4.36.97,8.05,1.76,11.83,2.06,2.4.19,3.59,1.01,3.31,3.12-1.44.91-3.17.55-4.77.47-14.41-.76-28.3-3.58-41.74-7.66-7.73-2.35-13.91-6.58-18.07-12.52-5.75-8.23-4.57-16.52,3.38-23.44,1.27-1.1,2.47-2.25,3.48-3.17,5.1.05,9.47.68,13.92,1.26.72,1.65.7,3.29.74,5.03-1.26.81-2.61,1.6-3.85,2.49-5.8,4.12-7.39,9.61-4.25,15.3,3,5.42,8.04,9.27,15.19,12.22"/><path class="cls-2" d="m271.55,519.27c-5.33.7-10.54,1.9-15.98,1.16-.32-2.12.6-2.91,3.01-3.43,4.9-1.04,8.79.99,12.97,2.27Z"/></g></g></svg>