<svg id="Capa_1" data-name="Capa 1" xmlns="http://www.w3.org/2000/svg" viewBox="0 0 566.93 566.93"><defs><style>.cls-1,.cls-2{fill:#b2ac86;}.cls-2{font-size:45px;font-family:Impact;}.cls-3{fill:#fefefe;}</style></defs><circle class="cls-1" cx="283.46" cy="283.46" r="279.21"/><circle cx="283.46" cy="283.46" r="268.58"/><text class="cls-2" transform="matrix(0.86, -0.52, 0.52, 0.86, 162.63, 100.59)">F</text><text class="cls-2" transform="translate(177.21 91.55) rotate(-25.76)">U</text><text class="cls-2" transform="matrix(0.94, -0.35, 0.35, 0.94, 198.8, 81.29)">L</text><text class="cls-2" transform="translate(214.25 75.5) rotate(-16.12)">L</text><text class="cls-2" transform="matrix(0.97, -0.22, 0.22, 0.97, 230.32, 70.97)"> </text><text class="cls-2" transform="translate(237.45 69.05) rotate(-9.03)">S</text><text class="cls-2" transform="translate(259.67 65.48) rotate(-3.24)">A</text><text class="cls-2" transform="translate(281.68 64.16) rotate(2.69)">N</text><text class="cls-2" transform="translate(305.17 65.2) rotate(8.87)">C</text><text class="cls-2" transform="translate(329.01 68.99) rotate(14.63)">T</text><text class="cls-2" transform="matrix(0.95, 0.32, -0.32, 0.95, 348.48, 74.2)">I</text><text class="cls-2" transform="translate(360.23 77.94) rotate(23.67)">O</text><text class="cls-2" transform="translate(381.98 87.43) rotate(29.89)">N</text><text class="cls-2" transform="matrix(0.51, 0.86, -0.86, 0.51, 58.7, 400.98)">M</text><text class="cls-2" transform="matrix(0.6, 0.8, -0.8, 0.6, 76.91, 430.91)">O</text><text class="cls-2" transform="translate(92.86 451.78) rotate(47.1)">T</text><text class="cls-2" transform="translate(108.34 468.44) rotate(41.46)">O</text><text class="cls-2" transform="translate(128.5 486.08) rotate(35.35)">R</text><text class="cls-2" transform="translate(149.79 500.81) rotate(30.68)">I</text><text class="cls-2" transform="matrix(0.89, 0.45, -0.45, 0.89, 162.11, 508.16)">Z</text><text class="cls-2" transform="translate(179.5 516.9) rotate(22.28)">E</text><text class="cls-2" transform="matrix(0.96, 0.29, -0.29, 0.96, 198.59, 524.78)">D</text><text class="cls-2" transform="translate(223.85 532.07) rotate(12.81)"> </text><text class="cls-2" transform="translate(232.94 534.4) rotate(8.76)">B</text><text class="cls-2" transform="translate(259.69 538.39) rotate(2.65)">O</text><text class="cls-2" transform="translate(286.43 539.52) rotate(-3.44)">U</text><text class="cls-2" transform="matrix(0.99, -0.17, 0.17, 0.99, 313.16, 537.79)">N</text><text class="cls-2" transform="translate(339.14 533.24) rotate(-15.16)">T</text><text class="cls-2" transform="translate(362.13 526.87) rotate(-20.71)">Y</text><text class="cls-2" transform="matrix(0.91, -0.41, 0.41, 0.91, 383.14, 518.66)"> </text><text class="cls-2" transform="matrix(0.88, -0.48, 0.48, 0.88, 391.84, 514.99)">H</text><text class="cls-2" transform="translate(415.65 501.93) rotate(-34.62)">U</text><text class="cls-2" transform="translate(437.59 486.64) rotate(-40.6)">N</text><text class="cls-2" transform="translate(457.48 469.35) rotate(-46.18)">T</text><text class="cls-2" transform="translate(472.98 453.02) rotate(-51.11)">E</text><text class="cls-2" transform="translate(485.96 436.99) rotate(-56.49)">R</text><text class="cls-2" transform="matrix(0.51, 0.86, -0.86, 0.51, 58.7, -186.59)">M</text><text class="cls-2" transform="matrix(0.6, 0.8, -0.8, 0.6, 76.91, -156.66)">O</text><text class="cls-2" transform="translate(92.86 -135.8) rotate(47.1)">T</text><text class="cls-2" transform="translate(108.34 -119.14) rotate(41.46)">O</text><text class="cls-2" transform="translate(128.5 -101.49) rotate(35.35)">R</text><text class="cls-2" transform="translate(149.79 -86.76) rotate(30.68)">I</text><text class="cls-2" transform="matrix(0.89, 0.45, -0.45, 0.89, 162.11, -79.41)">Z</text><text class="cls-2" transform="translate(179.5 -70.67) rotate(22.28)">E</text><text class="cls-2" transform="matrix(0.96, 0.29, -0.29, 0.96, 198.59, -62.79)">D</text><text class="cls-2" transform="translate(223.85 -55.5) rotate(12.81)"> </text><text class="cls-2" transform="translate(232.94 -53.18) rotate(8.76)">B</text><text class="cls-2" transform="translate(259.69 -49.18) rotate(2.65)">O</text><text class="cls-2" transform="translate(286.43 -48.05) rotate(-3.44)">U</text><text class="cls-2" transform="matrix(0.99, -0.17, 0.17, 0.99, 313.16, -49.78)">N</text><text class="cls-2" transform="translate(339.14 -54.33) rotate(-15.16)">T</text><text class="cls-2" transform="translate(362.13 -60.7) rotate(-20.71)">Y</text><text class="cls-2" transform="matrix(0.91, -0.41, 0.41, 0.91, 383.14, -68.91)"> </text><text class="cls-2" transform="matrix(0.88, -0.48, 0.48, 0.88, 391.84, -72.58)">H</text><text class="cls-2" transform="translate(415.65 -85.64) rotate(-34.62)">U</text><text class="cls-2" transform="translate(437.59 -100.93) rotate(-40.6)">N</text><text class="cls-2" transform="translate(457.48 -118.22) rotate(-46.18)">T</text><text class="cls-2" transform="translate(472.98 -134.55) rotate(-51.11)">E</text><text class="cls-2" transform="translate(485.96 -150.58) rotate(-56.49)">R</text><path class="cls-3" d="M418.62,423c-3.56,1.54-6.93,3-10.27,4.45a2.31,2.31,0,0,1-2.94-.45c-3.67-3.62-7.54-7-11-10.81-3.08-3.32-2.89-5.3.2-8.56,9.69-10.24,19.65-20.25,27.24-32.28,5.17-8.19,10.14-16.53,13.47-25.64,4.69-12.79,2.6-24.58-6.32-35-.32-.37-.92-.66-1-1.06-1.56-7.81-8.32-7.66-13.83-8.31-6.56-.77-13.18.42-19.55,2.47l-.36.1c-2.1.61-3.44,4.41-5.8,2.55a12.75,12.75,0,0,1-4.95-9.52,129.33,129.33,0,0,1,1-19.47,108.93,108.93,0,0,1,2.26-12.93c.33-1.4.95-1.23,1.76-.81a8.24,8.24,0,0,1,1.73,1.35c2.87,2.63,5.95,3,9.82,2.13,11.16-2.52,20.2-8.67,28.43-16.09,10-9,12.83-21.06,7.69-33.5-15.65-37.87-41.6-66.33-78.42-84.65-4-2-8.13-4-12.32-5.7-16-6.52-32.95,1.21-38.66,17.48a156.19,156.19,0,0,0-6.36,24.53,10.52,10.52,0,0,0,7.29,11.56,115.71,115.71,0,0,1,43.4,21.85,49.15,49.15,0,0,1,6.74,6.79c12.28,14.66,21.19,30.9,23.25,50.27.85,8-.85,15.9-1,23.86-.11,5.87-.6,11.78-.09,17.6.27,3,2.33,5.94,3.92,8.48,2.75,4.39,2,8.31.66,12.6a135,135,0,0,0-5.14,24,13.7,13.7,0,0,0,1.55,8.23c3.22,5.81,3.17,12.07,2.41,18.3-.94,7.68-5.34,11.74-13,12.75-6.31.83-12.47-.48-18.65-1.47-4.36-.69-8.7-1.62-13.09-1.95-6.51-.48-11,2.61-13.44,8.61.83.92,1.86.28,2.76.25,2.88-.11,5.15.47,5.57,3.88.39,3.16-1.09,5.22-4.68,5.84a9,9,0,0,0-5.14,2.57c-1.2,1.21-2.49,2.63-4.45,1.77a4.48,4.48,0,0,1-2.71-4.82c.68-5.86,1.5-11.73,5.88-16.28.51-.52,1-1.06,1.6-1.7-5.69.52-9,4.06-9.51,10.08-.33,3.58.43,7.1.58,10.65.21,5-.94,6.25-5.81,6.22-2.62,0-4.84.11-6.9,2.31s-5.13,2.14-8,2.21c-3.48.1-6.87.39-9.8,2.58a3.08,3.08,0,0,1-3.45.21,65.79,65.79,0,0,0-22.82-6.32c-6.2-.66-7.73-2.09-7.77-8.26,0-4.17.19-8.36-.12-12.51-.38-5-2.93-7.25-8.73-7.92,4.92,5.47,6.22,11.83,6.9,18.43.2,1.94.3,3.73-1.77,4.73s-3.59.06-4.91-1.38a7.88,7.88,0,0,0-5.35-2.85c-3-.26-4.67-2-4.35-5.18s2.16-4.19,5-4.06c1,0,1.91,0,3.31,0-2.25-5.79-6.46-8.2-11.81-9-4.81-.71-9.53.08-14.24,1.09-4.31.93-8.64,1.86-13,2.47-12.37,1.72-16.32-3.21-20-15-1.78-5.8-.54-11.71,3.21-16.81a10.58,10.58,0,0,0,1.86-8.71c-1-5.3-2.2-10.58-3.18-15.88-.81-4.39-1.53-8.87-1.92-13.34s1.93-8.28,4.45-11.81a6.9,6.9,0,0,0,1.58-4.34c-.07-9.32-.43-18.64-.85-28-1.46-32.58,12.34-57.81,37.95-76.94,10.05-7.51,21.82-11.64,34-14.4,6.46-1.45,9.23-5.73,8.18-12.3a116.54,116.54,0,0,0-4.64-18.91c-3.94-11.69-10.94-20.85-23.67-24-6.71-1.64-13.15,0-19.31,2.73q-62.43,27.22-88.92,90c-5.92,14-2.16,26.58,9.95,35.77a79.4,79.4,0,0,0,27.43,13.36,9.27,9.27,0,0,0,9.46-2.16c2-1.79,2.74-2.95,3.71,1.19,2.21,9.4,2.71,18.86,3.09,28.41.16,4.15-1.63,7.32-3.59,10.56-1,1.75-2.67,2.4-4.25.85-4-3.86-9.23-3.85-14.06-4.53a33.62,33.62,0,0,0-14.93.81c-2.9.92-5.56,1.85-7.08,4.74a8.48,8.48,0,0,1-1.69,1.92c-10.48,10.41-13,22-7.34,35.61a161.26,161.26,0,0,0,31.86,49.07c2.86,3,5.91,5.91,8.5,9.16,3.79,4.76,3.41,8.67-.69,13.13-3.74,4.08-9.29,6-12.63,10.55-.77,1.05-1.49.26-2.14-.3l-7.85-6.75a25.66,25.66,0,0,0,5.25-7.32,9.1,9.1,0,0,0-1.5-10.28c-2.56-2.94-5.85-3.42-9.4-2.5a30,30,0,0,0-8.91,4.29c-3,2-5.28,1-7.28-1.53s-.77-4.55,1.13-6.41c2.09-2.07,4.37-4,6.06-6.4a9,9,0,0,0,0-10.95c-2.41-3.57-5.59-4.8-9.84-3.94a46.38,46.38,0,0,0-8.29,2.93c-3.19,1.32-5.36.23-7-2.76s-.11-4.56,2.12-6.08a37,37,0,0,0,7.2-5.7c2.65-3,3.59-6.34,1.9-10.18s-4.63-5.57-8.64-5.79a25.46,25.46,0,0,0-8.3,1.35c-4,1.12-5.89.28-7-3-1.2-3.44-.35-5.13,3.52-6.76a33.11,33.11,0,0,0,7.84-4.74,8.26,8.26,0,0,0,2.94-9.22,8.48,8.48,0,0,0-6.71-6.56,26.65,26.65,0,0,0-9.87-.32c-3.24.48-5.2-.77-5.74-4.1-.58-3.57.39-5.14,4.08-6.06a35.94,35.94,0,0,0,8.25-3c3.7-2,5.51-5,5-9.38a9,9,0,0,0-6.62-8,33.14,33.14,0,0,0-8.67-1.46c-3.09-.15-4.82-1.66-5-4.73s1.21-4.8,4.39-5.16a77.45,77.45,0,0,0,8-1.4c4.58-1,7.35-3.78,7.87-7.65.68-5-1-8.05-5.67-10.4a27.76,27.76,0,0,0-7.62-2.58c-3.24-.57-4.54-2.62-4-5.87s2.38-4.71,5.7-4.09a24.23,24.23,0,0,0,8.78-.19c4-.71,6.72-2.88,7.85-6.81s-.18-7.22-3.38-9.76a33.92,33.92,0,0,0-7.88-4.65c-3.46-1.47-4.18-3.34-3-6.69s3.48-3.89,6.44-2.8a24.58,24.58,0,0,0,9,1.26c3.8,0,6.62-1.65,8.25-5.11a8.73,8.73,0,0,0-1.29-10,21.83,21.83,0,0,0-7.32-6c-3-1.42-3.79-3.59-2.27-6.61,1.7-3.37,3.42-4.16,6.81-2.6a33.84,33.84,0,0,0,9.12,2.72c3.83.58,7-.55,9.18-4a8.76,8.76,0,0,0,0-10,34.46,34.46,0,0,0-6.36-7.11c-2.48-2.2-2.55-4.52-.51-7.08s4.16-2.69,6.73-.94a26.77,26.77,0,0,0,9.92,4.62,9.21,9.21,0,0,0,10.41-11.63c-1.09-3.45-3.27-6.29-5.43-9.12-2-2.55-2-4.84.56-7s4.85-1.79,7.12.42a29.77,29.77,0,0,0,7,5.28c3.76,1.93,7.33,1.7,10.63-1s4.26-6.1,2.7-10.59c-.88-2.54-2.08-5-3.16-7.42-1.5-3.4-.93-5.34,2.1-7.12,2.85-1.68,4.83-.57,6.52,1.88A28.06,28.06,0,0,0,188,126c3.21,2.45,6.63,3,10.29,1a8.87,8.87,0,0,0,4.85-9.14,33.42,33.42,0,0,0-2-8.55c-1.12-3.17-.45-5.47,2.78-6.91s5.06-.17,6.42,2.75a31,31,0,0,0,5.2,7.55,9.26,9.26,0,0,0,16-5.62,36.29,36.29,0,0,0-.44-9.53c-.56-2.81.43-4.75,3.38-5.57s5,0,6.11,3a46.35,46.35,0,0,0,4,8.66c2.2,3.46,5.28,5,9.36,4.35,4.39-.74,7-3.22,7.76-7.69a60.12,60.12,0,0,0,.72-8.79c.06-3.16,1.64-4.8,4.62-5.12s4.85,1.1,5.47,4.14a70.54,70.54,0,0,0,2,8.2c1.51,4.49,4.36,6.52,8.69,6.6,4.59.09,7.51-1.86,9.29-6.34a35.46,35.46,0,0,0,1.89-7.84c.46-3,2-5.11,5.37-4.81s5,2.3,4.93,5.68a37.13,37.13,0,0,0,.75,8.42c.94,4.46,3.5,7,7.85,7.62,4.08.59,7.16-1.07,9.29-4.56a39.54,39.54,0,0,0,3.68-8c1-2.92,2.78-4.5,6.15-3.55,3.11.87,3.89,2.77,3.45,5.83a38.58,38.58,0,0,0-.29,9.9,8.08,8.08,0,0,0,5.4,7.22c3.46,1.33,6.74,1.26,9.63-1.34a28.36,28.36,0,0,0,6.43-8.87c1.26-2.63,3.06-3.63,5.95-2.4s4.32,3,3.28,6.3a74,74,0,0,0-2.27,8.5c-.82,4.24.77,7.49,4.39,9.69a8.73,8.73,0,0,0,10.61-.58,33.74,33.74,0,0,0,6.61-6.89c1.75-2.37,3.79-2.92,6.35-1.36s3.43,3.63,2,6.51a70.91,70.91,0,0,0-3.51,8.06A8.83,8.83,0,0,0,393.45,143c3.31,2.68,6.92,2.9,10.95.64a38.27,38.27,0,0,0,6.69-5.14c2.36-2.15,4.71-2.31,7.16-.06s2,4.43.23,6.8a35,35,0,0,0-4.9,8.17c-1.33,3.43-1.22,6.73,1.4,9.61a8.8,8.8,0,0,0,9.28,2.86,26.85,26.85,0,0,0,8.91-4.21c2.61-1.82,4.92-1.88,7.1.69s1.67,4.88-.6,7.08a39.52,39.52,0,0,0-6.31,7.17,8.73,8.73,0,0,0,.18,10.3c2.35,3.17,5.46,4.48,9.34,3.46,3.31-.87,6.63-1.76,9.86-2.89,2.85-1,4.45.25,5.66,2.55s1.2,4.43-1.22,6.1a84,84,0,0,0-6.83,5c-3.85,3.25-4.69,6.85-2.9,11.14,1.95,4.68,4.95,6.53,10.15,6,2.67-.29,5.29-1,7.94-1.48s4.82-.31,5.76,2.9c.88,3,.68,5.25-2.55,6.62a30.69,30.69,0,0,0-8.27,4.71c-2.86,2.46-4.58,5.32-3.54,9.36s3.8,6.41,7.87,7.25a24.85,24.85,0,0,0,8.77.29c3.13-.47,5.1.58,5.83,4s-.88,5-3.87,5.85a40.74,40.74,0,0,0-8.61,3.14c-3.3,1.79-5.21,4.45-5,8.28a9,9,0,0,0,6.19,8.69c3.26,1.23,6.74,1.28,10.09,2,2.85.6,4.32,2.06,4.19,5s-1.7,4.4-4.54,4.81a76.78,76.78,0,0,0-8.67,1.56c-4.65,1.26-7,4.21-7.4,8.54-.31,3.84,1.87,7.16,6.2,9a56.26,56.26,0,0,0,7.92,2.85c3.32.9,4.16,2.75,3.5,6s-2.06,4.32-5.33,3.95c-3.51-.39-7.08-.65-10.6.4a9,9,0,0,0-4,15.18,27.12,27.12,0,0,0,9,5.59c2.68,1.15,4.13,2.81,3.13,6s-3.17,4.05-6.24,3.42c-2.16-.45-4.32-.89-6.5-1.24-5.19-.83-9.47,1.25-11.34,5.45s-.8,8.35,3.27,11.77c2.15,1.82,4.48,3.43,6.74,5.12s2.28,3.57.92,5.78-2.93,3.71-5.7,2.64a52,52,0,0,0-10.11-3.22c-4-.68-6.93.77-9.12,4a8.58,8.58,0,0,0-.23,10,43.36,43.36,0,0,0,6.78,7.73c2.19,2.15,2.13,4.15.28,6.45s-3.82,2.84-6.39,1.29a41.8,41.8,0,0,0-8.13-4.22c-4.65-1.59-8.2-.88-10.75,2.17-2.76,3.3-3,7.53-.52,11.62C415.58,419.31,417,420.86,418.62,423ZM294.09,302.85c-4.1,8.48,4.36,18.14,12.68,17.58,5.26-.35,5.7.73,5.51,6.18-.14,3.91-1.78,8.3,1,11.79,10.1,12.7,23.12,19.29,39.57,17.2,17.12-2.17,26.07-17.37,20.25-33.66-.47-1.33-2-2.6-1.11-4.07s2.84-.45,4.23-.7a3.37,3.37,0,0,0-1.51-2.71,23.47,23.47,0,0,0-16.42-6.34c-9.12.07-18.09,1.55-27,3.26a129,129,0,0,1-19.3,2.73C303.66,314.44,296.72,312.76,294.09,302.85Zm-19.74-.24c-2.5,9.59-4.43,11.12-14.07,11.46a53.94,53.94,0,0,1-11-.64c-8.46-1.43-16.9-3-25.37-4.39-6.82-1.08-13.66-1.55-20.43.48a26.51,26.51,0,0,0-10.83,6c-.53.5-1.14,1.1-.62,1.89s1,.05,1.56,0c2.52-.25,3.22,1.45,3.15,3.46a16.25,16.25,0,0,1-1,3.9c-4.08,13.7,3.53,27,17.56,30.07,12,2.67,23.07.2,33.2-6.85,6.27-4.37,10.49-9.52,8.7-17.75a4.21,4.21,0,0,1,0-1.46c.37-2.38-1.2-4.89.44-7.18,1.88-2.61,4.59-.74,6.86-1.26a5.69,5.69,0,0,1,.72-.12c6.05-.71,8.57-5.51,11.61-9.82C276.7,307.74,276.87,305.33,274.35,302.61Zm-11.13,60s0,.89,0,1.75c.15,2.76.51,5.44,3.45,6.78a8,8,0,0,0,8.64-1.14,46,46,0,0,0,3.69-3.57c2.91-2.79,4.65-2.74,7.45.16a30.32,30.32,0,0,0,3.14,3.07c2.66,2,5.57,3.2,8.87,1.54s4.93-4.59,4.84-8.39a14.42,14.42,0,0,0-1.36-6.05c-4.67-9.72-9.58-19.31-12.87-29.64a6.3,6.3,0,0,0-7.9-4.31c-2.4.85-3.44,3-4.45,5.12-3.88,8.19-6.67,16.88-11.22,24.76A16.57,16.57,0,0,0,263.22,362.63ZM282.5,278.4c3.36.13,6.19,1.71,9,3.64,1.75,1.21,3.18,4.69,5.61,2.8s-.1-4.51-.95-6.68c-2.81-7.16-1.21-12.06,5.35-15.92.95-.56,1.93-1.08,2.84-1.7,1.17-.79,2.18-1.8,1.57-3.35s-2.09-1.18-3.46-1c-9.69,1.43-14.49-1.74-17.28-11.08-.51-1.71.07-4.77-2.51-4.68s-2.88,2.93-3.31,5.11c-.07.36-.19.71-.26,1.07-1.72,7.89-5.41,10.42-13.41,9.4-2.29-.29-5.39-1.66-6.37,1.61-.91,3,2.25,3.61,4.2,4.66,7.33,4,8.84,8.18,5.56,15.73a18.62,18.62,0,0,0-1.05,2.74c-.38,1.46-1.66,3.16.16,4.34s3.18-.42,4.36-1.62C275.25,280.68,278.31,278.56,282.5,278.4ZM128.71,301.6a17.14,17.14,0,0,0,17.67-17.24,17.52,17.52,0,0,0-17.59-17.48,17.72,17.72,0,0,0-17.58,17.21A17.42,17.42,0,0,0,128.71,301.6Zm325.51-17.5a17.48,17.48,0,0,0-35,.24c0,9.91,7.53,17.27,17.6,17.26A17,17,0,0,0,454.22,284.1Zm-171.35-136a18,18,0,0,0,17.82-17.36c.12-9.36-8.1-17.8-17.41-17.88-9.63-.08-17.48,8.11-17.81,17.84C265.21,138.18,274.51,149.21,282.87,148.09Zm70.45,142.85c-1.35,0-2.7-.06-4,0-1.95.1-3.91.18-5.84.47-1.74.25-3.21,1.49-3.11,3.1.09,1.41,2.06,1.47,3.32,1.63a19.06,19.06,0,0,0,4.4,0c8.25-.89,16.32-.39,24,3.05,1.06.47,2.32,1.54,3.39.56,1.3-1.21-.11-2.1-.8-3a2,2,0,0,1-.26-1.39c.95-5.89-1-11.41-2.18-17a214.17,214.17,0,0,0-6.49-24.42c-.4-1.19-.85-2.53-2.49-1.9-1.86.72-.63,2-.25,3,4,10,5.2,20.62,5.72,31.28.2,4-1.15,5.1-5.13,4.65A40.58,40.58,0,0,0,353.32,290.94Zm-132.13,5.28a13.83,13.83,0,0,0,2.3,0c1.35-.28,3.4-.14,3.49-1.78s-1.44-2.71-3.17-3.07a6.58,6.58,0,0,0-1.07-.23c-5.27-.2-10.64-1.12-15.79-.43-9.43,1.28-8.58-2-8.23-8.69a14.2,14.2,0,0,1,.18-1.46c1.18-8.37,1.85-16.84,5.12-24.77.51-1.24,1-3-.59-3.56-2-.65-1.76,1.59-2.1,2.61a177.17,177.17,0,0,0-5.85,22c-1.12,5.63-3.25,11.11-2.7,17,.13,1.35.68,2.55-.65,3.66a1.58,1.58,0,0,0-.25,2.31c.79.81,1.52.1,2.26-.36a24.47,24.47,0,0,1,9.69-3.14A63.07,63.07,0,0,1,221.19,296.22ZM287,394.1c3.31-3.79,2.5-9.41,8-11.76-2.29-1.21-3.75-2.11-5.31-2.76-1.37-.56-2.7-.65-2.68,1.53C287,385.44,287,389.77,287,394.1Zm-16.18-11.42c4.67,2.05,5.22,6.49,6.89,10.55,1.15-2.39,1.06-4.6,1.09-6.72,0-2.47,1.18-6-.9-7.08C276.16,378.58,273.28,380.84,270.77,382.68Z"/><path class="cls-3" d="M240.22,421.76c-2.91,1.33-2.17,4.24-3.81,5.71-5.53-3.15-6.75-12-2.27-16.48,2.55-2.56,4.49-2.39,6.19.83,1.19,2.23,3.32,2.34,5.25,2.88,5.59,1.55,6.42,2.72,5.08,8.36a72.47,72.47,0,0,0-1.82,11.22c-.12,1.54-.45,3.07-2.23,3.38-2,.35-2.69-1.2-3.33-2.74A36.22,36.22,0,0,1,240.22,421.76Z"/><path class="cls-3" d="M324,417c.06,4.66.44,8.68-.56,12.63a22.51,22.51,0,0,1-4.2,8.5c-1,1.3-1.88,1.63-2.29-.47-1.16-6-2.63-12-2.45-18.2.15-4.84,1.9-6.07,6.25-4.14,2.45,1.08,3.79,1.34,3.8-2a3.7,3.7,0,0,1,3.51-4,4.44,4.44,0,0,1,4.79,2.63c2.32,4.35,2,11.3-.77,13.89-2.32,2.2-3.36,1.93-4.16-1.13C327.21,422.11,327,419.34,324,417Z"/><path class="cls-3" d="M281.68,434.91a23.48,23.48,0,0,1-.64,6.19c-1.1,3.54-3.79,5.93-6.69,5.84-3.28-.11-6.8-2.84-7.31-6.24a21.82,21.82,0,0,1,3.89-16.4c3.34-4.6,7.13-3.93,9.33,1.25A21.25,21.25,0,0,1,281.68,434.91Z"/><path class="cls-3" d="M284,432.49c.27-1.93.45-4.13.92-6.27s1.63-4.15,4.21-4.49a6,6,0,0,1,6.32,2.81,21.49,21.49,0,0,1,2,18c-1,3.44-3.94,4-7.11,3.73s-5.15-1.56-5.53-4.78C284.47,438.61,284.26,435.68,284,432.49Z"/><path class="cls-3" d="M300.23,428.21a43.86,43.86,0,0,1,.72-5,5,5,0,0,1,5.08-4,4.8,4.8,0,0,1,5.18,3.27,24,24,0,0,1,1.12,14.42,5.17,5.17,0,0,1-5.2,4.32,4.94,4.94,0,0,1-5.47-3.88A35.26,35.26,0,0,1,300.23,428.21Z"/><path class="cls-3" d="M265.11,428.38c0,3.83,0,6.89-1.59,9.68a5.37,5.37,0,0,1-5.44,3,4.93,4.93,0,0,1-4.68-4,24.75,24.75,0,0,1,1.27-15.13c1-2.57,3.39-3,5.87-2.65a4.4,4.4,0,0,1,4.14,4C264.94,425.21,265,427.17,265.11,428.38Z"/></svg>