<?xml version="1.0" encoding="utf-8"?>
<!-- Generator: Adobe Illustrator 23.0.1, SVG Export Plug-In . SVG Version: 6.00 Build 0)  -->
<svg version="1.1" id="Capa_1" xmlns="http://www.w3.org/2000/svg" xmlns:xlink="http://www.w3.org/1999/xlink" x="0px" y="0px"
	 viewBox="0 0 538.6 538.6" style="enable-background:new 0 0 538.6 538.6;" xml:space="preserve">
<style type="text/css">
	.st0{fill:#B0CA0E;}
	.st1{fill:#F9CD13;}
	.st2{fill:#FFFFFF;}
</style>
<path class="st0" d="M269.7,0c148.7,0.1,269,121,268.8,270c-0.2,148.6-121.2,268.8-270.3,268.6C120,538.3-0.2,417.3,0,268.6
	C0.2,120.2,121.1-0.1,269.7,0L269.7,0z"/>
<path class="st1" d="M8.9,269C9.1,124.9,125.9,8.6,270.3,8.9C413.9,9.1,530,126.2,529.7,270.4C529.4,413.7,412.3,530,268.6,529.7
	C125.1,529.4,8.7,412.6,8.9,269z"/>
<path class="st0" d="M269.1,464.1C161.4,464,74.4,376.7,74.5,268.8c0.1-107.2,87.6-194.4,195-194.3
	c107.7,0.1,194.8,87.5,194.6,195.3C463.9,377.1,376.6,464.2,269.1,464.1z"/>
<g>
	<path class="st2" d="M60.9,366l2.1,4c-0.7,0.3-1,0.7-1.1,1.1c0,0.3,0,0.6,0.2,0.9c0.1,0.3,0.6,1.3,1.5,3c0.9,1.8,1.5,2.8,1.7,3.1
		c0.1,0.3,0.3,0.5,0.6,0.8c0.3,0.2,0.7,0.2,1.3-0.1c0.4-0.2,0.6-0.5,0.6-0.8c0-0.5-0.2-1-0.5-1.4c-0.3-0.5-0.8-1.6-1.6-3.3
		s-1.3-2.9-1.6-3.4c-0.4-0.8-0.7-1.6-0.9-2.5c-0.1-0.5-0.1-1.1,0.1-1.6c0.6-1,1.5-1.8,2.5-2.3c1.1-0.7,2.4-1,3.7-0.8
		c0.8,0.3,1.5,0.8,2,1.6c1.1,1.8,2.2,3.6,3.1,5.5c0.7,1.4,1.4,2.8,2,4.3c0.4,1,0.5,2.1,0.3,3.1c-0.5,0.9-1.3,1.7-2.3,2.1l-0.6,0.3
		l-2.1-4c0.3-0.1,0.5-0.3,0.7-0.5c0.1-0.1,0.2-0.3,0.2-0.5c0-0.4-0.1-0.7-0.3-1c-0.2-0.5-0.7-1.4-1.4-2.9c-0.5-1.1-1.1-2.2-1.8-3.1
		c-0.3-0.3-0.8-0.4-1.2-0.1c-0.4,0.1-0.7,0.6-0.6,1c0.6,1.6,1.3,3.1,2,4.5c1.1,2.2,1.8,3.8,2,4.5c0.3,0.6,0.4,1.3,0.4,2
		c0,0.6-0.3,1.2-0.7,1.7c-0.6,0.6-1.3,1.1-2.1,1.5c-0.9,0.6-2,0.9-3.1,1c-0.6,0-1.1-0.2-1.6-0.5c-0.6-0.5-1.1-1.1-1.5-1.7
		c-0.6-0.8-1.5-2.5-2.7-5c-1.1-2-1.8-3.6-2.2-4.6c-0.3-0.8-0.5-1.6-0.6-2.5c0-0.6,0.2-1.2,0.6-1.7c0.6-0.6,1.3-1.1,2-1.4L60.9,366z"
		/>
	<path class="st2" d="M75.3,401.3l1.5-2.5l-5.5-8.5l-2.9,0.3l-2.9-4.5l17.3-1.5l3.9,6.1l-8.6,15.1L75.3,401.3z M78.7,395.5l3.3-5.6
		l-0.5-0.8l-6.5,0.7L78.7,395.5z"/>
	<path class="st2" d="M91.3,397.4l10.5,13.4l-2.8,2.3l-7.7-9.8l-1.8,1.4l7.3,9.3l-2.7,2.1l-7.3-9.3l-2,1.5l7.8,9.8l-2.9,2.3
		l-10.6-13.5L91.3,397.4z"/>
	<path class="st2" d="M102.8,411.7l3.3,3.7l-11.6,10.1l-3.3-3.7L102.8,411.7z"/>
	<path class="st2" d="M114.5,441.7l-3.6,1.1l-0.3-1.8c-0.9-0.2-1.8-0.6-2.5-1.2c-0.9-0.7-2.5-2.2-4.9-4.6c-1.6-1.5-3.1-3.2-4.6-4.9
		c-1.1-1.1-1.3-2.8-0.5-4.1c2-2.8,4.4-5.2,7.2-7.2c1.3-0.7,3-0.5,4.1,0.5c1.7,1.5,3.4,3,5,4.7c1.7,1.6,3.2,3.2,4.7,5
		c1.1,1.1,1.3,2.8,0.5,4.1c-0.3,0.6-0.7,1.1-1.2,1.6c-0.5,0.6-1.2,1.4-2.2,2.4c-0.8,0.8-1.6,1.6-2.5,2.4L114.5,441.7z M111.2,428.9
		l1.3,5.5c0.2-0.1,0.3-0.3,0.4-0.4c0.6-0.6,1.1-1.2,1.6-1.8c0.3-0.3,0.4-0.7,0.5-1.1c0-0.5-0.1-1-0.4-1.3c-0.4-0.5-1.3-1.5-2.8-3
		c-1-1.1-2.1-2.1-3.3-3c-0.5-0.3-1-0.3-1.5-0.1c-0.9,0.6-1.7,1.2-2.4,2c-0.5,0.5-0.9,1-1.3,1.5c-0.2,0.3-0.3,0.7-0.3,1
		c0.1,0.5,0.3,1,0.7,1.3c0.4,0.5,1.3,1.5,2.8,2.9c0.9,1,1.9,1.9,2.9,2.7l-1.7-5.4L111.2,428.9z"/>
	<path class="st2" d="M126.3,455.2l0.6-2.9l-7.9-6.4l-2.7,1.2l-4.1-3.4l16-6.8l5.6,4.6l-3.5,17L126.3,455.2z M127.7,448.7l1.4-6.4
		l-0.7-0.6l-6,2.6L127.7,448.7z"/>
	<path class="st2" d="M138.9,458.2l3.8,2.4c-0.4,0.4-0.5,1-0.4,1.5c0.1,0.3,0.4,0.5,0.6,0.7c0.3,0.2,1.2,0.8,2.8,1.9s2.7,1.7,3,1.9
		c0.3,0.2,0.6,0.3,0.9,0.4c0.4,0.1,0.7-0.2,1.1-0.7c0.2-0.3,0.3-0.7,0.2-1c-0.3-0.4-0.7-0.8-1.1-1c-0.5-0.3-1.5-1-3-2.1
		s-2.6-1.8-3.1-2.1c-0.7-0.5-1.4-1-2-1.7c-0.4-0.4-0.6-0.9-0.7-1.5c-0.1-1.2,0.3-2.3,1-3.3c0.6-1.2,1.6-2.1,2.8-2.6
		c0.9-0.2,1.8-0.1,2.5,0.4c1.9,1,3.7,2,5.5,3.2c1.4,0.8,2.7,1.7,3.9,2.7c0.9,0.6,1.5,1.5,1.8,2.5c0.1,1.1-0.3,2.1-0.9,2.9
		c-0.1,0.1-0.2,0.3-0.4,0.6l-3.8-2.4c0.2-0.2,0.3-0.5,0.4-0.8c0-0.2,0-0.3-0.1-0.5c-0.2-0.3-0.5-0.6-0.8-0.8
		c-0.4-0.3-1.3-0.9-2.7-1.8c-1-0.7-2.1-1.3-3.2-1.8c-0.4-0.1-0.9,0.1-1.1,0.5c-0.3,0.3-0.3,0.9,0,1.2c1.3,1,2.6,2,4.1,2.9
		c2.1,1.4,3.4,2.4,4.1,2.9c0.6,0.4,1,0.9,1.4,1.5c0.3,0.6,0.4,1.2,0.3,1.8c-0.2,0.8-0.6,1.6-1.1,2.3c-0.5,1-1.3,1.8-2.2,2.4
		c-0.5,0.3-1.1,0.4-1.6,0.3c-0.8-0.1-1.5-0.4-2.1-0.7c-0.9-0.5-2.5-1.4-4.9-2.9c-2-1.2-3.4-2.2-4.2-2.9c-0.7-0.5-1.3-1.1-1.8-1.9
		c-0.3-0.5-0.4-1.1-0.3-1.8c0.2-0.8,0.5-1.6,1-2.3L138.9,458.2z"/>
	<path class="st2" d="M161.2,460.1l4.2,2.1l-3.2,6.3c-0.5,0.9-0.9,1.8-1.3,2.8c-0.2,0.6,0,1.2,0.5,1.6c1.1,0.8,2.2,1.5,3.4,2
		c1,0.5,2,1,3.1,1.4c0.5,0.2,1,0.2,1.4,0.1c0.3-0.1,0.5-0.3,0.6-0.5c0.3-0.4,0.6-0.8,0.8-1.2c0.4-0.6,0.6-1.1,0.8-1.5l3.2-6.3
		l4.2,2.1l-3.2,6.3c-1.2,2.2-1.9,3.6-2.4,4.2c-0.6,1-1.7,1.6-2.9,1.7c-0.9,0-1.7-0.2-2.6-0.5c-1-0.4-2.6-1.1-4.8-2.2
		c-1.7-0.9-2.9-1.5-3.8-2c-0.8-0.4-1.5-1-2.2-1.5c-1.2-0.9-1.7-2.5-1.2-4c0.2-0.5,0.4-1.1,0.6-1.6c0.2-0.5,0.7-1.5,1.5-3.1
		L161.2,460.1z"/>
	<path class="st2" d="M174.8,484.1l5.6-14.3l9.8,3.9c1.3,0.5,2.5,1,3.7,1.6c1.1,0.5,1.9,1.4,2.3,2.5c0.1,1.4-0.1,2.9-0.8,4.2
		c-0.4,1.3-1.1,2.5-2.1,3.5c-0.5,0.4-1,0.6-1.6,0.6c-0.8,0-1.5-0.1-2.3-0.3c-0.6-0.2-1.8-0.6-3.5-1.3l-5.5-2.2l-1.4,3.5L174.8,484.1
		z M182,478.8l5.4,2.1c1,0.4,1.6,0.6,1.8,0.7c0.2,0.1,0.4,0.1,0.7,0.1c0.3,0,0.5-0.2,0.7-0.4c0.2-0.3,0.4-0.7,0.6-1.1
		c0.2-0.4,0.3-0.8,0.3-1.2c0-0.3-0.1-0.5-0.4-0.7c-0.7-0.4-1.4-0.8-2.2-1l-5.4-2.1L182,478.8z"/>
	<path class="st2" d="M198.7,476.9l16.3,4.9l-1,3.5l-11.9-3.5l-0.6,2.1l11.3,3.4l-1,3.2l-11.3-3.4l-0.7,2.4l12,3.6l-1.1,3.5
		l-16.4-4.9L198.7,476.9z"/>
	<path class="st2" d="M212.9,497.1L216,482l11.1,2.3c2.6,0.5,4.2,0.9,4.7,1c0.5,0.2,1,0.4,1.4,0.8c0.5,0.4,0.8,1,0.9,1.7
		c0.1,1,0,2-0.3,2.9c-0.1,0.8-0.4,1.6-0.7,2.4c-0.2,0.5-0.6,0.8-1,1.1c-0.6,0.3-1.3,0.4-2,0.3c0.8,0.2,1.5,0.6,1.9,1.3
		c0.2,0.3,0.3,0.7,0.2,1.1c-0.1,0.9-0.2,1.7-0.4,2.6l-0.3,1.4L227,500l0.2-0.8c0.1-0.6,0.2-1.2,0.3-1.8c0-0.3,0-0.6-0.2-0.9
		c-0.1-0.2-0.4-0.4-0.6-0.5c-0.6-0.2-1.2-0.3-1.9-0.5l-6.5-1.3l-0.8,3.8L212.9,497.1z M219.1,490.5l6.5,1.3l2,0.4c0.2,0,0.4,0,0.6,0
		c0.2-0.1,0.4-0.3,0.5-0.5c0.2-0.3,0.3-0.7,0.4-1.1c0.1-0.4,0.1-0.8,0.1-1.1c0-0.2-0.2-0.5-0.4-0.6c-0.2-0.1-0.4-0.2-0.6-0.3
		c-0.2-0.1-0.9-0.2-1.9-0.4l-6.4-1.3L219.1,490.5z"/>
	<path class="st2" d="M234.2,496.2l4.5,0.5c-0.1,0.8,0,1.3,0.3,1.5c0.2,0.2,0.5,0.3,0.8,0.4c0.4,0.1,1.5,0.2,3.3,0.5
		c1.9,0.2,3.1,0.3,3.5,0.4c0.3,0,0.7,0,1-0.1c0.4-0.1,0.6-0.5,0.6-1.1c0.1-0.4,0-0.7-0.3-1c-0.4-0.2-0.9-0.4-1.5-0.4
		c-0.6-0.1-1.8-0.3-3.6-0.5l-3.7-0.6c-0.9-0.1-1.7-0.3-2.6-0.6c-0.5-0.2-1-0.5-1.3-1c-0.6-1-0.7-2.2-0.5-3.4c0-1.3,0.5-2.6,1.4-3.5
		c0.7-0.5,1.6-0.8,2.4-0.8c2.1,0,4.2,0.2,6.4,0.5c1.6,0.1,3.2,0.4,4.7,0.7c1.1,0.2,2,0.7,2.8,1.5c0.5,0.9,0.7,2,0.4,3.1
		c0,0.1,0,0.4-0.1,0.7l-4.5-0.5c0-0.3,0-0.6,0-0.9c0-0.2-0.1-0.3-0.3-0.4c-0.3-0.2-0.6-0.3-1-0.4c-0.5-0.1-1.6-0.2-3.2-0.4
		c-1.2-0.2-2.4-0.3-3.6-0.2c-0.5,0.1-0.7,0.4-0.8,1c-0.1,0.4,0.1,0.9,0.5,1.1c1.6,0.4,3.3,0.7,4.9,0.8c2.5,0.4,4.1,0.6,4.9,0.8
		c0.7,0.1,1.3,0.4,1.9,0.8c0.5,0.4,0.8,0.9,1,1.5c0.2,0.8,0.2,1.7,0.1,2.6c-0.1,1.1-0.4,2.2-1,3.2c-0.3,0.5-0.8,0.8-1.4,1
		c-0.7,0.2-1.5,0.3-2.3,0.3c-1,0-2.9-0.2-5.6-0.5c-2.3-0.3-4-0.5-5.1-0.8c-0.9-0.2-1.7-0.5-2.4-0.9c-0.5-0.3-0.8-0.9-1-1.4
		c-0.2-0.8-0.2-1.7-0.1-2.5L234.2,496.2z"/>
	<path class="st2" d="M265.5,488.2c2.3,0,4.6,0.1,6.9,0.4c1.6,0.1,2.9,1.1,3.3,2.6c0.3,1.7,0.4,3.4,0.3,5.1c0,1.7-0.1,3.4-0.5,5.1
		c-0.5,1.5-1.8,2.5-3.4,2.5c-2.3,0.2-4.5,0.2-6.8,0.1c-2.3,0-4.6-0.1-6.9-0.4c-1.5-0.1-2.9-1.1-3.3-2.6c-0.3-1.7-0.4-3.5-0.3-5.2
		c0-1.7,0.1-3.4,0.5-5c0.5-1.5,1.8-2.5,3.4-2.5C261,488.2,263.2,488.1,265.5,488.2L265.5,488.2z M265.5,492.2
		c-1.5-0.1-3-0.1-4.5,0.1c-0.5,0.1-1,0.5-1.2,1c-0.3,1-0.4,2.1-0.3,3.1c0,0.7,0,1.3,0.1,2c0.2,0.8,0.9,1.4,1.7,1.4
		c1.4,0.1,2.7,0.2,4.1,0.2h3.8c0.5,0,1-0.2,1.4-0.4c0.3-0.2,0.5-0.6,0.6-0.9c0.1-0.7,0.2-1.3,0.2-2c0-0.8,0-1.6-0.1-2.4
		c0-0.4-0.2-0.8-0.4-1.2c-0.3-0.4-0.7-0.6-1.2-0.6C269,492.3,267.7,492.2,265.5,492.2L265.5,492.2z"/>
	<path class="st2" d="M277.4,488.5l4.9-0.3l0.8,11.4l10.9-0.8l0.3,3.9l-15.8,1.1L277.4,488.5z"/>
	<path class="st2" d="M296.1,502.6l-2.4-15.2l11-1.7c2-0.3,3.2-0.5,3.8-0.5c0.6-0.1,1.3-0.1,1.9,0c1.4,0,2.8,0.8,3.4,2.1
		c0.3,0.5,0.5,1.1,0.6,1.7c0.2,0.9,0.4,1.8,0.5,2.8c0.2,1,0.3,2.1,0.4,3.1c0,0.7,0,1.3-0.1,2c-0.2,1.3-1.1,2.5-2.4,2.9
		c-0.7,0.3-1.4,0.5-2.1,0.6c-0.7,0.2-2,0.4-3.7,0.7L296.1,502.6z M300.1,498l6.5-1c0.9-0.1,1.7-0.3,2.6-0.5c0.4-0.1,0.8-0.3,1.1-0.6
		c0.2-0.3,0.4-0.7,0.4-1.1c0-0.7-0.1-1.4-0.2-2.1c-0.1-0.7-0.3-1.4-0.5-2.1c-0.1-0.4-0.3-0.7-0.6-1c-0.3-0.3-0.8-0.4-1.2-0.4
		c-1,0-1.9,0.2-2.9,0.3l-6.4,1L300.1,498z"/>
	<path class="st2" d="M315.3,483.7l4.8-1.1l3.4,15l-4.8,1.1L315.3,483.7z"/>
	<path class="st2" d="M321.9,482.3l16.4-4.7l1,3.5l-11.9,3.4l0.6,2.1l11.3-3.2l0.9,3.2l-11.3,3.2l0.7,2.4l12-3.4l1,3.6l-16.4,4.7
		L321.9,482.3z"/>
	<path class="st2" d="M344.8,491.7l-5.5-14.4l10.6-4c2.5-0.9,4-1.5,4.5-1.6c0.5-0.1,1.1-0.2,1.6-0.1c0.6,0.1,1.2,0.4,1.6,0.9
		c0.6,0.8,1,1.7,1.4,2.6c0.3,0.8,0.6,1.6,0.7,2.4c0.1,0.5,0,1-0.3,1.5c-0.4,0.6-0.9,1-1.5,1.3c0.7-0.3,1.5-0.3,2.3,0
		c0.3,0.2,0.6,0.5,0.8,0.8c0.4,0.8,0.7,1.6,1,2.4l0.5,1.3l-4.3,1.7l-0.3-0.8c-0.2-0.6-0.5-1.1-0.8-1.7c-0.1-0.3-0.4-0.5-0.6-0.6
		c-0.2-0.1-0.5-0.1-0.8-0.1c-0.6,0.2-1.2,0.4-1.8,0.6l-6.2,2.4l1.4,3.7L344.8,491.7z M346.4,482.8l6.2-2.4c1.1-0.4,1.7-0.7,1.9-0.8
		c0.2-0.1,0.4-0.2,0.5-0.4c0.1-0.2,0.2-0.4,0.2-0.7c0-0.4-0.1-0.8-0.3-1.1c-0.1-0.4-0.3-0.7-0.5-1c-0.2-0.2-0.4-0.3-0.6-0.3
		c-0.2,0-0.4,0-0.6,0.1l-1.8,0.7l-6.1,2.4L346.4,482.8z"/>
	<path class="st2" d="M370.5,481.3l-7.2-13.6l9.3-4.9c1.2-0.7,2.4-1.2,3.6-1.8c1.1-0.5,2.3-0.6,3.4-0.1c1.2,0.8,2.1,2,2.6,3.3
		c0.7,1.2,1.2,2.5,1.3,3.9c0,0.6-0.2,1.2-0.6,1.6c-0.5,0.6-1,1.1-1.7,1.5c-0.5,0.4-1.6,1-3.3,1.8l-5.2,2.7l1.7,3.4L370.5,481.3z
		 M371.1,472.3l5.2-2.7c0.9-0.5,1.5-0.8,1.7-1c0.2-0.1,0.4-0.3,0.5-0.5c0.1-0.2,0.2-0.5,0.2-0.7c-0.1-0.4-0.2-0.8-0.4-1.1
		c-0.2-0.4-0.4-0.7-0.7-1c-0.2-0.2-0.5-0.3-0.8-0.2c-0.8,0.3-1.5,0.6-2.3,1l-5.2,2.7L371.1,472.3z"/>
	<path class="st2" d="M388.9,471.5l-8.4-12.9l9.5-6.2c2.2-1.4,3.6-2.3,4-2.5c0.5-0.2,1-0.4,1.6-0.4c0.7,0,1.3,0.2,1.8,0.6
		c0.7,0.7,1.4,1.4,1.9,2.3c0.5,0.7,0.9,1.4,1.2,2.2c0.2,0.5,0.2,1,0,1.5c-0.2,0.6-0.6,1.2-1.2,1.6c0.7-0.4,1.5-0.6,2.2-0.4
		c0.4,0.1,0.7,0.3,1,0.6c0.5,0.7,1.1,1.4,1.5,2.1l0.8,1.2l-3.9,2.5l-0.5-0.7c-0.3-0.5-0.7-1-1.1-1.5c-0.2-0.2-0.5-0.4-0.8-0.5
		c-0.3-0.1-0.5,0-0.8,0.1c-0.3,0.1-0.8,0.5-1.6,1l-5.6,3.6l2.1,3.3L388.9,471.5z M388.6,462.4l5.5-3.6c0.9-0.7,1.5-1.1,1.7-1.2
		c0.2-0.1,0.3-0.3,0.4-0.5c0.1-0.2,0.1-0.5,0-0.7c-0.1-0.4-0.3-0.7-0.5-1c-0.2-0.3-0.4-0.6-0.7-0.9c-0.2-0.2-0.5-0.2-0.7-0.2
		c-0.2,0-0.4,0.1-0.6,0.2c-0.2,0.1-0.8,0.5-1.7,1l-5.5,3.6L388.6,462.4z"/>
	<path class="st2" d="M405.5,440.9c1.8-1.4,3.6-2.8,5.5-4c1.2-0.9,2.9-0.9,4.2,0c1.3,1.1,2.5,2.4,3.5,3.7c1.1,1.3,2.1,2.7,2.8,4.3
		c0.6,1.4,0.2,3-1,4c-1.6,1.6-3.4,3-5.2,4.4c-1.8,1.5-3.6,2.8-5.6,4.1c-1.2,0.9-2.9,0.9-4.2,0c-1.3-1.1-2.5-2.4-3.5-3.8
		c-1.1-1.3-2-2.7-2.8-4.2c-0.6-1.4-0.2-3.1,1-4C401.9,443.7,403.7,442.2,405.5,440.9L405.5,440.9z M408,444
		c-1.2,0.9-2.3,1.9-3.4,2.9c-0.4,0.4-0.5,1-0.3,1.5c0.4,0.9,1,1.8,1.7,2.6c0.4,0.5,0.9,1.1,1.4,1.5c0.6,0.5,1.5,0.5,2.2,0
		c1.1-0.7,2.2-1.6,3.3-2.4c1.5-1.2,2.5-2,2.9-2.4c0.4-0.3,0.6-0.7,0.8-1.2c0.1-0.4,0-0.7-0.1-1.1c-0.3-0.6-0.7-1.2-1.1-1.7
		c-0.5-0.6-1-1.3-1.6-1.8c-0.3-0.3-0.7-0.5-1-0.7c-0.5-0.1-0.9,0-1.3,0.3C410.1,442.3,409,443.1,408,444L408,444z"/>
	<path class="st2" d="M426.2,431.9l7.7-7.5c0.2,0.2,0.3,0.3,0.3,0.3c1.2,1.2,2.3,2.4,3.3,3.6c1.1,1.3,1.1,3.1,0.1,4.4
		c-0.5,0.7-1.1,1.5-1.7,2.1c-0.7,0.8-1.8,1.9-3.3,3.3c-1.3,1.3-2.7,2.6-4.2,3.8c-0.7,0.6-1.6,1-2.5,1.2c-0.5,0.1-1,0.1-1.5-0.1
		c-0.6-0.2-1.1-0.6-1.6-1c-1.1-0.9-2.1-1.9-3-2.9c-1-1-1.7-1.8-2.1-2.4c-0.4-0.5-0.7-1.1-1-1.7c-0.5-1.2-0.3-2.5,0.5-3.5
		c1.5-1.9,3.2-3.7,4.9-5.4c1.4-1.4,2.5-2.4,3.4-3.1c0.7-0.6,1.5-1.1,2.3-1.6c1-0.6,2.3-0.5,3.2,0.2c0.7,0.5,1.3,1.1,1.9,1.7
		l-3.4,3.3c-0.2-0.2-0.4-0.4-0.7-0.6c-0.1-0.1-0.3-0.1-0.5-0.1c-0.5,0.2-1,0.5-1.4,0.9c-0.6,0.5-1.4,1.3-2.5,2.3s-2,2-2.4,2.5
		c-0.3,0.4-0.6,0.8-0.7,1.3c0,0.4,0.1,0.8,0.3,1.1c0.5,0.7,1,1.3,1.6,1.9c0.6,0.7,1.3,1.3,2,1.9c0.3,0.3,0.7,0.4,1.1,0.4
		c0.4,0,0.7-0.2,1-0.4c0.3-0.3,1.3-1.1,2.9-2.6s2.4-2.4,2.7-2.7c0.3-0.3,0.5-0.6,0.6-0.9c0.1-0.2,0.1-0.5,0-0.7
		c-0.1-0.3-0.4-0.6-0.6-0.8l-0.3-0.3l-4.5,4.3L426.2,431.9z"/>
	<path class="st2" d="M441.8,428.7l-11.7-10l7.4-8.6c1.7-2,2.8-3.2,3.2-3.6c0.4-0.4,0.9-0.7,1.4-0.8c0.6-0.2,1.3-0.2,1.9,0
		c0.9,0.4,1.7,1,2.4,1.6c0.6,0.5,1.2,1.1,1.7,1.8c0.3,0.4,0.5,0.9,0.5,1.4c-0.1,0.7-0.3,1.3-0.7,1.9c0.5-0.6,1.2-1,2-1.1
		c0.4,0,0.8,0.1,1.1,0.3c0.7,0.5,1.4,1,2.1,1.6l1.1,0.9l-3,3.5l-0.6-0.5c-0.5-0.4-0.9-0.8-1.5-1.1c-0.3-0.2-0.6-0.3-0.9-0.3
		c-0.3,0-0.5,0.1-0.7,0.3c-0.5,0.4-0.9,0.9-1.3,1.4l-4.3,5l3,2.5L441.8,428.7z M439,420.1l4.3-5c0.7-0.9,1.2-1.4,1.3-1.6
		c0.1-0.2,0.2-0.3,0.2-0.5c0-0.2,0-0.5-0.1-0.7c-0.2-0.3-0.5-0.6-0.8-0.8c-0.3-0.3-0.6-0.5-1-0.6c-0.2-0.1-0.5-0.1-0.7,0
		c-0.2,0.1-0.3,0.2-0.5,0.4c-0.2,0.2-0.6,0.6-1.3,1.5l-4.3,5L439,420.1z"/>
	<path class="st2" d="M465.5,398.3l-2.9-0.4l-5.8,8.3l1.4,2.6l-3.1,4.4l-7.9-15.5l4.2-6l17.2,2.2L465.5,398.3z M458.9,397.3
		l-6.5-0.9l-0.5,0.8l3.1,5.8L458.9,397.3z"/>
	<path class="st2" d="M456,385.2l4-7.5l11,0.7l-6.6-8.8l4-7.4l13.5,7.3l-2.2,4.1l-10.1-5.6l-0.4,0.7l7.4,10.6l-1.9,3.4l-12.9-0.4
		l-0.4,0.7l10.2,5.4l-2.2,4.1L456,385.2z"/>
	<path class="st2" d="M239.3,98.9c-4.7,0-8.6,3.8-8.6,8.6v55.8c-46.1,4.7-79.6,45.9-74.9,92c0.5,4.7,1.4,9.4,2.7,14
		c-12.5,44.6,13.6,90.9,58.2,103.3c4.6,1.3,9.3,2.2,14,2.7v55.8c0,4.7,3.8,8.6,8.6,8.6c4.7,0,8.6-3.8,8.6-8.6l0,0V312.6h-8.6
		c-27.6,0-52.3-17.3-61.8-43.3c9.5-26,34.2-43.3,61.8-43.3h8.6V107.4C247.9,102.7,244,98.9,239.3,98.9L239.3,98.9z M230.7,357.1
		c-30-4-53.4-27.8-56.9-57.9c14,17.6,34.5,28.7,56.9,31V357.1z M230.7,208.4c-22.3,2.3-42.8,13.4-56.9,31
		c3.4-30.1,26.9-53.9,56.9-57.9V208.4z"/>
	<path class="st2" d="M383.2,246.7c0-43-32.5-79.1-75.3-83.5v-55.8c0-4.7-3.8-8.6-8.6-8.6c-4.7,0-8.6,3.8-8.6,8.6c0,0,0,0,0,0V226
		h8.6c27.6,0.1,52.3,17.3,61.8,43.3c-9.5,26-34.2,43.3-61.8,43.3h-8.6v118.5c0,4.7,3.8,8.6,8.6,8.6s8.6-3.8,8.6-8.6v-55.8
		c46.1-4.7,79.6-45.9,74.9-92c-0.5-4.7-1.4-9.4-2.7-14C382.2,262,383.2,254.4,383.2,246.7L383.2,246.7z M364.7,299.2
		c-3.4,30.1-26.9,53.9-56.9,57.9v-26.9C330.2,327.9,350.7,316.8,364.7,299.2L364.7,299.2z M307.9,181.5c30,4,53.4,27.9,56.9,57.9
		c-14-17.6-34.5-28.7-56.9-31V181.5z"/>
	<path class="st2" d="M31.5,305.6l-0.8-15.3l17.5-9.2l-18.4-7.3l-0.8-15.2l27.7-1.5l0.4,8.3l-20.7,0.9l0.1,1.4l21.2,9.4l0.4,7
		l-20.1,11.5l0.1,1.5l20.7-1.3l0.4,8.3L31.5,305.6z"/>
	<path class="st2" d="M61.2,228.4l-0.9,6.9l-2.9-0.4v0.4c1.1,0.7,2,1.8,2.3,3.1c0.3,1.9,0.3,3.8,0,5.7c-0.2,1.8-0.6,3.6-1.3,5.3
		c-0.5,1.2-1.3,2.3-2.3,3c-0.9,0.7-2.1,1.2-3.3,1.3c-1.9,0.1-3.8,0-5.7-0.3l-8.9-1.2l1-7.3l8.9,1.2c1,0.2,2,0.2,3.1,0.2
		c0.6,0,1.1-0.3,1.6-0.6c0.5-0.4,0.8-0.9,1-1.5c0.3-1,0.5-2,0.6-3.1c0.3-2.4,0.2-4-0.4-4.9c-0.4-0.6-1-1-1.6-1.3
		c-1.2-0.4-2.5-0.6-3.8-0.8l-7.8-1l1-7.3L61.2,228.4z"/>
	<path class="st2" d="M34.9,218.9l1.9-7.1l14,3.8l0.4-1.5l-4.5-8.2l2.6-9.5l6.2,12.3l13.1-8.4l-2.5,9.4l-9.6,5.6l-0.5,1.8l7.7,2.1
		l-2,7.1L34.9,218.9z"/>
	<path class="st2" d="M43.2,189.5l2.8-6.8l10.2,4.2l0.1-0.3c-0.9-1-1.4-2.3-1.4-3.7c0.1-1.8,0.5-3.7,1.3-5.3
		c0.6-1.7,1.5-3.2,2.6-4.6c0.8-1,1.8-1.8,3-2.3c1.1-0.4,2.3-0.6,3.4-0.4c1.7,0.3,3.3,0.9,4.9,1.6l8.9,3.7l-2.8,6.8l-8.8-3.7
		c-0.8-0.3-1.6-0.6-2.4-0.8c-0.5-0.1-1-0.1-1.5,0.1c-1,0.4-2,1.7-2.9,4c-1,2.4-1.3,4.1-0.8,5.2c0.2,0.6,0.7,1.1,1.2,1.5
		c0.9,0.6,2,1.1,3,1.5l7.8,3.3l-2.9,6.8L43.2,189.5z"/>
	<path class="st2" d="M60.3,159.5l3.6-6.4l3.9,2.2l5.8-10.1l4.6,2.6l-5.8,10.1l5,2.8c0.8,0.6,1.7,0.9,2.7,1.1c0.8,0,1.5-0.6,2.2-1.8
		s0.9-2.2,0.5-2.8c-0.1-0.2-0.3-0.4-0.5-0.6c-0.2-0.2-0.8-0.5-1.7-1l3.3-5.9c1.2,0.7,2.3,1.4,3.4,2.3c1.6,1.5,2.2,3.7,1.7,5.8
		c-0.6,1.9-1.4,3.6-2.4,5.3c-0.8,1.6-1.8,3-2.9,4.4c-0.7,0.8-1.6,1.4-2.6,1.7c-0.6,0.2-1.3,0.3-2,0.2c-0.8-0.2-1.7-0.5-2.4-0.9
		c-0.3-0.2-1.3-0.7-2.8-1.5l-5-2.8l-1.9,3.4l-4.6-2.6l1.9-3.4L60.3,159.5z"/>
	<path class="st2" d="M85.7,138.7l-4.4,5.9c-2.5-1.7-3.3-5-1.8-7.7c1.4-2.8,3.1-5.5,5.1-7.9c1.3-1.8,2.7-3.5,4.3-5.1
		c0.9-0.8,1.9-1.3,3.1-1.4c0.9-0.1,1.8,0,2.7,0.3c1.2,0.6,2.4,1.3,3.5,2.1l9.5,7.1l-4.2,5.7l-2.1-1.6l-0.2,0.3
		c0.6,1.1,0.7,2.4,0.4,3.6c-0.2,0.9-0.6,1.7-1.1,2.4c-0.6,1-1.6,2.4-3.1,4.4c-0.9,1.2-1.9,2.4-3,3.4c-0.7,0.7-1.6,1.1-2.6,1.3
		c-1.3,0.2-2.8-0.3-4.4-1.5c-1.8-1.3-2.8-2.8-3-4.3c-0.1-1.3,0.2-2.6,0.9-3.8c1.4-2.3,2.9-4.6,4.5-6.7c0.7-1,1.5-1.9,2.4-2.7
		c0.6-0.5,1.4-0.8,2.2-0.8l0.2-0.3l-0.8-0.6c-1.2-0.9-2.2-1.3-2.8-1s-1.7,1.2-3,3c-1,1.3-1.9,2.6-2.7,4.1
		C84.8,137.6,85.1,138.3,85.7,138.7L85.7,138.7z M92.8,137.9c-1.5,2-2.3,3.3-2.4,4c-0.2,0.7,0.1,1.4,0.6,1.8
		c0.5,0.5,1.3,0.5,1.9,0.1c1.1-0.8,2-1.9,2.8-3c1.1-1.4,2-2.9,2.8-4.5c0.3-0.8,0.1-1.7-0.6-2.2c-0.6-0.5-1.4-0.5-2,0
		C94.7,135.3,93.7,136.6,92.8,137.9L92.8,137.9z"/>
	<path class="st2" d="M95,116.6l4.8-5l2.1,2.1l0.3-0.3c-0.4-1.2-0.4-2.6,0-3.8c0.6-1.5,1.6-2.9,2.8-4c2.1-2.1,3.9-3.2,5.6-3.3
		s3.5,1,5.7,3l0.9,1l-4.8,5c-0.6-0.6-1.2-1.1-2-1.4c-1-0.3-2.1,0.3-3.4,1.6c-1.1,0.9-1.6,2.3-1.5,3.7c0.1,0.6,0.4,1.2,0.8,1.8
		c0.7,0.9,1.4,1.7,2.3,2.4l5.9,5.7l-5.1,5.3L95,116.6z"/>
	<path class="st2" d="M157.9,88.7l-4.6-2.5l-15.1,10.5l0.7,5.2l-7.9,5.5l-3.8-31.2l10.8-7.5l27.8,14.5L157.9,88.7z M147.4,82.9
		L137,77.4l-1.4,1l1.6,11.7L147.4,82.9z"/>
	<path class="st2" d="M179.7,68.5l6.7-3.3c0.5,1.1,0.9,2.3,1.2,3.6c0.1,0.9,0.1,1.8-0.2,2.6c-0.5,1.4-1.4,2.6-2.6,3.4
		c-2.3,1.5-4.6,2.9-7.1,4c-2,1-4.1,1.9-6.3,2.7c-1.3,0.4-2.7,0.5-4,0.4c-1.2-0.2-2.2-0.8-3-1.7c-1.2-1.5-2.2-3.2-3-5
		c-0.8-1.6-1.5-3.3-1.9-5c-0.2-1.1-0.1-2.3,0.4-3.4c0.6-1.2,1.6-2.3,2.7-3.1c2-1.4,4.1-2.6,6.3-3.6c2.2-1.1,4.5-2.1,6.8-2.8
		c1.3-0.4,2.8-0.6,4.2-0.3c1,0.2,1.8,0.7,2.5,1.4c0.9,1,1.7,2.2,2.4,3.5l-6.7,3.3c-0.5-0.9-1.4-1.4-2.3-1.4c-1.5,0.2-3,0.7-4.4,1.4
		c-1.4,0.6-2.7,1.5-3.8,2.6c-0.4,0.5-0.5,1.1-0.4,1.8c0.2,1,0.5,1.9,1,2.8c0.4,0.9,0.9,1.7,1.6,2.3c0.5,0.4,1.1,0.6,1.8,0.6
		c1.5-0.2,3-0.7,4.3-1.4c1.4-0.6,2.7-1.4,3.8-2.5C179.9,70.4,180,69.4,179.7,68.5L179.7,68.5z"/>
	<path class="st2" d="M185.9,48.2l7-2.4l1.5,4.3l11-3.7l1.7,5l-11,3.7l1.8,5.4c0.2,1,0.7,1.8,1.2,2.6c0.6,0.5,1.5,0.6,2.8,0.1
		s2.1-1,2.2-1.8c0.1-0.3,0.1-0.5,0-0.8c-0.1-0.2-0.3-0.8-0.6-1.8l6.4-2.2c0.5,1.3,0.8,2.6,1,4c0.1,0.9,0,1.8-0.3,2.6
		c-0.4,1.2-1.2,2.2-2.3,2.8c-1.6,1-3.4,1.8-5.3,2.4c-1.7,0.6-3.4,1.1-5.1,1.3c-1.1,0.1-2.1,0-3.1-0.5c-0.6-0.3-1.2-0.7-1.6-1.2
		c-0.5-0.7-0.9-1.4-1.2-2.3c-0.1-0.4-0.5-1.3-1.1-3l-1.8-5.4l-3.7,1.3l-1.7-5l3.7-1.3L185.9,48.2z"/>
	<path class="st2" d="M207.3,37.7l7.1-1.8l1.4,5.4l-7.1,1.8L207.3,37.7z M209.3,45.6l7.1-1.8l4.8,19.1l-7.1,1.8L209.3,45.6z"/>
	<path class="st2" d="M218.6,42.8l8.3-1.3l8.3,12.8l3.8-14.8l8.3-1.3l-6.5,21l-9.4,1.5L218.6,42.8z"/>
	<path class="st2" d="M268.5,51l7.3-0.2c0,1.7-0.6,3.4-1.8,4.7c-1.1,1-2.5,1.6-4,1.8c-2.6,0.5-5.2,0.7-7.8,0.7
		c-2.2,0.1-4.4,0-6.6-0.2c-1.3-0.2-2.6-0.6-3.7-1.3c-1-0.7-1.7-1.7-2-2.8c-0.5-1.8-0.7-3.7-0.7-5.5c-0.1-1.4,0-2.8,0.1-4.2
		c0.1-0.9,0.3-1.8,0.7-2.6c0.8-1.7,2.3-2.8,4.2-3.2c2.7-0.6,5.4-0.9,8.2-0.9c2.3-0.1,4.6-0.1,6.9,0.1c2.4,0.3,4.1,1.2,5,2.5
		c0.9,1.3,1.5,3.7,1.5,6.9v2l-19.2,0.6c0,0.7,0.1,1.4,0.3,2.1c0.1,0.4,0.4,0.8,0.8,1.1c0.8,0.5,2.4,0.7,5,0.7c1.2,0,2.5-0.1,3.7-0.3
		c0.6-0.1,1.2-0.3,1.7-0.7C268.3,51.9,268.4,51.4,268.5,51z M268.4,45c0-0.5-0.1-1.1-0.2-1.6c-0.1-0.3-0.2-0.6-0.5-0.8
		c-0.7-0.6-2.4-0.9-5.1-0.8c-2.5,0.1-4.1,0.3-4.9,0.8c-0.9,0.6-1.3,1.7-1.2,2.7L268.4,45z"/>
	<path class="st2" d="M288.3,57.6l4.7-27.3l20.1,3.5c4.7,0.8,7.5,1.4,8.5,1.6c0.9,0.3,1.8,0.7,2.5,1.4c0.9,0.8,1.5,1.8,1.7,3
		c0.2,1.8,0.1,3.6-0.3,5.3c-0.2,1.5-0.6,2.9-1.1,4.3c-0.4,0.8-1,1.5-1.8,2c-1.1,0.5-2.3,0.8-3.5,0.7c1.4,0.2,2.7,1,3.5,2.2
		c0.4,0.6,0.5,1.3,0.5,2c-0.1,1.6-0.3,3.1-0.6,4.7l-0.4,2.5l-8.2-1.4l0.3-1.5c0.2-1.1,0.3-2.2,0.4-3.3c0-0.6-0.1-1.1-0.4-1.6
		c-0.3-0.4-0.7-0.7-1.2-0.8c-1.1-0.3-2.2-0.6-3.4-0.7l-11.7-2l-1.2,7L288.3,57.6z M299,45.2l11.7,2c2,0.3,3.3,0.5,3.7,0.5
		c0.4,0,0.7,0,1.1-0.1c0.4-0.2,0.7-0.5,0.9-0.9c0.3-0.6,0.5-1.3,0.6-2c0.1-0.7,0.2-1.3,0.1-2c-0.1-0.4-0.3-0.8-0.7-1.1
		c-0.3-0.2-0.6-0.3-1-0.4c-0.4-0.1-1.6-0.3-3.5-0.7l-11.7-2L299,45.2z"/>
	<path class="st2" d="M343.6,64.1l7,2.3c-0.6,1.6-1.8,3-3.3,3.8c-1.4,0.5-2.9,0.6-4.4,0.3c-2.6-0.5-5.1-1.1-7.5-2
		c-2.1-0.6-4.2-1.5-6.1-2.4c-1.2-0.6-2.2-1.5-3-2.5c-0.7-1-1-2.2-0.9-3.3c0.2-1.9,0.6-3.7,1.3-5.4c0.4-1.3,0.9-2.7,1.5-3.9
		c0.4-0.8,0.9-1.5,1.5-2.2c1.3-1.3,3.2-1.9,5-1.6c2.7,0.4,5.4,1.1,8,2c2.2,0.7,4.4,1.5,6.5,2.5c2.1,1.1,3.4,2.5,3.8,4.1
		c0.4,1.6,0.1,3.9-0.9,7c-0.1,0.3-0.3,0.9-0.7,1.9L333,58.6c-0.3,0.7-0.4,1.4-0.5,2.1c0,0.5,0.1,0.9,0.4,1.3c0.5,0.7,2,1.5,4.5,2.3
		c1.2,0.4,2.4,0.8,3.6,1c0.6,0.1,1.2,0.1,1.8-0.1C343.1,64.9,343.4,64.5,343.6,64.1L343.6,64.1z M345.6,58.5c0.2-0.5,0.3-1,0.4-1.6
		c0-0.3,0-0.6-0.2-0.9c-0.4-0.8-1.9-1.7-4.5-2.5c-2.4-0.8-4-1.1-4.9-0.9s-1.6,0.9-2.1,2.2L345.6,58.5z"/>
	<path class="st2" d="M352.6,67.3l6.7,3.3c-0.3,0.8-0.1,1.6,0.5,2.2c1.2,1,2.6,1.9,4.1,2.5c1.4,0.8,3,1.4,4.5,1.8
		c0.7,0.2,1.4-0.1,1.8-0.7c0.3-0.6,0.1-1.4-0.5-1.8c-1.8-1.1-3.6-2.1-5.5-3c-3.2-1.6-5.1-2.6-5.8-3c-1.9-1.3-3-2.6-3.2-4.1
		c-0.1-1.3,0.2-2.5,0.8-3.7c1.3-2.6,3.1-3.8,5.4-3.7c1.8,0.1,5,1.3,9.8,3.7c2.2,1,4.3,2.2,6.4,3.5c1.1,0.7,2,1.7,2.5,2.8
		c0.3,0.6,0.4,1.2,0.3,1.9c-0.1,0.9-0.4,1.8-0.8,2.6l-6.7-3.3c0.1-0.3,0.1-0.7,0-1.1c-0.4-0.6-1.7-1.5-3.9-2.6
		c-1.4-0.7-2.9-1.3-4.4-1.8c-0.9-0.2-1.4,0-1.7,0.6c-0.4,0.7,0,1.4,1,2c0.8,0.5,3.8,2,9,4.6c2.5,1.2,4.1,2.5,4.8,3.9
		c0.7,1.4,0.6,3.1-0.4,5.1c-0.5,1.1-1.3,2.2-2.2,2.9c-0.9,0.6-1.9,0.9-3,0.9c-1.9,0-5.4-1.3-10.4-3.8c-2.3-1.1-4.6-2.3-6.7-3.8
		c-1.1-0.8-2-1.8-2.6-3.1C351.5,70.6,351.7,68.8,352.6,67.3L352.6,67.3z"/>
	<path class="st2" d="M371.4,92.6l15.5-23.2l5.7,3.9l-1.5,2.2l0.3,0.2c1.1-0.7,2.5-0.8,3.8-0.5c2,0.7,3.8,1.6,5.5,2.9
		c1.7,1.1,3.2,2.3,4.7,3.7c0.9,0.9,1.6,2,1.9,3.3c0.3,1.1,0.2,2.2-0.2,3.2c-0.7,1.7-1.6,3.3-2.7,4.8c-0.7,1.1-1.5,2.1-2.3,3.1
		c-0.6,0.7-1.3,1.3-2,1.8c-1.3,0.9-2.9,1.1-4.4,0.7c-2.4-0.8-4.7-2-6.8-3.5c-1.6-1-3-2.2-4.2-3.6c-0.7-1-1.1-2.3-1-3.6l-0.3-0.2
		l-6,8.9L371.4,92.6z M395.9,81.5c-2.6-1.7-4.3-2.5-5.3-2.4c-0.9,0.1-2,1.1-3.2,2.8c-0.5,0.7-0.9,1.5-1.2,2.3
		c-0.2,0.6-0.1,1.1,0.2,1.7c0.4,0.9,1.7,2.1,3.9,3.5c2.2,1.4,3.8,2.2,4.8,2.3c0.6,0,1.1-0.2,1.6-0.6c0.7-0.7,1.3-1.4,1.8-2.3
		c0.5-0.7,0.9-1.5,1.2-2.3c0.1-0.6,0-1.2-0.3-1.7C398.5,83.4,397.3,82.3,395.9,81.5L395.9,81.5z"/>
	<path class="st2" d="M423.9,96.3c1.9,1.6,3.7,3.4,5.3,5.3c0.9,1,1.6,2.3,2,3.7c0.3,1.1,0.1,2.3-0.4,3.4c-0.9,1.6-1.9,3.1-3.2,4.4
		c-0.9,1-1.9,2.1-2.9,3c-0.6,0.6-1.3,1.1-2.1,1.5c-1.8,0.9-3.9,0.8-5.5-0.2c-2.5-1.6-4.9-3.4-7-5.4c-2-1.7-3.9-3.6-5.6-5.6
		c-0.9-1.1-1.5-2.3-1.8-3.7c-0.2-1.2,0-2.4,0.6-3.4c1.1-1.7,2.3-3.4,3.7-4.8c0.8-1,1.7-1.8,2.6-2.7c0.6-0.5,1.3-0.9,2.1-1.3
		c1.6-0.6,3.3-0.4,4.8,0.3C419.2,92.3,421.6,94.1,423.9,96.3L423.9,96.3z M420.2,100.5c-1.2-1.2-2.6-2.2-4.1-2.9
		c-0.6-0.2-1.3-0.1-1.9,0.2c-0.9,0.5-1.6,1.2-2.3,1.9c-0.7,0.7-1.2,1.4-1.6,2.3c-0.2,0.6-0.2,1.2,0.1,1.8c0.9,1.5,2,2.8,3.3,3.8
		c2.1,1.9,3.6,2.8,4.6,2.9s2.1-0.7,3.5-2.2c0.7-0.7,1.2-1.5,1.6-2.4c0.2-0.6,0.2-1.3-0.1-1.8C422.6,102.7,421.5,101.5,420.2,100.5
		L420.2,100.5z"/>
	<path class="st2" d="M437.1,109.2l4.5,5.3l-2.3,1.9l0.3,0.3c1.3-0.3,2.7-0.2,3.9,0.4c1.6,0.9,3,2.2,4.1,3.6
		c1.3,1.4,2.3,2.9,3.2,4.6c0.6,1.2,0.8,2.5,0.7,3.8c-0.1,1.2-0.5,2.3-1.2,3.3c-1.2,1.5-2.6,2.8-4.1,4l-6.8,5.8l-4.8-5.6l6.8-5.8
		c0.8-0.7,1.6-1.4,2.3-2.2c0.4-0.4,0.6-1,0.6-1.5c0.1-1-0.7-2.5-2.4-4.4s-3.1-2.9-4.3-3c-0.7,0-1.3,0.1-1.9,0.5
		c-1.1,0.7-2.1,1.4-3,2.3l-6,5.1L422,122L437.1,109.2z"/>
	<path class="st2" d="M445.7,140.4l4,6.3c-0.7,0.5-0.9,1.3-0.7,2.1c0.5,1.5,1.2,3,2.2,4.3c0.8,1.4,1.8,2.7,3,3.9
		c0.5,0.6,1.3,0.7,1.9,0.3c0.6-0.4,0.8-1.1,0.5-1.8c-1-1.9-2-3.7-3.2-5.4c-1.9-3-3-4.9-3.4-5.6c-1-2.1-1.2-3.8-0.6-5.2
		c0.6-1.1,1.4-2.1,2.5-2.7c2.5-1.6,4.6-1.7,6.5-0.3c1.4,1,3.6,3.8,6.4,8.2c1.4,2,2.6,4.1,3.6,6.4c0.6,1.2,0.8,2.5,0.7,3.8
		c-0.1,0.6-0.3,1.3-0.7,1.8c-0.6,0.7-1.3,1.3-2,1.9l-4-6.3c0.3-0.2,0.4-0.6,0.5-0.9c0-0.7-0.7-2.1-2-4.2c-0.8-1.4-1.7-2.7-2.8-3.8
		c-0.6-0.6-1.2-0.7-1.8-0.4c-0.7,0.4-0.7,1.2-0.2,2.2c0.4,0.8,2.2,3.7,5.3,8.6c1.5,2.3,2.2,4.3,2,5.8s-1.1,2.9-3,4.1
		c-1,0.7-2.2,1.2-3.5,1.3c-1.1,0.1-2.1-0.2-3-0.8c-1.6-1-3.9-3.9-6.9-8.6c-1.4-2.1-2.7-4.4-3.8-6.7c-0.6-1.2-0.8-2.6-0.6-4
		C443,142.6,444.1,141.2,445.7,140.4L445.7,140.4z"/>
	<path class="st2" d="M469.3,182.5l3,6.7c-1.6,0.7-3.4,0.7-5,0.1c-1.3-0.7-2.4-1.7-3.2-3c-1.4-2.2-2.6-4.5-3.6-6.9
		c-0.9-2-1.7-4.1-2.3-6.2c-0.4-1.3-0.4-2.6-0.2-3.9c0.3-1.2,0.9-2.2,1.8-3c1.5-1.1,3.1-2,4.8-2.8c1.3-0.6,2.6-1.1,3.9-1.6
		c0.9-0.3,1.7-0.4,2.6-0.4c1.8,0.1,3.5,1.1,4.5,2.6c1.6,2.3,2.9,4.7,3.9,7.2c1,2.1,1.8,4.2,2.5,6.5c0.6,2.3,0.5,4.2-0.4,5.6
		c-0.9,1.4-2.8,2.7-5.8,4.1c-0.3,0.1-0.9,0.4-1.8,0.8l-7.9-17.5c-0.7,0.3-1.3,0.6-1.9,1.1c-0.3,0.3-0.6,0.7-0.7,1.1
		c-0.2,0.9,0.2,2.5,1.3,4.9c0.5,1.1,1,2.2,1.7,3.3c0.3,0.5,0.7,1,1.3,1.3C468.4,182.7,468.9,182.7,469.3,182.5L469.3,182.5z
		 M474.8,180.2c0.5-0.2,1-0.5,1.4-0.8c0.2-0.2,0.4-0.4,0.5-0.7c0.3-0.8-0.1-2.5-1.2-5.1c-1-2.3-1.9-3.7-2.6-4.2
		c-0.9-0.6-2.1-0.6-3-0.1L474.8,180.2z"/>
	<path class="st2" d="M498.2,196.7l1.9,8.2l-12.4,2.9c-1.8,0.4-3.6,0.9-5.3,1.6c-1,0.4-1.6,1.4-1.6,2.5c0.1,2.4,0.5,4.8,1.1,7.1
		c0.4,2,1,4,1.6,5.9c0.3,0.9,0.8,1.6,1.5,2.1c0.4,0.2,0.9,0.3,1.4,0.4c0.9,0,1.7-0.1,2.6-0.3c1.2-0.2,2.2-0.4,3-0.6l12.4-2.9
		l1.9,8.2l-12.4,2.9c-4.3,0.9-7.2,1.5-8.6,1.6c-2.1,0.3-4.3-0.5-5.7-2.1c-1-1.2-1.8-2.6-2.3-4.1c-0.7-1.9-1.5-4.9-2.5-9.3
		c-0.8-3.3-1.3-5.8-1.6-7.6c-0.3-1.6-0.4-3.2-0.5-4.8c-0.2-2.7,1.4-5.3,4-6.3c0.9-0.4,1.9-0.7,2.8-1c0.9-0.3,2.9-0.8,6-1.5
		L498.2,196.7z"/>
	<path class="st2" d="M499.1,239.2l0.5,6.9l-3,0.2v0.4c1.3,0.5,2.3,1.5,2.9,2.7c0.7,1.7,1.1,3.5,1.2,5.4c0.2,1.9,0.1,3.7-0.2,5.6
		c-0.2,1.3-0.8,2.5-1.7,3.4c-0.8,0.9-1.8,1.6-2.9,2c-1.9,0.5-3.8,0.7-5.7,0.8l-8.9,0.6l-0.5-7.3l8.9-0.6c1.1,0,2.1-0.2,3.2-0.4
		c0.5-0.1,1-0.4,1.4-0.9c0.7-0.8,0.9-2.4,0.7-5s-0.7-4.2-1.6-5c-0.5-0.4-1.1-0.7-1.8-0.8c-1.2-0.1-2.5-0.1-3.7,0.1l-7.9,0.6
		l-0.5-7.3L499.1,239.2z"/>
	<path class="st2" d="M500.7,270.3l-0.2,7.4l-19.7-0.4l0.2-7.4L500.7,270.3z M508.7,270.5l-0.2,7.4l-5.5-0.1l0.2-7.4L508.7,270.5z"
		/>
	<path class="st2" d="M504.8,284.7l-0.7,7.3l-4.5-0.5l-1.2,11.6l-5.2-0.5l1.2-11.6l-5.7-0.6c-1-0.2-2-0.2-2.9,0
		c-0.7,0.3-1.1,1.1-1.3,2.5s0.1,2.3,0.7,2.7c0.2,0.2,0.5,0.3,0.7,0.3c0.3,0,0.9,0.1,1.9,0.2l-0.7,6.7c-1.4-0.1-2.7-0.4-4-0.7
		c-0.8-0.3-1.6-0.8-2.2-1.4c-0.9-0.9-1.5-2-1.6-3.2c-0.2-1.9-0.2-3.9,0-5.8c0.1-1.8,0.4-3.5,0.9-5.2c0.3-1,0.9-1.9,1.7-2.6
		c0.5-0.5,1.1-0.8,1.8-1c0.8-0.2,1.7-0.2,2.5-0.2c0.4,0,1.4,0.1,3.2,0.3l5.7,0.6l0.4-3.9l5.2,0.5l-0.4,3.9L504.8,284.7z"/>
</g>
</svg>
