<svg enable-background="new 0 0 113.4 113.5" viewBox="0 0 113.4 113.5" xmlns="http://www.w3.org/2000/svg"><circle cx="56.7" cy="56.8" fill="#fff" r="55.5"/><path d="m56.8 113.5c-31.5 0-56.8-25.4-56.8-56.9 0-31.2 25.4-56.6 56.7-56.6s56.7 25.4 56.7 56.6c0 31.5-25.3 56.9-56.6 56.9zm-25-7c7.7-4.5 15.1-8.9 22.5-13.2.5-.3 1-.5 1.7-.4 2.6.4 5.1.5 7.7.3 14-1.5 23.9-8.8 29.5-21.7.4-.9.9-1.6 1.8-2.1 5.5-3.2 10.9-6.4 16.3-9.7.6-.3 1.1-.7.7-1.5-.2-.1-.5-.3-.8-.5-5.4-3.1-10.8-6.3-16.2-9.4-.7-.4-1.2-.9-1.5-1.8-1.7-4.6-4.2-8.7-7.6-12.1-8.5-8.4-18.6-11.9-30.5-10.2-.9.1-1.7.1-2.5-.4-4.3-2.6-8.6-5.1-13-7.6-3.9-2.3-7.9-4.6-11.9-6.9-18.5 12.2-28.1 29.3-26.5 51.6 1.4 20.7 12.3 35.7 30.3 45.6z" fill="#b0cb14"/><path d="m31.8 106.5c-18-10-28.9-24.9-30.3-45.6-1.6-22.3 8-39.4 26.5-51.8 4.1 2.4 8 4.6 11.9 6.9 4.3 2.5 8.7 5 13 7.6.8.5 1.6.6 2.5.4 11.8-1.7 22 1.7 30.5 10.2 3.5 3.4 6 7.5 7.6 12.1.3.8.8 1.3 1.5 1.8 5.4 3.1 10.8 6.3 16.2 9.4.3.2.6.3.8.5.4.9-.1 1.2-.7 1.5-5.4 3.2-10.9 6.5-16.3 9.7-.9.5-1.4 1.2-1.8 2.1-5.6 12.9-15.5 20.2-29.5 21.7-2.6.3-5.1.1-7.7-.3-.7-.1-1.1.1-1.7.4-7.4 4.6-14.8 8.9-22.5 13.4zm35.2-74.5c-.2-.3-.4-.4-.8-.5-6.2-3.4-12.9-4.5-19.8-3.2-17.1 3.2-27.8 18.8-24.8 35.8 3.5 20 26.3 31.1 44.2 21.5.3-.2.7-.2.8-.7-14.2 2.5-24.6-5.1-28.9-13-5.4-9.8-5.2-19.7 1.2-28.9 6.6-9.4 16-12.9 27.3-11.2.3.3.5.2.8.2zm-10.7 59.3c-.6 0-1.1 0-1.7 0v .2c.6.1 1.1.1 1.7.2 3 .5 6.1.5 9.1 0 19.7-2.7 32.8-21.8 28.1-41.2-4-16.6-19.9-27.6-36.9-25.4-.7-.1-1.3.2-2.2.4h2.2c1.7 0 3.4.2 5 .6 17.5 3.4 28.4 19.6 26.6 35.7-1.9 16.7-15.1 28.8-31.9 29.5zm-20.3-32.9c0 13.3 10.7 24.1 24 24.2 13.3 0 24.2-10.7 24.2-24 .1-13.5-10.7-24.3-24.1-24.4-13.3.1-24.1 10.8-24.1 24.2z" fill="#fefefd"/><path d="m36 58.4c0-13.4 10.8-24.2 24.2-24.1 13.4 0 24.1 10.9 24.1 24.4-.1 13.2-10.9 24-24.2 24-13.4-.1-24.2-11-24.1-24.3z" fill="#b0cb11"/><path d="m66.2 31.9c-11.3-1.8-20.7 1.8-27.3 11.2-6.4 9.2-6.6 19.1-1.2 28.9 4.3 7.9 14.7 15.5 28.9 13-.1.5-.5.5-.8.7-17.9 9.5-40.7-1.6-44.2-21.5-3-17 7.7-32.6 24.8-35.8 6.9-1.3 13.6-.2 19.8 3.2z" fill="#b0cb14"/><path d="m56.6 25.2c17-2.2 32.9 8.8 36.9 25.4 4.7 19.4-8.4 38.4-28.1 41.2-3 .4-6.1.4-9.1 0 0-.1 0-.2 0-.4 16.7-.7 30-12.8 31.8-29.5 1.8-16.1-9-32.3-26.6-35.7-1.7-.3-3.3-.5-5-.6.1-.1.1-.3.1-.4z" fill="#b1cb1a"/><g fill="#cedb73"><path d="m56.6 25.2v.4c-.7 0-1.3 0-2.2 0 .9-.3 1.5-.5 2.2-.4z"/><path d="m56.3 91.3v.4c-.6-.1-1.1-.1-1.7-.2 0-.1 0-.1 0-.2z"/><path d="m66.2 31.9c0-.1 0-.3 0-.4.3 0 .6.2.8.5-.3 0-.5.1-.8-.1z"/></g></svg>