<svg enable-background="new 0 0 113.4 113.4" viewBox="0 0 113.4 113.4" xmlns="http://www.w3.org/2000/svg"><circle cx="56.7" cy="56.7" fill="#fff" r="56.7"/><circle cx="56.7" cy="55.1" fill="#fff" r="53.9"/><path d="m112.3 56.5c0 26.2-18.1 48.7-43.7 54.4-29.9 6.7-59.8-12.4-66.2-42.2-6.5-29.9 11.8-59.1 41.5-66.2 2.4-.6 3.6.4 3.2 2.5-.2.8-.7 1.2-1.4 1.6-2 1-4.2 1.5-6.3 2.5-13.8 6.5-22.3 17.2-25 32.2-3.9 21.7 9.9 43.3 32.3 48.8 23.4 5.8 47.6-9.7 52.1-33.4 4.2-21.7-8.1-42.4-29.2-49.3-.6-.2-1.2-.5-1.8-.8-1.4-.7-1.9-1.8-1.5-3.1.4-1.1 1.3-1.5 2.8-1.1 3.8.9 7.4 2.1 10.9 3.8 16.9 8.3 27.3 21.7 31.2 40.1.2 1 .4 2.1.5 3.2.4 2.4.6 4.8.6 7z" fill="#050302"/><path d="m56.7 7.6c22.4-.2 40.8 18.3 40.7 40.9-.1 22.4-18.5 40.7-41 40.5-22.4-.1-40.7-18.5-40.4-41.1.2-22.2 18.3-40.5 40.7-40.3zm-33.4 25c9.1 6.4 18.2 12.8 27.3 19.3 1 11.1 2 22.2 3 33.3 2.1.2 4.1.3 6.1 0 1-11.2 2-22.2 3-33.3 9.1-6.4 18.2-12.8 27.3-19.3-.9-1.9-1.8-3.6-2.9-5.2-10.2 4.7-20.3 9.4-30.5 14-10.2-4.7-20.3-9.4-30.5-14-1 1.6-2 3.3-2.8 5.2zm29.3 52.4c-9.9-17.2-19.8-34.3-29.7-51.5-10.4 23 5.6 49.2 29.7 51.5zm8 .2c13.7-2.2 23.5-9.1 29.6-21.3 5.1-10.4 4-23.4.2-30.3-9.9 17.2-19.8 34.3-29.8 51.6z" fill="#080504"/><path d="m23.3 32.6c.8-1.9 1.8-3.5 2.9-5.2 10.2 4.7 20.3 9.4 30.5 14 10.1-4.7 20.3-9.3 30.5-14 1.1 1.6 2.1 3.3 2.9 5.2-9.1 6.4-18.2 12.8-27.3 19.2-1 11-2 22.1-3 33.3-2 .3-4 .3-6.1 0-1-11.1-2-22.2-3-33.3-9.2-6.4-18.3-12.8-27.4-19.2z" fill="#fefdfd"/><path d="m52.6 85c-24.1-2.3-40.1-28.5-29.7-51.5 9.9 17.2 19.8 34.3 29.7 51.5z" fill="#fefefe"/><path d="m60.6 85.2c10-17.4 19.9-34.5 29.8-51.6 3.7 6.9 4.9 19.9-.2 30.3-6 12.3-15.9 19.1-29.6 21.3z" fill="#fefefe"/></svg>