<svg enable-background="new 0 0 113.4 113.4" viewBox="0 0 113.4 113.4" xmlns="http://www.w3.org/2000/svg"><circle cx="56.7" cy="56.7" fill="#fff" r="56.7"/><circle cx="56.7" cy="55.1" fill="#fff" r="53.8"/><path d="m58 112.1c-27.3 0-49.8-18.1-55.5-43.5-6.6-29.5 11.9-58.9 41.4-65.9 1.7-.4 2.6-.1 3 1 .5 1.4 0 2.5-1.6 3.2-1.7.7-3.6 1.3-5.3 2.1-14.3 6.4-23.1 17.4-25.6 33.1-3.6 22.4 11.7 44 34 48.3 23.1 4.4 45.2-10.1 50.2-33.1 4.7-21.3-7.9-42.9-28.8-49.7-.6-.2-1.3-.5-1.9-.8-1.5-.7-2-1.8-1.6-3.1.4-1.2 1.3-1.5 3-1.1 3.7.9 7.3 2 10.7 3.7 16.9 8.2 27.5 21.6 31.1 40 5.7 29.6-13.3 58-42.5 64.4-3.9.9-7.9 1.3-10.6 1.4z" fill="#050302"/><path d="m90.6 25.8c-11.4 5.3-22.6 10.4-33.9 15.6-11.2-5.1-22.4-10.3-33.7-15.5 5.4-9.1 17.2-17.4 31-18.1 15.4-.7 27.5 5.5 36.6 18z" fill="#040201"/><path d="m50.6 51.8c1.1 11.5 2.1 23 3.1 34.4-.1 0-.2.1-.3.1-10.3-18-20.8-36.1-31.2-54.2.1-.1.2-.1.3-.2 9.3 6.7 18.7 13.3 28.1 19.9z" fill="#0b0706"/><path d="m62.8 51.8c9.4-6.6 18.8-13.3 28.2-19.9.1.1.2.1.2.2-10.4 18.1-20.8 36.1-31.3 54.2-.1 0-.2-.1-.3-.1 1.1-11.5 2.2-22.9 3.2-34.4z" fill="#0b0706"/></svg>