<svg enable-background="new 0 0 113.4 113.4" viewBox="0 0 113.4 113.4" xmlns="http://www.w3.org/2000/svg"><circle cx="56.7" cy="56.9" fill="#fff" r="55.5"/><path d="m56.8 0c31.3 0 56.7 25.5 56.6 56.8-.1 31.4-25.5 56.7-57 56.6-31.2-.1-56.5-25.6-56.4-56.9.1-31.2 25.5-56.5 56.8-56.5zm-55.8 56.9c-.2 30 25.1 55.6 55.8 55.5 30.4-.1 55.7-25.5 55.6-55.9-.1-30.1-25.4-55.5-55.9-55.5-30.1.1-55.8 25.4-55.5 55.9z" fill="#fece00"/><path d="m1 56.9c-.4-30.5 25.4-55.8 55.5-55.9 30.5-.1 55.8 25.3 55.9 55.5.1 30.4-25.2 55.9-55.6 55.9-30.6.1-55.9-25.5-55.8-55.5zm93.1 13.6c-.3 0-.4.3-.5.5-1.1 1.3-2.2 2.5-3.3 3.8-1.8 2.2-4.1 3.8-6.5 5.2-4.6 2.7-9.6 4.3-15.1 4.5-6.7.3-13-.7-18.8-4.3-3-1.8-6.1-3.6-8.1-6.7.1 0 .1-.1.1-.1 5.8 2.9 11.9 4.5 18.4 3.9 4-.4 7.8-1.3 11.3-3 4.3-2.1 7.9-5.2 10.9-9.1 2.2-2.9 3.4-6.2 4.7-9.6-7.9 8-17.2 10.6-27.4 5.8s-14.7-14.3-12.8-24.3c2.3-11.9 10.1-18.5 22.5-19.5-1.7-.9-3.5-1-5.1-1.5-3.6-1-7.2-1.1-10.9-1-3.9 0-7.8.9-11.5 2.2-6.1 2.1-11.6 5.2-16.3 9.7-4.4 4.3-7.4 9.5-9.8 15.2-2.8 6.9-3.1 14-2.1 21.2.7 5.1 2.8 9.8 5.2 14.3 4.2 7.6 10.5 13.1 18.2 16.7 6.7 3.2 13.9 4.7 21.4 3.7 4.9-.7 9.8-1.5 14.2-3.8 9.8-5.2 17.1-12.8 21.1-23.3.2-.1.2-.3.2-.5.1 0 .2-.1.1-.3 0 .2-.1.3-.1.3z" fill="#b0cb10"/><path d="m41.8 73.6c2 3.1 5.1 4.9 8.1 6.7 5.8 3.5 12.1 4.6 18.8 4.3 5.5-.3 10.5-1.8 15.1-4.5 2.4-1.4 4.7-3 6.5-5.2 1.1-1.3 2.2-2.5 3.3-3.8h.4c-4 10.5-11.3 18.1-21.1 23.3-4.4 2.3-9.3 3.2-14.2 3.8-7.5 1-14.8-.5-21.4-3.7-7.7-3.6-14-9.1-18.2-16.7-2.5-4.5-4.6-9.2-5.2-14.3-1-7.2-.7-14.3 2.1-21.2 2.3-5.7 5.3-10.9 9.8-15.2 4.6-4.5 10.2-7.6 16.3-9.7 3.7-1.3 7.6-2.2 11.5-2.2 3.6 0 7.3 0 10.9 1 1.6.5 3.4.6 5.1 1.5-12.4 1.1-20.2 7.6-22.5 19.5-1.9 10 2.6 19.5 12.8 24.3s19.5 2.2 27.4-5.8c-1.3 3.3-2.4 6.7-4.7 9.6-3 3.8-6.6 6.9-10.9 9.1-3.5 1.7-7.3 2.7-11.3 3-6.6.6-12.6-1-18.4-3.9-.1 0-.2-.1-.3-.1-.1.1 0 .2.1.2z" fill="#fffffe"/><path d="m94 71c-.1 0-.3 0-.4 0 .1-.3.2-.5.5-.5 0 .2 0 .4-.1.5z" fill="#e7eec5"/><path d="m94.1 70.5c0-.1.1-.2.1-.3.1.2 0 .3-.1.3z" fill="#e7eec5"/><path d="m41.8 73.6c-.1 0-.2-.1-.1-.3.1 0 .2.1.3.1-.1.1-.1.2-.2.2z" fill="#b0cb10"/></svg>