<svg enable-background="new 0 0 113.4 113.4" viewBox="0 0 113.4 113.4" xmlns="http://www.w3.org/2000/svg"><circle cx="56.7" cy="56.7" fill="#fff" r="56.7"/><circle cx="56.7" cy="55.1" fill="#fff" r="53.7"/><path d="m112.1 56.7c0 26.4-18.6 49-44.6 54.3-29.5 6-58.6-13-64.9-42.3-6.4-29.5 11.3-58.2 40.5-65.8.6-.1 1.1-.2 1.7-.3 1.1-.2 1.9.1 2.2 1.3.3 1.1 0 2.2-1 2.8-.7.4-1.4.7-2.2 1-15.9 5.4-25.9 16.4-29.2 32.9-4.5 22.2 10.5 44.6 32.6 49.5 22.6 5 45.5-8.8 51.1-31.8 5.2-21.4-6.8-43.7-28.5-50.8-.7-.2-1.3-.5-2-.8-1.4-.7-1.9-1.8-1.5-3.1.4-1.1 1.3-1.5 2.8-1.1 3.7.9 7.3 2 10.8 3.7 16.9 8.2 27.3 21.6 31.2 40 .8 3.5 1 7 1 10.5z" fill="#050302"/><path d="m93.2 65.4c-1 2.1-2.1 4.1-3.5 6-.4-.3-.8-.5-1.2-.8-8 10.5-18.5 16.4-31.8 16.4s-23.8-5.8-31.8-16.3c-.3 0-.4.2-.6.3s-.4.2-.7.4c-1.4-1.9-2.5-3.9-3.5-6.1 4.7-2.2 9.3-4.4 14-6.6.7 1.3 1.3 2.5 2.2 3.7-1.7 1.2-3.3 2.3-5.1 3.6 5.9 8 13.8 12.5 23.6 13.1 11.6.7 21.8-5.2 27.1-13.2-1.6-1.2-3.3-2.3-5-3.5.8-1.2 1.5-2.4 2.1-3.7 1 .4 13.1 6 14.2 6.7z" fill="#0a0705"/><path d="m18 48c-.3-15.8 10.4-31.7 27.4-36.9 2-.6 3-.1 3.6 1.9.2.9.4 1.8.5 2.7.1 1.3-.5 2.3-1.9 2.8-3.2 1.2-6.2 2.5-9 4.5-8.8 6.5-13.1 15.3-13 26.3 0 1 .1 2.1 0 3.1-.1 1.7-.8 2.5-2.4 2.8-.5.1-1 .2-1.6.3-1.4.3-2.1 0-2.8-1.2-.6-1-.9-2.1-.9-3.2s.1-2.1.1-3.1z" fill="#090605"/><path d="m95.4 48.2c-.1 1.4.1 2.8-.2 4.2-.2.9-.5 1.7-1.1 2.4s-1.3 1.2-2.3.8c-.5-.2-1-.2-1.6-.3-1.9-.4-2.6-1.2-2.6-3.2 0-2.4.2-4.9-.1-7.3-1.8-12.3-8.5-20.8-20-25.5-.7-.3-1.4-.5-2-.8-1.1-.5-1.8-1.5-1.6-2.7.1-.9.2-1.9.5-2.8.7-1.9 1.5-2.4 3.5-1.8 6.3 1.9 11.9 5.2 16.5 9.9 7.2 7.5 11 16.5 11 27.1z" fill="#090605"/><g fill="#0a0705"><path d="m70.8 54.9c2.3 1.1 4.6 2.1 6.9 3.2-2.7 7.2-11.4 13-19.6 13.5-10.7.6-19.1-5.8-22.6-13.4 2.3-1.1 4.6-2.2 7-3.2 6 11.8 22.6 11.6 28.3-.1z"/><path d="m80 47.7c0 .7 0 1.5-.1 2.2-.3 1.9-1.6 2.9-3.5 2.6-.4-.1-.9-.2-1.3-.3-2-.4-2.8-1.4-2.8-3.5 0-3-.7-5.9-2.3-8.5-1.8-2.9-4.4-5.1-7.6-6.3-.5-.2-.9-.3-1.3-.8-1.2-1.5-.4-5.8 1.3-6.8.6-.4 1.2-.3 1.9-.1 9.1 3.1 15.5 11.8 15.7 21.5z"/><path d="m33.4 47.7c.2-9.6 6.5-18.2 15.6-21.4 1.5-.5 2.7 0 3.2 1.6.2.8.4 1.5.5 2.3.3 2.1-.2 2.9-2.1 3.8-6.2 2.9-9.3 7.7-9.5 14.5-.1 2.4-.8 3.1-3.1 3.7-3.9 1.1-4.8-1.3-4.6-4.5z"/></g></svg>