<?xml version="1.0" encoding="utf-8"?>
<!-- Generator: Adobe Illustrator 23.0.1, SVG Export Plug-In . SVG Version: 6.00 Build 0)  -->
<svg version="1.1" id="Capa_1" xmlns="http://www.w3.org/2000/svg" xmlns:xlink="http://www.w3.org/1999/xlink" x="0px" y="0px"
	 viewBox="0 0 538.6 538.6" style="enable-background:new 0 0 538.6 538.6;" xml:space="preserve">
<style type="text/css">
	.st0{fill:#B0CA0E;}
	.st1{fill:#F9CD13;}
	.st2{fill:#FFFFFF;}
</style>
<path class="st0" d="M269.7,0c148.7,0.1,269,121,268.9,270c-0.2,148.6-121.2,268.9-270.3,268.6C120,538.3-0.2,417.3,0,268.6
	C0.2,120.2,121.1-0.1,269.7,0L269.7,0z"/>
<path class="st1" d="M8.9,269C9.1,124.9,125.9,8.6,270.3,8.9C413.9,9.1,530,126.2,529.7,270.4C529.4,413.7,412.3,530,268.6,529.7
	S8.7,412.6,8.9,269L8.9,269z"/>
<path class="st0" d="M269.1,464.1C161.5,464,74.4,376.7,74.5,268.8c0.1-107.2,87.6-194.4,195-194.3
	c107.7,0.1,194.8,87.5,194.6,195.3C464,377.1,376.6,464.2,269.1,464.1L269.1,464.1z"/>
<path class="st2" d="M420.4,207.8c-4.6-10-10.4-19.4-17.2-28c-6.6-8.4-14-16.1-22.1-23c-15.7-13.3-33.8-23.6-53.2-30.3
	c-14.5-5-29.7-8.1-45-9.3c7.8,5.2,13,14.6,13,25.4c0,11.6-6,21.5-14.6,26.4c11.6,0.8,23,2.7,34.2,5.8c15.1,4.1,29.5,10.6,42.7,19.1
	c13.5,8.6,25.1,19.8,34.2,33c4.6,6.8,8.4,14.1,11.3,21.8c2.9,8,4.8,16.3,5.6,24.7c1.5,17.8-1.6,35.7-8.9,51.9
	c-7.4,16.6-18.9,31.3-32.6,43.2c-13.7,11.7-29.4,20.8-46.4,26.8c-16.8,5.9-34.4,8.9-52.2,8.9c17.8,0,35.5-2.4,52.7-7.2
	c17.6-4.9,34.3-12.6,49.5-22.7c16.3-10.7,30.3-24.6,41-40.9c5.7-8.8,10.3-18.2,13.8-28c3.6-10.4,5.8-21.1,6.6-32.1
	C434.3,250.8,430,228.2,420.4,207.8L420.4,207.8z"/>
<path class="st2" d="M170.6,368.5c-13.7-11.9-25.2-26.6-32.6-43.2c-7.3-16.3-10.4-34.2-8.9-52c1.6-16.7,7.4-32.7,16.9-46.5
	c9.1-13.2,20.7-24.4,34.2-33c13.2-8.5,27.6-15,42.8-19.1c11.2-3,22.7-5,34.2-5.7c-8.6-4.9-14.6-14.9-14.6-26.4
	c0-10.8,5.2-20.2,13-25.4c-15.3,1.2-30.4,4.3-44.9,9.3c-19.5,6.8-37.5,17.1-53.2,30.4c-16.6,14-30,31.4-39.3,51
	c-9.5,20.4-13.8,43-12.3,65.5c0.8,10.9,3,21.7,6.6,32c3.4,9.9,8,19.3,13.7,28c10.7,16.3,24.6,30.2,40.9,40.9
	c15.2,10.1,31.9,17.8,49.5,22.7c17.1,4.8,34.9,7.2,52.7,7.2c-17.8,0-35.4-3-52.2-8.8C200,389.3,184.3,380.2,170.6,368.5L170.6,368.5
	z"/>
<path class="st2" d="M268.3,440.5c0-121.8-60.1-185.6-178.5-189.9c-3.3-0.1-5.7-0.2-7.2-0.4l0.1-2c84.7-2,130.7-24.6,154.4-43.3
	c25.5-20.1,31.2-39.9,31.3-40.1l1-3.5l1,3.5c0.1,0.2,5.8,20.1,31.4,40.3c23.7,18.6,69.7,41.2,154.3,43.2l0.1,2
	c-1.5,0.2-3.9,0.3-7.2,0.4c-118.5,4.3-178.5,68.2-178.5,189.9H268.3z"/>
<path class="st0" d="M269.3,165c0,0,22.1,80.3,186.6,84.2c-18,2.2-186.6-9.3-186.6,191.3c0-200.6-168.6-189.1-186.6-191.3
	C247.2,245.3,269.3,165,269.3,165 M269.3,157.5l-1.9,7c-0.1,0.4-5.9,20-31.2,39.8c-23.6,18.5-69.3,40.9-153.5,42.9l-0.2,4
	c1.5,0.2,3.9,0.3,7.3,0.4c117.8,4.2,177.6,67.8,177.6,188.9h4c0-121.1,59.7-184.7,177.6-188.9c3.3-0.1,5.8-0.2,7.3-0.4l-0.2-4
	c-84.2-2-129.9-24.4-153.5-42.9c-25.4-19.9-31.2-39.7-31.2-39.8L269.3,157.5L269.3,157.5z"/>
<g>
	<path class="st2" d="M33.3,208.9l4.9-13.8l24.1-6.7l0.3-0.8l-19.4-6.7l2.8-8L72,182l-4.9,13.7L43,202.5l-0.3,0.9L62,210l-2.8,8
		L33.3,208.9z"/>
	<path class="st2" d="M65.2,167.2l-3.5,6.4c-1.1-0.6-1.9-1.5-2.6-2.5c-0.7-1.5-0.8-3.2-0.3-4.8c1-2.9,2.3-5.8,3.9-8.5
		c1-2,2.2-3.8,3.5-5.6c0.7-0.9,1.7-1.5,2.8-1.9c0.9-0.2,1.8-0.2,2.7,0c1.3,0.4,2.5,0.9,3.7,1.6l10.3,5.6l-3.4,6.1l-2.4-1.3l-0.2,0.3
		c0.7,1,1.1,2.2,0.9,3.4c-0.1,0.9-0.4,1.7-0.8,2.5c-0.4,1-1.3,2.6-2.4,4.7c-0.7,1.3-1.5,2.6-2.5,3.8c-0.6,0.7-1.4,1.3-2.3,1.6
		c-1.2,0.4-2.8,0.1-4.5-0.9c-2-1.1-3.2-2.4-3.5-3.8c-0.3-1.3-0.1-2.6,0.3-3.8c1-2.5,2.2-4.9,3.5-7.2c0.5-1.1,1.2-2.1,2-3
		c0.5-0.5,1.2-0.9,2-1.1l0.2-0.3l-0.9-0.5c-1.3-0.7-2.3-0.9-2.9-0.6s-1.4,1.4-2.5,3.4c-0.9,1.4-1.5,2.9-2.1,4.4
		C64.2,166.1,64.6,166.8,65.2,167.2L65.2,167.2z M72.1,165.4c-0.8,1.3-1.5,2.7-1.8,4.2c-0.1,0.7,0.3,1.4,0.9,1.7
		c0.6,0.4,1.4,0.3,1.9-0.1c0.9-1,1.7-2.1,2.3-3.3c0.9-1.5,1.6-3.1,2.1-4.8c0.2-0.8-0.2-1.6-0.9-2c-0.6-0.4-1.5-0.3-2,0.3
		C73.6,162.6,72.8,164,72.1,165.4L72.1,165.4z"/>
	<path class="st2" d="M64.8,139.4l4.3-5.9l8.8,6.5l0.2-0.3c-0.6-1.2-0.8-2.6-0.5-3.9c0.5-1.8,1.4-3.4,2.5-4.8c1-1.4,2.2-2.7,3.5-3.9
		c1-0.8,2.2-1.3,3.4-1.5c1.1-0.2,2.3,0,3.4,0.4c1.6,0.7,3,1.6,4.4,2.7l7.7,5.6l-4.3,5.9l-7.7-5.6c-0.7-0.5-1.4-1-2.2-1.4
		c-0.4-0.2-1-0.3-1.4-0.3c-1,0.1-2.3,1.2-3.8,3.2s-2.2,3.7-2,4.9c0.1,0.6,0.4,1.2,0.8,1.7c0.8,0.8,1.6,1.5,2.5,2.1l6.7,4.9l-4.3,5.9
		L64.8,139.4z"/>
	<path class="st2" d="M99.5,118l-5,5.3c-0.9-0.8-1.5-1.9-1.8-3.1c-0.3-1.6,0.1-3.3,1-4.7c1.7-2.6,3.7-5,5.9-7.2
		c1.5-1.6,3.1-3.1,4.8-4.5c0.9-0.6,2.1-1,3.2-1c0.9,0,1.8,0.2,2.6,0.7c1.1,0.7,2.2,1.6,3.2,2.5l8.5,8.1l-4.9,5l-1.9-1.8l-0.2,0.3
		c0.4,1.1,0.4,2.4,0,3.5c-0.3,0.8-0.8,1.6-1.4,2.3c-0.7,0.9-1.9,2.2-3.6,4c-1,1.1-2.2,2.1-3.4,3c-0.8,0.6-1.7,0.9-2.7,1
		c-1.3,0.1-2.7-0.6-4.2-2c-1.6-1.6-2.4-3.1-2.4-4.6c0.1-1.3,0.5-2.5,1.3-3.6c1.6-2.1,3.4-4.2,5.3-6.1c0.8-0.9,1.7-1.7,2.7-2.4
		c0.7-0.4,1.4-0.6,2.2-0.5l0.2-0.2l-0.7-0.7c-1.1-1.1-2-1.5-2.7-1.4s-1.8,1-3.3,2.6c-1.2,1.1-2.2,2.4-3.1,3.7
		C98.9,116.8,99,117.5,99.5,118L99.5,118z M106.6,118c-1.1,1-2.1,2.2-2.8,3.6c-0.3,0.7-0.1,1.4,0.4,1.9c0.5,0.5,1.3,0.7,1.9,0.4
		c1.1-0.7,2.1-1.6,3-2.6c1.3-1.2,2.4-2.6,3.3-4.1c0.4-0.7,0.3-1.6-0.3-2.2c-0.5-0.5-1.4-0.7-2-0.3
		C108.8,115.7,107.6,116.8,106.6,118L106.6,118z"/>
	<path class="st2" d="M106.3,91l5.7-4.6l6.6,8.3l0.3-0.2c-0.2-1.3,0-2.6,0.6-3.7c1-1.5,2.3-2.8,3.8-3.9c1.5-1.2,3.1-2.3,4.8-3.3
		c1.1-0.6,2.3-1,3.6-1.1c1.2,0,2.3,0.3,3.3,1c1.5,1.2,2.8,2.5,3.9,4c0.8,1,1.5,2,2.2,3c0.5,0.7,0.8,1.5,1.1,2.3
		c0.5,1.5,0.3,3.2-0.5,4.6c-1.4,2.1-3.2,3.9-5.3,5.4c-2.7,2.1-4.7,3.3-6.2,3.5c-0.9,0.1-1.7-0.1-2.5-0.4l-0.3,0.3l1.6,2l-5.3,4.3
		L106.3,91z M125.1,92.5c-1.4,1-2.6,2.2-3.5,3.7c-0.2,0.6-0.2,1.2,0,1.8c0.4,0.9,0.9,1.7,1.5,2.4c0.6,0.8,1.3,1.5,2.1,2
		c0.6,0.3,1.3,0.3,1.9,0c1.5-0.6,2.9-1.5,4.1-2.6c2-1.6,3.2-2.9,3.5-3.8c0.2-0.5,0.1-1.1-0.1-1.6c-0.4-0.8-1-1.6-1.6-2.3
		c-0.5-0.8-1.2-1.5-2-2c-0.6-0.3-1.2-0.3-1.8-0.1C127.7,90.5,126.3,91.4,125.1,92.5z"/>
	<path class="st2" d="M181.3,74.7l-4.2-3.1l-16.2,8.3v5.2l-8.5,4.3l0.5-31.1l11.6-5.9l25.3,17.9L181.3,74.7z M171.8,67.6l-9.4-6.8
		l-1.5,0.8v11.7L171.8,67.6z"/>
	<path class="st2" d="M205.5,59.4l6.9-2.3c0.5,1.6,0.4,3.4-0.4,4.9c-0.8,1.2-1.9,2.2-3.3,2.8c-2.3,1.2-4.7,2.1-7.2,2.9
		c-2.1,0.7-4.2,1.3-6.3,1.6c-1.3,0.2-2.6,0.2-3.9-0.2c-1.1-0.4-2.1-1.1-2.7-2.1c-1-1.6-1.7-3.2-2.2-5c-0.5-1.3-0.8-2.6-1.1-4
		c-0.2-0.9-0.2-1.8-0.1-2.6c0.3-1.8,1.4-3.4,3.1-4.2c2.4-1.3,4.9-2.3,7.5-3.1c2.2-0.8,4.4-1.4,6.6-1.8c2.4-0.4,4.2,0,5.5,1
		c1.3,1,2.4,3.1,3.4,6.1c0.1,0.3,0.3,0.9,0.6,1.9l-18.1,6c0.2,0.7,0.5,1.4,0.8,2c0.2,0.4,0.6,0.6,1,0.8c0.9,0.3,2.5,0,4.9-0.8
		c1.2-0.4,2.3-0.9,3.5-1.4c0.6-0.2,1-0.6,1.4-1.1C205.6,60.3,205.6,59.8,205.5,59.4L205.5,59.4z M203.7,53.7c-0.2-0.5-0.4-1-0.6-1.5
		c-0.2-0.3-0.4-0.5-0.7-0.6c-0.8-0.4-2.5-0.2-5.1,0.7c-2.3,0.8-3.8,1.5-4.4,2.1c-0.6,0.8-0.8,2-0.4,2.9L203.7,53.7z"/>
	<path class="st2" d="M212.6,43.5l6.7-1.3l0.6,2.9l0.4-0.1c0.4-1.2,1.1-2.3,2.2-3.1c1.4-0.9,3-1.5,4.6-1.8c2.9-0.6,5-0.4,6.4,0.5
		s2.3,2.8,2.9,5.7c0,0.2,0.1,0.6,0.2,1.3l-6.7,1.3c-0.1-0.8-0.4-1.6-0.8-2.3c-0.6-0.8-1.9-1-3.7-0.6c-1.4,0.1-2.6,0.9-3.3,2.1
		c-0.3,0.6-0.4,1.2-0.4,1.8c0.1,1.1,0.2,2.2,0.5,3.3l1.6,7.9l-7.1,1.4L212.6,43.5z"/>
	<path class="st2" d="M251.8,37c2.5-0.2,5-0.3,7.5-0.2c1.4,0.1,2.7,0.4,4,1.1c1,0.6,1.8,1.5,2.2,2.6c0.5,1.7,0.9,3.5,0.9,5.3
		c0.1,1.8,0.2,3.2,0.1,4.1c0,0.8-0.2,1.7-0.4,2.5c-0.6,1.9-2.1,3.3-4,3.8c-2.9,0.7-5.8,1.2-8.7,1.3c-2.6,0.3-5.2,0.3-7.8,0.2
		c-1.4-0.1-2.7-0.5-3.9-1.3c-1-0.7-1.7-1.6-2-2.8c-0.5-2-0.8-4-0.9-6c-0.1-1.2-0.1-2.5-0.1-3.7c0.1-0.8,0.2-1.6,0.6-2.3
		c0.7-1.5,1.9-2.7,3.5-3.2C245.6,37.6,248.7,37.1,251.8,37L251.8,37z M252.2,42.5c-1.7,0-3.3,0.3-4.8,0.9c-0.6,0.3-1,0.9-1.2,1.5
		c-0.2,1-0.3,2-0.2,3c0,0.9,0.2,1.8,0.5,2.7c0.3,0.5,0.7,1,1.3,1.2c1.6,0.4,3.3,0.5,5,0.3c2.8-0.2,4.5-0.6,5.2-1.3
		c0.7-0.6,1-2,0.9-4c0-1-0.2-1.9-0.6-2.8c-0.3-0.6-0.8-1-1.4-1.3C255.4,42.3,253.8,42.3,252.2,42.5z"/>
	<path class="st2" d="M270.5,35.9l6.8,0.6l-0.3,2.9h0.4c1.3-2.2,4-3.1,8.2-2.7c1.9,0.1,3.8,0.6,5.5,1.5c1.3,0.8,2.4,2,3,3.4
		c0.7-1.3,1.8-2.3,3.1-2.8c1.8-0.6,3.7-0.7,5.6-0.4c1.7,0.1,3.3,0.4,4.9,1c1.2,0.5,2.2,1.2,3,2.2c0.7,0.9,1.2,2,1.4,3.1
		c0.2,1.8,0.1,3.6-0.1,5.4l-0.9,9.1l-7.3-0.7l0.9-9.1c0.1-1,0.2-2,0.1-3c0-0.5-0.2-1-0.5-1.4c-0.7-0.8-2-1.3-4-1.4
		c-2.1-0.2-3.6,0.1-4.4,0.8c-0.5,0.5-0.8,1-1,1.7c-0.3,1.1-0.5,2.3-0.5,3.4l-0.8,8l-7.3-0.7l0.9-9.1c0.1-1,0.2-2,0.2-3
		c0-0.5-0.2-1-0.5-1.3c-0.6-0.8-1.9-1.3-3.9-1.5c-2.2-0.2-3.7,0.1-4.6,0.8c-0.5,0.4-0.8,1-1,1.7c-0.3,1.1-0.5,2.3-0.6,3.5l-0.8,8
		l-7.3-0.7L270.5,35.9z"/>
	<path class="st2" d="M331.1,44.5c2.4,0.6,4.8,1.4,7.1,2.3c1.3,0.5,2.4,1.3,3.4,2.4c0.7,0.9,1.2,2,1.2,3.2c0,1.8-0.3,3.6-0.9,5.3
		c-0.3,1.3-0.7,2.6-1.2,3.9c-0.3,0.8-0.7,1.5-1.2,2.2c-1.2,1.6-3.1,2.4-5,2.3c-2.9-0.3-5.9-0.8-8.7-1.7c-2.5-0.6-5-1.4-7.4-2.4
		c-1.3-0.5-2.4-1.4-3.2-2.5c-0.7-1-1-2.1-1-3.3c0.2-2,0.5-4,1.1-5.9c0.3-1.2,0.7-2.4,1.1-3.5c0.3-0.7,0.8-1.4,1.3-2
		c1.1-1.2,2.7-1.9,4.4-1.8C325.1,43.1,328.1,43.6,331.1,44.5L331.1,44.5z M329.7,49.8c-1.6-0.5-3.2-0.8-4.9-0.7
		c-0.7,0.1-1.2,0.5-1.6,1c-0.5,0.8-0.9,1.8-1.1,2.7c-0.3,0.9-0.4,1.8-0.4,2.7c0.1,0.6,0.4,1.2,0.9,1.5c1.4,0.9,3,1.6,4.7,1.9
		c2.7,0.7,4.5,0.9,5.4,0.6s1.6-1.5,2.1-3.5c0.3-0.9,0.4-1.9,0.4-2.8c-0.1-0.6-0.4-1.2-0.9-1.6C332.8,50.7,331.3,50.1,329.7,49.8
		L329.7,49.8z"/>
	<path class="st2" d="M351.6,42.7l6.7,2.8l-4.1,9.8l0.3,0.1c1-0.8,2.2-1.2,3.5-1.2c1.8,0.2,3.6,0.7,5.2,1.5c1.8,0.7,3.5,1.6,5.2,2.6
		c1.1,0.7,2,1.6,2.6,2.6c0.6,1,0.8,2.2,0.7,3.4c-0.3,1.8-0.9,3.6-1.7,5.3c-0.5,1.2-1,2.3-1.6,3.4c-0.4,0.7-0.9,1.4-1.5,2
		c-1.1,1.2-2.7,1.8-4.3,1.7c-2.5-0.3-5-1-7.3-2.1c-3.1-1.3-5.1-2.6-6-3.8c-0.5-0.7-0.7-1.5-0.8-2.4l-0.4-0.2l-1,2.3l-6.3-2.7
		L351.6,42.7z M359.3,60c-1.5-0.8-3.2-1.2-4.9-1.3c-0.6,0.1-1.2,0.3-1.6,0.8c-0.6,0.8-1.1,1.6-1.4,2.5c-0.4,0.9-0.7,1.8-0.8,2.8
		c0,0.7,0.3,1.3,0.9,1.7c1.3,1,2.7,1.8,4.2,2.4c2.4,1,4,1.4,5,1.3c0.6-0.1,1-0.4,1.4-0.9c0.5-0.8,1-1.6,1.3-2.5
		c0.4-0.8,0.7-1.8,0.8-2.7c0-0.6-0.3-1.2-0.7-1.7C362.2,61.4,360.8,60.6,359.3,60L359.3,60z"/>
	<path class="st2" d="M377.1,62.9l6.4,3.4l-9.2,17.2l-6.4-3.4L377.1,62.9z M380.9,55.9l6.4,3.4l-2.6,4.8l-6.4-3.4L380.9,55.9z"/>
	<path class="st2" d="M391.1,61.4l6.3,3.8l-14.1,23.6l-6.3-3.7L391.1,61.4z"/>
	<path class="st2" d="M404.2,95.7l5.9,4.3c-1,1.4-2.5,2.3-4.2,2.6c-1.5,0-2.9-0.3-4.2-1c-2.3-1.2-4.5-2.6-6.5-4.2
		c-1.8-1.2-3.5-2.6-5-4.2c-0.9-0.9-1.7-2-2.1-3.2c-0.3-1.1-0.3-2.3,0.1-3.4c0.7-1.7,1.7-3.3,2.8-4.7c0.8-1.1,1.7-2.2,2.6-3.3
		c0.6-0.6,1.3-1.2,2.1-1.6c1.6-0.8,3.6-0.8,5.2,0c2.5,1.2,4.8,2.6,6.9,4.3c1.9,1.3,3.7,2.7,5.4,4.3c1.7,1.7,2.5,3.4,2.4,5
		c-0.1,1.6-1.1,3.7-3,6.3c-0.2,0.3-0.6,0.8-1.2,1.6l-15.4-11.2c-0.4,0.6-0.8,1.2-1.1,1.8c-0.1,0.4-0.1,0.9,0,1.3
		c0.3,0.9,1.4,2,3.5,3.5c1,0.7,2,1.4,3.1,2c0.5,0.3,1.1,0.5,1.7,0.5C403.5,96.3,403.9,96,404.2,95.7z M407.8,91
		c0.3-0.4,0.6-0.9,0.8-1.4c0.1-0.3,0.2-0.6,0.1-0.9c-0.1-0.9-1.3-2.1-3.5-3.8c-2-1.4-3.4-2.2-4.3-2.3c-1.1,0-2.1,0.5-2.6,1.4
		L407.8,91z"/>
	<path class="st2" d="M434.4,92.7l22.9,24.1l-5.1,4.8l-8.4-8.9L429,126.9l-6.1-6.4l14.9-14.1l-8.4-8.9L434.4,92.7z"/>
	<path class="st2" d="M450.4,143.4l4.4,5.8c-1.4,1-3.1,1.4-4.8,1.2c-1.4-0.4-2.7-1.1-3.8-2.2c-1.8-1.8-3.5-3.8-5-5.9
		c-1.4-1.7-2.6-3.5-3.6-5.5c-0.6-1.1-1-2.4-1-3.7c0-1.2,0.4-2.3,1.1-3.3c1.2-1.4,2.5-2.7,4.1-3.7c1.1-0.9,2.3-1.6,3.5-2.4
		c0.8-0.4,1.6-0.7,2.5-0.9c1.8-0.3,3.7,0.3,5,1.6c2,1.9,3.8,3.9,5.4,6.1c1.4,1.8,2.7,3.7,3.9,5.7c1.1,2.1,1.4,4,0.8,5.5
		s-2.1,3.3-4.7,5.2l-1.6,1.1L445,133c-0.6,0.4-1.1,0.9-1.6,1.4c-0.3,0.4-0.4,0.8-0.4,1.2c0,0.9,0.8,2.4,2.3,4.4
		c0.7,1,1.4,1.9,2.3,2.8c0.4,0.5,0.9,0.8,1.5,0.9C449.6,143.8,450,143.7,450.4,143.4L450.4,143.4z M455.2,140
		c0.4-0.3,0.8-0.7,1.2-1.1c0.2-0.2,0.3-0.5,0.4-0.8c0.1-0.9-0.6-2.4-2.3-4.6c-1.5-2-2.6-3.1-3.4-3.5c-1-0.3-2.1-0.1-2.9,0.6
		L455.2,140z"/>
	<path class="st2" d="M466.2,154.6l-3.6-6.3c1.1-0.6,2.3-0.9,3.5-0.9c1.6,0.2,3.1,1,4.2,2.3c2,2.4,3.7,5,5.2,7.8
		c1.1,1.9,2.1,3.8,2.9,5.9c0.4,1.1,0.4,2.3,0.1,3.4c-0.2,0.9-0.7,1.7-1.4,2.3c-1,0.9-2.1,1.7-3.3,2.3l-10.2,5.8l-3.5-6.1l2.3-1.3
		l-0.2-0.3c-1.2,0.1-2.4-0.3-3.4-1c-0.7-0.6-1.3-1.2-1.8-2c-0.6-0.9-1.6-2.4-2.8-4.6c-0.8-1.3-1.4-2.7-1.9-4.1
		c-0.3-0.9-0.4-1.9-0.1-2.9c0.3-1.3,1.4-2.4,3.1-3.4c2-1.1,3.7-1.5,5.1-1c1.2,0.5,2.3,1.2,3.1,2.3c1.6,2.2,3,4.4,4.3,6.8
		c0.6,1,1.1,2.1,1.5,3.3c0.2,0.8,0.1,1.5-0.1,2.3l0.1,0.3l0.9-0.5c1.3-0.8,2-1.5,2.1-2.1s-0.5-2-1.5-3.9c-0.7-1.4-1.6-2.8-2.7-4.1
		C467.6,154.3,466.8,154.2,466.2,154.6L466.2,154.6z M464.1,161.4c-0.7-1.4-1.6-2.7-2.6-3.8c-0.5-0.4-1.3-0.5-1.9-0.1
		c-0.6,0.3-1,1-0.9,1.7c0.3,1.3,0.9,2.5,1.6,3.7c0.8,1.6,1.8,3,3,4.3c0.6,0.6,1.5,0.8,2.2,0.3c0.7-0.3,1-1.1,0.8-1.8
		C465.7,164.1,465,162.7,464.1,161.4L464.1,161.4z"/>
	<path class="st2" d="M483.4,172l2.4,6.4l-2.8,1l0.1,0.3c2.5,0.2,4.5,2.3,5.9,6.3c0.7,1.8,1.1,3.7,1,5.6c-0.1,1.5-0.8,3-1.8,4.1
		c1.5,0,2.9,0.6,3.9,1.6c1.3,1.4,2.2,3.1,2.8,4.9c0.6,1.6,1,3.2,1.1,4.9c0.1,1.3-0.2,2.5-0.7,3.6c-0.5,1-1.3,1.9-2.2,2.6
		c-1.6,0.9-3.3,1.7-5,2.2l-8.6,3.1l-2.4-6.8l8.6-3.1c0.9-0.3,1.9-0.7,2.7-1.2c0.4-0.3,0.8-0.6,1-1.1c0.4-0.9,0.3-2.3-0.4-4.2
		s-1.6-3.2-2.6-3.6c-0.6-0.2-1.3-0.3-2-0.2c-1.1,0.2-2.3,0.6-3.3,1l-7.6,2.8l-2.5-6.8l8.6-3.1c1-0.3,1.9-0.7,2.8-1.2
		c0.4-0.2,0.8-0.6,1-1c0.4-0.9,0.3-2.3-0.4-4.2c-0.7-2.1-1.6-3.3-2.6-3.8c-0.6-0.2-1.3-0.3-1.9-0.2c-1.2,0.2-2.3,0.6-3.4,1l-7.6,2.8
		l-2.5-6.9L483.4,172z"/>
	<path class="st2" d="M77.5,378.2l4.5,7l-5.4,13.2l0.3,0.4l9.8-6.4l2.6,4.1L76,405l-4.5-7l5.4-13.2l-0.3-0.4l-9.8,6.4l-2.6-4.1
		L77.5,378.2z"/>
	<path class="st2" d="M88.8,421.2l1.2-2.7l-6.5-8.1l-2.9,0.6l-3.4-4.3l17.4-3.3l4.6,5.8l-7.1,16.2L88.8,421.2z M91.7,415.1l2.7-6.1
		l-0.6-0.7l-6.5,1.4L91.7,415.1z"/>
	<path class="st2" d="M101.8,412.5l4.3,4.6l-1.1,8l7.9-0.7l4.2,4.6l-13.2,0.6l-4.1,3.8l-3.4-3.6l4.1-3.8L101.8,412.5z"/>
	<path class="st2" d="M117.5,428.7l3.7,3.4l-10.7,11.5l-3.7-3.4L117.5,428.7z"/>
	<path class="st2" d="M112.5,445.6l9.9-12.1l8.7,7.1c1.8,1.5,2.9,2.4,3.3,2.8c0.6,0.5,1.1,1.1,1.4,1.9c0.2,0.5,0.2,1.1,0,1.6
		c-0.3,0.7-0.7,1.3-1.2,1.9c-0.5,0.7-1.2,1.3-1.9,1.6c-0.7,0.2-1.4,0.1-2-0.2c0.4,0.4,0.7,0.9,0.9,1.4c0.3,0.9-0.1,2-1.1,3.2
		c-0.6,0.8-1.4,1.4-2.3,1.8c-0.5,0.1-1,0.1-1.4,0c-0.6-0.2-1.2-0.5-1.8-0.9c-0.4-0.3-1.7-1.3-3.7-3L112.5,445.6z M118.4,445.6
		l5.2,4.3c1.1,0.9,1.7,1.4,2,1.5c0.2,0.1,0.4,0.2,0.6,0.3c0.5,0.1,1-0.1,1.2-0.5c0.4-0.5,0.5-1,0.2-1.3c-0.1-0.1-0.9-0.8-2.3-2
		l-5.2-4.3L118.4,445.6z M122,441.2l5.2,4.3c0.6,0.6,1.4,1.1,2.1,1.5c0.4,0.1,0.8,0,1.1-0.5s0.4-0.9,0.2-1.3
		c-0.6-0.6-1.2-1.1-1.9-1.7l-5.2-4.3L122,441.2z"/>
	<path class="st2" d="M137.2,458.5l3.9,2.5c-0.4,0.6-0.6,1.2-0.4,1.5c0.1,0.3,0.4,0.5,0.6,0.7c0.3,0.2,1.3,0.9,2.9,1.9
		s2.7,1.7,3.1,1.9c0.3,0.2,0.6,0.3,0.9,0.4c0.4,0.1,0.7-0.2,1.1-0.7c0.2-0.3,0.3-0.7,0.2-1c-0.3-0.4-0.7-0.8-1.1-1
		c-0.5-0.3-1.5-1-3.1-2.1s-2.6-1.9-3.1-2.2c-0.7-0.5-1.4-1-2.1-1.7c-0.4-0.4-0.7-1-0.8-1.5c0-1.2,0.3-2.4,1.1-3.3
		c0.6-1.2,1.6-2.1,2.9-2.6c0.9-0.2,1.8-0.1,2.6,0.4c1.9,1,3.8,2.1,5.6,3.3c1.4,0.8,2.7,1.8,4,2.8c0.9,0.6,1.5,1.5,1.9,2.6
		c0,1.1-0.3,2.1-0.9,3l-0.4,0.6l-3.9-2.5c0.2-0.3,0.3-0.5,0.4-0.8c0-0.2,0-0.4-0.1-0.5c-0.2-0.3-0.5-0.6-0.8-0.8
		c-0.4-0.3-1.3-0.9-2.8-1.8c-1-0.7-2.1-1.3-3.2-1.8c-0.5-0.1-0.9,0.1-1.1,0.5c-0.3,0.3-0.3,0.9,0,1.2c1.3,1.1,2.7,2.1,4.1,3
		c2.1,1.4,3.5,2.4,4.1,3c0.6,0.4,1,1,1.4,1.6c0.3,0.6,0.4,1.2,0.3,1.9c-0.6,1.9-1.8,3.6-3.4,4.8c-0.5,0.3-1.1,0.4-1.7,0.3
		c-0.8-0.1-1.5-0.4-2.2-0.8c-0.9-0.5-2.6-1.5-4.9-3c-1.5-0.9-2.9-1.9-4.3-3c-0.7-0.5-1.3-1.2-1.8-1.9c-0.3-0.5-0.4-1.2-0.3-1.8
		c0.2-0.8,0.6-1.6,1.1-2.3L137.2,458.5z"/>
	<path class="st2" d="M159.9,460.5l4.3,2.2l-3.3,6.4c-0.5,0.9-0.9,1.9-1.3,2.9c-0.2,0.6,0,1.2,0.5,1.6c1.1,0.8,2.2,1.5,3.5,2.1
		c1,0.5,2.1,1,3.1,1.4c0.5,0.2,1,0.2,1.5,0.1c0.3-0.1,0.5-0.3,0.7-0.5c0.3-0.4,0.6-0.8,0.8-1.2c0.4-0.6,0.6-1.1,0.8-1.5l3.3-6.4
		l4.3,2.2l-3.3,6.4c-1.2,2.2-2,3.6-2.4,4.3c-0.7,1-1.8,1.7-3,1.7c-0.9,0-1.8-0.2-2.6-0.5c-1-0.4-2.7-1.2-4.9-2.3
		c-1.7-0.9-3-1.6-3.8-2.1c-0.8-0.5-1.5-1-2.2-1.5c-1.2-0.9-1.7-2.5-1.2-4c0.2-0.5,0.4-1.1,0.6-1.6c0.2-0.5,0.7-1.5,1.5-3.2
		L159.9,460.5z"/>
	<path class="st2" d="M173.7,484.9l5.8-14.5l10,4c2,0.8,3.2,1.3,3.8,1.6c1.1,0.5,2,1.4,2.4,2.6c0.1,1.5-0.1,2.9-0.8,4.2
		c-0.4,1.3-1.1,2.5-2.1,3.5c-0.5,0.4-1,0.6-1.6,0.6c-0.8,0-1.6-0.1-2.3-0.3c-0.7-0.2-1.9-0.6-3.6-1.3l-5.6-2.2l-1.4,3.6L173.7,484.9
		z M181,479.5l5.6,2.2c1,0.4,1.6,0.6,1.9,0.7c0.2,0.1,0.4,0.1,0.7,0.1c0.3,0,0.5-0.2,0.7-0.4c0.2-0.3,0.4-0.7,0.6-1.1
		c0.2-0.4,0.3-0.8,0.3-1.2c0-0.3-0.1-0.6-0.4-0.8c-0.7-0.4-1.5-0.8-2.3-1.1l-5.5-2.2L181,479.5z"/>
	<path class="st2" d="M198,477.6l16.6,5l-1.1,3.5l-12.1-3.6l-0.6,2.2l11.5,3.4l-1,3.3l-11.5-3.4l-0.7,2.4l12.2,3.6l-1.1,3.6l-16.7-5
		L198,477.6z"/>
	<path class="st2" d="M212.6,498.2l3.1-15.3l11.3,2.3c2.7,0.5,4.2,0.9,4.8,1.1c0.5,0.2,1,0.5,1.4,0.8c0.5,0.4,0.8,1,0.9,1.7
		c0.1,1,0,2-0.3,3c-0.1,0.8-0.4,1.6-0.7,2.4c-0.2,0.5-0.6,0.8-1,1.1c-0.6,0.3-1.3,0.4-2,0.3c0.8,0.2,1.5,0.6,1.9,1.3
		c0.2,0.4,0.3,0.8,0.3,1.2c-0.1,0.9-0.2,1.8-0.4,2.6l-0.3,1.4l-4.6-1l0.2-0.8c0.1-0.6,0.2-1.2,0.3-1.8c0-0.3,0-0.6-0.2-0.9
		c-0.2-0.2-0.4-0.4-0.6-0.5c-0.6-0.2-1.3-0.4-1.9-0.5l-6.6-1.3l-0.8,3.9L212.6,498.2z M218.8,491.5l6.6,1.3c1.2,0.2,1.8,0.3,2.1,0.4
		c0.2,0,0.4,0,0.6-0.1c0.2-0.1,0.4-0.3,0.5-0.5c0.2-0.3,0.3-0.7,0.4-1.1c0.1-0.4,0.1-0.8,0.1-1.2c0-0.3-0.2-0.5-0.4-0.6
		c-0.2-0.1-0.4-0.2-0.6-0.3c-0.2-0.1-0.9-0.2-2-0.4l-6.6-1.3L218.8,491.5z"/>
	<path class="st2" d="M234.3,497.3l4.6,0.5c-0.1,0.8,0,1.3,0.3,1.5c0.3,0.2,0.5,0.3,0.9,0.4c0.4,0.1,1.5,0.2,3.4,0.5
		c1.9,0.2,3.2,0.3,3.6,0.4c0.3,0,0.7,0,1-0.1c0.4-0.1,0.6-0.5,0.7-1.1c0.1-0.4,0-0.7-0.3-1c-0.5-0.2-1-0.4-1.5-0.4
		c-0.6-0.1-1.8-0.3-3.7-0.5s-3.2-0.5-3.8-0.6c-0.9-0.1-1.8-0.3-2.6-0.6c-0.5-0.2-1-0.5-1.3-1c-0.6-1.1-0.7-2.3-0.5-3.5
		c0-1.3,0.5-2.6,1.4-3.6c0.7-0.5,1.6-0.8,2.5-0.8c2.2,0,4.3,0.2,6.5,0.5c1.6,0.1,3.2,0.4,4.8,0.7c1.1,0.2,2.1,0.7,2.8,1.5
		c0.5,0.9,0.7,2,0.5,3.1c0,0.1,0,0.4-0.1,0.7l-4.6-0.5c0-0.3,0-0.6,0-0.9c0-0.2-0.1-0.3-0.3-0.4c-0.3-0.2-0.7-0.3-1.1-0.4
		c-0.5-0.1-1.6-0.2-3.3-0.4c-1.2-0.2-2.5-0.3-3.7-0.2c-0.4,0.1-0.7,0.4-0.8,1c-0.1,0.4,0.1,0.9,0.6,1.1c1.6,0.4,3.3,0.7,5,0.8
		c2.5,0.4,4.2,0.6,5,0.8c0.7,0.1,1.4,0.4,2,0.8c0.5,0.4,0.9,0.9,1,1.5c0.2,0.9,0.2,1.7,0.1,2.6c-0.1,1.1-0.4,2.2-1,3.2
		c-0.3,0.5-0.8,0.8-1.4,1c-0.7,0.2-1.5,0.3-2.3,0.3c-1,0-3-0.2-5.7-0.5c-2.4-0.3-4.1-0.5-5.2-0.8c-0.9-0.2-1.7-0.5-2.4-0.9
		c-0.5-0.4-0.9-0.9-1.1-1.5c-0.2-0.8-0.2-1.7-0.1-2.5L234.3,497.3z"/>
	<path class="st2" d="M266,489c2.3,0,4.7,0.1,7,0.4c1.6,0.1,2.9,1.1,3.3,2.7c0.5,3.5,0.5,7-0.2,10.4c-0.5,1.5-1.8,2.5-3.4,2.5
		c-2.3,0.2-4.6,0.2-6.9,0.1c-2.3,0-4.7-0.1-7-0.4c-1.6-0.1-2.9-1.1-3.3-2.7c-0.3-1.7-0.4-3.5-0.3-5.3c0-1.7,0.1-3.4,0.5-5.1
		c0.5-1.5,1.8-2.5,3.4-2.5C261.4,489,263.7,488.9,266,489z M266,493.1c-1.5-0.1-3.1,0-4.6,0.1c-0.5,0.1-1,0.5-1.2,1
		c-0.3,1-0.4,2.1-0.3,3.2c0,0.7,0,1.4,0.1,2.1c0.2,0.8,0.9,1.4,1.7,1.4c0.7,0.1,2.1,0.2,4.1,0.2s3.2,0,3.8,0c0.5,0,1-0.2,1.4-0.4
		c0.3-0.2,0.5-0.6,0.6-0.9c0.1-0.7,0.2-1.3,0.2-2c0-0.8,0-1.7-0.1-2.5c0-0.4-0.2-0.8-0.4-1.2c-0.3-0.4-0.8-0.6-1.2-0.6
		C269.6,493.2,268.2,493.1,266,493.1L266,493.1z"/>
	<path class="st2" d="M278.2,489.2l5-0.4l0.9,11.6l11.1-0.8l0.3,4l-16.1,1.2L278.2,489.2z"/>
	<path class="st2" d="M297.4,503.5l-2.5-15.5l11.1-1.8c2-0.3,3.3-0.5,3.9-0.6c0.7-0.1,1.3-0.1,2-0.1c1.5,0,2.8,0.8,3.5,2.1
		c0.3,0.5,0.5,1.1,0.6,1.7c0.2,0.6,0.4,1.5,0.5,2.8s0.4,2.4,0.4,3.1c0,0.7,0,1.3-0.1,2c-0.2,1.4-1.1,2.5-2.4,3
		c-0.7,0.3-1.4,0.5-2.1,0.6c-0.8,0.2-2,0.4-3.7,0.7L297.4,503.5z M301.4,498.8l6.5-1.1c0.9-0.1,1.8-0.3,2.6-0.5
		c0.4-0.1,0.8-0.3,1.1-0.6c0.2-0.3,0.4-0.7,0.4-1.1c0-0.7-0.1-1.5-0.2-2.2c-0.1-0.7-0.3-1.4-0.5-2.1c-0.1-0.4-0.4-0.7-0.6-1
		c-0.4-0.3-0.8-0.4-1.2-0.4c-1,0.1-1.9,0.2-2.9,0.4l-6.5,1.1L301.4,498.8z"/>
	<path class="st2" d="M316.7,484.2l4.9-1.1l3.5,15.3l-4.9,1.1L316.7,484.2z"/>
	<path class="st2" d="M323.5,482.7l16.6-4.9l1,3.5l-12.1,3.5l0.6,2.2l11.5-3.4l1,3.3l-11.5,3.4l0.7,2.4l12.2-3.6l1.1,3.6l-16.7,4.9
		L323.5,482.7z"/>
	<path class="st2" d="M346.9,492.1l-5.7-14.6l10.7-4.2c2.5-1,4-1.5,4.5-1.7c0.5-0.1,1.1-0.2,1.6-0.1c0.7,0.1,1.3,0.4,1.7,0.9
		c0.6,0.8,1.1,1.7,1.4,2.6c0.3,0.8,0.6,1.6,0.7,2.4c0.1,0.5,0,1-0.3,1.5c-0.4,0.6-0.9,1-1.5,1.4c0.7-0.3,1.6-0.3,2.3,0
		c0.4,0.2,0.6,0.5,0.9,0.8c0.4,0.8,0.8,1.6,1.1,2.5l0.5,1.4l-4.4,1.7l-0.3-0.8c-0.2-0.6-0.5-1.2-0.8-1.7c-0.2-0.3-0.4-0.5-0.6-0.7
		c-0.3-0.1-0.5-0.1-0.8,0c-0.6,0.2-1.2,0.4-1.8,0.6l-6.3,2.5l1.5,3.7L346.9,492.1z M348.4,483l6.2-2.5c1.1-0.5,1.7-0.7,1.9-0.8
		c0.2-0.1,0.3-0.2,0.5-0.4c0.1-0.2,0.2-0.5,0.2-0.7c0-0.4-0.2-0.8-0.3-1.1c-0.1-0.4-0.3-0.7-0.5-1c-0.2-0.2-0.4-0.3-0.7-0.3
		c-0.2,0-0.4,0-0.6,0.1c-0.2,0.1-0.9,0.3-1.9,0.7l-6.3,2.5L348.4,483z"/>
	<path class="st2" d="M372.9,481.2l-7.4-13.8l9.4-5.1c1.2-0.7,2.4-1.3,3.7-1.8c1.1-0.5,2.3-0.6,3.5-0.2c1.2,0.8,2.2,2,2.7,3.3
		c0.8,1.2,1.2,2.5,1.3,3.9c0,0.6-0.2,1.2-0.6,1.7c-0.5,0.6-1.1,1.2-1.7,1.6c-1.1,0.7-2.2,1.3-3.3,1.9l-5.3,2.9l1.8,3.4L372.9,481.2z
		 M373.5,472.1l5.3-2.8c1-0.5,1.5-0.9,1.7-1c0.2-0.1,0.4-0.3,0.5-0.5c0.2-0.2,0.2-0.5,0.2-0.8c-0.1-0.4-0.3-0.8-0.5-1.1
		c-0.2-0.4-0.4-0.7-0.7-1c-0.2-0.2-0.5-0.3-0.8-0.2c-0.8,0.3-1.6,0.6-2.3,1l-5.3,2.8L373.5,472.1z"/>
	<path class="st2" d="M391.6,470.9l-8.6-13l9.6-6.4c2.3-1.5,3.6-2.4,4.1-2.6c0.5-0.3,1-0.4,1.6-0.4c0.7,0,1.3,0.2,1.9,0.5
		c0.8,0.7,1.4,1.4,1.9,2.3c0.5,0.7,0.9,1.4,1.2,2.2c0.2,0.5,0.2,1,0,1.5c-0.2,0.6-0.7,1.2-1.2,1.6c0.7-0.4,1.5-0.6,2.3-0.5
		c0.4,0.1,0.7,0.3,1,0.6c0.6,0.7,1.1,1.4,1.6,2.2l0.8,1.2l-3.9,2.6l-0.5-0.7c-0.3-0.5-0.7-1-1.1-1.5c-0.2-0.2-0.5-0.4-0.8-0.5
		c-0.3-0.1-0.6,0-0.8,0.1c-0.6,0.3-1.1,0.6-1.7,1l-5.6,3.7l2.2,3.3L391.6,470.9z M391.2,461.7l5.6-3.7c1-0.7,1.5-1.1,1.7-1.2
		c0.2-0.1,0.3-0.3,0.4-0.5c0.1-0.2,0.1-0.5,0-0.7c-0.1-0.4-0.3-0.7-0.5-1c-0.2-0.3-0.5-0.6-0.8-0.9c-0.2-0.2-0.5-0.2-0.7-0.2
		c-0.2,0-0.4,0.1-0.6,0.2c-0.2,0.1-0.8,0.5-1.7,1.1l-5.6,3.7L391.2,461.7z"/>
	<path class="st2" d="M408.1,439.6c1.8-1.5,3.6-2.9,5.5-4.2c1.2-1,3-1,4.3-0.1c1.4,1.1,2.6,2.4,3.6,3.8c1.2,1.3,2.2,2.7,3,4.3
		c0.6,1.4,0.2,3.1-0.9,4.1c-1.6,1.6-3.4,3.1-5.2,4.6c-1.8,1.5-3.6,2.9-5.6,4.3c-1.2,1-3,1-4.3,0.1c-1.4-1.1-2.6-2.4-3.7-3.8
		c-1.1-1.3-2.1-2.7-2.9-4.2c-0.6-1.4-0.2-3.1,1-4.1C404.5,442.6,406.3,441.1,408.1,439.6L408.1,439.6z M410.7,442.8
		c-1.2,0.9-2.4,1.9-3.4,3c-0.3,0.4-0.4,1-0.3,1.5c0.5,1,1.1,1.8,1.8,2.6c0.4,0.5,0.9,1.1,1.4,1.5c0.6,0.5,1.6,0.5,2.2,0
		c0.6-0.4,1.7-1.2,3.3-2.5s2.5-2,2.9-2.5c0.4-0.3,0.6-0.8,0.8-1.3c0.1-0.4,0-0.8-0.2-1.1c-0.3-0.6-0.7-1.2-1.2-1.7
		c-0.5-0.7-1.1-1.3-1.7-1.9c-0.3-0.3-0.7-0.5-1.1-0.7c-0.5-0.1-1,0-1.4,0.3C412.8,441,411.7,441.9,410.7,442.8z"/>
	<path class="st2" d="M429,430.1l7.7-7.7c0.1,0.1,0.2,0.2,0.3,0.3c1.6,1.6,2.7,2.8,3.4,3.6c1.1,1.3,1.2,3.2,0.1,4.5
		c-0.5,0.8-1.1,1.5-1.7,2.2c-0.7,0.8-1.8,1.9-3.3,3.4c-1.3,1.4-2.7,2.7-4.2,3.9c-0.7,0.6-1.6,1-2.5,1.3c-0.5,0.1-1,0.1-1.5-0.1
		c-0.6-0.2-1.2-0.5-1.7-1c-1.1-0.9-2.1-1.9-3.1-2.9c-1-1-1.8-1.8-2.2-2.4c-0.4-0.5-0.8-1.1-1.1-1.7c-0.5-1.2-0.4-2.6,0.5-3.6
		c1.5-2,3.1-3.8,4.9-5.5c1.4-1.4,2.5-2.5,3.4-3.2c0.7-0.6,1.5-1.2,2.4-1.7c1-0.6,2.3-0.5,3.3,0.2c0.7,0.5,1.3,1.1,1.9,1.7l-3.4,3.4
		c-0.2-0.2-0.4-0.4-0.7-0.6c-0.2-0.1-0.3-0.1-0.5-0.1c-0.5,0.2-1,0.5-1.4,0.9c-0.6,0.5-1.4,1.3-2.5,2.4s-2,2-2.4,2.6
		c-0.4,0.4-0.6,0.8-0.7,1.3c0,0.4,0.1,0.8,0.4,1.1c0.5,0.7,1.1,1.3,1.7,1.9c0.6,0.7,1.3,1.3,2.1,1.9c0.3,0.3,0.7,0.4,1.1,0.4
		c0.4,0,0.7-0.2,1-0.5c0.3-0.3,1.3-1.2,2.9-2.7s2.4-2.5,2.8-2.8c0.3-0.3,0.5-0.6,0.6-1c0.1-0.2,0.1-0.5,0-0.7
		c-0.2-0.3-0.4-0.6-0.6-0.8l-0.3-0.3l-4.4,4.4L429,430.1z"/>
	<path class="st2" d="M444.9,426.5l-12.1-10l7.3-8.9c1.7-2.1,2.8-3.3,3.2-3.7c0.4-0.4,0.9-0.7,1.4-0.9c0.6-0.2,1.3-0.2,1.9,0
		c0.9,0.4,1.8,1,2.5,1.6c0.7,0.5,1.3,1.1,1.8,1.8c0.3,0.4,0.5,0.9,0.5,1.4c-0.1,0.7-0.3,1.3-0.7,1.9c0.5-0.6,1.2-1,2-1.1
		c0.4,0,0.8,0.1,1.1,0.3c0.7,0.5,1.4,1,2.1,1.6l1.1,0.9l-3,3.6l-0.6-0.5c-0.5-0.4-1-0.8-1.5-1.1c-0.3-0.2-0.6-0.3-0.9-0.3
		c-0.3,0-0.5,0.1-0.7,0.3c-0.5,0.5-0.9,0.9-1.3,1.5l-4.3,5.2l3.1,2.5L444.9,426.5z M441.9,417.8l4.3-5.2c0.7-0.9,1.1-1.5,1.3-1.7
		c0.1-0.2,0.2-0.4,0.2-0.6c0-0.2,0-0.5-0.2-0.7c-0.2-0.3-0.5-0.6-0.8-0.8c-0.3-0.3-0.6-0.5-1-0.6c-0.2-0.1-0.5-0.1-0.7,0
		c-0.2,0.1-0.4,0.2-0.5,0.4c-0.2,0.2-0.6,0.7-1.3,1.5l-4.3,5.2L441.9,417.8z"/>
	<path class="st2" d="M468.4,395.3l-3-0.4l-5.8,8.6l1.5,2.6l-3,4.5l-8.4-15.6l4.1-6.1l17.6,1.9L468.4,395.3z M461.7,394.4l-6.6-0.8
		l-0.5,0.8l3.2,5.8L461.7,394.4z"/>
	<path class="st2" d="M458.5,382l4-7.7l11.2,0.5l-6.9-8.8l4-7.6l13.9,7.2l-2.2,4.2l-10.4-5.5l-0.4,0.7l7.7,10.6l-1.8,3.5l-13.1-0.1
		l-0.4,0.7l10.5,5.3l-2.1,4.2L458.5,382z"/>
</g>
</svg>
