<svg enable-background="new 0 0 113.4 113.4" viewBox="0 0 113.4 113.4" xmlns="http://www.w3.org/2000/svg"><circle cx="56.7" cy="56.7" fill="#3d3d3d" r="56.7"/><circle cx="56.7" cy="56.7" fill="#fff" r="55"/><g stroke-miterlimit="10" stroke-width=".5"><path d="m9.1 57.2c.2-9.9 2.9-18.5 8-26.4 3.6-5.5 8-10.2 13.5-13.8 5.8-3.9 12.2-6.4 19.2-7.3 2.3-.3 3.5.4 4.5 2.5.8 1.6.9 3.2.7 4.9-.3 4.4-.7 8.7-1.5 13-.3 1.7-.8 3.4-1.4 5.1-.5 1.3-1.3 2.4-2.6 3.2-1.8 1.1-3.6 2.4-5.5 3.4-2 1-3.9.8-5.7-.7-1.7-1.5-3.4-2.9-5.8-3.1-2.1-.1-4.1.2-6.2.6-.4.1-.8.3-.6.8 1.1 2.9 1.9 5.9 4.7 7.8 1 .7 2.1 1.1 3.2 1.4 2.6.7 3.7 2.5 3.9 5 .2 2.4-.1 4.7-.3 7.1-.1 1.4-1 2.5-1.9 3.5-3.4 3.7-7.4 6.6-11.4 9.5-1.1.8-2.3 1.5-3.5 2.3-1.4 1-3 1.1-4.6 1-1.4-.1-2.4-.9-2.9-2.2-1.9-4.5-3.1-9.1-3.4-13.9-.2-1.5-.5-2.8-.4-3.7z" fill="#3d3d3d" stroke="#bcce63"/><path d="m104.2 56.8c.2 5.7-1 11.2-3 16.5-1.3 3.3-4.4 4.5-7.5 2.6-5.1-3.2-10-6.7-14.3-10.8-2.2-2.1-3.3-4.5-3.2-7.6.1-1.4-.1-2.9 0-4.3.1-2.6 1.2-4.2 3.7-4.9 4.8-1.2 6.6-4.9 7.9-9.1.2-.6-.1-.9-.7-1-2.2-.4-4.4-.8-6.7-.5-1.9.2-3.3 1.2-4.7 2.5-2.4 2.1-4 2.4-6.8.9-2-1.1-3.9-2.3-5.8-3.7-1.4-1-1.9-2.7-2.3-4.2-1.3-4.6-1.8-9.4-2.2-14.2-.1-1.2-.2-2.4-.2-3.6-.1-1 .2-1.9.5-2.8 1-2.7 2.5-3.6 5.3-3.2 8.2 1.2 15.6 4.4 22 9.7 9.4 7.7 15.2 17.6 17.5 29.6.3 1.4.4 2.8.5 4.2.1 1.3 0 2.6 0 3.9z" fill="#3d3d3d" stroke="#bcce63"/><path d="m57.6 104c-14.3-.3-26.1-5-35.5-15.1-.9-1-1.8-2.1-2.6-3.1-1-1.3-1.1-2.7-.3-4.2.6-1.2 1.4-2.3 2.6-2.9 5.5-2.9 11.1-5.5 17.2-7.1 2.3-.6 4.4-.6 6.5.7 1.7 1 3.5 1.7 5.1 2.9 1.7 1.3 2.6 3 2 5.1-1.4 4.7.8 8.2 3.7 11.5.5.6 1 .5 1.5 0 3-3.3 5-6.8 3.7-11.5-.6-2.1.3-3.8 2-5 2.2-1.6 4.6-2.7 7.1-3.8 1.4-.6 2.9-.2 4.4.1 5 1.2 9.8 3.3 14.4 5.6 1.5.7 3 1.3 4.2 2.5 2.2 2.3 2.4 4.4.4 6.9-8 9.7-18.3 15.3-30.7 16.9-2.3.3-4.3.4-5.7.5z" fill="#3d3d3d" stroke="#bcce63"/><path d="m67.3 55.8v6.1c0 3.1-2.5 5.6-5.6 5.6-2.4 0-4.7 0-7.1 0-1.6 0-2.1.4-2.6 1.9-.2.6-.5.7-1.1.7-1.1 0-2.2 0-3.2 0-.7 0-1-.3-1-1 0-1.4 0-2.8.3-4.2.2-1.1 1.1-1.9 2.1-2.2 1-.4 2-.5 3.1-.5h7.8c1.6 0 2.2-.5 2.2-2.1 0-2.9.1-5.8-.2-8.7-.1-1.4-1.1-1.7-2.2-1.8-1.7-.1-3.4-.1-5.2 0-1.1 0-1.6-.3-1.5-1.5s0-2.3 0-3.5c0-.8.3-1.3 1.3-1.3 2.5.1 5-.1 7.4.2 3.6.5 5.2 2.2 5.4 5.9v3.2c.1 1 .1 2.1.1 3.2z" fill="#8bcd1d" stroke="#c3e261"/><path d="m51.6 56.2c0-2 1.5-3.6 3.5-3.6s3.5 1.5 3.5 3.6c0 2-1.7 3.6-3.6 3.6-1.9-.1-3.4-1.7-3.4-3.6z" fill="#8bcd1d" stroke="#c3e261"/></g></svg>