<?xml version="1.0" encoding="UTF-8"?><svg id="Capa_1" xmlns="http://www.w3.org/2000/svg" viewBox="0 0 566.93 566.93"><defs><style>.cls-1,.cls-2{fill:#fff;}.cls-3{fill:#15100c;}.cls-4{fill:#0d0703;}.cls-2{font-family:Cambria, Cambria;font-size:74.22px;}.cls-5{fill:#191411;}.cls-6{fill:#201b19;}</style></defs><circle class="cls-1" cx="283.46" cy="283.46" r="279.21"/><g><circle class="cls-1" cx="283.52" cy="275.54" r="265.17"/><path class="cls-4" d="M552.11,232.49c-17.67-91.8-70.69-157.84-155.08-198.35-16.47-7.91-33.82-13.44-51.57-17.68-7.94-1.9-12.11-.22-14.11,5.28-2.32,6.38,.12,11.9,6.88,15.14,3.2,1.54,6.44,3.07,9.8,4.16,107.74,34.83,168.98,147.85,139.16,256.92-29.78,108.92-138.98,174.76-249.97,150.2-108.09-23.91-179.74-127.84-162.39-237.15,12.27-77.31,55.94-131.91,127.65-163.7,8.38-3.72,17.2-6.45,25.64-10.06,7.32-3.13,9.91-8.82,7.68-15.32-1.93-5.64-6.33-7.27-14.56-5.38C77.16,49.59-14.98,194.31,15.75,339.28c26.86,126.72,138.65,217.27,268.21,217.25,11.89,.22,23.71-.91,35.46-2.43,8.74-1.13,17.46-2.7,26.04-4.74,143.32-34.13,234.45-172.51,206.65-316.88ZM104.27,406.15c-.49-.36-.5-.73,.01-1.08,.5,.36,.48,.73-.01,1.08Zm62.86,100.34c-5.28,.23-11.27-5.35-11.26-10.5,0-6.27,5.72-12.84,11.13-12.82,5.96,.02,9.56,3.7,9.58,9.78,.02,6.75-4.57,13.33-9.45,13.54Zm41.97,15.14c-3.82,2.48-8.97,1.25-10.85-2.24-3.07-5.7,2.45-18.21,8.69-19.72,5.47-1.32,8.77,2.65,8.72,10.79,.77,5.19-2.5,8.52-6.56,11.16Zm109.1-3.3c1.48-7.23,2.79-13.62,4.29-20.97,3.77,6,7.2,11.46,10.79,17.18-4.66,2.1-9.44,2.67-15.08,3.79Z"/><path class="cls-4" d="M104.27,406.15c-.49-.36-.5-.73,.01-1.08,.5,.36,.48,.73-.01,1.08Z"/><path class="cls-6" d="M318.2,518.33c1.48-7.23,2.79-13.62,4.29-20.97,3.77,6,7.2,11.46,10.79,17.18-4.66,2.1-9.44,2.67-15.08,3.79Z"/><path class="cls-3" d="M215.66,510.47c.77,5.19-2.5,8.52-6.56,11.16-3.82,2.48-8.97,1.25-10.85-2.24-3.07-5.7,2.45-18.21,8.69-19.72,5.47-1.32,8.77,2.65,8.72,10.79Z"/><path class="cls-5" d="M176.58,492.95c.02,6.75-4.57,13.33-9.45,13.54-5.28,.23-11.27-5.35-11.26-10.5,0-6.27,5.72-12.84,11.13-12.82,5.96,.02,9.56,3.7,9.58,9.78Z"/></g><text class="cls-2" transform="translate(81.03 431.95) rotate(47.28)"><tspan x="0" y="0">Ν</tspan></text><text class="cls-2" transform="translate(120.7 473.11) rotate(35.4)"><tspan x="0" y="0">η</tspan></text><text class="cls-2" transform="translate(158.79 499.6) rotate(24.55)"><tspan x="0" y="0">σ</tspan></text><text class="cls-2" transform="translate(203.38 519.3) rotate(13.3)"><tspan x="0" y="0">α</tspan></text><text class="cls-2" transform="translate(249.66 529.07) rotate(4.84)"><tspan x="0" y="0">ι</tspan></text><text class="cls-2" transform="translate(274.64 531.31) rotate(-2.27)"><tspan x="0" y="0">ε</tspan></text><text class="cls-2" transform="translate(311.03 529.21) rotate(-8.63)"><tspan x="0" y="0"> </tspan></text><text class="cls-2" transform="translate(331.91 526.79) rotate(-16.84)"><tspan x="0" y="0">Ἁ</tspan></text><text class="cls-2" transform="translate(382.58 510.22) rotate(-28.01)"><tspan x="0" y="0">λ</tspan></text><text class="cls-2" transform="translate(419.29 490.28) rotate(-37.96)"><tspan x="0" y="0">κ</tspan></text><text class="cls-2" transform="translate(454.44 462.26) rotate(-48.37)"><tspan x="0" y="0">ή</tspan></text><g><g><path class="cls-4" d="M355.83,86.87c3.06-4.06,4.8-8.17,6.89-12.55,27.28,11.85,50.91,28.29,70.32,50.7,25.52,29.47,40.35,63.64,43.75,102.38,7.12,81.14-39.75,154.98-118.38,183.75-2.36-3.85-3.09-8.3-4.45-12.43,68.06-29.71,106.59-79.85,109.21-155.22-2.48-74.82-39.71-125.95-107.33-156.64Z"/><path class="cls-4" d="M451.79,200.58c8.66,27.74,8.07,64.56-2.26,93.31-8.08-6.62-17.71-10.66-26.28-16.9,2.33-9.71,3.84-19.7,4.11-29.85,.27-10.06-.17-20.07-2.18-30.33,8.63-5.62,17.96-10.15,26.61-16.22Z"/><path class="cls-4" d="M211.21,86.87c-3.06-4.06-4.8-8.17-6.89-12.55-27.28,11.85-50.91,28.29-70.32,50.7-25.52,29.47-40.35,63.64-43.75,102.38-7.12,81.14,39.75,154.98,118.38,183.75,2.36-3.85,3.09-8.3,4.45-12.43-68.06-29.71-106.59-79.85-109.21-155.22,2.48-74.82,39.71-125.95,107.33-156.64Z"/><path class="cls-4" d="M115.25,200.58c-8.66,27.74-8.07,64.56,2.26,93.31,8.08-6.62,17.71-10.66,26.28-16.9-2.33-9.71-3.84-19.7-4.11-29.85-.27-10.06,.17-20.07,2.18-30.33-8.63-5.62-17.96-10.15-26.61-16.22Z"/><path class="cls-4" d="M354,122.86c-19.53,20.56-42.76,30.86-70.58,30.86-27.92,0-51.23-10.39-70.61-30.9-47.02,30.8-72.31,73.2-67.93,129.96,3.74,48.36,28.6,84.31,70.37,108.71,36.13-41.88,99.71-42.29,136.02-.44,33.72-16.45,70.73-59.16,71.25-116.76,.48-53.44-24.41-92.91-68.52-121.41Z"/></g><g><circle class="cls-4" cx="283.52" cy="242.74" r="74.36"/><path class="cls-1" d="M283.52,320.38c-42.81,0-77.64-34.83-77.64-77.64s34.83-77.64,77.64-77.64,77.64,34.83,77.64,77.64-34.83,77.64-77.64,77.64Zm0-148.73c-39.2,0-71.08,31.89-71.08,71.08s31.89,71.08,71.08,71.08,71.08-31.89,71.08-71.08-31.89-71.08-71.08-71.08Z"/></g><g><circle class="cls-4" cx="283.52" cy="242.74" r="51.87"/><path class="cls-1" d="M283.52,297.89c-30.41,0-55.15-24.74-55.15-55.15s24.74-55.15,55.15-55.15,55.15,24.74,55.15,55.15-24.74,55.15-55.15,55.15Zm0-103.73c-26.79,0-48.59,21.8-48.59,48.59s21.8,48.59,48.59,48.59,48.59-21.8,48.59-48.59-21.8-48.59-48.59-48.59Z"/></g></g></svg>