<svg enable-background="new 0 0 113.4 113.4" viewBox="0 0 113.4 113.4" xmlns="http://www.w3.org/2000/svg"><circle cx="56.7" cy="56.7" fill="#fff" r="56.7"/><circle cx="56.7" cy="55.1" fill="#fff" r="53.9"/><path d="m58.2 112.2c-28 0-50.8-18.7-56-44.7-5.9-29.4 12.5-58 41.7-64.9 2.3-.5 3.5.4 3.1 2.4-.1.7-.5 1.2-1.1 1.5-.8.4-1.6.8-2.4 1-16.1 5.8-26.1 17-29.1 33.8-4 22.9 11.2 44.6 34 49.1 23.2 4.6 45.8-10.5 50.3-33.8 4.2-21.4-8.2-42.4-28.9-49.1-.7-.2-1.4-.6-2.1-.9-1.4-.7-1.9-1.8-1.4-3.1.4-1.1 1.3-1.4 2.9-1.1 3.7.9 7.3 2.1 10.8 3.7 16.9 8.2 27.6 21.6 31.2 40 5.7 29-12.5 57.2-41.4 64.3-4.3 1.2-8.7 1.7-11.6 1.8z" fill="#050302"/><path d="m56.7 76.1c-15.3.2-27.9-12.6-27.8-27.9.1-15.2 12.6-27.8 28-27.7 15.2.1 27.8 12.7 27.6 28.1-.1 15.2-12.5 27.5-27.8 27.5zm0-52.6c-9.8 0-17.9 8.1-17.9 17.9s8.1 17.9 17.9 17.9 17.9-8.1 17.9-17.9c0-9.7-8.1-17.9-17.9-17.9z" fill="#070504"/><path d="m56.7 23.5c9.8 0 17.9 8.2 17.9 17.9 0 9.8-8.1 17.9-17.9 17.9s-17.9-8.2-17.9-17.9 8.1-17.9 17.9-17.9z" fill="#fefefe"/></svg>