<?xml version="1.0" encoding="utf-8"?>
<!-- Generator: Adobe Illustrator 24.1.1, SVG Export Plug-In . SVG Version: 6.00 Build 0)  -->
<svg version="1.1" id="Capa_1" xmlns="http://www.w3.org/2000/svg" xmlns:xlink="http://www.w3.org/1999/xlink" x="0px" y="0px"
	 viewBox="0 0 566.9 566.9" style="enable-background:new 0 0 566.9 566.9;" xml:space="preserve">
<style type="text/css">
	.st0{fill:#29ABE2;}
	.st1{enable-background:new    ;}
	.st2{fill:#FFFFFF;}
</style>
<path d="M283.5,555.8c-150.4,0-272.3-121.9-272.3-272.3c0-72.2,28.7-141.5,79.8-192.5C196.7-16,369.1-17,476,88.7
	s107.9,278.1,2.2,385.1c-0.7,0.7-1.5,1.5-2.2,2.2C425.1,527.2,355.7,556,283.5,555.8z"/>
<path class="st0" d="M283.5,14.2c148.7,0,269.3,120.6,269.3,269.3S432.2,552.8,283.5,552.8S14.2,432.2,14.2,283.5
	S134.7,14.2,283.5,14.2 M283.5,8.2C131.5,8,8.1,131.1,8,283.1c-0.1,73.2,29,143.3,80.8,195c107.5,107.6,281.8,107.6,389.4,0.1
	s107.6-281.8,0.1-389.4C426.7,37.2,356.6,8.1,283.5,8.2z"/>
<circle class="st0" cx="283.5" cy="283.5" r="202.7"/>
<g class="st1">
	<path class="st2" d="M199,77.9l8.9-3.7l-11.3-26.6l6.7-2.8l12.2,28.8c1.3,3,0.4,5.1-2.6,6.3l-29.1,12.2c-3,1.3-5.1,0.4-6.4-2.6
		l-12.2-28.8l6.7-2.8l11.3,26.6l9-3.8L181,54.2l6.7-2.8L199,77.9z"/>
</g>
<g class="st1">
	<path class="st2" d="M218.9,40.7l-0.4,7.6l-4.7,1.3l-1.9-7L218.9,40.7z M228.5,75.5l-7.1-25.6l-7,1.9l7.1,25.6L228.5,75.5z"/>
</g>
<g class="st1">
	<path class="st2" d="M232.3,73.8l-3.6-21.4c-0.5-3.2,0.8-5,4-5.6l19.2-3.2c3.2-0.5,5.1,0.8,5.6,3.9l3.6,21.4l-7.2,1.2l-3.2-19
		l-14.4,2.4l3.2,19L232.3,73.8z"/>
</g>
<g class="st1">
	<path class="st2" d="M270.8,37l0.2,4.8l4.9-0.2l-2.1,7.3l-2.4,0.1l0.6,12.1l4.9-0.2l0.4,7.2l-7.3,0.4c-3.2,0.2-5-1.4-5.1-4.6
		l-1.3-26.5L270.8,37z"/>
</g>
<g class="st1">
	<path class="st2" d="M311.7,47.4l-0.4,7.2c-0.2,3.2-1.9,4.7-5.2,4.5l-14.6-0.9l0.4-7.2l12.2,0.7l0.1-2.4l-14.6-0.9l-0.7,12.1l17,1
		l-2.8,7.1l-17.1-1c-3.2-0.2-4.8-1.9-4.6-5.1l1-16.9c0.2-3.2,1.9-4.7,5.2-4.5l19.5,1.2C310.4,42.5,311.9,44.2,311.7,47.4z"/>
</g>
<g class="st1">
	<path class="st2" d="M314.2,69.6l4-21.3c0.6-3.2,2.5-4.4,5.7-3.9l14.3,2.7l-3.7,6.7l-9.6-1.8l-3.5,19L314.2,69.6z"/>
</g>
<g class="st1">
	<path class="st2" d="M346.1,61.5l-4.2,13.8l-7-2.1l9.1-30c0.9-3.1,3-4.1,6.1-3.2l18.6,5.7l-2.1,6.9l-16.3-5l-2.1,6.9l9.3,2.8
		l-4.4,6.2L346.1,61.5z"/>
</g>
<g class="st1">
	<path class="st2" d="M397.5,73.8l-7.1,15.3c-1.4,2.9-3.5,3.7-6.5,2.3l-17.7-8.2c-2.9-1.4-3.7-3.5-2.4-6.4l7.1-15.3
		c1.4-2.9,3.5-3.7,6.5-2.3l17.7,8.2C398.1,68.8,398.9,70.9,397.5,73.8z M376.7,66.8l-5.1,10.9l13.2,6.2l5.1-10.9L376.7,66.8z"/>
</g>
<g class="st1">
	<path class="st2" d="M391.7,95.4L403.2,77c1.7-2.7,3.9-3.2,6.7-1.5l12.4,7.8l-5.9,4.8l-8.3-5.2L398,99.3L391.7,95.4z"/>
</g>
<g class="st1">
	<path class="st2" d="M36.8,268.4l19.3,0.4c2,0,3,1,2.9,3l-0.2,11.9c0,2-1,3-3,2.9l-19.3-0.4l0.1-4.5l17.8,0.3l0.2-8.9l-17.8-0.4
		L36.8,268.4z"/>
</g>
<g class="st1">
	<path class="st2" d="M56.9,306.8L40.6,308c-2,0.1-3-0.8-3.2-2.8l-0.8-11.9c-0.1-2,0.8-3,2.8-3.2l16.3-1.1c2-0.1,3,0.8,3.2,2.8
		l0.8,11.9C59.8,305.6,58.9,306.7,56.9,306.8z M41.2,295.5l0.6,7.9l11.9-0.8L41.2,295.5z M55,301l-0.5-7.4l-11.9,0.8L55,301z"/>
</g>
<g class="st1">
	<path class="st2" d="M51.9,314.6l0.5,2.8l9.3,1.7l0.7,4.4l-9.4-1.7c0.1,1.7-0.7,3-2.4,3.9l-9.6,5.8l-0.7-4.4l8.2-5.1l-1.1-6.6
		l-8.8,1.4l-0.7-4.4l22.1-3.6l0.7,4.4L51.9,314.6z"/>
</g>
<g class="st1">
	<path class="st2" d="M55.5,335.3l0.7,2.7l9.4,0.9l1.1,4.3l-9.4-0.9c0.2,1.7-0.5,3-2,4l-9.1,6.5l-1.1-4.3l7.7-5.8l-1.6-6.5l-8.6,2.1
		l-1.1-4.3l21.6-5.3l1.1,4.3L55.5,335.3z"/>
</g>
<g class="st1">
	<path class="st2" d="M56.8,356.8l-4.2,1.4l3.3,9.9l-4.2,1.4l-3.8-11.3c-0.6-1.9,0-3.1,1.9-3.8l15.5-5.2c1.9-0.6,3.1,0,3.8,1.9
		l3.8,11.3l-4.2,1.4l-3.3-9.9l-4.2,1.4l1.9,5.6l-4.7,0L56.8,356.8z"/>
</g>
<g class="st1">
	<path class="st2" d="M53,373.4l17.8-7.7c1.8-0.8,3.1-0.3,3.9,1.5l4.8,10.9c0.8,1.8,0.3,3.1-1.5,3.9l-17.8,7.7l-1.8-4.1l16.4-7.1
		l-3.6-8.2l-16.4,7.1L53,373.4z"/>
</g>
<g class="st1">
	<path class="st2" d="M60.6,397.1l-0.7-1.3l2.6-1.3l-0.7-1.3l4-2l2,4l-4,2L60.6,397.1z"/>
</g>
<g class="st1">
	<path class="st2" d="M94.9,414.1l-6.5-10l-3.8,2.5l5.7,8.7c1.1,1.7,0.8,3-0.8,4.1l-6.2,4.1c-1.7,1.1-3,0.8-4.1-0.9l-8.2-12.5
		l3.7-2.4l7.4,11.2l3.7-2.5l-5.7-8.7c-1.1-1.7-0.8-3,0.8-4.1l6.2-4.1c1.7-1.1,3.1-0.8,4.1,0.9l8.2,12.5L94.9,414.1z"/>
</g>
<g class="st1">
	<path class="st2" d="M102.4,417.1l7.4,9.4c1.2,1.6,1.1,3-0.5,4.2l-8.2,6.4c-1.6,1.2-3,1.1-4.2-0.5l-5.5-7l4.4-1.6l3.7,4.7l5.9-4.6
		l-5.5-7l-14.1,11l-2.8-3.5l15.3-12C99.8,415.4,101.2,415.6,102.4,417.1z"/>
</g>
<g class="st1">
	<path class="st2" d="M106.1,443.1l-3.3,3l7.1,7.7l-3.3,3l-8.1-8.8c-1.3-1.5-1.3-2.9,0.1-4.2l11.9-11.1c1.4-1.3,2.8-1.3,4.2,0.2
		l8.1,8.8l-3.3,3l-7.1-7.7l-3.3,3l4,4.4l-4.3,1.9L106.1,443.1z"/>
</g>
<g class="st1">
	<path class="st2" d="M131.4,455.7l-6.6-6.1l-9.1,9.8l7.7,7.1l-3,3.3l-8.8-8.1c-1.5-1.3-1.5-2.7-0.2-4.2l11.1-11.9
		c1.3-1.4,2.8-1.5,4.2-0.1l8.8,8.1L131.4,455.7z"/>
</g>
<g class="st1">
	<path class="st2" d="M140.9,457.9L126.6,475l-3.4-2.9l14.3-17.2L140.9,457.9z"/>
</g>
<g class="st1">
	<path class="st2" d="M129.4,477.6l11.4-15.6c1.2-1.6,2.6-1.8,4.2-0.7l9.6,7c1.6,1.2,1.8,2.6,0.7,4.2l-11.4,15.6l-3.6-2.6l3.5-4.8
		l-7.2-5.3l-3.5,4.8L129.4,477.6z M150.8,471l-7.2-5.3l-4.4,6l7.2,5.3L150.8,471z"/>
</g>
<g class="st1">
	<path class="st2" d="M160,498.2l-10.2-6.2c-1.7-1-2-2.4-1-4.1l10-16.4l3.8,2.3l-9.3,15.1l8.9,5.4L160,498.2z"/>
</g>
<g class="st1">
	<path class="st2" d="M189.9,503.3l-0.4,9.6l-4.1-1.8l0.2-9.6l-4.8-2.1l-3.7,8.1l-4.1-1.8l7.9-17.6c0.8-1.8,2.1-2.3,3.9-1.5
		l10.9,4.9c1.8,0.8,2.3,2.1,1.5,3.9l-3,6.8c-0.8,1.8-2.1,2.3-4,1.5L189.9,503.3z M190.9,498.9l1.8-4.1l-8.2-3.7l-1.8,4.1
		L190.9,498.9z"/>
</g>
<g class="st1">
	<path class="st2" d="M200.4,507.5l-1.5,4.2l9.9,3.4l-1.5,4.2l-11.3-3.9c-1.9-0.7-2.5-1.9-1.8-3.8l5.4-15.4c0.7-1.9,1.9-2.5,3.8-1.8
		l11.3,3.9l-1.5,4.2l-9.9-3.4l-1.5,4.2l5.6,2l-2.9,3.7L200.4,507.5z"/>
</g>
<g class="st1">
	<path class="st2" d="M228.7,506.8l-8.6-2.3l-3.5,13l10.1,2.7l-1.2,4.3l-11.5-3.1c-1.9-0.5-2.6-1.7-2.1-3.7l4.2-15.8
		c0.5-1.9,1.7-2.6,3.7-2.1l11.5,3.1L228.7,506.8z"/>
</g>
<g class="st1">
	<path class="st2" d="M250.5,509.8l-2.9,16c-0.4,1.9-1.5,2.7-3.5,2.4l-11.8-2.1c-2-0.4-2.8-1.5-2.4-3.4l2.9-16
		c0.4-1.9,1.5-2.7,3.5-2.4l11.8,2.1C250.1,506.7,250.9,507.9,250.5,509.8z M237,508.9l-2.4,13.1l8.8,1.6l2.4-13.1L237,508.9z"/>
</g>
<g class="st1">
	<path class="st2" d="M251.1,529.4l1.7-19.3c0.2-2,1.3-2.9,3.2-2.7l11.9,1.1c2,0.2,2.9,1.3,2.7,3.2L269,531l-4.5-0.4l1.6-17.8
		l-8.9-0.8l-1.6,17.8L251.1,529.4z"/>
</g>
<g class="st1">
	<path class="st2" d="M284.1,531.5l-0.8-19.3c-0.1-2,0.9-3,2.9-3.1l11.9-0.5c2-0.1,3,0.9,3.1,2.9l0.8,19.3l-4.5,0.2l-0.2-6l-8.9,0.4
		l0.2,6L284.1,531.5z M296.7,513.1l-8.9,0.4l0.3,7.4l8.9-0.4L296.7,513.1z"/>
</g>
<g class="st1">
	<path class="st2" d="M306.1,530.5l-2.5-19.1c-0.3-2,0.6-3.1,2.6-3.3l11.8-1.5c2-0.3,3.1,0.6,3.3,2.6l2.5,19.1l-4.4,0.6l-2.3-17.7
		l-8.8,1.2l2.3,17.7L306.1,530.5z"/>
</g>
<g class="st1">
	<path class="st2" d="M328,527.5l-4.9-21.6l14.6-3.3c1.9-0.4,3.1,0.3,3.6,2.2l3.6,15.8c0.4,1.9-0.3,3.1-2.3,3.5L328,527.5z
		 M337.2,507.2l-8.7,2l2.9,12.9l8.7-2L337.2,507.2z"/>
</g>
<g class="st1">
	<path class="st2" d="M356.7,496.6l7.1,21.2l-4.2,1.5l-7.1-21.2L356.7,496.6z"/>
</g>
<g class="st1">
	<path class="st2" d="M367.5,516.7l-7.3-17.8c-0.8-1.8-0.2-3.1,1.6-3.9l11.1-4.5c1.8-0.8,3.1-0.2,3.9,1.6l7.3,17.8l-4.1,1.7
		l-6.8-16.4l-8.3,3.4l6.8,16.4L367.5,516.7z"/>
</g>
<g class="st1">
	<path class="st2" d="M392.1,480.9l2,4l-5.3,2.7l8.2,15.9l-4,2l-8.2-15.9l-5.3,2.7l-2-4L392.1,480.9z"/>
</g>
<g class="st1">
	<path class="st2" d="M404.9,488.8l2.4,3.8l8.8-5.5l2.4,3.8l-10.1,6.3c-1.7,1-3,0.7-4.1-0.9l-8.7-13.9c-1-1.7-0.7-3,1-4.1l10.1-6.3
		l2.4,3.8l-8.8,5.5l2.4,3.8l5-3.1l1.1,4.6L404.9,488.8z"/>
</g>
<g class="st1">
	<path class="st2" d="M428.2,473l8.2,5l-3.6,2.7l-8.4-4.9l-4.2,3.1l5.3,7.1l-3.6,2.7l-11.6-15.4c-1.2-1.6-1-3,0.6-4.2l9.6-7.1
		c1.6-1.2,3-1,4.2,0.6l4.5,5.9c1.2,1.6,1,3-0.6,4.2L428.2,473z M424.8,470l-2.7-3.6l-7.2,5.3l2.7,3.6L424.8,470z"/>
</g>
<g class="st1">
	<path class="st2" d="M443.8,465.6l-8-16.7l3.3-3l10,21.1l-4.7,4.2l-19.8-12.3l3.3-3L443.8,465.6z"/>
</g>
<g class="st1">
	<path class="st2" d="M452.6,451.5l3.2,3.1l7.2-7.6l3.2,3.1l-8.2,8.7c-1.4,1.4-2.8,1.5-4.2,0.1l-11.8-11.3c-1.4-1.4-1.5-2.8-0.1-4.2
		l8.2-8.7l3.2,3.1l-7.2,7.6l3.2,3.1l4.1-4.3l2.2,4.2L452.6,451.5z"/>
</g>
<g class="st1">
	<path class="st2" d="M469,447.1L454,434.9c-1.5-1.2-1.7-2.6-0.4-4.2l7.5-9.3c1.2-1.5,2.6-1.7,4.2-0.4l15.1,12.2l-2.8,3.5
		l-13.9-11.2l-5.6,6.9l13.9,11.2L469,447.1z"/>
</g>
<g class="st1">
	<path class="st2" d="M473.4,403.9l3.7,2.5l-3.3,4.9l14.8,10l-2.5,3.7l-14.8-10L468,420l-3.7-2.5L473.4,403.9z"/>
</g>
<g class="st1">
	<path class="st2" d="M477,398l19.2,11.4l-2.3,3.8l-19.2-11.4L477,398z"/>
</g>
<g class="st1">
	<path class="st2" d="M489.2,381.4l14.5,7.5c1.8,0.9,2.2,2.2,1.3,4l-5.5,10.6c-0.9,1.8-2.2,2.2-4,1.3l-14.5-7.5
		c-1.8-0.9-2.2-2.2-1.3-4l5.5-10.6C486.1,380.9,487.5,380.5,489.2,381.4z M484.4,394l11.9,6.1l4.1-7.9l-11.9-6.1L484.4,394z"/>
</g>
<g class="st1">
	<path class="st2" d="M508.3,386.5l-18-7.3c-1.8-0.8-2.4-2-1.6-3.9l4.5-11.1c0.8-1.8,2-2.4,3.9-1.6l18,7.3l-1.7,4.1l-16.6-6.8
		l-3.4,8.3l16.6,6.8L508.3,386.5z"/>
</g>
<g class="st1">
	<path class="st2" d="M502.3,334.2l4.3,1.1l-1.5,5.8l17.3,4.5l-1.1,4.3l-17.3-4.5l-1.5,5.8l-4.3-1.1L502.3,334.2z"/>
</g>
<g class="st1">
	<path class="st2" d="M517,329.8l4.4,0.8l1.9-10.3l4.4,0.8l-2.1,11.8c-0.4,2-1.5,2.8-3.4,2.4l-16-2.9c-1.9-0.4-2.7-1.5-2.4-3.5
		l2.1-11.8l4.4,0.8l-1.9,10.3l4.4,0.8l1.1-5.9l4.1,2.3L517,329.8z"/>
</g>
<g class="st1">
	<path class="st2" d="M528.3,317.2l-19.3-1.9c-2-0.2-2.9-1.3-2.7-3.3l1.2-11.9c0.2-2,1.3-2.9,3.3-2.7l19.3,1.9l-0.4,4.5l-6-0.6
		l-0.9,8.9l6,0.6L528.3,317.2z M511.8,302.1l-0.9,8.9l7.4,0.7l0.9-8.9L511.8,302.1z"/>
</g>
<g class="st1">
	<path class="st2" d="M512.5,280.4l17.8-0.2l0,4.5l-17.8,0.2l0.1,6l17.8-0.2l0,4.5l-19.3,0.2c-2,0-3-1-3-2.9L508,273c0-2,1-3,2.9-3
		l19.3-0.2l0,4.5l-17.8,0.2L512.5,280.4z"/>
</g>
<path class="st2" d="M269.9,194.1L58,146v9.9l51,27.1c0,0-51.8,150.6,95.4,221.5c0.4-0.4,0-33.5,0-33.5s-102.2-69-66-172
	c0-0.4,33.6,18.7,33.6,18.7s-19.1,79.7,52.6,120.9c0.8,0.4,0,86.2,0,86.2l54.5,41.2V294.3c0,0-44.2-9.9-44.2-55.7
	C235.2,238.3,236.4,207.4,269.9,194.1z"/>
<path class="st2" d="M297,194.1l212-48v9.9l-51.1,27c0,0,51.9,150.6-95.3,221.5c-0.4-0.4,0-33.5,0-33.5s102.2-69,66-172
	c0-0.4-33.5,18.7-33.5,18.7s19,79.7-52.7,120.9c-0.8,0.4,0,86.2,0,86.2l-54.5,41.2V294.3c0,0,44.2-9.9,44.2-55.7
	C331.7,238.3,330.5,207.4,297,194.1z"/>
</svg>
