<svg viewBox="0 0 86.46 86.46" xmlns="http://www.w3.org/2000/svg"><circle cx="43.23" cy="43.23" fill="#fff" r="43.11" stroke="#1d1d1b" stroke-miterlimit="10" stroke-width=".25"/><path d="m28.34 55.33 14.95-25.91-.01-2.29v2.21-2.21l-.08-14.19-32.41 56.13 32.38-9.37.08-8.68z" fill="#1e1e1c"/><path d="m43 12.75-.03.04v14.33l.02 2.29.01-.01 14.96 25.92-14.84-4.3.05 8.68 32.34 9.36z" fill="#1e1e1c"/><path d="m43.25 22 14.97 25.92-9.46-2.74v8.67l27 7.81-32.51-56.31-.02.04v14.34l.01 2.29z" fill="#f29107"/><path d="m37.14 45.37-8.9 2.57 14.97-25.92.01.01.01-2.29v-14.33l-.02-.04-32.51 56.31 26.44-7.65z" fill="#f29107"/></svg>