<svg id="Nourkias" xmlns="http://www.w3.org/2000/svg" viewBox="0 0 566.93 566.93"><defs><style>.cls-1{fill:#c0101b;}.cls-2,.cls-3{fill:#020000;}.cls-2{stroke:#000;stroke-miterlimit:10;stroke-width:10px;}.cls-4{fill:none;}.cls-5{fill:#c02820;}</style></defs><path class="cls-1" d="M283,562.69C129.13,563.2,3.92,437.05,4.25,283.06c.33-153.6,125.68-279,280-278.58C439.07,4.86,563.63,132,562.67,285.59,561.72,438,436.55,563.88,283,562.69ZM11.21,283.6c1.71,151.15,120.43,270.87,271.54,272.18,149.22,1.3,272.93-122.69,273-271.6.13-149.14-123-273.34-272.08-272.56C132.47,12.42,13.07,131.86,11.21,283.6Z"/><path class="cls-2" d="M11.21,283.6c1.86-151.74,121.26-271.18,272.51-272,149-.78,272.21,123.42,272.08,272.56-.12,148.91-123.83,272.9-273,271.6C131.64,554.47,12.92,434.75,11.21,283.6Zm48-59.58c-1.18-2.45-2.38-3.4-4.1-.36C56.29,225.6,57.59,225.65,59.25,224Z"/><path class="cls-3" d="M59.25,224c-1.66,1.63-3,1.58-4.1-.36C56.87,220.62,58.07,221.57,59.25,224Z"/><path class="cls-1" d="M283.46,543.14A259.68,259.68,0,0,1,99.84,99.84,259.68,259.68,0,0,1,467.09,467.09,258,258,0,0,1,283.46,543.14Zm0-512.1C144.28,31,31,144.28,31,283.46S144.28,535.89,283.46,535.89,535.89,422.65,535.89,283.46,422.65,31,283.46,31Z"/><polygon class="cls-4" points="283.47 143.8 283.46 140.59 283.4 143.73 283.47 143.8"/><path class="cls-4" d="M286.73,115.77,275,110.29l-79.86,91.57s64.95,145.22,65.54,148.73a1.31,1.31,0,0,1,0,.61l22.79,53.09,22.79-53.09a1.31,1.31,0,0,1,0-.61c.33-1.93,20.18-45.31,37.95-83.9h0c14.49-31.47,27.6-59.76,27.6-59.76Z"/><polygon class="cls-5" points="344.2 266.69 344.2 266.69 344.2 266.69 344.2 266.69"/><polygon class="cls-4" points="283.46 359.94 324.23 260.2 296.63 120.54 291.12 114.2 274.99 110.29 271.55 114.24 242.7 260.2 283.46 359.94"/><polygon class="cls-5" points="417.9 116.87 433.75 197.64 401.86 269.7 463.73 210.65 417.9 116.87"/><polygon class="cls-5" points="384.32 292.2 342.03 362.81 315.13 393.7 355.58 392.54 384.32 292.2"/><polygon class="cls-5" points="376.56 142.38 410.77 183.41 414.36 141.86 358.67 65.44 384.17 136.95 376.56 142.38"/><path class="cls-5" d="M305.45,340.57l34.22-75.94c11.66-25.32,22.53-48.81,26.26-56.86l-51.52-59.21L296.73,51.79,422.5,198.31,349.23,353V471l-43.83,49.6Z"/><path d="M305,69.06,416.59,199.11,344.23,351.87V469.12L310.41,507.4l0-84.19,0-81.57,33.78-74.95h0c14.49-31.47,27.6-59.76,27.6-59.76l-52.75-60.62L305,69.06M288.49,34.51l6.64,36.35,14.11,77.25.5,2.69,1.8,2.07L360,208.61c-4.6,9.93-14.43,31.18-24.89,53.89v0l0,0-33.77,74.95-.89,2v2.15l0,81.57,0,84.19v26.43L317.9,514l33.82-38.28,2.51-2.84V354.11l71.4-150.72,2.78-5.87-4.23-4.93-111.62-130-24.07-28Z"/><polygon class="cls-5" points="149.02 116.87 133.18 197.64 165.07 269.7 103.2 210.65 149.02 116.87"/><polygon class="cls-5" points="182.6 292.2 224.9 362.81 251.8 393.7 211.35 392.54 182.6 292.2"/><polygon class="cls-5" points="190.37 142.38 156.16 183.41 152.57 141.86 208.25 65.44 182.76 136.95 190.37 142.38"/><path class="cls-5" d="M217.7,471V353L144.43,198.31,270.2,51.79l-17.68,96.77L201,207.77c3.73,8,14.59,31.53,26.24,56.83l34.24,76,0,180Z"/><path d="M262,69.06l-14.11,77.25L195.1,206.93s13.11,28.29,27.6,59.76h0l33.78,74.95,0,81.57,0,84.19L222.7,469.12V351.87L150.34,199.11,262,69.06m16.48-34.55-24.07,28-111.62,130-4.23,4.93,2.78,5.87,71.4,150.72V472.9l2.51,2.84L249,514l17.5,19.81V507.4l0-84.19,0-81.57v-2.15l-.89-2-33.77-74.95,0,0,0,0c-10.45-22.71-20.28-44-24.88-53.89l48.49-55.74,1.8-2.07.5-2.69L271.8,70.86l6.64-36.35Z"/><polygon class="cls-5" points="303.14 153.34 284.43 58.67 284.43 53.92 283.96 56.3 283.5 53.92 283.5 58.67 264.79 153.34 221.18 210.91 283.96 343.6 346.75 210.91 303.14 153.34"/><polygon points="283.99 288.21 251.31 219.77 283.99 177.59 315.81 219.77 283.99 288.21"/></svg>