<svg enable-background="new 0 0 113.3 113.4" viewBox="0 0 113.3 113.4" xmlns="http://www.w3.org/2000/svg"><path d="m56.7 113.4c-30.8.2-57.1-25-56.7-57.4.4-30.7 25.2-56 56.8-56 31.4 0 56.6 25.5 56.5 56.9 0 31.2-25.3 56.5-56.6 56.5zm0-1.1c30.6 0 55.5-24.8 55.5-55.4.1-30.7-24.7-55.5-55.4-55.6-30.7-.1-55.5 24.8-55.6 55.5 0 30.6 24.8 55.4 55.5 55.5z" fill="#e5291e"/><path d="m56.7 112.3c-30.7 0-55.5-24.9-55.5-55.6s24.9-55.5 55.6-55.5c30.7.1 55.5 24.9 55.4 55.6 0 30.6-24.9 55.5-55.5 55.5zm51.8-55.5c0-28.8-23.3-52.2-52-52.2-28.8 0-52.2 23.2-52.2 51.9-.1 28.9 23.2 52.3 52 52.4 28.8-.1 52.2-23.4 52.2-52.1z" fill="#fffbf9"/><path d="m108.5 56.8c0 28.7-23.4 52-52.2 52s-52.1-23.4-52-52.4c.1-28.6 23.5-51.9 52.2-51.9 28.8.1 52.1 23.5 52 52.3zm-51.9 46.4c25.6 0 46.4-20.8 46.4-46.4s-20.8-46.4-46.3-46.4c-25.7 0-46.5 20.8-46.5 46.4s20.8 46.4 46.4 46.4z" fill="#e31517"/><path d="m56.6 103.2c-25.6 0-46.4-20.8-46.4-46.4 0-25.7 20.8-46.5 46.5-46.4 25.6 0 46.4 20.8 46.3 46.4 0 25.6-20.8 46.4-46.4 46.4zm35.1-68.8c.1.1.2.2.3.3.1-.3.1-.4-.1-.5-.3-.6-.6-1.1-.9-1.7-3.5-5.5-8.4-9.4-14-12.5-7.8-4.3-16.1-6.7-25-6.5-4.8.1-8.8 1.9-11.2 6.2-2.1 3.8-2 7.6.5 11.1 2.6 3.5 6.2 4.8 10.5 3.9 1.8-.4 3.3-1.3 4.7-2.5 2.2 4.5 3.7 9 2.8 13.9-.4 2.2-1.3 4.2-3.1 5.6-6-1.9-11.4-.5-16.4 2.8-5.4 3.5-9 8.6-12.5 13.8-.7 1.1-1.4 2.1-2.2 3.2-1.9-2.5-3.1-5.1-4-7.9-2.9-8.7-2.8-17.6-1.2-26.6.2-.2.2-.4-.1-.5-.2.1-.3.3-.3.5-1.4 2.4-2.6 4.8-3.3 7.5-2.1 7.6-1.9 15.3-.3 22.9 1.2 5.8 3.2 11.3 6.8 16.1 2.2 3 5.1 4.7 8.8 5.1 4.9.5 9.4-2.5 10.8-7.1s-.6-9.6-4.9-11.9c-.4-.2-.9-.5-1.4-.7 2.4-3.6 5.2-6.6 9.2-8.4 2.5-1.1 5-1.4 7.6-.5.4 1.8 1 3.4 1.9 4.9 3.2 5.2 8.1 8 13.8 9.6 4.9 1.4 10.1 1.7 15.2 2 .5 0 1-.1 1.6.4-5.9 11.4-16.1 17.3-27.5 21.8 2.5.2 5 0 7.5-.5 6.1-1.3 11.4-4.1 16.4-7.7 6-4.3 11-9.5 14.5-16 2-3.8 2.6-7.6.8-11.7s-6.1-6.7-10.5-6.2c-4.6.5-8.1 3.9-8.9 8.4-.2 1.1-.1 2.2-.1 3.4-6.6 0-14.8-3.6-15.7-9.7 5.1-4.9 6.2-11.1 5.3-17.8-.6-4.2-2-8.1-3.8-11.9-1.1-2.4-2.3-4.8-3.5-7.2.2-.1.3-.2.4-.2.5 0 1-.1 1.5-.1 4.3 0 8.4.9 12.4 2.3 6.5 2.5 12.3 6.2 17.6 10.6z" fill="#fffefd"/><path d="m19.9 37c-1.6 9-1.8 17.9 1.1 26.7.9 2.8 2.1 5.4 4 7.9.8-1.1 1.5-2.2 2.2-3.2 3.4-5.2 7.1-10.3 12.5-13.8 5-3.3 10.4-4.7 16.4-2.8 1.8-1.4 2.7-3.4 3.1-5.6.9-4.9-.6-9.4-2.8-13.9-1.4 1.2-2.9 2.1-4.7 2.5-4.3.9-7.9-.4-10.5-3.9s-2.7-7.3-.5-11.1c2.5-4.3 6.4-6 11.2-6.2 9-.3 17.2 2.2 25 6.5 5.6 3.1 10.5 7 14 12.5.3.5.6 1.1.9 1.7-.1.1-.1.1-.2.2-5.3-4.4-11-8.1-17.5-10.5-4-1.5-8.1-2.3-12.4-2.3-.5 0-1 0-1.5.1-.1 0-.2.1-.4.2 1.2 2.4 2.3 4.8 3.5 7.2 1.8 3.8 3.2 7.7 3.8 11.9.9 6.7-.2 12.9-5.3 17.8.8 6.1 9.1 9.7 15.7 9.7 0-1.1-.1-2.3.1-3.4.8-4.5 4.4-7.9 8.9-8.4 4.4-.5 8.7 2.1 10.5 6.2 1.7 4.1 1.2 7.9-.8 11.7-3.5 6.5-8.5 11.7-14.5 16-5 3.6-10.3 6.4-16.4 7.7-2.4.5-4.9.7-7.5.5 11.4-4.5 21.6-10.4 27.5-21.8-.6-.5-1.1-.4-1.6-.4-5.1-.3-10.2-.6-15.2-2-5.7-1.8-10.6-4.6-13.8-9.8-.9-1.5-1.5-3.1-1.9-4.9-2.6-.9-5.1-.6-7.6.5-3.9 1.8-6.8 4.8-9.2 8.4.5.3 1 .5 1.4.7 4.3 2.3 6.3 7.3 4.9 11.9-1.4 4.7-6 7.6-10.8 7.1-3.7-.4-6.6-2.1-8.8-5.1-3.5-4.8-5.6-10.3-6.8-16.1-1.6-7.7-1.8-15.3.3-22.9.7-2.7 1.9-5.1 3.3-7.5.2 0 .3 0 .4 0z" fill="#e31316"/><path d="m19.9 37c-.1 0-.3 0-.4 0 0-.2.2-.4.3-.5.3.1.3.3.1.5z" fill="#f18b6c"/><path d="m91.9 34.2c.2.1.3.3.1.5-.1-.1-.2-.2-.3-.3 0-.1.1-.2.2-.2z" fill="#e31316"/></svg>