<svg enable-background="new 0 0 113.4 113.4" viewBox="0 0 113.4 113.4" xmlns="http://www.w3.org/2000/svg"><circle cx="56.7" cy="56.7" fill="#fff" r="55.5"/><path d="m56.7 113.4c-31.4.1-56.8-25.6-56.7-56.8.1-31.3 25.7-56.8 57.2-56.6 31 .2 56.5 25.7 56.2 57.3-.3 30.9-25.7 56.1-56.7 56.1zm-55.4-56.6c-.3 30.3 25 55.1 54.9 55.4 30.8.2 55.8-25.1 56-55.2.1-30.7-25.1-55.6-55.1-55.8-30.7-.2-56.2 25.1-55.8 55.6z" fill="#f3d020"/><path d="m1.3 56.8c-.4-30.5 25.1-55.8 55.8-55.6 30 .2 55.2 25.1 55.1 55.8-.1 30.1-25.2 55.4-56 55.2-30-.2-55.2-25.1-54.9-55.4zm52.1-32.5c-3.5 1.8-6.4 4.3-9.3 6.9-1.4 1.3-2.7 2.6-4.2 4-.2-.9-.5-1.8-.8-2.9-6 7-7.8 15.3-8.4 24.1-.9-1.2-1.7-2.3-2.8-3.6 0 4.2.4 8 .8 11.7.7 6.7 3.3 12.3 8.4 16.8 4.3 3.8 9.3 5.9 14.8 7.3 1.8.5 3.7 1.1 5.6.7 5.9-1.1 11.6-3 16.4-6.6 5-3.7 8.4-8.5 9.5-14.8.9-4.7 1.4-9.5 1.4-14.3 0-.2.1-.4-.3-.5-.8 1-1.6 2.1-2.5 3.3-.2-4.6-.8-8.8-2.2-12.9-1.3-4.1-3.1-8-6.3-11.2-.3 1.1-.5 1.9-.7 2.8-1-1-2-1.9-2.9-2.8-3.2-3.1-6.5-6.1-10.5-8.2-.1-.2-.2-.2-.4-.1 0 .2.2.3.4.4 1.8 2 3.5 4.1 5.2 6.3 5 6.7 8.7 13.9 9.4 22.5.9 9.4-3.4 17.1-11.6 20.7-2.3 1-4.7 1.9-7.4 1.4-6.6-1.2-14.6-7.3-15.7-15.3-.9-6.1-.2-11.9 2.2-17.5 2.8-6.7 7.2-12.4 11.9-17.8.2-.1.4-.2.4-.5-.2-.1-.3 0-.4.1zm-11 34.3h28.5c0-1.4-.2-2.6-.6-3.8-9.2 0-18.3 0-27.5 0-.1 1.3-.5 2.5-.4 3.8zm24.3-12.3c-.2-.3-.3-.5-.5-.7-2.1-2.4-4.6-4.2-7.4-5.6-1.5-.7-3.1-.6-4.6.2-2.3 1.3-4.4 2.7-6.2 4.6-.4.5-.9.9-1.2 1.6 6.6-.1 13.2-.1 19.9-.1zm3 5.9c-.3-1.2-.8-2.3-1.4-3.2-7.8 0-15.6 0-23.4 0-.5 1-1.1 2-1.3 3.2zm.8 9c-9.2 0-18.4 0-27.6 0 .2 1.1.5 2.1 1 2.9h25.7c.3-.9.9-1.8.9-2.9zm-23.8 6.9c2.8 2.6 5.9 4.2 9.3 5.1.7.2 1.5.1 2.2-.2 1.1-.4 2.2-.8 3.2-1.3 1.9-.9 3.6-2 5.2-3.6-6.6 0-13.1 0-19.9 0z" fill="#b0ca11"/><path d="m53.5 24.6c-4.8 5.4-9.1 11.1-11.9 17.8-2.4 5.6-3.1 11.5-2.2 17.5 1.1 8 9.1 14.1 15.7 15.3 2.7.5 5-.4 7.4-1.4 8.3-3.6 12.5-11.3 11.8-20.4-.6-8.6-4.4-15.8-9.4-22.5-1.6-2.2-3.3-4.3-5.2-6.3 0-.1 0-.2 0-.3 4 2.1 7.3 5.1 10.5 8.2.9.9 1.9 1.8 2.9 2.8.2-.9.5-1.8.7-2.8 3.1 3.3 4.9 7.1 6.3 11.2 1.3 4.1 1.9 8.3 2.2 12.9 1-1.3 1.7-2.3 2.5-3.3.4.1.3.3.3.5-.1 4.8-.6 9.6-1.4 14.3-1.1 6.2-4.6 11-9.5 14.8-4.9 3.7-10.5 5.5-16.4 6.6-1.9.4-3.8-.3-5.6-.7-5.4-1.4-10.5-3.5-14.8-7.3-5.1-4.5-7.7-10.1-8.4-16.8-.4-3.8-.8-7.5-.8-11.7 1 1.3 1.8 2.3 2.8 3.6.6-8.9 2.4-17.1 8.4-24.1.3 1.1.5 2 .8 2.9 1.4-1.4 2.8-2.7 4.2-4 2.9-2.6 5.8-5.2 9.3-6.9-.3-.1-.3 0-.2.1z" fill="#fefefe"/><path d="m42.4 58.6c-.1-1.3.2-2.5.4-3.8h27.5c.4 1.2.6 2.4.6 3.8-9.4 0-18.9 0-28.5 0z" fill="#fdfefb"/><path d="m66.7 46.3c-6.7 0-13.2 0-19.9 0 .3-.7.8-1.1 1.2-1.6 1.8-1.9 4-3.3 6.2-4.6 1.5-.8 3.1-.9 4.6-.2 2.8 1.4 5.4 3.2 7.4 5.6.2.3.3.5.5.8z" fill="#fdfefb"/><path d="m69.7 52.2c-8.7 0-17.3 0-26 0 .2-1.2.8-2.2 1.3-3.2h23.4c.6.9 1 2 1.3 3.2z" fill="#fff"/><path d="m70.5 61.2c0 1.1-.5 2-.9 2.9-8.6 0-17.1 0-25.7 0-.5-.9-.9-1.8-1-2.9z" fill="#fefefe"/><path d="m46.7 68.1h19.9c-1.6 1.6-3.3 2.7-5.2 3.6-1 .5-2.2.9-3.2 1.3-.7.3-1.5.4-2.2.2-3.4-.9-6.5-2.5-9.3-5.1z" fill="#fdfefb"/><path d="m53.5 24.6c0-.1 0-.2 0-.3.1-.2.2-.2.4-.2-.1.4-.3.5-.4.5z" fill="#e3eab5"/><path d="m59.7 24.3v.3c-.2-.1-.3-.2-.4-.4.2-.1.3-.1.4.1z" fill="#e3eab5"/></svg>