<svg viewBox="0 0 566.93 566.93" xmlns="http://www.w3.org/2000/svg"><path d="m283.46 562.84a279.38 279.38 0 0 1 -197.55-476.93 279.38 279.38 0 1 1 395.09 395.09 277.52 277.52 0 0 1 -197.54 81.84zm0-552.75c-150.74 0-273.37 122.63-273.37 273.37s122.63 273.38 273.37 273.38 273.38-122.63 273.38-273.38-122.63-273.37-273.38-273.37z" fill="#063"/><ellipse cx="283.46" cy="283.46" fill="#063" rx="266.46" ry="262.2"/><path d="m283.46 15.38c-148.06 0-268.09 120-268.09 268.08s120 268.09 268.09 268.09 268.09-120 268.09-268.09-120.02-268.08-268.09-268.08zm0 463.61c-109.73.01-198.69-87.54-198.69-195.53s89-195.52 198.69-195.52 198.7 87.54 198.7 195.52-88.96 195.54-198.7 195.54z" fill="#063"/><ellipse cx="283.46" cy="283.46" fill="#063" rx="131.29" ry="129.19"/><path d="m283.46 552.43a269 269 0 0 1 -190.18-459.15 269 269 0 1 1 380.37 380.37 267.2 267.2 0 0 1 -190.19 78.78zm0-494.93c-124.59 0-226 101.37-226 226s101.37 226 226 226 226-101.37 226-226-101.4-226-226-226z" fill="#fff"/><g fill="#063"><path d="m102.48 113q6.9 5.59 7.87 12.49t-4.22 13.32q-5.22 6.43-12.2 6.86t-13.79-5.1q-6.87-5.56-7.88-12.46t4.2-13.34q5.19-6.42 12.16-6.89t13.86 5.12zm-6 7.36a19.72 19.72 0 0 0 -4.76-3 11.5 11.5 0 0 0 -4.07-1 6.92 6.92 0 0 0 -3.35.72 7.54 7.54 0 0 0 -2.45 2 7.72 7.72 0 0 0 -1.47 2.76 7.55 7.55 0 0 0 0 3.42 11.36 11.36 0 0 0 1.8 3.82 20.33 20.33 0 0 0 3.93 4.09 20 20 0 0 0 4.78 3 11.35 11.35 0 0 0 4 .93 6.92 6.92 0 0 0 3.38-.71 7.71 7.71 0 0 0 2.46-2 7.36 7.36 0 0 0 1.43-2.88 6.84 6.84 0 0 0 0-3.42 12.09 12.09 0 0 0 -1.76-3.76 19.63 19.63 0 0 0 -3.92-4z"/><path d="m143.5 100.05-8.21 7.49-17.41-4.28.36 3.06 8.34 9.16-6.79 6.19-24.7-27.09 6.8-6.2 11 12-2.35-19.88 7.88-7.18 1.8 21.37z"/><path d="m162.59 65.46q4.92 7.4 3.79 14.27t-8 11.45q-6.9 4.59-13.69 2.9t-11.64-9q-4.89-7.36-3.8-14.25t8-11.48q6.89-4.58 13.66-3t11.68 9.11zm-7.92 5.23a19.84 19.84 0 0 0 -3.67-4.27 11.53 11.53 0 0 0 -3.59-2.14 7.06 7.06 0 0 0 -3.41-.28 7.94 7.94 0 0 0 -5.16 3.37 7.47 7.47 0 0 0 -1 3.27 11.29 11.29 0 0 0 .58 4.17 19.87 19.87 0 0 0 2.58 5.04 19.88 19.88 0 0 0 3.65 4.3 11.54 11.54 0 0 0 3.58 2.1 6.92 6.92 0 0 0 3.44.33 7.75 7.75 0 0 0 2.94-1.18 7.31 7.31 0 0 0 2.23-2.33 6.83 6.83 0 0 0 1-3.27 12.21 12.21 0 0 0 -.55-4.11 19.75 19.75 0 0 0 -2.62-5z"/><path d="m204.24 67.46q-7.67 3-14 .18t-9.66-11.25q-3.21-8.12-.6-14.71t10.27-9.68a28.88 28.88 0 0 1 3.75-1.18 28.06 28.06 0 0 1 3.37-.59 24.6 24.6 0 0 1 2.91-.06c1.07 0 1.94.08 2.62.15l3.22 8.13-.87.34c-.56-.2-1.25-.44-2.08-.7a22.61 22.61 0 0 0 -2.72-.66 15.68 15.68 0 0 0 -3.11-.21 9.34 9.34 0 0 0 -3.19.67 10.16 10.16 0 0 0 -3.15 1.92 8.73 8.73 0 0 0 -2.15 3.19 10.52 10.52 0 0 0 -.7 4.35 16.75 16.75 0 0 0 1.26 5.57 15.8 15.8 0 0 0 3 5 10.31 10.31 0 0 0 3.59 2.62 8.8 8.8 0 0 0 3.7.69 10.48 10.48 0 0 0 3.48-.72 10.15 10.15 0 0 0 3-1.84 13.76 13.76 0 0 0 2.09-2.27 19 19 0 0 0 1.44-2.24c.38-.71.72-1.35 1-1.9l.78-.3 3.17 8-1.78 1.85a23.57 23.57 0 0 1 -2.16 2 29.15 29.15 0 0 1 -2.72 1.88 23.5 23.5 0 0 1 -3.76 1.77z"/><path d="m247.84 35.61q2 8.66-1.48 14.69t-11.52 7.9q-8.09 1.86-13.84-2.1t-7.74-12.49q-2-8.61 1.45-14.68t11.52-7.93q8.06-1.86 13.83 2t7.78 12.61zm-9.26 2.11a20.28 20.28 0 0 0 -1.91-5.28 11.57 11.57 0 0 0 -2.62-3.27 7 7 0 0 0 -3.08-1.5 7.85 7.85 0 0 0 -5.97 1.33 7.38 7.38 0 0 0 -2.11 2.7 11.23 11.23 0 0 0 -.93 4.11 20.07 20.07 0 0 0 .59 5.65 19.78 19.78 0 0 0 1.91 5.3 11.53 11.53 0 0 0 2.54 3.24 7 7 0 0 0 3.11 1.52 7.82 7.82 0 0 0 3.16-.07 7.39 7.39 0 0 0 2.91-1.39 6.7 6.7 0 0 0 2.07-2.72 12 12 0 0 0 .94-4 20.1 20.1 0 0 0 -.61-5.62z"/><path d="m282.29 26a14.41 14.41 0 0 1 -.43 4.92 10.15 10.15 0 0 1 -2 4 15.81 15.81 0 0 1 -1.91 1.93 12.26 12.26 0 0 1 -2.36 1.57 14.92 14.92 0 0 1 -2.86 1.11 17.53 17.53 0 0 1 -3.52.6l-4.8.38.94 12-9.17.72-2.87-36.55 14.17-1.11a23.16 23.16 0 0 1 5.5.15 13.47 13.47 0 0 1 4.3 1.5 9.28 9.28 0 0 1 3.48 3.42 12.28 12.28 0 0 1 1.53 5.36zm-9.4 1a4.72 4.72 0 0 0 -.94-2.6 3.94 3.94 0 0 0 -1.88-1.4 7.79 7.79 0 0 0 -2.54-.45c-.8 0-1.88.06-3.23.17l-1.3.1.85 10.94h.64c.87-.06 1.68-.14 2.45-.21a14.87 14.87 0 0 0 2-.33 6.83 6.83 0 0 0 1.52-.6 4 4 0 0 0 1.2-.9 4.87 4.87 0 0 0 1.11-2 8.5 8.5 0 0 0 .12-2.8z"/><path d="m317.63 27.78a14.57 14.57 0 0 1 -1.11 4.81 10.16 10.16 0 0 1 -2.52 3.72 16.2 16.2 0 0 1 -2.2 1.69 12.5 12.5 0 0 1 -2.55 1.22 15 15 0 0 1 -3 .71 17.79 17.79 0 0 1 -3.56.11l-4.81-.29-.72 12-9.16-.63 2.21-36.59 14.19.86a22.74 22.74 0 0 1 5.43.9 13.08 13.08 0 0 1 4.05 2.09 9.24 9.24 0 0 1 3 3.86 12.44 12.44 0 0 1 .75 5.54zm-9.44-.35a4.74 4.74 0 0 0 -.58-2.71 3.81 3.81 0 0 0 -1.67-1.64 7.59 7.59 0 0 0 -2.46-.8c-.79-.11-1.86-.2-3.22-.29l-1.3-.07-.66 11h.64l2.45.12a14.47 14.47 0 0 0 2 0 6.86 6.86 0 0 0 1.61-.44 4 4 0 0 0 1.32-.72 5 5 0 0 0 1.38-1.82 8.67 8.67 0 0 0 .49-2.63z"/><path d="m319.82 53.55 7.14-36 24.29 4.82-1.37 6.86-15.31-3-1.25 6.3 14.11 2.8-1.36 6.86-14.07-2.8-1.81 9.08 15.32 3-1.36 6.86z"/><path d="m380.89 70.88-10.57-3.74-5.14-16.07-3.11-1.07-4.48 12.67-8.62-3 12.22-34.67 13.89 4.91a33.28 33.28 0 0 1 4.92 2.16 11.47 11.47 0 0 1 3.41 2.9 9.53 9.53 0 0 1 1.88 4 9.36 9.36 0 0 1 -.55 5 11.42 11.42 0 0 1 -4.06 5.81 13.4 13.4 0 0 1 -6.17 2.24zm-5.48-28.88a5 5 0 0 0 .3-2.42 3.44 3.44 0 0 0 -1.15-2 6 6 0 0 0 -1.65-1.08c-.64-.3-1.46-.62-2.45-1l-2.9-1-3.29 9.31 2.48.88a20.05 20.05 0 0 0 3.15.86 4.88 4.88 0 0 0 2.48-.18 4.3 4.3 0 0 0 1.79-1.12 6.05 6.05 0 0 0 1.24-2.25z"/><path d="m413.14 75.8a10.58 10.58 0 0 1 -3.14 3.75 9.84 9.84 0 0 1 -4.07 1.7 12.82 12.82 0 0 1 -5.09-.1 23.75 23.75 0 0 1 -5.86-2.36l-12.98-6.92 17.3-32.31 11.41 6.1a44.78 44.78 0 0 1 5.29 3.16 11.74 11.74 0 0 1 2.82 3 7 7 0 0 1 1.26 3.88 8.38 8.38 0 0 1 -1.08 4.04 8.6 8.6 0 0 1 -3.43 3.58 7.92 7.92 0 0 1 -4.72 1l-.09.17a9.93 9.93 0 0 1 3.41 5.14 8.41 8.41 0 0 1 -1.03 6.17zm-8.27-4.62a4.48 4.48 0 0 0 .65-2.67 4.17 4.17 0 0 0 -1.14-2.26 7 7 0 0 0 -1.85-1.39c-.85-.49-2-1.12-3.44-1.89l-1.5-.8-4.33 8.09.43.24c2.11 1.13 3.58 1.89 4.4 2.3a7.92 7.92 0 0 0 2.79.74 3.72 3.72 0 0 0 2.36-.54 4.82 4.82 0 0 0 1.63-1.82zm5-14.22a4.33 4.33 0 0 0 .46-1.82 2.76 2.76 0 0 0 -.61-1.86 5.77 5.77 0 0 0 -1.7-1.4c-.71-.41-1.8-1-3.24-1.78l-.57-.3-3.66 6.84 1 .54c1.39.74 2.37 1.25 2.94 1.52a5.43 5.43 0 0 0 2 .47 3 3 0 0 0 2-.54 5.12 5.12 0 0 0 1.38-1.63z"/><path d="m448.82 93.29q-5.34 7.11-12.2 8.32t-13.46-3.76q-6.62-5-7.28-11.95t4.6-14q5.32-7.06 12.18-8.32t13.48 3.73q6.6 5 7.32 11.91t-4.64 14.07zm-7.56-5.73a19.83 19.83 0 0 0 2.81-4.86 11.34 11.34 0 0 0 .83-4.11 6.89 6.89 0 0 0 -.83-3.32 7.86 7.86 0 0 0 -4.89-3.75 7.45 7.45 0 0 0 -3.42.12 11.24 11.24 0 0 0 -3.76 1.93 23.4 23.4 0 0 0 -6.8 9 11.49 11.49 0 0 0 -.79 4.08 7 7 0 0 0 .83 3.35 7.75 7.75 0 0 0 2.09 2.39 7.46 7.46 0 0 0 2.93 1.33 6.74 6.74 0 0 0 3.41-.16 12 12 0 0 0 3.7-1.88 19.66 19.66 0 0 0 3.89-4.12z"/><path d="m445.57 116 21.14-20.8-7.59-7.71 5-4.91 21.63 22-5 4.9-7.59-7.71-21.16 20.79z"/><path d="m467.44 141.89a29.88 29.88 0 0 1 -3.78-6.4 37.6 37.6 0 0 1 -1.93-5.94l7-5.23.5.67a20.72 20.72 0 0 0 .77 7 18.26 18.26 0 0 0 2.86 5.91 18.8 18.8 0 0 0 1.39 1.55 6.86 6.86 0 0 0 1.68 1.34 4.55 4.55 0 0 0 1.9.6 2.93 2.93 0 0 0 2-.66 2.72 2.72 0 0 0 1.14-2.21 6.86 6.86 0 0 0 -.54-2.82c-.49-1.19-1-2.45-1.65-3.76a33.3 33.3 0 0 1 -1.52-3.82 12.43 12.43 0 0 1 -.43-7.31 10.56 10.56 0 0 1 4-5.28 9.88 9.88 0 0 1 9.28-1.52 17.93 17.93 0 0 1 9.07 6.79 32 32 0 0 1 3.37 5.6 28.37 28.37 0 0 1 2 5.71l-6.7 5-.49-.65a18.11 18.11 0 0 0 -.62-5.75 15.73 15.73 0 0 0 -2.66-5.56 13.29 13.29 0 0 0 -1.43-1.63 8.54 8.54 0 0 0 -1.75-1.21 4 4 0 0 0 -1.82-.49 2.86 2.86 0 0 0 -2.95 2.67 10.17 10.17 0 0 0 1.11 4c.52 1.15 1 2.26 1.49 3.33a34.59 34.59 0 0 1 1.32 3.57 12.54 12.54 0 0 1 .44 6.76 9.61 9.61 0 0 1 -3.8 5.17 10.6 10.6 0 0 1 -9.61 1.84q-5.25-1.42-9.64-7.27z"/></g><path d="m279.08 396c5.67-7.23 88-113.88 88-209.88 0 0-46.11 52.33-87.32 52.33 0 .11-.12 19.21-.27 44.09.08-24.87.14-44 .15-44.09-41.21-.4-86.83-53.17-86.83-53.17-.91 96 80.37 203.43 86 210.72v.42l.16-.21.17.21zm-10.36-32.65c-21.63-33.18-55.41-92.66-63.63-151.13 16.08 14.21 39.79 31.44 64 35.7-.09 21.81-.24 76.3-.37 115.43z" fill="#fff"/><path d="m278.09 163.71 21.84 63s-29.69-5.64-41.46.74c.53.2 19.62-63.74 19.62-63.74z" fill="#fff"/><path d="m279.92 480.88c-110.73 0-200.82-90.09-200.82-200.81s90.09-200.82 200.82-200.82 200.81 90.09 200.81 200.82-90.08 200.81-200.81 200.81zm0-382.95c-100.43 0-182.14 81.71-182.14 182.14s81.71 182.13 182.14 182.13 182.13-81.7 182.13-182.13-81.71-182.14-182.13-182.14z" fill="#fff"/><path d="m164.16 180.16-11.08-11.16a168.16 168.16 0 0 0 -1.2 220.83l11.12-11.11a152.54 152.54 0 0 1 1.15-198.56z" fill="#fff"/><path d="m279.92 127a152.32 152.32 0 0 1 98.94 36.42l11.14-11.11a168.23 168.23 0 0 0 -214.76-4.47l11.23 11.16a152.25 152.25 0 0 1 93.45-32z" fill="#fff"/><path d="m408.58 171-11.15 11.17a152.57 152.57 0 0 1 4.49 190.16l11.22 11.11a168.25 168.25 0 0 0 -4.56-212.44z" fill="#fff"/><path d="m279.92 433.13a152.24 152.24 0 0 1 -97.57-35.31l-11.14 11.18a168.14 168.14 0 0 0 218.84-1.28l-11.05-11.14a152.28 152.28 0 0 1 -99.08 36.55z" fill="#fff"/><path d="m141.18 494.23a9.57 9.57 0 0 1 -3.34 2.85 8.88 8.88 0 0 1 -3.84.92 11.53 11.53 0 0 1 -4.48-.82 21.36 21.36 0 0 1 -4.83-2.93l-10.42-8 19.92-26 9.19 7a39.55 39.55 0 0 1 4.17 3.54 10.53 10.53 0 0 1 2.07 3 6.33 6.33 0 0 1 .55 3.61 7.42 7.42 0 0 1 -1.53 3.43 7.81 7.81 0 0 1 -3.55 2.67 7.08 7.08 0 0 1 -4.3.17l-.11.14a9 9 0 0 1 2.28 5 7.53 7.53 0 0 1 -1.78 5.42zm-6.63-5.23a4 4 0 0 0 .95-2.26 3.7 3.7 0 0 0 -.68-2.15 6.46 6.46 0 0 0 -1.43-1.51c-.69-.54-1.61-1.26-2.77-2.15l-1.21-.93-5 6.53.35.26c1.71 1.3 2.89 2.19 3.56 2.67a7.11 7.11 0 0 0 2.35 1.05 3.32 3.32 0 0 0 2.17-.13 4.37 4.37 0 0 0 1.71-1.38zm6.45-11.87a3.72 3.72 0 0 0 .66-1.54 2.42 2.42 0 0 0 -.26-1.73 5.19 5.19 0 0 0 -1.3-1.48q-.85-.7-2.61-2l-.49-.38-4.21 5.5.82.63c1.11.86 1.91 1.45 2.37 1.76a4.68 4.68 0 0 0 1.67.7 2.63 2.63 0 0 0 1.86-.19 4.51 4.51 0 0 0 1.49-1.27z" fill="#063"/><path d="m152.23 513.42q-5.7-3.31-7.18-7.86t1.62-9.85l10.5-18.12 7.12 4.13-10.29 17.69a8.33 8.33 0 0 0 -1.44 5 5 5 0 0 0 2.79 3.55 5.11 5.11 0 0 0 4.41.7c1.31-.48 2.55-1.75 3.74-3.79l10.26-17.7 7.12 4.13-10.5 18.1q-3 5.24-7.66 6.3t-10.49-2.28z" fill="#063"/><path d="m200.49 535.25-9.26-3.84-3.83-14.6-2.72-1.13-4.61 11.11-7.55-3.14 12.56-30.28 12.16 5.05a28.09 28.09 0 0 1 4.26 2.13 10.15 10.15 0 0 1 2.91 2.74 8.66 8.66 0 0 1 1.49 3.71 8.49 8.49 0 0 1 -.73 4.45 10.19 10.19 0 0 1 -3.9 5 12 12 0 0 1 -5.62 1.71zm-3.49-26.08a4.45 4.45 0 0 0 .38-2.14 3.08 3.08 0 0 0 -.92-1.87 5.82 5.82 0 0 0 -1.43-1.05c-.56-.29-1.27-.62-2.14-1l-2.54-1.05-3.38 8.15 2.17.9a17.36 17.36 0 0 0 2.78.93 4.37 4.37 0 0 0 2.22 0 3.93 3.93 0 0 0 1.65-.91 5.53 5.53 0 0 0 1.21-1.96z" fill="#063"/><path d="m205.2 536.44 8.8-31.58 21.33 5.94-1.68 6-13.45-3.75-1.54 5.53 12.39 3.46-1.68 6-12.37-3.4-2.22 8 13.45 3.75-1.68 6z" fill="#063"/><path d="m230.79 543.54 16-30.7 8.87 1.38 5.9 34.09-8.37-1.3-1-6.93-10.19-1.58-3.05 6.3zm20.5-9.61-1.64-11.2-5 10.17z" fill="#063"/><path d="m280.56 549.7q-6.6-.16-10.07-3.45t-3.31-9.42l.53-20.93 8.22.21-.51 20.44a8.27 8.27 0 0 0 1.15 5.12 5 5 0 0 0 4.15 1.78 5.11 5.11 0 0 0 4.21-1.5q1.36-1.58 1.46-5.12l.51-20.45 8.22.21-.52 20.91q-.15 6.06-3.7 9.21t-10.34 2.99z" fill="#063"/><path d="m313.92 548.24 5.78-34.11 8.86-1.41 16.07 30.64-8.36 1.33-3.07-6.29-10.2 1.6-1 6.93zm16.57-15.43-5-10.15-1.61 11.2z" fill="#063"/><path d="m350.08 541.85-9-31.53 21.3-6.06 1.71 6-13.43 3.82 1.57 5.53 12.37-3.52 1.72 6-12.32 3.54 2.27 8 13.43-3.82 1.71 6z" fill="#063"/><path d="m403.49 520.72a41.55 41.55 0 0 1 -4.49 3.78 28.34 28.34 0 0 1 -5.92 3.43q-7.1 3-13.06.74t-9.19-9.84q-3-7.08-.63-13.16t9.71-9.2a23.54 23.54 0 0 1 6.46-1.9 35.78 35.78 0 0 1 5.73-.14l3 7.07-.68.29-2.09-.54a20.42 20.42 0 0 0 -2.55-.47 14.57 14.57 0 0 0 -3.1 0 11.64 11.64 0 0 0 -3.34.88 10.61 10.61 0 0 0 -3.28 2.12 8.83 8.83 0 0 0 -2.06 3.08 9.51 9.51 0 0 0 -.58 3.89 13.39 13.39 0 0 0 1.16 4.63q2.25 5.28 6 6.66a11 11 0 0 0 8.31-.58l.94-.43c.36-.17.67-.32.93-.46l-2.53-5.92-5.84 2.5-2.39-5.65 13.17-5.62z" fill="#063"/><path d="m425.83 510.24-15.32 8.76-2.84-5 4.09-2.34-10.58-18.52-4.09 2.33-2.84-5 15.32-8.75 2.84 5-4.09 2.34 10.58 18.54 4.09-2.33z" fill="#063"/><path d="m440.81 500.81a27 27 0 0 1 -5.79 3.27 33.51 33.51 0 0 1 -5.35 1.63l-4.55-6.33.6-.43a18.43 18.43 0 0 0 6.29-.57 16.24 16.24 0 0 0 5.33-2.46 12.88 12.88 0 0 0 1.42-1.21 6.35 6.35 0 0 0 1.23-1.48 4.17 4.17 0 0 0 .56-1.69 2.58 2.58 0 0 0 -.55-1.79 2.43 2.43 0 0 0 -2-1.06 6.24 6.24 0 0 0 -2.53.44q-1.61.62-3.39 1.41a27.2 27.2 0 0 1 -3.45 1.29 11 11 0 0 1 -6.53.26 9.41 9.41 0 0 1 -4.66-3.65 8.84 8.84 0 0 1 -1.2-8.32 16 16 0 0 1 6.23-8 28 28 0 0 1 5.06-2.92 25.58 25.58 0 0 1 5.15-1.73l4.37 6.08-.59.42a16.49 16.49 0 0 0 -5.16.46 14.1 14.1 0 0 0 -5 2.28 10.78 10.78 0 0 0 -1.48 1.26 7.45 7.45 0 0 0 -1.11 1.53 3.63 3.63 0 0 0 -.47 1.63 2.36 2.36 0 0 0 .45 1.59 2.44 2.44 0 0 0 1.89 1.09 8.73 8.73 0 0 0 3.57-.93l3-1.26a30.75 30.75 0 0 1 3.22-1.13 11.13 11.13 0 0 1 6.05-.27 8.49 8.49 0 0 1 4.55 3.49 9.43 9.43 0 0 1 1.48 8.62q-1.33 4.67-6.64 8.48z" fill="#063"/></svg>