<svg viewBox="0 0 566.93 566.93" xmlns="http://www.w3.org/2000/svg"><circle cx="283.46" cy="283.46" fill="#005470" r="276.38"/><path d="m283.46 564.34a280.88 280.88 0 0 1 -198.61-479.49 280.88 280.88 0 0 1 397.23 397.23 279.06 279.06 0 0 1 -198.62 82.26zm0-552.75c-149.91 0-271.87 122-271.87 271.87s122 271.88 271.87 271.88 271.88-122 271.88-271.88-121.96-271.87-271.88-271.87z" fill="#005470"/><ellipse cx="283.46" cy="283.46" fill="#fff" rx="257.22" ry="253.1"/><path d="m283.46 544.43a261 261 0 0 1 -184.53-445.5 261 261 0 1 1 369.07 369.07 259.25 259.25 0 0 1 -184.54 76.43zm0-516c-140.62 0-255 114.41-255 255s114.41 255 255 255 255-114.41 255-255-114.37-255-255-255z" fill="#d7282f"/><path d="m357.5 368.66v-39.89l5-3.88a163.13 163.13 0 0 0 37.86-42.09c9.9-15.7 14.93-34.49 14.93-55.85 0-34.61-11.24-61.62-34.35-82.58s-56-31.63-97.62-31.63c-40.33 0-72.88 10.59-96.75 31.48-23.69 20.73-35.21 47.86-35.21 82.94 0 20.5 5 39.31 15 55.89 10.25 17.11 22.84 31.09 37.42 41.56l5.39 3.86v40.19h-66.27v31.95h106.45v-76.45c-5.28-4.16-10.06-8.16-14.27-12.16a94.26 94.26 0 0 1 -15.3-18.32v-.06-.06a95.2 95.2 0 0 1 -10.79-25.68c-2.47-9.35-3.73-20.71-3.73-33.74 0-27.7 7.21-49.66 21.43-65.26 14.54-15.94 33.62-24 56.71-24 23.95 0 43.29 8.44 57.5 25.07 13.7 16 20.64 37.64 20.64 64.22 0 14.23-1.2 25.48-3.66 34.4a97.86 97.86 0 0 1 -10.83 25 85.64 85.64 0 0 1 -14.81 18.08c-4.07 3.8-9.06 8-14.86 12.51v76.46h106.37v-31.96z" fill="#d7282f"/><path d="m350.36 209.31a2 2 0 0 0 -2 1.64l-44-6.48h-.14l-19.79-40.61a2.06 2.06 0 1 0 -2.09 0l-19.74 40.44-.07.15-44.32 6.55a2.07 2.07 0 1 0 -.44 2.15l31.88 31.48v.18l-7.54 44.51h-.28a2.06 2.06 0 1 0 2.06 2.05 2.17 2.17 0 0 0 -.23-.94l39.51-21 39.8 21.2a2.05 2.05 0 1 0 1.9-1.27h-.2l-7.54-44.56-.14-.28 32-31.58a2.05 2.05 0 1 0 1.4-3.55z" fill="#005470"/><path d="m455.85 111.08a243.79 243.79 0 0 0 -344.77 344.77 243.79 243.79 0 0 0 344.77-344.77zm16.15 172.38c0 103.96-84.58 188.54-188.54 188.54s-188.53-84.58-188.53-188.54 84.57-188.53 188.53-188.53 188.54 84.57 188.54 188.53z" fill="#005470"/><g fill="#fff"><path d="m136.38 125.43q7.94 7 8.75 15.25t-5.7 15.63q-6.52 7.41-14.85 7.57t-16.15-6.73q-7.89-7-8.75-15.21t5.66-15.67q6.51-7.38 14.81-7.61t16.23 6.77zm-7.49 8.47a24 24 0 0 0 -5.51-3.79 13.79 13.79 0 0 0 -4.8-1.35 8.19 8.19 0 0 0 -4 .69 9.35 9.35 0 0 0 -4.89 5.46 8.75 8.75 0 0 0 -.17 4.07 13.13 13.13 0 0 0 1.94 4.62 23.49 23.49 0 0 0 4.48 5.06 24.11 24.11 0 0 0 5.52 3.82 13.7 13.7 0 0 0 4.77 1.31 8.14 8.14 0 0 0 4-.69 9.16 9.16 0 0 0 3-2.25 8.88 8.88 0 0 0 1.85-3.37 8.27 8.27 0 0 0 .13-4.06 14.43 14.43 0 0 0 -1.9-4.56 23.39 23.39 0 0 0 -4.42-4.96z"/><path d="m192.44 111.75-9 6.17-16.36-23.82 4 19.87-6.08 4.23-17.11-10.88 16.38 23.83-8.5 5.84-24.77-35.94 10.4-7.16 20.17 12.27-4.25-23.16 10.41-7.16z"/><path d="m198.92 109.35-16.12-40.53 27.41-10.91 3.08 7.73-17.29 6.88 2.83 7.1 15.92-6.33 3.08 7.71-15.93 6.36 4.1 10.23 17.29-6.88 3.08 7.74z"/><path d="m266.92 87.74a54.53 54.53 0 0 1 -6.92 3.59 37.92 37.92 0 0 1 -8.7 2.67q-10.11 1.84-17.19-2.89t-9-15.47q-1.83-10.08 3.06-17.26t15.34-9.08a31.32 31.32 0 0 1 9-.57 47.22 47.22 0 0 1 7.48 1.51l1.83 10.06-1 .18-2.54-1.31a24.11 24.11 0 0 0 -3.28-1.33 19.21 19.21 0 0 0 -4-.91 15.22 15.22 0 0 0 -4.6.16 14.38 14.38 0 0 0 -4.89 1.78 11.67 11.67 0 0 0 -3.58 3.39 12.6 12.6 0 0 0 -1.89 4.87 17.77 17.77 0 0 0 .13 6.35q1.38 7.52 5.83 10.41c3 1.93 6.61 2.49 11 1.7l1.34-.28c.52-.11 1-.22 1.34-.33l-1.53-8.42-8.33 1.52-1.47-8 18.77-3.42z"/><path d="m268.88 89.85 16.12-43.14 11.95.37 13.36 44.07-11.31-.36-2.45-9-13.7-.43-3 8.81zm25.53-16-4-14.51-4.9 14.24z"/><path d="m345.31 101.56q-8.32-2.84-11.43-8.38t-.47-13.28l9-26.37 10.37 3.53-8.78 25.76q-1.46 4.31-.56 7c.6 1.77 2.12 3.08 4.56 3.91s4.37.74 5.95-.23 2.87-2.94 3.89-5.92l8.79-25.76 10.37 3.5-9 26.34q-2.6 7.62-8.36 10.23t-14.33-.33z"/><path d="m400.43 128.78-9-5.52 1.57-34.71-15.9 25.92-8.54-5.24 22.81-37.18 11.47 7-1.21 28.58 13.07-21.28 8.54 5.24z"/><path d="m421.68 148.18-17.44-15.74 5.11-5.66 4.65 4.22 19-21.07-4.66-4.2 5.11-5.65 17.44 15.74-5.11 5.66-4.65-4.2-19 21.07 4.66 4.2z"/><path d="m430.91 158.72 27.58-22-8.05-10.07 6.5-5.2 22.94 28.7-6.5 5.2-8.05-10.07-27.58 22z"/><path d="m111.1 430.78a12.53 12.53 0 0 1 -5.35 2.34 11.53 11.53 0 0 1 -5.24-.31 15.23 15.23 0 0 1 -5.4-2.77 28.7 28.7 0 0 1 -5-5.6l-10.2-14.17 35.41-25.49 9 12.51a54.87 54.87 0 0 1 4 6.12 14.11 14.11 0 0 1 1.46 4.67 8.42 8.42 0 0 1 -.69 4.81 9.9 9.9 0 0 1 -3.27 3.78 10.39 10.39 0 0 1 -5.54 2 9.48 9.48 0 0 1 -5.55-1.44l-.19.13a12 12 0 0 1 1 7.29 10 10 0 0 1 -4.44 6.13zm-6.42-9.27a5.42 5.42 0 0 0 2.09-2.51 5.07 5.07 0 0 0 0-3 8.52 8.52 0 0 0 -1.25-2.47c-.66-1-1.56-2.24-2.7-3.82l-1.18-1.64-8.87 6.38.34.48q2.5 3.46 3.51 4.77a9.18 9.18 0 0 0 2.59 2.24 4.37 4.37 0 0 0 2.81.67 5.71 5.71 0 0 0 2.66-1.1zm12.77-12.59a5 5 0 0 0 1.45-1.71 3.24 3.24 0 0 0 .32-2.31 7 7 0 0 0 -1.08-2.38c-.55-.81-1.4-2-2.54-3.6l-.45-.62-7.49 5.39.81 1.12c1.09 1.52 1.88 2.58 2.35 3.16a6.38 6.38 0 0 0 1.86 1.54 3.56 3.56 0 0 0 2.44.48 6 6 0 0 0 2.33-1.07z"/><path d="m120.39 459.9q-6.45-6-7-12.3t5-12.33l18.92-20.44 8 7.44-18.49 20c-2 2.22-3.17 4.27-3.34 6.13s.69 3.68 2.59 5.43 3.69 2.44 5.52 2.2 3.82-1.52 6-3.82l18.49-20 8 7.44-18.91 20.42q-5.49 5.93-11.81 5.93t-12.97-6.1z"/><path d="m180.3 500.71-11.46-6.87-2.22-20-3.37-2-8.25 13.74-9.35-5.6 22.41-37.43 15.05 9a38.63 38.63 0 0 1 5.2 3.64 13.35 13.35 0 0 1 3.3 4.18 11.55 11.55 0 0 1 1.25 5.17 11.31 11.31 0 0 1 -1.83 5.72 13.52 13.52 0 0 1 -6.11 5.81 15.77 15.77 0 0 1 -7.73 1.16zm.41-35a5.91 5.91 0 0 0 .92-2.75 4.19 4.19 0 0 0 -.86-2.65 7.7 7.7 0 0 0 -1.67-1.65c-.68-.5-1.56-1.07-2.63-1.71l-3.15-1.95-6 10.08 2.69 1.61a22.54 22.54 0 0 0 3.47 1.75 5.75 5.75 0 0 0 2.94.38 5.16 5.16 0 0 0 2.35-.88 7.37 7.37 0 0 0 1.94-2.26z"/><path d="m188.24 503.52 14.91-41 27.73 10.08-2.88 7.83-17.48-6.36-2.61 7.19 16.1 5.86-2.84 7.82-16.11-5.86-3.77 10.35 17.49 6.36-2.78 7.82z"/><path d="m223.32 516 21.79-40.57 11.79 2 7.27 45.47-11.12-1.9-1.21-9.24-13.52-2.27-4.16 8.33zm27.47-12.42-2-14.93-6.79 13.47z"/><path d="m291.46 523.61q-8.79.28-13.66-3.81t-5.13-12.26l-.9-27.85 11-.36.88 27.21q.15 4.53 1.94 6.71c1.19 1.44 3.07 2.13 5.65 2s4.34-.85 5.48-2.32 1.65-3.76 1.54-6.91l-.88-27.2 11-.35.9 27.81q.26 8.06-4.22 12.53t-13.6 4.8z"/><path d="m338.34 517.39.37-46 11.36-3.74 27.62 36.84-10.69 3.51-5.37-7.61-13 4.28.2 9.32zm18.52-23.79-8.73-12.28.27 15.06z"/><path d="m386 500.19-21-38.28 25.88-14.15 4 7.3-16.3 8.94 3.67 6.71 15-8.22 4 7.3-15 8.22 5.29 9.67 16.32-8.93 4 7.3z"/><path d="m448.84 454a52.4 52.4 0 0 1 -4.29 6.52 38.24 38.24 0 0 1 -6.25 6.61q-7.92 6.56-16.41 5.88t-15.44-9.01q-6.52-7.89-5.76-16.56t8.94-15.44a31.6 31.6 0 0 1 7.52-4.88 48.1 48.1 0 0 1 7.27-2.34l6.51 7.88-.77.64-2.86.1a25.24 25.24 0 0 0 -3.44.36 19.39 19.39 0 0 0 -3.95 1.18 15 15 0 0 0 -3.91 2.36 14.17 14.17 0 0 0 -3.39 3.95 11.51 11.51 0 0 0 -1.47 4.71 12.44 12.44 0 0 0 .73 5.17 17.67 17.67 0 0 0 3.22 5.48c3.24 3.93 6.63 6 10.14 6.25s7-1.07 10.4-3.89c.3-.25.65-.55 1-.9s.73-.67 1-.94l-5.46-6.6-6.52 5.4-5.21-6.3 14.7-12.16z"/><path d="m473.23 429.83-15.23 17.87-5.79-4.95 4.07-4.77-21.58-18.44-4.08 4.77-5.79-4.95 15.26-17.86 5.8 4.94-4.08 4.77 21.59 18.44 4.07-4.77z"/><path d="m487.86 409.58a36 36 0 0 1 -5.41 7 44.06 44.06 0 0 1 -5.73 4.76l-8.85-5.41.52-.85a24.55 24.55 0 0 0 7.43-3.94 21.8 21.8 0 0 0 5.28-5.77 20.55 20.55 0 0 0 1.11-2.22 8.28 8.28 0 0 0 .74-2.45 5.25 5.25 0 0 0 -.18-2.37 3.4 3.4 0 0 0 -1.6-1.91 3.22 3.22 0 0 0 -2.94-.29 8.23 8.23 0 0 0 -2.88 1.85q-1.67 1.59-3.43 3.48a40.75 40.75 0 0 1 -3.57 3.36q-4.17 3.39-7.89 3.69a12.52 12.52 0 0 1 -7.6-2.06 11.74 11.74 0 0 1 -5.75-9.6q-.54-6.41 3.52-13a38.53 38.53 0 0 1 4.71-6.2 34.37 34.37 0 0 1 5.43-4.77l8.5 5.2-.51.82a21.7 21.7 0 0 0 -6.09 3.23 18.65 18.65 0 0 0 -5 5.39 14.28 14.28 0 0 0 -1.17 2.3 10.29 10.29 0 0 0 -.58 2.47 4.9 4.9 0 0 0 .26 2.23 3.42 3.42 0 0 0 4.26 2.09 11.93 11.93 0 0 0 3.9-3l3-3.11a41.67 41.67 0 0 1 3.37-3 14.75 14.75 0 0 1 7.29-3.46 11.33 11.33 0 0 1 7.39 1.92 12.61 12.61 0 0 1 6.26 9.82q.76 6.37-3.79 13.8z"/></g></svg>