<svg enable-background="new 0 0 113.4 113.6" viewBox="0 0 113.4 113.6" xmlns="http://www.w3.org/2000/svg"><circle cx="56.8" cy="56.9" fill="#fff" r="56.2"/><path d="m56.7 0c31.9.8 56.7 24.9 56.7 56.8s-24.8 56.8-56.7 56.8-56.7-24.8-56.7-56.7 24.7-56 56.7-56.9zm51.8 57c-.7-29-22.5-51.6-51.6-51.7-29-.1-51.6 22.3-51.7 51.4-.1 29 22.2 51.6 51.4 51.8 29 .1 51-22.3 51.9-51.5z" fill="#040404"/><path d="m108.5 57c-.9 29.2-22.9 51.6-52 51.5-29.2-.1-51.5-22.8-51.4-51.8.1-29.1 22.7-51.5 51.7-51.4 29.2.1 50.9 22.7 51.7 51.7zm-51.9 42.4c23.6 0 42.5-18.8 42.6-42.3.1-23.6-18.8-42.6-42.3-42.7-23.7 0-42.7 18.8-42.7 42.4s18.8 42.6 42.4 42.6z" fill="#fcfcfc"/><path d="m56.6 99.4c-23.6 0-42.4-18.9-42.4-42.6 0-23.6 19-42.5 42.7-42.4 23.5 0 42.3 19.1 42.3 42.7-.1 23.5-19 42.3-42.6 42.3zm31-69c-.1-.2-.2-.4-.4-.5-.2.2-.1.3 0 .5.6 3.2.4 6.4-.8 9.5 3.3.5 6.1 1.8 8.5 3.9.1.2.2.4.5.4.1-.2.1-.3 0-.4-1.7-5-4.2-9.5-7.8-13.4zm-38.9 31.1c-1.6.4-3.3 0-4.9.4-4.3 1.1-7.2 3.8-9.2 7.9h2.2c3.7-.2 7-1.5 9.5-4.3 1-1.1 1.5-2.6 2.5-3.7.2-.1.4-.2.4-.5-.3 0-.5.1-.5.2zm4.1-6.9c.1.1.2.1.3.2v.3c-.4.1-.6-.3-1-.2v1.3c0 8.6.1 17.1-.2 25.7 0 .7-.1 1.3-.3 1.9-1.5 4.2-5.7 6.9-10.3 6.4-4.3-.4-8-3.8-8.7-8.2-.2-1.3-.2-2.5.1-3.9.4.4.7.6 1 .8 1.5 1 3 1.1 4.6.1 1.4-.9 2.1-2.4 1.9-4-.4-2.7-3.3-4.6-6.1-3.8-2.4.6-4 2.1-4.9 4.3-1.6 3.9-1.3 7.7.6 11.4 2.9 5.9 9.7 9 16.1 7.4s10.8-7.3 10.8-13.9c0-4.3 0-8.6 0-12.9 0-3.4 0-6.9 0-10.2-1.1-.9-2.3-1.2-3.1-2.1.4-.5.6 0 .9.1.9.5 1.7 1 2.6 1.5 1.4-.8 2.8-1.6 4.2-2.4-.3-.2-.5-.4-.7-.5-5.8-3.4-11.6-6.8-17.4-10.2-2.1-1.3-4.4-2.3-6.2-4-3.8-3.5-3.6-9.9.1-13.7 3.8-3.8 9.9-3.9 13.7-.3-.2.4-.6.3-1 .4-1.7.8-2.8 2.6-2.5 4.5s1.9 3.3 3.9 3.4c2.3.1 4.4-1.3 5.1-3.6.7-2.5.3-4.8-1.4-6.7-3.6-4.1-8.1-5.9-13.6-4.8-5.7 1.1-10.3 5.8-11.2 11.6-1 5.9 1.7 11.7 6.9 14.6 5.4 3 10.7 6.1 15.9 9.3-.2.1-.1.1-.1.2zm4.3 7.4c.3.1.4 0 .6-.1 6.3-3.6 12.7-7.2 19-10.8 1.8-1 3.4-2.3 5.4-2.7 4.9-1.1 9.8 1.8 11.4 6.6s-.8 10.1-5.5 12.1c-.3.1-.6.4-1 .2 0-.3.1-.6.1-.9.3-2.1-.8-3.9-2.8-4.5-1.9-.6-3.9.2-4.8 2-1.1 2.1-.7 4.5 1 6.1 2 1.9 4.3 2.3 6.9 1.8 7.6-1.5 12.5-9.4 10.7-17.1-2.2-9.1-12.7-13.7-20.8-9-3.3 1.9-6.6 3.8-9.9 5.7-3.4 2-6.9 3.9-10.3 5.9zm4.3-8c5.2-3 10.4-5.9 15.6-8.9 5.5-3.2 8.2-9.6 6.5-15.9-1.9-6.9-7.6-10.5-13.8-10.6-3.8-.1-7.3 1.5-10.1 4.4-1.2 1.3-2.1 2.8-2.3 4.6-.5 3.5 1.9 6.6 5.2 6.5 1.9-.1 3.6-1.4 3.9-3.2.4-2.1-.6-4-2.5-4.7-.3-.1-.7 0-.9-.4 5-4.9 13.6-2.7 16 4 1.3 3.7.2 9.2-4 11.4-1.8.9-3.5 2.1-5.3 3.2-4 2.5-8.1 4.9-12.2 7.5 1.4.6 2.6 1.3 3.9 2.1zm-35 13.4c-4-1.2-6.8-4.7-7-8.9-.3-4 2.1-8 5.8-9.6 2.8-1.2 5.5-1.3 8.3.2 5.7 3.2 11.4 6.3 17.1 9.4.3.2.5.5.9.3 0-1.4 0-2.8 0-4.3-5.1-3-10.2-5.9-15.3-8.9-3.4-2-7.1-2.4-10.9-1.4-6.2 1.7-10.8 7.9-10.4 14.1.4 7 5.2 12.6 11.7 13.6 3.6.6 7-1.4 7.8-4.5.4-1.9-.4-4-1.9-5-1.4-.9-3.2-.9-4.7.2-1.6 1.1-1.9 2.8-1.4 4.8zm54.5 10.7c.6 3.8-.2 7-2.9 9.5-2.8 2.6-6.2 3.4-9.9 2.2-4-1.3-6.4-4.6-6.5-8.8-.1-6.5-.5-13-.5-19.6 0-.2.1-.5-.3-.7-1.2.7-2.4 1.4-3.7 2.1v14.7c0 1.5-.1 3.1 0 4.6.7 6.9 6.2 12.2 13.7 12.6 6.7.3 12.4-4.1 14.1-10.4.9-3.4.8-6.8-1-9.9-1.5-2.6-4.5-3.9-7-3.2-1.9.5-3.3 2.3-3.5 4.1s.7 3.3 2.5 4.1 3.4.3 5-1.3zm-24.1-46.9c-3.7 5.6-3.6 11.2 0 16.4 3.5-5.2 3.6-10.7 0-16.4zm8 30.4c2.8 5.8 7.5 8.6 14 8.2-1.6-4.2-5.8-8.6-14-8.2zm-16.3 35c3.5 1.4 13.6 1.3 16.5 0-3.3-1-6-2.9-8.2-5.6-2.2 2.8-5 4.6-8.3 5.6zm-22-66.7c-2.9 2.3-8.1 11.3-8.2 14.2 1.3-1.1 2.6-2.1 4.1-2.8s3.1-1.1 4.8-1.5c-1.2-3.2-1.4-6.5-.7-9.9zm37.9 31.6c0-.1 0-.1 0 0 .1-.1 0-.1 0 0 0-.2-.1-.1 0 0-.1-.1 0-.1 0 0z" fill="#040404"/><path d="m52.6 54.4c-5.3-3.2-10.6-6.3-15.9-9.3-5.2-2.9-7.9-8.7-6.9-14.6 1-5.7 5.5-10.4 11.2-11.6 5.5-1.1 10 .7 13.6 4.8 1.7 1.9 2.1 4.2 1.4 6.7-.6 2.2-2.8 3.7-5.1 3.6-1.9-.1-3.6-1.6-3.9-3.4-.3-1.9.7-3.7 2.5-4.5.3-.1.7-.1 1-.4-3.8-3.6-9.9-3.5-13.7.3-3.7 3.8-3.9 10.2-.1 13.7 1.8 1.7 4.1 2.7 6.2 4 5.8 3.4 11.6 6.8 17.4 10.2.2.1.4.3.7.5-1.4.8-2.8 1.6-4.2 2.4-.9-.5-1.8-1-2.6-1.5-.3-.1-.6-.6-.9-.1l-.1-.1c0-.1 0-.2 0-.3-.1-.1-.2-.1-.3-.2-.1-.2-.2-.2-.3-.2z" fill="#fafafa"/><path d="m57.1 62c0-1.5 0-3.1 0-4.7 3.4-2 6.8-3.9 10.3-5.9l9.9-5.7c8.1-4.7 18.6-.1 20.7 9.1 1.8 7.8-3.1 15.6-10.7 17.1-2.6.5-4.9.1-6.9-1.8-1.7-1.6-2.1-4-1-6.1 1-1.8 3-2.6 4.8-2 2 .7 3.1 2.4 2.8 4.5 0 .3-.1.5-.1.9.4.1.7-.1 1-.2 4.7-2 7-7.3 5.5-12.1s-6.5-7.7-11.4-6.6c-2 .5-3.6 1.7-5.4 2.7-6.4 3.6-12.7 7.2-19 10.8 0-.1-.2.1-.5 0z" fill="#fafafa"/><path d="m53.1 55.1c1 1 2.2 1.3 3.2 2.2v10.2 12.9c0 6.6-4.4 12.3-10.8 13.9s-13.2-1.5-16.1-7.4c-1.8-3.7-2.2-7.5-.6-11.4.9-2.2 2.5-3.7 4.9-4.3 2.8-.7 5.7 1.1 6.1 3.8.2 1.7-.5 3.2-1.9 4-1.5 1-3.1.9-4.6-.1-.3-.2-.6-.5-1-.8-.3 1.4-.3 2.6-.1 3.9.7 4.4 4.4 7.8 8.7 8.2 4.6.4 8.8-2.2 10.3-6.4.2-.6.3-1.2.3-1.9.3-8.5.2-17.1.2-25.7 0-.4 0-.9 0-1.3.8-.1 1 .3 1.4.2z" fill="#fbfbfb"/><g fill="#fafafa"><path d="m61.4 54c-1.3-.8-2.5-1.5-3.8-2.3 4.1-2.5 8.1-5 12.2-7.5 1.8-1.1 3.5-2.3 5.3-3.2 4.3-2.2 5.3-7.7 4-11.4-2.4-6.7-11-8.8-16-4 .2.3.6.3.9.4 1.9.8 2.9 2.7 2.5 4.7-.3 1.8-2 3.2-3.9 3.2-3.3.1-5.7-2.9-5.2-6.5.3-1.8 1.1-3.3 2.3-4.6 2.7-2.9 6.2-4.5 10.1-4.4 6.2.1 11.9 3.8 13.8 10.6 1.7 6.2-1 12.7-6.5 15.9-5.3 3.1-10.5 6.1-15.7 9.1z"/><path d="m26.4 67.4c-.5-2-.2-3.7 1.4-4.9 1.5-1.1 3.3-1.1 4.7-.2 1.5 1 2.3 3.2 1.9 5-.7 3.1-4.2 5.1-7.8 4.5-6.5-1-11.3-6.5-11.7-13.6-.4-6.2 4.2-12.4 10.4-14.1 3.8-1 7.4-.6 10.9 1.4 5.1 3 10.2 5.9 15.3 8.9v4.3c-.4.2-.7-.2-.9-.3-5.7-3.1-11.5-6.2-17.1-9.4-2.8-1.6-5.5-1.4-8.3-.2-3.7 1.6-6.1 5.5-5.8 9.6.3 4.3 3 7.8 7 9z"/><path d="m80.9 78.1c-1.6 1.5-3.2 2.1-5 1.3-1.7-.8-2.6-2.3-2.5-4.1.2-1.8 1.6-3.5 3.5-4.1 2.5-.7 5.5.6 7 3.2 1.8 3.1 1.9 6.5 1 9.9-1.8 6.4-7.5 10.7-14.1 10.4-7.4-.4-13-5.7-13.7-12.6-.1-1.5 0-3.1 0-4.6 0-4.9 0-9.8 0-14.7 1.3-.7 2.5-1.4 3.7-2.1.4.2.3.4.3.7 0 6.5.3 13 .5 19.6.1 4.2 2.5 7.6 6.5 8.8 3.7 1.2 7.1.5 9.9-2.2 2.7-2.4 3.5-5.6 2.9-9.5z"/></g><path d="m56.8 31.2c3.7 5.6 3.5 11.2 0 16.4-3.7-5.2-3.7-10.8 0-16.4z" fill="#f8f8f8"/><path d="m48.7 61.8c-1 1.1-1.5 2.6-2.5 3.7-2.5 2.8-5.8 4.1-9.5 4.3-.7 0-1.3 0-2.2 0 2-4 5-6.8 9.2-7.9 1.6-.4 3.3 0 4.9-.4.1.1.1.2.1.3z" fill="#f9f9f9"/><path d="m64.8 61.6c8.2-.4 12.3 4 14 8.2-6.5.3-11.2-2.4-14-8.2z" fill="#f9f9f9"/><path d="m48.5 96.6c3.4-1 6.1-2.9 8.3-5.6 2.2 2.7 4.9 4.6 8.2 5.6-2.9 1.4-13 1.4-16.5 0z" fill="#f7f7f7"/><path d="m26.5 29.9c-.8 3.4-.5 6.7.7 10-1.7.3-3.3.8-4.8 1.5s-2.8 1.7-4.1 2.8c.2-3 5.3-12 8.2-14.3z" fill="#f7f7f7"/><path d="m94.9 43.8c-2.5-2.1-5.3-3.4-8.5-3.9 1.2-3.1 1.5-6.3.8-9.5h.5c3.5 3.9 6 8.4 7.7 13.4-.2 0-.4 0-.5 0z" fill="#f7f7f7"/><path d="m87.6 30.4c-.2 0-.3 0-.5 0-.1-.2-.2-.3 0-.5.3.1.4.2.5.5z" fill="#c2c2c2"/><path d="m94.9 43.8h.5c.1.1.1.3 0 .4-.3 0-.4-.2-.5-.4z" fill="#b9b9b9"/><path d="m48.7 61.8c0-.1 0-.2 0-.3.1-.2.2-.2.4-.2 0 .3-.2.4-.4.5z" fill="#a1a1a1"/><path d="m52.6 54.4c.1 0 .3 0 .3.2-.1-.1-.2-.1-.3-.2z" fill="#3f3f3f"/><path d="m64.4 61.5c0-.1-.1-.1 0 0 0-.1 0-.1 0 0 0-.2 0-.1 0 0 0-.1 0-.1 0 0z" fill="#737373"/></svg>