<svg enable-background="new 0 0 113.3 113.4" viewBox="0 0 113.3 113.4" xmlns="http://www.w3.org/2000/svg"><circle cx="56.6" cy="56.7" fill="#fff" r="55.8"/><path d="m56.6 0c31.4 0 57 25.5 56.7 57.5-.4 30.8-25.6 56.5-57.8 55.9-30.6-.6-56.2-25.7-55.5-58 .5-30.6 25.4-55.4 56.6-55.4zm-.1 111.5c29.9.1 54.2-23.9 54.8-53.5.7-30.9-24-55.5-53.6-56.1-31-.6-55.6 24.2-56 54-.4 30.8 24.6 55.7 54.8 55.6z" fill="#00a7e7"/><path d="m16.2 56.5c0-22.2 18.1-40.2 40.5-40.2 22.2 0 40.2 18.2 40.2 40.5 0 22.2-18.2 40.2-40.6 40.2-22.1 0-40.1-18.2-40.1-40.5zm41.3-30.1c-18.1-.6-30.8 14.4-31 28.3.1 0 .2-.1.3-.1 8.4-4 17.4-5.7 26.7-5.9 3.8-.1 7.5-.2 11.3.2.8.1 1-.2.8-.9-.1-.8-.2-1.5-.3-2.3-.9-5.7-3-11-5.7-16-.2-.4-.7-.7-.4-1.3.1.1.2.1.3.2 5.2 5.6 8.8 12.1 9.9 19.7.1.8.4 1.1 1.2 1.2 3.7.4 7.4 1.1 11 2.3.9.3 1.8.7 2.6 1.3.5.3 1 .7 1 1.3-.1.7-.7.9-1.2 1.1-.7.2-1.4.4-2.1.5-3.9.7-7.9 1.2-11.8 2.3-.7.2-1 .5-1.1 1.1-.5 2.6-1.4 5-2.5 7.3-3.6 7.7-9.2 13.8-15.6 19.2-.1.1-.4.1-.3.5 3.5.7 7 .9 10.5.2 12.7-2.3 21.3-9.6 24.7-22.1 3.3-12.4-.3-23.1-10-31.4-5.3-4.3-11.4-6.6-18.3-6.7zm7.3 33.7c-.2 0-.3 0-.4 0s-.3.1-.4.1c-10.5 4.3-18.2 11.6-24.3 20.8-.3.5-.2.7.2 1 1.5 1 3.1 1.8 4.8 2.6.5.2.8.1 1.2-.1 7.4-4.8 13.4-10.9 17-19.1.9-1.7 1.5-3.4 1.9-5.3z" fill="#00a7e7"/><path d="m57.5 26.4c6.9.2 13 2.4 18.2 6.8 9.8 8.4 13.4 19 10 31.4s-12 19.7-24.7 22.1c-3.5.6-7 .5-10.5-.2-.1-.3.1-.4.3-.5 6.3-5.5 11.9-11.6 15.6-19.2 1.1-2.4 2-4.8 2.5-7.3.1-.6.4-.9 1.1-1.1 3.9-1.1 7.8-1.6 11.8-2.3.7-.1 1.4-.3 2.1-.5.5-.2 1.2-.4 1.2-1.1.1-.7-.5-1-1-1.3-.8-.6-1.7-.9-2.6-1.3-3.6-1.3-7.3-1.9-11-2.3-.8-.1-1.1-.3-1.2-1.2-1.1-7.7-4.7-14.1-9.9-19.7-.1-.1-.2-.1-.3-.2 0-.2-.1-.2-.3-.2-.4-.7-.8-1.3-1.3-1.9z" fill="#e52530"/><path d="m64.8 60.1c-.4 1.9-1 3.6-1.7 5.2-3.6 8.2-9.6 14.3-17 19.1-.4.3-.7.3-1.2.1-1.7-.7-3.3-1.6-4.8-2.6-.5-.3-.5-.5-.2-1 6-9.3 13.8-16.5 24.2-20.7.1-.1.3-.1.4-.1-.1 0 0 0 .3 0z" fill="#fcfeff"/><g fill="#00a7e7"><path d="m6 50.8c.1-1.3.3-2.2.4-2.7.2-.7.6-1.1 1.1-1.2.4-.1 1.1 0 2 .1s1.6.2 2 .4c.6.2.8.7.9 1.4 0 .5-.1 1.4-.2 2.7s-.3 2.2-.4 2.7c-.1.6-.5 1-1.1 1.1-.4.1-1.1 0-2.1-.1-.9-.1-1.6-.2-1.9-.4-.6-.2-.8-.7-.9-1.4 0-.4.1-1.3.2-2.6zm1.6.1c-.1 1-.1 1.6-.1 1.8s.2.4.3.5c.2.1.6.2 1.2.2h.8c.3 0 .5-.2.6-.6.1-.3.1-.8.2-1.6.1-.7.1-1.2.1-1.5 0-.2 0-.4-.1-.6-.1-.1-.2-.2-.3-.3-.2-.1-.4-.1-.8-.1s-.8-.1-1-.1-.4 0-.5.1-.2.2-.3.5c.1.3 0 .9-.1 1.7z"/><path d="m12.7 46.9-5.8-1.8 1.3-4.3c.3-1 .5-1.6.6-1.8s.2-.4.4-.5c.2-.2.4-.3.7-.3s.6.1 1.1.2c.4.1.7.2.9.4.2.1.3.3.4.4.1.2.1.5 0 .8.1-.4.3-.6.6-.7.1-.1.3-.1.5-.1s.5.1 1 .3l.5.2-.5 1.7-.3-.1c-.3-.1-.6-.2-.7-.2s-.3 0-.4 0-.2.1-.2.2c-.1.1-.1.3-.2.7l-.8 2.5 1.5.4zm-2.3-2.7.8-2.5c.1-.4.2-.7.2-.8s0-.2 0-.2c0-.1-.1-.2-.2-.2-.1-.1-.2-.1-.4-.2s-.3-.1-.4-.1-.2 0-.3.1c0 .1-.1.1-.1.2s-.1.3-.2.7l-.9 2.6z"/><path d="m15.7 33.1.8-1.6c.3.1.4.2.5.2.4.2.7.4.9.7s.2.6.1 1.1c-.1.4-.4 1.2-.9 2.1-.5 1-.9 1.7-1.2 2.2s-.5.7-.7.9c-.2.1-.4.1-.6.1s-.5-.1-.8-.2-.7-.3-1.3-.6-1.1-.6-1.3-.7c-.3-.2-.5-.3-.6-.5-.3-.3-.3-.7-.2-1.3.1-.5.6-1.5 1.3-2.9.4-.7.6-1.2.8-1.5s.4-.5.6-.7.5-.3.8-.3.6.1 1.1.4c0 0 .1.1.3.1l-.8 1.6c-.2-.1-.3-.1-.4-.2s-.1 0-.2 0-.2.2-.4.4-.4.6-.6 1.1c-.3.5-.4.9-.5 1.1s-.1.4-.1.5.1.3.3.4.5.3.9.5.7.3.9.4.3 0 .5 0c .1-.1.2-.2.4-.4.1-.2.3-.5.6-1.1s.5-1.1.6-1.3.1-.4.1-.5c-.4.3-.6.1-.9 0z"/><path d="m15.5 26.4 1.3-1.5 1.6 1.4 2.7-3.2-1.6-1.4 1.3-1.5 4.6 4-1.3 1.5-1.7-1.4-2.7 3.1 1.7 1.4-1.3 1.5z"/><path d="m28 20.3 1.2-1c .3.4.4.7.3 1 0 .3-.2.6-.4.9s-.7.7-1.2 1.2c-.5.4-.9.7-1.2.9s-.6.3-.8.3c-.3 0-.5-.1-.7-.2-.2-.2-.5-.4-.9-.9-.3-.3-.4-.6-.6-.7-.1-.2-.2-.4-.2-.5-.1-.4 0-.7.3-1.1.2-.3.7-.7 1.3-1.3.6-.5 1-.8 1.2-.9.5-.3.9-.3 1.2-.2s.7.4 1.2 1c0 .1.1.2.3.3l-3.3 2.5c.1.2.3.3.3.3.1.1.2.1.3.1.2 0 .5-.2.9-.6.3-.2.5-.4.6-.5s.2-.3.2-.3c.1-.1.1-.2 0-.3zm-.8-1c-.1-.1-.2-.2-.2-.2s-.1-.1-.2-.1c-.2 0-.5.2-1 .5-.4.3-.7.6-.7.8-.1.2 0 .4.2.6z"/><path d="m30.3 16.7-1.4.8c-.1-.3-.2-.5-.2-.7 0-.3.2-.7.5-.9.3-.3.8-.7 1.7-1.2.6-.4 1-.6 1.3-.7.2-.1.5-.1.7 0 .2 0 .4.1.5.3.1.1.3.4.5.7l1.4 2.2-1.3.8-.3-.6h-.1c0 .3 0 .5-.2.8-.1.1-.2.3-.4.4s-.5.4-1 .6c-.4.2-.7.4-.9.5s-.4.1-.6.1c-.3-.1-.5-.3-.8-.7s-.4-.8-.3-1.1.2-.5.5-.7c.2-.2.7-.5 1.5-1 .3-.2.6-.3.7-.4h.5.1l-.1-.2c-.2-.3-.3-.4-.5-.4s-.4.1-.9.4-.8.5-.9.6-.1.2 0 .4zm1.5.4c-.5.3-.7.5-.8.6s-.1.3 0 .4.2.2.4.2.4-.2.8-.4c.5-.3.8-.5.9-.7s.2-.3.1-.5c-.1-.1-.2-.2-.4-.2-.2.1-.5.3-1 .6z"/><path d="m33.4 13.2 1.7-.7 2.5 2.2v-3.3l1.7-.7-.2 4.8-1.9.9z"/><path d="m39.3 10.5 1.7-.5 2.1 2.6.4-3.4 1.7-.5-.8 5.3c-.1.5-.1.8-.2 1 0 .1-.1.2-.2.4-.2.2-.5.4-1.1.6-.3.1-.6.2-.7.2l-.3-1.1c.1 0 .2-.1.3-.1.3-.1.4-.2.5-.3s.1-.4.2-.7l-.6.2z"/><path d="m47.7 6.4 7.3-.7.2 1.5-2.7.3.4 4.5-1.9.2-.4-4.5-2.7.3z"/><path d="m56.3 8.9h-1.6c0-.3.1-.6.2-.8.2-.3.5-.5.9-.5.4-.1 1.1-.1 2.1-.1.7 0 1.2.1 1.4.1.3.1.5.2.6.4.1.1.2.3.3.5 0 .2.1.5.1.9l-.1 2.6h-1.5v-.6h-.1c-.1.2-.3.4-.6.5-.1.1-.3.1-.6.1-.2 0-.6 0-1.2 0-.4 0-.8 0-1-.1s-.4-.2-.6-.3c-.2-.2-.3-.5-.3-1s .1-.9.4-1.1c.2-.2.5-.3.8-.3s.9-.1 1.8 0c .4 0 .6 0 .8.1.2 0 .3.1.4.3h.1v-.2c0-.3 0-.6-.2-.6-.1-.1-.4-.1-.9-.2-.6 0-.9 0-1.1 0 0 0-.1.1-.1.3zm1 1.2c-.5 0-.9 0-1 .1-.2.1-.2.2-.2.3 0 .2.1.3.2.4.2.1.4.1.9.1.6 0 .9 0 1.1-.1s.3-.2.3-.4-.1-.3-.3-.4c0 0-.3 0-1 0z"/><path d="m65.1 11 1.6.3c-.1.4-.2.6-.2.8-.1.2-.2.3-.4.4-.2.2-.5.3-.9.3s-1-.1-1.8-.2c-.7-.1-1.1-.2-1.5-.3-.3-.1-.6-.3-.8-.4-.2-.2-.3-.4-.3-.7s0-.7.1-1.3c.1-.5.2-.9.3-1.1s.3-.4.5-.6c.2-.1.5-.2.9-.2.3 0 .9.1 1.6.2s1.2.2 1.6.4c.3.1.6.3.8.5.1.2.2.4.3.6v.9l-1.6-.3c0-.2-.1-.4-.2-.6-.2-.1-.5-.2-1-.3s-.8-.1-1 0c-.1 0-.2.1-.3.3-.1.1-.1.3-.2.6 0 .3-.1.5 0 .6 0 .1.1.2.2.3.2.1.5.2 1 .3s.8.1 1 0c .1-.1.2-.3.3-.5z"/><path d="m68.8 8.1 1.5.5-.3 1 2.4.7-.3 1.1-2.4-.7-.4 1.2c-.1.3-.1.5-.1.6 0 .2.2.3.5.4s.5.1.6 0l .1-.1c0-.1.1-.2.1-.4l1.4.4c-.1.4-.2.7-.3.8-.1.2-.2.3-.4.4-.2.2-.5.2-.8.2s-.7-.1-1.2-.2-.9-.3-1.1-.4-.4-.3-.5-.5c-.1-.1-.1-.3-.1-.4s0-.3.1-.6c0-.1.1-.3.2-.7l.4-1.2-.8-.2.3-1.1.8.2z"/><path d="m73.3 10.6 1.5.6-1.6 4-1.5-.6zm.6-1.6 1.5.6-.4 1.1-1.5-.6z"/><path d="m78.2 15.7 1.5.7c-.2.3-.3.5-.5.7-.1.1-.3.2-.5.3-.3.1-.6.1-.9 0s-.9-.3-1.6-.7c-.6-.3-1-.5-1.3-.7s-.5-.4-.6-.6-.2-.5-.1-.8.2-.7.5-1.2c.2-.5.4-.8.6-1s .4-.3.6-.4c.3-.1.6 0 .9.1s.8.3 1.5.6c.6.3 1.1.6 1.4.8s.5.5.6.7.1.4.1.6-.1.5-.3.9l-1.5-.7c.1-.2.1-.4-.1-.6-.1-.2-.4-.4-.8-.6s-.7-.3-1-.3c-.1 0-.3.1-.4.2s-.2.3-.4.5c-.1.2-.2.4-.2.6 0 .1 0 .3.1.4.1.2.4.4.8.6s.7.3.9.3c.4-.1.6-.2.7-.4z"/><path d="m82.3 16.7-1.4-.9c.2-.3.4-.4.6-.5.3-.1.7-.1 1.1 0s1 .5 1.8 1c .6.4 1 .7 1.1.9.2.2.3.4.3.7 0 .2 0 .4-.1.6s-.2.5-.4.8l-1.5 2.1-1.3-.9.3-.5h-.1c-.2.1-.5.2-.8.1-.1 0-.3-.1-.5-.2s-.5-.3-1-.6c-.4-.2-.6-.5-.8-.6-.2-.2-.3-.4-.3-.6-.1-.3 0-.6.3-1s .6-.6.9-.7c.3 0 .5 0 .8.2.3.1.8.5 1.5.9.3.2.5.4.6.5s.2.3.2.5h.1l.1-.2c.2-.3.3-.5.2-.6s-.3-.4-.7-.6c-.5-.3-.8-.5-.9-.6.1 0 0 0-.1.2zm.2 1.5c-.4-.3-.7-.5-.9-.5s-.3 0-.4.2c-.1.1-.1.3 0 .4s.3.3.7.6c.5.3.8.5 1 .6s.4 0 .5-.1.1-.3 0-.4c-.1-.2-.4-.4-.9-.8z"/><path d="m88.2 17.2 1.2 1-3.9 4.6-1.2-1z"/><path d="m92.7 25.2 2.7 3.2c-.1.1-.1.1-.1.1-.7.6-1.2 1-1.5 1.2-.6.4-1.2.4-1.7-.1-.2-.2-.5-.4-.8-.7s-.7-.8-1.2-1.4c-.7-.8-1.1-1.4-1.4-1.7-.2-.4-.4-.7-.4-1 0-.2 0-.4.1-.6s.2-.4.4-.6.6-.6 1.2-1.1c.4-.4.8-.6 1-.8s.5-.3.7-.4c.5-.2.9-.1 1.4.3s1.1 1.1 2 2.1c.5.6.9 1.1 1.1 1.4.3.4.4.7.6 1 .2.4.1.9-.2 1.3-.2.2-.4.4-.7.7l-1.2-1.4c.1-.1.2-.2.2-.2 0-.1.1-.1 0-.2 0-.1-.1-.3-.3-.6-.2-.2-.5-.6-.9-1-.4-.5-.7-.8-.9-1s-.4-.3-.5-.3-.3 0-.4.1-.4.3-.8.6-.7.6-.8.7c-.1.2-.2.3-.2.4s.1.3.1.4c.1.1.4.5 1 1.2.5.6.9 1 1 1.2.1.1.2.2.3.3.1 0 .2.1.3 0 .1 0 .2-.1.3-.2l.1-.1-1.6-1.9z"/><path d="m96.6 28.9.8 1.3-.6.3v.1c.3 0 .6.1.8.2.2.2.5.4.7.8.3.6.5 1 .4 1.4s-.4.7-1 1c0 0-.1.1-.3.1l-.8-1.3c.2-.1.4-.2.4-.3.1-.2.1-.5-.2-.8-.2-.3-.4-.5-.7-.5-.1 0-.3 0-.4.1s-.4.2-.6.3l-1.5.9-.8-1.4z"/><path d="m100.9 36.6c.3.7.5 1.2.6 1.5.1.4.1.7.1.9-.1.3-.2.5-.4.6-.2.2-.5.4-1 .6-.4.2-.6.3-.8.3-.2.1-.4.1-.5.1-.4 0-.8-.2-1.1-.5-.2-.3-.5-.9-.9-1.7-.3-.7-.5-1.3-.6-1.6s-.1-.6 0-.9c.1-.2.2-.5.4-.6s.6-.4 1.2-.6c.3-.1.6-.2.8-.3.2 0 .4-.1.5-.1.4 0 .7.2.9.5.1.3.4.9.8 1.8zm-1.1.5c-.2-.5-.4-.8-.5-.9s-.2-.1-.4-.1-.4.1-.6.2c-.3.1-.4.2-.5.3s-.1.2-.1.4.1.6.3 1.1c.2.6.5.9.6 1 .2.1.5.1.9-.1.3-.1.4-.2.5-.3s.1-.2.1-.4c0-.4-.1-.8-.3-1.2z"/><path d="m99.8 47.1-.4-1.5.6-.2v-.1c-.3 0-.5-.2-.7-.4s-.4-.6-.5-1.1-.2-.9-.2-1.2.1-.6.2-.8.3-.4.5-.5.6-.3 1.2-.4l1.9-.5.4 1.6-1.9.5c-.3.1-.5.2-.6.2-.1.1-.2.2-.3.3s-.1.2-.1.4.1.4.1.7c.1.5.3.8.5 1 .1.1.3.1.4.1.2 0 .4-.1.8-.2l1.7-.5.4 1.5z"/><path d="m98.1 47.8 6-.8.2 1.5-.6.1v.1c.3.1.5.3.6.5.1.3.2.7.3 1.3.1.5.1 1 .1 1.3s-.1.6-.3.8c-.1.2-.3.3-.6.4s-.6.2-1.2.2c-.4 0-.6.1-.9.1-.2 0-.4 0-.6-.1-.3-.1-.6-.3-.7-.6-.2-.3-.3-.9-.4-1.6-.1-.5-.1-.9 0-1.2s.2-.5.4-.7v-.1l-2.3.3zm5.4 2.4c-.1-.7-.2-1.1-.4-1.2s-.5-.2-.9-.1c-.2 0-.4.1-.5.1-.1.1-.2.1-.2.3-.1.2-.1.6 0 1.2s.2 1 .3 1.1.2.1.3.2h.6c.3 0 .4-.1.6-.1.1-.1.2-.2.2-.3 0-.3 0-.7 0-1.2z"/><path d="m11.2 83.2 6.3-4.6 3.1 4.3c.6.9 1 1.4 1.1 1.7.4.7.5 1.3.3 1.7-.2.5-.7 1-1.5 1.6s-1.4.9-1.8.9c-.3 0-.6 0-.9-.2s-.6-.4-.9-.7c-.2-.3-.6-.8-1.2-1.5l-1.8-2.4-1.5 1.1zm4.6-.4 1.7 2.4c.3.4.5.7.6.8s.2.2.3.2c.1.1.3.1.4 0 .1 0 .3-.1.5-.3s.4-.3.4-.4c.1-.1.1-.3 0-.4 0-.1-.3-.5-.7-1.1l-1.7-2.4z"/><path d="m24 97.5.4-1.4-3.9-3.4-1.4.5-2-1.8 8.3-3.1 2.8 2.5-2.1 8.5zm.9-3.3.8-3.2-.4-.3-3.1 1.2z"/><path d="m31 93.2 3.7 1.9.9 7.1.2.1 2.6-5.2 2.1 1.1-3.6 6.9-3.7-1.9-1-7.1-.2-.1-2.6 5.2-2.1-1.1z"/><path d="m46.2 99.4c1.6.4 2.8.7 3.4.9.9.3 1.3.9 1.3 1.6 0 .5-.1 1.4-.4 2.6s-.5 2-.8 2.5c-.4.7-1 1-1.9.9-.6-.1-1.8-.3-3.4-.7-1.7-.4-2.8-.7-3.4-.9-.9-.3-1.3-.9-1.3-1.6 0-.5.1-1.4.4-2.6s.5-2 .8-2.4c.4-.7 1-1 1.9-.9.6 0 1.7.3 3.4.6zm-.5 2c-1.2-.3-2-.4-2.2-.4-.3 0-.5.1-.7.4-.1.2-.3.7-.5 1.5-.1.5-.2.8-.2 1 0 .4.2.7.7.9.3.1 1 .3 2 .5.9.2 1.6.3 1.9.4.3 0 .6 0 .7-.1.2-.1.3-.2.4-.4s.2-.5.3-1 .2-1 .2-1.2c0-.3 0-.5-.1-.6-.1-.2-.3-.3-.5-.4-.2-.2-.9-.3-2-.6z"/><path d="m59.2 105.5h2.4v.7c0 .6-.1 1.1-.3 1.4-.2.4-.6.6-1.2.8-.6.1-1.6.2-3 .2-1.5 0-2.5 0-3.2-.1-.6-.1-1.1-.2-1.4-.3s-.5-.3-.6-.6-.2-.6-.3-1c0-.4-.1-1-.1-1.9s0-1.6 0-2 .1-.7.2-.9c.2-.5.7-.8 1.3-1 .7-.1 2-.2 4-.2 1 0 1.7 0 2.2.1.5 0 .8.1 1.1.3.4.2.6.4.8.7s.2.8.2 1.5v.4h-2.4c0-.3 0-.4-.1-.5 0-.1-.1-.2-.1-.2-.1-.1-.3-.1-.7-.2-.4 0-.9-.1-1.7 0-.7 0-1.3 0-1.5.1-.3 0-.5.1-.6.2s-.2.3-.3.6-.1.7-.1 1.3 0 1 .1 1.2c0 .2.1.4.3.5.1.1.3.2.6.2h1.5c.9 0 1.5 0 1.8-.1.3 0 .5-.1.6-.2.4-.2.5-.5.5-1z"/><path d="m61.8 100.6 8.4-1.9.4 1.8-6.2 1.4.2 1.1 5.8-1.3.4 1.7-5.8 1.3.3 1.2 6.2-1.4.4 1.8-8.5 1.9z"/><path d="m81.5 102.1-1.2-.9-4.7 2.2v1.5l-2.5 1.2.4-8.8 3.3-1.6 7 5.3zm-2.7-2.1-2.6-2-.4.2-.1 3.3z"/><path d="m80.3 94 3.2-2.7 6.9 1.9.2-.2-3.8-4.5 1.9-1.5 5 6-3.2 2.6-6.9-1.9-.2.2 3.7 4.5-1.9 1.5z"/><path d="m89 86.4 1.6-1.9 5.9 5.1-1.6 1.9z"/><path d="m102.4 81.1-1.5-.1-2.7 4.4.8 1.3-1.4 2.3-4.4-7.6 2-3.1 8.8.7zm-3.4-.3-3.3-.3-.3.4 1.7 2.8z"/></g></svg>