<svg enable-background="new 0 0 113.4 113.4" viewBox="0 0 113.4 113.4" xmlns="http://www.w3.org/2000/svg"><path d="m113.4 56.8c0 31.3-25.7 56.6-56.9 56.6-30.8-.1-57.8-25.8-56.4-59.3 1.2-29.3 25.6-54.2 56.8-54.1 31.3.1 56.6 25.5 56.5 56.8zm-88.3 11.4c5.9.1 11.3.5 16.8 1.2 8.6 1.2 17 3.2 24.7 7.3 3.6 1.9 6.9 4.2 9.7 7.4-5.1 3.7-10.8 5.6-16.9 6.2v7.8c22.6-1.3 41-21.4 38.5-45.5-2.4-23.4-22.4-36.7-38.6-37v7.7c11.1 1.2 19.7 6.4 26 15.9-.7-.1-1.1-.2-1.5-.3-4.5-1.2-9.1-1.7-13.8-1.7-12-.2-23.7 2-35.3 5.2-3.1.9-6.2 1.8-9.4 2.8 1.7-4.5 4-8.2 7.2-11.5 6-6.2 13.3-9.5 21.8-10.3 0-2.7 0-5.2 0-7.8-22.6 1.1-41.1 21.3-38.7 45.3 2.3 23 21.9 36.8 38.8 37.1 0-2.5 0-5.1 0-7.6-14-1.7-23.7-9-29.3-22.2z" fill="#060607"/><path d="m25.1 68.2c5.6 13.3 15.3 20.5 29.3 22.2v7.6c-16.9-.3-36.5-14.1-38.8-37.1-2.4-24 16-44.2 38.8-45.4v7.8c-8.5.8-15.8 4.1-21.8 10.3-3.2 3.3-5.6 7-7.2 11.5 3.3-1 6.3-2 9.4-2.8 11.5-3.2 23.2-5.4 35.3-5.2 4.7.1 9.3.6 13.8 1.7.4.1.8.2 1.5.3-6.3-9.5-14.9-14.7-26-15.9 0-2.6 0-5.1 0-7.7 16.2.3 36.2 13.6 38.6 37 2.5 24.1-15.9 44.2-38.5 45.5 0-2.5 0-5.1 0-7.8 6.1-.6 11.8-2.5 16.9-6.2-2.7-3.2-6.1-5.5-9.7-7.4-7.8-4-16.2-6-24.8-7.2-5.4-.8-10.9-1.1-16.8-1.2zm13.6-19c-.4-.1-.8 0-1.1.3-.3.1-.7.2-1 .3-.1 0-.2.1-.3.1-.3.1-.6.2-1 .3-.5 0-1 .1-1.4.4-.4.1-.8.2-1.2.3-.1 0-.2 0-.2.1-.2 0-.3.1-.5.1-.2-.1-.4 0-.5.1-.2.1-.4.1-.5.2-.4.1-.8.2-1.3.3-.9.2-1.7.4-2.5 1 1.1-.2 2.2-.5 3.3-.7.2 0 .3-.1.5-.1.9-.1 1.9-.3 2.8-.4.3.2.5.1.8-.1.3 0 .7-.1 1-.1.2.1.4.1.5 0 .2 0 .3 0 .5-.1.1 0 .3 0 .4-.1.2 0 .4 0 .6-.1.2.1.4.1.6-.1 7.4-.7 14.8-1.1 22.2-.6 8.6.6 17.1 2.2 25 5.9l5 2.5c.1-3.3 0-6.4-.8-9.5-2.9-1.8-6.1-2.8-9.3-3.4-12.6-2.4-25-.6-37.3 2.3-.1 0-.2 0-.3.1-.2 0-.3.1-.5.1-.2-.1-.4 0-.6.2-.1 0-.3.1-.4.1-.2-.1-.4 0-.6.1-.4.1-.8.2-1.2.3-.4-.1-.6 0-.7.2zm-10.8 11.4c10.2.3 20.3 1.5 30.1 4.4 5.9 1.7 11.5 4.1 16.6 7.5 2.7 1.8 5.1 3.9 7.4 6.3 3-3.5 5.3-7.4 6.6-11.7-1.2-1.1-2.5-1.9-3.9-2.6-7.1-3.9-14.8-5.6-22.7-6.3-11.2-1.1-22.3-.1-33.3 1.8-1-.1-2 .1-3.2.6z" fill="#fdfcfc"/><path d="m28.8 60c11-1.9 22.1-2.9 33.3-1.8 7.9.8 15.7 2.4 22.7 6.3 1.3.7 2.7 1.5 3.9 2.6-1.4 4.4-3.6 8.2-6.6 11.7-2.3-2.4-4.7-4.5-7.4-6.3-5.1-3.4-10.7-5.8-16.6-7.5-9.8-2.9-19.9-4.1-30.1-4.4 0-.4.5-.3.8-.6z" fill="#dd2f2a"/><path d="m32 51.1c.2 0 .3-.1.5-.1.1.2.2.1.2-.1.4-.1.8-.2 1.2-.3.5.1 1 0 1.4-.4.3-.1.6-.2 1-.3.1.1.3 0 .3-.1.3-.1.7-.2 1-.3.4.3.7 0 1-.3.2 0 .3-.1.5-.1.4-.1.8-.2 1.2-.3.3.1.5.1.6-.1.1 0 .3-.1.4-.1.3.1.5.1.6-.2.2 0 .3-.1.5-.1.1.2.2.1.3-.1 12.3-3 24.7-4.7 37.3-2.3 3.3.6 6.4 1.6 9.3 3.4.8 3.1 1 6.2.8 9.5-1.7-.9-3.3-1.7-5-2.5-7.9-3.7-16.3-5.2-25-5.9-7.2-.6-14.6-.2-22 .5-.2 0-.4 0-.6.1-.2 0-.4 0-.6.1-.1-.1-.3-.1-.4.1-.2 0-.3 0-.5.1-.2-.3-.4-.2-.5 0-.3 0-.7.1-1 .1-.3-.2-.6-.2-.8.1-.8.1-1.8.2-2.7.4 0-.2 0-.3 0-.5.2-.1.4-.1.5-.2.3.3.4.1.5-.1z" fill="#dd2f2a"/><path d="m30.5 52c-1.1.2-2.2.5-3.3.7.8-.6 1.6-.8 2.5-1 .2.3.6.2.8.3z" fill="#eeb19b"/><path d="m28.8 60c-.2.3-.7.2-.8.6-.7 0-1.3 0-2.4 0 1.2-.5 2.2-.6 3.2-.6z" fill="#eeb19b"/><g fill="#e57157"><path d="m30.5 52c-.3-.1-.6 0-.8-.3.4-.1.8-.2 1.3-.3v.5c-.2 0-.3.1-.5.1z"/><path d="m35.3 50.1c-.4.4-.8.5-1.4.4.4-.3.9-.4 1.4-.4z"/><path d="m38.7 49.2c-.3.3-.6.6-1 .3.2-.3.6-.4 1-.3z"/><path d="m33.8 51.5c.2-.3.5-.3.8-.1-.3.1-.5.2-.8.1z"/><path d="m32 51.1c-.1.3-.3.5-.5.1.1-.1.3-.2.5-.1z"/><path d="m35.5 51.2c.2-.3.3-.3.5 0-.1.1-.3.1-.5 0z"/><path d="m42 48.3c-.2.3-.4.3-.6.2.1-.2.3-.2.6-.2z"/><path d="m41 48.6c-.2.3-.4.3-.6.1.1-.1.3-.2.6-.1z"/><path d="m39.2 49c-.2 0-.3.1-.5.1.1-.1.3-.2.5-.1z"/><path d="m37.6 51c .2 0 .4 0 .6-.1-.2.2-.4.2-.6.1z"/><path d="m42.8 48.2c-.1.2-.2.2-.3.1.1-.1.2-.1.3-.1z"/><path d="m36.6 49.7c-.1.1-.2.2-.3.1.1 0 .2 0 .3-.1z"/><path d="m32.7 50.9c0 .2-.1.2-.2.1.1-.1.2-.1.2-.1z"/><path d="m36.6 51.1c.1-.1.2-.2.4-.1-.2.1-.3.1-.4.1z"/></g></svg>