<svg enable-background="new 0 0 113.4 113.3" viewBox="0 0 113.4 113.3" xmlns="http://www.w3.org/2000/svg"><path d="m56.8 0c31.3 0 56.6 25.5 56.6 56.8s-25.5 56.6-56.9 56.5c-31.2-.1-56.5-25.5-56.5-56.8.1-31.2 25.5-56.5 56.8-56.5z" fill="#00a5e6"/><path d="m1.9 56.6c0-30.3 24.6-54.8 55-54.7 30.2 0 54.7 24.7 54.6 55.1-.1 30.2-24.7 54.7-55 54.6-30.2-.1-54.7-24.7-54.6-55z" fill="#fff"/><path d="m3.6 56.6c0-29.4 23.9-53.1 53.3-53.1 29.3 0 53 23.9 52.9 53.4-.1 29.2-24 53-53.3 52.9-29.2 0-53-23.9-52.9-53.2z" fill="#00a5e6"/><g fill="#fdfefe"><path d="m56.7 96.4c-21.9 0-39.6-17.8-39.6-39.8 0-21.8 17.8-39.6 39.7-39.6s39.7 17.8 39.6 39.8c-.1 21.8-17.9 39.6-39.7 39.6z"/><path d="m8.7 71.5 4.8-1.8 1.3 3.3c.2.7.4 1.1.4 1.3.1.5.1.9-.1 1.1-.2.3-.6.5-1.2.8-.6.2-1 .3-1.3.3-.2 0-.4-.1-.5-.3-.1-.1-.3-.3-.4-.6-.1-.2-.3-.6-.5-1.2l-.7-1.9-1.2.5zm3 .6.7 1.8c.1.3.2.5.2.6s.1.1.1.2c.1.1.1.1.2.1s.2 0 .4-.1.3-.1.4-.2.1-.2.1-.3-.1-.3-.2-.8l-.7-1.8z"/><path d="m13.9 82.8.5-.8-1.7-3h-1l-.8-1.5 5.9-.1 1.2 2.1-3.2 4.9zm1.3-1.8 1.2-1.8-.1-.3-2.2.1z"/><path d="m19.3 81.8 1.7 2.2-1.3 4.5.1.1 3-2.4 1 1.3-4.1 3.2-1.7-2.1 1.3-4.5-.1-.1-3 2.4-1-1.3z"/><path d="m26.7 89.9c.8.7 1.4 1.3 1.7 1.6.4.5.5.9.3 1.4-.2.3-.5.8-1 1.4s-1 1-1.3 1.2c-.4.3-.9.2-1.4-.1-.4-.2-.9-.7-1.8-1.5-.8-.8-1.4-1.3-1.7-1.6-.4-.5-.5-.9-.3-1.4.2-.3.5-.8 1.1-1.4.5-.6.9-1 1.2-1.2.4-.3.9-.2 1.4.1.4.3 1 .8 1.8 1.5zm-.9 1c-.6-.6-1-.9-1.2-1s-.3-.1-.5 0-.4.3-.8.7c-.2.2-.4.4-.4.5-.1.2-.1.5.1.7l1 1c .5.4.8.7 1 .8s.3.2.4.2.2 0 .3-.1.3-.2.5-.5.4-.5.5-.6.2-.3.2-.4 0-.3-.2-.4c0 0-.4-.4-.9-.9z"/><path d="m31.9 97.9 1.3.9c-.1.2-.2.4-.3.4-.2.3-.4.6-.7.7-.2.1-.6.1-.9 0-.4-.1-1-.5-1.7-1-.8-.5-1.4-.9-1.7-1.2s-.6-.5-.7-.7-.2-.4-.1-.6c0-.2.1-.4.2-.7.1-.2.3-.6.7-1.1.3-.5.6-.9.7-1.1.2-.2.3-.4.4-.4.3-.2.7-.2 1.1-.1.4.2 1.2.6 2.3 1.3.6.4 1 .6 1.2.8l.5.5c.1.2.2.5.1.7 0 .2-.2.5-.4.9 0 0-.1.1-.1.2l-1.3-.9c.1-.1.1-.3.2-.3 0-.1 0-.1 0-.2s-.1-.2-.3-.3c-.2-.2-.5-.4-.9-.6-.4-.3-.7-.4-.9-.5s-.3-.1-.4-.1-.2.1-.4.2c-.1.1-.3.4-.5.7s-.4.6-.4.7c-.1.2-.1.3 0 .4 0 .1.1.2.3.3s.4.3.8.6c.5.3.9.5 1 .6.2.1.3.1.4.1.2.2.4.1.5-.2z"/><path d="m35.3 96.2 5.2 2.4-.5 1.1-3.8-1.8-.3.7 3.6 1.7-.5 1-3.6-1.7-.3.8 3.8 1.8-.5 1.1-5.2-2.4z"/><path d="m44.6 105.3-.2-1-3.3-1-.7.7-1.7-.5 4.1-4.2 2.4.7 1.1 5.7zm-.4-2.2-.4-2.2-.3-.1-1.5 1.6z"/><path d="m47.7 100.8 2.7.3 2.2 4.2h.2l.4-3.8 1.6.2-.6 5.1-2.7-.3-2.2-4.2h-.2l-.4 3.8-1.6-.2z"/><path d="m55.3 101.5h1.7l-.1 5.2h-1.7z"/><path d="m63.6 106.3-.5-.8-3.4.3-.4.9-1.8.2 2.2-5.4 2.4-.2 3.2 4.9zm-1.2-1.9-1.2-1.9h-.3l-.8 2z"/></g><path d="m25.2 67.3-12.2-21.2 12.2-21.2h24.6l12.2 21.2-12.2 21.2z" fill="#00a5e6"/><path d="m25.9 66.2-11.6-20.1 11.6-20.1h23.2l11.6 20.1-11.6 20.1z" fill="#fdfefe"/><path d="m63.6 88.5-12.2-21.2 12.2-21.2h24.6l12.2 21.2-12.2 21.2z" fill="#00a5e6"/><path d="m64.3 87.4-11.6-20.1 11.6-20.1h23.2l11.6 20.1-11.6 20.1z" fill="#fdfefe"/><path d="m54.4 14.2.4-7.8 5.3.3c1.1.1 1.7.1 2 .2.8.1 1.3.4 1.5.8s.4 1.1.3 2.1c0 1-.2 1.6-.4 2-.2.3-.4.4-.7.6-.3.1-.7.2-1.1.2-.3 0-1 0-1.9 0l-3-.1-.1 1.9zm2.5-3.7 3 .1h1s .2 0 .3-.1.2-.2.3-.3.1-.3.1-.6 0-.5-.1-.6-.1-.2-.3-.3c-.1 0-.5-.1-1.2-.1l-3-.1z" fill="#fff"/><path d="m66.9 11.7-2-.5c.1-.4.3-.7.5-.9.3-.3.8-.4 1.3-.4s1.4.2 2.6.5c.9.2 1.5.4 1.8.6.3.1.5.4.7.6.1.2.2.5.2.7 0 .3-.1.6-.2 1.1l-.9 3.3-1.9-.5.2-.7h-.1c-.2.2-.5.4-.8.4-.2 0-.4 0-.8 0-.3-.1-.8-.2-1.5-.3-.5-.1-.9-.3-1.2-.4s-.5-.3-.6-.5c-.2-.3-.2-.7-.1-1.3.2-.6.4-1 .8-1.2.3-.2.7-.2 1.1-.2s1.2.2 2.2.5c.5.1.8.2 1 .3s.3.3.4.5h.1l.1-.3c.1-.4.1-.7 0-.8s-.5-.3-1.1-.5c-.7-.2-1.2-.3-1.4-.3s-.3.1-.4.3zm1 1.8c-.7-.2-1.1-.2-1.3-.2s-.4.2-.4.4c-.1.2 0 .4.2.5s.5.3 1.1.4c.7.2 1.2.3 1.5.2.3 0 .4-.1.5-.4.1-.2 0-.4-.2-.5s-.7-.2-1.4-.4z" fill="#fff"/><path d="m74.4 9.8 1.9.8-2.9 7.2-1.9-.8z" fill="#fff"/><path d="m77.9 11.2 1.8 1-1.5 2.6h.1c.3-.2.7-.3 1-.2s.8.2 1.4.6c.6.3 1 .6 1.4.9.3.3.5.5.7.8.1.3.2.6.1 1-.1.3-.3.8-.6 1.4-.2.4-.4.7-.6.9-.1.2-.3.4-.5.5-.4.3-.8.4-1.3.3s-1.1-.3-2-.8c-.8-.5-1.4-.9-1.6-1.3-.1-.2-.1-.4-.1-.7l-.1-.1-.3.8-1.7-1zm1.6 5.1c-.6-.3-1.1-.5-1.3-.5s-.3.1-.5.2c-.1.1-.3.3-.5.7-.2.3-.3.6-.3.8s0 .3.2.5.6.5 1.1.8c.6.4 1.1.5 1.4.5.1 0 .3-.1.4-.2s.3-.3.4-.6c.2-.3.3-.6.3-.7 0-.2 0-.3-.2-.5-.1-.5-.4-.7-1-1z" fill="#fff"/><path d="m87.7 20.1c.7.6 1.2 1.1 1.5 1.4.3.4.5.7.6 1s .1.6-.1 1c-.1.3-.4.7-.9 1.3-.3.4-.6.7-.8.9s-.4.3-.6.4c-.5.3-1 .3-1.6 0-.5-.2-1.1-.7-2-1.5-.8-.7-1.3-1.2-1.6-1.5s-.5-.7-.5-1c-.1-.3 0-.6.1-1 .2-.3.5-.8 1-1.4.3-.3.5-.6.7-.8s.4-.3.6-.4c.4-.2.9-.2 1.3.1.7.2 1.4.7 2.3 1.5zm-.9 1.2c-.5-.4-.9-.7-1.2-.8-.2-.1-.4 0-.5.1-.2.1-.4.3-.6.6s-.4.5-.4.6c-.1.2 0 .3 0 .5.1.3.4.6 1 1.1s1 .8 1.3.8.6-.2 1-.6c.2-.3.4-.5.4-.7.1-.2 0-.3 0-.5-.3-.3-.6-.7-1-1.1z" fill="#fff"/><path d="m93 23.6 1.3 1.6-1 .8 2.1 2.5-1.1.9-2.1-2.5-1.2 1c-.3.3-.5.5-.6.6-.1.2 0 .4.2.7.3.3.5.4.7.4.1 0 .1 0 .2-.1.1 0 .2-.2.4-.3l1.2 1.4c-.4.3-.7.6-.9.7s-.5.2-.7.2c-.3 0-.7-.1-1-.3s-.7-.6-1.2-1.1c-.4-.5-.7-.9-.9-1.2-.1-.3-.2-.6-.2-.9 0-.2.1-.4.2-.5.1-.2.2-.3.5-.5.1-.1.3-.3.7-.6l1.2-1-.7-.8 1.1-.9.7.8z" fill="#fff"/><path d="m93 31.3 1.1 1.8c-.2.1-.3.3-.2.6 0 .3.2.7.6 1.2.3.6.6 1 .8 1.1.2.2.4.2.5.1.2-.1.2-.3.2-.5 0-.1-.3-.6-.8-1.6-.5-.9-.8-1.4-.9-1.6-.2-.6-.3-1.1-.1-1.5.1-.3.4-.5.8-.7.7-.4 1.3-.4 1.8 0 .4.3 1 1.1 1.7 2.4.5.8.8 1.4.9 1.8s.2.8.1 1.1c0 .2-.1.3-.2.5-.1.1-.3.3-.6.5l-1.1-1.8c.1-.1.2-.2.2-.3 0-.2-.2-.6-.5-1.2s-.6-.9-.7-1.1c-.2-.2-.3-.2-.5-.1s-.2.3-.1.6c.1.2.6 1.1 1.4 2.5.4.7.6 1.2.5 1.7 0 .4-.3.8-.9 1.1-.4.2-.7.3-1 .3s-.6-.1-.8-.3c-.4-.3-1-1.1-1.8-2.5-.5-.9-.8-1.5-1-1.9s-.2-.8-.1-1.1c-.2-.4.1-.8.7-1.1z" fill="#fff"/><path d="m90.8 63.3h-22.3v7 13.6h7.1v-13.6h15.2z" fill="#00a5e6"/><path d="m67.3 54.6v5.6h-6.3v7.1h6.3 6.4.7v-12.7z" fill="#e30a14"/><path d="m67.3 80.8v-5.6h-6.3v-7.1h6.3 6.4.7v12.7z" fill="#e30a14"/><path d="m82.2 54.6v5.6h6.4v7.1h-6.4-6.3-.7v-12.7z" fill="#e30a14"/><path d="m43.7 62c3.3-2.5 5.7-5.6 6.9-9.6 2.2-7.6-1.7-14.9-9.3-17.4-.3.2-.1.7-.3 1-1.5 0-3-.1-4.7-.3.3-2.3.6-4.5.8-6.9 4.1-.2 7.9.9 11.1 3.5 6.6 5.2 8.6 14.6 4.7 22-1.9 3.7-4.9 6.2-8.8 7.8-.3.2-.4.1-.4-.1z" fill="#e30a14"/><path d="m31.3 30.2c-3.8 2.8-6.4 6.4-7.3 11-1.4 7 2.7 13.8 9.4 16h .3c.1-.3.1-.6.2-1 1.5-.1 3.1.2 4.7.2-.3 2.3-.6 4.5-.8 6.8-3.1.2-6-.5-8.6-1.9-9.7-5.2-12-18.9-4.6-27 1.8-2 4-3.4 6.5-4.4.2 0 .2.1.2.3z" fill="#009fe4"/><path d="m45.2 46.9c0-.6 0-1 0-1.5.2-.3.7-.2.8-.6 0-.6-.2-1.2-.5-1.8-.4-.2-.7.2-1-.1-.2-.4-.5-.8-.7-1.3 0-.4.5-.5.5-.9-.5-.4-.9-1-1.4-1.3-.4.1-.5.5-.8.5-.4-.3-.9-.5-1.3-.8-.2-.4.3-.7-.1-1.1-.6-.2-1.2-.4-1.8-.5-.3.3-.2.7-.6.9-.4 0-.9 0-1.4 0-.1-.3-.3-.6-.4-1-.7.2-1.4.2-2 .6-.1.4.3.7 0 1.1-.4.2-.8.5-1.3.7-.3-.2-.5-.4-.8-.7-.6.5-1.2.9-1.5 1.6.2.4.6.5.6.9-.3.4-.5.9-.7 1.3-.4 0-.7-.3-1.2 0-.2.6-.5 1.2-.4 1.9.4.2.7.3 1 .5v1.4c-.3.3-.8.2-1 .6.1.6.2 1.3.5 1.9.4-.1.8-.1 1.1-.2.3.5.5.9.8 1.3-.2.4-.6.6-.7 1 .5.5.9 1.1 1.6 1.4.3-.2.5-.5.8-.7.5.3.9.5 1.4.8-.1.4-.1.7-.2 1 .7.4 1.3.6 2.1.6.2-.3.3-.7.4-1h1.5c.2.4.3.7.4 1 .7-.1 1.4-.2 2-.6 0-.3-.1-.7-.1-1 .5-.3.9-.5 1.3-.7.5 0 .6.5 1 .5.5-.4 1-.9 1.4-1.4-.2-.3-.4-.5-.6-.8.3-.5.6-.9.8-1.3.4-.2.8.1 1.1-.2.2-.6.5-1.2.4-1.7-.4-.1-.9 0-1-.3zm-7.7 5.2c-3.4 0-5.9-2.6-5.9-6s2.7-6.1 6.1-6c3.3 0 6 2.8 6 6.1-.1 3.3-2.7 5.9-6.2 5.9z" fill="#009fe3"/><path d="m57 25.7 2.2 3.8-.8.5-1.6-2.8-.5.3 1.5 2.6-.8.4-1.4-2.6-.6.3 1.6 2.8-.8.5-2.2-3.8z" fill="#00a5e6"/><path d="m59.4 29.9 1.1 1.8-1.5 3.3.1.1 2.5-1.5.6 1.1-3.4 2-1-1.8 1.5-3.3-.1-.1-2.6 1.4-.6-1.1z" fill="#00a5e6"/><path d="m62.2 38.1 1.4 2.4c-.1 0-.1.1-.1.1-.5.3-.9.5-1.1.6-.4.2-.8.1-1.1-.3-.1-.2-.3-.3-.4-.6-.1-.2-.4-.6-.6-1-.3-.6-.6-1-.7-1.3s-.2-.5-.1-.7c0-.1 0-.3.1-.4s.2-.2.3-.3.4-.3.9-.6c.3-.2.6-.3.7-.4.2-.1.3-.1.5-.1.3-.1.6.1.8.4.3.3.6.8 1 1.6.2.4.4.8.6 1 .1.3.2.5.3.7.1.3 0 .6-.3.8-.1.1-.3.2-.5.4l-.6-1c .1-.1.2-.1.2-.1v-.1c0-.1 0-.2-.1-.4s-.2-.4-.4-.8-.4-.6-.5-.8-.2-.2-.3-.3c-.1 0-.2 0-.3 0s-.3.1-.6.3-.5.3-.6.4-.2.2-.2.3 0 .2 0 .3.2.4.5.9.5.8.5.9c.1.1.1.2.2.2s.1.1.2 0c .1 0 .1 0 .2-.1 0 0 0 0 .1-.1l-.8-1.4z" fill="#00a5e6"/><path d="m48.7 74.7 3.4-2 1.4 2.5c.3.4.4.7.5.9.1.1.1.3.2.5.1.4.1.7-.2 1-.1.1-.2.2-.3.3s-.3.2-.6.4-.5.3-.7.4-.3.1-.5.2c-.4.1-.7 0-.9-.3-.1-.1-.2-.3-.3-.4-.1-.2-.3-.4-.5-.8zm1.5.5.8 1.5c.2.3.3.5.4.6s.2.2.2.2h.3c.1 0 .3-.1.5-.2s.4-.2.5-.3.2-.2.2-.2c0-.1 0-.2 0-.3s-.2-.3-.3-.7l-.9-1.6z" fill="#00a5e6"/><path d="m56.4 79.9c.4.7.7 1.3.8 1.6.2.4.1.8-.1 1.1-.2.2-.6.4-1.1.8-.5.3-.9.5-1.2.6-.4.1-.7 0-1-.4-.2-.3-.5-.8-.9-1.5s-.7-1.3-.8-1.6c-.2-.4-.1-.8.1-1.1.2-.2.6-.4 1.1-.8.5-.3.9-.5 1.2-.6.4-.1.7 0 1 .4.2.3.5.8.9 1.5zm-.9.5c-.3-.6-.5-.9-.6-1s-.2-.2-.4-.1c-.1 0-.4.1-.7.3-.2.1-.4.2-.4.3-.2.1-.2.3-.1.6.1.2.2.5.5.9.2.4.4.7.5.8s.2.2.3.3h.3c.1 0 .3-.1.5-.2s.4-.3.5-.3.2-.2.2-.2c0-.1 0-.2 0-.4-.1-.2-.3-.5-.6-1z" fill="#00a5e6"/><path d="m57.7 87.2.6 1c-.2.1-.3.2-.3.2-.3.2-.5.2-.7.2s-.4-.1-.6-.3-.5-.6-.8-1.3c-.4-.7-.6-1.1-.8-1.4-.2-.2-.2-.4-.2-.6s0-.3.1-.4.2-.3.4-.4c.1-.1.4-.3.8-.5s.7-.4.9-.5.3-.1.5-.1c.3 0 .5.1.8.3s.6.8 1.1 1.7c.3.4.4.8.5 1s .2.4.2.5c0 .2 0 .4-.1.5s-.3.3-.6.5c0 0-.1 0-.2.1l-.6-1c .1-.1.2-.1.2-.2s.1-.1.1-.1c0-.1 0-.2-.1-.3-.1-.2-.2-.4-.4-.8-.2-.3-.3-.5-.4-.7s-.2-.2-.2-.2c-.1 0-.2 0-.3 0s-.3.1-.6.3-.4.3-.5.3c-.1.1-.1.2-.2.3 0 .1 0 .2.1.3s.2.4.4.7c.2.4.4.7.5.8s.2.2.2.2c-.1.1 0 0 .2-.1z" fill="#00a5e6"/></svg>