<?xml version="1.0" encoding="UTF-8"?>
<svg xmlns="http://www.w3.org/2000/svg" version="1.1" viewBox="0 0 566.9 566.9">
  <!-- Generator: Adobe Illustrator 29.0.1, SVG Export Plug-In . SVG Version: 2.1.0 Build 192)  -->
  <defs>
    <style>
      .st0 {
        fill: #fff;
      }

      .st1 {
        fill: #954b97;
      }

      .st2 {
        fill: #010101;
      }
    </style>
  </defs>
  <g id="Capa_1">
    <circle class="st1" cx="283.5" cy="283.5" r="278.7"/>
  </g>
  <g id="Capa_2">
    <g>
      <path class="st2" d="M426.8,426.8c-38.3,38.3-89.2,59.4-143.3,59.4s-105-21.1-143.3-59.4c-38.3-38.3-59.4-89.2-59.4-143.3s.4-14.5,1.1-21.7l-75.5-8.1c-1,9.8-1.6,19.7-1.6,29.8,0,153.9,124.8,278.7,278.7,278.7s211.3-68,254.7-165.4l-71.1-27.1c-9.9,21-23.4,40.3-40.3,57.2ZM25,346.3c0-13.2,10.7-23.8,23.8-23.8s23.8,10.7,23.8,23.8-10.7,23.8-23.8,23.8-23.8-10.7-23.8-23.8ZM84.7,445.4c-13.2,0-23.8-10.7-23.8-23.8s10.7-23.8,23.8-23.8,23.8,10.7,23.8,23.8-10.7,23.8-23.8,23.8Z"/>
      <path class="st2" d="M89.2,225.4l-71.1-27.1c-3,9.4-5.5,19.1-7.6,28.9l74.3,15.7c1.2-5.9,2.7-11.8,4.4-17.5Z"/>
      <path class="st2" d="M283.5,4.8c-113.4,0-210.9,67.7-254.4,164.8l70.7,28c9.9-21.1,23.4-40.5,40.4-57.5,38.3-38.3,89.2-59.4,143.3-59.4s105,21.1,143.3,59.4c38.3,38.3,59.4,89.2,59.4,143.3s-.4,14.4-1.1,21.5l75.6,8.1c1-9.7,1.6-19.6,1.6-29.6,0-153.9-124.8-278.7-278.7-278.7ZM462.3,146c0-13.2,10.7-23.8,23.8-23.8s23.8,10.7,23.8,23.8-10.7,23.8-23.8,23.8-23.8-10.7-23.8-23.8ZM516.6,245.4c-13.2,0-23.8-10.7-23.8-23.8s10.7-23.8,23.8-23.8,23.8,10.7,23.8,23.8-10.7,23.8-23.8,23.8Z"/>
      <path class="st2" d="M476.1,346.8l70.7,28c3.6-10.4,6.6-21.2,9-32.1l-74.3-15.7c-1.5,6.7-3.3,13.3-5.4,19.9Z"/>
    </g>
    <g>
      <path class="st0" d="M122.4,101.3l-11.5,9.6-4.5-5.4-1.9-2.3,30.6-25.7,3.2,3.8-.6,7-7.6,6.4,19.3,23-7.6,6.4-19.3-23Z"/>
      <path class="st0" d="M160.9,103.2l-.7-1.3,6.1-20.3-20.3-6.1-2.4-4.4,8.8-4.7,20.3,6.1,13.2-7.1,4.7,8.8-13.2,7.1-2,6.8,17.6-9.5,6.8,2,2.4,4.4-39.6,21.3-1.7-3.1ZM156.8,64l26.4-14.2,2.4,4.4-2,6.8-13.2,7.1-13.5-4.1Z"/>
      <path class="st0" d="M203.2,80.3l-.4-1.4,24.1-43.2,9.6-2.7,10.9,38.5-9.6,2.7-1.4-4.8-14.4,4.1,6.9-12.3,4.8-1.4-2.7-9.6-17.2,30.9-9.6,2.7-1-3.4Z"/>
      <path class="st0" d="M248.9,34.3v-3.5s0-1.5,0-1.5h10c0-.1,35.4,34.4,35.4,34.4v5c0,0-9.9.1-9.9.1l-35.4-34.5ZM249.1,48.3v-9c-.1,0,10,9.9,10,9.9l.3,20h-10c0,.1-.3-20.9-.3-20.9ZM268.9,34.1v-5c0,0,9.9-.1,9.9-.1l35.4,34.5v5c0,0-9.9.1-9.9.1l-35.4-34.5Z"/>
      <path class="st0" d="M321.2,48.7l.6-2.9,29.3,6.5-2.2,9.8-29.3-6.5,1.5-6.8Z"/>
      <path class="st0" d="M349.9,73.2l.6-1.4,46-18.3,9.2,4-15.8,36.7-9.2-4,2-4.6-13.8-5.9,13.1-5.2,4.6,2,4-9.2-32.8,13.1-9.2-4,1.4-3.2Z"/>
    </g>
    <g>
      <path class="st0" d="M149,478.8l5.8-10.5,30.6,16.9-13.6,3.9-13.1-7.2-14.5,26.3-8.7-4.8,13.5-24.5ZM160.7,488.7l8.7,4.8,20.4-5.9,4.4,2.4-4.8,8.8-20.4,5.9-13.1-7.2,4.8-8.8Z"/>
      <path class="st0" d="M183.2,525.3l.5-1.4,43.9-22.7,9.5,3-12.1,38.1-9.5-3,1.5-4.8-14.3-4.5,12.6-6.5,4.8,1.5,3-9.5-31.4,16.2-9.5-3,1.1-3.4Z"/>
      <path class="st0" d="M235.1,523.5l1-8.9,8.8,11-2.2,19.9-9.9-1.1,2.3-20.9ZM236.7,509.6l.4-3.5.2-1.5,9.9,1.1,22,27.6,2.8-24.8,9.9,1.1-4.5,39.8-9.9-1.1-30.8-38.7Z"/>
      <path class="st0" d="M294.6,539.1l14.9-1.3,9.1-10.8-10.8-9.1-14.9,1.3,1.3,14.9-9.1,10.8-2.1-24.4-.9-10.5,29.9-2.6,16.2,13.7.9,10-13.6,16.2-29.9,2.6,9.1-10.8Z"/>
      <path class="st0" d="M331.6,521.4l-2.9-10.1,3.4-6.2,38.4-11.2-6.8,12.4-24,7,5.6,19.2-6.8,12.4-6.8-23.5ZM350,531.2l19.2-5.6-4.2-14.4,6.8-12.4,8.4,28.8-3.4,6.2-33.6,9.8,6.8-12.4Z"/>
      <path class="st0" d="M376.2,504.9l-5.6-10.6,13.5,4.2,14,26.5-8.8,4.7-13.1-24.8ZM400,507.1l-4.4,2.3-4.7-8.8,8.8-4.7,2.1-6.8-13.3,7-13.5-4.2,35.4-18.6,4.7,8.9-4.2,13.5h0c-.2.6-.5,1.7-1,3.4l16.9,5.2,2.3,4.4-8.8,4.7-20.2-6.3Z"/>
      <path class="st0" d="M434,501.8l-.9-1.1,4.7-49.2,7.7-6.4,25.4,30.9-7.7,6.4-3.2-3.9-11.6,9.5,1.4-14.1,3.9-3.2-6.4-7.7-3.4,35.2-7.7,6.4-2.2-2.7Z"/>
    </g>
    <g>
      <path class="st2" d="M217.9,205.6c5.9,5.2,12,10.6,18.3,16.1-5.2,5.4-9.1,10.5-13,13.1-11.3-10.7-22.1-20.9-31.8-30.1,31.1-31.2,62.1-62.4,92.5-93,30.9,30.8,62,61.9,94.8,94.6-15.9,15.3-32.2,30.8-48.3,46.3,5.6,5.9,10.7,11.1,18,18.7,10.4-11.6,20.5-22.8,29.4-32.8,16.3,15.9,31.6,30.9,45.6,44.6-14.9,15.4-29.9,30.9-46.1,47.5-9.9-10.6-19.9-21.4-31.3-33.6-21.2,21.8-41.5,42.9-62.7,64.7-10.6-11.1-20.5-21.4-29.7-31-11.8,11.7-23.1,22.8-32.6,32.2,21.1,21.4,42.5,43,63.1,63.9,21-20.8,42.4-42.1,64.2-63.8-5.4-5.6-10.9-11.4-15.8-16.6,4.9-5.4,9.1-10.2,12.1-13.5,11.2,10.8,21.9,21.1,31.2,30.1-30.9,31-61.9,62.2-91.9,92.4-30.8-30.6-62-61.6-94.2-93.7,15.7-15.1,31.8-30.6,47.5-45.8-5.7-6.2-10.9-11.7-17.3-18.6-10.6,11.3-20.8,22.2-29.9,31.9-16.2-15.8-31.6-30.9-46.5-45.5,14.9-14.9,30.1-30.1,46.2-46.2,9.9,10.6,20.1,21.5,31.9,34.1,21.6-22.1,42.1-43.1,63.7-65.1,10,10.5,19.8,20.9,29.5,31.1,11.6-11.4,22.7-22.3,33.6-32.9-21.7-21.7-43.3-43.2-64.8-64.6-21.3,21.3-42.8,42.8-65.7,65.8ZM330.5,285c-15.8-15.7-31.7-31.6-47.3-47.1-14.9,14.5-31,30.2-46.9,45.8,16,15.9,31.8,31.6,48,47.8,15.7-15.8,31.3-31.4,46.2-46.4ZM395.9,283.8c-4.3-6.6-11.1-11.2-16.2-16.9-5.7,5.8-11.2,11.4-17.3,17.6,5.2,4.3,11.5,9.4,18.4,14.9,4-4.2,9.3-9.6,15.1-15.6ZM188.3,301.2c6.1-6,11.8-11.4,17.1-16.6-5.8-5.7-11.3-11.2-17.5-17.3-5.3,4.5-11.3,10.1-16.1,16.4,5.9,6.2,11.2,11.9,16.5,17.4Z"/>
      <path class="st2" d="M283.7,312.5c10.1-9.7,20-19.1,30-28.7-10.1-9.6-20.1-19-30-28.4,0,18.5,0,37.9,0,57.1Z"/>
    </g>
  </g>
</svg>