<svg id="Capa_1" data-name="Capa 1" xmlns="http://www.w3.org/2000/svg" viewBox="0 0 566.93 566.93"><defs><style>.cls-1{fill:#92b193;}.cls-2{fill:#f4eed8;}.cls-3{font-size:53.3px;}.cls-3,.cls-4,.cls-5{fill:#fff;}.cls-3,.cls-4{font-family:Impact;}.cls-4{font-size:53px;}.cls-6{fill:#ffdf8c;}.cls-7{fill:#e30613;}.cls-8{fill:#d20a11;}</style></defs><circle class="cls-1" cx="283.46" cy="283.46" r="269.29"/><path class="cls-2" d="M283.46,547A263.53,263.53,0,0,1,97.12,97.12,263.53,263.53,0,1,1,469.81,469.81,261.78,261.78,0,0,1,283.46,547Zm0-520.07C142,26.93,26.93,142,26.93,283.46S142,540,283.46,540,540,424.92,540,283.46,424.92,26.93,283.46,26.93Z"/><text class="cls-3" transform="translate(91.39 137.92) rotate(123.85)">К</text><text class="cls-3" transform="matrix(-0.44, 0.9, -0.9, -0.44, 73.83, 164.47)">О</text><text class="cls-3" transform="translate(59.14 194.91) rotate(105.48)">С</text><text class="cls-3" transform="matrix(-0.2, 0.98, -0.98, -0.2, 50.94, 225.12)">М</text><text class="cls-3" transform="translate(42.85 267.48) rotate(89.88)">О</text><text class="cls-3" transform="matrix(0.15, 0.99, -0.99, 0.15, 42.69, 300.45)">Ф</text><text class="cls-3" transform="translate(50.62 346.18) rotate(71.9)">Л</text><text class="cls-3" transform="translate(61.58 378.82) rotate(64.26)">О</text><text class="cls-3" transform="matrix(0.54, 0.84, -0.84, 0.54, 75.78, 407.55)">Т</text><text class="cls-4" transform="translate(177.53 501.78) rotate(22.52)">П</text><text class="cls-4" transform="matrix(0.98, 0.22, -0.22, 0.98, 208.85, 513.6)">А</text><text class="cls-4" transform="translate(236.17 519.66) rotate(10.19)">Т</text><text class="cls-4" transform="translate(264.34 525.25) rotate(0.13)">Ч</text><text class="cls-4" transform="translate(297.15 524.96) rotate(-6.19)">Е</text><text class="cls-4" transform="translate(321.57 522.3) rotate(-12.2)">Р</text><text class="cls-4" transform="translate(351.35 516.26) rotate(-21.05)">Ы</text><text class="cls-3" transform="translate(500.94 389.68) rotate(-67.6)">А</text><text class="cls-3" transform="translate(512 360.61) rotate(-77.03)">Р</text><text class="cls-3" transform="translate(518.18 333.34) rotate(-79.87)">И</text><text class="cls-3" transform="translate(524.09 300.56) rotate(-90.24)">А</text><text class="cls-3" transform="matrix(-0.14, -0.99, 0.99, -0.14, 524.01, 270.22)">Д</text><text class="cls-3" transform="matrix(-0.27, -0.96, 0.96, -0.27, 518.44, 232.45)">Н</text><text class="cls-3" transform="matrix(-0.39, -0.92, 0.92, -0.39, 509.29, 201.09)">А</text><text class="cls-3" transform="translate(497.57 174.51) rotate(-117.58)"> </text><path class="cls-5" d="M454.4,260.07l-.17-.43c-.88-2.15-3.24-5.76-9.2-5.76l-61.73,0-50.36,0,4.58-9.83a40,40,0,0,0,16.7-8.15,39.49,39.49,0,0,0,12.5-17.46,9.79,9.79,0,0,0,1.23-4.27,9.6,9.6,0,0,0,.57-2.41c.05-.58.16-1.23.28-1.92a24.16,24.16,0,0,0,.46-6.13l0-.36a40.57,40.57,0,0,0-1.44-9.07c-.13-.43-.25-.87-.37-1.31l0,0c-.25-.9-.53-1.88-.86-2.87A30.86,30.86,0,0,0,363,183l-.21-.33,0-.06c-.24-.4-.58-.94-1-1.52a8.8,8.8,0,0,0-7.21-3.73,9,9,0,0,0-1.7.16l-.3.05a5,5,0,0,0-1.12.35l-.27.13a10.4,10.4,0,0,0-5,5.36,2.24,2.24,0,0,1-.13.27c-.78,1.57-1.47,3.1-2.14,4.58-.42.92-.84,1.84-1.27,2.76-.31.67-.64,1.32-1,2l0,.06c-.74,1.47-1.56,3.1-2.24,4.86-.36.94-.85,2-1.32,3l0,.05-.5,1.08c-.27.57-.53,1.14-.79,1.72-.44,1-.85,1.88-1.28,2.73l-12.58-5.88c.09-.17.17-.35.25-.52l.39-.88c.47-1,.95-2.09,1.43-3s.93-1.87,1.35-2.77l0-.07c.2-.43.39-.84.59-1.25.42-.89.82-1.78,1.16-2.57.56-1.26,1-2.34,1.58-3.34.91-1.67,1.63-3.33,2.26-4.8l0-.06c.26-.61.53-1.23.8-1.83l.17-.37c.36-.78.68-1.48,1-2.16a8.54,8.54,0,0,0,.15-8,4.73,4.73,0,0,0-4.71-5.21h-6.16a4.7,4.7,0,0,0-2.93,1,37.45,37.45,0,0,0-6.91,2.17l-.47.18a34.81,34.81,0,0,0-4,2l-.66.36a31.86,31.86,0,0,0-4.71,3.18,35.47,35.47,0,0,0-5.56,5.36,40.63,40.63,0,0,0-7.47,13.09c0,.12-.09.25-.14.37l0,.05a17.32,17.32,0,0,0-.6,1.89,7.41,7.41,0,0,0-.67,2,40.15,40.15,0,0,0,.52,19.87,26.45,26.45,0,0,0,3,7.54l.15.3-9.16,19.64-.07-.13c-1.13-2.53-2.3-5.16-3.55-7.78-.38-.78-.76-1.55-1.15-2.31-.51-1-1-2.05-1.46-3-.22-.51-.47-1-.71-1.56-.4-.84-.77-1.64-1.06-2.37s-.62-1.63-1.05-2.54c.14-.3.26-.58.37-.83s.17-.4.26-.59c.37-.79.67-1.57.93-2.26.14-.38.28-.74.43-1.1a14.44,14.44,0,0,0,.87-3c0-.08,0-.16,0-.23a10.09,10.09,0,0,0,1.11-5.24c0-.18.1-.59.16-.89a15.66,15.66,0,0,0,.36-4.88c-.07-.63-.12-1.28-.18-1.92a36.27,36.27,0,0,0-1.28-7.87c-.14-.44-.26-.88-.38-1.32-.26-1-.55-2-1-3.18a40.19,40.19,0,0,0-5.68-10.12,33.32,33.32,0,0,0-6.08-6.32,45.56,45.56,0,0,0-9.66-5.91,46,46,0,0,0-5.26-1.89l-.55-.17a4.75,4.75,0,0,0-3.53-1.58h-7.58a4.75,4.75,0,0,0-4.73,4.84v.15a8.24,8.24,0,0,0,.11,8.48,15.13,15.13,0,0,1,.75,1.58,25.58,25.58,0,0,0,1.28,2.71,27,27,0,0,1,1.6,3.43,34.75,34.75,0,0,0,2.38,5.06,8.1,8.1,0,0,1,.38.87l.26.61c.5,1.19,1,2.25,1.54,3.28s1,2,1.31,2.8c.43,1.09.89,2.1,1.36,3.07l-12.49,5.81c-.11-.24-.22-.48-.34-.72l0-.06c-.51-1.11-1-2.26-1.59-3.39-.83-1.73-1.69-3.62-2.62-5.76l-.21-.49a45.16,45.16,0,0,0-2.24-4.66c-.19-.33-.42-.86-.67-1.42l-.52-1.15c-1-2.11-1.93-4.26-3-6.42l0-.06a9.58,9.58,0,0,0-2.17-2.76l-.43-.47A4.71,4.71,0,0,0,215,177.6l-.82-.14a10.37,10.37,0,0,0-1.65-.13,9.53,9.53,0,0,0-8.45,5.14l-.15.25a58.61,58.61,0,0,0-3.41,6.69,32.74,32.74,0,0,0-2.2,7.48l0,.35a39.39,39.39,0,0,0-.65,8.21,46.58,46.58,0,0,0,1.51,9.68,42.9,42.9,0,0,0,1.92,5.44,35.94,35.94,0,0,0,4.75,8.29,40.42,40.42,0,0,0,6.62,6.95,36.2,36.2,0,0,0,6.92,4.62,45.78,45.78,0,0,0,5.84,2.44c1.32.43,2.7.81,4.17,1.14q2.3,4.94,4.63,9.92-23,0-46,0h-68a5.11,5.11,0,0,0-1.11.13l-.27.07a8.18,8.18,0,0,0-1.32.44h-.3a4.73,4.73,0,0,0-4.73,4.74v5a4.75,4.75,0,0,0,1,2.94l.52.65a11.65,11.65,0,0,1,.75,1.43c.25.52.51,1.06.8,1.61a39,39,0,0,0,4.56,6.44,22.12,22.12,0,0,0,3.26,3.09l0,0c.25.21.51.41.76.63a25.21,25.21,0,0,0,8,4.76l.6.22a28.09,28.09,0,0,0,2.93,1c4.72,8,10.84,13.12,18.6,15.6,4.75,8.22,11.27,13.6,19.43,16a37.55,37.55,0,0,0,7.73,9.61,30.77,30.77,0,0,0,11.67,6.39,48.72,48.72,0,0,0,3.77,5.87,30.09,30.09,0,0,0,7.88,7,24.14,24.14,0,0,0,5.36,2.44l.26.09a29.54,29.54,0,0,0,9.08,1.6c3.12.05,6.29.08,9.7.08h3.73l-3.27,7c-17.45,4.56-28.3,16.37-31.46,34.3a35.08,35.08,0,0,0,1.93,18.45,10.56,10.56,0,0,0,1.48,3.85c0,.08.08.14.11.19a29,29,0,0,0,3.9,6.61l.57.75a28.15,28.15,0,0,0,4.44,5c1,.84,2,1.69,3,2.53a38.7,38.7,0,0,0,6.88,4.35,22.49,22.49,0,0,0,4.73,1.95c.44.12.89.27,1.37.42a24,24,0,0,0,4.63,1.16c.25,0,.51.07.76.12a4.68,4.68,0,0,0,2.6.78h9a4.7,4.7,0,0,0,2.95-1c.33-.08.69-.16.86-.18a7.48,7.48,0,0,0,3.66-1,39.4,39.4,0,0,0,23.3-19.48c5.43-10.09,6.32-20.94,2.64-32.24l-.07-.19-.07-.18a.87.87,0,0,0-.07-.17c-.15-.36-.3-.75-.46-1.15-.44-1.11-1-2.47-1.69-3.89l9.09-19.53c.52,1.13,1.08,2.32,1.69,3.49.8,1.58,1.62,3.34,2.49,5.38l.28.65c1,2.37,2.07,4.79,3.28,7.19.19.37.38.81.58,1.27l0,.05c.24.54.5,1.11.79,1.71a38.34,38.34,0,0,0-3.1,8.12A36.06,36.06,0,0,0,288,400.63l.07.75a29.06,29.06,0,0,0,1.45,7.84c.06.16.15.52.23.81a18.46,18.46,0,0,0,.9,2.81l.34.81a29.31,29.31,0,0,0,3.43,6.48c.55.73,1.06,1.42,1.43,2a20.83,20.83,0,0,0,2.07,2.71l.06.08c.17.19.34.38.5.59a18.25,18.25,0,0,0,2.54,2.54l0,0,.57.5a36.15,36.15,0,0,0,5.73,4.22l.61.39a36,36,0,0,0,4.85,2.5l.42.2,0,0a13.83,13.83,0,0,0,3.65,1.31,10.88,10.88,0,0,0,3.66.89h.18l.82.17h.05l.35.07a4.69,4.69,0,0,0,2.58.77h7.55a4.7,4.7,0,0,0,2.4-.66c.37-.06.72-.13,1-.2s.58-.12.86-.16l.19,0h.06a11.32,11.32,0,0,0,4-1.12c4.32-1.13,12-4.28,19.37-13a38.89,38.89,0,0,0,9.1-22.78,39.59,39.59,0,0,0-7.52-26.49,40.12,40.12,0,0,0-24.21-16.05l-3.39-7.27,2.8,0h.2q2.22,0,4.47,0c3.9,0,6.89-.09,9.69-.31a24.24,24.24,0,0,0,12.43-4.57,24.6,24.6,0,0,0,5.23-4.6,56.62,56.62,0,0,0,3.85-5.21c.48-.73.88-1.45,1.26-2.16,8.07-2.26,14.57-7.61,19.34-15.94.4-.12.82-.25,1.24-.41l.7-.26a25.56,25.56,0,0,0,5.61-2.7,34.57,34.57,0,0,0,5.66-4.4,42.8,42.8,0,0,0,3.62-4.29,29.63,29.63,0,0,0,2.62-4.14,21.77,21.77,0,0,0,6.62-2.94l.7-.42a27.6,27.6,0,0,0,7.1-6.15,40.4,40.4,0,0,0,4.36-6.24,5.18,5.18,0,0,1,.54-.13,24.67,24.67,0,0,0,8.45-3.7l.33-.2a28.54,28.54,0,0,0,7.74-7.29,35.27,35.27,0,0,0,4.23-7l.12-.29a4.73,4.73,0,0,0,1.75-3.67v-2.57A4.74,4.74,0,0,0,454.4,260.07Z"/><path class="cls-6" d="M445,261.28q-57.3,0-114.62,0a19.43,19.43,0,0,0-8.61,1.85,1.26,1.26,0,0,1-.88,0L332.64,238a33.75,33.75,0,0,0,17.11-7.31,32.79,32.79,0,0,0,10.58-15.18,2.6,2.6,0,0,0,.53-1.87c-.07-.84.51-1.47.59-2.3.22-2.27.9-4.51.72-6.81a35.67,35.67,0,0,0-1.17-7.91c-.4-1.31-.74-2.69-1.19-4a23.09,23.09,0,0,0-2.74-5.46c-.35-.53-.65-1.09-1-1.61a1.82,1.82,0,0,0-1.94-.83c-1,.47-1.35,1.51-1.79,2.38-1.17,2.37-2.2,4.79-3.33,7.17-1,2.17-2.2,4.26-3.07,6.48-.6,1.56-1.35,3.06-2,4.56-.9,1.94-1.73,3.94-2.78,5.82a38.22,38.22,0,0,0-1.94,4.27c-.14.33-.24.58-.51.72q-12.66-5.92-25.21-11.78c.94-2.41,2.11-4.65,3.16-6.94.65-1.41,1.27-2.85,2-4.23s1.23-2.58,1.84-3.86c1-2.07,1.81-4.23,2.92-6.26s1.92-4.15,2.87-6.23c.43-1,.86-1.88,1.32-2.81s.48-1.56-.49-2.1c-.25-.14-.59-.37-.51-.79h-1.79c-.25.61-.8.63-1.33.66-2.84.15-5.4,1.22-8,2.23a34.54,34.54,0,0,0-3.9,1.94,26,26,0,0,0-3.7,2.52,28.46,28.46,0,0,0-4.47,4.3,34.19,34.19,0,0,0-6.2,10.75,9.84,9.84,0,0,0-.74,2.66c0,.38-.46.47-.45.8a33.29,33.29,0,0,0,.49,17c.44,2.93,2.76,6.1,4,9.29-5.75,12.34-11.34,24.34-17,36.45-1.37-2.85-2.75-5.5-3.91-8.23-.83-2-1.77-3.83-2.63-5.75-1.15-2.55-2.3-5.12-3.5-7.64-.87-1.82-1.85-3.64-2.68-5.48-.63-1.4-1.35-2.81-1.91-4.26a16.08,16.08,0,0,0-2.18-4.29,1.37,1.37,0,0,1,0-1.68,11.9,11.9,0,0,0,2-3.54c.47-1,.84-2.15,1.26-3.16.52-1.21.43-2.55,1.14-3.67a3.19,3.19,0,0,0,.33-1.67c-.1-1.83.74-3.56.54-5.34-.3-2.83-.33-5.67-1.18-8.47-.42-1.34-.72-2.77-1.22-4.1a33,33,0,0,0-4.7-8.33,26.4,26.4,0,0,0-4.79-5,38.65,38.65,0,0,0-8.16-5c-2.15-.94-4.38-1.5-6.56-2.25-.83-.28-1.76.08-2.59-.35-.21-.1-.28-.2-.23-.41h-2.24c0,.4-.32.56-.54.8-.48.53-.82,1.26-.47,1.81.92,1.45,1.39,3.12,2.22,4.62a34.3,34.3,0,0,1,2,4.38,27.54,27.54,0,0,0,1.91,4,22.06,22.06,0,0,1,1,2.22c.9,2.1,2.06,4.08,2.9,6.2.93,2.31,2.15,4.49,3.09,6.81a21.4,21.4,0,0,1,1,2.39L228,216.21a22.81,22.81,0,0,0-1.88-4.29c-1-2.08-1.94-4.2-2.94-6.28s-1.85-4-2.73-6a47.45,47.45,0,0,0-2.1-4.46c-.49-.85-.87-1.8-1.29-2.71-1-2.24-2-4.47-3.1-6.67a4.66,4.66,0,0,0-.95-1,2.51,2.51,0,0,0-2.79,1.53,52.38,52.38,0,0,0-3.16,6.09,25.93,25.93,0,0,0-1.75,5.9,33.56,33.56,0,0,0-.62,7.1A39.43,39.43,0,0,0,206,213.6a33.56,33.56,0,0,0,1.61,4.54,30,30,0,0,0,3.81,6.7,34.36,34.36,0,0,0,5.49,5.75,28.3,28.3,0,0,0,5.53,3.74,41.63,41.63,0,0,0,4.93,2.08,46.43,46.43,0,0,0,6.88,1.61c3.95,8.45,8,17.07,12,25.77-1.4-.61-2.62-1.68-4.21-1.71a5.35,5.35,0,0,0-3.33-.77q-41.25,0-82.51,0h-36c-.48.12-.31.91-.91.86v1.56a26.25,26.25,0,0,1,2.24,4.1,33.11,33.11,0,0,0,3.78,5.28,26.63,26.63,0,0,0,3.25,2.93,18.1,18.1,0,0,0,5.75,3.44c1.75.64,3.57,1.46,5.54,1.17,3.78,7.66,9,13.58,17.52,15.87h1.27c4,8.29,9.77,14.44,19.56,16.29a32.9,32.9,0,0,0,7.65,10.43,24.42,24.42,0,0,0,12,5.64,10.56,10.56,0,0,0,.45,1.24,45.52,45.52,0,0,0,4,6.4,23,23,0,0,0,6.08,5.35,19,19,0,0,0,4.1,1.8,22.07,22.07,0,0,0,6.88,1.19c6.85.12,13.68.1,20.52,0,1.36,0,2.69,0,3.93.09l-9.47,20.21c-16.53,3.25-26.52,13-29.43,29.39a28.35,28.35,0,0,0,2,15.7c-.18.9.69,1.78,1.1,2.79a21.91,21.91,0,0,0,3,5.1,27.32,27.32,0,0,0,3.93,4.6c1,.83,2,1.67,3,2.5a33.38,33.38,0,0,0,5.67,3.54,15.59,15.59,0,0,0,3.26,1.36,38.39,38.39,0,0,0,5.05,1.4,26.41,26.41,0,0,0,3.77.46c.22,0,.28.2.34.37h4.91c0-.77.58-.37.86-.37,1.79,0,3.46-.81,5.25-.84.24,0,.46-.33.75-.44a32.58,32.58,0,0,0,20.09-16.34c4.48-8.35,5.24-17.17,2.13-26.69-.86-2.07-1.72-4.75-3.41-7v-.87l16.87-36.21c1.28,2.47,2.35,5.1,3.62,7.63,1.57,3.08,2.83,6.29,4.41,9.37,1,1.88,1.86,3.84,2.7,5.8,1.08,2.51,2.15,5,3.38,7.46a48.77,48.77,0,0,0,2.25,4.59c.87,1.33.59,2.36-.16,3.58a30.16,30.16,0,0,0-3.28,8,29.42,29.42,0,0,0-1.19,10.23,25.7,25.7,0,0,0,1.11,6.79c.38,1,.55,2.26,1,3.28a27.43,27.43,0,0,0,2.92,5.8c.62.83,1.26,1.68,1.8,2.56a26.4,26.4,0,0,0,2.17,2.72,23.46,23.46,0,0,0,2.45,2.32,33.87,33.87,0,0,0,5.26,3.78,29.59,29.59,0,0,0,3.89,2c1.13.5,2.23,1.26,3.55,1.11.71.78,1.69.67,2.55.8,1.54.22,3,.8,4.65.57.25,0,.26.19.28.37h3.79c.05-.12.12-.35.15-.35a17.88,17.88,0,0,0,4.55-.55c.94-.18,2-.11,2.74-.81,3.33-.68,10-3,16.72-10.94A32,32,0,0,0,362.13,401,32.45,32.45,0,0,0,356,379.2a33.62,33.62,0,0,0-23.36-13.89l-9.54-20.5a35.48,35.48,0,0,1,5.88-.17c7.26-.15,14.52.28,21.79-.26a17.61,17.61,0,0,0,8.87-3.3,18.76,18.76,0,0,0,3.81-3.28,50,50,0,0,0,3.39-4.57,46.65,46.65,0,0,0,2.37-4.53c9.47-1.47,15.41-7.58,19.46-16a24.87,24.87,0,0,0,3.46-.81,23.4,23.4,0,0,0,4.87-2.2,28.13,28.13,0,0,0,4.57-3.51,35,35,0,0,0,3-3.59,24.06,24.06,0,0,0,2.33-3.8c.7-1.41,1.57-2.68,3.29-2.81,2.45-.18,4.41-1.55,6.38-2.71a21.17,21.17,0,0,0,5.29-4.63,33.15,33.15,0,0,0,5-8,20.45,20.45,0,0,0,4-.76,19.09,19.09,0,0,0,6.41-3A21.81,21.81,0,0,0,443,271.4a27.76,27.76,0,0,0,3.4-5.62c.34-.75.49-1.72,1.26-2.29v-.89C447.16,261.39,446.2,261.28,445,261.28ZM299.27,210.4a38.23,38.23,0,0,1-.5-7,23,23,0,0,1,.73-4.84c.06-.39.06-.8.09-1.21A30.68,30.68,0,0,1,308,183.21a29.22,29.22,0,0,1,14.77-7.68c-1.17,2.51-2.32,4.88-3.38,7.28-.95,2.15-1.95,4.28-2.91,6.42-.6,1.32-1.37,2.61-2,3.94a43.46,43.46,0,0,0-2.07,4.68,15.05,15.05,0,0,1-1,2.1,23.88,23.88,0,0,0-1.56,3.64c-.28.81.2,1.65.28,2.46,1.1,1.57,2.77,2.21,4.46,2.84.66.25,1.24.68,1.91,1,1.64.66,3.23,1.5,4.83,2.26,2,.95,4.09,1.82,6.07,2.88,1.29.69,2.68,1.19,4,1.83,2,1,4.09,1.81,6.14,2.72A3.47,3.47,0,0,0,341,219a8.17,8.17,0,0,0,2-3.29c1-2.17,2-4.32,3-6.5.63-1.43,1.3-2.86,2-4.27s1.21-2.88,2-4.25,1.19-2.77,1.93-4.08,1.2-3,2.1-4.43a1.68,1.68,0,0,0,.27-1.55c1.12.38,1.28,1.38,1.64,2.11a24.67,24.67,0,0,1,1.58,4.17c.31,1.13.36,2.34.62,3.51a29,29,0,0,1,.2,7.84c-.09,1.35-.59,2.73-.77,4.28a3.84,3.84,0,0,0-.57,1.3,34,34,0,0,1-2.42,5.55,29,29,0,0,1-5.6,7.18,30.39,30.39,0,0,1-4.5,3.43,23.89,23.89,0,0,1-6,2.95,36.36,36.36,0,0,1-5.33,1.3,30.2,30.2,0,0,1-6,.5c-1.47,0-2.83-.57-4.28-.73a22.51,22.51,0,0,1-6.06-1.75,26,26,0,0,1-4.63-2.53,32.65,32.65,0,0,1-5.62-4.76,31.84,31.84,0,0,1-3-4,25.67,25.67,0,0,1-3.06-6A41.13,41.13,0,0,1,299.27,210.4Zm-75.2,20.52a29.7,29.7,0,0,1-13.91-15.84,4.69,4.69,0,0,0-.7-2.44,31,31,0,0,1,.08-16.07,61.67,61.67,0,0,1,2.29-5.88c1,.33,1.06,1.49,1.37,2.22,1.09,2.56,2.37,5,3.49,7.57s2.36,5.21,3.73,7.74a41,41,0,0,1,1.78,4.09,48.72,48.72,0,0,0,2.68,5.6,2.36,2.36,0,0,0,1.7,1.43c.45,0,.57.45.95.57H229c.53-.83,1.57-.75,2.35-1.18,2-1.09,4.22-1.89,6.31-2.87,1.94-.9,3.83-1.91,5.77-2.82a44.23,44.23,0,0,0,4.1-1.8c1.44-.88,3.09-1.26,4.52-2.18a23.89,23.89,0,0,1,2.33-1.1c1.28-.62,2.48-1.38,2.48-3.07,0-.28.38-.39.31-.74-1.72-4.52-3.85-8.86-5.94-13.23s-3.76-8.85-6.55-13.09c0,0,.43.28.62-.09-.78-.45-.51-1.56-1.28-2.05.32-.45.87.44,1.14-.37a6.1,6.1,0,0,0,2.84,1.3,26.58,26.58,0,0,1,5.63,2.59,28.19,28.19,0,0,1,5.3,4,29.4,29.4,0,0,1,3.66,4.33,46.31,46.31,0,0,1,3.83,7.1,10.23,10.23,0,0,1,.32,1.7,4,4,0,0,0,.5,1.12,27.48,27.48,0,0,1-.06,14.29c-3.1,11.46-10.48,18.76-21.86,21.95C237.86,235.69,230.79,234.48,224.07,230.92Zm21.2,22.1c-.63-1.35-1.31-2.69-1.87-4.05s-1.29-2.85-1.94-4.25a21.77,21.77,0,0,0-2.27-4.49c-.37-.46-.2-1.23-.77-1.67,3.53-.77,7.25-.61,9.91-1.86a34.14,34.14,0,0,0,15.49-10.33l2,4.52c1.14,2.51,2.26,5,3.46,7.51.72,1.54,1.47,3.09,2.2,4.63,1.17,2.49,2.22,5,3.45,7.49,1.34,2.68,2.47,5.46,3.83,8.13.92,1.77,1.7,3.6,2.6,5.53-2.17,4.71-4.4,9.48-6.67,14.4-5-10.67-9.89-21.22-14.8-31.76h-2.09a3.37,3.37,0,0,0-.84.85c-.53,1.74.71,2.86,1.14,4.2a31.38,31.38,0,0,0,2,4.1c.77,1.54,1.53,3.1,2.28,4.64.63,1.29,1.15,2.67,1.77,4,.74,1.57,1.34,3.21,2.21,4.73.72,1.26,1.19,2.65,1.8,4,.7,1.51,1.53,3,2.13,4.52s1.52,3.06,2.16,4.63a1.43,1.43,0,0,1-.05,1.09c-1,2.09-2.06,4.13-2.94,6.25-.67,1.61-1.62,3.08-2.15,4.76a8.68,8.68,0,0,1-1.42,2.72c-.88-2-1.63-4.11-2.65-6-.75-1.41-1.47-2.86-2.17-4.28s-1.14-2.75-1.81-4.07c-1.05-2.14-1.88-4.37-3.08-6.45a36.84,36.84,0,0,1-1.7-3.65c-1-2.28-2-4.52-3.12-6.73-.61-1.24-1.13-2.54-1.76-3.78-.78-1.59-1.52-3.22-2.22-4.84S246,254.5,245.27,253ZM138.36,276.89c-7.12-2.31-11.3-6.31-14.06-11.8H240.83c1,1,2.12,1.07,3,1.61a12.4,12.4,0,0,1,1.92,1.24,21.33,21.33,0,0,1,4.94,6c1.26,2.33,2.3,4.75,3.59,7.07.72,1.3,1.14,2.76,1.77,4.11.9,1.93,1.74,3.9,2.7,5.79,1.05,2.08,1.86,4.24,2.95,6.28.76,1.41,1.26,2.92,2.15,4.5-1.84,4-3.74,8.07-5.64,12.19-.31-.07-.48-.3-.69-.76-.93-2.11-1.79-4.26-2.92-6.3-.38-.7-.64-1.48-1-2.22-1-2.18-2.19-4.3-3.1-6.51-.84-2-1.76-4-2.7-6a34.39,34.39,0,0,0-4.42-7.55A44.2,44.2,0,0,0,240,281a10.75,10.75,0,0,0-2.95-1.83,20.61,20.61,0,0,0-4.31-1.52c-1.07-.24-2.15-.2-3.22-.4-3.33-.65-6.72-.29-10.08-.29q-32.55,0-65.11,0Zm90.81,64.25c-3.45,0-6.91-.06-10.36,0a17.7,17.7,0,0,1-3.84-.71,6.56,6.56,0,0,1-1.24-.2c-5.74-1.89-9.26-6.05-11.86-11.41H240.2a3.76,3.76,0,0,0,.32-.29c.62-.59,1.33-1.21.87-2.16A2.31,2.31,0,0,0,239.1,325c-13.38,0-26.76,0-40.15.06a13,13,0,0,1-3.59-.73,5.81,5.81,0,0,1-1.13-.22c-5.37-2.12-8.94-6.08-11.68-11a2.5,2.5,0,0,1,1.47-.2q27.43,0,54.87,0a2.7,2.7,0,0,0,1.8-.51c1.21-1,1.16-1.72-.23-3.21H186.54c-1.25-.2-3.45.09-5.62,0s-4.43-.2-6.38-1.15a21.56,21.56,0,0,1-6.6-4.46,42.17,42.17,0,0,1-3.63-4.42c-.45-.65-1.29-1.29-1.15-2.33h69.12l1.13-1.25a2,2,0,0,0-1.33-2.54q-35.61,0-71.32,0a15.66,15.66,0,0,1-7.45-2.24,22,22,0,0,1-5.8-4.85,11.52,11.52,0,0,1-2.22-3.2,20.44,20.44,0,0,0-1.2-2.05h1.08q41.51,0,83,0a15.26,15.26,0,0,1,7.29,1.68,17.19,17.19,0,0,1,6.07,5.71,48.45,48.45,0,0,1,2.77,5.23c1.11,2.27,2.18,4.55,3.19,6.86.78,1.78,1.66,3.52,2.48,5.27.73,1.55,1.33,3.16,2.16,4.65s1.28,3,2.09,4.37a20.91,20.91,0,0,1,1.8,3.87c.29.9-.67,1.6-1,2.42-.61,1.57-1.45,3-2.15,4.55-1,2.12-1.84,4.29-3,6.33-.31.57-.41,1.19-.72,1.78-1.33,2.52-2.45,5.13-3.65,7.74Zm38.16,51c0,1.65.87,4,.87,6.54s-1,4.81-.86,6.73c-3.19,11.23-10.07,18.39-21,22-.71-.1-1.76.56-2.66.31-.56,0-.48.43-.6.47-4.51.18-8.87.48-13.11-.87-10.5-3.35-17.34-10.37-20.46-20.51a31.74,31.74,0,0,1-.15-15.72c3.1-10.31,9.62-17.21,19.42-20.76,8.37-2.5,16.4-2,24,2.27S265,383.08,267.33,392.13Zm15.27-55.4c-.49,1.25-1.22,2.4-1.77,3.64-.95,2.16-2,4.27-3,6.4-.77,1.64-1.56,3.29-2.37,4.92s-1.52,3.06-2.12,4.63-1.4,3-2,4.58c-.51,1.26-1.17,2.52-1.81,3.75-.79,1.55-1.32,3.24-2.18,4.74-.76,1.32-1.21,2.77-1.94,4.09a14.64,14.64,0,0,0-1.48,3.38c-6.8-7.25-14.86-11.58-24.95-11.61-.64-.71,0-1.43.27-2,.91-2,2.08-4,3-6,1-2.28,2.11-4.49,3.1-6.77.78-1.76,1.73-3.43,2.46-5.2,1.08-2.63,2.36-5.16,3.5-7.76.58-1.34,1.43-2.63,2-4,.63-1.58,1.45-3.07,2.1-4.65.53-1.32,1.25-2.65,1.91-4s1.43-2.93,2-4.44,1.4-2.93,2.08-4.41c.6-1.29,1.16-2.59,1.76-3.88,1-2.17,2-4.32,3-6.49.67-1.5,1.36-3,2.09-4.44,1-2,1.87-4,2.84-6,.73-1.48,1.36-3,2-4.57a32,32,0,0,1,1.84-3.71c.42-.71.69-1.48,1.05-2.22,1.06-2.16,2.07-4.35,3.07-6.55s2-4.13,2.89-6.22c.85-1.92,1.83-3.79,2.65-5.73.68-1.63,1.57-3.17,2.21-4.83.51-1.32,1.26-2.57,1.85-3.87.71-1.6,1.36-3.24,2.15-4.8,1.48-2.9,2.81-5.85,4.1-8.83.88-2,2.1-3.91,2.89-6,.59-1.53,1.32-3,2-4.46a53.23,53.23,0,0,1,3.08-6.36c.09-.14,0-.37.36-.6a33.16,33.16,0,0,0,25.22,11.67c-.88,2.08-1.71,3.87-2.61,5.64-1,2-1.87,4.12-2.82,6.17-.68,1.48-1.44,2.92-2.07,4.42s-1.4,2.8-2,4.26-1.36,2.89-2.07,4.33c-.29.57-.55,1.17-.82,1.75-1.07,2.34-2.21,4.64-3.23,7-.88,2-1.89,4-2.76,6s-1.87,3.9-2.8,5.86q-1,2.12-2,4.26c-.66,1.49-1.32,3-2.08,4.4s-1.3,2.84-2,4.25c-1,2-1.82,4.1-2.86,6.1-.72,1.35-1.36,2.8-2,4.24a38.4,38.4,0,0,1-2.1,4.51c-.35.59-.47,1.27-.8,1.9-1.19,2.26-2.31,4.57-3.28,6.93-.84,2.08-1.86,4.07-2.77,6.11s-1.86,3.82-2.78,5.74Q283.56,334.37,282.6,336.73Zm53,32.83a4.35,4.35,0,0,0,2.52.6c14.15,6,21.18,16.49,20.29,32-2,11.55-8.21,19.9-19.16,24.39a26.91,26.91,0,0,1-9.93,1.92,32.3,32.3,0,0,1-10-1.56,33.59,33.59,0,0,1-8.8-4.56,26.36,26.36,0,0,1-6.72-7.13,28.82,28.82,0,0,1-4.1-9.2,29.12,29.12,0,0,1,2.82-21.79,28.65,28.65,0,0,1,15.69-13.62A32.21,32.21,0,0,1,335.63,369.56Zm-11.52-13.63c.56,1.6,1.59,3,2.24,4.6.52,1.26,1.23,2.42,1.74,3.68a1,1,0,0,1-.2,1.12h-2.38a18.88,18.88,0,0,0-4.28.66,33.44,33.44,0,0,0-3.89,1.12,38.31,38.31,0,0,0-6,2.85,35.44,35.44,0,0,0-4.81,3.47,24.38,24.38,0,0,0-2.9,2.85c-.24.29-.56.28-.69.53-.78-1.77-1.55-3.49-2.46-5.16-.38-.68-.64-1.5-1-2.24-.69-1.57-1.41-3.11-2.19-4.64-.65-1.28-1.16-2.65-1.82-3.95-.77-1.52-1.54-3.07-2.18-4.64s-1.32-2.82-1.92-4.26a28.67,28.67,0,0,0-2.18-4.41c-.38-.59-.58-1.36-.92-2a43,43,0,0,0-2.33-4.9c-.27-.41,0-1-.47-1.43,2.16-4.76,4.29-9.47,6.67-14.25,5,10.64,9.85,21.11,14.72,31.53h2.15c1.18-1,1.2-1.7.47-3.08q-1.47-2.82-2.66-5.78c-.35-.87-.83-1.66-1.19-2.52-.87-2.1-1.94-4.13-2.91-6.18s-1.88-4.06-2.83-6.09c-.48-1-.94-2.09-1.47-3.1-1-1.89-1.78-3.86-2.73-5.77a11.13,11.13,0,0,1-1.45-3.7c2.16-4.61,4.36-9.31,6.66-14.26,1.08,3.06,2.56,5.56,3.71,8.22,1,2.27,2.08,4.5,3.09,6.77,1.09,2.45,2.32,4.82,3.45,7.24s2,4.73,3.21,7c.69,1.29,1.35,2.61,1.92,3.92.8,1.87,1.76,3.69,2.56,5.56s2,3.89,2.75,5.91C322.37,352.38,323.43,354.05,324.11,355.93Zm92.8-67.49a19.32,19.32,0,0,1-6.42,3.81,15.33,15.33,0,0,1-5.25.76H334.79a2,2,0,0,0-1.18,2.73l1.17,1h69.05c-.31,1.43-1.3,2.42-2,3.52a20.5,20.5,0,0,1-4.4,4.71,18.59,18.59,0,0,1-6.21,3.39,24.22,24.22,0,0,1-8.37.77c-4.33-.16-8.65-.43-13-.24-14.43.66-28.88,0-43.45.34-.3.39-.92.68-1,1.45a2.19,2.19,0,0,0,2.33,2.19c2,0,4-.28,6.07-.28,16.86,0,33.71,0,50.66,0a8.64,8.64,0,0,1-1.77,3.23,21,21,0,0,1-6.65,6.64,16.77,16.77,0,0,1-8.91,2.58c-12.83-.12-25.65,0-38.49-.07-1.24,0-2.36.07-3.19,1.32-.28,1.06.15,1.9,1.39,2.49h38.11a7.32,7.32,0,0,1-1.25,2.62,20.4,20.4,0,0,1-5.25,6.07,16.26,16.26,0,0,1-3.92,2.26,22.18,22.18,0,0,1-8.74,1.41c-8.1-.09-16.2,0-24.45,0L311,319.09c-.46-1.19.55-2,.89-3a50.89,50.89,0,0,1,2.24-4.94c.57-1.32,1.23-2.65,1.91-3.94s1.35-3,2-4.47c.92-2,1.81-3.95,2.77-5.9.72-1.47,1.4-2.95,2.08-4.44a27.84,27.84,0,0,1,3.8-6.13,14.6,14.6,0,0,1,4.34-3.62,13.32,13.32,0,0,1,4.13-1.48c5.44-1,10.92-.42,16.37-.44,23.28-.09,46.55,0,69.82,0h1.32A22.57,22.57,0,0,1,416.91,288.44Zm12-11.58c-12.33.69-25.83.19-39.32.27-17.13.09-34.27,0-51.4.05a15.68,15.68,0,0,0-4.95.6,24.56,24.56,0,0,0-5.51,2.67,21.43,21.43,0,0,0-4.49,4.25,21.19,21.19,0,0,0-3.21,5.35c-.68,1.56-1.62,3-2.25,4.6a50.65,50.65,0,0,0-2.06,4.72,17.6,17.6,0,0,1-1,2c-1.24,2.73-2.58,5.41-3.85,8.13-.6,1.29-1.13,2.61-1.73,3.9-.09.21-.36.34-.53.49-1.78-4.13-3.95-8-5.64-12.26.45-.85.89-1.89,1.38-2.9,1-2.05,1.92-4.11,2.9-6.15.67-1.39,1.35-2.8,2-4.24.87-2.07,1.93-4.05,2.79-6.11a45,45,0,0,0,2.15-4.79,14,14,0,0,1,1.72-3.32A27.34,27.34,0,0,1,318,271a15.63,15.63,0,0,1,5.17-4.34c.89-.42,2-.51,2.6-1.25,1.58-.18,3.06-.32,4.54-.52a18.4,18.4,0,0,1,2.47,0h78.94c1.25,0,2.46.49,3.8.18.23-.43.73-.72,1.17-.32a2.07,2.07,0,0,0,1.66.39c7.63-.26,15.26-.29,22.9-.25h1.54A23.4,23.4,0,0,1,428.9,276.86Z"/><path class="cls-6" d="M442.81,264.8a23.4,23.4,0,0,1-13.91,12.06c-12.33.69-25.83.19-39.32.27-17.13.09-34.27,0-51.4.05a15.68,15.68,0,0,0-4.95.6,24.56,24.56,0,0,0-5.51,2.67,21.43,21.43,0,0,0-4.49,4.25,21.19,21.19,0,0,0-3.21,5.35c-.68,1.56-1.62,3-2.25,4.6a50.65,50.65,0,0,0-2.06,4.72,17.6,17.6,0,0,1-1,2c-1.24,2.73-2.58,5.41-3.85,8.13-.6,1.29-1.13,2.61-1.73,3.9-.09.21-.36.34-.53.49-1.78-4.13-3.95-8-5.64-12.26.45-.85.89-1.89,1.38-2.9,1-2.05,1.92-4.11,2.9-6.15.67-1.39,1.35-2.8,2-4.24.87-2.07,1.93-4.05,2.79-6.11a45,45,0,0,0,2.15-4.79,14,14,0,0,1,1.72-3.32A27.34,27.34,0,0,1,318,271a15.63,15.63,0,0,1,5.17-4.34c.89-.42,2-.51,2.6-1.25,1.58-.18,3.06-.32,4.54-.52a18.4,18.4,0,0,1,2.47,0h78.94c1.25,0,2.46.49,3.8.18.23-.43.73-.72,1.17-.32a2.07,2.07,0,0,0,1.66.39c7.63-.26,15.26-.29,22.9-.25Z"/><path class="cls-6" d="M422.75,280.65a22.57,22.57,0,0,1-5.84,7.79,19.32,19.32,0,0,1-6.42,3.81,15.33,15.33,0,0,1-5.25.76H334.79a2,2,0,0,0-1.18,2.73l1.17,1h69.05c-.31,1.43-1.3,2.42-2,3.52a20.5,20.5,0,0,1-4.4,4.71,18.59,18.59,0,0,1-6.21,3.39,24.22,24.22,0,0,1-8.37.77c-4.33-.16-8.65-.43-13-.24-14.43.66-28.88,0-43.45.34-.3.39-.92.68-1,1.45a2.19,2.19,0,0,0,2.33,2.19c2,0,4-.28,6.07-.28,16.86,0,33.71,0,50.66,0a8.64,8.64,0,0,1-1.77,3.23,21,21,0,0,1-6.65,6.64,16.77,16.77,0,0,1-8.91,2.58c-12.83-.12-25.65,0-38.49-.07-1.24,0-2.36.07-3.19,1.32-.28,1.06.15,1.9,1.39,2.49h38.11a7.32,7.32,0,0,1-1.25,2.62,20.4,20.4,0,0,1-5.25,6.07,16.26,16.26,0,0,1-3.92,2.26,22.18,22.18,0,0,1-8.74,1.41c-8.1-.09-16.2,0-24.45,0L311,319.09c-.46-1.19.55-2,.89-3a50.89,50.89,0,0,1,2.24-4.94c.57-1.32,1.23-2.65,1.91-3.94s1.35-3,2-4.47c.92-2,1.81-3.95,2.77-5.9.72-1.47,1.4-2.95,2.08-4.44a27.84,27.84,0,0,1,3.8-6.13,14.6,14.6,0,0,1,4.34-3.62,13.32,13.32,0,0,1,4.13-1.48c5.44-1,10.92-.42,16.37-.44,23.28-.09,46.55,0,69.82,0Z"/><path class="cls-6" d="M267.33,392.13c-2.33-9.05-7.14-15.37-14.6-19.55s-15.61-4.77-24-2.27c-9.8,3.55-16.32,10.45-19.42,20.76a31.74,31.74,0,0,0,.15,15.72c3.12,10.14,10,17.16,20.46,20.51,4.24,1.35,8.6,1.05,13.11.87.12,0,0-.47.6-.47.9.25,1.95-.41,2.66-.31,11-3.6,17.84-10.76,21-22-.1-1.92.86-4.25.86-6.73S267.31,393.78,267.33,392.13Zm-26.78,23.93c-1.59.52-2.89-.63-4.32-1.12a24.48,24.48,0,0,1-2.85-1.43c-2-1-4.11-1.82-6.13-2.85a23.47,23.47,0,0,0-3.06-1.31,5.5,5.5,0,0,0-.94-1.47,38.27,38.27,0,0,0-.35-6.9,70.62,70.62,0,0,1-.73-10,6.14,6.14,0,0,1,2.38-1.53c.53-1,11.73-8.52,12.68-8.53a14.55,14.55,0,0,0,2.68,1.33c2.17,1.13,4.46,2,6.65,3.18a36.18,36.18,0,0,0,3.7,1.65c2.24.86,3.11,1.94,3.08,4.3a44.26,44.26,0,0,0,.38,6.94c.39,2.56.47,5.13.79,7.73C250,409.57,245.18,412.6,240.55,416.06Z"/><path class="cls-6" d="M338.15,370.16a4.35,4.35,0,0,1-2.52-.6,32.21,32.21,0,0,0-17.4,1.07,28.65,28.65,0,0,0-15.69,13.62A29.12,29.12,0,0,0,299.72,406a28.82,28.82,0,0,0,4.1,9.2,26.36,26.36,0,0,0,6.72,7.13,33.59,33.59,0,0,0,8.8,4.56,32.3,32.3,0,0,0,10,1.56,26.91,26.91,0,0,0,9.93-1.92c11-4.49,17.12-12.84,19.16-24.39C359.33,386.65,352.3,376.14,338.15,370.16Zm5.9,29.58a54.86,54.86,0,0,0-.65,6.54c0,.39.2.69.2,1-.35,2.17-2.17,2.46-3.67,3.17-2,.95-4,1.91-6,2.85-1.46.69-3,1.25-4.4,2a4.61,4.61,0,0,1-3.14.7l-13.93-9.82a35.61,35.61,0,0,1,.84-8.58,3,3,0,0,0,0-.79,50,50,0,0,1,.51-7.44,2.62,2.62,0,0,1,1.94-2c2.36-.9,4.58-2.13,6.87-3.2,2-.95,4.14-1.69,6.07-2.77,1.45-.81,2.14.05,3.22.68,2.58,1.48,4.83,3.4,7.33,5,1.7,1.08,3.29,2.35,4.94,3.52a1.39,1.39,0,0,1,.56,1.33C344.58,394.53,344.37,397.14,344.05,399.74Z"/><path class="cls-6" d="M327.89,365.33h-2.38a18.88,18.88,0,0,0-4.28.66,33.44,33.44,0,0,0-3.89,1.12,38.31,38.31,0,0,0-6,2.85,35.44,35.44,0,0,0-4.81,3.47,24.38,24.38,0,0,0-2.9,2.85c-.24.29-.56.28-.69.53-.78-1.77-1.55-3.49-2.46-5.16-.38-.68-.64-1.5-1-2.24-.69-1.57-1.41-3.11-2.19-4.64-.65-1.28-1.16-2.65-1.82-3.95-.77-1.52-1.54-3.07-2.18-4.64s-1.32-2.82-1.92-4.26a28.67,28.67,0,0,0-2.18-4.41c-.38-.59-.58-1.36-.92-2a43,43,0,0,0-2.33-4.9c-.27-.41,0-1-.47-1.43,2.16-4.76,4.29-9.47,6.67-14.25,5,10.64,9.85,21.11,14.72,31.53h2.15c1.18-1,1.2-1.7.47-3.08q-1.47-2.82-2.66-5.78c-.35-.87-.83-1.66-1.19-2.52-.87-2.1-1.94-4.13-2.91-6.18s-1.88-4.06-2.83-6.09c-.48-1-.94-2.09-1.47-3.1-1-1.89-1.78-3.86-2.73-5.77a11.13,11.13,0,0,1-1.45-3.7c2.16-4.61,4.36-9.31,6.66-14.26,1.08,3.06,2.56,5.56,3.71,8.22,1,2.27,2.08,4.5,3.09,6.77,1.09,2.45,2.32,4.82,3.45,7.24s2,4.73,3.21,7c.69,1.29,1.35,2.61,1.92,3.92.8,1.87,1.76,3.69,2.56,5.56s2,3.89,2.75,5.91c.71,1.85,1.77,3.52,2.45,5.4.56,1.6,1.59,3,2.24,4.6.52,1.26,1.23,2.42,1.74,3.68A1,1,0,0,1,327.89,365.33Z"/><path class="cls-6" d="M257,247.67c-.53,1.74.71,2.86,1.14,4.2a31.38,31.38,0,0,0,2,4.1c.77,1.54,1.53,3.1,2.28,4.64.63,1.29,1.15,2.67,1.77,4,.74,1.57,1.34,3.21,2.21,4.73.72,1.26,1.19,2.65,1.8,4,.7,1.51,1.53,3,2.13,4.52s1.52,3.06,2.16,4.63a1.43,1.43,0,0,1-.05,1.09c-1,2.09-2.06,4.13-2.94,6.25-.67,1.61-1.62,3.08-2.15,4.76a8.68,8.68,0,0,1-1.42,2.72c-.88-2-1.63-4.11-2.65-6-.75-1.41-1.47-2.86-2.17-4.28s-1.14-2.75-1.81-4.07c-1.05-2.14-1.88-4.37-3.08-6.45a36.84,36.84,0,0,1-1.7-3.65c-1-2.28-2-4.52-3.12-6.73-.61-1.24-1.13-2.54-1.76-3.78-.78-1.59-1.52-3.22-2.22-4.84s-1.39-3-2.08-4.44S244,250.33,243.4,249s-1.29-2.85-1.94-4.25a21.77,21.77,0,0,0-2.27-4.49c-.37-.46-.2-1.23-.77-1.67,3.53-.77,7.25-.61,9.91-1.86a34.14,34.14,0,0,0,15.49-10.33l2,4.52c1.14,2.51,2.26,5,3.46,7.51.72,1.54,1.47,3.09,2.2,4.63,1.17,2.49,2.22,5,3.45,7.49,1.34,2.68,2.47,5.46,3.83,8.13.92,1.77,1.7,3.6,2.6,5.53-2.17,4.71-4.4,9.48-6.67,14.4-5-10.67-9.89-21.22-14.8-31.76h-2.09A3.37,3.37,0,0,0,257,247.67Z"/><path class="cls-6" d="M303.17,226.55c-.39.23-.27.46-.36.6a53.23,53.23,0,0,0-3.08,6.36c-.69,1.45-1.42,2.93-2,4.46-.79,2.06-2,3.94-2.89,6-1.29,3-2.62,5.93-4.1,8.83-.79,1.56-1.44,3.2-2.15,4.8-.59,1.3-1.34,2.55-1.85,3.87-.64,1.66-1.53,3.2-2.21,4.83-.82,1.94-1.8,3.81-2.65,5.73-.91,2.09-1.95,4.14-2.89,6.22s-2,4.39-3.07,6.55c-.36.74-.63,1.51-1.05,2.22A32,32,0,0,0,273,290.7c-.64,1.54-1.27,3.09-2,4.57-1,2-1.86,4-2.84,6-.73,1.46-1.42,2.94-2.09,4.44-1,2.17-2,4.32-3,6.49-.6,1.29-1.16,2.59-1.76,3.88-.68,1.48-1.44,2.92-2.08,4.41s-1.33,3-2,4.44-1.38,2.63-1.91,4c-.65,1.58-1.47,3.07-2.1,4.65-.53,1.36-1.38,2.65-2,4-1.14,2.6-2.42,5.13-3.5,7.76-.73,1.77-1.68,3.44-2.46,5.2-1,2.28-2.12,4.49-3.1,6.77-.89,2.06-2.06,4-3,6-.26.58-.91,1.3-.27,2,10.09,0,18.15,4.36,24.95,11.61a14.64,14.64,0,0,1,1.48-3.38c.73-1.32,1.18-2.77,1.94-4.09.86-1.5,1.39-3.19,2.18-4.74.64-1.23,1.3-2.49,1.81-3.75.64-1.54,1.43-3,2-4.58s1.36-3.11,2.12-4.63,1.6-3.28,2.37-4.92c1-2.13,2-4.24,3-6.4.55-1.24,1.28-2.39,1.77-3.64q1-2.37,2-4.66c.92-1.92,1.92-3.81,2.78-5.74s1.93-4,2.77-6.11c1-2.36,2.09-4.67,3.28-6.93.33-.63.45-1.31.8-1.9a38.4,38.4,0,0,0,2.1-4.51c.62-1.44,1.26-2.89,2-4.24,1-2,1.9-4.07,2.86-6.1.67-1.41,1.25-2.86,2-4.25s1.42-2.91,2.08-4.4,1.31-2.85,2-4.26c.93-2,1.95-3.87,2.8-5.86s1.88-4,2.76-6c1-2.33,2.16-4.63,3.23-7,.27-.58.53-1.18.82-1.75.71-1.44,1.49-2.84,2.07-4.33s1.36-2.82,2-4.26,1.39-2.94,2.07-4.42c1-2.05,1.81-4.15,2.82-6.17.9-1.77,1.73-3.56,2.61-5.64A33.16,33.16,0,0,1,303.17,226.55ZM309,251.2q-1.26,2.7-2.46,5.43c-.78,1.76-1.61,3.49-2.45,5.21-1.35,2.71-2.48,5.51-3.84,8.21-.7,1.42-1.47,2.86-2.15,4.28s-1.16,2.72-1.78,4.05c-.73,1.55-1.32,3.16-2.18,4.66-.71,1.23-1.21,2.57-1.82,3.86-.75,1.58-1.62,3.11-2.23,4.74-.56,1.47-1.25,2.87-1.92,4.27-.95,1.94-1.59,4-2.61,5.9-.89,1.68-1.51,3.48-2.42,5.13-1,1.8-1.94,3.67-2.77,5.54s-1.71,4-2.67,5.92-2,4.11-2.94,6.15c-.72,1.51-1.49,3.07-2.13,4.65-.55,1.36-1.35,2.69-1.95,4a28.88,28.88,0,0,0-1.79,4.1,32.53,32.53,0,0,1-1.68,3.47c-.68,1.52-1.55,3-2.17,4.52-.81,2-1.76,3.87-2.65,5.78s-1.26,3.83-2.72,5.34h-1.95l-.81-.94c-.47-1.3.5-2.31.94-3.41,1-2.36,2.06-4.7,3.24-7,.72-1.39,1.5-2.79,2.09-4.2.89-2.16,1.91-4.27,2.86-6.41a47.41,47.41,0,0,1,2.73-5.54,16.56,16.56,0,0,0,1-2.21c.93-2.23,1.93-4.42,3-6.56.66-1.29,1.16-2.67,1.78-4,.71-1.52,1.47-3,2.18-4.52s1.39-3.19,2.14-4.76c1-2.1,1.8-4.25,2.91-6.29,1-1.84,1.82-3.77,2.71-5.67s1.85-3.93,2.77-5.91c.6-1.32,1.19-2.65,1.8-4,.68-1.49,1.46-2.92,2.1-4.45.56-1.37,1.3-2.67,1.93-4,.73-1.61,1.4-3.25,2.23-4.82.66-1.25,1.2-2.56,1.79-3.85q1.53-3.35,3.13-6.66c.91-1.89,1.65-3.86,2.61-5.72.77-1.49,1.43-3,2.15-4.51a38.84,38.84,0,0,1,2.12-4.23h2l.82.86C310.38,249.08,309.52,250.12,309,251.2Z"/><path class="cls-6" d="M358.38,208.22c-.09,1.35-.59,2.73-.77,4.28a3.84,3.84,0,0,0-.57,1.3,34,34,0,0,1-2.42,5.55,29,29,0,0,1-5.6,7.18,30.39,30.39,0,0,1-4.5,3.43,23.89,23.89,0,0,1-6,2.95,36.36,36.36,0,0,1-5.33,1.3,30.2,30.2,0,0,1-6,.5c-1.47,0-2.83-.57-4.28-.73a22.51,22.51,0,0,1-6.06-1.75,26,26,0,0,1-4.63-2.53,32.65,32.65,0,0,1-5.62-4.76,31.84,31.84,0,0,1-3-4,25.67,25.67,0,0,1-3.06-6,41.13,41.13,0,0,1-1.27-4.55,38.23,38.23,0,0,1-.5-7,23,23,0,0,1,.73-4.84c.06-.39.06-.8.09-1.21A30.68,30.68,0,0,1,308,183.21a29.22,29.22,0,0,1,14.77-7.68c-1.17,2.51-2.32,4.88-3.38,7.28-.95,2.15-1.95,4.28-2.91,6.42-.6,1.32-1.37,2.61-2,3.94a43.46,43.46,0,0,0-2.07,4.68,15.05,15.05,0,0,1-1,2.1,23.88,23.88,0,0,0-1.56,3.64c-.28.81.2,1.65.28,2.46,1.1,1.57,2.77,2.21,4.46,2.84.66.25,1.24.68,1.91,1,1.64.66,3.23,1.5,4.83,2.26,2,.95,4.09,1.82,6.07,2.88,1.29.69,2.68,1.19,4,1.83,2,1,4.09,1.81,6.14,2.72A3.47,3.47,0,0,0,341,219a8.17,8.17,0,0,0,2-3.29c1-2.17,2-4.32,3-6.5.63-1.43,1.3-2.86,2-4.27s1.21-2.88,2-4.25,1.19-2.77,1.93-4.08,1.2-3,2.1-4.43a1.68,1.68,0,0,0,.27-1.55c1.12.38,1.28,1.38,1.64,2.11a24.67,24.67,0,0,1,1.58,4.17c.31,1.13.36,2.34.62,3.51A29,29,0,0,1,358.38,208.22Z"/><path class="cls-6" d="M267.18,211.78c-3.1,11.46-10.48,18.76-21.86,21.95-7.46,2-14.53.75-21.25-2.81a29.7,29.7,0,0,1-13.91-15.84,4.69,4.69,0,0,0-.7-2.44,31,31,0,0,1,.08-16.07,61.67,61.67,0,0,1,2.29-5.88c1,.33,1.06,1.49,1.37,2.22,1.09,2.56,2.37,5,3.49,7.57s2.36,5.21,3.73,7.74a41,41,0,0,1,1.78,4.09,48.72,48.72,0,0,0,2.68,5.6,2.36,2.36,0,0,0,1.7,1.43c.45,0,.57.45.95.57H229c.53-.83,1.57-.75,2.35-1.18,2-1.09,4.22-1.89,6.31-2.87,1.94-.9,3.83-1.91,5.77-2.82a44.23,44.23,0,0,0,4.1-1.8c1.44-.88,3.09-1.26,4.52-2.18a23.89,23.89,0,0,1,2.33-1.1c1.28-.62,2.48-1.38,2.48-3.07,0-.28.38-.39.31-.74-1.72-4.52-3.85-8.86-5.94-13.23s-3.76-8.85-6.55-13.09c0,0,.43.28.62-.09-.78-.45-.51-1.56-1.28-2.05.32-.45.87.44,1.14-.37a6.1,6.1,0,0,0,2.84,1.3,26.58,26.58,0,0,1,5.63,2.59,28.19,28.19,0,0,1,5.3,4,29.4,29.4,0,0,1,3.66,4.33,46.31,46.31,0,0,1,3.83,7.1,10.23,10.23,0,0,1,.32,1.7,4,4,0,0,0,.5,1.12A27.48,27.48,0,0,1,267.18,211.78Z"/><path class="cls-6" d="M263.9,301.66c-1.84,4-3.74,8.07-5.64,12.19-.31-.07-.48-.3-.69-.76-.93-2.11-1.79-4.26-2.92-6.3-.38-.7-.64-1.48-1-2.22-1-2.18-2.19-4.3-3.1-6.51-.84-2-1.76-4-2.7-6a34.39,34.39,0,0,0-4.42-7.55A44.2,44.2,0,0,0,240,281a10.75,10.75,0,0,0-2.95-1.83,20.61,20.61,0,0,0-4.31-1.52c-1.07-.24-2.15-.2-3.22-.4-3.33-.65-6.72-.29-10.08-.29q-32.55,0-65.11,0h-16c-7.12-2.31-11.3-6.31-14.06-11.8H240.83c1,1,2.12,1.07,3,1.61a12.4,12.4,0,0,1,1.92,1.24,21.33,21.33,0,0,1,4.94,6c1.26,2.33,2.3,4.75,3.59,7.07.72,1.3,1.14,2.76,1.77,4.11.9,1.93,1.74,3.9,2.7,5.79,1.05,2.08,1.86,4.24,2.95,6.28C262.51,298.57,263,300.08,263.9,301.66Z"/><path class="cls-6" d="M255,320.74c-.61,1.57-1.45,3-2.15,4.55-1,2.12-1.84,4.29-3,6.33-.31.57-.41,1.19-.72,1.78-1.33,2.52-2.45,5.13-3.65,7.74H229.17c-3.45,0-6.91-.06-10.36,0a17.7,17.7,0,0,1-3.84-.71,6.56,6.56,0,0,1-1.24-.2c-5.74-1.89-9.26-6.05-11.86-11.41H240.2a3.76,3.76,0,0,0,.32-.29c.62-.59,1.33-1.21.87-2.16A2.31,2.31,0,0,0,239.1,325c-13.38,0-26.76,0-40.15.06a13,13,0,0,1-3.59-.73,5.81,5.81,0,0,1-1.13-.22c-5.37-2.12-8.94-6.08-11.68-11a2.5,2.5,0,0,1,1.47-.2q27.43,0,54.87,0a2.7,2.7,0,0,0,1.8-.51c1.21-1,1.16-1.72-.23-3.21H186.54c-1.25-.2-3.45.09-5.62,0s-4.43-.2-6.38-1.15a21.56,21.56,0,0,1-6.6-4.46,42.17,42.17,0,0,1-3.63-4.42c-.45-.65-1.29-1.29-1.15-2.33h69.12l1.13-1.25a2,2,0,0,0-1.33-2.54q-35.61,0-71.32,0a15.66,15.66,0,0,1-7.45-2.24,22,22,0,0,1-5.8-4.85,11.52,11.52,0,0,1-2.22-3.2,20.44,20.44,0,0,0-1.2-2.05h1.08q41.51,0,83,0a15.26,15.26,0,0,1,7.29,1.68,17.19,17.19,0,0,1,6.07,5.71,48.45,48.45,0,0,1,2.77,5.23c1.11,2.27,2.18,4.55,3.19,6.86.78,1.78,1.66,3.52,2.48,5.27.73,1.55,1.33,3.16,2.16,4.65s1.28,3,2.09,4.37a20.91,20.91,0,0,1,1.8,3.87C256.29,319.22,255.33,319.92,255,320.74Z"/><path class="cls-6" d="M309,251.2q-1.26,2.7-2.46,5.43c-.78,1.76-1.61,3.49-2.45,5.21-1.35,2.71-2.48,5.51-3.84,8.21-.7,1.42-1.47,2.86-2.15,4.28s-1.16,2.72-1.78,4.05c-.73,1.55-1.32,3.16-2.18,4.66-.71,1.23-1.21,2.57-1.82,3.86-.75,1.58-1.62,3.11-2.23,4.74-.56,1.47-1.25,2.87-1.92,4.27-.95,1.94-1.59,4-2.61,5.9-.89,1.68-1.51,3.48-2.42,5.13-1,1.8-1.94,3.67-2.77,5.54s-1.71,4-2.67,5.92-2,4.11-2.94,6.15c-.72,1.51-1.49,3.07-2.13,4.65-.55,1.36-1.35,2.69-1.95,4a28.88,28.88,0,0,0-1.79,4.1,32.53,32.53,0,0,1-1.68,3.47c-.68,1.52-1.55,3-2.17,4.52-.81,2-1.76,3.87-2.65,5.78s-1.26,3.83-2.72,5.34h-1.95l-.81-.94c-.47-1.3.5-2.31.94-3.41,1-2.36,2.06-4.7,3.24-7,.72-1.39,1.5-2.79,2.09-4.2.89-2.16,1.91-4.27,2.86-6.41a47.41,47.41,0,0,1,2.73-5.54,16.56,16.56,0,0,0,1-2.21c.93-2.23,1.93-4.42,3-6.56.66-1.29,1.16-2.67,1.78-4,.71-1.52,1.47-3,2.18-4.52s1.39-3.19,2.14-4.76c1-2.1,1.8-4.25,2.91-6.29,1-1.84,1.82-3.77,2.71-5.67s1.85-3.93,2.77-5.91c.6-1.32,1.19-2.65,1.8-4,.68-1.49,1.46-2.92,2.1-4.45.56-1.37,1.3-2.67,1.93-4,.73-1.61,1.4-3.25,2.23-4.82.66-1.25,1.2-2.56,1.79-3.85q1.53-3.35,3.13-6.66c.91-1.89,1.65-3.86,2.61-5.72.77-1.49,1.43-3,2.15-4.51a38.84,38.84,0,0,1,2.12-4.23h2l.82.86C310.38,249.08,309.52,250.12,309,251.2Z"/><path class="cls-6" d="M344.76,391.93a1.39,1.39,0,0,0-.56-1.33c-1.65-1.17-3.24-2.44-4.94-3.52-2.5-1.58-4.75-3.5-7.33-5-1.08-.63-1.77-1.49-3.22-.68-1.93,1.08-4.06,1.82-6.07,2.77-2.29,1.07-4.51,2.3-6.87,3.2a2.62,2.62,0,0,0-1.94,2,50,50,0,0,0-.51,7.44,3,3,0,0,1,0,.79,35.61,35.61,0,0,0-.84,8.58l13.93,9.82a4.61,4.61,0,0,0,3.14-.7c1.42-.77,2.94-1.33,4.4-2,2-.94,4-1.9,6-2.85,1.5-.71,3.32-1,3.67-3.17,0-.35-.2-.65-.2-1a54.86,54.86,0,0,1,.65-6.54C344.37,397.14,344.58,394.53,344.76,391.93Zm-4.91,14.58L328,412.09h-.84l-11-7.69c.79-2.5-.13-5.24.89-7.8a.91.91,0,0,0,0-.33c-.2-1.74.46-3.43.26-5.12.42-1,1.52-1.21,2.24-1.45,1.53-.5,2.82-1.39,4.27-2s2.86-1.29,4.26-2a2.62,2.62,0,0,1,3.12.22c2.3,1.77,4.77,3.29,7.09,5a15.57,15.57,0,0,1,2.7,2C340.89,397.4,340.16,401.87,339.85,406.51Z"/><path class="cls-6" d="M341,392.9c-.11,4.5-.84,9-1.15,13.61L328,412.09h-.84l-11-7.69c.79-2.5-.13-5.24.89-7.8a.91.91,0,0,0,0-.33c-.2-1.74.46-3.43.26-5.12.42-1,1.52-1.21,2.24-1.45,1.53-.5,2.82-1.39,4.27-2s2.86-1.29,4.26-2a2.62,2.62,0,0,1,3.12.22c2.3,1.77,4.77,3.29,7.09,5A15.57,15.57,0,0,1,341,392.9Z"/><path class="cls-6" d="M253.72,398.31a44.26,44.26,0,0,1-.38-6.94c0-2.36-.84-3.44-3.08-4.3a36.18,36.18,0,0,1-3.7-1.65c-2.19-1.15-4.48-2.05-6.65-3.18a14.55,14.55,0,0,1-2.68-1.33c-.95,0-12.15,7.57-12.68,8.53a6.14,6.14,0,0,0-2.38,1.53,70.62,70.62,0,0,0,.73,10,38.27,38.27,0,0,1,.35,6.9,5.5,5.5,0,0,1,.94,1.47,23.47,23.47,0,0,1,3.06,1.31c2,1,4.11,1.85,6.13,2.85a24.48,24.48,0,0,0,2.85,1.43c1.43.49,2.73,1.64,4.32,1.12,4.63-3.46,9.45-6.49,14-10C254.19,403.44,254.11,400.87,253.72,398.31Zm-6,8.15c-2.13,1.66-4.5,3-6.57,4.76a3.46,3.46,0,0,1-4.35,0,21.14,21.14,0,0,0-4-2c-1.08-.47-2.1-1.05-3.15-1.56a8.54,8.54,0,0,1-2.55-1.22c-.32-4.47-1.11-8.93-1.13-13.64l7.95-5.58c.67.07,1.29-.79,1.89-1.31a2.36,2.36,0,0,1,2.83-.21c1.62.71,3.22,1.5,4.83,2.26a39.82,39.82,0,0,0,5.44,2.48c.28.08.47.46.75.75a20.35,20.35,0,0,0,.36,6.33c.41,2.16.18,4.35.65,6.7C250.14,405.31,248.74,405.66,247.71,406.46Z"/><path class="cls-6" d="M250.63,404.17c-.49,1.14-1.89,1.49-2.92,2.29-2.13,1.66-4.5,3-6.57,4.76a3.46,3.46,0,0,1-4.35,0,21.14,21.14,0,0,0-4-2c-1.08-.47-2.1-1.05-3.15-1.56a8.54,8.54,0,0,1-2.55-1.22c-.32-4.47-1.11-8.93-1.13-13.64l7.95-5.58c.67.07,1.29-.79,1.89-1.31a2.36,2.36,0,0,1,2.83-.21c1.62.71,3.22,1.5,4.83,2.26a39.82,39.82,0,0,0,5.44,2.48c.28.08.47.46.75.75a20.35,20.35,0,0,0,.36,6.33C250.39,399.63,250.16,401.82,250.63,404.17Z"/><path class="cls-7" d="M236,432.37c-.06-.18-.13-.39-.34-.39a24.88,24.88,0,0,1-3.77-.45,38.53,38.53,0,0,1-5.06-1.4,15.85,15.85,0,0,1-3.26-1.37,32.76,32.76,0,0,1-5.67-3.54l-3-2.49a26.5,26.5,0,0,1-3.92-4.61,22.64,22.64,0,0,1-3-5.09c-.39-1-1.27-1.89-1.09-2.79a28.44,28.44,0,0,1-2-15.7c2.91-16.44,12.9-26.14,29.43-29.38l9.48-20.23c-1.24-.07-2.58-.1-3.94-.08-6.83.1-13.68.13-20.51,0a21.74,21.74,0,0,1-6.88-1.2,18.61,18.61,0,0,1-4.11-1.79,23.33,23.33,0,0,1-6.08-5.35,45.46,45.46,0,0,1-4-6.4,8.63,8.63,0,0,1-.46-1.25,24.39,24.39,0,0,1-12-5.62,33.13,33.13,0,0,1-7.65-10.43c-9.79-1.86-15.58-8-19.55-16.29h-1.27c-8.52-2.29-13.74-8.22-17.52-15.88-2,.28-3.8-.53-5.55-1.17a18.18,18.18,0,0,1-5.75-3.44,28.38,28.38,0,0,1-3.25-2.93,32.44,32.44,0,0,1-3.77-5.28,25.93,25.93,0,0,0-2.25-4.1v-1.56c.61.06.43-.74.91-.86h36q41.27,0,82.52,0a5.44,5.44,0,0,1,3.32.77c1.59,0,2.81,1.1,4.21,1.72l-12-25.78a44.8,44.8,0,0,1-6.87-1.61,41.09,41.09,0,0,1-4.94-2.08,28.61,28.61,0,0,1-5.53-3.74,34,34,0,0,1-5.49-5.76,30,30,0,0,1-3.81-6.7A35.33,35.33,0,0,1,206,213.6a40.08,40.08,0,0,1-1.28-8.22,34.39,34.39,0,0,1,.62-7.11,26.44,26.44,0,0,1,1.75-5.88,52.52,52.52,0,0,1,3.16-6.1,2.5,2.5,0,0,1,2.79-1.53,4.61,4.61,0,0,1,.95,1c1.07,2.21,2.09,4.44,3.1,6.68.42.91.81,1.86,1.29,2.71a46.29,46.29,0,0,1,2.1,4.46c.88,2,1.79,4,2.73,6s1.94,4.19,2.94,6.28A23,23,0,0,1,228,216.2l25.34-11.79a20.62,20.62,0,0,0-1-2.39c-.93-2.32-2.16-4.49-3.08-6.81-.85-2.12-2-4.09-2.9-6.2-.32-.74-.61-1.52-1-2.22a28.6,28.6,0,0,1-1.91-4,33.68,33.68,0,0,0-2-4.38c-.83-1.51-1.3-3.16-2.22-4.62-.35-.55,0-1.28.47-1.81.22-.24.56-.4.55-.8h2.23c0,.21,0,.3.23.41.83.42,1.76.07,2.59.35,2.19.74,4.41,1.3,6.55,2.26a38,38,0,0,1,8.17,5,27.34,27.34,0,0,1,4.8,5,33.42,33.42,0,0,1,4.69,8.34c.5,1.33.8,2.76,1.22,4.11.85,2.79.88,5.64,1.19,8.46.19,1.78-.65,3.51-.55,5.34a3,3,0,0,1-.33,1.67c-.7,1.12-.62,2.46-1.13,3.67-.43,1-.8,2.16-1.27,3.16a11.9,11.9,0,0,1-2,3.54,1.37,1.37,0,0,0,0,1.68,15.51,15.51,0,0,1,2.18,4.29c.57,1.45,1.28,2.87,1.91,4.27.83,1.83,1.81,3.65,2.68,5.47,1.21,2.52,2.35,5.08,3.5,7.64.86,1.92,1.81,3.8,2.63,5.74,1.16,2.74,2.54,5.39,3.91,8.24,5.65-12.12,11.24-24.11,17-36.45-1.27-3.19-3.59-6.36-4-9.29a33.4,33.4,0,0,1-.49-17c0-.33.44-.41.45-.8a10.23,10.23,0,0,1,.75-2.66,32.08,32.08,0,0,1,3.18-6.63,33.76,33.76,0,0,1,3-4.12,28.9,28.9,0,0,1,4.47-4.3,26,26,0,0,1,3.7-2.52,34.54,34.54,0,0,1,3.9-1.94,25.78,25.78,0,0,1,8-2.23c.53,0,1.08-.05,1.33-.66h1.79a.78.78,0,0,0,.51.79c1,.54.94,1.24.5,2.1s-.9,1.87-1.33,2.81c-.95,2.08-1.77,4.23-2.86,6.23s-1.93,4.19-2.93,6.26c-.61,1.28-1.18,2.6-1.84,3.85s-1.35,2.83-2,4.24c-1,2.29-2.21,4.53-3.15,6.94l25.2,11.78a1.2,1.2,0,0,0,.51-.72,38.22,38.22,0,0,1,1.94-4.27c1.05-1.88,1.88-3.88,2.79-5.82.7-1.49,1.44-3,2-4.56.87-2.22,2.06-4.31,3.07-6.47,1.13-2.39,2.16-4.82,3.34-7.18.43-.87.76-1.91,1.78-2.37a1.77,1.77,0,0,1,1.94.82c.39.52.69,1.08,1.05,1.61a23.57,23.57,0,0,1,2.73,5.45c.45,1.32.8,2.69,1.19,4a36.28,36.28,0,0,1,1.18,7.92c.18,2.29-.5,4.53-.73,6.8-.08.83-.66,1.46-.59,2.3a2.55,2.55,0,0,1-.53,1.88,32.71,32.71,0,0,1-10.58,15.16,33.69,33.69,0,0,1-17.1,7.32c-3.87,8.3-7.81,16.72-11.74,25.15a1.2,1.2,0,0,0,.88,0,19.64,19.64,0,0,1,8.61-1.86q57.32.06,114.63,0c1.17,0,2.13.12,2.62,1.33v.9c-.77.56-.91,1.52-1.25,2.28a28.7,28.7,0,0,1-3.4,5.62,22.15,22.15,0,0,1-5.8,5.54,19.31,19.31,0,0,1-6.41,3,21.22,21.22,0,0,1-4,.75,32.9,32.9,0,0,1-5,8,21,21,0,0,1-5.29,4.64c-2,1.16-3.93,2.53-6.38,2.71-1.72.13-2.59,1.41-3.29,2.81a24.06,24.06,0,0,1-2.33,3.8,34.86,34.86,0,0,1-3,3.59,29.11,29.11,0,0,1-4.58,3.51,23.56,23.56,0,0,1-4.86,2.2,25,25,0,0,1-3.47.81c-4.05,8.4-10,14.51-19.46,16a44.24,44.24,0,0,1-2.36,4.52,50.72,50.72,0,0,1-3.4,4.58,18.35,18.35,0,0,1-3.8,3.27,17.44,17.44,0,0,1-8.88,3.31c-7.26.54-14.52.11-21.78.26a36.88,36.88,0,0,0-5.9.17c3.18,6.81,6.32,13.56,9.55,20.49A33.63,33.63,0,0,1,356,379.2a32.45,32.45,0,0,1,6.18,21.8,32.07,32.07,0,0,1-7.44,18.71C348,427.65,341.31,430,338,430.65a5,5,0,0,1-2.75.8,17.84,17.84,0,0,1-4.55.56,1.52,1.52,0,0,0-.15.36h-3.79c0-.19,0-.43-.28-.39-1.6.24-3.11-.33-4.65-.56-.86-.13-1.84,0-2.55-.8-1.32.15-2.42-.61-3.54-1.11a27,27,0,0,1-3.9-2,34.29,34.29,0,0,1-5.26-3.77,23.37,23.37,0,0,1-2.45-2.31,30.43,30.43,0,0,1-2.17-2.72c-.54-.88-1.18-1.74-1.8-2.57a27.67,27.67,0,0,1-2.92-5.8c-.43-1-.61-2.23-1-3.27a26.29,26.29,0,0,1-1.13-6.8,34.77,34.77,0,0,1,4.49-18.24c.74-1.21,1-2.24.16-3.57a45.61,45.61,0,0,1-2.26-4.6c-1.23-2.43-2.3-4.94-3.38-7.45-.84-2-1.73-3.92-2.7-5.81-1.58-3.07-2.85-6.28-4.41-9.36-1.27-2.53-2.34-5.16-3.62-7.63-5.58,12-11.17,24-16.87,36.21v.87c1.69,2.22,2.55,4.9,3.41,7,3.12,9.52,2.35,18.34-2.13,26.69a32.62,32.62,0,0,1-20.09,16.34c-.29.11-.51.44-.75.44-1.79,0-3.45.86-5.25.84-.28,0-.87-.41-.85.38Zm67.22-205.82c-.38.22-.27.46-.35.59a57.34,57.34,0,0,0-3.09,6.36c-.69,1.46-1.42,2.94-2,4.47-.79,2.06-2,3.94-2.89,6-1.29,3-2.62,5.94-4.1,8.84-.79,1.56-1.43,3.2-2.15,4.79-.59,1.31-1.34,2.56-1.84,3.87-.65,1.67-1.54,3.21-2.23,4.85-.81,1.93-1.79,3.8-2.63,5.72-.93,2.1-2,4.13-2.9,6.22s-2,4.39-3.06,6.55c-.37.74-.64,1.51-1.06,2.22a31.34,31.34,0,0,0-1.84,3.72c-.64,1.53-1.27,3.08-2,4.56-1,2-1.86,4-2.84,6-.73,1.45-1.42,2.95-2.09,4.44-1,2.17-2,4.32-3,6.49-.59,1.29-1.15,2.59-1.74,3.88-.69,1.47-1.46,2.91-2.08,4.41s-1.34,3-2.06,4.44-1.38,2.63-1.91,4c-.64,1.58-1.47,3.07-2.09,4.66-.54,1.35-1.38,2.64-2,4-1.14,2.6-2.42,5.13-3.5,7.76-.72,1.77-1.68,3.44-2.45,5.2-1,2.28-2.13,4.49-3.11,6.78-.88,2-2.06,4-3,6-.25.57-.91,1.29-.27,2,10.09,0,18.15,4.36,24.95,11.61a14.64,14.64,0,0,1,1.48-3.38c.73-1.33,1.19-2.77,1.94-4.09.87-1.5,1.39-3.19,2.19-4.74.63-1.23,1.29-2.49,1.8-3.75.63-1.54,1.43-3,2-4.57s1.37-3.12,2.12-4.64,1.59-3.28,2.37-4.92c1-2.13,2-4.24,3-6.39.55-1.24,1.28-2.4,1.78-3.65q.94-2.37,2-4.66c.91-1.92,1.91-3.81,2.77-5.74s1.93-4,2.78-6.11c1-2.36,2.08-4.67,3.27-6.93.33-.63.46-1.31.81-1.9a39.28,39.28,0,0,0,2.1-4.51c.62-1.44,1.26-2.89,2-4.25,1-2,1.9-4.07,2.87-6.09.67-1.41,1.24-2.87,2-4.25s1.42-2.92,2.09-4.4,1.3-2.85,2-4.26c.93-1.95,1.95-3.87,2.8-5.85s1.88-4,2.76-6c1-2.35,2.17-4.65,3.24-7,.26-.58.52-1.18.81-1.76.71-1.43,1.49-2.83,2.07-4.32s1.37-2.82,2-4.26,1.4-2.94,2.08-4.42c.94-2.05,1.8-4.15,2.82-6.17.89-1.77,1.73-3.55,2.61-5.64A33.19,33.19,0,0,1,303.17,226.55Zm119.59,54.1h-1.32c-23.28,0-46.55,0-69.82,0-5.46,0-10.93-.56-16.38.44a13.32,13.32,0,0,0-4.13,1.48,14.88,14.88,0,0,0-4.34,3.62,28.22,28.22,0,0,0-3.8,6.13c-.68,1.49-1.36,3-2.08,4.43-.95,2-1.84,3.94-2.76,5.91-.69,1.49-1.28,3-2.05,4.48-.68,1.28-1.34,2.62-1.91,3.92-.71,1.67-1.7,3.21-2.25,4.95-.32,1-1.34,1.85-.88,3q5.15,11,10.29,22.06c8.24,0,16.34-.06,24.44,0a22,22,0,0,0,8.74-1.4,15.48,15.48,0,0,0,3.92-2.27,20.36,20.36,0,0,0,5.25-6.06,7.49,7.49,0,0,0,1.25-2.62h-38.1c-1.24-.59-1.68-1.43-1.4-2.49.83-1.25,2-1.32,3.2-1.31,12.82,0,25.65-.06,38.48.06a16.78,16.78,0,0,0,8.91-2.59,20.84,20.84,0,0,0,6.65-6.63,8.64,8.64,0,0,0,1.77-3.23q-25.41,0-50.66,0c-2,0-4,.28-6.06.28a2.2,2.2,0,0,1-2.34-2.18c.1-.79.73-1.07,1-1.46,14.58-.35,29,.31,43.45-.34,4.33-.2,8.65.08,13,.24a24.28,24.28,0,0,0,8.38-.76,19,19,0,0,0,6.21-3.41,20.46,20.46,0,0,0,4.4-4.7,10.63,10.63,0,0,0,2-3.52H334.78l-1.17-1a2,2,0,0,1,1.18-2.73h70.45a15.19,15.19,0,0,0,5.26-.77,19.19,19.19,0,0,0,6.41-3.8A22.6,22.6,0,0,0,422.76,280.65Zm-278.67,0a16.46,16.46,0,0,1,1.2,2.05,11.67,11.67,0,0,0,2.22,3.2,22.11,22.11,0,0,0,5.8,4.85,15.73,15.73,0,0,0,7.45,2.24q35.69,0,71.32,0a2,2,0,0,1,1.34,2.54l-1.14,1.24H163.16c-.13,1,.7,1.69,1.16,2.34a42,42,0,0,0,3.62,4.41,21.34,21.34,0,0,0,6.61,4.47c1.95.95,4.21,1,6.38,1.15s4.36-.17,5.61,0h53.92c1.39,1.5,1.45,2.18.23,3.21a2.62,2.62,0,0,1-1.8.51H184a2.59,2.59,0,0,0-1.47.2c2.74,4.93,6.32,8.89,11.68,11a6,6,0,0,0,1.13.22,13,13,0,0,0,3.59.73c13.39-.06,26.77,0,40.15-.06a2.33,2.33,0,0,1,2.3,1.39c.45.95-.26,1.57-.87,2.16l-.33.29H201.87c2.6,5.36,6.13,9.51,11.86,11.42a6.71,6.71,0,0,0,1.24.19,17.7,17.7,0,0,0,3.84.71c3.45-.08,6.91,0,10.37,0H245.5c1.2-2.61,2.31-5.23,3.64-7.74.31-.58.41-1.21.73-1.78,1.14-2,2-4.22,3-6.34.7-1.52,1.54-3,2.16-4.53.32-.83,1.28-1.53,1-2.43a20.28,20.28,0,0,0-1.8-3.87c-.82-1.4-1.3-2.95-2.09-4.37s-1.43-3.1-2.16-4.65c-.82-1.75-1.7-3.49-2.48-5.27-1-2.31-2.08-4.59-3.19-6.86a44.92,44.92,0,0,0-2.77-5.22,17.21,17.21,0,0,0-6.07-5.72,15.22,15.22,0,0,0-7.28-1.68q-41.49-.07-83,0ZM299.72,406a28.92,28.92,0,0,0,4.1,9.2,26.2,26.2,0,0,0,6.73,7.12,33.11,33.11,0,0,0,8.79,4.57,32.3,32.3,0,0,0,10,1.56,26.71,26.71,0,0,0,9.93-1.92c11-4.5,17.12-12.84,19.15-24.39.9-15.53-6.12-26-20.28-32a4.46,4.46,0,0,1-2.52-.59,32.11,32.11,0,0,0-17.4,1.06,28.65,28.65,0,0,0-15.69,13.62A29.17,29.17,0,0,0,299.72,406Zm-90.24.75c3.12,10.14,10,17.16,20.47,20.51,4.23,1.35,8.6,1.05,13.1.87.13,0,0-.47.6-.47.9.25,1.95-.41,2.67-.31,10.95-3.6,17.83-10.76,21-22-.09-1.93.86-4.25.86-6.73s-.89-4.89-.87-6.55c-2.33-9.05-7.14-15.36-14.6-19.54s-15.6-4.76-24-2.27c-9.8,3.55-16.31,10.45-19.42,20.76A31.74,31.74,0,0,0,209.48,406.79Zm99.15-92.89c.17-.15.44-.28.54-.49.59-1.29,1.13-2.61,1.73-3.9,1.27-2.71,2.6-5.4,3.84-8.13a17.6,17.6,0,0,0,1-2c.51-1.66,1.41-3.13,2.05-4.72s1.58-3,2.26-4.6a21,21,0,0,1,3.21-5.34,21.45,21.45,0,0,1,4.49-4.26,24.3,24.3,0,0,1,5.51-2.66,15.72,15.72,0,0,1,4.95-.62c17.13,0,34.27.05,51.41,0,13.48-.07,27,.42,39.31-.27a23.34,23.34,0,0,0,13.91-12.06h-1.54c-7.63,0-15.27,0-22.9.25a2.07,2.07,0,0,1-1.66-.39c-.44-.4-.93-.1-1.17.32-1.33.31-2.55-.18-3.79-.18h-79a18.09,18.09,0,0,0-2.45.05c-1.48.2-3,.34-4.54.52-.64.74-1.72.82-2.61,1.24A15.54,15.54,0,0,0,318,271a26,26,0,0,0-2.11,3.17,13.7,13.7,0,0,0-1.73,3.32,45,45,0,0,1-2.15,4.79c-.86,2.06-1.92,4.05-2.79,6.11-.62,1.43-1.3,2.84-2,4.24-1,2-1.91,4.11-2.9,6.15-.49,1-.92,2.05-1.37,2.9C304.69,305.86,306.85,309.77,308.63,313.9Zm-170.27-37h16q32.56,0,65.13,0c3.36,0,6.75-.35,10.07.28,1.08.21,2.15.17,3.23.41a22.24,22.24,0,0,1,4.31,1.51A10.88,10.88,0,0,1,240,281a44.2,44.2,0,0,1,3.43,3.54,33.77,33.77,0,0,1,4.42,7.55c.94,2,1.86,4,2.7,6,.92,2.21,2.08,4.33,3.1,6.51.35.74.61,1.52,1,2.23,1.12,2,2,4.17,2.91,6.29.21.46.38.69.69.76l5.64-12.19c-.88-1.58-1.39-3.09-2.14-4.5-1.09-2-1.91-4.21-2.95-6.28-1-1.89-1.81-3.86-2.71-5.79-.63-1.35-1.05-2.81-1.77-4.11-1.28-2.31-2.33-4.74-3.59-7.07a21.3,21.3,0,0,0-4.93-6,12.14,12.14,0,0,0-1.92-1.24c-.94-.54-2.09-.6-3.06-1.61H124.31C127.06,270.58,131.25,274.58,138.36,276.89Zm161.23-79.54a9.87,9.87,0,0,1-.09,1.22,22.91,22.91,0,0,0-.73,4.83,40.15,40.15,0,0,0,.5,7,41.13,41.13,0,0,0,1.27,4.55,25.67,25.67,0,0,0,3.06,6,31.79,31.79,0,0,0,3,4,33,33,0,0,0,5.61,4.75,26.67,26.67,0,0,0,4.63,2.53A22.12,22.12,0,0,0,323,234c1.44.16,2.81.7,4.27.73a31,31,0,0,0,6-.5,36.81,36.81,0,0,0,5.34-1.3,24.35,24.35,0,0,0,6-2.95,30,30,0,0,0,4.5-3.43,28.81,28.81,0,0,0,5.61-7.18,35.87,35.87,0,0,0,2.42-5.55,3.66,3.66,0,0,1,.57-1.3c.18-1.55.68-2.93.76-4.28a29,29,0,0,0-.2-7.84c-.25-1.17-.31-2.38-.62-3.52A25.76,25.76,0,0,0,356,192.7c-.36-.73-.52-1.73-1.65-2.11a1.65,1.65,0,0,1-.26,1.54c-.91,1.39-1.3,3-2.1,4.44s-1.19,2.79-1.93,4.08-1.34,2.85-2,4.26-1.34,2.83-2,4.26c-1,2.18-2,4.33-3,6.49a8.13,8.13,0,0,1-2,3.29,3.4,3.4,0,0,1-3.51.58c-2-.9-4.14-1.72-6.14-2.71-1.32-.65-2.7-1.15-4-1.83-2-1.05-4-1.93-6.07-2.89-1.6-.75-3.18-1.6-4.83-2.26-.67-.27-1.25-.71-1.91-1-1.69-.63-3.36-1.26-4.46-2.83-.08-.81-.55-1.64-.28-2.46a23.88,23.88,0,0,1,1.56-3.64,13,13,0,0,0,1-2.09,43.91,43.91,0,0,1,2.08-4.69c.58-1.33,1.36-2.62,1.95-3.94,1-2.14,2-4.27,2.91-6.42,1.06-2.4,2.21-4.76,3.39-7.28A29.25,29.25,0,0,0,308,183.21,30.68,30.68,0,0,0,299.59,197.35Zm-89.43,17.73a29.7,29.7,0,0,0,13.91,15.84c6.72,3.57,13.79,4.78,21.25,2.81,11.38-3.2,18.76-10.5,21.86-21.95a27.59,27.59,0,0,0,.07-14.29,3.62,3.62,0,0,1-.51-1.12,9.3,9.3,0,0,0-.32-1.7,46.31,46.31,0,0,0-3.83-7.1,28.23,28.23,0,0,0-3.66-4.33,27.16,27.16,0,0,0-5.3-4,26.58,26.58,0,0,0-5.63-2.59,6.1,6.1,0,0,1-2.84-1.3c-.27.81-.82-.08-1.13.37.76.49.49,1.6,1.28,2.05-.19.37-.62.07-.63.09,2.8,4.24,4.48,8.76,6.55,13.09s4.22,8.71,6,13.22c.06.35-.32.47-.32.75,0,1.69-1.2,2.45-2.48,3.07a23.7,23.7,0,0,0-2.32,1.1c-1.44.91-3.09,1.29-4.53,2.17a41.84,41.84,0,0,1-4.1,1.82c-1.93.91-3.82,1.91-5.76,2.81-2.1,1-4.28,1.79-6.32,2.87-.79.43-1.82.35-2.34,1.17h-1.48c-.38-.11-.5-.53-.94-.57a2.35,2.35,0,0,1-1.71-1.42,48.72,48.72,0,0,1-2.68-5.6,41,41,0,0,0-1.78-4.09c-1.37-2.53-2.58-5.13-3.73-7.74s-2.4-5-3.49-7.57c-.3-.72-.41-1.9-1.36-2.22a63,63,0,0,0-2.3,5.87,31,31,0,0,0-.08,16.07A4.66,4.66,0,0,1,210.16,215.08Zm75.38,124.07c.43.4.19,1,.47,1.42a42.3,42.3,0,0,1,2.34,4.9,21.26,21.26,0,0,0,.91,2,28.28,28.28,0,0,1,2.19,4.41c.59,1.44,1.34,2.81,1.92,4.26s1.4,3.12,2.17,4.64c.66,1.29,1.17,2.67,1.82,3.95.77,1.53,1.51,3.07,2.19,4.64.33.74.6,1.56,1,2.24.91,1.67,1.69,3.38,2.47,5.15.12-.24.44-.24.68-.52a25.26,25.26,0,0,1,2.9-2.86,34.53,34.53,0,0,1,4.81-3.46,38.31,38.31,0,0,1,6-2.85,31.58,31.58,0,0,1,3.89-1.12,19.54,19.54,0,0,1,4.28-.66h2.38a1,1,0,0,0,.2-1.13c-.51-1.25-1.21-2.41-1.74-3.67-.65-1.57-1.67-3-2.24-4.61-.68-1.87-1.73-3.54-2.45-5.39-.78-2-1.89-3.91-2.75-5.9s-1.75-3.69-2.56-5.57c-.57-1.31-1.22-2.64-1.91-3.92-1.21-2.25-2.14-4.65-3.22-7s-2.36-4.8-3.45-7.24c-1-2.27-2.09-4.5-3.08-6.77-1.16-2.66-2.64-5.16-3.71-8.22l-6.66,14.26a11.12,11.12,0,0,0,1.44,3.7c.94,1.91,1.76,3.88,2.74,5.77.53,1,1,2.06,1.46,3.1,1,2,1.88,4.06,2.83,6.09s2,4.08,2.91,6.18c.36.86.85,1.65,1.19,2.52a61.66,61.66,0,0,0,2.67,5.78c.72,1.38.7,2.09-.48,3.08h-2.15c-4.87-10.42-9.75-20.89-14.72-31.53C289.83,329.67,287.7,334.38,285.54,339.15ZM263.82,226.37a34.09,34.09,0,0,1-15.48,10.32c-2.67,1.25-6.38,1.1-9.91,1.87.56.43.4,1.22.76,1.67a20.89,20.89,0,0,1,2.27,4.5c.66,1.39,1.35,2.8,1.94,4.24s1.25,2.7,1.87,4.05,1.43,2.94,2.08,4.44,1.43,3.25,2.23,4.84c.62,1.24,1.14,2.54,1.75,3.77,1.11,2.22,2.15,4.46,3.13,6.74a36.79,36.79,0,0,0,1.69,3.65c1.2,2.08,2,4.31,3.09,6.45.66,1.32,1.17,2.75,1.81,4.07s1.42,2.87,2.17,4.28c1,1.92,1.76,4,2.64,6a8.78,8.78,0,0,0,1.43-2.71c.52-1.69,1.47-3.16,2.14-4.76.88-2.13,2-4.17,2.95-6.27a1.4,1.4,0,0,0,0-1.08c-.64-1.58-1.55-3-2.16-4.63s-1.43-3-2.13-4.52c-.61-1.33-1.08-2.72-1.79-4-.87-1.52-1.48-3.16-2.22-4.73-.61-1.31-1.14-2.7-1.77-4-.75-1.54-1.51-3.1-2.28-4.64a31.38,31.38,0,0,1-2-4.1c-.43-1.34-1.67-2.46-1.14-4.21a3.51,3.51,0,0,1,.84-.84h2.09l14.8,31.76,6.67-14.4c-.9-1.93-1.68-3.77-2.59-5.54-1.37-2.66-2.5-5.44-3.84-8.12-1.23-2.44-2.29-5-3.45-7.49-.72-1.55-1.47-3.09-2.21-4.63-1.18-2.48-2.31-5-3.44-7.51C265.21,229.5,264.59,228.1,263.82,226.37Z"/><path class="cls-7" d="M307.16,246.82h2l.81.85c.4,1.41-.47,2.45-1,3.53-.84,1.8-1.65,3.61-2.46,5.43s-1.61,3.5-2.45,5.21c-1.35,2.71-2.48,5.52-3.83,8.21-.71,1.42-1.48,2.86-2.16,4.27s-1.16,2.73-1.78,4.06c-.73,1.55-1.31,3.16-2.18,4.66-.71,1.22-1.21,2.57-1.82,3.85-.74,1.59-1.61,3.12-2.23,4.75-.55,1.47-1.25,2.87-1.92,4.27-.94,1.94-1.59,4-2.6,5.91-.89,1.67-1.52,3.47-2.43,5.11-1,1.82-1.93,3.68-2.77,5.55s-1.72,4-2.67,5.92-2,4.11-2.94,6.15c-.72,1.52-1.48,3.07-2.13,4.65-.55,1.36-1.34,2.69-1.95,4a30.07,30.07,0,0,0-1.79,4.1,30.72,30.72,0,0,1-1.68,3.47c-.68,1.52-1.55,3-2.17,4.51-.81,2-1.75,3.88-2.65,5.79s-1.26,3.83-2.72,5.34h-1.95l-.81-.94c-.46-1.29.5-2.31.95-3.41,1-2.37,2.06-4.7,3.23-7,.72-1.39,1.51-2.79,2.09-4.2.89-2.17,1.92-4.28,2.86-6.42A48.15,48.15,0,0,1,268.8,329a18.09,18.09,0,0,0,1-2.22c.93-2.22,1.93-4.41,3-6.55.66-1.29,1.17-2.67,1.78-4,.71-1.52,1.47-3,2.18-4.53s1.4-3.19,2.15-4.76c1-2.08,1.8-4.25,2.9-6.28,1-1.84,1.83-3.77,2.72-5.67s1.85-3.94,2.76-5.91c.61-1.32,1.2-2.65,1.8-4,.68-1.49,1.47-2.93,2.1-4.45s1.31-2.67,1.93-4c.73-1.61,1.4-3.25,2.24-4.82.66-1.24,1.2-2.56,1.79-3.85q1.53-3.35,3.12-6.66c.91-1.89,1.65-3.86,2.61-5.72.77-1.48,1.42-3,2.16-4.52A38.48,38.48,0,0,1,307.16,246.82Z"/><path class="cls-7" d="M343.61,407.32c-.35,2.17-2.18,2.46-3.67,3.17-2,.95-4,1.92-6,2.85-1.46.69-3,1.25-4.4,2a4.56,4.56,0,0,1-3.14.7l-13.92-9.82a35.19,35.19,0,0,1,.83-8.59,2.54,2.54,0,0,0,0-.78,50,50,0,0,1,.51-7.44,2.59,2.59,0,0,1,1.94-2c2.37-.91,4.58-2.13,6.87-3.21,2-.94,4.14-1.67,6.07-2.76,1.45-.81,2.15.05,3.23.67,2.57,1.49,4.83,3.41,7.32,5,1.71,1.09,3.3,2.35,4.95,3.52a1.38,1.38,0,0,1,.55,1.33c-.18,2.61-.39,5.21-.7,7.81a54.66,54.66,0,0,0-.66,6.54C343.4,406.67,343.61,407,343.61,407.32Zm-3.76-.82c.31-4.63,1-9.1,1.15-13.6a15.5,15.5,0,0,0-2.69-2c-2.32-1.75-4.8-3.27-7.1-5a2.64,2.64,0,0,0-3.12-.22c-1.39.73-2.82,1.41-4.26,2s-2.74,1.5-4.26,2c-.73.24-1.83.41-2.25,1.45.2,1.69-.46,3.38-.25,5.12a.73.73,0,0,1,0,.33c-1,2.56-.1,5.3-.89,7.8l11,7.69H328Z"/><path class="cls-7" d="M222.18,391a5.94,5.94,0,0,1,2.37-1.54c.53-1,11.74-8.52,12.68-8.53a13.91,13.91,0,0,0,2.68,1.32c2.17,1.15,4.47,2,6.65,3.18a35.08,35.08,0,0,0,3.7,1.66c2.24.86,3.11,1.93,3.08,4.3a44.26,44.26,0,0,0,.38,6.94c.39,2.57.47,5.12.8,7.73-4.52,3.53-9.34,6.56-14,10-1.59.52-2.88-.63-4.31-1.12a23.92,23.92,0,0,1-2.86-1.44c-2-1-4.11-1.81-6.12-2.84a21.59,21.59,0,0,0-3.07-1.3,5.26,5.26,0,0,0-.94-1.48,36.52,36.52,0,0,0-.35-6.9A72.1,72.1,0,0,1,222.18,391Zm3.75,1.77c0,4.7.81,9.17,1.14,13.64a8.61,8.61,0,0,0,2.54,1.22c1.06.51,2.08,1.09,3.16,1.56a21.35,21.35,0,0,1,4,2,3.46,3.46,0,0,0,4.35,0c2.07-1.76,4.44-3.1,6.57-4.76,1-.8,2.43-1.15,2.92-2.29-.47-2.35-.24-4.54-.65-6.71a20.9,20.9,0,0,1-.36-6.32c-.27-.29-.46-.67-.74-.75a39.4,39.4,0,0,1-5.45-2.48c-1.61-.76-3.2-1.55-4.83-2.26a2.35,2.35,0,0,0-2.82.21c-.62.52-1.22,1.39-1.9,1.31Z"/><polygon class="cls-8" points="258.44 108.98 230.39 82.5 268.47 76.34 284.98 41.48 302.6 75.8 340.86 80.73 313.68 108.09 320.81 146 286.38 128.6 252.53 147.1 258.44 108.98"/><path class="cls-6" d="M285.05,46l2.89,5.62,13.37,26,29,3.74,6.26.81-4.45,4.48-20.62,20.76,5.41,28.75,1.17,6.21-5.64-2.85-26.12-13.19-25.67,14-5.55,3,1-6.25,4.48-28.91L239.3,88.17l-4.6-4.34,6.24-1,28.88-4.67,12.53-26.44,2.7-5.71m-.14-9-3.47,7.32L278.74,50,267.11,74.54,240.3,78.88l-6.24,1-8,1.29L232,86.73l4.59,4.34,19.75,18.64-4.16,26.84-1,6.25-1.24,8,7.1-3.88,5.54-3,23.84-13,24.24,12.25L316.3,146l7.22,3.65-1.5-8-1.17-6.21-5-26.69L335,89.49,339.43,85l5.7-5.75-8-1-6.26-.81L303.9,74,291.49,49.79l-2.89-5.62L284.91,37Z"/></svg>