<svg enable-background="new 0 0 113.4 113.4" viewBox="0 0 113.4 113.4" xmlns="http://www.w3.org/2000/svg"><circle cx="56.7" cy="56.7" fill="#00a5e6" r="56.7"/><circle cx="56.7" cy="56.7" fill="#fff" r="54.9"/><path d="m56.6 97c-22.3 0-40.3-18.1-40.3-40.4s18.1-40.3 40.4-40.3 40.3 18.2 40.3 40.6c0 22.1-18.2 40.1-40.4 40.1zm-.3-76.9c-9.6 12.1-19.2 24.4-28.8 36.5.1.7.5 1 .7 1.4 4.4 5.6 8.8 11.2 13.2 16.7 4.7 5.9 9.4 11.9 14.1 17.8.4.5.7 1.1 1.6.7 9.5-12.1 19.1-24.2 28.7-36.2-.1-.7-.5-1-.8-1.4-1.9-2.5-3.9-4.9-5.9-7.4-7.2-9.1-14.3-18.1-21.5-27.2-.2-.4-.5-1-1.3-.9z" fill="#00a5e6"/><path d="m56.3 20.1c.9-.1 1.1.5 1.5.9 7.2 9 14.3 18.1 21.5 27.2 2 2.5 3.9 4.9 5.9 7.4.3.4.7.7.8 1.4-9.5 12-19.1 24.2-28.7 36.2-.9.4-1.2-.2-1.6-.7-4.7-5.9-9.4-11.9-14.1-17.8-4.4-5.6-8.8-11.2-13.2-16.7-.3-.4-.7-.7-.7-1.4 9.4-12.1 19-24.3 28.6-36.5zm-2.2 36.6v10.8h5c0-3.7 0-7.2 0-10.8h25.3c-9.4-11.9-18.6-23.5-27.8-35.1-9.3 11.7-18.4 23.3-27.7 35.1z" fill="#fefeff"/><path d="m54.1 56.7c-8.3 0-16.6 0-25.1 0 9.3-11.8 18.4-23.3 27.7-35.1 9.1 11.6 18.3 23.2 27.7 35.1-8.6 0-16.9 0-25.3 0 0-3.6 0-7.3 0-10.9-1.8 0-3.3 0-5 0z" fill="#00a5e6"/><path d="m59.1 56.7v10.8c-1.7 0-3.3 0-5 0 0-3.6 0-7.2 0-10.8z" fill="#00a9e8"/><path d="m59.1 56.7c-1.7 0-3.4 0-5 0 0-3.6 0-7.2 0-10.9h5z" fill="#feffff"/><g fill="#00a5e6"><path d="m13.7 84.4 5.7-4.4 3 3.9c.6.8 1 1.3 1.1 1.5.4.6.5 1.2.3 1.6-.1.4-.6.9-1.3 1.5-.7.5-1.3.8-1.7.9-.3 0-.5 0-.8-.1s-.5-.3-.8-.7c-.2-.2-.6-.7-1.1-1.4l-1.7-2.2-1.4 1.1zm4.2-.5 1.7 2.2c.3.4.5.6.6.7s.2.1.2.2c.1.1.2.1.4 0s .3-.1.5-.3.3-.3.4-.4.1-.2 0-.4c0-.1-.2-.4-.6-1l-1.8-2.1z"/><path d="m25.7 97.3.3-1.3-3.6-3.1-1.3.5-1.9-1.6 7.6-3 2.6 2.2-1.9 8zm .8-3.1.7-3-.3-.3-2.8 1.2z"/><path d="m32.2 93.2 3.4 1.8.9 6.5.2.1 2.4-4.8 2 1-3.3 6.4-3.4-1.8-.9-6.5-.2-.1-2.4 4.8-2-1z"/><path d="m46.3 99c1.5.4 2.6.7 3.1.9.8.3 1.2.8 1.2 1.5 0 .5-.1 1.3-.4 2.4s-.5 1.9-.8 2.3c-.3.6-.9.9-1.8.8-.6-.1-1.6-.3-3.1-.6-1.5-.4-2.6-.7-3.1-.9-.8-.3-1.2-.8-1.2-1.5 0-.5.1-1.3.4-2.4s.5-1.8.7-2.2c.3-.6.9-.9 1.8-.8.6-.1 1.6.1 3.2.5zm-.5 1.8c-1.1-.3-1.8-.4-2.1-.4s-.5.1-.6.3-.3.7-.5 1.4c-.1.4-.2.7-.2.9 0 .4.2.6.6.8.3.1.9.3 1.8.5s1.4.3 1.7.4c.3 0 .5 0 .7-.1.1-.1.3-.2.4-.4s.2-.5.3-.9c.1-.5.2-.9.2-1.1s0-.4-.1-.6-.2-.3-.5-.4-.7-.1-1.7-.4z"/><path d="m58.2 104.8h2.2v.7c0 .6-.1 1-.3 1.3s-.6.6-1.1.7-1.5.2-2.8.1c-1.4 0-2.4-.1-2.9-.1-.6-.1-1-.2-1.3-.3s-.5-.3-.6-.6c-.1-.2-.2-.6-.2-1 0-.3 0-.9 0-1.8 0-.8 0-1.4.1-1.8s.1-.7.2-.9c.2-.5.6-.7 1.2-.9.6-.1 1.9-.2 3.7-.1.9 0 1.6.1 2 .1.4.1.8.1 1 .3.3.2.6.4.7.7s.2.8.2 1.4v.4h-2.2c0-.2 0-.4 0-.5s-.1-.1-.1-.2c-.1-.1-.3-.1-.6-.2-.3 0-.9-.1-1.6-.1s-1.2 0-1.4 0c-.3 0-.5.1-.6.2s-.2.3-.3.5c-.1.3-.1.6-.1 1.2v1.2c0 .2.1.4.3.5.1.1.3.2.6.2s.7.1 1.4.1h1.7c.3 0 .5-.1.6-.2s.1-.4.2-.9z"/><path d="m60.7 100.4 7.9-1.4.3 1.7-5.7 1.1.2 1 5.5-1 .3 1.6-5.5 1 .2 1.1 5.8-1.1.3 1.7-7.9 1.5z"/><path d="m78.9 102.6-1-.9-4.4 1.8-.1 1.4-2.3 1 .8-8.2 3.2-1.3 6.3 5.2zm-2.4-2.1-2.3-2-.4.2-.2 3.1z"/><path d="m78.1 95 3.1-2.3 6.2 2.1.2-.1-3.2-4.3 1.8-1.3 4.2 5.9-3.1 2.2-6.2-2.1-.2.1 3.2 4.3-1.8 1.3z"/><path d="m86.6 88.5 1.6-1.6 5.1 5.1-1.6 1.6z"/><path d="m99.3 84.6-1.4-.2-2.9 3.8.6 1.2-1.5 2-3.5-7.4 2-2.7 8.1 1.3zm-3.1-.6-3-.5-.3.4 1.4 2.8z"/><path d="m16.1 37.1-4.9-2.8 1.9-3.4c.4-.7.6-1.1.8-1.3.3-.5.7-.7 1-.7s.8.1 1.5.5c.6.3 1 .7 1.2 1 .1.2.2.4.1.6 0 .2-.1.5-.2.8-.1.2-.3.6-.7 1.2l-1.1 1.9 1.2.7zm-1.6-2.9 1.1-1.9c.2-.3.3-.6.3-.6l.1-.2c0-.1 0-.2-.1-.3s-.2-.2-.4-.3-.3-.1-.4-.1-.2 0-.3.1-.2.3-.5.8l-1.1 1.9z"/><path d="m18.4 28.1-.9 1.2c-.2-.2-.4-.4-.4-.6-.1-.3-.1-.6.1-1s .5-.9 1.1-1.6c.4-.5.7-.9.9-1 .2-.2.4-.3.6-.3s.4 0 .5.1c.2.1.4.2.7.5l1.9 1.5-.9 1.1-.4-.3v.1c.1.2.1.5.1.7 0 .1-.1.3-.2.5s-.3.5-.7.9c-.3.3-.5.5-.6.7-.2.1-.4.2-.5.3-.3 0-.6-.1-.9-.3-.4-.3-.6-.6-.6-.9 0-.2 0-.5.2-.8.1-.3.5-.7 1-1.4.2-.3.4-.5.5-.5.1-.1.3-.1.4-.2v-.1l-.2-.1c-.2-.2-.4-.3-.6-.2-.1 0-.3.2-.6.6s-.5.7-.6.8c0 0 0 .1.1.3zm1.5-.2c-.3.4-.5.7-.5.8 0 .2 0 .3.1.4s.3.1.4 0 .3-.3.6-.6c.3-.4.5-.7.6-.9s0-.3-.1-.4-.3-.1-.4 0c-.1 0-.3.3-.7.7z"/><path d="m20.1 22.6 1.1-1.1.7.7 1.7-1.7.8.8-1.7 1.7.8.8c.2.2.4.3.5.4.2 0 .3 0 .5-.2s.3-.4.2-.5c0-.1 0-.1-.1-.1 0 0-.1-.1-.3-.3l1-1c .3.3.5.5.5.6.1.2.2.3.2.5s0 .5-.2.7c-.1.2-.4.5-.8.9-.3.3-.6.6-.8.7s-.4.2-.6.2-.3 0-.4-.1-.3-.2-.4-.3-.2-.2-.5-.5l-.8-.8-.6.6-.7-.8.6-.6z"/><path d="m23.2 18.6 1.2-.9 1.4 1.8h.1c-.1-.3 0-.5.1-.8s.4-.5.8-.8.7-.5.9-.6c.3-.1.5-.1.8-.1.2 0 .5.1.7.3.2.1.4.4.7.8l1.2 1.5-1.3.8-1.2-1.5c-.1-.2-.3-.3-.4-.4s-.2-.1-.3-.1c-.2 0-.5.1-.9.4s-.6.6-.7.9c0 .1 0 .3.1.4s.2.3.4.6l1.1 1.4-1.2.9z"/><path d="m29.6 17.1-.6-.9.7-.4c-.2-.4-.3-.6-.4-.8 0-.2 0-.4 0-.6.1-.2.2-.4.4-.6s.5-.4.9-.7c.2-.1.4-.3.7-.4l.5.8c-.2.1-.3.2-.3.2-.4.2-.6.4-.6.6v.2s.1.2.2.3l1.3-.8.6.9-1.3.8 1.6 2.5-1.3.8-1.6-2.5z"/><path d="m31.9 12.5 1.3-.7.5 1-1.3.7zm.8 1.4 1.3-.7 1.9 3.6-1.3.7z"/><path d="m34.8 12.7 1.3-.6.2.6h.1c0-.3.1-.5.3-.7s.5-.4 1-.6c.4-.2.8-.3 1.1-.3s.5 0 .8.1c.2.1.4.2.6.4.1.2.3.5.5 1l .7 1.7-1.4.6-.7-1.7c-.1-.3-.2-.5-.3-.6s-.2-.2-.3-.2c-.2-.1-.5 0-1 .2s-.8.4-.8.7c0 .1-.1.3 0 .4s.1.4.3.7l.6 1.5-1.4.6z"/><path d="m45.7 7.1 1.5 5.5-1.4.4v-.5h-.1c-.1.2-.1.4-.2.5-.2.2-.7.4-1.3.6-.5.1-.9.2-1.2.2s-.6 0-.8-.1-.4-.3-.5-.5-.3-.6-.4-1.1c-.1-.3-.2-.6-.2-.8s0-.4 0-.6c.1-.3.3-.6.6-.8.3-.1.7-.3 1.3-.5.5-.1.9-.2 1.1-.2s.5.1.7.3h.1l-.6-2.1zm-1.9 3.4c-.6.2-.9.3-1.1.5-.1.2-.1.4 0 .8.1.3.2.5.2.6s.2.2.3.2c.2 0 .5 0 .9-.2.5-.2.9-.3 1-.5.1-.1.1-.2.1-.3s0-.3-.1-.5c-.1-.3-.2-.5-.2-.6-.1-.1-.2-.2-.3-.2s-.4.1-.8.2z"/><path d="m51.4 10.7 1.5-.2c0 .4-.1.8-.3 1s-.4.4-.8.5c-.3.1-.9.2-1.6.3-.6.1-1 .1-1.4.1-.3 0-.6-.1-.8-.2s-.4-.3-.5-.5-.2-.6-.3-1.1c-.1-.4-.1-.7-.1-.9s0-.4.1-.5c.1-.3.4-.6.8-.7.3-.1.9-.3 1.7-.4.7-.1 1.1-.1 1.4-.1.5 0 .9.1 1.1.4s.4.7.5 1.4v.4l-3.9.6c0 .2.1.3.1.4s.1.1.2.2c.2.1.5.1 1 0 .3 0 .6-.1.7-.1.2 0 .3-.1.3-.2.2-.2.3-.3.3-.4zm-.2-1.2c0-.2-.1-.3-.1-.3 0-.1-.1-.1-.1-.1-.1-.1-.5-.1-1.1-.1-.5.1-.8.2-1 .3-.1.1-.1.3-.1.5z"/><path d="m53.4 7.7h1.4v.6h.1c.1-.3.3-.4.6-.6.2-.1.6-.2 1-.2.6 0 1 .1 1.3.3.2.2.4.7.4 1.3v.3h-1.4c0-.2 0-.4-.1-.5-.1-.2-.3-.3-.7-.3s-.6.1-.8.3c-.1.1-.1.2-.1.4v.7 1.7h-1.5z"/><path d="m60.5 11.7 1-5.6 4.1.7c.7.1 1.2.2 1.4.3.2 0 .4.1.7.2.5.2.9.6.9 1.1v.7c0 .2-.1.6-.1 1-.1.5-.2.9-.2 1.1-.1.3-.2.5-.3.7-.3.5-.6.7-1.2.7-.3 0-.5 0-.8 0s-.7-.1-1.4-.2zm2-1.1 2.4.4c.4.1.8.1 1 .1s.4 0 .5-.1.2-.2.3-.3c.1-.2.1-.4.2-.8.1-.3.1-.6.1-.8s0-.3-.1-.4-.2-.2-.4-.3-.5-.1-1-.2l-2.6-.4z"/><path d="m69.6 9.4 1.4.4-.2.6h.1c.2-.2.4-.3.7-.3s.6 0 1 .1c.6.2.9.4 1.1.7s.1.7 0 1.3c0 0 0 .1-.1.3l-1.4-.4c.1-.2.1-.4.1-.5 0-.2-.2-.4-.6-.5-.3-.1-.6-.1-.8 0-.1.1-.2.2-.3.3s-.2.3-.2.6l-.6 1.7-1.4-.5z"/><path d="m77.3 12.1c.6.3 1.1.5 1.4.7s.5.4.6.6.2.4.1.7c0 .2-.2.6-.4 1.1-.2.3-.3.6-.4.8s-.2.3-.3.4c-.3.3-.7.4-1.1.3s-.9-.3-1.7-.7c-.7-.3-1.2-.6-1.4-.8-.3-.2-.5-.4-.6-.6s-.1-.4-.1-.7.2-.6.4-1.2c.1-.3.3-.5.4-.7.1-.1.2-.3.3-.4.3-.2.6-.3 1-.2s1 .4 1.8.7zm-.5 1.1c-.5-.2-.8-.3-1-.3-.1 0-.3 0-.4.2-.1.1-.2.3-.3.5s-.2.4-.2.5 0 .2.1.3c.1.2.4.3.9.6.5.2.9.3 1.1.3s.4-.3.6-.6c.1-.2.2-.4.2-.6 0-.1 0-.3-.1-.4-.2-.2-.4-.3-.9-.5z"/><path d="m80.7 13.9 1.2.8-.3.5h.1c.3-.1.5-.2.8-.2s.6.2 1 .5.7.5.9.7.3.4.4.7 0 .5 0 .7c-.1.2-.3.6-.6 1l-1 1.5-1.3-.8 1-1.5c.2-.3.3-.5.3-.6s.1-.2 0-.3c0-.2-.3-.4-.7-.7s-.8-.4-1-.3c-.1 0-.2.1-.3.2s-.2.3-.4.6l-1 1.4-1.3-.8z"/><path d="m87.2 16.2 1.2 1-1.4 1.7h.1c.3-.1.5-.1.8 0 .2.1.6.3.9.6.4.3.7.6.9.8s.3.5.4.7 0 .5-.1.7-.3.5-.7 1c-.2.3-.4.5-.5.6s-.3.2-.4.3c-.3.2-.6.2-.9.1s-.8-.4-1.3-.9-.9-.8-1-1.1c0-.1-.1-.3 0-.5l-.1-.1-.3.4-1.1-.9zm.5 3.9c-.4-.3-.7-.5-.9-.6-.1 0-.2 0-.4.1-.1.1-.3.2-.4.4-.2.2-.3.4-.3.5s0 .3.1.4c.1.2.3.4.7.7s.7.5.9.6c.1 0 .2 0 .3-.1s.2-.2.4-.4.3-.4.3-.5 0-.2 0-.4c-.2-.2-.4-.4-.7-.7z"/><path d="m93.1 23.7c.5.5.8.9 1 1.2s.3.6.3.8 0 .5-.1.7-.4.5-.8.8c-.3.3-.5.4-.6.5-.2.1-.3.2-.5.3-.4.1-.8.1-1.1-.2-.3-.2-.8-.6-1.3-1.3-.5-.6-.8-1-1-1.3s-.3-.5-.3-.8c0-.2.1-.5.2-.7s.4-.5.9-.9c.2-.2.4-.4.6-.5.1-.1.3-.2.5-.2.3-.1.6 0 1 .2.1.3.6.8 1.2 1.4zm-.9.8c-.3-.4-.6-.6-.8-.7-.1-.1-.3-.1-.4 0s-.3.2-.5.3c-.2.2-.3.3-.4.4s-.1.2 0 .4.3.5.6.9c.4.4.7.7.9.7s.5-.1.8-.4c.2-.2.3-.3.4-.4s.1-.2 0-.4-.3-.5-.6-.8z"/><path d="m96.5 26.6.9 1.2-.8.5 1.4 2-.9.6-1.4-2-1 .7c-.3.2-.4.3-.5.4s0 .3.1.6c.2.2.3.3.5.3h.2s.2-.1.3-.2l.8 1.1c-.3.2-.6.4-.7.4s-.3.1-.5.1-.5-.1-.7-.3-.5-.5-.8-.9-.5-.7-.6-.9-.1-.4-.1-.6c0-.1.1-.3.1-.4.1-.1.2-.2.4-.4.1-.1.2-.2.5-.4l1-.7-.5-.7.9-.6.5.7z"/><path d="m96 32.2.7 1.4c-.1.1-.2.2-.2.4s.2.5.4.9.4.7.5.8.3.2.4.1.2-.2.1-.4c0-.1-.2-.5-.6-1.2-.3-.6-.5-1-.6-1.2-.2-.4-.2-.8 0-1.1.1-.2.3-.4.6-.5.5-.3 1-.3 1.3 0 .3.2.7.8 1.2 1.8.3.6.5 1.1.6 1.4s.1.6.1.8c0 .1-.1.3-.2.4s-.2.2-.4.3l-.7-1.4c.1-.1.1-.1.1-.2s-.1-.4-.3-.9c-.2-.4-.4-.7-.5-.8s-.2-.2-.4-.1c-.1.1-.2.2-.1.4l.9 1.8c.3.5.4.9.3 1.2 0 .3-.3.6-.7.8-.3.1-.5.2-.7.2s-.4-.1-.6-.2c-.3-.2-.7-.9-1.3-1.9-.3-.6-.6-1.1-.7-1.4s-.1-.6-.1-.8c.3-.1.5-.3.9-.6z"/></g></svg>