<?xml version="1.0" encoding="utf-8"?>
<!-- Generator: Adobe Illustrator 27.3.1, SVG Export Plug-In . SVG Version: 6.00 Build 0)  -->
<svg version="1.1" id="Capa_1" xmlns="http://www.w3.org/2000/svg" xmlns:xlink="http://www.w3.org/1999/xlink" x="0px" y="0px"
	 viewBox="0 0 566.9 566.9" style="enable-background:new 0 0 566.9 566.9;" xml:space="preserve">
<style type="text/css">
	.st0{fill:#EF7E00;}
	.st1{fill:#F6F6F6;}
	.st2{enable-background:new    ;}
	.st3{fill:#1D1D1B;}
</style>
<path class="st0" d="M283.7,562.7C129.8,562.9,4,437.9,4.3,283.7C4.5,124.6,133.8,4,283.1,4.2c154.8,0.2,279.6,124.5,279.6,279.2
	C562.7,437.8,438.1,562.5,283.7,562.7L283.7,562.7z"/>
<g>
	<path class="st1" d="M283.7,550.3C136.6,550.5,16.4,431,16.6,283.7C16.9,131.6,140.4,16.4,283.1,16.6
		c147.9,0.2,267.2,119,267.2,266.8C550.3,430.9,431.3,550.1,283.7,550.3L283.7,550.3z"/>
	<path class="st1" d="M283.3,556.3c-72.9,0-141.4-28.4-193-80.1c-51.5-51.5-79.8-119.9-79.7-192.5c0.1-74.2,29.1-143.4,81.6-194.9
		c25.1-24.6,54.3-44,86.7-57.4c33.2-13.8,68.3-20.8,104.1-20.7c73.2,0.1,141.8,28.4,193.3,79.8c51.5,51.4,79.9,119.9,79.9,193
		c0,72.9-28.3,141.4-79.7,192.9s-119.9,79.9-192.9,80L283.3,556.3L283.3,556.3z M282.7,22.6c-143.2,0-259.8,117.1-260.1,261.1
		c-0.1,69.4,26.9,134.8,76.2,184c49.4,49.4,114.9,76.6,184.6,76.6h0.4c143.7-0.2,260.6-117.2,260.6-260.9
		c0-143.6-117.2-260.6-261.2-260.8L282.7,22.6L282.7,22.6z"/>
</g>
<g class="st2">
	<path class="st3" d="M43.5,183.4l8.5-17.7c2.7-5.6,6.4-8.2,9.5-6.7l4.5,2.2c3.1,1.5,3.4,6,0.6,11.6l-7.2,15l6.6,3.2
		c1.2,0.6,1.1,1.4,0.5,2.8c-0.6,1.3-1.3,1.9-2.5,1.4l-19.8-9.6C43.3,185.1,43.1,184.4,43.5,183.4z M48.2,182.4l7.9,3.8l7-14.6
		c2-4.2,1.7-5.9,0.6-6.4l-3.9-1.9c-1.1-0.5-2.6,0.2-4.6,4.5L48.2,182.4z"/>
</g>
<g class="st2">
	<path class="st3" d="M73.8,156.6l3.4,2.2c1.2,0.8,3.2,0,5.5-3.4l9.1-13.8c0.6-0.9,1.3-0.8,2.3-0.1c1,0.7,1.4,1.2,0.8,2.2l-9.2,13.9
		c-3.8,5.7-7.4,7.4-11,5l-10.2-6.7c-3.6-2.4-3.5-6.4,0.3-12.1l2.8-4.3c0.6-0.9,1.2-0.8,2.3-0.1c1,0.7,1.4,1.2,0.8,2.1l-2.8,4.2
		c-2.2,3.4-2.2,5.5-1,6.3l3.7,2.4L83,135.8c0.6-0.9,1.3-0.8,2.3-0.1c1,0.7,1.4,1.2,0.8,2.2L73.8,156.6z"/>
</g>
<g class="st2">
	<path class="st3" d="M113.3,120.5l-27.9,4.2l13.3,11.7c1,0.9,0.7,1.7-0.3,2.8c-1,1.1-1.7,1.5-2.7,0.6l-16.6-14.6
		c-1-0.8-0.7-1.6,0.2-2.7c1-1.1,1.7-1.4,3.1-1.6l27.6-4l-13.3-11.7c-1-0.9-0.7-1.7,0.3-2.8c1-1.1,1.8-1.5,2.8-0.7l16.6,14.6
		c1,0.9,0.7,1.7-0.4,2.9C115.2,120.1,114.9,120.2,113.3,120.5z"/>
</g>
<g class="st2">
	<path class="st3" d="M122.1,111.5c0.9,1,0.5,1.7-0.6,2.8c-1.1,1-1.9,1.4-2.8,0.4l-15.3-16c-0.9-1-0.5-1.7,0.5-2.8
		c1.1-1.1,1.9-1.4,2.8-0.4L122.1,111.5z"/>
</g>
<g class="st2">
	<path class="st3" d="M123.1,84.2l12.6,15.4c0.8,1,0.4,1.8-0.8,2.7c-1.2,0.9-2,1.2-2.8,0.2l-12.6-15.4l-8.1,6.6
		c-0.9,0.7-1.4,0.4-2.2-0.6c-0.8-1-1-1.6-0.1-2.3l19.7-16.2c0.9-0.7,1.4-0.4,2.2,0.6c0.8,1,1,1.6,0.1,2.3L123.1,84.2z"/>
</g>
<g class="st2">
	<path class="st3" d="M144.3,81.8l2.2,3.4c0.8,1.3,2.9,1.3,6.4-0.8l14-8.9c0.9-0.6,1.5-0.2,2.1,0.9c0.6,1,0.8,1.7-0.1,2.3l-14.1,8.9
		c-5.8,3.7-9.8,3.7-12.1,0.1l-6.6-10.3c-2.3-3.7-0.6-7.3,5.2-10.9l4.4-2.8c0.9-0.6,1.4-0.2,2.1,0.9c0.7,1.1,0.8,1.7-0.1,2.3
		l-4.2,2.7c-3.4,2.2-4.3,4.1-3.5,5.4l2.4,3.7l19-12c0.9-0.6,1.5-0.2,2.1,0.9c0.7,1.1,0.8,1.7-0.1,2.3L144.3,81.8z"/>
</g>
<g class="st2">
	<path class="st3" d="M195.2,65L168,57.4l7.4,16.1c0.5,1.2,0,1.8-1.4,2.4c-1.4,0.6-2.2,0.7-2.8-0.5L162,55.3c-0.5-1.2,0-1.8,1.3-2.4
		c1.4-0.6,2.1-0.6,3.5-0.2l26.8,7.6l-7.4-16.1c-0.5-1.2,0-1.8,1.4-2.4c1.4-0.6,2.2-0.7,2.8,0.5l9.2,20.1c0.6,1.2,0,1.8-1.5,2.5
		C197,65.4,196.7,65.4,195.2,65z"/>
</g>
<g class="st2">
	<path class="st3" d="M210.9,38.2l5.8,19c0.4,1.3-0.3,1.8-1.7,2.2c-1.4,0.4-2.3,0.4-2.7-0.9l-5.8-19l-10,3c-1.1,0.3-1.5-0.2-1.8-1.4
		c-0.4-1.2-0.3-1.9,0.7-2.2l24.4-7.4c1.1-0.3,1.5,0.2,1.8,1.4c0.4,1.2,0.3,1.9-0.7,2.2L210.9,38.2z"/>
</g>
<g class="st2">
	<path class="st3" d="M251.1,51.3c-6.8,0.8-10.4-1-10.9-5.2l-1.4-12.1c-0.5-4.3,2.7-6.8,9.4-7.6l10-1.2c6.8-0.8,10.4,0.9,10.9,5.2
		l1.4,12.1c0.5,4.3-2.7,6.8-9.4,7.6L251.1,51.3z M266.1,43.1l-1.4-12.1c-0.2-1.5-2.1-2.5-6.1-2l-9.7,1.1c-4,0.5-5.6,1.8-5.5,3.4
		l1.4,12.1c0.2,1.5,2.1,2.5,6.1,2l9.7-1.1C264.6,45.9,266.2,44.5,266.1,43.1z"/>
</g>
<g class="st2">
	<path class="st3" d="M294.7,49.3l-19.6-0.5c-1.1,0-1.6-0.6-1.6-1.7l0.5-21.9c0-1.1,0.6-1.6,1.6-1.6l19.3,0.5c6,0.1,10.1,1.7,10,7.4
		c-0.1,2.4-0.8,4.2-3.3,5.4c2.1,0.8,3.4,2.3,3.4,5.4C304.9,48.3,299.8,49.5,294.7,49.3z M294.7,38.6l-16.3-0.4l-0.2,7l16.8,0.4
		c4.6,0.1,5.3-0.8,5.3-3.2C300.4,39.8,299.5,38.7,294.7,38.6z M278.5,34.5l16.5,0.4c4.2,0.1,5.5-0.4,5.5-3.3
		c0.1-2.4-0.8-3.5-5.2-3.6l-16.7-0.4L278.5,34.5z"/>
</g>
<g class="st2">
	<path class="st3" d="M317.9,40.7c-6.7-1.1-9.8-3.7-9.1-8l0.2-1.3c0.7-4.3,4.4-5.8,11.1-4.8l3.4,0.5c1.1,0.2,1.2,0.8,1,2.1
		c-0.2,1.2-0.5,1.8-1.6,1.6l-3.5-0.6c-4-0.6-5.7,0.3-5.9,1.8l-0.2,1.3c-0.2,1.5,1.1,2.9,5.1,3.5l8.1,1.3c6.7,1.1,9.8,3.7,9.1,8
		l-0.3,1.7c-0.7,4.3-4.4,5.8-11.1,4.8L307.5,50c-1.1-0.2-1.2-0.8-1-2.1c0.2-1.2,0.5-1.8,1.6-1.6l16.9,2.7c4,0.6,5.7-0.3,5.9-1.8
		l0.3-1.7c0.2-1.5-1.1-2.9-5.1-3.5L317.9,40.7z"/>
</g>
<g class="st2">
	<path class="st3" d="M343.2,45.8l-1.1,3.9c-0.4,1.4,0.9,3.1,4.8,4.2l15.9,4.6c1.1,0.3,1.1,1,0.8,2.2c-0.3,1.2-0.8,1.7-1.8,1.4
		l-16-4.7c-6.5-1.9-9.2-4.9-8-9.1l3.4-11.7c1.2-4.2,5.1-5.2,11.6-3.3l5,1.4c1,0.3,1.1,1,0.7,2.2c-0.3,1.2-0.8,1.7-1.8,1.4l-4.8-1.4
		c-3.9-1.1-5.9-0.5-6.3,1l-1.2,4.3l21.6,6.3c1.1,0.3,1.1,1,0.8,2.2c-0.3,1.2-0.8,1.7-1.8,1.4L343.2,45.8z"/>
</g>
<g class="st2">
	<path class="st3" d="M376.8,40.9l17.8,7.9c5.7,2.6,8.4,6.2,7,9.3l-1.8,4c-1.4,3.1-5.9,3.5-11.6,1l-1.3-0.6
		c-3.7-1.7-5.2-2.4-6.8-3.2l0,0.1c1.1,1.1,2.4,2.2,6.3,6.3l6.2,6.5c0.6,0.6,0.7,1.2,0.4,1.9c-0.5,1.1-1.4,1.1-2.8,0.5
		c-0.6-0.3-1.8-0.9-2.3-1.6L373,56.8l-3.1,7c-0.5,1.2-1.4,1.2-2.8,0.5c-1.4-0.6-2-1.2-1.4-2.4l9-20.1
		C375.1,40.7,375.8,40.5,376.8,40.9z M378,45.6l-3.3,7.5l14.7,6.6c4.3,1.9,5.9,1.6,6.4,0.4l1.5-3.4c0.5-1.1-0.3-2.6-4.6-4.5
		L378,45.6z"/>
</g>
<g class="st2">
	<path class="st3" d="M407,83l-1.4-26.4c0-0.3,0-0.6,0.2-0.8c0.5-0.8,2.2-0.8,3.2-0.1c0.5,0.3,1,0.9,1,1.5l1.1,24.5l22.5-9.6
		c0.5-0.2,1.1-0.2,1.7,0.2c1,0.6,1.8,2.1,1.2,3c-0.1,0.2-0.4,0.4-0.6,0.5l-24.3,10.1c-0.9,0.4-1.8,0.3-3-0.4S407,84,407,83z"/>
</g>
<g class="st2">
	<path class="st3" d="M448.5,84.7l-1.9,26.2c0,0.3-0.2,0.6-0.3,0.8c-0.7,0.8-2.2,0.6-3.1-0.2c-0.5-0.4-0.8-0.9-0.7-1.5l0.6-7.2
		l-14.9-12.2l-6.7,2.2c-0.5,0.2-1.1,0-1.6-0.4c-0.9-0.7-1.4-2.2-0.7-3c0.2-0.2,0.4-0.3,0.7-0.4l24.6-7.7c0.9-0.3,1.8-0.1,2.9,0.8
		C448.2,82.9,448.6,83.8,448.5,84.7z M432.3,89.3l11.1,9l1.1-13L432.3,89.3z"/>
</g>
<g class="st2">
	<path class="st3" d="M464.4,132.5l-1.1-28.1l-13.1,11.9c-1,0.9-1.7,0.5-2.8-0.6c-1-1.1-1.3-1.9-0.3-2.8L463.4,98
		c0.9-0.9,1.7-0.5,2.7,0.5c1,1.1,1.2,1.9,1.2,3.3l1,27.9l13.1-12c1-0.9,1.7-0.5,2.7,0.6c1,1.1,1.3,1.9,0.4,2.8L468.2,136
		c-1,0.9-1.7,0.5-2.8-0.7C464.5,134.4,464.5,134.1,464.4,132.5z"/>
</g>
<g class="st2">
	<path class="st3" d="M494.7,139.3l-16.3,11.4c-1.1,0.8-1.8,0.3-2.7-1c-0.9-1.2-1.1-2.1,0-2.8l16.3-11.4l-6-8.6
		c-0.6-0.9-0.3-1.5,0.8-2.2c1-0.7,1.7-0.9,2.3,0l14.6,20.9c0.6,0.9,0.3,1.5-0.8,2.2c-1,0.7-1.7,0.9-2.3,0L494.7,139.3z"/>
</g>
<g class="st2">
	<path class="st3" d="M498.8,166c-3.2-6-2.9-10.1,0.9-12.1l1.2-0.6c3.8-2,7.3,0,10.5,6.1l1.6,3.1c0.5,1,0.1,1.5-1,2.1
		s-1.8,0.7-2.3-0.3L508,161c-1.9-3.6-3.6-4.4-5-3.7l-1.2,0.6c-1.3,0.7-1.7,2.6,0.2,6.2l3.8,7.2c3.2,6,2.9,10.1-0.9,12.1l-1.5,0.8
		c-3.8,2-7.3,0-10.5-6.1l-7.9-15c-0.5-1-0.1-1.5,1-2.1c1.1-0.6,1.8-0.7,2.3,0.3l8,15.1c1.9,3.6,3.6,4.4,5,3.7l1.5-0.8
		c1.3-0.7,1.7-2.6-0.2-6.2L498.8,166z"/>
</g>
<g class="st2">
	<path class="st3" d="M207,527.5l-18.5-6.3c-1-0.3-1.3-1-1-2.1l7-20.7c0.3-1,1-1.3,2-1l18.3,6.2c5.7,1.9,9.2,4.6,7.3,10.1
		c-0.8,2.3-2,3.8-4.8,4.1c1.7,1.4,2.6,3.2,1.6,6.1C217.1,529.6,211.9,529.1,207,527.5z M210.3,517.3l-15.5-5.2l-2.2,6.6l15.9,5.4
		c4.3,1.5,5.3,0.8,6-1.4C215.4,520.1,214.9,518.8,210.3,517.3z M196.1,508.5l15.6,5.3c3.9,1.3,5.3,1.2,6.3-1.5
		c0.8-2.3,0.2-3.5-3.9-4.9l-15.8-5.3L196.1,508.5z"/>
</g>
<g class="st2">
	<path class="st3" d="M242.8,511.5l10.9,24c0.1,0.3,0.1,0.6,0.1,0.8c-0.2,1-1.7,1.6-2.8,1.3c-0.6-0.1-1.1-0.4-1.4-1l-2.9-6.6
		l-18.9-3.5l-4.9,5.1c-0.4,0.4-1,0.5-1.6,0.4c-1.1-0.2-2.3-1.2-2.1-2.3c0.1-0.3,0.2-0.5,0.4-0.7l17.9-18.6c0.7-0.7,1.6-0.9,2.9-0.7
		C241.7,510,242.4,510.6,242.8,511.5z M230.8,523.3l14.1,2.6l-5.2-11.9L230.8,523.3z"/>
</g>
<g class="st2">
	<path class="st3" d="M262.9,523.4l18.7-8.9c0.7-0.3,1.3-0.4,2.8-0.3c1,0,1.8,0.6,1.8,1.7c0,0.7-0.4,1.2-1.2,1.5l-18.9,8.4
		l18.6,10.6c0.7,0.4,1.1,1,1,1.6c-0.1,1.1-0.9,1.5-1.9,1.5c-1.6-0.1-2.1-0.2-2.8-0.6L262.7,528l-0.4,8.9c-0.1,1.3-0.9,1.6-2.4,1.5
		c-1.5-0.1-2.3-0.4-2.2-1.7l1.1-22.1c0.1-1.3,0.9-1.6,2.4-1.5c1.5,0.1,2.3,0.4,2.2,1.7L262.9,523.4z"/>
</g>
<g class="st2">
	<path class="st3" d="M299.5,538.7c-6.8,0.6-10.4-1.3-10.7-5.6l-1.4-17.1c-0.1-1.3,0.7-1.7,2.1-1.8c1.5-0.1,2.3,0.1,2.4,1.4
		l1.4,17.1c0.1,1.5,1.9,2.5,6,2.2l10.4-0.9c4-0.3,5.7-1.7,5.5-3.2l-1.4-17.1c-0.1-1.3,0.7-1.7,2.2-1.8c1.5-0.1,2.3,0.1,2.4,1.4
		l1.4,17.1c0.4,4.3-2.9,6.7-9.7,7.3L299.5,538.7z"/>
</g>
<g class="st2">
	<path class="st3" d="M350.9,529.2l-25.1-12.9l4,17.2c0.3,1.3-0.4,1.8-1.9,2.1c-1.5,0.3-2.3,0.2-2.6-1.1l-5-21.6
		c-0.3-1.2,0.4-1.8,1.8-2.1c1.5-0.3,2.2-0.1,3.5,0.5l24.7,12.9l-4-17.3c-0.3-1.3,0.4-1.8,1.9-2.1c1.5-0.3,2.3-0.2,2.6,1.1l5,21.6
		c0.3,1.3-0.4,1.8-2,2.1C352.6,530.1,352.3,529.9,350.9,529.2z"/>
</g>
<g class="st2">
	<path class="st3" d="M364.3,524.5c0.4,1.3-0.3,1.8-1.7,2.3c-1.4,0.5-2.3,0.4-2.7-0.8l-6.9-21c-0.4-1.3,0.3-1.8,1.7-2.3
		c1.4-0.5,2.3-0.4,2.7,0.8L364.3,524.5z"/>
</g>
<g class="st2">
	<path class="st3" d="M392.9,513.6l-26.9-8.2l7,16.3c0.5,1.2-0.1,1.8-1.5,2.4c-1.4,0.6-2.2,0.6-2.7-0.6l-8.7-20.4
		c-0.5-1.2,0.1-1.8,1.4-2.4c1.4-0.6,2.2-0.5,3.5-0.1l26.6,8.3l-7-16.3c-0.5-1.2,0.1-1.8,1.5-2.4c1.4-0.6,2.3-0.6,2.8,0.6l8.7,20.4
		c0.5,1.2-0.1,1.8-1.6,2.4C394.8,514.1,394.4,514,392.9,513.6z"/>
</g>
<path class="st0" d="M429.8,441.8l-45.4-65.3c21.3-22.2,35.4-51.3,38.4-83.6l22.4-11.5l-21.9-11.3l-0.3,0
	c-2.3-33.8-16.6-64.3-38.7-87.3l45.4-65.3l-67.6,46.5c-19.4-13.2-42.2-21.7-66.8-23.7l-11-21.5l-11.1,21.4
	c-25.5,1.9-49.1,10.6-69,24.3l-68.2-46.9l45.9,66.1c-21.6,22.9-35.7,53.1-37.9,86.4l-22.4,11.5l21.9,11.3l0.9-0.2
	c3,32,16.8,60.8,37.6,82.9l-45.9,66.1l68.2-46.9c20.1,13.9,44,22.6,69.8,24.4l10.4,20.4l10.6-20.5c24.7-2,47.6-10.5,67-23.8
	L429.8,441.8L429.8,441.8z M162.3,273.5c1.5-28.9,13.1-55.1,31.3-75.2l23.6,0.6l-0.8-20.2c17.4-11.6,37.8-18.8,59.9-20.1l8.1,45.2
	l8.4-45.1c20.8,1.6,40.2,8.4,56.8,19.1l-0.9,21.1l24.9-0.6c18.2,20.1,29.9,46.4,31.3,75.2l-44.5,8l44.2,8.2
	c-2.2,27.5-13.6,52.4-31.1,71.6l-24.9-0.6l0.9,21.1c-16.6,10.7-35.9,17.6-56.7,19.1l-8.3-46l-8.5,46.1c-22-1.4-42.4-8.6-59.7-20.1
	l0.8-20.2l-23.6,0.6c-17.5-19.3-28.9-44.2-31.1-71.7l43.9-7.9L162.3,273.5L162.3,273.5z"/>
</svg>
