<svg viewBox="0 0 566.93 566.93" xmlns="http://www.w3.org/2000/svg"><text fill="#fff" font-family="AdventPro-SemiBold, Advent Pro" font-size="50.73" font-weight="700" transform="matrix(.51 .86 -.86 .51 68.86 -223.11)">M</text><text fill="#fff" font-family="AdventPro-SemiBold, Advent Pro" font-size="50.73" font-weight="700" transform="matrix(.61 .79 -.79 .61 88.72 -190.76)">E</text><text fill="#fff" font-family="AdventPro-SemiBold, Advent Pro" font-size="50.73" font-weight="700" transform="matrix(.69804045 .71605832 -.71605832 .69804045 104.71 -170.22)">R</text><text fill="#fff" font-family="AdventPro-SemiBold, Advent Pro" font-size="50.73" font-weight="700" transform="matrix(.77 .64 -.64 .77 126.55 -148.26)">C</text><text fill="#fff" font-family="AdventPro-SemiBold, Advent Pro" font-size="50.73" font-weight="700" transform="matrix(.83 .56 -.56 .83 145.12 -132.99)">E</text><text fill="#fff" font-family="AdventPro-SemiBold, Advent Pro" font-size="50.73" font-weight="700" transform="matrix(.89 .46 -.46 .89 166.76 -118.2)">N</text><text fill="#fff" font-family="AdventPro-SemiBold, Advent Pro" font-size="50.73" font-weight="700" transform="matrix(.94 .35 -.35 .94 196.6 -103.05)">A</text><text fill="#fff" font-family="AdventPro-SemiBold, Advent Pro" font-size="50.73" font-weight="700" transform="matrix(.97054853 .24090567 -.24090567 .97054853 224.05 -92.84)">R</text><text fill="#fff" font-family="AdventPro-SemiBold, Advent Pro" font-size="50.73" font-weight="700" transform="matrix(.99 .13 -.13 .99 253 -85.75)">Y</text><text fill="#fff" transform="matrix(.9991944 .04013179 -.04013179 .9991944 282.75 -82.27)"/><text fill="#fff" font-family="AdventPro-SemiBold, Advent Pro" font-size="50.73" font-weight="700" transform="matrix(.99790434 -.06470648 .06470648 .99790434 299.15 -81.18)">M</text><text fill="#fff" font-family="AdventPro-SemiBold, Advent Pro" font-size="50.73" font-weight="700" transform="matrix(.98023666 -.19782843 .19782843 .98023666 337.21 -84.1)">Y</text><text fill="#fff" font-family="AdventPro-SemiBold, Advent Pro" font-size="50.73" font-weight="700" transform="matrix(.94969913 -.31316381 .31316381 .94969913 367.22 -90.3)">R</text><text fill="#fff" font-family="AdventPro-SemiBold, Advent Pro" font-size="50.73" font-weight="700" transform="matrix(.9000147 -.43585953 .43585953 .9000147 397.18 -100.16)">M</text><text fill="#fff" font-family="AdventPro-SemiBold, Advent Pro" font-size="50.73" font-weight="700" transform="matrix(.84887944 -.5285865 .5285865 .84887944 430.66 -117.1)">I</text><text fill="#fff" font-family="AdventPro-SemiBold, Advent Pro" font-size="50.73" font-weight="700" transform="matrix(.79547348 -.6059884 .6059884 .79547348 445.29 -125.93)">D</text><text fill="#fff" font-family="AdventPro-SemiBold, Advent Pro" font-size="50.73" font-weight="700" transform="matrix(.72 -.7 .7 .72 470.55 -145.43)">O</text><text fill="#fff" font-family="AdventPro-SemiBold, Advent Pro" font-size="50.73" font-weight="700" transform="matrix(.62046364 -.78423521 .78423521 .62046364 492.52 -166.88)">N</text><path d="m284.45 14.18c148.74 0 269.29 120.56 269.29 269.29s-120.55 269.28-269.29 269.28-269.29-120.56-269.29-269.28 120.57-269.29 269.29-269.29z" fill="#dfab00"/><g fill="#fff"><path d="m121.18 484.4-3.52-3.14 4.47-10.57a5 5 0 0 1 -.94-.7l-5.86-5.23-7.16 8-3.45-3.07 23.65-26.49 9.08 8.1c2.42 2.16 3.52 4.62 3.29 7.36a13.55 13.55 0 0 1 -3.72 7.9q-4.16 4.65-7.3 5.52a9.63 9.63 0 0 1 -3.4.3zm-2.88-23 5.11 4.56c1.44 1.28 2.79 1.79 4.07 1.53a7 7 0 0 0 3.22-1.49 28.51 28.51 0 0 0 2.73-2.67q2.63-3 2.43-5.2a6.74 6.74 0 0 0 -2.54-4.35l-4.58-4.09z"/><path d="m158.47 479.74-9.42 13.26q-3 4.17-6.9 4.34a11.9 11.9 0 0 1 -7.5-2.36 12.12 12.12 0 0 1 -4.75-6.32c-.79-2.54-.2-5.19 1.77-8l9.45-13.33c2-2.84 4.32-4.44 6.91-4.8s5.26.43 8 2.37 4.3 4.21 4.71 6.82a10.69 10.69 0 0 1 -2.27 8.02zm-12.77 10 8.42-11.88a7.88 7.88 0 0 0 1.79-4.94c-.09-1.48-1-2.84-2.79-4.1s-3.35-1.68-4.77-1.29a7.78 7.78 0 0 0 -4 3.31l-8.48 12a5.89 5.89 0 0 0 -1.25 4.52 6 6 0 0 0 2.67 3.82 6.11 6.11 0 0 0 4.55 1.27 6 6 0 0 0 3.86-2.67z"/><path d="m169.78 515.55-3.65-2 .08-1.1a9.6 9.6 0 0 1 -5.58-1.32 11.58 11.58 0 0 1 -5.44-5.85q-1.53-3.72.88-8.13l7.62-14q3.1-5.7 8.27-6a11.09 11.09 0 0 1 5.37 1.49 15.77 15.77 0 0 1 5.53 4.92l-3.1 2.82a14.22 14.22 0 0 0 -3.86-3.21c-3.59-2-6.24-1.38-7.94 1.74l-7.89 14.48q-2.58 4.71 2.73 7.61a6.16 6.16 0 0 0 4.17.77 4.91 4.91 0 0 0 3.32-2.75l.63-1.16-2.67-1.46.8-4.65 8 4.38z"/><path d="m197.87 515.8 9.21-23 4.29 1.72-9.71 24.25a10.68 10.68 0 0 1 -2.6 4 7.28 7.28 0 0 1 -3.49 1.88 11.65 11.65 0 0 1 -3.71.21 14.09 14.09 0 0 1 -3.73-.94 14.4 14.4 0 0 1 -3.36-1.89 11.93 11.93 0 0 1 -2.57-2.73 7.25 7.25 0 0 1 -1.23-3.77 10.91 10.91 0 0 1 .86-4.68l9.71-24.25 4.28 1.71-9.21 23q-2.48 6.18 3.16 8.42t8.1-3.93z"/><path d="m223.88 535-16.23-4.5 9.48-34.22 16.33 4.53-1.22 4.4-11.88-3.21-2.67 9.63 7.63 2.11-2.51 3.93-6.31-1.74-3.29 11.88 11.79 3.19z"/><path d="m275.37 542.24-4.6-.4 1.89-21.63-9 21-3.84-.34-5.08-22.19-1.89 21.58-4.6-.4 3.1-35.38 4.6.41 6.61 26.85 11.28-25.28 4.6.4z"/><path d="m300.75 542.35-1.53-3.35q3.52-.83 3.3-5.59l-.19-4.35a10.79 10.79 0 0 1 -6.21 2 12.05 12.05 0 0 1 -8.57-2.5 10.32 10.32 0 0 1 -3.53-7.87l-.62-13.83 4.61-.21.62 13.68a6.19 6.19 0 0 0 2 4.78 7 7 0 0 0 4.87 1.41 9.57 9.57 0 0 0 4.52-1.09 4.44 4.44 0 0 0 2-2.3l-.73-17.13 4.61-.21 1.25 27.57q.35 7.93-6.4 8.99z"/><path d="m338.63 536.64-4.66.77-5.43-10.1a4.88 4.88 0 0 1 -1.13.29l-7.76 1.29 1.76 10.61-4.55.75-5.82-35 12-2q4.81-.8 7.8 2a13.49 13.49 0 0 1 3.82 7.85q1 6.15-.28 9.14a9.59 9.59 0 0 1 -1.89 2.84zm-19.71-12.16 6.76-1.12c1.9-.31 3.15-1.05 3.74-2.21a7.06 7.06 0 0 0 .87-3.44 28.37 28.37 0 0 0 -.37-3.8c-.43-2.6-1.28-4.32-2.53-5.15a6.7 6.7 0 0 0 -5-.74l-6.06 1z"/><path d="m373.9 526.55-4.41 1.36-6.41-20.74-.37 22.83-3.71 1.15-13.08-18.63 6.4 20.69-4.41 1.37-10.49-33.93 4.41-1.36 16.26 22.37.91-27.66 4.41-1.36z"/><path d="m390 519.66-4.29 1.84-12.32-28.5-3 1.17-1.73-4 7.22-3.11z"/><path d="m408.33 510.51-9.25 5.07-17.08-31.2 8.36-4.57q5-2.76 9.19-1.45a11.59 11.59 0 0 1 6.66 5.9l6.68 12.19q4.89 8.9-4.56 14.06zm.76-11.4-7.16-13.11a6.13 6.13 0 0 0 -3.92-3.41 7.09 7.09 0 0 0 -5 .95l-4.76 2.6 12.86 23.5 4.49-2.46q3.39-1.84 4.08-3.8a5.12 5.12 0 0 0 -.59-4.27z"/><path d="m428.45 466.87 9.48 13.24q3 4.17 1.84 7.94a11.84 11.84 0 0 1 -4.68 6.32 12.06 12.06 0 0 1 -7.53 2.42q-4-.1-7-4.28l-9.51-13.28c-2-2.83-2.78-5.54-2.27-8.11s2.13-4.82 4.85-6.77 5.38-2.69 8-2.23a10.74 10.74 0 0 1 6.82 4.75zm5.31 15.35-8.47-11.84a8 8 0 0 0 -4.09-3.31c-1.43-.4-3 0-4.78 1.3s-2.69 2.62-2.79 4.08a7.88 7.88 0 0 0 1.81 4.92l8.56 11.92a5.93 5.93 0 0 0 3.87 2.66 6 6 0 0 0 4.48-1.28 6.11 6.11 0 0 0 2.68-3.88 5.91 5.91 0 0 0 -1.27-4.57z"/><path d="m469.59 464.48-3.42 3.17-29.29-8.54 17.8 19.2-3.39 3.14-24.14-26 3.39-3.14 29.22 8.46-17.76-19.16 3.42-3.17z"/><path d="m95.1 176.33-3.53 5.61-35.7-22.46 7.32-11.63q3.36-5.35 8.43-5.76a16.52 16.52 0 0 1 10.26 2.91q13.68 8.6 7.35 18.64l-4.07 6.48zm-15.3-9.63 3-4.79a8.68 8.68 0 0 0 1.31-3.34 6.14 6.14 0 0 0 -.11-2.57 5.74 5.74 0 0 0 -1.39-2.15 11.77 11.77 0 0 0 -1.79-1.63c-.48-.32-1.16-.77-2-1.32-.17-.11-.29-.18-.35-.23-2.62-1.64-4.69-2.24-6.22-1.77s-3 1.78-4.34 4l-2.91 4.5z"/><path d="m121.56 139.54-12.56 15.54-32.8-26.55 12.66-15.63 5.14 4.17-8.49 10.48 8.28 6.72 5.2-6.42 3.74 5.44-4 5 9.74 7.89 8.42-10.4z"/><path d="m145.12 116.66-4.92 4.62-11-5.81-6.42 6 8 8.56-4.78 4.56-28.85-30.76 10.42-9.77q4.26-4 9.28-3a16.86 16.86 0 0 1 9.15 5.34c1.34 1.43 2.38 2.61 3.1 3.53a17.5 17.5 0 0 1 2.19 4.14 11.57 11.57 0 0 1 .8 5.61zm-26.64.21 4.43-4.16a6.5 6.5 0 0 0 1.82-2.69 5.61 5.61 0 0 0 .29-2.47 7.49 7.49 0 0 0 -1-2.46 15.19 15.19 0 0 0 -1.42-2.09c-.4-.45-1-1.06-1.67-1.82-2.12-2.26-4-3.32-5.57-3.21s-3.34 1.08-5.25 2.86l-3.56 3.34z"/><path d="m140.75 106.36 5.24-4.91a6.41 6.41 0 0 0 4.22 2.26 7.22 7.22 0 0 0 4.94-1.47c2-1.4 3.17-2.89 3.49-4.46a4.89 4.89 0 0 0 -.63-3.94 7.57 7.57 0 0 0 -3.29-2.77 9.09 9.09 0 0 0 -4-.67 29.44 29.44 0 0 0 -4.39.61c-1.51.32-3 .63-4.62.92a27.79 27.79 0 0 1 -4.53.45 9.25 9.25 0 0 1 -4.28-1 10.06 10.06 0 0 1 -3.68-3.31 9.48 9.48 0 0 1 -1.31-8q1.11-4.56 6.49-8.33a20.37 20.37 0 0 1 8.24-3.57l.33 1.1.82 2.74c.32 1.1.56 1.93.72 2.51a22.63 22.63 0 0 0 -6.19 2.71 8.5 8.5 0 0 0 -3.45 3.89 3.23 3.23 0 0 0 .37 3c.06.1.13.2.2.3.7.78 1.9 1.13 3.59 1a38.6 38.6 0 0 0 5.7-.83 57 57 0 0 1 6.51-1 14.83 14.83 0 0 1 6.74 1 12.91 12.91 0 0 1 7.87 13.87q-.92 4.89-6.88 9.08-5.38 3.76-10.45 3.08a10.92 10.92 0 0 1 -7.77-4.26z"/><path d="m193.7 86.61-17.79 9.14-19.28-37.51 17.89-9.24 3 5.9-12 6.17 4.88 9.48 7.34-3.77 1.26 6.52-5.68 2.92 5.73 11.14 11.89-6.11z"/><path d="m212.58 64.66-9.44-26.76 6.26-2.21 10.32 29.31a12.89 12.89 0 0 1 .79 5.59 8.68 8.68 0 0 1 -1.64 4.41 14.07 14.07 0 0 1 -3.16 3.1 16.32 16.32 0 0 1 -4.06 2.07 16.6 16.6 0 0 1 -4.49.94 14.18 14.18 0 0 1 -4.43-.41 8.75 8.75 0 0 1 -4-2.41 12.87 12.87 0 0 1 -2.9-4.86l-10.36-29.3 6.25-2.2 9.44 26.76q1.36 3.86 3.14 5.18c1.19.89 2.89.93 5.13.14s3.59-1.91 4-3.34.06-3.43-.85-6.01z"/><path d="m226.23 63.54 6.77-2.36a6.39 6.39 0 0 0 3 3.82 7.16 7.16 0 0 0 5.1.67c2.4-.46 4.07-1.35 5-2.65a4.9 4.9 0 0 0 1-3.86 7.59 7.59 0 0 0 -1.88-3.87 9.07 9.07 0 0 0 -3.41-2.29 29.43 29.43 0 0 0 -4.26-1.23q-2.28-.48-4.59-1.05a26.17 26.17 0 0 1 -4.33-1.43 9.26 9.26 0 0 1 -3.49-2.67 9.93 9.93 0 0 1 -2-4.52 9.44 9.44 0 0 1 2.07-7.86q2.87-3.7 9.32-5a20.33 20.33 0 0 1 9 .1l-.15 1.14c-.1.75-.23 1.7-.37 2.83s-.27 2-.36 2.59a22.76 22.76 0 0 0 -6.76-.05 8.53 8.53 0 0 0 -4.74 2.15 3.28 3.28 0 0 0 -.91 2.93c0 .12 0 .24.07.36.32 1 1.27 1.8 2.86 2.39a40 40 0 0 0 5.55 1.57 58.28 58.28 0 0 1 6.28 1.75 15.08 15.08 0 0 1 5.76 3.61 12.21 12.21 0 0 1 3.35 6.51 11.91 11.91 0 0 1 -1.81 9.37q-2.84 4.11-10 5.49c-4.29.83-7.9.35-10.8-1.44a11 11 0 0 1 -5.27-7z"/><path d="m336.08 73.17-6.52-1.17 6.37-35-12.45-2.26-6.37 35-6.52-1.19 7.56-41.55 25.49 4.64z"/><path d="m362.4 81.58-19-6.24 13.16-40.07 19.12 6.28-2.07 6.3-12.82-4.21-3.33 10.13 7.84 2.58-3.75 5.42-6.06-2-3.91 11.9 12.7 4.18z"/><path d="m373.8 86.61-6-2.89 18.34-38 12.37 6q5.7 2.76 6.67 7.74a16.57 16.57 0 0 1 -1.67 10.54q-7 14.53-17.71 9.38l-6.89-3.38zm7.86-16.28 5.1 2.46a8.45 8.45 0 0 0 3.46.94 6.26 6.26 0 0 0 2.6-.38 5.84 5.84 0 0 0 2-1.62 12.66 12.66 0 0 0 1.42-2c.27-.52.63-1.24 1.08-2.19l.19-.37c1.34-2.79 1.7-4.91 1.07-6.38s-2.1-2.76-4.42-3.87l-4.88-2.36z"/><path d="m412.24 108.94-16.08-10.94 24.28-11.45.34-23 21.3 14.52-5.49 4.43-9.51-6.5-.08 14.79-18.1 8.51 5.23 3.56a6.15 6.15 0 0 0 3 1.31 5.23 5.23 0 0 0 2.94-1.32l2.95 5.73a8.67 8.67 0 0 1 -5.29 2.31 9.59 9.59 0 0 1 -5.49-1.95z"/><path d="m438.53 131.14-14.84-13.41 28.31-31.29 14.93 13.49-4.44 4.92-10-9-7.15 7.91 6.12 5.54-5.63 3.44-4.73-4.28-8.41 9.29 9.93 9z"/><path d="m459 156.85 2.6-4.82a5.35 5.35 0 0 0 3.22 1.58q1.79.19 4.26-1.82l2.63-2.12a15.13 15.13 0 0 1 -8.68-14 12.51 12.51 0 0 1 5.06-9l13.44-10.88 4.17 5.16-13 10.49q-5.62 4.56-1.12 10.12.47.57.9 1a9.84 9.84 0 0 0 .87.78c.27.21.53.4.77.57a4.46 4.46 0 0 0 .77.43c.27.11.49.2.65.28a2.8 2.8 0 0 0 .61.17l.53.08h.5.26l16.72-13.53 4.17 5.15-25.48 20.62q-3.7 3-7.05 3.06c-2.2.2-4.47-.96-6.8-3.32zm13.09-40-2.77-3.42 6.81-1.94a3.05 3.05 0 0 1 2.65.41 3.42 3.42 0 0 1 .91.74 1.66 1.66 0 0 1 .38.85 2.5 2.5 0 0 1 -.5 2.26 1.31 1.31 0 0 1 -.24.28 4 4 0 0 1 -2.43.72z"/><path d="m477.55 184.9-9.45-17 26.84.66 10.6-20.36 12.53 22.54-6.9 1.48-5.59-10.05-6.68 13.15-20-.53 3.08 5.53a6.19 6.19 0 0 0 2.13 2.54 5.26 5.26 0 0 0 3.22.14l.06 6.44a8.67 8.67 0 0 1 -5.76-.31 9.62 9.62 0 0 1 -4.08-4.23z"/><path d="m284.46 72.55c116.48 0 210.91 94.43 210.91 210.92s-94.43 210.91-210.91 210.91-210.92-94.38-210.92-210.91 94.46-210.92 210.92-210.92z"/></g><path d="m484.78 283.61c-.07 110.49-89.89 200.21-200.4 200.18s-200.32-89.9-200.25-200.33c.08-110.7 89.87-200.46 200.55-200.32 110.49.11 200.17 89.96 200.1 200.47zm-200.34-196.89c-107.88-.13-195.87 87.53-196.75 195.09-.9 109.19 87.81 198.34 196.31 198.4 109.27.05 197.13-88 197.16-197.56.07-107.75-88.49-195.93-196.72-195.93z" fill="#dfab00"/><path d="m90.65 283.44c0-106.44 86.91-193.81 192.74-193.78 108.13 0 195 86.56 194.85 194.26-.15 106.92-87.63 194.25-195.48 193.34-105.98-.89-192.09-87.34-192.11-193.82zm193.8 190.29c105.29-.24 190.41-85.55 190.27-190.71-.13-104.66-85.82-190.02-190.56-189.82s-190.16 85.8-189.97 190.41c.2 104.91 85.71 190.39 190.26 190.12z" fill="#dfab00"/><path d="m273.43 455.74c.2-4.06.36-8.14.63-12.2.1-1.52-.16-2.21-1.94-2.33a140.05 140.05 0 0 1 -29.71-5.21c-1.77-.52-2.27 0-2.78 1.57-1.88 5.86-1.94 5.85 4.08 7.39a158.22 158.22 0 0 0 19.39 3.71c1.73.22 2 .7 1.71 2.32-1 5.43-1.88 10.88-2.7 16.34-.25 1.6-.87 2-2.46 1.8a171 171 0 0 1 -48.21-13.41c-1.44-.65-1.78-1.22-1.09-2.8 3.26-7.44 6.3-15 9.57-22.43.72-1.64.5-2.32-1.11-3a142.2 142.2 0 0 1 -26.11-15.08c-1.31-1-1.94-.82-3 .46-4 5-4 4.93 1.31 8.52a155.6 155.6 0 0 0 16.7 10c1.56.79 1.89 1.45.94 3-2.79 4.65-5.49 9.36-8.05 14.14-.88 1.64-1.66 1.63-3.15.86a170.69 170.69 0 0 1 -40.31-28.76c-1.52-1.47-1.36-2.19 0-3.61 5.56-5.82 10.94-11.81 16.49-17.63 1.13-1.19 1.17-1.74 0-2.9a143.12 143.12 0 0 1 -19.42-23.12c-1-1.52-1.71-1.54-3.17-.61-5.2 3.28-5.25 3.23-1.59 8.28a169.64 169.64 0 0 0 12.49 15.32c.91 1 1.4 1.58 0 2.7-4.43 3.62-8.76 7.36-13.06 11.13-1 .93-1.62.82-2.56-.19a168.48 168.48 0 0 1 -28.56-41.51c-.88-1.8-.16-2.27 1.24-3 7-3.49 13.81-7.06 20.75-10.49 2-1 2.8-1.73 1.57-4.19a132.58 132.58 0 0 1 -9.93-27.22c-.42-1.65-.74-2.38-2.84-1.88-6 1.43-6 1.27-4.31 7.23a165.34 165.34 0 0 0 6.48 18.62c.61 1.46.47 2.14-1.1 2.7-5.28 1.88-10.55 3.83-15.77 5.88-1.49.59-1.94.12-2.5-1.2a171.21 171.21 0 0 1 -12.55-48.14c-.23-2 .41-2.66 2.35-2.88 8-.91 16-2 24-2.9 1.74-.19 2-.75 1.79-2.35a149.41 149.41 0 0 1 0-30.2c.17-1.68-.23-2.17-1.84-2.4-6.08-.83-6.1-.89-6.69 5.23a151.73 151.73 0 0 0 -.32 19.19c.07 2.06-.24 2.9-2.59 2.82-5.33-.16-10.67 0-16 .08-1.43 0-2-.28-2.07-1.86a166.32 166.32 0 0 1 4.81-50.18c.46-1.84 1.37-1.71 2.73-1.39 7.64 1.77 15.32 3.4 22.92 5.33 2.17.55 3 .3 3.56-2a137.11 137.11 0 0 1 10-27.5c1-1.95.49-2.56-1.21-3.39-5.33-2.61-5.28-2.66-7.73 2.9a164.67 164.67 0 0 0 -7 18.44c-.47 1.54-1.09 1.9-2.59 1.34-5.17-1.92-10.35-3.82-15.59-5.56-1.63-.54-1.84-1.22-1.37-2.73a169.54 169.54 0 0 1 21.4-44.94c1-1.52 1.77-1.76 3.39-.68 6.76 4.52 13.65 8.86 20.45 13.32 1.1.71 1.69 1 2.62-.39a148.19 148.19 0 0 1 19.77-23.58c1-.92 1.09-1.47.17-2.58-4.33-5.2-4.28-5.24-8.89-.44a181.82 181.82 0 0 0 -12.91 15c-.91 1.17-1.43 1.37-2.63.34-4.35-3.71-8.78-7.33-13.24-10.91-.94-.76-1.11-1.24-.33-2.27a167.33 167.33 0 0 1 36.36-35.76c1.48-1.07 1.92-.26 2.67.73 4.89 6.51 9.88 12.95 14.71 19.5 1.07 1.45 1.74 1.53 3.15.49a139.86 139.86 0 0 1 26.11-15.08c1.48-.66 1.71-1.28 1.07-2.81-2.43-5.84-2.36-5.86-8.06-3.11a159.06 159.06 0 0 0 -17 9.48c-1.45.93-2.14 1-3.07-.69-2.72-4.91-5.62-9.72-8.55-14.51-.68-1.11-.53-1.6.5-2.27a167.9 167.9 0 0 1 46.59-21.19c1.68-.47 1.66.5 2 1.56 2.41 7.86 4.92 15.69 7.25 23.57.48 1.6 1 1.89 2.57 1.43a145.34 145.34 0 0 1 30-5.27c1.59-.1 1.88-.68 1.88-2.11 0-6.59.06-6.65-6.51-5.88a157.81 157.81 0 0 0 -19.2 3.17c-1.77.43-2.39 0-2.68-1.77-.88-5.25-1.9-10.48-2.9-15.72-.32-1.61-.26-2.46 1.83-2.93a172.41 172.41 0 0 1 49.41-3.9c2 .13 2.38.81 2.27 2.64-.49 7.93-.82 15.88-1.27 23.82-.1 1.68 0 2.55 2.17 2.7a137.22 137.22 0 0 1 29.13 5.1c1.82.53 2.61.33 3.2-1.72 1.65-5.67 1.77-5.59-3.87-7.06a168.48 168.48 0 0 0 -19.66-3.82c-1.57-.21-2.11-.44-1.76-2.25 1.06-5.41 1.89-10.88 2.72-16.33.23-1.52.74-2.08 2.4-1.87a171 171 0 0 1 48.48 13.51c1.51.68 1.45 1.33.89 2.64-3.22 7.46-6.27 15-9.55 22.43-.81 1.83-.39 2.46 1.29 3.21a141.31 141.31 0 0 1 25.86 14.94c1.24.91 1.91 1 3-.36 4-5 4.05-5-1.23-8.56a146.94 146.94 0 0 0 -16.45-9.82c-2.05-1-2.08-1.85-1-3.66 2.76-4.55 5.35-9.21 7.9-13.88.73-1.33 1.36-1.51 2.7-.82a169.29 169.29 0 0 1 41 29.26c1.31 1.28.89 1.91-.11 3-5.58 5.93-11 12-16.68 17.85-1.31 1.37-1.08 1.93.13 3.11a144.72 144.72 0 0 1 19.22 22.91c1 1.42 1.6 1.71 3.15.74 5.28-3.32 5.33-3.27 1.7-8.27a152.19 152.19 0 0 0 -12.3-15.09c-1.26-1.33-1.51-2 .1-3.33 4.23-3.4 8.35-6.95 12.39-10.58 1.4-1.26 2.05-.91 3.19.31a172.36 172.36 0 0 1 28 40.54c1 2.09.55 2.86-1.41 3.82-7.12 3.5-14.12 7.23-21.21 10.78-1.4.7-1.76 1.24-1 2.77a144.47 144.47 0 0 1 10.41 28.59c.32 1.29.67 1.85 2.34 1.49 6.42-1.39 6.41-1.29 4.63-7.52a153.67 153.67 0 0 0 -6.4-18.34c-.74-1.75-.29-2.28 1.29-2.85 5.19-1.85 10.36-3.8 15.5-5.8 1.35-.52 1.93-.32 2.53 1.1a171.44 171.44 0 0 1 12.6 48.44c.22 2-.52 2.46-2.27 2.66-8 .93-16 2-24 2.93-1.53.17-2.12.42-1.93 2.23a144.57 144.57 0 0 1 .06 30.21c-.19 1.81.27 2.32 2 2.53 5.93.71 5.94.78 6.5-5.13a161.16 161.16 0 0 0 .33-19.78c0-1.71.28-2.38 2.17-2.34 5.43.1 10.87 0 16.3-.1 1.6 0 2.11.38 2.2 2.05a166.37 166.37 0 0 1 -4.79 49.89c-.5 2-1.5 1.8-2.94 1.46-7.72-1.81-15.47-3.53-23.18-5.42-1.78-.43-2.57-.17-3 1.71a141.34 141.34 0 0 1 -10.3 28.32c-.79 1.62-.26 2.11 1 2.79 5.6 3 5.55 3 8.13-2.86a163.8 163.8 0 0 0 6.91-18.16c.5-1.61 1-2.12 2.76-1.45q7.73 3 15.58 5.57c1.52.51 1.72 1.18 1.3 2.54a169.6 169.6 0 0 1 -21.7 45.43c-1 1.46-1.69 1.29-2.95.45-6.79-4.48-13.66-8.84-20.44-13.35-1.4-.93-2-.91-3.05.59a143.51 143.51 0 0 1 -19.39 23.14c-1.21 1.16-1.15 1.8-.09 3 4.21 4.74 4.18 4.79 8.48.34a158.2 158.2 0 0 0 12.74-14.74c1-1.37 1.71-1.88 3.28-.51 4.15 3.64 8.45 7.12 12.77 10.55 1.22 1 1.12 1.59.28 2.71a167.15 167.15 0 0 1 -36 35.33c-1.21.88-1.79.85-2.73-.41-4.9-6.62-10-13.1-14.87-19.74-1.11-1.52-1.77-1.42-3.12-.43a137.47 137.47 0 0 1 -25.84 15c-1.8.8-1.95 1.51-1.21 3.21 2.4 5.53 2.34 5.57 7.71 3a165.6 165.6 0 0 0 17.22-9.62c1.48-1 2.15-.93 3.06.72 2.57 4.66 5.24 9.28 8.13 13.75 1.15 1.8.78 2.49-.84 3.53a169.07 169.07 0 0 1 -40.6 19.09c-6.67 2.09-6.67 2-8.74-4.72-1.92-6.29-3.94-12.55-5.74-18.88-.48-1.68-1.07-1.8-2.59-1.37a147.49 147.49 0 0 1 -30 5.27c-1.33.09-1.81.43-1.86 1.85-.22 6.59 0 6.88 6.56 6.11a165.9 165.9 0 0 0 18.93-3.09c1.74-.41 2.6-.26 2.93 1.75.86 5.26 1.87 10.49 2.91 15.71.33 1.72.07 2.45-1.92 2.9a171.26 171.26 0 0 1 -49.4 3.88c-1.72-.11-2.37-.56-2.22-2.39.33-4.05.47-8.13.69-12.19zm15.84-339c.17-3.77.09-7.59.6-11.32.4-2.92-.8-3.31-3.22-3.37a167.12 167.12 0 0 0 -31.28 2.3c-6.36 1.06-6.28 1.11-5.19 7.5.34 2 1.07 2.4 3.06 2a152.91 152.91 0 0 1 23.95-2.75c1.63-.07 2.13.37 2.16 2 .09 4.94.22 9.89.63 14.82.21 2.47-.33 3.36-3 3.45a141 141 0 0 0 -39 7c-1.76.57-2.07-.16-2.48-1.55-2.29-7.7-4.74-15.35-7-23.05-.58-2-1.19-2.53-3.34-1.8a167.38 167.38 0 0 0 -29.11 13c-5.81 3.3-5.73 3.25-2.42 9 1 1.72 1.69 1.77 3.28.81a165.81 165.81 0 0 1 21.78-10.9c1.53-.64 2.13-.46 2.73 1.09 1.89 4.86 3.85 9.71 5.95 14.49.8 1.81.57 2.52-1.37 3.32a144.5 144.5 0 0 0 -34.77 20.22c-1.43 1.12-1.92.8-2.84-.44-4.85-6.54-9.83-13-14.64-19.55-1.19-1.63-1.94-1.74-3.54-.46a163.38 163.38 0 0 0 -23 22.19c-4.3 5.09-4.23 5 .7 9.25 1.68 1.45 2.33 1 3.53-.48a178.18 178.18 0 0 1 16.6-17.5c1.1-1 1.72-1.31 2.89 0 3.55 4.1 7.24 8.08 11 12 1.12 1.19 1 1.8-.18 2.91a143 143 0 0 0 -26 31.12c-1.05 1.7-1.73 1.35-3.05.48-6.79-4.5-13.65-8.87-20.43-13.37-1.54-1-2.23-.87-3.24.77a163.8 163.8 0 0 0 -14.13 28.9c-2.3 6.21-2.27 6.13 3.94 8.4 1.8.65 2.45.36 3.06-1.45a167.46 167.46 0 0 1 9.65-22.37c.76-1.5 1.44-1.64 2.83-.88 4.67 2.54 9.36 5.07 14.14 7.41 1.74.85 1.65 1.66.89 3.09a146.29 146.29 0 0 0 -13.73 37.79c-.41 1.87-1 2.05-2.68 1.65-7.81-1.86-15.68-3.51-23.46-5.48-2.27-.57-2.77.16-3.17 2.13a165.74 165.74 0 0 0 -3.37 32.44c0 5.95 0 5.78 6 5.93 2.74.07 3.15-.91 3.08-3.32a147.64 147.64 0 0 1 1.38-23.2c.14-1.07-.1-2.42 1.86-2.13q8.48 1.26 17 2.3c1.37.16 1.47.76 1.3 1.92a142.85 142.85 0 0 0 0 41.14c.19 1.32-.06 1.84-1.54 2-8.09.9-16.16 2-24.26 2.87-2.38.25-2.78 1.16-2.44 3.28a167.71 167.71 0 0 0 7.67 30.66c2.26 6.25 2.23 6.18 8.4 3.94 1.78-.65 2.09-1.28 1.41-3.09a171.33 171.33 0 0 1 -6.94-23.33c-.39-1.73 0-2.16 1.55-2.48 5.21-1.07 10.43-2.13 15.6-3.4 1.73-.43 2.24-.16 2.63 1.63a147.76 147.76 0 0 0 13.92 38c.79 1.5.57 2-.92 2.78-7.37 3.66-14.63 7.53-22 11.18-1.61.8-1.85 1.39-1 3a165.89 165.89 0 0 0 17.8 26.5c4.5 5.46 4.42 5.42 9.65 1 1.4-1.19 1.32-1.82.19-3.11a183.78 183.78 0 0 1 -14.42-19.33c-1.16-1.75-.85-2.47.83-3.48 4.49-2.68 8.88-5.52 13.27-8.38 1.18-.77 1.83-.93 2.72.48a146.41 146.41 0 0 0 26.49 31.49c1.1 1 1 1.49 0 2.49-5.6 5.91-11 12-16.72 17.81-1.71 1.76-1.32 2.55.27 4a165.74 165.74 0 0 0 25.59 18.61c5.69 3.39 5.59 3.34 9-2.35 1.13-1.9.54-2.5-1.1-3.41a171.62 171.62 0 0 1 -20.09-13.3c-1.28-1-1.5-1.61-.43-2.94q5-6.22 9.76-12.66c1.11-1.52 1.85-1.33 3.19-.3a147.17 147.17 0 0 0 34.87 20.06c1.63.65 1.9 1.2 1.15 2.88-3.25 7.34-6.25 14.8-9.49 22.14-.85 1.93-.66 2.71 1.43 3.53a166.05 166.05 0 0 0 30.94 8.81c6.2 1.11 6 1.13 7.24-4.82.51-2.51-.19-3.09-2.47-3.43a151.94 151.94 0 0 1 -23.12-5.54c-1.19-.37-2.07-.56-1.46-2.29 1.82-5.2 3.49-10.46 5.07-15.74.45-1.53 1-1.72 2.44-1.26a151.55 151.55 0 0 0 39.94 7.07c1.79.07 2.22.55 2.11 2.34-.52 8-.78 16.08-1.33 24.1-.14 2.08.44 2.63 2.42 2.69a158.74 158.74 0 0 0 32.43-2.34c5.94-1 5.86-1.13 4.85-7.21-.33-2-.92-2.64-3.15-2.18a151.35 151.35 0 0 1 -23.65 2.73c-1.67.08-2.38-.17-2.39-2.1 0-4.85-.15-9.71-.62-14.53-.28-2.86.63-3.6 3.34-3.69a140.7 140.7 0 0 0 38.2-6.86c2.1-.67 2.51-.1 3 1.77 2.2 7.62 4.7 15.15 6.89 22.77.63 2.19 1.49 2.29 3.42 1.65a161.74 161.74 0 0 0 29.11-13c5.67-3.23 5.59-3.2 2.4-8.8-1-1.75-1.71-2-3.45-.9a165.66 165.66 0 0 1 -21.45 10.8c-1.58.67-2.27.57-2.93-1.16-1.82-4.79-3.76-9.55-5.86-14.22-.89-2-.59-2.7 1.44-3.53a142.9 142.9 0 0 0 34.53-20.09c1.48-1.16 2-1 3.05.44 4.83 6.56 9.81 13 14.65 19.54 1.08 1.46 1.74 1.73 3.32.47a161.82 161.82 0 0 0 23-22.17c4.49-5.31 4.44-5.25-.92-9.64-1.39-1.13-2-.78-2.92.41a176.69 176.69 0 0 1 -17 17.93c-1 .93-1.57 1.26-2.67 0-3.62-4.17-7.36-8.24-11.15-12.26-1.05-1.11-1-1.68.14-2.69a145.37 145.37 0 0 0 26.23-31.33c.94-1.5 1.54-1.31 2.82-.46 6.86 4.55 13.81 9 20.68 13.5 1.44 1 2.09.88 3.05-.67a166.07 166.07 0 0 0 14.26-29.16c2.26-6 2.2-5.94-3.82-8.23-1.95-.73-2.62-.45-3.26 1.48a166.45 166.45 0 0 1 -9.4 21.85c-.87 1.74-1.6 2.13-3.39 1.12q-6.71-3.76-13.62-7.15c-1.75-.85-1.92-1.61-1-3.25a143.74 143.74 0 0 0 13.59-37.23c.44-2 .92-2.64 3.14-2.08 7.69 1.94 15.47 3.53 23.17 5.44 2 .5 2.7.1 3.1-1.89a170.59 170.59 0 0 0 3.38-32.34c.05-6.23 0-6.13-6.3-6.14-2.13 0-2.81.51-2.74 2.73a151.5 151.5 0 0 1 -1.42 23.78c-.14 1.1.05 2.39-1.89 2.09-5.65-.85-11.32-1.59-17-2.3-1.13-.15-1.49-.55-1.32-1.65a142.1 142.1 0 0 0 0-41.44c-.2-1.37.15-1.81 1.58-2 8.09-.91 16.16-2 24.25-2.88 2.08-.23 2.82-.79 2.46-3a169.93 169.93 0 0 0 -7.78-30.94c-2.24-6.18-2.2-6.11-8.42-3.91-1.8.63-2.07 1.23-1.38 3a170.5 170.5 0 0 1 6.86 23.05c.42 1.89.12 2.51-1.72 2.87-5.22 1-10.43 2.14-15.59 3.42-1.8.44-2-.22-2.36-1.7a149.56 149.56 0 0 0 -13.93-38c-.77-1.45-.67-2 .87-2.79 7.2-3.56 14.31-7.31 21.5-10.9 1.85-.92 2.43-1.64 1.25-3.78a171.36 171.36 0 0 0 -17.67-26.14c-4.32-5.24-4.24-5.21-9.46-.78-1.39 1.18-1.39 1.8-.23 3.13a171 171 0 0 1 14.56 19.55c1 1.52.83 2.14-.71 3.06-4.49 2.69-8.89 5.52-13.26 8.39-1.37.9-2.09 1.1-3.13-.56a145.27 145.27 0 0 0 -26.12-31c-1.3-1.16-1.16-1.71 0-2.88 5.68-6 11.2-12.1 16.91-18 1.33-1.39 1.05-2-.2-3.14a164.13 164.13 0 0 0 -26-19c-5.72-3.4-5.62-3.36-9 2.32-1.11 1.87-.57 2.5 1.06 3.42a169.55 169.55 0 0 1 20.09 13.3c1.26 1 1.56 1.57.47 2.93-3.34 4.15-6.61 8.37-9.76 12.66-1.1 1.49-1.83 1.38-3.19.33a146.29 146.29 0 0 0 -34.87-20.06c-1.58-.64-2-1.13-1.19-2.87 3.23-7.25 6.16-14.63 9.36-21.88.92-2.08.91-3-1.52-3.9a169 169 0 0 0 -30.94-8.78c-5.94-1.07-5.69-1.08-7 4.82-.65 2.91.62 3.15 2.73 3.49a160.86 160.86 0 0 1 22.76 5.45c1.11.35 2.16.45 1.52 2.26-1.86 5.29-3.53 10.65-5.16 16-.38 1.24-.83 1.53-2 1.14a152.24 152.24 0 0 0 -40.8-7.22c-1.56-.07-1.65-.72-1.56-2 .25-4.12.41-8.28.68-12.45z" fill="#dfab00"/><path d="m284.37 433c-82.32 0-149.48-67.29-149.4-149.58s67.31-149.57 149.57-149.42c82.49.12 149.68 67.5 149.42 149.87s-67.38 149.13-149.59 149.13zm146-149.43c.09-80.1-65.33-145.8-145.34-146-80.53-.2-146.38 65.17-146.48 145.43-.11 80.44 65.22 146.33 145.19 146.41 80.95.05 146.55-65.2 146.63-145.88z" fill="#dfab00"/><path d="m274.21 346.9a1.45 1.45 0 0 0 -1.23-.81 1.5 1.5 0 0 0 -1.08.38c-2.95 2.69-5.82 5-8.59 7.12-1.44 56.54-2.9 102.23-2.9 102.23l19.13 40.27s5.8-7.67 21.15-41.55c-2.09-4.6-3.23-39.66-3.81-84.75-16.05-11.1-21.39-20.27-22.67-22.89z" fill="#d94336" stroke="#1d1d1b" stroke-miterlimit="10" stroke-width="2"/><path d="m296.8 148.49c0-4.23.05-6.56.05-6.56l-.32-1 5.76.16s9.9 6.23 17.9 9c9.9 0 12.3-10.07 10.86-12.94-8.15 6.71-13.42 3.83-13.42 3.83s-14.48-13.48-20.14-16.78a49 49 0 0 0 -5.91-2.24l-1.58-71.07h-.69a15.34 15.34 0 1 0 -18.12 0l-2.25 72.11a63.86 63.86 0 0 1 -6.61 1.5c-1.07 0-3.5 2.22-4.48 3.19-3.38 3.36-10.07 10.58-14.49 12.36-2 .82-6.64.41-8.73-.21-1.74-.52-6.18-3.84-6.18-3.84-1.15.58-.57 4 0 5.12 1.21 2.44 4.29 7.48 6.82 8.52 2.26.94 7.5.43 9.8-.42 3.71-1.39 9.85-6.94 13.64-8.1 1.34-.41 3.41 0 5.54.85.42 1 .77 3.57 1 7.48a212.75 212.75 0 0 1 31.55-.96z" fill="#d94336" stroke="#1d1d1b" stroke-miterlimit="10" stroke-width="2"/><path d="m365.58 397.17-25.73-81.6a1.46 1.46 0 0 0 -1.79-1c-4.18 1.14-17.18 3.57-27.14-6.95a1.48 1.48 0 0 1 .22-2.24c8.82-6.09 17.25-12.34 18.92-13.58a1.33 1.33 0 0 1 .67-.27l5.25-.73a1.4 1.4 0 0 0 .34-.08c.74-.31 4.55-1.45 6.73 6.55 2.41 8.9 4.19 19.67 4.19 19.67l1.08 7.77a1.7 1.7 0 0 0 0 .22c.34 1.11 3.47 10.81 11 11.76a1.48 1.48 0 0 0 1.68-1.69c-2.37-13.45-14.22-59.75-17.21-71.37a1.47 1.47 0 0 0 -2.5-.64c-4.92 5.28-19.89 19.91-44.91 32.21.06 25.66.21 51.44.5 74.57 13.46 9.3 34.44 20 66.88 29.24a1.48 1.48 0 0 0 1.82-1.84z"/><path d="m214.72 314.33a1.47 1.47 0 0 0 -1.42 1.77l5.39 25.23a1.43 1.43 0 0 1 -.12.95l-8.52 17.59a1.48 1.48 0 0 0 .48 1.85c4.47 3.09 23.64 13.6 52.78-8.13.38-14.88.75-30.51 1.1-46.25a197.85 197.85 0 0 1 -49.69 6.99z"/><path d="m264.41 307.34c-.35 15.74-.72 31.37-1.1 46.25 2.77-2.07 5.64-4.43 8.59-7.12a1.5 1.5 0 0 1 1.08-.38 1.45 1.45 0 0 1 1.23.81c1.28 2.62 6.62 11.79 22.67 22.89-.29-23.13-.44-48.91-.5-74.57a182.27 182.27 0 0 1 -31.97 12.12z"/><path d="m296.37 291.8c30.24-16.19 46.76-37.07 46.76-37.07-12.08-24-30.05-34.92-46.69-39.57-.08 23.17-.12 49.78-.07 76.64z"/><path d="m241.8 220.15c-45.54 27.27-36.34 81-35.19 89.42a153.24 153.24 0 0 0 57.86-4.85c.71-32.27 1.29-64.88 1.51-92.38a56.46 56.46 0 0 0 -24.18 7.81z"/><path d="m296.44 215.16a89.78 89.78 0 0 0 -28.77-3c-.57 0-1.12.1-1.69.15-.22 27.5-.8 60.11-1.51 92.38a158.68 158.68 0 0 0 31.9-12.92c-.05-26.83-.01-53.44.07-76.61z"/><path d="m315.26 221 5.34-13.05a162.53 162.53 0 0 0 -24.11-6.7v10.88a74.16 74.16 0 0 1 18.77 8.87z"/><path d="m240.71 205.64c-52.9 26.33-43.86 86.42-43.86 86.42l5.48-.56c-2.22-17.55 6.72-59.27 43.43-76.6a66.23 66.23 0 0 1 20.24-5.9c0-3.34 0-6.6.06-9.77-13.39 1.05-21.83 4.66-25.35 6.41z"/><path d="m296.45 212.1c0-3.73 0-7.36 0-10.88a113 113 0 0 0 -30.42-2c0 3.17 0 6.43-.06 9.77a71.67 71.67 0 0 1 30.48 3.11z"/><path d="m319 204.81s9.29-29.1 36-45.29c-8-2.32-28.57-9.65-58.21-11-.07 8.91-.19 26.31-.29 48.48a100.31 100.31 0 0 1 22.5 7.81z"/><path d="m265.28 149.41c-2.38.24-4.79.52-7.25.85-27.61 3.78-86.2 23.6-79.72 131.06.86 6.25.56 53.8-5.43 60 2.92-.41 16.53-14.54 21.37-68.14 2.12-23.56 9.26-64.77 59.2-75.14 4.12-.86 8.31-1.62 12.63-2.16.05-20.8-.17-37.31-.8-46.47z"/><path d="m296.51 197c.1-22.17.22-39.57.29-48.48a212.75 212.75 0 0 0 -31.52.92c.63 9.16.85 25.67.8 46.46a89.36 89.36 0 0 1 30.43 1.1z"/></svg>