<svg enable-background="new 0 0 113.4 113.4" viewBox="0 0 113.4 113.4" xmlns="http://www.w3.org/2000/svg"><circle cx="56.7" cy="56.7" fill="#fff" r="56.7"/><circle cx="56.7" cy="55.1" fill="#fff" r="53.8"/><path d="m1.1 58c0-27.1 17.9-49.6 42.9-55.5 1.7-.4 2.6-.1 3 1.1.5 1.3 0 2.5-1.5 3.1-1.8.8-3.7 1.4-5.5 2.2-14.4 6.5-23.2 17.6-25.6 33.2-3.5 22.6 11.7 43.9 34.1 48.3 23.6 4.6 46.2-10.9 50.5-34.4 3.8-21.1-8.6-41.9-29.1-48.5-.7-.2-1.3-.5-2-.8-1.4-.7-1.9-1.8-1.4-3.1.4-1.1 1.3-1.5 2.9-1.1 3 .7 6 1.6 8.9 2.9 18 8 29.3 21.6 33.1 40.9 5.8 29.4-13.2 57.9-42.6 64.5-29.8 6.7-59.7-12.4-66.1-42.2-1.1-4-1.5-8-1.6-10.6z" fill="#050302"/><path d="m92 48.4c.1 19.5-16 35.4-35.6 35.3-19.3-.1-35.3-16.1-35.1-35.8.2-19.3 16.2-35.2 35.8-35 19.3.2 34.9 16 34.9 35.5zm-9.5-2.8c-.2 0-.3 0-.5 0-.2-.2-.3-.4-.5-.6-1.8-1.8-4.7-2.1-6.8-.6-2.1 1.6-2.7 4.4-1.4 6.7 1.8 3.2 6.4 3.6 8.8.4.2 0 .3 0 .5.1-1.4 5-4.8 7.8-9.8 8.9v5c6.6-.2 15.2-6.3 15.3-16.7.2-9.8-8.2-17.9-17.8-17.3-10.3.5-17.5 9-16.4 19.2 1.1 9.5 9.6 14.8 15.1 14.7 0-1.7 0-3.3 0-5-.3-.1-.5-.1-.7-.2-6.7-1.6-10.7-8.2-8.9-14.8 1.4-5.2 6-8.8 11.4-8.8 5.6 0 10.1 3.4 11.7 9z" fill="#050302"/><path d="m82.1 51.5c-2.4 3.3-7 2.8-8.8-.4-1.3-2.3-.7-5.1 1.4-6.7 2-1.5 5-1.3 6.8.6.2.2.4.4.5.6.1.3.3.6.4.9s.2.5.3.8c.2-.3.2-.5.1-.8s-.2-.6-.3-1c-1.6-5.5-6.1-9-11.7-9-5.4 0-10 3.6-11.4 8.8-1.8 6.6 2.2 13.2 8.9 14.8.2.1.4.1.7.2v5c-5.5.1-14-5.2-15.1-14.7-1.2-10.2 6.1-18.7 16.3-19.3 9.6-.5 18 7.6 17.8 17.3-.2 10.4-8.7 16.5-15.3 16.7 0-1.7 0-3.3 0-5 5-1.1 8.3-3.9 9.8-8.9.1-.3.2-.6.3-.9s.2-.5-.1-.8c0 .3-.1.5-.1.7-.2.4-.4.8-.5 1.1z" fill="#fdfdfd"/><path d="m82.4 46.5c-.1-.3-.3-.6-.4-.9h.5c.1.3.2.6.3 1-.1-.1-.2-.1-.4-.1z" fill="#4d4543"/><path d="m82.1 51.5c.2-.3.3-.7.5-1 .1 0 .1.1.2.1-.1.3-.2.6-.3.9-.1 0-.3 0-.4 0z" fill="#4f4745"/><path d="m82.4 46.5h.3c.1.3.1.5-.1.8 0-.3-.1-.6-.2-.8z" fill="#948c8b"/><path d="m82.6 50.5c0-.2 0-.4.1-.7.3.3.2.6.1.8-.1 0-.1-.1-.2-.1z" fill="#97908f"/></svg>