<svg enable-background="new 0 0 113.4 113.4" viewBox="0 0 113.4 113.4" xmlns="http://www.w3.org/2000/svg"><circle cx="56.7" cy="56.7" fill="#fff" r="56.7"/><circle cx="56.7" cy="55.1" fill="#fff" r="53.8"/><path d="m112.3 55.4c0 27.2-18.3 50-43.5 55.4-30 6.5-59.1-11.8-66.1-41.6-7-29.6 11.2-59.5 41.3-66.7 1.7-.4 2.6-.1 3 1.1.5 1.3-.1 2.5-1.5 3.1-1.8.8-3.7 1.4-5.5 2.2-14.4 6.5-23.2 17.6-25.6 33.2-3.6 22.9 12.1 44.5 34.8 48.5 23.3 4.1 45.6-11.3 49.9-34.6 3.8-21.1-8.6-41.9-29.1-48.5-.7-.2-1.3-.5-2-.8-1.4-.7-1.9-1.8-1.4-3.1.4-1.1 1.3-1.5 2.9-1.1 3.5.8 7 1.9 10.3 3.5 17.5 8.4 28.1 22 31.9 41 .3 3.2.5 6.5.6 8.4z" fill="#050302"/><path d="m96.6 50.1c.3 17.9-12.2 35.3-32 39.5-21.1 4.4-42.3-9.4-46.9-30.5-4.7-21.4 8.2-42.2 29.4-47.6.2 0 .4-.1.6-.1.9-.1 1.8-.2 2.1.9s-.3 1.7-1.3 2.1c-1.7.7-3.4 1.2-5 2-10.2 5.1-16.1 13.3-17.5 24.5-2 15.9 9.4 31.1 25.2 33.8 16.7 2.9 32.9-8 35.9-25.1 2.7-14.9-6.3-29.9-20.8-34.6-.6-.2-1.2-.5-1.8-.7-.8-.4-1.2-1.1-1-2s .9-1.1 1.8-1c2.5.4 5 1.3 7.3 2.3 13.1 6.1 21 16.3 23.5 30.5.5 2.1.6 4.2.5 6z" fill="#060403"/><path d="m62.1 18.9c4.9.9 9.1 3 12.9 6.2 5.8 5 9.1 11.4 9.6 19 1.2 16.8-11.6 29.3-26 30.2-17.1 1.1-30.7-13-29.8-29.4.4-7.6 3.5-14 9-19.2 3.8-3.6 8.3-5.9 13.4-6.8 1 1 .9 1.7-.1 2.3-.8.4-1.6.6-2.4 1-8.6 3.4-14.5 12.2-13.4 22.3 1.1 10 8.5 17.6 18.2 19.1 11.9 1.8 23-6.4 24.7-18.2 1.5-10.5-4.5-20.2-14.5-23.6-.4-.1-.8-.3-1.2-.5-1.1-.6-1.2-1.1-.4-2.4z" fill="#090604"/></svg>