<?xml version="1.0" encoding="utf-8"?>
<!-- Generator: Adobe Illustrator 24.1.1, SVG Export Plug-In . SVG Version: 6.00 Build 0)  -->
<svg version="1.1" id="Capa_1" xmlns="http://www.w3.org/2000/svg" xmlns:xlink="http://www.w3.org/1999/xlink" x="0px" y="0px"
	 viewBox="0 0 566.9 566.9" style="enable-background:new 0 0 566.9 566.9;" xml:space="preserve">
<style type="text/css">
	.st0{fill:#2D3D4F;}
	.st1{fill:#FFFFFF;}
	.st2{fill:#FFD100;}
	.st3{enable-background:new    ;}
</style>
<path class="st0" d="M283.5,562.7c-154.2,0-279.2-125-279.3-279.2C4.2,209.4,33.6,138.4,86,86C195-23,371.9-23,480.9,86
	s109,285.9,0,394.9C428.6,533.4,357.6,562.9,283.5,562.7z"/>
<path class="st1" d="M283.5,489.1c-113.5,0-205.6-92.1-205.6-205.6c0-113.5,92.1-205.6,205.6-205.6c113.5,0,205.6,92.1,205.6,205.6
	c0,54.5-21.7,106.8-60.2,145.4C390.4,467.5,338,489.2,283.5,489.1z"/>
<path class="st2" d="M283.5,562.7c-154.2,0-279.2-125-279.3-279.2C4.2,209.4,33.6,138.4,86,86C195-23,371.9-23,480.9,86
	s109,285.9,0,394.9C428.6,533.4,357.6,562.9,283.5,562.7z M283.5,13.2c-149,0-270.3,121.2-270.3,270.3s121.2,270.3,270.3,270.3
	s270.3-121.2,270.3-270.3S432.5,13.2,283.5,13.2L283.5,13.2z"/>
<path class="st2" d="M283.5,501.3c-120.3,0-217.8-97.6-217.8-217.9c0-57.8,23-113.1,63.8-154c86.3-83.9,224.2-82,308.1,4.3
	c82.2,84.6,82.2,219.2,0,303.8C396.8,478.5,341.3,501.5,283.5,501.3z M283.5,70.5c-117.4,0-212.9,95.5-212.9,212.9
	s95.5,212.9,212.9,212.9s212.9-95.5,212.9-212.9S400.9,70.5,283.5,70.5L283.5,70.5z"/>
<path class="st2" d="M144,159.4l1.1-1.3c65.1-76.7,180-86.1,256.7-21c7.2,6.1,13.8,12.7,20,19.8l1.1,1.3l-72.3,47l-0.9-0.8
	c-38.1-35-96.9-34.1-133.8,2.2l-0.9,0.9L144,159.4z"/>
<path class="st0" d="M284,95.4c52.5-0.1,102.4,22.8,136.7,62.6l-69.9,45.5c-38.7-35.6-98.4-34.6-135.9,2.2l-68.6-46.5
	C180.6,118.6,231,95.3,284,95.4 M284,92.4c-53.9,0-105.1,23.7-140,64.8l-2.2,2.6l2.8,1.9l68.6,46.5l2,1.4l1.8-1.7
	c36.3-35.7,94.3-36.6,131.8-2.1l1.7,1.6l2-1.3l69.9-45.4l2.9-1.9l-2.3-2.6C388,115.6,337.3,92.3,284,92.4L284,92.4z"/>
<path class="st2" d="M110,360.8c-22.2-49.4-21.3-106.2,2.5-154.9l0.8-1.5l120.1,79.2l-122.6,78.8L110,360.8z"/>
<path class="st0" d="M113.8,206.6l116.7,77l-119.2,76.6C89.3,311.1,90.2,254.9,113.8,206.6 M112.6,202.2l-1.5,3.1
	c-24,49.1-24.9,106.3-2.5,156.1l1.4,3.2l3-1.9l119.2-76.6l3.9-2.5l-3.8-2.5l-116.8-77L112.6,202.2L112.6,202.2z"/>
<path class="st2" d="M283,473.6c-52.9,0-103.3-23-137.9-63.1l-1.1-1.3l72.3-47l0.9,0.8c38.1,35,96.9,34,133.8-2.2l0.9-0.9l71,48.1
	l-1.1,1.3C387.2,450.1,336.5,473.6,283,473.6z"/>
<path class="st0" d="M352.1,361.9l68.6,46.5c-64.6,76-178.6,85.3-254.6,20.8c-7.1-6-13.7-12.6-19.8-19.6l69.9-45.5
	C254.9,399.6,314.6,398.7,352.1,361.9 M351.7,358l-1.7,1.7c-36.3,35.7-94.3,36.6-131.8,2.1l-1.7-1.6l-1.9,1.3L144.6,407l-2.9,1.9
	l2.3,2.6c66.3,76.8,182.2,85.3,259,19c7.2-6.2,13.9-12.9,20-20.2l2.2-2.5l-2.8-1.9l-68.6-46.5L351.7,358L351.7,358z"/>
<path class="st2" d="M333.6,283.1l122.6-78.8l0.8,1.6c22.2,49.4,21.3,106.2-2.5,154.9l-0.8,1.5L333.6,283.1z"/>
<path class="st0" d="M455.6,206.6c22,49,21.1,105.3-2.5,153.6l-116.7-77L455.6,206.6 M456.9,202.2l-2.9,1.9l-119.3,76.6l-3.9,2.5
	l3.8,2.5l116.8,77l2.8,1.9l1.5-3.1c24-49.1,24.9-106.3,2.5-156.1L456.9,202.2z"/>
<path class="st0" d="M230.8,241.2v3.3c0.1,0,0.3,0,0.4,0h4.3c1.5-0.1,2.8,0.7,3.5,2c0.8,1.6,1.2,3.4,1.1,5.1c0,5.8,0,11.6,0.1,17.4
	c0,5.6,1.1,11.2,3.2,16.4c1.1,2.7,2.7,5.2,4.6,7.3c2,2,4.3,3.6,7,4.6c4.3,1.7,8.8,3,13.3,3.7c2.5,0.5,5,0.8,7.6,1.2l0.6,0.1v0.6
	c0,4.5,0,9.1,0,13.6c0.1,2.2-0.3,4.3-1.1,6.3c-0.3,0.6-0.7,1.3-1.1,1.9c-1.1,1.6-3,2.5-4.9,2.6c-2,0.2-4.1,0.3-6.1,0.5h-0.5v2.4
	h41.5v-2.5c-1,0-2,0.1-3,0c-1.6-0.1-3.2-0.3-4.8-0.6c-1.9-0.3-3.5-1.5-4.3-3.2c-1-1.6-1.5-3.4-1.6-5.3c-0.1-5.4-0.1-10.7-0.1-16.1
	c0-0.1,0-0.1,0-0.2c1.1-0.1,2.3-0.3,3.4-0.5c6.4-0.9,12.8-2.5,18.8-4.9c4.8-2,7.9-5.6,10.2-10.1c2-4,3.2-8.4,3.6-12.9
	c0.2-2.1,0.3-4.2,0.3-6.3c0-5.4,0-10.8,0.1-16.2c0-1.7,0.3-3.4,1-4.9c0.6-1.5,2.1-2.4,3.7-2.2c1.4,0,2.8,0,4.2,0h0.3v-3.3
	c-0.6,0-1.3-0.1-2-0.1c-2.9-0.2-5.7-0.1-8.5,0.2c-2.7,0.2-5.3,1.2-7.4,2.8c-1.4,1.4-2.5,3.1-3,5c-0.9,2.7-1.5,5.6-1.8,8.4
	c-0.5,5.2-0.8,10.4-0.7,15.5c0,3.7-0.2,7.5-0.8,11.2c-0.9,6.2-4.5,10.2-10.3,12.3c-3.5,1.2-7.2,2-10.9,2.2c-0.1,0-0.2,0-0.3,0V298
	c0-14.3,0-28.5,0-42.8c0-1.6,0.1-3.1,0.3-4.7c0.6-3.3,2.3-4.9,5.6-5.4c1.1-0.2,2.2-0.3,3.2-0.4s2.2,0,3.3,0V241H264v3.6h0.9
	c2.4-0.1,4.7,0.2,7,0.8c2.3,0.6,4.1,2.5,4.4,4.9c0.2,1.6,0.4,3.2,0.3,4.8c0,14.3,0,28.6,0,42.9v0.7c-0.9-0.1-1.8-0.1-2.6-0.2
	c-3.2-0.4-6.4-1.1-9.5-2.3c-3.3-1.2-6.1-3.6-7.8-6.7c-1-2.1-1.6-4.3-1.8-6.5c-0.4-4.1-0.6-8.3-0.6-12.4c-0.1-4.1-0.3-8.2-0.6-12.3
	c-0.3-3.4-1-6.8-2.2-10.1c-1.3-3.7-4-5.6-7.7-6.5c-2-0.5-4.1-0.7-6.2-0.7c-2.2,0-4.3,0.1-6.5,0.1C231,241.1,230.9,241.1,230.8,241.2
	z"/>
<g class="st3">
	<path class="st1" d="M66.4,431.6c-2.8-4.2-3.8-8.4-2.9-12.6c0.9-4.2,3.7-7.9,8.4-11.1c4.5-3.1,8.9-4.3,13.3-3.6
		c4.4,0.6,8,3.1,10.8,7.2c0.8,1.1,1.4,2.2,1.8,3.1c0.5,1,0.9,1.9,1.2,2.9c0.2,0.8,0.5,1.6,0.6,2.6c0.2,1,0.3,1.8,0.4,2.4l-6.8,4.6
		l-0.5-0.7c0.1-0.5,0.2-1.2,0.2-2c0.1-0.8,0.1-1.7,0.1-2.6c0-0.9-0.2-1.9-0.4-2.9c-0.2-1-0.7-1.9-1.2-2.7c-0.7-1-1.5-1.8-2.4-2.5
		c-0.9-0.6-2-1-3.3-1.3c-1.2-0.2-2.6-0.1-4.1,0.3c-1.5,0.4-3.1,1.2-4.8,2.3c-1.8,1.2-3.1,2.4-4,3.7s-1.5,2.5-1.7,3.8
		c-0.2,1.2-0.2,2.4,0.1,3.5c0.3,1.1,0.7,2.1,1.3,3c0.6,0.9,1.4,1.7,2.3,2.3c0.9,0.6,1.7,1.1,2.5,1.4c0.8,0.4,1.6,0.6,2.3,0.8
		c0.7,0.2,1.4,0.4,1.9,0.5l0.4,0.6l-6.7,4.5c-0.6-0.3-1.3-0.8-2-1.2c-0.8-0.5-1.5-1-2.2-1.5c-0.9-0.7-1.6-1.4-2.3-2
		C68.1,433.9,67.3,432.9,66.4,431.6z"/>
</g>
<g class="st3">
	<path class="st1" d="M111.6,458.3c-4.1,3.7-8.3,5.6-12.7,5.5c-4.3,0-8.2-1.9-11.6-5.7c-3.4-3.8-4.9-7.8-4.5-12.2
		c0.4-4.3,2.7-8.3,6.7-12c4.1-3.7,8.3-5.6,12.6-5.5c4.3,0,8.2,1.9,11.6,5.7c3.4,3.8,4.9,7.8,4.5,12.1
		C118,450.6,115.8,454.6,111.6,458.3z M105.8,451.8c1.5-1.4,2.7-2.7,3.5-4s1.3-2.5,1.5-3.6c0.2-1.2,0.2-2.2-0.2-3.2
		c-0.3-1-0.8-1.8-1.5-2.5c-0.7-0.8-1.5-1.4-2.3-1.7c-0.8-0.4-1.9-0.5-3.1-0.5c-1.1,0.1-2.4,0.5-3.8,1.1c-1.4,0.7-2.8,1.7-4.3,3.1
		c-1.6,1.4-2.7,2.7-3.5,4c-0.8,1.2-1.2,2.4-1.5,3.6c-0.2,1.2-0.2,2.2,0.1,3.2c0.3,1,0.8,1.8,1.5,2.5c0.7,0.7,1.5,1.3,2.4,1.7
		c1,0.4,2,0.5,3.1,0.4c1.2-0.1,2.5-0.5,3.7-1.1C102.8,454.3,104.2,453.2,105.8,451.8z"/>
</g>
<g class="st3">
	<path class="st1" d="M148.4,466.7l-30.9,19l-6.8-5.7l13.1-33.9l6.7,5.6l-9.3,22.7l20.5-13.2L148.4,466.7z"/>
</g>
<g class="st3">
	<path class="st1" d="M131.3,496.3l18.6-28.9l19.2,12.3l-3.5,5.5l-12.1-7.8l-3.3,5.1l11.1,7.2l-3.5,5.5l-11.1-7.2l-4.7,7.3L154,503
		l-3.5,5.5L131.3,496.3z"/>
</g>
<g class="st3">
	<path class="st1" d="M186,526.1l-9.3-4.4l-3.1-15.4l-2.7-1.3l-5.4,11.4l-7.6-3.6l14.7-31.1l12.3,5.8c1.7,0.8,3.1,1.6,4.3,2.4
		c1.2,0.8,2.1,1.8,2.8,3c0.8,1.2,1.2,2.5,1.3,3.9c0.1,1.4-0.2,2.9-1,4.6c-1.1,2.4-2.6,4.1-4.3,5s-3.7,1.5-5.9,1.5L186,526.1z
		 M183.9,498.7c0.4-0.8,0.5-1.5,0.5-2.2c0-0.7-0.3-1.4-0.8-2c-0.4-0.4-0.8-0.8-1.4-1.2c-0.6-0.3-1.3-0.7-2.2-1.1l-2.6-1.2l-4,8.4
		l2.2,1c1.1,0.5,2,0.9,2.8,1.1c0.8,0.2,1.6,0.2,2.3,0c0.7-0.2,1.3-0.5,1.8-0.9C183,500.2,183.5,499.6,183.9,498.7z"/>
</g>
<g class="st3">
	<path class="st1" d="M197.2,529.6l8.6-26.5l-9.5-3.1l2-6.2l27,8.8l-2,6.2l-9.5-3.1l-8.6,26.5L197.2,529.6z"/>
</g>
<g class="st3">
	<path class="st1" d="M267.9,526.7c-0.7,5.5-2.7,9.7-6,12.5s-7.5,3.9-12.5,3.2c-5-0.6-8.8-2.7-11.3-6.3c-2.5-3.6-3.4-8.1-2.7-13.5
		c0.7-5.5,2.7-9.6,6-12.5c3.3-2.8,7.4-3.9,12.5-3.3c5,0.6,8.8,2.7,11.3,6.3C267.7,516.7,268.6,521.2,267.9,526.7z M259.2,525.6
		c0.3-2,0.3-3.8,0-5.3c-0.2-1.5-0.6-2.7-1.2-3.7c-0.6-1-1.3-1.8-2.2-2.3c-0.9-0.5-1.8-0.8-2.7-1c-1-0.1-2-0.1-2.9,0.2
		c-0.9,0.3-1.8,0.8-2.7,1.7c-0.8,0.8-1.5,1.9-2.1,3.3c-0.6,1.4-1,3.1-1.3,5.2c-0.3,2.1-0.3,3.9-0.1,5.3c0.2,1.4,0.6,2.7,1.2,3.7
		c0.6,1,1.3,1.8,2.2,2.3c0.9,0.5,1.8,0.8,2.8,1c1,0.1,2,0,3-0.3c1-0.3,1.9-0.9,2.7-1.7c0.8-0.9,1.5-2,2.1-3.3
		C258.6,529.4,259,527.7,259.2,525.6z"/>
</g>
<g class="st3">
	<path class="st1" d="M299.4,520.1c0,1.6-0.2,3.1-0.7,4.6c-0.5,1.5-1.2,2.7-2.1,3.6c-0.6,0.6-1.2,1.2-1.9,1.7
		c-0.7,0.5-1.4,1-2.3,1.3s-1.7,0.6-2.7,0.9c-1,0.2-2.1,0.3-3.3,0.3l-4.4,0l0.1,11.3l-8.5,0.1l-0.3-34.4l13.1-0.1
		c1.9,0,3.6,0.1,5,0.5c1.4,0.3,2.7,0.9,3.9,1.7c1.3,0.8,2.3,2,3,3.4C299,516.4,299.3,518.1,299.4,520.1z M290.7,520.4
		c0-1-0.2-1.8-0.7-2.5c-0.5-0.7-1-1.2-1.6-1.4c-0.8-0.3-1.6-0.5-2.3-0.6c-0.7,0-1.7-0.1-3-0.1l-1.2,0l0.1,10.3l0.6,0
		c0.8,0,1.6,0,2.3,0c0.7,0,1.3-0.1,1.9-0.2c0.5-0.1,0.9-0.2,1.4-0.5c0.5-0.2,0.9-0.5,1.2-0.8c0.6-0.6,1-1.2,1.1-1.8
		C290.6,522.3,290.7,521.5,290.7,520.4z"/>
</g>
<g class="st3">
	<path class="st1" d="M306.7,543l-4.5-34.1l22.6-3l0.9,6.5l-14.3,1.9l0.8,6l13.1-1.7l0.9,6.5l-13.1,1.7l1.1,8.6l14.3-1.9l0.9,6.5
		L306.7,543z"/>
</g>
<g class="st3">
	<path class="st1" d="M367.7,530.3l-10,2.7l-12.3-9.8l-2.9,0.8l3.3,12.2l-8.1,2.2l-8.9-33.2l13.1-3.5c1.8-0.5,3.4-0.8,4.8-0.9
		c1.4-0.1,2.8,0,4.1,0.4c1.4,0.4,2.6,1.2,3.6,2.1c1,1,1.7,2.4,2.2,4.2c0.7,2.5,0.7,4.8,0,6.6c-0.7,1.9-1.9,3.5-3.5,5L367.7,530.3z
		 M348.4,510.8c-0.2-0.8-0.6-1.5-1-2s-1.1-0.8-1.9-1c-0.6-0.1-1.2-0.1-1.8,0c-0.6,0.1-1.4,0.3-2.4,0.5l-2.7,0.7l2.4,8.9l2.3-0.6
		c1.1-0.3,2.1-0.6,2.8-1c0.8-0.4,1.3-0.8,1.8-1.4c0.4-0.6,0.7-1.2,0.8-1.8C348.7,512.5,348.7,511.7,348.4,510.8z"/>
</g>
<g class="st3">
	<path class="st1" d="M369.4,529.6l-2.8-36.1l8.5-3.6l23.8,27.3l-8,3.4l-4.7-5.7l-9.8,4.1l0.8,7.3L369.4,529.6z M382.1,509.9
		l-7.6-9.1l1.2,11.8L382.1,509.9z"/>
</g>
<g class="st3">
	<path class="st1" d="M410,511l-14.2-23.9l-8.5,5.1l-3.3-5.6l24.3-14.5l3.3,5.6l-8.5,5.1l14.2,23.9L410,511z"/>
</g>
<g class="st3">
	<path class="st1" d="M444.1,488.9l-14.8,10.6l-3.5-4.9l4-2.8l-13-18.1l-4,2.8l-3.5-4.9l14.8-10.6l3.5,4.9l-4,2.8l13,18.1l4-2.8
		L444.1,488.9z"/>
</g>
<g class="st3">
	<path class="st1" d="M448.2,439.6l14.4,33.3l-6.6,5.9l-31.7-17.6l6.5-5.9l21.1,12.3l-10.2-22.2L448.2,439.6z"/>
</g>
<g class="st3">
	<path class="st1" d="M475,460.8l-26.1-22.4l14.9-17.2l5,4.3l-9.4,10.9l4.6,3.9l8.6-10l5,4.3l-8.6,10l6.6,5.6l9.4-10.9l5,4.3
		L475,460.8z"/>
</g>
<g class="st3">
	<path class="st1" d="M501.3,428.7c-1.4,2.1-2.9,3.9-4.4,5.2c-1.5,1.3-3.1,2.5-4.6,3.4l-6.8-4.6l0.4-0.6c2.2-0.6,4.1-1.5,5.9-2.7
		c1.8-1.2,3.2-2.7,4.3-4.2c0.3-0.4,0.6-1,0.9-1.7c0.4-0.7,0.6-1.3,0.7-1.9c0.1-0.6,0.1-1.3-0.1-1.8c-0.2-0.6-0.6-1.1-1.2-1.5
		c-0.7-0.5-1.5-0.6-2.3-0.4c-0.8,0.2-1.6,0.7-2.3,1.3c-0.9,0.8-1.8,1.6-2.8,2.5c-1,0.9-1.9,1.7-2.9,2.5c-2.2,1.6-4.3,2.5-6.3,2.5
		c-2,0-3.9-0.6-5.9-1.9c-2.7-1.8-4.1-4.4-4.2-7.7c-0.2-3.3,0.9-6.6,3.1-9.9c1.1-1.7,2.4-3.2,3.9-4.6c1.5-1.4,2.9-2.6,4.4-3.5
		l6.5,4.4l-0.4,0.6c-1.6,0.4-3.2,1.2-4.9,2.2c-1.6,1.1-3,2.4-4.1,4c-0.4,0.6-0.7,1.2-1,1.7c-0.2,0.5-0.4,1.2-0.5,1.9
		c-0.1,0.6,0,1.2,0.1,1.7c0.2,0.6,0.5,1.1,1,1.4c0.7,0.5,1.5,0.6,2.2,0.4s1.8-0.9,3.1-2.1c0.9-0.8,1.7-1.5,2.5-2.3
		c0.8-0.7,1.7-1.5,2.7-2.2c2-1.5,4-2.2,5.8-2.4c1.8-0.1,3.8,0.5,5.7,1.8c2.8,1.9,4.4,4.5,4.6,7.9C505,421.5,503.9,425,501.3,428.7z"
		/>
</g>
<g class="st3">
	<path class="st1" d="M200.4,51.7c0.6,1.5,1,3,1.1,4.5s-0.1,2.9-0.6,4.2c-0.3,0.8-0.7,1.5-1.1,2.3c-0.4,0.7-1,1.4-1.6,2.1
		c-0.6,0.7-1.4,1.3-2.2,1.9c-0.8,0.6-1.8,1.1-2.9,1.6l-4.2,1.8l4.4,10.3l-7.9,3.4l-13.6-31.6l12.3-5.3c1.8-0.8,3.5-1.3,4.9-1.5
		c1.5-0.2,2.9-0.2,4.3,0c1.5,0.3,2.9,0.9,4.1,2C198.6,48.5,199.6,49.9,200.4,51.7z M192.3,55.4c-0.4-0.9-0.9-1.6-1.6-2
		s-1.4-0.7-2.1-0.7c-0.9,0-1.7,0.1-2.4,0.4c-0.7,0.2-1.6,0.6-2.8,1.1l-1.1,0.5l4.1,9.5l0.6-0.2c0.7-0.3,1.5-0.6,2.1-0.9
		c0.7-0.3,1.2-0.6,1.7-0.9c0.4-0.3,0.8-0.6,1.2-1c0.4-0.4,0.7-0.8,0.8-1.2c0.3-0.8,0.4-1.5,0.4-2.1
		C192.9,57.2,192.7,56.4,192.3,55.4z"/>
</g>
<g class="st3">
	<path class="st1" d="M223.5,70c-2.5,0.7-4.8,1.1-6.9,1.2c-2.1,0.1-4,0-5.9-0.3l-2.2-7.9l0.8-0.2c2.1,0.9,4.2,1.5,6.4,1.7
		c2.2,0.2,4.3,0,6.1-0.5c0.5-0.1,1.1-0.4,1.8-0.7c0.7-0.3,1.3-0.7,1.7-1c0.5-0.4,0.9-0.9,1.2-1.5c0.3-0.6,0.3-1.2,0.1-2
		c-0.2-0.8-0.8-1.4-1.6-1.7c-0.8-0.3-1.7-0.5-2.7-0.5c-1.2,0-2.5,0.1-3.8,0.2c-1.4,0.1-2.6,0.1-3.9,0c-2.8-0.2-5-0.9-6.5-2.1
		c-1.5-1.2-2.6-3-3.3-5.3c-0.9-3.1-0.3-6,1.8-8.6c2.1-2.7,5.1-4.6,9-5.7c2-0.6,4-0.9,6-1.1c2.1-0.2,4-0.1,5.7,0.1l2.2,7.5l-0.7,0.2
		c-1.5-0.7-3.3-1.2-5.3-1.4c-2-0.2-3.9-0.1-5.8,0.5c-0.7,0.2-1.4,0.4-1.9,0.7c-0.5,0.3-1.1,0.6-1.6,1.1c-0.5,0.4-0.8,0.9-1,1.4
		c-0.2,0.6-0.3,1.1-0.1,1.7c0.2,0.8,0.7,1.4,1.5,1.8s2,0.4,3.9,0.4c1.2-0.1,2.3-0.1,3.4-0.2c1.1-0.1,2.3,0,3.6,0
		c2.5,0.2,4.6,0.8,6.1,1.9c1.5,1.1,2.6,2.8,3.3,5.1c0.9,3.3,0.4,6.3-1.6,9C231.1,66.7,227.9,68.7,223.5,70z"/>
</g>
<g class="st3">
	<path class="st1" d="M258,62l-18.3,3.1l-1-5.9l4.9-0.8L240,36.3l-4.9,0.8l-1-5.9l18.3-3.1l1,5.9l-4.9,0.8l3.7,22.1l4.9-0.8L258,62z
		"/>
</g>
<g class="st3">
	<path class="st1" d="M276.3,48.6l-15.3,1.1l-0.5-6.4l15.3-1.1L276.3,48.6z"/>
</g>
<g class="st3">
	<path class="st1" d="M297.2,61.4c-5.2-0.2-9.2-1.9-12.1-5.1c-2.9-3.2-4.3-7.7-4.1-13.3c0.2-5.4,1.9-9.7,5-12.8
		c3.2-3.1,7.3-4.6,12.5-4.4c1.4,0,2.6,0.2,3.7,0.4c1.1,0.2,2.1,0.4,3.1,0.8c0.8,0.3,1.6,0.6,2.5,1c0.9,0.4,1.6,0.8,2.2,1.1l-0.3,8.2
		l-0.9,0c-0.4-0.4-0.9-0.8-1.5-1.4c-0.6-0.5-1.3-1.1-2.1-1.6c-0.8-0.5-1.6-1-2.6-1.4c-0.9-0.4-1.9-0.6-3-0.6c-1.2,0-2.4,0.1-3.4,0.5
		c-1.1,0.4-2.1,1-3,1.9c-0.9,0.8-1.6,2-2.2,3.5s-0.9,3.2-1,5.3c-0.1,2.1,0.1,3.9,0.7,5.4c0.5,1.5,1.2,2.7,2.1,3.6
		c0.9,0.9,1.8,1.6,2.9,2c1.1,0.4,2.2,0.7,3.3,0.7c1.1,0,2.2-0.1,3.3-0.4c1-0.3,1.9-0.7,2.7-1.2c0.8-0.4,1.5-0.9,2.1-1.4
		c0.6-0.5,1.1-0.9,1.6-1.3l0.8,0l-0.3,8.1c-0.6,0.3-1.4,0.6-2.2,0.9c-0.8,0.3-1.7,0.6-2.6,0.9c-1.1,0.3-2.1,0.5-3,0.6
		C300.1,61.4,298.8,61.4,297.2,61.4z"/>
</g>
<g class="st3">
	<path class="st1" d="M346.5,50.4c-1,5.4-3.2,9.5-6.7,12c-3.5,2.6-7.8,3.4-12.8,2.5c-5.1-0.9-8.8-3.2-11.1-6.9
		c-2.3-3.7-3-8.2-2-13.6c1-5.4,3.2-9.4,6.7-12c3.5-2.6,7.7-3.5,12.8-2.5c5.1,0.9,8.8,3.2,11.1,6.9C346.9,40.4,347.5,44.9,346.5,50.4
		z M337.8,48.7c0.4-2,0.5-3.8,0.3-5.2c-0.2-1.5-0.5-2.7-1-3.8c-0.6-1.1-1.3-1.9-2.1-2.4c-0.8-0.6-1.7-0.9-2.7-1.1
		c-1-0.2-2-0.2-2.9,0c-0.9,0.2-1.8,0.7-2.8,1.5c-0.9,0.7-1.6,1.8-2.3,3.2c-0.7,1.4-1.2,3.1-1.6,5.1c-0.4,2.1-0.5,3.8-0.3,5.3
		c0.2,1.4,0.5,2.7,1,3.7c0.6,1.1,1.3,1.9,2.1,2.5c0.8,0.6,1.8,0.9,2.7,1.1c1,0.2,2,0.1,3-0.1s1.9-0.8,2.8-1.6
		c0.9-0.8,1.7-1.9,2.3-3.1C336.9,52.5,337.4,50.8,337.8,48.7z"/>
</g>
<g class="st3">
	<path class="st1" d="M369.1,58.2c-0.3,1.1-0.8,2-1.5,2.9c-0.6,0.9-1.4,1.5-2.2,2c-0.5,0.3-1.1,0.5-1.6,0.7
		c-0.6,0.2-1.2,0.3-1.8,0.4s-1.3,0.1-2,0s-1.5-0.2-2.3-0.5l-3-0.9l-2.4,7.5l-5.8-1.8l7.2-23l8.9,2.8c1.3,0.4,2.4,0.9,3.3,1.4
		c0.9,0.5,1.6,1.2,2.3,2c0.7,0.8,1.1,1.8,1.3,2.9C369.6,55.7,369.5,56.9,369.1,58.2z M363.1,56.5c0.2-0.6,0.2-1.3,0.1-1.8
		c-0.2-0.6-0.4-1-0.8-1.3c-0.5-0.4-1-0.7-1.4-0.9s-1.2-0.4-2-0.7l-0.8-0.3l-2.2,6.9l0.4,0.1c0.5,0.2,1.1,0.3,1.6,0.5
		c0.5,0.1,0.9,0.2,1.3,0.3c0.3,0,0.7,0,1.1,0c0.4,0,0.7-0.1,1-0.3c0.5-0.3,0.9-0.6,1.2-0.9C362.6,57.7,362.9,57.2,363.1,56.5z"/>
</g>
<g class="st3">
	<path class="st1" d="M373.1,78.2c-1.7-0.7-3.1-1.5-4.3-2.4c-1.2-0.9-2.2-1.8-3.1-2.7l2.2-5.3l0.5,0.2c0.7,1.4,1.7,2.7,2.8,3.7
		c1.1,1.1,2.3,1.9,3.6,2.4c0.3,0.1,0.8,0.3,1.3,0.4c0.6,0.1,1,0.2,1.4,0.2c0.5,0,0.9-0.1,1.3-0.3c0.4-0.2,0.7-0.5,0.9-1
		c0.2-0.6,0.2-1.1-0.1-1.6c-0.3-0.5-0.7-1-1.3-1.4c-0.7-0.5-1.4-1-2.2-1.6c-0.8-0.5-1.5-1.1-2.1-1.7c-1.5-1.3-2.4-2.7-2.7-4
		c-0.3-1.3-0.2-2.8,0.5-4.3c0.9-2.1,2.5-3.4,4.8-4c2.3-0.6,4.8-0.3,7.4,0.8c1.3,0.6,2.6,1.2,3.8,2.1c1.2,0.8,2.2,1.7,3.1,2.6
		l-2.1,5.1l-0.5-0.2c-0.5-1.1-1.3-2.1-2.3-3.1c-1-1-2.1-1.7-3.4-2.3c-0.5-0.2-0.9-0.4-1.4-0.4c-0.4-0.1-0.9-0.1-1.4-0.1
		c-0.4,0-0.8,0.1-1.2,0.3c-0.4,0.2-0.7,0.5-0.8,0.9c-0.2,0.6-0.2,1.1,0,1.6c0.3,0.5,0.9,1.1,2,1.9c0.7,0.5,1.3,0.9,2,1.4
		c0.6,0.4,1.3,1,2,1.6c1.3,1.2,2.2,2.4,2.5,3.7c0.4,1.3,0.2,2.7-0.4,4.2c-0.9,2.2-2.5,3.6-4.8,4.3S376.1,79.5,373.1,78.2z"/>
</g>
</svg>
