<svg viewBox="0 0 566.93 566.93" xmlns="http://www.w3.org/2000/svg"><circle cx="283.46" cy="283.46" fill="#1d1d1b" r="269.29" stroke="#f39200" stroke-miterlimit="10" stroke-width="6"/><g fill="#fff"><path d="m68.39 333-27.9 4-5.27-36.79 19-2.72 3.26 22.83 8.88-1.27zm-19.12-20.52-7 1 1.27 8.88 7-1z"/><path d="m63.05 288.89-4 3.68-24.32-1.05.61-14.08 19.84.85.38-9-19.84-.85.61-14.08 24.32 1 3.67 4z"/><path d="m64.9 252.09-27.45-6.39 8.43-36.19 18.71 4.36-5.22 22.46 8.73 2zm-10.36-26.09-6.87-1.6-2 8.73 6.86 1.6z"/><path d="m74.4 212.51-25.81-11.32 14.92-34 17.6 7.72-9.26 21.09 8.21 3.61zm-5.4-27.51-6.46-2.83-3.6 8.21 6.45 2.83z"/><path d="m91 175.34-23.31-15.84 20.89-30.73 4.24 2.88-13 19.07 4.24 2.88 5-7.41 5.3 3.6-5 7.42 4.24 2.88 13-19.08 5.3 3.61z"/><path d="m122.22 133.64-16.39-16.23-8.11 8.19-3.64-3.6 26.15-26.4 3.64 3.61-7.66 7.73 16.38 16.24z"/><path d="m142.93 113.11-13.84-20 1-5.35 27.39-18.96 16.02 23.2-11.59 8-2.19-3.16-7.38 5.1 2.19 3.16zm13.15-21.54-7.29-10.57-7.37 5.1 7.28 10.54z"/><path d="m176.56 90.2-11.46-25.75 33.9-15.11 2.13 4.66-21.07 9.4 6.77 15.22 21.07-9.38 2.61 5.85z"/><path d="m225 71.27-5.49-22.4-11.2 2.75-1.22-5 36.08-8.85 1.22 5-10.57 2.59 5.49 22.4z"/><path d="m251.55 42.37-.52-5.1 14-1.45.52 5.1zm2.37 22.94-1.84-17.85 14-1.44 1.84 17.84z"/><path d="m271.72 62.91.88-28.18 37.14 1.17-.16 5.1-23.05-.73-.53 16.73 23.06.72-.2 6.41z"/><path d="m312.38 64.46 5.25-23.77 4.58-2.93 32.53 7.24-6.07 27.52-13.77-3 .83-3.75-8.73-2.02-.82 3.75zm24.73-5 2.77-12.51-8.76-1.95-2.76 12.51z"/><path d="m372.65 81.41 13.56-24.72 32.58 17.87-2.47 4.49-20.22-11.05-8 14.61 20.22 11.09-3.08 5.61z"/><path d="m408.21 101.21 15.41-18.85 5.41-.55 25.79 21.08-15.4 18.85-5.41.55zm21.92 9.63 10.54-12.9-6.95-5.67-10.54 12.9z"/><path d="m440.32 126.1 22.43-17.1 8.54 11.22-3.05 22.44 22.44 3.06 8.53 11.28-22.43 17-8.53-11.22 7.13-5.43-12.56-1.71-8.54-11.21 1.72-12.54-7.14 5.43z"/><path d="m477.34 177.52 25.81-11.32 14.93 34-17.6 7.72-9.27-21.12-8.21 3.63zm23.93 14.69 6.45-2.83-3.6-8.22-6.45 2.84z"/><path d="m493.24 215 23.64-5.8 4.65 2.82 7.94 32.35-27.38 6.72-3.36-13.69 3.73-.92-2.13-8.71-3.73.92zm15.45 20 12.44-3-2.13-8.82-12.45 3.06z"/><path d="m502.46 254.62 28.15-1.3.66 14.08-8.55 9.37 9-.41.65 14.08-28.15 1.3-.66-14.08 8.55-9.37-9 .41z"/><path d="m502.47 306.68 12 1.69 13-9.81 4.44.62-1.61 11.42-8 6 6 8-1.48 11.4-4.44-.62-9.82-13-12-1.69z"/><path d="m146.47 460.68-14.28 18a1.58 1.58 0 0 1 -1.48.77 4.5 4.5 0 0 1 -1.79-1 4.29 4.29 0 0 1 -1.31-1.5 1.55 1.55 0 0 1 .42-1.61l14.27-18-9.42-7.49a1.32 1.32 0 0 1 -.66-1.2 4.56 4.56 0 0 1 2-2.54 1.3 1.3 0 0 1 1.32.36l23.06 18.31a1.33 1.33 0 0 1 .65 1.2 4.45 4.45 0 0 1 -2 2.54 1.3 1.3 0 0 1 -1.32-.36z"/><path d="m160 499.42q-10.42-5.62-6.88-12.17l9.43-17.45q.54-1 1.32-1a5.72 5.72 0 0 1 3.48 1.88 1.56 1.56 0 0 1 -.12 1.67l-9.43 17.45a2.62 2.62 0 0 0 .34 2.69 10.73 10.73 0 0 0 4 3.23l10.56 5.7a10.52 10.52 0 0 0 4.92 1.62 2.63 2.63 0 0 0 2.44-1.19l9.43-17.45q.55-1 1.32-1a4.46 4.46 0 0 1 1.93.64 4.27 4.27 0 0 1 1.56 1.25 1.57 1.57 0 0 1 -.13 1.66l-9.43 17.45q-3.54 6.56-14 .92z"/><path d="m223.21 525.39c-.36-.11-.64-.22-.86-.31a2 2 0 0 1 -.59-.4 4 4 0 0 1 -.53-.6c-.17-.24-.38-.55-.62-.93l-17.45-27.47-6.16 19.5c-.23.74-.6 1.15-1.11 1.25a4.34 4.34 0 0 1 -2-.26 4.22 4.22 0 0 1 -1.76-.93 1.56 1.56 0 0 1 -.2-1.65l7.68-24.39a1.6 1.6 0 0 1 1.06-1.24 3.76 3.76 0 0 1 1.9.21 5.18 5.18 0 0 1 1.89.95 7 7 0 0 1 1.26 1.59l17.14 27.29 6.14-19.55c.24-.74.61-1.15 1.11-1.25a4.3 4.3 0 0 1 2 .25 4.4 4.4 0 0 1 1.8.94 1.56 1.56 0 0 1 .19 1.65l-7.67 24.39c-.23.74-.6 1.15-1.11 1.24a4.66 4.66 0 0 1 -2.11-.28z"/><path d="m272.92 525.11a6.11 6.11 0 0 1 -3.66 5.25q-3.21 1.44-9 .75l-12-1.42q-11.76-1.38-10.89-8.77l1.65-14q.87-7.38 12.63-6l5.6.66c.64.08 1 .3 1.19.69a3.54 3.54 0 0 1 .11 1.64 3.49 3.49 0 0 1 -.49 1.57 1.29 1.29 0 0 1 -1.31.39l-5.45-.64a10.87 10.87 0 0 0 -5.19.3 2.6 2.6 0 0 0 -1.85 2l-1.65 14a2.64 2.64 0 0 0 1.33 2.37 10.75 10.75 0 0 0 5 1.51l11.72 1.38a10.47 10.47 0 0 0 5.17-.32 2.6 2.6 0 0 0 1.83-2l.83-7.07a1.59 1.59 0 0 1 .83-1.43 4.27 4.27 0 0 1 2-.13 4.68 4.68 0 0 1 2 .6 1.55 1.55 0 0 1 .52 1.59z"/><path d="m294.4 532q-11.82.81-12.32-6.61l-1.36-19.8a1.55 1.55 0 0 1 .58-1.56 4.29 4.29 0 0 1 1.93-.49 4.37 4.37 0 0 1 2 .22 1.57 1.57 0 0 1 .78 1.47l1.37 19.77a2.62 2.62 0 0 0 1.73 2.09 10.6 10.6 0 0 0 5.15.57l12-.82a10.69 10.69 0 0 0 5-1.26 2.62 2.62 0 0 0 1.42-2.31l-1.35-19.79a1.55 1.55 0 0 1 .58-1.56 4.35 4.35 0 0 1 2-.5 4.23 4.23 0 0 1 2 .23q.69.3.78 1.47l1.31 19.76q.51 7.43-11.3 8.23z"/><path d="m337.1 513.46q-11.48 2.91-13.3-4.31l-.38-1.52q-1.82-7.22 9.66-10.11l3.88-1a1.32 1.32 0 0 1 1.35.22 3.28 3.28 0 0 1 .69 1.5 3.45 3.45 0 0 1 .11 1.64c-.11.4-.47.68-1.09.83l-4 1c-2.27.58-3.81 1.27-4.6 2.09a2.61 2.61 0 0 0 -.88 2.51l.38 1.51a2.63 2.63 0 0 0 2 1.78c1.09.36 2.78.25 5.05-.33l9.15-2.3q11.49-2.91 13.3 4.31l.49 1.94q1.83 7.21-9.66 10.11l-19 4.8a1.32 1.32 0 0 1 -1.35-.22 3.28 3.28 0 0 1 -.69-1.5 3.45 3.45 0 0 1 -.11-1.64c.11-.4.47-.67 1.09-.83l19.12-4.83a10 10 0 0 0 4.61-2.09 2.58 2.58 0 0 0 .87-2.51l-.48-1.94a2.63 2.63 0 0 0 -2-1.77 9.83 9.83 0 0 0 -5.05.32z"/><path d="m368.06 499.19 14.66-18.94a3.8 3.8 0 0 1 .94-.89 11.53 11.53 0 0 1 1.79-.93 2.52 2.52 0 0 1 1.58-.2 1.6 1.6 0 0 1 1.14 1 2 2 0 0 1 -.42 2.2l-15.16 18.51 24.73 1.27a2 2 0 0 1 1.92 1.16 1.59 1.59 0 0 1 0 1.53 2.55 2.55 0 0 1 -1.2 1 11.46 11.46 0 0 1 -1.9.71 3.76 3.76 0 0 1 -1.29.1l-24.64-1.71 4.15 9.36a1.57 1.57 0 0 1 0 1.66 4.48 4.48 0 0 1 -1.69 1.14 4.29 4.29 0 0 1 -1.93.47c-.52 0-.93-.41-1.24-1.12l-10.37-23.36a1.53 1.53 0 0 1 0-1.66 4.3 4.3 0 0 1 1.65-1.13 4.53 4.53 0 0 1 2-.48c.51 0 .92.41 1.24 1.11z"/><path d="m407.42 464.75a4.33 4.33 0 0 1 1.77-.78 3.24 3.24 0 0 1 1.6.16l28.47 10.61a1.73 1.73 0 0 1 .75.6 1.49 1.49 0 0 1 .26.84 2.37 2.37 0 0 1 -.17.94 3.7 3.7 0 0 1 -.52.9 4 4 0 0 1 -.77.72 2.74 2.74 0 0 1 -.93.42 1.72 1.72 0 0 1 -1-.08l-7.79-3-18.29 12.62.24 8.18a1.49 1.49 0 0 1 -.26.93 2.63 2.63 0 0 1 -.7.71 3.55 3.55 0 0 1 -.92.43 3.35 3.35 0 0 1 -1 .16 2.87 2.87 0 0 1 -.95-.18 1.46 1.46 0 0 1 -.7-.56 1.8 1.8 0 0 1 -.27-.88l-.6-29.79a2.91 2.91 0 0 1 .4-1.54 4.48 4.48 0 0 1 1.38-1.41zm3.2 18.83 13.61-9.37-14-5.44z"/></g><path d="m337.4 134.56-14.29 14.3c85.89 10.14 160.79 55.77 160.79 166.73 0 127.79-99.3 135-200.44 135s-200.46-7.21-200.46-135c0-111 74.91-156.66 160.87-166.74l-14.28-14.29 41.58 6.88v-34.34l10.39-10.4a2.65 2.65 0 0 1 3.74 0l10.4 10.4v34.43" fill="#f39200" fill-rule="evenodd"/><path d="m284.06 236.51c88.57 0 175.53 26.4 175.53 108.28s-87 86.49-175.53 86.49-175.51-4.61-175.51-86.49 87-108.28 175.51-108.28z" fill="#fff" fill-rule="evenodd"/><path d="m217.77 373.24a13.3 13.3 0 1 1 -13.3 13.3 13.29 13.29 0 0 1 13.3-13.3z" fill-rule="evenodd"/><path d="m349.16 373.24a13.3 13.3 0 1 1 -13.3 13.3 13.3 13.3 0 0 1 13.3-13.3z" fill-rule="evenodd"/><path d="m208.5 345.87 39.59 22.86a5.37 5.37 0 0 0 7.33-2 5.36 5.36 0 0 0 -2-7.32l-39.59-22.86a5.38 5.38 0 0 0 -7.33 2 5.37 5.37 0 0 0 2 7.32z" fill-rule="evenodd"/><path d="m358.42 345.87-39.59 22.86a5.36 5.36 0 0 1 -7.32-2 5.37 5.37 0 0 1 2-7.32l39.59-22.86a5.38 5.38 0 0 1 7.33 2 5.37 5.37 0 0 1 -2 7.32z" fill-rule="evenodd"/><path d="m374 175.84a21 21 0 0 1 -32.84 11 5.31 5.31 0 1 1 6.32-8.53 10.6 10.6 0 0 0 3.55 1.79 10.38 10.38 0 0 0 12.73-7.1 11.14 11.14 0 0 0 .35-1.85 5.12 5.12 0 0 1 .14-.68 5.31 5.31 0 0 1 10.41 1.68 4 4 0 0 1 -.07.59v.06a21.82 21.82 0 0 1 -.61 3z" fill="#fff" fill-rule="evenodd"/><path d="m382.42 179.54a21 21 0 0 0 14.08 31.66h.06a5.31 5.31 0 0 0 3.92-9.71 5.42 5.42 0 0 0 -1.92-.72 10.56 10.56 0 0 1 -3.72-1.4 10.37 10.37 0 0 1 -3.38-14.27 9.9 9.9 0 0 1 1.13-1.51 4.39 4.39 0 0 0 .4-.56 5.31 5.31 0 0 0 -8.28-6.53 5.63 5.63 0 0 0 -.38.45 20.89 20.89 0 0 0 -1.82 2.51z" fill="#fff" fill-rule="evenodd"/><path d="m352.06 225.74a21 21 0 0 0 -14.06-31.64h-.06a5.31 5.31 0 0 0 -3.91 9.71 5.17 5.17 0 0 0 1.91.71 10.38 10.38 0 0 1 7.06 15.66 10.67 10.67 0 0 1 -1.14 1.51 5.66 5.66 0 0 0 -.4.56 5.31 5.31 0 0 0 8.28 6.53 5.34 5.34 0 0 0 .39-.44 21.25 21.25 0 0 0 1.81-2.52z" fill="#fff" fill-rule="evenodd"/><path d="m360.51 229.45a21 21 0 0 1 32.83-11h.05a5.31 5.31 0 0 1 -4.49 9.45 5.26 5.26 0 0 1 -1.83-.92 10.36 10.36 0 0 0 -16.33 5.38 10 10 0 0 0 -.35 1.85 5.15 5.15 0 0 1 -.15.68 5.31 5.31 0 0 1 -10.41-1.67 5.9 5.9 0 0 1 .06-.59v-.06a21.86 21.86 0 0 1 .62-3z" fill="#fff" fill-rule="evenodd"/></svg>