<?xml version="1.0" encoding="UTF-8"?>
<svg id="uuid-ac5eca96-c809-49b6-a6e2-d3179112c787" xmlns="http://www.w3.org/2000/svg" version="1.1" viewBox="0 0 566.9 566.9">
  <!-- Generator: Adobe Illustrator 29.0.1, SVG Export Plug-In . SVG Version: 2.1.0 Build 192)  -->
  <defs>
    <style>
      .st0 {
        fill: #0a0a0c;
      }

      .st1 {
        fill: #191211;
      }

      .st2 {
        fill: #d53831;
      }

      .st3 {
        fill: #c73a30;
      }

      .st4 {
        fill: #d73831;
      }

      .st5 {
        fill: #c63831;
      }

      .st6 {
        fill: #fff;
      }

      .st7 {
        fill: #d93932;
      }

      .st8 {
        fill: #d43831;
      }

      .st9 {
        fill: #49201d;
      }

      .st10 {
        fill: #d93732;
      }

      .st11 {
        fill: #000101;
      }

      .st12 {
        fill: #552522;
      }

      .st13 {
        fill: none;
        stroke: #1d1d1b;
        stroke-miterlimit: 10;
      }

      .st14 {
        fill: #fbfbfb;
      }

      .st15 {
        fill: #da3a32;
      }

      .st16 {
        fill: #432120;
      }

      .st17 {
        fill: #c83931;
      }

      .st18 {
        fill: #030100;
      }

      .st19 {
        isolation: isolate;
      }

      .st20 {
        fill: #d93831;
      }

      .st21 {
        fill: #fbfafb;
      }

      .st22 {
        fill: #020100;
      }

      .st23 {
        fill: #010100;
      }

      .st24 {
        fill: #0b0708;
      }

      .st25 {
        fill: #c73831;
      }

      .st26 {
        fill: #1d1d1b;
      }

      .st27 {
        fill: #d83831;
      }

      .st28 {
        fill: #050100;
      }

      .st29 {
        fill: #f9f8f9;
      }

      .st30 {
        fill: #c63931;
      }

      .st31 {
        fill: #ffe71b;
      }

      .st32 {
        fill: #d13831;
      }

      .st33 {
        fill: #f7f7f7;
      }

      .st34 {
        fill: #d63831;
      }

      .st35 {
        fill: #fdfdfd;
      }

      .st36 {
        fill: #070404;
      }

      .st37 {
        fill: #d33831;
      }
    </style>
  </defs>
  <g>
    <path class="st7" d="M120.8,509.7c-1.6-.4-2.8-1.3-3.7-2.7-.8-1-1.6-2.1-2-3.4,0-.3,0-.5,0-.8,0-.2.2-.5.3-.7.2-.1.4-.3.6-.4.2,0,.5,0,.7,0,1.2.8.7-.7,1.2-.9.4-.4.8-.7,1.3-.8,2.2,0,4,.2,2.9,3.2-.4.7-1.3-.3-1.8.5.5-.2.9-.2,1.4,0,5.2,1,10.3,2.3,12.3,8.2,0,.6-.7.8-.5,1.5.2-.4,0-.9.5-1.2.6-1,.8-2.4,2.8-2.8.7,5.2,7.4,3.2,9.3,8,4.7-3.9,5.6,3.3,9.2,2.9,1.9.9,2.9,3.2,5.1,3.5.5.3.9.7,1.2,1.1.6.8,1,1.8,1.9,2.7,3.5-1.8,6.7-.7,9.8,1.4,6.1,3.5,12.4,6.5,18.5,9.9-.3-2.7.4-3.3,3.1-2.7,3.6.8,5.1,4,7.2,6.5.4.3.9.7,1.3,1,10.3,1.2,20.3,4.2,30.7,5.3.6,0,1.2,0,1.8,0,26.1,6.6,52.4,7.2,78.9,2.8.6-.2,1.1-.2,1.7-.2,1.5.3,2.9,0,4.1-1.1,1.1-.9,2.4-1.7,3.9-2.2,1.2-.2,1.7.6,2.1,1.9,28.4-3,54.6-12.5,81.6-27.6,5.4-.1,11.2-5.7,18.4-8.5.7-1.5-1.7-2.8-.2-4.8,8,1.2,13-5.4,19.8-8.2.2-.5.5-1,.7-1.5.6-1.3.6-2.8,2-4.3,7,.4,11.1-4.6,15.2-9.5,0-.6.2-1.1.5-1.6,6.7-6.1,13.2-12.5,19.1-19.3.2-.2.4-.3.7-.5.5-.2,1-.4,1.5-.5,4.3-4.1,9.9-7.5,9.2-14.4.9-2.1,2.7-2.1,4.2-2.6.5-.2,1-.3,1.4-.4,1-.2,1.5-.9,1.8-1.8.1-.5.3-1,.5-1.5,3-6.7,7.6-12.4,11.7-18.4.2-.5.5-1,.8-1.5,3.1-5.6,6.8-10.9,7-15.1,14.5-25,22.5-50,27.5-76.1,0-.6,0-1.1.1-1.7,1.2-2.4-1.9-5.8,1.8-7.6.5-.2.7.5,1.1.5,0-.6-.9-.5-1-1-.3-2.9-.4-5.8.2-8.7,2.7-13.7,3.1-27.7,2-41.5-.9-10.5,0-21.4-4.5-31.6-2-4.4-1.4-10.1-2.2-15.2-2.8-17-9.2-32.7-15.6-48.6-6.7-16.5-16.2-31.1-25.1-46.2-1.3-2.1-2.5-4.3-3.1-6.8-.3-.5-.5-1-.9-1.4-7-6.1-12.2-13.6-17.3-21.3-.3-.5-.6-1-.9-1.4-7.4-5.6-14-12.2-20.3-19,0-.5.6-.8.5-1.4-.4.5-.8.8-1.5.7-5.3-2.5-9.4-6.7-13.8-10.4-14-11.8-30.4-19.6-46-28.9-.6,0-1.1-.2-1.7-.4-5.6-.9-10-5.2-13-5.3-13.1-6.2-24.1-10.2-37.3-12.1-9.8-4.3-21.7-5.9-33.6-7.8-17.4-2.8-34.9-3.4-52.5-1.7-2.1.2-4.1-.8-6.1-1.1-.6.1-1.1.2-1.7.3-9.8,2.9-20.1,3-30,5.6-3.2.8-6.6,1-9.5-1.4-.3-.6-.4,1.1,0,.4.3-.4.2-.1.6.3,1.8,2,.4,3-1.3,3.7-2.1.9-4.4,1.4-6.7,1.5-7.8.2-14.2,4-20.8,8.6-3.6-1-7.2.6-10.7,2.5-5.6,3.1-11.4,5.9-17.7,7.5-2.3.6-4,1.7-5.6,3.6-2.7,3.2-6.2,4.5-10.3,2.5-1.9,4.2-6.1,7-10,9.1-8.6,4.7-16.4,10.5-23.8,16.7-16.9,14.2-32,30.1-45.7,47.4-.4.5-.9.9-1.5,1.1-.6.3-1.1-1-1.8-.2.5,0,.9.2,1,.7.2,5.2-5.2,7.5-6.3,12,0,.6-.3,1.1-.6,1.5-2.5,1.5-2.1,7-7.1,4.9-.4-.3-.8-.7-1.1-1.1-.7-.7-1.6-1.2-2.2-2.1,0-.5,0-1,.3-1.4,14.4-24.7,33.2-45.8,54.9-64.3C142.2,36.7,188.8,15.2,241.3,7.4c142.9-21.3,276.2,67.3,312.1,205.3,39.8,153-53.1,306.9-207.4,342.4-78,18-151.1,3.8-218.2-40.2-1.2-.8-2.2-1.8-3.4-2.7.2-2.7-1.9-2.3-3.5-2.5h0Z"/>
    <path class="st7" d="M47,135.5c0,.5,0,1,.1,1.5.6.8,1.8.5,2.5,1.2.7,1.5,1.2,3,1.5,4.5-.6,2.1-2.2,2.5-4,2.6,1.8,3.2,1,6.3-1.4,8.4-2.9,2.5-4.3,5.6-5,9.1-1.3,6.2-5,11.4-7.5,17-1.5,3.5-3,6.9-2.2,10.3-5.1,6.1-6.7,12.8-7.5,19.9-.4,3.4-2,6.6-4.2,9.3-.5.7-1.5.1-2.1-.8,1.2,1.8,2.6,3.8,1.8,5.9-2.8,7.6-.4,16.3-4.9,23.5-.4.7.5,1.5,1,2.1,2.9,3.8-2.4,4.9-2.5,7.7-.1.5-.3,1-.4,1.6,1.6,6.6-.7,13.3,0,20,.5,5,1.2,10.3-.7,15.1.9,4.4,4.2,8.2,1.3,11.5,2.4,9.8,2.8,18.9,4.8,27.7,2.4,10.6,3.9,21.4,8.8,31.2,1.1,2.2,1.1,4.4-.2,6.5-.7.5-1.3.7-1.8-.1,0,.4.4.7.9.8,4.3,1.6,5.4,5.6,3,10.7-1.7.8-3.4,1.6-5.2.2h0c-.5-1.2.2-2.9-1.4-3.7h0c-.5-.9-.5-1.9-.4-2.9,0-.5,0-1,.1-1.4.2-.4.5-.8.9-1.1,0,0-.3,0-.4,0,0,.4,0,.6-.4.8-.2.3-.4.6-.6.9,0,0-.6,0-.6,0-7.7-19.4-12-39.7-14.3-60.2-5.1-46.1.3-91.1,17.4-134.4,6.3-16,13.5-31.6,23.5-45.8h0Z"/>
    <path class="st7" d="M23.3,383.4c1.7-.4,3.4-.9,5.1-1.3,4.6,1.5,5.7,6.4,8.9,9.2-2,8.9,4.2,14.4,8,20.8.2,4.6.2,9.2,5.9,11.1,1.2.4,1.6,2.2,2.3,3.5.2.5.5,1,.6,1.5.1.5.2,1,.1,1.5,0,.5-.2,1-.4,1.4,4,2.3,7,5.2,6.3,10.4,1.4-1.4,2.4-.5,3.4.3.4.4.9.8,1.3,1.2,1.4,1.5,2.7,3.1.9,5.7,3.1-.2,4.4,1.8,5.5,4.1.3.4.6.9.9,1.3,1.8,1.5,1.5,3.7,1.8,5.6-.2.2-.3.6-.2.9,0-.4,0-.7.2-1,0-1,0-2.1,2.1-2.8.9,3.3,6,5.3,1.6,9.9-1,.3-2.1.2-3-.4-.6-.4-1.1-.8-1.6-1.2-.4-.2-.8-.2-1.2-.2-21.3-24.1-37.6-51.2-48.5-81.5h0Z"/>
    <path class="st15" d="M115.9,503.3c.4,1.2.8,2.5,1.3,3.7-4.7-2.7-8.9-6-12.6-9.9.2-.2.3-.5.4-.7,1.6-1.3,3.5-1.3,5.4-1.2.6.1,1.1.3,1.6.6,1.8,1.8,5.7,2.3,3.8,6.3-.3.3-.4.6-.3.8.1.3.2.4.3.4h0Z"/>
    <path class="st15" d="M83.2,477.3c-2.5-1.7-4.4-3.9-6-6.5.1-.3.3-.5.4-.8,1.3-1.1,2.7-1.9,4.4-1.8,6.4,3.2,6.8,3.7,7.6,9.2-1.9,2.5-3.7.4-5.5-.1-.3,0-.6,0-.9,0h0Z"/>
    <path class="st15" d="M104.6,497.1c-3.9-2.3-7.1-5.3-10-8.8,0-.2.2-.5.3-.7,1.2-1.2,2.6-1.7,4.2-2.2.6,0,1,.3,1.4.6.8,1.9,1.6,3.8,4,4.2.5.4.8.8,1.1,1.4.6,1.9.5,3.7-.8,5.3l-.2.2h0Z"/>
    <path class="st20" d="M120.8,509.7c1.7-2.2,3.5-1.3,5.2-.5.7,2.1-.7,2.4-1.7,3-1.6-.3-2.7-1.2-3.5-2.5h0Z"/>
    <path class="st15" d="M90.7,484.7c-2.1-1.2-3.8-2.9-5.1-4.9.2-.2.3-.5.5-.7.8-.4,1.7-.2,2.5-.3.6,0,1.1.2,1.6.5,1.5,1.4,3.2,2.8,1.2,5.1-.3.1-.5.2-.8.3h0Z"/>
    <path class="st15" d="M74.6,464.6c.5,1,1.5,1.2,2.5,1.2.8,1.2.2,2.2-.5,3.2-.2.2-.5.3-.7.5-1.8-1.2-3.2-2.7-4.1-4.7l.4-.4c.8-.6,1.6-.6,2.3.1h0Z"/>
    <path class="st7" d="M21.9,379.7c.6.3,1.3.6,2.3,1.1-.3,1-.6,1.8-.9,2.6-1.2-.9-1.2-2.4-1.4-3.7h0Z"/>
    <path class="st7" d="M22.1,375.8c0,1.3-.1,2.6-.2,4-1.3-.9-1.1-2.4-1.4-3.7l.5-.4c.4-.4.8-.3,1.1.1Z"/>
    <path class="st15" d="M94.6,488.4c-1.2-.4-2.1-1.2-2.6-2.4.2-.2.3-.4.5-.6.5-.2.9-.3,1.4-.2.5.1.9.4,1.2.8.3.8.1,1.5-.3,2.1l-.2.3h0Z"/>
    <path class="st15" d="M84.4,478.5c-.4-.4-.8-.9-1.2-1.3l.4-.2c.6,0,1.1.2,1.3.8-.2.2-.3.5-.5.8Z"/>
    <path class="st15" d="M85.7,479.8c-.4-.4-.8-.8-1.2-1.3l.3-.3c1-.2,1.5.2,1.3,1.2l-.3.3Z"/>
    <path class="st15" d="M92,486c-.4-.4-.9-.8-1.3-1.2l.3-.2c.9-.1,1.3.3,1.2,1.2l-.2.2Z"/>
    <path class="st15" d="M77.2,470.8c-.4-.4-.8-.9-1.2-1.3h0c.9-.2,1.3.2,1.2,1.1v.2Z"/>
    <path class="st20" d="M14.6,250.8c-2.2-2.1-1.5-2.1-1.2-4.1.4-3.2,2.2-6,2.2-9.4,0-4.5.1-9.1,2.4-13.1.3-3.1-3-5.3-1.8-8.5,1.6.3.7,2.9,2.8,2.8,1.7-2.5.3-6.5,4.5-7.8-1.3-.8-2-1.2-2.8-1.8,4.8-5.2,2.1-13.9,8.2-18.2.3-12.8,11.3-21.9,11.6-34.6,3.3-2.2,6.6-4.4,6.4-9.2-.9-.2-1.8-.4-2.7-.6.7-3.4,3.8-1.6,5.5-2.6,1.2-1.9-.5-3.7,0-5.5.8.6,1.5,1.2,2.2,1.8,2.4-1.4,1.8-5.4,5.3-5.5h0c-.4-.9-.8-1.9-1.4-3.2,3.9-2.5,6.8-5.9,7.7-10.6,17.9-21.6,37.5-41.6,60.5-59.5,2.8.4,14.4-7.1,15.6-11.6,1.3,0,2.7.2,3.9.3,1.9-1.7-.6-5.1,2.9-5.8,1.5.3,0,1.8.6,2.4,7-.4,7.5-.7,9.7-6.1,12-.9,21.4-10.1,34.8-12.2,6.6-6.6,17.3-7,27.3-8.6.3-2.8-2.1-2-2.8-3.3,14.6,1.1,28.5-3,42.5-5.5,2.6-2.7,3.7,2,6.9.7,29.4-2.7,59,.9,89.7,10.1,3-1.9,28.7,6.5,31.2,11.6,6.6.3,11.6,4.5,17.3,6.4,8.7,2.7,15.9,8.3,23.7,12.7,8.6,4.9,17,10.3,24.5,16.9,4.2,3.7,8.7,6.9,13.1,10.4,2.3,2.9,5.1,5.3,8.3,7.2,2.5,1.5,4.6,2.9,5.4,6.1.7,2.6,3,3.9,5.7,3.8,2.7-.1,1.6,1.8,1.9,2.9h-.4s.2.3.2.3l.2-.3c6.1,7.7,11.3,16,18.8,22.5,3.3,10.2,10.7,18.1,15.7,27.3,7.1,13.1,13.9,26.2,18.2,40.5,1.4,4.6,4.4,8.8,7.2,14.3-2,11,6,22.1,5,35.7.8,1.4,2.3,4,3.8,6.7,3,25.6,1.7,51.2-1.1,76.8-1.7.2-2.5.9-1.8,2.7.7,1.7,1.1,3.4-.7,4.8,1.4,3.5.8,7.1-.5,10.2-4.3,10.6-6.4,21.9-10.2,32.7-3.7,10.6-9,20.3-13.3,30.5-.5,1.2-1.3,2.7-3.1,1.5.6,7.7-3.7,13.3-7.9,19-.7-.6-1.6-.9-1.5-2,.3-.3.4-.6.3-.9,0,.4,0,.7-.3,1-.1,1.1.8,1.5,1.5,2-.9,1.2-.4,2.3.2,3.1-6.7,3.9-8.5,11.3-12.8,17,0,.9,0,1.9-.1,3.1-1-.2-1.7-.4-2.4-.6-.6,2.6-3,1.3-4.4,2-1.2,1.9.6,3.2.3,4.6-1.7,5.4-7.4,7.5-9.7,12.4-1.2.1-1.1-.8-1.2-1.5h-1.2c-.2-.2-.4-.4-.6-.5-.6-.9-.9-2-1.2-3.1,0-.6,0-1.1,0-1.7,4.3-7.5,10.6-13.5,15.3-20.7.4-.7.9-1.3,1.2-2.1.3-.7.6-1.5.9-2.2.4-.7.9-1.3,1.5-2,.5-.6,1.1-1.3,1.7-1.9,13-19.1,22.9-39.7,30.4-61.5.1-.5.2-1.1.3-1.6-.3-2.4,1.4-4.1,2.3-6.1.3-.8.5-1.7.8-2.6,4.3-16.3,8.2-32.7,9.5-49.5,0-.7,0-1.3,0-2,0-1.7,0-3.3.2-5,0-.6.1-1.3.2-1.9,1.6-15.1,1.4-30.2-.8-46.1-8.7,6.6-14.6,15.1-22.7,21.1-2.8,1.1-5.1.2-7.2-1.6-9.3-8.4-17.3-18.1-27.1-26.5,1,8.5,2.1,16.7,3.2,24.9,0,3.8.2,7.6.1,11.4-.3,9.4-1.1,18.7-2,28.1-.6,6.1-.6,12.4-3.4,18.2-4.1,16.7-9.5,32.9-17.5,48.2-.5,1.1-1.1,2.1-1.7,3.1-1.8,2.9-2.9,6.2-5,8.9-.9,1.1-1.8,2.2-2.4,3.4-10.1,16.5-22.5,31.2-37.1,44.1-5,4.4-9.7,9-15.1,13-.7.5-1.4,1-2.1,1.5-1.9,1.6-3.7,3.4-6.1,4.4-.8.4-1.5.9-2.2,1.5-25.6,17.5-53.8,28-84.4,32.3-1.6,0-3.2.4-4.8.9-47.5,5.4-92-3.8-133.2-28.3-2.3-1.4-4.6-2.8-6.6-4.6-2.7-2.1-6.1-3.1-8.9-5-16.4-14.8-33.1-29.3-46.1-47.4-2.9-4-5.9-8-8.1-12.5-.5-1.1-.9-2.2-.9-3.4-.1-1,.8-2.6,0-2.8-4-.7-4.1-4.8-6.3-6.9-.7-.6-1.2-1.3-1.7-2.1-8.1-15.2-13.5-31.4-17.6-48-2.3-5.8-2.4-12-3.3-18-.9-8.8-1.7-17.6-2-26.5-.3-3.5-.4-7-.2-10.5,0-.6,0-1.1.1-1.7.2-1.1.4-2.2.5-3.4,1.3-7.3,1.8-14.7,3.1-22.6-9.9,8.5-17.8,18.1-27,26.3-1.9,1.7-4,2.9-6.6,2.1-6.9-4.6-11.8-11.3-17.8-16.8-2.3-2.1-4.2-4.4-6.8-6.2-.4-.2-.9-.5-1.3-.8-.9-.4-1.8-.8-2.8-.9-.2,0-.5,0-.7,0h0Z"/>
    <path class="st20" d="M484.7,464.6c-1.4,1.7.5,6.6-4.9,4.6-1.1,5.6-4.2,9.5-10.4,10.3,2.7,5.6-4.4,3.2-4.8,6.3.5.2,1.1.4,2.5.9-5.8,2.2-7.4,8.3-12.7,10.4-1.5-.4-3.1-.8-4.6-1.2-1.9,1.3.1,4.5-2.7,5,0,.8.2,2.1,0,2.2-6.1,1.2-10.4,5.9-16.3,8.4-1.5.9-2.3-2.1-4.1-1.2-.2,2,3.1,2.5,1.6,5.3-7.9.6-13.1,9.4-21.5,8.4-4.5,5.4-10.7,8.3-16.8,9.4-6.3,1.2-9.7,9-16.6,6.4-1.8,1.3,0,2.6.1,2.4-14.3,1.6-26.7,6.9-40.4,9.8-.9-.5-2.6-1.4-4.3-2.4-1.6.8,1.3,2.9-1.2,3.2-2.7.2-1-2.8-2.4-3.4-2.5,1-4.4,2.8-5.4,4.9-2.4.4-2.7-1.6-4-2.2-2.8,3.4-7,1.7-10.5,2.7-11.4,3.2-23.1.6-34.7,1.3-4.8.3-10.4-.6-15.4-1.8-3-.7-5.6-.5-8.7.4-2.8-4.2-8.2-2.4-11.9-5.2-2.9,3.1-5.1,0-7.3-1.1-1.1.8-.6,2.5-2.2,2.2-1.9,0-.4-2.3-1.1-2.5-7.9-.7-14.9-1.9-21.9-3.6-3.3-2.4-4.3-8.2-10.4-7.3,1,.8,1.7,1.4,2.4,2-5.9-1.5-12.1-2.5-16.5-7-1.6-1.3-3.2-.3-5.4.5.6-1.4.9-2.3,1.3-3.1.2-.2.4-.5.6-.7,1.1-.7,2.3-1.2,3.5-1.5.7-.2,1.3-.2,2-.2,11.4,3.4,22.3,8.1,33.8,11.2,25.5,6.8,51.4,10.3,77.8,9.5,11,0,21.8-1.4,32.6-3,36.6-5.5,70.3-18.8,101.8-38,.5-.3,1-.6,1.5-.9,1.7-1,3-2.4,4.8-3.3,1-.6,1.9-1.1,2.8-1.8,15.4-10.1,29-22.2,41.6-35.5,1.9-2,3.5-4.8,6.9-4.8l.3.4c1,1,0,2.7,1.2,3.6h0Z"/>
    <path class="st20" d="M77.2,470.6c-.4-.4-.8-.7-1.2-1.1.4-1.2.7-2.4,1.1-3.7.6-.5,1.3-.9,2.8-2-4.9-.3-2.9-3.8-3.7-5.8-2.3,0-1.3,2.6-2.9,2.8-.4-2.3-.5-4.6-2.5-6.2-1.7-2.3-2.1-6.1-8-4.6,4.4-3.4,2.3-5,.5-6.7-.6-.5-1.2-1-2-1.6-.8,1.1-1.6,2.2-2.4,3.2.8-3.8,0-7-2.2-10.7-1.3-1.3-5.4.5-5.6-3.5.7-1,1.4,0,2.1,0v-2.5c-2-4.4-7.1-5.8-9.8-9.7.4-2.2.7-4.4,1.1-6.6,0-.2,0-.5.2-.7.2-.4.6-.7,1-1,.4-.2.9-.3,1.3-.3.9-.1,1.5-1.2,2.6-.6,5,6.5,8.5,13.9,12.9,20.7.4.6.8,1.2,1.4,1.7.4.2.8.5,1.2.6.9.2,1.8,0,2.8,0,.8,0,1.5.2,2.1.9,1.2,2.2-2.4,3.2-1.3,5.4,17.7,24.3,38.6,45.2,63.5,62,.7.5,1.4.9,2.1,1.4,1.9,1,3.5,2.4,5.2,3.7.5.3.9.6,1.4.9,5.5,4.1,12.4,6,17,11.4,0,1-.3,1.8-1,2.4-.3.1-.6.2-.8.3-1.5.6-2.9,1.8-4.6.7-1.8-.9-1-2.8-1.2-4-3.2-1.3-1.3,2.9-3.8,2.4-.8-1.4-1.7-2.9-2.6-4.4-2.4-.5-4.6-.9-6.9-1.3v-3.9c-1.3,1.1-2.4,2-3.4,2.9-.6-5.5-5.6-6-9.2-7.7-1.3-.6-2.6-.9-3.3-2.3.7-.5,1.1-1.1.2-2.3-.8,0-1.7-.1-2.7-.2-.8,0-.7,1-1.2,1.2h-1.2c.3-3.6-4.1-3.5-5-6.2-2,.4-4.1.7-6.1,1.1,0-2-.1-4-.2-6.1h.4s-.2-.3-.2-.3l-.2.3h-4.9c-1.1-1.7,1.7-3.5-.1-5l.3-.2-.3-.2v.4c-1.2,1.7-3,2-4.8,2.2,0-.8-.1-1.5-.2-2.2.9-1.3.5-2.9.8-4.3.2-.5.4-.6.8-.5-.5-.2-.6.1-.8.4-.4,1.4,0,3-.8,4.4-.8,0-1.6,0-2.4-.1-.4-.4-.8-.8-1.2-1.2,1.3-2.2-.8-3.3-1.4-4.9.3-.2.5-.5.8-.8l.4-.4-.3.4c-.3.2-.6.4-.8.7-1.2,0-2.4,0-3.7-.1-.4-.4-.8-.8-1.3-1.2-.4-.4-.8-.8-1.1-1.3,1.9-2.7,3,1.6,5.2.2,0-4.4-3.8-5.9-6.9-7.8-1.5.4-3,.8-4.6,1.2h0Z"/>
    <path class="st20" d="M173.4,529.6c-2-1.8-5.2.6-6.8-2.1-1.8.3-.9,2.2-2.1,2.9-1.9-1.5-4-2.9-3.6-5.8h-3.7c-.4-1.3-.9-2.5-1.3-3.8,1.5-1.2,3.5-.8,5.1-1.7,1.8-.1,3.2.5,4.1,2,.1.5.1,1,0,1.5.3-.5.7-.8,1.1-1.1,1.7,0,3.1.6,3.9,2.2.6,2.1,2.4,1,3.7,1.3,1.7.4,3.3.8,3.7,2.8l-.4.4c-1,1-2.7,0-3.7,1.2h0Z"/>
    <path class="st20" d="M134.2,516.7c1.2-1.3,1.9-.5,2.8,0-1.6,1.5-1.9-.3-2.8,0Z"/>
    <path class="st20" d="M518.9,134.5c-1.1,1.4-1.4,1.8-1.8,2.4-1.1-1.5-.7-1.9,1.8-2.4Z"/>
    <path class="st20" d="M514.1,132.9c.4.7,0,1.1-.6,1.2-.1,0-.5-.2-.5-.3,0-.7.3-1.1,1.1-.9Z"/>
    <path class="st20" d="M464.2,79.7c.9-.7,1.3-1,2-1.4,0,1.5-.9,1-2,1.4Z"/>
    <path class="st20" d="M530.2,162.9c.2,0,.4.1.4.2,0,.2,0,.4-.2.5-.2,0-.4-.1-.4-.2,0-.2,0-.4.2-.5Z"/>
    <path class="st15" d="M117.2,502.1c0-.5.2-1.1.2-1.6.4.1.7.3,1,.4v1.2c-.4.3-.8.3-1.2,0Z"/>
    <path class="st20" d="M49.6,138.3c-1,0-2-.2-2.5-1.2,1,0,1.9.2,2.5,1.2Z"/>
    <path class="st20" d="M527.8,407.5c0-.3,0-.6,0-.9,0,.3,0,.6,0,.9Z"/>
    <path class="st20" d="M212.5,18.7c0,.1-.1.4-.2.4-.2,0-.4-.1-.5-.2,0-.1.1-.4.2-.4.2,0,.4.1.5.2Z"/>
    <path class="st20" d="M406.9,527.9c0-.2.1-.4.2-.4.2,0,.4,0,.5.2,0,.2-.1.4-.2.4-.2,0-.4,0-.5-.2Z"/>
    <polygon class="st20" points="63.4 120.7 62.9 120.5 63.1 120.2 63.4 120.7"/>
    <polygon class="st20" points="478.5 478.3 478.8 477.8 479 478 478.5 478.3"/>
    <polygon class="st20" points="478.5 478.3 478.2 478.9 478 478.6 478.5 478.3"/>
    <polygon class="st20" points="553.5 323.3 554 323.6 553.8 323.8 553.5 323.3"/>
    <path class="st20" d="M115.9,503.3c-.2-.2-.4-.4-.7-.6.2-.2.5-.4.7-.6v1.2h0Z"/>
    <path class="st20" d="M117.2,502.1h1.2c-.2.2-.4.5-.6.7-.2-.2-.4-.5-.6-.7h0Z"/>
    <polygon class="st20" points="120.9 503.3 120.4 503.1 120.6 502.8 120.9 503.3"/>
    <polygon class="st20" points="133.4 513.3 133.1 513.9 132.9 513.6 133.4 513.3"/>
    <path class="st20" d="M47.1,410.8h-1.2c-.4.5-.9.8-1.2,1.2-5.3-3.8-6.7-10.1-9.6-14.7-1-2.6.7-4,1-5-2.7-3.7-5.2-7-7.7-10.3,1.5-2.8-3.3-5.1,0-7.6-1.6-1.1-2.7-1.7-3.7-2.4,1.5-2.8,2.5-5.1-1-7.9-2.9-2.3-1.5-6.9-2.8-10.3-4.1-10.9-5.1-22.5-7.6-33.7-.9-4.2-.5-9-2.3-13.4,3.5-4.4-.5-8-1-11.5,1.7-8.9,1-17.4,0-25.9-.2-1.9,2.6-2.4,2.1-4.6,1.4-2.4-3.9-3.7-1.1-6.5.1-3.1,3.9-4.3,3.8-7.5h0c1.2-.9,2.4-.8,3.6-.1l.3.2c1.8,2.1,2,4.6,1.6,7-1.9,13.1-.7,26.3-1.1,39.5,0,1.3-.1,2.7,0,4-.1,2.1.3,4.2.8,6.2.1.6.1,1.3.2,1.9,1.5,16.8,5.4,33.1,9.6,49.4.2.9.4,1.8.5,2.6-.9,2.4,1.6,3.7,1.8,5.7.3.5.5,1,.7,1.6,4,12.5,10.1,24.1,15,36.2,0,2,0,3.9-.6,5.9h0Z"/>
    <path class="st20" d="M22.2,373.4c-1.1-.8-2.9-1.3-1.1-3.1,1.8.5.8,2,1.1,3.1Z"/>
    <polygon class="st20" points="24.6 372.1 24.1 371.8 24.3 371.5 24.6 372.1"/>
    <path class="st20" d="M22.1,374.6v-1.2c.2.2.5.4.7.6-.2.2-.5.4-.7.6h0Z"/>
    <path class="st20" d="M22.1,375.8c-.4,0-.7,0-1.1-.1.4-.4.7-.8,1.1-1.1v1.2Z"/>
    <path class="st20" d="M74.6,464.6c-.8,0-1.6,0-2.3-.1.8-1.4,1.6-1,2.3.1Z"/>
    <polygon class="st20" points="73.4 460.8 73.1 461.4 72.9 461.1 73.4 460.8"/>
    <path class="st11" d="M164.7,522.1c-1.3-.7-2.5-1.4-3.8-2.1-1.7.4-2.8-.6-3.7-1.8-5.5-4.2-12.3-6.4-17.6-11.1.6-2.1,2.6-2.3,4.2-3,.5-.2.9-.4,1.4-.5,1.2-.3,2.4-.4,3.6-.8.5-.2.9-.3,1.4-.4,1.2-.2,2.4-.4,3.5-.8.4-.2.9-.3,1.4-.5.9-.3,1.9-.5,2.8-.9.5-.2.9-.3,1.4-.5,1.2-.3,2.5-.5,3.7-1,.5-.2,1-.3,1.5-.5,2.9-.7,5.9-1.3,8.7-2.2,2.9-.7,2.8-2.7,2.3-5-.4-2.4-1.1-4.8-1.7-7.2-.2-.5-.3-1-.4-1.6-.2-1.3-.5-2.6-.9-3.9-.2-.5-.3-1-.4-1.6-.3-2.1-1-4.2-1.8-6.2-.2-.5-.4-1-.5-1.6-.3-1.3-.5-2.7-1-4-.2-.5-.4-1.1-.5-1.6,0-2.4-2.3-4.9.2-7.2,22.4,14.6,46.5,25,72.8,30.3,22.5,4.6,45.2,5,68,2.9.6-.3,1.1-.3,1.7,0,1.8,2.5,2,5.4,1.5,8.9-5.7,4.2-12.9,2.6-19.2,4.6,15.1-2.5,30.4-4.3,45.4-7.9-7.5,2.3-15,4.4-22.4,3-2.1-2.9-1.4-5.7-3-7.7-.3-.6-.2-1.1.1-1.7,28.3-4.1,54.7-13.6,79-28.8,1.9-1.2,3.9-2.4,5.8-3.6,1.1.6,1.1,1.6,1.1,2.7,0,.5-.2,1-.4,1.5-.3,1-.5,2-.6,3,0,.5-.2,1-.4,1.5-.4,1.3-.6,2.6-.9,3.9-.1.5-.3,1-.5,1.6-.8,2-1.4,4.1-1.8,6.2,0,.5-.2,1-.4,1.5-.6,1.5-.8,3-1.1,4.5-.1.5-.2,1-.4,1.5-.6,2.3-1.2,4.6-1.6,6.9-.5,2.3-.3,4.2,2.4,5,2.8.9,5.7,1.5,8.6,2.2.5.1,1,.3,1.5.5,1.2.5,2.4.7,3.7,1,.5.1,1,.3,1.4.4.9.4,1.9.6,2.8.9.5.1,1,.3,1.4.5,1.2.4,2.5.5,3.8.8.5.1,1.1.3,1.6.5,2.8,1.6,7,.6,8.8,4.3-20.6,14.2-43.4,23.9-67.2,31.2-11.4,3.5-23,6.8-35,7.7-1.9.5-3.9,1.2-5.7-.5,2.4-7.8-.8-15.6,0-23.1,3.8-4.2,8.2-2.9,12.8-1.6.1-5.6-.3-10.5-1.6-15.7-9.6,1.1-18.8,4-29.2,3.5.6,6.7.8,13.2,3.7,19.3-.3,8.3-6.2,13.2-11.2,18.7-1,.9-1.9,2-2.9,2.9-37.1,1.7-72.7-5.6-107.1-19.1-2.1-.8-4.3-1.5-6.4-2.3-1.4-.7-2.7-1.3-4.1-2-1.6.3-2.6-.6-3.6-1.5-1.3-.7-2.6-1.4-3.9-2.1-.4,0-.8,0-1.2-.4h0Z"/>
    <path class="st1" d="M282.6,104.5c98.3,0,177.2,79.4,177.1,178.1-.1,98.2-79.5,177.1-178.3,177-98.2-.1-177-79.6-176.8-178.4.2-97.8,79.6-176.7,178-176.7h0Z"/>
    <path class="st23" d="M483.2,460.6c-12.7,13.1-25.7,25.9-40.7,36.5-2.5,1.8-5.2,3.3-7.9,5-1.8.4-3.5,0-5.3-.2-.5-.1-1-.2-1.5-.4-1.2-.4-2.4-.6-3.7-.9-.5-.1-1-.2-1.5-.4-1.2-.4-2.5-.6-3.7-.9-.5-.1-1-.3-1.5-.5-2.2-.9-4.5-1.5-6.8-1.9-.5-.1-1-.3-1.5-.4-1.2-.5-2.5-.7-3.8-1-.5-.1-1-.3-1.5-.6-1-.6-2.1-1.1-2.1-2.4.3-1.3,1.1-2.2,2.2-2.9,23.5-13.3,43-31.5,61.4-51,.8-.6,1.7-1.1,2.6-1.5.7-.2,1.4-.4,2.1-.5,7.4-.3,14.8-.1,22.2-.1,2.4,0,5-.4,6.8,1.9-4,8.4-11.1,14.4-16.1,22h0Z"/>
    <path class="st23" d="M407.4,449.6c20.4-16.5,38.8-34.8,52.4-57.4,3.3.4,2.7,3.2,2.8,5.2.2,11.6.1,23.2,0,34.9,0,2.8-.8,5.3-2.6,7.5-16.3,19.5-36,34.9-57.8,47.6-1.1.6-2.3.9-3.6.8-1-.2-1.7-.7-2.1-1.7-.1-.6-.1-1.2,0-1.7.4-1.3.7-2.7.9-4,0-.5.2-1,.4-1.6.8-2.2,1.5-4.5,2-6.9.1-.5.3-1,.5-1.5.6-1.5.8-3,1.1-4.5.1-.5.3-1.1.5-1.6,1.3-3.5,1.9-7.2,2.9-10.7.2-.5.4-1,.7-1.5.8-.8,1.2-1.8,2-2.6h0Z"/>
    <path class="st23" d="M107.1,392.2c12,20.2,28.2,36.8,45.9,52,2.8,2.4,5.9,4.6,7.7,7.9,3.6,5.1,3.8,11.4,5.7,17,.2.5.3,1.1.5,1.6.4,2.7,1,5.3,2,7.8.2.5.4,1,.5,1.6.3,1.4.6,2.7.9,4.1.1.6.2,1.2,0,1.8-.2,1-.9,1.6-1.8,2-1.8.4-3.3-.3-4.7-1.1-20.9-12.4-39.8-27.1-55.8-45.6-2.8-3.2-3.9-6.6-3.9-10.8.1-10.6,0-21.2.1-31.8,0-2.3-1.2-5.6,2.8-6.4h0Z"/>
    <path class="st23" d="M535.8,368.7c-7.5,20.6-16.5,40.4-28.4,58.8-1.1,1.7-2.1,3.5-3.9,4.7-10.2,2.5-20.2,1.8-32,.3,5.5-10.5,12.3-18.4,17.4-27.3,5.2-9,9.5-18.5,14.4-27.6.5-.8,1.1-1.6,1.9-2.2,1-.8,2.1-1.3,3.3-1.8.6-.2,1.1-.4,1.7-.5,4.1-.9,8.1-1.9,12-3.4.6-.2,1.2-.4,1.8-.5,3.9,0,7.7-4,11.8-.5h0Z"/>
    <path class="st23" d="M468.2,378.3c7.6-15.5,13.3-31.8,17.8-48.5,3.1-.2,2.8,2.6,3.3,4.3,2.9,10.5,6.1,20.9,8.5,31.5.2.6.4,1.2.6,1.9.3,2.3,1.1,4.5,1.4,6.8.2,2.4-.5,4.5-1.4,6.6-6.5,14.2-14.1,27.7-23.2,40.4-2.1,2.9-2.1,2.9-6.2,4.6-2.9-4.6-3.4-35.2-.8-47.6h0Z"/>
    <path class="st23" d="M80.8,329.9c4.6,16.7,10.2,32.9,17.8,48.5,1.4,3.3,1.5,6.9,1.4,10.4,0,9.8,0,19.5,0,29.3,0,2.6.5,5.5-1.9,8-3.1,0-4.8-2.5-6.5-4.8-9.2-12.7-16.7-26.3-23.3-40.5-1.1-2.3-1.7-4.7-1.4-7.2,3-13,6.7-25.9,10.3-38.8.5-1.9.2-4.8,3.5-4.9h0Z"/>
    <path class="st36" d="M32.1,251.5c-4.2-3.8-7.8-6.9-11.4-10.2,10.1-54,33.7-99.9,73-137.3,1,.6,2,1.2,3,1.8-10.7,14.2-22.1,28-30.9,43.5-8.8,15.6-16.4,31.8-22.1,48.8-5.8,17.2-9.7,34.8-11.6,53.4h0Z"/>
    <path class="st36" d="M546,238.3c-.8,6.6-6.8,8.7-11,14.2-6.2-56.7-29.1-104.6-65.6-147.3,5.4-1.4,6.8,1.5,8.5,3.2,34.8,35.1,56.7,77.1,66.9,125.3.2,1.2.7,2.4,1,3.5.5.1.7.3.6.5-.1.3-.3.4-.4.4h0Z"/>
    <path class="st36" d="M45.3,266.1c-1.6-1.8-3-3.4-4.2-4.8-3.9-36.8,44.5-134.5,69.4-140.4,1.4,2.8-.9,4.2-2.3,5.8-30.9,37.1-49.6,79.5-54.9,127.6-.6,5.1-3.4,8.2-8,11.8Z"/>
    <path class="st36" d="M526.1,260.8c-1.5,2-2.8,3.8-5.2,4.7-4-2.9-6.8-6.3-7.4-11.6-5.4-47.9-24-90.1-54.8-127-1.3-1.5-2.1-3.5-2.4-5.8,23.6,3.7,70.9,98,69.7,139.6Z"/>
    <path class="st22" d="M548.3,308.7c-.9,17.7-5.1,34.7-10,51.6-.5,1.3-2,1.4-2.8,2.2-.4.2-.9.4-1.4.5-1.2.3-2.4.4-3.6.9-.5.2-.9.3-1.4.5-1,.3-1.9.6-2.9.9-.5.2-1,.3-1.5.4-1,.2-2,.4-2.9.7-.5.2-.9.3-1.4.4-1.2.2-2.4.4-3.6.8-.5.2-1,.3-1.5.5-1.3.3-2.6.9-3.9,1-.6,0-1.2-.1-1.7-.4-.5-.4-.8-1-1-1.5-.6-2.6.3-4.9,1.1-7.2,3.7-10.7,6.4-21.8,8.7-32.9.3-1.2.8-2.3,1.5-3.3.7-1,1.6-1.5,2.6-2.1.4-.3.9-.5,1.4-.8.9-.5,1.7-1.1,2.6-1.6.4-.3.8-.5,1.3-.8.4-.2.9-.5,1.3-.7.4-.2.8-.5,1.3-.7.8-.4,1.7-.8,2.5-1.2.4-.2.8-.5,1.1-.7.3-.3.7-.5,1.1-.8.3-.3.7-.5,1.1-.7.6-.3,1.2-.6,1.7-.9.4-.2.8-.4,1.1-.6.6-.3,1.2-.6,1.8-1,.4-.3.8-.5,1.2-.8,1.5-.9,2.9-2,4.6-2.7.3,0,.5-.1.8-.2.6,0,.9.3,1,.9h0Z"/>
    <path class="st22" d="M17.1,299.5c-.2-16.2-.2-32.4,1.4-48.6,1.1-.2,2-.1,2.8.8,7.4,7.6,15.4,14.6,22.1,22.8,1.3,1.5,1.7,3.3,1.7,5.2-.2,11.1.4,22.2,1.1,33.3,0,.7-.3,1.3-.6,2-.3.6-.8,1-1.4,1.2-.9.1-1.8-.1-2.6-.5-.5-.2-1-.5-1.4-.8-.8-.5-1.5-1.2-2.4-1.7-.4-.2-.8-.5-1.2-.7-.6-.3-1.2-.6-1.8-.9-.4-.2-.8-.4-1.2-.6-.6-.3-1.2-.6-1.9-.9-.4-.2-.8-.5-1.2-.8-1.4-1.1-3-1.8-4.5-2.6-.5-.2-.9-.5-1.3-.8-1.5-1.1-3.1-2-4.7-2.9-.4-.3-.8-.7-1.1-1.1-.7-.8-1.3-1.7-1.9-2.5h0Z"/>
    <path class="st22" d="M523.4,274.5c7-8.7,15.5-15.9,24.2-25,.8,5.9,1.8,10.4,1.9,15,.3,11,.2,22,.2,32.9,0,1.2-.7,2.3-1.1,3.5-.4.4-.7.8-.9,1.3-.3.4-.7.8-1.1,1.1-1.3.8-2.7,1.4-3.9,2.3-.4.3-.8.5-1.2.8-.6.3-1.2.6-1.8.9-.4.2-.8.4-1.2.6-.4.2-.8.4-1.1.6-.3.2-.7.4-1,.7-.3.3-.7.5-1,.8s-.7.5-1.1.7c-.4.2-.7.4-1.1.6-.4.2-.8.4-1.2.6-.6.3-1.2.6-1.7.9-.4.3-.8.5-1.2.7-.8.5-1.6,1.1-2.4,1.7-.5.3-1,.6-1.5.8-.9.4-1.8.6-2.7.3-.3-.2-.5-.4-.8-.6-.4-.6-.7-1.2-.8-2,.5-11.5,1-23,1-34.5,0-1.7.5-3.2,1.6-4.5h0Z"/>
    <path class="st28" d="M440.9,134.6c31.5,29.6,52.5,64.8,58.6,108.4-5.8-4.8-13.1-8.3-15-16.2-8.1-33.6-24.6-62.9-46.1-89.5-.3-.6-.7-1-1.2-1.5h0c-.7-.9-.7-1.9.2-2.6.7-.6,1.5-.4,2.1.2h0c.5.3.9.7,1.2,1.2h0Z"/>
    <path class="st28" d="M127.3,138.6c-20.8,26.4-37.1,55.1-44.9,88.2-1.1,4.9-8.2,12.3-14.9,16.3-1.3-3.9,0-7.4.8-10.9,8.7-38.1,28.1-69.9,56.5-96.4.3-.5.7-.9,1.1-1.1h0c.3-.6.7-.9,1.2-1.2h0c.6-.7,1.4-.9,2.1-.3.9.8.9,1.7.2,2.6h0c-.4.4-.9.8-1.1,1.4h0c-.6.3-1,.8-1.2,1.5h0Z"/>
    <path class="st18" d="M488.6,311.6c1.8-9.2,1.8-18.6,2.5-27.9,2.3-.9,2.6,1.2,3.4,2.3,3,4.1,5,8.9,7.8,13.2.3.4.5.9.7,1.4.5,1.1.9,2.3,1.5,3.3.2.4.5.8.7,1.1.3.4.5.7.8,1.1.3.3.5.7.7,1.1.3.6.5,1.1.8,1.7.2.4.4.7.6,1.1.3.6.6,1.1.9,1.7.2.4.5.7.7,1.1.5.8,1,1.5,1.6,2.2.3.4.5.8.8,1.2.6,1.1,1.1,2.3,1.7,3.4.3.5.5.9.7,1.4.5,1,.9,2,1.1,3.2,0,.6,0,1.2,0,1.8-1.8,10.5-4.8,20.6-7.7,30.8-.8,2.8-1.8,5.6-4,7.6-.6.4-1.2.4-1.8.2-1-1-1.4-2.2-1.9-3.4-.3-.6-.5-1.2-.6-1.9-1.6-7.1-3.7-14.1-5.6-21.1-2.4-8.8-4.3-17.6-5.2-26.7h0Z"/>
    <path class="st18" d="M75.8,283.7c.7,9.3.7,18.7,2.5,27.9-1.2,16.9-7.3,32.7-11.2,49-.3,1.4-.9,2.8-1.9,3.9-4.7.2-4.8-3.8-5.7-6.6-3.3-10.4-6.2-20.9-8.1-31.6,0-.6,0-1.2,0-1.9.1-.9.4-1.7.8-2.5.1-.2.2-.5.3-.8.1-.2.2-.5.4-.7.8-1.4,1.4-2.8,2.1-4.2.2-.5.5-.9.8-1.3.6-.8,1.2-1.6,1.7-2.5.2-.5.5-.9.7-1.3.8-1.3,1.3-2.8,2.1-4.2.2-.5.5-1,.8-1.4,3.7-6,6.8-12.4,10.7-18.3,1-1.5,1.1-4.3,4.1-3.5h0Z"/>
    <path class="st18" d="M49.6,272c9.5-9.8,18.9-19.6,28.4-29.4.5.4,1.1.8,1.6,1.2-1.3,8.9-2.6,17.8-3.8,26.7-.6.8-.3,2.1-1.4,2.6h0c-2.6,9.1-9.1,16.2-13.2,24.6-1.1,2.2-2.5,4.3-3.6,6.5-.2.5-.5.9-.8,1.4-.3.4-.6.8-1,1.2-.2.2-.3.4-.5.6-.4.6-.8,1.3-1.2,2-.2.5-.5,1-.8,1.5-.5.7-1.1,1.4-2.2,1.3-.6-.3-1-.8-1.4-1.4-2.6-12.9-3.8-25.9-.1-38.8h0Z"/>
    <path class="st18" d="M491.1,270.6c-1.3-8.9-2.5-17.8-3.8-26.7.5-.4,1.1-.8,1.6-1.2,9.5,9.8,18.9,19.6,28.4,29.4,3.4,12.9,2.4,25.7,0,38.5-.3.6-.7,1.1-1.2,1.5-.9.5-1.6.1-2.2-.6-.3-.4-.6-.8-.8-1.3-.3-.6-.6-1.3-.9-1.9-.2-.4-.5-.7-.7-1.1-.3-.3-.5-.7-.8-1s-.5-.7-.7-1.1c-.2-.4-.4-.8-.6-1.1-.2-.4-.4-.8-.6-1.2-.3-.6-.6-1.2-1-1.8-.3-.4-.5-.8-.8-1.2-.5-.8-1.1-1.6-1.7-2.4-.3-.4-.6-.9-.9-1.4-4.1-8.7-10.4-16.3-13.5-25.6h0Z"/>
    <path class="st17" d="M107.1,392.2c-1.6.5-1.4,1.9-1.4,3.1,0,13.5,0,27,0,40.8,17.5,20.5,38,37.4,61.5,50.7.6.4,1.6.2,2.4.2.3-.4.8-.5,1.3-.3.3.4.5.8.5,1.3-.1.7-.4,1.4-.7,2-.2.4-.5.8-.9,1.1-.6.4-1.2.8-1.8,1.2-.4.3-.8.6-1.2.9-.4.3-.9.5-1.5.6-.3,0-.5,0-.8,0-.6-.2-1.1-.4-1.6-.7-18.2-9.9-34-23-49.1-37-4.1-3.8-7.4-8.4-11.3-12.4-1.7-1.7-2.8-3.7-1.2-6.1,1.5-2.9,1.4-6,1.4-9.1,0-10.6-.1-21.2.1-31.8,0-2.6-1.1-6.1,3-7.1.4.9.8,1.8,1.2,2.6h0Z"/>
    <path class="st17" d="M397.2,487.1c1.8.5,3.2-.5,4.6-1.4,22.4-13.1,42.1-29.5,59.3-49.5v-41.5c0-1-.2-2.1-1.4-2.5.3-1.4,1.2-2.1,2.5-2.6,2,1.9,1.9,4.5,1.9,7,0,11.6.3,23.1-.1,34.6,0,1.3,0,2.5-.1,3.8,0,.5,0,1,.2,1.6,0,.2.2.5.3.7.5.9,1.2,1.5,1.7,2.4-16.7,20-36.5,36.4-58.7,50-1.7,1.1-4,1.5-4.9,3.7-.2.4-.6.6-1,.6-.4,0-.8-.2-1.1-.5-.3-.2-.7-.5-1-.8-.2-.1-.3-.2-.5-.4-.6-.3-1.1-.6-1.7-1-.4-.3-.6-.7-.9-1.1-.4-.6-.6-1.3-.8-2,0-.5.2-1,.5-1.4.5-.2.9-.1,1.3.3h0Z"/>
    <path class="st25" d="M68.2,373.3c0,1,0,2.1.2,3.1,2.3,9.4,21.7,41.9,30.2,49.8v-47.8c.4.4.7.8,1.1,1.2.8,1.5.9,3.3,1.2,5,.4,2,.3,4.1.4,6.1,0,1.4,0,2.7,0,4-.1,3,0,5.9,0,8.9,0,.9,0,1.9,0,2.8,0,1.2,0,2.4-.1,3.5,0,.6,0,1.1,0,1.7,0,.6,0,1.1,0,1.7,0,.5,0,1.1,0,1.7,0,.8,0,1.6,0,2.5,0,1.3,0,2.7,0,4,0,.8,0,1.6,0,2.3,0,.5,0,1,0,1.5,0,.8-.2,1.5-.3,2.2-.1.5-.3.9-.6,1.4-.3.7-.7,1.3-1.2,2-.3.4-.8.7-1.2.9-.9.5-1.8,1-2.7,1.7-1,.7-2.1,1.1-3.2,1.2-.6.1-1.3.2-1.9.2-1.3,0-2.7.1-4.1.2-5.4-.5-11.1,1.6-16.2-1.8-.8,0-1.7,0-2.5,0-.8.7-1.7.7-2.5,0-.4,0-.8,0-1.3,0-.5-.6-.5-1.1,0-1.7,5.4-2.3,11.1-.8,16.6-1.2,3.1-.2,6.2.5,9.2-.6.6-2.3-1.2-3.5-2.2-4.9-9.6-13.2-17.2-27.4-24.3-42-.8-1.7-1.7-3.4-1.2-5.3,1.2-2.1,3.8-2.5,5.2-4.3.5-.3,1-.3,1.6,0h0Z"/>
    <path class="st25" d="M468.2,378.3v46.7c2.6.4,3.1-1.5,4-2.7,9.8-13.2,18-27.5,24.9-42.4,1-2.1,1.5-4.3,1.5-6.6.4-.3.8-.4,1.2-.2.5.5.8,1.1,1.1,1.6.4.5.9.9,1.5,1.1.9.3,1.7.5,2.2,1.3-3.7,9.9-8.8,19.1-14.1,28.3-5.1,8.9-11.2,17.2-18.2,26.9h31c-.4.4-.8.7-1.2,1.1-.5.4-1.1.6-1.7.8-2.1,1-4.4.7-6.6.8-.6,0-1.2,0-1.9,0-2.2,0-4.3,0-6.5,0-.6,0-1.2,0-1.8,0-.9,0-1.8,0-2.7,0-.6,0-1.2,0-1.8,0-2.3-.1-4.6.1-6.7-1-1.1-.7-2.2-1.6-3.4-2.1-.5-.3-.9-.6-1.3-1-.4-.5-.6-1-.9-1.5-.3-.5-.5-1.1-.7-1.7,0-.3-.2-.6-.3-.9-.2-.6-.2-1.3-.3-2-.3-6.9-.1-13.8-.2-20.6,0-1.4.1-2.7.1-4,0-1.3,0-2.6,0-3.9,0-.6,0-1.3,0-1.9,0-1.9,0-3.9,0-5.8,0-1.3.3-2.6.5-3.8.4-1.2.4-2.5,1-3.7.4-.9.8-1.7,1.2-2.5h0Z"/>
    <path class="st34" d="M396,487.1v1.2c.1,1,.7,1.8,1.2,2.5h0c.7.8,1.8.5,2.5,1.2h0c.4.4.8.8,1.2,1.2h0c1.1,1.1,2.7.2,3.9,1.1h0c1.4,1.6,3.6,0,5.1,1.2h0c2.8,1.3,5.9,1.7,8.9,2.5h0c1.3,1.7,3.6.1,5.1,1.3h0c1.3,1.7,3.6,0,5,1.3h0c.6,1.7,4.1-.7,3.7,2.6-1.2,1.2-2.5,2.5-3.7,3.8-3.3-2.6-7.6-2.3-11.4-3.7h0c-1.4-1.6-3.6,0-5-1.3h0c-1-1.2-2.7-.3-3.9-1.1h0c-1.3-1.8-3.6,0-5-1.3h0c-3.2-1.3-6.6-2.1-10.1-2.5-1.7.1-3.1-.3-4.3-2.1.2-1.2.6-2.7.9-4.2,2-2.1,1.3-5.1,2.2-7.5h0c.3-.3.6-.5,1.1-.5-.2-.5-.3-.9-.3-1.4,0-1.1-.2-2.2.6-3.1,0-.4,0-.8.2-1.2,1.5-2.3,1.5-5.1,2.2-7.7h0c2.2-1.2,0-3.6,1.4-5.1-.1-.4,0-.7.2-1,1-1.1.2-2.7,1.1-3.8h0c.3-.3.6-.5,1.1-.5-.1-.5-.3-.9-.3-1.4,0-1.1-.1-2.2.6-3,2.9.1,4-2.8,6.2-3.8.4.3.5.6.4,1,0,.4-.2.5-.3.5.1.4,0,.7-.2,1-1.8,4-2.6,8.3-3.5,12.6h0c-1.7,1.3-.1,3.5-1.3,5h0c-1,2.9-2.5,5.8-2.5,9,.1.3,0,.6-.2.9-1.4,1-.2,2.7-1.1,3.9h0c-1.1.4-.6,1.8-1.5,2.4h0Z"/>
    <path class="st2" d="M68.2,373.3c-.4,0-.7,0-1.1,0-3-1.8,0-5.9-3-7.7-.2-.6,0-1.1.3-1.6,4.6-17.5,9.2-35,13.8-52.5-.4,6.2,1.5,12.2,2.5,18.2-4.7,12.8-7.3,26.3-11.1,39.3-.4,1.4-.9,2.7-1.4,4.1Z"/>
    <path class="st27" d="M99.8,407.1v-2.5c.8-3.3.8-6.6,0-9.9v-3.8c.7-2.1.8-4.1,0-6.2,0-1.7,0-3.4,0-5,3.2.5,1.2,4.5,3.6,5.3,1.4,1.5,2.8-.4,4.1.3.3,1.8-1.1,2.9-1.5,4.4-2.1,1.8-1.2,4.2-1.3,6.4,0,12.6,0,25.2,0,37.7,0,2.8,0,5.5-3.7,5.9-1.2.6-2.3,0-3.3-.5-1.9-1-4-.4-6-.7-2.9-.4-5.2-1.4-4.4-5.1h3.7c.4.5.8.5,1.2,0,1.1,0,2-.3,2.6-1.3,1-1.1,2.7,0,3.7-1.3h0c.8-.6.5-1.8,1.3-2.5h0c.7-.8.8-1.6.1-2.5,0-.4,0-.8,0-1.2.6-.8.6-1.6,0-2.5v-5c.6-.8.6-1.7,0-2.5v-1.2c.3-.4.3-.8,0-1.3v-1.3c.7-1.2.7-2.5,0-3.7h0Z"/>
    <path class="st2" d="M488.6,311.6c4.2,16.3,8.4,32.7,12.5,49-1.7,2-2.1,4.8-4.1,6.6-3.2-11.5-6.5-23.1-9.8-34.6-.3-1-.8-1.8-1.2-2.7-.6-3.3,1.7-5.8,2.5-8.2v-10.1h0Z"/>
    <path class="st4" d="M514.7,324.5c-.2-.3-.2-.6,0-.9-.5-.9-.3-2.1-1.2-2.8h0c-.4-2-1.1-3.7-2.7-4.9h0c-.1-.5-.5-1-.5-1.7,0-.4.3-.8.6-1l.6-.2s-.6,0-.6,0c-.3.4-.6.5-1.1.4-.6-.4-.9-1-1.3-1.5h0c-.7-.7-.5-1.9-1.4-2.5h0c-.6-.7-.3-2-1.4-2.4h.1c-.1-.6-.7-.9-1-1.4h0c-.7-1.8-.9-3.8-2.7-4.9h0c-.9-3.5.5-4.9,4.1-4h0c.6,1.4,1.4,2.7,2.4,3.9h0c.3.9.1,2,1.3,2.4h0c.5.8.3,2,1.4,2.5h0c.2.4.2.8,0,1.2-.2.4-.5.5-.9.3.4.3.6,0,.8-.2.4-.3.8-.3,1.2,0h0c.3.3.5.7.6,1.1-.2.4-.2.8.2,1.1l.6.2h0c.6.7.3,2,1.5,2.4v-.3c.1.8.9.9,1.4,1.2.6.3,1.2.7,1.8,1.1.6.4,1.2.9,1.8,1.3,1.1.4,2,1.9,3.4.5h0c.8-.5,2-.2,2.5-1.3h0c1.5-.5,2.7-1.3,3.9-2.3h0c.7-.6,2-.4,2.5-1.4h0c.8-.5,2-.2,2.5-1.4h-.1c.7,0,1-.5,1.5-.9h0c.8-.5,1.9-.4,2.4-1.4h0c.7-.6,2-.4,2.5-1.4h0c2.1-1.2,4.5-1.9,6.4-3.7h0c.5-.3.9-.3,1.3.1v5c-.4.5-.8.9-1.2,1.4h0c-1.3.2-2.7.3-3.7,1.2-.2.5-1.4-.6-1.1.7-.3.8-1,1.1-1.6,1.6h0c-.7.7-1.9.5-2.5,1.4h0c-.8.5-2,.2-2.5,1.4h.1c-.7,0-1,.5-1.5.9h0c-1.6,1-3.8.7-4.9,2.7h0c-.5.2-.9.6-1.4.9-.2.3-.5.4-.8.4-1.6.4-3,1.3-4.2,2.5h0c-.8.6-2.2.3-2.5,1.7-.4.7-.9,1.3-1.3,2-2.2,1.5-3.9,1-5.2-1.3h0Z"/>
    <path class="st5" d="M516,313.3c-.3-.6-.7-1.1-1-1.7,4.2-9.8,1.8-20.2,2.7-30.3.3-3-.3-6.1-.4-9.2.9.8,1.7,1.6,2.7,2.5h3.4c.7,11.3.6,22.5-.8,33.8-.3,2.4,0,4.9,0,7.4-1.3,1.1-2.7,1-4.1.2-.4-.4-.8-.8-1.2-1.2-.4-.5-.9-.8-1.3-1.2h0Z"/>
    <path class="st30" d="M49.6,272c-.2,13.3-1.7,26.7,2.1,39.7,1,.5.6,1.2.2,1.9-.3.4-.8.8-1.2,1.1-.2.2-.4.3-.6.5-.4.4-.9.6-1.3.9-.5.3-1,.4-1.6.5-1.2,0-2.2,0-2.9-1.2-.4-10.2-1-20.5-1.3-30.7-.1-3.5.3-7,.4-10.4h3.4c1-.9,1.9-1.7,2.7-2.5h0Z"/>
    <path class="st4" d="M467.1,395.8c0,1.3,0,2.5,0,3.8-.7,1.2-.7,2.5,0,3.7,0,7.9,0,15.8.1,23.8-.3.3-.4.6-.2.9.1.3.2.4.3.4h0c.4.4.8.9,1.2,1.2v1.2c-1.7,1.6-3.5,3-6.1,2.5,0-14.6-.1-29.1-.1-43.7,1.6-2.9,3.2-5.8,4.8-8.7,0,1.2,0,2.5,0,3.7-.7,1.2-.7,2.5,0,3.7,0,2.1,0,4.2,0,6.3-.3.4-.3.8,0,1.2h0Z"/>
    <path class="st4" d="M497.1,367.2c.2-2.9,0-6.1,4.1-6.6h0c.9,1.1-.5,3,1.3,3.8v-.2c.2.4.5.7.9,1,.3.3.6.6.9.9.5.4.9.9,1.2,1.4.4.9.9-.1,1.4,0,.9,0,1.7.3,2.4.9.6.4,1.2.3,1.8-.2.2-.3.4-.3.7-.1,1.3-.8,3.1.2,4.2-1.2h0c1.5-1.2,3.7.4,5-1.3h0c1.2-.8,2.8,0,3.9-1,.2-.3.5-.3.8-.2,1.3-.8,3,.1,4.2-1.2h0c1.5-1.2,3.7.3,5-1.3h0c.9-.5,1.8-.6,2.6.1.4,1.9-2.9,2.8-1.3,5-4.1,1.5-8.5,1.7-12.5,3.7l-.4.3h-.5c-4.4.9-8.8,1.7-12.9,3.4-.4.1-.8.2-1.2.3-1.1-.1-1.8.4-2.6,1l-1.2,1.2c-1.3,0-2.5,0-3.8,0-.4-.4-.8-.8-1.2-1.2,0-.8,0-1.7,0-2.5-1.8-1.7-1.4-4.3-2.6-6.2h0c0,0,0,.1,0,.1Z"/>
    <path class="st2" d="M55.7,305.5c5.6-11.2,11.8-22,18.7-32.4,2.6,3.2-.2,7.2,1.4,10.6-4.8,7.9-9.7,15.7-14.5,23.5-1.1,0-2-.4-3.1-.7-.5,0-1,0-1.5-.1-.5-.1-.8-.4-1-1h0Z"/>
    <path class="st2" d="M506.2,296.9c-2.4.3-3.9,1.5-4.1,4.1-3.7-5.7-7.3-11.5-11-17.2,0-4.4,0-8.8,0-13.1,5.6,8.4,10.8,17.1,15.1,26.3h0Z"/>
    <path class="st4" d="M493.5,433.4c2.5,0,5,0,7.5,0,.3.3.4.5.3.8-.1.3-.2.4-.3.4v2.5c-9.5,1.4-19,.2-28.5.6-.7,0-1.4,0-2,0-.7-.1-1.1-.6-1.3-1.3,0-1.6.4-3.1,1.4-4.4.5-.4,1.1-.4,1.6,0,2.2,2.2,5,.9,7.6,1.2,0,0,.3.5.3.5l-.3.4.5-.2c.3-.2.5-.4.8-.7.8,0,1.7,0,2.5,0,0,0,.3.5.3.5s-.3.4-.3.4l.5-.2c.3-.2.5-.4.8-.7,2.5,0,5,0,7.5,0,.4.5.8.5,1.2,0h0Z"/>
    <path class="st2" d="M165.8,471c-2.3-6.1-4.1-12.4-5.1-18.8,3.3,0,5,3.2,7.9,4,.4,2.7.8,5.5,1.2,8.2-1.1,2.4-2.2,4.7-4,6.6h0Z"/>
    <path class="st8" d="M469.7,437.1c10.4,0,20.8,0,31.3,0-.5.5-1.1,1-1.7,1.5-10.3-.1-20.6-.2-30.9-.3-.3-.3-.4-.6-.3-.9,0-.3.1-.5.2-.5.5-.3,1-.2,1.4.2h0Z"/>
    <path class="st8" d="M523.5,370.7c3.6-3.1,8.1-3.3,12.5-3.7,0,.6-.1,1.1-.2,1.7-4.3-.8-8.1,2.2-12.3,2h0Z"/>
    <path class="st12" d="M439.6,133.4c-1.6,0-2.3.9-2.4,2.4-1.4-.9-1.9-2.2-.5-3.3,1.1-.9,2.2-.3,2.8.9h0Z"/>
    <path class="st9" d="M129.6,135.7c0-1.5-.7-2.4-2.3-2.4.6-1.2,1.7-1.8,2.8-.9,1.4,1.1.9,2.4-.5,3.3h0Z"/>
    <path class="st2" d="M399.7,459.6c-.5,0-.9,0-1.4-.1,0-1.1,0-2.2,0-3.3.5-.5,1-1.1,1.5-1.6v5h0Z"/>
    <path class="st16" d="M311.2,489.7c-.6,0-1.2-.2-1.8-.3,1.2-1.2,2.6-1.1,4.1-.9,0,.3,0,.5,0,.8-.6.9-1.4.9-2.3.3Z"/>
    <path class="st7" d="M501,447.2c-.6-.2-1.2-.4-1.8-.6.2-.5.4-.8.6-1.2,1.4-.2,1,1,1.3,1.8h0Z"/>
    <path class="st7" d="M484.7,464.6c-1.5-.9-1.2-2.3-1.2-3.6,1.5.9,1.1,2.3,1.2,3.6Z"/>
    <path class="st7" d="M18.2,250.7c-1.2,0-2.4,0-3.6.1,1.1-1.5,2.3-1.7,3.6-.1Z"/>
    <path class="st8" d="M537.2,362.1c-.9,0-1.7,0-2.6-.1,1.2-.6,2.5-1.1,3.7-1.7-.4.6-.7,1.2-1.1,1.8h0Z"/>
    <path class="st7" d="M514.7,422.1c.4.8.8,1.7,1.2,2.5-.6-.1-1.2-.3-1.6-.4-.8-1-.4-1.6.4-2.1Z"/>
    <path class="st7" d="M546,238.3c-.3-.3-.3-.6-.2-.9.3-.2.6-.5,1-.9.2.7.3,1.2.5,1.8h-1.3Z"/>
    <path class="st2" d="M74.4,273.2c0-1.1.4-2,1.4-2.6,0,1.2,0,2.2-1.4,2.6Z"/>
    <path class="st2" d="M406.1,452.4c0-.5-.1-1-.1-1.5.5-.4.9-.8,1.4-1.2-.4.9-.8,1.8-1.3,2.7Z"/>
    <path class="st10" d="M189.7,44.1c-.5,0-1,.1-1.5.2,0-1.2.9-1.1,1.5-1.2,0,.3,0,.7,0,1h0Z"/>
    <path class="st8" d="M547.3,308.5c.4-.5.8-1,1.2-1.4,0,.5,0,1.1-.2,1.6-.3,0-.7-.1-1-.2h0Z"/>
    <polygon class="st7" points="503.5 444.6 503 444.3 503.2 444.1 503.5 444.6"/>
    <path class="st8" d="M548.5,302c-.4,0-.9,0-1.3,0,.5-.4.9-.7,1.4-1.1,0,.4,0,.8,0,1.1Z"/>
    <polygon class="st7" points="486 464.6 486.3 464.1 486.5 464.3 486 464.6"/>
    <path class="st7" d="M547.2,238.3c.2.1.3.2.5.3-.2-.1-.3-.2-.5-.3h0Z"/>
    <path class="st9" d="M127.3,138.6c.4-.5.8-1,1.2-1.5-.4.5-.8,1-1.2,1.5Z"/>
    <path class="st12" d="M437.2,135.7c.4.5.8,1,1.2,1.5-.4-.5-.8-1-1.2-1.5Z"/>
    <path class="st9" d="M128.5,137.1c.4-.5.8-.9,1.1-1.4-.4.5-.8.9-1.1,1.4Z"/>
    <path class="st9" d="M126,134.6c-.4.4-.8.8-1.1,1.1.4-.4.8-.8,1.1-1.1Z"/>
    <path class="st7" d="M57.1,134.5c.2.1.3.2.5.3-.2-.1-.3-.2-.5-.3h0Z"/>
    <path class="st12" d="M440.9,134.6c-.4-.4-.8-.8-1.2-1.1.4.4.8.8,1.2,1.1Z"/>
    <path class="st9" d="M127.2,133.5c-.4.4-.8.7-1.2,1.1.4-.4.8-.7,1.2-1.1Z"/>
    <polygon class="st7" points="504.7 122 504.5 122.5 504.2 122.3 504.7 122"/>
    <path class="st7" d="M486,99.5c-.2.2-.4.4-.6.7-.2-.2-.4-.5-.6-.7h1.3Z"/>
    <polygon class="st7" points="484.7 99.5 484.2 99.2 484.5 99 484.7 99.5"/>
    <polygon class="st7" points="403.5 39.5 403.2 40 402.9 39.8 403.5 39.5"/>
    <polygon class="st7" points="258.4 10.7 259 11 258.7 11.2 258.4 10.7"/>
    <polygon class="st7" points="551 330.8 550.5 330.5 550.7 330.3 551 330.8"/>
    <polygon class="st7" points="514.7 422.1 515 421.5 515.3 421.8 514.7 422.1"/>
    <path class="st8" d="M501,434.6v-1.2c.4,0,.8,0,1.3,0-.4.4-.8.8-1.2,1.2h0Z"/>
    <path class="st24" d="M290.9,549.4c0-1.3-.2-2.7,1.1-3.6,2.5,1.6,3.7-.9,5.2-1.9,4.3-3,6.9-7.5,10.3-11.3,0-2.5-2.7-3.9-2.1-6.4,3-5,4.1-5.3,11-2.9,1.4,5.7,4.3,11.6-.1,18.1.3,1.6,3.1,1.5,3.4,3.5,1.6,1.4,3.6.7,5.4,1.1-11.3,2.4-22.6,4.1-34.2,3.4h0Z"/>
    <path class="st8" d="M417.1,503.4c4.1.3,8.4,0,11.4,3.7h-1.2c-3.4-1.2-6.8-2.5-10.1-3.7h0Z"/>
    <path class="st8" d="M432.2,503.3c-1.2-.9-2.5-1.7-3.7-2.6,2.2-.1,4.2.5,6.2,1.4-.5,1-1.5,1.2-2.5,1.2h0Z"/>
    <path class="st7" d="M447.3,501c-.6-.2-1.2-.4-1.8-.6.2-.5.4-.8.6-1.2,1.4-.2,1,1,1.3,1.8h0Z"/>
    <path class="st7" d="M173.4,529.6c.9-1.5,2.3-1.2,3.7-1.2-.9,1.5-2.3,1.1-3.7,1.2Z"/>
    <path class="st7" d="M201.5,545c1.1-.8,1.5-1.1,1.9-1.4.1.2.2.4.3.6-.5.2-1,.3-2.3.8h0Z"/>
    <path class="st7" d="M234.8,549.7c-.7-.2-1.2-.3-1.9-.5,1-1.1,1.3-.1,1.9.5Z"/>
    <polygon class="st7" points="464.7 485.8 464.4 486.4 464.2 486.1 464.7 485.8"/>
    <polygon class="st7" points="315.9 552.1 315.4 551.8 315.7 551.6 315.9 552.1"/>
    <path class="st23" d="M98.4,438.2c.8.4,1.7.9,2.5,1.3,16.7,20.1,36.5,36.4,58.7,50,1.7,1.1,4,1.5,4.9,3.7-.3.8-.9,1.3-1.5,1.7-.4.3-.9.5-1.4.6-1.2.3-2.5.5-3.7.9-.5.2-1,.3-1.5.5-2.3.4-4.6,1-6.8,1.9-.5.2-1,.4-1.5.5-1.2.3-2.5.4-3.7.8-.5.2-.9.3-1.4.4-1.2.3-2.4.4-3.6.8-.5.2-.9.3-1.4.4-1.2.3-2.4.4-3.6.5-.2,0-.5.1-.7.1-.5.1-.9,0-1.3-.4-19.3-11.9-35.6-27.1-50.2-44.2-5.2-6.1-10.8-12-14.4-19.4,3.7-3.3,8.3-2,12.5-2.1,6.2-.2,12.2,1.5,18.3,1.8h0Z"/>
    <path class="st23" d="M62.1,377.1c7.7,19.5,18.8,37.1,32.2,55.2h-30.9c-.5.3-.9.1-1.1-.4-4.6-7.5-9.2-14.9-13.8-22.4-1.2-.9-1.7-2.1-1.7-3.5-5.8-12.2-11.2-24.5-15.7-37.2,1-1.9,2.8-1.5,4.4-1.2,8.4,2,16.9,4,25,7,.9.6,1.5,1.4,1.7,2.5h0Z"/>
    <path class="st34" d="M165.8,471c.1-1.4.3-2.8.4-4.3,1.2-.8,2.4-1.5,3.6-2.2h0c1.2,1.5-.4,3.8,1.4,5.1h0c.5,2.5,1.1,5.1,2.2,7.5l.2,1.2c1.1,1.1.1,2.7,1.1,3.8.2.3.3.7.2,1.1.9,2.5.2,5.5,2.2,7.7.3,1.5.6,3,.9,4.2-1.2,1.9-2.6,2.3-4.3,2.1-3.4.8-6.9,1-10.1,2.6h0c-1.4,1.2-3.7-.5-5,1.4h0c-1.2.7-2.8-.2-3.9,1.1h0c-1.4,1.3-3.6-.3-5,1.3h0c-1.5,1.2-3.7-.5-5,1.4h0c-2.2.5-4.7.4-6.4,2.3-1.5-1.5-2.9-3.1-5-3.8-.3-.3-.4-.6-.3-.9,0-.3.2-.5.2-.5h0c1.5-1.2,3.6.3,5-1.3h0c1.4-1.2,3.7.4,5-1.3h0c1.5-1.1,3.7.5,5.1-1.3h0c2.9-.9,6.2-.6,8.8-2.4h0c1.5-1.1,3.7.4,5.1-1.2h0c1.1-.9,2.8,0,3.9-1.1h0c.4-.4.8-.8,1.2-1.3h0c.7-.7,1.8-.5,2.5-1.2h0c.8-.6.5-1.8,1.2-2.5v-1.2c-.5-.8-.2-2-1.5-2.3h0c-1.1-1.5.9-3.8-1.3-5h0c-.8-2.9-1.2-6-2.5-8.8h0c0,.1,0,.1,0,.1Z"/>
    <path class="st8" d="M98.4,438.2c-10.3.1-20.6.2-30.8.3-1-2.4,2-3.2,2.1-5.2h17.5c1,3.4,3.5,4.2,6.6,3.7,1.7-.3,3.6-1.3,4.6,1.2h0Z"/>
    <path class="st7" d="M157.2,518.3c1.2.6,2.5,1.2,3.7,1.8-1.1,3.8-3.4.2-5,.8.4-.9.9-1.7,1.3-2.6h0Z"/>
    <path class="st7" d="M46.8,405.9c.6,1.2,1.1,2.4,1.7,3.5,0,.6-.2,1.1-.3,1.7-.4-.1-.7-.2-1-.3-.6-1.6-2.1-3.1-.4-4.9h0Z"/>
    <path class="st8" d="M138.4,507.1c1.3-3,3.9-2.6,6.4-2.4-1.7.8-3.4,1.6-5.2,2.4h-1.2Z"/>
    <path class="st15" d="M95.9,480.8c0,1.8,1.8,4-1.2,5-1.1-2-.6-3.7,1.2-5Z"/>
    <path class="st15" d="M90.8,478.4c.8-1,1.5-1.7,2.2,0-.8,1.1-1.5,0-2.2,0Z"/>
    <path class="st15" d="M109.1,493c-1.1.8-1.5,1.1-1.9,1.4-.1-.2-.2-.4-.3-.6.5-.2,1-.4,2.3-.8h0Z"/>
    <path class="st15" d="M110.8,496c.2-.7.3-1.2.5-1.9,1.1,1,.1,1.3-.5,1.9Z"/>
    <path class="st7" d="M48.8,419c-.3,0-.6,0-.9,0,.3,0,.6,0,.9,0Z"/>
    <path class="st8" d="M64.6,433.4h2.5c-.8,1.2-1.7,1.2-2.5,0Z"/>
    <polygon class="st7" points="63.4 443.3 63.7 442.8 63.9 443 63.4 443.3"/>
    <polygon class="st7" points="70.9 454.6 71.2 454.1 71.4 454.3 70.9 454.6"/>
    <polygon class="st15" points="79.6 467.1 79.9 466.6 80.2 466.8 79.6 467.1"/>
    <polygon class="st15" points="79.6 467.1 79.3 467.6 79.1 467.4 79.6 467.1"/>
    <path class="st15" d="M90.9,478.3c-.4.4-.8.8-1.2,1.2.4-.4.8-.8,1.2-1.2Z"/>
    <polygon class="st15" points="95.9 480.8 96.2 480.3 96.4 480.5 95.9 480.8"/>
    <polygon class="st15" points="99.6 484.6 99.1 484.3 99.3 484.1 99.6 484.6"/>
    <path class="st15" d="M99.6,484.6c.2.2.4.4.7.6-.2.2-.5.4-.7.6v-1.2h0Z"/>
    <path class="st15" d="M104.6,490.8c.2-.2.4-.5.6-.7.2.2.4.5.6.7h-1.3Z"/>
    <polygon class="st15" points="105.9 490.8 106.4 491.1 106.2 491.4 105.9 490.8"/>
    <polygon class="st15" points="108.4 493.3 108.7 492.8 108.9 493 108.4 493.3"/>
    <path class="st7" d="M44.6,412.1c.4-.4.8-.8,1.2-1.2-.4.4-.8.8-1.2,1.2Z"/>
    <polygon class="st7" points="53.4 428.3 53.7 427.8 53.9 428 53.4 428.3"/>
    <path class="st8" d="M133.3,502v1.3c-.4-.4-.8-.8-1.2-1.2.4-.2.8-.3,1.2-.1h0Z"/>
    <polygon class="st7" points="53.4 430.8 53.9 431.1 53.7 431.4 53.4 430.8"/>
    <path class="st8" d="M62.2,431.8c.4,0,.8.2,1.1.4,0,.4,0,.7,0,1.1-.4-.5-.8-1-1.2-1.5h0Z"/>
    <path class="st7" d="M169.7,524.6c1.2.5,2.4,1,3.6,1.5-2.1,1.6-3.1.8-3.6-1.5Z"/>
    <path class="st7" d="M160.9,524.6c.5-.7.6-2,2-1.5.1,1.6-1.1,1.2-2,1.5Z"/>
    <path class="st7" d="M164.7,522.1c.4.1.8.2,1.2.4-.6.5-.9.2-1.2-.4Z"/>
    <path class="st22" d="M28.5,360.3c-5-16.9-9.1-33.9-10-51.6.8-1.2,1.9-.6,2.8-.3.5.2.9.4,1.3.7.8.5,1.5,1.1,2.3,1.6.4.2.8.5,1.1.7.5.3,1.1.6,1.7.9.4.2.8.4,1.1.6.6.3,1.2.6,1.8.9.4.2.8.5,1.2.7.4.3.8.5,1.2.8.2.1.4.2.6.4,1.5.9,3.2,1.6,4.8,2.3.5.2.9.5,1.3.7,1,.7,2,1.5,3.1,2.1.5.2.9.5,1.3.8,1,.5,1.9,1.1,2.6,2,.7,1,1.2,2.1,1.5,3.2,2.3,10.9,4.8,21.7,8.5,32.2.9,2.5,1.9,5,1.4,7.8-.2.6-.5,1.1-.9,1.6-.5.3-1.1.5-1.7.5-1.4,0-2.7-.6-4-1-.5-.1-1-.3-1.4-.5-1.2-.5-2.4-.6-3.6-.9-.5-.1-1-.3-1.4-.4-1-.3-2-.5-3-.7-.5,0-1-.2-1.5-.4-1-.3-1.9-.7-2.9-1-.5-.1-1-.3-1.4-.5-1.2-.4-2.4-.6-3.6-.9-.5-.1-1-.3-1.4-.5-.9-.8-2.4-.9-2.9-2.2h0Z"/>
    <path class="st4" d="M39.2,319.7c-.3,0-.6,0-.8-.3-1.3-2.5-4.2-2.4-6.3-3.6h0c-.5-.4-.8-1-1.5-1.1h.1c-.5-1-1.7-.7-2.5-1.3h0c-.5-.9-1.8-.6-2.4-1.3h0c-1.2-.9-2.5-1.8-3.9-2.3h0c-.9-1.3-2.5-1.6-3.6-2.7,0-1.7-1.2-3.3,0-5,.4-.5.9-.6,1.4-.1h0c1.8,1.7,4.2,2.5,6.4,3.7h0c.2.3.4.6.6.9.2.4.4.7.6,1,.5,0,.9.1,1.4.1,1.3.3,2.4,1.3,3.7,1.7h0c.5,1,1.7.8,2.5,1.3h0c.5.9,1.8.7,2.5,1.3h0c1.2,1,2.5,1.8,3.9,2.4h0c.5,1,1.8.7,2.5,1.3h0c1.6,1.3,3.3,1,5,.1h0c.4-.4.8-.8,1.2-1.2h0c.4-.4.9-.8,1.2-1.2.3-.5.6-1,.9-1.5h0c1.3-.2,1.1-1.4,1.5-2.3h0c.8-.6.6-1.8,1.3-2.4h0c.4-.5,1-.8,1.1-1.5h0c.5,0,1,.1,1.5.2,2.3-2.3,3,.3,4.1,1.4h0c-1.9,1-1.8,3.2-2.8,4.8h0c-.9,1.3-1.8,2.5-2.3,4h0c-.3.2-.7.4-1.1.4-.4.2-.6.6-.5,1.1-.8,1-.3,2.4-1.1,3.3h0c-.5.5-.7,1-.7,1.7-.2.4-.3.8-.4,1.2.1.3,0,.6,0,.9-1.3,2.3-3,2.8-5.2,1.3-.4-.7-.9-1.3-1.3-2-.3-1.4-1.7-1.1-2.5-1.7h0c-1.2-1.1-2.5-2-4.2-2.4h0Z"/>
    <path class="st27" d="M41.3,364.4c.3-.1.6,0,.8.2,1.1,1.1,2.7.2,3.9,1.1h0c1.3,1.7,3.6,0,5,1.3h0c1.1,1.3,2.9.4,4.2,1.2.3-.2.5-.1.7.1.6.7,1.2.6,1.9.1.9-1,2.2-1.2,3.4-1.5.9-.3,1.8-.7,2.8-1,.2,0,.5,0,.7,0,1.1.3,2.2.7,3.6,1.1.2,2.2-2.7,4-1.1,6.4-.2,1.1-.4,2.2-.7,3.4-1.7.1-3,.2-4.4.3-.4-.4-.8-.8-1.2-1.2-1.4-1.4-3.3-1.7-5-2.4-.4-.5.1-1,0-1.5-.5,0-.5.8-1,.7-2.3,0-4.6,0-6.5-1.7-.4-.5.2-1,0-1.5-.4.3-.2.9-.7,1.1-2.7.5-5.2-.4-7.7-1.3-.7-.4-1.3-.8-2-1.3-.6-.4-1.2-.9-1.7-1.4-1.1-.6-.3,1-1,.9-1.5.2-3.1.5-4.5-.5-1.2-.9-.2-3.6-3.4-2.5,1.1-1.3,1.7-1.9,2.2-2.5.8-.7,1.7-.7,2.6-.1h0c1.4,1.6,3.6,0,5,1.3h0c1.1,1.3,2.9.4,4.1,1.2h0Z"/>
    <path class="st37" d="M35.9,365.8c1,0,2,.2,2.5,1.2.4.4.8.9,1.2,1.2,2.8,1.2,5.6,2.3,8.8,1.2h0c1.8,3,5.1,1.4,7.5,2.5h0c1.2,1.8,4.4,1.1,5,3.8-10-2-19.5-6.3-29.8-7.1,0-.5-.1-1.1-.2-1.7,1.7-.2,3.7.6,5-1.2h0Z"/>
    <path class="st8" d="M18.4,307c1.9,0,3.2.8,3.6,2.8l-3.5-1.1c0-.5-.1-1.1-.1-1.6h0Z"/>
    <path class="st8" d="M19.7,302c-.5,0-.9,0-1.4.1-1-.6-1.2-1.5-1.2-2.6.9.8,1.7,1.6,2.6,2.5h0Z"/>
    <path class="st37" d="M32.2,362c-.9,0-1.7,0-2.6.1-.4-.6-.7-1.2-1.1-1.8,1.2.6,2.5,1.1,3.7,1.7h0Z"/>
    <path class="st7" d="M41,399.7c-.7-.2-1.2-.3-1.9-.5,1-1.1,1.3-.1,1.9.5Z"/>
    <polygon class="st7" points="10.9 258.3 11.4 258.6 11.2 258.8 10.9 258.3"/>
    <polygon class="st7" points="40.9 399.6 41.4 399.9 41.2 400.1 40.9 399.6"/>
    <path class="st35" d="M244.9,512.5c.7-4.7,1.4-9.6,2.2-14.6-7.9-1.3-15.4-2.5-24.4-4,3.9-3.2,6.5-1.9,8.6-1.7,9.9,1.3,19.7,3,29.5,4.4,3.6.5,7.5,1.8,10.4-1.8,2.1,1.6,4.4,2.8,4.9,6.5-8,.3-15.5-2-23.4-2.7-2.6,4.3-1.2,9.6-3.1,14.3,4,2.6,8.6.5,11.9,3,1.9-1.1,3.3-2,4.8-2.9,2,1.5,4.2,2.6,4.7,6-7.4,1.3-14.2-2.4-21.8-1.8-.8,6-1.6,11.8-2.5,17.9,5.5,2.3,11.2,1.7,16.5,3.3,1.8-1.1,3.3-2,4.7-2.9,1.9,2.1,3.7,3.9,6.6,7-19.9-2-38.3-5.1-56.6-9.1,7.9-2.3,15.5,1.7,23.7,1,.9-5.8,1.8-11.7,2.9-18.2-6.3-1.1-12.6-2.2-18.9-3.2l.2-1.7c6.2-2,12.4,1.8,19.1,1.1h0Z"/>
    <path class="st35" d="M319.7,544.9c-2.8-.9-5.6-1.9-8.7-2.9,1.2-3,3.9-2,5.9-2.9,1-5.3-1.4-10.3-1.4-15.6-2.7-1.3-5.1.2-7.6,0-.7,1.2-1.4,2.4-2.1,3.5-.2.6-.4,1.3-1.2,1.5-.7-.4-1.8-.7-2-1.2-1.8-6.8-2.6-13.7-3.3-20.6,10.6.5,20.1-1.1,30.6-4.3.3.1,1.7.9,2.9,1.4,1.4,2.3.8,18.4-.6,19.9-1.9,0-1.8-2-3.9-2.9-1.9,0-4.8.1-8,1.4.7,5.2,1.4,10.5,2,15.7.4,2.8.2,5.4-2.6,7h0Z"/>
    <path class="st21" d="M311.2,489.7c.8-.1,1.5-.2,2.3-.3,1.2.4,2.4.7,3.5,1.1,1.2,2.2-2.1,3.9.2,6.4,4.8,1.5,9.9-1.6,15.5-1.2,1.3-1.5,2.6-3.1,3.9-4.7,2.4,1.3,5.4,1.8,7.3,5.7-19,3.2-37.6,6.1-56.5,7.3,7.6-4.4,16.5-3,24.5-6.1-.2-2.9-1.4-5.4-.6-8.1h0Z"/>
    <path class="st14" d="M325,526.4c9.5-1.5,19.3,3.6,20.9,11-3.1,1.4-12.5-3.5-20.9-11Z"/>
    <path class="st29" d="M304.6,528.6c.4-.5.8-1,1.2-1.5.4,3,4.1,2.5,5.2,5.3-6.7,4.5-10,13.2-19.2,16.2.1-1.3.2-2.1.3-2.8,5.6-4.7,9.9-10.4,12.6-17.2h0Z"/>
    <path class="st33" d="M253.6,521.9c8.5,1.4,12.4,6.7,8.8,12.1-4.2-3.1-5.3-8.5-8.8-12.1h0Z"/>
    <path class="st8" d="M393.4,497.1c3.9-1.3,7.1.4,10.1,2.6-3.5-.2-6.9-1-10.1-2.6Z"/>
    <path class="st8" d="M163.4,499.7c2.9-2.7,6.5-2.7,10.1-2.6-3.2,1.5-6.5,2.4-10.1,2.6Z"/>
    <path class="st2" d="M395.8,469.4c.1,2.8.7,5.7-2.2,7.7,0-2.7.6-5.3,2.2-7.7Z"/>
    <path class="st2" d="M392.1,483.2c-.1,2.7,1,5.8-2.2,7.5.4-2.6.6-5.3,2.2-7.5Z"/>
    <path class="st2" d="M173.2,477c-2.2-2.1-2.6-4.8-2.2-7.6,1.5,2.3,2.1,4.9,2.2,7.6Z"/>
    <path class="st2" d="M176.9,490.8c-3.3-1.8-2.1-4.9-2.2-7.7,1.5,2.3,1.8,5,2.2,7.7Z"/>
    <path class="st2" d="M397.1,464.3c-1.1,1.5,3.1,4.5-1.4,5.1.2-1.8,0-3.7,1.4-5.1Z"/>
    <path class="st2" d="M171.2,469.5c-2.2-1.2-1.3-3.2-1.4-5,1.5,1.4,1.2,3.3,1.4,5Z"/>
    <path class="st2" d="M393.4,478.3c0,1.7,0,3.4,0,5.1-.5,0-.9,0-1.4,0,0-1.8-.1-3.6,1.3-5h0Z"/>
    <path class="st8" d="M158.5,501.1c1.2-2.2,3.2-1.3,5-1.4-1.4,1.4-3.2,1.3-5,1.4Z"/>
    <path class="st8" d="M403.4,499.7c1.8.1,3.8-.8,5,1.4-1.8,0-3.6,0-5-1.4Z"/>
    <path class="st8" d="M149.7,503.5c1.2-2,3.2-1.2,5-1.3-1.4,1.4-3.2,1.3-5,1.3Z"/>
    <path class="st8" d="M412.2,502.1c1.8.1,3.8-.7,5,1.3-1.8,0-3.6,0-5-1.3Z"/>
    <path class="st8" d="M144.7,504.8c1.2-2.2,3.2-1.3,5-1.4-1.4,1.4-3.2,1.4-5,1.4Z"/>
    <path class="st2" d="M398.4,459.5c0,1.4.4,2.9-1.1,3.8-.1-1.4-.2-2.8,1.1-3.8Z"/>
    <path class="st8" d="M408.3,501c1.5-.1,2.9-.4,3.9,1.1-1.4,0-2.9.2-3.9-1.1Z"/>
    <path class="st2" d="M174.5,482.1c-1.4-1-1.1-2.4-1.1-3.8,1.2,1,1.3,2.4,1.1,3.8Z"/>
    <path class="st8" d="M154.7,502.1c.9-1.6,2.4-1.3,3.9-1.1-1,1.3-2.5,1.1-3.9,1.1Z"/>
    <path class="st20" d="M453.5,282.2c0,94.2-77.5,171.4-171.8,171.1-94-.2-170.9-77.5-170.8-171.5,0-94.2,77.5-171.4,171.8-171.1,94,.2,170.9,77.5,170.8,171.5h0Z"/>
    <path class="st8" d="M418.6,498.2c-3.3.3-6.3-.2-8.9-2.5,3.2.1,6.1.9,8.9,2.5Z"/>
    <path class="st8" d="M409.8,495.7c-1.8,0-3.8.8-5.1-1.3,1.8,0,3.6-.1,5.1,1.3Z"/>
    <path class="st8" d="M423.6,499.5c-1.8,0-3.8.8-5.1-1.3,1.8,0,3.6-.1,5.1,1.3Z"/>
    <path class="st8" d="M428.5,500.8c-1.8-.1-3.8.7-5-1.4,1.8,0,3.6,0,5,1.4Z"/>
    <path class="st8" d="M404.8,494.5c-1.4,0-2.9.4-3.9-1.1.5,0,1,0,1.5-.1.8.4,1.6.8,2.4,1.3h0Z"/>
    <path class="st4" d="M466,439.6c-1,0-2-.2-2.5-1.3.8-1,1.8-1,2.9-.8.5.2.9.5,1.1,1-.5.3-1,.7-1.4,1h0Z"/>
    <path class="st4" d="M468.5,437.1v1.2c-.3.2-.7.3-1,.3l-.3-.3c-.1-1,.3-1.4,1.3-1.2h0Z"/>
    <path class="st2" d="M402.3,466c-.4-4.6.5-8.9,3.5-12.6-.5,4.4-1.4,8.7-3.5,12.6Z"/>
    <path class="st2" d="M398.7,480c-1.6-3.7.7-6.3,2.5-9.1,0,3.2-1,6.2-2.5,9.1Z"/>
    <path class="st2" d="M401.1,471c0-1.8-.8-3.8,1.3-5.1-.2,1.8.1,3.6-1.3,5.1Z"/>
    <path class="st2" d="M397.4,484.7c-.2-.9-.4-1.9-.6-2.8.2-1,.9-1,1.7-1.1,0,1.4.2,2.9-1.1,3.9Z"/>
    <path class="st2" d="M396,487.1c0-1.1.3-2,1.5-2.4,0,.8-.1,1.6-.2,2.4-.4,0-.8,0-1.3,0h0Z"/>
    <path class="st2" d="M165.8,470.9c2.4,2.5,2.9,5.6,2.5,8.9-1.7-2.7-2.4-5.7-2.5-8.9Z"/>
    <path class="st2" d="M168.2,479.7c.7.3,1.3.6,2.1,1-.3,1.4-.5,2.7-.8,4-1.5-1.4-1.1-3.3-1.3-5Z"/>
    <path class="st2" d="M169.4,484.8c.6,0,1.1,0,2.1.1-.2.9-.4,1.5-.6,2.2-.4,0-.8,0-1.2,0,0-.8-.2-1.5-.2-2.3Z"/>
    <path class="st8" d="M509.8,374.5c3.8-3,8.3-3.6,12.9-3.5-4.1,1.9-8.5,2.9-12.9,3.5Z"/>
    <path class="st8" d="M506,375.8c.6-1,.9-2.8,2.6-1-.9.4-1.7.7-2.6,1Z"/>
    <path class="st2" d="M497.1,367.1c2,1.6,2.1,4,2.6,6.2-.4,0-.7,0-1.1,0-1-1.9-1.6-4-1.6-6.2h0Z"/>
    <path class="st34" d="M206.8,72.4c-1.5-2.2-2.4-3.7-2.1-6.1,3.9-2.1,8.4-3.6,12.9-4.9,1.1,1.8,2.1,3.6,2,6.1-4.2,1.6-8.3,3.2-12.8,4.9Z"/>
    <path class="st25" d="M502.2,365.8c0-.5.1-1.1.2-1.6,5.2-7.2,5.9-16,8.5-24.2,1.6-5.1,2.5-10.4,3.7-15.5,1.6.9,3.3,1.5,5.2,1.3-1.3,11.9-4.9,23.3-8.6,34.7-.8,2.5-2.3,4.9-1.5,7.8.3.3.4.6.3.9-.1.3-.2.4-.3.4-1.2-.4-2.5-.8-3.7-1.2-.4.4-.8.4-1.2,0-.4-.4-.8-.8-1.2-1.2-.4-.4-.8-.9-1.3-1.2h0Z"/>
    <path class="st8" d="M541,312.1c.4-.8.8-1.7,1.2-2.5,1.6-.7,2.9-2.9,5.1-1.1-1.8,1.7-3.9,3-6.3,3.6h0Z"/>
    <path class="st8" d="M529.9,318.5c.2-3.6,2.9-2.4,4.9-2.7-1.3,1.5-3,2.3-4.9,2.7Z"/>
    <path class="st8" d="M534.7,361.9c-1.2,2-3.3,1.2-5,1.3,1.4-1.4,3.2-1.3,5-1.3Z"/>
    <path class="st8" d="M520.9,365.6c-1.2,2.1-3.3,1.3-5,1.4,1.4-1.5,3.3-1.2,5-1.4Z"/>
    <path class="st8" d="M523.5,322.2c.7-2,2.1-2.7,4.2-2.5-1.1,1.3-2.4,2.2-4.2,2.5Z"/>
    <path class="st8" d="M524.7,364.6c-1,1.5-2.5,1.2-3.9,1.1,1-1.3,2.5-1.1,3.9-1.1Z"/>
    <path class="st8" d="M529.7,363.2c-1,1.7-2.6,1.3-4.2,1.2,1.2-1.2,2.7-1.2,4.2-1.2Z"/>
    <path class="st8" d="M516,366.9c-1,1.8-2.7,1.3-4.2,1.2,1.2-1.3,2.7-1.2,4.2-1.2Z"/>
    <path class="st8" d="M538.6,313.5c.4-1.1,1.4-1.4,2.5-1.4-.5,1-1.4,1.3-2.5,1.4Z"/>
    <path class="st8" d="M536.1,314.8c.3-1.3,1.4-1.5,2.5-1.4-.5,1-1.4,1.4-2.5,1.4Z"/>
    <path class="st8" d="M521.1,323.9c.2-1.4,1.2-1.8,2.5-1.7-.8.6-1.6,1.1-2.5,1.7Z"/>
    <path class="st8" d="M528.5,319.4c.5-.3.9-.6,1.4-1-.5.3-.9.6-1.4,1Z"/>
    <path class="st8" d="M534.8,315.8c.5-.4,1-.7,1.5-1.1-.5.4-1,.7-1.5,1.1Z"/>
    <path class="st8" d="M509.7,369.6c0-.4,0-.9,0-1.3.4-.1.8,0,1.2,0-.4.4-.8.8-1.3,1.3Z"/>
    <path class="st8" d="M25.9,307c0-.5,0-1,.1-1.4,2.4.7,4.6,1.8,6.3,3.7-1.7-.4-3.5-.7-5.2-1l-.6-.2c-.1-.4-.3-.8-.7-1h0Z"/>
    <path class="st8" d="M26,305.7c-2.7-.2-5.1-1-6.4-3.7,2.4.7,4.7,1.7,6.4,3.7Z"/>
    <path class="st8" d="M41.1,314.4c-2,.2-3.2-.6-3.9-2.4,1.6.3,3,1,3.9,2.4Z"/>
    <path class="st8" d="M48.4,315.8c-1.7,1.7-3.4,1.9-5-.2.3-.1.6-.1.9,0,1.3,0,2.7.1,4,.2Z"/>
    <path class="st8" d="M34.8,310.7c-1.2,0-2.2,0-2.5-1.4,1.1,0,2,.3,2.5,1.4Z"/>
    <path class="st8" d="M37.2,312c-1.1,0-2-.2-2.5-1.4,1,0,2,.4,2.5,1.4Z"/>
    <path class="st8" d="M43.5,315.7c-1.1,0-2.1,0-2.5-1.4,1,.1,2,.3,2.5,1.4Z"/>
    <path class="st8" d="M547.2,301.9c-1.3,2.7-3.6,3.5-6.4,3.7,1.7-2,3.9-3,6.4-3.7Z"/>
    <path class="st8" d="M529.7,312c-.7,1.8-2,2.6-3.9,2.4.9-1.4,2.3-2.1,3.9-2.4Z"/>
    <path class="st8" d="M518.5,315.8c1.3,0,2.7-.1,4.1-.2.3-.1.6-.1.9,0-1.6,2.1-3.2,1.9-5,.2Z"/>
    <path class="st8" d="M538.5,307c0,.5-.2,1.1-.3,2-.8-.2-1.4-.4-2.1-.6.8-.5,1.6-.9,2.4-1.3Z"/>
    <path class="st8" d="M540.9,305.6c-.4,1.2-1.4,1.4-2.5,1.4.5-1,1.4-1.3,2.5-1.4Z"/>
    <path class="st8" d="M534.6,309.3c-.4,1.3-1.4,1.5-2.5,1.4.5-1,1.5-1.3,2.5-1.4Z"/>
    <path class="st8" d="M532.2,310.6c-.4,1.2-1.4,1.4-2.5,1.4.5-1,1.4-1.3,2.5-1.4Z"/>
    <path class="st8" d="M525.9,314.3c-.4,1.3-1.4,1.5-2.5,1.4.5-1,1.5-1.3,2.5-1.4Z"/>
    <path class="st8" d="M536,308.4c-.5.4-1,.7-1.5,1,.5-.4,1-.7,1.5-1Z"/>
    <path class="st2" d="M502.1,300.9c.9.4,1.8.9,3,1.4-.1,1.1-.2,2.3-.4,3.5-1.4-1.3-2.4-2.9-2.7-4.9h0Z"/>
    <path class="st2" d="M510.8,315.9c2.2.9,4.2,1.9,2.7,4.9-1.5-1.3-2.3-3-2.7-4.9h0Z"/>
    <path class="st2" d="M502.5,364.4c-.6,0-1.1-.1-1.9-.2.2-1.2.4-2.4.6-3.5,1.3,1,1.2,2.4,1.3,3.7h0Z"/>
    <path class="st2" d="M511,313.3c0,.9-.1,1.8-.2,2.7-1.4-.9-2.1-2.3-2.3-3.9.8.4,1.7.8,2.5,1.2Z"/>
    <path class="st2" d="M505.7,307.2c1.3.4,1.5,1.4,1.4,2.5-1.1-.5-1.3-1.4-1.4-2.5Z"/>
    <path class="st2" d="M507.1,309.6c1.1.5,1.3,1.4,1.4,2.4-.5-.8-.9-1.6-1.4-2.4Z"/>
    <path class="st25" d="M513.4,320.8c1.2.6,1.3,1.6,1.2,2.8-.4-.9-.8-1.9-1.2-2.8Z"/>
    <path class="st2" d="M504.8,305.8c.4.5.7,1,1,1.5-.4-.5-.7-1-1-1.5Z"/>
    <path class="st25" d="M62.1,368.3c-1.8-.2-3.4.4-5,1.2-.3-.3-.4-.6-.3-.9,0-.3.2-.5.3-.5-.3-7.7-4.3-14.5-5.9-21.9-1.5-6.8-3.8-13.5-4.2-20.5,1.9.1,3.5-.5,5.2-1.3,2.6,10.1,5,20.3,7.9,30.3.9,3.2,1.3,7,4.4,9.2,0,.6.1,1.1.2,1.7h0c-1.1.6-1.9,1.4-2.5,2.5Z"/>
    <path class="st2" d="M54.6,315.8c.5,0,1,.1,1.5.2-.4,1.9-1.2,3.5-2.7,4.8-.6-1.9-.6-3.7,1.2-5h0Z"/>
    <path class="st2" d="M58.4,312c0-2.2.1-4.2,2.8-4.9-.3,2-1.3,3.5-2.8,4.9Z"/>
    <path class="st2" d="M56,316c-.3-1.9.6-3.2,2.3-3.9-.2,1.6-.9,3-2.3,3.9Z"/>
    <path class="st25" d="M52.3,323.6c0-.5,0-1.1-.2-1.6l.5-.3.5.3c-.2.5-.5,1.1-.8,1.6h0Z"/>
    <path class="st2" d="M53,322c-.3,0-.6,0-.9,0,.4-.4.8-.8,1.2-1.2-.1.4-.2.8-.3,1.2Z"/>
    <path class="st2" d="M53.3,309.5c.2.6.4,1.1.6,1.6-.5,1.1-1.3.8-2,.7.5-.8,1-1.5,1.5-2.3h0Z"/>
    <path class="st2" d="M54.6,307.1c0,1-.3,2-1.3,2.4,0-1,.4-1.9,1.3-2.4Z"/>
    <path class="st2" d="M55.7,305.6c-.4.5-.7,1-1.1,1.5.4-.5.7-1,1.1-1.5Z"/>
    <path class="st2" d="M508.6,300.7c-1.8-.7-2.7-1.9-2.4-3.9,1.4.9,2.1,2.3,2.4,3.9Z"/>
    <path class="st2" d="M509.9,303.2c-.6,0-1.1-.1-2.1-.2.3-.9.5-1.5.7-2.2,1,.5,1.3,1.4,1.4,2.4Z"/>
    <path class="st2" d="M511.2,305.7c-1.3-.4-1.5-1.4-1.4-2.5,1,.5,1.3,1.5,1.4,2.5Z"/>
    <path class="st2" d="M512.2,309.5v-2.5c1,.5,1.3,1.4,1.3,2.4-.4,0-.9,0-1.3,0Z"/>
    <path class="st2" d="M515,311.9c-1.3-.3-1.5-1.3-1.5-2.4,1,.5,1.4,1.4,1.5,2.4Z"/>
    <path class="st2" d="M511,307c0-.5.1-1,.2-1.4.4.5.7,1,1.1,1.4h-1.2Z"/>
    <path class="st3" d="M341,65.9c-.2.3-.4.6-.7,1.1-.5-1,0-1.2.5-1.3l.2.2h0Z"/>
    <path class="st8" d="M165.9,493.4c-1,1.5-2.4,1.2-3.9,1.1.8-.4,1.6-.8,2.4-1.3.5,0,1,0,1.5.1Z"/>
    <path class="st2" d="M170.9,488.3c0,1-.2,2-1.2,2.5,0-1,.2-2,1.2-2.5Z"/>
    <path class="st8" d="M169.7,490.8c-.5,1-1.5,1.2-2.5,1.2.5-1,1.5-1.2,2.5-1.2Z"/>
    <path class="st8" d="M167.2,492.1c-.4.4-.8.8-1.2,1.2.4-.4.8-.8,1.2-1.2Z"/>
    <path class="st20" d="M468.5,437.1c-.4.4-.9.8-1.3,1.2-1.2,0-2.5,0-3.7,0h0c-.4-.4-.8-.8-1.2-1.2,0-1.3,0-2.5.1-3.8,1.9-1.2,3.5-3,6.1-2.5h0c.4.2.6.5.6,1,.5.7.5-.3.9-.2.5,0,.8,0,1,.5,0,1.4.2,2.9-1.2,3.8v1.2c-.4,0-.8,0-1.2,0h0Z"/>
    <path class="st2" d="M397.2,490.8c-.8-.6-2.8-.7-1.2-2.5,1,.5,1.2,1.5,1.2,2.5Z"/>
    <path class="st8" d="M399.7,492.1c-1,0-2-.2-2.5-1.2,1,0,2,.2,2.5,1.2Z"/>
    <path class="st4" d="M462.2,437.1c.4.4.8.8,1.2,1.2-.4-.4-.8-.8-1.2-1.2Z"/>
    <path class="st8" d="M401,493.3c-.4-.4-.8-.8-1.2-1.2.4.4.8.8,1.2,1.2Z"/>
    <path class="st32" d="M99.8,394.6c1.7,3.3,1.7,6.6,0,9.9v-9.9Z"/>
    <path class="st32" d="M99.8,384.6c1.6,2.1,1.6,4.1,0,6.2,0-2.1,0-4.1,0-6.2Z"/>
    <path class="st32" d="M99.8,407.1c1.4,1.2,1.4,2.5,0,3.7,0-1.2,0-2.5,0-3.7Z"/>
    <path class="st8" d="M98.4,430.8c-.9,1.5-2.3,1.2-3.7,1.3.8-1.5,2.3-1.2,3.7-1.3Z"/>
    <path class="st32" d="M99.8,414.6c1.1.8,1.1,1.6,0,2.5v-2.5Z"/>
    <path class="st32" d="M99.8,422.1c1.1.8,1.1,1.7,0,2.5,0-.8,0-1.7,0-2.5Z"/>
    <path class="st32" d="M99.8,425.8c1.2.9,1.1,1.7-.1,2.5,0-.8,0-1.7.1-2.5Z"/>
    <path class="st32" d="M99.6,428.3c0,1-.2,2-1.3,2.5,0-1,.2-2,1.3-2.5Z"/>
    <path class="st32" d="M99.8,412.1c.1.3.3.6.4.9,0,0-.2.2-.4.4v-1.3h0Z"/>
    <path class="st8" d="M92.1,433.4c-.4.7-.8.7-1.2,0h1.2Z"/>
    <path class="st32" d="M467.1,403.3c-1.4-1.2-1.4-2.5,0-3.7,0,1.2,0,2.5,0,3.7Z"/>
    <path class="st32" d="M467.1,388.3c-1.4-1.2-1.4-2.5,0-3.7v3.7Z"/>
    <path class="st8" d="M471,432.1h-1.2c-.4.4-.8.4-1.2,0v-1.2c1.4,0,2.8-.2,3.7,1.3h-1.2Z"/>
    <path class="st2" d="M499.8,375.8c.4.4.8.8,1.2,1.2-.4-.4-.8-.8-1.2-1.2Z"/>
    <path class="st32" d="M467.1,395.8c-.1-.3-.3-.6-.4-.9,0,0,.2-.2.4-.4v1.2h0Z"/>
    <path class="st32" d="M467.2,428.3c-.2-.3-.4-.6-.5-.9,0,0,.3-.2.4-.4,0,.4,0,.8,0,1.3h0Z"/>
    <path class="st32" d="M468.5,429.6l-1.2-1.2,1.2,1.2Z"/>
    <path class="st8" d="M479.7,434.6v-1.2c.4,0,.8,0,1.2,0-.4.4-.8.8-1.2,1.2Z"/>
    <path class="st8" d="M483.5,434.6v-1.2h1.2c-.4.4-.8.8-1.2,1.2h0Z"/>
    <path class="st8" d="M493.5,433.4c-.4.7-.8.7-1.2,0,.4,0,.8,0,1.2,0Z"/>
    <polygon class="st2" points="399.7 459.6 400.2 459.9 400 460.1 399.7 459.6"/>
    <polygon class="st2" points="393.5 483.3 394 483.6 393.8 483.9 393.5 483.3"/>
    <path class="st2" d="M511,307c-.4.4-.8.7-1.5,1.3,0-1.6.9-1.1,1.4-1.3h0Z"/>
    <polygon class="st8" points="542.2 309.5 541.7 309.3 542 309 542.2 309.5"/>
    <path class="st2" d="M516,313.3c.4.4.8.8,1.3,1.2-.4-.4-.8-.8-1.3-1.2Z"/>
    <polygon class="st2" points="512.2 313.3 512.8 313.6 512.5 313.8 512.2 313.3"/>
    <path class="st2" d="M511,313.3c.2-.2.4-.5.6-.7.2.2.4.5.6.7h-1.3Z"/>
    <polygon class="st2" points="512.2 309.5 512 310.1 511.7 309.8 512.2 309.5"/>
    <path class="st2" d="M49.6,314.5c-.4.4-.8.8-1.2,1.2.4-.4.8-.8,1.2-1.2Z"/>
    <path class="st2" d="M50.9,313.3c-.4.4-.8.8-1.2,1.2.4-.4.8-.8,1.2-1.2Z"/>
    <path class="st2" d="M502.2,365.8c.4.4.8.8,1.3,1.2-.4-.4-.8-.8-1.3-1.2Z"/>
    <path class="st8" d="M504.7,368.3c.4,0,.8,0,1.2,0-.2.2-.4.4-.6.7-.2-.2-.4-.5-.6-.7Z"/>
    <polygon class="st8" points="483.5 434.6 483.2 435.1 483 434.9 483.5 434.6"/>
    <polygon class="st8" points="479.7 434.6 479.5 435.1 479.2 434.9 479.7 434.6"/>
    <path class="st8" d="M157.1,495.7c-2.3,3.2-5.6,2.7-8.8,2.5,2.7-1.7,5.7-2.4,8.8-2.5Z"/>
    <path class="st8" d="M162.1,494.5c-1.3,2.1-3.3,1.2-5.1,1.3,1.4-1.4,3.3-1.3,5.1-1.3Z"/>
    <path class="st8" d="M148.3,498.1c-1.2,2.2-3.3,1.3-5.1,1.3,1.4-1.5,3.3-1.3,5.1-1.3Z"/>
    <path class="st8" d="M138.4,500.8c-1.3,2-3.3,1.2-5,1.3,1.5-1.3,3.2-1.3,5-1.3Z"/>
    <path class="st8" d="M143.4,499.4c-1.2,2.1-3.2,1.2-5,1.4,1.4-1.4,3.2-1.4,5-1.4Z"/>
    <path class="st8" d="M32.2,315.8c2.2,1,6.2-1.2,6.3,3.6-2.3-.8-4.5-1.9-6.3-3.6Z"/>
    <path class="st37" d="M37.2,363.2c-1.8-.1-3.8.7-5-1.3,1.8,0,3.6-.1,5,1.3Z"/>
    <path class="st37" d="M51,367c-1.8,0-3.8.8-5-1.4,1.8.1,3.7-.2,5,1.4Z"/>
    <path class="st8" d="M21.9,309.7c1.9-.3,3.2.6,3.9,2.3-1.6-.3-3-.9-3.9-2.3Z"/>
    <path class="st8" d="M39.2,319.7c2-.3,3.5.5,4.2,2.5-1.7-.2-3-1.2-4.2-2.5Z"/>
    <path class="st37" d="M46,365.7c-1.4.1-2.9.4-3.9-1.1,1.4,0,2.9-.3,3.9,1.1Z"/>
    <path class="st37" d="M41.3,364.4c-1.5.1-3.1.5-4.1-1.2,1.5,0,3,0,4.1,1.2Z"/>
    <path class="st37" d="M55.1,368.1c-1.5.1-3.2.6-4.2-1.2,1.5,0,3.1,0,4.2,1.2Z"/>
    <path class="st8" d="M25.9,312.1c1.1,0,2,.3,2.4,1.4-1,0-1.9-.4-2.4-1.4Z"/>
    <path class="st8" d="M28.2,313.4c1.1,0,2.1,0,2.5,1.4-1.1,0-2-.4-2.5-1.4Z"/>
    <path class="st8" d="M43.3,322.1c1.2,0,2.2.3,2.5,1.7-.8-.6-1.7-1.1-2.5-1.7Z"/>
    <path class="st8" d="M30.6,314.7c.5.4,1,.7,1.5,1.1-.5-.4-1-.7-1.5-1.1Z"/>
    <path class="st37" d="M57.1,368.2c0,.4,0,.9,0,1.3-.4-.4-.8-.9-1.3-1.3.4-.1.8-.1,1.2,0Z"/>
    <path class="st2" d="M54.6,315.8c-.5-.1-1.1-.2-1.8-.4,1-1.1,1.3-.2,1.8.4h0Z"/>
    <path class="st8" d="M27.1,308.3c-.2.2-.4.5-.6.7-.2-.2-.4-.5-.6-.7.4-.4.8-.4,1.2,0h0Z"/>
    <path class="st20" d="M27.1,308.3h-1.2v-1.2c.4.4.8.8,1.2,1.2Z"/>
    <polygon class="st2" points="57.1 305.8 57.7 306.1 57.4 306.3 57.1 305.8"/>
    <path class="st2" d="M62.1,368.3c0-1.6.9-2.5,2.5-2.5-.5,1.2-1.3,2-2.5,2.5Z"/>
    <path class="st20" d="M39.6,368.3c-.4-.4-.8-.8-1.2-1.2.4.4.8.8,1.2,1.2Z"/>
    <path class="st37" d="M35.9,365.8c-.2-.1-.3-.2-.5-.3.2.1.3.2.5.3h0Z"/>
    <path class="st37" d="M55.9,372.1c0-.2.2-.4.3-.5,0,.2-.2.4-.3.5h0Z"/>
    <path class="st37" d="M48.4,369.6c0-.2.2-.4.3-.5,0,.2-.2.4-.3.5h0Z"/>
    <path class="st0" d="M329.2,517.3c-7.8,1.2-15.1,2.3-22.8,3.5-.6-3.1-1.2-6.1-2-10,7.9-1.2,15.4-2.4,23.4-3.6.5,3.4.9,6.4,1.4,10.2Z"/>
    <path class="st4" d="M468.5,432.1h1.2c-.2.2-.4.4-.6.7-.2-.2-.4-.5-.6-.7Z"/>
    <polygon class="st4" points="466 434.6 466.3 434 466.5 434.3 466 434.6"/>
    <polygon class="st4" points="466 434.6 465.7 435.1 465.5 434.9 466 434.6"/>
    <polygon class="st4" points="469.7 435.8 469.2 435.5 469.4 435.3 469.7 435.8"/>
  </g>
  <g>
    <path class="st6" d="M204.3,316h-53.9c-3.9-6-7.8-12-12.1-18.6h65.6v-11.8h-73.2c-3.9-6.1-7.8-12.1-11.9-18.4h103.8v69.2c11.8,8.3,23.5,16.4,35.6,24.9v-77.5c8-5.9,15.9-11.6,23.9-17.4,7.9,5.8,15.7,11.4,23.5,17.1.6,25.8.1,51.5.1,77.9,12.2-8.5,23.8-16.6,35.7-24.9v-69.3h103.9c-4,6.2-7.8,12.1-11.7,18.3h-73.3v11.7h65.7c-4.3,6.6-8.1,12.7-12.1,18.8h-53.7c-.5,3.8-.2,7.5-.2,11.7,15.4-.9,30.6.6,46.6-.3-4.4,6.8-8.3,12.7-12.2,18.8h-34.2c-26,18.1-51.8,36.2-77.9,54.4-3.1-2.2-6.3-4.3-9.5-6.5-21.9-15.3-43.9-30.6-65.8-46-1.9-1.3-3.7-1.8-5.9-1.8-10.3,0-20.5,0-31,0-4-6-7.9-12.1-12.2-18.7h46.1c.8-3.8-.1-7.5.4-11.6h0ZM299.8,365.5v-79.1c-5.8-4.2-11.7-8.5-17.6-12.9-6.1,4.5-12,8.8-18,13.1,1,26.3,0,52.5.2,78.7,2.9,2,5.4,4.2,8.8,5.7v-80c3.1-2.2,6-4.3,9-6.5,3.1,2.3,6,4.4,9,6.6v80.3c3.2-2.2,5.9-4.1,8.5-6h0Z"/>
    <path class="st31" d="M305,236.9c4.7,14.4,9.3,28.5,14.2,43.6-12.8-9.3-24.8-18-37.1-27-12,8.8-24.1,17.6-37.1,27,4.9-15.1,9.5-29.3,14.2-43.6-12.2-8.8-24.2-17.5-36.9-26.8h45.6c4.6-14.4,9.2-28.5,14.1-43.7,4.9,15.1,9.5,29.2,14.1,43.6h45.9c-12.9,9.3-24.8,18-37.1,26.9h0Z"/>
  </g>
  <g class="st19">
    <g class="st19">
      <path class="st26" d="M224,51.3l.7,16,7.3-1.2-1.3-23.1-7.8,1.3c-2.3.4-4.3,1-6.1,1.8l-2.7-2,15.9-2.6,1.4-2.9,5,2.9-2.1,1.9,1.2,22.1,1.3-.2,1.5-2.6,4.5,2.8-1.9,1.6c.6,11.5.7,18.4.4,20.7-.3,2.3-1,4.1-2.1,5.3-1.1,1.2-2.6,2.2-4.6,2.9-.2-2.5-2.6-4.1-7.2-5v-1.1c3.9.5,6.5.6,7.9.3,1.4-.2,2.2-1.6,2.6-4,.3-2.5.2-8.9-.4-19.4l-12.3,2-1.5,2.1-3.6-2.6,1.6-1.6c-.4-9.4-.9-15.9-1.5-19.3l6,2-1.8,1.9ZM219.1,81.3c2.2-.5,8-2.6,17.2-6.3l.4,1c-8.6,4.3-13.4,7.4-14.3,9.3l-3.3-4ZM238.1,60.8l32.2-5.2,2.9-3.7,5.2,4-8.9,1.4,4.2,26.1c.7,3.3-.7,5.8-4.1,7.6-.6-2.4-3.4-3.7-8.4-4l-.2-1c3.7-.4,6.2-.7,7.7-.7,1.2-.2,1.7-1.2,1.4-2.9l-4-24.6-19.1,3.1c-2.3.4-4.3,1-6.1,1.8l-2.7-2ZM238.2,43.1l14.1-2.3c-.2-3.5-.6-6.5-1.2-8.9l6.1,1.4-1.6,1.9c0,1.6.2,3.3.3,5.1l8.4-1.4,2.9-3.7,5.2,4-16.5,2.7c-.1,1.5-.3,3-.6,4.7,7.4.4,11.7,1.2,12.8,2.2,1.2,1.1,1.7,2.2,1.6,3.4,0,1.2-.3,1.8-.6,1.8-.4,0-.8-.1-1.4-.6-1.2-1-2.9-2.1-5.1-3.2-2.1-1.1-4.7-1.9-7.7-2.5-2.3,4.8-6.7,8.8-13.4,11.8l-.4-.7c7.5-4.8,11.1-10.2,11.1-16.3l-5.2.8c-2.3.4-4.3,1-6.1,1.8l-2.7-2ZM261.7,67.2c1.1,6.6,1.8,10.9,2.3,12.8l-3.4,2.2-.6-3.7-8.4,1.4.5,2.9-3.4,2.2c-.2-2.1-.6-5.1-1.2-8.9-.6-3.8-1.3-7.3-1.9-10.4l4,1.2,8.1-1.3,1.2-2.3,4.4,2.2-1.6,1.9ZM249.8,68.3l1.6,9.9,8.4-1.4-1.6-9.9-8.4,1.4Z"/>
    </g>
    <g class="st19">
      <path class="st13" d="M224,51.3l.7,16,7.3-1.2-1.3-23.1-7.8,1.3c-2.3.4-4.3,1-6.1,1.8l-2.7-2,15.9-2.6,1.4-2.9,5,2.9-2.1,1.9,1.2,22.1,1.3-.2,1.5-2.6,4.5,2.8-1.9,1.6c.6,11.5.7,18.4.4,20.7-.3,2.3-1,4.1-2.1,5.3-1.1,1.2-2.6,2.2-4.6,2.9-.2-2.5-2.6-4.1-7.2-5v-1.1c3.9.5,6.5.6,7.9.3,1.4-.2,2.2-1.6,2.6-4,.3-2.5.2-8.9-.4-19.4l-12.3,2-1.5,2.1-3.6-2.6,1.6-1.6c-.4-9.4-.9-15.9-1.5-19.3l6,2-1.8,1.9ZM219.1,81.3c2.2-.5,8-2.6,17.2-6.3l.4,1c-8.6,4.3-13.4,7.4-14.3,9.3l-3.3-4ZM238.1,60.8l32.2-5.2,2.9-3.7,5.2,4-8.9,1.4,4.2,26.1c.7,3.3-.7,5.8-4.1,7.6-.6-2.4-3.4-3.7-8.4-4l-.2-1c3.7-.4,6.2-.7,7.7-.7,1.2-.2,1.7-1.2,1.4-2.9l-4-24.6-19.1,3.1c-2.3.4-4.3,1-6.1,1.8l-2.7-2ZM238.2,43.1l14.1-2.3c-.2-3.5-.6-6.5-1.2-8.9l6.1,1.4-1.6,1.9c0,1.6.2,3.3.3,5.1l8.4-1.4,2.9-3.7,5.2,4-16.5,2.7c-.1,1.5-.3,3-.6,4.7,7.4.4,11.7,1.2,12.8,2.2,1.2,1.1,1.7,2.2,1.6,3.4,0,1.2-.3,1.8-.6,1.8-.4,0-.8-.1-1.4-.6-1.2-1-2.9-2.1-5.1-3.2-2.1-1.1-4.7-1.9-7.7-2.5-2.3,4.8-6.7,8.8-13.4,11.8l-.4-.7c7.5-4.8,11.1-10.2,11.1-16.3l-5.2.8c-2.3.4-4.3,1-6.1,1.8l-2.7-2ZM261.7,67.2c1.1,6.6,1.8,10.9,2.3,12.8l-3.4,2.2-.6-3.7-8.4,1.4.5,2.9-3.4,2.2c-.2-2.1-.6-5.1-1.2-8.9-.6-3.8-1.3-7.3-1.9-10.4l4,1.2,8.1-1.3,1.2-2.3,4.4,2.2-1.6,1.9ZM249.8,68.3l1.6,9.9,8.4-1.4-1.6-9.9-8.4,1.4Z"/>
    </g>
  </g>
  <g class="st19">
    <g class="st19">
      <path class="st26" d="M321,42.1c.3-2.1.7-5.1,1.2-8.9l6.1,4-2.7,1.7-3.2,19.3,18.3,3,4.9-3.5,4.8,6.7-28.2-4.7-4.5,27.2,14.4,2.4,4.6-3.3,4.6,6.4-41-6.8c-2.3-.4-4.4-.5-6.4-.2l-2-2.7,22,3.6,4.5-27.2-18.8-3.1c-2.3-.4-4.4-.5-6.4-.2l-2-2.7,27.4,4.5,2.5-15.4Z"/>
    </g>
    <g class="st19">
      <path class="st13" d="M321,42.1c.3-2.1.7-5.1,1.2-8.9l6.1,4-2.7,1.7-3.2,19.3,18.3,3,4.9-3.5,4.8,6.7-28.2-4.7-4.5,27.2,14.4,2.4,4.6-3.3,4.6,6.4-41-6.8c-2.3-.4-4.4-.5-6.4-.2l-2-2.7,22,3.6,4.5-27.2-18.8-3.1c-2.3-.4-4.4-.5-6.4-.2l-2-2.7,27.4,4.5,2.5-15.4Z"/>
    </g>
  </g>
</svg>