<svg enable-background="new 0 0 113.4 113.4" viewBox="0 0 113.4 113.4" xmlns="http://www.w3.org/2000/svg"><circle cx="57.1" cy="57.4" fill="#afc910" r="55.5"/><path d="m56.6 113.4c-31.3 0-56.6-25.5-56.6-56.9 0-31.3 25.5-56.6 56.9-56.5 31.3 0 56.5 25.5 56.5 57-.1 31.1-25.5 56.4-56.8 56.4zm.1-111.5c-30.2 0-54.8 24.5-54.8 54.7 0 30.3 24.5 54.9 54.8 54.9 30.2 0 54.8-24.6 54.8-54.7 0-30.3-24.5-54.9-54.8-54.9z" fill="#b3cc21"/><path d="m56.7 1.9c30.3 0 54.8 24.6 54.8 54.9 0 30.2-24.6 54.8-54.8 54.7-30.3 0-54.8-24.6-54.8-54.9 0-30.2 24.6-54.7 54.8-54.7zm8.2 103.1c0-.1 0-.1 0-.2.3-.1.7 0 1-.2-.1-1.7-1-2.9-2.6-3-1.4-.1-2.6.9-2.9 2.3-.3 1.3.5 2.7 1.8 3.2 1.4.5 2.7-.1 3.4-1.5-.1-.4-.6-.3-.7-.6zm-32.4-4.2c0 .7.6.7 1 .9.9-1.5 1.7-2.9 2.5-4.3-.5-.4-.9-.8-1.4-.3-.1-.2-.2-.4-.3-.5-.7-1.2-2-1.8-3.3-1.4-1.2.4-2.1 1.6-2 2.8.1 1.3 1.1 2.3 2.4 2.6.4.1.8-.1 1.1.2zm13.4 5.3.2.2c-.1.8-.3 1.6-.5 2.5.5-.1.8.3 1.2.1.6-2.4 1.2-4.8 1.7-7.1-.6-.2-1-.4-1.4-.1-1.8-1.3-3.5-1.3-4.5.2-.7 1-.8 2.2-.2 3.2.9 1 2.1 1.2 3.5 1zm40.7-85.2c-.1-.1-.2-.1-.2-.2.5-1.4 1-2.9 1.5-4.3-.5-.4-.9-.7-1.3-1.1-2.1 1.5-4.1 3-6.3 4.6.5.4.9.7 1.3 1.1 1.1-.8 2.1-1.5 3.2-2.3.1.1.2.2.3.3-.4 1.2-.9 2.5-1.3 3.8.4.3.7.8 1.3 1 1.2-.7 2.4-1.4 3.7-2 .1.1.1.1.2.2-.6 1.2-1.1 2.5-1.7 3.7.3.5.7.8 1.3 1.1 1.1-2.3 2.2-4.6 3.3-6.9-.5-.4-.8-.8-1.4-1.1-1.2.6-2.5 1.3-3.9 2.1zm9.8 35.8c0-21.9-17.7-39.7-39.6-39.7s-39.7 17.7-39.7 39.6c0 22 17.7 39.7 39.7 39.7 21.8.1 39.6-17.7 39.6-39.6zm-50.9-43.6c.3-2.6-.7-4.3-2.7-4.9-1.8-.6-3.8.2-4.7 1.8-1 1.7-.6 3.6.8 5 1.5 1.4 3.5 1.3 5.7-.3.4.1.7.3 1.1.5.3-.4.7-.9.7-1.4-.2-.3-.5-.5-.9-.7zm9.3-1.4c.7-2.8.1-4.5-1.8-5.5-1.6-.9-3.6-.5-4.9.9-1.2 1.4-1.3 3.3-.3 4.8 1.2 1.8 3 2.1 5.8 1.1.4.1.6.6 1.1.6.4-.3.7-.7.9-1.2-.2-.2-.5-.5-.8-.7zm-34.4 9c1.7 1.9 3.3 3.7 4.9 5.6.5-.3.9-.6 1.2-1-.7-.8-1.4-1.6-2.1-2.5.9-.8 1.7-1.5 2.6-2.3.8.9 1.5 1.7 2.2 2.5.4-.4.8-.7 1.2-1.1-1.7-1.9-3.3-3.7-4.9-5.6-.5.3-.9.6-1.2 1.1.5.6 1 1.3 1.6 1.9-.9.8-1.8 1.5-2.6 2.3-.6-.7-1.2-1.2-1.7-1.9-.4.3-.7.6-1.2 1zm58-3.6c.2.7-.1 1.3.2 1.9.5.1.8.6 1.5.5.2-2.7.3-5.3.5-8-.6-.3-1.1-.5-1.6-.8-2.1 1.7-4.1 3.4-6.3 5.2.6.3 1.1.6 1.6.8.5-.4 1-.7 1.4-1.1.9.6 1.8 1.1 2.7 1.5zm-45.7 1.4c1-.6 1.9-1.1 2.8-1.6.5.4 1 .7 1.5 1 .4-.3 1-.5 1.4-1-2.2-1.6-4.3-3.2-6.5-4.7-.5.3-1 .6-1.5.9.3 2.7.6 5.3 1 8 .6-.2 1.1-.5 1.5-.9-.1-.6-.2-1.1-.2-1.7zm27.4-6.7c.9 1.4 2 1.8 3.4 1.9 1.7.1 3-.8 3.2-2.1.2-1.2-.8-2.2-2.5-2.6-.3-.1-.7-.1-1-.2s-.7-.2-.8-.7c1-.9 2-.3 2.9.2.4-.3 1-.2 1.2-.8-1.1-1.4-2.9-1.9-4.4-1.3-.9.4-1.4 1-1.4 1.9s.5 1.4 1.2 1.8c.5.3 1.1.4 1.7.5s1.3.1 1.5.9c-1 1-2 .9-3.5-.2-.5.3-.9.5-1.5.7zm-32.3 76.1c-1.8 2.2-3.5 4.3-5.1 6.4.3.4.6.6 1 .7.7-.5 1-1.3 1.7-1.8.3.3.6.6 1.1.9v3.5c.5 0 .9.2 1.2-.2 0-.9-.2-1.7 0-2.6 1.9.1 3-.5 3.5-1.9.5-1.2 0-2.4-1.4-3.5-.6-.5-1.2-.9-2-1.5zm25.8 11.3v8.1c.4 0 .7.1 1.1-.1.2-.8-.1-1.6.3-2.4h1.2c.8 1 1.5 1.9 2.3 2.8.4-.2.7-.4.9-.9-.5-.7-1.1-1.4-1.6-2.1.1-.1.2-.2.3-.2 1.3-.9 1.8-2.1 1.4-3.4-.4-1.2-1.4-1.9-3-1.9-1 0-1.8.1-2.9.1zm22.7 4.4c-.3-1-.6-2-.9-2.9-.5-1.3-1.9-1.9-3.1-1.5-.7.2-1.1.8-1.6 1.3-1.5-.4-2-.3-4.4.8.5 1.6 1 3.2 1.6 4.8.5 0 .9-.1 1.2-.4-.2-.8-.5-1.5-.7-2.3-.3-.8-.1-1.5.8-1.8s1.4.2 1.6 1c .3.8.4 1.6.9 2.4.4-.2.8-.1 1.1-.6-.2-.7-.5-1.5-.7-2.3-.2-.7-.1-1.4.7-1.7.8-.2 1.3.1 1.6.9s.6 1.7.8 2.5c.3.1.6 0 1.1-.2zm13.4-11.1c-1.1-1.5-2.5-1.9-3.8-1.1-1.3.7-1.8 2.2-1.3 3.5s1.9 2.1 3.3 1.7c1.4-.3 2.1-1.5 2-3.1-.2-.2-.6.1-.8-.2.2-.3.4-.5.6-.8zm-48.8 6c .3.3.5.5 1 .4.4-.1.7-.4.7-.9.1-.5-.4-.7-.6-1.1 0-.3.4-.6.2-1-1.9-1-3.3-.7-4.4.9-.3.4-.7.4-1 .4-.5.6-.4 1.1.1 1.4-.6 1.3-1.1 2.6-1.6 3.9.4.2.7.3 1.1.5.6-1.3 1.2-2.6 1.7-3.9.5 0 .8.4 1.2.2.2-.3.5-.6.3-1.1-.3-.2-.6-.3-.9-.5.7-1.2 1-1.3 2.7-1-.4.6-.8 1.1-.5 1.8zm26.6-84c1.6.5 3.1 1 4.5 1.4.3-.5.4-1 .5-1.6-1-.3-1.9-.6-2.9-1 .6-1.9 1.1-3.7 1.7-5.5-.5-.3-1-.5-1.6-.4-.7 2.3-1.4 4.6-2.2 7.1zm8.8 84.8c0 1.5 1.3 2.9 2.8 2.8 1.5 0 2.7-1.3 2.8-2.8 0-1.5-1.3-2.8-2.8-2.8-1.6.1-2.8 1.3-2.8 2.8zm5.4-3.5c.8 1.2 1.6 2.4 2.4 3.5.4-.2.8-.3 1-.8-.8-1.2-1.5-2.3-2.3-3.5.4-.3.6-.5.9-.8-.2-.4-.3-.8-.7-.9-.4 0-.6.5-1.1.4-.5-.7-1-1.4-1.4-2.1-.4.1-.8.3-1 .7.4.7.9 1.4 1.4 2.1-.2.2-.4.4-.6.6.2.3.4.6.6.9.3.1.5 0 .8-.1zm-23-82.6c0-2.5 0-5 0-7.5-.5.1-1-.1-1.6.2v7.2c.5.3 1 .2 1.6.1zm-18.6 91.3c.6-1.6 1.1-3.1 1.7-4.7-.5-.2-.8-.4-1.3-.3-.5 1.5-1.1 3.1-1.6 4.6.4.2.7.4 1.2.4z" fill="#fefefd"/><path d="m96.4 56.7c0 21.9-17.8 39.6-39.7 39.6s-39.7-17.8-39.7-39.7 17.8-39.6 39.7-39.6c21.9.1 39.7 17.8 39.7 39.7zm-40.1-36.6c-9.6 12.2-19.2 24.4-28.8 36.5.1.7.5 1 .8 1.4 4.7 5.9 9.4 11.8 14 17.7 4.4 5.6 8.8 11.2 13.2 16.7.4.5.7 1.2 1.7.8 9.6-12.1 19.2-24.2 28.8-36.5-1.7-2.2-3.4-4.3-5-6.3-7.8-9.8-15.5-19.6-23.3-29.4-.3-.4-.5-1-1.4-.9z" fill="#b0cb12"/><g fill="#b3cc21"><path d="m84.9 18.6c-1 .7-2.1 1.5-3.2 2.3-.4-.3-.8-.6-1.3-1.1 2.1-1.6 4.2-3 6.3-4.6.4.4.8.7 1.3 1.1-.5 1.4-1 2.9-1.5 4.3 0 .1 0 .2-.1.4.1-.1.2-.1.3-.2 1.3-.7 2.6-1.5 3.9-2.2.5.2.9.6 1.4 1.1-1.1 2.3-2.2 4.6-3.3 6.9-.5-.3-1-.6-1.3-1.1.6-1.2 1.1-2.5 1.7-3.7 0-.1 0-.2.1-.4-.2.1-.2.1-.3.2-1.2.7-2.4 1.4-3.7 2-.5-.2-.9-.6-1.3-1 .4-1.3.9-2.5 1.3-3.8.2-.2.3-.4-.1-.8-.1.3-.2.5-.2.6z"/><path d="m45.5 13.1c.4.2.7.4 1 .6-.1.6-.4 1-.7 1.4-.4-.2-.8-.3-1.1-.5-2.3 1.6-4.2 1.7-5.7.3-1.5-1.3-1.8-3.3-.8-5 .9-1.6 2.9-2.4 4.7-1.8 1.9.7 2.9 2.4 2.6 5zm-1.7-1c .1-1.3-.5-2.1-1.6-2.4-1-.3-2.2.2-2.6 1.2-.5 1-.2 2.2.7 2.9s1.8.6 2.7-.1c-.5-.3-.9-.5-1.4-.8.2-.5.4-1 .8-1.3.5 0 .9.5 1.4.5z"/><path d="m54.8 11.7c.3.2.5.5.8.8-.1.5-.5.8-.9 1.2-.5 0-.7-.5-1.1-.6-2.8 1.1-4.6.7-5.8-1.1-1-1.5-.9-3.5.3-4.8 1.3-1.4 3.2-1.8 4.9-.9 1.9.9 2.5 2.6 1.8 5.4zm-1.5-1.2c.4-1.2.1-2.2-1-2.8-1-.6-2.3-.3-3 .6s-.6 2.2.1 3 1.7.9 2.6.4c-.3-.4-.9-.6-1.1-1.2.3-.4.6-.7 1-1.1.5.4 1 .8 1.4 1.1z"/><path d="m20.4 20.7c.4-.4.8-.7 1.2-1.1.6.6 1.1 1.2 1.7 1.9.9-.8 1.7-1.5 2.6-2.3-.5-.6-1-1.3-1.6-1.9.3-.5.7-.8 1.2-1.1 1.6 1.8 3.2 3.7 4.9 5.6-.4.4-.8.7-1.2 1.1-.7-.8-1.4-1.6-2.2-2.5-.9.8-1.8 1.5-2.6 2.3.7.9 1.4 1.7 2.1 2.5-.4.4-.7.8-1.2 1-1.6-1.8-3.2-3.6-4.9-5.5z"/></g><path d="m78.4 17.1c-.9-.4-1.8-.9-2.7-1.4-.5.4-1 .7-1.4 1.1-.5-.2-1-.5-1.6-.8 2.1-1.8 4.2-3.5 6.3-5.2.5.3 1 .5 1.6.8-.2 2.7-.3 5.3-.5 8-.7.1-1-.4-1.5-.5-.3-.7 0-1.3-.2-2zm .4-4c-.7.6-1.1.9-1.7 1.4.6.3 1 .6 1.6.7 0-.6 0-1.2.1-2.1z" fill="#b3cc23"/><path d="m32.7 18.5c.1.6.1 1.2.2 1.7-.4.4-.9.6-1.5.9-.3-2.7-.6-5.3-1-8 .5-.3.9-.6 1.5-.9 2.1 1.6 4.3 3.1 6.5 4.7-.4.5-1 .7-1.4 1-.5-.4-.9-.7-1.5-1-1 .5-1.9 1-2.8 1.6zm-.4-4c-.1.8.1 1.4.2 2.1.5-.2 1-.4 1.4-.8-.5-.5-1-.8-1.6-1.3z" fill="#b3cc21"/><path d="m60.1 11.8c.6-.2 1-.4 1.4-.5 1.6 1.1 2.5 1.2 3.5.2-.2-.8-.9-.8-1.5-.9s-1.1-.2-1.7-.5c-.7-.4-1.3-1-1.2-1.8 0-.9.6-1.6 1.4-1.9 1.4-.6 3.3-.1 4.4 1.3-.2.5-.8.5-1.2.8-1-.5-1.9-1.1-2.9-.2.1.5.5.6.8.7s.7.2 1 .2c1.7.4 2.6 1.4 2.5 2.6-.2 1.3-1.5 2.2-3.2 2.1-1.3-.2-2.4-.7-3.3-2.1z" fill="#b3cc23"/><path d="m27.8 87.9c.7.6 1.4 1.1 1.9 1.6 1.4 1.2 1.9 2.3 1.4 3.5-.5 1.3-1.7 2-3.5 1.9-.2.9 0 1.8 0 2.6-.4.4-.7.2-1.2.2 0-1.2 0-2.4 0-3.5-.4-.4-.7-.6-1.1-.9-.8.4-1 1.3-1.7 1.8-.4-.1-.7-.4-1-.7 1.8-2.3 3.5-4.4 5.2-6.5zm-1.8 4.3c1 .6 1.6 1.8 3 1.3.6-.2 1.1-.7 1-1.4-.1-1.2-1.2-1.7-2.1-2.3-.6.8-1.2 1.5-1.9 2.4z" fill="#b3cc23"/><path d="m53.6 99.2h2.8c1.6 0 2.6.7 3 1.9.4 1.3-.1 2.5-1.4 3.4-.1.1-.2.1-.3.2.6.7 1.1 1.4 1.6 2.1-.2.5-.5.6-.9.9-.8-.9-1.5-1.8-2.3-2.8-.4 0-.8 0-1.2 0-.4.8 0 1.6-.3 2.4-.4.2-.8.1-1.1.1.1-2.8.1-5.5.1-8.2zm1.3 4.3c1.2 0 2.4.3 3.1-.8.3-.5.4-1.2-.1-1.6-.8-.8-1.9-.7-3-.5z" fill="#b3cc21"/><path d="m76.3 103.6c-.5.1-.8.2-1.2.4-.3-.9-.6-1.7-.8-2.5-.3-.8-.8-1.2-1.6-.9s-.9 1-.7 1.7c.2.8.5 1.5.7 2.3-.2.5-.7.4-1.1.6-.5-.8-.6-1.6-.9-2.4s-.7-1.3-1.6-1-1 1-.8 1.8.5 1.5.7 2.3c-.3.4-.7.4-1.2.4-.5-1.6-1-3.2-1.6-4.8 2.4-1.1 2.9-1.2 4.4-.8.4-.5.9-1 1.6-1.3 1.3-.4 2.6.2 3.1 1.5.4.8.7 1.7 1 2.7z" fill="#b4cc25"/><path d="m45.9 106.1c-1.4.3-2.6 0-3.4-1.2-.6-1-.5-2.2.2-3.2 1-1.4 2.7-1.5 4.5-.2.4-.3.9-.1 1.4.1-.6 2.4-1.2 4.8-1.7 7.1-.5.2-.8-.1-1.2-.1.2-.9.3-1.7.5-2.5.1-.1.1-.2 0-.3-.2.2-.3.2-.3.3zm.5-2.8c0-.8-.8-1.6-1.6-1.5-.8 0-1.5.8-1.5 1.6.1.9.6 1.4 1.5 1.5 1 0 1.6-.7 1.6-1.6z" fill="#b3cc23"/><path d="m32.5 100.8c-.3-.3-.7-.1-1-.2-1.4-.3-2.3-1.3-2.4-2.6-.1-1.2.8-2.5 2-2.8 1.3-.4 2.5.2 3.3 1.4.1.2.2.3.3.5.6-.5.9-.1 1.4.3-.8 1.4-1.7 2.8-2.5 4.3-.6-.2-1.2-.2-1.1-.9 0-.1 0-.1 0 0 0-.1 0 0 0 0zm-.6-1.4c.8 0 1.5-.7 1.5-1.5s-.8-1.6-1.6-1.5c-.9.1-1.4.6-1.5 1.5 0 .8.8 1.5 1.6 1.5z" fill="#b2cb1c"/><path d="m89.7 92.5c-.2.3-.4.5-.6.7.2.4.6 0 .8.2.1 1.6-.6 2.7-2 3.1-1.4.3-2.8-.4-3.3-1.7s0-2.8 1.3-3.5c1.4-.7 2.7-.3 3.8 1.2zm-1.6-.1c-1.7-.3-2.4.4-2.3 1.9.7-.7 1.4-1.2 2.3-1.9zm-1.5 2.9c1.7.1 2.3-.5 2.1-1.9-.7.6-1.4 1.1-2.1 1.9z" fill="#b4cc25"/><path d="m64.9 105c .2.3.6.2.7.5-.7 1.4-2.1 2-3.4 1.5s-2.1-1.9-1.8-3.2c.3-1.4 1.6-2.4 2.9-2.3 1.6.1 2.5 1.3 2.6 3-.3.3-.7.1-1 .2-1 .1-2 .1-3 .5.2.5.6.6 1 .7.9.3 1.3-.5 2-.9zm-.4-1.4c-1.3-1.2-2.2-1.1-2.9.4 1-.1 1.8-.2 2.9-.4z" fill="#b5cd28"/><path d="m40.9 98.5c-.4-.7.1-1.2.5-1.6-1.7-.3-2-.2-2.7 1 .3.2.6.3.9.5.2.4-.1.7-.3 1.1-.4.1-.7-.3-1.2-.2-.6 1.3-1.1 2.6-1.7 3.9-.4-.2-.7-.3-1.1-.5.5-1.3 1.1-2.6 1.6-3.9-.5-.4-.6-.9-.1-1.4.3 0 .7 0 1-.4 1.2-1.6 2.6-1.9 4.4-.9.1.4-.2.6-.2 1 .2.4.7.6.6 1.1 0 .5-.3.8-.7.9-.4-.1-.7-.3-1-.6z" fill="#b5cd28"/><path d="m67.5 14.5c.8-2.5 1.5-4.7 2.2-7 .6-.1 1.1.1 1.6.4-.5 1.8-1.1 3.6-1.7 5.5 1 .3 2 .6 2.9 1-.1.6-.2 1-.5 1.6-1.4-.6-2.9-1-4.5-1.5z" fill="#b3cc23"/><path d="m76.3 99.3c0-1.5 1.2-2.7 2.7-2.7 1.6 0 2.8 1.3 2.8 2.8s-1.3 2.8-2.8 2.8-2.8-1.4-2.7-2.9zm4.2.1c-.1-1-.6-1.4-1.5-1.5-.8-.1-1.6.7-1.5 1.5 0 .9.7 1.5 1.6 1.5.9-.1 1.3-.7 1.4-1.5z" fill="#b4cc25"/><path d="m81.7 95.8c-.3.1-.5.2-.8.3-.2-.3-.4-.6-.6-.9l.6-.6c-.5-.7-.9-1.4-1.4-2.1.2-.4.5-.6 1-.7.5.7 1 1.4 1.4 2.1.5.1.7-.4 1.1-.4.4.2.5.5.7.9-.3.2-.6.5-.9.8.8 1.2 1.5 2.4 2.3 3.5-.2.4-.6.5-1 .8-.8-1.3-1.5-2.5-2.4-3.7z" fill="#b4cc24"/><path d="m58.7 13.2c-.7.1-1.1.2-1.6-.1 0-2.4 0-4.8 0-7.2.6-.3 1.1-.1 1.6-.2z" fill="#b5cd28"/><path d="m40.1 104.5c-.5 0-.8-.2-1.2-.5.5-1.5 1.1-3 1.6-4.6.5-.1.8.1 1.3.3-.6 1.6-1.2 3.2-1.7 4.8z" fill="#b5cd28"/><path d="m64.9 105c-.6.4-1.1 1.1-2 1-.4-.1-.8-.2-1-.7 1-.4 2-.3 3-.5z" fill="#f9faef"/><path d="m84.9 18.6c.1-.2.2-.3.2-.5.4.5.3.7.1.8-.1-.1-.2-.2-.3-.3z" fill="#ecf1d0"/><path d="m56.3 20.1c.9-.2 1.1.5 1.4.9 7.8 9.8 15.5 19.6 23.3 29.4 1.6 2.1 3.3 4.1 5 6.3-9.7 12.2-19.3 24.4-28.8 36.5-.9.4-1.3-.3-1.7-.8-4.4-5.6-8.8-11.2-13.2-16.7-4.7-5.9-9.4-11.8-14-17.7-.3-.4-.7-.7-.8-1.4 9.6-12.1 19.2-24.3 28.8-36.5zm-27.4 36.7c9.2 11.7 18.4 23.3 27.7 35 0-23.5 0-46.7 0-70.1-9.3 11.8-18.5 23.4-27.7 35.1zm36.3 2.9c1.5 1 3 2 4.6 3.2-.6-2-1.1-3.7-1.6-5.4 1.5-1.1 2.8-2.2 4.2-3.2 0-.1-.1-.2-.1-.3-1.7 0-3.5 0-5.2 0-.6-1.8-1.2-3.5-1.9-5.3-.7 1.9-1.3 3.5-1.9 5.2-1.8.1-3.6.2-5.5.2 1.6 1.3 3 2.3 4.4 3.4-.5 1.8-1 3.4-1.5 5.4 1.6-1.2 3-2.2 4.5-3.2z" fill="#fefffe"/><path d="m86.6 20.9c-.1 0-.2.1-.3.2 0-.2 0-.3.1-.4.1 0 .2.1.2.2z" fill="#fefefd"/><path d="m88.8 21.6c.1 0 .2-.1.3-.2-.1.2-.1.3-.1.4 0 0-.1-.1-.2-.2z" fill="#fefefd"/><path d="m43.8 12.1c-.6.1-.9-.5-1.5-.5-.4.3-.5.7-.8 1.3.5.3.9.5 1.4.8-.9.7-1.9.8-2.7.1-.9-.7-1.2-1.9-.7-2.9.5-.9 1.6-1.5 2.6-1.2 1.2.3 1.8 1.1 1.7 2.4z" fill="#fcfdf8"/><path d="m53.3 10.5c-.4-.3-.9-.7-1.4-1.1-.3.4-.6.7-1 1.1.2.6.8.8 1.1 1.2-.9.6-1.9.4-2.6-.4-.8-.8-.8-2.1-.1-3s2-1.2 3-.6c1.1.6 1.4 1.6 1 2.8z" fill="#fcfdf8"/><path d="m78.8 13.1c-.1.9-.1 1.5-.1 2.1-.6-.1-1-.4-1.6-.7.5-.4 1-.8 1.7-1.4z" fill="#f9faef"/><path d="m32.3 14.5c.6.5 1.1.8 1.7 1.2-.4.4-.9.7-1.4.8-.2-.6-.4-1.2-.3-2z" fill="#f9faef"/><path d="m26 92.2c.7-.9 1.3-1.6 1.9-2.4.9.7 1.9 1.1 2.1 2.3.1.7-.4 1.2-1 1.4-1.4.4-2-.8-3-1.3z" fill="#fcfdf8"/><path d="m54.9 103.5c0-1.1 0-2 0-3 1.1-.1 2.2-.3 3 .5.4.4.4 1.1.1 1.6-.7 1.3-1.9.9-3.1.9z" fill="#fcfcf6"/><path d="m46.4 103.3c0 .9-.7 1.6-1.5 1.6-.9-.1-1.4-.5-1.5-1.5 0-.8.6-1.6 1.5-1.6.8-.1 1.5.7 1.5 1.5z" fill="#fcfdf8"/><path d="m45.9 106.1c.1 0 .1-.1.2-.1.1.1.1.2 0 .3-.1-.1-.2-.2-.2-.2z" fill="#fefefd"/><path d="m31.9 99.4c-.8 0-1.6-.7-1.6-1.5 0-.9.6-1.4 1.5-1.5.8-.1 1.6.7 1.6 1.5s-.7 1.5-1.5 1.5z" fill="#fcfcf6"/><path d="m32.5 100.8c0-.1 0-.1 0 0z" fill="#fefefd"/><path d="m88.1 92.4c-.9.7-1.6 1.3-2.3 1.9-.1-1.6.6-2.2 2.3-1.9z" fill="#f9faef"/><path d="m86.6 95.3c.7-.8 1.4-1.3 2.1-1.9.2 1.4-.4 2-2.1 1.9z" fill="#fefefd"/><path d="m64.5 103.6c-1.1.1-2 .3-2.9.4.7-1.4 1.6-1.6 2.9-.4z" fill="#f9faef"/><path d="m80.5 99.4c-.1.8-.5 1.4-1.4 1.4s-1.6-.6-1.6-1.5c0-.8.8-1.6 1.5-1.5.9.1 1.5.6 1.5 1.6z" fill="#fcfdf8"/><path d="m28.9 56.8c9.2-11.7 18.4-23.3 27.7-35.1v70.1c-9.3-11.7-18.5-23.3-27.7-35z" fill="#b0cb10"/><path d="m65.2 59.7c-1.5 1-2.9 2-4.6 3.2.6-1.9 1-3.6 1.5-5.4-1.4-1.1-2.7-2.1-4.4-3.4 2-.1 3.7-.2 5.5-.2.6-1.7 1.2-3.3 1.9-5.2.7 1.8 1.3 3.5 1.9 5.3h5.2c0 .1.1.2.1.3-1.4 1-2.7 2.1-4.2 3.2.5 1.7 1 3.4 1.6 5.4-1.5-1.2-3-2.1-4.5-3.2z" fill="#b2cb1c"/></svg>