<svg enable-background="new 0 0 113.3 113.4" viewBox="0 0 113.3 113.4" xmlns="http://www.w3.org/2000/svg"><circle cx="56.8" cy="56.8" fill="#fff" r="56.2"/><path d="m56.5 113.4c-31.4-.3-55.4-24.9-56.5-54.5-1.2-32.1 24-58.4 55.6-58.9 33-.5 57.9 26.1 57.7 57-.2 31-25.3 56.3-56.8 56.4zm0-1.3c30.8-.1 55.6-24.9 55.5-55.5-.1-30.7-24.9-55.5-55.6-55.4-30.6 0-55.4 24.9-55.3 55.5.1 30.7 24.9 55.5 55.4 55.4z" fill="#e52f22"/><path d="m56.5 112.1c-30.5.1-55.3-24.8-55.4-55.4s24.7-55.5 55.3-55.5c30.7 0 55.5 24.7 55.6 55.4.1 30.6-24.7 55.5-55.5 55.5zm37.6-63.9c0-1.5 0-2.9 0-4.2-.1-2-.6-2.5-2.4-3.2-2.6-.9-5.1-1.7-7.7-2.6-.1-.2-.2-.3-.2-.5-.2-1.4-.3-2.8-.4-4.2-.3-2.9-.9-3.5-3.8-3.9-1.6-.2-3.2-.4-4.8-.6-.9-2.6-1.7-5.1-2.5-7.6-.6-1.8-1.2-2.3-3.1-2.4-1.3-.1-2.7 0-4.2 0 .3-1.3.5-2.4.7-3.5.2-1.2.1-2.2-.8-3.1-2.2-2.1-4.3-4.2-6.5-6.2-1.3-1.2-2.6-1.2-3.8 0-2.1 2-4.1 4-6.2 5.9-1.2 1.1-1.4 2.2-1.1 3.7.2 1 .6 2 .5 3.3-1.5 0-2.9-.1-4.3 0s-2.4.7-2.8 2.2c-.8 2.6-1.7 5.1-2.6 7.7-.5.1-.9.2-1.3.2-1.1.1-2.2.3-3.3.4-3 .3-3.7 1-4 4-.1 1.5-.3 3-.5 4.5-2.7.9-5.1 1.7-7.6 2.5-2 .7-2.4 1.2-2.5 3.3-.1 1.3 0 2.6 0 4-1.4-.3-2.5-.5-3.6-.7-1.2-.2-2.2-.1-3.1.9-2 2.2-4.1 4.2-6.1 6.4-1.3 1.4-1.3 2.6 0 4.1 2 2.1 4 4.1 5.9 6.2.9 1 2 1.3 3.3 1 1.1-.2 2.2-.5 3.5-.6v4.2c.1 1.5.7 2.5 2.3 3 2.6.8 5.2 1.7 7.9 2.6.2 1.9.5 3.8.7 5.7.2 1.6 1 2.5 2.6 2.7 1.9.3 3.9.6 5.8.8.9 2.6 1.7 5 2.5 7.5.7 2 1.2 2.4 3.4 2.5h4c-.3 1.4-.5 2.5-.7 3.6-.3 1.2 0 2.3 1 3.2 2.1 2 4.2 4 6.3 6 1.3 1.3 2.6 1.3 4 0 2.1-2 4.1-4 6.2-5.9 1.1-1 1.4-2.1 1.1-3.5-.2-1-.6-2.1-.5-3.4h4.1c1.6 0 2.6-.7 3.1-2.3.8-2.6 1.7-5.1 2.6-7.7 2-.3 3.9-.6 5.8-.8 1.6-.2 2.4-1.1 2.6-2.7.2-1.9.4-3.8.7-5.7 2.7-.9 5.2-1.8 7.8-2.6 1.6-.5 2.3-1.5 2.3-3.1 0-1.4 0-2.7 0-4.1 1.3 0 2.4.3 3.5.6 1.2.2 2.2.1 3.1-.8 2-2.2 4.1-4.2 6.1-6.4 1.4-1.4 1.3-2.7 0-4.2-1.9-2-3.9-4-5.8-6.1-1-1.1-2.1-1.3-3.4-1-1.4.4-2.5.6-3.8.9z" fill="#fffefd"/><path d="m94.1 48.2c1.3-.3 2.4-.4 3.4-.7 1.3-.3 2.4 0 3.4 1 1.9 2.1 3.9 4.1 5.8 6.1 1.4 1.5 1.4 2.7 0 4.2-2 2.2-4.1 4.2-6.1 6.4-.9.9-1.9 1-3.1.8-1.1-.2-2.2-.5-3.5-.6v4.1c0 1.6-.7 2.6-2.3 3.1-2.6.8-5.2 1.7-7.8 2.6-.2 1.9-.5 3.8-.7 5.7-.2 1.6-1 2.4-2.6 2.7-1.9.3-3.8.5-5.8.8-.9 2.6-1.8 5.1-2.6 7.7-.5 1.6-1.5 2.3-3.1 2.3-1.4 0-2.7 0-4.1 0-.1 1.3.3 2.3.5 3.4.3 1.4.1 2.5-1.1 3.5-2.1 1.9-4.1 4-6.2 5.9-1.3 1.2-2.6 1.2-4 0-2.1-2-4.2-4.1-6.3-6-1-.9-1.2-1.9-1-3.2.2-1.1.4-2.2.7-3.6-1.4 0-2.7 0-4 0-2.1-.1-2.7-.5-3.4-2.5-.8-2.5-1.7-5-2.5-7.5-1.9-.3-3.9-.6-5.8-.8-1.6-.2-2.4-1.1-2.6-2.7-.2-1.9-.4-3.7-.7-5.7-2.6-.9-5.2-1.8-7.9-2.6-1.6-.5-2.2-1.5-2.3-3-.1-1.4 0-2.8 0-4.2-1.3 0-2.4.3-3.5.6-1.3.3-2.4 0-3.3-1-1.9-2.1-4-4.1-5.9-6.2-1.3-1.4-1.3-2.7 0-4.1 2-2.2 4.1-4.2 6.1-6.4.9-.9 1.9-1.1 3.1-.9 1.1.2 2.2.4 3.6.7 0-1.4 0-2.7 0-4 .1-2.1.5-2.7 2.5-3.3 2.5-.8 5-1.7 7.6-2.5.2-1.5.4-3 .5-4.5.3-3 .9-3.7 4-4 1.1-.1 2.2-.3 3.3-.4.4-.1.8-.2 1.3-.2.9-2.6 1.8-5.1 2.6-7.7.4-1.5 1.4-2.2 2.8-2.2 1.4-.1 2.8 0 4.3 0 .1-1.3-.2-2.3-.5-3.3-.3-1.5-.1-2.6 1.1-3.7 2.1-1.9 4.1-4 6.2-5.9 1.3-1.2 2.6-1.2 3.8 0 2.2 2.1 4.3 4.2 6.5 6.2.9.9 1.1 1.9.8 3.1-.2 1.1-.4 2.2-.7 3.5h4.2c1.9.1 2.5.6 3.1 2.4.8 2.5 1.7 5 2.5 7.6 1.6.2 3.2.4 4.8.6 2.9.3 3.5 1 3.8 3.9.1 1.4.3 2.8.4 4.2 0 .1.1.3.2.5 2.5.8 5.1 1.7 7.7 2.6 1.8.6 2.3 1.2 2.4 3.2.4 1.1.4 2.4.4 4zm-.6 16.3c1.7.3 3 .6 4.3.9 1.1.2 2 0 2.8-.8 1.9-2 3.9-4 5.8-6 1.3-1.4 1.3-2.3 0-3.6-1.9-2-3.9-4-5.7-6-.8-.9-1.8-1.1-2.9-.9-1.3.3-2.6.5-4.2.8 0-1.8 0-3.5 0-5.2 0-1.2-.6-1.9-1.8-2.3-2.8-.8-5.5-1.8-8.3-2.7-.2-2.1-.5-4.1-.7-6.1-.1-1.3-.8-1.9-2.1-2.1-2-.3-4.1-.6-6.2-.9-.8-2.5-1.7-5.1-2.5-7.6-.7-2.1-.9-2.3-3.2-2.4-1.4-.1-2.9 0-4.5 0 .3-1.6.6-2.9.9-4.3.2-1 0-1.9-.8-2.7-2.1-1.9-4-3.9-6.1-5.8-1.3-1.2-2.2-1.3-3.5 0-2 1.9-4 3.9-6 5.7-.9.9-1.2 1.8-.9 3 .3 1.3.5 2.5.8 4.1-1.8 0-3.5 0-5.1 0-1.3 0-2 .6-2.4 1.9-.8 2.7-1.8 5.4-2.7 8.1-2.2.3-4.2.6-6.3.9-1.2.2-1.8.8-2 2-.2 2-.5 4.1-.7 6.2-2.6.9-5.2 1.7-7.8 2.6-2 .7-2.2.9-2.3 3.1-.1 1.5 0 2.9 0 4.5-1.7-.3-3-.6-4.3-.9-1-.2-1.8 0-2.5.8-2 2.1-4 4.1-5.9 6.2-1.2 1.3-1.2 2.2 0 3.5 1.9 2 3.9 4 5.8 6.1.8.8 1.6 1 2.7.8 1.3-.3 2.6-.5 4.3-.9v5.2c0 1.2.5 1.9 1.8 2.3 2.8.8 5.5 1.8 8.3 2.8.2 2.1.5 4.1.7 6.1.1 1.3.8 1.9 2 2.1 2 .3 4.1.6 6.2.9.9 2.6 1.8 5.1 2.5 7.7.5 1.7 1.4 2.3 3 2.3h4.6c-.3 1.6-.6 2.9-.8 4.1-.2 1-.2 1.9.7 2.7l6.3 6c1.2 1.1 2.2 1.1 3.3.1 2.2-2 4.3-4.1 6.4-6.1.8-.7.8-1.6.6-2.6-.3-1.3-.5-2.6-.8-4.2h5.1c1.3 0 2-.6 2.4-1.9.8-2.7 1.8-5.4 2.7-8.1 2.2-.3 4.2-.6 6.3-.9 1.2-.2 1.8-.8 2-2 .2-2 .5-4.1.7-6.2 2.8-.9 5.5-1.9 8.2-2.7 1.3-.4 1.9-1.2 1.9-2.4-.1-1.7-.1-3.3-.1-5.2z" fill="#e63b29"/><path d="m93.5 64.5v5.1c0 1.3-.6 2-1.9 2.4-2.7.8-5.4 1.8-8.2 2.7-.2 2.1-.5 4.1-.7 6.2-.1 1.2-.8 1.9-2 2-2 .3-4.1.6-6.3.9-.9 2.7-1.9 5.3-2.7 8.1-.4 1.3-1.1 1.9-2.4 1.9-1.6 0-3.3 0-5.1 0 .3 1.6.6 2.9.8 4.2.2 1 .1 1.8-.6 2.6-2.1 2-4.2 4.1-6.4 6.1-1.1 1.1-2.1 1.1-3.3-.1-2.1-2-4.2-4-6.3-6-.8-.8-.9-1.7-.7-2.7.3-1.3.5-2.6.8-4.1-1.6 0-3.1 0-4.6 0-1.6 0-2.6-.6-3-2.3-.7-2.6-1.7-5.2-2.5-7.7-2.1-.3-4.2-.6-6.2-.9-1.2-.2-1.9-.8-2-2.1-.2-2-.5-4-.7-6.1-2.8-.9-5.5-1.9-8.3-2.8-1.3-.4-1.8-1.1-1.8-2.3 0-1.7 0-3.3 0-5.2-1.7.3-3 .6-4.3.9-1 .2-1.9 0-2.7-.8-1.9-2.1-3.9-4-5.8-6.1-1.2-1.3-1.3-2.2 0-3.5 2-2.1 4-4.1 5.9-6.2.7-.8 1.6-1 2.5-.8 1.3.3 2.7.5 4.3.9 0-1.6 0-3.1 0-4.5.1-2.2.3-2.4 2.3-3.1 2.6-.9 5.1-1.7 7.8-2.6.2-2.1.5-4.1.7-6.2.1-1.2.8-1.8 2-2 2-.3 4.1-.6 6.3-.9.9-2.7 1.9-5.3 2.7-8.1.4-1.3 1.1-1.9 2.4-1.9h5.1c-.3-1.6-.5-2.8-.8-4.1-.3-1.2 0-2.2.9-3l6-5.7c1.3-1.2 2.2-1.2 3.5 0 2 1.9 4 3.9 6.1 5.8.8.8 1 1.6.8 2.7-.3 1.3-.5 2.7-.9 4.3h4.5c2.3.1 2.5.3 3.2 2.4.8 2.5 1.7 5.1 2.5 7.6 2.1.3 4.1.6 6.2.9 1.2.2 1.9.8 2.1 2.1.2 2 .5 4 .7 6.1 2.8.9 5.5 1.9 8.3 2.7 1.2.4 1.8 1.1 1.8 2.3v5.2c1.6-.3 2.9-.6 4.2-.8 1.1-.3 2.1 0 2.9.9 1.9 2 3.8 4 5.7 6 1.3 1.3 1.3 2.2 0 3.6-1.9 2-3.9 4-5.8 6-.8.9-1.7 1.1-2.8.8-1.3-.2-2.6-.4-4.2-.8zm-41.9-11.8h2.6c.2-.4.3-.7-.1-1-.8 0-1.6 0-2.5 0-.1 0-.2 0-.3 0-.2 0-.4 0-.5 0s-.2 0-.3 0c-.2 0-.4 0-.5 0-.2 0-.2 0-.2.2-.1.3-.1.5.2.7h1.3c.1.1.2.1.3.1zm11.8 45.8c-1.7-8.5-3.4-17.6-5.2-26.7-1.3 0-2.5 0-3.7 0-1.8 9.2-3.6 18.3-5.1 26.5 2.6 2.9 4.7 5.4 7.1 8.1 2.3-2.8 4.5-5.2 6.9-7.9zm7.9-39.9c9.2 1.8 18.4 3.6 26.4 5.1 3.1-2.6 5.6-4.8 8.3-7.1-2.6-2.4-5.1-4.5-7.7-6.9-8.7 1.7-17.8 3.5-27 5.2zm-21.9-43.6c1.7 8.5 3.4 17.6 5.2 26.7h3.7c1.8-9.2 3.6-18.4 5.1-26.5-2.6-3-4.7-5.4-7.1-8.1-2.3 2.7-4.5 5.1-6.9 7.9zm-42.6 41.8c2.7 2.5 5.1 4.6 7.8 7 8.6-1.7 17.8-3.5 26.9-5.2 0-1.3 0-2.4 0-3.7-9.2-1.8-18.3-3.6-26.7-5.2-2.9 2.5-5.3 4.6-8 7.1zm23.1 16.4c4.5-3.1 9-6.1 13.4-9.1-.5-1.4-1-2.6-1.5-3.9-7 1.4-13.9 2.7-20.8 4.1v6c3 .9 5.9 1.9 8.9 2.9zm13-51.9c-1 3-2 5.9-3 8.9 3.1 4.5 6.1 9 9.1 13.4 1.4-.5 2.6-1 3.9-1.5-1.4-7-2.7-13.9-4-20.8-2.1 0-4 0-6 0zm20.8 22.4c3.1-4.6 6.1-9 9.1-13.5-1-3-2-5.9-3-8.9-2 0-3.9 0-6 0-1.3 6.9-2.7 13.8-4.1 20.9 1.5.4 2.7.8 4 1.5zm-42.7 5.5c6.9 1.3 13.9 2.7 20.9 4.1.4-1.4.9-2.6 1.5-3.9-4.5-3.1-9-6.1-13.4-9.1-3.1 1-6 2-8.9 3-.1 1.9-.1 3.8-.1 5.9zm70.8-6c-3.1-1-6-2-9-3-4.5 3.1-9 6.1-13.4 9.1.6 1.4 1 2.6 1.5 3.9 7-1.4 13.9-2.7 20.8-4 .1-2 .1-4 .1-6zm-22.3 20.9c4.5 3.1 9 6.1 13.4 9.1l9-3c0-2 0-4 0-5.9-7-1.4-13.9-2.7-20.9-4.1-.4 1.4-.9 2.6-1.5 3.9zm-20.5 5.7c-3 4.5-6.1 8.9-9.1 13.4 1 3 2 5.9 3 8.9h6c1.3-6.9 2.7-13.8 4-20.8-1.3-.5-2.5-.9-3.9-1.5zm14.8 0c-1.4.5-2.6 1-3.9 1.5 1.4 7 2.7 13.9 4 20.7h6c1-3 2-6 3-8.9-3.1-4.4-6.1-8.8-9.1-13.3zm10.5-38.5c-3 4.5-5.8 8.8-8.6 13 1.1 1.1 2 2.1 3 3.1 4.3-2.9 8.7-5.8 13-8.8-.3-2.2-.5-4.4-.7-6.5-2.3-.2-4.5-.5-6.7-.8zm7.4 43.4c-4.4-3-8.8-5.9-13.1-8.8-1 1.1-2 2-3 3 2.9 4.3 5.8 8.7 8.7 13.2 2.2-.3 4.4-.6 6.7-.9.2-2.2.4-4.3.7-6.5zm-49.9-42.5c-.2 2.3-.5 4.4-.7 6.5 4.4 3 8.8 5.9 13.1 8.8l3-3c-2.9-4.4-5.8-8.8-8.7-13.2-2.2.3-4.4.6-6.7.9zm15.3 37c-1-1.2-1.9-2.2-2.8-3.3-4.4 3-8.8 5.9-13.1 8.8.2 2.2.5 4.3.7 6.5 2.3.3 4.5.6 6.7.9 2.8-4.4 5.7-8.8 8.5-12.9zm9.9-6.6h6.5c0-2.2 0-4.3 0-6.3-4.8 0-9.6 0-14.3 0-.3 1.7-.3 7.1 0 7.4h1c .4-.3 0-.8.4-1h4.7c.4 2.4.7 2.7 3.1 2.7h4.5c2.6 0 3.1-.5 3.2-3.3-.3-.2-.7-.4-1.1-.4-.3.7-.1 1.6-.7 2.2-2.4 0-4.7 0-7 0-.5-.4-.5-.7-.3-1.3zm6.8-14.6c.4-.4.3-.7.1-1.1-5.1 0-10.2 0-15.4 0 .1.4-.2.8.4 1.2h6.5c.2.5.2.8 0 1.3-2.6 0-5.4 0-8.1 0v4.1c.4.1.8.2 1.2-.1.2-1-.1-2 .2-2.8h6.9v4.9c.5-.1.9.2 1.4-.3 0-1.5 0-3 0-4.6h7v2.9c.5.2.9.2 1.3 0 0-1.3.1-2.7-.1-4.1-2.8 0-5.6 0-8.3 0 0-.5-.2-1 .3-1.3 2.2-.1 4.4-.1 6.6-.1zm-.5 6c-1.8 0-3.5 0-5.2 0 .1.4-.1.7.2.9h5c .1-.3.1-.6 0-.9zm-9 0c-1.8 0-3.4 0-5 0 0 .4-.1.7.2.9h4.8c0-.3 0-.6 0-.9zm8.4-2.2c-1.5 0-3 0-4.6 0 0 .4-.2.7.1.9h4.4c.3-.4.3-.6.1-.9z" fill="#fef8f6"/><path d="m63.4 98.5c-2.5 2.8-4.6 5.2-7 7.8-2.4-2.7-4.5-5.1-7.1-8.1 1.6-8.2 3.4-17.3 5.1-26.5h3.7c1.9 9.1 3.7 18.3 5.3 26.8z" fill="#e31216"/><path d="m71.3 58.6c0-1.3 0-2.4 0-3.7 9.1-1.8 18.3-3.6 27-5.2 2.6 2.4 5.1 4.5 7.7 6.9-2.7 2.3-5.2 4.5-8.3 7.1-8-1.6-17.1-3.3-26.4-5.1z" fill="#e31216"/><path d="m49.4 15c2.5-2.8 4.6-5.2 6.9-7.8 2.3 2.7 4.5 5.1 7.1 8.1-1.6 8.1-3.3 17.2-5.1 26.5-1.2 0-2.4 0-3.7 0-1.8-9.2-3.6-18.3-5.2-26.8z" fill="#e31216"/><path d="m6.8 56.8c2.7-2.4 5.1-4.6 8-7.1 8.4 1.6 17.5 3.4 26.7 5.2v3.7c-9.1 1.8-18.2 3.6-26.9 5.2-2.7-2.4-5.1-4.6-7.8-7z" fill="#e31216"/><g fill="#e31417"><path d="m29.9 73.2c-3-1-6-2-8.9-3 0-2 0-3.9 0-6 6.9-1.3 13.8-2.7 20.8-4.1.5 1.3 1 2.5 1.5 3.9-4.4 3.1-8.9 6.1-13.4 9.2z"/><path d="m42.9 21.3h6c1.3 6.9 2.7 13.8 4 20.8-1.3.5-2.5 1-3.9 1.5-3-4.4-6-8.9-9.1-13.4 1-2.9 2-5.9 3-8.9z"/><path d="m63.7 43.7c-1.3-.7-2.5-1.1-3.9-1.5 1.4-7 2.7-14 4.1-20.9h6c1 3 2 5.9 3 8.9-3 4.5-6.1 8.9-9.2 13.5z"/><path d="m21 49.2c0-2.1 0-4 0-5.9 3-1 5.9-2 8.9-3 4.4 3 8.9 6.1 13.4 9.1-.6 1.3-1.1 2.5-1.5 3.9-6.9-1.4-13.9-2.7-20.8-4.1z"/><path d="m91.8 43.2v6c-6.9 1.3-13.8 2.7-20.8 4-.5-1.3-1-2.5-1.5-3.9 4.4-3 8.8-6 13.4-9.1 2.9 1 5.8 2 8.9 3z"/><path d="m69.5 64.1c.6-1.3 1.1-2.5 1.5-3.9 7 1.4 13.9 2.7 20.9 4.1v5.9c-3 1-5.9 2-9 3-4.5-3-8.9-6.1-13.4-9.1z"/><path d="m49 69.8 3.9 1.5c-1.3 6.9-2.7 13.9-4 20.8-2.1 0-4 0-6 0-1-3-2-5.9-3-8.9 3.1-4.4 6.1-8.9 9.1-13.4z"/><path d="m63.8 69.8c3 4.5 6 8.9 9.1 13.4-1 2.9-1.9 5.8-3 8.9-2 0-3.9 0-6 0-1.3-6.8-2.7-13.8-4-20.7 1.3-.6 2.5-1 3.9-1.6z"/><path d="m74.3 31.3c2.2.3 4.4.6 6.7.9.2 2.2.5 4.3.7 6.5-4.3 2.9-8.7 5.9-13 8.8-1-1-2-2-3-3.1 2.8-4.3 5.6-8.6 8.6-13.1z"/><path d="m81.7 74.7c-.2 2.2-.5 4.3-.7 6.5-2.3.3-4.5.6-6.7.9-2.9-4.5-5.8-8.8-8.7-13.2 1-1 1.9-2 3-3 4.3 2.9 8.6 5.9 13.1 8.8z"/><path d="m31.8 32.2c2.3-.3 4.4-.6 6.7-.9 2.9 4.4 5.8 8.8 8.7 13.2-1 1-2 2-3 3-4.3-2.9-8.7-5.8-13.1-8.8.3-2.1.5-4.2.7-6.5z"/><path d="m47.1 69.2c-2.8 4.2-5.6 8.5-8.6 13-2.2-.3-4.4-.6-6.7-.9-.2-2.2-.5-4.3-.7-6.5 4.4-2.9 8.7-5.9 13.1-8.8 1 1 1.9 2 2.9 3.2z"/></g><path d="m57 62.6c-.1.6-.1.9.2 1.4h7c .6-.6.5-1.5.7-2.2.5 0 .8.2 1.1.4-.1 2.8-.6 3.3-3.2 3.3-1.5 0-3 0-4.5 0-2.4 0-2.7-.3-3.1-2.7-1.5 0-3 0-4.7 0-.3.2 0 .7-.4 1-.3 0-.7 0-1 0-.3-.3-.3-5.7 0-7.4h14.3v6.3c-2.1-.1-4.3-.1-6.4-.1zm4.9-5.2c-1.7 0-3.4 0-5.1 0-.1.5-.2.9.1 1.3h5c .2-.5.3-.9 0-1.3zm.1 2.5c-1.7 0-3.4 0-5.1 0-.1.5-.3 1 .1 1.5h4.9c.3-.5.2-.9.1-1.5zm-11.4-1.1h4.8c.1-.5.2-.9-.1-1.4-1.6 0-3.1 0-4.7 0-.2.5-.2.9 0 1.4zm-.1 2.6h4.8c.1-.6.2-1-.1-1.4-1.6 0-3.1 0-4.7 0z" fill="#e4291e"/><path d="m63.8 48c-2.2 0-4.4 0-6.6 0-.5.4-.3.8-.3 1.3h8.3c.2 1.5.1 2.8.1 4.1-.5.2-.9.2-1.3 0 0-.9 0-1.8 0-2.9-2.4 0-4.6 0-7 0v4.6c-.5.5-.9.3-1.4.3 0-1.7 0-3.2 0-4.9-2.3 0-4.6 0-6.9 0-.3.9 0 1.9-.2 2.8-.4.3-.8.2-1.2.1 0-1.4 0-2.7 0-4.1h8.1c.2-.5.2-.8 0-1.3-2.2 0-4.4 0-6.5 0-.6-.4-.3-.8-.4-1.2h15.4c.2.5.3.9-.1 1.2z" fill="#e31b19"/><path d="m63.3 54c .1.3.1.6-.1.9-1.6 0-3.3 0-5 0-.3-.2-.1-.5-.2-.9z" fill="#e52d21"/><path d="m54.3 54v .9c-1.6 0-3.2 0-4.8 0-.3-.2-.2-.5-.2-.9z" fill="#e52d21"/><path d="m62.7 51.8c.2.3.2.6 0 .9-1.4 0-2.9 0-4.4 0-.3-.2-.2-.5-.1-.9z" fill="#e73f2b"/><path d="m51.3 52.7c-.5 0-.9 0-1.3 0-.4-.2-.3-.5-.2-.7l.2-.2h.5c.1.2.2.2.3 0h .5c.1.2.2.2.3 0h2.5c.3.3.3.6.1 1-.8 0-1.7 0-2.6 0-.1-.2-.2-.2-.3-.1z" fill="#e31216"/><path d="m49.9 51.8c-.1.1-.1.1-.2.2 0-.2.1-.3.2-.2z" fill="#eb6245"/><path d="m50.8 51.7c-.1.2-.2.2-.3 0z" fill="#eb6245"/><path d="m51.6 51.7c-.1.2-.2.2-.3 0z" fill="#eb6245"/><path d="m51.3 52.7c.1-.1.2-.1.3 0-.1 0-.2 0-.3 0z" fill="#eb6245"/><path d="m61.9 57.4c.2.4.2.8 0 1.3-1.7 0-3.3 0-5 0-.3-.4-.2-.8-.1-1.3z" fill="#fce4d9"/><path d="m62 59.9c.1.5.2 1-.1 1.5-1.6 0-3.2 0-4.9 0-.4-.5-.2-.9-.1-1.5z" fill="#fcebe4"/><path d="m50.6 58.8c-.1-.5-.1-.9 0-1.4h4.7c.3.4.2.8.1 1.4-1.6 0-3.2 0-4.8 0z" fill="#fce4d9"/><path d="m50.5 61.4c0-.5 0-.9 0-1.4h4.7c.3.4.2.9.1 1.4-1.5 0-3.1 0-4.8 0z" fill="#fcebe4"/></svg>