<svg id="Capa_1" data-name="Capa 1" xmlns="http://www.w3.org/2000/svg" viewBox="0 0 566.93 566.93"><defs><style>.cls-1{fill:#357ea1;}.cls-2{fill:#005470;}.cls-3{fill:#ffde00;}.cls-4{fill:#fff;}</style></defs><path class="cls-1" d="M283.46,11.59c-149.91,0-271.87,122-271.87,271.87s122,271.88,271.87,271.88,271.88-122,271.88-271.88S433.37,11.59,283.46,11.59Z"/><path class="cls-2" d="M283.46,7.09C130.83,7.09,7.09,130.83,7.09,283.46S130.83,559.84,283.46,559.84,559.84,436.1,559.84,283.46,436.1,7.09,283.46,7.09Zm0,548.25c-149.91,0-271.87-122-271.87-271.88s122-271.87,271.87-271.87,271.88,122,271.88,271.87S433.37,555.34,283.46,555.34Z"/><path class="cls-2" d="M482.07,84.86A280.87,280.87,0,1,0,84.86,482.07,280.87,280.87,0,1,0,482.07,84.86Zm-198.61,475C130.83,559.84,7.09,436.1,7.09,283.46S130.83,7.09,283.46,7.09,559.84,130.83,559.84,283.46,436.1,559.84,283.46,559.84Z"/><path class="cls-3" d="M284.68,71.38l26.67,92s22.6,2.93,46,20.32c.16,0,58.85-30.89,58.85-30.89L383.53,209.9s17.24,22.27,21.62,45.84c.17.33,90.72,26.51,90.72,26.51L406.29,308.1s-4.87,28.61-21.3,48.77l29.92,56.74-54.63-31.22s-18.53,16.26-49.1,22.76c.17,0-25.68,90.4-25.68,90.4L259.16,406S232,400.6,210.87,384.51c0,.16-57.06,30.56-57.06,30.56l31.7-55.93s-17.56-20.81-22.6-49.26c-.16,0-91.85-26.42-91.85-26.42l92.34-26.74a109,109,0,0,1,21.79-47.15c.16,0-31.54-58.85-31.54-58.85l58,33.33s10.89-11.55,47.14-21.3C259.16,162.75,284.68,71.38,284.68,71.38Z"/><path class="cls-4" d="M285.5,497.17a1.62,1.62,0,0,1-1.56-1.16l-26.07-88.65c-5-1.12-28.09-6.77-47.12-20.91l-1.55.85-6.47,3.48c-5.35,2.88-12.49,6.69-19.62,10.5-14.27,7.63-28.54,15.23-28.54,15.23a1.63,1.63,0,0,1-2.18-2.24l31.16-55c-3.38-4.26-17.34-23-22.06-48.15C157.38,310,140.7,305.22,70.61,285a1.63,1.63,0,0,1,0-3.13L162,255.44a110.69,110.69,0,0,1,21.29-46.07c-3.21-6.16-23.1-43.14-31-57.88a1.63,1.63,0,0,1,2.25-2.18l57,32.73c3.32-2.92,15.8-12.37,46.13-20.63,2.27-7.37,19-67,25.54-90.47a1.63,1.63,0,0,1,1.56-1.19h0a1.64,1.64,0,0,1,1.57,1.18l26.37,91c4.75.8,24.3,4.84,44.89,19.87,5.79-3,39.59-20.76,57.94-30.43a1.63,1.63,0,0,1,2.17,2.25l-32.14,56.14c3.21,4.34,16.89,23.74,21.09,44.73,7.66,2.4,66.53,19.46,89.76,26.17a1.63,1.63,0,0,1,0,3.13l-88.61,25.57c-1,5.28-6.33,29.41-20.78,47.68,3.83,7.27,29.14,55.27,29.42,55.79A1.63,1.63,0,0,1,414.1,415l-53.64-30.65c-4,3.29-21.28,16.26-48,22.16-.18.7-.45,1.65-.82,3-.69,2.49-1.69,6-2.9,10.27-2.4,8.48-5.61,19.78-8.83,31.07C293.51,473.44,287.06,496,287.06,496a1.62,1.62,0,0,1-1.56,1.17ZM210.87,382.88a1.64,1.64,0,0,1,1,.33c20.57,15.67,47.35,21.11,47.61,21.16a1.63,1.63,0,0,1,1.25,1.14l24.76,84.2c8.9-31.16,23.53-82.42,24.1-84.81a2.46,2.46,0,0,1,.07-.29,1.64,1.64,0,0,1,1.2-1.05c29.75-6.33,48.18-22.23,48.36-22.39a1.63,1.63,0,0,1,1.88-.19l49.78,28.45c-7.53-14.28-27.19-51.55-27.33-51.83a1.63,1.63,0,0,1,.19-1.76c15.95-19.58,20.91-47.74,21-48a1.65,1.65,0,0,1,1.15-1.29L490,282.24c-8.06-2.33-24-6.93-39.9-11.56-13.16-3.83-23.65-6.89-31.18-9.1-4.26-1.25-7.81-2.3-10.31-3.05-4.59-1.37-4.59-1.37-4.93-2.06a1.28,1.28,0,0,1-.14-.43c-4.27-22.9-21.14-44.93-21.31-45.15a1.6,1.6,0,0,1-.13-1.8L412,156.87c-54.1,28.48-54.12,28.48-54.66,28.48a1.61,1.61,0,0,1-1-.32c-22.77-16.92-45-20-45.25-20a1.61,1.61,0,0,1-1.35-1.16L284.71,77.32c-2.27,8.14-6.76,24.16-11.26,40.19-3.73,13.26-6.72,23.83-8.88,31.41-1.22,4.29-2.24,7.86-3,10.36-.37,1.26-.66,2.25-.87,2.92-.35,1.16-.62,2-1.62,2.16-35.1,9.47-46.14,20.69-46.25,20.81a1.62,1.62,0,0,1-2,.29L157.78,155c3,5.55,8.05,14.94,13.1,24.35,4,7.35,7.89,14.7,10.85,20.23,1.48,2.76,2.71,5.07,3.56,6.69,1.78,3.35,1.78,3.35,1.29,4.17a2.14,2.14,0,0,1-.13.19A108.16,108.16,0,0,0,165,257a1.63,1.63,0,0,1-1.16,1.32L76.91,283.46c32,9.22,84.69,24.39,86.37,24.84a1.62,1.62,0,0,1,1.23,1.3c4.9,27.66,22.07,48.29,22.24,48.5a1.63,1.63,0,0,1,.18,1.85L158,411c17.49-9.32,50.17-26.77,52-27.83a1.48,1.48,0,0,1,.21-.13A1.69,1.69,0,0,1,210.87,382.88Zm47.91-221.76Zm0,0Zm0,0Zm0,0Zm0,0Zm0,0h0Z"/><path class="cls-3" d="M266.63,386.07a3.89,3.89,0,0,0-3-2.73c-.22,0-22.35-4.55-39.27-17.44a3.92,3.92,0,0,0-4.1-.4c-.14.07-.27.15-.4.23-1.69,1-19.67,10.59-36.15,19.38l20.21-35.66a3.92,3.92,0,0,0-.41-4.44c-.14-.16-14.25-17.16-18.28-39.86a3.9,3.9,0,0,0-2.91-3.11c-1.92-.53-37.91-10.89-64.63-18.59l65.2-18.88a3.89,3.89,0,0,0,2.77-3.17,89.2,89.2,0,0,1,17.62-38,4.73,4.73,0,0,0,.32-.46c1.14-1.9.55-3-1-6l-3-5.67c-2.5-4.68-5.84-10.91-9.19-17.13l-6.89-12.82,37.27,21.4a3.89,3.89,0,0,0,4.78-.71c.06-.06,9.15-9.09,37.71-16.83,2.42-.26,3-2.09,4.13-6.11.62-2.12,1.49-5.15,2.52-8.78,1.83-6.42,4.36-15.37,7.51-26.6,2.59-9.19,5.16-18.37,7.15-25.48l18.76,64.73a3.89,3.89,0,0,0,3.25,2.78c.17,0,18.44,2.59,37.12,16.47a3.9,3.9,0,0,0,2.33.77c1,0,1,0,9.65-4.53l17.12-9,13-6.83-21,36.67a3.89,3.89,0,0,0,.3,4.33c.14.17,14.06,18.37,17.55,37.13a4.25,4.25,0,0,0,.35,1c.78,1.55,1.25,1.69,5.71,3l8.74,2.58c7.21,2.12,16.81,4.92,26.4,7.71l25.38,7.36-62.86,18.14a3.88,3.88,0,0,0-2.76,3.09c0,.23-4.15,23.44-17.21,39.48a3.92,3.92,0,0,0-.47,4.21c.11.22,10.24,19.43,19.11,36.25l-34.6-19.78a3.91,3.91,0,0,0-4.51.46c-.15.13-15.33,13.18-39.8,18.38a3.92,3.92,0,0,0-2.86,2.49,4,4,0,0,0-.16.57c-.61,2.42-10,35.45-18,63.27Z"/><path class="cls-4" d="M284.63,132.41,299.57,184a7.78,7.78,0,0,0,6.47,5.56c.17,0,17.54,2.52,35.32,15.73a7.82,7.82,0,0,0,4.66,1.54c1.93,0,2.67-.38,5.78-2l5.68-3,17.13-9,1.13-.59-14.34,25A7.8,7.8,0,0,0,362,226c.14.18,13.48,17.57,16.81,35.47a7.58,7.58,0,0,0,.69,2.06c1.53,3.06,3.45,3.64,8.08,5l8.76,2.59,26.41,7.7,12.43,3.61-49.9,14.4a7.82,7.82,0,0,0-5.53,6.17c0,.23-4,22.48-16.39,37.69a7.79,7.79,0,0,0-.93,8.41c0,.08.13.26,12.9,24.47l-23-13.12a7.8,7.8,0,0,0-3.89-1,7.7,7.7,0,0,0-5.11,1.93c-.15.12-14.69,12.54-38.06,17.52a7.78,7.78,0,0,0-5.71,5,7.86,7.86,0,0,0-.3,1c-.66,2.53-7.41,26.27-14.22,50.14l-14.7-50a7.83,7.83,0,0,0-6-5.46c-.21,0-21.5-4.41-37.67-16.72A7.81,7.81,0,0,0,222,361.2a7.7,7.7,0,0,0-3.46.81,6.52,6.52,0,0,0-.68.38c-1.59.89-12.09,6.52-24.12,12.95l13.58-24a7.8,7.8,0,0,0-.81-8.87c-.14-.16-13.6-16.45-17.42-38a7.83,7.83,0,0,0-5.78-6.21c-2.14-.6-28.61-8.21-51.54-14.82L184,268.32a7.78,7.78,0,0,0,5.54-6.32,85.44,85.44,0,0,1,16.79-36.18,7.41,7.41,0,0,0,.64-.91c2.26-3.79.71-6.72-.93-9.82-.73-1.38-1.77-3.34-3-5.69-2.5-4.68-5.85-10.91-9.19-17.14l-.42-.78,25.42,14.59a8.07,8.07,0,0,0,4,1.11,7.27,7.27,0,0,0,5.47-2.46c.75-.7,9.85-8.72,35.8-15.77,2.34-.41,4.92-1.94,6.24-6.26.18-.59.43-1.45.75-2.55.59-2,1.45-5,2.53-8.81,1.83-6.43,4.36-15.38,7.52-26.62l3.46-12.3m-.13-28.48s-21.61,77.35-21.89,77.35c-30.69,8.25-39.91,18-39.91,18l-49.13-28.21s26.84,49.82,26.7,49.82a92.22,92.22,0,0,0-18.44,39.91l-78.18,22.64s77.63,22.37,77.76,22.37c4.27,24.08,19.13,41.7,19.13,41.7l-26.83,47.34S222,369.14,222,369c17.9,13.63,40.88,18.17,40.88,18.17L285.18,463s21.89-76.52,21.75-76.52c25.87-5.51,41.56-19.27,41.56-19.27l46.25,26.43s-25.19-47.76-25.33-48c13.9-17.06,18-41.28,18-41.28l75.84-21.89s-76.66-22.16-76.8-22.43c-3.72-20-18.3-38.81-18.3-38.81l27.66-48.31S346.15,199,346,199c-19.82-14.73-38.95-17.2-38.95-17.2l-22.57-77.9Z"/><path class="cls-4" d="M61.71,225.3,60,234.65l-12.76,6.44-.51,2.75,11.19,2.06-1.4,7.63L26,247.91l2.26-12.28a27.8,27.8,0,0,1,1.13-4.37,9.57,9.57,0,0,1,2-3.24,8.18,8.18,0,0,1,3.14-2.12,8.06,8.06,0,0,1,4.26-.21,9.64,9.64,0,0,1,5.4,2.63,11.36,11.36,0,0,1,2.7,4.86Zm-23.45,8.44a4.27,4.27,0,0,0-2.06.08,2.94,2.94,0,0,0-1.55,1.23,5.65,5.65,0,0,0-.69,1.53c-.16.57-.32,1.3-.48,2.17L33,241.32l8.22,1.51.4-2.19a16.46,16.46,0,0,0,.31-2.76,4.24,4.24,0,0,0-.48-2,3.61,3.61,0,0,0-1.18-1.35A5.21,5.21,0,0,0,38.26,233.74Z"/><path class="cls-4" d="M61.34,227.19,34.9,207.85l2.56-8.11,32.75-.66-2.42,7.65-6.62,0L58.23,216l5.46,3.75Zm-6.05-20.58-10.72-.06,8.81,6.11Z"/><path class="cls-4" d="M61.71,166.56a12.4,12.4,0,0,1,3.47,2.32A8.58,8.58,0,0,1,67.35,172a13.3,13.3,0,0,1,.65,2.2,9.86,9.86,0,0,1,.2,2.39,13.25,13.25,0,0,1-.34,2.58,14.72,14.72,0,0,1-1,2.85l-1.69,3.73L74.43,190l-3.21,7.1L42.94,184.29l5-11a19.48,19.48,0,0,1,2.36-4,11.12,11.12,0,0,1,2.87-2.58,7.79,7.79,0,0,1,4-1.19A10.39,10.39,0,0,1,61.71,166.56Zm-3.13,7.37a4,4,0,0,0-2.32-.36,3.22,3.22,0,0,0-1.8.83,6.49,6.49,0,0,0-1.38,1.7c-.32.59-.72,1.41-1.19,2.47l-.46,1,8.47,3.83.23-.49c.3-.67.58-1.31.84-1.91a13.35,13.35,0,0,0,.57-1.62,5.7,5.7,0,0,0,.17-1.37,3.52,3.52,0,0,0-.17-1.26,4.11,4.11,0,0,0-1-1.64A7.35,7.35,0,0,0,58.58,173.93Z"/><path class="cls-4" d="M85.82,167.3,64.23,154.45l-4.69,7.88-5.08-3,13.37-22.45,5.09,3-4.7,7.88L89.8,160.61Z"/><path class="cls-4" d="M100.87,119q6,4.61,6.89,10.43t-3.35,11.36q-4.3,5.55-10.21,6t-11.76-4.06q-5.91-4.59-6.89-10.41t3.32-11.38q4.29-5.52,10.18-6.06T100.87,119Zm-4.94,6.34a17.18,17.18,0,0,0-4.08-2.44,10,10,0,0,0-3.47-.75,6,6,0,0,0-2.83.67,6.67,6.67,0,0,0-3.23,4.1,6.23,6.23,0,0,0,.06,2.9A9.35,9.35,0,0,0,84,133a19.82,19.82,0,0,0,7.5,5.86,9.62,9.62,0,0,0,3.44.71,5.88,5.88,0,0,0,2.85-.66,6.49,6.49,0,0,0,2-1.74,6.25,6.25,0,0,0,1.16-2.47,5.69,5.69,0,0,0-.09-2.89,10.19,10.19,0,0,0-1.55-3.16A16.73,16.73,0,0,0,95.93,125.3Z"/><path class="cls-4" d="M136.15,105.68l-6.77,6.67-14.14-2-2,2,8,8.1-5.52,5.45L93.93,103.72,102.82,95A27.37,27.37,0,0,1,106.25,92a9.46,9.46,0,0,1,3.47-1.53,7.47,7.47,0,0,1,7.4,2.34A9.65,9.65,0,0,1,120,98.08a11.4,11.4,0,0,1-.58,5.53ZM112.1,99.15A4.32,4.32,0,0,0,110.37,98a3,3,0,0,0-2,.12A5.55,5.55,0,0,0,107,99c-.46.38-1,.88-1.65,1.51l-1.85,1.83,5.87,6,1.58-1.57a15.72,15.72,0,0,0,1.83-2.08,4,4,0,0,0,.78-2,3.66,3.66,0,0,0-.18-1.78A5.37,5.37,0,0,0,112.1,99.15Z"/><path class="cls-4" d="M145.4,99.61a25.15,25.15,0,0,1-5.38,3.28,30.93,30.93,0,0,1-5,1.71l-4.51-5.84.56-.43a17.45,17.45,0,0,0,5.94-.74,15.26,15.26,0,0,0,5-2.49,14.54,14.54,0,0,0,1.31-1.19,5.81,5.81,0,0,0,1.11-1.44,3.85,3.85,0,0,0,.49-1.63,2.5,2.5,0,0,0-.58-1.67,2.34,2.34,0,0,0-1.89-.94,5.75,5.75,0,0,0-2.38.5c-1,.42-2.06.9-3.17,1.44a28.21,28.21,0,0,1-3.22,1.33,10.59,10.59,0,0,1-6.18.45,8.91,8.91,0,0,1-4.52-3.3,8.34,8.34,0,0,1-1.39-7.84A15.22,15.22,0,0,1,127.19,73a27.82,27.82,0,0,1,4.71-2.92,23.65,23.65,0,0,1,4.82-1.79l4.33,5.61-.55.42a15.24,15.24,0,0,0-4.87.6A13.19,13.19,0,0,0,131,77.27a10.66,10.66,0,0,0-1.37,1.24,7.59,7.59,0,0,0-1,1.49,3.52,3.52,0,0,0-.39,1.55,2.44,2.44,0,0,0,2.3,2.47,8.59,8.59,0,0,0,3.35-1l2.81-1.29a28.31,28.31,0,0,1,3-1.17,10.64,10.64,0,0,1,5.72-.45,8.09,8.09,0,0,1,4.42,3.16,8.94,8.94,0,0,1,1.66,8.11Q150.31,95.84,145.4,99.61Z"/><path class="cls-4" d="M184.68,61.77,160.56,74.65,158,69.91,182.15,57Z"/><path class="cls-4" d="M223.81,49.22a9,9,0,0,1,.43,4.13,8.27,8.27,0,0,1-1.33,3.49,11,11,0,0,1-3,3.06A20.37,20.37,0,0,1,215,62.11L203.18,66,193.51,36.5l10.41-3.42a38.46,38.46,0,0,1,5-1.37,10.17,10.17,0,0,1,3.48,0,6,6,0,0,1,3.11,1.5,7,7,0,0,1,1.86,3,7.37,7.37,0,0,1,.18,4.2,6.66,6.66,0,0,1-2.16,3.45l0,.16a8.49,8.49,0,0,1,5.14.91A7.13,7.13,0,0,1,223.81,49.22Zm-13.47-9a3.45,3.45,0,0,0-.84-1.35,2.31,2.31,0,0,0-1.5-.71,5,5,0,0,0-1.85.22c-.67.2-1.67.52-3,1l-.51.17,2,6.24.93-.31c1.26-.41,2.15-.72,2.65-.91a4.48,4.48,0,0,0,1.43-.94,2.49,2.49,0,0,0,.86-1.55A4.2,4.2,0,0,0,210.34,40.21Zm5.8,11.37a3.84,3.84,0,0,0-1.26-2,3.56,3.56,0,0,0-2-.62,6.1,6.1,0,0,0-1.94.32c-.79.24-1.85.57-3.17,1l-1.37.45,2.43,7.38.39-.13q2.9-.95,4-1.35a6.52,6.52,0,0,0,2.08-1.27,3.15,3.15,0,0,0,1.06-1.77A4.19,4.19,0,0,0,216.14,51.58Z"/><path class="cls-4" d="M255.14,37q1.38,7.4-1.8,12.37t-10.05,6.25q-6.9,1.29-11.64-2.28t-6.08-10.86q-1.37-7.36,1.78-12.36t10.05-6.28q6.89-1.27,11.63,2.24T255.14,37Zm-7.91,1.44a17,17,0,0,0-1.42-4.53A9.82,9.82,0,0,0,243.72,31a6,6,0,0,0-2.56-1.38,6.5,6.5,0,0,0-2.67-.07,6.41,6.41,0,0,0-2.47,1,6.32,6.32,0,0,0-1.88,2.2,9.41,9.41,0,0,0-.94,3.44,16.59,16.59,0,0,0,.28,4.8,16.72,16.72,0,0,0,1.42,4.56A9.69,9.69,0,0,0,237,48.39a5.9,5.9,0,0,0,2.57,1.4,6.55,6.55,0,0,0,2.68.06,6.37,6.37,0,0,0,2.52-1.07,5.91,5.91,0,0,0,1.86-2.22,10.35,10.35,0,0,0,.94-3.38A17.35,17.35,0,0,0,247.23,38.43Z"/><path class="cls-4" d="M258.27,52.22l9-31.51,8.49-.42,12,30.48-8,.4-2.24-6.23-9.75.48-1.62,6.42ZM275.46,39.4,271.8,29.33l-2.67,10.38Z"/><path class="cls-4" d="M318.48,53.26,309,52.5l-7.72-12-2.78-.22-.91,11.35L289.88,51,292.35,20l12.44,1a27.48,27.48,0,0,1,4.47.68,9.72,9.72,0,0,1,3.42,1.62,8.12,8.12,0,0,1,2.42,2.9,8,8,0,0,1,.65,4.23,9.68,9.68,0,0,1-2.06,5.63,11.38,11.38,0,0,1-4.56,3.18ZM307.69,30.79a4.19,4.19,0,0,0-.28-2A3,3,0,0,0,306,27.34a5.22,5.22,0,0,0-1.59-.53c-.6-.1-1.33-.19-2.22-.26l-2.6-.21L299,34.67l2.22.18a16.24,16.24,0,0,0,2.77,0,4.3,4.3,0,0,0,2-.69,3.55,3.55,0,0,0,1.22-1.31A5.14,5.14,0,0,0,307.69,30.79Z"/><path class="cls-4" d="M350.17,44.44a15.83,15.83,0,0,1-3.51,7.18,14.17,14.17,0,0,1-5.8,4.13,13.39,13.39,0,0,1-5.57.84,38.08,38.08,0,0,1-6-.85l-9.49-2.06,6.59-30.33,9.41,2a41.51,41.51,0,0,1,5.9,1.71,13.57,13.57,0,0,1,4.81,3.12,14,14,0,0,1,3.6,6.19A16.52,16.52,0,0,1,350.17,44.44Zm-7.81-1.76a12,12,0,0,0,.08-5.35A7.78,7.78,0,0,0,337,31.67c-1.13-.3-2.47-.62-4-1l-.14,0-4.13,19,.14,0c1.71.37,3.16.65,4.35.85a7.07,7.07,0,0,0,3.59-.37,7.75,7.75,0,0,0,3.56-2.63A12.34,12.34,0,0,0,342.36,42.68Z"/><path class="cls-4" d="M365,66,349.22,60.6,351,55.47l4.22,1.44,6.51-19.12-4.22-1.44,1.74-5.13,15.83,5.39-1.75,5.13-4.22-1.44-6.51,19.12,4.22,1.44Z"/><path class="cls-4" d="M393.18,78.78l-6.78-3.22-1.52-24.68L375.6,70.42l-6.44-3.06,13.32-28,8.64,4.11,1.31,20.31,7.63-16.06,6.44,3.06Z"/><path class="cls-4" d="M420.4,94.22a36.92,36.92,0,0,1-5.32-1.56,27.61,27.61,0,0,1-5.81-2.88q-6.11-4-7.41-9.94c-.87-4,.12-8.07,3-12.39q4-6.09,10.07-7.37T427.24,63a22.57,22.57,0,0,1,4.88,4.11,34.21,34.21,0,0,1,3.1,4.46l-4,6.07-.59-.39c-.16-.45-.38-1.09-.67-1.93A17.81,17.81,0,0,0,429,73a14.31,14.31,0,0,0-1.62-2.44,10.72,10.72,0,0,0-2.45-2.18,10.11,10.11,0,0,0-3.39-1.49,8.26,8.26,0,0,0-3.5,0,8.94,8.94,0,0,0-3.38,1.58,12.66,12.66,0,0,0-3.05,3.32q-3,4.55-2.14,8.21a10.39,10.39,0,0,0,4.81,6.26c.23.16.51.33.83.52s.6.36.85.49l3.35-5.08-5-3.32,3.2-4.85,11.33,7.47Z"/><path class="cls-4" d="M439.2,113.58a25.38,25.38,0,0,1-4.06-4.81,31.13,31.13,0,0,1-2.45-4.7l5.08-5.34.52.49a17.2,17.2,0,0,0,1.63,5.75,15.39,15.39,0,0,0,3.22,4.54,16.68,16.68,0,0,0,1.37,1.11,6.36,6.36,0,0,0,1.6.88,3.85,3.85,0,0,0,1.67.23,2.45,2.45,0,0,0,1.57-.82,2.31,2.31,0,0,0,.64-2,5.79,5.79,0,0,0-.85-2.28c-.57-.93-1.21-1.9-1.9-2.91a26.77,26.77,0,0,1-1.81-3,10.54,10.54,0,0,1-1.39-6,9,9,0,0,1,2.58-5,8.35,8.35,0,0,1,7.54-2.56,15.14,15.14,0,0,1,8.53,4.4,27.47,27.47,0,0,1,3.61,4.21,24,24,0,0,1,2.5,4.49l-4.89,5.13-.49-.48a15.43,15.43,0,0,0-1.34-4.72,13.3,13.3,0,0,0-3-4.27,11.35,11.35,0,0,0-1.42-1.16A7.25,7.25,0,0,0,456,94a3.44,3.44,0,0,0-1.6-.15,2.26,2.26,0,0,0-1.39.69,2.31,2.31,0,0,0-.69,2,8.43,8.43,0,0,0,1.49,3.17c.59.89,1.16,1.74,1.7,2.57a26.59,26.59,0,0,1,1.61,2.8,10.65,10.65,0,0,1,1.32,5.58,8.1,8.1,0,0,1-2.45,4.86,8.94,8.94,0,0,1-7.77,2.87Q443.67,117.86,439.2,113.58Z"/><path class="cls-4" d="M462.91,151.77a20.68,20.68,0,0,1-1.94-1.66,36.71,36.71,0,0,1-2.61-3,12.19,12.19,0,0,1-2.16-3.63,7.83,7.83,0,0,1-.47-3.32,7.14,7.14,0,0,1,.95-3,11,11,0,0,1,2.12-2.58,14,14,0,0,1-3-10.92q.93-5.62,6.53-10.2c3.87-3.15,7.76-4.61,11.7-4.37s7.37,2.17,10.33,5.8,4.16,7.38,3.62,11.28-2.76,7.43-6.65,10.6a18.44,18.44,0,0,1-8.73,4.18,12.69,12.69,0,0,1-8.4-1.48,4.15,4.15,0,0,0-1.79,2.77,5.12,5.12,0,0,0,1.48,3.18,7.78,7.78,0,0,0,1.47,1.37,8.57,8.57,0,0,0,1.37.84l.49.59Zm5.92-17.85a10.33,10.33,0,0,0,3.42-.79,16.73,16.73,0,0,0,4-2.57,16.56,16.56,0,0,0,3.3-3.43,9.51,9.51,0,0,0,1.51-3.2,6,6,0,0,0,0-2.91,6.44,6.44,0,0,0-1.23-2.38,5.79,5.79,0,0,0-4.87-2.29,9.51,9.51,0,0,0-3.47.83,19.66,19.66,0,0,0-7.4,6,9.66,9.66,0,0,0-1.47,3.19,5.76,5.76,0,0,0,0,2.92,6.55,6.55,0,0,0,1.23,2.39,6.35,6.35,0,0,0,2.14,1.69A5.7,5.7,0,0,0,468.83,133.92Z"/><path class="cls-4" d="M477.28,160.71q-3.27-5.33-2.45-9.78t5.78-7.48l16.9-10.36,4.07,6.65-16.51,10.12a7.85,7.85,0,0,0-3.47,3.55,4.73,4.73,0,0,0,.72,4.21,4.87,4.87,0,0,0,3.36,2.58c1.31.18,2.91-.31,4.82-1.48L507,148.61l4.08,6.65L494.2,165.6q-4.89,3-9.22,1.8C482.09,166.6,479.52,164.38,477.28,160.71Z"/><path class="cls-4" d="M485.54,173l32.6-3.18,3.5,7.75-24,22.31-3.29-7.32,5-4.37-4-8.89-6.57.83Zm18.22,11.32,8-7.09-10.63,1.31Z"/><path class="cls-4" d="M521.18,223.93a15.83,15.83,0,0,1-8,.45,14.28,14.28,0,0,1-6.43-3.06,13.39,13.39,0,0,1-3.45-4.45,38.76,38.76,0,0,1-2.19-5.66l-2.83-9.29,29.69-9,2.8,9.21a42.19,42.19,0,0,1,1.39,6,13.39,13.39,0,0,1-.38,5.72,14,14,0,0,1-3.64,6.16A16.48,16.48,0,0,1,521.18,223.93Zm-2.27-7.67a11.89,11.89,0,0,0,4.71-2.54,7.79,7.79,0,0,0,2.27-7.55c-.29-1.13-.66-2.46-1.13-4l0-.14-18.59,5.65,0,.14c.51,1.68,1,3.08,1.38,4.21a7.07,7.07,0,0,0,2.07,3,7.76,7.76,0,0,0,4,1.82A12.25,12.25,0,0,0,518.91,216.26Z"/><path class="cls-4" d="M508,241.67a25.53,25.53,0,0,1-.39-6.29,31.08,31.08,0,0,1,.83-5.23l7.27-1.26.12.69a17.41,17.41,0,0,0-2.12,5.6,15.15,15.15,0,0,0-.11,5.56,12.73,12.73,0,0,0,.44,1.71,6.33,6.33,0,0,0,.75,1.66,3.89,3.89,0,0,0,1.21,1.18,2.43,2.43,0,0,0,1.75.27,2.28,2.28,0,0,0,1.71-1.23,5.81,5.81,0,0,0,.68-2.34c.09-1.08.16-2.24.2-3.47a26.54,26.54,0,0,1,.33-3.47,10.44,10.44,0,0,1,2.48-5.68,8.91,8.91,0,0,1,5-2.46,8.4,8.4,0,0,1,7.59,2.43A15.23,15.23,0,0,1,540,238a26.8,26.8,0,0,1,.39,5.52,24.44,24.44,0,0,1-.66,5.1l-7,1.21-.12-.68a15.6,15.6,0,0,0,1.74-4.58,13.31,13.31,0,0,0,.13-5.22,9.79,9.79,0,0,0-.46-1.78,6.81,6.81,0,0,0-.84-1.59,3.42,3.42,0,0,0-1.19-1.07,2.21,2.21,0,0,0-1.54-.27,2.34,2.34,0,0,0-1.72,1.15,8.53,8.53,0,0,0-.68,3.43c-.05,1.07-.11,2.1-.16,3.09a29.06,29.06,0,0,1-.38,3.2,10.51,10.51,0,0,1-2.27,5.27,8.07,8.07,0,0,1-4.85,2.44,9,9,0,0,1-8-2.31Q509.1,247.77,508,241.67Z"/><path class="cls-4" d="M171.55,517.09a27.16,27.16,0,0,1-5.76-3.59,33.41,33.41,0,0,1-4.06-4l3.43-7.15.69.33a18.83,18.83,0,0,0,3.57,5.35,14.19,14.19,0,0,0,6.58,4.24,6.6,6.6,0,0,0,1.92.38,4.18,4.18,0,0,0,1.8-.32A2.6,2.6,0,0,0,181,511a2.47,2.47,0,0,0,0-2.26,6.29,6.29,0,0,0-1.63-2c-.9-.76-1.87-1.54-2.92-2.35a30.59,30.59,0,0,1-2.84-2.45,11.36,11.36,0,0,1-3.42-5.72,9.55,9.55,0,0,1,1-5.94,9,9,0,0,1,6.86-5.13,16.29,16.29,0,0,1,10.19,1.67,28.82,28.82,0,0,1,5.08,3.11,25.62,25.62,0,0,1,4.06,3.76l-3.3,6.87-.67-.32a16.49,16.49,0,0,0-2.93-4.39A14.3,14.3,0,0,0,186,492.4a11.08,11.08,0,0,0-1.84-.71,7.51,7.51,0,0,0-1.92-.25,3.74,3.74,0,0,0-1.69.37,2.6,2.6,0,0,0-1.25,3.4,9,9,0,0,0,2.57,2.74l2.6,2.07a29.5,29.5,0,0,1,2.58,2.33,11.39,11.39,0,0,1,3.2,5.28,8.66,8.66,0,0,1-.89,5.77,9.63,9.63,0,0,1-7,5.53Q177.55,520,171.55,517.09Z"/><path class="cls-4" d="M197.16,527.25l8.78-25.54-9.33-3.21,2.08-6,26.58,9.15-2.07,6-9.33-3.21L205.09,530Z"/><path class="cls-4" d="M216.7,533.93l18-30.31,8.94,1.89,4.11,35-8.44-1.79-.63-7.1-10.27-2.18-3.45,6.24Zm21.4-8.61-1-11.48-5.62,10.06Z"/><path class="cls-4" d="M284.53,543.54l-10.2-.78L266,529.85l-3-.22-.92,12.2-8.32-.63,2.53-33.29,13.39,1a28.86,28.86,0,0,1,4.8.71,10.34,10.34,0,0,1,3.69,1.73,8.68,8.68,0,0,1,2.62,3.11,8.58,8.58,0,0,1,.71,4.54,10.32,10.32,0,0,1-2.19,6.07,12.27,12.27,0,0,1-4.89,3.45Zm-11.71-24.12a4.51,4.51,0,0,0-.32-2.19,3.13,3.13,0,0,0-1.49-1.52,5.83,5.83,0,0,0-1.71-.56c-.64-.11-1.43-.2-2.39-.27l-2.79-.21-.68,9,2.39.18a17.55,17.55,0,0,0,3,0,4.42,4.42,0,0,0,2.14-.75,4.1,4.1,0,0,0,1.31-1.41A5.69,5.69,0,0,0,272.82,519.42Z"/><path class="cls-4" d="M324.14,540.86l-8.31.64-1.71-22.06-5,14.7-5.7.44-7.16-13.77L298,542.88l-7.87.61-2.57-33.29,9.63-.74,8.65,15.85,6.08-17,9.64-.75Z"/><path class="cls-4" d="M330.45,539.8l3.5-35.06,8.92-2.05,18.48,30-8.42,1.94-3.56-6.18-10.22,2.36-.5,7.11ZM346.22,523l-5.79-10-.85,11.49Z"/><path class="cls-4" d="M389.14,504.6a17,17,0,0,1,1.07,8.53,15.33,15.33,0,0,1-2.81,7.13,14.42,14.42,0,0,1-4.52,4,41.58,41.58,0,0,1-5.92,2.77l-9.76,3.72-11.88-31.2,9.68-3.69a46.85,46.85,0,0,1,6.33-1.92,14.37,14.37,0,0,1,6.16,0,14.94,14.94,0,0,1,6.88,3.46A17.72,17.72,0,0,1,389.14,504.6Zm-8.07,3a13,13,0,0,0-3.06-4.87,8.21,8.21,0,0,0-4.56-2.18,8.11,8.11,0,0,0-3.71.31c-1.19.38-2.59.89-4.22,1.5l-.14.06L372.81,522l.15-.06c1.76-.67,3.23-1.26,4.41-1.79a7.45,7.45,0,0,0,3-2.43,8.33,8.33,0,0,0,1.66-4.47A13.06,13.06,0,0,0,381.07,507.6Z"/><path class="cls-4" d="M398.89,518.41l-6.19-34.69,8-4.41,25.95,23.84-7.56,4.15-5.11-5-9.2,5.05,1.46,7Zm10.58-20.5-8.28-8,2.31,11.29Z"/><polygon class="cls-4" points="256.49 256.49 283.46 207.16 310.44 256.49 359.77 283.46 310.44 310.44 283.46 359.77 256.49 310.44 207.16 283.46 256.49 256.49"/></svg>