<svg enable-background="new 0 0 113.4 113.5" viewBox="0 0 113.4 113.5" xmlns="http://www.w3.org/2000/svg"><path d="m56.8 0c30.9-.1 56.6 25.1 56.6 56.6 0 31.8-24.9 55-53 56.8-34.3 2.1-60.8-25.8-60.4-57.4.4-30.6 25.6-56.3 56.8-56zm-2.1 15.8c-13.3.7-27.8 8.1-34.8 23.1-7.4 15.8-5.4 30.8 5.4 44.3 7.4 9.2 17.5 13.9 29.4 14.6 0-2.5 0-4.9 0-7.4-7.3-.6-13.9-3.1-19.5-7.7-.2-8.1 2.4-15.3 6.8-22 4.7 12.9 12.8 22.4 25.4 27.8-2.7 1.3-5.7 1.4-8.4 2v7.3c23.7-1.8 37.5-20.8 38.5-38.6 1.2-20.5-14-41.6-38.5-43.3v7.5c4.4.4 8.6 1.5 12.7 3.6-10.3 5.9-19.6 12.7-27.8 21.3-1.7-6.5-3.9-12.5-9.4-16.7 5.8-5 12.6-7.6 20.1-8.2.1-2.7.1-5.1.1-7.6z" fill="#040405"/><path d="m54.7 15.8v7.4c-7.5.6-14.3 3.2-20.1 8.2 5.5 4.2 7.8 10.2 9.4 16.7 8.2-8.6 17.6-15.4 27.8-21.3-4.1-2.1-8.3-3.2-12.7-3.6 0-2.6 0-5 0-7.5 24.5 1.7 39.7 22.8 38.5 43.3-1 17.8-14.8 36.8-38.5 38.6 0-2.4 0-4.8 0-7.3 2.7-.6 5.6-.6 8.4-2-12.6-5.4-20.7-14.9-25.4-27.8-4.5 6.8-7 13.9-6.8 22 5.6 4.6 12.1 7.1 19.5 7.7v7.4c-11.9-.7-22-5.4-29.4-14.6-10.9-13.3-13-28.3-5.5-44.1 7-15 21.5-22.4 34.8-23.1zm11.6 21.9c-1.8 1.1-3.5 2.2-5 3.6-2.8 1.8-5.3 4.1-7.8 6.3-2.4 2.1-4.6 4.4-6.7 6.9 1.3 5.7 3.6 10.8 6.9 15.4.9.2 1.7.5 2.5.3 2.7.5 5.4.6 8.1.5 3.1.1 6.2-.2 9.2-1 5.9-1.1 11-3.7 15.2-8.1.6-.7 1.5-1.2 1.5-2.2.1-2.5.1-4.9-.3-7.3-.7-4.1-2-8.1-4-11.8s-5-6.7-8.1-9.6c-3.3 1.8-6.6 3.5-9.6 5.7-.7.3-1.4.7-1.9 1.3zm-36.1-1.6c-5.2 6.8-7.6 14.4-7.1 22.8.4 6.3 2.4 12.1 6.2 17.5 1.1-7.8 4.2-14.5 8.6-20.6.5-.7.9-1.4.7-2.3-.6-3.8-1.5-7.4-3.1-10.9-1.1-2.6-2.7-4.9-5.3-6.5zm56.9 34.9c-8.3 5-17.2 6.3-26.7 6 4.7 3.9 9.8 6.2 15.3 7.6 4.8-3.6 8.7-7.8 11.4-13.6z" fill="#fdfdfd"/><path d="m68.3 36.4c3-2.2 6.3-3.9 9.6-5.7 3.1 2.9 6 5.8 8.1 9.6 2 3.7 3.4 7.6 4 11.8.4 2.4.4 4.9.3 7.3 0 1-.9 1.6-1.5 2.2-4.2 4.3-9.3 6.9-15.2 8.1.5-.5 1-1 1.4-1.4 2.1-2.1 3.5-4.6 3.8-7.6.5-3.6-.4-6.9-1.7-10.2-2.1-5.3-5.3-9.8-8.8-14.1z" fill="#dd2a28"/><path d="m30.2 36.1c2.6 1.7 4.2 3.9 5.3 6.5 1.6 3.5 2.5 7.1 3.1 10.9.1.9-.2 1.6-.7 2.3-4.4 6.2-7.4 12.9-8.6 20.6-3.8-5.4-5.9-11.2-6.2-17.5-.5-8.4 1.9-16 7.1-22.8z" fill="#00a1d9"/><path d="m56.2 70.2c-.8.1-1.6-.1-2.5-.3-3.3-4.6-5.6-9.8-6.9-15.4 2.1-2.5 4.3-4.7 6.7-6.9 2.5-2.2 5-4.5 7.8-6.3.2.5.5 1 .7 1.5 3.4 7.1 3.8 14.1-.4 21.1-1.4 2.3-3.4 4.3-5.4 6.3z" fill="#040405"/><path d="m68.3 36.4c3.6 4.3 6.8 8.8 8.9 14.1 1.3 3.3 2.2 6.6 1.7 10.2-.4 3-1.7 5.5-3.8 7.6-.5.5-1 1-1.4 1.4-3 .8-6.1 1.2-9.2 1 .2-.2.3-.4.5-.6 8-9.9 7.7-22.1 1.5-32.4.3-.6 1-1 1.8-1.3z" fill="#040405"/><path d="m66.3 37.7c6.2 10.3 6.5 22.5-1.5 32.4-.2.2-.3.4-.5.6-2.7.1-5.4 0-8.1-.5 2-2 4-4 5.4-6.4 4.2-6.9 3.8-14 .4-21.1-.2-.5-.5-1-.7-1.5 1.5-1.3 3.2-2.5 5-3.5z" fill="#dd2a28"/><path d="m87.1 71c-2.7 5.8-6.6 10-11.4 13.6-5.5-1.4-10.6-3.7-15.3-7.6 9.5.3 18.3-1 26.7-6z" fill="#f5c629"/></svg>