<?xml version="1.0" encoding="utf-8"?>
<!-- Generator: Adobe Illustrator 26.0.1, SVG Export Plug-In . SVG Version: 6.00 Build 0)  -->
<svg version="1.1" id="Capa_1" xmlns="http://www.w3.org/2000/svg" xmlns:xlink="http://www.w3.org/1999/xlink" x="0px" y="0px"
	 viewBox="0 0 2000 2000" style="enable-background:new 0 0 2000 2000;" xml:space="preserve">
<style type="text/css">
	.st0{fill:#FFFFFF;}
	.st1{fill:#2E3E50;}
	.st2{fill:#35495E;}
	.st3{fill-rule:evenodd;clip-rule:evenodd;fill:#2E3E50;}
	.st4{fill-rule:evenodd;clip-rule:evenodd;fill:#35495E;}
	.st5{fill-rule:evenodd;clip-rule:evenodd;fill:#F1C410;}
	.st6{enable-background:new    ;}
</style>
<g>
	<ellipse class="st0" cx="1000" cy="1000.1" rx="942.2" ry="927.1"/>
	<circle class="st1" cx="1000" cy="1000.1" r="822.3"/>
	<circle class="st2" cx="1000" cy="1000.1" r="593.7"/>
	<path class="st3" d="M1000,422.6c318.9,0,577.5,258.6,577.5,577.1s-258.6,577.5-577.1,577.5c-318.9,0-577.5-258.6-577.5-577.1l0,0
		C422.6,681.1,681.1,422.6,1000,422.6z M1000,459.3c-298.8,0-540.8,242-540.8,540.8s242,540.8,540.8,540.8s540.8-242,540.8-540.8
		l0,0C1540.8,701.3,1298.5,458.9,1000,459.3C1000,458.9,1000,458.9,1000,459.3L1000,459.3z"/>
	<path class="st4" d="M1000,1909.1c502,0,909.1-407.1,909.1-909.1S1502,90.6,1000,90.6S90.6,497.7,90.6,1000.1
		S497.7,1909.1,1000,1909.1z M1851.6,1000.1c0,470.6-381.3,851.6-851.6,851.6s-851.9-381.3-851.9-851.6S529.5,148.1,1000,148.1
		S1851.6,529.5,1851.6,1000.1z"/>
	<path class="st5" d="M1927.1,1000.1c0,511.9-414.9,927.1-927.1,927.1S73,1512.3,73,1000.1S487.8,73,999.7,73
		c245.9,0,481.9,97.7,655.4,271.6C1829.4,518.2,1927.1,753.8,1927.1,1000.1z M1000,50.1c-524.6,0-950,425.4-950,950
		s425.4,950,950,950s950-425.4,950-950c0-251.9-100.2-493.5-278.3-671.7C1493.6,149.9,1251.9,49.7,1000,50.1z"/>
	<g class="st6">
		<path class="st0" d="M692.1,318.2c2.8,5.6,4.9,10.6,6,14.5c1.1,4.2,1.4,7.8,1.1,10.6c-0.4,2.8-1.1,5.3-2.5,7.4
			c-1.4,2.1-2.8,3.9-4.2,5.3c2.1-0.4,4.6-0.4,7.1,0c2.5,0.4,4.9,1.1,7.4,2.5c2.5,1.4,5.3,3.5,7.8,6.7c2.8,3.2,5.3,7.1,8.1,12.3
			l14.1,27.2l-17.6,9.2l-14.1-27.2c-2.5-4.6-4.9-8.5-7.1-11.3c-2.1-2.8-4.2-4.9-6.3-6c-2.1-1.1-4.2-1.8-6.3-1.8s-4.2,0.7-6.7,2.1
			l-14.8,7.8l-5.3-9.9l15.2-7.8c2.1-1.1,3.9-2.5,4.9-4.2s1.8-3.5,2.1-6c0.4-2.5-0.4-5.3-1.1-8.5c-0.7-3.2-2.8-7.1-4.9-11.6
			c-2.5-4.6-4.6-8.1-6.7-10.9c-2.1-2.8-4.2-4.6-6.3-6c-2.1-1.4-4.2-1.8-6-1.8c-2.1,0-4.2,0.7-6.3,1.8l-22.2,11.6l56.4,108.3
			l-17.6,9.2l-61.7-118.5l43.7-22.9c9.9-5.3,18.3-6.3,25-3.5C679.7,299.8,686.1,306.9,692.1,318.2z"/>
	</g>
	<g class="st6">
		<path class="st0" d="M794.4,352.7l-33.5,11.6l4.6,29.3l-18.7,6.7l-18-134.8l31-10.9L829,371.4l-19.4,6.7L794.4,352.7z
			 M759.1,353.4l29.6-10.6l-40.2-72.3l-1.8,0.7L759.1,353.4z"/>
	</g>
	<g class="st6">
		<path class="st0" d="M860.7,227.8l19.8-4.2l1.4,136.5l-30.7,6.7l-54-125.2l20.5-4.2l45.5,115.4l1.1-0.4L860.7,227.8z"/>
	</g>
	<g class="st6">
		<path class="st0" d="M987.4,347.1l-67.4,6l-11.6-133l67.4-6l1.1,11.3l-47.6,4.2l4.2,48.3l33.9-2.8l1.1,11.3l-33.9,2.8L939,340
			l47.6-4.2L987.4,347.1z"/>
	</g>
	<g class="st6">
		<path class="st0" d="M1083,350.6l-17.3-0.7l-43.4-111.1l-5.6,108.7l-15.5-0.7l6.7-133.3l24.7,1.4l36.3,97l4.9-94.9l15.9,0.7
			L1083,350.6z"/>
	</g>
	<g class="st6">
		<path class="st0" d="M1168.7,366.5l-66.3-12.7l25-131.2l66.3,12.7l-2.1,11.3l-46.9-8.8l-9.2,47.6l33.5,6.3l-2.1,10.9l-33.5-6.3
			l-9.5,50.1l46.9,8.8L1168.7,366.5z"/>
	</g>
	<g class="st6">
		<path class="st0" d="M1290.4,264.9l-49.4,55l-20.5,62.8l-19-6l20.5-63.1l-6-72.7l20.5,6.7l3.9,56.4l38.1-43L1290.4,264.9z"/>
	</g>
	<g class="st6">
		<path class="st0" d="M1320.7,425l-61.4-28.6l56.8-121l61.4,28.6l-4.9,10.2l-43-20.1l-20.8,44.1l31,14.5l-4.9,10.2l-31-14.5
			l-21.5,46.2l43,20.1L1320.7,425z"/>
	</g>
	<path class="st0" d="M1179.6,1275.6c-1.4,0.7-2.5,1.1-3.9,1.8C1175.7,1277.7,1177.1,1277,1179.6,1275.6z"/>
	<path class="st0" d="M1175.7,722.8c94.2,73.7,135.1,165.8,142.5,184.1c-104.4-105.5-172.9-124.2-172.9-124.2
		c82.5,64.6,112.5,174.6,112.5,174.6v0.4c-84.7-93.1-141.8-109-141.8-109c46.2,36,64.9,56.1,73.7,78.3
		c28.6,46.9,26.8,106.5-4.9,151.7c-17.6,32.5-57.1,66.3-66.7,72.3c54.7-22.9,105.1-70.2,137.9-106.2
		c-2.8,57.1-98.1,163.7-109.7,172.2c64.6-26.5,124.9-76.9,170.4-122.4v1.4c-2.1,69.5-115,165.8-137.6,179.9
		c172.1-71.6,320.3-276.9,320.3-276.9C1309.4,759.8,1175.7,722.8,1175.7,722.8z"/>
	<path class="st0" d="M1146.8,1216.6l-1.1,0.4C1145.7,1217.4,1146.1,1217.4,1146.8,1216.6z"/>
	<path class="st0" d="M1118.6,1150.3l-2.1,0.7C1116.5,1151.7,1117.2,1151.4,1118.6,1150.3z"/>
	<path class="st0" d="M820.1,1275.6c1.4,0.7,2.5,1.1,3.9,1.8C824,1277.7,822.6,1277,820.1,1275.6z"/>
	<path class="st0" d="M824,722.8c-94.2,73.7-135.1,165.8-142.5,184.1C785.9,801.4,854,782.7,854,782.7
		c-82.5,64.6-112.5,174.6-112.5,174.6v0.4c85-93.1,141.8-109,141.8-109c-46.2,36-64.9,56.1-73.7,78.3
		c-28.6,46.9-26.8,106.5,4.9,151.7c17.6,32.5,57.1,66.3,66.7,72.3c-55-22.9-105.1-70.2-137.9-106.2c2.8,57.1,98.1,163.7,109.7,172.2
		c-64.6-26.5-124.9-76.9-170.4-122.4v1.4c2.1,69.5,115,165.8,137.6,179.9C648,1204.3,499.8,999,499.8,999
		C690.3,759.8,824,722.8,824,722.8z"/>
	<path class="st0" d="M853.3,1216.6l1.1,0.4C854.4,1217.4,854,1217.4,853.3,1216.6z"/>
	<path class="st0" d="M881.2,1150.3l2.1,0.7C883.3,1151.7,882.6,1151.4,881.2,1150.3z"/>
	<path class="st0" d="M1002.5,861.4c-76.6,0-138.3,61.7-138.3,138.3S926,1138,1002.5,1138s138.3-61.7,138.3-138.3l0,0
		C1141.2,923.5,1079.1,861.8,1002.5,861.4z M1029,1003.9c-28.9,0-52.2-23.3-52.2-52.2c0-28.9,23.3-52.2,52.2-52.2
		c28.9,0,52.2,23.3,52.2,52.2l0,0C1081.2,980.6,1057.9,1003.9,1029,1003.9L1029,1003.9z"/>
	<path class="st1" d="M998.3,1596.6c-208.5-0.4-401.4-109.7-508.7-288.6l-197.9,113.6c143.2,241.3,406.7,403.6,706.6,403.6
		c303,0,568.7-165.4,711.2-410.3l-197.5-114.6C1405.7,1483.3,1209.9,1596.2,998.3,1596.6z"/>
	<g class="st6">
		<path class="st0" d="M473.7,1423.4c8.1-7.8,16.2-12,23.6-13.1c7.4-1.1,14.8,2.1,21.9,9.9l20.1,21.5c7.1,7.4,9.9,15.2,8.1,22.2
			c-1.4,7.4-6.3,14.8-14.8,22.6l-46.6,43.4c-7.8,7.4-15.5,11.6-22.9,12.3c-7.4,1.1-14.8-2.5-21.5-9.9l-20.1-21.5
			c-7.1-7.4-9.9-14.8-8.5-22.2s6-14.8,14.1-22.2L473.7,1423.4z M518.9,1472.1c6.7-6.3,10.6-11.3,11.6-15.5c1.1-3.9-0.4-7.8-3.9-11.6
			l-11.6-12.7c-3.5-3.9-7.4-5.3-11.3-4.9c-3.9,0.7-9.5,4.2-16.2,10.2l-46.9,44.1c-5.6,5.3-9.2,9.9-10.2,14.5c-1.1,4.2,0,8.5,3.5,12
			l11.6,12.7c3.5,3.9,7.4,5.3,12,4.2c4.6-1.1,9.5-3.9,15.2-9.2L518.9,1472.1z"/>
	</g>
	<g class="st6">
		<path class="st0" d="M606,1547.9c-3.9,4.9-7.8,8.8-10.9,11.3c-3.2,2.5-6.3,4.2-9.2,5.3c-2.8,1.1-5.3,1.1-7.8,0.7
			c-2.5-0.4-4.6-1.1-6.7-1.8c1.1,2.1,2.1,4.2,2.8,6.3c0.7,2.5,1.1,4.9,0.7,7.8s-1.4,6.3-3.2,9.9c-1.8,3.5-4.2,7.8-8.1,12.3
			l-19.4,23.6l-15.5-12.7l19.4-23.6c3.5-4.2,6-7.8,7.8-10.9c1.8-3.2,2.8-6,2.8-8.5c0.4-2.5,0-4.6-1.1-6.7c-1.1-1.8-2.5-3.5-4.6-5.3
			l-12.7-10.6l7.1-8.8l13.1,10.6c1.8,1.4,3.9,2.5,5.6,2.8c2.1,0.4,4.2,0.4,6.3-0.4s4.6-2.1,7.4-4.6c2.5-2.1,5.6-5.3,8.8-9.2
			c3.2-3.9,5.6-7.4,7.4-10.6c1.8-3.2,2.5-5.6,2.8-8.1s0-4.6-1.1-6.3c-1.1-1.8-2.5-3.5-4.2-4.9l-19.4-15.9l-76.9,94.9l-15.5-12.7
			l84.3-103.7l38.1,31c8.8,7.1,13.1,14.1,13.4,21.5S614.1,1538,606,1547.9z"/>
	</g>
	<g class="st6">
		<path class="st0" d="M656.8,1651.6c-6.3,10.2-13.1,16.6-20.5,19.4c-7.4,2.8-15.9,1.1-25.4-4.6l-42.3-25.8l69.5-113.9l42.3,25.8
			c9.2,5.6,14.1,12.3,14.8,19.8c0.7,7.4-1.8,16.2-7.8,25.8c-2.8,4.6-5.3,7.8-7.8,10.6c-2.5,2.8-4.9,4.6-7.1,5.6
			c-2.1,1.4-4.6,2.1-6.7,2.5s-4.2,0.4-6.7,0c1.4,1.8,2.8,3.9,3.5,6.3c1.1,2.5,1.4,4.9,1.1,7.8c0,2.8-0.7,6-1.8,9.9
			C661.4,1643.5,659.3,1647.4,656.8,1651.6z M639.2,1641.7c4.9-8.1,7.4-14.5,7.8-19c0.4-4.6-1.8-8.5-6.7-11.3l-15.5-9.5l6-9.5
			l15.5,9.5c4.6,2.8,8.5,3.2,12,1.1c3.2-2.1,7.1-6.7,11.3-13.8c4.9-8.1,7.1-14.5,6.7-19s-2.5-8.1-6.3-10.2l-21.2-12.7l-57.5,94.5
			l21.2,12.7c4.2,2.5,8.5,2.8,12.7,1.4C630,1654.1,634.6,1649.5,639.2,1641.7z"/>
	</g>
	<g class="st6">
		<path class="st0" d="M676.2,1701l-18-8.8l58.2-120.3l18,8.8L676.2,1701z"/>
	</g>
	<g class="st6">
		<path class="st0" d="M806.4,1622.3l-25.8-9.9l-44.1,113.9l-18.7-7.1l44.1-114.3l-25.8-9.9l4.2-10.6l69.8,26.8L806.4,1622.3z"/>
	</g>
	<g class="st6">
		<path class="st0" d="M830.7,1725l-34.2-9.2l-13.1,26.8l-19-5.3l61.4-121.7l31.7,8.5l-9.2,135.8l-20.1-5.3L830.7,1725z
			 M801.4,1705.2l30.7,8.1l7.8-82.5l-1.8-0.4L801.4,1705.2z"/>
	</g>
	<g class="st6">
		<path class="st0" d="M927.4,1771.9l-58.6-8.8l20.1-132.3l19.8,3.2l-18.3,121l38.8,6L927.4,1771.9z"/>
	</g>
	<g class="st6">
		<path class="st0" d="M1015.6,1741.6c0,7.8,1.4,13.4,3.9,17.3c2.5,3.9,6,5.6,11.3,5.6l33.2-0.7l0.4,11.3l-39.2,0.7
			c-10.2,0.4-17.6-2.8-22.2-8.8s-6.7-14.5-7.1-25l-1.4-63.5c-0.4-11.3,1.8-20.1,6-26.5c4.2-6.3,11.6-9.5,21.9-9.5l38.8-0.7l0.4,11.3
			l-32.8,0.7c-5.3,0-8.8,1.8-11.3,5.3c-2.1,3.5-3.2,9.9-3.2,19L1015.6,1741.6z"/>
	</g>
	<g class="st6">
		<path class="st0" d="M1072.7,1676.7c-1.8-11.3-0.7-20.1,2.5-26.8c3.5-6.7,10.2-10.9,20.5-12.3l28.9-4.6c10.2-1.4,18,0.4,23.3,5.6
			s8.8,13.8,10.6,25l9.5,62.8c1.8,10.6,0.7,19.4-2.8,26.1c-3.5,6.7-10.2,10.9-20.5,12.3l-28.9,4.6c-10.2,1.4-18-0.4-23.3-5.6
			s-8.8-13.4-10.2-24L1072.7,1676.7z M1138.3,1666.4c-1.4-9.2-3.5-15.2-6.3-18.3c-2.8-2.8-6.7-4.2-12-3.2l-16.9,2.5
			c-5.3,0.7-8.5,3.2-10.2,6.7c-1.8,3.5-1.8,10.2-0.4,19.4l9.5,62.8c1.1,7.8,3.2,13.1,6,16.6c2.8,3.5,6.7,4.6,12,3.9l16.9-2.5
			c5.3-0.7,8.5-3.2,10.2-7.4c1.8-4.2,1.8-9.9,0.7-17.6L1138.3,1666.4z"/>
	</g>
	<g class="st6">
		<path class="st0" d="M1304.5,1720.8l-18.3,6l-35.3-107.9l12.7,115.4l-18.7,6l-59.3-99.8l35.3,107.9l-17.3,5.6l-41.6-127l28.9-9.5
			l57.9,99.1l-12.7-113.9l27.2-8.8L1304.5,1720.8z"/>
	</g>
	<g class="st6">
		<path class="st0" d="M1362.7,1587.8c3.9,7.4,6.7,13.8,8.1,18.7c1.4,4.9,1.8,9.5,1.1,13.1c-0.7,3.5-2.8,6.7-6,9.5
			c-3.2,2.8-7.8,5.6-13.4,8.5l-18.3,9.5l-5.3-9.9l16.6-8.5c2.5-1.4,4.2-2.8,5.6-4.2c1.4-1.4,2.1-3.5,2.1-5.6c0-2.5-0.7-5.3-2.1-8.8
			c-1.4-3.5-3.5-8.1-6-13.4c-2.8-5.3-5.3-9.5-7.4-12.7c-2.1-3.2-4.2-5.3-6-6.7c-1.8-1.4-3.9-2.1-6-1.8c-2.1,0.4-4.2,1.1-6.7,2.1
			l-23.3,12l56.1,108.3l-17.6,9.2l-61.4-118.5l43-22.2c5.6-2.8,10.6-4.9,14.8-5.6c4.2-0.7,8.1-0.7,11.3,1.1
			c3.5,1.4,6.7,4.6,10.2,8.8C1355.3,1574.7,1358.8,1580.4,1362.7,1587.8z"/>
	</g>
	<g class="st6">
		<path class="st0" d="M1472.8,1624.8l-49,33.2l-75.1-110.4l16.6-11.3l68.4,100.9l32.5-21.9L1472.8,1624.8z"/>
	</g>
	<g class="st6">
		<path class="st0" d="M1540.5,1568.7l-51.5,43.7l-86.4-101.6l51.5-43.7l7.4,8.8l-36.3,31l31.4,36.7l26.1-22.2l7.4,8.5l-26.1,22.2
			l33.2,38.8l36.3-31L1540.5,1568.7z"/>
	</g>
	<g class="st6">
		<path class="st0" d="M1470.3,1448.4l48.3,17.6l-21.5-46.6l10.2-10.9l27.2,62.1l73.7,26.5l-14.8,16.2l-56.8-22.2l26.8,54.7
			l-10.2,10.9l-32.8-69.8l-64.9-21.9L1470.3,1448.4z"/>
	</g>
	<path class="st5" d="M1616.3,642c4.9-55.7-39.5-89.6-96.3-82.9c-9.5,1.1-4.2,2.8,0,4.6c30.3,12.7,17.3,87.8,88.2,85.4
		c-9.5-12.7-19.4-24.7-30-36.7c-8.8-9.9-0.4-7.8,2.5-2.8c84.7,94.2,128.1,210.2,133,335.5c4.9,126.6-30.7,256.1-106.5,362.3
		c-11.6,18-17.3,39.5-15.9,60.7c1.1,5.6,2.5,11.3,4.6,16.6c0,0.4,0.4,0.7,0.4,0.7c0.7,1.8,1.8,3.9,2.8,5.6c1.1,2.1,3.9,3.2,6,2.1
		c0.4,0,0.4-0.4,0.7-0.4c2.5-1.8,3.2-4.9,1.8-7.4c-6-11.3-8.5-24-7.1-36.3c1.4-11.6,5.3-22.9,11.3-33.2
		c63.1,41.3,87.5-36.7,121-33.2c4.6,0.4,10.2,1.8,2.1-4.2c-34.9-26.1-66.7-28.6-94.9-6c10.9-18.3,20.8-37,29.6-56.4
		c70.2,25.4,79.4-56.4,112.9-61.4c4.6-0.7,10.2-0.7,1.4-4.6c-39.5-17.3-71.3-11.6-94.9,18c6.3-18.3,12-37.4,16.6-56.4
		c70.6,8.8,65.6-69.8,96.7-81.1c4.2-1.4,9.5-2.8,0.4-4.6c-40.6-7.8-70.2,4.2-87.5,37.4c2.8-18.7,4.9-37.4,6-56.1
		c71.3-3.5,55.4-80.1,84.7-96.7c3.9-2.1,9.2-4.6-0.4-4.6c-43.4-0.7-72,18-83.3,57.5c0-5.3-0.4-10.2-0.4-15.2
		c-0.7-15.9-1.8-32.1-3.9-48c66.3-14.8,41.6-83.3,66.7-103.4c3.5-2.8,7.8-5.6-0.7-4.2c-42.7,6.7-67,30.7-71.3,72.7
		c-3.9-21.2-8.8-42-15.2-62.8c60.3-27.5,26.1-87.1,46.9-111.1c2.8-3.2,6.7-7.1-1.4-3.9c-39.5,15.2-58.9,42.3-56.4,82.2
		c-7.8-20.5-16.6-40.6-26.8-60c55-40.2,10.6-90.7,26.8-118.5c2.1-3.9,5.3-8.1-2.1-3.5c-36.3,23.3-50.8,54-41.6,92.4
		C1634.3,667,1625.9,654.3,1616.3,642L1616.3,642z M1543.7,686.8c51.9-40.2,80.4-21.2,106.5,29.6c-55.7,37-75.5-30-104.8-26.1
		C1541.2,691,1536.6,692.1,1543.7,686.8z M1588.8,754.9c57.9-28.6,81.5-3.5,98.1,52.9c-60.3,23.6-67.7-46.6-97-48.7
		C1585.6,758.8,1580.7,758.8,1588.8,754.9L1588.8,754.9z M1617,828.3c64.2-16.9,82.2,14.1,88.5,75.1c-63.1,9.9-59.3-62.1-88.2-70.9
		C1613.5,831.8,1608.6,830.7,1617,828.3L1617,828.3z M1626.6,912.9c67.7-5.6,86.1,29.3,80.1,95.2c-66-2.1-51.5-76.2-80.1-90.7
		C1622.3,915.7,1617.4,914,1626.6,912.9L1626.6,912.9z M1625.9,1001.8c69.1,6.3,79.7,43.4,62.4,107.6c-60.7-15.2-37.4-84.3-63.5-103
		C1621.6,1003.6,1616.7,1000.8,1625.9,1001.8z M1609.3,1085.1c70.2,22.6,71.3,62.1,43,124.5c-57.9-29.6-22.2-94.9-44.8-119.9
		C1604.3,1086.1,1600.1,1082.2,1609.3,1085.1L1609.3,1085.1z M1578.2,1172.6c59.3,36.3,59.6,74.8,21.5,128.4
		c-1.1,1.4-2.1,2.8-3.2,4.6c-51.2-43-3.5-98.8-20.8-129.1C1573.3,1171.8,1569.8,1167.3,1578.2,1172.6L1578.2,1172.6z"/>
	<path class="st5" d="M385.5,642c-9.2,12.3-18,25-25.8,38.5c9.2-38.5-5.3-69.1-41.6-92.4c-7.4-4.9-4.6-0.4-2.1,3.5
		c16.6,28.2-27.9,78.7,26.8,118.5c-10.2,19.4-19,39.5-26.8,60c2.5-39.9-17.3-67-56.8-81.8c-8.1-3.2-4.2,0.7-1.4,3.9
		c20.8,24-13.4,83.6,46.9,111.1c-6.3,20.5-11.3,41.6-15.2,62.8c-4.2-42-28.6-65.6-71.3-72.7c-8.8-1.4-4.2,1.4-0.7,4.2
		c25.4,20.1,0.4,88.5,66.7,103.4c-2.1,15.9-3.2,31.7-3.9,48c-0.4,4.9-0.4,10.2-0.4,15.2c-11.6-39.2-40.2-58.2-83.6-57.5
		c-9.2,0-4.2,2.5-0.4,4.6c29.3,16.6,13.4,92.8,84.7,96.7c1.1,18.7,3.2,37.4,6,56.1c-17.3-33.5-46.9-45.5-87.5-37.4
		c-9.2,1.8-3.9,3.2,0.4,4.6c31,11.3,26.1,90,96.7,81.1c4.6,19,10.2,37.7,16.6,56.4c-23.6-29.6-55.4-34.9-94.9-18
		c-8.8,3.9-3.2,4.2,1.4,4.6c33.5,4.6,43,86.4,112.9,61.4c8.8,19.4,18.7,38.1,29.3,56.4c-28.2-22.9-60-20.1-94.9,6
		c-7.8,6-2.5,4.9,2.1,4.2c33.5-3.5,58.2,74.4,121,33.2c6,10.2,9.9,21.2,11.3,33.2c1.4,12.7-1.1,25.4-7.1,36.3
		c-1.4,2.5-0.7,6,1.8,7.4c2.1,1.4,4.9,0.7,6.3-1.1c0-0.4,0.4-0.4,0.4-0.7c1.1-1.8,1.8-3.9,2.8-5.6c0-0.4,0.4-0.7,0.4-0.7
		c2.1-5.3,3.9-10.9,4.6-16.6c1.4-21.5-3.9-42.7-15.9-60.7c-75.5-106.5-110.8-236-105.8-362.6c4.9-125.2,48.3-241.3,133-335.5
		c2.8-4.9,11.3-7.1,2.5,2.8c-10.6,11.6-20.5,24-30,36.7c70.9,2.5,57.9-72.7,88.2-85.4c4.2-1.8,9.5-3.5,0-4.6
		C425,552.4,380.6,586.3,385.5,642L385.5,642z M458.6,686.8c7.1,5.6,2.1,4.2-1.8,3.9c-29.3-4.2-49.4,63.1-105.1,26.1
		C378.1,665.3,406.7,646.6,458.6,686.8z M413.4,754.9c7.8,3.9,2.8,3.9-1.1,3.9c-29.3,2.5-37,72.7-97,48.7
		C331.6,751.3,355.5,726.3,413.4,754.9L413.4,754.9z M384.8,828.3c8.5,2.1,3.5,3.2-0.4,4.2c-28.9,8.5-25,80.8-88.2,70.9
		C303,842.4,320.6,811.7,384.8,828.3L384.8,828.3z M375.3,912.9c9.2,0.7,4.2,2.8,0.4,4.6c-28.6,14.1-14.5,88.5-80.1,90.7
		C289.2,942.2,307.6,907.3,375.3,912.9L375.3,912.9z M376,1001.8c9.2-0.7,4.6,1.8,1.1,4.6c-25.8,18.7-2.5,88.2-63.5,103
		C296.3,1044.9,306.9,1007.8,376,1001.8L376,1001.8z M392.6,1085.1c9.2-2.8,4.9,1.1,1.8,4.6c-22.6,25,13.1,90.7-44.8,119.9
		C321.3,1147.2,322.4,1107.3,392.6,1085.1L392.6,1085.1z M426.5,1176.4c-17.3,30,30.3,86.1-20.8,129.1c-1.1-1.8-2.1-3.2-3.2-4.6
		c-38.1-53.6-38.1-92.1,21.5-128.4C432.1,1167.3,428.9,1171.8,426.5,1176.4L426.5,1176.4z"/>
</g>
</svg>
