<svg viewBox="0 0 566.93 566.93" xmlns="http://www.w3.org/2000/svg"><path d="m284.37 13.17h-.91c-149.28 0-270.3 121-270.3 270.3s121 270.31 270.3 270.31h.91c148.87-.5 269.4-121.32 269.4-270.3s-120.53-269.81-269.4-270.31z" fill="#080a0c"/><path d="m478.89 88a276.38 276.38 0 1 1 -390.89 390.89 276.38 276.38 0 0 1 390.89-390.89zm75 195.43c.01-149.09-121.3-270.43-270.43-270.43s-270.46 121.34-270.46 270.46 121.34 270.44 270.46 270.44 270.44-121.31 270.44-270.44z" fill="#869fa5"/><g fill="#bed0d8"><text font-family="Tahoma-Bold, Tahoma" font-size="43.97" font-weight="700" transform="matrix(.83427094 -.55135469 .55135469 .83427094 160.3 124.76)">R</text><text font-family="Tahoma-Bold, Tahoma" font-size="43.97" font-weight="700" transform="matrix(.90519827 -.42498952 .42498952 .90519827 186.02 107.74)">A</text><text font-family="Tahoma-Bold, Tahoma" font-size="43.97" font-weight="700" transform="matrix(.95 -.3 .3 .95 212.35 95.41)">Z</text><text font-family="Tahoma-Bold, Tahoma" font-size="43.97" font-weight="700" transform="matrix(.9874414 -.15798573 .15798573 .9874414 237.38 87.25)">O</text><text font-family="Tahoma-Bold, Tahoma" font-size="43.97" font-weight="700" transform="matrix(.99999507 -.00314159 .00314159 .99999507 269.68 82.07)">R</text><text transform="matrix(.99472074 .10261893 -.10261893 .99472074 300.74 82.43)"/><text font-family="Tahoma-Bold, Tahoma" font-size="43.97" font-weight="700" transform="matrix(.97792934 .20893589 -.20893589 .97792934 312.85 83.11)">U</text><text font-family="Tahoma-Bold, Tahoma" font-size="43.97" font-weight="700" transform="matrix(.93 .36 -.36 .93 343.51 89.51)">N</text><text font-family="Tahoma-Bold, Tahoma" font-size="43.97" font-weight="700" transform="matrix(.87605431 .48221244 -.48221244 .87605431 373.99 101.69)">I</text><text font-family="Tahoma-Bold, Tahoma" font-size="43.97" font-weight="700" transform="matrix(.81 .58 -.58 .81 391.95 111.33)">T</text><text font-family="Tahoma-Bold, Tahoma" font-size="43.97" font-weight="700" transform="matrix(.66392621 .74779809 -.74779809 .66392621 124.27 435.38)">B</text><text font-family="Tahoma-Bold, Tahoma" font-size="43.97" font-weight="700" transform="matrix(.77966595 .62619567 -.62619567 .77966595 146.6 460.27)">U</text><text font-family="Tahoma-Bold, Tahoma" font-size="43.97" font-weight="700" transform="matrix(.87655881 .48129477 -.48129477 .87655881 174.8 482.49)">R</text><text font-family="Tahoma-Bold, Tahoma" font-size="43.97" font-weight="700" transform="matrix(.94188168 .33594478 -.33594478 .94188168 205.69 498.94)">E</text><text font-family="Tahoma-Bold, Tahoma" font-size="43.97" font-weight="700" transform="matrix(.98 .19 -.19 .98 234.06 508.94)">A</text><text font-family="Tahoma-Bold, Tahoma" font-size="43.97" font-weight="700" transform="matrix(1 .02 -.02 1 266.94 514.99)">U</text><text transform="matrix(.99 -.11 .11 .99 301.79 514.82)"/><text font-family="Tahoma-Bold, Tahoma" font-size="43.97" font-weight="700" transform="matrix(.97401551 -.22648131 .22648131 .97401551 317.02 513.54)">A</text><text font-family="Tahoma-Bold, Tahoma" font-size="43.97" font-weight="700" transform="matrix(.92514348 -.37961763 .37961763 .92514348 349.26 505.66)">E</text><text font-family="Tahoma-Bold, Tahoma" font-size="43.97" font-weight="700" transform="matrix(.85 -.53 .53 .85 377.33 494.09)">G</text><text font-family="Tahoma-Bold, Tahoma" font-size="43.97" font-weight="700" transform="matrix(.76063262 -.64918258 .64918258 .76063262 407.2 474.72)">I</text><text font-family="Tahoma-Bold, Tahoma" font-size="43.97" font-weight="700" transform="matrix(.66 -.75 .75 .66 425.45 459.19)">S</text></g><path d="m469.22 97.7a262.7 262.7 0 1 1 -371.52 371.52 262.7 262.7 0 0 1 371.52-371.52zm71.31 185.76c0-141.75-115.31-257.06-257.07-257.06s-257.06 115.31-257.06 257.06 115.31 257.07 257.06 257.07 257.07-115.31 257.07-257.07z" fill="#869fa5"/><path d="m299.02 97.45-145.58 150.55h76.52l51.02-93.31-16.18 55.99 36.71 72.78z" fill="#bed0d8"/><path d="m469.48 297.15-150.55-145.57v76.52l93.31 51.01-55.99-16.17-72.79 36.7z" fill="#bed0d8"/><path d="m269.78 469.48 145.57-150.55h-76.52l-51.01 93.31 16.17-55.99-36.7-72.79z" fill="#bed0d8"/><path d="m97.45 267.29 150.55 145.57v-76.52l-93.31-51.01 55.99 16.18 72.78-36.71z" fill="#bed0d8"/></svg>