<svg enable-background="new 0 0 113.4 113.4" viewBox="0 0 113.4 113.4" xmlns="http://www.w3.org/2000/svg"><path d="m113.4 56.7c0 31.5-25.4 56.8-56.9 56.7-31.1 0-56.6-25.6-56.5-56.6.1-31.5 25.4-56.9 56.9-56.8 31.2 0 56.5 25.4 56.5 56.7z" fill="#0b0b0b"/><path d="m56.6 111c-29.9 0-54.3-24.4-54.2-54.2 0-30.2 24.3-54.5 54.6-54.4 29.9 0 54.2 24.5 54.1 54.6-.1 29.8-24.5 54.1-54.5 54z" fill="#fefefe"/><path d="m17.2 22.3c1.7-2.4 3.9-4.3 6.2-6.1 6.9-5.6 14.6-9.3 23.4-10.9 14-2.5 26.9.1 38.8 7.9 2 1.3 4 2.7 5.7 4.5.1.4.2.8.5 1.1.9.9 1.7 1.9 2.6 2.9.4.4.8.8 1.3 1.1.3.2.7.3.7.8-.1.4-.6.2-.8.4.4 0 .8.2.8.5 0 .7-.5 1-1.1 1.2-2.6-.6-4.4.7-6 2.4-.5.6-1.2 1-1.5 1.8-.3.6-1 .6-1.5.5-.7-.1-2-2.1-1.9-2.9 0 0 .2-.1 0-.1-.9.2-.9-.3-.9-1 0-.5-.2-1-.8-.4-.3.3-.8.3-1.2.3-1.7-.9-3.1-2.1-4.7-3.1-6.3-3.7-13-5.6-20.3-5.6-9 0-16.9 2.9-23.9 8.2-1.4 1.1-2.6 2.3-4 3.4-.9.4-1.8.7-2.1 1.8-.1.3-.4.6-.8.4s-.2-.5-.1-.8c.2-.4.1-.7-.2-1-.4-.4-.6-.8-.2-1.3 0-.1.1-.1.1-.2s-.1-.3-.2-.3c-1.1 0-1-1.9-2.4-1.5-1.4-.8-2.9-1.1-4.5-.8-.5-.2-.8-.6-1.4-.6-.8 0-1-.7-.4-1.2.3-.4.5-.9.8-1.4z" fill="#e30a14"/><path d="m90.5 96.3c-4.9 4.4-10.6 7.6-16.9 9.7-14.9 4.9-29.4 3.8-43-4-14-8.1-22.6-20.3-25.6-36.3-1.5-7.7-1.1-15.3 1.1-22.8.7-1.6 1.1-3.3 2.3-4.7.4-.5-.6-.8-.2-1.3.4-.7.7-.9 1.3-.1.4.5.5 1 .5 1.6 0 .8-.2 1.7.2 2.5 1.2 1.8 2.9 2.7 5 2.8.3 0 .6 0 .9.1.6.2 1.1.2 1.5-.5.2-.5.9-.6 1.3-.9.5-.3.6.3.7.7 0 .4-.1.7-.3 1-.4.3-.5.7-.5 1.1 0 .1-.1.2-.2.2-.4 0-.5.3-.3.6.2.5 0 1 .2 1.4 0 1.7-.6 3.4-.7 5.1-.9 8.2.6 16.1 4.8 23.4 4.3 7.4 10.4 12.9 18.2 16.4 4.3 1.9 8.9 3 13.7 3.2 3.9.2 7.7-.2 11.4-1.1.4-.1.9-.2 1.4-.1.2.1.3.2.4.4 0 .5-.4.4-.7.5-.4.1-.8.2-1.1.5-.2.2-.5.4-.4.7s.5.3.7.4h.2c2 .1 2 .1 1.8 2-.2 1.8.2 3.5.3 5.2 0 .5.3.8.8.8 1.3.1 2.6.1 3.9-.1.3 0 .6-.1.6-.5.1-1.4 1.2-1.5 2.2-1.5.7 0 1.3-.1 2 .1.3 0 .6.1.7-.4 0-.3.1-.7.4-.9.5-.4 1.1-.3 1.6-.6.1 0 .2 0 .3-.1.2 0 .5.1.5-.3 0-1.2.8-1.6 1.8-1.6.6.1 1.2-.3 1.8-.2 1.4.3.3-.8.6-1.1.1-.4.3-.5.6-.5.5.1.9.5 1.3-.3.7-1.1 1.3-1.1 2.9-.5z" fill="#e30d15"/><path d="m67.6 94.8c-.1-.1-.2-.2-.3-.3.1-.5.5-.6.9-.7 8.6-2.7 15.4-8 20.5-15.3 4-5.7 6.1-12.1 6.6-19.1.3-4.3-.1-8.5-1.1-12.6-.1-.3-.1-.7-.1-1 .1-.4.7-.7.2-1.2-.2-.2-.2-.6.1-.9s.5-.1.7.1c.1.1.2.2.4.1.8-.6.8-.6 1.3.5 0 .3 0 .6-.2.8-.5.6-.4 1.1 0 1.7.2.2.3.5.3.8-.3 1.6.3 3.2-.2 4.8-.2.5-.1 1.1.1 1.6.3.6.4 1.3.4 1.9 0 .8.2 1.1 1.1.8.6-.2 1.2-.2 1.8-.3 1.1 0 2 .3 2.3 1.5.2.5.5.7 1 .7h.9c2.5.2 3-.3 3-2.8 0-.5 0-1 .2-1.5.2-.3.1-.5 0-.8-.2-1.2-1-2.4-.4-3.7.1-.3-.1-.5-.3-.6-1.3-1.1-1.2-2.6-1.2-4 0-.7.3-1.5-.6-1.8-.8-.3-1.6 0-2.1.9-.2.4-.5.7-.9.6-.8-.2-1.6.5-2.4.1-.8-.3-.5-.8-.3-1.4 1.1-.8 2.3-1.4 3.5-2.1.6.3.8-1 1.5-.3 0-.1 0-.3.1-.4.3-.5.6-1.2 1.3-1 .6.2.8 1.1.7 1.6-.3.8.5 1.2.5 1.9 0 .2 0 .7.4.9.9 2.8 1.2 5.7 1.4 8.6.7 12.3-2.3 23.5-9.4 33.7-2.5 3.6-5.5 6.9-8.9 9.7-.5-.1-1 .1-1.5-.1-.8-.3-1 .7-1 .9-.2 1.6-.9.8-1.5.4.8-.9 1-2.3 2.5-2.5.5-.1.6-.7.7-1.2.1-.6.4-1 1.1-1 .3 0 .6 0 .5-.5-.1-.3-.2-.7-.6-.7-.5 0-1.1 0-1.6 0-1.3.1-2-.4-2.3-1.7-.1-.3-.1-.5-.3-.6-.7-.3-1-.8-1-1.6 0-.5-.3-.7-.8-.5-.7.2-1.5.4-1.8 1.2-.1.2-.2.5-.3.5-1.9.5-2.8 2.7-4.9 2.8-.2 0-.4.1-.4.2-.3 1.5-1.6 1.2-2.5 1.3-.8.1-1.4.3-1.8 1.1-.2.4-.5.7-.9.7-1.4.1-2.9.6-4.4-.2z" fill="#e30c15"/><path d="m107.3 44.4c-.3-.5-1.1-.7-.7-1.6.1-.2-.1-.2-.4-.2s-.6-.3-.1-.6c.3-.2.3-.3.2-.6-.2-.4-.3-1.1-.6-1.2-.5-.2-.7.6-1 .9-.5.4-1 .9-1.8.7-.1-1.1.5-2.1.2-3.2-.5-2-1.1-4-2.1-5.8-1.5-2.6-3.1-5.1-5.5-6.9-.2-.1-.4-.3-.3-.6.5-.5.4-.4.1-1.3-.2-.6.4-.7.9-.8-1.2-.3-1.8-1.4-2.8-2-.3-.2-.1-1.4-1-.6l-.2-.1c.5-1.3-.8-1.5-1.4-2.2-.2-.3.3-.5.3-.7 8.1 7.1 13.3 15.9 16 26.2.2.2.2.4.2.6z" fill="#e31116"/><path d="m9.9 40.9c-.5-.9-.3-1.9-.2-2.9.1-.8-.6-1-.8-1.5-.2-.4-.3.6-.8.4 1.3-3.7 3.3-7.1 5.6-10.4 1-1.5 2.1-3 3.4-4.2-.1.6.2 1.4-.9 1.6-.2 0-.4.3-.2.5.1.2.3.5.6.4.9-.5 1 .2 1.3.7-.7 1.2-1.9 2-2.7 3.1-2 2.6-3.6 5.4-4.6 8.5-.3.8-.5 1.7-.4 2.6 0 .3.1.8-.3 1.2z" fill="#e31016"/><path d="m8.1 36.8c1.5 1 .2 2.1-.2 2.7-.7.9-1 1.9-1.4 2.9-.1.2-.3.3-.4.4.4-2 1.1-4 2-6z" fill="#e31016"/><g fill="#fff"><path d="m94.5 45.7c.5 2.7 1.2 5.4 1.3 8.2.7 12.1-3.3 22.4-11.9 30.9-4.6 4.6-10.1 7.7-16.3 9.5-.1 0-.1.1-.2.2-3 .6-5.9 1.3-9 1.4-11.6.4-21.5-3.5-29.8-11.6-6.1-6.1-9.8-13.5-11.1-22.1-.7-4.7-.5-9.5.5-14.2.1-.4.1-.7.2-1.1.2-.6-.1-1.3.5-1.8.2-.4 0-1 .5-1.3.1-.3.2-.6.3-.9.1-1.4.8-2.6 1.4-3.8.9-1.9 1.9-3.8 3.3-5.4.4-.2.7-.5.8-.9.1-.2.3-.5.5-.6.2-.2.9-.1.5-.7.5-1 1.2-1.8 2.2-2.4 3-2.8 6.2-5.4 9.9-7.3 7.2-3.7 14.7-5.1 22.8-4.3 7.6.8 14.4 3.8 20.4 8.5.1.1.2.1.3.2 1.4.5 2.2 1.8 3.3 2.8.9.9 1.7 1.9 2.4 3 .2.4.5.7.9 1 1.8 2 3.1 4.3 4.2 6.8.9 1.8 1.8 3.8 2.1 5.9z"/><path d="m9.9 40.9c-.2-3.9 1.5-7.2 3.6-10.4 1.2-1.9 2.6-3.8 4.5-5.1 1.7-.9 3.2-.2 4.7.7 1.8.6 3 3.7 1.7 5.3-.9 1-1.6 2.2-2.3 3.3-1.5 2.2-2.6 4.6-3.7 7.1-.4 1-.9 2-2.2 2.2-2.8.3-4.8-.9-6.3-3.1z"/><path d="m95.2 25.3c4.3 3.5 6.9 8 8.2 13.3.3 1.1 0 2.2-.5 3.3-1 .9-2.2 1.5-3.4 2.1-1.8.9-3.6-.2-4.3-1.8-1.6-3.8-3.7-7.4-6.1-10.7-.8-1.1-1-2.4-.1-3.6 1.1-1.5 2.5-2.3 4.2-2.8.7-.2 1.4 0 2 .2z"/></g><path d="m89 27.8c-.5 1.5-.2 2.7.7 3.9 2.2 2.8 4 5.9 5.4 9.3 1.1 2.6 1.7 3 4.4 2.9.2.3-.3.8.2 1-.4.3-.8.4-1.1-.2 0 .3-.1.7-.6.6-.6-.1-.9-.6-1.3-.9-.2-.3-.4-.6-.6-.9-.7.2.5.9-.3 1-.3.1-.9.1-.8-.6 0 0-.2-.1-.3 0-.3.2-.3.5-.1.8.4.5.5.8-.2 1.1-1.4-4.2-3.1-8.2-5.8-11.7-.2-.3-.5-.6-.7-.9-.3-.3-.5-.6-.8-.9-1.6-2.2-3.6-4.1-5.6-6 .2-.4 1-.1 1-.9 0-.3.9 0 .9.2.2 1 .2 2.1 1.8 1.9-.4.5-.7-.1-.9.3.4.4.7.9.9 1.4.3.7 2.2 1.1 2.2.8 0-.9.9-1.1 1.1-1.7.1-.4.3-.4.5-.5z" fill="#e31016"/><path d="m16.2 43.8c.9-.5 1.6-1.3 1.9-2.3 1.3-3.4 3.1-6.5 5.3-9.4 1.9-2.6 1.8-3.9-.7-6 .4-.2.8-.7 1.1.3.2.5.5 1.3 1.6 1.1.6-.1.3.6.1.8-.4.5-.5.7.1 1.1.8.5.3 1.1.1 1.8.7-.9 1.3-2 2.6-2.1-.7.8-1.4 1.7-2.1 2.5-.2.3-.3.6-.6.7-.1.2-.3.4-.4.6-.3.3-.3.8-.7 1-2.2 2.8-3.5 6-5 9.1-.1-.2-.2-.4-.3-.7-.8.7-1.5 1.6-2.5 1.9-.5.2-.5-.1-.5-.4z" fill="#e31116"/><path d="m33.6 18.6h.5c.5 0 1.2-.4 1.3.3s-.7.8-1.3.9c-1.4.2-2.9.4-4.3.6-.1.5.3.8.5 1.2.2.3.3.6-.1.8-.3.2-.6.3-.9 0-.9-1.4-1.9-2.9-2.7-4.3-.2-.3.1-.5.3-.7 1.4-.8 2.7-1.8 4.2-2.5 1.2-.7 2-.4 2.7.6.7 1.1.2 1.8-.7 2.4-.1.1-.2.3-.3.4s-.2.2-.4.3c.1.1.2 0 .4.1.2 0 .5 0 .8-.1z" fill="#fefcfb"/><path d="m71.9 10.2c1.7.3 3.3.9 4.7 1.8.1.1.3.2.3.4.6 1.6-.5 2.8-1 4.1-.4.9-1.3.9-2.2.7-1.3-.5-2.7-.8-3.9-1.7-.7-.6-1-1.2-.5-2.1.3-.6.5-1.3.8-2 .4-.8.9-1.2 1.8-1.2z" fill="#fefbfa"/><path d="m79.8 15.4c-.7 1.1-1.3 2-1.8 2.9-.3.4-.5.8-1.1.4-.5-.3-.2-.7 0-1.1.7-1.1 1.4-2.3 2.1-3.4.2-.3.3-.8.9-.7.5.1.7.5.8.9.6 1.9 1.2 3.8 1.9 5.8.6-1 1.2-1.9 1.8-2.9.2-.4.5-.7 1-.5.6.3.4.7.1 1.1-.7 1.2-1.5 2.3-2.2 3.5-.2.3-.4.7-.9.6s-.6-.4-.8-.9c-.5-1.7-1.1-3.6-1.8-5.7z" fill="#fefcfa"/><path d="m37.4 17.8c-.7.1-1.2-.2-1.5-.8-.4-.9-.9-1.8-1.2-2.7-.4-1.3.5-1.8 1.4-2.3.5-.3 1.3-1.1 1.7-.3.5.9-.7.9-1.2 1.2-.6.3-1.1.5-.7 1.3.4.9.9.2 1.3 0 1.1-.4 2.1-.9 3.2-1.4.4-.2.7-.3 1 .2.2.5-.2.6-.5.8-1.1.5-2.3 1-3.4 1.5-.3.2-1 .1-.6.9.3.6.7.6 1.2.3 1.1-.5 2.1-.9 3.2-1.4.4-.2.9-.5 1.1.1s-.3.7-.7.8c-1.3.7-2.7 1.6-4.3 1.8z" fill="#fefbfa"/><path d="m53.4 11.4v1.6s-.1.7-.5.7c-.4.1-.7-.2-.7-.5-.1-1.6-.1-3.3-.1-4.9 0-.4.3-.6.7-.6.3 0 .5.3.5.6v1.7c1.4-.8 2.6-1.5 3.9-2.1.4-.3 1-.6 1.3 0 .3.5-.4.7-.7 1-1 .6-2.1 1.2-3.3 1.8 1.3.7 2.5 1.3 3.7 1.9.3.2.9.3.6.9-.2.4-.7.3-1.1.1-1.4-.7-2.8-1.4-4.3-2.2z" fill="#fefbfa"/><path d="m51.5 13.3c0 .4-.2.4-.4.6-.3.2-.5.1-.8-.1-.5-.4-.8-1.1-1.5-1-1.3.2-2.6.5-3.9.9-.3.1-.5.8-.7 1.3-.1.3-.3.7-.7.5-.5-.2-.4-.5-.2-.9.7-1.7 1.3-3.3 1.9-5 .3-.7.8-1.2 1.5-.5 1.5 1.3 3 2.7 4.4 4.1.3-.1.4.1.4.1z" fill="#fefbfa"/><path d="m62.1 13.2c.1-1.3.2-2.3.3-3.3.1-.7-.1-.9-.7-.9-.7-.1-1.9.2-1.8-.8.1-.9 1.2-.3 1.8-.2 1.2.1 2.4.2 3.6.3.5 0 1.2 0 1.1.7s-.7.5-1.2.4c-1.6-.2-1.6-.2-1.8 1.4-.1.7-.1 1.5-.2 2.2-.1.4.1 1.1-.7 1-.5 0-.4-.6-.4-.8z" fill="#fefaf9"/><path d="m68.9 9.7c-.4 1.6-.7 3.2-1.1 4.8-.1.3-.4.6-.8.4-.4-.1-.5-.4-.4-.8.4-1.5.7-3.1 1.1-4.6.1-.4.4-.7.8-.5.2.1.4.4.4.7z" fill="#fef7f4"/><path d="m33.6 18.6c-.5.3-1.1.3-1.7.2.3-.3.6-.4.9-.5.1.3.5.2.8.3z" fill="#e84c33"/><path d="m16.8 46.3c0 .8.4 1.5 0 2.2-.6 1.1-.7 2.1-.4 3.3 0 .2-.2.5-.3.6-.6.7-.4 1.3.3 1.7.2.1.6.3.5.4-1.4 1 0 2.1-.1 3.1 0 1 0 1.9-.6 2.8-.6.8-.8 1.8.3 2.5.4.3.5.7.4 1.1-.3 1.4-.1 2.8-.1 4.3 0 .5-.2.8-.6.8s-.3-.4-.3-.7c0-1.1-.4-1.4-1.5-1.2-.7.1-1.4.3-2.1.1-.6-.2-.8.3-.9.9-.2.9-.7 1.3-1.6 1-1.1-.3-.9.4-.9 1 0 .3.5.8-.1.9-.4.1-.9.1-1.1-.5-.2-.5-.4-1-.1-1.5.3-.6.3-1.1-.4-1.5-.4-.3-.8-.8-.7-1.3.3-1.9-.6-3.5-.9-5.2-.2-1.3-.2-2.5-1.1-3.6-.2-.2-.2-.7.1-.9.8-.4.6-1.4.5-1.7-.5-.9.4-1.7-.1-2.5-.1-.1 0-.3.1-.5 1.6-1.7 1.2-3.8 1.3-5.9 0-.6-.3-1.4.8-1.4.5 0 .4-.4.4-.8 0-.8 0-1.6 0-2.4 0-.4.1-.7.5-.8.2-.1.5-.1.7.1.4.3 0 .5-.1.8s-.2.7 0 .8c1.6.6 2.4 2.6 4.3 2.8.3 0 .5-.1.7-.2 1.1-.4 1.9.1 2.9.5.4.3.2.7.2.9z" fill="#e30a14"/><path d="m67.6 94.8c1.2.4 2.5-.3 3.8.2.4.2 1.1-.1 1.3-.8.3-.7.8-1 1.7-1.1.8-.2 2.5.7 2.5-1.3 0-.3.4-.2.6-.2.9 0 1.6-.4 2.2-1 .7-.6 1.2-1.4 2.2-1.5.2 0 .6-.3.6-.4.1-1.3 1.3-1.3 2.2-1.7 1-.4 1.2.1 1.1.8s0 1.1.8 1.2c.4 0 .6.3.6.8-.1 1.1.8 1.8 1.8 1.6.6-.2 1.2.1 1.9-.1.6-.2.7.9.8 1.5.1.7-.6.5-.9.4-.6-.1-.7.1-.8.6-.3.8 0 2.1-1.6 1.6-.3-.1-.4.4-.5.6-.3.7-.8 1.2-1.4 1.5-.3 0-.5.2-.5.5-.4.2.3 1.3-.8 1-.6.3-1.1.6-1.8.3-1.1-.1-1.9.2-1.9 1.5 0 .4-.4.4-.6.5-.1 0-.2 0-.3 0-.5.2-1.2-.2-1.5.5-.2.3-.3.6-.3 1 .1.7-.6.2-.8.5-1.2 0-2.4-.4-3.6.2-.3.2-.6.3-.4.7.5 1-.4 1-.8 1-1.3.1-2.7.1-4 .1-.7 0-1.2-.2-1.2-1.1 0-2.1-.7-4.2-.1-6.4.2-.7-.4-.8-.9-.7-.3 0-.5.5-.8.2-.4-.4-1.5.2-1.4-.8 0-.7.8-1.1 1.3-1.5.6-.3 1.1.3 1.5-.2z" fill="#e30a14"/><path d="m59.6 107.1c-3.2.1-6.3.1-9.4-.7-3.7-1-4.9-5.3-2.3-8 .7-.7 1.5-1 2.5-.8 3.8.6 7.6.7 11.5.2 2.6-.4 4.2.6 4.6 2.8.6 3.1-.5 5.2-3.1 5.9-1.3.2-2.6.4-3.8.6z" fill="#fff"/><path d="m32.7 94.5c.1.8.5 1 1 .8.5-.1 1-.3 1-1 0-.4 0-.8-.1-1.1-.3-.7-.2-1.3.5-1.5s1.5-.4 1.9.5c.4.8.9 1 1.9.9.7 0 2.3-.8 1.9 1.2 0 .2.1.3.3.3 1.2 0 2.4.7 3.7.4 1.6-.4 2.1 1 3.1 1.5-1.2-.3-1.9.8-2.8 1.1-.1 0-.1.3-.1.3 1.3 1-.4 2 .2 3.2.5 1 .4 2.2.5 3.4 0 .4.2.7.4.9.6.4.9.8.5 1.4s-1 .6-1.6.5c-.2 0-.3-.1-.5-.1 0-.1-.1-.1-.1-.2.4-1.5.2-1.9-1.6-1.7-1.2.1-2.3-.2-3.5-.2-.6 0-1.4-.8-1.7-1.2-.6-.9-1.2-.9-1.9-.7-1.2.3-1.8-.1-2.1-1.3-.2-.8-.9-.6-1.4-.6-1.5 0-2.1-.4-2-1.4 0-.3 0-.6.3-.7 1.1-.4 1-1.3 1-2.2.2-.8.7-1.5 1.2-2.5z" fill="#e30a14"/><path d="m9.9 71.7c0-.3 0-.5 0-.6.8-1.6 2.5-1.6 3.8-2 .9-.3 1.6.5 1.9 1.3.7 1.5 1.2 3 1.8 4.5.2.6 0 .8-.5.9-1.4.5-2.8 1-4.2 1.6-.5.2-.8.1-.9-.3-.6-1.8-1.4-3.6-1.9-5.4z" fill="#fefbfa"/><path d="m17.9 83.9c1.1-.7 2-1.2 2.9-1.8.4-.2.7-.5 1 0 .4.6 0 .8-.4 1.1-1.2.7-2.3 1.5-3.5 2.2-.3.2-.6.4-1 .2-.4-.3-.4-.7-.3-1.1.3-1.9.6-3.9.9-6.1-1.1.7-2 1.3-3 1.9-.4.2-.7.4-1-.1s0-.7.4-1c1.1-.7 2.3-1.4 3.4-2.1.3-.2.7-.6 1.1-.4.5.2.4.8.3 1.2-.2 1.5-.4 3-.7 4.6 0 .4 0 .8-.1 1.4z" fill="#fefcfb"/><path d="m22.7 84.3c.2 0 .5.1.7.2 1.5.9 2.6 2.2 3.4 3.7.4.6.3 1.4-.4 1.9-.5.4-.9.8-1.3 1.2-1.3 1.2-1.8 1.3-3.2.1-.9-.8-1.7-1.7-2.4-2.7-.6-.8-.6-1.6.2-2.3.6-.5 1.1-1 1.6-1.5.5-.4.8-.6 1.4-.6z" fill="#fefbfa"/><path d="m27.8 94.6c.8.7 1.3 1.1 1.8 1.5.4.3.8.6.3 1.2-.5.5-.8.4-1.2 0-.9-.8-1.9-1.6-2.8-2.5-.3-.2-.7-.5-.5-.9.2-.5.7-.5 1.2-.5 1.7 0 3.4-.1 5.3-.4-1.1-.8-2.1-1.5-3-2.2-.3-.2-.8-.5-.5-1 .4-.6.7-.1 1 .1 1.3.9 2.6 1.9 3.8 2.8.3.3.8.5.6 1-.1.5-.7.5-1.1.5-1.6.2-3.1.3-4.9.4z" fill="#fefbfa"/><path d="m80.9 101.4c.1-.2.5-.3.5-.7 0-1.4.8-1.7 2-1.3-.8.4-2.1.3-1.5 1.9.2.2-.6.3-1 .1z" fill="#e30c15"/><path d="m18.7 45.2c0 .6-.2 1.2-.5 1.8-.3-.4.1-.9-.4-1.3-.3-.2.1-.4.2-.6.4-.5.5.1.7.1z" fill="#e31116"/><path d="m63.7 108.1c-.6.1-1.1 0-1.4-.5-.2-.3.4-.7.6-.4s.3.7.8.9z" fill="#e30a14"/><path d="m79.2 101.9c0-.3-.4-1 .5-.7.3.1.7-.1 1 .2-.3.7-1.1.2-1.5.5z" fill="#e30c15"/><path d="m85.2 99.1c.7 0 .3-.8.8-1 .1.3.4.7.3 1-.3.5-.7.7-1.1 0z" fill="#e30c15"/><path d="m54 107.5c.6 0 .9.2.7.8-.5-.1-.5-.5-.7-.8z" fill="#e30a14"/><path d="m19.2 43.9c-.1.4-.2.9-.5 1.3.1-.5-.6-1.2.5-1.3z" fill="#e31116"/><path d="m67.1 106.5c.2 0 .3.1.3.3s-.1.3-.3.3c-.1 0-.2-.1-.2-.2 0-.2 0-.4.2-.4z" fill="#e30a14"/><path d="m59.5 107.1c.2.1.6-.1.7.3 0 0-.2.2-.3.2-.5.1-.4-.2-.4-.5z" fill="#e30a14"/><path d="m78.2 103.4c.3-.2.5-.3.8-.5.1.8-.5.3-.8.5z" fill="#e30c15"/><path d="m96.8 44.4c.3.1.6-.3.8.2.2.4.7 1 .9 0 0-.1.1-.1.1-.2.1.1.1.2.2.3.2.3.6.2.9.2.9.3 1.8-.3 2.7-.1.3 0 .3-.2.4-.4.5-1.1 1.5-1.6 2.6-1.2.9.4.8 1.2.7 2.1-.2 1.5-.1 3 1.2 4.1.3.2.6.3.2.9-.6.7-.4 1.6.8 2.2-.8.1-1.2.2-.6.9.4.5.4 1 .2 1.7-.3 1.1-.2 2.3-.5 3.4-.2.5.1.9-.9.8s-2.1-.2-3.1.1c-.5.1-.8-.1-1-.6-.7-1.7-1.1-1.9-3-1.6-.7.1-1.4.9-2.1.4-.6-.4 0-1.4-.3-2-.6-1.3-.2-2.7-.3-3.9-.2-1.6.8-3.5-.6-5-.3-.3-.2-.8.2-1.1.4-.5.5-.8.5-1.2z" fill="#e30a14"/><path d="m91.1 90.7c-.7.1-1.1-.4-1.5-.7-2.4-2.1-3.2-2.3-.4-5.4.6-.7 1.2-1.4 1.8-2.1.4-.5.7-.5 1.2-.1 1.1 1 2.2 1.9 3.3 2.9.3.2.6.5.2.9-1.3 1.4-2.3 2.9-3.8 4.1-.2.2-.5.3-.8.4z" fill="#fefcfb"/><path d="m99.8 66.9c1.1.3 2.3.6 3.4 1.3.6.4.7 1 .5 1.7-.3 1.3-.7 2.6-1.3 3.8-.5 1-1.3 1.5-2.4 1-.4-.2-.8-.3-1.2-.4-2.1-.7-2.4-1.4-1.7-3.4.3-1 .6-2.1 1.2-3 .3-.6.8-.9 1.5-1z" fill="#fefbfa"/><path d="m94.5 80.7c1 .5 1.9 1.1 2.8 1.5.5.3.7.6.4 1.1s-.7.2-1.1 0c-1.2-.7-2.4-1.3-3.6-2-.3-.2-.7-.4-.6-.8 0-.4.3-.6.7-.7 1.9-.7 3.7-1.4 5.8-2.2-1.1-.6-2.1-1.2-3-1.7-.3-.2-.8-.3-.5-.8s.6-.6 1.1-.3c1.1.7 2.3 1.3 3.5 2 .3.2.9.3.8.8 0 .6-.5.8-1 1-1.5.6-3.1 1.2-4.7 1.8-.1-.1-.4 0-.6.3z" fill="#fefbfa"/><path d="m103.7 63.6c.2-1 .4-1.8.6-2.6.1-.5.4-.7.9-.6s.7.4.6.9c-.3 1.3-.5 2.6-.8 3.9-.1.3-.3.6-.6.7-.5.1-.8-.3-1-.6-1-1.4-1.9-2.9-3.1-4.6-.1 1.4-.2 2.5-.4 3.6-.1.5-.1 1.2-.7 1.1-.7 0-.5-.7-.4-1.2.1-1.4.3-2.8.4-4.2.1-.5.1-1.1.7-1.2.5-.1.7.4.9.7 1 1.4 1.9 2.6 2.9 4.1z" fill="#fefcfa"/><path d="m97.4 61.2c-.6-.3-1.1-.6-1.1-1.1s.4-1.2 1-1.2c.5 0 .7.7.6 1.2 0 .4 0 .9-.5 1.1z" fill="#e30a14"/><path d="m97.5 62.2c0 .2 0 .4-.3.4-.2 0-.4-.2-.4-.4s0-.4.3-.4.4.1.4.4z" fill="#e30a14"/><path d="m86.5 74.8c-2.9-1.1-5.8-2.3-8.7-3.4-6.8-2.7-13.6-5.4-20.4-8.2-.7-.3-1.2-.2-1.9 0-9.3 3.7-18.6 7.4-28 11.1-.4.1-.7.5-1.3.3 10.1-17.3 20.1-34.5 30.2-51.9 10.1 17.3 20.1 34.6 30.2 51.8.1.2 0 .3-.1.3z" fill="#e30914"/><path d="m24.5 33.9c.2-.4.4-.8.8-.9-.2.3-.2.8-.8.9z" fill="#fef9f6"/><path d="m87.2 32.1c.5.2.6.5.8.9-.4-.1-.7-.4-.8-.9z" fill="#fef5f2"/><path d="m25.7 32.3c.1-.3.2-.6.6-.7.2.6-.3.6-.6.7z" fill="#fef9f6"/><path d="m32.8 16.5c0 .5-.3.7-.7.9-.8.5-1.6 1-2.4 1.5-.5.4-.8.5-1.3-.2-.5-.8-.1-1 .4-1.3.9-.5 1.8-1.1 2.8-1.6.8-.5 1 .1 1.2.7z" fill="#e31918"/><path d="m74.1 16.1c-1.1-.3-2.2-.7-3.3-1.3-.3-.2-.6-.5-.3-.9.1-.1.1-.2.1-.4.4-.7.3-2.1 1.2-2.1 1.3-.1 2.6.6 3.8 1.4.2.2.2.4.1.7-.3.7-.6 1.5-.8 2.2-.1.4-.4.4-.8.4z" fill="#e31015"/><path d="m45.5 12.3c.4-.9.6-1.6 1-2.3.6.6 1.1 1.1 1.7 1.7-.9.4-1.7.5-2.7.6z" fill="#e41f1a"/><path d="m11.1 71.5s.2-.2.5-.4c2.4-1.4 2.8-1.2 3.8 1.4.8 2.2.8 2.1-1.4 3.1-1.2.5-1.7.3-2-1-.2-.9-.8-1.8-.9-3.1z" fill="#e30f15"/><path d="m23.5 91c-.5-.1-.8-.3-1.1-.6-.2-.2-.4-.4-.6-.6-1.8-2-1.8-1.9.2-3.8.6-.5 1.1-.6 1.6-.1.3.3.7.6 1 1 1.6 1.7 1.3 2.9-.8 4-.1 0-.2 0-.3.1z" fill="#e31216"/><path d="m91.6 83.4c.7.6 1.2 1.2 1.8 1.6 1.2.7 1.1 1.4.1 2.2-.3.2-.5.5-.7.7-1.6 2.2-1.8 1.8-3.9-.2-.5-.4-.3-.9 0-1.3.9-1 1.8-2 2.7-3z" fill="#e31015"/><path d="m102.6 70c-.3 1-.6 2.1-1.1 3.1-.2.4-.5.5-.9.3-.6-.2-1.2-.5-1.9-.7-.6-.2-.8-.6-.7-1.1.2-1 .6-2 1-2.9.2-.4.4-.6.9-.5.8.2 1.6.5 2.4.8.3.2.2.5.3 1z" fill="#e30f15"/></svg>