<?xml version="1.0" encoding="UTF-8"?>
<svg id="Capa_1" xmlns="http://www.w3.org/2000/svg" version="1.1" viewBox="0 0 566.9 566.9">
  <!-- Generator: Adobe Illustrator 29.0.1, SVG Export Plug-In . SVG Version: 2.1.0 Build 192)  -->
  <defs>
    <style>
      .st0 {
        fill: #f6f6f6;
      }

      .st1 {
        fill: #be1622;
      }

      .st2 {
        isolation: isolate;
      }

      .st3 {
        fill: #009fe4;
      }
    </style>
  </defs>
  <path class="st0" d="M284.1,557.7c-73.2,0-141.9-28.5-193.7-80.2-51.7-51.7-80.2-120.5-80.2-193.7s28.5-141.9,80.2-193.7C142.1,38.5,210.9,10,284.1,10s141.9,28.5,193.7,80.2c51.7,51.7,80.2,120.5,80.2,193.7s-28.5,141.9-80.2,193.7-120.5,80.2-193.7,80.2h0Z"/>
  <path class="st3" d="M283.5,12.1c36.6,0,72.2,7.2,105.6,21.3,32.3,13.7,61.3,33.2,86.3,58.2s44.5,54,58.2,86.3c14.2,33.4,21.3,69,21.3,105.6s-7.2,72.2-21.3,105.6c-13.7,32.3-33.2,61.3-58.2,86.3s-54,44.5-86.3,58.2c-33.5,14.2-69,21.3-105.6,21.3s-72.2-7.2-105.6-21.3c-32.3-13.7-61.3-33.2-86.3-58.2s-44.5-54-58.2-86.3c-14.1-33.5-21.3-69-21.3-105.6s7.2-72.2,21.3-105.6c13.7-32.3,33.2-61.3,58.2-86.3s54-44.5,86.3-58.2c33.4-14.1,69-21.3,105.6-21.3M283.5,7.1C130.8,7.1,7.1,130.8,7.1,283.5s123.7,276.4,276.4,276.4,276.4-123.7,276.4-276.4S436.1,7.1,283.5,7.1h0Z"/>
  <path class="st3" d="M24.8,283.5c0,69.1,26.9,134.1,75.8,182.9,44.2,44.2,101.7,70.5,163.5,75v-33.5c-112.4-9.7-201.5-102.2-205.7-216.1h61.1c4,80.2,65.9,145.5,144.6,154.8v-16.8c-69.5-9.2-123.9-67-127.9-138-.1-2.8-.2-5.5-.2-8.3s0-5.6.2-8.3c4-71,58.4-128.8,127.9-138v-16.8c-78.7,9.3-140.6,74.6-144.6,154.8h-61.1c4.2-113.9,93.3-206.5,205.7-216.1V25.5c-61.8,4.6-119.2,30.8-163.5,75.1-48.9,48.9-75.8,113.8-75.8,182.9h0Z"/>
  <path class="st3" d="M466.4,100.5c-44.2-44.2-101.7-70.5-163.5-75.1v33.5c112.4,9.7,201.5,102.2,205.7,216.1h-61.1c-4-80.2-65.9-145.5-144.6-154.8v16.8c69.5,9.2,123.9,66.9,127.9,138,.1,2.8.2,5.5.2,8.3s0,5.6-.2,8.3c-4,71-58.4,128.8-127.9,138v16.8c78.7-9.3,140.6-74.6,144.6-154.8h61.1c-4.2,113.9-93.3,206.5-205.7,216.1v33.5c61.8-4.6,119.2-30.8,163.5-75,48.9-48.9,75.8-113.8,75.8-182.9s-26.9-134.1-75.8-182.9h0Z"/>
  <g class="st2">
    <g class="st2">
      <path class="st1" d="M98,264.8c2.1.3,3.3-.7,3.6-2.8l1.2-9.6,4.3.5-1.2,9.6c-.6,5-3.4,7.2-8.4,6.5l-14.9-1.8c-5-.6-7.2-3.4-6.5-8.4l1.2-9.6,4.3.5-1.2,9.6c-.3,2.1.7,3.3,2.8,3.6l14.9,1.8Z"/>
    </g>
  </g>
  <g class="st2">
    <g class="st2">
      <path class="st1" d="M104.4,244.4l3-12.5,4.2,1-4,16.7-29.2-7.1,1-4.2,25.1,6.1Z"/>
    </g>
  </g>
  <g class="st2">
    <g class="st2">
      <path class="st1" d="M112.8,207.8c4.7,1.8,6.1,5,4.4,9.7l-1.9,5c-1.8,4.7-5,6.1-9.7,4.4l-14.1-5.3c-4.7-1.8-6.1-5-4.4-9.7l1.9-5c1.8-4.7,5-6.1,9.7-4.4l14.1,5.3ZM107.1,222.9c2,.8,3.4.1,4.2-1.9l1.9-5c.8-2,.1-3.4-1.9-4.2l-14.1-5.3c-2-.8-3.4-.1-4.2,1.9l-1.9,5c-.8,2-.1,3.4,1.9,4.2l14.1,5.3Z"/>
    </g>
  </g>
  <g class="st2">
    <g class="st2">
      <path class="st1" d="M121.2,207.4l-3.8-2,5.6-10.4c1-1.9.6-3.3-1.3-4.4l-1.9-1c-1.9-1-3.3-.6-4.4,1.3l-2,3.8c-2.4,4.4-5.8,5.4-10.2,3.1l-1.9-1c-4.4-2.4-5.4-5.8-3.1-10.2l5.6-10.4,3.8,2-5.6,10.4c-1,1.9-.6,3.3,1.3,4.4l1.9,1c1.9,1,3.3.6,4.4-1.3l2-3.8c2.4-4.4,5.8-5.4,10.2-3.1l1.9,1c4.4,2.4,5.4,5.8,3.1,10.2l-5.6,10.4Z"/>
    </g>
  </g>
  <g class="st2">
    <g class="st2">
      <path class="st1" d="M128.1,163.6l3.5,2.5-7.4,10.5,7,5,7.4-10.5,3.5,2.5-9.9,14-24.6-17.3,9.9-14,3.5,2.5-7.4,10.5,7,5,7.4-10.5Z"/>
    </g>
  </g>
  <g class="st2">
    <g class="st2">
      <path class="st1" d="M164.7,149.2l-3,3.1-6-3.1-7.8,7.8,3.2,6-3,3.1-15-27.6,3.9-4,27.7,14.8ZM145.8,153l5.9-6-13.6-7.6,7.7,13.6Z"/>
    </g>
  </g>
  <g class="st2">
    <g class="st2">
      <path class="st1" d="M149.9,122.7l19.5,22.9-3.3,2.8-19.5-22.9,3.3-2.8Z"/>
    </g>
  </g>
  <g class="st2">
    <g class="st2">
      <path class="st1" d="M172.8,126.8l-4.7,3.3,7.5,10.5-3.5,2.5-17.4-24.5,9.6-6.8c4.1-2.9,7.6-2.3,10.5,1.8l1.2,1.8c2.6,3.7,2.7,6.7.2,9l11.6,7.7-3.5,2.5-11.5-7.6ZM160.6,119.7l5,7,6.1-4.4c1.8-1.2,2-2.7.8-4.5l-1.2-1.8c-1.2-1.8-2.7-2-4.5-.8l-6.1,4.4Z"/>
    </g>
  </g>
  <g class="st2">
    <g class="st2">
      <path class="st1" d="M197.8,126.1l-1.9-3.9,10.7-5.1c1.9-.9,2.4-2.4,1.5-4.3l-.9-1.9c-.9-1.9-2.4-2.4-4.3-1.5l-3.9,1.9c-4.5,2.2-7.9,1-10-3.5l-.9-1.9c-2.2-4.5-1-7.9,3.5-10l10.7-5.1,1.9,3.9-10.7,5.1c-1.9.9-2.4,2.4-1.5,4.3l.9,1.9c.9,1.9,2.4,2.4,4.3,1.5l3.9-1.9c4.5-2.2,7.9-1,10,3.5l.9,1.9c2.2,4.5,1,7.9-3.5,10l-10.7,5.1Z"/>
    </g>
  </g>
  <g class="st2">
    <g class="st2">
      <path class="st1" d="M228.5,81.5l7,21.4c1.6,4.8,0,7.9-4.8,9.5l-5.1,1.7c-4.8,1.6-7.9,0-9.5-4.8l-7-21.4,4.1-1.3,7,21.4c.7,2,2,2.7,4.1,2.1l5.1-1.7c2-.7,2.7-2,2.1-4.1l-7-21.4,4.1-1.3Z"/>
    </g>
  </g>
  <g class="st2">
    <g class="st2">
      <path class="st1" d="M242.9,95.9l2.4,12.7-4.2.8-5.5-29.6,11.6-2.2c4.9-.9,7.9,1.1,8.8,6l.4,2.1c.9,4.9-1.1,7.9-6,8.8l-7.4,1.4ZM240.6,83.2l1.6,8.4,7.4-1.4c2.1-.4,3-1.6,2.6-3.8l-.4-2.1c-.4-2.1-1.6-3-3.8-2.6l-7.4,1.4Z"/>
    </g>
  </g>
  <g class="st2">
    <g class="st2">
      <path class="st1" d="M267,92.3l.7,12.9-4.3.2-1.7-30,11.8-.7c5-.3,7.6,2.1,7.9,7.1v2.1c.4,5-2,7.6-7,7.9l-7.5.4ZM266.3,79.4l.5,8.6,7.5-.4c2.1-.1,3.2-1.3,3-3.4v-2.1c-.2-2.1-1.4-3.2-3.5-3l-7.5.4Z"/>
    </g>
  </g>
  <g class="st2">
    <g class="st2">
      <path class="st1" d="M307,98.4c-.4,5-3.1,7.3-8.1,6.9l-5.4-.5c-5-.4-7.3-3.1-6.9-8.1l1.3-15c.4-5,3.1-7.3,8.1-6.9l5.4.5c5,.4,7.3,3.1,6.9,8.1l-1.3,15ZM290.9,97c-.2,2.1.8,3.3,2.9,3.5l5.4.5c2.1.2,3.3-.8,3.5-2.9l1.3-15c.2-2.1-.8-3.3-2.9-3.5l-5.4-.5c-2.1-.2-3.3.8-3.5,2.9l-1.3,15Z"/>
    </g>
  </g>
  <g class="st2">
    <g class="st2">
      <path class="st1" d="M322.2,95.6l-5.6-1.1-2.6,12.6-4.2-.9,6-29.5,11.6,2.3c4.9,1,6.9,4,5.9,8.9l-.4,2.1c-.9,4.4-3,6.5-6.4,6.3l2.3,13.7-4.2-.9-2.3-13.6ZM319.1,81.8l-1.7,8.4,7.4,1.5c2.1.4,3.4-.4,3.8-2.5l.4-2.1c.4-2.1-.4-3.4-2.5-3.8l-7.4-1.5Z"/>
    </g>
  </g>
  <g class="st2">
    <g class="st2">
      <path class="st1" d="M360,88.7l-1.4,4.1-7.1-2.4-8.3,24.4-4.1-1.4,8.3-24.4-7.1-2.4,1.4-4.1,18.3,6.2Z"/>
    </g>
  </g>
  <g class="st2">
    <g class="st2">
      <path class="st1" d="M360.9,121.9l2.1-3.8,10.4,5.7c1.9,1,3.3.6,4.4-1.3l1-1.9c1-1.9.6-3.3-1.3-4.4l-3.8-2.1c-4.4-2.4-5.4-5.8-3-10.2l1-1.9c2.4-4.4,5.8-5.4,10.2-3l10.4,5.7-2.1,3.8-10.4-5.7c-1.9-1-3.3-.6-4.4,1.3l-1,1.9c-1,1.9-.6,3.3,1.3,4.4l3.8,2.1c4.4,2.4,5.4,5.8,3,10.2l-1,1.9c-2.4,4.4-5.8,5.4-10.2,3l-10.4-5.7Z"/>
    </g>
  </g>
  <g class="st2">
    <g class="st2">
      <path class="st1" d="M390.3,140l-3.5-2.5c-4-3-4.6-6.5-1.6-10.5l8.9-12.1c3-4,6.5-4.6,10.5-1.6l4.3,3.2c4,3,4.6,6.5,1.6,10.5l-8.9,12.1c-2.5,3.4-5.3,4.4-8.4,3.1l-1.2,4.5-2.9-2.2,1.2-4.5ZM395.4,133l-1.2,4.5c1.4,1,2.7.7,4-1.1l8.9-12.1c1.3-1.7,1-3.2-.7-4.5l-4.3-3.2c-1.7-1.3-3.2-1-4.5.7l-8.9,12.1c-1.3,1.7-1,3.2.7,4.5l1.9,1.4,1.2-4.5,2.9,2.2Z"/>
    </g>
  </g>
  <g class="st2">
    <g class="st2">
      <path class="st1" d="M435.3,139.6l-15.6,16.3c-3.5,3.6-7,3.7-10.6.2l-3.9-3.7c-3.6-3.5-3.7-7-.2-10.6l15.6-16.3,3.1,3-15.6,16.3c-1.5,1.6-1.5,3.1,0,4.6l3.9,3.7c1.6,1.5,3.1,1.5,4.6,0l15.6-16.3,3.1,3Z"/>
    </g>
  </g>
  <g class="st2">
    <g class="st2">
      <path class="st1" d="M430.3,180.6l-2.7-3.3,3.8-5.6-6.9-8.6-6.3,2.5-2.7-3.3,29.1-11.8,3.5,4.4-17.8,25.9ZM428.6,161.3l5.3,6.6,9.1-12.7-14.4,6.1Z"/>
    </g>
  </g>
  <g class="st2">
    <g class="st2">
      <path class="st1" d="M462.7,176c2.6,4.3,1.8,7.7-2.5,10.3l-12.8,7.9c-4.3,2.6-7.7,1.8-10.3-2.5l-6.2-10.1,25.6-15.8,6.2,10.1ZM457.9,182.6c1.8-1.1,2.2-2.6,1.1-4.4l-3.9-6.4-18.3,11.3,3.9,6.4c1.1,1.8,2.6,2.2,4.4,1.1l12.8-7.9Z"/>
    </g>
  </g>
  <g class="st2">
    <g class="st2">
      <path class="st1" d="M458.5,204.9l-2.4-5.2-11.7,5.3-1.8-3.9,27.4-12.4,4.9,10.8c2.1,4.6.8,7.9-3.8,9.9l-2,.9c-4.1,1.9-7.1,1.4-8.8-1.5l-9.8,9.9-1.8-3.9,9.7-9.9ZM467.8,194.4l-7.8,3.5,3.1,6.9c.9,2,2.3,2.5,4.3,1.6l2-.9c2-.9,2.5-2.3,1.6-4.3l-3.1-6.9Z"/>
    </g>
  </g>
  <g class="st2">
    <g class="st2">
      <path class="st1" d="M464.9,239.2c-4.8,1.5-7.9-.2-9.4-5l-1.6-5.1c-1.5-4.8.2-7.9,5-9.4l14.4-4.4c4.8-1.5,7.9.2,9.4,5l1.6,5.1c1.5,4.8-.2,7.9-5,9.4l-14.4,4.4ZM460.2,223.8c-2.1.6-2.8,2-2.2,4l1.6,5.1c.6,2.1,2,2.8,4,2.2l14.4-4.4c2.1-.6,2.8-2,2.1-4l-1.6-5.1c-.6-2.1-2-2.8-4-2.2l-14.4,4.4Z"/>
    </g>
  </g>
  <g class="st2">
    <g class="st2">
      <path class="st1" d="M488.8,244.1l-19.2,16.1,21.2-3.4.7,4.2-29.7,4.7-.7-4.2,19.2-16.1-21.2,3.4-.7-4.2,29.7-4.7.7,4.2Z"/>
    </g>
  </g>
  <g class="st2">
    <g class="st2">
      <path class="st1" d="M214.9,468.2l-6.7-2.5-5.6,15.1-5-1.9,13.1-35.2,13.8,5.2c5.9,2.2,7.7,6.2,5.5,12.1l-.9,2.5c-2,5.3-5,7.5-9.1,6.5l.2,17.4-5-1.9-.2-17.3ZM213.8,450.6l-3.8,10.1,8.8,3.3c2.5.9,4.2.2,5.2-2.4l.9-2.5c.9-2.5.2-4.2-2.4-5.2l-8.8-3.3Z"/>
    </g>
  </g>
  <g class="st2">
    <g class="st2">
      <path class="st1" d="M254.1,473.2l-1.1,5.3-15.8-3.3-2.2,10.5,15.8,3.3-1.1,5.3-21-4.4,7.8-36.8,21,4.4-1.1,5.3-15.8-3.3-2.2,10.5,15.8,3.3Z"/>
    </g>
  </g>
  <g class="st2">
    <g class="st2">
      <path class="st1" d="M275.5,458.9c6.3.4,9.2,3.7,8.8,10l-1.2,18.8c-.4,6.3-3.7,9.2-10,8.8l-14.7-.9,2.3-37.5,14.7.9ZM278.9,468.5c.2-2.7-1.1-4.1-3.8-4.3l-9.4-.6-1.6,26.8,9.4.6c2.7.2,4.1-1.1,4.3-3.8l1.2-18.8Z"/>
    </g>
  </g>
  <g class="st2">
    <g class="st2">
      <path class="st1" d="M310.8,473.5l.5,5.4-16.1,1.4.9,10.7,16.1-1.4.5,5.4-21.4,1.8-3.2-37.5,21.4-1.8.5,5.4-16.1,1.4.9,10.7,16.1-1.4Z"/>
    </g>
  </g>
  <g class="st2">
    <g class="st2">
      <path class="st1" d="M315.9,456.2l11,14,3.7-17.4,5.8-1.3-5.6,23.4,3.6,15.7-5.2,1.2-3.6-15.7-15.3-18.5,5.8-1.3Z"/>
    </g>
  </g>
  <g class="st2">
    <g class="st2">
      <path class="st1" d="M362.8,458.3l1.9,5-15,5.8,3.9,10,15-5.8,1.9,5-20,7.8-13.6-35,20-7.8,1.9,5-15,5.8,3.9,10,15-5.8Z"/>
    </g>
  </g>
  <polyline class="st1" points="284.1 150.4 352.8 219.1 352.8 229.8 369.4 246.4 393.8 246.4 406.2 269.3 356.5 269.3 284 196.6"/>
  <polyline class="st1" points="284.1 150.4 215.4 219.1 215.4 229.8 198.7 246.4 174.4 246.4 161.9 269.3 211.6 269.3 284.2 196.6"/>
  <polyline class="st1" points="284.1 415.9 352.8 347.2 352.8 336.6 369.4 320 393.8 320 406.2 297.1 356.5 297.1 284 369.7"/>
  <polyline class="st1" points="284.1 415.9 215.4 347.2 215.4 336.6 198.7 320 174.4 320 161.9 297.1 211.6 297.1 284.2 369.7"/>
  <path class="st1" d="M284.2,243.4l-39.6,39.6-.2.2,39.4,40,.2.2,40.1-40.1-39.9-39.9h0ZM245.2,283.2l39-39,39.1,39.1-39.3,39.3-38.8-39.4h0ZM284.2,243.4l-39.6,39.6-.2.2,39.4,40,.2.2,40.1-40.1-39.9-39.9h0ZM245.2,283.2l39-39,39.1,39.1-39.3,39.3-38.8-39.4h0ZM284.1,213.4l-69.5,69.5-.2.2,69.1,70.2.2.2,70.2-70.2-69.9-69.9h0ZM215.2,283.1l68.9-68.9,69.1,69.1-69.5,69.4-68.6-69.6h0ZM284.2,243.4l-39.6,39.6-.2.2,39.4,40,.2.2,40.1-40.1-39.9-39.9h0ZM245.2,283.2l39-39,39.1,39.1-39.3,39.3-38.8-39.4h0Z"/>
  <path class="st1" d="M284.1,214.1l-68.9,68.9,68.6,69.6,69.5-69.5-69.1-69.1h0ZM283.8,323.2l-39.4-40,.2-.2,39.6-39.6,39.9,39.9-40.1,40.1-.2-.2h0Z"/>
  <path class="st1" d="M284.2,243.4l-39.6,39.6-.2.2,39.4,40,.2.2,40.1-40.1-39.9-39.9h0ZM245.2,283.2l39-39,39.1,39.1-39.3,39.3-38.8-39.4h0Z"/>
  <path class="st1" d="M284.2,243.4l-39.6,39.6-.2.2,39.4,40,.2.2,40.1-40.1-39.9-39.9h0ZM245.2,283.2l39-39,39.1,39.1-39.3,39.3-38.8-39.4h0Z"/>
</svg>