<?xml version="1.0" encoding="utf-8"?>
<!-- Generator: Adobe Illustrator 23.0.1, SVG Export Plug-In . SVG Version: 6.00 Build 0)  -->
<svg version="1.1" id="Capa_1" xmlns="http://www.w3.org/2000/svg" xmlns:xlink="http://www.w3.org/1999/xlink" x="0px" y="0px"
	 viewBox="0 0 538.6 538.6" style="enable-background:new 0 0 538.6 538.6;" xml:space="preserve">
<style type="text/css">
	.st0{fill:#206180;}
	.st1{fill:#41BAC8;}
	.st2{fill:#103040;}
	.st3{fill:#3090BF;}
	.st4{fill:#E0E6ED;}
</style>
<path class="st0" d="M287.6,538.6H251c-8.2-1.2-16.4-2.2-24.6-3.5C117.8,518.4,28.2,433.4,6.1,325.8C3.5,313.2,2,300.3,0,287.5V251
	c1.2-8.2,2.2-16.4,3.5-24.6C20.2,117.8,105.2,28.2,212.7,6.1C225.4,3.5,238.2,2,251,0h36.5c8.2,1.2,16.4,2.2,24.6,3.5
	c108.6,16.7,198.2,101.7,220.3,209.2c2.6,12.6,4.1,25.5,6.1,38.3v36.5c-1.2,8.2-2.2,16.4-3.5,24.6
	c-16.8,108.7-101.7,198.2-209.2,220.4C313.2,535.1,300.4,536.6,287.6,538.6z"/>
<path class="st1" d="M287.3,4.3l7.5,1c5.5,0.8,11.2,1.5,16.7,2.4c26.4,4.1,52,12.2,75.9,24.2c47.4,23.8,86.7,61.1,112.9,107.2
	c13.2,23.2,22.6,48.3,28,74.4c1.8,8.5,3,17.4,4.2,25.9c0.6,3.9,1.1,7.9,1.8,11.9v35.9c-0.3,2.5-0.7,5-1,7.5
	c-0.8,5.5-1.5,11.2-2.4,16.7c-4.1,26.4-12.3,52-24.2,75.9c-23.7,47.4-61,86.7-107.2,112.9c-23.2,13.2-48.3,22.6-74.4,28
	c-8.5,1.8-17.4,3-25.9,4.3c-3.9,0.5-7.9,1.1-11.9,1.8h-35.9l-7.5-1c-5.5-0.8-11.2-1.5-16.7-2.4c-26.4-4.1-52-12.2-75.9-24.2
	c-47.4-23.8-86.7-61.1-112.9-107.2c-13.2-23.2-22.6-48.3-28-74.4c-1.8-8.5-3-17.4-4.2-25.9c-0.6-3.9-1.1-7.9-1.8-11.9v-35.9
	c0.3-2.5,0.7-5,1-7.5c0.8-5.5,1.5-11.2,2.4-16.7c4.1-26.4,12.3-52,24.2-75.9C55.7,103.8,93,64.5,139.1,38.3
	c23.2-13.2,48.3-22.6,74.4-28c8.5-1.8,17.4-3,25.9-4.3c3.9-0.6,7.9-1.1,11.9-1.8L287.3,4.3 M287.6,0H251c-12.8,2-25.7,3.5-38.3,6.1
	C105.2,28.2,20.2,117.8,3.5,226.5C2.2,234.6,1.2,242.8,0,251v36.5c2,12.8,3.5,25.6,6.1,38.3c22.1,107.5,111.7,192.5,220.3,209.2
	c8.2,1.3,16.4,2.3,24.6,3.5h36.5c12.8-2,25.7-3.5,38.3-6.1c107.5-22.1,192.5-111.7,209.2-220.4c1.3-8.2,2.3-16.4,3.5-24.6V251
	c-2-12.8-3.5-25.6-6.1-38.3C510.4,105.2,420.8,20.2,312.2,3.5C304,2.2,295.8,1.2,287.6,0L287.6,0z"/>
<path class="st2" d="M270.6,476c9.4-12.1,21.2-22.4,23.2-38.1c0.9-7.4-0.3-15.3-1.7-22.8c-1.7-9,0.6-16.8,7.7-21.4
	c11.9-7.7,24.4-14.4,37.4-20.1c5-2.2,12.2-0.7,18.1,0.7c29.9,7.2,57.6,20.1,84.5,34.7c5.4,2.9,9.5,9.4,12.7,15.1
	c3.6,6.4,1.6,12.9-2.9,18.7c-23.8,30.5-53.3,53.9-89.3,68.1c-69.6,27.5-137.9,24-203.9-11.9c-25.8-14-47.3-33.5-65.3-56.8
	c-5.3-6.9-6-14.5-1-21.4c4-5.4,9-10.9,14.8-13.9c24.3-12.9,49.3-24.1,75.9-31.6c12.8-3.6,24.8-4,36.4,3.7c6.4,4.2,13.7,7,20.1,11.2
	c9.2,6,14.8,14.4,11.3,25.9C240.7,441.7,255.1,458.6,270.6,476L270.6,476z"/>
<path class="st2" d="M270.3,58.5c-8.8,11.4-19.9,21-21.7,35.7c-0.9,7,0.3,14.3,1.6,21.3c1.6,8.4-0.5,15.8-7.3,20.1
	c-11.1,7.2-22.8,13.5-35,18.8c-4.7,2-11.5,0.7-16.9-0.6c-28-6.7-54-18.9-79.2-32.5c-5.1-2.8-8.9-8.8-11.9-14.2
	c-3.4-6-1.5-12.1,2.7-17.6C125,61,152.6,39.1,186.3,25.8C251.6,0.1,315.6,3.3,377.4,37c24.2,13.2,44.3,31.4,61.2,53.2
	c5,6.5,5.7,13.6,1,20c-3.7,5.1-8.4,10.2-13.9,13.1c-22.8,12-46.2,22.6-71.1,29.6c-12,3.4-23.2,3.8-34.1-3.5c-6-4-12.9-6.5-18.9-10.5
	c-8.6-5.7-13.9-13.5-10.6-24.3C298.4,90.7,284.9,74.8,270.3,58.5z"/>
<path class="st3" d="M46.4,142.8c3.1,2.5,6.1,4.9,9.2,7.4c6.7,5.4,13.7,11.1,20.7,16.4c11.2,8.5,22.7,17.1,33.8,25.4
	c19.3,14.4,39.3,29.3,58.5,44.6c-0.7,2.9-1.3,5.9-1.8,8.9c-0.3,2.2-0.6,4.4-0.9,6.6l-0.4,2.7v14.1v0.4c0.3,1.5,0.5,3.1,0.7,4.7
	c0.5,3.3,0.9,6.6,1.6,9.9c7.7,37.6,36.6,68.2,73.8,78.4c0.9,6.5,1.7,13.2,2.4,19.7c0.4,3.4,0.8,6.9,1.2,10.3
	c-32.4-4.2-65.1-25.4-85.6-55.9c-22.4-33.1-28.2-73.9-16.3-114.8l0.4-1.4l-1.2-0.9L117,199.8l-11.7-8.9l-0.9,3.1
	c-1.1,4-2.3,8-3.4,11.8c-2.5,8.3-4.9,16.1-6.3,24.3c-9.3,53.8,2.8,102.2,36,143.8c29.9,37.4,69.3,59.4,117.1,65.3
	c2.8,0.4,3.5,0.7,3.8,3.5c2.5,21.7,5.3,44,8.5,66.3c0.4,2.6,1.9,4.8,3.3,6.9c0.6,0.9,1.2,1.7,1.6,2.5l0.6,1.1h7.4l0.6-1.1
	c0.5-0.8,1-1.6,1.6-2.5c1.5-2.1,3-4.3,3.3-6.9c3.3-23.6,6.1-45.1,8.4-65.7c0.4-3.2,1.2-3.7,4.5-4.1c35.2-4.1,66.3-17.7,92.7-40.5
	c45.5-39.4,66.5-90.3,62.4-151.5c-1.3-18.3-5.7-36.2-13.1-52.9l-1.1-2.6l-2.2,1.7c-2.8,2.1-5.6,4.3-8.3,6.4
	c-7,5.4-13.7,10.5-20.6,15.4c-4.9,3.4-6.1,7-4.3,12.8c4.9,16.1,6.2,33.4,3.8,51.4c-4.7,34.7-20.7,63.6-47.5,85.8
	c-17.3,14.3-36.8,23.4-59.5,27.7c0-1,0-2,0.1-2.9c0.3-2.9,0.6-5.8,0.9-8.7c0.6-6.2,1.3-12.6,2.2-18.9c38.9-10.4,69.1-43.9,75.2-83.8
	c0.3-2.2,0.6-4.4,0.9-6.6l0.4-2.7v-14.1v-0.3c-0.2-1.5-0.5-3.1-0.7-4.7c-0.5-3.2-0.9-6.6-1.6-9.9c-0.3-1.3-0.6-2.6-0.9-3.9
	c20.6-15.9,41.8-31.8,62.3-47.1c9.9-7.4,20.1-15,30.2-22.6c7.9-6,17.1-12.9,26.1-19.9c4.3-3.3,5.4-7.5,3.1-11.8
	c-1.4-3.1-4.6-5-8-4.8c-1.1,0-2.2,0.1-3.3,0.4c-1.4,0.3-2.8,0.8-4.1,1.4l-25.5,10.8c-28.4,11.9-57.7,24.3-86.5,36.5l-5.4,2.3
	c-5.4,2.3-10.9,4.6-16.4,6.8c-15.4-15.3-35.2-25.4-56.7-28.9c-2.2-0.3-4.4-0.6-6.6-0.9l-2.8-0.4h-14.3h-0.2
	c-1.6,0.2-3.1,0.5-4.7,0.7c-3.2,0.5-6.6,0.9-9.9,1.6c-19.5,4.1-37.4,13.8-51.5,27.9c-37-15.5-74.5-31.4-110.8-46.8l-22.4-9.5
	c-5-2.1-11.4-3.7-16.7,2.8l-0.5,0.6v6.7L46.4,142.8z M172.1,283c-0.6-3.2-1.1-6.5-1.6-9.6c-0.2-1.5-0.4-3-0.7-4.6v-13.5l0.4-2.6
	c0.3-2.2,0.6-4.4,0.9-6.5s0.8-4.4,1.3-6.6c1.5,1.2,2.9,2.3,4.4,3.5c34.5,27.8,55.8,65,63.5,110.4c0.2,1.4,0.4,2.7,0.6,3.9
	C206.2,347.2,179.4,318.3,172.1,283L172.1,283z M356,368.5c27.7-22.9,44.2-52.7,49.1-88.5c2.5-18.7,1.2-36.6-3.9-53.3
	c-1.2-3.9-0.7-5.6,2.7-7.9c7-4.9,13.7-10.1,20.8-15.5l6-4.6c6.5,15.6,10.5,32.1,11.7,48.9c4,59.7-16.5,109.4-60.9,147.9
	c-25.7,22.2-56,35.5-90.3,39.5c-3.7,0.4-7.6,1.4-8.4,8c-2.3,20.6-5,42-8.4,65.6c-0.2,1.5-1.4,3.2-2.6,5c-0.4,0.6-0.8,1.1-1.2,1.7
	h-2.4c-0.4-0.6-0.8-1.2-1.2-1.7c-1.2-1.8-2.4-3.4-2.6-5c-3.1-22.2-6-44.5-8.4-66.2c-0.7-6-4.3-6.9-7.6-7.3
	c-46.7-5.8-85.1-27.2-114.3-63.7C101.8,330.6,90,283.4,99,230.8c1.3-7.9,3.7-15.6,6.1-23.7c0.9-2.9,1.7-5.8,2.6-8.8l6.6,5l24.3,18.4
	c-11.7,41.7-5.6,83.3,17.3,117.1c21.9,32.4,57,54.6,91.6,58.1l2.7,0.3l-0.3-2.7c-0.5-4.4-1-8.8-1.5-13c-0.7-5.9-1.4-12-2.2-18
	c2.2,0.5,4.5,0.9,6.7,1.3s4.5,0.7,6.8,1l2.5,0.4h14.1h0.3c1.6-0.3,3.1-0.5,4.7-0.7c3.2-0.5,6.6-0.9,9.9-1.6l1-0.2
	c-0.8,5.8-1.4,11.6-2,17.3c-0.3,2.9-0.6,5.8-0.9,8.7c-0.1,1.3-0.1,2.7-0.1,4v2v2.6l2.6-0.5C315.4,393.8,337.5,383.7,356,368.5
	L356,368.5z M369,268.8l-0.4,2.6c-0.3,2.2-0.6,4.4-0.9,6.5c-5.8,37.6-33.8,69.2-70.2,79.7c7.8-49,31-88.8,68.9-118.3
	c0.1,0.6,0.3,1.2,0.4,1.8c0.6,3.2,1.1,6.5,1.6,9.7c0.2,1.5,0.4,3,0.7,4.5L369,268.8z M360.7,185.6l5.4-2.3
	c28.8-12.2,58.1-24.6,86.5-36.5l25.3-10.7l0.3-0.1c1.1-0.5,2.2-0.9,3.4-1.2c4-0.9,5.5,0.2,6.5,2.2c0.9,1.7,1.3,3.8-1.9,6.3
	c-9,7-18.2,13.9-26.1,19.9c-10,7.6-20.3,15.2-30.1,22.6c-20,15-40.8,30.5-61,46.1c-4.5-14.9-12.3-28.6-22.9-40.1
	C350.9,189.7,355.8,187.6,360.7,185.6L360.7,185.6z M248.5,164.8c3.2-0.6,6.4-1.1,9.6-1.6c1.5-0.2,3-0.4,4.6-0.7h13.5l2.6,0.4
	c2.2,0.3,4.3,0.6,6.5,0.9c19.9,3.2,38.4,12.4,52.9,26.3c-14,5.5-30.5,11-48.6,12.6c-33.1,2.9-61.8-1-87.7-11.8l-1.5-0.6
	C213.7,177.4,230.4,168.5,248.5,164.8z M50,137.1c2.7-2.9,5.8-3.2,11.1-0.9l22.5,9.5c35.8,15.2,72.8,30.9,109.3,46.2
	c-10.6,11.5-18.5,25.2-23,40.2c-18.8-14.9-38.3-29.4-57.2-43.5c-11.1-8.3-22.6-16.8-33.8-25.4c-6.9-5.3-13.9-10.9-20.5-16.3
	c-2.8-2.3-5.6-4.5-8.4-6.8L50,137.1z"/>
<g>
	<path class="st4" d="M408.8,179.7l-32.7-6.6c-1.5-0.3-3.1,0.5-3.7,1.9l-13,30.7c-0.7,1.7,0.1,3.6,1.8,4.3c0.2,0.1,0.4,0.1,0.6,0.2
		l32.7,6.5c1.5,0.3,3.1-0.5,3.7-1.9l13-30.7c0.7-1.7-0.1-3.6-1.8-4.3C409.2,179.8,409,179.7,408.8,179.7L408.8,179.7z"/>
	<path class="st4" d="M397.7,215.9c2.9-2.9,5.7-5.8,8.7-8.7c1.3-1.3,2.2-2.3,1-4.3s-0.3-4.9,1.7-6.8c2.6-2.5,5.7-3.3,8.4-2
		c0.7,0.3,1.4,0.8,2.5,1.4c3.3-2.3,6.8-4.6,10.2-7c0.4-0.5,0.6-1.2,0.4-1.8c-1.2-3.2-0.3-5.9,2.1-8.1s5.2-3.1,8.5-1.6
		c0.7,0.2,1.5,0.1,2.1-0.3c9.9-9.2,19.8-18.5,29.5-28.3l-10.2,2.3c-9.6,2.1-19.2,4.3-28.9,6.4c-1.3,0.1-2.3,1.1-2.4,2.4
		c-0.5,3-2.6,4.7-5.6,5.3c-2.8,0.6-5.5,0.5-7.3-1.9c-1.3-1.8-2.5-1.8-4.2-1c-3.3,1.5-6.7,2.7-9.9,4c-0.5,5.8-3.4,8.8-8.1,8.8
		c-2.4,0-4.4-0.8-5.4-3c-0.7-1.5-1.6-1.6-3-1.3c-4.2,0.9-8.5,1.6-12.8,2.4l-0.9,0.5c1.1,4.3,2.2,8.5,3.2,12.8
		c0.8,3.6,1.4,7.2,2.1,10.8l0.9,1.7c0.6,0.4,1.3,0.9,1.8,1.4c3.1,3.3,6.3,6.7,9.3,10.1c1.8,2,3.6,4.1,5.3,6.2L397.7,215.9z"/>
	<path class="st4" d="M132.2,179.7l32.7-6.6c1.5-0.3,3.1,0.5,3.7,1.9l13,30.7c0.7,1.7-0.1,3.6-1.8,4.3c-0.2,0.1-0.4,0.1-0.6,0.2
		l-32.7,6.5c-1.5,0.3-3.1-0.5-3.7-1.9l-13-30.7c-0.7-1.7,0.1-3.6,1.8-4.3C131.8,179.8,132,179.7,132.2,179.7L132.2,179.7z"/>
	<path class="st4" d="M143.3,215.9c-2.9-2.9-5.7-5.8-8.7-8.7c-1.3-1.3-2.1-2.3-1-4.3s0.3-4.9-1.7-6.8c-2.6-2.5-5.7-3.3-8.4-2
		c-0.7,0.3-1.4,0.8-2.5,1.4c-3.3-2.3-6.8-4.6-10.2-7c-0.4-0.5-0.6-1.2-0.4-1.8c1.2-3.2,0.3-5.9-2.1-8.1s-5.2-3.1-8.4-1.6
		c-0.7,0.2-1.5,0.1-2.1-0.3c-9.9-9.2-19.8-18.5-29.5-28.3l10.2,2.3c9.6,2.1,19.2,4.3,28.8,6.4c1.3,0.1,2.3,1.1,2.4,2.4
		c0.5,3,2.7,4.7,5.6,5.3c2.8,0.6,5.5,0.5,7.3-1.9c1.3-1.8,2.4-1.8,4.2-1c3.3,1.5,6.7,2.7,9.9,4c0.5,5.8,3.4,8.8,8.1,8.8
		c2.4,0,4.4-0.8,5.4-3c0.7-1.5,1.6-1.6,3.1-1.3c4.2,0.9,8.5,1.6,12.8,2.4l0.9,0.5c-1.1,4.3-2.2,8.5-3.2,12.8
		c-0.8,3.6-1.4,7.2-2.1,10.8l-0.9,1.7c-0.6,0.4-1.3,0.9-1.8,1.4c-3.1,3.3-6.3,6.7-9.3,10.1c-1.8,2-3.6,4.1-5.3,6.2L143.3,215.9z"/>
	<path class="st4" d="M271.8,91.7l21.1,25.9c1,1.2,1,2.9,0,4.1l-21.1,25.9c-1.1,1.4-3.2,1.6-4.6,0.5c-0.2-0.1-0.3-0.3-0.5-0.5
		l-21.1-25.9c-1-1.2-1-2.9,0-4.1l21.1-25.9c1.2-1.4,3.2-1.6,4.6-0.5C271.5,91.4,271.6,91.5,271.8,91.7z"/>
	<path class="st4" d="M244.9,118.5c1.2-3.9,2.5-7.8,3.6-11.7c0.5-1.8,1-3,3.3-2.8s4.5-2,5.2-4.7c1-3.4,0.2-6.6-2.1-8.4
		c-0.6-0.5-1.4-0.9-2.4-1.6c0.4-4,0.8-8.2,1.4-12.3c0.2-0.6,0.8-1,1.4-1.2c3.4-0.5,5.3-2.5,6.2-5.7s0.3-6-2.6-8.2
		c-0.5-0.5-0.8-1.3-0.7-2c3.5-13.2,7.1-26.2,11.2-39.4c0.9,3.4,1.9,6.7,2.8,10.1c2.6,9.5,5.2,19,7.8,28.5c0.5,1.2,0.1,2.6-1,3.3
		c-2.4,1.9-2.9,4.5-2.1,7.4c0.8,2.7,2.1,5.1,5.1,5.5c2.2,0.3,2.7,1.3,2.8,3.3c0.3,3.6,0.8,7.2,1.1,10.6c-4.9,3.1-6.2,7.1-4,11.3
		c1.1,2.1,2.7,3.5,5.2,3.4c1.6-0.1,2.2,0.6,2.6,2.1c1.2,4.2,2.5,8.3,3.9,12.4v1c-4.3,1-8.6,2-12.8,3.2c-3.5,0.9-7,2.1-10.5,3.1h-1.9
		c-0.7-0.4-1.4-0.7-2.1-0.9c-4.4-1.2-8.9-2.4-13.3-3.5c-2.6-0.7-5.3-1.2-7.9-1.8L244.9,118.5z"/>
	<path class="st4" d="M266.7,419.8L245.6,394c-1-1.2-1-2.9,0-4.1l21.1-25.9c1.2-1.4,3.2-1.6,4.6-0.5c0.2,0.1,0.3,0.3,0.5,0.5
		l21.1,25.9c1,1.2,1,2.9,0,4.1l-21.1,25.9c-1.2,1.4-3.2,1.6-4.6,0.5C267,420.2,266.8,420,266.7,419.8z"/>
	<path class="st4" d="M293.5,393c-1.2,3.9-2.5,7.8-3.6,11.7c-0.5,1.8-1,3-3.3,2.8s-4.5,2-5.2,4.7c-1,3.5-0.2,6.6,2.1,8.4
		c0.6,0.5,1.4,0.9,2.4,1.6c-0.4,4-0.9,8.1-1.4,12.3c-0.2,0.6-0.8,1.1-1.4,1.2c-3.4,0.5-5.3,2.5-6.2,5.7s-0.3,6,2.6,8.2
		c0.5,0.5,0.8,1.3,0.7,2c-3.5,13.1-7.1,26.1-11.2,39.3l-2.8-10.1c-2.6-9.5-5.2-19-7.8-28.5c-0.5-1.2-0.1-2.6,1-3.3
		c2.4-1.9,2.9-4.5,2.1-7.4c-0.8-2.7-2.1-5.1-5.1-5.5c-2.2-0.3-2.7-1.3-2.8-3.3c-0.3-3.6-0.8-7.2-1.1-10.6c4.9-3.1,6.2-7.1,4-11.3
		c-1.1-2.1-2.7-3.5-5.2-3.4c-1.6,0.1-2.2-0.6-2.6-2.1c-1.2-4.2-2.5-8.3-3.9-12.4v-1c4.3-1.1,8.6-2,12.8-3.2c3.5-1,7-2.1,10.5-3.1h2
		c0.7,0.4,1.4,0.7,2.1,1c4.4,1.2,8.9,2.4,13.3,3.5c2.6,0.7,5.3,1.2,7.9,1.8L293.5,393z"/>
	<path class="st4" d="M273.3,213.5h18.9v71.8h41.5c2.4,0,6.3,3.5,7.8,5.4c1.8,2.3,4.4,7.9,4.4,10.8v13.1h-17.6c0,0-0.5-7.5-0.5-9.2
		s-4.6-2.9-6.4-2.9c-7.3,0-30.3,0.5-30.3,0.5v11.7h-18V213.5z"/>
	<path class="st4" d="M265.3,213.5h-18.9v71.8h-41.5c-2.4,0-6.3,3.5-7.8,5.4c-1.8,2.3-4.4,7.9-4.4,10.8v13.1h17.6
		c0,0,0.5-7.5,0.5-9.2s4.6-2.9,6.4-2.9c7.3,0,30.3,0.5,30.3,0.5v11.7h18L265.3,213.5z"/>
	<path class="st4" d="M246.4,232h-38.3c-3.1,0-9.7,0.9-12.1,2.9c-1.6,1.4-3.3,5.6-3.3,7.7v16.1H211c0,0,0-5.2,0-7
		c0-1,0.1-3.3,1.1-3.3h34.3L246.4,232z"/>
</g>
</svg>
