<svg enable-background="new 0 0 113.3 113.4" viewBox="0 0 113.3 113.4" xmlns="http://www.w3.org/2000/svg"><path d="m56.7 113.4c-31.4 0-56.7-25.5-56.7-57.1 0-31.1 25.5-56.4 56.8-56.3 31.2 0 56.6 25.5 56.5 56.7.1 31.2-25.4 56.7-56.6 56.7z" fill="#0b0b0b"/><path d="m2.3 56.7c.1-30.3 24.5-54.5 54.7-54.3 29.8.1 54 24.6 53.9 54.6s-24.5 54.2-54.6 54.1c-29.8-.3-54.1-24.7-54-54.4z" fill="#fefefe"/><path d="m108.9 56.6c.1 28.3-23.4 52.2-51.6 52.3-29.4.1-52.9-23-53-52.2-.2-28.8 23.1-52.2 52-52.4s52.4 23.3 52.6 52.3z" fill="#0a0a0a"/><path d="m56.5 17.2c21.9.1 39.4 17.8 39.3 39.8-.1 21.5-17.9 39-39.5 38.9-21.8-.1-39.3-17.8-39.2-39.6.1-21.5 18-39.2 39.4-39.1z" fill="#fff"/><path d="m56.6 107.1c-2.3 0-4.7-.3-6.9-1-1.4-.4-2.7-1.2-2.9-2.6-.3-1.9-.5-4 1.3-5.5.7-.6 1.5-.8 2.3-.6 4.1.7 8.2.6 12.3.1 1.1-.1 2 .2 2.8 1 2.3 2.6 1 7-2.4 7.8-2.1.5-4.3.9-6.5.8z" fill="#fff"/><path d="m103.5 39.4c0 2.7-3.6 5.2-6.1 4.4-.9-.3-1.5-.8-1.9-1.7-1.5-3.9-3.6-7.5-6.1-10.8-1.2-1.6-1.1-3.2.4-4.4 2.8-2.3 4.5-2.9 7.2 0 2.9 3.1 5.1 6.7 6.2 10.8.2.6.2 1.2.3 1.7z" fill="#fff"/><path d="m14.8 43.9c-2.5-.3-5.8-2.2-4.7-6 1.3-4.5 3.5-8.3 6.8-11.6 2.3-2.3 6.6-1.1 7.6 1.9.3.9.4 1.8-.2 2.6-2.7 3.5-4.9 7.3-6.5 11.4-.5 1.3-1.6 1.8-3 1.7z" fill="#fff"/><g fill="#fcfcfc"><path d="m54.4 9.8c-.8 1.2-1.6 2.3-2.3 3.5-.6.9-1.2.9-1.9.2-.9-1-1.8-2-2.8-3.1-.1.1-.2.2-.4.3.1 1 .2 1.9.3 2.9.1.5 0 .8-.5.9s-.7-.3-.7-.7c-.2-1.5-.3-3.1-.5-4.6 0-.3.2-.6.5-.7.4-.2.7.1 1 .3 1.1 1.1 2.2 2.1 3.3 3.2.5.5.8.5 1.2-.2.7-1.3 1.6-2.4 2.4-3.7.3-.4.6-.8 1.1-.7s.6.6.6 1.1c.1 1.3.2 2.6.4 3.9.1.5.2.9-.5 1s-.7-.5-.7-.9c-.2-.8-.2-1.7-.5-2.7z"/><path d="m84.1 21.1c.4.8.8 1.4 1.2 2.1.2.4.6.8.1 1.1s-.9-.2-1.1-.6c-.6-1-1.2-2.1-1.8-3.1-.4-.8-.8-1.5-1.5-.2-.2.3-.5.7-1 .3s-.2-.8.1-1.1c.9-1.2 1.8-2.4 2.7-3.6.3-.4.5-.4.8-.2 1.4 1.1 3 2.1 4.3 3.4.8.8.7 1.6 0 2.4-.7.9-1.4.7-2.2.4-.6-.3-.9-.8-1.6-.9z"/><path d="m8.8 67.9c.1-.4 0-.6.1-.8.8-1.7 2.6-1.3 4-1.8.9-.3 1.5.7 1.8 1.4.5 1.5.9 3.1 1.4 4.6.2.6-.3.9-.8 1-1.4.4-2.7.7-4.1 1.1-.4.1-.8.3-.9-.2-.6-1.7-1.1-3.6-1.5-5.3z"/><path d="m84.8 90c0-.8.4-1.4.9-1.8l3-3c .5-.5.9-.6 1.4 0 .9 1.1 1.9 2.1 2.9 3.1.4.4.5.6.1 1-1.3 1.2-2.4 2.5-3.8 3.6-.9.7-1.6.7-2.4-.2-.5-.6-1.1-1.1-1.7-1.7-.2-.3-.5-.7-.4-1z"/><path d="m102.4 73.3c-.3 1.3-.8 2.9-1.8 4.3-.4.5-.9.8-1.6.4-.5-.3-1.1-.4-1.6-.6-2-.8-2.3-1.4-1.6-3.4.4-1 .7-2.1 1.3-2.9s1.3-1.2 2.2-.7c.6.3 1.3.5 2 .8.8.3 1.2.9 1.1 2.1z"/><path d="m15.6 80.6c1.1-.5 2-1 3-1.5.3-.2.7-.5 1 .1s-.1.8-.5 1c-1.3.6-2.5 1.2-3.8 1.9-.3.2-.6.4-.9.1s-.4-.6-.3-1c .4-1.6.8-3.3 1.2-4.9.1-.3.1-.6.2-1-1.1.2-1.8.8-2.7 1.1-.4.2-.9.8-1.3 0-.4-.9.4-.9.9-1.2 1.1-.6 2.1-1.1 3.2-1.6.3-.1.7-.6 1.1-.1.4.4.3.8.2 1.2-.5 1.8-.9 3.6-1.4 5.4.1.1.1.2.1.5z"/><path d="m20.4 81.3c.3 0 .6.1.8.3 1.3 1.1 2.3 2.4 3.1 3.8.1.1.1.2.1.4.2 2-1.7 2.3-2.8 3.3-.8.7-1.6.1-2.2-.5-.9-1-1.8-2-2.4-3.2-.5-.9-.4-1.5.4-2.2.7-.5 1.3-1 1.9-1.6.4-.2.7-.3 1.1-.3z"/><path d="m92.2 83.5c1.2.7 2.1 1.3 3 1.9.4.2.7.5.4 1-.3.6-.7.3-1 .1-1.2-.7-2.3-1.4-3.5-2.2-.3-.2-.8-.4-.7-.9s.5-.6.9-.7c1.9-.6 3.7-1.2 5.8-1.8-1.1-.7-2-1.3-3-1.9-.4-.2-.7-.5-.4-.9s.6-.4 1-.1c1.1.8 2.3 1.4 3.4 2.1.3.2.8.4.8.9-.1.6-.6.8-1.1.9-1.7.4-3.5 1-5.6 1.6z"/><path d="m58.8 7.6c1.5.2 2.9.3 4.4.5 1.3.2 1.9.9 1.8 2-.1 1.3-.7 1.9-2.1 1.9-1.1 0-2.2-.1-3.2-.3-.8-.2-1.2.1-1.2.9 0 .5 0 1-.6 1-.7 0-.6-.6-.6-1.1.1-1.3.3-2.6.4-4 0-.8.4-1 1.1-.9z"/><path d="m99.7 64.7c-.3 1.2-.6 2.4-.8 3.5-.1.4-.2.8-.7.7s-.4-.5-.3-.9c.4-1.6.7-3.2 1.1-4.9.1-.4.3-.7.7-.8.5-.1.6.3.8.6.7 1.3 1.4 2.6 2.2 4.2.3-.9.5-1.6.7-2.3.1-.5.3-.8.9-.6.5.2.8.4.6 1-.4 1.2-.8 2.5-1.1 3.7-.1.4-.1.9-.7.9-.5 0-.7-.5-.8-.8-.7-1.2-1.2-2.5-1.9-3.8-.2 0-.2-.3-.7-.5z"/><path d="m24.8 92.4c.5.5 1.1.9 1.6 1.4.4.3.6.7.1 1.1-.4.4-.7.5-1.2-.1-.8-.9-1.7-1.8-2.6-2.7-.3-.3-.6-.7-.3-1.1.2-.4.6-.4 1.1-.4 1.7.3 3.4.1 5.4.2-1.1-1-2-1.8-2.8-2.5-.4-.3-.8-.7-.4-1.1s.7.1 1 .3c1.2 1.1 2.4 2.1 3.5 3.2.3.3.7.5.5 1-.2.4-.6.3-1 .3-1.6 0-3.2 0-4.7 0-.1.2-.2.3-.2.4z"/></g><path d="m40 16.6c-.3 0-.6 0-.8-.1-1.4-.9-1.4-2.5-1.7-3.8-.3-1 .7-1.4 1.4-1.8.1 0 .1-.1.2-.1.6-.1 1.5-1 1.8-.1.3.8-.8.7-1.3 1s-1.1.4-.8 1.2.9.2 1.2.1c1.1-.3 2.2-.7 3.3-1.1.4-.2.9-.3 1.1.2s-.4.7-.7.8c-1.1.4-2.3.7-3.4 1.1-.3.1-.9 0-.8.7.2.6.6.7 1.2.6 1.2-.4 2.4-.7 3.6-1.1.4-.2.8-.3 1 .3.2.5-.3.6-.6.7-1.7.5-3.2 1.2-4.7 1.4z" fill="#fbfbfb"/><path d="m76.2 12.1c.9 0 1.6.5 2.4.8.3.1.5.3.3.7-.2.3-.4.4-.7.3-.4-.2-.8-.4-1.2-.6-.5-.3-.9-.3-1.2.4-.4.8.3.7.6.9 1.1.6 2.2 1.1 3.4 1.7.3.2.8.3.6.8s-.7.3-1.1.1c-1.1-.5-2.2-1.1-3.3-1.6-.4-.2-.8-.7-1.2.1-.3.7.2.9.6 1.1l3 1.5c.4.2 1 .3.7.9-.3.7-.8.3-1.3 0-1-.5-2.1-1-3.1-1.6-1.4-.8-1.6-1.5-.9-2.9.3-.6.5-1.1.8-1.7s.9-1.1 1.6-.9z" fill="#fcfcfc"/><path d="m29.6 20c-.3.2-.6.3-.8.5-.8.6-1.5 1.1-2.3 1.7-1 .6-1.7.3-2.4-.6-.6-.8-.2-1.5.4-2.1.3-.3.6-.6.9-.8s.5-.6.9-.1c.4.4 0 .7-.2.9s-.5.4-.8.7-.4.6 0 1c .3.4.6.1.9-.1.8-.6 1.6-1.2 2.4-1.7 1.2-.7 1.9-.6 2.7.5.5.6.4 1.2-.1 1.8-1.2 1.3-2.6 2.2-3.9 3.3-.3.3-.6 0-.7-.1-.3-.3 0-.6.2-.8.8-.7 1.7-1.3 2.5-1.9.3-.3.7-.5.9-.9.4-.8-.1-1-.6-1.3z" fill="#fbfbfb"/><path d="m35.2 19.3c-.3-.1-.4-.3-.6-.5-.3-.5-.6-1.1-1-1.6-.4-.6-.6-1.6-1.2-1.9-.5-.3-1.2.5-1.8.8-.4.2-.6.2-.8-.1-.3-.4 0-.6.3-.8 1.5-.9 3.1-1.8 4.6-2.7.4-.2.6-.1.8.2.3.4-.1.5-.3.7l-.1.1c-.5.4-1.6.5-1.6 1.2 0 .6.6 1.2 1 1.8.3.6.7 1.2 1 1.7.7.7.1.8-.3 1.1z" fill="#fbfbfb"/><path d="m71.3 16.1c-1.3-.4-2.9-.6-4.3-1.3-.9-.4-1.2-1.1-1-2.1.3-1 .6-2.1.9-3.1.1-.4.2-.9.8-.8s.6.6.5 1.1c-.2.9-.4 1.9-.8 2.8s0 1.2.8 1.4c1.2.3 2.4.7 3.6 1 .4.1.6.2.5.6-.1.5-.4.5-1 .4z" fill="#fafafa"/><path d="m86.8 74.8c-1.2-.2-2.2-.7-3.2-1.1-8.7-3.5-17.4-6.9-26.1-10.4-.7-.3-1.3-.3-2 0-9.1 3.7-18.2 7.3-27.4 10.9-.5.2-1 .6-1.7.3 10-17.2 20-34.3 30.1-51.6 10.1 17.3 20.2 34.5 30.3 51.9z" fill="#e30914"/><path d="m83.6 17c .2.1.3.2.5.3.9.6 1.7 1.3 2.6 1.9.4.3.9.6.4 1.3-.5.8-1 .3-1.5 0-.8-.6-1.7-1.2-2.5-1.9-.2-.2-.6-.3-.3-.7.2-.2.5-.5.8-.9z" fill="#171717"/><path d="m10 68.4c-.1-.8.1-1.1.7-1.2 3.3-.9 2.7-.9 3.6 2 .6 2.1.6 2.1-1.6 2.6-1.7.4-1.7.4-2.1-1.2-.2-.8-.4-1.6-.6-2.2z" fill="#0f0f0e"/><path d="m89.1 86.1c.1.1.2.1.3.2.8.9 1.6 1.8 2.4 2.6-.9.9-1.8 1.9-2.8 2.8-.4.4-.9.5-1.4 0s-1-.9-1.4-1.4c-.5-.5-.3-1 .2-1.5.9-.9 1.8-1.8 2.7-2.7z" fill="#0f0f0e"/><path d="m96.5 75.2c.4-1.1.7-2.3 1.3-3.3.2-.4.5-.4 1-.3 3.1 1.2 2.9.7 1.8 3.6-.2.6-.3 1.7-1.1 1.6-.9 0-1.9-.6-2.8-1-.1.1-.1-.3-.2-.6z" fill="#101010"/><path d="m20.7 88.1c-.2-.1-.4-.2-.6-.4-.3-.4-.7-.7-1-1.1-1.5-2-1.5-2 .5-3.5.8-.6 1.4-.6 1.9.2.2.3.4.5.6.8 1.5 1.9 1.2 3-1 4-.1 0-.2 0-.4 0z" fill="#0f0f0f"/><path d="m62 10.9c-.7-.1-1.5-.2-2.2-.3-.5-.1-1.2.1-1-.8.1-.7.2-1.2 1.1-1s1.8.2 2.7.3c.6.1 1.3.1 1.2 1s-.7.7-1.3.7c-.2.1-.3 0-.5.1 0-.1 0 0 0 0z" fill="#161615"/></svg>