<svg enable-background="new 0 0 113.4 113.4" viewBox="0 0 113.4 113.4" xmlns="http://www.w3.org/2000/svg"><circle cx="56.7" cy="56.7" fill="#edcc35" r="56.7"/><circle cx="56.7" cy="56.7" fill="#b5c52f" r="55.1"/><g fill="#020202"><ellipse cx="56.7" cy="56.4" rx="11.6" ry="24.7"/><path d="m105.5 46.9s-6.8-25.4-48.8-27.1c-42 1.7-48.8 27.1-48.8 27.1 18.4-16 47.1-16.7 48.8-16.7s30.4.7 48.8 16.7z"/><path d="m105.5 66.5s-6.8 25.4-48.8 27.1c-42-1.7-48.8-27.1-48.8-27.1 18.4 16 47.1 16.7 48.8 16.7s30.4-.7 48.8-16.7z"/><path d="m66.9 34.5s17.4 3.1 18.6 21.9c-1.2 18.9-18.6 22-18.6 22 10.9-8.3 11.4-21.2 11.5-22-.1-.7-.6-13.6-11.5-21.9z"/><path d="m81.7 38.9s13.9 2.5 14.9 17.5c-.9 15.1-14.9 17.5-14.9 17.5 8.7-6.6 9.1-16.9 9.1-17.5.1-.6-.3-10.9-9.1-17.5z"/><path d="m46.6 78.4s-17.4-3.1-18.6-21.9c1.2-18.9 18.6-21.9 18.6-21.9-10.9 8.3-11.4 21.2-11.5 22 .1.6.5 13.5 11.5 21.8z"/><path d="m31.7 74s-13.9-2.5-14.9-17.5c1-15.1 14.9-17.6 14.9-17.6-8.7 6.6-9.1 16.9-9.1 17.5 0 .7.4 11 9.1 17.6z"/></g></svg>