<svg id="Capa_1" data-name="Capa 1" xmlns="http://www.w3.org/2000/svg" viewBox="0 0 566.93 566.93"><defs><style>.cls-1{fill:#221b18;}.cls-2{fill:#ffed00;}.cls-3{fill:#1e1816;}</style></defs><title>KoDali</title><path class="cls-1" d="M562.68,283.86c0,154.32-124.8,279-279.2,279.06C128.85,562.94,4.16,438.06,4.25,283.28,4.34,129,129.28,4.4,283.79,4.49,438.1,4.59,562.69,129.39,562.68,283.86ZM283.6,20.55C138.71,20.47,20.51,138.4,20.3,283.23c-.21,145.2,117.83,263.51,263,263.63s263.32-118.12,263.3-263.31C546.6,138.72,428.51,20.64,283.6,20.55Z"/><path class="cls-2" d="M283.6,20.55c144.91.09,263,118.17,263,263,0,145.19-118.22,263.44-263.3,263.31S20.09,428.43,20.3,283.23C20.51,138.4,138.71,20.47,283.6,20.55Zm-56.39,503c4.4-8.81,8.95-17.55,13.16-26.44,14.53-30.71,25.09-62.44,23.9-97-.33-9.61-2-19.08-3.52-28.57-5.47-35-12.72-69.74-18.95-104.63-7.49-41.89-19.43-83-21.39-125.88a504.28,504.28,0,0,1,1.58-67c.87-9.81,1.88-19.6,3-31-39.32,56.34-59.37,115.46-41.19,183.48h-7.85c-19.3,0-38.6,0-57.91,0-6.75,0-12.57,2-16.71,7.55-4.42,5.89-5.19,12.47-2.15,19.14,3.53,7.71,10,11.14,18.3,11.16,22.18.05,44.36,0,66.54.06,2.18,0,4.5-.68,6.79.91,1.23,4.42,3.13,8.85,3.08,14.19h-7.09q-34.18,0-68.38,0c-7,0-13,1.94-17.22,7.74-4.35,6-5.07,12.53-1.92,19.17,3.63,7.66,10.15,11,18.44,11q38.51,0,77,0h7c1.08,5.59,2.06,10.7,3.12,16.2H197.8q-41.28,0-82.56,0c-9.58,0-17,5.95-18.6,14.59-2.27,12.49,6.19,22.13,19.75,22.17,29.78.08,59.55,0,89.33.06,2.21,0,4.51-.57,6.39.48C223.1,421.26,228.7,471.88,227.21,523.58Zm122.47-479c-2.3.11-2.51,1.54-3.15,2.48a305.77,305.77,0,0,0-26.37,47c-10,22.06-17.71,44.94-18.54,69.3-.79,23.16,2.76,46.09,6.5,68.93,2.9,17.71,8.32,34.83,11.74,52.42q10.06,51.88,20.32,103.74a593.52,593.52,0,0,1,10.29,80.16,433,433,0,0,1,.22,49.27c-.09,1.84.16,3.7.31,6.75,26.06-48.9,46.75-97.57,33.83-154.15h63.42c14.16,0,22.85-6.91,23.05-18.33s-8.69-18.51-23.27-18.49H379.32a51.38,51.38,0,0,1-3-16.19h6.69c22,0,44,0,65.94,0,6,0,11.48-1.26,15.74-5.64,5.5-5.65,7.06-12.4,4.38-19.85-2.77-7.69-9.75-12.34-18.73-12.37-25.06-.08-50.12,0-75.18-.06-2.19,0-4.52.64-6.87-.89l-2.5-14.23h11c24.44,0,48.89.08,73.34,0,11.79-.05,20-7.9,20.07-18.74s-8.06-18.8-19.76-19.08c-2.26-.06-4.52,0-6.78,0H359C342.07,166.39,341.17,105.75,349.68,44.56Z"/><path class="cls-3" d="M227.21,523.58c1.49-51.7-4.11-102.32-15.1-152.64-1.88-1.05-4.18-.48-6.39-.48-29.78,0-59.55,0-89.33-.06-13.56,0-22-9.68-19.75-22.17,1.58-8.64,9-14.58,18.6-14.59q41.28-.08,82.56,0h7.07c-1.06-5.5-2-10.61-3.12-16.2h-7q-38.5,0-77,0c-8.29,0-14.81-3.29-18.44-11-3.15-6.64-2.43-13.2,1.92-19.17,4.22-5.8,10.27-7.75,17.22-7.74q34.18.06,68.38,0h7.09c0-5.34-1.85-9.77-3.08-14.19-2.29-1.59-4.61-.91-6.79-.91-22.18-.06-44.36,0-66.54-.06-8.29,0-14.77-3.45-18.3-11.16-3-6.67-2.27-13.25,2.15-19.14,4.14-5.5,10-7.56,16.71-7.55,19.31,0,38.61,0,57.91,0h7.85c-18.18-68,1.87-127.14,41.19-183.48-1.1,11.38-2.11,21.17-3,31a504.28,504.28,0,0,0-1.58,67c2,42.85,13.9,84,21.39,125.88,6.23,34.89,13.48,69.6,18.95,104.63,1.48,9.49,3.19,19,3.52,28.57,1.19,34.57-9.37,66.3-23.9,97C236.16,506,231.61,514.77,227.21,523.58Z"/><path class="cls-3" d="M349.68,44.56c-8.51,61.19-7.61,121.83,9.29,182h84.71c2.26,0,4.52-.05,6.78,0,11.7.28,19.81,8.12,19.76,19.08s-8.28,18.69-20.07,18.74c-24.45.1-48.9,0-73.34,0h-11l2.5,14.23c2.35,1.53,4.68.89,6.87.89,25.06.05,50.12,0,75.18.06,9,0,16,4.68,18.73,12.37,2.68,7.45,1.12,14.2-4.38,19.85-4.26,4.38-9.74,5.67-15.74,5.64-22-.07-44,0-65.94,0h-6.69a51.38,51.38,0,0,0,3,16.19H448c14.58,0,23.47,7,23.27,18.49s-8.89,18.33-23.05,18.33H384.83C397.75,427,377.06,475.68,351,524.58c-.15-3.05-.4-4.91-.31-6.75a433,433,0,0,0-.22-49.27,593.52,593.52,0,0,0-10.29-80.16q-10.31-51.84-20.32-103.74c-3.42-17.59-8.84-34.71-11.74-52.42-3.74-22.84-7.29-45.77-6.5-68.93.83-24.36,8.56-47.24,18.54-69.3a305.77,305.77,0,0,1,26.37-47C347.17,46.1,347.38,44.67,349.68,44.56Z"/></svg>