<?xml version="1.0" encoding="UTF-8"?><svg id="Capa_1" xmlns="http://www.w3.org/2000/svg" viewBox="0 0 566.93 566.93"><defs><style>.cls-1,.cls-2{fill:#fff;}.cls-3{fill:#000100;}.cls-4{fill:#111323;}.cls-5{fill:#f1842d;}.cls-2{font-family:Centauri, Centauri;font-size:29px;stroke:#fff;}.cls-2,.cls-6{stroke-miterlimit:10;}.cls-6{fill:none;stroke:#000100;stroke-width:10px;}</style></defs><path class="cls-3" d="m86.02,86.04c109.04-109.05,285.82-109.05,394.88,0,109.04,109.03,109.04,285.82,0,394.87-109.06,109.03-285.84,109.03-394.88,0-109.02-109.05-109.02-285.84,0-394.87Z"/><path class="cls-1" d="m89.59,89.59c107.08-107.07,280.69-107.07,387.73,0,107.1,107.07,107.1,280.67,0,387.74-107.04,107.08-280.65,107.08-387.73,0-107.08-107.07-107.08-280.67,0-387.74Z"/><path class="cls-5" d="m94.52,94.65c104.37-104.28,273.49-104.28,377.68,0,104.38,104.28,104.38,273.36,0,377.59-104.18,104.33-273.31,104.33-377.68,0-104.1-104.23-104.1-273.31,0-377.59Z"/><path class="cls-3" d="m433.43,433.41c-82.82,82.82-217.05,82.82-299.94,0-82.81-82.74-82.81-217.09,0-299.86,82.9-82.86,217.13-82.86,299.94,0,82.82,82.78,82.82,217.13,0,299.86Z"/><path class="cls-1" d="m142.81,424.11c-77.66-77.71-77.66-203.6,0-281.27,77.74-77.67,203.64-77.67,281.31,0,77.67,77.67,77.67,203.56,0,281.27-77.67,77.63-203.56,77.63-281.31,0Z"/><text class="cls-2" transform="translate(333.28 58.46) rotate(17.17) scale(1 1.2)"><tspan x="0" y="0">K</tspan></text><text class="cls-2" transform="translate(375.05 71.96) rotate(28.16) scale(1 1.2)"><tspan x="0" y="0">U</tspan></text><text class="cls-2" transform="translate(413.51 93.2) rotate(39.16) scale(1 1.2)"><tspan x="0" y="0">L</tspan></text><text class="cls-2" transform="translate(447.33 121.18) rotate(50.55) scale(1 1.2)"><tspan x="0" y="0">A</tspan></text><text class="cls-2" transform="translate(477.66 159.35) rotate(62.11) scale(1 1.2)"><tspan x="0" y="0">K</tspan></text><text class="cls-2" transform="translate(497.11 199.02) rotate(69.35) scale(1 1.2)"><tspan x="0" y="0">	</tspan></text><text class="cls-2" transform="translate(502.92 213.02) rotate(76.98) scale(1 1.2)"><tspan x="0" y="0">P</tspan></text><text class="cls-2" transform="translate(511.54 248.99) rotate(86.76) scale(1 1.2)"><tspan x="0" y="0">A</tspan></text><text class="cls-2" transform="translate(513.9 288) rotate(95.96) scale(1 1.2)"><tspan x="0" y="0">Y</tspan></text><text class="cls-2" transform="translate(508.61 332.74) rotate(107.01) scale(1 1.2)"><tspan x="0" y="0">B</tspan></text><text class="cls-2" transform="translate(495.44 374.62) rotate(118.6) scale(1 1.2)"><tspan x="0" y="0">A</tspan></text><text class="cls-2" transform="translate(471.37 417) rotate(130.18) scale(1 1.2)"><tspan x="0" y="0">C</tspan></text><text class="cls-2" transform="translate(442.61 450.19) rotate(140.98) scale(1 1.2)"><tspan x="0" y="0">K</tspan></text><text class="cls-2" transform="translate(407.42 476.96) rotate(148.18) scale(1 1.2)"><tspan x="0" y="0">	</tspan></text><text class="cls-2" transform="translate(383.43 491.25) rotate(159.05) scale(1 1.2)"><tspan x="0" y="0">U</tspan></text><text class="cls-2" transform="translate(342.2 506.42) rotate(170.01) scale(1 1.2)"><tspan x="0" y="0">N</tspan></text><text class="cls-2" transform="translate(298.47 512.76) rotate(177.22) scale(1 1.2)"><tspan x="0" y="0">I</tspan></text><text class="cls-2" transform="translate(284.62 513.99) rotate(-175.59) scale(1 1.2)"><tspan x="0" y="0">T</tspan></text><text class="cls-2" transform="translate(240.67 509.25) rotate(-168.43) scale(1 1.2)"><tspan x="0" y="0">	</tspan></text><text class="cls-2" transform="translate(237.01 509.3) rotate(-163.71) scale(1 1.2)"><tspan x="0" y="0">K</tspan></text><text class="cls-2" transform="translate(195.04 496.45) rotate(-152.73) scale(1 1.2)"><tspan x="0" y="0">U</tspan></text><text class="cls-2" transform="translate(156.26 475.81) rotate(-141.72) scale(1 1.2)"><tspan x="0" y="0">L</tspan></text><text class="cls-2" transform="translate(122.01 448.33) rotate(-130.31) scale(1 1.2)"><tspan x="0" y="0">A</tspan></text><text class="cls-2" transform="translate(91.1 410.63) rotate(-118.77) scale(1 1.2)"><tspan x="0" y="0">K</tspan></text><text class="cls-2" transform="translate(71.04 371.26) rotate(-111.53) scale(1 1.2)"><tspan x="0" y="0">	</tspan></text><text class="cls-2" transform="translate(65.02 357.35) rotate(-103.9) scale(1 1.2)"><tspan x="0" y="0">P</tspan></text><text class="cls-2" transform="translate(55.85 321.52) rotate(-94.11) scale(1 1.2)"><tspan x="0" y="0">A</tspan></text><text class="cls-2" transform="translate(52.9 282.53) rotate(-84.91) scale(1 1.2)"><tspan x="0" y="0">Y</tspan></text><text class="cls-2" transform="translate(57.51 237.74) rotate(-73.87) scale(1 1.2)"><tspan x="0" y="0">B</tspan></text><text class="cls-2" transform="translate(70.03 195.68) rotate(-62.28) scale(1 1.2)"><tspan x="0" y="0">A</tspan></text><text class="cls-2" transform="translate(93.43 152.94) rotate(-50.7) scale(1 1.2)"><tspan x="0" y="0">C</tspan></text><text class="cls-2" transform="translate(121.72 119.29) rotate(-39.88) scale(1 1.2)"><tspan x="0" y="0">K</tspan></text><text class="cls-2" transform="translate(156.46 92.01) rotate(-32.71) scale(1 1.2)"><tspan x="0" y="0">	</tspan></text><text class="cls-2" transform="translate(180.24 77.34) rotate(-21.84) scale(1 1.2)"><tspan x="0" y="0">U</tspan></text><text class="cls-2" transform="translate(221.21 61.54) rotate(-10.87) scale(1 1.2)"><tspan x="0" y="0">N</tspan></text><text class="cls-2" transform="translate(264.87 54.53) rotate(-3.65) scale(1 1.2)"><tspan x="0" y="0">I</tspan></text><text class="cls-2" transform="translate(278.7 53.08) rotate(3.54) scale(1 1.2)"><tspan x="0" y="0">T</tspan></text><g><path class="cls-4" d="m436.12,122.63c-3.39,7.72-5.63,13.54-8.94,21.3-16.29,38.18-32.54,76.39-48.8,114.59-.2.47-.36.95-.7,1.86h22.55c-38.91,81.21-77.57,161.89-116.54,243.22-38.9-81.18-77.57-161.89-116.45-243.01h22.69c-20.15-47.26-40.08-94.02-59.13-138.71,32.77,52.81,66.73,107.53,100.98,162.72h-29.46c27.28,47.4,54.19,94.15,81.36,141.37,27.14-47.15,54.07-93.95,81.24-141.15h-28.59c-.72-1.25.22-1.78.62-2.42,32.59-52.56,65.2-105.11,97.81-157.66.82-1.33.5-.8,1.36-2.11h0Z"/><path class="cls-5" d="m276.18,296.62c.86-2.98-.38-5.48-1.55-7.89-4.1-8.43-10.53-15.1-16.88-21.81-6.71-7.09-13.4-14.19-19.85-21.55-9.03-10.31-10.66-21.99-7.95-34.82.33-1.56.64-3.12,1.11-4.64,2.99-9.61,6.45-12.68,16.69-14.9.88-1.43.5-3.06.53-4.62.16-7.32.08-14.67,2.71-21.68,1.76-4.7,3.61-5.79,9.37-5.6,4.12.14,6.79,2.29,8.02,6.43,1.07,3.62,1.07,7.33,1.15,11.05.03,1.4-.43,2.97.94,4.33,1.33-1.89,1.51-3.97,1.46-6.04-.07-3.24.68-6.34,1.62-9.38,1.32-4.26,4.17-5.85,8.6-5.04,1.25.23,2.48.51,4.18.86,6.62,5.13,3.73,13.34,5.12,20.26,1.74-.26,1.49-1.39,1.68-2.25.79-3.62,1.48-7.23,3.41-10.54,1.81-3.1,4.5-3.57,7.61-3.38,2.87.17,5.14,1.33,6.21,4.17,1.52,4.03,2,8.2,1.52,12.49-.28,2.54-.53,5.11.47,8.28,1.18-2,1.64-3.46,1.72-5.03.11-1.95.76-3.72,1.58-5.47,1.55-3.29,4.06-4.61,7.71-4.33,3.39.26,5.17,2.34,6.22,5.13,1.51,4.02,1.77,8.34,1.78,12.55.01,12.53-.86,25.04-1.39,37.56-.39,9.2-2.02,17.89-6.89,25.79-2.89,4.68-6.14,9.19-7.24,14.72-1.64,8.27-1.72,16.66-1.5,25.06.44,16.57,2.27,33,4.56,49.4.22,1.55.36,3.1-.52,4.63-11.53,20-23.01,40.03-34.56,60.15-3.73-5.4-9.58-16.7-9.58-16.7l-7.5-12.72h0c-6.64-11.55-13.13-22.85-19.66-34.22,4.98-24.29,8.18-48.84,11.29-73.61,8.33,5.97,14.06,13.84,17.83,23.36Z"/></g><path class="cls-6" d="m392.69,392.67c-60.32,60.32-158.08,60.32-218.45,0-60.31-60.26-60.31-158.11,0-218.4,60.37-60.35,158.14-60.35,218.45,0,60.32,60.29,60.32,158.14,0,218.4Z"/></svg>