<svg enable-background="new 0 0 113.4 113.4" viewBox="0 0 113.4 113.4" xmlns="http://www.w3.org/2000/svg"><circle cx="56.7" cy="56.7" fill="#ef7e00" r="56.7"/><circle cx="56.7" cy="56.7" fill="#fff" r="54.2"/><path d="m43.3 79.3s0-18.4 0-21.5c-3-3-4.3-9.2-4.3-9.2s-1.4 6.2-4.3 9.2v21.5s-8.8-.8-14.3-9.9c0 0-3 1.2-7.6 2.5.7 1.1 8.1 15.2 26.2 15.3 18.1-.1 25.5-14.1 26.2-15.3-4.7-1.3-7.6-2.5-7.6-2.5-5.5 9.1-14.3 9.9-14.3 9.9z" fill="#ef7e00"/><path d="m34.7 18.8c-1.8 1-2.9.9-3.6-.2l-2.4-4.4c-.1-.2-.1-.3 0-.4s.2-.2.4-.3.4-.2.5-.2.2.1.3.3l2.4 4.4c.1.2.3.3.6.3s.7-.1 1.3-.4l4.4-2.4c.1-.1.3-.1.3 0 .1.1.2.2.3.3.1.2.1.3.1.4s-.1.2-.2.3z"/><path d="m41 15.3c.1.2.1.3 0 .4s-.2.2-.4.3-.4.1-.5.1-.2-.1-.3-.3l-2.4-6c-.1-.2-.1-.3 0-.4s.2-.2.4-.3.4-.1.5-.1.2.1.3.3z"/><path d="m42.6 15.1c-.4.1-.6.1-.8.1s-.3-.2-.4-.5c0-.1 0-.2 0-.3s.1-.2.1-.2l5.1-7.5c.1-.1.1-.2.2-.2s.2-.1.4-.1h.2.2c.1 0 .1 0 .2.1 0 0 .1.1.1.2s0 .2 0 .3-.1.2-.2.3l-4.7 6.6 5.9-1.5c.2 0 .3 0 .3.1.1.1.1.2.2.4 0 .2.1.3 0 .4 0 .1-.1.2-.3.2z"/><path d="m54.6 5.5c.2 0 .4 0 .5.1s.2.1.3.3l4.7 6.2c.1.1.1.1.1.2s0 .1-.1.2c0 .1-.1.1-.2.2-.1 0-.1.1-.2.1s-.2 0-.3.1c-.1 0-.2 0-.3 0s-.1-.1-.2-.2l-1.1-1.8-5.7.2-1.1 1.8c0 .1-.1.1-.2.2-.1 0-.2.1-.2.1-.1 0-.2 0-.3 0s-.2-.1-.2-.1c-.1 0-.1-.1-.2-.2 0-.1-.1-.1-.1-.2s0-.1.1-.2l3.9-6.5c.1-.1.2-.2.3-.3.2-.1.3-.2.5-.2zm-1.8 4.5 4.2-.2-2.3-3.1z"/><path d="m61.7 6c .1-.3.2-.4.6-.4l5.6 1.1c.5.1.9.2 1.2.3s.6.3.9.5c.2.2.4.4.5.6s.1.5.1.7l-.2 1.3c0 .2-.2.5-.3.6-.2.2-.4.3-.7.4s-.6.1-1 .1-.8 0-1.2-.1l-.4-.1c-.3-.1-.5-.1-.8-.1-.2 0-.4-.1-.6-.1s-.3-.1-.4-.1-.3-.1-.4-.1c.1.1.2.1.3.2s.3.2.4.3c.2.1.4.2.6.4.2.1.5.3.9.6l2.2 1.4c.2.1.3.3.2.5 0 .2-.1.3-.2.3s-.3 0-.5 0c0 0-.1 0-.2 0s-.1 0-.2-.1c-.1 0-.1-.1-.2-.1s-.1-.1-.2-.1l-5.4-3.6-.4 2.2c0 .2-.1.3-.2.3s-.3 0-.5 0-.4-.1-.5-.2-.1-.2-.1-.4zm1.2.9-.4 2.4 4.6.9c.3.1.6.1.9.1h.6c.1 0 .2-.1.3-.1.1-.1.1-.1.1-.2l.2-1.1c0-.1 0-.2 0-.3s-.1-.2-.2-.3-.3-.2-.5-.2c-.2-.1-.5-.1-.8-.2z"/><path d="m79.2 16.6c-.5 1.2-1.7 1.3-3.5.5l-5.4-2.2c-.3-.1-.4-.3-.2-.6l2.6-5.9c.1-.3.3-.4.6-.2l5.3 2.3c1.8.8 2.5 1.8 2 2.9zm-7.6-2.4 4.4 1.9c.5.2 1 .3 1.3.3s.5-.1.6-.3l1.4-3.3c.1-.2 0-.4-.2-.7-.2-.2-.6-.5-1.1-.7l-4.4-1.9z"/><path d="m86 19.9c-1.5-1.3-1.9-2.4-1.1-3.4l.3-.3c.8-1 2-.8 3.5.5l.8.7c.1.1.2.2.2.3s-.1.2-.2.4c-.1.1-.2.2-.3.3-.1 0-.2 0-.3-.1l-.8-.7c-.5-.4-.8-.6-1.1-.6s-.5 0-.6.2l-.3.3c-.1.2-.2.4-.1.7s.4.6.8 1l1.8 1.5c1.5 1.3 1.9 2.4 1.1 3.4l-.3.4c-.8 1-2 .8-3.5-.5l-4-3.3c-.1-.1-.2-.2-.2-.3s.1-.2.2-.4c.1-.1.2-.2.3-.3s.2 0 .3.1l3.8 3.2c.5.4.8.6 1.1.6s.5 0 .6-.2l.3-.4c.1-.2.2-.4.1-.7s-.4-.6-.8-1z"/><path d="m95.5 32.1c-.3.2-.6.4-1 .4-.3 0-.7-.1-1.1-.3l.1.7c0 .2 0 .4-.2.6-.1.1-.2.1-.4.1-.1 0-.3-.2-.4-.3-.2-.2-.3-.4-.3-.6l-.3-1.7-1.9-2.4c-1.2-1.6-1.4-2.8-.4-3.5l2.8-2.2c1-.8 2.1-.4 3.4 1.2l2 2.5c1.2 1.6 1.4 2.8.4 3.5zm-2.5-1.9c.2.3.4.5.6.6s.3.2.5.3.3.1.4.1.2-.1.3-.1l2.8-2.2c.2-.1.2-.4.2-.7s-.3-.7-.6-1.2l-1.9-2.4c-.4-.5-.7-.8-1-.9s-.5-.1-.7 0l-2.8 2.2c-.2.1-.2.4-.2.7s.3.7.6 1.2z"/><path d="m95.5 36.4c-.9-1.8-.7-3 .4-3.5l4.6-2.2c.2-.1.3-.1.4 0s .2.2.3.4.1.4.1.5-.1.2-.3.3l-4.6 2.2c-.2.1-.3.3-.3.6s.1.7.3 1.3l1.3 2.8c.3.5.5.9.8 1.1s.5.2.7.1l4.6-2.2c.2-.1.3-.1.4 0s .2.2.3.4.1.4.1.5-.1.2-.3.3l-4.6 2.2c-1.1.5-2.1-.1-3-1.9z"/><path d="m106.6 45.1v.5s-.1.3-.2.4l-5.2 5.7c-.1.1-.1.1-.2.1s-.1 0-.2 0-.1-.1-.2-.1c-.1-.1-.1-.1-.2-.2 0-.1-.1-.2-.1-.2 0-.1 0-.2 0-.3s0-.2.1-.2l1.4-1.6-1.3-5.5-2-.7c-.1 0-.1-.1-.2-.1s-.1-.1-.1-.2 0-.2 0-.3 0-.2.1-.3c0-.1.1-.1.1-.2.1-.1.1-.1.2-.1h.2l7.1 2.7c.1 0 .2.1.3.2s.3.2.4.4zm-4.8-1 .9 4.1 2.6-2.8z"/><path d="m102.3 61.4c-1.3 0-1.9-1-1.9-3v-5.8c0-.3.2-.5.5-.5h6.4c.3 0 .5.2.5.5v5.8c0 2-.6 3-1.9 3zm-.7-7.9v4.8c0 .6.1 1 .2 1.3.2.3.3.4.6.4h3.6c.2 0 .4-.1.6-.4s.2-.7.2-1.3v-4.8z"/><path d="m107.1 63.5c.3.1.4.3.3.6l-1.3 5.6c-.1.5-.2.8-.4 1.2s-.3.6-.5.8-.4.4-.6.5-.5.1-.7.1l-1.3-.3c-.2-.1-.5-.2-.6-.4-.2-.2-.3-.4-.4-.7s-.1-.6-.1-1 .1-.8.2-1.2l.1-.4c.1-.3.1-.5.2-.8s.1-.4.1-.6.1-.3.1-.4.1-.3.1-.4c-.1.1-.1.2-.2.3s-.2.3-.3.4c-.1.2-.2.4-.4.6s-.4.5-.6.9l-1.5 2.2c-.1.2-.3.3-.5.2-.2 0-.3-.1-.3-.3 0-.1 0-.3 0-.5 0 0 0-.1 0-.2s0-.1.1-.2c0-.1.1-.1.1-.2s.1-.1.1-.2l3.8-5.2-2.2-.5c-.2 0-.3-.1-.3-.3 0-.1 0-.3 0-.5s.1-.4.2-.5.2-.1.4-.1zm-.9 1.1-2.3-.5-1 4.6c-.1.3-.1.6-.1.8v.6c0 .1.1.3.1.3.1.1.1.1.2.1l1.1.2h.3c.1 0 .2-.1.3-.2s.2-.3.3-.5.2-.5.2-.8z"/><path d="m96.9 74c .9-1.8 1.9-2.5 3-1.9l3.2 1.5c1.1.5 1.3 1.7.4 3.5l-1.3 2.7c-.9 1.8-1.9 2.5-3 1.9l-3.2-1.5c-1.1-.5-1.3-1.7-.4-3.5zm-.2 3.1c-.3.5-.4 1-.3 1.3 0 .3.1.5.3.6l3.2 1.5c.2.1.4.1.7-.1s.5-.5.8-1.1l1.2-2.6c.3-.5.4-1 .3-1.3s-.1-.5-.3-.6l-3.3-1.5c-.2-.1-.4 0-.7.1-.3.2-.5.5-.8 1.1z"/><path d="m88.9 86.5.2-.2c.1-.1.1-.1.1-.1.1 0 .1-.1.2-.1s.2 0 .3-.1l8.1-1.8-4.1-3.2c-.2-.1-.2-.2-.2-.4 0-.1.1-.3.2-.5s.3-.3.4-.3c.1-.1.3 0 .4.1l5.2 4c .1.1.2.2.2.4 0 .1-.1.3-.2.4-.1.2-.3.3-.4.4s-.3.1-.5.2l-8 1.7 4.1 3.2c.2.1.2.2.2.4 0 .1-.1.3-.2.5s-.3.3-.4.3-.3 0-.4-.1l-5.2-4c-.2-.1-.2-.2-.2-.4-.1 0 0-.2.2-.4z"/><path d="m79.2 96.9c-.3-.4-.4-.7-.4-1s0-.6.2-.9c.1-.3.3-.6.6-.8s.5-.5.9-.7l4.7-3.3c.3-.2.5-.1.7.1l3.7 5.3c.2.3.1.5-.1.7l-4.6 3.3c-.4.3-.7.5-1 .6-.3.2-.7.3-1 .3s-.6 0-.9-.2c-.3-.1-.5-.4-.8-.7-.2-.3-.3-.6-.4-.9 0-.3 0-.6.2-1-.3.1-.6.1-.9 0s-.6-.4-.9-.8zm1.1-.8c.1.2.2.3.3.4s.2.1.4.1.3 0 .5-.1.4-.2.7-.4l3.9-2.8-1.2-1.7-4 2.8c-.3.2-.5.4-.6.5s-.2.3-.3.4v.4c.2.1.2.2.3.4zm6.6-1.9-4 2.8c-.3.2-.5.3-.6.5-.2.1-.3.3-.3.4-.1.1-.1.3 0 .4 0 .1.1.3.2.5.1.1.2.3.3.3.1.1.2.1.4.1.1 0 .3 0 .5-.1s.4-.2.7-.4l4-2.8z"/><path d="m76.5 103.8c-.2.1-.3.1-.5.1-.1 0-.3 0-.4-.1l-6.5-4.1c-.1-.1-.1-.1-.2-.2 0-.1 0-.1 0-.2s0-.2.1-.2c0-.1.1-.1.2-.2s.1-.1.2-.1.2-.1.3-.1.2 0 .2.1l1.8 1.2 5.2-2.2.4-2.1c0-.1.1-.2.1-.2.1-.1.1-.1.2-.1s.2-.1.3-.1.2 0 .3 0 .2 0 .2.1c.1 0 .1.1.1.2v.2l-1.4 7.5c0 .1-.1.3-.2.4 0 0-.2.1-.4.1zm.2-4.8-3.9 1.6 3.2 2.1z"/><path d="m68 103.5-4.8 3.8c-.1.1-.2.1-.3.2-.1 0-.3.1-.5.1-.1 0-.3 0-.4 0-.1-.1-.2-.2-.2-.3 0-.2 0-.4.2-.5l4.9-3.7-6-1.8c-.2-.1-.4-.2-.4-.4s0-.3.1-.4.2-.2.4-.2.4-.1.5-.1.2 0 .3.1l6 1.9-.5-2.6c0-.2 0-.3.1-.4s.3-.1.5-.2h.5c.1 0 .2.2.2.3l1.2 6.4c0 .2 0 .3-.1.4s-.3.1-.5.2c-.2 0-.4 0-.5 0s-.2-.2-.2-.3z"/><path d="m57.2 100.4c2 0 3 .7 3 2l-.1 5c0 .2-.1.3-.2.4s-.3.1-.5.1-.4 0-.5-.1-.2-.2-.2-.4l.1-5c0-.2-.1-.4-.4-.6s-.7-.3-1.3-.3l-3.1-.1c-.6 0-1 .1-1.3.2s-.4.3-.4.5l-.1 5c0 .2-.1.3-.2.4s-.3.1-.5.1-.4 0-.5-.1-.2-.2-.2-.4l.1-5c0-1.3 1-1.9 3.1-1.8z"/><path d="m42.3 98.1c.1 0 .2 0 .2.1.1 0 .1.1.2.1l.1.1c0 .1.1.1.2.2l4.9 6.7 1.3-5c0-.2.1-.3.3-.3h.5c.2.1.4.1.5.2s.1.2.1.4l-1.6 6.3c0 .2-.1.3-.3.3-.1 0-.3 0-.5 0-.2-.1-.4-.1-.5-.2s-.2-.2-.3-.4l-4.8-6.7-1.3 5.1c0 .2-.1.3-.3.3-.1 0-.3 0-.5 0-.2-.1-.4-.1-.5-.2s-.1-.2-.1-.4l1.6-6.3c0-.2.1-.3.3-.3z"/><path d="m39.6 97.4c.1-.2.2-.3.3-.3s.3 0 .5.1.3.2.4.3.1.2 0 .4l-2.4 6c-.1.2-.2.3-.3.3s-.3 0-.5-.1-.4-.2-.4-.3c-.1-.1-.1-.2 0-.4z"/><path d="m31.6 92.7c.1 0 .1.1.2.1l.1.1c0 .1.1.1.1.2s.1.2.1.3l2.8 7.8 2.6-4.5c.1-.2.2-.3.3-.2.1 0 .3.1.5.2s.3.2.4.3.1.3 0 .4l-3.2 5.6c-.1.2-.2.2-.3.3-.1 0-.3 0-.5-.2-.2-.1-.3-.2-.4-.3s-.2-.3-.2-.5l-2.8-7.7-2.6 4.5c-.1.2-.2.3-.3.3s-.3-.1-.5-.2-.3-.2-.4-.3-.1-.3 0-.4l3.2-5.6c.1-.2.2-.3.3-.3.3-.1.4 0 .6.1z"/><path d="m11.3 68.9s-6.9-14.8 3-29.2c6.5-8.8 13.7-12.1 22.5-12.6v7.3s-19.8 1-20.1 25.8c2-1.2 12.3-6 13.5-20.3 1.3-.8 4.2-1.9 6.8-1.9.1 2.2.5 14.8-10.4 24.4-.9.5-6 5.3-15.3 6.5z" fill="#ef7e00"/><path d="m66.7 68.9s6.9-14.8-3-29.2c-6.6-8.9-13.8-12.1-22.5-12.7v7.3s19.8 1 20.1 25.8c-2-1.2-12.3-6-13.5-20.3-1.3-.8-4.2-1.9-6.8-1.9-.1 2.2-.5 14.8 10.4 24.4.9.6 6 5.4 15.3 6.6z" fill="#ef7e00"/></svg>