<?xml version="1.0" encoding="UTF-8"?><svg xmlns="http://www.w3.org/2000/svg" viewBox="0 0 566.93 566.93"><defs><style>.cls-1{fill:#fff;}.cls-2{stroke:#36495e;stroke-miterlimit:10;stroke-width:3px;}.cls-2,.cls-3,.cls-4,.cls-5{fill:#f1c410;}.cls-6{fill:#35495e;}.cls-4{font-size:44.19px;}.cls-4,.cls-5{font-family:Tahoma-Bold, Tahoma;font-weight:700;}.cls-5{font-size:44.18px;}.cls-7{fill:#f1c412;}</style></defs><g id="Capa_1"><g><path class="cls-6" d="m283.46,553.27c-72.07,0-139.82-28.06-190.78-79.02S13.66,355.53,13.66,283.46s28.06-139.82,79.02-190.78S211.4,13.66,283.46,13.66h.91c71.88.25,139.42,28.42,190.17,79.33,50.77,50.92,78.73,118.57,78.73,190.48s-27.96,139.56-78.73,190.48c-50.75,50.91-118.29,79.08-190.17,79.32h-.91Z"/><path class="cls-7" d="m283.46,16.66c.3,0,.6.01.9.01,146.94.49,265.91,119.74,265.91,266.79s-118.97,266.31-265.91,266.79c-.3,0-.6.01-.9.01-147.35,0-266.81-119.45-266.81-266.81S136.11,16.66,283.46,16.66m0-6c-36.83,0-72.55,7.21-106.19,21.44-32.49,13.74-61.66,33.41-86.71,58.46-25.05,25.05-44.72,54.23-58.46,86.71-14.23,33.64-21.44,69.36-21.44,106.19s7.21,72.55,21.44,106.19c13.74,32.49,33.41,61.66,58.46,86.71,25.05,25.05,54.23,44.72,86.71,58.46,33.64,14.23,69.36,21.44,106.19,21.44.19,0,.39,0,.58,0,.11,0,.22,0,.34,0,36.73-.12,72.35-7.42,105.87-21.69,32.38-13.79,61.46-33.47,86.42-58.51,24.96-25.04,44.56-54.18,58.25-86.61,14.17-33.58,21.36-69.24,21.36-105.99s-7.19-72.41-21.36-105.99c-13.69-32.43-33.28-61.57-58.25-86.61-24.96-25.03-54.03-44.72-86.42-58.51-33.52-14.27-69.14-21.57-105.87-21.69-.11,0-.22,0-.34,0-.19,0-.39,0-.58,0h0Z"/></g><path class="cls-3" d="m480.9,86.03c52.74,52.74,81.78,122.86,81.78,197.43s-29.04,144.7-81.78,197.43c-52.74,52.74-122.85,81.78-197.43,81.78s-144.69-29.04-197.43-81.78C33.29,428.16,4.25,358.05,4.25,283.46s29.04-144.69,81.78-197.43C138.77,33.3,208.89,4.26,283.46,4.26s144.69,29.04,197.43,81.77Zm75.79,197.43c0-150.65-122.57-273.21-273.22-273.21S10.24,132.81,10.24,283.46s122.57,273.22,273.22,273.22,273.22-122.56,273.22-273.22Z"/><text class="cls-4" transform="translate(83.95 274.27) rotate(-83.31)"><tspan x="0" y="0">C</tspan></text><text class="cls-4" transform="translate(87.34 245.96) rotate(-75.94)"><tspan x="0" y="0">L</tspan></text><text class="cls-4" transform="translate(93.03 222.31) rotate(-68.4)"><tspan x="0" y="0">A</tspan></text><text class="cls-4" transform="translate(103.54 195.14) rotate(-59.65)"><tspan x="0" y="0">N</tspan></text><text class="cls-4" transform="translate(120.09 166.75) rotate(-50.46)"><tspan x="0" y="0">D</tspan></text><text class="cls-4" transform="translate(140.81 141.89) rotate(-42.2)"><tspan x="0" y="0">E</tspan></text><text class="cls-4" transform="translate(160.15 124.22) rotate(-34.64)"><tspan x="0" y="0">S</tspan></text><text class="cls-4" transform="translate(182.32 108.86) rotate(-27.02)"><tspan x="0" y="0">T</tspan></text><text class="cls-4" transform="translate(205.66 97.08) rotate(-20.26)"><tspan x="0" y="0">I</tspan></text><text class="cls-4" transform="translate(224.61 89.56) rotate(-12.45)"><tspan x="0" y="0">N</tspan></text><text class="cls-4" transform="translate(256.78 82.64) rotate(-3.84)"><tspan x="0" y="0">E</tspan></text><text class="cls-4" transform="translate(283.15 81.18) rotate(1.75)"><tspan x="0" y="0"> </tspan></text><text class="cls-4" transform="translate(295.34 81.06) rotate(7.73)"><tspan x="0" y="0">A</tspan></text><text class="cls-4" transform="translate(324.27 84.93) rotate(16.13)"><tspan x="0" y="0">C</tspan></text><text class="cls-4" transform="translate(351.59 92.85) rotate(24.1)"><tspan x="0" y="0">T</tspan></text><text class="cls-4" transform="translate(375.42 103.63) rotate(30.88)"><tspan x="0" y="0">I</tspan></text><text class="cls-4" transform="translate(393.14 113.66) rotate(38.55)"><tspan x="0" y="0">O</tspan></text><text class="cls-4" transform="translate(418.89 134.07) rotate(47.9)"><tspan x="0" y="0">N</tspan></text><text class="cls-4" transform="translate(440.69 159.01) rotate(54.3)"><tspan x="0" y="0"> </tspan></text><text class="cls-4" transform="translate(448.26 168.57) rotate(60.51)"><tspan x="0" y="0">U</tspan></text><text class="cls-4" transform="translate(463.89 195.9) rotate(69.58)"><tspan x="0" y="0">N</tspan></text><text class="cls-4" transform="translate(475.07 226.96) rotate(77.12)"><tspan x="0" y="0">I</tspan></text><text class="cls-4" transform="translate(479.85 246.89) rotate(83.68)"><tspan x="0" y="0">T</tspan></text><text class="cls-5" transform="translate(135.91 457.6) rotate(36.22)"><tspan x="0" y="0">N</tspan></text><text class="cls-5" transform="translate(165.69 478.71) rotate(28.83)"><tspan x="0" y="0">I</tspan></text><text class="cls-5" transform="translate(186.5 490.4) rotate(21.52)"><tspan x="0" y="0">G</tspan></text><text class="cls-5" transform="translate(220.02 503.39) rotate(12.54)"><tspan x="0" y="0">H</tspan></text><text class="cls-5" transform="translate(255.74 510.89) rotate(4.35)"><tspan x="0" y="0">T</tspan></text><text class="cls-5" transform="translate(285.25 513) rotate(-3.08)"><tspan x="0" y="0">S</tspan></text><text class="cls-5" transform="translate(316.03 511.34) rotate(-11.47)"><tspan x="0" y="0">H</tspan></text><text class="cls-5" transform="translate(351.96 503.69) rotate(-20.28)"><tspan x="0" y="0">A</tspan></text><text class="cls-5" transform="translate(383.12 492.06) rotate(-29.16)"><tspan x="0" y="0">D</tspan></text><text class="cls-5" transform="translate(414.62 473.97) rotate(-37.66)"><tspan x="0" y="0">E</tspan></text><path class="cls-1" d="m462.92,104.01c47.94,47.94,74.33,111.67,74.33,179.45s-26.4,131.53-74.33,179.45c-47.94,47.94-111.66,74.33-179.45,74.33s-131.52-26.4-179.45-74.33c-47.94-47.93-74.33-111.66-74.33-179.45s26.4-131.52,74.33-179.45c47.94-47.93,111.67-74.33,179.45-74.33s131.52,26.4,179.45,74.33Zm68.88,179.45c0-136.93-111.41-248.33-248.34-248.33S35.12,146.53,35.12,283.46s111.41,248.34,248.34,248.34,248.34-111.4,248.34-248.34Z"/></g><g id="Capa_2"><g><g><path class="cls-1" d="m288.13,268.55c2.14-3.26,4.3-6.45,6.37-9.69,4.68-7.35,9.27-14.73,13.27-22.49,3.88-7.53,7.36-15.18,9.04-23.5,1.09-5.41,1.64-10.85,1.19-16.49-.95-11.74-6.08-21.61-12.68-30.94-3.16-4.46-6.69-8.63-10.27-12.75-2.32-2.66-4.53-5.41-6.84-8.17-4.98,9.52-12.44,17.43-18.31,26.44-2.45,3.76-4.88,7.64-5.54,12.14-.45,3.05-1.03,6.13-.42,9.35.51,2.67.18,5.49.49,8.25.56,4.96,1.24,9.89,1.93,14.83.72,5.19,1.82,10.31,2.6,15.49.18,1.22.48,2.43.77,3.9-1.55-1.37-1.74-3.23-2.27-4.76-3.28-9.37-7.63-18.24-12.16-27.04-2.27-4.4-4.81-8.66-7.11-13.04-3.44-6.53-3.44-13.04.47-19.41.31-.51.81-.9,1.25-1.33,5.5-5.47,11.15-10.81,15.79-17.05,4.99-6.7,9.04-13.94,11.82-21.85,2.5-7.09,4.14-14.36,4.51-21.89.06-1.11.38-2.21.59-3.37,1.58-.99,2.37.05,2.86,1.3,1.98,5.05,4.46,9.87,6.96,14.66,4.66,8.91,10.09,17.34,16.03,25.45,3.34,4.56,6.89,8.96,10.49,13.31,5.79,7,11.99,13.65,17.52,20.86,4.78,6.24,4.59,13.07,2.09,20.17-2.9,8.25-7.6,15.49-12.47,22.63-4.15,6.09-8.74,11.86-13.42,17.56-5.69,6.93-11.44,13.8-17.54,20.38-1.96,2.11-3.79,4.34-5.71,6.48-.27.3-.49.88-1.31.57Z"/><path class="cls-1" d="m154.88,234.33c7.3,6.95,12.31,15.67,18.15,23.73,5.58,7.7,12.69,12.56,21.86,14.75,7.97,1.91,16.01,3.47,24.09,4.83,5.29.89,10.64,1.43,15.94,2.42-2.32.16-4.63.35-6.95.47-6.67.35-13.3,1.06-19.92,1.96-7.63,1.04-15.12,2.79-22.74,3.86-6.34.89-11.73-.48-16.29-4.89-1.98-1.92-2.99-4.5-4.15-6.95-3.1-6.51-6.58-12.83-10.95-18.57-6.68-8.77-14.67-16.14-24.31-21.66-4.42-2.53-9.02-4.65-13.57-6.52-.5-.72-.46-1.29-.11-2.03.65-.2,1.39-.62,2.14-.63,4.03-.04,7.98-.74,11.94-1.32,4.9-.71,9.77-1.71,14.59-2.84,7.76-1.81,15.4-4.04,22.91-6.71,8.12-2.89,16.06-6.23,24.02-9.54,5.16-2.14,10.24-4.48,15.73-5.75,5.15-1.19,9.8.12,14.06,2.79,6.02,3.76,10.78,8.91,15.31,14.35,6.03,7.25,11.48,14.91,16.63,22.8,5.06,7.74,9.88,15.62,14.49,23.62,1.58,2.74,3.14,5.49,4.7,8.25.12.21.15.48-.11.98-1.17-1.4-2.35-2.78-3.5-4.2-2.85-3.51-5.61-7.11-8.55-10.55-4.64-5.42-9.33-10.81-14.51-15.74-6.47-6.17-13.39-11.76-21.6-15.5-5.17-2.36-10.53-4.08-16.24-4.79-11.65-1.44-22.56,1.51-33.29,5.41-6.63,2.41-13.11,5.26-19.74,7.95Z"/><path class="cls-1" d="m324.28,252.64c.51-1.43,1.94-1.98,2.97-2.78,8.39-6.49,16.07-13.75,23.31-21.46,2.68-2.86,5.54-5.55,8.15-8.47,6.43-7.19,15.25-8.78,24.09-3.59,7.13,4.19,14.69,7.41,22.69,9.58,5.85,1.59,11.78,2.48,17.84,2.97,3.46.28,6.83-.06,10.22-.2,5.1-.21,10.11-1.34,15.07-2.54.75-.18,1.42-.29,2.13-.12.94,1,.53,2.03-.23,2.66-5.14,4.21-9.79,8.94-14.33,13.75-4.4,4.66-8.45,9.62-12.43,14.66-9.68,12.3-17.4,25.86-25.66,39.09-2.34,3.74-4.76,7.54-8.83,9.88-2.72,1.56-5.62,2.38-8.63,2.55-4.76.27-9.47-.22-14.2-1.07-8.28-1.49-16.27-3.91-24.18-6.63-9.52-3.27-18.89-6.96-28.1-11.01-5.42-2.38-10.86-4.75-16.27-7.16-.39-.17-1-.16-1.04-1.06,2.32.67,4.59,1.38,6.9,1.98,8.93,2.32,17.84,4.75,26.96,6.29,5.73.97,11.45,1.72,17.26,2.05,12.85.74,24.78-1.93,35.52-9.07,6.33-4.21,11.4-9.81,15.97-15.88,5.26-6.98,9.49-14.63,14.24-21.93.32-.5.7-.97,1.14-1.59-2.54-.96-5.21-1.18-7.75-1.95-6.3-1.91-12.47-4.21-18.76-6.14-4.93-1.51-9.87-3.11-15.13-3.04-4.94.07-9.42,1.95-13.91,3.65-8.22,3.12-16.07,7.05-23.88,11.05-3.35,1.71-6.64,3.53-9.95,5.32-.36.2-.65.51-1.18.2Z"/><path class="cls-1" d="m359.82,394.4c-1.35-10.67-.64-21.08-.71-31.47-.05-7.94-2.43-14.85-7.39-21.1-8.52-10.73-18.62-19.93-28.13-29.71-.6-.62-1.64-.72-1.93-1.69,1.16-.53,1.73.58,2.4,1.04,9.83,6.74,20.2,12.53,30.98,17.59,4.54,2.13,9.2,4.06,13.41,6.8,5.73,3.73,8.89,10.68,7.4,18.07-1.06,5.27-1.88,10.6-2.22,16.01-.19,3.1-.42,6.21-.26,9.29.51,9.98,2.45,19.65,6.43,28.9,2.2,5.12,5.03,9.86,7.84,14.63-1.03,2.06-2.37,1.27-3.67.5-5.28-3.15-10.67-6.09-16.25-8.67-11.06-5.13-22.46-9.29-34.21-12.6-11.35-3.2-22.95-5.37-34.24-8.79-6.76-2.05-10.59-6.62-12.77-12.93-1.61-4.64-2.31-9.47-2.92-14.35-1.26-10.05-.74-20.13-.7-30.19.03-6.3.67-12.6,1.18-18.88.44-5.52.92-11.05,1.69-16.54.28-2-.09-4.14,1.12-6.35.03,2.8.31,5.3.36,7.77.11,5.32.5,10.63.97,15.91.81,9.11,2,18.17,4.36,27.07,2.35,8.87,6.14,16.96,11.87,24.13,5.79,7.25,13.26,12.08,21.7,15.78,9.19,4.03,18.94,5.96,28.54,8.48,1.65.43,3.3.85,5.15,1.32Z"/><path class="cls-1" d="m272.63,287.8c-2.26,1.75-4.53,2.08-6.56,2.86-7.43,2.86-14.85,5.73-22.09,9.04-6.98,3.19-13.82,6.62-20.13,11-9.15,6.34-16.65,14.18-21.31,24.41-2.28,5.01-3.44,10.35-4.17,15.82-.73,5.5-.98,11.02-.71,16.53.34,7.01,1.05,14.01,1.61,21.24,4.3-2.03,8.58-3.67,12.96-5.02,6.22-1.91,12.48-3.71,18.55-6.08,4.16-1.63,8.19-3.53,11.28-6.82,2.67-2.85,4.84-6.14,6.91-9.46,3.39-5.43,6.38-11.09,9.44-16.71,3.21-5.88,5.73-12.09,9.23-17.89-.52,2.01-.98,4.04-1.56,6.03-1.99,6.85-3.52,13.8-4.8,20.81-.79,4.31-1.02,8.73-1.72,13.06-.9,5.51-.79,11.28-3.66,16.35-2.92,5.17-7.44,7.85-13.32,8.52-6.05.69-12.05,1.77-17.92,3.38-5.98,1.64-11.77,3.86-17.23,6.81-5.91,3.19-11.35,7.05-16.39,11.54-3.18,2.83-5.92,5.99-8.69,9.17-.73.84-1.47,2.08-3,1.11-.49-3.23.75-6.28,1.28-9.39.7-4.12,1.37-8.23,1.95-12.37,1.55-11.12,1.89-22.29,1.51-33.47-.23-6.88-.51-13.79-1.51-20.63-.25-1.71-.27-3.48-.36-5.21-.25-4.65-.8-9.3-.48-13.97.24-3.59,1.51-6.84,3.85-9.55,3.18-3.67,7.13-6.36,11.39-8.66,10.21-5.53,21.21-8.95,32.28-12.16,9.3-2.7,18.72-4.96,28.19-7.01,4.88-1.06,9.77-2.07,15.21-3.28Z"/><path class="cls-1" d="m323.16,253.43c.2-.81.6-.52.94-.56-.03.73-.33.83-.94.56Z"/><path class="cls-1" d="m273.23,273c-.21-.49-.29-.69-.4-.96.82.07.51.37.4.96Z"/></g><g><path class="cls-2" d="m316.17,258.92s-.02,0-.03.01c.01,0,.02-.01.03-.02-.42.21-.84.42-1.27.63l-.13.08.14-.06c.42-.21.84-.42,1.26-.64Z"/><path class="cls-2" d="m317.61,189.19c-.26-.1-.53-.21-.79-.31l-.03.03c.23.17.47.33.7.5.04-.07.08-.14.12-.22Z"/><path class="cls-2" d="m362.38,246.89c-.78-10.83-4.91-20.83-10.3-30.21-9.65-16.79-22.73-29.73-41.1-36.98-12.55-4.95-25.36-6.26-38.64-4.66-13.05,1.58-24.81,6.53-35.25,14.21-10.53,7.74-18.96,17.62-24.87,29.34-5.96,11.81-10.84,23.99-9.05,37.72.15,1.13.1,2.34-.12,3.45-.99,4.97.15,9.61,2.1,14.12,1.25,2.89,2.6,5.74,3.91,8.61,2.98,6.51,5.92,12.99,5.84,20.42-.04,3.86,1.22,7.39,3.88,10.41.69.79,1.03,2.38.78,3.42-1.26,5.39.33,9.9,3.64,14.09,2.67,3.37,5.12,6.92,7.7,10.36.64.84,1.43,1.57,2.56,2.79.79-1.95,1.32-3.27,1.87-4.59,1.43-3.4,6.25-6.72,9.06-6.23,6.93,1.19,11.13,7.67,9.48,14.56-.63,2.65-1.23,5.32-1.72,8.01-.67,3.73-.26,7.29,1.68,10.66,2.2,3.82,4.2,7.76,6.36,11.61.5.89,1.27,1.63,2.21,2.81,1.96-5.26-1.67-10.54,2.19-15.23,1.29.26,2.78.32,4.08.85,9.32,3.82,18.59,3.73,27.93.07,1.45-.57,3.13-.56,5.7-.98v14.73c.41.07.82.13,1.24.2.63-.9,1.36-1.74,1.89-2.69,1.99-3.57,3.83-7.24,5.9-10.76,2.14-3.64,2.73-7.44,1.89-11.53-.7-3.39-1.55-6.77-2-10.2-.63-4.77,1.99-7.83,5.73-10.39,3.52-2.42,6.78-1.98,9.8.47,1.46,1.19,2.44,3.02,3.48,4.66.68,1.08,1.08,2.33,1.88,4.14,1.29-1.57,2.18-2.55,2.95-3.6,1.98-2.72,3.7-5.65,5.9-8.17,4.34-4.98,7.02-10.24,4.8-15.49,1.86-5.35,4.29-9.46,4.54-13.69.49-8.05,2.97-15.31,6.86-22.06,6.25-10.83,6.06-22.58,5.21-34.28Zm-91.11,58.43c-.04.26-.39.48-.61.7-11.7,11.58-12.76,10.95-26.44,6.3-7.85-2.67-13.35-7.01-16.1-14.89-1.79-5.14-3.94-10.17-5.83-15.28-.37-1-.29-2.17-.46-3.61,2.24,0,4.08-.03,5.92,0,5.87.12,11.74.11,17.6.43,4.48.25,9,.63,13.4,1.47,5.52,1.06,7.34,5.74,9.05,10.36,1.29,3.49,2.79,6.91,3.89,10.45.37,1.2-.2,2.7-.41,4.05Zm20.64,40.04c-.48-.67-.95-1.14-1.19-1.71-.77-1.84-1.41-3.73-2.19-5.56-1.08-2.55-2.93-4-5.83-3.98-2.75.02-4.55,1.37-5.66,3.77-1.09,2.35-2.14,4.72-3.58,7.91-2.41-4.5-1.42-8.39-1.19-12.15.21-3.28,8.46-19.95,10.33-21.57,6.74,4.35,12.94,25.9,9.3,33.3Zm51.18-63.06c-3.18,7.52-6.28,15.07-9.8,22.43-.91,1.91-2.96,3.75-4.92,4.59-5.19,2.22-10.61,3.92-15.96,5.76-3.21,1.1-6.29.6-8.91-1.54-3.07-2.51-6.02-5.18-8.97-7.84-1.57-1.42-1.47-2.93-.41-4.78,1.12-1.95,1.86-4.14,2.6-6.28.58-1.68.83-3.47,1.4-5.16,1.9-5.7,5.59-9.26,11.86-9.6,4.7-.26,9.4-.53,14.1-.76,5.23-.26,10.47-.5,15.7-.73,1.11-.05,2.22,0,3.93,0-.25,1.73-.19,2.93-.61,3.93Z"/></g></g></g></svg>