<svg enable-background="new 0 0 113.4 113.4" viewBox="0 0 113.4 113.4" xmlns="http://www.w3.org/2000/svg"><circle cx="56.7" cy="56.7" fill="#fff" r="56.7"/><circle cx="56.7" cy="55.1" fill="#fff" r="53.5"/><path d="m58.4 111.8c-27.8 0-50.3-18.3-55.8-43.8-6.2-29.2 12.4-58.4 41.5-65.1 1.7-.4 2.5-.1 2.9 1.1.4 1.3-.1 2.5-1.6 3.1-1.7.7-3.5 1.3-5.2 2-14.5 6.4-23.3 17.4-25.8 33-3.5 22.1 11 43 32.8 47.9 22.4 5 44.4-8.3 50.4-30.3s-6.4-44.8-28.1-51.8c-.7-.2-1.3-.5-2-.8-1.4-.7-1.9-1.8-1.4-3.1.4-1.1 1.2-1.4 2.8-1.1 3.6.9 7.1 2 10.4 3.6 17 8.2 27.7 21.5 31.3 40 5.6 29.1-12.8 57.1-41.7 64-3.8.8-7.9 1.3-10.5 1.3z" fill="#050302"/><path d="m52.8 9.6c0-2.4 0-4.8 0-7.2h7.8v7.1c15.7 2.3 27 10.6 32.7 25.5 3.8 9.8 3.2 19.7-1 29.5-2.3-1.3-4.5-2.6-6.8-3.9 4.4-11.9 2.9-22.9-5.3-32.6-5.1-6-11.7-9.3-19.6-10.5v8.4c-2.6 0-5.1 0-7.8 0 0-2.7 0-5.4 0-8.2-16.9 1.2-33.5 20.6-24.8 42.8-1.1.7-2.2 1.3-3.4 2-1.1.6-2.2 1.3-3.5 2-5-12.2-4.7-24.1 1.8-35.5 6.7-11.4 16.8-17.7 29.9-19.4z" fill="#090604"/><path d="m82.6 63.4c-6.9 10.9-16.7 15.8-29.4 14.6-9.8-.9-17.1-6.2-22.4-14.6 6-3.8 10.9-8.5 14.7-14.4s5.9-12.3 6.9-19.3h8.7c1.9 14.5 9.1 25.7 21.5 33.7zm-25.9-26.5c-1.6 5.4-3.6 10.6-6.7 15.3-3.2 4.7-6.9 8.9-11.4 12.4 10.8 11.8 28.1 9.5 36-.1-8.9-7.1-15-16.3-17.9-27.6z" fill="#0a0705"/><path d="m83.7 64.1c2.3 1.3 4.5 2.5 6.9 3.8-7.7 12.1-18.4 18.9-32.7 19.4-15.5.6-28.6-8.2-34.9-19.4 2.2-1.3 4.4-2.5 6.7-3.8 6.3 9.8 15.2 15.4 27 15.4s20.7-5.5 27-15.4z" fill="#0a0705"/><path d="m56.7 36.9c2.9 11.3 8.9 20.4 17.9 27.6-7.9 9.6-25.3 11.9-36 .1 4.4-3.5 8.2-7.7 11.4-12.4s5.1-9.8 6.7-15.3z" fill="#fefefe"/></svg>