<svg xmlns="http://www.w3.org/2000/svg" viewBox="0 0 566.93 566.93"><defs><style>.cls-1{fill:#fff;}.cls-2{fill:#cc1333;}.cls-3{fill:#feffff;}.cls-4{fill:none;}</style></defs><title>Fukuro Keibi</title><g id="Capa_2" data-name="Capa 2"><ellipse class="cls-1" cx="283.46" cy="283.46" rx="279.21" ry="277.77"/><ellipse class="cls-1" cx="283.46" cy="283.46" rx="279.21" ry="277.77"/><ellipse class="cls-1" cx="283.46" cy="283.46" rx="279.21" ry="277.77"/></g><g id="Capa_1" data-name="Capa 1"><path class="cls-2" d="M284,85.08c100.14.24,182.84,73.86,196.81,169.56h69C535.27,121.21,421.38,17,283.46,17S31.66,121.21,17.16,254.64H86.1C100,158.86,183.64,84.84,284,85.08Z"/><path class="cls-2" d="M283.46,550c138,0,252-104.37,266.34-237.94h-69c-13.93,96.33-97,170.07-197.53,169.84-100.68-.23-183-73.53-197-169.84H17.13C31.5,445.58,145.45,550,283.46,550Z"/><path class="cls-2" d="M553.84,312a267.82,267.82,0,0,1-78.13,162.71,272.87,272.87,0,0,1-384.49,0A267.77,267.77,0,0,1,13.09,312H4.25c14.37,140.8,133.9,250.67,279.21,250.67S548.3,452.81,562.68,312Z"/><path class="cls-2" d="M283.46,13A270.78,270.78,0,0,1,475.71,92.21a267.84,267.84,0,0,1,78.1,162.43h8.84C548.14,114,428.69,4.25,283.46,4.25S18.78,114,4.28,254.64h8.84A267.84,267.84,0,0,1,91.22,92.21,270.78,270.78,0,0,1,283.46,13Z"/><path class="cls-3" d="M283.46,553.94a270.78,270.78,0,0,0,192.25-79.22A267.82,267.82,0,0,0,553.84,312h-4C535.43,445.58,421.48,550,283.46,550S31.5,445.58,17.13,312h-4A267.77,267.77,0,0,0,91.22,474.72,270.78,270.78,0,0,0,283.46,553.94Z"/><path class="cls-3" d="M283.46,17c137.92,0,251.81,104.23,266.31,237.66h4a267.84,267.84,0,0,0-78.1-162.43,272.87,272.87,0,0,0-384.49,0,267.84,267.84,0,0,0-78.1,162.43h4C31.66,121.21,145.55,17,283.46,17Z"/><path class="cls-1" d="M238.61,57.42l-32.29,9.72.4,1.31L238.21,59a46,46,0,0,1,1.89,8.15,6.56,6.56,0,0,1-.56,4.14,5.38,5.38,0,0,1-3.09,1.95c-.63.19-1.95.55-4,1.09l-.88-2.54L224.23,74a89.76,89.76,0,0,0,20.78.27L244.13,80a101.25,101.25,0,0,1-20.52-1.62l2.22,7.28-6.43,1.93-2.24-7.37a74.53,74.53,0,0,1-13,11.81l-3.91-4.27a78.81,78.81,0,0,0,13.11-10.27l-13.32,4-1.49-4.9,16.05-4.83-.42-1.36L201.6,74.17l-7.15-23.48,11-3.32a31,31,0,0,0,.22-3.84l6.54-1.72c-.05,1.38-.13,2.58-.24,3.59l15.82-4.76,4,13.12-27.08,8.15.41,1.36,32.29-9.72Zm-36.15-3,20.84-6.27-.44-1.45L202,53Zm.87,2.85.45,1.49,20.84-6.27L224.16,51Zm29.09,11.78c.78-.24,1.22-.58,1.3-1a11.09,11.09,0,0,0-.54-3.38L220.6,68.45,221,69.8l10.66-3.2Z"/><path class="cls-1" d="M267.47,54.86l0-2.64,8.28.06-.14-1.42-5.05,0-5,0,0-2.54L261.88,47a23.76,23.76,0,0,0,3.73-7.83l1.57.15v-.92l-4.41,0,0-3.61,4.41,0,0-2.44,5.78,0V34.8l3.77,0,0-2.44,5.74,0,0,2.44,4.12,0,0,3.17a25,25,0,0,0,3.27-5.93l5.64.43a23.12,23.12,0,0,1-1.35,3.31l13.44.09,0,4.24-2.85,0a17.78,17.78,0,0,1-4.4,6.51,39.35,39.35,0,0,0,7.48,2l-1.45,4.77c-1-.2-2.24-.49-3.67-.85l0,2.48ZM263,59.75l0-3.9,44,.3,0,3.9Zm11.16,16.66v1.17l-6.87,0,.07-9.17,35.2.24-.06,9.17-6.87,0V76.56Zm-6-9.16,0-2.63,33.63.23,0,2.63Zm0-3.76,0-2.63,33.64.23,0,2.63Zm10.3-14.85c.43,0,.71-.26.84-.8s.39-2.12.77-4.75L270,43c0,.1-.09.25-.17.46a4.89,4.89,0,0,0-.18.47l8.87,0ZM270.6,48l3.53,0,0-1.85-3.53,0ZM273,39.92l3.78,0V38.43l-3.78,0Zm22.72,33.27V71.53l-21.47-.14v1.66Zm-10.86-24a5,5,0,0,1-1.1,2.26,3.17,3.17,0,0,1-1.82.89l4.32,0ZM285,40c.37-.42.78-.92,1.24-1.5l-3.77,0V40Zm6.24,6.58a16.68,16.68,0,0,1-2.39-3.09c-.36.39-.92.95-1.67,1.7l-1.66-1.14c-.21,2.18-.37,3.56-.47,4.15A31.56,31.56,0,0,0,291.26,46.58Zm4.34,3.25a40.51,40.51,0,0,1-7.77,2.53l14.27.1A36.57,36.57,0,0,1,295.6,49.83Zm.23-5.76a11.19,11.19,0,0,0,3-3.93l-7.21,0c-.39.55-.84,1.14-1.33,1.75l2.9-1A13.25,13.25,0,0,0,295.83,44.07Z"/><path class="cls-1" d="M344.05,77.32l-1.88,7.73-5.48-1.32L338.56,76,334,74.92l-1.93,8-5.63-1.34,4.65-19.21a45,45,0,0,1-9.06,17.85l-2.68-5.61-1.27,5.27-5.91-1.42,4.61-19.06a23.47,23.47,0,0,1-3.5,3l.38-8q7.35-6.37,13-18.22l5.72,2.42a54.27,54.27,0,0,1-7.34,12.65l-5.2,21.48A44.78,44.78,0,0,0,323.74,65a92.07,92.07,0,0,0,3.17-10.85l1.35-5.55,33.46,8-1.13,4.7-27.46-6.58-.44,1.81,26.17,6.26L354.21,82q-1,4.14-1.95,4.81c-.63.45-2.16.38-4.61-.2-1.24-.3-2.53-.66-3.88-1.08l.9-5,1.28.33,1.08.31.48.13c.25.06.42.05.51,0a3.26,3.26,0,0,0,.36-1l.43-1.8Zm13.56-30.47,5.68,1.36L362.12,53l-5.68-1.35-.63,2.61-6.24-1.5.63-2.61-7.48-1.79L342.09,51,336,49.55l.63-2.61-6.05-1.45,1.17-4.84,6,1.45.82-3.36,6.1,1.46-.81,3.36,7.48,1.79.81-3.36,6.25,1.49ZM340.11,69.6l-4.53-1.08-.65,2.7,4.53,1.08Zm.91-3.75.64-2.65-4.53-1.09-.64,2.66Zm4.57,5.06-.65,2.71,4.77,1.14.65-2.71Zm.91-3.74,4.77,1.14.64-2.66-4.77-1.14Z"/><ellipse class="cls-4" cx="283.46" cy="283.46" rx="199.42" ry="198.39"/><path class="cls-2" d="M323.93,234.3c-4.19,4.69-6.22,10.62-9.32,16,.31.08.68.31.88.21,8.27-4.06,17.82-3.34,26.19-7,11.49-5,22.74-10.65,31-20.24,5.05-5.85,8.67-12.92,13.05-19.37a33.54,33.54,0,0,1,12.68-11.25c1.21-.61,2.57-1.48,3.77-.47s.58,2.59-.06,3.79c-3,5.7-6,11.46-9.28,17-8.34,14.06-13.46,29.29-17.05,45.1-1.7,7.5-3.29,15-2.88,22.76a24.89,24.89,0,0,0,.14,2.74c.56,3.65,1.54,4.09,4.81,2.5,2.8-1.37,4.61-3.67,6.36-6.13,4.39-6.16,8.87-12.26,13.32-18.37.59-.81,1-1.85,2.35-1.85.61,2-.85,3.48-1.3,5.18-4.36,16.53-6.94,33.35-8.88,50.31-1.25,10.87-4.07,21.36-9.79,30.89-4.15,6.92-9.44,12.95-16.63,16.54-11.52,5.74-21.66,4.36-30.39-6.14-3.15-3.79-6-7.8-9.24-12a19.09,19.09,0,0,1-13.1,6.52c-2.95.28-5.52,0-7.91-2.25-3.68-3.51-9.58-2-12.47,3.06a17,17,0,0,0-2.56,7,3.15,3.15,0,0,1-.54,1.91c-2.66,2.59-5.84,1.62-8.79.85-2.43-.64-4.21-2.07-4-5.17.22-3.62-.51-7.15-3.68-9.5-3.87-2.87-7.46-2.67-12.61,1.42-6.05,4.82-11.87,5.78-18.87,1.07-1.18-.79-1.68-.88-2.19.53-2.75,7.74-8.1,13.08-15.27,17-3.79,2.07-7.7,3.62-11.94,3.39a29.06,29.06,0,0,1-18.51-7.34c-10.15-9.16-15.46-20.91-18.5-33.83-3.57-15.15-6-30.53-9-45.81-1.56-8.17-1.66-16.53-3.54-24.71a35.13,35.13,0,0,1,5.87,9.12,59,59,0,0,0,11.46,16.64,9.58,9.58,0,0,0,5.95,3.16c5,.58,7.75-1.23,8.41-6.16a40.6,40.6,0,0,0-1.18-17,262.84,262.84,0,0,0-30.19-65.58c-.49-.76-.92-1.55-1.37-2.33-.75-1.28-2-2.83-.61-4s2.8.16,4,.89c5.66,3.35,9.54,8.5,13.27,13.66,5,7,9.86,14.14,15.72,20.37s13.75,9.85,22.32,12.21c9.41,2.58,19.13,3.64,28.74,6.68-1.44-4.14-4.59-7-6.45-10.52,3,.78,6.07,1.36,9,2.39,5.29,1.88,10.69,3.88,14.9,7.6,2.48,2.18,3.35,1.21,4.24-.77a35.74,35.74,0,0,0,2.61-10.6,29.39,29.39,0,0,0,21.17,3.84,14.14,14.14,0,0,0,6.29-2.63c1.18,3.52,1.49,7.38,4.37,10.24,1,1,1.58,1.2,2.84.36A127,127,0,0,1,323.93,234.3ZM287,344.78c2.6.27,3.73-2.27,5.81-3,2.5-.9,4.81-2.63,7.18.54.84,1.13,2.74.77,4-.29,3.31.95,6.83-.76,9-4.47,2.72-4.69,3.14-9.74,2.14-15-.7-3.61-2.6-6.59-6.18-7.62-3.75-1.06-7.79-1.78-10.71,2.14-1.26,1.69-1.85.61-2.25-.62a4.86,4.86,0,0,1,.52-3.66A10.57,10.57,0,0,1,311,308.32,28,28,0,0,1,322.77,321c3.59,7.53,6.74,15.27,12,22,5,6.42,13,10.07,19.5,8.21a32.8,32.8,0,0,0,21.49-18.47A100.59,100.59,0,0,0,384,306.19c.84-5.22,2.09-10.38,3.22-15.9-1.79.76-2.46,2-3.41,2.95-2.92,2.92-5.75,6.12-9.87,7.29-9,2.56-18.05,2-23.31-9.35-.84-1.82-2-2.76-4-2.58-9.65.89-19.33.26-29,.49-7,.17-12.83,1.66-15.63,8.86a3.18,3.18,0,0,1-.56.86c-.75.87-1.54,1.95-2.8,1.66s-1.89-1.55-2.07-2.89c-.48-3.63-.84-7.26-1.11-10.91-.24-3.26.73-7.25-2.94-9.31-6.78-3.82-13.86-5.14-20.94-.78-3.42,2.11-5.8,5-5.88,9.46a94.39,94.39,0,0,1-1.21,10.55c-.17,1.31.05,3-1.58,3.49s-2.5-.89-3.53-1.77a65.9,65.9,0,0,1-5.94-5.23c-2.42-2.65-5.33-2.89-8.68-3.05-9.4-.45-18.92.41-28.15-2.12-1.9-.52-2.66,0-3.17,1.76a10.53,10.53,0,0,1-3.92,5.08c-6,4.83-12.94,5.43-20.23,5s-12.93-3.55-16-10.48c-.35-.79-.71-1.9-2-2a7.94,7.94,0,0,0,.62,4.45c1.41,4.11,2.87,8.21,4.3,12.31,4.46,12.76,8.83,25.54,16.65,36.81,3.09,4.45,6.66,8.18,12,9.88,3.24,1,6.52,1.71,9.6-.39a70.8,70.8,0,0,0,8.38-6.59c5.88-5.41,9.6-12.14,13-19.18,2.09-4.29,4.11-8.71,7.84-12,5.54-4.93,13.53-4.78,16.93.48.72,1.12,2,2.44,1.2,3.72s-2.27-.06-3.44-.16a11,11,0,0,0-6.66,1.25c-4.69,2.68-6.86,6.88-7.55,12a10.73,10.73,0,0,0,4,10.35c3.4,2.85,6.74,2.25,10.17.23,1.6,1.77,3.25,2.23,4.6-.15a1.67,1.67,0,0,1,2.24-.9c3.16,1.16,6.71,1.54,9.17,4.22C278.27,346.93,282,347.27,287,344.78ZM189.56,231.54c2.45,11.51,4.57,23.07,10.15,33.58a31.37,31.37,0,0,0,19,15.8c6.81,2.19,13.84,1.72,20.74,2.68,5.9.82,12.37-.22,16.93,5.11.59.69,1,2.24,2.21,1.7,1-.44.72-1.86.66-2.8-1.07-18.48-9.67-32.53-29.9-36.4a215.9,215.9,0,0,1-21-5.18C200.34,243.65,194.84,237.78,189.56,231.54Zm111,60c1.38-.54,1.59-1.52,2-2.28,3.34-6.55,8.39-9.79,16-9.42a141,141,0,0,0,20.65-.26c10.09-1,18.07-4.82,22.92-14s7.28-18.9,9.55-28.8a1.42,1.42,0,0,0-.95-1.91,26.49,26.49,0,0,1-12.12,10.9,96.34,96.34,0,0,1-30.53,7.66c-10.09.85-18.05,5.83-22.37,15A57.78,57.78,0,0,0,300.56,291.5Zm-34.93-29.22c10.45-5.42,20.44-5.27,30.4-.6,1.7-8.66.71-10.25-7.3-11.66a43.3,43.3,0,0,0-18.13.73c-2.19.55-4.93,1.14-5,4.38C265.61,257.28,265.63,259.43,265.63,262.28Z"/><path class="cls-2" d="M266.91,234.47a35.74,35.74,0,0,1-2.61,10.6c-.89,2-1.76,3-4.24.77-4.21-3.72-9.61-5.72-14.9-7.6-2.91-1-6-1.61-9-2.39-11.58-4.14-21.74-10.88-31.9-17.51-8.57-5.59-12.21-14.59-14.93-24-2.61-9-1.89-18.14-.92-27.26.43-4.09,1-8.17,1.61-12.24.3-2,.36-4.09,2.36-6,1.37,3.9,1.28,7.67,1.51,11.27.44,7,1.9,13.8,3.34,20.61,1.31,6.17,5.64,10.41,10,14.5A73.83,73.83,0,0,0,223.5,206.6c6.12,3.78,12.22,7.58,19,10.19,5.87,2.59,11.73,5,18.38,5,4.72,0,5.15.78,5.53,5.49C266.57,229.69,266.74,232.08,266.91,234.47Z"/><path class="cls-2" d="M323.93,234.3a127,127,0,0,0-22.35,12c-1.26.84-1.83.64-2.84-.36-2.88-2.86-3.19-6.72-4.37-10.24-.05-2.74,0-5.47-.18-8.2-.18-3.17,1.57-4.23,4.38-4.35A62.26,62.26,0,0,0,316,219.74a8.21,8.21,0,0,0,3-1.55,7.14,7.14,0,0,0,2-.16c7.41-2.94,14.65-6.2,21.07-11,9.6-8.33,18.26-17.18,21.41-30.21,2.13-8.84,4.68-17.58,6.25-27.19,2.87,3.06,2.94,6.5,3.28,9.6a115.68,115.68,0,0,1-2.29,40.15c-2.37,9.82-9.34,15.78-17.55,20.55A275,275,0,0,1,323.93,234.3Z"/><path class="cls-2" d="M325.29,442.1c-7.62,7.82-17.26,10.34-27.86,11.33-12.82,1.2-25.5,1.1-38.07-1.54-7.71-1.62-15.33-3.74-21.71-8.76-1-.76-2.43-1.55-1.76-2.9.53-1.07,1.87-.05,2.82.08,13.49,1.93,27-5.11,31.67-17.63,1.53-4.14,3.75-8,5.43-12.1a5.5,5.5,0,0,1,5.36-3.5c2.52-.12,3.84,1.75,4.77,3.82,1.72,3.86,3.45,7.72,5.1,11.61,3.78,8.94,11.31,13.43,20,16.43,3.36,1.17,6.7,2.67,10.57,1.84C322.39,440.6,324.39,440.52,325.29,442.1Z"/><path class="cls-2" d="M342.06,207c-6.42,4.83-13.66,8.09-21.07,11a7.14,7.14,0,0,1-2,.16c2.95-7.68,6.77-15,9.27-22.87a244,244,0,0,0,10-48.94c.64-6.26,1.16-12.52,1.76-18.78.08-.84-.4-2.07.84-2.31,1.07-.21,1.48.89,2,1.66a51,51,0,0,1,7.47,27.41c-.05,17.52-1.92,34.73-8,51.3A6.71,6.71,0,0,0,342.06,207Z"/><path class="cls-2" d="M242.47,216.79c-6.75-2.61-12.85-6.41-19-10.19a189.5,189.5,0,0,1-8.16-25.42c-1.36-5.8-3.57-11.55-3.73-17.44-.24-8.48-2-17,.37-25.58A25.74,25.74,0,0,1,217,128c.63-.74,1.21-2,2.39-1.53s.68,1.83.8,2.81c.88,7.26.56,14.62,2,21.86A267,267,0,0,0,240,208.26,33.11,33.11,0,0,1,242.47,216.79Z"/><path class="cls-2" d="M238.39,384.1c.73-2.18,2.25-3.41,4.34-4.49,5.49-2.83,11.45-3.93,17.35-5.34,4.31-1.22,8.3-.31,12.31,1.44a20.64,20.64,0,0,0,15.76.58,32.75,32.75,0,0,1,17.62-1.35,30.79,30.79,0,0,1,11,3.76c2.18,1.17,3.63,2.71,3.91,5.22-.7,1.28-1.1,2.85-3,2.92-1.16,0-2.19-.38-2.41-1.5-.42-2.19-2.21-2.64-3.8-3.54-5-2.82-10.24-2.68-15.6-1.43-9.61,2.44-19.17,1.87-28.7-.51-1.17-.68-2.28-1.58-3.73-1.46-7.37.63-14.21,2.86-20,7.45C240.48,388.12,239.31,387.87,238.39,384.1Z"/><path class="cls-2" d="M238.39,384.1c.92,3.77,2.09,4,5,1.75,5.83-4.59,12.67-6.82,20-7.45,1.45-.12,2.56.78,3.73,1.46-8.06,2.84-15.08,7.36-21.8,12.56-3.69,2.85-7.16,6.52-12.39,6.79-4,.2-6.08-1-7-4.08-1-3.29.13-5.44,3.93-7.28C232.67,386.5,235.55,385.34,238.39,384.1Z"/><path class="cls-2" d="M295.83,380.37c5.36-1.25,10.59-1.39,15.6,1.43,1.59.9,3.38,1.35,3.8,3.54.22,1.12,1.25,1.54,2.41,1.5,1.89-.07,2.29-1.64,3-2.92,3.48,1.32,7.14,2.17,10.23,4.46,2.47,1.82,4,4.27,3.74,7.15s-4.18,4.82-7.78,4.91a3.83,3.83,0,0,1-3.21-1.5A78.87,78.87,0,0,0,303,382.79C300.72,381.54,298.13,381.39,295.83,380.37Z"/><path class="cls-2" d="M301.71,391.26c-2.16,4.87-5.5,6.95-11,7.77a74.81,74.81,0,0,1-19.89-.12c-4.21-.5-7.87-3.35-11-6.4-.39-.38-1-.87-.45-1.41a1.69,1.69,0,0,1,2.18-.25c8.8,5.49,18.55,4.12,28.12,3.67A26.08,26.08,0,0,0,301.71,391.26Z"/><path class="cls-2" d="M305.77,374.94a32.75,32.75,0,0,0-17.62,1.35,20.64,20.64,0,0,1-15.76-.58c-4-1.75-8-2.66-12.31-1.44,1.22-1,2.37-2.15,3.67-3.06,4.14-2.91,6.59-2.77,10.27.46,4,3.52,7.75,4.5,11.55,1.85C292.88,368.42,299.33,370.37,305.77,374.94Z"/><path class="cls-2" d="M258.38,340.43c-.57-4.75.89-6.42,5.64-6a14.38,14.38,0,0,1,10.82,6.32c1,1.43.86,1.94-.45,2.85-2.46-2.68-6-3.06-9.17-4.22a1.67,1.67,0,0,0-2.24.9C261.63,342.66,260,342.2,258.38,340.43Z"/><path class="cls-2" d="M287,344.78c2.37-6.34,7.62-9.66,13.57-8.59,4,.72,4.65,1.75,3.45,5.81-1.29,1.06-3.19,1.42-4,.29-2.37-3.17-4.68-1.44-7.18-.54C290.76,342.51,289.63,345.05,287,344.78Z"/><path class="cls-2" d="M218.56,354.86c-.45-4.57-.8-9.17.27-13.82,3.83,9.8,7.65,13.91,12,18.52a100.56,100.56,0,0,0,20.8,17.36,8.85,8.85,0,0,1,3.95,5.95c1.18,6.35-2.19,12.51-8.24,15.91a11,11,0,0,1-13.47-1.84,40.52,40.52,0,0,1-10.26-17.41A133,133,0,0,1,218.56,354.86Z"/><path class="cls-2" d="M348.52,354.86c.45-4.57.8-9.17-.27-13.82-3.82,9.8-7.65,13.91-12,18.52a100.61,100.61,0,0,1-20.81,17.36,8.81,8.81,0,0,0-3.94,5.95c-1.19,6.35,2.18,12.51,8.23,15.91a11,11,0,0,0,13.47-1.84,40.42,40.42,0,0,0,10.26-17.41A132.2,132.2,0,0,0,348.52,354.86Z"/><path class="cls-1" d="M59.2,391.64,74.82,383a28.46,28.46,0,0,1,7.44-2.78,14.59,14.59,0,0,1,7.32.31,10.25,10.25,0,0,1,5.72,4.54l12.61,22.52-6.86,3.8L89.41,390.59a5.17,5.17,0,0,0-3.28-2.38,7.14,7.14,0,0,0-4,.14,21,21,0,0,0-4,1.86l-15,8.31Zm22.06.93L94,415.29l-6.86,3.81L74.4,396.37Z"/><path class="cls-1" d="M95.15,448.37a25.92,25.92,0,0,1-3.35-5,25.36,25.36,0,0,1-2.06-5.63,15.93,15.93,0,0,1-.28-6,8.62,8.62,0,0,1,2.72-5.2L94.06,425l16.59-14,5.08,6L98.64,431.36a4.42,4.42,0,0,0-1.41,3,9.74,9.74,0,0,0,.37,3.36,15.45,15.45,0,0,0,1.27,3.13,17.13,17.13,0,0,0,1.91,2.78,16.37,16.37,0,0,0,2.45,2.33,15,15,0,0,0,2.89,1.77,10,10,0,0,0,3.27.91,4.4,4.4,0,0,0,3.2-.89l17.08-14.4,5.12,6-16.6,14-1.88,1.58a8.57,8.57,0,0,1-5.61,1.8,16.8,16.8,0,0,1-5.89-1.28,24.81,24.81,0,0,1-5.24-2.95A26.1,26.1,0,0,1,95.15,448.37Z"/><path class="cls-1" d="M145,448.06,123.4,475.24l-6.21-4.88,21.58-27.18Zm-1.09,11.25a58.75,58.75,0,0,1,11.63,2.38l14.56,4.23-5.37,6.78-10.24-3.29q-2.46-.75-4.71-1.36a23.2,23.2,0,0,0-4.35-.78,3.33,3.33,0,0,0-3,.72,3.39,3.39,0,0,0,0,3,23.9,23.9,0,0,0,1.77,4c.75,1.35,1.56,2.77,2.42,4.24l5.92,9.48-5.48,6.91-7.74-13.58a58.36,58.36,0,0,1-5-10.75,8.8,8.8,0,0,1,1.63-8.49A8.94,8.94,0,0,1,143.89,459.31Z"/><path class="cls-1" d="M173.36,509.72a25.76,25.76,0,0,1-5.05-3.32A25.07,25.07,0,0,1,164.2,502a16.11,16.11,0,0,1-2.59-5.39,8.5,8.5,0,0,1,.47-5.84l1.11-2.18L173,469.29l7,3.52L169.91,492.7a4.35,4.35,0,0,0-.13,3.3,10,10,0,0,0,1.65,2.95,15.43,15.43,0,0,0,2.4,2.38,16.45,16.45,0,0,0,2.85,1.83,16.82,16.82,0,0,0,3.17,1.2,15.24,15.24,0,0,0,3.35.5,9.92,9.92,0,0,0,3.37-.43,4.37,4.37,0,0,0,2.59-2.06l10.09-19.89,7.07,3.55-9.8,19.31-1.11,2.19a8.59,8.59,0,0,1-4.47,3.83,16.83,16.83,0,0,1-5.92,1.11,25.59,25.59,0,0,1-11.66-2.75Z"/><path class="cls-1" d="M210.05,523.57l-7.64-2,8-29.62a3.74,3.74,0,0,1,1.9-2.3,4,4,0,0,1,3-.32l2.77.75,7,1.86,14,3.74a4.12,4.12,0,0,1,.67.24l.34.09a12.58,12.58,0,0,1,6,3.55,10.92,10.92,0,0,1,2.63,4.84,9.68,9.68,0,0,1,0,4.67,10.14,10.14,0,0,1-2.3,4.12,10.65,10.65,0,0,1-4.73,2.87,12.69,12.69,0,0,1-7,.05l-10-2.66a7.35,7.35,0,0,0,.74,4.66,4.81,4.81,0,0,0,3.08,2.28l15.4,4.12-2,7.55-16.41-4.4a10.73,10.73,0,0,1-6.71-5.29,14.31,14.31,0,0,1-2-9q.34-5.34.51-6a3.91,3.91,0,0,1,4.82-2.76l14.94,4a4.09,4.09,0,0,0,1.91,0,3.18,3.18,0,0,0,1.31-.68,2.2,2.2,0,0,0,.64-1,2.08,2.08,0,0,0-.05-1.18,3.12,3.12,0,0,0-.79-1.24,3.88,3.88,0,0,0-1.65-1L223,499.45l-4.53-1.22a1.37,1.37,0,0,0-1.86,1.07Z"/><path class="cls-1" d="M286.61,501a8.76,8.76,0,0,1,5.24,2.12,14.59,14.59,0,0,1,3.57,4.49,21,21,0,0,1,1.88,5.4,23.47,23.47,0,0,1,.43,5.74,24.49,24.49,0,0,1-1.57,7.49,16.9,16.9,0,0,1-4.24,6.36,9.82,9.82,0,0,1-7,2.76l-20.43-1a9.74,9.74,0,0,1-6.7-3.36,16.08,16.08,0,0,1-3.58-6.77,25.87,25.87,0,0,1-.78-7.62,25.06,25.06,0,0,1,1.54-7.49,16.85,16.85,0,0,1,4.21-6.39,9.61,9.61,0,0,1,7-2.74l1.11.06,18.21.87Zm-3.27,26.46a5.37,5.37,0,0,0,3.8-1.48,9.08,9.08,0,0,0,2.31-3.48,13.87,13.87,0,0,0,.84-4.1,12.9,12.9,0,0,0-.47-4.14,9.85,9.85,0,0,0-2-3.69,5.24,5.24,0,0,0-3.61-1.86l-16.62-.8a5.24,5.24,0,0,0-3.77,1.52,9.64,9.64,0,0,0-2.31,3.48,12.46,12.46,0,0,0-.87,4.07,13.72,13.72,0,0,0,.44,4.17,8.93,8.93,0,0,0,2,3.68,5.39,5.39,0,0,0,3.64,1.84Z"/><path class="cls-1" d="M328.44,496.81l8.44,33.61-7.68,1.91-8.44-33.61Zm8.28,7.74a59.48,59.48,0,0,1,9-7.71L358,488l2.11,8.38-8.88,6.05q-2.1,1.49-4,2.88a24,24,0,0,0-3.27,2.94,3.29,3.29,0,0,0-1.24,2.78,3.44,3.44,0,0,0,2.4,1.86,23.21,23.21,0,0,0,4.29,1.07c1.53.24,3.15.47,4.85.69l11.16,1.13,2.15,8.54-15.54-2.21a58.79,58.79,0,0,1-11.62-2.61,9.35,9.35,0,0,1-3.72-14.91Z"/><path class="cls-1" d="M372.33,483.22l2.43-1.15,21-9.91,3.37,7.06-21.6,10.2a5.21,5.21,0,0,0-2.61,3.11,9.75,9.75,0,0,0-.39,4.15,13.17,13.17,0,0,0,1.17,4,12.86,12.86,0,0,0,2.38,3.43,9.71,9.71,0,0,0,3.48,2.32,5.23,5.23,0,0,0,4.07,0l21.6-10.21,3.37,7.06-22.4,10.58-1,.47a9.61,9.61,0,0,1-7.46.08,17.31,17.31,0,0,1-6.27-4.3,25.24,25.24,0,0,1-4.27-6.31,24.53,24.53,0,0,1-2.19-7.3,17.43,17.43,0,0,1,.61-7.55A9.43,9.43,0,0,1,372.33,483.22Zm32.19,7.9-21.71,10.25-3.37-7.05,21.71-10.26Z"/><path class="cls-1" d="M415.47,491.17l11.69-8.58L416,467.48l-11.7,8.59-4.66-6.29L429.31,448l4.66,6.29-11.65,8.55,11.21,15.11,11.65-8.55,4.66,6.29-29.71,21.81Z"/><path class="cls-1" d="M473.34,428.91a10.82,10.82,0,0,1,4.26,2.36,10.11,10.11,0,0,1,2.66,4,11,11,0,0,1,.47,5.55,11.71,11.71,0,0,1-3.21,6.16l-.24.25a4,4,0,0,1-.43.56L461,465.11a3.86,3.86,0,0,1-2.64,1.2,3.81,3.81,0,0,1-2.74-.94l-19.86-18a3.86,3.86,0,0,1-.26-5.35l13.57-14.85a4.51,4.51,0,0,1,.51-.47l.24-.26a12.62,12.62,0,0,1,5.92-3.71,11.13,11.13,0,0,1,5.54-.12,9.89,9.89,0,0,1,4.15,2.18,10.16,10.16,0,0,1,2.63,3.88.63.63,0,0,1,.05.21A11,11,0,0,1,473.34,428.91Zm-12.74,4.31a3,3,0,0,0,0-1.42,2.09,2.09,0,0,0-.6-1,2.17,2.17,0,0,0-1.09-.51,3.15,3.15,0,0,0-1.46.13,4,4,0,0,0-1.62,1l-10.64,11.64a1.41,1.41,0,0,0,.06,2.27l2.74,2.47L459.73,435A3.91,3.91,0,0,0,460.6,433.22ZM472,441.48a3.05,3.05,0,0,0,.94-1.64,3.32,3.32,0,0,0-.07-1.52,2.51,2.51,0,0,0-.7-1.1,3,3,0,0,0-1.08-.51,3,3,0,0,0-1.62,0,3.67,3.67,0,0,0-1.63,1l-2.53,2.76-11.51,12.6,3,2.71a1.43,1.43,0,0,0,2.27-.15l.32-.35Z"/><path class="cls-1" d="M485.18,425.47,492.61,413l-16.22-9.6L469,415.87l-6.75-4,18.88-31.58,6.75,4-7.4,12.38,16.22,9.6,7.4-12.38,6.75,4-18.88,31.57Z"/><path class="cls-1" d="M267.56,496.79l.29-6.27,19.37.9-.29,6.27Z"/></g></svg>