<svg enable-background="new 0 0 113.4 113.4" viewBox="0 0 113.4 113.4" xmlns="http://www.w3.org/2000/svg"><circle cx="56.8" cy="56.5" fill="#fff" r="56.2"/><path d="m56.7 0c31.5.2 56.7 25.4 56.7 56.8-.1 31.7-25.7 56.9-57.1 56.6-31.3-.3-56.4-25.8-56.3-57 .1-30.6 24.9-56.3 56.7-56.4zm1.2 112.2c30.9-.8 55.2-26.4 54.2-57.2-.9-30.2-26-54.5-57-53.9-30.1.7-54.5 26.1-54 56.7s26 55 56.8 54.4z" fill="#e30c14"/><path d="m57.9 112.2c-30.8.6-56.3-23.8-56.8-54.4s23.9-56 54.1-56.7c31-.6 56.1 23.6 57 53.9.9 30.8-23.3 56.4-54.3 57.2zm18.2-88.4c-.4-.4-.8-.6-1.3-.7-.2-.1-.3-.2-.5-.3-7.1-3.8-14.7-5.2-22.7-4.1-21.5 3-36 22.4-32.8 43.9 3.1 21.1 23.9 35.8 44.8 31.7 27.2-5.3 40-35.8 24.8-58.9-2.9-4.4-6.6-8.1-11.2-10.9-.2-.3-.6-.5-1.1-.7zm-65.6 39c-.9.7-2.3 0-3.4 1.3 1.8.1 3.2-.6 4.5-.1.6.2.3 1.1 1 1.2.5-.9-.8-1.6-.3-2.4-.6 0-1.2 0-1.8 0 1.6-.9 2-1.7 1.7-3.2-.2-1.2-1.4-2.1-2.7-2.1s-2.5 1-2.6 2.3c-.2 1.4.5 2.5 2.1 2.9-.5-1-1.5-1.5-1.5-2.5.1-1.1.6-1.7 1.8-1.8.1 1.5.2 2.9.4 4.3.3.2.6.1.8.1zm31.7 37.9c.5-.1.3.2.2.4-.2 1-.5 1.9-.8 2.9 2.2 1 3.6 1.2 3.9.5-1-.3-2-.6-3-.9.3-.9.5-1.6.7-2.4 1.1.3 2.1.5 3 .8.1-.2.1-.3.2-.5-.8-.8-2.2-.5-3-1.2.2-.6.3-1.1.5-1.7 1.1-.1 2.1.7 3.2.4-1-1-2.4-1-3.7-1.5-.2.9-.4 1.7-.7 2.4 0 .2.3.9-.5.8.7-2.8-.5-4.3-4.2-5.2-.8 2.1-1.7 4.1-2.5 6.2 3.9 2 5.4 1.7 6.7-1zm42.4-8c-.5.4-.6-.2-.9-.3-1.6-.9-3.6-.6-4.7.7s-1.2 3.3-.1 4.7c1.1 1.3 3 1.7 4.6.9 1.6-.9 2.3-2.6 1.7-4.4-.1-.3-.5-.5-.1-.9.9.7 1.2 1.8 2 2.6.3-.1.4-.2.5-.5-.8-1.2-1.6-2.4-2.6-3.8 1.9.7 3.4 1.3 5.1 1.9-.5-1.8-.9-3.4-1.4-5.2 1.4 1.1 2.5 2.1 3.6 3 .3-.2.6-.4.4-.5-1.7-1.5-3.4-2.9-5.1-4.4-.1.1-.1.1-.2.2.5 1.9 1 3.7 1.6 5.7-2-.8-3.8-1.5-5.7-2.2.3 1.1 1.1 1.6 1.3 2.5zm-64.8-11.9c.1-4.1-1.3-5.7-4.8-5.5-.3-.9-.7-1.8-1.1-2.8.7-.3 1.2-.5 1.9-.7.4 1 .8 2 1.3 3 .6-.7.2-2.1-.9-3.9-.3-.1-.5.3-.8 0 .6-1.6.2-3-.5-4.5-2 .6-3.9 1.1-5.8 1.6-.5.1-.8.3-.5.9 1 0 1.9-.7 3-.6-.4 1.6-2.3 2.3-2.1 4.4.9-1.2 1.6-2.2 2.5-3.3.4 1.7 1.6 1.8 2.9 1.7-1.5 1-3.4 1.3-5 2.3.6 1.2.8 2.5 1.8 3.5.3-1.2-.6-2.1-.7-3.2.7-.3 1.5-.6 2.3-.9.4 1 .8 1.9 1.1 2.8-1.5 1.2-2.2 2.6-1.6 4.5.7 2.2 1.9 2.8 4.9 2.4-.4.7-1.1.9-1.7 1.4-.4.3-.7.5-.1 1 1.9-1.3 3.7-2.5 5.6-3.8-.2-.5-.4-.7-.8-.4-.3.2-.6.6-.9.1zm74.3 5.7c-1.8-.4-3.7-.7-5.8-1.2 1.8 1.9 3.3 3.5 5.1 5.4.4-1.3-.6-1.6-1.1-2.1-.5-.7-1.1-1.2-1.8-2 1.9.4 3.5.7 5.3 1.1-.7-1.6-1.4-3-2-4.4.1-.1.2-.1.2-.2 1.2.7 2.4 1.3 3.8 2.1 0-.8.6-1 .8-1.6-.5-.7-.9-1.4-1.4-2.1.5-.9 1-1.7 1.4-2.3 1-.4 2.1.4 3.1-.7-2.8-.2-5.2-.4-8-.7 1.5 2.2 2.9 4.2 4.3 6.2-.1.1-.1.1-.2.2-1.9-1.1-3.7-2.1-5.9-3.4.9 2 1.7 3.7 2.5 5.4-.2.2-.3.2-.3.3zm-66.8 5.9c-.7.9-1.5 1.9-2.2 2.8.2.3.4.5.7.5.9-1.2 1.8-2.4 2.9-3.9.2 2.4.4 4.5.6 7 1.4-1.9 2.6-3.5 3.8-5.2.4.2.7.5 1.1.7-1 1.8-2 3.5-3.1 5.3.3.1.5.2.7.3 1-1.7 2-3.5 3-5.1.6-.2 1.2.9 1.8-.1-1.3-.8-2.5-1.5-3.7-2.2-1 1.3-1.9 2.6-3 4.1-.2-2.1-.3-3.9-.5-5.7 0-.5 0-1-.4-1.4-.9-.8-1.7-1.6-2.7-2.4-1.6 1.7-3.1 3.4-4.7 5.1 1 .9 2 1.8 2.9 2.7.3-1.5-1.3-1.7-1.7-2.8.5-.6 1.1-1.1 1.6-1.7 1.1.5 1.7 1.6 2.9 2zm77.6-33.9c-.4.5-.7-.1-1-.2-1.8-.6-3.6.1-4.5 1.6-.9 1.6-.5 3.5.9 4.7.2.2.6.2.6.6-3.4.5-2.9 3.6-3.9 5.8 1.5.6 2.9 1.2 4.6 2-2.3.8-4.4 1.5-6.7 2.3 2.2.9 4.1 1.7 6 2.5.5.2.8.1.7-.6-1.4-.6-2.8-1.2-4.5-1.9 2.3-.8 4.3-1.5 6.6-2.3-2-.8-3.7-1.6-5.4-2.3 0-.1.1-.2.1-.3 1.8.5 3.6.9 5.4 1.4 1.3-3.7 1.2-4.6-1.1-6.4 1.6-.2 2.7-1 3.2-2.4.5-1.5.2-2.8-1-3.9 0-.2-.4-.3 0-.6.2-.1.3-.2.5-.3.8-.5 1.2-1.2 1.1-2.1-.1-.8-.5-1.4-1.2-1.6-.9-.3-1.7 0-2.3.7-.3.4-.6.7-.9 1.1s-.6.8-1.2.9c-.4 0-.8-.2-.9-.6-.1-.8.4-1.1.7-1.6-.2-.2-.3-.5-.6-.4-.8.4-1.2 1.7-.7 2.5s1.6 1.1 2.4.5c.5-.4.8-.9 1.2-1.3.5-.6.9-1.1 1.7-1.2 1.3.8 1.3 1.3 0 2.6.1.4.1.6.2.8zm-88.6-18c1.3-1.6 3.1-2.4 3.9-4.3-1.3.1-1.8 1.3-2.9 1.8.3-1.2 1.2-2.2.4-3.3-1.6-.9-2.2-.9-3 .4-.8 1.5-1.5 3.1-2.3 4.7 1.7 1.1 3.4 1.7 5 2.5.5-1 .5-1-1.1-1.8zm52.8-23.5c1.7.7 3.1 1.4 4.6 1.9.9.3 1.9.5 2.4-.6.5-1 .9-2.1 1.4-3.2-1.6-2-4.1-2.2-6.2-3.4-.9 1.7-1.6 3.4-2.2 5.3zm-47.1 65.2c-.1-.1-.1-.1-.2-.2-1.9 1.2-3.8 2.4-5.7 3.6 0 .1.1.3.1.4.8.3 1.3-.5 2-.9s1.4-.8 2.4-1.4c-.8 1.8-1.4 3.3-2.1 5 1.8-.4 3.4-.8 5.3-1.2-.8.9-1.4 1.5-1.9 2.1-1.2 1.3-1.2 1.3-.6 1.9 1.5-1.7 3-3.3 4.5-5 0-.1-.1-.1-.1-.2-1.9.5-3.8.9-5.8 1.4.6-1.9 1.3-3.7 2.1-5.5zm-12-34c1.8.5 3.4.9 5 1.3.5.1.8-.2.8-.7-.4-.6-1.3-.3-1.8-.9.1-.5.3-1.1.4-1.7s.3-1.1.4-1.7c.5-2.1-.1-2.8-2.5-2.8-1.6 1.7-1.4 4.2-2.3 6.5zm84.7-14.3c.1-.1.2-.2.4-.3-1-1.4-1.9-2.8-2.9-4.2.2-.3.5-.6.8-.6 1.2.1 1.1 1.8 2.4 1.6-.5-2.5-2.2-3.2-4.1-1.9-.3.2-.6.5-.9.6-1.1.6-1.2 1.6-.6 2.6.7 1.2 1.6 2.4 2.4 3.6.1.2.4.2.7 0-.2-1.8-2.1-2.8-2.5-4.6.2-.4.5-.6 1-.7.5.7.9 1.4 1.5 2.1s.7 1.8 1.8 1.8zm-70.5-3.7c-1.9.6-2.1 2.8-3.7 3.7-.4-.1-.7-.3-.9-.7.5-.7 1.1-1.4 1.5-2.2.4-.7 1.3-1.2 1-2.6-1.6 1.2-2.2 3-3.4 4.2-.4-.2-.7-.3-.9-.7 0-.6.3-1 .6-1.4s.8-.9-.1-1.3c-.8 1-1.7 1.9-1.4 3.4.8.9 1.8 1.4 2.7 2 .5.3 1 .3 1.4 0 1.5-1 2.4-2.6 3.2-4.4zm16-17.6c-1 .2-1.8.5-2.5 1-.5.4-.8.9-.6 1.5.3 1 .7 1.9 1.1 2.8.2.4.6.7 1.1.7 1.9-.1 3.5-1.1 5.2-2-1.9-.6-3.3 1.2-5.2 1-.2-.3-.5-.6-.3-1 1.5-.8 3.3-1.1 4.7-2.3-1.9-.3-3.4 1-5.2 1.3-.2-.4-.5-.7-.3-1.1.3-.9 2-.4 2-1.9zm-15.4 15.6c-1.3-.9-2.1-2.2-3.4-3-.5 1 1.1 3.1 3.3 4.1 1.6-.6 2.8-2 3.9-3.4.7-.9.6-1.8-.3-2.6-.7-.6-1.3-1.2-1.9-1.9-.4-.4-.8-.5-1.3.1.8 1.3 2.1 2.1 3 3.3-.9 1.5-1.9 2.6-3.3 3.4zm36.8-13.2c-1.2-1.8-2.3-3.4-3.4-5-.3-.4-.7-.6-1.4-.4-1.1 1.7-2.3 3.5-3.6 5.3 1.4.5 1.3-.9 2.1-1.2h3.9c.9.5.8 2.1 2.4 1.3zm5.8.4c-1.6 0-3.1-.2-4.4-.9-.2-1.6 1-3.1.3-4.6-.5.1-.8.2-.9.6-.2 1.2-.5 2.4-.7 3.6-.1.7.3 1.1.9 1.4 1.4.6 3 1 4.5.9.7 0 1.4-.3 1.5-1.1.3-1.1.5-2.2.7-3.3.1-.5 0-.9-.8-.9-.6 1.3-.4 2.8-1.1 4.3zm-34.6.6c-1.6.9-1.1 2.6-1.8 3.6-1.3.4-2.7-.8-4.1.6 1.4.5 2.6.3 3.7.7 0 1.2-.8 2.4-.6 4 1.6-1 1.1-2.9 2-3.9 3.4.4 3.4.4 3.8-.5-1.1-.5-2.5-.2-3.6-.6 0-1.5.7-2.5.6-3.9zm45.3 3.4c1.2.7 2.3 1.5 3.5 2.3.1.7.1 1.3.2 1.9.3.3.6.4 1 0-.3-2.2 0-4.5-.6-6.7-1.8.1-6 2.2-6.3 3 .8.4 1.4-.4 2.2-.5zm25 29c-.1-1.9-2-2-2.7-3 0-1.4 1.7-2.3.8-4.1-.9 1.1-1.2 2.3-1.8 3.3-1.2-.5-2-1.6-3.5-2 .4 1.9 2.2 2 2.9 3.1-.1 1.3-1.7 2.3-1.1 3.8.2 0 .3.1.5.1.6-1.1 1.1-2.2 1.7-3.3 1 .7 1.9 1.6 3.2 2.1zm-4.8-13.9c-.4-.8-.8-.7-1.3-.5-.9.4-1.7.8-2.6 1.2-1 .4-1.3 1.2-1 2.1.4 1.2.8 2.3 1.5 3.3.8 1.3 1.4 1.4 2.9.8.7-.3 1.4-.7 2.2-1 .4-.2.8-.4.7-1.1-1.7-.3-2.8 1.2-4.4 1.4-1-1.2-1.7-2.5-1.9-4.1 1.3-.9 2.8-1.2 3.9-2.1zm-19.4 64.8c-.1.3-.2.4-.3.5-.9 1.6-2.5 2.2-3.9 1.6-1.3-.5-2.1-2.1-1.7-3.4.5-1.6 1.9-2.4 3.8-2 .4.1.8.2.8-.4-1.3-.8-2.6-.8-4 .2-1.7 1.3-1.9 2.9-1.2 4.7-.6.8-1.9.3-2.3 1.7 1.1-.4 2-.6 2.8-.9 1.7 1.9 4.1 1.4 5.5.1 1-.8 1.1-1.4.5-2.1zm11.8-74.5c.4-.6.1-.8-.2-1.1-.9-.8-1.7-1.6-2.6-2.4-1.1-1-1.9-.9-2.9.2-.4.4-.8.9-1.2 1.3-.7.7-.7 1.6-.1 2.3 1 1.1 2.1 2.1 3.2 3.1.2.2.5.2.8-.1-.7-1.7-2.8-2.3-3.4-4.1.8-.8 1.5-1.6 2.3-2.4 1.5.7 2.4 2.6 4.1 3.2zm-26.6 81.2c.1-.1.1-.2.2-.3-.8-.9-1.6-1.8-2.5-2.7 1.7-.6 2.2-1.2 1.9-2.4-.2-1-1-1.5-2.6-1.3-.6.1-1.2 0-1.9.3.2 2.2.5 4.5.7 6.7.2 0 .4 0 .5.1.5-1-.2-2.1 0-3.2 1.6.6 2.1 2.5 3.7 2.8zm2.1-2.8c.8-.2 1.6-.4 2.5-.6 1.7 1.8 1.7 1.8 2.4 1.6-1.6-2-3.1-4-4.8-6.1-.6 2.7-1.1 5.2-1.7 7.8 1.5-.5.9-1.9 1.6-2.7zm-8.6 1c1.1 2.2 1.1 2.2 1.9 2.1-1-2.3-2-4.5-3.2-7-1.2 2.5-2.3 4.7-3.4 6.9.1.1.2.2.4.3 1-.3.9-1.6 1.6-2.3zm-8.1-1.4c.8 0 1.4.1 2.1.1 1-.1 1.6-.5 1.7-1.5s-.3-1.7-1.3-2c-.9-.2-1.8-.3-2.7-.3-.3 2.1-.5 4.1-.8 6.2-.1.5.1.7.7.6-.1-1.1.1-2.1.3-3.1zm-1.2-86.6c-.1-1.8-.7-3.2-.8-4.8 2.2-.7 2.2-.7 2.3-1.5-2.1.5-4.2.7-6.3 1.5 1 1.2 2 0 2.9.4.2.8.3 1.6.6 2.4.2.7-.2 1.8 1.3 2zm-34.4 39.6c-.2-.6.3-1.3-.6-1.6-.2.2 0 .6-.4.8-2 0-4 0-6 0 .3.7 2.9 1 7 .8zm73.8-26.7c.5.8.9.6 1.4.3 2.9-2.3 3.4-2.8 3-3.9-1.6 1.1-3 2.4-4.4 3.6z" fill="#151413"/><path d="m77.3 24.6c4.6 2.7 8.3 6.4 11.2 10.9 15.2 23.2 2.3 53.6-24.8 58.9-21 4.1-41.8-10.6-44.9-31.7-3.2-21.5 11.2-40.9 32.8-43.9 8-1.1 15.6.2 22.7 4.1-.1.1-.1.1-.2.2-.2 0-.4 0-.5-.1-3.5-1.8-7.3-2.9-11.2-3.4-2.4-.3-4.8-.5-7.4-.3 2.7 6.9 3 13.6-1.2 20 .4.3.8.3 1 .2 1.9-.8 3.3-2.3 4.9-3.8.3 1.6-.7 2.9-.4 4.4.9-.1 1.4-.7 2-1.2l.2.2c.2.8-.6 1.6-.2 2.4.5.2.7-.4 1.2-.3.1.9-.5 1.8-.2 2.8-.8.1-.7.8-1 1.3-1.6.2-2.8 1-3.2 2.6-1.7-.5-3.5.1-4.1 1.2-2-.9-3.6-.4-4.9 1.3-2.5-1.1-3.6-1-4.7.7-1.7-1.1-4.4-1.7-5.6 0-2.7-2.1-4.4-2.4-5.9-.8-2.1-2.2-4.9-1.6-6.9-.2-1.7 1.2-2 3.3-.9 5.6-3.2 3.3-4 6.3-2.4 9.5.7 1.4 1.7 2.7 3.5 3 .1-1-.4-1.7-.6-2.5-.7-3.6.3-6.1 4.3-7 1-.2 1.8-.2 2.5.5 1.7 1.5 4.6 1.2 5.7-1.2 1.9 1.2 3.3 1.1 4.6-.5.6.2 1.1.3 1.7.5.5-.3 1.2-.3 1.5-1 1.6.5 3.2 1.1 4.6-.5 1 .2 1.7-.3 2-1.3.5.2 1 .3 1.4.4-1.4.5-2.4 1.4-2.6 3-2.4-.6-4.4-.4-4.9 2.4-2.4-.5-3.9.7-4.3 3.2-5.3.5-7.6 4-5.5 8.3-2.1 2.2-3.1 4.7-1.6 7.6 1.6 3.1 4.6 3.3 7.6 3.4.5-1-.4-1.2-.8-1.5-3.1-2.7-2.8-6.4.7-8.4 4.3 1.6 6.6.4 6.1-3.2 2.4-.3 2.7-.7 3.4-4.1 2-.2 3-1.5 2.8-3.6.4 0 .8-.1 1.2-.1.9-.7 1-1.7 1.3-2.7 1.7-.2 1.9-1.7 2.5-2.9.3.2.6.3.9.4-1 1.1-.7 2.4-.8 3.7-2 1.2-2.2 3-1.6 5-1.4.8-2 3.5-.9 5.8-1.5 1.1-2.8 2.4-2.1 4.6.6 1.8 1.9 2.6 3.8 2.7.1 3.5.2 7.1 4.5 8.2 1.4.4 3.9-.3 4.4-1.1-4-2.2-5.4-4.8-4.1-7.6 4.1.4 5.9-4.2 3.5-7.3.8-1.6.9-3.2-.4-4.6.9-1.7.6-3.2-.3-4.7.5-.9.7-1.8.9-2.8.9.5 1.9.5 2.8.5.3.6.6 1.1.8 1.6.4.2.8.3 1.2.4.4-.1.7-.4 1.2-.2 1.5 1.8 3.3 1.4 5.2.8 1.6 2.2 4.6 2.2 7.3 0 1 3.5-1.3 5.1-3.8 6.5.2.8.3.9.8 1 2.5.8 5.4-.1 6.8-2.1 2.1-2.9 2.1-5.3.3-7.9-.6-.9-1.7-1.4-2.1-2.6-.9-2.3-3.6-3.9-5.9-1.4-.7-.9-1.8-1.2-2.8-1.5-.5.4-1.3.2-1.8.8-1.4-.9-2.9-1.4-4.5-.7-.7-1.1-1.7-1.3-2.9-1.4 0-.7-.3-1.3-.5-1.8-.4-.2-.9-.4-1.6-.7 1.5-.8 2.6-1.7 3.5-2.9.4 1.4-.4 2.6-.4 3.9 1.1.3 1.7-.5 2.4-1s .9-1.5 1.6-2c .4 1.6-.7 3-.7 4.8 2.6-.9 3.8-2.8 4.9-4.9.4.8.4 1.5.5 2.4 1.8-.7 2.2-2.3 2.8-3.6 4 3.9 6.9 5.1 8.8 3.6-.6-1-1.2-2.1-1.9-3.1-2.1-3.4-2.8-6.9-1.4-10.7.3-.8.1-1.5-.4-2.2-2.9-4.1-6.5-7.4-10.7-10.2.1 0 .1 0 .2-.1z" fill="#e30c14"/><g fill="#f5f5f5"><path d="m104.8 58.5c-.3.3 0 .4.2.6 1.2 1.1 1.5 2.5 1 3.9-.5 1.5-1.6 2.3-3.2 2.4 2.3 1.8 2.5 2.7 1.1 6.4-1.8-.5-3.6-.9-5.4-1.4 0 .1-.1.2-.1.3 1.7.7 3.4 1.5 5.4 2.3-2.3.8-4.3 1.5-6.6 2.3 1.6.7 3.1 1.3 4.5 1.9.1.7-.1.8-.7.6-1.9-.8-3.9-1.6-6-2.5 2.3-.8 4.3-1.5 6.7-2.3-1.7-.7-3.2-1.3-4.6-2 1-2.2.5-5.3 3.9-5.8 0-.4-.4-.4-.6-.6-1.4-1.2-1.8-3-.9-4.7.9-1.6 2.7-2.2 4.5-1.6.2.2.5.7.8.2zm-2.4 6.1c1.7.1 3-1.1 3-2.7s-1.1-2.8-2.7-2.9-3 1.1-3 2.7 1.2 2.9 2.7 2.9zm1.1 6.4c.4-1.4 1.1-2.7 0-4-.8-.9-1.9-1.2-3-.8-1.6.5-1.8 2-2.2 3.4 1.7.5 3.4.9 5.2 1.4z"/><path d="m27.3 92.4c-1.2-.4-1.8-1.5-2.8-2.1-.5.6-1.1 1.1-1.6 1.7.4 1.1 2 1.3 1.7 2.8-.9-.9-1.9-1.7-2.9-2.7 1.6-1.7 3.1-3.4 4.7-5.1.9.8 1.8 1.6 2.7 2.4.4.4.4.9.4 1.4.1 1.8.3 3.6.5 5.7 1.1-1.5 2.1-2.8 3-4.1 1.2.7 2.4 1.4 3.7 2.2-.6 1-1.2-.1-1.8.1-1 1.6-2 3.3-3 5.1-.2-.1-.4-.2-.7-.3 1-1.8 2.1-3.5 3.1-5.3-.4-.2-.7-.4-1.1-.7-1.2 1.7-2.4 3.3-3.8 5.2-.2-2.4-.4-4.5-.6-7-1.1 1.5-2 2.7-2.9 3.9-.3 0-.5-.1-.7-.5.6-.9 1.4-1.8 2.1-2.7.5-.7.9-1.4 1.4-2.2-.8-.7-1.5-1.4-2.3-2.1-.5.5-.9 1-1.3 1.5l1.3 1.3c.5.3.9.8.9 1.5z"/><path d="m93.7 83.2c.6 1.4 1.3 2.8 2 4.4-1.8-.4-3.4-.7-5.3-1.1.7.8 1.3 1.4 1.8 2 .4.6 1.5.8 1.1 2.1-1.7-1.8-3.3-3.5-5.1-5.4 2.2.4 4 .8 5.8 1.2.1 0 .2.1.4.1 0-.2-.1-.3-.1-.3-.8-1.7-1.6-3.4-2.5-5.4 2.1 1.2 4 2.3 5.9 3.4.1-.1.1-.1.2-.2-1.4-2-2.7-4-4.3-6.2 2.7.2 5.2.4 8 .7-1 1.1-2.1.3-3.1.7-.4.6-.8 1.4-1.4 2.3.4.7.9 1.4 1.4 2.1-.1.6-.8.8-.8 1.6-1.3-.7-2.6-1.4-3.8-2.1-.1-.1-.2-.1-.3-.2.1.1.1.2.1.3zm1.5-4.4c.5.7.9 1.3 1.4 2 .3-.6.8-1.1.9-1.8-.2-.1-.4-.2-.6-.2-.5 0-1 0-1.7 0z"/><path d="m15.3 70.9c.3.3.5-.1.8 0 1.1 1.8 1.5 3.2.9 3.9-.4-1-.8-1.9-1.3-3-.6.2-1.2.5-1.9.7.4 1 .7 1.9 1.1 2.8 3.6-.2 5 1.4 4.8 5.5-.2-.3-.7 0-.8-.4.2-2.1-.4-3.5-1.9-4.1-1.2-.5-2.5-.1-3.3.9-.8 1.1-.8 2.6.1 3.7.7.8 1.5 1.3 2.6.9-.1-.8-.7-1.2-.7-1.9.8-.1 1.9 1.5 1.7 2.7-3 .3-4.2-.3-4.9-2.4-.6-1.9.1-3.3 1.6-4.5-.4-.9-.7-1.9-1.1-2.8-.8.3-1.6.6-2.3.9.1 1.1 1 2 .7 3.2-.9-1-1.2-2.3-1.8-3.5 1.6-1 3.5-1.2 5-2.3.4 0 .7.1.7-.3z"/><path d="m16.3 40.5c1.6.8 1.6.8 1.1 1.8-1.6-.8-3.3-1.4-5-2.5.8-1.6 1.5-3.2 2.3-4.7.7-1.3 1.4-1.3 3-.4.8 1.1-.1 2.1-.4 3.3 1.1-.5 1.6-1.7 2.9-1.8-.7 1.9-2.6 2.8-3.9 4.3zm-.3-5.4c-1.2 1.3-1.5 2.9-2.3 4.2.6.3 1 .6 1.6.7.6-1.5 1.5-2.7 1.8-4.3-.4-.2-.7-.4-1.1-.6z"/><path d="m69.1 17c .6-1.9 1.3-3.6 2.2-5.4 2.1 1.2 4.6 1.4 6.2 3.4-.5 1.2-.9 2.2-1.4 3.2-.5 1.1-1.6.9-2.4.6-1.5-.4-2.9-1.1-4.6-1.8zm1.3-.4c1.6.5 2.9 1.5 4.6 1.6.5-1 1-2 1.2-3.1-1.3-1-2.8-1.3-4.3-2-.5 1.1-1 2.2-1.5 3.5z"/><path d="m84.6 92.7c-.1-.9-1-1.4-1.3-2.5 1.9.7 3.7 1.4 5.7 2.2-.6-2-1.1-3.9-1.6-5.7.1-.1.1-.1.2-.2 1.7 1.4 3.4 2.9 5.1 4.4.1.1-.2.3-.4.5-1.1-.9-2.2-1.8-3.6-3 .5 1.9.9 3.4 1.4 5.2-1.7-.6-3.2-1.2-5.1-1.9 1 1.5 1.8 2.7 2.6 3.8-.1.2-.2.4-.5.5-.8-.7-1.1-1.9-2-2.6 0-.1 0-.2 0-.3-.1 0-.2.1-.2.1.1-.3-.1-.4-.3-.5z"/><path d="m22 82.2c-.8 1.8-1.5 3.5-2.4 5.5 2-.5 3.9-.9 5.8-1.4 0 .1.1.1.1.2-1.5 1.7-3 3.3-4.5 5-.5-.6-.5-.6.6-1.9.6-.6 1.1-1.2 1.9-2.1-1.9.4-3.5.8-5.3 1.2.7-1.7 1.4-3.2 2.1-5-1 .6-1.6 1.1-2.4 1.4-.6.3-1.1 1.2-2 .9 0-.1-.1-.3-.1-.4l5.7-3.6c.4.1.4.2.5.2z"/><path d="m10 48.2c.9-2.3.7-4.8 2.4-6.5 2.4.1 2.9.7 2.5 2.8-.1.6-.3 1.1-.4 1.7s-.3 1.1-.4 1.7c.5.6 1.4.2 1.8.9 0 .6-.3.8-.8.7-1.7-.4-3.3-.8-5.1-1.3zm2.6-5.4c-.7 1.4-.9 3-1.3 4.5.6.2 1.2.3 1.8.4.3-1.6 1.1-3 1-4.6-.5-.2-.9-.4-1.5-.3z"/><path d="m94.7 33.9c-1.1 0-1.2-1.2-1.8-1.8-.6-.7-1-1.4-1.5-2.1-.5 0-.8.3-1 .7.4 1.7 2.3 2.7 2.5 4.6-.4.2-.6.2-.7 0-.8-1.2-1.7-2.3-2.4-3.6-.6-1-.5-1.9.6-2.6.3-.2.6-.4.9-.6 1.9-1.3 3.6-.6 4.1 1.9-1.3.2-1.3-1.5-2.4-1.6-.3 0-.6.3-.8.6 1 1.4 1.9 2.8 2.9 4.2-.1.1-.2.2-.4.3z"/><path d="m24.2 30.2c-.8 1.8-1.6 3.4-3.2 4.6-.4.3-1 .3-1.4 0-.9-.7-1.9-1.2-2.7-2-.3-1.5.6-2.4 1.4-3.4.9.5.4.9.1 1.3s-.6.8-.6 1.4c.1.4.5.5.9.7 1.2-1.2 1.8-3 3.4-4.2.3 1.4-.6 1.9-1 2.6-.4.8-1 1.5-1.5 2.2.2.4.5.6.9.7 1.6-1 1.8-3.3 3.7-3.9z"/><path d="m40.2 12.6c0 1.5-1.6 1-2 1.9-.2.4 0 .8.3 1.1 1.8-.3 3.3-1.6 5.2-1.3-1.4 1.2-3.2 1.5-4.7 2.3-.2.4.1.7.3 1 1.8.2 3.3-1.6 5.2-1-1.6.9-3.3 1.9-5.2 2-.5 0-.9-.2-1.1-.7-.4-.9-.8-1.9-1.1-2.8-.2-.6.1-1.2.6-1.5.6-.5 1.4-.8 2.5-1z"/><path d="m24.8 28.2c1.4-.8 2.4-1.9 3.3-3.3-.9-1.3-2.2-2.1-3-3.3.5-.6.9-.5 1.3-.1.6.6 1.2 1.3 1.9 1.9.9.8 1 1.7.3 2.6-1.1 1.4-2.2 2.8-3.9 3.4-2.2-1.1-3.8-3.1-3.3-4.1 1.3.7 2 2 3.4 2.9z"/><path d="m85 93.5c-.4.3 0 .6.1.9.6 1.8-.1 3.6-1.7 4.4-1.5.8-3.5.4-4.6-.9-1.1-1.4-1-3.4.1-4.7s3.1-1.6 4.7-.7c.3.1.4.7.9.3-.3.4 0 .5.3.5-.1.2-.1.4.2.2zm-3.3-.8c-1.6 0-2.9 1.3-2.9 2.9s1.4 2.9 2.9 2.9 2.8-1.3 2.8-2.8c.1-1.7-1.2-3-2.8-3z"/><path d="m61.6 15c-1.5.8-1.5-.9-2.4-1.2-1.2 0-2.6 0-3.9 0-.8.3-.7 1.7-2.1 1.2 1.3-1.9 2.5-3.7 3.6-5.3.7-.2 1.1 0 1.4.4 1 1.5 2.1 3.1 3.4 4.9zm-2.9-2.2c-.5-.7-.9-1.4-1.4-2.1-.5.7-1 1.4-1.5 2.1z"/><path d="m67.4 15.4c.7-1.5.5-3 1.1-4.3.8-.1.9.3.8.9-.2 1.1-.4 2.2-.7 3.3-.2.8-.8 1-1.5 1.1-1.6 0-3.1-.3-4.5-.9-.6-.3-1-.7-.9-1.4.2-1.2.5-2.4.7-3.6.1-.4.4-.5.9-.6.6 1.6-.6 3-.3 4.6 1.3.7 2.8.9 4.4.9z"/><path d="m32.8 16c .1 1.4-.5 2.5-.7 3.7 1.1.5 2.5.1 3.6.6-.4.9-.4.9-3.8.5-.9 1-.4 2.9-2 3.9-.2-1.6.6-2.7.6-4-1.1-.4-2.4-.1-3.7-.7 1.4-1.4 2.8-.1 4.1-.6.8-.8.2-2.5 1.9-3.4z"/><path d="m78.1 19.4c-.8.1-1.4.8-2.1.4.3-.8 4.5-2.8 6.3-3 .6 2.2.3 4.5.6 6.7-.4.4-.7.4-1 0-.1-.6-.1-1.2-.2-1.9-1.3-.7-2.5-1.4-3.6-2.2zm3.4 1.1c.1-.9.1-1.6 0-2.4-.8.2-1.5.5-2.3.9.7.5 1.4.9 2.3 1.5z"/><path d="m103.1 48.4c-1.3-.5-2.2-1.4-3.3-2-.6 1.1-1.1 2.2-1.7 3.3-.2 0-.3-.1-.5-.1-.6-1.5 1-2.5 1.1-3.8-.8-1.1-2.5-1.3-2.9-3.1 1.5.4 2.3 1.5 3.5 2 .6-1 .9-2.2 1.8-3.3.9 1.7-.8 2.7-.8 4.1.8.9 2.7 1 2.8 2.9z"/><path d="m42.2 100.7c-1.4 2.7-2.9 3-6.7 1 .8-2.1 1.7-4.2 2.5-6.2 3.8.9 4.9 2.4 4.2 5.2zm-3.7-4.3c-.7 1.7-1.3 3.3-2 5 1.4.4 2.7 1.4 4 .4 1-.7 1.4-1.7 1.1-2.9-.3-1.6-1.8-2-3.1-2.5z"/><path d="m98.3 34.5c-1.2 1-2.7 1.2-4 2.1.2 1.6.9 3 1.9 4.1 1.6-.2 2.8-1.7 4.4-1.4.1.7-.3.9-.7 1.1-.7.3-1.4.7-2.2 1-1.4.7-2 .5-2.9-.8-.7-1-1.1-2.2-1.5-3.3-.3-1 0-1.7 1-2.1.9-.4 1.8-.8 2.6-1.2.6-.2 1.1-.3 1.4.5z"/><path d="m78.9 99.3c.6.7.4 1.3-.4 2-1.4 1.3-3.8 1.8-5.5-.1-.9.3-1.7.6-2.8.9.4-1.4 1.7-.8 2.3-1.7-.7-1.7-.5-3.4 1.2-4.7 1.3-1 2.7-1 4-.2-.1.6-.4.4-.8.4-1.9-.4-3.3.4-3.8 2-.4 1.3.3 2.9 1.7 3.4 1.5.6 3-.1 3.9-1.6 0 0 .1-.1.2-.4z"/><path d="m90.7 24.8c-1.7-.6-2.5-2.5-4.2-3.2-.8.8-1.5 1.6-2.3 2.4.6 1.8 2.8 2.4 3.4 4.1-.4.3-.6.3-.8.1-1.1-1-2.2-2-3.2-3.1-.6-.7-.6-1.5.1-2.3.4-.4.8-.9 1.2-1.3 1-1.1 1.8-1.2 2.9-.2.9.8 1.7 1.6 2.6 2.4.4.3.6.5.3 1.1z"/><path d="m14.8 71.2c-1.3.1-2.5 0-2.9-1.7-.8 1.1-1.6 2.1-2.5 3.3-.2-2.1 1.7-2.8 2.1-4.4-1.1-.1-2 .6-3 .6-.4-.6 0-.7.5-.9 1.9-.5 3.9-1.1 5.8-1.6.7 1.5 1.1 3 .5 4.5-.4-.4-.5-.1-.5.2zm-.5-3.9c-.7.3-1.5.3-2.1.8.4.9.3 2 1.5 2.3 1.3-.6 1.4-.7.6-3.1z"/><path d="m64.1 106c-1.6-.3-2.1-2.2-3.6-2.9-.2 1.1.5 2.2 0 3.2-.2 0-.4 0-.5-.1-.2-2.2-.5-4.5-.7-6.7.7-.3 1.3-.2 1.9-.3 1.6-.1 2.4.3 2.6 1.3.2 1.2-.2 1.8-1.9 2.4.9.9 1.7 1.8 2.5 2.7-.2.2-.2.3-.3.4zm-3.6-3.6c.9-.3 1.9 0 2.4-.9.2-.4.1-.8-.2-1.1-.8-.7-1.6-.2-2.5-.2 0 .7-.1 1.4.3 2.2z"/><path d="m42.2 100.7c.7.1.5-.6.6-.8.3-.7.4-1.5.7-2.4 1.3.5 2.7.5 3.7 1.5-1.1.3-2.1-.5-3.2-.4-.2.6-.3 1.1-.5 1.7.9.7 2.2.4 3 1.2-.1.2-.1.3-.2.5-1-.3-2-.5-3-.8-.2.8-.5 1.6-.7 2.4l3 .9c-.3.7-1.7.6-3.9-.5.3-1 .5-1.9.8-2.9 0-.2.3-.5-.3-.4z"/><path d="m66.2 103.2c-.7.8-.1 2.1-1.6 2.7.6-2.6 1.1-5.1 1.7-7.8 1.7 2.2 3.2 4.1 4.8 6.1-.7.1-.7.1-2.4-1.6-.9.2-1.7.4-2.5.6zm2.1-1.2c-.6-.7-1-1.3-1.6-2-.2 1-.3 1.6-.5 2.4.7-.1 1.3-.3 2.1-.4z"/><path d="m10.5 62.8c-.2.1-.5.1-.8-.1-.1-1.4-.2-2.8-.4-4.3-1.1.1-1.7.7-1.8 1.8-.1 1 1 1.5 1.5 2.5-1.7-.4-2.3-1.5-2.1-2.9.2-1.3 1.3-2.2 2.6-2.3 1.3 0 2.5.9 2.7 2.1.3 1.5-.1 2.3-1.7 3.2zm-.2-.8c1-.5 1.4-1.1 1.3-2-.1-.7-.5-1.4-1.5-1.4.1 1.1.1 2.1.2 3.4z"/><path d="m57.6 104.2c-1 0-1.9 0-2.7 0-.7.7-.6 1.9-1.6 2.3-.1-.1-.2-.2-.4-.3 1.1-2.2 2.2-4.4 3.4-6.9 1.1 2.5 2.1 4.8 3.2 7-.8.1-.8.1-1.9-2.1zm-2.5-.8h2.1c-.3-.8-.7-1.4-1-2.2-.4.8-.7 1.4-1.1 2.2z"/><path d="m49.5 102.8c-.2 1-.3 2-.5 3-.6.1-.8-.1-.7-.6.3-2 .5-4.1.8-6.2 1 0 1.9.1 2.7.3 1 .3 1.4 1 1.3 2s-.7 1.5-1.7 1.5c-.5.1-1.1 0-1.9 0zm0-.9c.9.2 1.8.5 2.6-.1.4-.4.4-.9 0-1.4-.7-.5-1.5-.5-2.3-.5-.1.6-.2 1.3-.3 2z"/><path d="m104.9 58.5c0-.2-.1-.5-.1-.7 1.3-1.3 1.3-1.8 0-2.6-.8.1-1.2.6-1.7 1.2-.4.5-.7 1-1.2 1.3-.8.6-1.9.4-2.4-.5-.5-.8-.1-2.2.7-2.5.3-.2.4.1.6.4-.3.5-.8.8-.7 1.6.1.4.4.5.9.6.6-.1.9-.5 1.2-.9s.6-.7.9-1.1c.6-.7 1.4-1 2.3-.7.7.3 1.2.8 1.2 1.6.1.9-.3 1.6-1.1 2.1-.3.1-.5.1-.6.2-.1 0 0 0 0 0z"/><path d="m48.3 16.2c-1.6-.2-1.1-1.3-1.4-2-.3-.8-.4-1.6-.6-2.4-.9-.4-1.9.8-2.9-.4 2.1-.7 4.2-1 6.3-1.5-.2.8-.2.8-2.3 1.5.3 1.6.9 3 .9 4.8z"/><path d="m13.9 55.8c-4.2.2-6.7 0-7-.8h6c .3-.2.1-.6.4-.8.9.3.4 1 .6 1.6z"/><path d="m87.7 29.1c1.4-1.3 2.8-2.6 4.4-3.7.3 1.1-.1 1.7-3 3.9-.5.5-.9.7-1.4-.2z"/><path d="m19.8 80.8c.3.5.6 0 .8-.1.4-.3.6-.1.8.4-1.9 1.3-3.7 2.5-5.6 3.8-.6-.5-.3-.7.1-1 .6-.4 1.3-.6 1.7-1.4.8-.3 1.9-.6 2.2-1.7z"/><path d="m10.5 62.8h2c-.5.8.8 1.4.3 2.4-.7-.1-.5-1-1-1.2-1.4-.5-2.8.2-4.5.1.9-1.3 2.3-.6 3.2-1.3z"/></g><path d="m74.7 23.1c.5.1 1 .4 1.3.7-.1.1-.1.2-.2.2-.5-.1-1-.3-1.3-.8.2 0 .2-.1.2-.1z" fill="#e30c14"/><path d="m76.1 23.8c.5.2.9.4 1.2.8-.1.1-.1.1-.2.2-.5-.1-.8-.5-1.3-.8.1 0 .2-.1.3-.2z" fill="#e30c14"/><path d="m74.3 22.8c.2.1.3.2.5.3 0 .1-.1.1-.1.2-.2 0-.4 0-.5-.3 0 0 0-.1.1-.2z" fill="#e30c14"/><path d="m74.1 23c .1.2.3.2.5.3.3.5.8.7 1.3.8.4.2.7.7 1.3.8 4.1 2.8 7.8 6.1 10.7 10.2.5.7.7 1.4.4 2.2-1.5 3.8-.8 7.4 1.4 10.7.6 1 1.3 2.1 1.9 3.1-1.9 1.5-4.8.3-8.8-3.6-.7 1.3-1.1 2.9-2.8 3.6-.1-.9-.1-1.6-.5-2.4-1.1 2.1-2.3 4.1-4.9 4.9 0-1.8 1.1-3.2.7-4.8-.7.6-.9 1.6-1.6 2-.7.5-1.3 1.3-2.4 1 0-1.3.8-2.5.4-3.9-.9 1.2-2.1 2.1-3.5 2.9.7.3 1.1.5 1.6.7.3.6.5 1.1.5 1.8 1.2 0 2.2.3 2.9 1.4 1.7-.7 3.1-.3 4.5.7.4-.6 1.2-.4 1.8-.8 1.1.3 2.1.6 2.8 1.5 2.3-2.5 5.1-.9 5.9 1.4.4 1.1 1.5 1.7 2.1 2.6 1.8 2.6 1.7 5-.3 7.9-1.4 2-4.3 2.9-6.8 2.1-.5-.1-.5-.2-.8-1 2.5-1.4 4.8-3 3.8-6.5-2.6 2.2-5.6 2.2-7.3 0-1.9.6-3.7 1-5.2-.8-.5-.2-.8.1-1.2.2-.4-.1-.8-.3-1.2-.4-.3-.5-.5-1-.8-1.6-.9 0-1.9 0-2.8-.5-.2 1-.4 1.9-.9 2.8.9 1.5 1.2 3 .3 4.7 1.3 1.4 1.2 3 .4 4.6 2.3 3.1.6 7.7-3.5 7.3-1.3 2.8.1 5.4 4.1 7.6-.5.9-3 1.5-4.4 1.1-4.3-1.2-4.4-4.7-4.5-8.2-1.8-.1-3.2-.9-3.8-2.7-.7-2.2.5-3.5 2.1-4.6-1.1-2.4-.5-5 .9-5.8-.6-2-.4-3.8 1.6-5 .1-1.3-.2-2.6.8-3.7-.3-.1-.6-.3-.9-.4-.6 1.2-.8 2.7-2.5 2.9-.3.9-.4 2-1.3 2.7-.4 0-.8.1-1.2.1.2 2.1-.9 3.4-2.8 3.6-.6 3.4-1 3.8-3.4 4.1.5 3.6-1.8 4.8-6.1 3.2-3.6 2-3.9 5.7-.7 8.4.4.3 1.3.5.8 1.5-3-.1-6-.3-7.6-3.4-1.5-2.9-.5-5.4 1.6-7.6-2.2-4.3.1-7.8 5.5-8.3.4-2.5 1.9-3.7 4.3-3.2.5-2.8 2.5-3 4.9-2.4.3-1.6 1.2-2.5 2.6-3-.4-.1-.9-.3-1.4-.4-.3 1-1 1.5-2 1.3-1.4 1.7-2.9 1-4.6.5-.3.7-1 .8-1.5 1-.6-.2-1.2-.3-1.7-.5-1.3 1.6-2.7 1.7-4.6.5-1.1 2.4-3.9 2.7-5.7 1.2-.8-.7-1.5-.7-2.5-.5-4 .9-5 3.4-4.3 7 .2.8.7 1.5.6 2.5-1.8-.3-2.8-1.5-3.5-3-1.6-3.2-.8-6.1 2.4-9.5-1.1-2.3-.9-4.4.9-5.6 2-1.4 4.9-2 6.9.2 1.5-1.6 3.2-1.4 5.9.8 1.2-1.7 3.9-1.1 5.6 0 1-1.7 2.2-1.8 4.7-.7 1.3-1.8 2.9-2.2 4.9-1.3.6-1.1 2.4-1.7 4.1-1.2.4-1.6 1.6-2.4 3.2-2.6.3-.5.3-1.2 1-1.3-.2-1 .3-1.9.2-2.8-.5-.1-.6.5-1.2.3-.4-.8.3-1.6.2-2.4.2-.1.3-.2 0-.5-.1.1-.2.2-.2.3-.6.4-1.1 1.1-2 1.2-.3-1.5.7-2.8.4-4.4-1.5 1.6-3 3-4.9 3.8-.2.1-.6.1-1-.2 4.2-6.3 4-13 1.2-20 2.6-.2 5 0 7.4.3 3.9.5 7.7 1.7 11.2 3.4 0-.2.2-.2.4-.2z" fill="#151413"/><path d="m102.4 64.6c-1.6-.1-2.8-1.3-2.7-2.9 0-1.6 1.4-2.8 3-2.7s2.8 1.3 2.7 2.9c0 1.6-1.3 2.8-3 2.7z" fill="#151413"/><path d="m103.5 71c-1.8-.5-3.5-.9-5.2-1.4.4-1.4.5-2.9 2.2-3.4 1.1-.4 2.2-.1 3 .8 1 1.3.3 2.6 0 4z" fill="#151413"/><path d="m27.3 92.4c0-.7-.4-1.1-.9-1.5-.4-.4-.9-.8-1.3-1.3.4-.5.8-.9 1.3-1.5.8.7 1.5 1.4 2.3 2.1-.5.7-.9 1.4-1.4 2.2z" fill="#151413"/><path d="m95.2 78.8h1.7c.2 0 .4.1.6.2-.1.7-.6 1.2-.9 1.8-.4-.6-.8-1.2-1.4-2z" fill="#151413"/><path d="m93.7 83.2c0-.1 0-.2-.1-.4.2.1.3.2.3.2 0 .1-.1.2-.2.2z" fill="#151413"/><path d="m94.3 86.3c0 .1.1.2.1.3-.2 0-.3-.1-.4-.1.1-.1.2-.1.3-.2z" fill="#151413"/><path d="m19.8 80.8c-.4 1.1-1.4 1.3-2.3 1.8.1-1.2-.9-2.8-1.7-2.7 0 .7.7 1.1.7 1.9-1.1.4-1.9-.1-2.6-.9-.9-1.1-.9-2.6-.1-3.7.7-1 2.1-1.4 3.3-.9 1.5.6 2.1 2 1.9 4.1.2.4.6.1.8.4z" fill="#151413"/><path d="m14.7 71.2c.1-.3.2-.6.5-.3.1.4-.2.3-.5.3z" fill="#151413"/><path d="m16 35.1c.4.2.7.4 1.1.6-.3 1.5-1.2 2.8-1.8 4.3-.6 0-1-.4-1.6-.7.8-1.4 1.1-3 2.3-4.2z" fill="#151413"/><path d="m70.4 16.6c.5-1.2 1-2.4 1.5-3.6 1.5.7 3 1.1 4.3 2-.2 1.2-.7 2.1-1.2 3.1-1.7-.1-3-1.1-4.6-1.5z" fill="#151413"/><path d="m84.8 93.3c-.3-.1-.6-.2-.3-.5.3 0 .5.1.3.5z" fill="#151413"/><path d="m85.1 93.5c-.4.2-.3 0-.3-.3.1 0 .1 0 .2-.1 0 .2 0 .3.1.4z" fill="#151413"/><path d="m12.6 42.8c.6-.1 1 .1 1.4.4.1 1.6-.6 3-1 4.6-.6-.2-1.1-.3-1.8-.4.5-1.6.7-3.1 1.4-4.6z" fill="#151413"/><path d="m81.7 92.7c1.6 0 2.9 1.3 2.8 2.9 0 1.5-1.3 2.8-2.8 2.8-1.6 0-2.9-1.3-2.9-2.9 0-1.5 1.3-2.8 2.9-2.8z" fill="#151413"/><path d="m58.7 12.8c-1 0-1.9 0-2.9 0 .5-.7 1-1.4 1.5-2.1.5.7.9 1.4 1.4 2.1z" fill="#151413"/><path d="m81.5 20.5c-.9-.5-1.5-1-2.3-1.5.8-.4 1.5-.8 2.3-.9.1.8 0 1.5 0 2.4z" fill="#151413"/><path d="m38.5 96.4c1.4.5 2.8.9 3.1 2.5.3 1.2-.2 2.2-1.1 2.9-1.4 1-2.6 0-4-.4.7-1.7 1.3-3.3 2-5z" fill="#151413"/><path d="m14.3 67.3c.7 2.4.7 2.5-.6 3-1.2-.3-1.1-1.4-1.5-2.3.7-.4 1.5-.3 2.1-.7z" fill="#151413"/><path d="m60.5 102.4c-.3-.8-.3-1.5-.3-2.3.9 0 1.7-.5 2.5.2.3.3.4.7.2 1.1-.6 1-1.6.7-2.4 1z" fill="#151413"/><path d="m68.3 102c-.8.2-1.4.3-2.1.5.2-.8.3-1.5.5-2.4.6.6 1 1.1 1.6 1.9z" fill="#151413"/><path d="m10.3 62c-.1-1.2-.1-2.3-.2-3.4 1 0 1.4.7 1.5 1.4.1.8-.3 1.5-1.3 2z" fill="#151413"/><path d="m55.1 103.4c.4-.7.7-1.4 1.1-2.2.4.8.7 1.5 1 2.2-.7 0-1.3 0-2.1 0z" fill="#151413"/><path d="m49.5 101.9c.1-.7.2-1.4.3-2.1.9 0 1.7 0 2.3.5.3.5.4 1.1 0 1.4-.8.7-1.6.4-2.6.2z" fill="#151413"/><path d="m61.3 38.8c.1-.1.1-.2.2-.3.3.3.2.4 0 .5-.1-.1-.2-.2-.2-.2z" fill="#e30c14"/></svg>