<svg id="Capa_1" data-name="Capa 1" xmlns="http://www.w3.org/2000/svg" viewBox="0 0 566.93 566.93"><defs><style>.cls-1{fill:#023728;}.cls-2,.cls-5{fill:#ffd600;}.cls-3{font-size:42.03px;}.cls-3,.cls-4{fill:#f6f6f6;font-family:Trivial-Bold, Trivial;font-weight:700;}.cls-4{font-size:41.25px;}.cls-5{stroke:#033828;stroke-miterlimit:10;}</style></defs><circle class="cls-1" cx="283.46" cy="283.46" r="255.1"/><path class="cls-2" d="M234.61,257.56c-.42-.82-.91-.75-1.47-.26,0,.2.08.4.14.6Z"/><path class="cls-2" d="M283.46,106.36c-97.65,0-177.1,79.45-177.1,177.1,0,85.39,60.74,156.83,141.27,173.45v-4.29c-78.2-16.55-137.07-86.1-137.07-169.16,0-95.34,77.56-172.9,172.9-172.9s172.91,77.56,172.91,172.9c0,83.3-59.21,153-137.74,169.3v4.29c80.87-16.36,141.94-88,141.94-173.59C460.57,185.81,381.12,106.36,283.46,106.36Z"/><path class="cls-2" d="M445.92,121A229.75,229.75,0,1,0,121,445.92,229.75,229.75,0,1,0,445.92,121ZM300.61,505.84c0-9.47.05-27.37.08-46.11v-4.22c0-25.88.07-52.23.11-59.15l44.73,39.15c-15-27.11-32.62-52.57-45.8-81,1.81.5,2.32,2.14,4,2l-6.25-16.91.5-.32,8,7.16c-.94-12.41-8-22.32-11.6-34.4l12.17,9.71c-4.26-11.17-8.19-21.47-12.49-32.77l13,9.91c-3.87-10.6-7.43-20.32-11.32-30.95l10.58,7.3c-3.37-10.51-6.49-20.22-9.61-29.94,2.45.89,2.56,3.26,4.6,4.51.85-9.3,1.68-18.3,2.5-27.23,12.46-.79,37.44,19.84,42.83,35.06l-11.78-.28c-.56-.49-1.05-.56-1.47.26l1.33.34,36.74,11.67C346.68,223.37,315,183.22,284,142.16v0h0v0c-31,41.06-62.68,81.21-87.44,127.41l36.74-11.67c-.06-.2-.1-.4-.14-.6l-11.78.28c5.39-15.22,30.37-35.85,42.83-35.06.82,8.93,1.65,17.93,2.5,27.23,2-1.25,2.15-3.62,4.6-4.51-3.12,9.72-6.24,19.43-9.61,29.94l10.58-7.3c-3.89,10.63-7.45,20.35-11.32,30.95l13-9.91c-4.3,11.3-8.23,21.6-12.49,32.77L273.6,312c-3.64,12.08-10.66,22-11.6,34.4l8-7.16.5.32-6.25,16.91c1.69.16,2.2-1.48,4-2-13.18,28.47-30.83,53.93-45.8,81l44.73-39.15c0,6.93.07,33.33.1,59.25,0,1.41,0,2.82,0,4.22,0,18.74.05,36.65.07,46.08C151.88,497.63,60.44,401,60.44,283.46c0-123,100.05-223,223-223s223,100.05,223,223C506.49,400.67,415.61,497.05,300.61,505.84Z"/><text class="cls-3" transform="translate(115.82 198.38) rotate(-57.58)">B</text><text class="cls-3" transform="matrix(0.68, -0.73, 0.73, 0.68, 134.39, 169.29)">E</text><text class="cls-3" transform="translate(157.99 144.06) rotate(-36.48)">A</text><text class="cls-3" transform="translate(185.82 123.6) rotate(-26.03)">S</text><text class="cls-3" transform="matrix(0.96, -0.27, 0.27, 0.96, 216.88, 108.51)">T</text><text class="cls-3" transform="translate(250.14 99.29) rotate(-5.06)">H</text><text class="cls-3" transform="matrix(1, 0.1, -0.1, 1, 284.54, 96.33)">U</text><text class="cls-3" transform="translate(318.93 99.71) rotate(15.94)">N</text><text class="cls-3" transform="translate(352.11 109.28) rotate(26.38)">T</text><text class="cls-3" transform="translate(383.02 124.7) rotate(36.86)">E</text><text class="cls-3" transform="translate(410.6 145.48) rotate(47.42)">R</text><text class="cls-3" transform="matrix(0.53, 0.85, -0.85, 0.53, 433.9, 170.96)">S</text><text class="cls-4" transform="matrix(0.67, 0.74, -0.74, 0.67, 113.74, 414.17)">F</text><text class="cls-4" transform="translate(139.66 442.21) rotate(37.82)">R</text><text class="cls-4" transform="matrix(0.89, 0.46, -0.46, 0.89, 170.12, 465.27)">E</text><text class="cls-4" transform="translate(204.26 482.53) rotate(17.22)">E</text><text class="cls-4" transform="translate(240.25 492.77) rotate(9.39)">	</text><text class="cls-4" transform="translate(242.87 493.29) rotate(8.68)">	</text><text class="cls-4" transform="translate(273.69 496.94) rotate(0.39)">	</text><text class="cls-4" transform="translate(304.69 496.1) rotate(-7.88)"> </text><text class="cls-4" transform="matrix(0.96, -0.27, 0.27, 0.96, 325.52, 493.48)">G</text><text class="cls-4" transform="translate(362.21 482.68) rotate(-26)">U</text><text class="cls-4" transform="matrix(0.84, -0.55, 0.55, 0.84, 395.2, 465.54)">I</text><text class="cls-4" transform="matrix(0.76, -0.64, 0.64, 0.76, 408.19, 457.58)">L</text><text class="cls-4" transform="translate(437.08 432.64) rotate(-50.2)">D</text><path class="cls-5" d="M540.88,295.14l5.63.26s.47-8.64.21-17.29c.06-4.33-.37-8.64-.53-11.88s-.33-5.39-.33-5.39l-6.67.57s.13,2.11.32,5.26.57,7.36.51,11.58c.25,8.43-.21,16.85-.21,16.85l.73,0Z"/><path class="cls-5" d="M537.91,322.08l-.72-.11s-.22,2.1-.81,5.21-1.41,7.24-2.22,11.37c-1,4.1-2,8.19-2.76,11.26s-1.48,5.05-1.48,5.05l6.44,1.88s.6-2.08,1.51-5.19,1.81-7.35,2.84-11.55c.82-4.25,1.65-8.49,2.27-11.68s.84-5.34.84-5.34l-5.57-.84Z"/><path class="cls-5" d="M525.62,353.61l1.93.56,1.46-5c.75-3,1.74-7.09,2.73-11.14l2.2-11.26c.58-3.08.8-5.16.8-5.16l-2-.3s-.21,2.06-.79,5.11-1.39,7.11-2.18,11.17c-1,4-2,8.05-2.71,11.06Z"/><path class="cls-5" d="M536.72,261.63l-2,.17s.12,2.06.31,5.17.57,7.23.51,11.37c.24,8.28-.21,16.56-.21,16.56l2,.09s.45-8.34.21-16.69c.05-4.18-.37-8.34-.51-11.47S536.72,261.63,536.72,261.63Z"/><path class="cls-5" d="M541.34,296.2s0,.75-.08,1.88-.08,2.63-.25,4.13l-.54,6,10.14,1,5.83-5.86c1.48-1.49,2.85-3,3.88-4.17l1.73-1.94Z"/><path class="cls-5" d="M540.37,309.24s-.07.75-.17,1.87-.23,2.63-.47,4.12l-.84,6,20.51,3-4.32-7.1c-1.06-1.75-2.22-3.47-3.11-4.75l-1.46-2.13Z"/><path class="cls-5" d="M537.89,321l.85-5.94c.23-1.48.37-3,.46-4.1s.17-1.86.17-1.86l-10.47-1.05-1.8,1.61c-1.07,1-2.51,2.23-4.05,3.46l-6,4.8Z"/><path class="cls-5" d="M539.47,308.11l.54-6c.17-1.49.2-3,.25-4.12s.08-1.87.08-1.87l-21.06-1,1.58,1.81c.95,1.1,2.23,2.57,3.39,4.07l4.74,6.11Z"/><path class="cls-5" d="M519.39,387l5.15,2.28s.9-2,2.1-5,3-7,4.34-11.07c3-8.11,5.38-16.44,5.38-16.44l-6.44-1.88s-2.28,8.12-5.24,16c-1.3,4-3.09,7.84-4.23,10.79s-2,4.85-2,4.85l.67.3Z"/><path class="cls-5" d="M506.8,411l-.63-.37S502,418,497.28,424.91c-2.23,3.58-4.81,6.92-6.64,9.5l-3.11,4.25,5.32,4.07,3.19-4.36c1.88-2.64,4.52-6.07,6.82-9.74,4.88-7.14,9.11-14.69,9.11-14.69l-4.88-2.81Z"/><path class="cls-5" d="M484,435.93l1.6,1.22s1.24-1.68,3.08-4.21,4.37-5.86,6.58-9.4c4.72-6.89,8.8-14.18,8.8-14.18l-1.74-1s-4,7.23-8.73,14.07c-2.2,3.51-4.73,6.79-6.53,9.32S484,435.93,484,435.93Z"/><path class="cls-5" d="M527.55,354.17l-1.93-.56s-2.25,8-5.15,15.73c-1.28,3.94-3,7.7-4.16,10.6s-2,4.77-2,4.77l1.84.81s.86-1.9,2-4.81,2.89-6.71,4.19-10.68C525.28,362.21,527.55,354.17,527.55,354.17Z"/><path class="cls-5" d="M519.41,388.09l-2.54,5.46-1.75,3.76-.88,1.66,9.1,4.59,2.39-1,5.1-2.37,7.51-3.64Z"/><path class="cls-5" d="M513.76,399.88l-2.8,5.34c-1.35,2.69-2.91,5.27-2.91,5.27l18,10.27s-.61-4.1-1.49-8.2-1.73-8.05-1.73-8.05Z"/><path class="cls-5" d="M507.17,410s1.56-2.57,2.9-5.25l2.8-5.31-9.38-4.78-7.32,2.59c-3.59,1.27-7.3,2.31-7.3,2.31Z"/><path class="cls-5" d="M513.35,398.52s.34-.66.87-1.66l1.74-3.74c1.27-2.72,2.53-5.44,2.53-5.44l-19.24-8.6,2.44,7.25,1.62,5.12c.38,1.4.64,2.33.64,2.33Z"/><path class="cls-5" d="M466.06,464.73l4,4,3.76-3.88c2.32-2.28,5.19-5.51,8-8.77s5.61-6.58,7.63-9.12l3.38-4.22-5.32-4.07-3.3,4.11c-2,2.47-4.58,5.78-7.43,8.89S471.23,458,469,460.2L465.31,464l.51.52Z"/><path class="cls-5" d="M445.73,482.67l-.46-.57-4.17,3.22c-2.51,1.91-5.79,4.56-9.3,6.9s-6.89,4.86-9.61,6.47l-4.47,2.8,3.5,5.71,4.58-2.87c2.79-1.65,6.31-4.17,9.86-6.64s7-5.11,9.55-7.08l4.28-3.3-3.55-4.38Z"/><path class="cls-5" d="M415.38,497.66l1.05,1.71,4.42-2.77c2.7-1.59,6.09-4,9.52-6.41s6.72-4.93,9.21-6.83l4.13-3.19-1.26-1.56-4.1,3.16c-2.47,1.89-5.69,4.49-9.14,6.78s-6.77,4.78-9.44,6.36Z"/><path class="cls-5" d="M485.56,437.15l-1.6-1.22-3.24,4c-1.93,2.43-4.5,5.68-7.3,8.73s-5.47,6.22-7.68,8.4l-3.61,3.71,1.42,1.42,3.64-3.74c2.23-2.2,5-5.32,7.75-8.46s5.41-6.36,7.36-8.81Z"/><path class="cls-5" d="M465.7,465.83l-1.32,1.34-3,2.83-4.4,4.12,6.84,7.55,8.2-.45,5.74-.41,2.59-.27Z"/><path class="cls-5" d="M456.2,474.82s-2.26,2-4.56,3.93l-4.6,3.9,13.12,16.06,1.54-8.21c.72-4.08,1.31-8.1,1.31-8.1Z"/><path class="cls-5" d="M446.41,481.87,451,478c2.29-1.94,4.55-3.92,4.55-3.92l-7-7.83s-3.93-.07-7.79-.25l-7.63-.44Z"/><path class="cls-5" d="M456.28,473.37l4.38-4.1,3-2.82,1.32-1.33-14.85-15s0,1-.06,2.41-.19,3.33-.29,5.23l-.58,7.76Z"/><path class="cls-5" d="M388.31,518.08l2.27,5.15,5-2.17,10.65-5.29c3.82-2,7.56-4.21,10.4-5.77,1.43-.77,2.56-1.5,3.37-2l1.26-.79-3.5-5.71-1.23.76c-.78.5-1.89,1.21-3.28,2-2.77,1.52-6.41,3.64-10.13,5.62L392.7,515l-4.82,2.11.29.67Z"/><path class="cls-5" d="M362.85,527.37l-.22-.69-5,1.62-11.19,3c-4.09,1-8.23,1.82-11.32,2.51s-5.17,1-5.17,1l1.18,6.59s2.15-.27,5.31-1,7.42-1.52,11.61-2.57l11.48-3.1,5.15-1.67L363,527.7Z"/><path class="cls-5" d="M329.15,530.4l.35,2s2.08-.26,5.13-1,7.15-1.47,11.2-2.48l11.08-3,5-1.61-.61-1.91L356.34,524l-11,3c-4,1-8.09,1.78-11.12,2.46S329.15,530.4,329.15,530.4Z"/><path class="cls-5" d="M416.43,499.37l-1.05-1.71-1.21.75c-.76.49-1.85,1.19-3.22,1.92-2.72,1.5-6.3,3.58-9.95,5.52l-10.2,5.07L386.06,513l.81,1.83,4.78-2.09,10.28-5.1c3.68-2,7.29-4.06,10-5.57,1.38-.74,2.48-1.45,3.25-1.94Z"/><path class="cls-5" d="M387.57,519l-5.52,2.41-5.63,2.15,3.63,9.52,7.85,2.64,8,2.28Z"/><path class="cls-5" d="M375.45,523.87,369.82,526l-5.74,1.86,6.4,19.72,4.45-7,4.12-7.19Z"/><path class="cls-5" d="M363.77,526.9l5.71-1.85,5.62-2.12-3.72-9.85-7.12-2.94-7-3.29Z"/><path class="cls-5" d="M376.06,522.57l5.61-2.14,5.49-2.4-8.44-19.32-3,7.1-3.38,6.93Z"/><path class="cls-5" d="M296.51,539.64l.27,5.63,5.39-.33c3.24-.12,7.55-.54,11.84-1.07l6.31-.7,5.47-.88,5.33-.88-1.18-6.59-5.2.85-5.33.86-6.15.68c-4.18.52-8.38.93-11.54,1l-5.26.32,0,.73Z"/><path class="cls-5" d="M269.41,539.18l0-.73s-2.1-.05-5.25-.38-7.36-.56-11.53-1.15-8.35-1.14-11.46-1.68l-5.18-1-1.27,6.58,5.31,1c3.2.56,7.49,1.1,11.77,1.73s8.61.84,11.83,1.18,5.39.39,5.39.39l.33-5.62Z"/><path class="cls-5" d="M236.88,529.83l-.38,2,5.12,1c3.09.54,7.23,1.05,11.36,1.66s8.3.81,11.42,1.14,5.2.38,5.2.38l.11-2s-2.07,0-5.16-.37-7.22-.55-11.32-1.14S245,531.35,242,530.82Z"/><path class="cls-5" d="M329.5,532.38l-.35-2-5.11.83-5.24.85-6,.67c-4.11.51-8.24.92-11.34,1l-5.17.31.1,2,5.2-.31c3.13-.12,7.29-.53,11.43-1l6.1-.68,5.27-.85Z"/><path class="cls-5" d="M295.51,540.21l-1.88.11-4.14,0-6,.06,0,10.19,6.37,5.21,4.52,3.57,2.08,1.53Z"/><path class="cls-5" d="M282.43,540.44l-1.88,0-4.14-.16-6-.24-1.12,20.71,6.67-5,4.44-3.46,2-1.67Z"/><path class="cls-5" d="M270.45,539.06l6,.24,4.13.16,1.87,0,.08-10.53-1.78-1.63-3.81-3.77-5.35-5.5Z"/><path class="cls-5" d="M283.47,539.43l6-.06,4.12,0,1.88-.12-.91-21.05-1.67,1.75-3.74,3.67-5.65,5.33Z"/><path class="cls-5" d="M203.11,526.71l-1.79,5.35s2,.78,5.14,1.66,7.23,2.25,11.43,3.3,8.39,2.1,11.56,2.77l5.31,1,1.27-6.58-5.17-1c-3.09-.65-7.17-1.72-11.27-2.7s-8.09-2.36-11.13-3.22-5-1.62-5-1.62l-.23.7Z"/><path class="cls-5" d="M178,516.41l.31-.66s-7.7-3.45-15.09-7.51c-3.78-1.88-7.31-4.2-10.06-5.75l-3.29-1.94-1.22-.79-3.56,5.67,1.24.81,3.38,2c2.82,1.59,6.45,4,10.32,5.9,7.59,4.17,15.48,7.71,15.48,7.71l2.35-5.12Z"/><path class="cls-5" d="M151.08,496l-1.07,1.7,1.2.79c.79.46,1.92,1.12,3.26,1.92,2.73,1.53,6.23,3.83,10,5.69,7.32,4,14.94,7.44,14.94,7.44l.84-1.83s-7.57-3.39-14.83-7.38c-3.71-1.84-7.17-4.13-9.88-5.65l-3.23-1.9Z"/><path class="cls-5" d="M236.5,531.81l.38-2-5.08-1c-3-.65-7-1.7-11.06-2.66s-8-2.32-10.94-3.16-4.92-1.59-4.92-1.59l-.64,1.91s1.95.75,5,1.6,7,2.17,11,3.18,8.1,2,11.16,2.68Z"/><path class="cls-5" d="M202,526.85l-5.68-2c-2.87-1-5.63-2.14-5.63-2.14l-3.73,9.48s1.9,3.69,4,7.18l4.33,7.12Z"/><path class="cls-5" d="M189.71,522.32l-5.58-2.27c-1.4-.56-2.78-1.15-3.8-1.65l-1.71-.79-8.56,18.89,2.52-.65c1.49-.37,3.5-1,5.5-1.57l7.87-2.49Z"/><path class="cls-5" d="M179,516.69l1.7.79c1,.5,2.39,1.09,3.79,1.64l5.55,2.27,3.9-9.78-3.27-7c-.79-1.73-1.55-3.48-2.08-4.85s-.89-2.23-.89-2.23Z"/><path class="cls-5" d="M191,521.78s2.76,1.18,5.61,2.12l5.66,2,6.79-20-7,3.13c-3.58,1.6-7.19,2.91-7.19,2.91Z"/><path class="cls-5" d="M120.74,480.81l-3.6,4.33,4.22,3.38,4.32,3.46,5.14,3.73,5.15,3.72,4.63,3,4.53,3,3.56-5.67-4.4-2.89-4.52-3-5-3.62-5-3.64-4.22-3.37L121.42,480l-.47.56Z"/><path class="cls-5" d="M101,462.19l.53-.51L98,457.83c-2.18-2.29-5.06-5.37-7.73-8.63s-5.45-6.43-7.33-9l-3.21-4.17-5.37,4,3.3,4.28c1.92,2.62,4.69,5.94,7.52,9.21s5.69,6.51,7.93,8.86l3.69,3.95,4-3.94Z"/><path class="cls-5" d="M83.29,433.37l-1.61,1.2,3.18,4.13c1.85,2.53,4.53,5.73,7.26,8.89s5.49,6.28,7.65,8.55,3.56,3.81,3.56,3.81l1.44-1.4s-1.41-1.52-3.54-3.78-5-5.28-7.59-8.49-5.36-6.31-7.2-8.81Z"/><path class="cls-5" d="M150,497.66l1.07-1.7-4.33-2.83c-1.29-.86-2.81-1.85-4.43-2.91l-4.93-3.57-4.92-3.57-4.15-3.31-4-3.24L123,478.08l4.07,3.26,4.18,3.34,5,3.6,5,3.59c1.63,1.08,3.16,2.08,4.47,2.93Z"/><path class="cls-5" d="M119.61,480.55s-.59-.46-1.43-1.22l-3.1-2.74-4.52-4-6.9,7.5,1.22,8.11c.34,2.06.69,4.12.94,5.67s.49,2.57.49,2.57Z"/><path class="cls-5" d="M109.79,471.92l-8.65-8.4L86.36,478.06l8.34.75,8.16.58Z"/><path class="cls-5" d="M101.86,462.81l8.61,8.37,7.16-7.72-.46-7.8-.28-7.62Z"/><path class="cls-5" d="M111.24,471.86l4.5,4,3.09,2.73c.83.76,1.43,1.22,1.43,1.22l13.52-16.17-2.37.14-5.25.2-7.8.16Z"/><path class="cls-5" d="M60.46,408.29,55.54,411l2.64,4.71c1.61,2.82,4,6.44,6.25,10.12s4.89,7.13,6.71,9.82,3.18,4.37,3.18,4.37l5.37-4s-1.33-1.63-3.1-4.26-4.3-6-6.53-9.57-4.53-7.11-6.1-9.85l-2.57-4.6-.64.36Z"/><path class="cls-5" d="M48.82,383.81l.67-.28s-.91-1.91-2-4.86-2.61-6.9-4.09-10.84l-3.57-11-1.4-5.08-6.46,1.78,1.44,5.21L37,370c1.53,4,3,8.1,4.2,11.13s2.1,5,2.1,5l5.18-2.2Z"/><path class="cls-5" d="M42.72,350.53l-1.94.54,1.38,5c1,3,2.25,6.94,3.54,10.92,1.47,3.9,2.94,7.8,4,10.73s2,4.81,2,4.81l1.85-.79s-.9-1.87-2-4.77-2.55-6.77-4-10.65c-1.27-3.94-2.54-7.88-3.5-10.83Z"/><path class="cls-5" d="M81.68,434.57l1.61-1.2s-1.32-1.61-3.05-4.19-4.22-5.89-6.42-9.4-4.45-7-6-9.68l-2.53-4.52-1.76,1,2.55,4.56c1.55,2.71,3.85,6.2,6,9.76s4.72,6.88,6.46,9.47S81.68,434.57,81.68,434.57Z"/><path class="cls-5" d="M59.52,407.64s-1.53-2.6-2.9-5.29L53.94,397l-9.14,4.5-1.88,8.05c-.89,4.06-1.55,8.16-1.55,8.16Z"/><path class="cls-5" d="M53.48,396s-.33-.68-.84-1.69-1.19-2.35-1.76-3.74l-2.42-5.52-19,8.2,7.41,3.77c1.81.92,3.73,1.77,5.15,2.4l2.35,1Z"/><path class="cls-5" d="M49.38,384.69s1.21,2.75,2.41,5.5c.57,1.38,1.26,2.72,1.76,3.73l.83,1.68L63.85,391l.68-2.32c.41-1.38,1-3.21,1.62-5.06l2.59-7.25Z"/><path class="cls-5" d="M54.84,396.51l2.67,5.38c1.37,2.67,2.89,5.26,2.89,5.26L78.84,397s-3.7-1.09-7.32-2.38l-7.24-2.71Z"/><path class="cls-5" d="M30.46,318.9l-5.59.77s.35,2.13.87,5.34,1.13,7.48,2.14,11.69c1.65,8.5,4.05,16.81,4.05,16.81l6.46-1.78s-2.34-8.1-4-16.38c-1-4.11-1.55-8.29-2.08-11.4l-.85-5.2-.72.1Z"/><path class="cls-5" d="M28.46,291.86l.73,0-.05-5.26c0-3.16-.17-7.38.09-11.59.17-8.43,1.09-16.82,1.09-16.82l-6.67-.65s-.94,8.61-1.12,17.26c-.26,4.32-.1,8.64-.09,11.89l0,5.4,5.64-.19Z"/><path class="cls-5" d="M34.79,258.6l-2-.19s-.91,8.3-1.08,16.65c-.26,4.17-.1,8.34-.09,11.47l.05,5.22,2-.07,0-5.17c0-3.11-.17-7.25.09-11.39C33.88,266.84,34.79,258.6,34.79,258.6Z"/><path class="cls-5" d="M40.78,351.07l1.94-.54s-2.31-8-3.89-16.09c-1-4-1.51-8.14-2-11.2L36,318.13l-2,.28s.33,2.06.84,5.15,1.08,7.22,2,11.28C38.46,343,40.78,351.07,40.78,351.07Z"/><path class="cls-5" d="M29.83,317.94l-1.34-12-10.15.89-4.55,6.81-4.52,7.05Z"/><path class="cls-5" d="M28.4,304.94l-.73-12-20.73.78,5.66,6.17c2.82,3,5.65,5.93,5.65,5.93Z"/><path class="cls-5" d="M28.67,292.88l.73,12L39.89,304l4.92-6.07,4.92-5.83Z"/><path class="cls-5" d="M29.49,305.88l1.33,11.93L51.71,315l-5.85-4.9L40,305Z"/><path class="cls-5" d="M34.78,224.69l-5.49-1.29s-.58,2.09-1.21,5.27l-2.23,11.68c-.61,4.29-1.22,8.57-1.67,11.78s-.53,5.38-.53,5.38l6.67.65s.21-2.09.51-5.24c.45-3.13,1-7.3,1.63-11.47l2.17-11.39c.61-3.1,1.19-5.13,1.19-5.13l-.71-.16Z"/><path class="cls-5" d="M42.7,198.77l.69.24,1.75-5c1.07-3,2.75-6.84,4.31-10.75s3.51-7.67,4.8-10.55S56.58,168,56.58,168l-6-3s-1.06,1.88-2.39,4.84-3.29,6.82-4.92,10.83-3.33,8-4.43,11l-1.8,5.09,5.32,1.87Z"/><path class="cls-5" d="M60.58,170.05l-1.79-.91s-1,1.82-2.31,4.68-3.18,6.57-4.75,10.44-3.21,7.71-4.27,10.65l-1.74,4.92,1.9.66,1.72-4.88c1-2.92,2.7-6.72,4.24-10.56s3.45-7.53,4.71-10.36S60.58,170.05,60.58,170.05Z"/><path class="cls-5" d="M32.79,258.41l2,.19.5-5.15c.43-3.07,1-7.17,1.6-11.27.77-4.07,1.55-8.13,2.13-11.18s1.16-5,1.16-5l-2-.46s-.57,2-1.17,5.08-1.37,7.17-2.16,11.27c-.58,4.13-1.17,8.27-1.61,11.36Z"/><path class="cls-5" d="M34.53,223.57,36,217.72c.33-1.47.77-2.91,1.1-4l.53-1.8-9.78-2.84-2.15,1.43c-1.29.87-3,2-4.65,3.25l-6.66,5Z"/><path class="cls-5" d="M37.9,210.94l1.72-5.78c.89-2.87,1.94-5.7,1.94-5.7L22,192.68s1.36,3.93,2.93,7.78,3.23,7.61,3.23,7.61Z"/><path class="cls-5" d="M42.51,199.79s-1,2.81-1.93,5.68l-1.72,5.75,10.1,3,6.67-3.91c3.34-1.89,6.8-3.6,6.8-3.6Z"/><path class="cls-5" d="M38.57,212.21s-.21.71-.54,1.79-.76,2.51-1.09,4c-.72,2.91-1.43,5.83-1.43,5.83l20.5,4.9L52.22,222c-1-1.71-1.82-3.41-2.47-4.71l-1.07-2.17Z"/><path class="cls-5" d="M72.85,138.42l-4.64-3.19-3,4.52c-1.8,2.7-4.16,6.32-6.29,10.09s-4.39,7.46-5.83,10.36L50.6,165l6,3L59,163.35c1.41-2.83,3.51-6.48,5.68-10.09s4.38-7.2,6.14-9.83L73.73,139l-.6-.41Z"/><path class="cls-5" d="M89.61,117.11l.56.48,3.48-4,3.58-4c1.38-1.41,2.85-2.93,4.31-4.44s2.95-3,4.32-4.43l4-3.69,3.84-3.6-4.48-5-4,3.69c-1.18,1.11-2.56,2.4-4,3.78l-4.43,4.55L92.32,105c-1.35,1.51-2.6,2.93-3.68,4.15l-3.57,4,4.29,3.65Z"/><path class="cls-5" d="M116.66,96.77l-1.35-1.5-3.81,3.57-3.9,3.65-4.28,4.39-4.27,4.4-3.54,4-3.46,3.91,1.53,1.31L97,116.62l3.51-4,4.24-4.36,4.24-4.35,3.88-3.63Z"/><path class="cls-5" d="M58.79,169.14l1.79.91s1-1.84,2.41-4.58,3.45-6.37,5.58-9.92,4.3-7.08,6-9.66l2.83-4.33-1.65-1.14-2.86,4.37c-1.74,2.6-4,6.09-6.08,9.73s-4.23,7.19-5.63,10Z"/><path class="cls-5" d="M73,137.28l7.08-9.75L72,121.35l-7.95,2L56,125.49Z"/><path class="cls-5" d="M80.73,126.72,84.5,122l2.59-3.23c.69-.89,1.2-1.45,1.2-1.45L72.46,104s0,1,0,2.62,0,3.65,0,5.74c.1,4.1.19,8.2.19,8.2Z"/><path class="cls-5" d="M89.06,118s-.51.55-1.2,1.44l-2.58,3.22-3.75,4.69,8.34,6.41,7.71-1.18,5.21-.7,2.36-.27Z"/><path class="cls-5" d="M80.89,128.14l-7,9.71,17.34,12-1-7.56c-.45-3.88-.89-7.76-.89-7.76Z"/><path class="cls-5" d="M139.53,71.73l-3.19-4.65s-7.18,4.84-13.93,10.25c-3.49,2.56-6.65,5.53-9.17,7.57l-3,2.54-1.09,1,4.48,5,1.06-1L117.63,90c2.45-2,5.52-4.89,8.92-7.38,6.59-5.27,13.58-10,13.58-10l-.41-.61Z"/><path class="cls-5" d="M162.81,57.86l.35.64s1.81-1.09,4.66-2.45,6.56-3.37,10.42-5.07,7.7-3.43,10.64-4.6l4.92-1.87-2.38-6.26-5,1.91c-3,1.21-7,3-10.92,4.72s-7.77,3.8-10.69,5.21S160,52.6,160,52.6l2.68,5Z"/><path class="cls-5" d="M195.39,48.71l-.71-1.88-4.88,1.85c-2.9,1.16-6.7,2.9-10.53,4.55s-7.49,3.67-10.31,5-4.62,2.43-4.62,2.43l1,1.77s1.77-1.07,4.57-2.41,6.45-3.31,10.24-5,7.56-3.37,10.45-4.52Z"/><path class="cls-5" d="M115.31,95.27l1.35,1.5,1-1,2.86-2.43c2.41-2,5.43-4.81,8.77-7.26,6.47-5.18,13.34-9.8,13.34-9.8l-1.14-1.66s-6.92,4.66-13.44,9.88c-3.37,2.47-6.42,5.34-8.84,7.32l-2.89,2.44C115.7,94.92,115.31,95.27,115.31,95.27Z"/><path class="cls-5" d="M140.09,70.72l1.54-1.07c.92-.67,2.18-1.48,3.47-2.27l5.11-3.2-5.34-8.68-8.17-1.1c-2.08-.27-4.16-.5-5.69-.61l-2.59-.21Z"/><path class="cls-5" d="M151.08,63.64s2.52-1.65,5.18-3.07l5.26-3-9.94-18.2s-1.52,3.88-3.05,7.75-2.75,7.76-2.75,7.76Z"/><path class="cls-5" d="M162,58.5l-5.24,2.94c-2.65,1.41-5.16,3.06-5.16,3.06l5.47,9s3.79.67,7.59,1.63L172.1,77Z"/><path class="cls-5" d="M150.73,65l-5.09,3.18c-1.28.79-2.54,1.6-3.45,2.26l-1.54,1.08L152.52,89s.19-1,.49-2.36.73-3.29,1.22-5.13c1-3.74,2-7.48,2-7.48Z"/><path class="cls-5" d="M225.76,33.6l-1.28-5.49s-2.12.43-5.24,1.31-7.34,1.86-11.46,3.2-8.25,2.61-11.3,3.71l-5.06,1.92,2.38,6.26,4.93-1.87c3-1.07,7-2.3,11-3.61s8.12-2.25,11.16-3.12S226,34.64,226,34.64l-.17-.71Z"/><path class="cls-5" d="M252.51,29.17l.09.72,5.23-.58c3.14-.43,7.34-.74,11.55-.95l6.18-.38,5.4-.06,5.26-.05,0-6.71-5.4.06-5.54.07-6.34.38c-4.32.22-8.63.54-11.85,1l-5.37.6.7,5.59Z"/><path class="cls-5" d="M286.2,32.35v-2L281,30.4l-5.34.06-6.12.37c-4.17.21-8.33.52-11.44.94l-5.19.58.26,2,5.14-.57c3.08-.42,7.21-.72,11.35-.93l6.07-.37,5.31-.06Z"/><path class="cls-5" d="M194.68,46.83l.71,1.88,4.84-1.84c2.92-1,6.89-2.26,10.82-3.55s8-2.21,11-3.06S227,39,227,39l-.46-2s-2,.41-5.06,1.26-7.08,1.8-11,3.08-8,2.52-10.9,3.58Z"/><path class="cls-5" d="M226.66,32.89l5.89-1.27,4-.86,1.85-.3-1.81-10-2.24-1.3c-1.35-.73-3.16-1.69-5-2.65L222,12.68Z"/><path class="cls-5" d="M239.47,30.29l5.95-1,4.09-.66,1.87-.21L248.71,7.88l-1.79,1.87L243.07,14l-5.38,6.23Z"/><path class="cls-5" d="M251.51,29.45l-1.87.21-4.07.65-5.92,1,1.83,10.37L248,45.93l4.32,3,1.94,1.45Z"/><path class="cls-5" d="M238.63,31.45l-1.85.3-4,.86-5.87,1.26,4.73,20.54,4.32-6.32L239,43.71l1.47-1.91Z"/><path class="cls-5" d="M320,29.23l.77-5.58-5.35-.76L303.54,21.8c-4.31-.32-8.64-.39-11.88-.55s-5.4-.09-5.4-.09l0,6.71s2.11-.1,5.27.08,7.37.23,11.58.54l11.54,1.06,5.21.74.1-.73Z"/><path class="cls-5" d="M346.51,34.7l-.17.7,5.11,1.26L362.56,40c4,1.32,8,2.78,10.95,3.81,1.5.5,2.71,1,3.56,1.36l1.34.55,2.47-6.23-1.38-.56c-.87-.36-2.12-.89-3.66-1.4-3.06-1.06-7.12-2.56-11.23-3.91l-11.4-3.39L348,28.9l-1.37,5.47Z"/><path class="cls-5" d="M376.76,49.85,377.5,48l-1.32-.54c-.85-.35-2.05-.86-3.54-1.35-3-1-6.87-2.47-10.84-3.77l-11-3.27-5.07-1.24-.49,1.95,5,1.23,10.91,3.25C365.12,45.53,369,47,371.94,48c1.48.5,2.67,1,3.51,1.34Z"/><path class="cls-5" d="M286.21,30.34v2s2.07-.09,5.17.09,7.25.22,11.38.52l11.33,1,5.13.72.27-2L314.32,32l-11.43-1c-4.16-.31-8.34-.38-11.46-.53S286.21,30.34,286.21,30.34Z"/><path class="cls-5" d="M321.06,28.88l6,.84,5.92,1.14,1.91-10-5.29-6.38L324,8.35Z"/><path class="cls-5" d="M334,31.05l5.91,1.15,5.86,1.44,4.92-20.15-7.46,3.61-7.28,3.95Z"/><path class="cls-5" d="M345.48,34.61l-5.83-1.43L333.76,32l-2,10.33,4.52,6.25,4.21,6.46Z"/><path class="cls-5" d="M332.75,31.84l-5.89-1.12-5.95-.85-3,20.87,6.32-4.44,6.52-4.12Z"/><path class="cls-5" d="M409.4,59.13l2.74-4.92-4.78-2.53c-2.87-1.49-6.66-3.59-10.62-5.34s-7.82-3.7-10.85-4.85l-5-2-2.47,6.23,4.88,2c3,1.11,6.75,3,10.58,4.73s7.55,3.75,10.35,5.2l4.66,2.46.35-.64Z"/><path class="cls-5" d="M432.14,73.89l-.42.59,4.26,3.1c2.6,1.79,5.9,4.42,9.17,7.08S451.63,90,454,92.14l3.94,3.49,4.55-4.93-4.05-3.57c-2.42-2.16-5.65-5-9.08-7.68S442.62,74,440,72.18L435.58,69l-3.25,4.6Z"/><path class="cls-5" d="M454.9,98.93l1.36-1.48L452.35,94c-2.33-2.08-5.45-4.87-8.76-7.42s-6.5-5.23-9.08-7l-4.22-3.06-1.16,1.64,4.19,3c2.56,1.77,5.79,4.35,9,7s6.37,5.29,8.69,7.35Z"/><path class="cls-5" d="M377.5,48l-.74,1.87,4.8,2c2.9,1.09,6.63,2.9,10.39,4.64s7.41,3.69,10.16,5.12L406.69,64l1-1.75-4.61-2.44c-2.78-1.44-6.43-3.47-10.25-5.15s-7.55-3.58-10.48-4.69Z"/><path class="cls-5" d="M410.53,59.21l5.19,3.06c2.6,1.53,5.17,3.09,5.17,3.09l5.41-8.63S425,52.86,423.62,49l-2.92-7.84Z"/><path class="cls-5" d="M421.75,65.93l5,3.3,3.47,2.27,1.53,1.1,11.88-17-2.59.18-5.73.57-8.16,1Z"/><path class="cls-5" d="M431.21,73.42l-1.52-1.09-3.45-2.26-5-3.29-5.63,8.9,1.9,7.54,1.18,5.11c.28,1.42.47,2.36.47,2.36Z"/><path class="cls-5" d="M420.36,66.22s-2.56-1.57-5.15-3.09l-5.17-3L399.7,78.45l7.44-1.73c3.77-.85,7.63-1.58,7.63-1.58Z"/><path class="cls-5" d="M481.93,119.4l4.33-3.6s-5.46-6.72-11.49-12.92c-2.89-3.22-6.08-6.15-8.39-8.43l-3.89-3.75-4.55,4.93,3.8,3.65c2.25,2.22,5.35,5.08,8.17,8.22,5.88,6,11.2,12.59,11.2,12.59l.56-.47Z"/><path class="cls-5" d="M497.91,141.3l-.61.41s1.19,1.74,2.84,4.43,4,6.18,6,9.9c4.26,7.28,7.9,14.89,7.9,14.89l6-3s-3.74-7.81-8.11-15.28c-2-3.82-4.51-7.38-6.18-10.16s-2.92-4.55-2.92-4.55l-4.68,3.13Z"/><path class="cls-5" d="M510,172.9l1.81-.88s-3.61-7.53-7.83-14.74c-1.95-3.69-4.35-7.12-5.95-9.81s-2.82-4.39-2.82-4.39l-1.67,1.12s1.17,1.71,2.79,4.35,4,6.07,5.91,9.73C506.45,165.43,510,172.9,510,172.9Z"/><path class="cls-5" d="M456.26,97.45l-1.36,1.48s1.5,1.43,3.73,3.59,5.26,5,8,8.07c5.78,5.94,11,12.37,11,12.37l1.54-1.29s-5.27-6.48-11.1-12.47c-2.78-3.11-5.86-5.93-8.09-8.13S456.26,97.45,456.26,97.45Z"/><path class="cls-5" d="M483,119.87s2,2.27,3.77,4.69l3.67,4.78,8.16-6.11.32-8.23c.17-4.19.07-8.34.07-8.34Z"/><path class="cls-5" d="M491.06,130.15l1.15,1.5c.65.92,1.51,2.16,2.37,3.4L498,140l17.2-11.58-8-2.3-5.44-1.46-2.52-.58Z"/><path class="cls-5" d="M497.18,140.55l-3.42-4.92-2.36-3.39-1.15-1.49L481.81,137s-.1,1-.23,2.4-.46,3.39-.72,5.32l-1.16,7.57Z"/><path class="cls-5" d="M489.63,129.94,486,125.19c-1.79-2.42-3.76-4.68-3.76-4.68L466,133.93s3.84.39,7.59,1l7.66,1.3Z"/><path class="cls-5" d="M527.86,201.75l5.35-1.79s-.6-2.08-1.74-5.12-2.7-7.07-4.24-11.11l-4.77-10.9L520.08,168l-6,3,2.33,4.72c1.26,2.9,3,6.76,4.64,10.62,1.5,3.94,3,7.88,4.13,10.83s1.69,5,1.69,5l.7-.24Z"/><path class="cls-5" d="M534.75,228l-.71.16s1.89,8.22,3.09,16.56c.78,4.15,1.08,8.36,1.47,11.5s.59,5.23.59,5.23l6.67-.57s-.24-2.15-.59-5.37-.72-7.54-1.52-11.79c-1.22-8.57-3.17-17-3.17-17l-5.5,1.21Z"/><path class="cls-5" d="M534.72,261.8l2-.17s-.23-2.08-.58-5.19-.69-7.28-1.46-11.38c-1.18-8.27-3.06-16.41-3.06-16.41l-2,.43s1.87,8.08,3,16.28c.77,4.07,1.06,8.21,1.45,11.29S534.72,261.8,534.72,261.8Z"/><path class="cls-5" d="M511.84,172l-1.81.88,2.29,4.65L516.88,188c1.47,3.86,3,7.73,4.06,10.63s1.66,4.9,1.66,4.9l1.9-.64s-.57-2-1.67-4.94-2.6-6.82-4.09-10.72c-1.67-3.82-3.35-7.64-4.6-10.51Z"/><path class="cls-5" d="M528.66,202.57s.92,2.86,1.85,5.73c.49,1.43.88,2.88,1.17,4s.49,1.82.49,1.82l9.81-2.73,1.08-2.35c.65-1.41,1.5-3.31,2.25-5.21l3-7.73Z"/><path class="cls-5" d="M532.44,215.09,534,220.9c.42,1.45.72,2.93,1,4s.39,1.84.39,1.84l20.24-4.54-2-1.61c-1.22-1-2.82-2.24-4.54-3.45l-6.75-4.78Z"/><path class="cls-5" d="M534.37,227s-.16-.74-.39-1.84-.54-2.57-1-4l-1.55-5.8-10.16,2.79L517.69,225c-.88,1.67-1.89,3.34-2.64,4.58s-1.24,2.06-1.24,2.06Z"/><path class="cls-5" d="M531.2,214.36s-.2-.72-.49-1.81-.67-2.54-1.16-4c-.92-2.85-1.85-5.71-1.85-5.71l-20,6.61,6.74,3.7c1.73.95,3.36,1.95,4.58,2.71l2,1.29Z"/></svg>