<?xml version="1.0" encoding="UTF-8"?><svg id="Capa_1" xmlns="http://www.w3.org/2000/svg" viewBox="0 0 566.93 566.93"><defs><style>.cls-1{font-family:MicrosoftJhengHeiUIBold, 'Microsoft JhengHei UI';font-size:40px;}.cls-1,.cls-2{fill:#0047a0;}.cls-3{fill:#fff;}.cls-4{fill:#fdfcfc;}.cls-5{fill:#fefefe;font-family:AdobeMyungjoStd-Medium-KSCpc-EUC-H, 'Adobe Myungjo Std';font-size:91.07px;font-weight:500;}.cls-6{fill:#cd2e3a;}</style></defs><circle class="cls-6" cx="283.33" cy="284.79" r="279.21"/><path class="cls-3" d="m499.53,443.4c-6.61,11.64-15.74,21.29-24.85,30.9-10.59,11.17-22.4,20.96-34.94,29.87-1.87,1.33-3.68,2.72-6.12,2.77-10.85-.46-20.91-4.11-30.95-7.78-1.8-3.04.78-4.15,2.59-5.19,16.36-9.38,30.78-21.31,44.62-33.97,5.36-4.9,9.32-11.2,15.25-15.57.79-.42,1.63-.73,2.45-1.08l-.13.05c10.69-1.38,21.39-1.39,32.08.01Z"/><path class="cls-3" d="m131.83,507.05c-19.25-11.86-35.49-27.17-50.24-44.13-5.29-6.08-10.42-12.33-14.72-19.19,1.93-2.57,4.63-1.04,6.9-1.07,6.82-.1,13.66-.59,20.46.38.43.02.86.05,1.29.07.82-.64,1.65-.64,2.48-.02.25.25.55.33.9.23.85.29,1.67.64,2.47,1.04,7.58,5.31,12.63,13.16,19.5,19.27,12.2,10.84,24.92,20.82,38.83,29.34,2.1,1.29,6.17,1.81,4.3,6.14-10.43,3.87-20.87,7.67-32.19,7.94Z"/><path class="cls-3" d="m406.24,457.02c1.87-3.34,4.91-5.51,7.74-7.93,17.73-15.23,33.87-31.87,45.93-52.11,2.71-.35,1.76,1.79,1.77,2.91.08,13.1,0,26.21.08,39.31.02,2.97-1.37,5.14-3.15,7.23-11.22,13.27-24.44,24.31-38.5,34.37-5.24,3.75-10.58,7.39-16.24,10.49-2.17,1.19-4.37,2.67-6.92.81-1.59-4.8,1-8.98,2.23-13.27,2.12-7.33,2.73-15.18,7.05-21.81Z"/><path class="cls-3" d="m106.75,396.97c13.65,22.68,32.06,41.01,52.5,57.5,4.06,4.33,4.57,10.13,5.81,15.44,1.72,7.32,5.68,14.2,4.7,22.1-2.51,1.99-4.76.57-6.89-.69-12.02-7.12-23.6-14.89-33.91-24.36-7.34-6.74-15.45-12.7-21.31-20.97-1.47-2.08-2.75-4.06-2.74-6.76.06-13.11,0-26.23.08-39.34,0-1.12-.94-3.25,1.77-2.91Z"/><path class="cls-3" d="m61.8,436.64c-13.24-19.66-23.23-40.93-31.23-63.18.4-.78,1.09-1.46,1.91-1.3,10.26,1.9,20.68,3.32,29.8,9.02,5.94,10.01,10.22,20.91,16.49,30.76,3.91,6.14,7.71,12.34,12.1,18.16,1.43,1.9,3.5,3.74,2.13,7.25-9.7.38-19.62.08-29.53.15-.73.06-1.29-.22-1.68-.85Z"/><path class="cls-3" d="m536.09,373.46c-8,22.25-17.99,43.51-31.22,63.18-5.24,2.45-10.75.09-16.07.87-5.11-.18-10.27.43-16.71-.63,5.27-10.27,12.31-18.44,17.56-27.67,5.25-9.23,9.3-19.07,14.85-28.13,9.13-5.52,19.47-7.06,29.71-8.92.82-.15,1.5.52,1.9,1.3Z"/><path class="cls-3" d="m468.4,383.09c7.63-15.58,13.32-31.87,17.86-48.59,3.1-.09,2.88,2.61,3.35,4.36,3.53,13.08,7.56,26.03,10.45,39.29.4,2.8-.41,5.35-1.57,7.84-6.52,14-14,27.45-23.05,39.99-1.58,2.19-3.15,4.46-7.35,4.99.02-16.06-1.89-31.93.31-47.88Z"/><path class="cls-3" d="m80.39,334.52c4.4,15.24,8.92,30.43,16.21,44.62.47.91,1.02,1.79,1.53,2.68.37.62.53,1.28.49,2,1.13,15.53.83,31.04-.14,46.69-3.67.55-5.25-1.8-6.8-3.92-9.5-13.03-17.27-27.06-23.98-41.7-.98-2.13-1.42-4.35-1.11-6.7,2.94-13.24,6.88-26.23,10.44-39.31.48-1.75.25-4.46,3.36-4.36Z"/><path class="cls-3" d="m470.82,109.96c22.74,3.81,67.55,85.53,75.24,135.16-2.39,4.18-6.41,7.15-10.82,11.61-3.13-27.91-10.26-53.74-21.33-78.48-11.09-24.79-26.17-47.06-43.09-68.3Z"/><path class="cls-3" d="m31.63,256.31c-4.27-3.94-7.75-7.14-11.45-10.56,10.1-53.93,33.72-99.96,73.96-136.97,1.95,4.89-1.96,6.9-4.09,9.5-20.83,25.44-36.54,53.67-46.99,84.83-5.71,17.03-9.61,34.48-11.42,53.2Z"/><path class="cls-3" d="m526.19,265.9c-1.53,1.44-3.02,2.84-4.66,4.39-4.55-2.99-7.19-6.62-7.81-12.11-5.38-47.47-23.84-89.37-54.18-126.14-2.37-2.87-2.38-2.86-3.26-6.27,22.46.84,72.19,99.94,69.92,140.13Z"/><path class="cls-3" d="m45.21,270.35c-1.7-1.62-3.31-3.15-4.66-4.43-3.1-38.24,42.62-130.86,69.29-140.76,2.04,2.7-.43,4.18-1.74,5.74-31.19,37.26-49.94,79.89-55.28,128.27-.56,5.05-3.49,8.19-7.6,11.17Z"/><path class="cls-3" d="m28.05,364.98c-4.9-16.91-9.05-33.97-10.02-51.65.18-.11.41-.35.52-.3,10.83,4.32,21.68,8.62,29.3,18.15,2.46,11.37,5.13,22.68,8.93,33.69.93,2.71,2.12,5.52.2,8.35-4.96,1.73-9.29-1.06-13.72-2.26-5.23-1.42-11.13-1.54-15.22-5.98Z"/><path class="cls-3" d="m548.63,313.33c-.97,17.68-5.1,34.75-10.03,51.66-8.83,5.48-18.55,7.85-28.82,8.33-2.06-2.78-.86-5.61.07-8.32,3.81-11.03,6.45-22.35,8.91-33.73.51-1.62,1.33-3.13,2.73-4.07,7.93-5.33,16.26-9.98,24.81-14.24.77-.38,1.62-.16,2.33.36Z"/><path class="cls-3" d="m523.63,279.11c7.12-8.68,15.55-16.03,24.09-24.82,3.29,17.28,2.07,33.6,2.27,49.84-6.88,7.98-16.57,11.64-25.48,16.46-1.56.85-2.77-.17-3.31-1.83.06-12.12.78-24.21.93-36.32.02-1.25.71-2.35,1.49-3.33Z"/><path class="cls-3" d="m16.66,304.14c.14-16.15-.87-32.34,2.15-49.9,8.43,8.41,16.12,16.09,23.81,23.76,1.31,1.2,2,2.77,2,4.45,0,12.07.73,24.12.9,36.18-.57,1.96-2.03,2.87-3.74,1.87-8.66-5.01-18.46-8.29-25.11-16.37Z"/><path class="cls-3" d="m67.14,249.3c-2.52-29.72,39.29-103.35,62.59-112.4,1.76,2.54-.62,3.8-1.79,5.22-21.52,26.25-37.72,55.23-45.69,88.49-1.95,8.12-9.29,11.7-15.11,18.69Z"/><path class="cls-3" d="m499.36,248.36c-7.81-6.88-14.17-13.07-16.67-23.32-7.48-30.65-23.25-57.23-42.89-81.65-1.44-1.79-3.89-3.2-3.34-6.21,21.14,4.31,66.67,84.19,62.89,111.18Z"/><path class="cls-3" d="m488.81,316.28c1.79-9.24,1.78-18.64,2.5-27.97,3.35-.34,3.79,2.74,4.87,4.59,6.17,10.62,12.43,21.18,18.31,31.98.56,1.14,1.07,2.29,1.35,3.54.12.65.14,1.3.09,1.96-1.81,10.87-4.81,21.45-8.09,31.94-.9,2.88-1.23,6.77-5.7,7-3.29-4.35-3.52-9.76-4.85-14.73-3.38-12.64-7.85-25.06-8.49-38.32Z"/><path class="cls-3" d="m75.35,288.31c.73,9.34.71,18.74,2.5,27.98-1.15,16.76-7.31,32.38-11.11,48.54-.38,1.62-.94,3.21-2.18,4.43-4.24.06-4.69-3.6-5.52-6.25-3.39-10.85-6.66-21.75-8.31-33.05.43-4.97,3.53-8.73,5.82-12.86,4.41-7.97,8.99-15.84,13.57-23.7,1.19-2.04,1.64-5.31,5.22-5.09Z"/><path class="cls-3" d="m491.27,275.16c-1.28-8.93-2.55-17.85-3.83-26.78l1.68-1.24c9.45,9.83,18.89,19.67,28.34,29.5,3.18,9.17,2.68,32.56-.84,39.77-1.39,1.06-2.43.22-3.06-.88-7.62-13.36-16.62-25.95-22.3-40.37Z"/><path class="cls-3" d="m49.2,276.64c9.47-9.81,18.94-19.62,28.41-29.43.54.39,1.08.78,1.61,1.17-1.28,8.93-2.55,17.85-3.83,26.78-2.96,9.9-9.55,17.88-14.28,26.85-2.12,4.03-4.2,8.13-6.87,11.84-.96,1.34-1.41,3.8-4.09,2.65-.9-.92-1.6-2.04-1.69-3.25-.94-12.22-3.45-24.49.74-36.61Z"/><path class="cls-3" d="m336.87,548.87c31.99-6.49,61.57-19.04,89.46-35.8-.23-3.31-3-3.61-5.29-4.33-7.71-2.4-15.56-4.28-23.33-6.48-2.34-.66-4.98-.81-6.89-4.26,1.49-7.29,3.57-15.26,5.73-23.22.96-3.54,2.75-7.01,1.43-10.86-.63-.87-1.3-1.59-2.47-.8-24.72,15.92-51.52,26.31-80.73,30.25-.29.29-.44.61-.48.97-1.04.05-2.09.1-3.13.14-.02-.06-.04-.11-.05-.17-1.28-.17-1.46,0-2.68.07-1.87.14-3.74.24-5.61.41-47.46,4.24-91.47-5.89-131.7-31.69-1.19-.77-1.86-.02-2.48.86-.96,2.3-.32,4.55.31,6.74,2.07,7.22,4.01,14.48,5.7,21.79.55,2.38,1.72,4.79.17,7.3-1.71,1.68-4.06,1.93-6.24,2.55-7.63,2.16-15.35,3.99-22.91,6.36-2.3.72-5.12.99-5.32,4.35,2.17,1.22,4.35,2.42,6.5,3.67,43.38,25.12,89.94,38.4,140.27,37.64,11.41.09,22.74-.68,33.93-2.95.77.06,1.54-.06,2.29-.47,0,0,0,0,0,0,4.64.11,9.06-1.2,13.54-2.11Zm-17.01,1.38c-.04.16-.09.33-.14.49-.13,0-.25-.02-.38-.02.18-.15.35-.31.51-.46Z"/><path class="cls-4" d="m326.88,512.79c1.57,3.21,1.8,6,1.43,8.98-2.32.5-4.5,1.12-6.72,1.43-4.91.7-9.83,1.25-14.87,1.88-1.75-2.66-.21-5.9-2.61-8.66,7.86-2.08,15.18-2.73,22.77-3.63Z"/><text class="cls-5" transform="translate(194.95 115.42) rotate(-10.72)"><tspan x="0" y="0">수</tspan></text><text class="cls-5" transform="translate(279.38 98.48) rotate(11.66)"><tspan x="0" y="0">룡</tspan></text><g><text class="cls-1" transform="translate(182.65 523.31) rotate(20.67)"><tspan x="0" y="0">S</tspan></text><text class="cls-1" transform="translate(206.43 532.37) rotate(14.26)"><tspan x="0" y="0">U</tspan></text><text class="cls-1" transform="translate(237.75 539.96) rotate(8.05)"><tspan x="0" y="0">L</tspan></text><text class="cls-1" transform="translate(257.36 542.86) rotate(3.14)"><tspan x="0" y="0">Y</tspan></text><text class="cls-1" transform="translate(283.23 544.44) rotate(-3.64)"><tspan x="0" y="0">O</tspan></text><text class="cls-1" transform="translate(318.4 542.03) rotate(-11.63)"><tspan x="0" y="0">N</tspan></text><text class="cls-1" transform="translate(353.01 534.64) rotate(-19.25)"><tspan x="0" y="0">G</tspan></text></g><path class="cls-3" d="m314.79,493.38c-.13.31-.17.62-.13.95-1.25,1.32-2.56,1.14-3.92.18-.77-.04-1.54-.08-2.3-.12,2.95-.4,3.43-.47,6.34-1.02Z"/><g><g><path class="cls-2" d="m278.15,182.14c3.47-2.23,6.64-4.88,9.48-7.85l-16.89,11.54c-.38.35-.77.68-1.17,1,3-1.42,5.9-2.97,8.58-4.69Z"/><path class="cls-2" d="m270.74,185.83l-2.09,1.43c.31-.14.62-.29.93-.43.4-.32.79-.65,1.17-1Z"/><path class="cls-2" d="m291.84,169.32c-.17-10.01-3.15-19.96-8.53-28.4,2.96,12.24.14,25.43-6.08,36.38-1.77,3.11-3.88,6.13-6.5,8.54l16.89-11.54c1.5-1.57,2.91-3.24,4.21-4.97Z"/><g><polygon class="cls-2" points="206.92 248.75 206.92 248.75 206.92 248.75 206.92 248.75"/><path class="cls-2" d="m218.1,246.98c.81-.07,1.63-.29,2.32-.53.68-.3,1.55-.53,2.35-.59,1.74-.15,3.16.44,1.64,2.61-.32.32-.76.48-1.24.52-.79.07-1.7-.2-2.43-.67l-.25.15c.12,1.02.87,1.97,1.9,2.48.63.35,1.32.48,1.98.42,1.89-.16,3.61-1.82,3.49-3.94-.02-2.49-2.3-3.87-4.46-3.69-.32.03-.64.09-.95.19-1.9.49-3.57,2.11-5.4,2.27-.6.05-1.21-.05-1.86-.4l-.19.22c.81.85,1.96,1.05,3.11.95Z"/><polygon class="cls-2" points="206.91 248.74 206.91 248.74 206.91 248.74 206.91 248.74"/><path class="cls-2" d="m208.41,244.46c.4-.03.76-.23,1-.66l-.24-.16c-.06.03-.13.05-.18.06-.15.01-.28-.06-.41-.14-.56-.43-.85-1.19-1.12-1.82-.17-.47,0-1.01-.33-1.34-.31-.37-.69-.73-1.48-1.31h-.29c-.81.58-1.03,1.4-1,2.15,0,.79.7,1.31,1.18,1.81.6.63,1.87,1.51,2.86,1.42Z"/><path class="cls-2" d="m223.29,247.44s.04-.07.06-.1c-.13,0-.28,0-.46.02-.17.01-.35.04-.53.07.24.06.47.09.68.07.1,0,.19-.03.26-.06Z"/><path class="cls-2" d="m211.71,250.84c4.14,1.98,9.08,3.08,15.07,3.37,6.58-14.42,19.16-25.81,33.04-29.86.67-.19,1.39-.38,2.14-.45s1.41,0,2.04.19c2.45.76,3.67,3.41,3.6,5.63-.06,2.11-1.02,3.99-1.91,5.58-4.52,8.09-10.41,15.22-17.51,21.17-.43.36-.86.71-1.29,1.07-2.15,1.76-4.18,3.43-5.65,5.55-1.39,2-2.54,5.28-1.22,7.93.74,1.48,2.63,2.52,4.3,2.38.37-.03.71-.12,1.01-.26-.64-3.42,1.23-7.29,3.45-9.64,2.02-2.14,4.55-3.57,7-4.95.39-.22.77-.44,1.16-.66,13.37-7.69,22.57-18.9,25.25-30.75l.16-.73.68-.31c11.69-5.32,22.25-9.81,33.22-10.76,5.54-.48,10.57.01,15.39,1.49,11.91,3.67,21.66,13.81,24.85,25.86,6.08,22.98-10.83,44.72-27.17,56.35-8.55,6.09-18.01,10.97-27.16,15.69-9.77,5.04-19.86,10.25-28.74,16.89-7.85,5.88-14.82,12.61-20.73,20.03,2.58.1,5.23.28,7.91.57.46.05.92.1,1.38.15,3.33.39,6.81.92,10.32,1.57,5,.97,10.37,2.31,15.56,3.6,3.83.96,7.79,1.94,11.46,2.74.95.21,1.89.41,2.84.6,8.45,1.69,17.32,2.6,26.37,2.71,4.77-3.6,11.22-7.41,18.65-11.8,17.46-10.32,39.19-23.16,55-42.36,18.6-22.59,24.47-48.54,17.96-79.32-5.72-27.02-18.93-45.86-39.26-56.01-17.7-8.83-37.46-9.3-50.93-8.14-12.13,1.05-20.55,3.51-20.64,3.54l-2.71.8.85-2.69c3.43-10.8,2.39-23.49-2.57-34.57.46,12.81-3.63,26.08-11.52,36.76,0,.56,0,1.11-.01,1.64l-.02.77-.64.43-4.08,2.79c-2.94,3.05-6.18,5.73-9.64,7.96-2.51,1.61-5.32,3.16-8.59,4.71-1.28,1.01-2.61,1.84-3.97,2.48l-.32-.56c-5.26,2.22-11.15,4.24-17.88,6.12-1.65,10.45-7.75,20.68-17.24,28.92-7.03,6.1-15.15,10.56-22.88,14.12.06.07.12.13.18.2.53.59.58,1.28.61,1.66,0,.06,0,.12.01.18l.02.04c.08.2.18.44.29.65l.08-.04.76.52.24.16,1.13.77-.66,1.19c-.47.84-1.24,1.35-2.18,1.43-1.68.14-3.36-1.12-4.08-1.89-.05-.05-.12-.12-.19-.19-.52-.5-1.28-1.24-1.39-2.39-.18.08-.36.15-.54.23,1.21,2.59,2.87,4.7,5.04,6.44l-.47.59h0s0,0,0,0l-.34.42h0s.34-.41.34-.41h0s0,0,0,0l.47-.59c1.3,1.03,2.71,1.91,4.32,2.68Zm67.43-56.2c9.01-3.66,18.62-6.01,27.8-6.8,14.71-1.27,28.45,1.39,39.72,7.7,26.32,14.51,36.12,49.38,21.83,77.72-8.96,18.83-26.82,30.48-44.1,41.75-2.23,1.45-4.53,2.95-6.74,4.43-2.75,1.92-5.72,3.64-8.6,5.29-6.82,3.94-13.25,7.66-17.44,14.12l-.02.03-.02.03c-1.37,1.9-2.42,3.98-3.53,6.19-.78,1.55-1.59,3.15-2.52,4.68-.72,1.15-1.39,2.31-2.07,3.59-.27.51-.78.85-1.36.9-.32.03-.65-.04-.93-.19-.63-.33-.99-1.03-.89-1.74.22-1.5.66-2.92,1.09-4.28l.04-.14c1.21-3.89,3.01-7.83,5.49-12.04,4.41-7.8,11.94-12.47,19.23-16.99,2.71-1.68,5.28-3.27,7.7-5.02,3.57-2.55,7.33-5.05,10.97-7.48,14.71-9.82,29.93-19.97,38.07-35.95,6.29-11.85,8-26.16,4.71-39.28-3.41-13.59-11.7-24.75-23.35-31.42-8.63-5.18-19.47-7.97-31.38-8.08-2.5-.02-5.06.08-7.6.3-8.29.72-16.66,2.67-24.88,5.81-.14.06-.3.09-.46.11-.74.06-1.45-.38-1.72-1.07-.33-.85.09-1.83.93-2.18Zm-26.39,14.16c.99-2.37,2.01-4.82,3.9-6.78,2.82-2.92,6.89-3.99,10.16-4.85l3.18-.84-1.45,2.95c-.46.94-.98,1.85-1.48,2.72-.5.88-.98,1.7-1.39,2.55-.53,1.08-1.34,2.72-2.92,3.54-.81.42-1.65.53-2.29.59-.23.02-.46.03-.7.05-.14,0-.28.02-.42.03h-.18c-1.14.11-3.17.47-3.87,1.75l-2.7-1.3.17-.41Zm-38.9,36.25l.19-.22.79-.92,1.07.57c.34.19.67.26,1.02.23.69-.06,1.5-.51,2.35-.98.82-.45,1.74-.97,2.76-1.24.4-.12.81-.21,1.24-.24,1.64-.14,3.3.4,4.46,1.45,1.04.95,1.62,2.25,1.64,3.68.14,2.78-2.03,5.24-4.86,5.48-.98.08-1.96-.12-2.81-.59-1.48-.75-2.51-2.14-2.69-3.64l-.03-.26c-.25.04-.5.08-.74.1-2.28.2-3.61-.66-4.32-1.41l-.93-.98.87-1.03Z"/><path class="cls-2" d="m421.59,229.81c-13.23-62.52-62.99-67.82-91.78-65.33-12.42,1.07-20.93,3.59-20.93,3.59,4.4-13.87,1.53-30.22-6.32-42.47,2.84,15.21-1.43,31.4-10.7,43.72.01.7.01,1.4,0,2.1l-4.21,2.88c-2.84,2.97-6.01,5.62-9.48,7.85-2.68,1.73-5.58,3.27-8.58,4.69-1.17.94-2.44,1.76-3.81,2.4l2.88-1.97c-7.03,3.24-14.63,5.74-21.79,7.71-1.49,11.33-8.25,21.48-16.88,28.97-8.63,7.48-19.06,12.58-29.61,16.97,1.37,3.55,3.37,6.26,6.07,8.41.04-.03.09-.05.14-.09-.04.03-.08.06-.13.1,1.36,1.08,2.88,2.04,4.61,2.86,5.16,2.47,10.95,3.37,16.67,3.55,5.97-13.74,18.12-25.77,32.5-29.96.6-.18,1.23-.34,1.85-.39.5-.04.99-.02,1.47.13,1.67.52,2.6,2.41,2.55,4.16-.05,1.75-.87,3.37-1.72,4.89-4.4,7.88-10.25,14.95-17.17,20.75-2.56,2.15-5.31,4.16-7.21,6.91-1.9,2.75-2.82,6.47-1.33,9.46,1.04,2.09,3.54,3.4,5.77,3.2.96-.08,1.87-.44,2.6-1.14-1.11-2.97.64-6.92,2.82-9.22,2.17-2.3,5.07-3.76,7.82-5.34,12.19-7.01,22.86-18,25.96-31.72,10.44-4.76,21.6-9.67,32.73-10.63,4.97-.43,9.93-.07,14.82,1.43,11.44,3.52,20.77,13.23,23.84,24.81,5.53,20.88-8.99,42.21-26.59,54.74-17.6,12.53-38.63,19.65-55.93,32.6-8.66,6.48-16.41,14.12-22.84,22.67,3.56.03,7.16.25,10.75.63.46.05.91.1,1.36.15,3.45.4,6.87.93,10.22,1.56,8.67,1.67,18.36,4.46,26.98,6.34.95.21,1.91.41,2.86.6,8.99,1.8,18.04,2.67,27.16,2.75,26.35-20.24,110.87-48.87,92.58-135.3Zm-216.23,9.26h.29c.79.59,1.17.94,1.48,1.32.33.34.16.87.33,1.34.26.63.55,1.39,1.12,1.82.13.08.26.15.41.14.06,0,.12-.02.18-.06l.24.16c-.24.43-.59.63-1,.66-.99.09-2.27-.79-2.86-1.42-.49-.5-1.18-1.03-1.18-1.81-.04-.75.19-1.57,1-2.16Zm142.19,113.37c-7.52,4.44-14.03,8.29-18.79,11.91-9.18-.1-18.18-1.01-26.76-2.73-.95-.19-1.9-.39-2.85-.6-3.68-.8-7.65-1.79-11.48-2.75-5.18-1.29-10.54-2.63-15.52-3.59-3.51-.66-6.96-1.18-10.27-1.57-.46-.05-.91-.1-1.37-.15-3.17-.33-6.3-.54-9.33-.61,6.15-7.94,13.47-15.12,21.79-21.34,8.93-6.68,19.05-11.9,28.85-16.95,9.13-4.71,18.56-9.57,27.07-15.63,16.14-11.49,32.86-32.93,26.88-55.54-3.12-11.8-12.68-21.74-24.34-25.33-4.72-1.45-9.67-1.93-15.1-1.46-10.85.94-21.36,5.4-32.98,10.69l-.34.15-.08.36c-2.72,12.06-12.06,23.44-25.6,31.23-.39.22-.78.44-1.17.66-2.4,1.35-4.88,2.75-6.82,4.81-2.27,2.4-3.99,6.34-3.14,9.49-.51.37-1.12.59-1.8.65-1.99.17-4.15-1.03-5.03-2.79-1.47-2.94-.31-6.42,1.27-8.69,1.53-2.21,3.7-3.98,5.79-5.7.43-.35.86-.71,1.29-1.06,7.03-5.89,12.87-12.95,17.34-20.96.85-1.52,1.76-3.3,1.81-5.24.06-1.94-.98-4.24-3.08-4.89-.54-.17-1.11-.22-1.76-.16-.69.06-1.37.24-2,.42-13.82,4.03-26.34,15.47-32.78,29.91-6.32-.25-11.51-1.38-15.87-3.46-1.66-.79-3.12-1.7-4.47-2.77h0s0,.89,0,.89l-.71-.92.7.02h0c-2.46-1.96-4.29-4.4-5.57-7.42.78-.33,1.56-.66,2.35-1-.07.3-.09.61-.08.94,0,.95.68,1.6,1.18,2.08l.22.22c.68.72,2.17,1.76,3.46,1.65.68-.06,1.25-.43,1.59-1.04l.33-.6-1.18-.81-.27.14c-.29-.24-.53-.82-.75-1.34l-.05-.12c-.02-.05-.03-.19-.04-.34-.02-.35-.06-.83-.44-1.23-.24-.29-.53-.57-.92-.89,7.98-3.61,16.44-8.16,23.72-14.47,9.51-8.24,15.55-18.5,17.07-28.94,6.88-1.91,12.89-3.96,18.23-6.21l.32.56c1.33-.62,2.64-1.45,3.89-2.44,3.27-1.55,6.08-3.09,8.58-4.7,3.43-2.21,6.65-4.87,9.56-7.9l4.46-3.05v-.39c.02-.62.02-1.25.02-1.87,8.68-11.64,12.76-26.42,11.25-40.28,6.48,11.99,8.15,26.44,4.31,38.56l-.43,1.35,1.36-.4c.08-.02,8.59-2.51,20.78-3.56,28.34-2.45,77.86,2.71,90.99,64.74,6.56,31.02.64,57.17-18.11,79.95-15.89,19.31-37.69,32.19-55.2,42.53Z"/><path class="cls-2" d="m420.86,229.96c-13.13-62.03-62.64-67.19-90.99-64.74-12.19,1.05-20.7,3.54-20.78,3.56l-1.36.4.43-1.35c3.84-12.12,2.17-26.57-4.31-38.56,1.51,13.86-2.57,28.64-11.25,40.28,0,.62,0,1.25,0,1.87v.39s-4.47,3.05-4.47,3.05c-2.91,3.04-6.13,5.69-9.56,7.9-2.5,1.61-5.31,3.15-8.58,4.7-1.25.99-2.56,1.82-3.89,2.44l-.32-.56c-5.35,2.25-11.35,4.3-18.23,6.21-1.51,10.44-7.56,20.7-17.07,28.94-7.27,6.31-15.73,10.86-23.72,14.47.4.32.68.6.92.89.39.4.42.88.44,1.23,0,.15.02.29.04.34l.05.12c.21.52.46,1.1.75,1.34l.27-.14,1.18.81-.33.6c-.34.61-.9.99-1.59,1.04-1.29.11-2.79-.93-3.46-1.65l-.22-.22c-.49-.48-1.17-1.13-1.18-2.08-.02-.33.01-.64.08-.94-.79.34-1.58.67-2.35,1,1.28,3.02,3.11,5.45,5.57,7.42l.47-.59c-2.17-1.73-3.83-3.85-5.04-6.44.18-.08.36-.15.54-.23.11,1.15.87,1.89,1.39,2.39.07.07.14.14.19.19.73.77,2.41,2.03,4.08,1.89.94-.08,1.71-.59,2.18-1.43l.66-1.19-1.13-.77-.24-.16-.76-.52-.08.04c-.11-.21-.2-.45-.29-.65l-.02-.04c-.01-.06-.01-.12-.01-.18-.03-.38-.07-1.07-.61-1.66-.06-.07-.12-.13-.18-.2,7.73-3.56,15.85-8.02,22.88-14.12,9.5-8.23,15.59-18.47,17.24-28.92,6.73-1.89,12.62-3.91,17.88-6.12l.32.56c1.36-.64,2.7-1.47,3.97-2.48,3.27-1.56,6.08-3.1,8.59-4.71,3.46-2.23,6.71-4.9,9.64-7.96l4.08-2.79.64-.43.02-.77c.01-.53.02-1.08.01-1.64,7.89-10.68,11.98-23.95,11.52-36.76,4.96,11.07,6,23.76,2.57,34.57l-.85,2.69,2.71-.8c.08-.02,8.51-2.49,20.64-3.54,13.46-1.16,33.23-.69,50.93,8.14,20.33,10.15,33.54,28.99,39.26,56.01,6.51,30.78.64,56.73-17.96,79.32-15.81,19.21-37.54,32.05-55,42.36-7.43,4.39-13.88,8.2-18.65,11.8-9.05-.11-17.92-1.02-26.37-2.71-.94-.19-1.89-.38-2.84-.6-3.67-.8-7.63-1.79-11.46-2.74-5.19-1.3-10.56-2.63-15.56-3.6-3.51-.66-6.99-1.19-10.32-1.57-.46-.05-.92-.1-1.38-.15-2.67-.28-5.32-.47-7.91-.57,5.91-7.43,12.88-14.16,20.73-20.03,8.88-6.64,18.98-11.85,28.74-16.89,9.15-4.72,18.61-9.6,27.16-15.69,16.34-11.63,33.25-33.37,27.17-56.35-3.19-12.04-12.94-22.19-24.85-25.86-4.82-1.48-9.85-1.97-15.39-1.49-10.97.95-21.54,5.43-33.22,10.76l-.68.31-.16.73c-2.68,11.85-11.88,23.06-25.25,30.75-.38.22-.77.44-1.16.66-2.45,1.38-4.98,2.81-7,4.95-2.22,2.35-4.09,6.22-3.45,9.64-.3.14-.64.23-1.01.26-1.67.14-3.56-.9-4.3-2.38-1.32-2.65-.17-5.93,1.22-7.93,1.47-2.12,3.5-3.78,5.65-5.55.43-.36.87-.71,1.29-1.07,7.1-5.95,13-13.08,17.51-21.17.89-1.6,1.85-3.47,1.91-5.58.06-2.22-1.15-4.87-3.6-5.63-.63-.2-1.3-.26-2.04-.19s-1.48.25-2.14.45c-13.88,4.05-26.46,15.44-33.04,29.86-5.99-.29-10.93-1.39-15.07-3.37-1.61-.77-3.02-1.65-4.32-2.68l-.47.59c1.34,1.07,2.8,1.98,4.47,2.77,4.35,2.08,9.55,3.21,15.87,3.46,6.44-14.44,18.95-25.88,32.78-29.91.63-.18,1.31-.36,2-.42.65-.06,1.22,0,1.76.16,2.09.65,3.13,2.95,3.08,4.89-.06,1.94-.96,3.72-1.81,5.24-4.47,8.01-10.31,15.07-17.34,20.96-.43.36-.86.71-1.29,1.06-2.1,1.72-4.26,3.49-5.79,5.7-1.58,2.28-2.74,5.76-1.27,8.69.88,1.76,3.05,2.96,5.03,2.79.68-.06,1.29-.28,1.8-.65-.85-3.15.87-7.09,3.14-9.49,1.94-2.06,4.42-3.46,6.82-4.81.39-.22.78-.44,1.17-.66,13.55-7.79,22.88-19.18,25.6-31.23l.08-.36.34-.15c11.62-5.3,22.12-9.76,32.98-10.69,5.44-.47,10.38,0,15.1,1.46,11.66,3.59,21.22,13.53,24.34,25.33,5.99,22.61-10.74,44.05-26.88,55.54-8.51,6.06-17.94,10.92-27.07,15.63-9.79,5.05-19.92,10.27-28.85,16.95-8.32,6.22-15.64,13.4-21.79,21.34,3.03.07,6.16.27,9.33.61.46.05.92.1,1.37.15,3.31.38,6.76.91,10.27,1.57,4.98.96,10.34,2.3,15.52,3.59,3.83.96,7.79,1.95,11.48,2.75.95.21,1.9.41,2.85.6,8.58,1.72,17.58,2.64,26.76,2.73,4.76-3.62,11.27-7.47,18.79-11.91,17.51-10.35,39.3-23.22,55.2-42.53,18.75-22.78,24.67-48.93,18.11-79.95Z"/><path class="cls-2" d="m218.22,248.47c.24-.02.49-.05.74-.1l.03.26c.17,1.49,1.2,2.88,2.69,3.64.86.47,1.83.68,2.81.59,2.83-.24,5-2.7,4.86-5.48-.02-1.43-.6-2.73-1.64-3.68-1.15-1.05-2.82-1.6-4.46-1.45-.42.04-.84.12-1.24.24-1.02.27-1.94.78-2.76,1.24-.85.47-1.66.92-2.35.98-.35.03-.68-.04-1.02-.23l-1.07-.57-.79.92-.19.22-.87,1.03.93.98c.71.75,2.04,1.61,4.32,1.41Zm-3.23-3.61l.53.29c.47.25.94.36,1.44.31.85-.07,1.73-.56,2.65-1.07.83-.46,1.68-.93,2.58-1.17.36-.11.73-.19,1.11-.22,1.43-.12,2.88.35,3.89,1.26.9.82,1.39,1.92,1.39,3.13.14,2.4-1.73,4.52-4.17,4.73-.85.07-1.68-.11-2.38-.5-1.28-.64-2.16-1.81-2.31-3.07l-.06-.49,1.07-.63.39.25c.6.39,1.35.6,1.95.55.31-.03.56-.12.74-.27.49-.72.49-1.07.45-1.14-.06-.11-.5-.31-1.45-.23-.7.06-1.49.26-2.17.56-.9.31-1.74.5-2.5.57-1.59.14-2.84-.26-3.71-1.18l-.46-.49,1.02-1.2Zm7.36,2.56c.18-.03.36-.06.53-.07.18-.02.34-.02.46-.02-.02.03-.04.07-.06.1-.06.03-.15.05-.26.06-.2.02-.44,0-.68-.07Z"/></g><path class="cls-2" d="m291.84,171.42c.02-.7.02-1.4,0-2.1-1.31,1.74-2.71,3.4-4.21,4.97l4.21-2.88Z"/><path class="cls-2" d="m269.58,186.83c-.31.15-.62.29-.93.43l-2.88,1.97c1.37-.65,2.64-1.46,3.81-2.4Z"/><path class="cls-2" d="m206.44,249.33s0,0,.01,0c.04-.03.08-.06.13-.1-.04.03-.09.06-.14.09Z"/><g><path class="cls-2" d="m267.22,125.23c4.54,6.41,3.92,14.95.99,21.87-7.74,17.22-24.78,25.64-41.18,33.78,1.83-10.91-1.06-23.04-10.05-29.85,8.62,7.5,10.9,19.84,8.42,30.66-3.81,1.89-7.57,3.79-11.16,5.79-13.48,7.4-26.55,18.36-30.59,33.86-1.49,5.63-1.58,11.82.22,17.39-5.52,20.63,18.89,32.7,30.9,15.59-11.71,14.83-32.62,5.08-29.71-12.61.4.84.84,1.66,1.34,2.45,3.87,6.69,13.66,10.33,20.06,5.16,0,0,0,0-.01,0-6.51,4.64-15.68.94-19.2-5.69-.72-1.22-1.32-2.49-1.8-3.81,1.69-6.66,6.7-14.29,16.67-22.1,9.61-8.6,19.16-18.36,23.4-30.87.4-1.14.74-2.31,1.02-3.49,16.97-8.6,35.11-17.56,42.63-35.88,2.7-7.16,3.05-16.02-1.93-22.25Zm-43.21,61.09c-4.48,12.07-13.7,21.51-23.27,29.86-8.93,7.15-13.95,14.15-16.21,20.45-1.07-4.88-.75-10.1.64-14.86,4.3-14.91,16.8-25.36,30.07-32.48,3.04-1.71,6.21-3.36,9.45-5.01-.21.69-.44,1.37-.69,2.03Z"/><path class="cls-2" d="m201.71,263.38c-3.19.28-6.31-.34-8.97-1.58-7.06-3.29-12.82-11.68-9.92-23.03-1.68-5.4-1.74-11.67-.15-17.67,3.52-13.49,13.98-25.1,31.08-34.48,3.55-1.98,7.25-3.85,10.77-5.6,1.95-9.08.81-21.39-8.2-29.22-.41-.35-.46-.97-.12-1.38.34-.42.95-.49,1.38-.17,9.56,7.24,11.81,19.33,10.71,28.9,15.78-7.84,31.7-16.17,39.02-32.45,3.26-7.68,2.93-15.5-.89-20.89-.31-.44-.22-1.05.21-1.38.43-.33,1.04-.25,1.38.17,4.62,5.76,5.4,14.45,2.09,23.22-7.54,18.39-25.2,27.34-42.28,35.99l-.42.22c-.27,1.07-.58,2.12-.94,3.14-4.32,12.75-13.93,22.57-23.68,31.29-8.78,6.88-14.39,14.23-16.29,21.3.45,1.18.99,2.3,1.61,3.36,1.81,3.41,5.26,6.05,9.04,6.94,3.16.75,6.26.19,8.72-1.56.37-.27.88-.24,1.22.05.23.19.37.48.36.78,0,.3-.13.59-.37.77-2.83,2.28-6.5,3.13-10.34,2.42-4.44-.83-8.6-3.65-10.95-7.43.04,6.32,3.39,11.7,9.05,14.2,6.63,2.93,14.15.73,19.14-5.6.33-.42.95-.51,1.38-.18.43.32.53.93.22,1.38-3.88,5.53-8.96,8.05-13.87,8.47Zm-17.18-23.13c-.05.24-.1.48-.14.72.1-.09.22-.15.34-.19-.07-.18-.14-.35-.2-.53Zm.04-2.61c.07.26.15.51.23.77.1-.32.2-.64.31-.96-.16.11-.35.18-.55.19Zm38.37-51.33c-2.37,1.22-4.82,2.51-7.21,3.86-16.03,8.59-25.98,19.32-29.6,31.89-1.07,3.65-1.45,7.38-1.14,10.95,2.94-5.99,8.01-11.9,15.12-17.59,8.71-7.6,18.24-17.01,22.84-29.1Zm-16.77,26.32c-1.6,1.5-3.2,2.93-4.78,4.31-2.26,1.81-4.31,3.64-6.14,5.48,1.87-1.86,3.95-3.69,6.24-5.48,1.57-1.4,3.14-2.84,4.68-4.31Zm20.26-30.98c-.02.09-.04.18-.06.28-.07.29-.26.54-.53.67-3.62,1.8-7.45,3.72-11.11,5.77-2.31,1.27-4.5,2.58-6.56,3.93,2.08-1.34,4.28-2.63,6.61-3.88,3.15-1.78,6.41-3.46,9.47-5.01.36-.18.79-.13,1.1.13.03.03.07.06.1.09.04-.16.08-.33.12-.49.07-.29.26-.53.52-.66l.84-.42c.14-.07.29-.15.43-.22-.3.08-.63.03-.88-.15-.01,0-.02-.02-.04-.03Z"/></g></g><g><path class="cls-3" d="m193.01,393.16l2.07-.74s4.14-1.48,4.14-1.48c2.57-.77,5.8-1.89,8.41-2.56,1.71-.43,4.6-1.27,6.38-1.65,2.03-.42,4.4-1.01,6.44-1.37,1.13-.19,4.22-.74,5.4-.93.36-.06.72-.1,1.09-.14,0,0,2.17-.28,2.17-.28,5.35-.7,10.77-1.08,16.18-1.12,8.49-.05,16.99.74,25.29,2.45.39.08.79.16,1.18.25,1.7.37,3.39.77,5.07,1.22,8.61,2.26,16.83,5.68,25.19,8.8,2.7,1,5.41,1.98,8.15,2.87,40.05,13.57,84.4,4.59,120.56-15.65,0,0-.78-1.46-.78-1.46-14.35,3.42-28.43,6.76-42.95,8.43-12.26,1.48-24.7,1.85-36.99.73-10.96-.99-21.67-3.13-32.11-6.63-.88-.3-1.76-.6-2.64-.91-7.94-2.81-16.79-6.61-24.8-9.24-3.09-1-6.28-1.91-9.49-2.7-.42-.1-.85-.21-1.28-.31-3.63-.85-7.3-1.54-10.94-2-3.46-.48-7.07-.8-10.59-.96-.58-.03-1.16-.05-1.73-.06-2.29-.12-5.08-.02-7.39-.01-21.43.64-43.07,7.38-61.4,17.91-1.76,1.06-5.25,3.16-6.94,4.2-2.56,1.78-6.06,4.07-8.49,5.96-4.89,3.7-9.55,7.66-13.9,11.96,0,0,.84,1.43.84,1.43,10.88-6.18,22.15-11.66,33.85-15.99Z"/><path class="cls-3" d="m386.52,419.16c-12.26,1.48-24.7,1.85-36.99.73-11.89-1.08-23.48-3.5-34.75-7.55-5.47-1.94-11.37-4.34-17.13-6.51-2.6-.98-5.18-1.91-7.67-2.73-6.99-2.25-14.42-4.09-21.71-5.01-.1-.01-.2-.03-.3-.04-.39-.05-.78-.1-1.18-.15-3.58-.44-7.28-.73-10.84-.83-2.29-.12-5.08-.02-7.39-.01-3.52.11-7.04.38-10.56.8-17.89,2.16-35.53,8.31-50.84,17.11-1.76,1.06-5.25,3.16-6.94,4.2-2.56,1.78-6.06,4.07-8.49,5.96-4.89,3.7-9.55,7.66-13.9,11.96,0,0,.84,1.43.84,1.43,10.88-6.18,22.15-11.66,33.85-15.99l2.07-.74s4.14-1.48,4.14-1.48c2.57-.77,5.8-1.89,8.41-2.56,1.71-.43,4.6-1.27,6.38-1.65,2.03-.42,4.4-1.01,6.44-1.37,1.13-.19,4.22-.74,5.4-.93.36-.06.72-.1,1.09-.14,0,0,2.17-.28,2.17-.28,2.05-.27,4.11-.49,6.17-.66,10.68-.9,21.52-.48,32.07,1.38.41.07.82.15,1.23.22,2.77.52,5.53,1.14,8.25,1.86,11.39,2.99,22.1,8.01,33.35,11.67,20.9,7.08,42.98,8.02,64.45,4.42,19.67-3.3,38.83-10.4,56.11-20.08,0,0-.78-1.46-.78-1.46-14.35,3.42-28.43,6.76-42.95,8.43Z"/></g></g></svg>