<?xml version="1.0" encoding="utf-8"?>
<!-- Generator: Adobe Illustrator 23.0.1, SVG Export Plug-In . SVG Version: 6.00 Build 0)  -->
<svg version="1.1" id="Capa_1" xmlns="http://www.w3.org/2000/svg" xmlns:xlink="http://www.w3.org/1999/xlink" x="0px" y="0px"
	 viewBox="0 0 538.6 538.6" style="enable-background:new 0 0 538.6 538.6;" xml:space="preserve">
<style type="text/css">
	.st0{fill:#FFAC27;}
	.st1{fill:#3B3B3B;stroke:#B6D05C;stroke-width:0.5;stroke-miterlimit:10;}
	.st2{fill:#FB9A2D;}
	.st3{fill:#3B3B3B;}
	.st4{fill:#F6F6F6;}
</style>
<circle class="st0" cx="269.3" cy="269.3" r="269.3"/>
<circle class="st1" cx="269.3" cy="269.3" r="261.2"/>
<path class="st2" d="M225.8,51.8c13.5,0,19.6,4.5,23.6,17.7c2.3,8.1,7.2,15.2,14,20.2c4.4,3.2,8,3,12.3-0.2
	c6.5-4.8,11.3-10.9,13.3-18.7c4.6-17.8,15.2-21.6,31.6-18.3c40.6,8,76.9,25.6,108.9,51.9c9.5,7.9,18.4,16.4,26.8,25.5
	c3,3.2,5.4,6.9,7.2,10.9c3.7,8.4,3.2,16.4-3.5,23.2c-5.9,5.9-10.2,13.3-12.3,21.4c-2.3,8.5-14.7,15.3-24.3,14.2
	c-22.7-2.8-44.6,1.7-66.2,8.2c-9.1,2.8-16.1,9.1-21.4,17.1c-8.7,12.9-17,26.2-26.2,38.6c-7.2,9.6-17.2,16.5-26.7,23.8
	c-2.2,1.6-4.6,1.3-7,0c-3.6-2-7.9-2.2-11.6-0.4c-5.4,2.7-9.5,0.9-13.7-2.2c-12.4-9.3-23.1-20-31.5-33.3
	c-7.1-11.2-13.5-22.9-22.9-32.5c-5.1-5.4-11.6-9.3-18.8-11.4c-15-4.2-30.4-6.9-45.9-8.1c-4.2-0.3-8.4-0.1-12.5,0.5
	c-13,2.1-25.6-5.7-29.5-18.4c-1.4-4.8-3.9-9.1-7.4-12.7c-13.3-13-12.2-24.6-0.2-38c32.5-36.5,72.6-61.3,119.8-74.4
	C209.7,54.3,217.5,51.6,225.8,51.8L225.8,51.8z"/>
<path class="st3" d="M294.7,236.3c-6.1,8.2-12.6,17.2-19.5,26c-2.7,3.5-6.5,4.1-9.7,0.3c-6.8-7.9-13.4-16-20-24
	c-3.7-4.4-3.6-8.7,0.1-13.3c5.9-7.4,11.3-15.2,17.1-22.7c4.5-5.9,7.2-6,12.1-0.4c6.3,7.3,12.5,14.8,18.6,22.2
	C296.1,227.7,297.4,231.3,294.7,236.3L294.7,236.3z"/>
<path class="st4" d="M175.6,226.4c6.7,3.8,12.6,9.1,17,15.5c5.2,7.5,10.7,14.8,15.4,22.6c9,14.7,21.3,26,35.2,35.9
	c0.8,0.5,1.5,1.1,2.2,1.8c1.2,1.2,2.6,2.6,1.4,4.4c-1,1.5-2.8,1.2-4.2,0.7c-4.5-1.5-9-3.1-13.4-4.9c-15.6-6.6-32.2-6.3-48.7-7.2
	c-10.6-0.6-21.3,0.3-31.6-3.5c-5.1-1.9-9.9-4-13.8-7.8c-14.4-13.9-28.3-28.2-37.3-46.4c-6.9-13.7-3.6-19.7,11.7-21.1
	c21-1.9,41.2,2.3,61.3,7.7C172.5,224.8,174.1,225.5,175.6,226.4L175.6,226.4z"/>
<path class="st4" d="M362.1,226.4c-6.7,3.8-12.6,9.1-17,15.5c-5.2,7.5-10.7,14.8-15.4,22.6c-9,14.7-21.3,26-35.2,35.9
	c-0.8,0.5-1.5,1.1-2.2,1.8c-1.2,1.2-2.6,2.6-1.4,4.4c1,1.5,2.8,1.2,4.2,0.7c4.5-1.5,9-3.1,13.4-4.9c15.6-6.6,32.3-6.3,48.7-7.2
	c10.6-0.6,21.3,0.3,31.6-3.5c5.1-1.9,9.9-4,13.8-7.8c14.4-13.9,28.3-28.2,37.3-46.4c6.9-13.7,3.6-19.7-11.6-21.1
	c-21-1.9-41.2,2.3-61.3,7.7C365.3,224.8,363.7,225.5,362.1,226.4L362.1,226.4z"/>
<g>
	<path class="st2" d="M233.1,371.6c8.5-11,17.6-23.2,27.1-35c3.8-4.7,8.9-5.4,13.2-0.2c9,11,17.9,22,26.7,33.1
		c4.9,6.1,4.7,11.9-0.4,18.1c-8.2,10-15.8,20.4-23.8,30.5c-6.2,7.9-10,8-16.5,0.2c-8.5-10.1-16.6-20.4-24.9-30.7
		C231,383.2,229.2,378.3,233.1,371.6L233.1,371.6z"/>
	<path class="st2" d="M183,431.1c8.5-11,17.6-23.2,27.1-35c3.8-4.7,8.9-5.4,13.2-0.2c9,10.9,17.9,22,26.7,33.1
		c4.9,6.1,4.7,11.9-0.4,18.1c-8.2,10-15.8,20.4-23.8,30.5c-6.2,7.9-9.9,8-16.5,0.2c-8.5-10.1-16.6-20.4-24.9-30.7
		C180.8,442.7,179.1,437.8,183,431.1L183,431.1z"/>
	<path class="st2" d="M284.1,432.8c8.5-11,17.6-23.2,27.1-35c3.8-4.7,8.9-5.4,13.2-0.2c9,10.9,17.9,22,26.7,33.1
		c4.9,6.1,4.7,11.9-0.4,18.1c-8.2,10-15.8,20.4-23.8,30.5c-6.2,7.9-10,8-16.5,0.2c-8.5-10.1-16.6-20.4-24.9-30.7
		C282,444.5,280.3,439.6,284.1,432.8z"/>
</g>
</svg>
