<?xml version="1.0" encoding="UTF-8"?><svg id="Capa_1" xmlns="http://www.w3.org/2000/svg" viewBox="0 0 566.93 566.93"><defs><style>.cls-1,.cls-2,.cls-3{fill:#fff;}.cls-4{fill:#000100;}.cls-2{font-size:24.73px;}.cls-2,.cls-3{font-family:Centauri, Centauri;stroke:#fff;stroke-miterlimit:10;}.cls-5{fill:#252223;}.cls-6{fill:#f1842d;}.cls-3{font-size:23.47px;}</style></defs><path class="cls-4" d="m86.02,86.04c109.04-109.05,285.82-109.05,394.88,0,109.04,109.03,109.04,285.82,0,394.87-109.06,109.03-285.84,109.03-394.88,0-109.02-109.05-109.02-285.84,0-394.87Z"/><path class="cls-1" d="m89.59,89.59c107.08-107.07,280.69-107.07,387.73,0,107.1,107.07,107.1,280.67,0,387.74-107.04,107.08-280.65,107.08-387.73,0-107.08-107.07-107.08-280.67,0-387.74Z"/><path class="cls-6" d="m94.52,94.65c104.37-104.28,273.49-104.28,377.68,0,104.38,104.28,104.38,273.36,0,377.59-104.18,104.33-273.31,104.33-377.68,0-104.1-104.23-104.1-273.31,0-377.59Z"/><path class="cls-4" d="m433.43,433.41c-82.82,82.82-217.05,82.82-299.94,0-82.81-82.74-82.81-217.09,0-299.86,82.9-82.86,217.13-82.86,299.94,0,82.82,82.78,82.82,217.13,0,299.86Z"/><path class="cls-1" d="m142.81,424.11c-77.66-77.71-77.66-203.6,0-281.27,77.74-77.67,203.64-77.67,281.31,0,77.67,77.67,77.67,203.56,0,281.27-77.67,77.63-203.56,77.63-281.31,0Z"/><text class="cls-2" transform="translate(150.71 95.22) rotate(-31.03) scale(1 1.2)"><tspan x="0" y="0">M</tspan></text><text class="cls-2" transform="translate(179.05 77.99) rotate(-22.39) scale(1 1.2)"><tspan x="0" y="0">A</tspan></text><text class="cls-2" transform="translate(212.29 64.4) rotate(-13.91) scale(1 1.2)"><tspan x="0" y="0">R</tspan></text><text class="cls-2" transform="translate(243.15 56.72) rotate(-5.98) scale(1 1.2)"><tspan x="0" y="0">S</tspan></text><text class="cls-2" transform="translate(274.76 53.37) rotate(1.82) scale(1 1.2)"><tspan x="0" y="0">P</tspan></text><text class="cls-2" transform="translate(306.73 54.9) rotate(6.55) scale(1 1.2)"><tspan x="0" y="0">I</tspan></text><text class="cls-2" transform="translate(312.85 55.04) rotate(11.32) scale(1 1.2)"><tspan x="0" y="0">D</tspan></text><text class="cls-2" transform="translate(344.03 61.24) rotate(19.29) scale(1 1.2)"><tspan x="0" y="0">E</tspan></text><text class="cls-2" transform="translate(374.07 71.71) rotate(27.25) scale(1 1.2)"><tspan x="0" y="0">R</tspan></text><text class="cls-2" transform="translate(402.32 86.21) rotate(35.15) scale(1 1.2)"><tspan x="0" y="0">S</tspan></text><text class="cls-3" transform="translate(124.03 480.16) rotate(35.51) scale(1 1.2)"><tspan x="0" y="0">R</tspan></text><text class="cls-3" transform="translate(150.44 498.87) rotate(28.22) scale(1 1.2)"><tspan x="0" y="0">E</tspan></text><text class="cls-3" transform="translate(178.96 514.07) rotate(20.94) scale(1 1.2)"><tspan x="0" y="0">D</tspan></text><text class="cls-3" transform="translate(209.22 525.55) rotate(13.63) scale(1 1.2)"><tspan x="0" y="0">S</tspan></text><text class="cls-3" transform="translate(240.68 533.07) rotate(6.27) scale(1 1.2)"><tspan x="0" y="0">K</tspan></text><text class="cls-3" transform="translate(272.91 536.54) rotate(-1.22) scale(1 1.2)"><tspan x="0" y="0">Y</tspan></text><text class="cls-3" transform="translate(305.51 535.3) rotate(-5.72) scale(1 1.2)"><tspan x="0" y="0"> </tspan></text><text class="cls-3" transform="translate(312.29 535.06) rotate(-10.08) scale(1 1.2)"><tspan x="0" y="0">C</tspan></text><text class="cls-3" transform="translate(344.03 529.32) rotate(-17.29) scale(1 1.2)"><tspan x="0" y="0">R</tspan></text><text class="cls-3" transform="translate(374.86 519.62) rotate(-24.55) scale(1 1.2)"><tspan x="0" y="0">E</tspan></text><text class="cls-3" transform="translate(404.83 506.35) rotate(-33.55) scale(1 1.2)"><tspan x="0" y="0">W</tspan></text><g><path class="cls-5" d="m303.54,248.42c13.5-14.66,25.11-30.86,38.06-46.54-.8-19.81-1.61-39.76-2.41-59.71-.11-2.76-1.65-4.77-3.26-6.78-5.6-7-11.23-13.97-16.73-21.04-1.23-1.58-4.2-2.73-2.08-5.63l-.07-.05c10.99,10.8,24.03,19.07,36.05,29.44-3.74,2.32-2.69,6.02-2.27,9.56,2.41,20.11,4.84,40.21,7.25,60.18-10.79,10.17-19.3,22.01-28.67,33.7,7.59.34,12.14-1.62,20.64-8.22,33.81-26.3,64.62-56.03,96.31-84.72,9.24-8.37,13.1-21.27,19.87-31.83,1.28-1.99,1.31-5.37,4.83-5.5,0,0-.2-.14-.2-.14-6.43,19.34-12.86,38.68-19.5,58.67-1.42-1.73-2.34-2.84-3.97-4.82-22.5,22.64-44.86,45.15-67.1,67.53-2.41-.21-.8-3.07-3.55-3.47-17.45,15.71-34.52,33.09-59.01,39.76.16.68.31,1.36.47,2.04,10.55,4.27,21.56,7.68,31.56,13.01,19.09,10.17,38.43,10.22,59.29,6.79,22.28-3.66,44.31-7.9,66.53-14.4-11.84,9.82-70.86,32.58-101.57,39.36-1.12-2.68,2.36-4.45,1.04-7.99-23.62-5.13-47.12-12.93-70.08-22.24-6.98,3.19-13.72,6.27-20.53,9.38-5.49-2.56-10.86-4.94-16.12-7.56-2.99-1.49-5.75-1.98-8.48.38l-.05-.14c-21.87,7.86-43.78,15.63-67.1,20.42,1.19,2.94,2.03,5.01,3.28,8.09-35.98-9.82-70.87-20.39-102.58-39.65,29.8,10.4,61.02,13.2,91.93,17.65,3.03.44,6.01.89,9.08-.35,18.75-7.59,37.54-15.07,56.91-23.75-24.02-7.12-40.58-24.78-58.37-39.7-2.66.21-2.3,2.43-3.9,3.5-22.65-22.47-45.35-44.99-68.04-67.5-2.04.14-1.46,2.39-3.15,3.63-7.1-20.66-14.13-41.13-21.17-61.6.27-.13.54-.27.8-.4,6.57,11.21,13.12,22.43,19.7,33.64,1.54,2.63,2.88,5.32,5.28,7.44,33.09,29.2,64.9,59.87,100,86.77,4.6,3.53,9.44,6.01,15.22,6.55.59,1.3,1.41,1.37,2.54.46-.52-.57-.98-1.07-1.44-1.58-8.58-10.88-16.51-22.33-27.76-32.93,2.26-19.79,4.65-41.32,7.26-62.82.34-2.85,1.02-5.34-3.41-6.7,12.07-9.37,23.33-18.1,34.59-26.83.31.33.62.66.94.98-6.62,8.74-13.24,17.49-20.13,26.59-1,19-2.03,38.44-3.06,57.88-.14,2.64.35,5.02,2.09,7.17,12.11,14.91,24.16,29.87,36.26,44.78.4.49,1.24.62,2.34,1.13,1.21-5.37-3.08-9.26-2.88-14.21,2.02-2.94,5.65-3.75,8.56-6.29-.32,3.71-.59,6.74-.84,9.63,6.42,5.57,16.15,5.78,23.19.56,1.19-3.6-.24-6.76-2.17-10.41,4.59.82,6.69,4.93,10.51,6.39-.9,3.65-1.68,6.82-2.46,9.99-.79.93-1.66,1.83-1.16,3.23,1.34,1.12,2.22.58,2.89-.75Z"/><path class="cls-5" d="m259.83,287.58c2.84,4.02,7.81,3.31,11.65,5.13,3.91,1.86,8.17,2.96,12.84,4.59,7.53-2.57,15.48-5.28,23.81-8.12,5.31,7.57,7.18,16.51,11.76,24.55,3.63,1.72,7.54,3.57,11.94,5.66,6.14,14.52,12.51,29.34,18.67,44.25,1.79,4.34,4.08,8.13,7.52,11.41,16.32,15.59,32.5,31.32,48.74,47-.54.61-1.07,1.21-1.61,1.82-19.96-13.43-39.92-26.86-59.95-40.34-1.76-2.39,2.65-2.03,1.05-5.92-11.96-10.04-15.86-28.32-28.55-40.99-5.67,19.54-15.25,34.97-33.12,43.83-17.57-8.6-27.49-23.73-31.87-42.8-4.47-.09-6.94,1.54-8.31,4.97-5.48,13.7-13.54,25.82-22.6,36.55-.64,2.61,2.67,1.98,2,4.41-20.46,13.25-40.24,28.09-61.71,40.39l-.16.16c4.69-1.5,6.13-6.25,9.24-9.33,12.78-12.64,25.28-25.58,38.11-38.17,4.49-4.41,7.75-9.31,10.1-15.15,5.64-14.01,11.69-27.86,17.79-42.3,16.67-3.75,17.69-19.1,22.61-31.74,0-.02.05.12.05.12Z"/><path class="cls-6" d="m348.89,393.85c3.92,2.66,7.47,5.07,11.13,7.56-45.13,32.56-110.77,28.82-150.69.16,3.43-3.13,7.04-5.79,11.22-7.62,42.61,23.47,85.14,23.23,128.34-.1Z"/><path class="cls-6" d="m235.71,171.81c-.97-5.18.03-9.42.41-14.31,32.27-11.43,64.46-11.65,97.06.14v14.16c-32.56-13.13-65-13.02-97.47,0Z"/><path class="cls-6" d="m199.27,377.67c-3.43,3-6.29,5.5-9.85,8.62-22.06-20.64-35.21-46.34-40.98-77.19,5.48.64,9.87,2.25,14.32,4.34,5.63,24.69,17.61,45.77,36.51,64.24Z"/><path class="cls-6" d="m379.48,386.61c-3.83-2.67-6.63-5.55-9.29-9.28,17.89-17.73,30.29-38.56,35.95-63.74,3.8-2.4,8.39-3.51,14.21-4.49-5.16,30.85-18.94,56.21-40.87,77.51Z"/><path class="cls-6" d="m146.83,282.02c.67-22.67,6.81-43.18,17.48-63.04,4.11,2.51,6.7,5.84,9.9,9.35-8.66,17.24-13.73,35.5-14.27,54.64-4.97,1.23-8.66-1.29-13.12-.95Z"/><path class="cls-6" d="m394.47,228.03c3.45-3.12,6.26-5.66,9.47-8.57,12.35,19.12,16.82,39.97,18.3,62.18-4.47.76-8.4,1.42-12.98,2.2-.99-19.78-5.49-38.18-14.78-55.81Z"/><path class="cls-6" d="m206.64,189.02c-4.87,4.54-9.53,8.88-14.26,13.29-3.81-2.02-6.37-5.15-9.49-8.52,7.22-8.34,15.38-15.32,25.62-21.96-.68,6.27-1.24,11.44-1.87,17.19Z"/><path class="cls-6" d="m386.46,193.93c-3.29,3-6.08,5.55-9.43,8.62-4.69-4.29-9.29-8.49-14.03-12.83-1.56-5.26-2.03-10.78-2.15-17.41,10,5.82,17.56,13.17,25.61,21.62Z"/><path class="cls-5" d="m471.05,111.27c-.92-.87-.43-1.62.12-2.49,1.18,1.09.45,1.72-.33,2.35.01,0,.21.14.21.14Z"/><path class="cls-5" d="m317.12,108.72s-.05-.03-.07-.05c0,0,.07.05.07.05Z"/><path class="cls-5" d="m251.77,111.08c-.95-1.53.52-.98.55-.58.21-.12-.24.14-.69.4l.14.18Z"/><path class="cls-5" d="m251.63,110.9c.21,1.03-.21,1.64-1.23,1.84-.32-.32-.64-.65-.94-.98.64-.7,1.18-1.7,2.32-.68,0,0-.14-.18-.14-.18Z"/><path class="cls-5" d="m162.09,423.98l.09.21s-.22-.1-.24-.07c-.01.02.15-.13.15-.13Z"/></g></svg>