<svg enable-background="new 0 0 113.3 113.4" viewBox="0 0 113.3 113.4" xmlns="http://www.w3.org/2000/svg"><path d="m113.3 56.7c0 31.4-25.4 56.7-56.7 56.7s-56.7-25.4-56.6-56.8c0-31.3 25.4-56.6 56.7-56.6 31.2 0 56.6 25.4 56.6 56.7zm-56.8 55.4c30.6 0 55.4-24.8 55.5-55.3 0-30.7-24.8-55.5-55.3-55.6-30.6 0-55.5 24.8-55.5 55.4-.1 30.6 24.7 55.5 55.3 55.5z" fill="#e84439"/><path d="m56.5 112.1c-30.6 0-55.4-24.9-55.4-55.5s24.9-55.4 55.5-55.4 55.4 24.9 55.3 55.6c.1 30.5-24.8 55.3-55.4 55.3zm-23.7-13.9c-.1-.5-.2-1.1-.3-1.6.4.2.8.4 1.5.7-.6-2.3-1.2-4.3-1.7-6.4-.2-.8-.6-1.3-1.2-1.8-3.6-2.9-6.7-6.2-9.3-10.1-.1-.2-.2-.5-.5-.4v8.7c-.1.4.1 1-.6 1.1-.3-.2-.6-.7-1-.7-2 0-3.9 0-6.1 0 3.6 5.1 7.8 9.2 12.7 12.5 2.2-.6 4.3-1.1 6.4-1.7.2-.1.2-.2.1-.3zm70.3-43.3c-.2-.9-1.1-1.4-1.6-2-1.4-1.4-2.8-2.8-4.3-4.3.3 3 .5 5.7 2.2 8 1.3 1.7 2 3.9 3.4 5.5h1.2c.1.2-.1.6.3.8 1.7-1 3.4-2 5.2-3 0-3.3.2-6.5-.4-9.9-1.7 1.7-3.4 3.2-4.7 4.9-.5 0-.9 0-1.3 0zm-92.5 7.2c1.2-2.1 2.3-4.3 3.6-6.3 1.5-2.2 1.3-4.6 1.7-7-1.8 1.7-3.5 3.4-5.2 5.1-.3.3-.6.6-.7 1-.4 0-.8 0-1.2 0-1.4-1.7-3.1-3.2-4.8-4.9-.5 3.5-.5 6.7-.4 10 1.8 1 3.5 2 5.3 3.1 0-.4.1-.5.1-.7.6-.3 1.2.7 1.6-.3zm.1 2.8c-.4.1-.8.2-1.2.3-1.7-1.4-3.6-2.3-5.7-3.5.5 3.7 1 7.1 2.1 10.3 2 .4 3.8 1.2 5.7 1.4.6-.1 1.2 0 1.4-.8.5-2.1 1-4.2 1.7-6.2 1.1-3.1.9-6.2.4-9.5-1.5 2.7-3.2 5.2-4.4 8zm89.4 7.6c.1.8.9.6 1.4.8 2-.2 3.8-.9 5.8-1.4 1-3.3 1.7-6.6 2.1-10.3-2 1.4-4 2.1-5.7 3.5-.4-.1-.8-.2-1.2-.3-1.3-2.7-2.9-5.2-4.6-8.1-.1 1.2-.1 2-.2 2.8-.2 1.9-.2 3.7.4 5.5.7 2.5 1.3 5 2 7.5zm-86.1 3.3c-.4.1-.8.2-1.2.2-.3-.4-.4-.9-1-1-1.7-.4-3.5-.9-5.5-1.5 1.6 4.7 3.6 8.8 6.2 12.6h6.2c-2.2-3-4.1-5.9-5.5-9.1.3-.3.6-.6 1-.5 1.6 2.9 3.1 5.9 5.5 8.7 0-2.3-.1-4.3 0-6.3.1-2.1-.2-4.1-1.2-6.1-.9-1.7-1.4-3.5-1.9-5.3-.1-.4 0-1-.6-1.4-.7 2.7-1.4 5.3-2.1 7.9-.1.6-.1 1.2.1 1.8zm85 .4c.5.2.2 1 .7 1.2-.5 1.2-1.1 2.4-1.9 3.4-.4.1-1 .1-.4.8-.8 1.6-2 3-3 4.6h6.2c2.6-3.9 4.6-8 6.1-12.6-1.8.5-3.4.9-5 1.3-.7.2-1.2.5-1.4 1.2-.4 0-.9 0-1.3.1.2-.5.3-.9.4-1.2-.8-2.9-1.6-5.8-2.4-9-.5 1.7-.8 3.3-1.5 4.7-2 3.8-2.4 7.9-2.1 12.1v1.4c0 .3-.2.7.3.9 2.1-2.9 3.7-5.9 5.3-8.9zm-19.3 21c .2.4.5.8.7 1.3 2.2.6 4.3 1.1 6.4 1.7 5-3.4 9.2-7.4 12.7-12.5-2.2 0-4.1 0-6 0-.3 0-.6.3-.9.4-.3-.3-.5-.5-.8-.8 0-2.9 0-5.8 0-8.8-.1.1-.2.1-.3.1-2.7 4.1-6 7.6-9.8 10.7-.4.4-.7.8-.8 1.3-.5 1.8-1 3.6-1.4 5.4 0 .4-.4.9.2 1.2zm-45.6-5.9c-.1-.1-.2-.1-.3 0 0 .1.1.1.1.2.6 2.4 1.2 4.9 1.8 7.5-2.5.7-5 1.4-7.8 2.2 9.8 6.1 20.2 9 31.4 8.4 9.3-.5 17.8-3.3 26-8.4-2.8-.8-5.3-1.5-7.8-2.2.7-2.6 1.3-5.1 1.9-7.6-.3 0-.4 0-.4.1-.3.2-.6.4-1 .6-9.3 5.6-19.3 7.1-30 5-5-1-9.6-3.1-13.9-5.8zm25.3-63.9c-.9 2.2-1.8 4.2-2.8 6.5-1-2.3-1.9-4.4-2.8-6.5-4.8 0-9.4 0-14.1 0-5.6 9.7-11.2 19.4-16.8 29 2.4 4.1 4.7 8.2 7.1 12.2 2.3-.3 4.5-.5 6.9-.8-1.5 2-2.8 3.8-4.2 5.6 2.4 4.1 4.7 8.1 7 12h33.7c2.3-4 4.6-8 7-12.1-1.4-1.8-2.7-3.6-4.2-5.5 2.5.3 4.7.6 6.9.8 2.4-4.1 4.7-8.2 7.1-12.2-5.6-9.7-11.2-19.4-16.8-29.1-4.7.1-9.3.1-14 .1zm-52.9 22.8c.4-3.5 1.1-6.9 2.2-10.2 2.1-6.4 5.4-12.2 9.6-17.3.3-.4 1-.7.6-1.8-8 7.6-12.7 16.7-14.7 27.4.9.6 1.5 1.2 2.3 1.9zm87.8-29.2c-.2.1-.4.3-.6.4 3.5 4.1 6.5 8.5 8.7 13.4s3.7 10 4.2 15.4c.8-.7 1.5-1.3 2.2-1.9-2-10.7-6.7-19.8-14.5-27.3zm-85 32.1c.9-.7 1.4-1.4 1.5-2.4 1.1-9.5 4.8-17.8 10.9-25.2.3-.3.7-.6.5-1.1-5.1 1.5-14.4 20.3-13.8 27.9.2.2.5.5.9.8zm95.5-.9c.1-8.4-9.6-27.7-13.9-27.7-.1.5.3.7.6 1.1 6.1 7.3 9.8 15.7 10.9 25.1.1 1.1.6 1.8 1.5 2.4zm-78.7-25.4c-4.8 2-13.3 17.2-12.3 22 1-1.3 2.5-2 2.9-3.7 1.5-6.4 4.6-11.9 8.7-17 .2-.4.7-.7.7-1.3zm73.4 22.1c.3-6-8.4-21.3-12.4-22 0 .6.4.9.7 1.2 3.9 4.8 7 10.1 8.4 16.2.5 2 1.8 3.1 3.3 4.6zm-58.3-34c .2-.4.4-.7.5-1 .3-.9.1-1.6-.4-2.3-.5-.6-1.3-.8-2-.6-1 .2-1.9.6-2.9 1.2.9 2.4 1.8 4.7 2.7 6.9.5 0 .8-.1 1.1-.4-.3-.9-.7-1.8-1.1-2.8 1.9-.4 2.9 1.3 4.4 1.6.4 0 .7-.2 1.2-.5-1.2-.8-2.4-1.4-3.5-2.1zm29.1-2.2c-1.1-.2-2.1-.4-3-.9 0-1 .6-1.8.5-2.7-.3-.2-.6-.3-1.1-.1-.6 2.3-1.3 4.7-1.9 7.1.4.2.7.4 1.1.2.3-1.1.6-2.2 1-3.3 1.1.3 2.1.6 3.1.9-.3 1.2-.6 2.3-.9 3.4.4.2.7.4 1.1.2.7-2.4 1.3-4.8 2-7.2-.4-.1-.7-.2-1.1-.3-.3.9-.5 1.8-.8 2.7zm-21.3-4.2c-.5-.1-.8-.1-1.2.2.3 1.5.7 3 1 4.5.2.8.3 1.6-.6 2.1-1.1.7-2.2.2-2.5-1.2-.4-1.6-.7-3.2-1.1-4.9-.4.1-.8.1-1.1.5.4 1.7.7 3.5 1.2 5.2.4 1.4 1.6 2 3.2 1.6s2.4-1.4 2.2-2.9c-.4-1.7-.8-3.4-1.1-5.1zm15.3.1c-.9-.6-1.8-.8-2.7-.7-1.2.1-2.1.7-2.2 1.8-.2 1.2.3 2 1.4 2.5.7.3 1.4.4 2 1 .2.6.3 1.3-.5 1.6-1.4.6-2.3-.3-3.4-1-.2.5-.3.9-.1 1.3 1.2.8 1.9 1 3 .9 1.2-.1 2.1-.8 2.3-1.9.2-1.2-.3-2-1.4-2.4-.7-.3-1.6-.3-2-1.1-.1-1.9.9-2.1 3.6-.6 0-.2.1-.4.1-.6-.1-.4-.1-.6-.1-.8zm9.2 9.4c.8-1.8 1.5-3.4 2.2-5.1.5-.1 1.2.3 1.2-.7-.9-.3-1.7-.9-2.6-1-.8.7.4.8.4 1.3-.7 1.7-1.4 3.3-2.1 5-.5 0-1.1-.5-1.1.6.8.4 1.7.7 2.5 1.1.7-.7-.2-.8-.5-1.2zm-19.9-3.5c-.2-1.9-.3-3.7-.4-5.4.1-.5 1.3-.2.7-1.2-.9.1-1.8 0-2.7.2-.5 1 .5.7.8 1 .1 1.8.3 3.6.4 5.3-.2.5-1.3.4-.6 1.3.9-.1 1.8 0 2.7-.3.3-.9-.5-.7-.9-.9z" fill="#fffdfc"/><path d="m59.4 27.4h14c5.6 9.6 11.2 19.3 16.8 29.1-2.3 4.1-4.7 8.1-7.1 12.2-2.2-.3-4.4-.5-6.9-.8 1.5 1.9 2.8 3.7 4.2 5.5-2.3 4-4.6 8-7 12.1-11.2 0-22.4 0-33.7 0-2.3-4-4.6-8-7-12 1.3-1.8 2.7-3.6 4.2-5.6-2.4.3-4.6.6-6.9.8-2.4-4.1-4.7-8.1-7.1-12.2 5.6-9.7 11.2-19.3 16.8-29h14.1c.9 2 1.8 4.2 2.8 6.5 1-2.4 1.9-4.5 2.8-6.6zm-23 10.7c-.4 6.1-.3 12.1 1.1 18 1.1 4.5 3.3 8.3 7.1 10.9 1.9 1.3 3.7 2.7 5.7 4 2.8 1.9 5.4 3.9 6.4 7.5.8-2.8 2.5-4.7 4.6-6.3 2.6-1.9 5.4-3.7 8-5.7 3.2-2.5 5.3-5.6 6.3-9.5 1.7-6.3 1.8-12.7 1.4-19.1.1-.3 0-.6-.1-.9-.2.3-.3.6-.2.9-.1.2-.1.5-.2.7-1.2 5.3-3.9 9.6-8.7 12.4-1.4.8-2.8 1.8-4.1 2.8-3 2.3-5.9 4.7-7 8.8-.8-3-2.7-5.1-4.8-7-2-1.7-4.1-3.2-6.3-4.6-1.2-.8-2.4-1.6-3.5-2.6-3-2.9-4.6-6.5-5.4-10.5.1-.3 0-.6-.2-.9-.2.5-.3.8-.1 1.1z" fill="#e5281e"/><path d="m34.1 91.3c4.3 2.7 8.9 4.7 13.9 5.7 10.6 2.1 20.6.6 30-5 .3-.2.6-.4 1-.6.1 0 .2 0 .4-.1-.6 2.5-1.3 5-1.9 7.6 2.6.7 5 1.4 7.8 2.2-8.1 5.1-16.7 7.9-26 8.4-11.2.6-21.6-2.3-31.4-8.4 2.8-.8 5.2-1.5 7.8-2.2-.6-2.6-1.2-5-1.8-7.5.1.1.1 0 .2-.1zm24.7 9.9v.2c-.5 1.3.1 2.5.3 3.8.6 0 1 0 1.5.1-.7 1.2-1.7 1.8-2.5 2.6.1.6.5.8.9 1.1 1.3-.7 2.3-1.8 3.1-3h .4c.1.4.2.9 0 1.3-.4.3-1 0-1.2.6-.1.4.1.7.5 1 .7.1 1.4 0 2.1-.4.8-1.2-.2-2.5.2-3.8.6.2.1.8.5.9 1.2.7 2.4 1.3 3.6 2 .5-.3.8-.5.7-1.1-.9-.8-2-1.2-3-1.9.4-.2 1 0 1.3-.7-.1-.9-.3-2.1-.4-3-.4-.5-.8-.3-1.1-.4 0-.1 0-.1 0-.2.7-.1 1.5.1 2-.6.1-.5-.1-.8-.5-1-1.3.2-2.6.3-3.9.5-.6-.3-.7-.9-1.3-1.1-.8.1-1.1.6-.8 1.4-1.4.3-2.7.2-3.9.7-.2.5-.1.9.3 1.1.3-.1.8-.1 1.2-.1zm-12.9-2.3c1.2.2 2.5.4 3.7.6 0 .9-.1 1.6-.4 2.3-1.2 0-2.3-.5-3.4-.3-.3.5-.3.9 0 1.3 1 .2 2.1.3 3.3.5-.2 1.1-.3 2.2-.5 3.3-1.5.1-2.9-.5-4.3-.3-.3.4-.3.8 0 1.3 3.3.4 6.6.9 9.9 1.4.5-.4.6-.8.4-1.4-1.4-.2-2.9-.5-4.5-.7.2-1.2.3-2.3.4-3.4.4 0 .7-.1.9.1-.1 1.6 1.2 2.3 1.5 3.5.6-.1 1-.2 1.2-.6-.1-1-1-1.7-1.1-2.6.5-.2 1 .1 1.4-.2.2-.3.3-.7 0-1.2-1.1-.2-2.3-.4-3.6-.6.1-.8.2-1.6.4-2.4 1.4.2 2.7.3 3.9.5.5-.5.6-.9.2-1.4-3-.4-6.1-.8-9.1-1.2-.5.5-.6.9-.3 1.5z" fill="#e73b33"/><path d="m32.7 98.4c-2.1.6-4.2 1.1-6.4 1.7-4.9-3.3-9.1-7.4-12.7-12.5h6.1c.5 0 .7.4 1 .7 3.4 4 7.4 7.3 12 9.9.1.1.1.2 0 .2z" fill="#e73c34"/><path d="m92.6 88c .3-.1.6-.4.9-.4h6c-3.5 5.1-7.7 9.1-12.7 12.5-2.1-.6-4.3-1.1-6.4-1.7.9-1 2.1-1.4 3.1-2.2 3.4-2.3 6.5-4.9 9.1-8.2z" fill="#e73c34"/><path d="m21.3 87.2c0-2.9 0-5.8 0-8.7.3-.1.4.2.5.4 2.5 3.9 5.7 7.2 9.3 10.1.6.5 1 1.1 1.2 1.8.5 2.1 1.1 4.1 1.7 6.4-.6-.3-1.1-.5-1.5-.7-4.2-2.5-7.9-5.7-11.2-9.3z" fill="#e73b33"/><path d="m79.7 97.2c-.6-.3-.2-.8-.1-1.2.4-1.8.9-3.6 1.4-5.4.1-.5.4-1 .8-1.3 3.8-3.1 7.1-6.6 9.8-10.7 0-.1.1-.1.3-.1v8.8c-3.7 3.8-7.7 7.2-12.2 9.9z" fill="#e73b33"/><path d="m13.3 77.1c1.4 3.2 3.3 6.1 5.5 9.1-2.2 0-4.1 0-6.2 0-2.6-3.8-4.6-7.9-6.2-12.6 2 .5 3.7 1 5.5 1.5.6.1.7.6 1 1 0 .3.1.7.4 1z" fill="#e73c34"/><path d="m100.3 76.1c.3-.7.8-1 1.4-1.2 1.6-.4 3.1-.8 5-1.3-1.5 4.6-3.6 8.7-6.1 12.6-2 0-4 0-6.2 0 1-1.6 2.2-3 3-4.6.3-.2.4-.4.4-.8.8-1.1 1.3-2.2 1.9-3.4.3-.4.5-.9.6-1.3z" fill="#e73c34"/><path d="m99 76.2c-1.6 3.1-3.2 6.1-5.4 8.8-.4-.2-.2-.6-.3-.9 0-.5 0-.9 0-1.4-.3-4.2.1-8.3 2.1-12.1.7-1.3 1-2.9 1.5-4.7.9 3.2 1.6 6.1 2.4 9-.1.4-.2.8-.3 1.3z" fill="#e73b33"/><path d="m14 75.8c-.2-.6-.2-1.2 0-1.8.7-2.6 1.4-5.2 2.1-7.9.5.4.5 1 .6 1.4.5 1.8 1 3.7 1.9 5.3 1 1.9 1.3 3.9 1.2 6.1-.1 2 0 3.9 0 6.3-2.4-2.8-3.9-5.8-5.5-8.7 0-.2-.1-.5-.3-.7z" fill="#e73b33"/><path d="m6.5 50.2c-.8-.7-1.5-1.3-2.2-1.9 2-10.7 6.7-19.8 14.7-27.4.4 1.1-.3 1.4-.6 1.8-4.3 5.2-7.5 11-9.6 17.3-1.1 3.3-1.9 6.7-2.3 10.2z" fill="#e94a3e"/><path d="m94.3 21c7.8 7.4 12.5 16.5 14.5 27.3-.7.6-1.4 1.2-2.2 1.9-.6-5.4-2-10.5-4.2-15.4s-5.2-9.3-8.7-13.4c.2-.1.4-.2.6-.4z" fill="#e94a3e"/><path d="m9.3 53.1c-.3-.3-.6-.6-.9-.9-.6-7.5 8.7-26.4 13.8-27.9.2.6-.2.8-.5 1.1-6.1 7.3-9.8 15.7-10.9 25.2-.1 1.1-.6 1.9-1.5 2.5z" fill="#e94a3e"/><path d="m104.8 52.2c-.3.3-.6.6-.9.9-.9-.6-1.4-1.3-1.5-2.4-1.1-9.5-4.8-17.8-10.9-25.1-.3-.3-.6-.6-.6-1.1 4.3.1 14 19.3 13.9 27.7z" fill="#e94a3e"/><path d="m103.6 65.2c1.6-1.4 3.7-2.2 5.7-3.5-.4 3.7-1.1 7-2.1 10.3-1.9.5-3.8 1.2-5.8 1.4 1-2.7 1.9-5.4 2.2-8.2z" fill="#e73c34"/><path d="m11.7 73.4c-1.9-.2-3.7-.9-5.7-1.4-1.1-3.3-1.7-6.6-2.1-10.3 2.1 1.2 4 2.1 5.7 3.5.3 2.8 1.1 5.5 2.1 8.2z" fill="#e73b33"/><path d="m9.1 62.4c0 .2 0 .3-.1.7-1.8-1.1-3.6-2.1-5.3-3.1-.1-3.3-.1-6.5.4-10 1.7 1.8 3.4 3.2 4.8 4.9-.4 2.5-.2 5 .2 7.5z" fill="#e73b33"/><path d="m104.3 54.9c1.4-1.7 3-3.1 4.7-4.9.6 3.4.5 6.6.4 9.9-1.7 1-3.5 2-5.2 3-.4-.2-.2-.6-.3-.8.5-2.4.7-4.8.4-7.2z" fill="#e73b33"/><path d="m26.1 26.8c0 .7-.5 1-.8 1.4-4 5.1-7.2 10.6-8.7 17-.4 1.7-1.9 2.4-2.9 3.7-.9-5 7.6-20.1 12.4-22.1z" fill="#e84238"/><path d="m99.5 48.9c-1.5-1.4-2.8-2.6-3.3-4.6-1.5-6.1-4.6-11.3-8.4-16.2-.3-.4-.7-.7-.7-1.2 4 .7 12.7 15.9 12.4 22z" fill="#e84238"/><path d="m100.1 72.5c-.7-2.5-1.2-5-2-7.5-.6-1.8-.6-3.6-.4-5.5.1-.8.1-1.6.2-2.8 1.6 2.9 3.3 5.4 4.6 8.1-.2 1-.4 2-.7 2.9-.5 1.7-.6 3.5-1.7 4.8z" fill="#e73c34"/><path d="m10.7 64.9c1.2-2.7 3-5.2 4.5-8.1.4 3.4.6 6.5-.4 9.5-.7 2-1.1 4.1-1.7 6.2-.6-.2-.6-.9-.7-1.3-.8-2.1-1.3-4.2-1.7-6.3z" fill="#e73c34"/><path d="m10 54.9c.1-.4.4-.7.7-1 1.7-1.7 3.4-3.5 5.2-5.1-.4 2.4-.2 4.9-1.7 7-1.4 2-2.4 4.2-3.6 6.3-.4-.1-.2-.5-.3-.7-.4-2.2-.2-4.3-.3-6.5z" fill="#e73b33"/><path d="m102.8 62.1c-1.4-1.7-2.1-3.8-3.4-5.5-1.7-2.3-1.9-5-2.2-8 1.5 1.5 3 2.9 4.3 4.3.6.6 1.4 1.1 1.6 2 0 2.4.1 4.8-.3 7.2z" fill="#e73b33"/><path d="m41.2 14.9c1.2.7 2.3 1.3 3.5 2-.5.3-.8.5-1.2.5-1.5-.3-2.5-2-4.4-1.6.4 1.1.7 1.9 1.1 2.8-.3.3-.6.4-1.1.4-.9-2.3-1.8-4.6-2.7-6.9.9-.6 1.9-.9 2.9-1.2.8-.2 1.5 0 2 .6.5.7.8 1.5.4 2.3-.2.4-.3.7-.5 1.1zm-3.4-2.3c.3.8.5 1.6 1 2.3.8-.3 1.7-.4 1.8-1.5.1-.8-.3-1.4-1.1-1.5-.5.2-1.1.3-1.7.7z" fill="#e84439"/><path d="m70.3 12.7c.3-1 .6-1.8.8-2.7.4.1.7.2 1.1.3-.7 2.5-1.3 4.9-2 7.2-.5.2-.8 0-1.1-.2.3-1.1.6-2.2.9-3.4-1-.3-2-.6-3.1-.9-.3 1.1-.7 2.2-1 3.3-.4.2-.7 0-1.1-.2.6-2.3 1.3-4.7 1.9-7.1.4-.3.7-.1 1.1.1.1 1-.5 1.8-.5 2.7.9.5 1.8.7 3 .9z" fill="#e84439"/><path d="m79.7 97.2c4.5-2.7 8.6-6.1 12.1-10l .8.8c-2.6 3.3-5.8 5.8-9.2 8.2-1 .7-2.2 1.2-3.1 2.2-.1-.4-.4-.8-.6-1.2z" fill="#fdeae2"/><path d="m49 8.5c.4 1.7.8 3.4 1.1 5.1.3 1.5-.6 2.6-2.2 2.9-1.5.3-2.8-.2-3.2-1.6-.5-1.7-.8-3.5-1.2-5.2.3-.4.7-.4 1.1-.5.4 1.7.7 3.3 1.1 4.9.3 1.4 1.3 1.9 2.5 1.2.9-.5.8-1.3.6-2.1-.3-1.5-.6-3.1-1-4.5.4-.3.7-.4 1.2-.2z" fill="#e9473b"/><path d="m64.3 8.6v.6s-.1.4-.1.6c-2.8-1.4-3.7-1.2-3.6.6.5.7 1.3.8 2 1.1 1.1.5 1.6 1.2 1.4 2.4-.2 1.1-1.1 1.8-2.3 1.9-1.1.1-1.9-.2-3-.9-.2-.4 0-.9.1-1.3 1 .8 2 1.7 3.4 1 .7-.3.7-1 .5-1.6-.5-.6-1.3-.7-2-1-1.1-.5-1.6-1.3-1.4-2.5.2-1 1-1.7 2.2-1.8 1 .1 1.9.3 2.8.9z" fill="#e84439"/><path d="m21.3 87.2c3.3 3.6 7 6.8 11.1 9.4.1.5.2 1 .3 1.5-4.6-2.6-8.6-5.8-12-9.9.7 0 .5-.6.6-1z" fill="#fdeae2"/><path d="m73.5 18c .3.4 1.2.5.3 1.2-.8-.4-1.7-.7-2.5-1.1 0-1.1.7-.6 1.1-.6.7-1.7 1.4-3.4 2.1-5 0-.5-1.1-.6-.4-1.3.9.1 1.7.7 2.6 1 0 1-.7.6-1.2.7-.5 1.7-1.2 3.3-2 5.1z" fill="#e84439"/><path d="m53.6 14.5c.4.2 1.2 0 .9.9-.9.3-1.8.2-2.7.3-.7-.9.4-.8.6-1.3-.1-1.7-.3-3.5-.4-5.3-.3-.3-1.3 0-.8-1 .9-.3 1.8-.2 2.7-.2.6 1-.6.7-.7 1.2.1 1.7.2 3.5.4 5.4z" fill="#e9473b"/><path d="m10.7 64.9c.5 2.1.9 4.3 1.6 6.3.2.5.1 1.1.7 1.3-.1.8-.8.7-1.4.8-.9-2.7-1.8-5.4-2.2-8.2.5 0 .9-.1 1.3-.2z" fill="#fdece5"/><path d="m100.1 72.5c1.1-1.4 1.2-3.2 1.7-4.8.3-.9.4-1.9.7-2.9.4.1.8.2 1.2.3-.4 2.8-1.2 5.5-2.2 8.2-.5-.1-1.3.1-1.4-.8z" fill="#fdece5"/><g fill="#fdeae2"><path d="m10 54.9c.1 2.2-.1 4.3.3 6.5 0 .3-.1.6.3.7-.3.9-1-.1-1.5.3-.4-2.5-.6-5-.3-7.5z"/><path d="m102.8 62.1c.3-2.4.2-4.8.3-7.2h1.2c.3 2.4.1 4.8-.3 7.2-.4 0-.8 0-1.2 0z"/><path d="m14 75.8c.2.2.3.4.3.7-.5-.1-.7.2-1 .5-.3-.3-.4-.6-.5-1 .4 0 .8-.1 1.2-.2z"/><path d="m99 76.2c.5-.1.9-.1 1.3-.1-.1.5-.3.9-.6 1.3-.5-.3-.3-1-.7-1.2z"/><path d="m97.8 80.8c0 .3-.2.6-.4.8-.6-.7.1-.7.4-.8z"/></g><path d="m33.9 91.5c0-.1-.1-.1-.1-.2.1-.1.2-.1.3 0-.1.1-.1.2-.2.2z" fill="#e73b33"/><path d="m32.7 98.4c0-.1 0-.2 0-.3.2.2.2.3 0 .3z" fill="#fdeae2"/><path d="m76.9 38c .4 6.4.3 12.8-1.4 19.1-1.1 3.9-3.1 7-6.3 9.5-2.6 2-5.3 3.8-8 5.7-2.1 1.5-3.8 3.4-4.6 6.3-1-3.6-3.6-5.6-6.4-7.5-1.9-1.3-3.8-2.7-5.7-4-3.9-2.7-6.1-6.4-7.1-10.9-1.4-6-1.5-12-1.1-18h .3c.8 4 2.4 7.6 5.4 10.5 1 1 2.2 1.8 3.5 2.6 2.2 1.4 4.4 2.9 6.3 4.6 2.1 1.9 4 4 4.8 7 1.1-4.1 4-6.5 7-8.8 1.3-1 2.7-1.9 4.1-2.8 4.8-2.8 7.5-7.1 8.7-12.4.1-.2.1-.5.2-.7.2-.1.2-.2.3-.2z" fill="#fffdfd"/><path d="m36.6 38c-.1 0-.2 0-.3 0-.2-.3-.1-.5 0-1 .4.5.4.7.3 1z" fill="#facbb8"/><path d="m76.9 38c-.1 0-.2 0-.3 0-.1-.3 0-.6.2-.9.2.3.2.6.1.9z" fill="#facbb8"/><path d="m45.9 98.9c-.3-.6-.2-1 .3-1.4 3 .4 6.1.8 9.1 1.2.4.5.3.9-.2 1.4-1.2-.1-2.5-.3-3.9-.5-.1.8-.2 1.5-.4 2.4 1.3.2 2.5.4 3.6.6.3.5.2.8 0 1.2-.4.3-.9 0-1.4.2.2.9 1.1 1.6 1.1 2.6-.2.4-.6.5-1.2.6-.3-1.2-1.6-2-1.5-3.5-.2-.1-.5 0-.9-.1-.1 1.1-.3 2.2-.4 3.4 1.5.2 3 .5 4.5.7.2.6.2 1-.4 1.4-3.3-.5-6.7-.9-9.9-1.4-.3-.5-.3-.9 0-1.3 1.4-.2 2.8.4 4.3.3.2-1.1.3-2.2.5-3.3-1.2-.2-2.3-.3-3.3-.5-.3-.5-.3-.8 0-1.3 1.1-.2 2.2.3 3.4.3.3-.7.4-1.4.4-2.3-1.2-.3-2.5-.5-3.7-.7z" fill="#fef6f4"/><path d="m62 105.9c-.8 1.2-1.8 2.2-3.1 3-.4-.2-.8-.5-.9-1.1.8-.8 1.9-1.4 2.5-2.6-.5 0-.9 0-1.5-.1-.2-1.2-.7-2.4-.3-3.8 2.2-.4 4.5-.5 6.7-1 .3.1.7-.1 1.1.4.1.9.3 2.1.4 3-.3.7-.9.5-1.3.7 1 .6 2.2 1.1 3 1.9.1.6-.3.9-.7 1.1-1.2-.6-2.3-1.3-3.6-2-.4-.1.2-.7-.5-.9-.4 1.3.6 2.6-.2 3.8-.6.4-1.3.5-2.1.4-.4-.3-.6-.6-.5-1 .3-.6.9-.3 1.2-.6.1-.4 0-.9 0-1.3 0-.5.1-1.1-.8-1 .3.5.7.7.6 1.1zm3.1-3.9c-1.6.2-3.2.4-4.8.7-.1.4-.2.7.2 1 1.6-.2 3.2-.5 4.8-.7 0-.4.1-.7-.2-1z" fill="#fef6f4"/><path d="m58.8 101.2c-.4 0-.9 0-1.3 0-.3-.3-.4-.6-.3-1.1 1.2-.5 2.6-.4 3.9-.7-.3-.8-.1-1.2.8-1.4.6.2.7.8 1.3 1.1 1.3-.2 2.6-.3 3.9-.5.4.3.6.6.5 1-.5.7-1.3.5-2 .6-2.3.3-4.6.5-6.8 1z" fill="#fef6f4"/><path d="m58.8 101.2c2.2-.5 4.5-.7 6.7-1v .2c-2.2.5-4.5.7-6.7 1 0-.1 0-.1 0-.2z" fill="#ef7e67"/><path d="m62 105.9c.1-.4-.3-.6-.4-1 .9-.1.8.5.8 1-.1 0-.2 0-.4 0z" fill="#ef7e67"/><path d="m37.8 12.6c.6-.4 1.1-.5 1.7-.7.8.2 1.2.7 1.1 1.5-.1 1-1 1.2-1.8 1.5-.5-.6-.7-1.4-1-2.3z" fill="#fef6f4"/><path d="m65.1 102c .3.3.2.5.2.9-1.6.2-3.2.5-4.8.7-.3-.3-.3-.6-.2-1 1.6-.1 3.2-.4 4.8-.6z" fill="#e94a3e"/></svg>