<?xml version="1.0" encoding="UTF-8"?><svg id="Capa_1" xmlns="http://www.w3.org/2000/svg" viewBox="0 0 566.93 566.93"><defs><style>.cls-1{fill:#fff;font-family:NasalizationRg-Regular, Nasalization;font-size:40px;}.cls-2{fill:#c81b1a;}.cls-3{fill:#749d2d;}.cls-4{fill:#1d1d1b;}</style></defs><path class="cls-2" d="m283.61,562.68c-154.55-.05-279.5-125.07-279.36-279.53C4.39,128.73,129.48,4.14,284.25,4.25c154.13.11,278.64,125.53,278.42,280.47-.21,153.15-125.57,278.01-279.06,277.96"/><path class="cls-3" d="m283.39,65.31c118.29-1.98,216.59,98.62,218.44,214.11,1.95,122.15-99.87,220.51-214.66,222.2-122.14,1.79-220.66-100.09-222.09-215.37-1.5-121.21,100.46-223.09,218.3-220.94"/><text class="cls-1" transform="translate(44.03 303.14) rotate(-90.94)"><tspan x="0" y="0">A</tspan></text><text class="cls-1" transform="translate(43.6 272.55) rotate(-84.04)"><tspan x="0" y="0">E</tspan></text><text class="cls-1" transform="translate(46.34 245.69) rotate(-77.5)"><tspan x="0" y="0">R</tspan></text><text class="cls-1" transform="translate(52.04 219.07) rotate(-70.61)"><tspan x="0" y="0">O</tspan></text><text class="cls-1" transform="translate(62.68 189.05) rotate(-63.64)"><tspan x="0" y="0">S</tspan></text><text class="cls-1" transform="translate(74.84 164.48) rotate(-57.17)"><tspan x="0" y="0">P</tspan></text><text class="cls-1" transform="translate(87.36 144.5) rotate(-50.97)"><tspan x="0" y="0">A</tspan></text><text class="cls-1" transform="translate(105.67 121.9) rotate(-44.43)"><tspan x="0" y="0">C</tspan></text><text class="cls-1" transform="translate(124.59 103.28) rotate(-37.99)"><tspan x="0" y="0">E</tspan></text><text class="cls-1" transform="translate(146.24 86.77) rotate(-33.5)"><tspan x="0" y="0"> </tspan></text><text class="cls-1" transform="translate(154.53 80.86) rotate(-29.04)"><tspan x="0" y="0">E</tspan></text><text class="cls-1" transform="translate(177.95 67.52) rotate(-21.75)"><tspan x="0" y="0">N</tspan></text><text class="cls-1" transform="translate(209.88 54.94) rotate(-14.31)"><tspan x="0" y="0">G</tspan></text><text class="cls-1" transform="translate(237.68 48.2) rotate(-9.63)"><tspan x="0" y="0">I</tspan></text><text class="cls-1" transform="translate(248.13 45.83) rotate(-4.23)"><tspan x="0" y="0">N</tspan></text><text class="cls-1" transform="translate(282.38 43.48) rotate(3.08)"><tspan x="0" y="0">E</tspan></text><text class="cls-1" transform="translate(309.35 44.89) rotate(9.53)"><tspan x="0" y="0">E</tspan></text><text class="cls-1" transform="translate(335.99 49.3) rotate(16.01)"><tspan x="0" y="0">R</tspan></text><text class="cls-1" transform="translate(362.86 57.37) rotate(20.32)"><tspan x="0" y="0">I</tspan></text><text class="cls-1" transform="translate(373.07 60.53) rotate(25.92)"><tspan x="0" y="0">N</tspan></text><text class="cls-1" transform="translate(403.86 75.66) rotate(33.49)"><tspan x="0" y="0">G</tspan></text><text class="cls-1" transform="translate(427.51 91.73) rotate(38.19)"><tspan x="0" y="0"> </tspan></text><text class="cls-1" transform="translate(435.75 97.73) rotate(42.82)"><tspan x="0" y="0">R</tspan></text><text class="cls-1" transform="translate(456.18 116.64) rotate(49.42)"><tspan x="0" y="0">E</tspan></text><text class="cls-1" transform="translate(473.8 137.08) rotate(56.03)"><tspan x="0" y="0">G</tspan></text><text class="cls-1" transform="translate(489.51 161.01) rotate(60.71)"><tspan x="0" y="0">I</tspan></text><text class="cls-1" transform="translate(495.61 169.72) rotate(67.37)"><tspan x="0" y="0">M</tspan></text><text class="cls-1" transform="translate(512.55 211.98) rotate(75.93)"><tspan x="0" y="0">E</tspan></text><text class="cls-1" transform="translate(519.38 238.07) rotate(83.23)"><tspan x="0" y="0">N</tspan></text><text class="cls-1" transform="translate(523.12 272.24) rotate(90)"><tspan x="0" y="0">T</tspan></text><text class="cls-1" transform="translate(194.27 529.67) rotate(16.85)"><tspan x="0" y="0">B</tspan></text><text class="cls-1" transform="translate(223.75 538.49) rotate(10.02)"><tspan x="0" y="0">U</tspan></text><text class="cls-1" transform="translate(254.61 543.8) rotate(3.19)"><tspan x="0" y="0">R</tspan></text><text class="cls-1" transform="translate(285.1 545.38) rotate(-3.52)"><tspan x="0" y="0">K</tspan></text><text class="cls-1" transform="translate(314.51 543.53) rotate(-10.07)"><tspan x="0" y="0">U</tspan></text><text class="cls-1" transform="translate(345.06 537.83) rotate(-16.14)"><tspan x="0" y="0">T</tspan></text><path class="cls-4" d="m432.76,143.74s7.3,116.82-110.98,156.25c0,0-12.17,4.38-16.06-41.37.49,0-3.89-8.76,20.93-1.95-.49,1.95,1.41-18.01-20.95-16.06-.46-.97-5.76-4.55-5.76-4.55,0,0-2.01-3.14-9.31-3.02l-7.3.12h-14.94s-4.23.6-8.22-3.87c-.24.36-1.21,4.83,4.59,12.81-.36-.12-6.28,18.13-6.65,29.97.12.12-2.82,28.15-14.7,28.04,0-.11-110.98-29.32-110.98-156.36,0,0-89.08,140.67,119.26,204.44,0,0,4.87,24.82,0,36.02,0-.49-21.42,39.91-21.42,39.91l18.5,26.29,18.01-28.23-10.71,34.56,27.26,30.18,26.77-29.21-10.71-35.05,17.52,27.26,20.44-23.85-22.88-43.32s-7.3-13.63,0-34.56c0,0,202.98-48.68,118.28-204.44Z"/><path class="cls-4" d="m319.59,379.9s16.55-31.64,56.71-47.7c0,0,55.25-27.5,68.39-45.51.24.97-3.16,45.03-56.95,67.17-.49,0-56.22,15.33-68.15,26.04Z"/><path class="cls-4" d="m418.64,347.05c2.88,2.77-26.12,38.08-53.06,52.08-3.73,1.94-10.73,5.19-19.71,4.87-3.32-.12-11.3-.52-17.04-6.33-1.25-1.27-5.33-5.4-4.38-9.49.97-4.21,6.73-6.12,11.2-7.54,12.53-4,18.8-5.99,32.13-9.98,18.58-5.55,33.61-13.79,38.45-16.55,9.54-5.42,11.65-7.79,12.41-7.06Z"/><path class="cls-4" d="m246.91,379.9s-16.55-31.64-56.71-47.7c0,0-55.25-27.5-68.39-45.51-.24.97,3.16,45.03,56.95,67.17.49,0,56.22,15.33,68.15,26.04Z"/><path class="cls-4" d="m147.85,347.05c-2.88,2.77,26.12,38.08,53.06,52.08,3.73,1.94,10.73,5.19,19.71,4.87,3.32-.12,11.3-.52,17.04-6.33,1.25-1.27,5.33-5.4,4.38-9.49-.97-4.21-6.73-6.12-11.2-7.54-12.53-4-18.8-5.99-32.13-9.98-18.58-5.55-33.61-13.79-38.45-16.55-9.54-5.42-11.65-7.79-12.41-7.06Z"/><polygon class="cls-4" points="284.14 120.88 294.41 148.61 325.08 148.61 301.96 167.11 309.5 196.56 284.19 180.98 258.88 196.56 266.91 168.08 241.85 148.85 273.24 149.34 284.14 120.88"/></svg>