<?xml version="1.0" encoding="UTF-8"?><svg id="Capa_1" xmlns="http://www.w3.org/2000/svg" viewBox="0 0 566.93 566.93"><defs><style>.cls-1,.cls-2{fill:#fff;}.cls-3{fill:#030303;}.cls-4{font-family:AdobeDevanagari-Regular, 'Adobe Devanagari';font-size:61px;}.cls-4,.cls-5{fill:#1d1d1b;}.cls-2{font-family:MyriadPro-Regular, 'Myriad Pro';font-size:46.34px;}</style></defs><circle class="cls-1" cx="285.25" cy="283.83" r="275.29"/><path class="cls-5" d="m285.57,450.08c100.3,0,186.52-73.34,204.18-171.9,17.57-98.07-40.7-205.68-149.5-235.62-5.15-1.42-9.2-3.23-9.42-9.41-.26-7.16,3.38-11.27,10.47-10.3,14.63,2,28.6,6.73,42.09,12.49,87.86,37.45,143.12,102.85,161.4,196.47,27.52,140.93-63.62,276.42-202.55,306.91-141.86,31.13-281.4-56.56-314.45-198.32C-5.11,199.35,81.68,57.42,224.99,23.32c10.41-2.48,16.01,2.09,14.48,11.55-.83,5.16-4.58,6.42-8.76,7.55-27.03,7.3-51.7,19.45-73.57,36.93-45.28,36.18-71.99,83.25-77.96,140.77-7.27,70,16.11,129.43,67.93,176.87,38.24,35.01,87.59,53.09,138.46,53.09Z"/><text class="cls-2" transform="translate(123.24 456.07) rotate(39.58)"><tspan x="0" y="0">D</tspan></text><text class="cls-2" transform="translate(148.75 476.87) rotate(31.85)"><tspan x="0" y="0">A</tspan></text><text class="cls-2" transform="translate(173.1 492.42) rotate(23.48)"><tspan x="0" y="0">W</tspan></text><text class="cls-2" transform="translate(212.32 508.83) rotate(14.04)"><tspan x="0" y="0">O</tspan></text><text class="cls-2" transform="translate(246.17 517.02) rotate(5.8)"><tspan x="0" y="0">N</tspan></text><text class="cls-2" transform="translate(278.36 519.72) rotate(.49)"><tspan x="0" y="0"> </tspan></text><text class="cls-2" transform="translate(287.61 520.04) rotate(-3.33)"><tspan x="0" y="0">T</tspan></text><text class="cls-2" transform="translate(309.21 519) rotate(-9.2)"><tspan x="0" y="0">A</tspan></text><text class="cls-2" transform="translate(338.98 514.01) rotate(-16.36)"><tspan x="0" y="0">C</tspan></text><text class="cls-2" transform="translate(367.01 505.58) rotate(-23.29)"><tspan x="0" y="0">B</tspan></text><text class="cls-2" transform="translate(392.58 494.62) rotate(-30.92)"><tspan x="0" y="0">O</tspan></text><text class="cls-2" transform="translate(420.87 477.27) rotate(-37.89)"><tspan x="0" y="0">T</tspan></text><text class="cls-2" transform="translate(440.39 461.96) rotate(-43.79)"><tspan x="0" y="0">S</tspan></text><text class="cls-4" transform="translate(218.81 106.93) rotate(-9.12)"><tspan x="0" y="0">अ</tspan></text><text class="cls-4" transform="translate(255.58 101.32) rotate(-2.65)"><tspan x="0" y="0">ड</tspan></text><text class="cls-4" transform="translate(281.4 100.41) rotate(-.93)"><tspan x="0" y="0">़</tspan></text><text class="cls-4" transform="translate(280.88 100) rotate(2.95)"><tspan x="0" y="0">स</tspan></text><text class="cls-4" transform="translate(310.28 101.53) rotate(8.76)"><tspan x="0" y="0">ठ</tspan></text><g><path class="cls-3" d="m367.26,363.04c-9.95-10.78-19.91-21.55-29.86-32.33-.11.06-.22.12-.33.17,1.05,4.59,2.09,9.18,3.15,13.76.97,4.16,1.94,8.32,2.97,12.47.26,1.05-.05,1.95-.44,2.86-8.46,19.79-23.16,32.65-43.73,38.58-21.26,6.12-39.87-.05-56.56-13.42-8.38-6.71-14.36-15.34-18.42-25.28-.44-1.08-.51-2.08-.23-3.25,1.94-8.05,3.81-16.12,5.68-24.19.12-.5.15-1.02.29-2.05-10.27,11.12-20.22,21.89-30.16,32.65-40.55-35.94-45.77-100.09-17.87-145.51,3.96,1.79,7.94,3.58,11.97,5.4,1.02-1.2,1.44-2.66,2.15-3.91-15.42-22.75-20.23-46.73-9.4-72.65,15.33-2.18,40.33.52,52.3,22.77,14.3-5.76,29.19-8.66,44.61-8.66,15.43,0,30.33,2.88,44.69,8.67,11.75-20.29,30.51-24.59,52.14-23.11,10.99,26.17,6.21,50.14-9.17,72.9.12.71.57,1.35,1.09,2.15,2.1-.57,4.24-1.13,6.37-1.72,2.15-.59,4.3-1.21,6.6-1.86,2.53,3.73,4.56,7.76,6.45,11.85,5.77,12.55,8.87,25.8,10.37,39.49,2.62,23.77-2.14,46.09-13.22,67.11-5.33,10.11-12.68,18.76-20.82,26.73-.13.13-.32.2-.63.39Zm-7.9-88.22c.06.02.11.03.17.05-.04,0-.07,0-.1,0-.1.16-.2.32-.3.49-.51-.13-.75.28-1.08.54-.22.17-.43.34-.65.51-8.33,5.6-16.66,11.19-25.02,16.81-1.28-1.47-2.76-2.58-3.9-4.58,7.23-7.23,14.46-14.46,21.76-21.75-8.71,5.89-17.38,11.76-26.07,17.64-1.28-1.39-2.43-2.64-3.85-4.19.73-.57,1.41-.99,1.96-1.55,6.37-6.4,12.72-12.81,19.08-19.22.37-.2.75-.39.71-.92-.51-.04-.74.28-1.01.54-7.62,5.07-15.23,10.14-22.84,15.22-4.52,3.02-9.04,6.04-13.73,9.18v-35.22c3.31-3.3,6.98-6.95,10.64-10.59-18.87-15.71-46.15-14.65-63.6.23,3.7,3.65,7.4,7.29,10.77,10.6v34.67c-12.7-8.42-25.23-16.72-37.75-25.02-.11.13-.22.26-.32.38,7.36,7.32,14.71,14.65,22.12,22.02-1.26,1.36-2.41,2.6-3.61,3.91-8.78-5.94-17.45-11.81-26.12-17.67-.12.15-.24.3-.36.45,7.33,7.31,14.65,14.62,22.04,22-1.27,1.34-2.52,2.65-3.75,3.95-8.49-5.72-16.78-11.31-25.08-16.9-.22-.16-.44-.32-.65-.48-.47-.38-.94-.75-1.41-1.13l.03.12.04-.1c-.29.88.48,1.07.95,1.45.01.3.22.41.46.49.25.3.48.62.76.9,12.15,12.13,24.3,24.25,36.45,36.38,3.5,3.5,6.97,7.03,10.28,10.38h22.46c-6.35-7.01-12.52-13.83-18.69-20.65,1.84-7.02,3.66-13.93,5.47-20.83.14.03.29.06.43.08v20.57h34.8v-20.84c.09-.01.18-.02.27-.04,1.84,7.08,3.69,14.15,5.51,21.16-6.25,6.91-12.35,13.65-18.62,20.58h22.4c4.52-4.54,9.04-9.07,13.56-13.61,11.33-11.36,22.66-22.71,33.99-34.07l.49-.51c.35-.22.88-.31.66-.93.14-.03.28-.07.44-.11-.08-.19-.13-.29-.18-.4Zm-24.62-96.68c8.19-6.86,17.42-10.31,28.31-8.76,3.26,6.13,3.67,12.75,3.82,19.4.15,6.67-.64,13.28-1.26,19.91,7.73-16.55,12.78-33.42,6.6-51.63-17.1-2.26-31.03,6.87-37.75,20.72-.25.13-.37.29-.14.6.14-.08.28-.17.42-.25Zm-101.05.05c-.52.17-.32.32.11.54-.08-.24-.12-.39-.17-.53-8.99-17.89-25.24-23.29-38.04-20.98-3.24,8.63-3.52,17.54-1.84,26.55,1.86,9.99,6.36,22.79,8.78,25.32-1.43-9.37-2.23-18.74-1.13-28.17.47-4.04,1.25-8.01,3.32-11.45.4-.13.58-.22.77-.24,10.02-1.08,18.82,1.82,26.57,8.16.45.37.72,1.3,1.61.81Zm85.66,176.82c-.5-.21-.73-.32-.97-.4-11.1-3.85-22.21-7.67-33.29-11.56-1.21-.42-2.23-.39-3.41.03-6.43,2.28-12.88,4.5-19.33,6.73-4.88,1.69-9.76,3.37-14.6,5.05,0,.32-.04.46,0,.56.21.48.42.96.67,1.42,6.18,11.44,15.64,18.78,28.09,22.29,2.89.82,5.81,1.72,8.92,1.14,7.14-1.32,13.78-3.85,19.68-8.14,6.13-4.45,10.89-10.06,14.22-17.13Zm29.5-150.7c-38.77-34.47-97.27-30.93-130.6-.06,2.91,2.91,5.83,5.83,8.79,8.78,16.27-13.45,35.08-20.55,56.47-20.54,21.37.02,40.17,7.15,56.5,20.67,2.98-2.98,5.86-5.86,8.85-8.86Zm-155.52,30.27c-18.37,35.42-11.67,77.1,7.2,102.03.3-.25.64-.48.9-.77,2.6-2.8,5.19-5.6,7.74-8.36-17.05-28.27-18.53-57.28-4.81-87.28-3.57-1.82-7.24-3.7-11.02-5.63Zm180.19,0c-3.71,1.89-7.42,3.79-11.02,5.63,13.75,30.06,12.22,59.07-4.82,87.29,2.87,3.07,5.77,6.17,8.7,9.32,20.69-28.95,24.17-69.51,7.15-102.24Zm-129.65-4.5c11.3-9.93,24.49-14.99,39.61-14.97,15.15.01,28.43,4.97,39.49,14.72,2.71-2.7,5.36-5.33,8-7.95-27.61-25.93-70.24-23.96-95.16.17,2.65,2.65,5.31,5.29,8.06,8.04Z"/><path class="cls-3" d="m283.73,249.5c1.91,12.74,3.83,25.49,5.76,38.37h-6.04v-38.45c.09.02.19.05.28.07Z"/></g></svg>