<?xml version="1.0" encoding="UTF-8"?><svg id="Capa_1" xmlns="http://www.w3.org/2000/svg" viewBox="0 0 566.93 566.93"><defs><style>.cls-1,.cls-2{fill:#fff;}.cls-3{fill:#749d2e;}.cls-4{fill:#c81718;}.cls-2{font-family:BlackGunslinger, 'Black Gunslinger';font-size:77px;}</style></defs><path class="cls-4" d="m283.61,562.68c-154.55-.05-279.5-125.07-279.36-279.53C4.39,128.73,129.48,4.14,284.25,4.25c154.13.11,278.64,125.53,278.42,280.47-.21,153.15-125.57,278.01-279.06,277.96Z"/><path class="cls-3" d="m283.61,556.33c-151.03-.05-273.14-122.23-273.01-273.17C10.73,132.25,132.98,10.49,284.24,10.6c150.63.11,272.3,122.68,272.1,274.09-.2,149.67-122.71,271.69-272.72,271.64Z"/><text class="cls-2" transform="translate(144.22 117.34) rotate(-35.41)"><tspan x="0" y="0">K</tspan></text><text class="cls-2" transform="translate(169.3 99.07) rotate(-26.81)"><tspan x="0" y="0">O</tspan></text><text class="cls-2" transform="translate(199.68 83.66) rotate(-18.49)"><tspan x="0" y="0">R</tspan></text><text class="cls-2" transform="translate(228.91 73.4) rotate(-9.45)"><tspan x="0" y="0">S</tspan></text><text class="cls-2" transform="translate(264.74 67.13) rotate(.28)"><tspan x="0" y="0">A</tspan></text><text class="cls-2" transform="translate(300.37 66.76) rotate(10.3)"><tspan x="0" y="0">N</tspan></text><text class="cls-2" transform="translate(339.89 74.03) rotate(19.75)"><tspan x="0" y="0">L</tspan></text><text class="cls-2" transform="translate(368.69 83.82) rotate(28.48)"><tspan x="0" y="0">A</tspan></text><text class="cls-2" transform="translate(400.22 100.69) rotate(37.46)"><tspan x="0" y="0">R</tspan></text><path class="cls-4" d="m283.39,74.83c113.14-1.9,207.14,94.32,208.91,204.77,1.87,116.83-95.51,210.89-205.29,212.51-116.81,1.72-211.03-95.72-212.4-205.98-1.44-115.93,96.08-213.36,208.78-211.3Z"/><g><path class="cls-1" d="m218.9,168.02c-.87,7.61-3.11,14.71-5.56,21.79-4.45-1.61-8.35-6.86-8.21-11.16.13-4.27-.37-8.51-.11-12.8.59-9.63,3.28-18.47,7.73-27.06,2.95-5.7,6.37-10.88,10.43-15.78,4.59-5.53,10.26-9.78,16.14-13.71,11.34-7.58,23.88-11.78,37.53-12.91,10.78-.89,21.24,0,31.66,3.14,10.77,3.24,20.18,8.59,28.91,15.56,8.24,6.58,14.63,14.61,19.53,23.79,2.35,4.41,4.74,8.97,5.09,14.48-1.38,2.47-4.52,2.77-6.88,4.09-7.14,3.99-14.33,7.87-21.41,11.99-10.65,6.18-20.45,13.5-30.48,20.54-10.33,7.24-20.65,14.48-30.12,22.83-3.96,3.49-8.18,2.76-12.48,1.42-8.94-2.79-17.95-5.44-26.71-8.72-5.76-2.16-11.09-5.38-15.83-10.09,6.17-8.64,2.99-17.85,1.98-26.93-.04-.37-.57-.67-1.2-.46Z"/><path class="cls-1" d="m198.3,335.29c3.45-7.31,8.22-13.92,12.2-21.22,3.96,2.43,7.68,4.84,11.52,7.05,7.48,4.31,15.02,8.51,22.54,12.74,8.41,4.72,17.08,8.96,25.78,13.11,5.68,2.71,11.51,5.1,17.27,7.62,8.18,3.57,16.49,6.82,24.89,9.85,6.28,2.27,12.57,4.51,18.92,6.57,2.09.68,3.6,1.69,4.5,4.14-3.12,5.99-6.46,12.2-11.58,17.77-16.32-3.27-31.56-10.85-47.85-15.57-.4-.33.52-.74-.05-1.32-1.13.66-1.69-.45-2.49-1.14-1.55.55-2.8.16-3.94-1.03-.91-.96-2.09-1.55-3.37-2.02-4.08-1.5-7.94-3.52-11.87-5.38-5.03-2.38-9.9-5.04-14.85-7.54-5.82-2.93-11.55-6.06-17.23-9.25-6.69-3.76-13.29-7.68-19.92-11.55-1.34-.78-2.63-1.66-4.45-2.83Z"/><path class="cls-1" d="m101.72,224.06c4.78,3.61,8.19,8.39,12.26,12.49,3.8,3.82,7.58,7.68,11.81,11.08,2.61,2.09,4.91,4.59,7.38,6.87,7.25,6.71,14.82,13.05,22.33,19.45,9.92,8.46,20.43,16.15,30.88,23.9,5.32,3.94,10.99,7.41,16.48,11.12,1.28.86,2.49,1.83,3.96,2.91-4.06,7.11-7.98,13.98-11.96,20.95-3.72-1.88-7.11-4.24-10.43-6.73-2.24-1.68-4.74-3.03-7.01-4.67-4.99-3.6-9.84-7.39-14.87-10.91-6.29-4.41-12.06-9.46-17.98-14.31-6.03-4.93-12.09-9.93-17.09-15.98-5.85-7.08-11.54-14.35-15.67-22.56-4.46-8.86-8.82-17.85-10.17-27.89-.13-.99-.59-1.94-.81-2.92-.22-.99-.49-2.06.88-2.8Z"/><path class="cls-1" d="m359.54,314.08c38.75-23.83,74.05-51.9,106.5-84.28.75,3.98-.49,6.97-1.5,9.98-1.01,3.02-1.99,6.06-3.25,8.98-3.57,8.29-7.16,16.53-12.79,23.79-3.84,4.96-7.78,9.82-11.96,14.47-2.46,2.73-5.62,4.83-8.25,7.42-3.15,3.1-6.91,5.45-10.19,8.42-2.46,2.22-5.54,3.91-8.19,6.04-7.04,5.65-14.52,10.69-22.04,15.64-5.39,3.54-10.49,7.61-17,10.37-3.74-6.88-7.51-13.8-11.33-20.82Z"/><path class="cls-1" d="m283.35,275.56c1.41,1.24,2.61,2.3,4.04,3.57,3.37-2.14,5.56-5.52,7.29-9.62,7.88,3.51,16.82,3.51,23.89,9.22,2.26-4.68,6.94-6.07,12-7.19,1.76,8.6-.91,19.79-5.63,24.49-1.6-1.18-2.49-3.59-5.37-3.45,2.13,11.5.46,22.38-4.59,33.65-2.02-8.6-4.99-16.06-8.19-23.7-.69,5.09-3.75,8.8-6.67,12.62-1.67.86-3.35,1.78-5.48,2.17-.69-3.93-1.38-7.8-2.14-12.08-1.13,2.24-1.73,4.11-1.88,6.24-.13,1.92-.9,3.79-1.4,5.7-4.35,1.35-8.7,1.08-13.2-.14-.27-3.84-.5-7.53-2.35-11.05-2.31,3.41-1.36,7.4-2.75,10.73-6.25-.2-10.85-6.64-11.44-16.44-3.91,8.29-6.62,16.39-9.59,25.45-4.09-12.04-6.53-23.27-2.82-35.05-1.82-.22-2.29,1.11-3.33,1.51-.96.37-1.65,1.46-2.57,2.34-3.18-2.62-4.95-6.14-4.96-10.07-.01-4.45-1.23-8.82-.72-13.23,3.83-1.92,9.15,1.26,13.37,7.93,1.53-.82-.02-2.63,1.59-3.81,6.87-1.92,14.24-3.97,21.88-6.1.85,3.91,3.86,6.65,6.27,9.7,2.14-.41,3.04-2.28,4.75-3.37Z"/><path class="cls-1" d="m288.5,350.24c23.33-9.86,45.64-21.06,67.28-33.92,3.81,6.94,7.61,13.85,11.53,20.98-3.37,1.89-6.45,3.65-9.55,5.37-4.28,2.38-8.53,4.8-12.86,7.08-7.2,3.79-14.15,8.07-21.7,11.19-.92.38-1.72,1.06-2.62,1.54-.89.47-1.72.51-2.51.2-4.97-1.98-9.95-3.94-14.84-6.08-4.74-2.08-9.73-3.58-14.72-6.34Z"/><path class="cls-1" d="m284.08,258.16c-1.95-2.18-3.36-3.75-4.97-5.55-3.13,3.15-4.23,6.9-5.3,10.75-8.83,2.96-17.88,5.1-26.73,7.31-2.92-2.74-5.55-5.07-8.4-7.21-4.16-3.11-6.02-6.92-2.81-12.78,2.55-4.66,2.93-4.55,8.14-2.69,4.77,1.69,9.75,2.78,14.64,4.13.1.03.24.04.33,0,5.06-2.43,11.09-3.26,14.39-8.6,4.25-6.89,8.33-13.89,12.76-20.66,1.93-2.94,5.09-4.74,8.35-6.81,2.5,5.42,4.87,10.58,7.15,15.52-2.69,3.93-8.74,3.89-9.93,9.95,2.23-1.39,3.96-2.37,6.28-2.13,3.35,4.42,7.61,7.96,13.4,8.63,5.48.64,11.06,1.02,16.2-1.9,6.43,4.36,6.6,14.84.3,19.08-3.11,2.1-6.13,4.31-8.42,7.1-8.97-2.93-17.73-5.79-26.38-8.61q-2.4-7.96-5.05-10.29c-1.25,1.51-2.51,3.05-3.94,4.78Z"/><path class="cls-1" d="m238.8,406.26c-6.58,4.22-13.54,7.56-21.18,10.18-.14-3.68,2.42-5.19,4.45-6.85,2.02-1.65,4.27-3.05,3.69-6.07-.62-3.23-3.61-5.48-6.83-6.37-1.85-.51-4.09.33-5.59-1.47.42-2.12-3.97-10.35-7.58-13.85,1.8-5.35.71-11.68,5.27-16.91,4.5-3.23,10.12-5.1,16.26-6.5-.59,1.95-.74,3.51-2.79,4.74-3.35,2-3.37,6.93-.68,10.53,3.83,5.13,6.9,10.75,10.19,16.22,1.64,2.73,3.64,5.23,4.95,8.19,1.09,2.47,1.08,4.69-.32,6.92-.28.45-.14.72.16,1.24Z"/><path class="cls-1" d="m337.75,359.79c4.67,1.6,9,2.77,12.98,4.95,3.81,2.09,5.96,5.18,6.48,9.44.4,3.21.73,6.44,1.09,9.71-3.05,1.11-3.59,4.21-5.17,6.36-1.53,2.09-2.12,4.95-3.44,7.53-3.51-.45-6.67.57-9.55,2.86-3.06,2.44-2.98,6.35-.11,8.97,1.84,1.68,3.92,3.1,5.62,4.95.64.7.19,1.71.96,2.4-3.42-.81-6.57-1.66-9.61-3.44-2.83-1.66-5.9-3.01-8.79-4.69-4.51-2.64-4.44-7.71-2.33-10.99,5.18-8.08,10.47-16.09,15.83-24.06,1.05-1.56,1.74-3.32,1.76-4.98.02-2.16-2.12-3.47-3.56-4.84-1.21-1.16-1.8-2.32-2.18-4.16Z"/><path class="cls-1" d="m172.18,411.2c-.59-4.96-3.47-8.67-5.4-13.21,11.41-7.04,24.46-10.02,37.4-13.03,3.12,4.32,5.79,8.42,6.4,13.84-2.47,1.51-5.25,2.96-7.75,4.8-3.84,2.83-8.44,3.96-12.72,5.61-5.12,1.97-10.61,3.14-16.23,3.09-.98,0-1.35-.72-1.69-1.1Z"/><path class="cls-1" d="m163.59,400.37c2.54,2.96,3.93,6.43,5.3,9.92-1.66,2.5-.54,5.95,2.28,8.24,3.26,2.65,6.7,2.59,10.67,2.14,5.96-.68,11.74-1.96,17.49-3.54,2.08-.57,4.07-1.39,5.91-2.51.53-.32.94-.54,1.74-.13-.74,2.73-2.06,4.76-4.46,6.67-3.59,2.86-7.83,4.26-11.79,6.14-2.62,1.25-5.6,2.41-8.79,2.61-1.09.07-2.45.81-3.72,1.15-1.86.5-3.67.95-5.65.66-1.67-.24-3.42.02-5.08-.26-2.28-.38-3.95-1.62-4.72-4-.68-2.12-2.32-3.77-3.57-5.51-2.03-2.84-3.04-6.15-5.03-8.98-1.82-2.59-3.02-5.61-4.5-8.44-.99-1.89-.52-2.86,1.58-3.42.67-.18,1.3-.52,1.94-.8,2.04-.88,4.03-1.49,6.26-.4,1.29.64,2.74,1.17,4.14.45Z"/><path class="cls-1" d="m353.82,399.98c.12-2.7,1.32-5.2,2.67-7.49,3.54-5.97,3.59-5.72,10.39-3.81,7.5,2.1,14.79,4.76,21.98,7.68,2.72,1.1,5.16,2.87,7.81,4.37-2.53,4.31-4.94,8.37-6.54,12.87-.64,1.79-2.69,1.06-3.8.72-2.59-.8-5.26-1.21-7.87-1.93-3.47-.96-6.83-2.13-10.01-3.74-3.66-1.85-7.4-3.57-10.72-6.05-1.19-.89-2.47-1.67-3.91-2.63Z"/><path class="cls-1" d="m333.81,243.08c8.96-6.88,10.94-14.89,8.74-24.68,7.05-5.22,5.59-13.5,7.1-21.37,7.24,8.84,14.2,17.34,21.79,26.61-3.45,12.55-8.93,24.87-13.98,36.97-3.85.7-6.76-.39-9.69-.68-1.46-.15-2.62.63-4.04.28-3.47-.86-4.74-3.54-5.86-6.42-1.36-3.51-2.67-7.04-4.07-10.71Z"/><path class="cls-1" d="m275.51,380.31c-4.02,1.61-7.37,2.9-10.85,3.91-3.49,1.02-6.83,2.56-10.32,3.6-4.25,1.27-8.63,2.08-12.83,3.54-1,.35-2.1.23-2.77-.84-3.02-4.85-6.01-9.72-9.05-14.55-.52-.83-.35-1.83-.77-2.81,1.24-2.34,3.6-3.21,6.15-3.86,2.33-.6,4.74-1.12,6.87-2.16,2.99-1.47,5.34-.21,7.88,1.01,6.43,3.11,12.88,6.16,19.33,9.23,1.89.9,3.79,1.75,6.36,2.94Z"/><path class="cls-1" d="m394.59,413.43c.89-3.94,3.07-7.05,4.82-9.55,5.48-1.49,10.36-1.96,14.54,1.88-2.28,4.48-5.08,8.65-7.54,13.02-2.24,3.99-5.25,7.47-7.18,11.7-1.38,3.03-4.85,3.24-7.84,3.33-.65.02-1.26.44-1.98.21.02-.28.04-.54.06-.78-5.14-.11-9.79-1.99-14.5-3.8-3.41-1.31-6.75-2.74-10.01-4.35-4.08-2.02-8.56-3.7-9.91-8.88.2-.19.44-.72,1.04-.42,7.68,3.8,15.99,5.52,24.28,7.3,5.36,1.15,10.12.3,13.77-4.27,1.38-1.73,1.92-3.37.45-5.38Z"/><path class="cls-1" d="m307.1,229.38c-3.05-5.58-5.96-11.1-7.82-17.33,15.57-11.22,30.84-22.69,47.91-32.45.06,9.44,2,18.49-1.33,27.18-1.8,4.69-5.19,8.5-10.07,10.21-9.69,3.41-18.85,7.96-28.7,12.38Z"/><path class="cls-1" d="m222.61,219.39c.46,6.76.87,13.38,1.38,20,.26,3.36,3.42,3.47,5.59,4.57.71.36,1.78.03,2.54,1.42-2.86,3.78-2.16,9.76-7.39,12.75h-15.19c-3.28-7.19-6.13-14.5-8.51-21.95-1.4-4.37-3.83-8.37-4.5-13.02-.16-1.13-.1-2.08.5-2.72,3.69-3.96,6.6-8.61,10.97-12.61,4.47,4.58,10.3,7.11,14.6,11.57Z"/><path class="cls-1" d="m363.46,201.51c-2.02,1.27-3.09.65-4.26-.48-4.17-4.04-5.62-9.36-6.35-14.73-.41-3.01-1.48-6.09-.62-9.54,3.39-2.59,7.47-4.57,12-6.59,1.12,10.46-1.04,20.89-.77,31.33Z"/></g><text class="cls-2" transform="translate(98.33 474.46) rotate(39.55)"><tspan x="0" y="0">Q</tspan></text><text class="cls-2" transform="translate(130.54 501.02) rotate(30.91)"><tspan x="0" y="0">A</tspan></text><text class="cls-2" transform="translate(167.26 522.51) rotate(22.49)"><tspan x="0" y="0">P</tspan></text><text class="cls-2" transform="translate(201.4 536.49) rotate(14.33)"><tspan x="0" y="0">U</tspan></text><text class="cls-2" transform="translate(240.38 545.69) rotate(7.55)"><tspan x="0" y="0"> </tspan></text><text class="cls-2" transform="translate(263.03 548.92) rotate(.97)"><tspan x="0" y="0">K</tspan></text><text class="cls-2" transform="translate(300.9 549.46) rotate(-7.69)"><tspan x="0" y="0">H</tspan></text><text class="cls-2" transform="translate(342.16 543.69) rotate(-16.78)"><tspan x="0" y="0">A</tspan></text><text class="cls-2" transform="translate(382.79 531.02) rotate(-25.19)"><tspan x="0" y="0">L</tspan></text><text class="cls-2" transform="translate(417.44 514.77) rotate(-34.25)"><tspan x="0" y="0">Q</tspan></text><text class="cls-2" transform="translate(452.55 489.94) rotate(-40.65)"><tspan x="0" y="0">I</tspan></text></svg>