<svg enable-background="new 0 0 113.4 113.4" viewBox="0 0 113.4 113.4" xmlns="http://www.w3.org/2000/svg"><circle cx="56.7" cy="56.7" r="56.7"/><circle cx="56.7" cy="56.7" fill="#ffde00" r="54.7"/><path d="m75.9 78.1c-.1 0-.1 0-.2.1-3.2-6.9-6.5-13.8-9.7-20.7-.4-5.3-.7-10.6-1.1-16h .6c3.4 12.2 6.9 24.4 10.4 36.6z"/><path d="m67.5 80.2c-.1 0-.1 0-.2 0-1.8-7.6-3.5-15.2-5.3-22.8.2-2.4.4-4.8.6-7.2 1.1 2.4 2.3 4.8 3.4 7.2.5 7.6 1 15.2 1.5 22.8z"/><path d="m64.9 41.5c.4 5.3.7 10.6 1.1 16-1.1-2.4-2.3-4.8-3.4-7.2.2-2.9.5-5.8.7-8.7.5-.1 1-.1 1.6-.1z"/><path d="m74.2 41.5c-2.9 0-5.9 0-8.8 0-.3-1-.6-2.1-.9-3.1-1 .4-1.9.7-2.9 1.1-.2-.6-.4-1.3-.6-1.9.5-7.1.9-14.2 1.4-21.3 4 8.4 7.9 16.7 11.8 25.2z"/><path d="m64.7 38.9c.1.8.1 1.7.2 2.5-.5 0-1.1 0-1.6 0 0-.2 0-.5.1-.7-.4 0-.8 0-1.2 0-.1-.4-.3-.9-.4-1.3.9-.2 1.9-.3 2.9-.5z"/><path d="m64.5 38.3c.3 1 .6 2.1.9 3.1-.2 0-.4 0-.6 0-.1-.8-.1-1.7-.2-2.5-1 .2-2 .3-3 .5 1-.4 2-.7 2.9-1.1z"/><path d="m63.3 41.5c-.2 2.9-.5 5.8-.7 8.7-1.4-2.9-2.8-5.9-4.1-8.8v-.1h2.4v.2z"/><path d="m62.6 50.2c-.2 2.4-.4 4.8-.6 7.2-1.2-5.2-2.4-10.4-3.7-15.7 0-.1.1-.2.1-.4 1.4 3 2.8 6 4.2 8.9z"/><path d="m63.3 41.5c-.8 0-1.7 0-2.5 0 0-.1 0-.1 0-.2h1.5c-.1-.2-.1-.4-.2-.6h1.2z"/><path d="m62.1 40.7c.1.2.1.4.2.6-.5 0-1 0-1.5 0 0-.2 0-.4 0-.6z"/><path d="m62.1 40.7c-.4 0-.8 0-1.3 0 0-.3 0-.7.1-1 .3-.1.5-.2.8-.3.1.4.3.9.4 1.3z"/><path d="m61.7 39.4c-.3 0-.5.1-.8.1 0-.7.1-1.4.1-2.1.3.7.5 1.3.7 2z"/><path d="m61.7 39.4c-.3.1-.5.2-.8.3 0-.1 0-.1 0-.2.3 0 .5-.1.8-.1z"/><path d="m61.1 37.4c0 .7-.1 1.4-.1 2.1-.9.1-1.7.3-2.6.4-.9-.1-1.7-.3-2.6-.4-.1-1.1-.1-2.2-.2-3.2.8-2.5 1.6-4.9 2.3-7.4.1 0 .3 0 .4-.1.9 2.9 1.8 5.7 2.8 8.6z"/><path d="m60.9 39.5v.2c-.8.3-1.5.6-2.3.9 0-.2.1-.4.1-.6-.1 0-.3 0-.4-.1.9-.1 1.8-.3 2.6-.4z"/><path d="m60.9 39.7c0 .3 0 .7-.1 1-.8 0-1.5 0-2.3 0 0-.1 0-.1 0-.2.9-.2 1.6-.5 2.4-.8z"/><path d="m60.8 40.7v.6c-.8 0-1.6 0-2.4 0 0-.2.1-.4.1-.6z"/><path d="m62 57.4c-1.2 15.4-2.5 30.7-3.7 46.1-.1 0-.2 0-.3 0-1.2-14.9-2.4-29.7-3.6-44.6 1.3-5.7 2.6-11.4 4-17.1 1.2 5.2 2.4 10.4 3.6 15.6z"/><path d="m58.8 40c0 .2-.1.4-.1.6-.2.1-.3.1-.5.2-.1-.3-.1-.5-.2-.8.1 0 .3 0 .4-.1.1 0 .2 0 .4.1z"/><path d="m58.6 40.5v.2c-.1 0-.3 0-.4 0 .1 0 .3-.1.4-.2z"/><path d="m58.6 40.7c0 .2-.1.4-.1.6 0 0 0 0-.1 0-.1-.2-.2-.4-.3-.6z"/><path d="m58.4 41.4c0 .1-.1.2-.1.4 0-.2-.1-.3-.1-.5.1 0 .1 0 .2.1 0-.1 0-.1 0 0z"/><path d="m58.3 39.9c-.1 0-.3 0-.4.1.1.3.1.5.2.8-.2 0-.3 0-.5 0-.6-.2-1.2-.5-1.8-.7 0-.2 0-.3 0-.5.8 0 1.7.2 2.5.3z"/><path d="m58.2 41.3c0 .2.1.3.1.5-1.3 5.7-2.7 11.4-4 17.1-.2-2.9-.5-5.8-.7-8.8 1.4-2.9 2.9-5.8 4.3-8.8z"/><path d="m58.1 40.7c0 .2.1.4.1.6-.1 0-.2 0-.3 0 .1-.1.1-.2.2-.4-.2-.1-.3-.1-.5-.2z"/><path d="m58.1 40.7c.1.2.2.4.3.6-.1 0-.1 0-.2 0 0-.2-.1-.4-.1-.6z"/><path d="m58.1 40.9c-.1.1-.1.2-.2.4-.7 0-1.4 0-2.1 0 0-.2 0-.4 0-.6h1.8c.2.1.4.1.5.2z"/><path d="m57.6 40.7c-.6 0-1.2 0-1.8 0 0-.2 0-.5 0-.7.6.2 1.2.5 1.8.7z"/><path d="m55.9 41.4c0-.1 0-.1 0-.2h2.1c-1.4 2.9-2.9 5.8-4.3 8.8-.2-2.9-.5-5.7-.7-8.6.9.1 1.9.1 2.9 0z"/><path d="m55.8 40.7v.6c-.6 0-1.3 0-1.9 0 .1-.2.1-.4.2-.6z"/><path d="m55.8 40v .7c-.6 0-1.1 0-1.7 0 .1-.4.3-.8.4-1.2.4.2.9.3 1.3.5z"/><path d="m55.8 39.5v.5c-.4-.2-.8-.3-1.3-.5 0-.1 0-.1.1-.2.4.1.8.1 1.2.2z"/><path d="m55.5 36.3c.1 1.1.1 2.2.2 3.2-.4-.1-.8-.1-1.2-.2.4-1 .7-2 1-3z"/><path d="m55.5 36.3c-.3 1-.6 2-1 3.1-.3 0-.5-.1-.8-.1-.7-.3-1.4-.5-2.1-.8-.3 1-.6 2-.9 3.1-2.8 0-5.6 0-8.4 0 3.9-8.5 7.8-16.8 11.8-25.4.6 6.7 1 13.4 1.4 20.1z"/><path d="m54.6 39.3c0 .1 0 .1-.1.2-.2-.1-.5-.2-.7-.3.3 0 .5.1.8.1z"/><path d="m54.5 39.5c-.1.4-.3.8-.4 1.2-.4 0-.8 0-1.2 0 0 .2 0 .5.1.7-.4 0-.8 0-1.2 0 .1-.8.1-1.7.2-2.5.6.1 1.2.2 1.8.3.2.1.5.2.7.3z"/><path d="m53.7 50c .2 2.9.5 5.8.7 8.8-1.7 7.1-3.3 14.3-5 21.4-.1 0-.1 0-.2 0 .6-8.1 1.1-16.3 1.7-24.4.9-1.9 1.8-3.8 2.8-5.8z"/><path d="m54 41.3h1.9v.2c-1 0-1.9 0-2.9 0 0-.2 0-.5-.1-.7h1.2c0 .1-.1.3-.1.5z"/><path d="m53.7 50c-.9 1.9-1.9 3.9-2.8 5.8.3-4.8.7-9.6 1-14.4h1.2c.1 2.9.3 5.8.6 8.6z"/><path d="m53.8 39.2c-.6-.1-1.2-.2-1.8-.3-.1.8-.1 1.7-.2 2.5-.3 0-.7 0-1 0 .3-1 .6-2 .9-3.1.7.4 1.4.6 2.1.9z"/><path d="m51.8 41.5c-.3 4.8-.7 9.6-1 14.4-3.6 7.4-7.3 14.8-10.9 22.2-.1 0-.1-.1-.2-.1 3.7-12.1 7.4-24.3 11.1-36.5z"/><circle cx="56.6" cy="56.6" fill="#ffde00" r="54.7"/><path d="m91.3 13.3c-3.6 11.9-7.1 23.8-10.7 35.6-4.3 0-8.7 0-13.1 0 6.4-13.2 12.8-26.4 19.2-39.5.8.6 1.5 1.2 2.3 1.7.1.1.2.1.2.2.7.8 1.4 1.5 2.1 2z"/><path d="m80.6 48.9h11.6c-7.2 15.5-14.4 31-21.7 46.6-1-15.6-2-31-3.1-46.4 3.8 1.5 7.6 3 11.7 4.6.5-1.6 1-3.2 1.5-4.8z"/><path d="m80.6 48.9c-.5 1.6-1 3.2-1.4 4.7-4.1-1.6-7.9-3.1-11.7-4.6s0-.1.1-.1c4.3.1 8.6.1 13 0z"/><path d="m67.5 49s0 .1 0 0c-.1.1-.1 0 0 0z"/><path d="m46.9 23h19.2c-2 24.9-4 49.7-6 74.5 0-.1 0-.1-.1-.2-1.2.5-2.4.9-3.6 1.3-1.2-.4-2.3-.9-3.6-1.3-1.9-24.6-3.9-49.4-5.9-74.3z"/><path d="m60.1 97.5c1.4 4.8 2.8 9.6 4.1 14.4-1.5.1-2.9.2-4.4.2-.3-.5-.5-1.1-.8-1.6.3-3.6.6-7.2.9-10.8.1-.7.1-1.4.2-2.2z"/><path d="m60 97.4c0 .1 0 .1.1.2-.1.7-.1 1.4-.2 2.2l-.9-.1c-.9-.3-1.7-.6-2.6-1 1.2-.5 2.4-.9 3.6-1.3z"/><path d="m59.9 99.7c-.3 3.6-.6 7.2-.9 10.8-.9-1.8-1.7-3.6-2.6-5.5.9-1.8 1.7-3.6 2.6-5.4z"/><path d="m59 110.5c0 .6-.1 1.1-.1 1.7-1.6.1-3.2.1-4.8.2-.1-.7-.1-1.3-.2-2 .8-1.8 1.7-3.6 2.5-5.4.9 1.9 1.8 3.7 2.6 5.5z"/><path d="m59 99.6c-.9 1.8-1.7 3.6-2.6 5.4-.8-1.8-1.7-3.6-2.6-5.4.9-.3 1.7-.6 2.6-1 .9.4 1.8.7 2.6 1z"/><path d="m53.9 99.6c.9 1.8 1.7 3.6 2.6 5.4-.8 1.8-1.7 3.6-2.5 5.4-.4-4.4-.7-8.7-1.1-13.1 1.2.5 2.4.9 3.6 1.3-.9.4-1.7.7-2.6 1z"/><path d="m54 110.4c-.3.7-.6 1.3-.9 2-1.5.1-3 .1-4.4.1 1.4-5 2.9-10.1 4.3-15.1.3 4.3.6 8.7 1 13z"/><path d="m46 49s-.1.1 0 0c-.1.1-.1 0 0 0-.1 0-.1 0 0 0z"/><path d="m45.9 49.1s.1 0 0 0z"/><path d="m45.9 49.1c-3.8 1.5-7.6 3-11.7 4.6-.5-1.6-1-3.2-1.4-4.7 4.3 0 8.7 0 13.1.1 0-.1 0 0 0 0z"/><path d="m45.9 49.1c-1 15.5-2 30.8-3.1 46.4-7.2-15.6-14.4-31.1-21.6-46.6h11.6c.5 1.6 1 3.2 1.4 4.7 4.1-1.5 7.9-3 11.7-4.5z"/><path d="m45.9 49c-4.4 0-8.7 0-13.1 0-3.6-11.9-7.2-23.9-10.8-35.8.5-.3 1-.7 1.5-1.1 1.1-.7 2.2-1.4 3.3-2.1 6.4 12.9 12.7 25.9 19.1 39z"/><g fill="none" stroke="#000" stroke-miterlimit="10" stroke-width=".2857"><path d="m45.9 49.1s.1-.1 0 0c0-.1 0-.1 0 0-4.4-.1-8.8-.1-13.1-.1-3.9 0-7.7 0-11.6 0 7.2 15.5 14.4 31 21.7 46.6 1-15.7 2-31 3-46.5z"/><path d="m67.4 49.1c.1-.1.1-.1 0 0 4.4-.1 8.8-.1 13.1-.1h11.6c-7.1 15.4-14.3 30.9-21.6 46.5-1-15.6-2-30.9-3.1-46.4z"/><path d="m58.9 112.2c0-.6.1-1.1.1-1.7.3-3.6.6-7.2.9-10.8.1-.7.1-1.4.2-2.2 2-24.8 4-49.7 6-74.5-6.7 0-12.9 0-19.2 0 2 24.9 4 49.7 6 74.4.3 4.4.7 8.7 1.1 13.1.1.7.1 1.3.2 2"/><path d="m64.2 111.9c-1.4-4.8-2.7-9.6-4.1-14.4 0-.1 0-.1-.1-.2-1.2.5-2.4.9-3.6 1.3-.9.3-1.7.6-2.6 1 .9 1.8 1.7 3.6 2.6 5.4s1.7 3.6 2.6 5.5c.3.5.5 1.1.8 1.6"/><path d="m48.6 112.5c1.4-5 2.9-10.1 4.3-15.1 1.2.5 2.4.9 3.6 1.3.9.3 1.7.6 2.6 1-.9 1.8-1.7 3.6-2.6 5.4-.8 1.8-1.7 3.6-2.5 5.4-.3.7-.6 1.3-.9 2"/><path d="m22 13.1c3.6 11.9 7.2 23.9 10.8 35.8.5 1.6 1 3.2 1.4 4.7 4.1-1.6 7.9-3.1 11.7-4.6s0-.1-.1-.1c-6.3-13.1-12.7-26.1-19-39"/><path d="m91.3 13.3c-3.6 11.9-7.1 23.8-10.7 35.6-.5 1.6-1 3.2-1.4 4.7-4.1-1.6-7.9-3.1-11.7-4.6s0-.1.1-.1c6.4-13.2 12.8-26.4 19.2-39.5"/></g></svg>