<svg enable-background="new 0 0 113.3 113.4" viewBox="0 0 113.3 113.4" xmlns="http://www.w3.org/2000/svg"><path d="m113.3 56.7c0 31.5-25.3 56.7-56.8 56.7-31.4 0-56.6-25.4-56.5-57 0-31.2 25.5-56.4 57-56.4 31 0 56.3 25.4 56.3 56.7zm-56.7-54.6c-30 0-54.6 24.5-54.6 54.5-.1 30.1 24.5 54.7 54.5 54.7 30.1 0 54.7-24.5 54.7-54.6.1-30-24.5-54.6-54.6-54.6z" fill="#28221f"/><path d="m46.6 69.9c-3.5 8.2-6.9 16.5-10.4 24.7-.1.3-.3.6-.5 1.3-1.1-6.6-2.1-12.8-3.1-19.2-6.3 3.3-12.6 6.5-18.9 9.8-.4-2.8-.3-5.5-.4-8.1l17.4-18.3c0-.1-.1-.1-.1-.2-3.8 2-7.7 4-11.6 6.1-.4-2.8-.3-5.5-.4-8.3 2.8-2.6 5.5-5.3 8.5-7.7 7.4-6.1 13.4-13.4 19.2-20.9 2.5-3.2 5-6.4 7.8-9.8-.1 2.1-.7 3.7-1.1 5.3-1.2 4.7-2.6 9.4-3.6 14.1-1.1 4.9-2.5 9.6-3.5 14.5-.3.8-.5 1.7-.8 2.6.4.4.5.8.6 1.3.6 2.8 1 5.7 1.8 8.4 0 .7.1 1.3.5 1.8-.6.9-1.2 1.7-1.4 2.6z" fill="#050504"/><path d="m78.9 58.4c1.3 1.9 2.8 3.6 4.6 5.2 5.1 4.6 10.2 9.3 15.3 14 .2.2.5.4.7.5-.1 2.8-.1 5.5-.4 8.4-6.3-3.3-12.5-6.5-18.9-9.9-1 6.3-2.1 12.6-3.1 18.8-.1 0-.2 0-.2 0-3.5-8.4-7-16.7-10.5-25.1-.3-1.1-1-2-1.1-3.1.3-.5.5-1 .4-1.6 1-3.3 1.2-6.8 2.3-10.3-.2-.6-.5-1.5-.7-2.3-.9-3.6-1.9-7.2-2.7-10.8-1.6-7.3-3.7-14.6-5.5-21.9-.1-.3-.1-.7-.2-1.4 1.1 1.3 1.9 2.4 2.7 3.4 4.7 6 9.4 12 14.3 17.9 2.7 3.2 6 5.7 9.1 8.6s6.3 5.7 9.4 8.6c-.1 2.7-.1 5.4-.4 8.1-.5.1-.9-.3-1.3-.5-4.2-2.2-8.3-4.3-12.5-6.5-.3-.2-.7-.3-1-.4 0-.1-.1-.2-.3-.1-.1.2 0 .3 0 .4z" fill="#050504"/><path d="m49.6 45.4c1.7-8.7 3.4-17.3 5.1-26h .1v77.5h-.1c-1.3-8.8-2.7-17.5-4-26.3-.6-4.3-1.3-8.5-1.9-12.8-.2-1.7-.8-3.4-.6-5.1.4-2.4.9-4.9 1.4-7.3z" fill="#050504"/><path d="m58.1 19.6c1.8 9 3.5 18 5.3 27 .1.7.3 1.3.4 2 .2 1.9 1.1 3.8.7 5.8-.8 5.4-1.6 10.8-2.4 16.2-1.3 8.7-2.7 17.5-4 26.2-.1 0-.1 0-.2 0 0-.4 0-.9 0-1.3 0-25 0-50 0-74.9 0-.3 0-.7.2-1z" fill="#050504"/><path d="m24.9 45.9c-2.9 2-5.8 4-8.7 5.9-.1-.1-.2-.1-.2-.2 2.3-2.2 4.6-4.3 7-6.5 2.3-2 4.6-4 6.8-6.2 4.3-3.9 8.7-7.8 13-11.7 3.2-2.9 6.3-5.8 9.5-8.7.3-.2.4-.7 1.1-.5-.2.3-.4.6-.6.8-4.4 5.4-8.9 10.8-13.2 16.3-.9 1.2-2.2 1.9-3.3 2.8-1 .7-1.9 1.4-2.9 2.1-3.1 1.9-5.8 3.8-8.5 5.9z" fill="#121307"/><path d="m79.8 40.2c-5.9-3.4-9.5-9-13.7-14-2.2-2.7-4.4-5.4-6.6-8.1.7-.2.9.3 1.2.6 7 6.4 14.1 12.8 21.1 19.2.5.5 1 .9 1.6 1.3 2.2 2.2 4.4 4.2 6.8 6.2 2.2 2.1 4.5 4.1 6.7 6.2-.1.1-.2.1-.2.2-2.9-2-5.8-4-8.7-5.9-2.8-2-5.5-3.9-8.2-5.7z" fill="#121307"/><g fill="#28221f"><path d="m96.5 51.8c.1-.1.2-.1.2-.2.4.3.7.6 1.1.9-.6.2-.8-.4-1.3-.7z"/><path d="m15.9 51.6c.1.1.2.1.2.2-.2.3-.5.4-.8.5-.2-.5.4-.5.6-.7z"/><path d="m58.1 19.6c-.1-.2-.1-.3-.1-.5h.1z"/><path d="m15.4 52.3c-.1.3-.3.3-.6.2.2-.1.3-.4.6-.2z"/><path d="m14.8 52.5c.1.1.1.2-.1.2 0 0 .1-.1.1-.2z"/><path d="m97.9 52.5c0 .1.1.1.1.2-.2 0-.2-.1-.1-.2z"/></g><path d="m56.6 2.1c-30 0-54.6 24.5-54.6 54.5-.1 30.1 24.5 54.7 54.5 54.7 30.1 0 54.7-24.5 54.7-54.6.1-30-24.5-54.6-54.6-54.6zm-40.7 49.5c2.3-2.2 4.6-4.3 7-6.5 2.3-2 4.6-4 6.8-6.2 4.3-3.9 8.7-7.8 13-11.7 3.2-2.9 6.3-5.8 9.5-8.7.3-.2.4-.7 1.1-.5-.2.3-.4.6-.6.8-4.4 5.4-8.9 10.8-13.2 16.3-.9 1.2-2.2 1.9-3.3 2.8-1 .7-1.9 1.4-2.9 2.1-2.8 1.9-5.6 3.8-8.3 5.8-2.9 2-5.8 4-8.7 5.9-.2.3-.4.4-.8.5-.3-.4.2-.4.4-.6zm-.5.7c-.1.2-.3.3-.5.2.1-.1.2-.4.5-.2zm-.6.3c.1.1.1.2-.1.2 0-.1.1-.2.1-.2zm31.8 17.3c-3.5 8.2-6.9 16.5-10.4 24.7-.1.3-.3.6-.5 1.3-1.1-6.6-2.1-12.8-3.1-19.2-6.3 3.3-12.6 6.5-18.9 9.8-.4-2.8-.3-5.5-.4-8.1l17.4-18.3c0-.1-.1-.1-.1-.2-3.8 2-7.7 4-11.6 6.1-.4-2.8-.3-5.5-.4-8.3 2.8-2.6 5.5-5.3 8.5-7.7 7.4-6.1 13.4-13.4 19.2-20.9 2.5-3.2 5-6.4 7.8-9.8-.1 2.1-.7 3.7-1.1 5.3-1.2 4.7-2.6 9.4-3.6 14.1-1.1 4.9-2.5 9.6-3.5 14.5-.3.8-.5 1.7-.8 2.6.4.4.5.8.6 1.3.6 2.8 1 5.7 1.8 8.4 0 .7.1 1.3.5 1.8-.6.9-1.2 1.7-1.4 2.6zm8.2 27c-1.4-8.8-2.8-17.5-4.1-26.3-.6-4.3-1.3-8.5-1.9-12.8-.2-1.7-.8-3.4-.6-5.1.4-2.5.9-4.9 1.4-7.4 1.7-8.7 3.4-17.3 5.1-26h .1zm43.2-44.2c-.2 0-.2-.1-.1-.2 0 .1.1.2.1.2zm-7.9-7.3c2.2 2.1 4.5 4.1 6.7 6.2.4.3.7.6 1.1.9-.6.1-.9-.5-1.3-.7-2.9-2-5.8-4-8.7-5.9l-4.5-6.7c2.1 2.2 4.4 4.2 6.7 6.2zm-29.5-26.7c7 6.4 14.1 12.8 21.1 19.2.5.5 1 .9 1.6 1.3l4.5 6.7c-2.6-2-5.3-3.8-8-5.6-5.9-3.4-9.5-9-13.7-14-2.2-2.7-4.4-5.4-6.6-8.1.6-.3.8.2 1.1.5zm-2.6 78.2c-.1 0-.1 0-.2 0 0-.4 0-.9 0-1.3 0-25 0-50 0-74.9 0-.3 0-.7.1-1 0-.2 0-.3 0-.5h.1v.5c1.8 9 3.5 18 5.3 27 .1.7.3 1.3.4 2 .2 1.9 1.1 3.8.7 5.8-.8 5.4-1.6 10.8-2.4 16.2-1.3 8.7-2.6 17.4-4 26.2zm22.1-20.3c-1 6.3-2.1 12.6-3.1 18.8-.1 0-.2 0-.2 0-3.5-8.4-7-16.7-10.5-25.1-.3-1.1-1-2-1.1-3.1.3-.5.5-1 .4-1.6 1-3.3 1.2-6.8 2.3-10.3-.2-.6-.5-1.5-.7-2.3-.9-3.6-1.9-7.2-2.7-10.8-1.6-7.3-3.7-14.6-5.5-21.9-.1-.3-.1-.7-.2-1.4 1.1 1.3 1.9 2.4 2.7 3.4 4.7 6 9.4 12 14.3 17.9 2.7 3.2 6 5.7 9.1 8.6s6.3 5.7 9.4 8.6c-.1 2.7-.1 5.4-.4 8.1-.5.1-.9-.3-1.3-.5-4.2-2.2-8.3-4.3-12.5-6.5-.3-.2-.7-.3-1-.4l-.1.1c1.3 1.9 2.8 3.6 4.6 5.2 5.1 4.6 10.2 9.3 15.3 14 .2.2.5.4.7.5-.1 2.8-.1 5.5-.4 8.4-6.5-3.1-12.7-6.4-19.1-9.7z" fill="#fae500"/><path d="m78.9 58.4c-.1-.1-.1-.2-.2-.3.2-.1.3 0 .3.1s0 .1-.1.2z" fill="#fae500"/></svg>