<?xml version="1.0" encoding="utf-8"?>
<!-- Generator: Adobe Illustrator 24.1.1, SVG Export Plug-In . SVG Version: 6.00 Build 0)  -->
<svg version="1.1" id="Capa_1" xmlns="http://www.w3.org/2000/svg" xmlns:xlink="http://www.w3.org/1999/xlink" x="0px" y="0px"
	 viewBox="0 0 566.9 566.9" style="enable-background:new 0 0 566.9 566.9;" xml:space="preserve">
<style type="text/css">
	.st0{fill:#FFFFFF;stroke:#8CC63F;stroke-width:5;stroke-miterlimit:10;}
	.st1{fill:#248FCE;}
	.st2{enable-background:new    ;}
	.st3{fill:#312F6A;}
	.st4{fill:#312F6A;stroke:#000000;stroke-width:3;stroke-miterlimit:10;}
	.st5{fill:#FFFFFF;}
	.st6{fill:#9EC328;}
</style>
<circle class="st0" cx="283.5" cy="283.5" r="269.3"/>
<circle class="st1" cx="283.5" cy="283.5" r="202.7"/>
<g class="st2">
	<path class="st3" d="M93.1,147.1l6.7,4.9l-2.4,3.4l-14.6-10.6c-1.5-1.1-1.7-2.4-0.6-3.9l6.5-9l3.4,2.4l-5.7,7.8l3.4,2.4l3.3-4.5
		l2.5,3.6L93.1,147.1z"/>
</g>
<g class="st2">
	<path class="st3" d="M116,131.8l-7.2,8.4c-1.2,1.4-2.5,1.5-3.9,0.3l-13.6-11.7l2.7-3.1l12.6,10.8l6.3-7.3L116,131.8z"/>
</g>
<g class="st2">
	<path class="st3" d="M105.6,112.7l14.9,14.3l-2.9,3l-14.9-14.3L105.6,112.7z"/>
</g>
<g class="st2">
	<path class="st3" d="M127.6,106.7l4.7,5c1.3,1.3,1.2,2.6-0.1,3.9l-8.1,7.6c-1.3,1.3-2.6,1.2-3.9-0.1L109.8,112
		c-1.3-1.3-1.2-2.6,0.1-3.9l10.1-9.5l2.8,3l-9.1,8.5l8.5,9.1l6.1-5.7l-2.8-3l-4,3.8l-1.8-4l4-3.8C125,105.3,126.3,105.3,127.6,106.7
		z"/>
</g>
<g class="st2">
	<path class="st3" d="M126.3,93.4l5.1,6.5l6.5-5.1l-5.1-6.5l3.2-2.6l12.9,16.2l-3.2,2.6l-5.1-6.5l-6.5,5.1l5.1,6.5l-3.2,2.6
		l-12.9-16.2L126.3,93.4z"/>
</g>
<g class="st2">
	<path class="st3" d="M152,74.8l2.3,3.4l-4.6,3l9.1,13.8l-3.4,2.3l-9.1-13.8l-4.6,3l-2.3-3.4L152,74.8z"/>
</g>
<g class="st2">
	<path class="st3" d="M180.3,62.3l6.8,13.5c0.8,1.6,0.4,2.9-1.2,3.7l-9.8,5c-1.6,0.8-2.9,0.4-3.7-1.2l-6.8-13.5
		c-0.8-1.6-0.4-2.9,1.2-3.7l9.8-5C178.2,60.3,179.5,60.7,180.3,62.3z M169.9,69.2l5.6,11.1l7.4-3.7l-5.6-11.1L169.9,69.2z"/>
</g>
<g class="st2">
	<path class="st3" d="M191.3,68.1l3.1,7.7l-3.8,1.6l-6.8-16.7c-0.7-1.7-0.2-2.9,1.5-3.6l10.3-4.2l1.6,3.8l-9,3.6l1.6,3.8l5.1-2.1
		l0.3,4.4L191.3,68.1z"/>
</g>
<g class="st2">
	<path class="st3" d="M207,62.1l2.6,7.9l-3.9,1.3l-5.6-17.1c-0.6-1.8,0-2.9,1.8-3.5l10.5-3.4l1.3,3.9l-9.2,3l1.3,3.9l5.3-1.7l0,4.4
		L207,62.1z"/>
</g>
<g class="st2">
	<path class="st3" d="M219.9,45.2l5.4,20l-4,1.1l-5.4-20L219.9,45.2z"/>
</g>
<g class="st2">
	<path class="st3" d="M236.3,45.6l-8.1,1.7l2.6,12.2l9.5-2l0.9,4.1l-10.8,2.3c-1.8,0.4-2.9-0.3-3.3-2.1l-3.2-14.9
		c-0.4-1.8,0.3-2.9,2.1-3.3l10.8-2.3L236.3,45.6z"/>
</g>
<g class="st2">
	<path class="st3" d="M246.5,52.2l0.6,4.1l9.6-1.4l0.6,4.1l-11,1.6c-1.8,0.3-2.9-0.5-3.1-2.3L241,43.2c-0.3-1.8,0.5-2.9,2.4-3.1
		l11-1.6l0.6,4.1l-9.6,1.4l0.6,4.1l5.5-0.8l-0.8,4.3L246.5,52.2z"/>
</g>
<g class="st2">
	<path class="st3" d="M272.3,49.5l3.8,8.1l-4.1,0.3l-4-8.1l-4.8,0.3l0.5,8.3l-4.1,0.3l-1.1-17.9c-0.1-1.8,0.7-2.8,2.6-2.9l11-0.7
		c1.8-0.1,2.8,0.7,2.9,2.6l0.4,6.9c0.1,1.8-0.7,2.8-2.6,2.9L272.3,49.5z M271.2,45.5l-0.3-4.1l-8.3,0.5l0.3,4.1L271.2,45.5z"/>
</g>
<g class="st2">
	<path class="st3" d="M288,57.4l1.1-18c0.1-1.8,1.1-2.7,2.9-2.6l11,0.7c1.8,0.1,2.7,1.1,2.6,2.9l-1.1,18l-4.1-0.3l0.3-5.5l-8.3-0.5
		l-0.3,5.5L288,57.4z M301.4,41.6l-8.3-0.5l-0.4,6.9l8.3,0.5L301.4,41.6z"/>
</g>
<g class="st2">
	<path class="st3" d="M324.7,51.4l-1,6.8c-0.3,1.8-1.3,2.6-3.1,2.3L309.6,59c-1.8-0.3-2.6-1.3-2.3-3.1l2.2-15.1
		c0.3-1.8,1.3-2.6,3.1-2.3l13.7,2l-0.6,4.1l-12.3-1.8l-1.8,12.3l8.2,1.2l0.6-4.1l-5.5-0.8l2-3.9l5.5,0.8
		C324.2,48.5,325,49.6,324.7,51.4z"/>
</g>
<g class="st2">
	<path class="st3" d="M325.7,61.3l4.1-17.5c0.4-1.8,1.5-2.5,3.3-2.1l10.8,2.5c1.8,0.4,2.5,1.5,2.1,3.3l-4.1,17.5l-4-0.9l3.8-16.2
		l-8.1-1.9l-3.8,16.2L325.7,61.3z"/>
</g>
<g class="st2">
	<path class="st3" d="M350.6,59l-1.3,4l9.2,2.9l-1.3,4l-10.5-3.4c-1.8-0.6-2.4-1.7-1.8-3.5l4.6-14.5c0.6-1.8,1.7-2.4,3.5-1.8
		l10.5,3.4l-1.3,4l-9.2-2.9l-1.3,4l5.3,1.7l-2.6,3.5L350.6,59z"/>
</g>
<g class="st2">
	<path class="st3" d="M380,60.9l-10.3-4.2l-1.6,3.9l9,3.7c1.7,0.7,2.2,1.9,1.5,3.6l-2.6,6.4c-0.7,1.7-1.9,2.2-3.6,1.5l-12.8-5.2
		l1.6-3.8l11.5,4.7l1.6-3.8l-9-3.7c-1.7-0.7-2.2-1.9-1.5-3.6l2.6-6.4c0.7-1.7,1.9-2.2,3.6-1.5l12.8,5.2L380,60.9z"/>
</g>
<g class="st2">
	<path class="st3" d="M393.4,76.7l-4.1,7.2l-3.6-2l8.8-15.6c0.9-1.6,2.2-2,3.8-1.1l9.6,5.4l-2,3.6l-8.4-4.7l-2,3.6l4.8,2.7l-3.2,2.9
		L393.4,76.7z"/>
</g>
<g class="st2">
	<path class="st3" d="M407.9,85.1l-2.3,3.5l8.1,5.3l-2.3,3.5l-9.3-6.1c-1.5-1-1.8-2.3-0.8-3.8l8.3-12.7c1-1.5,2.3-1.8,3.8-0.8
		l9.3,6.1l-2.3,3.5l-8.1-5.3l-2.3,3.5l4.6,3l-3.4,2.7L407.9,85.1z"/>
</g>
<g class="st2">
	<path class="st3" d="M429.2,100.2l-2.5,8.6l-3.3-2.6l2.4-8.7l-3.8-3l-5.1,6.6l-3.3-2.6l11.1-14.2c1.1-1.5,2.4-1.6,3.9-0.5l8.7,6.9
		c1.5,1.1,1.6,2.4,0.5,3.9l-4.3,5.5c-1.1,1.5-2.4,1.6-3.9,0.5L429.2,100.2z M431.1,96.4l2.6-3.3l-6.6-5.1l-2.6,3.3L431.1,96.4z"/>
</g>
<g class="st2">
	<path class="st3" d="M443.9,112.9l-3.1,8.4l-3.1-2.8l3-8.5l-3.6-3.3l-5.6,6.1l-3.1-2.8l12-13.3c1.2-1.4,2.5-1.4,3.9-0.2l8.2,7.4
		c1.4,1.2,1.4,2.5,0.2,3.9l-4.6,5.1c-1.2,1.4-2.5,1.4-3.9,0.2L443.9,112.9z M446.1,109.2l2.8-3.1l-6.1-5.6l-2.8,3.1L446.1,109.2z"/>
</g>
<g class="st2">
	<path class="st3" d="M451.4,120.3l-3,2.8l6.6,7.1l-3,2.8l-7.5-8.1c-1.3-1.3-1.2-2.6,0.1-3.9l11.1-10.3c1.3-1.3,2.6-1.2,3.9,0.1
		l7.5,8.1l-3,2.8l-6.6-7.1l-3,2.8l3.8,4l-4,1.8L451.4,120.3z"/>
</g>
<g class="st2">
	<path class="st3" d="M472.1,124.6L456.4,138l-2.7-3.2l15.8-13.5L472.1,124.6z"/>
</g>
<g class="st2">
	<path class="st3" d="M472.7,145.5l-4.6,7.6l-2.5-3.3l4.5-7.8l-2.9-3.9l-6.6,5l-2.5-3.3l14.4-10.8c1.5-1.1,2.8-0.9,3.9,0.5l6.7,8.8
		c1.1,1.5,0.9,2.8-0.5,3.9l-5.5,4.2c-1.5,1.1-2.8,0.9-3.9-0.5L472.7,145.5z M475.5,142.3l3.3-2.5l-5-6.6l-3.3,2.5L475.5,142.3z"/>
</g>
<g class="st2">
	<path class="st3" d="M469.5,154.9l15.3-9.5c1.6-1,2.8-0.7,3.8,0.9l5.9,9.4c1,1.6,0.7,2.8-0.9,3.8l-15.3,9.5l-2.2-3.5l4.7-2.9
		l-4.4-7.1l-4.7,2.9L469.5,154.9z M490.2,156.7l-4.4-7.1l-5.9,3.7l4.4,7.1L490.2,156.7z"/>
</g>
<g class="st2">
	<path class="st3" d="M119.9,435.4l-16.7,15.4l-3.1-3.4l16.7-15.4L119.9,435.4z"/>
</g>
<g class="st2">
	<path class="st3" d="M123.1,457.8l-6.1,6.8l-3.4-3l13.1-14.7c1.3-1.5,2.8-1.6,4.3-0.2l9,8.1l-3,3.4l-7.9-7.1l-3,3.4l4.5,4l-4.2,2.4
		L123.1,457.8z"/>
</g>
<g class="st2">
	<path class="st3" d="M140.2,483.7l-9.7-7.4c-1.6-1.2-1.8-2.6-0.6-4.2l11.9-15.6l3.6,2.8l-11,14.4l8.5,6.5L140.2,483.7z"/>
</g>
<g class="st2">
	<path class="st3" d="M160.5,493.5c-1.1,1.7-2.5,2-4.2,0.9l-10.2-6.5l3.7-3l7.7,4.9l0.8-1.3l-9-5.7c-1.7-1.1-2-2.5-0.9-4.2l7.3-11.4
		l3.8,2.4l-6.5,10.1l7.7,4.9l6.5-10.1l3.9,2.4L160.5,493.5z"/>
</g>
<g class="st2">
	<path class="st3" d="M197.2,490.3l-1.9,4.1l-5.5-2.6l-7.6,16.4l-4.1-1.9l7.6-16.4l-5.5-2.6l1.9-4.1L197.2,490.3z"/>
</g>
<g class="st2">
	<path class="st3" d="M203.6,492.9l-3.1,8.5l8.6,3.1l3.1-8.5l4.3,1.6l-7.7,21.2l-4.3-1.6l3.1-8.5l-8.6-3.1l-3.1,8.5l-4.3-1.6
		l7.7-21.2L203.6,492.9z"/>
</g>
<g class="st2">
	<path class="st3" d="M219.5,512.5l-1.2,4.4l10.3,2.7l-1.2,4.4l-11.8-3.1c-2-0.5-2.7-1.8-2.2-3.7l4.3-16.1c0.5-1.9,1.8-2.7,3.7-2.1
		l11.8,3.1l-1.2,4.4l-10.3-2.7l-1.2,4.4l5.9,1.6l-2.7,4L219.5,512.5z"/>
</g>
<g class="st2">
	<path class="st3" d="M248.3,519L247,528l-4.5-0.6l2.7-19.4c0.3-2,1.4-2.8,3.4-2.6l12,1.7l-0.6,4.5l-10.5-1.5l-0.6,4.5l6,0.8
		l-2.1,4.3L248.3,519z"/>
</g>
<g class="st2">
	<path class="st3" d="M276.9,521.9l3.1,9.2l-4.6-0.3l-3.3-9.3l-5.3-0.3l-0.5,9l-4.6-0.3l1.2-19.6c0.1-2,1.2-3,3.2-2.8l12.2,0.7
		c2,0.1,3,1.2,2.9,3.2l-0.5,7.5c-0.1,2-1.2,3-3.2,2.8L276.9,521.9z M276.2,517.4l0.3-4.5l-9.1-0.5l-0.3,4.5L276.2,517.4z"/>
</g>
<g class="st2">
	<path class="st3" d="M288.3,508.5l0.1,22.6l-4.6,0l-0.1-22.6L288.3,508.5z"/>
</g>
<g class="st2">
	<path class="st3" d="M296.3,521.9l0.3,4.5l10.6-0.6l0.3,4.5l-12.2,0.7c-2,0.1-3.1-0.8-3.2-2.8l-1-16.6c-0.1-2,0.8-3.1,2.9-3.2
		l12.2-0.7l0.3,4.5l-10.6,0.6l0.3,4.5l6.1-0.4l-1.2,4.6L296.3,521.9z"/>
</g>
<g class="st2">
	<path class="st3" d="M311.7,530.1l-2.8-19.4c-0.3-2,0.6-3.1,2.6-3.4l12-1.8c2-0.3,3.2,0.6,3.4,2.5l2.8,19.4l-4.5,0.7l-2.6-17.9
		l-9,1.3l2.6,17.9L311.7,530.1z"/>
</g>
<g class="st2">
	<path class="st3" d="M334,526.7l-5.3-21.9l14.8-3.6c2-0.5,3.2,0.3,3.7,2.2l3.9,16.1c0.5,1.9-0.3,3.2-2.2,3.6L334,526.7z
		 M343.1,505.9l-8.9,2.2l3.2,13.2l8.9-2.2L343.1,505.9z"/>
</g>
<g class="st2">
	<path class="st3" d="M370.3,516.4l-11.5,3.9c-1.9,0.6-3.2,0-3.8-1.9l-6.3-18.5l4.3-1.5l5.8,17.1l10.1-3.4L370.3,516.4z"/>
</g>
<g class="st2">
	<path class="st3" d="M389.9,505c0.8,1.8,0.3,3.2-1.6,4l-11.1,4.9l-0.4-4.7l8.4-3.7l-0.6-1.4l-9.8,4.3c-1.9,0.8-3.2,0.3-4-1.5
		l-5.4-12.4l4.2-1.8l4.8,11l8.4-3.7l-4.8-11l4.2-1.8L389.9,505z"/>
</g>
<g class="st2">
	<path class="st3" d="M409.9,476.5l-10.4,6.4l2.4,3.9l9.1-5.6c1.7-1.1,3.1-0.7,4.1,1l3.9,6.4c1,1.7,0.7,3.1-1,4.2l-12.9,8l-2.3-3.8
		l11.6-7.2l-2.3-3.8l-9.1,5.6c-1.7,1.1-3.1,0.7-4.1-1l-3.9-6.4c-1-1.7-0.7-3.1,1-4.2l12.9-8L409.9,476.5z"/>
</g>
<g class="st2">
	<path class="st3" d="M419.8,475.2l2.3-1.7l-2.9-9.2l3.7-2.8l2.9,9.2c1.5-0.9,3-0.8,4.6,0.3l9.7,5.9l-3.7,2.8l-8.5-4.9l-5.5,4.1
		l5.4,7.2l-3.7,2.8l-13.5-18.1l3.7-2.8L419.8,475.2z"/>
</g>
<g class="st2">
	<path class="st3" d="M430.7,455.1l14.6,17.2l-3.5,3l-14.6-17.2L430.7,455.1z"/>
</g>
<g class="st2">
	<path class="st3" d="M445.4,460.2l3.1,3.3l7.7-7.3l3.1,3.3l-8.8,8.4c-1.5,1.4-2.9,1.4-4.3-0.1l-11.4-12c-1.4-1.5-1.3-2.9,0.1-4.3
		l8.8-8.4l3.1,3.3l-7.7,7.3l3.1,3.3l4.4-4.2l2,4.3L445.4,460.2z"/>
</g>
<g class="st2">
	<path class="st3" d="M460,432l-8.1,9.1l3.4,3l7-8c1.3-1.5,2.8-1.6,4.3-0.3l5.6,5c1.5,1.3,1.6,2.8,0.2,4.3l-10.1,11.4l-3.4-3l9-10.3
		l-3.4-3l-7,8c-1.3,1.5-2.8,1.6-4.3,0.3l-5.6-5c-1.5-1.3-1.6-2.8-0.3-4.3l10.1-11.4L460,432z"/>
</g>
<path class="st4" d="M203.7,349.6c0,0,2.4-77.4,0-79.9c-75-11.1-150-103.2-150-103.2C66,256.8,179.1,283.3,179.1,283.3
	s3.7,67,3.1,66.4c9.2,67.6,90.3,86.6,89.7,85.4C209.2,401.2,203.7,349.6,203.7,349.6z"/>
<path class="st4" d="M173.6,331.8c0,0-2.4-41.2-3.1-41.8c-71.9-20.9-121.1-84.2-121.1-84.2C66.6,318.9,173.6,331.8,173.6,331.8z"/>
<path class="st4" d="M82.6,294.9c19,73.2,95.9,80.5,95.9,80.5l-4.9-35.6C134.9,337.9,82.6,294.9,82.6,294.9z"/>
<path class="st4" d="M513.2,166.5c0,0-75,92.2-150,103.2c-2.5,2.5,0,79.9,0,79.9s-5.5,51.6-68.2,85.4c-0.6,1.2,80.5-17.8,89.7-85.4
	c-0.6,0.6,3.1-66.4,3.1-66.4S500.9,256.8,513.2,166.5z"/>
<path class="st4" d="M396.4,290c-0.6,0.6-3.1,41.8-3.1,41.8s106.9-12.9,124.1-126C517.5,205.8,468.3,269.1,396.4,290z"/>
<path class="st4" d="M388.5,375.4c0,0,76.9-7.3,95.9-80.5c0,0-52.2,43-91,44.9L388.5,375.4z"/>
<path class="st4" d="M281.9,423.8c51.6-19,74.4-74.8,74.4-74.8v-96.1c-52.9,0-74.4-22.7-74.4-22.7c-32.6,25.8-70.7,24.6-70.7,24.6
	s-0.6,97.7,0,97.6C225.3,399,281.3,423.8,281.9,423.8z"/>
<polygon class="st5" points="283.5,116.3 290.9,139.1 315,139.1 295.5,153.3 302.9,176.2 283.5,162.1 264,176.2 271.4,153.3 
	251.9,139.1 276,139.1 "/>
<polygon class="st5" points="373.6,158.5 370,176 385.4,184.8 367.8,186.7 364.1,204.1 356.8,187.9 339.2,189.9 352.3,177.9 
	345,161.7 360.5,170.5 "/>
<polygon class="st5" points="193.3,158.5 196.9,176 181.5,184.8 199.2,186.7 202.8,204.1 210.1,187.9 227.8,189.9 214.6,177.9 
	221.9,161.7 206.5,170.5 "/>
<path class="st6" d="M278.1,366l-10.7-24.4h35l-19-42.8L253.7,366h-27.5l10.8-24.4l0,0l36.5-82.5h19.9L340.7,366H278.1z"/>
</svg>
