<svg enable-background="new 0 0 113.3 113.3" viewBox="0 0 113.3 113.3" xmlns="http://www.w3.org/2000/svg"><path d="m56.6 113.3c-30.4.1-56.7-24.6-56.6-56.9.1-31.3 25.8-56.5 57-56.4 31.2.2 56.7 25.9 56.3 57.5-.3 30.8-25.8 56-56.7 55.8z" fill="#ef7d04"/><path d="m111 55.3c.6 29.6-22.3 54.3-52 55.6-30.3 1.3-55-22-56.6-51.3-1.6-30.7 22-56 52-57.2 30.3-1.3 55.7 22.4 56.6 52.9z" fill="#0a0a0a"/><path d="m57.1 33.6h6.1c.9 0 1.2.1 1.2 1.1.2 7.8 3.6 14.1 9.4 19.3 4.2 3.7 9.1 5.9 14.5 7.3 1.4.4 2.9.8 3.5 2.4 1 2.6-.4 4.2-3 5.1-6 2-11.6 4.7-17.1 7.8-1.4.8-2.6 1.8-4 2.5-2 .9-4 .5-5.2-1-1-1.3-.9-3.6.4-5.1.4-.5.8-.9 1.3-1.4 2.5-2.5 2.9-5.6 1.8-8.8-1-2.8-3.1-4.7-6.2-5.3-5-1-9.6 1.6-10.6 6.2-.8 3.1-.3 6.1 2.3 8.5 1 .9 1.9 1.8 1.8 3.4-.1 2.2-2.4 3.9-4.6 3.3s-4.1-1.9-6-3c-3.4-1.8-7.1-3.1-10.7-4.4-2.5-.9-5.1-1.6-7.7-2.3-1.5-.4-3-2.3-2.9-3.7.1-1.7 1.6-3.3 3.6-3.6 7.9-1.1 14.3-4.9 19.1-11.1 3.2-4.1 4.9-8.9 5.5-14.2.1-1-.1-2.4.4-3 .6-.6 2-.2 3-.2 1.4.2 2.7.2 4.1.2z" fill="#fff"/><g fill="#fefefe"><path d="m11.4 61.9c.3-1 .6-2 .9-3 .1-.5.4-.9.9-.8.6.1.7.6.8 1.1.1.9-.3 1.6-.5 2.4-.3 1.2-.6 2.4-1 3.5s-.2 1.4 1 1.2c.5-.1 1.1-.3 1.4.4.4.8.1 1.5-.8 1.6-2.1.3-4.2.5-6.3.8-1 .1-1.4-.2-1.4-1.2-.2-1.8-.5-3.6-.7-5.5-.1-.5-.1-1.1 0-1.6.2-1.7.9-2.3 2.4-2.5 1.6-.2 2.3.4 2.9 1.9 0 .5-.1 1.2.4 1.7z"/><path d="m25.6 20.2c.9 1.3 1.7 2.4 2.5 3.6.4.6.9 1.2 0 1.8s-1.3.1-1.7-.5c-1.1-1.6-2.2-3.2-3.4-4.8-.3-.4-.7-.9-.3-1.5s.9-.7 1.5-.6c2.5.2 5.1.5 7.6.7h.7c-.9-1.3-1.7-2.5-2.5-3.6-.4-.6-.7-1.1.1-1.7.8-.5 1.2-.2 1.6.4 1.1 1.6 2.2 3.2 3.4 4.8.3.5.7.9.4 1.6-.4.6-1 .6-1.7.6-2.7-.3-5.4-.6-8.2-.8z"/><path d="m33.2 96.6c.8 0 1.6.3 2.3.6.9.4 1.8.8 2.7 1.3 1.6.8 1.7.8 2.5-.8.4-.7.8-.9 1.5-.6s.7.8.4 1.4c-.9 2-1.9 3.9-2.8 5.9-.3.7-.7.9-1.4.6-2.1-1-4.2-1.9-6.2-3s-2.3-2.3-1.2-4.2c.6-.8 1.3-1.2 2.2-1.2z"/><path d="m26.8 97.9c-1.8-.2-3-1.3-4.2-2.5-.3-.3-.1-.7.2-1 .4-.4.8-.4 1.2-.1.6.4 1.1.9 1.6 1.3s1 .3 1.4-.2c.5-.6-.1-.8-.4-1.1-1.4-1.2-2.8-2.4-4.2-3.6-.5-.4-.8-.9-.3-1.5s1-.4 1.5.1l4.2 3.6c.3.2.5.9 1.1.3.5-.5.4-1-.1-1.4-1.2-1.1-2.4-2.1-3.6-3.2-.3-.3-.6-.5-.9-.8-.3-.4-.3-.8.1-1.1.3-.3.7-.5 1.1-.2 1.8 1.6 3.8 2.9 5.2 4.8.8 1.1.7 2.1-.2 3.2-.8.9-1.5 1.8-2.3 2.7-.3.4-.8.7-1.4.7z"/><path d="m46.5 98.4c1.8.3 4.1.8 6.3 1.2.5.1.7.5.6 1-.1.6-.5.8-1.1.7-1.5-.3-2.9-.6-4.4-.9-.5-.1-1.1-.2-1.6-.2-.4 0-.7.1-.8.6 0 .5.1.8.5.9.8.2 1.7.4 2.6.6.8.2 1.6.3 2.3.6 1.4.5 1.9 1.4 1.6 2.7-.3 1.5-1 2.2-2.6 2.1-.8 0-1.6-.2-2.3-.3s-.9-.5-.8-1.2c.2-.6.6-.7 1.2-.6.5.1 1 .2 1.5.2.4 0 .8.1.9-.5s-.3-.7-.7-.8c-1-.2-1.9-.4-2.9-.6-.7-.2-1.5-.3-2.1-.7-1.3-.7-1.6-1.6-1.1-3.2.3-1.1 1-1.6 2.9-1.6z"/><path d="m66.5 16.1c-1.6-.3-3.7-.6-5.8-1-.6-.1-.8-.5-.7-1.1s.5-.8 1.1-.7l5.1.9c.3.1.7.1 1 .1.5 0 .7-.2.8-.7s-.1-.7-.5-.8c-1.1-.3-2.2-.5-3.3-.7-.6-.1-1.2-.3-1.8-.5-1.2-.5-1.7-1.4-1.4-2.6.3-1.5.9-2 2.3-2.2.9-.1 1.7.1 2.6.3.6.1.8.5.8 1.1-.1.6-.4.8-1 .7s-1.2-.2-1.7-.2c-.4 0-.8.1-.9.6 0 .5.3.7.7.7 1.3.3 2.6.5 3.9.8 2.1.5 2.8 1.7 2.4 3.5-.7 1.5-1.2 1.9-3.6 1.8z"/><path d="m74.5 12.8c1.7-.1 3.2-.2 4.7-.3.6 0 1.2-.1 1.7-.1.6.1 1.2.3 1.3 1 0 .8-.7.8-1.3.9-1.7.1-3.5.2-5.4.3 1.2 1.5 2.3 2.9 3.4 4.4.4.5 1 1 .3 1.6s-1.4.1-1.8-.5c-1.2-1.4-2.3-2.9-3.5-4.4-.1-.1-.2-.2-.5-.5-.3.7-.6 1.3-.9 1.9-.3.7-.7.7-1.3.5-.6-.3-.9-.6-.6-1.3.9-2 1.8-4.1 2.7-6.2.3-.7.8-.8 1.4-.5.7.3.8.8.4 1.4-.2.5-.4 1.1-.6 1.8z"/><path d="m20.8 85.5c.6-.4 1.2-.8 1.7-1.1.6-.4 1.1-.4 1.5.2s.3 1.1-.3 1.5c-1.8 1.3-3.6 2.5-5.4 3.8-.6.4-1.1.3-1.5-.3-.5-.6-.2-1.1.3-1.5.5-.3.9-.7 1.5-1.1-1.4-.7-2.7-1.4-4-2.1-.5-.2-1-.4-1.4-.8-.5-.4-1.2-.9-.8-1.6.5-.9 1.1-.3 1.7 0 1.5.8 3 1.5 4.7 2.4-.2-1.9-.5-3.6-.7-5.3-.1-.6-.4-1.5.5-1.7s1.3.7 1.4 1.4c.3 2 .5 4 .8 6.2z"/><path d="m90 20.7c-.2 2.3-.4 4.6-.5 6.9-.1.7-.2 1.4-1.1 1.3s-1.1-.8-.9-1.5c.3-1.4-.1-2.4-1.3-3.1-.5-.3-1-.7-1.4-1.2-1-1.1-2.1-1.6-3.5-.9-.7.3-1.2 0-1.4-.6-.2-.7.3-.9.9-1.1 2.4-.7 4.7-1.4 7.1-2.1 1.7-.5 2.4 0 2.3 1.8-.2.2-.2.3-.2.5z"/><path d="m25.3 27.4c0-.1 0 .2-.1.4-1 2.6-2.8 4.7-5 6.3-.7.5-1.6.4-2.3-.2-1.4-1.1-2.7-2.2-4.1-3.3-.6-.4-.7-.9-.2-1.5s.9-.6 1.5-.2c1.2 1 2.4 1.9 3.5 2.8.6.5 1.1.6 1.6 0 1.1-1.1 2-2.2 2.8-3.5.4-.6.3-1.1-.3-1.5-1.2-.9-2.3-1.9-3.5-2.8-.6-.5-.7-1-.2-1.6s1-.5 1.5-.1c1.3 1.1 2.6 2.1 3.9 3.2.6.4.9 1 .9 2z"/><path d="m58.4 9.9c0 .5.1 1.1.1 1.6.1 1.9-.5 2.9-2.4 3.3s-3.9.5-5.9.3c-1.5-.1-2.2-.8-2.3-2.3-.1-1.6-.2-3.2-.3-4.7-.1-.7 0-1.4.9-1.4.9-.1 1.1.5 1.1 1.3.1 1.4.2 2.7.3 4.1 0 .9.4 1.4 1.4 1.3 1.3-.1 2.7-.2 4-.3.9-.1 1.2-.5 1.1-1.4-.2-1.4-.2-2.9-.3-4.4-.1-.8.2-1.2 1-1.2s1 .4 1.1 1.1c0 .8.1 1.8.2 2.7z"/><path d="m38.4 18.6c-1.2-.1-2-.4-2.4-1.6-.4-1.1-.8-2.2-1.3-3.3s-.2-1.9.6-2.7c.9-.8 2.1-1.2 3.2-1.6.6-.2.9.1 1.1.6s.1.8-.3 1.1c-.1 0-.2.1-.2.1-.8.4-2.3.5-2.4 1.4-.1 1.3.8 2.6 1.3 3.8.2.5.7.3 1 .2 1.4-.5 2.9-1 4.3-1.6.6-.2.9-.7.5-1.4-.2-.4-.4-.9-.5-1.4-.2-.5.2-.9.6-1 .5-.2.9-.2 1.3.3 1.6 2.6 1.1 4.3-1.7 5.4-1.7.7-3.3 1.5-5.1 1.7z"/><path d="m12.1 79.3c0 .6-.4.8-.8 1-.7.2-.9-.3-1.1-.8-.8-2.1-1.6-4.1-2.4-6.2-.1-.3-.3-.7-.4-1-.2-.5 0-.9.5-1.1s.9-.1 1.1.4c.3.6.6 1.3.8 2s .5.8 1.1.5c1.5-.6 3-1.2 4.5-1.8.7-.3 1.2-.3 1.5.5s-.1 1.2-.7 1.4c-1.6.6-3.1 1.2-4.7 1.8-.6.2-.7.5-.4 1 .5.8.8 1.6 1 2.3z"/><path d="m13.2 33.3c-.2.6-.5 1.2-.8 1.8-.5.8-.4 1.2.5 1.5 1.4.6 2.8 1.3 4.2 1.9.7.3 1 .7.7 1.4-.3.8-.8.8-1.5.5-1.5-.7-3-1.4-4.5-2.1-.5-.3-.8-.2-1 .4-.2.7-.6 1.3-.9 1.9s-.7.7-1.2.4-.7-.7-.4-1.2c1.1-2.3 2.2-4.7 3.3-7 .2-.5.5-.8 1.1-.6.3.3.6.5.5 1.1z"/></g><path d="m67.4 73.5c1.7-2.3 2.7-4.9 2.8-7.7.1-2.7-.9-5-2.4-7.1-5.2-6.7-14.6-7.1-20.1-.7-3.8 4.4-4 10.1-.5 14.9.5.7 1.1 1.4 1.6 2.3-7.5-3.8-15.2-7-23.7-9.1 3.4-.6 6.4-1.5 9.4-2.8 6.7-2.8 11.7-7.5 15-13.9 1.8-3.4 3.1-7 3.6-10.9.1-.8.4-1 1.2-1h5.4c.7 0 .9.2 1.1.8.4 1.9 1 3.8 1.7 5.6 2.8 7.4 7.5 13.3 14.4 17.2 3.3 1.9 6.8 3.2 10.5 4.1-7 1.8-13.4 4.8-19.7 8.4-.3.2-.4.2-.3-.1z" fill="#e96725"/><path d="m67.4 73.5.3.3c-.2.2-.3.3-.5.5-.1.1-.2 0-.5-.2.2-.2.4-.4.7-.6z" fill="#ea6d36"/><path d="m8.6 66.8c-.7.2-.7-.2-.8-.6-.2-1.5-.4-3.1-.5-4.6-.1-.6.1-1.1.9-1.2.9-.1 1 .5 1.1 1.1.2 1.4.3 2.7.5 4.1.2 1-.2 1.3-1.2 1.2z" fill="#141414"/><path d="m33.7 98.5c.3.1.8.3 1.2.5 1 .5 2 .9 3 1.4 1.3.6 1.4 1 .5 2.2-.2.3-.4.3-.7.2-1.6-.8-3.1-1.5-4.7-2.3-.4-.2-.7-.5-.4-1 .3-.4.3-1 1.1-1z" fill="#131313"/><path d="m85.4 21.2c.1-.1.1-.1.1-.2.8-.3 1.9-1 2.4-.5s0 1.6-.1 2.6c-1-.5-1.7-1.2-2.4-1.9z" fill="#272726"/></svg>