<svg enable-background="new 0 0 113.4 113.4" viewBox="0 0 113.4 113.4" xmlns="http://www.w3.org/2000/svg"><path d="m0 56.7c0-31.5 25.3-56.7 56.8-56.7 31.4 0 56.6 25.4 56.6 57 0 31.3-25.5 56.4-57 56.4-31.1 0-56.4-25.4-56.4-56.7zm56.6 54.6c30.1 0 54.7-24.5 54.7-54.6 0-30-24.5-54.6-54.5-54.7-30.1-.1-54.7 24.4-54.8 54.5 0 30.2 24.6 54.8 54.6 54.8z" fill="#28221f"/><path d="m36.4 41.3c3.3-4.2 6.6-8.4 9.9-12.6 2.3-2.9 4.5-5.7 6.7-8.6.1.1.2.2.3.3-1.1 5.1-2.2 10.3-3.2 15.4-.6 3.1-1.3 6.2-1.9 9.3-.1.4-.2.7-.3 1.1-.3 1.7-.9 3.2-2.2 4.5-2.1 2.3-4.1 4.7-6.2 7-1 1-1.9 2-2.8 3.1-.4.2-.7.6-.9 1-3.7 4.1-7.3 8.2-11.1 12.5 0-6.1 0-12 0-18.1.9-1.2 1.8-2.4 2.8-3.7.5-.5 1-1.1 1.4-1.8.9-1 1.7-2 2.5-3.2 1.8-1.9 3.4-4 5-6.2z" fill="#070804"/><path d="m64.7 45.3c-.7-3.6-1.5-7.1-2.2-10.7-1-4.8-2-9.5-3-14.3.1-.1.2-.2.3-.3 5.3 6.8 10.7 13.6 16 20.4.2.3.5.5.7.8 1.6 2.3 3.4 4.5 5.2 6.7.7 1 1.4 2 2.3 2.9.4.8 1 1.4 1.6 2.1.8 1.1 1.7 2.3 2.5 3.4v18c-3.7-4.2-7.3-8.2-10.9-12.2-.3-.5-.6-.9-1.1-1.3-.9-1.1-1.8-2.2-2.8-3.1-1.7-1.9-3.3-3.9-5-5.8-1.7-1.8-3.2-3.7-3.4-6.3-.1-.1-.1-.2-.2-.3z" fill="#070804"/><path d="m58.2 19.6c1.7 9 3.5 18 5.2 27 .1.7.3 1.3.4 2 .2 1.9 1.1 3.8.7 5.8-.8 5.4-1.6 10.8-2.4 16.2-1.3 8.7-2.7 17.5-4 26.2-.1 0-.1 0-.2 0 0-.4 0-.8 0-1.3 0-25 0-50 0-75.1 0-.3 0-.6 0-.9z" fill="#070804"/><path d="m49.7 45.4c1.7-8.6 3.3-17.2 5-25.8h.1.1v1.3 74.4 1.5c-.1 0-.1 0-.2 0-1.3-8.8-2.7-17.5-4-26.3-.6-4.3-1.3-8.5-1.9-12.8-.2-1.7-.8-3.4-.6-5.1.5-2.3 1-4.8 1.5-7.2z" fill="#070804"/><path d="m46.7 69.9c-.2.4-.4.7-.6 1.2-.9-1.1-1.8-2-2.8-3.1-3.5 2.7-7.1 5.4-10.6 8.1-.5-2-.5-4-1.3-5.8 2.2-2.4 4.4-4.7 6.6-7.1.8-.8 1.5-1.6 2.3-2.4.9-.8 1.7-1.7 2.5-2.6.7-.8 1.4-1.6 2.1-2.4.5.4.4.7.5.9.6 2.9 1 5.8 1.8 8.7 0 .7.1 1.3.5 1.8-.2 1-.8 1.8-1 2.7z" fill="#070804"/><path d="m75.2 63.5c2.1 2.3 4.2 4.5 6.3 6.8-.7 1.8-.7 3.6-1.2 5.5-3.4-2.6-6.8-5.1-10.2-7.7-1.1 1.2-2.1 2.3-3.2 3.5-.2-.5-.4-.8-.5-1.1-.3-1.1-1-2-1.1-3.1.3-.5.5-1 .4-1.6.7-3.2 1.4-6.5 2.1-10 .9 1 1.6 1.7 2.4 2.5.7.9 1.6 1.8 2.5 2.6.8.8 1.6 1.7 2.5 2.6z" fill="#070804"/><path d="m25 45.9c-2.9 2-5.8 4-8.7 6-.1-.1-.2-.2-.3-.2 2.2-2.1 4.5-4.1 6.7-6.2 2.4-2.1 4.8-4.2 7-6.4 4.3-3.9 8.7-7.8 13-11.7 3.2-2.9 6.3-5.8 9.5-8.7.3-.2.4-.7 1.1-.5-.2.3-.4.6-.6.8-4.6 5.6-9.2 11.2-13.7 16.8-.8 1-1.9 1.5-2.8 2.2-1 .7-1.9 1.4-2.9 2.1-2.9 1.8-5.7 3.7-8.3 5.8z" fill="#070804"/><path d="m96.6 51.8c-2.9-2-5.8-4-8.7-6-2.5-1.9-5.1-3.7-7.8-5.5-6-3.4-9.7-9-14-14.1-2.2-2.7-4.4-5.4-6.6-8.1.7-.2.9.3 1.2.6 7.1 6.4 14.1 12.8 21.2 19.2.5.5 1 .9 1.6 1.3 2.2 2.2 4.4 4.2 6.8 6.2 2.2 2.1 4.5 4.1 6.7 6.2-.2 0-.3.1-.4.2z" fill="#070804"/><path d="m56.8 2.1c-30.1-.1-54.7 24.4-54.8 54.5s24.5 54.7 54.6 54.7 54.7-24.5 54.7-54.6c0-30-24.4-54.5-54.5-54.6zm-23.2 38.2c-.1-.1-.2-.2-.3-.3-2.8 1.9-5.6 3.8-8.3 5.8-2.9 2-5.8 4-8.7 6-.2.3-.5.4-.8.5-.1.2-.3.3-.5.3 0 .1-.1.2-.2.1-.1-.2.1-.2.2-.2.1-.1.2-.3.3-.4.2-.2.5-.4.7-.6 2.2-2.1 4.5-4.1 6.7-6.2m0 .1c2.4-2.1 4.8-4.2 7-6.4 4.3-3.9 8.7-7.8 13-11.7 3.2-2.9 6.3-5.8 9.5-8.7.3-.2.4-.7 1.1-.5-.2.3-.4.6-.6.8-4.6 5.6-9.2 11.2-13.7 16.8-.8 1-1.9 1.5-2.8 2.2-1 .7-1.9 1.4-2.9 2.1l.3.3m4.4 22.9c.8-.8 1.5-1.6 2.3-2.4-1.1 0-2.3 0-3.4 0-.4.2-.7.6-.9 1-3.7 4.1-7.3 8.2-11.1 12.5 0-6.1 0-12 0-18.1.9-1.2 1.8-2.4 2.8-3.7m-.1.1c.5-.5 1-1.1 1.4-1.8.9-1 1.7-2 2.5-3.2 1.7-2.1 3.4-4.2 5-6.4 3.3-4.2 6.6-8.4 9.9-12.6 2.3-2.9 4.5-5.7 6.7-8.6 0-.2.2-.4.4-.4.2.3.1.5-.1.7-1.1 5.1-2.2 10.3-3.2 15.4-.6 3.1-1.3 6.2-1.9 9.3.4.1.7.2 1.1.3-.4 0-.7-.2-1.1-.3-.1.4-.2.7-.3 1.1-.3 1.7-.9 3.2-2.2 4.5-2.1 2.3-4.1 4.7-6.2 7 1 .2 2.1.4 3.1.5.7-.8 1.4-1.6 2.1-2.4.5.4.4.7.5.9.6 2.9 1 5.8 1.8 8.7 1.2-.2 1.7.8 2.3 1.5-.6.4-1.3.2-1.9.3-.1.9-.7 1.7-.9 2.6-.2.4-.4.7-.6 1.2-.9-1.1-1.8-2-2.8-3.1-3.5 2.7-7.1 5.4-10.6 8.1-.5-2-.5-4-1.3-5.8 2.2-2.4 4.4-4.7 6.6-7.1m17 33.9c-.1 0-.1 0-.2 0-1.3-8.8-2.7-17.5-4-26.3-.6-4.3-1.3-8.5-1.9-12.8-.2-1.7-.8-3.4-.6-5.1.4-2.5.9-4.9 1.4-7.4 1.7-8.6 3.3-17.2 5-25.8 0-.2 0-.4 0-.6h.2v.6 1.3 74.4c.1.6.1 1.1.1 1.7zm8.3-26.3c-.4 0-.7 0-1.1 0-1.3 8.7-2.7 17.5-4 26.2-.1 0-.1 0-.2 0 0-.4 0-.8 0-1.3 0-25 0-50 0-75.1 0-.3 0-.6 0-.9 0-.2 0-.4 0-.5h.2v.5c1.7 9 3.5 18 5.2 27 .1.7.3 1.3.4 2 .2 1.9 1.1 3.8.7 5.8-.8 5.4-1.6 10.8-2.4 16.2.5.1.9.1 1.2.1h1.1c-.4 0-.7 0-1.1 0zm .3-24c .1-.3.2-.6.4-1 .2-.2.4-.3.6-.3-.2 0-.5.1-.6.3-.2.4-.3.7-.4 1zm18.2 1.3c.7 1 1.4 2 2.3 2.9m-.1 0c .4.8 1 1.4 1.6 2.1.8 1.1 1.7 2.3 2.5 3.4v18c-3.7-4.2-7.3-8.2-10.9-12.2-.1 0-.2 0-.3.1-.2.1-.4.2-.5.3s-.3.2-.4.4c.1-.1.3-.3.4-.4s.3-.2.5-.3c.1 0 .2-.1.3-.1-.3-.5-.6-.9-1.1-1.3-1.1 0-2.3 0-3.4 0 .8.9 1.7 1.7 2.5 2.6 2.1 2.3 4.2 4.5 6.3 6.8-.7 1.8-.7 3.6-1.2 5.5-3.4-2.6-6.8-5.1-10.2-7.7-1.1 1.2-2.1 2.3-3.2 3.5-.2-.5-.4-.8-.5-1.1-.3-1.1-1-2-1.1-3.1-.4 0-.7 0-1.2 0 .1-1.1.8-1.4 1.6-1.6.7-3.2 1.4-6.5 2.1-10 .9 1 1.6 1.7 2.4 2.5 1-.3 2.1 0 3.1-.6-1.7-1.9-3.3-3.9-5-5.8-1.7-1.8-3.2-3.7-3.4-6.3 0-.1-.1-.1-.1-.2-.7-3.6-1.5-7.1-2.2-10.7-1-4.8-2-9.5-3-14.3-.2-.2-.3-.4-.2-.7.3-.1.4.2.5.4 5.3 6.8 10.7 13.6 16 20.4.2.3.5.5.7.8 1.6 2.3 3.4 4.5 5.2 6.7m6.2-2c-2.5-1.9-5.1-3.7-7.8-5.5-6-3.4-9.7-9-14-14.1-2.2-2.7-4.4-5.4-6.6-8.1.7-.2.9.3 1.2.6 7.1 6.3 14.1 12.7 21.2 19.1.5.5 1 .9 1.6 1.3m-.1 0c2.2 2.2 4.4 4.2 6.8 6.2 2.2 2.1 4.5 4.1 6.7 6.2.4.2.8.5 1.1 1 .1 0 .1.1.2.2-.2.1-.3 0-.3-.1-.5-.1-.9-.4-1.3-.8-2.9-2-5.8-4-8.7-6" fill="#fae500"/><g fill="#605a2e"><path d="m96.6 51.8c.1-.1.2-.2.3-.2.4.2.8.5 1.1 1-.7-.1-1-.4-1.4-.8z"/><path d="m16 51.6c.1.1.2.2.3.2-.2.3-.5.4-.8.5-.1-.1-.2-.1-.2-.2.2-.1.5-.3.7-.5z"/><path d="m53.4 20.4c-.1-.1-.2-.2-.3-.3 0-.2.2-.4.4-.4.2.3.1.5-.1.7z"/><path d="m59.8 20.1c-.1.1-.2.2-.3.3-.2-.2-.3-.4-.2-.7.3 0 .4.2.5.4z"/><path d="m54.9 19.6h-.2c0-.2 0-.4 0-.6h.2z"/><path d="m58.2 19.6h-.2c0-.2 0-.4 0-.5h.2z"/><path d="m15 52.6c.1-.1.2-.3.3-.4.1.1.2.1.2.2-.1.2-.3.3-.5.2z"/><path d="m15 52.6c0 .1-.1.2-.2.1s.1-.1.2-.1z"/><path d="m97.9 52.6c.1 0 .1.1.2.2-.1 0-.2-.1-.2-.2z"/></g><path d="m40.2 60.8c-1.1 0-2.3 0-3.4 0 .9-1.1 1.8-2.2 2.8-3.1 1 .2 2.1.4 3.1.5-.7 1-1.5 1.9-2.5 2.6z" fill="#fae500"/><path d="m76 60.8c-1.1 0-2.3 0-3.4 0-.9-.8-1.7-1.7-2.5-2.6 1-.3 2.1 0 3.1-.6 1.1 1 2 2.1 2.8 3.2z" fill="#fae500"/><path d="m47.2 65.5c1.2-.2 1.7.8 2.3 1.5-.6.4-1.3.2-1.9.3-.4-.6-.5-1.2-.4-1.8z" fill="#fae500"/><path d="m65.3 67.3c-.4 0-.7 0-1.2 0 .1-1.1.8-1.4 1.6-1.6.1.6-.2 1.1-.4 1.6z" fill="#fae500"/></svg>