<svg enable-background="new 0 0 113.4 113.4" viewBox="0 0 113.4 113.4" xmlns="http://www.w3.org/2000/svg"><circle cx="56.7" cy="56.7" fill="#f08305" r="56.7"/><circle cx="56.7" cy="56.7" fill="#fff" r="51.9"/><g fill="#f08305"><path d="m59 42.2v22.7c-.7.7-1.4 1.5-2.2 2.3-.8-.9-1.6-1.7-2.4-2.5 0-7.5 0-15 0-22.4-3-1.7-4.1-4.5-3.1-7.3.8-2.3 3-3.8 5.5-3.7s4.6 1.8 5.3 4.2c.8 2.6-.3 4.9-3.1 6.7z"/><path d="m54.7 93.7c-1.8-2.1-3.4-4.3-4.6-6.8-1.4-2.9-1.5-5.7 0-8.6 1.7-3.5 4-6.6 6.5-9.6 1.9-2.3 4-4.4 6.1-6.5 2.3-2.2 4.1-4.7 4.3-8.1.2-2.7-.7-5.1-2.1-7.4-.7-1.1-1.6-2.2-2.4-3.3.1-.1.2-.1.4 0 3.5 2.1 6.4 4.8 7.3 9 .5 2.4-.1 4.6-1.1 6.8-1.4 3-3.6 5.5-5.8 7.9-2 2.2-3.9 4.3-5.9 6.5-3.9 4.4-5.1 9.3-3.7 15 .4 1.8.9 3.6 1.5 5.3-.3.2-.4 0-.5-.2z"/><path d="m70.1 39.2c3.7-1.2 7.5-1.8 11.3-1.7 3.9.1 6.9-1.6 9.4-4.4.5-.6 1-1.2 1.7-2-1.9.3-3.5.6-5.1.8-3 .3-5.9-.4-8.9-.8-4.1-.5-8.3-.7-12.4-.6-.4 0-.9 0-1.3.5 1.2 1.5 1.5 3.2.9 4.9-.3 1.1-1 1.9-2.1 2.3-.1-.1-.1-.1-.1-.2s0-.1 0-.1c.3-1.1.4-2.1.3-3.2-.1-2.1-1.1-3.5-3.2-4.2-.2-.1-.4-.2-.7-.3 1.1-1.5 2.6-1.9 4.3-2 3.2-.2 6.5.2 9.7.3 6.1.3 12.1.7 18.1-.3 1.4-.2 2.7-.7 4.1-1.3-.9 5.4-6 11.2-10.9 12.2-1.3.3-2.6.1-3.9.1-3.7-.2-7.4-.3-11.1.1-.1.3-.1.2-.1-.1z"/><path d="m50 38.3c-2.4-.8-3.4-4.6-1.3-7.2-.4-.6-1-.5-1.5-.5-5.2-.1-10.4.1-15.5 1.1-3.4.7-6.8.2-10.2-.6-.1 0-.1 0-.4 0 2.6 3.3 5.3 6.1 9.7 6.2 4.3.1 8.5.5 12.6 1.8 0 .2 0 .3-.2.2-3.9-.4-7.8-.4-11.6 0-4.5.4-7.8-1.5-10.6-4.9-1.8-2.2-3.1-4.6-3.8-7.4 6 2.3 12.2 1.9 18.4 1.8 4.6-.1 9.1-.8 13.6-.6 1.7.1 3.2.5 4.3 2-2.2.6-3.6 1.9-3.8 4.2-.1 1.2 0 2.3.3 3.5.1.3 0 .4 0 .4z"/><path d="m51.3 43.3c-.8 1.1-1.6 2.2-2.3 3.3-3.4 5.1-3.1 10 1 14.5 1.7 1.9 3.6 3.7 5.4 5.5.4.4.7.8 1.1 1.2-.9 1.1-1.7 2.1-2.6 3.1-3.2-3.5-6.6-6.7-8.9-10.8-2.8-5.1-2.1-9.8 2.1-13.8 1.2-1.2 2.5-2.1 4-3 .1-.1.1-.1.2 0z"/><path d="m58.5 93.9c1.1-2.9 1.7-6 2-9.1s-.6-5.9-2.2-8.4c-.3-.5-.6-.9-.9-1.4 0 0 0-.1 0-.2.7-.9 1.5-1.9 2.4-2.8 1.5 2.1 2.8 4.2 3.9 6.5 1.3 2.7 1.2 5.4 0 8.1s-2.9 5.1-4.8 7.3c-.2.2-.3.2-.4 0z"/></g><path d="m17.7 38.6c.3.1.3.3.2.5l-1.6 4.6c-.1.4-.3.7-.5 1s-.3.5-.5.7-.4.3-.6.3c-.2.1-.4 0-.6 0l-1-.4c-.2-.1-.4-.2-.5-.4s-.2-.4-.2-.6c0-.3 0-.5 0-.9 0-.3.1-.7.3-1l .1-.3c.1-.2.2-.5.2-.6.1-.2.1-.3.2-.5.1-.1.1-.3.1-.4s.1-.2.1-.3c-.1.1-.1.2-.2.2-.1.1-.2.2-.3.3s-.2.3-.4.5-.4.4-.6.7l-1.5 1.7c-.1.2-.3.2-.5.1-.1-.1-.2-.1-.3-.3 0-.1 0-.3.1-.4 0 0 0-.1.1-.1 0-.1 0-.1.1-.2 0-.1.1-.1.1-.2s.1-.1.1-.1l3.8-4.1-1.8-.5c-.2-.1-.2-.1-.3-.3 0-.1 0-.3.1-.4.1-.2.1-.3.2-.4s.2-.1.4 0zm-.9 1-1.9-.7-1.4 3.8c-.1.3-.2.5-.2.7s-.1.4 0 .5c0 .1 0 .2.1.3s.1.1.2.1l.9.3h.2s.2-.1.3-.2.2-.2.3-.4.2-.4.3-.7z"/><path d="m11.6 47-1-.2c-.2 0-.4.1-.5.3-.2.2-.3.6-.4 1.1l-.7 4.1c0 .1-.1.2-.2.3-.1 0-.2 0-.4 0-.1 0-.3-.1-.3-.1-.1-.1-.1-.2-.1-.3l.7-4.2c.3-1.7.9-2.5 2-2.3l3 .5c1.1.2 1.5 1.1 1.2 2.8l-.2 1.3c0 .1-.1.2-.2.2s-.2 0-.4 0-.3-.1-.3-.1c.1 0 .1-.1.1-.3l.2-1.2c.1-.5.1-.9 0-1.1-.1-.3-.2-.4-.4-.4l-1.1-.2-.9 5.6c0 .1-.1.2-.2.3-.1 0-.2 0-.4 0s-.3-.1-.3-.1c-.1-.1-.1-.2-.1-.3z"/><path d="m8 57c0-.2 0-.3.1-.4s.1-.2.2-.3l5.4-3.9c.1 0 .1-.1.2-.1s.1 0 .2.1c.1 0 .1.1.1.2s.1.1.1.2 0 .2 0 .2v.2c0 .1-.1.1-.1.2l-5.1 3.6 5.1 3.5c.1.1.2.2.2.4v.2s-.1.1-.1.2-.1.1-.1.2c-.1 0-.1.1-.2.1s-.1 0-.2-.1l-5.4-3.8c-.1-.1-.2-.2-.2-.3-.2-.1-.2-.2-.2-.4z"/><path d="m11 63.1-1 .2c-.2 0-.3.2-.4.4-.1.3-.1.6 0 1.1l.8 4.1c0 .1 0 .2-.1.3s-.2.1-.3.1-.3 0-.4 0-.1-.1-.2-.2l-.8-4.1c-.3-1.7 0-2.6 1.1-2.8l3-.6c1.1-.2 1.8.5 2.1 2.2l.2 1.3c0 .1 0 .2-.1.3s-.2.1-.3.1c-.2 0-.3 0-.4 0s-.1-.1-.2-.2l-.2-1.2c-.1-.5-.2-.9-.4-1.1s-.4-.3-.5-.3l-1 .2 1.1 5.6c0 .1 0 .2-.1.3 0 0-.1.1-.3.1s-.3 0-.4 0-.1-.1-.2-.2z"/><path d="m15.5 68.7c.2-.1.4 0 .5.2l1.8 4.6c.1.4.2.7.3 1s .1.6 0 .9c0 .3-.1.5-.2.6-.1.2-.3.3-.5.4l-1 .4c-.2.1-.4.1-.6 0-.2 0-.4-.2-.6-.3-.2-.2-.4-.4-.6-.6-.2-.3-.3-.6-.5-1l-.1-.3c-.1-.2-.2-.4-.2-.6-.1-.2-.1-.3-.2-.5-.1-.1-.1-.3-.1-.4s-.1-.2-.1-.3v.3s0 .3 0 .4v.6s0 .5 0 .9v2.3c0 .2-.1.3-.3.4-.1.1-.3 0-.4 0-.1-.1-.2-.2-.2-.4 0 0 0-.1-.1-.1 0-.1 0-.1-.1-.2 0-.1 0-.1 0-.2s0-.1 0-.2l.2-5.6-1.8.9c-.2.1-.3.1-.4 0s-.2-.2-.2-.4c-.1-.2-.1-.3-.1-.4s.1-.2.3-.3zm-.1 1.3-1.9.8 1.5 3.8c.1.3.2.5.3.7s.2.3.3.4.2.1.3.2.2 0 .2 0l .9-.3c.1 0 .1-.1.2-.1 0-.1.1-.2.1-.3s0-.3-.1-.5c0-.2-.1-.4-.2-.7z"/><path d="m16.4 79-.9.5c-.2.1-.2.3-.2.6s.2.6.4 1.1l2.2 3.5c.1.1.1.2 0 .3 0 .1-.1.2-.3.2-.1.1-.2.1-.3.1s-.2-.1-.2-.2l-2.2-3.4c-.9-1.5-.9-2.5 0-3.1l2.6-1.6c.9-.6 1.8-.1 2.7 1.3l.7 1.1c.1.1.1.2 0 .3 0 .1-.1.2-.3.2-.1.1-.2.1-.3.1s-.2 0-.2-.2l-.7-1.1c-.3-.4-.5-.7-.8-.8-.2-.1-.4-.1-.6 0l-.9.6 3 4.8c.1.1.1.2 0 .3 0 .1-.1.2-.3.2-.1.1-.2.1-.3.1s-.2-.1-.2-.2z"/><path d="m23.1 92.1c-.1-.1-.1-.1-.1-.2l-.1-.1c0-.1 0-.1 0-.2s0-.1 0-.2l-.3-7.1-3.3 3c-.1.1-.2.2-.3.1-.1 0-.2-.1-.4-.3-.1-.1-.2-.3-.2-.4s0-.2.1-.3l4.1-3.8c.1-.1.2-.1.3-.1s.2.1.3.2.2.3.3.4c0 .1.1.3.1.4l.3 7 3.3-3c .1-.1.2-.2.3-.1.1 0 .2.1.3.3.1.1.2.3.2.4s0 .2-.1.3l-4.1 3.8c-.1.1-.2.2-.3.1-.2.1-.3 0-.4-.2z"/><path d="m32.1 97c-.6.9-1.7.8-3-.2l-4-2.9c-.2-.2-.2-.3-.1-.6l3.3-4.4c.2-.2.3-.2.6-.1l4 2.9c1.4 1 1.8 2 1.1 2.8zm-5.9-3.4 3.3 2.5c.4.3.8.5 1 .5.3 0 .5 0 .6-.2l1.8-2.5c.1-.2.1-.4 0-.6s-.4-.5-.8-.8l-3.3-2.5z"/><path d="m37.8 97.7 5.2 2 .9-2.2c.1-.2.1-.2.3-.3.1 0 .3 0 .4.1.2.1.3.1.4.2s.1.2 0 .4l-2 5.2c-.1.2-.1.2-.3.3-.1 0-.3 0-.4-.1-.2-.1-.3-.1-.4-.2s-.1-.2 0-.4l.8-2.1-5.2-2-.8 2.1c-.1.2-.1.2-.3.3-.1 0-.3 0-.4-.1-.2-.1-.3-.1-.4-.2s-.1-.2 0-.4l2-5.2c.1-.2.1-.2.3-.3.1 0 .3 0 .4.1.2.1.3.1.4.2s.1.2 0 .4z"/><path d="m45.9 101.5-.2 1c0 .2.1.4.3.5.2.2.6.3 1.1.4l4.1.8c.1 0 .2.1.2.2v.4c0 .1-.1.3-.1.3-.1.1-.2.1-.3.1l-4.1-.8c-1.7-.3-2.4-1-2.2-2.1l.6-3c .2-1.1 1.1-1.4 2.8-1.1l1.3.2c.1 0 .2.1.2.2v.4c0 .2-.1.3-.1.3-.1.1-.2.1-.3.1l-1.2-.2c-.5-.1-.9-.1-1.1 0-.3.1-.4.2-.4.4l-.2 1.1 5.6 1c .1 0 .2.1.2.2v.4c0 .2-.1.3-.1.3-.1.1-.2.1-.3.1z"/><path d="m56.8 99.1c.2 0 .3 0 .4.1s.2.1.3.2l3.8 5.4c0 .1.1.1.1.2s0 .1-.1.2c0 .1-.1.1-.1.1-.1 0-.1.1-.2.1s-.2 0-.2 0c-.1 0-.2 0-.2 0-.1 0-.1-.1-.2-.1l-1-1.5h-4.9l-1 1.5c0 .1-.1.1-.2.1s-.1 0-.2 0-.1 0-.2 0-.1-.1-.2-.1-.1-.1-.1-.1c0-.1-.1-.1-.1-.2s0-.1.1-.2l3.6-5.4c.1-.1.2-.2.3-.2s.1-.1.3-.1zm-1.8 3.7h3.6l-1.9-2.7z"/><path d="m64.8 104.7c-1.7.3-2.6-.1-2.8-1.1l-.8-4.3c0-.2 0-.3.1-.4s.2-.1.4-.2h.4s.2.1.2.3l.8 4.3c0 .2.2.3.4.4.3.1.6.1 1.1 0l4.2-.8c.1 0 .2 0 .3.1s.1.2.1.3v.4c0 .1-.1.1-.2.2z"/><path d="m70.5 100.7.4 1c .1.2.2.3.5.3s.6 0 1.1-.2l3.9-1.5h.3c.1.1.1.2.2.3s.1.3.1.3c0 .1-.1.2-.2.2l-3.9 1.5c-1.6.6-2.6.4-3-.6l-1.1-2.9c-.4-1 .2-1.8 1.9-2.4l1.2-.5h.3c.1.1.1.2.2.3s.1.3.1.4-.1.2-.2.2l-1.2.4c-.5.2-.8.4-1 .6s-.2.4-.2.6l.4 1 5.3-2h .3c.1.1.1.2.2.3s.1.3.1.4-.1.2-.2.2z"/><path d="m75.3 95.4c-.1-.2-.1-.4.1-.6l4.2-2.5c.3-.2.7-.4 1-.5s.6-.2.8-.2c.3 0 .5 0 .7.1s.3.2.5.4l.6.9c.1.2.2.4.1.6s-.1.4-.2.6-.3.4-.5.7c-.2.2-.5.4-.9.6l-.3.2c-.2.1-.4.2-.6.3s-.3.2-.4.3-.2.1-.3.2-.2.1-.3.2c.1 0 .2 0 .3-.1.1 0 .3 0 .4-.1.2 0 .4-.1.6-.1s.5-.1.9-.1l2.2-.4c.2 0 .3 0 .4.2.1.1.1.3 0 .4s-.2.2-.3.3c0 0-.1 0-.1.1-.1 0-.1.1-.2.1s-.1 0-.2.1c-.1 0-.1 0-.2 0l-5.5.7 1 1.6c.1.1.1.3 0 .4s-.2.2-.3.3c-.2.1-.3.1-.4.2s-.2-.1-.3-.2zm1.3-.1 1.1 1.8 3.5-2.1c.3-.2.5-.3.6-.4.2-.1.3-.2.3-.3.1-.1.1-.2.1-.3s0-.2-.1-.2l-.5-.8c0-.1-.1-.1-.2-.2-.1 0-.2 0-.3 0s-.3.1-.5.1c-.2.1-.4.2-.7.3z"/><path d="m86.3 91.9c-1.3 1.1-2.3 1.3-3 .5l-.2-.3c-.7-.8-.4-1.8.9-2.9l.7-.6c.1-.1.2-.1.3-.1s.2.1.3.2.2.2.2.3 0 .2-.1.3l-.7.6c-.4.3-.6.6-.7.9-.1.2 0 .4.1.6l.2.3c.1.1.3.2.6.2.2 0 .6-.2.9-.6l1.5-1.4c1.3-1.1 2.3-1.3 3-.5l.3.3c.7.8.4 1.8-.9 2.9l-3.2 2.8c-.1.1-.2.1-.3.1s-.2-.1-.3-.2-.2-.2-.2-.3 0-.2.1-.3l3.2-2.8c.4-.3.6-.6.7-.9.1-.2 0-.4-.1-.6l-.3-.3c-.1-.1-.3-.2-.6-.2-.2 0-.6.2-.9.6z"/><path d="m97.7 79.8c.3.2.5.4.6.7s.2.5.1.8c0 .3-.1.5-.2.8s-.3.6-.5.8l-2.8 4.1c-.2.2-.3.3-.6.1l-4.6-3.1c-.2-.2-.3-.3-.1-.6l2.7-4c .2-.3.4-.6.6-.8s.5-.4.7-.5.5-.2.8-.1c.3 0 .5.1.8.4.3.2.4.4.6.6.1.2.2.5.1.8.2-.2.5-.3.7-.3.5 0 .8.1 1.1.3zm-5.3 4.5 2.3-3.4c.1-.2.3-.4.3-.6.1-.2.1-.3.1-.4s0-.2-.1-.3-.2-.2-.3-.3-.2-.1-.4-.2c-.1 0-.2 0-.3 0s-.2.1-.4.2c-.1.1-.3.3-.4.5l-2.4 3.5zm4.7-3.5c-.1-.1-.3-.2-.4-.2s-.2 0-.4 0c-.1 0-.2.1-.4.3s-.3.3-.5.6l-2.3 3.4 1.4 1 2.4-3.5c.2-.2.3-.4.3-.6.1-.2.1-.3.1-.4s0-.2-.1-.3c.1-.2 0-.2-.1-.3z"/><path d="m95.5 73.6c.1-.2.1-.3.2-.3s.2-.1.3-.2l6.5-1.3h.2c.1 0 .1.1.1.1 0 .1.1.1.1.2v.2c0 .1 0 .2-.1.2 0 .1-.1.1-.1.2 0 0-.1.1-.2.1l-1.8.4-1.9 4.5 1 1.5c0 .1.1.1.1.2v.2c0 .1-.1.1-.1.2s-.1.1-.2.1-.1.1-.2.1-.1 0-.2 0-.1-.1-.2-.1l-3.6-5.4c-.1-.1-.1-.2-.1-.3.1-.3.2-.4.2-.6zm2.8 3.1 1.4-3.3-3.2.6z"/><path d="m100.1 68.7-1.4-5c0-.1 0-.2 0-.3s0-.2.1-.4c0-.1.1-.2.2-.3s.2-.1.3-.1c.2 0 .3.2.3.4l1.3 5.1 3.4-4.2c.1-.2.3-.2.5-.2.1 0 .2.1.3.2 0 .1.1.2 0 .3 0 .2-.1.3-.1.4s-.1.2-.2.2l-3.5 4.1 2.2.5c.2 0 .3.1.3.2v.4c0 .2-.1.3-.2.4s-.2.1-.4.1l-5.4-1.2c-.2 0-.3-.1-.3-.2s0-.3 0-.4c0-.2.1-.3.2-.4s.2-.1.4-.1z"/><path d="m105.3 60.1c-.1 1.7-.7 2.6-1.7 2.5l-4.3-.2c-.2 0-.3-.1-.3-.2s-.1-.2-.1-.4 0-.3.1-.4.2-.1.3-.1l4.3.2c.2 0 .4-.1.5-.3s.2-.6.2-1.1l.1-2.6c0-.5 0-.9-.2-1.1s-.2-.5-.3-.5l-4.3-.2c-.2 0-.3-.1-.3-.2s-.1-.2-.1-.4 0-.3.1-.4.2-.1.3-.1l4.3.2c1.1 0 1.6.9 1.5 2.6z"/><path d="m104.4 46v .2.2s0 .1-.1.2-.1.1-.1.2l-3.7 6.1 4.4-.7c.2 0 .3 0 .4.1s.1.2.1.4v.4s-.1.2-.3.2l-5.5.8c-.2 0-.3 0-.3-.1-.1-.1-.1-.2-.1-.4s0-.3 0-.5.1-.3.2-.4l3.7-6-4.4.7c-.2 0-.3 0-.4-.1s-.1-.2-.1-.4 0-.3 0-.4.1-.2.3-.2l5.5-.8c.2 0 .3 0 .3.1s0 .2.1.4z"/><path d="m103.1 43.2c.2 0 .3 0 .4.1s.1.2.2.4.1.3 0 .4-.1.2-.3.2l-5.4 1.5c-.2 0-.3 0-.4-.1s-.1-.2-.2-.4-.1-.3 0-.4.1-.2.3-.2z"/><path d="m100.5 35c0 .1.1.1.1.2v.2.2s0 .1-.1.2l-2.2 6.8 4.1-1.7c.2-.1.3-.1.4 0s .2.2.2.4c.1.2.1.3.1.4s-.1.2-.3.3l-5.2 2.1c-.2.1-.3.1-.4 0s-.2-.2-.2-.3c-.1-.2-.1-.3-.1-.4s0-.3.1-.4l2.2-6.7-4.1 1.7c-.2.1-.3.1-.4 0s-.2-.2-.2-.4c-.1-.2-.1-.3-.1-.4s.1-.2.2-.3l5.2-2.1c.2-.1.3-.1.4 0 .1-.1.2 0 .3.2z"/></svg>