<?xml version="1.0" encoding="utf-8"?>
<!-- Generator: Adobe Illustrator 27.3.1, SVG Export Plug-In . SVG Version: 6.00 Build 0)  -->
<svg version="1.1" id="Capa_1" xmlns="http://www.w3.org/2000/svg" xmlns:xlink="http://www.w3.org/1999/xlink" x="0px" y="0px"
	 viewBox="0 0 566.9 566.9" style="enable-background:new 0 0 566.9 566.9;" xml:space="preserve">
<style type="text/css">
	.st0{fill:#EF7E00;}
	.st1{fill:#F6F6F6;}
	.st2{enable-background:new    ;}
	.st3{fill:#1D1D1B;}
</style>
<path class="st0" d="M283.7,562.7C129.8,562.9,4,437.9,4.3,283.7C4.5,124.6,133.8,4,283.1,4.2c154.8,0.2,279.6,124.5,279.6,279.2
	C562.7,437.8,438.1,562.5,283.7,562.7L283.7,562.7z"/>
<g>
	<path class="st1" d="M283.7,550.3C136.6,550.5,16.4,431,16.6,283.7C16.9,131.6,140.4,16.4,283.1,16.6
		c147.9,0.2,267.2,119,267.2,266.8C550.3,430.9,431.3,550.1,283.7,550.3L283.7,550.3z"/>
	<path class="st1" d="M283.3,556.3c-72.9,0-141.4-28.4-193-80.1c-51.5-51.5-79.8-119.9-79.7-192.5c0.1-74.2,29.1-143.4,81.6-194.9
		c25.1-24.6,54.3-44,86.7-57.4c33.2-13.8,68.3-20.8,104.1-20.7c73.2,0.1,141.8,28.4,193.3,79.8c51.5,51.4,79.9,119.9,79.9,193
		c0,72.9-28.3,141.4-79.7,192.9s-119.9,79.9-192.9,80L283.3,556.3L283.3,556.3z M282.7,22.6c-143.2,0-259.8,117.1-260.1,261.1
		c-0.1,69.4,26.9,134.8,76.2,184c49.4,49.4,114.9,76.6,184.6,76.6h0.4c143.7-0.2,260.6-117.2,260.6-260.9
		c0-143.6-117.2-260.6-261.2-260.8L282.7,22.6L282.7,22.6z"/>
</g>
<g class="st2">
	<path class="st3" d="M44,169.2l9.5-17.4c3.1-5.6,7-8,10-6.4l3.9,2.1c3,1.7,3.1,6.2,0.1,11.9l-0.7,1.2c-2,3.7-2.8,5.1-3.8,6.7l0.1,0
		c1.2-1.1,2.5-2.2,6.9-5.9l7.1-5.8c0.7-0.6,1.3-0.6,1.9-0.2c1.1,0.6,1.1,1.5,0.3,2.9c-0.3,0.6-1,1.8-1.8,2.2l-17.7,13.9l6.8,3.7
		c1.2,0.6,1.1,1.5,0.3,2.9c-0.7,1.3-1.4,1.9-2.6,1.3l-19.7-10.8C43.7,170.9,43.5,170.2,44,169.2z M48.8,168.4l7.3,4l7.8-14.4
		c2.3-4.2,2.1-5.9,1-6.5l-3.4-1.8c-1.1-0.6-2.6,0.1-4.9,4.3L48.8,168.4z"/>
</g>
<g class="st2">
	<path class="st3" d="M76.2,143.3l3.3,2.5c1.2,0.9,3.3,0.2,5.7-3.1l10-13.6c0.7-0.9,1.3-0.7,2.4,0c1,0.7,1.4,1.3,0.7,2.2L88.3,145
		c-4.1,5.6-8,7.1-11.5,4.5l-10-7.4c-3.6-2.6-3.2-6.7,0.9-12.3l3.1-4.2c0.6-0.9,1.3-0.7,2.3,0c1,0.8,1.4,1.3,0.7,2.2l-3,4.1
		c-2.5,3.3-2.6,5.5-1.3,6.4l3.6,2.7l13.6-18.5c0.7-0.9,1.3-0.7,2.4,0s1.4,1.3,0.7,2.2L76.2,143.3z"/>
</g>
<g class="st2">
	<path class="st3" d="M106.7,120.6l-26.7-3.8c-0.3-0.1-0.6-0.2-0.8-0.4c-0.7-0.7-0.3-2.4,0.5-3.3c0.4-0.4,1.1-0.8,1.7-0.7l24.7,3.7
		L101,91.8c-0.1-0.6,0.1-1.2,0.5-1.6c0.8-0.9,2.4-1.4,3.2-0.6c0.2,0.2,0.3,0.5,0.4,0.7l5.4,26.3c0.2,1-0.1,1.9-1,2.9
		S107.7,120.7,106.7,120.6z"/>
</g>
<g class="st2">
	<path class="st3" d="M119,95l2.6,3.2c1,1.2,3.1,1,6.4-1.6L141.1,86c0.9-0.7,1.5-0.4,2.3,0.6c0.8,1,1,1.6,0.1,2.4l-13.3,10.7
		c-5.4,4.4-9.5,4.9-12.3,1.4l-7.8-9.7c-2.8-3.4-1.4-7.3,4-11.7l4.1-3.3c0.9-0.7,1.4-0.3,2.2,0.6c0.8,1,1,1.6,0.2,2.3l-4,3.2
		c-3.2,2.6-3.9,4.7-2.9,5.9l2.8,3.5l17.9-14.4c0.9-0.7,1.5-0.4,2.3,0.6c0.8,1,1,1.6,0.1,2.4L119,95z"/>
</g>
<g class="st2">
	<path class="st3" d="M134.5,64l17-10.3c5.5-3.3,10.1-3.4,11.9-0.5l2.3,3.8c1.8,3-0.5,7-5.9,10.3l-1.2,0.7c-3.6,2.2-5,3-6.7,3.9
		l0,0.1c1.6-0.3,3.3-0.7,9-1.6l9.1-1.5c0.9-0.1,1.4,0.1,1.8,0.8c0.7,1.1,0.1,1.9-1.2,2.7c-0.6,0.3-1.8,1-2.6,1l-22.3,3l4,6.7
		c0.7,1.1,0.2,1.8-1.2,2.6c-1.3,0.8-2.2,0.9-2.9-0.2l-11.6-19.2C133.4,65.3,133.6,64.6,134.5,64z M139.1,65.7l4.3,7.1l14-8.5
		c4.1-2.5,4.8-4,4.1-5.1l-2-3.3c-0.7-1.1-2.3-1.2-6.4,1.2L139.1,65.7z"/>
</g>
<g class="st2">
	<path class="st3" d="M175.4,57.9l1.6,3.8c0.6,1.4,2.8,1.8,6.5,0.2l15.5-6.7c1-0.4,1.5,0,2,1.2c0.5,1.1,0.5,1.9-0.5,2.3L185,65.4
		c-6.4,2.8-10.5,2.1-12.2-1.9l-5-11.5c-1.8-4.1,0.6-7.4,7-10.2l4.8-2.1c1-0.4,1.5,0,2,1.2c0.5,1.2,0.5,1.9-0.5,2.3l-4.7,2
		c-3.8,1.6-5,3.5-4.4,4.9l1.8,4.2l21.1-9.1c1-0.4,1.5,0,2,1.2c0.5,1.2,0.5,1.9-0.5,2.3L175.4,57.9z"/>
</g>
<g class="st2">
	<path class="st3" d="M229.3,49.1l-26.2-11.9l4.8,17.4c0.4,1.3-0.3,1.8-1.8,2.2c-1.5,0.4-2.3,0.3-2.7-1L197.4,34
		c-0.4-1.3,0.3-1.8,1.7-2.2c1.5-0.4,2.2-0.2,3.6,0.4l25.8,12l-4.9-17.4c-0.4-1.3,0.3-1.8,1.8-2.2c1.5-0.4,2.4-0.3,2.7,1l6.1,21.8
		c0.4,1.3-0.3,1.8-1.9,2.3C231.1,49.8,230.8,49.7,229.3,49.1z"/>
</g>
<g class="st2">
	<path class="st3" d="M268.1,37.6c0.6,4.3-2.6,7-9.5,7.8L238.7,48c-1.1,0.1-1.7-0.4-1.8-1.4l-2.8-22.2c-0.1-1.1,0.3-1.7,1.4-1.8
		l19.9-2.5c6.9-0.9,10.7,0.8,11.2,5.2L268.1,37.6z M241.3,43.8l16.7-2.1c4.1-0.5,5.8-2,5.6-3.5L262,25.8c-0.2-1.5-2.2-2.5-6.3-2
		L239,25.9L241.3,43.8z"/>
</g>
<g class="st2">
	<path class="st3" d="M293.4,44.4c-7-0.4-10.3-2.8-10.1-7.2l0.7-12.5c0.3-4.4,3.9-6.4,10.8-5.9l17.3,1c1.1,0.1,1.3,0.7,1.3,2
		s-0.4,1.9-1.5,1.8l-17.2-1c-4.1-0.2-6,0.8-6.1,2.4L288,37.5c-0.1,1.5,1.6,2.9,5.8,3.1l17.2,1c1.1,0.1,1.3,0.7,1.2,2
		c-0.1,1.2-0.3,1.9-1.5,1.8L293.4,44.4z"/>
</g>
<g class="st2">
	<path class="st3" d="M320.4,36.1l-0.8,4.1c-0.3,1.5,1.3,3,5.3,3.8l16.6,3.1c1.1,0.2,1.2,0.9,1,2.1c-0.2,1.2-0.6,1.8-1.7,1.6
		l-16.7-3.2c-6.8-1.3-9.9-4.1-9.1-8.4l2.3-12.3c0.8-4.3,4.7-5.8,11.5-4.5l5.2,1c1.1,0.2,1.2,0.9,1,2.1c-0.2,1.3-0.6,1.8-1.7,1.6
		l-5-1c-4.1-0.8-6.1,0.1-6.3,1.6l-0.8,4.4l22.5,4.3c1.1,0.2,1.2,0.9,1,2.1c-0.2,1.3-0.6,1.8-1.7,1.6L320.4,36.1z"/>
</g>
<g class="st2">
	<path class="st3" d="M370,59l-15-24.5l-5.7,17.1c-0.4,1.3-1.3,1.3-2.8,0.8c-1.4-0.5-2.1-1-1.7-2.3l7.2-21.4
		c0.4-1.2,1.3-1.3,2.6-0.9c1.5,0.5,2,1.1,2.7,2.3l14.7,24.4l5.7-17.2c0.4-1.3,1.3-1.3,2.7-0.8c1.5,0.5,2.1,1.1,1.7,2.3l-7.2,21.4
		c-0.4,1.3-1.3,1.3-2.8,0.8C371.1,60.7,370.9,60.4,370,59z"/>
</g>
<g class="st2">
	<path class="st3" d="M386,67.3c-6.2-3.1-8.4-6.7-6.4-10.6l5.6-11.2c2-4,6.1-4.3,12.3-1.2l9.2,4.6c6.2,3.1,8.4,6.6,6.4,10.6
		l-5.6,11.2c-2,3.9-6.1,4.3-12.3,1.2L386,67.3z M403.3,68.6l5.6-11.2c0.7-1.4-0.4-3.3-4.1-5.1l-8.9-4.5c-3.7-1.9-5.8-1.6-6.5-0.2
		l-5.6,11.2c-0.7,1.4,0.4,3.3,4.1,5.1l8.9,4.5C400.5,70.2,402.7,69.9,403.3,68.6z"/>
</g>
<g class="st2">
	<path class="st3" d="M424.2,90l-16.4-11.4c-0.9-0.6-1-1.4-0.4-2.3l12.7-18.4c0.6-0.9,1.4-1,2.3-0.4l16.2,11.2
		c5.1,3.5,7.7,7.1,4.4,12c-1.4,2-3.1,3.1-5.8,2.7c1.3,1.9,1.7,3.9-0.1,6.5C433.5,94.9,428.5,92.9,424.2,90z M430.3,80.9l-13.7-9.5
		l-4,5.8l14.1,9.8c3.8,2.7,5,2.2,6.3,0.3C434.5,85,434.3,83.7,430.3,80.9z M418.8,68.3l13.8,9.6c3.5,2.4,4.9,2.7,6.6,0.2
		c1.4-2,1.2-3.4-2.4-5.9l-14-9.7L418.8,68.3z"/>
</g>
<g class="st2">
	<path class="st3" d="M438.6,99.4c-0.9,1-1.7,0.8-2.9-0.2c-1.2-1-1.6-1.7-0.7-2.8L449.4,79c0.9-1,1.7-0.8,2.9,0.2
		c1.2,1,1.6,1.8,0.8,2.8L438.6,99.4z"/>
</g>
<g class="st2">
	<path class="st3" d="M466.4,97.3l-14.1,14.6c-0.9,1-1.7,0.6-2.9-0.5c-1.1-1.1-1.5-1.9-0.5-2.8L463,94l-7.7-7.4
		c-0.8-0.8-0.5-1.4,0.3-2.3c0.9-0.9,1.5-1.2,2.3-0.4l18.7,18.1c0.8,0.8,0.5,1.4-0.3,2.3c-0.9,0.9-1.5,1.2-2.3,0.4L466.4,97.3z"/>
</g>
<g class="st2">
	<path class="st3" d="M471.4,118.5l-3.2,2.6c-1.2,1-1,3.1,1.6,6.3l10.6,13.1c0.7,0.9,0.4,1.5-0.6,2.3c-1,0.8-1.6,1-2.4,0.1
		l-10.7-13.2c-4.4-5.4-4.9-9.5-1.5-12.3l9.7-7.9c3.4-2.8,7.3-1.4,11.7,4l3.3,4.1c0.7,0.9,0.4,1.4-0.6,2.2c-1,0.8-1.6,1-2.3,0.2
		l-3.2-4c-2.6-3.2-4.7-3.9-5.9-2.9l-3.5,2.9l14.5,17.8c0.7,0.9,0.4,1.5-0.6,2.3c-1,0.8-1.6,1-2.4,0.1L471.4,118.5z"/>
</g>
<g class="st2">
	<path class="st3" d="M494.3,148.5c-3.7-5.9-3.6-10.1,0.1-12.4l1.2-0.7c3.8-2.3,7.4-0.5,11.1,5.4l1.9,3c0.6,1,0.2,1.5-0.9,2.2
		c-1.1,0.7-1.8,0.8-2.3-0.2l-1.9-3.1c-2.2-3.5-4-4.2-5.3-3.4l-1.2,0.7c-1.3,0.8-1.5,2.8,0.6,6.3l4.4,7.1c3.7,5.9,3.6,10.1-0.1,12.4
		l-1.5,0.9c-3.8,2.3-7.4,0.5-11.1-5.4l-9.1-14.7c-0.6-1-0.2-1.5,0.9-2.2c1.1-0.7,1.8-0.8,2.3,0.2l9.2,14.8c2.2,3.5,4,4.2,5.3,3.4
		l1.5-0.9c1.3-0.8,1.5-2.8-0.6-6.3L494.3,148.5z"/>
</g>
<g class="st2">
	<path class="st3" d="M205.5,532.5l-18.9-6.4c-1-0.4-1.4-1.1-1-2.1l7.1-21.2c0.4-1,1-1.4,2.1-1l18.7,6.3c5.8,2,9.4,4.7,7.5,10.3
		c-0.8,2.3-2.1,3.8-4.9,4.2c1.8,1.5,2.7,3.3,1.7,6.3C215.7,534.6,210.4,534.2,205.5,532.5z M208.7,522.1l-15.8-5.3l-2.3,6.7
		l16.3,5.5c4.4,1.5,5.4,0.8,6.1-1.5C213.9,524.9,213.4,523.7,208.7,522.1z M194.3,513.1l15.9,5.4c4,1.4,5.4,1.2,6.4-1.6
		c0.8-2.3,0.2-3.6-4-5l-16.1-5.4L194.3,513.1z"/>
</g>
<g class="st2">
	<path class="st3" d="M241.9,516.2l11.1,24.5c0.1,0.3,0.1,0.6,0.1,0.8c-0.2,1-1.7,1.6-2.9,1.4c-0.6-0.1-1.1-0.4-1.4-1l-3-6.7
		l-19.3-3.6l-5,5.3c-0.4,0.4-1,0.5-1.6,0.4c-1.1-0.2-2.4-1.3-2.1-2.3c0.1-0.3,0.2-0.5,0.4-0.7l18.3-18.9c0.7-0.7,1.6-1,3-0.7
		C240.8,514.7,241.5,515.3,241.9,516.2z M229.6,528.2l14.4,2.7l-5.3-12.2L229.6,528.2z"/>
</g>
<g class="st2">
	<path class="st3" d="M262.4,528.3l19.1-9.1c0.7-0.3,1.3-0.4,2.9-0.4c1,0.1,1.9,0.6,1.8,1.7c0,0.7-0.4,1.2-1.2,1.6l-19.3,8.6
		l19,10.8c0.8,0.4,1.1,1,1,1.7c-0.1,1.1-1,1.6-2,1.5c-1.6-0.1-2.2-0.2-2.8-0.6L262.2,533l-0.4,9c-0.1,1.3-0.9,1.6-2.4,1.5
		c-1.5-0.1-2.3-0.4-2.2-1.8l1.1-22.6c0.1-1.3,0.9-1.6,2.4-1.5c1.6,0.1,2.4,0.4,2.3,1.8L262.4,528.3z"/>
</g>
<g class="st2">
	<path class="st3" d="M299.7,543.9c-6.9,0.6-10.6-1.3-11-5.7l-1.4-17.5c-0.1-1.3,0.7-1.7,2.2-1.8c1.6-0.1,2.4,0.1,2.5,1.5l1.4,17.5
		c0.1,1.5,2,2.6,6.1,2.3l10.6-0.9c4.1-0.3,5.8-1.7,5.7-3.2l-1.4-17.5c-0.1-1.3,0.7-1.7,2.2-1.9c1.5-0.1,2.4,0.1,2.5,1.5l1.4,17.5
		c0.4,4.4-2.9,6.8-9.9,7.4L299.7,543.9z"/>
</g>
<g class="st2">
	<path class="st3" d="M352.1,534.3l-25.6-13.1l4,17.6c0.3,1.3-0.4,1.8-1.9,2.2c-1.5,0.3-2.3,0.2-2.6-1.1l-5.1-22
		c-0.3-1.3,0.4-1.8,1.8-2.1c1.5-0.3,2.3-0.1,3.5,0.5l25.3,13.1l-4.1-17.6c-0.3-1.3,0.4-1.8,1.9-2.1c1.5-0.3,2.4-0.2,2.7,1.1l5.1,22
		c0.3,1.3-0.4,1.8-2,2.2C353.9,535.2,353.6,535,352.1,534.3z"/>
</g>
<g class="st2">
	<path class="st3" d="M365.8,529.5c0.4,1.3-0.3,1.8-1.7,2.3c-1.4,0.5-2.3,0.4-2.7-0.9l-7-21.5c-0.4-1.3,0.3-1.8,1.7-2.3
		c1.5-0.5,2.4-0.4,2.8,0.8L365.8,529.5z"/>
</g>
<g class="st2">
	<path class="st3" d="M395,518.4l-27.5-8.4l7.1,16.6c0.5,1.2-0.1,1.8-1.5,2.5c-1.4,0.6-2.3,0.6-2.8-0.6l-8.9-20.8
		c-0.5-1.2,0.1-1.8,1.4-2.4c1.4-0.6,2.2-0.5,3.6-0.1l27.2,8.5l-7.1-16.7c-0.5-1.2,0.1-1.8,1.5-2.4c1.4-0.6,2.3-0.6,2.8,0.6l8.9,20.8
		c0.5,1.3-0.1,1.8-1.6,2.5C396.9,518.9,396.5,518.8,395,518.4z"/>
</g>
<path class="st0" d="M399.3,300.6l93.6-16.8l-93.6-17.3c-2.8-19.2-10.3-37-21.2-52.1l56.6-57.8l-94.1,24.3
	c-12.6-7.1-26.6-12-41.6-14.1l-16-89.1l-16.5,89.1c-14.9,2.1-28.8,6.9-41.4,14l-93.6-24.2l56.2,57.4c-11.7,15.9-19.5,34.9-22,55.5
	l-91.6,16.5l92.4,17.1c3.2,19.1,11,36.6,22.2,51.4l-57.2,58.4l95.3-24.6l-3-2.7c12.9,7.5,27.2,12.5,42.6,14.7l16,89.1l16.5-89.1
	c16.3-2.3,31.5-7.9,45-16.1l-4.5,4.1l95.3,24.6L377,354C388.5,338.6,396.4,320.4,399.3,300.6L399.3,300.6z M366.1,342.8l-31.2-31.9
	l1.1,1l47.2-8.5C380.2,317.9,374.3,331.2,366.1,342.8z M383.1,263.4l-44.9-8.3l28.9-29.5C374.8,236.8,380.3,249.6,383.1,263.4
	L383.1,263.4z M198.7,225.1l32,32.7l-48.9,8.8C184.3,251.3,190.2,237.2,198.7,225.1L198.7,225.1z M182.8,306l45.1,8.4l-28.3,28.9
	C191.7,332.3,185.9,319.7,182.8,306L182.8,306z M282.4,302.8l-28.2,29.6l9.3,51.7c-17.4-3.3-33.2-11-46.3-22l49.1-56.8l-15.8-10
	l10.1-9.3L249.2,275l17.1-10.9l-50.3-58.2c13.3-11.5,29.6-19.6,47.5-23l-9.3,50l28.8,31.2l28.2-29.6l-9.3-51.7
	c18.2,3.5,34.6,11.7,48,23.4l-50,57.8l16.4,10.4l-10,9.2l11,10.5l-17.4,11l48.8,56.4c-13.2,11.1-29.2,19-46.8,22.4l9.3-50
	L282.4,302.8L282.4,302.8z"/>
</svg>
