<svg id="Capa_1" data-name="Capa 1" xmlns="http://www.w3.org/2000/svg" viewBox="0 0 566.93 566.93"><defs><style>.cls-1{fill:#be1622;}.cls-2{fill:#f07f05;}.cls-3{fill:#fdfcfc;}.cls-4{fill:#70b62c;}</style></defs><path class="cls-1" d="M285.86,4.37C130.49,4,4.13,128.52,4.25,282.54c.12,158.15,128.17,280,279.21,280S562,440.61,562.68,283.53C562.86,130.87,437.78,4.73,285.86,4.37Z"/><path class="cls-2" d="M119.7,258.79c-.22.63-.44,1.26-.65,1.89C119,259.94,118.17,259,119.7,258.79Z"/><path class="cls-3" d="M466.85,198.48l-32.17,16.67c22.76,56.54,18,110.43-15.68,162.51-6.2-5.75-11.59-10.39-16.58-15.43-26.78-27.05-42.05-58.79-38.73-97.72,3-35,18.1-65,39-92.51a11.74,11.74,0,0,1,2-1.65c8,7.81,13.05,17.63,19.78,25.23l32-16.57c-30.36-49.45-73.85-80.85-129.6-93.26s-108.08-2-156.26,29.35C108.41,155.51,51.74,254.91,98.4,364.77L130.71,348c-24.14-64-14.41-122.14,29-176,4.51,7.25,8.43,13.18,12,19.32,18.46,31.84,30.12,65.48,26.08,103-3.81,35.32-20.46,64.11-45.26,88.69-5.68-4.28-7.12-11.42-12.42-15.15l-31.78,16.46c38.64,61.75,93.91,97.28,166.22,99.81,84.83,3,149.37-35.3,188.64-110.45C492.79,317.07,492.59,257.68,466.85,198.48ZM183.68,152.33c33.21-32.19,121.78-57.35,196.94-3.2-8,10.87-15.93,21.82-22.69,34.39-6-5.22-11.36-10.31-17.13-14.93-15.45-12.35-32.46-21.62-52.42-24-28-3.38-50.73,7.48-70.21,26.64-4.57,4.49-8.81,9.32-13.83,14.66A315.08,315.08,0,0,0,183.68,152.33ZM338.44,317.18c-10.66,16.12-22.54,30.53-40,39.27-13.18,6.58-26.35,6.23-39.19-.73-14.49-7.87-25.34-19.67-35-33.37A184.27,184.27,0,0,0,229.72,276c30.65-39.51,69.3-34.46,102.87-14.3A154.86,154.86,0,0,0,338.44,317.18Zm-114-80.85-4.75-15.65c11.07-22,35.94-46.47,59.11-45.49a62.87,62.87,0,0,1,24.16,6c13.2,6.1,31.5,21.46,39.76,33.58-1.21,4.49-2.39,8.89-3.81,14.15C299.22,210.66,260.93,208.09,224.44,236.33ZM173.39,406.42a209.11,209.11,0,0,0,37.7-50c20.21,21.05,42.16,37.53,72.33,35.72,29.83-1.78,50.75-19.61,69.81-41.87,12.54,19.86,28,36.12,45.24,50.77C342.52,457.72,242.76,467.41,173.39,406.42Z"/><path class="cls-4" d="M398.47,401c-56,56.68-155.71,66.37-225.08,5.38a209.11,209.11,0,0,0,37.7-50c20.21,21.05,42.16,37.53,72.33,35.72,29.83-1.78,50.75-19.61,69.81-41.87C365.77,370.13,381.27,386.39,398.47,401Z"/><path class="cls-4" d="M342.72,214.8c-1.21,4.49-2.39,8.89-3.81,14.15-39.69-18.29-78-20.86-114.47,7.38l-4.75-15.65c11.07-22,35.94-46.47,59.11-45.49a62.87,62.87,0,0,1,24.16,6C316.16,187.32,334.46,202.68,342.72,214.8Z"/><path class="cls-4" d="M338.44,317.18c-10.66,16.12-22.54,30.53-40,39.27-13.18,6.58-26.35,6.23-39.19-.73-14.49-7.87-25.34-19.67-35-33.37A184.27,184.27,0,0,0,229.72,276c30.65-39.51,69.3-34.46,102.87-14.3A154.86,154.86,0,0,0,338.44,317.18Z"/></svg>