<?xml version="1.0" encoding="UTF-8"?>
<svg id="Capa_2" xmlns="http://www.w3.org/2000/svg" version="1.1" viewBox="0 0 566.9 566.9">
  <!-- Generator: Adobe Illustrator 29.0.1, SVG Export Plug-In . SVG Version: 2.1.0 Build 192)  -->
  <defs>
    <style>
      .st0 {
        fill: #f6f6f6;
      }

      .st1 {
        fill: #fff;
      }

      .st2 {
        isolation: isolate;
      }

      .st3 {
        fill: #cc1333;
      }

      .st4 {
        fill: #1d1d1b;
      }
    </style>
  </defs>
  <ellipse class="st0" cx="283.5" cy="283.5" rx="279.5" ry="279.2"/>
  <path class="st3" d="M548.4,253.4c-14.4-132.8-127.7-236.5-265-236.5S32.9,120.6,18.5,253.4h81.1c13.7-87.4,90.5-154.7,182.4-154.5,91.8.2,167.6,67.2,181.4,154.5h85,0Z"/>
  <path class="st3" d="M283.5,550c137.3,0,250.7-103.8,265-236.7h-85c-13.7,88-90,155-182.1,154.8-92.3-.2-167.8-66.9-181.6-154.8H18.5c14.3,132.9,127.7,236.7,265,236.7h0Z"/>
  <path class="st3" d="M559.7,313.3h-7.2c-6.4,61.1-33.4,117.8-77.7,161.9-51.1,50.8-119,78.8-191.3,78.8s-140.2-28-191.3-78.8c-44.3-44.1-71.3-100.7-77.7-161.9H5.7c14.3,140.1,133.2,249.4,277.8,249.4s263.5-109.3,277.8-249.4h-1.6Z"/>
  <path class="st3" d="M14.5,253.4c6.5-61,33.5-117.6,77.7-161.6C143.3,40.9,211.2,12.9,283.5,12.9s140.2,28,191.3,78.8c44.2,44,71.2,100.6,77.7,161.6h8.8C546.8,113.4,428,4.2,283.5,4.2S20.1,113.4,5.7,253.4h8.8Z"/>
  <g class="st2">
    <g class="st2">
      <path class="st1" d="M145.7,94.3c1.5-1.1,3.2-1.7,5.1-1.7,1.9,0,3.7.3,5.4,1,1.7.7,3.3,1.6,4.7,2.7,1.5,1.1,2.7,2.4,3.9,3.9,1.5,1.9,2.7,4.1,3.6,6.4.9,2.3,1.2,4.7.9,7.2-.2,2.5-1.3,4.6-3.3,6.3l-14,11c-2.1,1.5-4.4,2.1-6.9,1.7-2.5-.4-4.8-1.2-6.8-2.7-2-1.4-3.8-3.1-5.3-5-1.5-1.9-2.7-4-3.6-6.4-.9-2.3-1.2-4.7-1-7.2.2-2.5,1.3-4.6,3.3-6.3l.8-.7,12.3-9.7.8-.7ZM159.9,115.4c1.1-.9,1.7-2.1,1.8-3.4s0-2.7-.5-3.9c-.5-1.3-1.1-2.4-2-3.5-.8-1.1-1.8-1.9-2.9-2.7-1.1-.7-2.4-1.2-3.7-1.4-1.3-.2-2.6,0-3.8.9l-11.1,8.7c-1.1.9-1.7,2.1-1.8,3.4-.1,1.4,0,2.7.5,3.9.5,1.3,1.1,2.4,1.9,3.5.8,1.1,1.8,2,2.9,2.7,1.1.8,2.4,1.2,3.7,1.4s2.6-.1,3.8-.9l11.1-8.7Z"/>
    </g>
  </g>
  <g class="st2">
    <g class="st2">
      <path class="st1" d="M172.9,77.1l2.4,5,23.6-11.5,3.3,6.7-23.6,11.5,1.5,3c.6,1.4,1.3,2.6,2.1,3.6.8,1,1.8,1.8,3.1,2.3,1.3.5,2.6.5,3.9,0l18.6-9.1,3.3,6.7-20.3,9.9c-2.4,1-4.7,1.1-6.9.4-2.2-.7-4.2-2-5.9-3.7-1.7-1.8-3.1-3.9-4.3-6.2l-7.4-15.3,6.8-3.3ZM181.3,72.2c-.5-1-.6-2-.2-3.1.4-1,1-1.8,2-2.3,1-.5,2-.6,3.1-.2,1,.4,1.8,1,2.3,2s.6,2,.2,3.1c-.4,1-1,1.8-2,2.3s-2,.6-3.1.2c-1-.4-1.8-1-2.3-2ZM189.9,68c-.5-1-.6-2-.2-3.1.4-1,1-1.8,2-2.3s2-.6,3.1-.2,1.8,1,2.3,2,.6,2,.2,3.1c-.4,1-1,1.8-2,2.3s-2,.6-3.1.2c-1-.4-1.8-1-2.3-2Z"/>
    </g>
  </g>
  <g class="st2">
    <g class="st2">
      <path class="st1" d="M209.1,63.1l22.5-5.7-.7-2.7,7.3-1.9.7,2.7,5.6-1.4,1.8,7.2-5.6,1.4,5.8,22.8-7.3,1.9-5.8-22.8-22.5,5.7-1.8-7.2ZM231.5,67.2l.8,5.4c.3,2.6.2,5.2-.2,7.7-.5,2.5-1.4,4.8-2.9,6.9-1.5,2-3.4,3.4-5.9,4.2l-6.8,1.7-1.8-7.2,5.9-1.5c1.3-.4,2.4-1.2,3.2-2.5.8-1.2,1.2-2.5,1.3-3.9,0-1.3,0-2.8-.2-4.3l-.7-4.7,7.3-1.9Z"/>
    </g>
  </g>
  <g class="st2">
    <g class="st2">
      <path class="st1" d="M275.6,45.3l7.5.5.7-9.7,7.1.5-.7,9.7,5.4.4-.5,6.3-4.4-.3c1.6,3.1,3.3,6.9,5.4,11.2l1.8-25.2,27.4,2-3.6,48.5-7.2-.5.2-2.6-13.2-1-.2,2.6-7.1-.5,1.4-19.3-3.4,2.5c-1.1-2.7-2.2-5.4-3.4-8.3l-1.8,25.1-7.1-.5,1.6-21.6c-1.9,4.6-4.2,8.5-7,11.8l-3-7.1c4.6-5.7,7.8-11.6,9.8-17.6l-6.3-.5.5-6.3ZM302.6,71.8l-.5,7.4,13.2,1,.5-7.4-13.2-1ZM303.6,58.5l-.5,7.4,13.2,1,.5-7.4-13.2-1ZM304,52.7l13.2,1,.5-7.4-13.2-1-.5,7.4Z"/>
    </g>
  </g>
  <g class="st2">
    <g class="st2">
      <path class="st1" d="M375.4,95l-2,5.6-11.1-4-2.2,6.2-6.8-2.4,2.2-6.2-12.9-4.6,2-5.6,12.9,4.6,1.1-3.1-7-2.5.9-2.6c-3.6,1.8-7,3.1-10.2,3.8v-7.1c3.8-.8,7.6-2.4,11.3-4.9l-4.7-1.7c0,.5.1,1.3.2,2.4l-5,3.3c0-2.3-.2-4-.2-5l-8.1,22.7-6.2-2.2,6.1-17.1c-1.8,2.4-3.6,4.4-5.5,6l-.6-7.7c4.7-4.3,8.7-9.2,11.9-14.7l-5.1-1.8,2.1-5.8,5.1,1.8,3-8.4,6.2,2.2-3,8.4,3.9,1.4-2.1,5.8-3.8-1.4c.2,1.4.4,3.7.7,6.9l.9-2.5,9.1,3.3c.5-.4,1.2-1.2,2.1-2.1l-8.1-2.9,1.7-4.8,9.8,3.5c.2-.3.4-.6.8-1.1.3-.5.6-.8.8-1.1l-12-4.3,1.9-5.4,13,4.6c.4-.7.9-1.8,1.6-3.2l6.7,2.6c-.6,1.3-1.2,2.3-1.5,3l14.3,5.1-1.9,5.4-15.3-5.4c-.2.2-.4.6-.7,1-.3.5-.6.8-.7,1.1l14.6,5.2-1.7,4.8-8-2.9c0,.8,0,1.8,0,2.9l9.8,3.5-1.9,5.2-7.2-2.6c.9,4,2.4,7.5,4.6,10.6l-4.2,5.5c-2-2.8-3.6-5.9-4.8-9.2l-.9,2.6-5.8-2.1-1.1,3.1,11.1,4ZM371.2,84.1c-.4-1.4-.7-3.4-1.1-5.9l-9.1-3.2c-1.5,1.2-3.2,2.5-5.1,3.7l4.6,1.6,1.3-3.7,6.8,2.4-1.3,3.7,3.9,1.4ZM365.5,70.7l4,1.4c0-.6,0-1.6,0-2.9l-2-.7c-.6.7-1.2,1.4-2,2.2Z"/>
    </g>
  </g>
  <g class="st2">
    <g class="st2">
      <path class="st1" d="M386.1,95l3.1-5.2,15.8,9.5-3.1,5.2-15.8-9.5Z"/>
    </g>
  </g>
  <g class="st2">
    <g class="st2">
      <path class="st1" d="M421.6,93.8l29.3,25.2-4.9,5.7-11.8-10.1-16.6,19.3-5.7-4.9,16.6-19.3-11.8-10.2,4.9-5.7Z"/>
    </g>
  </g>
  <g class="st2">
    <g class="st2">
      <path class="st1" d="M75.9,421.4l-4.4-6.1,23.6-17.3c.9-.6,1.8-.8,2.8-.6,1,.2,1.8.7,2.4,1.5l1.6,2.2,4,5.5,8.1,11.1c.1.2.2.4.3.6l.2.3c1.5,2.1,2.3,4.2,2.3,6.2,0,2-.2,3.7-.9,5.2-.7,1.4-1.7,2.6-2.8,3.4-1.2.9-2.6,1.4-4.2,1.7-1.6.3-3.3,0-5.2-.7-1.9-.7-3.6-2.1-5.2-4.1l-5.8-7.9c-1.3,1.3-2.1,2.6-2.2,3.9-.2,1.2.1,2.4.9,3.5l8.9,12.2-6,4.4-9.5-13c-1.7-2.2-2.3-4.8-1.8-7.9.5-3.1,1.7-5.7,3.9-7.9,2.3-2.5,3.6-3.9,3.9-4.1.8-.6,1.8-.8,2.8-.7,1,.2,1.8.7,2.4,1.5l8.7,11.9c.4.5.9.9,1.4,1.1.5.2,1,.3,1.4.3.4,0,.8-.2,1.1-.4.3-.2.5-.5.7-.9.2-.4.2-.9.2-1.4,0-.5-.3-1.1-.7-1.7l-8.9-12.2-2.6-3.6c-.6-.8-1.3-.9-2-.3l-19.4,14.2Z"/>
    </g>
  </g>
  <g class="st2">
    <g class="st2">
      <path class="st1" d="M145.9,450.3c1.4,1.3,2.2,2.9,2.6,4.7.3,1.8.3,3.7,0,5.5-.4,1.8-1,3.5-1.9,5.1-.9,1.6-1.9,3.1-3.2,4.5-1.6,1.8-3.5,3.4-5.7,4.6-2.1,1.2-4.5,2-7,2.2-2.5.2-4.8-.5-6.8-2.1l-14.4-13c-1.9-1.8-2.8-4-2.9-6.5,0-2.5.4-4.9,1.5-7.2,1.1-2.2,2.4-4.3,4-6.1,1.6-1.8,3.5-3.4,5.7-4.6,2.1-1.3,4.4-2,7-2.2,2.5-.2,4.8.5,6.8,2.2l.8.7,12.9,11.6.8.7ZM127.5,467.9c1.1.9,2.3,1.3,3.7,1.2,1.4,0,2.6-.5,3.8-1.2,1.2-.7,2.2-1.5,3.1-2.5.9-1,1.6-2.1,2.1-3.3.5-1.2.8-2.5.8-3.9,0-1.4-.5-2.5-1.5-3.5l-11.7-10.6c-1.1-.9-2.3-1.3-3.7-1.1-1.4.1-2.6.5-3.8,1.2-1.2.7-2.2,1.5-3.1,2.5-.9,1-1.6,2.1-2.2,3.3-.6,1.2-.8,2.5-.8,3.9,0,1.4.6,2.5,1.6,3.5l11.7,10.6Z"/>
    </g>
  </g>
  <g class="st2">
    <g class="st2">
      <path class="st1" d="M181.1,494.9c-.1,1.6-.6,3.1-1.4,4.4-.8,1.3-1.8,2.4-3.2,3.3-1.4.9-3.1,1.4-5.1,1.5-2,.1-4.1-.5-6.4-1.8l-.3-.2c-.2,0-.4-.2-.6-.3l-19.3-11.3c-.8-.5-1.4-1.3-1.6-2.2-.2-.9-.1-1.9.3-2.7l12.9-22c.5-.8,1.3-1.4,2.2-1.6.9-.2,1.9-.1,2.7.3l16.5,9.7c.2.1.4.2.5.4l.3.2c2.2,1.4,3.7,3,4.6,4.8s1.3,3.5,1.2,5.1c0,1.6-.5,3-1.2,4.3-.8,1.3-1.8,2.4-3.1,3.2,0,0-.1,0-.2,0,.8,1.7,1.1,3.3,1,4.9ZM169.1,496.1c.6.4,1.2.6,1.7.5.5,0,1-.1,1.4-.4.4-.2.7-.5.9-.9.1-.2.2-.6.3-1.1,0-.5,0-1-.3-1.5-.3-.5-.7-.9-1.3-1.3l-3.1-1.8-14-8.2-1.9,3.3c-.5.9-.3,1.6.6,2.1l.4.2,15.4,9ZM174.6,483.9c.5,0,1,0,1.3-.3.4-.2.6-.4.8-.8.2-.3.3-.7.3-1.1,0-.4-.2-.9-.4-1.3-.3-.5-.7-.9-1.3-1.3l-13-7.6c-.9-.5-1.6-.4-2.1.5l-1.8,3,14.3,8.4c.6.3,1.2.5,1.8.5Z"/>
    </g>
  </g>
  <g class="st2">
    <g class="st2">
      <path class="st1" d="M186.4,505.2l13,4.6,6-16.9-13-4.6,2.5-7,33,11.7-2.5,7-13-4.6-6,16.9,13,4.6-2.5,7-33-11.7,2.5-7Z"/>
    </g>
  </g>
  <g class="st2">
    <g class="st2">
      <path class="st1" d="M262.1,498.7c1.9.3,3.5,1.1,4.8,2.5,1.3,1.4,2.3,2.9,3,4.6.7,1.7,1.1,3.5,1.3,5.3.2,1.8.1,3.7-.1,5.5-.4,2.4-1.1,4.7-2.2,7-1.1,2.2-2.6,4.1-4.6,5.7-2,1.6-4.2,2.2-6.8,2l-19.2-2.8c-2.6-.5-4.6-1.7-6-3.8-1.5-2-2.4-4.3-2.8-6.8-.4-2.5-.4-4.9,0-7.3.4-2.4,1.1-4.7,2.1-7,1.1-2.2,2.6-4.1,4.6-5.7,2-1.6,4.2-2.2,6.8-2l1,.2,17.1,2.5,1,.2ZM256.5,523.5c1.4.1,2.6-.2,3.7-1.1,1.1-.8,1.9-1.9,2.5-3.1.6-1.2,1-2.5,1.2-3.8.2-1.3.2-2.6,0-4-.2-1.3-.7-2.6-1.5-3.7-.8-1.1-1.9-1.8-3.2-2.1l-15.6-2.3c-1.4-.1-2.6.2-3.7,1.1-1.1.9-1.9,1.9-2.5,3.1-.6,1.2-1,2.5-1.2,3.8-.2,1.3-.2,2.7,0,4,.2,1.3.7,2.6,1.5,3.7s1.9,1.8,3.3,2.1l15.6,2.3Z"/>
    </g>
  </g>
  <g class="st2">
    <g class="st2">
      <path class="st1" d="M310.4,518.4l11.5-1.5-2-3.9c-.8-1.4-1.6-2.8-2.3-4-.8-1.3-1.6-2.4-2.5-3.4-.8-1-1.6-1.5-2.5-1.5-.9.2-1.6.9-2.1,2.1s-1,2.5-1.4,3.9c-.4,1.4-.8,2.9-1.2,4.5l-3.8,17.2-8.2,1.1,5.1-21.2c1.1-4.3,2.4-7.9,3.7-10.7,1.3-2.7,3.6-4.3,6.8-4.8,3.2-.4,5.8.5,7.8,2.8,2,2.3,4.1,5.4,6.4,9.3l10.6,19.1-8.4,1.1-2.4-4.7-14.2,1.9-1-7.4Z"/>
    </g>
  </g>
  <g class="st2">
    <g class="st2">
      <path class="st1" d="M341.7,518.3l13.1-4.3-5.5-17-13.1,4.3-2.3-7.1,33.3-10.8,2.3,7.1-13.1,4.3,5.5,17,13.1-4.3,2.3,7.1-33.3,10.8-2.3-7.1Z"/>
    </g>
  </g>
  <g class="st2">
    <g class="st2">
      <path class="st1" d="M412.9,479.4c1.3,1,2.4,2.1,3.1,3.4.7,1.3,1.1,2.8,1.2,4.4,0,1.6-.4,3.4-1.3,5.2-.9,1.8-2.5,3.3-4.8,4.6l-.3.2c-.2.1-.4.3-.6.4l-19.6,10.8c-.9.5-1.8.5-2.7.3-.9-.3-1.7-.8-2.2-1.7l-12.3-22.3c-.5-.9-.5-1.8-.3-2.7.3-.9.8-1.7,1.7-2.2l16.8-9.3c.2-.1.4-.2.6-.3l.3-.2c2.3-1.2,4.5-1.7,6.5-1.5,2,.2,3.7.7,5,1.6,1.3.9,2.4,2,3.1,3.2.7,1.3,1.1,2.7,1.2,4.3,0,0,0,.2,0,.2,1.9.2,3.4.7,4.7,1.6ZM400.2,479.4c.3-.4.4-.9.4-1.3,0-.4,0-.8-.2-1.1-.2-.3-.5-.6-.8-.8s-.8-.3-1.4-.3c-.5,0-1.1.1-1.8.4l-13.2,7.3c-.9.5-1.1,1.2-.6,2.1l1.7,3.1,14.5-8c.6-.4,1-.8,1.3-1.3ZM407.9,490.4c.6-.3,1.1-.7,1.3-1.2.3-.5.4-1,.4-1.4,0-.4,0-.9-.3-1.2-.1-.2-.4-.5-.8-.8s-.9-.5-1.5-.5-1.1,0-1.8.4l-3.1,1.7-14.2,7.9,1.9,3.4c.5.9,1.2,1.1,2.1.6l.4-.2,15.6-8.6Z"/>
    </g>
  </g>
  <g class="st2">
    <g class="st2">
      <path class="st1" d="M431.4,441.1c1.5-1.2,3.1-1.9,5-2,1.9,0,3.7.2,5.4.8,1.7.6,3.3,1.5,4.8,2.5s2.9,2.3,4.1,3.7c1.6,1.9,2.9,3.9,3.8,6.2,1,2.3,1.4,4.7,1.3,7.2-.1,2.5-1.1,4.7-3,6.5l-14.7,12.7c-2,1.6-4.3,2.3-6.8,2.1-2.5-.2-4.8-1-6.9-2.4-2.1-1.3-3.9-2.9-5.5-4.8-1.6-1.9-2.9-3.9-3.9-6.2-1-2.3-1.4-4.7-1.3-7.2.1-2.5,1.1-4.7,3-6.4l.8-.7,13.1-11.3.8-.7ZM446.5,461.5c1-1,1.6-2.1,1.6-3.5,0-1.4-.2-2.7-.7-3.9-.5-1.2-1.2-2.4-2.1-3.4-.9-1-1.9-1.9-3-2.6-1.2-.7-2.4-1.1-3.8-1.3-1.4-.2-2.6.2-3.7,1.1l-12,10.3c-1,1-1.6,2.1-1.6,3.5,0,1.4.2,2.7.7,3.9.5,1.3,1.2,2.4,2.1,3.4.9,1,1.9,1.9,3,2.6,1.2.7,2.4,1.1,3.8,1.3,1.4.1,2.6-.2,3.7-1.1l12-10.3Z"/>
    </g>
  </g>
  <g class="st2">
    <g class="st2">
      <path class="st1" d="M442.7,430.5l23.6-30.6,5.9,4.5-9.5,12.3,20.2,15.5-4.6,6-20.2-15.5-9.5,12.4-5.9-4.5Z"/>
    </g>
  </g>
  <path class="st1" d="M408.5,455.1l-3.3-3.8,24.3-20.9,3.3,3.8-24.3,20.9Z"/>
  <path class="st3" d="M371.7,226.8l-77.7,56.6,77.7,56.6,81.1-55.8-81.1-57.4ZM353.6,283.4l19.4-14.1,20.2,14.3-20.2,13.9-19.4-14.1h0Z"/>
  <path class="st3" d="M191.8,226.8l-77.7,56.6,77.7,56.6,81.1-55.8-81.1-57.4ZM173.7,283.4l19.4-14.1,20.2,14.3-20.2,13.9-19.4-14.1h0Z"/>
  <path class="st4" d="M362.9,215.9l-81.1-57.4-77.7,56.6,77.7,56.6,81.1-55.8ZM283,201l20.2,14.3-20.2,13.9-19.4-14.1,19.4-14.1h0Z"/>
  <path class="st4" d="M204.1,354l77.7,56.6,81.1-55.8-81.1-57.4-77.7,56.6h0ZM303.3,354.2l-20.2,13.9-19.4-14.1,19.4-14.1,20.2,14.3h0Z"/>
</svg>