<?xml version="1.0" encoding="utf-8"?>
<!-- Generator: Adobe Illustrator 27.3.1, SVG Export Plug-In . SVG Version: 6.00 Build 0)  -->
<svg version="1.1" id="Capa_1" xmlns="http://www.w3.org/2000/svg" xmlns:xlink="http://www.w3.org/1999/xlink" x="0px" y="0px"
	 viewBox="0 0 566.9 566.9" style="enable-background:new 0 0 566.9 566.9;" xml:space="preserve">
<style type="text/css">
	.st0{fill:#95C11F;stroke:#95C11F;stroke-miterlimit:10;}
	.st1{fill:#006633;}
	.st2{enable-background:new    ;}
	.st3{fill:#FFFFFF;}
	.st4{fill:#F6F6F6;}
</style>
<g>
	<path class="st0" d="M91.7,164.3c-2.7,8.1-7.9,15.1-11.4,22.9C51.8,249.7,50,312.9,78.6,375.3c34.2,74.5,93.1,119.3,174.2,130.5
		c77.2,10.7,145.6-12.7,204-64.3c26.8-23.7,47.5-52.2,62.2-84.7c18.5-40.6,25.6-83.4,22-128c-3.3-42-16.6-80.7-37.9-117.1
		c3.5,4.7,7,9.3,10.3,14.2c3.3,4.9,6.6,9.8,9.6,14.9c3.1,5.2,6.1,10.6,8.9,16.1c24.8,49.6,34.8,102,28.4,157.2
		c-14,121-100,216.9-219.7,242.1c-81.5,17.2-155.8,0-219.3-55.5c-46.4-40.5-73.6-92-81.1-153.3c-8.1-65.1,8.1-124.1,46.7-177.1
		c1.6-2.1,3.3-4.1,4.9-6.2L91.7,164.3L91.7,164.3z"/>
	<path class="st0" d="M64.4,453.1c-2.9,1.2-3.3-1.6-4.3-3c-40.5-54.8-59-116.4-54.8-184.2C13,138.1,106.4,32.6,232.9,9.3
		C309-4.7,378.8,11,439,60.6c48.8,40.2,78.2,92.1,87.1,155.1c5.3,37.6,2.1,74.3-9.9,110.4c-9.1,27.6-22.5,52.7-40.8,75.2
		c4-7.7,8.4-15.2,11.8-23.1c36.2-83.2,26.6-161.4-27.5-233.9c-20-26.8-45.6-47.6-75.7-62.3c-40.2-19.6-82.7-27.5-127.1-22
		C158.2,72.4,86.6,123.8,46.6,214.6C11.1,295.1,18.4,374.8,62.4,451C62.9,451.9,63.2,452.9,64.4,453.1L64.4,453.1L64.4,453.1z"/>
	<path class="st0" d="M64.4,453.1c0.2,1.1,0.3,2.3,0.4,3.4l0.2,0.1C65.3,455.3,63.4,454.5,64.4,453.1L64.4,453.1L64.4,453.1z"/>
	<path class="st0" d="M91.9,164.2l0.1,0.2c0,0-0.3-0.1-0.3-0.1L91.9,164.2L91.9,164.2z"/>
	<path class="st0" d="M64.8,456.5l0.3-0.2c0,0-0.1,0.3-0.1,0.3S64.8,456.5,64.8,456.5L64.8,456.5z"/>
</g>
<g>
	<path class="st1" d="M283.7,506.4c-122.9,0.2-223.3-99.6-223.1-222.7C60.8,156.7,164,60.4,283.2,60.6
		c123.5,0.2,223.2,99.4,223.2,222.9C506.4,406.6,406.9,506.2,283.7,506.4L283.7,506.4z"/>
	<path class="st1" d="M283.4,511.4c-60.9,0-118.1-23.8-161.2-66.9c-43-43-66.7-100.1-66.6-160.8c0.1-62,24.3-119.8,68.2-162.8
		c21-20.6,45.4-36.7,72.4-48c27.7-11.5,57-17.3,86.9-17.3c61.1,0.1,118.5,23.8,161.5,66.7c43,42.9,66.7,100.2,66.8,161.2
		c0,60.9-23.6,118.1-66.6,161.1s-100.1,66.7-161.1,66.8L283.4,511.4L283.4,511.4z M282.8,65.6c-119.6,0-217.1,97.8-217.3,218.1
		c-0.1,58,22.5,112.6,63.6,153.7c41.2,41.2,96,64,154.2,64h0.3c120-0.2,217.7-97.9,217.7-217.9c0-120-97.9-217.7-218.2-217.9
		L282.8,65.6L282.8,65.6z"/>
</g>
<g class="st2">
	<path class="st3" d="M131.5,67.9l17.1-10.7c5.5-3.5,10.2-3.7,12.1-0.7l2.4,3.8c1.9,3-0.4,7.1-5.9,10.6l-1.2,0.8
		c-3.6,2.3-5.1,3.1-6.7,4l0,0.1c1.6-0.3,3.3-0.8,9.1-1.8l9.2-1.6c0.9-0.2,1.4,0.1,1.8,0.8c0.7,1.1,0.2,1.9-1.2,2.7
		c-0.6,0.4-1.8,1-2.7,1.1L143,80.4l4.2,6.7c0.7,1.2,0.2,1.9-1.1,2.7c-1.3,0.8-2.2,1-2.9-0.2L131,70.2
		C130.4,69.3,130.6,68.5,131.5,67.9z M136.2,69.6l4.5,7.2l14.2-8.9c4.2-2.6,4.8-4.2,4.1-5.3l-2.1-3.3c-0.7-1.1-2.4-1.2-6.5,1.4
		L136.2,69.6z"/>
</g>
<g class="st2">
	<path class="st3" d="M182.9,68.6c-6.5,2.9-10.7,2.3-12.4-1.8l-5.1-11.6c-1.8-4.1,0.6-7.6,7.1-10.4l9.6-4.2
		c6.5-2.9,10.6-2.3,12.5,1.8l5.1,11.6c1.8,4.1-0.6,7.6-7.1,10.4L182.9,68.6z M195.2,55.9L190,44.3c-0.6-1.4-2.8-1.8-6.7-0.1
		l-9.3,4.1c-3.9,1.7-5,3.6-4.4,5l5.1,11.6c0.6,1.4,2.8,1.8,6.7,0.1l9.3-4.1C194.6,59.2,195.8,57.3,195.2,55.9z"/>
</g>
<g class="st2">
	<path class="st3" d="M225.5,53.4l-19.6,5.5c-1.1,0.3-1.8-0.1-2-1.2l-6.1-21.9c-0.3-1.1,0.1-1.7,1.1-2l19.3-5.4
		c6-1.7,10.6-1.4,12.2,4.4c0.7,2.4,0.5,4.4-1.7,6.3c2.3,0.2,4.1,1.2,5,4.3C235.4,49.3,230.6,52,225.5,53.4z M205,43.5l16.5-4.6
		c4.2-1.2,5.3-2.1,4.5-5c-0.7-2.4-1.9-3.2-6.2-2l-16.7,4.7L205,43.5z M222.3,42.8l-16.4,4.6l1.9,7l16.9-4.7c4.6-1.3,5-2.4,4.3-4.8
		C228.3,42.2,227.1,41.4,222.3,42.8z"/>
</g>
<g class="st2">
	<path class="st3" d="M242.2,48.4c0.2,1.3-0.5,1.8-2.1,2.1c-1.5,0.3-2.4,0.1-2.6-1.2l-4.2-22.6c-0.2-1.3,0.5-1.8,2-2.1
		c1.6-0.3,2.4-0.1,2.7,1.2L242.2,48.4z"/>
</g>
<g class="st2">
	<path class="st3" d="M272.2,45.3l-24-16.7l1.7,18.3c0.1,1.4-0.7,1.8-2.2,1.9c-1.5,0.1-2.4-0.1-2.5-1.5L243,24.4
		c-0.1-1.3,0.6-1.8,2.1-1.9c1.6-0.1,2.3,0.2,3.5,1l23.7,16.7l-1.7-18.3c-0.1-1.4,0.7-1.8,2.2-1.9c1.6-0.1,2.4,0.1,2.6,1.5l2.1,22.9
		c0.1,1.4-0.7,1.8-2.3,1.9C273.9,46.3,273.6,46.2,272.2,45.3z"/>
</g>
<g class="st2">
	<path class="st3" d="M298.7,31.7l23.1,2.5l1-9.7c0.1-1.4,1-1.6,2.6-1.4c1.5,0.2,2.3,0.6,2.2,1.9l-2.4,22.9c-0.1,1.4-1,1.6-2.5,1.4
		c-1.6-0.2-2.4-0.6-2.2-1.9l1-9.3l-23.1-2.5l-1,9.3c-0.1,1.4-1,1.6-2.6,1.4c-1.5-0.2-2.3-0.6-2.2-1.9l2.4-22.9
		c0.1-1.4,1-1.6,2.5-1.4c1.6,0.2,2.4,0.6,2.2,1.9L298.7,31.7z"/>
</g>
<g class="st2">
	<path class="st3" d="M337.5,52.5c-6.9-1.8-9.8-4.8-8.7-9.1L332,31c1.1-4.4,5.1-5.6,12-3.8l10.1,2.6c6.9,1.8,9.8,4.8,8.7,9.1
		l-3.2,12.3c-1.1,4.3-5.1,5.6-12,3.8L337.5,52.5z M355,50.1l3.2-12.3c0.4-1.5-1.1-3.2-5.2-4.2l-9.9-2.5c-4.1-1-6.2-0.3-6.6,1.2
		l-3.2,12.3c-0.4,1.5,1.1,3.2,5.2,4.2l9.9,2.5C352.5,52.3,354.6,51.6,355,50.1z"/>
</g>
<g class="st2">
	<path class="st3" d="M369.6,62.4c-6.5-2.7-9-6.2-7.3-10.3l4.9-11.7c1.7-4.2,5.9-4.8,12.4-2.1l9.7,4c6.5,2.7,9,6.1,7.3,10.3
		l-4.9,11.7c-1.7,4.1-5.9,4.8-12.4,2.1L369.6,62.4z M387.3,62.5l4.9-11.7c0.6-1.5-0.6-3.3-4.5-4.9l-9.4-3.9
		c-3.9-1.6-6.1-1.2-6.7,0.3L366.7,54c-0.6,1.4,0.6,3.3,4.5,4.9l9.4,3.9C384.5,64.4,386.7,64,387.3,62.5z"/>
</g>
<g class="st2">
	<path class="st3" d="M403,60.7l21.5,0.8c0.8,0,1.4,0.2,2.8,1c0.9,0.5,1.4,1.4,0.8,2.4c-0.3,0.6-0.9,0.9-1.8,0.8l-21.5-1.4l12,18.8
		c0.5,0.7,0.5,1.4,0.2,2c-0.6,1-1.6,1-2.5,0.4c-1.4-0.8-1.9-1.3-2.3-1.9l-11.7-18.9l-4.7,7.9c-0.7,1.2-1.6,1-2.9,0.2
		c-1.3-0.8-1.9-1.5-1.2-2.7l11.6-19.8c0.7-1.2,1.6-1,2.9-0.3c1.4,0.8,1.9,1.5,1.2,2.7L403,60.7z"/>
</g>
<g class="st2">
	<path class="st3" d="M152.1,514.5c-6.2-3.4-8.3-7-6.2-11l6.1-11.2c2.1-4,6.3-4.2,12.6-0.8l9.2,5c6.2,3.4,8.3,7,6.2,11l-6.1,11.2
		c-2.1,3.9-6.3,4.2-12.6,0.8L152.1,514.5z M169.7,516.4l6.1-11.2c0.8-1.4-0.3-3.3-4-5.3l-9-4.8c-3.7-2-5.9-1.8-6.7-0.4l-6.1,11.2
		c-0.7,1.4,0.3,3.3,4,5.3l9,4.9C166.8,518,169,517.8,169.7,516.4z"/>
</g>
<g class="st2">
	<path class="st3" d="M185.4,530.4c-6.6-2.5-9.2-5.8-7.7-10l6.2-16.7c0.5-1.3,1.4-1.3,2.8-0.8c1.5,0.6,2.1,1.1,1.7,2.4l-6.2,16.7
		c-0.5,1.4,0.7,3.3,4.7,4.7l10.1,3.8c3.9,1.5,6.1,0.9,6.6-0.5l6.2-16.7c0.5-1.3,1.4-1.3,2.9-0.7c1.5,0.5,2.1,1.1,1.6,2.4l-6.2,16.7
		c-1.6,4.2-5.7,5-12.3,2.6L185.4,530.4z"/>
</g>
<g class="st2">
	<path class="st3" d="M231.3,521.2l-4.6,20.1c-0.3,1.3-1.2,1.5-2.7,1.1c-1.5-0.3-2.2-0.8-1.9-2.2l4.6-20.1l-10.6-2.4
		c-1.1-0.3-1.2-0.9-0.9-2.2s0.7-1.8,1.8-1.6l25.8,6c1.1,0.3,1.2,0.9,0.9,2.2s-0.7,1.8-1.8,1.6L231.3,521.2z"/>
</g>
<g class="st2">
	<path class="st3" d="M252.7,547.4c-7.1-0.7-10.4-3.3-9.9-7.8l1.8-17.8c0.1-1.4,1-1.6,2.5-1.4c1.6,0.2,2.4,0.6,2.2,1.9l-1.8,17.8
		c-0.2,1.5,1.5,3,5.7,3.4l17.5,1.8c1.1,0.1,1.3,0.8,1.2,2c-0.1,1.3-0.4,1.9-1.6,1.8L252.7,547.4z"/>
</g>
<g class="st2">
	<path class="st3" d="M295.3,523.9l16.6,21.8c0.2,0.3,0.3,0.6,0.3,0.8c0,1.1-1.3,2-2.6,2c-0.6,0-1.2-0.2-1.6-0.7l-4.5-6l-20,0.8
		l-3.8,6.3c-0.3,0.5-0.9,0.8-1.5,0.8c-1.2,0-2.6-0.7-2.7-1.8c0-0.3,0.1-0.5,0.2-0.8l13.9-22.9c0.5-0.8,1.4-1.3,2.8-1.4
		C293.9,522.7,294.7,523.2,295.3,523.9z M285.9,538.7l14.9-0.6l-8.1-10.9L285.9,538.7z"/>
</g>
<g class="st2">
	<path class="st3" d="M324.9,544.6c-0.3,1.1-1.1,1.8-2.4,2c-1.4,0.3-2.5,0-3.2-1.1l-14-19.9c-0.2-0.3-0.3-0.5-0.4-0.8
		c-0.2-1,0.8-1.9,2.3-2.2c1.1-0.2,1.8,0,2.2,0.7l12,17.8l5-20.4c0.4-1.5,0.9-2,2.3-2.3c1.5-0.3,2,0,2.9,1.3l12.2,17l4.7-21
		c0.2-0.8,0.7-1.2,1.8-1.4c1.5-0.3,2.7,0.1,2.9,1.2c0,0.2,0,0.5-0.1,0.9l-5.8,23.7c-0.3,1.2-1.2,1.9-2.6,2.2c-1.3,0.2-2.4,0-3.1-1
		l-11.8-16.6L324.9,544.6z"/>
</g>
<g class="st2">
	<path class="st3" d="M382.8,502.7l23.4,14.1c0.3,0.2,0.5,0.4,0.6,0.7c0.4,1-0.5,2.3-1.6,2.8c-0.6,0.3-1.2,0.3-1.7,0l-6.4-3.9
		l-18.3,8.1l-1.2,7.3c-0.1,0.6-0.6,1-1.1,1.3c-1.1,0.5-2.7,0.3-3.2-0.7c-0.1-0.3-0.1-0.5-0.1-0.8l4.4-26.4c0.2-0.9,0.8-1.7,2.1-2.3
		C381,502.2,381.9,502.3,382.8,502.7z M379.4,519.9l13.6-6l-11.5-7.2L379.4,519.9z"/>
</g>
<g class="st2">
	<path class="st3" d="M413.7,513.2c0.7,1.2,0.1,1.9-1.3,2.6c-1.4,0.8-2.2,0.9-2.9-0.3l-11.2-20.1c-0.7-1.2-0.1-1.9,1.3-2.6
		c1.4-0.8,2.3-0.9,2.9,0.3L413.7,513.2z"/>
</g>
<g>
	<path class="st4" d="M223,133.9c28.8,3.1,57.5,6.2,86.3,9.3c21.9,2.3,43.7,4.7,65.5,7c0.6,0.1,1.1,0.3,2.5,0.7
		c-17.8,9.9-35,19.5-52.2,29c-1.7,0.9-3.9,1-5.9,1.1c-32.3,1.5-64.6,3-96.9,4.5c-3.1,0.1-6.2,0.6-8.9,0.9c-9,9.1-17.7,17.9-26.7,27
		c8.1,8.5,16.4,17.2,25.3,26.6h-79.8c8.2-10.9,15.9-21.3,23.6-31.6c17.8-23.7,35.6-47.4,53.4-71.1c1.1-1.4,1.8-3.1,2.7-4.6
		c0.9,0,1.8,0,2.7,0C217.3,134.8,220.2,134,223,133.9L223,133.9z"/>
	<path class="st4" d="M434.6,355.3c-16.7,10.9-32.1,23.6-48.2,35.5c-18.4,13.6-36.6,27.5-54.9,41.3c-1.2,0.9-2.2,2.2-4.4,2v-79.9
		c9.1,10.1,17.1,19,24.9,27.6c10.1-10.1,18.8-18.9,28.4-28.5c0.9-14.4,2-30.2,2.9-46.1c1.1-20,2-39.9,3.1-59.9
		c0.1-2,0.4-4.2,1.3-5.9c9.1-16.7,18.3-33.4,29-50c5.6,51,11.2,102,16.9,153c0,2.8-0.9,5.7,1.2,8.2L434.6,355.3L434.6,355.3z"/>
	<path class="st4" d="M223,133.9c-2.8,0.1-5.7,0.9-8.2-1.2h8.1C222.9,133.1,222.9,133.5,223,133.9z"/>
	<path class="st4" d="M434.6,352.6c-2.1-2.5-1.2-5.4-1.2-8.2c0.4,0,0.8,0.1,1.2,0.1V352.6z"/>
	<path class="st4" d="M334.9,212.3c-6.3-6.6-12.6-13.2-19.5-20.5c27.9-14.3,55.4-28.3,82.8-42.3c6.7,6.8,12.9,12.9,19.6,19.7
		c-13.9,27.2-27.8,54.5-42.2,82.7c-7.1-6.7-13.8-13.1-20.5-19.5l0.1,0.1c-0.5-0.5-1-1-1.4-1.4l0.1,0.1c-0.5-0.5-1-1-1.4-1.4l0.1,0.1
		c-0.5-0.5-1-1-1.4-1.4l0.1,0.1c-0.5-0.5-1-1-1.4-1.4l0.1,0.1c-0.5-0.5-1-1-1.4-1.4l0.1,0.1c-0.5-0.5-1-1-1.4-1.4l0.1,0.1
		c-0.5-0.5-1-1-1.4-1.4l0.1,0.1c-0.5-0.5-1-1-1.4-1.4l0.1,0.1c-0.5-0.5-1-1-1.4-1.4l0.1,0.1c-0.5-0.5-1-1-1.4-1.4l0.1,0.1
		c-0.5-0.5-1-1-1.4-1.4l0.1,0.1c-0.5-0.5-1-1-1.4-1.4l0.1,0.1c-0.5-0.5-1-1-1.4-1.4l0.1,0.1c-0.5-0.5-1-1-1.4-1.4l0.1,0.1
		c-0.5-0.5-1-1-1.4-1.4L334.9,212.3L334.9,212.3z"/>
	<path class="st4" d="M268.9,278.1c6.3,6.8,13.4,14.4,20.1,21.6c-33.3,33.1-66.2,65.8-98.3,97.8c-6.4-6.3-13.9-13.8-20.7-20.5
		C202,345,235.2,311.8,268.9,278.1z"/>
	<path class="st4" d="M355,232.5c0.6,4.1-2.8,5.7-5.1,8c-2.7,2.7-5.5,5.2-8.1,7.5c-1.3,30.1-13.6,45.4-34.6,43.7
		c-20.6-1.6-34.4-18.5-31.7-38.8c2.6-19.1,20.6-31.2,42.7-27.4c2.8-3.2,6.4-6.9,9.7-10.9c1.9-2.3,4.1-3.1,7-2.4l-0.1-0.1
		c-0.1,1.1,0.4,1.6,1.4,1.4l-0.1-0.1c-0.1,1.1,0.4,1.6,1.4,1.4l-0.1-0.1c-0.1,1.1,0.4,1.6,1.4,1.4l-0.1-0.1
		c-0.1,1.1,0.4,1.6,1.4,1.4l-0.1-0.1c-0.1,1.1,0.4,1.6,1.4,1.4l-0.1-0.1c-0.1,1.1,0.4,1.6,1.4,1.4l-0.1-0.1
		c-0.1,1.1,0.4,1.6,1.4,1.4l-0.1-0.1c-0.1,1.1,0.4,1.6,1.4,1.4l-0.1-0.1c-0.1,1.1,0.4,1.6,1.4,1.4l-0.1-0.1
		c-0.1,1.1,0.4,1.6,1.4,1.4l-0.1-0.1c-0.1,1.1,0.4,1.6,1.4,1.4l-0.1-0.1c-0.1,1.1,0.4,1.6,1.4,1.4l-0.1-0.1
		c-0.1,1.1,0.4,1.6,1.4,1.4l-0.1-0.1c-0.1,1.1,0.3,1.6,1.4,1.4l-0.1-0.1c-0.1,1.1,0.4,1.6,1.4,1.4L355,232.5L355,232.5z
		 M308.9,274.5c9.4-0.1,16.3-6.8,16.4-16c0.1-9.7-7.3-17.4-16.8-17.5c-9.3-0.1-16.9,7.9-16.8,17.4C291.9,268,299,274.6,308.9,274.5
		L308.9,274.5z"/>
	<path class="st4" d="M132.5,411.9c3-3.1,6.7-6.9,9.9-10.2c7.8,7.8,15.3,15.3,23,23.1c-3.2,2.9-7.1,6.4-10.6,9.4
		C147.9,427.3,140.2,419.6,132.5,411.9L132.5,411.9z"/>
	<path class="st4" d="M186.9,407.7c-3.5,2.6-6.4,4.8-9.2,6.9c-1.2,0.9-2.4,1.9-3,2.4c-7.8-8-15.4-15.8-23.5-24.1
		c1.8-2.6,5.5-6,10.1-9.7C169.2,390.8,177,398.3,186.9,407.7L186.9,407.7z"/>
</g>
</svg>
