<svg viewBox="0 0 566.93 566.93" xmlns="http://www.w3.org/2000/svg"><circle cx="283.46" cy="283.46" fill="#fff" r="276.38"/><path d="m283.94 86.07c99.13.24 181 73.49 194.82 168.71h68.3c-14.34-132.78-127.06-236.47-263.6-236.47s-249.25 103.69-263.59 236.47h68.24c13.7-95.3 96.54-168.95 195.83-168.71z" fill="#cc1333"/><path d="m283.46 548.62c136.62 0 249.41-103.85 263.63-236.75h-68.31c-13.79 95.84-96 169.22-195.53 169a197 197 0 0 1 -195-169h-68.41c14.22 132.9 127.01 236.75 263.62 236.75z" fill="#cc1333"/><path d="m551.1 311.87a269.13 269.13 0 0 1 -457.93 161.89 267 267 0 0 1 -77.34-161.89h-8.74c14.22 140.13 132.53 249.41 276.37 249.41s262.16-109.28 276.38-249.41z" fill="#cc1333"/><path d="m283.46 14.34a269.17 269.17 0 0 1 267.61 240.44h8.74c-14.35-139.95-132.6-249.13-276.35-249.13s-261.99 109.18-276.34 249.13h8.74a269.17 269.17 0 0 1 267.6-240.44z" fill="#cc1333"/><path d="m283.46 552.59a269.17 269.17 0 0 0 267.64-240.72h-4c-14.22 132.9-127 236.75-263.63 236.75s-249.41-103.85-263.63-236.75h-4a269.17 269.17 0 0 0 267.62 240.72z" fill="#feffff"/><path d="m283.46 18.31c136.54 0 249.26 103.69 263.6 236.47h4a269.13 269.13 0 0 0 -457.89-161.61 267.08 267.08 0 0 0 -77.31 161.61h4c14.35-132.78 127.14-236.47 263.6-236.47z" fill="#feffff"/><g fill="#fff"><path d="m127.24 95.92-3.24-4.92 10.32-6.88a48.65 48.65 0 0 0 -4.72-2.31l-6.06 4.05-3.22-4.83 16.38-10.88-2.42-3.63 6.59-4.4 2.42 3.63 16.39-10.92 3.22 4.82-6.12 4.08a45.33 45.33 0 0 1 .51 5.11l10.18-6.78 3.25 4.87zm22.53 13.2 1.75 2.63-6.06 4-13.46-20.21 36.6-24.4 8.7 13 4.27-2.29q1.62 2.86 2.43 4.15a18.89 18.89 0 0 1 1.51 3.2 24.27 24.27 0 0 1 .88 2.62 4.7 4.7 0 0 1 -.27 2.18 5.16 5.16 0 0 1 -1 2.06q-.57.59-2.37 2.13a34.94 34.94 0 0 1 -3.33 2.56l-4.69 3.12c-1.81 1.22-3.24 2.14-4.28 2.79a20.8 20.8 0 0 1 -3.05 1.59 8.11 8.11 0 0 1 -2.31.67 3 3 0 0 1 -1.75-.45 5.51 5.51 0 0 1 -1.6-1.31 29.32 29.32 0 0 1 -1.72-2.38l-1.15-1.72zm.74-35.75a37.72 37.72 0 0 0 -.27-5.27l-13.76 9.17q2.15 1 4.57 2.4zm-7.94 24.95 9.08-6-1.65-2.58-9.07 6.05zm2.62 3.92 1.75 2.63 9.06-6.05-1.76-2.63zm21.81-20.24-1.69-2.54-9.08 6.06 1.77 2.55zm2.61 3.92-9.08 6 1.75 2.62 9.08-6zm4.59 6.88-9.08 6.05.86 1.29c.49.73 1 1 1.48.87a30.6 30.6 0 0 0 4.57-2.77q5.27-3.49 6.24-4.71c.66-.81.58-1.9-.25-3.28z"/><path d="m220.77 76.44-2.42 6.64a61.3 61.3 0 0 0 -14.59-5.08q-2.49 8-10.9 14.5l-4.69-5.44q9.38-6.87 9.47-13.21l-3.75 1.27-6.2 2.1-5.38-15.88 10.49-3.56-.84-2.5-6.26 2.12-.64-1.9a55 55 0 0 1 -4.23 5.25l-3.75-6.43a54.57 54.57 0 0 0 9.14-14l8-2.71a98.37 98.37 0 0 0 15.61 4.72l-2.21-6.53 6.53-2.21 11.71 34.6-6.53 2.21-9.33-27.54-.4 6.33c-1.88-.42-3.25-.76-4.11-1l.77 2.29-7.39 2.5.84 2.5 10.39-3.51 5.38 15.88-10.88 3.64a.53.53 0 0 1 0 .18 75.78 75.78 0 0 1 16.17 4.77zm-20.7-30q-3.51-1.23-8.15-3.3a70.29 70.29 0 0 1 -3.6 7.28zm-3.62 22.08-1.86-5.49-4.3 1.45 1.86 5.5zm6.91-2.34 4.35-1.47-1.86-5.49-4.35 1.47zm14.06-36.18 6.86-2.32 13.37 39.49a42.41 42.41 0 0 1 1.43 4.94 5.38 5.38 0 0 1 -.19 3 3.67 3.67 0 0 1 -1.79 2 34.3 34.3 0 0 1 -4.1 1.6q-2.44.83-7.32 2.18l-2.5-6.31q5.64-1.6 6.4-1.87c1-.33 1.53-.64 1.65-.92a4.58 4.58 0 0 0 -.43-2.28z"/><path d="m261.6 61.21 19-.24 1.78-13.8c.34-3.11-.67-4.66-3.05-4.67l-16.13.2-.1-7.7 18.72-.24a8.32 8.32 0 0 1 6.81 3 7.94 7.94 0 0 1 1.76 6.78l-2 16.33 11.31-.14.1 7.7-38.13.48z"/><path d="m307.29 61.58 33.65 6.23-1.4 7.57-33.65-6.24zm4.77-25.75 33.66 6.23-1.41 7.57-33.65-6.24z"/><path d="m360.79 54.58-5.09 13.55-5.81-2.13 5.11-13.6zm23.3 8.51-10.46 13.31a20.15 20.15 0 0 1 -7.07 5.77 9.22 9.22 0 0 1 -6.65.54l-5.7-2.14 2.16-5.75 4.25 1.6a5.37 5.37 0 0 0 3.53-.09 8.59 8.59 0 0 0 3.18-1.84 22.72 22.72 0 0 0 2.48-2.78l8.26-10.88zm-14.7-5.28-5.09 13.55-5.81-2.18 5.09-13.55z"/><path d="m403.19 65-6.67 11.2 22.56 13.41-3.93 6.62-22.56-13.44-6.84 11.5-6.66-4 17.43-29.29z"/><path d="m433.76 129.39-18.93-17.09 5.16-5.71 17.47 15.78a5.13 5.13 0 0 0 3.8 1.19 9.66 9.66 0 0 0 3.93-1.22 12.62 12.62 0 0 0 3.2-2.56 12.25 12.25 0 0 0 2.18-3.4 9.76 9.76 0 0 0 .78-4 5.11 5.11 0 0 0 -1.57-3.66l-11.34-10.23a3 3 0 0 0 -1.61-.91 3.09 3.09 0 0 0 -1.5.08 2.5 2.5 0 0 0 -1.09.68 2.92 2.92 0 0 0 -.49 1.06 2.86 2.86 0 0 0 0 1.59 3.71 3.71 0 0 0 1 1.6l13.3 12-5.15 5.71-13.05-11.77a12.38 12.38 0 0 1 -3.67-5.83 10.68 10.68 0 0 1 -.08-5.49 10.42 10.42 0 0 1 2.26-4.21 10.14 10.14 0 0 1 3.91-2.62 10.85 10.85 0 0 1 5.47-.48 11.52 11.52 0 0 1 6.07 3.13l.26.23a3.64 3.64 0 0 1 .55.42l11.76 10.62a9.4 9.4 0 0 1 2.87 6.72 17 17 0 0 1 -1.52 7.26 24.7 24.7 0 0 1 -9.91 10.93 17.37 17.37 0 0 1 -7.1 2.3 9.3 9.3 0 0 1 -6.96-2.12z"/><path d="m38.38 356-2.92-8.29 32.27-11.4a4.18 4.18 0 0 1 3.31.28 4.46 4.46 0 0 1 2.18 2.54l1.06 3 2.72 7.53 5.35 15.16a4.59 4.59 0 0 1 .2.75l.13.37a14 14 0 0 1 .53 7.75 12.36 12.36 0 0 1 -2.79 5.48 11 11 0 0 1 -4.42 2.91 11.3 11.3 0 0 1 -5.24.5 12 12 0 0 1 -5.61-2.5 14.25 14.25 0 0 1 -4.47-6.4l-3.81-10.8a8.32 8.32 0 0 0 -3.83 3.63 5.43 5.43 0 0 0 -.15 4.27l5.9 16.69-8.22 2.9-6.29-17.79a12 12 0 0 1 .65-9.49 16.13 16.13 0 0 1 7-7.51c3.42-2 5.36-3.13 5.81-3.29a4.31 4.31 0 0 1 5.61 2.71l5.73 16.2a4.27 4.27 0 0 0 1.2 1.74 3.49 3.49 0 0 0 1.45.77 2.35 2.35 0 0 0 1.32-.05 2.4 2.4 0 0 0 1.07-.79 3.67 3.67 0 0 0 .64-1.51 4.4 4.4 0 0 0 -.16-2.12l-5.87-16.63-1.73-4.95a1.54 1.54 0 0 0 -2.16-1z"/><path d="m94.06 389.12-3.9 2.49a23.21 23.21 0 0 0 -4 2.95 8 8 0 0 0 -2.27 3.88 5.78 5.78 0 0 0 .62 4.47l9.84 15.41 12.89-8.22 4.73 7.4-15.58 9.95a33.56 33.56 0 0 1 -9.06 4.08 16.17 16.17 0 0 1 -8.14.13 11.43 11.43 0 0 1 -6.6-4.66l-14.59-22.83 7.35-4.69 13.38 20.95a5.77 5.77 0 0 0 3.79 2.44 8.43 8.43 0 0 0 4.21-.29l-10.73-16.84a11.43 11.43 0 0 1 -1.44-8 16.23 16.23 0 0 1 3.55-7.33 31.76 31.76 0 0 1 6.65-5.79l4.55-2.9z"/><path d="m102.62 465.49a28.67 28.67 0 0 1 -4.18-5.27 28.3 28.3 0 0 1 -2.82-6.06 18.22 18.22 0 0 1 -.86-6.61 9.6 9.6 0 0 1 2.52-6l1.93-1.94 17-17.1 6.18 6.15-17.55 17.62a4.84 4.84 0 0 0 -1.28 3.45 11 11 0 0 0 .72 3.7 17.14 17.14 0 0 0 1.71 3.36 18 18 0 0 0 2.37 2.92 18.58 18.58 0 0 0 2.93 2.36 17.67 17.67 0 0 0 3.36 1.7 11.05 11.05 0 0 0 3.71.7 4.91 4.91 0 0 0 3.45-1.29l17.54-17.61 6.23 6.2-17 17.1-1.93 1.94a9.52 9.52 0 0 1 -6.05 2.52 18.71 18.71 0 0 1 -6.63-.86 28.13 28.13 0 0 1 -6.08-2.8 28.6 28.6 0 0 1 -5.27-4.18z"/><path d="m157.7 460.12-20.63 32.7-7.43-4.69 20.63-32.69zm.12 12.62a65.63 65.63 0 0 1 13.12 1.26l16.58 3-5.14 8.15-11.69-2.46c-1.88-.36-3.66-.68-5.36-1a26.82 26.82 0 0 0 -4.89-.35 3.66 3.66 0 0 0 -3.19 1.14 3.8 3.8 0 0 0 .34 3.37 26 26 0 0 0 2.42 4.27q1.47 2.11 3.18 4.42l7.64 9.83-5.24 8.31-10.14-14.17a64.93 64.93 0 0 1 -6.81-11.34 10.45 10.45 0 0 1 9.18-14.49z"/><path d="m202.32 484.52 2.82 1 24.25 8.74-3 8.2-25-9a5.85 5.85 0 0 0 -4.5.39 10.84 10.84 0 0 0 -3.59 3 14.34 14.34 0 0 0 -2.26 4.06 14.5 14.5 0 0 0 -.85 4.57 10.92 10.92 0 0 0 .88 4.57 5.79 5.79 0 0 0 3.22 3.17l25 9-3 8.2-25.9-9.33-1.16-.42a10.62 10.62 0 0 1 -5.89-5.82 19 19 0 0 1 -1.5-8.32 28.21 28.21 0 0 1 1.65-8.33 27.76 27.76 0 0 1 4.07-7.46 19.68 19.68 0 0 1 6.46-5.45 10.51 10.51 0 0 1 8.3-.77zm18.93 31.58-25.11-9 3-8.21 25.1 9z"/><path d="m255.45 496.48a28.6 28.6 0 0 1 12.44 4.74 18.65 18.65 0 0 1 4.73 4.73 9.55 9.55 0 0 1 1.7 6.32l-.32 2.73-3.17 24.2-8.75-1.2 3.26-24.91a4.89 4.89 0 0 0 -1.08-3.52 11.17 11.17 0 0 0 -2.82-2.5 17.14 17.14 0 0 0 -3.4-1.63 17.73 17.73 0 0 0 -3.66-.87 17.51 17.51 0 0 0 -3.76-.1 17.27 17.27 0 0 0 -3.7.7 11 11 0 0 0 -3.37 1.69 4.9 4.9 0 0 0 -2 3.12l-3.26 24.91-8.65-1.13 3.17-24.2.36-2.71a9.54 9.54 0 0 1 3.24-5.68 18 18 0 0 1 5.75-3.35 28.28 28.28 0 0 1 13.25-1.38z"/><path d="m329.11 535.9a28.39 28.39 0 0 1 -6.7.41 27.69 27.69 0 0 1 -6.59-1.16 17.94 17.94 0 0 1 -5.91-3.07 9.63 9.63 0 0 1 -3.51-5.52l-.48-2.69-4.27-23.77 8.58-1.54 4.4 24.47a4.87 4.87 0 0 0 2.1 3 11.11 11.11 0 0 0 3.45 1.53 17.37 17.37 0 0 0 3.73.52 18.12 18.12 0 0 0 3.75-.28 17.55 17.55 0 0 0 3.61-1.05 17.09 17.09 0 0 0 3.32-1.78 11.28 11.28 0 0 0 2.7-2.64 4.87 4.87 0 0 0 .91-3.57l-4.39-24.47 8.64-1.55 4.27 23.77.49 2.69a9.53 9.53 0 0 1 -1.4 6.4 18.81 18.81 0 0 1 -4.5 4.94 28.23 28.23 0 0 1 -5.77 3.38 28.93 28.93 0 0 1 -6.43 1.98z"/><path d="m366.7 481.56a29.05 29.05 0 0 1 6.45-1.87 28.29 28.29 0 0 1 6.69-.31 18.51 18.51 0 0 1 6.47 1.69 9.52 9.52 0 0 1 4.66 4.6l1.06 2.52 9.48 22.49-8.1 3.41-9.75-23.15a4.94 4.94 0 0 0 -2.72-2.49 11.28 11.28 0 0 0 -3.7-.74 17.48 17.48 0 0 0 -3.75.31 18.72 18.72 0 0 0 -3.6 1.1 18.25 18.25 0 0 0 -3.3 1.81 17.54 17.54 0 0 0 -2.84 2.47 11.34 11.34 0 0 0 -2.06 3.16 4.9 4.9 0 0 0 -.1 3.69l9.75 23.15-8 3.38-9.48-22.49-1.06-2.51a9.61 9.61 0 0 1 -.08-6.54 18.37 18.37 0 0 1 3.28-5.8 27.9 27.9 0 0 1 4.89-4.57 29 29 0 0 1 5.81-3.31z"/><path d="m408.59 496.54 13.19-9.3-12.08-17.13-13.19 9.3-5-7.12 33.49-23.63 5 7.12-13.14 9.27 12.14 17.12 13.14-9.26 5 7.12-33.5 23.64z"/><path d="m428.73 445.65 30.4-33.4 6.45 5.87-12.22 13.43 22 20-5.91 6.5-22-20-12.26 13.47z"/><path d="m481.52 418.28-6-3.69 11.34-18.39 6 3.69z"/><path d="m524.66 366.33-10.37 27-8.14-3.13 9.58-24.9a5.83 5.83 0 0 0 -.29-4.51 11 11 0 0 0 -2.89-3.65 14.47 14.47 0 0 0 -4-2.35 13.73 13.73 0 0 0 -4.49-.92 11 11 0 0 0 -4.53.8 5.77 5.77 0 0 0 -3.23 3.15l-6.23 16.18a3.44 3.44 0 0 0 -.31 2.08 3.51 3.51 0 0 0 .69 1.55 2.79 2.79 0 0 0 1.17.87 3.15 3.15 0 0 0 1.32.09 3.26 3.26 0 0 0 1.68-.64 4.12 4.12 0 0 0 1.28-1.71l7.29-18.95 8.14 3.13-7.15 18.58a13.87 13.87 0 0 1 -4.67 6.25 12 12 0 0 1 -5.77 2.32 11.74 11.74 0 0 1 -5.34-.7 11.3 11.3 0 0 1 -4.37-3.07 12.39 12.39 0 0 1 -2.73-5.58 13.1 13.1 0 0 1 .83-7.7l.14-.37a5.92 5.92 0 0 1 .22-.75l6.45-16.76a10.62 10.62 0 0 1 5.95-5.77 19 19 0 0 1 8.29-1.34 27.35 27.35 0 0 1 8.23 1.8 27.73 27.73 0 0 1 7.37 4.23 19.66 19.66 0 0 1 5.32 6.57 10.55 10.55 0 0 1 .56 8.2z"/><path d="m133.5 440.48 4.26-4.86 15 13.09-4.25 4.86z"/></g><path d="m136.13 193.7 67.87 30.63s51.1-36.76 71.23-37.7c21.75-1 80.44 33.48 80.44 33.48l74.52-26.32s-46.39-85.44-157.06-82.35c-107.32 2.99-137 82.26-137 82.26z" fill="#cc1333"/><circle cx="273.87" cy="147.57" fill="#fff" r="30.28"/><path d="m433.33 203-61 42.66s5.51 62.71-4 80.49c-10.25 19.22-69.87 52.06-69.87 52.06l-15.45 77.5s97.15 3.77 151-93c52.31-93.71-.68-159.71-.68-159.71z" fill="#cc1333"/><circle cx="402.63" cy="345.01" fill="#fff" r="30.28"/><path d="m276.89 455.55-7.23-74.06s-57.34-26-68.18-43c-11.71-18.37-11.06-86.43-11.06-86.43l-59.94-51.5s-51 82.8 6.85 177.21c56.05 91.55 139.56 77.78 139.56 77.78z" fill="#cc1333"/><circle cx="168.26" cy="359.11" fill="#fff" r="30.28"/></svg>