<?xml version="1.0" encoding="UTF-8"?>
<svg id="uuid-2084608c-1877-4399-a413-8f3b7351a5b2" data-name="Capa 1" xmlns="http://www.w3.org/2000/svg" viewBox="0 0 566.93 566.93">
  <defs>
    <style>
      .uuid-9dddfb72-0b88-458e-aafa-b86e4f5c6710 {
        fill: #e4d7a6;
      }

      .uuid-9c0ae0b5-d6c6-4bc6-b82b-40fd3031a385 {
        fill: #f3ae2c;
      }

      .uuid-4f8519bb-4b10-4207-a333-66972ce5e615 {
        fill: #332f19;
      }
    </style>
  </defs>
  <path class="uuid-9dddfb72-0b88-458e-aafa-b86e4f5c6710" d="M283.07,4.26C129.11,4.26,3.86,129.51,3.86,283.47s125.25,279.2,279.21,279.2,279.22-125.25,279.22-279.2S437.02,4.26,283.07,4.26Z"/>
  <g>
    <g>
      <g>
        <path class="uuid-9c0ae0b5-d6c6-4bc6-b82b-40fd3031a385" d="M391.35,323.82l158.18-41.46-158.18-41.46c5.23-35.63,17.19-70.5,35.96-102.61l.24-.41-.4.24c-32.11,18.77-66.98,30.74-102.62,35.96L283.07,15.89l-41.46,158.18,4,10.37,37.46-142.92,37.46,142.92-2.67,6.92-34.8-132.74-34.8,132.74-6.67-17.29c-35.4-5.19-70.06-17.04-102.01-35.61l-1.01-.59.59,1.01c18.5,31.83,30.33,66.34,35.55,101.61l-158.12,41.86,158.12,41.86,10.38-4.04-142.86-37.82,142.95-37.85,6.98,2.68-132.84,35.17,132.69,35.13-17.3,6.73c-5.22,35.27-17.05,69.78-35.55,101.61l-.59,1.01,1.01-.59c31.83-18.5,66.34-30.33,101.61-35.55l6.69-17.44,35.17,132.84,35.14-132.73,6.72,17.34c35.49,5.26,70.22,17.2,102.22,35.9l.41.24-.24-.41c-18.77-32.11-30.74-66.98-35.96-102.61ZM523.9,282.36l-142.94,37.47-6.93-2.66,132.78-34.81-132.89-34.84,6.97-2.65,143.01,37.49ZM407.74,157.37c.19-.09.39-.17.58-.26-11.66,24.68-19.76,50.79-24.19,77.95l-87.32,33.2.3-.79,110.62-110.09ZM265.81,198.06l.14-.03c1.25,8.23,8.33,14.54,16.91,14.54s15.72-6.36,16.92-14.64c.17.03.34.07.52.1,7.29,1.49,11.42,9.28,8.74,16.22l-25.97,67.32-25.96-67.31c-2.67-6.92,1.43-14.71,8.7-16.2ZM158.28,158.13c-.16-.34-.3-.69-.47-1.03,24.69,11.66,50.81,19.77,77.98,24.2l33.01,85.58-110.52-108.75ZM158.21,407.44c-.13.06-.27.12-.4.18,11.61-24.57,19.7-50.56,24.13-77.59l86.92-33.83-.2.52-110.46,110.72ZM300.57,366.6c-.24.05-.49.1-.73.15-1.03-8.47-8.23-15.04-16.98-15.04s-15.91,6.53-16.97,14.96c-.17-.04-.34-.07-.51-.11-7.25-1.52-11.35-9.27-8.69-16.19l26.18-68.24-67.79,26.38c-6.95,2.7-14.74-1.43-16.26-8.73-.05-.24-.1-.49-.15-.73,8.27-1.21,14.63-8.32,14.63-16.92s-6.31-15.66-14.54-16.91c.04-.19.08-.38.12-.57,1.52-7.25,9.27-11.35,16.19-8.7l67.86,26.03-.06.15.22-.08.21.08-.05-.14,67.94-25.83c6.91-2.63,14.64,1.47,16.15,8.71.02.1.04.19.06.29-8.43,1.07-14.96,8.25-14.96,16.97s6.57,15.96,15.05,16.99c-.03.17-.07.34-.1.51-1.49,7.28-9.26,11.42-16.2,8.75l-68.31-26.24,26.44,68.22c2.69,6.94-1.44,14.72-8.73,16.24ZM298.25,296.66l-1.33-.44-.03-.09,1.37.53ZM330.75,383.48l-33.76-87.1,111.23,110.99c.04.08.07.16.11.24-24.57-11.6-50.55-19.69-77.58-24.13Z"/>
        <polygon class="uuid-9c0ae0b5-d6c6-4bc6-b82b-40fd3031a385" points="283.07 523.19 245.22 380.23 241.21 390.7 283.07 548.82 324.93 390.7 320.9 380.3 283.07 523.19"/>
      </g>
      <g>
        <path class="uuid-9c0ae0b5-d6c6-4bc6-b82b-40fd3031a385" d="M428.58,242.35l3.58.94c-4.54-17.31-12.02-33.44-21.88-47.83-.43,1.29-.85,2.58-1.26,3.88,8.64,13.06,15.3,27.54,19.55,43Z"/>
        <path class="uuid-9c0ae0b5-d6c6-4bc6-b82b-40fd3031a385" d="M409.03,365.36c.41,1.3.83,2.59,1.26,3.88,9.86-14.38,17.34-30.51,21.88-47.83l-3.58.94c-4.26,15.46-10.92,29.94-19.55,43Z"/>
        <path class="uuid-9c0ae0b5-d6c6-4bc6-b82b-40fd3031a385" d="M157.11,199.36c-.41-1.3-.83-2.59-1.26-3.88-9.79,14.29-17.24,30.3-21.78,47.48l3.58-.95c4.26-15.33,10.89-29.69,19.46-42.65Z"/>
        <path class="uuid-9c0ae0b5-d6c6-4bc6-b82b-40fd3031a385" d="M323.07,136.84c15.46,4.26,29.94,10.92,43,19.55,1.3-.41,2.59-.83,3.88-1.26-14.38-9.86-30.51-17.34-47.82-21.88l.94,3.58Z"/>
        <path class="uuid-9c0ae0b5-d6c6-4bc6-b82b-40fd3031a385" d="M366.07,408.32c-12.96,8.57-27.32,15.2-42.65,19.45l-.95,3.58c17.18-4.55,33.19-11.99,47.48-21.78-1.29-.42-2.59-.85-3.89-1.26Z"/>
        <path class="uuid-9c0ae0b5-d6c6-4bc6-b82b-40fd3031a385" d="M242.72,427.78c-15.33-4.26-29.69-10.88-42.65-19.45-1.3.41-2.59.83-3.88,1.26,14.29,9.79,30.3,17.23,47.48,21.78l-.95-3.58Z"/>
        <path class="uuid-9c0ae0b5-d6c6-4bc6-b82b-40fd3031a385" d="M200.07,156.4c13.06-8.64,27.54-15.3,43-19.55l.94-3.58c-17.31,4.54-33.44,12.02-47.82,21.88,1.29.43,2.58.85,3.88,1.26Z"/>
        <path class="uuid-9c0ae0b5-d6c6-4bc6-b82b-40fd3031a385" d="M137.65,322.71l-3.58-.95c4.55,17.18,11.99,33.2,21.78,47.48.43-1.29.85-2.58,1.26-3.88-8.57-12.96-15.2-27.32-19.46-42.65Z"/>
      </g>
      <g>
        <path class="uuid-9c0ae0b5-d6c6-4bc6-b82b-40fd3031a385" d="M127.86,244.6c4.95-20.36,13.81-39.2,25.75-55.69-.65-1.81-1.31-3.61-2-5.41-13.77,18.26-23.82,39.47-29.03,62.49l5.28-1.4Z"/>
        <path class="uuid-9c0ae0b5-d6c6-4bc6-b82b-40fd3031a385" d="M438.36,319.8c-4.94,20.48-13.83,39.44-25.83,56.01.65,1.81,1.31,3.61,2,5.41,13.83-18.34,23.9-39.66,29.1-62.8l-5.27,1.38Z"/>
        <path class="uuid-9c0ae0b5-d6c6-4bc6-b82b-40fd3031a385" d="M438.36,244.92l5.27,1.38c-5.19-23.14-15.27-44.45-29.1-62.8-.68,1.8-1.35,3.6-2,5.41,12,16.57,20.89,35.53,25.83,56.01Z"/>
        <path class="uuid-9c0ae0b5-d6c6-4bc6-b82b-40fd3031a385" d="M127.85,320.11l-5.28-1.4c5.21,23.02,15.26,44.23,29.03,62.49.68-1.79,1.35-3.6,2-5.41-11.93-16.49-20.79-35.33-25.75-55.69Z"/>
        <path class="uuid-9c0ae0b5-d6c6-4bc6-b82b-40fd3031a385" d="M376.51,411.83c-16.49,11.93-35.33,20.79-55.69,25.75l-1.4,5.28c23.02-5.21,44.23-15.26,62.49-29.03-1.8-.68-3.6-1.35-5.41-2Z"/>
        <path class="uuid-9c0ae0b5-d6c6-4bc6-b82b-40fd3031a385" d="M245.31,437.57c-20.36-4.95-39.2-13.81-55.69-25.75-1.81.65-3.61,1.31-5.41,2,18.26,13.76,39.47,23.82,62.49,29.03l-1.4-5.28Z"/>
        <path class="uuid-9c0ae0b5-d6c6-4bc6-b82b-40fd3031a385" d="M189.62,152.89c16.57-12,35.53-20.89,56.01-25.83l1.38-5.27c-23.14,5.19-44.45,15.27-62.79,29.1,1.8.68,3.6,1.35,5.41,2Z"/>
        <path class="uuid-9c0ae0b5-d6c6-4bc6-b82b-40fd3031a385" d="M320.51,127.06c20.48,4.94,39.44,13.83,56.01,25.83,1.81-.65,3.61-1.31,5.41-2-18.34-13.83-39.65-23.9-62.79-29.1l1.38,5.27Z"/>
      </g>
    </g>
    <path class="uuid-9c0ae0b5-d6c6-4bc6-b82b-40fd3031a385" d="M318.18,282.36c0,19.39-15.72,35.11-35.11,35.11s-35.11-15.72-35.11-35.11,15.72-35.11,35.11-35.11,35.11,15.72,35.11,35.11Z"/>
    <path class="uuid-9c0ae0b5-d6c6-4bc6-b82b-40fd3031a385" d="M283.07,325.24c-23.65,0-42.89-19.24-42.89-42.89s19.24-42.89,42.89-42.89,42.89,19.24,42.89,42.89-19.24,42.89-42.89,42.89ZM283.07,241.92c-22.3,0-40.44,18.14-40.44,40.44s18.14,40.44,40.44,40.44,40.44-18.14,40.44-40.44-18.14-40.44-40.44-40.44Z"/>
  </g>
  <g>
    <g>
      <path class="uuid-4f8519bb-4b10-4207-a333-66972ce5e615" d="M39.22,277.35c0,2.28,1.15,3.28,3.47,3,15.64-1.88,31.31-3.62,47-5.13,12.24-1.19,18.32,3.24,18.23,13.11-.03,2.95-.45,5.57-1.26,7.86-.81,2.3-2.14,4.3-3.98,6.04-1.84,1.74-4.27,3.22-7.27,4.47-3,1.25-6.7,2.26-11.1,3.04-20.7,3.77-41.27,7.99-61.79,12.69-4.12.96-6.17-.62-6.17-4.79v-6.51c0-4.25,2.06-6.78,6.19-7.54,19.19-3.58,38.46-6.71,57.78-9.47,3.07-.44,4.62-1.82,4.64-4.15.02-2.05-1.14-2.93-3.47-2.63-15.67,1.97-31.31,4.23-46.91,6.67-10.66,2.61-18.65-4.84-18.23-15.42.14-3.44.39-6.81,1.18-9.63.79-2.82,2.1-5.19,3.93-7.11,1.83-1.91,4.24-3.41,7.24-4.49,2.99-1.08,6.7-1.75,11.11-2.01,19.6-1.17,39.22-2.18,58.84-3.06,4.25-.19,6.36,1.41,6.33,4.79-.02,2.11-.03,3.16-.05,5.27-.03,3.45-2.17,5.33-6.42,5.66-18.23,1.48-36.44,3.14-54.65,4.95-3.07.32-4.61,1.78-4.62,4.37Z"/>
      <path class="uuid-4f8519bb-4b10-4207-a333-66972ce5e615" d="M203.8,295.05c-4.19.29-6.28-.99-6.25-3.88.01-1.46.02-2.18.03-3.64-.1,0-.15.01-.25.02-3.63,3.07-7.75,5.43-12.37,7.08-4.62,1.65-10.41,2.82-17.35,3.52-5.32.54-7.98.83-13.3,1.43-15.27,2.25-34.08-3.47-33.3-21.96.78-18.44,16.56-27.27,33.81-27.46,5.31-.17,7.96-.24,13.28-.39,6.93-.19,12.69.32,17.27,1.49,4.58,1.17,8.66,3.1,12.23,5.77.1,0,.15,0,.25,0,.01-1.46.02-2.18.03-3.64.02-2.89,2.12-4.38,6.3-4.46,3.46-.07,5.19-.1,8.65-.16,4.26-.07,6.38,1.31,6.36,4.14-.08,12.32-.17,24.64-.25,36.96-.02,2.83-2.17,4.35-6.45,4.62-3.47.22-5.21.33-8.68.57ZM174.65,283.8c5.35-.41,9.69-1.15,13.01-2.24,3.31-1.09,6.19-2.81,8.64-5.14.03-3.23.04-4.85.07-8.08-2.41-2.09-5.26-3.53-8.55-4.3-3.29-.77-7.62-1.05-12.96-.8-6.57.3-9.85.47-16.42.81-4.93.26-8.55,1.33-10.86,3.21-2.32,1.89-3.49,4.69-3.53,8.39-.04,3.69,1.08,6.32,3.36,7.85,2.28,1.53,5.88,2.06,10.82,1.62,6.57-.57,9.86-.84,16.43-1.34ZM149.64,241.86c-3.42.06-5.12-1.19-5.09-3.76.01-1.13.02-1.69.03-2.82.03-2.5,1.75-3.76,5.17-3.76,13.85,0,27.7,0,41.55,0,3.42,0,5.12,1.16,5.1,3.47,0,1.04-.01,1.56-.02,2.61-.02,2.37-1.74,3.58-5.17,3.62-13.86.17-27.71.38-41.57.62Z"/>
      <path class="uuid-4f8519bb-4b10-4207-a333-66972ce5e615" d="M269.03,292.37c-14.68.56-33.78-3.51-33.65-21.5.14-17.9,18.67-23,33.72-22.68,16.68-.05,33.35-.02,50.03.13,4.18.04,6.28,1.45,6.29,4.23,0,1.73.01,2.6.02,4.33.01,2.83-2.07,4.21-6.26,4.15-15.4-.19-30.8-.27-46.21-.25-9.63.04-14.45,3.28-14.47,9.62-.02,6.34,4.8,9.4,14.44,9.33,15.44-.05,30.87.09,46.31.41,2.18.05,3.78.56,4.79,1.5,1.01.95,1.52,2.12,1.53,3.5,0,1.5.01,2.25.02,3.75.01,2.78-2.08,4.09-6.28,3.95-16.75-.55-33.52-.66-50.28-.47Z"/>
      <path class="uuid-4f8519bb-4b10-4207-a333-66972ce5e615" d="M349.53,294.18c-4.28-.25-6.43-1.76-6.45-4.57-.11-17.73-.22-35.45-.34-53.18-.02-2.81,2.1-4.22,6.36-4.22,4,0,6.01,0,10.01,0,4.17,0,6.27,1.44,6.29,4.32.07,8.15.1,12.22.17,20.37.1,0,.15,0,.25,0,3.15-2.73,7.04-4.67,11.67-5.81,4.62-1.14,10.45-1.64,17.46-1.45,3.86.1,5.79.16,9.64.27,17.01.17,34.02,7.64,33.81,27.02.09,8.43.13,12.64.21,21.07.03,3.22-2.04,4.54-6.21,3.99-4.01-.53-6.01-.78-10.02-1.27-4.26-.52-6.41-2.31-6.44-5.4l-.21-20.22c-.04-3.65-1.21-6.42-3.53-8.27-2.31-1.86-5.94-2.9-10.86-3.15-5.66-.28-8.5-.42-14.16-.67-5.43-.24-9.8.04-13.09.81-3.3.77-6.11,2.21-8.43,4.3.07,9.12.11,13.68.19,22.79.02,2.88-2.06,4.16-6.25,3.88-4.03-.27-6.04-.39-10.07-.63Z"/>
      <path class="uuid-4f8519bb-4b10-4207-a333-66972ce5e615" d="M535.76,320.44c-4.12-.93-6.19-3.36-6.2-7.31,0-1.99,0-2.99-.02-4.98-.1-.02-.15-.03-.25-.05-3.54,3.19-7.58,5.1-12.12,5.83-4.54.73-10.25.36-17.12-.97-5.27-1.02-7.91-1.51-13.19-2.46-17.29-2.87-33.41-13.19-33.69-32.2-.28-18.99,16.39-26.31,33.25-25.16,5.3.26,7.95.4,13.24.67,6.91.36,12.66,1.5,17.24,3.47,4.58,1.97,8.67,4.98,12.25,9.09.1,0,.15.01.25.02,0-1.99,0-2.99-.02-4.98-.01-3.95,2.06-5.81,6.22-5.55,3.44.21,5.16.32,8.61.54,4.24.27,6.36,2.5,6.36,6.67,0,18.19,0,36.38,0,54.56,0,4.17-2.1,5.75-6.3,4.77-3.41-.8-5.11-1.19-8.53-1.96ZM506.79,297.14c5.31.84,9.59.98,12.86.35,3.27-.62,6.09-2.23,8.49-4.85-.01-4.4-.02-6.59-.04-10.99-2.42-3.3-5.27-5.7-8.55-7.24-3.29-1.54-7.59-2.55-12.91-3.06-6.53-.62-9.8-.92-16.34-1.5-4.91-.43-8.5.26-10.78,2.02-2.27,1.76-3.39,4.67-3.36,8.78.03,4.11,1.2,7.27,3.51,9.54s5.9,3.76,10.81,4.48c6.53.95,9.79,1.45,16.31,2.47ZM481.1,243.27c-3.42-.09-5.14-1.56-5.16-4.42-.01-1.25-.02-1.88-.03-3.14-.02-2.79,1.67-4.18,5.1-4.18,13.85,0,27.7,0,41.55,0,3.42,0,5.14,1.58,5.15,4.72,0,1.42,0,2.13.01,3.54.01,3.23-1.69,4.79-5.11,4.68-13.83-.44-27.67-.84-41.5-1.21Z"/>
    </g>
    <g>
      <path class="uuid-4f8519bb-4b10-4207-a333-66972ce5e615" d="M134.29,329.29h9.88v-7.25h10.76v7.25h17.69l.72-7.25h10.76l-.72,7.25h9.4v10.68h-10.91l-1.12,7.65c-.53,3.77-1.51,7.33-2.95,10.68-1.54,3.35-3.68,6.17-6.41,8.49-2.74,2.31-5.96,3.57-9.68,3.78h-16.89v-10.68h15.62c2.02-.11,3.78-.88,5.3-2.31,1.51-1.43,2.56-3.07,3.15-4.9.58-1.83,1.01-3.84,1.27-6.02l.96-6.69h-16.17v12.35h-10.76v-12.35h-9.88v-10.68Z"/>
      <path class="uuid-4f8519bb-4b10-4207-a333-66972ce5e615" d="M203.92,341.4h48.92v10.68h-48.92v-10.68Z"/>
      <path class="uuid-4f8519bb-4b10-4207-a333-66972ce5e615" d="M265.42,323.56h51.31v10.68h-16.25l-1.04,7.17h17.61v10.68h-19.2l-.4,2.55c-.64,4.41-2.55,8.18-5.74,11.31-3.19,3.13-6.75,4.67-10.68,4.62h-15.14v-10.68h13.7c1.96,0,3.6-.64,4.9-1.91,1.3-1.27,2.16-3.24,2.59-5.9h-21.35v-10.68h22.94l1.04-7.17h-24.3v-10.68Z"/>
      <path class="uuid-4f8519bb-4b10-4207-a333-66972ce5e615" d="M327.4,334.95h8.29v-3.19h8.6v3.19h14.18c.27,0,.53.03.8.08h.32c2.97.05,5.42.84,7.33,2.35s3.29,3.23,4.14,5.14c.85,1.91,1.27,3.85,1.27,5.82s-.41,3.98-1.23,5.9c-.82,1.91-2.2,3.62-4.14,5.14-1.94,1.51-4.4,2.24-7.37,2.19h-9.24v-8.52h9.64c.8,0,1.46-.27,1.99-.8.53-.53.93-1.14,1.19-1.83.27-.69.4-1.41.4-2.15,0-.69-.13-1.38-.4-2.07-.27-.69-.66-1.3-1.19-1.83-.53-.53-1.19-.82-1.99-.88h-15.69v27.09h-8.6v-27.09h-8.29v-8.52Z"/>
      <path class="uuid-4f8519bb-4b10-4207-a333-66972ce5e615" d="M382.77,341.4h48.92v10.68h-48.92v-10.68Z"/>
    </g>
  </g>
  <path class="uuid-9c0ae0b5-d6c6-4bc6-b82b-40fd3031a385" d="M283.07,9.26c151.2,0,274.22,123.01,274.22,274.22s-123.01,274.2-274.22,274.2S8.86,434.67,8.86,283.47,131.87,9.26,283.07,9.26M283.07,4.26C129.11,4.26,3.86,129.51,3.86,283.47s125.25,279.2,279.21,279.2,279.22-125.25,279.22-279.2S437.02,4.26,283.07,4.26h0Z"/>
</svg>