<svg enable-background="new 0 0 113.9 113.9" viewBox="0 0 113.9 113.9" xmlns="http://www.w3.org/2000/svg"><circle cx="57" cy="57" fill="#fff" r="56.7" stroke="#000" stroke-miterlimit="10" stroke-width=".5"/><path d="m56.8 107.3c-27.7 0-50.3-22.7-50.2-50.4.1-27.9 22.7-50.4 50.3-50.3s50.1 22.4 50.2 50.2c.2 27.8-22.5 50.5-50.3 50.5zm18.3-50.3c0-3.7 0-7.3 0-11 0-4.2-3.1-7.2-7.3-7.2-7.2 0-14.5 0-21.7 0-4.2 0-7.3 3.1-7.3 7.3v21.7c0 4.3 3.1 7.3 7.4 7.3h21.5c4.5 0 7.4-3 7.4-7.5 0-3.5 0-7.1 0-10.6z" fill="#0d0d0c"/><path d="m75.1 57v10.6c0 4.5-3 7.4-7.4 7.5-7.2 0-14.3 0-21.5 0-4.3 0-7.4-3-7.4-7.3 0-7.2 0-14.5 0-21.7 0-4.2 3.1-7.3 7.3-7.3h21.7c4.2 0 7.3 3 7.3 7.2zm-18.1 12.8h7.3c3.2 0 5.4-2.2 5.4-5.4 0-4.9 0-9.9 0-14.8 0-3.2-2.3-5.4-5.4-5.4-4.9 0-9.9 0-14.8 0-3.1 0-5.3 2.3-5.4 5.3v14.9c0 3.1 2.3 5.3 5.4 5.3 2.5.1 5 .1 7.5.1z" fill="#fff"/><path d="m57 69.8c-2.5 0-5 0-7.5 0-3.1 0-5.3-2.3-5.4-5.3 0-5 0-10 0-14.9 0-3 2.3-5.3 5.4-5.3h14.8c3.2 0 5.4 2.2 5.4 5.4v14.8c0 3.2-2.2 5.4-5.4 5.4-2.5-.1-4.8-.1-7.3-.1z" fill="#0d0d0c"/></svg>