<svg enable-background="new 0 0 113.4 113.4" viewBox="0 0 113.4 113.4" xmlns="http://www.w3.org/2000/svg"><circle cx="56.7" cy="56.7" fill="#3f3f3f" r="56.7"/><circle cx="56.7" cy="56.7" fill="#fff" r="55.5"/><g stroke-miterlimit="10" stroke-width=".5"><path d="m15 31.1c1.4.2 2.6.8 3.9 1.4 7.8 3.6 15.6 7.1 23.8 9.7 4.2 1.4 8.6 2.4 13 2.8 2.2.2 4.4-.2 6.5-.6 7.5-1.3 14.7-4 21.7-7 4.3-1.8 8.5-3.8 12.7-5.7.7-.3 1.5-.5 2.3-.7.7-.1 1.2.1 1.6.7.4.5.2 1.1-.1 1.6-.5.8-1.1 1.4-1.9 1.9-5.8 4-11.4 8.1-16.8 12.5-5.1 4.1-9.8 8.6-13.7 13.9-2.1 2.8-3 6.2-4 9.5-2.1 6.9-3.2 14-4 21.2-.4 3.9-.8 7.8-1.2 11.7-.1.9-.3 1.7-.7 2.4-.7 1.2-1.9 1.2-2.6 0-.8-1.5-.8-3.1-.9-4.7-1.1-11.3-2.2-22.5-5.8-33.4-1.4-4.3-3.8-8-6.9-11.3-5.5-6.2-12-11.3-18.7-16.2-2.6-1.9-5.3-3.8-7.9-5.7-.7-.5-1.3-1-1.7-1.7-.4-.5-.5-1.1-.2-1.7.4-.6 1-.6 1.6-.6z" fill="#3d3d3d" stroke="#bcce63"/><path d="m29.8 56.1c-.6 4.6 1.1 9.4 3.5 13.7 2.5 4.5 5.8 8.3 10.6 10.7 1.7.8 3.4 1.7 4.9 2.9 1.6 1.3 2.5 3 2.8 4.9.2 1.2-.5 2.1-1.7 2.4-1.3.3-2.7 0-3.9-.4-5.8-2-10.8-5.3-15-9.7-1.6-1.7-3.2-2.2-5.3-1.2-2.4 1.2-4.8.3-7.1-.2-.5-.1-.5-.4-.4-.8.4-1.2.8-2.4 1.3-3.5.4-.9.9-1.6 1.7-2.2.6-.5 1.2-1.1 1.8-1.6.8-.7 1-1.6.7-2.6-1.3-4.3-2.2-8.6-1.9-13.1.1-2.5.3-5 1.1-7.4.4-1.3 1-2.8 2.5-3 1.6-.2 2.6 1.2 3.4 2.4.9 1.3 1.1 2.9 1.2 4.5-.2 1.2-.2 2.4-.2 4.2z" fill="#c47139" stroke="#e8d577"/><path d="m83.8 55.3c.1-1.9-.2-3.8.3-5.7.4-1.6 1.3-3 2.6-3.9 1.2-.9 2.2-.8 3.1.4.9 1.1 1.3 2.4 1.5 3.8 1.2 6.1.7 12.2-1.1 18.1-.6 1.9-.2 3.2 1.4 4.3 2.4 1.5 3 4.1 3.8 6.6.2.6-.1.7-.6.8-2.7.6-5.4 1.1-8-.3-1.3-.7-2.5-.3-3.6.8-4.2 4.5-9.1 8-14.9 10.1-1.5.5-3.1 1-4.7.6-1.1-.2-1.7-.9-1.7-2 0-1.6.6-3 1.7-4.2 1.8-2 4.2-3.1 6.5-4.3 4.9-2.7 8.2-6.8 10.7-11.7.8-1.6 1.5-3.3 2-5.1.3-1.2.7-2.4.8-3.7.3-1.4.2-3 .2-4.6z" fill="#c47139" stroke="#e8d577"/><path d="m57 29.8c-5.4.4-10.5 1.2-14.9 4.4-1.4 1-3 1.9-4.7 2.5s-3.4.6-5.1-.1c-1.4-.6-1.8-1.6-1.2-3 .7-1.8 2.2-2.9 3.7-4.1 4.4-3.5 9.4-5.8 14.9-7 1.8-.4 2.9-1.3 3-3.2.1-2.9 2.1-4.8 3.8-6.8.4-.5.6-.3 1 .1 1.8 2.1 3.7 4.1 3.8 7.1.1 1.7 1.1 2.4 2.7 2.8 6.2 1.4 11.7 4.1 16.5 8.3.9.8 1.7 1.7 2.2 2.7.8 1.7.4 2.7-1.3 3.3-1.7.7-3.3.6-5 0s-3.3-1.5-4.8-2.6c-3.5-2.5-7.5-3.5-11.7-4-1-.3-2-.4-2.9-.4z" fill="#c47139" stroke="#e8d577"/></g></svg>