<?xml version="1.0" encoding="UTF-8"?><svg id="Capa_1" xmlns="http://www.w3.org/2000/svg" viewBox="0 0 566.93 566.93"><defs><style>.cls-1{font-size:53.78px;}.cls-1,.cls-2{font-family:Orbitron-Black, Orbitron;font-weight:800;}.cls-1,.cls-2,.cls-3{fill:#f1c410;}.cls-2{font-size:50px;}.cls-4{fill:#35495e;}.cls-4,.cls-3{stroke-width:0px;}</style></defs><path class="cls-4" d="m562.67,284c-.7,155.19-126.12,279.51-281.13,278.67C127.73,561.84,3.63,436.22,4.25,282,4.88,127.94,130.84,3.36,285.08,4.26c153.79.89,278.29,126.36,277.6,279.74ZM283.54,9.24C132.16,9.27,9.32,132.04,9.24,283.38c-.07,151.27,122.82,274.24,274.14,274.3,151.28.06,274.32-122.9,274.29-274.14-.02-151.36-122.93-274.33-274.14-274.29Z"/><path class="cls-3" d="m283.54,9.24c151.22-.03,274.12,122.94,274.14,274.29.02,151.24-123.01,274.2-274.29,274.14-151.32-.06-274.21-123.02-274.14-274.3C9.32,132.04,132.16,9.27,283.54,9.24ZM28.79,283.38c-.1,140.07,113.95,254.14,253.68,254.87,140.25.73,256.26-115.16,255.79-255.34-.47-139.69-114.29-253.92-254.43-254.12-140.64-.21-254.93,113.89-255.04,254.6Z"/><path class="cls-4" d="m28.79,283.38c.1-140.71,114.4-254.8,255.04-254.6,140.14.21,253.96,114.43,254.43,254.12.47,140.18-115.54,256.07-255.79,255.34-139.73-.73-253.78-114.8-253.68-254.87Z"/><text class="cls-1" transform="translate(157.05 122.24) rotate(-31.86)"><tspan x="0" y="0">S</tspan></text><text class="cls-1" transform="translate(193 99.64) rotate(-19.93)"><tspan x="0" y="0">A</tspan></text><text class="cls-1" transform="translate(233.62 84.88) rotate(-8.27)"><tspan x="0" y="0">L</tspan></text><text class="cls-1" transform="translate(273.34 78.76) rotate(3.47)"><tspan x="0" y="0">A</tspan></text><text class="cls-1" transform="translate(316.47 81.21) rotate(15.62)"><tspan x="0" y="0">D</tspan></text><text class="cls-1" transform="translate(358.2 93.92) rotate(23.16)"><tspan x="0" y="0">I</tspan></text><text class="cls-1" transform="translate(368.52 97.07) rotate(30.73)"><tspan x="0" y="0">N</tspan></text><text class="cls-1" transform="translate(405.34 120.01) rotate(39.13)"><tspan x="0" y="0"> </tspan></text><text class="cls-2" transform="translate(38.38 268.18) rotate(88.75)"><tspan x="0" y="0">N</tspan></text><text class="cls-2" transform="translate(39.77 313.97) rotate(77.94)"><tspan x="0" y="0">A</tspan></text><text class="cls-2" transform="translate(49.54 359.39) rotate(66.14)"><tspan x="0" y="0">V</tspan></text><text class="cls-2" transform="translate(72.17 408.57) rotate(54.56)"><tspan x="0" y="0">A</tspan></text><text class="cls-2" transform="translate(99.18 445.66) rotate(44.09)"><tspan x="0" y="0">L</tspan></text><text class="cls-2" transform="translate(129.7 474) rotate(36.97)"><tspan x="0" y="0"> </tspan></text><text class="cls-2" transform="translate(144.46 485.77) rotate(29.89)"><tspan x="0" y="0">L</tspan></text><text class="cls-2" transform="translate(180.78 505.59) rotate(23.5)"><tspan x="0" y="0">I</tspan></text><text class="cls-2" transform="translate(193 511.73) rotate(16.75)"><tspan x="0" y="0">A</tspan></text><text class="cls-2" transform="translate(235.77 523.49) rotate(10)"><tspan x="0" y="0">I</tspan></text><text class="cls-2" transform="translate(249.07 526.58) rotate(3.29)"><tspan x="0" y="0">S</tspan></text><text class="cls-2" transform="translate(294.29 528.81) rotate(-7.38)"><tspan x="0" y="0">O</tspan></text><text class="cls-2" transform="translate(339.43 522.57) rotate(-18.11)"><tspan x="0" y="0">N</tspan></text><text class="cls-2" transform="translate(381.63 507.78) rotate(-26.25)"><tspan x="0" y="0"> </tspan></text><text class="cls-2" transform="translate(398.67 500.25) rotate(-32.76)"><tspan x="0" y="0">O</tspan></text><text class="cls-2" transform="translate(436.45 475.26) rotate(-42.8)"><tspan x="0" y="0">F</tspan></text><text class="cls-2" transform="translate(466.1 447.28) rotate(-52.39)"><tspan x="0" y="0">F</tspan></text><text class="cls-2" transform="translate(489.26 415.83) rotate(-58.6)"><tspan x="0" y="0">I</tspan></text><text class="cls-2" transform="translate(496.98 404.58) rotate(-65.28)"><tspan x="0" y="0">C</tspan></text><text class="cls-2" transform="translate(515.38 363.47) rotate(-75.42)"><tspan x="0" y="0">E</tspan></text><text class="cls-2" transform="translate(525.81 322.48) rotate(-85.63)"><tspan x="0" y="0">R</tspan></text><path class="cls-3" d="m283.23,384.01c-55.95.11-101.6-45.3-101.68-101.15-.08-56.05,45.15-101.63,101.02-101.77,56.18-.14,101.73,44.99,101.81,100.85.07,56.59-44.89,101.96-101.15,102.07Zm-32.2-82.07c15.07,12.88,25.58,28.75,32.04,48.71,6.35-20.08,17-35.84,32.01-48.76-2.62-13.1-2.26-26.05-.14-38.9-15.2-12.87-25.41-28.83-32-48.38-6.38,20.07-17.08,35.79-31.95,48.58,2.5,13.1,2.39,25.88.04,38.76Zm27.36-105.04c-17.13.12-38.41,8.5-49.96,19.53,9.4,10.88,15.94,23.45,20.54,37.55,16.71-15.95,26.28-34.61,29.42-57.08Zm-50.14,151.98c14.73,11.92,31.11,18.32,50.15,19.61-3.16-22.82-12.81-41.51-29.6-57.44-4.34,14.33-11.04,26.55-20.55,37.83Zm109.55-132.72c-14.67-11.81-30.98-18.34-49.88-19.52,3.15,22.82,12.76,41.45,29.32,57.27,4.44-14.29,11.18-26.64,20.56-37.74Zm.02,132.69c-9.5-11.06-16.04-23.45-20.6-37.54-16.57,16.02-26.33,34.56-29.17,57.21,19.14-1.53,35.41-7.87,49.78-19.67Zm-95.94-89c-3.73-14.42-10.17-26.81-19.8-38.07-15.15,15.8-23.46,34.07-24.86,55.96,16.83-2.04,31.29-8.06,44.66-17.9Zm-44.74,27.62c1.69,22.01,9.89,40.29,25.05,55.9,9.57-11.42,16.14-23.81,19.67-38.07-13.38-9.79-27.95-15.88-44.72-17.83Zm146.93,55.74c15.09-15.69,23.23-33.9,24.87-55.73-16.75,2.05-31.17,8.07-44.42,17.81,3.46,14.23,9.98,26.57,19.55,37.92Zm24.89-65.48c-1.65-21.96-9.82-40.16-24.79-55.79-9.65,11.27-16.2,23.76-19.65,37.97,13.4,9.79,27.75,15.76,44.43,17.82Zm-125.36-8.96c-8.81,6.06-17.84,10.16-28.38,13.9,10.91,3.25,19.66,7.97,28.47,13.51,1.41-9.23,1.5-17.97-.08-27.41Zm79.01,27.49c8.83-6.14,17.86-10.1,28.28-13.91-10.84-3.1-19.43-7.84-28.37-13.36-1.04,9.29-1.2,17.83.09,27.27Z"/><path class="cls-3" d="m410.35,410.49h-68.4c6.1-6.13,12.38-12.44,19.46-19.56,8.56-.57,18.72.72,29.19-.7v-146.49c6.73,6.78,12.98,13.08,19.74,19.89v146.86Z"/><path class="cls-3" d="m302.33,410.49h-145.93v-69.32c6.12,6.47,12.18,12.88,19.68,20.8v28.37c24.74,1.16,49.03.34,73.3.49,24.21.15,48.43.03,72.64.03-6.56,6.54-12.88,12.84-19.68,19.61Z"/><path class="cls-3" d="m179.27,235.7v-27.26c34.72-34.71,69.33-69.31,104-103.96,15.7,15.91,31.8,32.22,47.67,48.31h-26c-6.35-6.45-13.25-13.45-21.17-21.5-11.57,11.5-23.04,22.88-34.48,34.29-11.56,11.53-23.1,23.08-34.63,34.63-11.53,11.55-23.04,23.12-35.38,35.49Z"/><path class="cls-3" d="m176.33,323.03c-7.43-7.5-13.73-13.86-20.08-20.27v-146.08h68.06c-6.19,6.02-12.56,12.22-19.98,19.45-7.88.49-17.73-.7-28,.65v146.25Z"/><path class="cls-3" d="m243.74,176.15c6.82-6.81,13.16-13.15,19.74-19.72h146.69v67.97c-6.06-6.39-12.24-12.9-19.47-20.52,0-5.63.01-13.26,0-20.9-.02-6.35-.48-6.83-6.83-6.83-45.49,0-90.97,0-136.46,0-1.03,0-2.05,0-3.67,0Z"/><path class="cls-3" d="m387.42,331.97v26.83c-34.55,34.54-69.04,69.02-103.68,103.65-15.91-15.9-31.86-31.84-48.26-48.22h26.45c7.89,5.76,12.93,14.95,21.6,19.25,34.53-34.58,68.48-68.58,102.42-102.58.49.36.97.71,1.46,1.07Z"/><path class="cls-3" d="m413.84,331.09v-26.03c5.9-8.27,15.98-13.52,20.43-23.29-34.58-34.5-68.21-68.06-102.42-102.2h27.94c33.98,34.06,68.51,68.67,102.79,103.03-16.32,16.25-32.53,32.38-48.73,48.49Z"/><path class="cls-3" d="m152.72,264.51c-5.68,5.11-12.74,11.46-20.77,18.7,34.14,35.41,69.15,69.16,103.57,104.23h-27.11c-34.52-34.57-69.37-69.48-104.04-104.2,16.18-16.2,32.2-32.24,48.35-48.42v29.68Z"/><path class="cls-3" d="m299.24,282.74c-.07,9-7.33,16.26-16.2,16.2-8.81-.06-16.17-7.46-16.22-16.31-.05-9.08,7.6-16.66,16.59-16.43,9,.23,15.89,7.43,15.82,16.54Z"/></svg>