<svg enable-background="new 0 0 113.4 113.4" viewBox="0 0 113.4 113.4" xmlns="http://www.w3.org/2000/svg"><path d="m56.6 113.4c-31.2.1-56.7-25.5-56.6-57 .1-31.2 25.7-56.7 57.2-56.4 31.1.2 56.5 25.7 56.2 57.2-.3 31-25.6 56.3-56.8 56.2z" fill="#010000"/><path d="m10.6 80.1c-1.6-3.6-3.3-7.3-4.1-11.2-3.5-16.2-.5-30.9 9.7-44.1 7.3-9.4 16.9-15.4 28.3-18.3 6-1.5 12.2-1.8 18.4-1 4.2.5 8.3 1.4 12.1 3.1-.1.6.7 1.1.2 1.8-1.4.9-3.1 1.3-4.6 2-1 .5-2.1.9-3.2 1.3-.7.2-1.1.7-1.1 1.4-.8.5-1.7.3-2.5.8-2.8-.2-5.5-.5-8.3-.4-4.3.1-8.5.9-12.6 2.3-.6.2-1.2.5-1.9.5-.4 0-.6-.3-.9-.4-.6.2-1.3.7-1.7-.3-1.4-2.1-1.1-4.3 0-6.4.2-.4.4-.9.3-1.4-.8.2-.8.2-1.4 1.9-.3.8-.5 1.7-1.1 2.3-1.7.1-3.2-1.2-4.9-.8.1.7.6.7.9.9.7.3 1.5.5 2.3.7 1.4.3 2.3 1.2 2.6 2.6 0 .1 0 .2-.1.4-.1.1-.2.1-.3.2-.6 0-1.1.2-1.6.5-1 .7-1.9 1.3-2.9 2-1.4.9-2 .8-2.9-.6-.5-.7-.9-1.5-1.4-2.2-.3-.4-.5-1-1.3-1-.4 1.1.9 1.7.9 2.7-.3.9-.1 1.7.1 2.5 0 .1-.1.1-.1.3.1 0 .2-.1.3-.1.2.7.1.8-.9.8-.1 0-.2-.1-.3-.2-.3-.2-.3-.7-.8-.8-.5 0-.6.8-1.1.8-1.4.2-2.7-.4-4.1-.2-.7.5-.5 1.1-.4 1.7.4 1.7.9 3.3 1.2 5 0 .2.1.4.1.5 0 .2 0 .5-.1.7-.5.3-.9 0-1.3-.3-.7-.5-1.3-.7-2.2-.5-.3.5-.6 1-.7 1.6-1.1 1.4-1.7 3.2-3.2 4.4-2-.9-.2-2.2-.4-3.3-.9.2-1.6 1.1-1.7 2.2-.1 1 .4 1.5 1.2 1.9.9.4 1.6.1 2.2-.6.7-.9 1.2-1.9 1.9-2.8.4-.5.7-1.1 1.4-1.2 1.2.4 1.4.9.9 1.9-.6 1.1-1.3 2.2-1.9 3.3-.3.4-.6.8-.7 1.3 0 .5.3.6.6.8.4.5.7 1 1 1.6 0 .6-.3 1.1-.5 1.7-3.3 8.8-3.5 17.7-1 26.7.2.6.4 1.1.4 1.7-.5 1.1-.3 2.2-.4 3.4 0 .7 0 1.3-.6 1.8-1.9.1-3.2 1.4-4.7 2.3-.9.5-.4 1.5-.8 2.3 0-.5-.1-.5-.3-.5z" fill="#fff"/><path d="m105.3 39.4c1.6 3.8 2.4 7.8 2.8 11.8.8 8.5-.1 16.9-3.5 24.8-7.1 16.5-19.4 26.9-36.8 31.1-7.1 1.7-14.3 1.6-21.5.1-.6-.5-.6-.5-.3-1.4-.6-.3-1.5-.3-1.7-1.2-.1-.3-.2-.6-.5-.8-.4-.2-.8 0-1.2-.2-.6-.6-.4-1.4-.3-2.1.2-.5.7-.7 1.2-.7 1 .1 1.9-.3 2.8-.1.4-.1.3-.5.4-.7.1-.1.1-.2.2-.3 1.2-1.1 2.6-1.6 4.2-1.9 1.7 0 3.4.2 5.1.2 6 .1 11.7-1.2 17.1-3.4.5-.2.9-.5 1.4-.5.8.2 1 .7.4 1.4-.7.5-.6 1.2-.2 1.8.7 1 .6 2 .1 3.1-.4.7-.6 1.6-.9 2.4-.1.3-.3.7.1 1.2 1.5-1.1 1.1-3.2 2.4-4.4 1.7-.3 3.1 1.4 4.9.7-.1-.7-.6-.7-1-.8-.8-.2-1.5-.5-2.3-.7-1.5-.4-2.3-1.4-2.6-2.9 0-.1.1-.2.2-.3.7.1 1.3-.1 1.9-.5 1-.7 2.1-1.5 3.2-2.1 1.2-.7 1.7-.6 2.5.6.6.9 1.2 1.8 1.8 2.6.2.4.4.9 1 .8.5-.4.1-.8-.1-1.2-.5-1.2-1.6-2.1-1.9-3.4.3-.6-.3-1.2.1-1.7h.3c.2 0 .4-.1.7-.1 1.7 0 3.4.4 5.1.6.7.1 1.4.3 2.2-.2.1-2.2-1.1-4.2-1.2-6.4 0-.2.1-.3.1-.5.1-.1.2-.1.4-.1h-.1c-.2 0-.4-.1-.5-.3 0-.1 0-.2.1-.3.2-.2.3-.4.6-.4.4.1.2.4.3.6.1.1.1.1 0 .2.2-.2 0-.2 0-.3.2-.7.9-.1 1.2-.4 1.3-.2 2.2-1 2.8-2.1.7-1 1-2.3 2.3-3 2.2.8.3 2.3.5 3.5 1.6-.7 2.2-2.9 1.2-3.9-.8-.8-2.1-.8-2.9.2-.8.9-1.4 2-2.1 3-.3.5-.7 1-1.4 1-.5-.1-.8-.4-1-.8-.1-.8.3-1.3.6-1.9.7-1.4 1.9-2.6 2.3-4.2 0-.2 0-.3 0-.5 0-.1 0-.2 0-.3-.4-.5-1.3-.5-1.2-1.4 1.1-3.3 2.2-6.7 2.7-10.2.9-6.7.3-13.3-1.9-19.7-.2-.4-.3-.9-.4-1.3 0-.5.3-1 .4-1.5.2-.3.6-.2.9-.3.1-.1.1 0 .2 0 0-.1-.1-.1-.2 0-.1-.1-.2-.2-.2-.3 0-.2-.2-.1-.3-.2-.4-.8.2-1 .7-1 .9 0 1.8-.1 2.8.2-.2-.7.9-1 .5-1.8.2-.7.7-.9 1.3-1.1.5 0 .5.7.9.8.1 0 .1.1.2.2.1-.1 0-.3.1-.4 1.7-.1.5 1.2.9 1.8 1 .5 1.8.8 2.1 1.5z" fill="#fff"/><path d="m47 100c-.1.5.1 1.1-.8 1.2-.7-.7-1.7.3-2.5-.2.2-.7.8-.7 1.3-.9s1.1-.3 1.4-1c-.6-1-6.1-3-7.6-2.7 1.5 1.4 3.5 1.3 5 2.3-.1.7-.6.9-1.1 1.1-1.5.6-3.1 1.2-4.6 1.8-.4.2-1 .3-1.1.9.4.5.9.2 1.3.1.9-.3 1.8-.7 2.7-1 .5-.2.9-.4 1.4-.2.4.7-.1 1.5.3 2.2.3.5.2 1.1.9 1.3.1 0 .1.1.2.2 0-.1.1-.1.1-.2.1-.2.3-.4.6-.3.2 1.1 1.6.4 2 1.3 0 .5-.5.5-.6.9.1.2.2.4.4.6-8.5-1.8-16-5.5-22.7-11.1-3.1-2.6-5.9-5.6-8.4-8.9-.2-.3-.5-.5-.5-1l .1-.1c2.3-.9 4.2-2.4 6.4-3.8-1.3-2.3-2.4-4.4-4-6.3-.3-.3-.7-.4-.7-1 .4-1.3.4-2.6.3-3.9-.1-.5.3-.5.5-.7 1 .4.8 1.4 1.1 2.1 0 .3-.1.6.2.7 1 1.2 1.5 2.7 2.3 4.1 5.4 9 13 15.2 22.9 18.6 2 .7 4 1.1 6 1.5.4.1 1-.1 1.1.6-.6.2-1.2.3-2 .5-.1.1.3.2.2.4-.3.5-.7.1-1 0-.4.3-.8.6-1.1.9z" fill="#fefefe"/><path d="m105.3 39.4c-.6-.4-1.1-.9-1.7-1.1-.4-.7.2-1.3-.1-2-.3-.2-.5-.1-.7.1-.3.1-.5.3-.8.2-.4-.2.2-.7-.2-.9.3-1.9-.7-3.4-1.7-4.8-.8-1.1-1.3-2.4-2.3-3.5-2.1.9-4 2.2-5.7 3.4-.2.8.3 1.2.5 1.7.7 1.2 1.5 2.4 2.2 3.7 1.2 2 2.1 2.2 4.1 1 .4-.3.8-.7 1.5-.5.2.2.3.5.5.8-.5.2-1.2.4-.6 1.4-1.1-.3-2 0-3-.3-.3-.1-.8-.1-1 .3-.1.3.1.4.3.4 0 .2 0 .4.3.5 0 .6-.4.5-1 .4.2.5-.1.8-.3 1.2-.6-.1-.6-.6-.8-1-5.1-11.3-13.5-19-25.2-23-1.4-.5-2.9-.9-4.4-1.1-.4-.1-1 0-1.1-.6.5-.7 1.3-.5 2-.6 1.5.2 2.9 1 4.4 1.4.7.2 1.4.5 2.2.7.4.1.8.4 1.3-.2-1.5-1.2-3.6-1.1-5.2-2.3 2.2-1.7 5-1.8 7-3.3.1-.6-.4-.7-.6-1.1.1-.5-.8-.9-.2-1.6 4.7 1.7 9.1 4.1 13 7.2 7.9 6 13.7 13.7 17.1 23 .1.2.1.4.2.5z" fill="#fefefe"/><path d="m13.2 84.4c-.3-.2-.4-.5-.5-.8.1-.1.2-.1.3-.1.3.1.5.2.5.6 0 .1-.1.2-.3.3.1-.1 0-.1 0 0z" fill="#bbb6b7"/><path d="m11.7 81.8c-.2-.3-.4-.5-.6-.8l.1-.1h.3c.3.1.4.3.5.6-.1.2-.2.3-.3.3z" fill="#9c9696"/><path d="m13.9 85.4c-.3-.1-.3-.3-.4-.5.1-.1.2-.1.3-.1.3.1.5.3.4.7-.1 0-.2 0-.3-.1z" fill="#bfbbbb"/><path d="m14.4 86.1c-.3 0-.4-.3-.4-.5.1-.1.2-.1.3-.1.3.1.5.3.4.7-.1 0-.2 0-.3-.1z" fill="#aba5a6"/><path d="m12.3 82.9c-.3-.1-.3-.3-.4-.5.1-.1.2-.1.3-.1.2.1.2.2.3.4 0 0 0 .1-.2.2z" fill="#f6f6f8"/><path d="m11.7 81.8c.1-.1.1-.1.2-.2.3 0 .4.2.4.5-.1.1-.2.1-.3 0-.2-.1-.3-.2-.3-.3z" fill="#e8e7e9"/><path d="m12.7 83.3c-.3-.1-.3-.3-.3-.5h.1c.4-.1.6.2.5.5-.1.1-.2.1-.3 0z" fill="#fefeff"/><path d="m13.8 84.8c-.1 0-.2 0-.3 0-.1-.2-.2-.3-.3-.5h.2c.1 0 .1 0 .2-.1.2.2.3.4.2.6z" fill="#fdfdfe"/><path d="m11.1 81c-.1-.1-.2-.3-.2-.4l.1-.1h.2l.1.1c.1.2.1.3 0 .4z" fill="#030201"/><path d="m10.6 80.1h.3l.1.1c0 .2 0 .3-.1.4-.1-.2-.2-.4-.3-.5z" fill="#030201"/><path d="m14.4 86.1h.2c.1 0 .1.1.1.1v.1c-.3.1-.3 0-.3-.2z" fill="#fefefe"/><path d="m11.9 82.1h.1c.1 0 .1.1.1.2s0 .1-.1.1h-.1-.1c.2-.1.1-.2.1-.3z" fill="#fdfefe"/><path d="m12.7 83.3h.2s.2.1.2.2c-.1 0-.2 0-.3 0s-.2 0-.1-.2c-.1.1-.1.1 0 0z" fill="#feffff"/><path d="m14.2 85.6c-.1 0-.2 0-.3 0 0-.1-.1-.1-.1-.2h.3c.1 0 .2.1.1.2z" fill="#fdfdfe"/><path d="m64.1 15.5c2.9.7 5.8 1.4 8.6 2.6 10.4 4.5 17.8 11.9 22.4 22.2.1.3.3.7.5 1 .9 2.9 1.9 5.9 2.3 9 1.1 7.6.3 14.9-2.5 22.1-.1.3-.2.6-.3.9-.1 1.5-1 2.7-1.6 3.9-3.9 7-9.4 12.5-16.4 16.4-.7.4-1.4.8-2.2.9-3.2 1.4-6.5 2.6-10 3.3-4.3.8-8.6 1-12.9.5-.4 0-.8 0-1.3 0-2.5-.6-5.1-1-7.5-1.9-11.3-4-19.5-11.4-24.6-22.2-.1-.3-.3-.5-.4-.7-.2-.1-.2-.2-.1-.4-.3-.8-.6-1.5-.9-2.3-.9-3.1-1.7-6.3-2.1-9.6-.7-6.9.2-13.5 2.7-19.9.2-.4.3-.9.5-1.3 0-.1-.1-.2-.1-.4 0-.1 0-.2.1-.4 2.3-5 5.4-9.4 9.4-13.1 3.5-3.3 7.5-5.9 11.9-7.9.3-.2.7-.3 1.1-.2 3.1-1.1 6.3-2.1 9.5-2.6 4.3-.6 8.6-.7 12.9 0 .4.1.7.1 1 .1z" fill="#010000"/><path d="m6 56.6c.2-2.7.3-5.4 1-8 .5-1.7 1.2-2.2 3-1.6.8.2 1.6.5 2.4.8 1.3.5 1.8 1.3 1.5 2.6-.8 3.2-.9 6.4-.5 9.6.1 1 .4 1.9.5 2.8.3 1.4-.2 2.1-1.5 2.6-.9.3-1.8.6-2.6.8-1.5.5-2.3 0-2.7-1.5-.9-2.6-.9-5.4-1.1-8.1z" fill="#e30a14"/><path d="m18.4 39.7c0 .1 0 .2-.1.3-.3-.1-.5-.3-.7-.2-.3-.3.2-.7-.2-.9 0-.8.6-1.4.9-2 .6-1.1 1.3-2.1 1.9-3.3.4-.8.8-1.6.1-2.5-.6-.8-1.5-.9-2.7-.4-.2.1-.4.2-.6 0-.3-.7.9-1 .4-1.7 1.5-.6 2.7.4 3.9 1 .2-.1.5.2.9-.1 0-1-.4-2.2.6-3.2.9-.8 1.8-1.7 2.5-2.6.9-1.1 2.2-.3 3.3-.7-.2-.7-.6-.6-1-.7s-.9.1-1-.6c.4-.1.8.1 1.1-.3 0-.2-.2-.2-.3-.3-.5-.7-.7-1.6-.3-2.6.9.1 1.1 1 1.5 1.6 1 1.3 1.6 1.5 3.1.8 1.5-.8 2.8-1.8 4.2-2.7.4-.3.5-.8.8-1.1h.1c.1-.1.2-.1.3-.1.5.3 1 0 1.6.1.5.3.5.3 1.6-.1.4 0 .4.3.4.6-3.8 1.8-7.4 3.8-10.6 6.4-4.8 4-8.5 8.8-11.2 14.4-.1.2-.3.4-.4.6-.1.1-.1.1-.1.3 0-.1 0 0 0 0z" fill="#fefefd"/><path d="m14.2 85.6c0-.1-.1-.2-.1-.2 0-.2-.2-.4-.3-.5-.1-.2-.1-.4-.4-.5-.1 0-.1-.1-.1-.1 0-.1 0-.1 0-.1-.1-.2-.2-.4-.3-.5s-.1-.2-.2-.2c-.1-.2-.1-.5-.4-.5 0-.2 0-.4-.3-.5 0-.1 0-.2 0-.3-.1-.2-.2-.3-.2-.5-.1-.2-.1-.5-.4-.5-.2-.1-.1-.4-.3-.5-.2-.1-.1-.4-.3-.5-.5-1.5.1-2.6 1.5-3.2 1.3-.6 2.3-1.9 4-1.6 1.2.7 1.9 1.9 2.6 3.1.8 1.3 1.6 2.6 2.4 3.9-.2.7-.7.9-1.2 1.2-1.4.9-2.8 1.7-4.1 2.6-.4.3-.9.4-1.4.3.1-.1 0-.2 0-.2-.2-.4-.2-.6-.5-.7z" fill="#030201"/><path d="m41.7 8.3c.4-.2.9-.3 1.5-.1.4 1.7.8 3.5 1.2 5.5 2.1.4 3.9-.4 6-1.1-.4-2-.8-3.8-1.1-5.5.3-.6.8-.8 1.4-.7.7 1.2.7 2.6 1 4 .6 2.7.1 3.5-2.7 4.3-1.5.4-2.9.8-4.4.7-1 0-1.7-.4-2-1.4-.4-1.7-.8-3.5-1.1-5.2 0-.2.1-.3.2-.5z" fill="#050302"/><path d="m16.9 30.8c.7-.6 1.5-1.1 2.5-.7 1.5.6 2 1.6 1.2 3.1-.9 2-2.1 3.8-3.3 5.6-.5.1-.9-.1-1.2-.6.9-2 2.4-3.7 3.2-5.7-.1-.7-.5-.7-.8-.9-.5.1-.8.5-1 .9-.7 1-1.3 2-2 3-.8 1.2-1.8 1.4-2.9.8-1.2-.7-1.5-1.6-.9-3 .3-.7.7-1.5 1.2-2 .6-.2.9 0 1.1.5 0 1-1.8 2-.2 3.2 1.5-1.1 2-2.9 3.1-4.2z" fill="#040201"/><path d="m26.5 22.3c.7.5 1.7 0 2.4.6.2.3.2.7-.1 1-.9.3-1.8-.1-2.7-.2-1.3 1.4-2.6 2.8-3.7 4-.3 1.2.9 2.3-.3 3.1-.6-.1-.5-.6-.8-.7 0-.3-.1-.5-.1-.8 0-.1-.1-.2-.2-.3-.2-1.9-.9-3.8-1.3-5.7-.2-.9-.1-1.5.8-1.8 1.4.1 2.8.5 4.2.5.6.1 1.3-.3 1.8.3z" fill="#050302"/><path d="m75.3 10.1c.6 0 1.1.2 1.3 1-2.2 1.6-4.9 2-7.5 3.3 1.9.7 3.7 1.3 5.4 2 .1.7-.1 1-.7 1.3-2.5-1-5.2-1.5-7.6-2.8-.3-.8 0-1.2.8-1.5 2.8-1.1 5.5-2.2 8.3-3.3z" fill="#050302"/><path d="m56.8 7.5c-1.2-.5-2.4.2-3.3-.6-.2-.5 0-.8.3-1.2 2.7.1 5.5.3 8.1.5.3.5.3.9.1 1.3-1.1.4-2.2-.3-3.4 0-.2 2-.3 4-.5 5.9-.5.4-.9.3-1.5 0-.3-1.7.2-3.8.2-5.9z" fill="#050302"/><path d="m38.7 17.5c-.5.3-1 1-1.5.1 0-.1-.1-.2-.2-.3-.3-.6-.7-1.2-1-1.8-1.8-.7-3.7-1-5.4-1.9.4-1 1-1.2 1.8-.9 1.2.4 2.5.8 3.6 1.2 1.1-1.5.8-3.8 2.6-4.8.6.2.7.6.6 1-.1.2-.1.5-.2.7-1.2 2-1.8 4.3-.3 6.7z" fill="#050302"/><path d="m36.7 17.5c.5.6 0 .9-.4 1.2-1.5 1-2.9 2-4.4 2.8-1.7 1-2.5.7-3.6-.9-.4-.5-.8-1.1-1.2-1.6-.4-.7-.9-1.5-1.3-2.2 0-.6.5-.8 1-1 1.5 1.3 2.1 3.4 3.6 4.8 1.8-.6 3.3-1.9 4.8-2.9.5-.3.9-.7 1.5-.2z" fill="#060302"/><path d="m68.5 9.1c.1-.6.5-.8 1-.9.4.1.8.3.9.8 0 .6-.3.9-.9 1-.5-.1-.9-.4-1-.9z" fill="#1e1916"/><path d="m26.5 22.3c-.6 0-1.2.1-1.8-.3.2-.6.5-1.1 1.3-.8.3.3.5.6.5 1.1z" fill="#fefefd"/><path d="m21 29c .1.1.1.2.2.3-.1-.1-.2-.2-.2-.3z" fill="#fefefd"/><path d="m27.3 21.8s0 .1 0 0z" fill="#fefefd"/><path d="m36.9 17.2c.1.1.1.2.2.3-.1 0-.2-.1-.3-.1 0 0 .1-.1.1-.2z" fill="#060302"/><path d="m107.2 56.5c-.2 2.7-.3 5.5-1.1 8.2-.5 1.5-1.3 1.9-2.8 1.5-.9-.3-1.8-.6-2.8-.9-1.2-.4-1.7-1.3-1.4-2.5 1-4.2 1-8.4 0-12.6-.3-1.4.2-2.1 1.6-2.6.9-.3 1.8-.6 2.6-.8 1.5-.5 2.2 0 2.7 1.6.9 2.7 1 5.4 1.2 8.1z" fill="#e30b14"/><path d="m75 94.4c4.2-2.3 8.2-4.9 11.5-8.4 3.5-3.5 6.2-7.5 8.3-12.1.1-.3.3-.5.4-.8.3.2.5.4 1 .4.2 0 .7.1.3.6v.5c-.7.2-1.2.7-1.6 1.3-.6 1.1-1.4 2.2-2 3.3-.9 1.7-.8 2.3.6 3.6.1.1.2.3.2.4-.2.8-.5 0-.7.1s-.3.2-.3.4c-.1-.2-.3-.4-.4-.5-.2.1-.4.2-.6.3-.3 0-.4-.4-.7-.3-.4 4-2.4 6.3-6.5 6.7-.2.4.5.5.4.9-.3.1-.5.1-.2.5.4.4.1.8-.1 1.1-.3 0-.5-.1-.7-.3-.8-.7-1.6-.6-2.5-.2-2 1-3.8 2.2-5.4 3.6-.4.2-.8.1-1-.3.1-.1.2-.2.3-.3s-.1-.3-.3-.5z" fill="#fefdfd"/><path d="m100.5 36.6c-.6.3-1.2.7-1.7 1-1.5.9-2.5.8-3.6-.6-1.3-1.9-2.5-3.9-3.8-6 1.9-1.7 4.3-2.8 6.2-4.1.5.1.7.3.9.5 1.1 1.7 2.1 3.5 3.2 5.3.6.9.8 1.9.2 2.9-.6.4-1 .7-1.4 1z" fill="#030201"/><path d="m71.4 104.7c-.4.7-.9.6-1.6.5-.6-1.5-.7-3.2-1.1-4.8-.1-.6-.4-1-1-.9-1.7.2-3.5.5-5.2 1.3.4 1.9.8 3.8 1.1 5.5-.4.5-.7.7-1.1.7-.3-.1-.5-.3-.6-.6-.3-1.6-.7-3.2-1-4.8-.2-1 .2-1.7 1.1-2.2 2.1-1.1 4.4-1.5 6.8-1.4.9 0 1.4.7 1.6 1.5.3 1.8.7 3.5 1 5.2z" fill="#040201"/><path d="m93.7 83.4c-2.1-1.3-2.3-1.9-1.1-4.1.8-1.4 1.7-2.8 2.5-4.2.4-.6.8-.7 1.3-.4.5.5 0 .9-.2 1.3-.8 1.4-1.7 2.9-2.5 4.3-.1.2-.1.4-.2.6.2.5.4.7.9.7.8-.3 1-1.1 1.4-1.7.6-.8 1.1-1.7 1.7-2.5.7-.9 1.6-1.1 2.7-.5 1.1.7 1.4 1.4 1 2.6-.3.9-.7 1.8-1.4 2.4-.6.1-.9-.2-1-.5 0-1.1 1.8-2 .2-3.2-1.2.8-1.6 2.1-2.3 3.2s-1.5 2.1-3 2z" fill="#040201"/><path d="m84.9 90.9c-.5-.3-1.3-.3-.9-1.3.9-.5 1.9 0 2.9 0 1.2-1.3 2.5-2.6 3.7-4 .2-.9-.4-1.7-.2-2.6.2-.4.4-.4.9-.3.1.3.3.6.4 1v .3c.1.2.1.4.2.5.2 1.8.8 3.5 1.2 5.2.4 1.8.1 2.3-1.8 2.1-2.1-.2-4.2-.5-6.2-.7-.1-.1-.2-.1-.2-.2z" fill="#050302"/><path d="m42.4 101.4c-1.7.6-3.4 1.3-5 1.9-.6-.1-.9-.4-1-1.1 2.2-1.6 5-1.9 7.4-3.3-1.8-.8-3.7-1.1-5.2-1.9-.2-.6 0-.9.3-1.2 2.5.2 7.6 2.4 8 3.4-.8 1.1-2.2 1-3.2 1.7-.5.2-.9.4-1.3.5z" fill="#050302"/><path d="m75 95.4c.3.1.7.2 1 .3 0 .9.7 1.5.9 2.3 1 .3 1.9.6 2.8.9s1.9.4 2.6 1.1c-.6 1.4-1.6.9-2.5.6-1-.3-1.9-.6-3-.9-.5 1.2-.9 2.4-1.3 3.6-.3.9-.8 1.2-1.6 1.1-.4-.6-.1-1.1.1-1.5.1-.4.2-.8.4-1.2.9-1.9 1.3-3.7-.2-5.3.1-.7.5-.8.8-1z" fill="#060403"/><path d="m59.1 107.6c-2.7-.2-5.4-.4-8-.6-.5-.5-.3-.9-.3-1.3 1.2-.5 2.3.2 3.4 0 .2-2 .3-4.1.5-6 .5-.4.9-.2 1.4-.2.5 2.2-.2 4.2-.1 6.3 1 .3 2 .2 2.9.2.8.5.6 1 .2 1.6z" fill="#050302"/><path d="m76 95.7c0-.4.2-.7.5-.9 1.5-1 3-2 4.6-2.9s2.3-.7 3.5.6c.9 1.4 1.7 2.8 2.6 4.2-.1.7-.5.8-1 1-1.5-1.3-2.1-3.3-3.6-4.8-2.2.7-3.7 2.4-5.8 3.4-.3-.2-.5-.4-.8-.6z" fill="#050302"/><path d="m44.5 104.6c-.2.2-.3.3-.5.5-.1.1-.1.2-.2.1-1-.1-1.5-.5-1-1.5 1.2-.5 1.5-.4 1.7.9z" fill="#231e1c"/><path d="m91.9 84.4c-.1-.1-.2-.3-.2-.5.2 0 .4.1.5.3-.1 0-.2.1-.3.2z" fill="#fefdfd"/><path d="m92.2 84.1s.1 0 0 0z" fill="#fefdfd"/><path d="m97 39.7v-.1h.1z" fill="#fefefe"/><path d="m84.9 90.9h.2z" fill="#fefdfd"/><path d="m96.7 39.2c0-.1 0-.1 0 0z" fill="#fefefe"/><path d="m102.8 36.4s.1 0 0 0z" fill="#fefefe"/><path d="m92.7 83.8.1.1-.1.1z" fill="#fefdfd"/><path d="m33.6 101.1c-1.5 0-2.6-.9-3.8-1.6-3.6-2.1-3.7-2.5-1.5-6.1.2-.3.4-.7.6-1 .6-.9 1.3-1.2 2.4-.9 2 .7 3.7 1.7 5.2 3.1.9.8 1 1.8.4 2.8-.5.9-1 1.7-1.5 2.6-.5.8-1.1 1.2-1.8 1.1z" fill="#040201"/><path d="m23 83.9c.6 2.9.6 5.9 1.1 8.9 1.3-1.2 2.5-2.5 3.8-3.7.5.2.9.4 1 1-1.6 1.7-3.2 3.5-4.9 5.1-1-.2-1.1-.8-1.2-1.4-.2-2.5-.5-5.1-.8-7.9-1.4 1.4-2.6 2.6-3.7 3.8-.6-.1-.8-.4-1-.7 1.3-2.3 4.5-5.2 5.7-5.1z" fill="#040201"/><g fill="#fff"><path d="m18.1 73c0 .1.1.3.1.4-.1.2-.2.3-.4.2-.1-.3.2-.4.3-.6z"/><path d="m43.7 105.1c.1 0 .2 0 .2-.1 0 .1.1.3.1.4-.3.1-.3-.1-.3-.3z"/><path d="m45.2 106.1c-.2-.2-.3-.3 0-.4.2.1 0 .2 0 .4z"/><path d="m45.2 106c .1 0 .2.1.4.1-.2.3-.3.1-.4-.1z"/><path d="m47 100-.1-.1z"/></g><path d="m86.1 17c-.8 1.6-1.5 3.4-2.9 4.6-.6.6-1.5.3-2.2 0-1.6-.7-3.1-1.5-4.4-2.6s-1.4-1.9-.5-3.4c.5-.8 1-1.7 1.5-2.5.5-.7 1.2-1.1 2-.9 2.2.6 4.1 1.8 5.8 3.4.5.4.8.8.7 1.4z" fill="#040201"/><path d="m90.6 29.8c-1.3-.9-1-2-1.1-2.9-.3-2.1-.4-4.2-.6-6.4-1.3 1.3-2.5 2.6-3.7 3.8-.6-.2-.9-.4-1.2-1 1.8-1.7 3.2-3.9 5.7-5.4 1 3.3.7 6.4 1.3 9.4 1.2-1.3 2.4-2.5 3.6-3.7.7.2 1 .4 1.2 1.1-1.8 1.6-3.3 3.5-5.2 5.1z" fill="#040201"/><path d="m13.4 84.1c.1.1.1.1 0 .2s-.1 0 0-.2c-.1.1-.1.1 0 0z" fill="#fdfdfe"/><path d="m11.1 80.5c.2.1.3.3.3.5h-.1-.1c0-.1 0-.3-.1-.5z" fill="#dddbdb"/><path d="m10.9 80c .2.1.3.3.3.5-.1 0-.2 0-.3 0 0-.1 0-.3 0-.5z" fill="#e7e6e9"/><path d="m56.5 88.4c-17.5-.1-31.8-14.5-31.7-31.9.1-17.5 14.5-31.8 32-31.7 17.4.1 31.7 14.6 31.6 32-.1 17.3-14.6 31.7-31.9 31.6z" fill="#e30a14"/><path d="m18.4 39.7c0-.1-.1-.1-.1-.2.1 0 .1 0 .2-.1 0 .1 0 .2-.1.3z" fill="#fff"/><path d="m15.8 76.7c1.8 1.3 2.3 3.4 3.7 5.1-1.4.9-2.8 1.7-4.2 2.6-1-1.8-2.3-3.4-3-5.3 1-.9 2.2-1.5 3.5-2.4z" fill="#fefefe"/><path d="m21.1 23c1.2.2 2.2.4 3.3.6-.7 1.1-1.6 1.8-2.5 2.8-.3-1.2-.6-2.2-.8-3.4z" fill="#fafafa"/><path d="m96.5 74.3-.2-.1h.1z" fill="#fff"/><path d="m97.6 28.9c1 1.9 2.3 3.4 3 5.4-1.1.9-2.3 1.5-3.6 2.3-1.7-1.4-2.3-3.5-3.6-5.1 1.4-.9 2.7-1.7 4.2-2.6z" fill="#fffefe"/><path d="m91.8 90.3c-1.2-.2-2.2-.3-3.4-.5.9-1 1.7-1.8 2.7-2.8.2 1.2.5 2.2.7 3.3z" fill="#fcfcfb"/><path d="m35.7 96.2c-.7 1.2-1.4 2.3-2.1 3.5-2-.6-3.7-1.6-5.2-3 .7-1.2 1.4-2.3 2-3.4 1.4-.2 4.3 1.4 5.3 2.9z" fill="#fefefe"/><path d="m84.5 16.7c-.8 1.3-1.4 2.3-2 3.4-1.2.2-4.1-1.3-5.3-2.8.6-1.1 1.3-2.2 2-3.5 2.2.4 3.7 1.6 5.3 2.9z" fill="#fffefe"/><path d="m53 31.4v50.4c-4.6-.6-8.7-2.4-12.2-5.2-5.7-4.5-9-10.4-9.6-17.6-1.4-15.8 10.6-26.4 21.8-27.6z" fill="#010000"/><path d="m60.3 81.8c0-16.8 0-33.5 0-50.4 4.9.7 9.2 2.7 12.9 5.9 5.2 4.5 8.2 10.2 8.8 17 1.3 15.4-10.2 26-21.7 27.5z" fill="#010000"/></svg>