<?xml version="1.0" encoding="UTF-8"?>
<svg id="uuid-d4c34dee-bca6-4088-bf8a-a94c8d57fd63" data-name="Capa 1" xmlns="http://www.w3.org/2000/svg" viewBox="0 0 566.93 566.93">
  <defs>
    <style>
      .uuid-3736c2b2-a4b6-4bb5-a18c-6b6b99af5b3d {
        fill: #010101;
      }

      .uuid-95785eb8-3b74-48e3-a627-e1ebbe56a522 {
        fill: #c8d400;
      }
    </style>
  </defs>
  <g>
    <path class="uuid-3736c2b2-a4b6-4bb5-a18c-6b6b99af5b3d" d="M283.46,557.34c-73.16,0-141.93-28.49-193.66-80.22-51.73-51.73-80.22-120.5-80.22-193.66s28.49-141.93,80.22-193.66C141.53,38.07,210.31,9.59,283.46,9.59s141.93,28.49,193.66,80.22c51.73,51.73,80.22,120.51,80.22,193.66s-28.49,141.93-80.22,193.66c-51.73,51.73-120.5,80.22-193.66,80.22Z"/>
    <path class="uuid-95785eb8-3b74-48e3-a627-e1ebbe56a522" d="M283.46,12.09c36.64,0,72.18,7.17,105.63,21.32,32.31,13.67,61.34,33.24,86.26,58.16s44.49,53.95,58.16,86.26c14.15,33.45,21.32,68.99,21.32,105.63s-7.17,72.18-21.32,105.63c-13.67,32.31-33.24,61.34-58.16,86.26s-53.95,44.49-86.26,58.16c-33.45,14.15-68.99,21.32-105.63,21.32s-72.18-7.17-105.63-21.32c-32.31-13.67-61.34-33.24-86.26-58.16s-44.49-53.95-58.16-86.26c-14.15-33.45-21.32-68.99-21.32-105.63s7.17-72.18,21.32-105.63c13.67-32.31,33.24-61.34,58.16-86.26s53.95-44.49,86.26-58.16c33.45-14.15,68.99-21.32,105.63-21.32M283.46,7.09C130.83,7.09,7.09,130.83,7.09,283.46s123.74,276.38,276.38,276.38,276.38-123.74,276.38-276.38S436.1,7.09,283.46,7.09h0Z"/>
  </g>
  <path class="uuid-95785eb8-3b74-48e3-a627-e1ebbe56a522" d="M520.14,341.57l-38.13,57.22c-12.65,18.09-24.5,37.59-48.95,39.74-66.33.22-132.66-.38-198.99-.06-19.97.1-42.18,2.34-62.05.65-17.33-1.47-18.93-20.52-27.3-30.99-1.3-1.62-2.1-2.25-4.36-1.97-7.11,19.49-15.72,38.71-18.08,59.58l-4.08-1.31c-8.92-21.47-20.04-42.08-28.97-63.53-8.18-19.65-15.3-37.43-4.56-58L225.87,112.86c11.99-8.84,27.1-2.28,40.23-6.98.41-.54-6.19-10.31-7.08-11.6-7.45-10.7-17.33-22.57-27.12-31.17-2.46-2.16-6.44-4.13-8.43-5.97-.27-.25-1.12-1.53-.77-1.93,7.4,2.23,15.8,3.28,23.53,4.34,18.67,2.55,37.59,3.81,56.22,6.5,20.9,3.02,37.38,7.88,49.94,26.08l117.57,225.17c4.73,14.78-10.34,27.63-15.06,40.38.56.93,1.25.9,2.19,1.01,1.91.22,7.26-.44,9.52-.68,13.54-1.42,33.27-5.48,45.33-11.69,1.21-.62,7.54-5.42,8.21-4.78ZM347.6,155.53c-2.16-2.44-6.96-4.94-10.23-5.29-30.02,2.02-63.56-2.68-93.16-.02-5.79.52-9.82,3.96-12.85,8.69l-86.28,144.96c-5.44,10.73-3.55,13.76,1.8,23.55,13.75,25.21,30.38,49.95,45.08,74.66l6.81,4.59,169.67.8c6.02-.45,11.44-2.12,14.49-7.68,12.53-25.62,28.8-50.69,40.74-76.47,5.38-11.63,5.25-11.91-.35-23.36-18-36.81-38.28-74.1-57.43-110.46-4.15-7.87-13.35-28.4-18.29-33.98Z"/>
  <g>
    <polygon class="uuid-95785eb8-3b74-48e3-a627-e1ebbe56a522" points="287.28 268.51 298.21 268.51 302.5 261.04 302.43 209.44 287.28 209.44 272.14 209.44 272.06 261.04 276.36 268.51 287.28 268.51"/>
    <polygon class="uuid-95785eb8-3b74-48e3-a627-e1ebbe56a522" points="379.67 250.01 371.23 250.01 351.76 284.03 333.55 284.04 351.34 252.91 345.92 243.52 336.18 245.14 313.94 284.03 287.28 284.09 260.62 284.03 238.38 245.14 228.65 243.52 223.22 252.91 241.02 284.04 222.81 284.03 203.33 250.01 194.89 250.01 182.88 263.32 182.88 270.78 214.04 325.31 221.51 325.31 237.25 308.76 233.05 301.95 251.26 301.95 263.39 323.16 276.42 311.68 270.86 301.94 287.28 301.94 303.7 301.94 298.14 311.68 311.17 323.16 323.3 301.95 341.51 301.95 337.31 308.76 353.06 325.31 360.52 325.31 391.68 270.78 391.68 263.32 379.67 250.01"/>
    <polygon class="uuid-95785eb8-3b74-48e3-a627-e1ebbe56a522" points="287.28 321.74 276.36 321.74 272.14 329.2 272.14 380.81 287.28 380.81 302.43 380.81 302.43 329.2 298.21 321.74 287.28 321.74"/>
  </g>
</svg>