<?xml version="1.0" encoding="UTF-8"?>
<svg id="Capa_1" xmlns="http://www.w3.org/2000/svg" version="1.1" viewBox="0 0 566.9 566.9">
  <!-- Generator: Adobe Illustrator 29.0.1, SVG Export Plug-In . SVG Version: 2.1.0 Build 192)  -->
  <defs>
    <style>
      .st0 {
        fill: #eecc35;
      }

      .st1 {
        fill: #b7c730;
      }

      .st2 {
        fill: #fff;
      }

      .st3 {
        isolation: isolate;
      }

      .st4, .st5 {
        fill: #222221;
      }

      .st6 {
        fill: #fdfdf9;
      }

      .st7 {
        fill: #b7c62f;
      }

      .st5 {
        stroke: #fff;
        stroke-linejoin: round;
        stroke-width: 2px;
      }
    </style>
  </defs>
  <g>
    <g>
      <path class="st7" d="M42.1,282.9c7.3,7.1,12.9,13.1,19.1,18.3,5.2,4.4,7.1,9.8,8.1,16.3,9.4,61.4,40.3,109.7,90.8,145.5,29.8,21.1,63.2,33.4,101.4,37.6,6.4,6.9,13.9,14.9,22.2,23.9,7-7.3,13.3-13.9,19.6-20.6,2.2-2.4,4.7-3.6,7.9-4,35.9-4.8,69-16.8,98.5-38.2,49.2-35.7,79.3-83.2,89-143.3,1.3-7.9,3.4-14.7,9.9-19.9,5.3-4.3,10-9.5,15.7-15.1-7.4-7.2-13.9-13.6-20.5-20-2.5-2.4-3.7-4.9-4.2-8.4-4.3-29.9-13.4-58.3-29.5-84.1-18.3-29.2-41.7-53.3-71.3-71.6-25.2-15.6-52.1-25.7-81.2-30-7-1-12.5-3.6-17.1-9.1-5-6-10.6-11.6-16.2-17.7-7.8,7.8-14.4,14.3-21,21-2.6,2.7-5.4,4.4-9.3,5-16.3,2.6-32.6,6-47.8,12.3-75.7,31.4-121.9,87.3-136.9,168.2-1.3,7.1-3.4,13-9.2,17.6-6.1,4.9-11.7,10.5-18,16.2h0ZM279.5,554.9c-146-1.7-269.5-121.5-267.5-275.8C13.9,133.8,133.2,11.3,285.3,12c147.2.8,271.3,121.5,269.6,275-1.6,145.9-121.2,269.7-275.4,267.9h0Z"/>
      <path class="st7" d="M61.2,301.2c-6.2-5.3-11.8-11.2-19.1-18.3,6.3-5.7,11.9-11.3,18-16.2,5.8-4.6,7.9-10.5,9.2-17.6,14.9-81,61.1-136.8,136.9-168.2,15.2-6.3,31.5-9.7,47.8-12.3,4-.6,6.7-2.4,9.3-5,6.5-6.6,13.2-13.2,21-21,5.6,6,11.1,11.6,16.2,17.7,4.5,5.5,10.1,8.1,17.1,9.1,29.1,4.3,56,14.4,81.2,30,29.6,18.3,53,42.4,71.3,71.6,16.1,25.7,25.2,54.1,29.5,84.1.5,3.5,1.8,6.1,4.2,8.4,6.6,6.3,13.1,12.8,20.5,20-5.8,5.6-10.4,10.8-15.7,15.1-6.5,5.2-8.6,12-9.9,19.9-9.7,60.1-39.8,107.6-89,143.3-29.5,21.4-62.6,33.4-98.5,38.2-3.2.4-5.7,1.7-7.9,4-6.2,6.7-12.5,13.2-19.6,20.6-8.3-9-15.8-17-22.2-23.9-38.3-4.2-71.7-16.4-101.4-37.6-50.4-35.8-81.3-84.1-90.8-145.5-1-6.5-2.9-11.9-8.1-16.3h0Z"/>
    </g>
    <path class="st1" d="M93.9,232.1c0,.2-.2.3-.3.5.1-.1.2-.3.4-.4h0c0-.1,0,0,0,0Z"/>
    <path class="st7" d="M285.3,7.1C131.3,6.2,7.3,130.3,7.1,282.5c-.2,153.8,123,277.3,276.3,277.4,152.3.1,274.8-122.4,276.5-272.9C561.6,131.4,436.5,8,285.3,7.1Z"/>
    <path class="st6" d="M98.8,312.8c-.6-.2-1-.6-.3-1.6.2.7.2,1.1.3,1.6h0Z"/>
    <path class="st6" d="M311.5,469.3l-.2.5c.1-.1.2-.3.3-.4h-.1c0-.1,0-.1,0-.1Z"/>
  </g>
  <path class="st0" d="M283.5,15.7c36.2,0,71.2,7.1,104.2,21,31.9,13.5,60.5,32.8,85.1,57.4,24.6,24.6,43.9,53.2,57.4,85.1,14,33,21,68.1,21,104.2s-7.1,71.2-21,104.2c-13.5,31.9-32.8,60.5-57.4,85.1-24.6,24.6-53.2,43.9-85.1,57.4-33,14-68.1,21-104.2,21s-71.2-7.1-104.2-21c-31.9-13.5-60.5-32.8-85.1-57.4-24.6-24.6-43.9-53.2-57.4-85.1-14-33-21-68.1-21-104.2s7.1-71.2,21-104.2c13.5-31.9,32.8-60.5,57.4-85.1s53.2-43.9,85.1-57.4c33-14,68.1-21,104.2-21M283.5,5.7C130,5.7,5.7,130,5.7,283.5s124.4,277.8,277.8,277.8,277.8-124.4,277.8-277.8S436.9,5.7,283.5,5.7h0Z"/>
  <g class="st3">
    <g class="st3">
      <path class="st4" d="M162.1,78.7l8.3-2.2,7.4,12.7c1.3,2.2,1.8,4.1,1.5,5.7-.2,1.6-1.4,3.1-3.5,4.3-1.8,1-3.4,1.2-5,.7-1.6-.6-3-2-4.2-4.1-1.1-2-1.9-3.4-2.4-4.4l3.7-2.1c.5,1,1.3,2.5,2.4,4.5,1,1.6,2.1,2.1,3.3,1.4,1.1-.6,1.2-1.8.3-3.4l-5.7-9.8-8.3,2-6.1-10.4c-1.2-2-1.5-3.8-1-5.4.5-1.6,1.6-2.9,3.2-3.8.8-.5,1.6-.8,2.4-.9.8-.1,1.6-.1,2.4,0,.8.2,1.5.6,2.3,1.2.7.6,1.4,1.4,1.9,2.4.8,1.4,1.4,2.5,1.7,3.3l-3.7,2.2c-.4-.8-.9-1.8-1.7-3.1-.8-1.4-1.8-1.7-3.1-1-1.1.7-1.3,1.7-.5,3l4.3,7.4Z"/>
    </g>
  </g>
  <g class="st3">
    <g class="st3">
      <path class="st4" d="M173.4,55c.8-.4,1.7-.6,2.6-.7.9,0,1.8,0,2.6.4.8.3,1.7.8,2.4,1.5.8.7,1.4,1.6,1.9,2.7l13.9,28.9-4,1.9-7.1-14.8-4.7,2.3,7.1,14.8-3.9,1.9-13.9-29c-.5-1.1-.8-2.2-.9-3.2,0-1,0-1.9.4-2.8.3-.9.8-1.6,1.4-2.3.6-.7,1.3-1.2,2.2-1.6ZM179.2,73.1l4.7-2.3-4.8-9.9c-.4-.9-1-1.5-1.7-1.7-.7-.2-1.3-.2-1.9,0-.6.3-1.1.8-1.3,1.5-.3.7-.2,1.5.3,2.4l4.8,9.9Z"/>
    </g>
  </g>
  <g class="st3">
    <g class="st3">
      <path class="st4" d="M199.7,60.1l-5.3-13.6,4-1.5,5.3,13.7c.7,1.9.9,3.3.5,4.4-.4,1.1-1.4,2.1-2.8,3l6.7,17.2-4.2,1.6-6.7-17.2c-1.5.3-2.8.2-3.9-.3-1.2-.5-2.1-1.7-2.8-3.6l-5.3-13.7,4-1.5,5.3,13.6c.5,1.2,1.3,1.6,2.4,1.1l2-.8c1.1-.4,1.5-1.3,1-2.5Z"/>
    </g>
  </g>
  <g class="st3">
    <g class="st3">
      <path class="st4" d="M219.8,79.3l-4.3,1.4-12.5-37.2,4.3-1.4,12.5,37.2Z"/>
    </g>
  </g>
  <g class="st3">
    <g class="st3">
      <path class="st4" d="M219.5,38.1c1.8-.5,3.4-.3,4.9.5,1.5.8,2.6,2.3,3.1,4.5l6.5,24.7c.9.7,1.6,1.7,2.3,2.8.7,1.2,1.3,2.7,1.7,4.5,0,.3.2.6.2.9,0,.3.2.6.2,1l-4,1c0-.7-.2-1.5-.4-2.2-.2-.8-.3-1.4-.5-2.1h-.2c-.4.7-1,1.3-1.6,1.7-.6.4-1.4.7-2.4,1-2.3.6-4.1.4-5.4-.7-1.3-1-2.2-2.8-2.9-5.1l-6.3-24.3c-.6-2.2-.4-4.1.5-5.5.9-1.4,2.3-2.4,4.1-2.8ZM225,67.1c.2,0,.5-.2.7-.3.2,0,.4-.1.7-.2.8-.2,1.7-.3,2.6-.4l-5.7-21.8c-.4-1.5-1.2-2.1-2.5-1.8-1.3.3-1.8,1.3-1.4,2.8l5.7,21.6ZM228.5,72.4c1.1-.3,1.5-1.2,1.3-2.6-.5-.1-1-.2-1.5-.2-.5,0-1,.1-1.5.2-.2,0-.4,0-.5.1-.2,0-.3.1-.5.2.5,1.8,1.4,2.6,2.7,2.2Z"/>
    </g>
  </g>
  <g class="st3">
    <g class="st3">
      <path class="st4" d="M244.7,54l-.7-4.4,7.7-1.2.7,4.4-7.7,1.2Z"/>
    </g>
  </g>
  <g class="st3">
    <g class="st3">
      <path class="st4" d="M295.1,64.8c-2.4,0-4.8-.4-7.1-2-1.7-1.4-2.9-3.4-2.8-6.4,0-7.2,5.6-12.1,9.6-12.1,6,0,9.2,11.2,9.1,17.7,0,3.4-.6,6.2-1.6,8.4-1,1.7-2.8,3.6-5.4,5.5-4,2.8-8.4,4.4-13.4,4.4-11.3-.1-14.8-8.9-14.7-15.7,0-4.3,1-8.3,2.3-12.2l2.6.8c-.8,2.5-1.2,4.9-1.2,7.1,0,8.6,5.7,11.9,11.9,12,3.4,0,6.9-.9,10.3-2.8,2.4-1.3,4.4-2.7,5.7-4.3,0-.4,0-.7-.2-1-1.9.4-3.6.5-5.2.5ZM287.6,32.3c1.8,1.6,3.2,3.3,4.4,4.9-1,1.5-2.3,2.8-3.9,3.9-1.5-1.6-3-3.2-4.5-4.7l4-4.1ZM293.1,51.2c-3,0-4.4,2.1-4.4,3.1,0,1.9,2.7,3.5,7.7,3.5,1,0,2,0,2.9-.2-1.4-4-3.4-6.4-6.1-6.4ZM295.9,32c1.8,1.6,3.2,3.3,4.4,4.9-1,1.5-2.3,2.8-3.9,3.9-1.5-1.6-3-3.2-4.5-4.7l4-4.1Z"/>
    </g>
  </g>
  <g class="st3">
    <g class="st3">
      <path class="st4" d="M341.8,63.1c-.4-3.7-1.4-5.3-2.6-5.5-3.6-.7-9.2,3-9.5,4.2-.6,2.9,7.9,4.2,10.4,6.3,1.6,1.4,2.3,3.3,1.7,5.9-.4,2.2-1.8,4.5-3.4,6.7-2.1,1.8-4.5,3-7.2,3.9-3.9,1.3-7.7,1.8-11.3,1.1-6-1.2-12.1-6.6-9.9-17.3.9-4.6,2.6-7.8,4.4-10.4l2.1,1.1c-1.2,1.9-1.9,4-2.4,6.3-1.1,5.7,1.6,11.3,7.9,12.5,2.9.6,6,.4,8.8-.2,2.6-.6,4.9-1.4,6.5-2.4.1-.6-2.8-1.7-6.3-3-4.8-1.7-6.4-4.5-5.7-8.1.8-3.8,2.9-7.1,6.5-9.7,3.9-2.8,7.8-4.4,11-3.8,3.3.7,3.5,4.8,3.1,7-.3,1.5-1.4,3.3-3.2,5.5l-1-.2ZM323.2,44.7l-.8-1.4c-.2-.4-.7-.7-1.2-.8-1.5-.3-2.7.3-2.8.8-.2,1,1.4,2.4,4.6,3,1.4.3,2.5.5,3.9.7v.4c-.5,1-1.3,1.9-2.1,2.8-4.3-.3-7.8,0-10.1.8l-.4-.6c.7-.9,1.3-1.8,2.1-2.6-1.4-1-2-2.1-1.7-3.5.2-1.2,1.4-2.7,3.3-3.8,1.7-1,3.5-1.4,5.2-1.1,1.6.3,2.6,1.4,2.3,2.7-.2.8-.7,1.7-1.7,2.6h-.5Z"/>
    </g>
  </g>
  <g class="st3">
    <g class="st3">
      <path class="st4" d="M347.9,80c1.2-2.5,2.3-5.2,3.4-8.8,2.6-8,4.9-16.1,6.7-24.5,2.1-1.3,4-2.4,5.9-3.3l.5.5c-1.9,8.3-4.3,15.8-6.6,23-1.9,5.8-3.5,9.6-4.8,10.6-1.2,1.2-2.7,2.3-4.5,3.3l-.6-.9Z"/>
    </g>
  </g>
  <g class="st3">
    <g class="st3">
      <path class="st4" d="M391,94.5c-2.2,1.1-4.5,1.6-7.9,0-2,2.8-4.1,4.8-6.4,5.8-4,1.8-8.9,1.8-13.1-.4-7.1-3.6-7.9-10.8-4.7-17.2,1.6-3.1,4.4-6.5,8-8.7l1.4,1.9c-2.5,2-3.9,3.7-4.6,5-1.2,2.3-1.8,4.6-.6,7.4,1.1,2.2,2.6,3.8,4.8,4.9,2.7,1.3,5.3,1.6,7.9,1.2,2.2-.3,4-.8,4.8-1.9,1.2-2.3,1.1-6.3.7-10.7,2.3-1.5,4.4-2.9,6.4-3.9l.3.2c-.1,2.1-.2,4.4-.5,6.9,0,1.4.2,2.6,1.5,3.3.7.3,1.5.4,2.5.3,1.8-.3,3.3-2.6,4.8-4.1,1.3-.2,2.5-.2,3.6-.2v.3c-.6.8-1.2,1.6-1.7,2.6-.6,1.3-.9,2.3-.6,3.4.4,1.3,1.2,2.2,2.2,2.7.6.3,1.2.4,1.7.2.6-1.3,1.3-3.7,2.1-7,2-.8,4-1.5,5.9-2.1l.4.4c-.8,2.7-1.8,5.4-3.1,8-1.3,2.5-3,4.2-5.3,5.5-2.7,1.5-5.1,2.1-7,1.1-1.4-.7-2.6-2-3.3-4.8h-.2Z"/>
    </g>
  </g>
  <g class="st3">
    <g class="st3">
      <path class="st4" d="M105.8,435.5l3.7,7.7-11,9.5c-1.9,1.6-3.7,2.5-5.3,2.6-1.6,0-3.3-.8-4.8-2.6-1.3-1.5-1.8-3.1-1.6-4.7.3-1.6,1.4-3.3,3.2-4.9,1.7-1.5,3-2.5,3.8-3.1l2.8,3.2c-.9.6-2.2,1.7-3.9,3.2-1.4,1.2-1.7,2.4-.7,3.5.8,1,2,.8,3.4-.4l8.5-7.4-3.5-7.7,9-7.8c1.7-1.5,3.4-2.2,5.1-2,1.7.2,3.1,1,4.3,2.4.6.7,1,1.4,1.3,2.2.3.8.4,1.6.4,2.4,0,.8-.3,1.6-.7,2.4-.4.8-1.1,1.6-1.9,2.3-1.2,1-2.2,1.8-2.9,2.3l-2.8-3.2c.7-.5,1.6-1.2,2.7-2.2,1.2-1,1.3-2.1.4-3.2-.9-1-1.9-1-3.1,0l-6.4,5.5Z"/>
    </g>
  </g>
  <g class="st3">
    <g class="st3">
      <path class="st4" d="M124.2,456c-.9,1.2-1.8,2.4-2.8,3.8-1,1.4-2,2.6-2.9,3.7h.1c1-.8,2.2-1.9,3.5-3,1.3-1.1,2.5-2.2,3.6-3.1l12.1-10.4,3.4,3.2-30.3,24.9-3.2-3.1,10.3-14.1c.8-1.1,1.7-2.3,2.7-3.6,1-1.3,1.9-2.5,2.8-3.6h-.1c-1,.7-2.2,1.7-3.5,2.7-1.3,1-2.5,2-3.6,2.8l-14,10.6-3.2-3.1,23.8-31.1,3.4,3.3-9.9,12.5c-.9,1.1-1.8,2.3-2.9,3.7-1.1,1.3-2.1,2.5-3,3.6h.1c1.1-.8,2.3-1.8,3.6-2.9,1.3-1.1,2.5-2.1,3.6-3l12.6-9.9,3.2,3-9.4,13Z"/>
    </g>
  </g>
  <g class="st3">
    <g class="st3">
      <path class="st4" d="M132.6,483.8c-.8,1-1.6,1.7-2.5,2.2-.9.5-1.8.8-2.7.9-.9.1-1.8,0-2.6-.2-.9-.3-1.6-.7-2.3-1.2-.7-.6-1.3-1.3-1.8-2-.4-.8-.7-1.6-.8-2.5,0-.9,0-1.9.3-2.8.3-1,.8-1.9,1.6-2.9l15.4-19.3c.8-1,1.6-1.7,2.5-2.2.9-.5,1.8-.8,2.7-.9.9-.1,1.8,0,2.6.2.9.3,1.7.7,2.4,1.2.7.6,1.3,1.2,1.7,2s.7,1.6.8,2.5c.1.9,0,1.8-.3,2.8-.3,1-.8,1.9-1.6,2.9l-15.4,19.4ZM125.3,477.8c-.7.8-.9,1.6-.8,2.3,0,.7.4,1.3,1,1.7.5.4,1.1.6,1.9.5.7,0,1.4-.5,2.1-1.3l15.2-19.2c.6-.8.9-1.6.8-2.3-.1-.7-.4-1.3-.9-1.7-.6-.4-1.2-.6-1.9-.6-.7,0-1.4.5-2,1.3l-15.2,19.2Z"/>
    </g>
  </g>
  <g class="st3">
    <g class="st3">
      <path class="st4" d="M147,497.3c-.8,1.2-1.6,2.4-2.2,3.5l-3.7-2.5c.5-.9,1.2-2,2.1-3.3l7.8-11.5c.3-.5.3-.9-.2-1.2l-3.8-2.6-10.5,15.5-3.7-2.5,21.8-32.2,7.1,4.8c2.4,1.6,2.6,3.8.7,6.6l-5.5,8.1c-.5.8-1.1,1.2-1.6,1.3.3.5.5,1.1.5,1.9,0,.7-.3,1.5-.8,2.3l-8,11.8ZM155.8,466.6l-6.5,9.6,2.7,1.9c.4.3.8.2,1.2-.3l5.5-8.1c.3-.5.3-.9-.2-1.2l-2.7-1.9Z"/>
    </g>
  </g>
  <g class="st3">
    <g class="st3">
      <path class="st4" d="M164.1,504.7c-2.1,3.7-4.8,4.6-7.9,2.8l-6.6-3.8,19.4-33.8,6.9,4c2.9,1.7,3.4,4.3,1.5,7.7l-13.2,23.1ZM157.8,503.4c1,.6,1.9.3,2.5-.8l13.3-23.2c.5-.8.3-1.4-.4-1.9l-2.6-1.5-15,26.1,2.2,1.2Z"/>
    </g>
  </g>
  <g class="st3">
    <g class="st3">
      <path class="st4" d="M191.1,516.5c-.5,1.1-1.1,2-1.8,2.8-.7.7-1.5,1.2-2.3,1.6-.8.3-1.7.5-2.6.5-.9,0-1.8-.2-2.6-.6-.9-.4-1.6-.9-2.2-1.5-.6-.6-1.1-1.4-1.4-2.2-.3-.9-.5-1.8-.5-2.8,0-1,.3-2.1.7-3.2l9.7-22.7c.5-1.1,1.1-2,1.8-2.8.7-.7,1.5-1.2,2.3-1.6.8-.3,1.7-.5,2.6-.5.9,0,1.8.2,2.6.6.8.4,1.6.8,2.2,1.5.6.6,1.1,1.4,1.5,2.2.3.8.5,1.8.5,2.8,0,1-.3,2.1-.7,3.2l-9.8,22.8ZM182.4,512.7c-.4,1-.5,1.8-.2,2.4.3.7.7,1.1,1.4,1.4.6.3,1.2.3,1.9,0,.7-.2,1.3-.8,1.7-1.8l9.6-22.5c.4-.9.5-1.7.1-2.4-.3-.7-.8-1.1-1.3-1.4-.6-.3-1.3-.3-2,0-.7.3-1.2.9-1.6,1.8l-9.6,22.5Z"/>
    </g>
  </g>
  <g class="st3">
    <g class="st3">
      <path class="st4" d="M203.8,508.9l-6.1,17.7-4.3-1.5,11.3-32.8c.5-.7,1-1.2,1.7-1.6.7-.4,1.3-.7,2.1-.8.7-.2,1.5-.2,2.2-.2.8,0,1.5.2,2.2.4.9.3,1.7.7,2.3,1.3.7.5,1.2,1.2,1.6,2,.4.8.6,1.7.6,2.7,0,1-.2,2.1-.6,3.4-.2.5-.3,1-.4,1.3-.1.3-.2.6-.3.8,0,.2-.2.4-.3.6,0,.2-.2.4-.3.6l-4-1.4c.1-.2.2-.4.3-.6s.2-.4.3-.6c0-.2.2-.5.3-.9s.3-.8.5-1.3c.3-.9.3-1.7-.1-2.3-.4-.6-.9-1-1.5-1.3-.5-.2-1-.2-1.6-.1-.5.1-.9.3-1.2.7l-3.3,9.7,8.1,2.8-1.4,4.2-8.1-2.8Z"/>
    </g>
  </g>
  <g class="st3">
    <g class="st3">
      <path class="st4" d="M236.8,496.7c.9.2,1.7.5,2.4,1.1.8.5,1.4,1.1,1.8,1.9.5.8.8,1.6,1,2.6.2,1,.1,2.1-.1,3.3l-6.8,31.1-4.3-.9,3.5-15.9-5.1-1.1-3.5,15.9-4.2-.9,6.8-31.1c.3-1.2.7-2.2,1.3-3,.6-.8,1.2-1.5,2-2,.8-.5,1.6-.8,2.5-1s1.8-.1,2.7,0ZM230.2,514.4l5.1,1.1,2.3-10.6c.2-1,.1-1.8-.3-2.4-.4-.6-.9-1-1.6-1.1-.7-.1-1.3,0-1.9.3-.6.4-1.1,1.1-1.3,2.1l-2.3,10.6Z"/>
    </g>
  </g>
  <g class="st3">
    <g class="st3">
      <path class="st4" d="M246,532.8c0,.5.4.9.8,1.2.4.3.9.5,1.4.6.6,0,1.3,0,1.9-.4.6-.4,1-1.1,1.1-2,0-.6.1-1,.2-1.4,0-.3,0-.6.1-.9,0-.2,0-.5,0-.6,0-.2,0-.4,0-.7l4.2.6c0,.3,0,.5,0,.7,0,.2,0,.4,0,.6,0,.2,0,.5,0,.9,0,.3-.1.8-.2,1.3-.2,1.3-.5,2.4-1,3.3-.5.9-1.1,1.6-1.8,2.1-.7.5-1.5.9-2.3,1.1-.8.2-1.7.2-2.7,0-.8-.1-1.5-.3-2.2-.6-.7-.3-1.3-.7-1.9-1.2-.6-.5-1-1-1.5-1.7-.4-.6-.7-1.4-.8-2.1l4.9-34.4,4.5.6-4.7,33Z"/>
    </g>
  </g>
  <g class="st3">
    <g class="st3">
      <path class="st4" d="M264.1,534.9c.1.5.4.8.9,1.1.4.3.9.5,1.5.5.6,0,1.2-.1,1.8-.6.6-.4.9-1.1,1-2.1,0-.6,0-1,0-1.4s0-.6,0-.9c0-.2,0-.5,0-.6,0-.2,0-.4,0-.7l4.2.3c0,.3,0,.5,0,.7,0,.2,0,.4,0,.6,0,.2,0,.5,0,.9s0,.8,0,1.3c0,1.3-.3,2.4-.8,3.3-.4.9-1,1.7-1.6,2.2-.7.6-1.4,1-2.2,1.2-.8.2-1.7.3-2.6.2-.8,0-1.5-.2-2.2-.5-.7-.3-1.4-.6-2-1.1-.6-.4-1.1-1-1.6-1.6-.5-.6-.8-1.3-.9-2.1l2.4-34.6,4.5.3-2.3,33.3Z"/>
    </g>
  </g>
  <g class="st3">
    <g class="st3">
      <path class="st4" d="M284.6,501.8c.9,0,1.8.2,2.6.5.8.3,1.6.8,2.2,1.5.6.6,1.1,1.4,1.5,2.4.4.9.6,2,.6,3.2l.2,31.8h-4.4s0-16.3,0-16.3h-5.2s0,16.3,0,16.3h-4.3s-.2-31.9-.2-31.9c0-1.2.2-2.3.6-3.2.4-.9.9-1.7,1.5-2.4.6-.6,1.4-1.1,2.2-1.5.8-.3,1.7-.5,2.6-.5ZM282,520.5h5.2s0-10.9,0-10.9c0-1-.3-1.8-.8-2.3-.5-.5-1.1-.7-1.8-.7-.7,0-1.3.3-1.8.8-.5.5-.8,1.3-.8,2.3v10.9Z"/>
    </g>
  </g>
  <g class="st3">
    <g class="st3">
      <path class="st4" d="M300.1,516.6l5.1-.4-1.2-14.8,4.5-.4,3.2,38.8-4.5.4-1.6-19.6-5.1.4,1.6,19.6-4.5.4-3.2-38.8,4.5-.4,1.2,14.8Z"/>
    </g>
  </g>
  <g class="st3">
    <g class="st3">
      <path class="st4" d="M333.9,501.3l-4.7.9,6.7,33.6-4.4.9-6.7-33.6-4.7.9-.9-4.6,13.8-2.8.9,4.6Z"/>
    </g>
  </g>
  <g class="st3">
    <g class="st3">
      <path class="st4" d="M340.4,494.2c.9-.2,1.8-.3,2.7-.2s1.7.4,2.5.8c.8.5,1.5,1.1,2.1,1.9.6.8,1.1,1.8,1.4,3l8.4,30.7-4.2,1.1-4.3-15.7-5,1.4,4.3,15.7-4.2,1.1-8.4-30.8c-.3-1.2-.4-2.3-.3-3.3.1-1,.4-1.9.9-2.7.5-.8,1-1.4,1.7-2s1.5-.9,2.4-1.2ZM342.8,512.9l5-1.4-2.9-10.5c-.3-1-.7-1.7-1.3-2-.6-.3-1.3-.4-1.9-.3-.6.2-1.2.6-1.6,1.2-.4.6-.5,1.4-.2,2.4l2.9,10.5Z"/>
    </g>
  </g>
  <g class="st3">
    <g class="st3">
      <path class="st4" d="M364.8,520.7c.6,1.7,1.8,2.3,3.4,1.7,1.6-.6,2-1.7,1.4-3.5l-3.7-10.4-2.9,1-1.5-4.2,6.9-2.4,5.2,14.5c.8,2.3,1,4.3.5,5.8-.5,1.6-1.9,2.7-4.2,3.6-2.4.8-4.3.8-5.8,0-1.5-.8-2.7-2.4-3.5-4.8l-8.5-23.9c-.8-2.2-.8-4,0-5.5.8-1.5,2.2-2.6,4.2-3.3,2-.7,3.7-.7,5.2,0,1.5.7,2.6,2.1,3.4,4.3.5,1.5.9,2.7,1.1,3.5l-4,1.4c-.2-.8-.5-2-1-3.3-.5-1.5-1.6-2-3.2-1.4-1.5.5-2,1.5-1.4,3l8.5,24Z"/>
    </g>
  </g>
  <g class="st3">
    <g class="st3">
      <path class="st4" d="M381.1,479.2c3-1.5,5.4-.4,7.2,3.1l4.9,10.1c1.9,3.8,1.2,6.5-2.1,8.1l-2.8,1.3,6.8,13.8-4.1,2-17.1-35,7.2-3.5ZM388.6,496.8c1.1-.5,1.3-1.3.8-2.5l-5-10.2c-.4-.8-1-1.1-1.8-.7l-2.7,1.3,6.4,13.2,2.2-1.1Z"/>
    </g>
  </g>
  <g class="st3">
    <g class="st3">
      <path class="st4" d="M410.8,507.5l-3.9,2.2-18.9-34,3.9-2.2,18.9,34Z"/>
    </g>
  </g>
  <g class="st3">
    <g class="st3">
      <path class="st4" d="M416.3,497.8c.4.3.8.4,1.4.4.5,0,1-.2,1.5-.5.5-.3.9-.9,1.1-1.5.2-.7,0-1.4-.5-2.3-.3-.5-.6-.9-.7-1.2-.2-.3-.4-.5-.5-.7-.1-.2-.3-.4-.4-.5-.1-.2-.3-.3-.4-.5l3.6-2.2c.2.2.3.4.4.5.1.2.2.3.4.5s.3.4.5.7c.2.3.4.7.7,1.1.7,1.1,1.2,2.2,1.4,3.1.2,1,.2,1.9,0,2.8s-.5,1.6-1.1,2.3-1.2,1.3-2,1.8c-.6.4-1.3.7-2.1.9-.7.2-1.5.3-2.2.3-.7,0-1.5-.1-2.2-.3-.7-.2-1.4-.6-2-1.1l-18.5-29.4,3.8-2.4,17.8,28.2Z"/>
    </g>
  </g>
  <g class="st3">
    <g class="st3">
      <path class="st4" d="M437.6,481.2c.7,1,1.2,2,1.5,3s.3,1.9.2,2.8c-.1.9-.4,1.7-.9,2.5-.5.8-1.1,1.4-1.8,1.9-.7.6-1.6.9-2.4,1.2-.9.2-1.8.3-2.7.1-.9-.1-1.8-.5-2.7-1-.9-.5-1.7-1.3-2.4-2.3l-14.6-19.9c-.7-1-1.2-2-1.5-3-.2-1-.3-1.9-.2-2.8.1-.9.4-1.7.9-2.5.5-.8,1.1-1.4,1.8-2,.7-.5,1.5-.9,2.4-1.1.9-.2,1.8-.3,2.6-.1.9.1,1.8.5,2.6,1s1.6,1.3,2.4,2.3l14.7,20ZM429.9,486.7c.6.9,1.3,1.3,2,1.4.7,0,1.3,0,1.9-.5.5-.4.8-.9,1-1.7.1-.7,0-1.5-.7-2.4l-14.5-19.7c-.6-.8-1.3-1.3-2-1.4-.7,0-1.4,0-1.9.5-.6.4-.9,1-1,1.7s.1,1.5.7,2.3l14.5,19.7Z"/>
    </g>
  </g>
  <g class="st3">
    <g class="st3">
      <path class="st4" d="M433.1,449.6l-3.7,3.1,22.1,26.2-3.4,2.9-22.1-26.2-3.6,3.1-3-3.6,10.7-9.1,3,3.6Z"/>
    </g>
  </g>
  <g class="st3">
    <g class="st3">
      <path class="st4" d="M444.6,452.9l7.5-4.1,10.1,10.5c1.7,1.8,2.7,3.5,2.8,5.2.2,1.6-.6,3.3-2.3,5-1.4,1.4-3,2-4.6,1.8s-3.3-1.2-5.1-3c-1.6-1.6-2.7-2.8-3.3-3.7l3-2.9c.7.8,1.8,2.1,3.4,3.7,1.3,1.4,2.5,1.5,3.5.5.9-.9.7-2-.6-3.3l-7.8-8.1-7.5,3.9-8.3-8.6c-1.6-1.7-2.4-3.3-2.3-5,0-1.7.8-3.2,2.1-4.4.6-.6,1.3-1.1,2.1-1.4.8-.3,1.6-.5,2.4-.5s1.6.2,2.5.6c.8.4,1.6,1,2.4,1.8,1.1,1.2,1.9,2.1,2.5,2.8l-3.1,3c-.5-.7-1.3-1.6-2.3-2.6-1.1-1.2-2.2-1.2-3.2-.3-.9.9-.9,1.9.2,3.1l5.9,6.1Z"/>
    </g>
  </g>
  <g>
    <path class="st2" d="M426.3,419.3c-.2,0-.4,0-.5-.1-.4-.3-.6-.8-.4-1.2,29.9-70.2,3.1-152.9-62.4-192.4-24-14.5-51.5-22.1-79.4-22.1-54.7,0-104.1,27.9-132.3,74.7-25.3,42-29,94.2-9.9,139.5.2.5,0,1-.4,1.2-.2.1-.4.1-.5.1-.3,0-.6-.1-.8-.4-25.9-30-41.6-66.9-45.3-106.6-3.8-40.5,5.3-80.4,26.4-115.3,17.2-28.6,41.6-52.2,70.7-68.2,28.1-15.6,60-23.8,92.2-23.8s68.2,9.4,97.8,27.2c43.5,26.2,74.1,67.7,86.4,116.9,12.2,49.2,4.6,100.3-21.6,143.7-5.5,9.1-11.9,18-19.1,26.3-.2.2-.5.4-.8.4h0Z"/>
    <path class="st4" d="M283.6,105.8c33.2,0,66.8,8.7,97.2,27.1,89.4,53.8,118.2,169.9,64.4,259.2-5.7,9.4-12.1,18.1-19,26.2,29.8-70.1,4.3-153.2-62.8-193.6-25-15.1-52.6-22.3-79.9-22.3-52.6,0-104,26.8-133.1,75.2-26.6,44.2-28.6,96.3-10,140.4-51.9-60.1-62-149-18.8-220.8,35.4-58.9,97.9-91.5,162-91.5M283.6,103.8h0c-32.4,0-64.4,8.3-92.7,23.9-29.2,16.1-53.7,39.8-71,68.6-21.2,35.1-30.3,75.2-26.5,115.9,1.8,19.6,6.6,38.7,14.3,56.9,7.8,18.4,18.2,35.3,31.2,50.3.4.5.9.7,1.5.7s.7-.1,1.1-.3c.8-.5,1.2-1.6.8-2.5-19-45-15.3-96.9,9.9-138.6,28-46.5,77.1-74.2,131.4-74.2s55,7.6,78.9,22c65.1,39.2,91.7,121.3,62,191.1-.4.9,0,2,.8,2.5.3.2.7.3,1.1.3.6,0,1.1-.2,1.5-.7,7.2-8.4,13.7-17.3,19.2-26.5,13.3-22.1,21.9-46.1,25.5-71.4,3.5-24.4,2.2-49-3.8-73.1-6-24.1-16.4-46.4-30.9-66.3-15-20.7-33.9-37.9-55.9-51.2-29.7-17.9-63.7-27.4-98.3-27.4h0Z"/>
  </g>
  <g>
    <g>
      <path class="st4" d="M274.6,462.2c-.2,0-.4,0-.6-.2l-134.8-97.4c-.3-.2-.4-.5-.4-.8v-42.7c0-.4.2-.7.5-.9.1,0,.3-.1.5-.1s.4,0,.5.1l30.1,18.2v-20.4l-41.8-29.5c-.3-.2-.4-.5-.4-.8v-36.3c0-.4.2-.7.6-.9.1,0,.3-.1.4-.1s.4,0,.6.2l40.7,30.2v-28.9l-57.8-35c-.3-.2-.5-.5-.5-.9v-36.9c0-.4.2-.7.5-.9.1,0,.3-.1.5-.1s.4,0,.6.2l80.7,57.4c.3.2.4.5.4.8v113.7l80.2,38.9c.3.2.6.5.6.9v71.2c0,.4-.2.7-.5.9-.1,0-.3.1-.5.1Z"/>
      <path class="st2" d="M113.1,179.2l80.7,57.4v114.3l80.7,39.1v71.2l-134.8-97.4v-42.7l31.6,19.1v-22.7l-42.3-29.8v-36.3l42.3,31.4v-31.4l-58.3-35.3v-36.9M113.1,177.2c-.3,0-.6,0-.9.2-.7.3-1.1,1-1.1,1.8v36.9c0,.7.4,1.4,1,1.7l57.3,34.7v26.3l-39.1-29.1c-.4-.3-.8-.4-1.2-.4s-.6,0-.9.2c-.7.3-1.1,1-1.1,1.8v36.3c0,.6.3,1.3.8,1.6l41.4,29.2v18.1l-28.6-17.3c-.3-.2-.7-.3-1-.3s-.7,0-1,.3c-.6.4-1,1-1,1.7v42.7c0,.6.3,1.2.8,1.6l134.8,97.4c.4.2.8.4,1.2.4s.6,0,.9-.2c.7-.3,1.1-1,1.1-1.8v-71.2c0-.8-.4-1.5-1.1-1.8l-79.6-38.6v-113.1c0-.6-.3-1.3-.8-1.6l-80.7-57.4c-.3-.2-.8-.4-1.2-.4h0Z"/>
    </g>
    <g>
      <path class="st4" d="M292.4,462.2c-.2,0-.3,0-.5-.1-.3-.2-.5-.5-.5-.9v-71.2c0-.4.2-.7.6-.9l80.2-38.9v-113.7c0-.3.2-.6.4-.8l80.7-57.4c.2-.1.4-.2.6-.2s.3,0,.5.1c.3.2.5.5.5.9v36.9c0,.4-.2.7-.5.9l-57.8,35v28.9l40.7-30.2c.2-.1.4-.2.6-.2s.3,0,.5.1c.3.2.5.5.5.9v36.3c0,.3-.2.6-.4.8l-41.8,29.5v20.4l30.1-18.2c.2-.1.3-.1.5-.1s.3,0,.5.1c.3.2.5.5.5.9v42.7c0,.3-.1.6-.4.8l-134.8,97.4c-.2.1-.4.2-.6.2h0Z"/>
      <path class="st2" d="M453.9,179.2v36.9l-58.3,35.3v31.4l42.3-31.4v36.3l-42.3,29.8v22.7l31.6-19.1v42.7l-134.8,97.4v-71.2l80.7-39.1v-114.3l80.7-57.4M453.9,177.2c-.4,0-.8.1-1.2.4l-80.7,57.4c-.5.4-.8,1-.8,1.6v113.1l-79.6,38.6c-.7.3-1.1,1-1.1,1.8v71.2c0,.8.4,1.4,1.1,1.8.3.1.6.2.9.2s.8-.1,1.2-.4l134.8-97.4c.5-.4.8-1,.8-1.6v-42.7c0-.7-.4-1.4-1-1.7-.3-.2-.6-.3-1-.3s-.7.1-1,.3l-28.5,17.3v-18.1l41.4-29.2c.5-.4.9-1,.9-1.6v-36.3c0-.8-.4-1.4-1.1-1.8-.3-.1-.6-.2-.9-.2s-.8.1-1.2.4l-39.1,29v-26.3l57.3-34.7c.6-.4,1-1,1-1.7v-36.9c0-.8-.4-1.4-1.1-1.8-.3-.1-.6-.2-.9-.2h0Z"/>
    </g>
    <polygon class="st5" points="280.4 380.7 209.2 346.9 209.2 243.3 280.4 212.1 280.4 380.7"/>
    <polygon class="st5" points="285.7 380.7 356.9 346.9 356.9 243.3 285.7 212.1 285.7 380.7"/>
  </g>
</svg>