<?xml version="1.0" encoding="UTF-8"?>
<svg id="uuid-2013ccc3-3494-4b83-a43e-6822b66ca246" xmlns="http://www.w3.org/2000/svg" version="1.1" viewBox="0 0 552.8 552.8">
  <!-- Generator: Adobe Illustrator 29.0.1, SVG Export Plug-In . SVG Version: 2.1.0 Build 192)  -->
  <defs>
    <style>
      .st0 {
        fill: #f18700;
      }

      .st1 {
        fill: #f6f6f6;
      }

      .st2 {
        isolation: isolate;
      }

      .st3 {
        fill: #009fe4;
      }
    </style>
  </defs>
  <g>
    <path class="st1" d="M277,550.7c-73.2,0-141.9-28.5-193.7-80.2S3.1,349.9,3.1,276.8,31.6,134.8,83.3,83.1C135.1,31.4,203.8,2.9,277,2.9s141.9,28.5,193.7,80.2c51.7,51.7,80.2,120.5,80.2,193.7s-28.5,141.9-80.2,193.7-120.5,80.2-193.7,80.2Z"/>
    <path class="st3" d="M276.4,5c36.6,0,72.2,7.2,105.6,21.3,32.3,13.7,61.3,33.2,86.3,58.2,24.9,24.9,44.5,53.9,58.2,86.3,14.2,33.4,21.3,69,21.3,105.6s-7.2,72.2-21.3,105.6c-13.7,32.3-33.2,61.3-58.2,86.3s-53.9,44.5-86.3,58.2c-33.4,14.2-69,21.3-105.6,21.3s-72.2-7.2-105.6-21.3c-32.3-13.7-61.3-33.2-86.3-58.2s-44.5-54-58.2-86.3c-14.2-33.5-21.3-69-21.3-105.6s7.2-72.2,21.3-105.6c13.7-32.3,33.2-61.3,58.2-86.3s53.9-44.5,86.3-58.2c33.4-14.1,69-21.3,105.6-21.3M276.4,0C123.7,0,0,123.7,0,276.4s123.7,276.4,276.4,276.4,276.4-123.7,276.4-276.4S429,0,276.4,0h0Z"/>
  </g>
  <g>
    <path class="st3" d="M17.7,276.4c0,69.1,26.9,134.1,75.8,182.9,44.2,44.2,101.7,70.5,163.5,75.1v-33.5c-112.4-9.7-201.5-102.2-205.7-216.1h61.1c4,80.2,65.9,145.5,144.6,154.8v-16.8c-69.5-9.2-123.9-67-127.9-138-.2-2.8-.2-5.5-.2-8.3s0-5.6.2-8.3c4-71,58.4-128.8,127.9-138v-16.8c-78.7,9.3-140.6,74.6-144.6,154.8h-61.1c4.2-113.9,93.3-206.5,205.7-216.1V18.4c-61.8,4.6-119.2,30.8-163.5,75.1-48.9,48.9-75.8,113.8-75.8,182.9h0Z"/>
    <path class="st3" d="M459.3,93.5c-44.2-44.2-101.7-70.5-163.5-75.1v33.5c112.4,9.7,201.5,102.2,205.7,216.1h-61.1c-4-80.2-65.9-145.5-144.6-154.8v16.8c69.5,9.2,123.9,66.9,127.9,138,.2,2.8.2,5.5.2,8.3s0,5.6-.2,8.3c-4,71-58.4,128.8-127.9,138v16.8c78.7-9.3,140.6-74.6,144.6-154.8h61.1c-4.2,113.9-93.3,206.5-205.7,216.1v33.5c61.8-4.6,119.2-30.8,163.5-75s75.8-113.8,75.8-182.9-26.9-134.1-75.8-182.9h0Z"/>
  </g>
  <g class="st2">
    <g class="st2">
      <path class="st0" d="M116.1,195.5l-2,5-8.4-.7-5.2,12.8,6.5,5.3-2,5-30.6-24.6,2.6-6.5,39.1,3.6ZM96.1,209.1l3.9-9.8-19.4-2.2,15.5,11.9Z"/>
    </g>
  </g>
  <g class="st2">
    <g class="st2">
      <path class="st0" d="M111.6,185c2.3,1.4,4.2.9,5.5-1.4l6.2-10.4,4.6,2.7-6.2,10.4c-3.2,5.4-7.5,6.5-12.9,3.3l-16.2-9.6c-5.4-3.2-6.5-7.5-3.3-12.9l6.2-10.4,4.6,2.7-6.2,10.4c-1.4,2.3-.9,4.1,1.4,5.5l16.2,9.6Z"/>
    </g>
  </g>
  <g class="st2">
    <g class="st2">
      <path class="st0" d="M116.3,130.1l4.2,3.4-5.9,7.3,25,20.4-3.4,4.2-25-20.4-5.9,7.3-4.2-3.4,15.3-18.7Z"/>
    </g>
  </g>
  <g class="st2">
    <g class="st2">
      <path class="st0" d="M126.2,120.5l26.4,26.8-3.8,3.8-26.4-26.8,3.8-3.8Z"/>
    </g>
  </g>
  <g class="st2">
    <g class="st2">
      <path class="st0" d="M148.9,101.1l4.2-3.3,14.6,36.4-5.5,4.4-32.2-22.4,4.2-3.3,27.4,19.4-12.7-31.1Z"/>
    </g>
  </g>
  <g class="st2">
    <g class="st2">
      <path class="st0" d="M185.7,97.3l2.7,4.7-14,8.1,5.4,9.3,14-8.1,2.7,4.7-18.6,10.7-18.8-32.6,18.6-10.7,2.7,4.7-14,8.1,5.4,9.3,14-8.1Z"/>
    </g>
  </g>
  <g class="st2">
    <g class="st2">
      <path class="st0" d="M216.4,90.8l-6.8,2.2,5,15.3-5.1,1.7-11.7-35.7,14-4.6c6-1.9,9.9,0,11.9,6l.8,2.6c1.8,5.4.7,9-3.1,10.8l11,13.5-5.1,1.7-10.9-13.4ZM204.5,77.7l3.3,10.2,8.9-2.9c2.6-.8,3.4-2.5,2.6-5.1l-.8-2.6c-.8-2.6-2.5-3.4-5.1-2.6l-8.9,2.9Z"/>
    </g>
  </g>
  <g class="st2">
    <g class="st2">
      <path class="st0" d="M254,76.9l.9,5.3-15.9,2.6,1.8,10.6,15.9-2.6.9,5.3-21.2,3.5-6.2-37.1,21.2-3.5.9,5.3-15.9,2.6,1.8,10.6,15.9-2.6Z"/>
    </g>
  </g>
  <g class="st2">
    <g class="st2">
      <path class="st0" d="M266.8,88.2c0,2.7,1.4,4,4.1,3.9l12.1-.3v5.4c.1,0-12,.3-12,.3-6.3.1-9.5-2.9-9.6-9.2l-.4-18.8c-.1-6.3,2.9-9.5,9.2-9.6l12.1-.3v5.4c.1,0-12,.3-12,.3-2.7,0-4,1.4-3.9,4.1l.4,18.8Z"/>
    </g>
  </g>
  <g class="st2">
    <g class="st2">
      <path class="st0" d="M313.6,91.3c-.8,6.2-4.3,8.9-10.5,8.1l-6.7-.9c-6.2-.8-8.9-4.3-8.1-10.5l2.4-18.6c.8-6.2,4.3-8.9,10.5-8.1l6.7.9c6.2.8,8.9,4.3,8.1,10.5l-2.4,18.6ZM293.6,88.7c-.3,2.7.8,4.2,3.5,4.5l6.7.9c2.7.3,4.2-.8,4.5-3.5l2.4-18.6c.3-2.7-.8-4.2-3.5-4.5l-6.7-.9c-2.7-.3-4.2.8-4.5,3.5l-2.4,18.6Z"/>
    </g>
  </g>
  <g class="st2">
    <g class="st2">
      <path class="st0" d="M332.4,67.1l7.5,30.4,7.9-25.7,5.1,1.6-11,35.9-5.1-1.6-7.5-30.4-7.9,25.7-5.1-1.6,11-35.9,5.1,1.6Z"/>
    </g>
  </g>
  <g class="st2">
    <g class="st2">
      <path class="st0" d="M364.1,109.6c-1.3,2.3-.8,4.2,1.5,5.5l4.7,2.7c2.3,1.3,4.2.8,5.5-1.5l3.3-5.8-7-4,2.7-4.7,11.6,6.7-6,10.5c-3.1,5.4-7.4,6.6-12.8,3.5l-4.7-2.7c-5.4-3.1-6.6-7.4-3.5-12.8l9.4-16.3c3.1-5.4,7.4-6.6,12.8-3.5l12.8,7.3-2.7,4.7-12.8-7.3c-2.3-1.3-4.2-.8-5.5,1.5l-9.4,16.3Z"/>
    </g>
  </g>
  <g class="st2">
    <g class="st2">
      <path class="st0" d="M398.9,124.7l-5.6-4.5-10.1,12.6-4.2-3.4,23.6-29.3,11.5,9.3c4.9,3.9,5.4,8.3,1.4,13.2l-1.7,2.1c-3.5,4.4-7.1,5.5-10.7,3.3l-5.3,16.6-4.2-3.4,5.3-16.5ZM403.4,107.6l-6.7,8.4,7.3,5.9c2.1,1.7,4,1.5,5.7-.6l1.7-2.1c1.7-2.1,1.5-4-.6-5.7l-7.3-5.9Z"/>
    </g>
  </g>
  <g class="st2">
    <g class="st2">
      <path class="st0" d="M424.8,159.8c-4.7,4.2-9.1,4-13.3-.7l-4.5-5c-4.2-4.7-4-9.1.7-13.3l14-12.6c4.7-4.2,9.1-4,13.3.7l4.5,5c4.2,4.7,4,9.1-.7,13.3l-14,12.6ZM411.3,144.9c-2,1.8-2.1,3.7-.3,5.7l4.5,5c1.8,2,3.7,2.1,5.7.3l14-12.6c2-1.8,2.1-3.7.3-5.7l-4.5-5c-1.8-2-3.7-2.1-5.7-.3l-14,12.6Z"/>
    </g>
  </g>
  <g class="st2">
    <g class="st2">
      <path class="st0" d="M465.6,170.5l-23.7,15.2c-5.3,3.4-9.6,2.4-13-2.8l-3.6-5.7c-3.4-5.3-2.4-9.6,2.8-13l23.7-15.2,2.9,4.5-23.7,15.2c-2.3,1.4-2.7,3.3-1.2,5.6l3.6,5.7c1.4,2.3,3.3,2.7,5.6,1.2l23.7-15.2,2.9,4.5Z"/>
    </g>
  </g>
  <g class="st2">
    <g class="st2">
      <path class="st0" d="M452.7,192.7l-14.8,6.4-2.1-4.9,34.5-15,5.9,13.6c2.5,5.7.9,9.9-4.9,12.4l-2.5,1.1c-5.8,2.5-9.9.9-12.4-4.9l-3.7-8.6ZM467.5,186.3l-9.9,4.3,3.7,8.6c1.1,2.5,2.8,3.2,5.3,2.1l2.5-1.1c2.5-1.1,3.2-2.8,2.1-5.3l-3.7-8.6Z"/>
    </g>
  </g>
  <g class="st2">
    <g class="st2">
      <path class="st0" d="M128.5,430.4l3.5-4.1,11.2,9.6c2,1.7,3.9,1.6,5.7-.4l1.7-2c1.7-2,1.6-3.9-.4-5.7l-4.1-3.5c-4.8-4.1-5.1-8.5-1-13.3l1.7-2c4.1-4.8,8.5-5.1,13.3-1l11.2,9.6-3.5,4.1-11.2-9.6c-2-1.7-3.9-1.6-5.7.4l-1.7,2c-1.7,2-1.6,3.9.4,5.7l4.1,3.5c4.8,4.1,5.1,8.5,1,13.3l-1.7,2c-4.1,4.8-8.5,5.1-13.3,1l-11.2-9.6Z"/>
    </g>
  </g>
  <g class="st2">
    <g class="st2">
      <path class="st0" d="M163.6,446.3c-1.4,2.3-1,4.1,1.3,5.6l10.2,6.4-2.9,4.5-10.2-6.4c-5.3-3.3-6.3-7.7-3-13l10-15.9c3.3-5.3,7.6-6.3,13-3l10.2,6.4-2.9,4.5-10.2-6.4c-2.3-1.4-4.1-1-5.6,1.3l-10,15.9Z"/>
    </g>
  </g>
  <g class="st2">
    <g class="st2">
      <path class="st0" d="M204.7,477.7l-4.9-2.1.9-8.4-12.7-5.5-5.5,6.4-4.9-2.1,25.4-30,6.4,2.8-4.7,39ZM191.7,457.4l9.7,4.2,2.7-19.3-12.3,15.1Z"/>
    </g>
  </g>
  <g class="st2">
    <g class="st2">
      <path class="st0" d="M227.1,467.2l-7-1.8-4,15.6-5.2-1.3,9.4-36.4,14.3,3.7c6.1,1.6,8.3,5.4,6.7,11.5l-.7,2.6c-1.4,5.5-4.2,7.9-8.4,7.4l2,17.3-5.2-1.3-2-17.2ZM224.2,449.8l-2.7,10.4,9.1,2.4c2.6.7,4.2-.3,4.9-2.9l.7-2.6c.7-2.6-.3-4.2-2.9-4.9l-9.1-2.4Z"/>
    </g>
  </g>
  <g class="st2">
    <g class="st2">
      <path class="st0" d="M266.7,468.1l-.6,5.3-16-1.7-1.1,10.7,16,1.7-.6,5.3-21.4-2.3,4-37.4,21.4,2.3-.6,5.3-16-1.7-1.1,10.7,16,1.7Z"/>
    </g>
  </g>
  <g class="st2">
    <g class="st2">
      <path class="st0" d="M277.9,480.2c0,2.7,1.5,4,4.2,3.9l12.1-.4.2,5.4-12.1.4c-6.3.2-9.5-2.8-9.7-9.1l-.6-18.8c-.2-6.3,2.8-9.5,9.1-9.7l12.1-.4.2,5.4-12.1.4c-2.7,0-4,1.5-3.9,4.2l.6,18.8Z"/>
    </g>
  </g>
  <g class="st2">
    <g class="st2">
      <path class="st0" d="M312.6,470.1l-7.1,1.3,2.9,15.8-5.3,1-6.8-37,14.5-2.7c6.2-1.1,9.8,1.4,10.9,7.5l.5,2.6c1,5.5-.5,9-4.5,10.3l9.1,14.8-5.3,1-9-14.7ZM302.7,455.6l1.9,10.6,9.2-1.7c2.6-.5,3.7-2,3.2-4.7l-.5-2.6c-.5-2.6-2-3.7-4.7-3.2l-9.2,1.7Z"/>
    </g>
  </g>
  <g class="st2">
    <g class="st2">
      <path class="st0" d="M356.7,464.1c2.1,5.9.2,9.9-5.7,12l-6.3,2.3c-5.9,2.1-9.9.2-12-5.7l-6.3-17.7c-2.1-5.9-.2-9.9,5.7-12l6.3-2.3c5.9-2.1,9.9-.2,12,5.7l6.3,17.7ZM337.8,470.9c.9,2.5,2.6,3.3,5.1,2.4l6.3-2.3c2.5-.9,3.3-2.6,2.4-5.1l-6.3-17.7c-.9-2.5-2.6-3.3-5.1-2.4l-6.3,2.3c-2.5.9-3.3,2.6-2.4,5.1l6.3,17.7Z"/>
    </g>
  </g>
  <g class="st2">
    <g class="st2">
      <path class="st0" d="M395.2,453.8l-6,3.5-19.8-22.1,9.6,28-6,3.5-25.3-28.8,4.6-2.7,19.6,22.8-9.2-28.9,4.6-2.7,20.7,22.1-10.3-28.2,4.6-2.7,12.8,36.1Z"/>
    </g>
  </g>
  <g class="st2">
    <g class="st2">
      <path class="st0" d="M406.7,445.5l-3.5-4.1,11.2-9.7c2-1.8,2.2-3.7.4-5.7l-1.8-2c-1.8-2-3.7-2.2-5.7-.4l-4.1,3.5c-4.7,4.1-9.2,3.8-13.3-1l-1.8-2c-4.1-4.7-3.8-9.2,1-13.3l11.2-9.7,3.5,4.1-11.2,9.7c-2,1.8-2.2,3.7-.4,5.7l1.8,2c1.8,2,3.7,2.2,5.7.4l4.1-3.5c4.7-4.1,9.2-3.8,13.3,1l1.8,2c4.1,4.7,3.8,9.2-1,13.3l-11.2,9.7Z"/>
    </g>
  </g>
  <path class="st0" d="M414.9,253.4l-60.7-60.7v91.1s-10.1,51.9-54.6,60.7c-.4,1.3-7-19.8-7-19.8,0,0,.9-23.8,17.6-24.2.4,0-33.8-155.3-33.8-155.3,0,0-34.2,155.3-33.8,155.3,16.7.4,17.6,24.2,17.6,24.2,0,0-6.6,21.1-7,19.8-44.4-8.8-54.6-60.7-54.6-60.7v-91.1l-60.7,60.7,26.8-4-.4,89.8,112.1,82.7,112.1-82.7-.4-89.8,26.8,4h0Z"/>
</svg>