<svg id="Capa_1" data-name="Capa 1" xmlns="http://www.w3.org/2000/svg" viewBox="0 0 566.93 566.93"><defs><style>.cls-1{fill:#1e1717;}.cls-2{fill:#fefdfd;}.cls-3{fill:#cf3123;}</style></defs><title>Scarface</title><circle class="cls-1" cx="283.46" cy="283.46" r="279.21"/><circle class="cls-2" cx="283.46" cy="283.46" r="272.65"/><circle class="cls-3" cx="283.46" cy="283.46" r="230.33"/><polygon class="cls-2" points="517.67 208.58 360.25 176.77 283.46 38.88 206.68 176.77 49.26 208.58 160.42 321.84 140.49 477.76 283.46 412.21 426.44 477.76 406.51 321.84 517.67 208.58"/><path class="cls-1" d="M389.32,326.68c13.35-28.82,21.54-59.35,33.21-88.78-18.66-10.53-36.75-20.79-54.89-31-13.09-7.34-25.52-17.38-39.6-21s-30,.22-45-1.22c-30.16-2.89-57.62,2.74-81.93,21.41a25,25,0,0,1-3.18,1.74L144.4,238c13.45,30.63,19.7,63.56,36.82,93.29-.46,1.14-1.34,3.36-2.22,5.56,3.21,8.19,8.16,15.56,9.94,24.34l20.87,8.34c2.56,10,5,19.62,7.48,29.24l18.6,9.1,12.22-33.65c24.18-.44,47.46-.7,71,.15L331.38,408,350,398.6c2.52-9.91,4.9-19.29,7.24-28.51,6.84-4.48,15.26-5.08,22.67-10.73l-36.61-29.51-20.4,8.65-22.47-15.16,29.2-17.49-20.7-75.55,40.58,63.81L373,280.34v37.39C377.77,320.37,382.14,324.24,389.32,326.68Zm-145.23,11.9-49.58-21.74V280.5l72.37,42.79Z"/></svg>