<svg enable-background="new 0 0 113.3 113.4" viewBox="0 0 113.3 113.4" xmlns="http://www.w3.org/2000/svg"><path d="m0 56.7c0-31.4 25.4-56.7 56.8-56.7 31.3 0 56.7 25.5 56.5 57-.1 31.3-25.6 56.6-57 56.4-31.2-.2-56.3-25.5-56.3-56.7zm56.5-53.3c-29.5 0-53.4 24.1-53.4 53.5s24 53.4 53.4 53.4c29.5 0 53.5-24 53.5-53.5s-24.1-53.5-53.5-53.4z" fill="#050503"/><path d="m56.5 3.4c29.5-.1 53.5 23.9 53.5 53.4s-24 53.5-53.5 53.5c-29.4 0-53.4-24-53.4-53.4 0-29.5 23.9-53.6 53.4-53.5zm-21.9 23.6c-8.3 6.5-13.2 14.8-14.6 25.1-1.2 8.6 2 21.6 6.1 25-.6-3-.9-5.9-.3-9.1 6 13.6 16.1 21.3 31 21.1 14.9-.1 24.8-8 30.6-21.6.8 3.1.4 6.2 0 9.3 10.8-15.1 7.2-38.5-8.7-49.7 0 1.7 0 3.3-1 4.9-2.3-1.9-4.8-3.5-7.4-4.7-2.7-1.3-5.5-2.1-8.3-2.7 0-.7.4-1.3.1-2-.7.5-.9 1.3-1.5 1.8-2.6-.2-5.2-.2-7.8 0-.7-.5-.8-1.4-1.6-1.7-.2.7.2 1.3.1 1.9-2.9.5-5.7 1.4-8.4 2.6s-5.1 2.8-7.5 4.7c-.7-1.5-.8-3-.8-4.9zm33.6 76.4c-.5-2.7-1-5.3-1.5-8.1-1.8.3-3.5.6-5.2.9.1.6.2 1.2.3 1.8.3 1.5.5 3 .3 4.6-.1.9-.1 1.9-1.2 2.4.3 1 .3 2.1.8 3.1.4 0 .7 0 .9-.4-.1-.7-.3-1.3-.1-2 1.8-.3 3.6-.7 5.5-1 .2.8.4 1.5.5 2.1.4 0 .7 0 1-.4-.1-.9-.3-1.9-.4-2.9-.4 0-.6-.1-.9-.1zm-18.5 2.2c.7-3.1 1.3-6.1 2-9.1-.5-.3-.9-.4-1.4-.2-1.6 1.6-3.1 3.3-4.7 4.9-.3.3-.5.7-1 .4.6-2.1 1-4.2 1.4-6.4-.4-.2-.7-.4-1.2-.2-.6 3-1.3 6-1.9 9.1.5.1 1 .3 1.4.3 1.9-2 3.9-3.9 5.8-5.9-.5 2.3-1 4.5-1.5 6.8.3.1.6.2 1.1.3zm-6.4-86.1c1.7-.5 3.3-.9 4.8-1.3.5.6.4 1.4.9 1.8.3-.1.5-.1.7-.4-.1-.8-.4-1.7-.6-2.5-.3-.2-.6 0-.8-.3-.6-2.3-1.3-4.6-2-7-1.6.4-3.1.8-4.6 1.3 1.3 5.1 1.3 5.1.8 7.4-.2.1-.4.3-.6.4.3.9.5 1.8.8 2.8.3-.1.7-.1.9-.4 0-.6-.1-1.1-.3-1.8zm24.5 75.6c1.2 2.9 2.3 5.8 3.4 8.7.5-.2.9-.1 1.2-.6-.5-1.2-1-2.5-1.5-3.8 1.4-.6 2.6-1.2 4.1-1.6.5 1.3 1.1 2.6 1.6 3.9.5 0 .9-.2 1.2-.5-1.1-2.9-2.3-5.7-3.4-8.6-.6.1-.9.2-1.2.5.5 1.2.9 2.4 1.4 3.6-1.4.6-2.7 1.1-4.1 1.6-.5-1.3-1-2.4-1.5-3.5-.4-.1-.7.1-1.2.3zm15-.2c.9.7 1.7 1.3 2.4 1.8.5-.2.8-.3 1-.8-2.6-2-5.1-4-7.6-6-.5.3-1 .4-1.3 1 .8 3.1 1.6 6.3 2.4 9.5.4-.2.8-.4 1-.7.1-1-.6-1.9-.5-3 .8-.6 1.7-1.2 2.6-1.8zm-50.6 4.5c.4.3.7.6 1.2.7.8-3.2 1.6-6.4 2.4-9.6-.5-.3-.8-.6-1.4-.7-2.5 2-5.1 4-7.6 6.1.4.4.7.6 1.1.8.8-.6 1.6-1.2 2.4-1.9 1 .6 1.9 1.1 2.7 1.8-.3.9-.6 1.8-.8 2.8zm27.4 6.4c-1-3.1-2-6.2-3-9.3-.6 0-1.1-.1-1.6.1-1.1 3-2.2 6.1-3.3 9.3.5 0 1 .2 1.4-.1.4-.9.6-1.9 1.1-2.8 1 .1 2.1-.1 3.1.1.3 1 .6 1.9.9 2.8.5.1.9.1 1.4-.1zm-1.2-92.8c0-.1 0-.4 0-.7-.2-1.9-1.4-3.3-3.3-3.5-1.7-.3-3.5.8-4.1 2.5-.4 1.1-.5 2.3-.2 3.4.5 1.8 1.8 2.8 3.6 2.9 1.9 0 3.2-.9 3.8-2.8.2-.6.3-1.1.2-1.8zm3.6-3.7c-.5 2.9-1.1 5.6-1.6 8.4.4.1.8.3 1.2.1.6-2.4.8-4.8 1.5-7.2 1.3.3 2.5.3 3.6.8-.4 2.5-1 4.8-1.3 7.2.4.2.7.3 1.1.1.5-2.7 1-5.4 1.6-8.2-2.1-.5-4-.8-6.1-1.2zm-24.1 88.9c.9.3 1.7.7 2.6.7 1.5 0 2.4-.7 2.8-2.1.4-1.2 0-2.3-1.2-3.1-1-.6-2.1-1-3.3-1.2-1.2 2.9-2.4 5.7-3.6 8.6.5.1.8.4 1.2.3.6-.9.8-2.1 1.5-3.2zm-8.3-70.3c1-.9 1-2 .5-3.1-.4-.9-1-1.7-1.6-2.5-.5-.7-1.1-1.2-1.4-2 .7-.5 1.3-1.1 2.1-1.5 1.5 1.9 3 3.9 4.5 5.7.5-.1.7-.3.9-.8-1.7-2.2-3.4-4.3-5.1-6.6-1.4 1.1-2.7 2.1-4 3.1 1.1 1.5 2.1 2.8 3.1 4.2.6.9 1 1.8.3 2.9.2.3.3.5.7.6zm42.5-16.2c-1.1 2.6-2.2 5.1-3.3 7.7.7.3 1.3.7 1.9.9.4.1.7.2 1.1.3 1.5.3 2.6-.3 3.1-1.6s.1-2.5-1.2-3.3c-.5-.3-1.1-.6-1.6-.8.4-.9.7-1.8 1.1-2.7-.3-.3-.5-.5-1.1-.5zm-35.4 11c1.5-.8 2.9-1.5 4.3-2.2-.3-.3-.2-.6-.7-.8-1 .5-2 1-3 1.5-.4-.9-.8-1.7-1.3-2.5.9-.7 1.9-.9 2.7-1.6 0-.3-.1-.6-.5-.8-.9.4-1.8.9-2.7 1.3-.6-.6-.9-1.4-1.2-2.2 1-.5 1.9-1 2.9-1.5 0-.4-.1-.7-.5-.9-1.3.7-2.6 1.3-4 2 1.4 2.6 2.6 5.1 4 7.7zm46.9 4.8c.7.9 1.3 1.8 2.2 2.3.7.5 1.5.8 2.4.5 1.7-.6 2.4-2.2 1.6-3.8-.3-.7-.9-1.1-1.3-1.7.7-.8 1.6-1.3 2.1-2.1-.3-.3-.4-.6-.8-.7-2.1 1.8-4.1 3.6-6.2 5.5zm-56.2.9c-.8 1.6-1.7 2.9-3.6 2.7-1.6-.2-2.7-1.1-3.2-2.6-.6-1.9.6-3.1 2-4.1-.1-.3-.3-.6-.5-.7-2.1 1.3-3.1 3.3-2.5 5.3.6 1.8 2.5 3.4 4.3 3.4 1.9 0 3.6-1.5 4.2-3.6-.2-.1-.4-.2-.7-.4zm51.9-4c .4.4.6.7 1 .6 1.4-2 2.8-4 4.2-6 .8.5 1.4 1 2.1 1.4.2-.3.4-.5.5-.9-1.6-1.1-3.3-2.3-5-3.4-.4.2-.5.4-.6.8.6.5 1.3 1 2 1.5-1.5 2-2.8 4-4.2 6zm-1.4-10.3c-1.1 2.6-2.2 5.1-3.2 7.7.4.2.7.5 1.2.3 1.1-2.5 2.1-5 3.2-7.5-.4-.4-.7-.5-1.2-.5zm16 12.5c-2 1.9-4.1 3.7-6.1 5.6.3.4.5.7.9.8 2-1.9 4.1-3.7 6.1-5.6-.2-.4-.5-.6-.9-.8zm-67.8 50.6c-.1-.1-.1 0-.2 0 .1.1.2.1.2 0 0 .1 0 .1 0 0zm61.1.1c.1.1.1.1.2 0-.1-.1-.1-.1-.2 0z" fill="#fcd701"/><path d="m34.6 27c0 1.8 0 3.4.9 4.9 2.3-1.8 4.8-3.4 7.5-4.7 2.7-1.2 5.4-2 8.4-2.6.1-.7-.3-1.2-.1-1.9.7.4.9 1.2 1.6 1.7 2.5-.1 5.2-.2 7.8 0 .7-.5.8-1.3 1.5-1.8.3.7-.1 1.3-.1 2 2.9.6 5.7 1.4 8.3 2.7s5.1 2.8 7.4 4.7c.9-1.5 1-3.2 1-4.9 16 11.3 19.5 34.6 8.7 49.7.4-3.1.8-6.2 0-9.3-5.8 13.5-15.7 21.4-30.6 21.6-14.9.1-24.9-7.6-31-21.1-.6 3.2-.3 6 .3 9.1-4.1-3.4-7.2-16.3-6.1-25 1.3-10.3 6.2-18.6 14.5-25.1zm22.9 60.4c13.9 0 26.1-10.7 28.8-23.2-.8-2.4-4.4-3.2-6.4-1.9-3.4 11.1-10.8 17.3-22.4 18.5zm-24.4-25.3c-1.3-.6-2.6-.6-4 0-1.8.7-2.5 2.2-2 3.9 1.3 4 3.2 7.6 5.9 10.7 4.3 4.9 9.5 8.3 15.8 9.9 2.2.5 4.4.9 6.6.8 0-2.3 0-4.5 0-6.7-11.5-1.1-18.8-7.3-22.3-18.6zm22.6 17.2c-.2-3.1-1.7-5.7-2.5-8.3-6.5-2-10.2-6.2-11.1-12.8-3.5.2-5.3 2.6-7.1 5.2 3.3 11 13 15.7 20.7 15.9zm1.6 0c8.2-.1 18-5.6 20.8-16.2-1.7-2.6-3.7-4.8-7.1-4.9-.9 6.6-4.6 10.7-10.8 12.7-1 2.7-2.2 5.4-2.9 8.4zm-20.6-46c0 .3.1.4.2.5 1.9 1.8 4.2 2.4 6.7 2.6.2 0 .4 0 .6-.1 1.9-1.1 3.9-1.9 5.8-2.5 1.2-2.1 1.8-5.1 1.4-7.2-5.6.8-10.4 3.1-14.7 6.7zm26.6.6c1.9.6 3.7 1.4 5.4 2.4.4.2.8.2 1.2.2.6-.1 1.2-.1 1.7-.3 1.9-.4 3.6-1.1 5-2.6-4-3.8-11.4-7-14.8-6.9 0 2.5.1 4.9 1.5 7.2zm-19.7 24.6c.6 5 5 10.2 8.6 10.4-.9-2.6-3.4-6.6-5.4-8.4-.9-.8-1.9-1.6-3.2-2zm17.4 10.5c5.1-1.5 8.6-7.3 8.3-10.4-4.3 2.2-6.2 6.2-8.3 10.4zm-3.5-39.9c.7-1.1 1.3-1.9 2-2.9-.7-.1-1.3-.1-2-.2zm-1.9-.4c.2-1 .2-1.7 0-2.6-.6 0-1.1 0-1.6.2.5.8 1 1.5 1.6 2.4z" fill="#010102"/><path d="m68.2 103.4c.3 0 .5.1.8.1.1 1 .3 1.9.4 2.9-.2.4-.5.5-1 .4-.2-.6-.3-1.3-.5-2.1-1.8.3-3.7.7-5.5 1-.2.7.1 1.4.1 2-.2.4-.5.3-.9.4-.5-1-.4-2.1-.8-3.1 1.1-.5 1.1-1.5 1.2-2.4.2-1.5 0-3.1-.3-4.6-.1-.6-.2-1.1-.3-1.8 1.7-.3 3.4-.6 5.2-.9.6 2.8 1.1 5.4 1.6 8.1zm-5.2 1.1c1.4-.3 2.6-.5 3.9-.7-.4-2.4-.9-4.7-1.3-7.1-1 .2-1.8.2-2.7.6.5 2.3.9 4.6.1 7.2z" fill="#0a0800"/><path d="m49.7 105.6c-.5-.1-.8-.2-1.2-.3.5-2.3 1-4.6 1.5-6.8-1.9 2-3.9 3.9-5.8 5.9-.5 0-.9-.2-1.4-.3.7-3.1 1.3-6.1 1.9-9.1.5-.2.8 0 1.2.2-.4 2.1-.8 4.2-1.4 6.4.5.3.8-.1 1-.4 1.6-1.6 3.2-3.3 4.7-4.9.5-.2 1-.1 1.4.2-.6 2.9-1.2 5.9-1.9 9.1z" fill="#0c0a00"/><path d="m43.3 19.5c.2.7.3 1.3.4 1.8-.2.3-.5.3-.9.4-.3-.9-.6-1.9-.8-2.8.2-.2.4-.3.6-.4.5-2.3.5-2.3-.8-7.4 1.5-.5 3-.9 4.6-1.3.7 2.4 1.3 4.7 2 7 .2.3.5.1.8.3.2.8.5 1.7.6 2.5-.2.3-.4.4-.7.4-.5-.5-.4-1.3-.9-1.8-1.6.3-3.2.8-4.9 1.3zm3.9-2.2c-.6-2.1-1.2-4.1-1.7-6.2-.9.2-1.6.3-2.4.7.7 2.1 1.1 4.1.8 6.4 1.2-.3 2.2-.6 3.3-.9z" fill="#fcd701"/><path d="m67.8 95.1c.4-.3.8-.5 1.2-.5.5 1.1.9 2.3 1.5 3.5 1.3-.5 2.6-1 4.1-1.6-.5-1.2-.9-2.3-1.4-3.6.3-.2.7-.4 1.2-.5 1.1 2.8 2.3 5.7 3.4 8.6-.3.4-.7.5-1.2.5-.5-1.3-1.1-2.6-1.6-3.9-1.4.4-2.7 1-4.1 1.6.5 1.3 1 2.6 1.5 3.8-.2.5-.7.5-1.2.6-1-2.7-2.2-5.5-3.4-8.5z" fill="#080700"/><path d="m82.8 94.9c-.9.6-1.7 1.1-2.6 1.7-.1 1.1.6 2 .5 3-.3.4-.6.5-1 .7-.8-3.2-1.6-6.4-2.4-9.5.3-.5.8-.7 1.3-1 2.5 2 5.1 4 7.6 6-.2.5-.6.6-1 .8-.8-.4-1.6-1-2.4-1.7zm-3.9-3c0-.1-.1-.1-.1-.2-.1.1-.1.2.1.2.1 1.3.4 2.5.9 3.7.8-.5 1.4-.9 2.2-1.4-1.1-.9-2-1.7-3.1-2.3z" fill="#0b0900"/><path d="m32.2 99.4c.2-1 .5-1.9.7-2.9-.8-.7-1.7-1.2-2.7-1.8-.8.6-1.6 1.2-2.4 1.9-.4-.1-.7-.3-1.1-.8 2.6-2 5.1-4.1 7.6-6.1.6.1.9.5 1.4.7-.8 3.2-1.6 6.4-2.4 9.6-.4 0-.7-.3-1.1-.6zm1.7-7.6c-1.1.7-1.9 1.4-2.8 2.2.8.5 1.4 1.1 2.3 1.4.1-1.3.7-2.3.5-3.6z" fill="#0b0a00"/><path d="m59.6 105.8c-.6.2-.9.2-1.4.1-.3-.9-.6-1.8-.9-2.8-1-.2-2.1 0-3.1-.1-.5.9-.7 1.9-1.1 2.8-.4.2-.9.1-1.4.1 1.1-3.2 2.2-6.2 3.3-9.3.5-.2 1-.1 1.6-.1 1 3 2 6.1 3 9.3zm-3.8-7.9c-.5 1.5-.9 2.7-1.4 3.9h2.4c0-.1.1-.2.1-.3-.3-1-.7-2.2-1.1-3.6z" fill="#0a0800"/><path d="m58.4 13c0 .7 0 1.2-.2 1.8-.6 1.8-1.9 2.8-3.8 2.8-1.8 0-3-1-3.6-2.9-.3-1.2-.3-2.3.2-3.4.6-1.7 2.4-2.8 4.1-2.5 1.8.3 3.1 1.7 3.3 3.5.1.3 0 .6 0 .7zm-1.2.2c.1-.9-.1-1.7-.7-2.4-1-1.3-2.8-1.3-3.8 0-.9 1.2-1 3.4-.1 4.7 1 1.4 2.9 1.5 3.9.1.5-.7.7-1.5.7-2.4z" fill="#fcd701"/><path d="m62 9.3c2.1.4 4 .8 6.1 1.2-.5 2.8-1 5.5-1.6 8.2-.4.1-.7.1-1.1-.2.3-2.4.9-4.7 1.3-7.2-1.1-.4-2.3-.5-3.6-.8-.6 2.4-.9 4.8-1.5 7.2-.4.2-.7 0-1.2-.1.5-2.8 1-5.5 1.6-8.3z" fill="#fcd701"/><path d="m37.9 98.2c-.6 1.1-.9 2.2-1.5 3.2-.5.1-.7-.2-1.2-.3 1.2-2.9 2.4-5.7 3.6-8.6 1.2.2 2.3.6 3.3 1.2 1.2.8 1.6 1.9 1.2 3.1-.5 1.4-1.4 2.1-2.8 2.1-1 0-1.8-.3-2.6-.7zm.4-1.1c1.1.6 2 1.1 3 .4.6-.4 1-1.4.8-2-.4-1.1-1.4-1.5-2.5-1.7-.5 1.2-.9 2.2-1.3 3.3z" fill="#0a0800"/><g fill="#fcd701"><path d="m29.6 27.9c-.4-.1-.5-.3-.7-.6.7-1 .3-2-.3-2.9-1-1.4-2-2.7-3.1-4.2 1.3-1 2.6-2 4-3.1 1.7 2.3 3.4 4.4 5.1 6.6-.2.4-.4.6-.9.8-1.5-1.9-2.9-3.8-4.5-5.7-.8.4-1.4 1-2.1 1.5.3.8.9 1.3 1.4 2 .6.8 1.2 1.6 1.6 2.5.5 1.2.5 2.2-.5 3.1z"/><path d="m72.1 11.7c.5 0 .8.2 1.1.5-.4.9-.7 1.8-1.1 2.7.6.3 1.1.5 1.6.8 1.3.8 1.7 2 1.2 3.3s-1.6 1.9-3.1 1.6c-.4-.1-.7-.1-1.1-.3-.6-.2-1.2-.5-1.9-.9 1.2-2.6 2.2-5.2 3.3-7.7zm-1.7 7.3c1 .5 1.9.9 2.8.3.6-.4.9-1 .7-1.7-.3-1.1-1.2-1.4-2.1-1.7-.6 1-1 2-1.4 3.1z"/><path d="m36.7 22.7c-1.3-2.6-2.6-5.1-3.9-7.6 1.4-.7 2.7-1.4 4-2 .4.2.5.4.5.9-.9.5-1.8 1-2.9 1.5.3.8.6 1.6 1.2 2.2.9-.5 1.8-.9 2.7-1.3.3.2.4.5.5.8-.8.7-1.9.9-2.7 1.6.4.9.8 1.7 1.3 2.5 1.1-.5 2.1-1 3-1.5.5.1.4.5.7.8-1.6.6-2.9 1.3-4.4 2.1z"/><path d="m83.6 27.5c2.1-1.9 4.1-3.8 6.1-5.6.4.1.5.4.8.7-.6.8-1.4 1.3-2.1 2.1.4.6 1 1.1 1.3 1.7.8 1.6.1 3.2-1.6 3.8-.9.3-1.6 0-2.4-.5-.8-.4-1.5-1.2-2.1-2.2zm3.9-2c-.9.9-1.8 1.5-2.5 2.4.5.9 1.2 1.4 2.2 1.5.8-.2 1.5-.6 1.6-1.5.2-1.1-.4-1.8-1.3-2.4z"/><path d="m27.4 28.4c.3.1.5.3.7.4-.6 2.1-2.3 3.6-4.2 3.6-1.8 0-3.8-1.5-4.3-3.4-.6-2 .4-4 2.5-5.3.3.1.4.4.5.7-1.4 1-2.6 2.2-2 4.1.5 1.5 1.6 2.4 3.2 2.6 1.9.3 2.8-1.1 3.6-2.7z"/><path d="m79.3 24.4c1.4-2 2.8-4 4.2-6-.7-.5-1.3-1-2-1.5.1-.3.2-.6.6-.8 1.6 1.1 3.3 2.3 5 3.4 0 .4-.2.6-.5.9-.7-.4-1.3-.9-2.1-1.4-1.4 2-2.8 4-4.2 6-.5.1-.7-.2-1-.6z"/><path d="m77.9 14.1c.5 0 .8.1 1.1.5-1 2.5-2.1 5-3.2 7.5-.5.1-.8-.2-1.2-.3 1.1-2.5 2.2-5.1 3.3-7.7z"/><path d="m93.9 26.6c.4.2.6.4.8.8-2 1.8-4 3.7-6.1 5.6-.4-.1-.6-.4-.9-.8 2.1-1.9 4.2-3.8 6.2-5.6z"/></g><path d="m26.1 77.2c0 .1 0 .1 0 0-.1.1-.1 0-.2 0z" fill="#010102"/><path d="m87.2 77.3c.1-.1.2-.1.2 0-.1.1-.1.1-.2 0z" fill="#010102"/><path d="m57.5 87.4c0-2.3 0-4.5 0-6.7 11.6-1.2 19-7.3 22.5-18.5 1.9-1.3 5.6-.5 6.4 1.9-2.8 12.7-15.1 23.3-28.9 23.3z" fill="#0085fc"/><path d="m33.1 62.1c3.5 11.3 10.8 17.5 22.5 18.7v6.7c-2.3.1-4.5-.3-6.6-.8-6.3-1.6-11.5-5-15.8-9.9-2.7-3.1-4.7-6.7-5.9-10.7-.6-1.8.2-3.2 2-3.9 1.2-.6 2.5-.6 3.8-.1z" fill="#0085fc"/><path d="m55.7 79.3c-7.8-.2-17.5-5-20.8-15.9 1.8-2.5 3.6-4.9 7.1-5.2.9 6.6 4.6 10.8 11.1 12.8 1 2.6 2.5 5.2 2.6 8.3z" fill="#0085fb"/><path d="m57.3 79.3c.7-3 1.8-5.7 2.9-8.4 6.3-2 9.9-6.1 10.8-12.7 3.5.1 5.4 2.3 7.1 4.9-2.7 10.6-12.5 16.1-20.8 16.2z" fill="#0085fb"/><path d="m36.7 33.3c4.3-3.6 9.1-5.9 14.7-6.8.4 2.1-.1 5.2-1.4 7.2-2 .6-3.9 1.4-5.8 2.5-.2.1-.4.2-.6.1-2.5-.2-4.8-.8-6.7-2.6-.1 0-.2-.1-.2-.4z" fill="#0085fb"/><path d="m63.3 33.9c-1.4-2.3-1.6-4.7-1.5-7.1 3.4-.1 10.8 3.1 14.8 6.9-1.4 1.5-3.1 2.1-5 2.6-.6.1-1.1.2-1.7.3-.4 0-.8 0-1.2-.2-1.6-1.2-3.4-1.9-5.4-2.5z" fill="#0085fb"/><path d="m43.6 58.5c1.3.4 2.3 1.1 3.2 2 1.9 1.8 4.5 5.8 5.4 8.4-3.6-.2-8-5.4-8.6-10.4z" fill="#0081f5"/><path d="m61 69c2.1-4.2 4-8.2 8.3-10.4.3 3.1-3.2 9-8.3 10.4z" fill="#0081f5"/><path d="m57.5 29.1c0-1.2 0-2.1 0-3 .7.1 1.2.1 2 .2-.7.9-1.3 1.7-2 2.8z" fill="#0081f5"/><path d="m55.6 28.7c-.6-.9-1.1-1.6-1.6-2.4.6-.2 1.1-.2 1.6-.2.1.8.1 1.6 0 2.6z" fill="#0081f5"/><path d="m63 104.5c.7-2.6.3-4.9-.2-7.2.9-.4 1.8-.4 2.7-.6.4 2.4.9 4.7 1.3 7.1-1.1.2-2.3.4-3.8.7z" fill="#f6d201"/><path d="m47.2 17.3c-1.1.3-2.1.6-3.4 1 .3-2.3-.1-4.3-.8-6.4.7-.4 1.5-.6 2.4-.7.7 2 1.2 4 1.8 6.1z" fill="#fcd701"/><path d="m78.9 91.9c1.1.6 2 1.5 3 2.3-.8.5-1.4.9-2.2 1.4-.3-1.3-.7-2.5-.8-3.7z" fill="#ecca01"/><path d="m78.9 91.9c-.1-.1-.2-.1-.1-.3 0 .1.1.2.1.3z" fill="#ecca01"/><path d="m33.9 91.8c.3 1.3-.4 2.3-.5 3.5-.8-.3-1.5-.8-2.3-1.4.9-.7 1.7-1.4 2.8-2.1z" fill="#eecb01"/><path d="m55.8 97.9c.4 1.4.8 2.5 1.1 3.7 0 .1 0 .1-.1.3-.8 0-1.5 0-2.4 0 .5-1.3.9-2.5 1.4-4z" fill="#efcc01"/><path d="m57.2 13.2c.1.9-.2 1.7-.7 2.4-1 1.4-2.9 1.3-3.9-.1-.9-1.3-.8-3.5.1-4.7 1-1.3 2.8-1.3 3.8 0 .5.7.7 1.5.7 2.4z" fill="#f8d401"/><path d="m38.3 97.1c.5-1.1.9-2.2 1.3-3.2 1.1.2 2.1.6 2.5 1.7.2.6-.2 1.6-.8 2-1.1.6-2 .1-3-.5z" fill="#f2ce01"/><path d="m70.4 19c .4-1.1.8-2.2 1.4-3.2 1 .3 1.9.6 2.1 1.7.2.7-.1 1.3-.7 1.7-1 .8-1.8.3-2.8-.2z" fill="#f3d001"/><path d="m87.5 25.5c.9.6 1.5 1.4 1.4 2.4-.1.9-.8 1.3-1.6 1.5-1-.1-1.7-.7-2.2-1.5.6-.9 1.6-1.6 2.4-2.4z" fill="#f3d001"/><path d="m19 28.3c.4-.6 1-1.4 1.8-2.3 1-1.1 1.9-1.7 2.7-1.8.7-.1 1.3.1 1.8.6.5.6.6 1.2.5 1.9-.1 1-.8 2-1.7 3-.3.3-.5.6-.8.8.9.9 1.3 1.4 2.2 2.3-.3.4-.5.6-.8 1-2.3-2.2-3.4-3.3-5.7-5.5zm3.7 1.6c.2-.2.5-.5.8-.8 1.1-1.3 1.4-2.4.7-3.3-.7-.8-1.8-.5-2.9.8-.4.5-.7.9-.9 1.1 1 .8 1.4 1.3 2.3 2.2z"/><path d="m28.8 25.8c.3 1.1.4 1.7.7 2.7-.4.3-.6.5-.9.9-1.1-3.5-1.5-5.2-2.2-8.9.5-.4.8-.7 1.4-1.1 3 1.8 4.4 2.8 7 5-.4.3-.6.4-1.1.7-.8-.7-1.3-1-2.2-1.6-1.1.9-1.6 1.4-2.7 2.3zm2.1-2.8c-.8-.6-1.2-.8-2.1-1.4-.5-.3-.9-.6-1.3-.9.1.5.3 1 .4 1.6.2 1 .3 1.6.6 2.6 1-.7 1.4-1.1 2.4-1.9z"/><path d="m32.2 16.9c.5-.7 1.2-1.4 2.2-2 1.6-.9 3.1-.7 3.5.5.4 1-.2 2-1.1 2.8 1.3-.5 2.5-.2 2.9.9.6 1.6-.6 2.9-2.1 3.8-.7.4-1.5.7-2.3.8 0-.4-.1-.5-.1-.9.5 0 1.4-.3 2-.6 1.2-.7 1.6-1.6 1.3-2.5-.5-1.1-1.9-.8-3-.2-.2.1-.3.2-.5.3-.1-.3-.2-.4-.4-.7.2-.1.3-.2.5-.3 1.2-.7 1.8-1.7 1.5-2.5s-1.2-.9-2.2-.3c-.7.4-1.3 1.1-1.7 1.6-.1-.4-.3-.5-.5-.7z"/><path d="m39.3 12.8c.5-.3 1.4-.7 2.3-1.1 1.3-.5 2.2-.5 2.9-.3.6.2 1 .6 1.1 1.2.2.8-.3 1.6-1.2 2.3.9-.1 2.1.3 2.4 1.5.2.7 0 1.3-.4 1.8-.5.7-1.4 1.2-2.7 1.7-.7.3-1.3.5-1.7.6-1.1-3-1.7-4.6-2.7-7.7zm2.3 2.8c.4-.2.6-.2 1.1-.4 1.3-.4 1.9-1.2 1.7-2-.2-1-1.2-1.1-2.5-.6-.6.2-.9.4-1.1.5.3.9.4 1.5.8 2.5zm1.2 3.8c.2 0 .5-.2.9-.3 1.1-.4 2.1-1.1 1.8-2.3-.3-1.1-1.5-1.3-2.7-.8-.4.1-.6.2-1 .4.4 1.2.6 1.8 1 3z"/><path d="m52.9 13.8c-1.5.2-2.2.3-3.7.5.2 1.2.3 1.8.5 3 1.5-.3 2.3-.4 3.8-.5 0 .4 0 .5.1.9-2 .2-2.9.3-4.9.8-.6-3.3-.9-4.9-1.5-8.2 2.2-.5 3.3-.7 5.5-.9 0 .4 0 .5.1.9-1.7.2-2.5.3-4.1.6.2 1 .2 1.6.4 2.6 1.5-.3 2.2-.4 3.7-.5.1.3.1.4.1.8z"/><path d="m62.1 9.3c-.3 3-.4 4.5-.6 7.5.3 0 .5.1.8.1-.1 1.1-.2 1.7-.4 2.9-.3 0-.5-.1-.8-.1 0-.8.1-1.2.1-2-2.2-.2-3.3-.2-5.5-.1v2c-.3 0-.5 0-.8 0-.1-1.1-.1-1.7-.2-2.9.3 0 .4 0 .7-.1.3-.6.6-1.2.8-1.9.3-1 .4-2.1.4-3.6 0-.9 0-1.3 0-2.1 2 .1 3.2.1 5.5.3zm-4.6 2.3c0 1.3-.2 2.5-.5 3.4-.2.6-.5 1.2-.7 1.6 1.6 0 2.4 0 3.9.1.2-2.6.2-4 .4-6.6-1.3-.1-1.9-.1-3.1-.1z"/><path d="m65.6 9.8c-.2 1.1-.2 1.6-.4 2.6-.2 1.1.4 1.9 1.7 2.2.6.1 1.4.1 1.9 0 .4-1.6.5-2.3.9-3.9.5.1.8.2 1.3.4-.8 3.2-1.2 4.9-2 8.1-.4-.1-.7-.2-1.1-.3.3-1.4.5-2.1.8-3.5-.7.2-1.5.1-2.3 0-1.2-.3-2.7-1-2.4-3 .1-1.1.2-1.7.4-2.8.4.1.7.1 1.2.2z"/><path d="m74.5 12.4c-.4 1.3-.6 2-1.1 3.3-.4 1.3-.8 2.3-1.2 3.3.7-.7 1.5-1.3 2.5-1.9 1.7-1.1 2.7-1.6 4.6-2.5.5.3.7.4 1.2.7-1.4 3-2.1 4.5-3.5 7.5-.4-.2-.6-.3-1-.5.6-1.3.8-1.9 1.4-3.2.5-1.2.9-2.1 1.4-3-.8.6-1.8 1.2-2.7 1.7-1.7 1-2.5 1.5-4.1 2.7-.5-.2-.7-.3-1.2-.4 1-3.2 1.4-4.8 2.4-8 .6 0 .8.1 1.3.3z"/><path d="m83.8 17.2c-.7 1.3-1.1 1.9-1.8 3.2.1.1.2.1.3.2 1.9-.5 2.8-.7 4.8-.9.5.4.8.7 1.3 1.1-2.1.1-3.2.2-5.2.6 1.3 1.1 1.3 2.3 1.1 3.5-.2.9-.4 1.7-.5 2.6-.4-.3-.6-.5-1-.9 0-.7.2-1.5.4-2.2.2-1.2.1-2.2-1.3-3.2-.1-.1-.2-.1-.3-.2-.7 1.3-1.1 2-1.8 3.3-.4-.3-.6-.4-1-.6 1.5-2.9 2.3-4.4 3.8-7.3.5.4.8.5 1.2.8z"/><path d="m90.8 22.8c-.8 1.1-1.3 1.6-2.1 2.7-.8 1-1.5 1.8-2.2 2.6.9-.3 1.9-.6 3-.7 2-.3 3.1-.4 5.2-.4.4.5.6.7 1 1.2-2.3 2.2-3.4 3.3-5.7 5.6-.3-.4-.5-.6-.8-1 1-1 1.4-1.5 2.4-2.4.9-.9 1.6-1.6 2.4-2.2-1 .2-2.1.3-3.2.4-2 .2-2.9.3-4.8.8-.4-.4-.6-.6-1-.9 1.9-2.6 2.9-3.9 4.8-6.5.4.2.6.4 1 .8z"/></svg>