<svg enable-background="new 0 0 113.4 113.4" viewBox="0 0 113.4 113.4" xmlns="http://www.w3.org/2000/svg"><circle cx="56.7" cy="56.7" fill="#fff" r="56.7"/><path d="m57.6 112.7c-26.1 0-49.1-18-54.9-44.6-6.4-29.6 12.8-59.8 42.3-66.3 1.7-.4 2.5-.1 2.9 1.1.5 1.4 0 2.5-1.5 3.2-1.8.8-3.8 1.4-5.6 2.2-14.6 6.5-23.5 17.7-26 33.5-3.6 23.1 12 44.8 35.1 49.1 2.5.5 5 .7 7.4.7"/><path d="m55.7 112.7c26.1 0 49.1-18 54.9-44.6 6.5-29.6-12.8-59.8-42.3-66.3-1.7-.4-2.5-.1-2.9 1.1-.5 1.4 0 2.5 1.5 3.2 1.8.8 3.8 1.4 5.6 2.2 14.6 6.6 23.5 17.8 25.9 33.6 3.6 23.1-12 44.8-35.1 49.1-2.5.5-5 .7-7.4.7"/><path d="m57.7 39.4c-2.5 0-3.7-1.6-3.9-1.9 0 0 0 0-.1-.1-.1 0-.1-.1-.1-.3l2.1-15.9 2-15.3c0-.2.2-.2.2 0l2 15.3 1.9 16c0 .1 0 .2-.1.3 0 0 0 0-.1.1-.2.2-1.4 1.8-3.9 1.8z"/><path d="m57.7 40.1c-2.6 0-4-1.6-4.5-2.1-.3-.2-.4-.5-.4-.9l4-31.2c.1-.4.4-.8.8-.8s.8.3.8.8l4 31.2c0 .4-.1.7-.4.9-.3.6-1.7 2.1-4.3 2.1zm-3.4-3.1s0 .1 0 0c .2.3 1.3 1.7 3.4 1.7 2.2 0 3.2-1.3 3.3-1.6 0 0 0 0 0-.1l-3.4-26.3z" fill="#fff"/><path d="m47.3 50c0 2.5-1.5 3.7-1.8 3.9v.1s-.1.1-.2.1l-15-2.1-14.4-2c-.2 0-.2-.2 0-.2l14.4-2 15-2.1c.1 0 .2 0 .2.1v.1c.3.3 1.8 1.5 1.8 4.1z"/><path d="m45.3 54.8-29.5-4c-.4-.1-.8-.4-.8-.8s.3-.8.8-.8l29.4-4c .4-.1.7.1.9.4.5.4 2 1.8 2 4.4s-1.5 4-2 4.4c-.2.3-.5.4-.8.4zm-25-4.8 24.8 3.4c.2-.2 1.5-1.2 1.5-3.4s-1.2-3.2-1.5-3.4z" fill="#fff"/><path d="m50 42.1c-1.8 1.8-3.8 1.5-4.1 1.5h-.1c-.1 0-.2 0-.3-.1l-9.5-12.4-9.2-12c-.1-.1 0-.3.2-.2l11.9 9.1 12.4 9.5c.1.1.1.2.1.3v.1c.1.4.4 2.4-1.4 4.2z"/><path d="m46.5 44.3c-.2 0-.4 0-.6 0-.3.1-.7-.1-.9-.4l-18.7-24.3c-.2-.3-.2-.6-.1-.9s.4-.5.7-.5c.2 0 .4.1.5.2l24.4 18.7c.3.2.4.6.4.9.1.7.2 2.7-1.7 4.6-1.5 1.5-3.2 1.7-4 1.7zm-.6-1.4s.1 0 0 0h .5c.8 0 1.9-.2 3-1.3 1.5-1.5 1.3-3.2 1.3-3.5 0 0 0 0 0-.1l-20.5-15.7z" fill="#fff"/><path d="m50 56.9c-1.8-1.8-3.7-1.6-4-1.6h-.1c-.1 0-.2 0-.3.1l-8.8 11.7-8.5 11.3c-.1.1 0 .3.2.2l11.3-8.5 11.7-8.8c.1-.1.1-.2.1-.3 0 0 0 0 0-.1 0-.3.2-2.2-1.6-4z"/><path d="m28.4 79.3c-.3 0-.6-.2-.7-.5s-.1-.6.1-.9l17.3-23c .2-.3.6-.4 1-.4h.4c.9 0 2.5.2 4.1 1.8 1.9 1.9 1.8 3.9 1.8 4.5.1.3-.1.7-.4.9l-23 17.3c-.3.3-.5.3-.6.3zm17.6-23.2-14.6 19.3 19.4-14.6c0-.2.2-1.8-1.4-3.4-1.2-1.2-2.4-1.4-3.1-1.4-.1 0-.2.1-.3.1z" fill="#fff"/><path d="m67.9 50c0 2.5 1.5 3.7 1.7 3.9v.1s.1.1.2.1l14.3-2.1 13.8-2c .2 0 .2-.2 0-.2l-13.8-2-14.2-2c-.1 0-.2 0-.2.1v.1c-.3.2-1.8 1.4-1.8 4z"/><path d="m69.9 54.8c-.3 0-.6-.2-.8-.4-.5-.4-1.9-1.8-1.9-4.4s1.4-4 1.9-4.4c.2-.3.5-.5.9-.4l28.1 4c .4.1.7.4.7.8s-.3.8-.7.8l-28.1 4zm .2-8.2c-.2.1-1.5 1.1-1.5 3.4 0 2.2 1.3 3.3 1.4 3.4l23.6-3.4z" fill="#fff"/><path d="m65.3 42.1c1.8 1.8 3.7 1.6 4.1 1.5h.1c.1 0 .2 0 .3-.1l9-12 8.8-11.6c.1-.1 0-.3-.2-.2l-11.6 8.8-12 9.2c-.1.1-.1.2-.1.3v.1c0 .3-.2 2.2 1.6 4z"/><path d="m68.8 44.4c-.9 0-2.5-.2-4.1-1.8-1.9-1.9-1.8-3.9-1.7-4.5-.1-.3.1-.7.4-1l23.6-17.9c.2-.1.3-.2.5-.2.3 0 .6.2.7.5s.1.6-.1.9l-17.8 23.6c-.2.3-.6.4-1 .4-.1 0-.3 0-.5 0zm-4.3-6.3c-.1.4-.2 1.9 1.3 3.5 1.5 1.5 3.2 1.3 3.4 1.3l15.1-19.9z" fill="#fff"/><path d="m65.3 56.9c1.8-1.8 3.6-1.7 4-1.6h.1c.1 0 .2 0 .3.1l8.3 11.2 8 10.8c.1.1 0 .3-.2.2l-10.8-8-11.2-8.3c-.1-.1-.1-.2-.1-.3 0 0 0 0 0-.1-.1-.4-.2-2.2 1.6-4z"/><path d="m85.8 78.2c-.2 0-.4-.1-.5-.2l-22-16.2c-.3-.2-.4-.6-.4-1-.1-.6 0-2.6 1.8-4.4 1.6-1.6 3.3-1.8 4.1-1.8h.3c.4-.1.7.1 1 .4l16.3 22c .2.3.2.6.1.9-.1.2-.4.3-.7.3zm-21.4-17.4 18.4 13.7-13.6-18.5s-.1 0-.2 0c-.6 0-1.9.2-3.1 1.4-1.7 1.6-1.6 3.2-1.5 3.4z" fill="#fff"/><path d="m58.1 59.9c-2.5 0-3.7 1.5-3.9 1.7 0 0 0 0-.1 0s-.1.1-.1.2l2.1 14.5 2 13.9c0 .2.2.2.2 0l2-13.9 2.1-14.5c0-.1 0-.2-.1-.2 0 0 0 0-.1 0-.3-.2-1.5-1.7-4.1-1.7z"/><path d="m58.1 91.1c-.4 0-.8-.3-.8-.7l-4-28.4c-.1-.4.1-.7.4-.9.4-.5 1.8-1.9 4.4-1.9s4 1.4 4.4 1.9c.3.2.5.6.4.9l-4 28.4c0 .4-.3.7-.8.7zm-3.3-29 3.4 23.9 3.4-23.9c-.1-.1-1.1-1.4-3.4-1.4-2.3-.1-3.3 1.2-3.4 1.4z" fill="#fff"/><path d="m42.6 44.1c-.7 1.5-1.7 2-2.1 2.1 0 0-.1 0-.1.1h-.1l-6.7-5-5.1-3.8c-.3-.3-.1-.8.3-.7l6.1 1.8 8 2.3c.1 0 .1.1.1.1 0 .3.4 1.4-.4 3.1z"/><path d="m40.3 47c-.2 0-.4-.1-.5-.2l-11.9-8.8c-.4-.3-.5-.8-.4-1.2.2-.6.8-.9 1.4-.7l14.2 4.1c.4.1.6.4.6.8.2.5.4 1.7-.4 3.4s-2 2.2-2.4 2.4c-.3.1-.5.2-.6.2zm-10-9 10 7.4c.3-.1 1-.6 1.6-1.7s.5-1.9.4-2.3z" fill="#fff"/><path d="m42.6 55.7c-.7-1.5-1.7-2-2.1-2.1 0 0-.1 0-.1-.1h-.1l-6.7 5-5.1 3.8c-.3.3-.1.8.3.7l6.1-1.8 8-2.3c.1 0 .1-.1.1-.1 0-.3.4-1.4-.4-3.1z"/><path d="m28.6 63.7c-.5 0-.9-.3-1-.8-.2-.5 0-.9.4-1.2l11.8-8.7c.3-.2.7-.2 1 0 .5.2 1.6.8 2.4 2.4.8 1.7.6 2.9.4 3.4 0 .3-.3.7-.6.8l-14.2 4.1s-.1 0-.2 0zm11.7-9.3-10 7.4 12-3.5c.1-.3.2-1.1-.4-2.3-.5-1.1-1.2-1.5-1.6-1.6z" fill="#fff"/><path d="m73.1 44.1c.7 1.5 1.7 2 2.1 2.1 0 0 .1 0 .1.1h.1l6.7-5 5.1-3.8c.3-.3.1-.8-.3-.7l-6.1 1.8-8 2.3c-.1 0-.1.1-.1.1-.1.3-.4 1.4.4 3.1z"/><path d="m75.4 47c-.2 0-.3-.1-.5-.2-.5-.2-1.6-.8-2.4-2.4-.8-1.7-.6-2.9-.4-3.4 0-.3.3-.7.6-.8l14.2-4.1c.6-.2 1.2.2 1.4.7s0 .9-.4 1.2l-12 8.8c-.2.1-.4.2-.5.2zm-2.1-5.5c-.1.3-.2 1.1.4 2.3.5 1.1 1.2 1.5 1.6 1.7l10-7.4z" fill="#fff"/><path d="m63.6 34.6c1.4.8 2.5.6 2.9.5h.2c.1 0 .1 0 .1-.1l2.6-7.9 2-6.1c.1-.4-.4-.7-.7-.4l-4 5-5.2 6.5v.2c.1.2.5 1.4 2.1 2.3z"/><path d="m65.7 35.9c-.8 0-1.7-.2-2.5-.7-1.6-.9-2.2-2.1-2.3-2.5-.2-.3-.2-.7.1-1l9.2-11.5c.2-.3.5-.4.9-.4s.7.2.9.5.3.6.1 1l-4.7 14c-.1.3-.4.6-.8.6-.2-.1-.5 0-.9 0zm-3.4-3.6c.1.3.5 1 1.6 1.6.8.4 1.4.5 1.8.5h.4l3.9-11.8z" fill="#fff"/><path d="m63.9 64.4c1.4-.8 2.5-.6 2.9-.5h.2c.1 0 .1 0 .1.1l2.6 7.9 2 6.1c.1.4-.4.7-.7.4l-4-5-5.2-6.5c0-.1 0-.1 0-.2.1-.3.4-1.4 2.1-2.3z"/><path d="m71.3 79.2c-.3 0-.6-.2-.9-.4l-9.2-11.5c-.2-.3-.2-.7-.1-1 .2-.5.7-1.7 2.3-2.5.8-.4 1.7-.7 2.5-.7.4 0 .7.1.9.1.4 0 .7.2.8.6l4.7 14c .1.3.1.7-.1 1-.2.2-.5.4-.9.4zm-8.7-12.5 7.8 9.7-3.9-11.8c-.1 0-.2 0-.4 0-.4 0-1 .1-1.8.5-1.2.6-1.6 1.3-1.7 1.6z" fill="#fff"/><path d="m51.9 34.6c-1.4.8-2.5.6-2.9.5 0 0-.1 0-.2 0s-.1 0-.1-.1l-2.6-7.9-2-6.1c-.1-.4.4-.7.7-.4l4 5 5.2 6.5v.2c-.1.2-.5 1.4-2.1 2.3z"/><path d="m49.8 35.9c-.4 0-.7-.1-.9-.1-.4 0-.7-.2-.8-.6l-4.7-14c-.1-.3-.1-.7.1-1s .5-.5.9-.5c.3 0 .6.2.9.4l9.2 11.5c.2.3.2.7.1 1-.2.5-.7 1.7-2.3 2.5-.9.5-1.7.8-2.5.8zm-.5-1.5h.4c.4 0 1-.1 1.8-.5 1.1-.6 1.5-1.3 1.6-1.6l-7.8-9.7z" fill="#fff"/><path d="m52 64.4c-1.4-.8-2.5-.6-2.9-.5 0 0-.1 0-.2 0s-.1 0-.1.1l-2.6 7.9-2 6.1c-.1.4.4.7.7.4l4-5 5.2-6.5c0-.1 0-.1 0-.2-.1-.3-.5-1.4-2.1-2.3z"/><path d="m44.5 79.2c-.4 0-.7-.2-.9-.5s-.3-.6-.1-1l4.7-14c .1-.3.4-.6.8-.6.2 0 .5-.1.9-.1.8 0 1.7.2 2.5.7 1.6.9 2.2 2.1 2.3 2.5.2.3.2.7-.1 1l-9.2 11.6c-.2.3-.5.4-.9.4zm4.9-14.6-3.9 11.8 7.8-9.7c-.1-.3-.5-1-1.6-1.6-.8-.4-1.4-.5-1.8-.5-.2 0-.4 0-.5 0z" fill="#fff"/><path d="m73.1 55.7c.7-1.5 1.7-2 2.1-2.1 0 0 .1 0 .1-.1h.1l6.7 5 5.1 3.8c.3.3.1.8-.3.7l-6.1-1.8-8-2.3c-.1 0-.1-.1-.1-.1-.1-.3-.4-1.4.4-3.1z"/><path d="m87.1 63.7c-.1 0-.2 0-.3 0l-14.2-4.1c-.4-.1-.6-.4-.6-.8-.2-.5-.4-1.7.4-3.4s2-2.2 2.4-2.4c.3-.2.7-.2 1 0l11.9 8.8c.4.3.5.8.4 1.2s-.6.7-1 .7zm-13.8-5.4 12 3.5-10-7.4c-.3.1-1 .6-1.6 1.7-.5 1.1-.4 1.9-.4 2.2z" fill="#fff"/><circle cx="57.7" cy="50" r="10.5"/><g fill="#fff"><path d="m57.7 61.2c-6.2 0-11.3-5.1-11.3-11.3s5.1-11.3 11.3-11.3 11.3 5.1 11.3 11.3-5.1 11.3-11.3 11.3zm0-21.1c-5.4 0-9.8 4.4-9.8 9.8s4.4 9.8 9.8 9.8 9.8-4.4 9.8-9.8-4.4-9.8-9.8-9.8z"/><path d="m38.7 91.5c-.3 1.9-.4 2.8-.5 4.8-.1.2-.2.2-.3.4-1.9.7-3 1-5.1 1.4 1.2 1 1.9 1.5 3.2 2.4.4.3.8.4 1.1.3s.7-.4 1.2-.9c.3.2.4.3.7.4-.7 1-1 1.5-1.7 2.5-2.9-1.7-4.4-2.8-6.9-5.2.1-.1.2-.2.3-.3 2.5-.3 3.8-.5 6.1-1.2.2-2.4.4-3.6.9-5.9.1-.1.2-.2.3-.3 1.8 1.7 2.8 2.4 4.9 3.6-.6 1-.8 1.4-1.4 2.4-.2-.1-.3-.2-.6-.3.3-.8.4-1.4.4-1.7s-.2-.6-.5-.8c-.9-.6-1.3-.9-2.1-1.6z"/><path d="m47.7 106.3c-.8.3-1.5.4-2.2.2-.4-.1-.7-.3-.9-.6s-.3-.7-.4-1.2c-.2-1.2-.3-1.8-.5-3-.3.1-.6.2-1.1.2-.5 1.2-.8 1.8-1.3 2.9-.6-.2-.8-.4-1.4-.6.9-1.9 1.4-2.9 2.4-4.9.3-.6.5-1 .5-1.2s-.2-.4-.5-.7c.1-.1.1-.2.2-.4.6.3.9.4 1.5.7.2.1.2.1.4.2-.6 1.4-.9 2.1-1.5 3.4.7-.1 1.7-.5 2.9-1.3.8-.5 1.3-.8 1.6-.9s.6-.1.9 0c .2.1.5.2.6.3-.2.6-.2.9-.4 1.4-.2-.1-.3-.1-.6-.2 0-.3-.2-.4-.4-.5s-.4 0-.7.1-.9.5-1.8 1c .3 1.4.4 2.2.8 3.6.2.6.4.9.8 1 .3.1.6 0 .9-.1.1.3.1.4.2.6z"/><path d="m49.2 100.5c-.1-.2-.1-.3-.2-.5.6-.3 1.1-.4 1.5-.4s.7.3.8.6.1.9 0 1.6c-.2.9-.2 1.4-.4 2.4-.3 1.7.2 2.6 1.5 2.8.7.1 1.2-.1 1.6-.6s.6-1.2.7-2.1c.1-1.7-.2-2.9-.7-3.6 0-.2 0-.3 0-.4.5 0 .8.1 1.3.1.4 1 .5 2.1.5 3.5 0 1.2-.4 2.2-1.1 3s-1.7 1.1-2.9 1c-1.1-.1-1.8-.6-2.2-1.2s-.4-1.5-.2-2.6c.2-.9.3-1.3.5-2.2.1-.6.2-1 .2-1.2s-.1-.3-.3-.3c-.1 0-.3 0-.6.1zm5.5-4.3v.4c-.6 1.1-1 1.7-1.8 2.8-.2-.1-.3-.2-.5-.4.5-1.2.7-1.8 1.2-3 .4.2.6.2 1.1.2z"/><path d="m57.1 107.6c.5-.6 1-1.3 1.3-2.2.9-2 1.3-3.1 2-5.1-.4-1-.7-1.7-.9-2.1s-.5-.6-.9-.6-.7.3-1 .7c-.1-.2-.2-.3-.3-.4.6-.8 1.1-1.2 1.7-1.3.4 0 .7.1.9.3.2.3.5.7.7 1.3s.6 1.7 1.2 3.4c.8 2.2 1.4 3.6 1.8 4.1s.7.8 1.1.7c.3-.1.5-.2.7-.4.2.2.3.2.4.4-.5.5-.9.8-1.4.9-.6.1-1.2-.1-1.5-.6-.4-.6-1-2.1-1.8-4.7-.6 1.9-1.3 3.9-2.1 5.9-.7 0-1.1.1-1.8.1-.1-.1-.1-.2-.1-.4z"/><path d="m66.1 106.5c.3-.7.6-1.5.8-2.4.4-2.2.6-3.3.7-5.5-.6-.9-1.1-1.5-1.4-1.9-.3-.3-.7-.4-1-.3s-.6.4-.8.9c-.2-.1-.3-.2-.4-.3.4-.9.8-1.5 1.3-1.6.4-.1.7-.1 1 .1s.6.5 1 1.1c.4.5 1 1.5 2 3 1.3 2 2.2 3.1 2.7 3.6.5.4.9.6 1.3.4.2-.1.4-.3.6-.6.2.1.3.2.5.3-.3.6-.7 1-1.1 1.2-.6.3-1.2.2-1.7-.2s-1.5-1.8-2.9-4.1c-.1 2-.4 4.1-.7 6.2-.7.2-1 .3-1.7.5-.2-.2-.2-.3-.2-.4z"/><path d="m82.4 97.2c-.1.8-.5 1.4-1 1.9-.7.6-1.6.4-2.7-.7 0 0 0 0-.1.1.3 1.7-.2 2.9-1.2 3.5-.8.5-1.5.6-2.3.3-.7-.3-1.4-1-2-2.1s-.8-2.1-.7-3 .5-1.6 1.2-2.1c.5-.3 1-.5 1.5-.5s1 .3 1.7.7c0 0 .1 0 .1-.1-.3-.7-.5-1.1-.8-1.8.4-.3.6-.5.9-.8l.3.3c.1.7.5 1.8 1 3.5.8.7 1.4 1.3 1.9 1.6s.9.3 1.1.1.3-.5.4-.9c.4-.1.5 0 .7 0zm-4.8-.1c-.8-.9-1.5-1.4-2-1.6s-.9-.2-1.4.1c-.4.3-.6.8-.6 1.5.1.7.3 1.5.8 2.3 1 1.7 2 2.2 2.9 1.6 1.1-.7 1.2-2 .3-3.9z"/></g></svg>