<?xml version="1.0" encoding="utf-8"?>
<!-- Generator: Adobe Illustrator 22.0.1, SVG Export Plug-In . SVG Version: 6.00 Build 0)  -->
<svg version="1.1" id="Capa_1" xmlns="http://www.w3.org/2000/svg" xmlns:xlink="http://www.w3.org/1999/xlink" x="0px" y="0px"
	 viewBox="0 0 408.7 408.7" style="enable-background:new 0 0 408.7 408.7;" xml:space="preserve">
<style type="text/css">
	.st0{fill:#B3B3B2;}
	.st1{fill:#888887;}
	.st2{fill:#5D5D5D;}
	.st3{fill:#4C565E;}
	.st4{fill:#40B29C;}
	.st5{font-family:'Montalban';}
	.st6{font-size:29.73px;}
	.st7{font-size:29.5705px;}
	.st8{font-size:29.7968px;}
	.st9{font-size:29.955px;}
	.st10{font-size:29.8873px;}
	.st11{font-size:30.0555px;}
	.st12{font-size:30px;}
	.st13{font-size:29.9294px;}
	.st14{font-size:30.051px;}
	.st15{font-size:29.9174px;}
	.st16{font-size:30.024px;}
	.st17{font-size:30.0674px;}
	.st18{font-size:30.027px;}
	.st19{font-size:29.9595px;}
	.st20{font-size:30.1257px;}
	.st21{font-size:29.8933px;}
	.st22{font-size:30.1272px;}
	.st23{font-size:30.039px;}
	.st24{fill:#FEFEFD;}
</style>
<circle class="st0" cx="204.3" cy="204.3" r="170.1"/>
<circle class="st1" cx="204.3" cy="204.3" r="159.4"/>
<circle class="st2" cx="204.3" cy="204.3" r="153.3"/>
<path class="st3" d="M204.3,8.2C96.2,8.2,8.2,96.2,8.2,204.3s88,196.1,196.1,196.1s196.1-88,196.1-196.1S312.5,8.2,204.3,8.2
	L204.3,8.2z M204.3,371.2c-92,0-166.9-74.9-166.9-166.8S112.3,37.5,204.3,37.5s166.9,74.8,166.9,166.9S296.3,371.2,204.3,371.2
	L204.3,371.2z"/>
<path class="st3" d="M204.3,0C91.7,0,0,91.7,0,204.3s91.7,204.3,204.3,204.3S408.7,317,408.7,204.3S317,0,204.3,0z M204.3,404.5
	C94,404.5,4.2,314.7,4.2,204.3S94,4.2,204.3,4.2S404.5,94,404.5,204.3S314.7,404.5,204.3,404.5z"/>
<g>
	<text transform="matrix(0.533 -0.8461 0.8461 0.533 49.7299 127.6899)" class="st4 st5 st6">D</text>
	<text transform="matrix(0.6604 -0.7509 0.7509 0.6604 66.6 101.4598)" class="st4 st5 st6">r</text>
	<text transform="matrix(0.7571 -0.6533 0.6533 0.7571 82.4001 83.5299)" class="st4 st5 st6">u</text>
	<text transform="matrix(0.8371 -0.5471 0.5471 0.8371 100.1099 68.3101)" class="st4 st5 st6">z</text>
	<text transform="matrix(0.8988 -0.4384 0.4384 0.8988 118.7101 56.21)" class="st4 st5 st6">e</text>
	<text transform="matrix(0.9752 -0.2212 0.2212 0.9752 151.4398 41.6292)" class="st4 st5 st7">S</text>
	<text transform="matrix(0.9975 -7.080108e-02 7.080108e-02 0.9975 179.79 35.34)" class="st4 st5 st6">h</text>
	<text transform="matrix(0.9974 7.167153e-02 -7.167153e-02 0.9974 203.63 33.61)" class="st4 st5 st6">o</text>
	<text transform="matrix(0.9778 0.2095 -0.2095 0.9778 228.609 35.4797)" class="st4 st5 st8">c</text>
	<text transform="matrix(0.9405 0.3399 -0.3399 0.9405 251.4301 40.4)" class="st4 st5 st6">k</text>
	<text transform="matrix(0.8371 0.547 -0.547 0.8371 286.7101 54.7101)" class="st4 st5 st6">T</text>
	<text transform="matrix(0.752 0.6592 -0.6592 0.752 309.74 70.05)" class="st4 st5 st6">e</text>
	<text transform="matrix(0.6593 0.7518 -0.7518 0.6593 325.6199 83.85)" class="st4 st5 st6">a</text>
	<text transform="matrix(0.5346 0.8451 -0.8451 0.5346 341.5099 101.63)" class="st4 st5 st6">m</text>
	<text transform="matrix(0.3999 0.9166 -0.9166 0.3999 357.1301 126.8001)" class="st4 st5 st6">s</text>
	<text transform="matrix(0.1302 0.9915 -0.9915 0.1302 12.54 214.7993)" class="st4 st5 st9">B</text>
	<text transform="matrix(0.3011 0.9536 -0.9536 0.3011 17.1691 247.5806)" class="st4 st5 st10">A</text>
	<text transform="matrix(0.4592 0.8884 -0.8884 0.4592 27.3496 279.0506)" class="st4 st5 st11">Y</text>
	<text transform="matrix(0.6 0.8 -0.8 0.6 42.3604 307.72)" class="st4 st5 st12">R</text>
	<text transform="matrix(0.7317 0.6816 -0.6816 0.7317 62.5402 333.9805)" class="st4 st5 st13">A</text>
	<text transform="matrix(0.8486 0.5291 -0.5291 0.8486 86.8298 356.7211)" class="st4 st5 st14">M</text>
	<text transform="matrix(0.96 0.28 -0.28 0.96 136.9201 384.2599)" class="st4 st5 st12">S</text>
	<text transform="matrix(0.9927 0.1203 -0.1203 0.9927 167.9104 392.86)" class="st4 st5 st15">E</text>
	<text transform="matrix(0.9992 -3.996804e-02 3.996804e-02 0.9992 197.0197 396.2793)" class="st4 st5 st16">C</text>
	<text transform="matrix(0.9778 -0.1996 0.2095 0.9778 229.3 394.78)" class="st4 st5 st17">U</text>
	<text transform="matrix(0.9292 -0.3697 0.3697 0.9292 260.8992 387.9296)" class="st4 st5 st18">R</text>
	<text transform="matrix(0.8821 -0.4711 0.4711 0.8821 290.7102 375.3799)" class="st4 st5 st13">I</text>
	<text transform="matrix(0.8211 -0.5708 0.5708 0.8211 301.8689 369.7896)" class="st4 st5 st19">T</text>
	<text transform="matrix(0.717 -0.6971 0.6971 0.717 327.1103 352.0703)" class="st4 st5 st20">Y</text>
	<text transform="matrix(0.5219 -0.853 0.853 0.5219 360.3298 316.3504)" class="st4 st5 st21">C</text>
	<text transform="matrix(0.3697 -0.9292 0.9292 0.3697 376.9794 288.58)" class="st4 st5 st18">H</text>
	<text transform="matrix(0.2489 -0.9659 0.9659 0.2589 388.1592 258.2803)" class="st4 st5 st22">I</text>
	<text transform="matrix(0.1498 -0.9887 0.9887 0.1498 391.6505 246.3106)" class="st4 st5 st23">E</text>
	<text transform="matrix(0 -1 1 0 395.81 217.4403)" class="st4 st5 st12">F</text>
</g>
<path class="st24" d="M152.7,87.6c1-0.5,2-1,3-1.4c6.5-2.4,13.2-4.3,20-5.7c4.5-1,9-2.1,13.6-2.8c3.1-0.4,3-0.4,3.8,2.5
	c1.8,6.7,3.6,13.4,4.9,20.3c0.7,3.4,1.2,6.8,1.4,10.3c0.1,2-0.2,4-0.7,6c-1.9,8.9-3.6,17.8-3.8,26.9c-0.1,3.3-0.7,6.6-0.7,9.9
	c0,7.5,0.8,15,2.3,22.4c1.4,6.7,2.6,13.4,3.8,20.1c0.5,3.8,0.7,7.6,0.4,11.4c-0.1,5.4-0.4,10.7-0.4,16.1c0,2.6,0.2,5.3,0.4,7.9
	c0.1,0.7-0.2,1.4-0.8,1.8c-0.9,0.7-1.6,1.5-2.1,2.6c-3.4,6.1-6.9,12.2-10.3,18.3c-1,1.6-1,3.7-0.1,5.3c0.7,1.4,1.4,2.8,2.2,4.1
	c0.3,0.5,0.3,1.1,0.1,1.5c-0.7,1.6-1.4,3.2-2.1,4.8c-0.2,0.5-0.4,0.8-1,0.3c-3.2-2.7-6.5-5.3-9.7-7.9c-1.8-1.3-3.5-2.8-5.1-4.5
	c-0.7-0.9-1.9-1-2.9-1.4c-2.4-1.1-5.1-1.2-7.6-1.8c-4.1-1.1-8.2-2.1-12.3-3.2c-1.6-0.5-3.3-0.8-4.9-0.8c-2.8-0.2-5.5-0.7-8.2-1.5
	c-1.3-0.4-2.6-0.6-3.9-0.6c-1,0.1-2.1,0-3.1-0.1c-2-0.4-4,0.3-5.4,1.7c-2.5,2.2-4.7,4.8-6.5,7.6c-0.5,0.8-0.8,0.8-1.5,0.4
	c-1.3-0.7-2.2-2-2.4-3.4c-1.2-5.1-3.5-9.6-8-12.6c-0.6-0.5-1.3-0.9-2-1.3c-1.3-0.7-2.5-1.7-3.3-3c-0.1-0.1-0.2-0.3-0.2-0.4
	c0.9-1.5,0.1-3,0.2-4.5c0.3-4.5,2.1-8,6.4-9.8c1.2-0.5,2.3-1.1,3.4-1.7c1.4-0.9,3-1.2,4.6-0.8c0.2,0.1,0.6,0.1,0.7,0.1
	c0.8-0.9,1.4-0.1,1.9,0.4c4.6,4.3,10.1,6.5,16.1,7.9c2.8,0.8,5.6,2,8.1,3.6c3.9,2.4,8.7,3.1,13.1,2c0.7-0.2,1.3-0.2,2-0.3
	c1.2,0,2.4-0.3,3.4-1c2.9-2,6.1-3.2,9.1-4.9c0.7-0.3,1.1-1,0.9-1.7c-0.6-3.6-1.2-7.2-1.7-10.8c-0.1-0.6-0.4-1-0.9-1.3
	c-2.1-1.5-4.2-3.1-6.4-4.6c-2.5-1.9-4.8-3.9-7-6.2c-3.9-3.6-7.7-7.2-11.6-10.8c-0.4-0.4-0.8-0.6-0.3-1.3c3.5-4.6,6.8-9.4,10.6-13.8
	c3.6-4.1,7.6-7.8,10.9-12.1c2.7-3.4,4.8-7.3,6.2-11.4c0.6-2.1,1.6-4,2-6.2c0.6-4.5,1.3-9,0.4-13.5c-1-5.5-2.5-10.8-4.7-15.9
	c-2-4.2-3.5-8.7-5.4-13c-1.7-4.4-3.7-8.6-6.1-12.7c-0.5-0.7-0.8-1.5-0.9-2.3C154.2,89.4,153.6,88.3,152.7,87.6z"/>
<path class="st24" d="M221.1,270.7c-0.3-0.6-0.5-1-0.7-1.5c-0.7-1.5-1.9-3-1.8-4.4s1.3-3.1,2.2-4.6c1.3-2,1.3-4.6,0-6.6
	c-3.4-5.8-6.6-11.6-9.8-17.4c-0.6-1.2-1.4-2.2-2.5-3c-0.4-0.2-0.6-0.7-0.6-1.2c0.9-9.8-0.2-19.6-0.1-29.4c0-4,0.5-8.1,1.5-12
	c1.5-5.6,2.1-11.3,3.2-17c1.8-8.4,2.3-17.1,1.6-25.6c-0.5-4.8-0.3-9.6-1.1-14.3c-0.9-5.6-1.6-11.2-3-16.6c-1.2-4.6-0.5-9.2,0.2-13.7
	c1.2-7.2,2.9-14.3,5-21.4c0.3-1.1,0.6-2.2,0.8-3.4c0.1-0.7,0.4-1,1.2-0.9c1.9,0.1,3.8,0.4,5.7,0.8c10.2,2.1,20.5,4.2,30.2,8
	c1,0.4,2.1,0.8,3,1.4c-1.1,0.8-1.7,2-1.7,3.3c-0.2,1.3-1.1,2.2-1.7,3.3c-1.9,3.5-3.5,7.1-5,10.7c-2.7,6.4-5.3,12.9-7.9,19.3
	c-0.2,0.4-0.3,0.8-0.4,1.2c-0.7,2.9-1.5,5.7-1.9,8.7c-1,5.9-0.5,12,1.6,17.7c0.7,1.8,1.2,3.6,1.9,5.3c2.2,4.8,5.1,9.1,8.8,12.9
	c4.8,4.8,9.2,10,13.2,15.5c1.4,1.9,2.8,3.9,4.3,5.8c0.4,0.6,0.3,0.9-0.2,1.3c-2.1,1.9-4.2,3.9-6.4,5.8c-3.2,2.9-6.1,6.2-9.6,8.9
	c-3,2.4-6.1,4.5-9.1,6.7c-0.4,0.3-0.7,0.7-0.8,1.2c-0.6,3.8-1.2,7.6-1.8,11.4c-0.2,0.6,0.1,1.3,0.7,1.5c3.2,1.8,6.6,3.1,9.7,5.1
	c1.4,0.9,3.1,0.7,4.6,1c1.8,0.3,3.6,0.9,5.4,0.6c2.6-0.2,5.1-1,7.4-2.2c3.3-2,6.9-3.4,10.6-4.4c3.2-0.7,6.3-2,9.1-3.8
	c1.9-1.1,3.8-2.4,5.4-3.9c0.3-0.3,0.7-0.7,1.2-0.1c0.3,0.3,0.6,0.1,0.9,0c1.6-0.5,3.3-0.2,4.7,0.7c1.3,0.8,2.6,1.4,4,2
	c3.5,1.5,5.1,4.4,5.8,7.9c0.3,1.7,0.2,3.4-0.1,5c0,0.1-0.1,0.3-0.1,0.4c0.8,2.4-1.2,3.2-2.7,4.1c-1.8,1.1-3.6,2.4-5.1,3.9
	c-3,2.8-4.3,6.5-5.3,10.3c-0.5,1.9-1.8,2.6-3.1,3.5c-0.6,0.4-0.7-0.2-0.9-0.5c-1.8-2.7-3.9-5.2-6.2-7.4c-1.5-1.6-3.8-2.4-6-1.9
	c-0.9,0.1-1.7,0.2-2.6,0.1c-1.4-0.1-2.7,0.1-4,0.5c-2.8,0.9-5.7,1.4-8.7,1.6c-0.9,0-1.8,0.1-2.7,0.3c-3.9,1.3-7.9,1.8-11.8,3.1
	c-1.8,0.5-3.6,0.9-5.5,1.2c-3.2,0.7-6.6,1.2-8.8,4.2c-0.9,1.2-2.4,1.7-3.6,2.6C228.3,264.9,224.7,267.7,221.1,270.7L221.1,270.7z"/>
<path class="st24" d="M337.9,189.1c0.3,5.8-1.7,11.2-3.1,16.7c-0.2,0.5-0.5,0.9-0.8,1.3c-3.7,4.5-7.9,8.6-11.7,13
	c-1,0.9-1.7,2.1-2.1,3.4c-0.4,1.6-1.8,2.3-2.9,3.2c-0.6,0.5-0.7-0.2-0.9-0.6c-0.9-2.3-2.1-4.5-3.7-6.4c-1.7-2.1-3.9-3.7-6.4-4.6
	c-1.9-0.7-1.9-0.7-0.8-2.5c3.6-6,6.8-12.2,9.6-18.7c0.6-1.6,0.8-3.4,0.6-5.1c-0.1-2.6-1.2-5.2-3-7.1c-3-3.3-5.8-6.8-8.8-10.1
	c-1.6-1.6-3.6-2.8-5.8-3.6c-1.2-0.4-2.4-0.3-3.5,0.2c-2.7,1.4-5.2,3.1-7.4,5.3c-5.5,4.9-10.5,10.3-16,15.2c-0.7,0.7-1.1,0.8-1.7-0.1
	c-4.8-7.1-10.5-13.5-16.2-19.9c-5.4-6.1-10.3-12.6-12.8-20.5c-0.6-2-0.9-4.1-0.8-6.1c0.3-4.8,1.3-9.6,2.9-14.2
	c0.4-1.1,0.7-2.2,1-3.3c0.9-3.2,2.1-6.4,3.5-9.4c1.3-2.7,2.2-5.6,3.3-8.5c1.6-4,3.5-7.7,5.3-11.5c0.9-1.7,1.7-3.5,2.4-5.4
	c0.3-0.9,0.7-1.2,1.6-0.8c2.1,1,4.3,1.9,6.5,2.7c8.2,3,14.9,8.6,21.9,13.6c7.7,5.5,13.4,12.7,18.8,20.2c1.9,2.7,2.7,6.1,3.3,9.3
	c1.8,9.6,5.2,18.6,9.2,27.4c0.5,1,1.1,2,1.7,2.9c3.5,5.2,7.8,9.9,12.7,13.8c2.9,2,4.5,5.5,4.1,9
	C337.9,188.4,337.9,188.7,337.9,189.1L337.9,189.1z"/>
<path class="st24" d="M70.7,189.1c0-0.9,0-1.8,0-2.8c0-2.5,1.1-4.8,3-6.4c1.7-1.6,3.5-3.1,5.2-4.6c3.6-3.1,6.3-7,9-10.9
	s3.9-8.3,5.6-12.6c2.2-5.6,3.8-11.5,4.9-17.4c0.7-2.6,1.5-5.2,2.5-7.8c0.3-0.7,0.7-1.4,1.2-1.9c2.1-2.7,4.2-5.3,6.3-8.1
	c2.7-3.5,5.9-6.7,9.5-9.3c3.7-2.8,7.3-5.7,11.1-8.4c4.8-3.3,9.9-6,15.4-8.1c1.6-0.7,3.3-1.3,4.9-2c0.7-0.3,1-0.2,1.3,0.5
	c1.5,4.5,4.1,8.5,5.9,12.8c1.6,3.8,3.2,7.5,4.6,11.3c1,2.7,2.5,5.3,3.3,8.1c1.2,4.5,3,8.9,3.9,13.5c0.6,3.4,1.3,6.8,0.7,10.2
	c-0.9,4.6-2.8,9-5.5,12.8c-3.7,5.5-7.8,10.6-12.4,15.4c-4.3,4.6-8.3,9.6-11.7,14.9c-0.6,0.9-0.9,1-1.8,0.2
	c-5.5-4.9-10.5-10.3-16-15.2c-1.9-1.8-4.1-3.4-6.3-4.8c-2.1-1.3-4.7-1.2-6.7,0.2c-2.1,1.2-4,2.8-5.5,4.7c-2.7,3.3-5.5,6.5-8.3,9.8
	c-0.7,0.8-1.2,1.9-1.3,3c-0.1,1.3-0.3,2.6-0.5,3.9c-0.2,1.3,0,2.5,0.5,3.7c2.9,6.7,6.2,13.2,10,19.4c0.4,0.7,0.6,1.1-0.4,1.4
	c-5.3,1.7-8.4,5.7-10.5,10.6c-0.7,1.7-0.6,1.6-2,0.5c-1.2-0.9-2.1-2.2-2.5-3.7c-0.2-0.6-0.5-1.1-1-1.4c-3.7-4.1-7.3-8.1-11.1-12.1
	c-1.5-1.6-2.5-3.5-3-5.6c-0.6-2.7-1.3-5.4-2-8.2C70.6,193,70.6,191,70.7,189.1L70.7,189.1z"/>
<path class="st24" d="M256,297v-21.4c0.1-0.8,0-1.5-0.4-2.2c-0.8-1.8-1.5-3.6-2.1-5.5c-0.8-2-0.1-3.5,1.8-4.5
	c4.6-2.7,9.9-3.3,15-4.3c2.7-0.6,5.5-0.9,8.3-1.3c2.6-0.4,5.2,1.2,6,3.7c0.5,1.4,1.8,2.5,1.7,4.2c-0.1,2,0.3,4,0.3,6
	c0.1,3.1,0.1,6.2-0.2,9.2c-0.1,0.9-0.3,1.8-0.6,2.7c-0.7,1.7-1.5,3-3.7,3.2s-4.5,0.8-6.7,1.1c-0.8,0.1-1.7,0.3-2.4,0.6
	c-2.5,1.4-5.2,2.2-7.8,3.3C262,293.3,258.9,295,256,297L256,297z"/>
<path class="st24" d="M152.3,296.8c-4.4-3-9-4.9-13.5-7c-4.3-2-9-2.2-13.4-3.4c-0.7-0.1-1.2-0.5-1.6-1.1c-1-1.6-1.6-3.5-1.7-5.4
	c-0.5-4.8,0.1-9.5,0.2-14.2c0-0.4,0.1-0.8,0.2-1.2c1.2-2.2,1.6-5,4.2-6.3c0.9-0.5,2-0.7,3-0.6c5.7,0.8,11.4,1.8,17,3.1
	c2.5,0.6,4.9,1.5,7.1,2.9c1.4,0.8,2,2.6,1.3,4.1c-0.5,1.8-1.2,3.6-2,5.4c-0.6,1.1-0.8,2.4-0.8,3.7v18.5L152.3,296.8z"/>
<path class="st24" d="M249.7,292.3c-0.4,3.2,0.7,7.7,0.5,12.2c-0.4,7.9-0.9,15.7-2.7,23.4c-0.2,0.8-0.5,1.5-1,2.2
	c-0.7,0.9-1.9,1.2-3,0.9c-1.1-0.3-1.2-1.1-1.4-2c-0.7-4-1.8-8-3.2-11.8c-2.6-7.6-4.5-15.4-7-23.1c-1-3.2-2.1-6.3-3.4-9.4
	c-0.4-1.3-1.2-2.4-2.3-3.2c-0.7-0.5-0.7-1,0.1-1.7c5.5-4.3,11-8.7,16.5-13c1-0.8,2.1-0.3,3.1-0.4c0.1,0,0.3,0.1,0.2,0.2
	c-0.3,1.1,0.7,1.2,1.3,1.6c0.8,0.5,1.3,1.5,1.3,2.5C248.8,277.6,250,284.3,249.7,292.3z"/>
<path class="st24" d="M158.9,290.9c-0.3-6.6,0.9-13.3,1-20.2c0-0.1,0-0.2,0-0.2c0.1-1,0.7-1.9,1.6-2.4c0.3-0.2,0.7-0.2,0.6-0.7
	c-0.2-0.9,0.4-0.8,1-0.9c1.4-0.2,2.4,0.5,3.4,1.3c5.2,4.2,10.5,8.3,15.7,12.4c0.8,0.6,0.7,1,0,1.5c-1.1,0.8-1.9,2-2.3,3.3
	c-2.3,5.6-4.2,11.2-5.7,17c-1.9,7.3-4.6,14.3-6.6,21.5c-0.5,1.8-0.9,3.6-1.2,5.4c-0.1,1-0.4,1.9-1.5,2.1c-1.2,0.3-2.4-0.2-3.1-1.1
	c-0.4-0.6-0.7-1.2-0.8-1.9c-1-4.1-1.7-8.3-2.1-12.5c-0.2-2.8-0.4-5.6-0.6-8.4c-0.2-2.9-0.2-5.8,0.2-8.6
	C158.9,296,159,293.4,158.9,290.9L158.9,290.9z"/>
<path class="st24" d="M208.4,292.6c-0.4-1.3,0.3-2.6,1.6-3.1c0,0,0.1,0,0.1,0c2.2-0.9,4.1-2.4,6.3-3.2c2.9-1.1,4.9-0.4,6,2.6
	c1.4,3.9,2.6,7.9,3.6,11.9c0.9,3.7,1.8,7.4,2.7,11c0.2,0.8,0.1,1.4-0.7,1.7s-1.8,1-2.7,1.5c-3.8,1.8-7.5,4-10.8,6.6
	c-0.8,0.6-1.9,0.7-2.9,0.5c-0.6-0.1-0.4-0.7-0.4-1.1c-0.1-3.8-0.2-7.7-0.4-11.5c-0.2-5-0.9-9.9-2.1-14.7
	C208.5,294.2,208.4,293.4,208.4,292.6L208.4,292.6z"/>
<path class="st24" d="M200.1,292.3c0.3,2.1-0.4,3.5-0.7,5.1c-1.5,7.6-1.7,15.2-1.9,22.9c0,0.6,0.3,1.5-0.3,1.8
	c-1,0.4-2.1,0.3-2.9-0.4c-1.4-1.2-3-2-4.4-3c-2.9-2.1-6.3-3.2-9.2-5.1c-0.6-0.3-0.9-0.9-0.6-1.5c1.9-7.4,3.4-14.9,5.9-22.1
	c0.2-0.7,0.5-1.4,0.8-2c1.3-2.2,2.9-2.7,5.3-1.7c2.6,1.1,5,2.6,7.5,3.9C200.8,290.8,199.9,291.9,200.1,292.3L200.1,292.3z"/>
</svg>
