<svg enable-background="new 0 0 113.4 113.4" viewBox="0 0 113.4 113.4" xmlns="http://www.w3.org/2000/svg"><circle cx="56.7" cy="56.7" fill="#ef7d00" r="56.7"/><circle cx="56.7" cy="56.7" fill="#fff" r="49.8"/><path d="m21.3 58.8c1.4 2.3 3.2 4.2 5.3 5.8 4.8 3.5 10.2 5.2 16 6.2 8 1.3 15.9 1.2 23.6-1.4 3-1 5.8-2.5 8-4.9 1.7-1.9 2.7-4.1 2.8-6.6s-.9-4.4-3.2-5.6c-1.3-.6-2.6-1.2-3.9-1.8-.4-.2-.9-.3-1.2-.9 1.2-.5 2.3 0 3.4.1 2 .2 4 .7 5.9 1.4 3.6 1.4 6.1 4 7.4 7.5 1.4 3.7 0 7.7-3.5 10.5-3.7 3-8.1 4.3-12.7 5.1-6.1 1-12.3 1.5-18.5 1.2-7.3-.6-14.4-2-20.9-5.4-2-1-3.8-2.3-5.3-3.9-1.8-1.8-2.8-4-3.3-6.4-.1-.2-.2-.5.1-.9z" fill="#ef7d00"/><path d="m93 54.5c-1.4-2-3-3.9-5-5.4-4.5-3.4-9.7-5.3-15.2-6.3-7.6-1.4-15.2-1.5-22.8.5-3.4.9-6.6 2.3-9.3 4.8s-3.9 5.5-3.4 9.1c.2 1.3.9 2.3 1.9 3.1 1.3 1 2.9 1.6 4.4 2.3.4.2.9.4 1.3.6.2.1.4.2.3.4s-.3.2-.5.2c-5.8.8-13-2.9-15.6-8-1.7-3.4-1.2-7.1 1.4-9.9 3.3-3.7 7.7-5.3 12.3-6.3 6.7-1.4 13.5-2 20.2-1.6 7.4.4 14.7 1.8 21.3 5.3 3 1.6 5.7 3.6 7.4 6.8.8 1.4 1.1 2.9 1.3 4.4z" fill="#ef7d00"/><path d="m31.6 91.6c-.2.6-.5 1.1-1.1.7-1-.6-1.8-1.3-2.7-2.1-.4-.3-.1-.7.1-.9.2-.3.5-.7.8-.5 1 .7 2 1.4 2.7 2.4.2.2.2.3.2.4z"/><path d="m56.6 3c-29 0-53.6 23.2-53.7 53.7 0 30.6 24.9 53.8 53.8 53.7 28.9.1 53.7-23.2 53.7-53.8-.1-30.5-24.7-53.7-53.8-53.6zm-26.6 42.2c2.6-2.9 6-4.5 9.6-5.6 4.5-1.4 9.1-1.9 13.8-2.2 2.2-.2 4.4-.3 6.6-.3 8.6.1 17 1.5 24.7 5.4 2.1 1.1 4 2.4 5.6 4.1 2.7 2.8 3.7 6.3 3.9 10 0 .4.1 1-.5 1.1-.5.1-.7-.4-.8-.7-2.3-5.5-6.6-8.7-11.9-10.8-10.6-4.2-21.5-4.9-32.5-1.6-3.4 1-6.5 2.7-8.7 5.6-1.3 1.7-1.9 3.6-1.9 5.7 0 1.8.8 3.1 2.2 4 1 .6 2 1 3.1 1.5.9.4 1.9.8 2.7 1.4.4.3.8.6.7 1.1s-.6.7-1 .7c-6.5.1-13.2-1.3-17-7.5-2.2-3.9-1.8-8.4 1.4-11.9zm30.5 10.2c.7 2.1-.3 4.5-2.3 5.9-2.8 1.9-6 2.2-9.3 1.8-.1 0-.2-.1-.3-.2.7-.7 1.5-1 2.3-1.4.8-.5 1.6-1 2.3-1.6.8-.7 1.2-1.6 1.1-2.7-.6-4.1 1.8-6 4.5-7 1.7-.7 3.4-1 5.5-.8-.9.7-1.7 1.2-2.3 1.8-1.4 1-2.1 2.3-1.5 4.2zm-40.3.2c.5-.1.7.3.8.7 2.5 5.9 7.3 9.2 13 11.3 10.3 3.8 20.9 4.3 31.5 1.1 3.1-1 5.9-2.5 8.2-5 1.5-1.7 2.2-3.6 2.4-5.8.1-2.3-1-3.9-3-4.9-1.4-.7-2.9-1.3-4.3-2-.6-.3-1.6-.6-1.4-1.5.2-1 1.2-.8 2-.8 3.3 0 6.5.6 9.5 1.9 3.6 1.5 6.1 4.2 7.5 7.8 1.5 3.8.2 8-3.2 11-3.2 2.8-7.1 4.3-11.2 5.3-5.8 1.3-11.6 1.6-18.4 1.8-7.9-.1-16.4-1.5-24.4-5.6-1.8-.9-3.4-2.1-4.8-3.4-3-2.8-4.1-6.5-4.5-10.5-.2-.7-.2-1.2.3-1.4z"/><path d="m56.6 3c-29 0-53.6 23.2-53.7 53.7 0 30.6 24.9 53.8 53.8 53.7 28.9.1 53.7-23.2 53.7-53.8-.1-30.5-24.7-53.7-53.8-53.6zm-26.6 42.2c2.6-2.9 6-4.5 9.6-5.6 4.5-1.4 9.1-1.9 13.8-2.2 2.2-.2 4.4-.3 6.6-.3 8.6.1 17 1.5 24.7 5.4 2.1 1.1 4 2.4 5.6 4.1 2.7 2.8 3.7 6.3 3.9 10 0 .4.1 1-.5 1.1-.5.1-.7-.4-.8-.7-2.3-5.5-6.6-8.7-11.9-10.8-10.6-4.2-21.5-4.9-32.5-1.6-3.4 1-6.5 2.7-8.7 5.6-1.3 1.7-1.9 3.6-1.9 5.7 0 1.8.8 3.1 2.2 4 1 .6 2 1 3.1 1.5.9.4 1.9.8 2.7 1.4.4.3.8.6.7 1.1s-.6.7-1 .7c-6.5.1-13.2-1.3-17-7.5-2.2-3.9-1.8-8.4 1.4-11.9zm30.5 10.2c.7 2.1-.3 4.5-2.3 5.9-2.8 1.9-6 2.2-9.3 1.8-.1 0-.2-.1-.3-.2.7-.7 1.5-1 2.3-1.4.8-.5 1.6-1 2.3-1.6.8-.7 1.2-1.6 1.1-2.7-.6-4.1 1.8-6 4.5-7 1.7-.7 3.4-1 5.5-.8-.9.7-1.7 1.2-2.3 1.8-1.4 1-2.1 2.3-1.5 4.2zm-40.3.2c.5-.1.7.3.8.7 2.5 5.9 7.3 9.2 13 11.3 10.3 3.8 20.9 4.3 31.5 1.1 3.1-1 5.9-2.5 8.2-5 1.5-1.7 2.2-3.6 2.4-5.8.1-2.3-1-3.9-3-4.9-1.4-.7-2.9-1.3-4.3-2-.6-.3-1.6-.6-1.4-1.5.2-1 1.2-.8 2-.8 3.3 0 6.5.6 9.5 1.9 3.6 1.5 6.1 4.2 7.5 7.8 1.5 3.8.2 8-3.2 11-3.2 2.8-7.1 4.3-11.2 5.3-5.8 1.3-11.6 1.6-18.4 1.8-7.9-.1-16.4-1.5-24.4-5.6-1.8-.9-3.4-2.1-4.8-3.4-3-2.8-4.1-6.5-4.5-10.5-.2-.7-.2-1.2.3-1.4z"/><g fill="#fff"><path d="m12.5 68.7c-.4-1.4-.2-2.2.7-2.5l.3-.1c.9-.3 1.5.3 1.9 1.7l.2.7v.3c-.1.1-.1.1-.3.1-.1 0-.2 0-.3 0s-.1-.1-.2-.2l-.2-.7c-.1-.4-.3-.7-.4-.8-.2-.1-.3-.2-.5-.1l-.3.1c-.2 0-.3.2-.3.4-.1.2 0 .5.1.9l.5 1.7c.4 1.4.2 2.2-.7 2.5l-.4.1c-.9.3-1.5-.3-1.9-1.7l-1-3.5c0-.1 0-.2 0-.3.1-.1.1-.1.3-.1h.3c.1 0 .1.1.2.2l1 3.5c.1.4.3.7.4.8.2.1.3.2.5.1l.4-.1c.2 0 .3-.2.3-.4.1-.2 0-.5-.1-.9z"/><path d="m14.1 73.9-.8.4c-.1.1-.2.2-.2.4s.1.5.2.9l1.5 3.2c0 .1.1.2 0 .3 0 .1-.1.1-.2.2s-.2.1-.3.1-.1-.1-.2-.2l-1.5-3.2c-.6-1.3-.5-2.2.3-2.6l2.4-1.1c.8-.4 1.6.1 2.2 1.4l.5 1v .2c0 .1-.1.1-.2.2s-.2.1-.3.1-.1-.1-.2-.2l-.4-1c-.2-.4-.4-.7-.5-.8-.2-.1-.3-.2-.5-.1l-1.1.5 2 4.4c0 .1.1.2 0 .3 0 .1-.1.1-.2.2s-.2.1-.3.1-.1-.1-.2-.2z"/><path d="m15.9 82.2c-.8-1.2-.8-2.1 0-2.6l2.2-1.4c.8-.5 1.6-.1 2.4 1.1l2 3c .1.1.1.2 0 .3 0 .1-.1.1-.2.2s-.2.1-.3.1-.1 0-.2-.1l-2-3c-.2-.4-.5-.6-.7-.7s-.4-.1-.5 0l-2.2 1.4c-.1.1-.2.2-.2.5 0 .2.1.5.4.9l2 3c .1.1.1.2 0 .2 0 .1-.1.1-.2.2s-.2.1-.3.1-.1 0-.2-.1z"/><path d="m20.1 88c-1-1.1-1.1-1.9-.4-2.6l2.7-2.5c.1-.1.2-.1.3-.1s.2.1.3.2.2.2.2.3 0 .2-.1.3l-2.7 2.5c-.1.1-.2.3-.1.5 0 .2.2.5.5.8l1.5 1.7c.3.3.5.5.8.6s.4.1.5-.1l2.7-2.5c.1-.1.2-.1.3-.1s.2.1.3.2.2.2.2.3 0 .2-.1.3l-2.7 2.5c-.7.6-1.5.4-2.5-.7z"/><path d="m27.1 88.2c.1-.2.3-.2.5 0l3.2 2.6c.3.2.5.4.7.6s.3.4.4.6.1.4.1.6-.1.3-.2.5l-.6.7c-.1.1-.3.2-.4.3-.2.1-.4.1-.6 0-.2 0-.4-.1-.7-.2-.2-.1-.5-.3-.8-.5l-.2-.2c-.2-.1-.3-.3-.4-.4s-.2-.2-.3-.3-.2-.2-.3-.2c-.1-.1-.1-.1-.2-.2 0 .1.1.1.1.2.1.1.1.2.2.3s.2.3.3.4c.1.2.2.4.4.7l.9 1.7c.1.1.1.3 0 .4s-.2.1-.3.1-.2-.1-.3-.2c0 0-.1 0-.1-.1l-.1-.1-.1-.1-.1-.1-2.2-4.2-1 1.3c-.1.1-.2.2-.3.1-.1 0-.2-.1-.3-.2s-.2-.2-.2-.3 0-.2.1-.3zm.5.9-1.1 1.4 2.7 2.2c.2.2.4.3.5.4s.3.1.4.2h.3s.1-.1.2-.1l.5-.6c0-.1.1-.1.1-.2s0-.2-.1-.2c-.1-.1-.1-.2-.2-.3s-.3-.3-.5-.4z"/><path d="m31 97c-.1.1-.2.2-.3.2s-.2-.1-.3-.1c-.1-.1-.2-.2-.3-.3 0-.1 0-.2 0-.3l2.6-4c .1-.1.2-.2.3-.2s.2.1.3.1l.3.3v.3z"/><path d="m36.6 95.3-2 3.8c-.1.1-.1.2-.2.2s-.2 0-.4-.1c-.1-.1-.2-.2-.3-.2-.1-.1 0-.2 0-.3l2-3.8-2-1c-.1-.1-.2-.1-.2-.2s0-.2.1-.3.1-.2.2-.2.1 0 .3 0l4.8 2.6c.1.1.2.1.2.2s0 .2-.1.3-.1.2-.2.2-.1 0-.3 0z"/><path d="m41.1 96.4c.1.1.2.1.3.2s.1.2.1.3l1.3 5.5v.2c0 .1-.1.1-.1.1s-.1.1-.2.1-.1 0-.2 0-.1 0-.2 0-.1-.1-.2-.1c0 0-.1-.1-.1-.2l-.4-1.5-3.8-1.5-1.2.9c-.1 0-.1.1-.2.1s-.1 0-.2 0-.1-.1-.2-.1-.1-.1-.1-.1c0-.1-.1-.1-.1-.2s0-.1 0-.2l.1-.1 4.5-3.2c.1-.1.2-.1.3-.1.4-.1.5-.1.6-.1zm-2.5 2.5 2.9 1.1-.6-2.7z"/><path d="m46.4 99-1 4.1c0 .1-.1.2-.2.2s-.2 0-.4 0-.3-.1-.3-.2c-.1-.1-.1-.2-.1-.3l1-4.1-2.2-.5c-.1 0-.2-.1-.2-.2s0-.2 0-.3.1-.2.1-.3c.1-.1.1-.1.3 0l5.3 1.3c.1 0 .2.1.2.2v.3c0 .1-.1.2-.1.3-.1.1-.1.1-.3 0z"/><path d="m49.5 102-.1.9c0 .2.1.3.2.4.2.1.5.2.9.3l3.5.4c.1 0 .2.1.2.1v.3c0 .1 0 .2-.1.3 0 .1-.1.1-.2.1l-3.5-.4c-1.5-.2-2.1-.7-2-1.6l.3-2.6c.1-.9.9-1.3 2.3-1.1l1.1.1c.1 0 .2.1.2.1v.3s0 .2-.1.3-.1.1-.2.1l-1.1-.1c-.4 0-.8 0-1 .1s-.3.2-.3.4l-.1.9 4.8.5c.1 0 .2.1.2.1v.3s0 .2-.1.3c0 .1-.1.1-.2.1z"/><path d="m60.7 101.6c.1 0 .2 0 .2.1s.1.2.1.3 0 .2 0 .3-.1.1-.2.1l-2.8.2c-.1 0-.2 0-.2-.1s-.1-.2-.1-.3 0-.2 0-.3.1-.1.2-.1z"/><path d="m66.8 99 .9 4.1c0 .1 0 .2-.1.3s-.2.1-.3.1c-.2 0-.3 0-.4 0s-.2-.1-.2-.2l-.9-4.1-2.2.5c-.1 0-.2 0-.2 0-.1-.1-.1-.1-.1-.3 0-.1 0-.2 0-.3s.1-.1.2-.1l5.3-1.2h.2s.1.2.1.3 0 .2 0 .3-.1.1-.2.1z"/><path d="m73.2 101.9c-1.4.5-2.2.4-2.5-.5l-1.3-3.4c-.1-.1 0-.2 0-.3.1-.1.2-.1.3-.2.2-.1.3-.1.4-.1s.2.1.2.2l1.3 3.4c.1.1.2.2.4.3.2 0 .5 0 .9-.2l2.1-.8c.4-.2.7-.3.8-.5s.2-.3.1-.5l-1.3-3.4c-.1-.1 0-.2 0-.3.1-.1.2-.1.3-.2s.3-.1.4-.1.2.1.2.2l1.3 3.4c.3.9-.2 1.5-1.5 2.1z"/><path d="m83.7 96.6c-.1 0-.1.1 0 0l-.2.1h-.1c-.1 0-.1 0-.2 0l-5.9-1 1.9 3.3c.1.1.1.2 0 .3 0 .1-.1.2-.3.2-.1.1-.3.1-.3.1s-.2-.1-.3-.2l-2.4-4.1c-.1-.1-.1-.2 0-.3 0-.1.1-.2.3-.2.1-.1.3-.1.4-.1h.4l5.9 1-1.9-3.3c-.1-.1-.1-.2 0-.3 0-.1.1-.2.3-.2.1-.1.3-.1.4-.1s.2.1.3.2l2.4 4.1c.1.1.1.2 0 .3-.5 0-.6.1-.7.2z"/><path d="m89.3 90.3c.3.4.4.8.2 1.2-.1.4-.5.8-1.1 1.3l-1.7 1.4c-1.1.9-2 1-2.6.3l-1.7-2c-.6-.7-.3-1.5.8-2.5l.8-.7c.1-.1.2-.1.2-.1s.1.1.2.2.1.2.1.3 0 .2-.1.2l-.8.6c-.3.3-.5.5-.6.7s-.1.4 0 .5l1.7 2c .1.1.3.2.5.1.2 0 .5-.2.8-.5l1.7-1.4c.3-.3.5-.5.6-.7s.1-.4 0-.5l-.8-1c-.1-.1-.1-.2-.1-.3s.1-.2.2-.3.2-.2.3-.2.2 0 .3.1z"/><path d="m92.3 89c-1 1.1-1.8 1.4-2.5.8l-2.8-2.4c-.1-.1-.2-.2-.1-.3 0-.1.1-.2.2-.3s.2-.2.3-.2.2 0 .3.1l2.8 2.4c.1.1.3.1.5 0s .5-.3.7-.6l1.5-1.7c.3-.3.4-.6.5-.8s0-.4-.1-.5l-2.8-2.4c-.1-.1-.2-.2-.1-.3 0-.1.1-.2.2-.3s.2-.2.3-.2.2 0 .3.1l2.8 2.4c.7.6.6 1.5-.4 2.6z"/><path d="m95.1 81.6c-.8 1.2-1.6 1.6-2.3 1.1l-.2-.2c-.8-.5-.8-1.3 0-2.6l.4-.6c.1-.1.1-.1.2-.1s.2 0 .3.1.2.1.2.2v.3l-.4.6c-.2.4-.3.7-.3.9s.1.4.2.4l.2.2c.1.1.3.1.5 0s .4-.3.6-.7l.9-1.5c.8-1.2 1.6-1.6 2.3-1.1l.3.2c.8.5.8 1.4 0 2.6l-1.9 3.1c-.1.1-.1.1-.2.1s-.2 0-.3-.1-.2-.1-.2-.2 0-.2 0-.3l1.9-3.1c.2-.4.3-.7.3-.9s-.1-.4-.2-.4l-.3-.2c-.1-.1-.3-.1-.5 0s-.4.3-.6.7z"/><path d="m97.1 76.5-.4-4.4c0-.1 0-.2 0-.2 0-.1.1-.2.1-.4 0-.1.1-.2.2-.2s.2-.1.3 0 .2.2.2.4l.2 4.4 3.5-2.9c.1-.1.3-.1.4-.1s.2.1.2.2v.3c-.1.2-.1.3-.2.3 0 .1-.1.1-.2.2l-3.6 2.8 1.7.8c.1.1.2.1.2.2s0 .2-.1.4c-.1.1-.1.2-.2.3s-.2.1-.3 0l-4.3-1.9c-.1-.1-.2-.1-.2-.2s0-.2.1-.4c.1-.1.1-.3.2-.3.1-.1.2-.1.3 0z"/><path d="m98 67.6c0-.1.1-.2.2-.3l.2-.2 5.3-2h .2c.1 0 .1 0 .1.1 0 0 .1.1.1.2v.2.2c0 .1 0 .1-.1.2l-.1.1-1.5.5-1 4 1 1.1s.1.1.1.2v.2c0 .1 0 .1-.1.2 0 .1-.1.1-.1.1s-.1.1-.2.1-.1 0-.2 0c0 0-.1 0-.1-.1l-3.7-4.1c-.1-.1-.1-.2-.1-.3 0-.2 0-.3 0-.4zm2.7 2.2.8-3-2.6.9z"/></g></svg>