<?xml version="1.0" encoding="UTF-8"?>
<svg id="uuid-e7f3f72d-f693-4bf3-8cc2-7f1371e59fe4" xmlns="http://www.w3.org/2000/svg" version="1.1" viewBox="0 0 558.9 633.1">
  <!-- Generator: Adobe Illustrator 29.0.1, SVG Export Plug-In . SVG Version: 2.1.0 Build 192)  -->
  <defs>
    <style>
      .st0 {
        fill: #f6f6f6;
      }

      .st1 {
        fill: #fff;
      }

      .st2 {
        isolation: isolate;
      }

      .st3 {
        fill: #cc1333;
      }
    </style>
  </defs>
  <ellipse class="st0" cx="279.5" cy="293.4" rx="279.5" ry="279.2"/>
  <g>
    <path class="st3" d="M544.4,263.3c-14.4-132.8-127.7-236.5-265-236.5S28.9,130.5,14.5,263.3h81.1c13.7-87.4,90.5-154.7,182.4-154.5,91.8.2,167.6,67.2,181.4,154.5h85,0Z"/>
    <path class="st3" d="M279.5,559.9c137.3,0,250.7-103.8,265-236.7h-85c-13.7,88-90,155-182.1,154.8-92.3-.2-167.8-66.9-181.6-154.8H14.5c14.3,132.9,127.7,236.7,265,236.7h0Z"/>
    <path class="st3" d="M555.7,323.2h-7.2c-6.4,61.1-33.4,117.8-77.7,161.9-51.1,50.8-119,78.8-191.3,78.8s-140.2-28-191.3-78.8c-44.3-44.1-71.3-100.7-77.7-161.9H1.7c14.3,140.1,133.2,249.4,277.8,249.4s263.5-109.3,277.8-249.4h-1.6Z"/>
    <path class="st3" d="M10.5,263.3c6.5-61,33.5-117.6,77.7-161.6,51.1-50.8,119-78.8,191.3-78.8s140.2,28,191.3,78.8c44.2,44,71.2,100.6,77.7,161.6h8.8C542.8,123.3,424,14.2,279.5,14.2S16.1,123.3,1.7,263.3h8.8Z"/>
  </g>
  <g class="st2">
    <g class="st2">
      <path class="st1" d="M144.2,476.1l-13.2-10.7c-.4-.3-.7-.4-1.1-.5-.4,0-.7,0-.9,0-.3,0-.5.2-.6.4-.2.2-.2.4-.3.7,0,.3,0,.6.1.9.1.3.4.7.7,1l8.1,6.6c1.3,1.1,2.1,2.3,2.5,3.6.4,1.3.5,2.4.2,3.5-.2,1.1-.7,2-1.3,2.7-.6.8-1.4,1.4-2.4,1.8-1,.4-2.1.6-3.5.5s-2.7-.7-4-1.8h-.2c-.1-.2-.3-.3-.4-.4l-12.6-10.2,3.1-3.8,13.3,10.8c.3.3.7.5,1.1.5.4,0,.7,0,1,0s.5-.3.7-.5c.1-.1.2-.4.3-.7,0-.3,0-.7,0-1-.1-.3-.3-.7-.7-1l-8.1-6.6c-1.3-1.1-2.1-2.3-2.6-3.6-.4-1.3-.5-2.4-.3-3.5.2-1,.6-1.9,1.3-2.7.6-.7,1.4-1.3,2.4-1.7,1-.4,2.1-.6,3.4-.4,1.3.1,2.7.7,4,1.7h.2c.1.2.3.3.4.4l12.5,10.2-3.1,3.8Z"/>
    </g>
  </g>
  <g class="st2">
    <g class="st2">
      <path class="st1" d="M156.4,478.3l1.4.9,12.3,7.7-2.6,4.2-12.7-8c-.8-.5-1.7-.6-2.5-.3-.9.2-1.6.6-2.3,1.2-.7.6-1.3,1.2-1.7,2-.5.7-.8,1.6-1,2.4-.2.9-.2,1.7,0,2.6.2.9.6,1.6,1.4,2.1l12.7,8-2.6,4.2-13.1-8.3-.6-.4c-1.4-1-2.2-2.3-2.5-3.9-.3-1.6-.2-3.2.2-4.8.4-1.6,1.1-3,1.9-4.4.9-1.4,1.9-2.6,3.1-3.6,1.2-1,2.6-1.8,4.2-2.2,1.6-.4,3.1-.2,4.6.6ZM163,497.9l-12.7-8,2.6-4.2,12.7,8-2.6,4.2Z"/>
    </g>
  </g>
  <g class="st2">
    <g class="st2">
      <path class="st1" d="M184.2,492.6c1.2.5,2.2,1.2,3.2,2,1,.8,1.9,1.7,2.6,2.7.8,1,1.3,2.1,1.7,3.4.4,1.2.3,2.5-.2,3.7l-.7,1.4-5.9,12.4-4.5-2.1,6-12.8c.3-.7.3-1.4,0-2.1-.3-.7-.6-1.3-1.1-1.8-.5-.5-1-1-1.5-1.5-.6-.4-1.2-.8-1.8-1.1s-1.3-.5-2-.7c-.7-.2-1.4-.3-2.1-.3-.7,0-1.4,0-2.1.3-.7.2-1.2.7-1.6,1.3l-6,12.8-4.4-2.1,5.9-12.4.7-1.4c.6-1.2,1.5-2,2.7-2.5,1.2-.5,2.4-.8,3.7-.8,1.3,0,2.5,0,3.8.3,1.2.3,2.4.7,3.6,1.2Z"/>
    </g>
  </g>
  <g class="st2">
    <g class="st2">
      <path class="st1" d="M202.8,501.5l-6.8,20.7-4.7-1.6,6.8-20.7,4.7,1.6ZM204.6,508.3c1.9-.5,4.4-.9,7.4-1.1l9.5-.6-1.7,5.2-6.7.2c-1.1,0-2.1.1-3.1.2-1,0-1.9.2-2.7.5-.8.2-1.4.5-1.6,1.1-.1.5,0,1.1.6,1.8.5.7,1.2,1.4,1.9,2,.7.6,1.5,1.3,2.3,2l5.5,4.3-1.7,5.3-7.5-6.4c-2.3-1.9-4.1-3.7-5.3-5.3-1.2-1.6-1.5-3.4-.9-5.4.7-2,2-3.3,3.9-3.8Z"/>
    </g>
  </g>
  <g class="st2">
    <g class="st2">
      <path class="st1" d="M231.2,532.7c-1.2-.3-2.4-.6-3.6-1.2-1.2-.5-2.2-1.2-3.2-2-1-.8-1.8-1.7-2.5-2.8-.7-1.1-.9-2.3-.7-3.6l.3-1.5,2.7-13.3,4.8,1-2.8,13.7c-.1.8,0,1.4.5,2,.4.6.9,1.1,1.5,1.5.6.4,1.2.8,1.8,1,.7.3,1.3.5,2,.6.7.1,1.4.2,2.1.2.7,0,1.4,0,2.1-.2.7-.2,1.3-.4,2-.8.6-.4,1-.9,1.2-1.7l2.8-13.7,4.9,1-2.7,13.3-.3,1.5c-.3,1.3-1,2.3-2.1,3.1-1,.8-2.2,1.3-3.4,1.7-1.2.3-2.5.5-3.7.6-1.3,0-2.5,0-3.8-.3Z"/>
    </g>
  </g>
  <g class="st2">
    <g class="st2">
      <path class="st1" d="M261.7,514.7l25.5.6v4.9c-.1,0-10.4-.3-10.4-.3l-.4,16.8h-5c0-.1.4-16.9.4-16.9l-10.3-.3v-4.9Z"/>
    </g>
  </g>
  <g class="st2">
    <g class="st2">
      <path class="st1" d="M297.8,536.2l-4.9.5-2-19.2c0-.7.2-1.3.6-1.8.4-.5,1-.8,1.7-.9l1.8-.2,4.5-.5,9-.9c.1,0,.3,0,.4,0h.2c1.7-.1,3.1,0,4.3.7,1.2.6,2,1.4,2.6,2.3.6.9.9,1.8,1,2.8.1,1,0,2-.4,2.9-.4,1-1.1,1.9-2.1,2.7-1,.8-2.4,1.4-4.1,1.6l-6.4.7c.3,1.2.8,2.1,1.5,2.6.6.5,1.4.7,2.3.6l9.9-1,.5,4.9-10.6,1.1c-1.8.2-3.5-.3-5.1-1.6-1.6-1.3-2.7-2.9-3.2-4.8-.7-2.1-1-3.4-1-3.6,0-.7.1-1.3.5-1.8s1-.8,1.7-.9l9.6-1c.5,0,.8-.2,1.1-.4.3-.2.5-.4.6-.7.1-.2.2-.5.1-.7s-.1-.5-.3-.7c-.2-.2-.4-.4-.7-.5-.3-.2-.7-.2-1.2-.2l-9.9,1-2.9.3c-.6,0-.9.4-.9,1l1.6,15.7Z"/>
    </g>
  </g>
  <g class="st2">
    <g class="st2">
      <path class="st1" d="M338.3,507.4c1.2-.3,2.4-.1,3.5.4,1.1.5,2.1,1.2,2.9,2.1.8.9,1.5,1.9,2.1,2.9.6,1.1,1,2.2,1.3,3.4.4,1.6.5,3.2.4,4.8-.1,1.6-.6,3.2-1.4,4.6-.8,1.4-2.1,2.4-3.7,2.9l-12.5,3c-1.7.3-3.2,0-4.6-.9-1.4-.9-2.5-2.1-3.3-3.5-.8-1.4-1.4-2.9-1.8-4.5s-.5-3.2-.4-4.8c.1-1.6.6-3.2,1.4-4.6.8-1.4,2.1-2.4,3.7-2.9l.7-.2,11.1-2.7.7-.2ZM341,524c.9-.3,1.6-.8,2-1.6.5-.8.7-1.6.8-2.5,0-.9,0-1.8-.2-2.6-.2-.9-.5-1.7-1-2.4-.5-.8-1.1-1.4-1.8-1.9-.7-.5-1.6-.7-2.5-.5l-10.1,2.4c-.9.3-1.6.8-2,1.6-.4.8-.7,1.6-.8,2.5,0,.9,0,1.8.2,2.6.2.9.5,1.7,1,2.4.5.8,1.1,1.4,1.8,1.9s1.6.6,2.5.5l10.1-2.4Z"/>
    </g>
  </g>
  <g class="st2">
    <g class="st2">
      <path class="st1" d="M367.1,497.5c1.2-.4,2.4-.5,3.5-.1,1.2.4,2.2.9,3.2,1.7.9.8,1.8,1.6,2.5,2.6s1.3,2.1,1.7,3.2c.6,1.5.9,3.1,1,4.7,0,1.6-.2,3.2-.8,4.7-.6,1.5-1.7,2.7-3.3,3.4l-11.9,4.7c-1.6.6-3.2.5-4.7-.2-1.5-.7-2.8-1.7-3.8-3-1-1.3-1.8-2.7-2.4-4.2-.6-1.5-.9-3.1-1-4.7-.1-1.6.1-3.2.8-4.8.6-1.5,1.7-2.7,3.3-3.3l.6-.3,10.6-4.2.6-.3ZM372,513.5c.8-.4,1.4-1,1.8-1.8.3-.8.5-1.7.4-2.6s-.3-1.8-.6-2.6-.8-1.6-1.3-2.3c-.6-.7-1.3-1.2-2.1-1.6-.8-.4-1.7-.4-2.5-.2l-9.7,3.8c-.8.4-1.4,1-1.8,1.8-.3.8-.5,1.7-.4,2.6,0,.9.2,1.7.5,2.6.3.8.8,1.6,1.3,2.3.6.7,1.3,1.2,2.1,1.6.8.4,1.7.4,2.6.1l9.7-3.8Z"/>
    </g>
  </g>
  <g class="st2">
    <g class="st2">
      <path class="st1" d="M391.8,509.9l-4.3,2.4-9.3-17c-.3-.6-.4-1.2-.1-1.9.2-.6.6-1.1,1.2-1.4l13.5-7.4c1.9-1,3.6-1.3,5-1.1,1.4.2,2.6.7,3.5,1.4s1.7,1.6,2.3,2.6c.6,1,.9,2.1,1,3.3.1,1.2-.1,2.4-.7,3.7s-1.6,2.3-3.1,3.2l-9.9,5.4-2.4-4.3,10.1-5.5c.4-.2.7-.5.8-1,.1-.4.1-.8,0-1.3,0-.4-.2-.8-.4-1.2-.2-.3-.4-.7-.8-.9s-.7-.5-1.1-.6c-.4-.1-.8,0-1.3.1l-11.3,6.2c-.5.3-.7.8-.4,1.3l7.7,13.9Z"/>
    </g>
  </g>
  <g class="st2">
    <g class="st2">
      <path class="st1" d="M424.4,469l-13.8,10c-.4.3-.6.6-.8.9-.1.3-.2.6-.2.9,0,.3,0,.5.2.7.1.2.3.3.6.4.3.1.6.1.9.1s.7-.2,1.1-.4l8.4-6.1c1.4-1,2.8-1.5,4.1-1.5,1.3,0,2.5.2,3.4.7,1,.5,1.7,1.2,2.3,2,.6.8.9,1.7,1.1,2.8.2,1.1,0,2.2-.4,3.5s-1.4,2.4-2.8,3.4h-.2c-.1.2-.2.3-.3.4l-13.1,9.5-2.9-4,13.8-10.1c.4-.3.7-.5.8-.9.1-.3.2-.7.1-.9,0-.3-.1-.5-.3-.8,0-.1-.3-.3-.6-.4-.3-.2-.6-.2-1-.2-.4,0-.7.2-1.1.4l-8.4,6.1c-1.4,1-2.8,1.5-4.1,1.5-1.3,0-2.5-.1-3.4-.6-.9-.5-1.7-1.1-2.3-1.9-.6-.8-.9-1.7-1.1-2.7s0-2.2.4-3.4c.5-1.2,1.4-2.4,2.7-3.4h.2c.1-.2.2-.3.3-.4l13.1-9.5,2.9,4Z"/>
    </g>
  </g>
  <g class="st2">
    <g class="st2">
      <path class="st1" d="M160,95.3c.8-6.2.7-12.3-.3-18.4l6.7-1.6c.3,1.2.5,2.8.8,4.8l7-3.3-2.7-5.7,6.9-3.2,2.7,5.7,15.3-7.2,2.6,5.5-15.3,7.2,3.6,7.6,18.4-8.6,2.7,5.7-13.2,6.2,6,12.8c.5,1,1,1.6,1.4,1.6s1.6-.4,3.3-1.2c1.8-.9,2.7-1.7,2.8-2.6,0-.9-.8-3.5-2.5-7.8l6.2-2.3c1,2.4,1.7,4.3,2.3,5.7.5,1.4.9,2.7,1.1,4,.2,1.3.2,2.3.1,2.9-.1.6-.5,1.3-1.2,2.1-.7.8-1.5,1.4-2.4,1.9-.9.5-2.2,1.1-3.9,1.9-1.9.9-3.4,1.6-4.6,2-1.2.4-2.2.7-3.1.9-.9.2-1.7,0-2.3-.3-.6-.4-1.1-.9-1.6-1.5-.5-.6-1-1.6-1.6-2.8l-6.7-14.2-4.6,2.2c4.1,11.7,1.2,21.7-8.6,30.2l-5.3-4.6c3.7-3.1,6.2-6.7,7.5-10.6,1.3-4,1.3-7.9,0-11.9l-14.3,6.7-2.7-5.7,20-9.4-3.6-7.6-9.1,4.3c0,3-.1,5.9-.5,8.6h-7.2Z"/>
    </g>
  </g>
  <g class="st2">
    <g class="st2">
      <path class="st1" d="M234.7,92.8c-.4-1.5-1.4-4.1-2.9-7.9l2.8-1-.2-1.1-15.8,2.7-5.2-29.9,20.7-3.6,1,5.7-4.2.7.5,3.2,3.6-.6.8,4.6-3.6.6.5,3.2,3.5-.6.8,4.6-3.5.6.6,3.2,4.7-.8.9,5.5c.9,5.5,1.5,9.6,1.6,12.2,0,2.7-.1,4.5-.7,5.4-.5.9-1.6,1.5-3.1,1.7-1.1.2-2.6.3-4.4.4l-1.2-5.2-1,.3c-.6-2.4-1.8-6.1-3.4-11l3.2-1.2c1.4,4.1,2.5,7.7,3.3,10.8.6,0,1,0,1.2,0,.3,0,.5-.1.6-.2,0,0,.2-.4.2-.8,0-.5,0-1.2-.1-2.1l-1.3.4ZM219.1,101.5c.2-4.8,0-9.7-.5-14.6h3.9c.6,4.7.9,9.8.7,15.1l-4.2-.5ZM225.2,62.7l-.5-3.2-3.6.6.5,3.2,3.6-.6ZM226,67.3l-3.6.6.5,3.2,3.6-.6-.5-3.2ZM226.4,100.2c-.6-3.2-1.7-7.6-3.1-13.4l3.4-1.1c1.2,4.4,2.2,8.8,3.2,13.3l-3.5,1.2ZM227.4,75.1l-3.6.6.6,3.2,3.6-.6-.6-3.2ZM249.6,90.1l20.8-3.6,1.1,6.1-20.8,3.6.5,2.9-7,1.2-8.3-48.1,27.5-4.8,1.1,6.1-20.6,3.6,1.2,7.1,2.5-4.4c3.1,2.1,5.7,4.1,7.8,5.8.6-3.6.9-6.9.9-10.1l6.8.6c-.2,4.9-.8,9.8-1.9,14.6,2.2,2,4.7,4.7,7.7,8.1l-3,6.2c-2.1-2.4-4.3-4.7-6.7-7-1.4,4.4-3.1,8-4.9,11l-5.3-2.8.7,3.8ZM253.7,73c-2.6-2.1-5.3-4.2-8.1-6.2l3.1,18.2c2-3.5,3.7-7.5,5-12Z"/>
    </g>
  </g>
  <g class="st2">
    <g class="st2">
      <path class="st1" d="M304.6,84.8l-6.8-1.3,3.6-19.5,16,3,.4-2.4-16.6-3.1.4-1.9-3.7-.7,2.1-11.4,48.2,8.9-2.1,11.4-3.7-.7-.4,1.9-16.6-3.1-.4,2.4,16,3-3.6,19.5-16-3-.5,2.6,20.6,3.8-1,5.6-20.6-3.8-1.1,5.7-7.6-1.4,1.1-5.7-20.6-3.8,1-5.6,20.6,3.8.5-2.6-9.1-1.7ZM305.2,57l13.5,2.5.5-2.6-13.5-2.5-.5,2.6ZM305.5,79.8l9.1,1.7.5-2.7-9.1-1.7-.5,2.7ZM306.8,72.8l9.1,1.7.5-2.6-9.1-1.7-.5,2.6ZM322.7,80.3l-.5,2.7,9.1,1.7.5-2.7-9.1-1.7ZM323.5,75.9l9.1,1.7.5-2.6-9.1-1.7-.5,2.6ZM339.8,63.4l.5-2.6-13.5-2.5-.5,2.6,13.5,2.5Z"/>
    </g>
  </g>
  <g class="st2">
    <g class="st2">
      <path class="st1" d="M372.6,120c-2.1-1-5-2.6-8.9-4.6l2.2-4.8c-2.8.5-5.7.8-8.6.8v-6.6c8.3.1,15.4-1.1,21.4-3.7.2-.9.3-2,.3-3.1-4.4,1.6-9.3,2.5-14.7,2.7-2.2,2-5,2.2-8.5.5l-.9-.4,1.4-5.8.7.3c1.1.6,2,.7,2.6.4.6-.3,1.3-1.2,2-2.7.8-1.6,1.2-3.1,1.2-4.5,0-1.4-.2-3.4-.8-5.9l-12.9,26.5-6.1-3,21.5-44.2,16.8,8.2-2.5,5.1c0,0,0,0-.1.1,0,0,0,.1-.1.1l4.3,2.1c0-2,.1-4,.1-6l6.9,1.1c0,2.4,0,5.1-.3,8.1l5.2,2.5c2.3-1.5,4.5-3.2,6.8-5.2l5.2,4.4c-1.2,1.2-2.9,2.5-5.2,4.2l6.6,3.2-2.6,5.4-9-4.4c-1.1,3.1-1.9,5.9-2.6,8.4,2.2-.8,4.2-1.6,6.2-2.5l1.4,6.1c-3.1,1.5-6.1,2.6-8.8,3.4-.7,5.7-.4,10.7.8,15.1l-6,4.6c-1.5-5-2-10.9-1.5-17.5.6-6.6,2.1-13.5,4.8-20.6l-1.7-.8c-1,.4-2.2.8-3.8,1.3,1.8,8.7.9,17-2.9,24.8-1.8,3.7-3.4,6.1-4.7,7-1.3.9-3,.9-4.9,0ZM372.9,72.2l-4.9-2.4-5.5,11.3c3.9-2.7,7.4-5.7,10.4-8.9ZM376.8,107.5c-3.1,1.3-6.4,2.2-10,2.9,2.2,1.3,4,2.2,5.3,2.8.6.3,1.1.3,1.6,0,.5-.4,1.1-1.5,2.1-3.3.5-1,.8-1.7,1-2.3ZM378.6,92.3c-.2-1.2-.3-2.1-.4-2.7-2.5.3-5.4.4-8.6.3v-6.1c4.1.3,8,.2,11.6-.4l-7.4-3.6c-2.1,1.9-4,3.5-5.9,4.8.7,3.5.6,6.8-.3,9.7,4-.2,7.6-.8,10.9-1.8Z"/>
    </g>
  </g>
  <g>
    <polygon class="st3" points="426.7 220.2 278.2 220.2 351.4 324.2 426.7 220.2"/>
    <polygon class="st3" points="278.2 220.2 128.2 220.2 277.5 426.2 350.6 325.2 204.3 325.2 278.2 220.2"/>
    <polygon class="st3" points="350.6 325.2 352.1 325.2 351.4 324.2 350.6 325.2"/>
  </g>
</svg>