<svg enable-background="new 0 0 113.4 113.4" viewBox="0 0 113.4 113.4" xmlns="http://www.w3.org/2000/svg"><circle cx="56.7" cy="56.7" r="56.7"/><path d="m71.2 60.2c.9-.2 1.7-.5 1.8-1.6.5 0 .5-.4.6-.7.2-.1.2-.3.2-.5s0-.3.1-.5c.3-1.6-.4-2.7-1.7-3.6-.7-.6-1.6-.7-2.5-.7-1.2 0-2.4 0-3.7.1-.2 0-.3 0-.5 0-.8-.2-1.6-.4-2.4-.6-.2-.3-.4-.4-.7-.4-1-1-2.1-1.9-2.5-3.4-.1-.5-.2-.9-.3-1.4 0-.2 0-.3 0-.5.1-.2.1-.3 0-.5 0-.4.1-.9.1-1.3 0-7.4 0-14.8 0-22.2 0-.4-.1-.9-.1-1.3.2-1 .2-2.1.1-3.1.1-.6.2-1.1.4-1.7.2-.1.2-.3.2-.5.1-.1.1-.3.2-.4.1-.2.3-.4.4-.6.2-.2.3-.4.5-.6.8-.5 1.5-1 2.3-1.5 1.3-.3 2.5-.2 3.8 0 .2.1.5.1.7.2.2.4.6.5 1 .4.2 0 .3 0 .5.1.4.1.8.3 1.2.4.7.3 1.4.5 2.1.8.3.1.6.2.9.4.4.2.7.5 1.2.5.2.3.5.3.8.3.7.3 1.4.7 2.1 1 .5.3.9.5 1.4.8 1.1.7 2.3 1.4 3.4 2.1.3.2.6.5.9.7.1.2.2.3.5.4.2.3.4.4.8.5.3.4.7.7 1.1.9.1.1.2.2.4.3.3.5.7.8 1.2 1.1.2.4.5.7.9.9.2.4.6.7 1 1 .1.3.4.5.7.7.4.5.8 1 1.3 1.4.2.2.4.5.7.7.3.7.8 1.2 1.3 1.8.2.2.3.4.5.6 1 2.1 2.5 3.8 3.4 5.9.3.8.8 1.6 1.2 2.4.1.2.2.4.3.7.3.8.6 1.6 1 2.4.1.3.2.5.3.8s.2.6.3.9c.1.5-.1 1 .3 1.4 0 .2.1.4.1.6-.1.2 0 .4.2.5 0 .1.1.3.1.4-.1.3 0 .5.2.7 0 .2.1.5.1.7-.1.2 0 .4.2.5 0 .5 0 1 .3 1.4 0 .2 0 .3.1.5.1 1 .1 2.1.2 3.1v6.9c-.2 1.4-.3 2.9-.5 4.3-.1.1-.2.3-.2.5 0 .3-.1.6-.1.9-.2.1-.2.3-.1.5-.1.6-.3 1.1-.4 1.7-.3.3-.2.8-.2 1.2 0 .2-.1.3-.1.5-.2.1-.3.3-.2.5-.6 1.4-1.1 2.8-1.7 4.2-.3.2-.3.5-.3.8-.2.2-.3.4-.3.7-.4.5-.7 1.1-.9 1.7-.5.9-1.1 1.8-1.6 2.7l-.1.1c-.1.1-.1.2-.2.3 0 .1-.1.2-.1.2-.3.2-.5.4-.5.7-.2.1-.3.3-.3.5-.2.2-.3.5-.5.7-.3.2-.6.5-.7.9-.3.3-.7.5-.8 1-1.2 1.4-2.6 2.6-3.7 4.1-.4.1-.6.3-.7.6-.4.1-.6.4-.8.8-1.1.9-2.3 1.9-3.4 2.8-2.2 1.3-4.2 2.8-6.5 3.8-1.9.9-3.9 1.7-5.8 2.5-.5-.1-1 .3-1.5.4-.2 0-.3 0-.5.1-.6-.1-1.1.4-1.6.6-.6.1-1.3.1-1.9.2-.9-.1-1.8-.2-2.6-.6-.7-.6-1.4-1.2-2.1-1.8v.1c-.3-.5-.5-1.1-.8-1.6 0-.2-.1-.3-.1-.5-.1-1-.2-1.9-.3-2.9.1-.5.1-.9 0-1.4 0-.2 0-.3 0-.5 0-.4.1-.9.1-1.3 0-7.4 0-14.8 0-22.2 0-.4-.1-.9-.1-1.3 0-.2 0-.3 0-.5 0-.1 0-.3.1-.4.1-.2.2-.3.1-.5.3-.6.5-1.3.8-1.9.1 0 .1-.1.1-.2l.1-.1c.3-.3.6-.6.8-.9.1 0 .1-.1.2-.1.5-.3 1-.7 1.6-1 .3-.1.7-.3 1-.4.3.1.6 0 .9-.2h.1c.3 0 .5 0 .7-.2 1.6 0 3.2.3 4.7-.2-.6 0-.4-.1-.3-.2zm6.6-6.5c-.4.4-.1.7.1 1 0 .1 0 .2.1.3-.1.8-.1 1.6 0 2.4 0 .3-.1.7-.1 1-.2.3-.2.6-.3.9-1.7 3.5-4.4 5.4-8.4 5.2-.7 0-1.4 0-2 0-2.8.1-3.6.9-3.6 3.7v23.8c0 .5-.1 1.1.2 1.6.1.7-.2 1.4.2 2v .1c.4 1.1 1.3.9 2.2.8 3.3-.5 6.3-1.8 9.2-3.3 4.7-2.4 8.8-5.5 12.3-9.5 3.6-4.1 6.3-8.7 8-13.9 2.3-6.8 2.7-13.8 1.4-20.9-.8-4.5-2.4-8.7-4.7-12.6-2.6-4.5-5.9-8.5-10.1-11.7-4.8-3.8-10.1-6.6-16.2-7.8-1.6-.3-2.3.2-2.3 1.9v1.2c-.2.1-.2.3-.1.5v.7c0 .4-.1.9-.1 1.3v21c0 .8 0 1.7.1 2.5v.5s-.1.1 0 .1c0 .1.1.1.1.2.3 1.3.9 1.8 2.2 1.9h3.8c3.1 0 5.6 1.3 7.2 4 .2.4.1 1.1.8 1.1z" fill="#f8f7f6"/><path d="m36.2 16.5c.5-.1 1-.4 1.4-.7.7-.1 1.4-.4 2-.9.3 0 .5-.1.6-.3.9-.1 1.6-.6 2.4-.9.4 0 .8-.1 1.2-.4.3.1.5 0 .7-.2h.1c1.2-.2 2.3-.5 3.5-.7h1c .4.3.9.2 1.4.3.2.2.4.4.7.5.6.5 1.1 1 1.7 1.5.1.1.2.3.3.4.2.5.4.9.6 1.4 0 .2.1.3.1.5-.1.2 0 .4.2.5 0 .8.1 1.6.1 2.4v.5 70.6 2.1c0 .9-.1 1.7-.1 2.6-.2.1-.2.3-.2.5 0 .1 0 .2-.1.4-.2.2-.3.5-.3.8-.4.6-.9 1.2-1.3 1.9-.2.2-.4.3-.6.5-.3.1-.6.2-.7.5-.3.1-.6.2-.9.4-.3 0-.5 0-.7.2-.7 0-1.4 0-2.2 0-.3-.1-.6-.1-1-.2s-.8-.3-1.2-.4-.9-.2-1.3-.2c-.2-.2-.3-.3-.6-.2-1.6-.6-3.2-1.3-4.8-1.9-.4-.3-.9-.5-1.4-.6-.6-.4-1.2-.8-1.9-1-.1-.2-.2-.3-.5-.3-.1 0-.1-.1-.2-.1-.3-.3-.6-.5-1-.5-.4-.5-.9-.8-1.5-.9-.4-.5-1.1-.8-1.6-1.2-.2-.4-.5-.6-.9-.7-.4-.4-.8-.8-1.4-1l-.1.1.1-.1c-.1-.2-.2-.4-.5-.4-1.2-1.2-2.4-2.4-3.6-3.6-.2-.4-.6-.8-1-1-.2-.2-.4-.4-.7-.6-.2-.2-.4-.4-.5-.7-.4-.8-1-1.5-1.6-2.2-.4-1-1-1.9-1.7-2.6-1-2.1-2.1-4.1-3.1-6.2-.1-.6-.3-1.1-.6-1.6-.2-.7-.5-1.3-.7-2-.1-.4-.3-.8-.4-1.2.2-.5-.1-1-.3-1.4.1-.3 0-.5-.2-.7 0-.2-.1-.3-.1-.5.1-.2 0-.4-.2-.5 0-.3 0-.7-.2-1 0-.4 0-.8-.2-1.2 0-.2-.1-.5-.1-.7.1-.4 0-.8-.2-1.2 0-.6 0-1.1-.1-1.7 0-2.5 0-4.9 0-7.4 0-.5 0-.9 0-1.4 0-.2 0-.3 0-.5.2-.4.2-.8.2-1.2.2-.9.5-1.9.5-2.9.3-.5.4-1.1.4-1.7.2-.5.4-.9.3-1.4.2-.1.2-.3.1-.5.1-.2.1-.3.2-.5.6-1.5 1.1-2.9 1.7-4.4.6-.3.6-.7.6-1 1.5-3 3.3-5.8 5.1-8.6.3-.2.6-.5.7-.9.3-.3.6-.7.9-1 .7-.5 1.2-1.1 1.7-1.8.2-.1.4-.2.5-.5.6-.4 1-.9 1.4-1.4.3-.1.4-.3.5-.5l-.1-.1.1.1c.5-.3.9-.7 1.2-1.1.5-.2.9-.4 1.1-.9.9-.3 1.4-1.1 2.1-1.6.2 0 .3-.1.3-.2.2-.1.4-.3.6-.4.9-.4 1.8-.9 2.5-1.5.3-.2.5-.3.8-.5.5 0 .8-.1 1-.4zm13.8 76.9c.3-.6.2-1.2.2-1.7 0-23.1 0-46.1 0-69.2 0-.4-.1-.9-.1-1.3.1-.3.1-.7 0-1-.1-1 0-2-.4-2.9-1.3-1.1-2.6-.4-3.9-.1-5.4 1.5-10.2 4.1-14.6 7.5-4.4 3.5-7.9 7.7-10.5 12.6-4.3 7.9-5.7 16.4-4.4 25.3 1.2 8.6 4.9 16.1 10.9 22.4 2.6 2.8 5.6 5.1 8.9 7 3.6 2.1 7.4 3.8 11.5 4.6.8.1 1.5.1 2.1-.5.4-.8.2-1.8.3-2.7z" fill="#fbfaf9"/><path d="m96.3 82.5c-.3-.6.1-1.2.3-1.7.4-.4.6-.9.8-1.4.1-.2.2-.3.3-.5s.2-.4.3-.6c.4-.5.7-1.1.9-1.7v-.1c.2-.2.3-.5.5-.7.3-.3.5-.6.8-.8.2 0 .4-.1.5-.3h1.2c.1.2.3.2.5.2.2.2.4.3.7.5.1.1.1.3.2.4 0 .5 0 1-.1 1.4-.2.5-.4.9-.6 1.4-.1.2-.2.3-.2.5-.2.1-.2.3-.2.5-.2.1-.3.2-.1.4.1-.1.2-.2.2-.3.1-.1.2-.2.4-.3l.4-.4c.6-.6 1.2-1.2 1.8-1.7.2-.1.5-.2.7-.2.3.2.2.4.2.6-.2.4-.7.7-.4 1.2l-.1.1c-.8-.2-1 .5-1.4.9-.5.3-.9.8-1.3 1.2-.6.6-1.3 1.1-1.8 1.6 0 .5.4.6.7.7.1.2.3.3.5.3 0 .1.1.1.1.2 0 .2.1.3.1.5-.1.6-.6.7-1.1.7-.6-.5-1.2-.8-1.9-1-.6-.4-1.2-.7-1.8-.9-.4-.4-.8-.5-1.1-.7zm3-.2c.8-1.9 2.1-3.7 2.7-5.7-.4-.5-.8-.7-1.5-.7-1.2 1.6-2 3.6-3 5.5.5.4 1.1.7 1.8.9z" fill="#ebeae9"/><path d="m40.2 106.7c-.9-.7-1.7-1.4-2.6-2.1-.5-.6-1-1-1.7-1.4-.1-.2-.3-.4-.5-.4-.1-.3-.2-.5-.7-.5-.1.4-.3.8-.4 1.1-.1.2-.2.3-.3.5-.2 0-.5.1-.7.1-.1-.1-.3-.2-.4-.4-.1-.7.4-1.2.5-1.9.3-.2.3-.6.4-.9.3-.7.7-1.4.8-2.2.1-.2.2-.4.4-.7.6-.4 1.2.2 1.8.2.2.3.4.3.7.3 1.5.6 3 1.2 4.5 1.9.1.2.2.3.4.3.3.4.6.7 1 1.1.1.8-.4 1.4-.6 2.1-.1.1-.3.1-.4.2-.2 0-.5.1-.4.4-.4-.5-.9-.3-1.4-.4-.7-.2-1.4-.6-2.2-.7.1.2.1.3.2.4l1.8 1.5c.3.5 1.1.7 1 1.5-.6.1-.9 0-1.2 0zm1.2-3.6c.3-.5.6-.9.4-1.6-1.7-1.1-3.8-1.6-5.8-2.5-.2.7-.7 1.2-.6 2 2 .7 3.8 1.8 6 2.1zm-3.4.2c.1-.1 0-.2 0-.2-.1.1-.1.1 0 .2-.1 0-.1 0 0 0z" fill="#ebeae9"/><path d="m6.6 52.6c0-.2 0-.3-.1-.5 0-.3.1-.5-.1-.7 0-.2 0-.3 0-.5.3-.6.2-1.3.1-2-.4.4-.7.9-.9 1.5-.6.6-.7 1.5-1.4 2-.2-.1-.3-.1-.5-.2l.3-1.5c.3-.3.5-.7.6-1.2.3-.5.6-1 .9-1.5.1-.2.2-.3.2-.5.4-.7.9-1.5 1.3-2.2-.6-.4-1.3-.3-1.8-.5-.4-.5-.2-.9 0-1.3.3 0 .6 0 .9-.1.2.2.5.2.7.2.4.1.8.1 1.2.2.2.2.5.2.7.1.3.1.6.2.9.1.6.1 1.1.3 1.7.4.2.5 0 .9 0 1.4-.2.1-.2.3-.1.5 0 .4-.1.8-.1 1.2-.2.3-.3.6-.2 1-.2 1.2-.4 2.3-.7 3.5-.3 1-.9 1.7-2.2 1.5-.2-.2-.5-.2-.7-.2-.1-.1-.3-.2-.4-.3s-.2-.3-.3-.4zm2.5-.6c.7-2 .8-4.1 1.1-6.3-.7-.1-1.3-.2-2-.2-.1 2.2-.9 4.2-.7 6.2.5.5 1 .5 1.6.3zm-2.4-3.4c-.1.1-.1.1 0 0z" fill="#ebeae9"/><path d="m4.4 63.9c-.8-.9 0-1.8 0-2.7.2-.1.2-.3.2-.5.2-.7.4-1.4.6-2.1.1-.2.1-.5.2-.7.2-.1.2-.3.2-.5.1-.3.2-.6.3-.9 0-.2 0-.3-.2-.2-.5 0-1.1 0-1.7 0-.5-.4-.5-.9.1-1.4.2 0 .3 0 .5-.1.3.1.6.1 1-.1.3 0 .7.1 1-.1.8-.1 1.6-.1 2.3-.2h.5s.4 0 .7.1c.1.2.2.3.2.5 0 .8.1 1.6.1 2.4 0 .4-.1.8.1 1.2-.1 1.7.4 3.3-.4 4.9-.3.2-.6.4-.9.5-.3-.1-.5 0-.6.3-.1-.4-.5-.3-.8-.3-.1-.2-.3-.3-.5-.3-.6-.8-.7-1.7-.9-2.6 0-.5-.1-.9-.1-1.4.1-.1 0-.2-.1-.2s-.3.1-.2.3c-.1.4-.2.9-.3 1.3-.1.2-.1.5-.2.7-.2.1-.2.3-.1.5-.2.5-.3.9-.5 1.4-.2.1-.3.2-.5.2zm4.8-7.9c-.8 0-1.4-.1-2.1.2.3 2.1.1 4.2.8 6.3.5 0 1 .1 1.5-.3.3-1.9-.2-4-.2-6.2z" fill="#ebeae9"/><path d="m21.4 95.6c-.4-.2-.8-.3-1.2-.5-.3-.2-.6-.5-.9-.7-.4-.4-.6-1-1.3-1.1 0-.8-.8-1-1.2-1.6-.1-.4-.4-.6-.8-.8-.2-.5-.9-.8-1-1.5.6-1.1 1.7-1.7 2.4-2.6.2 0 .3-.1.3-.3.2-.1.3-.3.5-.4.3-.1.5-.3.6-.6.1 0 .1-.1.1-.1.1 0 .3-.1.4-.1.9.2 1.2 1.2 1.9 1.6.1.2.3.3.4.5.3.3.4.7.9.9.1.2.2.4.5.5.6 1 1.7 1.6 2.1 2.8.1.8-.2 1.5-.8 2-.4.4-.7.7-1.1 1.1-.2.1-.4.2-.5.5-.1.1-.2.2-.3.2-.3 0-.7.1-1 .2zm-.2-1.2c1-.9 1.8-1.7 2.7-2.6-1.1-2-2.9-3.4-4.4-5-1.1 1-2.1 2-3.3 3.1 1.8 1.4 2.9 3.3 5 4.5z" fill="#e9e8e8"/><path d="m6.5 39.3c.2-.4.4-.7.3-1 .2-.2.3-.4.3-.7.4-.9.8-1.8 1.1-2.6.5-.5.9-1 1.4-1.5.6-.3 1.1 0 1.7.2s1.1.5 1.7.7c.4.2.8.5 1.2.7.2.6.3 1.2.2 1.8-.2.1-.2.3-.1.5-.8 1.9-1.3 3.8-2.5 5.5-.6.5-1.4.5-2.1.3-.9-.7-2.1-.8-3-1.4-.4-.5-.3-1.1-.4-1.5 0-.2.1-.3.1-.5s.1-.3.1-.5zm3.4-4.6c-1.3 1.8-2.1 3.7-2.4 5.9 1.2.5 2.3.9 3.5 1.4 1.3-1.8 2.1-3.7 2.4-5.9-1.2-.4-2.3-.9-3.5-1.4z" fill="#e9e8e8"/><path d="m30.7 102c-.7-.2-1.4-.3-2.1-.5-.4-.6-1.1-.7-1.6-1.1-.7-.5-1.5-1-2.2-1.5-.3-.5-.7-1-1-1.4 0-.4.1-.8.1-1.2.5-.7 1-1.4 1.4-2.2.4-.4.7-.9 1.3-1 1.7-.1 2.8 1.1 4.2 1.8.2.2.4.4.7.5 2.7 2.1 2.7 2.1.9 5-.3.4-.6.9-.9 1.3-.4.1-.6.2-.8.3zm-.5-1.1c.8-1.2 1.5-2.1 2-3.1-.8-1.4-4-3.4-5.4-3.3-.6.9-1.2 1.9-1.9 2.9 1.4 1.6 3.2 2.7 5.3 3.5z" fill="#ebeae9"/><path d="m104.7 67.9c.3-.4.3-.9.4-1.4.1-.2.1-.3.2-.5.1 0 .1-.1.2-.1h.5c.4.3.2.7.2 1-.2.1-.2.3-.2.5-.1.2-.1.5-.2.7-.1.1-.2.3-.1.5-.1.2-.1.5-.2.7-.2.1-.2.3-.2.5s-.1.3-.1.5c-.2.1-.2.3-.2.5-.2.6-.4 1.1-.4 1.7-.2.2-.3.4.1.5.3.2.5.3.9.2.6-.5.8-1.2.9-1.9.3-.3.3-.6.3-.9.6-1.2.6-2.5 1.3-3.7h.5c.5 1-.3 1.8-.3 2.7-.2.1-.2.3-.2.5-.2.8-.4 1.6-.7 2.3 0 .2-.1.3-.1.5-.2.1-.2.3-.2.5-.2.1-.3.3-.3.5-.4.4-.7.8-1.2 1-.3 0-.6 0-1 0-.3-.1-.6-.2-1-.3-.7-.2-1.3-.4-2-.7-.2-.2-.4-.3-.6-.5-.1-.2-.2-.5-.3-.7 0-1.4.3-2.7 1-4h .5c.5.9-.4 1.7-.2 2.5-.3.5-.3.9.2 1.2.3.1.6.2 1 .4.3-.6.5-1.1.5-1.6.3-.2.3-.4.2-.7.2-.6.4-1.3.6-1.9.3-.2.3-.3.2-.5z" fill="#e7e6e6"/><path d="m6.8 70.3c0 .2 0 .3.1.5 0 .2 0 .4.2.5.2.7.3 1.5.5 2.2.1.5.2.9-.4 1-.8-.2-.4-1.1-.9-1.6 0-.4-.1-.8-.3-1.2 0-.1-.1-.3-.1-.4-.1-.5-.2-1-.4-1.5-.2-1.3-.6-2.5.1-3.8.2-.1.3-.2.5-.2.6-.2 1.3-.3 1.9-.5.4-.1.8-.2 1.2-.3.9 0 1.6.5 2 1.3.5 1 .8 2 .9 3-.3.4-.6.3-.9.3-.1-.5-.3-.9-.4-1.3.1-.3-.1-.5-.2-.7-.1-.5-.3-1-.9-1.3-.3.3-1.2-.2-.9.8 0 .2 0 .4.2.5.1.5.1.9.4 1.3v.1c0 .1 0 .1.1.2.2.8.4 1.6.7 2.4 0 .2 0 .4.2.5 0 .5.3 1 0 1.5-.2 0-.5 0-.7 0-.5-1.7-1-3.4-1.5-5 .1-.2 0-.4-.2-.5 0-.3-.1-.5-.1-.8-.1-.4-.3-.5-.6-.2-.9.1-1 .6-.8 1.3-.1.2 0 .4.1.5.1.3.2.6.2.9-.2.2-.1.3 0 .5z" fill="#e7e6e6"/><path d="m95.9 30.5c.2.1.5.1.7.2.1.3.2.6.5.8.2.4.5.9.9 1.2.1.3.3.4.7.4.1-.1.3-.2.5-.4.8-.9-.3-1.2-.5-1.7-.1-.1-.2-.3-.3-.4-.2-.5-.5-1-.9-1.4-.2-.6-.5-1-.9-1.5 0-.2-.1-.4-.3-.4 0-.3 0-.6-.1-.8.3-.3.5-.1.8-.1 0 .2.1.3.3.3.2.5.5 1 .9 1.4.1.3.2.6.5.7.1.4.4.8.7 1.1.3.8.8 1.4 1.3 2.1.4-.2.8-.4 1.1-.9-.2-.7-.6-1.4-1.2-2 0-.3-.2-.5-.4-.7-.1-.3-.2-.6-.5-.8-.3-.5-.6-1-.9-1.5-.3-.4-.3-.8 0-1.2.5-.1.6.3.8.4.1.4.3.7.7 1 .8 1.3 1.6 2.7 2.5 4 0 .3.1.5.2.7v.2c-.1.6-.1 1.2-.7 1.6-.3.1-.5.2-.7.5-.2.2-.5.3-.7.5-.3.1-.5.2-.7.5-.2 0-.4.1-.5.3-.1 0-.2 0-.2.1-.2 0-.3 0-.5 0-1.1-.2-1.7-1-2.4-1.8 0-.2-.1-.4-.3-.5-.2-.4-.3-.8-.5-1.1 0-.5.1-.7.1-.8z" fill="#e9e8e8"/><path d="m77.4 99.8c-.2-.9.2-1.2 1.1-1 .4.6.8 1.2 1.3 1.9 1.9-1.2 3.7-2.3 5.6-3.5-.4-.7-.8-1.4-1.2-2 0-.4.2-.6.4-.9.4.1.9.1 1.1.6s.4.9.8 1.3c.2.6.6 1.1 1 1.5.2.5.4 1 .8 1.3 0 .6-.3 1-1 1.1-.2-.1-.3-.3-.5-.4 0-.2-.1-.4-.3-.4 0-.1-.1-.2-.1-.3-.1-.3-.3-.6-.7-.8-.6.2-1.1.5-1.6 1-.2 0-.4.1-.5.3-.4 0-.6.3-.8.5-.3.1-.5.2-.6.4-.6.2-1.1.5-1.5 1-.2 0-.4.1-.4.4.1.1.2.2.3.4.2.4.5.8.7 1.1v.5c-.1.1-.1.3-.2.4s-.2.1-.4.2c-.6 0-.8-.6-1.1-.9-.3-.7-.7-1.3-1.2-1.9-.1-.6-.5-1.2-1-1.8z" fill="#ebeae9"/><path d="m103.8 48.6c0 .7.1 1.3.7 1.7.7.2 1-.1 1-.8.1-.6-.1-1.1-.2-1.7 0-.2 0-.4-.1-.5 0-.3-.1-.6-.1-.9 0-.2.1-.4-.1-.5-.1-.7-.1-1.4.1-2.2 0-.1.1-.3.1-.4.3-.2.6-.4.9-.6.2.1.4 0 .5-.1 1.2-.1 1.6.8 2 1.7 0 .1.1.3.1.4.1.4 0 .8.2 1.2.1.8.2 1.6.5 2.4 0 .2 0 .3.1.5 0 .2-.1.4.1.5 0 .5.3 1 0 1.5-.3.2-.5.1-.8-.1-.1-.5-.3-1-.4-1.5 0-.3.1-.5-.2-.7 0-.3-.1-.6-.1-.9 0-.2.1-.4-.1-.5-.1-1.1-.2-2.1-.9-3-1.2.1-1.3.2-1 2.3-.1.2 0 .4.1.5 0 .4.1.8.1 1.2 0 .2-.1.4.1.5 0 .3 0 .6.1.9.1 1.6-.2 2-1.7 2.4-.1 0-.2 0-.2 0-.7-.1-1-.7-1.4-1.2 0-.3 0-.5-.2-.7 0-.2-.1-.3-.1-.5s.1-.4-.1-.5c0-.5-.3-.9 0-1.4.4-.2.6 0 .8.2 0 .3 0 .6.2.8z" fill="#e7e6e6"/><path d="m65.5 108.2c.5 0 .9-.2 1.1-.7.1-.2.1-.4 0-.6-.1-1.2-.1-2.4-.4-3.5 0-.2.1-.3.1-.5.2-.1.4-.2.7-.3.2.1.5.1.7.2 0 .1 0 .1.1.2-.1.8.1 1.6.3 2.4v.7s0 .3 0 .5c0 .5.1 1-.2 1.7-.1.1-.4.4-.7.7-.2 0-.3 0-.5.2-1.5.5-3 .4-4.5.7-1-.2-2.1 0-3.1-.5-.5-.5-.3-1.2-.5-1.8.1-.3 0-.7-.1-1 0-.4-.1-.8-.1-1.2.2-.6-.3-1.3.2-1.8.3 0 .6.1.9.1.4.7.2 1.5.5 2.2 0 .7-.1 1.5.2 2.2.4 1.2 1.4.5 2.2.6 1-.1 2-.2 3.1-.5z" fill="#ebeae9"/><path d="m108.4 63.8c.2-2 .6-4 .3-6-.5-.3-.8-.3-1.2-.1-.7 1.4-.6 3.1-.8 4.7-.2.1-.2.3-.1.5-.2.8-.5 1.6-1.5 1.7s-1.6-.3-2-1.2c0-.6 0-1.3 0-1.9 0-.4.1-.8.1-1.2.4-.4.7-.2.9 0v .5c-.1.8-.2 1.6.2 2.3.7.2 1.1.1 1.2-.7.2-.2.1-.5.1-.7.2-.4.1-.8.1-1.2.2-.2.1-.5.1-.7 0-.5.1-.9.1-1.4.2-.2.2-.5.2-.7.4-1.1 1.2-1.7 2.4-1.5.2.1.5.2.7.3.7 1.3.4 2.7.4 4v .5c0 .7-.1 1.4-.1 2.1-.2.4-.2.8-.1 1.2 0 .2-.1.3-.1.5-.2.1-.3.1-.5.2-.3-.1-.5-.3-.5-.7 0-.2 0-.3.1-.5z" fill="#e7e6e6"/><path d="m89.1 92.9c0-.2 0-.5-.1-.7.1-.8-.5-1.6.3-2.3.1 0 .1-.1.2-.1.3 0 .5 0 .8-.1 1.4.1 2.8.2 4.3.3h.2.7c.4.1.8.2 1.3.1.2 0 .4.1.6.1.1.1.2.2.3.4-.6 1.5-1.8.5-2.7.7-.4.1-.6.4-.8.6-.4.3-.8.7-1.1 1.1-.1.1-.3.3-.4.4-.5.4-1 .8-1.4 1.4-.6.3-.6.8-.5 1.3.1.6.2 1.2 0 1.7-.3 0-.5.2-.8-.1-.1-.5-.2-1.1-.3-1.7 0-.2 0-.3-.1-.5.1-.2.1-.4-.1-.5 0-.6 0-1.3-.2-1.9-.2.1-.2 0-.2-.2zm1.5 1.3c1-1 1.8-1.8 2.7-2.8-1.2-.2-2.1-.4-3.1-.3.2 1 0 2 .4 3.1z" fill="#e9e8e8"/><path d="m19.7 28.3c-1 1.9-2.3 3.6-3.5 5.3-.3.4-.6.7-1.1.3.1-.3.1-.5.2-.8.2-.2.3-.5.5-.7.3-.2.5-.5.6-.9.3-.2.5-.5.6-.8 0-.1.1-.2.1-.2.7-.8 1.4-1.6 1.5-2.7-.5-.3-1-.6-1.5-.9-.2-.3-.4-.5-.8-.5-.3-.2-.5-.7-.9-.4-.8.3-1.1.9-1.4 1.6-.7.7-1.2 1.5-1.7 2.4-.4.4-.7.8-1.1 1.2-.2-.1-.4-.1-.5-.2-.1-.3 0-.6.1-.9.3-.4.7-.7.8-1.1.2-.3.4-.6.6-.9.3-.4.5-.7.8-1.1.1-.1.1-.1.1-.2.3-.2.5-.4.6-.8.1-.1.1-.2.2-.2.2-.2.3-.3.5-.5 1.2-1.1 2.3-.8 3.5.2.5.4 1.1.7 1.7 1.1l.2.2c0 .4-.1 1-.1 1.5z" fill="#e9e8e8"/><path d="m70.2 101.7c1.7-.6 3.4-1.2 5.1-1.8.4-.2.8-.4 1.1.2-.2.5-.5.7-1 .9-1.4.5-2.7 1-4 1.5-.6 0-1 .3-1.4.7-.1.4 0 .7.3 1 0 .4.1.8.4 1.1.2.5 0 1.4.9 1.4.2 0 .5 0 .7-.1.2.1.4 0 .5-.2.7-.1 1.3-.3 1.9-.7.2 0 .3-.1.5-.1.3-.1.7-.3 1-.4.3 0 .6 0 .9-.3.6-.1 1.3-.2 1.1.8-.2 0-.4 0-.5.2-1.4.5-2.7.9-4.1 1.4-.8.3-1.6.5-2.5.6-.2 0-.5-.1-.7-.1-1.1-.6-.9-1.9-1.5-2.7-.1-.7-.6-1.3-.3-2.1.5-.6 1-1 1.6-1.3z" fill="#e7e6e6"/><path d="m11.3 76.1c-.7.2-1.4.5-2 1.1 0 .7.2 1.2.6 1.7 0 .3.1.5.3.7.1.5.3.9.6 1.3 0 .6.4.9.7 1.3.2.3.5.9 1.1.3.1 0 .1-.1.2-.1.5-.1.9-.4 1.4-.3.4.4.3.8.2 1.3-.1 0-.2.1-.3.1-.4.2-.8.2-1.2.6-.5 0-1 0-1.4-.1-.4-.4-.8-.8-1.1-1.3-.4-.8-.8-1.6-1.2-2.4 0-.2 0-.4-.2-.6 0-.2 0-.4-.2-.5-.1-.4-.2-.8-.5-1.1.1-.4 0-.7-.2-1.1.1-.4.1-.7.2-1.1.2-.2.3-.4.5-.5l3.6-1.5c.2 0 .3.1.5.1 1.3.8 1.8 2.2 2.5 3.4-.1.2-.2.4-.3.7-1.2-.4-1-1.8-1.9-2.4-.8-.8-1.3.2-1.9.4z" fill="#e9e8e8"/><path d="m48.5 106c .2-1.2.4-2.3.6-3.4.6-.3 1-.2 1.4.3v.2c-.2.9-.5 1.8-.4 2.8-.3.5-.3 1-.2 1.7 1.8.9 3.8.9 5.8 1.2.1 0 .3.1.4.1.2.2.5.2.5.5v.5c-.2 0-.5.1-.7.1-.4-.1-.8-.3-1.2-.2-1.6-.3-3.2-.6-4.7-.9-.2-.1-.5-.2-.7-.3-.6-.5-1.1-1-1-1.8.1-.2.2-.4.2-.8z" fill="#e7e6e6"/><path d="m99.1 37.4c-.1-.2-.1-.3-.2-.5 0-.3 0-.5-.3-.7 0-.1 0-.2-.1-.2 0-.2 0-.3 0-.5.7-.6.9 0 1.1.5.4.8.7 1.5 1 2.4.8-.3 1.4-.5 2-.9.3 0 .6 0 .7-.3.7-.2 1.3-.4 2-.7.4 0 .6.4.8.6-.1.4-.4.7-.8.9-.3 0-.6.2-.8.3-.2-.1-.4 0-.5.2-1 .2-1.9.7-2.8 1.1.4 1 .7 2 1.1 2.9 0 .2-.1.3-.1.5-.5.2-.7-.1-.9-.5 0-.2-.1-.4-.2-.5 0-.1 0-.2-.1-.2 0-.2 0-.4-.2-.5-.4-1.2-.9-2.4-1.5-3.6 0-.1 0-.2-.2-.3z" fill="#ebeae9"/><path d="m14 85.3c1-.5 2-1.2 2.9-1.9.4-.2.7-.4 1.1-.5.2.1.3.2.5.3.1.5.1.9-.4 1.3-.1.1-.3.2-.4.3-.7.3-1.3.7-1.8 1.2-.9.3-1.4 1.1-2.3 1.3-.2-.1-.3-.2-.5-.2v-.1h-.1c0-.1-.1-.2-.1-.3s0-.1 0-.2c.1-.6.8-.7 1.1-1.2z" fill="#ebeae9"/><path d="m109.1 52.9c1 .2.6.8.5 1.4-.4.1-.8-.1-1.2.2-.9 0-1.9.1-2.8.1-.7 0-1.4-.1-2.1-.1-.1-.4-.3-.9.2-1.3.6 0 1.1.1 1.7-.2 1 0 2.1 0 3.1-.1.1.1.4.1.6 0z" fill="#ebeae9"/><g fill="#c32a29"><path d="m50.2 92.6v-73.2h-.2c0-.7 0-1.4-.3-2.1-1.3-1.1-2.6-.4-3.9-.1-5.4 1.5-10.2 4.1-14.6 7.5-4.4 3.5-7.9 7.7-10.5 12.6-4.3 7.9-5.7 16.4-4.4 25.3 1.2 8.6 4.9 16.1 10.9 22.4 2.6 2.8 5.6 5.1 8.9 7 3.6 2.1 7.4 3.8 11.5 4.6.8.1 1.5.1 2.1-.5.4-.9.2-1.8.3-2.7-.3-.2-.3-.5-.3-.8z"/><path d="m50.2 19.4s.3-2.7-1.9-2.7c-1.8 1.8-2.5 3.9-2.5 3.9z"/><path d="m50.2 92.6s-.1 3-.4 3.1c-2.1-3.7-1.1-5 .4-3.1z"/><path d="m76 51.4s3.6 4.1.9 9.1c5.5-1.9 6.4-5.9 6.4-5.9z"/><path d="m97.1 48.9c-.8-4.5-2.4-8.7-4.7-12.6-2.6-4.5-5.9-8.5-10.1-11.7-4.8-3.8-10.1-6.6-16.2-7.8-1.3-.3-2 .1-2.2 1.1s-.4.6-.3 3.3c-.1 2.9 0 24.8 0 24.8s-.1 1.7.7 2.1c.4.4.8.6 1.5.6h3.8c3.1 0 5.6 1.3 7.2 4 .2.4.2 1 .9 1 .1.2.5.5.1.8v.3c0 .1 0 .2.1.3h.2c.2 1.1.6 2.3-.2 3.3v.5c.3.2.2.3 0 .4-.1 0-.2 0-.3 0-1.7 3.5-4.4 5.4-8.4 5.2-.7 0-1.4 0-2 0-2.5.1-3.4.8-3.6 2.9v.1.7 11.8 12.8s.1 3.3.8 3.5c.5.4 1.1.3 1.8.2 3.3-.5 6.3-1.8 9.2-3.3 4.7-2.4 8.8-5.5 12.3-9.5 3.6-4.1 6.3-8.7 8-13.9 2.3-6.8 2.7-13.8 1.4-20.9z"/></g></svg>