<svg enable-background="new 0 0 113.4 113.4" viewBox="0 0 113.4 113.4" xmlns="http://www.w3.org/2000/svg"><circle cx="56.7" cy="56.7" r="56.7"/><circle cx="56.7" cy="56.7" fill="#fff" r="45.1"/><path d="m50 20.2s-3.6 2.8-4.6 5.4c-1.9.3-10.2.7-16.4 11.7-1 .5-5.5 2.5-8.6 8.4 1.2-3.9 4.3-16.2 16.4-22.4 4.6-2.2 12.2-3.2 13.2-3.1z" fill="#c31a18"/><path d="m28 39.1s-2.5 6.8-2.1 9.5c-1.3.5-5.2 2.1-8.7 8.9 0-1.1 2.2-12.3 10.8-18.4z" fill="#c31a18"/><path d="m25.7 49.5s-1.7 10 4.8 21.5c5.7 9.7 16.5 19 16.5 19s-15-7.4-22.7-18.4c-6.4-9.2-5.3-13.7-4.7-15.2.6-1.3 2.1-4.7 6.1-6.9z" fill="#c31a18"/><path d="m42.3 43-1.3 3.2s-6-1-8.4.1c0-.9 1.5-3.6 4.8-4 1.5-.3 3.9.2 4.9.7z" fill="#c31a18"/><path d="m31.9 47.4s-3.8 6.8-1.2 15.3c2 6.7 5.4 13.9 7.7 15.5-.7-1.6-5.8-10.3-4.4-16.2.5-2.8 3.6-9.4 8.9-13.5-.7-.4-5.1-2.9-11-1.1z" fill="#c31a18"/><path d="m63.3 20.2s3.6 2.8 4.6 5.4c1.9.3 10.2.7 16.4 11.7 1 .5 5.5 2.5 8.6 8.4-1.2-3.9-4.4-16.2-16.5-22.5-4.5-2.1-12.1-3.1-13.1-3z" fill="#c31a18"/><path d="m85.4 39.1s2.5 6.8 2.1 9.5c1.3.5 5.2 2.1 8.7 8.9 0-1.1-2.2-12.3-10.8-18.4z" fill="#c31a18"/><path d="m87.6 49.5s1.7 10-4.8 21.5c-5.7 9.7-16.5 19-16.5 19s15-7.4 22.7-18.4c6.4-9.2 5.3-13.7 4.7-15.2-.5-1.3-2.1-4.7-6.1-6.9z" fill="#c31a18"/><path d="m71.1 43 1.3 3.2s6-1 8.4.1c0-.9-1.5-3.6-4.8-4-1.6-.3-4 .2-4.9.7z" fill="#c31a18"/><path d="m81.4 47.4s3.8 6.8 1.2 15.3c-2 6.7-5.4 13.9-7.7 15.5.7-1.6 5.8-10.3 4.4-16.2-.5-2.8-3.6-9.4-8.9-13.5.7-.4 5.1-2.9 11-1.1z" fill="#c31a18"/><path d="m84.8 40c-1.1-3.2-4.3-7.5-6.7-9.5-2.8-2.2-6.3-3.5-8.8-4-4-.7-4.6.1-5.1.6-.7.7.3 2 .7 2.6 1.2 1.8 5.9 3.3 6.3 3.5.5 1.2.1 1.6-.5 2.6-1.3 1.7-2.3 2.6-6.5 5.8-5 3.8-7.6 3.7-7.6 3.7s-2.6.2-7.6-3.7c-4.2-3.2-5.3-4-6.5-5.8-.5-.9-1-1.4-.5-2.6.4-.2 5.1-1.7 6.3-3.5.4-.6 1.4-1.9.7-2.6-.5-.6-1.1-1.3-5.1-.6-2.5.5-6 1.8-8.8 4-2.4 1.9-5.6 6.2-6.7 9.5-1.1 3.2-2.3 7.1-2.3 12.6 0 3.6.8 8.8 2.8 13.7 1.4 3.2 5.1 10.6 11.1 15.5-1.7-2.1-8.2-11.1-9.4-16.4-.8-3.4-2.8-8.9-.6-15.4.4-1 1.7-6.3 5.3-7.8.7-.3 5-2.6 8.8 1.8 3 3.4 4.6 4.8 7.9 10.8 1.7 3.2 2.5 5.4 3 13.3s1.5 28.2 1.5 28.2 1-20.3 1.5-28.2 1.2-10.1 3-13.3c3.3-6 4.9-7.4 7.9-10.8 3.8-4.4 8.1-2.1 8.8-1.8 3.7 1.5 5 6.8 5.3 7.8 2.2 6.5.2 12-.6 15.4-1.2 5.2-7.7 14.3-9.4 16.4 6-5 9.7-12.4 11.1-15.5 2-4.9 2.8-10.1 2.8-13.7.2-5.5-1-9.4-2.1-12.6z"/><g fill="#fff"><path d="m29.4 96.3 1.6.9-.3 4.5.3.2 3.7-2.5 1.6.9-5 3.4-2.2-1.3z"/><path d="m37.6 102.3c.6.3 1 .5 1.3.6.3.2.5.4.6.5.1.2.2.4.2.6s-.1.6-.3 1c-.1.3-.3.6-.3.7s-.2.3-.3.4c-.3.3-.6.4-1 .3s-.9-.2-1.7-.6c-.7-.3-1.1-.5-1.4-.7s-.5-.4-.6-.6-.1-.4-.1-.7c0-.2.2-.6.4-1.1.1-.3.2-.5.3-.7.1-.1.2-.3.3-.4.2-.2.5-.3.9-.2.4.4.9.6 1.7.9zm-.4 1c-.4-.2-.8-.3-.9-.3s-.2.1-.3.2-.2.3-.3.5-.1.4-.1.5 0 .2.1.3.4.3.9.5.8.3 1 .2.4-.3.5-.6c.1-.2.1-.4.1-.5s0-.2-.1-.3c-.2-.2-.5-.3-.9-.5z"/><path d="m41.1 102.1 1.4.4-1.7 5.2-1.4-.4z"/><path d="m46.7 109.2-1.3-.3.1-.6h-.1c-.2.2-.4.3-.7.4-.3 0-.6 0-1.1-.1-.4-.1-.8-.2-1-.4-.2-.1-.4-.3-.5-.5s-.2-.4-.2-.7c0-.2.1-.6.2-1.1l.4-1.7 1.4.3-.4 1.7c-.1.3-.1.5-.1.6s0 .2.1.3.2.2.3.2c.1.1.3.1.6.2.5.1.8.1 1 0 .1-.1.2-.2.3-.3s.1-.4.2-.7l.4-1.5 1.4.3z"/><path d="m48.2 105.6 1.3.2-.1.6h.1c.2-.2.4-.4.6-.5s.6-.1 1.1 0 .8.1 1.1.2.5.3.6.4c.2.2.2.4.3.6 0 .2 0 .6-.1 1.1l-.2 1.7-1.4-.2.2-1.7c0-.3 0-.5 0-.6s0-.2-.1-.3c-.1-.2-.4-.3-.9-.3-.5-.1-.8 0-1 .1-.1.1-.2.2-.2.3s-.1.4-.1.7l-.2 1.5-1.4-.2z"/><path d="m54.5 105.3h1.4v.9h2.3v1h-2.3v1.1c0 .3 0 .5.1.6s.2.2.5.2.5-.1.5-.2 0-.1 0-.1 0-.2 0-.4h1.3c0 .4 0 .6-.1.8 0 .2-.1.3-.2.5s-.3.3-.6.4-.6.1-1.1.1-.8 0-1-.1-.4-.1-.5-.3c-.1-.1-.2-.2-.2-.3s-.1-.3-.1-.5c0-.1 0-.3 0-.6v-1.1h-.8v-1h .8z"/><path d="m60.4 107.3-1.4.1c0-.3 0-.5.1-.7.1-.3.4-.5.8-.6s1-.2 1.8-.3c.6-.1 1.1-.1 1.3-.1s.4.1.6.3c.1.1.2.3.3.4.1.2.1.4.1.8l.2 2.3-1.4.1v-.5h-.1c-.1.2-.2.4-.5.5-.1.1-.3.1-.5.2-.2 0-.6.1-1 .1s-.7 0-.9 0-.4-.1-.5-.2c-.2-.2-.3-.4-.4-.8 0-.4 0-.8.2-1s .4-.3.7-.4.8-.1 1.6-.2h.7s.3.1.4.2h.1v-.2c0-.3-.1-.5-.2-.5s-.4-.1-.8 0c-.5 0-.8.1-.9.1-.3.1-.3.2-.3.4zm1 .9c-.5 0-.8.1-.9.2s-.2.2-.2.3c0 .2.1.3.2.3s.4 0 .8 0c .5 0 .8-.1 1-.2s.3-.2.2-.4c0-.2-.1-.3-.3-.3.1 0-.2.1-.8.1z"/><path d="m64.8 108.3 1.4-.3c0 .2.2.2.3.3.2 0 .5 0 .9-.1.5-.1.8-.2.9-.3s.2-.2.2-.3-.1-.2-.3-.2c-.1 0-.5.1-1.2.2s-1.1.2-1.3.2c-.5 0-.8 0-1-.2-.2-.1-.3-.4-.3-.7-.1-.6 0-1 .4-1.2.3-.2.9-.4 1.9-.6.6-.1 1.1-.2 1.4-.2s.5 0 .7.1c.1.1.2.1.3.3s.1.3.2.5l-1.4.3c0-.1-.1-.1-.1-.2-.1 0-.4 0-.9.1-.4.1-.7.2-.9.3s-.2.2-.2.3c0 .2.2.2.4.2s.8-.1 1.9-.4c.5-.1.9-.1 1.2 0s .5.4.5.8c.1.3.1.5 0 .7s-.2.4-.4.5c-.3.2-1 .4-2.1.7-.7.1-1.2.2-1.5.2s-.6 0-.8-.2c.1-.2-.1-.4-.2-.8z"/><path d="m73.4 107.5-2-5 3.6-1.5c.6-.3 1.1-.4 1.3-.5s.4-.1.7-.2c.5-.1 1 .1 1.3.5.1.2.2.3.3.5s.2.5.4.9.3.8.4 1 .1.5.1.7c0 .5-.2.9-.6 1.2-.2.1-.4.3-.7.4-.2.1-.6.3-1.2.5zm1-1.9 2.1-.9c.4-.2.7-.3.9-.4s.3-.2.3-.3c.1-.1.1-.2 0-.4 0-.2-.1-.4-.2-.7s-.2-.5-.3-.7c-.1-.1-.2-.2-.3-.3s-.3-.1-.4 0c-.2 0-.5.2-1 .3l-2.1.9z"/><path d="m83.5 101.4 1.2-.7c.2.4.2.7.1 1-.1.2-.3.5-.5.7-.3.2-.7.5-1.3.8-.5.3-.9.5-1.2.6s-.5.1-.8.1c-.2 0-.4-.1-.6-.3s-.4-.5-.6-.9c-.2-.3-.3-.6-.4-.7-.1-.2-.1-.3-.1-.5 0-.3.1-.7.4-.9s.7-.5 1.3-.9c.6-.3 1-.5 1.2-.6.4-.2.8-.2 1.1 0 .3.1.6.5.9 1 0 .1.1.2.2.3l-3.3 1.9c.1.2.2.3.2.3.1.1.1.1.2.1.2 0 .5-.1.9-.3.3-.2.5-.3.6-.4s.2-.2.2-.3c.4-.1.4-.2.3-.3zm-.5-1c-.1-.1-.1-.2-.2-.3 0 0-.1-.1-.2-.1-.2 0-.5.1-1 .3-.4.2-.7.4-.8.6s-.1.3 0 .6z"/><path d="m83 96.8 1.2-.8.6.8-1.2.8zm.9 1.3 1.2-.8 2.2 3.2-1.2.8z"/><path d="m5.1 68.3-.2-1.5 3.2-2.2v-.3l-3.7-1.1-.2-1.5 5 1.5.3 2.2z"/><path d="m8.5 56.5-.7.4.1 3.1.8.4.1 1.6-4.8-2.3-.1-2.2 4.6-2.6zm-1.7 1-1.7 1v .3l1.8.8z"/><path d="m3.9 54.4.1-1.5 3.5.3.3-3.3 1.2.1-.4 4.8z"/><path d="m4.5 49 .2-1.5 4.6.7-.2 1.6z"/><path d="m9.3 47.7-4.5-1.1.8-3.3c.1-.6.2-1 .3-1.1.1-.2.1-.4.2-.5.2-.4.5-.7 1-.7h.5c.2 0 .5.1.8.2.4.1.7.2.9.3s.4.2.5.3c.4.2.5.6.5 1 0 .2 0 .4-.1.7 0 .2-.1.6-.3 1.1zm-.8-1.6.5-1.9c.1-.4.1-.6.2-.8 0-.2 0-.3 0-.4s-.1-.2-.3-.2c-.1-.1-.3-.1-.6-.2s-.5-.1-.6-.1-.3 0-.4.1-.2.1-.2.3c-.1.1-.1.4-.3.8l-.5 1.9z"/><path d="m6.6 39.6.5-1.3 2 .8c.5.2.8.3.9.3.2 0 .3 0 .5-.2.1-.2.3-.5.5-1.1.2-.5.3-.8.3-1s0-.3 0-.4-.1-.1-.2-.2-.2-.1-.4-.2-.3-.2-.5-.2l-2-.8.5-1.3 2 .8c.7.3 1.1.5 1.3.6.3.2.5.5.6.8 0 .2 0 .5-.1.8s-.3.8-.6 1.5c-.2.5-.4.9-.5 1.2s-.3.5-.4.7c-.3.4-.7.6-1.2.5-.2 0-.3-.1-.5-.1-.1 0-.5-.2-1-.4z"/><path d="m12.1 34.7.7-1.2c.2.1.4.1.5.1s.1-.1.2-.2.2-.4.5-.9.5-.8.5-.9c.1-.1.1-.2.1-.3s-.1-.2-.2-.3-.2-.1-.3 0c-.1 0-.2.2-.3.4s-.3.5-.6 1-.5.8-.6 1c-.2.3-.3.5-.5.6-.1.1-.3.2-.4.2-.3.1-.6 0-1-.3-.5-.3-.7-.5-.8-.8-.1-.2 0-.5.1-.8s.4-.9.9-1.7c.3-.6.6-1 .8-1.2.3-.3.5-.5.7-.6.2 0 .5 0 .9.2 0 0 .1.1.2.1l-.7 1.2c-.1-.1-.2-.1-.2-.1s-.1 0-.2 0-.1.1-.2.2-.3.4-.5.9c-.3.5-.5.9-.5 1s0 .2.2.3c.1.1.3.1.4 0s .4-.5.8-1.3c.4-.6.7-1.1.8-1.3.2-.2.3-.4.5-.4.2-.1.4-.1.5-.1.2 0 .4.1.7.3.4.2.6.4.8.6-.1.2-.1.4-.1.5 0 .2-.1.4-.2.7s-.4.8-.8 1.5c-.3.6-.6 1.1-.8 1.3-.2.3-.4.5-.5.6-.2.1-.3.1-.5.1s-.4-.1-.7-.3z"/><path d="m13.7 25.9 3.2-4.1.9.7-2.3 3 .5.4 2.2-2.8.8.6-2.2 2.9.6.5 2.4-3 .9.7-3.3 4z"/><path d="m25.1 19 .3 1.1-.6.1c0 .2-.2.5-.4.8s-.7.8-1.4 1.5-1.2 1.1-1.5 1.4c-.4.3-.9.4-1.3.1-.3-.2-.7-.5-1.2-1s-.8-.9-1-1.2c-.2-.4-.2-.8.2-1.3.2-.3.7-.8 1.4-1.5s1.2-1.2 1.5-1.4c.4-.3.9-.4 1.3-.1.2.1.3.2.5.4s.4.4.7.7.6.6.7.8zm-3.9.9 1.7-.4-.1-.1c-.2-.2-.4-.4-.5-.5s-.2-.2-.3-.2-.3 0-.4.1-.4.4-.9.9-.8.9-.9 1c-.1.2-.1.3 0 .5s.3.4.6.7c.2.2.4.3.5.4s.2.1.3.1.3-.1.4-.2.4-.4.9-.8c.4-.4.7-.7.8-.9l-1.6.5z"/><path d="m22.9 16 1.1-.8 1.3 1.7c.3.4.5.6.6.7s.3.2.5.1.5-.3 1-.6c.4-.3.7-.5.8-.6s.2-.3.2-.4 0-.2 0-.2c0-.1-.1-.2-.2-.4s-.2-.3-.3-.4l-1.3-1.7 1.1-.8 1.3 1.7c.4.6.7 1 .8 1.2.2.3.2.7.1 1-.1.2-.2.4-.5.6-.2.2-.7.6-1.3 1-.5.3-.8.6-1.1.8s-.5.3-.7.4c-.5.2-.9.1-1.2-.2-.1-.1-.3-.3-.3-.4-.1-.1-.3-.4-.6-.8z"/><path d="m28.6 12 1.3-.8 2.4 4-1.3.8z"/><path d="m30.4 10.8 5-2.5.5 1.1-1.9.9 1.6 3.1-1.3.7-1.5-3.1-1.9.9z"/><path d="m41.9 10.9-.6-.6-2.9 1.1-.1.9-1.6.5.7-5.2 2.1-.8 3.9 3.5zm-1.5-1.4-1.5-1.4-.3.1-.2 2z"/><path d="m41.5 6.1 5.5-1.3.3 1.2-2 .5.8 3.4-1.5.4-.8-3.6-2 .5z"/><path d="m47.7 4.6 1.4-.2.2 2.1c.1.5.1.8.2.9.1.2.2.3.4.3s.6 0 1.2-.1c.5-.1.8-.1 1-.2s.3-.1.4-.2c0-.1.1-.1.1-.2s0-.2 0-.4 0-.4 0-.5l-.2-2.1 1.4-.2.2 2.1c.1.7.1 1.2.1 1.5 0 .4-.2.7-.5.9-.2.1-.4.2-.7.3s-.9.2-1.6.2c-.6.1-1 .1-1.3.1s-.6 0-.8 0c-.5-.1-.8-.3-1-.8-.1-.2-.1-.3-.1-.5 0-.1-.1-.5-.1-1z"/><path d="m54.6 7h1.4c0 .2 0 .4.1.4s.2.1.3.1h1s1 0 1.1 0 .2 0 .3 0 .2-.2.2-.4c0-.1 0-.2-.1-.3-.1 0-.2-.1-.5-.1-.2 0-.5 0-1.1-.1-.6 0-1-.1-1.1-.1-.3 0-.6-.1-.8-.1-.2-.1-.3-.1-.4-.3-.2-.2-.3-.5-.2-1 0-.5.1-.9.3-1.1s.4-.3.7-.3 1-.1 1.9 0c .7 0 1.2 0 1.4.1.4.1.7.2.9.4s.2.5.2.9v.2h-1.4c0-.1 0-.2 0-.3 0 0 0-.1-.1-.1s-.2-.1-.3-.1c-.2 0-.5 0-1 0-.6 0-1 0-1.1 0s-.2.1-.2.3.1.3.2.3.6.1 1.5.1c.8 0 1.3.1 1.5.1s.5.1.6.2c.2.1.3.2.4.4s.1.4.1.8-.1.8-.2 1-.2.3-.4.3c-.2.1-.4.1-.7.1s-.9 0-1.7 0c-.7 0-1.2 0-1.6-.1-.3 0-.6-.1-.8-.2s-.3-.2-.4-.4-.1-.4-.1-.8z"/><path d="m67 7.8 1.4.3c0 .2-.1.4-.1.4-.1.4-.2.6-.3.8-.2.2-.4.3-.8.3s-.9 0-1.8-.2-1.5-.3-1.9-.4-.6-.2-.8-.3-.3-.3-.3-.4c-.1-.2-.1-.4-.1-.6s.1-.6.2-1.1.2-.9.2-1.1c.1-.2.1-.4.2-.5.2-.3.5-.4.9-.4s1.2.1 2.4.3c.6.1 1 .2 1.3.3s.5.2.6.3c.2.1.3.3.4.5v.9.2l-1.4-.3c0-.2 0-.3 0-.3 0-.1 0-.1-.1-.1 0-.1-.2-.1-.4-.2s-.5-.1-1-.2c-.4-.1-.7-.1-.9-.1s-.3 0-.4 0c-.1.1-.2.2-.2.3-.1.2-.1.4-.2.8s-.1.6-.1.7 0 .3.1.3c.1.1.2.1.4.2s.5.1.9.2c.5.1.9.2 1.1.2s.3 0 .4-.1c.2-.2.3-.4.3-.7z"/><path d="m73.3 11.5-.1-.9-2.9-1-.6.6-1.7-.4 3.8-3.7 2.1.7.9 5.2zm-.3-2-.3-2-.3-.1-1.4 1.4z"/><path d="m76.9 7.9 4.7 2.2-.5 1-3.4-1.6-.3.6 3.2 1.5-.4.9-3.2-1.5-.3.7 3.4 1.6-.5 1-4.7-2.2z"/><path d="m82.3 10.5 1.3.8-1.8 3 2.8 1.7-.6 1-4.2-2.5z"/><path d="m86.8 13.4 1.2.9-2.7 3.8-1.2-.9z"/><path d="m88.6 14.6 4.3 3.6-.8.9-1.6-1.3-2.2 2.7-1.1-1 2.2-2.7-1.6-1.3z"/><path d="m93.4 18.7 1 1-1.6 1.5c-.4.3-.6.6-.7.7-.1.2-.1.3 0 .5s.3.5.8.9c.3.4.6.6.7.7.2.1.3.2.4.2s.2 0 .2-.1c.1 0 .2-.1.4-.3.2-.1.3-.2.4-.3l1.6-1.5 1 1-1.6 1.5c-.6.5-.9.8-1.1.9-.3.2-.7.3-1 .2-.2-.1-.4-.2-.7-.4s-.6-.6-1.1-1.2c-.4-.4-.7-.7-.9-1-.2-.2-.3-.5-.5-.7-.3-.4-.2-.9.1-1.3.1-.1.2-.3.3-.4s.4-.3.8-.7z"/><path d="m95.6 25.7.8 1.1c-.2.1-.3.3-.3.4s0 .2.1.3.2.4.6.8c.3.5.6.8.6.9.1.1.1.2.2.2.1.1.2 0 .4-.1.1-.1.2-.2.2-.3s-.1-.2-.2-.4c-.1-.1-.3-.5-.6-.9-.3-.5-.5-.8-.6-1-.2-.3-.3-.5-.4-.7s-.1-.3 0-.5c.1-.3.3-.5.7-.8s.8-.4 1.1-.4c.2 0 .4.2.7.4.2.2.6.7 1.2 1.5.4.6.7 1 .8 1.2.2.4.3.7.2.9s-.3.5-.6.7c0 0-.1.1-.2.1l-.8-1.1c.1-.1.2-.1.2-.2v-.1c0-.1 0-.2-.1-.3s-.3-.4-.6-.8c-.3-.5-.6-.8-.7-.9s-.2-.1-.4 0c-.1.1-.2.2-.1.3 0 .1.3.5.8 1.3.4.6.7 1.1.8 1.3s.2.4.2.6 0 .4-.1.5c-.1.2-.3.3-.6.5-.4.3-.7.4-.9.4s-.3 0-.5-.1-.3-.2-.5-.5c-.2-.2-.5-.7-1-1.4-.4-.6-.7-1-.9-1.3s-.3-.5-.3-.7 0-.4.1-.5.3-.3.6-.5z"/><path d="m100 32.2.6 1.2c-.2.1-.3.2-.3.3s0 .2 0 .3.2.4.4.9c.3.5.4.9.5 1s .1.2.2.2c.1.1.2.1.4 0 .1-.1.2-.1.2-.2s0-.2-.1-.4-.2-.5-.5-1c-.2-.5-.4-.9-.5-1-.1-.3-.2-.6-.3-.8 0-.2 0-.4 0-.5.1-.2.4-.5.8-.7.5-.2.9-.3 1.1-.2s.4.2.6.5.5.8.9 1.7c.3.6.5 1.1.6 1.3.1.4.2.7.1 1-.1.2-.3.4-.7.6 0 0-.1 0-.2.1l-.6-1.2c.1-.1.2-.1.2-.1l.1-.1c0-.1 0-.2-.1-.3s-.2-.4-.4-.9c-.3-.5-.4-.9-.5-1s-.2-.1-.4 0c-.1.1-.2.2-.2.3s.2.6.6 1.4c.3.7.5 1.2.6 1.4s.1.4.1.6-.1.4-.2.5-.3.3-.6.4c-.4.2-.7.3-1 .3-.2 0-.3-.1-.5-.2-.1-.1-.3-.3-.4-.5-.2-.3-.4-.8-.8-1.5-.3-.6-.5-1.1-.6-1.4s-.2-.6-.2-.8.1-.4.2-.5.3-.3.6-.4z"/><path d="m105.6 36.8 1.7 4.9-1 .4-1.2-3.6-.6.2 1.2 3.4-1 .3-1.2-3.4-.7.2 1.3 3.6-1.1.4-1.7-4.9z"/><path d="m103 43.6 4.6-1 .7 3.4c.2.8.3 1.3.3 1.4 0 .2 0 .3-.1.5s-.2.3-.4.5c-.2.1-.5.2-.8.3s-.6.1-.7.1c-.2 0-.3-.1-.4-.1-.1-.1-.2-.3-.3-.5 0 .3 0 .5-.1.7-.1.1-.2.2-.3.2s-.4.1-.8.2l-.4.1-.3-1.4.2-.1c.3-.1.4-.1.5-.1s.2-.1.2-.2.1-.1.1-.2 0-.3-.1-.6l-.4-2-1.2.3zm2.6.9.4 2c .1.3.1.5.2.6 0 .1 0 .1.1.2s.1.1.2.1h.3c.1 0 .3-.1.3-.1.1 0 .1-.1.1-.2s0-.1 0-.2 0-.3-.1-.6l-.4-2z"/><path d="m104.7 54.6.8-.5-.3-3.1-.8-.3-.1-1.6 4.9 2.1.2 2.2-4.5 2.8zm1.8-1 1.7-1v-.3l-1.8-.8z"/><path d="m104.8 56.3 4.7.2-.2 3.2c0 .6-.1 1-.1 1.2-.1.5-.2.8-.5.9-.2.2-.7.2-1.3.2s-1-.1-1.2-.3c-.2-.1-.3-.2-.3-.4-.1-.2-.1-.4-.1-.7 0-.2 0-.6 0-1.1l.1-1.8-1.1-.1zm2.3 1.6-.1 1.8v.6s0 .1 0 .2.1.1.2.2c.1 0 .2.1.4.1h.4c.1 0 .1-.1.2-.2 0-.1.1-.3.1-.7l.1-1.8z"/><path d="m109.1 63.1-.3 1.5-1.6-.3-.6 3.2 1.6.3-.3 1.5-4.6-.8.3-1.5 1.7.3.6-3.2-1.7-.3.3-1.5z"/></g></svg>