<?xml version="1.0" encoding="utf-8"?>
<!-- Generator: Adobe Illustrator 24.1.1, SVG Export Plug-In . SVG Version: 6.00 Build 0)  -->
<svg version="1.1" id="Capa_1" xmlns="http://www.w3.org/2000/svg" xmlns:xlink="http://www.w3.org/1999/xlink" x="0px" y="0px"
	 viewBox="0 0 566.9 566.9" style="enable-background:new 0 0 566.9 566.9;" xml:space="preserve">
<style type="text/css">
	.st0{fill:#0C0D09;}
	.st1{fill:#E63631;}
	.st2{fill:#FFEC00;}
	.st3{fill:#FFEB00;}
	.st4{enable-background:new    ;}
	.st5{fill:none;}
</style>
<circle class="st0" cx="283.5" cy="283.5" r="279.2"/>
<path class="st1" d="M193.6,534.1c-0.3-35.3,12.7-63.9,43.3-82.4c31.9-19.3,64.7-18.5,95.9,1.8c28.6,18.7,40.8,46.4,40.4,79.8
	C334,555.3,240.1,555.7,193.6,534.1z"/>
<path class="st2" d="M316.2,545.4l-33.3-21.6l-33.4,21.6c3.7-13,7-24.6,10.4-36.6L232,486h36.3c4.7-12,9.3-23.6,14.5-36.9
	c5.2,13.1,9.7,24.6,14.4,36.3h34.7l0.6,1.3l-28.3,21.9C308.1,520.3,311.9,531.9,316.2,545.4z"/>
<path class="st1" d="M283.5,85.7c-109,0-197.4,88.4-197.4,197.4c0,78.5,46.5,149.6,118.5,181c7.7-9.9,17.1-18.3,27.9-24.7
	c35-21.1,71-20.3,105.1,2c9.5,6.1,17.8,13.8,24.7,22.7c72-31.4,118.5-102.5,118.5-181C480.9,174.1,392.5,85.7,283.5,85.7z"/>
<path class="st3" d="M45.1,325.4L16,308c1.6,17,4.8,33.8,9.7,50.1l30.8,8.9C51.4,353.5,47.6,339.6,45.1,325.4z"/>
<path class="st3" d="M41.2,282.3c0-3,0.1-6,0.2-9l-24.6-24.2c-1.4,11-2.1,22.1-2.1,33.2c0,4.4,0.1,8.8,0.3,13.2l28.2,17.7
	C41.9,303,41.2,292.7,41.2,282.3z"/>
<path class="st3" d="M60.2,376.4L29,368.8c7.5,22.2,18,43.2,31,62.7l32.2-0.7C79.2,414.2,68.4,395.8,60.2,376.4z"/>
<path class="st3" d="M99.6,439.9H65.9c17.2,23.6,38.1,44.3,61.9,61.3l35.7-8.6C139.3,478.8,117.7,461,99.6,439.9z"/>
<path class="st3" d="M30.5,250.7L20,239c0,0,16.2-96.5,75.6-136.5C88.3,113.2,44.6,152.2,30.5,250.7z"/>
<path class="st3" d="M39.3,256.6l4.8,7.4l7-6c0,0,3-70.5,59.3-138.2C101.5,125.1,55.6,157.9,39.3,256.6z"/>
<path class="st3" d="M64.9,244l11.3-11.2c0,0,5.5-40.3,50.1-97C114.1,146.8,73,181.9,64.9,244z"/>
<path class="st3" d="M75.5,246l-25.9,23.3c-0.2,4.3-0.4,8.6-0.4,13c0,8.4,0.5,16.8,1.4,25.2l21.9-34.1C73,264.3,73.9,255.1,75.5,246
	z"/>
<path class="st3" d="M72.6,290.6l-20,30.7c2.2,13.3,5.6,26.4,10.1,39.1l12.6-43.4C73.8,308.2,72.9,299.4,72.6,290.6z"/>
<path class="st3" d="M104.3,393.9V433c17.9,21.3,39.5,39.2,63.7,53l-10.9-34.6C136.1,435.7,118.2,416.2,104.3,393.9z"/>
<path class="st3" d="M78.9,334.6l-11.2,39c7.4,17.5,17,34,28.4,49.2l0.7-41.9C89,366.3,83,350.7,78.9,334.6z"/>
<path class="st3" d="M520.9,325.4L550,308c-1.6,17-4.8,33.8-9.7,50.1l-30.8,8.9C514.6,353.5,518.4,339.6,520.9,325.4z"/>
<path class="st3" d="M524.8,282.3c0-3-0.1-6-0.2-9l24.6-24.2c1.4,11,2.1,22.1,2.1,33.2c0,4.4-0.1,8.8-0.3,13.2l-28.2,17.7
	C524.1,303,524.8,292.7,524.8,282.3z"/>
<path class="st3" d="M505.9,376.4l31.1-7.5c-7.5,22.2-17.9,43.2-30.9,62.7l-32.2-0.7C486.9,414.2,497.6,395.8,505.9,376.4z"/>
<path class="st3" d="M466.4,439.9h33.8c-17.2,23.6-38.1,44.3-61.9,61.3l-35.7-8.6C426.7,478.8,448.3,461,466.4,439.9z"/>
<path class="st3" d="M535.5,250.7L546,239c0,0-16.2-96.5-75.6-136.5C477.7,113.2,521.4,152.2,535.5,250.7z"/>
<path class="st3" d="M526.7,256.6l-4.8,7.4l-7-6c0,0-3-70.5-59.3-138.2C464.5,125.1,510.4,157.9,526.7,256.6z"/>
<path class="st3" d="M501.1,244l-11.4-11.2c0,0-5.5-40.3-50.1-97C451.9,146.8,493,181.9,501.1,244z"/>
<path class="st3" d="M490.5,246l25.9,23.4c0.2,4.3,0.4,8.6,0.4,13c0,8.4-0.5,16.8-1.4,25.2l-22-34.1
	C493.1,264.3,492.1,255.1,490.5,246z"/>
<path class="st3" d="M493.5,290.6l20,30.7c-2.2,13.3-5.6,26.4-10.1,39.1l-12.6-43.4C492.2,308.2,493.1,299.4,493.5,290.6z"/>
<path class="st3" d="M461.7,393.9V433c-17.9,21.3-39.5,39.2-63.7,53l10.9-34.6C429.9,435.7,447.8,416.2,461.7,393.9z"/>
<path class="st3" d="M487.1,334.6l11.2,39c-7.4,17.5-17,34-28.4,49.2l-0.7-41.9C477,366.3,483,350.7,487.1,334.6z"/>
<g class="st4">
	<path class="st3" d="M184.5,71.4l-1.8,4.6c-2.5-1.7-4.6-3.1-6.5-4.2L188,97.1l-4.4,2.1l-11-23.6c0.1,5.5-0.3,9.7-1.3,12.7l-4.5-3.9
		c1.4-4.7,1.9-10.5,1.3-17.4l-7.4,3.4l-2.1-4.6l7.7-3.6l-4.1-8.8l4.4-2.1l4.1,8.8l6.8-3.2l2.1,4.6l-6.8,3.2l0.5,1.1
		C177.6,67.5,181.3,69.4,184.5,71.4z M220.3,77.5l-1,5c-3.8-0.3-7.7-1.2-11.8-2.8c-1.9,4.7-4.1,8.4-6.4,11.4l-4.4-2.6
		c2.6-3.2,4.7-6.9,6.3-11c-4.9-2.9-9.1-7.1-12.7-12.4c3.8,11.1,4.9,20.8,3.2,29.1l-5.1-1.4c1.2-5.9,1-11.9-0.6-18.2
		c-1.5-6.2-4.3-13.8-8.4-22.6l-4.3,2l-2.2-4.7l24.8-11.5c1.5,5.9,2.8,11.3,3.8,16.1l4.8-2.2c3.1,8.3,3.9,16,2.4,23.1
		C212.4,76.3,216.2,77.2,220.3,77.5z M194.5,45.1L184.1,50c1.8,4.1,3.2,7.5,4.3,10.2l8.5-3.9C196.4,53.4,195.6,49.7,194.5,45.1z
		 M203.5,58.7l-8.8,4.1c2.5,3.8,5.7,7.1,9.6,9.8C205,68.4,204.7,63.8,203.5,58.7z"/>
</g>
<g class="st4">
	<path class="st3" d="M277,70.3L227.4,78l-0.8-5.1l20.4-3.2l-6.7-43.2l5.3-0.8l2.7,17.1l21.4-3.3l0.8,5l-21.4,3.3l3.3,21.1l23.9-3.7
		L277,70.3z"/>
</g>
<g class="st4">
	<path class="st3" d="M336,64.9c-1.1,4.7-2,7.7-2.9,9.1c-0.8,1.4-1.8,2.2-2.9,2.5c-1.1,0.3-3.8,0.1-7.9-0.4
		c-2.8-0.4-5.1-0.7-7.1-1.1c-2-0.4-3.3-1-3.9-1.9c-0.6-0.9-0.9-2.2-0.6-3.9l2.5-19.4l-0.9-0.1c-4.5,11.8-13,19.4-25.3,22.7l-2.8-4.5
		c11.5-3.3,19.1-9.6,22.8-18.9l-19.5-2.6l0.6-4.8l20.5,2.7c1.2-3.2,2.2-7.6,3-13.2l-20.4-2.7l0.6-4.8l46.9,6.2l-0.6,4.8l-21.4-2.8
		c-0.7,4.5-1.7,8.9-2.9,13.2l23.8,3.1l-0.6,4.8l-18.8-2.5l-2.4,18.5c-0.1,0.5,0.1,0.8,0.6,1.1c0.4,0.2,2.3,0.6,5.6,1
		c3.5,0.5,5.5,0.6,5.9,0.5c0.4-0.1,0.8-0.4,1.2-0.8c0.4-0.4,0.8-1.5,1.3-3.4c0.5-1.8,0.8-3.5,1-5.1L336,64.9z"/>
</g>
<g class="st4">
	<path class="st3" d="M376.2,59.7l-8.6-3.7l-3.5,8.2l6.6,2.9l-8.7,20l-4.5-2l0.8-2l-9.3-4l-1.5,3.5l-4.4-1.9l9.4-21.6l7.3,3.2
		l3.5-8.2l-9.7-4.2l1.8-4.2l9.7,4.2l2.5-5.9c-2.5-0.6-5.3-1.5-8.3-2.8l0.3-5c7.4,2.9,14.4,4.9,20.9,5.9l0.6,4.7
		c-1.8-0.1-4.7-0.6-8.9-1.5l-2.8,6.4l8.6,3.7L376.2,59.7z M360.3,78.7l4.1-9.5l-9.3-4l-4.1,9.5L360.3,78.7z M388.7,96.9l-4.7,2.2
		c-3.1-4.8-5.2-9-6.3-12.6c-4,1.9-8.5,3.2-13.4,3.9l-0.7-4.9c5-0.6,9.3-1.9,13.1-4c-0.4-4.8-0.1-9.4,1.1-13.9l4.8,0.4
		c-0.9,3.1-1.3,6.5-1.2,10.3c4.3-3.7,8.2-9,11.7-16.2l-7.4-3.2c-4,4.5-7.6,7.8-10.8,9.9l-1.8-4.6c5.6-4.4,11.2-10.5,16.7-18.3l4,2.9
		c-1,1.5-2.6,3.6-4.8,6.3l14.4,6.2l-1.9,4.4l-3.9-1.7c-4.9,9.3-10,15.9-15.3,19.8C382.7,87.4,384.9,91.7,388.7,96.9z"/>
</g>
<path class="st5" d="M404.7,488.4l-0.1-0.1l0,0L404.7,488.4z"/>
<polygon class="st3" points="164.2,346.3 164.2,346.3 164.2,346.3 "/>
<path class="st1" d="M306.4,150.2c51.7,118.5,7.2,199.5-7.8,221.6c8.9,2.1,17.4,5.8,24.9,11c60.7-53.3,66.7-145.7,13.4-206.4
	C328,166.4,317.8,157.5,306.4,150.2L306.4,150.2z"/>
<path class="st1" d="M261,150.2c-51.7,118.5-7.1,199.5,7.9,221.6c-8.9,2.1-17.4,5.8-24.9,11c-60.7-53.3-66.6-145.7-13.3-206.4
	C239.5,166.4,249.7,157.5,261,150.2z"/>
<polygon class="st2" points="111.3,249.4 185.1,249.4 258.9,107.7 "/>
<polygon class="st2" points="211.9,249.4 359.4,249.4 285.6,107.7 "/>
<polygon class="st2" points="384,249.4 455.6,249.4 313.8,107.7 "/>
<polygon class="st2" points="455.6,271.8 381.8,271.8 308,413.6 "/>
<polygon class="st2" points="355.1,271.8 207.5,271.8 281.3,413.6 "/>
<polygon class="st2" points="182.9,271.8 111.3,271.8 253.1,413.6 "/>
</svg>
