<svg enable-background="new 0 0 113.4 113.4" viewBox="0 0 113.4 113.4" xmlns="http://www.w3.org/2000/svg"><path d="m56.7 0c31.4 0 56.8 25.4 56.7 56.8 0 31.3-25.5 56.6-56.8 56.6s-56.6-25.5-56.6-56.8c.1-31.2 25.5-56.6 56.7-56.6z" fill="#d93831"/><path d="m62.3 98.7c1.6-.3 3.1-.7 4.7-1 4.6-1.1 9-3 12.9-5.7.1 0 .3.1.2.2-.3 1.4-.5 2.8-1.1 4.1-.1.6-.3 1.2-.4 1.7-.1.3-.2.6-.3.8-.1.1-.1.1 0 .2-.2.3-.2.5 0 .8.1.1.2.1.2.1.1 0 .2 0 .3.1 0 .1.1.1.2 0 .3.1.5.1.8.1h.3c.2.1.3.2.6.2.1 0 .2 0 .3.1.3.3.6.1.9.2.3.3.6.2.9.2.5.2 1 .4 1.5.5h.3c.2.1.5.1.7.2.1 0 .2.1.3.1.1.1.2.2.2.4-5.4 3.6-11.3 5.9-17.5 7.3-1.1.2-2.1.6-3.2.5-.3.2-.6.1-1 .1.4-1.6-.2-3.2 0-4.7.8-.9 1.6-.8 2.6-.4.1-1.2-.1-2.3-.4-3.4-2 .3-3.9.8-5.9.9-.1 1.3.3 2.6.6 3.8.2 1-.4 1.8-1 2.5-.5.6-1 1.1-1.5 1.7-.1.1-.2.2-.3.2-10.6.3-20.3-2.4-29.4-7.7-.4-.2-.8-.4-1.2-.7-.2-.7.5-.7.9-.9 2-.6 3.9-1.1 5.9-1.6.1 0 .2-.1.3-.1l.1-.1c.3-.3.1-.6 0-.9-.5-2.1-1.3-4.1-1.5-6.3 0-.2-.2-.5.2-.6 8 5.3 16.9 7.5 26.5 6.7.8.3 1.6.4 2.3.4.5.5.4 1.1.1 1.7-1.1.7-2.6.6-3.8.9 3.2-.5 6.4-.9 9.5-1.6-1.5.1-2.9 1-4.5.5-.4-.5-.4-1.3-1.3-1.5z" fill="#fff"/><path d="m56.8 88.2c-17.4 0-31.5-14.1-31.5-31.5s14.1-31.5 31.6-31.5c17.4 0 31.5 14.2 31.5 31.6-.1 17.3-14.3 31.4-31.6 31.4z" fill="#fff"/><path d="m100.5 88.7c-3.5 4.7-7.7 8.8-12.5 12.2-.1.1-.2.2-.4.2-.7 0-1.3-.3-2-.4-.3-.3-.7-.2-1.1-.3-.6-.3-1.2-.4-1.8-.5-.6-.3-1.2-.3-1.8-.5-.2-.8.6-.9 1-1.2 3.6-2.2 6.8-4.8 9.7-7.7.8-.7 1.2-1.7 2.1-2.3.2-.1.5-.2.7-.3 1.6-.2 3.3-.1 4.9-.1.7.1 1.4 0 1.2.9z" fill="#fff"/><path d="m25.5 100.9c-4.8-3.4-9-7.5-12.5-12.2-.3-.6.2-.8.6-.8 2 0 3.9-.3 5.9.3.4.2.6.4.9.7 3.2 3.9 7.1 6.8 11.3 9.5.4.2 1.2.3.9 1.1-2.1.8-4.3 1.4-6.5 1.6h-.1-.1c-.2 0-.3-.1-.4-.2z" fill="#fff"/><path d="m82 90.5c4.2-3.3 7.9-7.1 10.6-11.6.7.1.5.6.5 1v7.1c0 .7-.3 1.3-.8 1.8-3.2 3.3-6.5 6.5-10.6 8.8-.6.3-1.1.9-2 .6.4-2.1 1-4.1 1.6-6.1.3-.6.3-1.2.7-1.6z" fill="#fff"/><path d="m20.9 78.8c2.8 4.6 6.5 8.3 10.6 11.6 1 2.5 1.9 4.9 2.1 7.6-.6.4-1.1-.1-1.6-.3-4.2-2.4-7.8-5.7-11.1-9.2-.4-.5-.6-1-.6-1.6 0-2.3 0-4.6 0-7 .1-.3-.2-1 .6-1.1z" fill="#fff"/><path d="m107.9 74.5c-1.6 4.3-3.6 8.5-6.2 12.4-1 .4-2.1.5-3.2.5-1-.2-2.1.2-3.1-.3-.2-.6.1-1 .4-1.3 2.3-3.1 4.2-6.4 5.7-9.9.3-.4.7-.5 1.1-.7.3-.1.5-.2.8-.2.1 0 .2-.1.3-.1.2 0 .5-.1.7-.2.1 0 .2-.1.3-.1.2-.1.5-.1.7-.2.1 0 .2-.1.3-.1.2-.1.5-.1.7-.2.1 0 .2-.1.3-.1.3-.1.5-.2.8-.2.1 0 .2 0 .3.1.2.1.2.3.1.6z" fill="#fff"/><path d="m11.8 86.8c-2.6-3.9-4.6-8-6.2-12.4 0-.3 0-.3.2-.6.4 0 .7.2 1.1.4.3.2.7-.1 1 .3.9.2 1.9.3 2.8.8.3.1.6 0 .9.2.1.1.3.2.4.4 1.6 3.5 3.5 6.8 5.8 9.9.3.4.2.4.3 1.3-1.6.4-3.2.1-4.7.2-.6-.1-1.1-.1-1.6-.5z" fill="#fff"/><path d="m15.8 66.6c.6 3.3 1.9 6.4 3.4 9.4.4 3.2.3 6.4.2 9.6-.8.1-1.1-.3-1.4-.6-1.9-2.6-3.6-5.4-4.9-8.4-.2-.5-.2-.9-.2-1.3s0-.8.1-1.1c0-.1.1-.2.1-.3.1-.3.1-.6.2-.8 0-.1.1-.2.1-.3.4-1.4.8-2.9 1.1-4.4 0-.1.1-.2.1-.4.2-.6.2-1.2.7-1.6.3-.1.4 0 .5.2z" fill="#fff"/><path d="m94.4 75.7c1.5-2.9 2.7-5.9 3.3-9.1.1-.1.1-.3.3-.3.3.1.4.4.5.6 0 .1.1.2.1.3 0 .3.1.5.2.8 0 .1.1.2.1.3.1.3.1.5.2.8 0 .1.1.2.1.3.2.8.4 1.6.6 2.3 0 .1.1.2.1.3.1.6.3 1.1.4 1.7 0 .1.1.2.1.3.1.3.2.6.3.9v.4c-.1 1.1-.7 2-1.1 2.9-1.1 2.2-2.4 4.3-3.8 6.3-.3.5-.6 1-1.3 1.1-.6-.9-.8-6.5-.3-9.5.1-.1.1-.3.2-.4z" fill="#fff"/><path d="m17.7 21.9c-4 5-7.2 10.4-9.4 16.5-1.3 3.8-2.3 7.6-2.7 11.7-1-.4-1.4-1.3-2.2-1.9.6-4 1.7-7.7 3.3-11.2 2.4-5.7 5.7-10.9 10.2-15.3.1-.1.1-.2.2-.2.1-.1.1-.2.2-.2.1-.1.1-.2.2-.2.1-.1.1-.2.2-.2.1-.1.3-.2.4 0 .2.2.2.3 0 .5-.1.1-.2.2-.2.3-.1.1-.2.2-.2.2.1-.2 0-.1 0 0z" fill="#fefaf9"/><path d="m96.4 21.3c4.6 4.4 7.9 9.7 10.4 15.5 1.5 3.6 2.7 7.3 3.3 11.2-.5.8-1.2 1.4-2.1 2.2-.4-3.1-.9-6-1.7-8.8-2-6.8-5.2-13-9.7-18.5-.2-.3-.5-.6-.7-.9 0-.2-.1-.3-.3-.3 0-.1-.1-.2-.2-.3-.1-.1-.2-.2-.2-.3-.1-.2-.1-.4 0-.5s.3-.1.4 0c .1.1.2.1.2.2.1.1.2.1.2.2.3.2.3.2.4.3z" fill="#fefaf8"/><path d="m21.6 23.7c.2.5-.2.8-.5 1.1-6.2 7.5-10 16-11.2 25.8-.1 1.1-.6 1.8-1.5 2.4-.5-.1-.7-.6-1-.8-.4-8.1 9.2-27.2 14.2-28.5z" fill="#fefaf8"/><path d="m94.5 25.9c4.3 4.5 7.2 9.7 9.3 15.5 1.2 3.4 2.1 7 2.4 10.5-.3.5-.6.8-1.1 1-.9-.6-1.4-1.4-1.5-2.5-1-8.8-4.2-16.7-9.6-23.7-.1-.1-.1-.2-.2-.3 0-.1-.1-.2-.2-.3-.1-.1-.2-.2-.2-.3-.1-.1-.2-.2-.2-.2-.1 0-.1-.1-.1-.1 0-.2-.1-.3-.3-.3 0-.1-.1-.2-.3-.3 0-.1-.1-.2-.2-.3-.1-.1-.2-.2-.2-.3-.1-.1-.2-.1-.2-.2s0-.2-.1-.3c.1-.1.1-.2.2-.2s.2 0 .2.1c.1.2.3.3.5.4.1 0 .2.1.2.2.2.2.3.3.5.5.2.2.3.3.5.5.4.2.3.5.6.6z" fill="#fefaf9"/><path d="m110.7 62c-.4 3.5-1.1 6.8-2 10.2-.7.7-1.6.8-2.5 1.1-.1 0-.2.1-.3.1-.3.1-.5.1-.8.2-.1 0-.2.1-.3.1-.3.1-.6.1-.9.2s-.5.2-.8.2c-.1 0-.1 0-.2-.1s-.2-.2-.2-.3c-.1-.8.3-1.5.5-2.2.6-2 1.1-4 1.5-6 .1-.4.4-.6.7-.9.1-.1.2-.1.3-.2.3-.2.6-.3.9-.4.1-.1.2-.1.3-.1.2-.1.4-.3.6-.4.1-.1.2-.2.4-.2.1-.1.2-.1.2-.1.2-.1.3-.2.5-.3.1-.1.2-.1.2-.1.1-.1.2-.1.4-.2.1 0 .2-.1.2-.1.1-.1.2-.1.4-.2.1-.1.2-.1.3-.1 0-.3.3-.5.6-.2z" fill="#fff"/><path d="m4.9 72.2c-1-3.3-1.7-6.7-2-10.2.5-.4.9.1 1.3.2.1 0 .2.1.3.1.1.1.3.1.4.2.1 0 .2.1.2.1.1.1.3.2.5.3.1 0 .2.1.2.1.1.1.2.1.4.2.1 0 .2.1.2.1.2.1.3.2.5.3.1 0 .2.1.3.1.3.2.7.3 1 .5.3.3.7.6.8 1 .5 2.4 1.1 4.9 1.9 7.2.1.4.2.8 0 1.2-.1.1-.2.1-.3 0-.3-.2-.6 0-.9-.2-.6-.3-1.3-.3-1.9-.6-1 0-2.1.1-2.9-.6z" fill="#fff"/><path d="m2.9 60.2c-.5-2.5-.2-5-.1-7.4 0-.9.2-1.7.3-2.9 1.8 1.8 3.5 3.3 4.9 5.1.4 1.2.2 2.4.3 3.6.2 1.2 0 2.4.2 3.6.1.3 0 .7-.3.9-.2.2-.5.1-.7 0-.1 0-.2-.1-.3-.2s-.3-.2-.4-.2-.2-.1-.3-.2c-.3-.2-.5-.3-.8-.5-.1 0-.2-.1-.3-.1-.1-.1-.3-.1-.4-.2-.1 0-.2-.1-.2-.1-.1-.1-.3-.2-.5-.3-.1 0-.2-.1-.2-.1-.1-.1-.2-.1-.4-.2-.1 0-.2-.1-.2-.1-.1-.1-.2-.2-.3-.3-.2-.2-.2-.3-.3-.4z" fill="#fff"/><path d="m105.6 54.9c1.4-1.7 3.1-3.2 4.7-4.9.5.9.4 1.8.4 2.6.2 2.5.4 5-.1 7.6-.1.1-.2.2-.3.2-.2.3-.5.4-.7.6-.1.1-.2.1-.3.2-.2.1-.4.2-.5.3s-.2.1-.3.2-.3.1-.4.2-.2.1-.3.1c-.3.2-.7.4-1 .6-.1.1-.2.1-.3.2-.4.2-.8.5-1.3.3-.2-.1-.3-.3-.3-.5.3-2.6.3-5.2.7-7.7z" fill="#fff"/><path d="m88.9 26.6c6.4 5.9 10.5 13.1 11.8 21.8-1.4-1.1-2.8-2.1-3.2-4-1.5-6.5-4.9-12-8.9-17.2-.1-.1-.2-.2-.2-.3-.1-.1-.2-.1-.2-.2-.1 0-.1-.1-.1-.2s0-.2 0-.3c.1 0 .2-.1.3 0 0 .1.1.2.3.2-.1.1 0 .2.2.2z" fill="#fffefe"/><path d="m25.5 26.5c0 .1 0 .1-.1.2 0 .1-.1.2-.2.2-.1.1-.2.2-.2.3-4.2 5.4-7.6 11.3-9.2 18.1-.4 1.5-1.8 2.2-3 3.2 1.3-8.7 5.4-15.8 11.8-21.8.2 0 .3-.1.3-.3.1 0 .2-.1.3-.2h.3c.1 0 .1.2 0 .3z" fill="#fffefe"/><path d="m98.7 61.5c.1-1.5.2-3.1.3-4.6.2-.1.3-.1.4 0s .2.1.2.2c.1.1.2.3.2.4.1.1.1.2.1.3.1.2.2.4.3.5s.1.2.2.2c.1.1.1.2.2.2.1.1.1.2.2.3.2.3.3.6.6.9.1.1.1.2.2.3.1.2.2.5.3.7.1.1.1.2.1.3.1.2.2.3.3.5.1.1.1.2.1.2.1.1.1.2.2.4 0 .1.1.2.1.2.1.1.1.2.2.4.1.1.1.2.2.3.2.4.5.7.7 1.1 0 .1 0 .1.1.2 0 .1.1.2.1.4-.1 2.6-.9 5.1-1.8 7.5-.1.2-.3.4-.5.5-.4.1-.5-.3-.6-.5 0-.1-.1-.2-.1-.3-.1-.3-.1-.5-.2-.8 0-.1-.1-.2-.1-.3-.1-.2-.1-.4-.2-.6 0-.1-.1-.2-.1-.3-.1-.5-.3-1.1-.4-1.6 0-.1-.1-.2-.1-.3-.1-.5-.2-1-.4-1.5 0-.1-.1-.2-.1-.3-.1-.3-.1-.6-.1-.9 0-.1 0-.3 0-.4-.6-1.1-.9-2.3-.6-3.6z" fill="#fff"/><path d="m14.6 56.9c.1 1.5.2 3.1.3 4.6.2.6 0 1.3.1 1.9v.4c-.1.6-.3 1.1-.4 1.7 0 .1-.1.2-.1.3-.3 1.1-.7 2.2-.9 3.4 0 .1-.1.2-.1.3-.2.8-.5 1.7-.7 2.5 0 .1-.1.2-.1.3-.1.3-.2.6-.6.7-.3-.1-.5-.3-.6-.6-.8-2.4-1.7-4.9-1.8-7.4 0-.1 0-.3 0-.4s.1-.2.1-.3c.1-.2.2-.4.3-.6.1-.1.1-.2.2-.3.1-.2.3-.4.4-.7 0-.1.1-.2.1-.3.1-.1.1-.3.2-.4 0-.1.1-.2.1-.2.1-.1.2-.3.3-.4 0-.1.1-.2.1-.2.1-.1.1-.2.2-.3 0-.1.1-.2.1-.2.1-.1.1-.2.2-.4 0-.1.1-.2.1-.2.1-.1.2-.2.2-.4 0-.1.1-.2.1-.2.1-.1.1-.2.2-.4 0-.1.1-.2.2-.2.1-.1.1-.2.2-.2l.1-.1c.1-.2.2-.3.3-.5 0-.1.1-.2.1-.3.1-.1.1-.3.2-.4 0-.1.1-.2.2-.2.3-.3.5-.4.7-.3z" fill="#fffffe"/><path d="m9.2 54.4c2-1.9 3.9-3.9 6.1-6-.3 2.1-.5 3.8-.8 5.6-.1.3-.2.5-.3.8 0 .1-.1.2-.1.3-.2.5-.5.9-.7 1.3 0 .1-.1.2-.2.3s-.2.3-.2.4-.1.2-.2.3-.1.2-.2.2l-.1.1c-.1.2-.2.4-.3.6 0 .1-.1.2-.1.3-.1.1-.1.3-.2.4 0 .1-.1.2-.2.3-.2.3-.3.5-.5.8 0 .1-.1.2-.2.3s-.1.2-.2.2l-.1.1c-.1.2-.2.4-.4.7 0 .1-.1.2-.1.3-.1.2-.2.3-.3.4s-.2.2-.3.2-.3 0-.4-.2c0-.1-.1-.1-.1-.2-.4-2.5-.5-5 .1-7.5z" fill="#fff"/><path d="m99 54c-.3-1.8-.5-3.6-.8-5.6 2.1 2.1 4.1 4 6.1 6 .7 2.6.6 5.1 0 7.7-.1.1-.2.2-.3.3-.1 0-.3 0-.4-.1s-.2-.3-.3-.5c-.1-.1-.1-.2-.2-.3-.2-.4-.3-.7-.6-1-.1-.1-.1-.2-.2-.3-.2-.3-.4-.7-.6-1-.1-.1-.1-.2-.2-.3-.2-.5-.5-1-.8-1.5-.1-.1-.1-.2-.2-.3-.3-.7-.7-1.3-1-1.9-.1-.1-.1-.2-.1-.3-.1-.1-.1-.3-.2-.4 0-.1-.1-.2-.1-.3 0 0-.1-.1-.1-.2z" fill="#fff"/><path d="m76.8 9.2c.5.2.8.4 1.1.6.3 2.1.5 4.1.9 6.6.9-1.8 1.7-3.3 2.5-4.8.5 0 .8.2 1.1.6-1.1 2.2-2.3 4.5-3.4 6.8-.5 0-.9-.2-1.2-.5-.2-2-.5-4-.8-6-.1 0-.2-.1-.2-.1-.8 1.5-1.5 3-2.3 4.4-.5.1-.7-.2-1.2-.4 1.2-2.6 2.3-4.8 3.5-7.2z" fill="#fffefd"/><path d="m55.7 9.2c0-2.5 1.6-4.2 3.8-4.1 2.3.1 3.9 1.8 3.8 4.2-.1 2.5-1.7 4.1-3.9 4.1-2.2-.1-3.7-1.8-3.7-4.2z" fill="#fffefd"/><path d="m36.9 11.7c-.2.3-.5.4-.8.5-3-.1-3-.1-3.4.9.2.6.7.8 1.3.6.8-.2 1.6-.4 2.4-.5 1.7-.2 3 1.3 2.4 2.9-.5 1.4-1.8 2-3.2 2.2-1.2.2-2-.4-2.6-1.3.1-.5.5-.5.9-.8.8 1 1.8 1.1 2.9.5.5-.3.9-.8 1-1.4-.3-.8-.9-.9-1.6-.7-.8.1-1.6.3-2.4.4-.9.1-1.6-.2-2-1-.4-.9-.3-1.7.4-2.5 1.1-1.3 3.9-1.8 4.7.2z" fill="#fffdfd"/><path d="m46.9 13.9c-.3.4-.7.4-1 .6-.5-.5-.5-1.1-.7-1.6s-.3-1-.5-1.6c-1.2.1-2.2.6-3.3.9 0 1.2.7 2.2.8 3.3-.3.5-.7.4-1.2.4-.8-2.5-1.5-4.9-2.2-7.3.3-.4.7-.5 1.2-.4.3.9.6 1.8 1 2.8 1.1-.3 2.2-.7 3.3-1 .1-1.1-.6-1.9-.6-2.9.3-.3.6-.4 1.2-.4.5 2.4 1.2 4.8 2 7.2z" fill="#fffefd"/><path d="m20.9 78.8c-.2.1-.3.3-.3.5v8.3c3.5 4.1 7.6 7.5 12.2 10.2.2.1.5.2.7.2.5 0 .4.4.3.6-.3.5-.6 1-1.3.7-2.7-1.8-5.4-3.5-7.9-5.7-1.8-1.6-3.6-3.2-5-5.2.4-.8.4-1.7.4-2.6.1-2.5-.3-4.9.4-7.4.4-.1.4.2.5.4z" fill="#dc473b"/><path d="m80 98.1c2.1-.7 3.7-2.1 5.4-3.4 2.8-2 5.2-4.4 7.5-7 0-2.8 0-5.6 0-8.3 0-.2 0-.4-.3-.5 0-.3.2-.5.5-.6.4.4.4 1 .4 1.5v6.2c0 .9.1 1.7.4 2.5-3.3 4.1-7.4 7.4-11.9 10.2-.4.2-.7.5-1 .7-.1 0-.1.1-.2.1s-.1-.1-.2-.1c-.1-.1-.2-.2-.3-.3-.1-.2-.4-.1-.5-.3-.1-.1-.1-.4-.3-.5 0-.1 0-.2 0-.3.2 0 .3 0 .5.1z" fill="#dc473b"/><path d="m51 5.5c1.4 2.5 2.7 4.9 4 7.2-.4.4-.8.4-1.4.4-.3-.6-.7-1.3-1.1-2-1 0-1.9 0-2.9.3-.2.7-.4 1.4-.5 2.1-.4.2-.8.4-1.4.1.7-2.6 1.3-5.3 2-7.9.4-.2.8-.1 1.3-.2z" fill="#fffefd"/><path d="m32.5 99.3c.5-.3 1.3-.3 1.1-1.2-.7-2.5-1.4-5.1-2-7.6 1.1.7 1.2 1.8 1.1 3.1.7-.4.7-.4.4-1.9.3-.1.4.1.6.3 0 1.8.8 3.4 1.1 5.1.1.7.5 1.4.4 2.1.2.3.2.5 0 .8-.1.1-.2.1-.2.2-2.2.6-4.3 1.2-6.5 1.8-.3.1-.7.1-.8.5-.9 0 0-.7-.4-1-.3-.4-1 .2-1.3-.3 2.2-.7 4.3-1.3 6.5-1.9z" fill="#da3c34"/><path d="m13 75c0 1.3.8 2.3 1.3 3.4 1.3 2.6 2.8 5 4.8 7.2 0-3.2 0-6.3 0-9.5.1.2.2.3.2.5.1 2.9.5 5.7.4 8.6-.1 1.5-.8 2.3-2.3 2.5-.9.1-1.9.1-2.8 0-.4 0-1 0-1.1-.6h4.7c-2.7-3.7-5-7.2-6.5-11.2.2-.2.4-.1.6-.1s.3 0 .4-.1c0-.2 0-.3 0-.5l.1-.1c.1-.2.2-.2.2-.1z" fill="#dc483b"/><path d="m94.4 76v9.5c.5.1.5-.3.7-.5 2-2.6 3.6-5.5 5-8.5.2-.5.5-1 .4-1.6.6 0 .8.7 1.3.8-1.5 4-3.8 7.5-6.4 11.1 1.1.1 1.9.1 2.8.2 0 .5-.4.4-.7.5-.2 0-.4 0-.6 0-.3 0-.6 0-.9 0-.2 0-.5 0-.7-.1-.3-.1-.5-.4-.8-.5-.1-.1-.2-.1-.2-.2-.1-.1-.2-.3-.3-.4 0-.1-.1-.2-.1-.3-.1-.3-.1-.7-.1-1s0-.7 0-1c0-.1 0-.2 0-.3s0-.2 0-.3 0-.2 0-.3 0-.2 0-.3c0-.2 0-.3 0-.5s0-.5 0-.7 0-.5 0-.7c0-.1 0-.2 0-.4 0-.4 0-.7 0-1.1 0-.1 0-.2 0-.4s0-.4 0-.5c0-.2 0-.4 0-.5s0-.2 0-.4c.1-.3.1-.6.3-.9 0-.2 0-.3 0-.5.1-.3.2-.3.3-.2z" fill="#dc473b"/><path d="m13.6 86.9c1.5.5 3 .3 4.5.1.8-.1 1.4-.8 1.4-1.9-.1-2.9 0-5.7 0-8.6.5 1 0 2.1.3 3.2.4-.4.3-.8.4-1.2h.2v8.6c0 .6.1 1.2-.8 1.3-2.1-.4-4.2-.1-6.2-.2-.3 0-.3.2-.4.4-.4-.6-.5-1.5-1.2-1.9.6.2 1.2.2 1.8.2z" fill="#da3c34"/><path d="m8.6 65.3c-.2-.2-.5-.5-.7-.7-.2-.4-.7-.4-1-.6-.3-.2-.5-.4-.8-.5-.1-.2-.4-.2-.5-.3-.2-.2-.5-.4-.8-.5-.1-.3-.3-.2-.5-.3-.4-.4-1-.5-1.5-.8 0-.2-.1-.4-.1-.6.1-.1.2-.3.4-.4.2-.2.4-.1.5 0 .1.2.4.2.5.3.2.2.5.4.8.5.1.2.4.2.5.3.4.4.9.5 1.3.8.1.2.4.2.5.3.2.2.4.3.6.4.1 0 .2 0 .3.1h.6c.1 0 .2-.1.2-.1.1-.1.2-.3.4-.4.1-.1.3-.2.5-.4.1-.1.2-.2.2-.3.2-.1.2-.4.3-.5.3-.2.3-.7.5-1 .1-.1.2-.2.2-.3.4-.3.6-.8.8-1.3.2-.1.2-.3.3-.5.4-.2.4-.7.6-1 .1-.1.2-.2.2-.3.2-.1.2-.4.3-.5.4-.6.8-1.1 1-1.8.1-.1.2-.1.3 0-.1.3.5.7 0 1-.1.1-.1.1-.1.2s0 .1.1.1c.1.1.2.2.3.3-.2.3-.4.5-.5.8-.2.1-.2.4-.3.5-.2 0-.3 0-.4 0s-.1 0-.1.1c.1.1-.2.1 0 .1-.1.2-.1.5-.3.7-.1.1-.2.2-.2.3-.2.1-.2.4-.3.5-.2.2-.4.5-.5.8-.3.1-.2.3-.3.5s0 .3-.1.5c-.2.2-.4.5-.5.8-.2.1-.2.4-.3.5-.3.2-.3.7-.5 1-.3.2-.4.5-.5.8-.2.1-.2.3-.2.5-.1.6-.5.8-1.2.4z" fill="#da3b33"/><path d="m101.8 75.7c-.8.4-1-.3-1.3-.8 0-.1 0-.2-.1-.2 0-.3 0-.6-.2-.8-.2-.7-.2-1.4-.5-2-.2-1-.4-1.9-.8-2.8-.3-.3.1-.8-.3-1-.1-.3 0-.6-.2-.8-.1 0-.1-.1 0-.2-.1-.5-.3-1 .3-1.4l.3-.3c.1-.1.2-.1.3 0 .2.3-.1.8.3 1 .2.6.3 1.2.5 1.8.2.7.2 1.4.6 2 .1.3 0 .6.2.8.3.3 0 .7.3 1 .2.3 0 .7.3 1l .2.2s.3.2.5.3.5.1.7.3c.1.1.3.1.4-.1.2-.1.5-.1.7-.1.3-.3.8-.1 1.1-.4.3-.2.8.1 1-.3.2-.1.4-.1.6-.1.1 0 .2.1.2.1 0 .1 0 .2-.2.1.1.1.2.1.2-.1s.1-.3.2-.4c.3-.1.7-.2 1 .1.1.3.2.5.3.8-.1.2-.4.1-.5.3l-.1.1h-.1c-.3.1-.6 0-.9.2-.3.3-.7-.1-1 .3-.3.3-.8-.1-1 .3-.2.2-.6 0-.8.2l-.1.1h-.1c-.3.2-.6 0-.9.2-.4.3-.8.5-1.1.6z" fill="#da3b33"/><path d="m69.3 13.6c.1.5-.1.8-.3 1.2-1.5-.4-3.1-.7-4.8-1.1.6-2.5 1.1-5 1.7-7.5.5-.3.8-.1 1.3.1-.5 2.2-.9 4.3-1.4 6.4 1.3.4 2.4.6 3.5.9z" fill="#fffdfc"/><path d="m99 56.4c0-.7 0-1.4 0-2 .1-.1.2-.1.2 0 .2.1.1.4.3.5.3.8.7 1.6 1.3 2.3 0 .1.1.2.1.4-.1.2.2.1.2.2.2.4.3.9.8 1.2.2.5.4 1 .8 1.3.2.5.3 1 .7 1.3.1.2.1.4.3.5.1.1.1.3.1.4s-.1.1-.2.1c.1.1.1 0 .2-.1.1 0 .2 0 .3.1.2.1.4.2.5.3.2.4.6.4 1 .4.1 0 .2 0 .3-.1.3-.2.8-.3 1-.7.4-.2.9-.4 1.3-.8.2-.1.4-.1.5-.3.3-.1.6-.3.8-.5.3-.1.5-.2.8 0 .1.2.2.3.3.5.2.3-.1.3-.2.4-.1 0-.2.1-.2.1h-.1c0 .1-.1.1-.1.2s-.1.1-.1.2c-.2.1-.4.1-.5.3-.2.1-.4 0-.5.3-.3.1-.6.3-.8.5-.1.1-.3.1-.4.1-.2 0-.3.1-.4.2-.2.1-.3.2-.5.4-.3.2-.8.2-1 .6-.6.1-.8.8-1.5.7-.3-.1-.4-.2-.5-.5 0-.2 0-.4-.2-.5-.1-.5-.4-.9-.8-1.3-.1-.2 0-.4-.3-.5-.1-.2-.1-.4-.3-.5-.1-.3-.3-.6-.5-.8-.1-.2-.1-.4-.1-.6 0-.1.2-.2.2-.3 0 .1-.1.1-.1.2-.2 0-.3-.2-.5-.3-.2-.5-.4-1-.8-1.3 0-.1-.1-.2-.2-.3-.2-.3-.2-.8-.5-1 0-.2 0-.5-.3-.5-.1-.3-.2-.5-.4-.8z" fill="#da3a32"/><path d="m94.1 76.5v1c-.1.1-.1.1-.1.2s0 .1.1.1v.5c-.1.2-.1.3 0 .5v.3c-.2.4-.2.8 0 1.3v.3c-.2.3-.2.5 0 .8v.8c-.1.2-.1.3 0 .5v.3c-.1.1-.1.1-.1.2s0 .1.1.1v.3c-.1.1-.1.1-.1.2s0 .1.1.1v1.3c-.2.4-.2.8 0 1.3.1.1.1.1.1.2s-.1.2-.1.2c.1.2-.1 0 .1 0 .1 0 .2 0 .2.1.2.2.6.2.8.5h.8c.3.3.7.2 1 0h .5l.1.1v.1c.2 0 .3-.1.5.1 0 .6-.4.6-.9.6-.9 0-1.8-.1-2.7.2-.2.1-.3.2-.5.2-.9-.1-.8-.7-.8-1.3 0-3 0-5.9 0-8.9 0-1.2.5-1.7.9-2.2z" fill="#d93931"/><path d="m8.6 65.3c.5 0 1-.1 1.1-.8.1-.1.1-.1.2 0 .2 2.8 1.1 5.5 2 8.2 0 .1.2.1.3.2.4.6-.3.7-.5 1.1-.2.2-.6 0-.8.2-.1 0-.2 0-.3 0-.1-.1-.1-.1-.1-.2s0-.1.1-.1c-.5-2-1.1-4-1.6-5.9-.1-.9-.2-1.8-.4-2.7z" fill="#dd493c"/><path d="m105.8 63.3c-.1 0-.2 0-.3 0-.3.1-.6.1-.8.1-.3-.1-.2-.4-.4-.6-.2 0-.4-.1-.5-.3-.1-.1-.1-.1-.1-.2s.1-.1.1-.1c.5-.7.5-1.5.5-2.2.1-1.9 0-3.8 0-5.6.2.2.4.3.6.5h.7c.3 2.4 0 4.8-.2 7.1 0 .4-.5 1 .4 1 .1.1.1.1 0 .3.1-.1.1 0 0 0z" fill="#dd4a3d"/><path d="m8 63.3c-.1 0-.2 0-.3 0-.1-.1-.1-.1-.1-.2s0-.1.1-.1c.9 0 .4-.6.4-1-.1-2.4-.5-4.8-.2-7.1h.7c.2-.2.4-.4.6-.5-.1 2.4-.2 4.8.2 7.1 0 .3-.1.6.3.7 0 .3-.2.5-.5.5-.2.1-.1.4-.3.5-.3.3-.6.2-.9.1z" fill="#dd4a3d"/><path d="m64 110c .4 0 .8 0 1.1.1-1.4.4-2.8.5-4.3.5-.5.1-1 .1-1.6 0-.3-.6.2-.8.5-1.1.7-.7 1.3-1.4 1.9-2.1 0-.5-.6-.7-.5-1.3.1-.7.6-1 1.3-.9s1.1.5 1.1 1.1c.1 1 .7 2-.3 2.8.2.5.7.5.8.9z" fill="#fefdfc"/><path d="m74.3 8.3c-.9 2.6-1.7 4.9-2.5 7.3-.5 0-.9 0-1.3-.5.8-2.4 1.7-4.8 2.5-7.1.5-.2.8.1 1.3.3z" fill="#fefdfc"/><path d="m15.1 63.8c.2.6.3 1.2.5 1.8-.4.8-.7 1.7-.7 2.6-.6 1.6-.9 3.2-1.3 4.8-.4.3-.1.7-.3 1-.2.3-.2.7-.5 1-.4-.3-.2-.9-.8-1 0-.1 0-.1-.1-.2.8-.3.2-1.1.5-1.6.3-.9.6-1.8.8-2.8.4-1.3.8-2.5 1-3.8.2-.1.2-.3.2-.5 0-.1.1-.1.2-.2.1 0 .2 0 .1-.1l-.1-.1c0-.1 0-.2 0-.3 0-.2 0-.5.1-.7.2 0 .3 0 .4.1z" fill="#da3a32"/><path d="m94.4 88.2c1-.6 2.3-.1 3.3-.5 0-.3-.1-.3-.3-.3 0-.1 0-.2 0-.3.3 0 .6.1.8-.2 1.2 0 2.4-.1 3.5-.1-.2.7-.9.4-1.3.6-.1.6.4.3.6.6-.1.2-.3.4-.5.7-.1-.7-.7-.4-1-.4-1.7-.1-3.4-.1-5.1-.1z" fill="#da3c34"/><path d="m80 98.1c-.1 0-.2 0-.3 0 .1-1 .8-2 .5-3.1.7-.6.7-1.5.8-2.3.3-.2.2-.5.3-.8h.3c-.6 2.2-1.1 4.2-1.6 6.2z" fill="#da3d34"/><path d="m79.1 96.3c0-1.5 1-2.8.8-4.3.1-.2.2-.3.5-.3.3.7-.4 1.3-.3 1.9-.3.6-.6 1.2-.4 2 .1.4-.1.7-.6.7z" fill="#da3d34"/><path d="m99.3 65.5c-.1 0-.2 0-.3 0-.2-.5-.1-1.1-.5-1.5.1-.8-.2-1.7.2-2.5-.2 1.4.4 2.7.6 4z" fill="#da3d34"/><path d="m98.7 65.8c-.3.4-.3.9-.3 1.4-.1-.2-.2-.5-.3-.8-.1.1-.2.2-.4.2.1-.6.2-1.1.6-1.6.3.2.1.7.4.8z" fill="#da3d34"/><path d="m14.9 68.2c-.1-1 .1-1.8.7-2.6.1.4.2.7.2 1.1-.2-.1-.4-.4-.5.1-.1.4-.3.9-.4 1.4z" fill="#da3c34"/><path d="m107.9 72.9c-.4 0-.7-.1-1 .3-.1.1-.2.1-.3 0-.3 0-.5 0-.8 0 .9-.3 1.9-.7 2.8-1 .1.5-.6.4-.7.7z" fill="#da3f35"/><path d="m4.9 72.2c.9.3 1.9.7 2.8 1-.7-.1-1.4-.2-2.1-.2-.1-.4-.8-.3-.7-.8z" fill="#da3f35"/><path d="m10.7 75.2c-1-.2-1.9-.3-2.8-.8 1 .1 2 .1 2.8.8z" fill="#da3f35"/><path d="m59.3 110.3c.5.5 1.1.1 1.6.3-.9.3-1.8.2-2.6.2 0-.1 0-.2.1-.3.3-.1.5-.4.9-.2z" fill="#fae4dd"/><path d="m78.6 98.1c0-.6.2-1.2.5-1.8 0 .8 0 1.6-.5 2.3-.1-.2-.1-.3 0-.5z" fill="#da3d34"/><path d="m7.7 73.2c.7 0 1.4.2 2 .5.1.1.1.1.1.2s-.1.1-.1.1c-.1 0-.2 0-.3 0-.3-.4-.7-.2-1-.3-.2-.2-.4-.4-.7-.5z" fill="#da3f35"/><path d="m6.9 74.2c-.4.3-1-.7-1.3.2-.2-.2-.3-.4 0-.7.5-.1 1 .1 1.3.5z" fill="#da3f35"/><path d="m80.7 99.4h.3c.6.2 1.1.4 1.7.5 0 0 0 .1-.1.1s-.2 0-.2-.1c-.3 0-.5 0-.8 0-.1.1-.2.1-.3 0-.1-.2-.3-.2-.5-.3-.1.1-.2.1-.3 0 .2-.1.2-.1.2-.2z" fill="#da3e35"/><path d="m15.1 63.8c-.1 0-.2 0-.3 0 0-.7.1-1.5.1-2.2.4.6.1 1.4.2 2.2z" fill="#da3c34"/><path d="m85.5 100.6c.7.2 1.4.3 2.1.5-.1 0-.2 0-.3.1s-.2.1-.3 0c-.5-.1-1-.2-1.5-.3 0-.1-.1-.1-.1-.2 0 0 .1 0 .1-.1z" fill="#da3e35"/><path d="m2.9 61.7c.6 0 1.2.2 1.5.8-.6 0-.9-.7-1.5-.5 0-.1 0-.2 0-.3z" fill="#da3e35"/><path d="m82.7 99.9c.6 0 1.2.2 1.8.5v.1c-.1 0-.2 0-.3-.1-.3 0-.5 0-.8 0-.2 0-.2-.1-.3-.2-.2 0-.3 0-.5 0-.1 0-.1-.1-.1-.1.1-.2.2-.2.2-.2z" fill="#da3e35"/><path d="m84.7 101.7c-.6 0-1.2-.2-1.8-.5v-.1c.1 0 .2 0 .3.1l1.5.3c.1 0 .1.1 0 .2z" fill="#da3e35"/><path d="m82 90.5c-.2.5-.4 1-.5 1.6-.1-.7-.1-1.2.5-1.6z" fill="#da3d34"/><path d="m109.7 62.3c0-.1 0-.2 0-.3.1-.1.1-.2.3-.3.2 0 .4 0 .5-.3.2.1.3.3.3.5-.5-.1-.8.4-1.1.4z" fill="#da3e35"/><path d="m7.9 74.5c-.4 0-.7 0-1-.3.2-.1.3-.2.5-.2.3.1.5.3.5.5z" fill="#da3f35"/><path d="m14.3 54.9c-.1 0-.2 0-.3 0 .1-.3.2-.6.5-.9.1.3.1.7-.2.9z" fill="#da3d34"/><path d="m11 74.2c.2-.3.5-.2.8-.3.1-.1.2-.1.3 0-.3.4-.7.5-1.1.3z" fill="#da3a32"/><path d="m110.2 61c-.3 0-.5 0-.8 0 .3-.3.6-.5 1-.6-.1.2-.2.4-.2.6z" fill="#da3e35"/><path d="m12.5 75.7c-.3 0-.5 0-.8 0-.1-.1-.2-.1-.2-.2s-.1-.1-.1-.2l.1-.1h.3c.2.3.5.2.8.3 0 0 0 .1-.1.2z" fill="#da3a32"/><path d="m95.6 20.6c-.3 0-.5.2-.5.5-.3-.1-.3-.3-.2-.6.3-.3.5-.2.7.1z" fill="#fae0d6"/><path d="m18.4 21.1c0-.3-.1-.5-.5-.5.1-.3.3-.3.6-.2.2.3.2.5-.1.7z" fill="#fae1d7"/><path d="m107.6 74c .1-.2.3-.3.5-.3 0 .3.1.6-.2.8 0-.3 0-.5-.3-.5z" fill="#da3f35"/><path d="m99 56.4c.4.2.5.4.5.8-.2-.1-.3-.2-.5-.3 0-.2 0-.3 0-.5z" fill="#da3d34"/><path d="m14.1 57.2c-.1-.4.1-.7.5-.8v.5c-.2.1-.3.2-.5.3z" fill="#da3d34"/><path d="m20.2 78.7c-.3-.4-.4-.6-.2-.9.3.2.1.5.2.9z" fill="#da3c34"/><path d="m11.5 75.2v.3c-.3 0-.6 0-.8-.3.3-.1.6-.1.8 0z" fill="#da3f35"/><path d="m84.5 100.3c.3 0 .7 0 1 .3l-.1.1c-.1.1-.2.1-.2 0-.3 0-.5 0-.8 0l-.1-.1c.1-.2.1-.2.2-.3z" fill="#da3e35"/><path d="m81.9 100.9c-.4 0-.7 0-1-.3.1-.1.2-.1.3 0h .5c.1-.1.2-.1.3 0 0 .1.1.1.1.2-.1.1-.2.1-.2.1z" fill="#da3e35"/><path d="m82.9 101.2c-.3-.1-.7 0-1-.3l.1-.1c.1-.1.2-.1.2 0h .8c.1 0 .1.1.1.2-.1.1-.1.1-.2.2z" fill="#da3e35"/><path d="m84.7 101.7c0-.1 0-.2 0-.3.1-.1.3-.1.5-.2.1.2.2.3.3.4l-.1.1c-.3.1-.5.1-.7 0z" fill="#da3d34"/><path d="m78.4 99.9c-.4-.3-.2-.5 0-.8z" fill="#da3d34"/><path d="m94.1 25.4c-.3 0-.5-.2-.5-.5.2.1.4.3.5.5z" fill="#fbe7e0"/><path d="m93.6 24.9c-.3 0-.5-.2-.5-.5.2.1.4.3.5.5z" fill="#fbe7e0"/><path d="m79.9 100.4c-.3 0-.6 0-.9-.2h.9c.1 0 .1.1 0 .2z" fill="#da3e35"/><path d="m83.2 100.2c.1.1.2.2.3.2-.1.1-.2.2-.2.2-.3-.2-.1-.3-.1-.4z" fill="#da3d34"/><path d="m9.7 74c0-.1 0-.2 0-.3.3 0 .6 0 .8.2-.2 0-.5 0-.8.1z" fill="#dd493c"/><path d="m92.8 24.1c-.3 0-.4-.2-.5-.4.3.1.4.2.5.4z" fill="#fbe7e0"/><path d="m78.6 98.1v.5c-.1.1-.2.2-.2.2 0-.2 0-.5.2-.7z" fill="#da3d34"/><path d="m81.2 92.1c-.1-.2-.2-.3-.3-.4.3 0 .2.2.3.4z" fill="#da3d34"/><path d="m79.6 98.4c.2.1.2.3.3.5-.2-.1-.2-.3-.3-.5z" fill="#da3d34"/><path d="m79.9 98.9c.2 0 .4 0 .5.3-.2-.1-.4-.1-.5-.3z" fill="#da3d34"/><path d="m94.5 25.9c-.2 0-.3-.2-.4-.4.2 0 .3.2.4.4z" fill="#fbe7e0"/><path d="m79.9 100.4c0-.1 0-.2 0-.3.2 0 .4 0 .5.2-.1.1-.2.1-.5.1z" fill="#da3d34"/><path d="m80 100.4c.1 0 .2 0 .4-.1h.2c.1 0 .1.1.1.1l-.1.1c-.2.1-.4.1-.6-.1z" fill="#da3e35"/><path d="m80.7 100.6c0-.1 0-.1 0-.2.2.1.3.1.5.2-.1 0-.2 0-.3 0z" fill="#da3d34"/><path d="m3.7 60.7c-.2 0-.4 0-.5 0 0-.1 0-.2 0-.3.2 0 .4.1.5.3z" fill="#da3e35"/><path d="m85.6 102c-.2-.1-.2-.1-.2-.2s.1-.1.1-.1c.2 0 .4 0 .5.2-.1.1-.2.1-.4.1z" fill="#da3d34"/><path d="m85.6 102c .1 0 .3 0 .4-.1h.2c-.1.1-.2.2-.3.3-.1-.1-.2-.2-.3-.2z" fill="#da3e35"/><path d="m80.7 99.6h.3v.3c-.1 0-.2 0-.3-.1-.1 0-.1-.1 0-.2z" fill="#da3d34"/><path d="m10.7 73.9v.3c-.1-.1-.2-.2-.2-.3z" fill="#da3f35"/><path d="m92.3 24.6c.1.1.2.2.2.3 0-.1-.1-.2-.2-.3z" fill="#fbe7e0"/><path d="m92.1 24.4c.1.1.1.2.2.3 0-.1-.1-.2-.2-.3z" fill="#fbe7e0"/><path d="m93.1 24.4c-.1-.1-.1-.1-.2-.2 0 0 .1.1.2.2z" fill="#fbe7e0"/><path d="m91.9 24.1c.1.1.1.2.2.2 0 0-.1-.1-.2-.2z" fill="#fbe7e0"/><path d="m92.1 23.6c-.1.1-.2.1-.2.2-.1-.1 0-.2.2-.2z" fill="#fbe7e0"/><path d="m95.6 21.6c.1.1.2.2.3.3-.1-.1-.2-.2-.3-.3z" fill="#fae0d6"/><path d="m17.7 21.9c.1-.1.2-.2.3-.3-.2.1-.3.2-.3.3z" fill="#fae1d7"/><path d="m95.4 21.3c.1.1.2.2.2.3 0-.1-.1-.2-.2-.3z" fill="#fae0d6"/><path d="m12 75 .1-.1z" fill="#da3a32"/><path d="m17.9 21.6c.1-.1.2-.2.2-.3 0 .1-.1.2-.2.3z" fill="#fae1d7"/><path d="m17.1 21.4c-.1.1-.2.2-.2.2.1-.1.1-.2.2-.2z" fill="#fae1d7"/><path d="m96.4 21.3c-.1-.1-.2-.1-.2-.2 0 .1.1.2.2.2z" fill="#fae0d6"/><path d="m12 75c-.1.1-.2.2-.3.3z" fill="#da3a32"/><path d="m95.2 21.1c.1.1.2.2.2.3-.1-.1-.2-.2-.2-.3z" fill="#fae0d6"/><path d="m18.1 21.3c.1-.1.2-.2.2-.3 0 .2-.1.3-.2.3z" fill="#fae1d7"/><path d="m12.5 75.7c0-.1 0-.2 0-.3h.2c0 .2-.1.2-.2.3z" fill="#da3c34"/><path d="m94.4 76c-.1 0-.1 0-.2 0 .1-.1.2-.2.3-.3-.1.1-.1.2-.1.3z" fill="#da3f36"/><path d="m17.4 21.1c-.1.1-.2.2-.2.2s.1-.1.2-.2z" fill="#fae1d7"/><path d="m96.1 21.1c-.1-.1-.2-.2-.2-.2.1 0 .2.1.2.2z" fill="#fae0d6"/><path d="m17.6 20.9c-.1.1-.2.2-.2.2.1-.1.2-.2.2-.2z" fill="#fae1d7"/><path d="m95.9 20.8c-.1-.1-.2-.2-.2-.2 0 .1.1.2.2.2z" fill="#fae0d6"/><path d="m17.9 20.6c-.1.1-.2.2-.2.2s.1-.1.2-.2z" fill="#fae1d7"/><path d="m98.5 64-.1.1z" fill="#da3d34"/><path d="m110.3 60.4c.1-.1.2-.1.3-.2 0 .1-.1.2-.3.2z" fill="#da3e35"/><path d="m2.9 60.2c.1.1.2.2.3.2-.1 0-.2-.1-.3-.2z" fill="#da3e35"/><path d="m99 65.6c-.1.1-.2.2-.3.3.1-.2.2-.3.3-.3z" fill="#da3d34"/><path d="m80.9 92.8-.1-.1h.1z" fill="#da3d34"/><path d="m80.2 93.5.1.1h-.1z" fill="#da3d34"/><path d="m80.2 95.1-.1.1-.1-.1z" fill="#da3d34"/><path d="m14.3 56.2-.1-.1.1-.1z" fill="#da3d34"/><path d="m99.2 54.4c-.1 0-.2 0-.2 0 0-.1 0-.2 0-.3.1 0 .1.2.2.3z" fill="#da3d34"/><path d="m80.4 99.1.3.3c-.1-.1-.2-.2-.3-.3z" fill="#da3d34"/><path d="m78.6 100.1c-.1 0-.2 0-.3-.2h.3z" fill="#da3d34"/><path d="m78.6 100.1c0-.1 0-.1 0-.2.1.1.2.2.3.2-.1 0-.2 0-.3 0z" fill="#da3d34"/><path d="m80.9 99.9h.1v.1z" fill="#da3d34"/><path d="m81.4 99.9h.3l-.1.1c-.1 0-.1-.1-.2-.1z" fill="#da3d34"/><path d="m82.7 99.9v.2c-.1 0-.2 0-.3 0 0-.1 0-.2 0-.2z" fill="#da3d34"/><path d="m88.3 26.9c.1.1.2.2.2.3 0-.1-.1-.2-.2-.3z" fill="#f9dfd5"/><path d="m25 27.2c.1-.1.2-.2.2-.3-.1.1-.1.2-.2.3z" fill="#f9dfd5"/><path d="m82.4 100.1v.1h-.1z" fill="#da3d34"/><path d="m88.1 26.7c.1.1.1.2.2.2-.1-.1-.1-.2-.2-.2z" fill="#f9dfd5"/><path d="m25.2 26.9c.1-.1.1-.2.2-.2 0 0-.1.1-.2.2z" fill="#f9dfd5"/><path d="m88.9 26.6c-.2 0-.3-.1-.3-.3.1.1.2.2.3.3z" fill="#f9dfd5"/><path d="m81.9 100.6c-.1 0-.2 0-.3 0l .1-.1c.2.1.2.1.2.1z" fill="#da3d34"/><path d="m84.5 100.4v.2c-.1-.1-.2-.2-.3-.2z" fill="#da3d34"/><path d="m5.7 72.9s0 .1-.1.1c0 0 0 0 .1-.1z" fill="#da3f35"/><path d="m24.9 26.4c0 .2-.1.3-.3.3.1-.2.2-.3.3-.3z" fill="#f9dfd5"/><path d="m82.2 100.9h-.2c0-.1 0-.2 0-.2s.1.1.2.2z" fill="#da3d34"/><path d="m85.2 100.7h.2v.2c0-.1-.1-.1-.2-.2z" fill="#da3d34"/><path d="m93.6 26.2c.1.1.2.2.2.3 0-.1-.1-.2-.2-.3z" fill="#fbe7e0"/><path d="m25.5 100.9c.1.1.2.1.4.2-.2 0-.3-.1-.4-.2z" fill="#da3c34"/><path d="m88.6 26.4c-.1-.1-.2-.2-.3-.2.1 0 .2.1.3.2z" fill="#f9dfd5"/><path d="m83 101.1c0-.1 0-.2 0-.2.1.1.2.2.3.2h-.1z" fill="#da3d34"/><path d="m87.7 101.1c.1-.1.2-.1.4-.2-.2.1-.3.2-.4.2z" fill="#da3e35"/><path d="m88 26.1v.3c-.2 0-.3-.2 0-.3z" fill="#f9dfd5"/><path d="m25.5 26.5c0-.1 0-.2 0-.3.3 0 .2.2 0 .3z" fill="#f9dfd5"/><path d="m87 101.2h.3c-.1.1-.2.1-.3 0z" fill="#da3d34"/><path d="m25.2 26.1c-.1.1-.2.2-.3.2.1 0 .2-.1.3-.2z" fill="#f9dfd5"/><path d="m86.3 101.9c0-.1 0 0 0 0z" fill="#da3d34"/><path d="m93.4 25.9c.1.1.2.2.2.3-.1-.1-.1-.2-.2-.3z" fill="#fbe7e0"/><path d="m8.5 73.7s0 .1-.1.1c0 0 0-.1.1-.1z" fill="#da3f35"/><path d="m88.3 26.1c-.1 0-.2 0-.3 0 0-.1.1-.1.1-.2.1.1.2.2.2.2z" fill="#f9dfd5"/><path d="m25.5 26.1c-.1 0-.2 0-.3 0 .1-.1.1-.1.2-.2 0 .1.1.2.1.2z" fill="#f9dfd5"/><path d="m93.2 25.7c.1.1.1.2.2.2-.1-.1-.2-.2-.2-.2z" fill="#fbe7e0"/><path d="m92.8 25.2c.2 0 .3.2.3.3-.1-.1-.2-.2-.3-.3z" fill="#fbe7e0"/><path d="m92.6 24.9c.1.1.2.2.3.3-.2-.1-.2-.2-.3-.3z" fill="#fbe7e0"/><path d="m9.5 74s0 .1-.1.1c0-.1.1-.1.1-.1z" fill="#da3f35"/><path d="m48.9 103.2c.1-.9.3-1.8.4-2.7-1.5-.7-3.2-.3-4.6-1 .2-.6.5-.4.8-.4 2.3.3 4.6.7 6.9 1 .7.1 1.3.1 1.9-.4.5.3.8.6 1.1 1.3-1.7.2-3.3-.5-4.9-.5-.3.9-.3 1.9-.5 2.9 1.1.2 2.2.7 3.3-.1.4.3.9.5.9 1.3-1.4.2-2.8-.4-4.3-.4-.3 1.2-.5 2.4-.5 3.7 1.1.2 2.2.4 3.3.5.3-.2.6-.4.9-.6.5.3.9.6 1.3 1.5-4-.3-7.8-1.1-11.5-1.8 1.6-.5 3.1.2 4.8.2.3-1.2.5-2.4.5-3.6-1.2-.5-2.6-.2-4.1-1 1.6-.5 2.9.3 4.3.1z" fill="#da3a32"/><path d="m64 110c-.5-.2-1.1-.5-1.7-.8.2-.7.8-.3 1.2-.7.1-1-.3-1.9-.3-3-.9-.2-1.5-.2-1.9.7-.1.2-.2.4-.5.2-.9-1.3-.6-2.9-1-4.4 2.2.2 4.2-.3 6.1-.6 0-.1 0-.2 0-.3.3.1.6.3.8.4.3.5.2 3.8-.1 4.1-.5.1-.4-.6-.9-.6-.4.1-.9.2-1.4.3-.1 1.1.2 2 .3 3 .2.7 0 1.3-.6 1.7z" fill="#da3b33"/><path d="m62.3 98.7c.5-.2.9 0 1.3.1.2.5-.5.9.3 1.4.8-.1 1.8-.2 2.8-.4.3-.3.6-.6.9-.9.5.3 1.1.4 1.6 1.2-4 .7-7.8 1.3-11.6 1.5 1.5-.9 3.3-.7 4.8-1.2 0-.7 0-1.2-.1-1.7.1-.1 0 0 0 0z" fill="#da3e35"/><path d="m65.1 106.1c1.5-.2 2.9.2 4 1.2.6.5.5.8-.2 1.5-1.2-.9-2.3-2-3.8-2.7z" fill="#db4137"/><path d="m60.9 106.5c.2-.1.3-.2.5-.2.1.6.9.5 1 .8-1 1.1-2 2.2-3 3.3-.3.1-.6.3-1 .2.3-.9 1.2-1.3 1.7-2.1.3-.7.9-1.2.8-2z" fill="#db4237"/><path d="m50.6 105.2c1.7.1 2.5 1.2 1.9 2.4-1-.4-1-1.8-1.9-2.4z" fill="#db4439"/><path d="m35.2 99.9c0-.3 0-.5 0-.8.1.3.3.5 0 .8z" fill="#da4035"/><path d="m85.5 101.7v.3c-.3 0-.6 0-.8-.2.3-.1.5-.1.8-.1z" fill="#da3e35"/><path d="m34.9 100.1c.1-.1.2-.1.2-.2 0 0-.1.1-.2.2z" fill="#da4035"/><path d="m87 56.7c-.4 17-13.2 30.1-30.2 30.1-17.2 0-30.2-13.2-30.2-30.2.1-17.2 13.3-30.1 30.2-30.1 17.1.1 29.8 13.2 30.2 30.2z" fill="#d93831"/><path d="m105.6 74.5c.3-.4.7-.2 1-.3-.3.3-.7.3-1 .3z" fill="#da3f35"/><path d="m104.6 74.8c.2-.5.7-.3 1-.3-.3.3-.7.2-1 .3z" fill="#da3f35"/><path d="m103.8 75c .2-.3.5-.2.8-.2-.2.2-.5.2-.8.2z" fill="#da3f35"/><path d="m102.8 75.2c.2-.3.5-.3.9-.2-.3.3-.6.2-.9.2z" fill="#da3f35"/><path d="m106.6 74.2c.2-.3.6-.2.9-.2-.3.2-.6.2-.9.2z" fill="#da3f35"/><path d="m13.6 73c .2-1.7.4-3.3 1.3-4.8-.4 1.6-.7 3.2-1.3 4.8z" fill="#da3c34"/><path d="m13.3 74c-.1-.2-.2-.4-.2-.5.1-.3.3-.5.5-.5 0 .3 0 .7-.3 1z" fill="#da3c34"/><path d="m12.8 75c0-.4.2-.8.5-1 0 .4-.1.7-.3 1-.1 0-.1 0-.2 0z" fill="#da3c34"/><path d="m98.9 69.1c.5.9.9 1.8.8 2.8-.4-.8-.6-1.8-.8-2.8z" fill="#da3d34"/><path d="m99.7 71.9c.6.6.6 1.3.5 2-.3-.6-.4-1.3-.5-2z" fill="#da3d34"/><path d="m100.2 74c .2.2.5.4.2.8-.2-.3-.2-.6-.2-.8z" fill="#da3d34"/><path d="m98.7 68.1c.5.2.3.7.3 1-.3-.2-.3-.6-.3-1z" fill="#da3d34"/><path d="m98.5 67.3c.3.2.2.5.2.8-.3-.2-.2-.5-.2-.8z" fill="#da3d34"/><path d="m103.8 64.5c0 .2.1.4.3.5.2.3.6 0 .8.3-.3 2.4-1 4.8-1.8 7.1-.2.5-.5.9-.3 1.5.1.1.1.2 0 .3-.3-.2-.6-.3-1-.3-.1-.2-.3-.4-.5-.5-.1-.2-.1-.4 0-.5 1-1 1-2.3 1.4-3.6.5-1.6 1-3.1.9-4.8z" fill="#dc493c"/><path d="m104.9 65.3c-.3 0-.6 0-.8-.3.6.2 1-.6 1.6-.5-.3.3-.6.6-.8.8z" fill="#da3e35"/><path d="m104.8 73.4c-.2.4-.7.3-1 .5-.1-.1-.1-.1-.1-.2s.1-.1.1-.1c.3-.2.6-.2 1-.2z" fill="#da3f35"/><path d="m105.6 64.6c.1-.6.5-.6 1-.6-.3.3-.6.5-1 .6z" fill="#da3e35"/><path d="m107.9 63.3c.1-.4.4-.6.8-.5-.2.3-.5.5-.8.5z" fill="#da3e35"/><path d="m105.8 73.2c-.3.4-.7.3-1 .3.3-.3.7-.4 1-.3z" fill="#da3f35"/><path d="m106.6 64c .1-.2.3-.4.5-.5.1 0 .1-.1.2-.1 0 .1.1.1.1.2-.2.2-.5.4-.8.4z" fill="#da3e35"/><path d="m103.8 73.7v.3c-.3 0-.5 0-.8 0 .2-.3.5-.3.8-.3z" fill="#dc493c"/><path d="m109.2 62.5c.1-.2.3-.3.5-.3-.1.3-.3.3-.5.3z" fill="#da3e35"/><path d="m108.7 62.8c.1-.3.3-.3.5-.3-.1.2-.3.3-.5.3z" fill="#da3e35"/><path d="m107.4 63.3h.5c-.1.2-.3.3-.5.3l-.1-.1c0-.1 0-.2.1-.2z" fill="#da3e35"/><path d="m102.8 74.2c0-.1 0-.2 0-.3h.2c-.1.1-.1.2-.2.3z" fill="#da3f35"/><path d="m6.9 64c .5 0 .9 0 1 .6-.3-.2-.6-.4-1-.6z" fill="#da3e35"/><path d="m6.1 63.6c.4-.1.7.1.8.5-.3-.1-.6-.3-.8-.5z" fill="#da3e35"/><path d="m4.8 62.8c.4-.1.7.1.8.5-.3 0-.6-.2-.8-.5z" fill="#da3e35"/><path d="m4.4 62.5c.2 0 .4 0 .5.3-.2 0-.4-.1-.5-.3z" fill="#da3e35"/><path d="m5.6 63.3c.2 0 .4 0 .5.3-.2 0-.4-.1-.5-.3z" fill="#da3e35"/><path d="m6.7 62.5c-.6 0-1-.2-1.3-.8.5.2 1 .4 1.3.8z" fill="#da3e35"/><path d="m4.9 61.5c-.4.1-.7-.1-.8-.5.4 0 .6.2.8.5z" fill="#da3e35"/><path d="m7.7 63v .2c-.2-.1-.4-.3-.5-.5.2.1.3.2.5.3z" fill="#da3e35"/><path d="m7.2 62.8c-.2 0-.4 0-.5-.3.2 0 .4.1.5.3z" fill="#da3e35"/><path d="m4.2 61c-.2 0-.4 0-.5-.3.2 0 .3.1.5.3z" fill="#da3e35"/><path d="m5.4 61.7c-.2 0-.4 0-.5-.3.2.1.4.1.5.3z" fill="#da3e35"/><path d="m108.1 61.7c-.3.6-.7.7-1.3.8.4-.4.8-.6 1.3-.8z" fill="#da3e35"/><path d="m105.8 63.3c0-.1 0-.2 0-.2.3-.3.6-.5 1-.6-.1.5-.6.6-1 .8z" fill="#da3e35"/><path d="m109.4 61c-.1.4-.4.5-.8.5.2-.3.5-.5.8-.5z" fill="#da3e35"/><path d="m108.6 61.4c-.1.3-.3.3-.5.3.1-.2.3-.2.5-.3z" fill="#da3e35"/><path d="m100.6 70.4c-.6-.6-.6-1.3-.6-2 .3.6.5 1.3.6 2z" fill="#da3d34"/><path d="m100 68.4c-.5-.5-.6-1.1-.5-1.8.3.5.5 1.1.5 1.8z" fill="#da3d34"/><path d="m102.8 63c .6.3.9.7.8 1.3-.4-.3-.7-.8-.8-1.3z" fill="#da3d34"/><path d="m100.4 59c .6.2.8.7.8 1.3-.4-.4-.6-.8-.8-1.3z" fill="#da3d34"/><path d="m101.8 60.5v.8c-.3-.3-.5-.6-.6-1 .2 0 .4.1.6.2z" fill="#da3d34"/><path d="m101.3 72.9v.5c-.4-.4-.2-.9-.2-1.3.2.3.2.5.2.8z" fill="#da3d34"/><path d="m99.7 57.7c.5.2.6.6.5 1-.2-.3-.4-.6-.5-1z" fill="#da3d34"/><path d="m101.7 61.3c.4.1.6.4.5.8-.3-.2-.4-.5-.5-.8z" fill="#da3d34"/><path d="m99.5 66.6c-.4-.3-.3-.7-.3-1 .3.2.3.6.3 1z" fill="#da3d34"/><path d="m101 72.2c-.4-.3-.2-.7-.3-1 .3.2.3.6.3 1z" fill="#da3d34"/><path d="m102.5 62.5c.1 0 .2 0 .4.1-.1.2-.1.3-.2.4-.1-.1-.2-.3-.2-.5z" fill="#da3d34"/><path d="m99.4 57.2h.4c-.1.2-.1.3-.2.5-.1-.1-.2-.3-.2-.5z" fill="#da3d34"/><path d="m100.8 71.2c-.3-.2-.3-.5-.2-.8.2.2.2.5.2.8z" fill="#da3d34"/><path d="m102.2 62c .3.1.3.3.3.5-.2-.1-.3-.3-.3-.5z" fill="#da3d34"/><path d="m103.8 64.5c-.1 0-.1 0-.2 0 0-.1-.1-.2-.1-.2.1.1.2.2.3.2z" fill="#da3d34"/><path d="m100.2 58.7c.1.1.1.2.2.3 0-.1-.1-.2-.2-.3z" fill="#da3d34"/><path d="m14.3 65.5c0 1.4-.3 2.7-1 3.8.1-1.3.5-2.5 1-3.8z" fill="#da3c34"/><path d="m13.3 69.4c.1 1-.2 2-.8 2.8.1-1 .4-2 .8-2.8z" fill="#da3c34"/><path d="m12 74c-.1 0-.2 0-.3 0-.4-.6.7-.5.5-1 0-.3 0-.6.3-.8 0 .4.1.8.1 1.3-.2.1-.4.3-.6.5z" fill="#da3c34"/><path d="m14.6 65.1c0 .2-.1.4-.3.5 0-.6.2-1.2.5-1.8v1.1s-.1.1-.2.2z" fill="#da3c34"/><g fill="#da3d34"><path d="m10.5 63.5c0-.4 0-.8.5-1 0 .4-.2.8-.5 1z"/><path d="m13.3 58.7c0-.4.1-.7.3-1h .3c-.2.4-.3.7-.6 1z"/><path d="m11.3 62.1c-.1-.4.1-.7.5-.8-.1.3-.2.6-.5.8z"/><path d="m10 64.3c0-.4 0-.8.5-.8-.1.3-.2.6-.5.8z"/><path d="m12.3 60.3c-.1-.4.1-.7.5-.8 0 .3-.2.6-.5.8z"/><path d="m13.8 57.7c0-.2 0-.4.3-.5 0 .2-.1.4-.3.5z"/><path d="m12.8 59.5c0-.2 0-.4.3-.5-.1.1-.2.3-.3.5z"/><path d="m12.1 60.8c0-.2 0-.5.3-.5-.1.2-.1.4-.3.5z"/><path d="m11.8 61.3c0-.2 0-.4.3-.5 0 .2-.1.4-.3.5z"/><path d="m11 62.5c0-.2 0-.4.3-.5 0 .2-.1.4-.3.5z"/><path d="m9.9 64.5c-.1 0-.1 0-.2 0 .1-.1.2-.2.3-.2 0 .1 0 .2-.1.2z"/><path d="m13.1 59c .1-.1.1-.2.2-.3-.1.1-.2.2-.2.3z"/><path d="m14 54.9c0 .8-.4 1.3-1 1.8.2-.7.6-1.3 1-1.8z"/><path d="m11.7 58.9c0 .6-.2 1.1-.8 1.3.2-.5.5-.9.8-1.3z"/><path d="m10.8 60.5c0 .4-.1.8-.5 1 0-.4.2-.7.5-1z"/><path d="m12.5 57.4c0 .4 0 .9-.6 1 .2-.4.3-.7.6-1z"/><path d="m13 56.6c0 .2 0 .4-.3.5.1-.2.1-.4.3-.5z"/><path d="m12 58.4c0 .2 0 .5-.3.5 0-.2.1-.4.3-.5z"/><path d="m10.2 61.5c0 .2 0 .4-.3.5.1-.2.1-.4.3-.5z"/><path d="m10 62c-.1.1-.1.2-.2.3 0-.1.1-.2.2-.3z"/><path d="m11 60.2c-.1.1-.1.2-.2.3 0-.1.1-.2.2-.3z"/><path d="m12.8 57.1c-.1.1-.1.2-.2.3 0-.1.1-.2.2-.3z"/><path d="m100.8 57.1c-.9-.5-1.1-1.4-1.3-2.3.6.7 1 1.5 1.3 2.3z"/><path d="m100.7 57.7c0-.2 0-.4 0-.6.5.5.8 1.1 1 1.8-.6-.1-.5-.9-1-1.2z"/><path d="m103.3 61.5c-.8-.1-.8-.7-.7-1.3.3.3.6.8.7 1.3z"/><path d="m102.6 60.2c-.6-.2-.8-.7-.8-1.3.4.4.6.8.8 1.3z"/><path d="m103.8 62.3v.3c-.1 0-.2 0-.2 0 0-.2 0-.4 0-.5 0 0 .1.1.2.2z"/><path d="m99.5 54.9c-.2-.1-.3-.3-.3-.5.1.1.2.3.3.5z"/><path d="m103.6 62c-.3-.1-.3-.3-.3-.5.2.1.3.3.3.5z"/></g><path d="m61.9 9.2c0 1.8-1 3-2.4 2.9-1.4 0-2.4-1.2-2.4-2.7 0-1.8 1-3.1 2.5-3.1 1.4 0 2.3 1.2 2.3 2.9z" fill="#d93931"/><path d="m49.9 10.2c.2-1 .4-1.8.6-2.7.7.7.9 1.5 1.4 2.4-.7.1-1.3.2-2 .3z" fill="#dc463a"/><path d="m94.1 80.3c-.3-.4-.3-.8 0-1.3z" fill="#da3f36"/><path d="m94.1 86.2c-.4-.4-.4-.8 0-1.3z" fill="#da3f36"/><path d="m96.9 87.2c-.2.1-.4.3-.5.4-.3 0-.4-.2-.5-.4z" fill="#da3c34"/><path d="m95.2 87.2c-.3-.2-.5-.3-.8-.5.4 0 .7 0 .8.5z" fill="#da3c34"/><path d="m94.1 81.3c-.3-.3-.3-.5 0-.8z" fill="#da3f36"/><path d="m94.1 78.8c-.2-.2-.2-.3 0-.5z" fill="#da3f36"/><path d="m94.1 82.6c-.2-.2-.2-.3 0-.5z" fill="#da3f36"/><path d="m94.1 86.4c0-.1 0-.2 0-.3.2.1.2.3.3.5-.1 0-.2 0-.3 0 0 0 0 0 0-.2z" fill="#da3f36"/><path d="m94.1 77.8c0-.1-.1-.1-.1-.2 0 0 .1 0 .1-.1z" fill="#da3f36"/><path d="m94.1 83.1c0-.1-.1-.1-.1-.2 0 0 .1 0 .1-.1z" fill="#da3f36"/><path d="m94.1 83.6c0-.1-.1-.1-.1-.2 0 0 .1 0 .1-.1z" fill="#da3f36"/><path d="m8 63.3h1c-.4.3-.7.3-1 0z" fill="#da3e35"/><path d="m9 63.3c0-.2 0-.4.3-.5-.1.2-.1.4-.3.5z" fill="#da3d34"/><path d="m13.5 57.7-.1-.1h.1z" fill="#da3d34"/><path d="m101.3 73.4c.3 0 .5.2.5.5-.3 0-.4-.2-.5-.5z" fill="#da3d34"/><path d="m106.6 73.2h.3c-.1.1-.2.2-.3.3 0-.1 0-.2 0-.3z" fill="#d93831"/><path d="m106.6 73.4-.1.2v-.1z" fill="#d93831"/><path d="m104.3 62.8c.3.4.8.6 1.3.5-.3.3-.7.2-1 .2-.3-.2-.3-.5-.3-.7z" fill="#da3d34"/><path d="m107.4 63.3v.2c-.1 0-.2 0-.2 0 0-.1.1-.1.2-.2z" fill="#da3d34"/><path d="m103.5 62.5v.1h-.1z" fill="#da3d34"/><path d="m109.9 61.8c-.1.1-.2.2-.3.3 0-.1 0-.2 0-.3z" fill="#d93831"/><path d="m109.6 61.8-.1-.1.1-.1z" fill="#d93831"/><path d="m101.8 60.5v-.1h.1z" fill="#da3d34"/><path d="m100.7 57.7v.1l-.1-.1z" fill="#da3d34"/><path d="m94.1 86.4v.3l-.1-.1c0-.1.1-.1.1-.2z" fill="#d93831"/><path d="m97.4 87.4v.1h-.1z" fill="#da3c34"/><path d="m14.6 65.1c.1-.1.2-.2.2-.3 0 .1.1.1 0 .2v.1c-.1 0-.1 0-.2 0z" fill="#d93831"/><path d="m14.8 65.1c0-.1 0-.2 0-.3l.1.1c0 .1 0 .1-.1.2z" fill="#da3c34"/><path d="m61.4 104.9c-.1-.7-.2-1.3-.3-1.9 1.5-.5 3-.5 4.5-.8.4.6.3 1.2.5 1.9-1.6.3-3.1.6-4.7.8z" fill="#fffdfd"/><path d="m55.7 59.5c-.2 2.1-1 3.5-2.3 4.7-6 5.8-12.9 5-18.1-.3-3.3-3.4-3.9-8.6-1.7-12.6 1.2-2.2 3-3.1 5.5-2.7 3.6.6 5.6 2.9 5.8 6.5 0 1.1.1 2.3-.2 3.4-.3 1.3.2 2.4 1.1 3.2 2.6 2.1 6.7 3.1 9.3-1.2.1-.4.3-.6.6-1z" fill="#fff"/><path d="m54 53.9c-1.4-1-2-2.5-2.4-4-1.9-8 2-13.6 9.3-15.4 4.6-1.1 9.4.9 11.8 4.8 1.3 2.1 1.2 4.2-.4 6.1-2.1 2.6-5.1 3.3-8.2 1.9-1.1-.5-2.2-1.3-3.2-2.1s-2.1-1-3.3-.5c-3.6 1.5-5.7 4.5-3.5 8.6.1.2.2.4.2.6-.1.1-.2.1-.3 0z" fill="#fff"/><path d="m61.6 55.1c0-.1.1-.1.2 0 .6-.2 1.3-.1 1.9 0 4.3.8 7.8 2.7 9.6 6.8 1.9 4.5 1.5 8.9-1.6 12.8-2 2.6-4.7 4-8 4.2-2.4.1-4.2-1-5.1-3.2-1.3-3.2-.4-6.3 2.4-8.2 1-.7 2.2-1.3 3.4-1.7 1-.3 1.6-1 1.9-1.9 1.3-3.3-.7-7.2-4.1-7.9-.2 0-.4-.1-.6-.2-.1 0-.2 0-.2 0-.2-.4.1-.5.2-.7z" fill="#fff"/><path d="m58.5 56.7c-.1.8-.6 1.4-1.6 1.5-.9 0-1.7-.8-1.7-1.7s.8-1.7 1.8-1.6c.9.1 1.6.8 1.5 1.8z" fill="#fefcfb"/><path d="m61.6 55.1c-.1.2-.2.4-.3.6-.4.1-.9.1-1.5-.1.7-.3 1.2-.6 1.8-.5z" fill="#fcf0eb"/><path d="m63.6 55.1c-.6 0-1.3 0-1.9 0 .7-.3 1.3-.2 1.9 0z" fill="#fcf0eb"/><path d="m54 53.9h.2c.2 0 .2.1.2.2-.2 0-.3-.1-.4-.2z" fill="#fae3da"/><path d="m61.3 55.7h.2c0 .1-.1.1-.2 0z" fill="#fcf0eb"/><path d="m54.5 54.1c0 .1 0 .1 0 0z" fill="#e7836a"/><path d="m36.2 50.7c.8.1 1.3.5 1.3 1.4 0 .8-.5 1.4-1.3 1.4-.9 0-1.4-.5-1.4-1.4.1-.9.6-1.3 1.4-1.4z" fill="#da3b33"/><path d="m70.6 42.4c-.8-.1-1.4-.6-1.4-1.4 0-.9.6-1.4 1.5-1.4.8 0 1.3.6 1.3 1.4 0 .9-.6 1.3-1.4 1.4z" fill="#da3e35"/><path d="m64.5 76.2c0 .9-.5 1.4-1.3 1.4-.9 0-1.4-.5-1.5-1.4 0-.8.5-1.3 1.3-1.4.9 0 1.4.5 1.5 1.4z" fill="#da3d34"/></svg>