<svg enable-background="new 0 0 538.6 538.6" viewBox="0 0 538.6 538.6" xmlns="http://www.w3.org/2000/svg"><path d="m0 269.3c-.1-147.8 118.8-269.2 270.1-269.3 149.4 0 270.4 122.4 268.4 273.7-1.9 145.7-120.7 265.1-270.2 264.9s-268.5-122.1-268.3-269.3zm268.8 262.1c143.5.3 261.1-114.9 262.6-259 1.5-147.6-116.9-263.3-258.3-265.2-147.2-2-266.1 117.3-266 261.8.2 146.1 118.5 262.7 261.7 262.4z" fill="#f5e01e"/><circle cx="269.3" cy="269.3" fill="#423374" r="262.1"/><g fill="#fae400"><path d="m76.1 171.4c-1.4 1.9-2.7 3.9-4.2 5.8-2.4 3.3-3.9 7.1-6.5 10.2-.7.8-.6 2.1-1.4 2.9-.8.7-1.2 1.6-1.2 2.7 0 .1-.2.3-.3.5-.7 1.2-1.7 2.1-2 3.6-.3 1.3-1.8 2.1-1.8 3.6-1.3 1.1-1.6 2.9-2.3 4.4-1.2 2.6-2.8 5-3.7 7.8-.6 1.2-1.2 2.4-1.9 3.6-.6 1.2-.8 2.7-1.8 3.7s-.7 2.7-1.9 3.7c-.8 3-1.9 5.9-1.8 9.1.1 2.1.4 4.3.7 6.4.6 2.9 1.6 5.8 2.8 8.5 1.2 3 2.8 5.9 4.7 8.6 2 3 4.1 5.8 6.4 8.5 2.1 2.5 4.6 4.8 6.6 7.4.1.1.3.2.5.2 1.3-.5 1-1.9 1.3-2.8 1.9-5.9 3.4-11.9 5.4-17.7 1-3.1 2.3-6.2 3.4-9.3s2.3-6.1 3.3-9.2c.6-1.9 1.6-3.6 2.3-5.4.9-2.4 2.4-4.6 3-7.2 1.4-1.3 1.4-3.4 2.7-4.8.9-1 .9-2.6 1.9-3.7.9-1 1.5-2.1 1.9-3.3.7-1.5 1.6-2.8 2.7-4 1-1.2 1.3-3 3.1-3.5.2-.1.4-.4.5-.7 1.3-2.3 3.6-3.5 5.8-4.8 2.8-1.7 6.4-1.5 9 .6 5.8 4.1 11.6 8.3 17.5 12.4 1.3.9 1.9 2.4 3.4 3.2 1.5.7 2.8 1.6 3.9 2.8 1.2 1.5 2.8 2.8 4.5 3.7 1.3.8 1.8 2.3 3.2 3.1 1.3.6 2.5 1.4 3.4 2.5 1 1.3 2.3 2.4 3.8 3.2 1.2.8 1.6 2.2 2.9 2.9 1.2.5 2.3 1.3 3.2 2.3 1.2 1.7 3.1 2.4 4.4 3.8 1.8 2 4.2 3.1 6 5s4.1 3 5.8 4.8c3.3 3.5 7.4 5.7 11.2 8.6.9.7 1.1 2.3 2.3 2.3s1.7.7 2.4 1.1c1.1.7 2 1.4 3.1 2.2 3.4-1.1 6.5-2.7 9.5-4.8-3.5-6.7-7-13.1-10.6-19.9l-2.7-1.9c-28-19.9-55.9-39.8-83.9-59.7-3.4-2.4-7.4-3.6-11.4-4.7-4.8-1.3-9.4-.9-14.1 0-1.8.3-3.3 1.4-5 1.7z"/><path d="m180.3 453.6c3.9-1.8 7.7-3.7 11.6-5.5 6.6-3 12.3-7.7 19.1-10.3 1.8-.7 2.7-2.7 4.7-3.4 1.7-.5 3.5-1.2 4.3-3.1.1-.2.6-.3.9-.5 2.1-1.2 4.4-1.9 6.3-4 1.5-1.8 4.7-1.7 6-4.2 3.1-.6 5.1-3.2 7.4-4.9 4.2-3 8.8-5.5 12.6-9 1.8-1.6 4.1-2.5 6.1-4s3.6-3.5 6-4.2c2.5-.8 3.5-3.6 6.1-4.1 3.9-3.9 8.2-7.5 10.7-12.7 1.7-3.5 3.2-7 4.4-10.7 1.9-5.1 2.3-10.5 3.1-15.8.7-5.8.7-11.8.1-17.6-.5-6.3-1.4-12.7-2.5-18.9-1.1-5.8-3-11.5-3.9-17.4 0-.3-.4-.5-.6-.8-2.5-.4-3.3 2.1-4.6 3.2-8.1 7.5-15.7 15.7-23.9 23.1-4.4 4-9 7.7-13.4 11.6s-9 7.6-13.3 11.6c-2.6 2.4-5.7 4.2-8.4 6.5-3.5 3-7.8 5.2-11 8.6-3.4.8-5.2 4.1-8.4 5.2-2.4.8-3.6 3.3-6.1 4.1-2.2.8-4.2 2-5.8 3.6-2 1.9-5 2.9-7.8 3.8s-4.7 3.5-7.9 2.8c-.4-.1-.9.4-1.4.6-4.1 2.5-8.7 2.4-13.2 2.5-6.2.1-10.9-3.1-13.6-8.7-5.6-11.6-11-23.2-16.7-34.7-1.3-2.6-.9-5.5-2.5-8s-3.3-5.1-3.6-7.9c-.5-3.7-2.1-6.7-3.8-9.7-1.3-2.4-.9-5.2-2.3-7.5-1.3-2.2-3-4.5-3.2-7-.4-3-1.5-5.8-3.1-8.3-1.3-2.3-.6-4.9-2-7.1-1.3-2-2.8-4.2-3-6.5-.4-3.7-2.8-6.5-3.6-9.8-1-4.7-3.9-8.6-5-13.1s-3.8-8.2-5-12.6c-2.2-8.3-6.7-15.5-10.1-23.2-.8-1.8.3-4.5-1.6-5.5s-2.1-2.6-2.8-4c-1.1-1.9-1.9-4-2.9-6-6.3-1.1-12.7-1.4-19-.8-.3 13.6-.5 26.7-.8 40.5l2.6 5.4c26.5 55.6 53 111.3 79.6 166.9 3.2 6.8 8.4 12.1 13.8 17.3 6.4 6.1 14 9.6 22.2 12.3 3 1.2 6.3.7 9.2 1.9z"/><path d="m95.7 125.2c1.4-1.8 2.8-3.6 4.1-5.4 2.3-3.1 5.4-5.5 7.5-8.8.6-.8 1.7-1.1 2.3-2.1.4-.9 1.1-1.6 2.1-1.9.1 0 .2-.3.3-.4.9-1 1.5-2.1 2.7-2.8 1.1-.6 1.4-2.3 2.8-2.7.7-1.6 2.2-2.3 3.3-3.3 1.9-2 3.9-3.8 6.1-5.5 1-.9 1.9-1.8 2.8-2.8 1-.8 2.2-1.5 2.9-2.7s2.3-1.4 2.8-2.7c2.5-1.6 4.8-3.4 7.8-4.2 2-.5 4-.9 6-1.1 2.9-.3 5.7-.2 8.6.1 3.1.3 6.2.9 9.1 1.9 3.2 1 6.4 2.1 9.5 3.4 2.9 1.2 5.6 2.8 8.6 3.9.1.1.2.3.3.4-.1 1.3-1.4 1.5-2.2 2-4.8 3.4-9.9 6.4-14.6 9.9-2.5 1.8-5 3.8-7.5 5.7s-4.9 3.8-7.5 5.6c-1.5 1.1-2.8 2.5-4.3 3.6-2 1.5-3.5 3.5-5.7 4.7-.8 1.7-2.7 2.3-3.6 3.8-.7 1.1-2.1 1.5-2.8 2.7-.6 1-1.5 1.9-2.5 2.6-1.2 1-2.1 2.2-2.9 3.6-.8 1.3-2.3 2-2.3 3.8 0 .2-.3.4-.5.6-1.8 1.8-2.2 4.3-2.7 6.6-.8 3 .4 6.2 3 8 5.4 4.2 10.9 8.3 16.2 12.5 1.2.9 2.8 1.1 3.9 2.2 1 1.2 2.3 2.1 3.7 2.8 1.7.7 3.3 1.7 4.6 3 1.1 1 2.6 1 3.7 2 .9 1 2 1.8 3.3 2.4 1.5.5 2.9 1.4 4 2.5 1 .9 2.5.8 3.5 1.9.8 1 1.8 1.8 3 2.3 1.9.6 3 2.2 4.7 2.9 2.3 1.1 4 3 6.2 4s3.9 2.9 6 4c4.1 2 7.3 5.2 10.9 7.8.9.6 2.4.3 2.7 1.4s1.1 1.4 1.7 1.9c.9.8 1.9 1.4 2.8 2.2-.1 3.4-.7 6.8-1.7 10l-21.1-4.1-2.5-1.9c-26-19.9-52-39.8-77.9-59.7-3.2-2.4-5.3-5.7-7.5-9.1-2.3-3.9-3.6-8.3-3.9-12.9-.1-1.3.5-2.9.2-4.6z"/><path d="m277.6 86c1.9 1.6 3.9 3.2 5.8 4.8 3.3 2.6 5.9 6.1 9.4 8.5.9.6 1.2 1.9 2.2 2.6 1 .5 1.7 1.3 2 2.4 0 .2.3.2.4.4 1 1 2.3 1.7 3 3.1.6 1.2 2.5 1.6 2.8 3.2 1.7.8 2.4 2.5 3.5 3.8 2 2.3 4.2 4.3 5.9 6.9.9 1.1 1.9 2.1 2.9 3.1.9 1.1 1.6 2.5 2.8 3.2s1.5 2.6 2.9 3.2c1.7 2.8 3.6 5.4 4.3 8.7.5 2.2.8 4.4 1 6.7.4 3.2-.1 6.3-.5 9.4-.4 3.4-1.2 6.8-2.4 10-1.2 3.5-2.5 7-4.1 10.4-1.5 3.1-3.3 6.1-4.6 9.3-.1.1-.3.2-.4.4-1.5-.1-1.6-1.6-2.1-2.5-3.5-5.4-6.7-11.1-10.3-16.5-1.9-2.9-4-5.6-6-8.5s-4.1-5.6-5.9-8.4c-1.1-1.7-2.6-3.2-3.8-4.9-1.6-2.2-3.7-4-5-6.4-1.8-.9-2.4-3-4.1-4.1-1.2-.8-1.6-2.4-2.9-3.2-1.1-.7-2.1-1.7-2.8-2.9-1.1-1.3-2.4-2.4-3.9-3.3-1.4-.9-2.2-2.6-4.1-2.7-.2 0-.5-.3-.7-.5-2-2-4.6-2.6-7.1-3.3-3.3-1-6.9.2-9 3-4.8 5.8-9.5 11.6-14.3 17.4-1.1 1.3-1.3 3-2.6 4.2-1.3 1.1-2.4 2.5-3.2 4-.8 1.9-2 3.6-3.5 5-1.1 1.2-1.2 2.8-2.4 4-1.2 1-2.1 2.1-2.8 3.5-.7 1.6-1.7 3.1-2.9 4.3-1.1 1.1-1 2.7-2.2 3.7-1.1.9-2 2-2.6 3.3-.7 2-2.5 3.3-3.4 5.1-1.2 2.5-3.4 4.3-4.7 6.7s-3.3 4.1-4.6 6.4c-2.4 4.4-6 7.8-9 11.8-.7.9-.5 2.6-1.7 2.9s-1.5 1.2-2.2 1.9c-.9.9-1.7 2-2.5 3-3.7-.2-7.4-1-10.9-2.2 1.8-7.7 3.5-15.2 5.2-23.1l2.2-2.7c22.8-27.8 45.7-55.7 68.5-83.5 2.8-3.4 6.5-5.7 10.2-7.9 4.5-2.6 9.3-3.5 14.3-3.8 2.3-.3 4.1.4 5.9.1z"/><path d="m184.4 346.3c-.3-1.2-.6-2.3-.9-3.5-.5-2-1.5-3.8-1.9-5.8-.1-.5-.6-.9-.7-1.5 0-.5-.2-1-.6-1.4-.1 0-.1-.2-.1-.3-.1-.7-.4-1.3-.8-1.9-.4-.5-.2-1.4-.9-1.9-.2-.8-.5-1.6-1-2.3-.5-1.4-1.2-2.7-1.9-3.9-.4-.6-.5-1.3-.8-1.9-.4-.6-.7-1.2-.9-1.9-.1-.7-.8-1.1-.8-1.9-.8-1.4-1.8-2.6-3-3.6-.9-.6-1.8-1.2-2.7-1.8-1.3-.7-2.8-1.3-4.2-1.7-1.6-.5-3.2-.8-4.9-.9-1.8-.2-3.6-.3-5.4-.3-1.7 0-3.3.3-5 .2-.1 0-.2.1-.2.1-.2.7.4 1 .7 1.4 1.7 2.6 3.6 5.1 5.2 7.8.9 1.4 1.7 2.9 2.5 4.3s1.6 2.9 2.5 4.3c.5.8.9 1.8 1.4 2.6.5 1.2 1.2 2.3 1.8 3.5.1 1 .9 1.7 1 2.6.1.7.7 1.2.8 1.9.1.6.3 1.3.7 1.8.4.7.6 1.5.7 2.3s.7 1.5.4 2.3c0 .1.1.3.1.4.3 1.2.3 2.5 0 3.8-.2 1.6-1.5 3-3.1 3.3-3.5.9-7 1.9-10.5 2.8-.8.2-1.6 0-2.4.3-.7.4-1.5.6-2.4.6-1 0-2 .2-2.9.6-.7.2-1.5 0-2.2.3s-1.4.5-2.1.5c-.8 0-1.7.1-2.5.5-.7.2-1.4-.1-2.1.2-.6.3-1.3.5-1.9.5-1-.1-1.9.5-2.9.5-1.4 0-2.6.6-3.9.7s-2.5.6-3.7.7c-2.4.2-4.6 1.1-6.9 1.6-.6.1-1.2-.3-1.6.2s-.8.5-1.2.6c-.6.2-1.2.3-1.8.5-.6 1.7-1 3.4-1.2 5.2l11.2 2.3 1.6-.4c16.7-4.5 33.5-9 50.2-13.5 2-.6 3.9-1.6 5.5-2.9 1.9-1.5 3.5-3.3 4.5-5.5.7-.8.7-1.7 1.2-2.4z"/><path d="m152.8 278.3c-.3-1.2-.6-2.3-.9-3.5-.5-2-1.5-3.8-1.9-5.8-.1-.5-.6-.9-.7-1.5 0-.5-.2-1-.6-1.4-.1 0 0-.2-.1-.3-.1-.7-.4-1.3-.8-1.9-.4-.5-.2-1.4-.8-1.9-.2-.8-.5-1.6-1-2.3-.5-1.4-1.1-2.7-1.9-3.9-.3-.6-.6-1.3-.8-1.9-.4-.6-.7-1.2-.9-1.9-.1-.7-.8-1.1-.8-1.9-.8-1.4-1.8-2.6-3-3.6-.9-.6-1.8-1.2-2.7-1.8-2.8-1.4-5.9-2.3-9.1-2.6-1.8-.2-3.6-.3-5.4-.3-1.7 0-3.3.3-5 .2-.1 0-.2.1-.3.1-.2.7.4 1 .7 1.4 1.7 2.6 3.5 5.1 5.2 7.8.9 1.4 1.7 2.9 2.5 4.3s1.6 2.9 2.5 4.3c.5.8.9 1.8 1.4 2.6.5 1.2 1.2 2.4 1.8 3.5 0 1 .9 1.6 1 2.6.1.7.7 1.2.8 1.9.1.6.3 1.2.7 1.8.4.7.6 1.5.7 2.4.1.8.7 1.5.4 2.3-.1.1 0 .3.1.4.3 1.2.3 2.5 0 3.8-.2 1.6-1.5 3-3.1 3.3-3.5 1-7 1.9-10.5 2.8-.8.2-1.6 0-2.3.3-.7.4-1.5.6-2.4.6-1 0-2 .2-2.9.6-.7.3-1.5 0-2.2.3-.6.3-1.4.5-2.1.5-.8 0-1.7.1-2.5.4-.7.2-1.4-.1-2.1.2-.6.3-1.3.5-1.9.5-1-.1-1.9.5-2.9.5-1.3 0-2.6.6-3.9.7s-2.5.6-3.7.7c-2.4.2-4.6 1.1-6.9 1.6-.6.1-1.2-.3-1.6.2s-.8.4-1.2.6c-.6.2-1.2.3-1.8.5-.6 1.7-1 3.4-1.2 5.2l11.2 2.3 1.6-.4c16.8-4.5 33.5-9 50.2-13.5 2-.6 3.8-1.6 5.5-2.9 1.9-1.5 3.5-3.3 4.5-5.5.7-.7.7-1.6 1.1-2.4z"/><path d="m462.5 171.4c1.4 1.9 2.8 3.9 4.2 5.8 2.4 3.3 3.9 7.1 6.5 10.2.7.8.6 2.1 1.4 2.9.8.7 1.3 1.6 1.3 2.7 0 .1.2.3.3.5.7 1.2 1.7 2.1 2 3.6.3 1.3 1.9 2.1 1.8 3.6 1.4 1.1 1.6 2.9 2.3 4.4 1.2 2.6 2.8 5 3.7 7.8.6 1.2 1.2 2.4 1.9 3.6.5 1.2.8 2.7 1.8 3.7s.7 2.7 1.9 3.7c.9 3 1.9 5.9 1.8 9.1-.1 2.1-.4 4.3-.7 6.4-.6 2.9-1.6 5.8-2.8 8.5-1.2 3-2.8 5.9-4.7 8.6-2 3-4.1 5.8-6.4 8.5-2.1 2.5-4.6 4.8-6.6 7.4-.1.1-.3.2-.5.2-1.3-.5-1-1.9-1.3-2.8-1.9-5.9-3.4-11.9-5.4-17.7-1-3.1-2.3-6.2-3.4-9.3s-2.4-6.1-3.4-9.2c-.6-1.9-1.6-3.6-2.3-5.4-.9-2.4-2.4-4.6-3-7.2-1.4-1.3-1.4-3.4-2.7-4.8-.9-1-.9-2.6-1.9-3.7-.9-1-1.5-2.1-1.9-3.3-.7-1.5-1.6-2.8-2.7-4-1-1.2-1.3-3-3.1-3.5-.2-.1-.4-.4-.5-.7-1.3-2.3-3.6-3.5-5.8-4.8-2.8-1.7-6.4-1.5-9 .6-5.8 4.1-11.6 8.3-17.5 12.4-1.3.9-1.9 2.4-3.4 3.2-1.5.7-2.8 1.6-3.9 2.8-1.2 1.5-2.8 2.8-4.5 3.7-1.3.8-1.8 2.3-3.2 3.1-1.3.6-2.5 1.4-3.4 2.5-1 1.3-2.3 2.4-3.8 3.2-1.2.8-1.6 2.2-2.9 2.9-1.2.5-2.3 1.3-3.2 2.3-1.2 1.7-3.1 2.4-4.4 3.8-1.8 2-4.2 3.1-6 5s-4.1 3-5.8 4.8c-3.3 3.5-7.5 5.7-11.2 8.6-.9.7-1.1 2.3-2.3 2.3s-1.7.7-2.5 1.1c-1 .7-2 1.4-3.1 2.2-3.4-1.2-6.5-2.7-9.5-4.8l10.6-19.9 2.7-1.9c28-19.9 55.9-39.8 83.9-59.7 3.4-2.4 7.4-3.6 11.4-4.7 4.8-1.3 9.4-.9 14.1 0 1.9.3 3.3 1.4 5.1 1.7z"/><path d="m358.3 453.6c-3.9-1.8-7.7-3.7-11.6-5.5-6.6-3-12.3-7.7-19.1-10.3-1.8-.7-2.7-2.7-4.7-3.4-1.7-.5-3.5-1.2-4.3-3.1-.1-.2-.6-.3-.9-.5-2.1-1.2-4.5-1.9-6.3-4-1.5-1.8-4.7-1.7-6-4.2-3.1-.6-5-3.2-7.4-4.9-4.2-3-8.8-5.5-12.6-9-1.8-1.6-4.1-2.5-6.1-4s-3.6-3.5-6-4.2c-2.5-.8-3.5-3.6-6.1-4.1-3.9-3.9-8.2-7.5-10.7-12.7-1.7-3.5-3.2-7-4.4-10.7-1.9-5.1-2.3-10.5-3.1-15.8-.7-5.9-.7-11.8 0-17.6.5-6.3 1.4-12.7 2.5-18.9 1.1-5.8 3-11.5 3.9-17.4 0-.3.4-.5.6-.8 2.5-.4 3.3 2.1 4.6 3.2 8.1 7.5 15.7 15.7 23.9 23.1 4.4 4 9 7.7 13.4 11.6s9 7.6 13.3 11.6c2.5 2.4 5.7 4.2 8.4 6.5 3.5 3 7.8 5.2 11 8.6 3.4.8 5.2 4.1 8.4 5.2 2.4.8 3.6 3.3 6.1 4.1 2.2.8 4.2 2 5.8 3.6 2 1.9 5 2.9 7.8 3.8s4.7 3.5 7.9 2.8c.4-.1.9.4 1.4.6 4.1 2.5 8.7 2.4 13.2 2.5 6.2.1 10.9-3.1 13.6-8.7 5.5-11.6 11-23.2 16.6-34.7 1.3-2.6.9-5.5 2.5-8s3.3-5.1 3.6-7.9c.5-3.7 2.1-6.7 3.8-9.7 1.3-2.4.9-5.2 2.3-7.5 1.3-2.2 3-4.5 3.2-7 .4-3 1.5-5.8 3.1-8.3 1.3-2.3.6-4.9 2-7.1 1.3-2 2.8-4.2 3-6.5.4-3.7 2.8-6.5 3.6-9.8 1-4.7 3.9-8.6 5-13.1s3.8-8.2 4.9-12.6c2.2-8.3 6.7-15.5 10.1-23.2.8-1.8-.3-4.5 1.6-5.5s2.1-2.6 2.9-4c1.1-1.9 1.9-4 2.9-6 6.3-1.1 12.7-1.4 19-.8.3 13.6.5 26.7.8 40.5l-2.6 5.4c-26.5 55.6-53 111.3-79.6 166.9-3.2 6.8-8.4 12.1-13.8 17.3-6.3 6.1-14 9.6-22.2 12.3-3 1.2-6.3.7-9.2 1.9z"/><path d="m442.8 125.2c-1.4-1.8-2.8-3.6-4.1-5.4-2.3-3.1-5.4-5.5-7.5-8.8-.5-.8-1.7-1.1-2.3-2.1-.4-.9-1.1-1.6-2.1-1.9-.1 0-.2-.3-.3-.4-.9-1-1.5-2.1-2.7-2.8-1.1-.6-1.4-2.3-2.8-2.7-.7-1.6-2.2-2.3-3.3-3.3-1.9-2-3.9-3.8-6.1-5.5-1-.9-1.9-1.8-2.8-2.8-1-.8-2.2-1.5-2.9-2.7s-2.3-1.4-2.8-2.7c-2.5-1.6-4.8-3.4-7.8-4.2-2-.5-4-.9-6-1.1-2.9-.3-5.7-.2-8.6.1-3.1.3-6.2.9-9.1 1.9-3.2 1-6.4 2.1-9.5 3.4-2.9 1.2-5.6 2.8-8.6 3.9-.1.1-.2.3-.3.4.1 1.3 1.4 1.5 2.2 2 4.8 3.4 9.9 6.4 14.6 9.9 2.5 1.8 5 3.8 7.5 5.7s4.9 3.8 7.5 5.6c1.5 1.1 2.8 2.5 4.3 3.6 2 1.5 3.5 3.5 5.7 4.7.8 1.7 2.7 2.3 3.6 3.8.7 1.1 2.1 1.5 2.8 2.7.6 1 1.5 1.9 2.5 2.6 1.2 1 2.1 2.2 2.9 3.6.8 1.3 2.4 2 2.3 3.8 0 .2.3.4.5.6 1.8 1.8 2.2 4.3 2.7 6.6.8 3-.4 6.2-3 8-5.4 4.2-10.9 8.3-16.2 12.5-1.2.9-2.8 1.1-3.9 2.2-1 1.2-2.3 2.1-3.7 2.8-1.7.7-3.3 1.7-4.6 3-1.1 1-2.6 1-3.7 2-.9 1-2 1.8-3.3 2.4-1.5.5-2.9 1.4-4 2.5-1 .9-2.5.8-3.5 1.9-.8 1-1.8 1.8-3 2.3-1.9.6-3 2.2-4.7 2.9-2.3 1.1-4 3-6.2 4s-3.9 2.9-6 4c-4.1 2-7.3 5.2-10.9 7.8-.9.6-2.4.3-2.7 1.4s-1.1 1.4-1.7 1.9c-.9.8-1.9 1.4-2.8 2.2.1 3.4.7 6.8 1.7 10l21.1-4.1 2.5-1.9c26-19.9 52-39.8 77.9-59.7 3.2-2.4 5.4-5.7 7.5-9.1 2.3-3.9 3.6-8.3 3.9-12.9.2-1.3-.4-2.9-.2-4.6z"/><path d="m261 86c-1.9 1.6-3.9 3.2-5.8 4.8-3.3 2.6-5.9 6.1-9.4 8.5-.9.6-1.2 1.9-2.2 2.6-1 .5-1.7 1.3-2 2.4 0 .2-.3.2-.4.4-1 1-2.3 1.7-3 3.1-.6 1.2-2.5 1.6-2.8 3.2-1.7.8-2.4 2.5-3.5 3.8-2 2.3-4.2 4.3-5.9 6.9-.9 1.1-1.9 2.1-2.9 3.1-.9 1.1-1.6 2.5-2.8 3.2s-1.5 2.6-2.9 3.2c-1.7 2.8-3.6 5.4-4.3 8.7-.4 2.2-.8 4.4-1 6.7-.4 3.2.1 6.3.4 9.4.4 3.4 1.2 6.8 2.4 10 1.2 3.5 2.6 7 4.1 10.4 1.5 3.1 3.3 6.1 4.6 9.3.1.1.3.2.4.4 1.5-.1 1.6-1.6 2.1-2.5 3.5-5.4 6.7-11.1 10.3-16.5 1.9-2.9 4-5.6 6-8.5s4-5.6 5.9-8.4c1.1-1.7 2.6-3.2 3.8-4.9 1.6-2.2 3.7-4 5-6.4 1.8-.9 2.4-3 4.1-4.1 1.2-.8 1.6-2.4 2.9-3.2 1.1-.7 2.1-1.7 2.8-2.9 1.1-1.3 2.4-2.4 3.9-3.3 1.4-.9 2.2-2.6 4.1-2.7.2 0 .5-.3.7-.5 2-2 4.6-2.6 7.1-3.3 3.3-1 6.9.2 9 3 4.8 5.8 9.5 11.6 14.3 17.4 1.1 1.3 1.3 3 2.5 4.2 1.3 1.1 2.4 2.5 3.2 4 .8 1.9 2 3.6 3.5 5 1.1 1.2 1.2 2.8 2.4 4 1.2 1 2.1 2.1 2.8 3.5.7 1.6 1.7 3.1 2.9 4.3 1.1 1.1 1 2.7 2.2 3.7 1.1.9 2 2 2.6 3.3.7 2 2.5 3.3 3.4 5.1 1.2 2.5 3.4 4.3 4.7 6.7s3.3 4.1 4.6 6.4c2.4 4.4 6 7.8 9 11.8.7.9.5 2.6 1.7 2.9s1.5 1.2 2.2 1.9c.9.9 1.7 2 2.5 3 3.7-.2 7.4-1 10.9-2.2-1.8-7.7-3.5-15.2-5.2-23.1l-2.2-2.7c-22.8-27.8-45.7-55.7-68.5-83.5-2.8-3.4-6.5-5.7-10.2-7.9-4.5-2.6-9.3-3.5-14.3-3.8-2.1-.3-3.9.4-5.7.1z"/><path d="m354.2 346.3c.3-1.2.6-2.3.9-3.5.5-2 1.5-3.8 1.9-5.8.1-.5.6-.9.7-1.5 0-.5.2-1 .6-1.4.1 0 0-.2.1-.3.1-.7.4-1.3.8-1.9.4-.5.2-1.4.9-1.9.2-.8.5-1.6 1-2.3.5-1.4 1.2-2.7 1.9-3.9.4-.6.5-1.3.8-1.9.4-.6.7-1.2.9-1.9.1-.7.8-1.1.8-1.9.8-1.4 1.8-2.6 3-3.6.9-.6 1.8-1.2 2.7-1.8 1.3-.7 2.8-1.3 4.2-1.7 1.6-.5 3.2-.8 4.9-.9 1.8-.2 3.6-.3 5.4-.3 1.7 0 3.3.3 5 .2.1 0 .2.1.2.1.2.7-.4 1-.7 1.4-1.7 2.6-3.5 5.1-5.2 7.8-.9 1.4-1.7 2.9-2.5 4.3s-1.6 2.9-2.5 4.3c-.5.8-.9 1.8-1.4 2.6-.5 1.2-1.2 2.3-1.8 3.5 0 1-.9 1.7-1 2.6-.1.7-.7 1.2-.8 1.9-.1.6-.3 1.3-.7 1.8-.4.7-.6 1.5-.7 2.3s-.7 1.5-.4 2.3c0 .1 0 .3-.1.4-.3 1.2-.3 2.5 0 3.8.2 1.6 1.5 3 3.1 3.3 3.5.9 7 1.9 10.5 2.8.8.2 1.6 0 2.4.3.7.4 1.5.6 2.4.6 1 0 2 .2 2.9.6.8.2 1.5 0 2.2.3s1.4.5 2.1.5c.8 0 1.7.1 2.5.5.7.2 1.4-.1 2.1.2.6.3 1.3.5 2 .5 1-.1 1.9.5 2.9.5 1.4 0 2.6.6 3.9.7s2.5.6 3.7.7c2.4.2 4.6 1.1 6.9 1.6.5.1 1.2-.3 1.6.2s.8.5 1.2.6c.6.2 1.2.3 1.8.5.6 1.7 1 3.4 1.2 5.2l-11.2 2.3-1.6-.4c-16.7-4.5-33.5-9-50.2-13.5-2-.6-3.8-1.6-5.5-2.9-1.9-1.5-3.5-3.3-4.5-5.5-.8-.8-.8-1.7-1.3-2.4z"/><path d="m385.7 278.3c.3-1.2.6-2.3.9-3.5.5-2 1.5-3.8 1.9-5.8.1-.5.6-.9.7-1.5 0-.5.2-1 .6-1.4.1 0 0-.2.1-.3.1-.7.4-1.3.8-1.9.4-.5.2-1.4.8-1.9.2-.8.5-1.6 1-2.3.5-1.4 1.1-2.7 1.9-3.9.3-.6.6-1.3.8-1.9.4-.6.7-1.2.9-1.9.1-.7.8-1.1.8-1.9.8-1.4 1.8-2.6 3-3.6.9-.6 1.8-1.2 2.7-1.8 2.8-1.4 5.9-2.3 9.1-2.6 1.8-.2 3.6-.3 5.4-.3 1.7 0 3.3.3 5 .2.1 0 .2.1.3.1.2.7-.4 1-.7 1.4-1.7 2.6-3.5 5.1-5.2 7.8-.9 1.4-1.7 2.9-2.5 4.3s-1.6 2.9-2.5 4.3c-.5.8-.9 1.8-1.4 2.6-.5 1.2-1.2 2.4-1.8 3.5 0 1-.9 1.6-1 2.6-.1.7-.7 1.2-.8 1.9-.1.6-.3 1.2-.7 1.8-.4.7-.6 1.5-.7 2.4-.1.8-.7 1.5-.4 2.3 0 .1 0 .3-.1.4-.3 1.2-.3 2.5 0 3.8.2 1.6 1.5 3 3.1 3.3 3.5 1 7 1.9 10.5 2.8.8.2 1.6 0 2.3.3.7.4 1.5.6 2.4.6 1 0 2 .2 2.9.6.7.3 1.5 0 2.2.3.6.3 1.4.5 2.1.5.8 0 1.7.1 2.5.4.7.2 1.4-.1 2.1.2.6.3 1.3.5 1.9.5 1-.1 1.9.5 2.9.5 1.4 0 2.6.6 3.9.7s2.5.6 3.7.7c2.4.2 4.6 1.1 6.9 1.6.5.1 1.2-.3 1.6.2s.8.4 1.3.6c.6.2 1.2.3 1.8.5.6 1.7 1 3.4 1.2 5.2l-11.2 2.3-1.6-.4c-16.7-4.5-33.5-9-50.2-13.5-2-.6-3.9-1.6-5.5-2.9-1.9-1.5-3.5-3.3-4.5-5.5-.7-.7-.7-1.6-1.2-2.4z"/></g><path d="m298.3 202.1-27.8 96.8-1.1.3c-9.6-32.3-19.2-64.6-28.9-97l28.8-47.9z" fill="#f9e400"/></svg>