<svg enable-background="new 0 0 113.4 113.4" viewBox="0 0 113.4 113.4" xmlns="http://www.w3.org/2000/svg"><path d="m56.7 113.4c-31.3 0-56.7-25.4-56.7-56.7s25.4-56.7 56.7-56.7 56.6 25.4 56.6 56.7c.1 31.3-25.3 56.7-56.6 56.7zm-55.2-56.8c0 30.5 24.6 55.2 55 55.3 30.5 0 55.3-24.6 55.3-55 0-30.6-24.6-55.4-55-55.4-30.5 0-55.3 24.6-55.3 55.1z" fill="#f6e116"/><path d="m56.8 1.5c-30.5 0-55.3 24.6-55.3 55.1s24.6 55.2 55 55.3c30.5 0 55.3-24.6 55.3-55 .1-30.6-24.5-55.4-55-55.4z" fill="#413273"/><g fill="#fae400"><path d="m99.6 75.6c.5-.8 1-1.6 1.4-2.6-1.2-.6-2.4-1.1-3.5-1.8-1.5-.9-3-1.1-4.7-1.1-8.9.1-17.8 0-26.8 0-2.8 0-5.2.9-7.1 2.9-.7.8-1 1.6-1 2.7.1 4 .7 8 1.4 11.9.1.9.3 1.7.4 2.6.2 1.8 1 3.3 2.3 4.5 3 2.7 6.6 3.7 10.5 4.4-.7-2.2-1.4-4.3-2.1-6.4-1.2-3.9-2.2-7.9-2.6-12-.1-1.4-.1-2.8.2-4.2.4-1.6 1.2-2.3 2.9-2.3 4.2-.2 8.4.2 12.6.6 4.8.4 9.7 1 14.5 1 .6-.2 1.1-.2 1.6-.2z"/><path d="m13.8 75.6c-.5-.8-1-1.6-1.4-2.6 1.2-.6 2.4-1.1 3.5-1.8 1.5-.9 3-1.1 4.7-1.1 8.9.1 17.8 0 26.8 0 2.8 0 5.2.9 7.1 2.9.7.8 1 1.6 1 2.7-.1 4-.7 8-1.4 11.9-.1.9-.3 1.7-.4 2.6-.2 1.8-1 3.3-2.3 4.5-3 2.7-6.6 3.7-10.5 4.4.7-2.2 1.4-4.3 2.1-6.4 1.2-3.9 2.2-7.9 2.6-12 .1-1.4.1-2.8-.2-4.2-.4-1.6-1.2-2.3-2.9-2.3-4.2-.2-8.4.2-12.6.6-4.8.4-9.7 1-14.5 1-.7-.2-1.1-.2-1.6-.2z"/><path d="m63.4 11.8c-.8-.7-1.6-1.4-2.6-1.9-.6 1.6-1.1 3.2-1.8 4.7-.9 2-1.1 4.1-1.1 6.4.1 12 0 23.9 0 35.9 0 3.7.9 7 2.9 9.6.8.9 1.6 1.4 2.7 1.4 4-.1 8-1 11.9-1.9.9-.2 1.7-.4 2.6-.6 1.8-.3 3.3-1.3 4.5-3.1 2.7-4 3.7-8.9 4.4-14.1-2.2 1-4.3 1.9-6.4 2.8-3.9 1.6-7.9 3-12 3.5-1.4.2-2.8.2-4.2-.3-1.6-.6-2.3-1.6-2.3-3.9-.2-5.7.2-11.3.6-16.9.4-6.5 1-13 1-19.5-.1-.8-.2-1.4-.2-2.1z"/><path d="m50 11.8c.8-.7 1.6-1.4 2.6-1.9.6 1.6 1.1 3.2 1.8 4.7.9 2 1.1 4.1 1.1 6.4-.1 12 0 23.9 0 35.9 0 3.7-.9 7-2.9 9.6-.8.9-1.6 1.4-2.7 1.4-4-.1-8-1-11.9-1.9-.9-.2-1.7-.4-2.6-.6-1.8-.3-3.3-1.3-4.5-3.1-2.7-4-3.7-8.9-4.4-14.1 2.2 1 4.3 1.9 6.4 2.8 3.9 1.6 7.9 3 12 3.5 1.4.2 2.8.2 4.2-.3 1.6-.6 2.3-1.6 2.3-3.9.2-5.7-.2-11.3-.6-16.9-.4-6.5-1-13-1-19.5.1-.8.2-1.4.2-2.1z"/></g></svg>