<svg enable-background="new 0 0 113.4 113.4" viewBox="0 0 113.4 113.4" xmlns="http://www.w3.org/2000/svg"><circle cx="56.7" cy="56.7" fill="#f9e400" r="56.7"/><circle cx="56.7" cy="56.7" fill="#413273" r="54.7"/><g fill="#fae400"><path d="m17.7 38.3c.3-.7.7-1.3 1-2 .6-1.1 1.4-2.1 1.9-3.3.1-.3.5-.5.6-.8s.2-.6.6-.7c0 0 .1-.1.1-.2.2-.4.4-.8.7-1.1s.3-.8.8-1c .1-.5.6-.9.9-1.3.6-.7 1-1.5 1.7-2.2.3-.3.5-.7.7-1.1.3-.3.6-.6.8-1 .1-.4.7-.6.8-1.1.7-.7 1.4-1.4 2.3-1.8.6-.3 1.3-.5 1.9-.7.9-.3 1.9-.3 2.8-.5 1-.1 2.1 0 3.1.1 1.1.1 2.2.3 3.3.6 1 .2 2 .6 3.1.8 0 0 .1.1.1.1.1.4-.4.6-.6.8-1.4 1.4-2.9 2.7-4.2 4.1-.7.7-1.4 1.5-2.1 2.3s-1.4 1.6-2.1 2.3c-.4.4-.8 1-1.2 1.4-.6.6-1 1.3-1.6 1.9-.2.6-.8.9-1 1.5-.2.4-.6.6-.8 1.1-.1.4-.4.7-.7 1-.3.4-.5.9-.7 1.4s-.7.8-.5 1.4c0 .1-.1.2-.1.2-.5.7-.5 1.5-.5 2.3-.1 1.1.5 1.9 1.5 2.5 2 1.1 4 2.1 6.1 3.2.5.2 1 .2 1.4.5s.9.6 1.4.7c.6.1 1.2.4 1.7.7.4.3.9.2 1.3.4s.8.5 1.2.6c.6.1 1 .3 1.5.6.4.2.9.1 1.2.4.3.2.7.5 1.1.6.7.1 1.1.5 1.7.7.8.2 1.5.7 2.3 1 .8.2 1.4.7 2.2 1 1.5.4 2.7 1.3 4 1.9.3.2.8 0 1 .3s.4.4.7.5c.3.2.7.4 1.1.6.2 1.1.2 2.3 0 3.4-2.4 0-4.7-.1-7.2-.1-.2-.1-.6-.3-.9-.5-9.7-5-19.4-10-29.1-15.1-1.2-.6-2.1-1.6-3-2.5-1-1.2-1.6-2.5-2-4-.2-.8-.1-1.4-.3-1.9z"/><path d="m95.7 38.3c-.3-.7-.7-1.3-1-2-.6-1.1-1.4-2.1-1.9-3.3-.1-.3-.5-.5-.6-.8s-.2-.6-.6-.7c0 0-.1-.1-.1-.2-.2-.4-.4-.8-.7-1.1s-.3-.8-.8-1c-.1-.5-.6-.9-.9-1.3-.6-.7-1-1.5-1.7-2.2-.3-.3-.5-.7-.7-1.1-.3-.3-.6-.6-.8-1-.1-.4-.7-.6-.8-1.1-.7-.7-1.4-1.4-2.3-1.8-.6-.3-1.3-.5-1.9-.7-.9-.3-1.9-.3-2.8-.5-1-.1-2.1 0-3.1.1-1.1.1-2.2.3-3.3.6-1 .2-2 .6-3.1.8 0 0-.1.1-.1.1-.1.4.4.6.6.8 1.4 1.4 2.9 2.7 4.2 4.1.7.7 1.4 1.5 2.1 2.3s1.4 1.6 2.1 2.3c.4.4.8 1 1.2 1.4.6.6 1 1.3 1.6 1.9.2.6.8.9 1 1.5.2.4.6.6.8 1.1.1.4.4.7.7 1 .3.4.5.9.7 1.4s.7.8.5 1.4c0 .1.1.2.1.2.5.7.5 1.5.5 2.3.1 1.1-.5 1.9-1.5 2.5-2 1.1-4 2.1-6.1 3.2-.5.2-1 .2-1.4.5s-.9.6-1.4.7c-.6.1-1.2.4-1.7.7-.4.3-.9.2-1.3.4s-.8.5-1.2.6c-.6.1-1 .3-1.5.6-.4.2-.9.1-1.2.4-.3.2-.7.5-1.1.6-.7.1-1.1.5-1.7.7-.8.2-1.5.7-2.3 1-.8.2-1.4.7-2.2 1-1.5.4-2.7 1.3-4 1.9-.3.2-.8 0-1 .3s-.4.4-.7.5c-.3.2-.7.4-1.1.6-.2 1.1-.2 2.3 0 3.4 2.4 0 4.7-.1 7.2-.1.2-.1.6-.3.9-.5 9.7-5 19.4-10 29.1-15.1 1.2-.6 2.1-1.6 3-2.5 1-1.2 1.6-2.5 2-4 .2-.8.1-1.4.3-1.9z"/><path d="m87.7 84.2c-.3.5-.6 1.1-.8 1.6-.5.9-1.1 1.7-1.5 2.6-.1.2-.4.4-.5.7-.1.2-.2.5-.5.6 0 0 0 .1-.1.1-.2.3-.3.6-.6.9-.3.2-.3.7-.6.8-.1.4-.5.7-.7 1-.4.6-.8 1.2-1.3 1.7-.2.2-.4.6-.6.8-.2.3-.5.5-.6.8-.1.4-.5.5-.6.8-.6.5-1.1 1.1-1.8 1.5-.5.2-1 .4-1.5.6-.7.2-1.5.3-2.2.4-.8.1-1.7 0-2.5-.1-.9-.1-1.8-.2-2.7-.4-.8-.2-1.6-.5-2.4-.6 0 0-.1-.1-.1-.1 0-.4.3-.5.5-.6 1.1-1.1 2.3-2.1 3.4-3.3.6-.6 1.1-1.2 1.7-1.8s1.1-1.2 1.7-1.8c.3-.3.6-.8 1-1.1.4-.5.8-1.1 1.3-1.5.1-.5.6-.7.8-1.2.1-.3.5-.5.6-.8s.3-.6.5-.8c.3-.3.4-.7.6-1.1.1-.4.5-.6.4-1.1 0-.1.1-.1.1-.2.4-.6.4-1.2.4-1.8 0-.9-.4-1.5-1.2-2-1.6-.8-3.2-1.7-4.8-2.5-.4-.2-.8-.2-1.1-.4s-.7-.5-1.1-.6c-.5-.1-.9-.3-1.4-.6-.3-.2-.7-.1-1.1-.4-.3-.2-.6-.4-1-.5s-.8-.3-1.2-.5c-.3-.2-.7-.1-1-.3s-.6-.4-.9-.5c-.5-.1-.9-.4-1.4-.5-.7-.2-1.2-.6-1.8-.8s-1.1-.6-1.7-.8c-1.2-.3-2.1-1-3.2-1.5-.3-.1-.6 0-.8-.2-.1-.3-.4-.3-.5-.4-.3-.2-.6-.3-.8-.4-.1-.9-.1-1.8 0-2.7 1.9 0 3.8.1 5.7.1.2.1.5.2.7.4l23.1 12c .9.5 1.7 1.2 2.4 2 .8.9 1.3 2 1.6 3.2 0 .4 0 .8.1 1.3z"/><path d="m25.7 84.2c.3.5.6 1.1.8 1.6.5.9 1.1 1.7 1.5 2.6.1.2.4.4.5.7.1.2.2.5.5.6 0 0 0 .1.1.1.2.3.3.6.6.9.3.2.3.7.6.8.1.4.5.7.7 1 .4.6.8 1.2 1.3 1.7.2.2.4.6.6.8.2.3.5.5.6.8.1.4.5.5.6.8.6.5 1.1 1.1 1.8 1.5.5.2 1 .4 1.5.6.7.2 1.5.3 2.2.4.8.1 1.7 0 2.5-.1.9-.1 1.8-.2 2.7-.4.8-.2 1.6-.5 2.4-.6 0 0 .1-.1.1-.1 0-.4-.3-.5-.5-.6-1.1-1.1-2.3-2.1-3.4-3.3-.6-.6-1.1-1.2-1.7-1.8s-1.1-1.2-1.7-1.8c-.3-.3-.6-.8-1-1.1-.4-.5-.8-1.1-1.3-1.5-.1-.5-.6-.7-.8-1.2-.1-.3-.5-.5-.6-.8s-.3-.6-.5-.8c-.3-.3-.4-.7-.6-1.1-.1-.4-.5-.6-.4-1.1 0-.1-.1-.1-.1-.2-.4-.6-.4-1.2-.4-1.8 0-.9.4-1.5 1.2-2 1.6-.8 3.2-1.7 4.8-2.5.4-.2.8-.2 1.1-.4s.7-.5 1.1-.6c.5-.1.9-.3 1.4-.6.3-.2.7-.1 1.1-.4.3-.2.6-.4 1-.5s.8-.3 1.2-.5c.3-.2.7-.1 1-.3s.6-.4.9-.5c.5-.1.9-.4 1.4-.5.7-.2 1.2-.6 1.8-.8s1.1-.6 1.7-.8c1.2-.3 2.1-1 3.2-1.5.3-.1.6 0 .8-.2.1-.3.4-.3.5-.4.3-.2.6-.3.8-.4.1-.9.1-1.8 0-2.7-1.9 0-3.8.1-5.7.1-.2.1-.5.2-.7.4-7.7 4-15.4 8-23.1 12-.9.5-1.7 1.2-2.4 2-.8.9-1.3 2-1.6 3.2 0 .4.1.8-.1 1.3z"/></g></svg>