<svg enable-background="new 0 0 113.4 113.4" viewBox="0 0 113.4 113.4" xmlns="http://www.w3.org/2000/svg"><path d="m56.7 113.4c-31.3 0-56.7-25.4-56.7-56.7s25.4-56.7 56.7-56.7 56.6 25.4 56.6 56.7c.1 31.3-25.3 56.7-56.6 56.7zm-55.2-56.8c0 30.5 24.6 55.2 55 55.3 30.5 0 55.3-24.6 55.3-55 0-30.6-24.6-55.4-55-55.4-30.5 0-55.3 24.6-55.3 55.1z" fill="#f6e116"/><path d="m56.8 1.5c-30.5 0-55.3 24.6-55.3 55.1s24.6 55.2 55 55.3c30.5 0 55.3-24.6 55.3-55 .1-30.6-24.5-55.4-55-55.4z" fill="#413273"/><path d="m103.9 64.9c.6-.9 1.1-1.8 1.6-2.9-1.3-.6-2.6-1.2-3.8-1.9-1.6-1-3.3-1.2-5.2-1.2-9.8.1-19.6 0-29.4 0-3.1 0-5.7.9-7.8 3.2-.9.9-1.3 1.8-1.3 3 .1 4.4.8 8.7 1.5 13.1.2 1 .3 1.9.5 2.9.3 1.9 1.1 3.6 2.5 4.9 3.2 3 7.3 4 11.5 4.8-.8-2.4-1.6-4.7-2.3-7.1-1.3-4.3-2.4-8.7-2.8-13.2-.1-1.6-.1-3.1.3-4.7.5-1.8 1.3-2.5 3.2-2.6 4.6-.2 9.3.3 13.9.6 5.3.4 10.6 1.1 16 1 .5.2 1 .2 1.6.1z" fill="#fae400"/><path d="m9.5 64.9c-.6-.9-1.1-1.8-1.5-2.8 1.3-.6 2.6-1.2 3.8-1.9 1.6-1 3.3-1.2 5.2-1.2 9.8.1 19.6 0 29.4 0 3.1 0 5.7.9 7.8 3.2.8.8 1.2 1.7 1.1 2.9-.1 4.4-.8 8.7-1.5 13.1-.2 1-.3 1.9-.5 2.9-.3 1.9-1.1 3.6-2.5 4.9-3.2 3-7.3 4-11.5 4.8.8-2.4 1.6-4.7 2.3-7.1 1.3-4.3 2.4-8.7 2.8-13.2.1-1.6.1-3.1-.3-4.7-.5-1.8-1.3-2.5-3.2-2.6-4.6-.2-9.3.3-13.9.6-5.3.4-10.6 1.1-16 1-.4.2-.9.2-1.5.1z" fill="#fae400"/><path d="m47.9 44.2c2.9-9.9 5.7-19.8 8.5-29.6.1 0 .2 0 .3-.1 2.9 9.9 5.9 19.8 8.8 29.7-2.9 4.8-5.8 9.6-8.8 14.7-3-5-5.9-9.8-8.8-14.7z" fill="#f9e400"/></svg>