<svg enable-background="new 0 0 113.4 113.3" viewBox="0 0 113.4 113.3" xmlns="http://www.w3.org/2000/svg"><circle cx="56.7" cy="56.8" fill="#afc910" r="55.5"/><path d="m56.8 0c31.3 0 56.6 25.5 56.6 56.8s-25.5 56.6-56.9 56.5c-31.2-.1-56.5-25.5-56.5-56.8.1-31.2 25.5-56.5 56.8-56.5z" fill="#b0ca10"/><path d="m1.9 56.6c0-30.3 24.6-54.8 55-54.7 30.2 0 54.7 24.7 54.6 55.1-.1 30.2-24.7 54.7-55 54.6-30.2-.1-54.7-24.7-54.6-55z" fill="#fff"/><path d="m56.7 96.4c-21.9 0-39.6-17.8-39.6-39.8 0-21.8 17.8-39.6 39.7-39.6s39.7 17.8 39.6 39.8c-.1 21.8-17.9 39.6-39.7 39.6z" fill="#b0ca0e"/><path d="m86.3 21c1.5-.6 2.8-1.7 4.3-2.4.5.2.9.6 1.3 1.1-1.1 2.3-2.2 4.6-3.3 6.9-.5-.4-.9-.7-1.3-1 .5-1.5 1.4-2.7 1.8-4.2-1.3.7-2.6 1.4-4 2.2-.5-.2-.8-.6-1.3-1 .4-1.3.9-2.5 1.3-3.8.1-.3-.1-.4-.3-.3-1 .7-2.1 1.5-3.2 2.3-.4-.3-.8-.6-1.3-1 2.1-1.6 4.2-3.1 6.3-4.6.5.4.9.7 1.3 1.1-.4 1.7-1.2 3.1-1.6 4.7z" fill="#b0cb11"/><path d="m46.6 13.7c-.2.5-.4 1-.8 1.4-.4-.2-.7-.3-1-.5-2.2 1.7-4.3 1.7-6 .1-1.4-1.3-1.6-3.3-.6-4.9s2.8-2.3 4.5-1.7c2.1.6 3 2.2 2.8 4.9.3.4.8.4 1.1.7z" fill="#b0cb12"/><path d="m53.6 13.1c-2.3 1.1-4.2.8-5.5-.8-1.2-1.5-1.2-3.6 0-5s3.2-1.9 4.8-1c1.9 1 2.6 2.8 1.8 5.4.1.5.6.5.9 1-.3.3-.5.7-.8 1.1-.5-.1-.7-.7-1.2-.7z" fill="#b0ca12"/><path d="m26 19.2c-.6-.7-1-1.2-1.6-1.9.3-.5.7-.8 1.2-1.1 1.6 1.9 3.3 3.7 4.9 5.6-.4.4-.8.7-1.2 1.1-.7-.8-1.4-1.6-2.2-2.4-1 .7-1.8 1.5-2.7 2.3.7.8 1.4 1.6 2.1 2.5-.4.4-.8.7-1.2 1.1-1.7-1.9-3.3-3.7-5-5.6.4-.4.8-.7 1.2-1.1.6.6 1.1 1.2 1.7 1.9 1-.9 1.9-1.6 2.8-2.4z" fill="#b0cb12"/><path d="m75.7 15.7c-.5.4-.9.7-1.4 1.1-.4-.2-.9-.5-1.6-.8 2.2-1.8 4.2-3.5 6.3-5.2.5.3 1 .5 1.6.8-.2 2.7-.3 5.3-.5 8-.6-.1-1.1-.4-1.6-.7 0-.5 0-1.1 0-1.7-.8-.6-1.8-.9-2.8-1.5z" fill="#b0cb13"/><path d="m38.4 17c-.6.3-1 .6-1.4.8-.7-.1-1-.7-1.7-.9-.8.5-1.7 1-2.6 1.5-.2.6.1 1.2 0 1.8-.4.4-.9.6-1.5.9-.3-2.7-.6-5.3-1-7.9.5-.4 1-.7 1.5-.9 2.3 1.4 4.4 3 6.7 4.7z" fill="#b0cb12"/><path d="m66.6 7.6c-.4.5-.9.5-1.3.7-1-.5-1.9-1.1-2.9-.2.2.6.6.6 1 .7s.8.1 1.1.3c1.4.4 2.2 1.3 2.2 2.4-.1 1.2-1.1 2.1-2.6 2.2-1.6.1-2.9-.4-3.9-1.8.5-.4 1-.5 1.4-.6 1.5 1.1 2.6 1.2 3.5.1-.3-.7-1-.7-1.5-.9-.4-.1-.9-.2-1.3-.4-.9-.4-1.5-1-1.4-2 .1-1.1.8-1.8 1.8-2 1.4-.2 2.8.2 3.9 1.5z" fill="#b0cb13"/><path d="m71.6 96.5c.8-.4 1.5-.7 2.2-1.1 1.7-.8 2.9-.7 3.8.3 1 1 1 2.3.1 4 .8.4 1.6.8 2.5 1.2-.2.4-.3.7-.5 1.1-1.1-.5-2.2-1-3.3-1.5-.4.2-.7.4-1.2.6.3.8.6 1.5.9 2.2-.3.3-.6.5-1.1.5-1.1-2.3-2.2-4.8-3.4-7.3z" fill="#b0cb13"/><path d="m94.2 90.9c-.2.4-.5.7-.9.9-.6-.6-1.2-1.3-1.7-1.9s-1.2-.8-1.8-.2-.5 1.2 0 1.9c.6.6 1.1 1.3 1.7 1.9-.1.4-.5.6-.7.9-.7-.4-1.1-1.1-1.6-1.7-.6-.7-1.3-1.1-2.1-.4s-.5 1.4.2 2.1c.5.5 1 1.1 1.5 1.7-.1.4-.4.6-.8.9-1.2-1.3-2.4-2.5-3.6-3.9 1.4-.6 1.8-2.6 3.7-2.3.6-2.6 2.8-3.2 4.3-1.9.5.4 1.1 1.2 1.8 2z" fill="#b0cb13"/><path d="m18.8 78.3c-.4-.2-.7-.4-.9-.6.2-2.1-.7-3.2-2.2-2.6-.3.3-.3.7-.2 1.1.1.3.2.5.3.8.8 2 .4 3.5-1.1 4-1.6.6-3.4-.6-3.9-2.5-.2-.9-.2-1.8.3-2.6.5-.1.7.3 1.1.6-.3 1-.2 2 .5 2.8.5.6 1.1.9 1.8.5s.5-1.1.3-1.7-.4-1.2-.6-1.8c-.2-1 .1-1.9 1-2.4s1.8-.4 2.6.2c1.2.8 1.7 2.6 1 4.2z" fill="#b0cb13"/><path d="m38.1 98.8c.6-.6 1 0 1.5.2-.7 1.5-1.5 3-2.2 4.6-.5-.2-1.1-.2-1.1-.9-2.1 0-3.2-.7-3.5-2.3-.3-1.4.4-2.7 1.7-3.2s2.5 0 3.6 1.6z" fill="#b0cb13"/><path d="m60.6 102.6c.3-.6.8-.5 1.4-.5.1 1.7.2 3.3.3 5-.5.1-1.1.5-1.4-.3-1.6 1.1-3.1 1.1-4.1-.1-.9-.9-1-2.5-.2-3.5.8-1.3 2.2-1.5 4-.6z" fill="#b0cb14"/><path d="m21.9 93.6c-.5-.4-.9-.7-.8-1.3-1.9-.7-2.7-1.8-2.5-3.4.2-1.3 1.3-2.3 2.7-2.3 1.5-.1 2.5.9 3 2.8.7 0 .7 0 1.2.7-1.1 1.2-2.3 2.4-3.6 3.5z" fill="#b0cb13"/><g fill="#b0cb14"><path d="m64.3 101.7c3.2-1.8 5.2-.1 5.3 4-.3.2-.7.2-1.2.2-.2-.8-.3-1.6-.5-2.4-.2-.9-.8-1.3-1.7-1.2s-1.5.7-1.4 1.7c.1.8.3 1.7.4 2.5-.4.4-.7.3-1.2.3-.5-2.7-1.1-5.4-1.6-8.1.4-.4.8-.3 1.2-.3.2 1.1.5 2.2.7 3.3z"/><path d="m18.4 81.7c2.5 1.8 2.8 4.1-1.4 6.4-.4-.2-.5-.5-.7-1 .5-.4 1.1-.8 1.7-1.2 1-.8 1.3-1.5.7-2.3s-1.6-.9-2.5-.3c-.5.4-1.1.7-1.6 1.1-.4-.2-.6-.5-.8-1 2.2-1.6 4.5-3.1 6.7-4.7.5.1.6.5.9.9-1.1.8-2 1.5-3 2.1z"/><path d="m101.7 76.3c.3 0 .4-.3.7-.2.8 1.4.5 2.8-.7 3.7-1.1.8-2.6.7-3.6-.3s-1.1-2.5-.3-3.6c.9-1.3 2.3-1.5 4-.6-.1.3-.2.7-.4 1.1 0 .8-.6 1.5-.9 2.4.7-.4.9-.8.9-1.4 0-.5-.1-.9.3-1.1z"/><path d="m85 97.1c.7.2.4.6.3 1-.4 1.2-1.5 2-2.7 2-1.3 0-2.4-.9-2.7-2.2-.3-1.2.3-2.5 1.4-3.1s2.4-.4 3.3.4c.2.2.4.5.6.8 0 .5-.5.5-.7.8-.5.8-1.4 1.1-2.1 1.7 1.1.1 1.4-.7 1.8-1.2.3-.2.6-.1.8-.2z"/><path d="m69.6 13.4c1 .3 2 .6 2.9 1 0 .5-.2 1-.5 1.5-1.5-.5-2.9-.9-4.6-1.4.7-2.4 1.4-4.7 2.1-6.9.6-.2 1 .1 1.6.3-.4 1.8-.9 3.6-1.5 5.5z"/><path d="m49.2 102.2c.4-.2.7-.3 1.1-.5.5 1.3 1.1 2.6 1.7 4 .9-1.3 1.7-2.4 2.4-3.5.5 0 .7.3 1.1.6-1.5 2.3-3.1 4.5-4.6 6.8-.5 0-.7-.3-1.1-.6.4-.6.8-1.3 1.3-1.9-.6-1.7-1.2-3.2-1.9-4.9z"/></g><path d="m30.6 94.9c-2.4 1.1-4.9 2.1-7.3 3.1-.5-.3-.4-.8-.7-1.1.7-.3 1.4-.6 2.1-.9.3-1.7.7-3.3 1-5 .4-.1.8-.1 1.2.2-.2 1.3-.5 2.5-.7 4 1.5-.3 2.6-1 3.9-1.4.4.2.4.5.5.8.1.2.1.2 0 .3z" fill="#b0cb15"/><path d="m94.8 88.7c-1.6-.1-2.7-1.4-2.7-2.9.1-1.5 1.4-2.7 2.9-2.6s2.8 1.5 2.7 3c-.1 1.4-1.3 2.6-2.9 2.5z" fill="#b0cb14"/><path d="m44.2 105.8c-.5-.1-.8-.1-1.2-.4.2-.7.5-1.5.7-2.2.3-1-.1-1.8-.9-2.1s-1.6.2-1.9 1.2c-.1.4-.2.7-.4 1.1-.1.3-.2.7-.3 1-.5.2-.8-.1-1.2-.3.5-1.6 1-3.2 1.6-5 .9.6 1.9.6 2.8.9 1.3.3 2.1 1.8 1.7 3.3-.3.8-.6 1.6-.9 2.5z" fill="#b1cb15"/><path d="m30.6 94.9c0-.1 0-.2 0-.3.5.2.5-.5.9-.6.3 0 .5.3.8.1.4-.6.8-1.3 1.3-2 .5 0 .7.3 1.1.6-.5.8-.9 1.5-1.4 2.3.3.2.6.5.9.7 0 .4-.3.7-.5 1-.4.1-.7-.4-1.2-.4-.7 1.1-1.5 2.3-2.3 3.5-.4-.1-.7-.3-1.1-.7.7-1.2 1.5-2.3 2.2-3.5-.1-.4-.5-.5-.7-.7z" fill="#b1cb16"/><path d="m95.3 79.7c.3-.4.5-.7.7-.9.4.1.7.3 1 .7-.2.3-.3.6-.5 1 1.2.8 2.4 1.5 3.6 2.2-.1.5-.3.7-.6 1.1-1.2-.7-2.4-1.4-3.6-2.2-.2.2-.4.4-.6.5-.4-.1-.6-.3-1-.5.1-.2.1-.5.2-.8-.7-.4-1.4-.9-2.1-1.3-.1-.5.3-.7.5-1.2.8.5 1.6.9 2.4 1.4z" fill="#b1cb16"/><path d="m57.2 5.8c.6-.1 1.1-.1 1.6.1v7.3c-.6.3-1.1.2-1.6.1 0-2.6 0-5 0-7.5z" fill="#b1cb16"/><path d="m46.1 106.1c.3-1.6.6-3.2.9-4.7.5-.3.9-.1 1.3.1-.3 1.7-.7 3.3-1 4.9-.5 0-.8 0-1.2-.3z" fill="#b2cb1c"/><path d="m85 97.1c-.4.1-.7.2-.9.7-.4 1.1-1.2 1.3-2.4.8.9-.7 1.8-1.3 2.7-1.7.2.1.4.1.6.2z" fill="#fafbf2"/><path d="m47.4 100.4c-.4-.4-.3-.8-.2-1.2.4-.5.9-.6 1.4-.2.3.3.4.7.2 1.1-.4.6-.9.6-1.4.3z" fill="#b1cb19"/><path d="m101.7 76.3c-.2.3 0 .6 0 .9.1 1.1-.3 1.6-1.7 1.9.4-1 .8-1.9 1.4-2.8z" fill="#fcfcf6"/><path d="m84.9 18.6c.1-.2.2-.3.3-.5.4.4.2.6 0 .8-.1-.1-.2-.2-.3-.3z" fill="#ecf1d1"/><path d="m85.9 56.7c-.6 1.1-26.8 34.4-28.8 36.6-.9.4-1.2-.4-1.6-.9-4.4-5.5-8.8-11.1-13.2-16.7-4.7-5.9-9.4-11.8-14.1-17.8-.3-.3-.6-.6-.7-1.3 9.5-12.1 19.2-24.3 28.8-36.5.9-.2 1.1.5 1.4.9 7.8 9.8 15.5 19.6 23.3 29.4 1.7 2.1 3.3 4.2 4.9 6.3z" fill="#fff"/><path d="m89.1 21.5c0-.1.1-.1.1-.2.1.2 0 .2-.1.2z" fill="#dde69f"/><path d="m86.3 21s0 .1 0 0z" fill="#d2de7f"/><path d="m43.9 12.2c-.6-.3-1.1-.5-1.6-.7-.4.4-.5.8-.8 1.4.5.3.9.5 1.4.8-.9.7-1.8.8-2.7.1s-1.2-1.8-.7-2.8c.4-.9 1.5-1.5 2.5-1.4 1.2.2 1.8 1 1.9 2.6z" fill="#fefefe"/><path d="m53.3 10.5c-.3-.2-.5-.4-.7-.5-.2-.2-.4-.3-.7-.5-.3.4-.7.8-1 1.2.4.4.8.7 1.2 1.1-.9.6-1.9.4-2.6-.4-.8-.8-.8-2.1-.2-3 .7-.9 1.9-1.2 2.9-.7 1.1.5 1.5 1.5 1.1 2.8z" fill="#fefefd"/><path d="m78.6 15.3c-.6-.2-1.1-.4-1.4-.7.3-.6.9-.8 1.4-1.3.2.7 0 1.3 0 2z" fill="#fcfdf9"/><path d="m32.1 14.4c.7.5 1.2.9 1.8 1.3-.3.5-.9.6-1.4 1-.1-.7-.2-1.4-.4-2.3z" fill="#fafbf2"/><path d="m74.6 100c-.5-1-.9-1.9-1.3-2.8 1-.4 1.9-1.3 3.1-.7.6.3.8.9.7 1.5-.1 1.3-1.4 1.4-2.5 2z" fill="#fefefd"/><path d="m35.4 98.3c.8 0 1.5.7 1.4 1.5-.1.9-.6 1.5-1.5 1.5s-1.4-.5-1.5-1.4c0-.8.8-1.6 1.6-1.6z" fill="#fefefd"/><path d="m60.2 104.7c0 1-.7 1.7-1.6 1.6s-1.4-.6-1.4-1.5c0-.8.7-1.5 1.6-1.5.9.1 1.4.6 1.4 1.4z" fill="#fefefd"/><path d="m23 89.5c-.1.8-.5 1.4-1.4 1.5-.8.1-1.6-.6-1.6-1.5s.5-1.5 1.4-1.5c.8-.1 1.5.6 1.6 1.5z" fill="#fefefe"/><path d="m100.3 75.8c-.5.9-.8 1.8-1.3 2.6-1-1.2-.5-2.2 1.3-2.6z" fill="#fcfcf7"/><path d="m83.5 96c-.8.5-1.6 1-2.4 1.5-.1-1.6 1-2.2 2.4-1.5z" fill="#fcfdf7"/><path d="m96.4 86.1c0 .8-.6 1.3-1.4 1.3-.8.1-1.6-.7-1.6-1.5 0-.9.5-1.4 1.5-1.5.8 0 1.5.7 1.5 1.7z" fill="#fefefd"/><path d="m56.7 21.6v70.3c-9.4-11.8-18.6-23.4-27.8-35.1 9.2-11.6 18.4-23.3 27.8-35.2z" fill="#b0ca0e"/><path d="m62.2 50.5c-1.4-1.1-2.8-2.2-4.3-3.4 2-.1 3.7-.2 5.5-.2.6-1.7 1.2-3.3 1.9-5.2.7 1.8 1.3 3.5 1.9 5.2 1.7.1 3.5.2 5.5.2-1.5 1.2-2.9 2.3-4.3 3.4.5 1.7 1 3.4 1.6 5.3-1.7-1.1-3.1-2.1-4.6-3.1-1.5 1-3 2-4.6 3.1.4-1.9.9-3.6 1.4-5.3z" fill="#b0cb0f"/><path d="m68.3 64.5c.5 1.7 1 3.4 1.6 5.4-1.6-1.1-3.1-2.1-4.6-3.1-1.5 1-2.9 2-4.6 3.1.5-1.9 1-3.6 1.5-5.3-1.4-1.1-2.7-2.1-4.3-3.4 2-.1 3.7-.2 5.5-.3.6-1.7 1.2-3.3 1.9-5.2.7 1.8 1.3 3.5 1.9 5.3h5.2c0 .1.1.2.1.3-1.4 1-2.8 2.1-4.2 3.2z" fill="#b0cb0f"/><path d="m51 50.5c.5 1.8 1 3.4 1.6 5.3-1.6-1.1-3.1-2.1-4.6-3.1-1.5 1-2.9 2-4.6 3.1.5-1.9 1-3.6 1.5-5.3-1.4-1.1-2.8-2.1-4.4-3.4 2-.1 3.7-.2 5.5-.2.6-1.6 1.2-3.3 1.9-5.2.7 1.8 1.2 3.5 1.9 5.2 1.7.1 3.5.2 5.5.3-1.5 1.1-2.9 2.2-4.3 3.3z" fill="#fff"/><path d="m43.3 69.9c.6-1.9 1-3.6 1.6-5.3-1.4-1.1-2.8-2.1-4.3-3.4 2-.1 3.7-.2 5.5-.3.6-1.7 1.2-3.4 1.9-5.2.7 1.8 1.3 3.5 1.9 5.2 1.8.1 3.5.2 5.5.2-1.5 1.2-2.9 2.2-4.3 3.4.5 1.7 1 3.4 1.5 5.3-1.6-1.1-3.1-2.1-4.6-3.1-1.5 1-3 2-4.7 3.2z" fill="#fff"/></svg>