<?xml version="1.0" encoding="UTF-8"?>
<svg id="uuid-0ae0a15d-a4dc-41a1-8644-586b40a901c6" data-name="Capa 1" xmlns="http://www.w3.org/2000/svg" viewBox="0 0 566.93 566.93">
  <defs>
    <style>
      .uuid-a94bef18-0d64-4dba-a614-de5183ac9148 {
        fill: #fefdfc;
      }

      .uuid-4e3c48af-560b-4915-8c2e-582ba632ca0d {
        fill: #fefefe;
      }

      .uuid-80ea2a75-1b29-489b-a6ca-48548f4fc721 {
        fill: #fffdfc;
      }

      .uuid-2a8b3de7-f843-4d8c-9d46-1743e39dcc6f {
        fill: none;
      }

      .uuid-ec7804c8-6bd4-4059-8134-74e8b362c252 {
        fill: #fefcfc;
      }

      .uuid-ccd67d40-5338-4027-b263-14184b91b9a2 {
        fill: #fefdfd;
      }

      .uuid-da97e961-98c4-4988-b838-01c966f9e699 {
        fill: #e73731;
      }

      .uuid-20900099-6de0-4c2a-a43b-527048d2d807 {
        fill: #010101;
      }

      .uuid-31fab551-7d86-47c1-9f04-1ae239d17007 {
        fill: #fefefd;
      }
    </style>
  </defs>
  <g>
    <circle class="uuid-da97e961-98c4-4988-b838-01c966f9e699" cx="283.46" cy="283.46" r="279.21"/>
    <circle class="uuid-20900099-6de0-4c2a-a43b-527048d2d807" cx="283.46" cy="283.46" r="268.87"/>
    <circle class="uuid-da97e961-98c4-4988-b838-01c966f9e699" cx="283.46" cy="283.46" r="261.98"/>
    <circle class="uuid-20900099-6de0-4c2a-a43b-527048d2d807" cx="283.46" cy="283.46" r="178.35"/>
    <circle class="uuid-da97e961-98c4-4988-b838-01c966f9e699" cx="283.46" cy="283.46" r="171.36"/>
    <circle class="uuid-20900099-6de0-4c2a-a43b-527048d2d807" cx="284.77" cy="283.31" r="165.72"/>
    <g>
      <circle class="uuid-2a8b3de7-f843-4d8c-9d46-1743e39dcc6f" cx="282.37" cy="285.24" r="241.59"/>
      <path class="uuid-80ea2a75-1b29-489b-a6ca-48548f4fc721" d="M125.63,421.97l10.27,10.39c3.01,3.05,4.23,6.38,3.67,10.01-.56,3.63-2.74,7.31-6.52,11.05-2.29,2.26-4.64,3.96-7.06,5.11-2.42,1.15-4.7,1.68-6.85,1.57-1.5-.08-2.93-.54-4.28-1.37-1.35-.83-2.73-1.97-4.16-3.41l-9.31-9.42,24.23-23.94ZM114.46,450.01c1.17,1.19,2.33,2.1,3.45,2.74,1.12.64,2.28.96,3.46.97,1.18,0,2.42-.33,3.72-1.02,1.3-.69,2.7-1.77,4.2-3.26,2.47-2.44,3.91-4.74,4.32-6.9.41-2.16-.27-4.12-2.02-5.89l-6.59-6.67-15.35,15.17,4.79,4.85Z"/>
      <path class="uuid-80ea2a75-1b29-489b-a6ca-48548f4fc721" d="M148.69,444.08l4.09,3.34-21.56,26.36-4.09-3.34,21.56-26.36Z"/>
      <path class="uuid-80ea2a75-1b29-489b-a6ca-48548f4fc721" d="M153.29,448.46l4.98,3.39-6.24,25.53,21.09-15.43,4.37,2.97-29.49,21.13-3.02-2.05,8.31-35.53Z"/>
      <path class="uuid-80ea2a75-1b29-489b-a6ca-48548f4fc721" d="M178.63,465.01l4.61,2.58-16.63,29.72-4.61-2.58,16.63-29.72Z"/>
      <path class="uuid-80ea2a75-1b29-489b-a6ca-48548f4fc721" d="M188.48,470.8l3.32,1.42,6.76,24.74c.2.71.39,1.42.54,2.14.16.71.28,1.48.38,2.28.5-1.32.93-2.44,1.28-3.37.35-.93.63-1.63.84-2.12l7.06-16.44,4.37,1.88-13.44,31.29-3.32-1.42-7.02-25.92c-.12-.53-.24-1.06-.35-1.59-.11-.53-.21-1.09-.3-1.71-.44,1.25-.83,2.29-1.15,3.13-.33.84-.59,1.48-.78,1.93l-7.26,16.92-4.37-1.87,13.43-31.29Z"/>
      <path class="uuid-80ea2a75-1b29-489b-a6ca-48548f4fc721" d="M218.71,483.11l22.45,5.98-1.5,5.61-17.35-4.62-1.95,7.33,10.12,2.7-1.49,5.61-10.12-2.7-2.17,8.16,17.56,4.68-1.65,6.19-22.66-6.04,8.76-32.91Z"/>
      <path class="uuid-80ea2a75-1b29-489b-a6ca-48548f4fc721" d="M257.35,491.85l4.26.21,9.66,21.09,11.48-20.05,4.22.21-1.68,34.01-4.88-.24,1.04-21.03c.02-.35.05-.82.11-1.42.06-.59.14-1.33.24-2.2-.27.74-.53,1.41-.78,2.01-.25.6-.49,1.1-.71,1.48l-9.37,16.58-1.06-.05-7.68-17.5c-.24-.54-.46-1.1-.66-1.69-.21-.58-.38-1.21-.52-1.88.02,1.41,0,2.62-.05,3.63l-1.04,21.03-4.26-.21,1.68-34.01Z"/>
      <path class="uuid-80ea2a75-1b29-489b-a6ca-48548f4fc721" d="M300.88,491.99l5.08-.53,16.46,32.53-5.91.61-3.48-7.14-14.31,1.48-1.86,7.69-5.25.54,9.27-35.2ZM310.21,511.6l-6.29-13.28-3.6,14.31,9.89-1.02Z"/>
      <path class="uuid-80ea2a75-1b29-489b-a6ca-48548f4fc721" d="M326.71,494.32l5.18,20.95,13.84-3.42-1.76-7.11,5.52.34.96,3.91c.38,1.54.6,2.84.67,3.91.07,1.07-.04,1.95-.32,2.63-.29.68-.75,1.23-1.39,1.63-.64.41-1.47.74-2.5.99l-13.16,3.25c-1.03.25-1.92.35-2.67.29-.75-.06-1.42-.33-1.99-.8-.57-.47-1.07-1.2-1.51-2.18-.44-.98-.85-2.24-1.23-3.78l-4.31-17.43c-.38-1.54-.6-2.84-.67-3.91-.07-1.07.04-1.95.32-2.63.29-.68.75-1.23,1.39-1.63.64-.41,1.47-.74,2.5-.99l13.16-3.25c1.03-.25,1.92-.35,2.67-.29.75.06,1.42.33,1.99.8.57.47,1.07,1.2,1.51,2.18.44.98.85,2.24,1.23,3.78l.78,3.14-4.83,2.48-1.55-6.28-13.84,3.42Z"/>
      <path class="uuid-80ea2a75-1b29-489b-a6ca-48548f4fc721" d="M349.27,482.16l4.88-2.02,5.04,12.2,15.25-6.3-5.04-12.2,4.92-2.03,13.01,31.47-4.92,2.03-5.6-13.54-15.25,6.3,5.6,13.54-4.88,2.02-13.01-31.47Z"/>
      <path class="uuid-80ea2a75-1b29-489b-a6ca-48548f4fc721" d="M379.74,468.57l4.63-2.53,16.32,29.89-4.63,2.53-16.32-29.89Z"/>
      <path class="uuid-80ea2a75-1b29-489b-a6ca-48548f4fc721" d="M390,463.24l2.96-2.06,24.56,7.37c.71.2,1.41.43,2.1.67.69.25,1.4.54,2.14.88-.85-1.12-1.58-2.08-2.18-2.87-.6-.79-1.05-1.4-1.35-1.83l-10.2-14.69,3.9-2.71,19.43,27.97-2.96,2.06-25.71-7.78c-.52-.18-1.03-.36-1.53-.54s-1.04-.4-1.61-.65c.83,1.03,1.51,1.91,2.05,2.64s.95,1.29,1.22,1.68l10.51,15.12-3.9,2.71-19.43-27.97Z"/>
      <path class="uuid-80ea2a75-1b29-489b-a6ca-48548f4fc721" d="M416.44,444.11l16.95-15.89,3.97,4.24-13.1,12.28,5.19,5.54,7.64-7.16,3.97,4.24-7.64,7.16,5.78,6.16,13.26-12.43,4.38,4.67-17.11,16.04-23.29-24.85Z"/>
    </g>
    <g>
      <g>
        <path class="uuid-4e3c48af-560b-4915-8c2e-582ba632ca0d" d="M79.14,199.67c-11.12-29.6,3.96-58.31,17.02-67.59-.65,24.15-2.37,47.12-17.02,67.59Z"/>
        <path class="uuid-ccd67d40-5338-4027-b263-14184b91b9a2" d="M64.6,254.94c-17.24-22.68-12.86-54.14-1.24-69.59,5.53,23.58,10.13,46.27,1.24,69.59Z"/>
        <path class="uuid-31fab551-7d86-47c1-9f04-1ae239d17007" d="M64.73,312.15c-20.85-15.63-26.96-45.74-19.14-66.87,11.23,21.56,21.79,42.1,19.14,66.87Z"/>
        <path class="uuid-4e3c48af-560b-4915-8c2e-582ba632ca0d" d="M44.39,308.48c16.18,17.51,31.62,34.72,35.29,59.26-22.64-10.12-40.63-39.77-35.29-59.26Z"/>
        <path class="uuid-ccd67d40-5338-4027-b263-14184b91b9a2" d="M106.84,154.14c-1.44-16.33,11.62-37.07,28.75-45.64,2,16.01-14.69,42.5-28.75,45.64Z"/>
        <path class="uuid-a94bef18-0d64-4dba-a614-de5183ac9148" d="M134.22,157.23c-11.12,16.55-24.03,28.37-42.97,34.16,5.78-18.43,24.68-33.71,42.97-34.16Z"/>
        <path class="uuid-ccd67d40-5338-4027-b263-14184b91b9a2" d="M89.79,249.31c3.37,12.8-7.36,40.82-18.76,48.99-4.47-16.67,4.73-40.71,18.76-48.99Z"/>
        <path class="uuid-ccd67d40-5338-4027-b263-14184b91b9a2" d="M87.72,300.13c6.42,12.62,3.1,42.41-5.58,52.46-8.5-16.04-6.23-38.62,5.58-52.46Z"/>
        <path class="uuid-a94bef18-0d64-4dba-a614-de5183ac9148" d="M105.13,200.35c-.43,13.91-17.78,37.63-30.86,42.7-.49-16.54,14.02-36.81,30.86-42.7Z"/>
      </g>
      <g>
        <path class="uuid-4e3c48af-560b-4915-8c2e-582ba632ca0d" d="M487.57,199.35c-10.92-14.14-19.94-50.79-16.35-66.43,16.15,6.97,25.11,43.37,16.35,66.43Z"/>
        <path class="uuid-31fab551-7d86-47c1-9f04-1ae239d17007" d="M503.37,185.09c11.81,15.85,15.94,47.53-1.18,69.67-8.89-23.03-4.27-45.75,1.18-69.67Z"/>
        <path class="uuid-4e3c48af-560b-4915-8c2e-582ba632ca0d" d="M521.07,245.69c6.89,13.96,5.3,46.97-18.98,66.81-2.51-24.94,7.6-45.76,18.98-66.81Z"/>
        <path class="uuid-ccd67d40-5338-4027-b263-14184b91b9a2" d="M487.06,367.69c3.81-24.59,19.21-41.93,35.44-59.4,3.37,15.81-7.81,47.74-35.44,59.4Z"/>
        <path class="uuid-ccd67d40-5338-4027-b263-14184b91b9a2" d="M430.77,108.55c15.75,5.76,30.73,29.17,29.17,45.57-14.05-3.33-28.53-25.95-29.17-45.57Z"/>
        <path class="uuid-ec7804c8-6bd4-4059-8134-74e8b362c252" d="M434.25,157.27c15.99-.1,34.85,14.99,41.03,32.81-12.86-.13-37.45-19.79-41.03-32.81Z"/>
        <path class="uuid-ccd67d40-5338-4027-b263-14184b91b9a2" d="M476.98,249.25c14.09,8.27,22.51,29.83,19.05,48.78-10.88-6.25-22.32-35.54-19.05-48.78Z"/>
        <path class="uuid-a94bef18-0d64-4dba-a614-de5183ac9148" d="M461.85,200.51c15.48,4.26,30.09,24.31,30.82,42.31-12.8-4.14-31.33-29.58-30.82-42.31Z"/>
        <path class="uuid-ccd67d40-5338-4027-b263-14184b91b9a2" d="M479.11,300.05c11.38,13.65,13.38,31.61,6.14,52.49-9.02-7.54-12.92-39.44-6.14-52.49Z"/>
      </g>
    </g>
    <g>
      <circle class="uuid-2a8b3de7-f843-4d8c-9d46-1743e39dcc6f" cx="282.37" cy="285.24" r="197.96"/>
      <path class="uuid-80ea2a75-1b29-489b-a6ca-48548f4fc721" d="M216.67,78.9l-2.45,5.17c-2.44-2.29-4.51-3.98-6.2-5.1l6.66,22.9-5.21,1.51-5.97-20.54c-.95,1.88-2.24,4.12-3.86,6.71l-4.48-3.7c4.77-6.78,7.71-13.93,8.81-21.46l-12.61,3.67-1.46-5.03,18.41-5.35,1.46,5.03c-.33,2.71-1.03,5.99-2.11,9.86,4.05,2.52,7.05,4.64,9,6.34ZM203.03,55.27l-4,3.92c-1.28-1.3-3.75-3.12-7.43-5.48l3.81-4.12c2.97,1.9,5.51,3.79,7.62,5.68ZM249.15,77.8l-11.87,3.45,3.77,12.96-5.47,1.59-3.77-12.96-11.81,3.43-9.33-32.11,11.81-3.43-2.17-7.46,5.47-1.59,2.17,7.46,11.87-3.45,9.33,32.11ZM226.4,64.23l-2.48-8.52-6.6,1.92,2.48,8.52,6.6-1.92ZM230.36,77.87l-2.59-8.91-6.6,1.92,2.59,8.91,6.6-1.92ZM238.41,60.74l-2.48-8.52-6.54,1.9,2.48,8.52,6.54-1.9ZM242.38,74.38l-2.59-8.91-6.54,1.9,2.59,8.91,6.54-1.9Z"/>
      <path class="uuid-80ea2a75-1b29-489b-a6ca-48548f4fc721" d="M269.58,61.94l-3.23,3.12c-1.01-2.21-1.83-3.8-2.46-4.78l.38,30.63-5.3.07-.35-27.86c-1.15,4.82-2.61,8.87-4.38,12.14l-2.55-6.59c2.49-4.92,4.41-10.61,5.77-17.05l-5.36.07-.07-5.3,6.38-.08-.13-10.75,5.3-.07.13,10.75,4.16-.05.07,5.3-4.16.05v.99c2.71,3.67,4.64,6.81,5.8,9.42ZM308.14,79.76c-1.04,7.35-3.29,11.04-6.76,11.09-2.43.03-5.23-2.13-8.4-6.49-5.09,3.29-9.22,5.51-12.37,6.66l-3.14-4.71c5.71-2.23,9.97-4.45,12.8-6.66-1.22-2.55-2.25-5.71-3.08-9.48l-9.03.11-.04,1.51c3.96,2.64,6.63,4.63,8.03,5.97l-3.37,4.45c-1.12-1.26-2.87-2.77-5.23-4.53-1.27,5.56-3.58,10.13-6.95,13.71l-4.6-3.02c4.43-4.33,6.67-10.34,6.74-18.02l-5.36.07-.06-5.18,18.86-.24c-.97-7.24-1.68-17.17-2.13-29.78l5.24-.07c.27,11.42.98,21.35,2.13,29.78l3.73-.05c-.13-.59-.48-1.24-1.04-1.93l5.84-1.27c.46.71,1.05,1.75,1.77,3.12l5.49-.07.06,5.18-14.7.18c.31,1.89.92,3.88,1.83,5.99,1.58-1.52,3.03-3.31,4.34-5.36l4.84,2.37c-2.04,3.13-4.23,5.74-6.59,7.85,1.92,2.58,3.19,3.87,3.81,3.87,1.15-.02,1.91-2.65,2.27-7.92l5.09,2.86ZM284.81,62.49l-3.96,1.07c-.16-1.46-.37-2.57-.63-3.35-3.46.64-6.65,1.12-9.57,1.45l-1.38-4.45c1.28-1.37,2.97-3.64,5.09-6.81-1.91.19-3.44.29-4.59.3l-1.07-4.02c2.24-3.15,3.92-6.92,5.04-11.31l4.86,1.48c-1.8,4.32-3.27,7.27-4.42,8.87.88.05,1.89-.04,3.02-.28.4-.68,1.08-2.08,2.04-4.19l4.31,2.23c-2.57,5.05-5.52,9.48-8.86,13.3,1.35-.08,2.83-.27,4.43-.58-.13-.84-.42-1.72-.87-2.64l3.77-1.37c1.49,4.28,2.42,7.72,2.78,10.32ZM307.27,61.9l-3.83,1.31-.66-3.54c-3.67.56-6.95,1.02-9.84,1.39l-1.5-4.39c1.26-1.17,2.96-3.31,5.1-6.44-1.6.27-3.18.49-4.74.67l-.86-4.52c2.22-3.13,4.1-6.88,5.65-11.26l4.71,1.67c-1.06,2.68-2.76,5.8-5.12,9.34,1.23-.1,2.32-.25,3.26-.47,1.01-1.74,1.79-3.19,2.35-4.34l4.49,1.67c-2.08,4.22-5.03,8.63-8.83,13.24.88-.05,2.25-.22,4.09-.51-.2-.82-.46-1.58-.8-2.27l3.84-1.28c1.29,3.25,2.2,6.5,2.71,9.74Z"/>
      <path class="uuid-80ea2a75-1b29-489b-a6ca-48548f4fc721" d="M355.25,103.09l-5.3-1.4.5-1.88-35.22-9.31-.5,1.88-5.36-1.42,3.77-14.27,17.82,4.71c.74-.63,1.44-1.38,2.09-2.25l-13.85-3.66,2.76-10.43,34.59,9.15-2.76,10.43-14.45-3.82c-.61.79-1.31,1.55-2.09,2.25l21.78,5.76-3.77,14.27ZM364.78,78.61l-5.42-1.43,1.25-4.71-40.76-10.78-1.25,4.71-5.24-1.39,2.44-9.24,51.42,13.6-2.44,9.24ZM351.52,95.73l1.1-4.14-35.22-9.31-1.1,4.14,35.22,9.31ZM344.26,48.09c-3.36.81-6.91,1.26-10.66,1.36l-.31.46c3.21,2.34,6.04,4.77,8.49,7.31l-3.74,3.06c-2.1-2.28-4.73-4.6-7.88-6.96-2.98,1.78-6.59,2.66-10.83,2.62l-1.62-5.21c4.26.3,7.41-.23,9.45-1.57,2.04-1.34,3.71-4.46,5.01-9.37l5.01,1.32c-.5,1.55-.94,2.8-1.35,3.76,2.4-.13,4.65-.51,6.77-1.14l1.65,4.36ZM327.91,46.99l-4.72,1.08c-.44-2.67-1.27-5.25-2.47-7.76l4.71-1.18c1.26,2.71,2.08,5.33,2.48,7.86ZM349.77,79.33l.65-2.44-24.4-6.45-.65,2.44,24.4,6.45ZM368.71,65.08l-3.91,3.08c-2.34-2.38-5.5-4.98-9.48-7.8-3.18,1.82-7.04,2.5-11.57,2.04l-.96-5.04c4.45.43,7.63,0,9.54-1.29,1.9-1.29,3.52-4.44,4.84-9.45l4.91,1.43c-.18.93-.58,2.21-1.21,3.86,2.26-.12,4.8-.63,7.61-1.53l1.79,4.33c-4.55,1.2-8.34,1.81-11.39,1.83l-.47.45c4.06,2.67,7.49,5.36,10.3,8.08ZM352.99,54.13l-4.77.81c-.19-2.58-.8-5.2-1.84-7.85l4.76-.75c1.04,2.57,1.66,5.17,1.86,7.79Z"/>
    </g>
  </g>
  <g>
    <path class="uuid-ccd67d40-5338-4027-b263-14184b91b9a2" d="M335.98,372.35c-1.14,0-9.35-5.79-9.35-5.79v23.91l-41.03,23.88-40.27-23.88v-72.79c10.02-3.99,17.11-13.77,17.11-25.21,0-14.98-12.15-27.13-27.13-27.13s-27.13,12.15-27.13,27.13c0,10.71,6.21,19.97,15.22,24.38h0s0,85.42,0,85.42l62.2,36.23,59.72-35.4v-36.49s-8.02,5.74-9.34,5.74ZM218.85,290.93l16.45-16.45,16.45,16.45-16.45,16.45-16.45-16.45Z"/>
    <path class="uuid-ccd67d40-5338-4027-b263-14184b91b9a2" d="M181.46,280.7c.55-.99,9.6-5.36,9.6-5.36l-20.9-11.61-.95-47.46,40.43-23.61,63.64,35.35c-1.38,10.7,3.73,21.64,13.73,27.2,13.1,7.28,29.62,2.56,36.89-10.54,7.28-13.1,2.56-29.62-10.54-36.89-9.36-5.2-20.47-4.27-28.71,1.47h0s-74.68-41.49-74.68-41.49l-61.88,36.78,1.95,69.39,31.9,17.72s-1.12-9.8-.48-10.95ZM309.5,217.85l6.39,22.37-22.37,6.39-6.39-22.37,22.37-6.39Z"/>
    <path class="uuid-ccd67d40-5338-4027-b263-14184b91b9a2" d="M337.59,192.62c.58.98-.22,11-.22,11l20.58-12.17,41.44,23.16-.06,46.81-62.66,37.05c-8.53-6.6-20.56-7.72-30.41-1.89-12.9,7.63-17.17,24.27-9.54,37.16,7.63,12.9,24.27,17.17,37.16,9.54,9.22-5.45,14.03-15.51,13.24-25.51h0s73.53-43.48,73.53-43.48l-.48-71.98-60.87-33.38-31.41,18.57s9.02,3.98,9.69,5.11ZM327.12,334.88l-22.53-5.79,5.79-22.53,22.53,5.79-5.79,22.53Z"/>
  </g>
</svg>