<?xml version="1.0" encoding="UTF-8"?>
<svg xmlns="http://www.w3.org/2000/svg" viewBox="0 0 566.93 566.93">
  <defs>
    <style>
      .cls-1 {
        fill: #ef7e07;
      }

      .cls-2 {
        fill: #fff;
      }

      .cls-3 {
        fill: none;
      }

      .cls-4 {
        fill: #1c1c1b;
      }
    </style>
  </defs>
  <g id="Capa_1" data-name="Capa 1">
    <circle cx="283.46" cy="283.46" r="279.21"/>
    <circle class="cls-1" cx="283.46" cy="283.46" r="268.58"/>
    <g>
      <circle class="cls-3" cx="283.46" cy="283.46" r="219.01"/>
      <path class="cls-2" d="M65.99,352.03c5-2.07,9.48,1.69,13.43,11.26l7.91,19.17c.66,1.61.35,2.67-.94,3.21-1.29.53-2.27,0-2.93-1.61l-7.91-19.17c-2.53-6.14-5.1-8.67-7.72-7.59l-3.35,1.38c-2.55,1.05-2.62,4.49-.22,10.31l3.68,8.92c3.54,8.59,2.99,13.85-1.67,15.77l-3.45,1.42c-4.85,2-9.09-1.41-12.72-10.22l-2.18-5.29c-.65-1.57-.33-2.63.96-3.16,1.29-.53,2.26-.01,2.91,1.56l2.16,5.24c2.25,5.45,4.57,7.68,6.96,6.69l2.93-1.21c2.33-.96,2.43-4.02.3-9.18l-3.54-8.59c-3.92-9.51-3.4-15.29,1.58-17.34l3.82-1.58Z"/>
      <path class="cls-2" d="M49.92,308.88l5.37,30.59,13.28-2.33c1.41-.25,2.28.55,2.6,2.4.31,1.78-.24,2.79-1.64,3.04l-31.09,5.45c-1.41.25-2.28-.57-2.61-2.45-.3-1.74.25-2.74,1.65-2.99l13.68-2.4-5.37-30.59-13.73,2.41c-1.37.24-2.22-.53-2.53-2.3-.32-1.84.2-2.89,1.58-3.13l31.14-5.46c1.41-.25,2.28.55,2.6,2.4.31,1.78-.24,2.79-1.64,3.04l-13.28,2.33Z"/>
      <path class="cls-2" d="M31.14,292.68c-1.43.04-2.17-.9-2.22-2.8-.04-1.77.65-2.67,2.08-2.71l31.56-.79c1.43-.04,2.17.88,2.21,2.75.05,1.8-.65,2.72-2.08,2.76l-31.56.79Z"/>
      <path class="cls-2" d="M38.09,274.63c-6.29-.7-8.9-5.92-7.83-15.67l.66-5.99c.19-1.69.97-2.46,2.36-2.31,1.39.15,1.99,1.08,1.8,2.77l-.66,5.94c-.68,6.13.78,9.39,4.36,9.78l6.14.68,3.33-30.1c.18-1.66.97-2.41,2.36-2.26,1.39.15,1.99,1.06,1.81,2.72l-3.33,30.1,13.4,1.48c1.42.16,2.03,1.15,1.83,2.98-.2,1.83-1.01,2.66-2.43,2.51l-23.81-2.63Z"/>
      <path class="cls-2" d="M40.42,224.07l-3.45,13.51c-.42,1.65-1.31,2.3-2.66,1.96-1.35-.35-1.82-1.34-1.4-2.99l8.25-32.32c.43-1.68,1.31-2.35,2.62-2.02,1.39.35,1.86,1.37,1.43,3.06l-3.44,13.46,28.36,7.24c1.39.35,1.86,1.41,1.41,3.15-.46,1.82-1.39,2.54-2.77,2.19l-28.36-7.24Z"/>
      <path class="cls-2" d="M79.56,179.49l-10.38,23.61,5.41,8.13c.64.99.74,2,.29,3.03-.34.78-.78,1.33-1.31,1.65-.53.32-1.11.35-1.73.07-.25-.11-.46-.24-.64-.39-.17-.15-.37-.4-.59-.76l-20.05-30.91c-.31-.47-.46-.98-.45-1.51.01-.53.12-1.07.32-1.62.48-1.09,1.26-1.73,2.35-1.92l36.31-6.18c.42-.11.76-.16,1.01-.14.25.02.5.08.75.19.62.27,1,.72,1.12,1.33s.01,1.31-.33,2.09c-.44,1-1.24,1.59-2.41,1.79l-9.67,1.55ZM66.6,199.18l8.35-18.98-18.97,3.04,10.62,15.94Z"/>
    </g>
    <g>
      <circle class="cls-3" cx="283.46" cy="283.46" r="250.81"/>
      <path class="cls-2" d="M453.06,468.36c-7.4,6.96-13.38,8.01-17.94,3.16l-11.08-11.78c-4.49-4.77-3.09-10.58,4.18-17.42l14.51-13.64c1.26-1.19,2.38-1.26,3.35-.23.97,1.04.83,2.15-.43,3.33l-14.44,13.57c-4.6,4.32-5.6,7.86-3.01,10.61l10.9,11.59c2.68,2.86,6.42,2.03,11.22-2.48l14.13-13.28c1.26-1.19,2.38-1.26,3.35-.23.97,1.04.83,2.15-.43,3.33l-14.32,13.46Z"/>
      <path class="cls-2" d="M487.04,430.11c-5.75,8.38-11.36,10.68-16.85,6.92l-13.25-9.09c-5.46-3.75-5.37-9.73.28-17.97l6.56-9.56c5.65-8.24,11.2-10.48,16.66-6.73l13.25,9.09c5.49,3.77,5.36,9.84-.38,18.21l-6.26,9.13ZM477.34,398.37c-3.17-2.18-6.54-.66-10.11,4.54l-6.44,9.39c-3.57,5.2-3.77,8.89-.59,11.07l13.04,8.94c3.23,2.22,6.65.69,10.26-4.57l6.32-9.22c3.61-5.26,3.8-9,.57-11.21l-13.04-8.94Z"/>
      <path class="cls-2" d="M498.07,384.56l11.31,4.48c1.35.54,1.68,1.69.98,3.46-.68,1.71-1.69,2.3-3.04,1.76l-29.98-11.86c-1.13-.45-1.4-1.41-.81-2.89l8.99-22.73c3.97-10.02,8.69-13.95,14.17-11.79l3.58,1.42c5.38,2.13,6.09,8.21,2.12,18.23l-4.57,11.56,18.74-18.53c.8-.8,1.62-1.04,2.46-.71.64.26,1.06.69,1.25,1.3.19.61.11,1.34-.22,2.18-.14.36-.29.64-.45.86-.16.21-.41.48-.76.79l-23.77,22.47ZM493.91,382.91l7.86-19.87c2.55-6.45,2.36-10.25-.57-11.41l-3.48-1.38c-2.9-1.15-5.62,1.49-8.16,7.9l-7.73,19.53c-.1.26-.04.43.18.52l11.9,4.71Z"/>
      <path class="cls-2" d="M515.46,333.27l12.04,1.78c1.44.21,2.02,1.26,1.74,3.15-.27,1.82-1.12,2.62-2.56,2.41l-31.89-4.71c-1.2-.18-1.68-1.05-1.45-2.63l3.57-24.18c1.57-10.67,5.28-15.57,11.11-14.71l3.81.56c5.73.85,7.8,6.6,6.23,17.27l-1.81,12.3,14.02-22.32c.6-.96,1.34-1.38,2.23-1.25.69.1,1.19.43,1.51.99s.42,1.28.28,2.17c-.06.38-.14.69-.24.94-.11.25-.29.56-.56.94l-18.01,27.3ZM511.04,332.62l3.12-21.14c1.01-6.86-.04-10.52-3.16-10.98l-3.7-.55c-3.09-.46-5.13,2.73-6.14,9.55l-3.07,20.78c-.04.28.06.43.3.46l12.66,1.87Z"/>
      <path class="cls-2" d="M533.91,268.96c.76,10.13-2.19,15.44-8.82,15.94l-16.13,1.2c-6.53.49-10.17-4.25-10.91-14.2l-.55-7.42c-.13-1.73.51-2.64,1.93-2.75,1.42-.11,2.19.71,2.32,2.43l.55,7.31c.47,6.29,2.59,9.3,6.36,9.02l5.86-.44-2.3-30.91c-.12-1.66.49-2.54,1.84-2.64,1.35-.1,2.08.68,2.21,2.34l2.3,30.91,5.96-.44c3.91-.29,5.62-3.72,5.12-10.29l-1.57-21.05c-.13-1.76.51-2.7,1.93-2.8,1.42-.11,2.19.72,2.32,2.49l1.59,21.31Z"/>
      <path class="cls-2" d="M525.25,216.56c2.94,9.72,1.15,15.57-5.36,17.53l-15.43,4.66c-6.17,1.86-10.7-1.98-13.59-11.54l-2.06-6.82c-.51-1.69-.08-2.74,1.27-3.15,1.36-.41,2.3.23,2.81,1.92l2.03,6.72c1.82,6.04,4.49,8.53,8.01,7.47l15.18-4.58c3.88-1.17,4.87-4.91,2.97-11.22l-3.25-10.75c-1.9-6.3-4.8-8.87-8.68-7.7l-9.41,2.84c-1.39.42-2.36-.27-2.9-2.06-.54-1.79-.11-2.9,1.28-3.32l9.56-2.89c6.5-1.96,11.22,1.92,14.16,11.64l3.4,11.25Z"/>
      <path class="cls-2" d="M480.57,193.22c-1.32.62-2.39.06-3.22-1.7-.77-1.63-.5-2.75.82-3.38l29.06-13.72c1.32-.62,2.38-.07,3.2,1.65.78,1.66.52,2.8-.8,3.42l-29.06,13.72Z"/>
      <path class="cls-2" d="M502.05,158.97c.93,1.38.89,2.41-.12,3.09l-26.84,18.05c-1.01.68-1.96.36-2.84-.97l-13.64-20.28c-6.02-8.95-6.25-15.29-.7-19.02l13.2-8.88c5.55-3.73,11.34-1.13,17.35,7.82l13.58,20.19ZM461.18,144.41c-3.28,2.21-2.99,6.17.86,11.89l11.72,17.43c.16.23.32.29.49.17l22.27-14.97c.17-.12.18-.29.03-.52l-11.69-17.39c-3.87-5.75-7.44-7.53-10.72-5.32l-12.95,8.71Z"/>
      <path class="cls-2" d="M458.33,103.5c7.45,6.91,8.9,12.81,4.37,17.68l-10.93,11.78c-4.5,4.85-10.42,3.88-17.73-2.91l-8.5-7.89c-7.32-6.79-8.72-12.62-4.22-17.47l10.93-11.78c4.53-4.88,10.52-3.86,17.96,3.05l8.12,7.54ZM425.51,108.43c-2.62,2.82-1.62,6.38,3.01,10.67l8.35,7.75c4.62,4.29,8.25,5.03,10.86,2.21l10.75-11.58c2.67-2.87,1.66-6.48-3.01-10.82l-8.19-7.61c-4.67-4.34-8.34-5.08-11.01-2.2l-10.75,11.58Z"/>
      <path class="cls-2" d="M414.69,85.92l6.1-10.53c.73-1.26,1.92-1.41,3.57-.46,1.59.92,2.02,2.01,1.29,3.27l-16.17,27.89c-.61,1.05-1.6,1.17-2.98.38l-21.14-12.26c-9.33-5.41-12.51-10.66-9.56-15.76l1.93-3.33c2.9-5.01,9.02-4.81,18.35.6l10.75,6.23-15.55-21.28c-.67-.91-.79-1.76-.33-2.54.35-.6.84-.95,1.47-1.04.64-.09,1.34.09,2.12.54.33.19.59.38.78.57.19.19.41.48.67.87l18.71,26.83ZM412.45,89.79l-18.49-10.72c-6-3.48-9.79-3.85-11.37-1.12l-1.88,3.24c-1.56,2.7.64,5.78,6.61,9.24l18.18,10.53c.24.14.42.1.54-.11l6.42-11.07Z"/>
    </g>
  </g>
  <g id="Capa_2" data-name="Capa 2">
    <g>
      <g>
        <path class="cls-4" d="M328.74,423.19l.96-3.17c15.56-6.18,29.52-15.38,41.51-27.37,23.21-23.21,36-54.06,36.01-86.89l34.62-22.91c1.08,7.55,1.63,15.23,1.63,22.86,0,36.91-12.92,72.89-36.38,101.3-22.78,27.59-54.38,46.84-89.13,54.33l10.78-38.14Z"/>
        <path class="cls-2" d="M440.9,284.91c.9,6.88,1.36,13.86,1.36,20.8,0,18.68-3.23,36.96-9.59,54.34-6.15,16.79-15.07,32.33-26.51,46.18-22.18,26.86-52.78,45.75-86.49,53.48l10.23-36.18.79-2.62c15.49-6.24,29.41-15.46,41.38-27.43,23.28-23.28,36.18-54.19,36.36-87.09l32.48-21.49M442.74,280.79l-36.75,24.32c0,.2,0,.4,0,.6,0,32.52-12.66,63.09-35.65,86.08-12.07,12.07-26.22,21.28-41.64,27.32l-1.13,3.75-10.88,38.47-.19,1.54c73.14-14.92,128.17-79.62,128.17-157.16,0-8.48-.66-16.8-1.93-24.92h0Z"/>
      </g>
      <g>
        <path class="cls-4" d="M277.72,483.13v-176.01l-51.82-47,18.14-71.21-2.13.74c-17.43,6.1-32.98,15.9-46.2,29.12-11.14,11.14-19.9,24.02-26.05,38.3l-32.13-16.91c21.49-47.51,64.73-81.47,115.89-90.96l.76-.14,27.77-108.97-6.27,233.42,7.77,7.65,7.77-7.65-6.27-233.42,27.77,108.97.76.14c51.16,9.49,94.4,43.46,115.89,90.96l-32.13,16.91c-6.15-14.28-14.9-27.15-26.05-38.3-13.22-13.22-28.76-23.02-46.2-29.12l-2.13-.74,18.14,71.21-51.82,47v176.01l-5.74,21.63-5.74-21.63Z"/>
        <path class="cls-2" d="M286.46,50.86l24.9,97.75.38,1.5,1.52.28c25.22,4.68,49.2,15.63,69.35,31.68,19.3,15.37,34.89,35.24,45.19,57.56l-29.97,15.77c-6.18-13.94-14.84-26.54-25.78-37.48-13.35-13.35-29.04-23.24-46.65-29.41l-4.25-1.49,1.11,4.37,17.41,68.32-50.89,46.15-.79.72v176.38l-4.53,17.08-4.53-17.08v-176.38l-.79-.72-50.89-46.15,17.41-68.32,1.11-4.37-4.25,1.49c-17.61,6.17-33.3,16.06-46.65,29.41-10.94,10.94-19.6,23.54-25.78,37.48l-29.97-15.77c10.3-22.32,25.89-42.18,45.19-57.56,20.15-16.05,44.13-27,69.35-31.68l1.52-.28.38-1.5,24.9-97.75-2.54,94.41-1.04,38.69-2.39,88.99-.03,1.05.75.74,6.55,6.45,1.7,1.67,1.7-1.67,6.55-6.45.75-.74-.03-1.05-2.39-88.99-1.04-38.69-2.54-94.41M283.46,29.31l-30.24,118.7c-52.57,9.75-96.13,45.13-117.24,92.69l34.29,18.05c6.04-14.45,14.9-27.72,26.3-39.12,13.13-13.13,28.72-22.88,45.74-28.84l-17.77,69.73,51.96,47.13v175.63l6.95,26.18,6.95-26.18v-175.63l51.96-47.13-17.77-69.73c17.02,5.96,32.61,15.71,45.74,28.84,11.41,11.41,20.27,24.68,26.3,39.12l34.29-18.05c-21.11-47.56-64.67-82.94-117.24-92.69l-30.24-118.7,3.12,116.02,1.04,38.69,2.39,88.99-6.55,6.45-6.55-6.45,2.39-88.99,1.04-38.69,3.12-116.02h0Z"/>
      </g>
      <g>
        <polygon class="cls-4" points="316.6 323.66 380.13 286.59 425.71 260.01 344.12 338.84 316.6 439.63 316.6 323.66"/>
        <path class="cls-2" d="M417.67,266.1l-15.49,14.97-58.66,56.67-.48.46-.17.64-22.32,81.74-2.74,10.03v-106.26l62.93-36.72,21.98-12.82,14.95-8.72M433.75,253.93l-32.24,18.8-21.98,12.82-64.13,37.42v125.68l7.49-27.42,22.32-81.74,58.66-56.67,29.89-28.88h0Z"/>
      </g>
      <g>
        <path class="cls-4" d="M248.98,461.33c-34.75-7.49-66.35-26.74-89.13-54.33-23.46-28.41-36.38-64.39-36.38-101.3,0-7.63.55-15.32,1.63-22.86l34.62,22.91c.01,32.82,12.8,63.68,36.01,86.89,11.99,11.99,25.95,21.2,41.51,27.37l.96,3.19,10.78,38.12Z"/>
        <path class="cls-2" d="M126.03,284.91l32.48,21.49c.18,32.9,13.08,63.81,36.36,87.09,11.97,11.97,25.88,21.19,41.38,27.43l.79,2.62,10.23,36.18c-33.71-7.73-64.31-26.62-86.49-53.48-11.44-13.85-20.36-29.39-26.51-46.18-6.37-17.38-9.59-35.66-9.59-54.34,0-6.94.46-13.92,1.36-20.8M124.18,280.79c-1.27,8.12-1.93,16.44-1.93,24.92,0,77.55,55.03,142.24,128.17,157.16l-.19-1.54-10.88-38.47-1.13-3.75c-15.42-6.04-29.58-15.25-41.64-27.32-22.99-22.99-35.65-53.56-35.65-86.08,0-.2,0-.4,0-.6l-36.75-24.32h0Z"/>
      </g>
      <g>
        <polygon class="cls-4" points="222.81 338.84 141.22 260.01 186.8 286.59 250.33 323.66 250.33 439.63 222.81 338.84"/>
        <path class="cls-2" d="M149.26,266.1l14.95,8.72,21.98,12.82,62.93,36.72v106.26l-2.74-10.03-22.32-81.74-.17-.64-.48-.46-58.66-56.67-15.49-14.97M133.18,253.93l29.89,28.88,58.66,56.67,22.32,81.74,7.49,27.42v-125.68l-64.13-37.42-21.98-12.82-32.24-18.8h0Z"/>
      </g>
    </g>
  </g>
</svg>