<svg enable-background="new 0 0 113.4 113.4" viewBox="0 0 113.4 113.4" xmlns="http://www.w3.org/2000/svg"><circle cx="57.1" cy="56.7" fill="#afc910" r="55.5"/><path d="m0 56.6c0-31.3 25.5-56.7 56.8-56.6 31.3 0 56.6 25.5 56.6 56.9 0 31.2-25.5 56.6-56.8 56.5-31.3 0-56.6-25.5-56.6-56.8z" fill="#b0ca10"/><path d="m56.7 1.9c30.3 0 54.8 24.6 54.8 54.9 0 30.2-24.6 54.8-54.8 54.8-30.3 0-54.9-24.6-54.9-54.8.1-30.4 24.6-54.9 54.9-54.9z" fill="#fff"/><path d="m56.6 96.4c-21.9 0-39.6-17.8-39.6-39.8 0-21.8 17.8-39.6 39.7-39.5 21.9 0 39.6 17.8 39.6 39.8 0 21.8-17.8 39.5-39.7 39.5z" fill="#b0ca0e"/><path d="m86.3 21c1.5-.6 2.8-1.7 4.3-2.4.4.3.8.7 1.3 1.1-1.1 2.3-2.2 4.6-3.3 7-.5-.4-.9-.7-1.3-1 .5-1.5 1.4-2.7 1.8-4.2-1.3.7-2.6 1.4-4 2.2-.4-.3-.8-.7-1.2-1 .4-1.3.9-2.5 1.3-3.8.1-.3-.1-.4-.3-.3-1 .7-2.1 1.5-3.2 2.3-.4-.3-.8-.6-1.3-1 2.1-1.6 4.2-3.1 6.3-4.6.5.4.9.7 1.3 1.1-.5 1.6-1.3 3-1.7 4.6z" fill="#b0cb11"/><path d="m45.5 13.1c.4.2.7.4 1.1.6-.1.5-.4 1-.7 1.4-.4-.2-.7-.3-1.1-.5-2.2 1.7-4.3 1.7-6 .1-1.4-1.3-1.6-3.3-.6-4.9s2.8-2.3 4.5-1.7c2.1.7 3 2.2 2.8 5z" fill="#b0cb12"/><path d="m54.8 11.7c.3.3.6.5.9.7-.2.5-.6.9-1 1.3-.4-.2-.7-.5-1-.7-2.6 1.1-4.4.8-5.7-.9-1.1-1.5-1.1-3.5.1-4.9s3.2-1.8 4.9-1c1.9 1 2.5 2.7 1.8 5.5z" fill="#b0ca12"/><path d="m23.3 21.5c.9-.8 1.7-1.5 2.6-2.3-.5-.7-1.1-1.3-1.6-2 .4-.4.7-.7 1.2-1.1 1.7 1.9 3.3 3.7 4.9 5.6-.3.5-.8.7-1.1 1.2-.7-.8-1.4-1.6-2.2-2.4-1 .6-1.8 1.5-2.7 2.3.7.9 1.4 1.7 2.1 2.5-.4.4-.8.7-1.2 1-1.7-1.9-3.3-3.7-4.9-5.6.4-.4.7-.7 1.2-1.1.6.6 1.1 1.2 1.7 1.9z" fill="#b0cb12"/><path d="m79 10.8c.5.3 1 .5 1.5.8-.2 2.6-.3 5.3-.5 8-.6 0-1-.4-1.5-.6-.3-.6.1-1.2-.2-1.9-.8-.4-1.7-.9-2.7-1.4-.5.4-.9.7-1.4 1.1-.5-.2-.9-.5-1.6-.8 2.2-1.7 4.3-3.4 6.4-5.2z" fill="#b0cb13"/><path d="m35.4 16.9c-.9.5-1.8 1.1-2.8 1.6.1.6.1 1.1.2 1.7-.4.4-.9.6-1.5.9-.3-2.7-.6-5.3-.9-7.9.4-.5 1-.7 1.5-1 2.1 1.6 4.3 3.1 6.5 4.7-.4.5-.9.7-1.5.9-.5-.3-.9-.6-1.5-.9z" fill="#b0cb12"/><g fill="#b0cb13"><path d="m62.8 104.4c.8.6 1.4 1.2 2.1 1.7-.3.5-.5.8-1.1 1.1-.7-.9-1.5-1.8-2.2-2.8-.7.2-1.1.3-1.5.4.1.8.1 1.5.2 2.3-.4.3-.8.3-1.3.1-.3-2.6-.5-5.3-.8-8 1.1-.3 2.2-.4 3.3-.4 1.2 0 2.1.4 2.6 1.6s.3 2.3-.6 3.2c-.2.3-.4.5-.7.8z"/><path d="m60.1 11.9c.5-.4 1-.5 1.4-.6 1.5 1.1 2.6 1.2 3.5.1-.3-.7-1-.7-1.5-.9-.4-.1-.9-.2-1.3-.4-.9-.4-1.5-1-1.4-2 .1-1.1.8-1.7 1.8-2 1.4-.4 3 .2 3.9 1.4-.2.5-.9.4-1.2.8-1-.5-1.9-1.1-3-.2.2.6.6.6 1 .7s.8.1 1.1.3c1.4.4 2.2 1.3 2.2 2.4-.1 1.2-1.1 2.1-2.6 2.2s-2.9-.4-3.9-1.8z"/><path d="m74.3 104.2c-.3.5-.7.4-1.1.7-.7-1.7-1.4-3.2-2.2-4.9 1.5-.3 2.5-1.7 4.1-1.2.4-.1.5-.5.7-.7 1.3-1.4 3.3-1.2 4.2.5.5.8.8 1.8 1.2 2.6-.3.4-.7.4-1 .6-1.1-.9-.6-3.5-3.1-3.2-1.5 1.7.6 2.8.5 4.3-.2.1-.5.3-.8.4-.1-.1-.3-.1-.3-.2-.3-.7-.6-1.3-.9-2-.3-.8-.8-1.4-1.8-1s-.9 1.2-.5 2.1c.4.6.7 1.3 1 2z"/><path d="m48.5 98.3c.5-.2.8 0 1.1.1.2 1.2-.3 2.3-.2 3.5 1-.2 1.9-.5 2.9.1.5.3.9.7 1.1 1.3.5 1.1.2 2.4-.7 3.2-1.1.9-2.3.9-3.8-.1-.4.3-.9.2-1.5.1.2-1.4.3-2.7.5-4.1.2-1.3.4-2.7.6-4.1z"/></g><path d="m19.7 89.4c.4-.1.7.1 1.1.2.6 2.5 2 3.4 3.5 2.2.2-.6-.1-1.1-.4-1.6-.2-.3-.5-.5-.7-.8-1-1.3-1-2.5 0-3.4s2.3-.9 3.5.1c.9.8 1.5 1.8 1.3 3.1-.4-.1-.7-.1-1.1-.2-.1-.8-.4-1.5-1.1-2-.6-.4-1.1-.6-1.7 0-.5.5-.2 1 .1 1.5.4.6 1 1.1 1.3 1.8.8 1.8-.5 3.6-2.4 3.4-2.2-.2-3.7-2.2-3.4-4.3z" fill="#b0cb14"/><path d="m45.6 101.4c.4-.7.9-.2 1.5 0-.5 1.6-.9 3.2-1.4 4.8-.6-.1-1.1 0-1.2-.7-2.1.4-3.3-.1-3.9-1.6-.5-1.2 0-2.6 1.1-3.3 1.3-.9 2.5-.6 3.9.8z" fill="#b0cb14"/><path d="m29.5 89.2c.5.2.8.4 1 .8-.3.5-.7.9-1 1.4-.3.4-.6.9-1 1.3 3.4.9 3.6 3.1.7 6.6-.4-.1-.6-.4-1.1-.6.5-.7 1-1.3 1.4-2 .6-.9.5-1.7-.2-2.3-.8-.5-1.7-.4-2.4.4-.5.6-.9 1.2-1.4 1.8-.5-.2-.8-.4-1-.8 1.8-2.2 3.4-4.4 5-6.6z" fill="#b0cb14"/><path d="m38.6 104.1c-.3-.1-.6-.2-1-.4.1-.9.6-1.5.9-2.3.3-1 .1-1.8-.7-2.1-.9-.4-1.8-.1-2.2.8-.3.7-.6 1.4-.9 2-.5 0-.8-.2-1.2-.5 1.1-2.5 2.3-5 3.4-7.5.5.1.8.2 1.2.5-.4 1-.9 2-1.3 3.1 3.6.8 4.2 2.8 1.8 6.4z" fill="#b0cb13"/><path d="m70 103.9c.2.1.5.2.7.3-.3 1.3-1.4 2.1-2.8 2s-2.6-1.4-2.6-2.8 1.2-2.7 2.6-2.8c1.5-.1 3 1.2 3 2.6-.2.3-.6.3-.9.4-.7.5-1.5.6-2.4.9.7.2 1.2.1 1.6-.2.2-.2.3-.6.8-.4z" fill="#b0cb15"/><path d="m92.8 89.8c.3-.1.6-.1.9-.2.4 1.4-.2 2.7-1.5 3.2-1.3.6-2.8.1-3.5-1.1-.7-1.1-.4-2.7.6-3.6 1.2-1 2.7-.8 4.1.5 0 .5-.6.8-.8 1.2-.1.8-1 1.1-1.3 1.8 1.1-.1 1-1.2 1.5-1.8z" fill="#b0cb14"/><path d="m69.6 13.4c1.1.4 2 .7 3 1-.2.5-.3 1-.5 1.5-1.5-.5-3-.9-4.6-1.4.4-1.2.7-2.4 1.1-3.6.4-1.1.7-2.3 1.1-3.4.6-.1 1 .1 1.6.4-.6 1.8-1.1 3.6-1.7 5.5z" fill="#b0cb14"/><path d="m83.5 99.4c-1.6 0-2.8-1.2-2.8-2.8 0-1.5 1.2-2.7 2.7-2.8 1.5 0 2.8 1.3 2.8 2.8 0 1.6-1.2 2.8-2.7 2.8z" fill="#b0cb12"/><path d="m86.8 90.3c.3.2.5.5.7.8 0 .5-.6.5-.7 1 .8 1 1.7 2.1 2.7 3.2-.3.3-.6.5-1 .8-.9-1.1-1.8-2.2-2.7-3.2-.4-.1-.5.3-.8.3-.3-.2-.5-.5-.7-.8.1-.2.3-.4.5-.7-.5-.7-1.1-1.3-1.6-2 .2-.4.6-.6.9-.9.6.7 1.1 1.3 1.7 2 .4.1.5-.4 1-.5z" fill="#b1cb16"/><path d="m58.7 13.1c-.6.2-1.1.2-1.6 0 0-1.3 0-2.5 0-3.7s0-2.4 0-3.6c.6-.2 1.1-.1 1.6-.1z" fill="#b1cb16"/><path d="m31.7 100.8c-.4-.3-.7-.5-1.1-.7.9-1.5 1.7-2.9 2.5-4.3.5.1.8.3 1.1.6-.7 1.5-1.6 2.9-2.5 4.4z" fill="#b2cb1b"/><path d="m33.6 94.7c.2-.7.5-1.1 1.2-.9.4.1.6.4.6.9s-.3.8-.7.9c-.5.1-.9-.2-1.1-.9z" fill="#b5cd29"/><path d="m70 103.9c-1.4 1.4-1.8 1.5-3.1.6 1-.4 2.1-.6 3.1-.8z" fill="#fcfcf7"/><path d="m92.8 89.8c-.3 1.8-.6 2.1-2.3 2 .6-.8 1.3-1.5 2-2.1.2.1.2.1.3.1z" fill="#fcfcf7"/><path d="m84.9 18.6c.1-.2.2-.3.3-.5.4.4.2.6 0 .8-.1-.1-.2-.2-.3-.3z" fill="#ecf1d1"/><path d="m27.5 56.8c.3-.6 28.4-36.2 28.8-36.7.8-.2 1.1.5 1.4 1 7.8 9.8 15.5 19.6 23.3 29.4 1.6 2 3.2 4.1 5 6.3-9.6 12.2-19.3 24.3-28.8 36.4-.9.4-1.3-.2-1.7-.7-4.1-5.2-8.2-10.4-12.4-15.6-5-6.3-10-12.6-15-18.9-.1-.4-.5-.7-.6-1.2z" fill="#fff"/><path d="m86.3 21s0 .1 0 0z" fill="#d2de7f"/><path d="m89.1 21.5c0-.1.1-.1.1-.2.1.2 0 .2-.1.2z" fill="#dde69f"/><path d="m42.2 11.5c-.2.4-.4.9-.7 1.3.5.3.9.6 1.4.8-.9.7-1.8.8-2.7.1s-1.2-1.8-.7-2.8c.4-.9 1.5-1.5 2.5-1.4 1.2.2 1.9 1 1.9 2.5-.6.2-1-.4-1.7-.5z" fill="#fefefe"/><path d="m53.3 10.5c-.5-.4-.9-.7-1.4-1.1-.3.4-.7.8-1 1.2.4.4.8.8 1.3 1.1-1.1.5-2.1.3-2.8-.5s-.7-2 0-2.9 1.8-1.2 2.8-.7 1.5 1.5 1.1 2.9z" fill="#fefefd"/><path d="m78.7 13.4c0 .6-.1 1.2-.1 1.8-.6-.1-1-.3-1.4-.7.3-.5.9-.7 1.5-1.1z" fill="#fcfdf9"/><path d="m32.5 16.6c-.2-.7-.3-1.3-.3-2.1.6.4 1.1.8 1.6 1.2-.3.5-.8.6-1.3.9z" fill="#fafbf2"/><path d="m59.9 103.5c-.1-1.1-.2-2-.3-3.1 1.1-.1 2.2-.6 3.1.3.5.5.5 1.2.2 1.7-.7 1.2-1.9.9-3 1.1z" fill="#fefefd"/><path d="m50.9 103c .8 0 1.5.7 1.5 1.5-.1.8-.5 1.4-1.4 1.4-.8.1-1.5-.6-1.5-1.4-.1-.8.6-1.5 1.4-1.5z" fill="#fefefd"/><path d="m44.7 102.9c0 .8-.7 1.6-1.6 1.5s-1.4-.6-1.5-1.5c0-.8.7-1.6 1.6-1.5.8 0 1.5.7 1.5 1.5z" fill="#fefefd"/><path d="m69.4 102.5c-1 .3-1.9.6-2.8.7.6-1.5 1.5-1.8 2.8-.7z" fill="#fafbf2"/><path d="m89.7 91c-.5-1.6.2-2.4 2-2.2-.5.8-1.3 1.4-2 2.2z" fill="#fbfcf6"/><path d="m84.9 96.7c0 .8-.7 1.6-1.6 1.5s-1.4-.6-1.4-1.5.5-1.4 1.4-1.5 1.6.7 1.6 1.5z" fill="#fefefc"/><path d="m56.7 21.7v70.3c-9.4-11.9-18.6-23.5-27.8-35.2 9.2-11.7 18.4-23.3 27.8-35.1z" fill="#b0ca0e"/><path d="m62.2 50.5c-1.4-1.1-2.8-2.2-4.3-3.4 2-.1 3.7-.2 5.5-.2.6-1.6 1.2-3.3 1.9-5.2.6 1.8 1.2 3.5 1.9 5.2 1.7.1 3.5.2 5.5.3-1.5 1.2-2.9 2.3-4.3 3.4.5 1.7 1 3.4 1.5 5.3-1.6-1.1-3.1-2.1-4.6-3.1-1.5 1-2.9 2-4.6 3.1.5-1.9 1-3.6 1.5-5.4z" fill="#b0cb0f"/><path d="m63.3 60.9c.6-1.7 1.2-3.4 1.9-5.2.7 1.8 1.2 3.5 1.9 5.2 1.7.1 3.5.2 5.5.3-1.5 1.2-2.9 2.3-4.3 3.4.5 1.7 1 3.4 1.5 5.3-1.6-1.1-3.1-2.1-4.6-3.1-1.5 1-2.9 2-4.6 3.1.5-1.9 1-3.6 1.5-5.3-1.4-1.1-2.8-2.1-4.3-3.4 2-.1 3.8-.2 5.5-.3z" fill="#b0cb0f"/></svg>