<svg enable-background="new 0 0 113.4 113.4" viewBox="0 0 113.4 113.4" xmlns="http://www.w3.org/2000/svg"><circle cx="56.7" cy="56.7" fill="#be1622" r="56.7"/><ellipse cx="56.7" cy="56.7" fill="#fff" rx="52.8" ry="52.6"/><g fill="#be1622"><path d="m68.2 42.6c-1.2 1.3-1.8 3-2.6 4.6.1 0 .2.1.2.1 2.4-1.2 5.1-1 7.4-2 3.3-1.4 6.5-3 8.8-5.8 1.4-1.7 2.5-3.7 3.7-5.5.9-1.4 2.1-2.5 3.6-3.2.3-.2.7-.4 1.1-.1s.2.7 0 1.1c-.9 1.6-1.7 3.3-2.6 4.9-2.4 4-3.8 8.4-4.8 12.9-.5 2.1-.9 4.3-.8 6.5v.8c.2 1 .4 1.2 1.4.7.8-.4 1.3-1 1.8-1.8 1.2-1.8 2.5-3.5 3.8-5.3.2-.2.3-.5.7-.5.2.6-.2 1-.4 1.5-1.2 4.7-2 9.5-2.5 14.4-.4 3.1-1.2 6.1-2.8 8.8-1.2 2-2.7 3.7-4.7 4.7-3.3 1.6-6.2 1.2-8.6-1.8-.9-1.1-1.7-2.2-2.6-3.4-1 1.1-2.2 1.7-3.7 1.9-.8.1-1.6 0-2.3-.6-1-1-2.7-.6-3.5.9-.4.6-.7 1.3-.7 2 0 .2 0 .4-.2.5-.8.7-1.7.5-2.5.2-.7-.2-1.2-.6-1.1-1.5.1-1-.1-2-1-2.7-1.1-.8-2.1-.8-3.6.4-1.7 1.4-3.4 1.7-5.4.3-.3-.2-.5-.3-.6.2-.8 2.2-2.3 3.7-4.3 4.9-1.1.6-2.2 1-3.4 1-2-.1-3.8-.7-5.3-2.1-2.9-2.6-4.4-6-5.3-9.7-1-4.3-1.7-8.7-2.5-13.1-.4-2.3-.5-4.7-1-7.1.7.8 1.2 1.7 1.7 2.6.8 1.8 1.9 3.3 3.3 4.8.5.5 1 .8 1.7.9 1.4.2 2.2-.4 2.4-1.8.2-1.6.1-3.3-.3-4.9-2-6.7-4.9-12.9-8.6-18.7-.1-.2-.3-.4-.4-.7-.2-.4-.6-.8-.2-1.1s.8 0 1.1.3c1.6 1 2.7 2.4 3.8 3.9 1.4 2 2.8 4 4.5 5.8s3.9 2.8 6.3 3.5c2.7.7 5.4 1 8.2 1.9-.4-1.2-1.3-2-1.8-3 .9.2 1.7.4 2.6.7 1.5.5 3 1.1 4.2 2.2.7.6 1 .3 1.2-.2.4-1 .6-2 .7-3 1.9 1.2 3.9 1.5 6 1.1.7-.1 1.3-.3 1.8-.8.3 1 .4 2.1 1.2 2.9.3.3.4.3.8.1 1.7-1.5 3.8-2.7 6.1-3.6zm-10.5 31.6c.7.1 1.1-.6 1.7-.9.7-.3 1.4-.8 2 .2.2.3.8.2 1.1-.1.9.3 1.9-.2 2.6-1.3.8-1.3.9-2.8.6-4.3-.2-1-.7-1.9-1.8-2.2s-2.2-.5-3 .6c-.4.5-.5.2-.6-.2s0-.7.1-1c .7-1.5 2.7-2.1 4.1-1.3 1.5.8 2.6 2.1 3.3 3.6 1 2.2 1.9 4.4 3.4 6.3 1.4 1.8 3.7 2.9 5.5 2.3 2.8-.8 4.9-2.6 6.1-5.3 1.1-2.4 1.9-4.9 2.4-7.6.2-1.5.6-3 .9-4.5-.5.2-.7.6-1 .8-.8.8-1.6 1.7-2.8 2.1-2.6.7-5.1.6-6.6-2.7-.2-.5-.6-.8-1.1-.7-2.7.3-5.5.1-8.2.1-2 0-3.6.5-4.4 2.5 0 .1-.1.2-.2.2-.2.2-.4.6-.8.5s-.5-.4-.6-.8c-.1-1-.2-2.1-.3-3.1-.1-.9.2-2.1-.8-2.7-1.9-1.1-3.9-1.5-6-.2-1 .6-1.7 1.4-1.7 2.7 0 1-.2 2-.3 3 0 .4 0 .9-.5 1-.4.1-.7-.3-1-.5-.6-.5-1.2-.9-1.7-1.5-.7-.8-1.5-.8-2.5-.9-2.7-.1-5.4.1-8-.6-.5-.1-.8 0-.9.5-.2.6-.6 1.1-1.1 1.5-1.7 1.4-3.7 1.5-5.8 1.4s-3.7-1-4.6-3c-.1-.2-.2-.5-.6-.6-.1.5 0 .9.2 1.3.4 1.2.8 2.3 1.2 3.5 1.3 3.6 2.5 7.3 4.7 10.5.9 1.3 1.9 2.3 3.4 2.8.9.3 1.9.5 2.7-.1s1.6-1.2 2.4-1.9c1.7-1.5 2.7-3.5 3.7-5.5.6-1.2 1.2-2.5 2.2-3.4 1.6-1.4 3.8-1.4 4.8.1.2.3.6.7.3 1.1-.2.4-.6 0-1 0-.7-.1-1.3 0-1.9.4-1.3.8-1.9 2-2.1 3.4-.2 1.2.2 2.2 1.1 3 1 .8 1.9.6 2.9.1.5.5.9.6 1.3 0 .2-.3.4-.3.6-.3.9.3 1.9.4 2.6 1.2 1.5 1.1 2.5 1.2 4 .5zm-27.7-32.4c.7 3.3 1.3 6.6 2.9 9.6 1.2 2.2 3 3.7 5.4 4.5 1.9.6 3.9.5 5.9.8 1.7.2 3.5-.1 4.8 1.5.2.2.3.6.6.5s.2-.5.2-.8c-.3-5.3-2.8-9.3-8.5-10.4-2-.4-4-.9-6-1.5-2.3-.7-3.8-2.4-5.3-4.2zm31.5 17.2c.4-.2.5-.4.6-.7.9-1.9 2.4-2.8 4.6-2.7 2 .1 3.9.1 5.9-.1 2.9-.3 5.1-1.4 6.5-4s2.1-5.4 2.7-8.2c0-.2.1-.4-.3-.5-.8 1.4-1.9 2.5-3.4 3.1-2.8 1.2-5.7 1.9-8.7 2.2-2.9.2-5.1 1.7-6.4 4.3-1 2-1.4 4.2-1.5 6.6zm-9.9-8.4c3-1.5 5.8-1.5 8.6-.2.5-2.5.2-2.9-2.1-3.3-1.7-.3-3.5-.2-5.2.2-.6.2-1.4.3-1.4 1.2.1.7.1 1.3.1 2.1z"/><path d="m52 42.7c-.1 1-.3 2.1-.7 3-.3.6-.5.8-1.2.2-1.2-1.1-2.7-1.6-4.2-2.2-.8-.3-1.7-.5-2.6-.7-3.3-1.2-6.2-3.1-9.1-5-2.4-1.6-3.5-4.2-4.2-6.8s-.5-5.2-.3-7.8c.1-1.2.3-2.3.5-3.5.1-.6.1-1.2.7-1.7.4 1.1.4 2.2.4 3.2.1 2 .5 3.9 1 5.9.4 1.8 1.6 3 2.8 4.1 1.4 1.3 3 2.3 4.6 3.2 1.7 1.1 3.5 2.2 5.4 2.9 1.7.7 3.3 1.4 5.2 1.4 1.3 0 1.5.2 1.6 1.6 0 .8 0 1.5.1 2.2z"/><path d="m68.2 42.6c-2.2.9-4.3 2.1-6.4 3.4-.4.2-.5.2-.8-.1-.8-.8-.9-1.9-1.2-2.9 0-.8 0-1.6 0-2.3-.1-.9.4-1.2 1.2-1.2 1.7-.1 3.3-.4 5-1 .3-.1.6-.2.9-.4h.6c2.1-.8 4.2-1.8 6-3.1 2.7-2.4 5.2-4.9 6.1-8.6.6-2.5 1.3-5 1.8-7.8.8.9.8 1.9.9 2.7.4 3.9.3 7.7-.6 11.5-.7 2.8-2.7 4.5-5 5.9-2.9 1.4-5.7 2.7-8.5 3.9z"/><path d="m68.6 102c-2.2 2.2-4.9 3-7.9 3.2-3.6.3-7.2.3-10.8-.4-2.2-.5-4.4-1.1-6.2-2.5-.3-.2-.7-.4-.5-.8.2-.3.5 0 .8 0 3.8.5 7.7-1.5 9-5 .4-1.2 1.1-2.3 1.5-3.5.3-.7.9-1 1.5-1 .7 0 1.1.5 1.4 1.1.5 1.1 1 2.2 1.4 3.3 1.1 2.6 3.2 3.8 5.7 4.7 1 .3 1.9.8 3 .5.2 0 .8-.1 1.1.4z"/><path d="m73.3 34.8c-1.8 1.4-3.9 2.3-6 3.1-.2.1-.4 0-.6 0 .8-2.2 1.9-4.3 2.6-6.5 1.4-4.6 2.4-9.2 2.8-14 .2-1.8.3-3.6.5-5.4 0-.2-.1-.6.2-.7s.4.3.6.5c1.5 2.4 2.1 5 2.1 7.8 0 5-.5 9.9-2.3 14.7.1.3.1.4.1.5z"/><path d="m45 37.6c-1.9-.7-3.7-1.8-5.4-2.9-.9-2.4-1.7-4.8-2.3-7.3-.4-1.7-1-3.3-1.1-5-.1-2.4-.6-4.8.1-7.3.3-1.1.7-2.1 1.4-2.9.2-.2.3-.6.7-.4.3.1.2.5.2.8.2 2.1.2 4.2.6 6.2 1.1 5.6 2.8 11.1 5.1 16.3.4.9.6 1.7.7 2.5z"/><path d="m43.9 85.4c.2-.6.6-1 1.2-1.3 1.6-.8 3.3-1.1 4.9-1.5 1.2-.3 2.4-.1 3.5.4 1.5.6 3 .7 4.5.2 1.6-.6 3.3-.7 5-.4 1.1.1 2.1.5 3.1 1.1.6.3 1 .8 1.1 1.5-.2.4-.3.8-.8.8-.3 0-.6-.1-.7-.4-.1-.6-.6-.8-1.1-1-1.4-.8-2.9-.8-4.4-.4-2.7.7-5.5.5-8.2-.1-.3-.2-.6-.5-1.1-.4-2.1.2-4 .8-5.7 2.1-.8.6-1.1.5-1.3-.6z"/><path d="m43.9 85.4c.3 1.1.6 1.1 1.4.5 1.7-1.3 3.6-1.9 5.7-2.1.4 0 .7.2 1.1.4-2.3.8-4.3 2.1-6.2 3.6-1 .8-2 1.9-3.5 1.9-1.1.1-1.7-.3-2-1.2s0-1.6 1.1-2.1c.7-.3 1.5-.6 2.4-1z"/><path d="m60.2 84.4c1.5-.4 3-.4 4.4.4.5.3 1 .4 1.1 1 .1.3.4.4.7.4.5 0 .7-.5.8-.8 1 .4 2 .6 2.9 1.3.7.5 1.1 1.2 1.1 2-.1.8-1.2 1.4-2.2 1.4-.4 0-.7-.1-.9-.4-1.7-1.9-3.7-3.4-5.9-4.6-.6-.4-1.4-.4-2-.7z"/><path d="m61.9 87.5c-.6 1.4-1.6 2-3.1 2.2-1.9.3-3.8.2-5.7 0-1.2-.1-2.2-1-3.1-1.8-.1-.1-.3-.2-.1-.4s.4-.2.6-.1c2.5 1.6 5.3 1.2 8 1 1.1-.1 2.2-.3 3.4-.9z"/><path d="m63 82.8c-1.7-.3-3.4-.2-5 .4-1.5.6-3 .5-4.5-.2-1.1-.5-2.3-.8-3.5-.4.3-.3.7-.6 1-.9 1.2-.8 1.9-.8 2.9.1 1.1 1 2.2 1.3 3.3.5 2.1-1.4 4-.8 5.8.5z"/><path d="m49.5 72.9c-.2-1.4.3-1.8 1.6-1.7s2.3.7 3.1 1.8c.3.4.2.6-.1.8-.7-.8-1.7-.9-2.6-1.2-.2-.1-.5 0-.6.3-.4.7-.9.5-1.4 0z"/><path d="m57.7 74.2c.7-1.8 2.2-2.8 3.9-2.5 1.2.2 1.3.5 1 1.7-.4.3-.9.4-1.1.1-.7-.9-1.3-.4-2-.2-.8.2-1.1 1-1.8.9z"/><path d="m38.2 77.1c-.1-1.3-.2-2.6.1-3.9 1.1 2.8 2.2 4 3.4 5.3 1.8 1.9 3.7 3.6 5.9 5 .6.4 1 1 1.1 1.7.3 1.8-.6 3.6-2.3 4.5-1.5.9-3 .3-3.8-.5-1.4-1.4-2.4-3.1-2.9-5-.7-2.4-1.2-4.7-1.5-7.1z" stroke="#fff" stroke-miterlimit="10" stroke-width=".5714"/><path d="m75.2 77.1c.1-1.3.2-2.6-.1-3.9-1.1 2.8-2.2 4-3.4 5.3-1.8 1.9-3.7 3.6-5.9 5-.6.4-1 1-1.1 1.7-.3 1.8.6 3.6 2.3 4.5 1.5.9 3 .3 3.8-.5 1.4-1.4 2.4-3.1 2.9-5 .7-2.4 1.2-4.7 1.5-7.1z" stroke="#fff" stroke-miterlimit="10" stroke-width=".5714"/></g></svg>