<svg id="Capa_1" data-name="Capa 1" xmlns="http://www.w3.org/2000/svg" viewBox="0 0 566.93 566.93"><defs><style>.cls-1{fill:#f9dd29;}.cls-2{fill:#477ca1;}.cls-3,.cls-5{fill:#fff;}.cls-4{fill:#f6dc36;}.cls-5{stroke:#f6dc35;stroke-miterlimit:10;stroke-width:6px;}.cls-6{fill:#f6dc35;}</style></defs><circle class="cls-1" cx="283.46" cy="283.46" r="279.21" transform="translate(-117.41 283.46) rotate(-45)"/><path class="cls-2" d="M283.46,13.58c-146.67,0-265.57,120.83-265.57,269.88s118.9,269.89,265.57,269.89S549,432.52,549,283.46,430.14,13.58,283.46,13.58Z"/><circle class="cls-2" cx="283.46" cy="283.46" r="212.66"/><path class="cls-3" d="M28.67,323.44a20.6,20.6,0,0,1-.23-5.16,25.31,25.31,0,0,1,.75-4.27l6-.94.09.58a14.31,14.31,0,0,0-1.81,4.55,12.64,12.64,0,0,0-.17,4.56,12.48,12.48,0,0,0,.34,1.41,4.91,4.91,0,0,0,.6,1.37,3.16,3.16,0,0,0,1,1,2,2,0,0,0,1.43.24,1.9,1.9,0,0,0,1.42-1,4.92,4.92,0,0,0,.59-1.91q.14-1.33.21-2.85a22.39,22.39,0,0,1,.32-2.84,8.59,8.59,0,0,1,2.11-4.62,7.41,7.41,0,0,1,4.16-1.95,6.88,6.88,0,0,1,6.18,2.1A12.47,12.47,0,0,1,55,320.84a22.93,22.93,0,0,1,.24,4.54,20.69,20.69,0,0,1-.61,4.17l-5.74.89-.09-.55a12.77,12.77,0,0,0,1.49-3.74,11,11,0,0,0,.18-4.27,8.83,8.83,0,0,0-.35-1.47,5.61,5.61,0,0,0-.67-1.31,2.77,2.77,0,0,0-1-.9,2,2,0,0,0-2.68.68,6.91,6.91,0,0,0-.61,2.8c-.06.87-.12,1.72-.18,2.53a20.85,20.85,0,0,1-.35,2.62,8.72,8.72,0,0,1-1.93,4.29,6.59,6.59,0,0,1-4,1.93,7.32,7.32,0,0,1-6.49-2A12.87,12.87,0,0,1,28.67,323.44Z"/><path class="cls-3" d="M64.93,364.11l-26.25.61L36.81,358l14.07-8.14-16.22.39-1.88-6.75,22.79-13,1.78,6.39-15.51,7.94,17.59-.45,1.7,6.11L45.76,358.9l17.44-1Z"/><path class="cls-3" d="M63.17,392q-5.69,2.38-10.23.71t-6.76-7q-2.24-5.31-.2-9.72t7.64-6.77q5.66-2.37,10.21-.73t6.79,6.95q2.22,5.3.23,9.71C69.52,388.18,67,390.44,63.17,392ZM60.63,386A14,14,0,0,0,64,384,8.14,8.14,0,0,0,66,381.84a4.79,4.79,0,0,0,.66-2.29,5.41,5.41,0,0,0-.41-2.15A5.35,5.35,0,0,0,65,375.59a5.11,5.11,0,0,0-2.09-1.12,7.61,7.61,0,0,0-2.92-.15,13.64,13.64,0,0,0-3.8,1.06,14,14,0,0,0-3.4,1.93,8,8,0,0,0-1.9,2.17,4.8,4.8,0,0,0-.67,2.3,5.51,5.51,0,0,0,.41,2.17,5.17,5.17,0,0,0,1.3,1.82,4.61,4.61,0,0,0,2.1,1.1,8.3,8.3,0,0,0,2.88.17A13.81,13.81,0,0,0,60.63,386Z"/><path class="cls-3" d="M65.25,422.37l-3.76-6.82,4.76-10.72-1.11-2L57,407.33l-3.07-5.57,22.29-12.28,4.94,9a22.38,22.38,0,0,1,1.55,3.36,7.88,7.88,0,0,1,.43,3.08,6.6,6.6,0,0,1-.89,3,6.48,6.48,0,0,1-2.6,2.35,7.91,7.91,0,0,1-4.78,1.14,9.26,9.26,0,0,1-4.24-1.69Zm10.5-17.53A3.5,3.5,0,0,0,77,403.72a2.4,2.4,0,0,0,.35-1.58,5,5,0,0,0-.36-1.33c-.2-.45-.47-1-.82-1.63l-1-1.87-6,3.31.88,1.6a12.8,12.8,0,0,0,1.24,1.9,3.35,3.35,0,0,0,1.37,1.05,2.94,2.94,0,0,0,1.44.25A4.22,4.22,0,0,0,75.75,404.84Z"/><path class="cls-3" d="M90.64,436.65A13,13,0,0,1,84.52,439a11.55,11.55,0,0,1-5.78-.76,11,11,0,0,1-3.82-2.59,32,32,0,0,1-3.14-3.87l-4.56-6.53L88.1,410.71l4.52,6.48a36,36,0,0,1,2.59,4.32,11.05,11.05,0,0,1,1.15,4.55,11.35,11.35,0,0,1-1.29,5.73A13.51,13.51,0,0,1,90.64,436.65Zm-3.71-5.41a9.92,9.92,0,0,0,3-3.17,6.22,6.22,0,0,0,.77-3.78,6.07,6.07,0,0,0-.91-2.68c-.51-.81-1.14-1.76-1.89-2.84l-.07-.1-13.07,9.11.07.1c.82,1.17,1.53,2.15,2.14,2.93a5.74,5.74,0,0,0,2.36,1.79A6.41,6.41,0,0,0,83,433,10.19,10.19,0,0,0,86.93,431.24Z"/><path class="cls-3" d="M100.89,467.79,96.67,463l12.62-11.19L98.07,455.6l-2.89-3.26,5.07-10.69L87.63,452.84l-4-4.5,19-16.88,4.89,5.51-5.66,12.55L115,445.4l4.89,5.51Z"/><path class="cls-3" d="M103.92,470.77l23.42-13.15,5.18,4.67L121.87,487,117,482.54l2.3-4.92-6-5.35-4.65,2.79Zm17.4,2.49,3.69-8-7.55,4.5Z"/><path class="cls-3" d="M131.06,494.38a20.72,20.72,0,0,1-3.79-3.51,26.63,26.63,0,0,1-2.46-3.58l3.61-4.86.47.35a14.24,14.24,0,0,0,1.9,4.52,12.38,12.38,0,0,0,3.07,3.37,10.17,10.17,0,0,0,1.23.77,5.18,5.18,0,0,0,1.38.56,3.11,3.11,0,0,0,1.39,0,2,2,0,0,0,1.19-.82,1.92,1.92,0,0,0,.33-1.7,4.85,4.85,0,0,0-.92-1.77c-.56-.7-1.17-1.43-1.84-2.18a21.73,21.73,0,0,1-1.77-2.25,8.58,8.58,0,0,1-1.72-4.78,7.26,7.26,0,0,1,1.6-4.3,6.85,6.85,0,0,1,5.88-2.84,12.4,12.4,0,0,1,7.38,2.74,21.61,21.61,0,0,1,3.35,3.07,19.71,19.71,0,0,1,2.49,3.4l-3.47,4.66-.45-.33a12.76,12.76,0,0,0-1.56-3.72,10.87,10.87,0,0,0-2.86-3.17,9.19,9.19,0,0,0-1.28-.81,5.75,5.75,0,0,0-1.4-.46,2.9,2.9,0,0,0-1.31,0,1.86,1.86,0,0,0-1.07.71,1.9,1.9,0,0,0-.37,1.65,7,7,0,0,0,1.53,2.43l1.64,1.93a21.46,21.46,0,0,1,1.59,2.11,8.65,8.65,0,0,1,1.62,4.42,6.58,6.58,0,0,1-1.51,4.19,7.31,7.31,0,0,1-6,3.11A12.79,12.79,0,0,1,131.06,494.38Z"/><path class="cls-3" d="M148.26,505.68,159,488.13l-6.41-3.93,2.54-4.14,18.26,11.21-2.53,4.14-6.41-3.94L153.7,509Z"/><path class="cls-3" d="M163.65,514.79,175,492l15.4,7.67L188.24,504l-9.71-4.84-2,4,9,4.46L183.32,512l-8.95-4.45-2.86,5.75,9.71,4.84-2.16,4.34Z"/><path class="cls-3" d="M206.35,533.23l-7.28-2.78-3.3-11.24-2.14-.82-3.33,8.72-5.94-2.27,9.07-23.77,9.57,3.64a23.09,23.09,0,0,1,3.35,1.57,7.77,7.77,0,0,1,2.32,2.06,6.16,6.16,0,0,1,.78,6.32,7.94,7.94,0,0,1-2.92,4,9.33,9.33,0,0,1-4.33,1.45ZM203,513.07a3.38,3.38,0,0,0,.24-1.67,2.43,2.43,0,0,0-.76-1.44,4.52,4.52,0,0,0-1.13-.78c-.44-.21-1-.45-1.68-.71l-2-.76-2.44,6.4,1.71.65a13.1,13.1,0,0,0,2.17.66,3.35,3.35,0,0,0,1.73-.09,3.08,3.08,0,0,0,1.26-.74A4.39,4.39,0,0,0,203,513.07Z"/><path class="cls-3" d="M245.45,542.54,238,541l-1.73-2.57a11.3,11.3,0,0,1-4,1.25,12.39,12.39,0,0,1-4-.22,10.17,10.17,0,0,1-6.32-3.58,7.13,7.13,0,0,1-1.28-6.08,7.31,7.31,0,0,1,.92-2.41,7.86,7.86,0,0,1,1.43-1.65,6.7,6.7,0,0,1,1.68-1.08,16.06,16.06,0,0,1,1.76-.7c-.4-.48-.74-.94-1-1.38a7.17,7.17,0,0,1-.74-1.43,5.74,5.74,0,0,1-.36-1.55,6.29,6.29,0,0,1,.14-1.83,5.75,5.75,0,0,1,.89-2,5.57,5.57,0,0,1,1.85-1.62,7.57,7.57,0,0,1,2.9-.8,14.67,14.67,0,0,1,7.36,1.44,8.09,8.09,0,0,1,2.2,1.64,5,5,0,0,1,1.1,2,4.67,4.67,0,0,1,.05,2.26,7.26,7.26,0,0,1-.58,1.62,5,5,0,0,1-1.12,1.53,7.14,7.14,0,0,1-2,1.28,10.51,10.51,0,0,1-2.92.7l3.8,5.63,1.15-5.38,5.83,1.25-.4,1.85a11.63,11.63,0,0,1-.5,1.67,10.81,10.81,0,0,1-.75,1.65,10.53,10.53,0,0,1-1,1.54,9,9,0,0,1-1.48,1.41l4.76,6.84ZM234.13,535l-5.33-7.77a6.32,6.32,0,0,0-.86,1.14,5.46,5.46,0,0,0-.72,1.78,4.64,4.64,0,0,0,0,2,4.3,4.3,0,0,0,.69,1.55,4.08,4.08,0,0,0,1.18,1.09,4.48,4.48,0,0,0,1.44.59,6.26,6.26,0,0,0,1.88.15A5,5,0,0,0,234.13,535Zm.53-14.9a3.41,3.41,0,0,0,.06-1.4,2.09,2.09,0,0,0-.4-.93,1.48,1.48,0,0,0-.63-.48,3.72,3.72,0,0,0-.59-.2,3.27,3.27,0,0,0-.57,0,1.91,1.91,0,0,0-.75.2,1.83,1.83,0,0,0-.69.61,2.84,2.84,0,0,0-.49,1.14,3.07,3.07,0,0,0,.26,2,12.09,12.09,0,0,0,1.44,2.22,5.31,5.31,0,0,0,1.55-1.31A4.34,4.34,0,0,0,234.66,520.07Z"/><path class="cls-3" d="M267.34,545a20.74,20.74,0,0,1-5.09-.89,25.64,25.64,0,0,1-4-1.65l.38-6,.58,0a14.37,14.37,0,0,0,4.05,2.75,12.54,12.54,0,0,0,4.42,1.15,9.23,9.23,0,0,0,1.45,0,4.84,4.84,0,0,0,1.46-.28,3.07,3.07,0,0,0,1.18-.74,2,2,0,0,0,.54-1.34,1.88,1.88,0,0,0-.65-1.6,4.65,4.65,0,0,0-1.73-1c-.85-.29-1.76-.56-2.73-.83a20.47,20.47,0,0,1-2.71-.92,8.49,8.49,0,0,1-4.05-3.07,7.27,7.27,0,0,1-1-4.48,6.86,6.86,0,0,1,3.39-5.58,12.47,12.47,0,0,1,7.68-1.73,22.17,22.17,0,0,1,4.48.74,19.72,19.72,0,0,1,3.94,1.5l-.37,5.8-.56,0a12.8,12.8,0,0,0-3.33-2.26,11,11,0,0,0-4.13-1.1,8.24,8.24,0,0,0-1.51,0,5.5,5.5,0,0,0-1.43.37,2.72,2.72,0,0,0-1.08.74,2,2,0,0,0,.08,2.76,7.07,7.07,0,0,0,2.61,1.2l2.42.72a24.09,24.09,0,0,1,2.49.91,8.68,8.68,0,0,1,3.77,2.82,6.64,6.64,0,0,1,1,4.34,7.34,7.34,0,0,1-3.36,5.9A12.86,12.86,0,0,1,267.34,545Z"/><path class="cls-3" d="M302.13,527.19a10.07,10.07,0,0,1-.45,3.39,7.12,7.12,0,0,1-1.54,2.74,11.27,11.27,0,0,1-1.39,1.27,8.51,8.51,0,0,1-1.68,1,11,11,0,0,1-2,.68,12.73,12.73,0,0,1-2.46.3l-3.35.11.27,8.31-6.39.21-.8-25.44,9.87-.31a16.26,16.26,0,0,1,3.81.28,9.4,9.4,0,0,1,2.94,1.18,6.42,6.42,0,0,1,2.3,2.49A8.4,8.4,0,0,1,302.13,527.19Zm-6.55.35a3.23,3.23,0,0,0-.57-1.83,2.72,2.72,0,0,0-1.26-1,5.18,5.18,0,0,0-1.75-.4c-.55,0-1.3,0-2.25,0l-.9,0,.24,7.62.44,0,1.71-.07a8.6,8.6,0,0,0,1.39-.16,4.77,4.77,0,0,0,1.08-.37,2.8,2.8,0,0,0,.86-.58,3.4,3.4,0,0,0,.84-1.34A5.81,5.81,0,0,0,295.58,527.54Z"/><path class="cls-3" d="M307.42,544.1l-3.12-25.25,17.08-2.12.59,4.82-10.77,1.33.55,4.43,9.92-1.23.6,4.82-9.92,1.23.79,6.37,10.77-1.33.59,4.82Z"/><path class="cls-3" d="M341,539.14a12.1,12.1,0,0,1-9.62-1.42q-4-2.65-5.38-8.79c-.87-3.93-.46-7.32,1.22-10.14a11.87,11.87,0,0,1,8.12-5.47,18.05,18.05,0,0,1,5.08-.45,16.58,16.58,0,0,1,2,.27c.73.15,1.33.28,1.79.4l1.3,5.92-.63.14c-.36-.2-.81-.43-1.35-.71a15.81,15.81,0,0,0-1.79-.75,10.6,10.6,0,0,0-2.12-.49,6.63,6.63,0,0,0-2.26.1,7.15,7.15,0,0,0-2.38,1,6.1,6.1,0,0,0-1.82,1.94,7.45,7.45,0,0,0-1,2.91,11.15,11.15,0,0,0,.25,3.95,11,11,0,0,0,1.47,3.76,7,7,0,0,0,2.18,2.19,5.85,5.85,0,0,0,2.46.88,7.27,7.27,0,0,0,2.47-.11,6.81,6.81,0,0,0,2.26-.92A9.48,9.48,0,0,0,345,532a11.59,11.59,0,0,0,1.23-1.37c.35-.45.65-.85.9-1.19l.57-.13,1.28,5.84-1.43,1.08a15,15,0,0,1-1.7,1.1,20.41,20.41,0,0,1-2.06,1A17.41,17.41,0,0,1,341,539.14Z"/><path class="cls-3" d="M366.28,531.55l-13.09,4.07-1.32-4.24,3.49-1.09-4.91-15.81L347,515.56l-1.32-4.24,13.09-4.07,1.31,4.24-3.49,1.09,4.92,15.81,3.49-1.08Z"/><path class="cls-3" d="M369,530.81,367.35,504l6.45-2.63,17.58,20.31-6.1,2.49L381.85,520l-7.4,3,.49,5.41Zm9.81-14.6-5.58-6.78.77,8.75Z"/><path class="cls-3" d="M409.94,512l-15.07,7.85-11.75-22.57,5.67-2.95,9.51,18.26,9.4-4.89Z"/><path class="cls-3" d="M433.24,496.85l-11.31,7.74-2.51-3.66,3-2.07-9.35-13.66-3,2.06-2.5-3.67,11.31-7.74,2.51,3.67-3,2.07,9.35,13.66,3-2.06Z"/><path class="cls-3" d="M454.66,479.7l-4.74,3.92-18.86-7.42,11.31,13.67-4.51,3.73L421.64,474l6.05-5,15.54,6.06-9.29-11.23,4.51-3.73Z"/><path class="cls-3" d="M465.37,469.81a21.2,21.2,0,0,1-4,3.26,27,27,0,0,1-3.88,1.94l-4.31-4.25.41-.42a14,14,0,0,0,4.74-1.25,12.62,12.62,0,0,0,3.77-2.57,12.26,12.26,0,0,0,.92-1.11,4.88,4.88,0,0,0,.75-1.3,3.11,3.11,0,0,0,.22-1.37,2,2,0,0,0-.66-1.29,1.87,1.87,0,0,0-1.63-.56,4.81,4.81,0,0,0-1.89.66c-.77.46-1.57,1-2.41,1.52a22.14,22.14,0,0,1-2.47,1.44,8.68,8.68,0,0,1-5,1.05,7.3,7.3,0,0,1-4-2.19,6.84,6.84,0,0,1-2-6.21,12.5,12.5,0,0,1,3.74-6.94,22.69,22.69,0,0,1,3.5-2.89,19.94,19.94,0,0,1,3.72-2l4.13,4.08-.4.41a12.48,12.48,0,0,0-3.89,1,11.09,11.09,0,0,0-3.54,2.4,8,8,0,0,0-1,1.15,5.43,5.43,0,0,0-.66,1.32,2.89,2.89,0,0,0-.15,1.31,1.93,1.93,0,0,0,.56,1.16,1.91,1.91,0,0,0,1.58.59,6.93,6.93,0,0,0,2.62-1.18l2.13-1.36A25.73,25.73,0,0,1,458.6,455a8.6,8.6,0,0,1,4.6-1,6.6,6.6,0,0,1,3.94,2.07,7.36,7.36,0,0,1,2.25,6.41A12.82,12.82,0,0,1,465.37,469.81Z"/><path class="cls-3" d="M478.92,454.36,463,441.25l-4.78,5.8L454.51,444l13.64-16.53,3.75,3.09-4.79,5.8L483,449.43Z"/><path class="cls-3" d="M503.39,420.85,499,427.3l-11.7.65-1.29,1.9,7.73,5.23-3.56,5.26-21.08-14.26,5.74-8.48a22.75,22.75,0,0,1,2.29-2.91,7.92,7.92,0,0,1,2.54-1.79,6.61,6.61,0,0,1,3.05-.55,6.48,6.48,0,0,1,3.27,1.24,7.83,7.83,0,0,1,3.19,3.75,9.18,9.18,0,0,1,.43,4.54ZM483,419.48a3.38,3.38,0,0,0-1.57-.62,2.41,2.41,0,0,0-1.57.41,4.36,4.36,0,0,0-1,.92c-.31.38-.67.88-1.08,1.48l-1.2,1.77,5.68,3.84,1-1.52a14.22,14.22,0,0,0,1.13-2,3.36,3.36,0,0,0,.31-1.7,3,3,0,0,0-.43-1.4A4.31,4.31,0,0,0,483,419.48Z"/><path class="cls-3" d="M510.36,409q-2.42,4.53-5.9,5.79t-7.69-1l-14.34-7.66,3-5.64,14,7.49a6.44,6.44,0,0,0,3.95,1,3.84,3.84,0,0,0,2.68-2.26,3.93,3.93,0,0,0,.43-3.44,6.27,6.27,0,0,0-3-2.8l-14-7.49,3-5.63L506.8,395q4.14,2.22,5.1,5.78T510.36,409Z"/><path class="cls-3" d="M522.25,383.52a12.09,12.09,0,0,1-6.67,7.08q-4.49,1.78-10.28-.6-5.6-2.31-7.63-6.81a11.85,11.85,0,0,1,.15-9.78A18.86,18.86,0,0,1,499,371a14.37,14.37,0,0,1,2.7-3.45c.54-.52,1-.93,1.34-1.24l5.61,2.31-.25.6c-.37.18-.82.42-1.35.7a14.89,14.89,0,0,0-1.64,1.05,10.29,10.29,0,0,0-1.61,1.45,6.42,6.42,0,0,0-1.2,1.91,7.11,7.11,0,0,0-.57,2.51,6.09,6.09,0,0,0,.56,2.61,7.2,7.2,0,0,0,1.84,2.45,11.3,11.3,0,0,0,3.38,2.06,11,11,0,0,0,3.93.93,7.06,7.06,0,0,0,3-.53,6.13,6.13,0,0,0,2.13-1.52,7.36,7.36,0,0,0,1.32-2.09,6.9,6.9,0,0,0,.53-2.38,8.92,8.92,0,0,0-.12-2.14,13.09,13.09,0,0,0-.42-1.81c-.17-.53-.33-1-.47-1.41l.22-.54,5.53,2.29c0,.51,0,1.11.07,1.78a15.31,15.31,0,0,1-.07,2,19.75,19.75,0,0,1-.35,2.27A17.76,17.76,0,0,1,522.25,383.52Z"/><path class="cls-3" d="M528.18,365.79l-19.67-6.1-2.23,7.18-4.63-1.44L508,345l4.64,1.44-2.23,7.18,19.66,6.11Z"/><path class="cls-3" d="M525.56,323.27q6,1.25,8.84,5.19T536,338q-1.15,5.66-5.33,8.14t-10.13,1.26q-6-1.25-8.84-5.17t-1.66-9.58c.77-3.74,2.54-6.46,5.3-8.13S521.53,322.44,525.56,323.27Zm-1.35,6.45a14.15,14.15,0,0,0-3.89-.32,8.1,8.1,0,0,0-2.82.7,4.9,4.9,0,0,0-1.84,1.52,5.31,5.31,0,0,0-.87,2,5.13,5.13,0,0,0,0,2.17,5,5,0,0,0,1.09,2.11,7.66,7.66,0,0,0,2.32,1.78,13.89,13.89,0,0,0,3.73,1.27,14.13,14.13,0,0,0,3.9.33,7.94,7.94,0,0,0,2.8-.71,4.79,4.79,0,0,0,1.85-1.52,5.35,5.35,0,0,0,.88-2,5.14,5.14,0,0,0,0-2.24,4.66,4.66,0,0,0-1.11-2.1,8.34,8.34,0,0,0-2.28-1.76A14,14,0,0,0,524.21,329.72Z"/><path class="cls-3" d="M541,297l-.76,7.76-10,6.15-.22,2.28,9.28.91-.62,6.32L513.38,318l1-10.18a21.53,21.53,0,0,1,.62-3.65,7.8,7.8,0,0,1,1.38-2.78,6.13,6.13,0,0,1,5.89-2.42,7.87,7.87,0,0,1,4.59,1.78,9.26,9.26,0,0,1,2.54,3.78Zm-18.57,8.52a3.48,3.48,0,0,0-1.68.21,2.42,2.42,0,0,0-1.18,1.11,4.58,4.58,0,0,0-.46,1.29c-.09.49-.17,1.09-.24,1.82l-.21,2.12,6.82.67.18-1.82a15.08,15.08,0,0,0,.06-2.27,3.4,3.4,0,0,0-.54-1.64,3,3,0,0,0-1-1A4.3,4.3,0,0,0,522.43,305.56Z"/><path class="cls-4" d="M390.6,183.43a3,3,0,0,0,.37-1.91l0-.14a3.42,3.42,0,0,0-.09-.38,3.45,3.45,0,0,0-.15-.4l-.06-.12a3.84,3.84,0,0,0-.22-.39l-.08-.12a3.76,3.76,0,0,0-.25-.31l-.17-.18a1.21,1.21,0,0,0-.2-.19l-.29-.23-.14-.1-.38-.22-.15-.06a3,3,0,0,0-.77-.24l-.14,0a2.91,2.91,0,0,0-1.89.37c-1.72-.68-4.41-.75-5.74.58l-.51.5.22.68s.2,1.3-4.19,5.92c-2.25,2.37-4.56,4.41-4.58,4.43l-.53.47.32,1.38c-10.77,5.84-33.52,29.13-46.34,42.74l-1.14,1.22-4.08,3.91c-3.8-2.87-11.53-8.56-11.7-8.68-1-.59-2.35-1.22-3.32-.88l-.07,0-1-.35c-2.6-.85-5.06-1.65-9.5-6.44l-1-1.11-3,4.64,4.67,4.67c-.26,1.28-.52,3.9,1.22,5.3a4.63,4.63,0,0,0,3.65.94,4.91,4.91,0,0,0,1.25-.36,6.19,6.19,0,0,0,5.21,1.1c1.14.95,3.09,2.56,4.84,4l1,2.47-.54.85.62,1.88-3.58,3.77L306.48,254h0l-16.68,16.55c-1.05.57-5.91-1.48-10.36-4.36l-.94-.61-2.84,3.92,8.22,7L132.83,427.61l-5.33,15.55,15.39-5.51,151-151.11,6,7.3.91-1s.51-.58,1.69-2.07l.57-.72-.56-.73a10.91,10.91,0,0,1-2.27-8.56l22.78-23.2.06,0,2.17.91c1.11,1.68,3.83,5,6.3,8a6.19,6.19,0,0,0,1.1,5.21,5,5,0,0,0-.36,1.25,4.63,4.63,0,0,0,.94,3.65c1.4,1.74,4,1.48,5.3,1.22l4.67,4.66,4.64-3-1.11-1c-4.39-4.07-5.35-6.8-6.2-9.2a14.08,14.08,0,0,0-2.49-4.82v0a5.66,5.66,0,0,0-1-2.93l-2.36-3.2-3.16-4.27L329.42,251l-.87-1.15.08-.08c6.87-6.34,40.83-38,48-51.29l1.39.32.46-.53s2.06-2.33,4.43-4.58c4.61-4.39,5.91-4.2,5.91-4.2l.68.22.51-.51C391.35,187.84,391.28,185.15,390.6,183.43Zm-.87-2.08Zm-3.57-1.25Z"/><path class="cls-4" d="M433.56,429,282.46,277.94l8.23-7-2.85-3.92-.93.61c-4.45,2.88-9.32,4.93-10.36,4.36L258.68,254.3l-4-4.17.62-1.89-.54-.85,1-2.47c1.74-1.43,3.7-3,4.84-4a6.19,6.19,0,0,0,5.21-1.1,4.91,4.91,0,0,0,1.25.36,4.63,4.63,0,0,0,3.65-.94c1.74-1.4,1.48-4,1.22-5.3l4.66-4.67-3-4.64-1,1.11c-4.45,4.79-6.9,5.59-9.5,6.44l-1,.35-.06,0c-1-.34-2.34.29-3.41.94-.08.06-7.72,5.68-11.61,8.62l-4-3.86L241.74,237c-12.83-13.61-35.58-36.91-46.35-42.73l.32-1.39-.52-.47s-2.34-2.05-4.59-4.43c-4.39-4.62-4.2-5.9-4.2-5.91l.22-.68-.5-.51c-1.33-1.32-4-1.25-5.74-.58a3,3,0,0,0-1.89-.37l-.15,0L178,180l-.38.14-.14.07-.4.23-.11.08a2.33,2.33,0,0,0-.32.25l-.17.16a1.8,1.8,0,0,0-.18.2,2.17,2.17,0,0,0-.24.29l-.09.13c-.08.13-.16.26-.23.4l-.06.14a3.12,3.12,0,0,0-.15.39c0,.12-.06.25-.08.36l0,.16a2.91,2.91,0,0,0,.37,1.89c-.68,1.72-.75,4.41.58,5.74l.5.51.68-.22s1.31-.19,5.92,4.19c2.37,2.25,4.41,4.57,4.43,4.59l.46.53,1.39-.32c7.18,13.24,41.15,44.94,48,51.24l.11.11-.9,1.19c-.66.9-1.41,1.89-2.16,2.91l-5.43,7.34-.08.12a5.7,5.7,0,0,0-1,2.94v0a14,14,0,0,0-2.49,4.81c-.84,2.41-1.81,5.14-6.2,9.21l-1.1,1,4.64,3,4.67-4.67c1.28.26,3.89.53,5.3-1.21a4.68,4.68,0,0,0,.94-3.66,4.78,4.78,0,0,0-.37-1.25,6.12,6.12,0,0,0,1.11-5.2c2.47-3,5.18-6.33,6.29-8l2.17-.9,22.85,23.23a10.88,10.88,0,0,1-2.28,8.56l-.56.74.58.71c1.18,1.49,1.69,2.07,1.69,2.07l.91,1,6-7.3L423.5,439.08l15.39,5.51ZM177.05,184.71h0Z"/><path class="cls-4" d="M468.86,105.22a2.91,2.91,0,0,0,.36-1.91l0-.15c0-.12-.05-.23-.08-.36s-.09-.25-.15-.4l-.06-.13c-.07-.13-.15-.26-.22-.37l-.09-.14a3.5,3.5,0,0,0-.24-.3l-.17-.19-.2-.18-.31-.25-.11-.08a4,4,0,0,0-.4-.22l-.15-.07a2.93,2.93,0,0,0-.39-.14l-.36-.09-.16,0a2.93,2.93,0,0,0-1.88.37c-1.72-.67-4.42-.75-5.74.58l-.51.5.22.68s.19,1.3-4.2,5.92c-2.25,2.38-4.56,4.41-4.58,4.43l-.53.47.32,1.38c-10.76,5.83-33.52,29.13-46.35,42.74l-1.14,1.21-4.08,3.91c-3.8-2.87-11.53-8.57-11.7-8.68-1-.59-2.35-1.23-3.32-.89l-.06,0-1-.35c-2.61-.85-5.06-1.65-9.5-6.44L371,145l-3,4.64,4.67,4.67c-.26,1.28-.53,3.89,1.21,5.3a4.64,4.64,0,0,0,3.66.94,5,5,0,0,0,1.24-.36,6.19,6.19,0,0,0,5.21,1.1c1.14.95,3.1,2.56,4.84,4l1,2.47-.55.85.62,1.88-3.58,3.77-1.59,1.58h0l-16.68,16.55c-1.05.56-5.92-1.48-10.36-4.37l-.94-.6-2.85,3.92,8.23,7L211,349.35l-5.32,15.56,15.38-5.51L372.17,208.32l6,7.3.91-1s.51-.58,1.69-2.07l.58-.72-.56-.73a10.89,10.89,0,0,1-2.28-8.56l22.79-23.19.06-.05,2.17.91c1.11,1.68,3.83,5,6.29,8a6.16,6.16,0,0,0,1.11,5.2,4.78,4.78,0,0,0-.37,1.25,4.65,4.65,0,0,0,.95,3.66c1.4,1.74,4,1.47,5.3,1.21l4.67,4.67,4.64-3-1.11-1c-4.39-4.06-5.35-6.79-6.2-9.2a14.08,14.08,0,0,0-2.49-4.82h0a5.79,5.79,0,0,0-1-2.94l-5.52-7.46c-.75-1-1.49-2-2.19-2.94l-.87-1.16.08-.08c6.87-6.34,40.84-38,48-51.28l1.39.32.46-.52s2.06-2.34,4.43-4.59c4.61-4.38,5.91-4.2,5.91-4.19l.69.22.51-.51C469.6,109.63,469.53,106.94,468.86,105.22Zm-4.45-3.33Z"/><path class="cls-4" d="M355.89,351.37,204.8,200.27l8.22-7-2.84-3.92-.94.61c-4.45,2.89-9.31,4.93-10.36,4.37L181,176.63l-4-4.17.62-1.88-.54-.85,1-2.47,4.84-4a6.12,6.12,0,0,0,5.2-1.11,4.78,4.78,0,0,0,1.25.37,4.7,4.7,0,0,0,3.66-.94c1.74-1.41,1.47-4,1.21-5.3l4.67-4.67L196,147l-1,1.1c-4.44,4.8-6.9,5.6-9.5,6.45-.35.11-.69.22-1,.35l-.07,0c-.95-.34-2.33.29-3.41,1-.08.06-7.71,5.68-11.61,8.62l-4-3.87-1.19-1.26c-12.82-13.6-35.58-36.9-46.34-42.73l.32-1.39-.53-.46s-2.33-2.06-4.59-4.43c-4.39-4.62-4.19-5.91-4.19-5.91l.22-.69-.51-.5c-1.32-1.33-4-1.26-5.73-.58a2.9,2.9,0,0,0-1.89-.37l-.16,0-.38.09a2.92,2.92,0,0,0-.38.14l-.14.06a3.26,3.26,0,0,0-.4.24l-.12.07-.31.25-.18.17-.18.19c-.08.1-.17.2-.24.3l-.08.13a3.18,3.18,0,0,0-.23.4l-.07.14c0,.13-.1.25-.14.39a2.58,2.58,0,0,0-.09.35l0,.17a2.9,2.9,0,0,0,.36,1.89c-.67,1.71-.74,4.41.58,5.74l.5.51.69-.23s1.3-.19,5.92,4.2c2.37,2.25,4.41,4.56,4.43,4.58l.46.53,1.39-.32c7.18,13.25,41.15,44.94,48,51.25l.11.11-.89,1.19-2.17,2.9-5.43,7.35-.08.12a5.67,5.67,0,0,0-1,2.94h0a14.08,14.08,0,0,0-2.49,4.82c-.85,2.41-1.81,5.13-6.2,9.2l-1.11,1,4.64,3,4.67-4.67c1.28.26,3.9.53,5.3-1.22a4.78,4.78,0,0,0,.58-4.9,6.19,6.19,0,0,0,1.11-5.21c2.46-3,5.18-6.32,6.28-8l2.18-.91,22.85,23.23a10.9,10.9,0,0,1-2.28,8.57l-.56.73.57.72c1.19,1.48,1.7,2.06,1.7,2.06l.91,1,6-7.3L345.84,361.41l15.38,5.52ZM99.38,107h0Z"/><path class="cls-5" d="M338.27,165.86c-23.87-9.78-56.58-19.18-56.58-19.18s-32.7,9.4-56.57,19.18c5.07,54.88-24.16,58.32-56.58,63.15,6,37.59,21.8,141.35,21.8,141.35l91.35,68.41L373,370.36S388.83,266.6,394.84,229C362.42,224.18,333.19,220.74,338.27,165.86Z"/><path class="cls-6" d="M288,385.11q-32.39,0-51.42-19.57t-19-55.05q0-34.22,19.09-54.56t51.46-20.34a110.84,110.84,0,0,1,15.47,1,102.47,102.47,0,0,1,13.14,2.7,95.48,95.48,0,0,1,10.73,4q5.8,2.52,9.37,4.35v34.32h-3.67q-2.61-2.33-6.57-5.56a82.14,82.14,0,0,0-9-6.33,58.94,58.94,0,0,0-11.07-5.27,36.91,36.91,0,0,0-12.61-2.18A40.36,40.36,0,0,0,279.58,265a34.29,34.29,0,0,0-12.42,8.55,41,41,0,0,0-8.84,14.89q-3.44,9.38-3.43,22.13,0,13.44,3.57,22.57a40.77,40.77,0,0,0,9.38,14.74,34,34,0,0,0,12.51,7.83,41.54,41.54,0,0,0,13.77,2.41,39.31,39.31,0,0,0,13.63-2.37,53.49,53.49,0,0,0,10.92-5.26,73.42,73.42,0,0,0,8.51-6.09c2.45-2.06,4.57-3.9,6.38-5.51h3.28v33.83q-4,1.83-9.18,4.2a82.78,82.78,0,0,1-10.73,4,119.36,119.36,0,0,1-12.66,3.1A97.31,97.31,0,0,1,288,385.11Z"/><polygon class="cls-6" points="287.79 186.58 308.53 187 291.16 198.34 297.17 218.19 281.02 205.18 264 217.03 271.38 197.65 254.85 185.13 275.57 186.16 282.37 166.57 287.79 186.58"/><path class="cls-3" d="M158.23,98a22.62,22.62,0,0,1-5,2.62,28.72,28.72,0,0,1-4.56,1.23L145,96.45l.52-.36a15.56,15.56,0,0,0,5.32-.31,13.93,13.93,0,0,0,4.56-1.94,12.67,12.67,0,0,0,1.22-1,5.93,5.93,0,0,0,1.08-1.22,3.54,3.54,0,0,0,.52-1.42,2.22,2.22,0,0,0-.42-1.51,2.07,2.07,0,0,0-1.62-.95,5.28,5.28,0,0,0-2.15.31c-.92.32-1.88.69-2.89,1.1a24.33,24.33,0,0,1-2.94,1,9.33,9.33,0,0,1-5.52,0A7.87,7.87,0,0,1,138.89,87a7.42,7.42,0,0,1-.79-7,13.5,13.5,0,0,1,5.45-6.58,24.57,24.57,0,0,1,4.35-2.33,22,22,0,0,1,4.38-1.32L155.81,75l-.51.34a13.72,13.72,0,0,0-4.36.26,11.84,11.84,0,0,0-4.28,1.79,8.94,8.94,0,0,0-1.28,1,6.26,6.26,0,0,0-1,1.27A3,3,0,0,0,144,81a2,2,0,0,0,.34,1.35,2.08,2.08,0,0,0,1.56,1,7.58,7.58,0,0,0,3-.7l2.57-1a24.71,24.71,0,0,1,2.74-.86,9.36,9.36,0,0,1,5.11-.08,7.18,7.18,0,0,1,3.75,3,8,8,0,0,1,1,7.3C163.22,93.67,161.28,96,158.23,98Z"/><path class="cls-3" d="M191,78.64l-6.15,3.22L179.13,71l-8.37,4.38,5.68,10.85-6.15,3.22L157.48,65l6.14-3.22,4.69,8.95,8.37-4.38-4.69-9,6.15-3.21Z"/><path class="cls-3" d="M214.16,54.85q2.35,6.27.35,11.12t-7.84,7q-5.85,2.19-10.55-.19c-3.13-1.59-5.48-4.45-7-8.57s-1.69-7.87-.37-11.11,3.93-5.61,7.83-7.08,7.41-1.4,10.54.16S212.59,50.67,214.16,54.85Zm-6.71,2.5a15.26,15.26,0,0,0-1.95-3.76,9,9,0,0,0-2.28-2.19,5.3,5.3,0,0,0-2.46-.81,5.85,5.85,0,0,0-2.35.36,5.14,5.14,0,0,0-3.32,3.46,8.62,8.62,0,0,0-.29,3.16,15.08,15.08,0,0,0,1,4.17,15.25,15.25,0,0,0,1.95,3.77A8.47,8.47,0,0,0,200,67.66a5.15,5.15,0,0,0,2.47.83,5.87,5.87,0,0,0,2.36-.36,5.76,5.76,0,0,0,2-1.33,5.23,5.23,0,0,0,1.28-2.24,9.26,9.26,0,0,0,.3-3.11A15.08,15.08,0,0,0,207.45,57.35Z"/><path class="cls-3" d="M245.23,61.39,238.73,63,223.89,46.69l4.48,18.73L222.2,66.9,215.78,40l8.28-2,12.25,13.34L232.63,36l6.17-1.48Z"/><path class="cls-3" d="M247.07,61l6-28.53,7.52-.88,12.5,26.35-7.1.83-2.37-5.4-8.62,1L254,60.18Zm14.49-12.43-3.86-8.72L256,49.22Z"/><path class="cls-3" d="M297.89,58.69c-4.15-.16-7.38-1.54-9.72-4.14s-3.41-6.17-3.24-10.71c.18-4.37,1.53-7.81,4.08-10.32A12.91,12.91,0,0,1,299,30a20.51,20.51,0,0,1,3,.3,20.92,20.92,0,0,1,2.51.62,18.29,18.29,0,0,1,2,.84c.73.35,1.32.65,1.77.91L308,39.26l-.71,0c-.32-.31-.72-.68-1.21-1.12a16,16,0,0,0-1.68-1.28,11.68,11.68,0,0,0-2.08-1.09,7,7,0,0,0-2.41-.51,7.78,7.78,0,0,0-2.77.36,6.67,6.67,0,0,0-2.45,1.55,7.69,7.69,0,0,0-1.8,2.78,12.22,12.22,0,0,0-.83,4.22,11.7,11.7,0,0,0,.52,4.36,7.87,7.87,0,0,0,1.68,2.9,6.66,6.66,0,0,0,2.34,1.6,8,8,0,0,0,2.63.56,7.47,7.47,0,0,0,2.63-.35,10.48,10.48,0,0,0,2.14-.93,12.39,12.39,0,0,0,1.67-1.1c.49-.38.91-.71,1.27-1l.63,0-.26,6.49-1.79.73a15.49,15.49,0,0,1-2.09.69,22.25,22.25,0,0,1-2.45.5A18.33,18.33,0,0,1,297.89,58.69Z"/><path class="cls-3" d="M307.71,58.47,321,32.54l7.49,1.12,5.12,28.71-7.06-1.06-.87-5.84-8.59-1.29-2.54,5.32ZM325,50.29l-1.44-9.43-4.14,8.59Z"/><path class="cls-3" d="M360.27,69.57l-8.17-2.21-4.79-11.79-2.4-.65-2.64,9.78-6.67-1.8,7.21-26.67,10.73,2.9a24.81,24.81,0,0,1,3.8,1.32,8.82,8.82,0,0,1,2.73,2,7.3,7.3,0,0,1,1.65,2.94,7.1,7.1,0,0,1-.13,3.8,8.63,8.63,0,0,1-2.72,4.6,10,10,0,0,1-4.51,2Zm-5.78-21.42a3.72,3.72,0,0,0,.08-1.83,2.64,2.64,0,0,0-1-1.47,4.92,4.92,0,0,0-1.3-.72c-.5-.18-1.14-.38-1.9-.59l-2.24-.6-1.94,7.18,1.91.52a14.7,14.7,0,0,0,2.42.47,3.68,3.68,0,0,0,1.86-.28,3.12,3.12,0,0,0,1.28-.94A4.7,4.7,0,0,0,354.49,48.15Z"/><path class="cls-3" d="M358.66,69.12l18.92-22.19,7,2.8L383,78.85,376.4,76.2l.48-5.87-8.06-3.23-3.69,4.6Zm18.67-4,.76-9.51-6,7.42Z"/><path class="cls-3" d="M405.53,91.12l-5.86-3.21-.1-22-9.24,16.9-5.57-3L398,55.52l7.47,4.08.14,18.12,7.6-13.89,5.56,3Z"/><path class="cls-3" d="M438,97.34q-3.94,5.41-9.1,6.41t-10.2-2.67q-5.06-3.69-5.64-8.92t3.3-10.58q3.92-5.39,9.07-6.42t10.22,2.65q5,3.68,5.66,8.89T438,97.34Zm-5.78-4.23a14.72,14.72,0,0,0,2.06-3.7,8.68,8.68,0,0,0,.58-3.11,5.18,5.18,0,0,0-.68-2.49A5.63,5.63,0,0,0,432.63,82a5.71,5.71,0,0,0-2.14-1,5.64,5.64,0,0,0-2.58.13,8.67,8.67,0,0,0-2.8,1.5,17.71,17.71,0,0,0-5,6.83,8.27,8.27,0,0,0-.55,3.08,5.18,5.18,0,0,0,.67,2.52,5.66,5.66,0,0,0,1.6,1.77,5.52,5.52,0,0,0,2.23,1,5,5,0,0,0,2.57-.16,9,9,0,0,0,2.77-1.46A15.1,15.1,0,0,0,432.26,93.11Z"/></svg>