<svg enable-background="new 0 0 566.9 566.9" viewBox="0 0 566.9 566.9" xmlns="http://www.w3.org/2000/svg"><circle cx="283.5" cy="283.5" fill="#fff" r="276.4"/><path d="m221.8 58.5.3-.5 44.9-6.1 2.4 3.5-.3.5-7 1 5 35.4-.3.5-4.5-.6-4.6-34.7-10.7 1.5c3 2.4 4.6 5.1 5 7.9.7 5.2-3 10-8.9 14.5 4.1 3.9 8.6 6.7 13.3 8.4l-1.3 5.5h-.3c-6-2.9-10.8-7.1-14.9-12.2-1.7.9-3.3 1.5-4.9 1.7-1.1.1-2.4-.6-4.2-2.5-.9-.9-1.4-1.8-1.5-2.6-.2-1.4.8-2.6 3.5-3 2.4-.3 4.5.1 6.9.9 1-.7 2.2-1.6 3.2-2.7-6.6-2.9-11.6-6.2-12.2-10.8-.1-.9-.1-1.9.3-3l-6.7.9zm14.1 7.1c.5 3.6 4.1 5.6 9.2 6.5 1.8-2.5 2.7-4.4 2.3-7.3-.4-3.1-3.3-5.7-6.4-5.2-3.5.4-5.5 2.9-5.1 6z"/><path d="m246.6 97.3c5.2 6.3 10.1 10.3 15 10 2.7-.2 6.4-2.3 6.2-5.1-.1-1.6-1.2-2.6-3-2.5-2 .1-3.6 1.2-5.2 2.7h-.3l-2.9-4.1c1.8-1.6 3.7-2.8 6.2-3s4.7 1 6.5 3.7c1.1 1.5 1.6 3.2 1.7 4.8.3 4.8-3.8 7.2-7.1 7.4-5.6.3-11.8-3.1-18.6-12v-.2z"/><path d="m269.8 51.7.3-.4 47.9 1.5 1.8 3.8-.3.4-20.4-.6-.4 12.1.1.1c2.4-2.2 5.1-3.5 8.1-3.4 5.1.2 8.8 4.9 8.6 10.2-.1 4.3-2.6 8.3-6 12.2h-.4l-4-3.1c3.8-4.1 6.5-8.1 6.6-11.7.1-1.9-.9-3.2-2.9-3.3-3.4-.1-7.1 2.6-10.3 6.3l-.4 16.4-.4.4-4.2-1.3.5-11.5-.1-.1c-2.6 2.1-5.3 2.9-8.1 2.8-7.1-.2-12-5.8-11.8-12 .2-5.9 5.2-9.1 11.6-8.9 2.9.1 5.9.6 8.9 1.5l.2-6.9-23.2-.7zm24.7 14.8c-1.9-.5-3.9-.7-6-.8-5.5-.2-9.7 3.4-9.9 7.4-.1 3.2 1.8 5 5.1 5.1s6.9-1.7 10.5-5.4z"/><path d="m300.1 94.5c1.1 0 2.2.1 3.2.2 3 .3 5.5 1.5 7.8 3.4 2.4 2 6.3 6.3 10.8 11.8l-1.4 1.7h-.2c-7.3-8.4-9.9-11.4-15.3-11.9-1.2-.1-2.5-.2-3.8-.1l-.1-.1z"/><path d="m319 53.5.4-.4 27.8 4 1.3 4-.4.4-9.5-1.4c.1 2.1 0 4.4-.4 6.6-1 6.8-5 10.2-10.4 12.1 2.7 4.3 7.5 8.8 13.5 13.2l-3.4 4.6-.5-.1c-5.9-6.1-10.6-12.1-13.6-18-1.5-3-2.1-5.5-1.9-6.9.1-.7.4-1.4 1-1.9.7-.7 1.9-1 3.9-.7 1.7.2 3.4.6 4.9.9 1-1.3 1.8-3.3 2.2-5.7.2-1.4.4-3.1.3-4.8l-13.8-2z"/><path d="m283.8 450.4c100.7 0 187.3-73.6 205-172.6 17.6-98.5-40.9-206.5-150.1-236.6-5.2-1.4-9.2-3.2-9.5-9.4-.3-7.2 3.4-11.3 10.5-10.3 14.7 2 28.7 6.8 42.3 12.5 88.2 37.6 143.7 103.3 162 197.3 27.6 141.5-63.9 277.5-203.4 308.1-142.4 31.2-282.4-56.8-315.6-199.1-33-141.6 54.1-284.1 198-318.4 10.5-2.5 16.1 2.1 14.5 11.6-.8 5.2-4.6 6.5-8.8 7.6-27.1 7.3-51.9 19.5-73.9 37.1-45.5 36.3-72.3 83.6-78.3 141.3-7.3 70.3 16.2 129.9 68.2 177.6 38.5 35.1 88 53.3 139.1 53.3z"/><g fill="#fff"><path d="m83.1 400.6c0 2.1.7 4.9 2.2 7.2 2.2 3.5 5.4 4.4 8 2.7 2.5-1.6 3-3.9 2.1-8.3-1.2-5.3-.7-9.4 3.1-11.8 4.1-2.6 9.4-1.1 12.6 4 1.7 2.7 2.3 5.1 2.4 6.7l-3.4.8c-.1-1.2-.4-3.4-1.9-5.8-2.3-3.6-5.3-3.6-7.1-2.5-2.5 1.6-2.7 4-1.8 8.5 1.1 5.6.4 9.2-3.5 11.7-4.1 2.6-9.5 1.8-13.5-4.4-1.6-2.6-2.6-5.8-2.6-7.8z"/><path d="m119.9 408.2-10.1 8.3 9.6 11.7 10.1-8.3 2.6 3.2-24.2 19.9-2.6-3.2 11.4-9.3-9.6-11.7-11.4 9.3-2.6-3.1 24.2-19.9z"/><path d="m138.9 429.8-12.6 13.7c-4.8 5.2-4.5 9.5-1.4 12.3 3.4 3.1 7.7 2.9 12.4-2.2l12.6-13.7 3 2.8-12.4 13.5c-6.5 7.1-12.9 6.6-17.9 2-4.7-4.3-5.8-10.3.8-17.5l12.5-13.6z"/><path d="m157.4 446 3.3 2.3-8.7 12.4.1.1c1.4-.5 2.7-.9 3.9-1.3l14.6-4.1 4.1 2.9-16.9 4.3-.4 21.8-3.9-2.8.4-18.5-4.4 1.1-6.9 9.8-3.3-2.3z"/><path d="m176.9 459.9c2 .6 4.7 1.8 7.1 3.1 3.8 2.1 5.9 4.1 6.7 6.6.7 2 .5 4.3-.7 6.4-2 3.6-5.6 4.8-9 4.2l-.1.1c1.7 1.9 1.9 4.5 1 7.8-1.2 4.3-2 7.3-2 8.7l-3.7-2c0-1 .7-3.7 1.7-7.6 1.3-4.2.6-6.5-2.6-8.4l-3.3-1.8-6.5 11.9-3.5-1.9zm-3.3 14.4 3.6 2c3.8 2.1 7.3 1.3 9.1-1.8 1.9-3.6.2-6.5-3.5-8.6-1.7-.9-3-1.4-3.7-1.6z"/><path d="m195 492.6-6.6 8-3.9-1.5 21.4-25.3 4.5 1.8-1.5 33.1-4-1.6.5-10.4zm10.7.8.5-9.5c.1-2.2.4-4.1.6-5.9h-.1c-1.1 1.6-2.3 3.1-3.6 4.7l-6.2 7.3z"/><path d="m247.7 516.9c-1.6.4-4.7.6-8.4-.2-8.7-1.8-14-8.6-12-18.7 2-9.6 9.8-14.8 19.4-12.8 3.8.8 6.1 2.1 7 2.9l-1.6 3c-1.4-1-3.4-2-5.9-2.6-7.2-1.5-12.9 2.1-14.6 10.2-1.6 7.5 1.8 13.2 9.3 14.8 2.4.5 5 .5 6.7.1z"/><path d="m282.1 504.8c-.8 10.8-7.7 16-15.7 15.4-8.3-.6-13.6-7.4-12.9-16.9.7-9.9 7.4-16 15.7-15.4 8.5.7 13.5 7.6 12.9 16.9zm-24.3-1.2c-.5 6.7 2.7 12.9 9.1 13.4s10.4-5.2 11-12.3c.4-6.2-2.3-12.9-9.1-13.4s-10.5 5.4-11 12.3z"/><path d="m289.1 520.6-2.3-31.3 4.4-.3 11.2 15.1c2.6 3.5 4.6 6.7 6.4 9.8l.1-.1c-.7-4.1-1-7.9-1.4-12.8l-1-13.1 3.8-.3 2.3 31.3-4.1.3-11.1-15.2c-2.4-3.3-4.8-6.7-6.6-10l-.1.1c.5 3.9.9 7.7 1.3 12.9l1 13.4z"/><path d="m320.5 512.6c2 .7 4.8 1.1 7.5.6 4.1-.8 6-3.4 5.4-6.5-.6-2.9-2.5-4.2-7-5-5.4-.8-9-2.8-9.9-7.1-1-4.8 2.3-9.1 8.3-10.3 3.1-.6 5.6-.4 7.1.1l-.4 3.5c-1.1-.3-3.3-.8-6.1-.3-4.2.8-5.3 3.7-4.9 5.8.6 2.9 2.7 3.9 7.3 4.7 5.6 1 8.8 2.9 9.7 7.5.9 4.7-1.7 9.6-9 11-3 .6-6.4.4-8.2-.4z"/><path d="m340.8 481 5.8 17.6c2.2 6.7 6.1 8.5 10.1 7.2 4.4-1.5 6.3-5.3 4.1-11.9l-5.8-17.6 3.9-1.3 5.8 17.4c3 9.1-.5 14.5-7 16.6-6.1 2-11.8.1-14.9-9.2l-5.8-17.5z"/><path d="m363.9 472.8 3.6-1.8 12.2 25.2 12.1-5.8 1.5 3.1-15.7 7.6z"/><path d="m386.1 465.5-8.3 4.8-1.7-3 20.1-11.6 1.7 3-8.3 4.8 13.9 24.2-3.5 2z"/><path d="m411.9 470.8 3.1 9.9-3.4 2.4-9.7-31.7 4-2.9 27 19.2-3.5 2.5-8.5-6zm6.5-8.6-7.8-5.5c-1.8-1.3-3.2-2.5-4.7-3.7l-.1.1c.7 1.8 1.4 3.6 2 5.5l2.8 9.2z"/><path d="m438.5 463-21.6-22.7 3.2-3.1 18.2 4.5c4.2 1.1 7.8 2.2 11.1 3.5v-.1c-3.2-2.8-5.9-5.5-9.2-9l-9.1-9.5 2.8-2.6 21.6 22.7-3 2.8-18.2-4.6c-4-1-8-2.2-11.5-3.5l-.1.1c2.9 2.7 5.6 5.4 9.2 9.1l9.2 9.7z"/><path d="m444 417.3-6 7.4-2.7-2.2 14.7-18 2.7 2.2-6.1 7.4 21.6 17.6-2.6 3.2z"/><path d="m472.8 417.7c1.9-.9 4.2-2.6 5.7-5 2.3-3.5 1.8-6.7-.9-8.4-2.5-1.6-4.8-1.1-8.5 1.5-4.3 3.3-8.3 4.5-12 2.1-4.1-2.7-4.9-8-1.6-13.1 1.8-2.7 3.7-4.2 5.1-5l2.2 2.7c-1 .6-3 1.8-4.5 4.2-2.3 3.6-1.1 6.3.7 7.5 2.5 1.6 4.7.8 8.5-1.9 4.6-3.3 8.2-4.2 12.1-1.7 4 2.7 5.6 7.9 1.5 14.1-1.7 2.5-4.2 4.8-6.1 5.6z"/></g><path d="m372.6 170.2c-2.4-11.8 14.4-28.1 14.4-28.1l-18.3-19.4s-58.9 44.6-49.4 68.8c8.7 22.3 53.6 54.1 45.5 76.6-7.5 20.8-59.2 58.8-60.4 64.5-2 9.7 1.3 27.6-2.1 35.9-5.9 14.4-22.1 12.9-22.1 12.9s-16.2 1.5-22.1-12.9c-3.4-8.3-.2-26.2-2.1-35.9-1.2-5.7-52.9-43.7-60.4-64.5-8.1-22.5 36.7-54.3 45.5-76.6 9.5-24.2-49.4-68.8-49.4-68.8l-18.3 19.4s16.8 16.3 14.4 28.1c-8.7 42.8-49.9 48.9-47.1 98.6 7 124.7 139.5 129 139.5 129s132.5-4.2 139.5-129c2.8-49.7-38.4-55.8-47.1-98.6z"/><ellipse cx="278.2" cy="259.3" rx="39.9" ry="39.9" transform="matrix(.9732 -.2298 .2298 .9732 -52.1383 70.8518)"/></svg>