<svg enable-background="new 0 0 113.4 113.4" viewBox="0 0 113.4 113.4" xmlns="http://www.w3.org/2000/svg"><circle cx="56.7" cy="56.7" fill="#00a5e6" r="56.7"/><circle cx="56.7" cy="56.7" fill="#fff" r="54.9"/><g fill="#00a5e6"><path d="m13.7 84.4 5.7-4.4 3 3.9c.6.8 1 1.3 1.1 1.5.4.6.5 1.2.3 1.6-.1.4-.6.9-1.3 1.5-.7.5-1.3.8-1.7.9-.3 0-.5 0-.8-.1s-.5-.3-.8-.7c-.2-.2-.6-.7-1.1-1.4l-1.7-2.2-1.4 1.1zm4.2-.5 1.7 2.2c.3.4.5.6.6.7s.2.1.2.2c.1.1.2.1.4 0s .3-.1.5-.3.3-.3.4-.4.1-.2 0-.4c0-.1-.2-.4-.6-1l-1.8-2.1z"/><path d="m25.7 97.3.3-1.3-3.6-3.1-1.3.5-1.9-1.6 7.6-3 2.6 2.2-1.9 8zm .8-3.1.7-3-.3-.3-2.8 1.2z"/><path d="m32.2 93.2 3.4 1.8.9 6.5.2.1 2.4-4.8 2 1-3.3 6.4-3.4-1.8-.9-6.5-.2-.1-2.4 4.8-2-1z"/><path d="m46.3 99c1.5.4 2.6.7 3.1.9.8.3 1.2.8 1.2 1.5 0 .5-.1 1.3-.4 2.4s-.5 1.9-.8 2.3c-.3.6-.9.9-1.8.8-.6-.1-1.6-.3-3.1-.6-1.5-.4-2.6-.7-3.1-.9-.8-.3-1.2-.8-1.2-1.5 0-.5.1-1.3.4-2.4s.5-1.8.7-2.2c.3-.6.9-.9 1.8-.8.6-.1 1.6.1 3.2.5zm-.5 1.8c-1.1-.3-1.8-.4-2.1-.4s-.5.1-.6.3-.3.7-.5 1.4c-.1.4-.2.7-.2.9 0 .4.2.6.6.8.3.1.9.3 1.8.5s1.4.3 1.7.4c.3 0 .5 0 .7-.1.1-.1.3-.2.4-.4s.2-.5.3-.9c.1-.5.2-.9.2-1.1s0-.4-.1-.6-.2-.3-.5-.4-.7-.1-1.7-.4z"/><path d="m58.2 104.8h2.2v.7c0 .6-.1 1-.3 1.3s-.6.6-1.1.7-1.5.2-2.8.1c-1.4 0-2.4-.1-2.9-.1-.6-.1-1-.2-1.3-.3s-.5-.3-.6-.6c-.1-.2-.2-.6-.2-1 0-.3 0-.9 0-1.8 0-.8 0-1.4.1-1.8s.1-.7.2-.9c.2-.5.6-.7 1.2-.9.6-.1 1.9-.2 3.7-.1.9 0 1.6.1 2 .1.4.1.8.1 1 .3.3.2.6.4.7.7s.2.8.2 1.4v.4h-2.2c0-.2 0-.4 0-.5s-.1-.1-.1-.2c-.1-.1-.3-.1-.6-.2-.3 0-.9-.1-1.6-.1s-1.2 0-1.4 0c-.3 0-.5.1-.6.2s-.2.3-.3.5c-.1.3-.1.6-.1 1.2v1.2c0 .2.1.4.3.5.1.1.3.2.6.2s.7.1 1.4.1h1.7c.3 0 .5-.1.6-.2s.1-.4.2-.9z"/><path d="m60.7 100.4 7.9-1.4.3 1.7-5.7 1.1.2 1 5.5-1 .3 1.6-5.5 1 .2 1.1 5.8-1.1.3 1.7-7.9 1.5z"/><path d="m78.9 102.6-1-.9-4.4 1.8-.1 1.4-2.3 1 .8-8.2 3.2-1.3 6.3 5.2zm-2.4-2.1-2.3-2-.4.2-.2 3.1z"/><path d="m78.1 95 3.1-2.3 6.2 2.1.2-.1-3.2-4.3 1.8-1.3 4.2 5.9-3.1 2.2-6.2-2.1-.2.1 3.2 4.3-1.8 1.3z"/><path d="m86.6 88.5 1.6-1.6 5.1 5.1-1.6 1.6z"/><path d="m99.3 84.6-1.4-.2-2.9 3.8.6 1.2-1.5 2-3.5-7.4 2-2.7 8.1 1.3zm-3.1-.6-3-.5-.3.4 1.4 2.8z"/><path d="m20.1 27.2 1.1-1.2c.2.2.4.3.5.2.1 0 .2-.1.3-.2s.4-.4.9-.9.8-.9.9-1 .2-.2.2-.3 0-.3-.2-.4c-.1-.1-.2-.2-.3-.1s-.3.1-.4.3-.5.5-1 1-.8.8-1 1c-.3.3-.5.5-.7.6s-.4.2-.6.2c-.3 0-.7-.2-1.1-.6-.5-.4-.7-.8-.7-1.2 0-.3.1-.6.3-.9s.7-.9 1.5-1.8c.6-.6 1-1 1.3-1.2.4-.3.8-.5 1.1-.5s.6.2 1 .5c0 0 .1.1.2.2l-1.1 1.2c-.1-.1-.2-.2-.3-.2s-.1 0-.2 0-.2.1-.3.2-.4.4-.8.9c-.5.5-.8.9-.9 1s0 .3.1.4.3.2.4.1.6-.5 1.3-1.3c.6-.7 1.1-1.1 1.3-1.3s.5-.3.7-.4.5-.1.7 0 .5.3.8.5c.4.4.6.7.7 1 .1.2.1.4 0 .6s-.2.4-.4.7-.7.8-1.4 1.6c-.6.6-1 1.1-1.3 1.3-.3.3-.6.4-.8.5s-.5.1-.7 0-.5-.3-.8-.5z"/><path d="m22.9 18.9 1.1-1 .8.9-1.1 1zm1.1 1.3 1.1-1 2.7 3-1.1 1z"/><path d="m30.5 18.6 1.2-.9c.2.4.3.7.2 1s-.2.5-.5.8-.7.6-1.2 1c-.5.3-.9.6-1.1.7-.3.1-.5.2-.8.2-.2 0-.5-.1-.7-.2-.2-.2-.5-.4-.8-.9-.2-.3-.4-.6-.5-.7-.1-.2-.2-.3-.2-.5-.1-.4.1-.7.3-1s .7-.6 1.3-1.1c.5-.4.9-.7 1.2-.8.4-.2.8-.3 1.1-.2s.7.5 1.1 1c0 .1.1.2.2.3l-3.2 2.3c.1.2.2.3.3.3.1.1.2.1.3.1.2 0 .5-.2.9-.5.3-.2.5-.4.6-.5s.2-.2.2-.3c.1.1.1 0 .1-.1zm-.7-1c-.1-.1-.2-.2-.2-.2s-.1-.1-.2-.1c-.2 0-.5.1-1 .5-.4.3-.7.5-.7.7-.1.2 0 .4.1.6z"/><path d="m30.8 15 1.2-.7.3.5h.1c0-.3.1-.5.2-.8s.4-.4.8-.6c.5-.3 1-.4 1.3-.3s.6.4.9.9c0 0 .1.1.1.2l-1.2.7c-.1-.2-.2-.3-.3-.4-.2-.1-.4-.1-.8.1-.3.2-.5.4-.5.6v.4s.1.3.3.6l.8 1.5-1.2.8z"/><path d="m35.6 12.4 1.3-.6.2.6h.1c0-.3.1-.5.3-.7s.5-.4.9-.5c.6-.2 1-.3 1.3-.2s.6.5.8 1c0 0 0 .1.1.3l-1.3.5c-.1-.2-.2-.4-.3-.4-.2-.1-.4-.1-.8 0-.3.1-.5.3-.6.6v.4c0 .1.1.4.2.6l.7 1.5-1.4.6z"/><path d="m42.4 11.1-1.4.4c-.1-.3-.1-.6 0-.7.1-.3.3-.5.7-.7.3-.2.9-.4 1.8-.7.6-.2 1.1-.3 1.3-.3s.5 0 .7.1.3.2.4.4.2.4.3.8l.7 2.3-1.4.4-.2-.5h-.1c0 .3-.2.5-.4.6-.1.1-.3.2-.5.3s-.6.2-1 .3-.7.2-.9.2-.4 0-.6-.1-.4-.4-.5-.8c-.1-.5-.1-.8.1-1.1.1-.2.3-.4.6-.5s.8-.3 1.6-.5c.3-.1.6-.1.7-.1s.3 0 .5.1h.1l-.2-.2c-.1-.3-.2-.5-.3-.5s-.4 0-.9.1-.8.3-.9.3c-.2.1-.2.2-.2.4zm1.3.8c-.5.1-.8.3-.9.3-.1.1-.2.2-.1.4 0 .2.1.2.3.3s.4 0 .8-.1c.5-.1.8-.3 1-.4s.2-.3.2-.4c0-.2-.2-.2-.3-.3s-.5 0-1 .2z"/><path d="m49.3 12.2-.5-5.7 4.1-.3c.7-.1 1.2-.1 1.4-.1h.7c.6.1 1 .4 1.2.9.1.2.1.4.2.6 0 .2.1.6.1 1 0 .5.1.9.1 1.2s0 .5-.1.7c-.1.5-.5.8-1 1-.2.1-.5.1-.8.2-.3 0-.7.1-1.4.1zm1.6-1.6 2.4-.2c.4 0 .8-.1 1-.1s.4-.1.4-.2c.1-.1.1-.2.2-.4 0-.2 0-.4 0-.8s-.1-.6-.1-.8-.1-.3-.2-.4-.2-.1-.4-.2c-.2 0-.5 0-1.1 0l-2.4.3z"/><path d="m57.5 7.6 1.4.1v.6h.1c.2-.2.4-.4.6-.5s.6-.1 1-.1c.6 0 1 .2 1.2.4.2.3.3.7.3 1.3v.3l-1.4-.1c0-.2 0-.4 0-.5-.1-.2-.3-.3-.7-.3s-.6.1-.8.2c-.1.1-.1.2-.2.4 0 .1-.1.4-.1.7l-.1 1.7-1.5-.1z"/><path d="m65.7 8.4c.7.1 1.2.2 1.5.4.3.1.6.3.7.4.2.2.3.4.3.6s0 .6-.1 1.1c-.1.4-.1.6-.2.8s-.1.3-.2.5c-.2.3-.5.5-1 .5-.4 0-1-.1-1.8-.2-.7-.1-1.3-.3-1.6-.4s-.5-.3-.7-.5-.2-.4-.3-.7 0-.7.1-1.2c.1-.3.1-.6.2-.7s.1-.3.2-.4c.2-.3.5-.4.9-.4.5 0 1.1.1 2 .2zm-.2 1.1c-.5-.1-.8-.1-1-.1-.1 0-.2.1-.3.2s-.1.3-.2.6c0 .3-.1.5 0 .6 0 .1.1.2.2.3.2.1.5.2 1 .3.6.1.9.1 1.1 0s .3-.3.4-.8c0-.3.1-.5 0-.6 0-.1-.1-.2-.2-.3-.2 0-.5-.1-1-.2z"/><path d="m69.4 9.3 1.3.4-.2.6h.1c.2-.2.5-.3.7-.3.3 0 .7 0 1.1.2.5.2.8.3 1 .5s.4.4.5.6.2.5.1.7c0 .2-.1.6-.3 1.1l-.6 1.7-1.4-.5.6-1.7c.1-.3.2-.5.2-.6s0-.2-.1-.3c-.1-.2-.4-.4-.9-.5-.5-.2-.9-.2-1.1-.1-.1.1-.2.2-.3.3s-.2.4-.3.7l-.5 1.5-1.4-.5z"/><path d="m76.3 9.9 1.4.7-1 2h .1c.2-.2.5-.2.7-.2.3 0 .6.1 1.1.4.4.2.8.4 1 .6s.4.4.5.6.1.5.1.7c0 .3-.2.6-.4 1.1-.1.3-.3.5-.4.7s-.2.3-.3.4c-.2.2-.5.3-.9.3s-.9-.2-1.5-.5-1-.6-1.2-.9c-.1-.1-.1-.3-.1-.5h-.1l-.2.5-1.3-.8zm1.4 3.7c-.5-.2-.8-.3-1-.3-.1 0-.2.1-.3.1s-.2.3-.3.5c-.1.3-.2.4-.2.6 0 .1 0 .2.2.4s.4.3.8.5c.5.2.8.3 1 .3.1 0 .2-.1.3-.2s.2-.3.3-.5.2-.4.2-.5 0-.2-.1-.3c-.2-.2-.5-.4-.9-.6z"/><path d="m83.8 15.8c.6.4 1 .7 1.2.9.3.2.4.5.5.7s.1.5 0 .7-.2.6-.5 1c-.2.3-.4.5-.5.7-.1.1-.2.3-.4.4-.3.2-.7.3-1.1.1-.4-.1-.9-.4-1.6-.9-.6-.4-1.1-.7-1.3-1-.2-.2-.4-.5-.5-.7s-.1-.5 0-.7.3-.6.6-1.1c.2-.3.3-.5.5-.6.1-.1.2-.2.4-.3.3-.2.6-.2 1-.1s1 .4 1.7.9zm-.6 1c-.4-.3-.7-.4-.9-.5-.1 0-.3 0-.4.1s-.3.2-.4.5c-.1.2-.2.4-.3.5 0 .1 0 .2.1.4s.4.4.8.7c.5.3.8.5 1 .5s.4-.2.7-.5c.1-.2.2-.4.3-.5 0-.1 0-.3-.1-.4-.1-.4-.4-.6-.8-.8z"/><path d="m87.9 17.7 1.1 1-.6.7 1.8 1.6-.7.8-1.8-1.6-.8.9c-.2.2-.3.4-.3.5 0 .2.1.3.3.5s.4.3.5.2c.1 0 .1-.1.1-.1s.1-.1.3-.3l1 .9c-.3.3-.5.5-.6.6s-.3.2-.5.2-.5 0-.7-.1c-.3-.1-.6-.3-1-.7-.4-.3-.6-.6-.8-.8-.1-.2-.2-.4-.2-.6s0-.3 0-.4.1-.3.3-.5c0-.1.2-.2.4-.5l.8-.9-.6-.5.7-.8.6.5z"/><path d="m88.8 23.3 1 1.1c-.1.1-.1.3-.1.5.1.2.3.4.6.8s.6.6.7.7c.2.1.3.1.4 0s .1-.2 0-.4c0-.1-.3-.4-.8-1-.5-.5-.8-.9-.9-1-.3-.4-.4-.7-.3-1 .1-.2.2-.4.4-.6.4-.4.9-.5 1.3-.3.3.2.9.6 1.6 1.4.5.5.8.9 1 1.2s.3.5.3.7c0 .1 0 .3-.1.4s-.2.3-.3.4l-1-1.1c.1-.1.1-.2.1-.2 0-.1-.2-.4-.6-.8-.3-.3-.6-.6-.7-.7-.2-.1-.3-.1-.4 0s-.1.3 0 .5c.1.1.6.7 1.4 1.5.4.4.6.8.6 1.1s-.1.6-.5.9c-.2.2-.4.3-.6.4s-.4 0-.6-.1c-.4-.2-.9-.6-1.7-1.5-.5-.5-.8-1-1-1.2-.2-.3-.3-.5-.3-.8s.2-.6.5-.9z"/><path d="m16.3 56.7c0-22.3 18.1-40.4 40.4-40.4s40.3 18.1 40.3 40.4-18.1 40.3-40.4 40.3c-22.2 0-40.3-18.1-40.3-40.3zm39.9-36.6c-9.6 12.2-19.2 24.4-28.8 36.5.2.7.5 1 .8 1.4 4 5.1 8.1 10.2 12.1 15.3 5.1 6.4 10.1 12.8 15.2 19.2.4.5.7 1.1 1.6.7 9.5-12 19.1-24.2 28.6-36.2 0-.6-.2-.8-.4-1.1-9.2-11.7-18.5-23.5-27.8-35.2-.3-.4-.6-.8-1.3-.6z"/></g><path d="m56.2 20.1c.6-.2.9.2 1.2.5 9.4 11.8 18.7 23.6 28 35.4.2.2.4.5.4 1.1-9.5 12-19.1 24.1-28.6 36.2-.9.3-1.3-.3-1.6-.7-5.1-6.4-10.1-12.8-15.2-19.2-4-5.1-8.1-10.2-12.1-15.3-.3-.4-.6-.7-.8-1.4 9.5-12.2 19.2-24.4 28.7-36.6zm-1.6 36.6h4v10.8h5c0-3.7 0-7.2 0-10.8h20.8c-9.4-11.9-18.6-23.5-27.8-35.1-9.3 11.7-18.4 23.3-27.7 35.1h20.7v10.8h4.9c.1-3.7.1-7.3.1-10.8z" fill="#fefeff"/><path d="m49.7 56.7c-6.8 0-13.6 0-20.7 0 9.3-11.7 18.4-23.3 27.7-35.1 9.1 11.6 18.3 23.2 27.7 35.1-7.1 0-14 0-20.8 0-.1-3.6.2-7.2-.1-10.9-1.7 0-3.3 0-4.9 0v10.9c-1.3 0-2.7 0-4 0 0-3.6 0-7.2 0-10.9-1.7 0-3.2 0-4.9 0z" fill="#00a5e6"/><path d="m63.6 56.7v10.8c-1.7 0-3.3 0-5 0 0-3.6 0-7.2 0-10.8z" fill="#00a9e8"/><path d="m54.6 56.7v10.8c-1.6 0-3.2 0-4.9 0 0-3.6 0-7.2 0-10.8z" fill="#00a6e6"/><path d="m63.6 56.7c-1.7 0-3.4 0-5 0 0-3.6 0-7.2 0-10.9h4.9c.2 3.6 0 7.3.1 10.9z" fill="#feffff"/><path d="m54.6 56.7c-1.6 0-3.3 0-4.9 0 0-3.6 0-7.2 0-10.9h4.9z" fill="#feffff"/></svg>