<?xml version="1.0" encoding="UTF-8"?><svg id="Capa_1" xmlns="http://www.w3.org/2000/svg" xmlns:xlink="http://www.w3.org/1999/xlink" viewBox="0 0 566.93 566.93"><defs><style>.cls-1{font-size:33.96px;}.cls-1,.cls-2,.cls-3,.cls-4,.cls-5,.cls-6,.cls-7,.cls-8,.cls-9,.cls-10,.cls-11,.cls-12,.cls-13,.cls-14,.cls-15,.cls-16,.cls-17,.cls-18,.cls-19,.cls-20,.cls-21,.cls-22,.cls-23,.cls-24,.cls-25,.cls-26{fill:#fff;font-family:Tahoma-Bold, Tahoma;font-weight:700;}.cls-27{fill:#f1c411;}.cls-27,.cls-28,.cls-29,.cls-30,.cls-31{stroke-width:0px;}.cls-2{font-size:34.96px;}.cls-3{font-size:34.96px;}.cls-4{font-size:33.96px;}.cls-5{font-size:34.96px;}.cls-6{font-size:34.96px;}.cls-32{clip-path:url(#clippath-2);}.cls-28{fill:#35495e;}.cls-7{font-size:34.96px;}.cls-8{font-size:34.96px;}.cls-29{fill:none;}.cls-9{font-size:34.96px;}.cls-30{fill:#be1622;}.cls-10{font-size:33.96px;}.cls-11{font-size:33.96px;}.cls-33{clip-path:url(#clippath-1);}.cls-34{clip-path:url(#clippath-4);}.cls-12{font-size:33.96px;}.cls-31{fill:#f6f8fb;}.cls-13{font-size:34.96px;}.cls-14{font-size:34.96px;}.cls-35{clip-path:url(#clippath);}.cls-15{font-size:34.96px;}.cls-16{font-size:33.96px;}.cls-36{clip-path:url(#clippath-3);}.cls-17{font-size:33.96px;}.cls-37{clip-path:url(#clippath-5);}.cls-18{font-size:34.96px;}.cls-19{font-size:34.96px;}.cls-20{font-size:33.96px;}.cls-21{font-size:33.96px;}.cls-22{font-size:33.96px;}.cls-23{font-size:33.96px;}.cls-24{font-size:33.96px;}.cls-25{font-size:34.96px;}.cls-26{font-size:33.96px;}</style><clipPath id="clippath"><rect class="cls-29" width="566.93" height="566.93"/></clipPath><clipPath id="clippath-1"><rect class="cls-29" x="4.25" y="4.26" width="558.43" height="558.42"/></clipPath><clipPath id="clippath-2"><rect class="cls-29" x="4.25" y="4.26" width="558.43" height="558.42"/></clipPath><clipPath id="clippath-3"><rect class="cls-29" width="566.93" height="566.93"/></clipPath><clipPath id="clippath-4"><rect class="cls-29" x="75.15" y="75.15" width="416.64" height="416.63"/></clipPath><clipPath id="clippath-5"><rect class="cls-29" x="75.15" y="75.15" width="416.64" height="416.63"/></clipPath></defs><g class="cls-35"><path class="cls-28" d="M284.4,4.35c-.31,0-.63-.01-.94-.01C129.31,4.34,4.34,129.31,4.34,283.46s124.97,279.13,279.13,279.13c.31,0,.63-.01.94-.01,153.72-.51,278.19-125.27,278.19-279.11S438.13,4.86,284.4,4.35"/><path class="cls-30" d="M284.17,75.16c-.23,0-.47,0-.7,0-115.05,0-208.32,93.27-208.32,208.32s93.27,208.32,208.32,208.32c.23,0,.47,0,.7,0,114.73-.38,207.61-93.49,207.61-208.31s-92.89-207.93-207.61-208.31"/><g class="cls-33"><g class="cls-32"><path class="cls-27" d="M480.9,86.03c52.74,52.74,81.78,122.86,81.78,197.43s-29.04,144.7-81.78,197.43c-52.74,52.74-122.85,81.78-197.43,81.78s-144.69-29.04-197.43-81.78C33.29,428.16,4.25,358.05,4.25,283.46s29.04-144.69,81.78-197.43C138.77,33.3,208.89,4.26,283.46,4.26s144.69,29.04,197.43,81.77M556.68,283.46c0-150.65-122.57-273.21-273.22-273.21S10.24,132.81,10.24,283.46s122.57,273.22,273.22,273.22,273.22-122.56,273.22-273.22"/></g></g></g><text class="cls-10" transform="translate(112.71 142.95) rotate(-47.97)"><tspan x="0" y="0">T</tspan></text><text class="cls-1" transform="translate(126.13 127.81) rotate(-42.23)"><tspan x="0" y="0">O</tspan></text><text class="cls-21" transform="translate(145.06 110.64) rotate(-35.95)"><tspan x="0" y="0">R</tspan></text><text class="cls-24" transform="translate(164.54 96.54) rotate(-30.08)"><tspan x="0" y="0">C</tspan></text><text class="cls-21" transform="translate(183.62 85.35) rotate(-24.03)"><tspan x="0" y="0">H</tspan></text><text class="cls-20" transform="translate(206.86 75.14) rotate(-18.39)"><tspan x="0" y="0">L</tspan></text><text class="cls-24" transform="translate(224.89 69.18) rotate(-13.94)"><tspan x="0" y="0">I</tspan></text><text class="cls-4" transform="translate(240.29 65.13) rotate(-8.75)"><tspan x="0" y="0">G</tspan></text><text class="cls-11" transform="translate(264.66 61.32) rotate(-2.36)"><tspan x="0" y="0">H</tspan></text><text class="cls-26" transform="translate(290.04 60.38) rotate(3.51)"><tspan x="0" y="0">T</tspan></text><text class="cls-12" transform="translate(310.39 61.79) rotate(7.39)"><tspan x="0" y="0"> </tspan></text><text class="cls-11" transform="translate(319.9 62.76) rotate(11.62)"><tspan x="0" y="0">B</tspan></text><text class="cls-23" transform="translate(342.13 67.26) rotate(17.75)"><tspan x="0" y="0">R</tspan></text><text class="cls-17" transform="translate(365.06 74.77) rotate(23.03)"><tspan x="0" y="0">I</tspan></text><text class="cls-17" transform="translate(379.8 80.79) rotate(28.41)"><tspan x="0" y="0">G</tspan></text><text class="cls-16" transform="translate(401.51 92.56) rotate(34.63)"><tspan x="0" y="0">A</tspan></text><text class="cls-24" transform="translate(420.19 105.35) rotate(40.82)"><tspan x="0" y="0">D</tspan></text><text class="cls-22" transform="translate(439.16 121.85) rotate(46.75)"><tspan x="0" y="0">E</tspan></text><text class="cls-22" transform="translate(453.06 136.89) rotate(50.71)"><tspan x="0" y="0"> </tspan></text><text class="cls-7" transform="translate(103.02 453.46) rotate(43.19)"><tspan x="0" y="0">S</tspan></text><text class="cls-18" transform="translate(120.13 469.31) rotate(38.65)"><tspan x="0" y="0">I</tspan></text><text class="cls-2" transform="translate(134.23 480.61) rotate(34.31)"><tspan x="0" y="0">L</tspan></text><text class="cls-19" transform="translate(151.88 492.68) rotate(29.16)"><tspan x="0" y="0">V</tspan></text><text class="cls-6" transform="translate(173.79 504.77) rotate(23.81)"><tspan x="0" y="0">E</tspan></text><text class="cls-14" transform="translate(194.83 514.08) rotate(18.25)"><tspan x="0" y="0">R</tspan></text><text class="cls-9" transform="translate(220.42 522.35) rotate(12.62)"><tspan x="0" y="0">S</tspan></text><text class="cls-8" transform="translate(243.39 527.41) rotate(7.46)"><tspan x="0" y="0">T</tspan></text><text class="cls-3" transform="translate(266.03 530.37) rotate(2.08)"><tspan x="0" y="0">A</tspan></text><text class="cls-3" transform="translate(291.52 531.26) rotate(-3.8)"><tspan x="0" y="0">R</tspan></text><text class="cls-25" transform="translate(317.96 529.17) rotate(-8.08)"><tspan x="0" y="0"> </tspan></text><text class="cls-25" transform="translate(329.19 527.77) rotate(-12.09)"><tspan x="0" y="0">P</tspan></text><text class="cls-13" transform="translate(353.2 522.61) rotate(-17.98)"><tspan x="0" y="0">R</tspan></text><text class="cls-5" transform="translate(378.59 514.1) rotate(-23.17)"><tspan x="0" y="0">I</tspan></text><text class="cls-15" transform="translate(395.71 507.09) rotate(-29.09)"><tspan x="0" y="0">M</tspan></text><text class="cls-7" transform="translate(424.32 490.74) rotate(-35.58)"><tspan x="0" y="0">E</tspan></text><text class="cls-19" transform="translate(442.94 477.35) rotate(-40.9)"><tspan x="0" y="0">S</tspan></text><g class="cls-36"><g class="cls-34"><g class="cls-37"><path class="cls-27" d="M430.77,136.16c39.35,39.35,61.02,91.66,61.02,147.3s-21.67,107.96-61.02,147.3c-39.35,39.35-91.65,61.02-147.3,61.02s-107.95-21.67-147.3-61.02c-39.35-39.34-61.02-91.65-61.02-147.3s21.67-107.95,61.02-147.3c39.35-39.34,91.66-61.01,147.3-61.01s107.95,21.67,147.3,61.01M487.31,283.46c0-112.4-91.45-203.84-203.84-203.84s-203.84,91.44-203.84,203.84,91.45,203.84,203.84,203.84,203.84-91.44,203.84-203.84"/></g></g><path class="cls-28" d="M189.58,284.35c31.2-31.24,62.47-62.56,93.59-93.72,31.13,31.15,62.4,62.46,93.51,93.59-31.11,31.11-62.45,62.44-93.68,93.67-31.01-31.05-62.28-62.36-93.43-93.55M201.72,284.1c27.27,27.29,54.47,54.5,81.47,81.51,27.04-27.05,54.24-54.25,81.06-81.06-27.09-27.13-54.32-54.4-81.45-81.58-26.91,26.93-54.05,54.08-81.07,81.12"/><path class="cls-31" d="M477.02,284.32c-35.23,6.48-70.47,12.96-106.39,19.57,6.99-6.55,13.61-12.76,20.59-19.3-7.19-6.88-13.73-13.14-20.26-19.4.19-.27.37-.54.56-.81,35.16,6.47,70.33,12.93,105.49,19.4,0,.18.01.37.02.55"/><path class="cls-31" d="M283.45,90.22c6.44,35.08,12.88,70.15,19.33,105.23-.17.11-.33.22-.5.32-6.19-6.38-12.37-12.77-18.71-19.31-6.7,6.92-12.86,13.28-19.02,19.64-.34-.2-.68-.39-1.01-.59,6.44-35.1,12.88-70.19,19.32-105.28.2,0,.39-.01.59-.02"/><path class="cls-31" d="M175.51,285.1c6.3,6.06,12.6,12.13,19.36,18.63-35.41-6.51-70.16-12.9-104.92-19.3-.01-.26-.03-.52-.05-.77,34.82-6.4,69.65-12.81,105.43-19.39-7.14,6.76-13.65,12.91-20.15,19.07.11.58.22,1.17.33,1.75"/><path class="cls-31" d="M282.64,476.66c-6.33-34.46-12.66-68.92-18.99-103.38.2-.13.4-.26.6-.4,6.11,6.36,12.23,12.72,18.88,19.64,6.63-6.97,12.71-13.36,18.79-19.75.24.17.48.33.73.5-6.34,34.48-12.67,68.96-19.01,103.44-.34-.02-.67-.03-1.01-.05"/><path class="cls-28" d="M195.79,353.39c-3.39,4.93-6.59,9.57-9.61,13.95-22.58-22.66-45.07-45.22-67.34-67.57,1.88.33,4.4.75,6.92,1.21,4.38.8,8.71,1.93,13.12,2.37,6.04.61,10.63,3.19,14.88,7.6,12.91,13.38,26.22,26.39,39.36,39.55.85.85,1.64,1.76,2.67,2.88"/><path class="cls-28" d="M267.51,449.1c-22.75-22.75-45.22-45.21-67.91-67.9,4.47-3.1,9.16-6.36,14.02-9.72,3.85,2.86,6.82,6.44,10.09,9.68,11.98,11.88,23.83,23.89,35.79,35.78,1.81,1.8,2.87,3.77,3.3,6.27,1.48,8.55,3.1,17.08,4.71,25.89"/><path class="cls-28" d="M447.84,299.82c-22.37,22.38-44.84,44.85-67.61,67.63-3.05-4.41-6.35-9.16-10.18-14.7,3.33-3.02,6.65-5.81,9.72-8.86,12.13-12.02,24.21-24.11,36.25-36.22,1.63-1.64,3.4-2.8,5.68-3.21,8.55-1.55,17.1-3.13,25.65-4.69.26-.05.54.07.48.06"/><path class="cls-28" d="M352.59,371.43c4.88,3.39,9.59,6.64,14.17,9.82-22.74,22.74-45.26,45.27-67.94,67.97.93-5.19,1.84-10.33,2.76-15.46.14-.79.4-1.58.44-2.38.36-8.49,4.49-14.66,10.63-20.44,13.08-12.32,25.53-25.32,38.25-38.04.42-.42.9-.78,1.7-1.47"/><path class="cls-28" d="M447.56,268.25c-9.64-1.8-19.06-3.55-28.47-5.35-1.1-.21-1.99-.95-2.79-1.75-14.99-15.01-29.98-30.03-44.97-45.04-.28-.28-.49-.62-.98-1.26,3.27-4.74,6.56-9.51,9.78-14.19,22.49,22.55,44.8,44.91,67.43,67.59"/><path class="cls-28" d="M196.45,215.53c-5.4,5.14-10.73,10.07-15.9,15.16-9.99,9.86-19.91,19.8-29.8,29.75-1.49,1.5-3.12,2.5-5.19,2.87-8.35,1.52-16.69,3.05-25.03,4.57-.56.1-1.15.34-1.55.05,22.33-22.36,44.63-44.7,67.19-67.28,3.14,4.55,6.39,9.25,10.28,14.88"/><path class="cls-28" d="M298.91,119.64c22.6,22.58,44.92,44.89,67.43,67.38-4.55,3.14-9.25,6.38-13.82,9.54-1.64-.45-2.37-1.62-3.28-2.52-14.3-14.26-28.57-28.56-42.85-42.84-1.01-1.01-1.96-2.03-2.24-3.51-1.73-9.32-3.48-18.64-5.24-28.05"/><path class="cls-28" d="M213.78,196.57c-4.6-3.17-9.24-6.38-13.59-9.38,22.46-22.45,44.83-44.82,67.04-67.02-.6,3.39-1.28,7.3-1.99,11.21-.43,2.39-1.24,4.76-1.3,7.15-.22,8-4.46,13.5-10,18.82-12.69,12.16-24.94,24.78-37.38,37.21-.7.7-1.28,1.58-2.78,2.02"/><path class="cls-31" d="M220.66,329.92c5.53,5.58,10.91,11,16.57,16.71-17.09,11.78-34.36,23.69-51.64,35.6-.19-.19-.38-.39-.57-.58,11.89-17.26,23.78-34.52,35.64-51.74"/><path class="cls-31" d="M329.03,346.6c5.66-5.68,11.05-11.09,16.62-16.69,12.02,17.45,24.07,34.95,36.12,52.45-.13.12-.25.23-.38.35-17.45-12.03-34.89-24.06-52.36-36.11"/><path class="cls-31" d="M345.37,238.57c-5.74-5.72-11.1-11.05-16.81-16.74,17.49-12.07,34.94-24.1,52.39-36.14.18.16.35.32.53.48-12.05,17.49-24.09,34.97-36.1,52.4"/><path class="cls-31" d="M185.77,185.99c17.25,11.89,34.51,23.78,51.65,35.6-5.62,5.52-11.11,10.91-16.81,16.51-11.61-16.86-23.53-34.16-35.45-51.46.2-.21.41-.43.61-.64"/><polygon class="cls-27" points="295.97 283.61 293.3 287.81 293.3 310.82 294.99 310.82 294.99 332.57 270.02 332.57 270.02 310.82 271.7 310.82 271.7 287.81 269.03 283.61 271.7 279.4 271.7 256.11 256.13 256.11 270.02 234.36 294.99 234.36 294.99 256.11 285.31 256.11 293.3 260.18 293.3 279.4 295.97 283.61"/></g></svg>