<?xml version="1.0" encoding="UTF-8"?><svg id="Capa_1" xmlns="http://www.w3.org/2000/svg" viewBox="0 0 566.93 566.93"><defs><style>.cls-1{fill:#f6f6f6;}.cls-1,.cls-2,.cls-3,.cls-4,.cls-5{stroke-width:0px;}.cls-6{font-size:34px;}.cls-6,.cls-7{fill:#fff;font-family:Tahoma-Bold, Tahoma;font-weight:700;}.cls-2{fill:#35495e;}.cls-3{fill:#f1c410;}.cls-7{font-size:35px;}.cls-4{fill:#dadada;}.cls-5{fill:#b2b2b2;}</style></defs><path class="cls-2" d="M284.36,16.67c-.3,0-.6-.01-.9-.01C136.11,16.66,16.66,136.11,16.66,283.46s119.45,266.81,266.81,266.81c.3,0,.6-.01.9-.01,146.94-.49,265.91-119.74,265.91-266.79S431.3,17.16,284.36,16.67Z"/><path class="cls-3" d="M480.9,86.03c52.74,52.74,81.78,122.86,81.78,197.43s-29.04,144.7-81.78,197.43c-52.74,52.74-122.85,81.78-197.43,81.78s-144.69-29.04-197.43-81.78C33.29,428.16,4.25,358.05,4.25,283.46s29.04-144.69,81.78-197.43C138.77,33.3,208.89,4.26,283.46,4.26s144.69,29.04,197.43,81.77ZM556.68,283.46c0-150.65-122.57-273.21-273.22-273.21S10.24,132.81,10.24,283.46s122.57,273.22,273.22,273.22,273.22-122.56,273.22-273.22Z"/><text class="cls-6" transform="translate(65.11 248.77) rotate(-78.31)"><tspan x="0" y="0">S</tspan></text><text class="cls-6" transform="translate(69.36 228.2) rotate(-73.13)"><tspan x="0" y="0">E</tspan></text><text class="cls-6" transform="translate(75.1 208.69) rotate(-67.32)"><tspan x="0" y="0">N</tspan></text><text class="cls-6" transform="translate(85.17 185.11) rotate(-62.03)"><tspan x="0" y="0">I</tspan></text><text class="cls-6" transform="translate(92.42 170.95) rotate(-56.74)"><tspan x="0" y="0">O</tspan></text><text class="cls-6" transform="translate(106.43 149.59) rotate(-50.43)"><tspan x="0" y="0">R</tspan></text><text class="cls-6" transform="translate(122.06 131.09) rotate(-46.13)"><tspan x="0" y="0"> </tspan></text><text class="cls-6" transform="translate(128.66 124.07) rotate(-42.85)"><tspan x="0" y="0">I</tspan></text><text class="cls-6" transform="translate(140.16 113.07) rotate(-37.55)"><tspan x="0" y="0">N</tspan></text><text class="cls-6" transform="translate(160.49 97.55) rotate(-31.6)"><tspan x="0" y="0">S</tspan></text><text class="cls-6" transform="translate(178.32 86.53) rotate(-26.09)"><tspan x="0" y="0">P</tspan></text><text class="cls-6" transform="translate(197.89 76.95) rotate(-20.62)"><tspan x="0" y="0">E</tspan></text><text class="cls-6" transform="translate(216.92 69.72) rotate(-15.06)"><tspan x="0" y="0">C</tspan></text><text class="cls-6" transform="translate(238.28 63.99) rotate(-9.48)"><tspan x="0" y="0">T</tspan></text><text class="cls-6" transform="translate(258.19 60.49) rotate(-3.43)"><tspan x="0" y="0">O</tspan></text><text class="cls-6" transform="translate(283.65 58.97) rotate(3.08)"><tspan x="0" y="0">R</tspan></text><text class="cls-6" transform="translate(307.82 60.54) rotate(7.48)"><tspan x="0" y="0"> </tspan></text><text class="cls-6" transform="translate(317.33 61.57) rotate(11.45)"><tspan x="0" y="0">S</tspan></text><text class="cls-6" transform="translate(337.87 65.57) rotate(17.53)"><tspan x="0" y="0">O</tspan></text><text class="cls-6" transform="translate(362.21 73.22) rotate(24.26)"><tspan x="0" y="0">N</tspan></text><text class="cls-6" transform="translate(385.46 83.76) rotate(30.56)"><tspan x="0" y="0">Y</tspan></text><text class="cls-6" transform="translate(404.6 95.02) rotate(36.45)"><tspan x="0" y="0">A</tspan></text><text class="cls-6" transform="translate(422.81 108.75) rotate(40.66)"><tspan x="0" y="0"> </tspan></text><text class="cls-6" transform="translate(430.19 114.88) rotate(44.38)"><tspan x="0" y="0">L</tspan></text><text class="cls-6" transform="translate(443.8 128.03) rotate(49.75)"><tspan x="0" y="0">A</tspan></text><text class="cls-6" transform="translate(458.47 145.35) rotate(55.49)"><tspan x="0" y="0">C</tspan></text><text class="cls-6" transform="translate(471.06 163.51) rotate(61.37)"><tspan x="0" y="0">R</tspan></text><text class="cls-6" transform="translate(482.64 184.56) rotate(67.68)"><tspan x="0" y="0">O</tspan></text><text class="cls-6" transform="translate(492.19 208.35) rotate(72.97)"><tspan x="0" y="0">I</tspan></text><text class="cls-6" transform="translate(497.01 223.54) rotate(77.9)"><tspan x="0" y="0">X</tspan></text><text class="cls-6" transform="translate(501.58 245.92) rotate(82.03)"><tspan x="0" y="0"> </tspan></text><text class="cls-7" transform="translate(109.08 459.53) rotate(40.84)"><tspan x="0" y="0">G</tspan></text><text class="cls-7" transform="translate(130.01 477.35) rotate(35.46)"><tspan x="0" y="0">L</tspan></text><text class="cls-7" transform="translate(147.45 489.89) rotate(29.93)"><tspan x="0" y="0">O</tspan></text><text class="cls-7" transform="translate(172.08 503.71) rotate(24.96)"><tspan x="0" y="0">-</tspan></text><text class="cls-7" transform="translate(186.81 510.69) rotate(20.45)"><tspan x="0" y="0">P</tspan></text><text class="cls-7" transform="translate(209.82 519.29) rotate(14.54)"><tspan x="0" y="0">O</tspan></text><text class="cls-7" transform="translate(237.36 526.18) rotate(8.98)"><tspan x="0" y="0">L</tspan></text><text class="cls-7" transform="translate(258.09 529.27) rotate(5.4)"><tspan x="0" y="0"> </tspan></text><text class="cls-7" transform="translate(269.59 530.75) rotate(.47)"><tspan x="0" y="0">M</tspan></text><text class="cls-7" transform="translate(302.56 530.72) rotate(-6.11)"><tspan x="0" y="0">A</tspan></text><text class="cls-7" transform="translate(327.94 527.96) rotate(-12.04)"><tspan x="0" y="0">R</tspan></text><text class="cls-7" transform="translate(354.25 522.18) rotate(-17.81)"><tspan x="0" y="0">S</tspan></text><text class="cls-7" transform="translate(376.87 514.95) rotate(-23.79)"><tspan x="0" y="0">H</tspan></text><text class="cls-7" transform="translate(402.78 503.35) rotate(-30.02)"><tspan x="0" y="0">A</tspan></text><text class="cls-7" transform="translate(424.68 490.51) rotate(-35.44)"><tspan x="0" y="0">L</tspan></text><text class="cls-7" transform="translate(442.07 478.11) rotate(-40.59)"><tspan x="0" y="0">S</tspan></text><path class="cls-3" d="M430.76,136.16c39.35,39.35,61.02,91.66,61.02,147.3s-21.67,107.96-61.02,147.3c-39.35,39.35-91.65,61.02-147.3,61.02s-107.95-21.67-147.3-61.02c-39.35-39.34-61.02-91.65-61.02-147.3s21.67-107.95,61.02-147.3c39.35-39.34,91.66-61.01,147.3-61.01s107.95,21.67,147.3,61.01ZM487.31,283.46c0-112.4-91.45-203.84-203.84-203.84s-203.84,91.44-203.84,203.84,91.45,203.84,203.84,203.84,203.84-91.44,203.84-203.84Z"/><polygon class="cls-1" points="283.46 334.07 218.34 368.31 230.78 295.79 178.09 244.43 250.9 233.85 283.46 167.87 316.03 233.85 388.84 244.43 336.15 295.79 348.59 368.31 283.46 334.07"/><polygon class="cls-5" points="378.05 247.81 312.67 238.31 283.46 179.13 283.46 328.32 341.91 359.05 330.74 293.93 378.05 247.81"/><path class="cls-1" d="M283.46,401.95c-70.41,0-127.69-57.28-127.69-127.69s57.28-127.69,127.69-127.69,127.69,57.28,127.69,127.69-57.28,127.69-127.69,127.69ZM283.46,151.91c-67.47,0-122.35,54.89-122.35,122.35s54.89,122.35,122.35,122.35,122.35-54.89,122.35-122.35-54.89-122.35-122.35-122.35Z"/><path class="cls-1" d="M463.81,265.21c-3.6-2.36-5.06-6.25-7.78-20.82-3.96-21.16-13.98-46.74-24.76-63.22-5.46-8.35-17.75-23.6-20.37-25.28-1-.64,1.79,3.27,6.19,8.69,15.85,19.53,29.06,53.92,29.6,77.05.17,7.29-.15,9.43-1.6,10.89-1.7,1.71-1.97,1.71-4.59,0-1.53-1-3.25-3.07-3.83-4.59-.58-1.52-1.34-2.48-1.68-2.13-1.36,1.36-3.22,12.19-2.85,16.64.37,4.46,5.04,19.74,6.74,22.01.44.59,1.69,3.71,2.79,6.94,2.71,7.98,2.72,29.8,0,38.71-3.22,10.59-10.14,19.02-16.91,20.63-2.33.55-3.55.05-6.14-2.54-3.75-3.75-4.32-9.4-1.61-15.88.89-2.13,1.43-4.05,1.21-4.27-.7-.7-7,7.02-9.11,11.18-2.73,5.37-5.09,14.94-6.34,25.7-1.44,12.41-6.38,22.15-16.2,31.98-10.86,10.86-21.85,15.65-26.11,11.38-2.4-2.4-2.08-5.98.94-10.43l2.62-3.86-4.49,1.75c-6.39,2.49-9.64,4.89-20.49,15.14-11.98,11.31-19.25,16.04-30.62,19.93-7.81,2.67-10.39,3.04-20.76,2.96-18.68-.14-34.37-4.51-46.71-12.99-2.61-1.79-9.31-7.56-14.9-12.82-9.99-9.41-14.24-12.36-20.26-14.09l-3.04-.87,2.71,3.22c4.64,5.51,3.34,11.56-2.63,12.26-7.67.89-24.13-11.78-31.86-24.55-4.09-6.76-6.03-13.47-7.63-26.55-1.49-12.12-4.65-20.15-10.34-26.3l-4.6-4.97,1.59,4.67c3.52,10.37.7,18.29-6.53,18.29-4.69,0-12.05-6.49-15.37-13.55-2.6-5.52-5.36-19.61-5.36-27.36,0-7.2,2.72-18.37,6.9-28.26,6.18-14.66,6.98-23.02,3.19-33.31-.77-2.09-1.43-2.91-1.47-1.84-.08,2.11-5.61,8.2-7.44,8.2-2.46,0-4.52-6.42-3.88-12.09,1.27-11.23,1.87-14.32,4.91-25.51,6.74-24.76,13-37.15,28.2-55.81,2.37-2.91,3.59-4.85,2.72-4.32-.87.53-2.76,2.37-4.2,4.07-1.44,1.71-3.23,3.72-3.99,4.48-2.74,2.74-13.36,18.11-16.91,24.47-5.82,10.42-13.93,30.54-17.26,42.81-.16.59-1.08,5.39-2.04,10.68-2.43,13.4-4.76,19.73-8.17,22.25-2.52,1.86-3.12,1.94-4.7.62-1-.83-2.44-2.95-3.21-4.71-1.34-3.07-1.4-2.91-1.41,3.74-.03,12.52,3.41,21.99,12.23,33.65,6.92,9.15,8.73,13.46,11.21,26.71,3.06,16.33,4.83,22.6,8.64,30.52,7.11,14.78,17.92,25.77,39.37,40.01,15.09,10.02,22.71,19.3,19.26,23.46-2.62,3.16-12.45.74-20.67-5.08l-3.35-2.37,2.01,3.19c5.13,8.14,10.15,11.63,21.49,14.93,5.5,1.6,8.99,1.76,24.58,1.14,21.85-.87,27.99.14,44.98,7.41,16.95,7.26,20.46,8.04,34.04,7.62,11.49-.36,12.07-.5,26.19-6.38h0c18.81-7.82,22.2-8.4,44.3-7.54,15.1.59,19.32.41,25.04-1.06,8.52-2.2,14.51-5.91,19.02-11.81,4.01-5.24,4.56-7.32,1.07-4.04-3.54,3.33-11.45,6.61-15.98,6.64-4.36.03-6.81-2.7-5.67-6.29,1.06-3.34,11.25-12.46,23.41-20.94,15.98-11.15,21.17-15.72,27.82-24.48,10.38-13.68,12.74-20.16,17.73-48.6,1.42-8.1,3.64-12.74,10.76-22.54,2.89-3.97,6.42-9.79,7.85-12.93,2.91-6.4,4.89-18.69,3.83-23.74l-.7-3.33-.7,3.41c-.96,4.66-4.32,6.39-7.88,4.06Z"/><path class="cls-1" d="M469.35,246.55c-1.51-1.25-1.6-1.12-.77,1.15,1.18,3.22.74,11.53-.68,12.95-2.72,2.72-4.64-1.26-8.31-17.31-1.41-6.16-3.8-15.05-5.31-19.76-6.49-20.25-20.88-46.61-32.58-59.74-6.58-7.38-21.59-20.31-27.24-23.47-8.23-4.6-9.78-4.26-3.12.68,3.52,2.61,9.93,8.5,14.24,13.08,21.92,23.31,36.61,55.71,38.3,84.49.48,8.23.31,10.99-.75,11.65-2.14,1.32-4.26-2.5-4.26-7.69,0-8.7-4.73-4.81-8.06,6.62-2.69,9.26-1.44,18.44,4.66,34.17l4.97,12.82v14.42c.02,11.16-.41,15.67-1.9,19.95-5.05,14.5-16.94,22.18-19.36,12.52-1.41-5.64,1.34-12.8,7.59-19.71,4.52-5,2.97-5.38-4.51-1.1-12.24,7.02-19.58,19.82-21.4,37.31-1.47,14.14-5.86,23.67-15.4,33.39-9.23,9.41-20.75,15.22-22.99,11.59-1.24-2,2.73-6.45,7.64-8.56,6.92-2.97,5.14-4.59-4.36-3.98-10.44.67-16.45,4.13-29.86,17.21-11.8,11.51-15.63,14.15-26.81,18.44-6.72,2.58-8.9,2.87-21.88,2.94-11.89.06-15.9-.35-22.88-2.34-14.13-4.02-18.81-6.86-32.27-19.52-6.87-6.47-14.7-12.86-17.39-14.2-6.52-3.25-14.63-5.15-18.4-4.33-3.94.87-3.94,3.34,0,4.21,3.99.88,9.19,6.27,8.3,8.6-.52,1.36-1.45,1.58-4.14,1-5.15-1.11-8.69-3.18-14.94-8.72-11.83-10.5-16.95-20.02-18.92-35.18-2.09-16.07-6.06-25.4-14.11-33.13-8.99-8.63-19.91-12.64-11.89-4.37,7.46,7.69,10.05,17.77,5.68,22.14-2.54,2.54-4.6,1.99-9.46-2.53-7.24-6.74-10.75-17.59-10.82-33.44-.04-10.11.17-10.95,8.35-33.4,2.88-7.9,3.85-18.73,2.33-26.03-1.26-6.06-5.07-13-6.98-12.69-.59.1-1.32,2.62-1.64,5.61-.53,5.06-2.46,8.01-4.45,6.78-1.37-.85-.98-13.08.7-21.86,3.92-20.5,11.78-40.01,22.65-56.2,6.58-9.81,22.19-26.46,30.27-32.3,3.44-2.48,4.05-3.25,2.14-2.7-10.28,2.95-34.19,24.66-44.11,40.04-11.35,17.59-23.53,45.73-26.8,61.95-3.23,15.99-5.9,22.99-8.43,22.15-1.8-.6-2.74-6.48-1.83-11.46.69-3.78.59-4.14-.84-2.96-4.3,3.57-6.83,15.5-5.53,26.11,1.04,8.47,4.66,16.29,12.37,26.71,6.84,9.24,9.41,15.06,10.55,23.83,1.89,14.59,7.15,31.65,12.45,40.35,1.33,2.18,4.92,7.14,7.99,11.02,5.34,6.75,9,9.73,32.39,26.37,9.02,6.42,15.24,13.18,13.61,14.81-.32.32-2.56.26-4.96-.15-5.99-1.01-13.59-6.42-18.01-12.82l-3.69-5.34.62,5.52c.84,7.47,4.8,14.88,11.1,20.78,9.97,9.33,23.8,12.13,46.79,9.48,10.6-1.22,12.78-1.17,20.21.49,8.33,1.85,17.57,5.32,30.39,11.4,3.75,1.78,8.8,3.62,11.22,4.1h0c6.94,1.37,19,1.15,23.09-.44,2.06-.8,8.28-3.46,13.84-5.91,18.9-8.36,17.22-8.07,43.72-7.73,25.99.33,31.17-.42,40.38-5.82,8.95-5.25,16.39-17.24,16.3-26.29l-.04-4.51-1.68,3.2c-2.64,5.02-7.92,10.1-13.42,12.91-5.14,2.63-11.52,3.45-11.52,1.48,0-2.33,9.05-10.73,17.93-16.66,21.43-14.29,32.15-25.24,39.17-40.01,3.9-8.22,7.32-19.31,8.54-27.69,1.11-7.65,3.87-18.41,5.62-21.9.88-1.76,3.68-5.88,6.21-9.15,6.99-9.02,11.08-17.88,12.13-26.26,1.48-11.85-.88-23.03-5.72-27.04ZM472.39,257.74l.7,3.33c1.06,5.05-.92,17.34-3.83,23.74-1.43,3.14-4.96,8.96-7.85,12.93-7.13,9.8-9.34,14.44-10.76,22.54-4.99,28.45-7.35,34.92-17.73,48.6-6.65,8.77-11.84,13.34-27.82,24.48-12.15,8.48-22.34,17.59-23.41,20.94-1.14,3.59,1.32,6.32,5.67,6.29,4.53-.03,12.44-3.31,15.98-6.64,3.49-3.28,2.94-1.2-1.07,4.04-4.51,5.9-10.5,9.61-19.02,11.81-5.72,1.47-9.93,1.65-25.04,1.06-22.1-.86-25.49-.28-44.3,7.54h0c-14.13,5.88-14.7,6.02-26.19,6.38-13.58.43-17.1-.36-34.04-7.62-16.99-7.27-23.14-8.29-44.98-7.41-15.59.62-19.08.46-24.58-1.14-11.34-3.3-16.36-6.78-21.49-14.93l-2.01-3.19,3.35,2.37c8.23,5.82,18.05,8.24,20.67,5.08,3.45-4.16-4.17-13.44-19.26-23.46-21.45-14.24-32.26-25.23-39.37-40.01-3.81-7.92-5.59-14.19-8.64-30.52-2.48-13.25-4.29-17.57-11.21-26.71-8.81-11.65-12.25-21.12-12.23-33.65.02-6.64.08-6.8,1.41-3.74.77,1.76,2.21,3.88,3.21,4.71,1.58,1.31,2.19,1.23,4.7-.62,3.41-2.51,5.74-8.85,8.17-22.25.96-5.29,1.88-10.09,2.04-10.68,3.33-12.27,11.45-32.39,17.26-42.81,3.55-6.36,14.17-21.73,16.91-24.47.76-.76,2.55-2.77,3.99-4.48,1.44-1.71,3.33-3.54,4.2-4.07.87-.53-.35,1.41-2.72,4.32-15.2,18.66-21.45,31.05-28.2,55.81-3.05,11.19-3.64,14.28-4.91,25.51-.64,5.66,1.42,12.09,3.88,12.09,1.84,0,7.36-6.09,7.44-8.2.04-1.07.7-.25,1.47,1.84,3.79,10.29,2.99,18.65-3.19,33.31-4.17,9.89-6.9,21.06-6.9,28.26,0,7.75,2.76,21.84,5.36,27.36,3.32,7.06,10.68,13.55,15.37,13.55,7.22,0,10.05-7.92,6.53-18.29l-1.59-4.67,4.6,4.97c5.7,6.15,8.85,14.18,10.34,26.3,1.61,13.07,3.54,19.79,7.63,26.55,7.74,12.76,24.19,25.44,31.86,24.55,5.97-.7,7.27-6.74,2.63-12.26l-2.71-3.22,3.04.87c6.02,1.73,10.27,4.68,20.26,14.09,5.59,5.26,12.29,11.03,14.9,12.82,12.33,8.49,28.02,12.85,46.71,12.99,10.37.08,12.95-.29,20.76-2.96,11.37-3.89,18.64-8.62,30.62-19.93,10.85-10.24,14.1-12.65,20.49-15.14l4.49-1.75-2.62,3.86c-3.02,4.44-3.34,8.03-.94,10.43,4.27,4.27,15.26-.52,26.11-11.38,9.82-9.82,14.76-19.56,16.2-31.98,1.25-10.76,3.61-20.33,6.34-25.7,2.11-4.15,8.4-11.88,9.11-11.18.22.22-.32,2.15-1.21,4.27-2.71,6.48-2.13,12.13,1.61,15.88,2.59,2.59,3.81,3.09,6.14,2.54,6.78-1.61,13.69-10.05,16.91-20.63,2.71-8.91,2.71-30.72,0-38.71-1.1-3.23-2.35-6.36-2.79-6.94-1.69-2.27-6.37-17.54-6.74-22.01-.37-4.45,1.49-15.28,2.85-16.64.35-.35,1.11.61,1.68,2.13.58,1.52,2.3,3.58,3.83,4.59,2.62,1.72,2.89,1.72,4.59,0,1.45-1.46,1.76-3.61,1.6-10.89-.53-23.13-13.74-57.52-29.6-77.05-4.4-5.42-7.18-9.33-6.19-8.69,2.62,1.68,14.91,16.94,20.37,25.28,10.78,16.48,20.8,42.06,24.76,63.22,2.73,14.57,4.18,18.46,7.78,20.82,3.56,2.33,6.92.6,7.88-4.06l.7-3.41Z"/><path class="cls-4" d="M282.62,436.93s13.05,1.84,30.27-4.67c12.52-4.74,28.35-15.9,41-29.54,0,0-.75,7.82,5.63,9.67,2.6.75,13.46,4.1,32.61-17.56,19.15-21.66,14.4-36.55,16.02-43.31,1.63-6.76,4.38-13.77,4.38-13.77,0,0-.63,14.15,8.01,16.02,8.64,1.88,20.28-9.26,24.03-26.66,3.76-17.4,1.75-35.55-2.88-46.19-4.63-10.64-5.44-19.04-4.9-25.77,0,0,2.71,5.24,8.72,3.74,6.01-1.5,4.25-37.19-6.29-56.9,0,0,10.18,14.02,14.18,38.31,3.94,23.94,4.88,31.64,16.81,28.26,0,0-1.82,15.24-8.83,22.63-7.01,7.39-10.33,16.81-11.8,24.79-1.08,5.85-3.38,26.91-10.26,39.43-6.89,12.52-23.41,28.29-38.56,38.43-15.15,10.14-25.41,20.03-20.84,25.91,4.57,5.88,17.28.69,17.28.69,0,0-13.58,10.26-41,8.45-27.41-1.82-36.33,4.4-41.18,6.7-18.34,8.68-24.1,6.57-30.67,6.26-6.57-.31-7.86-3.71-1.72-4.9Z"/><path class="cls-4" d="M282.62,436.93s-10.38.55-27.59-5.96c-12.52-4.74-28.02-14.62-40.66-28.26,0,0,.75,7.82-5.63,9.67-2.6.75-13.46,4.1-32.61-17.56-19.15-21.66-13.3-31.17-16.02-43.31-1.52-6.78-6.26-14.15-6.26-14.15,0,0,2.5,14.52-6.13,16.4-8.64,1.88-21.39-10.53-24.91-27.98-4.76-23.6-.88-34.24,3.76-44.88,4.63-10.64,5.44-19.04,4.9-25.77,0,0-2.71,5.24-8.72,3.74-6.01-1.5-7.89-20.59,4.57-57.4,0,0-9.33,14.33-13.33,38.62-3.94,23.94-4.35,32.05-16.27,28.67,0,0,1.4,14.57,7.82,22.47,6.92,8.51,10.67,15.93,12.14,23.91,1.08,5.85,4.38,27.73,11.27,40.25,6.89,12.52,23.41,28.29,38.56,38.43,15.15,10.14,25.41,20.03,20.84,25.91-4.57,5.88-17.28.69-17.28.69,0,0,8.86,8.79,36.27,6.98,27.41-1.82,39.9,5.68,44.89,7.68,20.45,8.19,32.38,7.51,38.95,7.2,6.57-.31-1.44-5.16-8.55-5.35Z"/></svg>