<svg enable-background="new 0 0 113.4 114.1" viewBox="0 0 113.4 114.1" xmlns="http://www.w3.org/2000/svg"><circle cx="56.7" cy="57.4" fill="#fff" r="56.7"/><circle cx="56.7" cy="56.1" fill="#fff" r="53.7"/><path d="m112.2 57.7c0 25.9-18.3 48.6-43.4 54-29.9 6.5-59-11.8-66-41.6-7-29.5 11.2-59.3 41.3-66.5 1.7-.4 2.6-.1 3 1.1.5 1.3-.1 2.5-1.5 3.1-1.8.8-3.7 1.4-5.5 2.2-14.4 6.5-23.2 17.6-25.6 33.2-3.6 22.8 12.1 44.4 34.7 48.4 23.3 4.1 45.6-11.3 49.8-34.5 3.8-21.1-8.6-41.8-29-48.4-.7-.2-1.3-.5-2-.8-1.4-.7-1.9-1.8-1.4-3.1.4-1.1 1.3-1.5 2.8-1.1 3.5.8 7 1.9 10.2 3.5 17.4 8.3 28.1 22 31.8 41 .2.8.3 1.6.4 2.5.2 2.2.4 4.6.4 7z" fill="#050302"/><path d="m52.8 10.7c0-2.3 0-4.5 0-6.7 0-2.3 1.6-3.9 3.8-4 2.2 0 3.9 1.7 4 4v6.7c3.3.3 6.4 1 9.4 2.2 11.8 4.5 19.9 12.6 23.7 24.6 4.5 14.2 1.6 27.2-8.4 38.4-5.5 6.2-12.5 10-20.6 11.8-2.2.5-4.2-.9-4.7-3.1-.4-2 .9-4.1 3-4.6 6.2-1.4 11.5-4.2 15.9-8.7 5.1-5.2 7.9-11.5 8.7-18.7 1.6-14.9-8-29.1-22.7-33.1-3.6-1-7.3-1.2-11-.9-10.5.9-18.5 5.9-23.9 14.8-11 17.9-1.1 41.5 19.4 46.4 1.8.4 3.3 1.1 3.9 2.9.9 2.8-1.6 5.5-4.4 5-6.2-1.3-11.9-3.9-16.8-8-8.6-7-13.4-16.1-14.3-27.1-1.6-18.4 10.5-35.6 28.2-40.5 2.2-.7 4.4-1.2 6.8-1.4z" fill="#080504"/><path d="m40.9 45.4h31.6c-.7-2.9-2-5.3-4-7.3-2-2.1-4.3-3.5-7-4.4-1.5-.5-2.4-1.5-2.7-3s .2-2.8 1.4-3.8c.9-.8 1.9-.9 3.1-.6 8.9 2.4 15.8 10.5 17.1 19.6 1.7 12.5-6.5 23.4-17.2 26.3-1.8.5-3 0-3.8-1.4-.9-1.6-.6-3.7.8-4.9.6-.5 1.3-.8 2-1 5.2-1.8 9.3-6.2 10.4-11.5-10.5 0-21 0-31.7 0 1.4 5 4.3 8.6 9 10.8.7.3 1.5.6 2.2.8 2.8 1 3.5 4.6 1.4 6.6-.9.8-1.8 1.1-2.9.7-9.8-3.2-15.9-9.7-17.4-19.9-1.9-12 6-22.8 16.8-26 1.9-.6 3.4.1 4.2 1.7.9 1.7.4 3.7-1 4.9-.5.4-1.1.6-1.7.9-5.4 1.9-8.9 5.6-10.5 11.1-.1.1-.1.2-.1.4z" fill="#080504"/></svg>