<svg viewBox="0 0 566.93 566.93" xmlns="http://www.w3.org/2000/svg"><circle cx="283.46" cy="283.46" fill="none" r="276.38" stroke="#2d3d4f" stroke-miterlimit="10" stroke-width="6"/><ellipse cx="283.46" cy="283.46" fill="#2e3e50" rx="266.46" ry="262.2"/><path d="m283.46 15.38c-148.06 0-268.09 120-268.09 268.08s120 268.09 268.09 268.09 268.09-120 268.09-268.09-120.02-268.08-268.09-268.08zm0 463.61c-109.73.01-198.69-87.54-198.69-195.53s89-195.52 198.69-195.52 198.7 87.54 198.7 195.52-88.96 195.54-198.7 195.54z" fill="#2e3e50"/><g fill="#fff"><path d="m283.46 71.63c-117 0-211.84 94.84-211.84 211.83s94.85 211.84 211.84 211.84 211.84-94.84 211.84-211.84-94.84-211.83-211.84-211.83zm0 366.33c-86.71 0-157-69.17-157-154.5s70.29-154.46 157-154.46 157 69.17 157 154.49-70.28 154.51-157 154.51z"/><path d="m143.5 112.88-19 18-27-28.55 7.17-6.78 21.85 23.1 11.88-11.24z"/><path d="m142.7 113.17-11.79-39.76 8.8-6.2 33.49 24.47-8.31 5.85-6.63-5.14-10.09 7.11 2.61 8zm9.69-25.36-10.74-8.28 4.18 12.9z"/><path d="m211.58 73.63-8.92 4.1-10.89-23.65.53 18.26-6.11 2.81-13.52-12.27 10.89 23.65-8.43 3.89-16.44-35.69 10.31-4.73 16 14-.23-21.25 10.33-4.76z"/><path d="m245.34 52.53a11.41 11.41 0 0 1 .2 5.26 10.71 10.71 0 0 1 -2 4.29 13.6 13.6 0 0 1 -4.11 3.6 25.15 25.15 0 0 1 -6.35 2.38l-15.24 3.88-9.69-38.07 13.45-3.43a49.82 49.82 0 0 1 6.44-1.3 12.68 12.68 0 0 1 4.39.32 7.53 7.53 0 0 1 3.81 2.16 9 9 0 0 1 2.09 4 9.29 9.29 0 0 1 -.13 5.31 8.42 8.42 0 0 1 -3 4.18l.05.2a10.81 10.81 0 0 1 6.43 1.59 9 9 0 0 1 3.66 5.63zm-16.23-12.53a4.41 4.41 0 0 0 -1-1.77 2.94 2.94 0 0 0 -1.82-1 6.24 6.24 0 0 0 -2.36.13c-.86.19-2.15.5-3.85.94l-.67.17 2.05 8 1.2-.31c1.64-.41 2.78-.72 3.43-.92a5.57 5.57 0 0 0 1.9-1.06 3.19 3.19 0 0 0 1.2-1.88 5.4 5.4 0 0 0 -.08-2.3zm6.34 14.86a4.77 4.77 0 0 0 -1.45-2.58 4.39 4.39 0 0 0 -2.53-1 7.55 7.55 0 0 0 -2.49.23c-1 .24-2.38.57-4.09 1l-1.76.45 2.43 9.54.51-.13q3.74-.94 5.15-1.37a8.11 8.11 0 0 0 2.78-1.39 3.92 3.92 0 0 0 1.49-2.13 5.29 5.29 0 0 0 -.04-2.62z"/><path d="m285.78 41.13a20 20 0 0 1 -1.58 10 17.92 17.92 0 0 1 -5.5 7.14 17.16 17.16 0 0 1 -6.44 3.09 49.42 49.42 0 0 1 -7.59 1.19l-12.25 1-3.23-39.16 12.15-1a55.22 55.22 0 0 1 7.78-.11 17 17 0 0 1 7 2 17.74 17.74 0 0 1 6.66 6.17 20.73 20.73 0 0 1 3 9.68zm-10.1.75a15.16 15.16 0 0 0 -1.87-6.5 9.7 9.7 0 0 0 -4.45-4 9.49 9.49 0 0 0 -4.29-.87c-1.47.05-3.22.16-5.26.33h-.18l2 24.51h.18c2.21-.18 4.07-.38 5.58-.58a8.83 8.83 0 0 0 4.23-1.77 9.81 9.81 0 0 0 3.34-4.5 15.5 15.5 0 0 0 .72-6.62z"/><path d="m287.51 60.67 16.58-38 10.73.92 9.86 40.28-10.12-.87-1.76-8.2-12.3-1.06-3.13 7.78zm23.74-13.17-2.88-13.25-5.11 12.57z"/><path d="m356.71 73.56q-7.51-2.5-10.34-7.49t-.48-12l8-23.8 9.35 3.13-7.78 23.25q-1.33 3.91-.46 6.35c.55 1.59 1.92 2.76 4.13 3.5a6.12 6.12 0 0 0 5.35-.24c1.42-.88 2.57-2.66 3.47-5.35l7.79-23.24 9.36 3.13-8 23.77q-2.31 6.89-7.49 9.25t-12.9-.26z"/><path d="m407.53 96.64-8.32-4.59v-31.29l-13.21 23.98-8-4.36 19-34.38 10.6 5.85.11 25.76 10.89-19.73 7.9 4.36z"/><path d="m428.26 112.66-16.8-12.87 4.18-5.45 4.48 3.44 15.55-20.29-4.48-3.44 4.18-5.44 16.79 12.87-4.16 5.45-4.48-3.44-15.52 20.29 4.48 3.44z"/><path d="m437.71 121.42 22.43-22.53-8.22-8.19 5.29-5.31 23.44 23.35-5.29 5.31-8.22-8.2-22.44 22.53z"/><path d="m131.65 474a10.24 10.24 0 0 1 -3.84 2.75 9.36 9.36 0 0 1 -4.19.62 12.34 12.34 0 0 1 -4.73-1.29 23.35 23.35 0 0 1 -4.92-3.59l-10.42-9.51 23.75-26 9.2 8.39a44.81 44.81 0 0 1 4.15 4.18 11.52 11.52 0 0 1 1.93 3.45 6.8 6.8 0 0 1 .26 3.92 8.1 8.1 0 0 1 -2 3.53 8.32 8.32 0 0 1 -4 2.52 7.54 7.54 0 0 1 -4.62-.21l-.13.14a9.57 9.57 0 0 1 2 5.6 8 8 0 0 1 -2.44 5.5zm-6.65-6.3a4.26 4.26 0 0 0 1.23-2.33 4 4 0 0 0 -.52-2.38 7 7 0 0 0 -1.41-1.74c-.67-.65-1.6-1.51-2.76-2.57l-1.21-1.1-6 6.52.35.32c1.7 1.55 2.89 2.62 3.56 3.19a7.51 7.51 0 0 0 2.43 1.34 3.47 3.47 0 0 0 2.33.06 4.53 4.53 0 0 0 2-1.31zm8-12.08a3.91 3.91 0 0 0 .85-1.59 2.65 2.65 0 0 0 -.12-1.88 5.62 5.62 0 0 0 -1.26-1.7c-.57-.56-1.44-1.36-2.6-2.43l-.46-.41-5 5.51.82.75c1.12 1 1.91 1.72 2.38 2.11a5.34 5.34 0 0 0 1.73.9 2.87 2.87 0 0 0 2 0 4.84 4.84 0 0 0 1.66-1.26z"/><path d="m142.21 495.54q-5.88-4-7.12-9t2.47-10.46l12.63-18.64 7.33 5-12.34 18.21a8.92 8.92 0 0 0 -1.92 5.3q.13 2.27 2.72 4a5.55 5.55 0 0 0 4.69 1.09q2.15-.63 4.29-3.79l12.33-18.2 7.33 5-12.62 18.61q-3.66 5.38-8.7 6.19t-11.09-3.31z"/><path d="m193 522.23-9.74-4.65-3.26-15.9-2.86-1.37-5.61 11.69-7.94-3.8 15.21-31.8 12.79 6.12a30.47 30.47 0 0 1 4.41 2.48 10.6 10.6 0 0 1 3 3.11 8.51 8.51 0 0 1 .36 8.8 10.9 10.9 0 0 1 -4.48 5.14 12.85 12.85 0 0 1 -6.13 1.52zm-2.31-28.23a4.8 4.8 0 0 0 .53-2.28 3.41 3.41 0 0 0 -.89-2.06 6.3 6.3 0 0 0 -1.47-1.2c-.59-.35-1.34-.75-2.25-1.18l-2.67-1.28-4.09 8.56 2.28 1.1a19.17 19.17 0 0 0 2.93 1.15 4.76 4.76 0 0 0 2.39.08 4.15 4.15 0 0 0 1.82-.89 5.81 5.81 0 0 0 1.42-2z"/><path d="m198.34 523.81 10.72-33.58 22.71 7.26-2.05 6.4-14.31-4.57-1.89 5.88 13.2 4.22-2.05 6.4-13.19-4.21-2.71 8.47 14.32 4.58-2.05 6.4z"/><path d="m225.9 532.55 17.91-32.61 9.51 1.69 5.53 36.79-9-1.59-.9-7.48-10.91-1.94-3.43 6.7zm22.29-9.83-1.5-12.07-5.59 10.81z"/><path d="m279.74 540.11q-7.11-.23-10.82-3.77c-2.47-2.36-3.65-5.75-3.51-10.15l.69-22.5 8.9.31-.68 22a9 9 0 0 0 1.22 5.51c.89 1.23 2.37 1.87 4.45 1.94a5.51 5.51 0 0 0 4.54-1.59q1.49-1.68 1.6-5.49l.67-22 8.85.28-.68 22.47q-.21 6.51-4 9.89t-11.23 3.1z"/><path d="m316.19 538.46 5.51-36.8 9.5-1.7 17.94 32.59-9 1.61-3.44-6.7-10.9 2-.9 7.47zm17.5-17-5.59-10.8-1.49 12.07z"/><path d="m355.3 530.63-10.88-33.53 22.67-7.36 2.07 6.4-14.29 4.64 1.9 5.88 13.17-4.28 2.08 6.39-13.17 4.28 2.75 8.46 14.29-4.64 2.08 6.4z"/><path d="m412 505.12a43.87 43.87 0 0 1 -4.59 4.32 30.61 30.61 0 0 1 -6.15 4q-7.44 3.67-14 1.56t-10.45-10q-3.66-7.42-1.45-14.09t9.9-10.46a25 25 0 0 1 6.82-2.43 38.33 38.33 0 0 1 6.15-.49l3.67 7.47-.72.36-2.27-.45a18.28 18.28 0 0 0 -2.78-.36 15.42 15.42 0 0 0 -3.32.19 12.06 12.06 0 0 0 -3.55 1.14 11.64 11.64 0 0 0 -3.4 2.47 9.55 9.55 0 0 0 -2 3.43 10.29 10.29 0 0 0 -.39 4.21 14.59 14.59 0 0 0 1.51 4.9q2.74 5.53 6.82 6.8t8.9-1.12l1-.51c.38-.21.7-.39 1-.56l-3.06-6.2-6.14 3-2.92-5.92 13.82-6.82z"/><path d="m435.47 492-15.78 10.55-3.42-5.11 4.21-2.82-12.75-19.07-4.21 2.82-3.42-5.12 15.78-10.55 3.42 5.12-4.21 2.81 12.75 19.07 4.21-2.81z"/><path d="m450.94 480.46a28.68 28.68 0 0 1 -5.92 4 36.07 36.07 0 0 1 -5.59 2.22l-5.43-6.34.61-.52a19.87 19.87 0 0 0 6.69-1.17 15.07 15.07 0 0 0 6.91-4.54 6.7 6.7 0 0 0 1.18-1.69 4.33 4.33 0 0 0 .46-1.87 2.79 2.79 0 0 0 -.75-1.87 2.62 2.62 0 0 0 -2.19-1 6.47 6.47 0 0 0 -2.67.7c-1.12.54-2.29 1.14-3.51 1.81a32.05 32.05 0 0 1 -3.59 1.7 12 12 0 0 1 -7 .86 10.11 10.11 0 0 1 -5.32-3.49 9.5 9.5 0 0 1 -2-8.82 17.25 17.25 0 0 1 6-9.12 31 31 0 0 1 5.18-3.59 27.2 27.2 0 0 1 5.36-2.3l5.23 6.11-.6.51a17.55 17.55 0 0 0 -5.49 1 15.12 15.12 0 0 0 -5.17 2.89 11.34 11.34 0 0 0 -1.47 1.48 7.74 7.74 0 0 0 -1.06 1.75 3.82 3.82 0 0 0 -.36 1.78 2.58 2.58 0 0 0 .62 1.66 2.64 2.64 0 0 0 2.12 1 9.6 9.6 0 0 0 3.75-1.32l3.11-1.63a33.39 33.39 0 0 1 3.35-1.49 12 12 0 0 1 6.46-.84 9.26 9.26 0 0 1 5.2 3.33 10.21 10.21 0 0 1 2.35 9.11q-1.11 5.13-6.46 9.69z"/></g><path d="m122.7 288a29.29 29.29 0 0 1 -.55 7.1 37.2 37.2 0 0 1 -1.72 5.72l-8.19.24v-.79a19.9 19.9 0 0 0 3.2-5.92 17.57 17.57 0 0 0 1-6.21 15.86 15.86 0 0 0 -.23-2 6.91 6.91 0 0 0 -.57-2 4.44 4.44 0 0 0 -1.14-1.52 2.68 2.68 0 0 0 -1.88-.58 2.58 2.58 0 0 0 -2.08 1.1 6.74 6.74 0 0 0 -1.1 2.51c-.27 1.2-.53 2.49-.77 3.85a29.24 29.24 0 0 1 -.9 3.84 11.8 11.8 0 0 1 -3.62 6 9.75 9.75 0 0 1 -5.91 1.95 9.24 9.24 0 0 1 -8-3.93 17.43 17.43 0 0 1 -3.31-10.32 31.26 31.26 0 0 1 .44-6.25 27.36 27.36 0 0 1 1.52-5.59l7.86-.24v.78a17.08 17.08 0 0 0 -2.63 4.85 15.33 15.33 0 0 0 -1 5.81 11.43 11.43 0 0 0 .22 2.07 8 8 0 0 0 .68 1.91 3.94 3.94 0 0 0 1.15 1.39 2.43 2.43 0 0 0 1.64.55 2.55 2.55 0 0 0 2.07-1 9.72 9.72 0 0 0 1.29-3.73c.22-1.18.44-2.33.66-3.42a32.34 32.34 0 0 1 .91-3.53 11.91 11.91 0 0 1 3.32-5.53 8.92 8.92 0 0 1 5.72-2 9.89 9.89 0 0 1 8.38 3.86q3.34 4.03 3.54 11.03z" fill="#2e3e50"/><path d="m122.11 268.76-34.11-4.89 3.36-23.48 6.51.93-2.12 14.81 6 .86 2-13.64 6.51.93-2 13.64 8.62 1.24 2.12-14.81 6.51.93z" fill="#2e3e50"/><path d="m138.61 206.38-3 8.23-21.44-7.9 11.63 11.09-2.07 5.63-16 .9 21.44 7.89-2.94 7.78-32.35-11.91 3.51-9.53 18.61-1.41-13.24-13.15 3.51-9.53z" fill="#2e3e50"/><path d="m136.82 165.35a13.35 13.35 0 0 1 3.43 3.13 9.61 9.61 0 0 1 1.85 3.84 15.32 15.32 0 0 1 .34 2.56 11.77 11.77 0 0 1 -.19 2.69 15.12 15.12 0 0 1 -.82 2.82 17.8 17.8 0 0 1 -1.59 3l-2.49 3.88 9.48 6.09-4.76 7.42-29-18.63 7.36-11.46a22.36 22.36 0 0 1 3.29-4.11 12.74 12.74 0 0 1 3.61-2.43 8.78 8.78 0 0 1 4.57-.71 11.5 11.5 0 0 1 4.92 1.91zm-4.72 7.72a4.34 4.34 0 0 0 -2.49-.76 3.69 3.69 0 0 0 -2.14.64 7.55 7.55 0 0 0 -1.81 1.68c-.45.61-1 1.47-1.74 2.56l-.67 1.05 8.68 5.58.33-.51c.45-.7.87-1.37 1.26-2a12.51 12.51 0 0 0 .9-1.71 5.86 5.86 0 0 0 .43-1.5 3.87 3.87 0 0 0 0-1.43 4.5 4.5 0 0 0 -.85-2 8 8 0 0 0 -1.9-1.6z" fill="#2e3e50"/><path d="m159.52 174.94-25.13-23.59 16.23-17.29 4.79 4.5-10.23 10.9 4.4 4.14 9.43-10 4.8 4.5-9.43 10 6.34 6 10.28-10.95 4.79 4.49z" fill="#2e3e50"/><path d="m206.1 135.11-8.74 6.25-15.3-4.59-2.57 1.83 7.35 10.28-7.12 5.1-20.05-28 11.48-8.21a30.59 30.59 0 0 1 4.35-2.66 10.91 10.91 0 0 1 4.12-1.12 9.18 9.18 0 0 1 4.18.7 8.84 8.84 0 0 1 3.59 3.11 10.67 10.67 0 0 1 2.26 6.28 12.81 12.81 0 0 1 -1.67 6zm-25.44-11.2a4.6 4.6 0 0 0 -1.71-1.52 3.33 3.33 0 0 0 -2.21-.2 6.14 6.14 0 0 0 -1.75.71c-.59.34-1.29.81-2.11 1.39l-2.39 1.71 5.4 7.55 2.05-1.46a18.75 18.75 0 0 0 2.41-2 4.66 4.66 0 0 0 1.23-2 4 4 0 0 0 .12-2 5.71 5.71 0 0 0 -1.04-2.18z" fill="#2e3e50"/><path d="m338.52 126.58 14.54-31.25 21.51 10-2.78 6-13.56-6.33-2.55 5.48 12.5 5.81-2.77 6-12.5-5.81-3.67 7.89 13.56 6.31-2.77 6z" fill="#2e3e50"/><path d="m388.13 156.08-8.32-5.93.9-12.87-12 5-7.94-5.66 19.35-7.53 1-20.27 8.3 5.92-.89 12.13 11.31-4.7 7.95 5.67-18.68 7.26z" fill="#2e3e50"/><path d="m399.25 169q-5.46-5.7-5.28-12.3t6.31-12.46q5.93-5.67 12.65-5.68t12.2 5.69a27.58 27.58 0 0 1 2.44 2.88 25.93 25.93 0 0 1 1.75 2.76 24.17 24.17 0 0 1 1.12 2.55c.36 1 .64 1.75.83 2.37l-5.94 5.68-.62-.65c0-.56-.07-1.25-.14-2.07a19.31 19.31 0 0 0 -.42-2.63 14.46 14.46 0 0 0 -1-2.82 9.13 9.13 0 0 0 -1.75-2.58 9.85 9.85 0 0 0 -2.84-2.12 8.32 8.32 0 0 0 -3.58-.77 9.6 9.6 0 0 0 -4.06.91 15 15 0 0 0 -4.41 3.06 14.56 14.56 0 0 0 -3.3 4.37 9.87 9.87 0 0 0 -1 4.09 8.4 8.4 0 0 0 .76 3.5 10.2 10.2 0 0 0 1.9 2.82 9.9 9.9 0 0 0 2.71 2 13.13 13.13 0 0 0 2.75 1 17.3 17.3 0 0 0 2.49.49c.77.09 1.44.16 2 .21l.55.58-5.85 5.6-2.28-.92a21.38 21.38 0 0 1 -2.5-1.22 31 31 0 0 1 -2.67-1.72 24 24 0 0 1 -2.82-2.62z" fill="#2e3e50"/><path d="m410.11 180.29 28.68-19.12 13.21 19.74-5.47 3.65-8.3-12.45-5 3.35 7.65 11.47-5.47 3.64-7.65-11.46-7.24 4.82 8.3 12.45-5.55 3.62z" fill="#2e3e50"/><path d="m435.06 225.54-9.68-21.32 31.38-14.22 3.64 8-25.4 11.52 6 13.3z" fill="#2e3e50"/><path d="m438.13 238.93a28.86 28.86 0 0 1 -1.1-7 37 37 0 0 1 .35-6l7.91-2.13.21.77a19.48 19.48 0 0 0 -1.74 6.5 15.2 15.2 0 0 0 1.14 8.14 7.07 7.07 0 0 0 1 1.79 4.41 4.41 0 0 0 1.47 1.22 2.71 2.71 0 0 0 2 .12 2.55 2.55 0 0 0 1.77-1.55 6.65 6.65 0 0 0 .49-2.69q0-1.84-.15-3.93a32.26 32.26 0 0 1 0-3.93 11.82 11.82 0 0 1 2.15-6.63 9.77 9.77 0 0 1 5.3-3.27 9.21 9.21 0 0 1 8.65 2 17.42 17.42 0 0 1 5.61 9.27 31.9 31.9 0 0 1 1 6.18 27.25 27.25 0 0 1 -.19 5.79l-7.59 2.05-.21-.75a17.42 17.42 0 0 0 1.44-5.33 15.28 15.28 0 0 0 -.41-5.88 11.29 11.29 0 0 0 -.7-1.95 8.07 8.07 0 0 0 -1.1-1.71 4 4 0 0 0 -1.44-1.09 2.48 2.48 0 0 0 -1.73-.15 2.55 2.55 0 0 0 -1.77 1.47 9.48 9.48 0 0 0 -.39 3.92c.05 1.21.1 2.37.15 3.49a35 35 0 0 1 -.07 3.64 12 12 0 0 1 -2 6.15 8.87 8.87 0 0 1 -5.12 3.22 9.87 9.87 0 0 1 -9-1.81q-4.06-3.17-5.93-9.92z" fill="#2e3e50"/><path d="m445 274.13-2.43-18.73 6-.78.65 5 22.24-2.89-.65-5 6-.77 2.43 18.73-6 .78-.65-5-22.24 2.89.65 5z" fill="#2e3e50"/><path d="m444.06 292.88q.33-7.06 3.86-10.71t10-3.34l22 1-.4 8.8-21.48-1a8.64 8.64 0 0 0 -5.41 1.13 5.34 5.34 0 0 0 -2 4.4 5.47 5.47 0 0 0 1.48 4.54q1.62 1.5 5.34 1.67l21.48 1-.41 8.8-22-1q-6.36-.3-9.6-4.16c-2.12-2.57-3.09-6.29-2.86-11.13z" fill="#2e3e50"/><path d="m440 323.2a29.59 29.59 0 0 1 2.37-6.71 35.9 35.9 0 0 1 3.15-5.08l8 1.88-.18.78a19.9 19.9 0 0 0 -4.63 4.89 17.47 17.47 0 0 0 -2.56 5.74 14.13 14.13 0 0 0 -.3 2 6.78 6.78 0 0 0 0 2.05 4.32 4.32 0 0 0 .71 1.77 2.68 2.68 0 0 0 1.67 1.05 2.53 2.53 0 0 0 2.28-.53 6.64 6.64 0 0 0 1.72-2.13c.57-1.09 1.15-2.27 1.74-3.53a31.32 31.32 0 0 1 1.86-3.47 11.87 11.87 0 0 1 5-4.81 9.74 9.74 0 0 1 6.21-.35 9.23 9.23 0 0 1 6.67 5.86 17.39 17.39 0 0 1 .53 10.82 31.4 31.4 0 0 1 -2 5.92 27 27 0 0 1 -2.92 5l-7.66-1.8.18-.76a17.45 17.45 0 0 0 3.8-4 15.19 15.19 0 0 0 2.43-5.36 12.22 12.22 0 0 0 .32-2.06 8.07 8.07 0 0 0 -.17-2 3.86 3.86 0 0 0 -.74-1.64 2.5 2.5 0 0 0 -1.45-1 2.57 2.57 0 0 0 -2.26.45 9.76 9.76 0 0 0 -2.21 3.26c-.52 1.09-1 2.13-1.52 3.14a33 33 0 0 1 -1.79 3.17 12 12 0 0 1 -4.64 4.48 8.86 8.86 0 0 1 -6 .41 9.87 9.87 0 0 1 -7.1-5.9q-2.13-4.74-.51-11.54z" fill="#2e3e50"/><path d="m103.9 388.88v-8.26q19.32-2.67 29.61-11.15t21.58-32.56l118.7-257.41h9.28l126.48 258.74q12.79 26.33 22.08 34t32.62 8.36v8.26h-138.77v-8.26q23.83-1.78 30.74-7.14a16.7 16.7 0 0 0 6.9-13.83q0-10.47-11.54-34.12l-86.58-177.31-80.3 175.1q-11.28 24.32-11.29 35.7a17.78 17.78 0 0 0 7 14.83q7 5.46 28.35 6.8v8.26z" fill="#f1c412" stroke="#2e3e50" stroke-linecap="round" stroke-linejoin="round" stroke-width="4"/></svg>