<?xml version="1.0" encoding="utf-8"?>
<!-- Generator: Adobe Illustrator 23.0.1, SVG Export Plug-In . SVG Version: 6.00 Build 0)  -->
<svg version="1.1" id="Capa_1" xmlns="http://www.w3.org/2000/svg" xmlns:xlink="http://www.w3.org/1999/xlink" x="0px" y="0px"
	 viewBox="0 0 538.6 538.6" style="enable-background:new 0 0 538.6 538.6;" xml:space="preserve">
<style type="text/css">
	.st0{fill:#F9E400;}
	.st1{fill:#413273;}
	.st2{fill:#FAE400;}
	.st3{fill:#F9E300;}
</style>
<circle class="st0" cx="269.3" cy="269.3" r="269.3"/>
<circle class="st1" cx="269.3" cy="269.3" r="260"/>
<g>
	<path class="st2" d="M255.9,120.9c-3.4,0.1-6.9,0.2-10.3,0.2c-5.8,0.1-11.5,1.6-17.3,1.3c-1.5-0.1-2.9,1.1-4.6,0.9
		c-1.4-0.1-2.9-0.3-4.2,0.8c-0.1,0.1-0.5,0-0.8,0c-2,0.2-3.9-0.1-5.9,0.8c-1.7,0.8-4-0.4-5.8,1.1c-2.5-0.6-4.7,0.6-7,1.1
		c-4,0.8-8.2,1.1-12.1,2.4c-1.8,0.6-3.9,0.5-5.8,0.9s-3.8,1.4-5.8,1.1s-3.7,1.5-5.8,1c-4.2,1.6-8.4,2.8-12,5.8
		c-2.4,2-4.6,4.1-6.7,6.3c-3,3.1-5.1,6.9-7.5,10.5c-2.4,4-4.4,8.3-5.8,12.8c-1.7,4.8-3.2,9.7-4.4,14.6c-1.1,4.6-1.6,9.4-2.9,13.9
		c-0.1,0.2,0.1,0.5,0.1,0.8c1.7,1.1,3.1-0.4,4.4-0.9c8.4-2.8,16.6-6.3,25-9c4.5-1.4,9.1-2.6,13.6-4.1s9.1-2.6,13.5-4.1
		c2.6-0.9,5.5-1.2,8.3-2c3.6-1.1,7.4-1.2,10.8-2.7c2.7,0.5,5.1-1.3,7.9-1c2,0.2,3.7-1.2,5.8-1c1.8,0.2,3.7-0.1,5.4-0.7
		c2.1-0.7,4.6-0.4,6.9-0.3s4.6-1,6.7,0.6c0.3,0.2,0.8,0,1.2,0c3.8-0.5,7.2,1.1,10.4,2.5c4.6,2,6.9,5.8,7.1,10.9
		c0.3,10.3,0.4,20.5,0.7,30.8c0.1,2.3-1.2,4.3-0.8,6.7s0.7,4.8,0.1,6.9c-0.7,2.7-0.8,5.6-0.4,8.3c0.2,2.2-1.1,4.1-0.8,6.3
		s0.7,4.3,0,6.1c-0.7,2.3-0.8,4.7-0.5,7.1c0.2,2.1-1.2,3.8-0.8,5.9c0.3,1.9,0.6,4,0.1,5.7c-0.9,2.8,0,5.6-0.6,8.3
		c-0.8,3.7,0,7.5-0.6,11.2s0.1,7.3-0.5,10.8c-1.1,6.8-0.2,13.5-0.3,20.2c0,1.6-1.7,3.2-0.6,4.5s0.7,2.5,0.8,3.8
		c0.1,1.8,0.1,3.5,0.1,5.4c4.2,2.9,8.8,5.2,13.6,6.8l13.9-29.3l-0.1-4.8c-1.1-49.3-2.1-98.6-3.2-147.8c-0.1-6-2.2-11.6-4.4-17.1
		c-2.6-6.6-7-11.6-12.1-16.2C260.2,123.4,257.7,122.7,255.9,120.9L255.9,120.9z"/>
	<path class="st2" d="M84.9,216.8c3.1-1,6.2-2,9.3-3c5.2-1.8,10.8-2.2,16-4.3c1.3-0.6,3,0.1,4.4-0.6c1.2-0.6,2.6-1.2,4-0.6
		c0.2,0.1,0.5-0.2,0.7-0.2c1.8-0.4,3.5-1.3,5.5-1.1c1.8,0.2,3.5-1.6,5.5-0.9c2-1.3,4.4-0.9,6.6-1.2c3.9-0.6,7.7-1.6,11.7-1.6
		c1.8,0,3.6-0.8,5.5-1s3.9,0,5.5-0.8s3.8,0.2,5.5-0.9c4.3,0.1,8.5-0.1,12.6,1.4c2.7,1,5.4,2.2,8.1,3.6c3.7,1.8,6.8,4.6,10,7.1
		c3.5,2.9,6.6,6.1,9.3,9.7c3,3.8,5.9,7.7,8.5,11.8c2.4,3.8,4.4,7.9,7,11.7c0.1,0.2,0.1,0.5,0.1,0.7c-1.2,1.5-2.9,0.6-4.2,0.6
		c-8.5,0.1-16.9-0.5-25.4-0.3c-4.5,0.1-9,0.5-13.5,0.6s-9,0.5-13.5,0.6c-2.7,0-5.4,0.7-8.1,0.8c-3.6,0.2-7,1.2-10.6,1
		c-2.3,1.3-5,0.5-7.4,1.6c-1.7,0.8-3.7,0.1-5.6,0.9c-1.6,0.7-3.4,1.1-5.1,1.1c-2.1,0-4.3,1.1-6.3,2s-4.4,0.5-5.8,2.6
		c-0.2,0.3-0.7,0.3-1.1,0.4c-3.6,0.8-6.1,3.3-8.6,5.5c-3.5,3.2-4.4,7.4-2.9,12c3,9.3,6.1,18.6,9,28c0.7,2.1,2.4,3.5,2.8,5.8
		s0.9,4.5,2.1,6.3c1.5,2.2,2.5,4.7,3,7.4c0.5,2,2.2,3.4,2.7,5.4s0.8,4.1,1.9,5.5c1.3,1.9,2.2,4,2.6,6.3c0.5,1.9,2.3,3,2.6,5
		c0.2,1.8,0.8,3.6,1.7,5.2c1.7,2.2,1.8,5.1,3.2,7.3c1.9,3.1,2.4,6.8,4.1,9.9s2.2,6.6,3.9,9.5c3.1,5.7,4.4,12.1,6.6,18.1
		c0.5,1.4,2.5,2.3,2,3.9s0.2,2.5,0.5,3.7c0.4,1.6,1,3.2,1.6,4.9c-2.9,3.9-6.3,7.4-10.1,10.4l-21.7-22l-1.4-4.3
		c-14.5-44.8-29.1-89.6-43.6-134.3c-1.8-5.4-1.7-11.1-1.4-16.8c0.3-6.7,2.7-12.7,5.8-18.4C81.8,220.4,83.8,219,84.9,216.8
		L84.9,216.8z"/>
	<path class="st2" d="M184.7,204.3c-2.2,0-4.5,0.1-6.7,0.1c-3.8,0-7.5,1.1-11.3,0.8c-1-0.1-1.9,0.7-3,0.6c-0.9-0.2-1.9,0-2.7,0.6
		c-0.1,0.1-0.4,0-0.5,0c-1.3,0.1-2.5-0.1-3.8,0.5c-1.1,0.5-2.6-0.2-3.8,0.7c-1.6-0.4-3.1,0.4-4.6,0.7c-2.7,0.4-5.3,0.9-7.9,1.6
		c-1.2,0.3-2.5,0.5-3.8,0.6c-1.2,0.3-2.5,0.9-3.8,0.7s-2.4,1-3.8,0.6c-2.7,1-5.5,1.8-7.8,3.8c-1.5,1.3-3,2.7-4.4,4.1
		c-1.9,2.1-3.5,4.4-4.9,6.9c-1.6,2.6-2.9,5.4-3.8,8.4c-1.1,3.1-2.1,6.3-2.8,9.6c-0.7,3-1,6.1-1.9,9.1c0,0.1,0.1,0.3,0.1,0.5
		c1.1,0.7,2-0.3,2.9-0.6c5.5-1.9,10.8-4.1,16.3-5.9c2.9-0.9,5.9-1.7,8.9-2.6s5.9-1.7,8.8-2.7c1.7-0.6,3.6-0.8,5.4-1.3
		c2.3-0.7,4.8-0.8,7.1-1.8c1.8,0.4,3.4-0.8,5.1-0.7c1.3,0.1,2.4-0.8,3.8-0.6c1.2,0.1,2.4-0.1,3.6-0.5c1.5-0.3,3-0.4,4.5-0.2
		c1.4,0.1,3-0.7,4.4,0.4c0.2,0.1,0.5,0,0.8,0c2.5-0.3,4.7,0.7,6.8,1.6c2.9,1.2,4.7,4,4.6,7.1c0.2,6.7,0.2,13.4,0.5,20.1
		c0,1.5-0.8,2.8-0.5,4.4c0.3,1.5,0.3,3,0,4.5c-0.4,1.8-0.5,3.6-0.3,5.4c0.1,1.5-0.7,2.7-0.5,4.1c0.3,1.3,0.3,2.7,0,4
		c-0.4,1.5-0.5,3.1-0.3,4.6c0.1,1.4-0.8,2.5-0.5,3.8c0.3,1.2,0.3,2.5,0,3.7c-0.6,1.8,0,3.7-0.4,5.4c-0.5,2.5,0,4.9-0.4,7.3
		s0.1,4.7-0.3,7c-0.7,4.4-0.1,8.8-0.2,13.2c0,1-1.1,2.1-0.4,3s0.4,1.7,0.5,2.5c0.1,1.1,0.1,2.3,0.1,3.5c2.7,1.9,5.7,3.4,8.9,4.5
		l9.1-19.1l-0.1-3.1c-0.7-32.2-1.4-64.3-2.1-96.5c-0.1-3.9-1.4-7.6-2.9-11.2c-1.8-4.1-4.5-7.7-7.9-10.6
		C187.5,205.9,185.8,205.4,184.7,204.3L184.7,204.3z"/>
	<path class="st2" d="M199.4,360.6h6.7c3.8,0.1,7.5-0.9,11.3-0.5c1,0.1,1.9-0.7,3-0.5c0.9,0.3,1.9,0.1,2.7-0.5c0.1-0.1,0.4,0,0.5,0
		c1.3-0.1,2.5,0.1,3.8-0.4c1.1-0.5,2.6,0.3,3.8-0.6c1.6,0.4,3.1-0.4,4.6-0.6c2.7-0.3,5.4-0.8,8-1.4c1.3-0.2,2.5-0.4,3.8-0.5
		c1.2-0.2,2.5-0.8,3.8-0.6s2.5-0.9,3.8-0.6c2.7-1,5.5-1.7,7.9-3.6c1.6-1.3,3.1-2.6,4.5-4c1.9-2.1,3.6-4.3,5-6.8c1.6-2.6,3-5.4,4-8.3
		c1.2-3.1,2.2-6.3,3.1-9.5c0.8-3,1.2-6.1,2.1-9c0-0.1-0.1-0.3-0.1-0.5c-1.1-0.7-2,0.2-2.9,0.5c-5.5,1.7-10.9,3.8-16.5,5.5
		c-2.9,0.9-6,1.6-8.9,2.4s-6,1.5-8.9,2.4c-1.7,0.5-3.6,0.7-5.4,1.2c-2.3,0.6-4.8,0.7-7.1,1.6c-1.8-0.4-3.4,0.7-5.1,0.5
		c-1.3-0.1-2.4,0.7-3.8,0.6c-1.2-0.1-2.4,0-3.6,0.4c-1.5,0.3-3,0.3-4.5,0c-1.4-0.1-3,0.6-4.4-0.5c-0.2-0.1-0.5,0-0.8,0
		c-2.5,0.3-4.7-0.8-6.8-1.8c-2.8-1.2-4.6-4.1-4.4-7.2c0-6.7,0.1-13.4,0-20.1c0-1.5,0.8-2.8,0.6-4.3c-0.3-1.5-0.3-3,0.1-4.5
		c0.5-1.8,0.6-3.6,0.4-5.4c-0.1-1.5,0.8-2.6,0.6-4.1c-0.3-1.3-0.2-2.7,0.1-4c0.5-1.5,0.6-3.1,0.4-4.6c-0.1-1.4,0.8-2.4,0.6-3.8
		c-0.3-1.2-0.3-2.5,0.1-3.7c0.6-1.8,0.1-3.7,0.5-5.4c0.6-2.4,0.1-4.9,0.6-7.3s0.1-4.7,0.5-7c0.9-4.4,0.3-8.8,0.5-13.2
		c0-1,1.2-2.1,0.5-3s-0.4-1.7-0.4-2.5c-0.1-1.1,0-2.3,0-3.5c-2.7-1.9-5.6-3.5-8.8-4.7l-9.5,18.9v3.1c-0.1,32.2-0.2,64.4-0.3,96.5
		c0,3.9,1.2,7.6,2.6,11.3c1.7,4.1,4.3,7.8,7.7,10.8C196.6,358.8,198.2,359.4,199.4,360.6z"/>
</g>
<path class="st3" d="M81.2,171.2c5.4-7.9,10.9-15.9,16.4-23.9c0.4,0.4,0.7,1,0.9,1.5c2.9,8.3,5.7,16.6,8.4,24.9
	c0.1,0.3,0.3,0.6,0.5,0.9L91,198.6c-0.4-0.4-0.7-1-0.9-1.5c-2.9-8.3-5.7-16.6-8.4-24.9C81.5,171.8,81.4,171.5,81.2,171.2z"/>
<path class="st3" d="M214.8,400c1.7-9.5,3.3-19,5-28.5c0.6,0.2,1.1,0.6,1.4,1c6.1,6.3,12.1,12.7,18,19.1c0.2,0.2,0.5,0.4,0.8,0.6
	c-1.7,9.5-3.3,19-5,28.5c-0.6-0.2-1.1-0.5-1.4-1c-6.1-6.3-12.1-12.7-18-19.2C215.4,400.4,215.1,400.2,214.8,400L214.8,400z"/>
<path class="st2" d="M282.7,120.9c3.4,0.1,6.9,0.2,10.3,0.2c5.8,0.1,11.5,1.6,17.3,1.3c1.5-0.1,2.9,1.1,4.6,0.9
	c1.4-0.1,3-0.3,4.2,0.8c0.1,0.1,0.5,0,0.8,0c2,0.2,3.9-0.1,5.9,0.8c1.7,0.8,4-0.4,5.7,1.1c2.5-0.6,4.7,0.6,7,1.1
	c4,0.8,8.2,1.1,12.1,2.4c1.8,0.6,3.9,0.5,5.8,0.9s3.8,1.4,5.8,1.1s3.7,1.5,5.8,1c4.2,1.6,8.4,2.8,12,5.8c2.4,2,4.6,4.1,6.7,6.3
	c3,3.1,5.1,6.9,7.5,10.5c2.4,4,4.4,8.3,5.8,12.8c1.7,4.8,3.2,9.7,4.4,14.6c1.1,4.6,1.6,9.4,2.9,13.9c0.1,0.2-0.1,0.5-0.1,0.8
	c-1.7,1.1-3.1-0.4-4.4-0.9c-8.4-2.8-16.6-6.3-25-9c-4.5-1.4-9.1-2.6-13.6-4.1s-9.1-2.6-13.5-4.1c-2.6-0.9-5.5-1.2-8.3-2
	c-3.6-1.1-7.4-1.2-10.8-2.7c-2.7,0.5-5.1-1.3-7.9-1c-2,0.2-3.7-1.2-5.8-1c-1.8,0.2-3.7-0.1-5.4-0.7c-2.1-0.7-4.6-0.4-6.9-0.3
	s-4.6-1-6.7,0.6c-0.3,0.2-0.8,0-1.2,0c-3.8-0.5-7.2,1.1-10.4,2.5c-4.6,2-6.9,5.8-7.1,10.9c-0.3,10.3-0.4,20.5-0.7,30.8
	c-0.1,2.3,1.2,4.3,0.8,6.7s-0.7,4.8-0.1,6.9c0.7,2.7,0.8,5.6,0.4,8.3c-0.2,2.2,1.1,4.1,0.8,6.3s-0.7,4.3,0,6.1
	c0.7,2.3,0.8,4.7,0.5,7.1c-0.2,2.1,1.2,3.8,0.8,5.9c-0.3,1.9-0.6,4-0.1,5.7c0.9,2.8,0,5.6,0.6,8.3c0.8,3.7,0,7.5,0.6,11.2
	s-0.1,7.3,0.5,10.8c1.1,6.8,0.2,13.5,0.3,20.2c0,1.6,1.7,3.2,0.6,4.5s-0.7,2.5-0.8,3.8c-0.1,1.8-0.1,3.5-0.1,5.4
	c-4.2,2.9-8.8,5.2-13.6,6.8L256.8,311l0.1-4.8c1.1-49.3,2.1-98.6,3.2-147.8c0.1-6,2.2-11.6,4.4-17.1c2.6-6.6,7-11.6,12.1-16.2
	C278.4,123.4,280.9,122.7,282.7,120.9L282.7,120.9z"/>
<path class="st2" d="M453.7,216.8c-3.1-1-6.2-2-9.3-3c-5.2-1.8-10.8-2.2-16-4.3c-1.3-0.6-3,0.1-4.4-0.6c-1.2-0.6-2.6-1.2-4-0.6
	c-0.2,0.1-0.5-0.2-0.7-0.2c-1.8-0.4-3.5-1.3-5.5-1.1c-1.8,0.2-3.5-1.6-5.5-0.9c-2-1.3-4.5-0.9-6.7-1.2c-3.9-0.6-7.7-1.6-11.7-1.6
	c-1.9,0-3.6-0.8-5.5-1s-3.9,0-5.5-0.8s-3.8,0.2-5.5-0.9c-4.2,0.1-8.5-0.1-12.6,1.4c-2.7,1-5.4,2.2-8,3.6c-3.7,1.8-6.8,4.6-10,7.1
	c-3.5,2.9-6.6,6.1-9.3,9.7c-3.1,3.8-5.9,7.7-8.5,11.8c-2.4,3.8-4.4,7.9-7,11.7c-0.1,0.2-0.1,0.5-0.1,0.7c1.2,1.5,2.9,0.6,4.2,0.6
	c8.5,0.1,16.9-0.5,25.4-0.3c4.5,0.1,9,0.5,13.5,0.6s9,0.5,13.5,0.6c2.7,0,5.4,0.7,8.1,0.8c3.5,0.2,7,1.2,10.6,1
	c2.3,1.3,5,0.5,7.4,1.6c1.7,0.8,3.7,0.1,5.5,0.9c1.6,0.7,3.4,1.1,5.1,1.1c2.1,0,4.3,1.1,6.3,2s4.4,0.5,5.8,2.6
	c0.2,0.3,0.7,0.3,1.1,0.4c3.6,0.8,6.1,3.3,8.6,5.5c3.5,3.2,4.4,7.4,2.9,12c-3,9.3-6.1,18.6-9,28c-0.6,2.1-2.4,3.5-2.8,5.8
	s-0.9,4.5-2.1,6.3c-1.5,2.2-2.5,4.7-3,7.4c-0.5,2-2.2,3.4-2.7,5.4s-0.8,4.1-1.9,5.5c-1.3,1.9-2.2,4-2.6,6.3c-0.5,1.9-2.3,3-2.6,5
	c-0.2,1.8-0.8,3.6-1.7,5.2c-1.7,2.2-1.8,5.1-3.2,7.3c-1.9,3.1-2.4,6.8-4.1,9.9s-2.2,6.6-3.9,9.5c-3.1,5.7-4.4,12.1-6.6,18.1
	c-0.5,1.4-2.5,2.3-2,3.9s-0.2,2.5-0.5,3.7c-0.4,1.6-1,3.2-1.6,4.9c2.9,3.9,6.3,7.4,10.1,10.4l21.7-22l1.4-4.3
	c14.5-44.8,29-89.6,43.5-134.3c1.8-5.4,1.7-11.1,1.4-16.8c-0.3-6.7-2.7-12.7-5.8-18.4C456.7,220.4,454.7,219,453.7,216.8
	L453.7,216.8z"/>
<path class="st2" d="M353.9,204.3c2.2,0,4.5,0.1,6.7,0.1c3.8,0,7.5,1.1,11.3,0.8c1-0.1,1.9,0.7,3,0.6c0.9-0.2,1.9,0,2.7,0.6
	c0.1,0.1,0.3,0,0.5,0c1.3,0.1,2.5-0.1,3.8,0.5c1.1,0.5,2.6-0.2,3.8,0.7c1.6-0.4,3.1,0.4,4.6,0.7c2.7,0.4,5.3,0.9,7.9,1.6
	c1.2,0.3,2.5,0.5,3.8,0.6c1.2,0.3,2.5,0.9,3.8,0.7s2.4,1,3.8,0.6c2.7,1,5.5,1.8,7.8,3.8c1.5,1.3,3,2.7,4.4,4.1
	c1.9,2.1,3.5,4.4,4.9,6.9c1.6,2.6,2.9,5.4,3.8,8.4c1.1,3.1,2.1,6.3,2.8,9.6c0.7,3,1,6.1,1.9,9.1c0,0.1-0.1,0.3-0.1,0.5
	c-1.1,0.7-2-0.3-2.9-0.6c-5.5-1.9-10.8-4.1-16.3-5.9c-2.9-0.9-5.9-1.7-8.9-2.6s-5.9-1.7-8.8-2.7c-1.7-0.6-3.6-0.8-5.4-1.3
	c-2.3-0.7-4.8-0.8-7.1-1.8c-1.8,0.4-3.4-0.8-5.1-0.7c-1.3,0.1-2.4-0.8-3.8-0.6c-1.2,0.1-2.4-0.1-3.5-0.5c-1.5-0.3-3-0.4-4.5-0.2
	c-1.5,0.1-3-0.7-4.4,0.4c-0.2,0.1-0.5,0-0.8,0c-2.5-0.3-4.7,0.7-6.8,1.6c-2.9,1.2-4.7,4-4.6,7.1c-0.2,6.7-0.2,13.4-0.5,20.1
	c0,1.5,0.8,2.8,0.5,4.4c-0.3,1.5-0.4,3,0,4.5c0.4,1.8,0.5,3.6,0.3,5.4c-0.1,1.5,0.7,2.7,0.5,4.1c-0.3,1.3-0.3,2.7,0,4
	c0.4,1.5,0.5,3.1,0.3,4.6c-0.1,1.4,0.8,2.5,0.5,3.8c-0.3,1.2-0.3,2.5,0,3.7c0.6,1.8,0,3.7,0.4,5.4c0.5,2.5,0,4.9,0.4,7.3
	s0,4.7,0.3,7c0.7,4.4,0.1,8.8,0.2,13.2c0,1,1.1,2.1,0.4,3s-0.4,1.7-0.5,2.5c-0.1,1.1-0.1,2.3-0.1,3.5c-2.7,1.9-5.7,3.4-8.9,4.5
	l-9.1-19.1l0.1-3.1c0.7-32.2,1.4-64.3,2.1-96.5c0.1-3.9,1.4-7.6,2.9-11.2c1.8-4.1,4.5-7.7,7.9-10.6
	C351.1,205.9,352.8,205.4,353.9,204.3L353.9,204.3z"/>
<path class="st2" d="M339.2,360.6c-2.2,0-4.5,0-6.7,0c-3.8,0.1-7.5-0.9-11.3-0.5c-1,0.1-1.9-0.7-3-0.5c-0.9,0.3-1.9,0.1-2.7-0.5
	c-0.1-0.1-0.4,0-0.5,0c-1.3-0.1-2.5,0.1-3.8-0.4c-1.1-0.5-2.6,0.3-3.8-0.6c-1.6,0.4-3.1-0.4-4.6-0.6c-2.7-0.3-5.4-0.8-8-1.4
	c-1.3-0.2-2.5-0.4-3.8-0.5c-1.2-0.2-2.5-0.8-3.8-0.6s-2.5-0.9-3.8-0.6c-2.7-1-5.5-1.7-7.9-3.6c-1.6-1.3-3.1-2.6-4.5-4
	c-1.9-2.1-3.6-4.3-5-6.8c-1.6-2.6-3-5.4-4-8.3c-1.2-3.1-2.2-6.3-3.1-9.5c-0.8-3-1.2-6.1-2.1-9c0-0.1,0.1-0.3,0.1-0.5
	c1.1-0.7,2,0.2,2.9,0.5c5.5,1.7,10.9,3.8,16.5,5.5c2.9,0.9,6,1.6,8.9,2.4s6,1.5,8.9,2.4c1.7,0.5,3.6,0.7,5.4,1.2
	c2.3,0.6,4.8,0.7,7.1,1.6c1.8-0.4,3.4,0.7,5.1,0.5c1.3-0.1,2.4,0.7,3.8,0.6c1.2-0.1,2.4,0,3.5,0.4c1.5,0.3,3,0.3,4.5,0
	c1.5-0.1,3,0.6,4.4-0.5c0.2-0.1,0.5,0,0.8,0c2.5,0.3,4.7-0.8,6.8-1.8c2.8-1.2,4.6-4.1,4.4-7.2c0-6.7-0.1-13.4,0-20.1
	c0-1.5-0.8-2.8-0.6-4.3c0.3-1.5,0.3-3,0-4.5c-0.5-1.8-0.6-3.6-0.4-5.4c0.1-1.5-0.8-2.6-0.6-4.1c0.2-1.3,0.2-2.7-0.1-4
	c-0.5-1.5-0.6-3.1-0.4-4.6c0.1-1.4-0.8-2.4-0.6-3.8c0.3-1.2,0.3-2.5,0-3.7c-0.6-1.8-0.1-3.7-0.5-5.4c-0.6-2.4-0.1-4.9-0.6-7.3
	s-0.1-4.7-0.5-7c-0.9-4.4-0.3-8.8-0.5-13.2c0-1-1.2-2.1-0.5-3s0.4-1.7,0.5-2.5c0.1-1.1,0-2.3,0-3.5c2.7-1.9,5.6-3.5,8.8-4.7
	l9.5,18.9v3.1c0.1,32.2,0.2,64.4,0.3,96.5c0,3.9-1.2,7.6-2.6,11.3c-1.7,4.1-4.3,7.8-7.7,10.8C342,358.8,340.4,359.4,339.2,360.6
	L339.2,360.6z"/>
<path class="st3" d="M457.4,171.2c-5.5-7.9-10.9-15.9-16.4-23.9c-0.4,0.4-0.7,1-0.9,1.5c-2.9,8.3-5.7,16.6-8.4,24.9
	c-0.1,0.3-0.3,0.6-0.5,0.9l16.4,23.9c0.4-0.4,0.7-1,0.9-1.5c2.9-8.3,5.7-16.6,8.4-24.9C457,171.8,457.2,171.5,457.4,171.2z"/>
<path class="st3" d="M323.8,400c-1.7-9.5-3.3-19-5-28.5c-0.6,0.2-1.1,0.6-1.4,1c-6.1,6.3-12.1,12.7-18,19.1
	c-0.2,0.2-0.5,0.4-0.8,0.6c1.7,9.5,3.3,19,5,28.5c0.6-0.2,1.1-0.5,1.4-1c6.1-6.3,12.1-12.7,18-19.2
	C323.2,400.4,323.5,400.2,323.8,400L323.8,400z"/>
<path class="st0" d="M269.3,521.9C130,521.9,16.7,408.6,16.7,269.3S130,16.7,269.3,16.7S521.9,130,521.9,269.3
	S408.6,521.9,269.3,521.9L269.3,521.9z M269.3,24.5c-135,0-244.8,109.8-244.8,244.8s109.8,244.8,244.8,244.8
	s244.8-109.8,244.8-244.8S404.3,24.5,269.3,24.5L269.3,24.5z"/>
<path class="st0" d="M269.3,505.6C139,505.6,33,399.6,33,269.3S139,33,269.3,33s236.3,106,236.3,236.3S399.6,505.6,269.3,505.6
	L269.3,505.6z M269.3,40.9c-126,0-228.5,102.5-228.5,228.4s102.5,228.4,228.5,228.4s228.4-102.5,228.4-228.4S395.3,40.8,269.3,40.9
	L269.3,40.9z"/>
</svg>
