<?xml version="1.0" encoding="UTF-8"?>
<svg id="Capa_1" data-name="Capa 1" xmlns="http://www.w3.org/2000/svg" viewBox="0 0 566.93 566.93">
  <defs>
    <style>
      .cls-1 {
        fill: #f6f6f6;
      }

      .cls-2 {
        fill: #ef7e00;
      }

      .cls-3 {
        fill: #1d1d1b;
      }
    </style>
  </defs>
  <path class="cls-2" d="M286.16,562.66C132.25,564.22,5.33,440.33,4.27,286.16,3.17,127.05,131.39,5.37,280.63,4.27c154.76-1.14,280.67,122.11,282.03,276.74,1.36,154.32-122.12,280.1-276.51,281.66Z"/>
  <g>
    <path class="cls-1" d="M286.04,550.29c-147.09,1.49-268.39-116.91-269.4-264.25C15.59,133.98,138.13,17.69,280.76,16.64c147.9-1.09,268.23,116.7,269.53,264.47,1.3,147.48-116.71,267.69-264.25,269.18Z"/>
    <path class="cls-1" d="M285.71,556.28c-72.86,.64-141.64-27.19-193.72-78.4C40.04,426.8,11.15,358.68,10.65,286.08c-.51-74.21,27.88-143.67,79.94-195.6,24.92-24.85,53.93-44.43,86.23-58.19,33.09-14.09,68.09-21.35,103.89-21.63,73.16-.54,142.04,27.21,193.98,78.12,51.97,50.95,80.95,119.24,81.59,192.28,.64,72.93-27.07,141.67-78.02,193.58-50.96,51.91-119.2,80.9-192.15,81.64h-.39Zm-5.27-533.65C137.25,23.88,21.63,141.94,22.62,286c.48,69.4,28.1,134.52,77.77,183.35,49.8,48.96,115.56,75.57,185.22,74.96h.37c143.71-1.46,259.59-119.5,258.33-263.14-1.27-143.62-119.47-259.6-263.5-258.54h-.36Z"/>
  </g>
  <g>
    <path class="cls-3" d="M40.56,266.7c-.58,6.76-2.99,9.96-7.24,9.6l-1.33-.11c-4.25-.36-6.08-3.92-5.51-10.68l.29-3.43c.05-.55,.23-.9,.55-1.04,.32-.15,.79-.19,1.41-.14s1.07,.18,1.37,.38c.29,.2,.42,.57,.37,1.12l-.3,3.53c-.17,2.01-.04,3.45,.41,4.33,.44,.88,1.04,1.35,1.79,1.41l1.34,.11c.73,.06,1.39-.3,1.99-1.09,.6-.79,.98-2.19,1.15-4.2l.69-8.08c.58-6.76,2.99-9.96,7.24-9.6l1.71,.15c4.25,.36,6.08,3.92,5.51,10.68l-1.43,16.78c-.05,.55-.23,.9-.56,1.04-.32,.14-.79,.19-1.41,.14-.62-.05-1.07-.18-1.37-.38s-.42-.57-.37-1.12l1.44-16.89c.17-2.01,.04-3.45-.41-4.33-.44-.88-1.04-1.35-1.79-1.41l-1.71-.15c-.73-.06-1.39,.3-1.99,1.09-.6,.79-.98,2.19-1.15,4.2l-.69,8.08Z"/>
    <path class="cls-3" d="M33.92,236.76l19.43,3.47c.65,.12,1.05,.39,1.18,.81,.14,.42,.14,1,0,1.75-.13,.72-.33,1.26-.6,1.6-.27,.35-.73,.46-1.39,.35l-19.43-3.47-1.82,10.19c-.1,.54-.31,.87-.65,.98-.33,.11-.81,.12-1.42,0-.61-.11-1.05-.27-1.33-.5-.28-.22-.36-.61-.27-1.15l4.45-24.91c.1-.54,.31-.87,.65-.98,.33-.11,.81-.12,1.42,0,.61,.11,1.05,.27,1.33,.5s.36,.61,.27,1.15l-1.82,10.22Z"/>
    <path class="cls-3" d="M57.36,222.7c.64,.17,1.02,.46,1.12,.89,.1,.43,.06,1.01-.13,1.74-.18,.71-.42,1.23-.72,1.55-.3,.33-.77,.41-1.41,.24l-21.26-5.51c-.64-.17-1.02-.46-1.12-.89-.1-.43-.06-1,.12-1.71,.19-.73,.43-1.26,.73-1.59,.3-.33,.77-.4,1.41-.24l21.26,5.51Z"/>
    <path class="cls-3" d="M63.19,189.42c2.07,.73,3.31,2.09,3.71,4.06,.4,1.98,.04,4.54-1.08,7.69l-3.47,9.82c-2.26,6.4-5.4,8.89-9.42,7.47l-11.44-4.04c-4.02-1.42-4.9-5.33-2.64-11.72l1.61-4.57c.18-.52,.45-.81,.8-.87s.82,.01,1.4,.22c.58,.21,.99,.44,1.23,.71,.23,.27,.26,.66,.08,1.18l-1.57,4.44c-.67,1.9-.92,3.37-.74,4.41,.18,1.04,.63,1.68,1.34,1.93l11.44,4.04c.69,.24,1.44,.02,2.24-.67,.8-.69,1.54-1.98,2.21-3.89l3.38-9.56c.67-1.9,.91-3.37,.71-4.4-.2-1.03-.64-1.67-1.33-1.91l-5.77-2.04c-.63-.22-.97-.54-1.04-.97-.07-.42,.02-.99,.27-1.71,.25-.71,.54-1.22,.87-1.53,.33-.31,.81-.35,1.43-.13l5.77,2.04Z"/>
    <path class="cls-3" d="M66.74,145.76c-.21-.53-.28-1.04-.22-1.52,.06-.48,.22-.96,.48-1.44,.82-1.49,1.91-1.85,3.27-1.1l18.43,10.16c.58,.32,.87,.7,.86,1.14,0,.44-.2,.99-.56,1.66-.36,.66-.73,1.11-1.1,1.36-.37,.24-.84,.2-1.42-.12l-14.27-7.87,7.92,20.03c.21,.56,.31,1.07,.29,1.54-.02,.46-.17,.95-.46,1.47-.32,.58-.68,1.02-1.07,1.31-.4,.29-.88,.49-1.46,.59l-21.18,4.03,14.27,7.87c.58,.32,.87,.7,.86,1.14,0,.44-.19,.99-.56,1.65-.35,.64-.71,1.08-1.08,1.33-.37,.24-.84,.2-1.43-.12l-18.42-10.16c-1.36-.75-1.64-1.86-.83-3.33,.54-.98,1.33-1.58,2.37-1.8l24.34-4.64-9.01-23.18Z"/>
    <path class="cls-3" d="M81.91,122.91c.41-.52,.83-.88,1.26-1.08,.43-.2,.88-.29,1.35-.26l26.06,1.62c.3,.03,.55,.13,.77,.31,.2,.16,.34,.37,.42,.62,.09,.26,.12,.53,.09,.82s-.09,.58-.21,.87c-.11,.29-.26,.55-.45,.78-.2,.25-.42,.44-.66,.58-.24,.13-.51,.19-.82,.18l-7.15-.52-11.92,14.94,2.24,6.67c.1,.28,.1,.56,.02,.83-.08,.27-.22,.52-.4,.75-.17,.22-.39,.41-.64,.59-.26,.18-.53,.3-.81,.38-.29,.08-.56,.11-.82,.09-.26-.02-.5-.11-.72-.29-.18-.14-.33-.36-.44-.66l-7.93-24.35c-.15-.44-.17-.89-.06-1.36,.11-.47,.38-.97,.81-1.51Zm7.33,14.68l8.85-11.1-12.9-.97,4.05,12.07Z"/>
    <path class="cls-3" d="M104.47,103.38l14.05,13.86c.47,.47,.65,.91,.52,1.33-.13,.42-.46,.9-.99,1.44-.52,.52-.98,.85-1.4,.98-.42,.13-.87-.03-1.34-.5l-14.05-13.86-7.27,7.37c-.39,.39-.75,.54-1.09,.44-.34-.09-.73-.36-1.17-.79-.44-.44-.71-.82-.81-1.16-.1-.34,.04-.71,.43-1.1l17.77-18.01c.39-.39,.75-.54,1.09-.45,.34,.1,.73,.36,1.17,.79,.44,.44,.71,.82,.81,1.16,.1,.34-.04,.71-.43,1.1l-7.29,7.39Z"/>
    <path class="cls-3" d="M119.83,84.33c.51-.42,1-.69,1.46-.8,.46-.11,.92-.1,1.38,.03l25.15,7.03c.28,.09,.51,.25,.69,.46,.16,.2,.26,.43,.29,.7,.03,.27,0,.55-.08,.82-.08,.28-.21,.55-.39,.8-.17,.26-.37,.48-.6,.67-.25,.2-.5,.35-.76,.43-.26,.08-.54,.08-.84,0l-6.89-2-14.78,12.12,.8,6.99c.04,.3-.02,.57-.15,.82-.14,.25-.32,.46-.55,.65-.21,.17-.46,.32-.75,.44-.29,.12-.58,.19-.87,.21-.3,.02-.57,0-.82-.08-.25-.07-.47-.22-.64-.43-.15-.18-.24-.42-.29-.74l-2.66-25.47c-.05-.46,.03-.91,.23-1.35,.21-.44,.57-.87,1.11-1.31Zm4.09,15.89l10.98-9-12.41-3.65,1.43,12.65Z"/>
    <path class="cls-3" d="M169.13,80.72c-5.98,3.2-9.98,2.92-11.99-.84l-5.72-10.7c-2.01-3.76-.02-7.24,5.96-10.44l8.82-4.72c5.98-3.2,9.98-2.92,11.99,.84l5.72,10.7c2.01,3.76,.02,7.24-5.96,10.44l-8.82,4.72Zm6.95-7.93c1.78-.95,2.95-1.88,3.51-2.77,.56-.9,.67-1.67,.32-2.32l-5.72-10.7c-.36-.67-1.06-1.01-2.11-1.03-1.05-.02-2.47,.44-4.25,1.39l-8.58,4.59c-1.78,.95-2.95,1.87-3.51,2.76-.57,.89-.67,1.66-.31,2.33l5.72,10.7c.34,.65,1.05,.99,2.1,1.02,1.06,.03,2.47-.43,4.25-1.38l8.58-4.59Z"/>
    <path class="cls-3" d="M193.1,42.24c.51-.19,.9-.17,1.16,.06,.26,.23,.5,.64,.71,1.22,.22,.58,.31,1.04,.27,1.39-.04,.35-.32,.62-.83,.81l-3.38,1.27c-1.89,.71-3.17,1.46-3.83,2.27-.67,.8-.87,1.56-.6,2.26l1.55,4.12,20.85-7.83c.52-.19,.91-.18,1.18,.05,.27,.23,.51,.63,.73,1.21,.22,.58,.3,1.04,.25,1.39-.05,.35-.34,.62-.85,.82l-20.85,7.83,3.14,8.37c.23,.62,.2,1.1-.09,1.43-.29,.33-.79,.63-1.5,.89-.69,.26-1.25,.36-1.69,.3-.44-.06-.77-.4-1.01-1.02l-5.99-15.96c-1.5-3.99,.93-7.18,7.28-9.56l3.51-1.32Z"/>
    <path class="cls-3" d="M238.67,33.53l3.68,19.39c.12,.65,.01,1.12-.33,1.39-.34,.28-.89,.48-1.63,.62-.72,.14-1.29,.14-1.71,.01-.42-.13-.69-.52-.82-1.17l-3.68-19.39-10.17,1.93c-.54,.1-.92,.02-1.15-.25-.23-.27-.4-.71-.51-1.32-.11-.61-.12-1.08,0-1.42,.11-.34,.44-.56,.98-.66l24.86-4.72c.54-.1,.92-.02,1.15,.25,.23,.27,.4,.71,.51,1.32,.12,.61,.12,1.08,0,1.42-.11,.34-.44,.56-.98,.66l-10.2,1.94Z"/>
    <path class="cls-3" d="M259.19,37.56l22.11-1.2-.51-9.3c-.04-.66,.13-1.11,.51-1.34,.38-.23,.94-.36,1.7-.4,.73-.04,1.3,.03,1.7,.22,.4,.19,.62,.61,.66,1.27l1.19,21.93c.04,.66-.13,1.11-.51,1.34-.38,.23-.93,.36-1.67,.4-.76,.04-1.33-.03-1.73-.22-.4-.19-.62-.61-.65-1.27l-.49-8.92-22.11,1.2,.49,8.93c.04,.66-.13,1.11-.51,1.34-.38,.23-.94,.36-1.7,.4-.73,.04-1.3-.03-1.7-.22-.4-.19-.62-.61-.65-1.27l-1.2-21.94c-.04-.66,.13-1.11,.51-1.34,.38-.23,.93-.36,1.66-.4,.76-.04,1.33,.03,1.73,.22,.4,.18,.62,.61,.65,1.27l.51,9.3Z"/>
    <path class="cls-3" d="M294.13,40.36l-.33,4.01c-.06,.73,.34,1.4,1.21,2,.87,.6,2.31,.99,4.32,1.15l16.38,1.36c.55,.05,.9,.23,1.04,.55s.19,.79,.14,1.41c-.05,.59-.17,1.04-.37,1.35-.2,.31-.57,.44-1.12,.39l-16.51-1.38c-6.76-.56-9.96-2.97-9.61-7.22l1.01-12.09c.36-4.25,3.91-6.09,10.67-5.53l5.1,.43c.53,.04,.86,.23,1.01,.55,.15,.32,.19,.79,.14,1.41-.05,.62-.18,1.07-.37,1.37-.2,.29-.56,.42-1.08,.38l-4.97-.41c-2.01-.17-3.49-.03-4.45,.41-.96,.44-1.47,1.03-1.53,1.79l-.37,4.39,22.23,1.85c.55,.05,.9,.23,1.04,.55,.15,.32,.19,.79,.14,1.41-.05,.62-.18,1.07-.37,1.37-.2,.29-.57,.42-1.12,.37l-22.24-1.85Z"/>
    <path class="cls-3" d="M339.9,57.64c-6.54-1.79-9.25-4.74-8.13-8.85l3.21-11.7c1.12-4.11,4.96-5.27,11.5-3.48l9.65,2.64c6.54,1.79,9.25,4.74,8.12,8.85l-3.21,11.71c-1.13,4.11-4.96,5.27-11.5,3.48l-9.65-2.64Zm10.5-.97c1.94,.53,3.43,.67,4.45,.4,1.02-.27,1.63-.75,1.83-1.46l3.2-11.7c.2-.73-.07-1.46-.82-2.2-.75-.74-2.09-1.38-4.04-1.91l-9.38-2.57c-1.95-.53-3.43-.67-4.45-.42-1.02,.25-1.63,.75-1.83,1.48l-3.21,11.7c-.19,.71,.08,1.44,.83,2.19,.74,.75,2.09,1.39,4.04,1.93l9.38,2.57Z"/>
    <path class="cls-3" d="M392.82,69.46c-.58,1.35-1.32,2.33-2.23,2.95-.9,.62-1.89,.98-2.96,1.09-1.07,.1-2.2,0-3.41-.31-1.2-.31-2.38-.71-3.54-1.21l-17.84-7.68c-.97-.42-1.24-1.12-.81-2.11l8.59-19.96c.42-.97,1.11-1.24,2.08-.83l17.59,7.57c1.37,.59,2.58,1.22,3.63,1.9,1.05,.68,1.89,1.44,2.49,2.29,.61,.85,.96,1.79,1.05,2.83,.09,1.04-.15,2.22-.72,3.54-.48,1.12-1.1,2-1.87,2.64s-1.82,1-3.17,1.07c.81,.77,1.35,1.65,1.62,2.62s.1,2.17-.51,3.58Zm-4.35-1.72c.26-.61,.42-1.15,.48-1.63,.05-.48-.05-.93-.31-1.37-.26-.44-.71-.86-1.34-1.27-.64-.41-1.5-.85-2.59-1.32l-14.91-6.41-2.73,6.35,15.35,6.6c1.03,.44,1.89,.74,2.57,.9,.68,.16,1.24,.19,1.68,.09s.8-.31,1.06-.65c.27-.33,.52-.76,.74-1.29Zm-17.1-15.41l15.03,6.47c.95,.41,1.75,.71,2.42,.89,.67,.19,1.24,.25,1.73,.2,.48-.05,.89-.25,1.23-.59,.33-.34,.65-.85,.94-1.52,.23-.55,.38-1.05,.42-1.5,.05-.45-.05-.88-.29-1.29-.24-.4-.65-.8-1.23-1.18-.58-.39-1.37-.79-2.36-1.22l-15.19-6.54-2.71,6.28Z"/>
    <path class="cls-3" d="M405.32,72.64c-5.82-3.49-7.63-7.06-5.44-10.71l.69-1.15c2.19-3.66,6.2-3.74,12.01-.25l2.95,1.77c.47,.28,.7,.6,.69,.95-.01,.35-.18,.8-.5,1.33s-.63,.88-.94,1.06c-.31,.18-.7,.12-1.17-.16l-3.04-1.82c-1.73-1.04-3.09-1.55-4.07-1.54s-1.67,.34-2.06,.99l-.69,1.15c-.38,.63-.34,1.38,.1,2.27s1.54,1.84,3.27,2.88l6.96,4.17c5.82,3.49,7.63,7.06,5.44,10.71l-.88,1.47c-2.19,3.66-6.2,3.74-12.01,.25l-14.45-8.66c-.47-.28-.7-.6-.69-.96,.01-.35,.18-.8,.49-1.33,.32-.53,.63-.88,.94-1.06,.31-.18,.7-.12,1.17,.16l14.54,8.71c1.73,1.04,3.09,1.55,4.07,1.54,.98-.01,1.67-.34,2.06-.99l.88-1.47c.38-.63,.34-1.38-.1-2.27s-1.54-1.84-3.26-2.88l-6.96-4.17Z"/>
    <path class="cls-3" d="M426.65,86.77l-2.49,3.16c-.46,.58-.49,1.35-.09,2.34,.39,.98,1.38,2.1,2.97,3.34l12.91,10.17c.43,.34,.62,.69,.56,1.03-.06,.35-.28,.77-.66,1.25-.37,.47-.72,.78-1.05,.92-.33,.15-.71,.05-1.15-.29l-13.01-10.26c-5.33-4.2-6.67-7.97-4.04-11.32l7.51-9.53c2.64-3.35,6.62-2.92,11.95,1.28l4.02,3.17c.41,.33,.59,.66,.54,1.01-.06,.35-.28,.77-.66,1.25-.38,.49-.74,.8-1.06,.93-.33,.14-.7,.04-1.11-.29l-3.92-3.09c-1.58-1.25-2.9-1.95-3.94-2.12-1.04-.16-1.79,.05-2.26,.65l-2.72,3.46,17.52,13.81c.43,.34,.62,.69,.56,1.03-.06,.35-.28,.77-.66,1.25-.38,.49-.74,.8-1.06,.93-.33,.14-.71,.04-1.14-.31l-17.52-13.81Z"/>
    <path class="cls-3" d="M457.12,94.67c.76-.73,1.51-.71,2.26,.06l13.42,13.9c1.08,1.12,1.96,2.22,2.64,3.3,.68,1.08,1.15,2.1,1.41,3.06,.26,.96,.3,1.85,.14,2.67-.17,.82-.56,1.52-1.17,2.11l-3.12,3.01c-.61,.59-1.33,.95-2.15,1.09-.82,.14-1.71,.06-2.66-.23-.95-.29-1.96-.8-3.01-1.51-1.06-.72-2.13-1.63-3.21-2.75l-.96-.99c-.7-.73-1.31-1.36-1.83-1.89-.52-.54-.97-1.01-1.36-1.43-.39-.42-.74-.8-1.04-1.15-.3-.35-.6-.68-.88-1.01l-.05,.05c.16,.36,.33,.74,.51,1.15,.19,.41,.41,.92,.68,1.52,.26,.6,.58,1.34,.95,2.22,.37,.87,.81,1.96,1.34,3.27l3.36,8.28c.29,.73,.18,1.36-.35,1.87-.44,.43-.89,.58-1.33,.45-.44-.13-.93-.47-1.45-1.01-.11-.12-.25-.26-.41-.44-.16-.18-.31-.38-.46-.58-.15-.21-.29-.41-.41-.63-.13-.21-.21-.42-.26-.64l-7.71-20.51-5.44,5.25c-.48,.46-.93,.62-1.35,.49s-.89-.48-1.42-1.02c-.51-.53-.83-1-.95-1.43-.12-.42,.05-.87,.53-1.33l15.73-15.19Zm1.64,4.77l-5.83,5.64,11.08,11.47c.81,.84,1.52,1.5,2.14,1.97,.61,.47,1.15,.81,1.61,1,.46,.19,.85,.27,1.16,.21,.32-.05,.59-.19,.82-.41l2.67-2.58c.21-.21,.36-.47,.43-.79,.07-.32,.02-.72-.16-1.18-.18-.47-.49-1.01-.94-1.65-.45-.63-1.08-1.37-1.89-2.21l-11.08-11.47Z"/>
    <path class="cls-3" d="M472.21,147.54c-.39-.54-.62-1.04-.7-1.51-.08-.46-.04-.92,.11-1.37l8.51-24.77c.13-.32,.29-.55,.48-.69,.2-.15,.44-.22,.71-.22,.27,0,.55,.06,.84,.17,.29,.11,.57,.27,.82,.47,.25,.2,.47,.42,.64,.66,.17,.24,.3,.52,.39,.84,.09,.32,.08,.62-.01,.92l-8.09,22.94,24.24-.51c.56-.04,1.05,.23,1.47,.81,.17,.24,.31,.51,.41,.81,.1,.3,.15,.6,.16,.9,0,.3-.03,.59-.11,.84s-.23,.47-.46,.63c-.22,.16-.48,.23-.77,.22l-26.09,.36c-.48,0-.93-.11-1.35-.34-.42-.23-.83-.62-1.22-1.16Z"/>
    <path class="cls-3" d="M508.96,158.64c.32,.58,.49,1.11,.52,1.58,.02,.47-.07,.92-.28,1.35l-11.51,23.44c-.15,.26-.34,.46-.58,.59-.22,.12-.47,.17-.74,.15-.27-.02-.54-.1-.79-.23-.26-.13-.5-.31-.72-.53-.22-.22-.41-.46-.55-.72-.16-.28-.25-.56-.28-.83-.03-.27,.02-.55,.15-.83l3.23-6.4-9.21-16.75-7.02-.49c-.3-.02-.56-.12-.77-.3-.22-.18-.4-.4-.54-.66-.13-.24-.23-.51-.29-.82-.06-.31-.08-.6-.04-.9,.04-.29,.11-.56,.23-.79,.12-.24,.3-.42,.54-.55,.2-.11,.46-.16,.78-.15l25.53,2.05c.46,.03,.89,.19,1.28,.47,.39,.28,.75,.72,1.08,1.33Zm-16.37,1.12l6.84,12.44,5.85-11.54-12.7-.9Z"/>
    <path class="cls-3" d="M505.89,214.46c-.11-.3-.19-.55-.24-.75-.05-.2-.06-.4-.04-.61,.02-.2,.07-.43,.13-.67,.07-.25,.17-.55,.3-.92l9.43-26.32-16.46,6.13c-.62,.23-1.1,.2-1.43-.09-.33-.29-.63-.79-.89-1.5-.26-.69-.35-1.25-.3-1.69,.06-.44,.4-.77,1.02-1l20.59-7.66c.6-.22,1.07-.2,1.4,.07,.33,.27,.62,.73,.87,1.4,.26,.71,.38,1.3,.35,1.78-.03,.48-.17,1.04-.42,1.7l-9.47,26.01,16.5-6.14c.62-.23,1.1-.2,1.43,.09s.62,.78,.88,1.47c.26,.71,.37,1.28,.31,1.72s-.4,.77-1.02,1l-20.59,7.66c-.62,.23-1.1,.2-1.43-.09-.33-.29-.63-.82-.91-1.57Z"/>
    <path class="cls-3" d="M509.62,228.68c-1.49-6.62-.16-10.4,4-11.33l11.84-2.67c4.16-.94,6.98,1.9,8.48,8.52l3.7,16.43c.12,.54,.05,.92-.21,1.16-.26,.24-.7,.42-1.3,.56-.6,.14-1.08,.15-1.42,.05-.34-.1-.57-.42-.69-.95l-3.67-16.3c-.44-1.97-1.02-3.34-1.72-4.12-.71-.78-1.43-1.09-2.16-.92l-11.84,2.67c-.72,.16-1.23,.75-1.54,1.76-.31,1.01-.25,2.5,.2,4.47l3.68,16.33c.12,.54,.05,.92-.22,1.14-.27,.23-.7,.41-1.31,.54-.58,.13-1.05,.15-1.39,.07-.35-.09-.58-.4-.7-.93l-3.71-16.47Z"/>
    <path class="cls-3" d="M524.66,251.65l-4.01,.37c-.73,.07-1.31,.58-1.75,1.54s-.57,2.45-.38,4.45l1.52,16.36c.05,.55-.07,.92-.36,1.12-.29,.2-.75,.33-1.36,.39-.59,.06-1.06,.01-1.39-.13-.34-.14-.53-.49-.58-1.03l-1.54-16.5c-.63-6.75,1.18-10.33,5.42-10.73l12.08-1.13c4.24-.4,6.68,2.78,7.31,9.54l.47,5.1c.05,.52-.07,.89-.36,1.09-.29,.2-.75,.33-1.36,.39-.62,.06-1.09,.02-1.41-.13s-.51-.48-.56-1l-.46-4.96c-.19-2.01-.58-3.44-1.18-4.31-.6-.87-1.27-1.26-2.03-1.19l-4.38,.41,2.07,22.22c.05,.55-.07,.92-.36,1.12-.29,.2-.75,.33-1.36,.39-.62,.06-1.09,.01-1.41-.13s-.51-.49-.56-1.04l-2.07-22.21Z"/>
  </g>
  <g>
    <path class="cls-3" d="M217.54,521.65c-.48,1.39-1.15,2.42-2,3.11-.86,.68-1.81,1.12-2.87,1.3-1.06,.18-2.2,.16-3.42-.06s-2.43-.53-3.62-.95l-18.35-6.36c-1-.35-1.32-1.03-.97-2.04l7.12-20.53c.34-1,1.01-1.32,2.01-.98l18.09,6.27c1.41,.49,2.66,1.03,3.76,1.63,1.1,.6,1.99,1.3,2.65,2.1s1.08,1.72,1.25,2.74c.16,1.03,.01,2.22-.46,3.59-.4,1.15-.95,2.07-1.67,2.77-.72,.7-1.74,1.13-3.09,1.3,.87,.71,1.47,1.55,1.81,2.5s.25,2.16-.25,3.61Zm-4.46-1.4c.22-.63,.34-1.18,.36-1.66,.02-.48-.12-.92-.41-1.34s-.77-.81-1.43-1.17c-.66-.36-1.56-.74-2.68-1.13l-15.33-5.31-2.26,6.53,15.79,5.47c1.06,.37,1.94,.61,2.63,.71,.69,.11,1.25,.09,1.69-.04,.43-.13,.77-.37,1.01-.72s.46-.8,.65-1.34Zm-18.17-14.12l15.46,5.36c.97,.34,1.8,.58,2.48,.71,.68,.14,1.26,.16,1.74,.08,.48-.09,.87-.32,1.18-.68,.31-.37,.58-.89,.82-1.59,.19-.56,.3-1.07,.31-1.53,.01-.46-.12-.88-.38-1.26-.27-.38-.71-.75-1.31-1.09-.61-.34-1.42-.69-2.44-1.05l-15.62-5.41-2.24,6.46Z"/>
    <path class="cls-3" d="M238.87,507.76c.65,.13,1.17,.33,1.54,.62,.38,.29,.66,.64,.86,1.08l10.61,23.86c.11,.28,.14,.55,.08,.82-.05,.25-.17,.47-.36,.67-.19,.2-.42,.35-.69,.46-.27,.11-.56,.18-.87,.22-.31,.03-.61,.02-.9-.04-.32-.06-.59-.17-.81-.32-.23-.15-.41-.36-.54-.65l-2.85-6.58-18.76-3.66-4.88,5.07c-.21,.22-.45,.35-.73,.4-.28,.05-.56,.05-.86-.01-.27-.05-.54-.15-.82-.3-.28-.15-.51-.33-.72-.54-.2-.21-.36-.44-.46-.69-.11-.24-.13-.5-.08-.77,.04-.22,.17-.46,.38-.7l17.93-18.29c.32-.33,.72-.56,1.18-.68,.47-.12,1.04-.11,1.71,.02Zm-9.64,13.29l13.94,2.72-5.1-11.89-8.83,9.17Z"/>
    <path class="cls-3" d="M261.13,521.46l18.64-8.72c.33-.17,.69-.27,1.07-.32,.38-.05,.96-.05,1.74,0,.5,.03,.93,.19,1.28,.47,.35,.28,.51,.69,.48,1.22-.04,.69-.44,1.19-1.19,1.52l-18.85,8.19,18.4,10.69c.71,.41,1.05,.96,1.01,1.64-.03,.53-.24,.91-.62,1.15-.38,.24-.82,.35-1.33,.32-.78-.04-1.35-.11-1.73-.2-.37-.09-.72-.24-1.03-.44l-18.14-10.98-.5,8.79c-.04,.66-.26,1.09-.66,1.27-.4,.18-.98,.25-1.73,.21-.73-.04-1.29-.18-1.66-.4s-.55-.67-.51-1.34l1.25-21.93c.04-.66,.26-1.09,.66-1.27,.4-.18,.97-.25,1.7-.21,.75,.04,1.32,.18,1.7,.41,.38,.23,.55,.67,.51,1.34l-.49,8.61Z"/>
    <path class="cls-3" d="M297.33,536.86c-6.76,.51-10.31-1.37-10.62-5.62l-1.27-17c-.05-.66,.11-1.11,.49-1.35,.37-.24,.92-.38,1.66-.43,.75-.06,1.33,0,1.74,.18,.4,.18,.63,.6,.68,1.26l1.27,17c.05,.73,.55,1.33,1.5,1.79s2.42,.61,4.43,.46l10.28-.77c2.01-.15,3.45-.52,4.31-1.11s1.27-1.26,1.21-1.99l-1.27-17c-.05-.66,.11-1.11,.49-1.35,.37-.23,.94-.38,1.69-.44,.73-.05,1.3,0,1.7,.18s.63,.6,.68,1.26l1.27,17c.32,4.25-2.91,6.63-9.67,7.13l-10.56,.79Z"/>
    <path class="cls-3" d="M351.32,528.46c-.31,.07-.57,.12-.78,.14-.21,.02-.41,0-.61-.04-.2-.05-.42-.12-.65-.23-.23-.1-.52-.24-.87-.42l-24.78-12.95,3.81,17.15c.14,.65,.05,1.12-.29,1.4s-.87,.51-1.61,.67c-.72,.16-1.29,.18-1.71,.06-.43-.12-.71-.5-.85-1.15l-4.76-21.44c-.14-.63-.05-1.08,.26-1.38,.31-.29,.81-.51,1.5-.67,.74-.16,1.34-.2,1.81-.1,.47,.1,1.01,.31,1.62,.64l24.46,12.95-3.82-17.18c-.14-.65-.05-1.12,.29-1.4,.34-.29,.86-.51,1.58-.67,.74-.16,1.32-.19,1.75-.07,.42,.12,.71,.5,.85,1.15l4.76,21.44c.14,.65,.05,1.12-.29,1.4-.34,.29-.9,.52-1.68,.69Z"/>
    <path class="cls-3" d="M361.81,523.25c.2,.63,.15,1.11-.16,1.42-.31,.31-.82,.59-1.54,.82-.7,.22-1.27,.29-1.7,.21-.43-.08-.75-.43-.95-1.07l-6.65-20.94c-.2-.63-.15-1.11,.16-1.42,.31-.32,.81-.58,1.51-.81,.72-.23,1.3-.3,1.73-.22,.43,.08,.75,.44,.95,1.07l6.65,20.94Z"/>
    <path class="cls-3" d="M393.27,512.7c-.29,.12-.54,.22-.74,.27-.2,.06-.4,.08-.61,.07-.21-.01-.43-.05-.68-.11-.25-.06-.56-.15-.93-.26l-26.68-8.37,6.78,16.21c.26,.61,.24,1.09-.03,1.43-.28,.34-.77,.66-1.47,.95-.68,.28-1.24,.4-1.67,.36-.44-.04-.79-.37-1.04-.98l-8.47-20.27c-.25-.59-.25-1.06,0-1.4,.25-.34,.71-.65,1.36-.93,.7-.29,1.29-.43,1.76-.42,.48,.01,1.05,.13,1.71,.35l26.37,8.43-6.79-16.24c-.26-.61-.25-1.09,.04-1.43,.28-.34,.76-.65,1.43-.94,.7-.29,1.27-.42,1.71-.38s.79,.37,1.04,.98l8.47,20.27c.26,.61,.25,1.09-.03,1.43-.28,.34-.79,.67-1.53,.97Z"/>
  </g>
  <g>
    <polygon class="cls-2" points="318.55 286.2 351.57 252.6 347.34 203.34 380.19 136.19 342.79 192.93 343.18 237.46 295.08 286.4 318.55 286.2"/>
    <polygon class="cls-2" points="493.63 284.67 358.17 259.57 332.13 286.08 493.63 284.67"/>
    <polygon class="cls-2" points="332.88 295.67 362.74 328.53 508.16 294.14 332.88 295.67"/>
    <polygon class="cls-2" points="288.42 301.88 288.62 325.16 324.84 340.53 324.24 344.25 306.71 451.12 336.43 343.38 288.42 301.88"/>
    <polygon class="cls-2" points="270.86 296.21 247.13 296.42 212.24 336.2 243.76 419.69 220.62 341.2 270.86 296.21"/>
    <polygon class="cls-2" points="208.35 260.88 73.35 288.34 234.85 286.93 208.35 260.88"/>
    <polygon class="cls-2" points="232.52 234.44 278.63 279.75 278.42 256.24 235.11 230.76 235.84 227.39 242.93 193.75 199.2 142.85 232.14 190.97 232.52 234.44"/>
    <polygon class="cls-2" points="286.48 79.17 287.92 244.96 319.98 225.35 286.48 79.17"/>
    <polygon class="cls-2" points="288.02 256.16 288.23 279.67 333.55 233.56 333.17 190.08 333.99 188.85 365.27 141.38 322.43 193.05 330.88 229.93 288.02 256.16"/>
    <polygon class="cls-2" points="296.29 295.99 347.3 340.09 325.52 419.03 355.6 334.94 320.02 295.79 296.29 295.99"/>
    <polygon class="cls-2" points="288.72 335.63 290.09 493.13 314.15 346.42 288.72 335.63"/>
    <polygon class="cls-2" points="279.02 325.24 278.82 301.96 231.55 344.3 263.15 451.5 243.09 341.25 279.02 325.24"/>
    <polygon class="cls-2" points="58.99 298.06 204.98 329.9 234.26 296.53 58.99 298.06"/>
    <polygon class="cls-2" points="271.9 286.61 222.96 238.5 222.57 193.98 184.18 137.89 218.19 204.46 218.1 205.78 214.83 253.79 248.43 286.81 271.9 286.61"/>
    <polygon class="cls-2" points="280.49 493.2 279.12 335.72 253.89 346.95 280.49 493.2"/>
    <polygon class="cls-2" points="278.33 245.05 276.88 79.26 245.94 226 278.33 245.05"/>
  </g>
</svg>