<?xml version="1.0" encoding="UTF-8"?>
<svg id="uuid-db218652-cbf5-4a0c-b1c3-30ad7d378c37" data-name="Capa 1" xmlns="http://www.w3.org/2000/svg" viewBox="0 0 566.93 566.93">
  <defs>
    <style>
      .uuid-bee6ce72-274c-442b-827d-68f4cedfaa3d {
        fill: #010101;
      }

      .uuid-b2a87b88-3bc2-427d-8de5-c08861e9df39 {
        fill: #fbfbfb;
      }

      .uuid-cf66e730-030e-4de5-9cec-205b13b23e87 {
        fill: #944b96;
      }
    </style>
  </defs>
  <circle class="uuid-b2a87b88-3bc2-427d-8de5-c08861e9df39" cx="283.46" cy="283.46" r="278.66"/>
  <g>
    <path class="uuid-cf66e730-030e-4de5-9cec-205b13b23e87" d="M421.96,421.96c-36.99,36.99-86.18,57.37-138.49,57.37s-101.5-20.37-138.49-57.37c-36.99-36.99-57.37-86.18-57.37-138.49,0-7.04.38-14.03,1.11-20.94l-73.01-7.82c-1.01,9.45-1.54,19.04-1.54,28.76,0,148.73,120.57,269.29,269.29,269.29,109.76,0,204.15-65.67,246.09-159.86l-68.7-26.21c-9.53,20.27-22.59,38.96-38.9,55.27ZM33.72,344.14c0-12.72,10.31-23.04,23.04-23.04s23.04,10.31,23.04,23.04-10.31,23.04-23.04,23.04-23.04-10.31-23.04-23.04ZM91.42,439.98c-12.72,0-23.04-10.31-23.04-23.04s10.31-23.04,23.04-23.04,23.04,10.31,23.04,23.04-10.31,23.04-23.04,23.04Z"/>
    <path class="uuid-cf66e730-030e-4de5-9cec-205b13b23e87" d="M95.73,227.38l-68.73-26.22c-2.92,9.12-5.36,18.45-7.31,27.96l71.82,15.21c1.16-5.73,2.56-11.38,4.22-16.95Z"/>
    <path class="uuid-cf66e730-030e-4de5-9cec-205b13b23e87" d="M283.46,14.17c-109.54,0-203.8,65.41-245.86,159.29l68.32,27.08c9.54-20.39,22.66-39.18,39.05-55.57,36.99-36.99,86.18-57.37,138.49-57.37s101.5,20.37,138.49,57.37c36.99,36.99,57.37,86.18,57.37,138.49,0,7-.37,13.93-1.09,20.8l73.02,7.82c1-9.4,1.51-18.95,1.51-28.62,0-148.73-120.57-269.29-269.29-269.29ZM456.29,150.58c0-12.72,10.31-23.04,23.04-23.04s23.04,10.31,23.04,23.04-10.31,23.04-23.04,23.04-23.04-10.31-23.04-23.04ZM508.71,246.64c-12.72,0-23.04-10.31-23.04-23.04s10.31-23.04,23.04-23.04,23.04,10.31,23.04,23.04-10.31,23.04-23.04,23.04Z"/>
    <path class="uuid-cf66e730-030e-4de5-9cec-205b13b23e87" d="M469.61,344.69l68.32,27.08c3.5-10.09,6.4-20.46,8.7-31.05l-71.81-15.21c-1.41,6.5-3.14,12.9-5.2,19.18Z"/>
  </g>
  <g>
    <path class="uuid-b2a87b88-3bc2-427d-8de5-c08861e9df39" d="M75.39,162.28l-2.76-1.98-1.17-.84,5.62-7.85,33.69-5.54-19.64-14.08,5.62-7.85,31.42,22.52-5.62,7.85-47.17,7.75ZM86.37,170.16l-7.06-5.06,13.48-2.22,15.71,11.26-5.62,7.85-16.51-11.83Z"/>
    <path class="uuid-b2a87b88-3bc2-427d-8de5-c08861e9df39" d="M127.15,142.12l-.96-1.07,1.07-20.46-20.46-1.1-3.23-3.59,7.18-6.45,20.46,1.1,10.76-9.68,6.46,7.18-10.76,9.68-.36,6.82,14.35-12.91,6.82.37,3.23,3.59-32.29,29.04-2.27-2.53ZM114.34,106.23l21.53-19.36,3.23,3.59-.36,6.82-10.76,9.68-13.64-.73Z"/>
    <path class="uuid-b2a87b88-3bc2-427d-8de5-c08861e9df39" d="M146.7,84.48l-1.67-2.96-.71-1.25,8.4-4.75,13.16,3.66-2.73,9.87-16.45-4.57ZM161.68,110.96l-.71-1.25,12.76-46.07,8.4-4.75,2.38,4.21-12.76,46.07-8.4,4.75-1.67-2.96ZM179.6,93.63l2.73-9.87,16.45,4.57,2.38,4.21-8.4,4.75-13.16-3.66Z"/>
    <path class="uuid-b2a87b88-3bc2-427d-8de5-c08861e9df39" d="M208.27,59.43l-13.8,4.39-2.05-6.44-.88-2.77,36.79-11.72,1.47,4.6-3.13,6.07-9.2,2.93,8.8,27.62-9.2,2.93-8.8-27.62Z"/>
    <path class="uuid-b2a87b88-3bc2-427d-8de5-c08861e9df39" d="M255.06,41.1l.03-3.4v-1.43s9.66.08,9.66.08l33.49,34.11-.04,4.83-9.65-.08-33.49-34.11ZM274.37,41.26l.04-4.83,9.65.08,33.49,34.11-.04,4.83-9.65-.08-33.49-34.11ZM308.02,56.04l.17-19.33,9.65.08-.25,28.99-9.57-9.74Z"/>
    <path class="uuid-b2a87b88-3bc2-427d-8de5-c08861e9df39" d="M320.35,73.24l.4-1.38,41.79-23.23,9.28,2.65-10.64,37.16-9.28-2.65,1.33-4.65-13.92-3.98,11.94-6.64,4.64,1.33,2.66-9.29-29.85,16.59-9.28-2.65.93-3.27Z"/>
    <path class="uuid-b2a87b88-3bc2-427d-8de5-c08861e9df39" d="M365,86.02l.69-1.26,45.86-13.54,8.48,4.62-2.31,4.24-45.85,13.54-8.48-4.62,1.62-2.98ZM377.72,62.68l4.16-7.62,8.48,4.62-9.25,16.97-13.1,3.87,9.72-17.84Z"/>
    <path class="uuid-b2a87b88-3bc2-427d-8de5-c08861e9df39" d="M405.88,108.27l.95-1.07,20.45-1.23-1.21-20.45,3.21-3.61,7.22,6.41,1.21,20.45,10.83,9.61-6.41,7.23-10.83-9.61-6.82.41,14.44,12.82.41,6.82-3.21,3.61-32.5-28.83,2.25-2.54ZM440.1,91.51l21.66,19.22-3.21,3.61-6.82.41-10.83-9.61-.81-13.64Z"/>
  </g>
  <g>
    <path class="uuid-b2a87b88-3bc2-427d-8de5-c08861e9df39" d="M129.78,471.9l1.6-2.37,19.67,13.27-6.39-32.96,2.66-3.94,7.87,5.31,8.95,46.15-2.66,3.94-35.41-23.88,3.71-5.51ZM159.11,453.85l23.6,15.92-5.31,7.88-15.74-10.61-2.56-13.19Z"/>
    <path class="uuid-b2a87b88-3bc2-427d-8de5-c08861e9df39" d="M199,487.41l-13.25-5.19,2.42-6.19,1.04-2.66,35.34,13.84-1.73,4.42-6.15,2.69-8.83-3.46-10.4,26.54-8.83-3.46,10.4-26.54Z"/>
    <path class="uuid-b2a87b88-3bc2-427d-8de5-c08861e9df39" d="M230.49,500.1l2.52-11.11,9.26,2.1-8.41,37.06-9.25-2.1,5.89-25.95Z"/>
    <path class="uuid-b2a87b88-3bc2-427d-8de5-c08861e9df39" d="M249.2,511.9l.54-8.52,8.87,10.08-1.2,18.96-9.47-.6,1.26-19.92ZM250.04,498.65l.21-3.33.09-1.41,9.47.59,22.18,25.19,1.49-23.7,9.47.6-2.39,37.92-9.47-.6-31.06-35.26Z"/>
    <path class="uuid-b2a87b88-3bc2-427d-8de5-c08861e9df39" d="M305.77,529.43l-2.24-13.1-.96-5.63,11.63-16.45,28.06-4.79.8,4.68-3.88,5.48-18.71,3.2-7.76,10.96,1.6,9.37,23.39-4,7.75-10.96,2.4,14.05-3.88,5.48-32.74,5.59-5.48-3.88ZM322.08,512.19l3.88-5.48,18.71-3.2-7.76,10.96-14.03,2.4-.8-4.68Z"/>
    <path class="uuid-b2a87b88-3bc2-427d-8de5-c08861e9df39" d="M362.9,519.76l-.56-1.3,7.47-18.71-18.69-7.49-1.87-4.37,8.72-3.74,18.69,7.49,13.08-5.61,3.74,8.73-13.08,5.61-2.49,6.24,17.44-7.48,6.23,2.5,1.87,4.37-39.25,16.83-1.31-3.07ZM362.33,482.29l26.16-11.22,1.87,4.37-2.49,6.24-13.08,5.61-12.46-4.99Z"/>
    <path class="uuid-b2a87b88-3bc2-427d-8de5-c08861e9df39" d="M401.7,477.04l-6.85-9.1,13.3,1.88,17.13,22.77-7.58,5.7-16-21.25ZM424.29,475.51l-3.79,2.85-5.71-7.59,7.58-5.7.94-6.65-11.38,8.56-13.29-1.88,30.34-22.82,5.71,7.59-1.87,13.29-.03.02c-.08.55-.23,1.65-.44,3.3l16.62,2.35,2.86,3.79-7.58,5.71-19.94-2.83Z"/>
    <path class="uuid-b2a87b88-3bc2-427d-8de5-c08861e9df39" d="M458.62,457.55l-2.21-1.81,15.06-18.33-33.41,3.25-3.67-3.02,6.02-7.33,46.78-4.55,3.67,3.02-27.11,32.99-5.13-4.22ZM443.43,426.64l18.07-22,7.34,6.03-12.05,14.66-13.37,1.3Z"/>
  </g>
  <g>
    <polygon class="uuid-bee6ce72-274c-442b-827d-68f4cedfaa3d" points="267.21 112.5 267.21 198.18 199.42 265.98 109.14 265.98 149.32 225.8 180.05 225.8 224.36 181.5 224.36 145.74 267.21 112.5"/>
    <polygon class="uuid-bee6ce72-274c-442b-827d-68f4cedfaa3d" points="299.71 112.5 299.71 198.18 367.51 265.98 457.78 265.98 417.61 225.8 386.87 225.8 342.57 181.5 342.57 145.74 299.71 112.5"/>
    <polygon class="uuid-bee6ce72-274c-442b-827d-68f4cedfaa3d" points="267.21 454.43 267.21 368.75 199.42 300.95 109.14 300.95 149.32 341.13 180.05 341.13 224.36 385.43 224.36 421.19 267.21 454.43"/>
    <polygon class="uuid-bee6ce72-274c-442b-827d-68f4cedfaa3d" points="299.71 454.43 299.71 368.75 367.51 300.95 457.78 300.95 417.61 341.13 386.87 341.13 342.57 385.43 342.57 421.19 299.71 454.43"/>
  </g>
</svg>