<?xml version="1.0" encoding="UTF-8"?><svg id="Capa_1" xmlns="http://www.w3.org/2000/svg" viewBox="0 0 566.93 566.93"><defs><style>.cls-1{font-size:37.39px;}.cls-1,.cls-2,.cls-3{fill:#063;}.cls-1,.cls-3{font-family:Tahoma-Bold, Tahoma;font-weight:700;}.cls-4{fill:#f6f6f6;}.cls-4,.cls-2,.cls-5,.cls-6{stroke-width:0px;}.cls-5{fill:#23212a;}.cls-6{fill:#fff;}.cls-3{font-size:36.32px;}</style></defs><path class="cls-2" d="M283.46,562.68c-74.58,0-144.7-29.04-197.43-81.78C33.3,428.16,4.25,358.04,4.25,283.46s29.04-144.7,81.78-197.43C138.77,33.3,208.88,4.25,283.46,4.25s144.7,29.04,197.43,81.78,81.78,122.85,81.78,197.43-29.04,144.7-81.78,197.43-122.85,81.78-197.43,81.78ZM283.46,10.25C132.81,10.25,10.25,132.81,10.25,283.46s122.56,273.22,273.22,273.22,273.22-122.56,273.22-273.22S434.12,10.25,283.46,10.25Z"/><ellipse class="cls-2" cx="283.46" cy="283.46" rx="266.31" ry="262.05"/><path class="cls-2" d="M283.46,15.53C135.49,15.53,15.53,135.49,15.53,283.46s119.96,267.93,267.93,267.93,267.93-119.96,267.93-267.93S431.44,15.53,283.46,15.53ZM283.46,478.87c-109.67,0-198.58-87.49-198.58-195.41s88.91-195.41,198.58-195.41,198.58,87.49,198.58,195.41-88.91,195.41-198.58,195.41Z"/><ellipse class="cls-2" cx="283.46" cy="283.46" rx="131.21" ry="129.11"/><path class="cls-6" d="M283.46,552.27c-71.8,0-139.3-27.96-190.07-78.73-50.77-50.77-78.73-118.27-78.73-190.07s27.96-139.3,78.73-190.07S211.66,14.66,283.46,14.66s139.3,27.96,190.07,78.73c50.77,50.77,78.73,118.27,78.73,190.07s-27.96,139.3-78.73,190.07c-50.77,50.77-118.27,78.73-190.07,78.73ZM283.46,57.63c-124.52,0-225.83,101.31-225.83,225.83s101.31,225.83,225.83,225.83,225.83-101.31,225.83-225.83S407.99,57.63,283.46,57.63Z"/><path class="cls-2" d="M279.46,343.59c3.11-3.96,48.2-62.39,48.2-114.99,0,0-25.27,28.67-47.85,28.67,0,.06-.06,10.53-.15,24.16.05-13.63.08-24.09.08-24.16-22.58-.22-47.57-29.13-47.57-29.13-.5,52.6,44.03,111.46,47.1,115.45,0,.14,0,.23,0,.23,0,0,.05-.06.09-.11.04.05.09.12.09.12,0,0,0-.09,0-.23ZM273.78,325.7c-11.85-18.18-30.36-50.77-34.86-82.81,8.81,7.79,21.8,17.23,35.07,19.56-.04,11.95-.14,41.8-.21,63.24Z"/><path class="cls-2" d="M278.92,216.32l11.96,34.5s-16.26-3.09-22.71.4c.27.13,10.75-34.9,10.75-34.9Z"/><text class="cls-3" transform="translate(99.33 136.07) rotate(-48.65)"><tspan x="0" y="0">T</tspan></text><text class="cls-3" transform="translate(113.48 119.73) rotate(-42.91)"><tspan x="0" y="0">O</tspan></text><text class="cls-3" transform="translate(133.48 101.15) rotate(-36.63)"><tspan x="0" y="0">R</tspan></text><text class="cls-3" transform="translate(154.13 85.82) rotate(-30.76)"><tspan x="0" y="0">C</tspan></text><text class="cls-3" transform="translate(174.34 73.65) rotate(-24.71)"><tspan x="0" y="0">H</tspan></text><text class="cls-3" transform="translate(199.04 62.44) rotate(-19.08)"><tspan x="0" y="0">L</tspan></text><text class="cls-3" transform="translate(218.22 55.85) rotate(-14.62)"><tspan x="0" y="0">I</tspan></text><text class="cls-3" transform="translate(234.62 51.32) rotate(-9.44)"><tspan x="0" y="0">G</tspan></text><text class="cls-3" transform="translate(260.63 46.94) rotate(-3.04)"><tspan x="0" y="0">H</tspan></text><text class="cls-3" transform="translate(287.71 45.61) rotate(2.83)"><tspan x="0" y="0">T</tspan></text><text class="cls-3" transform="translate(309.45 46.87) rotate(6.71)"><tspan x="0" y="0"> </tspan></text><text class="cls-3" transform="translate(319.6 47.78) rotate(10.93)"><tspan x="0" y="0">B</tspan></text><text class="cls-3" transform="translate(343.43 52.3) rotate(17.07)"><tspan x="0" y="0">R</tspan></text><text class="cls-3" transform="translate(368.02 60.04) rotate(22.35)"><tspan x="0" y="0">I</tspan></text><text class="cls-3" transform="translate(383.83 66.27) rotate(27.72)"><tspan x="0" y="0">G</tspan></text><text class="cls-3" transform="translate(407.18 78.57) rotate(33.95)"><tspan x="0" y="0">A</tspan></text><text class="cls-3" transform="translate(427.3 91.99) rotate(40.14)"><tspan x="0" y="0">D</tspan></text><text class="cls-3" transform="translate(447.75 109.36) rotate(46.06)"><tspan x="0" y="0">E</tspan></text><text class="cls-1" transform="translate(161.99 517.52) rotate(24.39)"><tspan x="0" y="0">S</tspan></text><text class="cls-1" transform="translate(184.88 527.81) rotate(19.32)"><tspan x="0" y="0">T</tspan></text><text class="cls-1" transform="translate(207.99 535.99) rotate(13.62)"><tspan x="0" y="0">O</tspan></text><text class="cls-1" transform="translate(237.68 543.04) rotate(7.43)"><tspan x="0" y="0">R</tspan></text><text class="cls-1" transform="translate(266.47 546.86) rotate(.72)"><tspan x="0" y="0">M</tspan></text><text class="cls-1" transform="translate(301.7 546.98) rotate(-5.82)"><tspan x="0" y="0">B</tspan></text><text class="cls-1" transform="translate(328.91 544.2) rotate(-11.85)"><tspan x="0" y="0">O</tspan></text><text class="cls-1" transform="translate(358.62 537.73) rotate(-17.59)"><tspan x="0" y="0">T</tspan></text><text class="cls-1" transform="translate(381.81 530.33) rotate(-22.79)"><tspan x="0" y="0">S</tspan></text><path class="cls-5" d="M393.94,341.15c-1.12-16.29,8.86-24.53,22.58-29.84-3.57-17.19-9.55-32.67-19.67-46.93-13.41,6.33-26.04,6.97-36.33-4.56-9.3-10.42-9.03-22.18-2.09-34.54-14.07-9.1-28.62-16.09-44.13-18.75v128.24c.84.03,1.68.07,2.52.1,4.43-24.2,8.85-48.4,13.4-73.24,37.21,22.68,53.02,66.32,39.75,106.15-13.23,39.72-52.9,66.52-92.95,62.79-42.64-3.97-77.54-36.03-83.43-76.65-5.53-38.09,14.09-79.66,43.59-91.12,4.36,24.17,8.69,48.22,13.03,72.27.88-.05,1.76-.1,2.64-.14v-128.51c-15.64,2.95-30.35,9.68-44.25,18.98,6.82,11.92,7.14,23.25-1.37,33.62-10.6,12.92-24.16,11.08-37.7,5.72-9.29,14.82-15.87,29.74-18.94,46.69,12.8,4.83,22.35,12.4,22.58,27.38.24,15.55-9.65,23.31-22.76,28.25,3.92,17.29,9.58,32.92,19.96,47.14,12.36-6.61,24.13-7.01,34.4,2.54,11.59,10.78,10.52,23.78,4.19,36.76,14.88,9.17,29.65,16.15,46.94,19.15,4.46-13.04,12.66-22.5,27.04-22.85,15.13-.37,23.41,9.61,28.47,23.1,17.25-3.87,32.72-10,47.04-19.99-6.91-11.66-7.2-23.05,1.3-33.42,10.53-12.86,23.99-11.58,37.7-5.71,9.36-15.11,16.37-30.14,18.77-47.26-12.83-4.3-21.34-11.67-22.28-25.36Z"/><path class="cls-4" d="M335.87,188.28c-12.22-.16-25.01,5.08-37.63-3.16,1.86-20.11-6.76-39.53-5.26-58.96,5.29-4.98,9.75-6.69,18.65-6.69-13.93-17.23-20.73-25.68-27.41-25.44-6.68-.24-13.48,8.21-27.41,25.44,8.9,0,13.36,1.71,18.65,6.69,1.5,19.43-7.13,38.85-5.26,58.96-12.62,8.24-25.41,3-37.63,3.16-1.38,3.62-1.89,6.72.29,9.65,12.48-1.35,24.89-4.54,37.36,2.38-1.36,44.84-.78,89.15-4.7,133.06-2.7,30.27,3,56.95,18.68,83.64,0-.01,0-.03.01-.04,0,.01,0,.03.01.04,15.68-26.69,21.38-53.37,18.68-83.64-3.92-43.91-3.34-88.22-4.7-133.06,12.48-6.92,24.88-3.73,37.36-2.38,2.18-2.93,1.67-6.03.29-9.65Z"/><text class="cls-3" transform="translate(99.33 770.57) rotate(-48.65)"><tspan x="0" y="0">T</tspan></text><text class="cls-3" transform="translate(113.48 754.23) rotate(-42.91)"><tspan x="0" y="0">O</tspan></text><text class="cls-3" transform="translate(133.48 735.65) rotate(-36.63)"><tspan x="0" y="0">R</tspan></text><text class="cls-3" transform="translate(154.13 720.32) rotate(-30.76)"><tspan x="0" y="0">C</tspan></text><text class="cls-3" transform="translate(174.34 708.15) rotate(-24.71)"><tspan x="0" y="0">H</tspan></text><text class="cls-3" transform="translate(199.04 696.94) rotate(-19.08)"><tspan x="0" y="0">L</tspan></text><text class="cls-3" transform="translate(218.22 690.35) rotate(-14.62)"><tspan x="0" y="0">I</tspan></text><text class="cls-3" transform="translate(234.62 685.82) rotate(-9.44)"><tspan x="0" y="0">G</tspan></text><text class="cls-3" transform="translate(260.63 681.44) rotate(-3.04)"><tspan x="0" y="0">H</tspan></text><text class="cls-3" transform="translate(287.71 680.11) rotate(2.83)"><tspan x="0" y="0">T</tspan></text><text class="cls-3" transform="translate(309.45 681.37) rotate(6.71)"><tspan x="0" y="0"> </tspan></text><text class="cls-3" transform="translate(319.6 682.28) rotate(10.93)"><tspan x="0" y="0">B</tspan></text><text class="cls-3" transform="translate(343.43 686.8) rotate(17.07)"><tspan x="0" y="0">R</tspan></text><text class="cls-3" transform="translate(368.02 694.54) rotate(22.35)"><tspan x="0" y="0">I</tspan></text><text class="cls-3" transform="translate(383.83 700.77) rotate(27.72)"><tspan x="0" y="0">G</tspan></text><text class="cls-3" transform="translate(407.18 713.07) rotate(33.95)"><tspan x="0" y="0">A</tspan></text><text class="cls-3" transform="translate(427.3 726.49) rotate(40.14)"><tspan x="0" y="0">D</tspan></text><text class="cls-3" transform="translate(447.75 743.86) rotate(46.06)"><tspan x="0" y="0">E</tspan></text></svg>