<svg id="Capa_1" data-name="Capa 1" xmlns="http://www.w3.org/2000/svg" viewBox="0 0 566.93 566.93"><defs><style>.cls-1{fill:#0085ac;}.cls-2,.cls-3,.cls-4{fill:#fff;}.cls-3{font-size:55.02px;}.cls-3,.cls-4{font-family:Jura-Bold, Jura;font-weight:700;}.cls-4{font-size:53.3px;}.cls-5{fill:#d20a11;}.cls-6{fill:#ffe400;}</style></defs><circle class="cls-1" cx="283.46" cy="283.46" r="269.29"/><path class="cls-2" d="M283.46,547A263.53,263.53,0,0,1,97.12,97.12,263.53,263.53,0,1,1,469.81,469.81,261.78,261.78,0,0,1,283.46,547Zm0-520.07C142,26.93,26.93,142,26.93,283.46S142,540,283.46,540,540,424.92,540,283.46,424.92,26.93,283.46,26.93Z"/><text class="cls-3" transform="matrix(0.21, -0.98, 0.98, 0.21, 75.08, 260.73)">К</text><text class="cls-3" transform="translate(81.85 228.83) rotate(-69.25)">О</text><text class="cls-3" transform="translate(93.64 197.44) rotate(-61.05)">С</text><text class="cls-3" transform="translate(109.48 168.13) rotate(-51.33)">М</text><text class="cls-3" transform="matrix(0.76, -0.65, 0.65, 0.76, 132.21, 139.54)">И</text><text class="cls-3" transform="translate(159.15 116.5) rotate(-30.28)">Ч</text><text class="cls-3" transform="matrix(0.93, -0.37, 0.37, 0.93, 188.66, 99.25)">Е</text><text class="cls-3" transform="translate(220.2 86.88) rotate(-14.09)">С</text><text class="cls-3" transform="translate(252.97 78.62) rotate(-7.94)">К</text><text class="cls-3" transform="translate(284.34 73.83) rotate(7.13)">И</text><text class="cls-3" transform="translate(319.57 78.44) rotate(16.73)">Й</text><text class="cls-3" transform="matrix(0.92, 0.4, -0.4, 0.92, 353.86, 89.21)"> </text><text class="cls-3" transform="matrix(0.87, 0.5, -0.5, 0.87, 369.05, 95.13)">П</text><text class="cls-3" transform="translate(399.6 112.81) rotate(38.36)">А</text><text class="cls-3" transform="translate(424.97 132.99) rotate(45.81)">Т</text><text class="cls-3" transform="matrix(0.6, 0.8, -0.8, 0.6, 444.27, 152.55)">Р</text><text class="cls-3" transform="translate(462.67 177.11) rotate(61.61)">У</text><text class="cls-3" transform="translate(477.1 203.34) rotate(70.62)">Л</text><text class="cls-3" transform="translate(487.93 233.92) rotate(80.14)">Ь</text><text class="cls-4" transform="matrix(0.85, 0.53, -0.53, 0.85, 140.75, 478.39)">С</text><text class="cls-4" transform="matrix(0.91, 0.42, -0.42, 0.91, 172.28, 497.61)">Т</text><text class="cls-4" transform="matrix(0.97, 0.25, -0.25, 0.97, 201.18, 509.62)">Р</text><text class="cls-4" transform="translate(232.2 517.63) rotate(11.79)">А</text><text class="cls-4" transform="translate(269.26 524.3) rotate(-1.31)">Н</text><text class="cls-4" transform="matrix(0.98, -0.17, 0.17, 0.98, 308.53, 523.14)">Н</text><text class="cls-4" transform="translate(347.23 515.99) rotate(-18.99)">И</text><text class="cls-4" transform="matrix(0.89, -0.46, 0.46, 0.89, 384.21, 502.88)">К</text><polygon class="cls-5" points="334.58 228.97 449.61 243.8 367.87 326.08 389.31 440.06 285.8 387.74 184.02 443.36 201.79 328.75 117.44 249.14 231.94 230.62 281.58 125.8 334.58 228.97"/><path class="cls-6" d="M191.09,433.3,207.6,326.75l-78.4-74,106.43-17.22,46.15-97.43L331.05,234,438,247.78l-76,76.49,19.93,106L285.7,381.6l-94.61,51.7M177,453.42l19.35-10.57,89.59-49L377,439.94l19.67,9.94-4.07-21.66L373.74,327.88l72-72.43,15.54-15.64L439.37,237,338.11,223.94l-46.65-90.82-10.07-19.61L272,133.44,228.24,225.7,127.46,242l-21.77,3.52,16,15.13L196,330.74,180.33,431.63,177,453.42Z"/><path class="cls-2" d="M334.26,360.33a523.84,523.84,0,0,1-107.51.41A78,78,0,0,0,334.26,360.33Z"/><path class="cls-2" d="M458.46,302.63c-.54-19-46.54-31.89-110.09-36.78a78,78,0,0,0-136.7,1c-66.62,5.89-114,19.66-113.49,39.46.73,25.71,83.4,46,181.47,44.7S459.19,328.34,458.46,302.63Zm-255.77,9.19c-7.24-2.38-11.42-5.23-11.51-8.41s4.18-6.45,11.71-9.21A76.74,76.74,0,0,0,202.69,311.82Zm149,23.63c1-2.22,1.87-4.5,2.65-6.83-42.15,7.35-109.08,6.8-147.88.64a77.84,77.84,0,0,0,3.42,8.33c-39.83-6.34-67.31-18.46-67.71-32.42s26-23.83,65.27-29.16a78.62,78.62,0,0,0-3.24,10.66c-25.88,4.36-42.27,10.63-42.08,17.4.65,22.6,158.46,26.65,213.49,9.61,13.18-4.08,21-8.15,20.88-12.81-.19-6.54-15.86-12.2-40.52-15.87a78,78,0,0,0-3.08-9.61c36.36,4.9,61.16,14.15,61.53,27.28C414.82,316.26,389.44,328.31,351.7,335.45Zm5.83-42.5c6.26,2.37,9.83,5.11,9.91,8.06s-3.27,5.67-9.3,8.1A77.94,77.94,0,0,0,357.53,293Z"/></svg>