<svg enable-background="new 0 0 113.6 113.6" viewBox="0 0 113.6 113.6" xmlns="http://www.w3.org/2000/svg"><path d="m60.6 113.6c-2.6 0-5.1 0-7.7 0-1.7-.2-3.5-.5-5.2-.7-22.9-3.5-41.7-21.4-46.4-44-.5-2.7-.9-5.4-1.3-8.1 0-2.6 0-5.1 0-7.7.2-1.7.5-3.5.7-5.2 3.6-22.9 21.5-41.8 44.2-46.4 2.7-.5 5.4-.9 8.1-1.3h7.7c1.7.2 3.5.5 5.2.7 22.9 3.5 41.7 21.4 46.4 44 .5 2.7.9 5.4 1.3 8.1v7.7c-.2 1.7-.5 3.5-.7 5.2-3.5 22.9-21.4 41.7-44 46.4-2.9.5-5.6.8-8.3 1.3z" fill="#56656e"/><path d="m56.8 100.8c2.2-2.9 5.1-5.4 5.6-9.1.2-1.8-.1-3.7-.4-5.5-.4-2.2.1-4 1.9-5.1 2.9-1.8 5.9-3.5 9-4.8 1.2-.5 2.9-.2 4.3.2 7.2 1.7 13.8 4.8 20.3 8.3 1.3.7 2.3 2.3 3.1 3.6.9 1.5.4 3.1-.7 4.5-5.7 7.3-12.8 12.9-21.4 16.3-16.7 6.6-33.1 5.8-48.9-2.8-6.2-3.4-11.3-8-15.7-13.6-1.3-1.7-1.5-3.5-.3-5.1.9-1.3 2.2-2.6 3.5-3.3 5.8-3.1 11.8-5.8 18.2-7.6 3.1-.9 5.9-1 8.7.9 1.5 1 3.3 1.7 4.8 2.7 2.2 1.4 3.6 3.4 2.7 6.2-1.9 6 1.6 10 5.3 14.2z" fill="#385161"/><path d="m25.2 25.4c.5 3.6.2 7.4 2.5 10.4 1.1 1.4 2.6 2.5 4.1 3.6 1.8 1.2 2.8 3 2.3 4.9-.7 3.3-1.7 6.6-2.9 9.7-.5 1.2-2 2.2-3.2 2.9-6.2 3.9-13.1 6.4-20.1 8.5-1.4.4-3.2 0-4.7-.4-1.7-.5-2.5-1.9-2.7-3.7-1.1-9.2-.1-18.2 3.6-26.7 7.1-16.5 19.3-27.5 36.6-32.6 6.8-2 13.7-2.3 20.7-1.4 2.1.3 3.5 1.4 3.8 3.4.2 1.6.3 3.4-.1 4.9-1.9 6.3-4.3 12.5-7.5 18.2-1.6 2.8-3.5 4.9-6.8 5.5-1.8.4-3.5 1.1-5.3 1.5-2.6.5-4.9.1-6.3-2.5-3.1-5.5-8.4-5.9-14-6.2z" fill="#385161"/><path d="m87.7 25.4c-.5 3.6-.2 7.4-2.5 10.4-1.1 1.4-2.6 2.5-4.1 3.6-1.8 1.2-2.8 3-2.3 4.9.7 3.3 1.7 6.6 2.9 9.7.5 1.2 2 2.2 3.2 2.9 6.3 3.9 13.2 6.4 20.2 8.4 1.4.4 3.2 0 4.7-.4 1.7-.5 2.5-1.9 2.7-3.7 1.1-9.2.1-18.2-3.6-26.7-7.1-16.5-19.3-27.5-36.6-32.6-6.8-2-13.7-2.3-20.7-1.4-2.1.3-3.5 1.4-3.8 3.4-.2 1.6-.3 3.4.1 4.9 1.9 6.3 4.3 12.5 7.5 18.2 1.6 2.8 3.5 4.9 6.8 5.5 1.8.4 3.5 1.1 5.3 1.5 2.6.5 4.9.1 6.3-2.5 3-5.4 8.3-5.8 13.9-6.1z" fill="#385161"/><g fill="#ccc9ca"><path d="m102.3 84c-.8 1-1.8.9-2.9.4-9.5-4-19.1-8.1-28.6-12.1-5.9-2.4-12-3-18.3-2.5-5.6.5-10.5 2.7-15.5 4.9-7.7 3.2-15.3 6.5-23 9.7-.3.1-.5.2-.8.3-.7.2-1.4.1-1.8-.7s-.1-1.4.5-1.9c1.8-1.4 3.6-2.7 5.4-4.1 6.6-5 13.2-9.9 19.8-14.9 8.1-6.3 12.8-14.6 14.4-24.8.3-2.2.5-4.4.8-6.6 0-.4 0-.7 0-1.2-4.9.8-9.2 2.8-13 5.9-5.6 4.7-9 10.7-9.9 17.9-.5 3.6-.3 7.3.8 10.8.3 1 .1 1.5-.7 2.1-2 1.4-3.9 2.9-6 4.5-1.5-3.5-2.4-7.1-2.7-10.7-.9-12.2 3.2-22.6 12.6-30.7 5.4-4.7 11.7-7.4 18.8-8.2.8-.1 1.2-.3 1.3-1.2.5-4.5 1.1-9 1.7-13.5.1-.6.6-1.2 1-1.8h1c .3.6.9 1.1 1 1.8.6 4.5 1.2 9.1 1.7 13.6.1.8.5 1 1.2 1.1 9.8 1.2 17.7 5.6 23.8 13.3 6.9 8.6 9.2 18.4 7.3 29.2-.4 2.4-1.3 4.8-2 7.4-2.6-2-4.9-3.7-7.1-5.4 5.8-19.9-9.2-34.5-21.9-35.8.4 2.9.6 5.7 1.1 8.5 1.6 9.3 5.9 17.1 13.2 23 6.7 5.4 13.8 10.5 20.7 15.7 2.1 1.6 4.1 3.3 6.1 4.9z"/><path d="m85.5 79.9c-5.5 7-12.4 11.4-20.9 13.3-1.8.4-3.2.9-4.3 2.6-1 1.5-2.3 2.9-3.5 4.4-1.5-1.9-2.9-3.7-4.4-5.4-.4-.5-1.1-1-1.8-1.1-8.6-1.6-15.8-5.7-21.5-12.4-.3-.4-.6-.8-1-1.3 2.8-1.2 5.4-2.3 7.8-3.3 2.4 1.8 4.6 3.8 7.1 5.3 10.9 6.4 24.6 4.5 33.5-4.5.7-.7 1.2-.8 2.1-.4 2.2.9 4.4 1.8 6.9 2.8z"/><path d="m58.2 79c-.9 0-1.9 0-2.8 0-.6-.1-1.3-.2-1.9-.3-8.4-1.3-15.4-7.9-17.1-16.3-.2-1-.3-2-.5-3 0-.9 0-1.9 0-2.8.1-.6.2-1.3.3-1.9 1.3-8.4 7.9-15.4 16.3-17.1 1-.2 2-.3 3-.5h2.8c.6.1 1.3.2 1.9.3 8.4 1.3 15.4 7.9 17.1 16.3.2 1 .3 2 .5 3v2.8c-.1.6-.2 1.3-.3 1.9-1.3 8.4-7.9 15.4-16.3 17.1-1 .3-2 .4-3 .5z"/><path d="m61.6 22.1c8.8 1.3 16.1 5 22 11.5 1.2 1.4 2.4 2.3 4.3 2.4 1.8.1 3.6.5 5.5.8-.9 2.2-1.7 4.4-2.5 6.5-.2.6-.3 1.5-.1 2.1 2.9 8.3 3 16.6 0 24.8-.2.5-.4.9-.6 1.5-2.4-1.8-4.7-3.5-6.7-5.1.4-3 1-5.9 1-8.8.1-12.7-8.4-23.6-20.7-26.8-1-.3-1.3-.7-1.4-1.6-.2-2.3-.5-4.7-.8-7.3z"/><path d="m52.1 22.1c-8.8 1.3-16.1 5-22 11.5-1.2 1.4-2.4 2.3-4.3 2.4-1.8.1-3.6.5-5.5.8.9 2.2 1.7 4.4 2.5 6.5.2.6.3 1.5.1 2.1-2.9 8.3-3 16.6 0 24.8.2.5.4.9.6 1.5 2.4-1.8 4.7-3.5 6.7-5.1-.4-3-1-5.9-1-8.8-.1-12.7 8.4-23.6 20.7-26.8 1-.3 1.3-.7 1.4-1.6.1-2.3.4-4.7.8-7.3z"/><path d="m61.4 106.1-3.3-4.1c-.2-.2-.2-.5 0-.7l3.3-4.1c.2-.3.6-.3.8 0 1.1 1.4 2.2 2.7 3.3 4.1.2.2.2.5 0 .7-1.1 1.4-2.2 2.7-3.3 4.1-.2.2-.6.2-.8 0z"/><path d="m51.4 106.1-3.3-4.1c-.2-.2-.2-.5 0-.7l3.3-4.1c.2-.3.6-.3.8 0 1.1 1.4 2.2 2.7 3.3 4.1.2.2.2.5 0 .7-1.1 1.4-2.2 2.7-3.3 4.1-.2.2-.6.2-.8 0z"/><path d="m56.3 112.4-3.9-4.7c-.2-.2-.2-.5 0-.8l3.9-4.7c.2-.3.7-.3.9 0 1.3 1.6 2.6 3.2 3.9 4.7.2.2.2.5 0 .8-1.3 1.6-2.6 3.2-3.9 4.7-.2.3-.6.3-.9 0z"/><path d="m96.2 30.3-2.2 4.8c-.1.2-.4.3-.6.3l-5.2-1.2c-.3-.1-.5-.4-.4-.7.7-1.6 1.5-3.2 2.2-4.8.1-.2.4-.3.6-.3 1.7.4 3.4.8 5.2 1.2.3 0 .5.4.4.7z"/><path d="m100.6 39.3-2.2 4.8c-.1.2-.4.3-.6.3l-5.2-1.2c-.3-.1-.5-.4-.4-.7.7-1.6 1.5-3.2 2.2-4.8.1-.2.4-.3.6-.3 1.7.4 3.4.8 5.2 1.2.4 0 .5.4.4.7z"/><path d="m104.1 32-2.5 5.6c-.1.3-.4.4-.7.3l-6-1.4c-.4-.1-.6-.5-.4-.8.8-1.9 1.7-3.7 2.5-5.6.1-.3.4-.4.7-.3 2 .5 4 .9 6 1.4.4.1.6.5.4.8z"/><path d="m17.4 30.3 2.2 4.8c.1.2.4.3.6.3l5.2-1.2c.3-.1.5-.4.4-.7-.7-1.6-1.5-3.2-2.2-4.8-.1-.2-.4-.3-.6-.3-1.7.4-3.4.8-5.2 1.2-.3 0-.5.4-.4.7z"/><path d="m13 39.3 2.2 4.8c.1.2.4.3.6.3l5.2-1.2c.3-.1.5-.4.4-.7-.7-1.6-1.5-3.2-2.2-4.8-.1-.2-.4-.3-.6-.3-1.7.4-3.4.8-5.2 1.2-.4 0-.6.4-.4.7z"/><path d="m9.5 32 2.5 5.6c.1.3.4.4.7.3l6-1.4c.4-.1.6-.5.4-.8-.8-1.9-1.7-3.7-2.5-5.6-.1-.3-.4-.4-.7-.3-2 .5-4 .9-6 1.4-.4.1-.6.5-.4.8z"/></g><path d="m56.5 49.6h2.8v16.4h-2.8z" fill="#385161"/><path d="m60.5 49.6v13.6c0 .2.3.6.5.8s.7.7 1 .7h8.1l1.7 2 2.6-2.4-3.2-3.3h-7.4v-2.5h7.1v-3.8h-7.1v-5.1z" fill="#385161"/><path d="m41.5 49v17.1h3.4v-1.9h4.3c.3 0 .8.3 1 .4.1.1.4.3.4.5s0 1 0 1h3.2s0-1.9 0-2.5c0-.5-.6-1.4-.9-1.7s-1-.7-1.4-.7c-1.6 0-6.7 0-6.7 0v-12.2z" fill="#385161"/></svg>