<?xml version="1.0" encoding="UTF-8"?><svg id="Capa_1" xmlns="http://www.w3.org/2000/svg" viewBox="0 0 566.93 566.93"><defs><style>.cls-1,.cls-2{fill:#fff;}.cls-2{font-family:AdobeMyungjoStd-Medium-KSCpc-EUC-H, 'Adobe Myungjo Std';font-size:91.07px;font-weight:500;}.cls-3{font-family:MicrosoftJhengHeiUIBold, 'Microsoft JhengHei UI';font-size:40px;}.cls-3,.cls-4{fill:#cd2e3a;}.cls-5{fill:#0047a0;}</style></defs><circle class="cls-4" cx="283.33" cy="284.79" r="279.21"/><path class="cls-1" d="m499.53,443.4c-6.61,11.64-15.74,21.29-24.85,30.9-10.59,11.17-22.4,20.96-34.94,29.87-1.87,1.33-3.68,2.72-6.12,2.77-10.85-.46-20.91-4.11-30.95-7.78-1.8-3.04.78-4.15,2.59-5.19,16.36-9.38,30.78-21.31,44.62-33.97,5.36-4.9,9.32-11.2,15.25-15.57.79-.42,1.63-.73,2.45-1.08l-.13.05c10.69-1.38,21.39-1.39,32.08.01Z"/><path class="cls-1" d="m131.83,507.05c-19.25-11.86-35.49-27.17-50.24-44.13-5.29-6.08-10.42-12.33-14.72-19.19,1.93-2.57,4.63-1.04,6.9-1.07,6.82-.1,13.66-.59,20.46.38.43.02.86.05,1.29.07.82-.64,1.65-.64,2.48-.02.25.25.55.33.9.23.85.29,1.67.64,2.47,1.04,7.58,5.31,12.63,13.16,19.5,19.27,12.2,10.84,24.92,20.82,38.83,29.34,2.1,1.29,6.17,1.81,4.3,6.14-10.43,3.87-20.87,7.67-32.19,7.94Z"/><path class="cls-1" d="m406.24,457.02c1.87-3.34,4.91-5.51,7.74-7.93,17.73-15.23,33.87-31.87,45.93-52.11,2.71-.35,1.76,1.79,1.77,2.91.08,13.1,0,26.21.08,39.31.02,2.97-1.37,5.14-3.15,7.23-11.22,13.27-24.44,24.31-38.5,34.37-5.24,3.75-10.58,7.39-16.24,10.49-2.17,1.19-4.37,2.67-6.92.81-1.59-4.8,1-8.98,2.23-13.27,2.12-7.33,2.73-15.18,7.05-21.81Z"/><path class="cls-1" d="m106.75,396.97c13.65,22.68,32.06,41.01,52.5,57.5,4.06,4.33,4.57,10.13,5.81,15.44,1.72,7.32,5.68,14.2,4.7,22.1-2.51,1.99-4.76.57-6.89-.69-12.02-7.12-23.6-14.89-33.91-24.36-7.34-6.74-15.45-12.7-21.31-20.97-1.47-2.08-2.75-4.06-2.74-6.76.06-13.11,0-26.23.08-39.34,0-1.12-.94-3.25,1.77-2.91Z"/><path class="cls-1" d="m61.8,436.64c-13.24-19.66-23.23-40.93-31.23-63.18.4-.78,1.09-1.46,1.91-1.3,10.26,1.9,20.68,3.32,29.8,9.02,5.94,10.01,10.22,20.91,16.49,30.76,3.91,6.14,7.71,12.34,12.1,18.16,1.43,1.9,3.5,3.74,2.13,7.25-9.7.38-19.62.08-29.53.15-.73.06-1.29-.22-1.68-.85Z"/><path class="cls-1" d="m536.09,373.46c-8,22.25-17.99,43.51-31.22,63.18-5.24,2.45-10.75.09-16.07.87-5.11-.18-10.27.43-16.71-.63,5.27-10.27,12.31-18.44,17.56-27.67,5.25-9.23,9.3-19.07,14.85-28.13,9.13-5.52,19.47-7.06,29.71-8.92.82-.15,1.5.52,1.9,1.3Z"/><path class="cls-1" d="m468.4,383.09c7.63-15.58,13.32-31.87,17.86-48.59,3.1-.09,2.88,2.61,3.35,4.36,3.53,13.08,7.56,26.03,10.45,39.29.4,2.8-.41,5.35-1.57,7.84-6.52,14-14,27.45-23.05,39.99-1.58,2.19-3.15,4.46-7.35,4.99.02-16.06-1.89-31.93.31-47.88Z"/><path class="cls-1" d="m80.39,334.52c4.4,15.24,8.92,30.43,16.21,44.62.47.91,1.02,1.79,1.53,2.68.37.62.53,1.28.49,2,1.13,15.53.83,31.04-.14,46.69-3.67.55-5.25-1.8-6.8-3.92-9.5-13.03-17.27-27.06-23.98-41.7-.98-2.13-1.42-4.35-1.11-6.7,2.94-13.24,6.88-26.23,10.44-39.31.48-1.75.25-4.46,3.36-4.36Z"/><path class="cls-1" d="m470.82,109.96c22.74,3.81,67.55,85.53,75.24,135.16-2.39,4.18-6.41,7.15-10.82,11.61-3.13-27.91-10.26-53.74-21.33-78.48-11.09-24.79-26.17-47.06-43.09-68.3Z"/><path class="cls-1" d="m31.63,256.31c-4.27-3.94-7.75-7.14-11.45-10.56,10.1-53.93,33.72-99.96,73.96-136.97,1.95,4.89-1.96,6.9-4.09,9.5-20.83,25.44-36.54,53.67-46.99,84.83-5.71,17.03-9.61,34.48-11.42,53.2Z"/><path class="cls-1" d="m526.19,265.9c-1.53,1.44-3.02,2.84-4.66,4.39-4.55-2.99-7.19-6.62-7.81-12.11-5.38-47.47-23.84-89.37-54.18-126.14-2.37-2.87-2.38-2.86-3.26-6.27,22.46.84,72.19,99.94,69.92,140.13Z"/><path class="cls-1" d="m45.21,270.35c-1.7-1.62-3.31-3.15-4.66-4.43-3.1-38.24,42.62-130.86,69.29-140.76,2.04,2.7-.43,4.18-1.74,5.74-31.19,37.26-49.94,79.89-55.28,128.27-.56,5.05-3.49,8.19-7.6,11.17Z"/><path class="cls-1" d="m28.05,364.98c-4.9-16.91-9.05-33.97-10.02-51.65.18-.11.41-.35.52-.3,10.83,4.32,21.68,8.62,29.3,18.15,2.46,11.37,5.13,22.68,8.93,33.69.93,2.71,2.12,5.52.2,8.35-4.96,1.73-9.29-1.06-13.72-2.26-5.23-1.42-11.13-1.54-15.22-5.98Z"/><path class="cls-1" d="m548.63,313.33c-.97,17.68-5.1,34.75-10.03,51.66-8.83,5.48-18.55,7.85-28.82,8.33-2.06-2.78-.86-5.61.07-8.32,3.81-11.03,6.45-22.35,8.91-33.73.51-1.62,1.33-3.13,2.73-4.07,7.93-5.33,16.26-9.98,24.81-14.24.77-.38,1.62-.16,2.33.36Z"/><path class="cls-1" d="m523.63,279.11c7.12-8.68,15.55-16.03,24.09-24.82,3.29,17.28,2.07,33.6,2.27,49.84-6.88,7.98-16.57,11.64-25.48,16.46-1.56.85-2.77-.17-3.31-1.83.06-12.12.78-24.21.93-36.32.02-1.25.71-2.35,1.49-3.33Z"/><path class="cls-1" d="m16.66,304.14c.14-16.15-.87-32.34,2.15-49.9,8.43,8.41,16.12,16.09,23.81,23.76,1.31,1.2,2,2.77,2,4.45,0,12.07.73,24.12.9,36.18-.57,1.96-2.03,2.87-3.74,1.87-8.66-5.01-18.46-8.29-25.11-16.37Z"/><path class="cls-1" d="m67.14,249.3c-2.52-29.72,39.29-103.35,62.59-112.4,1.76,2.54-.62,3.8-1.79,5.22-21.52,26.25-37.72,55.23-45.69,88.49-1.95,8.12-9.29,11.7-15.11,18.69Z"/><path class="cls-1" d="m499.36,248.36c-7.81-6.88-14.17-13.07-16.67-23.32-7.48-30.65-23.25-57.23-42.89-81.65-1.44-1.79-3.89-3.2-3.34-6.21,21.14,4.31,66.67,84.19,62.89,111.18Z"/><path class="cls-1" d="m488.81,316.28c1.79-9.24,1.78-18.64,2.5-27.97,3.35-.34,3.79,2.74,4.87,4.59,6.17,10.62,12.43,21.18,18.31,31.98.56,1.14,1.07,2.29,1.35,3.54.12.65.14,1.3.09,1.96-1.81,10.87-4.81,21.45-8.09,31.94-.9,2.88-1.23,6.77-5.7,7-3.29-4.35-3.52-9.76-4.85-14.73-3.38-12.64-7.85-25.06-8.49-38.32Z"/><path class="cls-1" d="m75.35,288.31c.73,9.34.71,18.74,2.5,27.98-1.15,16.76-7.31,32.38-11.11,48.54-.38,1.62-.94,3.21-2.18,4.43-4.24.06-4.69-3.6-5.52-6.25-3.39-10.85-6.66-21.75-8.31-33.05.43-4.97,3.53-8.73,5.82-12.86,4.41-7.97,8.99-15.84,13.57-23.7,1.19-2.04,1.64-5.31,5.22-5.09Z"/><path class="cls-1" d="m491.27,275.16c-1.28-8.93-2.55-17.85-3.83-26.78.56-.41,1.12-.83,1.68-1.24,9.45,9.83,18.89,19.67,28.34,29.5,3.18,9.17,2.68,32.56-.84,39.77-1.39,1.06-2.43.22-3.06-.88-7.62-13.36-16.62-25.95-22.3-40.37Z"/><path class="cls-1" d="m49.2,276.64c9.47-9.81,18.94-19.62,28.41-29.43.54.39,1.08.78,1.61,1.17-1.28,8.93-2.55,17.85-3.83,26.78-2.96,9.9-9.55,17.88-14.28,26.85-2.12,4.03-4.2,8.13-6.87,11.84-.96,1.34-1.41,3.8-4.09,2.65-.9-.92-1.6-2.04-1.69-3.25-.94-12.22-3.45-24.49.74-36.61Z"/><path class="cls-1" d="m336.87,548.87c31.99-6.49,61.57-19.04,89.46-35.8-.23-3.31-3-3.61-5.29-4.33-7.71-2.4-15.56-4.28-23.33-6.48-2.34-.66-4.98-.81-6.89-4.26,1.49-7.29,3.57-15.26,5.73-23.22.96-3.54,2.75-7.01,1.43-10.86-.63-.87-1.3-1.59-2.47-.8-24.72,15.92-51.52,26.31-80.73,30.25-.29.29-.44.61-.48.97-1.04.05-2.09.1-3.13.14-.02-.06-.04-.11-.05-.17-1.28-.17-1.46,0-2.68.07-1.87.14-3.74.24-5.61.41-47.46,4.24-91.47-5.89-131.7-31.69-1.19-.77-1.86-.02-2.48.86-.96,2.3-.32,4.55.31,6.74,2.07,7.22,4.01,14.48,5.7,21.79.55,2.38,1.72,4.79.17,7.3-1.71,1.68-4.06,1.93-6.24,2.55-7.63,2.16-15.35,3.99-22.91,6.36-2.3.72-5.12.99-5.32,4.35,2.17,1.22,4.35,2.42,6.5,3.67,43.38,25.12,89.94,38.4,140.27,37.64,11.41.09,22.74-.68,33.93-2.95.77.06,1.54-.06,2.29-.47,0,0,0,0,0,0,4.64.11,9.06-1.2,13.54-2.11Zm-17.01,1.38c-.04.16-.09.33-.14.49-.13,0-.25-.02-.38-.02.18-.15.35-.31.51-.46Z"/><text class="cls-2" transform="translate(194.17 117.26) rotate(-11.89)"><tspan x="0" y="0">술</tspan></text><text class="cls-2" transform="translate(278.24 98.61) rotate(10.5)"><tspan x="0" y="0">사</tspan></text><text class="cls-2" transform="translate(363 117.76) rotate(25.31)"><tspan x="0" y="0"> </tspan></text><text class="cls-2" transform="translate(388.63 129.74) rotate(32.73)"><tspan x="0" y="0"> </tspan></text><path class="cls-1" d="m314.79,493.38c-.13.31-.17.62-.13.95-1.25,1.32-2.56,1.14-3.92.18-.77-.04-1.54-.08-2.3-.12,2.95-.4,3.43-.47,6.34-1.02Z"/><text class="cls-3" transform="translate(217.14 535.34) rotate(12.44)"><tspan x="0" y="0">S</tspan></text><text class="cls-3" transform="translate(241.98 540.9) rotate(6.03)"><tspan x="0" y="0">U</tspan></text><text class="cls-3" transform="translate(274.06 543.93) rotate(-.18)"><tspan x="0" y="0">L</tspan></text><text class="cls-3" transform="translate(296.74 543.83) rotate(-5.59)"><tspan x="0" y="0">S</tspan></text><text class="cls-3" transform="translate(322.07 541.39) rotate(-11.97)"><tspan x="0" y="0">A</tspan></text><g><path class="cls-5" d="m192.4,241.46c3.31,1.5,4.31,4.75,6.1,7.35,1.73,2.5,3.6,4.91,4.49,7.66,19.9-9.79,34.08-24.9,43.91-44.58-4.57-4.05-11.53-5.43-16.2-10.44,17.62-27.56,35-54.75,52.96-82.83,18.2,28.38,35.1,56.19,52.17,84.43-4.3,4.95-10.79,6.66-15.36,10.31,9.42,19.94,24.7,33.92,44.19,43.83,4.36-4.22,4.96-11.25,10.39-16.2,27.3,17.42,54.59,34.84,82.71,52.79-27.85,18.2-55.75,35.17-84.03,52.16-4.57-4.84-6.8-10.61-10.44-15.37-18.61,9.55-29.81,20.79-43.93,44.2,4.82,4.39,11.79,5.75,16.56,10.73-17.51,27.4-34.79,54.44-52.91,82.8-18.34-28.05-34.88-55.97-52.19-84.11,3.81-5.45,10.99-6.55,15.4-10.61-10.35-19.14-24.41-34.36-44.41-43.71-4.32,4.67-5.3,11.83-10.16,16.78-27.08-18.78-55-35.08-82.75-53.53,27.6-17.87,55.13-34.89,83.49-51.65Zm83.54-35.39c-.6,1.37-.85,2.72-1.63,3.61-8.64,9.85-14.79,21.39-21.46,32.5-4.73,7.89-10.74,13.88-18.4,18.64-8.9,5.52-17.45,11.56-25.7,18.03-3.94,3.09-8.23,5.71-13.14,7.86-5.09-4.56-6.83-11.59-13.01-15.03-9.75,6.89-19.66,13.88-30.1,21.24,11.25,7.92,21.8,15.35,32.22,22.68,5.16-4.27,5.47-11.79,11.4-15.1,14.12,10.47,28.89,19.23,43.46,28.28,2.83,1.76,4.81,4.23,6.67,6.97,5.78,8.5,11.27,17.18,17.4,25.47,4.63,6.26,9.93,12.29,12.75,20.06-4.22,5.1-11.02,7.06-14.86,13.1,6.87,9.8,13.86,19.76,21.24,30.29,7.92-11.31,15.34-21.9,22.65-32.34-4.41-5.16-11.7-5.58-14.7-11.61.57-1.27.84-2.61,1.62-3.51,8.66-9.84,14.81-21.38,21.46-32.5,4.83-8.08,11.13-14,18.9-18.89,8.56-5.38,16.85-11.15,24.79-17.44,4.05-3.2,8.44-6.03,13.5-8.01,5.13,4.55,6.89,11.57,13.01,14.96,9.8-6.93,19.71-13.94,30.08-21.28-11.27-7.93-21.83-15.35-32.23-22.66-5.04,4.37-5.55,11.48-11.23,15.14-14.57-10.67-29.94-19.78-45.05-29.29-2.27-1.43-3.75-3.81-5.3-6.09-5.89-8.64-11.25-17.62-17.83-25.82-4.67-5.82-9.34-11.83-12.37-19.15,3.85-5.66,11.2-7.32,14.87-13.45-6.74-9.91-13.36-20.08-21.37-30.06-4.12,5.91-7.72,11.09-11.34,16.26-3.7,5.29-7.42,10.56-11.07,15.73,4.33,4.97,11.15,5.65,14.76,11.41Z"/><path class="cls-5" d="m399.37,246.47c-14.11-8.7-28.18-17.46-42.35-26.07-3.03-1.84-4.27-4.86-5.81-7.62-6.76-12.08-14.68-23.52-20.39-36.19.56.17,1.12.34,1.68.51,31.78,13.76,54.5,36.45,67.68,68.57-.27.26-.55.53-.82.79Z"/><path class="cls-5" d="m234.1,409.87c-31.78-13.76-54.5-36.45-67.68-68.57.27-.26.55-.53.82-.79,14.11,8.7,28.18,17.46,42.35,26.07,3.03,1.84,4.27,4.86,5.81,7.62,6.76,12.08,14.68,23.52,20.39,36.19-.56-.17-1.12-.34-1.68-.51Z"/><path class="cls-5" d="m166.82,246.3c.28-5.23,3.29-9.38,5.69-13.69,14.37-25.72,34.92-44.58,62.37-55.69.32.38.64.77.96,1.15-8.68,14.11-17.01,28.47-26.21,42.23-4.07,6.09-11.98,7.76-18,11.69-7.54,4.93-15.52,9.18-23.31,13.72-.5.2-1,.39-1.5.59Z"/><path class="cls-5" d="m399.78,340.68c-.28,5.23-3.29,9.38-5.69,13.69-14.37,25.72-34.92,44.58-62.37,55.69-.32-.38-.64-.76-.96-1.14,8.68-14.12,17.01-28.47,26.21-42.24,4.07-6.09,11.99-7.76,18-11.69,7.54-4.93,15.52-9.18,23.31-13.72.5-.2,1-.39,1.5-.59Z"/><path class="cls-5" d="m236.54,175.99c.24-.1.61-.36.7-.29.48.4.33.73-.22.93,0,0-.46-.15-.46-.15,0,0,0-.49,0-.49Z"/><path class="cls-5" d="m234.88,176.92c.55-.31,1.11-.62,1.66-.94,0,0,0,.49,0,.49,0,0,.46.15.46.15-.39.48-.78.96-1.17,1.44-.32-.38-.64-.76-.96-1.15Z"/><path class="cls-5" d="m332.51,177.11c-.56-.17-1.12-.34-1.68-.51.73-.38,1.3-.25,1.68.51Z"/><path class="cls-5" d="m166.82,246.3c.5-.2,1-.39,1.5-.59-.3.71-.83.82-1.5.59Z"/><path class="cls-5" d="m400.19,245.68c.17.43.34.85.5,1.26-.82.43-1.08,0-1.32-.47.27-.26.55-.53.82-.79Z"/><path class="cls-5" d="m166.42,341.3c-.17-.42-.34-.85-.5-1.26.82-.43,1.08,0,1.32.47-.27.26-.55.53-.82.79Z"/><path class="cls-5" d="m399.78,340.68c-.5.2-1,.39-1.5.59.3-.71.83-.82,1.5-.59Z"/><path class="cls-5" d="m234.1,409.87c.56.17,1.12.34,1.68.51-.73.38-1.3.25-1.68-.51Z"/><path class="cls-5" d="m329.51,410.41c.42-.5.84-1,1.26-1.51.32.38.64.76.96,1.14-.58.33-1.16.66-1.74.99v-.49s-.47-.13-.47-.13Z"/><path class="cls-5" d="m329.98,411.04c-.26.04-.52.08-.79.12.1-.25.21-.49.31-.74,0,0,.47.13.47.13v.49Z"/><path class="cls-5" d="m283.12,253.94c21.74-.09,39.85,17.84,39.89,39.49.04,21.63-18.05,39.63-39.78,39.6-21.52-.04-39.42-17.76-39.61-39.22-.2-21.62,17.8-39.77,39.51-39.87Z"/></g></svg>