<?xml version="1.0" encoding="UTF-8"?><svg id="Capa_1" xmlns="http://www.w3.org/2000/svg" viewBox="0 0 566.93 566.93"><defs><style>.cls-1{font-size:51.9px;}.cls-1,.cls-2{font-family:BOXIGEN, BOXIGEN;}.cls-1,.cls-2,.cls-3{fill:#ffe149;}.cls-2{font-size:39px;}.cls-4{fill:#afca0b;}.cls-5{fill:#1d1d1b;}</style></defs><circle class="cls-4" cx="283.46" cy="283.46" r="279.21"/><path class="cls-5" d="M283.46,76.45c55.3,0,107.28,21.53,146.38,60.63,39.1,39.1,60.63,91.09,60.63,146.38s-21.53,107.28-60.63,146.38c-39.1,39.1-91.09,60.63-146.38,60.63s-107.28-21.53-146.38-60.63c-39.1-39.1-60.63-91.09-60.63-146.38s21.53-107.28,60.63-146.38c39.1-39.1,91.09-60.63,146.38-60.63m0-60C136,16.45,16.45,136,16.45,283.46s119.55,267.02,267.02,267.02,267.02-119.55,267.02-267.02S430.93,16.45,283.46,16.45h0Z"/><g><g><path class="cls-5" d="M182.3,353.45c-2.27,0-4.12-1.85-4.12-4.12v-37.77c0-2.27,1.85-4.12,4.12-4.12h30.88l10.41-11.47v-14.45l-11.11-11.08h-30.92c-2.27,0-4.12-1.85-4.12-4.12v-37.77c0-2.27,1.85-4.12,4.12-4.12h37.77c2.27,0,4.12,1.85,4.12,4.12v30.89l11.11,11.11h21.27c2.27,0,4.12,1.85,4.12,4.12v28.13c0,2.27-1.85,4.12-4.12,4.12h-21.24l-10.41,11.47v30.95c0,2.27-1.85,4.12-4.12,4.12h-37.77Z"/><path class="cls-5" d="M219.34,225.66c1.6,0,2.89,1.29,2.89,2.89v31.43l.02-.02,11.81,11.81h21.78c1.6,0,2.89,1.29,2.89,2.89v28.13c0,1.6-1.29,2.89-2.89,2.89h-21.78l-11.09,12.22v31.43c0,1.6-1.29,2.89-2.89,2.89h-37.77c-1.6,0-2.89-1.29-2.89-2.89v-37.77c0-1.6,1.29-2.89,2.89-2.89h31.43l11.09-12.22v-15.43h0s-11.83-11.8-11.83-11.8h-31.43c-1.6,0-2.89-1.29-2.89-2.89v-37.77c0-1.6,1.29-2.89,2.89-2.89h37.77m0-2.45h-37.77c-2.95,0-5.34,2.4-5.34,5.34v37.77c0,2.95,2.4,5.34,5.34,5.34h30.41l10.39,10.36v13.47s-9.73,10.72-9.73,10.72h-30.34c-2.95,0-5.34,2.4-5.34,5.34v37.77c0,2.95,2.4,5.34,5.34,5.34h37.77c2.95,0,5.34-2.4,5.34-5.34v-30.48l9.73-10.72h20.69c2.95,0,5.34-2.4,5.34-5.34v-28.13c0-2.95-2.4-5.34-5.34-5.34h-20.76l-10.39-10.39v-30.38c0-2.95-2.4-5.34-5.34-5.34h0Z"/></g><g><rect class="cls-5" x="140.35" y="270.55" width="36.36" height="36.36" rx="4.12" ry="4.12"/><path class="cls-5" d="M172.59,271.77c1.6,0,2.89,1.29,2.89,2.89v28.13c0,1.6-1.29,2.89-2.89,2.89h-28.13c-1.6,0-2.89-1.29-2.89-2.89v-28.13c0-1.6,1.29-2.89,2.89-2.89h28.13m0-2.45h-28.13c-2.95,0-5.34,2.4-5.34,5.34v28.13c0,2.95,2.4,5.34,5.34,5.34h28.13c2.95,0,5.34-2.4,5.34-5.34v-28.13c0-2.95-2.4-5.34-5.34-5.34h0Z"/></g><g><path class="cls-5" d="M347.59,353.45c-2.27,0-4.12-1.85-4.12-4.12v-30.89l-11.11-11.11h-21.27c-2.27,0-4.12-1.85-4.12-4.12v-28.13c0-2.27,1.85-4.12,4.12-4.12h21.24l10.41-11.47v-30.95c0-2.27,1.85-4.12,4.12-4.12h37.77c2.27,0,4.12,1.85,4.12,4.12v37.77c0,2.27-1.85,4.12-4.12,4.12h-30.88l-10.41,11.47v14.45l11.11,11.08h30.92c2.27,0,4.12,1.85,4.12,4.12v37.77c0,2.27-1.85,4.12-4.12,4.12h-37.77Z"/><path class="cls-5" d="M384.62,225.66c1.6,0,2.89,1.29,2.89,2.89v37.77c0,1.6-1.29,2.89-2.89,2.89h-31.43l-11.09,12.22v15.43h0s0,0,0,0l11.83,11.8h0s31.43,0,31.43,0c1.6,0,2.89,1.29,2.89,2.89v37.77c0,1.6-1.29,2.89-2.89,2.89h-37.77c-1.6,0-2.89-1.29-2.89-2.89v-31.43l-.02,.02-11.81-11.81h-21.78c-1.6,0-2.89-1.29-2.89-2.89v-28.13c0-1.6,1.29-2.89,2.89-2.89h21.78l11.09-12.22v-31.43c0-1.6,1.29-2.89,2.89-2.89h37.77m0-2.45h-37.77c-2.95,0-5.34,2.4-5.34,5.34v30.48l-9.73,10.72h-20.69c-2.95,0-5.34,2.4-5.34,5.34v28.13c0,2.95,2.4,5.34,5.34,5.34h20.76l10.39,10.39v30.38c0,2.95,2.4,5.34,5.34,5.34h37.77c2.95,0,5.34-2.4,5.34-5.34v-37.77c0-2.95-2.4-5.34-5.34-5.34h-30.41l-10.39-10.36v-13.47l9.73-10.72h30.34c2.95,0,5.34-2.4,5.34-5.34v-37.77c0-2.95-2.4-5.34-5.34-5.34h0Z"/></g><g><path class="cls-5" d="M394.34,270.98h28.12c2.27,0,4.12,1.84,4.12,4.12v28.12c0,2.27-1.84,4.12-4.12,4.12h-28.13c-2.27,0-4.12-1.84-4.12-4.12v-28.13c0-2.27,1.84-4.12,4.12-4.12Z"/><path class="cls-5" d="M422.47,272.2c1.6,0,2.89,1.29,2.89,2.89v28.13c0,1.6-1.29,2.89-2.89,2.89h-28.13c-1.6,0-2.89-1.29-2.89-2.89v-28.13c0-1.6,1.29-2.89,2.89-2.89h28.13m0-2.45h-28.13c-2.95,0-5.34,2.4-5.34,5.34v28.13c0,2.95,2.4,5.34,5.34,5.34h28.13c2.95,0,5.34-2.4,5.34-5.34v-28.13c0-2.95-2.4-5.34-5.34-5.34h0Z"/></g><g><path class="cls-5" d="M304.76,391.68c-2.27,0-4.12-1.85-4.12-4.12v-21.89l-3.29-2.98h-28.3l-2.63,2.63v22.24c0,2.27-1.85,4.12-4.12,4.12h-28.12c-2.27,0-4.12-1.85-4.12-4.12v-28.12c0-2.27,1.85-4.12,4.12-4.12h20.27l6.2-6.2v-28.33c0-2.27,1.85-4.12,4.12-4.12h37.77c2.27,0,4.12,1.85,4.12,4.12v29.4l5.64,5.12h20.58c2.27,0,4.12,1.85,4.12,4.12v28.12c0,2.27-1.85,4.12-4.12,4.12h-28.12Z"/><path class="cls-5" d="M302.54,317.91c1.6,0,2.89,1.29,2.89,2.89v29.94s6.32,5.74,6.32,5.74l-.06,.06h21.19c1.6,0,2.89,1.29,2.89,2.89v28.13c0,1.6-1.29,2.89-2.89,2.89h-28.13c-1.6,0-2.89-1.29-2.89-2.89v-22.43s-4.04-3.67-4.04-3.67h-29.28s-3.34,3.35-3.34,3.35v22.75c0,1.6-1.29,2.89-2.89,2.89h-28.13c-1.6,0-2.89-1.29-2.89-2.89v-28.13c0-1.6,1.29-2.89,2.89-2.89h20.78s6.92-6.92,6.92-6.92v-28.83c0-1.6,1.29-2.89,2.89-2.89h37.77m0-2.45h-37.77c-2.95,0-5.34,2.4-5.34,5.34v27.82l-5.48,5.48h-19.76c-2.95,0-5.34,2.4-5.34,5.34v28.13c0,2.95,2.4,5.34,5.34,5.34h28.13c2.95,0,5.34-2.4,5.34-5.34v-21.74l1.91-1.91h27.32s2.54,2.3,2.54,2.3v21.35c0,2.95,2.4,5.34,5.34,5.34h28.13c2.95,0,5.34-2.4,5.34-5.34v-28.13c0-2.95-2.4-5.34-5.34-5.34h-20.11l-4.89-4.44v-28.86c0-2.95-2.4-5.34-5.34-5.34h0Z"/></g><g><rect class="cls-5" x="265.26" y="401.09" width="36.36" height="36.36" rx="4.12" ry="4.12"/><path class="cls-5" d="M269.38,402.31h28.13c1.6,0,2.89,1.29,2.89,2.89v28.13c0,1.6-1.29,2.89-2.89,2.89h-28.13c-1.6,0-2.89-1.29-2.89-2.89v-28.13c0-1.6,1.29-2.89,2.89-2.89m0-2.45c-2.95,0-5.34,2.4-5.34,5.34v28.13c0,2.95,2.4,5.34,5.34,5.34h28.13c2.95,0,5.34-2.4,5.34-5.34v-28.13c0-2.95-2.4-5.34-5.34-5.34h-28.13Z"/></g><g><path class="cls-5" d="M264.52,261.19c-2.27,0-4.12-1.85-4.12-4.12v-29.4l-5.64-5.12h-20.58c-2.27,0-4.12-1.85-4.12-4.12v-28.13c0-2.27,1.85-4.12,4.12-4.12h28.12c2.27,0,4.12,1.85,4.12,4.12v21.89l3.29,2.98h28.3l2.63-2.63v-22.24c0-2.27,1.85-4.12,4.12-4.12h28.12c2.27,0,4.12,1.85,4.12,4.12v28.13c0,2.27-1.85,4.12-4.12,4.12h-20.27l-6.2,6.2v28.32c0,2.27-1.85,4.12-4.12,4.12h-37.77Z"/><path class="cls-5" d="M304.76,187.41h28.13c1.6,0,2.89,1.29,2.89,2.89v28.13c0,1.6-1.29,2.89-2.89,2.89h-20.78l-6.92,6.92v28.83c0,1.6-1.3,2.89-2.89,2.89h-37.77c-1.6,0-2.89-1.29-2.89-2.89v-29.94l-6.32-5.74,.06-.06h-21.19c-1.6,0-2.89-1.29-2.89-2.89v-28.13c0-1.6,1.29-2.89,2.89-2.89h28.13c1.6,0,2.89,1.29,2.89,2.89v22.43l4.04,3.67h29.28s3.34-3.35,3.34-3.35v-22.75c0-1.6,1.29-2.89,2.89-2.89m0-2.45c-2.95,0-5.34,2.4-5.34,5.34v21.74s-1.91,1.91-1.91,1.91h-27.32s-2.54-2.3-2.54-2.3v-21.35c0-2.95-2.4-5.34-5.34-5.34h-28.13c-2.95,0-5.34,2.4-5.34,5.34v28.13c0,2.95,2.4,5.34,5.34,5.34h20.11s4.89,4.44,4.89,4.44v28.86c0,2.95,2.4,5.34,5.34,5.34h37.77c2.95,0,5.34-2.4,5.34-5.34v-27.82s5.48-5.48,5.48-5.48h19.76c2.95,0,5.34-2.4,5.34-5.34v-28.13c0-2.95-2.4-5.34-5.34-5.34h-28.13Z"/></g><g><rect class="cls-5" x="265.44" y="140.42" width="36.36" height="36.36" rx="4.12" ry="4.12"/><path class="cls-5" d="M269.56,141.65h28.13c1.6,0,2.89,1.29,2.89,2.89v28.13c0,1.6-1.3,2.89-2.89,2.89h-28.13c-1.6,0-2.89-1.29-2.89-2.89v-28.13c0-1.6,1.29-2.89,2.89-2.89m0-2.45c-2.95,0-5.34,2.4-5.34,5.34v28.13c0,2.95,2.4,5.34,5.34,5.34h28.13c2.95,0,5.34-2.4,5.34-5.34v-28.13c0-2.95-2.4-5.34-5.34-5.34h-28.13Z"/></g></g><g><path class="cls-3" d="M253.49,307.11c1.73,0,3.14-1.41,3.14-3.14v-30.52c0-1.73-1.41-3.14-3.14-3.14h-23.63l-12.82-12.82-.02,.02v-34.1c0-1.73-1.41-3.14-3.14-3.14h-40.99c-1.73,0-3.14,1.41-3.14,3.14v40.99c0,1.73,1.41,3.14,3.14,3.14h34.1l12.84,12.8h0s0,16.75,0,16.75l-12.04,13.27h-34.1c-1.73,0-3.14,1.41-3.14,3.14v40.99c0,1.73,1.41,3.14,3.14,3.14h40.99c1.73,0,3.14-1.41,3.14-3.14v-34.1l12.04-13.27h23.63Z"/><rect class="cls-3" x="129.48" y="270.31" width="36.8" height="36.8" rx="3.14" ry="3.14"/><path class="cls-3" d="M394.04,310.35h-34.1s-12.84-12.8-12.84-12.8h0s0-16.75,0-16.75l12.04-13.27h34.1c1.73,0,3.14-1.41,3.14-3.14v-40.99c0-1.73-1.41-3.14-3.14-3.14h-40.99c-1.73,0-3.14,1.41-3.14,3.14v34.1l-12.04,13.27h-23.63c-1.73,0-3.14,1.41-3.14,3.14v30.52c0,1.73,1.41,3.14,3.14,3.14h23.63l12.82,12.82,.02-.02v34.1c0,1.73,1.41,3.14,3.14,3.14h40.99c1.73,0,3.14-1.41,3.14-3.14v-40.99c0-1.73-1.41-3.14-3.14-3.14Z"/><rect class="cls-3" x="400.65" y="270.78" width="36.8" height="36.8" rx="3.14" ry="3.14"/><path class="cls-3" d="M337.09,362.31h-23l.07-.07-6.86-6.23v-32.5c0-1.73-1.41-3.14-3.14-3.14h-40.99c-1.73,0-3.14,1.41-3.14,3.14v31.29l-7.5,7.5h-22.55c-1.73,0-3.14,1.41-3.14,3.14v30.52c0,1.73,1.41,3.14,3.14,3.14h30.52c1.73,0,3.14-1.41,3.14-3.14v-24.69l3.63-3.64h31.78s4.38,3.98,4.38,3.98v24.35c0,1.73,1.41,3.14,3.14,3.14h30.52c1.73,0,3.14-1.41,3.14-3.14v-30.52c0-1.73-1.41-3.14-3.14-3.14Z"/><rect class="cls-3" x="265.04" y="411.97" width="36.8" height="36.8" rx="3.14" ry="3.14"/><path class="cls-3" d="M229.98,215.56h23s-.07,.07-.07,.07l6.86,6.23v32.5c0,1.73,1.41,3.14,3.14,3.14h40.99c1.73,0,3.14-1.41,3.14-3.14v-31.29s7.5-7.5,7.5-7.5h22.55c1.73,0,3.14-1.41,3.14-3.14v-30.52c0-1.73-1.41-3.14-3.14-3.14h-30.52c-1.73,0-3.14,1.41-3.14,3.14v24.69s-3.63,3.64-3.63,3.64h-31.78s-4.38-3.98-4.38-3.98v-24.35c0-1.73-1.41-3.14-3.14-3.14h-30.52c-1.73,0-3.14,1.41-3.14,3.14v30.52c0,1.73,1.41,3.14,3.14,3.14Z"/><rect class="cls-3" x="265.24" y="129.1" width="36.8" height="36.8" rx="3.14" ry="3.14"/></g><text class="cls-2" transform="translate(80.62 186.41) rotate(-61.83)"><tspan x="0" y="0">C</tspan></text><text class="cls-2" transform="translate(89.62 169.35) rotate(-56.4)"><tspan x="0" y="0">O</tspan></text><text class="cls-2" transform="translate(102.54 149.92) rotate(-50.73)"><tspan x="0" y="0">V</tspan></text><text class="cls-2" transform="translate(116.39 133) rotate(-45.45)"><tspan x="0" y="0">E</tspan></text><text class="cls-2" transform="translate(130.28 118.7) rotate(-39.85)"><tspan x="0" y="0">R</tspan></text><text class="cls-2" transform="translate(148.67 103.47) rotate(-34.33)"><tspan x="0" y="0">T</tspan></text><text class="cls-2" transform="translate(164.68 92.7) rotate(-30.52)"><tspan x="0" y="0"> </tspan></text><text class="cls-2" transform="translate(173.49 87.26) rotate(-26.46)"><tspan x="0" y="0">H</tspan></text><text class="cls-2" transform="translate(192.39 77.86) rotate(-21.22)"><tspan x="0" y="0">E</tspan></text><text class="cls-2" transform="translate(210.97 70.54) rotate(-15.75)"><tspan x="0" y="0">A</tspan></text><text class="cls-2" transform="translate(233.07 64.3) rotate(-10.07)"><tspan x="0" y="0">V</tspan></text><text class="cls-2" transform="translate(254.52 60.42) rotate(-4.37)"><tspan x="0" y="0">Y</tspan></text><text class="cls-2" transform="translate(277.83 58.83) rotate(.22)"><tspan x="0" y="0">-</tspan></text><text class="cls-2" transform="translate(290.66 58.74) rotate(4.35)"><tspan x="0" y="0">S</tspan></text><text class="cls-2" transform="translate(310.14 60.09) rotate(9.84)"><tspan x="0" y="0">U</tspan></text><text class="cls-2" transform="translate(333.3 64.08) rotate(15.85)"><tspan x="0" y="0">P</tspan></text><text class="cls-2" transform="translate(355.85 70.44) rotate(21.86)"><tspan x="0" y="0">P</tspan></text><text class="cls-2" transform="translate(377.6 79.14) rotate(27.86)"><tspan x="0" y="0">O</tspan></text><text class="cls-2" transform="translate(398.26 90) rotate(33.86)"><tspan x="0" y="0">R</tspan></text><text class="cls-2" transform="translate(418.03 103.37) rotate(39.26)"><tspan x="0" y="0">T</tspan></text><text class="cls-2" transform="translate(432.89 115.69) rotate(43)"><tspan x="0" y="0"> </tspan></text><text class="cls-2" transform="translate(440.61 122.52) rotate(47.33)"><tspan x="0" y="0">U</tspan></text><text class="cls-2" transform="translate(456.59 139.78) rotate(53.4)"><tspan x="0" y="0">N</tspan></text><text class="cls-2" transform="translate(470.71 159.25) rotate(57.52)"><tspan x="0" y="0">I</tspan></text><text class="cls-2" transform="translate(475.21 165.97) rotate(61.04)"><tspan x="0" y="0">T</tspan></text><text class="cls-1" transform="translate(138.24 490.15) rotate(31.76) scale(.99 1)"><tspan x="0" y="0">S</tspan></text><text class="cls-1" transform="translate(163.27 505.62) rotate(24.29) scale(.99 1)"><tspan x="0" y="0">U</tspan></text><text class="cls-1" transform="translate(195.31 519.85) rotate(16.15) scale(.99 1)"><tspan x="0" y="0">N</tspan></text><text class="cls-1" transform="translate(229.39 529.42) rotate(8.28) scale(.99 1)"><tspan x="0" y="0">D</tspan></text><text class="cls-1" transform="translate(262.51 534.07) rotate(.53) scale(.99 1)"><tspan x="0" y="0">U</tspan></text><text class="cls-1" transform="translate(297.47 534.18) rotate(-7.39) scale(.99 1)"><tspan x="0" y="0">Q</tspan></text><text class="cls-1" transform="translate(332.1 529.43) rotate(-15.12) scale(.99 1)"><tspan x="0" y="0">B</tspan></text><text class="cls-1" transform="translate(364.25 520.58) rotate(-22.86) scale(.99 1)"><tspan x="0" y="0">U</tspan></text><text class="cls-1" transform="translate(396.02 506.8) rotate(-30.04) scale(.99 1)"><tspan x="0" y="0">T</tspan></text></svg>