<svg enable-background="new 0 0 113.4 113.4" viewBox="0 0 113.4 113.4" xmlns="http://www.w3.org/2000/svg"><path d="m0 56.5c.3-31.9 25.9-57 57.8-56.5 30.9.5 56.4 26.2 55.6 58.3-.8 30.5-25.9 55.4-57.3 55.1-31.3-.5-56-25.9-56.1-56.9zm64.5-20.5c-4.2-4.6-9.2-8.3-14.5-11.8 1.7-.5 3.3-.4 4.8-.6 0-2.5 0-4.9 0-7.5-15.3 1.2-27 8.1-34.2 21.6-7.9 15-6.8 29.9 3 43.7 7.5 10.5 18.1 15.9 31.1 16.7 0-2.6 0-5 0-7.5-.6-.1-1.1-.2-1.8-.3 6.5-3.7 11.2-9 15.6-14.6-.5 4.7-1.5 9.2-3 13.6-2.2.7-4.4 1-6.5 1.3v7.5c20.9-1.3 39.3-19.3 38.2-42.9-1-23-20.1-38.3-38.2-38.9v7.4c5.9.5 11.2 2.4 16.1 5.7-2 .9-3.8 1.7-5.6 2.8-1.6 1.1-3.3 2.3-5 3.8z" fill="#100f0f"/><path d="m64.9 35.5c1.7-1.5 3.4-2.7 5.1-3.8s3.6-1.9 5.6-2.8c-4.9-3.3-10.3-5.2-16.1-5.7 0-2.5 0-4.9 0-7.4 18.1.5 37.1 15.9 38.2 38.9 1.1 23.6-17.3 41.6-38.2 42.8 0-2.5 0-4.9 0-7.5 2.2-.3 4.4-.5 6.5-1.3 1.5-4.5 2.5-9 3-13.6-4.4 5.7-9.1 11-15.6 14.6.7.1 1.2.2 1.8.3v7.5c-13-.8-23.6-6.2-31.1-16.7-9.8-13.8-10.9-28.7-3-43.7 7-13.4 18.8-20.3 34.1-21.5v7.5c-1.5.2-3.1.1-4.8.6 5.3 3.5 10.2 7.2 14.5 11.8zm-23.4-8.3c-1.1.3-2.1.7-2.9 1.5-.1 0-.3 0-.4.1-10.9 7.5-16.3 20.2-14.3 32.8 1.9 11.8 8.4 20.2 19.1 25.5 4.4-1.3 8.5-3.1 12-6.1 1.7-1.1 3.1-2.4 4.4-3.9 1.5-1.3 2.8-2.9 3.9-4.5 2.3-2.8 4.1-6 5.9-9.2.2-.3.2-.6.1-1-.2-1.2-.3-2.4-.6-3.6-1.8-9.6-6.4-17.6-13.7-24-2.4-2.1-4.9-4-7.8-5.4-1.3-1.1-3-1.7-4.5-2.4-.5-.3-.8 0-1.2.2zm32.6 58.1c9.2-6.1 14.6-14.3 15.8-24.9 1.1-10.2-2-19.1-8.8-26.8-4.6 1.5-8.5 3.7-12 6.7 0 .5.3.8.5 1.1 2.2 3.2 3.9 6.7 5.1 10.4 2.9 8.9 2.5 17.8.8 26.8-.4 2.1-.9 4.2-1.4 6.7z" fill="#fdfdfd"/><path d="m55 81c-3.5 3-7.6 4.8-12 6.1-10.7-5.2-17.2-13.7-19.1-25.5-2-12.6 3.4-25.3 14.3-32.8.1-.1.2-.1.4-.1-1.3 4.9-2.5 9.8-2.9 14.8-.5 6.6 0 13.2 2.6 19.4 3.4 8.1 9.3 13.8 16.7 18.1z" fill="#e30f15"/><path d="m74.1 85.3c.5-2.5 1-4.6 1.4-6.8 1.7-9 2-18-.8-26.8-1.2-3.7-2.9-7.2-5.1-10.4-.2-.3-.5-.6-.5-1.1 3.5-3 7.4-5.2 12-6.7 6.9 7.6 10 16.6 8.8 26.8-1.2 10.7-6.6 18.9-15.8 25z" fill="#00a0e4"/><path d="m47.1 29.4c2.9 1.4 5.4 3.3 7.8 5.4 7.3 6.4 11.9 14.4 13.7 23.9.2 1.2.4 2.4.6 3.6.1.3 0 .7-.1 1-1.8 3.2-3.5 6.4-5.9 9.2-.7-.5-1.4-1-2.1-1.5-9.8-7.2-14.9-16.8-15.2-29 0-4.2.5-8.4 1.2-12.6z" fill="#100f0f"/><path d="m47.1 29.4c-.7 4.2-1.2 8.4-1.1 12.7.3 12.2 5.4 21.8 15.2 29l2.1 1.5c-1.1 1.7-2.4 3.2-3.9 4.5-1.2-.9-2.4-1.8-3.6-2.7-11.4-9-16.3-20.8-15.6-35.2.2-4 .8-8 1.3-12 .3-.2.7-.5 1.1-.3 1.6.9 3.2 1.4 4.5 2.5z" fill="#e11316"/><path d="m41.5 27.2c-.5 4-1.1 8-1.3 12-.8 14.4 4.1 26.2 15.6 35.2l3.6 2.7c-1.3 1.5-2.7 2.8-4.4 3.9-7.4-4.3-13.3-10.1-16.7-18.1-2.6-6.2-3.1-12.7-2.6-19.4.4-5.1 1.6-9.9 2.9-14.8.8-.8 1.8-1.2 2.9-1.5z" fill="#100f0f"/></svg>