<?xml version="1.0" encoding="UTF-8"?>
<svg id="Capa_1" xmlns="http://www.w3.org/2000/svg" version="1.1" viewBox="0 0 566.9 566.9">
  <!-- Generator: Adobe Illustrator 29.0.1, SVG Export Plug-In . SVG Version: 2.1.0 Build 192)  -->
  <defs>
    <style>
      .st0 {
        fill: #1c1411;
      }

      .st1, .st2 {
        fill: #fff;
      }

      .st3 {
        isolation: isolate;
      }

      .st4, .st5 {
        fill: #ef781b;
      }

      .st6 {
        fill: #1d1d1b;
      }

      .st2, .st5 {
        stroke: #fff;
        stroke-miterlimit: 10;
        stroke-width: 2px;
      }
    </style>
  </defs>
  <g>
    <path class="st6" d="M283.5,13.6c149,0,269.8,120.8,269.8,269.8s-120.8,269.8-269.8,269.8S13.6,432.5,13.6,283.5,134.4,13.6,283.5,13.6Z"/>
    <path class="st0" d="M535.1,162.4c2,4.1,3.8,8.2,5.6,12.4-1.8-4.2-3.6-8.3-5.6-12.4Z"/>
    <path class="st0" d="M55.8,121.8c3.9-5.5,8-10.8,12.3-16-4.3,5.2-8.3,10.5-12.3,16Z"/>
    <path class="st0" d="M480.9,86c6.3,6.3,12.3,12.9,18,19.8-5.7-6.9-11.7-13.5-18-19.8Z"/>
    <path class="st0" d="M548,193.9c1.5,4.3,2.8,8.7,4.1,13.1-1.2-4.4-2.6-8.8-4.1-13.1Z"/>
    <path class="st0" d="M283.5,4.2h0c36.1,0,70.7,6.9,102.4,19.4-31.7-12.5-66.2-19.4-102.4-19.4Z"/>
    <path class="st0" d="M498.9,105.9c4.3,5.2,8.4,10.5,12.2,16-3.9-5.5-8-10.8-12.2-16Z"/>
    <path class="st0" d="M518.7,133c6,9.4,11.5,19.3,16.5,29.4-4.9-10.2-10.4-20-16.5-29.4Z"/>
    <path class="st0" d="M41.2,144.5c1.5-2.7,3.2-5.4,4.8-8-1.6,2.6-3.2,5.3-4.8,8Z"/>
    <path class="st0" d="M95.7,76.8c2.6-2.3,5.2-4.6,7.8-6.8-2.6,2.2-5.2,4.5-7.8,6.8Z"/>
    <path class="st0" d="M133,48.2c5.7-3.6,11.5-7.1,17.4-10.3-5.9,3.2-11.7,6.7-17.4,10.3Z"/>
    <path class="st0" d="M165.3,30.4c2.2-1,4.5-2.1,6.8-3.1-2.3,1-4.5,2-6.8,3.1Z"/>
    <path class="st0" d="M68,105.9c4.3-5.2,8.7-10.2,13.3-15-4.6,4.8-9.1,9.9-13.3,15Z"/>
    <path class="st0" d="M31.8,162.4c2.9-6.1,6.1-12.1,9.5-17.9-3.4,5.9-6.5,11.8-9.5,17.9Z"/>
    <path class="st0" d="M86,86c3.2-3.2,6.4-6.2,9.7-9.2-3.3,3-6.5,6.1-9.7,9.2Z"/>
    <path class="st0" d="M490.1,471.2c-3,3.3-6.1,6.5-9.2,9.7,3.2-3.2,6.2-6.4,9.2-9.7Z"/>
    <path class="st0" d="M439.6,515c-5.6,3.8-11.3,7.3-17.1,10.7,5.9-3.4,11.6-6.9,17.1-10.7Z"/>
    <path class="st0" d="M461.1,498.9c-5.2,4.3-10.5,8.4-16,12.2,5.5-3.9,10.8-8,16-12.2Z"/>
    <path class="st0" d="M476.1,485.6c-4.9,4.6-9.9,9.1-15,13.3,5.2-4.3,10.2-8.7,15-13.3Z"/>
    <path class="st0" d="M398.4,538c-4.1,1.9-8.3,3.6-12.5,5.3,4.2-1.7,8.4-3.4,12.5-5.3Z"/>
    <path class="st0" d="M14.8,207c1.2-4.4,2.6-8.8,4.1-13.1-1.5,4.3-2.8,8.7-4.1,13.1Z"/>
    <path class="st0" d="M385.8,23.6c19,7.5,37,17,53.7,28.3-16.7-11.3-34.7-20.8-53.7-28.3Z"/>
    <path class="st0" d="M283.5,562.7c36.1,0,70.7-6.9,102.4-19.4-31.7,12.5-66.2,19.4-102.4,19.4h0Z"/>
    <path class="st0" d="M422.4,525.7c-7.8,4.5-15.8,8.6-24.1,12.3,8.2-3.7,16.3-7.8,24.1-12.3Z"/>
    <path class="st0" d="M445.1,55.8c5.5,3.9,10.8,8,16,12.3-5.2-4.3-10.5-8.3-16-12.3Z"/>
    <path class="st0" d="M461.1,68c6.9,5.7,13.5,11.7,19.8,18-6.3-6.3-12.9-12.3-19.8-18Z"/>
    <path class="st0" d="M498.9,461.1c-2.9,3.5-5.8,6.8-8.8,10.1,3-3.3,5.9-6.7,8.8-10.1Z"/>
    <path class="st0" d="M540.7,392.1c-1.8,4.2-3.6,8.3-5.6,12.4,2-4.1,3.8-8.2,5.6-12.4Z"/>
    <path class="st0" d="M511.2,445.1c-2.6,3.6-5.3,7.2-8,10.8,2.8-3.5,5.4-7.1,8-10.8Z"/>
    <path class="st0" d="M532.1,410.6c-4.1,8-8.6,15.8-13.4,23.4,4.8-7.5,9.3-15.4,13.4-23.4Z"/>
    <path class="st4" d="M552.1,207c-1.2-4.4-2.6-8.8-4.1-13.1-2.2-6.5-4.6-12.9-7.3-19.1-1.8-4.2-3.6-8.3-5.6-12.4-4.9-10.2-10.4-20-16.5-29.4-2.4-3.8-4.9-7.5-7.5-11.1-3.9-5.5-8-10.8-12.2-16-5.7-6.9-11.7-13.5-18-19.8-6.3-6.3-12.9-12.3-19.8-18-5.2-4.3-10.5-8.3-16-12.2-1.8-1.3-3.7-2.6-5.5-3.8-16.7-11.3-34.7-20.8-53.7-28.3-31.7-12.5-66.2-19.4-102.4-19.4h0c-39.6,0-77.3,8.3-111.4,23.1-2.3,1-4.5,2-6.8,3.1-3,1.4-6,2.8-8.9,4.4-2,1-4,2.1-6,3.2-5.9,3.2-11.7,6.7-17.4,10.3-5.7,3.6-11.2,7.5-16.6,11.5-1.8,1.3-3.6,2.7-5.3,4.1-2.6,2-5.1,4.1-7.6,6.2-2.6,2.2-5.2,4.5-7.8,6.8-3.3,3-6.5,6.1-9.7,9.2-1.6,1.6-3.1,3.2-4.7,4.8-4.6,4.8-9.1,9.9-13.3,15-4.3,5.2-8.3,10.5-12.2,16-3.4,4.8-6.6,9.7-9.7,14.7-1.6,2.6-3.2,5.3-4.8,8-3.4,5.9-6.5,11.8-9.5,17.9-4.9,10.2-9.2,20.7-12.9,31.5-1.5,4.3-2.8,8.7-4.1,13.1-6.9,24.3-10.6,49.9-10.6,76.4,0,53,14.8,102.6,40.4,144.8,3.5,5.8,7.2,11.4,11.1,16.9,9.1,12.8,19.2,24.8,30.3,35.8,3.2,3.2,6.4,6.2,9.7,9.2,1.7,1.5,3.3,3,5,4.5,3.4,2.9,6.8,5.8,10.3,8.5,1.8,1.4,3.5,2.7,5.3,4.1,5.4,4,10.9,7.8,16.6,11.5,1.9,1.2,3.8,2.4,5.7,3.6,3.8,2.3,7.7,4.6,11.7,6.7,2,1.1,4,2.1,6,3.2,38.1,19.5,81.3,30.5,127.1,30.5h0c36.1,0,70.7-6.9,102.4-19.4,4.2-1.7,8.4-3.4,12.5-5.3,8.2-3.7,16.3-7.8,24.1-12.3,5.9-3.4,11.6-6.9,17.1-10.7,1.9-1.2,3.7-2.5,5.5-3.8,5.5-3.9,10.8-8,16-12.2s10.2-8.7,15-13.3c1.6-1.5,3.2-3.1,4.8-4.7,3.2-3.2,6.2-6.4,9.2-9.7s5.9-6.7,8.8-10.1c1.4-1.7,2.8-3.5,4.2-5.2,2.8-3.5,5.4-7.1,8-10.8,2.6-3.6,5.1-7.4,7.5-11.1,4.8-7.5,9.3-15.4,13.4-23.4,1-2,2-4,3-6.1,2-4.1,3.8-8.2,5.6-12.4,14.1-33.4,21.9-70.1,21.9-108.7s-3.7-52.1-10.6-76.4h0ZM283.5,553.3c-149,0-269.8-120.8-269.8-269.8S134.4,13.6,283.5,13.6s269.8,120.8,269.8,269.8-120.8,269.8-269.8,269.8h0Z"/>
  </g>
  <g class="st3">
    <g class="st3">
      <path class="st1" d="M103.2,449.5c-4.1-4.3-4.8-7.8-2-10.3l.9-.8c2.7-2.6,6.1-1.7,10.2,2.6l2.1,2.2c.7.7.4,1.2-.4,2-.8.7-1.3,1-2,.3l-2.1-2.3c-2.4-2.6-4.1-2.8-5-1.9l-.9.8c-.9.9-.8,2.6,1.6,5.1l4.9,5.2c4.1,4.3,4.8,7.8,2,10.3l-1.1,1c-2.7,2.6-6.1,1.7-10.2-2.6l-10.1-10.7c-.7-.7-.4-1.2.4-2,.8-.7,1.3-1,2-.3l10.2,10.8c2.4,2.6,4.1,2.8,5,1.9l1.1-1c.9-.9.8-2.6-1.6-5.1l-4.9-5.2Z"/>
    </g>
  </g>
  <g class="st3">
    <g class="st3">
      <path class="st1" d="M120.4,477.5c-.8.4-1.7.3-2.6-.4-.9-.7-1.3-1.6-1.1-2.6l5-19.7c0-.3.2-.5.3-.7.5-.7,1.6-.5,2.6.3.7.6.9,1.1.8,1.8l-4.8,17.3,15.6-7.9c1.2-.6,1.8-.5,2.7.2,1,.8,1.1,1.3.8,2.5l-4.2,17,15.9-8.4c.6-.3,1.2-.2,1.9.4,1,.8,1.4,1.8.8,2.5-.1.2-.3.3-.6.4l-18.2,9.2c-.9.5-1.9.3-2.8-.5-.8-.7-1.3-1.5-1.1-2.5l4.1-16.5-15.2,7.7Z"/>
    </g>
  </g>
  <g class="st3">
    <g class="st3">
      <path class="st1" d="M148.6,497.8c-.6,1-1.3.8-2.5.1-1.1-.7-1.5-1.3-.9-2.3l10.4-16.2c.6-1,1.3-.8,2.4-.1,1.1.7,1.6,1.3.9,2.3l-10.4,16.2Z"/>
    </g>
  </g>
  <g class="st3">
    <g class="st3">
      <path class="st1" d="M171.4,491.2l-8.3,15.1c-.6,1-1.3.9-2.4.3-1.1-.6-1.6-1.2-1.1-2.2l8.3-15.1-7.9-4.4c-.8-.5-.8-1-.2-2,.5-.9,1-1.3,1.8-.9l19.4,10.7c.8.5.8,1,.2,2-.5.9-1,1.3-1.8.9l-8-4.4Z"/>
    </g>
  </g>
  <g class="st3">
    <g class="st3">
      <path class="st1" d="M181.8,516.8c-5.5-2.3-7.5-5.2-6.1-8.6l4.1-9.8c1.5-3.5,4.9-4,10.4-1.7l13.6,5.7c.9.4.9,1,.5,2s-.8,1.4-1.7,1l-13.5-5.7c-3.2-1.4-5.1-1-5.6.2l-4.1,9.8c-.5,1.2.5,2.8,3.8,4.1l13.5,5.7c.9.4.8.9.4,1.9-.4,1-.8,1.4-1.7,1.1l-13.6-5.7Z"/>
    </g>
  </g>
  <g class="st3">
    <g class="st3">
      <path class="st1" d="M207.4,513.6l18.6,5.3,2.2-7.8c.3-1.1,1.1-1.2,2.3-.8,1.2.4,1.8.8,1.5,1.9l-5.3,18.5c-.3,1.1-1.1,1.2-2.3.8-1.3-.4-1.9-.8-1.5-1.9l2.2-7.5-18.6-5.3-2.2,7.5c-.3,1.1-1.1,1.2-2.3.8-1.2-.4-1.8-.8-1.5-1.9l5.3-18.5c.3-1.1,1.1-1.2,2.3-.8,1.3.4,1.9.8,1.5,1.9l-2.2,7.8Z"/>
    </g>
  </g>
  <g class="st3">
    <g class="st3">
      <path class="st1" d="M235.9,524.3l-.6,3.5c-.2,1.3,1.1,2.6,4.6,3.1l14.2,2.3c1,.2,1.1.7.9,1.8-.2,1-.5,1.6-1.4,1.4l-14.3-2.3c-5.9-1-8.5-3.3-7.9-7l1.7-10.5c.6-3.7,3.8-5,9.7-4.1l4.4.7c.9.2,1,.7.9,1.8-.2,1.1-.5,1.6-1.4,1.4l-4.3-.7c-3.5-.6-5.2.2-5.4,1.5l-.6,3.8,19.3,3.1c1,.2,1.1.7.9,1.8-.2,1.1-.5,1.6-1.4,1.4l-19.3-3.1Z"/>
    </g>
  </g>
  <g class="st3">
    <g class="st3">
      <path class="st1" d="M261.3,515.4l16.9.8c5.4.2,8.8,2.3,8.6,5.3l-.2,3.8c-.1,2.9-3.6,4.7-9.1,4.5h-1.2c-3.5-.2-5-.3-6.5-.5h0c1.3.6,2.6,1.1,7.1,3.2l7.1,3.2c.7.3.9.7.9,1.4,0,1.1-.8,1.4-2.1,1.3-.6,0-1.7-.1-2.4-.5l-17.2-8.4-.3,6.6c0,1.1-.8,1.4-2.1,1.3-1.3,0-2-.4-1.9-1.5l.9-19.1c0-.9.5-1.4,1.5-1.3ZM263.7,518.8l-.3,7.1,13.9.6c4.1.2,5.3-.6,5.3-1.7v-3.2c.2-1.1-.9-2-5-2.2l-13.9-.6Z"/>
    </g>
  </g>
  <g class="st3">
    <g class="st3">
      <path class="st1" d="M297.9,528.2c-5.9.4-9-1.2-9.3-4.9v-1.2c-.4-3.8,2.5-5.8,8.4-6.2l3-.2c1,0,1.2.5,1.3,1.5s0,1.6-1.1,1.7l-3.1.2c-3.5.3-4.8,1.4-4.7,2.7v1.2c.2,1.3,1.6,2.2,5.1,2l7.1-.5c5.9-.4,9,1.2,9.3,4.9v1.5c.4,3.8-2.5,5.8-8.4,6.2l-14.7,1.1c-1,0-1.2-.5-1.3-1.5s0-1.6,1.1-1.7l14.8-1.1c3.5-.3,4.8-1.4,4.7-2.7v-1.5c-.2-1.3-1.6-2.2-5.1-2l-7.1.5Z"/>
    </g>
  </g>
  <g class="st3">
    <g class="st3">
      <path class="st1" d="M353.9,522.7c.9,3.7-1.8,6.2-7.4,7.5l-8.9,2.1c-5.8,1.4-9.1.2-10-3.4l-2.4-10.3c-.9-3.7,1.6-6.1,7.4-7.5l4.1-1c.9-.2,1.3.3,1.5,1.3.2,1.1.2,1.6-.8,1.9l-4,.9c-3.4.8-4.7,2.2-4.4,3.4l2.4,10.3c.3,1.3,2,1.9,5.5,1.1l8.6-2c3.4-.8,4.7-2.2,4.4-3.4l-1.2-5.2c-.3-1.1.3-1.5,1.6-1.8,1.3-.3,2-.2,2.3.9l1.2,5.2Z"/>
    </g>
  </g>
  <g class="st3">
    <g class="st3">
      <path class="st1" d="M352.9,506l15.9-5.9c5.1-1.9,9-1.3,10,1.5l1.3,3.6c1,2.8-1.5,5.8-6.6,7.6l-1.1.4c-3.3,1.2-4.7,1.7-6.2,2.2h0c1.4,0,2.8,0,7.8.1l7.8.2c.7,0,1.1.3,1.4.9.4,1-.2,1.6-1.4,2-.5.2-1.7.5-2.4.4l-19.2-1,2.3,6.2c.4,1.1-.2,1.6-1.4,2-1.2.4-2,.4-2.4-.6l-6.6-17.9c-.3-.9,0-1.5.8-1.8ZM356.4,508.1l2.5,6.7,13.1-4.8c3.8-1.4,4.6-2.6,4.2-3.6l-1.1-3c-.4-1-1.7-1.4-5.6,0l-13.1,4.8Z"/>
    </g>
  </g>
  <g class="st3">
    <g class="st3">
      <path class="st1" d="M396.2,511.8c-5.3,2.7-8.8,2.4-10.5-.9l-6.9-13.3c-.5-1,0-1.6,1.1-2.2,1.2-.6,1.9-.7,2.4.3l6.9,13.3c.6,1.1,2.4,1.4,5.5-.2l8-4.2c3.1-1.6,4-3.2,3.4-4.4l-6.9-13.3c-.5-1,0-1.6,1.1-2.2,1.1-.6,1.9-.7,2.4.3l6.9,13.3c1.7,3.3,0,6.3-5.3,9.1l-8.2,4.3Z"/>
    </g>
  </g>
  <g class="st3">
    <g class="st3">
      <path class="st1" d="M404.9,482.4l14.1-9.6c4.5-3.1,8.4-3.4,10.1-1l2.5,3.6c1.7,2.4,0,5.9-4.6,9l-11.9,8.2,3.6,5.3c.6.9.2,1.6-.9,2.3-1.1.7-1.8.9-2.4,0l-10.8-15.8c-.5-.8-.4-1.4.4-1.9ZM408.8,483.6l4.3,6.3,11.7-8c3.4-2.3,3.8-3.6,3.2-4.5l-2.1-3.1c-.6-.9-2-.9-5.4,1.4l-11.7,8Z"/>
    </g>
  </g>
  <g class="st3">
    <g class="st3">
      <path class="st1" d="M428.3,466l12.8-11.3c4.1-3.6,7.9-4.4,9.9-2.2l2.9,3.3c1.9,2.2.7,5.9-3.4,9.5l-10.9,9.6,4.2,4.8c.8.9.4,1.5-.6,2.4-1,.9-1.7,1.1-2.4.2l-12.6-14.4c-.6-.7-.6-1.3.2-2ZM432.4,466.8l5,5.7,10.6-9.3c3.1-2.7,3.4-4.1,2.7-4.9l-2.5-2.8c-.7-.8-2.1-.7-5.2,2l-10.6,9.3Z"/>
    </g>
  </g>
  <g class="st3">
    <g class="st3">
      <path class="st1" d="M457.6,439.4l22.7,2.9c.3,0,.5.2.7.3.7.6.4,1.9-.3,2.7-.4.4-.8.6-1.3.6l-6.2-.9-11.3,12.4,1.6,6c.1.5,0,1-.4,1.4-.7.7-2,1.1-2.7.5-.2-.2-.3-.4-.3-.6l-5.5-21.7c-.2-.8,0-1.6.8-2.5.8-.9,1.5-1.1,2.4-1ZM460.8,453.7l8.4-9.2-11.2-1.6,2.8,10.8Z"/>
    </g>
  </g>
  <g class="st3">
    <g class="st3">
      <path class="st1" d="M175.9,56.2l7.5,15.6c.5,1,0,1.6-1.2,2.1-1.2.6-1.9.6-2.4-.4l-7.5-15.6-8.2,3.9c-.9.4-1.3,0-1.8-1-.5-1-.5-1.6.3-2l19.9-9.6c.9-.4,1.3,0,1.8,1s.5,1.6-.3,2l-8.2,4Z"/>
    </g>
  </g>
  <g class="st3">
    <g class="st3">
      <path class="st1" d="M202.6,65c-5.6,2-9,1.2-10.3-2.3l-4.9-14.1c-.4-1.1.2-1.6,1.4-2,1.2-.4,2-.4,2.4.7l4.9,14.1c.4,1.2,2.2,1.7,5.5.6l8.5-3c3.3-1.2,4.4-2.7,4-3.9l-4.9-14.1c-.4-1.1.2-1.6,1.4-2,1.2-.4,2-.4,2.3.7l4.9,14.1c1.2,3.5-1,6.3-6.6,8.2l-8.8,3.1Z"/>
    </g>
  </g>
  <g class="st3">
    <g class="st3">
      <path class="st1" d="M243.8,52.8l-21.6-11.5,3.2,15c.2,1.1-.4,1.5-1.7,1.8-1.3.3-2,.2-2.2-1l-4-18.8c-.2-1.1.4-1.5,1.6-1.8,1.3-.3,1.9,0,3,.5l21.3,11.5-3.2-15.1c-.2-1.1.4-1.5,1.6-1.8,1.3-.3,2-.2,2.3,1l4,18.8c.2,1.1-.4,1.5-1.7,1.8-1.1.2-1.3.1-2.5-.5Z"/>
    </g>
  </g>
  <g class="st3">
    <g class="st3">
      <path class="st1" d="M276.7,44.6c.3,3.8-2.6,5.8-8.4,6.3l-9.1.8c-5.9.5-9-1.1-9.3-4.8l-.9-10.6c-.3-3.7,2.5-5.8,8.4-6.3l4.2-.4c1,0,1.2.4,1.3,1.5,0,1.1,0,1.6-1,1.7l-4.1.4c-3.5.3-5,1.4-4.8,2.8l.9,10.6c.1,1.3,1.7,2.2,5.2,1.9l8.8-.8c3.5-.3,4.9-1.5,4.8-2.8l-.5-5.3c0-1.2.5-1.5,1.9-1.6s2.1,0,2.2,1.2l.5,5.3Z"/>
    </g>
  </g>
  <g class="st3">
    <g class="st3">
      <path class="st1" d="M287.8,50.5c-5.9-.2-8.8-2.2-8.7-5.9l.6-14.9c0-1.1.7-1.4,2-1.3,1.3,0,2,.3,2,1.5l-.6,14.9c0,1.3,1.4,2.4,4.9,2.5l9,.4c3.5.1,5.1-.9,5.1-2.1l.6-14.9c0-1.1.7-1.4,2.1-1.3,1.3,0,2,.3,1.9,1.5l-.6,14.9c-.1,3.7-3.2,5.5-9.1,5.2l-9.3-.4Z"/>
    </g>
  </g>
  <g class="st3">
    <g class="st3">
      <path class="st1" d="M318,43.5c-5.9-.9-8.5-3.2-7.9-6.9l.2-1.2c.6-3.7,3.8-5.1,9.7-4.1l3,.5c1,.2,1.1.7.9,1.8s-.5,1.6-1.4,1.4l-3.1-.5c-3.5-.6-4.9.2-5.2,1.6l-.2,1.2c-.2,1.3.9,2.5,4.4,3.1l7,1.1c5.9.9,8.5,3.2,7.9,6.9l-.2,1.5c-.6,3.7-3.8,5.1-9.7,4.1l-14.6-2.3c-1-.2-1.1-.7-.9-1.8s.5-1.6,1.4-1.4l14.7,2.3c3.5.6,4.9-.2,5.2-1.6l.2-1.5c.2-1.3-.9-2.5-4.4-3.1l-7-1.1Z"/>
    </g>
  </g>
  <g class="st3">
    <g class="st3">
      <path class="st1" d="M341.2,44.3l17.6-4c.6-.1,1.2-.1,2.5.2.8.2,1.4.9,1.2,1.8-.2.6-.6.9-1.3,1.1l-17.6,3.5,13.8,12.5c.5.5.7,1,.6,1.6-.2.9-1.1,1.1-1.9.9-1.3-.4-1.8-.6-2.2-1.1l-13.5-12.7-2,7.4c-.3,1.1-1,1.2-2.3.8-1.2-.3-1.8-.8-1.5-1.9l5.1-18.5c.3-1.1,1-1.2,2.3-.8,1.3.4,1.9.8,1.6,1.9l-2,7.3Z"/>
    </g>
  </g>
  <g class="st3">
    <g class="st3">
      <path class="st1" d="M381.7,49.5l5,22.3c0,.3,0,.5,0,.7-.3.8-1.7,1-2.6.6-.5-.2-.9-.6-1-1.1l-1.3-6.1-15.5-6.4-5.1,3.5c-.4.3-1,.3-1.4,0-.9-.4-1.7-1.5-1.4-2.3,0-.2.3-.4.4-.5l18.5-12.6c.7-.4,1.5-.5,2.6,0,1.1.4,1.6,1.1,1.8,1.9ZM369.4,57.4l11.5,4.7-2.3-11.1-9.1,6.4Z"/>
    </g>
  </g>
  <g>
    <polygon class="st5" points="294.5 306.1 294.5 186.3 280.2 172 265.9 186.3 265.9 306.1 126.4 191.2 161.7 274.1 257.4 340.5 280.2 416.7 303 340.5 398.7 274.1 434 191.2 294.5 306.1"/>
    <polygon class="st2" points="291.5 408 315.8 374.3 371.3 353.5 396.3 293.2 307.3 352.9 291.5 408"/>
    <polygon class="st5" points="353.6 371.5 353.6 380.7 280.2 448 206.8 380.7 206.8 371.5 192.2 366.7 188.5 384.4 280.2 480.9 371.9 384.4 368.2 366.7 353.6 371.5"/>
    <polygon class="st2" points="343.9 253.4 343.9 191.2 309.1 179.2 301.2 280.1 343.9 253.4"/>
    <polygon class="st2" points="244.6 374.3 269 408 253.1 352.9 164.2 293.2 189.1 353.5 244.6 374.3"/>
    <polygon class="st5" points="193.2 211.1 193.2 200.3 280.2 120.4 367.3 200.3 367.3 211.1 384.6 216.9 389 195.9 280.2 81.4 171.5 195.9 175.8 216.9 193.2 211.1"/>
    <polygon class="st2" points="216.6 253.4 259.2 280.1 251.3 179.2 216.6 191.2 216.6 253.4"/>
  </g>
</svg>