<?xml version="1.0" encoding="utf-8"?>
<!-- Generator: Adobe Illustrator 22.1.0, SVG Export Plug-In . SVG Version: 6.00 Build 0)  -->
<svg version="1.1" id="Capa_1" xmlns="http://www.w3.org/2000/svg" xmlns:xlink="http://www.w3.org/1999/xlink" x="0px" y="0px"
	 viewBox="0 0 113.4 113.8" style="enable-background:new 0 0 113.4 113.8;" xml:space="preserve">
<style type="text/css">
	.st0{fill:#010101;}
	.st1{fill:#E73631;}
	.st2{fill:#FFED00;}
	.st3{fill:#FFEB00;}
	.st4{fill:#FBE300;}
	.st5{fill:#090B07;}
	.st6{fill:#0C0E09;}
	.st7{fill:#0B0D08;}
	.st8{fill:#0D0F09;}
	.st9{fill:#0D0E09;}
	.st10{fill:#C3B118;}
	.st11{fill:#DCC700;}
	.st12{fill:#B7A620;}
	.st13{fill:#E2CD00;}
	.st14{fill:#8E822D;}
	.st15{fill:#8E822E;}
	.st16{fill:#71682F;}
	.st17{fill:#D4BF04;}
	.st18{fill:#BFAD1B;}
	.st19{fill:#726930;}
	.st20{fill:#F1DA00;}
	.st21{fill:#B1A121;}
	.st22{fill:#B1A122;}
	.st23{font-family:'ArialMT';}
	.st24{font-size:13.19px;}
	.st25{font-size:13.2302px;}
	.st26{font-size:13.2558px;}
</style>
<path class="st0" d="M56.6,113.8C26,114.2-0.7,88.4,0,55.8C0.5,24.5,26.3-0.5,57.6,0s56.3,26.3,55.8,57.6c0,0.4,0,0.9,0,1.3
	C112.6,88.7,87.8,114.2,56.6,113.8z"/>
<path class="st1" d="M72.7,94.7c-6.9-8.8-19.7-10.4-28.6-3.4c-1.3,1-2.4,2.2-3.4,3.4c-15.1-6-26.9-22.9-24.6-42.1
	c2.3-20.3,19.2-35.8,39.7-36.3c19.7-0.5,37.4,13.9,41,33.2C100.4,68.3,90.4,87.2,72.7,94.7z"/>
<path class="st1" d="M38.7,108.1c-0.1-7.1,2.6-12.9,8.8-16.7c6.4-3.9,13.1-3.7,19.4,0.4c5.8,3.8,8.2,9.4,8.2,16.1
	C67,112.4,48.1,112.5,38.7,108.1z"/>
<path class="st2" d="M100.1,89.4c-3.3,4.4-7.2,8.3-11.7,11.5l-0.8,0.5l-4.6-1.1c-0.6-0.1-1.1-0.2-1.7-0.5c0-0.6,0.4-0.8,0.8-1.1
	c3.8-2.3,7.2-5.2,10.2-8.4c0.6-0.6,1.2-1.1,1.9-1.5h5.3C99.8,88.8,100.4,88.7,100.1,89.4z"/>
<path class="st2" d="M30.4,100.3l-4.6,1.1c-3.3-2.2-6.3-4.9-9-7.8c-1.2-1.4-2.3-2.8-3.5-4.2c-0.3-0.7,0.2-0.6,0.6-0.6h5.3
	c2.3,1.6,4,3.9,6.2,5.7s4.5,3.3,6.9,5C31.8,100,31.1,100.3,30.4,100.3z"/>
<path class="st2" d="M80.1,97.8c0.5-1.8,1-3.7,1.5-5.5c0.2-0.8,0.7-1.5,1.3-2.1c3.8-3,7-6.6,9.6-10.7c0.6-0.1,0.3,0.3,0.3,0.6v7.3
	c0,0.6-0.2,1.1-0.6,1.5c-3.2,3.7-6.9,6.8-11.2,9.2C80.4,98.7,80.2,98.6,80.1,97.8z"/>
<path class="st2" d="M20.9,79.6c2.6,4.1,5.8,7.7,9.6,10.7c0.7,0.5,1.1,1.2,1.3,2.1c0.5,1.8,1,3.7,1.5,5.5c0.3,0.3,0.1,0.5-0.2,0.6
	c-0.3,0-0.6-0.1-0.8-0.2c-4.2-2.4-8-5.5-11.1-9.2c-0.4-0.4-0.6-0.9-0.6-1.5c0-2.4,0-4.9,0-7.3C20.5,79.9,20.3,79.5,20.9,79.6z"/>
<path class="st2" d="M102.2,76l5.5-1.3c-1.5,4.4-3.5,8.6-6.1,12.5c-1,0.5-2.1,0.1-3.2,0.2c-1,0.1-2,0.1-2.9-0.1
	c0.1-0.9,0.8-1.4,1.3-2.1c0.1-0.3,0.3-0.6,0.5-0.8c0.3-0.7,0.8-1.4,1.3-2c0.2-0.5,0.4-0.9,0.8-1.3c0.1-0.2,0-0.4,0.3-0.5
	c0.2-0.5,0.5-1,0.8-1.5C101.1,78.1,101,76.7,102.2,76z"/>
<path class="st2" d="M11.8,87.2c-2.5-3.9-4.5-8.1-6.1-12.5l5.5,1.3c0.5,0.2,0.7,0.6,0.8,1c0.3,0.7,0.7,1.4,1,2.1
	c0.3,0.5,0.6,1,0.8,1.5c0.2,0.1,0.2,0.3,0.3,0.5c0.3,0.4,0.6,0.8,0.7,1.3v-0.1v0.1c0.7,0.9,1.3,1.8,1.8,2.8c0.3,0.3,0.6,0.6,0.8,1
	c0.3,0.3,0.5,0.6,0.6,1c-1.1,0.2-2.3,0.3-3.5,0.2C13.5,87.3,12.6,87.7,11.8,87.2z"/>
<path class="st2" d="M13,75.7c1-2.7,1.5-5.7,2.5-8.7c0.8,3.3,2,6.4,3.6,9.4c0.3,2.3,0,4.7,0.1,7v1.6c0,0.3-0.2,0.4-0.5,0.4
	c-0.2,0-0.3-0.1-0.4-0.2c-0.3-0.3-0.6-0.6-0.8-1c-0.3-0.2-0.4-0.5-0.5-0.8c-0.3-0.2-0.4-0.5-0.5-0.8c-0.6-0.7-1.2-1.6-1.5-2.5
	c-0.2-0.1-0.2-0.3-0.3-0.5c-0.8-0.9-1.3-1.9-1.5-3.1C13.1,76.5,13,76.1,13,75.7z"/>
<path class="st2" d="M94.3,76.5c1.6-3,2.8-6.2,3.6-9.4c1,3,1.4,5.9,2.5,8.7c0.1,0.4,0,0.7-0.3,1h0.1c-0.3,1.3-0.9,2.5-1.8,3.6
	c-0.2,0.5-0.4,0.9-0.8,1.3c-0.3,0.4-0.4,1-0.8,1.3c-0.1,0.3-0.2,0.6-0.5,0.8c-0.1,0.3-0.3,0.6-0.5,0.8c-0.3,0.5-0.4,1.2-1.2,1.3
	c-0.2,0-0.4-0.2-0.4-0.5c0-2.5,0-4.9,0-7.4C94,77.4,94.1,76.9,94.3,76.5L94.3,76.5z"/>
<path class="st3" d="M109.9,48.7l-2,1.9c-0.6-5.4-2.1-10.8-4.3-15.8c-2.3-5-5.3-9.7-9-13.9C99.2,21.6,109,39.5,109.9,48.7z"/>
<path class="st3" d="M5.6,50.8l-2.1-2.3c1.8-10.5,7-20.2,14.7-27.6l0.5,0.3c-3.5,4.1-6.5,8.7-8.8,13.6C7.6,39.8,6.2,45.2,5.6,50.8z"
	/>
<path class="st3" d="M9.7,52.3l-1.1,1.2c-0.6,0-0.7-0.6-1.1-0.7C7,44.9,16.2,26.2,21.7,24.3C14.9,32.2,10.8,42,9.7,52.3z"/>
<path class="st3" d="M92.9,25l0.3,0.3c0.1,0,0.2,0.1,0.2,0.2c5.2,5.3,9,11.8,11,19c0.8,2.6,1.3,5.3,1.6,8c-0.2,0.4-0.6,0.8-1,1
	c-0.5-0.3-1-0.7-1.3-1.2c-0.5-5.5-2-10.8-4.3-15.8c-1.8-3.7-3.9-7.2-6.4-10.4c0-0.1-0.1-0.3-0.3-0.3c0-0.1-0.1-0.2-0.3-0.3
	c-0.1-0.1-0.1-0.2-0.2-0.3c-0.1-0.1-0.2-0.2-0.2-0.3c-0.1,0-0.2-0.1-0.2-0.2v-0.3c0.1-0.1,0.1-0.2,0.2-0.2c0.4,0,0.6,0.3,0.8,0.5
	C92.9,24.8,92.9,24.9,92.9,25z"/>
<path class="st2" d="M9.2,73.9L5,72.7c-0.9-3.1-1.6-6.2-2-9.4C3,63,2.9,62.7,3.4,62.7l5,2.8c0.5,1.7,1,3.4,1.3,5.1
	c0.2,0.6,0.4,1.2,0.5,1.8c0.3,0.5,0.5,1.1,0.6,1.8C10.2,74.5,9.7,74.1,9.2,73.9z"/>
<path class="st2" d="M110.3,63.3c-0.4,3.2-1,6.3-1.9,9.3l-5,1.5c-0.2,0.3-0.4,0.1-0.7,0.2c0-0.7,0.2-1.3,0.5-1.9
	c0.1-0.6,0.3-1.2,0.6-1.8c0.3-1,0.5-2.1,0.8-3.1c0.1-0.7,0.2-1.4,0.5-2l5-2.8C110.5,62.7,110.4,63,110.3,63.3z"/>
<path class="st2" d="M7.7,63.5l-4.9-3c-0.5-3.2-0.1-6.4,0.2-9.6c0.6,0,0.7,0.7,1.2,0.7c1.2,1.2,2.4,2.3,3.5,3.5
	c-0.1,2.8,0.2,5.6,0.3,8.3C8,63.7,7.8,63.7,7.7,63.5z"/>
<path class="st2" d="M109.1,51.7l1.2-0.9c0.5,3.2,0.6,6.5,0.3,9.7l-4.9,3c-0.1,0.2-0.2,0.2-0.4,0.1c0-2.7,0.5-5.4,0.3-8.3
	C106.7,54,107.9,52.8,109.1,51.7z"/>
<path class="st2" d="M101.2,73.1c-0.6-2.3-1-4.6-1.8-6.8c-1.1-2.8-0.4-5.7-0.5-8.8l4.6,7.7c0.5,1.2-0.3,2.3-0.4,3.4
	c-0.1,1-0.4,2-0.9,2.9c-0.2,0.2,0,0.6-0.3,0.8C101.7,72.5,101.8,73.1,101.2,73.1z"/>
<path class="st2" d="M10,65.1l4.5-7.6c0,3.2,0.5,6.2-0.5,9.1c-0.7,2.1-1.3,4.3-1.7,6.5c-0.7,0-0.5-0.6-0.7-1
	c-0.6-1.9-1.2-3.8-1.6-5.8C9.8,65.9,9.8,65.5,10,65.1z"/>
<path class="st4" d="M23.7,29.1c0,0.1,0,0.1-0.1,0.2c0,0.1-0.1,0.2-0.2,0.3c-0.1,0.1-0.2,0.2-0.2,0.3c-3.2,4.6-6,9.5-7.3,15
	c-0.4,1.8-1.6,2.8-3,3.9c1.1-7.3,4.5-14.1,9.7-19.4c0.1-0.1,0.1-0.2,0.2-0.3c0.1-0.1,0.2-0.2,0.2-0.3l0.2-0.3l0.2-0.3l0.3-0.2
	c0.1-0.1,0.2-0.2,0.3-0.2c0.4,0,0.5,0.2,0.2,0.5c0,0.1-0.1,0.2-0.2,0.3c-0.1,0.1-0.2,0.2-0.2,0.3C23.8,28.9,23.7,29,23.7,29.1z"/>
<path class="st4" d="M91.4,30c4.6,4.9,8.9,13.7,9,19c-1-1.2-2.3-1.8-2.7-3.2c-1.3-5.2-3.5-10.2-6.6-14.6c-0.1-0.2-0.3-0.4-0.4-0.7
	c-0.1-0.1-0.1-0.2-0.2-0.3c-0.2-0.1-0.1-0.4-0.3-0.5c0-0.1-0.1-0.2-0.2-0.3c-0.1-0.1-0.1-0.2-0.2-0.3c-0.1,0-0.1-0.1-0.1-0.2
	c0-0.1-0.1-0.3-0.2-0.3c-0.1-0.1-0.1-0.2-0.2-0.3c0-0.1-0.1-0.1-0.1-0.2c0-0.1,0-0.1,0-0.1c0.1-0.1,0.2-0.1,0.3-0.1
	c0.1,0,0.2,0,0.3,0.1c0.1,0.1,0.2,0.2,0.2,0.3c0.1,0.1,0.2,0.2,0.3,0.2c0.1,0.1,0.2,0.2,0.2,0.3c0.1,0.1,0.2,0.1,0.2,0.2
	c0.1,0.1,0.2,0.1,0.2,0.2c0.1,0.1,0.2,0.1,0.2,0.2c0.1,0,0.3,0.1,0.3,0.2C91.4,30,91.4,30,91.4,30z"/>
<path class="st2" d="M15.1,49.9c0.1,3.9-2.1,7-3.9,10.2c-0.4,0.7-0.8,1.5-1.2,2.2c-0.1,0.2-0.1,0.3-0.5,0.3
	c-0.5-2.4-0.5-4.9-0.3-7.4l5.8-5.8C15.2,49.5,15.2,49.7,15.1,49.9z"/>
<path class="st2" d="M98.4,49.4l5.8,5.8c0.3,2.1,0.2,4.3-0.1,6.4c0,0.4-0.2,0.6-0.6,0.5c-1.4-2.4-2.9-4.9-4.2-7.3
	c-0.8-1.5-0.4-3.2-0.9-4.8C98.2,49.7,98.2,49.5,98.4,49.4z"/>
<path class="st5" d="M80.1,97.8l0.1,0.6c4.8-2.7,9-6.2,12.6-10.4c-0.2-2.8,0.2-5.6-0.2-8.5c0-0.3,0-0.5,0.5-0.7v10
	c2.4-0.3,4.9-0.4,7.3-0.3c0.2,0.5,0,0.7-0.3,0.8c0.2-0.6-0.2-0.5-0.6-0.5h-5.4c-3.7,4.3-8,7.9-12.9,10.8l1.8,0.7
	c-1.1,0.2-2.3-0.4-2.9-1.3C79.8,98.6,79.6,98.2,80.1,97.8z"/>
<path class="st5" d="M20.9,79.6c-0.2,1.4-0.3,2.8-0.2,4.2v4.3c3.5,4.2,7.8,7.7,12.5,10.3l0.1-0.6c0.7,1.3-0.4,1.7-1.1,2.2
	c-0.5,0.4-1.2,0.5-1.8,0.3l1.8-0.6c-4.8-2.9-9.2-6.5-12.9-10.8h-5.5c-0.3,0-0.7-0.1-0.6,0.5c-0.3-0.1-0.4-0.2-0.5-0.7
	c2.5-0.1,5,0,7.4,0.2v-9.9C20.9,79,20.8,79.3,20.9,79.6z"/>
<path class="st6" d="M7.7,63.5c0.2,0,0.3-0.1,0.3-0.4c-0.3-2.6-0.4-5.2-0.3-7.8l-3.4-3.7c1.5,0.8,2.4,2.3,3.6,3.3l0.5,8.7
	C8.1,63.9,7.9,63.8,7.7,63.5z"/>
<path class="st6" d="M109.1,51.7l-3.4,3.7c0.1,2.6,0,5.3-0.4,7.9c0,0.3,0.2,0.2,0.3,0.2c-0.1,0.3-0.3,0.4-0.6,0.2
	c0.1-2.9,0.5-5.7,0.4-8.6C106.7,53.9,107.6,52.5,109.1,51.7z"/>
<path class="st7" d="M96.8,85.2l-1.3,2h6.1c-0.1,0.3-0.4,0.5-0.7,0.5c-1.9-0.3-3.9,0-5.9-0.1C95.3,86.5,96,85.7,96.8,85.2z"/>
<path class="st7" d="M11.8,87.2h5.9c0.2-0.4-0.4-0.6-0.4-1c0.6,0.2,0.9,0.7,0.9,1.3c-1.6,0.2-3.1,0.2-4.7,0
	C12.9,87.5,12.2,88.1,11.8,87.2z"/>
<path class="st7" d="M94.3,76.5v8.9c0.1,0.2,0.2,0.4,0.2,0.6v0.2L94,86.7c0-2.9,0-5.6,0-8.3C94,77.8,93.8,77.1,94.3,76.5z"/>
<path class="st7" d="M19.1,85.4v-8.9c0.1,0.1,0.2,0.1,0.2,0.2v9.9l-0.4-0.5V86C18.8,85.8,18.9,85.5,19.1,85.4z"/>
<path class="st7" d="M15.1,80.3c0.6,0.8,1.1,1.6,1.6,2.6l-0.9-0.4c-0.5,1.2,0.9,1.8,0.8,2.8c-0.7-0.8-1.3-1.8-1.8-2.8
	c0.3-0.1,0.6-0.2,0.8-0.6S15,80.9,15.1,80.3z"/>
<path class="st6" d="M9.2,55.2c0,2.2,0,4.4,0.3,6.6c0,0.2-0.2,0.8,0.5,0.4c0,0.4-0.1,0.6-0.6,0.8C9,60.3,8.6,57.8,9.2,55.2z"/>
<path class="st8" d="M10,65.1c0.2,1.9,0.6,3.8,1.2,5.6c0.1,0.5,0.2,1,0.4,1.5c-1.1-2-1.4-4.2-1.8-6.4C9.7,65.5,9.8,65.2,10,65.1z"/>
<path class="st6" d="M103.9,61.8c0.2-2.2,0.3-4.4,0.3-6.6c0.4,1.9,0.4,3.8,0.1,5.7c0,0.6-0.1,1.2-0.2,1.7c0,0.3-0.2,0.5-0.4,0.1
	C103.9,62.4,103.6,62,103.9,61.8z"/>
<path class="st9" d="M102.1,71.4c0.4-1.7,0.8-3.3,1.2-5c0.1-0.4,0.1-0.9,0.2-1.3c0.7,0.9,0,1.7-0.1,2.6
	C103.1,69,102.7,70.2,102.1,71.4z"/>
<path class="st7" d="M98.3,80.3l1.8-3.6C100.1,78.2,99.5,79.5,98.3,80.3z"/>
<path class="st8" d="M9.7,70.7c-0.6-1.7-1-3.4-1.3-5.1C9.1,67.2,9.6,68.9,9.7,70.7z"/>
<path class="st7" d="M13.3,76.7c0.6,1,1.1,2,1.5,3.1C13.7,79.2,13.1,77.9,13.3,76.7z"/>
<path class="st7" d="M102.2,76c-0.9,0.8-0.9,2.2-1.8,3.1C100.8,78,100.7,76.5,102.2,76z"/>
<path class="st8" d="M9.2,73.9l1.4,0.3c-0.2-0.6-0.3-1.2-0.5-1.7c0.6,0.4,0.6,1.1,0.8,1.8C10.4,74.6,9.6,74.5,9.2,73.9z"/>
<path class="st9" d="M104.5,67.6c-0.1,1.1-0.3,2.1-0.8,3.1C103.7,69.6,104,68.6,104.5,67.6z"/>
<path class="st7" d="M98.7,82.4c-0.3,0.7-0.7,1.4-1.3,2C97.4,83.5,97.9,82.8,98.7,82.4z"/>
<path class="st9" d="M103.2,72.5l-0.4,1.6c0.2,0.2,0.4,0,0.6,0.1c-0.3,0.5-0.6,0.3-1,0.1C102.6,73.6,102.6,72.9,103.2,72.5z"/>
<path class="st7" d="M13,79.1c-0.5-0.6-0.8-1.3-1-2.1C12.5,77.6,12.9,78.3,13,79.1z"/>
<path class="st8" d="M11.5,72.1c0.4,0.2,0.2,0.8,0.7,1c0.1,0.3,0,0.5-0.2,0.7C11.7,73.4,11.5,72.8,11.5,72.1z"/>
<path class="st7" d="M94.8,85.4l0.9-1.1c0,0.7-0.4,1.3-1,1.6l-0.1-0.1C94.6,85.6,94.6,85.5,94.8,85.4z"/>
<path class="st9" d="M101.2,73.1c0.5-0.2,0.3-0.7,0.7-1c0,0.6-0.1,1.2-0.4,1.7C101,73.6,101.2,73.3,101.2,73.1z"/>
<path class="st10" d="M88.6,27.8c-0.4-0.3-0.6-0.6-0.8-1.1c0.5,0,0.9,0.3,1.1,0.7C88.9,27.7,88.8,27.8,88.6,27.8z"/>
<path class="st9" d="M105,65.6c-0.1,0.7-0.3,1.4-0.5,2C104.3,66.9,104.5,66.1,105,65.6z"/>
<path class="st7" d="M13.7,80.6c-0.4-0.4-0.7-1-0.8-1.5C13.5,79.4,13.8,80,13.7,80.6z"/>
<path class="st7" d="M100.5,79.1c-0.1,0.6-0.4,1.1-0.8,1.5C99.6,80,99.9,79.4,100.5,79.1z"/>
<path class="st8" d="M10.2,72.5c-0.3-0.5-0.5-1.2-0.5-1.8C10.1,71.2,10.3,71.8,10.2,72.5z"/>
<path class="st9" d="M103.7,70.7c0,0.6-0.2,1.2-0.6,1.8C103.1,71.8,103.3,71.2,103.7,70.7z"/>
<path class="st11" d="M24.4,28.2l-0.2-0.5l0.5-0.5c0.3,0,0.4,0,0.3,0.3C24.9,27.9,24.7,28.1,24.4,28.2z"/>
<path class="st7" d="M97.5,81.6c0.1-0.5,0.4-1,0.8-1.3C98.4,80.8,98,81.3,97.5,81.6z"/>
<path class="st7" d="M14.7,82.4c-0.4-0.4-0.6-0.8-0.7-1.3C14.5,81.3,14.8,81.8,14.7,82.4z"/>
<path class="st7" d="M99.4,81.1c-0.1,0.5-0.4,0.9-0.8,1.3C98.6,81.8,98.9,81.3,99.4,81.1z"/>
<path class="st7" d="M96.7,82.8c0.2-0.5,0.4-0.9,0.8-1.3C97.5,82.1,97.4,82.6,96.7,82.8z"/>
<path class="st7" d="M17.3,86.2c-0.4-0.2-0.6-0.6-0.8-1C17,85.3,17.3,85.7,17.3,86.2z"/>
<path class="st7" d="M12,77l-0.8-1C11.9,76,12.1,76.4,12,77z"/>
<path class="st7" d="M17.6,84.3c0.3,0.3,0.6,0.6,0.8,1C17.9,85.2,17.6,84.9,17.6,84.3z"/>
<path class="st12" d="M103.9,61.8c0.1,0.3,0.2,0.7-0.2,1l-0.3-0.7L103.9,61.8z"/>
<path class="st7" d="M13,75.7c0.1,0.3,0.2,0.7,0.3,1C13,76.5,12.6,76.2,13,75.7z"/>
<path class="st13" d="M88.6,27.8l0.3-0.3c0.1,0.1,0.2,0.2,0.3,0.3c0.1,0.1,0.2,0.2,0.3,0.3c0.1,0.1,0.1,0.2,0,0.3c0,0,0,0,0,0h-0.3
	c0,0.1-0.1,0.1-0.2,0c0,0,0,0,0,0c-0.1-0.1-0.2-0.2-0.2-0.3C88.7,28,88.6,27.9,88.6,27.8z"/>
<path class="st7" d="M100,76.7l0.3-1C100.8,76.2,100.4,76.5,100,76.7z"/>
<path class="st7" d="M96.2,83.6c0.1-0.3,0.2-0.6,0.5-0.8c0.1,0.3-0.1,0.7-0.4,0.8C96.3,83.6,96.3,83.6,96.2,83.6z"/>
<path class="st7" d="M16.6,82.8c0.3,0.2,0.4,0.5,0.5,0.8c-0.3,0-0.6-0.3-0.5-0.6C16.6,82.9,16.6,82.8,16.6,82.8z"/>
<path class="st7" d="M17.1,83.6c0.3,0.2,0.5,0.5,0.5,0.8c-0.3,0-0.6-0.3-0.5-0.7C17.1,83.6,17.1,83.6,17.1,83.6z"/>
<path class="st7" d="M95.7,84.3c0.1-0.3,0.2-0.6,0.5-0.8c0.1,0.3-0.1,0.7-0.4,0.8C95.8,84.3,95.8,84.3,95.7,84.3z"/>
<path class="st14" d="M3.4,62.8c-0.3,0.1-0.2,0.4-0.3,0.6c-0.2-0.2-0.2-0.4-0.1-0.7C3.1,62.5,3.3,62.6,3.4,62.8z"/>
<path class="st7" d="M97.4,84.4c-0.1,0.3-0.2,0.6-0.5,0.8C96.8,84.8,97,84.5,97.4,84.4C97.4,84.4,97.4,84.4,97.4,84.4z"/>
<path class="st15" d="M110.3,63.3c-0.1-0.2,0-0.5-0.3-0.6c0.1-0.2,0.2-0.2,0.4-0.2C110.6,62.8,110.5,63.1,110.3,63.3z"/>
<path class="st16" d="M98.4,49.4v0.5c-0.2-0.2-0.3-0.4-0.1-0.6L98.4,49.4z"/>
<path class="st17" d="M25,27.5l-0.3-0.2l0.3-0.3c0.2-0.1,0.3,0,0.2,0.3L25,27.5z"/>
<path class="st18" d="M25.2,27.3L25,27.1c0.1-0.2,0.2-0.3,0.4-0.2S25.4,27.2,25.2,27.3z"/>
<path class="st9" d="M101.8,72.2c0-0.3,0-0.6,0.3-0.8C102.1,71.7,102.2,72,101.8,72.2z"/>
<path class="st19" d="M15.1,49.9c0-0.2,0-0.3,0-0.5l0.2-0.2C15.4,49.5,15.3,49.7,15.1,49.9z"/>
<path class="st13" d="M90.2,29.8c0.2,0,0.3,0.2,0.3,0.5C90.3,30.2,90.2,30,90.2,29.8z"/>
<path class="st7" d="M14.8,79.8c0.2,0.1,0.3,0.3,0.3,0.5C14.8,80.2,14.8,80,14.8,79.8z"/>
<path class="st7" d="M14,81.1c-0.2-0.1-0.3-0.3-0.3-0.5C14,80.7,14,80.9,14,81.1z"/>
<path class="st7" d="M18.4,85.3c0.1,0,0.1,0,0.2,0.1c0.2,0.1,0.2,0.2,0.1,0.4l-0.1,0.1C18.4,85.7,18.3,85.5,18.4,85.3z"/>
<path class="st7" d="M99.7,80.6c0,0.2-0.1,0.4-0.3,0.5C99.4,80.9,99.4,80.7,99.7,80.6z"/>
<path class="st0" d="M33.6,12.3v0.2l-0.2-0.2L33.6,12.3L33.6,12.3z"/>
<path class="st20" d="M92,24.2l-0.2,0.2C91.7,24.3,91.8,24.2,92,24.2z"/>
<path class="st20" d="M91.8,24.7l0.2,0.2L91.8,24.7z"/>
<path class="st20" d="M92.9,25l-0.2-0.2L92.9,25z"/>
<path class="st20" d="M92,24.9l0.2,0.3L92,24.9z"/>
<path class="st20" d="M92.2,25.2l0.2,0.3L92.2,25.2z"/>
<path class="st20" d="M93.4,25.5l-0.2-0.2L93.4,25.5z"/>
<path class="st20" d="M92.5,25.5l0.3,0.3L92.5,25.5z"/>
<path class="st20" d="M92.7,25.7l0.3,0.3L92.7,25.7z"/>
<path class="st10" d="M89.2,27.7l-0.3-0.3L89.2,27.7z"/>
<path class="st11" d="M24.2,27.8L24,28L24.2,27.8z"/>
<path class="st10" d="M89.5,28l-0.3-0.3L89.5,28z"/>
<path class="st11" d="M23.9,28l-0.3,0.2L23.9,28z"/>
<path class="st10" d="M88.8,28l0.2,0.3L88.8,28z"/>
<path class="st10" d="M89.5,28.3c0-0.1,0-0.2,0-0.3l0.3,0.3L89.5,28.3z"/>
<path class="st11" d="M23.7,28.3l-0.2,0.3L23.7,28.3z"/>
<path class="st13" d="M91.4,30l-0.2-0.2L91.4,30z"/>
<path class="st11" d="M24.2,28.5l0.2-0.3L24.2,28.5z"/>
<path class="st13" d="M89.9,28.5l-0.2-0.3L89.9,28.5z"/>
<path class="st10" d="M89,28.2h0.3v0.3L89,28.2z"/>
<path class="st11" d="M23.4,28.5l-0.2,0.3L23.4,28.5z"/>
<path class="st11" d="M24,28.8l0.2-0.3L24,28.8z"/>
<path class="st13" d="M89.2,28.5l0.2,0.3L89.2,28.5z"/>
<path class="st13" d="M90.2,28.8L90,28.5L90.2,28.8z"/>
<path class="st11" d="M23.2,28.8L22.9,29L23.2,28.8z"/>
<path class="st11" d="M23.7,29.1l0.2-0.3L23.7,29.1z"/>
<path class="st13" d="M89.4,28.8l0.2,0.3L89.4,28.8z"/>
<path class="st13" d="M90.4,29l-0.2-0.3L90.4,29z"/>
<path class="st11" d="M22.9,29l-0.2,0.3L22.9,29z"/>
<path class="st13" d="M90.7,29.3l-0.2-0.2L90.7,29.3z"/>
<path class="st7" d="M18.8,86.2c-0.1-0.1-0.2-0.2-0.3-0.3l0.1-0.1C18.8,85.8,18.9,86,18.8,86.2L18.8,86.2z"/>
<path class="st7" d="M94.8,85.9l-0.3,0.3v-0.1C94.6,86,94.7,85.8,94.8,85.9L94.8,85.9z"/>
<path class="st11" d="M23.4,29.5l0.2-0.3L23.4,29.5z"/>
<path class="st13" d="M89.8,29.3l0.2,0.3L89.8,29.3z"/>
<path class="st13" d="M90.9,29.5l-0.2-0.2L90.9,29.5z"/>
<path class="st11" d="M23.2,29.8l0.2-0.3L23.2,29.8z"/>
<path class="st13" d="M90,29.5l0.2,0.3L90,29.5z"/>
<path class="st13" d="M91.2,29.8L91,29.6L91.2,29.8z"/>
<path class="st13" d="M90.5,30.3l0.2,0.3L90.5,30.3z"/>
<path class="st2" d="M57.8,65.4v17.4c6.8,0.6,17.7-6.1,20.6-12.8H66l-2,3.9l-2.2-1.1l2.7-5.3h18.3c-2.6,8.3-12.3,18.1-26.3,18.2
	s-23.8-9.8-26.4-18.1c1-0.2,17-0.2,18.3,0c0.8,1.7,1.7,3.4,2.6,5.2c-0.7,0.5-1.4,0.9-2.2,1.3l-2.1-4H34.5C36,75.8,48.1,83.3,55,82.8
	c0.2-1,0.2-15.8,0-17.2c-0.4-0.3-0.9-0.2-1.3-0.2H34.3c-4.1,0-5.8-1.5-6.2-5.6c-0.2-2.2-0.2-4.5,0.2-6.7c0.4-2.5,2.4-4,5.3-4h14.3
	H55V31.6c-6.8-0.6-17.7,6.1-20.6,12.7h12.4l2-3.9l2.3,1.1L48.4,47H30.1c2.5-8.1,12.1-18.1,26.3-18.2s23.8,10,26.4,18.1
	c-1.1,0.2-17,0.2-18.3,0l-2.7-5.3l2.3-1.2l2.1,4h12.3C76.8,38.6,64.7,31,57.8,31.6v17.2c0.4,0.3,0.9,0.2,1.3,0.2h19.4
	c4.2,0,5.8,1.5,6.3,5.7c0.2,2.2,0.1,4.4-0.2,6.6c-0.4,2.5-2.4,4-5.3,4c-6.7,0-13.3,0-19.9,0L57.8,65.4z"/>
<path class="st21" d="M18.9,86.1l-0.2-0.3c0-0.1-0.1-0.3-0.1-0.4h0.5C19.2,85.6,19.2,85.9,18.9,86.1z"/>
<path class="st22" d="M94.7,85.8l-0.2,0.3c-0.3-0.2-0.3-0.4-0.2-0.7h0.5L94.7,85.8z"/>
<path class="st0" d="M51.4,13.5h-0.5l-0.1-0.5c-0.1-0.2-0.1-0.4,0-0.5c0.2-0.2,0.5,0,0.8-0.2s0.6,0,0.5,0.4c0.1,0.2,0.1,0.4,0,0.6
	l-0.1,0.1H52C51.8,13.4,51.5,13.3,51.4,13.5z"/>
<path class="st1" d="M57.8,62.6V52c0.4-0.2,0.9-0.3,1.3-0.2h19.9c2.2,0,2.7,0.4,3,2.6c0.3,2.1,0.3,4.1-0.1,6.2c-0.3,1.4-0.8,2-2.2,2
	c-0.3,0-0.5,0-0.8,0L57.8,62.6L57.8,62.6z"/>
<path class="st1" d="M55,51.8v10.6c-0.4,0.2-0.9,0.3-1.3,0.2H33.8c-2.2,0-2.6-0.4-3-2.6c-0.3-2.1-0.3-4.1,0.1-6.2
	c0.3-1.4,0.8-2,2.2-2h0.8L55,51.8L55,51.8z"/>
<g>
	<text transform="matrix(0.7894 -0.5462 0.569 0.8223 30.4638 22.8337)" class="st2 st23 st24">T</text>
	<text transform="matrix(0.8549 -0.4367 0.4549 0.8905 34.5339 19.8537)" class="st2 st23 st24">A</text>
	<text transform="matrix(0.8973 -0.329 0.3489 0.9371 41.2345 16.5734)" class="st2 st23 st25">I</text>
	<text transform="matrix(0.9522 -0.1218 0.1269 0.9919 48.724 14.2138)" class="st2 st23 st24">S</text>
	<text transform="matrix(0.9594 3.333607e-02 -3.472507e-02 0.9994 54.5542 13.3541)" class="st2 st23 st24">H</text>
	<text transform="matrix(0.9413 0.1886 -0.1965 0.9805 62.4337 13.6838)" class="st2 st23 st24">E</text>
	<text transform="matrix(0.8873 0.339 -0.3489 0.9371 68.2038 14.7232)" class="st2 st23 st25">N</text>
	<text transform="matrix(0.8159 0.4975 -0.5174 0.8557 75.6143 17.5042)" class="st2 st23 st26">G</text>
	<path class="st2" d="M65.9,104.6l-9.2,5.7l-9.2-5.7v-4.7l9.2,5.7l9.2-5.7V104.6z"/>
	<path class="st2" d="M65.9,98l-9.2,5.7L47.5,98v-4.7l9.2,5.7l9.2-5.7V98z"/>
</g>
</svg>
