<svg viewBox="0 0 566.93 566.93" xmlns="http://www.w3.org/2000/svg"><circle cx="283.46" cy="283.46" fill="#010101" r="269.29"/><circle cx="283.46" cy="283.46" fill="#954b97" r="260.01"/><g fill="#010101"><path d="m283.45 510.27c-137.85-1.42-222.45-163.84-201.29-266.17a153.47 153.47 0 0 1 22.49-53.29 352.61 352.61 0 0 0 4 41.22c15.89 101.69 87.35 249.97 174.8 251.02"/><path d="m283.45 510.27c137.84-1.42 222.48-163.84 201.32-266.17a153.47 153.47 0 0 0 -22.49-53.29 352.61 352.61 0 0 1 -4 41.22c-15.92 101.69-87.38 249.92-174.86 251"/><path d="m260.72 393.4-22.55-104.4s-59.81-59.87-67.89-86c-10-32.23 9.28-134.62 9.28-134.62l-.8-8.55s-69.44 110.41-63.85 151c7.98 57.84 145.81 182.57 145.81 182.57z"/><path d="m306.77 393.4 22.56-104.4s59.8-59.87 67.89-86c9.95-32.23-9.29-134.62-9.29-134.62l.8-8.55s69.44 110.41 63.85 151c-7.97 57.84-145.81 182.57-145.81 182.57z"/><path d="m285.23 297.53c-57.23.47-67.5-251.53-103.7-240.53l102.55 380.16 100.57-378.52c-31.84-10.93-42.6 238.48-99.42 238.89zm-1.77 78.39c-6.12 0-11.07-14.58-11.07-32.57s4.95-32.57 11.07-32.57 11.06 14.58 11.06 32.57-4.95 32.57-11.06 32.57z"/></g></svg>