<svg enable-background="new 0 0 113.4 113.4" viewBox="0 0 113.4 113.4" xmlns="http://www.w3.org/2000/svg"><path d="m56.7 0c-31.3 0-56.7 25.4-56.7 56.6 0 31.4 25.3 56.8 56.6 56.8s56.7-25.4 56.7-56.7c.1-31.3-25.3-56.7-56.6-56.7z" fill="#fefefe"/><path d="m56.7 0c31.3 0 56.7 25.4 56.7 56.7s-25.4 56.7-56.7 56.7-56.7-25.4-56.6-56.8c-.1-31.3 25.3-56.6 56.6-56.6zm-56 56.8c0 30.9 24.9 55.8 55.8 55.9 31 0 55.9-24.9 55.9-55.9 0-30.9-24.9-55.8-55.8-55.9-31 0-55.9 24.9-55.9 55.9z" fill="#e21b15"/><path d="m .7 56.8c0-31 25-55.9 55.9-55.9s55.8 24.9 55.8 55.9-25 55.9-55.9 55.9c-30.9-.1-55.8-25-55.8-55.9zm55.9 52.6c28.8.2 52.8-23.7 52.7-52.7-.1-29.1-23.5-52.6-52.7-52.6-29.1 0-52.6 23.5-52.7 52.7-.1 29 23.8 52.9 52.7 52.6z" fill="#fdd600"/><path d="m56.6 109.4c-28.9.3-52.8-23.6-52.7-52.6.1-29.1 23.5-52.7 52.7-52.7 29.1 0 52.6 23.5 52.7 52.6 0 29.1-23.9 52.9-52.7 52.7zm-11.9-101.1c.8-.2 1.5-.4 2.3-.7.1-.4.1-.8-.3-1.1-2.1.6-4.3 1.2-6.4 1.7 0 .5.1.9.5 1.1l2.4-.6c.7 2.6 1.4 5.2 2.1 7.8.5-.2 1-.1 1.2-.5-.6-2.4-1.2-4.7-1.7-7-.1-.2-.1-.5-.1-.7zm41.3 76.1c14.6-15.3 15-40.9-1.5-56.8-16.7-16-43-14.8-58.5 2.8-14.6 16.7-11.9 40.8 1.2 53.9 19.6.1 39.1.1 58.8.1zm-23.4 12.1h5.7v1.9c.5.1.9.3 1.3-.1 0-.9 0-1.9 0-2.8-.2-.4-.7-.2-.9-.6 0-2.5 0-5 0-7.5-1.9 0-3.7 0-5.6 0 .1 1.6 0 3.2-.2 4.8-.2 1.2-.1 2.7-1.5 3.2v3c .4.1.8.2 1.2-.2 0-.5 0-1.1 0-1.7zm-56.8-32.5c3.2-.2 6.2-.4 9.1-.7.1-.6.1-1-.1-1.5-2.2-1.2-4.5-2.4-7.1-3.7 2.5-.2 4.7-.4 6.9-.5 0-.5.1-.9-.3-1.2-2.9.2-5.9.4-8.9.7-.1.5-.1.9.2 1.4 2.3 1.2 4.6 2.4 7.2 3.8-2.6.2-4.8.3-7 .5zm62.5-47c1.9-1.5 3.8-3.1 5.7-4.6.1.1.2.2.3.2-.6 1.9-1.3 3.8-1.9 5.7.4.3.7.5 1.2.4 1-2.8 2-5.7 2.9-8.6-.5-.2-.8-.5-1.3-.4-1.9 1.5-3.8 3.1-5.7 4.6-.1-.1-.2-.2-.3-.3.7-1.9 1.3-3.9 1.9-5.8-.4-.3-.8-.5-1.2-.4-1 2.9-1.9 5.7-2.9 8.6.5.3.9.5 1.3.6zm-27.3.8c-1.4-2.7-2.8-5.4-4.1-8.1-.5.2-.9.3-1.2.7-.2 2.6-.5 5.2-.7 8.2-1.2-2.4-2.2-4.4-3.2-6.4-.5.2-.8.3-1.1.6 1.4 2.7 2.7 5.4 4.1 8.2.5-.3.8-.5 1.2-.7.2-2.7.5-5.3.7-8.1 1.1 2.2 2.1 4.1 3.1 6.1.5 0 .8-.2 1.2-.5zm57.1 39.8c-.4 1.5-.6 2.9-.2 4.4.5 1.8 2.7 2.3 4.1 1.1.2-.2.3-.5.6-.5 1.4 1.7 3.2 1.6 4-.1.6-1.3.6-2.7.4-4.1-3-.3-5.9-.5-8.9-.8zm4.1-2.5c2.9 0 4.9-1.6 4.9-4 .1-2.6-1.6-4.3-4.4-4.5s-5.1 1.6-5.2 4c0 2.7 1.8 4.5 4.7 4.5zm-57 39c0-2.5 0-4.6 0-6.6-.5-.2-.8-.2-1.2-.1v8.9h1.3c1.5-2.2 2.9-4.3 4.3-6.4.1 0 .2.1.3.1v6.4c.4-.1.8.2 1.1-.2 0-2.9 0-5.8 0-8.7-.5-.2-.9-.2-1.4 0-1.4 2.1-2.8 4.2-4.4 6.6zm12.2-79c1.8 0 2.7-.6 3.1-2.5.4-1.7.6-3.4 1-5.2.9.1 1.7.2 2.7.4-.4 2.7-.7 5.3-1.1 8 .5.2.9.3 1.4 0 .4-3 .8-5.9 1.2-9-1.9-.3-3.7-.5-5.5-.7-.2 1.7-.4 3.2-.7 4.7-.3 1.4-.4 2.9-2.2 3.3.1.4.1.7.1 1zm36.6 22.7c2.7-1.6 5.3-3.2 7.9-4.8-.3-.4-.5-.8-.7-1.1-1.1.7-2.2 1.3-3.3 1.9-.8-1.3-1.4-2.4-2.2-3.6 1.1-.7 2.1-1.3 3.1-1.9-.1-.5-.3-.9-.8-1.1-2.6 1.5-5.1 3.1-7.8 4.7.4.4.4.9.8 1 1.2-.7 2.3-1.4 3.5-2.1.8 1.3 1.4 2.4 2.2 3.6-1.3.8-2.4 1.5-3.6 2.2.5.5.7.8.9 1.2zm-67.4-22.3c-1.3 1-2.6 2.1-4 3.2 1.9 2.4 3.8 4.8 5.7 7.2 1.3-.7 2.3-1.5 3-2.6.7-1.2.6-2.4-.2-3.4s-1.9-1.2-3.3-.7c-.8.3-1.4.9-2.1 1.4-.5-.6-.9-1.1-1.4-1.7 1-.8 2-1.6 3-2.4-.1-.6-.3-.9-.7-1zm8.7 80.8c.4.2.8.2 1.3 0 0-1.1 0-2.2 0-3.3 1.2-.3 2.4.1 3.5-.3 1.3-.4 2-1.4 1.9-2.8-.1-1.3-.9-2.3-2.2-2.4-1.5-.1-3 0-4.6 0 .1 2.9.1 5.9.1 8.8zm64.1-56.1c.9 2.8-1.7 3.3-2.9 4.8.1.4.3.8.5 1.3 1.5-1.6 3.8-2.2 3.8-4.9 1.7.6 3.2 1.2 5 1.9-.2-.7-.4-1.1-.5-1.5-1.6-.6-3.2-1.2-5-1.9 1.5-.5 2.7-.9 3.9-1.3 0-.5 0-.9-.5-1.2-2.8.9-5.7 1.9-8.6 2.8.2.5.2.9.5 1.2 1.2-.4 2.5-.8 3.8-1.2zm-22.5 50.8c-1.6 0-3 0-4.5 0 0-1.2 0-2.4 0-3.6-.5 0-.9-.1-1.2.1v8.9c.4 0 .8.1 1.3-.2 0-1.3 0-2.6 0-3.9h4.4v4.1c.5 0 .9.1 1.2-.1 0-3 0-5.9 0-8.9-.4.1-.8-.1-1.2.2zm-26.2-75.8c1.8 0 3.5-.2 5.3-.3 0-.4.1-.8-.2-1.1-1.2.1-2.5.1-3.8.2-.1-1.1-.1-2-.2-3 1.2-.1 2.3-.2 3.4-.4 0-.4.1-.8-.2-1.1-1.1 0-2.2.3-3.3.1-.1-.8-.1-1.6-.2-2.4 1.2-.5 2.5-.1 3.6-.5.1-.4.2-.7-.2-1.1-1.6.1-3.2.2-4.9.4.3 3.1.5 6.1.7 9.2zm-22.7 78.5h3.6c.4.9.7 1.8 1.1 2.7.5 0 .9.2 1.4-.2-1.2-2.9-2.4-5.9-3.5-8.8-.6 0-1-.1-1.5.1-1.1 2.9-2.2 5.8-3.3 8.8.5.2.9.2 1.4 0 .1-.9.4-1.8.8-2.6zm32.6 2.7c-1.2-3.1-2.4-6-3.6-9-.6 0-1-.1-1.5.1-1.1 2.9-2.2 5.8-3.3 8.8.6.1 1 .1 1.4 0 .3-.9.6-1.7 1-2.6h3.6c.4.9.7 1.8 1.1 2.7zm21.2-2.7h3.6c.4.9.7 1.8 1.1 2.7.5 0 .9.1 1.3-.2-1.2-2.9-2.4-5.9-3.5-8.8-.5-.1-1-.1-1.5 0-1.1 2.9-2.2 5.8-3.3 8.8.5.2 1 .2 1.4 0 .3-.8.6-1.6.9-2.5zm7.9-67.1c-.4 1-.9 1.9-1.3 2.7.3.4.5.7 1 .8 1.4-2.9 2.8-5.7 4.2-8.6-.4-.4-.6-.8-1.2-1-2.8 1.4-5.6 2.8-8.5 4.2.3.4.5.7 1 .9.9-.4 1.7-.9 2.5-1.2.8.8 1.5 1.5 2.3 2.2zm-73.2-1.3c2.4 2.1 4.7 4 7 6.1 1.2-1.4 2.3-2.6 3.4-3.9-.3-.4-.5-.6-.9-.7-.8.9-1.6 1.8-2.5 2.8-.8-.7-1.6-1.4-2.4-2 .8-.9 1.5-1.8 2.2-2.6-.2-.3-.4-.6-.8-.7-.7.8-1.5 1.7-2.3 2.6-.7-.6-1.4-1.2-2-1.8.8-.9 1.6-1.8 2.3-2.7-.1-.4-.4-.6-.8-.8-1 1.1-2.1 2.4-3.2 3.7zm-5.1 8.1c2.6 1.6 5.2 3.1 7.7 4.6.4-.4.6-.7.6-1.2-.9-.6-1.9-1.1-2.8-1.7.3-.7.7-1.3.9-2 .5-1.5-.1-2.7-1.4-3.5-1.2-.7-2.5-.3-3.5.9-.7.9-1.1 1.8-1.5 2.9zm2.9 14c .2 1.8.1 3.4-1.7 4.4-1.2.7-3.4.4-4.5-.6-1.5-1.5-1.1-3.1-.4-4.8-.3-.3-.6-.5-.9-.5-1.3 2.2-1.1 4.7.4 6.2 1.5 1.6 4.4 1.9 6.2.8 1.7-1.1 2.5-3.5 1.8-5.7-.3 0-.6 0-.9.2zm-4.4-8.2c.3-.9.6-1.7.9-2.5-.3-.4-.6-.5-1.1-.4-.8 2.1-1.5 4.2-2.3 6.2.4.3.7.5 1.1.3.3-.7.6-1.5.9-2.4 2.6.9 5 1.8 7.5 2.7.3-.4.5-.8.4-1.3-2.4-.7-4.8-1.6-7.4-2.6zm73.1-24.7c.7.5 1.4 1.1 2.1 1.6-1.6 2.2-3 4.4-4.5 6.5.3.4.6.6 1.1.8 1.5-2.1 3-4.3 4.6-6.5.8.5 1.5 1 2.2 1.5.3-.3.6-.5.6-1-1.8-1.3-3.6-2.5-5.5-3.8-.3.2-.5.5-.6.9z" fill="#df0609"/><path d="m86 84.4c-19.6 0-39.2 0-58.8 0-13.1-13.2-15.8-37.2-1.2-53.9 15.4-17.7 41.8-18.9 58.5-2.9 16.5 15.9 16.1 41.5 1.5 56.8zm-1-1.8c13.3-15 14.1-37.6-1.4-53-15.7-15.7-39.4-15.2-54.6.3-15.6 16-13.9 38.4-1 52.7z" fill="#fcd300"/><path d="m62.6 96.5v1.8c-.5.3-.8.2-1.2.2 0-1 0-1.9 0-3 1.5-.5 1.3-2 1.5-3.2.3-1.6.3-3.1.2-4.8h5.6v7.5c.1.4.7.2.9.6v2.8c-.4.4-.8.2-1.3.1 0-.7 0-1.3 0-1.9-2-.1-3.8-.1-5.7-.1zm1.9-7.9c-.2 2.2-.3 4.4-1 6.5h3.8c0-2.2 0-4.3 0-6.5-1 0-1.9 0-2.8 0z" fill="#fceff0"/><path d="m5.8 64c0-.5 0-.8 0-1.3 2.2-.2 4.4-.3 7-.5-2.6-1.4-4.9-2.6-7.2-3.8-.2-.5-.2-.9-.2-1.4 3-.2 6-.4 8.9-.7.4.4.3.7.3 1.2-2.2.2-4.4.3-6.9.5 2.5 1.3 4.8 2.5 7.1 3.7.2.5.2.9.1 1.5-3 .4-6 .6-9.1.8z" fill="#fceeef"/><path d="m68.3 17c-.4-.1-.8-.3-1.3-.4 1-2.9 2-5.8 2.9-8.6.5-.1.8 0 1.2.4-.6 1.9-1.3 3.9-1.9 5.8.1.1.2.2.3.3 1.9-1.5 3.9-3.1 5.7-4.6.5-.1.9.1 1.3.4-1 2.9-2 5.7-2.9 8.6-.5.1-.8-.1-1.2-.4.6-1.9 1.3-3.8 1.9-5.7-.1-.1-.2-.2-.3-.2-1.8 1.3-3.7 2.8-5.7 4.4zm.9-2.7c.1.1.2.1.2 0-.1-.1-.2-.1-.2 0zm5.1-1.8c.1-.1.1-.2 0-.2s-.1.1 0 .2z" fill="#fcf2f2"/><path d="m41 17.8c-.4.3-.7.5-1.1.6-1-2-2-3.9-3.1-6.1-.3 2.8-.5 5.5-.7 8.1-.4.2-.8.4-1.2.7-1.4-2.8-2.8-5.5-4.1-8.2.3-.4.6-.5 1.1-.6 1 2 2 4 3.2 6.3.3-3 .5-5.6.7-8.2.3-.4.7-.5 1.2-.7 1.2 2.6 2.6 5.3 4 8.1z" fill="#fcedee"/><path d="m98.1 57.6c3 .3 5.9.5 9 .8.1 1.4.2 2.8-.4 4.1-.8 1.7-2.6 1.7-4 .1-.4 0-.4.3-.6.5-1.4 1.2-3.6.7-4.1-1.1-.5-1.5-.3-2.9.1-4.4zm.8 1.4c-.1 1.2-.4 2.2.6 3 .5.4 1.2.4 1.7 0 .9-.7 1-1.6.8-2.8-.9 0-1.9-.1-3.1-.2zm4.5.4c-.2 1-.4 2 .5 2.7.5.4 1 .4 1.5.1.8-.7.8-1.5.7-2.5-1-.1-1.8-.2-2.7-.3z" fill="#fcf0f0"/><path d="m102.2 55.1c-2.9 0-4.7-1.8-4.6-4.5.1-2.4 2.4-4.2 5.2-4s4.5 1.9 4.4 4.5c-.2 2.4-2.1 4-5 4zm .2-1.4c.9 0 2-.3 2.8-1.2.8-.8 1-2.2.4-3.1-.8-1.3-2.2-1.5-3.5-1.4-1.4.2-2.8.6-3.3 2.2-.6 1.9 1 3.5 3.6 3.5z" fill="#fcf0f0"/><path d="m45.2 94.1c1.6-2.4 3.1-4.6 4.5-6.7.5-.1.9-.2 1.4 0v8.7c-.3.4-.7.2-1.1.2 0-2.2 0-4.3 0-6.4-.1 0-.2-.1-.3-.1-1.4 2.1-2.9 4.3-4.3 6.4-.4 0-.8 0-1.3 0 0-3 0-5.9 0-8.9.4-.1.7-.1 1.2.1-.1 2.2-.1 4.3-.1 6.7z" fill="#fcedee"/><path d="m57.4 15.1c0-.4 0-.7 0-1 1.8-.4 1.9-1.9 2.2-3.3.3-1.5.5-3 .7-4.7 1.8.2 3.5.5 5.5.7-.4 3.1-.8 6-1.2 9-.5.3-.8.1-1.4 0 .4-2.6.7-5.3 1.1-8-1-.1-1.8-.3-2.7-.4-.3 1.8-.5 3.5-1 5.2-.5 1.9-1.4 2.5-3.2 2.5z" fill="#fceff0"/><path d="m94 37.8c-.3-.4-.4-.7-.7-1.1 1.2-.7 2.3-1.4 3.6-2.2-.7-1.2-1.4-2.3-2.2-3.6-1.2.7-2.4 1.4-3.5 2.1-.5-.2-.5-.6-.8-1 2.7-1.6 5.2-3.2 7.8-4.7.5.2.6.6.8 1.1-1 .6-2 1.2-3.1 1.9.7 1.2 1.4 2.3 2.2 3.6 1.1-.6 2.1-1.3 3.3-1.9.2.4.4.7.7 1.1-2.8 1.5-5.4 3.1-8.1 4.7z" fill="#fcf0f0"/><path d="m26.6 15.5c.4.1.6.4.7.8-1 .8-1.9 1.6-3 2.4.5.6.9 1.2 1.4 1.7.7-.5 1.3-1.1 2.1-1.4 1.3-.5 2.4-.3 3.3.7s1 2.2.2 3.4c-.7 1.2-1.8 1.9-3 2.6-1.9-2.4-3.8-4.8-5.7-7.2 1.4-.9 2.7-2 4-3zm2.2 8.8c1.1-.7 1.9-1.4 1.8-2.6-.1-.7-.5-1.3-1.2-1.5-1.2-.3-2 .3-2.9 1.2.7.9 1.5 1.9 2.3 2.9z" fill="#fcf1f1"/><path d="m35.3 96.3c0-2.9 0-5.8 0-8.9 1.6 0 3.1-.1 4.6 0 1.3.1 2.1 1.1 2.2 2.4.1 1.4-.7 2.4-1.9 2.8-1.1.3-2.3 0-3.5.3v3.3c-.6.3-1 .3-1.4.1zm1.3-4.7c1 .1 2 .2 3-.1.8-.2 1.2-.8 1.1-1.6s-.5-1.3-1.3-1.3c-.9 0-1.8 0-2.7 0-.1 1.1-.1 2-.1 3z" fill="#fcedee"/><path d="m99.4 40.2c-1.3.4-2.6.8-3.8 1.2-.3-.3-.4-.7-.5-1.2 2.9-.9 5.8-1.9 8.6-2.8.5.3.5.7.5 1.2-1.2.4-2.4.8-3.9 1.3 1.8.7 3.4 1.3 5 1.9.1.4.3.8.5 1.5-1.7-.7-3.3-1.3-5-1.9 0 2.6-2.3 3.2-3.8 4.9-.2-.5-.4-.9-.5-1.3 1.2-1.6 3.9-2 2.9-4.8z" fill="#fcf0f1"/><path d="m76.9 91c0-1.2 0-2.4 0-3.5.4-.3.8-.1 1.2-.2v8.9c-.3.3-.7.1-1.2.1 0-1.4 0-2.7 0-4.1-1.5 0-2.9 0-4.4 0v3.9c-.5.3-.9.2-1.3.2 0-3 0-5.9 0-8.9.4-.2.7-.1 1.2-.1v3.6c1.5.1 2.9.1 4.5.1z" fill="#fdf9f9"/><path d="m50.7 15.2c-.2-3.1-.4-6.1-.6-9.2 1.7-.1 3.3-.3 4.9-.4.4.4.3.7.2 1.1-1.2.4-2.4 0-3.6.5.1.8.1 1.6.2 2.4 1.1.2 2.2-.1 3.3-.1.3.3.2.6.2 1.1-1.1.1-2.3.2-3.4.4.1 1 .1 1.9.2 3 1.3-.1 2.5-.1 3.8-.2.3.3.1.7.2 1.1-1.9.2-3.6.4-5.4.3z" fill="#fcedee"/><path d="m28 93.7c-.3.9-.6 1.8-1 2.6-.5.2-.9.2-1.4 0 1.1-3 2.2-5.9 3.3-8.8.5-.2.9-.1 1.5-.1 1.2 2.9 2.4 5.9 3.5 8.8-.4.3-.8.2-1.4.2-.3-.9-.7-1.8-1.1-2.7-1.1 0-2.2 0-3.4 0zm3-1.2c-.3-1.2-.8-2.4-1.3-3.7-.5 1.4-.9 2.5-1.3 3.7z" fill="#fdf4f4"/><path d="m60.6 96.4c-.6 0-.9 0-1.4 0-.3-.9-.7-1.8-1.1-2.7-1.2 0-2.4 0-3.6 0-.3.9-.7 1.8-1 2.6-.5.2-.9.1-1.4 0 1.1-3 2.2-5.9 3.3-8.8.5-.2.9-.1 1.5-.1 1.3 2.9 2.5 5.9 3.7 9zm-4.3-7.7c-.4 1.5-1 2.6-1.2 3.9h2.7c-.5-1.3-.9-2.5-1.5-3.9z" fill="#fdf4f4"/><path d="m81.8 93.7c-.3.9-.6 1.7-.9 2.6-.4.2-.9.2-1.4 0 1.1-2.9 2.2-5.9 3.3-8.8.5-.2 1-.1 1.5 0 1.2 2.9 2.3 5.9 3.5 8.8-.5.3-.9.1-1.3.2-.4-.9-.7-1.8-1.1-2.7-1.2-.1-2.3-.1-3.6-.1zm.4-1.2h2.8c-.5-1.3-.9-2.4-1.4-3.8-.5 1.4-.9 2.6-1.4 3.8z" fill="#fdf3f3"/><path d="m89.7 26.6c-.7-.7-1.5-1.4-2.3-2.2-.8.4-1.7.8-2.5 1.2-.4-.2-.7-.5-1-.9 2.9-1.4 5.7-2.8 8.5-4.2.5.2.8.6 1.2 1-1.4 2.8-2.8 5.7-4.2 8.6-.5-.1-.6-.5-1-.8.4-.8.8-1.7 1.3-2.7zm2.4-4.6c-1.4.7-2.5 1.3-3.6 1.8.6.7 1.1 1.3 1.8 1.7.5-1 1.1-2.1 1.8-3.5z" fill="#fcf0f0"/><path d="m16.5 25.3c1.2-1.3 2.2-2.5 3.3-3.7.4.2.7.3.8.8-.7.9-1.5 1.8-2.3 2.7.7.6 1.3 1.1 2 1.8.8-.9 1.5-1.7 2.3-2.6.4.1.6.4.8.7-.7.9-1.4 1.7-2.2 2.6.8.7 1.5 1.3 2.4 2 .9-1 1.7-1.9 2.5-2.8.4 0 .6.3.9.7-1.1 1.3-2.2 2.5-3.4 3.9-2.5-2.1-4.8-4.1-7.1-6.1z" fill="#fcf2f2"/><path d="m11.4 33.4c.4-1.1.8-2 1.5-2.8 1-1.2 2.3-1.6 3.5-.9 1.3.7 1.9 2 1.4 3.5-.2.7-.6 1.3-.9 2 .9.6 1.9 1.1 2.8 1.7 0 .5-.2.8-.6 1.2-2.5-1.6-5.1-3.2-7.7-4.7zm1.5-.7c1 .6 2 1.2 2.9 1.7.7-.9 1.2-1.7.8-2.8-.3-.7-.9-1-1.6-1-1.2.1-1.6 1.1-2.1 2.1z" fill="#fcf1f1"/><path d="m14.3 47.4c.3-.2.6-.3 1-.2.7 2.2-.1 4.7-1.8 5.7-1.8 1.1-4.7.7-6.2-.8-1.5-1.6-1.7-4.1-.4-6.2.4 0 .7.2.9.5-.7 1.7-1.1 3.4.4 4.8 1.1 1 3.2 1.3 4.5.6 1.7-.9 1.8-2.6 1.6-4.4z" fill="#fceff0"/><path d="m44.7 9c .6 2.3 1.1 4.7 1.7 7-.2.4-.7.3-1.2.5-.7-2.6-1.4-5.2-2.1-7.8-.9.2-1.7.4-2.4.6-.4-.2-.4-.5-.5-1.1 2.1-.6 4.3-1.2 6.4-1.7.4.3.4.7.3 1.1-.7.2-1.5.4-2.3.7-.3.2-.1.5.1.7z" fill="#fcf1f1"/><path d="m9.9 39.2c2.5.9 5 1.8 7.5 2.8.1.5-.2.8-.4 1.3-2.5-.9-4.9-1.8-7.5-2.7-.3.9-.6 1.6-.9 2.4-.4.2-.7 0-1.1-.3.7-2.1 1.5-4.1 2.3-6.2.4-.1.8 0 1.1.4-.4.6-.6 1.4-1 2.3z" fill="#fcf1f1"/><path d="m83 14.5c.1-.4.3-.6.6-.9 1.8 1.3 3.6 2.5 5.5 3.8 0 .5-.3.7-.6 1-.7-.5-1.4-.9-2.2-1.5-1.6 2.2-3.1 4.4-4.6 6.5-.5-.1-.8-.4-1.1-.8 1.5-2.1 3-4.3 4.5-6.5-.7-.6-1.4-1.1-2.1-1.6z" fill="#fcf0f0"/><path d="m44.7 9c-.2-.3-.4-.5 0-.7z" fill="#e0070a"/><path d="m85 82.6c-19 0-38 0-57 0-12.9-14.3-14.5-36.7 1-52.7 15.2-15.5 38.9-16 54.6-.3 15.6 15.4 14.7 38 1.4 53zm-26.3-30.7c.3.1.6-.1 1-.2 8-2.4 16.1-4.9 24.1-7.3.3-.1.5-.2.9-.4-6.9 0-13.6 0-20.2 0-1.1 1.5-2.2 2.9-3.3 4.3-.9 1.2-2 2.2-2.5 3.6-.1.1-.1.1 0 0-.1.1-.1 0 0 0zm-4 0s0 .1 0 0c0 .1 0 .1 0 0s0-.2-.1-.3c-1.9-2.5-3.9-5.1-5.8-7.6-6.8 0-13.4 0-20.4 0 .6.2.8.3 1.1.4 6.1 1.8 12.2 3.7 18.2 5.5 2.3.7 4.6 1.6 7 2zm4 2.8c-.1-.1-.1-.1 0 0-.1.5.3.7.6 1 4.5 5.9 9 11.8 13.5 17.7.6.7 1 1.5 2 2.3-2.1-6.2-4-12.2-6-18.1-.7-.2-1.4-.5-2-.6-2.8-.7-5.4-1.8-8.1-2.3zm-18.5 20.9c.5.1.8-.3 1.1-.5 3.8-2.4 7.5-4.9 11.3-7.3 1.2-.8 2.4-1.6 3.5-2.3 0-3.6 0-7 0-10.8-1.6 2.1-3 4-4.5 5.8-3.8 5.1-7.6 10.1-11.4 15.1 0 .1-.1.1 0 0-.1.1 0 .1 0 0zm33 0c0 .1 0 .1 0 0-4.1-5.4-8.2-10.8-12.3-16.2-1.1-1.5-2.3-3-3.6-4.7v10.8c5.1 3.3 10.2 6.6 15.4 10 .1.1.2.2.5.1zm-18.5-20.9c-2 .3-3.9 1.1-5.9 1.7-1.7.5-3.5 1.1-5.2 1.6-1.7 6-3.4 11.8-5.1 17.7.5-.1.6-.4.8-.6 4.1-5.4 8.3-10.8 12.4-16.3 1-1.4 2.3-2.6 3-4.1 0-.1 0-.1 0 0zm9.5-11.9c-2.3-5.8-4.5-11.6-6.9-17.6v26.6c2.4-3.1 4.6-6.1 6.9-9zm-8.1-17.3c-.1 0-.1 0-.2 0-2.2 5.8-4.5 11.6-6.7 17.4 2.3 3 4.5 5.9 6.9 9 0-9.1 0-17.7 0-26.4zm-25.2 20.4c0 .1-.1.2-.1.3 4.4 3.6 8.8 7.1 13.2 10.6 3.8-1.2 7.4-2.3 11.4-3.5-8.4-2.6-16.5-5-24.5-7.4zm51.5.3c0-.1-.1-.2-.1-.2-8 2.4-16 4.9-24.3 7.4 3.9 1.2 7.3 2.2 10.8 3.3 4.6-3.7 9.1-7.1 13.6-10.5z" fill="#df0508"/><path d="m64.5 88.6h2.8v6.5c-1.2 0-2.5 0-3.8 0 .7-2.1.8-4.3 1-6.5z" fill="#e11014"/><path d="m69.2 14.3c.1-.1.2-.1.2 0-.1.1-.2.1-.2 0z" fill="#e0070a"/><path d="m74.3 12.5c-.1-.1-.1-.2 0-.2s.1.1 0 .2z" fill="#df0609"/><path d="m98.9 59c1.2.1 2.1.2 3.2.2.2 1.1.1 2.1-.8 2.8-.5.4-1.2.4-1.7 0-1-.7-.7-1.8-.7-3z" fill="#e0090d"/><path d="m103.4 59.4c.9.1 1.7.2 2.7.3.1 1 .1 1.9-.7 2.5-.5.4-1 .3-1.5-.1-.9-.7-.7-1.7-.5-2.7z" fill="#e11216"/><path d="m102.4 53.7c-2.7 0-4.2-1.6-3.6-3.4.5-1.6 1.8-2.1 3.3-2.2 1.4-.2 2.7.1 3.5 1.4.6.9.5 2.3-.4 3.1-.8.7-1.9 1-2.8 1.1z" fill="#e0070c"/><path d="m28.8 24.3c-.8-1-1.5-2-2.3-2.9.8-.9 1.7-1.5 2.9-1.2.7.2 1.1.7 1.2 1.5.1 1.2-.8 1.9-1.8 2.6z" fill="#e00e12"/><path d="m36.6 91.6c0-1 0-1.9 0-3h2.7c.8 0 1.3.5 1.3 1.3.1.8-.3 1.4-1.1 1.6-.9.2-1.8.1-2.9.1z" fill="#e00e12"/><path d="m31 92.5c-1 0-1.8 0-2.7 0 .4-1.2.8-2.3 1.3-3.7.7 1.4 1.2 2.5 1.4 3.7z" fill="#e1161b"/><path d="m56.3 88.7c.5 1.4 1 2.6 1.4 3.9-1 0-1.8 0-2.7 0 .3-1.4.9-2.4 1.3-3.9z" fill="#e1161b"/><path d="m82.2 92.5c.4-1.3.8-2.4 1.3-3.8.5 1.4 1 2.5 1.4 3.8-.9 0-1.7 0-2.7 0z" fill="#e1161b"/><path d="m92.1 22c-.7 1.4-1.2 2.5-1.8 3.6-.7-.4-1.2-1-1.8-1.7 1.1-.6 2.2-1.2 3.6-1.9z" fill="#e1161b"/><path d="m12.9 32.7c.5-1 .9-2 2.1-2.1.7 0 1.3.3 1.6 1 .4 1.1 0 1.9-.8 2.8-.9-.5-1.9-1.1-2.9-1.7z" fill="#e00c11"/><path d="m54.7 54.7c-.7 1.6-1.9 2.8-2.9 4.1-4.1 5.4-8.3 10.8-12.4 16.3-.2.2-.3.5-.8.6 1.7-5.9 3.4-11.8 5.1-17.7 1.7-.5 3.5-1.1 5.2-1.6 1.9-.6 3.8-1.4 5.8-1.7z" fill="#fdd500"/><path d="m64.2 42.8c-2.2 2.9-4.5 5.9-6.9 9 0-8.9 0-17.6 0-26.6 2.3 6 4.6 11.8 6.9 17.6z" fill="#fdd700"/><path d="m56.1 25.5v26.4c-2.4-3.1-4.6-6-6.9-9 2.2-5.8 4.5-11.6 6.7-17.4z" fill="#fdd700"/><path d="m73.2 75.6c-.2.1-.4 0-.6-.2-5.1-3.3-10.2-6.6-15.4-10 0-3.5 0-7 0-10.8 1.3 1.7 2.5 3.2 3.6 4.7 4.1 5.6 8.2 11 12.4 16.3z" fill="#fdd600"/><path d="m40.2 75.6c3.8-5 7.6-10.1 11.5-15.1 1.4-1.9 2.9-3.7 4.5-5.8v10.8c-1.1.7-2.3 1.5-3.5 2.3-3.8 2.4-7.5 4.9-11.3 7.3-.5.3-.8.6-1.2.5z" fill="#fdd600"/><path d="m58.7 54.7c2.8.5 5.4 1.6 8.1 2.3.6.2 1.3.4 2 .6 2 5.9 3.9 11.9 6 18.1-1-.8-1.4-1.6-2-2.3-4.5-5.9-9-11.8-13.5-17.7-.3-.3-.7-.5-.6-1z" fill="#fcd500"/><g fill="#fdd500"><path d="m30.9 45.9c8 2.4 16.1 4.9 24.5 7.4-4 1.2-7.6 2.3-11.4 3.5-4.4-3.5-8.8-7.1-13.2-10.6 0-.2 0-.3.1-.3z"/><path d="m54.7 51.9c-2.4-.4-4.6-1.3-6.9-2-6.1-1.8-12.2-3.7-18.2-5.5-.3-.1-.5-.2-1.1-.4h20.4c1.9 2.5 3.8 5 5.8 7.6 0 .1-.1.2 0 .3z"/><path d="m58.7 51.9c.6-1.4 1.7-2.4 2.5-3.6 1-1.4 2.2-2.8 3.3-4.3h20.2c-.4.2-.6.3-.9.4-8 2.4-16.1 4.9-24.2 7.3-.3.1-.6.3-.9.2z"/><path d="m82.4 46.2c-4.5 3.4-9 6.9-13.6 10.4-3.5-1-6.9-2.1-10.8-3.3 8.3-2.5 16.3-5 24.3-7.4 0 .1 0 .2.1.3z"/><path d="m54.7 51.9c0 .1 0 .1 0 0z"/><path d="m58.7 51.9c-.1 0-.1.1 0 0-.1.1-.1.1 0 0z"/><path d="m54.7 54.7c0-.1 0-.1 0 0z"/></g><path d="m58.7 54.7c-.1-.1-.1-.1 0 0z" fill="#fcd500"/><path d="m73.1 75.6c.1.1.1.1 0 0z" fill="#fdd600"/><path d="m40.2 75.6c0 .1-.1.1 0 0-.1.1 0 .1 0 0z" fill="#fdd600"/></svg>