<?xml version="1.0" encoding="utf-8"?>
<!-- Generator: Adobe Illustrator 24.1.1, SVG Export Plug-In . SVG Version: 6.00 Build 0)  -->
<svg version="1.1" id="Capa_1" xmlns="http://www.w3.org/2000/svg" xmlns:xlink="http://www.w3.org/1999/xlink" x="0px" y="0px"
	 viewBox="0 0 566.9 566.9" style="enable-background:new 0 0 566.9 566.9;" xml:space="preserve">
<style type="text/css">
	.st0{fill:#FEFEFE;}
	.st1{fill:#1D71B8;}
	.st2{fill:#AF1922;}
	.st3{enable-background:new    ;}
	.st4{fill:#F6F6F6;}
	.st5{fill:none;}
	.st6{fill:#FFFFFF;}
</style>
<path class="st0" d="M283.4,4.2C129.4,4.2,4.3,129.2,4.3,283C4.2,437.5,129,562.6,283.2,562.7c154.4,0,279.5-124.9,279.5-279.1
	S437.7,4.2,283.4,4.2z"/>
<path class="st1" d="M283.4,4.2c154.3,0,279.3,125,279.3,279.3S437.6,562.7,283.2,562.7C129,562.6,4.2,437.5,4.2,283
	C4.3,129.2,129.4,4.3,283.4,4.2z M7.7,284.1c0,152,123.2,275.2,275.2,275.2S558,436.1,558,284.1c0-151.9-123-275-274.9-275.2
	C131.5,8.4,8.2,130.9,7.7,282.6C7.7,283.1,7.7,283.6,7.7,284.1z"/>
<path class="st2" d="M7.7,284.1c0-152,123.2-275.2,275.2-275.2S558,132.1,558,284.1c0,152-123.2,275.2-275.2,275.2
	c-0.1,0-0.2,0-0.3,0C130.9,559.4,7.8,436.6,7.7,285C7.7,284.7,7.7,284.4,7.7,284.1z M282.9,543.4c142.1,1,259.8-116.6,259.3-259.4
	C541.8,140.5,426.4,24.8,282.8,24.8S23.9,140.6,23.5,284.1C23,426.9,140.9,544.5,282.9,543.4z"/>
<path class="st1" d="M282.9,543.4C140.9,544.5,23,426.9,23.5,284.1C23.9,140.6,139.3,24.8,282.8,24.8s259,115.7,259.5,259.2
	C542.7,426.8,425,544.4,282.9,543.4z"/>
<g class="st3">
	<path class="st4" d="M79.7,226.4c3-7.2,5-12.3,6-15.4c0.2-0.7,0.2-1.3,0-1.8c-0.3-0.5-0.7-0.9-1.4-1.1l-1.7-0.6
		c-1.7-0.6-2.9,0-3.5,1.7l-3.6,10.4l-6.1-2.1l3.3-9.5c0.6-1.7,0-2.9-1.7-3.5l-0.9-0.3c-1.7-0.6-2.9,0-3.5,1.7l-4.8,13.9l-6.1-2.1
		l5.5-16c1-2.8,2.3-4.7,4.1-5.6c1.7-0.9,3.9-0.9,6.6,0c1.7,0.6,3,1.5,3.8,2.6c0.8,1.2,1.2,2.5,1.2,3.9c1.4-2.1,3.5-3.2,6.3-3.2
		c1,0,2.1,0.2,3.3,0.6l0.4,0.1c2.8,1,4.7,2.3,5.5,4.1c0.9,1.8,0.8,4.1-0.1,6.9c-1.7,4.8-3.9,10.5-6.8,17L79.7,226.4z"/>
</g>
<g class="st3">
	<path class="st4" d="M67.5,185.6l8.4-16.3c1.4-2.7,3-4.3,4.8-4.9c1.9-0.6,4-0.3,6.5,1c1.6,0.8,2.8,1.9,3.4,3.1
		c0.7,1.2,0.9,2.5,0.8,3.7c1.7-1.9,4-2.6,6.7-2.2c1,0.2,2,0.5,3.1,1.1c2.7,1.4,4.3,3,4.9,4.9c0.6,1.9,0.2,4.2-1.1,6.8l-9,17.5
		L67.5,185.6z M84.2,173.1c-1.6-0.8-2.9-0.4-3.7,1.2l-3.6,6.9l5.7,2.9l3.6-6.9c0.8-1.6,0.4-2.9-1.2-3.7L84.2,173.1z M96.2,177.7
		c-1.6-0.8-2.9-0.4-3.7,1.2l-4.2,8.1L94,190l4.2-8.1c0.8-1.6,0.4-2.9-1.2-3.7L96.2,177.7z"/>
</g>
<g class="st3">
	<path class="st4" d="M125.5,152l-14.7,20.6l-26-18.6l14.7-20.6l5.2,3.7l-10,13.9l5,3.6l7.8-10.9l5.2,3.7l-7.8,10.9l5.4,3.9l10-13.9
		L125.5,152z"/>
</g>
<g class="st3">
	<path class="st4" d="M121.3,146.7c5.7-5.3,9.7-9.1,11.9-11.4c0.5-0.5,0.7-1,0.7-1.6c0-0.6-0.3-1.1-0.8-1.6l-1.3-1.3
		c-1.3-1.3-2.6-1.2-3.9,0.1l-7.6,7.9l-4.6-4.4l6.9-7.3c1.3-1.3,1.2-2.6-0.1-3.9l-0.7-0.6c-1.3-1.3-2.6-1.2-3.9,0.1l-10.1,10.5
		l-4.6-4.4l11.7-12.2c2.1-2.2,4.1-3.3,6-3.3c1.9-0.1,3.9,0.8,5.9,2.8c1.3,1.3,2.1,2.6,2.3,4c0.2,1.4,0.1,2.7-0.6,4
		c2.2-1.3,4.5-1.4,7-0.2c0.9,0.4,1.8,1.1,2.7,1.9l0.3,0.3c2.2,2.1,3.3,4.1,3.3,6.1c0,2-1,4-3,6.2c-3.5,3.7-7.9,7.9-13.3,12.6
		L121.3,146.7z"/>
</g>
<g class="st3">
	<path class="st4" d="M130.1,102.1l19-14.8l15.7,20.2l2.7-2.1l7.6,9.8l-6.1,4.8l-4-4.4l-14.1,11l3.3,5l-6.1,4.8l-7.6-9.8l2.3-1.8
		c0.1-1.3-0.1-2.6-0.5-3.9c-0.4-1.3-0.9-2.3-1.5-3.2L130.1,102.1z M158.3,112.7l-11.8-15.2l-6.7,5.2l6.5,9.5
		c1.1,1.5,1.9,3.3,2.4,5.3c0.2,0.8,0.4,1.6,0.4,2.4L158.3,112.7z"/>
</g>
<g class="st3">
	<path class="st4" d="M178.7,106.7l-7.8,4.3L166.1,77l8-4.4l26,22.3l-7.8,4.3l-4.6-4l-10,5.5L178.7,106.7z M176.7,94.5l6.4-3.5
		l-8.4-7.7L176.7,94.5z"/>
</g>
<path class="st1" d="M282.9,465.5C183.5,466.3,101,384,101.3,284.1c0.3-100.4,81-181.4,181.5-181.5S464,183.7,464.4,284
	C464.7,383.9,382.3,466.2,282.9,465.5z"/>
<path class="st5" d="M277.7,63.7l-9.5,34.5c3.2-0.3,6.3-0.4,9.5-0.5V63.7z"/>
<path class="st5" d="M288.8,63.7v34c3.2,0.1,6.4,0.3,9.5,0.5L288.8,63.7z"/>
<g class="st3">
	<path class="st4" d="M354.5,509.4l-8.4,2.9l0.9-34.3l8.6-3l22,26.3l-8.4,2.9l-3.8-4.7l-10.8,3.8L354.5,509.4z M354.6,497l6.9-2.4
		l-7-9L354.6,497z"/>
</g>
<g class="st3">
	<path class="st4" d="M367.5,470.7l17-9c2.8-1.5,5.2-1.9,7.2-1.3c2,0.6,3.7,2.3,5.2,5.2l2.1,4c1.5,2.8,1.9,5.2,1.3,7.2
		c-0.6,2-2.3,3.7-5.2,5.2l-9.7,5.1l4.3,8.1l-7.3,3.8L367.5,470.7z M389.6,469.4c-0.9-1.6-2.1-2-3.7-1.1l-8.1,4.3l4.7,8.9l8.1-4.3
		c1.6-0.9,2-2.1,1.1-3.7L389.6,469.4z"/>
</g>
<g class="st3">
	<path class="st4" d="M436,465.3l-6.6,4.9l-11.7-15.8l2.9,22.4l-7,5.2l-19.1-25.8l6.6-4.9l11.7,15.8l-2.9-22.4l7-5.2L436,465.3z"/>
</g>
<g class="st3">
	<path class="st4" d="M446.3,455.8l-6.3,6.3L426,430.8l6.5-6.5l31.2,14.1l-6.3,6.3l-5.5-2.6l-8.1,8.1L446.3,455.8z M441,444.6
		l5.2-5.2l-10.2-5L441,444.6z"/>
</g>
<g class="st3">
	<path class="st4" d="M443.9,411.6l14.2-19.5l20.8,15.1l2-2.8l10,7.3l-4.6,6.3l-5.1-3.1l-10.5,14.5l4.6,3.9l-4.6,6.3l-10-7.3
		l1.8-2.4c-0.3-1.3-0.8-2.5-1.6-3.6c-0.8-1.1-1.5-2-2.4-2.7L443.9,411.6z M474,413.9l-15.6-11.3l-5,6.9l8.9,7.3
		c1.5,1.2,2.7,2.7,3.8,4.4c0.4,0.7,0.8,1.5,1.1,2.2L474,413.9z"/>
</g>
<g class="st3">
	<path class="st4" d="M502,377.5l-3.7,7.3l-11.6-5.9l-5.2,10.2l11.6,5.9l-3.7,7.3l-28.5-14.4l3.7-7.3l11.2,5.7l5.2-10.2l-11.2-5.7
		l3.7-7.3L502,377.5z"/>
</g>
<g class="st3">
	<path class="st4" d="M507.1,364.1l-2.8,8.5l-26.6-21.5l2.9-8.7l34.2-1.5l-2.8,8.5l-6.1,0.2l-3.6,10.9L507.1,364.1z M497.3,356.6
		l2.3-7l-11.4,0.1L497.3,356.6z"/>
</g>
<g class="st3">
	<path class="st4" d="M361.5,58.4c0.7,0.2,2,0.8,3.8,1.6l-1.8,5.9l-1.8-0.5c-0.4-0.1-0.9-0.1-1.3,0.1c-0.4,0.2-0.8,0.4-1.1,0.7
		l-6.5,6.6l3.9,18.1l-8.3-2.5l-3.1-14.5l-3.9-1.2l-3.7,12.5l-7.9-2.4l9.2-30.7l7.9,2.4l-3.6,12.1l3.9,1.2l6.9-7c1-1,2.1-1.8,3.3-2.3
		C358.6,58,360,57.9,361.5,58.4z"/>
</g>
<g class="st3">
	<path class="st4" d="M388,96.2c-1.4,2.9-3,4.7-5,5.3c-1.9,0.7-4.3,0.3-7.2-1l-10.3-4.9c-2.9-1.4-4.7-3-5.3-5
		c-0.7-1.9-0.3-4.3,1-7.2l6.3-13.2c1.4-2.9,3-4.7,5-5.3c1.9-0.7,4.3-0.3,7.2,1l10.3,4.9c2.9,1.4,4.7,3,5.3,5c0.7,1.9,0.3,4.3-1,7.2
		L388,96.2z M386.9,79.5c0.8-1.6,0.4-2.9-1.3-3.7l-7-3.3c-1.6-0.8-2.9-0.4-3.7,1.3l-6.3,13.2c-0.8,1.6-0.4,2.9,1.3,3.7l7,3.3
		c1.6,0.8,2.9,0.4,3.7-1.3L386.9,79.5z"/>
</g>
<g class="st3">
	<path class="st4" d="M419.9,106.8l-11.8,5.6l-5.2-3.7l1.4-13L394,110.1l-6.7-4.8l18.6-26l7,5l-2.4,19l17.2-8.4l7,5l-18.6,26
		l-6.7-4.8L419.9,106.8z"/>
</g>
<g class="st3">
	<path class="st4" d="M423.4,133.2l-6.3-6.4l31.4-13.8l6.4,6.5l-14.3,31.1l-6.3-6.4l2.6-5.5l-8-8.2L423.4,133.2z M434.6,127.9
		l5.1,5.2l5.1-10.2L434.6,127.9z"/>
</g>
<g class="st3">
	<path class="st4" d="M457.3,174.3l-4.8-6.7l10.6-7.6l-6.6-9.3l-10.6,7.6l-4.8-6.7l26-18.6l4.8,6.7l-10.2,7.3l6.6,9.3l10.2-7.3
		l4.8,6.7L457.3,174.3z"/>
</g>
<g class="st3">
	<path class="st4" d="M490.5,168l10.6,21.6L478,200.9l1.5,3.1l-11.1,5.4l-3.4-7l5.2-3l-7.9-16.1l-5.6,2.2l-3.4-7l11.1-5.4l1.3,2.7
		c1.3,0.4,2.6,0.5,3.9,0.3c1.3-0.2,2.5-0.4,3.4-0.8L490.5,168z M474.4,193.5l17.3-8.5l-3.7-7.6l-10.6,4.4c-1.7,0.7-3.6,1.1-5.7,1.2
		c-0.9,0-1.7,0-2.4-0.1L474.4,193.5z"/>
</g>
<g class="st3">
	<path class="st4" d="M476.2,214.6l-2.6-8.5l34.2,2.1l2.7,8.7l-27,21l-2.6-8.5l4.9-3.7l-3.4-10.9L476.2,214.6z M488.6,215l2.2,7
		l9.2-6.7L488.6,215z"/>
</g>
<g class="st3">
	<path class="st4" d="M55.8,353.3l-2-8l24.9-6.2L75.9,328l-24.9,6.2l-2-8l31.1-7.7l6.7,27.1L55.8,353.3z"/>
</g>
<g class="st3">
	<path class="st4" d="M77.7,384.6c-3,1.2-5.4,1.5-7.3,0.7c-1.9-0.8-3.5-2.6-4.7-5.6l-4.4-10.6c-1.2-3-1.5-5.4-0.7-7.3
		c0.8-1.9,2.6-3.5,5.6-4.7l13.5-5.7c3-1.2,5.4-1.5,7.3-0.7c1.9,0.8,3.5,2.6,4.7,5.6l4.4,10.5c1.2,3,1.5,5.4,0.7,7.3
		s-2.6,3.5-5.6,4.7L77.7,384.6z M88,371.4c1.7-0.7,2.2-1.9,1.5-3.6l-3-7.2c-0.7-1.7-1.9-2.2-3.6-1.5l-13.5,5.7
		c-1.7,0.7-2.2,1.9-1.5,3.6l3,7.2c0.7,1.7,1.9,2.2,3.6,1.5L88,371.4z"/>
</g>
<g class="st3">
	<path class="st4" d="M78.5,400.5c-1.7-0.4-3.1-1.4-4-2.9c-1-1.6-1.7-3.1-2.3-4.6l5.3-3.3l1.1,1.8c0.3,0.5,0.7,0.8,1.3,0.9
		c0.5,0.1,1.1,0,1.6-0.2l21-11.4l13.4,21.6l-27.3,16.9l-4.3-7l21.8-13.5l-5.1-8.2l-16.8,9C82,400.6,80.2,400.9,78.5,400.5z"/>
</g>
<g class="st3">
	<path class="st4" d="M111.3,447l-5.4-6.3l8-6.8l-4-4.7l-11.7,2.5l-5.6-6.6l12.2-2.6c-0.9-1.8-1.1-3.5-0.6-5
		c0.5-1.6,1.7-3.2,3.7-4.8l2.4-2.1c2.4-2.1,4.7-3,6.7-2.9c2,0.2,4.1,1.5,6.2,3.9l12.5,14.6L111.3,447z M113.1,418.9
		c-1.4,1.2-1.5,2.5-0.3,3.9l5.9,7l6.6-5.6l-5.9-7c-1.2-1.4-2.5-1.5-3.9-0.3L113.1,418.9z"/>
</g>
<g class="st3">
	<path class="st4" d="M138.2,428.7l14.5,12.6c2.4,2.1,3.7,4.2,3.8,6.2c0.1,2-0.8,4.3-2.9,6.7l-3,3.5c-2.1,2.4-4.2,3.7-6.2,3.8
		c-2,0.1-4.3-0.8-6.7-2.9l-8.3-7.2l-6,6.9l-6.2-5.4L138.2,428.7z M147.4,448.9c1.2-1.4,1.1-2.7-0.3-3.9l-6.9-6l-6.6,7.6l6.9,6
		c1.4,1.2,2.7,1.1,3.9-0.3L147.4,448.9z"/>
</g>
<g class="st3">
	<path class="st4" d="M167.9,490.7l-7-4.4l7-11l-9.7-6.1l-7,11l-7-4.4l17.1-27.1l7,4.4l-6.7,10.6l9.7,6.1l6.7-10.6l7,4.4
		L167.9,490.7z"/>
</g>
<g class="st3">
	<path class="st4" d="M180.7,497l-8.2-3.6l24-24.5l8.4,3.7l-1.7,34.2l-8.2-3.6l0.4-6.1l-10.5-4.6L180.7,497z M189.2,487.9l6.7,2.9
		l1-11.3L189.2,487.9z"/>
</g>
<g class="st3">
	<path class="st4" d="M234.8,515.5l-8-2.1l2.7-10.2l-6-1.6l-8.3,8.7l-8.4-2.3l8.6-9.1c-1.8-0.9-2.9-2.2-3.3-3.8
		c-0.5-1.6-0.4-3.6,0.3-6l0.8-3.1c0.8-3.1,2.1-5.2,3.9-6.2c1.8-1,4.2-1.1,7.3-0.3l18.6,5L234.8,515.5z M220.4,491.2
		c-0.5,1.8,0.2,2.9,1.9,3.4l8.8,2.4l2.3-8.4l-8.8-2.4c-1.8-0.5-2.9,0.2-3.4,1.9L220.4,491.2z"/>
</g>
<path class="st6" d="M520.6,283.5c0.1-0.4,0.2-0.8,0.3-1.2c0.4-3-1.5-5.8-4.3-6.6l-176.5-48.6L291.5,50.7c-0.7-2.6-3.1-4.4-5.8-4.4
	c-0.8,0-1.7,0.2-2.4,0.5c-0.8-0.4-1.6-0.5-2.4-0.5c-2.7,0-5.1,1.8-5.8,4.4l-48.6,176.6l-176,48.5c-2.9,0.8-4.8,3.6-4.4,6.6
	c0.1,0.4,0.2,0.8,0.3,1.2c-0.1,0.4-0.2,0.8-0.3,1.2c-0.4,3,1.5,5.8,4.3,6.6l176,48.5L275,516.3c0.7,2.6,3.1,4.4,5.8,4.4
	c0.3,0,0.5,0,0.8-0.1c0.6-0.1,1.1-0.2,1.6-0.5c0.5,0.2,1.1,0.4,1.6,0.5c0.3,0,0.5,0.1,0.8,0.1c2.7,0,5.1-1.8,5.8-4.4L340,339.9
	l176.5-48.6c2.9-0.8,4.8-3.6,4.3-6.6C520.8,284.3,520.7,283.9,520.6,283.5z M226.6,233.4c0.3,0.5,0.6,0.9,1,1.2l46.1,44.8H59.4
	L226.6,233.4z M226.6,333.6L59.4,287.5h214.2l-46,44.8C227.2,332.7,226.8,333.1,226.6,333.6L226.6,333.6z M279.7,510.5l-47-170.5
	c0.6-0.3,1.2-0.7,1.7-1.2l45.3-46.6L279.7,510.5z M279.7,274.8l-45.3-46.6c-0.5-0.5-1.1-0.9-1.7-1.2l47-170.6V274.8z M286.9,56.5
	l47.1,170.8c-0.5,0.3-0.9,0.6-1.3,1l-45.8,47V56.5z M286.9,510.5V291.7l45.8,47c0.4,0.4,0.8,0.7,1.3,1L286.9,510.5z M340,333.7
	c-0.3-0.5-0.6-1-1.1-1.4l-46-44.8h214.6L340,333.7z M292.9,279.5l46.1-44.8c0.4-0.4,0.7-0.9,1-1.3l167.6,46.2H292.9z"/>
<polygon class="st2" points="515,285.5 336.9,334.5 289.1,285.5 "/>
<polygon class="st2" points="277.8,285.5 230.1,334.5 52,285.5 "/>
<polygon class="st2" points="280.8,514.7 231.8,336.6 280.8,288.8 "/>
<polygon class="st2" points="285.7,288.8 334.7,336.6 285.7,514.7 "/>
<polygon class="st2" points="285.7,52.3 334.7,230.4 285.7,278.1 "/>
<polygon class="st2" points="52,281.5 230.1,232.5 277.8,281.5 "/>
<polygon class="st2" points="280.8,278.1 231.8,230.4 280.8,52.3 "/>
<polygon class="st2" points="289.1,281.5 336.9,232.5 515,281.5 "/>
<polygon class="st5" points="224.9,327.9 261.3,292.5 96.4,292.5 "/>
<polygon class="st5" points="224.9,239.1 96.4,274.5 261.3,274.5 "/>
<path class="st5" d="M59.4,287.5l167.1,46.1c0.3-0.5,0.6-0.9,1-1.3c-0.4,0.4-0.7,0.8-1,1.3L59.4,287.5z"/>
<polygon class="st5" points="274.7,473.5 274.7,304.5 238.4,341.8 "/>
<polygon class="st5" points="274.7,262.5 274.7,93.4 238.4,225.2 "/>
<path class="st5" d="M457.1,312.8l-113,31.2l-31.5,114.2C386.7,445.2,444.6,387,457.1,312.8z"/>
<path class="st5" d="M313.1,110.3l31.1,112.8l112.6,31C443.9,180.9,386,123,313.1,110.3z"/>
<path class="st5" d="M109,254.4l113.4-31.2l31.2-113.1C180,122.6,121.7,180.8,109,254.4z"/>
<path class="st5" d="M253.9,458.3l-31.5-114.5l-113.8-31.4C120.9,387.1,179.3,445.7,253.9,458.3L253.9,458.3z"/>
<polygon class="st5" points="279.7,510.5 279.7,510.5 279.7,292.2 279.7,292.2 "/>
<polygon class="st5" points="50.4,275.8 226.4,227.3 275,50.7 226.4,227.3 "/>
<polygon class="st5" points="341.7,328 470.6,292.5 305.2,292.5 "/>
<polygon class="st5" points="305.1,274.5 470.6,274.5 341.6,239 "/>
<polygon class="st5" points="291.8,93.4 291.8,263 328.2,225.6 "/>
<polygon class="st5" points="291.8,473.5 328.2,341.4 291.8,304 "/>
<polygon class="st5" points="292.8,279.5 338.9,234.6 292.8,279.5 "/>
<path class="st6" d="M158.5,409.2c-26.5-26.1-44-60-49.9-96.7L98,309.6c5.5,40.5,24.3,78,53.4,106.7c29.1,29,65.9,47.2,105.4,52.5
	l-2.9-10.5C217.7,452.4,184.3,435.2,158.5,409.2z"/>
<path class="st6" d="M456.7,254.1l10.6,2.9c-11.9-81.4-75.8-145.4-157.2-157.4l2.9,10.6C386,123,443.9,180.9,456.7,254.1z"/>
<path class="st6" d="M407.3,409.1c-25.7,25.8-58.8,43-94.6,49l-2.9,10.6c82-12.1,146.2-76.7,157.9-158.8l-10.5,2.9
	C451.1,349.4,433.7,383.1,407.3,409.1z"/>
<path class="st6" d="M253.5,110.1l2.9-10.6c-81.9,11.7-146.3,76-158.1,157.9l10.7-2.9C121.7,180.8,180,122.6,253.5,110.1z"/>
</svg>
