<svg viewBox="0 0 566.93 566.93" xmlns="http://www.w3.org/2000/svg"><circle cx="283.46" cy="283.46" fill="#fff" r="276.38"/><path d="m283.46 564.34a280.88 280.88 0 0 1 -198.61-479.49 280.88 280.88 0 0 1 397.23 397.23 279.06 279.06 0 0 1 -198.62 82.26zm0-552.75c-149.91 0-271.87 122-271.87 271.87s122 271.88 271.87 271.88 271.88-122 271.88-271.88-121.96-271.87-271.88-271.87z" fill="#2d3d4f"/><path d="m282.13 513.3c-39 0-66.07-25-74.7-41.86l-7.27-14.18-15.93-.84c-9.17-.48-56.07-4.6-79.14-38.87-18.48-27.45-13.5-61.18-11.62-73.87 3.78-25.7 14-42.47 23.8-58.68 12-19.71 25.51-42 19.8-73-4-21.9-16.77-41.86-37.85-59.32a2.49 2.49 0 0 1 -.61-3.09l17.62-33.28a2.49 2.49 0 0 1 2.2-1.33h.11c3.64.16 7.3.24 10.9.24a250.62 250.62 0 0 0 76.37-11.87 250.83 250.83 0 0 0 76.19-39.75 2.43 2.43 0 0 1 1.51-.52 2.45 2.45 0 0 1 1.52.52 250.83 250.83 0 0 0 76.14 39.79 250.62 250.62 0 0 0 76.37 11.87c3.6 0 7.26-.08 10.9-.24h.11a2.51 2.51 0 0 1 2.21 1.33l17.61 33.28a2.49 2.49 0 0 1 -.61 3.09c-21.08 17.46-33.81 37.42-37.85 59.33-5.71 30.91 7.84 53.24 19.8 72.95 9.84 16.22 20 33 23.8 58.68 1.88 12.7 6.85 46.42-11.62 73.87-23.06 34.27-70 38.39-79.15 38.87l-15.92.84-7.28 14.18c-8.62 16.83-35.64 41.86-74.7 41.86z" fill="#f1c410"/><path d="m283.46 65.58a253 253 0 0 0 76.9 40.19 253 253 0 0 0 77.13 12c3.64 0 7.33-.08 11-.24l17.61 33.28c-21.54 17.85-34.56 38.28-38.71 60.79-5.88 31.85 7.93 54.62 20.12 74.71 9.71 16 19.76 32.55 23.47 57.74 1.83 12.43 6.71 45.47-11.23 72.11-22.4 33.29-68.24 37.31-77.2 37.78l-15 .78-2.32.12-1.06 2.07-6.87 13.4c-8.35 16.28-34.54 40.5-72.48 40.5h-2.66c-37.93 0-64.12-24.22-72.47-40.5l-6.88-13.4-1.05-2.06-2.32-.13-15-.78c-9-.47-54.79-4.49-77.2-37.78-18.01-26.65-13.14-59.68-11.3-72.16 3.71-25.19 13.76-41.74 23.47-57.75 12.19-20.08 26-42.85 20.12-74.7-4.15-22.51-17.17-42.94-38.71-60.79l17.61-33.28c3.68.16 7.37.24 11 .24a253.09 253.09 0 0 0 77.13-12 252.85 252.85 0 0 0 76.89-40.19m0-5a4.93 4.93 0 0 0 -3 1 248.34 248.34 0 0 1 -75.4 39.47 248.16 248.16 0 0 1 -75.61 11.75c-3.57 0-7.2-.08-10.79-.23h-.22a5 5 0 0 0 -4.41 2.66l-17.62 33.28a5 5 0 0 0 1.23 6.19c20.61 17.07 33.05 36.54 37 57.85 5.54 30-7.75 51.88-19.48 71.2-10 16.43-20.28 33.42-24.14 59.61-1.91 13-7 47.38 12 75.64 23.73 35.25 71.71 39.48 81.08 40l14.49.76 6.62 12.9c8.92 17.39 36.8 43.19 76.93 43.19h2.66c40.18 0 68-25.85 76.93-43.22l6.62-12.9 14.48-.76c9.38-.49 57.36-4.72 81.09-40 19-28.26 13.94-62.68 12-75.64-3.86-26.19-14.17-43.18-24.14-59.61-11.73-19.32-25-41.22-19.49-71.2 3.94-21.31 16.38-40.78 37-57.85a5 5 0 0 0 1.23-6.19l-17.62-33.28a5 5 0 0 0 -4.41-2.66h-.22c-3.59.15-7.23.23-10.79.23a248.16 248.16 0 0 1 -75.59-11.72 248.23 248.23 0 0 1 -75.38-39.4 5 5 0 0 0 -3-1z" fill="#2d3d4f"/><path d="m283.63 521.34-.15-2.5v2.5h-1.34c-42.38 0-72.71-28.36-81.88-46.23l-5.16-10.06-11.3-.59c-13.82-.73-60.83-5.93-85.4-42.42-20.2-30.04-14.9-66.04-12.9-79.54 4-27.3 14.63-44.78 24.89-61.68 11.21-18.47 23.91-39.41 18.76-67.31-4-21.66-17.48-41.37-40.09-58.58a2.5 2.5 0 0 1 -.7-3.16l23.15-43.77a2.51 2.51 0 0 1 2.21-1.33h.16c5.18.33 10.41.5 15.56.5a242.84 242.84 0 0 0 73.92-11.49 246.28 246.28 0 0 0 78.54-42.28 2.46 2.46 0 0 1 1.56-.55 2.48 2.48 0 0 1 1.57.55 246.28 246.28 0 0 0 78.54 42.32 242.79 242.79 0 0 0 73.92 11.49c5.14 0 10.38-.17 15.55-.5h.16a2.49 2.49 0 0 1 2.21 1.33l23.16 43.74a2.5 2.5 0 0 1 -.7 3.16c-22.61 17.21-36.1 36.92-40.09 58.58-5.15 27.89 7.55 48.83 18.76 67.31 10.26 16.91 20.87 34.38 24.89 61.68 2 13.54 7.31 49.51-12.91 79.55-24.57 36.49-71.58 41.69-85.4 42.42l-11.3.59-5.16 10.06c-9.17 17.87-39.48 46.23-81.78 46.23zm-184.75-370.15c21.84 17.79 35 38.2 39.15 60.68 5.77 31.28-7.88 53.78-19.93 73.63-9.79 16.14-19.91 32.82-23.67 58.32-1.86 12.59-6.79 46.05 11.47 73.19 22.81 33.88 69.3 38 78.38 38.44l15.05.79a2.49 2.49 0 0 1 2.09 1.35l6.88 13.41c8.52 16.61 35.21 41.32 73.83 41.32h2.66c38.63 0 65.32-24.71 73.84-41.32l6.87-13.41a2.5 2.5 0 0 1 2.1-1.35l15-.79c9.09-.47 55.58-4.56 78.39-38.44 18.26-27.14 13.33-60.6 11.47-73.19-3.76-25.5-13.88-42.18-23.67-58.32-12.05-19.85-25.7-42.35-19.93-73.63 4.15-22.48 17.31-42.89 39.14-60.68l-18.61-35.19c-4 .19-8 .28-11.9.28a251.85 251.85 0 0 1 -76.66-11.91 251.82 251.82 0 0 1 -77.37-40.66 251.55 251.55 0 0 1 -77.36 40.66 251.85 251.85 0 0 1 -76.66 11.91c-3.94 0-7.94-.09-11.9-.28z" fill="#f1c410"/><path d="m283.46 55.35a247.93 247.93 0 0 0 79.35 42.75 245.21 245.21 0 0 0 74.68 11.61c5.22 0 10.47-.17 15.71-.51l23.16 43.74c-23.14 17.61-36.92 37.79-41 60.11-5.33 28.84 7.64 50.21 19.09 69.07 10.12 16.69 20.6 33.94 24.55 60.75 2 13.27 7.16 48.55-12.52 77.78-23.96 35.54-69.97 40.61-83.48 41.35l-4.63.24-8.1.42-3.7 7.22-2.14 4.12c-8.89 17.35-38.38 44.87-79.55 44.87h-2.75c-41.25 0-70.74-27.52-79.64-44.87l-2.11-4.13-3.7-7.22-8.11-.42-4.57-.23c-13.54-.71-59.54-5.78-83.47-41.32-19.72-29.26-14.53-64.53-12.53-77.81 4-26.81 14.43-44.06 24.55-60.75 11.44-18.86 24.41-40.23 19.09-69.06-4.12-22.33-17.91-42.51-41-60.12l23.15-43.74c5.24.34 10.5.51 15.72.51a245.25 245.25 0 0 0 74.61-11.61 247.78 247.78 0 0 0 79.34-42.75m-154 58.38c-4.44 0-8.91-.12-13.37-.35l-20.38 38.46c22.34 17.74 35.72 38 39.86 60.48 5.6 30.35-7.79 52.42-19.6 71.89-9.93 16.35-20.18 33.25-24 59.24-1.9 12.86-6.94 47 11.86 74.95 23.47 34.87 71 39.06 80.33 39.55l15 .79 6.88 13.4c8.8 17.16 36.31 42.68 76 42.68h2.66c39.74 0 67.26-25.52 76.06-42.68l6.88-13.41 15-.78c9.3-.49 56.87-4.68 80.33-39.55 18.81-27.93 13.77-62.09 11.87-74.95-3.83-26-14.09-42.89-24-59.24-11.81-19.47-25.2-41.54-19.6-71.88 4.14-22.48 17.52-42.75 39.86-60.49l-20.36-38.46c-4.46.23-8.93.35-13.37.35a248.83 248.83 0 0 1 -75.9-11.8 250.76 250.76 0 0 1 -78.13-41.44 250.6 250.6 0 0 1 -78.12 41.44 249.09 249.09 0 0 1 -75.9 11.8m154-63.38a5 5 0 0 0 -3.13 1.1 243.75 243.75 0 0 1 -77.59 41.89 240.33 240.33 0 0 1 -73.16 11.37c-5.09 0-10.28-.17-15.4-.5h-.32a5 5 0 0 0 -4.42 2.66l-23.15 43.73a5 5 0 0 0 1.39 6.32c22.1 16.82 35.28 36 39.16 57 5 27-6.94 46.59-18.45 65.56-10.39 17.16-21.13 34.85-25.25 62.66-2 13.8-7.44 50.46 13.32 81.3 25.21 37.46 73.23 42.78 87.34 43.52l4.63.24 5.23.28 2.39 4.66 2.11 4.12c5.53 10.76 16.51 22.29 29.38 30.83a99.18 99.18 0 0 0 54.71 16.76h2.71a99 99 0 0 0 54.68-16.77c12.87-8.54 23.84-20.06 29.36-30.82l2.12-4.12 2.39-4.66 5.22-.28 4.63-.24c14.12-.74 62.14-6.06 87.35-43.52 20.76-30.84 15.35-67.5 13.31-81.3-4.09-27.8-14.83-45.5-25.22-62.62-11.52-19-23.42-38.6-18.45-65.56 3.88-21 17.06-40.22 39.16-57a5 5 0 0 0 1.39-6.32l-23.16-43.74a5 5 0 0 0 -4.42-2.66h-.32c-5.12.33-10.3.5-15.39.5a240.33 240.33 0 0 1 -73.16-11.37 243.75 243.75 0 0 1 -77.71-41.92 5 5 0 0 0 -3.14-1.1zm-154 68.38a254.31 254.31 0 0 0 77.42-12 253.8 253.8 0 0 0 76.6-39.89 254 254 0 0 0 76.61 39.89 254.27 254.27 0 0 0 77.42 12c3.45 0 6.95-.07 10.43-.21l17 32c-21.36 17.87-34.28 38.33-38.44 60.86-5.95 32.21 8 55.14 20.25 75.38 9.66 15.92 19.65 32.38 23.34 57.38 1.82 12.33 6.65 45.09-11.08 71.43-22.14 32.9-67.56 36.88-76.44 37.34l-15 .79a5 5 0 0 0 -4.19 2.71l-6.88 13.41c-8.23 16.06-34.1 40-71.61 40h-2.66c-37.5 0-63.37-23.9-71.61-40l-6.87-13.41a5 5 0 0 0 -4.19-2.71l-15-.79c-8.88-.46-54.3-4.44-76.45-37.34-17.72-26.33-12.89-59.09-11.07-71.43 3.69-25 13.68-41.46 23.34-57.38 12.28-20.23 26.2-43.17 20.25-75.39-4.16-22.52-17.08-43-38.44-60.85l17-32c3.48.14 7 .21 10.43.21z" fill="#2d3d4f"/><path d="m457.09 217.07c2.86-15.45 13.33-36.08 48.15-56.9l-39.39-74.41a222.67 222.67 0 0 1 -28.36 1.8 223.16 223.16 0 0 1 -67.94-10.56 223.87 223.87 0 0 1 -86.09-51.06 223.73 223.73 0 0 1 -86.08 51.06 223.16 223.16 0 0 1 -67.94 10.56 222.67 222.67 0 0 1 -28.36-1.8l-39.39 74.41c34.82 20.83 45.31 41.45 48.15 56.9 7.42 40.24-34.37 58.78-43.78 122.57-2.16 14.67-8.41 57 16 93.38 31.32 46.52 91 50.56 100.68 51.06 13.44 26.12 50.32 56.92 99.4 56.92h2.65c49.08 0 85.95-30.78 99.35-56.91 9.66-.5 69.36-4.54 100.68-51.06 24.45-36.34 18.21-78.71 16.05-93.38-9.41-63.8-51.2-82.34-43.78-122.58zm26.05 214.82c-29.14 43.28-83.22 49.35-99.14 50.18l-1.16.06-.53 1c-13.75 26.92-50.16 55.87-97.52 55.87h-2.66c-47.35 0-83.76-28.93-97.55-55.81l-.53-1-1.16-.06c-15.88-.83-70-6.9-99.11-50.18-24-35.7-17.78-78-15.72-92 4.54-30.83 16.61-50.71 27.25-68.25 11-18.07 20.43-33.68 16.5-55s-19.81-40.4-47.45-57.27l37.85-71.5a227.07 227.07 0 0 0 27.23 1.65 225 225 0 0 0 68.56-10.66 226.6 226.6 0 0 0 85.47-50.21 226.72 226.72 0 0 0 85.48 50.21 225 225 0 0 0 68.55 10.66 227.07 227.07 0 0 0 27.23-1.65l37.85 71.5c-27.58 16.87-43.58 36.13-47.47 57.28s5.54 36.9 16.51 55c10.64 17.54 22.71 37.42 27.25 68.25 2.06 13.89 8.3 56.23-15.73 91.93z" fill="#fff"/><path d="m466.45 274.81c-11.12-18.33-21.62-35.64-17.27-59.2 4-21.61 19.26-41.2 45.44-58.3l-33.31-62.92a234.13 234.13 0 0 1 -23.82 1.23 230.72 230.72 0 0 1 -70.39-11 232.76 232.76 0 0 1 -83.64-47.78 232.64 232.64 0 0 1 -83.63 47.78 231 231 0 0 1 -70.39 11 234.13 234.13 0 0 1 -23.82-1.23l-33.31 62.92c26.18 17.1 41.46 36.69 45.44 58.3 4.35 23.56-6.15 40.87-17.28 59.2-10.34 17.05-22.07 36.38-26.44 66-2.18 14.76-8 53.95 14.76 87.71 27.57 41 79.24 46.73 94.42 47.52l4.63.24 2.11 4.13c10.83 21.11 44.32 52.53 92.18 52.53h2.66c47.87 0 81.35-31.42 92.18-52.53l2.12-4.13 4.63-.24c15.18-.79 66.85-6.57 94.41-47.52 22.72-33.76 16.95-72.95 14.77-87.71-4.37-29.62-16.1-48.95-26.45-66zm0 145.84c-23.93 35.54-69.94 40.61-83.45 41.35l-4.63.24-8.1.42-3.7 7.22-2.14 4.12c-8.89 17.35-38.38 44.87-79.55 44.87h-2.75c-41.25 0-70.74-27.52-79.64-44.87l-2.11-4.13-3.7-7.22-8.11-.42-4.57-.23c-13.54-.71-59.54-5.78-83.47-41.32-19.72-29.26-14.53-64.53-12.53-77.81 4-26.81 14.43-44.06 24.55-60.75 11.44-18.86 24.41-40.23 19.09-69.06-4.12-22.33-17.91-42.51-41-60.12l23.15-43.74c5.24.34 10.5.51 15.72.51a245.25 245.25 0 0 0 74.61-11.61 247.78 247.78 0 0 0 79.34-42.75 247.93 247.93 0 0 0 79.35 42.75 245.21 245.21 0 0 0 74.68 11.61c5.22 0 10.47-.17 15.71-.51l23.16 43.74c-23.14 17.61-36.92 37.79-41 60.11-5.33 28.84 7.64 50.21 19.09 69.07 10.12 16.69 20.6 33.94 24.55 60.75 1.92 13.27 7.12 48.55-12.56 77.78z" fill="#2d3d4f"/><path d="m282.13 517.32c-40.86 0-69.2-26.34-78.28-44l-6.22-12.12-13.63-.76c-9.5-.49-58.13-4.78-82.27-40.64-19.34-28.74-14.2-63.59-12.27-76.71 3.91-26.5 14.3-43.62 24.35-60.18 11.58-19.09 24.71-40.73 19.28-70.13-4-21.81-17.13-41.65-39-59a2.51 2.51 0 0 1 -.65-3.13l20.36-38.46a2.49 2.49 0 0 1 2.21-1.33h.14c4.4.23 8.85.35 13.23.35a246.68 246.68 0 0 0 75.14-11.68 246.6 246.6 0 0 0 77.34-41 2.52 2.52 0 0 1 1.54-.53 2.55 2.55 0 0 1 1.55.53 246.6 246.6 0 0 0 77.34 41 246.68 246.68 0 0 0 75.14 11.68c4.38 0 8.83-.12 13.23-.35h.14a2.49 2.49 0 0 1 2.21 1.33l20.36 38.46a2.5 2.5 0 0 1 -.66 3.13c-21.82 17.33-34.93 37.17-38.95 59-5.43 29.4 7.7 51 19.28 70.13 10 16.56 20.44 33.68 24.35 60.18 1.93 13.12 7.07 48-12.27 76.71-24.12 35.86-72.71 40.2-82.22 40.64l-13.61.72-6.21 12.12c-9.08 17.7-37.42 44-78.29 44zm-178.13-367.14c21.07 17.92 33.86 38.42 38 61 6 32.79-8 56-20.44 76.45-9.59 15.79-19.5 32.12-23.14 56.82-1.79 12.17-6.57 44.51 10.83 70.35 21.74 32.29 66.5 36.21 75.25 36.67l17.37.91a2.5 2.5 0 0 1 2.09 1.35l7.93 15.47c8.07 15.73 33.44 39.14 70.25 39.14h2.66c36.82 0 62.19-23.41 70.25-39.14l7.95-15.51a2.47 2.47 0 0 1 2.09-1.35l17.36-.91c8.76-.46 53.52-4.38 75.26-36.67 17.39-25.84 12.62-58.18 10.83-70.35-3.64-24.7-13.55-41-23.13-56.81-12.43-20.47-26.5-43.67-20.45-76.46 4.16-22.54 16.94-43 38-61l-15.96-30.06c-3.18.12-6.38.18-9.53.18a255.5 255.5 0 0 1 -77.89-12.11 255.56 255.56 0 0 1 -76.14-39.43 255.27 255.27 0 0 1 -76.13 39.43 255.55 255.55 0 0 1 -77.89 12.11c-3.15 0-6.35-.06-9.53-.18z" fill="#f1c410"/><path d="m283.46 60.49a250.76 250.76 0 0 0 78.13 41.44 248.83 248.83 0 0 0 75.9 11.8c4.44 0 8.91-.12 13.37-.35l20.36 38.46c-22.34 17.74-35.72 38-39.86 60.49-5.6 30.34 7.79 52.41 19.6 71.88 9.92 16.34 20.18 33.25 24 59.24 1.9 12.86 6.94 47-11.87 74.95-23.46 34.87-71 39.06-80.33 39.55l-15 .78-6.88 13.41c-8.8 17.16-36.32 42.68-76.06 42.68h-2.66c-39.74 0-67.25-25.52-76-42.68l-6.88-13.4-15-.79c-9.29-.49-56.86-4.68-80.33-39.55-18.95-27.93-13.89-62.09-11.95-74.95 3.83-26 14.08-42.9 24-59.24 11.81-19.47 25.2-41.54 19.6-71.89-4.14-22.47-17.52-42.74-39.86-60.48l20.36-38.46c4.46.23 8.93.35 13.37.35a249.09 249.09 0 0 0 75.9-11.8 250.6 250.6 0 0 0 78.12-41.44m-154 57.27c-3.64 0-7.33-.08-11-.24l-17.67 33.28c21.54 17.85 34.56 38.28 38.71 60.79 5.88 31.85-7.93 54.62-20.12 74.7-9.71 16-19.76 32.56-23.47 57.75-1.84 12.44-6.71 45.47 11.22 72.11 22.41 33.29 68.24 37.31 77.2 37.78l15 .78 2.32.13 1.05 2.06 6.88 13.4c8.35 16.28 34.54 40.5 72.47 40.5h2.66c37.94 0 64.13-24.22 72.48-40.5l6.87-13.4 1.06-2.07 2.32-.12 15-.78c9-.47 54.8-4.49 77.2-37.78 18.03-26.64 13.15-59.68 11.33-72.15-3.71-25.19-13.76-41.74-23.47-57.74-12.19-20.09-26-42.86-20.12-74.71 4.15-22.51 17.17-42.94 38.71-60.79l-17.62-33.24c-3.68.16-7.37.24-11 .24a253 253 0 0 1 -77.13-12 253 253 0 0 1 -76.9-40.19 252.85 252.85 0 0 1 -76.89 40.19 253.09 253.09 0 0 1 -77.13 12m154-62.27a5 5 0 0 0 -3.08 1.07 244.25 244.25 0 0 1 -76.56 40.61 244.21 244.21 0 0 1 -74.38 11.56c-4.33 0-8.74-.11-13.1-.35h-.27a5 5 0 0 0 -4.42 2.66l-20.35 38.46a5 5 0 0 0 1.31 6.26c21.34 16.94 34.15 36.28 38.06 57.47 5.25 28.47-7.62 49.67-19 68.38-10.15 16.77-20.66 34.12-24.66 61.11-2 13.38-7.22 48.93 12.66 78.47 24.81 36.85 74.51 41.24 84.22 41.75l12.17.64 5.57 10.84c9.36 18.25 38.52 45.4 80.5 45.4h2.66c42 0 71.15-27.15 80.51-45.4l5.56-10.84 12.17-.64c9.72-.51 59.43-4.9 84.22-41.75 19.89-29.54 14.64-65.09 12.67-78.47-4-27-14.5-44.34-24.68-61.11-11.35-18.71-24.22-39.91-19-68.38 3.95-21.23 16.77-40.53 38.1-57.47a5 5 0 0 0 1.31-6.26l-20.37-38.5a5 5 0 0 0 -4.41-2.66h-.27c-4.36.24-8.77.35-13.1.35a244.21 244.21 0 0 1 -74.38-11.56 244.25 244.25 0 0 1 -76.56-40.61 5 5 0 0 0 -3.09-1.07zm-154 67.27a258 258 0 0 0 78.65-12.23 257.88 257.88 0 0 0 75.37-38.69 257.82 257.82 0 0 0 75.38 38.69 257.92 257.92 0 0 0 78.65 12.23c2.66 0 5.36 0 8.05-.13l14.27 27c-20.61 18-33.17 38.53-37.33 61.1-6.22 33.72 8.12 57.35 20.77 78.2 9.45 15.58 19.23 31.69 22.79 55.88 1.76 11.91 6.43 43.55-10.43 68.59-21.07 31.31-64.76 35.13-73.31 35.57l-15 .79-2.32.12a5 5 0 0 0 -4.19 2.71l-1.05 2.07-6.93 13.34c-7.79 15.19-32.33 37.78-68 37.78h-2.66c-35.69 0-60.23-22.59-68-37.78l-6.88-13.4-1.06-2.07a5 5 0 0 0 -4.18-2.71l-2.32-.12-15-.79c-8.55-.44-52.24-4.26-73.32-35.57-16.85-25-12.18-56.68-10.42-68.59 3.56-24.19 13.34-40.3 22.79-55.88 12.65-20.85 27-44.48 20.77-78.21-4.17-22.56-16.72-43.1-37.34-61.09l14.27-27c2.7.09 5.4.13 8.06.13z" fill="#2d3d4f"/><path d="m435.12 505.81a11 11 0 0 1 -11-11c0-.35 0-.7.05-1l-141.9-75.64-140.63 74.9a10.86 10.86 0 0 1 .14 1.71 11 11 0 1 1 -13-10.86l26.95-159.18-113.42-112a11 11 0 1 1 3.8-16.29l158.24-23.29 70.65-144.89a11 11 0 1 1 16.33.21l70.5 144.69 157.17 23.14a11 11 0 1 1 9.62 16.42 10.9 10.9 0 0 1 -4.69-1l-113.64 112.17 27.11 160.1a11 11 0 0 1 -2.28 21.83z" fill="#ffd100"/><path d="m283.25 13.43a7.53 7.53 0 0 1 3.75 14.09l72.52 148.85.52.07 161.26 23.74a7.53 7.53 0 1 1 7.38 9 7.45 7.45 0 0 1 -5.13-2l-117.28 115.82.07.45-122.79-40.51-.13.05.33.46 123 40.53 27.66 163.31a5.53 5.53 0 0 1 .71 0 7.53 7.53 0 1 1 -7.53 7.53 7.66 7.66 0 0 1 .57-2.88l-145.86-77.72-144.86 77.12a7.52 7.52 0 1 1 -6.69-4.09 7 7 0 0 1 1 .08l27.65-163.14.11-.66-116.83-115.37a7.53 7.53 0 1 1 1.59-7.88l162.45-23.91.27-.56 72.32-148.44a7.53 7.53 0 0 1 3.94-13.94m0-7a14.55 14.55 0 0 0 -12.35 22.21l-68.9 141.36-154.47 22.72a14.52 14.52 0 1 0 -10.29 24.77 14.24 14.24 0 0 0 4.26-.65l110.5 109.16-26.27 155.14a14.53 14.53 0 1 0 19.55 14l137-73 138.36 73.68a14.53 14.53 0 1 0 19.86-14.54l-26.45-156.17 110.77-109.38a14.7 14.7 0 0 0 3.81.5 14.53 14.53 0 1 0 -11.26-23.7l-153.22-22.53-68.74-141.1a14.52 14.52 0 0 0 -12.16-22.47z" fill="#2e3e50"/><ellipse cx="281.46" cy="273.46" fill="#2d3d4f" rx="179.97" ry="177.09"/><path d="m281.46 102.29a171.18 171.18 0 1 0 171.18 171.17 171.18 171.18 0 0 0 -171.18-171.17zm0 296c-70.06 0-126.86-55.9-126.86-124.85s56.8-124.84 126.86-124.84 126.87 55.9 126.87 124.84-56.8 124.87-126.87 124.87z" fill="#fff"/><path d="m180.61 187.23-17.07-15.23-5.54 6.18-4-3.6 15.9-17.77 4 3.61-5.58 6.23 17.07 15.28z" fill="#2d3d4f"/><path d="m192.43 174.61-17.66-22.12 15-12 3.37 4.22-9.44 7.53 3.1 3.88 8.69-6.94 3.37 4.23-8.69 6.93 4.46 5.59 9.43-7.53 3.37 4.22z" fill="#2d3d4f"/><path d="m207.74 162.08-5.05-29.45 6.83-3.69 21.87 20.36-6.39 3.48-4.3-4.24-7.83 4.23 1.19 5.92zm9.1-17.32-7-6.84 1.89 9.59z" fill="#2d3d4f"/><path d="m260.5 140.68-6.8 1.95-5.17-18-1.62 13.06-4.66 1.31-8.25-10.24 5.17 18-6.43 1.85-7.8-27.22 7.88-2.26 9.88 11.71 2.16-15.16 7.88-2.26z" fill="#2d3d4f"/><path d="m284.61 140a23.4 23.4 0 0 1 -5.71-.7 30.38 30.38 0 0 1 -4.55-1.61l.08-6.74h.65a15.77 15.77 0 0 0 4.66 2.84 14 14 0 0 0 5 1 13.78 13.78 0 0 0 1.61-.11 5.71 5.71 0 0 0 1.61-.4 3.6 3.6 0 0 0 1.27-.89 2.26 2.26 0 0 0 .53-1.52 2.09 2.09 0 0 0 -.82-1.74 5.29 5.29 0 0 0 -2-1c-1-.26-2-.52-3.08-.76a23 23 0 0 1 -3.06-.88 9.52 9.52 0 0 1 -4.68-3.17 8.11 8.11 0 0 1 -1.36-4.92 7.64 7.64 0 0 1 3.44-6.4 13.92 13.92 0 0 1 8.44-2.36 25.1 25.1 0 0 1 5 .58 21.82 21.82 0 0 1 4.46 1.44l-.08 6.47h-.63a14.11 14.11 0 0 0 -3.82-2.33 12.22 12.22 0 0 0 -4.66-1 9.55 9.55 0 0 0 -1.67.11 6.61 6.61 0 0 0 -1.57.5 3.09 3.09 0 0 0 -1.16.89 2.07 2.07 0 0 0 -.5 1.33 2.11 2.11 0 0 0 .75 1.73 7.77 7.77 0 0 0 3 1.19l2.74.66a24 24 0 0 1 2.81.87 9.66 9.66 0 0 1 4.35 2.92 7.4 7.4 0 0 1 1.38 4.76 8.15 8.15 0 0 1 -3.41 6.74q-3.37 2.5-9.02 2.5z" fill="#2d3d4f"/><path d="m313.37 142.61-15-2.56.83-4.87 4 .68 3.09-18.16-4-.69.83-4.87 15 2.56-.83 4.88-4-.69-3.09 18.17 4 .68z" fill="#2d3d4f"/><path d="m341.6 152-8.17-2.9-4-12.42-2.41-.85-3.46 9.79-6.67-2.36 9.45-26.69 10.74 3.8a23.91 23.91 0 0 1 3.77 1.65 8.87 8.87 0 0 1 2.64 2.23 7.41 7.41 0 0 1 1.45 3.13 7.28 7.28 0 0 1 -.42 3.87 8.78 8.78 0 0 1 -3.14 4.49 10.3 10.3 0 0 1 -4.77 1.73zm-4.23-22.34a4 4 0 0 0 .23-1.87 2.78 2.78 0 0 0 -.89-1.57 4.9 4.9 0 0 0 -1.28-.84c-.5-.22-1.13-.48-1.89-.75l-2.24-.79-2.55 7.16 1.92.68a15.27 15.27 0 0 0 2.44.67 3.69 3.69 0 0 0 1.91-.14 3.37 3.37 0 0 0 1.39-.86 4.92 4.92 0 0 0 .96-1.73z" fill="#2d3d4f"/><path d="m354.48 159.94-13.29-7.48 2.42-4.31 3.55 2 9-16.06-3.55-2 2.43-4.3 13.29 7.47-2.42 4.31-3.55-2-9 16 3.54 2z" fill="#2d3d4f"/><path d="m366.13 169.38q-4.42-3.6-5.06-7.68t2.71-8.19l11.42-14 5.51 4.5-11.15 13.69a7.15 7.15 0 0 0 -1.92 4.11 4.28 4.28 0 0 0 1.9 3.4 4.37 4.37 0 0 0 3.67 1.2 6.93 6.93 0 0 0 3.7-2.72l11.16-13.69 5.51 4.49-11.41 14c-2.2 2.71-4.67 4.15-7.39 4.34s-5.62-.98-8.65-3.45z" fill="#2d3d4f"/><path d="m383.72 186.6a23 23 0 0 1 -3.17-4.79 28.7 28.7 0 0 1 -1.72-4.52l5.17-4.29.41.5a15.82 15.82 0 0 0 .87 5.39 13.9 13.9 0 0 0 2.43 4.45 13 13 0 0 0 1.13 1.15 5.32 5.32 0 0 0 1.35 1 3.63 3.63 0 0 0 1.49.39 2.23 2.23 0 0 0 1.51-.58 2.13 2.13 0 0 0 .8-1.75 5.4 5.4 0 0 0 -.53-2.16c-.42-.9-.89-1.85-1.42-2.84a27 27 0 0 1 -1.32-2.89 9.59 9.59 0 0 1 -.61-5.62 8.09 8.09 0 0 1 2.86-4.23 7.64 7.64 0 0 1 7.11-1.53 13.88 13.88 0 0 1 7.26 4.9 25.06 25.06 0 0 1 2.82 4.2 22.36 22.36 0 0 1 1.79 4.33l-5 4.13-.4-.49a14 14 0 0 0 -.7-4.41 12.17 12.17 0 0 0 -2.27-4.19 9.06 9.06 0 0 0 -1.17-1.21 6.36 6.36 0 0 0 -1.39-.87 3.11 3.11 0 0 0 -1.43-.3 2 2 0 0 0 -1.34.48 2.12 2.12 0 0 0 -.83 1.69 7.81 7.81 0 0 0 1 3c.45.87.87 1.71 1.28 2.52a28.27 28.27 0 0 1 1.16 2.71 9.6 9.6 0 0 1 .59 5.2 7.36 7.36 0 0 1 -2.73 4.13 8.14 8.14 0 0 1 -7.34 1.78q-4.05-.93-7.66-5.28z" fill="#2d3d4f"/><path d="m218.82 364.62a8.09 8.09 0 0 1 -8.08-8.08v-27a8 8 0 0 1 2.17-5.5l51.75-55.64a3.09 3.09 0 0 0 -.14-4.33l-49.06-46.54a8.12 8.12 0 0 1 -2.46-5.83v-26.16a8.09 8.09 0 0 1 8.07-8.08h122.63a8.09 8.09 0 0 1 8.08 8.08v23.59a8.09 8.09 0 0 1 -8.08 8.08h-58.3a3.07 3.07 0 0 0 -2.13 5.29l38 36.72a8.1 8.1 0 0 1 2.47 5.81v4.13a8 8 0 0 1 -2.17 5.5l-41.9 45a3.08 3.08 0 0 0 2.26 5.18h66.15a8.08 8.08 0 0 1 8.07 8.07v23.59a8.08 8.08 0 0 1 -8.07 8.08z" fill="#f1c410"/><g fill="#2d3d4f"><path d="m343.7 180a5.58 5.58 0 0 1 5.58 5.58v23.59a5.58 5.58 0 0 1 -5.58 5.58h-58.3a5.58 5.58 0 0 0 -3.87 9.59l38 36.72a5.58 5.58 0 0 1 1.71 4v4.13a5.58 5.58 0 0 1 -1.5 3.79l-41.87 45.02a5.58 5.58 0 0 0 4.09 9.38h66.15a5.57 5.57 0 0 1 5.57 5.57v23.59a5.57 5.57 0 0 1 -5.57 5.58h-129.29a5.58 5.58 0 0 1 -5.58-5.58v-27a5.58 5.58 0 0 1 1.5-3.8l51.75-55.64a5.58 5.58 0 0 0 -.24-7.84l-49.06-46.54a5.6 5.6 0 0 1 -1.74-4.05v-26.13a5.57 5.57 0 0 1 5.55-5.54zm0-5h-122.7a10.59 10.59 0 0 0 -10.57 10.58v26.12a10.63 10.63 0 0 0 3.29 7.67l49.06 46.54a.59.59 0 0 1 0 .82l-51.75 55.64a10.52 10.52 0 0 0 -2.84 7.2v27a10.6 10.6 0 0 0 10.58 10.58h129.34a10.59 10.59 0 0 0 10.57-10.58v-23.57a10.58 10.58 0 0 0 -10.57-10.57h-66.11a.58.58 0 0 1 -.43-1l41.9-45.05a10.52 10.52 0 0 0 2.84-7.2v-4.18a10.65 10.65 0 0 0 -3.23-7.61l-38.08-36.69a.58.58 0 0 1 .4-1h58.3a10.59 10.59 0 0 0 10.58-10.58v-23.58a10.59 10.59 0 0 0 -10.58-10.54z"/><path d="m160.26 367.41a8.5 8.5 0 0 1 -3.76 1.19 7.91 7.91 0 0 1 -3.5-.6 10.2 10.2 0 0 1 -3.42-2.26 19 19 0 0 1 -3-4.12l-5.83-10.26 25.63-14.56 5.14 9.05a37.46 37.46 0 0 1 2.22 4.4 9.58 9.58 0 0 1 .64 3.24 5.69 5.69 0 0 1 -.81 3.19 6.71 6.71 0 0 1 -2.47 2.3 7 7 0 0 1 -3.87 1 6.33 6.33 0 0 1 -3.62-1.37l-.14.08a8.12 8.12 0 0 1 .12 5 6.74 6.74 0 0 1 -3.33 3.72zm-3.64-6.69a3.61 3.61 0 0 0 1.58-1.54 3.36 3.36 0 0 0 .2-2 5.8 5.8 0 0 0 -.67-1.76q-.55-1-1.53-2.76l-.67-1.18-6.43 3.64.2.35c.95 1.67 1.62 2.83 2 3.46a6.13 6.13 0 0 0 1.58 1.69 2.88 2.88 0 0 0 1.84.65 3.81 3.81 0 0 0 1.9-.55zm9.49-7.54a3.28 3.28 0 0 0 1.1-1 2.23 2.23 0 0 0 .38-1.53 4.74 4.74 0 0 0 -.55-1.67c-.32-.59-.8-1.46-1.45-2.61l-.25-.45-5.43 3.08.46.81c.63 1.1 1.08 1.87 1.35 2.3a4.47 4.47 0 0 0 1.14 1.16 2.38 2.38 0 0 0 1.61.5 4.08 4.08 0 0 0 1.64-.59z"/><path d="m164.66 387.69c-2.63-3-3.95-5.87-3.93-8.73s1.39-5.52 4.14-8l14.06-12.52 4.92 5.53-13.73 12.23a7.48 7.48 0 0 0 -2.65 3.9 4.48 4.48 0 0 0 1.39 3.82 4.57 4.57 0 0 0 3.57 1.84 7.23 7.23 0 0 0 4.26-2.18l13.73-12.23 4.93 5.53-14 12.5c-2.71 2.42-5.48 3.49-8.32 3.24s-5.66-1.88-8.37-4.93z"/><path d="m202.48 419-7.29-5.32-.26-13.57-2.15-1.57-6.37 8.73-5.95-4.34 17.38-23.81 9.58 7a26.68 26.68 0 0 1 3.27 2.77 9.12 9.12 0 0 1 2 3 7.77 7.77 0 0 1 .52 3.55 7.63 7.63 0 0 1 -1.58 3.74 9.2 9.2 0 0 1 -4.47 3.54 10.71 10.71 0 0 1 -5.27.3zm2.43-23.54a4 4 0 0 0 .78-1.79 2.8 2.8 0 0 0 -.41-1.84 5 5 0 0 0 -1-1.21c-.42-.38-1-.82-1.66-1.32l-2-1.46-4.68 6.42 1.71 1.25a16.07 16.07 0 0 0 2.23 1.39 3.89 3.89 0 0 0 2 .43 3.46 3.46 0 0 0 1.64-.44 5 5 0 0 0 1.39-1.48z"/><path d="m207.77 421.36 12.34-26.77 18.11 8.35-2.36 5.1-11.41-5.26-2.17 4.69 10.52 4.85-2.35 5.11-10.52-4.85-3.12 6.76 11.42 5.26-2.36 5.11z"/><path d="m230.82 431.79 16.67-26.28 7.84 1.92 2.68 31-7.4-1.81-.36-6.28-9-2.2-3.25 5.41zm19.12-7-.62-10.16-5.23 8.73z"/><path d="m276.61 440.09q-5.94-.18-9-3.15t-2.94-8.48l.57-18.82 7.4.22-.64 18.39a7.45 7.45 0 0 0 1 4.6 4.44 4.44 0 0 0 3.72 1.62 4.6 4.6 0 0 0 3.8-1.33 7.25 7.25 0 0 0 1.34-4.59l.56-18.38 7.4.22-.58 18.8c-.11 3.63-1.23 6.38-3.37 8.27s-5.18 2.76-9.26 2.63z"/><path d="m308.64 437.8 1.93-31.05 7.8-2.1 17.29 25.86-7.36 2-3.3-5.34-9 2.41-.21 6.29zm13.36-15.37-5.44-8.6-.37 10.17z"/><path d="m341.52 427.85-13-26.48 17.9-8.77 2.47 5-11.28 5.53 2.27 4.64 10.4-5.09 2.47 5-10.4 5.09 3.28 6.69 11.37-5.46 2.47 5.05z"/><path d="m385.34 398.24a36 36 0 0 1 -3 4.3 26 26 0 0 1 -4.38 4.33c-3.67 2.83-7.4 4-11.22 3.59s-7.21-2.59-10.21-6.48q-4.25-5.49-3.52-11.31t6.39-10.21a21 21 0 0 1 5.19-3.12 31.52 31.52 0 0 1 5-1.42l4.22 5.47-.53.41h-1.94a16.84 16.84 0 0 0 -2.33.16 13.37 13.37 0 0 0 -2.7.71 10.14 10.14 0 0 0 -2.71 1.52 9.34 9.34 0 0 0 -2.38 2.59 7.81 7.81 0 0 0 -1.1 3.14 8.39 8.39 0 0 0 .38 3.52 12.1 12.1 0 0 0 2 3.77c2.11 2.72 4.34 4.21 6.71 4.45a9.93 9.93 0 0 0 7.11-2.39l.73-.59c.27-.23.51-.43.7-.61l-3.53-4.58-4.53 3.5-3.38-4.37 10.2-7.88z"/><path d="m402.41 382-10.41 11.94-3.87-3.39 2.79-3.18-14.43-12.64-2.79 3.19-3.88-3.4 10.46-11.94 3.88 3.39-2.8 3.19 14.44 12.64 2.79-3.19z"/><path d="m412.57 368.77a24.5 24.5 0 0 1 -3.76 4.66 30.57 30.57 0 0 1 -3.94 3.12l-5.9-3.78.37-.57a16.79 16.79 0 0 0 5.07-2.55 14.6 14.6 0 0 0 3.65-3.82 13.19 13.19 0 0 0 .79-1.48 5.76 5.76 0 0 0 .54-1.64 3.63 3.63 0 0 0 -.09-1.61 2.24 2.24 0 0 0 -1.05-1.31 2.18 2.18 0 0 0 -2-.24 5.63 5.63 0 0 0 -2 1.2c-.76.7-1.55 1.47-2.37 2.3a27.39 27.39 0 0 1 -2.46 2.22 9.93 9.93 0 0 1 -5.39 2.37 8.39 8.39 0 0 1 -5.09-1.51 8 8 0 0 1 -3.75-6.57 14.43 14.43 0 0 1 2.57-8.74 26.49 26.49 0 0 1 3.28-4.12 22.67 22.67 0 0 1 3.74-3.14l5.66 3.64-.35.55a14.77 14.77 0 0 0 -4.17 2.08 12.84 12.84 0 0 0 -3.44 3.57 9.73 9.73 0 0 0 -.82 1.54 6.41 6.41 0 0 0 -.43 1.65 3.29 3.29 0 0 0 .14 1.52 2.29 2.29 0 0 0 2.84 1.47 8 8 0 0 0 2.69-2l2.09-2.05a26.83 26.83 0 0 1 2.32-2 10 10 0 0 1 5-2.23 7.6 7.6 0 0 1 5 1.41 8.53 8.53 0 0 1 4.08 6.73q.36 4.39-2.82 9.33z"/></g></svg>