<?xml version="1.0" encoding="UTF-8"?>
<svg id="uuid-bf1ec183-ab41-4429-b700-d99fff922d84" xmlns="http://www.w3.org/2000/svg" version="1.1" viewBox="0 0 566.9 566.9">
  <!-- Generator: Adobe Illustrator 29.0.1, SVG Export Plug-In . SVG Version: 2.1.0 Build 192)  -->
  <defs>
    <style>
      .st0 {
        fill: #256ea0;
      }

      .st1 {
        isolation: isolate;
      }

      .st2 {
        fill: #1d1d1b;
      }

      .st3 {
        fill: #9b1f18;
      }

      .st4 {
        fill: #fefefe;
      }
    </style>
  </defs>
  <g>
    <circle class="st0" cx="283.5" cy="283.5" r="279.2"/>
    <path class="st4" d="M285.2,63.2c-120.1-2.6-222.8,102.1-222.9,222,0,120.1,102.7,222.8,222.5,222.9,120.1,0,222.8-102.7,222.9-222.5,0-120.1-102.6-224.7-222.5-222.3h0Z"/>
    <g class="st1">
      <g class="st1">
        <path class="st4" d="M21.3,239.7l5.4-25.1,5.6,1.2-3.8,17.9,4.5,1,3.7-17,5.5,1.2-3.7,17,8.2,1.8-1.6,7.2-23.8-5.1Z"/>
      </g>
    </g>
    <g class="st1">
      <g class="st1">
        <path class="st4" d="M58.9,194.8l-4.6.6-5.3,15.2,3.2,3.3-2.8,8-18.8-20.1,3.8-10.9,27.1-4.1-2.7,7.9ZM48.4,196.2l-10.2,1.4-.5,1.4,7.2,7.4,3.5-10.2Z"/>
      </g>
    </g>
    <g class="st1">
      <g class="st1">
        <path class="st4" d="M38.2,180.5l12.8-26.5,5.6,2.7-4.7,9.7,16.3,7.9-3.4,7-16.3-7.9-4.7,9.7-5.6-2.7Z"/>
      </g>
    </g>
    <g class="st1">
      <g class="st1">
        <path class="st4" d="M53.1,150.4l4.3-6.5,7.3,4.8,9.2-13.9-7.2-4.8,4.3-6.5,20.3,13.4-4.3,6.5-7.4-4.9-9.2,13.9,7.4,4.9-4.3,6.5-20.3-13.4Z"/>
      </g>
    </g>
    <g class="st1">
      <g class="st1">
        <path class="st4" d="M74.6,118.9l17.7-20.3,4.3,3.8-12.9,14.8,2.6,2.3,12.2-14,4,3.5-12.2,14,2.9,2.6,13-14.9,4.4,3.8-17.8,20.4-18.3-16Z"/>
      </g>
    </g>
    <g class="st1">
      <g class="st1">
        <path class="st4" d="M111.8,113.3l-16.2-18.1,13.4-11.9c3.1-2.8,5.1-4.4,5.7-4.9.7-.5,1.5-.8,2.3-1,1.1-.2,2,0,3,.5.9.5,2.1,1.5,3.5,3.1,1.2,1.3,2,2.4,2.3,3.1.4.8.5,1.5.4,2.3-.1.8-.6,1.8-1.5,2.8,1.2-.9,2.4-1.4,3.4-1.2.6,0,1.2.3,1.7.8.5.4,1.5,1.4,2.9,3l1.5,1.7-5.5,4.9-.9-1c-.9-1-1.6-1.7-2-2.1-.5-.4-.9-.6-1.3-.6-.4,0-.8,0-1.2.3s-1.2.9-2.3,1.9l-7.8,6.9,4.1,4.6-5.5,4.9ZM109.2,99.2l7.8-6.9c1.3-1.2,2.1-2,2.4-2.2.2-.3.4-.5.5-.8.1-.4,0-.7,0-1.1-.2-.4-.5-.9-1.1-1.5-.5-.6-1-1-1.4-1.2-.4-.2-.8-.2-1.1-.1-.3,0-.6.2-.8.5-.3.2-1.1.9-2.4,2l-7.8,6.9,4,4.5Z"/>
      </g>
    </g>
    <g class="st1">
      <g class="st1">
        <path class="st4" d="M128.8,83.8l12.4-9,2.9,4-12.4,9-2.9-4Z"/>
      </g>
    </g>
    <g class="st1">
      <g class="st1">
        <path class="st4" d="M136.3,61.9l6.4-3.7,4.4,7.6,3.5-2,3.8-12.6,9.8-5.7-6.1,17.5,19.4,3-9.7,5.7-14.1-2.6-3.5,2,4.7,8-6.4,3.7-12.2-21Z"/>
      </g>
    </g>
    <g class="st1">
      <g class="st1">
        <path class="st4" d="M168.7,43.4l12-4.9,18.6,12.1.7-.3-6.9-16.7,7-2.8,9.1,22.5-11.9,4.8-18.6-12-.7.3,6.9,16.8-7,2.8-9.1-22.5Z"/>
      </g>
    </g>
    <g class="st1">
      <g class="st1">
        <path class="st4" d="M205.2,29.7l7.5-2.2,6.8,23.3-7.5,2.2-6.8-23.3Z"/>
      </g>
    </g>
    <g class="st1">
      <g class="st1">
        <path class="st4" d="M234,33.2l16.6-3.2c0,.4.2.6.2.6.7,3.4,1.1,5.9,1.2,7.7.3,2.8-1,4.8-3.7,5.9-1.2.5-2.5.9-4.1,1.3-1.6.4-4,.9-7.2,1.5-4.1.8-7,1.3-8.8,1.4-1.7.1-3.2,0-4.3-.5-.8-.3-1.4-.8-1.9-1.4-.5-.6-.9-1.5-1.3-2.7-.4-1.1-.8-3.2-1.5-6.4-.4-2.2-.7-3.8-.8-5,0-1.1,0-2.2.1-3.1.3-2,1.6-3.4,3.7-4.2,2.4-.9,6.1-1.9,11.1-2.8,3-.6,5.4-1,7.2-1.2,1.8-.2,3.3-.2,4.5,0,1.9.2,3.3,1.2,4,3.1.4.9.7,2.2,1.1,3.8l-7.3,1.4c-.1-.7-.3-1.1-.4-1.3-.1-.2-.3-.4-.6-.5-.5-.2-1.3-.2-2.7,0-1.2.2-3,.5-5.3.9-2.5.5-4.3.9-5.4,1.2-1.1.3-1.8.7-2.1,1.1-.3.4-.5,1-.5,1.8,0,.8.2,2,.5,3.8.4,2,.7,3.4,1,4.2.3.8.7,1.3,1.1,1.5.5.2,1,.3,1.7.3.6,0,2.7-.4,6.1-1,3.3-.7,5.3-1.1,6-1.3.7-.2,1.3-.4,1.7-.7.3-.2.5-.5.6-.9,0-.4,0-.9,0-1.6,0-.1,0-.3-.1-.7l-9.6,1.9-.9-4.8Z"/>
      </g>
    </g>
    <g class="st1">
      <g class="st1">
        <path class="st4" d="M254.2,19l7.8-.4.4,8.7,16.7-.8-.4-8.7,7.8-.4,1.2,24.3-7.8.4-.4-8.8-16.7.8.4,8.8-7.8.4-1.2-24.3Z"/>
      </g>
    </g>
    <g class="st1">
      <g class="st1">
        <path class="st4" d="M290.6,17.6l29.3,2.4-.5,6.2-10.8-.9-1.5,18-7.8-.6,1.5-18-10.8-.9.5-6.2Z"/>
      </g>
    </g>
    <g class="st1">
      <g class="st1">
        <path class="st4" d="M320.3,36.5l7,1.5c-.3,1.2-.2,2,.2,2.4.3.3.7.5,1.3.7s2.3.6,5.2,1.2c3.1.6,4.9,1,5.5,1.1.6.1,1.1.1,1.5,0,.6-.1,1-.6,1.2-1.6.1-.7,0-1.2-.3-1.5s-1.1-.6-2.2-.9c-.9-.2-2.8-.7-5.6-1.4-2.9-.8-4.8-1.3-5.7-1.5-1.7-.4-3-.9-3.9-1.3-.9-.5-1.5-1.1-1.9-1.8-.7-1.2-.8-3-.3-5.4.6-2.7,1.5-4.5,2.7-5.4,1-.7,2.3-1,3.9-.9,1.7.1,5,.7,9.9,1.7,3.5.7,5.9,1.4,7.3,1.9,2.1.8,3.5,1.7,4.1,2.8s.7,2.7.2,4.9c0,.2-.1.6-.3,1.1l-7-1.5c.1-.7.2-1.1.1-1.4,0-.3-.2-.5-.4-.7-.3-.3-.8-.5-1.6-.7-.8-.2-2.4-.6-5-1.1-3.1-.7-5-1-5.7-.9-.7,0-1.2.5-1.3,1.4-.2.8,0,1.4.7,1.7.5.3,3.1,1,7.6,2.1,3.8.9,6.4,1.6,7.6,2,1.3.4,2.2.9,2.9,1.6.8.7,1.2,1.6,1.4,2.5s0,2.3-.3,4c-.5,2.2-1.1,3.8-2,4.8-.6.7-1.4,1.2-2.3,1.4s-2.1.2-3.6,0c-1.6-.2-4.5-.7-8.8-1.6-3.6-.8-6.2-1.4-7.9-2-1.7-.5-2.9-1.2-3.6-1.8-.8-.7-1.3-1.5-1.4-2.4-.2-.9,0-2.2.3-3.9l.2-1.1Z"/>
      </g>
    </g>
    <g class="st1">
      <g class="st1">
        <path class="st4" d="M383,53.3l6.9,2.7c-.4,1.1-.6,1.8-.8,2.2-.7,1.7-1.5,3-2.4,3.8-1,.9-2.4,1.2-4.2.9-1.8-.3-4.8-1.2-8.9-2.8-4.3-1.7-7.3-3-9.1-3.9-1.8-.9-3-1.7-3.8-2.6-.7-.8-1-1.6-1.2-2.5-.1-.9,0-2,.4-3.3.3-1.1,1-2.9,2-5.6,1-2.6,1.8-4.5,2.4-5.6.6-1.1,1.1-1.9,1.6-2.5,1.2-1.2,2.8-1.6,4.9-1.3,2.1.3,6.1,1.6,11.9,3.9,2.9,1.1,5,2,6.3,2.7,1.3.7,2.2,1.3,2.9,2,.8.9,1.3,1.9,1.3,3s-.3,2.6-1,4.5c0,0-.2.5-.5,1.1l-6.9-2.7c.3-.8.4-1.3.5-1.6,0-.3,0-.5-.1-.8-.2-.3-.8-.8-1.8-1.3-1-.5-2.6-1.2-4.8-2.1-2.2-.8-3.7-1.4-4.5-1.6-.9-.2-1.5-.3-2-.1-.5.2-1,.6-1.5,1.3s-1,1.9-1.7,3.7c-.7,1.7-1.1,2.9-1.2,3.7-.1.8,0,1.4.2,1.8.3.5.8.9,1.6,1.3.8.4,2.3,1.1,4.4,1.9,2.6,1,4.4,1.7,5.3,1.9s1.6.3,2,.1c.6-.2,1.1-1,1.7-2.4Z"/>
      </g>
    </g>
    <g class="st1">
      <g class="st1">
        <path class="st4" d="M388.2,65.6l11.8-21.2,15.6,8.7c3.7,2.1,5.8,3.3,6.5,3.8.7.5,1.3,1.1,1.7,1.9.5.9.7,1.9.5,2.9-.2,1-.8,2.5-1.8,4.3-.9,1.5-1.6,2.6-2.2,3.2-.6.6-1.3,1-2.1,1.1-.8.1-1.9,0-3.1-.5,1.3.9,2.1,1.8,2.3,2.8.1.6,0,1.2-.2,1.8-.2.6-.9,1.9-1.9,3.7l-1.1,2-6.4-3.6.6-1.1c.7-1.2,1.1-2,1.3-2.6.2-.6.2-1,.2-1.4,0-.4-.3-.7-.7-1-.4-.3-1.2-.8-2.6-1.6l-9.1-5.1-3,5.4-6.5-3.6ZM400.6,58.5l9.1,5.1c1.6.9,2.6,1.4,2.9,1.5.3.1.6.2.9.2.4,0,.7-.2,1-.5.3-.3.7-.8,1.1-1.5.4-.7.6-1.3.7-1.7,0-.4,0-.8-.3-1.1-.2-.2-.4-.4-.7-.6-.3-.2-1.2-.7-2.7-1.6l-9.1-5.1-2.9,5.2Z"/>
      </g>
    </g>
    <g class="st1">
      <g class="st1">
        <path class="st4" d="M430.7,61.8l5.9,4.5-6.7,8.9c-1.5,2.1-2.4,3.4-2.7,4-.4.9-.3,1.7.3,2.6.7.9,2.2,2.2,4.8,4.1,2,1.5,3.5,2.6,4.4,3,.9.5,1.6.7,2.2.6.4,0,.8-.3,1.1-.5.4-.3.9-.8,1.6-1.7.7-.8,1.3-1.5,1.7-2.1l6.7-8.9,5.9,4.5-6.7,8.9c-2.4,3-4,5-4.9,5.9-1.5,1.5-3.1,2.1-5,1.8-1.1-.1-2.4-.6-3.8-1.5-1.5-.9-3.8-2.5-6.9-4.8-2.3-1.8-4.1-3.2-5.3-4.2-1.2-1-2.2-2-3-3-1.7-2.1-2-4.2-.8-6.5.4-.9.9-1.6,1.3-2.3.4-.7,1.5-2.1,3.2-4.4l6.7-8.9Z"/>
      </g>
    </g>
    <g class="st1">
      <g class="st1">
        <path class="st4" d="M459.7,84l7.1,7.2-.8,11.3,11.4-.6,7.2,7.3h-16.8c0,.1-.1,17.5-.1,17.5l-7.3-7.4.6-11.8-11.8.5-7.5-7.6,17.5.2.5-16.6Z"/>
      </g>
    </g>
    <g class="st1">
      <g class="st1">
        <path class="st4" d="M492.5,119.1l16.9,24.1-5.1,3.6-6.2-8.9-14.8,10.4-4.5-6.4,14.8-10.4-6.2-8.9,5.1-3.6Z"/>
      </g>
    </g>
    <g class="st1">
      <g class="st1">
        <path class="st4" d="M511.4,146.6l12.7,23.7-5,2.7-9.3-17.3-3.1,1.7,8.8,16.4-4.7,2.5-8.8-16.4-3.4,1.8,9.3,17.4-5.1,2.8-12.8-23.9,21.4-11.5Z"/>
      </g>
    </g>
    <g class="st1">
      <g class="st1">
        <path class="st4" d="M512.8,207.9l3.1-3.4-5.7-15-4.6-.5-3-7.9,27.3,3.5,4.1,10.8-18.3,20.5-3-7.9ZM520,200.2l7-7.6-.5-1.4-10.3-1.1,3.8,10.1Z"/>
      </g>
    </g>
    <g class="st1">
      <g class="st1">
        <path class="st4" d="M539.8,211.2l2.6,13.2-14,10.2,16.9,4,2.6,13.1-23.8,4.8-1.4-7.2,17.9-3.4-.2-1.2-19.6-5.4-1.2-6,16-12.6-.3-1.3-17.8,3.8-1.4-7.2,23.8-4.8Z"/>
      </g>
    </g>
    <g class="st1">
      <g class="st1">
        <path class="st4" d="M117.1,494.7l19-28.6,20.7,13.7c3.7,2.4,6,4,7.1,4.8,1.1.8,2.2,1.7,3.2,2.8,2.5,2.5,3.3,5.3,2.4,8.6-.3,1.2-.8,2.4-1.5,3.7-.7,1.2-1.8,3-3.3,5.3-1.7,2.6-3,4.5-4,5.7s-2,2.3-3.1,3.1c-2.5,2-5.3,2.3-8.4,1.2-1.4-.5-2.9-1.2-4.4-2.1-1.5-.8-3.8-2.3-7-4.5l-20.7-13.7ZM130.5,493.1l12.1,8c2.2,1.5,3.9,2.5,5.1,3.1,1.2.6,2.1.8,2.7.7.7,0,1.5-.5,2.3-1.3.8-.8,1.8-2,2.9-3.8,1.2-1.8,2-3.2,2.4-4.2.4-1,.6-1.9.5-2.6-.1-.8-.6-1.6-1.4-2.4-.8-.7-2.5-2-5.2-3.8l-12.1-8-9.4,14.2Z"/>
      </g>
    </g>
    <g class="st1">
      <g class="st1">
        <path class="st4" d="M186.2,524.9l8.3,3.6c-1.3,2.3-2.8,3.8-4.5,4.3-1.5.5-3.3.5-5.4,0s-5.2-1.6-9.1-3.3c-3.2-1.4-5.7-2.7-7.3-3.7-1.6-1.1-2.7-2.2-3.4-3.4-.7-1.3-1-2.7-.8-4.2.2-1.5.9-3.7,2.1-6.5.9-2.1,1.7-3.7,2.3-4.7.6-1,1.3-1.8,2.1-2.5,1.7-1.4,3.8-1.9,6.4-1.4,2.2.4,5.4,1.5,9.6,3.4,3.7,1.6,6.3,2.9,7.7,3.8,2.5,1.6,3.9,3.5,4.3,5.5.3,2-.3,4.9-1.9,8.5-.2.4-.5,1.1-1,2.2l-21.9-9.5c-.5,1.1-.8,2-.8,2.5,0,.6,0,1.1.3,1.6.6,1,2.3,2.1,5.2,3.4,1.9.8,3.3,1.3,4.3,1.6,1,.3,1.7.3,2.2.1.4-.2.8-.5,1.2-1.2ZM189.3,518.1c.4-.9.6-1.5.6-1.9,0-.4,0-.7-.1-1.1-.4-1.1-2.2-2.3-5.3-3.6-2.8-1.2-4.8-1.8-5.9-1.7s-2.1.9-2.8,2.4l13.5,5.9Z"/>
      </g>
    </g>
    <g class="st1">
      <g class="st1">
        <path class="st4" d="M220.4,518.1c4,1.1,7,2,8.9,2.9,1.9.8,3.3,1.8,4.2,2.9.9,1.2,1.4,2.5,1.5,3.9,0,1.5-.3,3.7-1.1,6.6-.6,2.2-1.1,3.8-1.5,4.9-.4,1.1-.9,2-1.5,2.8-1.4,2-3.5,2.9-6.3,2.8-2.3,0-5.9-.8-10.8-2.1-4.4-1.2-7.5-2.2-9.3-3-1.8-.8-3.2-1.9-4-3.1-.8-1.2-1.3-2.5-1.2-4.1,0-1.5.5-4,1.4-7.4.5-1.9,1-3.4,1.4-4.4.4-1,1-1.8,1.6-2.5,1.4-1.5,3.2-2.2,5.5-2.3,2.3,0,6,.6,11.3,2ZM218.7,524.7c-2.9-.8-4.9-1.1-6.1-.9-.8.1-1.5.6-2,1.3-.5.7-1,1.8-1.4,3.4-.4,1.5-.6,2.7-.5,3.4,0,.7.4,1.4,1.1,1.9,1,.8,2.9,1.6,5.8,2.4,3.3.9,5.6,1.1,6.7.7s2-1.9,2.7-4.4c.4-1.6.6-2.7.5-3.5-.1-.8-.5-1.5-1.2-2-1-.8-2.8-1.5-5.6-2.3Z"/>
      </g>
    </g>
    <g class="st1">
      <g class="st1">
        <path class="st4" d="M250.2,516l11.5.4,11.6,26.2h2c0,0,13.3-25.2,13.3-25.2l11.4.4-18,33.7-16.1-.6-15.7-34.9Z"/>
      </g>
    </g>
    <g class="st1">
      <g class="st1">
        <path class="st4" d="M300.5,516.5l9.1-.8.6,6.8-9.1.8-.6-6.8ZM301.4,526.4l9.1-.8,2.2,24.3-9.1.8-2.2-24.3Z"/>
      </g>
    </g>
    <g class="st1">
      <g class="st1">
        <path class="st4" d="M314.4,525.6l8.4-1.6.7,3.7h.5c.5-1.8,1.5-3.1,2.9-4.1,1.4-.9,3.6-1.7,6.4-2.3,2.9-.6,5.2-.8,6.9-.6,1.7.1,3.2.6,4.5,1.5,1.3.9,2.3,2,2.9,3.3.6,1.3,1.2,3.6,1.9,6.9l2.1,10.9-8.9,1.8-2.1-10.9c-.4-1.9-.7-3.2-1-3.9-.3-.7-.7-1.2-1.3-1.6-1-.7-3.1-.7-6.3-.1-3.1.6-5,1.5-5.8,2.8-.4.7-.6,1.5-.6,2.3,0,.9.2,2.4.6,4.6l1.9,9.6-8.9,1.8-4.7-23.9Z"/>
      </g>
    </g>
    <g class="st1">
      <g class="st1">
        <path class="st4" d="M378.7,497.5l11.6,32.3-8.1,2.9-1.1-3-.5.2c-.2,1.3-.6,2.2-1.2,2.9-1.2,1.5-3.8,2.9-7.6,4.3-3.1,1.1-5.5,1.8-7.3,2-1.8.2-3.4,0-4.7-.5-1.3-.5-2.3-1.4-3.2-2.7-.9-1.3-1.8-3.3-2.8-6.2-.7-2-1.2-3.6-1.4-4.9-.2-1.3-.3-2.4-.1-3.5.3-2,1.5-3.7,3.5-5.1,1.5-1,4-2.1,7.4-3.4,3-1.1,5.3-1.6,6.7-1.6,1.5,0,2.9.6,4.2,1.8h.4c0-.1-4.5-12.6-4.5-12.6l8.6-3.1ZM368.4,518.5c-3.4,1.2-5.4,2.3-6.1,3.3-.7,1-.7,2.6.1,4.9.6,1.7,1.2,2.9,1.8,3.5.5.6,1.3,1,2.1,1,1.2,0,3-.4,5.6-1.3,3.2-1.1,5.2-2.2,6-3.3.4-.5.6-1.1.6-1.9,0-.8-.3-1.8-.8-3.2-.6-1.6-1.1-2.7-1.7-3.3-.5-.6-1.2-1-2.1-1-1.2,0-3.1.4-5.6,1.3Z"/>
      </g>
    </g>
    <g class="st1">
      <g class="st1">
        <path class="st4" d="M381,495.8l8.2-4,3,6.2-8.2,4-3-6.2ZM385.4,504.8l8.2-4,10.6,22-8.2,4-10.6-22Z"/>
      </g>
    </g>
    <g class="st1">
      <g class="st1">
        <path class="st4" d="M424.8,499.7l7.9-4.9c1,1.8,1.6,3.2,1.9,4.3.3,1.1.3,2.2,0,3.3-.4,1.6-1.3,3.1-2.8,4.5-1.5,1.4-4.3,3.3-8.3,5.8-3.2,2-5.7,3.3-7.4,4-1.8.7-3.4,1-4.9.9-1.4,0-2.8-.7-4-1.8-1.2-1.1-2.6-3-4.3-5.7-1.5-2.5-2.5-4.5-2.9-6-.4-1.5-.4-2.9,0-4.2.5-1.4,1.5-2.8,3-4.1,1.5-1.3,4-3.1,7.5-5.2,3.4-2.1,6.1-3.6,8.1-4.3s3.7-1.1,5.1-.9c1.2.2,2.3.6,3.3,1.4.9.8,2,2.1,3.3,4l-7.9,4.9c-.9-1.1-1.9-1.6-3.1-1.5-1.2.1-2.9.9-5.2,2.3-2.3,1.4-3.8,2.6-4.4,3.6-.4.6-.5,1.4-.3,2.2.2.8.7,1.9,1.5,3.3.8,1.3,1.5,2.2,2.2,2.7.6.5,1.4.6,2.2.5,1.2-.2,3-.9,5.2-2.3,2.3-1.4,3.7-2.6,4.3-3.5.6-.9.6-2.1,0-3.3Z"/>
      </g>
    </g>
    <g class="st1">
      <g class="st1">
        <path class="st4" d="M455.8,478.5l7-5.8c1.5,2.2,2.1,4.2,1.8,5.9-.2,1.5-1.1,3.1-2.5,4.8s-3.7,3.9-7,6.7c-2.7,2.3-4.9,3.9-6.6,4.8-1.7,1-3.2,1.5-4.6,1.5-1.5,0-2.9-.3-4.1-1.2-1.3-.9-2.9-2.5-4.9-4.8-1.5-1.8-2.5-3.2-3.2-4.2-.6-1-1.1-2-1.3-3-.5-2.1,0-4.2,1.6-6.3,1.3-1.8,3.8-4.2,7.3-7.1,3.1-2.6,5.4-4.3,6.9-5.2,2.6-1.5,4.9-2,6.8-1.4,1.9.6,4.2,2.4,6.8,5.5.2.3.8.9,1.5,1.9l-18.3,15.3c.8,1,1.4,1.6,1.9,1.9s1,.4,1.6.4c1.1,0,2.9-1.1,5.4-3.2,1.6-1.3,2.7-2.3,3.3-3.1.7-.8,1-1.4,1.1-1.9,0-.4-.1-1-.5-1.6ZM451.2,472.7c-.6-.7-1.1-1.2-1.4-1.4-.3-.2-.6-.3-1-.4-1.1-.1-3,.9-5.6,3.1-2.4,2-3.7,3.5-4.2,4.5-.4,1-.1,2.2.9,3.6l11.3-9.4Z"/>
      </g>
    </g>
  </g>
  <g>
    <g>
      <path class="st3" d="M382.3,192.2s0,0,0-.1c-.1,0,0,0,0,.1Z"/>
      <path class="st3" d="M424.1,222.5c-30.4,1.8-30.4-30.4-30.4-30.4,0,0-10.8.5-11.5.1-.7,23.6-25.5,28.6-25.5,28.6h-55.9s0-55.4,0-54.2c0-23.7,30.4-21.9,30.4-21.9v-10.3c-30.4-.6-31-29.1-31-29.1h-33.7s-.6,28.5-31,29.1v10.3s30.4-1.8,30.4,21.9c0-1.2,0,54.2,0,54.2h-55.9s-24.8-5.1-25.5-28.6c-.8.4-11.5-.1-11.5-.1,0,0,0,32.2-30.4,30.4-.6,1.8,0,35.8,0,35.8,0,0,32.2-3,31.6,29.1-.6,1.2,13.4,0,13.4,0,0,0-7.3-26.1,20.6-31,0,1.2,58.3,0,58.3,0v142.6s.6,23.1-31,21.2c-.6.6,0,14.6,0,14.6,0,0,31.6-.6,30.4,26.7,0-.6,17.5,0,17.5,0,0,0,17.5-.6,17.5,0-1.2-27.3,30.4-26.7,30.4-26.7,0,0,.6-14,0-14.6-31.6,1.8-31-21.2-31-21.2v-142.6s58.3,1.2,58.3,0c27.9,4.9,20.6,31,20.6,31,0,0,14,1.2,13.4,0-.6-32.2,31.6-29.1,31.6-29.1,0,0,.6-34,0-35.8h0Z"/>
      <path class="st3" d="M184.7,192.1s0,0,0,.1c0,0,0,0,0-.1Z"/>
    </g>
    <path class="st2" d="M282.8,461.6c-1.8-47.4-3.4-116.4-4.5-164.5-1.4-41.1-2.6-82.3.6-123.4.9-13.7,2-27.4,3.9-41.1h1.3c7.1,54.6,6.7,109.6,4.5,164.5-1.1,48.3-2.7,116.8-4.5,164.5h-1.3Z"/>
    <path class="st2" d="M164.6,240.1c39.5-5.1,79.1-6.3,118.8-6.5,39.7.1,79.3,1.3,118.8,6.5-39.5,5.1-79.1,6.3-118.8,6.5-39.7-.2-79.3-1.4-118.8-6.5h0Z"/>
  </g>
</svg>