<?xml version="1.0" encoding="UTF-8"?>
<svg id="Capa_2" xmlns="http://www.w3.org/2000/svg" version="1.1" viewBox="0 0 566.9 566.9">
  <!-- Generator: Adobe Illustrator 29.0.1, SVG Export Plug-In . SVG Version: 2.1.0 Build 192)  -->
  <defs>
    <style>
      .st0 {
        fill: #f6f6f6;
      }

      .st1 {
        fill: none;
        stroke: #cc1333;
        stroke-miterlimit: 10;
        stroke-width: 10px;
      }

      .st2 {
        fill: #fff;
      }

      .st3 {
        fill: #cc1333;
      }
    </style>
  </defs>
  <ellipse class="st0" cx="283.5" cy="283.5" rx="279.5" ry="279.2"/>
  <g>
    <path class="st3" d="M548.4,253.4c-14.4-132.8-127.7-236.5-264.9-236.5S32.9,120.6,18.5,253.4h81.1c13.7-87.4,90.5-154.7,182.4-154.5,91.8.2,167.6,67.2,181.4,154.5h85Z"/>
    <path class="st3" d="M283.5,550c137.3,0,250.7-103.8,265-236.7h-85c-13.7,87.9-90,155-182.1,154.8-92.3-.2-167.8-66.9-181.6-154.8H18.5c14.3,132.9,127.7,236.7,265,236.7Z"/>
    <path class="st3" d="M559.7,313.3h-7.2c-6.4,61.1-33.4,117.8-77.7,161.9-51.1,50.8-119,78.8-191.3,78.8s-140.2-28-191.3-78.8c-44.3-44.1-71.3-100.7-77.7-161.9H5.7c14.3,140.1,133.2,249.4,277.8,249.4s263.5-109.3,277.8-249.4h-1.6Z"/>
    <path class="st3" d="M14.5,253.4c6.5-61,33.5-117.6,77.7-161.6C143.3,40.9,211.2,12.9,283.5,12.9s140.2,28,191.3,78.8c44.2,44,71.2,100.6,77.7,161.6h8.8C546.8,113.4,427.9,4.3,283.5,4.3S20.1,113.4,5.7,253.4h8.8Z"/>
  </g>
  <g>
    <path class="st2" d="M173.4,71.5l-2.5-5.5,12.7-5.9,2.5,5.5c0,4.3-.4,8.4-1,12.1l5.6-2.6,2.5,5.4c1.9,5.5,2.9,10.7,2.8,15.6,2.1.6,4.5.5,7.1,0,2.6-.6,5.9-1.9,10-3.7l9.2-4.2,2.4,5.7-9,4.2c-4.4,2-8.2,3.4-11.4,4.1-3.2.7-6.2.7-8.9,0-.6,2.7-1.4,5.1-2.5,7.4l-6.6-3.6c1.2-2.3,2-4.6,2.6-6.8-2.1-1.4-4.5-3.4-7.3-6.1-.6.6-1.2,1.2-1.6,1.6l4,8.6c.7,1.6,1.3,2.9,1.6,3.9.3,1,.6,1.8.7,2.6.1.8,0,1.4-.4,1.9-.3.5-.8.9-1.4,1.3-.6.4-1.4.8-2.6,1.4-1,.5-2.5,1-4.3,1.7l-2.8-5.3c1.2-.4,2.2-.8,3.1-1.2.5-.2.7-.5.7-.7,0-.2-.3-.9-.8-2.1l-3.3-7.1c-.4.3-1.5,1.2-3.3,2.6l-3.1-5.7c.6-.4,1.8-1.4,3.7-2.9l-5.1-11.1-4,1.9-2.6-5.6,4-1.9-3.8-8.1,6.4-2.9,3.8,8.1,3.6-1.7,2.6,5.6-3.6,1.7,4.3,9.2c.4-.4,1-.9,1.7-1.6.7-.7,1.1-1.1,1.2-1.2l-2.2-4.8c1-4.3,1.6-8.5,1.8-12.5l-6.2,2.9ZM189.4,92.5c-.2-2.8-.9-5.8-2.2-9.2l-6.7,3.1,1.7,3.8,1.7-3.2c2.1,2.4,4,4.3,5.5,5.5ZM213.7,70.5l-6.5,3,4,8.6,5.9-2.7,2.5,5.4-18.9,8.7-2.5-5.4,6.4-3-4-8.6-7,3.2-2.7-5.8,7-3.2-3.3-7.2c-2.6,1.7-4.7,3-6.2,3.9l-2.9-5.6c5.6-3.3,11.3-7.3,17-12.2l3.7,5.3c-2.2,1.9-4.1,3.4-5.5,4.4l3.9,8.5,6.5-3,2.7,5.8Z"/>
    <path class="st2" d="M235,53l-4,5c-3.2-2.6-6.9-5.4-11.2-8.5l4.1-5.1c3.9,2.9,7.6,5.8,11.1,8.6ZM221.9,64.9l13-2.1,2.8,17c1.1,1.4,2.4,2.3,3.8,2.8,1.4.5,3.6.6,6.5.5,2.9-.2,7.2-.7,12.8-1.6l14.8-2.5.7,6.2-14.6,2.4c-7.3,1.2-12.8,1.7-16.7,1.6-3.8-.1-6.8-1-9-2.6-1.7,2.2-4,4.6-6.8,7.3l-4.2-5.2c2.4-2.1,4.3-4.2,6-6.2l-2.1-12.5-6,1-1-6ZM259.6,53.2l8.8-1.5.9,5.2-8.8,1.5.7,4,8.8-1.5.9,5.2-8.8,1.5.7,4,10.7-1.8,1,5.8-32.1,5.3-2.9-17.7-6-2.4c2.9-6.6,4.8-13.4,5.6-20.5l6.8-.2c0,1.5-.2,3.4-.5,5.8l7.2-1.2c.4-2.3.7-4.6.8-6.7l6.7-.4c0,1.7-.3,3.7-.6,6l8.7-1.4,1,5.8-9.9,1.6.6,3.8ZM244.7,51.7l.6,3.8,7.4-1.2-.6-3.8-7.4,1.2ZM253.6,59.5l-7.4,1.2.7,4,7.4-1.2-.7-4ZM248.4,73.8l7.4-1.2-.7-4-7.4,1.2.7,4Z"/>
    <path class="st2" d="M341,76.1l9.2,1.8-1.2,6.3-9.2-1.8-2.3,11.8-7.3-1.4,2.3-11.8-9.6-1.8,1.2-6.3,9.6,1.8,1.3-6.8-8.4-1.6,1.1-5.8,8.4,1.6,1.2-6.3-8.7-1.7-.7,3.8-2.5-.5-1.8,9.4-13.1-2.5c-.7,1.4-1.2,2.5-1.6,3.2l14.3,2.8-3.9,19.9-6.8-1.3.5-2.3-6.9-1.3-.5,2.3-6.3-1.2,1.9-9.8c-1.3,1.4-2.5,2.5-3.7,3.4l-.9-7.5c2.9-2.4,5.4-5.5,7.4-9.3l-3.1-.6,1-5.4,4.3.8c.4-.9.8-2.2,1.4-3.9l-6.5-1.3,1.1-5.7,6.9,1.3c.2-.8.5-2.1.8-3.9l-4.9-.9,1-5.3,22.3,4.3-1.8,9.2,2.1.4.8-4,4.5.9c-.7-2.8-1.3-5.2-1.9-7.1h6.6c.8,2.6,1.6,5.4,2.2,8.4l2.4.5c1.8-2.3,3.5-4.6,5-7l6.4,2.4c-1.3,1.9-2.7,4-4.3,6l4.2.8-1.2,6-8.7-1.7-1.2,6.3,8.1,1.6-1.1,5.8-8.1-1.6-1.3,6.8ZM307.1,79.7l6.9,1.3,1.3-6.9-6.9-1.3-1.3,6.9ZM312.7,59l5.4,1,.8-4-4.8-.9c-.6,1.7-1,3-1.3,3.9ZM320.7,46.4l-4.2-.8c-.2.9-.5,2.2-.9,3.9l4.3.8.8-3.9Z"/>
    <path class="st2" d="M377.9,110.7c-2.1-1-5-2.6-8.9-4.7l2.2-4.8c-2.8.5-5.7.7-8.6.7l.2-6.6c8.2.2,15.3-1,21.3-3.6.2-.9.3-2,.3-3.1-4.4,1.5-9.3,2.4-14.7,2.6-2.2,2-5,2.2-8.5.4l-.9-.4,1.4-5.8.7.3c1.1.6,2,.7,2.6.4.6-.3,1.3-1.2,2-2.7.8-1.6,1.2-3.1,1.3-4.5,0-1.4-.2-3.4-.8-5.9l-13.1,26.4-6.1-3,21.9-44,16.8,8.3-2.5,5s0,0-.1.1c0,0,0,.1-.1.1l4.2,2.1c.1-2,.2-4,.2-6l6.8,1.1c0,2.4-.1,5.1-.4,8.1l5.2,2.6c2.3-1.5,4.6-3.2,6.8-5.2l5.2,4.4c-1.2,1.1-2.9,2.5-5.2,4.1l6.5,3.2-2.6,5.3-9-4.5c-1.1,3.1-2,5.9-2.6,8.4,2.2-.7,4.2-1.5,6.2-2.4l1.4,6.1c-3.1,1.5-6.1,2.6-8.8,3.4-.7,5.6-.5,10.7.6,15.1l-6.1,4.6c-1.5-5.1-2-10.9-1.4-17.5.6-6.6,2.2-13.5,4.9-20.5l-1.7-.8c-1,.4-2.3.8-3.8,1.2,1.8,8.8.8,17-3.1,24.8-1.8,3.7-3.4,6-4.8,6.9-1.3.9-3,.9-4.9,0ZM378.6,63l-4.9-2.4-5.6,11.2c3.9-2.7,7.4-5.6,10.5-8.8ZM382.3,98.3c-3.1,1.3-6.5,2.2-10,2.8,2.2,1.3,4,2.2,5.3,2.9.6.3,1.1.3,1.6,0,.5-.4,1.2-1.5,2.1-3.3.5-1,.8-1.7,1.1-2.3ZM384.2,83.1c-.2-1.2-.3-2.1-.4-2.7-2.5.3-5.4.3-8.6.2v-6.1c4.2.3,8.1.2,11.7-.4l-7.4-3.7c-2.1,1.9-4.1,3.5-5.9,4.7.6,3.5.5,6.8-.3,9.7,4-.1,7.6-.7,10.9-1.7Z"/>
  </g>
  <g>
    <path class="st2" d="M120.7,438.6l18.6,17.4-3.4,3.6-7.5-7-11.5,12.2-3.6-3.4,11.5-12.2-7.5-7,3.4-3.6Z"/>
    <path class="st2" d="M147.6,462.2l1.4,1,11.7,8.6-2.9,4-12.1-8.8c-.8-.5-1.6-.7-2.5-.5-.9.2-1.7.5-2.4,1s-1.3,1.1-1.9,1.8c-.5.7-.9,1.5-1.2,2.3-.3.8-.4,1.7-.2,2.6.1.9.5,1.6,1.2,2.2l12.1,8.8-2.9,4-12.5-9.1-.6-.4c-1.3-1.1-2.1-2.4-2.3-4.1-.2-1.6,0-3.2.5-4.7.5-1.5,1.3-2.9,2.2-4.2,1-1.3,2.1-2.4,3.4-3.4,1.3-1,2.8-1.6,4.4-1.9,1.6-.3,3.1,0,4.6.9ZM152.8,482.3l-12.2-8.9,2.9-4,12.2,8.9-2.9,4Z"/>
    <path class="st2" d="M155.1,488l7.9,4.5,5.8-10.3-7.9-4.5,2.4-4.3,20.2,11.3-2.4,4.3-7.9-4.4-5.8,10.3,7.9,4.4-2.4,4.3-20.2-11.3,2.4-4.3Z"/>
    <path class="st2" d="M206.6,499.8l-15.7-6.5c-.4-.2-.8-.2-1.2-.2-.4,0-.6.2-.9.3s-.4.4-.5.6c0,.2-.1.5,0,.7,0,.3.2.5.4.8.2.3.5.5.9.7l9.6,4c1.6.7,2.7,1.6,3.5,2.7.7,1.1,1.1,2.2,1.2,3.3,0,1.1,0,2.1-.5,3-.4.9-1,1.7-1.8,2.4-.8.7-1.9,1.2-3.2,1.5-1.3.3-2.7,0-4.3-.6h-.2c-.1-.1-.3-.2-.4-.2l-15-6.2,1.9-4.5,15.8,6.5c.4.2.8.3,1.2.2.4,0,.7-.2.9-.4.2-.2.4-.4.5-.6,0-.2,0-.4,0-.7s-.1-.7-.3-1c-.2-.3-.5-.5-.9-.7l-9.6-4c-1.6-.7-2.7-1.6-3.5-2.7-.7-1.1-1.2-2.2-1.2-3.2,0-1.1,0-2,.4-2.9.4-.9,1-1.7,1.8-2.3.8-.7,1.9-1.2,3.2-1.4,1.3-.3,2.7,0,4.3.5h.2c.1.1.3.2.4.2l14.9,6.2-1.9,4.5Z"/>
    <path class="st2" d="M217.1,497.8l-2.2,7.7,11.5,3.2,2.2-7.7,4.8,1.3-5.9,21-4.8-1.3,2.4-8.5-11.5-3.2-2.4,8.5-4.8-1.3,5.9-21,4.8,1.3Z"/>
    <path class="st2" d="M234.2,519.8l9,1.4,1.9-11.7-9-1.4.8-4.9,22.8,3.7-.8,4.9-9-1.4-1.9,11.7,9,1.4-.8,4.9-22.8-3.7.8-4.9Z"/>
    <path class="st2" d="M274.8,506.8c1.3,0,2.5.2,3.7.6,1.2.3,2.4.8,3.5,1.4,1.1.6,2.1,1.4,2.9,2.4.8,1,1.3,2.1,1.3,3.5v1.5c0,0-.6,13.8-.6,13.8l-5-.2.6-14.2c0-.8-.3-1.4-.8-1.9-.5-.5-1.1-.9-1.7-1.3-.6-.3-1.3-.6-2-.7-.7-.2-1.4-.3-2.1-.3-.7,0-1.4,0-2.1.1-.7.1-1.4.3-2,.6-.7.3-1.3.6-1.8,1.1-.5.5-.9,1.1-.9,1.9l-.6,14.2-4.9-.2.5-13.8v-1.5c.2-1.3.7-2.4,1.6-3.4.9-.9,1.9-1.6,3.1-2.2,1.1-.5,2.3-.9,3.6-1.2s2.5-.3,3.8-.3Z"/>
    <path class="st2" d="M308.6,506.6l17.2-2.3.7,4.9-16,2.2c-.9.2-1.6.6-2.2,1.4s-.9,1.5-1,2.4c-.2.9-.2,1.7,0,2.6.1.9.4,1.7.8,2.5.4.8.9,1.5,1.6,2.1.7.6,1.5.8,2.4.7l11.1-1.5c.4,0,.6-.4.6-.8l-.3-2.1c0-.5-.4-.7-.8-.6l-11.3,1.5-.7-4.9,14.5-1.9c.7,0,1.3,0,1.8.5.5.4.8.9.9,1.6h0c0,0,1.1,8.6,1.1,8.6,0,.7,0,1.2-.5,1.7-.4.5-.9.8-1.6,1l-15.5,2.1c-1.7.1-3.2-.3-4.5-1.4-1.3-1.1-2.2-2.3-2.9-3.8-.7-1.5-1.1-3-1.3-4.6-.2-1.6-.2-3.2,0-4.8.3-1.6.9-3.1,1.8-4.4.9-1.3,2.2-2.2,3.9-2.5Z"/>
    <path class="st2" d="M346.1,522.4c-1.2.3-2.5.5-3.7.5-1.3,0-2.5,0-3.8-.4-1.2-.3-2.4-.8-3.5-1.5-1.1-.7-1.8-1.7-2.2-2.9l-.4-1.5-3.5-13.2,4.8-1.2,3.6,13.6c.2.7.7,1.3,1.3,1.6.6.4,1.3.6,2,.7.7.1,1.4.2,2.1.1.7,0,1.4-.1,2.1-.3.7-.2,1.3-.4,2-.8.6-.3,1.2-.7,1.8-1.2.6-.4,1-1,1.4-1.6.4-.6.5-1.3.4-2l-3.6-13.6,4.8-1.3,3.5,13.2.4,1.5c.3,1.3,0,2.5-.5,3.7-.6,1.1-1.4,2.1-2.3,3-.9.8-2,1.6-3.1,2.2-1.1.6-2.3,1.1-3.5,1.4Z"/>
    <path class="st2" d="M365.9,491.2c1.2-.5,2.4-.8,3.7-1,1.3-.2,2.5-.2,3.8,0s2.5.5,3.6,1c1.2.6,2,1.4,2.6,2.6l.6,1.4,5.1,12.8-4.6,1.8-5.2-13.2c-.3-.7-.8-1.2-1.5-1.4-.7-.3-1.4-.4-2.1-.5-.7,0-1.4,0-2.1.1-.7.1-1.4.3-2,.6s-1.3.6-1.9,1c-.6.4-1.1.8-1.6,1.4-.5.5-.9,1.1-1.2,1.8-.3.7-.3,1.4-.1,2.1l5.2,13.2-4.6,1.8-5.1-12.8-.6-1.4c-.4-1.3-.4-2.5,0-3.7.4-1.2,1.1-2.3,1.9-3.2.8-1,1.8-1.8,2.8-2.5,1-.7,2.2-1.3,3.3-1.8Z"/>
    <path class="st2" d="M380.5,486.2l22.3-12.2,2.4,4.3-9,4.9,8.1,14.7-4.3,2.4-8.1-14.7-9,4.9-2.4-4.3Z"/>
    <path class="st2" d="M420.7,478l6.2-4.5-2.4-1.6c-.9-.6-1.8-1.1-2.6-1.6-.8-.5-1.7-.9-2.5-1.2-.8-.3-1.4-.4-1.9,0-.4.4-.6,1-.6,1.9,0,.9.2,1.8.4,2.7s.5,1.9.7,3l3.1,11.2-4.4,3.2-3.6-13.9c-.7-2.9-1.1-5.3-1.1-7.4,0-2,.7-3.6,2.5-4.9,1.7-1.2,3.5-1.5,5.4-.8,1.9.7,4.1,1.8,6.6,3.4l12.1,7.8-4.5,3.3-2.9-2-7.7,5.5-2.9-4Z"/>
    <path class="st2" d="M438.4,468.8l6.7-6.2-8-8.7-6.7,6.2-3.3-3.6,17-15.6,3.3,3.6-6.7,6.1,8,8.7,6.7-6.1,3.3,3.6-17,15.6-3.3-3.6Z"/>
  </g>
  <g>
    <path class="st3" d="M233.4,371.6c4.7-9.5,14.4-27.3,26.7-39.3,1.4-1.4,1.8-3.5.7-5.3-11.8-19.5-79.8-129.6-88-142.9s-1.3-.7-1.8,0c-5.2,6.7-29.6,39.3-18.8,50.1,1,.3,80.4,85.8,88.2,94.1.4.4.4.9,0,1.4-2.4,3.3-12.1,18.3-10.8,41.2.1,2,2.9,2.6,3.8.7Z"/>
    <path class="st3" d="M224.9,327.8l-66.6-67.7c-1.3-1.3-3.4-1.1-4.4.5-4.7,7.6-15.6,27.7-3.1,36.1.3.1,47.7,31.7,66.7,44.4,3.5,2.3,8.2,0,8.5-4.1l.4-4.7c.1-1.6-.4-3.2-1.6-4.4Z"/>
    <path class="st3" d="M218.5,353.2l-60.6-39.7c-1.2-.8-2.7-.2-3.2,1.1-2.3,6.4-7.1,23.2,3.5,27.4.2,0,40.7,15.9,56.9,22.3,3,1.2,6.1-1.3,5.7-4.5l-.5-3.6c-.2-1.2-.9-2.3-1.9-3Z"/>
    <path class="st3" d="M214.9,367.9l-51.1-16.8c-1-.3-2,.4-2.1,1.4-.4,5-.6,18,7.8,19,.2,0,32.2,3.6,45.1,5,2.4.3,4.1-2.1,3.2-4.3l-1-2.5c-.4-.9-1.1-1.5-1.9-1.8Z"/>
    <path class="st3" d="M222.7,385.3l-43.9-9.5c-.8-.2-1.6.5-1.6,1.3,0,4.2,1,15,8.2,15.1.1,0,27.1.1,37.9.2,2,0,3.2-2.1,2.3-3.9l-1.1-2c-.4-.7-1-1.2-1.8-1.3Z"/>
    <path class="st3" d="M233.2,395.9l-36.5.3c-.7,0-1.2.7-1,1.3.8,3.3,3.5,11.7,9.1,10.5.1,0,21.5-4.7,30.1-6.6s2.2-2.2,1.1-3.5l-1.2-1.4c-.4-.5-1-.7-1.6-.7Z"/>
    <path class="st3" d="M246.4,401.2l-29.5,8.4c-.6.2-.8.8-.5,1.3,1.4,2.5,5.4,8.7,9.8,6.5,0,0,16.4-8.6,22.9-12,1.2-.6,1.3-2.3.2-3.1l-1.3-.8c-.4-.3-1-.4-1.5-.2Z"/>
    <path class="st3" d="M260.6,404.6l-22,11.6c-.4.2-.5.8-.2,1.1,1.5,1.8,5.8,6,8.8,3.5,0,0,11.6-9.6,16.2-13.4.8-.7.6-2.1-.4-2.5l-1.2-.5c-.4-.2-.8-.1-1.2,0Z"/>
    <path class="st3" d="M333.6,371.6c-4.7-9.5-14.4-27.3-26.7-39.3-1.4-1.4-1.8-3.5-.7-5.3,11.8-19.5,79.8-129.6,88-142.9s1.3-.7,1.8,0c5.2,6.7,29.6,39.3,18.8,50.1-1,.3-80.4,85.8-88.2,94.1-.4.4-.4.9,0,1.4,2.4,3.3,12.1,18.3,10.8,41.2s-2.9,2.6-3.8.7Z"/>
    <path class="st3" d="M342,327.8l66.6-67.7c1.3-1.3,3.4-1.1,4.4.5,4.7,7.6,15.6,27.7,3.1,36.1-.3.1-47.7,31.7-66.7,44.4-3.5,2.3-8.2,0-8.5-4.1l-.4-4.7c-.1-1.6.4-3.2,1.6-4.4Z"/>
    <path class="st3" d="M348.4,353.2l60.6-39.7c1.2-.8,2.7-.2,3.2,1.1,2.3,6.4,7.1,23.2-3.5,27.4-.2,0-40.7,15.9-56.9,22.3-3,1.2-6.1-1.3-5.7-4.5l.5-3.6c.2-1.2.9-2.3,1.9-3Z"/>
    <path class="st3" d="M352,367.9l51.1-16.8c1-.3,2,.4,2.1,1.4.4,5,.6,18-7.8,19-.2,0-32.2,3.6-45.1,5-2.4.3-4.1-2.1-3.2-4.3l1-2.5c.4-.9,1.1-1.5,1.9-1.8Z"/>
    <path class="st3" d="M344.3,385.3l43.9-9.5c.8-.2,1.6.5,1.6,1.3,0,4.2-1,15-8.2,15.1-.1,0-27.1.1-37.9.2-2,0-3.2-2.1-2.3-3.9l1.1-2c.4-.7,1-1.2,1.8-1.3Z"/>
    <path class="st3" d="M333.7,395.9l36.5.3c.7,0,1.2.7,1,1.3-.8,3.3-3.5,11.7-9.1,10.5-.1,0-21.5-4.7-30.1-6.6-1.6-.3-2.2-2.2-1.1-3.5l1.2-1.4c.4-.5,1-.7,1.6-.7Z"/>
    <path class="st3" d="M320.6,401.2l29.5,8.4c.6.2.8.8.5,1.3-1.4,2.5-5.4,8.7-9.8,6.5,0,0-16.4-8.6-22.9-12s-1.3-2.3-.2-3.1l1.3-.8c.4-.3,1-.4,1.5-.2Z"/>
    <path class="st3" d="M306.4,404.6l22,11.6c.4.2.5.8.2,1.1-1.5,1.8-5.8,6-8.8,3.5,0,0-11.6-9.6-16.2-13.4-.8-.7-.6-2.1.4-2.5l1.2-.5c.4-.2.8-.1,1.2,0Z"/>
    <polygon class="st1" points="340.4 188.9 302.8 184.4 282.7 145.3 262.7 184.4 225 188.9 254.6 215.6 246.8 256.2 282.7 236.4 318.6 256.2 310.8 215.6 340.4 188.9"/>
  </g>
</svg>