<?xml version="1.0" encoding="UTF-8"?><svg id="a" xmlns="http://www.w3.org/2000/svg" viewBox="0 0 566.93 566.93"><defs><style>.b{fill:#fff;}.c{fill:#040506;}.d{fill:#0a0400;}</style></defs><g><circle class="b" cx="283.46" cy="294.81" r="267.87"/><g><circle class="b" cx="283.17" cy="288.82" r="253.81"/><path class="d" d="M545.03,296.18c-.01,124.58-88.01,231.62-210.79,256.39-139.16,28.07-276.75-61.64-306.58-199.9C-2.43,213.15,80.85,78.01,219.13,42.01c2.6-.68,5.26-1.11,7.92-1.56,5.07-.86,8.86,.66,10.53,5.9,1.64,5.16-.2,10.55-4.82,13.08-3.29,1.81-6.72,3.44-10.26,4.67-75.39,26.18-122.17,78.26-138.03,156.32-21.3,104.84,49.55,210.52,154.09,233.79,106.85,23.78,214.84-41.55,241.15-149.94,24.5-100.91-32-206.21-134.55-239.83-3.22-1.06-6.34-2.46-9.41-3.91-6.54-3.11-8.99-8.33-6.93-14.42,1.79-5.28,5.92-7.08,13.39-5.31,17.53,4.14,34.64,9.65,50.85,17.53,79.98,38.9,128.95,102.09,147.43,188.99,1.05,4.92,1.76,9.92,2.33,14.92,1.27,11.28,2.46,22.57,2.22,33.95Z"/></g><g><path class="b" d="M168.92,432c9.52,8.94,20.07,16.77,31.4,23.26-2.87,5.02-4.31,7.53-7.18,12.55-1.31-.75-1.97-1.14-3.27-1.92,.74-2.33,1.25-4.23,1.51-5.69,.26-1.46,.34-2.65,.22-3.58-.12-.92-.38-1.7-.78-2.32-.4-.62-1.16-1.29-2.28-2.04-1.55-1.04-2.32-1.56-3.84-2.65-8.19,11.58-16.38,23.16-24.57,34.74-.94,1.33-1.61,2.46-2.01,3.37-.39,.91-.58,1.72-.55,2.43,.02,.71,.24,1.4,.66,2.08,.42,.68,1.19,1.58,2.31,2.7l-1.13,1.7c-7.31-4.87-10.88-7.5-17.79-13.16l1.29-1.58c.87,.46,1.67,.84,2.38,1.13,.71,.29,1.35,.45,1.92,.49,.56,.04,1.11-.05,1.66-.26,.54-.21,1.15-.6,1.81-1.17,.66-.57,1.5-1.52,2.51-2.84,8.65-11.24,17.3-22.48,25.95-33.72-1.48-1.14-2.21-1.72-3.67-2.91-.91-.74-1.73-1.26-2.47-1.56-.74-.3-1.62-.36-2.63-.2-1.01,.17-2.21,.61-3.58,1.34s-2.99,1.74-4.85,3.05c-1.18-1.06-1.76-1.6-2.92-2.69,3.96-4.22,5.94-6.32,9.9-10.54Z"/><path class="b" d="M210.05,515.24c-6.72,2.4-13.78,2.05-20.62-1.1-4.69-2.16-7.87-4.86-9.49-7.86-1.62-3-1.54-6,.1-8.99,1.2-2.18,3.12-3.66,5.7-4.52,2.58-.85,5.59-.91,9.08-.27l.18-.37c-4.81-4.09-5.92-8.37-3.66-12.53,1.33-2.46,3.61-3.81,6.77-4.17,3.15-.37,6.72,.42,10.85,2.25,2.96,1.31,6.25,3.52,10.06,6.55-.99,2.68-1.49,4.02-2.48,6.7-1.54-.57-2.31-.86-3.84-1.46-.08-4.41-1.94-7.34-5.67-9-1.86-.83-3.61-1.03-5.3-.58-1.69,.45-2.99,1.58-3.9,3.42-1.09,2.21-1.15,4.19-.12,5.92,1.03,1.73,3.47,3.51,7.33,5.15,.88,.37,1.32,.56,2.21,.92l-1.71,4.15c-1.43-.59-2.14-.89-3.56-1.5-3.47-1.5-6.32-2.14-8.63-1.83-2.31,.31-4.05,1.56-5.18,3.82-2.2,4.38-.32,8.15,5.78,10.87,4.61,2.05,9.61,2.31,14.69,.74,.54,1.48,.82,2.22,1.4,3.69Z"/><path class="b" d="M222.49,489.34c-.28-1.09-.41-1.64-.68-2.74,3.39-1.34,6.07-1.73,8.19-1.09,2.12,.64,3.41,1.87,3.91,3.75,.5,1.88,.28,4.65-.7,8.31-1.31,4.9-1.96,7.35-3.27,12.24-2.32,8.67-.13,13.98,6.65,15.45,3.51,.76,6.55,0,9.01-2.23,2.45-2.23,4.01-5.72,4.78-10.42,1.42-8.75,.75-15.21-1.72-19.45l.41-2.16c2.88,.54,4.32,.78,7.21,1.21,1.38,5.24,1.74,11.37,.82,18.4-.84,6.4-3.26,11.49-7.57,15.09-4.31,3.6-9.71,4.81-15.82,3.43-5.72-1.29-9.48-3.85-11.17-7.36-1.69-3.51-1.59-8.11,.15-13.78,1.39-4.55,2.09-6.82,3.48-11.36,.97-3.15,1.41-5.15,1.35-6-.07-.85-.48-1.39-1.25-1.63-.72-.23-1.96-.1-3.75,.34Zm33.84-14.28c1.03,.84,1.54,1.26,2.6,2.08-.76,1.51-1.51,2.75-2.22,3.7-.72,.96-1.44,1.69-2.16,2.2-.72,.51-1.46,.84-2.2,.97-.74,.14-1.5,.13-2.27-.02-.91-.17-1.88-.61-2.89-1.3-1.01-.69-2-1.44-2.96-2.22-.98-.79-1.89-1.55-2.71-2.25-.82-.7-1.53-1.14-2.13-1.29-.46-.12-.91-.17-1.34-.14-.43,.03-.87,.15-1.31,.37-.45,.22-.91,.56-1.4,1.03-.49,.47-1.01,1.09-1.57,1.88-.94-.86-1.41-1.3-2.33-2.17,.75-1.01,1.42-1.89,2.03-2.62,.61-.73,1.15-1.31,1.62-1.75,.96-.93,1.92-1.52,2.89-1.77,.96-.25,2.01-.22,3.15,.07,.78,.2,1.63,.66,2.56,1.37,.93,.71,1.87,1.45,2.82,2.23,.95,.78,1.87,1.5,2.73,2.17,.86,.67,1.6,1.06,2.21,1.17,1.75,.33,3.41-.92,4.89-3.74Z"/><path class="b" d="M310.62,529.07c-3.18,3.02-6.66,4.68-10.27,4.95-2.13,.16-3.95-.26-5.42-1.24-1.48-.98-2.98-2.65-4.47-5.01-3.51-5.51-5.16-8.3-8.24-13.93-1.13,.94-2.8,2.02-5.06,3.2-.2,6.74-.3,10.12-.5,16.86-3.18-.09-4.77-.17-7.94-.37,.62-9.45,1.23-18.91,1.85-28.36,.23-3.59,.17-5.91-.17-6.95-.35-1.04-1.67-1.85-3.96-2.5l.2-2.19c3.55,.14,5.32,.16,8.86,.13,.94,.04,1.41,.06,2.35,.08-.23,7.89-.35,11.84-.58,19.73,3.2-1.98,7.24-5.87,11.66-11.79,2.87-3.91,4.83-6.38,6.13-7.33,1.3-.96,2.73-1.5,4.31-1.64,1.36-.12,2.63-.02,3.84,.29l.85,7.81c-1.26,.14-1.89,.2-3.15,.32-.72-1.19-1.7-1.72-2.95-1.63-1.09,.08-2.2,.69-3.35,1.79-1.15,1.11-3.44,3.9-7.22,8.25,4.09,6.6,6.3,9.85,11.04,16.22,1.88,2.53,3.86,3.71,5.85,3.52,1.48-.14,2.93-.95,4.3-2.42,.81,.89,1.22,1.34,2.05,2.22Z"/><path class="b" d="M323.31,527.45c1.51,8.2,2.27,12.31,3.78,20.51-3.39,.62-5.09,.9-8.49,1.4-1.79-12.1-3.57-24.2-5.36-36.3-2.15-10.66,1.98-22.36,13.46-24.86,4.55-.99,8.62-.52,12.22,1.95,3.6,2.47,6.46,6.55,8.41,12.38,2.23,6.7,2.39,12.36,.2,16.93-2.19,4.57-6.32,7.7-12.18,9.1-4.44,1.06-8.51,.66-12.03-1.12Zm-2.69-14.63c.49,2.68,.74,4.02,1.23,6.7,.44,2.37,1.79,4.14,4.1,5.25,2.32,1.11,4.91,1.35,7.71,.7,7.51-1.75,9.67-8.2,6.61-18.77-3.35-11.55-7.82-16.44-13.49-15.08-6.43,1.54-8.51,8.43-6.16,21.21Z"/><path class="b" d="M382.04,511.83c-5.9,2.89-11.21,3.3-15.6,1.43-4.39-1.87-7.69-6.01-10.07-12.22-1.63-4.27-2.26-8.16-1.98-11.67,.27-3.5,1.3-6.45,3.07-8.9,1.77-2.45,4.1-4.36,7.07-5.82,4.95-2.45,9.42-2.99,13.69-1.5,4.28,1.5,8.19,4.89,11.57,10.39,2.41,3.92,3.76,7.65,3.93,11.22,.18,3.57-.73,6.85-2.75,9.77-2.02,2.91-5.01,5.39-8.93,7.31Zm-18.51-14.63c2.25,5.24,4.86,8.91,7.92,10.89,3.06,1.99,6.37,2.16,9.78,.48,1.87-.92,3.25-2.14,4.12-3.62,.87-1.47,1.34-3.1,1.4-4.87,.06-1.77-.23-3.63-.87-5.57-.64-1.95-1.5-3.87-2.57-5.78-1.99-3.55-4.05-6.27-6.13-8.19-2.08-1.92-4.07-3.09-5.97-3.51-1.9-.42-3.69-.21-5.38,.62-2.85,1.41-4.44,3.72-4.83,7.08-.4,3.36,.41,7.52,2.53,12.46Z"/><path class="b" d="M410.07,445.21l5.29,5.63c-1.53,1.44-2.31,2.15-3.87,3.54-3.81-2.02-7.05-1.86-9.89,.47-2.1,1.72-3.07,4.13-2.97,7.32,.1,3.19,1.46,6.66,4.19,10.36,2.41,3.28,4.95,5.36,7.66,6.16,2.71,.8,6.78,.14,12.1-2.16,3.53-1.52,6.35-2.41,8.38-2.59,2.03-.17,3.84,.57,5.42,2.28,1.86,2.02,2.74,4.78,2.52,8.32-.22,3.54-1.31,8.04-3.46,13.42-1.71-.13-2.56-.21-4.25-.37,2.67-6.91,2.6-11.72,.33-14.37-.99-1.16-2.12-1.71-3.37-1.66-1.25,.04-2.96,.52-5.12,1.39-6.88,2.8-12.3,3.48-16.16,2.52-3.86-.95-7.11-3.54-9.87-7.6-3.16-4.65-4.25-9.45-3.59-14.35,.66-4.9,3.06-8.93,7.31-12.48,2.85-2.38,5.94-4.31,9.35-5.84Z"/></g></g><path class="c" d="M97.49,241.2c5.52,4.93,11.95,7.06,19.26,6.21,6.27-.73,11.91-3.45,17.26-6.58,8.88-5.2,16.71-11.85,24.59-18.43,10.45-8.71,19.99-18.51,31.05-26.47,10.61-7.64,22.64-10.81,35.65-10.13,2.74,.14,5.46,.79,8.21,.96-8.76-4.56-17.98-3.78-27.33-2.36,4.81-3.5,10.13-5.85,15.84-7.47,14.22-4.05,26.75-.42,38.24,8.16,4.96,3.7,10.65,5.5,16.65,6.57,.25,.04,.49,.17,.75,.26v16.67c-1.82,.91-4.01,1.07-5.49,2.83-1.32,1.57-2.14,3.13-2.1,5.2,.06,3.57,.02,7.14,.02,11.69-3.76-3.8-7.09-6.7-10.59-9.38-7.19-5.5-15.07-9.7-23.99-11.29-8.3-1.48-16.46-.15-24.43,2.69-12.81,4.56-24,12.07-35.35,19.24-10.26,6.49-20.58,12.87-31.7,17.69-8.64,3.74-17.7,6.61-27.44,5.51-.45-.05-.91,0-1.6,.52,50.6,36.33,101.2,72.66,152.02,109.15,1.49-7.99,5.77-13.91,13.3-17.83V149.2c-3.34,1.73-6.35,3.29-10.03,5.2,4.27-13.7,8.34-26.76,12.41-39.82l.59-.1c4.09,13.08,8.17,26.16,12.38,39.61-3.64-1.28-6.45-3.01-9.46-4.92-1.02,2.24-.64,4.49-.65,6.6-.03,61.98,0,123.95,0,185.93,0,1.61,.14,2.93,1.81,3.85,6.49,3.59,10.07,9.32,11.76,16.78,50.73-36.42,101.29-72.71,152.49-109.46-3.2-.34-5.66,.11-8.09-.03-9.38-.53-17.91-3.85-26.2-7.78-15.74-7.46-29.82-17.79-44.85-26.48-8.74-5.05-17.81-9.43-27.88-11.03-11-1.74-21.21,.87-30.7,6.46-5.62,3.31-10.8,7.23-15.44,11.84-.6,.59-1.24,1.13-2.19,1.98-.59-3.38-.39-6.37-.26-9.32,.26-6-1.51-8.57-7.59-10.1v-16.51c2.19-1.21,4.77-1.03,7.12-1.74,5.35-1.61,9.68-4.9,14.25-7.87,7.44-4.82,15.65-7.29,24.56-7.08,7.74,.18,18.67,4.11,26,9.41-3.68-.34-6.66-1.4-9.73-1.2-3.1,.2-6.17-.23-9.31,.37-3.12,.59-6.07,1.37-8.82,2.98,4.42-.47,8.77-1.18,13.23-1.04,11.99,.36,22.78,4.15,32.32,11.35,7.7,5.82,14.58,12.6,21.9,18.87,10.43,8.93,20.59,18.24,32.64,25.07,6.13,3.48,12.39,6.35,19.7,6.49,6.4,.12,11.49-2.5,16.63-6.85-1.32,3.73-3.8,5.83-6.3,7.64-23.29,16.82-46.67,33.53-70.02,50.27-23.07,16.55-46.14,33.1-69.21,49.65-7.9,5.67-15.82,11.32-24.07,17.23,.99,9.57,2.01,19.42,3.09,29.93-5.85-3.15-11.3-6.08-16.83-9.06-.19-2.16-.48-4.29-3.42-3.67-1.34,.91-1.68,2.18-1.42,3.59-5.68,3.03-11.15,5.95-17.02,9.08,.89-10.41,2.52-20.22,3-29.98-23.99-17.15-47.8-34.13-71.56-51.18-18.92-13.58-37.77-27.27-56.68-40.87-11.57-8.31-23.23-16.49-34.77-24.84-2.56-1.85-4.93-4.04-6.15-7.25Z"/></svg>