<?xml version="1.0" encoding="UTF-8"?>
<svg xmlns="http://www.w3.org/2000/svg" version="1.1" viewBox="0 0 566.9 566.9">
  <!-- Generator: Adobe Illustrator 29.0.1, SVG Export Plug-In . SVG Version: 2.1.0 Build 192)  -->
  <defs>
    <style>
      .st0 {
        fill: #fff;
      }

      .st1 {
        fill: #954b97;
      }

      .st2 {
        fill: #040506;
      }

      .st3 {
        fill: #010101;
      }
    </style>
  </defs>
  <g id="Capa_1">
    <circle class="st1" cx="283.5" cy="283.5" r="278.7"/>
  </g>
  <g id="Capa_2">
    <g>
      <path class="st3" d="M426.8,426.8c-38.3,38.3-89.2,59.4-143.3,59.4s-105-21.1-143.3-59.4c-38.3-38.3-59.4-89.2-59.4-143.3s.4-14.5,1.1-21.7l-75.5-8.1c-1,9.8-1.6,19.7-1.6,29.8,0,153.9,124.8,278.7,278.7,278.7s211.3-68,254.7-165.4l-71.1-27.1c-9.9,21-23.4,40.3-40.3,57.2ZM25,346.3c0-13.2,10.7-23.8,23.8-23.8s23.8,10.7,23.8,23.8-10.7,23.8-23.8,23.8-23.8-10.7-23.8-23.8ZM84.7,445.4c-13.2,0-23.8-10.7-23.8-23.8s10.7-23.8,23.8-23.8,23.8,10.7,23.8,23.8-10.7,23.8-23.8,23.8Z"/>
      <path class="st3" d="M89.2,225.4l-71.1-27.1c-3,9.4-5.5,19.1-7.6,28.9l74.3,15.7c1.2-5.9,2.7-11.8,4.4-17.5Z"/>
      <path class="st3" d="M283.5,4.8c-113.4,0-210.9,67.7-254.4,164.8l70.7,28c9.9-21.1,23.4-40.5,40.4-57.5,38.3-38.3,89.2-59.4,143.3-59.4s105,21.1,143.3,59.4c38.3,38.3,59.4,89.2,59.4,143.3s-.4,14.4-1.1,21.5l75.6,8.1c1-9.7,1.6-19.6,1.6-29.6,0-153.9-124.8-278.7-278.7-278.7ZM462.3,146c0-13.2,10.7-23.8,23.8-23.8s23.8,10.7,23.8,23.8-10.7,23.8-23.8,23.8-23.8-10.7-23.8-23.8ZM516.6,245.4c-13.2,0-23.8-10.7-23.8-23.8s10.7-23.8,23.8-23.8,23.8,10.7,23.8,23.8-10.7,23.8-23.8,23.8Z"/>
      <path class="st3" d="M476.1,346.8l70.7,28c3.6-10.4,6.6-21.2,9-32.1l-74.3-15.7c-1.5,6.7-3.3,13.3-5.4,19.9Z"/>
    </g>
    <g>
      <path class="st0" d="M122.4,101.3l-11.5,9.6-4.5-5.4-1.9-2.3,30.6-25.7,3.2,3.8-.6,7-7.6,6.4,19.3,23-7.6,6.4-19.3-23Z"/>
      <path class="st0" d="M160.9,103.2l-.7-1.3,6.1-20.3-20.3-6.1-2.4-4.4,8.8-4.7,20.3,6.1,13.2-7.1,4.7,8.8-13.2,7.1-2,6.8,17.6-9.5,6.8,2,2.4,4.4-39.6,21.3-1.7-3.1ZM156.8,64l26.4-14.2,2.4,4.4-2,6.8-13.2,7.1-13.5-4.1Z"/>
      <path class="st0" d="M203.2,80.3l-.4-1.4,24.1-43.2,9.6-2.7,10.9,38.5-9.6,2.7-1.4-4.8-14.4,4.1,6.9-12.3,4.8-1.4-2.7-9.6-17.2,30.9-9.6,2.7-1-3.4Z"/>
      <path class="st0" d="M248.9,34.3v-3.5s0-1.5,0-1.5h10c0-.1,35.4,34.4,35.4,34.4v5c0,0-9.9.1-9.9.1l-35.4-34.5ZM249.1,48.3v-9c-.1,0,10,9.9,10,9.9l.3,20h-10c0,.1-.3-20.9-.3-20.9ZM268.9,34.1v-5c0,0,9.9-.1,9.9-.1l35.4,34.5v5c0,0-9.9.1-9.9.1l-35.4-34.5Z"/>
      <path class="st0" d="M321.2,48.7l.6-2.9,29.3,6.5-2.2,9.8-29.3-6.5,1.5-6.8Z"/>
      <path class="st0" d="M349.9,73.2l.6-1.4,46-18.3,9.2,4-15.8,36.7-9.2-4,2-4.6-13.8-5.9,13.1-5.2,4.6,2,4-9.2-32.8,13.1-9.2-4,1.4-3.2Z"/>
    </g>
    <g>
      <path class="st0" d="M183.5,495.1l-13.7-6.1,2.8-6.4,1.2-2.8,36.6,16.2-2,4.6-6.6,2.6-9.1-4-12.1,27.4-9.1-4,12.1-27.4Z"/>
      <path class="st0" d="M202.3,532.3l.3-1.4,18-11.2-11.2-18,1.1-4.9,9.7,2.3,11.2,18,14.6,3.4-2.3,9.7-14.6-3.4-6,3.7,19.5,4.6,3.7,6-1.1,4.9-43.8-10.3.8-3.4ZM225.2,500.2l29.2,6.9-1.1,4.9-6,3.7-14.6-3.4-7.5-12Z"/>
      <path class="st0" d="M253.5,542.5l.8-24.5.3-10.5,10,.3-1,30,20,.7-10.3,9.7-15-.5-4.8-5.2ZM288.6,538.6l1-30,10,.3-1.2,35-5.2,4.8-15-.5,10.3-9.7Z"/>
      <path class="st0" d="M302.7,526.6l-1.2-7.4,8.2-11.5,34.5-5.7.8,4.9-4.1,5.7-24.7,4.1-4.1,5.7,1.6,9.9-8.2,11.5-2.9-17.3ZM314.6,537.3l29.6-4.9,5.8,4.1.8,4.9-44.4,7.3,8.2-11.5Z"/>
      <path class="st0" d="M357.5,536.5l-.5-1.4,8.7-19.3-19.3-8.7-1.8-4.7,9.4-3.5,19.3,8.7,14-5.3,3.5,9.3-14,5.3-2.9,6.4,18.7-7.1,6.4,2.9,1.8,4.7-42.1,15.9-1.2-3.3ZM358.6,497l28.1-10.6,1.8,4.7-2.9,6.4-14,5.3-12.9-5.8Z"/>
      <path class="st0" d="M393.4,496.8l-6.4-10.1,13.8,3.1,16,25.4-8.5,5.3-15-23.7ZM417.3,497.1l-4.2,2.7-5.3-8.5,8.5-5.3,1.6-6.9-12.7,8-13.8-3.1,33.8-21.4,5.3,8.5-3.1,13.8h0c-.1.6-.4,1.7-.7,3.4l17.2,3.9,2.7,4.2-8.5,5.3-20.7-4.7Z"/>
    </g>
    <path class="st2" d="M97.8,269.7c5.5,4.9,12,7.1,19.3,6.2,6.3-.7,11.9-3.4,17.3-6.6,8.9-5.2,16.7-11.9,24.6-18.4,10.5-8.7,20-18.5,31.1-26.5,10.6-7.6,22.6-10.8,35.7-10.1,2.7.1,5.5.8,8.2,1-8.8-4.6-18-3.8-27.3-2.4,4.8-3.5,10.1-5.8,15.8-7.5,14.2-4,26.7-.4,38.2,8.2,5,3.7,10.7,5.5,16.6,6.6.3,0,.5.2.7.3v16.7c-1.8.9-4,1.1-5.5,2.8-1.3,1.6-2.1,3.1-2.1,5.2,0,3.6,0,7.1,0,11.7-3.8-3.8-7.1-6.7-10.6-9.4-7.2-5.5-15.1-9.7-24-11.3-8.3-1.5-16.5-.2-24.4,2.7-12.8,4.6-24,12.1-35.3,19.2-10.3,6.5-20.6,12.9-31.7,17.7-8.6,3.7-17.7,6.6-27.4,5.5-.4,0-.9,0-1.6.5,50.6,36.3,101.2,72.7,152,109.1,1.5-8,5.8-13.9,13.3-17.8v-195.4c-3.3,1.7-6.3,3.3-10,5.2,4.3-13.7,8.3-26.8,12.4-39.8.2,0,.4,0,.6,0,4.1,13.1,8.2,26.2,12.4,39.6-3.6-1.3-6.5-3-9.5-4.9-1,2.2-.6,4.5-.6,6.6,0,62,0,124,0,185.9,0,1.6.1,2.9,1.8,3.9,6.5,3.6,10.1,9.3,11.8,16.8,50.7-36.4,101.3-72.7,152.5-109.5-3.2-.3-5.7.1-8.1,0-9.4-.5-17.9-3.9-26.2-7.8-15.7-7.5-29.8-17.8-44.9-26.5-8.7-5-17.8-9.4-27.9-11-11-1.7-21.2.9-30.7,6.5-5.6,3.3-10.8,7.2-15.4,11.8-.6.6-1.2,1.1-2.2,2-.6-3.4-.4-6.4-.3-9.3.3-6-1.5-8.6-7.6-10.1v-16.5c2.2-1.2,4.8-1,7.1-1.7,5.4-1.6,9.7-4.9,14.3-7.9,7.4-4.8,15.6-7.3,24.6-7.1,7.7.2,18.7,4.1,26,9.4-3.7-.3-6.7-1.4-9.7-1.2-3.1.2-6.2-.2-9.3.4-3.1.6-6.1,1.4-8.8,3,4.4-.5,8.8-1.2,13.2-1,12,.4,22.8,4.1,32.3,11.4,7.7,5.8,14.6,12.6,21.9,18.9,10.4,8.9,20.6,18.2,32.6,25.1,6.1,3.5,12.4,6.4,19.7,6.5,6.4.1,11.5-2.5,16.6-6.9-1.3,3.7-3.8,5.8-6.3,7.6-23.3,16.8-46.7,33.5-70,50.3-23.1,16.5-46.1,33.1-69.2,49.6-7.9,5.7-15.8,11.3-24.1,17.2,1,9.6,2,19.4,3.1,29.9-5.9-3.2-11.3-6.1-16.8-9.1-.2-2.2-.5-4.3-3.4-3.7-1.3.9-1.7,2.2-1.4,3.6-5.7,3-11.1,6-17,9.1.9-10.4,2.5-20.2,3-30-24-17.2-47.8-34.1-71.6-51.2-18.9-13.6-37.8-27.3-56.7-40.9-11.6-8.3-23.2-16.5-34.8-24.8-2.6-1.9-4.9-4-6.2-7.3Z"/>
  </g>
</svg>