<svg viewBox="0 0 566.93 566.93" xmlns="http://www.w3.org/2000/svg"><circle cx="283.46" cy="283.46" fill="#ef781b" r="269.29"/><circle cx="283.46" cy="283.46" fill="#1c1411" r="255.83"/><g fill="#fff"><path d="m80.54 269.8 14.93.87a1 1 0 0 1 1 .5 2.86 2.86 0 0 1 .16 1.31 2.75 2.75 0 0 1 -.31 1.26 1 1 0 0 1 -1 .39l-14.93-.87-.45 7.83a.89.89 0 0 1 -.4.8 2.31 2.31 0 0 1 -1.07.13 2.22 2.22 0 0 1 -1-.26.83.83 0 0 1 -.3-.84l1.11-19.13c0-.42.16-.69.4-.8a2.26 2.26 0 0 1 1.06-.14 2.23 2.23 0 0 1 1 .26.87.87 0 0 1 .3.84z"/><path d="m87.25 255.51 3-16.5-6.94-1.28c-.5-.09-.8-.3-.9-.61a2.82 2.82 0 0 1 0-1.33 2.75 2.75 0 0 1 .46-1.21 1 1 0 0 1 1-.26l16.37 3c.5.09.8.29.89.61a2.68 2.68 0 0 1 0 1.3 2.92 2.92 0 0 1 -.46 1.24 1 1 0 0 1 -1.06.25l-6.66-1.23-2.95 16.51 6.67 1.23a1 1 0 0 1 .89.61 3 3 0 0 1 0 1.33 2.7 2.7 0 0 1 -.46 1.21 1 1 0 0 1 -1 .26l-16.37-3c-.5-.09-.79-.29-.9-.61a3 3 0 0 1 0-1.3 2.92 2.92 0 0 1 .46-1.24 1 1 0 0 1 1.06-.25z"/><path d="m95.48 230.26 2.9.94a1.69 1.69 0 0 0 1.68-.55 7 7 0 0 0 1.59-3l3.82-11.85c.13-.4.32-.63.59-.68a2.31 2.31 0 0 1 1.06.14 2.35 2.35 0 0 1 .93.5.85.85 0 0 1 .1.9l-3.85 12q-2.37 7.33-7 5.85l-8.75-2.82q-4.6-1.49-2.25-8.82l1.19-3.69c.13-.39.32-.6.58-.65a2.18 2.18 0 0 1 1.07.13 2.37 2.37 0 0 1 .94.51.85.85 0 0 1 .09.87l-1.17 3.55a7.24 7.24 0 0 0 -.46 3.36 1.67 1.67 0 0 0 1.06 1.43l3.17 1 5.23-16.07c.13-.4.33-.62.59-.67a2.17 2.17 0 0 1 1.06.14 2.31 2.31 0 0 1 1 .5.87.87 0 0 1 .08.89z"/><path d="m104.64 197.86 7.88-14.81-6.23-3.31c-.44-.24-.67-.53-.67-.86a3 3 0 0 1 .41-1.26 2.79 2.79 0 0 1 .81-1 1 1 0 0 1 1.08.08l14.69 7.82c.45.23.67.52.67.85a2.77 2.77 0 0 1 -.39 1.24 3 3 0 0 1 -.82 1 1 1 0 0 1 -1.08-.08l-6-3.18-7.88 14.81 6 3.18c.44.24.66.53.66.86a2.85 2.85 0 0 1 -.4 1.26 2.79 2.79 0 0 1 -.81 1 1 1 0 0 1 -1.08-.08l-14.7-7.82c-.44-.23-.66-.52-.66-.85a2.8 2.8 0 0 1 .39-1.24 2.91 2.91 0 0 1 .82-1 1 1 0 0 1 1.08.08z"/><path d="m129 177.36q-4.5 6.27-8.43 3.44l-7.47-5.37q-3.93-2.82.56-9.09l4.43-6.15c3-4.18 5.81-5.32 8.43-3.44l7.47 5.37q3.93 2.82-.57 9.09zm2.08-7.71a7 7 0 0 0 1.45-3.06 1.68 1.68 0 0 0 -.55-1.68l-7.47-5.37a1.69 1.69 0 0 0 -1.78 0 7.05 7.05 0 0 0 -2.42 2.36l-4.3 6a7.18 7.18 0 0 0 -1.47 3 1.7 1.7 0 0 0 .56 1.69l7.47 5.36a1.69 1.69 0 0 0 1.77 0 6.89 6.89 0 0 0 2.43-2.36z"/><path d="m144.23 158.1q-5.25 5.66-8.8 2.36l-9.43-8.78a1 1 0 0 1 -.43-1 2.78 2.78 0 0 1 .7-1.09 2.91 2.91 0 0 1 1-.8 1 1 0 0 1 1 .35l9.48 8.78a1.7 1.7 0 0 0 1.75.22 6.91 6.91 0 0 0 2.7-2l8.67-9.36a.81.81 0 0 1 .81-.35 2.26 2.26 0 0 1 .88.56 2.63 2.63 0 0 1 .66.86.82.82 0 0 1 -.29.84z"/><path d="m159.85 142.66q-5.86 5-9 1.33l-8.4-9.82a1 1 0 0 1 -.31-1 2.88 2.88 0 0 1 .82-1 2.91 2.91 0 0 1 1.14-.67 1 1 0 0 1 1 .47l8.4 9.82a1.71 1.71 0 0 0 1.71.42 7 7 0 0 0 2.92-1.71l9.69-8.3a.83.83 0 0 1 .85-.25 2.21 2.21 0 0 1 .8.66 2.53 2.53 0 0 1 .56.93.82.82 0 0 1 -.38.8z"/><path d="m177 129.21q-6.44 4.26-9.11.22l-5.08-7.67q-2.67-4 3.76-8.3l6.32-4.18q6.42-4.26 9.1-.22l5.08 7.66q2.67 4.05-3.75 8.3zm4.68-6.48a6.84 6.84 0 0 0 2.44-2.34 1.69 1.69 0 0 0 .08-1.77l-5.07-7.62a1.67 1.67 0 0 0 -1.66-.63 7.09 7.09 0 0 0 -3.11 1.35l-6.14 4.07a7.11 7.11 0 0 0 -2.46 2.33 1.69 1.69 0 0 0 -.07 1.78l5.08 7.67a1.71 1.71 0 0 0 1.66.62 6.92 6.92 0 0 0 3.11-1.35z"/><path d="m199.48 114.67a2 2 0 0 1 -1.36 1.85 2.8 2.8 0 0 1 -1.3.29 1.89 1.89 0 0 1 -1.14-.49l-13.27-11.61a1.26 1.26 0 0 1 -.39-.48 1 1 0 0 1 .12-1 2.6 2.6 0 0 1 1.1-.86 2 2 0 0 1 .95-.22 1.29 1.29 0 0 1 .73.31l11.49 10.48v-15.17a2.47 2.47 0 0 1 .28-1.26 2.14 2.14 0 0 1 1-.74 2 2 0 0 1 1.19-.25 2.74 2.74 0 0 1 1.05.65l11.46 9.92-.25-15.61c0-.57.33-1 1-1.33a2.61 2.61 0 0 1 1.38-.27 1 1 0 0 1 .86.6 1.42 1.42 0 0 1 .11.61l-.05 17.69a2.13 2.13 0 0 1 -1.45 2 2.83 2.83 0 0 1 -1.23.27 1.69 1.69 0 0 1 -1.1-.44l-11.16-9.62z"/><path d="m255.11 79.77a2.37 2.37 0 0 1 .78-.87 2.93 2.93 0 0 1 1.07-.43c1.26-.25 2 .21 2.23 1.36l3.11 15.64a1 1 0 0 1 -.24 1.06 3.73 3.73 0 0 1 -2.56.5c-.32-.09-.52-.38-.62-.88l-2.41-12.15-7.74 14.37a3 3 0 0 1 -.75.92 2.55 2.55 0 0 1 -1.08.45 3.09 3.09 0 0 1 -1.28 0 2.53 2.53 0 0 1 -1.05-.57l-12.68-10.3 2.41 12.13a1 1 0 0 1 -.24 1 3.63 3.63 0 0 1 -2.53.51c-.32-.1-.53-.39-.63-.89l-3.11-15.63c-.23-1.16.28-1.86 1.52-2.11a2.58 2.58 0 0 1 2.2.49l14.57 11.93z"/><path d="m267.24 88.73.14 3a1.69 1.69 0 0 0 1.1 1.38 7 7 0 0 0 3.36.44l12.44-.55a.88.88 0 0 1 .84.32 2.18 2.18 0 0 1 .24 1 2.24 2.24 0 0 1 -.15 1.05.84.84 0 0 1 -.8.4l-12.54.59q-7.71.36-7.93-4.49l-.42-9.18c-.16-3.23 2.34-5 7.47-5.2l3.88-.18a.82.82 0 0 1 .81.32 2.21 2.21 0 0 1 .24 1 2.12 2.12 0 0 1 -.14 1.06.84.84 0 0 1 -.78.39l-3.77.18a7.18 7.18 0 0 0 -3.31.74 1.69 1.69 0 0 0 -1 1.49l.16 3.33 16.92-.68a.85.85 0 0 1 .84.31 2.24 2.24 0 0 1 .24 1 2.29 2.29 0 0 1 -.14 1.07.87.87 0 0 1 -.81.39z"/><path d="m308.74 97.61a5.66 5.66 0 0 1 -.59-.07 1.25 1.25 0 0 1 -.43-.17 3.2 3.2 0 0 1 -.42-.31 7.2 7.2 0 0 1 -.53-.5l-15-14.92-1.08 13.27c0 .5-.22.82-.53 1a2.79 2.79 0 0 1 -1.31.13 2.85 2.85 0 0 1 -1.26-.34 1 1 0 0 1 -.36-1l1.31-16.7a1.05 1.05 0 0 1 .5-.94 2.49 2.49 0 0 1 1.24-.15 3.53 3.53 0 0 1 1.33.33 4.67 4.67 0 0 1 1 .83l14.84 14.93 1.08-13.29a1 1 0 0 1 .53-1 2.72 2.72 0 0 1 1.29-.13 2.81 2.81 0 0 1 1.28.34 1 1 0 0 1 .36 1l-1.35 16.59a1 1 0 0 1 -.53.95 3 3 0 0 1 -1.37.15z"/><path d="m62 192.79 16.34 6.53c.55.22.84.52.89.91a3.45 3.45 0 0 1 -.32 1.53 3.33 3.33 0 0 1 -.81 1.29 1.2 1.2 0 0 1 -1.27 0l-16.33-6.47-3.42 8.57c-.18.45-.43.7-.74.74a2.56 2.56 0 0 1 -1.24-.25 2.66 2.66 0 0 1 -1.1-.64 1 1 0 0 1 0-1.05l8.37-20.95c.18-.45.43-.7.74-.74a2.69 2.69 0 0 1 1.24.24 2.55 2.55 0 0 1 1.06.68 1 1 0 0 1 0 1z"/><path d="m88.19 181.17q-4.36 8-9.37 5.2l-13.31-7.37c-.52-.29-.78-.62-.77-1a3.17 3.17 0 0 1 .48-1.45 3.34 3.34 0 0 1 1-1.21 1.2 1.2 0 0 1 1.27.11l13.32 7.33a2 2 0 0 0 2.06-.25 8.18 8.18 0 0 0 2.5-3.08l4.43-8.06a8.12 8.12 0 0 0 1.27-3.76 2 2 0 0 0 -.89-1.88l-13.32-7.32c-.52-.29-.78-.63-.77-1a3.34 3.34 0 0 1 .5-1.48 3.17 3.17 0 0 1 1-1.18 1.19 1.19 0 0 1 1.27.1l13.32 7.33q5 2.76.62 10.7z"/><path d="m113.58 142.71a4.89 4.89 0 0 1 -.45.54 1.37 1.37 0 0 1 -.43.33 3.07 3.07 0 0 1 -.57.23c-.21.07-.49.14-.83.22l-24.3 5.75 12.58 9.33q.72.52.63 1.11a3.36 3.36 0 0 1 -.69 1.39 3.24 3.24 0 0 1 -1.12 1 1.17 1.17 0 0 1 -1.24-.28l-15.69-11.61a1.25 1.25 0 0 1 -.64-1.08 2.87 2.87 0 0 1 .63-1.33 4 4 0 0 1 1.16-1.13 5.21 5.21 0 0 1 1.47-.51l24-5.56-12.61-9.35a1.19 1.19 0 0 1 -.62-1.11 3.12 3.12 0 0 1 .67-1.37 3.42 3.42 0 0 1 1.13-1.07 1.19 1.19 0 0 1 1.25.28l15.73 11.66a1.17 1.17 0 0 1 .62 1.11 3.5 3.5 0 0 1 -.68 1.45z"/><path d="m131.09 115.81a4.69 4.69 0 0 1 1.48 4.68 13.54 13.54 0 0 1 -3.75 5.82l-6.48 6.69q-6.33 6.49-10.42 2.52l-7.74-7.55q-4.09-4 2.24-10.48l3-3.09a1 1 0 0 1 1-.4 2.6 2.6 0 0 1 1 .7 2.66 2.66 0 0 1 .73 1 1 1 0 0 1 -.38 1l-2.93 3a8.21 8.21 0 0 0 -2.24 3.29 2 2 0 0 0 .4 2.01l7.75 7.55a2 2 0 0 0 2.06.3 8.18 8.18 0 0 0 3.24-2.32l6.31-6.47a8 8 0 0 0 2.22-3.29 2 2 0 0 0 -.36-2l-3.9-3.8a1.22 1.22 0 0 1 -.49-1.18 3.39 3.39 0 0 1 .86-1.28 3.59 3.59 0 0 1 1.28-.91 1.17 1.17 0 0 1 1.21.43z"/><path d="m143.63 113q-7.14 5.6-10.66 1.1l-9.37-12a1.19 1.19 0 0 1 -.31-1.24 3.17 3.17 0 0 1 1-1.14 3.31 3.31 0 0 1 1.38-.73 1.19 1.19 0 0 1 1.12.59l9.38 12a2 2 0 0 0 2 .58 8.1 8.1 0 0 0 3.51-1.86l7.24-5.67a8.12 8.12 0 0 0 2.64-3 2 2 0 0 0 -.09-2.07l-9.37-12a1.19 1.19 0 0 1 -.31-1.24 3.41 3.41 0 0 1 1-1.16 3.28 3.28 0 0 1 1.35-.71c.39-.07.76.13 1.13.6l9.37 12q3.52 4.48-3.62 10.08z"/><path d="m162.53 87.78q-7.8 4.65-10.71-.25l-.62-1q-2.91-4.91 4.88-9.55l2.63-1.57a1 1 0 0 1 1-.13 2.55 2.55 0 0 1 .83.94 2.58 2.58 0 0 1 .44 1.19c0 .31-.19.6-.62.85l-2.71 1.61a7.64 7.64 0 0 0 -2.92 2.55 2 2 0 0 0 -.09 2l.61 1a2 2 0 0 0 1.83.87 7.41 7.41 0 0 0 3.67-1.29l6.25-3.72q7.78-4.64 10.71.25l.78 1.32q2.92 4.89-4.87 9.54l-12.9 7.69a1 1 0 0 1 -1 .14 2.6 2.6 0 0 1 -.83-1 2.55 2.55 0 0 1 -.44-1.18c0-.32.19-.6.62-.85l13-7.74a7.77 7.77 0 0 0 2.83-2.45 2 2 0 0 0 .09-2l-.79-1.32a2 2 0 0 0 -1.82-.87 7.58 7.58 0 0 0 -3.64 1.35z"/><path d="m181.28 73.26 11.2-14.52a3 3 0 0 1 .72-.69 9.34 9.34 0 0 1 1.37-.72 2 2 0 0 1 1.21-.15 1.21 1.21 0 0 1 .88.77 1.52 1.52 0 0 1 -.32 1.68l-11.59 14.2 18.94 1a1.53 1.53 0 0 1 1.48.88 1.24 1.24 0 0 1 0 1.17 2 2 0 0 1 -.92.8 9.78 9.78 0 0 1 -1.45.54 3.06 3.06 0 0 1 -1 .08l-18.88-1.3 3.2 7.16a1.21 1.21 0 0 1 0 1.28 3.46 3.46 0 0 1 -1.29.88 3.28 3.28 0 0 1 -1.48.35c-.4 0-.71-.31-.95-.85l-8-17.88a1.21 1.21 0 0 1 0-1.28 3.17 3.17 0 0 1 1.26-.86 3.25 3.25 0 0 1 1.51-.37c.4 0 .71.31.95.85z"/><path d="m214.11 50.85a3.32 3.32 0 0 1 1.48-.15 2.4 2.4 0 0 1 1.12.49l18.29 14.46a1.33 1.33 0 0 1 .41.62 1.18 1.18 0 0 1 0 .67 1.79 1.79 0 0 1 -.35.65 2.75 2.75 0 0 1 -.59.53 2.68 2.68 0 0 1 -.73.34 2.16 2.16 0 0 1 -.78.09 1.39 1.39 0 0 1 -.69-.29l-5-4-16.36 4.84-1.76 6a1.2 1.2 0 0 1 -.4.62 2.07 2.07 0 0 1 -.68.34 2.76 2.76 0 0 1 -.77.11 2.63 2.63 0 0 1 -.8-.14 2 2 0 0 1 -.64-.35 1.11 1.11 0 0 1 -.38-.57 1.32 1.32 0 0 1 0-.71l6.61-21.85a2.14 2.14 0 0 1 .65-1 3.4 3.4 0 0 1 1.37-.7zm-2.11 14.47 12.13-3.61-8.94-7.28z"/><path d="m195.27 474.37-7.86 16.63c-.27.56-.61.85-1 .86a4.51 4.51 0 0 1 -2.86-1.35 1.27 1.27 0 0 1 0-1.33l7.87-16.59-8.69-4.12c-.47-.22-.71-.5-.73-.82a2.87 2.87 0 0 1 .34-1.28 2.81 2.81 0 0 1 .77-1.06 1.06 1.06 0 0 1 1.1 0l21.26 10.09c.46.22.7.49.72.82a2.59 2.59 0 0 1 -.34 1.27 2.66 2.66 0 0 1 -.77 1.07 1 1 0 0 1 -1.09 0z"/><path d="m215.19 478.61a3.36 3.36 0 0 1 1.33.77 2.52 2.52 0 0 1 .65 1.1l6.62 23.37a1.43 1.43 0 0 1 0 .77 1.29 1.29 0 0 1 -.42.57 2 2 0 0 1 -.69.33 2.52 2.52 0 0 1 -.83.08 2.77 2.77 0 0 1 -.82-.15 2 2 0 0 1 -.71-.4 1.39 1.39 0 0 1 -.41-.67l-1.78-6.38-16.79-5.85-5.16 4a1.23 1.23 0 0 1 -.72.27 2.14 2.14 0 0 1 -.79-.12 2.58 2.58 0 0 1 -.71-.38 2.4 2.4 0 0 1 -.59-.6 2.22 2.22 0 0 1 -.34-.69 1.27 1.27 0 0 1 0-.72 1.45 1.45 0 0 1 .45-.59l18.92-14.46a2.27 2.27 0 0 1 1.18-.47 3.69 3.69 0 0 1 1.61.22zm-10.63 10.95 12.44 4.35-3.13-11.62z"/><path d="m235 508.37q-9.28-1.86-8.11-7.69l2.21-11.07q1.17-5.83 10.45-4l15.36 3.08c.5.09.8.3.9.62a2.63 2.63 0 0 1 0 1.31 2.59 2.59 0 0 1 -.49 1.22 1 1 0 0 1 -1.07.23l-15.24-3a8.75 8.75 0 0 0 -4.15-.1 2.07 2.07 0 0 0 -1.6 1.49l-2.26 11.05a2.07 2.07 0 0 0 .91 2 8.58 8.58 0 0 0 3.86 1.53l15.23 3.02c.51.1.8.3.89.61a3 3 0 0 1 0 1.32 3.08 3.08 0 0 1 -.47 1.21 1 1 0 0 1 -1.06.24z"/><path d="m271.26 493.45-1.26 18.31c0 .62-.25 1-.63 1.17a3.41 3.41 0 0 1 -1.61.18 3.33 3.33 0 0 1 -1.55-.39 1.25 1.25 0 0 1 -.46-1.25l1.25-18.31-9.6-.66a1 1 0 0 1 -1-.5 2.69 2.69 0 0 1 -.15-1.3 2.75 2.75 0 0 1 .33-1.28 1 1 0 0 1 1-.36l23.48 1.6a1 1 0 0 1 1 .5 3.59 3.59 0 0 1 -.18 2.58 1 1 0 0 1 -1 .36z"/><path d="m288.08 512.1a1.23 1.23 0 0 1 -.53 1.22 3.46 3.46 0 0 1 -1.59.31 3.33 3.33 0 0 1 -1.57-.27 1.25 1.25 0 0 1 -.56-1.21l-.24-20.43a1.23 1.23 0 0 1 .53-1.22 3.4 3.4 0 0 1 1.57-.31 3.47 3.47 0 0 1 1.6.27 1.24 1.24 0 0 1 .55 1.21z"/><path d="m301.44 512.82q-9.42.9-10-5l-1.07-11.23q-.57-5.93 8.85-6.82l15.6-1.49a1 1 0 0 1 1 .33 2.74 2.74 0 0 1 .37 1.27 2.81 2.81 0 0 1 -.12 1.31 1 1 0 0 1 -1 .52l-15.47 1.48a8.69 8.69 0 0 0 -4 1.11 2.07 2.07 0 0 0 -1.11 1.89l1.08 11.23a2.06 2.06 0 0 0 1.53 1.58 8.5 8.5 0 0 0 4.14.34l15.5-1.48a1 1 0 0 1 1 .34 2.91 2.91 0 0 1 .34 1.27 2.81 2.81 0 0 1 -.1 1.29c-.12.31-.43.49-.94.54z"/><path d="m332.28 484.33a3.51 3.51 0 0 1 1.55-.09 2.53 2.53 0 0 1 1.14.58l18.29 16a1.4 1.4 0 0 1 .39.67 1.13 1.13 0 0 1 0 .7 1.86 1.86 0 0 1 -.39.66 3.37 3.37 0 0 1 -.65.52 2.92 2.92 0 0 1 -.78.32 2.06 2.06 0 0 1 -.81 0 1.53 1.53 0 0 1 -.71-.33l-5-4.44-17.31 4.26-2.13 6.19a1.22 1.22 0 0 1 -.45.63 2.09 2.09 0 0 1 -.73.32 2.66 2.66 0 0 1 -.81.07 2.39 2.39 0 0 1 -.81-.18 2 2 0 0 1 -.66-.4 1.1 1.1 0 0 1 -.37-.61 1.49 1.49 0 0 1 .05-.74l8-22.44a2.23 2.23 0 0 1 .73-1 3.69 3.69 0 0 1 1.46-.69zm-2.93 15 12.82-3.16-9-8z"/><path d="m365.21 498.46q-8.81 3.48-11-2l-5.83-14.75a1.23 1.23 0 0 1 .06-1.33 3.48 3.48 0 0 1 1.35-.84 3.4 3.4 0 0 1 1.59-.32q.62.06 1 .93l5.83 14.74a2.08 2.08 0 0 0 1.79 1.11 8.56 8.56 0 0 0 4.06-.82l14.57-5.76a1 1 0 0 1 1.08 0 2.89 2.89 0 0 1 .67 1.1 3 3 0 0 1 .28 1.3c0 .33-.28.59-.76.78z"/><path d="m395 457.53a3.66 3.66 0 0 1 1.44-.58 2.53 2.53 0 0 1 1.27.18l22.48 9.18a1.38 1.38 0 0 1 .59.5 1.25 1.25 0 0 1 .19.67 2 2 0 0 1 -.17.75 2.54 2.54 0 0 1 -.44.71 3 3 0 0 1 -.63.55 2 2 0 0 1 -.75.32 1.53 1.53 0 0 1 -.78-.09l-6.15-2.59-14.95 9.62v6.55a1.16 1.16 0 0 1 -.23.73 1.91 1.91 0 0 1 -.58.55 2.37 2.37 0 0 1 -.74.32 2.62 2.62 0 0 1 -.83.1 2.23 2.23 0 0 1 -.75-.16 1.19 1.19 0 0 1 -.55-.47 1.42 1.42 0 0 1 -.19-.71l.27-23.82a2.33 2.33 0 0 1 .35-1.22 3.84 3.84 0 0 1 1.15-1.09zm2.09 15.12 11.11-7.14-11.08-4.7z"/><path d="m424.9 452q-7.14 6.22-11 1.73l-.82-.95q-3.9-4.49 3.24-10.69l2.41-2.1a1.06 1.06 0 0 1 1.05-.34 2.89 2.89 0 0 1 1 .82 2.8 2.8 0 0 1 .67 1.14q.1.48-.48 1l-2.49 2.16a8.06 8.06 0 0 0 -2.53 3.15 2.08 2.08 0 0 0 .29 2.11l.81.94a2.12 2.12 0 0 0 2 .56 7.92 7.92 0 0 0 3.49-2.06l5.69-4.95q7.14-6.21 11-1.72l1.05 1.21q3.9 4.49-3.24 10.69l-11.75 10.3a1.05 1.05 0 0 1 -1 .34 2.79 2.79 0 0 1 -1-.82 2.7 2.7 0 0 1 -.66-1.14 1 1 0 0 1 .47-1l11.82-10.38a8.06 8.06 0 0 0 2.53-3.15 2.1 2.1 0 0 0 -.28-2.11l-1.05-1.2a2.09 2.09 0 0 0 -2-.56 7.86 7.86 0 0 0 -3.48 2z"/><path d="m445.74 432q-6.27 7.09-10.72 3.16l-.94-.83q-4.45-3.93 1.81-11l2.12-2.4a1.06 1.06 0 0 1 1-.47 3.61 3.61 0 0 1 1.94 1.72 1 1 0 0 1 -.34 1l-2.18 2.47a8 8 0 0 0 -2.1 3.46 2.07 2.07 0 0 0 .56 2l.93.82a2.09 2.09 0 0 0 2.09.29 7.82 7.82 0 0 0 3.19-2.5l5-5.65q6.27-7.1 10.73-3.16l1.17 1.09q4.46 3.94-1.81 11l-10.37 11.75a1.05 1.05 0 0 1 -1 .46 2.66 2.66 0 0 1 -1.13-.67 2.72 2.72 0 0 1 -.81-1 1 1 0 0 1 .34-1l10.43-11.82a8.08 8.08 0 0 0 2.1-3.46 2.07 2.07 0 0 0 -.56-2.05l-1.2-1.05a2.07 2.07 0 0 0 -2.09-.29 7.91 7.91 0 0 0 -3.18 2.49z"/><path d="m455.62 397.83a3.46 3.46 0 0 1 1.07-1.11 2.55 2.55 0 0 1 1.24-.36l24.27-.67a1.32 1.32 0 0 1 .74.22 1.26 1.26 0 0 1 .45.54 1.86 1.86 0 0 1 .15.75 3 3 0 0 1 -.12.83 2.92 2.92 0 0 1 -.35.76 2.27 2.27 0 0 1 -.56.59 1.41 1.41 0 0 1 -.75.23l-6.67.12-9.8 14.83 2.64 6a1.21 1.21 0 0 1 .08.77 1.88 1.88 0 0 1 -.31.73 2.53 2.53 0 0 1 -.54.6 2.65 2.65 0 0 1 -.72.42 2.35 2.35 0 0 1 -.76.16 1.19 1.19 0 0 1 -.68-.24 1.44 1.44 0 0 1 -.46-.57l-9.37-21.9a2.34 2.34 0 0 1 -.17-1.26 3.82 3.82 0 0 1 .62-1.44zm8 13 7.28-11-12 .17z"/><path d="m489.48 385.72q-4 8.56-9.41 6l-14.35-6.72c-.56-.26-.85-.6-.87-1a4.51 4.51 0 0 1 1.35-2.86 1.24 1.24 0 0 1 1.33 0l14.35 6.75a2.08 2.08 0 0 0 2.13-.4 8.44 8.44 0 0 0 2.4-3.37l4.08-8.68a8.52 8.52 0 0 0 1.07-4 2.13 2.13 0 0 0 -1.06-1.9l-14.35-6.74c-.56-.27-.85-.6-.87-1a3.64 3.64 0 0 1 .42-1.57 3.43 3.43 0 0 1 .93-1.3 1.27 1.27 0 0 1 1.33 0l14.35 6.74q5.38 2.54 1.36 11.1z"/><path d="m502.12 354.76q-2.82 9-8.49 7.27l-15.15-4.72c-.58-.18-.92-.47-1-.88a3.26 3.26 0 0 1 .19-1.58 3.54 3.54 0 0 1 .75-1.44 1.25 1.25 0 0 1 1.32-.16l15.15 4.75a2.08 2.08 0 0 0 2.06-.68 8.6 8.6 0 0 0 1.91-3.67l4.65-15c.16-.49.39-.76.71-.82a2.81 2.81 0 0 1 1.27.16 3 3 0 0 1 1.19.6 1 1 0 0 1 .13 1.08z"/><path d="m489.63 324.78 17.95 3.8q.92.19 1.08.78a3.47 3.47 0 0 1 -.05 1.62 3.36 3.36 0 0 1 -.61 1.48 1.24 1.24 0 0 1 -1.3.28l-17.95-3.8-2 9.41c-.11.5-.32.8-.64.9a2.81 2.81 0 0 1 -1.31 0 2.59 2.59 0 0 1 -1.22-.5 1 1 0 0 1 -.21-1.07l4.87-23c.11-.5.32-.79.63-.89a2.7 2.7 0 0 1 1.32 0 2.76 2.76 0 0 1 1.21.5 1.07 1.07 0 0 1 .22 1.08z"/><path d="m493.69 288.08 18.34.58a1.25 1.25 0 0 1 1.2.58 4.59 4.59 0 0 1 -.1 3.16 1.25 1.25 0 0 1 -1.23.51l-18.35-.58-.3 9.62c0 .51-.17.84-.47 1a2.7 2.7 0 0 1 -1.3.2 2.81 2.81 0 0 1 -1.29-.28 1 1 0 0 1 -.39-1l.74-23.52c0-.52.17-.85.46-1a2.9 2.9 0 0 1 1.31-.2 2.71 2.71 0 0 1 1.28.29 1 1 0 0 1 .4 1z"/><path d="m503.62 271.73 3.72-.36a2.07 2.07 0 0 0 1.63-1.43 8.53 8.53 0 0 0 .35-4.15l-1.45-15.21a1.09 1.09 0 0 1 .34-1.05 2.88 2.88 0 0 1 1.27-.36 2.77 2.77 0 0 1 1.29.12 1 1 0 0 1 .54 1l1.46 15.34q.88 9.42-5 10l-11.23 1.06q-5.92.57-6.82-8.86l-.45-4.74a1 1 0 0 1 .34-1 2.63 2.63 0 0 1 1.26-.36 2.73 2.73 0 0 1 1.32.11 1 1 0 0 1 .52.93l.44 4.62a8.58 8.58 0 0 0 1.1 4 2.07 2.07 0 0 0 1.89 1.11l4.07-.39-2-20.65a1 1 0 0 1 .34-1.05 2.74 2.74 0 0 1 1.26-.36 2.79 2.79 0 0 1 1.31.12c.31.13.48.45.53 1z"/><path d="m484.46 235.44a3.45 3.45 0 0 1 -.08-1.54 2.48 2.48 0 0 1 .58-1.14l16.04-18.23a1.32 1.32 0 0 1 .66-.39 1.2 1.2 0 0 1 .7 0 2.05 2.05 0 0 1 .66.4 3 3 0 0 1 .52.65 2.92 2.92 0 0 1 .32.78 2.27 2.27 0 0 1 .05.81 1.42 1.42 0 0 1 -.34.71l-4.46 5 4.18 17.28 6.18 2.15a1.26 1.26 0 0 1 .62.46 2.31 2.31 0 0 1 .33.73 3 3 0 0 1 .06.81 2.66 2.66 0 0 1 -.18.81 2.15 2.15 0 0 1 -.4.66 1.22 1.22 0 0 1 -.62.36 1.38 1.38 0 0 1 -.74-.05l-22.41-8.06a2.29 2.29 0 0 1 -1-.74 3.54 3.54 0 0 1 -.67-1.46zm15 3-3.11-12.83-8.07 8.93z"/><path d="m468.15 186.72a2.93 2.93 0 0 1 -1.24-.69 3.59 3.59 0 0 1 -.79-1.18q-.94-2.16 1.05-3l17.94-7.85a1.25 1.25 0 0 1 1.33 0 3.42 3.42 0 0 1 .9 1.35 3.54 3.54 0 0 1 .38 1.58c0 .41-.33.74-.9 1l-13.9 6.07 19.25 5.53a3.86 3.86 0 0 1 1.3.66 3.13 3.13 0 0 1 .82 1.18 3.63 3.63 0 0 1 .36 1.53 3.16 3.16 0 0 1 -.4 1.42l-9.06 17.88 13.9-6a1.25 1.25 0 0 1 1.33 0 3.58 3.58 0 0 1 .9 1.35 3.24 3.24 0 0 1 .36 1.55c0 .41-.33.74-.89 1l-18 7.8c-1.33.58-2.3.16-2.92-1.27a3.14 3.14 0 0 1 0-2.76l10.4-20.57z"/></g><path d="m140.47 450.21c-6.94-7.84-11.42-12.88-15.88-17.94-1.38-1.58-2.68-3.23-3.36-4l307-307c5.58 5.87 11.64 12.26 18.95 20l-36.13 33.24c32.4 41 46 85.86 37.92 136.19-6.06 37.86-23.64 69.91-51.69 96.1-55.49 51.79-147.5 64.67-221.42 6.11zm56.53-58.06c55.55 48.05 143.7 40 192.81-17.56 50.29-58.94 38.37-139.71 1.59-176.85q-97.01 97.01-194.4 194.41z" fill="#ef781b" stroke="#fff" stroke-miterlimit="10" stroke-width="2"/><path d="m159.27 348.21-19.74 19c-32.79-47.27-36.72-134.27 19.89-196.38 53.36-58.56 146.11-72.83 206.83-32.28l-19.17 20.54c-59.08-26.46-114.68-20.68-161.36 25.46-47.36 46.81-53.55 102.96-26.45 163.66z" fill="#ef781b" stroke="#fff" stroke-miterlimit="10" stroke-width="2"/></svg>