<svg enable-background="new 0 0 113.4 113.4" viewBox="0 0 113.4 113.4" xmlns="http://www.w3.org/2000/svg"><path d="m56.6 113.4c-31.2 0-56.6-25.4-56.6-56.7s25.5-56.8 56.8-56.7c31.5.1 56.6 25.8 56.6 56.8-.1 31.2-25.6 56.6-56.8 56.6zm-.3-65.1c-.1-1.2-.9.2-1.4-.3-5.5-11.1-5-23.3-5.8-35.2-.3-.1-.7-.2-1-.2-5.1.5-9.8 1.8-14.1 4.6-.5.3-1 .7-.9 1.6 3.1 1.9 4.4 5.1 5.7 8.4 2.1 5.2 3.6 10.7 5.1 16.1.8 3.1 1.8 6.2 1.7 9.4 0 1.9-.2 3.9-3 4.5 3.1 12.1 9 22.8 14.1 34.3.5-1 .9-1.7 1.2-2.4 4.3-9.2 8.7-18.3 11.9-27.9.4-1.3.9-2.7.6-4.1-1.8-.3-2.3-1.7-2.4-3.2-.2-2.9.3-5.7 1.1-8.5 1.6-6 3.2-12 5.5-17.8 1-2.4 2-4.7 3.6-6.8.7-.8 1.7-1.2 2.3-2.1-1.7-3-12.7-6.9-16.1-5.8-.3.4-.1.9-.1 1.4-.2 7.9-.6 15.9-2.1 23.7-.6 3.2-1.3 6.3-3 9.1-.3.5-.4 1.4-1.3 1-.2-.5-.5-.4-.6 0-.4.4-.6.5-1 .2zm-21 22.7c-1.2-2.1-2.4-4.2-3.5-6.3-1.2-2.3-2.4-4.7-3-7.3-.2-.9-.3-1.7.7-2.4 1.2 0 2.5-.2 3.3-1.3 1.9-2.7 2-5.8 2.1-8.8-3-1-5.7-1.9-8.4-2.7-.7-.2-1.2-.6-1.4-1.3-.8-2.1-1.6-4.2-2.5-6.2-.7-1.8-1.3-3.6-2-5.4-2.1 1.3-4 3.7-5.4 7-3.4 7.8-4.4 16-3.4 24.6 1.3 11.7 6.2 21.6 15.3 29.2 3 2.5 6.2 4.6 10 6.3-3.6-8.4-6.2-16.7-1.8-25.4zm41.1 25.5c6.5-3.2 12-7.3 16.2-12.8 7.5-9.8 10.1-20.9 9.1-33-.5-6.2-1.9-12.2-5.2-17.6-.9-1.6-2.1-2.9-3.7-3.9-.2.3-.3.5-.4.7-1.2 3.7-2.6 7.2-4.1 10.8-.3.8-.8 1.3-1.7 1.6-2.7.8-5.4 1.8-8.2 2.7 0 2 .2 3.9.7 5.7.7 2.5 1.7 4.7 4.7 4.4.8.6.9 1.3.7 2.1-.2 1.2-.6 2.4-1 3.5-1.6 3.7-3.5 7.1-5.5 10.4 4.5 8.7 1.9 16.9-1.6 25.4zm-33.8-51.3c-.9-3.8-1.7-7.4-2.5-10.8-4-1.6-7.9-3.1-12.1-4.8 1.1 3.8 2.2 7.3 3.3 10.8 3.6 1.6 7.3 3.1 11.3 4.8zm39.6-4.8c1.1-3.6 2.1-7.1 3.2-10.8-4.2 1.7-8.1 3.2-12.1 4.8-.8 3.5-1.6 7-2.5 10.8 4-1.7 7.7-3.2 11.4-4.8zm-38.6 26.3c-1-2.9-1.9-5.6-2.8-8.3-2.1-.5-4.1-1-6.2-1.5.9 2.4 1.7 4.6 2.5 6.8.2.5.5.8 1 1 1.7.6 3.4 1.2 5.5 2zm26.2-.1c2.1-.7 3.9-1.4 5.7-2 .3-.1.6-.4.7-.7.8-2.3 1.7-4.5 2.6-7-2.3.6-4.3 1-6.2 1.5-.9 2.7-1.8 5.3-2.8 8.2z" fill="#090909"/><g fill="#fdfdfd"><path d="m57.7 48c .9.4 1.1-.5 1.3-1 1.7-2.8 2.4-5.9 3-9.1 1.5-7.8 1.9-15.7 2.1-23.7 0-.5-.1-1 .1-1.4 3.6-1 14.6 2.9 16.2 5.8-.5.9-1.6 1.3-2.3 2.1-1.6 2.1-2.7 4.4-3.6 6.8-2.3 5.8-3.9 11.8-5.5 17.8-.8 2.8-1.3 5.6-1.1 8.5.1 1.5.6 2.9 2.4 3.2.4 1.5-.1 2.8-.6 4.1-3.2 9.6-7.6 18.7-11.9 27.9-.3.7-.7 1.4-1.2 2.4-5.1-11.4-11-22.2-14.1-34.3 2.8-.6 3-2.5 3-4.5.1-3.3-.9-6.3-1.7-9.4-1.5-5.4-3-10.9-5.1-16.1-1.3-3.2-2.6-6.5-5.7-8.4-.1-.9.5-1.3.9-1.6 4.3-2.8 9.1-4.1 14.1-4.6.3 0 .7.1 1 .2.8 12 .3 24.1 5.8 35.2.5.5 1.3-.9 1.4.3-.2.8-.2 1.6.4 2.3 1.1-.6.3-1.8 1.1-2.5z"/><path d="m35.3 71c-4.4 8.7-1.8 17 1.7 25.4-3.7-1.8-7-3.8-10-6.3-9.1-7.7-14-17.5-15.3-29.2-.9-8.6.1-16.8 3.5-24.8 1.4-3.3 3.3-5.7 5.4-7 .7 1.8 1.3 3.6 2 5.4.8 2.1 1.7 4.1 2.5 6.2.3.7.7 1.1 1.4 1.3 2.7.9 5.5 1.8 8.4 2.7-.1 3.1-.3 6.1-2.1 8.8-.8 1.2-2.1 1.3-3.3 1.3-.9.7-.9 1.5-.7 2.4.5 2.6 1.8 4.9 3 7.3 1.1 2.3 2.4 4.4 3.5 6.5z"/><path d="m76.4 96.5c3.5-8.4 6.1-16.7 1.7-25.5 2-3.3 4-6.7 5.5-10.4.5-1.1.9-2.3 1-3.5.1-.8 0-1.5-.7-2.1-3 .2-4-1.9-4.7-4.4-.5-1.8-.7-3.7-.7-5.7 2.8-.9 5.5-1.8 8.2-2.7.9-.3 1.4-.7 1.7-1.6 1.4-3.6 2.9-7.1 4.1-10.8.1-.2.2-.4.4-.7 1.6 1.1 2.7 2.4 3.7 3.9 3.3 5.4 4.7 11.4 5.2 17.6 1 12.1-1.6 23.2-9.1 33-4.3 5.6-9.8 9.7-16.3 12.9z"/></g><path d="m42.6 45.2c-4-1.7-7.7-3.2-11.4-4.8-1.1-3.6-2.1-7-3.3-10.8 4.2 1.6 8.1 3.2 12.1 4.8.9 3.4 1.7 6.9 2.6 10.8z" fill="#f9f9f9"/><path d="m82.2 40.4c-3.7 1.6-7.4 3.1-11.3 4.8.9-3.8 1.7-7.3 2.5-10.8 4-1.6 7.9-3.1 12.1-4.8-1.2 3.7-2.2 7.2-3.3 10.8z" fill="#f9f9f9"/><path d="m43.6 66.7c-2.1-.7-3.8-1.3-5.5-2-.5-.2-.8-.5-1-1-.8-2.2-1.6-4.4-2.5-6.8 2.2.5 4.2 1 6.2 1.5.9 2.7 1.8 5.3 2.8 8.3z" fill="#f6f5f6"/><path d="m69.8 66.6c1-2.9 1.8-5.5 2.7-8.2 2-.5 4-1 6.2-1.5-.9 2.5-1.7 4.7-2.6 7-.1.3-.4.6-.7.7-1.6.7-3.5 1.3-5.6 2z" fill="#f6f5f6"/><path d="m57.7 48c-.8.7 0 1.9-1 2.6-.6-.7-.7-1.5-.4-2.3.4.3.6.1.8-.3.1-.4.4-.5.6 0z" fill="#fdfdfd"/></svg>