<svg enable-background="new 0 0 113.4 113.4" viewBox="0 0 113.4 113.4" xmlns="http://www.w3.org/2000/svg"><circle cx="56.7" cy="56.7" fill="#030403" r="56.7"/><g fill="#fae500"><path d="m68.1 57.8c.1-.6.4-1 .8-1.4 8.2-6.4 16.5-12.7 24.7-19.1.1-.1.2-.1.3-.2 0-.9-.8-1.3-1.3-1.9-3.3-3.5-7.1-6.3-11.1-8.9-.3.1-.5.3-.7.6-6.8 7.7-13.7 15.5-20.5 23.2-.1.1-.2.3-.3.4.2 3.7.5 7.4.7 11.1l5.3 12.2z"/><path d="m45.2 58.2c-.1-.6-.4-1-.8-1.4-8.3-6.3-16.5-12.7-24.7-19-.1-.1-.2-.1-.3-.2 0-.9.8-1.3 1.3-1.9 3.3-3.5 7.1-6.3 11.1-8.9.3.1.5.3.7.6 6.8 7.7 13.7 15.5 20.5 23.2.1.1.2.3.3.4-.2 3.7-.5 7.4-.7 11.1l-5 11.8z"/><path d="m63.8 13.6h-7.1-7.2l-4.9 20.6 7.5 8.2 4.6-15.5 4.5 15.5 7.6-8.2z"/></g><path d="m105.6 32.2c-.8 0-.9.8-1.6.8-.4.8-1.2 1.3-1.9 1.9-9.3 8.1-18.5 16.2-27.9 24.1-1.8 1.5-2.9 3.2-3.5 5.5-1.5 5.7-3.2 11.3-4.9 17.1-2.3-5.4-4.5-10.5-6.7-15.7h-4.9c-2.2 5.1-4.4 10.3-6.7 15.7-1.7-5.8-3.4-11.4-4.9-17.1-.6-2.3-1.7-4-3.5-5.5-9.4-8-18.6-16.1-27.9-24.1-.7-.6-1.5-1-1.9-1.9-.6.1-.8-.7-1.6-.8-2 3.8-3.3 7.9-4.1 11.9.5.9 1.4.7 1.8 1.3 10.5 5.8 20.9 11.6 31.3 17.4.4.2.8.5 1.2.7-.5 5.8-1.1 11.6-1.7 17.5 2.2 3.6 4.5 7.3 6.8 11l7.5 18.2h1.1s3.7.9 4.9.9 4.9-.9 4.9-.9h1.1l7.5-18.2c2.3-3.8 4.6-7.5 6.8-11-.6-5.9-1.1-11.6-1.7-17.5.4-.2.8-.5 1.2-.7 10.4-5.8 20.8-11.6 31.2-17.4.4-.6 1.3-.4 1.8-1.3-.4-4-1.7-8.1-3.7-11.9z" fill="#fae400"/></svg>