<svg id="Capa_1" data-name="Capa 1" xmlns="http://www.w3.org/2000/svg" viewBox="0 0 566.93 566.93"><defs><style>.cls-1{fill:#1d1d1b;}.cls-2{fill:#ef7e07;}.cls-3{font-size:40px;font-family:Neuropol-Regular, Neuropol;}.cls-3,.cls-4{fill:#fff;}</style></defs><circle class="cls-1" cx="283.46" cy="283.46" r="279.21"/><circle class="cls-2" cx="283.46" cy="283.46" r="268.58"/><text class="cls-3" transform="matrix(0.05, -1, 1, 0.05, 63.82, 288.77)">T</text><text class="cls-3" transform="matrix(0.21, -0.98, 0.98, 0.21, 65.14, 256.3)">H</text><text class="cls-3" transform="translate(73.6 218.16) rotate(-68.02)">E</text><text class="cls-3" transform="translate(87.18 185.98) rotate(-61.75)"> </text><text class="cls-3" transform="matrix(0.57, -0.82, 0.82, 0.57, 92.72, 173.97)">D</text><text class="cls-3" transform="translate(115.73 142.49) rotate(-48.82)">I</text><text class="cls-3" transform="matrix(0.74, -0.67, 0.67, 0.74, 120.52, 135.57)">A</text><text class="cls-3" transform="translate(150.41 108.28) rotate(-32.12)">B</text><text class="cls-3" transform="translate(182.63 88.14) rotate(-22.63)">L</text><text class="cls-3" transform="translate(213.52 75.27) rotate(-14.35)">O</text><text class="cls-3" transform="translate(249.75 66.28) rotate(-4.26)">S</text><text class="cls-3" transform="translate(284.39 64.25) rotate(2.04)"> </text><text class="cls-3" transform="translate(297.61 63.97) rotate(8.71)">O</text><text class="cls-3" transform="translate(334.47 69.67) rotate(18.05)">F</text><text class="cls-3" transform="translate(366.86 80.78) rotate(24.24)"> </text><text class="cls-3" transform="matrix(0.86, 0.52, -0.52, 0.86, 379.24, 85.47)">D</text><text class="cls-3" transform="matrix(0.78, 0.62, -0.62, 0.78, 412.23, 106.02)">-</text><text class="cls-3" transform="matrix(0.7, 0.72, -0.72, 0.7, 426.83, 116.7)">B</text><text class="cls-3" transform="translate(453.3 143.95) rotate(55.2)">L</text><text class="cls-3" transform="translate(472.64 171.31) rotate(64.41)">O</text><text class="cls-3" transform="translate(488.72 204.95) rotate(73.8)">C</text><text class="cls-3" transform="translate(498.5 238.38) rotate(82.69)">K</text><text class="cls-3" transform="translate(502.34 272.56) rotate(88.93)"> </text><text class="cls-3" transform="translate(37.16 235.06) rotate(99.46)"> </text><text class="cls-3" transform="matrix(-0.11, 0.99, -0.99, -0.11, 34.72, 249.89)"> </text><text class="cls-3" transform="translate(33.18 264.81) rotate(92.63)"> </text><text class="cls-3" transform="translate(32.5 279.88) rotate(89.07)"> </text><text class="cls-3" transform="translate(32.74 294.83) rotate(85.88)"> </text><text class="cls-3" transform="translate(33.85 309.79) rotate(82.46)"> </text><text class="cls-3" transform="matrix(0.19, 0.98, -0.98, 0.19, 35.86, 324.69)"> </text><text class="cls-3" transform="matrix(0.25, 0.97, -0.97, 0.25, 38.76, 339.46)"> </text><text class="cls-3" transform="translate(42.53 354) rotate(72.1)"> </text><text class="cls-3" transform="translate(47.18 368.29) rotate(68.64)"> </text><text class="cls-3" transform="translate(52.69 382.28) rotate(65.19)"> </text><text class="cls-3" transform="matrix(0.47, 0.88, -0.88, 0.47, 59.03, 395.93)"> </text><text class="cls-3" transform="translate(66.17 409.13) rotate(58.31)"> </text><text class="cls-3" transform="translate(74.08 421.89) rotate(54.88)"> </text><text class="cls-3" transform="matrix(0.62, 0.78, -0.78, 0.62, 82.76, 434.17)"> </text><text class="cls-3" transform="matrix(0.67, 0.74, -0.74, 0.67, 92.13, 445.89)"> </text><text class="cls-3" transform="matrix(0.74, 0.67, -0.67, 0.74, 102.41, 458.04)">C</text><text class="cls-3" transform="matrix(0.84, 0.54, -0.54, 0.84, 131.27, 483.83)">O</text><text class="cls-3" transform="translate(166.16 506.15) rotate(23.31)">R</text><text class="cls-3" transform="translate(205.31 522.72) rotate(13.54)">R</text><text class="cls-3" transform="translate(246.53 532.24) rotate(4.3)">E</text><text class="cls-3" transform="translate(284.75 535.03) rotate(-4.67)">G</text><text class="cls-3" transform="matrix(0.98, -0.18, 0.18, 0.98, 325.16, 530.88)">I</text><text class="cls-3" transform="translate(336.11 529.56) rotate(-16.6)">D</text><text class="cls-3" transform="translate(377.07 517.01) rotate(-26.27)">O</text><text class="cls-3" transform="translate(414.07 498.51) rotate(-35.83)">R</text><path class="cls-1" d="M284.39,436.05c-10,0-19.39-2.75-30.59-6.35-9.72-3.14-18.84-7.73-26.62-11.79l-.09-.06c-6.27-3.84-12.35-8.13-18.24-12.27l-1.2-.85-.14-.14-.11-.12a11.81,11.81,0,0,0-3.33-2.75l-.46-.26-.19-.5c-.11-.27-.32-.56-1.12-.88L202,400l-1-1-.07-.14a13.63,13.63,0,0,0-3.21-2.92l-.08-.05-.07-.07-1.94-1.7-.36-.32-.12-.46c-.09-.36-.4-.59-1.15-1.06l-.74-.47v-.33q-4.8-5.39-9.59-10.79l-.05,0-.21-.28-.14-.15v0a243.68,243.68,0,0,1-14.78-22l-.05-.1-6.26-12.35-.06-.13-.06-.17a47.5,47.5,0,0,0-3.61-9.12l-.1-.19-.06-.23a34.34,34.34,0,0,0-2.4-7.07l-.06-.13-.28-1.17.05-.25-.33-.3-.11-.6c0-.13,0-.27,0-.41a2.47,2.47,0,0,0-.07-.55c-6.76-22.54-7.06-46.15-6.82-66.51.07-6,1.82-12.15,5.7-19.84l2.58-5.13.3,6.78c.17,3.9.31,7.26,1.26,10.4,4.39,14.79,13.89,26.31,24.95,38.76v-.4a79.56,79.56,0,0,0-8.43-40.59,218,218,0,0,1-12.87-30.31c-9.8-29.4-7.83-55.84,6-80.83.23-.42.46-.84.68-1.27a23.27,23.27,0,0,1,3.35-5.11l3.1-3.45-.49,4.61a136.54,136.54,0,0,0-.69,22.11c.92,17.24,5.8,29.95,15.34,40,12,12.65,24.45,25.73,31.41,42.78a133,133,0,0,1,33.78-15.23l.1,0,9.72-2.24h0l.14-.1.82,0,.74,0a2.12,2.12,0,0,0,1.22-.27l.31-.2,2.91-.3h.1l1,0a7.47,7.47,0,0,0,2.8-.42l.24-.09,2.74-.08,8.78,0,2,0h.09c1.31.18,2.64.35,4,.51,3,.38,6,.76,9,1.28,11.22,2,22.32,6.08,34.93,12.93l.07,0,10.13,7c3.23-12.33,10.56-22.12,18.05-30.87,2.67-3.11,5.48-6.16,8.2-9.11,3.28-3.57,6.68-7.26,9.82-11A39.43,39.43,0,0,0,390,173l.11-.47.37-.32s.05-.15,0-.59l0-.26.24-1,.07-.14a10.15,10.15,0,0,0,.91-4.4v-.09l.18-1.47.05-.15a23.13,23.13,0,0,0,1-8.22v-.2a66.37,66.37,0,0,0,.08-13.44v-.11c0-.5,0-1,0-1.52a17.73,17.73,0,0,0-.16-3.22c0-.14-.05-.28-.08-.42-.16-.75-.6-2.76,1.47-3.59a2.77,2.77,0,0,1,1.07-.22,2.69,2.69,0,0,1,2.43,2.12,2.06,2.06,0,0,0,.13.33,123.93,123.93,0,0,1,6.4,13.19c.5,1.14,1,2.27,1.5,3.41h0l.07.23.25.57-.05.08a155.25,155.25,0,0,1,4.86,21.23l.05.29-.06.28a4.66,4.66,0,0,0,.13,2.38l.07.21,0,2.57c0,1.49,0,3,0,4.47,0,10.73-2.42,21.19-5,31l0,.12-.05.11a15.14,15.14,0,0,0-.81,2.88,17.28,17.28,0,0,1-.95,3.31c-1.13,2.54-2.24,5.1-3.35,7.65-3,7-6.21,14.29-9.7,21.3-5.71,11.45-8.22,24.34-7.49,38.32a5.92,5.92,0,0,1,0,.73v0a6.45,6.45,0,0,1,.5-.53,59.09,59.09,0,0,0,7.72-9l1.57-2.12c8.67-11.7,16.86-22.75,16.35-38.18l-.18-5.42,2.94,4.56c4.25,6.6,6.31,15.07,6.12,25.17a394.72,394.72,0,0,1-2.79,43.27l0,.14-.1.45c-2.2,9.64-4.48,19.62-8.13,29.1A198.63,198.63,0,0,1,396,362c-11.66,19.13-26.13,35-43,47.09-2.71,1.94-5.53,3.77-8.27,5.54q-1.92,1.23-3.82,2.48l-.07,0-.07,0-1.25.62a20.92,20.92,0,0,0-4.1,2.43l-.05,0-.16.11-.18.1-12.38,5.75L317,428.4l-.61.3-.14.07-1.5.44h-.11a8.65,8.65,0,0,0-3.14,1.1l-.12.07-2.56.81-6.39,1.73-1.16.38-1.6.31h-.18A46.42,46.42,0,0,1,284.39,436.05Z"/><path class="cls-4" d="M172.89,132.38a137.64,137.64,0,0,0-.7,22.35c.82,15.35,4.75,29.36,15.76,41,12.17,12.81,24.37,25.71,31.17,42.5.29.7.61,1,1,1a2.19,2.19,0,0,0,1.11-.46,132.32,132.32,0,0,1,33.42-15.06l9.41-2.16.3.05.25-.16c.38,0,.75,0,1.13,0a3.53,3.53,0,0,0,2.05-.52l2.44-.25,1.06,0a9.14,9.14,0,0,0,3.35-.52l2.48-.07c2.91,0,5.82,0,8.73,0l1.88,0c4.29.58,8.63,1,12.9,1.78,12.27,2.16,23.6,6.86,34.48,12.77L347,242.85c2.8-12.85,10.15-22.91,18.25-32.38,5.86-6.83,12.28-13.22,18-20.17a40.7,40.7,0,0,0,8.19-16.92,2,2,0,0,0,.51-1.9c.05-.2.1-.41.14-.61a11.5,11.5,0,0,0,1.06-5c.05-.41.11-.83.15-1.24a24.81,24.81,0,0,0,1.08-8.73,68.58,68.58,0,0,0,.08-13.74,34.21,34.21,0,0,0-.18-5c-.16-1-.6-1.93.47-2.36a1.31,1.31,0,0,1,.51-.11c.83,0,.93,1.15,1.27,1.72,3.11,5.29,5.38,11,7.87,16.56-.1.19,0,.3.13.38a156.24,156.24,0,0,1,4.88,21.26,6.23,6.23,0,0,0,.16,3.12c0,2.28,0,4.55,0,6.84,0,10.47-2.31,20.55-4.9,30.61-.88,2-.94,4.31-1.76,6.18-4.28,9.66-8.31,19.42-13,28.9-6.11,12.24-8.37,25.4-7.64,39.06,0,.87-.28,2.07.73,2.52a1.28,1.28,0,0,0,.48.11c.77,0,1.27-.88,1.8-1.37a62.1,62.1,0,0,0,7.91-9.23C402.2,269,411.9,257,411.35,240.1c4.21,6.55,6,15,5.88,24.33a400.79,400.79,0,0,1-2.78,43.11c-2.25,9.91-4.49,19.82-8.16,29.34a200.07,200.07,0,0,1-11.61,24.38c-11.16,18.31-25.14,34.07-42.61,46.6-3.91,2.81-8,5.34-12,8a29.8,29.8,0,0,0-5.61,3.23l-.07.05L322,424.88,316.45,427c-.26.12-.52.24-.76.37-.42.12-.83.25-1.25.36a10.48,10.48,0,0,0-3.67,1.27l-2.42.77L302,431.48l-1.16.38-1.36.26h-.18a.27.27,0,0,0-.13,0,45.4,45.4,0,0,1-14.81,2.41c-10.22,0-20.18-3.08-30.13-6.28-9.21-3-17.84-7.23-26.39-11.69-6.6-4.06-12.92-8.54-19.25-13l-.06-.06a13.4,13.4,0,0,0-3.75-3.11,3.12,3.12,0,0,0-2-1.72l-.63-.6v0a15.07,15.07,0,0,0-3.63-3.36l-2-1.72a3.38,3.38,0,0,0-1.82-2,.36.36,0,0,0-.29-.4q-4.91-5.49-9.79-11l0-.18-.16,0a241,241,0,0,1-14.73-22q-3.14-6.18-6.28-12.39a48.83,48.83,0,0,0-3.73-9.4v0a35.75,35.75,0,0,0-2.5-7.39l-.18-.72a1.24,1.24,0,0,0-.43-1.28,6.08,6.08,0,0,0-.16-1.22c-6.48-21.6-7-43.81-6.76-66.07.07-6.58,2.29-12.73,5.54-19.18.19,4.44.28,8.2,1.36,11.81,4.65,15.62,14.88,27.64,25.4,39.47.35.39.79.94,1.36.94a1.08,1.08,0,0,0,.49-.14c.85-.49.61-1.48.64-2.28a80.67,80.67,0,0,0-8.59-41.33,219,219,0,0,1-12.79-30.11c-9.12-27.37-8.29-54,5.9-79.63a29.18,29.18,0,0,1,3.84-6.1m4-8.9-6.2,6.89a24.76,24.76,0,0,0-3.57,5.43c-.22.41-.43.82-.66,1.22a95.63,95.63,0,0,0-12.07,40.44c-.84,13.25,1.16,27.25,5.94,41.6a221.06,221.06,0,0,0,13,30.52A77.37,77.37,0,0,1,181.63,286c-9.83-11.23-18.14-22-22.12-35.33a41.51,41.51,0,0,1-1.19-10l0-1-.51-11.47L152.6,238.4c-4,7.91-5.79,14.23-5.86,20.5-.24,20.46.07,44.19,6.87,66.92a2.66,2.66,0,0,1,0,.28c0,.16,0,.31,0,.46l.14,1.2.31.26,0,.18.09.36.09.36.06.27.12.26a32.06,32.06,0,0,1,2.3,6.77l.09.38.17.35,0,0,0,0a46.14,46.14,0,0,1,3.5,8.84l.08.26.12.26q3.15,6.19,6.28,12.38l0,.1.06.1a243.46,243.46,0,0,0,14.62,21.84v.09l.41.46.48.63.1,0q4.44,5,8.89,10l0,.58,1.49.95c.19.12.42.26.56.37l.17.71.72.62,1.93,1.7.14.13.16.11a12.07,12.07,0,0,1,2.77,2.47l.11.22.4.39.21.2.42.4.42.4.55.21a1.64,1.64,0,0,1,.32.15l.34.87.93.52a10.41,10.41,0,0,1,2.91,2.41l.09.11.1.1.06.06.18.18.21.15,1.12.79c5.9,4.15,12,8.45,18.29,12.31l.09.06.09.05c7.84,4.08,17,8.71,26.86,11.88,11.33,3.65,20.81,6.43,31,6.43a47.74,47.74,0,0,0,15.33-2.43h.1l.29-.06.65-.12.72-.14.17,0,.17-.06.54-.17.53-.17,2.9-.79,3.35-.9.06,0,.06,0,1.21-.38,1.22-.39.27-.09.25-.13a7.2,7.2,0,0,1,2.6-.93l.22,0,.22-.06.67-.19.57-.17.31-.08.28-.15.53-.26,2.68-1,2.76-1.06.09,0,.09,0,12.38-5.75.21-.1.19-.13.07,0,.13-.09.12-.1a19,19,0,0,1,3.8-2.23l1.27-.64.15-.07.13-.09c1.27-.84,2.54-1.66,3.81-2.48,2.75-1.78,5.6-3.62,8.33-5.58a160.65,160.65,0,0,0,43.42-47.47l0-.06,0-.06A200.77,200.77,0,0,0,409.09,338c3.69-9.58,6-19.61,8.19-29.31l.1-.45,0-.14,0-.14a397.68,397.68,0,0,0,2.8-43.43c.19-10.41-2-19.16-6.36-26L408,229.35l.36,10.85c.49,14.91-7.55,25.75-16.05,37.24l-1.57,2.12a71.33,71.33,0,0,1-5.62,6.92,73.62,73.62,0,0,1,7.43-34.9c3.51-7,6.67-14.33,9.74-21.37,1.11-2.55,2.21-5.1,3.34-7.65a18.15,18.15,0,0,0,1.05-3.59,13.73,13.73,0,0,1,.71-2.6l.1-.22.06-.23c2.56-9.89,5-20.46,5-31.38,0-1.51,0-3,0-4.52,0-.76,0-1.52,0-2.28v-.45l-.13-.42a3.17,3.17,0,0,1-.11-1.62l.13-.57-.1-.58a159.93,159.93,0,0,0-4.71-20.81l.1-.18-.53-1.17-.25-.8-.13-.06-1.26-2.87a125.24,125.24,0,0,0-6.43-13.27,1.11,1.11,0,0,1-.07-.16c-.76-2.06-2-3.1-3.83-3.1h0a4.36,4.36,0,0,0-1.64.33c-1.47.59-3.08,2-2.37,5.3,0,.11.05.23.07.34a16.53,16.53,0,0,1,.14,3q0,.78,0,1.56v.22a64.86,64.86,0,0,1-.08,13.14l0,.2v.2a21.87,21.87,0,0,1-.92,7.7l-.1.3,0,.31c0,.19,0,.39-.07.58s-.05.44-.08.66l0,.17v.17a8.62,8.62,0,0,1-.77,3.76l-.13.29-.08.31-.07.31-.07.29-.12.51,0,.27-.2.17-.22.95a37.85,37.85,0,0,1-7.58,15.7c-3.11,3.75-6.49,7.43-9.77,11-2.73,3-5.55,6-8.22,9.15-7.2,8.41-14.25,17.76-17.79,29.42l-2.11-1.47-6.22-4.32-.14-.09-.14-.08c-12.76-6.93-24-11.08-35.39-13.08-3-.53-6.11-.92-9.08-1.29l-3.94-.51-.17,0h-.46l-1.59,0h-.07l-4.37,0H277l-2.42.07H274l-.49.2a6.28,6.28,0,0,1-2.25.31l-1,0h-.2l-.2,0-1.24.13-1.2.13-.74.07-.61.41h0a2.78,2.78,0,0,1-.4,0l-.67,0-.34,0-1,0-.31.21h-.06l-4.71,1.09-4.7,1.08-.11,0-.1,0a136.8,136.8,0,0,0-32.65,14.45c-7.18-16.52-19.29-29.26-31-41.6-9.28-9.77-14-22.18-14.94-39a135.89,135.89,0,0,1,.69-21.87l1-9.22Z"/><text class="cls-3" transform="matrix(-0.47, -0.88, 0.88, -0.47, -512.26, 401.91)">T</text><text class="cls-3" transform="matrix(-0.32, -0.95, 0.95, -0.32, -527.96, 373.46)">H</text><text class="cls-3" transform="matrix(-0.16, -0.99, 0.99, -0.16, -540.5, 336.47)">E</text><text class="cls-3" transform="translate(-545.57 301.91) rotate(-92.98)"> </text><text class="cls-3" transform="translate(-547.06 288.76) rotate(-86.21)">D</text><text class="cls-3" transform="translate(-543.71 249.92) rotate(-80.05)">I</text><text class="cls-3" transform="translate(-543.2 241.52) rotate(-73.63)">A</text><text class="cls-3" transform="translate(-531.79 202.68) rotate(-63.35)">B</text><text class="cls-3" transform="translate(-514.68 168.75) rotate(-53.86)">L</text><text class="cls-3" transform="translate(-494.96 141.75) rotate(-45.58)">O</text><text class="cls-3" transform="matrix(0.81, -0.58, 0.58, 0.81, -468.62, 115.26)">S</text><text class="cls-3" transform="translate(-440.05 95.57) rotate(-29.19)"> </text><text class="cls-3" transform="matrix(0.92, -0.38, 0.38, 0.92, -428.9, 88.47)">O</text><text class="cls-3" transform="matrix(0.97, -0.23, 0.23, 0.97, -394.42, 74.24)">F</text><text class="cls-3" transform="matrix(0.99, -0.12, 0.12, 0.99, -360.96, 66.94)"> </text><text class="cls-3" transform="translate(-347.84 64.78) rotate(-1)">T</text><text class="cls-3" transform="translate(-315.35 63.86) rotate(8.29)">H</text><text class="cls-3" transform="matrix(0.95, 0.31, -0.31, 0.95, -276.73, 69.58)">E</text><text class="cls-3" transform="matrix(0.91, 0.41, -0.41, 0.91, -243.67, 80.83)"> </text><text class="cls-3" transform="matrix(0.86, 0.51, -0.51, 0.86, -231.34, 85.67)">C</text><text class="cls-3" transform="matrix(0.77, 0.64, -0.64, 0.77, -201.32, 103.32)">E</text><text class="cls-3" transform="translate(-174.6 125.41) rotate(48.56)">L</text><text class="cls-3" transform="translate(-152.3 150.44) rotate(57.3)">L</text><text class="cls-3" transform="translate(-137.45 173.61) rotate(62.38)">-</text><text class="cls-3" transform="translate(-128.46 189.28) rotate(69.78)">B</text><text class="cls-3" transform="translate(-115.39 224.95) rotate(79.22)">L</text><text class="cls-3" transform="translate(-108.86 257.83) rotate(88.32)">O</text><text class="cls-3" transform="translate(-107.78 295.1) rotate(97.67)">C</text><text class="cls-3" transform="translate(-112.38 329.62) rotate(106.66)">K</text><text class="cls-3" transform="matrix(-0.39, 0.92, -0.92, -0.39, -122.75, 362.41)"> </text><text class="cls-3" transform="matrix(-0.5, 0.87, -0.87, -0.5, -127.13, 374.88)">D</text><path class="cls-4" d="M348.14,353.25l-.39,1.28c-10.06,5.23-19.34,11.1-19.68,24.25l-1.72.44c-2.49-6-5.38-7.42-12-3.81-7.13,3.91-6.28,10.27-8.11,16a1.18,1.18,0,0,0-1.14,0c-3.09-7-7.67-10-15.83-8.11a30.67,30.67,0,0,1-14.82-.69c-7.84-2.26-14.11-2.48-17.51,6.43-.05.12-.84,0-1.36-.06-.62-2.51-1.27-5-1.86-7.57-1.77-7.55-9.17-6.79-14.19-8.83-3.55-1.44-4.14,3.93-5.83,6.47-1.74.52-2.43-.72-3.18-1.88-.16-7.64-3.35-13.09-11-15.31l-23-18.42c9.76,18.78,20.27,36.64,36,50.73,3.38,3,6.27,5.37,8.6-1.74,2.34,3.69,4.14,6.44,5.85,9.26,3.8,6.29,10.7,5.51,16.46,6.83,5.27,1.2,2.63-5.71,6.08-7.25,3.66,3.11,4.26,9,11.24,9.37,7.67.4,7.19-7.35,11.89-9.41,4,8.36,3.91,7.9,14.57,4.83,7.5-2.17,8.32-9.81,13.71-14.57,1.75,8.73,5.52,4.77,9.15,2a104.79,104.79,0,0,0,22.88-24.3,133.09,133.09,0,0,0,17.58-35.06Z"/><path class="cls-4" d="M314.94,351.54c3.91,3.51,7.78,1.14,11.17-.61,20.42-10.54,31.46-28.62,39-49.41l.28-.15-.23,0-14.42,13.09c-.82.69-2.28,1-1.76,2.5a7.14,7.14,0,0,0-2.35.93c-12.21,11.11-25.86,18.29-43,15.89-3.35-.46-3,1.35-2.22,3.32C304,343.67,307.68,349.31,314.94,351.54Z"/><path class="cls-4" d="M242.47,351.72c4.5,1.86,8.71,2.2,12.49-1.51,6.41-3.49,9.87-8.93,11.09-16.15-15.76.59-22.92-.55-32.37-6.38-6-3.7-11.46-8.25-17.16-12.41-3.38-4.22-10.45-10.14-14.72-12.22a121.73,121.73,0,0,0,16.2,28.6C224.57,340.22,232.27,347.5,242.47,351.72Z"/></svg>