<svg enable-background="new 0 0 113.4 113.4" viewBox="0 0 113.4 113.4" xmlns="http://www.w3.org/2000/svg"><path d="m56.6 113.4c-31.3 0-56.6-25.4-56.6-56.8s25.4-56.8 57-56.6c31.4.2 56.4 25.3 56.4 56.9 0 31.2-25.5 56.5-56.8 56.5zm.1-111.9c-30.4 0-55.2 24.7-55.2 55 0 30.6 24.6 55.4 55 55.4 30.5 0 55.3-24.6 55.3-55.1.1-30.5-24.6-55.3-55.1-55.3z" fill="#f6e116"/><path d="m56.7 1.5c30.5 0 55.2 24.8 55.2 55.3s-24.8 55.1-55.3 55.1-55.1-24.8-55-55.4c0-30.3 24.7-55 55.1-55zm6 13.2c-1.4 2.7-2.7 5.4-4 8-.3.6-.5 1.2-.5 1.9v19.3 25.7c0 4.7 1.8 8.6 5.6 11.4.5.4 1.1.8 1.8.7 1.4-.1 2.8-.1 4.3-.1 6.3-.2 12.5-1.6 18.7-2.5 3-.4 5.8-1.4 7.9-3.7 4.2-4.6 5.7-10.3 6.8-16.4-1.9.6-3.6 1.2-5.3 1.8-7.7 2.5-15.4 4.8-23.5 5.5-2.4.2-4.8.2-7.2-.6-2.1-.7-2.9-1.9-3-4.1 0-1.3-.1-2.7-.1-4 .2-10.4 1.6-20.7 2.2-31 .2-3.3.4-6.6.1-9.8-1.1-.8-2.3-1.5-3.8-2.1zm-16.3 2.2c0 .8-.1 1.6-.1 2.3 0 7.6.9 15.1 1.5 22.6.5 6.5 1.2 13.1.9 19.6-.1 2.6-1.1 3.8-3.6 4.5-2.2.6-4.4.6-6.6.4-6.4-.6-12.6-2.2-18.7-4-3.3-1-6.6-2.1-10-3.2 1.1 6 2.6 11.7 6.9 16.3 1.9 2.1 4.2 3.2 7 3.6 1.4.2 2.7.4 4.1.7 6.1 1 12.3 2 18.5 2.1 1.7 0 3-.5 4.2-1.6 3.3-3 4.6-6.8 4.6-11.1 0-13.9 0-27.7 0-41.6 0-2.7-.4-5.1-1.8-7.4-1-1.7-1.8-3.6-2.8-5.4-1.5.6-2.8 1.3-4.1 2.2zm16.3 70.1c-2-4.1-4-8.1-6.2-12.3-2.1 4.2-4.1 8.2-6.1 12.3 2 4 4 8.1 6.2 12.3 2.1-4.2 4.1-8.2 6.1-12.3z" fill="#413273"/><path d="m62.7 14.7c1.5.6 2.7 1.4 4 2.2.3 3.3.1 6.6-.1 9.8-.6 10.3-2 20.6-2.2 31 0 1.3 0 2.7.1 4 .1 2.2.9 3.4 3 4.1 2.3.8 4.8.8 7.2.6 8.1-.7 15.8-3 23.5-5.5 1.7-.5 3.4-1.1 5.3-1.8-1.1 6.1-2.6 11.8-6.8 16.4-2.1 2.3-4.8 3.3-7.9 3.7-6.2.9-12.4 2.3-18.7 2.5-1.4.1-2.8.1-4.3.1-.7 0-1.3-.3-1.8-.7-3.9-2.8-5.6-6.8-5.6-11.4-.1-8.6 0-17.1 0-25.7 0-6.4 0-12.9 0-19.3 0-.7.1-1.3.5-1.9 1.1-2.7 2.4-5.4 3.8-8.1z" fill="#fae400"/><path d="m46.4 16.9c1.3-.8 2.6-1.6 4.1-2.2.9 1.8 1.7 3.7 2.8 5.4 1.4 2.3 1.8 4.7 1.8 7.4-.1 13.9 0 27.7 0 41.6 0 4.3-1.3 8.1-4.6 11.1-1.2 1.1-2.4 1.6-4.2 1.6-6.2-.1-12.4-1.1-18.5-2.1-1.4-.2-2.7-.5-4.1-.7-2.8-.4-5.1-1.5-7-3.6-4.3-4.5-5.8-10.3-6.9-16.3 3.5 1.1 6.7 2.2 10 3.2 6.1 1.8 12.3 3.4 18.7 4 2.2.2 4.4.2 6.6-.4 2.6-.7 3.5-1.9 3.6-4.5.3-6.6-.4-13.1-.9-19.6-.6-7.5-1.5-15-1.5-22.6 0-.8.1-1.5.1-2.3z" fill="#fae400"/><path d="m62.7 87c-2 4-4 8-6.1 12.3-2.1-4.2-4.1-8.2-6.2-12.3 2-4 4-8 6.1-12.3 2.2 4.3 4.2 8.3 6.2 12.3z" fill="#f9e300"/></svg>