<svg enable-background="new 0 0 113.4 113.4" viewBox="0 0 113.4 113.4" xmlns="http://www.w3.org/2000/svg"><path d="m56.7 0c31.3 0 56.7 25.4 56.7 56.7s-25.4 56.7-56.7 56.7-56.7-25.4-56.7-56.7 25.4-56.7 56.7-56.7z" fill="#ac2f26"/><path d="m56.7 11.9c24.7 0 44.8 20.1 44.8 44.8s-20.1 44.8-44.8 44.8-44.8-20.2-44.8-44.8 20.1-44.8 44.8-44.8z" fill="#395938"/><path d="m28 11.2v.2h-.1.2l.1.1h-.1.1l-.1-.2h-.1l.1-.1h.1v-.2h-.1l-.1.2.4-.2s.1.1.1.2h.1.1l.1.2h-.1v.1l.1.1 2.3 3.8c.2.3.5.5.8.4l.2-.1.2-.2h.1l.6 1-.2.1.2-.1h.1l.2.4s-.1.1-.2.1h-.1v.1c-.2.1-.4.2-.7.3-1.1.2-1.9-.2-2.6-1.2l-2.2-3.8.1-.1h.2c0-.1 0-.1 0-.2-.1-.1-.1-.1 0-.2l.1-.1h.1v-.1l-.2.4c-.1 0-.2 0-.3 0v .1h.1l.1.1-.1.1h-.1l-.1-.1s.1-.1 0-.1-.1 0-.2 0l-.1-.4v-.2l.4-.2c0 .1 0 .1-.1.2l.1-.2h.1v-.1zm-.6.8h-.2v.1zm.1.5-.1-.2zm.3.3v-.1zm.3-1.1-.4-.1.1.1c.1 0 .2.1.2.1.1.1.1 0 .1-.1zm.1.6c-.2.1-.2.2-.2.3 0-.2.1-.3.2-.3zm0 1.1-.1-.2h-.1v.1zm.2-1.4-.1-.1zm.3-.7c-.1 0-.1 0-.2 0v .1l.1.1c0-.1 0-.2.1-.2zm-.2-.5c0 .1-.1.1-.1.1zm.1 1.2-.1-.1zm.4-.3h-.2-.1zm-.1.3-.1-.1zm1.6 3.9c0 .1.1.2 0 0 .1.1.1 0 0 0l-.1-.1zm.1-6.3c0 .1 0 .1-.1.1zm.1 6.7c-.1 0 0 .1 0 0zm .8-7.2h.3c-.1 0-.2 0-.3 0l .4-.3h.1l.2.3c0 .1 0 .2-.1.2h.1l.1.1v.1l-.1.1-.1-.1v-.1h-.1c0 .1 0 .2-.1.2l-.1.2h.1v-.1l.1-.1s.1 0 .1.1h.2l.1-.1.1-.1 2.2 3.8c.6 1.1.5 2.1-.2 2.9-.2.2-.4.3-.6.5l-.1-.1v.1c-.1.1-.2.1-.2.1l-.2-.4v-.1l.2-.1-.1.1-.6-1h .1l.3-.1.2-.1c.2-.3.2-.6 0-.9l-2.3-3.8v-.2l-.4-.1h-.1l-.1-.2v-.1h.1c0-.1-.1-.1-.1-.2l.4-.2h-.1v.1l.1.1h.1.1v.1l.1.1v-.1h-.1v-.1c.1-.1.1-.1.1-.2l-.1.1c0-.1-.1-.1-.1-.1v-.1zm-.5.9v-.2h-.1c0 .1 0 .1-.1.2zm.2.3-.1.2c0-.1.1-.2.1-.2zm0 6v-.2zm.1-5.7-.1-.1zm.1 5.6.2.2h.1c0-.1 0-.2.1-.3zm.3.4c-.1 0-.1 0 0 0zm0-5.7c.1.1.1.1.1.1 0-.1 0-.2 0-.3v-.1zm.2-.5v-.1h-.1zm-.1 5.7c.2-.1.1-.1 0 0zm .1.7c.1.1.2.1.4 0-.2 0-.4 0-.4 0zm .4-6.8c0-.1-.1-.1-.3 0v .1c0-.1.1-.1.3-.1zm-.1-.8h-.2zm-.1 7 .2-.1-.1-.1-.2.1zm.5.4-.1-.3-.2.2h-.1c.1.1.2.1.4.1zm-.3.8v-.1h-.1zm.1-7.8-.1-.2zm.2.4v-.1h-.1zm.3.7v-.2l-.1-.1h-.1zm.3 2.3-.3.1.2.2c.2 0 .2-.2.1-.3zm0 .5-.1.1zm.1.7v.1zm.2 1.3-.2.1.1.1.2-.1zm.1-2.6c0 .1-.1.2-.2.3.2-.1.3-.2.2-.3zm0 2.4c-.1.1-.1.1-.1.1zm.3-.8-.3.3c.1-.1.2-.1.3 0l .1-.1zm-.2-1-.1.2c.1 0 .1.1.2.2v-.1l-.1-.1zm.3-.1v.1zm0 .5v.1c.1 0 .1-.1 0-.1zm.1.4v.1.1-.1zm.1.6-.1.1v.1c.1-.2.1-.2.1-.2zm-.1-.9c0-.1 0 0 0 0zm .3 1.6v.1h.1zm.1-1.2-.1.1z" fill="#fff"/><path d="m36.2 7 .5 1.2s-.2.2-.5.3c0-.1 0-.1.1-.2h.1l-.3.1-.2.1.1.1c-.2.3-.2.5-.2.6v.1l.1.1c.1.3.6.4 1.5.2v.1l.1-.1c.9-.2 1.6-.2 2-.2l.6.2h-.1c-.1 0-.1 0-.1-.1h-.1l.2.1.1.1h-.1v.1l.1-.1v.2l.2-.1c0 .1.1.1.1 0 0 0 .1.1.2.1s.2.1.2.2l-.1.1-.2.1s0 .1-.1.1l-.2.1v.1h.2s0-.1.1-.1v-.1c.1.1.1.1.1.1 0-.1 0-.2.1-.2l.1.2s0 .1-.1.1v.1c-.1 0-.1.1 0 .2l.1.2.1.1.2-.2h.1v.1l.1-.1-.1-.1h.1c.1.3.2.5.2.7.1.2.1.3 0 .4h-.1.1c0 .1 0 .2-.1.4v.3-.2l-.6-.3h-.1l-.1.1-.1-.2s0-.1.1-.1-.1 0-.2 0h .1l.1.2h-.1l.1.1v.1l-.1.1h-.1c0-.1 0-.2.1-.2h-.2l-.1.1v.1c-.1 0-.2.1-.2 0h-.1c0-.1 0-.1.2-.2-.1 0-.1 0-.2-.1 0-.1 0-.3-.1-.5h.1c0-.1 0-.2 0-.2h-.1-.1v.1l-.3-.2h.2c0-.1 0-.1.1-.1h.1v-.1-.1c-.1 0-.2 0-.2 0h-.1l-.1.1-.4.1h-.1l-.1.1c-.1 0-.2 0-.2 0s .1-.1.1-.2c-.1 0-.2 0-.4 0h-.2l-.4-.2c0 .1 0 .2-.1.2 0 .1 0 .1-.1.2v.1h-.1c-1.6.4-2.6 0-3.1-1.1v-.1c-.5-1.1 0-2.1 1.4-2.9zm-1.2 1.1.1-.1zm.1.5h.2.1zm.2 2.2.1-.1zm1.6 1.5v.1c.1 0 .1 0 .2.2.1.1.3.2.4.3.4.1.6.1.8 0v .1h.1v-.1l.1-.1h.2l.1.2s0 .1-.1.1c.1 0 .1 0 .1.1v.2h.1v.1.1h.2l.1.1s0 .1-.1.1l.1.1v.1h-.1s-.1-.1-.3-.1l-.1.1h.1l.1.1-.2.1c-.1-.1-.2-.1-.3-.1s.1 0 .1.1l-.1.1c-.3.1-.7.1-1.1.1 0-.1 0-.2.1-.2v-.1c-.1 0-.1.1-.2.2h-.1c-.5-.1-.9-.4-1.2-.8l-.2-.3v-.1c-.1-.1-.1-.2-.2-.3v-.1h.1.2l.1-.1.3-.1v.1c0-.1 0-.1 0-.1l.4-.2zm-1.4.8.1.2s0-.1.1-.1zm.2-2.5.1.2zm.1-.6h.3zm.7-3.2c.7-.3 1.4-.3 2.1-.2.4.2.6.3.6.4.1 0 .3.2.7.8v.1l-.8.4-.7.4c-.2-.4-.4-.6-.7-.6-.2-.1-.5 0-.9 0v-.1-.2l-.1-.2zm.1 6.8.1.1h.1zm.2-.9c.1 0 .1 0 .2.1h.1-.1v-.1zm.1.5.1.1h.1zm.4.1v.1zm.2-2.5h-.2l.2.1v-.1l.1-.1-.1-.1zm0-1 .1.1v.2l-.1.1.1.1v.1c0-.3.1-.4-.1-.6zm0 .7v.1zm0 3.3h.2l-.1-.1zm.1.5c.1 0 .2 0 .2.1h.1v-.1zm0-.9h.2zm.2-2.3.2-.1h.1l.1.1c-.3.1-.5.1-.5 0zm0-4.4.1-.1zm.1 7.4v.1-.1l.2.1zm0-3.2h.2v.1zm.1 2.8.2.1v-.1c-.1 0-.1 0-.2 0zm .3-.2.2-.1zm.1.5v.1zm.1-3.8v.1zm.2-3.2-.1.1h.1v-.1h.2l.1-.1v-.1h-.1zm-.1 7.3.1.1zm.1-.5.1.1zm.8-1.5h.3c.2-.1.3 0 .3.1h.1l.1.1c.1 0 .2.1.2.1 0-.1 0-.1.1-.2v.2.1c0 .1 0 .1-.1.2h.2l-.1-.2h.1c0-.1 0-.1.1-.2.1.1.1.1.2.1-.2.4-.4.6-.6.7l-.2.2v-.1l-.1.1.1.1c0 .1-.3.2-.8.5l-.1-.3h.1.1v-.1-.1c0-.1-.1-.2-.2-.3v-.1l-.2-.1-.1-.3s0-.1.1-.1h.1c0-.1 0-.1.2-.2l.1.1-.2.1.1.1v-.1l.2-.1h.1.1l.1.1v-.1l-.1-.1s-.1 0-.1-.1zm-.4.8.1.1h-.1zm.1.2.2.2-.1.1h-.1zm.4-3.7.1.1-.1.1h-.1v.1l.1.1v.1.1h-.1-.1v.1l-.2.1h.1v-.1h.1c0-.1 0-.1.1-.2v.1h-.1v.1l.1.1v-.1l-.1-.2v-.1h.1l.3-.1-.2.1v-.1h.1c0-.1 0-.1 0-.1 0-.2 0-.2-.1-.2zm-.1-2.2.1.1h.1zm.1 6.5h.2l-.1-.1zm0-.2v.1-.1c.2-.1.1-.1 0 0zm .2-.5c0 .1.1.1.1.1zm.1-2.8c0 .1 0 .1-.1.2v.1l.2-.3zm-.1 1.3c0 .1.1.1.2 0 0 .1.1.1.1.1h.1v-.1zm.5-.9c-.1.1-.2.2-.4.3l.2-.1c0 .1.1.1.1.1l-.1-.1v-.1l.2-.1.1-.1v-.1zm-.3-.7.1-.1zm.1-.2h.2zm.1 3v .1l.2-.1s-.1 0-.2 0zm .1-1.1.1.1zm0-2.1c.1 0 .2 0 .2.1h-.1-.1zm.1.6h.2c-.1 0-.2 0-.2 0zm0 1v-.1zm0 .3c0 .1.1.1.2.1v-.1c-.1 0-.2 0-.2 0zm .1 1.2v.1zm.1.4.1-.1v-.1h-.1zm.2-1.9.1.1zm0 .8.1-.1c.1 0 .1-.1.1-.2 0-.1-.1-.1-.1 0s0 .1-.1.3zm0 .2.1.1-.1.1z" fill="#fff"/><path d="m44.8 4.2 4.5 6.9-2 .5c-.6-1-.9-1.5-.9-1.5l-2.1.5.1-1.5 1.3-.3c-.6-1-1.1-1.9-1.5-2.6.1.2 0 1.6-.1 4.1 0 .8-.1 1.2-.1 1.3h-.1v.1l.1.1v.6h-.1l-.1.1h-.1-.1l-.1.1-.3.1h-.2-.1l-.5.1-.1-.3v-.2-.1h-.1v-.4-.1h.1.1v-.1h-.1-.1v-.2-.7h.1-.1v-.5h.1v.2-.1l-.1-.2c0-.1 0-.1.1-.1v-.1h-.1c-.1 0-.1.1-.1.3h-.1v-.5h.1v.1h.1v-.1l-.1-.1v-.2.2l.2-1.9v.1h.1l-.1-.1c0-.1 0-.2.1-.2l.3-2.5zm-2.4 7.2c0 .1 0 .1 0 0v .1-.1l.1-.1zm-.1-1h .2v-.1zm.1 2c .1 0 .1 0 0 0zm .2-.9c-.1 0-.1.1-.1.1zm0-2.9c0 .1 0 .2-.1.2-.1 0-.1.1-.1.1h.1c.1-.1.2-.2.1-.3zm0 2.3v.1h.1s0-.1.1-.1v-.1zm.1-.4.1-.1zm.2-3.3.1.1zm0 5 .2.1s0-.1.1-.1h-.1zm.1-1.5h.2-.1zm0-.3.1.1zm.1-.7c.1.1.1.1.2.1v.2h.1v-.1c-.1-.2-.1-.2-.3-.2zm.1 2.1v.2l.1.2-.2.1.1.1h.1s0-.1.1-.1h.1v.1s.1 0 .1.1h.1l-.1-.2c.1 0 .1 0 .1-.1l-.1-.2h.1v-.1h-.1v.1l.1.2-.3-.1v-.1zm0-1.6v.1zm.1 1.3.1.1zm.5-.1c0 .1.1.2.1.2v-.1c0-.1-.1-.1-.1-.1z" fill="#fff"/><path d="m50.1 3.3h.3.1l.3 3.1v.1.1l.1.9.3 3.3v.1h-.2v-.1h-.1v.1l-.9.1v-.1h-.1v.1h-.4-.1l-.8-7.6v-.1zm.1 4.2c0 .1 0 .1-.2.2h.1zm0 3c .1 0 .2 0 .2-.1zm.1-.6.1.1zm0-2.1.1-.1zm.3-1.4c0 .1 0 .1-.1.1.1 0 .2-.1.1-.1zm0 4.4v.1zm.1-1.7c0 .1 0 .1-.2.1v.1zm-.1-1.6.1-.1zm.2-4.3 1.5-.2c1.1-.1 1.7 0 1.7.3h.1c.6.3.9.8.9 1.6.1.8-.2 1.4-.8 1.8h-.1c0 .1-.1.2-.3.2.3 0 .6.2 1 .8h-.1v.1h.2c.1 0 .1.2.2.6h-.1-.1l-.1.1c.1 0 .1 0 .1.1v.1h.2v-.1h.1l.2.8c-.1 0-.2.1-.2.1h.1c.1 0 .1.1.2.4l-.1.1v.1l.1-.1s.1.1.3.3v.2h-.4v-.2-.1c-.1 0-.1.1-.1.3h-.5-.1.1.1v-.1-.1l.1-.1h.1.1v-.1c-.3.1-.4.2-.4.2v.2h-.2v.1h-.4c-.1 0-.2-.2-.4-.6v-.1c-.1 0-.2-.5-.5-1.4-.1-.2-.3-.4-.5-.5s-.5-.1-.9 0v-.1h.1v-.1h-.1s0 .1-.1.1v.1l-.5.1h-.1l-.1-.1-.1-.5s0-.1.1-.1v-.1h-.1l.1-.5v-.1l.7-.1c1.1-.1 1.6-.5 1.5-1.1v-.2c-.1-.5-.4-.8-.9-.7 0 0-.2 0-.7 0l-.9.1h-.1zm0 5.8v.1h.1zm.7-2.2.1.1v.1h.1l.1-.1zm0 .6.2.1h.2v-.1h-.2s-.1 0-.1-.1zm.3-.7v.1h.1zm.2.8h.2zm.8-1v .1-.1c-.1.1-.2.2-.4.3h-.1v.2h.1c.1-.1.2-.1.1-.2l.1-.1h.1c.1 0 .1 0 .1.1h.1l.1-.1s-.1 0-.2-.2zm.3 1.2.1.4h.1v-.1zm.1-1.5.1.1h.1v-.1zm.1.8v.1l.3.1v-.1s-.1 0-.1-.1zm.3 1.2v.1zm0-1.7v.2h.1zm0 2.8c0 .1.1.2.1.2v-.1zm.1-3.5v.2zm0 2.9.1.2h.1v-.1c-.1 0-.1 0-.2-.1zm.2 1.1c.1 0 .2.1.2.1l.3.1v-.1c-.1 0-.2 0-.3-.2zm0-.4.1-.1zm.2-1.2.1-.1v-.1zm.3.8c.2 0 .2 0 .2-.1-.1 0-.2 0-.2.1zm-.2.3v.1-.1l.1-.1zm.1-.5.1.1zm0 1.7h.2v-.1h-.1zm.3-.5v.1.1h.1zm0-1.3.2-.1v-.1c-.2.1-.2.1-.2.2zm0-.7.1.2.2.1v-.2h-.1zm0 1.5s.1.1.2.1h.1s-.1 0-.3-.1zm.1-.3.1-.1zm0-1v .2c.1 0 .1-.1 0-.2zm.6 1.7.1-.1z" fill="#fff"/><path d="m56.2 2.9h1.7l.1.1v.6h-.2-.1s0-.1-.1-.2v-.1l.2.3-.2.2.3-.1v3.5h-.1l-.1-.1c0 .1 0 .1-.1.1 0 .1 0 .2-.1.2h-.1l-.1-.1-.1.1h.2v.1c.1 0 .2 0 .2.1l.1-.1c-.1 0-.1 0-.1-.1v-.2h.2l.1.1v.1c-.1 0-.1 0-.1.1.1 0 .1 0 .2.1v.3l-.2.2h.1v-.1h.1v1.2c0 .1-.1.1-.1.1l.1.1h.1v.8h-.1c0-.1 0-.1-.1-.1l-.2-.1s.1.1.2.1v.1l-.1.1h-.1l-.2-.1.1.2v.1c.1 0 .2 0 .2-.1h.1v.2l-.1.1h-.2l-.1-.1-.1.1h-.2s-.1 0-.1-.1h-.2c0 .1 0 .1-.1.1h-.1l-.2-.1v.1h-.3v-.1h-.2.1v.1h-.1l-.1-.1.1-.1v-.1h-.1v-.2l.1-.2c0-.1 0-.1-.1-.1v-.2l.1-.1h.1l.1.1h.1l-.1-.1-.1-.2h-.1v.1h-.1v-1.1l.1-.1.2.1h.1.2s0-.1-.1-.1v-.1h-.2l-.1-.1v-.1c-.1 0-.1-.1-.1-.3h-.1l-.1-.1v-.2h.1v-.1l-.1-.1zm-.1 5.1c.1 0 .1.1.1.2-.1 0-.1.1-.1.1h-.1zm0 0c .1 0 .1.1.1.2-.1 0-.1.1-.1.1h-.1zm0-.8.1.1h.1c.1-.1 0-.1-.2-.1zm.2 1.4c0 .1 0 .1-.1.1h-.1v.1c.1 0 .1 0 .1.1 0-.1 0-.1.1-.1h.1c.1-.1 0-.1-.1-.2zm-.1-1c .1 0 .1.1.2.1l.1-.1-.1-.1c-.1.1-.1.1-.2.1zm0-3.7.1.1zm.1 3v .1h.1zm.1 3.5.1.1zm0-1 .1-.1zm.3-1.8v.2l.1.1v.1h-.1-.1l-.1.1.1.1h.1v.1-.2s.1 0 .1-.1h.1s-.1-.1-.2-.1v-.1-.2l.1.1c0-.1-.1-.1-.1-.1zm-.1 1.3.1-.1zm0-1.8.1.1zm.1 2.2c-.1.1-.1.1-.1.1h.1zm0 1 .1.1zm0-1.7c.1 0 .1.1.1.1h.1c0-.1 0-.2.1-.2-.2.1-.3.1-.3.1zm0 1.4c.1 0 .1 0 0 0l .1-.1zm.1-2.8v.1h.1zm0 1.2.1-.1zm.1-.8.3.2v-.1c-.1-.1-.1-.1-.1-.3-.1.1-.1.1-.2.2zm.1-3.9.3.2v-.1-.1l.1-.1h-.2zm0 6.2.1.1v.1c0 .1 0 .1-.1.1h.1v-.1c0-.2 0-.2-.1-.2zm.1-1.5c0 .1.1.1.2.2v-.1c-.1 0-.1 0-.2-.1zm0-1.3c.2 0 .3 0 .3-.1-.1 0-.2.1-.3.1zm.2 1s .1 0 .2-.1v-.1zm0 .9s.1-.1.3-.1v-.1c-.2.1-.3.2-.3.2zm.1-5.1.1.1zm0 4.4c.1 0 .1 0 0 0zm .2-.6.2.1v-.1zm0-1.6v.3h.1v-.1zm.1 2.9v.1h.1zm0-2.2-.1.1h.1zm.1.4v.3h-.1v-.1zm0 0v .3h-.1v-.1z" fill="#fff"/><path d="m63.5 3.3 1.8 8-2-.2c-.2-1.1-.3-1.7-.3-1.7l-2.2-.2.6-1.4 1.3.2c-.2-1.2-.4-2.2-.5-2.9 0 .2-.5 1.5-1.5 3.8-.3.7-.5 1.1-.6 1.2h-.1v.1.1l-.2.6h-.1-.1-.1-.1-.1-.4-.2-.1-.3v-.4-.2-.1h-.1v-.4h.1.1.1v-.1h-.1-.1l.1-.2.3-.7.1.1-.1-.1.2-.5s0 .1.1.1v.2l.1-.1v-.2c0-.1.1-.1.2-.1v-.1h-.1c-.1 0-.1.1-.2.3h-.1l.2-.5h.1v.1h.1v-.1-.1l.1-.2c0 .1 0 .2-.1.2l.8-1.7v.1h.1v-.1c0-.1.1-.2.1-.2l1.1-2.3zm-5.1 6.9c.1.1.1 0 0 0zm .4-.9c-.1 0-.1 0 0 0v .1h.1zm.1.1c-.1 0-.1 0-.1.1zm.1.7.1.1s0-.1.1 0zm .1-1.8.1.1zm.1.6v.1h.1s0-.1.1 0v-.1zm.2 1-.1.2v.2l-.2.1v.1h.1s0-.1.1-.1h.1v.1c.1 0 .1.1.1.2h.1v-.2c.1 0 .1 0 .1-.1v-.2h.1v-.1h-.1-.1v.3l-.2-.2v-.1zm0-1.4.1.1zm.2 1.2v.1h.1zm0-.9.2.1h-.1zm.1-.3v.1zm.3-1.8c0 .1-.1.2-.1.1-.1 0-.1 0-.1.1h.1c0-.1.1-.2.1-.2zm0 1.7v.1zm.1 1.3v.2h.1c0-.1-.1-.2-.1-.2zm-.1-1.9c0 .1.1.1.1.1v.2h.1l.1-.1c-.1 0-.1-.1-.3-.2zm.7-2.4.1.1z" fill="#fff"/><path d="m67.6 3.9.7.2.7.2-.1.1h.1.1v.2h.1l-1 3.6.1.1-.1.2h-.1-.1c0 .1-.1.2-.2.3h-.1v.1c.1 0 .1.1 0 .2h.1s.1-.1.2-.2h.1l-.8 3h-.1-.1l-.1-.1c0 .1 0 .1-.1.1l-.1-.1s0 0 0-.1h-.2c0 .1-.1 0-.3 0h-.1l-.1-.1h-.1l-.4-.1-.1-.1v-.1c.2-.3.3-.4.4-.4v-.1.1l-.1-.1v.1l-.1.1h-.1l.7-2.7h.3l.1-.1v-.1-.2l.1-.1v-.1s-.1.1-.2.1l-.1.3h-.1v-.1l.4-1.5h.1v-.1-.1h-.1l.5-2h .1.1l.1.1v-.1-.1h-.2zm-1.7 7.4c.1.1.2.1.2 0zm .1-.6h.1zm.3.4c.1.1.2.1.1.2.1 0 .2-.1.2-.1v-.1l-.2-.1zm.2-1.6-.1.2.1.1h.2c-.1-.1-.1-.2-.2-.3zm.1 0h .2zm.1-.7v.2l.1.1v-.1zm.1 1.5v.1h.1c-.1 0-.1 0-.1-.1zm.3.5c0 .1-.1.2-.1.1l-.1-.1c0 .1 0 .1-.1.1l.1.1c.1 0 .2 0 .2-.1 0-.1.1-.1.1-.1 0 .1 0 .1-.1 0zm-.3-1.5.1.1v-.1zm.2 2.1v.2zm.3-1.4-.2-.1s.1.1.2.2h.1v-.1zm0-.5-.1.1v.1s.1-.1.1-.2zm.3-4v .2.1h-.1-.1c0-.1 0-.1-.1-.1h-.1v.1c.1 0 .2.2.3.4h.1c-.1 0-.1-.1-.2-.2 0-.1.1-.1.2-.1v-.2c.1 0 0-.1 0-.2zm-.3 5.2v.1zm0-2.5-.1.2v.1h.2-.1v-.1zm0-3.1v.1h.1zm.1 4.3v.2zm0-3.1v.2h.1zm.1 1.7.1.1.1-.1zm0-3v .1l.1.1v-.2zm0 3.6.1.2h-.1l.1-.1zm2.1-4.2 1.2.3c1 .3 1.7.7 2 1.4.2.6.2 1.1.1 1.7l-.7 2.7c-.2.6-.5 1.1-.9 1.4h-.1v.1l-.2.1v-.1h-.1v.1.1c-.5.3-1.3.3-2.6-.1l-.6-.2v-.1l.2-.7.1-.1v-.1l.1-.5h.1l1 .3c.1 0 .2.1.2.1h.1v-.1c.6 0 .9-.3 1.1-.8l.7-2.7c0-.6-.2-1-.7-1.1 0 0 0-.1-.1-.1h-.3-.2l-.1-.1h-.1l-.1.1-.5-.2v-.1zm-2 0 .2.1v-.1l-.2-.1zm.2 3.7v.1s0 0-.1 0h .1zm0-2.8v.1h.1.1l-.1-.1zm.1.6v.1h.1zm-.1 5 .2.1c0 .1 0 .2.2.3-.1 0-.1-.1-.1-.2h.1l-.1-.3h-.1c-.1 0-.1 0-.2.1zm0-6.7h.1v-.1zm.5 6.7.2.1s0 0 0-.1h-.1c0-.1 0 0-.1 0zm .2.6.1.1zm.4-.3v.2h.1v-.1zm1.8-6.7-.1.1zm.5 5.8.1.1v.1-.1zm.2-3.6v.2h.1l.1-.1zm1.3-1c .1.1.1.1.1.1v.1h-.1s0 0 0-.2v.1h-.1z" fill="#fff"/><path d="m74.7 9.4c.1.2.1.3.1.3v.2l-.1.2h-.1v.1h.1l-1.3 3.6-1.4-.6-.1-.1h-.1l1.7-3.8c.1-.1.2-.1.3-.1s.1 0 .2 0c .1.1.2.2.2.3h.1c.1 0 .1.1 0 .2h.1v-.1c0-.1 0-.2 0-.2l-.1-.1-.1-.1h.1l.3.1h.1.2zm-1.5 1v .1zm1.2-1.9c.1.1.1.1.1.2l-.2.1s.1 0 .1-.1l.2.1h.1v.1l-.1.1h.2.1c.1.1.1.2 0 .3-.2-.1-.3-.1-.4-.1l-.3-.1h-.1-.1l-.1-.1h-.1-.2-.1v-.1l.1-.2.1-.1v.1l.2.1h.2v-.1l.2.1zm-.8 1v .2h.2v-.1c-.1 0-.1 0-.1-.1zm1-3 .3 1.9s-.1 0-.1.1c-.1 0-.2 0-.2.1l-.2-.1s-.1 0-.3 0h-.1v-.2zm-.3 3.4c0 .1-.1.1-.3 0l-.1.1h.2c.1 0 .1 0 .2-.1zm-.4.4h.2c-.1 0-.2 0-.2 0zm .3-.2.1.1zm.4-.6-.1.1v.1c.1.1.1 0 .1-.2zm0 .7v.1zm.3-1.5.1.2h-.1l-.1-.1v-.1zm0-2.7 1.5.7c.1.5.2 1 .2 1.6h-.1c.1.2.2.5.2.8l-.1.1c.1 0 .1.1.1.1.1.1.2.2.1.4h-.1l-.3-.1-.2-.1-.1-.1-.3-.1h-.2v-.1h-.1l-.1.1v-.4s0 .1.1.1h.1v.1h.1v-.1c-.1 0-.1-.1-.2-.2l-.1-.1h-.1v.1h-.1s-.1-.1 0-.2c-.1 0-.1-.3-.1-.7-.2-1.2-.3-1.8-.2-1.9zm.1 3.5c.1.1.1.1.1.2-.2-.1-.2-.1-.1-.2zm1.8.3c.1.2.1.3.1.4 0 0-.1 0-.1.1l.1.1v-.1h.1l.7 5.2v.1l-.5-.2-.1-.1h-.1l-.8-.3c-.1-.1-.2-1.3-.5-3.6-.1-.8-.2-1.3-.2-1.4h.1-.1c0-.2 0-.4 0-.4l.2.1v.1l.1.1v-.1l.1-.1.1.1.1.1h.2l.1.1c0-.2.1-.2.4-.2zm-.7-1.1-.1.2c-.1 0-.1 0-.1 0l .2.1v.2-.1l.1.1h.2s.1-.1.1 0l-.3-.1c-.1-.2-.1-.3-.1-.4zm-.1 6 .2.1zm.2-6.3v.2h.1zm.1.7-.1.1zm-.1 1.3.1.1zm.3.3h.1zm.1.1.2-.1c-.1 0-.1 0-.2.1zm2.6-2.9.3.1.1.1.2.1.8.4v.1l-.1.2-.1-.1v.1c.1 0 .1.1.1.1l-.8 1.8h-.1c.1 0 .1.1.1.1l-1.9 4.2h-.1l-.2-1.7v-.1c-.2-.9-.2-1.5-.1-1.6l.3-.8.3-.7.1-.1v-.1l.1-.2h.2l.1-.1.1-.1c-.1 0-.2-.1-.2-.3l.4-1 .3-.7zm-1.1 2.7.1.1zm.2-1c .1.1.1.1.1.2v.1h-.1-.1v-.1zm.8-.8v.1zm.3 0 .1.1zm.1 1.5.1.1zm.3-.7c0 .1 0 .1.1.1h.1zm0-.7h.2z" fill="#fff"/><path d="m85.7 11.5-1.8 8-1.7-1.1c.3-1.1.5-1.7.4-1.7l-1.8-1.1 1.1-1 1.1.7c.3-1.2.6-2.1.9-2.8-.1.2-1.1 1.1-3.1 2.8-.6.5-.9.8-1 .8v.1l-.4.4-.1-.1-.1-.1-.1-.1-.1-.1h-.1l-.3-.2-.1-.1h-.1l-.5-.1.2-.3.1-.1v-.1h-.1l.2-.3h.1l.1.1v-.1h-.1l.2-.2.1-.2.6-.5v.1-.1l.4-.3v.1l-.1.1h.1l.1-.2h.2v-.1c-.1 0-.1 0-.3.1l.4-.4.1.1h.1v-.1-.1l.1-.1c-.1.1-.1.2-.1.1l1.5-1.2v-.1c.1-.1.2-.2.2-.1l2-1.6zm-7.5 4c0 .1.1.1 0 0zm .6.2v.1h.1v-.1zm.4-.1-.1.2v.2h-.2v.1h.1l.1.1v.2h.1l.1-.2h.1v-.2-.1h-.1l-.1.2-.1-.3.1-.1zm-.3-.8.1.1zm.1.2c-.1 0-.1 0 0 0zm .4-.4v.1h.1zm0 .9v.1zm.2-1.4.1.1zm.2.3.1.1zm.1 1.3c0 .1-.1.1 0 0-.1.1-.1.2-.1.3h.1c0-.1 0-.2 0-.3zm-.1-1 .1.2zm.3-.1v.1zm.3 0v .1zm.3-.5c0 .1 0 .1.1.2l-.1.1.1-.1s0-.1-.1-.2zm.4-1.1c-.1.1-.1.1-.2.1s-.1 0-.1.1l.1.1c.1-.1.2-.2.2-.1zm.3-.4.1.1zm.9-.4v.1z" fill="#fff"/><g fill="#ececec"><path d="m65.4 43.8h28.5c0 .1.1.2.1.2-2.5 2-5.1 3.9-7.6 5.8-2.6 2-5.1 3.9-7.7 5.8s-5.1 3.9-7.8 5.9c2.9 9.5 5.9 18.9 8.6 28.4-2.7-1.8-5.2-3.7-7.7-5.7-2.6-2-5.2-3.9-7.7-5.9-2.6-1.9-5.1-3.9-7.7-5.8-3.9 2.9-7.7 5.9-11.6 8.8-3.8 2.9-7.6 5.8-11.6 8.5 2.7-9.5 5.7-18.9 8.6-28.3-.3-.2-.5-.4-.8-.6-6.9-5.1-13.8-10.4-20.7-15.7-.5-.4-1-.7-1.5-1.4h28.7c3-9.5 5.9-19 8.9-28.4h.2c1.1 3.1 2 6.2 3 9.4s1.9 6.3 2.9 9.5c.9 3.1 1.9 6.2 2.9 9.5z"/><path d="m91.4 50.5c2-1.6 4-3.3 6.1-5.1 2.1 7.7 2.1 15.3-.1 22.9-2.4 8.5-7.2 15.6-14.1 21.4-.8-2.6-1.6-4.9-2.4-7.3 8.8-8.9 12.3-19.5 10.5-31.9z"/><path d="m31.9 82.2c-.8 2.4-1.5 4.8-2.3 7.2-3-1.2-9.8-10-12.3-16-3.8-9-4.5-18.1-2-27.7 2.2 1.5 4.2 3.1 6.2 4.7-1.8 12.3 1.7 22.9 10.4 31.8z"/><path d="m53 14.3c-.8 2.5-1.5 5-2.2 7.4-1.1.2-2.2.3-3.1.6-6.7 1.8-12.3 5.3-17 10.5-1.9 2.1-3.7 4.4-5.2 6.8-.2.3-.4.5-.6.8-2.5 0-5.1 0-7.6 0 .2-2.2 4.5-9.2 8.3-13.1 7.9-8.1 18.2-12.4 27.4-13z"/><path d="m62.2 21.7c-.8-2.5-1.5-4.9-2.2-7.3 2.9-.6 12.9 2.4 18.2 5.6 8 4.8 13.9 11.6 17.6 20.3-2.7 0-5.2 0-7.7 0-2.8-4.9-6.3-9-10.9-12.2-4.5-3.1-9.6-5-15-6.4z"/><path d="m41.4 88.5c1.3.6 2.5 1.1 3.7 1.6 4.9 1.8 10 2.2 15.1 1.5 3.6-.5 7-1.4 10.4-2.6.3-.1.6-.2 1-.3 2 1.5 4.1 3.1 6.2 4.7-5.7 3.3-11.7 5.2-18.2 5.7-8.7.7-16.9-1.3-24.5-5.6.4-.7 4.7-4.1 6.3-5z"/><path d="m19.4 21.4c-.5-.5-.8-.8-.9-1-.2-.2-.3-.5-.3-.7 0-.3 0-.6.1-.8s.3-.6.6-.8c.2-.2.5-.4.8-.5s.6-.2.8-.1c.3 0 .5.1.7.3s.6.5 1 1l .8.8c.5.5.8.8.9 1 .2.2.3.5.3.7 0 .3 0 .6-.1.8-.1.3-.3.5-.6.8-.2.2-.5.4-.8.5s-.6.2-.8.1c-.3 0-.5-.1-.7-.3s-.6-.5-1-1zm2.7.4c.2.2.4.3.4.4.1 0 .2 0 .2-.1.1-.1.1-.1.1-.2s-.1-.2-.4-.5l-2.1-2.2c-.2-.2-.4-.4-.5-.4s-.2 0-.2.1c-.1.1-.1.2 0 .3 0 .1.2.3.5.6z"/><path d="m20.6 25.8-4.9-4.3 1.1-1.3 4.9 4.3z"/><path d="m18 29.2-5.2-3.9 1-1.3.3.2c0-.2 0-.4 0-.6s.1-.4.2-.5c.2-.2.3-.3.6-.4.2-.1.4-.1.6 0s .4.2.7.5l2 1.5c.3.2.5.4.6.6.1.1.2.3.1.6 0 .2-.1.4-.3.7-.1.2-.3.3-.4.4-.2.1-.3.1-.5.2l1.2.9zm-1-2.8c.2.1.3.2.3.2.1 0 .1 0 .2-.1s.1-.1 0-.2c0-.1-.1-.2-.3-.3l-2.1-1.6c-.2-.1-.3-.2-.4-.2s-.1 0-.2.1-.1.2 0 .2c0 .1.2.2.4.4z"/><path d="m16.8 31-.6 1c-.4.7-.7 1.1-.9 1.4-.2.2-.4.3-.8.4-.3 0-.7-.1-1.2-.4-.4-.3-.7-.5-.8-.7s-.1-.5.1-.8c-.2.2-.4.4-.6.4s-.3 0-.4 0-.4-.2-.9-.4l-1.5-.9.8-1.4 1.9 1.1c.3.2.5.3.6.3s.2-.1.3-.3l-2.5-1.5.9-1.5zm-1.8.9-1.2-.7c-.1.2-.1.3-.1.4s.1.2.4.4l.3.2c.2.1.3.1.4.1 0-.1.1-.2.2-.4z"/><path d="m11.1 34.7.6-1.4.3.2c.4.2.6.4.8.5s.3.4.3.8c0 .3 0 .7-.2 1.1-.2.5-.5.8-.8 1s-.6.2-.9.2c-.3-.1-.8-.3-1.6-.7l-2.4-1.1.7-1.4.4.2c-.1-.2-.2-.3-.2-.5s0-.4.1-.6c.1-.3.3-.5.5-.6s.6-.1 1.1.1l.4.2c.4.2.6.3.7.5s.1.5.1 1.1 0 .9 0 1c .1.1.2.1.4.2.3.1.4.2.5.2s.2 0 .2-.1 0-.2 0-.2-.2-.1-.5-.3zm-.9.2c-.1-.3-.1-.5-.2-.6s-.3-.2-.5-.3c-.3-.1-.4-.2-.5-.2s-.2 0-.2.1 0 .2 0 .2c0 .1.2.1.4.3z"/><path d="m11.3 39.7-.5-.2.3.6c0 .2 0 .4-.1.6-.1.3-.2.5-.4.6s-.4.2-.6.2-.5-.1-1-.3l-3.5-1.4.6-1.5 3.5 1.3c.3.1.6.2.6.2.1 0 .1 0 .2-.1 0-.1 0-.2-.1-.3s-.3-.2-.7-.3l-3.3-1.3.6-1.5 5 1.8z"/><path d="m9.4 45.8-4-1.1c-.5-.1-.9-.2-1-.3-.2-.1-.3-.2-.4-.4s-.2-.4-.2-.7 0-.6.1-1.1.3-.9.6-1.1c.3-.3.6-.3 1.1-.2l-.4 1.5c-.2-.1-.4 0-.4.2v.3c.1.1.2.1.4.2l.4.1c-.1-.2-.1-.3-.2-.5 0-.2 0-.3 0-.5.1-.3.2-.5.4-.7s.3-.2.5-.3c.2 0 .5 0 .8.1l1.9.5c.5.1.8.3 1 .5s.2.5.1.9c-.1.2-.1.4-.3.5-.1.1-.3.3-.5.3l.4.2zm-.9-1.9c.2.1.4.1.5.1s.1-.1.1-.2 0-.2-.1-.2c-.1-.1-.2-.1-.4-.2l-1.7-.5c-.2-.1-.4-.1-.5-.1s-.1.1-.2.2c0 .1 0 .2.1.2.1.1.3.1.6.2z"/><path d="m6 49.6.4-2.1-1.1-.2c-.2 0-.4 0-.5 0s-.1.1-.1.2 0 .2.1.3.3.1.5.2l.7.1-.3 1.5-.4-.1c-.3-.1-.6-.1-.7-.2-.2-.1-.3-.2-.5-.4s-.3-.4-.3-.6c-.1-.2-.1-.5 0-.9.1-.3.2-.6.3-.9s.3-.4.5-.5.4-.2.6-.2.5 0 .9.1l1.5.3c.5.1.8.2 1.1.4.2.2.4.4.5.7s.1.6 0 1c-.1.5-.2.8-.4 1.1s-.5.4-.8.5-.7.1-1.2 0zm1.1-1.5.4.1c.3 0 .5.1.5 0 .1 0 .1-.1.1-.2s0-.2-.1-.2-.2-.1-.5-.1l-.4-.1z"/><path d="m8.5 52.3-.7-.2c.5.3.7.6.7 1.1l-1.9-.2c0-.3 0-.5-.1-.7-.1-.1-.2-.2-.3-.3-.1 0-.5-.1-1-.1l-2-.1.1-1.6 5.3.5z"/><path d="m6.6 56.9v-1.4h.3.5s.1-.1.1-.2 0-.2-.1-.2-.1-.1-.3-.1-.3 0-.4 0-.2.1-.3.2-.2.3-.4.7c-.2.5-.5.8-.7.9s-.5.2-.9.2-.8-.1-1-.2-.4-.3-.5-.6-.2-.6-.2-1 .1-.8.2-1.1.3-.5.5-.6.6-.2 1-.1h.3v1.4h-.3c-.3 0-.5 0-.6 0s-.1.1-.1.2 0 .2.1.2.2.1.4.1c.3 0 .4 0 .5-.1s.3-.4.6-.9.5-.8.7-.9.5-.1.8-.1c.4 0 .7.1.9.2s.4.3.5.6.2.6.1.9c0 .4-.1.7-.2.9s-.2.4-.4.6c-.2.1-.3.2-.4.2s-.3 0-.6 0z"/><path d="m8.5 60.8h-.5c.2.1.4.2.5.4s.2.4.2.6c0 .3 0 .5-.1.7s-.3.3-.5.4-.5.1-1 .2l-3.7.4-.1-1.7 3.7-.4c.4 0 .6-.1.7-.1s.1-.1.1-.2-.1-.2-.2-.2-.3 0-.7 0l-3.6.4-.2-1.6 5.3-.5z"/><path d="m6.8 67.7-.4-2.1-1.1.2c-.2 0-.4.1-.4.1-.1 0-.1.1-.1.2s.1.2.2.2.3 0 .5 0l .7-.1.3 1.5-.4.1c-.3.1-.6.1-.8.1s-.4-.1-.6-.2-.4-.3-.6-.5c-.1-.2-.2-.5-.3-.8s-.1-.6 0-.9c0-.3.1-.5.3-.7.1-.2.3-.3.5-.4s.5-.2.9-.3l1.5-.3c.5-.1.8-.1 1.1 0s .5.2.7.5.3.6.4.9c.1.4.1.8 0 1.2-.1.3-.3.6-.6.7-.3.2-.6.3-1.2.4zm.6-1.8.4-.1c.3-.1.4-.1.5-.1s.1-.1.1-.2-.1-.2-.1-.2-.3 0-.6.1l-.4.1z"/><path d="m10.6 70.9-5.4.7-.6-2.1 4.9-2.2.4 1.4-3.6 1.5c.3 0 1-.2 2.1-.4.6-.1 1.2-.2 1.8-.3z"/><path d="m9.3 75.6-.7-2-1.1.4c-.2.1-.4.2-.4.2-.1.1-.1.1 0 .2 0 .1.1.2.2.2s.3 0 .5-.1l.7-.2.5 1.4-.4.1c-.3.1-.6.2-.7.2-.2 0-.4 0-.6-.1s-.5-.2-.6-.4c-.2-.2-.3-.4-.4-.8-.1-.3-.2-.6-.2-.9s.1-.5.2-.7.3-.4.4-.5c.2-.1.5-.3.8-.4l1.5-.5c.4-.2.8-.2 1.1-.2s.6.1.8.4c.2.2.4.5.5.9.2.4.2.8.1 1.2-.1.3-.2.6-.4.8s-.6.4-1.1.6zm.3-1.8.4-.1c.3-.1.4-.2.5-.2.1-.1.1-.1.1-.2s-.1-.2-.2-.2-.3 0-.5.2l-.4.1z"/><path d="m12.9 76.7-.7.2c.6 0 .9.2 1.2.6l-1.7.8c-.1-.3-.3-.5-.4-.5-.1-.1-.3-.1-.4-.1s-.5.2-.9.4l-1.9.9-.7-1.5 4.9-2.2z"/><path d="m17.1 82-5.6 3.3-.8-1.4.3-.2c-.2-.1-.4-.1-.6-.2s-.3-.2-.4-.4-.2-.4-.2-.7c0-.2.1-.4.2-.5s.4-.3.7-.5l2.1-1.3.8-.4c.2 0 .4 0 .6.1s.4.3.5.5.2.4.2.5v.6l1.3-.8zm-3-.1c.2-.1.3-.2.3-.2 0-.1 0-.1 0-.2s-.1-.1-.2-.1-.2.1-.4.2l-2.2 1.2c-.2.1-.3.2-.3.3v.2c.1.1.1.1.2.1s.3-.1.5-.2z"/><path d="m17.4 84.5-4.4 3-1-1.4 4.4-3zm1-.7-.7.5-1-1.4.7-.5z"/><path d="m17.9 89.7-1.3-1.6-.9.7c-.2.2-.3.3-.3.3v.2c.1.1.2.1.3.1s.3-.1.5-.3l.5-.4 1 1.2-.3.2c-.3.2-.5.3-.6.4-.2.1-.4.1-.6.1-.3 0-.5-.1-.7-.2s-.4-.3-.7-.6c-.2-.3-.4-.5-.5-.8s-.1-.5-.1-.7.1-.4.3-.6c.1-.2.3-.4.7-.6l1.2-1c .4-.3.7-.5 1-.5.3-.1.6 0 .9.1s.6.3.8.6c.3.4.5.7.5 1 .1.3 0 .6-.1.9s-.4.6-.8.9zm-.3-1.9.3-.2c.2-.2.3-.3.4-.4 0-.1 0-.1 0-.2-.1-.1-.1-.1-.2-.1s-.2.1-.5.3l-.3.2z"/><path d="m18.1 91.8-.4.4c-.2.2-.4.3-.6.4s-.4.1-.6.1-.4-.1-.6-.3l.3-.3c.2.1.3 0 .5 0l-.2-.2.9-.9z"/><path d="m24.4 91.3-.6.6.3.3-.6.6-.3-.3-2 2.1c-.2.3-.4.4-.4.5s.1.2.3.4l-.6.6-.5-.5c-.3-.3-.4-.4-.5-.6-.1-.1-.1-.3-.2-.4 0-.2 0-.3.1-.4s.3-.4.7-.8l1.9-2-.3-.2.6-.6.3.2.6-.6z"/><path d="m26.5 92.6-.9 1.1c.2 0 .4 0 .5.1.2.1.3.1.5.3s.4.4.4.6c.1.2.1.4 0 .6s-.3.5-.6.8l-2.3 2.8-1.3-1 2.4-2.9c.2-.2.3-.4.3-.5s0-.2-.1-.2c-.1-.1-.2-.1-.2 0-.1 0-.2.2-.4.4l-2.4 2.9-1.3-1 4.1-5z"/><path d="m29.4 99.6-1.7-1.2-.7 1c-.1.2-.2.3-.2.4s0 .1.1.2.2.1.3 0 .2-.2.4-.4l.4-.6 1.3.9-.2.3c-.2.3-.3.5-.5.6-.1.1-.3.2-.6.3-.2.1-.5.1-.7 0-.3 0-.5-.2-.8-.4s-.5-.4-.7-.6-.3-.5-.3-.7 0-.4.1-.6.2-.5.4-.8l.9-1.3c.3-.4.5-.7.8-.8.3-.2.5-.2.9-.2.3 0 .6.2.9.4.4.3.6.5.8.9.1.3.2.6.1.9s-.2.7-.5 1.1zm-.8-1.7.2-.3c.2-.2.2-.4.3-.5 0-.1 0-.2-.1-.2-.1-.1-.2-.1-.2 0-.1 0-.2.2-.3.4l-.2.3z"/><path d="m34.4 99.3-2.3 3.1c-.4.5-.6.8-.8 1s-.3.3-.5.4-.4.1-.6 0-.5-.2-.9-.4l-.9-.5.4-.7c.2.1.4.2.4.2.1 0 .1 0 .2-.1 0 0 .1-.2.2-.5l1.4-4.3 1.3.7-1.3 3.4 2-3z"/><path d="m37.7 100.8-.3.6c.4-.4.8-.5 1.3-.3l-.8 1.7c-.3-.1-.5-.2-.6-.2-.2 0-.3.1-.4.2s-.2.4-.4.9l-.8 1.9-1.5-.7 2.1-4.9z"/><path d="m41.6 105.2-2-.7-.4 1.1c-.1.2-.1.4-.1.5s.1.1.2.2h.3s.1-.2.2-.5l.2-.7 1.5.5-.1.4c-.1.3-.2.5-.3.7s-.3.3-.5.4-.4.2-.7.2-.5 0-.9-.1c-.3-.1-.6-.3-.8-.4-.2-.2-.4-.4-.4-.6-.1-.2-.1-.4-.1-.6s.1-.5.2-.9l.5-1.5c.2-.4.3-.8.5-1s .5-.3.8-.4c.3 0 .7 0 1 .1.4.2.8.4 1 .6.2.3.3.5.4.9 0 .3-.1.7-.2 1.2zm-1.3-1.4.1-.4c.1-.3.1-.4.1-.5s0-.1-.1-.2c-.1 0-.2 0-.2 0 0 .1-.1.2-.2.5l-.1.4z"/><path d="m46.6 103.6-1 4c-.1.5-.2.9-.3 1-.1.2-.2.3-.4.4s-.4.2-.7.2-.6 0-1.1-.1-.9-.3-1.1-.6c-.3-.2-.3-.6-.2-1.1l1.5.4c-.1.2 0 .4.2.4h.3c.1-.1.1-.2.2-.4l.1-.4c-.2.1-.3.1-.5.2-.2 0-.3 0-.5 0-.3-.1-.5-.2-.7-.4s-.2-.3-.3-.5c0-.2 0-.5.1-.8l.5-1.9c.1-.5.3-.8.5-1s .5-.2.9-.1c.2 0 .4.1.5.3.1.1.3.3.3.5l.2-.4zm-1.9 1c .1-.2.1-.4.1-.5s-.1-.1-.2-.1-.2 0-.2.1c-.1.1-.1.2-.2.4l-.4 1.7c-.1.2-.1.4-.1.5s.1.1.2.1.2 0 .2-.1c.1-.1.1-.3.2-.6z"/><path d="m48.9 104-.2.7c.3-.5.7-.7 1.1-.6l-.3 1.9c-.3-.1-.5 0-.7 0-.2.1-.3.2-.3.3-.1.1-.1.5-.2 1l-.4 2.1-1.6-.3.9-5.3z"/><path d="m53.7 106.5-.1 1.3c0 .5-.1.8-.2 1s-.2.4-.4.6-.4.3-.6.4c-.3.1-.5.1-.9.1s-.7-.1-.9-.2-.4-.2-.5-.4-.2-.4-.2-.6 0-.6 0-1l .1-1.4c0-.5.1-.9.3-1.1.1-.3.3-.5.6-.6s.7-.2 1.1-.2.7.1.9.3c.3.1.4.3.6.5.1.2.2.4.2.6.1 0 .1.3 0 .7zm-1.6-.6c0-.3 0-.4 0-.5s-.1-.1-.2-.1-.2 0-.2.1-.1.2-.1.5l-.2 2.4v.5s.1.1.2.1.2 0 .2-.1.1-.2.1-.4z"/><path d="m58.2 104.7v5.3h-1.7v-.4c-.1.2-.3.3-.4.4s-.4.1-.6.1-.4 0-.6-.1-.3-.2-.4-.3-.1-.3-.1-.4c0-.2 0-.5 0-.9v-3.6h1.6v3.6.7c0 .1.1.1.2.1s.2 0 .2-.1 0-.3 0-.8v-3.6z"/><path d="m60.5 104.5v.5c.1-.2.3-.4.4-.5.2-.1.4-.2.6-.2.3 0 .5 0 .7.1s.3.3.4.4c.1.2.1.5.1.9l.2 2.2v1s-.1.4-.3.5-.4.2-.6.2-.4 0-.6-.1-.3-.2-.5-.4l.1 1.2-1.6.1-.5-6.1zm.6 1.5c0-.3-.1-.5-.1-.6s-.1-.1-.2-.1-.2.1-.2.1v.6l.2 2.2c0 .3.1.5.1.6s.1.1.2.1.2-.1.2-.1c0-.1 0-.3 0-.5z"/><path d="m66.2 102.5.2.8-1.6.3-.2-.8zm.2 1.2 1 5.3-1.6.3-1-5.3z"/><path d="m68.7 103.1.1.5c.1-.2.2-.4.3-.5s.3-.2.5-.3c.3-.1.5-.1.7 0s .4.2.5.4.2.5.3.9l.9 3.6-1.6.4-.9-3.6c-.1-.4-.2-.6-.2-.6 0-.1-.1-.1-.2-.1s-.2.1-.2.2 0 .3.1.7l.9 3.5-1.6.4-1.3-5.2z"/><path d="m73.9 100.2.5 1.4c.1-.2.2-.3.3-.4s.3-.2.4-.3c.3-.1.5-.1.8-.1.2.1.4.2.5.3.1.2.3.5.4.9l1.4 3.4-1.5.6-1.4-3.5c-.1-.3-.2-.5-.3-.5-.1-.1-.1-.1-.2 0-.1 0-.1.1-.1.2s.1.3.2.5l1.4 3.5-1.5.6-2.4-6.1z"/><path d="m81.4 101.1-1.9.9.5 1c .1.2.2.3.3.4h.2c.1-.1.2-.1.2-.2s-.1-.3-.2-.5l-.3-.6 1.4-.7.2.4c.1.3.2.5.3.7v.6s-.2.5-.3.7c-.2.2-.4.4-.7.5-.3.2-.6.2-.9.3-.3 0-.5 0-.7-.1s-.4-.2-.5-.4-.3-.4-.5-.8l-.7-1.4c-.2-.4-.3-.8-.3-1.1s.1-.6.3-.8c.2-.3.5-.5.8-.6.4-.2.8-.3 1.1-.3s.6.1.9.3c.2.2.5.5.7 1zm-1.9-.1-.2-.3c-.1-.2-.2-.4-.3-.5s-.1-.1-.2 0-.1.1-.1.2.1.2.2.5l.2.3z"/><path d="m81.5 96.4 3.3 5.6-1.4.9-3.3-5.6z"/><path d="m83.4 95.2 3.6 5.4-1.4.9-3.6-5.4z"/><path d="m88.4 95.5-1.2 1-.2-.3c-.3-.3-.4-.6-.5-.8s0-.5.1-.8.3-.6.7-.9.8-.5 1.1-.6c.3 0 .6.1.8.2.2.2.6.6 1.2 1.3l1.7 2.1-1.2 1-.3-.4v.6c-.1.2-.2.3-.3.5-.2.2-.5.3-.8.3s-.6-.2-.9-.6l-.3-.3c-.3-.3-.4-.6-.4-.8s.1-.5.4-1 .4-.8.4-.9-.1-.2-.2-.4c-.2-.2-.3-.3-.4-.4-.1 0-.2 0-.2 0-.1.1-.1.1-.1.2s.1.2.3.5zm.8.2c-.1.3-.1.5 0 .7 0 .1.2.3.3.5l.4.4h.2c.1-.1.1-.1.1-.2s-.1-.2-.3-.4z"/><path d="m90.4 91 .3.4c-.1-.2-.1-.4 0-.6s.2-.4.3-.5c.2-.2.4-.3.6-.3s.4 0 .6.1.4.3.8.7l2.6 2.7-1.2 1.1-2.6-2.6c-.3-.3-.4-.4-.5-.5-.1 0-.1 0-.2.1s-.1.2-.1.3.2.3.5.6l2.5 2.6-1.2 1.1-3.7-3.8z"/><path d="m93.8 85.5 5 4.2-1.1 1.2-.3-.3v.6s-.1.3-.3.5-.4.3-.6.4-.4 0-.6 0c-.2-.1-.4-.2-.7-.5l-1.9-1.6c-.3-.3-.5-.5-.6-.6s-.1-.3-.1-.6.1-.4.3-.6c.1-.2.3-.3.4-.4.2-.1.3-.1.5-.1l-1.2-1zm .8 2.9c-.1-.1-.3-.2-.3-.2-.1 0-.1 0-.2.1s-.1.1-.1.2.1.2.3.3l2 1.7c.2.1.3.2.4.2s.1 0 .2-.1.1-.2 0-.2c0-.1-.2-.2-.4-.4z"/><path d="m97.9 81.5 1.4 1.7 3.2 1.1-.9 1.3-2.2-.9 1.9 1.3-.9 1.4-5.4-3.6.9-1.4 2.3 1.5-1-1.3z"/><path d="m98 79 .7.4-.8 1.5-.7-.4zm1 .6 4.6 2.7-.8 1.5-4.6-2.7z"/><path d="m99.1 76.9 5.8 3-.8 1.5-5.8-3z"/><path d="m100 74.9 5.9 2.7-.7 1.5-5.9-2.7z"/><path d="m101.9 71.3.8.3.1-.4.8.3-.1.4 2.7.9c.3.1.5.2.6.1 0 0 .1-.2.2-.4l.8.3-.2.6c-.1.3-.2.6-.3.7s-.2.2-.3.3-.3.1-.4.1-.5-.1-1-.3l-2.6-.9-.2.5-.8-.3.1-.3-.8-.3z"/><path d="m102.1 68.9 1.4.4c-.1-.2-.1-.3-.2-.5 0-.2 0-.4 0-.5.1-.3.2-.5.4-.6.2-.2.4-.2.6-.2s.5.1 1 .2l3.6 1-.4 1.6-3.6-1c-.3-.1-.5-.1-.6-.1s-.2.1-.2.2 0 .2.1.2c.1.1.2.1.5.2l3.7 1-.4 1.6-6.3-1.7z"/><path d="m107.3 63.4-.4 2.1 1.1.2c.2 0 .4.1.5 0 .1 0 .1-.1.1-.2s0-.2-.1-.3-.3-.1-.5-.2l-.7-.1.3-1.5.4.1c.3.1.6.1.7.2.2.1.3.2.5.4s.3.4.3.7c.1.2.1.5 0 .9-.1.3-.2.6-.3.9-.1.2-.3.4-.5.5s-.4.2-.6.2-.5 0-.9-.1l-1.5-.3c-.5-.1-.8-.2-1.1-.4-.2-.2-.4-.4-.5-.7s-.1-.6 0-1c .1-.5.2-.8.5-1.1.2-.3.5-.4.8-.5s.7-.1 1.2 0zm-1.1 1.5-.4-.1c-.3 0-.5-.1-.5-.1-.1 0-.1.1-.2.2 0 .1 0 .2.1.2s.2.1.5.1l.4.1z"/><path d="m107.8 57.2-.1 2.1 1.2.1h.5c.1 0 .1-.1.1-.2s0-.2-.1-.3c-.1 0-.3-.1-.5-.1h-.7l.1-1.5h.4c.3 0 .6.1.8.1l.6.3c.2.2.3.4.4.6s.1.5.1.9c0 .3-.1.6-.2.9s-.3.5-.4.6c-.2.1-.4.2-.6.3-.2 0-.5.1-.9 0l-1.6-.1c-.5 0-.8-.1-1.1-.2s-.5-.4-.6-.7-.2-.6-.2-1c0-.5.1-.8.3-1.1s.4-.5.7-.6.7-.1 1.2-.1zm-.9 1.6h-.4c-.3 0-.5 0-.5 0-.1 0-.1.1-.1.2s0 .2.1.2.3.1.6.1h.4z"/><path d="m105 54.8h.5c-.2-.1-.4-.2-.5-.4s-.2-.4-.2-.6c0-.3 0-.5.2-.7.1-.2.3-.3.5-.4s.5-.1 1-.1l3.7-.1.1 1.6-3.7.1c-.4 0-.6 0-.7.1-.1 0-.1.1-.1.2s.1.2.1.2h.7l3.6-.1.1 1.6-5.3.2z"/><path d="m107.2 48.1.3 2.1 1.1-.1c.2 0 .4-.1.5-.1s.1-.1.1-.2-.1-.2-.2-.2-.3 0-.5 0l-.7.1-.2-1.5h.4c.3 0 .6-.1.8 0 .2 0 .4.1.6.2s.4.3.5.5.2.5.3.9v.9c-.1.3-.2.5-.3.7s-.3.3-.5.4-.5.1-.9.2l-1.5.2c-.5.1-.8 0-1.1 0-.3-.1-.5-.3-.7-.5-.2-.3-.3-.6-.3-1-.1-.5 0-.8.1-1.2.1-.3.3-.6.6-.7.3-.2.7-.3 1.2-.3zm-.7 1.8h-.4c-.3 0-.5.1-.5.1-.1 0-.1.1-.1.2s.1.2.1.2h.6.4z"/><path d="m104 46.4.5-.1c-.2-.1-.4-.2-.5-.3s-.2-.3-.3-.5c-.1-.4 0-.8.4-1.1-.2-.1-.4-.2-.5-.3s-.2-.3-.3-.5c-.1-.3-.1-.5 0-.7s.2-.4.4-.5.5-.2.9-.3l3.7-.9.4 1.5-3.4.8c-.4.1-.7.2-.8.2-.1.1-.1.1-.1.2s.1.2.2.2.4 0 .8-.1l3.4-.8.4 1.5-3.3.8c-.5.1-.8.2-.9.3-.1 0-.1.1-.1.2s.1.1.1.2h.2c.1 0 .2 0 .5-.1l3.6-.9.4 1.5-5.2 1.2z"/><path d="m101.7 38.5 3.8-.8c.6-.1 1-.2 1.2-.2s.4 0 .6.1.3.2.5.3.3.5.4.9l.3.9-.8.3c-.1-.2-.1-.4-.2-.4s-.1-.1-.2 0c0 0-.2.1-.5.3l-3.9 2.3-.5-1.4 3.2-1.7-3.5.9z"/><path d="m99.5 35.4.8-.4-.2-.4.8-.4.2.4 2.6-1.2c.3-.1.5-.2.5-.3 0 0 0-.2-.1-.4l.8-.4.3.6c.2.3.3.6.3.7v.5s-.1.3-.3.4c-.1.1-.4.2-.9.5l-2.5 1.1.1.3-.8.4-.1-.3-.8.4z"/><path d="m97.2 29.8 5-2.1.9 1.5c-.5.4-1.2.9-2.1 1.6.4-.2.9-.4 1.3-.5l1.1-.4.9 1.5-4.3 3.3-.7-1.2c.1-.1.9-.7 2.5-1.8-.2.1-1.1.5-2.8 1.2l-.7-1.2 2.5-1.9c-.8.4-1.7.8-2.8 1.2z"/><path d="m95.1 28.9.7-.5 1 1.4-.7.5zm.9-.7 4.4-3 1 1.4-4.4 3z"/><path d="m95 23.6 1 1.2-.5.4c-.2.1-.3.2-.3.3s0 .1 0 .2c.1.1.1.1.2.1s.2-.1.4-.2l2-1.6c.1-.1.2-.2.3-.3 0-.1 0-.2 0-.3-.1-.1-.2-.1-.3-.1s-.3.1-.5.3l-.5.4-.9-1.1c.3-.3.6-.5.8-.6s.4-.2.7-.2.5 0 .8.1c.2.1.5.3.7.6.3.4.5.7.5 1s0 .6-.2.9-.4.6-.8.9l-1.2.9c-.4.3-.7.5-.9.5-.2.1-.5 0-.8-.1s-.6-.3-.9-.7c-.3-.3-.4-.7-.5-1 0-.3 0-.6.2-.9s.3-.4.7-.7z"/><path d="m92.5 19.8 1.4 1.5.8-.8c.2-.2.3-.3.3-.4s0-.1-.1-.2-.2-.1-.3-.1-.2.1-.4.3l-.5.5-1.1-1.1.3-.3c.2-.2.4-.4.6-.5s.4-.2.6-.2c.3 0 .5 0 .7.1s.5.3.7.5c.2.3.4.5.5.8s.2.5.1.7c0 .2-.1.4-.2.6s-.3.4-.6.7l-1.1 1.1c-.3.3-.6.5-.9.6s-.6.1-.9 0-.6-.3-.8-.6c-.3-.3-.5-.7-.6-1s-.1-.6.1-.9c.1-.3.4-.6.8-1zm .5 1.8-.3.3c-.2.2-.3.3-.4.4v.2c.1.1.2.1.2.1.1 0 .2-.1.4-.4l.3-.3z"/></g></svg>