<svg enable-background="new 0 0 113.4 113.4" viewBox="0 0 113.4 113.4" xmlns="http://www.w3.org/2000/svg"><circle cx="56.7" cy="56.7" fill="#074f7e" r="56.7"/><circle cx="56.7" cy="56.7" fill="#fff" r="54.7"/><circle cx="56.7" cy="56.7" fill="#074f7e" r="42.9"/><path d="m98.5 56.7-4.6-3h-21v-2.4l.4-.8s12.4-12.4 16.7-16.9c-2.3-4.4-10.5-10.4-10.5-10.4l-17 17-.7.2h-2.1v-21.1l-3-4.6-3 4.6v21.1h-2.1l-.8-.3-17-17s-8.2 6.1-10.5 10.4c4.3 4.5 16.7 16.9 16.7 16.9l.4.8v2.4h-21l-4.6 3 4.6 3h21v2.4l-.4.8s-12.4 12.4-16.7 16.9c2.3 4.4 10.5 10.4 10.5 10.4l17-17 .7-.3h2.1v21.1l3 4.6 3-4.6v-20.9h2.2l.7.3 17 17s8.2-6.1 10.5-10.4c-4.3-4.5-16.7-16.9-16.7-16.9l-.4-.8v-2.4h21z" fill="#fff"/><path d="m64.6 41.9v-2.6c-.1.7-2.4 2-2.4 2h-5.5-5.5s-2.3-1.3-2.4-2v2.6s-1.8.2-3.1 1.4c1.4 1.2 3.1 1.4 3.1 1.4v2.6c.1-.7 2.4-2 2.4-2h5.5 5.5s2.3 1.3 2.4 2v-2.6s1.8-.2 3.1-1.4c-1.3-1.2-3.1-1.4-3.1-1.4z" fill="#e6b03c"/><path d="m56.7 15.5-2.5 3.9v21h2.5 2.5v-21z" fill="#e6b03c"/><circle cx="56.7" cy="56.7" fill="#e6b03c" r="3.4"/><path d="m59.2 53.3v-7h-5v7c .7-.5 1.6-.8 2.5-.8s1.8.3 2.5.8z" fill="#e6b03c"/><path d="m48.7 71.5v2.6c.1-.7 2.4-2 2.4-2h5.5 5.5s2.3 1.3 2.4 2v-2.6s1.8-.2 3.1-1.4c-1.4-1.2-3.1-1.4-3.1-1.4v-2.6c-.1.7-2.4 2-2.4 2h-5.5-5.5s-2.3-1.3-2.4-2v2.6s-1.8.2-3.1 1.4c1.3 1.2 3.1 1.4 3.1 1.4z" fill="#e6b03c"/><path d="m56.7 97.9 2.5-3.9v-21h-2.5-2.5v21z" fill="#e6b03c"/><path d="m54.2 60.1v7h5v-7c-.7.5-1.6.8-2.5.8-1 0-1.8-.3-2.5-.8z" fill="#e6b03c"/><path d="m71.5 64.6h2.6c-.7-.1-2-2.4-2-2.4v-5.5-5.5s1.3-2.3 2-2.4h-2.6s-.2-1.8-1.4-3.1c-1.2 1.4-1.4 3.1-1.4 3.1h-2.6c.7.1 2 2.4 2 2.4v5.5 5.5s-1.3 2.3-2 2.4h2.6s.2 1.8 1.4 3.1c1.2-1.3 1.4-3.1 1.4-3.1z" fill="#e6b03c"/><path d="m97.9 56.7-3.9-2.5h-21v2.5 2.5h21z" fill="#e6b03c"/><path d="m60.1 59.2h7v-5h-7c .5.7.8 1.6.8 2.5s-.3 1.8-.8 2.5z" fill="#e6b03c"/><path d="m41.9 48.7h-2.6c.7.1 2 2.4 2 2.4v5.5 5.5s-1.3 2.3-2 2.4h2.6s.2 1.8 1.4 3.1c1.2-1.4 1.4-3.1 1.4-3.1h2.6c-.7-.1-2-2.4-2-2.4v-5.5-5.5s1.3-2.3 2-2.4h-2.6s-.2-1.8-1.4-3.1c-1.1 1.3-1.4 3.1-1.4 3.1z" fill="#e6b03c"/><path d="m15.5 56.7 4 2.5h20.9v-2.5-2.5h-20.9z" fill="#e6b03c"/><path d="m53.4 54.2h-7v5h7c-.5-.7-.8-1.6-.8-2.5-.1-1 .2-1.8.8-2.5z" fill="#e6b03c"/><path d="m21.8 87.3c.1.1.1.2.2.3v.3l-1.2 4.9c0 .1 0 .1-.1.1l-.1.1c-.1 0-.1 0-.2 0s-.1 0-.2-.1c-.1 0-.1-.1-.1-.1l-.1-.1s0-.1 0-.2l.3-1.3-2.4-2.8-1.3.2c-.1 0-.1 0-.2 0l-.1-.1-.1-.1c0-.1 0-.1 0-.2s0-.1 0-.2c0 0 0-.1.1-.1 0 0 .1 0 .1-.1l4.9-.7h.3s.1.1.2.2zm-3 .9 1.8 2 .6-2.4z" fill="#015484"/><path d="m21.8 93.9c-.1.1-.2.1-.2.1-.1 0-.2-.1-.3-.2s-.2-.2-.2-.3 0-.2.1-.3l2.2-2.3c.1-.1.2-.1.2-.1.1 0 .2.1.3.2s.2.2.2.3 0 .2-.1.3zm2.2-3.7c.1-.1.2-.1.3-.1s.2.1.4.2c.1.1.2.2.2.3s0 .2-.1.3-.2.1-.3.1-.2-.1-.4-.2-.2-.2-.2-.3c-.1-.1 0-.2.1-.3z" fill="#015484"/><path d="m26.3 93.2c.1.1.1.1.1.2s-.1.1-.1.2c-.1.1-.1.1-.2.2-.1 0-.1 0-.2-.1l-.4-.3c-.2-.2-.4-.3-.6-.4-.2 0-.3 0-.4.1l-1.5 1.7c-.1.1-.2.1-.2.1-.1 0-.2-.1-.3-.2s-.2-.2-.2-.3 0-.2.1-.3l1.5-1.7c.3-.3.6-.4.9-.4.3.1.7.3 1.1.6z" fill="#015484"/><path d="m27.9 95.8c.2-.3.4-.4.7-.4s.7.1 1.1.4l.8.5c.1.1.1.1.1.2s0 .1-.1.2-.1.2-.2.2-.1 0-.2 0l-.8-.5c-.2-.1-.4-.2-.5-.2s-.2 0-.3.1l-.1.1c-.1.1 0 .2 0 .3.1.1.2.3.4.4l1.2.8c.5.3.8.7 1 1 .1.3.1.6-.1.8l-.1.2c-.1.1-.2.2-.3.3s-.3.1-.5.1-.4-.1-.6-.2-.5-.2-.8-.4l-2.2-1.5c-.1-.1-.1-.1-.1-.2s0-.1.1-.2.1-.2.2-.2h.2l2.3 1.5c.1.1.3.2.4.2.1.1.2.1.3.1s.1 0 .2 0c0 0 .1 0 .1-.1l.1-.2v-.1s0-.1-.1-.2c0-.1-.1-.1-.2-.2s-.2-.2-.3-.3l-1.2-.8c-.4-.3-.7-.6-.9-.9s-.1-.6.1-.8z" fill="#015484"/><path d="m32.3 98.9c.3-.7 1.1-.7 2.2-.2l1.3.7c1.1.6 1.5 1.2 1.1 1.9l-.7 1.3c-.3.7-1.1.7-2.2.2l-1.3-.7c-1.1-.6-1.5-1.2-1.1-1.9zm3.9 2c .1-.1 0-.3-.1-.4-.1-.2-.3-.3-.7-.5l-1.2-.6c-.3-.2-.6-.3-.8-.2-.2 0-.3.1-.4.2l-.7 1.3c-.1.1 0 .3.1.4.1.2.3.3.7.5l1.2.6c.3.2.6.2.8.2s.3-.1.4-.2z" fill="#015484"/><path d="m36.9 104.1c-.1 0-.2-.1-.3-.2 0-.1-.1-.2 0-.3l.8-2.2c.3-.7 1-.9 2.2-.4l1.4.5c1.2.4 1.6 1 1.4 1.7l-.8 2.2c0 .1-.1.2-.2.2s-.2 0-.3-.1c-.1 0-.2-.1-.3-.2 0-.1-.1-.2 0-.3l.8-2.2c0-.1 0-.3-.1-.4s-.4-.3-.7-.4l-1.3-.5c-.3-.1-.6-.2-.8-.1-.2 0-.3.1-.4.2l-.8 2.2c0 .1-.1.2-.2.2-.1.1-.2.1-.4.1z" fill="#015484"/><path d="m46.5 106.9c-1.2-.2-1.8-.7-1.6-1.5l.1-.3c.1-.8.8-1 2-.8l2.8.5c0-.1 0-.2-.2-.3s-.4-.2-.8-.3l-.6-.1c-.1 0-.2-.1-.2-.1 0-.1 0-.1 0-.3 0-.1.1-.2.1-.2s.1-.1.2 0l .6.1c1.2.2 1.8.7 1.6 1.5l-.3 1.4c-.1.8-.8 1-2 .8zm1.9-.3c.4.1.6.1.8 0s .3-.2.3-.3l.2-.8-2.8-.5c-.4-.1-.6-.1-.8 0s-.3.2-.3.3l-.1.4c0 .1 0 .3.2.4.1.1.4.2.8.3z" fill="#015484"/><path d="m53.5 104.1c.1 0 .2 0 .2.1v.3c0 .1 0 .2-.1.2 0 .1-.1.1-.2.1h-.5c-.3 0-.6 0-.7.1s-.2.2-.2.3l-.2 2.3c0 .1-.1.2-.1.2-.1 0-.2 0-.3 0s-.2 0-.3-.1c-.1 0-.1-.1-.1-.3l.2-2.3c0-.4.2-.7.5-.8.3-.2.7-.2 1.3-.2z" fill="#015484"/><path d="m60.8 103.3c0-.1 0-.2.1-.3.1 0 .2-.1.3-.1h.3c.1 0 .1.1.1.2l.2 3.4c0 .8-.6 1.2-1.8 1.2l-1.6.1c-1.2.1-1.9-.3-1.9-1.1l-.1-1.4c0-.8.6-1.2 1.8-1.2l2.6-.1zm-2.5 1.5c-.4 0-.6.1-.8.2s-.2.2-.2.4l.1 1.4c0 .1.1.2.3.3s.4.1.8.1l1.5-.1c.4 0 .6-.1.8-.2s.2-.2.2-.4l-.1-1.9z" fill="#015484"/><path d="m67 103.1h.3c.1 0 .1.1.1.2l.4 2.3c.1.8-.4 1.2-1.7 1.5l-1.6.3c-1.2.2-1.9-.1-2-.8l-.4-2.3c0-.1 0-.2.1-.3s.2-.1.3-.1h.3c.1 0 .1.1.1.2l.4 2.3c0 .1.1.2.3.3s.5.1.8 0l1.5-.3c.4-.1.6-.2.8-.3.1-.1.2-.2.2-.4l-.4-2.3c0-.1 0-.2.1-.3z" fill="#015484"/><path d="m68.3 102.7-.2-.7c0-.1 0-.2 0-.3.1-.1.2-.1.3-.1h.3c.1 0 .1.1.2.2l.2.7 1.3-.4h.2s.1.1.1.2v.3s-.1.1-.2.1l-1.3.4.7 2.7v.3c-.1.1-.2.1-.3.1s-.2 0-.3 0-.1-.1-.2-.2l-.7-2.7-.4.1c-.1 0-.2 0-.2 0s-.1-.1-.1-.2 0-.2 0-.3.1-.1.2-.1z" fill="#015484"/><path d="m72.7 105.4c-.1 0-.2.1-.3.1s-.1-.1-.2-.2l-1.5-4c0-.1 0-.2 0-.3s.1-.1.3-.2c.1 0 .2-.1.3-.1s.1.1.2.2l.3.9 2.4-.9c1.2-.4 1.9-.3 2.2.4l.8 2.2v.3c-.1.1-.1.1-.3.2-.1 0-.2.1-.3.1s-.1-.1-.2-.2l-.8-2.2c0-.1-.2-.2-.4-.2s-.5 0-.8.2l-2.4.9 1 2.6v.3c-.1-.2-.2-.1-.3-.1z" fill="#015484"/><path d="m79.7 102.5c-1.1.6-1.8.5-2.2-.2l-.7-1.3c-.4-.7 0-1.3 1.1-1.9l2.9-1.5c.1 0 .2-.1.2 0 .1 0 .1.1.2.2s.1.2.1.2c0 .1 0 .1-.1.2l-2.9 1.5c-.3.2-.5.3-.7.5-.1.2-.1.3-.1.4l.7 1.3c.1.1.2.2.4.2s.5-.1.8-.2l2.9-1.5c.1 0 .2-.1.2 0 .1 0 .1.1.2.2s.1.2.1.2 0 .1-.1.2z" fill="#015484"/><path d="m84 100.1c-.1.1-.2.1-.3.1s-.2 0-.2-.1l-2.4-3.5c-.1-.1-.1-.2-.1-.3s.1-.1.2-.2.2-.1.3-.1.2 0 .2.1l.4.6 2.1-1.4c1-.7 1.8-.8 2.2-.1l1.3 1.9c.1.1.1.2.1.3s-.1.2-.2.2c-.1.1-.2.1-.3.1s-.2 0-.2-.1l-1.3-1.9c-.1-.1-.2-.2-.4-.1-.2 0-.4.1-.7.3l-2.1 1.4 1.6 2.3c.1.1.1.2.1.3-.1.1-.2.1-.3.2z" fill="#015484"/><path d="m90.1 95.5c-.9.8-1.7 1-2.2.4l-.2-.3c-.5-.6-.3-1.3.6-2.1l2.1-1.9c-.1-.1-.2-.1-.4-.1s-.4.2-.7.5l-.5.4c-.1.1-.1.1-.2.1s-.1-.1-.2-.2-.1-.2-.1-.2c0-.1 0-.1.1-.2l.5-.4c.9-.8 1.7-1 2.2-.4l1 1.1c.5.6.3 1.3-.6 2.1zm.9-1.6c.3-.2.4-.5.5-.6.1-.2 0-.3 0-.4l-.6-.6-2.1 1.9c-.3.2-.4.5-.5.6-.1.2 0 .3 0 .4l.3.3c.1.1.2.1.4.1s.4-.2.7-.4z" fill="#015484"/><path d="m90.1 89.5c-.1-.1-.1-.2-.1-.3s.1-.2.2-.4c.1-.1.2-.2.3-.2s.2 0 .3.1.1.2.1.3-.1.2-.2.4c-.1.1-.2.2-.3.2s-.2 0-.3-.1zm3.6 2.2c.1.1.1.2.1.3s-.1.2-.2.3-.2.2-.3.2-.2 0-.3-.1l-2.3-2.2c-.1-.1-.1-.2-.1-.2 0-.1.1-.2.2-.3s.2-.2.3-.2.2 0 .3.1z" fill="#015484"/><path d="m92.4 89.6c-.2-.2-.3-.5-.3-.8s.2-.7.5-1.1l.6-.7c.1-.1.1-.1.2-.1s.1.1.2.1l.2.2c0 .1 0 .1-.1.2l-.6.7c-.2.2-.3.4-.3.5s0 .2.1.3l.1.1c.1.1.2.1.3 0s .3-.2.4-.4l.9-1.1c.4-.5.7-.8 1.1-.9.3-.1.6 0 .8.2l.2.1c.1.1.2.2.3.4.1.1.1.3 0 .5 0 .2-.1.4-.2.6s-.3.4-.5.7l-1.7 2.1c-.1.1-.1.1-.2.1s-.1-.1-.2-.1c-.1-.1-.1-.1-.2-.2 0-.1 0-.1.1-.2l1.8-2.2c.1-.1.2-.3.3-.4s.1-.2.1-.3 0-.1 0-.2c0 0 0-.1-.1-.1l-.2-.2-.1-.1s-.1 0-.2 0-.1.1-.2.2-.2.2-.3.3l-.9 1.1c-.3.4-.7.7-1 .8s-.6 0-.8-.1z" fill="#015484"/><g fill="#e6b03c"><path d="m10.2 77.5-1.9-4.8 1-.4.7 1.8 2.9-1.1.5 1.3-2.9 1.1.7 1.8z" stroke="#000" stroke-miterlimit="10" stroke-width=".15"/><path d="m8.2 72.1-.3-1.1 1.6-.5c-.2 0-.4-.1-.5-.3s-.2-.4-.3-.8c-.1-.3-.1-.6-.1-.8s.1-.4.1-.6c.1-.2.2-.3.4-.4s.4-.2.7-.3l1.4-.4.3 1.1-1.4.4c-.2 0-.3.1-.4.1s-.1.3-.1.3c-.1.1-.1.4 0 .8s.2.6.4.7c.1 0 .2.1.3.1s.3 0 .5-.1l1.2-.3.3 1.1z" stroke="#000" stroke-miterlimit="10" stroke-width=".15"/><path d="m9.7 64-.2-1.1c.3 0 .6 0 .7.2.1.1.3.3.4.6s.2.6.3 1.2c.1.4.1.8.1 1s0 .4-.1.6-.2.3-.4.4-.4.2-.8.2c-.3 0-.5.1-.6.1s-.3 0-.4 0c-.3-.1-.4-.3-.6-.6-.1-.3-.2-.7-.3-1.2s-.1-.8-.1-1.1c0-.4.1-.6.3-.8s.5-.3 1-.4h.3l.5 2.9c.2 0 .3-.1.3-.1.1 0 .1-.1.1-.1.1-.1.1-.4 0-.8 0-.2-.1-.4-.1-.6 0-.1-.1-.2-.1-.2-.1-.2-.2-.2-.3-.2zm-.9.2c-.1 0-.2 0-.2.1 0 0-.1 0-.1.1-.1.1-.1.4 0 .8s.1.6.2.7.2.1.4.1z" stroke="#000" stroke-miterlimit="10" stroke-width=".15"/><path d="m8.8 61v-1.3c.2 0 .3-.1.4-.1 0-.1.1-.1.1-.2s0-.4 0-.9 0-.9 0-1 0-.2-.1-.3c0-.1-.2-.1-.3-.1s-.2 0-.3.1c0 .1-.1.2-.1.4v1s0 .9 0 1c0 .3 0 .6-.1.7 0 .2-.1.3-.2.4-.2.2-.5.3-.9.3-.5 0-.8-.1-1-.2s-.3-.3-.3-.6c-.1-.3-.1-.9-.1-1.8 0-.6 0-1.1 0-1.3 0-.4.1-.7.3-.8s.4-.2.8-.2h.2v1.3c-.1 0-.2 0-.2 0s-.1 0-.1.1 0 .2-.1.3v.9s0 .9.1 1c0 .1.1.2.3.2.1 0 .2-.1.3-.2 0-.1 0-.6 0-1.4 0-.7 0-1.1 0-1.4 0-.2.1-.4.1-.6.1-.2.2-.3.4-.3.2-.1.4-.1.7-.1.4 0 .7 0 .9.1.1.1.3.2.3.3.1.1.1.3.2.6 0 .3.1.8.1 1.6v1.4s-.1.5-.2.7-.2.3-.3.3c-.1.1-.4.1-.7.1z" stroke="#000" stroke-miterlimit="10" stroke-width=".15"/><path d="m8.7 51.3.1-1.3h.4c.3 0 .6.1.8.2s.3.3.4.7v1.6c-.1.8-.1 1.4-.2 1.7s-.1.6-.2.8c-.1.1-.2.3-.4.3-.1.1-.3.1-.6.1-.2 0-.5 0-1-.1-.5 0-.8-.1-1.1-.1-.2 0-.4-.1-.5-.1-.3-.1-.4-.4-.5-.8 0-.4 0-1.1.1-2.2 0-.5.1-.9.1-1.2 0-.2.1-.4.2-.6s.3-.3.4-.4c.2-.1.5-.1.8-.1h.2l-.1 1.3c-.1 0-.2 0-.3 0 0 0-.1 0-.1.1 0 0-.1.2-.1.4s-.1.5-.1.9 0 .7 0 .8c0 .2 0 .3.1.3.1.1.2.1.3.2.1 0 .4.1.7.1h.7c.1 0 .2-.1.3-.1.1-.1.1-.2.1-.3 0-.2.1-.4.1-.8 0-.5.1-.8.1-1s0-.3-.1-.3-.3-.1-.6-.1z" stroke="#000" stroke-miterlimit="10" stroke-width=".15"/><path d="m6.9 46.1c.2-.9.3-1.5.5-1.8.2-.5.5-.7.9-.7.3 0 .8 0 1.4.2.6.1 1.1.3 1.4.4.4.2.5.5.5 1 0 .3-.1 1-.3 1.9s-.3 1.5-.5 1.8c-.2.5-.5.7-.9.7-.3 0-.8 0-1.4-.2-.6-.1-1.1-.3-1.3-.4-.4-.2-.5-.5-.5-1-.1-.4 0-1 .2-1.9zm1.1.2c-.2.7-.2 1.1-.2 1.3s.1.3.2.4.4.2.8.3c.3.1.4.1.6.1s.4-.1.5-.4c.1-.2.2-.5.3-1.1.1-.5.2-.8.2-1s0-.3 0-.4-.1-.2-.2-.2-.3-.1-.5-.2c-.3-.1-.5-.1-.7-.1-.1 0-.3 0-.3 0-.1 0-.2.1-.2.3-.3.1-.4.5-.5 1z" stroke="#000" stroke-miterlimit="10" stroke-width=".15"/><path d="m7.8 42.6 1.7-4.9 1 .3-.7 1.9 3 1-.4 1.3-3-1-.6 1.8z" stroke="#000" stroke-miterlimit="10" stroke-width=".15"/><path d="m12.2 38.4.5-1.1c.2.1.3.1.4.1s.1-.1.2-.2.2-.4.4-.8c.2-.5.4-.8.4-.9s.1-.2.1-.3-.1-.2-.2-.3-.2-.1-.3 0c-.1 0-.1.2-.2.3s-.2.4-.5.9c-.2.5-.4.8-.5.9-.1.3-.3.5-.4.6s-.2.2-.4.3-.5 0-.9-.2-.7-.4-.8-.7c-.1-.2-.1-.4 0-.7s.3-.8.7-1.6c.3-.6.5-1 .6-1.2.2-.3.4-.5.6-.6s.5 0 .8.2c0 0 .1 0 .2.1l-.5 1.1c-.1 0-.2-.1-.2-.1h-.1c-.1 0-.1.1-.2.2s-.2.4-.4.8c-.2.5-.4.8-.4.9s0 .2.2.3c.1.1.2 0 .3 0 .1-.1.3-.5.7-1.2.3-.6.5-1 .7-1.2s.3-.3.4-.4c.2-.1.3-.1.5-.1s.4.1.7.2c.4.2.6.3.7.5.1.1.1.3.1.4 0 .2 0 .4-.1.6-.1.3-.3.7-.6 1.4-.3.6-.5 1-.7 1.3s-.3.4-.5.5-.3.2-.5.1c-.2 0-.4-.1-.7-.2z" stroke="#000" stroke-miterlimit="10" stroke-width=".15"/><path d="m16.1 29.2 1.7-2.4c.1 0 .1.1.1.1.5.3.9.6 1.1.8.4.3.5.7.3 1.2-.1.2-.2.4-.3.7-.1.2-.4.6-.7 1.1-.4.6-.7 1-.9 1.2s-.4.4-.6.5c-.1.1-.3.1-.4.1s-.3-.1-.5-.2-.5-.3-1-.6c-.3-.2-.6-.4-.7-.5-.2-.1-.3-.3-.4-.4-.2-.3-.2-.6-.1-1 .2-.4.5-1 1-1.7.3-.4.6-.8.7-1 .2-.2.4-.4.5-.6.3-.2.6-.3.9-.1.2.1.4.2.6.3l-.6.9c-.1-.1-.2-.1-.2-.1h-.1c-.1 0-.2.1-.3.3s-.3.4-.5.8c-.3.4-.4.6-.5.8s-.1.3-.1.4.1.2.2.3.3.2.5.4c.3.2.5.3.6.4s.2.1.3.1.2-.1.2-.2c.1-.1.3-.4.6-.9s.5-.8.6-.9.1-.2.1-.3 0-.1 0-.2-.1-.1-.2-.2c0 0 0 0-.1-.1l-1 1.4z" stroke="#000" stroke-miterlimit="10" stroke-width=".15"/><path d="m16.8 25 .9-1 1.5 1.3c.3.3.6.5.7.5.1.1.3.1.5 0s .4-.4.8-.8c.3-.3.5-.6.6-.7s.1-.3.1-.4 0-.1-.1-.2c0-.1-.1-.2-.3-.3-.1-.1-.2-.2-.3-.3l-1.6-1.3.9-1 1.5 1.3c.5.5.8.8 1 .9.2.3.3.6.2.9 0 .2-.1.4-.3.6s-.5.6-.9 1.1c-.3.4-.6.7-.8.9s-.4.4-.6.5c-.4.3-.8.3-1.1 0-.1-.1-.3-.2-.4-.3s-.3-.3-.7-.6z" stroke="#000" stroke-miterlimit="10" stroke-width=".15"/><path d="m27.4 20.4-.7-.3-2.1 1.8.2.8-1.1 1-1.1-4.7 1.5-1.3 4.5 1.7zm-1.7-.7-1.7-.7-.2.2.4 1.7z" stroke="#000" stroke-miterlimit="10" stroke-width=".15"/><path d="m28.6 19.4-2.4-3.5 2.6-1.7c.6-.4 1-.6 1.1-.7s.3-.1.4-.1c.2 0 .4 0 .5.1s.3.3.5.6.3.5.3.6.1.3 0 .4c0 .1-.1.3-.3.4.2-.1.4-.2.6-.1.1 0 .2.1.3.2s.2.3.4.6l.2.3-1.1.7.1-.2c-.1-.2-.2-.3-.3-.4s-.1-.1-.2-.1-.1 0-.2 0-.2.1-.4.3l-1.5 1 .6.9zm-.1-2.5 1.5-1c .3-.2.4-.3.5-.3l.1-.1c0-.1 0-.1 0-.2s-.1-.2-.1-.3c-.1-.1-.1-.2-.2-.2s-.1-.1-.2 0c0 0-.1 0-.2.1-.1 0-.2.1-.5.3l-1.5 1z" stroke="#000" stroke-miterlimit="10" stroke-width=".15"/><path d="m33.3 16.3-1.9-3.8 2.7-1.4c.5-.2.8-.4 1-.5s.3-.1.5-.2c.4-.1.8 0 1.1.3.1.1.2.2.3.4.1.1.2.4.4.7s.3.6.4.8.1.4.1.5c.1.4-.1.7-.4 1-.1.1-.3.2-.5.3s-.5.3-.9.5zm.6-1.5 1.6-.8c.3-.1.5-.3.6-.4s.2-.2.2-.3 0-.2 0-.3-.1-.3-.2-.5-.2-.4-.3-.5-.2-.2-.3-.2-.2 0-.3 0-.4.2-.7.3l-1.6.8z" stroke="#000" stroke-miterlimit="10" stroke-width=".15"/><path d="m38 12.4 1.2-.4c.1.2.2.3.3.3s.2 0 .3 0 .4-.1.9-.3.8-.3.9-.3.2-.1.2-.1c.1-.1.1-.2 0-.3 0-.1-.1-.2-.2-.2s-.2 0-.4.1c-.1.1-.5.2-1 .3-.5.2-.8.3-1 .3-.3.1-.5.1-.7.2-.2 0-.3 0-.4-.1-.2-.1-.4-.4-.5-.8-.2-.5-.2-.8-.1-1s .2-.4.5-.5.8-.4 1.6-.7c.6-.2 1-.3 1.3-.4.4-.1.7-.1.9 0s .4.3.5.7c0 0 0 .1.1.2l-1.2.4c0-.1-.1-.2-.1-.2l-.1-.1c-.1 0-.2 0-.3 0s-.4.1-.8.3c-.5.2-.8.3-.9.4s-.1.2-.1.3c.1.1.1.2.3.2.1 0 .5-.1 1.3-.4.7-.2 1.1-.3 1.3-.4s.4-.1.6 0c .2 0 .3.1.4.3s.2.3.3.6c.1.4.2.7.1.9 0 .2-.1.3-.2.4s-.3.2-.5.3c-.3.1-.7.3-1.5.6-.6.2-1.1.4-1.3.4-.3.1-.5.1-.7.1s-.3-.1-.4-.2-.2-.3-.3-.6z" stroke="#000" stroke-miterlimit="10" stroke-width=".15"/><path d="m43.6 10.6 1.3-.4.3 1.2c.1.3.1.4.1.6v.3c-.1.1-.1.2-.3.3s-.4.1-.7.2c-.1 0-.2.1-.3.1l-.2-.6h.1.1c.1 0 .2-.1.2-.1 0-.1 0-.2 0-.3v-.1l-.3.1z" stroke="#000" stroke-miterlimit="10" stroke-width=".15"/><path d="m51.8 7.2-1.2.2c0-.1-.1-.2-.1-.2h-.1s-.2 0-.3 0c-.3 0-.5.1-.7.1-.6.1-.9.2-1.1.3-.1 0-.1.1-.1.2s0 .2 0 .5v.2c.1-.2.3-.3.5-.4s.6-.2 1.1-.2c.8-.1 1.4-.1 1.7 0s .5.5.5 1.1c.1.4.1.7 0 .9s-.2.3-.3.4-.3.2-.6.2c-.3.1-.8.2-1.6.3-.5 0-1 0-1.3 0-.4 0-.7-.2-.9-.6-.1-.1-.1-.3-.1-.5s-.1-.5-.2-1c-.1-.4-.1-.6-.1-.8s0-.3 0-.4c0-.3.2-.6.4-.7.3-.2 1-.4 2-.5.8-.1 1.4-.2 1.7-.1.4 0 .6.2.7.5.1.1.1.3.1.5zm-2.4 1.6c-.5.1-.8.1-.8.2-.1.1-.2.2-.2.4 0 .1 0 .2.1.3 0 .1.1.1.2.1s.4 0 .8-.1c.5-.1.9-.1 1.1-.2.1 0 .2-.1.2-.1 0-.1 0-.2 0-.3s-.1-.2-.1-.3c-.1-.1-.1-.1-.2-.1-.2 0-.6.1-1.1.1z" stroke="#000" stroke-miterlimit="10" stroke-width=".15"/><path d="m53 6.5 1.1-.1v.7l1.8-.1v.8l-1.8.1v.9c0 .2 0 .4.1.4.1.1.2.1.4.1s.4-.1.4-.2v-.1s0-.1 0-.3h1v .6s-.1.3-.2.4-.3.3-.5.3c-.2.1-.5.1-.9.1s-.6 0-.8 0-.3-.1-.4-.2-.1-.2-.2-.3c0-.1-.1-.2-.1-.4 0-.1 0-.2 0-.5v-.9h-.6v-.8h.6z" stroke="#000" stroke-miterlimit="10" stroke-width=".15"/><path d="m56.6 5.8h1.1l-.1 1.7c.1-.2.3-.3.5-.4s.5-.1.8-.1.6.1.8.1c.2.1.4.2.5.3s.2.3.2.5.1.4 0 .8l-.1 1.5h-1.1l.1-1.5c0-.2 0-.3 0-.4s0-.2-.1-.2c-.1-.1-.3-.2-.7-.2s-.7 0-.8.2c-.1.1-.1.1-.1.3 0 .1 0 .3-.1.5l-.1 1.3h-1.1z" stroke="#000" stroke-miterlimit="10" stroke-width=".15"/><path d="m66.8 9.5 1.3.2c0 .2-.1.3-.1.4-.1.3-.2.6-.3.7-.1.2-.4.3-.7.3s-.9 0-1.6-.2c-.8-.1-1.4-.3-1.7-.4s-.6-.2-.7-.3-.2-.2-.3-.4c-.1-.1-.1-.3 0-.6 0-.2.1-.5.2-1s .2-.8.2-1c .1-.2.1-.4.2-.5.2-.2.4-.4.8-.4s1.1.1 2.2.3c.5.1.9.2 1.2.3s.4.2.6.2c.2.1.3.3.3.5s0 .5 0 .8v.2l-1.3-.2c0-.1 0-.2 0-.3v-.1c0-.1-.2-.1-.4-.2s-.5-.1-.9-.2-.7-.1-.8-.1c-.2 0-.3 0-.3 0-.1 0-.2.1-.2.3-.1.1-.1.4-.2.7s-.1.5-.1.7 0 .2.1.3.2.1.3.2c.2 0 .4.1.8.2.5.1.8.1 1 .2h.3c0-.2.1-.3.1-.6z" stroke="#000" stroke-miterlimit="10" stroke-width=".15"/><path d="m69.8 9.8-1.1-.3c.1-.2.2-.4.3-.5.2-.1.4-.2.7-.2s.8.1 1.4.3c.5.1.8.3 1 .3.2.1.3.2.4.4.1.1.1.3.1.4s0 .3-.1.6l-.5 1.7-1-.3.1-.4h-.1c-.1.1-.3.2-.5.3-.1 0-.2 0-.4 0s-.4-.1-.8-.2c-.3-.1-.5-.2-.7-.3-.1-.1-.3-.2-.3-.3-.1-.2-.1-.4 0-.7s.3-.6.5-.7.4-.1.6-.1.6.1 1.2.3c.2.1.4.1.5.2s.2.2.2.3v-.2c.1-.2.1-.4 0-.5s-.3-.2-.6-.3c-.4-.1-.6-.2-.7-.2-.1.2-.2.3-.2.4zm.5 1c-.4-.1-.6-.2-.7-.1-.1 0-.2.1-.2.2s0 .2.1.3.3.2.6.2c.4.1.6.2.8.2.1 0 .2-.1.3-.2 0-.1 0-.2-.1-.3-.2-.1-.4-.2-.8-.3z" stroke="#000" stroke-miterlimit="10" stroke-width=".15"/><path d="m73.8 8.8 1.1.4-1.5 4-1.1-.4z" stroke="#000" stroke-miterlimit="10" stroke-width=".15"/><path d="m76.8 13.6 1 .5c-.2.3-.3.5-.6.5-.2.1-.4.1-.7 0s-.6-.2-1.1-.4c-.4-.2-.7-.3-.9-.5-.2-.1-.3-.3-.4-.4-.1-.2-.1-.3-.1-.5s.1-.5.3-.8c.1-.3.2-.5.3-.6s.2-.2.3-.3c.2-.2.5-.2.8-.2.3.1.7.2 1.2.4s.8.4.9.5c.3.2.5.4.5.7 0 .2 0 .6-.2 1.1 0 0-.1.1-.1.3l-2.7-1.2c-.1.1-.1.2-.1.3v.2c.1.1.3.3.6.4.2.1.4.2.5.2h.3c.1-.1.1-.2.2-.2zm.3-.9c0-.1.1-.2.1-.2v-.1c0-.1-.3-.3-.7-.5-.3-.2-.6-.2-.7-.2s-.3.1-.3.3z" stroke="#000" stroke-miterlimit="10" stroke-width=".15"/><path d="m83.4 13.4-2.1 3.7-.9-.5.2-.3h-.1c-.1.1-.3.1-.4.1-.2 0-.6-.1-1-.4-.4-.2-.6-.4-.8-.5s-.3-.3-.3-.5c-.1-.2-.1-.3 0-.5 0-.2.2-.4.3-.8.1-.2.2-.4.3-.5s.2-.2.3-.3c.2-.1.5-.2.8-.1.2.1.5.2.9.4.3.2.6.4.7.5s.2.3.2.5l.8-1.4zm-2.8.7c-.4-.2-.6-.3-.8-.3s-.3.1-.4.4c-.1.2-.2.3-.2.4s0 .2.1.3.3.3.6.4c.4.2.6.3.8.3.1 0 .2 0 .2-.1.1-.1.1-.2.2-.3.1-.2.2-.3.2-.4s0-.2-.1-.3-.3-.2-.6-.4z" stroke="#000" stroke-miterlimit="10" stroke-width=".15"/><path d="m85.1 16c .4.3.7.5.9.7s.3.4.4.5c.1.2.1.3 0 .5s-.2.4-.4.7c-.2.2-.3.4-.4.5s-.2.2-.3.3c-.3.2-.5.2-.8.1s-.7-.3-1.2-.7c-.5-.3-.8-.6-1-.7-.2-.2-.3-.4-.3-.5 0-.2 0-.3 0-.5.1-.2.2-.4.5-.8.1-.2.3-.4.3-.4.1-.1.2-.2.3-.2.2-.1.5-.1.7 0 .4-.2.8.1 1.3.5zm-.5.7c-.3-.2-.5-.3-.7-.4-.1 0-.2 0-.3.1s-.2.2-.3.3c-.1.2-.2.3-.2.4s0 .2 0 .3c.1.1.3.3.6.5.4.2.6.4.7.4s.3-.1.5-.4c.1-.2.2-.3.2-.4s0-.2-.1-.3c.1-.2-.1-.3-.4-.5z" stroke="#000" stroke-miterlimit="10" stroke-width=".15"/><path d="m87.3 17.6.8.7-.3.4c.2-.1.4-.1.6 0s .4.2.7.4.5.4.6.6.2.4.2.6 0 .4-.1.5c-.1.2-.3.4-.5.7l-.9 1-.9-.7.9-1c .2-.2.3-.3.3-.4s.1-.2.1-.2c0-.2-.2-.4-.5-.6-.3-.3-.5-.4-.7-.4-.1 0-.2 0-.3.1s-.2.2-.4.4l-.8.9-.9-.7z" stroke="#000" stroke-miterlimit="10" stroke-width=".15"/><path d="m90.9 20.8.8.8-2.1 2.2-.8-.8zm.8-.9.8.8-.6.6-.8-.8z" stroke="#000" stroke-miterlimit="10" stroke-width=".15"/><path d="m92.2 23.5-.8-.8c.2-.1.3-.2.5-.2s.5 0 .7.2.6.5 1 1c .3.4.5.6.6.8s.1.3.1.5c0 .1-.1.3-.1.4-.1.1-.2.3-.4.5l-1.3 1.2-.7-.8.3-.3c-.2.1-.4 0-.5 0s-.2-.1-.3-.2-.3-.3-.6-.6c-.2-.2-.3-.4-.4-.6-.1-.1-.1-.3-.1-.4 0-.2.1-.4.4-.6s.5-.3.7-.3.4.1.5.2c.2.1.5.4.9.9.2.2.3.3.3.4.1.1.1.2.1.3l.1-.1c.2-.2.3-.3.2-.4 0-.1-.1-.3-.4-.5-.3-.3-.4-.5-.5-.5-.1-.2-.2-.2-.3-.1zm-.1 1c-.3-.3-.4-.4-.5-.5-.1 0-.2 0-.3 0-.1.1-.1.2-.1.3s.2.3.4.5c.3.3.5.5.6.5.1.1.2.1.3 0s .1-.2.1-.3c0 .1-.2-.1-.5-.5z" stroke="#000" stroke-miterlimit="10" stroke-width=".15"/><path d="m95.2 25.4.6.9-.4.3c.2 0 .4 0 .6.1s.4.3.6.6.4.5.4.7c.1.2.1.4.1.6s-.1.4-.2.5-.3.3-.7.6l-1.1.8-.7-.9 1.1-.8c.2-.1.3-.3.4-.3.1-.1.1-.1.1-.2 0-.2-.1-.4-.3-.7s-.4-.5-.6-.5c-.1 0-.2 0-.3.1-.1 0-.3.2-.5.3l-1 .7-.7-.9z" stroke="#000" stroke-miterlimit="10" stroke-width=".15"/><path d="m100 30.1.7 1.2-3.6 2.2-.7-1.2z" stroke="#000" stroke-miterlimit="10" stroke-width=".15"/><path d="m100 32.5.5.9-.4.2v.1c.2 0 .4.1.6.2s.3.4.5.7.3.6.3.8 0 .4 0 .6c-.1.2-.2.3-.3.5-.1.1-.4.3-.8.5l-1.2.6-.5-1 1.2-.6c.2-.1.4-.2.4-.2.1-.1.1-.1.1-.2s0-.4-.2-.7-.4-.5-.5-.6c-.1 0-.2 0-.3 0s-.3.1-.5.2l-1.1.3-.5-1z" stroke="#000" stroke-miterlimit="10" stroke-width=".15"/><path d="m101.2 36.8.7-.3.2.5c.3-.1.5-.2.6-.2s.3 0 .4.1c.2.1.3.2.4.3.1.2.2.4.4.7.1.2.1.3.2.5l-.7.3c-.1-.1-.1-.2-.1-.3-.1-.3-.2-.5-.4-.5 0 0-.1 0-.2 0s-.1 0-.3.1l.4 1-.7.3-.4-1-2 .8-.4-1 2-.8z" stroke="#000" stroke-miterlimit="10" stroke-width=".15"/><path d="m102.7 40.8-.3-1.1c.2-.1.4-.1.6 0s .4.2.6.5c.2.2.3.7.5 1.3.2.5.2.8.3 1 0 .2 0 .4-.1.5s-.2.2-.3.3-.3.2-.6.2l-1.7.6-.3-1 .4-.1c-.2 0-.4-.1-.5-.3-.1-.1-.1-.2-.2-.4s-.2-.4-.3-.8c-.1-.3-.1-.5-.2-.7 0-.2 0-.3.1-.4.1-.2.3-.3.6-.4s.6-.1.8 0 .3.2.4.4.3.6.4 1.2c.1.2.1.4.1.5s0 .2-.1.3h.2c.2-.1.4-.2.4-.3s0-.3-.1-.6c-.1-.4-.2-.6-.3-.7-.2 0-.3 0-.4 0zm-.6 1c-.1-.4-.2-.6-.3-.6-.1-.1-.2-.1-.3-.1s-.2.1-.2.2 0 .3.1.6c.1.4.2.6.3.7s.2.2.3.1c.1 0 .2-.1.2-.3.1 0 .1-.2-.1-.6z" stroke="#000" stroke-miterlimit="10" stroke-width=".15"/><path d="m104.6 43.9.2 1-.4.1v.1c.2.1.4.2.5.3s.2.4.3.8.1.6.1.8-.1.4-.2.6-.2.3-.4.4-.4.2-.8.3l-1.3.3-.2-1.1 1.3-.3c.2-.1.4-.1.5-.1s.1-.1.2-.2.1-.4 0-.8-.2-.6-.4-.7c-.1 0-.2-.1-.3-.1s-.3 0-.6.1l-1.2.3-.2-1.1z" stroke="#000" stroke-miterlimit="10" stroke-width=".15"/><path d="m106.3 48.8.1 1.1-.7.1.2 1.8-.8.1-.2-1.8-.9.1c-.2 0-.4.1-.4.1-.1.1-.1.2-.1.4s.1.3.2.4h.1.3l.1 1c-.3 0-.5 0-.6 0s-.3-.1-.4-.1c-.2-.1-.3-.2-.4-.4s-.1-.5-.2-.9c0-.4-.1-.6 0-.8 0-.2.1-.3.2-.5.1-.1.1-.2.2-.2s.2-.1.4-.1c.1 0 .2 0 .5-.1l.9-.1-.1-.6.8-.1.1.6z" stroke="#000" stroke-miterlimit="10" stroke-width=".15"/><path d="m106.1 52.3.1 1.1h-.5v.1c.2.1.3.2.4.4s.1.4.2.7c0 .5 0 .8-.2 1s-.5.3-.9.3c0 0-.1 0-.2 0l-.1-1.1c.2 0 .3 0 .4-.1s.2-.3.2-.5c0-.3-.1-.5-.2-.6s-.2-.1-.3-.1-.3 0-.5 0l-1.2.1-.1-1.1z" stroke="#000" stroke-miterlimit="10" stroke-width=".15"/><path d="m106.3 56v1.2l-2.2.8 2.2 1v1.2l-3.4-1.7c-.3-.2-.5-.3-.6-.3-.1-.1-.1-.1-.2-.2-.1-.2-.1-.5-.1-.8 0-.2 0-.4 0-.5h.8v.3c0 .2 0 .3.1.4s.2.2.4.3v-.5z" stroke="#000" stroke-miterlimit="10" stroke-width=".15"/><path d="m103 61.9 4.2.7-.5 3.1c-.1.7-.2 1.2-.2 1.3s-.1.3-.2.4-.3.2-.5.3c-.2 0-.4 0-.8 0-.3 0-.5-.1-.7-.2s-.2-.2-.3-.3-.1-.3-.1-.5c-.1.3-.2.4-.3.5s-.2.1-.3.1-.4 0-.7-.1l-.4-.1.2-1.3h.2c.2 0 .4.1.5.1s.2 0 .2-.1c.1 0 .1-.1.1-.2s.1-.3.1-.5l.3-1.8-1.1-.2zm1.9 1.6-.3 1.8c0 .3-.1.5-.1.6v.2c0 .1.1.1.1.1.1 0 .2.1.3.1s.2 0 .3 0 .1-.1.2-.1c0 0 0-.1.1-.2s0-.2.1-.5l.3-1.8z" stroke="#000" stroke-miterlimit="10" stroke-width=".15"/><path d="m102.2 70.4-.3 1.1c-.3-.1-.5-.3-.6-.5s-.1-.4-.1-.7.1-.7.3-1.2c.1-.4.2-.7.3-1 .1-.2.2-.4.4-.5.1-.1.3-.2.5-.2s.5 0 .8.2c.3.1.5.1.6.2s.2.1.3.2c.2.2.3.4.3.8 0 .3-.1.7-.3 1.2-.1.5-.2.8-.3 1-.2.3-.4.5-.6.6s-.6 0-1.1-.1c0 0-.1 0-.3-.1l.8-2.8c-.1 0-.3-.1-.3-.1-.1 0-.1 0-.2.1s-.2.3-.3.7c-.1.2-.1.4-.1.6v.3c0 .1.1.2.2.2zm.9.3h.2.1c.1-.1.2-.3.4-.7.1-.4.1-.6.1-.8 0-.1-.1-.2-.3-.3z" stroke="#000" stroke-miterlimit="10" stroke-width=".15"/><path d="m102.5 75.5-.4 1-2.6-1c-.2-.1-.4-.2-.5-.2s-.2-.1-.3-.2-.2-.2-.3-.4-.1-.3-.1-.5c0-.3.1-.8.4-1.4.2-.4.3-.8.5-1 .1-.2.3-.3.4-.4.2-.1.5-.1.8 0l-.4 1.1c-.1 0-.2 0-.3.1s-.2.3-.3.5c-.1.3-.2.5-.2.6v.3c0 .1.1.1.2.2.1 0 .2.1.4.2l.2.1c-.1-.2-.2-.4-.2-.5 0-.2.1-.5.2-.8.1-.4.3-.6.4-.8s.2-.3.4-.4.3-.2.5-.1c.2 0 .5.1.8.2.4.2.7.3.9.5.1.2.2.4.2.7s-.1.6-.3 1.1c-.1.4-.3.6-.4.8-.1.1-.3.2-.5.3zm-.3-1.2c.2-.4.2-.7.2-.8s-.1-.2-.1-.2c-.1-.1-.2-.1-.3-.2-.2-.1-.3-.1-.4-.1s-.2.1-.3.2-.2.3-.3.6c-.2.4-.2.7-.2.8s.1.1.1.2c.1.1.2.1.3.2.2.1.3.1.4.1s.2 0 .2-.1c.1-.1.3-.4.4-.7z" stroke="#000" stroke-miterlimit="10" stroke-width=".15"/><path d="m100.1 76.4-.6 1.2-1-.5.6-1.2z" stroke="#000" stroke-miterlimit="10" stroke-width=".15"/></g></svg>