<svg enable-background="new 0 0 566.9 566.9" viewBox="0 0 566.9 566.9" xmlns="http://www.w3.org/2000/svg"><path d="m75.3 468.7c-17.4-18.3-30.9-39.3-42.1-61.8-52.7-106.8-32.2-235.5 52.1-319.9 58.4-58.5 129.7-86 212.2-82.4 131.4 5.7 241.3 104.8 261.7 234.7 23.4 148.4-73.4 288.3-220.5 317.7-74.1 14.8-143.4 1-207.3-39.5-1.6-1-3-2.2-4.5-3.3-7.4-7.1-8.3-9-9.6-13.8-3.3-4.7-11.4-.4-13.4-7.6.1-1.9 1.2-3.7 2.8-4.6 3.9.2 5.9 5.5 10.4 4.8.5.1 1 .3 1.5.6.9.7 1.5 1.9 2.8 2.2.5.1.9.3 1.3.6s.7.7.9 1.1c.1.2.2.4.2.6.2.9 1 1.4 1.9 1.3.5 0 .9.1 1.3.3s.8.4 1.2.7c.2.1.4.3.6.4.8.4 1.7.7 2.6.8.5 0 1 .1 1.5.2 1 .2 2 .1 2.6 1.1-2 3.3-2 3.3-7.4 1.8-.5 0-.7-.8-1.5-.6.5.2 1 .1 1.2.5 2.9 1.2 6.2 1.6 8.3 4.2.5.2.9.4 1.4.6 1.8.8 3.7 0 5.5-.1 4.4 1 7.7 4 11.5 6 11.7 6.3 23.8 11.7 36.3 16.3 6.1 2.3 12.1 5 18.5 6.1.7.2 1.3.4 1.9.6 25.3 6.8 50.9 10.8 77.2 10 12 .3 23.7-1.6 35.5-3 16.1-2.9 32.2-6.2 47.5-12.3 16.4-5.3 31.9-12.8 46.8-21.5 1.7-1.2 3.6-2.1 5.5-2.8.8-.2 1.5-.5 2.2-1 .9-1.6-1.8-2.2-.8-4.2 2.1-1.9 5.7-.4 8.2-2.3 7.8-3.6 14.2-9.4 20.8-14.8 14.5-11.8 27.5-25.4 38.7-40.4 1-1.3 2.2-2.5 3.5-3.5 3-2 3.5-5.1 3.3-8.4 1.3-1.4 3.6-1.4 4.3-3.3 9.9-16.1 19.3-32.4 25.9-50.2.6-2 1.6-3.8 2.8-5.5 1.5-1.8 2.7-3.9 2.4-6.2-.5-3.9 1-7.2 2.4-10.6 4.8-15 7.1-30.6 9.8-46 2.2-3.7-2.6-5-2.8-7.9.1-.5.3-1 .8-1.4.8-.2 1.5-.5 2.2-.9.4-.9.6-1.9.6-2.9.8-14.7 1.1-29.4-1.3-44.9-7.8 5.5-13 13.1-20.1 18.6-1.6.9-2.7 2.4-4.3 3.1-2.5.3-4.1-1.5-5.8-2.8-9.2-8.1-17.3-17.2-26.5-26 1 10.4 1.9 20.4 6.4 29.7 1.2 4-3.8 5.7-3.4 9.4.4 10.2-1.8 20.3-1.2 30.5-.7 5.7-5.6 10-5.5 16-1.8 15.1-7.9 28.6-14.8 41.9-1.3 1.4-2.4 2.8-2.4 4.8-.1 1.3-.4 2.7-.8 3.9-4.1 10.4-2.2 21.3-2.7 32-.1 3 .9 6.4-2.6 8.3-2.6-1.6-2-4.4-2.1-6.8-.2-7.5.1-15-.1-22.4-1-.4-.7.7-1 1-10 16.5-22.6 30.9-37 43.6-4.4 4.1-9.1 8-13.9 11.6-1.7 1.3-2.2 3.4-3.6 5.1-2.8.7-6.2 0-8.4 2.8-15.6 11.4-33.1 18.9-51.3 24.7-2.6.5-5.2 1.2-7.6 2.2-.5.2-1.1.3-1.7.5-3.1.7-6.2 1.3-9.2 2-.6.2-1.1.3-1.7.4-2.7.3-5.2 1-7.9 1.5-.9.1-1.8.2-2.8.2-1.9 0-3.8.3-5.6.9-39 5.1-78.7-1.2-114.3-18-8.3-3.9-16.6-7.8-23.8-13.5-1.6-2.5-3.1.3-5 .1-1.5-2.1-2.1-5.4-5.6-5.7-8.2-9.8-19.3-16.4-27.6-26-8.9-10.4-18.5-20.2-25.2-32.4-.2-1.3-.6-2.5-1-3.7-.2-.4-.4-.8-.6-1.1 0 0-.5-.1-.5-.1s.2.5.2.5c.2 1.5-.3 3-1.4 4-.3 1 1.2.5 1.2 1.3.3.6.5 1.1.7 1.8.3 10.7.6 21.4-.1 32.1-.6 1.1-.8 2.5-.4 3.7.4 2-.4 4-2.2 5.1-11.2-.4-22.5.2-33.7-.9-1.2 1.5-.6 2.6.6 3.7 4.1 3.8 7.6 8.3 10.2 13.3.9 2.3-.2 4.8.6 7.1.1.5 0 1.1-.3 1.6-1.3 1.4-1 3-.6 4.7-.1 1.1-1.1 1.8-2.2 1.7-1.4 0-1.8-1.2-2.8-1.6z" fill="#d93831"/><path d="m118.5 493.3c-2.9 2.3-5.9-1.8-9 .7-.4-2.2 1.4-5.3-2.6-5-.6 1.1-1.4 2.5-2 3.7 2.5 3.3 5.4 4.6 9 2.7l5.7 4.5c-.1 2.9-.3 6 4.3 5.9-2.5 4.2 3 5.1 3.2 8.1-19.4-12.4-36.8-27.7-51.6-45.3l2.7.7c1.3-.2 1.4-1.2 1.5-2.1l.7-.5c3.3-1.9 6.6.2 9.8.1.8 0 1.6.3 2.3.9 8.2 7.8 16.5 15.4 25.1 22.7.7.8 1.1 1.9.9 2.9z" fill="#d93a32"/><g fill="#fff"><path d="m170.8 457.5c22.2 15.5 46.8 24.7 73.2 29.9 21.8 4.3 43.8 4.4 65.8 2.4 1.2.7 2 1.8 2.4 3.1.7 1.9.7 3.9.1 5.8-3.6 2.6-7.9 3-12.4 2.5-2.7-.8-7.2 1-7.7-4.3-1.4.9-2.8 2.7-4.6 3.7-.5 3.2-.9 6 .2 8.9 4.2 2.2 10-.8 13.2 4.3 2.5 4.5 1.5 9.9 3.6 14.6.1 7.6-4.3 12.4-10.4 16.1-6.3.4-12.7 1.2-15.3-6.1-1.8-1.9-4-1.3-5.6-2.4-3.6-4.3-2.8-9.6-3-14.7 0-2 .8-4.2-2-5-4-.6-7.9.7-11.9.2-2.5-.4-4.9-.9-7.2-3.2-.2-5-.4-10.3 3.1-15.1 6.8-1.1 13.2 2.2 19.8.8-14.1.1-27.7-3.6-41.6-5 4.4.4 8.7 1.5 13.1 2 3.4.5 4.9 2.7 4.8 6.2-.1 10-3.3 12.7-13 11.1-.9-.3-1.8-.3-2.7-.1 4 1 8.6.5 12 3.5 1.1 5.6.2 12.4-2.4 18.9-7.9 2.4-15.6-1.9-23.6-1.4-1.6-.1-3.2.1-4.7.7-1.9.9-.8 4.8-4.2 4.1h.1c-1.9-2.3-5.4-1.8-7.4-4.1 0-1.8 1.1-1.8 1.4-1.7-3.9 1.8-8.4.3-13.1-.6-15.2-4.8-29.1-12.1-42.9-20-1.8-1-3.7-1.9-5.5-2.9-1.6-.7-2.2-1.8-1.2-4.1 10.8-4.6 23.2-5.9 34.4-10.5 1-5-.9-9.1-2-13.2-1.8-6.6-3.8-13.2-4.9-20-.5-1.3-3-5.4 2.1-4.4z"/><path d="m344.9 482.5c15.4-5.7 30.7-11.6 44.8-20.4 2.3-1.4 4.4-3.1 6.6-4.6 4.7-1.5 2.9 2.3 2.6 3.7-1 6.1-2.8 12.1-4.4 18.1-1.3 5-3.3 9.8-3.2 15.4 5 3.1 10.6 3.6 15.8 5.3 1.8.7 3.8.9 5.7 1.5 4.5 1.8 9.7 1.9 13.6 4.9.9 2-.2 2.8-1.6 3.5-15.5 8.4-30.9 17-47.6 22.9-1.4.5-2.8.8-4.1 1.2-3.3.5-6.5 1.8-10 1.5-.7-.5-.8-1.5-.4-2.2-.3.4-.7.8-1.2.9-5 .5-9.7-1.8-14.5-1.9-2.7-2.7-5.2-5.6-7.4-8.7-1.7-6.4 3.5-12.6-1.2-18.6 1.8-4.9 6-6.9 10.5-8.6.1-.5.1-.9.2-1.4-2.2-1.3-5-.1-7.1-1.6-.5-.2-.9-.5-1.4-.8-.8-1-2.1-1.4-3.3-1-.4.2-.9.3-1.3.5-.9.3-1.6 1-2.1 1.8-.4.4-.8.6-1.3.9-2.8 1.1-5.7 1.7-8.6 1.9-.6 0-1.1-.2-1.6-.5.4-2.4-2.7-2.1-3-3.4-.2-5.6 4.3-4 6.8-5.5h-.2c2.4-.7 4.9-1.2 7 .7.4-1.4 1.7-2.3 3.1-3.1.1-.3.5-.4.8-.3h.1c2.6-.6 5.5-.5 7.9-2.1z"/><path d="m497.2 443.4c-15.9 20.5-33.7 39-54.9 54.2-2.5 1.8-4.9 4-8.1 4.6-6.1.3-11.7-2.2-17.5-3.3-.6-.1-1.2-.3-1.8-.5-2.8-1.1-5.7-2-8.6-2.6-1.5-.5-3.1-1.1-4-2.6.7-2.7 2.9-3.6 4.8-4.8 20.8-13 40-27.7 55.8-46.6 1.2-1.5 2.7-2.7 4.4-3.5 10.6-2.5 21.1-1.9 31.2-.9 1.4 3.4.1 4.7-1.3 6z"/><path d="m118.5 493.3-28.9-26.1-.8-.1c-.5-.2-1-.5-1.4-.8-1.2-1.1-2.3-2.2-3.3-3.4-.7-1-1.4-2.2-2.2-3.1-.3-.4-.6-.8-.9-1.2-.4-.9-.9-1.8-1.3-2.7l-9.7-12.4c-1.5-1-2.1-2.5-2.3-5 11-.3 21.8-1.6 32.5.7 2 .7 3.7 1.9 4.9 3.6 15.4 18.5 34.4 32.8 54.6 45.6 2.1 1.3 5.9 1.8 4.5 6-10.4 3.9-21 7.2-32.2 7.9l-.3-.2-.3.2c-1-.4-2.3-.2-2.8-1.5l.2.2c-.8 0-1.2-.6-1.6-1.2h.1c-1.5-.5-3-.9-3.6-2.6v.1c-.6-.2-1.1-.6-1.5-1.2-1.5-.7-2.8-1.7-3.7-2.8z"/><path d="m108.3 394.6c11.7 19.6 27.6 35.6 44.8 50.3 3 2.5 6.3 4.7 7.7 8.7 5.1 10.3 7.2 21.5 9.4 32.6-2.8 4.1-5.6 1-8-.3-13-7.1-24.7-16.2-35.6-26.1-6.3-5.7-12.1-12-18.1-18-2-2-3.4-4-3.4-7 0-13.5.3-27-.1-40.5 0-.8.3-1.6 1-2.2 2.1-.4 1.2 1.9 2.3 2.5z"/><path d="m407.7 449.9c19.8-15.8 37.8-33.4 51-55.3 1.3-.3.1-3.7 2.8-2.1.8 14.1 0 28.3 1.4 42.4-.1.7-.2 1.4-.5 2-14.2 16.3-29.8 31.2-48 43-3.8 2.5-7.5 5.3-11.7 7.1-2.1.9-4.8 2.7-5.8-1.4 2.7-12.2 5.2-24.4 10.8-35.7z"/><path d="m63.2 432.3c-10.2-12.6-16.9-27.2-23.5-41.8-2.9-6.4-5.4-13.1-8-19.7-.9-2.6.6-2.8 2.5-2.5 9.6 1.3 19.1 3 27.8 7.8 5.3 9.2 9.5 19 14.9 28.1 5 8.2 10.2 16.2 15.8 24 .3.6.6 1.3.7 2 .2 1.8-.6 2.7-2.4 2.6-9.2-.2-18.5.8-27.8-.5z"/></g><path d="m533.8 375.9c-8.1 19.4-17.1 38.4-28.8 56-7.5 3.5-15.4 2-23.1 2.3-2.6-.3-5.5.1-7.8-1.7-1-1.8-.3-3.4.7-4.7 11.6-16.1 21.5-33.2 29.8-51.2 4.8-3.9 10.9-4.4 16.6-6 3.7-1.1 7.5-2 11.3-3 .7-.1 1.4 0 2 .2 3.1 3 0 5.5-.7 8.1z" fill="#fffffe"/><path d="m470 374.7c7.1-13.5 12.5-27.5 15.2-42.5.7-1.2 1.6-2 2.9-.8 1.2 1.4 2 3.1 2.3 5 3 12.5 6.6 24.7 9.8 37.1.1 7-4 12.6-6.9 18.5-5.2 10.2-11.2 20-17.9 29.3-1.5 2.1-2.9 4.7-7.5 4.8-1.2-15.6-1.1-31.2.4-46.8-.2-1.8.9-3.2 1.7-4.6z" fill="#fff"/><path d="m81.8 333.5c3.6 14.3 8.1 28.3 15.3 41.2.6 1.3 1.8 2.3 1.8 3.9 0 15.7.1 31.3 0 46.6-1.3 1.3-2.3.8-3.2.4-.6-.3-1.2-.8-1.6-1.3-9.2-12.6-17.2-26-24-40.1-1.7-3.6-3.5-7.1-3-11.3 3-11.2 6.3-22.3 8.9-33.6.6-2.4 1-4.9 2.9-6.8 1.5-1.5 2.2-.3 2.9 1z" fill="#fffefe"/><path d="m31.6 251.4-10-10.3c-.3-36.5 48.6-127.6 74.2-135.9-16.6 21.2-31.8 43.2-42.8 67.8-11.3 24.8-18.5 51.3-21.4 78.4z" fill="#fdfaf9"/><path d="m473.5 104.1c39.3 37.4 62.7 83.3 72.8 136.8l-10.7 10.3c-6.3-55.7-29.1-103.5-65-145.5z" fill="#fdfaf8"/><path d="m526.3 261.6c-.5.4-1.2.8-1.8 1.4-.8.7-1.5 1.4-2.5 2.3-4.4-2-7.3-6.2-7.7-11.1-5.4-48.4-24.3-91-55.5-128.2-1.1-1.3-2.9-2.5-2.2-4.8 23.2 3.2 70.9 98.4 69.7 140.4z" fill="#fdfaf9"/><path d="m108.3 125.7c-25.6 31-43.5 65.9-51.8 105.4-1.5 7.3-2.7 14.8-3.5 22.2-.6 5.2-2.6 9-7.2 11.7-2.2-.5-3.3-2.4-5-4.1-.3-8.8 1.8-17.5 3.8-26.2 9.8-42.4 28.9-79.6 60.2-110.3.9-.7 1.7-1.5 2.4-2.4l.1-.1c.2-.5.6-.8 1.1-.9l1.2-.3c.5.3.8.7 1.2 1.1l-.2 1.2c-.2.5-.6.9-1 1.2-.5.5-.9 1-1.3 1.5z" fill="#fdf9f8"/><path d="m29.4 360.9c-5-10.4-6.2-21.7-8.7-32.8-.6-2.8-1-5.7-1.5-8.5-1-3.3-2.7-6.5-1-10.8 10.4 3.2 20 8.4 28.4 15.3 4.1 10.4 5.2 21.6 8.6 32.1 1.3 3.8 4.3 7.3 2.2 11.8-.4.5-1 .9-1.7 1-3.2-.3-6.2-1.5-9.3-2-5.5-2.3-12-2.1-17-6.1z" fill="#fffffe"/><path d="m549.1 310.8c-2.5 16.5-5.3 32.9-10.2 48.8-4.6 4.9-11.1 4.9-16.9 6.9-2.4.8-4.8 1.4-7.2 1.8-1.9.3-3.7.2-5.9-2.4 4.2-13.2 7-27.3 11.3-41.1 7.4-6.9 16.5-11.1 25.3-15.6 1.3-.6 3.4-1.2 3.6 1.6z" fill="#fffffe"/><path d="m525.3 272.1 21.2-23.3c3.3 6.1 2.6 10.4 2.9 14.3 1 12.6 2.1 25.2-.4 37.8-.6 1.9-2.4 2-3.9 2.4-6.3 5.6-13.2 10.1-21.6 12-2.3-1.1-2.4-3.2-2.3-5.3.7-10.9 2-21.8 1.8-32.8.2-2 1-3.8 2.3-5.1z" fill="#fffefe"/><path d="m25.8 305.3-8.6-5.8c-.5-16-.8-32 1.9-49.4l22.7 22c1.2 1.5 2.3 2.9 2.3 4.9-.1 11 1 21.9 1.7 32.9.1 2.1.1 4.2-2.3 5.3-7.1-1.1-12.4-5.4-17.7-9.9z" fill="#fff"/><path d="m349.9 494.9c-.2 1.8 1.9 3.5.4 5-2.8 2.3-2.9-1.8-5.1-1.5.5 4-4.7 3.2-5.6 6.3 0 2.1 2.3.4 2.9 2.7-.6 4.4-1.3 9.7-2 15.1l7.1 8.6c4.9.6 10 1 14.9 2.7 3.5 1.5 7.1-.9 10.6.2-15.4 6.2-31.5 10.4-48 12.4-2.3 1.2-3.1-.2-3.9-2 .1-7.2-2.3-14.3-.9-20.9 3.8-4.5 7.9-3.3 12.5-2.3.1-5.4-.5-10.8-1.9-16-9.5 1.5-18.6 3.5-27.4 4-2.3 1-2 3.5-3.6 4.6-4.4-3-9.5-1-14.2-2v-12.8c4 .7 5.8-6.2 10.7-2.7-.4 1.8-2.4.3-2.9 1.9.6 3.4 4-.1 5.3 1.8-.7 3.4-3.8 2-6.2 3.3 15.2-2.5 29.9-4.5 44.6-6.6 2.5-.4 3.5-2 3.9-4.1 3.4-.3 6.9 1.3 10.1-.8.6 2.2-.4 2.6-1.3 3.1z" fill="#fefdfd"/><path d="m128.3 136.8c-21.6 27-38.4 56.3-46.4 90.3-1.7 7.3-8.8 11-14.6 15.5 6.4-43.6 27.4-79 59.4-108.5.7 0 1.3-.5 1.4-1.2l.1-.1c2 .1 2.5.9 1.3 2.6l-.1.1c-.3.5-.7.9-1.1 1.3z" fill="#fefdfd"/><path d="m442.2 135.7c30.9 29.3 51.4 64.2 57.5 106.9-6.2-5.4-13.3-9.4-15.5-18.5-7.6-32.3-23.9-60.1-44.3-85.9-.3-.5-.7-1-1.1-1.4-.4-.4-.8-.8-1.1-1.3l-.1-.1c-1.2-1.6-.8-2.5 1.3-2.6.1.7.6 1.2 1.3 1.2.3 1.1 1.7.8 2 1.7z" fill="#fefdfd"/><path d="m209.5 538.9c2.6-1 1.5-2.7.6-4.3 2.4-1.4 4.7-2.3 7.4-1.9 5.1 2.7 10.8 2.5 16.3 3.4 9.4 1.5 18.9 2.8 28.3 4.4 2.3.4 4.8.8 7.2-.5-7.8 0-15.5.2-22.9-3.7-1.2-6.4-.3-13 2.4-18.9 5.1-1.9 9.4-.1 13.6.4 2.9.3 5.4.6 6.8-2.6 3.8.1 2.9 2.8 2.7 4.9-.4 5.1-.7 10.1 1.8 15.1 1.9.5 4.4-.6 6.6 2.2.3.9.9 2.6 1.4 4.2 3.8 2.7 8.3.8 12 2.4 0 .8-.4 1.6-1 2.2-1.4 1.3-2.5 3-4.4 3.7-26.5.8-53.2-2.8-78.8-11z" fill="#fefdfd"/><path d="m75.7 284.6c-.3 11.2 2.3 22.2 1.1 33.4-2.8 13.7-5.7 27.3-9.8 40.7-.5 1.8-1 3.6-2.5 4.9-2.3.3-3.5-1.2-4.1-3-4.2-12.3-8.7-24.5-8.8-37.7 5.2-12.2 12.8-23 19.2-34.5 1.1-1.9 1.9-4.4 4.9-3.8z" fill="#fffefe"/><path d="m490.3 318c-1.3-11.2 1.4-22.2 1.1-33.4 2.1-.6 3.1.8 3.9 2.2 6.6 11.7 13.9 22.9 19.8 34.9 1.1 13-4.2 24.7-7.6 36.8-.6 2-1.3 4-3.5 4.9-2.5.2-2.7-2-3.6-3.5-2.8-9.5-4.9-19.2-7.8-28.6-1.4-4.3-2.2-8.8-2.3-13.3z" fill="#fefefe"/><path d="m495.3 276.6c-6.9-9.9-4.7-21.8-7.7-32.6l2-1.6c9.3 9.9 18.6 19.8 27.9 29.7 3.1 12.8 3.3 25.5-.5 38.1-2.2 2.1-3.5.3-4.4-1.3-5.7-10.8-13.4-20.5-17.3-32.3z" fill="#fefefe"/><path d="m49.5 272.1 30-29.5-3.9 27.7c-.8 2.5-2.1 4.7-3.8 6.7v-.1c-.4 1.5-1.5 2.6-2.3 3.9-1.6 7.1-6.2 12.6-9.6 18.8-1.6 2.9-3.3 5.8-5 8.6-1 1.6-1.9 4.1-4.7 2.1-4.1-12.7-3.7-25.4-.7-38.2z" fill="#fffefe"/><path d="m106.9 392.5c-1.4.7-1.2 2.1-1.2 3.3v40.4c17.1 20.1 37.6 37.1 60.5 50.2 1.1.6 2.2 1.4 3.2-.2 1.8-.5 2.4.8 1.9 2-1.4 2.9-3 5.9-7.1 5.3-13.2-9.1-26.8-17.5-38.7-28.3-8.8-7.9-17.5-16-24.8-25.4.6-1 2-.4 2.7-1.3.9-1.5 1.4-3.3 1.2-5-.2-.2-.3-.5-.3-.9.1-.3.2-.4.3-.4 0-12.1 0-24.2 0-36.3-.6-.7-.6-1.8 0-2.5 0-1.3.1-2.5.1-3.7.4-.6.8-.6 1.3 0l1.3 1.3.5.8z" fill="#dc473b"/><path d="m490.3 318c4.5 13.6 8.2 27.5 11.2 41.5 1.6 6.5 6.5 9.3 13.7 7.6 7.6-3.5 16.3-3.7 23.8-7.5l-2.5 5c.5 4 1.1 8.1-2.6 11.3-.7-2.5 3.3-5 .1-7.5-.5-1.6-.9-3.4-3.3-1.6.8.7 3.3-.3 2.3 2-9 3.6-18.8 4.3-27.6 8.5-1.5 1.2-3 1.9-4.7 1.4-1.9-1.6-.3-3.8-1.6-5.2-4.3-12.2-6.9-25-10.6-37.4-.4-1.1 1.5-5.6-3.1-3.9-1.1-5.7 3.4-9.4 4.9-14.2z" fill="#da3c33"/><path d="m64.4 363.3c3.8-15.2 7.4-30.5 12.4-45.3-.2 2.2 2 3.5 2.3 5.4-.5 1.6-1.2 2.2-3.6 0 1.3 3.3-1.7 5.8 1.3 7.9 2.2 0 .2-5 3.8-2.9l-.1 1.5c-.6.7-.2 1.8-1 2.4-4 13.7-6.8 27.7-11.5 41.2-1.2 2.7-.8 8.2-6.3 3.8-8.9-3.9-18.5-5.4-27.8-8.1-1.8-.5-2.2.4-2.4 1.8-.9-.5-1.7-1.2-1.4-2.4 1.7-2.4 4.7-.5 6.8-1.9-2.6-2.1-5.1-.9-7-.3-2.3 1.5-1.4 5.1-4.9 4.8 1-2.2 2-4.3 3-6.5-.8-.1-1.7.1-1.7-1.2 0-2.1 2.2-1.5 3-2.5l17.6 4.8c2.8 1.5 5.9 1.8 8.9 2.5l-.1-.1c3.1-1.5 6.3-2.5 8.7-4.9z" fill="#da3b33"/><path d="m164.2 493.4c1.4-2.6 6.8-2.4 5.2-7.3-3.2-10.8-6.5-21.5-8.5-32.6 1.6 1.3 3-.1 4.5-.4 1.4 1.7-1.5 3.8 1.4 5.6.9-.5.4-2.9 2.1-3.2 1.2.1 1.7 1 2 2-4.4 1-1.1 3.9-.8 5.3 2.2 9.7 4.9 19.2 7.4 28.8.4 1.4 1 2.8-.2 5.2l-35.7 9.9c-1 1.6.4 2.1.7 3-1.6 1.9-3.3 1.9-5.1.1.7-2-.1-4.6 2.9-5.5-2.6 1.1-2.9 3.2-2.9 5.5-4-1-6.8-4-10-6.3 2.6-.9 5.4 3 7.9-.2-.6-1.7-2.6.5-3-1.3z" fill="#d93a32"/><path d="m495.3 276.6c7.1 11.1 13.6 22.6 19.9 34.2 3.7.2 5.4 6 10 3.8 6.3-4.3 13-8.2 20-11.4-.6 3.5 6.5 3.1 4 7.6-1.4-2.6-2.8-.7-4 0-7.9 4.5-15.8 9.1-23.7 13.7-1.4 2.4-3 4-5.8 1.9-1.9-1.4.1-4.1-1.8-5.5-6-10.2-12-20.4-18-30.6-1.2-2-1.6-4.8-4.2-5.8 1.5-2.3 4.1-4.3 3.6-7.9z" fill="#da3c33"/><path d="m52 310.9c5.4-10.3 11.1-20.4 17.5-30.1.6.8 1.2 1.5 1.6 2 2.5.5 2.3-2.5 4.5-2.2l.2 4c-7 8.5-11.1 18.8-17.1 27.9-2 3.1-3.8 6.4-5.7 9.6-.6 1.5-.5 3.3-2.3 4.1-2.1 1-3.4-.7-4.9-1.6l-26.9-15.6c-1.5 4.1.9 7.3.3 10.6-4.2-3.3-3.4-7.2-1.8-11 1.8-1.6 3.1 0 4.5-.3 1.6 1.9 3.6 0 5.6 1.1-.7-1.7-1.2-2.9-1.8-4.1 5.7 2.6 11.1 5.7 16.1 9.3 4.6 1.8 6.6-3.1 10.2-3.7z" fill="#da3b33"/><path d="m498.9 373.5c1.4.9 1.1 2.5 1.5 4l4.8-.2c-7.5 19.5-18.7 36.9-31.5 54.4l6.4.7c-1.5 4-4.7 3-7.2 1.8-4.1-2-7.4-5.4-7.2-10.2.4-13.9-1.3-27.9 1.7-41.7 0-1.3.1-2.5.1-3.8.4-.6.7-.6 1 0v46.7c10.1-10.5 17.4-22.4 23.7-35 2.8-5.4 6.5-10.4 6.7-16.7z" fill="#dd473b"/><path d="m467.4 382.2c-.1 13.3 0 26.5-.4 39.8-.1 5.4 3.2 8.1 6.7 11.2 2.1.2 4.4 1.1 6.3-.9l24.9-.5c-.4 2.4-2 2.9-4 2.5.1 3.6.5 7.3-3.7 9.1.5-1.1 1-2.2 2-4.4-11.3.2-22-1-32.8.8-2.8 1.1-4.8.7-5.3-2.7v.1c2.3-4.4-.5-9.3 1.5-13.8 2.6-7.5.8-15.1 1.1-22.7.2-6.4.5-12.7 3.7-18.5z" fill="#da3d35"/><path d="m407.7 449.9-10 36.3c2 3.8 3.6 8 8.8 8.6 3 .1 6 .9 8.6 2.3-.6 4.4-5.2 1.7-7 4l-.8.3c-6.2-1.1-12.3-2.7-18.1-5 .3-8 3.5-15.3 5.1-22.8 1-4.6 2.2-9.2 3.5-13.8.5-1.6.1-2.3-1.6-2.2 2-3.6 5.5-2.2 8.7-3.3.5-1.2.7-3.4 2.8-4.4z" fill="#da3c34"/><path d="m288.6 549.7c1.2-1.7 1.4-4.2 4.1-4.7.4 1.7 1.1 1.7 2.5.8 5.3-3.4 9-8.3 12.8-13 .1-2.5-3-3.7-2.4-6.2 1.9-6.1 6.1-4.8 10.3-3.5 3.5 8 3.6 13.4.5 18.9 1.7 1.4 4.1.3 5.9 1.5-.1 1.3.9 2.5 2.2 2.6h.4c-11.9 2.8-24.1 4-36.3 3.6z" fill="#fdfafa"/><path d="m52 310.9c-2.7 2.9-4.7 7.7-10 3.8 1.3 0 2.6-.1 2.4-1.9-1.8-13.1-1.6-26.3-2.2-39.5-.1-.4-.2-.8-.3-1.2 1.4.8 2.8 1.6 3.8 2.2 2.3.3 2.6-1.8 3.9-2.3-.4 11.7-.8 23.4.9 35.1.1 1.4-.3 3 1.5 3.8z" fill="#dd4a3d"/><path d="m525.2 314.6c-5.6 4.7-7-1.8-10-3.8 2.5-3.4 2.3-7.5 2.4-11.2.3-9.2.1-18.4.1-27.5 1.5.7 2 2.8 4.1 2.9l3.6-2.8c-.4 8.4-.8 16.9-1.2 25.3-.3 4.5-.8 9.1-1.1 13.6-.3 1.6-1.2 3.9 2.1 3.5z" fill="#dd4b3e"/><path d="m416.2 497.4c6.1 1 12.2 2.6 18 4.8-2.3 2.2-5.2 1.9-8.2 1.5.5 1.9 2.9 1.1 3.1 3.1-.5 2.1-2.1 3-4.4 3l1.8-2.5-14.4-4.8.5-.7c3.1-1.3 6.7-1.3 9.8-.1-1.1-2.3-6.7.9-6.2-4.3z" fill="#da3c34"/><path d="m94.8 423.2 3.4 2.9v-48.9c.4-.5.8-.5 1.3 0 0 12.1.1 24.2.1 36.3.3.2.4.6.3.9s-.2.4-.3.4v3.7c.3.4.3.9 0 1.3v2.5c.3.4.3.9 0 1.3 0 1.3-.1 2.5-.1 3.7.2.2.3.6.2.9s-.2.4-.3.4l-1.2 1.3c-.4.9-1.4 1.4-2.4 1.3-.7-2.6-3.7-4.7-1-8z" fill="#dc473b"/><path d="m103.3 438.5c-.6.9-1.6 1.4-2.7 1.3-10.6-1.8-21.3-.6-31.6-.7-1.2 2.1.8 2.9.9 4.3-2.3-.4-2.8-2.2-3.4-3.8.2-2.2 2.4-2.3 3.1-3.5 11.1 2.9 22.7-.5 33.7 2.4z" fill="#da4036"/><path d="m462.7 423.5c-.9 4.5 1.6 9.5-1.5 13.8.1-14 .2-28 .3-42.1.2-1-.3-2.1-1.2-2.6-.7-.5-.8-1-.2-1.6 4.2-1.5 2.5 2.1 2.5 3.3.1 9.7 0 19.5.1 29.2z" fill="#dc473b"/><path d="m190.5 532.6h15.3c-.1 1.8-1.9.5-2.3 2 2.5.5 5.2 1.3 6.1 4.3-6.6-1.2-13-3.4-19.1-6.3z" fill="#fefdfd"/><path d="m326.1 487.3c-1.4 2.2-5.7.8-5.7 5.1.5 1.8 2.1-.9 2-1.1 1.9 2.4-1.1 4.1 1.4 5.1-2.7 4.3-5.3 2.1-7.7.3-1.2-2.5-.2-4.4.3-6.4.3-.6.6-1.1 1-1.5 2.7-1.1 5.7-1.6 8.7-1.5z" fill="#fdfbfa"/><path d="m63.2 432.3h29.6c-.5-1.8-.7-2.7-1-3.7 4-.1 3.7 2.2 2.7 4.9-8.5 0-17 0-25.4 0-2 0-4.2.7-5.9-1.2z" fill="#dc473b"/><path d="m94.5 433.5c.1-2.1-.1-4.2-2.7-4.9-.4-2.5-.6-5 2.9-5.5-.3 3 0 5.6 3.5 6.6.1 1.9.1 1.9-3.7 3.8z" fill="#da4036"/><path d="m336.1 484.9c-1 1.7-2.4 3.1-2.5 4.9-1.9 0-3.4.3-2.2-2.3l-5.5-.3c3.3-1.3 6.7-2.1 10.2-2.3z" fill="#fdfbfa"/><path d="m81.9 458.7c1.4.8 2.4 2 3 3.5-.2.4-.6.7-1 .8-.4 0-.9 0-1.3-.1s-.8-.2-1.3-.4l-.6-.1c-3.4-1.6-.3-4.4-1.2-6.5 1.2.5 2.1 1.5 2.4 2.8l-.4.2z" fill="#d93a32"/><path d="m123.6 497.1c1.5.4 2.8 1.3 3.6 2.6-1.4 1-3 .7-4.5.6-.8-1.3.6-2.1.9-3.2z" fill="#d93a32"/><path d="m344.9 482.5c-1.9 3.4-5.1 2.2-7.9 2.2 2.4-1.4 5.1-2.1 7.9-2.2z" fill="#fdfbfa"/><path d="m71.7 276.9c.7-2.5 2-4.8 3.8-6.7-.4 1.8-.7 3.7-1.1 5.5z" fill="#da3b33"/><path d="m545.1 303.2c1-1.2 2.3-2.1 3.9-2.4.3 1 1.3 2.1-.1 3.1s-2.6-.2-3.8-.7z" fill="#da3c33"/><path d="m310.9 492.4-1.1-2.6c1.5-1.4 3.3-1.2 5-1 .3.4.3 1 0 1.4-1.1 1-2.4 1.7-3.9 2.2z" fill="#f4d2c0"/><path d="m79.5 467.3c-.8-.1-1.8-.1-1.6-1.2.1-1.5 1.4-2.6 2.9-2.5.2.2.3.4.5.6.4 1.6-.5 2.5-1.8 3.1z" fill="#d93a32"/><path d="m128.1 508.2c1.8-.1 2.5.6 2.2 2.3-2.3.6-1.7-1.5-2.2-2.3z" fill="#d93a32"/><path d="m118.5 493.3c1.5.5 2.8 1.4 3.7 2.8l-2.8 1.2z" fill="#d93a32"/><path d="m69.4 280.8c.2-1.6 1-3 2.3-3.9l.9 2.3z" fill="#da3b33"/><path d="m129.4 135.4-1.3-2.6c.9-1.2 1.8-.7 2.3.2s0 1.9-1 2.4z" fill="#f5ccbb"/><path d="m438.9 132.8-1.3 2.6c-1-.5-1.6-1.4-1-2.4s1.5-1.3 2.3-.2z" fill="#f8cfbe"/><path d="m79.7 332.2c-.4-.9.1-2 1-2.4.4 1.2 1.6 2.1 1.1 3.6z" fill="#f6c7b6"/><path d="m468.6 378.4h-1c-.1-1.7.9-3.2 2.5-3.8z" fill="#da3d35"/><path d="m106.9 392.5c0-.5.1-1 .2-1.6 1.4.9 1.2 2.3 1.3 3.6z" fill="#da4036"/><path d="m460 391 .2 1.6c-.5.7-1 1.4-1.5 2 .1-1.4-.1-2.8 1.3-3.6z" fill="#da3d35"/><path d="m99.5 377.2h-1.3c-.4-.8-.8-1.7-1.2-2.5 1.2.4 2.1 1.4 2.5 2.5z" fill="#da4036"/><path d="m107.1 122c0 1.3-.9 2.3-2.2 2.4-.1 0-.1 0-.2 0 .3-1.2 1.3-2.1 2.4-2.4z" fill="#f7dbcd"/><path d="m80.7 328.4.4-1.8c1.1 1 .2 1.3-.4 1.8z" fill="#da3b33"/><path d="m77.7 277.8c0 .3 0 .6-.1.9 0-.2 0-.6.1-.9z" fill="#da3b33"/><path d="m100.8 414.8 1.3 1.5c-1.6 0-1.1-1-1.3-1.5z" fill="#da4036"/><path d="m80.8 463.6v-1.3c.7-.7 1.8-.7 2.5 0 0 2.1-1 2.1-2.5 1.3z" fill="#d93a32"/><path d="m102.8 427.6c-.2 0-.4-.1-.4-.2 0-.2.1-.4.2-.5.2.1.4.1.4.2-.1.2-.1.4-.2.5z" fill="#da4036"/><path d="m103.3 396c-.1.5-.2 1.1-.4 1.8-1.1-1-.2-1.4.4-1.8z" fill="#da4036"/><path d="m104.4 393.5v2.5c-.4 0-.8 0-1.2 0-.1-1 .4-2 1.2-2.5z" fill="#da4036"/><path d="m105.8 389.7h-1.3c.2-.6.3-1.1.6-2.3.4 1.2.5 1.7.7 2.3z" fill="#da4036"/><path d="m314.9 489.7c0-.3 0-.6 0-.9h2.5l-.2 1.5c-.8.4-1.8.2-2.3-.6z" fill="#fdefe8"/><path d="m128.5 500.7 2.8 1.5c-1.2.1-2.4.1-2.8-1.5z" fill="#d93a32"/><path d="m442.2 135.7c-1.1-.1-1.8-.5-1.9-1.7 1 .1 1.8.8 1.9 1.7z" fill="#f8cfbe"/><path d="m109.5 124.3 1-1.2z" fill="#f7dbcd"/><path d="m128.1 132.8c0 .7-.6 1.3-1.4 1.2z" fill="#f5ccbb"/><path d="m99.7 414.8c0-.4 0-.9 0-1.3l1.1 1.3c-.4 0-.8 0-1.1 0z" fill="#da4036"/><path d="m21.9 308.3.3-.5z" fill="#da3b33"/><path d="m122.1 496 1.5 1.2z" fill="#d93a32"/><path d="m110.7 121.8-1.2-1.1c.9-.1 1.3.2 1.2 1.1z" fill="#f7dbcd"/><path d="m127.1 499.7 1.5 1.2z" fill="#d93a32"/><path d="m438.8 136.8 1.1 1.4z" fill="#f8cfbe"/><path d="m127.1 503.6-.6-.3.3-.2z" fill="#d93a32"/><path d="m440.3 134c-.7.1-1.3-.5-1.3-1.1 0 0 0 0 0-.1z" fill="#f8cfbe"/><path d="m104.4 432.3v1.3c-.2-.3-.3-.6-.4-.9 0-.2.3-.3.4-.4z" fill="#da4036"/><path d="m99.7 423.5c0-.4 0-.8 0-1.3.2.3.3.6.4.9 0 .1-.3.3-.4.4z" fill="#da4036"/><path d="m108.3 121-1.1.9z" fill="#f7dbcd"/><path d="m128.3 136.8 1.1-1.3z" fill="#f5ccbb"/><path d="m132.1 512.4-.3.5z" fill="#d93a32"/><path d="m437.7 135.5c.4.4.7.9 1.1 1.3-.4-.4-.7-.9-1.1-1.3z" fill="#f8cfbe"/><path d="m99.5 428.5c0-.4 0-.9 0-1.3.2.3.3.6.4.9.1.1-.2.3-.4.4z" fill="#da4036"/><path d="m99.7 419.8v-1.3c.2.3.3.6.4.9 0 .1-.3.2-.4.4z" fill="#da4036"/><path d="m108.3 125.7 1.1-1.4z" fill="#f7dbcd"/><path d="m74.5 275.8.5.3z" fill="#da3b33"/><path d="m132.1 512.4.3-.5z" fill="#d93a32"/><path d="m80.8 463.6c1 .1 2-.4 2.5-1.3l1.7-.2c1.5.8 2.7 2.1 3.4 3.6.2.6.7 1.2 1.3 1.5v-.1c-.3.7-.6 1.5-1.2 3.2-2.2-4.9-6.2-1.2-8.9-3.1.3-1.1.7-2.4 1.2-3.6z" fill="#d93831"/><path d="m367.5 283.4c0 46.3-37.7 83.9-84 83.8s-83.9-37.7-83.8-84c0-46.3 37.6-83.8 84-83.8 46.2-.1 83.8 37.3 83.9 83.5-.1.1-.1.3-.1.5z" fill="#da3a32"/><path d="m269.4 515c.5 1.4 2.5 2.5.9 4.8-6.6.5-13.1-2-20.3-2.3-1.8 5.8-2.1 11.8-2.9 17.8 5.1 2.4 10.7 1.7 16.1 3.3l5.2-2.9c2.4 1.5 4.5 3.1 5.4 5.7-.9 1.7-2.1 1.8-3.7 1.6-16-2.4-32.1-4.7-48.1-7.1-2-.3-4.4-.3-4.2-3.4 8-1 15.6 2.5 24 2.2.9-6 1.7-11.8 2.6-17.8-6.3-2.3-12.9-1.2-20.2-4.7 8-3 14 1.3 20.5 0 2-4.1 1.3-8.8 2.6-13.5-7.4-3-15.6-1.7-22.7-4.8.5-3.2 2.3-2.4 3.9-2.1 11.1 1.6 22.3 3.1 33.4 4.9 3.6.6 7 1 9.9-1.8 2.1 1.7 4.4 2.9 4.9 6.5-8 .9-15.4-2-23.4-2.3-2.4 4-1.4 9-2.9 14.1 5.1 1.1 9.9 3.5 15 .6 1.5-1 2.6.6 4 1.2z" fill="#da3a33"/><path d="m322.3 543.6c-4.3 3.7-7.4-.5-11.2-1.2.9-3.5 4.1-1.8 6-3.6.6-4.8-1.7-9.7-1.6-14.9-4.3-.7-7.8-.9-9.6 3.5-.5.9-1 1.9-2.4 1.2-4-4.3-1.8-10.2-4-15v-6.6c9.9.3 19.8-1.1 29.2-4.3 1.8-.4 3 .7 4.3 1.6 1.4 2.1 1 18-.5 19.9-2.4.4-2.1-2.9-4.6-3.2l-6.9 1.5c-.6 7.3 2.9 14.1 1.3 21.1z" fill="#da3a33"/><path d="m314.9 489.7 2.3.5c1.8 2.2-2.4 4.5.6 6.9 2 .6 4.2.3 6-.8h-.1c3.2-1.6 7.1-.5 10.2-2.5 0-1.5 1.3-2 2.3-2.7 2.2-1.4 3.6-.3 4.8 1.5.7 1.2 2.6 1.5 2.6 3.3-4.5 2.6-50 9.5-56.3 8.3 2.8-4.8 8.1-1.9 11.4-4.3 4.2.2 8.2-.7 12.4-1.7 1-2-.2-4-.1-6 .2-2.2 1.9-2.5 3.9-2.5z" fill="#da3e35"/><path d="m303.7 528.6 2.4-1.2c.5 2.8 4.3 2.4 5.2 5.6-3.7 1.9-5.8 5.6-8.7 8.6s-5.6 6.3-10 7.2c-1.4-1.6.1-2.5.2-3.6l1.3-1.3c4.5-4.3 8.8-8.6 9.6-15.3z" fill="#db4238"/><path d="m276.3 532.7c0 .2.2.4.1.5-.2.1-.3.2-.5.2 0-.2-.2-.4-.1-.5s.3-.1.5-.2z" fill="#fefdfd"/><path d="m333.9 493.8c-2.8 3.5-6.7 2-10.2 2.5 3.1-2 6.6-2.4 10.2-2.5z" fill="#fdfbfa"/><path d="m412.3 502.6c-1.7-.1-3.5 0-4.9-1.3l.3-.4c2.6-2.4 5.6-1.7 8.7-1.3-.1 3-2.7 1.6-3.6 2.7z" fill="#da3c34"/><path d="m340.9 492.7-4.8-1.5 2.7-1.9c2.2.5 2.3 1.9 2.1 3.4z" fill="#fdfbfa"/><path d="m336.1 491.1-2.3 2.7-1-2.5z" fill="#fdfbfa"/><path d="m351.5 527.9c0 .2-.1.4-.2.4-.2 0-.4-.1-.5-.2.1-.2.1-.4.2-.4.2.1.3.1.5.2z" fill="#fefdfd"/><path d="m362.4 533.7.3-.5.2.2z" fill="#fefdfd"/><path d="m406.5 494.8c-6.2 1.5-6.6-5.5-12.2-6.7l3.4-1.9c2.9 2.3 4.6-.7 6.4-1.8 19.7-11.8 37.6-26.4 53-43.4 1.3-1.4 2.6-2.6 4-3.9 1.3 1.6 3.3 2.6 5.3 2.7-17.6 21.7-39.4 38.5-63.3 52.9z" fill="#dc473b"/><path d="m412.7 502.2 2.7-2c-2.9-.7-5.3.4-7.8.7.7-4.8 5.8-1 7.5-3.9.4-.2.9 0 1.1.3 1.8 3.7 6.1 2 9.6 4.9z" fill="#d93831"/><path d="m89.6 467.3c-.4-.5-.8-1-1.3-1.5.5.5.9 1 1.3 1.5z" fill="#d93a32"/><path d="m94.8 423.2c-1.9 1.3-1.6 3.8-2.9 5.5-12.9-15.5-22.5-32.8-30.1-51.4 4 1.9 4.7-1.7 6.3-3.8 2.6 12.1 9.4 22.1 15.5 32.5 3.5 5.8 7.5 11.4 11.2 17.2z" fill="#dc473b"/><path d="m532.8 368.8c-1-2-2.7.2-4.3-1.1 1.8-1.4 2.1-4.2 5.1-4.2 2.7 1.6.8 3.3.3 4.9-.2.4-.7.5-1.1.4z" fill="#d93831"/><path d="m45.8 324.6 3.8 1c2-.5 2-2.5 3.3-3.4.8 13.8 5.3 26.7 9.6 39.7.2.6 1.2 1 1.8 1.5-.6 5.6-4.9 4.7-8.6 4.8 1.6-1 1.3-2.4.7-3.9-4.8-12.9-7.6-26.3-10.6-39.7z" fill="#dc493c"/><path d="m55.9 368.2c-3.3.5-6.4-.1-8.9-2.5 3.1.1 6.2 1 8.9 2.5z" fill="#dc493c"/><path d="m513.6 321c2.4.8.8 4 3 4.9 2.1 1.7 3.2-.7 4.7-1.2-3.1 14.2-6.3 28.4-11.5 41.8 2.1 1.7 3.7.2 5.3.7-7.5 4-13.3.8-13.7-7.6l2.3 4.1c4.3-10 6.6-19.9 8.9-29.8 1-4.3 2.4-8.5 1-12.9z" fill="#dd493c"/><path d="m343 539.8c-5.7-4.4-11.1-9.8-20.1-12.3 8.1-2.4 19.5 1.4 22.4 6.3 1.5 2.4 1.7 4.7-2.3 6z" fill="#da4238"/><path d="m349.9 494.9-.5-.3.2-.2z" fill="#fff"/><path d="m262.8 534.7c-4.7-3.6-6.1-8.8-10.6-13.1 9.5 1.2 13.6 6.4 10.6 13.1z" fill="#da4138"/><path d="m28.2 364.7.3-.5z" fill="#d93831"/><path d="m137.1 509.9-1.6-1.8c3.6-5 3.8-5.1 8.4-3.9-3.8.2-5.5 2.8-6.8 5.7z" fill="#d93831"/><path d="m83.3 462.3h-2.5c.8-1.3 1.6-1.3 2.5 0z" fill="#d93831"/><path d="m81.9 458.7-.3.5z" fill="#d93831"/><path d="m306.5 520.9c-.6-3.4-1-6.2-1.6-9.7l22.2-3.4c2 3.1 1.4 6.2 1.8 9.7z" fill="#fdfbfa"/><path d="m221.9 215.1c-15.2-17.5-22-40.8-18.5-63.8l-.4-.4 1.2-4.5c-1.2.7-2.3 1.4-3.4 2.1-46 28.6-73.9 78.9-73.8 133v.3c1.4-1.5 2.9-2.9 4.4-4.2 4.3-3.8 9-7.1 14-9.8 7.2-4.2 15.1-7 23.3-8.4 9.2-1.7 18.6-1.8 27.8-.2l13.8-23.9z" fill="none"/><path d="m259 362.1c-7.5 24.6-26.4 44.1-50.7 52.3l-.3.6-4.8 1c49.5 29.5 111.2 29.5 160.7 0l-4.8-1-.3-.6c-24.4-8.2-43.3-27.7-50.7-52.3z" fill="none"/><path d="m324.7 338.2c0 1.3 0 2.5.1 3.7h70.3l-34.1-59.1c-22.1 9.6-36.4 31.4-36.3 55.4z" fill="none"/><path d="m370.6 259.2c9.2-1.6 18.6-1.5 27.8.2 8.2 1.3 16.1 4.2 23.3 8.4 5 2.8 9.7 6.1 14 9.8 1.5 1.3 3 2.8 4.4 4.2v-.3c0-54.1-27.9-104.3-73.8-132.9-1.1-.7-2.3-1.4-3.5-2.1l1.2 4.5-.4.4c3.4 22.9-3.3 46.2-18.5 63.8l11.6 20.1z" fill="none"/><path d="m216.2 265.3c28.3 13.2 46.4 41.7 46.3 72.9 0 1.3 0 2.5-.1 3.7h42.2c-.1-1.2-.1-2.5-.1-3.7-.1-31.3 18-59.7 46.3-72.9l-11.5-20-9.5-16.4c-13.5 9.4-29.6 14.4-46 14.4h-.6c-12.6 0-25.1-3-36.4-8.7-3.3-1.7-6.6-3.6-9.6-5.7l-9.5 16.4z" fill="none"/><path d="m283.2 223.1h.6c9.5 0 18.8-2.2 27.3-6.5 3-1.5 5.9-3.3 8.6-5.3l-36.2-62.7-36.2 62.7c2.7 2 5.6 3.7 8.6 5.3 8.5 4.3 17.8 6.5 27.3 6.5z" fill="none"/><path d="m206.1 282.8-34.2 59.2h70.3c.1-1.2.1-2.5.1-3.7.2-24.1-14.1-45.9-36.2-55.5z" fill="none"/><path d="m237.5 362.1c2.7-6.4 4.3-13.2 4.8-20.1h-70.3l34.1-59.1 10.1-17.6 11.6-20 9.5-16.4c-5.7-3.9-10.8-8.5-15.4-13.7l-11.6 20.1-13.8 23.9-11 19.1-48.5 83.8z" fill="#fd0"/><path d="m247.4 211.3 36.2-62.7 36.2 62.7 10.1 17.5 9.5 16.4 11.5 20c6.3-2.9 12.9-5 19.7-6.1l-13.8-23.9-11.6-20.1-10.9-18.9-50.7-87.9-50.7 87.9c3.8 5.9 8.8 11 14.5 15.1z" fill="#fd0"/><path d="m115.1 335.2c2.4-5.4 10.3-21.8 22.8-35.5 4.8-5.9 10.7-10.8 17.4-14.4 5.1-3 10.8-5.1 16.7-6h.1c3.7-.7 7.5-1.1 11.3-1.1.7 0 1.5 0 2.2.1l11-19.1c-9.2-1.6-18.6-1.5-27.8.2-8.2 1.3-16.1 4.2-23.3 8.4-5 2.8-9.7 6.1-14 9.8-1.5 1.3-3 2.8-4.4 4.2v-.3c0-54.1 27.9-104.3 73.8-132.9 1.1-.7 2.3-1.4 3.4-2.1l-1.3 4.5.4.4c-3.4 22.9 3.3 46.2 18.5 63.8 4.5 5.2 9.7 9.8 15.4 13.7 3.1 2.1 6.3 4 9.6 5.7 11.3 5.7 23.7 8.6 36.4 8.7h.6c16.4 0 32.5-5 46-14.4l-10.1-17.5c-2.7 2-5.6 3.7-8.6 5.3-8.5 4.3-17.8 6.5-27.3 6.5h-.6c-9.5 0-18.8-2.2-27.3-6.5-3-1.5-5.9-3.3-8.6-5.3-5.7-4.2-10.6-9.3-14.5-15.1-9.9-14.6-12.7-33-7.7-49.9s5.7-21.1 19.9-37.4c-95.4 21.4-155.3 116-134 211.4 1.1 5 2.4 9.9 4 14.8z" fill="#fff"/><path d="m283.5 362.1h146.5l-48.4-83.9c-7.1.3-14.1 1.8-20.6 4.6l34.2 59.2h-132.7c-.3 6.8-1.5 13.6-3.5 20.1z" fill="#fd0"/><path d="m342 146.3c5 17 2.2 35.3-7.7 49.9l10.9 18.9c15.2-17.5 22-40.8 18.5-63.8l.4-.4-1.2-4.5c1.2.7 2.3 1.4 3.5 2.1 46 28.6 73.9 78.9 73.8 133v.3c-1.4-1.5-2.9-2.9-4.4-4.2-4.3-3.8-9-7.1-14-9.8-7.2-4.2-15.1-7-23.3-8.4-16.1-3-32.7-1-47.5 5.9-28.3 13.2-46.4 41.7-46.3 72.9 0 1.3 0 2.5.1 3.7h20.2c-.1-1.2-.1-2.5-.1-3.7-.1-24.1 14.2-45.9 36.3-55.5 6.5-2.8 13.5-4.3 20.6-4.6.7 0 1.5-.1 2.2-.1 3.8 0 7.5.4 11.3 1.1h.1c5.9.9 11.5 3 16.7 6 6.7 3.6 12.6 8.5 17.4 14.4 12.5 13.7 20.4 30.1 22.8 35.5 29.6-93.1-21.9-192.6-115-222.2-4.9-1.6-9.9-2.9-14.9-4 13.9 16.4 19.6 37.5 19.6 37.5z" fill="#fff"/><path d="m283.5 458.3c52 0 101.4-22.8 134.9-62.6-8.2 2.3-16.8 3.5-25.4 3.4-6.5 0-13.1-.5-19.5-1.7-19.7-3.6-36.2-16.9-44-35.3h-21.5c7.5 24.6 26.4 44.1 50.7 52.3l.3.6 4.8 1c-49.5 29.5-111.2 29.5-160.7 0l4.8-1 .2-.6c24.4-8.2 43.3-27.7 50.8-52.3 2-6.5 3.2-13.3 3.5-20.1 0-1.2.1-2.5.1-3.7.1-31.3-18-59.7-46.3-73l-10.1 17.5c22.1 9.5 36.4 31.3 36.3 55.4 0 1.3 0 2.5-.1 3.7-.4 6.9-2 13.8-4.8 20.2-7.8 18.4-24.3 31.7-44 35.3-6.4 1.2-13 1.7-19.5 1.7-8.6.1-17.1-1.1-25.4-3.4 33.6 39.7 83 62.6 134.9 62.6z" fill="#fff"/><path d="m165.2 110-5.8 4.2-22.3-30.5-11.4 8.3-4.8-6.6 28.5-20.9 4.8 6.6-11.4 8.4z" fill="#fafafa"/><path d="m159.7 59.2 6.3-3.4 22 40.3-6.3 3.4z" fill="#fafafa"/><path d="m193.8 43.2 6.5-2.4 32.2 37.2-7.5 2.7-6.9-8.2-18.3 6.6.1 10.7-6.7 2.4zm18.6 22.6-12.6-15.3v19.9z" fill="#fafafa"/><path d="m231.9 31.4 4.8-.6 24.9 24c.7.7 1.4 1.4 2.1 2.1s1.3 1.5 2 2.4c-.3-1.9-.6-3.5-.8-4.8s-.4-2.3-.5-3l-3.2-23.9 6.4-.8 6 45.6-4.8.6-26-25.2c-.5-.5-1-1.1-1.5-1.6s-1-1.1-1.5-1.8c.4 1.8.6 3.2.8 4.4s.3 2.1.4 2.8l3.2 24.6-6.4.8z" fill="#fafafa"/><path d="m295 35.2-2.9 29 22.2 2.2 1-10.2-11.6-1.2.8-7.8 18.5 1.9-1.6 15.8c-.2 2.1-.5 3.9-.9 5.3s-.9 2.5-1.6 3.2-1.5 1.2-2.5 1.4-2.2.3-3.6.1l-21-2.1c-1.4-.1-2.6-.4-3.5-.8s-1.7-1.1-2.2-1.9c-.5-.9-.8-2-.9-3.5-.1-1.4-.1-3.2.1-5.4l2.4-24.1c.2-2.1.5-3.9.9-5.3s.9-2.5 1.6-3.2 1.5-1.2 2.5-1.5c1-.2 2.2-.3 3.6-.1l21 2.1c1.4.1 2.5.4 3.5.8.9.4 1.7 1 2.2 1.9s.8 2 1 3.3c.1 1.4.1 3.1-.1 5.1l-.1 1.1-7.1 1.2.5-5.1z" fill="#fafafa"/><path d="m343.6 39.7c.7-1.3 1.5-2.2 2.3-2.7.8-.6 1.7-.8 2.8-.8 1 0 2.2.2 3.6.7l21.3 7.4c1.3.5 2.4 1 3.2 1.6s1.4 1.4 1.7 2.4.3 2.1.1 3.6c-.2 1.4-.7 3.2-1.4 5.2l-7.9 22.9c-.7 2-1.4 3.7-2.1 4.9-.7 1.3-1.5 2.2-2.3 2.7-.8.6-1.7.8-2.8.8-1 0-2.2-.2-3.6-.7l-21.3-7.4c-1.3-.5-2.4-1-3.2-1.6s-1.4-1.4-1.7-2.4-.3-2.1-.1-3.6c.2-1.4.7-3.2 1.4-5.2l7.9-22.9c.7-2 1.4-3.6 2.1-4.9zm18.2 40 9.5-27.5-22.2-7.7-9.5 27.5z" fill="#fafafa"/><path d="m385.8 91.4 17.2 10.8 19.9-31.6 6 3.8-18.7 29.7c-1.1 1.8-2.2 3.3-3.2 4.3-1 1.1-1.9 1.8-2.9 2.1-.9.4-1.9.4-2.9.2s-2.1-.7-3.3-1.5l-16.4-10.3c-1.2-.8-2.1-1.5-2.8-2.3-.6-.8-1-1.7-1.1-2.7s.2-2.2.7-3.5 1.4-2.9 2.5-4.7l18.9-29.7 6 3.8z" fill="#fafafa"/><path d="m191.4 39.2 8.7-3.1" fill="none" stroke="#fafafa" stroke-miterlimit="10" stroke-width="3"/><path d="m370.6 30.1-3.7 4.8.2-6.1h-2l-.3 9.2 1.8.6 5.6-7.3z" fill="#fafafa"/></svg>