<svg enable-background="new 0 0 113.4 113.4" viewBox="0 0 113.4 113.4" xmlns="http://www.w3.org/2000/svg"><path d="m56.7 113.4c-31.4 0-56.7-25.4-56.7-56.8 0-31.2 25.4-56.6 56.7-56.6 31.4 0 56.7 25.4 56.7 56.8-.1 31.2-25.5 56.6-56.7 56.6z" fill="#d93831"/><path d="m85.7 102.4c-5.7 3.4-11.7 6-18.2 7.3-.9.2-1.8.4-2.8.4-.3.1-.5.1-.8 0 .6-1.6-.2-3.2.1-4.7.8-.9 1.6-.7 2.6-.4.1-1.2-.1-2.2-.3-3.3-2.1.3-4 .8-6 .8 0 1.3.3 2.6.6 3.8.2 1-.4 1.7-1 2.5-.5.6-1 1.1-1.5 1.7-.1.1-.2.2-.3.2-10.5.3-20.2-2.4-29.2-7.6-.4-.3-.9-.5-1.3-.7 0-.7.6-.7 1.1-.9 1.5-.5 3.1-.9 4.7-1.3.4-.1.9-.2 1.3-.5.3-.5.1-1-.1-1.5-.3-1.5-.7-3-1.2-4.4-.1-.4-.3-.9-.1-1.4.1-.2.3-.3.5-.2 8.2 5.2 17.1 7.3 26.7 6.4.4 0 .8-.1 1.1-.1.2-.1.4-.1.5 0 .4.6.3 1.2.1 1.7-.2.3-.5.4-.7.4-1.1.3-2.2.4-3.2.6 3.2-.5 6.4-.8 9.6-1.6-1.5.1-2.9 1.1-4.4.6-.6-.4-.4-1.1-.7-1.6 0-.1 0-.2.1-.3 5.9-.8 11.4-2.9 16.4-6.1.2-.2.4 0 .5.2.3.8-.1 1.5-.3 2.2-.4 1.6-.9 3.2-1.1 4.8.4.6.9.7 1.4.8 1.6.4 3.2.8 4.7 1.3.6.2 1.2.2 1.2.9z" fill="#fff"/><path d="m56.8 20.6c20 0 36 16.2 36 36.2s-16.2 36-36.3 36c-19.9 0-36-16.2-35.9-36.3 0-19.9 16.2-35.9 36.2-35.9z" fill="#191211"/><path d="m100.6 88.2c-1.3 2.4-3.2 4.3-5 6.3-2.1 2.3-4.5 4.3-7.1 6.1-.4.3-.7.6-1.2.6-2.2-.1-4.2-.8-6.3-1.6-.4-.6.2-.8.5-1.1 3.3-1.9 6.2-4.3 9.1-6.9 1.1-1 1.9-2.3 3.1-3.2.2-.1.3-.1.5-.2 2-.2 4.2-.2 6.4 0z" fill="#020203"/><path d="m25.9 101.2c-3.9-2.4-7.2-5.5-10.2-9-1.1-1.2-2.1-2.5-3-3.9.4-.5.9-.2 1.4-.2 1.4 0 2.8-.1 4.2.1h.3c.2-.1.3-.1.5 0 .1.1.1.1.2 0 .2.1.3.1.5.2 1.5 1.1 2.6 2.7 4 3.9 2.5 2.2 5.1 4.2 7.9 6 .4.3 1.3.4.9 1.2-2.3.8-4.4 1.6-6.7 1.7z" fill="#020203"/><path d="m81.6 91c .4-.7 1-1.1 1.6-1.6 3.6-3.1 6.9-6.5 9.3-10.6.6-.1.4.4.4.6v8c0 .6-.3 1-.6 1.5-2.3 2.7-5 4.9-7.8 7-1.1.8-2.1 1.5-3.3 2.1-.4.2-.9.5-1.4.2-.3-1 .2-1.8.5-2.7.3-1.6.4-3.2 1.3-4.5z" fill="#020203"/><path d="m20.8 78.8c2.8 4.6 6.5 8.3 10.7 11.7.8.9.9 2.1 1.2 3.1.3 1.5 1.2 2.9 1 4.5-.5.4-1 .1-1.4-.1-2.4-1.4-4.8-3-6.9-4.9-1.5-1.4-3.1-2.6-4.3-4.3-.3-.4-.6-.8-.6-1.4 0-2.7 0-5.3 0-8 0-.2-.2-.7.3-.6z" fill="#020203"/><path d="m108 74c-1.6 4.5-3.7 8.8-6.3 12.8-1.1.5-2.2 0-3.3.2-1 0-2.1.1-3.4-.1 1.1-2.1 2.5-3.7 3.6-5.6s1.9-3.9 3-5.7c1.9-1.1 4-1.4 6-1.8.2-.1.3.1.4.2z" fill="#020203"/><path d="m11.7 86.9c-2.7-4-4.7-8.3-6.3-12.8.1-.2.2-.3.4-.3 2.1.4 4.2.7 6.1 1.8 1.2 2 2.1 4.2 3.3 6.2.8 1.2 1.6 2.5 2.5 3.7.3.4.7.8.5 1.5-2 .1-4 0-6 0-.3.1-.4 0-.5-.1z" fill="#020203"/><path d="m15.5 66.1c.9 3.1 1.8 6.2 3.3 9.1.1.2.2.4.3.5s.1.3.1.4c.2 3.2.2 6.3 0 9.5-.7.1-1.1-.4-1.4-.8-1.9-2.6-3.5-5.5-4.9-8.5-.2-.4-.3-.9-.2-1.4.6-2.7 1.4-5.3 2.1-8 .1-.2 0-.8.7-.8z" fill="#020203"/><path d="m94.2 76c1.5-3.2 2.7-6.5 3.6-9.9.6 0 .6.5.7.9.7 2.7 1.5 5.3 2.1 8 .1.6-.1 1.1-.3 1.6-1.3 2.8-2.8 5.6-4.7 8.1-.3.4-.6.9-1.5 1 .1-3.2-.3-6.5.1-9.7z" fill="#020203"/><path d="m95.3 20.2c8 7.6 12.8 16.9 14.8 27.8-.6.9-1.4 1.6-2.3 2.3-1.3-11.4-5.9-21.1-13.2-29.7.2-.2.4-.3.7-.4z" fill="#070505"/><path d="m18.6 20.5c-7.2 8.6-11.8 18.4-13.1 29.8-.9-.7-1.6-1.4-2.2-2.2.9-9.1 10.6-26.9 15.3-27.6z" fill="#070505"/><path d="m21.8 23.6c-.7 1.4-1.6 2.3-2.4 3.3-5.3 7.1-8.5 15-9.5 23.7-.1 1.1-.7 1.8-1.5 2.4-.5-.2-.7-.5-1-.9-.8-7.5 9.1-27.4 14.4-28.5z" fill="#070505"/><path d="m91.8 23.7c5.1 1.2 14.6 20.2 14.2 28.6-.2.2-.6.5-1 .8-.9-.5-1.4-1.3-1.5-2.4-1.1-9.7-4.9-18.2-11.1-25.7-.3-.4-.7-.7-.6-1.3z" fill="#070505"/><path d="m4.8 72.3c-1-3.4-1.8-6.9-2-10.5l.1-.1c2.2.9 4.4 1.8 5.9 3.7.5 2.3 1 4.6 1.8 6.8.2.5.4 1.1 0 1.7-1 .4-1.9-.2-2.8-.5-.9-.2-2.1-.2-3-1.1z" fill="#020203"/><path d="m110.5 61.8c-.2 3.6-1 7.1-2 10.5-1.8 1.1-3.8 1.6-5.9 1.7-.4-.6-.2-1.1 0-1.7.8-2.2 1.3-4.5 1.8-6.8.1-.3.3-.6.6-.8 1.6-1.1 3.3-2 5-2.9.2-.1.4-.1.5 0z" fill="#020203"/><path d="m105.5 54.9c1.4-1.8 3.2-3.3 4.9-5 .7 3.5.4 6.8.5 10.1-1.4 1.6-3.4 2.4-5.2 3.3-.3.2-.6 0-.7-.4 0-2.5.2-4.9.2-7.4 0-.2.1-.4.3-.6z" fill="#020203"/><path d="m2.5 60c0-3.3-.2-6.6.4-10.1 1.7 1.7 3.3 3.3 4.8 4.8.3.2.4.6.4.9 0 2.5.1 4.9.2 7.3-.1.4-.4.6-.8.4-1.6-1-3.6-1.7-5-3.3z" fill="#020203"/><path d="m12.8 48.8c-.6-5.9 7.9-20.8 12.7-22.8.4.5-.1.8-.3 1.1-4.4 5.3-7.7 11.2-9.3 18-.5 1.6-1.9 2.3-3.1 3.7z" fill="#040203"/><path d="m87.8 26c5.1 2.5 13.5 17.4 12.7 22.8-1.2-1.4-2.7-2.2-3.1-4-1.6-6.6-4.8-12.3-9-17.5-.3-.4-.8-.7-.6-1.3z" fill="#040203"/><path d="m14.4 56.7c.1 1.9.1 3.8.5 5.7-.2 3.4-1.5 6.6-2.3 9.9-.1.3-.2.7-.4.9-.9 0-1-.7-1.1-1.3-.7-2.2-1.4-4.4-1.7-6.7.1-1 .7-1.8 1.2-2.6.9-1.6 1.8-3.2 2.8-4.8.2-.4.3-1.1 1-1.1z" fill="#030203"/><path d="m98.4 62.4c.4-1.9.4-3.8.5-5.7.7-.1.8.6 1 .9 1.3 2.2 2.5 4.3 3.7 6.5.1.2.2.5.3.7v.4c-.4 2.2-1 4.4-1.6 6.5-.2.6-.3 1.4-1.2 1.4-.7-.9-.7-2-1-3-.7-2.5-1.6-5-1.7-7.7z" fill="#030203"/><path d="m98.9 54.1c-.3-1.8-.5-3.6-.8-5.4.1-.1.2-.2.3-.3 1.9 2 3.8 4 5.8 6 .6 1.9.5 6.6-.2 8.1-.3.2-.5 0-.6-.2-1.5-2.7-3.4-5.3-4.5-8.2z" fill="#030203"/><path d="m9.1 54.4c1.9-2 3.9-4 5.8-5.9.1.1.2.1.3.2-.3 1.8-.5 3.6-.8 5.4-.6 2-1.9 3.6-2.9 5.5-.4.8-.9 1.7-1.4 2.4-.2.3-.3.8-.8.5-.2-.2-.3-.4-.3-.7-.2-2.5-.7-5 .1-7.4z" fill="#030203"/><path d="m12.1 73.1c.9-3.6 1.9-7.1 2.8-10.7-.1 1.3.4 2.5.5 3.7-1 2.6-1.5 5.3-2.3 8-.1.3-.2.6-.3.8-.2.2 0 .6-.3.9-.3.2-.6.2-.9-.1-2-.8-4.1-1.4-6.3-1.7.1-.6-.4-1.1-.5-1.7 1.9.5 3.9 1.1 5.8 1.6.5-.2 1.1-.4 1.5-.8z" fill="#d63831"/><path d="m98.4 62.4c.9 3.6 1.9 7.1 2.8 10.7.5.3 1 .6 1.5.9 1.9-.5 3.9-1.1 5.8-1.6-.2.6-.8 1-.5 1.7-2.2.3-4.3.9-6.3 1.7-.3.2-.6.3-.9.1-.4-.2-.2-.6-.3-.9-.8-2.7-1.5-5.4-2.3-8.2-.1-.2 0-.5-.3-.7 0-1.2.6-2.4.5-3.7z" fill="#d63831"/><path d="m9.6 62.4c1.6-2.8 3.1-5.6 4.8-8.3.2.9-.3 1.8 0 2.7-1.7 2.7-3.3 5.5-4.8 8.3-.3.5-.6.6-1.1.3-1.7-1.5-3.7-2.5-5.7-3.6-.1-.6-.2-1.2-.3-1.9 1.8 1.1 3.7 2.2 5.5 3.3.5-.4 1.1-.5 1.6-.8z" fill="#d63831"/><path d="m98.9 54.1c1.7 2.7 3.3 5.5 4.8 8.3.5.3 1.1.4 1.6.9 1.8-1.1 3.7-2.2 5.5-3.3-.1.6-.2 1.2-.3 1.9-2 1.1-4 2-5.8 3.5-.4.3-.8.2-1.1-.3 0-.1 0-.1 0-.2-.1-.2-.1-.4-.2-.6-1.5-2.5-3-5-4.5-7.6 0-.8 0-1.7 0-2.6z" fill="#d63831"/><path d="m47.8 14c-.5.6-.9 1.5-2 1.6 1-1.3 1.9-2.6 1.6-4.3-.7-.2-1.4.5-2.1-.2.6-.6 1.4-.3 2-.5.2-.4.1-.7-.1-1-.6-.3-.7.5-1.3.4-.5-1.1-.4-2.4-.7-3.8 1.8.5 3.4-.4 5.2-.4-.5 1.3-.1 2.2.2 3.1-.7.5-1.5.1-2.2.6-.2.3-.1.6 0 .8 1 .8 1.8-.8 2.8.1-.6 1.4.2 2.9-.2 3.9-.9 1.5-1.6.3-2.3.5-.3-.1-.5-.3-.4-.7.3-.4.9-.2 1.3-.5.3-.7.2-1.4 0-2.1-.8-.1-.9.4-1 .9s-.2 1.2-.8 1.6z" fill="#fefdfc"/><path d="m33.5 98.1c-.7-2.5-1.4-5.1-2.1-7.6.6.4 1.2.9 1.8 1.3.2.2.1.6.2.8.6 2.4 1.2 4.8 1.9 7.2-1.4.7-2.9.8-4.3 1.3-1.2.4-2.5.4-3.5 1.2-.6-.4-1.2-.8-1.7-1.2 2.2-.6 4.4-1.2 6.6-1.8.3-.5.8-.7 1.1-1.2z" fill="#d63a32"/><path d="m81.6 91c-.6 2.4-1.2 4.7-1.8 7.1.3.5.8.7 1.1 1.3l6.3 1.8c-.4.5-.9 1-1.5 1.2-.7-.7-1.8-.7-2.6-1-1.6-.5-3.3-.9-5-1.4.4-2.6 1.3-5 1.8-7.4.1-.3 0-.6.2-.8.4-.3.9-.7 1.5-.8z" fill="#d63a32"/><path d="m33.5 98.1c.2.9-.6.9-1.1 1.3-1.9-1.3-3.9-2.6-5.7-4-2.7-2-5.1-4.3-7.2-6.9.1-.2.4-.1.5-.3.1-.1.2-.2.3-.3 0-3.1 0-6.3 0-9.4.4-.1.4.1.5.3-.3.1-.3.4-.3.6v8.3c3.5 4.2 7.7 7.6 12.4 10.3.2.1.4.1.6.1z" fill="#c83831"/><path d="m80.9 99.4c-.4-.4-1.2-.4-1.1-1.3.4.1.6-.1.9-.3 4.6-2.7 8.6-6 12.1-10.1 0-2.8 0-5.6 0-8.4 0-.2 0-.4-.3-.5.1-.1.2-.3.3-.4h.2v9.5l.3.3c.1.2.4.1.5.3-3.4 4.1-7.4 7.4-12 10.2-.3.1-.8.2-.9.7z" fill="#c83831"/><path d="m11.7 75.7h.8c.2-.3.3-.5.5-.8v.6c1.5 3.6 3.5 6.9 6.1 9.9 0-3.2 0-6.4 0-9.5.1-.1.1-.1.2 0v1c .2 2.3.1 4.6 0 6.9v1c .1.4.2.8 0 1.3-.2.1-.1.4-.3.5-.2.2-.6 0-.7.3-.7.5-1.5.1-2.3.3-.1.1-.2.1-.3 0-.8 0-1.5 0-2.3 0-.1.1-.2.1-.3 0-.4 0-.8 0-1.3 0-.1 0-.1-.1-.1-.1 0-.1 0-.1.1-.1h6.2c-2.5-3.7-4.8-7.3-6.3-11.3z" fill="#c73831"/><path d="m100.4 75c .1.2.3.4.4.7.2 0 .5 0 .8.1-1.6 4-3.8 7.5-6.6 11.2h3c .1 0 .1.1.1.1l-.1.1c-.4 0-.8 0-1.3 0-.1.1-.2.1-.3 0-.5-.1-1.1.2-1.5-.3-.2-.3-.5 0-.7-.3 0-.1 0-.2 0-.3-.1-.1-.2-.2-.3-.3-.2-.4-.2-.8 0-1.3 0-.3 0-.7 0-1-.1-.6-.2-1.2 0-1.8 0-.3 0-.5 0-.8-.1-1.4-.2-2.9 0-4.3.1-.3-.1-.7.2-1v9.5c.4.2.5-.1.7-.3 2.1-2.8 3.8-5.8 5.3-8.9.3-.3.3-.7.3-1.1z" fill="#c73831"/><path d="m74.1 17.2c-.6.1-1.2.5-1.9.4-.1-.7.4-.6.7-.6.2-.2.3-.5.6-.5h.2c1.8-.9 2.5-2.6 3.3-4.2-.3-.6-1.4-.3-1.3-1.3.6-.2 1 .4 1.6.4.5-.5.5-1.3.9-1.8.5-.1.7.2 1 .6-.7.4-.9 1-1.1 1.5.4 1 1.9 0 2.2 1.3-1.8 1.8-1.7 5-4.7 6.3-.1-1-1-1.2-1.2-1.8.6-.5 1.1.2 1.9 0 1-1.2 1.7-2.6 2.2-4.3-.7-.2-.8.2-.9.5-.6 1-1.2 2-2.1 2.9-.4.3-.8.6-1.4.6z" fill="#fefcfb"/><path d="m33.5 11.2c-.1-.3-.1-.6-.2-.9.4-.3.8-.4 1.2-.2-.1 1.3 0 1.6.7 1.5.2-.1.3-.2.5-.2.3 0 .6 0 .7.3.2.4 0 .6-.3.8s-.7.4-.4.9c.4.3.7-.4 1.1-.2.3.2.2.4.2.7 0 .2-.1.3-.3.4-.2.2-.5.2-.6.5 0 1.3.8 2.3 1.2 3.4.2.5.4.9-.4 1.1-.5-1.1-1-2.2-1.4-3.3-.6.1-.7.7-1 1-.4 0-.6-.3-.9-.6.5-.4.9-.8 1.5-1.3-.3-.6-.5-1.3-.8-1.9-1.3.2-.3 1.4-1 2-.7-1.2-.5-2.6-1-3.7.5-.5.9-.3 1.2-.3.1.2.1.4.1.7.1-.4.1-.6-.1-.7z" fill="#fefcfb"/><path d="m61.5 8.4c1.3.2 2.6.3 3.9.5.7.1 1.3.2 1.8-.4.4.3.7.6.9 1-.7.6-1.4-.1-2.1.1-1 1.7.2 4.3-1.9 5.9-.6-.8-1.4-.9-2.1-1.4.9-.4 1.5.2 2.3 0 .2-1.5.4-3 .6-4.6-1.2-.5-2.4-.2-3.5-.7-.1-.1-.1-.3.1-.4z" fill="#fefaf9"/><path d="m73 16.5c0-.2-.1-.5-.1-.8-1.2-.1-2.3-.2-3.7-.3.1-1.7 2.1-2.1 2.6-3.4-.2-.6-1.4-.2-1.3-1.3 1.5.2 2.7 1.6 4.3 1.2.3.3.6.6.4 1.2-.9 0-1.5-.7-2.4-.7-.8.6-1.6 1.3-2.6 2.1.9.5 1.8.6 2.7.5.3-.4-.1-.9.3-1.3.7.9.7 1.9.5 2.9-.2.1-.5.1-.7-.1z" fill="#fefaf9"/><path d="m63.9 110c .3 0 .6.1.8.1-1.4.4-2.8.5-4.2.5-.4.1-.9.2-1.3 0-.3-.6.3-.8.6-1.1.7-.7 1.2-1.4 1.8-2 .1-.6-.6-.8-.5-1.3.1-.7.6-1 1.3-.9s1.1.5 1.2 1.1c.1 1 .7 2-.3 2.8 0 .4.5.4.6.8z" fill="#fefdfc"/><path d="m35.9 11.6c-.2 0-.4 0-.6 0 .3-.3.2-.6.1-.9.6-.3 1.4-.4 1.9-.9.1-.5-.3-.7-.3-1.2.3-.3.7-.5 1.1-.3.4.3-.2.6.1 1 .7-.1 1.4-.3 1.7-1.2.5 0 .9 0 1.3.5-.8.8-1.9.8-2.7 1.4 0 .4.2.7.4 1 .7.1 1-.4 1.3-.8.4-.1.8 0 1.1.2.2.4-.7.7 0 1-.3.3-.7.3-1.1.3-.8.1-1.4.6-2.1.8-.5.1-.9.5-1.4 0-.4-.9.9-.8.8-1.5-.6 0-1 .5-1.6.6z" fill="#fefaf8"/><path d="m9.6 62.4c-.4.6-.8 1-1.6.9-.1-2.9-.4-5.7-.3-8.6.2.1.5.1.6.2.4 0 .5-.4.7-.5-.2 2.2-.1 4.4.1 6.6.1.5.1 1 .5 1.4z" fill="#c63831"/><path d="m105.3 63.2c-.7.1-1.2-.3-1.6-.9.5-.5.4-1.2.4-1.8.1-2.1.2-4.2 0-6.3.2.2.4.3.6.5h.7c.1 2.3.1 4.6-.2 6.9 0 .6.1 1.1.1 1.6z" fill="#c63831"/><path d="m53.3 4.9c.6-.2 1-.2 1.4.2-.7.9-.3 1.8-.1 2.7.2 1.8.5 3.5.7 5.3.1.7 0 1.3-.9 1.5-.4-.6-1.3-.2-1.9-.7.6-.6 1.4-.1 2-.6-.5-2.7-.9-5.5-1.2-8.4z" fill="#fefaf8"/><path d="m40.1 11.7h1.3c.3.2-.4.5 0 .8.6.1.4-.5.7-.7.4 0 .7.1 1.1.4-.2.8-1.2.6-1.5 1.1 1 3.3 1 3.3.3 4-.5-.6-1.2-.1-1.7-.3-.2-.8.7-.7 1-1.2.1-.6-.3-1.2-.7-1.7-1-.1-1.6.9-2.5.7-.3.1-.6.2-.9.2-.3-.1-.5-.1-.8-.2 0-.3.2-.5.4-.6.3 0 .5-.1.7-.3.9-.5 1.8-.7 2.7-1.2 0-.3-.4-.7-.1-1z" fill="#fefbfa"/><path d="m74.1 17.2c1.8-1.1 2.8-2.9 3.7-4.8.4.2.8.3 1.3.6-.9 1.8-1.5 3.7-2.8 5-.9.2-1.2-.8-1.9-.5 0-.1-.2-.2-.3-.3z" fill="#da3a32"/><path d="m58.7 10.1c-.3 0-.6.5-1.1 0 1.3-1 2.8-1.8 3.5-3.3.5 0 .8.3 1.1.6-.1.5-.9.4-.9.9-1 .3-1.1 1.2-1.3 2.1-.2 1.1-.4 2.3-.5 3.4 0 .4-.1.7-.7.9-.4-1.4.3-2.7.2-4.1.1-.2.2-.6-.3-.5z" fill="#fef9f8"/><path d="m47.8 14c .3-.9.6-1.8.5-2.7.5-.3 1-.4 1.6-.3.2 1 .2 2 .1 3-.6.5-1.2-.2-1.7.1-.2.4.1.5.3.6-.6.1-.5-.5-.8-.7z" fill="#da3d34"/><path d="m51.3 6c .6-.2 1-.1 1.4.1-.9 2.1.7 4.2 0 6.2-.2 0-.3 0-.5 0-.3-2-.6-4.1-.9-6.3z" fill="#fef8f6"/><path d="m38.1 14.8c.8-.6 1.8-.8 2.6-1.3.5.8.8 1.7 1.1 2.5-.4.7-1.3.2-1.5 1-.1-.2-.1-.4-.2-.6-.2-1.1-1.3-1-2-1.5z" fill="#da3e35"/><path d="m62 5.9c1.7-.2 3.3.9 5.1.1.3.2.7.4.8.9-1.5.5-5.6-.2-5.9-1z" fill="#fef7f5"/><path d="m62 5.6c-1.5.5-2.4 2-4.4 1.9 1.3-1 2.6-1.5 3.1-2.7.6.1 1 .3 1.3.8z" fill="#fef7f5"/><path d="m75.4 9.2c.3.4.5.7.5 1.1-1.2.1-3.7-1.1-3.9-1.9 1.2 0 2.1 1.2 3.4.8z" fill="#fdf3f0"/><path d="m19.3 83.9c0-2.3 0-4.6 0-6.9.5 1.7.2 3.5.2 5.2 0 .6.5 1.2-.2 1.7z" fill="#d33831"/><path d="m100.6 88.2c-2.2 0-4.3 0-6.5 0 .2-.4.7-.3 1-.3h5.5l.1.1c-.1.1-.1.2-.1.2z" fill="#d33831"/><path d="m38.1 15c .6-.1 1.2.1 1.7.4.4.2.7.6.3 1.1-.7-.5-1.5-.8-2-1.5z" fill="#fcf0eb"/><path d="m18.3 88.2c-1.9 0-3.7.1-5.6.1.3-1 1-.3 1.5-.3 1.3-.1 2.7-.3 4.1.2z" fill="#d33831"/><path d="m94 77v4.3c-.3-1.4-.6-2.9 0-4.3z" fill="#d33831"/><path d="m98.1 87.2c0-.1 0-.1 0-.2 1.2 0 2.4-.1 3.5-.1-.1.3-.5.4-.8.6-.8-.6-1.8-.2-2.7-.3z" fill="#d33831"/><path d="m59.2 110.3c.4.4.9.1 1.4.3-.8.3-1.6.2-2.4.2 0-.1 0-.2.1-.3.3-.1.5-.4.9-.2z" fill="#e8dbd8"/><path d="m94 82.1v1.8c-.2-.6-.6-1.2 0-1.8z" fill="#d33831"/><path d="m94 84.9v1.3c-.3-.5-.5-.9 0-1.3z" fill="#d33831"/><path d="m19.3 86.2c0-.4 0-.8 0-1.3.3.4.4.8 0 1.3z" fill="#d33831"/><path d="m62.3 98.6c-.2 0-.3 0-.5-.1.4-.3.8-.3 1.3-.2v.2c-.3.3-.6.3-.8.1z" fill="#b38e86"/><path d="m33.5 92.6c-.3-.2-.2-.5-.2-.8.2.1.4.3.6.4-.2.1-.3.2-.4.4z" fill="#b29995"/><path d="m58.7 10.1c.1-.1.2-.2.4-.2.2.3.1.5-.1.7-.1-.1-.1-.4-.3-.5z" fill="#e7846f"/><path d="m73 16.5h.7c-.2.2-.5.4-.8.5 0-.2.1-.4.1-.5z" fill="#f1b7a3"/><path d="m80 91.8c0 .3 0 .6-.2.8-.1-.2-.2-.3-.4-.4.2-.1.4-.3.6-.4z" fill="#b29995"/><path d="m93.8 88.4c-.2 0-.4 0-.5-.3h.8c-.1.2-.2.3-.3.3z" fill="#d33831"/><path d="m18.3 86.9c.2-.3.5-.2.7-.3-.1.4-.4.3-.7.3z" fill="#d33831"/><path d="m94.3 86.7c.3 0 .6-.1.7.3-.2-.1-.5 0-.7-.3z" fill="#d33831"/><path d="m20.1 88.2c-.1.2-.3.2-.5.3-.1-.1-.2-.2-.3-.2.2-.1.5-.1.8-.1z" fill="#d33831"/><path d="m19 86.7c0-.2 0-.4.3-.5 0 .2-.1.4-.3.5z" fill="#d33831"/><path d="m61.5 8.4v.5c-.2-.1-.2-.3-.3-.5z" fill="#fef9f8"/><g fill="#d33831"><path d="m19 88.2c-.2 0-.3 0-.5 0 .2-.3.4-.3.5 0z"/><path d="m94 86.2.3.3c-.1-.2-.2-.3-.3-.3z"/><path d="m11.9 87v .2c-.1-.1-.2-.2-.2-.3.1 0 .1 0 .2.1z"/><path d="m13.2 87.2h.3c-.1.1-.2.1-.3 0z"/><path d="m15.7 87.2h.3c-.1.1-.2.1-.3 0z"/><path d="m96.6 87.2h.3c-.2.1-.2.1-.3 0z"/><path d="m19.3 76c-.1 0-.1 0-.2 0 0-.1 0-.2 0-.2s.1.1.2.2z"/><path d="m20.3 87.9c-.1.1-.2.2-.3.3z"/><path d="m93.3 88.2c-.1-.1-.2-.2-.3-.3.1.1.2.2.3.3z"/></g><path d="m55.2 101.1c-1.6-.2-3.2-.4-4.7-.6-.4.9-.3 1.9-.6 2.9 1.1.3 2.2.7 3.4 0 .4.3.8.6.9 1.3-1.5.2-2.9-.4-4.4-.4-.2 1.2-.4 2.4-.5 3.6 1.1.5 2.2.3 3.3.7.3-.2.7-.4 1-.6.5.3.9.6 1.2 1.5-4-.4-7.7-1.1-11.5-1.9 1.6-.5 3.2.3 4.8.2.2-1.2.5-2.4.5-3.6-1.2-.5-2.6-.3-3.7-1 1.3-.6 2.5.3 3.8 0 .4-.8.3-1.8.6-2.8-1.6-.3-3.2-.5-4.7-.8 0-.7.4-.6.7-.6 2.3.3 4.5.6 6.8 1 .8.1 1.5.2 2.1-.4.4.4 1 .7 1 1.5z" fill="#da3a32"/><path d="m63.9 110c-.6-.3-1.1-.5-1.7-.8.2-.6.8-.3 1.2-.6.1-1-.3-2-.4-3.1-.8-.2-1.5-.2-1.9.7-.1.2-.2.4-.5.2-.9-1.3-.6-2.9-1-4.4 2.2.2 4.2-.3 6.4-.8 0 0 .3.2.5.3.3.5.2 3.8-.1 4.1-.5.1-.4-.6-.9-.6-.4.1-.9.2-1.4.3-.1 1.1.2 2 .3 3 .3.7.1 1.3-.5 1.7z" fill="#da3b33"/><path d="m62.3 98.6h.8c.2.1.4.1.6.2 0 .5-.5.9 0 1.3h.3c.9-.1 1.8-.3 2.7-.4.3-.3.5-.6.8-.9.5.3 1.2.4 1.4 1.2-3.8.6-7.6 1.3-11.5 1.4 1.5-.9 3.3-.6 4.8-1.2.1-.5.1-1 .1-1.6z" fill="#da3d34"/><path d="m68.7 108.8c-1.1-.9-2.3-1.9-4-2.5 1.6-.5 3.9.3 4.5 1.3.3.4.4.9-.5 1.2z" fill="#db4237"/><path d="m60.8 106.5c.2-.1.3-.2.5-.2.1.6.9.5 1 .8-1.1 1.2-2 2.2-3 3.3-.3.1-.6.3-1 .2.3-.9 1.2-1.3 1.7-2.1.2-.7.9-1.2.8-2z" fill="#db4237"/><path d="m52.3 107.8c-.7-1-1.3-1.8-1.9-2.7 1.8.1 2.7 1.4 1.9 2.7z" fill="#db4238"/><path d="m56.7 91.5c-19.2 0-34.9-15.7-34.9-34.9.1-19.1 15.7-34.8 34.8-34.8 19.2 0 34.9 15.7 34.8 34.9.1 19.1-15.6 34.8-34.7 34.8z" fill="#d93831"/><path d="m8.6 65.3c.4 0 .7-.1 1.1-.3.5 2.1 1 4.1 1.6 6.2.2.6.2 1.4.9 1.9-.3.7-.7 1.1-1.5.9-.1-1.6-.9-2.9-1.2-4.5-.3-1.4-.8-2.7-.9-4.2z" fill="#c73831"/><path d="m103.7 65.1c.3.2.7.3 1.1.3-.3 2.4-1 4.7-1.7 7.1-.2.5-.5 1-.3 1.6-.8.2-1.2-.3-1.5-.9 1.1-1.4 1.2-3.2 1.7-4.9.3-1.1.4-2.2.7-3.2z" fill="#c63831"/><path d="m103.4 64.3c.2.1.3.3.2.6 0-.2-.1-.4-.2-.6z" fill="#c63831"/><path d="m46.5 8.9c-.2-.7-.4-1.3-.2-1.9.9-.1 1.8-.3 2.7-.4.3.6.3 1.2.2 1.9-.8.1-1.7.2-2.7.4z" fill="#da3c33"/><path d="m40.1 11.7c.1.4.3.8.4 1.2-1.1.4-2.1.9-3.2 1.3-.3.1-.4 0-.3-.3.1-.2.2-.4-.1-.6-.5.1-.6.8-1.1.9-.2-.4-.4-.9-.6-1.3.2-.3.5-.4.8-.5.4-.2.6-.1.7.3.8.4 1.4-.4 2-.5s1-.4 1.4-.5z" fill="#da3e35"/><path d="m36.8 12.7c-.2-.1-.5-.2-.7-.3.1-.2.5-.2.4-.5s-.3-.3-.6-.3c.3-.8 1.2-.7 1.7-1.1.4.3.5.7.5 1-.2.8-1.3.3-1.3 1.2z" fill="#db4036"/><path d="m33.5 11.2c.3.4.7.9.3 1.5-.6-.5-.3-1-.3-1.5.1-.1 0 0 0 0z" fill="#df5a48"/><path d="m37.1 13.9c.1.1.2.2.3.3-.2.2-.4.4-.6 0 .1-.1.2-.2.3-.3z" fill="#eb9782"/><path d="m61.3 104.9c-.1-.7-.2-1.3-.3-1.9 1.5-.5 3-.5 4.5-.8.4.6.3 1.2.4 1.9-1.5.5-3 .5-4.6.8z" fill="#fefcfc"/><path d="m79.5 62c .1 2.3.4 4.5-.3 6.8-.8-.9-1.1-2.1-2.2-2.8-1.3 3.7-2.2 7.6-5 10.6-.5-.1-.3-.4-.3-.7 0-.2 0-.4 0-.9-1.1.9-1.5 2-2.3 3.2.1-1.3.5-2.2.2-3.5-1.3 2.6-3.1 4.4-5.7 5.2-.5 2.9-2.6 4.5-4.7 6-1.2.9-4.2.7-5.4-.2-2-1.5-3.8-3.1-4.4-5.8-2.5-.9-4.4-2.6-5.5-5.4-.4 1.4 0 2.4.1 3.5-.7-1-1.3-1.9-1.9-2.9-.7.4-.2 1-.6 1.4-2.9-2.9-3.8-6.8-5.1-10.6-1.1.7-1.4 1.8-2.2 2.9-.7-2.4-.4-4.6-.3-6.9.1-.3 0-.6-.1-1-.3-.7-.1-1.2.5-1.7.9.2.9 1 .8 1.6-.2 1.4.1 2.8 0 4.1h.1.1c.7-.6.9-1.5 1.6-2.1.6.1.7.5.8 1 .5 3.1 1.2 6 2.5 8.7 0-.9-.3-2 .5-3.4 1 1.4 1 2.9 1.9 4.1.7-2.4.7-4.9 2-7 .4-.4.7-.8 1.2-.9h.4c.5.4.3.8.2 1.2-.3.9-.4 1.8-.6 2.9.5-.2 1-.7 1.7-.4.2 1.2-1.1 1.9-1 3.1 0 1.7.7 3.3 1.5 4.8.3.6.9.9 1.5 1.1.7.2 1.5.4 2.2.7 1.2.5 2.3.4 3.4-.3.9-.4 1.3-1 1.3-2 0-.5-.1-1.1.7-1.5.9 1 0 3 1.7 3.4 1 .6 2 .7 3.1.3.4-.1.7-.2 1.1-.3 3-.9 4.7-3.7 4.1-6.9-.1-.8-.9-1.4-.9-2.2.1-.2.2-.3.4-.4.4 0 .8.3 1.3.5-.1-.9-.3-1.7-.5-2.5-.1-.6-.3-1.2.4-1.6h.4c1.2.7 1.7 1.9 2 3.2.3 1.5.7 3 .9 4.7.8-1.2.9-2.4 1.5-3.5.2-.2.4-.3.7-.2.4.8.2 1.8.2 2.7v.2c.1 0 0-.1.1-.2.7-1.5 1.3-3.1 1.7-4.7s.4-3.3 1.2-4.8c1.1.4 1.1 1.6 1.9 2 .2-1.2.3-2.4.3-3.7 0-.6 0-1.2.4-1.7 1-.1 1 .5.9 1.2-.4.8-.7 1.1-.5 1.6z" fill="#020203"/><path d="m42.9 35.4c2.1-.1 4.1-.6 5.9-1.5 1.4-.7 2.9-1.2 4.5-1.4 1.7 1.2 3.5.6 5.4.7.5 0 .9-.5 1.3-.7 1.6.2 3.1.7 4.5 1.4 1.9.9 3.8 1.4 5.9 1.5 1.2.3 2.4.2 3.6-.3 1.7-.7 3.4-.4 5-.1.2 1.2 0 1.6-1 1.9-.3.1-.6.1-.8.3-1.8.5-3.6 1.1-5.5 1.3-1.5.1-2.9-.1-4.2-1-.5-.4-1.1-.7-1.8-1-.2-.1-.4-.2-.6-.3-.1 0-.2-.1-.3-.1-.2-.1-.4-.2-.6-.2-.1 0-.2-.1-.3-.1-.3-.1-.6-.1-.9-.1-.1 0-.2 0-.3-.1-.5-.1-.9-.1-1.4-.2-.5-.2-1-.1-1.5-.2-2-.1-4-.1-6 0-.5.1-1 .1-1.5.2s-1 .1-1.5.2c-.1 0-.2.1-.4.1-.3.1-.6.1-.9.3-1 .4-2.1.6-3 1.3-1.9 1.4-3.9 1.5-6.1 1.1-1.4-.3-2.7-.6-4-1-.3-.2-.7-.3-1.1-.5-.3-.3-.5-.6-.5-1.1.1-.4.4-.5.8-.6 1.2-.6 2.5-.4 3.7 0 1 .2 2.3.5 3.6.2z" fill="#030203"/><path d="m35.6 35.3c-.2 0-.5-.1-.7.3.1.3.3.6.4 1-1.1 2.4-.7 4.7 0 7.1.7 1.2.5 2.7 1.5 3.9.8-.6 1-1.5 1.4-2.1.6-.7.8-1.7 2-2.1.6 1.7-.6 2.9-.8 4.4 1.4-.8 2.4-2.2 4.1-2.5.2.1.3.2.4.4 0 .5-.3.8-.6 1.1-2.8 2.4-4.9 5.3-6.4 8.7-.1.2-.3.4-.5.6-.1.1-.2.1-.3.2-.1 0-.1 0-.2 0-.8-.3-.9-.9-.8-1.6.1-.5.1-1.1.2-1.6.1-1.2 1.1-2.1 1.1-3.2-1.2-2.9-2.2-5.8-2.9-8.8-.1-2.1-.1-4.3.9-6.2.6-.3 1-.3 1.2.4z" fill="#070302"/><path d="m80.1 40.4c0 .2-.1.3-.1.5 0 .1-.1.2-.1.3-.6 2.5-1.3 5-2.4 7.4-.5 1.1-.4 1.9.1 2.8.2.4.4.9.5 1.4 0 .8 0 1.6.1 2.3.1.6 0 1.1-.6 1.3-.1 0-.2 0-.3-.1s-.2-.3-.3-.4c-.2 0-.2-.1-.2-.2-.1-.2-.2-.4-.4-.5-.3-.4-.6-.9-.8-1.4-1.1-2.6-3-4.7-5.1-6.6-.5-.5-1.2-.9-1.3-2 2.1.3 3.4 1.7 4.8 2.9-.3-1.5-1.4-2.9-1-4.6 1.1.2 1.4 1.1 1.9 1.8.1.2.2.4.3.6.1.1.1.2.2.3.1.2.2.4.4.6.2.3.3.7.8.8 1.1-1.5 1-3.4 1.7-5.1.6-1.1.1-2.5.8-3.6 1 .1 1 .8 1 1.5z" fill="#080302"/><path d="m77.3 56.4c.2-.2.4-.4.6-.5.1-1.1-.7-2.1.1-3.1 1.5 2.8 2.7 5.7 3.3 8.8-.7.2-1.1-.5-1.7-.4-.3.1-.1.5-.2.7-.6-.7.6-1.5-.2-2.2-.4-.1-.5.2-.5.4.2 1.5-.4 3-.1 4.5.1.4.3 1.2-.7.8-.2-2.3-.6-4.6-1.5-6.8-.2-.5-.4-.9-.3-1.5.1-.2.2-.3.4-.3s.4 0 .6.1c.3 0 0-.3.2-.5z" fill="#0c0707"/><path d="m35.3 53c .2.4.3.8.1 1.3-.3.8-.1 1.5.7 1.9.4.6-.1.9-.4 1.3-.1.1.2.1 0 0-.1 0 0-.1 0-.1.2-.2.4-.4.7-.4.2 0 .3 0 .5.1.3.2.1.5.1.8 0 .1-.1.2-.1.3-.1.2-.2.4-.2.6 0 .1-.1.2-.1.3-.1.1-.1.3-.2.4 0 .1-.1.2-.1.3-.1.2-.1.4-.2.6 0 .1-.1.2-.1.3-.3 1.1-.4 2.2-.6 3.4-.1.5-.3 1-.2 1.6-.2.3-.4.3-.7.1 0-2 0-4 0-6.2-1.3.7-.2 1.8-.7 2.6 0-.2 0-.5-.1-.7-.8-.3-1.1.6-1.8.4.1-1.5.7-2.9 1.2-4.3.7-1.7 1.3-3.2 2.2-4.6z" fill="#0c0807"/><path d="m80.1 40.4c-.2-.5-.5-1-.7-1.4-.5 1.2-.1 2.6-.9 3.7-.5-.8-.1-1.6-.1-2.3 0-.5 0-1.1 0-1.6 0-.4-.1-.8-.3-1.2-.3-.4-.8-.3-1.1-.6.3-.6 1.1-.1 1.7-.7.1-.1.2-.5.2-1-.7-.5-1.6.7-2.1-.4-1.8.2-3.4.6-5 1-.4.1-1-.3-1.5-.4 2.9.2 5.4-1.6 8.3-2 1.1 2.1 3 4.1 1.5 6.9z" fill="#0b0707"/><path d="m35.6 35.3c-.3-.3-.5-.5-1.1-.4-.2 1.4-.9 2.6-.7 4.1.1.7.1 1.4-.3 2-1.7-2.9-.2-5.2 1.2-7.6 2.9.4 5.3 2.1 8.2 2-1.1.8-2.3.3-3.3.1-.9-.2-1.9-.3-2.8-.6-.4.1-.8.2-1.2.4z" fill="#0b0707"/><path d="m60 32.4c-.1.8-.7 1.1-1.3 1.1-1.3.1-2.5.1-3.8 0-.7 0-1.3-.4-1.6-1.1 2.3-.6 4.5-.6 6.7 0z" fill="#0e0706"/><path d="m32 61.7c0 .1-.1.1-.1.2-.1-.1 0-.1.1-.2z" fill="#441512"/><path d="m79.8 41.2c0-.1.1-.2.1-.3 0 .1 0 .2-.1.3z" fill="#0b0707"/><path d="m77 36.9h1c .4.4.6.9.7 1.5-1.2 1.8-1.7 3.9-2.7 5.7-.1.2-.2.4-.3.6 0 .1-.1.2-.2.3-.2.2-.3.5-.6.6-.5-.7-1-1.3-1.7-2.3-.1 2.1 1.1 3.6 1.4 5.6-1.7-1.5-3.2-2.8-5.2-3.4 3 2.8 5.6 6 7.3 9.7.2.1.1.4.3.5 0 .1 0 .2.1.2.1.1.1.2.2.3 0 .1 0 .1.1.2.1.3.3.7.4 1.1-.4 0-.7-.2-1-.4-.3-.1-.6-.3-.8.1.2 1.2.4 2.3.4 3.5-.2.5-.7.4-1 .9-.3 1.9-.6 3.9-1.4 5.6-.6.2-.8-.2-1.2-.1-.6.2-.8 1.1-1.7 1.1-1-.7-1.8-1.9-2.9-2.7-.1-.1-.2-.2-.3-.2l-.1-.1-.1.1v.1h-.1c-.4 1.3.5 2.4.5 3.7 0 .3.2.6 0 1.1-.6-.4-1.1-.7-1.6-1.1-.2 0-.4 0-.3.3.3.8 1 1.3 1.1 2.2-1.9-.5-3.7-.2-5.4.7-.3.1-.5.3-.8.3-.5-.1-.3-.4-.2-.7.2-.3.5-.6.4-1 0-.1-.1-.2-.1-.3v-.1c0-.1-.1-.2-.3-.1-.1 0-.3.1-.4.1-.2.1-.3.1-.5.2-2.2.5-4.3.5-6.5 0-.4-.1-.8-.3-1.2 0-.5.4.3 1.1-.3 1.6-1.6-.3-3.1-1.1-4.8-.9-.5.1-.6.8-1.2.7 0-1.1.9-1.9 1.3-2.9-.9 0-1.3.8-2 1.1-.1-1.7.9-3.2.7-4.9l-.1-.1-.1-.1c-.1 0-.2.1-.3.1-.5.3-.9.7-1.3 1-.7.6-1.2 1.4-1.9 1.9-.9 0-1.1-.8-1.6-1.1-.4-.3-.7.3-1.2.2-1.1-1.8-1.2-4-1.7-6-.7-.2-.8-.8-.8-1.4 0-.9.4-1.7.4-2.6-.2-.4-.5-.2-.8-.1s-.6.3-1 .5c.2-.6.3-1 .5-1.4.1-.1.1-.2.2-.3 1.7-4 4.2-7.3 7.4-10.1.1-.3 0-.4-.3-.3-1.7.8-3 1.9-4.6 3.3.2-2 1.3-3.4 1.3-5.3-.9.5-1.1 1.5-1.8 2.1-.5-.1-.6-.6-.8-.9-.8-1.6-1.6-3.3-2.2-5-.2-.5-.6-.9-.9-1.4.1-.5.4-1 .7-1.4.4-.2.8-.3 1.1 0 2.2.5 4.3 1.3 6.6 1.3.9 0 1.6-.2 2.4-.7 1.3-.9 2.7-1.6 4.2-1.9.3-.1.6 0 .8-.2.1 0 .1-.1.2-.1.3-.1.6-.1.9-.1.1 0 .2.1.2.3 0 .1-.1.2-.2.3-.2.1-.4.2-.7.4-1.1.5-2.2.9-3.3 1.8 2.9-.8 5.9-.7 8.6-2.1.4-.2.8-.2 1.2 0 2.6 1.3 5.5 1.3 8.2 2 .1 0 .2.1.3.1.2 0 .3-.1.1 0-.2 0 0-.2-.1-.1-.5-.3-1-.6-1.5-1-.1-.1-.2-.2-.4-.3-.1 0-.2-.1-.2-.1-.1-.1-.2-.1-.4-.2-.1 0-.2-.1-.3-.1s-.3-.1-.4-.1-.2-.1-.3-.1c-.2-.1-.4-.2-.6-.3-.1-.1-.1-.2 0-.3.4-.2.7-.1 1.1 0h .2c.3.3.7 0 1 .2.2.2.6 0 .8.3.2.2.4.1.6.2.7.1 1.3.4 1.8.8 2 1.7 4.2 1.4 6.5.9 1.3-.3 2.4-.7 3.5-1z" fill="#e94c43"/><path d="m60.7 72.5c1.4-.6 2.8-1.4 4.5-1.5.8 0 1.5.1 2 .6.8 2.7-1.2 6.3-3.9 7.1-1 .3-2.1.6-3.1.8-.7-.1-1.2-.5-1.8-.8-.5-.3-.9-.8-1.3-1.2-.1-1.3-.1-2.6.7-3.9 1.1.1 1.8-1.1 2.9-1.1z" fill="#fff"/><path d="m46 72.1c.2-.3.4-.6.7-1 2-.5 3.8.3 5.6 1.1.4 0 .8.2 1 .4.6.6 1.3 1 2.2 1 .8 1.2.8 2.5.8 3.8-.4.5-.8 1-1.3 1.3-1 .7-2.1.6-3.3.4-3.3-.4-4.8-2.5-5.5-5.4-.2-.5-.3-1-.2-1.6z" fill="#fff"/><path d="m50.8 80.8c2.3.2 4.3-.3 5.9-2.2 1.5 1.9 3.5 2.5 5.8 2.2-.4 1.8-1.4 3.1-3.4 4-.2-.2-.4-.3-.6-.5-.5.2-.4.7-.7.9-.9-.6-1.2-.6-2.1 0-.4-.1-.3-.7-.6-.8-.5-.3-.4.4-1 .2-1.4-.6-2.9-1.6-3.3-3.8z" fill="#fefefe"/><path d="m67.9 65.2c1.4.6 2.4 1.7 3.2 3 .8-.5 1-1.2 1.6-1.7.5 0 .6.5 1 .8.8-2.1 1.2-4.2 1.4-6.2.4-.4.7 0 1-.2.3-1.3-.5-2.6-.3-3.9.3-.2.4 0 .5.2 1.2 2.4 1.7 5 2.1 7.6 0 .3.2.7-.3.8-.6-.8-1.1-1.6-1.8-2.5-.6 3.4-1.2 6.7-2.8 9.7-.6 0-.4-.4-.4-.7 0-.8 0-1.6 0-2.4-.4-.1-.5.1-.6.3-.3 1.5-.8 3-1.8 4.7-.1-2.1-.6-3.7-.9-5.4-.3-1.4-.7-2.6-1.9-3.5-.2-.3-.2-.4 0-.6z" fill="#fefcfc"/><path d="m38.1 61c .4 1.8.7 3.6 1.3 5.4.1.3.2.6.3.9.4-.2.5-.7.9-.8.7.3.9 1.2 1.5 1.7.8-.5 1.1-1.7 2.1-2.1.3-.2.5-.2.5.3-1.2 2.2-1.5 4.5-1.9 6.9 0 .3 0 .6-.1 1-.9-.6-.9-1.5-1.3-2.2s-.5-1.6-.9-2.6c-.7 1.6-.1 3-.1 4.6-2-3.5-2.8-7.2-3.5-11.1-.7.9-1.2 1.7-1.8 2.5-.6-.5-.2-1 0-1.5.4-1.2.4-2.6.8-3.8.3-.2.1-.5.3-.8.2-.1.2-.4.3-.6v-.1l.1-.1c.2-.2.1-.4.2-.6 0-.1 0-.1.1-.2.6 0 .5.3.4.7-.2.8-.2 1.6 0 2.3.3.5.5 0 .8.2z" fill="#fdfcfc"/><path d="m54.9 78.7c.4-.4.8-.9 1.1-1.2.6-1.4-.5-2.5-.5-3.6-.5-.3-.8 0-1.1 0-.7-.6-1.5-1.2-2.2-1.7-.1-.6-1.3-1-.3-1.7.5-.2 1 .1 1.5.3 2.5 1.2 4.9.8 7.3-.3h.6c.6.2.5.5.2.9s-.6.7-.9 1c-.6.4-1.1.9-1.7 1.3-.3.3-.7-.3-1.2.2 0 1.1-1.1 2.1-.5 3.6.3.3.7.8 1.1 1.2-.8 0-1-.7-1.5-1.1 0-.8-.1-1.5-.1-2.3-.1 0-.2 0-.4 0 0 .7-.1 1.4-.1 2.2-.2.5-.5 1.2-1.3 1.2z" fill="#0c0808"/><path d="m72.4 69.9c-.1-.3-.1-.7.4-.9.9 1.1 0 2.5.6 3.7 0 .5-.2.9-.7 1.4-.1-1.4.4-2.5.2-3.7 0-.3.2-.8-.5-.5z" fill="#dbd4d3"/><path d="m44.7 66.4c-.1-.2-.3-.3-.5-.3.4-.5 1-.8 1.5-1.1.2-.1.3 0 .3.3 0 .1-.1.2-.2.2-.4.3-.7.6-1.1.9z" fill="#efdbda"/><path d="m66.1 69.4c-.2-.1-.3-.3-.2-.6.2 0 .4.1.4.3 0 .1-.1.2-.2.3z" fill="#b8332b"/><path d="m67.9 65.2c0 .1 0 .3-.1.4-.1-.1-.2-.1-.4-.2 0-.1 0-.1-.1-.2-.1-.2 0-.3.3-.3.1.2.2.3.3.3z" fill="#e9d7d8"/><path d="m45.7 65.5.2-.2.1.1c-.1 0-.2.1-.3.1z" fill="#daacaa"/><path d="m51.4 35.6h.2c.1-.1.2-.1.3-.2.2-.1.5-.3.7-.3.4 0 .7-.1 1-.2.6-.7 1.4-.1 2.1-.2 1.3-.2 2.7-.2 4 .2.4.2.7.2 1.1.3.3.1.6.2.9.5h.2c.2.1.4.1.5.2.1 0 .1.1.2 0 .2.1.4.1.6.2.1 0 .1.1.2 0 .1 0 .2.1.3.2 0 .1.1.1.2.1s.2.1.3.2c.7.4 1.3.9 2 1.3 0 .5-.3.3-.5.3-3-.7-6.2-.7-9.1-2.3-3.1 1.8-6.6 1.5-9.9 2.4 1.1-1.3 2.6-1.8 4.1-2.5.2-.1.4-.1.6-.2z" fill="#0e0706"/><path d="m36.3 36.9c-.3 0-.7 0-1 0-.3.5-.6.9-.7 1.5.3 1.8 1 3.7.5 5.6-.8-2-1.1-4.1-.6-6.3.1-.4.3-.9.8-1.1.4 0 .8-.2 1 .3z" fill="#0b0707"/><path d="m61.8 35.5c-.3-.1-.7-.2-1-.3-.1-.5.3-.3.5-.3.5.1 1.1 0 1.6.3-.4.2-.9 0-1.1.3z" fill="#bd352d"/><path d="m52.6 35.3c-.3.1-.5.1-.8.2-.1-.1-.2-.1-.3-.2-.3 0-.7 0-1-.1.5-.3 1-.2 1.6-.3.2 0 .5-.1.5.4z" fill="#bb332a"/><path d="m52.6 35.3c-.2-.1-.3-.2-.5-.3.5-.4 1-.2 1.5-.2-.3.3-.6.5-1 .5z" fill="#741a16"/><path d="m61.3 35c-.2.1-.3.2-.5.3-.4 0-.8-.2-1-.5.4 0 1-.2 1.5.2z" fill="#711c17"/><path d="m64 35.6c-.4 0-.7.1-1-.2.4-.1.7-.1 1 .2z" fill="#da4138"/><path d="m64.8 35.8c-.3 0-.6 0-.8-.3.3 0 .6.1.8.3z" fill="#da4138"/><path d="m50.3 35.3c-.2.3-.5.3-.8.2.2-.2.5-.2.8-.2z" fill="#d43c34"/><path d="m53.4 34.2c-.1.1-.3.1-.4 0 .2-.2.3-.2.4 0z" fill="#310e0e"/><path d="m60.3 34.2c-.1 0-.1 0-.2 0v-.1c.1 0 .2.1.2.1z" fill="#320f0f"/><path d="m65.4 36c-.2 0-.4 0-.6-.2.2 0 .4 0 .6.2z" fill="#da4138"/><path d="m35.1 43.9c-.1-1.9-.9-3.7-.5-5.6.5.1.8.4 1 .9.8 2.2 1.9 4.2 2.8 6.4-.4.9-.7 1.8-1.5 2.6-1.3-1.2-1.2-2.9-1.8-4.3z" fill="#fcf9f9"/><path d="m43.4 45.4c.1-.2.3-.3.5-.1.1.2 0 .4-.2.4-.1 0-.2-.2-.3-.3z" fill="#731916"/><path d="m36.3 55.9c-.1.1-.1.2-.2.3.1-.1.1-.2.2-.3z" fill="#0c0807"/><path d="m75.7 44.2c.7-1.7 1.4-3.4 2.2-5 .2-.4.5-.7.9-.8.3 1.5-.2 2.9-.3 4.3-.4 1.5-.8 2.9-1.2 4.4-.1.4-.2 1-.8 1-.6-.3-.7-1-1-1.5-.2-.1-.1-.4-.3-.5-.2-.5.2-.9.3-1.3.1-.2.1-.5.2-.6z" fill="#fdfafa"/><path d="m75.5 44.7c.1.5-.2.9-.3 1.3-.2-.1-.2-.3-.2-.5.1-.2.1-.6.5-.8z" fill="#f1c6c3"/><path d="m75.2 46c .2.1.3.3.3.5-.2-.1-.3-.3-.3-.5z" fill="#f1c6c3"/><path d="m77 55.7c-.2-.1-.3-.3-.3-.5.3.1.3.3.3.5z" fill="#0c0707"/><path d="m77.2 56.2c-.1-.1-.1-.2-.2-.3.1.1.2.2.2.3z" fill="#0c0707"/><path d="m76.2 57.1c-.2-.1-.3-.1-.5-.2.5-.5.7 0 1 .2-.1.1-.3 0-.5 0z" fill="#b24640"/><path d="m38.1 61c-.3.1-.5.6-1.1.3-.1-.9 0-1.8.1-2.7.1-.4 0-.6-.3-.7.1-.3.2-.5.3-.8.1-.2.2-.4.5-.2.2 1.3-.6 2.5-.3 3.8.2.5.7-.2.8.3z" fill="#f9efef"/><path d="m36 60.2c-.1 1.3-.1 2.6-.8 3.8.2-1.3.2-2.6.8-3.8z" fill="#f9efef"/><path d="m37.6 56.9c-.2.1-.3.1-.5.2-.2 0-.4 0-.6 0 .4-.2.7-.6 1.1-.2z" fill="#b2443f"/><path d="m36.3 59.4c0 .3.1.6-.3.8 0-.3 0-.6.3-.8z" fill="#f9efef"/><path d="m36.8 58.1c0 .2 0 .5-.2.6 0-.2 0-.5.2-.6z" fill="#f9efef"/><path d="m36.5 58.8c0 .2 0 .5-.3.6.1-.2.1-.4.3-.6z" fill="#f9efef"/><path d="m65 64.8c-1.2-.5-2.2-1.3-3.1-2.1-.4-.4-.8-.8-.9-1.4-.1-1-.4-1.8-.9-2.7-.5-.8.3-1.8.1-2.7 0-.3-.4-.7.3-.8.3.5.6 1 .9 1.6.3.3-.1.8.2 1.1.5.3.8-.1 1.1-.3.8-.6 1.6-1.1 2.5-1.5 2-.7 3.3-2 4-4.1.2-1.2-.3-2-1.2-2.8-.4-.4-.9-.7-.8-1.3 2.3.6 6.2 5.5 6.5 8.3-1.3 0-1-1.5-2-1.8.4 2 .1 3.7-1.4 5.1-.6-.1-.3-.5-.3-.8 0-.6.3-1.2-.2-1.8-.7-.1-1.4.2-1.7.7-1.1 2-2.8 2.7-4.9 2.6-.7 1.3.1 2.2.7 3 .4.5.9 1 1.3 1.5.1.3-.1.3-.2.2z" fill="#060303"/><path d="m52 56.7c.3-.5.6-1 .9-1.6.6.1.3.5.3.8 0 .5.1.9.1 1.4 0 .3.2.6.1.9-.9 2.4-1.3 5.1-4.2 6.2-.3.1-.6.3-.9.5-.1.1-.2.1-.3-.1.6-.9 1.6-1.5 2.1-2.5.3-.6.4-1.2.1-1.8-.4-.3-.9-.2-1.4-.3-1.3-.2-2.5-.7-3.2-2-.5-.8-1.2-1.3-2.1-1.4-.6.9-.1 1.8 0 2.9-.9-.8-1.5-1.6-1.8-2.6-.2-.7 0-1.5-.1-2.2 0-.2 0-.6-.4-.3-.6.4-.4 1.6-1.5 1.5.3-2.7 4.1-7.6 6.7-8.3-.6 1.5-2.6 2.3-2.1 4.1.6 2.3 2.3 3.4 4.3 4.3.7.3 1.3.8 1.9 1.2.4.3.7.6 1.2.5.4-.3 0-.8.3-1.2z" fill="#070303"/><path d="m52 56.7c.1.5.6 1.1 0 1.6-.5.2-.8 0-1.1-.2-1.3-1.1-2.8-1.8-4.3-2.6-1.4-.8-2.4-1.9-2.4-3.6.4-.4.8-.8 1.4-.7 1.5.3 3 .5 4.5.8.7 1.6 1.1 3.2 1.9 4.7z" fill="#fefefe"/><path d="m69.1 51.9c.1 1.4-.7 2.5-1.7 3.2-1.7 1.2-3.8 1.8-5.4 3.2-.1.1-.4.1-.6.1-.6-.6-.1-1.1-.1-1.7.6-1.5 1.2-3 1.9-4.7 1.5-.2 3-.5 4.6-.8.7 0 1 .4 1.3.7z" fill="#fffefe"/><path d="m63.2 46c-2.3-.3-4.5-1.2-7-1.1-2.1.1-4.1.9-6.2 1.1-.3.1-.6.2-.5-.3 1.4-1.2 2.8-2.3 4.6-3 3-1.1 5.4-.1 7.8 1.5.7.4 1.2 1 1.8 1.6.1.4-.2.3-.5.2z" fill="#0d0605"/><path d="m47 42.6c2.4-3.6 6.1-4.6 9.7-4.6s7.3 1 9.6 4.6c-6.5-3.8-12.7-3.8-19.3 0z" fill="#120604"/><path d="m53.5 46.8c1.5-1.2 5-1.2 6.2 0-.6 1-.6 1-3 2.5-2-.8-2.2-1-3.2-2.5z" fill="#130503"/><path d="m60.8 70.7c-3 1.9-5.9 1.3-8.8-.2-.1-.5.2-.5.5-.4 2.6.8 5.1.7 7.7.3.1-.1.2-.1.3-.2.2 0 .3-.1.5-.1.3-.1.3 0 .3.3-.2.2-.4.1-.5.3z" fill="#f9f8f8"/><path d="m58.8 57.8c-1.4-1.2-2.8-1.2-4.2-.1.5-1.3 1.3-2.4 2.2-3.6.8 1.2 1.5 2.3 2.3 3.4-.2.1-.3.2-.3.3z" fill="#280e09"/><path d="m61.3 69.3c0-1.8 0-3.5 0-5.2 1.6.8 1.6 3.4 0 5.2z" fill="#320c02"/><path d="m51.6 68.9c-.6-1-.7-2.1-.8-3.2 0-.7.3-1.2 1.1-1.6v4.5c.1.3-.1.3-.3.3z" fill="#2f0a02"/><path d="m41.2 54.6c.1-.2.2-.4.3-.5h.2v3.1c-.7-.8.1-1.8-.5-2.6z" fill="#95251e"/><path d="m60.5 55.2c-.3.2-.2.5-.3.8-.3-.4-.3-.9-.2-1.3.4-.1.4.2.5.5z" fill="#612420"/><path d="m70.1 58.7c.1.3-.1.6.3.8-.1.2-.2.5-.6.5 0-.5 0-1 .3-1.3z" fill="#94261e"/><path d="m53.1 56c-.1-.3 0-.6-.3-.8.1-.2.1-.4.2-.5.2-.1.4 0 .3.3.1.3.1.6-.2 1z" fill="#5d2320"/><path d="m65.8 38.2c.2-.1.3-.2.5-.3.2.1.4.1.4.4-.3.1-.6.1-.9-.1z" fill="#782b26"/><path d="m63.2 46c .2-.1.4-.1.6-.3.2.1.4.2.4.4-.4.2-.7.1-1-.1z" fill="#74201b"/><path d="m49.5 45.7c.1.3.3.2.5.3-.3.2-.6.3-.9.2.1-.3.2-.4.4-.5z" fill="#7c231d"/><path d="m53.4 54.9c-.1-.1-.2-.2-.3-.3.1-.2.2-.3.4-.3.2.2.1.4-.1.6z" fill="#ae3a34"/><path d="m42.3 67.2c-.1-.3 0-.4.2-.5.2.3 0 .4-.2.5z" fill="#ec6560"/><path d="m51.6 68.9c.1-.1.2-.2.3-.3.2.2.3.4.1.7-.3-.1-.4-.2-.4-.4z" fill="#87211c"/><path d="m46 65.3c-.1-.1-.2-.2-.3-.3.1-.1.2-.2.4-.2.2.3.1.4-.1.5z" fill="#daacaa"/><path d="m67.6 65c-.1.1-.2.2-.3.3-.2-.1-.3-.2-.2-.4.2-.2.4-.1.5.1z" fill="#e29c9b"/><path d="m61.3 70.4c-.1-.1-.2-.2-.3-.3.1-.2.3-.2.4-.1.1.2.1.3-.1.4z" fill="#efd0ce"/><path d="m48 64.8c.1 0 .2 0 .3.1-.1.1-.3.2-.4.2-.1-.1 0-.2.1-.3z" fill="#8a201b"/><path d="m60.8 70.7c.1-.2.3-.3.5-.2l.1.1c-.3-.1-.4 0-.6.1z" fill="#efd0ce"/><path d="m62.5 35.8c-.2 0-.4 0-.5-.2.2 0 .4 0 .5.2z" fill="#da4138"/><path d="m63.3 36.1c-.2 0-.4 0-.6-.2.3-.1.4-.1.6.2z" fill="#da4138"/><path d="m75.7 44.2c0 .2 0 .4-.2.5-.1-.2 0-.4.2-.5z" fill="#f1c6c3"/><path d="m51.4 35.6c-.2.2-.4.2-.6.2.1-.2.3-.3.6-.2z" fill="#d43c34"/><path d="m65 64.8c.1 0 .2 0 .3-.1.1.1.1.2.2.3-.2.1-.4.1-.5-.2z" fill="#8a231b"/><path d="m51.6 35.3c.1.1.2.1.3.2h-.1-.1c-.1 0-.1-.1-.1-.2z" fill="#d43c34"/><path d="m63.8 36.3c-.1-.1-.2-.1-.3-.2.1.1.2.1.3.2z" fill="#da4138"/><path d="m64.3 36.6c-.1-.1-.2-.1-.3-.2.1 0 .2.1.3.2z" fill="#da4138"/><path d="m65.5 65c .1.1.1.1 0 0z" fill="#c6392f"/><path d="m60.5 70.2c-.1.1-.2.1-.3.2.1-.1.2-.1.3-.2z" fill="#efd0ce"/><path d="m71.6 69.9s-.1.1 0 0c-.1 0-.1 0-.1-.1z" fill="#fdebeb"/><path d="m42.3 69.6c-.3.2-.5.3-.5.3-.1-.1 0-.2.5-.3z" fill="#fdf0f1"/><path d="m56.6 72.8h.2v.1c-.1-.1-.2-.1-.2-.1z" fill="#3c110e"/><path d="m67.5 56.9c-1 1.7-1.6 2-3.7 1.7 1.3-.8 2.3-1.7 3.7-1.7z" fill="#e9e7e7"/><path d="m49.6 58.5c-2.1.5-2.6.2-3.8-1.6 1.5-.1 2.4 1 3.8 1.6z" fill="#eceaea"/></svg>