<?xml version="1.0" encoding="UTF-8"?>
<svg id="uuid-510c4b62-21b1-4d8d-9c0a-3d7a43960afb" data-name="Capa 1" xmlns="http://www.w3.org/2000/svg" viewBox="0 0 566.93 566.93">
  <defs>
    <style>
      .uuid-293700b6-d6e7-4435-8d08-64aa44fa6ee6 {
        fill: #fff;
      }

      .uuid-879c29eb-cb54-4a7f-8599-ca2fc477b600 {
        fill: #35495e;
      }

      .uuid-4dad4e76-8454-4653-aa66-bb23d32a025f {
        fill: #b2b2b2;
      }

      .uuid-e3aa3b72-2a3f-434d-b6c3-25a672bf3e76 {
        fill: #f1c410;
      }
    </style>
  </defs>
  <path class="uuid-879c29eb-cb54-4a7f-8599-ca2fc477b600" d="M284.36,16.67c-.3,0-.6-.01-.9-.01C136.11,16.66,16.66,136.11,16.66,283.46s119.45,266.81,266.81,266.81c.3,0,.6-.01.9-.01,146.94-.49,265.91-119.74,265.91-266.79S431.3,17.16,284.36,16.67Z"/>
  <path class="uuid-e3aa3b72-2a3f-434d-b6c3-25a672bf3e76" d="M480.9,86.03c52.74,52.74,81.78,122.86,81.78,197.43s-29.04,144.7-81.78,197.43c-52.74,52.74-122.85,81.78-197.43,81.78s-144.69-29.04-197.43-81.78C33.29,428.16,4.25,358.05,4.25,283.46s29.04-144.69,81.78-197.43C138.77,33.3,208.89,4.26,283.46,4.26s144.69,29.04,197.43,81.77ZM556.68,283.46c0-150.65-122.57-273.21-273.22-273.21S10.24,132.81,10.24,283.46s122.57,273.22,273.22,273.22,273.22-122.56,273.22-273.22Z"/>
  <g>
    <path class="uuid-293700b6-d6e7-4435-8d08-64aa44fa6ee6" d="M77.23,203.28l-1.88,5.87-15.6-5.01,8.7,7.51-1.29,4.03-11.44,1.05,15.6,5.01-1.79,5.56-23.54-7.56,2.18-6.81,13.29-1.48-9.95-8.92,2.18-6.81,23.54,7.56Z"/>
    <path class="uuid-293700b6-d6e7-4435-8d08-64aa44fa6ee6" d="M77.92,201.62l-19.08-17.8,2.79-6.16,25.96,2.6-2.63,5.82-5.23-.68-3.2,7.07,3.96,3.49-2.57,5.66ZM75.08,184.79l-8.47-1.07,6.39,5.66,2.08-4.59Z"/>
    <path class="uuid-293700b6-d6e7-4435-8d08-64aa44fa6ee6" d="M94.72,167.9l-6.5,11.6-3.76-2.11,1.73-3.1-14.03-7.87-1.74,3.1-3.77-2.11,6.5-11.6,3.76,2.11-1.73,3.1,14.03,7.87,1.74-3.1,3.77,2.11Z"/>
    <path class="uuid-293700b6-d6e7-4435-8d08-64aa44fa6ee6" d="M108.49,147.31l-3.39,4.92-19.59-1.94,14.19,9.78-3.22,4.67-20.35-14.03,4.32-6.27,16.13,1.55-11.66-8.04,3.22-4.67,20.35,14.03Z"/>
    <path class="uuid-293700b6-d6e7-4435-8d08-64aa44fa6ee6" d="M114.37,140.28l-15.23-12.97-4.73,5.56-3.59-3.06,13.48-15.84,3.59,3.06-4.73,5.56,15.23,12.97-4.02,4.72Z"/>
    <path class="uuid-293700b6-d6e7-4435-8d08-64aa44fa6ee6" d="M124.6,128.57l-17.3-17.66,11.93-11.69,3.3,3.37-7.52,7.37,3.03,3.1,6.93-6.79,3.3,3.37-6.93,6.79,4.37,4.46,7.52-7.37,3.3,3.37-11.93,11.69Z"/>
    <path class="uuid-293700b6-d6e7-4435-8d08-64aa44fa6ee6" d="M155.72,101.24l-4.67,3.72-18.19-7.54,10.74,13.47-4.43,3.54-15.41-19.33,5.95-4.75,14.99,6.16-8.83-11.07,4.43-3.54,15.41,19.33Z"/>
    <path class="uuid-293700b6-d6e7-4435-8d08-64aa44fa6ee6" d="M157.11,100.17l-6.21-25.34,5.71-3.63,20.3,16.39-5.39,3.42-4.01-3.43-6.55,4.16,1.4,5.09-5.25,3.33ZM163.96,84.54l-6.5-5.53,2.24,8.23,4.26-2.7Z"/>
    <path class="uuid-293700b6-d6e7-4435-8d08-64aa44fa6ee6" d="M197.52,77.39l-5.35,2.64-16.16-11.24,7.62,15.46-5.09,2.51-10.93-22.17,6.83-3.37,13.33,9.22-6.26-12.7,5.09-2.51,10.93,22.17Z"/>
    <path class="uuid-293700b6-d6e7-4435-8d08-64aa44fa6ee6" d="M211.77,72.54c-3.48,1.27-6.62,1.23-9.44-.12s-4.92-3.94-6.32-7.75c-1.35-3.68-1.4-6.99-.15-9.93,1.25-2.94,3.61-5.04,7.09-6.32.92-.34,1.77-.59,2.55-.76.78-.17,1.53-.28,2.28-.34.59-.04,1.24-.04,1.96,0,.72.04,1.31.09,1.77.15l2.03,5.53-.59.22c-.37-.15-.83-.32-1.39-.51-.55-.19-1.16-.36-1.82-.49-.66-.13-1.36-.2-2.09-.2s-1.45.13-2.16.39c-.84.31-1.56.72-2.17,1.24-.6.52-1.1,1.23-1.5,2.11-.36.81-.55,1.78-.55,2.92,0,1.14.25,2.4.75,3.77.53,1.44,1.17,2.59,1.91,3.43.74.84,1.54,1.45,2.38,1.82.81.36,1.64.54,2.48.52.84-.01,1.62-.15,2.36-.42.77-.28,1.46-.68,2.06-1.19.6-.51,1.08-1.01,1.45-1.49.4-.51.74-1.01,1.01-1.48.27-.48.51-.9.7-1.26l.53-.19,2,5.46c-.35.35-.76.76-1.23,1.22-.47.46-.96.89-1.49,1.28-.65.48-1.27.9-1.86,1.25-.59.35-1.44.72-2.55,1.13Z"/>
    <path class="uuid-293700b6-d6e7-4435-8d08-64aa44fa6ee6" d="M222.48,68.39l-6.22-23.92,16.16-4.2,1.19,4.56-10.19,2.65,1.09,4.19,9.39-2.44,1.19,4.56-9.39,2.44,1.57,6.04,10.19-2.65,1.19,4.56-16.16,4.2Z"/>
    <path class="uuid-293700b6-d6e7-4435-8d08-64aa44fa6ee6" d="M259.38,61.33c-1.88.22-3.55.23-5.01.03-1.46-.2-2.84-.5-4.12-.89l-.68-5.84.56-.06c1.35.9,2.8,1.55,4.35,1.94,1.55.39,3.02.5,4.41.34.35-.04.81-.13,1.38-.28.57-.14,1.02-.32,1.35-.52.41-.24.74-.54,1-.91.26-.37.35-.83.29-1.38-.07-.62-.37-1.09-.9-1.42s-1.14-.54-1.83-.64c-.86-.12-1.78-.23-2.75-.32s-1.89-.23-2.74-.42c-1.98-.45-3.44-1.19-4.4-2.23-.96-1.04-1.53-2.41-1.73-4.11-.27-2.3.49-4.27,2.27-5.92,1.78-1.65,4.12-2.64,7.03-2.98,1.46-.17,2.93-.19,4.41-.06,1.48.13,2.82.38,4.02.75l.65,5.61-.54.06c-1-.67-2.19-1.21-3.57-1.59-1.38-.39-2.75-.5-4.14-.34-.54.06-1.02.16-1.44.28-.42.13-.85.33-1.3.6-.37.22-.67.52-.91.9-.24.38-.33.78-.29,1.21.07.63.35,1.1.84,1.42.49.32,1.38.55,2.69.7.85.09,1.66.18,2.44.27.78.09,1.63.23,2.53.44,1.77.42,3.14,1.1,4.09,2.04.95.94,1.52,2.27,1.72,3.97.28,2.44-.45,4.51-2.19,6.22-1.74,1.71-4.25,2.75-7.51,3.13Z"/>
    <path class="uuid-293700b6-d6e7-4435-8d08-64aa44fa6ee6" d="M282.55,59.9c-3.32.04-5.88-.74-7.68-2.32-1.8-1.59-2.72-3.92-2.75-7.01l-.17-15.79,6.2-.07.17,15.42c.02,1.72.36,2.99,1.01,3.82.66.83,1.71,1.24,3.17,1.23,1.43-.02,2.47-.43,3.13-1.25.66-.81.98-2.11.96-3.9l-.17-15.42,6.2-.07.17,15.77c.03,3.04-.81,5.39-2.54,7.04s-4.29,2.5-7.71,2.53Z"/>
    <path class="uuid-293700b6-d6e7-4435-8d08-64aa44fa6ee6" d="M317.57,44.52c-.11,1.15-.4,2.22-.86,3.22-.46,1-1.07,1.82-1.82,2.44-.46.39-.96.74-1.49,1.06s-1.12.57-1.75.77c-.63.2-1.3.33-2.03.41-.72.08-1.53.07-2.41-.01l-3.23-.31-.77,8.05-6.17-.59,2.36-24.61,9.54.92c1.42.14,2.63.38,3.64.74,1,.36,1.9.86,2.68,1.5.87.71,1.5,1.6,1.91,2.68.41,1.08.54,2.33.41,3.75ZM311.22,44.06c.07-.69-.04-1.31-.32-1.84-.28-.53-.65-.92-1.09-1.15-.56-.31-1.1-.51-1.63-.6-.53-.09-1.25-.18-2.16-.27l-.88-.08-.71,7.37.43.04c.58.06,1.13.1,1.65.14s.97.04,1.36.01c.34-.02.7-.1,1.08-.22.38-.12.68-.28.9-.46.46-.37.78-.76.97-1.19.19-.43.32-1.01.39-1.76Z"/>
    <path class="uuid-293700b6-d6e7-4435-8d08-64aa44fa6ee6" d="M340.59,48.94c-.22,1.13-.62,2.17-1.17,3.12-.56.95-1.24,1.7-2.05,2.25-.5.34-1.03.64-1.59.9-.57.26-1.17.46-1.82.59-.65.13-1.33.2-2.06.2-.73,0-1.53-.08-2.39-.25l-3.19-.63-1.57,7.93-6.08-1.2,4.79-24.25,9.4,1.86c1.4.28,2.58.64,3.54,1.1.96.46,1.8,1.04,2.52,1.76.79.79,1.34,1.74,1.63,2.85.3,1.11.31,2.37.03,3.77ZM334.32,47.85c.14-.68.09-1.31-.14-1.86-.23-.56-.55-.97-.97-1.25-.53-.36-1.05-.62-1.57-.76-.52-.14-1.23-.3-2.13-.48l-.86-.17-1.44,7.26.42.08c.58.11,1.12.22,1.63.31.51.09.96.14,1.36.15.34,0,.7-.03,1.1-.11s.71-.21.94-.36c.49-.32.85-.68,1.09-1.09.23-.4.42-.98.57-1.72Z"/>
    <path class="uuid-293700b6-d6e7-4435-8d08-64aa44fa6ee6" d="M365.09,61.1c-1.19,3.81-3.14,6.5-5.86,8.05s-5.85,1.78-9.4.67c-3.56-1.11-6-3.08-7.34-5.93-1.34-2.85-1.42-6.15-.25-9.91,1.18-3.79,3.13-6.48,5.84-8.05,2.71-1.57,5.85-1.8,9.4-.7,3.55,1.1,6,3.07,7.35,5.9s1.44,6.15.25,9.96ZM358.99,59.18c.44-1.41.67-2.65.68-3.73.02-1.08-.12-2.01-.41-2.8-.31-.8-.73-1.44-1.29-1.92-.55-.48-1.17-.83-1.86-1.04-.73-.23-1.43-.3-2.1-.23-.67.07-1.39.36-2.14.85-.68.46-1.32,1.15-1.94,2.07-.62.92-1.14,2.08-1.58,3.49-.45,1.45-.68,2.69-.7,3.74-.01,1.04.13,1.97.42,2.77.3.81.73,1.46,1.29,1.94.56.48,1.18.83,1.86,1.04.7.22,1.42.28,2.17.18.75-.1,1.46-.39,2.13-.88.72-.53,1.36-1.21,1.92-2.04.56-.83,1.07-1.98,1.53-3.46Z"/>
    <path class="uuid-293700b6-d6e7-4435-8d08-64aa44fa6ee6" d="M385.1,83.28l-6.92-3.05-2.64-11.07-2.03-.9-3.66,8.29-5.64-2.49,9.97-22.62,9.09,4.01c1.25.55,2.31,1.11,3.17,1.68.86.57,1.58,1.27,2.15,2.12.58.87.94,1.81,1.06,2.82.12,1-.08,2.12-.62,3.34-.76,1.73-1.77,2.96-3.03,3.7-1.25.74-2.68,1.13-4.26,1.2l3.36,12.97ZM382.88,63.56c.25-.57.36-1.1.32-1.61-.04-.51-.26-.98-.67-1.43-.29-.31-.64-.58-1.06-.81-.42-.23-.95-.49-1.6-.78l-1.9-.84-2.69,6.09,1.62.72c.79.35,1.48.6,2.07.74s1.15.15,1.68,0c.49-.12.91-.34,1.26-.66.35-.32.67-.79.95-1.43Z"/>
    <path class="uuid-293700b6-d6e7-4435-8d08-64aa44fa6ee6" d="M390.22,86.42l9.9-17.39-6.34-3.61,2.33-4.1,18.07,10.29-2.33,4.1-6.34-3.61-9.9,17.39-5.39-3.07Z"/>
    <path class="uuid-293700b6-d6e7-4435-8d08-64aa44fa6ee6" d="M419.75,106.61c-2.93-2.27-4.56-4.96-4.91-8.06-.35-3.11.72-6.26,3.21-9.47,2.4-3.1,5.18-4.9,8.33-5.4,3.15-.5,6.19.38,9.12,2.65.78.6,1.44,1.19,2,1.76.55.57,1.05,1.15,1.5,1.75.34.48.69,1.03,1.04,1.67.35.63.62,1.16.81,1.58l-3.61,4.66-.5-.39c-.07-.39-.17-.87-.31-1.45-.13-.57-.31-1.17-.55-1.8-.24-.63-.55-1.26-.95-1.88-.39-.62-.89-1.16-1.48-1.62-.71-.55-1.44-.94-2.21-1.17-.76-.23-1.62-.28-2.58-.15-.88.12-1.8.48-2.77,1.09-.97.61-1.9,1.49-2.79,2.64-.94,1.22-1.57,2.36-1.89,3.44-.32,1.08-.41,2.07-.28,2.99.13.88.42,1.68.87,2.38s.99,1.29,1.61,1.78c.65.5,1.35.87,2.1,1.11.75.24,1.43.38,2.04.43.65.07,1.25.09,1.79.07s1.03-.05,1.45-.08l.45.35-3.56,4.59c-.49-.11-1.05-.24-1.69-.39-.64-.15-1.26-.35-1.88-.58-.75-.29-1.44-.59-2.04-.91-.61-.32-1.38-.84-2.31-1.56Z"/>
    <path class="uuid-293700b6-d6e7-4435-8d08-64aa44fa6ee6" d="M453.7,120.06c-2.78,2.87-5.73,4.39-8.85,4.56-3.13.16-6.03-1.04-8.7-3.62-2.68-2.59-3.98-5.46-3.89-8.6.08-3.14,1.5-6.13,4.23-8.96,2.76-2.86,5.71-4.38,8.84-4.56,3.13-.18,6.04,1.02,8.71,3.61,2.67,2.58,3.98,5.44,3.92,8.57-.06,3.13-1.48,6.14-4.26,9.01ZM449.1,115.6c1.02-1.06,1.78-2.07,2.29-3.02.5-.96.8-1.85.89-2.68.09-.85,0-1.62-.28-2.29-.28-.68-.67-1.26-1.19-1.76-.55-.53-1.14-.91-1.77-1.15-.63-.24-1.4-.3-2.3-.2-.81.11-1.7.43-2.67.98s-1.96,1.35-2.98,2.41c-1.05,1.09-1.82,2.1-2.3,3.03-.48.93-.77,1.81-.87,2.66-.1.86,0,1.63.28,2.31.28.68.68,1.27,1.2,1.77.53.51,1.14.89,1.86,1.13.71.25,1.48.31,2.3.18.88-.15,1.76-.47,2.63-.96.87-.49,1.85-1.29,2.92-2.4Z"/>
    <path class="uuid-293700b6-d6e7-4435-8d08-64aa44fa6ee6" d="M462.97,150.76l-3.87-4.81,12.76-10.28-11.06,3.13-2.65-3.29,5.42-10.13-12.76,10.28-3.66-4.55,19.25-15.5,4.48,5.57-6.07,11.92,12.93-3.4,4.48,5.57-19.25,15.5Z"/>
    <path class="uuid-293700b6-d6e7-4435-8d08-64aa44fa6ee6" d="M489.83,161.6c-.97.61-2,1.04-3.07,1.29-1.08.25-2.09.27-3.04.06-.59-.13-1.17-.3-1.75-.53-.58-.23-1.14-.54-1.67-.91-.54-.38-1.06-.83-1.56-1.36-.5-.53-.99-1.16-1.46-1.91l-1.73-2.75-6.84,4.31-3.31-5.25,20.91-13.19,5.11,8.11c.76,1.21,1.31,2.32,1.64,3.33.33,1.01.48,2.03.46,3.04-.03,1.12-.35,2.17-.95,3.15-.6.98-1.51,1.85-2.72,2.62ZM486.31,156.29c.59-.37,1.01-.83,1.26-1.38.25-.55.33-1.07.24-1.56-.1-.63-.27-1.18-.53-1.66-.25-.47-.62-1.1-1.12-1.88l-.47-.74-6.26,3.95.23.36c.31.5.61.96.9,1.39.29.43.56.8.82,1.09.22.25.5.49.84.72.33.23.64.37.91.43.57.14,1.08.15,1.54.04.45-.11,1-.37,1.63-.77Z"/>
    <path class="uuid-293700b6-d6e7-4435-8d08-64aa44fa6ee6" d="M475.62,170.67l25.84-3.59,3.03,6.05-18.38,18.51-2.86-5.71,3.83-3.64-3.47-6.94-5.2.88-2.78-5.56ZM490.48,179.08l6.16-5.9-8.42,1.39,2.25,4.51Z"/>
    <path class="uuid-293700b6-d6e7-4435-8d08-64aa44fa6ee6" d="M494.17,213.2l-2.08-5.59,12.83-14.93-16.15,6.01-1.98-5.31,23.17-8.62,2.66,7.13-10.52,12.32,13.27-4.94,1.98,5.31-23.17,8.62Z"/>
    <path class="uuid-293700b6-d6e7-4435-8d08-64aa44fa6ee6" d="M524.43,231.23l-16.06-4.69-10,2.56-1.54-6.01,9.7-2.48,12.1-12.04,1.75,6.84-7.36,6.88,9.71,2.33,1.69,6.62Z"/>
  </g>
  <g>
    <path class="uuid-293700b6-d6e7-4435-8d08-64aa44fa6ee6" d="M205.91,516.81l6.13-19.66-7.17-2.24,1.45-4.63,20.44,6.37-1.45,4.63-7.17-2.24-6.13,19.66-6.09-1.9Z"/>
    <path class="uuid-293700b6-d6e7-4435-8d08-64aa44fa6ee6" d="M235.26,524.58l-13.35-3.05.99-4.33,3.56.81,3.69-16.15-3.56-.81.99-4.33,13.35,3.05-.99,4.33-3.56-.81-3.69,16.14,3.56.81-.99,4.33Z"/>
    <path class="uuid-293700b6-d6e7-4435-8d08-64aa44fa6ee6" d="M262.32,528.68l-6.09-.83-7.33-18.89-2.38,17.58-5.79-.78,3.41-25.22,7.76,1.05,6.08,15.53,1.95-14.45,5.79.78-3.41,25.22Z"/>
    <path class="uuid-293700b6-d6e7-4435-8d08-64aa44fa6ee6" d="M291.37,529.79l-7.71-.22-6.63-10.53-1.3,1.71-.24,8.59-6.38-.18.73-25.44,6.38.18-.32,11.29,8.44-11.06,7.39.21-9.4,11.55,9.05,13.9Z"/>
    <path class="uuid-293700b6-d6e7-4435-8d08-64aa44fa6ee6" d="M294.88,529.51l-1.69-25.39,17.15-1.14.32,4.84-10.82.72.3,4.45,9.96-.66.32,4.84-9.96.66.43,6.41,10.82-.72.32,4.84-17.15,1.14Z"/>
    <path class="uuid-293700b6-d6e7-4435-8d08-64aa44fa6ee6" d="M340.99,523.93l-7.68,1.27-8.51-8.06-2.26.37,1.52,9.21-6.27,1.03-4.14-25.11,10.09-1.66c1.39-.23,2.62-.34,3.68-.34,1.06,0,2.08.21,3.04.62.99.43,1.83,1.04,2.5,1.83.67.8,1.12,1.87,1.35,3.23.32,1.92.14,3.55-.53,4.89-.67,1.34-1.67,2.48-3,3.43l10.2,9.28ZM327.98,508.18c-.1-.63-.31-1.15-.63-1.57-.32-.42-.78-.7-1.38-.86-.42-.1-.88-.14-1.37-.1s-1.09.11-1.81.23l-2.11.35,1.11,6.76,1.8-.3c.88-.14,1.61-.32,2.21-.53.59-.21,1.08-.52,1.45-.94.35-.38.59-.81.71-1.28.12-.47.13-1.06.01-1.77Z"/>
    <path class="uuid-293700b6-d6e7-4435-8d08-64aa44fa6ee6" d="M351.96,521.39c-1.88.5-3.58.76-5.1.78-1.52.02-2.96-.08-4.33-.29l-1.57-5.84.56-.15c1.51.72,3.08,1.16,4.72,1.32s3.15.06,4.55-.31c.35-.09.81-.26,1.36-.49.56-.23.99-.48,1.3-.74.38-.3.67-.66.88-1.08.21-.41.24-.9.09-1.45-.17-.62-.54-1.05-1.13-1.31-.59-.25-1.24-.38-1.96-.38-.89,0-1.84.03-2.85.09-1,.06-1.96.05-2.86-.01-2.08-.16-3.69-.7-4.81-1.61-1.13-.91-1.92-2.22-2.38-3.93-.62-2.3-.14-4.42,1.42-6.37,1.56-1.95,3.8-3.31,6.72-4.09,1.46-.39,2.96-.63,4.48-.72s2.93-.03,4.21.17l1.5,5.61-.54.15c-1.12-.54-2.41-.9-3.87-1.09s-2.88-.1-4.26.27c-.54.14-1.01.31-1.42.5-.41.19-.82.46-1.23.81-.34.28-.6.63-.79,1.05s-.22.85-.11,1.28c.17.63.52,1.07,1.07,1.32s1.49.35,2.85.31c.88-.03,1.72-.06,2.53-.09s1.69,0,2.64.07c1.87.16,3.36.65,4.47,1.47,1.11.82,1.89,2.08,2.35,3.79.65,2.44.22,4.67-1.3,6.66-1.52,2-3.91,3.44-7.18,4.31Z"/>
  </g>
  <path class="uuid-e3aa3b72-2a3f-434d-b6c3-25a672bf3e76" d="M430.76,136.16c39.35,39.35,61.02,91.66,61.02,147.3s-21.67,107.96-61.02,147.3c-39.35,39.35-91.65,61.02-147.3,61.02s-107.95-21.67-147.3-61.02c-39.35-39.34-61.02-91.65-61.02-147.3s21.67-107.95,61.02-147.3c39.35-39.34,91.66-61.01,147.3-61.01s107.95,21.67,147.3,61.01ZM487.31,283.46c0-112.4-91.45-203.84-203.84-203.84s-203.84,91.44-203.84,203.84,91.45,203.84,203.84,203.84,203.84-91.44,203.84-203.84Z"/>
  <g>
    <g>
      <path class="uuid-e3aa3b72-2a3f-434d-b6c3-25a672bf3e76" d="M438.95,211.2H126.61c-1.65,0-2.99-1.34-2.99-2.99s1.34-2.99,2.99-2.99h312.34c1.65,0,2.99,1.34,2.99,2.99s-1.34,2.99-2.99,2.99Z"/>
      <path class="uuid-e3aa3b72-2a3f-434d-b6c3-25a672bf3e76" d="M280.34,412.56c-1.65,0-2.99-1.34-2.99-2.99v-201.36c0-1.65,1.34-2.99,2.99-2.99s2.99,1.34,2.99,2.99v201.36c0,1.65-1.34,2.99-2.99,2.99Z"/>
      <path class="uuid-e3aa3b72-2a3f-434d-b6c3-25a672bf3e76" d="M260.71,446.77c-1.65,0-2.99-1.34-2.99-2.99v-193.2c0-1.65,1.34-2.99,2.99-2.99s2.99,1.34,2.99,2.99v193.2c0,1.65-1.34,2.99-2.99,2.99Z"/>
      <path class="uuid-e3aa3b72-2a3f-434d-b6c3-25a672bf3e76" d="M300.25,446.77c-1.65,0-2.99-1.34-2.99-2.99v-193.2c0-1.65,1.34-2.99,2.99-2.99s2.99,1.34,2.99,2.99v193.2c0,1.65-1.34,2.99-2.99,2.99Z"/>
      <path class="uuid-e3aa3b72-2a3f-434d-b6c3-25a672bf3e76" d="M408.1,233.02h-251.25c-1.65,0-2.99-1.34-2.99-2.99s1.34-2.99,2.99-2.99h251.25c1.65,0,2.99,1.34,2.99,2.99s-1.34,2.99-2.99,2.99Z"/>
      <path class="uuid-e3aa3b72-2a3f-434d-b6c3-25a672bf3e76" d="M260.71,253.57h-72.34c-1.65,0-2.99-1.34-2.99-2.99s1.34-2.99,2.99-2.99h72.34c1.65,0,2.99,1.34,2.99,2.99s-1.34,2.99-2.99,2.99Z"/>
      <path class="uuid-e3aa3b72-2a3f-434d-b6c3-25a672bf3e76" d="M372.59,253.57h-72.34c-1.65,0-2.99-1.34-2.99-2.99s1.34-2.99,2.99-2.99h72.34c1.65,0,2.99,1.34,2.99,2.99s-1.34,2.99-2.99,2.99Z"/>
      <path class="uuid-e3aa3b72-2a3f-434d-b6c3-25a672bf3e76" d="M131.22,207.18l-3.07-.95c-.07-.35-.16-.69-.27-1.02l2.19-2.33.09-.09-.06-.11-.96-1.68-.06-.11-.12.03-3.14.72c-.2-.22-.4-.42-.62-.62l.75-3.2.03-.12-.11-.06-1.67-.97-.11-.06-.09.09-2.41,2.24c-.27-.09-.56-.16-.84-.23l-.95-3.09-.04-.12h-.13s-1.93,0-1.93,0h-.13s-.04.12-.04.12l-.91,3.05c-.3.06-.59.14-.88.23l-2.38-2.22-.09-.09-.11.06-1.67.97-.11.06.03.12.74,3.13c-.23.2-.45.42-.65.64l-3.17-.73-.12-.03-.06.11-.96,1.68-.06.11.09.09,2.19,2.33c-.12.35-.21.71-.29,1.08l-3.07.95-.12.04v.13s0,1.94,0,1.94v.13s.12.04.12.04l3.1.93c.06.28.14.57.23.84l-2.21,2.36-.09.09.06.11.96,1.68.06.11.12-.03,3.17-.73c.21.23.42.44.65.65l-.73,3.13-.03.12.11.06,1.67.97.11.06.09-.09,2.36-2.2c.3.1.61.18.92.25l.9,3.01.04.12h.13s1.93,0,1.93,0h.13s.04-.12.04-.12l.93-3.02c.3-.07.61-.15.91-.24l2.36,2.2.09.09.11-.06,1.67-.97.11-.06-.03-.12-.73-3.13c.23-.21.44-.42.65-.65l3.17.73.12.03.06-.11.96-1.68.06-.11-.09-.09-2.21-2.36c.09-.28.17-.56.23-.84l3.1-.93.12-.04v-.13s0-1.94,0-1.94v-.13s-.12-.04-.12-.04ZM123.71,208.64l-1.29.39h0c-.03.14-.07.28-.11.42h0s.92.98.92.98l-.39.68-1.31-.3h0c-.1.1-.21.21-.32.31l.31,1.31-.68.4-.98-.92c-.14.05-.29.09-.44.12l-.39,1.26h-.78s-.38-1.26-.38-1.26c-.15-.03-.3-.07-.45-.12l-.98.92-.68-.4.31-1.31c-.11-.1-.22-.21-.32-.32h0s-1.31.31-1.31.31l-.39-.68.92-.98h0c-.05-.14-.08-.28-.11-.42h0s-1.29-.39-1.29-.39v-.79s1.28-.4,1.28-.4c.03-.17.08-.34.14-.51l-.92-.98.39-.68,1.31.3h0c.1-.1.21-.21.32-.31l-.31-1.31.68-.39.99.92h0c.14-.03.29-.07.44-.1l.38-1.28h.78s.39,1.29.39,1.29c.14.03.29.07.43.12v-.02s.99-.92.99-.92l.68.4-.31,1.31h-.02c.11.11.22.22.31.33h0s1.31-.3,1.31-.3l.39.68-.92.98c.05.16.1.32.13.49l1.28.4v.79Z"/>
      <path class="uuid-e3aa3b72-2a3f-434d-b6c3-25a672bf3e76" d="M161.51,229.01l-3.07-.95c-.07-.35-.16-.69-.27-1.02l2.19-2.33.09-.09-.06-.11-.96-1.68-.06-.11-.12.03-3.14.72c-.2-.22-.4-.42-.62-.62l.75-3.2.03-.12-.11-.06-1.67-.97-.11-.06-.09.09-2.41,2.24c-.27-.09-.56-.16-.84-.23l-.95-3.09-.04-.12h-.13s-1.93,0-1.93,0h-.13s-.04.12-.04.12l-.91,3.05c-.3.06-.59.14-.88.23l-2.38-2.22-.09-.09-.11.06-1.67.97-.11.06.03.12.74,3.13c-.23.2-.45.42-.65.64l-3.17-.73-.12-.03-.06.11-.96,1.68-.06.11.09.09,2.19,2.33c-.12.35-.21.71-.29,1.08l-3.07.95-.12.04v.13s0,1.94,0,1.94v.13s.12.04.12.04l3.1.93c.06.28.14.57.23.84l-2.21,2.36-.09.09.06.11.96,1.68.06.11.12-.03,3.17-.73c.21.23.42.44.65.65l-.73,3.13-.03.12.11.06,1.67.97.11.06.09-.09,2.36-2.2c.3.1.61.18.92.25l.9,3.01.04.12h.13s1.93,0,1.93,0h.13s.04-.12.04-.12l.93-3.02c.3-.07.61-.15.91-.24l2.36,2.2.09.09.11-.06,1.67-.97.11-.06-.03-.12-.73-3.13c.23-.21.44-.42.65-.65l3.17.73.12.03.06-.11.96-1.68.06-.11-.09-.09-2.21-2.36c.09-.28.17-.56.23-.84l3.1-.93.12-.04v-.13s0-1.94,0-1.94v-.13s-.12-.04-.12-.04ZM154,230.46l-1.29.39h0c-.03.14-.07.28-.11.42h0s.92.98.92.98l-.39.68-1.31-.3h0c-.1.1-.21.21-.32.31l.31,1.31-.68.4-.98-.92c-.14.05-.29.09-.44.12l-.39,1.26h-.78s-.38-1.26-.38-1.26c-.15-.03-.3-.07-.45-.12l-.98.92-.68-.4.31-1.31c-.11-.1-.22-.21-.32-.32h0s-1.31.31-1.31.31l-.39-.68.92-.98h0c-.05-.14-.08-.28-.11-.42h0s-1.29-.39-1.29-.39v-.79s1.28-.4,1.28-.4c.03-.17.08-.34.14-.51l-.92-.98.39-.68,1.31.3h0c.1-.1.21-.21.32-.31l-.31-1.31.68-.39.99.92h0c.14-.03.29-.07.44-.1l.38-1.28h.78s.39,1.29.39,1.29c.14.03.29.07.43.12v-.02s.99-.92.99-.92l.68.4-.31,1.31h-.02c.11.11.22.22.31.33h0s1.31-.3,1.31-.3l.39.68-.92.98c.05.16.1.32.13.49l1.28.4v.79Z"/>
      <path class="uuid-e3aa3b72-2a3f-434d-b6c3-25a672bf3e76" d="M429.03,229.01l-3.07-.95c-.07-.35-.16-.69-.27-1.02l2.19-2.33.09-.09-.06-.11-.96-1.68-.06-.11-.12.03-3.14.72c-.2-.22-.4-.42-.62-.62l.75-3.2.03-.12-.11-.06-1.67-.97-.11-.06-.09.09-2.41,2.24c-.27-.09-.56-.16-.84-.23l-.95-3.09-.04-.12h-.13s-1.93,0-1.93,0h-.13s-.04.12-.04.12l-.91,3.05c-.3.06-.59.14-.88.23l-2.38-2.22-.09-.09-.11.06-1.67.97-.11.06.03.12.74,3.13c-.23.2-.45.42-.65.64l-3.17-.73-.12-.03-.06.11-.96,1.68-.06.11.09.09,2.19,2.33c-.12.35-.21.71-.29,1.08l-3.07.95-.12.04v.13s0,1.94,0,1.94v.13s.12.04.12.04l3.1.93c.06.28.14.57.23.84l-2.21,2.36-.09.09.06.11.96,1.68.06.11.12-.03,3.17-.73c.21.23.42.44.65.65l-.73,3.13-.03.12.11.06,1.67.97.11.06.09-.09,2.36-2.2c.3.1.61.18.92.25l.9,3.01.04.12h.13s1.93,0,1.93,0h.13s.04-.12.04-.12l.93-3.02c.3-.07.61-.15.91-.24l2.36,2.2.09.09.11-.06,1.67-.97.11-.06-.03-.12-.73-3.13c.23-.21.44-.42.65-.65l3.17.73.12.03.06-.11.96-1.68.06-.11-.09-.09-2.21-2.36c.09-.28.17-.56.23-.84l3.1-.93.12-.04v-.13s0-1.94,0-1.94v-.13s-.12-.04-.12-.04ZM421.52,230.46l-1.29.39h0c-.03.14-.07.28-.11.42h0s.92.98.92.98l-.39.68-1.31-.3h0c-.1.1-.21.21-.32.31l.31,1.31-.68.4-.98-.92c-.14.05-.29.09-.44.12l-.39,1.26h-.78s-.38-1.26-.38-1.26c-.15-.03-.3-.07-.45-.12l-.98.92-.68-.4.31-1.31c-.11-.1-.22-.21-.32-.32h0s-1.31.31-1.31.31l-.39-.68.92-.98h0c-.05-.14-.08-.28-.11-.42h0s-1.29-.39-1.29-.39v-.79s1.28-.4,1.28-.4c.03-.17.08-.34.14-.51l-.92-.98.39-.68,1.31.3h0c.1-.1.21-.21.32-.31l-.31-1.31.68-.39.99.92h0c.14-.03.29-.07.44-.1l.38-1.28h.78s.39,1.29.39,1.29c.14.03.29.07.43.12v-.02s.99-.92.99-.92l.68.4-.31,1.31h-.02c.11.11.22.22.31.33h0s1.31-.3,1.31-.3l.39.68-.92.98c.05.16.1.32.13.49l1.28.4v.79Z"/>
      <path class="uuid-e3aa3b72-2a3f-434d-b6c3-25a672bf3e76" d="M392.84,249.56l-3.07-.95c-.07-.35-.16-.69-.27-1.02l2.19-2.33.09-.09-.06-.11-.96-1.68-.06-.11-.12.03-3.14.72c-.2-.22-.4-.42-.62-.62l.75-3.2.03-.12-.11-.06-1.67-.97-.11-.06-.09.09-2.41,2.24c-.27-.09-.56-.16-.84-.23l-.95-3.09-.04-.12h-.13s-1.93,0-1.93,0h-.13s-.04.12-.04.12l-.91,3.05c-.3.06-.59.14-.88.23l-2.38-2.22-.09-.09-.11.06-1.67.97-.11.06.03.12.74,3.13c-.23.2-.45.42-.65.64l-3.17-.73-.12-.03-.06.11-.96,1.68-.06.11.09.09,2.19,2.33c-.12.35-.21.71-.29,1.08l-3.07.95-.12.04v.13s0,1.94,0,1.94v.13s.12.04.12.04l3.1.93c.06.28.14.57.23.84l-2.21,2.36-.09.09.06.11.96,1.68.06.11.12-.03,3.17-.73c.21.23.42.44.65.65l-.73,3.13-.03.12.11.06,1.67.97.11.06.09-.09,2.36-2.2c.3.1.61.18.92.25l.9,3.01.04.12h.13s1.93,0,1.93,0h.13s.04-.12.04-.12l.93-3.02c.3-.07.61-.15.91-.24l2.36,2.2.09.09.11-.06,1.67-.97.11-.06-.03-.12-.73-3.13c.23-.21.44-.42.65-.65l3.17.73.12.03.06-.11.96-1.68.06-.11-.09-.09-2.21-2.36c.09-.28.17-.56.23-.84l3.1-.93.12-.04v-.13s0-1.94,0-1.94v-.13s-.12-.04-.12-.04ZM385.33,251.02l-1.29.39h0c-.03.14-.07.28-.11.42h0s.92.98.92.98l-.39.68-1.31-.3h0c-.1.1-.21.21-.32.31l.31,1.31-.68.4-.98-.92c-.14.05-.29.09-.44.12l-.39,1.26h-.78s-.38-1.26-.38-1.26c-.15-.03-.3-.07-.45-.12l-.98.92-.68-.4.31-1.31c-.11-.1-.22-.21-.32-.32h0s-1.31.31-1.31.31l-.39-.68.92-.98h0c-.05-.14-.08-.28-.11-.42h0s-1.29-.39-1.29-.39v-.79s1.28-.4,1.28-.4c.03-.17.08-.34.14-.51l-.92-.98.39-.68,1.31.3h0c.1-.1.21-.21.32-.31l-.31-1.31.68-.39.99.92h0c.14-.03.29-.07.44-.1l.38-1.28h.78s.39,1.29.39,1.29c.14.03.29.07.43.12v-.02s.99-.92.99-.92l.68.4-.31,1.31h-.02c.11.11.22.22.31.33h0s1.31-.3,1.31-.3l.39.68-.92.98c.05.16.1.32.13.49l1.28.4v.79Z"/>
      <path class="uuid-e3aa3b72-2a3f-434d-b6c3-25a672bf3e76" d="M193.66,249.56l-3.07-.95c-.07-.35-.16-.69-.27-1.02l2.19-2.33.09-.09-.06-.11-.96-1.68-.06-.11-.12.03-3.14.72c-.2-.22-.4-.42-.62-.62l.75-3.2.03-.12-.11-.06-1.67-.97-.11-.06-.09.09-2.41,2.24c-.27-.09-.56-.16-.84-.23l-.95-3.09-.04-.12h-.13s-1.93,0-1.93,0h-.13s-.04.12-.04.12l-.91,3.05c-.3.06-.59.14-.88.23l-2.38-2.22-.09-.09-.11.06-1.67.97-.11.06.03.12.74,3.13c-.23.2-.45.42-.65.64l-3.17-.73-.12-.03-.06.11-.96,1.68-.06.11.09.09,2.19,2.33c-.12.35-.21.71-.29,1.08l-3.07.95-.12.04v.13s0,1.94,0,1.94v.13s.12.04.12.04l3.1.93c.06.28.14.57.23.84l-2.21,2.36-.09.09.06.11.96,1.68.06.11.12-.03,3.17-.73c.21.23.42.44.65.65l-.73,3.13-.03.12.11.06,1.67.97.11.06.09-.09,2.36-2.2c.3.1.61.18.92.25l.9,3.01.04.12h.13s1.93,0,1.93,0h.13s.04-.12.04-.12l.93-3.02c.3-.07.61-.15.91-.24l2.36,2.2.09.09.11-.06,1.67-.97.11-.06-.03-.12-.73-3.13c.23-.21.44-.42.65-.65l3.17.73.12.03.06-.11.96-1.68.06-.11-.09-.09-2.21-2.36c.09-.28.17-.56.23-.84l3.1-.93.12-.04v-.13s0-1.94,0-1.94v-.13s-.12-.04-.12-.04ZM186.15,251.02l-1.29.39h0c-.03.14-.07.28-.11.42h0s.92.98.92.98l-.39.68-1.31-.3h0c-.1.1-.21.21-.32.31l.31,1.31-.68.4-.98-.92c-.14.05-.29.09-.44.12l-.39,1.26h-.78s-.38-1.26-.38-1.26c-.15-.03-.3-.07-.45-.12l-.98.92-.68-.4.31-1.31c-.11-.1-.22-.21-.32-.32h0s-1.31.31-1.31.31l-.39-.68.92-.98h0c-.05-.14-.08-.28-.11-.42h0s-1.29-.39-1.29-.39v-.79s1.28-.4,1.28-.4c.03-.17.08-.34.14-.51l-.92-.98.39-.68,1.31.3h0c.1-.1.21-.21.32-.31l-.31-1.31.68-.39.99.92h0c.14-.03.29-.07.44-.1l.38-1.28h.78s.39,1.29.39,1.29c.14.03.29.07.43.12v-.02s.99-.92.99-.92l.68.4-.31,1.31h-.02c.11.11.22.22.31.33h0s1.31-.3,1.31-.3l.39.68-.92.98c.05.16.1.32.13.49l1.28.4v.79Z"/>
      <path class="uuid-e3aa3b72-2a3f-434d-b6c3-25a672bf3e76" d="M312.85,449.69l-3.07-.95c-.07-.35-.16-.69-.27-1.02l2.19-2.33.09-.09-.06-.11-.96-1.68-.06-.11-.12.03-3.14.72c-.2-.22-.4-.42-.62-.62l.75-3.2.03-.12-.11-.06-1.67-.97-.11-.06-.09.09-2.41,2.24c-.27-.09-.56-.16-.84-.23l-.95-3.09-.04-.12h-.13s-1.93,0-1.93,0h-.13s-.04.12-.04.12l-.91,3.05c-.3.06-.59.14-.88.23l-2.38-2.22-.09-.09-.11.06-1.67.97-.11.06.03.12.74,3.13c-.23.2-.45.42-.65.64l-3.17-.73-.12-.03-.06.11-.96,1.68-.06.11.09.09,2.19,2.33c-.12.35-.21.71-.29,1.08l-3.07.95-.12.04v.13s0,1.94,0,1.94v.13s.12.04.12.04l3.1.93c.06.28.14.57.23.84l-2.21,2.36-.09.09.06.11.96,1.68.06.11.12-.03,3.17-.73c.21.23.42.44.65.65l-.73,3.13-.03.12.11.06,1.67.97.11.06.09-.09,2.36-2.2c.3.1.61.18.92.25l.9,3.01.04.12h.13s1.93,0,1.93,0h.13s.04-.12.04-.12l.93-3.02c.3-.07.61-.15.91-.24l2.36,2.2.09.09.11-.06,1.67-.97.11-.06-.03-.12-.73-3.13c.23-.21.44-.42.65-.65l3.17.73.12.03.06-.11.96-1.68.06-.11-.09-.09-2.21-2.36c.09-.28.17-.56.23-.84l3.1-.93.12-.04v-.13s0-1.94,0-1.94v-.13s-.12-.04-.12-.04ZM305.33,451.15l-1.29.39h0c-.03.14-.07.28-.11.42h0s.92.98.92.98l-.39.68-1.31-.3h0c-.1.1-.21.21-.32.31l.31,1.31-.68.4-.98-.92c-.14.05-.29.09-.44.12l-.39,1.26h-.78s-.38-1.26-.38-1.26c-.15-.03-.3-.07-.45-.12l-.98.92-.68-.4.31-1.31c-.11-.1-.22-.21-.32-.32h0s-1.31.31-1.31.31l-.39-.68.92-.98h0c-.05-.14-.08-.28-.11-.42h0s-1.29-.39-1.29-.39v-.79s1.28-.4,1.28-.4c.03-.17.08-.34.14-.51l-.92-.98.39-.68,1.31.3h0c.1-.1.21-.21.32-.31l-.31-1.31.68-.39.99.92h0c.14-.03.29-.07.44-.1l.38-1.28h.78s.39,1.29.39,1.29c.14.03.29.07.43.12v-.02s.99-.92.99-.92l.68.4-.31,1.31h-.02c.11.11.22.22.31.33h0s1.31-.3,1.31-.3l.39.68-.92.98c.05.16.1.32.13.49l1.28.4v.79Z"/>
      <path class="uuid-e3aa3b72-2a3f-434d-b6c3-25a672bf3e76" d="M273.31,449.69l-3.07-.95c-.07-.35-.16-.69-.27-1.02l2.19-2.33.09-.09-.06-.11-.96-1.68-.06-.11-.12.03-3.14.72c-.2-.22-.4-.42-.62-.62l.75-3.2.03-.12-.11-.06-1.67-.97-.11-.06-.09.09-2.41,2.24c-.27-.09-.56-.16-.84-.23l-.95-3.09-.04-.12h-.13s-1.93,0-1.93,0h-.13s-.04.12-.04.12l-.91,3.05c-.3.06-.59.14-.88.23l-2.38-2.22-.09-.09-.11.06-1.67.97-.11.06.03.12.74,3.13c-.23.2-.45.42-.65.64l-3.17-.73-.12-.03-.06.11-.96,1.68-.06.11.09.09,2.19,2.33c-.12.35-.21.71-.29,1.08l-3.07.95-.12.04v.13s0,1.94,0,1.94v.13s.12.04.12.04l3.1.93c.06.28.14.57.23.84l-2.21,2.36-.09.09.06.11.96,1.68.06.11.12-.03,3.17-.73c.21.23.42.44.65.65l-.73,3.13-.03.12.11.06,1.67.97.11.06.09-.09,2.36-2.2c.3.1.61.18.92.25l.9,3.01.04.12h.13s1.93,0,1.93,0h.13s.04-.12.04-.12l.93-3.02c.3-.07.61-.15.91-.24l2.36,2.2.09.09.11-.06,1.67-.97.11-.06-.03-.12-.73-3.13c.23-.21.44-.42.65-.65l3.17.73.12.03.06-.11.96-1.68.06-.11-.09-.09-2.21-2.36c.09-.28.17-.56.23-.84l3.1-.93.12-.04v-.13s0-1.94,0-1.94v-.13s-.12-.04-.12-.04ZM265.8,451.15l-1.29.39h0c-.03.14-.07.28-.11.42h0s.92.98.92.98l-.39.68-1.31-.3h0c-.1.1-.21.21-.32.31l.31,1.31-.68.4-.98-.92c-.14.05-.29.09-.44.12l-.39,1.26h-.78s-.38-1.26-.38-1.26c-.15-.03-.3-.07-.45-.12l-.98.92-.68-.4.31-1.31c-.11-.1-.22-.21-.32-.32h0s-1.31.31-1.31.31l-.39-.68.92-.98h0c-.05-.14-.08-.28-.11-.42h0s-1.29-.39-1.29-.39v-.79s1.28-.4,1.28-.4c.03-.17.08-.34.14-.51l-.92-.98.39-.68,1.31.3h0c.1-.1.21-.21.32-.31l-.31-1.31.68-.39.99.92h0c.14-.03.29-.07.44-.1l.38-1.28h.78s.39,1.29.39,1.29c.14.03.29.07.43.12v-.02s.99-.92.99-.92l.68.4-.31,1.31h-.02c.11.11.22.22.31.33h0s1.31-.3,1.31-.3l.39.68-.92.98c.05.16.1.32.13.49l1.28.4v.79Z"/>
      <path class="uuid-e3aa3b72-2a3f-434d-b6c3-25a672bf3e76" d="M292.94,416.42l-3.07-.95c-.07-.35-.16-.69-.27-1.02l2.19-2.33.09-.09-.06-.11-.96-1.68-.06-.11-.12.03-3.14.72c-.2-.22-.4-.42-.62-.62l.75-3.2.03-.12-.11-.06-1.67-.97-.11-.06-.09.09-2.41,2.24c-.27-.09-.56-.16-.84-.23l-.95-3.09-.04-.12h-.13s-1.93,0-1.93,0h-.13s-.04.12-.04.12l-.91,3.05c-.3.06-.59.14-.88.23l-2.38-2.22-.09-.09-.11.06-1.67.97-.11.06.03.12.74,3.13c-.23.2-.45.42-.65.64l-3.17-.73-.12-.03-.06.11-.96,1.68-.06.11.09.09,2.19,2.33c-.12.35-.21.71-.29,1.08l-3.07.95-.12.04v.13s0,1.94,0,1.94v.13s.12.04.12.04l3.1.93c.06.28.14.57.23.84l-2.21,2.36-.09.09.06.11.96,1.68.06.11.12-.03,3.17-.73c.21.23.42.44.65.65l-.73,3.13-.03.12.11.06,1.67.97.11.06.09-.09,2.36-2.2c.3.1.61.18.92.25l.9,3.01.04.12h.13s1.93,0,1.93,0h.13s.04-.12.04-.12l.93-3.02c.3-.07.61-.15.91-.24l2.36,2.2.09.09.11-.06,1.67-.97.11-.06-.03-.12-.73-3.13c.23-.21.44-.42.65-.65l3.17.73.12.03.06-.11.96-1.68.06-.11-.09-.09-2.21-2.36c.09-.28.17-.56.23-.84l3.1-.93.12-.04v-.13s0-1.94,0-1.94v-.13s-.12-.04-.12-.04ZM285.43,417.88l-1.29.39h0c-.03.14-.07.28-.11.42h0s.92.98.92.98l-.39.68-1.31-.3h0c-.1.1-.21.21-.32.31l.31,1.31-.68.4-.98-.92c-.14.05-.29.09-.44.12l-.39,1.26h-.78s-.38-1.26-.38-1.26c-.15-.03-.3-.07-.45-.12l-.98.92-.68-.4.31-1.31c-.11-.1-.22-.21-.32-.32h0s-1.31.31-1.31.31l-.39-.68.92-.98h0c-.05-.14-.08-.28-.11-.42h0s-1.29-.39-1.29-.39v-.79s1.28-.4,1.28-.4c.03-.17.08-.34.14-.51l-.92-.98.39-.68,1.31.3h0c.1-.1.21-.21.32-.31l-.31-1.31.68-.39.99.92h0c.14-.03.29-.07.44-.1l.38-1.28h.78s.39,1.29.39,1.29c.14.03.29.07.43.12v-.02s.99-.92.99-.92l.68.4-.31,1.31h-.02c.11.11.22.22.31.33h0s1.31-.3,1.31-.3l.39.68-.92.98c.05.16.1.32.13.49l1.28.4v.79Z"/>
      <path class="uuid-e3aa3b72-2a3f-434d-b6c3-25a672bf3e76" d="M460.9,207.18l-3.07-.95c-.07-.35-.16-.69-.27-1.02l2.19-2.33.09-.09-.06-.11-.96-1.68-.06-.11-.12.03-3.14.72c-.2-.22-.4-.42-.62-.62l.75-3.2.03-.12-.11-.06-1.67-.97-.11-.06-.09.09-2.41,2.24c-.27-.09-.56-.16-.84-.23l-.95-3.09-.04-.12h-.13s-1.93,0-1.93,0h-.13s-.04.12-.04.12l-.91,3.05c-.3.06-.59.14-.88.23l-2.38-2.22-.09-.09-.11.06-1.67.97-.11.06.03.12.74,3.13c-.23.2-.45.42-.65.64l-3.17-.73-.12-.03-.06.11-.96,1.68-.06.11.09.09,2.19,2.33c-.12.35-.21.71-.29,1.08l-3.07.95-.12.04v.13s0,1.94,0,1.94v.13s.12.04.12.04l3.1.93c.06.28.14.57.23.84l-2.21,2.36-.09.09.06.11.96,1.68.06.11.12-.03,3.17-.73c.21.23.42.44.65.65l-.73,3.13-.03.12.11.06,1.67.97.11.06.09-.09,2.36-2.2c.3.1.61.18.92.25l.9,3.01.04.12h.13s1.93,0,1.93,0h.13s.04-.12.04-.12l.93-3.02c.3-.07.61-.15.91-.24l2.36,2.2.09.09.11-.06,1.67-.97.11-.06-.03-.12-.73-3.13c.23-.21.44-.42.65-.65l3.17.73.12.03.06-.11.96-1.68.06-.11-.09-.09-2.21-2.36c.09-.28.17-.56.23-.84l3.1-.93.12-.04v-.13s0-1.94,0-1.94v-.13s-.12-.04-.12-.04ZM453.39,208.64l-1.29.39h0c-.03.14-.07.28-.11.42h0s.92.98.92.98l-.39.68-1.31-.3h0c-.1.1-.21.21-.32.31l.31,1.31-.68.4-.98-.92c-.14.05-.29.09-.44.12l-.39,1.26h-.78s-.38-1.26-.38-1.26c-.15-.03-.3-.07-.45-.12l-.98.92-.68-.4.31-1.31c-.11-.1-.22-.21-.32-.32h0s-1.31.31-1.31.31l-.39-.68.92-.98h0c-.05-.14-.08-.28-.11-.42h0s-1.29-.39-1.29-.39v-.79s1.28-.4,1.28-.4c.03-.17.08-.34.14-.51l-.92-.98.39-.68,1.31.3h0c.1-.1.21-.21.32-.31l-.31-1.31.68-.39.99.92h0c.14-.03.29-.07.44-.1l.38-1.28h.78s.39,1.29.39,1.29c.14.03.29.07.43.12v-.02s.99-.92.99-.92l.68.4-.31,1.31h-.02c.11.11.22.22.31.33h0s1.31-.3,1.31-.3l.39.68-.92.98c.05.16.1.32.13.49l1.28.4v.79Z"/>
    </g>
    <g>
      <path class="uuid-4dad4e76-8454-4653-aa66-bb23d32a025f" d="M188.33,272.09h-62.72v.94l1.48.45,37.39,11.28c.81,3.59,1.78,7.12,2.9,10.59l-26.73,28.5-1.04,1.11.75,1.34,11.7,20.47.76,1.34,1.51-.35,38.51-8.86c2.54,2.78,5.22,5.43,8.02,7.95l-8.93,37.98-.35,1.5,1.33.77,20.33,11.87,1.33.77,1.13-1.05,28.68-26.77c.24.08.48.15.72.22v-27.15c-29.97-12.3-52.09-39.82-56.76-72.93Z"/>
      <path class="uuid-4dad4e76-8454-4653-aa66-bb23d32a025f" d="M344.59,191.79h75.86l-.43-.76-11.7-20.47-.76-1.34-1.51.35-38.13,8.77c-2.44-2.65-5-5.21-7.66-7.64l9.13-38.88.35-1.49-1.32-.78-20.33-11.86-1.33-.77-1.14,1.05-27.76,25.91-1.53,1.43c-3.34-1.07-6.76-1.99-10.2-2.76l-11.51-37.59-.44-1.48h-1.55s-23.51.08-23.51.08h-1.54l-.44,1.49-11.14,37.18c-3.61.76-7.22,1.69-10.75,2.79l-.17-.16-28.81-26.89-1.14-1.05-1.33.77-20.33,11.86-1.33.78.35,1.49,8.94,38.03c-2.82,2.51-5.51,5.14-8.07,7.9l-38.47-8.86-1.51-.34-.76,1.34-11.7,20.47-.76,1.33.08.09h75.88c8.33-7.96,18.13-14.38,28.96-18.83,10.88-4.46,22.78-6.93,35.27-6.93,13.34,0,26.03,2.82,37.51,7.88,9.94,4.39,18.97,10.47,26.72,17.87Z"/>
      <path class="uuid-4dad4e76-8454-4653-aa66-bb23d32a025f" d="M372.41,272.09c-4.56,32.28-25.71,59.24-54.54,71.97v29.28l27.18,25.37,1.14,1.05,1.33-.77,20.32-11.87,1.33-.77-.35-1.5-8.92-37.97c2.8-2.53,5.48-5.18,8.02-7.96l38.5,8.86,1.52.35.76-1.34,11.69-20.47.76-1.34-1.05-1.11-26.73-28.5c1.13-3.47,2.1-7,2.9-10.59l37.39-11.28,1.48-.45v-.94h-62.72Z"/>
    </g>
  </g>
</svg>