<svg enable-background="new 0 0 113.4 113.4" viewBox="0 0 113.4 113.4" xmlns="http://www.w3.org/2000/svg"><circle cx="56.7" cy="56.7" r="56.7"/><path d="m56.7 111.5c-30.4.1-54.9-24.5-54.9-54.9 0-30.3 24.5-54.7 54.8-54.8 30.5 0 55 24.6 54.9 55-.1 30.3-24.5 54.7-54.8 54.7zm0-1.4c29.5-.2 53.4-23.9 53.4-53.4 0-29.6-23.8-53.4-53.3-53.4-29.6 0-53.5 23.9-53.4 53.4-.1 29.5 23.7 53.3 53.3 53.4z" fill="#f4c51e"/><path d="m56.5 84.9c-9.4 0-18.7 0-28.1 0-1.1 0-1.8-.4-2.5-1.2-7.5-8.7-10.9-18.8-10-30.2 1.5-18.6 14.7-33.5 33-37 14.3-2.7 26.8 1.3 37.1 11.5 6.7 6.6 10.4 14.8 11.4 24.1 1.3 12.1-2.2 22.6-10.1 31.8-.6.7-1.3.9-2.2.9-9.6.1-19.1.1-28.6.1zm.1-1.4h26.7c1.6 0 2.6-.4 3.7-1.7 7.4-9.3 10.4-19.8 8.5-31.5-1.5-9.7-6.2-17.7-13.7-23.9-9.2-7.6-19.8-10.5-31.6-8.7-9.8 1.5-17.8 6.3-24.1 13.9-7.1 8.6-9.9 18.5-8.8 29.5.9 8 4.1 15 9.3 21.2.7.8 1.4 1.1 2.4 1.1 9.3 0 18.5.1 27.6.1z" fill="#f4c51e"/><path d="m68.2 98.3c0-.9 0-1.4 0-2.1-1.9 0-3.8 0-5.6 0-.7.4.6 2.1-1.3 2 0-.9 0-1.7 0-2.5 0-.2 0-.4.1-.5 2-1.4 1.4-3.5 1.7-5.4.1-.8 0-1.6 0-2.6h5.5v6.4c0 .5.5.9.6 1.4.1 1 .1 1.9.1 2.9-.1.2-.6.2-1.1.4zm-3.8-10c-.3 2.2-.6 4.4-.9 6.6h3.7c0-2.2 0-4.4 0-6.6-1 0-1.9 0-2.8 0z" fill="#fff"/><path d="m44.4 96.5c0-3.4 0-6.3 0-9.2.8-.4 1.1 0 1.1.8 0 1.8 0 3.7.3 5.6 1.3-1.9 2.5-3.9 3.9-5.7.3-.4.9-.7 1.7-1.2v9.2c-.9.1-1 .1-1-.8 0-1.9 0-3.7-.2-5.7-.6.8-1.1 1.6-1.7 2.5-.7 1.1-1.4 2.2-2.2 3.3-.5.5-1.1.7-1.9 1.2z" fill="#fff"/><path d="m76.7 96.1c0-1.4 0-2.7 0-4-1.5 0-2.9 0-4.5 0v3.9c-.5 0-.8 0-1.2 0 0-2.9 0-5.8 0-8.8.3 0 .7-.1 1.2-.1v3.7h4.5c0-1.2 0-2.3 0-3.6.4 0 .8-.1 1.2-.1v8.9c-.3.1-.7.1-1.2.1z" fill="#fff"/><path d="m36.9 92.7v3.3c-.4 0-.8.1-1.3.1 0-1.6 0-3.1 0-4.5s0-2.9 0-4.3c1.6 0 3.2-.1 4.7 0 1.4.1 2.1 1.2 2 2.6 0 1.4-.8 2.3-2.2 2.5-.9.2-2 .2-3.2.3zm0-1.3c1.1 0 2 .2 2.9-.1.5-.1 1.1-.8 1.2-1.3s-.4-1.4-.7-1.5c-1.1-.3-2.2-.2-3.4-.3z" fill="#fff"/><path d="m52.7 96c1-2.8 2.1-5.6 3.2-8.3.1-.2.5-.5.8-.5s.7.2.8.5c1.1 2.7 2.2 5.5 3.3 8.3-.9.4-1.3.2-1.6-.7-.2-.6-.5-1.7-.9-1.8-1-.3-2.2-.3-3.2 0-.4.1-.7 1-.8 1.6-.2.8-.6 1.3-1.6.9zm4-7.6c-.5 1.4-1 2.7-1.4 4h2.9c-.5-1.4-1-2.6-1.5-4z" fill="#fff"/><path d="m34.3 96c-1 .3-1.4 0-1.6-.8-.2-.6-.5-1.7-.9-1.8-1-.3-2.2-.3-3.2 0-.4.1-.7 1.1-.9 1.7-.2.8-.6 1.1-1.6.8.2-.6.4-1.3.7-1.9.8-2.1 1.5-4.2 2.4-6.2.1-.3.5-.6.8-.7.3 0 .8.2.9.5 1.2 2.8 2.3 5.6 3.4 8.4zm-2.7-3.6c-.5-1.3-1-2.5-1.5-4-.5 1.5-1 2.7-1.4 4z" fill="#fff"/><path d="m79.4 96c1-2.8 2-5.5 3.1-8.2.1-.3.6-.6.9-.6s.8.3.9.6c1.1 2.7 2.2 5.4 3.3 8.2-.8.4-1.3.2-1.6-.7-.2-.7-.4-1.7-.9-1.8-1-.3-2.2-.3-3.2 0-.4.1-.7 1.1-.9 1.7-.2.8-.6 1.2-1.6.8zm4-7.6c-.5 1.5-1 2.7-1.4 4h2.9c-.5-1.3-.9-2.5-1.5-4z" fill="#fff"/><path d="m18.7 34.9c-.9 1.2-1.6.1-2.2-.1-.8-.2-1.6-.6-2.5-.8.9.9 1.8 1.8 2.6 2.8.2.3.3.7.5 1-.4 0-.8.2-1.2.1-1.2-.1-2.3-.3-3.8-.5 1.4 1 2.6 1.8 3.8 2.6 0 0-.1.3-.2.5-1.8-1.1-3.6-2.1-5.4-3.1 0-.1-.1-.3-.1-.4.4-.2.9-.5 1.3-.5 1.3.1 2.6.3 4.2.5-.8-.9-1.5-1.5-2.1-2.3-.5-.7-1.9-1.1-.8-2.4 2 1 3.9 1.8 5.9 2.6z" fill="#fff"/><path d="m104.5 71c-.7-.8-1.4-1.5-1.8-2-1.4.4-2.7.8-4.2 1.3.1-1.3.9-1.2 1.4-1.2.9-.1 1.7-.3 1.9-1.4-.9-.3-1.8-.6-2.7-1 0 0 0-.3.1-.5.9.2 1.8.3 2.7.5.4-1.4-.6-1.7-1.4-2.3-.4-.2-.6-.6-.9-1 .1-.1.3-.3.4-.4 1 .8 2 1.7 3.2 2.6.6-.3 1.6-.8 2.6-1.2.2 1.1-.7 1.2-1.2 1.4-.6.3-1.2.5-2.1.9.9.2 1.6.4 2.2.6.2.1.3.3.5.5-.2.1-.4.3-.6.2-.7-.1-1.3-.2-2.1-.3.5 1.3 2.2 1.7 2.1 3.2.1 0 0 .1-.1.1z" fill="#fff"/><path d="m97.6 40.9c-.6.1-1 .2-1.5.2-.1-.1-.1-.3-.2-.4.6-.3 1.5-.9 1.9-.7 1.8 1.1 3.4.2 5.1-.2.2-.1.5-.1.9-.2.3 1.1.7 2.2 1 3.4-.6.2-1.2.4-1.7.6-1.4.5-2.9.6-4.1 1.8-.3.3-1.1.3-1.6.4 0-.1-.1-.3-.1-.4.4-.2.9-.5 1.4-.8-.4-1.4-.7-2.6-1.1-3.7zm1.7 2.8c1.6-.5 3.1-1 4.6-1.4-.2-.7-.4-1.2-.5-1.6-1.7.3-3.2.5-4.8.8.2.6.4 1.3.7 2.2z" fill="#fff"/><path d="m106.2 50.2c-1.2.2-2.2.3-3.2.5-.9.2-1.8.6-2.7.9-.6.1-1.2.1-1.8.2 0-.1-.1-.3-.1-.4.4-.2.8-.4 1.4-.6-.2-1.2-.3-2.4-.5-3.6-.5 0-1-.1-1.5-.1 0-.2 0-.3-.1-.5.7-.1 1.6-.5 2-.2 1.5 1 3 .7 4.5.5.4 0 .8-.1 1.3-.1.4 1.1.6 2.2.7 3.4zm-6-2.4c.1.8.2 1.5.4 2.4 1.7-.2 3.2-.5 4.8-.7-.1-.7-.2-1.2-.3-1.7-1.7 0-3.2 0-4.9 0z" fill="#fff"/><path d="m90.6 22c-2.1.2-3.9 1.6-6.1 1.2 2-3 4-4.9 4.9-4.5-1 1.2-2 2.3-3.1 3.5 2.1-.1 3.8-1.6 6.2-1.1-1.4 1.6-2.7 3.1-4 4.5-.1.2-.5.2-.7.2 0-.3 0-.6.1-.8.9-1 1.8-1.9 2.7-3z" fill="#fff"/><path d="m71.8 15.8c.8-1.8 1.4-3.5 2.2-5.2.1-.2.5-.3.7-.5.1.1.1.2.2.3-.5 1.4-1.1 2.8-1.8 4.4 1.9-1.1 3.2-2.7 5.1-3.2.1.1.2.3.3.4-.8 1.9-1.5 3.7-2.3 5.6-.1 0-.3 0-.4 0 0-.3-.2-.7-.1-.9.4-1.2 1-2.3 1.5-3.6-1.7 1.1-3.2 2.1-4.8 3.1 0 0-.3-.2-.6-.4z" fill="#fff"/><path d="m45.8 7.7c1.6 3.8 1.9 5.7 1.1 6.3-.4-1.4-.8-2.9-1.2-4.5-1 1.9-.9 4-2.2 5.5-.1 0-.3-.1-.4-.1-.5-2-1.1-4-1.6-6 .8 0 .8 0 1.3 1.7.2.8.4 1.7.7 2.7.8-1.9.8-4.1 2.3-5.6z" fill="#fff"/><path d="m9.7 49.3c2.2.1 3.4 1.2 3.3 3.2-.1 1.7-1.3 2.7-3.2 2.6-2-.1-3.3-1.4-3.3-3.1.1-1.7 1.4-2.8 3.2-2.7zm.2 4.8c1.4 0 2.3-.7 2.4-1.8 0-1.2-1.2-2.2-2.7-2.2-1.3 0-2.4.9-2.4 2 .1 1.2 1.2 2 2.7 2z" fill="#fff"/><path d="m98.2 38.4c-1.6 0-2.8-1.2-2.8-2.8 0-1.7 1.7-3.2 3.7-3.2 1.6 0 2.9 1.3 2.9 2.9-.1 1.7-1.8 3.1-3.8 3.1zm2.9-3.3c0-1.1-.8-1.8-1.9-1.8-1.5 0-3 1.2-3 2.4 0 1 .9 1.9 1.9 1.9 1.5 0 3-1.3 3-2.5z" fill="#fff"/><path d="m84.2 15c-1 1.7-1.8 3.2-2.8 4.8-.1.2-.5.3-.7.4 0-.3-.1-.6 0-.8.2-.6.6-1.1.9-1.7-1-.9-1.7-.4-2.5.2-.4.4-.8 1.2-1.7.3.8-.6 1.6-1.3 2.5-2-.4-.7-.5-1.8.5-2.3 1.5-.8 2.6.2 3.8 1.1zm-1-.1c-.8-.1-1.5-.3-2.1-.3-.2 0-.6.7-.5 1 .3.6.8 1 1.3 1.7.5-1 .8-1.6 1.3-2.4z" fill="#fff"/><path d="m91.2 29.7c.1-.3.2-.7.4-.9 1.5-1.1 2.9-2.1 4.6-3.3.9 1.2 1.8 2.4 2.7 3.7-1.7 1.2-3.4 2.4-5 3.6-.6-.6-.6-.7 0-1.1 1.2-.9 2.5-1.8 3.8-2.8-.6-.8-1.1-1.5-1.6-2.3-1.5 1.1-3 2.1-4.4 3.1-.1.1-.3 0-.5 0z" fill="#fff"/><path d="m20.6 23.1c-.5.5-.9 1-1.3 1.4 1.2 1.4 3.1 2.2 3.3 4.2 0 .3-.3.7-.6 1 0-2.7-2.5-3.4-3.8-5.1.8-.9 1.5-1.8 2.4-2.8 1.5 1.3 3 2.6 4.4 4 .1.1 0 .5-.1 1.1-1.5-1.4-2.9-2.5-4.3-3.8z" fill="#fff"/><path d="m58.9 13.2c.1-2 .2-3.7.3-5.6-.7 0-1.2 0-2 0 0 .6-.1 1.2-.2 1.9-.1.9-.2 1.7-.5 2.5-.3.7-.8 1.2-1.9.7 2.1-1.6 1.4-3.8 1.8-6 1.2.1 2.3.1 3.7.2-.2 2.1-.3 4.2-.5 6.2 0 .1-.4.1-.7.1z" fill="#fff"/><path d="m52.2 7.5c-.6.1-1.2.1-1.8.2-.5 1.9 1.2 4.4-1.5 5.8 1.4-2 .5-4.2.4-6.4 1.2-.1 2.4-.3 3.7-.4.2 1.9.4 3.8.6 5.6 0 .2-.2.5-.4.7-.1-.2-.4-.4-.4-.6-.3-1.6-.4-3.2-.6-4.9z" fill="#fff"/><path d="m93.9 80.3c.4-.1.8-.2 1.2-.2.8.1 1.3.1 1.7-.7s.4-1.2-.2-1.8c-.3-.3-.4-.7-.6-1.1.1-.1.3-.2.4-.3 1.4 1.6 2.8 3.1 4.2 4.7.1.1.1.6-.1.7-.1.2-.5.3-.7.3-1.9-.3-3.9-.7-5.8-1.1-.1-.2-.1-.3-.1-.5zm5.8.7c-.8-.8-1.3-1.4-1.9-2-.3.6-.5 1-.8 1.5.9.1 1.7.3 2.7.5z" fill="#fff"/><path d="m28.3 20.9c-.1.9.9 1.7-.1 2.7-.7-2.1-1.4-4.1-2-6-.1-.2.1-.7.3-.8s.6 0 .9.1c1.6 1.1 3.2 2.2 5 3.3-1.2.9-1.6-.4-2.6-.5-.4.4-1 .8-1.5 1.2zm-1.3-3.2c.4 1 .6 1.8.9 2.6.5-.4.9-.6 1.4-1-.7-.5-1.3-1-2.3-1.6z" fill="#fff"/><path d="m102.8 77.3c-.7-1.1-1.4-2-1.8-2.7-1.4.3-2.7.6-4 .9-.1-1-.1-1 .9-1.1 1 0 2.1 0 2.5-1.5-.7-.2-1.3-.4-1.9-.7-.2-.1-.4-.4-.6-.6.3-.1.6-.3.8-.2l4.8 1.5c.2.1.3.5.5.7-.1.1-.2.1-.3.2-.8-.2-1.6-.5-2.5-.8.2 1.7 2.2 2.4 1.6 4.3z" fill="#fff"/><path d="m13.8 66.9c.6 1.5-1 1.3-1.3 2.4 0 0 .1.3.2.6.1 1 .6 1.5 1.7 1.3.3 0 .7.3.9.6-2 0-4 0-6.1 0-.2 0-.6-.3-.7-.5 0-.2.2-.6.4-.8 1.6-1.2 3.2-2.4 4.9-3.6zm-3.9 3.9v.2h2.3c-.2-.5-.3-1-.5-1.6-.6.5-1.2.9-1.8 1.4z" fill="#fff"/><path d="m13 61.6c-.1 1.6-2.9 1.3-2.4 3.5.7-.1 1.4-.2 2.1-.3.2 0 .5.1.7.2-.2.2-.3.6-.5.6-1.7.3-3.3.6-5 .8-.2 0-.4-.2-.7-.3.2-.2.3-.4.6-.5.6-.2 1.3-.2 2-.4-.8-1.2-2.8-1-3.2-2.9 1.1.7 2.1 1.2 2.7 1.6 1.2-1 2.2-1.8 3.3-2.7.2.2.3.3.4.4z" fill="#fff"/><path d="m105.8 56.4c0-.8 0-1.5 0-2.4-.7 0-1.3 0-2 0v2.3c-.1 0-.3.1-.4.1-.1-.7-.3-1.5-.4-2.3-.6 0-1.2 0-2 0v2.6c-.2 0-.3 0-.5 0-.6-1.1-.1-2.3-.4-3.6h6.4c-.1 1.1.3 2.3-.2 3.3-.2.1-.3.1-.5 0z" fill="#fff"/><path d="m65.1 14c-1.2-.2-2.3-.3-3.5-.5.4-2.1.7-4.1 1-6.3 1.2.2 2.3.4 3.6.6-1 1.1-2 0-2.9.5-.1.5-.2 1-.3 1.6.8.2 1.6.4 2.3.7 0 .1 0 .3-.1.4-.4 0-.7 0-1.1 0s-.8-.1-1.3-.2c-.1.7-.2 1.4-.4 2.1l2.7.6c.1.1 0 .3 0 .5z" fill="#fff"/><path d="m7.5 46.6c.3-2.6 1-3.6 2.4-3.4 1.5.2 1.9 1.2 1.6 3.5.6.1 1.2.3 1.7.5.2.1.3.4.5.6-.2.1-.5.3-.7.3-1.8-.5-3.6-1-5.5-1.5zm3.5 0c-.2-.9-.2-1.6-.5-2.1-.2-.3-1-.5-1.3-.3-.5.3-.7 1-1.1 1.6 1.1.3 1.8.5 2.9.8z" fill="#fff"/><path d="m11.5 78.3c-1.4-1.8-1.5-3.3-.4-4.1 1.3-.8 2.3-.3 3.5 1.7.5-.2 1.1-.5 1.7-.7.2-.1.5.1.7.2-.1.2-.2.5-.4.6-1.7.8-3.4 1.5-5.1 2.3zm-.2-.9c1.1-.5 1.7-.8 2.7-1.2-.6-.6-1-1.1-1.6-1.4-.3-.1-1 .2-1.1.5-.1.5 0 1.2 0 2.1z" fill="#fff"/><path d="m33.1 17.1c.3.5.6 1 .8 1.5.1.2 0 .5 0 .8-.2-.1-.6-.1-.7-.3-1-1.6-1.9-3.3-2.8-4.9 2-1.6 3.3-1.8 4.1-.6.9 1.1.5 2.1-1.4 3.5zm-.2-.4c.5-.8 1-1.3 1.2-1.9.1-.3-.5-1-.8-1-.6-.1-1.2.2-1.9.4.5.8.9 1.4 1.5 2.5z" fill="#fff"/><path d="m68.1 12.4c-.6.6-.2 1.9-1.1 2.2-.1-.1-.3-.2-.4-.2.5-2 1.1-3.9 1.6-5.9 2.5.1 3.5.9 3.4 2.3-.2 1.4-1.2 1.9-3.5 1.6zm0-.5c1-.2 1.7-.3 2.2-.5.2-.1.4-1 .2-1.2-.4-.5-1-.7-1.7-1.1-.2.9-.3 1.6-.7 2.8z" fill="#fff"/><path d="m106.3 58.8c.3 2.5-.3 3.7-1.7 3.7-1.5.1-2.1-.8-2.1-3.2-.5 0-1.1 0-1.7-.2-.3-.1-.5-.3-.7-.5.2-.1.5-.4.7-.4 1.9.3 3.7.4 5.5.6zm-2.9.5c-.4 1.5-.1 2.2.8 2.4.9.1 1.4-.4 1.4-1.2.1-1.9-1.5-.5-2.2-1.2z" fill="#fff"/><path d="m14.2 30.1c1.4-.8 2.8.4 4.2.2-.4-.6-.9-1.2-1.3-1.9-.3-.5-1.3-1-.2-1.9 1 1.6 2 3.1 2.9 4.7.3.5.2 1.3.2 2 0 .1-.3.3-.5.4-.1-.2-.2-.5-.2-.7.3-1.1-.1-1.7-1.3-1.8s-2.5-.4-3.7-.6c-.1-.1-.1-.2-.1-.4z" fill="#fff"/><path d="m14.6 84c-.9-1.1-1.5-2.5-2.2-3.7-.1-.1.1-.4.2-.9.5.7.8 1.2 1.2 1.8 1.6-.9 3.2-1.8 4.7-2.7.1.1.2.2.3.2-.2.3-.3.7-.5.9-1.3.8-2.7 1.6-4.1 2.4.3.6.6 1.1.8 1.7-.1.1-.2.2-.4.3z" fill="#fff"/><path d="m38.1 11.1c.6 1.7 1.3 3.4 1.9 5.1 0 0-.3.2-.6.3-.7-1.7-1.5-3.4-2.2-5-.7.2-1.3.3-1.9.4 0-.2-.1-.3-.1-.5 1.4-.6 2.9-1.2 4.3-1.8.1.2.2.3.3.5-.6.3-1.1.6-1.7 1z" fill="#fff"/><path d="m7.3 58.6c-.1.9-.2 1.5-.3 2.4-.8-1.2-.8-4.5-.1-5.1.1.7.2 1.2.3 1.8h4.7c.3 0 .5.2.8.3-.3.2-.5.5-.8.5-1.5.2-3 .1-4.6.1z" fill="#fff"/><path d="m63 78.7c-3-.7-4.5 1.5-6.2 3.1-.5-.5-1.1-.9-1.5-1.4-1-1.3-2.4-1.8-4-1.6-.2 0-.5.2-.6-.2-.1-.3.1-.5.2-.7.2-.2.3-.4.5-.5.7-.4 1-.9.9-1.7-.1-.3-.1-.7.4-.8.6-.1.4.4.4.7 0 .6.3.7.8.7 2 0 4.1-.1 6.1 0 1.3.1.6-1 1.2-1.5-.5 1.7 1.1 2.5 1.8 3.9z" fill="#eec220"/><g fill="#518a39"><path d="m28.2 42.7c.6.9 1.2 1.7 1.9 2.6.6.8.7 1.4-.3 1.9-.4.2-.6.6-.6 1.2-.9-.4-.9-1.5-1.9-1.9.1 1 .8 1.5 1.2 2.2.3.5 1 1.2.5 1.6-.6.4-.9-.6-1.3-1-.6-.7-.7-1.6-.9-2.4s.1-1.2 1-1c .4.1.8.5 1.3 0 .5-.6-.2-.9-.4-1.3-.1-.3-.3-.6-.4-.9-.2-.6-.6-1.3-.1-1.8s1 .2 1.5.5c.7.4.8.1.8-.5 0-.7-.5-1.2-.6-1.9 0-.2-.3-.5 0-.6s.4.1.6.3c1.5 1.7 1.6 2.5.3 5.3-.6-.3-.8-.9-1.2-1.4-.4-.4-.6-1.1-1.2-1.3 0 .2-.1.3-.2.4z"/><path d="m85.2 42.4c-1 .7-1.4 1.9-2.2 2.7-1.6-2-1.5-3.4.5-5.6.4.7.1 1.2-.2 1.7-.2.5-.4 1 0 1.4s.7-.3 1.1-.4c.3-.1.7-.5 1-.3.4.3.3.8.2 1.2-.2.7-.4 1.4-.9 2-.2.2-.3.5-.1.8s.5.3.9.2c1.5-.4 1.5-.3 1.3 1.3-.1 1-.7 1.7-1.3 2.5-.2.3-.5.6-.8.5-.4-.2-.1-.7 0-1 .4-.7.9-1.4 1.4-2.1.1-.2.4-.4.1-.8-.9.3-.9 1.4-1.7 1.8 0-.6-.3-1-.8-1.3-.8-.4-.7-1-.2-1.7.7-.9 1.3-1.8 2-2.7-.1 0-.2-.1-.3-.2z"/><path d="m80.8 50.9c.8.2 1.2-.1 1.2-.9.1-.7.3-1.3.6-1.9.2-.3.3-.7.8-.6.4.1.5.5.5.9 0 .7.1 1.3 0 2-.1.9.3 1.3 1.1.9.3-.1.6-.2.9.1.3.4.1.7-.1 1-.4.7-.9 1.2-1.5 1.7-.3.2-.5.4-.4.8s.5.3.8.3h.7c.3 0 .6-.1.8.2.1.4 0 .6-.4.8 0-.8-.4-.5-.8-.3-.9.4-1.6 1-2.5 1.3-.5-2.7.8-4.2 3.2-5.2-1.1-.2-1.7.7-2.8.9.1-1.1.3-2.1.4-3.2 0-.3.3-.9-.3-.9-.4 0-.4.5-.4.8-.1 1-.3 2-.4 3.2-.8-.4-1.3-1-1.7-1.6.2-.1.2-.2.3-.3z"/><path d="m33.1 51.1c-.4.6-1 1.1-1.7 1.7-.2-1.2-.3-2.2-.4-3.2 0-.3 0-.9-.4-.9-.6.1-.3.7-.3 1 .1 1 .3 2 .4 3.2-1-.5-1.7-1-2.5-1.4.5 1.2 1.9 1.3 2.5 2.2.6 1 .3 2.2.6 3.4-1.1-.3-1.8-.9-2.7-1.3-.4 0-.8-.4-.8.4v.1c-.3-.2-.5-.5-.4-.8.1-.4.5-.2.8-.2.5-.1 1.3.4 1.6-.3s-.7-.8-1-1.3c-.2-.3-.5-.5-.7-.9s-.7-.7-.4-1.2c.3-.6.8-.2 1.2-.1.6.1 1 0 .9-.8 0-.7 0-1.5 0-2.2 0-.4.2-.8.6-.9.5-.1.6.2.8.6.3.6.6 1.2.6 1.9.1.8.5 1.1 1.2.9 0 0 .1.1.1.1z"/><path d="m80.6 51.1c-.3-.1-.7-.3-.5.2.1.3.4.6.6.7 2.1 1.3 1.4 3.1 1 5.1-1-.9-1.8-1.7-2.7-2.5-.1.1-.2.2-.3.3.6.9 1.5 1.6 2.3 2.3.5.5.7.9.5 1.6-.4 1.2-1.1 1.5-2.1.6-.5-.4-.5-.5-1-.1-.3.2-.4 0-.4-.1-.1-.3-.2-.6 0-.8.2-.3.5-.3.9-.2.3.1.7.3 1-.1.2-.4-.1-.7-.3-1-.4-.6-1-1.1-1.1-1.9 0-.3-.3-.7 0-.9.3-.3.6 0 .9 0 .4.1.9.6 1.2.1s0-.9-.3-1.3c-.4-.4-.5-1-.7-1.6-.1-.4-.2-.8.2-1s .7 0 .9.4c0 .1 0 .2-.1.2z"/><path d="m32.9 50.9c.2-.3.5-.6.9-.4s.3.6.2 1c-.2.7-.3 1.3-.8 1.8-.3.3-.4.8-.2 1.1.3.5.7 0 1 0 .4 0 .8-.5 1.1-.1.4.4.1.9-.1 1.3-.2.5-.6 1-.9 1.5-.2.3-.6.6-.4 1.1.3.5.7.2 1.1.1.3-.1.6 0 .8.3s.1.6 0 .8c-.1.1-.3.5-.4.1-.4-1-.7-.1-1 .1-.5.5-1 1-1.6.2-.5-.7-.9-1.4-.2-2.2.7-.7 1.4-1.3 2.1-2 .2-.2.5-.3.4-.8-.9.4-1.4 1.2-2.1 1.8-.2.2-.4.5-.7.4-.2-.1-.2-.4-.3-.7-.6-1.8-.1-3.3 1.5-4.4.2-.2.7-.4.3-.8-.1-.1-.3 0-.5.1 0-.1-.1-.2-.2-.3z"/><path d="m82 62c-.1.4-.3.8-.3 1.2-.1.4 0 .8.6.8.3 0 .7-.1.7.4 0 .4-.2.7-.6.8-.6.2-1.1.6-1.8.6-.4 0-.7.1-.8.6s.3.6.6.8c1.1.6 1.1.6.4 1.1 0-.8-.6-.5-1-.5-.9-.1-1.8.1-2.7-.3.6-1.1 1.4-2 2.3-2.6.9-.5 2.2.2 3.5-.4-1.1-.5-2-.1-2.9-.4.6-.9 1.1-1.6 1.8-2.3.1.1.2.2.2.2z"/><path d="m31.9 61.9c.8.6 1.3 1.4 1.9 2.2-.9.3-1.9-.1-2.9.4 1.3.5 2.6-.1 3.5.4s1.5 1.6 2.2 2.6c-1.3.5-2.7-.1-4 .5-.1-.7.6-.7.9-1 .3-.2.6-.3.5-.7s-.4-.7-.8-.6c-.7.1-1.3-.5-2-.5-.5-.1-.6-.5-.6-.8-.1-.5.4-.4.7-.4 1.4-.4.5-1.3.4-2 0 0 .1-.1.2-.1z"/><path d="m64 76c2-1.7 3.1-1.7 6.1.4-.7.2-1.3-.2-1.9-.3-.4-.1-.8-.3-1.1 0s-.2.7 0 1c .5 1.1-.1 1.2-.9 1.1-1.7-.1-2.5-.5-3.8-1.6.3-.3.6-.4 1-.3.9.5 1.7 1 2.6 1.5.2.1.5.3.6 0s-.1-.4-.4-.6c-.7-.4-1.5-.8-2.2-1.2z"/><path d="m75.1 63.5c.3-.8.6-.5.9 0 .3.4.6.9 1.1.8.7-.2.3-.8.4-1.3.1-.4 0-.9.1-1.2.1-.4.1-1.1.8-1.2.6-.1.6.5.8.8.3.5.8.6 1.2.1.2-.2.4-.4.7-.5.1.1.2.1.2.2-.5.8-1.1 1.6-1.9 2.3-.7-.7-.2-1.9-1.3-2.5 1.2 2.5.6 4.4-1.5 5.8-.2-.2-.2-.5-.2-.8.1-.5-.1-.9-.4-1.3-.1-.3-.2-.7-.3-1-.3-.2-.4-.2-.6-.2z"/><path d="m50.3 76.3c.3-.1.7 0 1 .3-1.1 1.2-2.4 1.7-4 1.7-.6 0-1.2-.2-.7-1 .2-.4.4-.8 0-1.2-.3-.3-.8-.1-1.2 0-.6.1-1.1.5-1.7.3 2.1-2 4.1-2.2 6-.5-.8.4-1.5.8-2.3 1.2-.3.1-.6.3-.4.6s.4.1.7 0c .9-.4 1.8-.9 2.6-1.4z"/><path d="m27.8 56.2c1.2.4 2.2 1 3.2 1.7.5.3 1 .9-.1 1.1-.2 0-.4.1-.4.2-.3.9-.9 1-1.8.7.8.9 2.2 1.2 2.4 2.7-1.3-.3-2.1-1.2-2.8-2.2-.4-.6-.4-1.2.6-1.3.4 0 .9 0 1-.6s-.4-.7-.7-.9c-.7-.3-1.2-.7-1.4-1.4-.1.1 0 0 0 0z"/><path d="m80.7 68.2c-.5.9-1.3.7-2.1.8-.3 0-.8-.1-.9.4-.1.4 0 .8.3 1 1.2.7.4 1-.2 1.4-1 .6-2.1.4-3.2.4.9-1.2 2.2-.6 3.2-.9-.1-.5-.5-.4-.7-.4-.3 0-.7-.3-.6-.4.6-.9-.5-1.4-.5-2.1.4-.3.9-.3 1.4-.3 1.1.1 2.2.1 3.3.1z"/><path d="m85.8 56.5c-.1.7-.8.9-1.2 1.3-.2.2-.6.3-.5.7.1.5.4.4.7.5 1.3.4 1.4.9.5 1.8-.6.6-1 1.6-2.2 1.2.2-1 1.1-1.2 1.8-1.7.2-.1.4-.2.4-.4-.1-.4-.4-.2-.6-.1-.4.3-.7.2-.9-.3-.1-.3-.3-.5-.6-.6-1.4-.4-.7-.9 0-1.3.9-.5 1.7-1.1 2.6-1.4-.1.2-.1.3 0 .3z"/><path d="m32.6 36.6c-.5-.9-.4-1.8-.3-2.6.1-1 .5-1.1 1.3-.6.3.2.5.5.9.3s.2-.6.2-.9c0-.7 0-1.3 0-2.1.9 1.3 1.2 3.4.5 4.2-.3.4-.7.7-1.3.6s-.4-.7-.5-1 0-.8-.5-1c-.4 1 .8 2.1-.3 3.1z"/><path d="m78 41.2c.9.1 1.7.5 2.6.8.5.2.6.6.7 1.1.3.7.5 1.5.8 2.3-.9.1-1.5-.5-2.3-.5-.4 0-1-.9-1.4.1-.1.2-.2-.1-.2-.2-.3-.3-.2-.6.1-.7s.7-.1 1.1-.1c.3 0 .7.1.8-.4.1-.4-.1-.6-.4-.8-.6-.5-1.5-.7-1.8-1.6z"/><path d="m36 41.3c-.8.6-1.3 1-1.9 1.3-.4.2-.8.4-.7.9.1.6.6.4 1 .4h.7c.4.1.6.3.3.7-.5.8-.3-.1-.5-.2-.5-.1-.9.2-1.3.3-.7.1-1.5.8-1.9.4-.5-.5.2-1.3.4-1.9.5-1.1 1.8-1.9 3.9-1.9z"/><path d="m35.7 71.1c1.2.5 2.4-.1 3.4 1.1-1.2.1-2.3.2-3.3-.4-.6-.4-1.1-.8-.1-1.3.4-.2.5-.6.4-1.1-.2-.5-.6-.3-1-.3-.6-.1-1.3.1-2.1-.8h3.8c.5 0 1 .3.5.9-.2.2-.3.4-.2.7 0 .7 0 1.5-1.4 1.2z"/><path d="m37.5 66c-.1.3 0 .7-.3.8-2.3-1.5-2.4-3.5-1.5-5.8.8.6.4 1.4.5 2.2.1.4-.3.9.4 1 .5.1.8-.2 1-.6.2-.3.3-.7.8-.6.3 0 .3.3.2.5-.2 0-.4 0-.5.2-.1.4-.2.8-.4 1.3-.1.3-.3.6-.2 1z"/><path d="m79 30.7v2.1c0 .3-.1.6.2.8s.6-.1.9-.2c.9-.6 1.3-.5 1.4.6.1.9.2 1.7-.4 2.6-1-.9 0-2-.2-3-.6.1-.5.5-.6.8-.2.5-.1 1.5-1 1.1-.7-.2-1.4-.8-1.3-1.7.1-1 .5-2 .7-3 .1-.1.2-.1.3-.1z"/><path d="m33.8 48.3c-1.6 1-2-.1-2.5-1-.2-.5-.1-.9.4-1.1 1-.4 2.1-.7 3.3-1.1-.3.9-1 1-1.6 1.3-.3.2-.7.3-.7.8-.1.6.4.5.7.7.5.2 1 .4.7 1.1s-1 1-1.6 1.3c-.1.1-.3-.1-.3-.3s0-.4.2-.5c.4-.2.8-.3 1.2-.5.1-.3.1-.5.2-.7z"/><path d="m78.6 45.1c1.4.4 2.5.8 3.6 1.2.4.2.5.6.3 1-.3.5-.4 1.1-.8 1.5s-.9-.4-1.6-.1c.2.5.7.5 1.1.7s.4.4.3.7c-.2.3-.4.2-.6 0s-.5-.3-.7-.5c-.9-.7-.8-1.2.2-1.7.3-.1.7-.1.7-.6s-.3-.6-.6-.8c-.7-.3-1.4-.4-1.9-1.4z"/><path d="m70.7 76c-.9-.5-1.8-1-2.6-1.4-.6-.3-.3-.5.1-.7 1.5-.9 3-1.5 4.5-.1.3.2.7.3 1.1.5-.4.6-.9.2-1.3.1-2.3-.6-2.4-.5-1.8 1.6z"/><path d="m40.3 74.2c2.3-1.7 3.3-1.7 5.3-.3.3.2.5.4.1.6-.9.4-1.6 1.1-2.7 1.3.1-.6.9-.9.3-1.5-.5-.4-1-.3-1.5-.1-.5.1-.9.1-1.5 0z"/><path d="m67.2 73.4c.1-1.2.3-2.2.6-3.2.4-.1.4.3.5.4.2.3.2.6.7.6.4 0 .5-.4.7-.6.2-.3.1-.9.6-.7.5.1.4.6.3 1-.1.7-.4 1.2-1.1 1.5-.8.3-1.5.6-2.3 1z"/><path d="m46.6 73.4c-1.1-.5-2-.9-2.8-1.3-.7-.4-.6-1.1-.7-1.7 0-.3.2-.4.5-.5s.3.2.4.3c.8 1.4.9 1.4 1.9-.2.4 1.1.4 2.2.7 3.4z"/><path d="m35.3 30c .2.1.3.1.4.1.5.3.5 1.6 1.3 1.3.6-.2.2-1.2.3-1.8.1-.3.2-.7.4-1.1 1 2.1.7 3.4-.9 4.7-.6.5-.6-.1-.7-.4-.3-.9-.5-1.8-.8-2.8z"/><path d="m46.7 70c .5.5.7 1.2 1 1.8.1.3-.2.8.4.9s.8-.3 1-.8c.1-.2.2-.3.3-.5 0 .1.1.1.1.1-.1.6-.2 1.3-.4 1.9-.1.4 0 1.1-.6 1s-1.4-.3-1.5-1.1c-.2-1-.4-2.1-.3-3.3z"/><path d="m76 28.5c.5.8.4 1.5.5 2.3 0 .3-.1.6.3.7.3.1.5-.2.7-.5s.2-.9.9-.9c-.3 1.1-.6 2.2-.9 3.4-2.1-1.5-2.4-2.5-1.5-5z"/><path d="m31 38.9c.8.5 1.2.3 1.5-.5.3-.7.6-1.4 1-2 .2-.3.5-.4.9-.2.3.3.1.6-.1.7-1.1.4-1.1 1.4-1.3 2.2-.2.6-.4 1.2-.7 2-.6-.7-1.1-1.3-1.3-2.1-.1.1 0 0 0-.1z"/><path d="m83 39.1c-.5.8-.9 1.4-1.5 2.2-.3-1-.5-1.8-.8-2.6-.2-.6-.2-1.4-1.1-1.7-.3-.1-.6-.5-.2-.8.3-.3.7-.1.9.2.4.6.7 1.2 1 1.9.4 1 .3 1 1.7.8z"/><path d="m64.5 72.1c1 .9 1.1.8 1.5-.4.2-.7.6-1.3 1.2-1.8-.2 1-.5 2.1-.6 3.1-.1.8-.6 1.3-1.3 1.2-.5 0-.5-.7-.6-1.2-.1-.2-.3-.5-.2-.9z"/><path d="m35.7 61c-.6-.1-.7.3-.8.7-.1.6-.3 1.2-.5 1.9-.8-.9-1.5-1.6-1.9-2.5l.2-.2c.3 0 .5.1.6.4.5.8 1 .6 1.3-.2.4-.7.7-.8 1.1-.1z"/><path d="m42 31.7c-1.1 1-2.4.6-3.2 1.4-.1.1-.5-.1-.6-.3-.2-.2.1-.4.2-.6.4-.6.9-.6 1.5-.6.6.1 1.2.1 2.1.1z"/><path d="m71.8 31.7h2.5c.5 0 .8.1 1.1.5.2.2.5.4.3.6-.1.2-.7.4-.7.3-.9-.8-2.2-.3-3.2-1.4z"/><path d="m78 41.2c-.6-.6-.2-1 .4-1 .7 0 1.2-.2 1.8-.7.2.6.4 1.1.7 1.8-.8 0-1.4-.4-2-.5-.5-.1-.9-.3-.9.4z"/><path d="m74.8 70.7c-.3 1-2 .9-1.5 2.4-.7-.1-1.2-.4-1.9-.8 1.2-.6 2.3-1.1 3.4-1.6z"/><path d="m80.9 60.9c0-.6.6-.7.9-1.1.3-.3.8-.3 1.1 0 .4.4.1.6-.1 1s-.4.9-.8 1.2c-.1-.1-.2-.1-.2-.2.1-.2.2-.4.3-.5.2-.2.3-.5 0-.7-.2-.2-.4.1-.6.3-.1.1-.2.2-.4.3 0-.1-.1-.2-.2-.3z"/><path d="m33.6 39.6c.6.6 1.2.8 2.2.6-1 .7-1.9.9-2.8 1.2 0-.7.3-1.2.6-1.8z"/><path d="m32.6 61.1c-.1-.1-.3-.2-.4-.3-.2-.2-.4-.4-.6-.3-.3.2-.1.5 0 .7s.2.4.3.5c-.1.1-.1.1-.2.2-.4-.3-.6-.6-.8-1.1-.1-.4-.7-.7-.2-1 .5-.4 1-.3 1.4.2.2.3.6.4.7.8-.1.2-.1.3-.2.3z"/><path d="m39.6 71.1c.9.2 1.7.7 2.6 1.1-.6.5-1.1.7-1.9 1 .6-1.2-.6-1.3-.9-2 .1 0 .1 0 .2-.1z"/><path d="m41 28c-.4 1.1-1.4 1.6-2.1 2.7-.2-.8-.3-1.2-.5-2 1.3.8 1.6-.7 2.6-.7z"/><path d="m72.7 28c .4-.1.6.2.8.4.4.5.9.8 1.6.4.2.6-.2 1.1-.2 1.9-.8-1-1.7-1.7-2.2-2.7z"/><path d="m40.8 30c-.2.8.4.9 1.3 1.1-1 0-1.7 0-2.5 0 .2-.7.6-1 1.1-1.3 0 .1 0 .2.1.2z"/><path d="m73.1 29.8c.5.3.8.7 1.2 1.3-.9 0-1.6 0-2.3 0 .4-.2 1.1-.3.9-1.1.1 0 .2-.1.2-.2z"/><path d="m74.3 69.8c.2-.4.6-.4.9-.5s.7.1.8.5c.1.3.1.5-.3.7-.6.3-.4-.2-.6-.4s-.7 0-.8-.3z"/><path d="m41.2 29.1c-.1-.4 1.4-1-.2-1.2.1-.7.6-.9 1-.7.7.3.2.8 0 1.2s-.2.8-.7.9c-.1-.1-.1-.1-.1-.2z"/><path d="m72.4 29.3c-.7-.1-.7-.9-1-1.3-.2-.2 0-.7.3-.7.5-.1 1 0 1.1.7-1.6.2-.1.8-.2 1.2-.1 0-.1 0-.2.1z"/><path d="m39.1 69.7c-.6.1-.4 1.4-1.4.8-.3-.2-.3-.7-.2-.8.5-.6 1.1-.3 1.6 0z"/><path d="m40.6 29.8c.1-.3.3-.6.6-.7l.1.1c0 .4-.2.6-.5.8-.1 0-.1-.1-.2-.2z"/><path d="m39.4 71.3c-.2-.1-.4-.1-.7-.2 0 0 0-.3.1-.3.3-.1.5.1.7.3 0 .1 0 .1-.1.2z"/><path d="m30.9 39.1c-.1-.1-.2-.2-.3-.3.2-.2.3-.1.4.1 0 .1-.1.2-.1.2z"/><path d="m72.6 29.1c.1.2.2.3.3.5-.1.1-.1.1-.2.2-.2-.1-.2-.3-.2-.5 0-.1 0-.1.1-.2z"/><path d="m49.4 71.5c.1-.1.1-.2.2-.1s.1.2 0 .3c-.1-.1-.1-.2-.2-.2z"/><path d="m72.9 30c-.1-.1-.2-.2-.2-.2.1-.1.1-.1.2-.2.1.1.2.2.2.2 0 .1-.1.2-.2.2z"/><path d="m46.7 70-.1-.1c.1 0 .1.1.1.1z"/><path d="m86 56.3c-.1.1-.2.2-.2.3l-.1-.1c.1-.2.2-.2.3-.2 0-.1 0 0 0 0z"/></g><path d="m59.6 74.8c-1.9 0-3.8 0-5.7 0 .4-16 .8-31.9 1.2-47.8h3.4c.4 15.9.8 31.8 1.1 47.8z" fill="#fff"/><path d="m53.4 54.5c-4.9-4.7-9.6-9.2-14.4-13.8.8-.9 1.5-1.8 2.2-2.7 2.7 2 5.3 3.8 7.8 5.7 1.4 1 2.7 2 4.1 3 .3.2.6.6.6 1-.1 2.2-.2 4.4-.3 6.8z" fill="#f4c51e"/><path d="m62.3 52.2c-2.7-.8-2.3-3-2.4-4.9 0-.2.2-.5.4-.7 3.9-2.9 7.8-5.7 11.8-8.7.8.9 1.5 1.7 2.2 2.7-4 4-8.1 7.8-12 11.6z" fill="#f4c51e"/><path d="m43.7 58.8c1.8-1.3 3.4-2.5 5.2-3.8 1.1 1.3 2.6 2.5 3.2 4 .4 1-.3 2.6-.9 3.8-.4.9-1.4 1.4-2.3 2.2-1.7-2-3.4-4-5.2-6.2z" fill="#f4c51e"/><path d="m69.6 58.8c-1.8 2.1-3.4 4.1-5.1 6.1-2.5-1.2-2.8-3.5-3.4-5.7 0-.2.1-.4.2-.6 1-1.2 2-2.3 3-3.6 1.8 1.3 3.5 2.5 5.3 3.8z" fill="#f4c51e"/><path d="m64.1 74.1c-1.2-.2-2.2-.4-3.2-.7-.3-.1-.5-.6-.6-1-.1-3.3-.2-6.7-.3-10 0-1.2-.1-2.3-.2-3.5.1 0 .2 0 .3-.1 1.4 5 2.6 10.1 4 15.3z" fill="#fff"/><path d="m49.5 74.1c1.3-5.2 2.6-10.2 3.9-15.3h.3c0 .3.1.5.1.8-.1 4.2-.3 8.4-.4 12.6 0 .8-.2 1.3-1.1 1.4s-1.8.3-2.8.5z" fill="#fff"/><path d="m72.9 60.3c1.4 1 1.4 1.7.3 2.8-1.4 1.5-2.6 3.2-4 4.7-.4.4-1 .9-1.5.9-1.1 0-1.4-.8-.6-1.6 1.7-2.1 3.4-4.1 5.2-6.2.1-.2.3-.4.6-.6z" fill="#f4c51e"/><path d="m40.6 60.3c1 1.2 2.1 2.5 3.1 3.7.8 1 1.7 1.9 2.5 2.9.3.4 1.1.9.3 1.5-.7.5-1.5.6-2.1-.2-1.6-1.8-3.1-3.7-4.7-5.6-.7-.6-.4-1.5.9-2.3z" fill="#f4c51e"/><path d="m75.2 65.2c0 1.6-1.8 3.8-2.9 4.1-.9.3-1.5-.1-2-.8s.2-1 .5-1.4c.6-.8 1.3-1.6 2-2.4.3-.3 1-.8 1.2-.6.5.3 1 .9 1.2 1.1z" fill="#f4c51e"/><path d="m41.7 69.6c-1.5 0-4.1-3.2-3.6-4.3.3-.5.8-1 1.3-1.3.2-.1.8.3 1.1.6.8.8 1.5 1.7 2.1 2.6.2.3.5.9.4 1.1-.3.5-.8.9-1.3 1.3z" fill="#f4c51e"/><path d="m70.6 59c1.1.6 1.2 1.3.5 2.2-1.4 1.6-2.8 3.3-4.2 4.9-.8.9-1.1.9-2.2-.1 2-2.3 3.9-4.6 5.9-7z" fill="#f4c51e"/><path d="m42.7 59c2 2.4 3.9 4.6 5.8 6.9-.8 1.1-1.3 1.2-2.1.2-1.4-1.6-2.8-3.3-4.2-4.9-.7-.9-.6-1.6.5-2.2z" fill="#f4c51e"/><path d="m37.9 40.6c-.7-.4-1.3-.9-2-1.3 1.1-1.3 2.1-2.6 3.2-3.9l1.7 1.7c-.9 1.1-1.8 2.2-2.9 3.5z" fill="#f4c51e"/><path d="m77.4 39.2c-.8.5-1.4.9-2 1.3-1-1.2-2-2.4-3-3.6.6-.5 1.1-1 1.7-1.6 1.1 1.3 2.1 2.6 3.3 3.9z" fill="#f4c51e"/><path d="m78.6 39.1c-.3-.2-.5-.4-.7-.6-1-1.2-2.1-2.4-3-3.6-.2-.3 0-.9 0-1.4.4.1.9.1 1.1.4 1.1 1.2 2.2 2.5 3.2 3.8.2.2.3.6.2.7-.1.3-.5.5-.8.7z" fill="#f4c51e"/><path d="m34.7 39.1c-.2-.1-.6-.3-.7-.5s0-.6.1-.8c1.1-1.4 2.3-2.7 3.4-4.1.2-.2.8-.3.8-.2.2.3.5.9.3 1-1.1 1.5-2.3 2.9-3.5 4.3 0 .2-.2.2-.4.3z" fill="#f4c51e"/><path d="m49.6 54.5c.5-.4.9-.6 1.4-1 .8.9 1.6 1.7 2.2 2.7.3.4 0 1.1 0 1.7-.3 0-.7.1-.9-.1-.9-1.1-1.7-2.2-2.7-3.3z" fill="#f4c51e"/><path d="m63.7 54.5c-1.1 1.3-2.1 2.4-3.1 3.6-.9-1.7-.7-2.1 1.6-4.6.5.3 1 .6 1.5 1z" fill="#f4c51e"/><path d="m55.6 26.1c.4-.7.7-1.3 1.2-2.1.4.7.8 1.3 1.2 2.1-.9 0-1.5 0-2.4 0z" fill="#fff"/><path d="m60.2 51.9c.5.4.9.7 1.4 1-.5.6-.9 1-1.4 1.7 0-.9 0-1.7 0-2.7z" fill="#f4c51e"/></svg>