<?xml version="1.0" encoding="utf-8"?>
<!-- Generator: Adobe Illustrator 23.0.1, SVG Export Plug-In . SVG Version: 6.00 Build 0)  -->
<svg version="1.1" id="Capa_1" xmlns="http://www.w3.org/2000/svg" xmlns:xlink="http://www.w3.org/1999/xlink" x="0px" y="0px"
	 viewBox="0 0 558.4 558.4" style="enable-background:new 0 0 558.4 558.4;" xml:space="preserve">
<style type="text/css">
	.st0{fill:#1D1D1B;}
	.st1{fill:#FFFFFF;}
</style>
<circle class="st0" cx="279.2" cy="279.2" r="279.2"/>
<circle class="st0" cx="279.2" cy="270.6" r="264.3"/>
<path class="st1" d="M552.8,283.9c0,123-89.2,233.7-214.8,261.7C191,578.4,43.8,484.6,12,337.8C-19.9,190.6,69.8,47.4,216,12.2
	c11.6-2.8,17.8,2,15.6,12.1c-0.8,3.8-3.3,6-6.7,7.8c-9,4.8-19,6.9-28.3,11.1c-71,32.3-114.2,86.7-126.5,163.6
	C52.5,317.7,128.1,423.8,238,444.9c114.2,21.9,223-49.7,247.9-163.2c23-105-38.9-211.9-142-245.2c-3.4-1.2-6.6-2.5-9.8-4.1
	c-6.8-3.2-9.4-8.7-7.2-15.1c1.9-5.5,6.2-7.4,14-5.5c18.1,4.3,35.9,10,52.7,18.1C477.3,70.5,528.8,136.5,548,227.7
	C551.6,244.5,553,261.6,552.8,283.9L552.8,283.9z"/>
<path class="st1" d="M326.2,345.6c-8.7,33.6-22.7,63.7-47,89.4c-24.4-25.3-38.3-55.8-47-88.9c-49.2-11.9-82-44.7-109.8-84.2
	c-11.9-16.9-21.6-35.1-30.3-55.5c49.3,8.9,93.8,25.8,132.7,57.8c0-59.1,13.3-113.2,54.3-158.6c41,45.3,54.3,99.2,54.4,158.6
	c38.8-32,83.4-49,132.6-57.9c-7,16.8-15.5,32.9-25.4,48.2c-17.8,27.5-38.8,51.8-66.1,70.3c-7.3,5-15.1,9.3-23.1,12.9
	C343.3,341.3,334.9,344,326.2,345.6z M279,227c-11.2,24.2-17.3,41.5-8.4,66.6c2.4,6.9,4.2,14.1,8.6,20.5
	C295.1,284.9,295.9,256.2,279,227z"/>
<path class="st1" d="M279,206.8c24.8,42.7,23.7,84.8,0.3,127.6c-6.4-9.5-9-20-12.6-30.1C253.6,267.5,262.6,242.2,279,206.8z"/>
<g>
	<path class="st0" d="M134,416l26.8,24.5l-7.9,8.6l-2.4-2.2c0.8-1.4,1.4-2.9,2-4.4c0.3-0.9,0.5-1.9,0.6-2.9c0-0.7-0.1-1.4-0.4-2.1
		c-0.5-0.8-1.1-1.5-1.8-2.1l-3.1-2.9l-23.2,25.4c-0.7,0.8-1.4,1.6-2,2.5c-0.4,0.6-0.6,1.2-0.8,1.8c-0.1,0.5,0,1.1,0.2,1.6
		c0.3,0.8,0.8,1.5,1.3,2.2l-1.1,1.2l-11.3-10.4l1.1-1.2c0.5,0.3,1.1,0.6,1.7,0.8c0.4,0.2,0.9,0.3,1.4,0.4c0.4,0,0.9,0,1.3-0.2
		c0.5-0.2,1-0.5,1.5-0.9c0.8-0.7,1.5-1.4,2.2-2.1l23.2-25.4l-3.1-2.9c-0.6-0.6-1.3-1.1-2.1-1.5c-0.7-0.3-1.5-0.4-2.3-0.4
		c-1,0.1-2.1,0.5-3,0.9c-1.4,0.7-2.7,1.5-4,2.4l-2.4-2.2L134,416z"/>
	<path class="st0" d="M158.4,461.6l0.3,0.4c1.6-0.5,3.2-0.8,4.8-1c1.3-0.1,2.6,0,3.9,0.3c1.4,0.3,2.7,0.9,3.8,1.7
		c1,0.7,1.9,1.4,2.8,2.1l-4.3,6.4l-3.1-2.1c0.2-1,0.3-2.1,0.1-3.1c-0.2-0.9-0.8-1.6-1.6-2.1c-0.7-0.5-1.5-0.7-2.4-0.8
		c-2,0-4,0.5-5.7,1.6c-0.7,0.6-1.4,1.3-1.9,2.1l-6.6,9.7c-0.8,1.1-1.5,2.4-2.1,3.7c-0.2,0.7-0.2,1.4,0.1,2.1c0.4,0.8,1,1.5,1.7,2.1
		l-0.9,1.4l-11.2-7.6l0.9-1.4c0.6,0.2,1.3,0.4,1.9,0.4c0.4,0,0.9,0,1.3-0.2c0.5-0.2,1-0.6,1.4-1c0.8-0.9,1.5-1.8,2.1-2.8l8.2-12.1
		c0.8-1.2,1.4-2.1,1.9-2.9c0.4-0.6,0.7-1.3,0.8-2c0.1-0.6-0.1-1.2-0.4-1.7c-0.4-0.7-1-1.3-1.6-1.9l1-1.5l6.7,4.1l1.7,1.1
		L158.4,461.6z"/>
	<path class="st0" d="M163.3,494c0.7,0.1,1.3,0.2,2,0.2c0.4,0,0.8-0.1,1.2-0.3c0.5-0.3,0.9-0.7,1.3-1.2c0.7-0.9,1.3-1.9,1.8-3
		l6.8-12.9c0.7-1.3,1.2-2.3,1.6-3.1c0.3-0.6,0.5-1.4,0.6-2.1c0-0.6-0.2-1.1-0.5-1.6c-0.5-0.6-1.1-1.2-1.8-1.7l0.8-1.6l7.1,3.4l1.8,1
		l-11.2,21.2c-0.7,1.2-1.2,2.4-1.6,3.7c-0.2,0.7-0.2,1.4,0.1,2c0.4,0.8,1,1.5,1.7,2l-0.8,1.5l-11.6-6.1L163.3,494z M192.2,460
		l-3.1,5.8l-5.4-2.9l3.1-5.8L192.2,460z"/>
	<path class="st0" d="M212.4,490.9l-3-1.2c0.1-1.2-0.1-2.4-0.5-3.6c-0.3-0.9-0.8-1.7-1.5-2.4c-0.8-0.7-1.7-1.2-2.7-1.6
		c-1.4-0.6-3-0.8-4.4-0.4c-1.3,0.4-2.3,1.3-2.8,2.6c-0.4,0.8-0.5,1.7-0.3,2.6c0.2,0.9,0.6,1.7,1.1,2.5c1.1,1.4,2.3,2.7,3.6,3.9
		c1.4,1.4,2.7,2.9,3.9,4.5c0.8,1.1,1.4,2.4,1.7,3.8c0.2,1.3,0.1,2.7-0.4,4c-0.5,1.4-1.4,2.8-2.5,3.8c-1,0.9-2.2,1.5-3.5,1.8
		c-1.4,0.3-2.8,0.3-4.2,0.1c-1.6-0.3-3.2-0.7-4.8-1.3c-1.7-0.7-3.4-1.5-4.9-2.4c-1.5-0.9-3-1.9-4.4-2.9l2.6-6.5l3.1,1.2
		c-0.3,1.8,0,3.6,0.9,5.1c1,1.5,2.4,2.5,4.1,3.1c0.7,0.3,1.5,0.5,2.3,0.6c0.7,0.1,1.5,0.1,2.2,0c0.7-0.1,1.4-0.5,1.9-1
		c0.6-0.6,1.1-1.3,1.4-2.1c0.4-0.9,0.5-1.9,0.4-2.8c-0.2-0.9-0.6-1.8-1.2-2.6c-1.2-1.4-2.4-2.8-3.7-4.1c-1.3-1.3-2.6-2.6-3.6-4.1
		c-0.8-1.1-1.4-2.4-1.7-3.7c-0.2-1.3-0.1-2.7,0.4-4c0.6-1.6,1.7-3,3.1-3.9c1.6-0.9,3.3-1.4,5.1-1.3c2.2,0.1,4.5,0.6,6.5,1.4
		c1.3,0.5,2.6,1.1,3.9,1.8c1.2,0.6,2.7,1.5,4.5,2.7L212.4,490.9z"/>
	<path class="st0" d="M229,493.5l0.1,0.1c1.5-1,3.2-2,4.9-2.7c1.1-0.4,2.2-0.7,3.3-0.9c1.1-0.1,2.2-0.1,3.3,0.2
		c1.1,0.2,2.1,0.6,3.1,1.1c0.8,0.5,1.6,1.1,2.2,1.8c0.6,0.7,1,1.6,1.3,2.5c0.3,1.1,0.4,2.1,0.3,3.2c-0.1,1.5-0.3,3-0.7,4.5
		l-2.8,12.4c-0.3,1.3-0.5,2.6-0.6,3.9c0,0.6,0.2,1.3,0.5,1.8c0.7,0.7,1.4,1.3,2.3,1.7l-0.4,1.6l-12.9-2.9l0.4-1.6
		c0.7,0,1.3-0.1,2-0.3c0.4-0.1,0.8-0.3,1.1-0.6c0.4-0.4,0.7-0.9,0.9-1.5c0.4-1.1,0.8-2.2,1-3.3l1.9-8.6c0.5-2.2,0.9-4.5,1.1-6.8
		c0.1-1.4-0.2-2.7-1-3.8c-0.8-1.1-2-1.8-3.4-2c-0.8-0.2-1.6-0.2-2.5-0.1c-1,0.2-1.9,0.6-2.8,1.1c-1,0.5-1.9,1.2-2.6,2
		c-0.6,0.7-1.1,1.6-1.3,2.5l-2.8,12.5c-0.3,1.1-0.5,2.1-0.6,3.2c-0.1,0.6,0,1.1,0.1,1.7c0.1,0.5,0.4,0.9,0.8,1.3
		c0.6,0.5,1.2,0.9,1.9,1.2l-0.4,1.6l-13-2.9l0.4-1.6c0.8,0,1.5-0.1,2.2-0.3c0.4-0.1,0.8-0.4,1.2-0.7c0.4-0.4,0.7-0.9,0.9-1.5
		c0.4-1.1,0.7-2.2,0.9-3.3l6.1-27.4c0.5-2.1,0.8-3.6,0.9-4.4c0.1-0.7,0.2-1.4,0.2-2.2c0-0.5-0.1-1-0.3-1.5c-0.2-0.4-0.5-0.7-0.8-1
		c-0.7-0.4-1.4-0.8-2.2-1.1l0.4-1.7l8,1.4l2,0.4L229,493.5z"/>
	<path class="st0" d="M275.9,522.3l-0.5-0.2c-1.7,1.6-3.6,2.9-5.7,3.9c-1.7,0.7-3.6,1-5.5,0.9c-1.6,0-3.1-0.4-4.5-1.2
		c-1.2-0.7-2.2-1.7-2.8-3c-0.6-1.3-0.9-2.8-0.8-4.2c0.2-3.3,1.9-5.7,5.3-7.3c3.3-1.6,8.2-2.4,14.7-2.3l0.1-2.2
		c0.2-1.9,0-3.7-0.4-5.5c-0.3-1.2-1-2.3-2-3.1c-1.1-0.7-2.4-1.1-3.8-1.2c-1.5-0.2-3,0.3-4.3,1.1c-1.2,1.1-2.1,2.4-2.6,4l-4.4-0.2
		l0.2-4.4c1.8-0.8,3.6-1.6,5.5-2.2c1.4-0.4,2.9-0.8,4.4-1c1.4-0.2,2.9-0.3,4.4-0.2c1.8,0,3.6,0.5,5.3,1.4c1.3,0.8,2.3,2,2.8,3.4
		c0.7,2.1,0.9,4.4,0.6,6.6l-0.7,11.7c-0.1,1.7-0.1,2.8-0.2,3.5c0,0.6,0,1.3,0.1,1.9c0,0.5,0.2,1,0.4,1.4c0.2,0.4,0.6,0.7,0.9,0.9
		c0.7,0.4,1.4,0.7,2.1,0.9l-0.1,1.6l-9.2-0.5L275.9,522.3z M275.9,511.7c-4.5-0.2-8,0.2-10.3,1.2c-2.1,0.8-3.6,2.8-3.7,5.1
		c-0.1,1.1,0.1,2.1,0.6,3.1c0.4,0.7,1.1,1.3,1.9,1.6c0.9,0.3,1.8,0.5,2.8,0.6c1.5,0.1,2.9-0.2,4.2-0.9c1.2-0.6,2.3-1.5,3.1-2.7
		c0.7-1,1.1-2.1,1.2-3.3L275.9,511.7z"/>
	<path class="st0" d="M301.7,518.1c0,1.3,0.2,2.7,0.5,4c0.2,0.7,0.6,1.2,1.1,1.7c0.8,0.5,1.6,0.7,2.5,0.9l0.1,1.6l-13.3,0.8
		l-0.1-1.6c0.8-0.2,1.6-0.5,2.3-1c0.4-0.3,0.7-0.7,0.9-1.2c0.2-0.6,0.3-1.2,0.3-1.8c0-1,0-2-0.1-2.9l-1.8-28
		c-0.1-2.1-0.2-3.6-0.3-4.5c-0.1-0.7-0.2-1.4-0.4-2.1c-0.1-0.5-0.4-1-0.7-1.4c-0.3-0.3-0.7-0.6-1.1-0.7c-0.8-0.2-1.6-0.4-2.4-0.5
		l-0.1-1.7l8-0.8l2-0.1L301.7,518.1z"/>
	<path class="st0" d="M333.5,517.3H333c-1.2,2-2.8,3.7-4.6,5.2c-1.5,1.1-3.3,1.9-5.1,2.2c-1.5,0.3-3.1,0.3-4.6-0.2
		c-1.3-0.4-2.5-1.1-3.4-2.2c-0.9-1.1-1.5-2.5-1.8-3.9c-0.6-3.2,0.6-6,3.4-8.3s7.5-4.2,13.8-5.7l-0.4-2.1c-0.3-1.8-0.8-3.6-1.6-5.3
		c-0.5-1.1-1.5-2-2.6-2.5c-1.3-0.5-2.7-0.5-4-0.2c-1.5,0.2-2.9,1-3.9,2.1c-1,1.3-1.5,2.9-1.6,4.5l-4.3,0.8l-0.8-4.3
		c1.5-1.2,3.2-2.4,4.8-3.4c1.3-0.8,2.6-1.4,4-2c1.4-0.6,2.8-1,4.2-1.2c1.8-0.4,3.7-0.4,5.4,0.1c1.4,0.5,2.7,1.4,3.5,2.6
		c1.1,1.9,1.9,4.1,2.2,6.3l2.1,11.5c0.3,1.6,0.5,2.8,0.7,3.5c0.1,0.6,0.3,1.2,0.5,1.8c0.2,0.5,0.4,0.9,0.8,1.3
		c0.3,0.3,0.7,0.6,1.1,0.7c0.7,0.2,1.5,0.3,2.2,0.4l0.3,1.6l-9,1.6L333.5,517.3z M331.1,507c-4.5,0.9-7.7,2.1-9.7,3.6
		c-1.9,1.3-2.8,3.6-2.4,5.8c0.1,1.1,0.6,2,1.3,2.8c0.6,0.6,1.3,1,2.2,1.2c0.9,0.1,1.9,0.1,2.8-0.1c1.4-0.2,2.8-0.9,3.9-1.8
		c1-0.9,1.9-2,2.4-3.3c0.5-1.1,0.6-2.3,0.4-3.5L331.1,507z"/>
	<path class="st0" d="M387.5,484.5c1.3,0.9,2.4,1.7,3.3,2.3s1.9,1.5,3,2.4l0.4-0.2c-0.7-1.2-1.9-3.6-3.7-7.3c-1.8-3.6-3.4-7-4.8-9.9
		l-3-6.4c-0.5-1-1-2-1.5-3c-0.3-0.5-0.7-0.9-1.1-1.3c-0.4-0.2-0.8-0.4-1.3-0.4c-0.8,0-1.5,0-2.3,0.2l-0.7-1.5l11-5.1l0.7,1.5
		c-0.6,0.5-1.1,1-1.6,1.6c-0.3,0.4-0.5,0.8-0.5,1.2c-0.1,0.6,0,1.2,0.1,1.7c0.3,1.1,0.8,2.2,1.3,3.3l15.8,34.1l-3.8,1.8l-30.1-20.6
		c-1.9-1.3-3.2-2.2-4-2.8s-1.6-1.2-2.4-1.8l-0.5,0.2c0.9,1.5,2.3,4.3,4.2,8.3c2,4.1,3.9,8.1,5.7,12.2l2.9,6.2c0.4,1,0.9,2,1.5,2.9
		c0.3,0.5,0.7,0.9,1.1,1.3c0.4,0.3,0.9,0.4,1.4,0.5c0.8,0,1.6,0,2.4-0.2l0.7,1.5l-11.1,5.1l-0.7-1.5c0.8-0.6,1.5-1.4,2-2.3
		c0.2-0.7,0.3-1.4,0.1-2.1c-0.4-1.2-0.8-2.3-1.4-3.5l-12.2-26.4c-0.5-1-1-2-1.6-3c-0.3-0.5-0.7-0.9-1.2-1.3
		c-0.4-0.2-0.9-0.4-1.3-0.4c-0.8,0-1.5,0.1-2.3,0.2l-0.7-1.5l9.5-4.4L387.5,484.5z"/>
	<path class="st0" d="M397.2,458.6l-3.7-5.2c1.2-2.3,2.7-4.5,4.3-6.5c1.4-1.7,3-3.3,4.8-4.6c1.8-1.4,3.9-2.4,6.1-3
		c1.8-0.5,3.7-0.4,5.5,0.2c1.7,0.6,3.2,1.8,4.3,3.4c1,1.4,1.7,3,2,4.7c0.2,1.7,0.1,3.3-0.4,4.9c-0.6,2-1.4,3.9-2.5,5.7l0.2,0.2
		c1.2-0.6,2.6-1,3.9-1.3c1.3-0.3,2.7-0.3,4.1-0.1c2.9,0.4,5.6,2,7.3,4.4c1.4,1.9,2.4,4.2,2.7,6.6c0.2,2.4-0.2,4.8-1.4,6.9
		c-1.4,2.6-3.4,4.8-5.9,6.4c-1.7,1.2-3.5,2.3-5.4,3.1c-1.9,0.9-3.9,1.6-6,2.2l-4.2-5.8l3.3-2.4c1.6,1.3,3.5,2,5.5,2.3
		c1.9,0,3.7-0.6,5.2-1.8c2.4-1.7,3.7-3.6,3.9-5.8c0.3-2.2-0.5-4.5-2.3-7c-1.9-2.6-4.2-4.1-6.8-4.3s-5.5,0.8-8.5,3l-2.4,1.8l-1.7-2.4
		c2.1-1.6,3.8-3.6,5.2-5.9c1-1.8,1.6-3.8,1.5-5.8c-0.1-1.8-0.7-3.6-1.8-5.1c-1.1-1.8-2.9-3-5-3.5c-2.1-0.2-4.2,0.4-5.9,1.8
		c-1.6,1-2.7,2.6-3.1,4.4c-0.4,2-0.1,4.1,0.7,6L397.2,458.6z"/>
	<path class="st0" d="M426.6,436.3l-4.6-4.4c0.8-2.5,1.8-4.9,3.1-7.1c1.1-1.9,2.4-3.7,3.9-5.3c1.5-1.7,3.4-3,5.5-4
		c1.7-0.8,3.6-1.1,5.5-0.8c1.8,0.3,3.5,1.2,4.8,2.6c1.3,1.2,2.2,2.7,2.8,4.3c0.5,1.6,0.7,3.3,0.5,4.9c-0.3,2-0.8,4.1-1.5,6l0.2,0.2
		c1.1-0.8,2.4-1.5,3.6-2c1.3-0.5,2.6-0.8,4-0.8c1.4,0,2.8,0.2,4.1,0.6c1.4,0.5,2.8,1.4,3.8,2.5c1.8,1.6,3.1,3.7,3.8,6
		c0.7,2.3,0.6,4.7-0.2,7c-1,2.8-2.6,5.3-4.6,7.3c-1.5,1.5-3.1,2.8-4.8,4c-1.7,1.2-3.6,2.3-5.5,3.2l-5.1-5l2.8-2.9
		c1.8,1,3.8,1.4,5.8,1.3c1.9-0.3,3.6-1.3,4.8-2.7c2-2.1,3-4.2,2.9-6.4s-1.3-4.4-3.5-6.5s-4.8-3.3-7.4-3.1s-5.2,1.7-7.9,4.4l-2.1,2.2
		l-2.1-2.1c1.8-2,3.2-4.2,4.1-6.7c0.7-1.9,0.9-4,0.5-6c-0.4-1.8-1.3-3.4-2.7-4.7c-1.4-1.6-3.4-2.5-5.5-2.6c-2.1,0.1-4.1,1.1-5.5,2.7
		c-1.4,1.3-2.2,3-2.4,4.9c0,2,0.6,4,1.7,5.7L426.6,436.3z"/>
</g>
</svg>
