<svg enable-background="new 0 0 113.4 113.4" viewBox="0 0 113.4 113.4" xmlns="http://www.w3.org/2000/svg"><path d="m0 56.7c0-31.5 25.3-56.7 57-56.7 31.3 0 56.5 25.4 56.4 57 0 31.2-25.7 56.6-57.2 56.4-30.9-.2-56.2-25.5-56.2-56.7zm77.6 50c .4-.2.8-.4 1.1-.6 15-7 24.9-18.4 29.9-34.1.2-.8.6-1.5.5-2.4.5.6.5 1.5 1.4 2.2.8-4.4 1.5-8.6 2.2-12.7-.7-1-1.4-1.5-2.1-2.2.3-.1.3-.3.2-.5-.1-3.5-.4-7-1-10.4-.1-.3-.2-.5-.5-.5.4-.6 1.3-.4 1.8-1.3-.8-4.1-2.1-8.2-4.1-12-.8 0-1 .8-1.6.8-.2-.2-.3-.5-.5-.7-6-11.5-14.9-19.9-26.8-25.2-5.6-2.5-11.5-4-17.6-4.2-.1-.6.2-1.2-.3-1.8-2.2.3-4.4.3-6.6 0-.6.5-.3 1.1-.4 1.7-2.1-.1-4.2.2-6.3.6-13.1 2.6-24 9.1-32.5 19.6-2.5 3.1-4.7 6.3-6.2 10-.5-.2-.6-.9-1.4-.7-1.9 3.9-3.3 7.9-4 12 .5.8 1.2.6 1.6 1.1-.6-.2-.7.3-.8.7-.7 3.8-1.1 7.5-1 11.4-.4.5-.9 1-1.4 1.7.7 4.1 1.5 8.3 2.2 12.6.5-.4.7-.6 1-.9.1.2.2.5.3.7 5 16.1 15.1 27.7 30.5 34.7.5.2.9.6 1.4.4-.2.4-.3.8-.6 1.4 2.8 1.9 6 2.2 9 2.8.4-.4.2-.9.6-1.1 2.7.4 5.4.8 8.2 1 4.9.3 9.7-.1 14.4-1.2.1.5.2.9.6 1.4 3-.8 6.3-.8 8.9-2.9 0-.7-.1-1.1-.1-1.4z" fill="#26201d"/><path d="m8.2 33c1.5-3.7 3.7-6.9 6.2-10 8.5-10.5 19.4-17 32.7-19.6 2.1-.4 4.1-.7 6.3-.6v3.6c0 1.3-.3 2.7.1 3.8.9 2.6 2.2 5.1 3.5 7.9 1-2.2 1.8-4.1 2.8-6 .7-1.4 1-2.9.8-4.5 0-.1 0-.2 0-.3 0-.3 0-.7 0-1 0-1.2 0-2.4 0-3.6 6.2.2 12 1.8 17.6 4.2 11.9 5.2 20.8 13.6 26.8 25.2.1.3.3.5.5.7-.4.8-1.2 1.3-1.9 1.9-9.4 8.1-18.7 16.3-28.1 24.3-1.8 1.5-2.9 3.3-3.5 5.6-1.5 5.7-3.3 11.3-5 17.2-2.3-5.4-4.5-10.6-6.8-15.8-.8.2-.9.7-.9 1.3v9.1c0 .3 0 .7.1 1 3 10.6 5.9 21.2 8.9 31.8-4.7 1.1-9.6 1.5-14.4 1.2-2.7-.1-5.5-.6-8.2-1-.1-.3 0-.5.1-.7 2.3-8.3 4.6-16.5 6.9-24.8.7-2.4 1.6-4.8 1.9-7.3.3-3.1.1-6.3.1-9.5 0-.6-.1-1-.9-1.2-2.2 5.2-4.5 10.4-6.8 15.8-2-6.6-3.9-13.1-5.7-19.6-.2-.7-.6-1.2-1.1-1.7-10.7-8.9-21.3-18.2-32-27.4z" fill="#fae500"/><path d="m36.6 106.6c-.6.2-1-.1-1.4-.4-15.4-7-25.5-18.6-30.5-34.7-.1-.2-.2-.5-.3-.7 1.6-3.9 3.9-7.6 5.8-11.4 8.4 2.3 16.7 4.6 25 7 0-.7 0-1.2 0-1.7-9.6-3.5-19.2-7.1-28.7-10.6-1.4 1.2-2.6 2.2-3.9 3.3 0-3.8.3-7.6 1-11.4.1-.4.1-.9.8-.7.3.2.6.4.9.5 7.4 4.1 14.7 8.2 22.1 12.3 3.4 1.9 6.7 3.7 10 5.6-.6 5.9-1.1 11.8-1.7 17.6 2.3 3.7 4.6 7.4 6.8 11.1-2 4.9-4 9.5-5.9 14.2z" fill="#fae500"/><path d="m109.3 45.5c.3 0 .4.2.5.5.6 3.5 1 6.9 1 10.4 0 .2 0 .4-.2.5-1-1-2.1-1.9-3.1-2.9-9.7 3.6-19.2 7.1-28.9 10.6.1.6-.2 1.1.3 1.7 8.2-2.3 16.5-4.6 24.8-6.9 1.8 3.4 3.6 6.8 5.4 10.1.1.8-.2 1.6-.5 2.4-5 15.8-14.9 27.2-29.9 34.1-.4.2-.8.4-1.1.6-2.3-4.6-4.1-9.5-6.2-14.1 2.4-3.8 4.6-7.5 6.9-11.1-.6-5.9-1.1-11.7-1.7-17.6.4-.2.8-.5 1.2-.7 10.5-5.8 21-11.7 31.5-17.6z" fill="#fae500"/><path d="m109.3 45.5c-10.5 5.9-21 11.7-31.5 17.6-.4.2-.8.5-1.2.7.6 5.9 1.1 11.7 1.7 17.6-2.2 3.6-4.5 7.3-6.9 11.1 2.1 4.6 3.9 9.5 6.2 14.1.1.4.1.8.2 1.4-2.6 2.1-5.9 2.1-8.9 2.9-.4-.5-.5-.9-.6-1.4-3-10.6-5.9-21.2-8.9-31.8-.1-.3-.1-.7-.1-1 0-3 0-6.1 0-9.1 0-.6 0-1.1.9-1.3 2.2 5.2 4.5 10.4 6.8 15.8 1.7-5.9 3.5-11.5 5-17.2.6-2.3 1.7-4 3.5-5.6 9.4-8 18.8-16.2 28.1-24.3.7-.6 1.5-1 1.9-1.9.6.1.8-.7 1.6-.8 2 3.8 3.3 7.9 4.1 12-.6.8-1.5.6-1.9 1.2z" fill="#060704"/><path d="m36.6 106.6c2-4.7 3.9-9.4 5.9-14.1-2.3-3.7-4.5-7.4-6.8-11.1.6-5.9 1.1-11.7 1.7-17.6-3.3-1.9-6.7-3.7-10-5.6-7.4-4.1-14.7-8.2-22.1-12.3-.3-.2-.6-.4-.9-.5-.4-.4-1.1-.3-1.6-1.1.7-4.1 2.1-8.1 4-12 .7-.2.9.5 1.4.7 10.7 9.3 21.3 18.5 32 27.8.5.5.9 1 1.1 1.7 1.9 6.5 3.8 12.9 5.7 19.6 2.3-5.4 4.5-10.6 6.8-15.8.7.2.9.6.9 1.2 0 3.2.2 6.4-.1 9.5-.3 2.5-1.2 4.9-1.9 7.3-2.3 8.3-4.6 16.5-6.9 24.8-.1.3-.2.5-.1.7-.4.2-.2.7-.6 1.1-3.1-.6-6.3-.9-9-2.8.2-.7.3-1.1.5-1.5z" fill="#060704"/><path d="m2.6 57.4c1.3-1.1 2.5-2.2 3.9-3.3 9.5 3.5 19.1 7 28.7 10.6v1.7c-8.4-2.3-16.7-4.6-25-7-1.9 3.9-4.2 7.5-5.8 11.4-.3.2-.5.4-1 .9-.8-4.3-1.5-8.5-2.2-12.6.5-.6 1-1.2 1.4-1.7z" fill="#0b0c05"/><path d="m109.1 69.6c-1.8-3.4-3.6-6.7-5.4-10.1-8.3 2.3-16.6 4.6-24.8 6.9-.4-.6-.1-1.1-.3-1.7 9.6-3.5 19.2-7.1 28.9-10.6 1 1 2 1.9 3.1 2.9.7.6 1.4 1.2 2.1 2.2-.7 4.1-1.4 8.3-2.2 12.7-.9-.8-1-1.7-1.4-2.3z" fill="#0b0c05"/><path d="m60.5 6.4v1l-.1.1c0 .1.1.1.1.2.2 1.6-.1 3-.8 4.5-1 1.9-1.8 3.8-2.8 6-1.3-2.8-2.6-5.3-3.5-7.9-.4-1.1-.1-2.5-.1-3.8.3-1.2.4-2.4 0-3.6.1-.6-.2-1.2.4-1.7 2.2.3 4.4.3 6.6 0 .5.6.2 1.2.3 1.8-.5 1-.4 2.2-.1 3.4z" fill="#060704"/><g fill="#26201d"><path d="m53.4 2.8c.4 1.2.4 2.4 0 3.6 0-1.2 0-2.4 0-3.6z"/><path d="m60.5 6.4c-.3-1.2-.4-2.4 0-3.6.1 1.2 0 2.4 0 3.6z"/><path d="m60.5 7.7c0-.1-.1-.1-.1-.2 0 0 .1 0 .1-.1z"/></g></svg>