<svg enable-background="new 0 0 113.3 113.4" viewBox="0 0 113.3 113.4" xmlns="http://www.w3.org/2000/svg"><circle cx="57" cy="56.7" fill="#fff" r="55.5"/><path d="m39.4 110.2c-1.2-.4-2.4-.8-3.5-1.2.1-1.2 1.2-1.9 1.4-3.1-17.7-7.4-28.4-20.5-32.3-38.9-4-18.7 2.3-34.6 14.8-48.4-.3-1.1-1.3-1.8-1.4-3 .9-.8 1.8-1.6 2.7-2.4.9.7 1.1 1.9 1.9 2.6 15.5-11.3 32.2-15.5 50.7-9.1s29.7 19.6 34.7 38.3c1.2.3 2.4-.1 3.5.3.2 1.2.4 2.5.6 3.7-1.1.1-2.2-.2-3.2.2 5.1 39.6-32.1 69.4-68 58-.7 1-1.3 2-1.9 3zm12.6-22.5c-.1.2-.1.5-.2.7-1.6 2.7-3.2 5.4-4.7 8.1-.9 1.5-1.9 2.9-2.7 4.9 15.5 1.5 28.7-2.7 39.5-13.5 10.7-10.8 14.7-24 13.1-38.9-.9-.5-1.5-.3-2.1-.3-2.6-.1-5.2.3-7.8-.2-.1-1.1-1.1-1.9-1.1-3h15.3c-4.9-12.9-17.7-27-38.4-29.2-12.6-1.4-23.8 2.6-33.8 10.4.8 1.4 1.6 2.6 2.2 3.8.8 1.6 2.1 2.9 2.4 4.8-.8.6-1.3 1.6-1.8 2.6-1.4-1.8-2.3-3.8-3.5-5.8-1.5-2.5-2.9-5-4.6-7.8-8.8 12.7-12.1 26.1-7.7 40.8 4.3 14.3 13.5 24.3 27.4 30.2 1.7-2.8 3.3-5.5 4.9-8.1 1.2.5 2.4.5 3.6.5z" fill="#009f9e"/><path d="m111.8 45.3c-1.1-.4-2.3 0-3.5-.3-5-18.7-16.2-31.8-34.7-38.3-18.6-6.4-35.3-2.2-50.7 9.1-.8-.7-1-1.9-1.9-2.6-.1-.5.3-.8.6-1.1 7.8-5.9 16.4-9.8 26.1-11.3 3-.5 6-.8 8.9-.8 7.5.1 14.8 1.4 21.7 4.4 6.1 2.6 11.7 6.1 16.6 10.6 8.5 7.8 14 17.4 16.8 28.5.3.7.4 1.2.1 1.8z" fill="#c6e7f9"/><path d="m39.4 110.2c.6-1 1.2-2 1.7-2.9 35.9 11.4 73.1-18.5 68-58 1-.3 2.1 0 3.2-.2 1 .7.8 1.8.8 2.7.9 11.4-1.3 22.1-6.7 32.1-2.2 4-4.9 7.7-7.9 11.1-5 5.6-10.9 9.8-17.6 13-5.5 2.6-11.3 4.2-17.4 5-7.4.9-14.7.3-22-1.6-.7-.2-1.7-.2-2.1-1.2z" fill="#c5e7f9"/><path d="m18.3 15.6c.1 1.1 1.1 1.9 1.4 3-12.4 13.8-18.7 29.7-14.7 48.4 3.9 18.4 14.7 31.5 32.3 38.8-.2 1.2-1.3 2-1.4 3.1-1 .2-1.8-.2-2.6-.6-5.5-2.6-10.5-5.8-14.9-10-9.6-9-15.4-19.9-17.6-32.8-.5-3-.8-6.1-.8-9.1.1-7.4 1.5-14.6 4.4-21.5 2.6-6.1 6-11.7 10.6-16.6.7-.7 1.3-1.4 1.9-2.1.4-.4.8-.7 1.4-.6z" fill="#c5e7f8"/><path d="m33.8 35.2c-.3-1.8-1.7-3.2-2.4-4.8-.6-1.2-1.4-2.4-2.2-3.8 10-7.8 21.2-11.8 33.8-10.4 20.7 2.2 33.5 16.3 38.4 29.2-5.2 0-10.3 0-15.3 0-.6 0-1.2 0-1.8 0-12.9 0-25.8 0-38.7 0-.6 0-1.3.1-1.9.1-.9-.4-1.9-.3-2.8-.3-.6-.2-1-.5-1.2-1-.7-1.3-1.5-2.6-2.3-3.9-1.3-1.7-2.1-3.7-3.6-5.1zm8.3 8.7h5 37.5c.5.1 1.1.3 1.6.3h10.5c.8 0 1.5-.2 2.5-.6-7.6-15.7-20.1-24.2-37-26.1-11.7-1.3-22 2.6-31.4 9.4 3.4 5.8 6.7 11.4 10 17.1.5-.1.9-.1 1.3-.1z" fill="#eff8fb"/><path d="m48.4 87.3c-1.6 2.6-3.2 5.3-4.9 8.1-13.9-5.9-23.1-15.9-27.4-30.2-4.4-14.7-1.1-28.1 7.7-40.8 1.6 2.8 3.1 5.3 4.6 7.8 1.2 1.9 2.1 4 3.5 5.8 1.6 2.9 3.2 5.8 4.9 8.6 3.3 5.7 6.6 11.3 9.9 17 2.1 3.5 4.2 7 6.3 10.6l1.2 2.4c0 .6-.2 1-.5 1.5-1.7 3-3.7 6-5.3 9.2zm4-11.4c-2.8-4.8-5.7-9.6-8.5-14.4-3.1-5.3-6.1-10.7-9.3-15.9-1.2-2-2-4.1-3.6-5.8 0-.4 0-.8-.3-1.1-1.5-2-2.5-4.2-3.8-6.3-1-1.7-2.1-3.5-3.3-5.5-9.4 15-10.8 30.3-2.9 46.1 4.8 9.6 12.2 16.5 22.4 20.6 3.2-5.6 6.3-10.9 9.4-16.2.3-.5.2-1-.1-1.5z" fill="#eff8fb"/><path d="m87.1 48.4c2.6.5 5.2.1 7.8.2.6 0 1.2-.2 2.1.3 1.6 15-2.4 28.2-13.1 39-10.8 10.8-24 15-39.5 13.5.8-2 1.8-3.5 2.7-4.9 1.6-2.7 3.2-5.4 4.7-8.1.1-.2.1-.5.2-.7.7-.6 1-1.5 1.5-2.2 5.4-9.2 10.8-18.5 16.2-27.7 1.2-2.1 2.6-4.1 3.5-6.4.9-.6 1.2-1.6 1.6-2.6.5-.4 1.1-.3 1.7-.3 3.5 0 7.1-.1 10.6-.1zm-11.9 2.8c-2.4 3.3-4.2 7-6.3 10.6-3.2 5.4-6.4 10.9-9.6 16.3-1.9 3.2-3.7 6.4-5.5 9.6-1.8 2.4-3 5-4.6 7.5-.9 1.5-1.8 3.1-2.8 4.7 1.7.5 3.3.6 4.9.6 2.2 0 4.3-.5 6.5-.8 8.8-1.3 16.4-5 23.1-10.8 4.9-4.2 8.5-9.4 11.1-15.3 1.8-4.2 3.2-8.5 3.7-13.1.3-.1.3-.4.2-.7.3-3.3.4-6.6-.5-10-6.6-.4-13.2-.1-19.6 0-.3.6-.5 1-.6 1.4z" fill="#f0f8fb"/><path d="m52.9 74.1c-2.1-3.5-4.2-7-6.3-10.6-3.3-5.7-6.6-11.3-9.9-17-1.7-2.9-3.3-5.7-4.9-8.6.6-1 1.1-2 2-2.8 1.5 1.5 2.3 3.5 3.4 5.2.8 1.3 1.5 2.6 2.3 3.9.3.5.7.8 1.2 1-.2.5 0 .9.2 1.3 3.2 5.5 6.5 11.1 9.7 16.6 1.5 2.5 2.9 5 4.4 7.6-.7 1.2-1.4 2.3-2.1 3.4z" fill="#95d4eb"/><path d="m73.2 51.3c-.9 2.3-2.3 4.3-3.5 6.4-5.4 9.3-10.8 18.5-16.2 27.7-.5.8-.8 1.6-1.5 2.2-1.2 0-2.4.1-3.6-.4 1.6-3.2 3.6-6.1 5.3-9.2.3-.5.5-1 .5-1.5.6 0 .8-.6 1-1 3.3-5.7 6.6-11.3 9.9-17 1.4-2.5 2.9-4.9 4.3-7.3 1.4 0 2.6-.1 3.8.1z" fill="#94d4eb"/><path d="m87.1 48.4c-3.5 0-7.1 0-10.6.1-.6 0-1.2-.1-1.7.3-6.8 0-13.5 0-20.3 0 0-.8-.3-1.2-1.2-1.5-1.8 1.3-3.8-.4-5.6.1-.5.5-.4.9-.5 1.4-.7 0-1.4.2-2.1-.1-.5-1-1.3-1.9-1.6-3.1.6 0 1.3-.1 1.9-.1h38.7 1.8c.1 1 1.1 1.8 1.2 2.9z" fill="#93d3ec"/><path d="m42.1 43.9c-.4 0-.9 0-1.3 0-3.3-5.7-6.6-11.3-10-17.1 9.4-6.7 19.7-10.7 31.4-9.4 16.9 1.9 29.5 10.4 37 26.1-.9.4-1.7.6-2.5.6-3.5 0-7 0-10.5 0-.5 0-1.1-.2-1.6-.3-.9-2.8-3.1-4.7-5.1-6.6-3.1-3-6.9-5.3-11.1-6.8-3.7-1.3-7.6-2.1-11.5-1.9-4.2.2-8.3 1.1-12.1 3-2.5 1.2-4.9 2.5-7.1 4.4.5.9 1 1.7 1.4 2.5 1.1 1.9 2.4 3.6 3 5.5z" fill="#94d4ec"/><path d="m42.1 43.9c-.6-2-1.9-3.6-2.9-5.4-.5-.8-.9-1.6-1.4-2.5 2.2-1.9 4.6-3.2 7.1-4.4 3.8-1.8 8-2.8 12.1-3 3.9-.1 7.7.7 11.5 1.9 4.2 1.4 7.9 3.7 11.1 6.8 2 1.9 4.1 3.8 5.1 6.6-12.5 0-25 0-37.5 0-1.8 0-3.4 0-5.1 0z" fill="#c7e8fa"/><path d="m54.5 48.7h20.3c-.3 1-.7 1.9-1.6 2.6-1.2-.2-2.4-.1-3.7 0-1.4 2.4-2.9 4.8-4.3 7.3-3.3 5.7-6.6 11.3-9.9 17-.2.4-.4 1-1 1-.4-.8-.8-1.6-1.2-2.4.7-1.1 1.4-2.2 2.1-3.3-1.5-2.6-3-5.1-4.4-7.6-3.2-5.5-6.4-11.1-9.7-16.6-.2-.4-.4-.8-.2-1.3 1 0 1.9-.1 2.8.3.3 1.2 1.1 2.1 1.6 3.1.7.3 1.4.2 2.1.1 2.3-.2 4.7-.2 7.1-.2z" fill="#009f9f"/><path d="m52.4 75.9c.3.5.5 1 .2 1.6-3.1 5.3-6.2 10.6-9.4 16.2-10.1-4.1-17.5-11-22.4-20.6-8-15.8-6.5-31.1 2.9-46.3 1.2 2 2.3 3.7 3.3 5.5 1.2 2.1 2.3 4.3 3.8 6.3.3.4.2.7.3 1.1-.1.1-.3.3-.4.4-2.1 5.2-3.6 10.5-3 16.3.5 4.4 1.6 8.6 3.7 12.4 2.9 5.3 6.9 9.6 12.2 12.5 1.3.7 2.6 1.7 4.3 1.7.7-1.2 1.2-2.3 1.9-3.3.8-1.3 1.2-2.9 2.6-3.8z" fill="#94d4ec"/><path d="m52.4 75.9c-1.3 1-1.8 2.6-2.7 3.9-.7 1-1.2 2.2-1.9 3.3-1.7 0-3-1-4.3-1.7-5.3-2.9-9.4-7.2-12.2-12.5-2.1-3.8-3.2-8-3.7-12.4-.6-5.8.9-11.1 3-16.3.1-.2.3-.3.4-.4 1.6 1.7 2.4 3.9 3.6 5.8 3.2 5.3 6.2 10.6 9.3 15.9 2.8 4.8 5.6 9.6 8.5 14.4z" fill="#c7e8fa"/><path d="m95.8 60.5c-.5 4.6-1.9 8.9-3.7 13.1-2.5 6-6.2 11.1-11.1 15.3-6.6 5.8-14.3 9.5-23.1 10.8-2.2.3-4.3.8-6.5.8-1.6 0-3.2-.1-4.9-.6 1-1.7 1.9-3.2 2.8-4.7 1.5-2.5 2.8-5.2 4.6-7.5 1.2 0 2.3-.1 3.4-.3 8.7-1.3 15.8-5.5 21.1-12.5 4.8-6.4 6.6-13.7 6.2-21.6 0-.7-.2-1.4-.8-2.1-2.8 0-5.7 0-8.6 0 0-.4.2-.8.7-1.3 6.4-.1 13-.4 19.6 0 .9 3.4.8 6.7.5 10-.3.1-.7.2-.2.6z" fill="#94d4ec"/><path d="m75.2 51.2h8.6c.6.7.7 1.4.8 2.1.4 7.9-1.4 15.2-6.2 21.6-5.3 7-12.3 11.2-21.1 12.5-1.1.2-2.3.3-3.4.3 1.8-3.2 3.6-6.4 5.5-9.6 3.2-5.5 6.3-10.9 9.6-16.3 2-3.6 3.8-7.3 6.2-10.6z" fill="#c7e8fa"/><path d="m95.8 60.5c-.4-.4-.1-.5.2-.7.1.3 0 .6-.2.7z" fill="#cce9f6"/><path d="m54.5 48.7c-2.4 0-4.8 0-7.2 0 0-.4-.1-.9.5-1.4 1.8-.5 3.8 1.1 5.6-.1.8.3 1.1.8 1.1 1.5z" fill="#93d3ec"/></svg>