<svg viewBox="0 0 541.71 537.06" xmlns="http://www.w3.org/2000/svg" xmlns:xlink="http://www.w3.org/1999/xlink"><linearGradient id="a" gradientTransform="matrix(1.01 .01 -.01 1.01 -.03 -6.56)" gradientUnits="userSpaceOnUse" x1="229.56" x2="229.56" y1="138.65" y2="271.8"><stop offset="0" stop-color="#fff"/><stop offset=".5" stop-color="#c0d8d8"/><stop offset=".51" stop-color="#5ba4b7"/><stop offset=".79" stop-color="#20889c"/><stop offset=".98" stop-color="#00788a"/></linearGradient><linearGradient id="b" x1="197.57" x2="197.57" xlink:href="#a" y1="145.84" y2="263.23"/><linearGradient id="c" x1="175.12" x2="175.12" xlink:href="#a" y1="159.11" y2="306.72"/><linearGradient id="d" x1="240.12" x2="240.12" xlink:href="#a" y1="130.46" y2="269.4"/><linearGradient id="e" x1="261.64" x2="261.64" xlink:href="#a" y1="83.32" y2="152.49"/><linearGradient id="f" x1="243.95" x2="243.95" xlink:href="#a" y1="110.42" y2="131.32"/><linearGradient id="g" x1="244.17" x2="244.17" xlink:href="#a" y1="125.83" y2="142.62"/><linearGradient id="h" x1="237.23" x2="237.23" xlink:href="#a" y1="120.89" y2="131.85"/><ellipse cx="271.86" cy="268.95" fill="#283148" rx="270.86" ry="268.53"/><g fill="#fff"><ellipse cx="274.04" cy="273.95" rx="205.37" ry="203.61"/><path d="m105.3 418.46-6.69 5.11-12.61-16.57-1.67 1.28 10.08 13.23-6.68 5.1-10.07-13.2-1.66 1.28 12.6 16.53-6.68 5.1-17.66-23.14 23.39-17.86z"/><path d="m107.07 420.46 5.94 5.82-14.72 15 14.86 14.54-5.89 6-20.79-20.33z"/><path d="m118.6 470.67-6.49-5.2 18.44-23 6.48 5.21z"/><path d="m150.35 467.22-11.49 17.6-7-4.54 11.5-17.6-8.7-5.68 4.6-7 24.4 15.88-4.6 7z"/><path d="m192.43 479.34-3.54 7.66-18.89-8.75-.89 1.91 15.11 7-3.54 7.62-15.11-7-.88 1.91 18.88 8.71-3.57 7.6-26.44-12.2 12.44-26.66z"/><path d="m214.2 486.41 16.33 3.24q12.24 2.44 10.37 11.7a9.32 9.32 0 0 1 -2.41 4.87 9.2 9.2 0 0 1 .33 5.42q-1.87 9.27-14.12 6.83l-16.33-3.24zm4.42 20.15-.42 2.06 10.21 2c1.36.27 2.11.07 2.25-.62s-.48-1.16-1.84-1.43zm1.66-8.24 10.21 2c1.36.27 2.11.06 2.25-.62s-.48-1.17-1.84-1.44l-10.2-2z"/><path d="m257.93 493.09 4.15.22q12.48.68 11.94 10.1l-.6 10.48q-.54 9.42-13 8.76l-4.16-.23q-12.48-.66-11.93-10.1l.59-10.47q.53-9.43 13.01-8.76zm-2.56 8.27c-1.39-.08-2.1.23-2.14.93l-.6 10.48c0 .7.63 1.09 2 1.16l8.32.45c1.38.07 2.1-.24 2.14-.94l.61-10.44c0-.7-.63-1.08-2-1.16z"/><path d="m293.87 492.49q12.44-1.08 13.24 8.32l.87 10.46q.79 9.4-11.66 10.49l-16.6 1.45-2.46-29.27zm-7.6 9.09 1.05 12.55 10.38-.91q2.07-.18 2-1.23l-.87-10.45c-.06-.7-.78-1-2.17-.87z"/><path d="m320.64 504.74-15.42-13 10.25-2.3 7.43 6.28 4.08-8.87 10.24-2.31-8.44 18.41 2.87 12.94-8.13 1.83z"/><path d="m362.2 495.12-7.82 2.88-2.9-7.86 15.63-5.82 6.54 17.7-15.65 5.85q-11.73 4.36-15-4.49l-3.64-9.83q-3.27-8.85 8.45-13.21l15.63-5.82 2.91 7.86-17.58 6.55c-1.31.49-1.84 1.05-1.59 1.71l3.63 9.83c.24.66 1 .74 2.32.26l9.77-3.64z"/><path d="m365.9 473.4 7.32-4 9.52 17.49c.34.61 1.11.59 2.33-.08l7.32-4c1.22-.67 1.66-1.31 1.33-1.92l-9.52-17.49 7.32-4 9.48 17.49q4.51 8.28-6.47 14.28l-3.66 2q-11 6-15.49-2.28z"/><path d="m415.72 472.92 1.28 4.28-7.08 5.31-8.9-30 8.9-6.69 26.27 17-7.08 5.3-3.74-2.42zm-4.94-16.65 2.4 8.08 4.68-3.51z"/><path d="m441.39 443.09-3 3 7.42 7.39-5.81 5.88-20.78-20.71 11.78-11.81q8.83-8.86 15.51-2.21 4.89 4.88 1.48 10.9l13.9 1.87-7.42 7.44zm-8.9-2.95 7.37-7.38c1-1 1.22-1.73.73-2.22s-1.23-.25-2.22.74l-7.37 7.38z"/><path d="m451.53 402.57q7.47-10 15-4.41l8.41 6.25q7.56 5.63.09 15.66l-10 13.38-23.47-17.45zm1.74 11.69 10.09 7.5 6.23-8.37c.83-1.11 1-1.88.4-2.29l-8.4-6.25c-.56-.42-1.26-.07-2.09 1z"/><path d="m123.81 120.12-38.87-18.52 8.67-8.44 27.12 12.92-12.28-27.38 8.67-8.45 17.6 39.24z"/><path d="m153 87.65 1.32 6-10.23 6.49-9.17-42 12.87-8.14 34.21 26.06-10.22 6.48-4.89-3.73zm-5.08-23.31 2.47 11.31 6.75-4.28z"/><path d="m175.73 35 10.82-3.68 9.37 27.25 27.08-9.2 3.75 10.9-37.91 12.88z"/><path d="m251.06 30.79 9.5-15.34 14.35-1.33-13.31 21.48 17.16 18.64-14.35 1.33-12.25-13.31-5.73.53 1.38 14.33-11.39 1.05-3.85-40.12 11.43-1.05 1.37 14.32z"/><path d="m302.91 38.81-13.47-24.3 14.27 2.08 6.5 11.71 9.53-9.36 14.26 2.06-19.76 19.46-2.59 18-11.33-1.65z"/><path d="m356.69 56.15-5.34-2.15-5.35 13.38-10.63-4.25 14.93-37.41 21.27 8.5q15.94 6.38 11.16 18.4-3.51 8.79-13 7.74l5.14 18.56-13.4-5.35zm-1.08-12.82 13.29 5.31c1.77.71 2.84.62 3.19-.27s-.35-1.69-2.12-2.4l-13.29-5.31z"/><path d="m391.71 90.08-9.75-6 21.11-34.29 9.75 6z"/><path d="m458.11 92.06-7.63 8.61-21.48-18.93-1.91 2.15 17.2 15.11-7.63 8.62-17.17-15.11-1.91 2.16 21.47 18.93-7.62 8.62-30.06-26.51 26.69-30.16z"/></g><path d="m346.69 320c2-4.21 3.88-9.12 5.86-13.34 2.86-6.11 5.2-11.62 7.89-17.8 2.38-5.45 5.18-10.46 7.38-16 .64-1.6 1.05-2.4.11-3.88s-1.56-3.2-2.53-4.66-2.63-3.88-3.64-5.52c1.77-.33 4.61-.84 6.22-1.11 2.08-.35 3.5-.52 5.56-1 2.36-.56 3.35-1.79 4.3-3.94 2.89-6.58 6.21-13.06 9.25-19.57 2.61-5.6 5.19-11.27 7.78-16.89 1-2.1 2-4 3-6.07a5.09 5.09 0 0 0 -.81-6.32c-6.09-6.93-10.69-15-14.61-23.3-3-6.28-5.49-12.52-8.19-18.91-3.76-8.9-7.56-18-11.33-26.85-.92-2.17-2.08-3.51-4.42-3.49a5.14 5.14 0 0 0 -4.93 3.37c-2.39 5.53-4.82 11-7.19 16.57-1.11 2.61-2 5.33-3.23 7.86a21.06 21.06 0 0 0 -2.24 11.81 35.25 35.25 0 0 1 0 3.85 4.89 4.89 0 0 1 -.81.1c-2.77 0-4.45 1.38-5.43 3.88-1.24 3.15-2.58 6.26-3.85 9.4-1.84 4.55-3.65 9.12-5.5 13.66-4.7 11.57-9.44 23.13-14.13 34.7q-6.81 16.81-13.57 33.64a5.32 5.32 0 0 0 1.14 6.09c.78.82 1.54 1.66 2.49 2.68-1.62.43-3 .89-4.37 1.15a6.52 6.52 0 0 0 -5.38 4.18c-2.45 6.07-5 12.09-7.56 18.12-.63 1.48-1.88 3.65-2.7 5.35-1.17-3.7-3.05-7.35-2.83-11.13.16-2.65-.39-5.6-2.28-7.6-.32-.34-1.23-.88-1.29-1.36a38.49 38.49 0 0 0 -4.85-14.87 5.54 5.54 0 0 1 -.54-2.05c.87-2 1.68-3.16.91-5.07-3.27-8-6.53-16-9.84-24-3.93-9.47-7.85-18.95-11.87-28.39-2.38-5.6-4.95-11.14-7.43-16.71-.63-1.41-1.27-2.81-2-4.34h1.6a29.36 29.36 0 0 0 5.81-.59 20.36 20.36 0 0 0 8.57-5.12 27.35 27.35 0 0 0 7.38-13.5c1.15-5.17.72-10.41 0-15.61-.1-.69-.1-1.16.54-1.61a5.06 5.06 0 0 0 2-3.54c.52-3.43 1-6.87 1.51-10.3.64-4.46 1.2-8.93 1.93-13.36.58-3.47 1.25-6.92 2.09-10.32q1.33-5.46 3.07-10.8c1.06-3.26 2.34-6.44 3.58-9.64a7.91 7.91 0 0 0 .38-4.92 1.62 1.62 0 0 1 .3-1.2c1.37-1.71 2.89-3.31 4.19-5.07a5.15 5.15 0 0 0 -2.39-8 18.62 18.62 0 0 0 -6-.62c-1.34.05-2.64.85-4 1.17a27.69 27.69 0 0 0 -10.44 4.6c-2.76 2-5.55 4-7.36 7.11-1.22 2.08-2.9 3.9-4.3 5.89-1.82 2.61-3.57 5.27-5.36 7.9a5.09 5.09 0 0 1 -.61.71c-.71.74-1.49 1.43-2.14 2.22-.91 1.11-1.78 2.26-2.58 3.46-1.28 1.91-2.49 3.88-3.75 5.82a8.61 8.61 0 0 1 -1.3 1.64c-.6.57-1.36 1-2 1.53-1.34 1.17-3 2-3.84 3.71a2.39 2.39 0 0 1 -1.13 1 8.16 8.16 0 0 0 -4 3.29c-1.1 1.87-2.34 3.65-3.57 5.55l-.93-.8a5.29 5.29 0 0 0 -7.11.34c-2.67 2.81-5.21 5.73-7.81 8.6-.36.39-.73.76-1.14 1.2-1.26-3.19-3-4.44-5.83-4.26a5.5 5.5 0 0 0 -4.14 2.32q-5.36 6.83-10.77 13.62s-.14 0-.21 0c-1.78-4.64-7.15-5.06-10-1.19-2 2.69-4.36 5.1-6.43 7.74-2.76 3.52-5.59 7-8 10.73a62.06 62.06 0 0 0 -10.23 27.06 69.46 69.46 0 0 0 .93 20.6 80.56 80.56 0 0 0 7.64 21.46c2.86 5.74 6.34 11.17 9.56 16.73 2.84 4.91 5.83 9.73 8.53 14.71 3.46 6.37 6.71 12.86 10 19.31 2.12 4.16 4.12 8.37 6.24 12.52 1.23 2.41 2.57 4.77 3.88 7.14.4.73 0 1.41-.92 1.51a44.75 44.75 0 0 0 -5.44.74 5 5 0 0 0 -3.69 6.2 19.35 19.35 0 0 0 2.06 4 3.31 3.31 0 0 1 .58 2.34 5 5 0 0 0 1 4.06 21.62 21.62 0 0 0 5.5 5.46 1.65 1.65 0 0 1 .62.69c1.8 4.1 5.79 5.61 9.16 7.84a3.85 3.85 0 0 0 .66.28l4.35 1.83c-1.94 4.9-1.78 9.57 1.76 13.64s8 5.2 13 4.45c.91 2.71 1.77 5.33 2.67 7.93a52.27 52.27 0 0 0 18.81 25.28 1.89 1.89 0 0 1 .74 1.11c.54 4.3 3.18 7 6.71 9.09a4.36 4.36 0 0 0 3.8.51 33.49 33.49 0 0 0 3.54-1.87 2.13 2.13 0 0 1 .1.27c.77 2.51 1.2 5.19 2.37 7.5 2.45 4.83 5.31 9.46 8 14.2a1.87 1.87 0 0 1 .17 1.47 15.91 15.91 0 0 0 -.51 12.5c2.28 6.21 5 12.28 7.58 18.37.86 2 2.48 1.52 4.68 1.55a4.12 4.12 0 0 0 4.24-2.63c1.91-3.69 3.24-8.16 5-11.93" fill="#cde1e1"/><path d="m204.39 195.76c6.85 12.79 13.93 25.34 20.78 38.07 3.75 7 7.44 14.08 11.13 21.16a8.6 8.6 0 0 1 .86.15 36.92 36.92 0 0 1 26 17.15c.14-.59.71-1.18.61-1.77a.88.88 0 0 0 -.1-.34c-13.11-24.58-26.22-49.16-40.5-73.3-4.86-8.22-9.87-16.39-12.79-25.49a37.41 37.41 0 0 1 -2-12c.06-4.46 1.29-8.88 2.34-13.25.77-3.14 1.42-6.26 2.1-9.4a85.61 85.61 0 0 0 -8.74 9.36 39.75 39.75 0 0 0 -7.54 16.81 39 39 0 0 0 1 17.31c1.51 5.47 4.15 10.51 6.85 15.54z" fill="url(#a)"/><path d="m175.58 203.38a151.73 151.73 0 0 0 7.67 15.3c2.25 4.1 4.48 8.2 6.73 12.3 2.38 4.45 4.8 8.89 7.21 13.34q5.16 9.45 10.27 18.91a38.1 38.1 0 0 1 15.84-8c-4.12-7.61-7.64-14.71-11.66-22.37-5.39-10.23-11.2-21-16.54-31.43a56.32 56.32 0 0 1 -5.3-13.11 74.89 74.89 0 0 1 -1.69-11 55.21 55.21 0 0 1 .27-14 81.13 81.13 0 0 1 5.28-17.48c-3.67 4.26-7.91 7.15-11.19 11.76-4.31 6-8 12.61-9.63 19.79-.16.7-.32 1.42-.43 2.15a39.29 39.29 0 0 0 -.22 11.81 50.47 50.47 0 0 0 3.39 12.03z" fill="url(#b)"/><path d="m197.48 304.64c-4.51-10.72-2.64-22.21 3.15-32.31-2.7-5.3-6.54-10.7-9.29-16-1.68-3.31-3.38-6.58-5.12-9.86-4.82-9.16-9.83-18.26-13.82-27.88a75.88 75.88 0 0 1 -4.82-15.32 68.78 68.78 0 0 1 .1-23.73 183 183 0 0 1 4.93-20.46c-3.46 4-6.92 7.94-10.07 12.25-5 6.84-9.13 14.47-11.12 22.68a60 60 0 0 0 1.08 33.18c3.8 11.26 11.38 21.43 17.39 31.6 9.17 15.56 17.1 31.74 25 47.9.88-.69 1.72-1.36 2.59-2.05z" fill="url(#c)"/><path d="m218.74 176.16c1.27 3.31 45.08 97.79 46.48 93.06.62-.38-34.2-82.53-28.14-66.42l-7.33-16.34c-1.55-2.06-1.95-4.54-2.75-6.83a41.76 41.76 0 0 1 -2.1-10.8 62.1 62.1 0 0 1 .21-10.12 46.16 46.16 0 0 1 1.42-6.24 28.05 28.05 0 0 1 4.36-9.24c1.35-2 6-3.53 8.86-1.09 1.2 1 2.73 1.56 3.67 2.88s1.74 2.73 3.25 3.52c1 .51.36 1.7 1 2.45 2.21 2.79 2.42 6.37 3.66 9.54-.3 3.62.49 7.25-.86 10.88-1.14 3.08-2.28 5.93-5.28 7.64a14.58 14.58 0 0 0 -1.72 1.2 7.29 7.29 0 0 1 -6.31-.84c-.31-.43-.75-1.15-1.28-1.78s0-1.9-.87-2.39c.15-1.08.28-2.12.42-3.12 1.73-1.09 3.12-2.74 4.72-2.7 2.34.61 2.87 2.2 3.86 3.38-.76.94-1.43.51-2 .29s-.59-1.37-1.84-1.51l-2.22.28c-1.54 3.31-1.54 3.31.83 6.4l3.21.77a10 10 0 0 1 1.11-.78c.8-.44 2 .09 2.41-1.36.27-1 1.49-1.44 2-2.49a23.77 23.77 0 0 0 2.17-9.16 28 28 0 0 0 -5.25-16.77l-1.86-.27a9.27 9.27 0 0 1 -1.28 4.45 38.06 38.06 0 0 1 -5.61 7.74 31.38 31.38 0 0 0 -4.51 6.4 18.35 18.35 0 0 0 -2.08 7.93c-.16 4.81 2.12 7.89 5.78 10.31 2.68 1.77 5.68 2 8.84 1.55 2.22-.32 3.83-1.63 5.62-2.74 3.41-2.11 4.74-5.67 6.33-9a19.24 19.24 0 0 0 1.5-8.57 31.2 31.2 0 0 0 -1.51-10.64c-.54-1.46-.75-3.15-1.64-4.34-2.57-3.45-4.59-7.28-7.84-10.28-1.58-1.46-3.3-2.82-4.94-4.16s-3.93-2.07-5.72-3.38-4.19-1.58-6.12-2.76c-.93-.56-3.2 0-3.61.75-1.21 2.33-2.93 4.31-4.27 6.55-3.36 5.62-5.78 11.55-6.31 18.21a37.74 37.74 0 0 0 .29 7.68 52.37 52.37 0 0 0 3.25 12.26z" fill="url(#d)"/><path d="m250.89 118.91c.58 2.48.09 5.1 1 7.53a114.31 114.31 0 0 0 .66 14.45 16.75 16.75 0 0 0 2.56 8.38 2.45 2.45 0 0 1 .47 1.71c0 .32.45.67.67 1 .48.08 1 .47 1.38.54.34-.23 1-.74 1.42-1.06.59-5.89 2.34-11.85 2.69-17.91.26-4.65 1.94-9 2.37-13.64.25-2.69 1.32-5.19 1.94-7.79a32.92 32.92 0 0 1 1.26-5c1.52-3.68 2.3-7.61 4.17-11.16a1.58 1.58 0 0 0 -.81-2.17 39.3 39.3 0 0 0 -2.52 4.16c-1.31 2.63-2.5 5-3.69 7.75-1.46 3.28-2.57 6.66-3.8 10-1.32 3.65-1.62 7.48-2.38 11.23a43.91 43.91 0 0 0 -.3 5.73c-.23 3.21 0 6.26-.75 9.43-.51.2-.61-.07-1.08-.2-1.23-.77-.93-1.13-.91-2.11 0-3.13.35-6.07.67-9.2a103.44 103.44 0 0 1 3.16-15.91 32.55 32.55 0 0 1 2.16-6.56c2-3.91 3.47-8.07 6-11.77a45.45 45.45 0 0 1 8.19-9.73c.75-.63 1-2.15 1.8-3a12.88 12.88 0 0 0 -2.4-.23 11.21 11.21 0 0 0 -2.71.71c-4 1-7.37 1.75-10.57 4.45-.65.55-1.62 1.54-2.29 2.06a10.71 10.71 0 0 0 -1.43 1.52c-3 3.78-5.43 7.2-8.13 10.81a21 21 0 0 0 -3.62 5.95c1 1.36 2.42 2.66 3 4.25a60 60 0 0 1 1.82 5.78z" fill="url(#e)"/><path d="m243.54 119.63c.78 1.09 1.33 1.48 2 2.46-.16 1.56-.08 2.86-1.3 4.6-.19.14-1.09.89-1.81 1.4a2.87 2.87 0 0 0 2.66 3.23c.89-1 2.89-1.88 3.68-3.47.91-1.82 1.77-3.83 1.28-5.9a22.28 22.28 0 0 1 -.81-3.47 13.72 13.72 0 0 0 -3.57-8c-.55-.06-1.17 0-1.52 0-2 3.1-5 5.48-6.42 9.13-.73 1.53 3.95.1 5.81.02z" fill="url(#f)"/><path d="m247.67 130.52c-.41.52.05 1.29-.61 1.74-.85-.07-1.68.53-2.58.19a10.08 10.08 0 0 1 -4.77-6.47c-1.7-.34-2.52-.14-2.7.89 0 .49.11 1.27.17 2.1 1.07 3.2 3.6 4.87 6 6.8s5 5 8.15 6.85c-.68-4.53-.3-9.45-1.18-13.49a4.44 4.44 0 0 0 -2.48 1.39z" fill="url(#g)"/><path d="m235.42 131.82c.4.17 1.09-.63 1.52-1.1.14-.49-.39-1-.24-1.52-1.4-.69-2-.6-1.52-2.55.66-.47 1.28-1 1.76-1.31a10.92 10.92 0 0 1 6.22-.24c.6-.43 1.47-1.32 2-1.67a2.28 2.28 0 0 0 -.75-1.63l-4.68-.91c-3.76.91-6.06 3.51-8.85 5.21 0 1.09-2.14 2.06-1.31 3.4 1.52 0 4.19 1.62 5.85 2.32z" fill="url(#h)"/><path d="m284.63 302c-.34.82-.93 2.11-1.28 2.93-.6 1.43-2.33 2.33-3.11 4-.77-2.41-1.73-4.61-2.21-6.9h-22.25s-3.84 17-21.6 14.94-20.74-14.97-20.74-14.97h-26.13c.72 1.45 1.43 2.9 2.16 4.34 1.19 2.33 2.48 4.6 3.74 6.89.39.7 0 1.36-.88 1.46a41.92 41.92 0 0 0 -5.25.71 4.86 4.86 0 0 0 -3.56 6 18.7 18.7 0 0 0 2 3.88 3.12 3.12 0 0 1 .56 2.25 4.82 4.82 0 0 0 1 3.92 20.78 20.78 0 0 0 5.31 5.27 1.62 1.62 0 0 1 .6.67c1.73 3.95 5.58 5.41 8.84 7.57a4.55 4.55 0 0 0 .64.27l4.19 1.76c-1.87 4.73-1.72 9.24 1.71 13.16s7.69 5 12.58 4.3c.88 2.62 1.71 5.14 2.57 7.65a50.37 50.37 0 0 0 18.16 24.4 1.86 1.86 0 0 1 .71 1.07c.52 4.15 3.07 6.79 6.48 8.78a4.17 4.17 0 0 0 3.67.49 32.88 32.88 0 0 0 3.41-1.8s.81-.92.85-.79c.74 2.43.4 6.06 1.54 8.29 2.37 4.66 5.12 9.13 7.68 13.7.22.39 2.69 2.51 2.51 2.89-1.84 4-3.27 7.67-1.82 11.63 2.2 6 3.77 10.82 6.3 16.69a4.76 4.76 0 0 0 4.62 2.93 4.83 4.83 0 0 0 4.64-2.71c1.83-3.56 3.68-7.13 5.34-10.77l56.68-125c1.94-4.07 3.91-8.12 5.83-12.2 1.19-2.56 2.4-5.11 3.6-7.67z" fill="#5899a7"/><path d="m327.35 363c6.74-14.3 13.61-28.53 20.43-42.78 2-4.22 4.06-8.41 6-12.64 2.86-6.11 5.78-12.19 8.48-18.37 2.37-5.45 4.5-11 6.7-16.53a5 5 0 0 0 -.35-4.72c-.95-1.48-2-2.86-3-4.33s-1.79-2.88-2.8-4.52c1.78-.34 3.37-.67 5-.94 2.08-.35 4.21-.54 6.26-1 2.36-.56 3.36-2.39 4.31-4.55 2.9-6.57 6.1-13 9.14-19.52 2.61-5.6 5.15-11.24 7.74-16.85 1-2.11 2-4.19 3-6.27a5.59 5.59 0 0 0 -.86-6.67 98.25 98.25 0 0 1 -14.79-23c-3-6.27-5.48-12.76-8.18-19.15q-5.64-13.35-11.27-26.71a5 5 0 0 0 -5-3.3 5.12 5.12 0 0 0 -4.93 3.37c-2.39 5.52-4.82 11-7.19 16.57-1.11 2.6-2 5.32-3.23 7.86a21 21 0 0 0 -2.24 11.81 37.74 37.74 0 0 1 0 3.84 6.59 6.59 0 0 1 -.81.11c-2.77 0-4.45 1.38-5.43 3.87-1.25 3.15-2.58 6.27-3.85 9.41-1.84 4.55-3.65 9.11-5.5 13.66q-7.06 17.35-14.13 34.7-6.81 16.8-13.57 33.64a5.31 5.31 0 0 0 1.14 6.08c.78.82 1.54 1.66 2.49 2.68-1.62.44-3 .9-4.38 1.16a6.52 6.52 0 0 0 -5.37 4.18c-2.45 6.07-5 12.09-7.56 18.12-.63 1.48-1.39 2.91-2.2 4.6-1.18-3.7-2.82-6.91-2.6-10.68a9.36 9.36 0 0 0 -2.68-7.1 2.61 2.61 0 0 1 -.59-1.38 40.76 40.76 0 0 0 -5.11-15.23 1.45 1.45 0 0 1 -.21-1.08 7.15 7.15 0 0 0 -.21-5.82c-3.27-8-6.52-16-9.84-24-3.92-9.48-7.84-18.95-11.86-28.39-2.39-5.61-5-11.14-7.43-16.71-.63-1.41-1.27-2.82-2-4.35h1.59a29.38 29.38 0 0 0 5.82-.6 20.23 20.23 0 0 0 8.56-5.12 27.29 27.29 0 0 0 7.39-13.49c1.15-5.18.72-10.41 0-15.61a1.4 1.4 0 0 1 .54-1.62 5.08 5.08 0 0 0 2-3.54c.52-3.43 1-6.86 1.51-10.3.64-4.45 1.19-8.92 1.93-13.36.57-3.46 1.25-6.91 2.08-10.32.89-3.63 1.92-7.24 3.08-10.79 1-3.26 2.34-6.45 3.58-9.64a7.94 7.94 0 0 0 .38-4.93 1.59 1.59 0 0 1 .3-1.2c1.37-1.71 2.89-3.31 4.19-5.06a5.15 5.15 0 0 0 -2.39-8 18.35 18.35 0 0 0 -6-.62c-1.34 0-2.64.85-4 1.16a28 28 0 0 0 -10.45 4.61c-2.75 2-5.54 4-7.35 7.1-1.22 2.09-2.9 3.9-4.3 5.89-1.83 2.61-3.57 5.28-5.36 7.91a5 5 0 0 1 -.61.7c-.72.74-1.49 1.44-2.14 2.23-.91 1.11-1.78 2.26-2.58 3.45-1.29 1.92-2.49 3.89-3.75 5.82a9 9 0 0 1 -1.3 1.65c-.61.57-1.36 1-2 1.52-1.34 1.17-3 2-3.84 3.71a2.39 2.39 0 0 1 -1.13 1 8.3 8.3 0 0 0 -4 3.3c-1.09 1.87-2.33 3.64-3.56 5.54-.46-.38-.69-.6-.94-.79a5.27 5.27 0 0 0 -7.1.34c-2.67 2.8-5.21 5.73-7.81 8.59-.36.39-.73.77-1.15 1.2-1.25-3.18-3-4.43-5.82-4.26a5.57 5.57 0 0 0 -4.15 2.32c-3.56 4.56-7.17 9.09-10.76 13.62 0 0-.14 0-.21 0-1.78-4.65-7.15-5.06-10-1.2-2 2.7-4.36 5.11-6.43 7.75-2.76 3.51-5.6 7-8 10.72a62.07 62.07 0 0 0 -10.3 27.06 69.88 69.88 0 0 0 .94 20.61 80.37 80.37 0 0 0 7.64 21.45c2.86 5.74 6.33 11.18 9.55 16.74 2.85 4.9 5.84 9.72 8.54 14.7 3.45 6.38 6.71 12.86 10 19.32 2.11 4.15 4.12 8.36 6.24 12.52 1.23 2.41 2.56 4.77 3.87 7.14.41.73 0 1.41-.91 1.51a44.73 44.73 0 0 0 -5.44.73 5 5 0 0 0 -3.69 6.21 19.8 19.8 0 0 0 2.05 4 3.25 3.25 0 0 1 .59 2.34 4.94 4.94 0 0 0 1 4.05 21.35 21.35 0 0 0 5.5 5.47 1.59 1.59 0 0 1 .62.69c1.79 4.09 5.78 5.61 9.16 7.84a3.85 3.85 0 0 0 .66.28l4.34 1.83c-1.94 4.9-1.78 9.57 1.77 13.63s8 5.2 13 4.46c.91 2.71 1.77 5.32 2.67 7.92a52.24 52.24 0 0 0 18.81 25.29 1.87 1.87 0 0 1 .74 1.1c.53 4.3 3.17 7 6.71 9.09a4.3 4.3 0 0 0 3.8.51 32.53 32.53 0 0 0 3.54-1.86 1.3 1.3 0 0 1 .1.26c.76 2.52 1.19 5.2 2.37 7.51 2.45 4.83 5.31 9.46 8 14.19a1.88 1.88 0 0 1 .17 1.47 15.91 15.91 0 0 0 -.51 12.5c2.27 6.22 5 12.29 7.58 18.37a4.93 4.93 0 0 0 4.78 3 5 5 0 0 0 4.81-2.81c1.9-3.69 3.82-7.38 5.53-11.16m-42.3-342.1c.87-1.43 1.67-2.91 2.65-4.27 2.7-3.76 5.32-7.61 8.28-11.17a21.52 21.52 0 0 1 8.99-6.17c2.38-.92 4.82-1.69 7.28-2.38a13.7 13.7 0 0 1 3.18 0 16.89 16.89 0 0 1 -1.86 2.8 53 53 0 0 0 -11.14 15.66c-4.28 8.66-6.6 17.88-8.24 27.3a89.81 89.81 0 0 0 -.82 10.39 4.65 4.65 0 0 0 .57 2.16c.19.38.88.88 1.14.78a1.83 1.83 0 0 0 1-1.18 19.57 19.57 0 0 0 .3-3.34c.11-3.43-.08-6.9.31-10.3a68.86 68.86 0 0 1 3.63-16 120.68 120.68 0 0 1 6.68-14.85 17.68 17.68 0 0 1 1.7-2.46c.18-.23.54-.3.82-.45a8.19 8.19 0 0 1 .45 1.12c0 .16-.12.38-.2.56-3.16 7.07-5 14.56-6.83 22-1.12 4.57-2.07 9.2-2.83 13.84-1 6.27-1.82 12.57-2.67 18.86a1.58 1.58 0 0 1 -1.59 1.58 1.45 1.45 0 0 1 -1.7-1.44 3 3 0 0 0 -.45-1.34 16.54 16.54 0 0 1 -2.51-8.16c-.3-4.79-.27-9.6-.76-14.36s-.68-9.76-2.89-14.23a17.58 17.58 0 0 0 -2.11-3.06 1.47 1.47 0 0 1 -.25-1.85zm4.32 34.64a23.81 23.81 0 0 1 -2.12-1.46c-3-2.62-6-5.24-9-7.93a9.45 9.45 0 0 1 -2.16-2.69 8.12 8.12 0 0 1 -.67-3.18c0-.32.74-.86 1.21-1s1.39-.22 1.64.73a9.13 9.13 0 0 0 4 5.37 5.3 5.3 0 0 0 2.33.44c1.06.09 1.1-.74 1.44-1.49s1.18-1.24 1.8-1.84l.6.28c.43 4.22.73 8.37 1.06 12.81zm-10.61-26.75c1.09-1.48 2.3-2.86 3.44-4.3a1.35 1.35 0 0 1 2.35 0 13.61 13.61 0 0 1 3 7.19 9.82 9.82 0 0 0 .32 1.89 8.92 8.92 0 0 1 -1.1 7.8 9.92 9.92 0 0 1 -3.34 2.82c-.36.21-1.54-.48-2-1a1.35 1.35 0 0 1 .21-2.18c1.86-1.1 2.39-2.93 2.63-4.86a2.89 2.89 0 0 0 -.69-1.67c-1.49-2.18-1.49-2.12-4-1.48a25.89 25.89 0 0 1 -3.2.37c-.09-.16-.18-.32-.26-.49.87-1.39 1.69-2.79 2.64-4.09zm-9.18 10.66c1.94-1.54 4-2.85 6.11-4.23 2.34-1.56 4.71-.4 7.05 0 .16 0 .35.5.35.76a2.25 2.25 0 0 1 -2.47 1.94 19.53 19.53 0 0 0 -4.52 0 8.7 8.7 0 0 0 -2.83 1.4c-.24.15-.31.6-.6 1.21a8.57 8.57 0 0 0 1.76 1.76c1.05.55.73 1.3.34 1.86-.2.3-1 .38-1.5.24a39.79 39.79 0 0 1 -4.11-1.54c-.31-.14-.72-.69-.66-.92a4.94 4.94 0 0 1 1.08-2.48zm-16.34 30.43a37.13 37.13 0 0 1 5-16.6c1.74-3.09 3.74-6 5.66-9a3.25 3.25 0 0 1 3.71-.82c3.41 1.65 6.92 3.12 10.15 5.07a35.46 35.46 0 0 1 11.67 11.08 36.5 36.5 0 0 1 3.07 4.57 37.54 37.54 0 0 1 2.59 7.68c.92 4.6 1.36 9.35-.09 13.89a27.19 27.19 0 0 1 -4.21 8.53c-3.94 5-9 7.13-14.68 5.34-6.46-2-10.11-7.28-8.34-15.19.94-4.18 3.26-7.59 6-10.78 1.2-1.4 2.42-2.79 3.5-4.27 1.79-2.46 3.48-5 3.72-8.18a2.52 2.52 0 0 1 2.73 1.28c4.42 7.37 5.93 15.11 3 23.39a16.79 16.79 0 0 1 -2 3.21 5.63 5.63 0 0 1 -.7 1 14.47 14.47 0 0 1 -1.59 1.21c-.22.14-.63 0-.8.2-1.36 1.33-2.78.44-4.14.1s-2.52-2.92-2.21-4.27c.45-1.95.86-2.31 2.66-2.58a1.85 1.85 0 0 1 1.94.86c.76 1 1.45 1.11 2.42.32-.34-.47-.66-1-1-1.44-1.66-2.14-3.1-2.29-5.32-.75-1.45 1-2.67 2.09-2.42 4s.71 4 2.57 5.09a6 6 0 0 0 6.46.11c5.38-3.23 6.94-8.31 7.19-14.15a26.79 26.79 0 0 0 -1.56-10.44 45.09 45.09 0 0 0 -1.92-4.11 4.37 4.37 0 0 1 -.25-.4c-.24-.71-.24-1.69-.72-2.09-2.77-2.26-4.55-5.56-7.88-7.24-2.66-1.34-6.59-.57-8.29 1.89-3.6 5.21-5.22 11.07-5.82 17.29a50.45 50.45 0 0 0 3.16 22.6c.56 1.49 1.41 2.86 2.06 4.31 1.85 4.08 3.59 8.2 5.52 12.24 10.29 21.65 19 44 28.06 66.14.42 1 .77 2.07 1.15 3.1l-.29.16a18 18 0 0 1 -1.09-1.69c-3.78-7.27-7.68-14.48-11.28-21.83q-16.67-34-33.09-68.14a42.55 42.55 0 0 1 -4.3-20.69zm18.09-10.41c3.77-3.5 4.89-1 4.44 2.64a10.65 10.65 0 0 1 -1.13 2.88c-4.63 8.86-2 3.81-3 5.23-2.31 3.35-2.48 2-4.08 1-.07-.06-.23-.35-.5-.43-1.29-.38-.93-2.47 0-4.87a16.87 16.87 0 0 1 4.27-6.45zm-27.24-1c2-2.49 4.21-4.77 6.33-7.15l.33.16c-.24 1.29-.46 2.59-.73 3.88-.82 4-1.7 8-2.5 12a35.08 35.08 0 0 0 1.47 18.19c2.5 7.57 6.33 14.49 10.37 21.29 14.66 24.64 28.14 49.92 41.59 75.23a11.27 11.27 0 0 1 .63 2.28l-.33.08c-1.73-2-3.36-4.16-5.22-6.06a35.05 35.05 0 0 0 -20-10.11 2.1 2.1 0 0 1 -1.77-1.16q-16-29.85-32.05-59.67c-2.94-5.47-5.5-11.09-6.56-17.28-2-11.86 1.04-22.41 8.44-31.72zm24.12 147.33c.83 3.79 4.8 6 7.82 4 .48-.31.68-1.08 1.11-1.53a4 4 0 0 1 1.63-1.32c1.26-.3 2.7-.87 3.76.62.82 1.15.74 4.81 0 6a9.89 9.89 0 0 1 -12.08 4c-5.42-2.08-9.76-8.82-9.09-15a17 17 0 0 1 2.76-7.34c5.5-8.19 12.95-9.9 21.31-7a13.36 13.36 0 0 1 2.64 2 38.66 38.66 0 0 1 -3.1 4.09 3.11 3.11 0 0 1 -2.26.51c-4.33-.34-8.5.09-11.92 3.2a7.67 7.67 0 0 0 -2.58 7.73zm-.35 12.86a11.69 11.69 0 0 0 9.54 1 12.36 12.36 0 0 0 6.16-3.88 7.77 7.77 0 0 0 1.53-7.3c-.91-3.63-4.91-5.5-7.76-3.62a1.39 1.39 0 0 0 -.58.73c-.55 1.91-2 2.06-3.49 2.24-2 .22-2.55-.23-2.94-2.36a5.8 5.8 0 0 1 1.67-5.61c4.43-4.28 8.85-4.6 13.93-.87a14.91 14.91 0 0 1 5.4 16.23c-2 6.76-7.22 11.35-17.24 12.92-3.49.61-9.25-1.79-14.07-7.17a26.18 26.18 0 0 1 -6.73-13.9 2.45 2.45 0 0 1 .6-1.83c1.83-1.81 5.11-.62 5.92 2.16 1.41 4.79 3.72 8.89 8.06 11.22zm8-38c-1.81.09-3.52.11-5.22.28a24.77 24.77 0 0 0 -12.63 5.06 1.46 1.46 0 0 1 -1.91.14c-2.31-1.32-4.67-2.57-7-3.85 4.12-6.18 19.43-11.86 27.43-10.14-.24 2.79-.45 5.61-.67 8.44zm-60-98.83c3.56-7.24 8.5-13.52 13.65-19.65l2.54-3c-1.29 3.71-2.48 7-3.61 10.41-2.15 6.4-2.45 13-2 19.67.39 6.25 1.17 12.43 3.86 18.18q2.61 5.6 5.44 11.08 11.94 23.16 23.95 46.3c.64 1.24 1.3 2.47 2 3.86a38.15 38.15 0 0 0 -15.5 7.89c-.29-.49-.54-.88-.75-1.28q-13.16-24.49-26.29-49a66.21 66.21 0 0 1 -7-17.92 40.18 40.18 0 0 1 3.75-26.61zm-13.91 80.32a97.72 97.72 0 0 1 -11-23.49c-3.31-11.28-4-22.62-.65-34 2.66-8.95 7.51-16.73 13.31-23.94 2.3-2.86 4.71-5.63 7.06-8.44l.22.16c-1.06 4.09-2.19 8.16-3.18 12.27a90.39 90.39 0 0 0 -2.73 21.23c0 8.73 2.12 17 5.4 25 4.09 10 9.29 19.45 14.27 29 4.36 8.36 8.64 16.76 13 25.12a2.1 2.1 0 0 1 0 2.2c-5.08 10.25-6.66 20.85-3.07 31.93.35 1.08-.37 1.31-1.06 1.87-.92-1.86-1.83-3.66-2.71-5.48-8.81-18.29-18.22-36.21-28.82-53.5zm117 208a1.51 1.51 0 0 1 -3-.4l-.08-.14c-2-5-8.48-14.18-6.55-20.43a8.12 8.12 0 0 1 2-4.5c1-1.17 1.13-1.32.29-2.67-1.94-3.12-3.92-6.22-5.83-9.36a45.22 45.22 0 0 1 -5-11.11 8.75 8.75 0 0 1 0-5.19 3.22 3.22 0 0 0 .14-.7 1.54 1.54 0 0 0 -.12-.42c-.39.07-.77.12-1.14.21-1.59.34-2.28-.08-2.74-1.66-.78-2.75-1-2.91-3.81-2.52a3.73 3.73 0 0 0 -3.38 3.03c-.11.46-.19.93-.3 1.49-1.68-.92-3-2.12-3.05-4-.11-2.67-1.51-4.23-3.64-5.73a44.06 44.06 0 0 1 -16.53-22.66c-1.68-5-3.08-10.17-4.63-15.25a10.13 10.13 0 0 0 -1.17-3 9.48 9.48 0 0 0 -2.74-2.54 2.59 2.59 0 0 0 -3.53.78 2.92 2.92 0 0 0 -.05 3.66 3.92 3.92 0 0 0 3.29 1.68h2.64c-.61 2.83-3.15 4.26-6.16 3.51-3.64-.91-5.93-3.64-5.82-6.94a8 8 0 0 1 6.54-7.56c5-.82 8 .45 10.24 4.3.23.41.54.78 1 1.46.15-.8.29-1.31.33-1.82a4.51 4.51 0 0 1 1.51-3.4c.86-.71.52-1.45-.1-2.05-1.44-1.39-2.92-2.73-4.38-4.1-2.67-2.48-2.86-2.48-5.63-.14a11.5 11.5 0 0 1 -11.87 2.3c-1.08-.38-2.13-.84-3.42-1.35 1.09-.54 1.94-1 3.15-1.54a7.62 7.62 0 0 0 -1.56-.62c-1.51-.16-3-.33-4.54-.34a4.15 4.15 0 0 1 -4.24-2.69l2.66-1.24v-.34c-.55-.16-1.09-.36-1.65-.47a10.36 10.36 0 0 1 -6.61-3.55c-.17-.22-.35-.43-.51-.66a.91.91 0 0 1 -.09-.23l3.67-1.19a31.5 31.5 0 0 1 -4.28-3.22 27.92 27.92 0 0 1 -2.75-4.15 7 7 0 0 1 6.24.65c1.23.77 1.6.63 2-.78.24-.88.38-1.79.57-2.69a4 4 0 0 1 2.26-3.05c.5 2.05 1.21 4 3.42 4.68a3.38 3.38 0 0 0 3.82-1 5.71 5.71 0 0 0 1.1-3.63 31.82 31.82 0 0 1 -3.28-5.37c-4.86-10.25-3.95-20.37.93-30.57l7.44 4.2a77.07 77.07 0 0 0 -2 7.67 25.88 25.88 0 0 0 14.88 27.49c8.53 3.86 16.69 2.89 24.63-1.68a2 2 0 0 1 .26-.11l.14-.12a1.39 1.39 0 0 1 .57-.68 1.21 1.21 0 0 1 .4-.34c.81-.68 1.6-1.35 2.39-2a22.64 22.64 0 0 0 8.23-16.6c.67-9.9-3.16-17.82-11.29-23.62a1.52 1.52 0 0 1 -.67-1c.15-3 .37-5.95.58-9.21 13 6.51 19.68 16.84 20.42 31.08 2 .5 2.81 1.16 2.78 3.29-.07 4.65 1.57 8.84 3.1 13.09a17 17 0 0 0 .95 2.19c1 1.91 1.74 2.22 3.78 1.61a3.94 3.94 0 0 1 4.07 1c1-2.39 2-4.65 3-6.93 2.83-6.61 5.62-13.23 8.49-19.83a2.61 2.61 0 0 1 1.4-1.23c2.78-1 5.65-1.75 8.41-2.79 3.41-1.3 3.72-2.6 1.36-5.35-1.37-1.61-2.88-3.1-4.38-4.6a1.21 1.21 0 0 1 -.32-1.55q18.3-44.7 36.55-89.41a1.67 1.67 0 0 1 1.93-1.25c1.59.09 3.18 0 4.88 0 0-.57.08-1 .08-1.49 0-4.2 0-8.4 0-12.6a4.67 4.67 0 0 1 .3-1.75q5.56-13.12 11.18-26.24c.09-.21.22-.41.51-1 1.7 3.92 3.33 7.52 4.84 11.17 3.94 9.56 7.68 19.21 11.77 28.71a114 114 0 0 0 17.69 29.1 1.34 1.34 0 0 1 .08 1.71c-6.18 13.26-12.44 26.47-18.45 39.8-1.25 2.77-2.67 4.27-5.82 4.48a53.12 53.12 0 0 0 -8 1.65 7.34 7.34 0 0 0 -1.24.44c-2.63 1.11-3.44 2.69-2.13 5.22a99.47 99.47 0 0 0 5.59 9.21 3.35 3.35 0 0 1 .41 3.47" fill="#283148"/></svg>