<?xml version="1.0" encoding="utf-8"?>
<!-- Generator: Adobe Illustrator 24.1.1, SVG Export Plug-In . SVG Version: 6.00 Build 0)  -->
<svg version="1.1" id="Capa_1" xmlns="http://www.w3.org/2000/svg" xmlns:xlink="http://www.w3.org/1999/xlink" x="0px" y="0px"
	 viewBox="0 0 566.9 566.9" style="enable-background:new 0 0 566.9 566.9;" xml:space="preserve">
<style type="text/css">
	.st0{fill:#29ABE2;}
	.st1{enable-background:new    ;}
	.st2{fill:#FFFFFF;}
	.st3{fill:#FEFEFE;}
</style>
<path d="M283.5,555.8c-150.4,0-272.3-121.9-272.3-272.3c0-72.2,28.7-141.5,79.8-192.5C196.7-16,369.1-17,476,88.7
	s107.9,278.1,2.2,385.1c-0.7,0.7-1.5,1.5-2.2,2.2C425.1,527.2,355.7,556,283.5,555.8z"/>
<path class="st0" d="M283.5,14.2c148.7,0,269.3,120.6,269.3,269.3S432.2,552.8,283.5,552.8S14.2,432.2,14.2,283.5
	S134.7,14.2,283.5,14.2 M283.5,8.2C131.5,8,8.1,131.1,8,283.1c-0.1,73.2,29,143.3,80.8,195c107.5,107.6,281.8,107.6,389.4,0.1
	s107.6-281.8,0.1-389.4C426.7,37.2,356.6,8.1,283.5,8.2z"/>
<circle class="st0" cx="283.5" cy="283.5" r="202.7"/>
<g class="st1">
	<path class="st2" d="M66,327.5l-27.8-2.6l-1.3-6.7l35,3.3l1.8,9.3l-31.1,16.3l-1.3-6.7L66,327.5z"/>
</g>
<g class="st1">
	<path class="st2" d="M69.6,310.4l-29.2,1.7c-3,0.2-4.6-1.3-4.7-4.3l-1-18.1c-0.2-3,1.2-4.6,4.2-4.8l29.2-1.7l0.4,6.8l-9,0.5
		l0.8,13.6l9-0.5L69.6,310.4z M41.5,291.5l0.8,13.6l11.2-0.6l-0.8-13.6L41.5,291.5z"/>
</g>
<g class="st1">
	<path class="st2" d="M56.2,256.8l13.9-4.3l-0.6,6.8l-13.9,4.5l-0.7,7.9l13.4,1.1l-0.6,6.8l-29.1-2.5c-3-0.3-4.3-1.9-4.1-4.9
		l1.5-18.1c0.3-3,1.9-4.4,4.9-4.1l11.2,0.9c3,0.3,4.3,1.9,4.1,4.9L56.2,256.8z M49.4,257.6l-6.7-0.6l-1.1,13.6l6.7,0.6L49.4,257.6z"
		/>
</g>
<g class="st1">
	<path class="st2" d="M61,219l10.9,2.5c2.9,0.7,4,2.5,3.4,5.4l-4.1,17.7c-0.7,2.9-2.5,4.1-5.4,3.4l-24.1-5.5c-2.9-0.7-4-2.5-3.4-5.4
		l5.1-22.1l6.6,1.5l-4.6,19.9l19.7,4.5l3-13.3l-6.6-1.5l-2,8.8l-6.1-3.7l2-8.8C56.3,219.5,58.1,218.3,61,219z"/>
</g>
<g class="st1">
	<path class="st2" d="M77.1,219.1l-27.2-10.5c-2.8-1.1-3.6-3-2.6-5.8l6.5-16.9c1.1-2.8,3-3.7,5.8-2.6l27.2,10.5l-2.4,6.3l-8.4-3.2
		l-4.9,12.7l8.4,3.2L77.1,219.1z M59.3,190.3L54.4,203l10.4,4l4.9-12.7L59.3,190.3z"/>
</g>
<g class="st1">
	<path class="st2" d="M86.8,164.7l14.4,1.8l-3.3,6l-14.5-1.6l-3.9,7l11.8,6.5l-3.3,6l-25.5-14.2c-2.6-1.5-3.2-3.5-1.7-6.1l8.8-15.9
		c1.5-2.6,3.5-3.2,6.1-1.8l9.8,5.5c2.6,1.5,3.2,3.5,1.7,6.1L86.8,164.7z M80.3,162.7l-5.9-3.3l-6.6,11.9l5.9,3.3L80.3,162.7z"/>
</g>
<g class="st1">
	<path class="st2" d="M106.8,115.7l19.9,18.3l-4.6,5l-19.9-18.3l-6.2,6.7l19.9,18.3l-4.6,5l-21.6-19.9c-2.2-2-2.3-4.2-0.2-6.4
		l20.1-21.6c2.1-2.2,4.2-2.3,6.4-0.3l21.6,19.9l-4.6,5l-20-18.3L106.8,115.7z"/>
</g>
<g class="st1">
	<path class="st2" d="M139.8,120.1L122,97c-1.8-2.4-1.5-4.5,0.9-6.3l14.4-11.1c2.4-1.9,4.5-1.6,6.3,0.8l17.8,23.1l-5.4,4.2l-5.5-7.1
		l-10.8,8.4l5.5,7.1L139.8,120.1z M139.6,86.2l-10.8,8.4l6.9,8.9l10.8-8.4L139.6,86.2z"/>
</g>
<g class="st1">
	<path class="st2" d="M174.6,64.4l-3.6,2l0.5,11.3l9.4,6.3l3.6-2l3.3,5.9l-6.5,3.7l-11.2-7.4l0.5,13.4l-6.5,3.7l-3.3-5.9l3.6-2
		l-0.5-11.3l-9.4-6.3l-3.6,2l-3.3-5.9l6.5-3.7l11.2,7.4l-0.5-13.4l6.5-3.7L174.6,64.4z"/>
</g>
<g class="st1">
	<path class="st2" d="M184,52.8l13.6,30.8l-6.2,2.7l-13.6-30.8L184,52.8z"/>
</g>
<g class="st1">
	<path class="st2" d="M214.5,48.9l7.8,25.9l-6.5,2L208,50.8l-8.7,2.6l7.8,25.9l-6.5,2l-8.5-28c-0.9-2.9,0.1-4.7,3.1-5.6l28.3-8.5
		c2.9-0.9,4.8,0.1,5.7,3l8.5,28l-6.5,2l-7.8-25.9L214.5,48.9z"/>
</g>
<g class="st1">
	<path class="st2" d="M243.4,35.3l3.3,26.8l13.5-1.7l-3.3-26.8l6.8-0.8l3.6,29c0.4,3-1,4.6-4,5l-18,2.2c-3,0.4-4.7-0.9-5.1-3.9
		l-3.6-29L243.4,35.3z"/>
</g>
<g class="st1">
	<path class="st2" d="M295,39.4l-1.3,26.9l-6.8-0.3l1.3-26.9l-9.1-0.4l-1.3,26.9l-6.8-0.3l1.4-29.2c0.1-3,1.7-4.4,4.7-4.3l29.5,1.4
		c3,0.1,4.5,1.7,4.3,4.7l-1.4,29.2l-6.8-0.3l1.3-26.9L295,39.4z"/>
</g>
<g class="st1">
	<path class="st2" d="M359.8,51.6l-17.5-5.2l-2,6.5l15.3,4.6c2.9,0.9,3.9,2.7,3.1,5.6l-3.3,10.8c-0.9,2.9-2.8,3.9-5.7,3L328,70.3
		l1.9-6.4l19.6,5.8l2-6.5l-15.3-4.6c-2.9-0.9-3.9-2.7-3.1-5.6l3.3-10.8c0.9-2.9,2.8-3.9,5.7-3l21.8,6.5L359.8,51.6z"/>
</g>
<g class="st1">
	<path class="st2" d="M369.2,69.7l-2.8,6.1l14.5,6.5l-2.8,6.1l-16.6-7.4c-2.8-1.2-3.5-3.2-2.3-6l10.1-22.5c1.2-2.7,3.2-3.5,6-2.2
		l16.6,7.4l-2.8,6.1l-14.5-6.5l-2.8,6.1l8.3,3.7l-4.8,5.2L369.2,69.7z"/>
</g>
<g class="st1">
	<path class="st2" d="M412.9,77.5l-11.6-7l-10.5,17.3l13.6,8.2l-3.5,5.8l-15.5-9.4c-2.6-1.6-3.1-3.6-1.6-6.2L396.6,65
		c1.6-2.6,3.6-3.1,6.2-1.5l15.5,9.4L412.9,77.5z"/>
</g>
<g class="st1">
	<path class="st2" d="M430.5,81.4l-16.8,21l10.6,8.5l16.9-21l5.3,4.3l-18.2,22.8c-1.9,2.3-4,2.6-6.3,0.7l-14.2-11.4
		c-2.4-1.9-2.6-4-0.7-6.3l18.2-22.8L430.5,81.4z"/>
</g>
<g class="st1">
	<path class="st2" d="M452.9,129.3l-6.1,13.3l-4.7-5l5.9-13.5l-5.4-5.8l-9.8,9.3l-4.6-5l21.3-20.1c2.2-2.1,4.3-2,6.4,0.2l12.4,13.3
		c2.1,2.2,2,4.4-0.2,6.4l-8.2,7.7c-2.2,2.1-4.3,2-6.4-0.2L452.9,129.3z M456.9,123.6l4.9-4.6l-9.3-10l-4.9,4.6L456.9,123.6z"/>
</g>
<g class="st1">
	<path class="st2" d="M479.9,130.3l-26.6,20.6l-4.2-5.4l26.6-20.6L479.9,130.3z"/>
</g>
<g class="st1">
	<path class="st2" d="M497.9,156.5l-5.7,3.6l-4.9-7.6L464.7,167l-3.7-5.7l22.6-14.6l-4.9-7.6l5.7-3.6L497.9,156.5z"/>
</g>
<g class="st1">
	<path class="st2" d="M487,200.4c-2.7,1.3-4.7,0.5-6-2.2l-7.6-16.5l7.1-0.8l5.7,12.4l2-0.9l-6.7-14.4c-1.3-2.7-0.5-4.7,2.2-6
		l18.3-8.5l2.9,6.2l-16.3,7.5l5.7,12.4l16.3-7.5l2.9,6.2L487,200.4z"/>
</g>
<g class="st1">
	<path class="st2" d="M527.9,236.5l-6.5,1.6l-2.1-8.8l-26.2,6.3l-1.6-6.6l26.2-6.3l-2.1-8.8l6.6-1.6L527.9,236.5z"/>
</g>
<g class="st1">
	<path class="st2" d="M510,253.3l-6.7,0.7l1.7,15.8l-6.7,0.7l-1.9-18c-0.3-3,1-4.7,4-5l24.6-2.6c3-0.3,4.6,1,4.9,4l1.9,18l-6.7,0.7
		l-1.7-15.8l-6.7,0.7l1,9l-6.9-1.5L510,253.3z"/>
</g>
<g class="st1">
	<path class="st2" d="M498.9,274.1l29.2,0.7c3,0.1,4.5,1.6,4.4,4.6l-0.4,18.1c-0.1,3-1.6,4.5-4.6,4.4l-29.2-0.7l0.2-6.8l9,0.2
		l0.3-13.6l-9-0.2L498.9,274.1z M525.4,295.1l0.3-13.6l-11.2-0.3l-0.3,13.6L525.4,295.1z"/>
</g>
<g class="st1">
	<path class="st2" d="M520.9,332.1l-26.4-5.1l1.3-6.7l26.4,5.1l1.7-8.9l-26.4-5.1l1.3-6.7l28.6,5.5c2.9,0.6,4.1,2.3,3.5,5.3
		l-5.5,28.9c-0.6,3-2.3,4.2-5.3,3.6l-28.6-5.5l1.3-6.7l26.4,5.1L520.9,332.1z"/>
</g>
<g class="st1">
	<path class="st2" d="M116.5,435.6l-9.2-10.7l-4,3.4l8,9.4c1.5,1.8,1.4,3.4-0.4,4.9l-6.7,5.7c-1.8,1.5-3.4,1.4-5-0.4l-11.4-13.4
		l4-3.4l10.3,12l4-3.4l-8-9.4c-1.5-1.8-1.4-3.4,0.4-4.9l6.7-5.7c1.8-1.5,3.4-1.4,5,0.4l11.4,13.4L116.5,435.6z"/>
</g>
<g class="st1">
	<path class="st2" d="M117.3,459l13.8-6.3l3.8,3.6L116,465l-5.3-5.1l7.7-19.4l3.8,3.6l-5.6,14.1L117.3,459z"/>
</g>
<g class="st1">
	<path class="st2" d="M126.4,469.9l7.5-9.8c1.4-1.9,3.1-2.1,5-0.7l11.3,8.6c1.9,1.4,2.1,3.1,0.7,5l-9.7,12.7l-4.2-3.2l8.6-11.3
		l-8.4-6.4l-5.4,7l7,5.4l-4.6,3.1l-7-5.4C125.2,473.5,124.9,471.8,126.4,469.9z"/>
</g>
<g class="st1">
	<path class="st2" d="M145,488.2l14.4-22.1l4.4,2.9L149.4,491L145,488.2z"/>
</g>
<g class="st1">
	<path class="st2" d="M154.9,490.7l6-10.8c1.1-2,2.7-2.5,4.8-1.4l12.3,6.8c2,1.1,2.5,2.7,1.4,4.8l-7.7,13.8l-4.6-2.6l6.8-12.3
		l-9.2-5.1l-4.3,7.7l7.7,4.3l-4.1,3.8l-7.7-4.3C154.2,494.4,153.8,492.8,154.9,490.7z"/>
</g>
<g class="st1">
	<path class="st2" d="M176.1,506.2l6.4-14.4c1-2.1,2.5-2.7,4.6-1.8l9.6,4.3l-3.8,4.1l-6.4-2.9l-5.7,12.8L176.1,506.2z"/>
</g>
<g class="st1">
	<path class="st2" d="M191.8,513.4l8.7-25l5,1.7l-2.3,6.7l11.7,4.1c2.2,0.8,3,2.3,2.2,4.5l-5.2,15l-5-1.7l4.6-13.4l-10-3.5
		l-4.6,13.4L191.8,513.4z"/>
</g>
<g class="st1">
	<path class="st2" d="M240.9,511.2l-1.2,5.1c-0.5,2.3-1.9,3.2-4.2,2.6l-10.3-2.4l1.2-5.1l8.6,2l0.4-1.7l-10.3-2.4l-2,8.6l12,2.8
		l-2.9,4.8l-12-2.8c-2.3-0.5-3.2-1.9-2.6-4.2l2.8-12c0.5-2.3,1.9-3.2,4.2-2.6l13.7,3.2C240.5,507.5,241.4,508.9,240.9,511.2z"/>
</g>
<g class="st1">
	<path class="st2" d="M242,527.4l2.9-19.1l5.2,0.8l-2.9,19.1L242,527.4z M246,501.3l-0.8,5.2l3.5,0.5l2.5-5L246,501.3z"/>
</g>
<g class="st1">
	<path class="st2" d="M265.3,516.2l-7-0.4l-0.9,14l-5.3-0.3l1-15.8c0.1-2.3,1.4-3.4,3.7-3.3l22.8,1.4c2.3,0.1,3.4,1.4,3.3,3.7
		l-1,15.8l-5.3-0.3l0.9-14l-7-0.4l-0.9,14l-5.3-0.3L265.3,516.2z"/>
</g>
<g class="st1">
	<path class="st2" d="M287.4,527.8l-0.7-12.3c-0.1-2.3,1-3.6,3.3-3.7l14.1-0.8c2.3-0.1,3.6,1,3.7,3.3l0.9,15.8l-5.3,0.3l-0.9-14.1
		l-10.5,0.6l0.5,8.8l8.8-0.5l-1.4,5.4l-8.8,0.5C288.8,531.2,287.5,530.1,287.4,527.8z"/>
</g>
<g class="st1">
	<path class="st2" d="M343.2,518.5l6.8-1.7l-5.1-20.5l5.1-1.3l5.5,22.2c0.6,2.3-0.3,3.7-2.6,4.3l-22.2,5.5c-2.3,0.6-3.7-0.3-4.3-2.6
		l-5.5-22.2l5.1-1.3l5.1,20.5l6.8-1.7l-5.1-20.5l5.1-1.3L343.2,518.5z"/>
</g>
<g class="st1">
	<path class="st2" d="M357.4,492.3l0.1,5.5l-3.3,1.2l-1.7-5L357.4,492.3z M366.1,517.1l-6.4-18.2l-5,1.7l6.4,18.2L366.1,517.1z"/>
</g>
<g class="st1">
	<path class="st2" d="M370.6,515.8l-6.3-14.5c-0.9-2.2-0.3-3.7,1.8-4.6l12.9-5.6c2.2-0.9,3.7-0.3,4.6,1.8l6.3,14.5l-4.8,2.1
		l-5.6-12.9l-9.7,4.2l5.6,12.9L370.6,515.8z"/>
</g>
<g class="st1">
	<path class="st2" d="M388.3,482.6l1.7,3.1l3.1-1.7l0.9,5.5l-1.6,0.8l4.1,7.8l3.1-1.7l2.5,4.6l-4.7,2.5c-2.1,1.1-3.7,0.6-4.8-1.4
		l-9.1-17L388.3,482.6z"/>
</g>
<g class="st1">
	<path class="st2" d="M415.8,474.3l2.8,4.4c1.3,2,0.9,3.6-1.1,4.9l-9,5.7l-2.8-4.4l7.5-4.7l-0.9-1.5l-9,5.7l4.7,7.4l10.4-6.6
		l1.4,5.4l-10.5,6.7c-2,1.3-3.6,0.9-4.9-1.1l-6.6-10.3c-1.3-2-0.9-3.6,1.1-4.9l12-7.6C412.9,472,414.6,472.3,415.8,474.3z"/>
</g>
<g class="st1">
	<path class="st2" d="M428.2,484.8l-9.6-12.5c-1.4-1.9-1.2-3.5,0.6-4.9l8.4-6.4l1.8,5.3l-5.6,4.3l8.6,11.2L428.2,484.8z"/>
</g>
<g class="st1">
	<path class="st2" d="M438.7,463l7.1,7.8l-3.9,3.5l-15.3-17c-1.6-1.7-1.5-3.4,0.3-5l10.4-9.4l3.5,3.9l-9.1,8.3l3.5,3.9l5.2-4.7
		l2.2,5.1L438.7,463z"/>
</g>
<g class="st1">
	<path class="st2" d="M461.1,432.9l9.1,8.3c1.7,1.6,1.8,3.2,0.2,5l-9.4,10.4c-1.6,1.7-3.2,1.8-5,0.2l-9.1-8.3
		c-1.7-1.6-1.8-3.2-0.2-5l9.4-10.4C457.7,431.4,459.4,431.3,461.1,432.9z M451.8,445.8l6.5,5.9l7.1-7.8l-6.5-5.9L451.8,445.8z"/>
</g>
<g class="st1">
	<path class="st2" d="M476,439.6l-12.7-9.5c-1.9-1.4-2.1-3-0.7-4.9l6.4-8.4l3.1,4.6L468,427l11.3,8.4L476,439.6z"/>
</g>
<path class="st3" d="M463.8,264.9C472.2,337,433,418.8,351,451.7c-92.9,37.3-198.5-7.8-235.8-100.8
	c-27.4-68.2-10.8-146.3,41.9-197.5c42.1,42.2,84.3,84.5,126.5,126.8l98.4-98.5c0.5,0.6,0.3,1.2,0.3,1.8c0,15.5,0,31,0,46.5
	c0,1.1-0.4,2.2-1.2,2.9c-30.1,30.1-60.2,60.2-90.3,90.3c-2.2,2-4.3,4.2-6.3,6.5c-0.3,0.3-0.7,0.5-1.1,0.7L158.6,205.4
	c-1.1,1.3-2,2.8-2.8,4.3c-7.7,13.3-13.2,27.7-16.4,42.6c-1.3,6.2-2.3,12.5-2.8,18.9c-0.4,4.8-0.6,9.6-0.6,14.4
	c0.2,7.5,0.9,15.1,2.1,22.5c2.2,13.1,6.2,25.9,11.8,37.9c3.5,7.3,7.5,14.3,12.1,20.9c7.2,10.5,15.7,20.1,25.4,28.4
	c21.9,18.9,48.9,30.8,77.5,34.4c7,0.9,14.1,1.3,21.2,1.2c6.7-0.2,13.4-0.8,20-1.8c25.1-3.9,48.8-14.2,68.7-30
	c26.4-20.9,44.9-50.2,52.4-83.1c1.3-5.4,2.2-10.9,2.7-16.5c0-0.7,0.3-1.3,0.8-1.8l32.6-32.6C463.5,265.1,463.6,265,463.8,264.9z"/>
<path class="st3" d="M184.8,321.1v-49.2l97.8,97.8l139-137.9c-31.9-86.6-142-128.4-226.8-66.1l-24.2-23.9
	C215.1,104.8,283,90,345.6,113c68.2,25,105,83.3,114.5,130.2l-176.6,177L184.8,321.1z"/>
</svg>
