<svg viewBox="0 0 566.93 566.93" xmlns="http://www.w3.org/2000/svg"><path d="m284.82 15.57c-148.53 0-269.16 120.49-269.25 268.9-.08 149 120.33 269.64 269.05 269.69 148.88.05 269.52-120.43 269.54-269.16s-120.54-269.44-269.34-269.43z" fill="#fefefe"/><path d="m284.82 15.57c148.8 0 269.36 120.57 269.34 269.4s-120.66 269.24-269.54 269.19c-148.72 0-269.13-120.74-269-269.69.04-148.41 120.67-268.89 269.2-268.9zm-266 269.88a265.41 265.41 0 1 0 265.76-265.4 264.84 264.84 0 0 0 -265.72 265.4z" fill="#2e58a6"/><path d="m18.86 285.45a265.41 265.41 0 1 1 265.14 265.42 264.83 264.83 0 0 1 -265.14-265.42zm265.47 250.09c137 1 250.59-112.43 250.12-250.12-.45-138.42-111.76-250.06-250.22-250.04s-249.7 111.67-250.14 250.12c-.43 137.69 113.26 251.08 250.24 250.04z" fill="#f8d613"/><path d="m284.33 535.54c-137 1-250.67-112.35-250.24-250 .44-138.49 111.69-250.14 250.14-250.16s249.77 111.62 250.22 250.04c.47 137.69-113.1 251.08-250.12 250.12zm139.81-119.1c69.33-72.49 71.35-194.22-7.25-269.61-79.14-75.89-204.32-70.51-277.83 13.49-69.5 79.42-56.55 193.6 5.75 256.12z" fill="#2e58a6"/><path d="m424.14 416.44h-279.33c-62.3-62.52-75.25-176.7-5.75-256.12 73.51-84 198.69-89.38 277.83-13.49 78.6 75.39 76.58 197.17 7.25 269.61zm-4.52-8.34c63.21-71.35 67.12-178.44-6.48-251.81-74.6-74.37-187.14-72.29-259.14 1.43-74 75.83-66 182.22-5 250.38z" fill="#f9d312"/><path d="m227.83 58.61c-1-1.19-1.77-2.37.11-3.47-.04 1.16-.08 2.32-.11 3.47z" fill="#df150b"/><path d="m419.62 408.1h-270.62c-61-68.16-69-174.55 5-250.38 72-73.76 184.55-75.8 259.15-1.43 73.59 73.37 69.68 180.46 6.47 251.81zm-125.3-145.82c1.64.33 3.08-.36 4.6-.82q57.46-17.46 115-34.87a46.52 46.52 0 0 0 4.36-1.89h-96.17c-5.34 6.94-10.67 13.57-15.65 20.45-4.1 5.68-9.36 10.56-12 17.23l-.35.19zm-18.91 0 .27.29-.36-.19c-.06-.56.09-1.28-.21-1.67-9.18-12.1-18.4-24.16-27.45-36h-97.06c2.78 1 4 1.52 5.26 1.9 28.88 8.77 57.74 17.59 86.65 26.25 10.93 3.26 21.61 7.42 32.9 9.42zm18.91 13.14c-.15-.17-.31-.33-.26-.29l.35.2c-.41 2.34 1.55 3.52 2.67 5q32.09 42.1 64.35 84.08c2.63 3.43 4.78 7.32 9.4 11-9.8-29.57-19.17-57.82-28.47-85.89-3.54-1.12-6.5-2.19-9.53-3-12.9-3.52-25.33-8.61-38.51-11.1zm-87.79 99.58c2.25.41 3.64-1.28 5.22-2.31q26.85-17.34 53.61-34.79c5.75-3.74 11.48-7.52 16.85-11.05v-51.14c-7.63 10-14.43 18.78-21.17 27.64q-27.24 35.82-54.43 71.65l-.27.3zm156.67 0a3.77 3.77 0 0 1 .19.37l-.27-.3q-29.19-38.43-58.38-76.85c-5.42-7.13-10.91-14.23-17.21-22.45v51.13q36.48 23.67 72.94 47.34a3.09 3.09 0 0 0 2.73.76zm-87.79-99.53c-9.57 1.55-18.55 5.2-27.8 7.89-8.29 2.41-16.54 5-24.72 7.48-8.11 28.3-16.07 56-24.14 84.2 2.4-.42 2.92-1.84 3.71-2.87q29.53-38.58 59-77.24c4.82-6.37 10.66-12.05 13.89-19.55l.36-.2zm45-56.41-32.7-83.75v126.5zm-38.16-82.22-.76-.22q-16 41.43-31.9 82.83c10.84 14.18 21.3 27.84 32.66 42.68zm-119.9 96.66-.66 1.25 62.8 50.58 54.13-16.5zm244.65 1.5-.64-1.19-115.36 35.07 51.25 15.48z" fill="#2e58a6"/><path d="m344.22 83.71c.38-.47.75-.48 1.11 0-.39.53-.76.51-1.11 0z" fill="#df150b"/><path d="m368.49 74.91c-.56-.38-.56-.78 0-1.16.51.38.51.78 0 1.16z" fill="#de140a"/><path d="m275.32 275.33c-3.23 7.5-9.07 13.18-13.89 19.55q-29.33 38.75-59 77.24c-.79 1-1.31 2.45-3.71 2.87 8.07-28.15 16-55.9 24.14-84.2 8.18-2.48 16.43-5.07 24.72-7.48 9.25-2.69 18.23-6.34 27.8-7.89z" fill="#f8d513"/><path d="m320.42 219-32.7 42.8v-126.54z" fill="#f8d713"/><path d="m282.26 136.79v125.29c-11.36-14.84-21.82-28.5-32.66-42.68q15.93-41.39 31.9-82.83z" fill="#f8d713"/><path d="m363.2 375a3.09 3.09 0 0 1 -2.73-.71q-36.47-23.74-72.94-47.39v-51.18c6.3 8.22 11.79 15.32 17.21 22.45q29.2 38.41 58.38 76.85z" fill="#f8d613"/><path d="m206.61 375q27.21-35.83 54.43-71.67c6.74-8.86 13.54-17.68 21.17-27.64v51.11c-5.37 3.53-11.1 7.31-16.85 11.05q-26.79 17.43-53.61 34.79c-1.58 1-3 2.72-5.22 2.31z" fill="#f8d613"/><path d="m294.32 275.42c13.18 2.49 25.61 7.6 38.51 11.05 3 .81 6 1.88 9.53 3 9.3 28.07 18.67 56.32 28.47 85.89-4.62-3.64-6.77-7.53-9.4-11q-32.26-42-64.35-84.08c-1.12-1.47-3.08-2.65-2.67-5z" fill="#f8d513"/><path d="m162.35 233.5 116.27 35.33-54.13 16.5-62.8-50.58z" fill="#f8d513"/><path d="m275.41 262.28c-11.29-2-22-6.16-32.9-9.43-28.91-8.66-57.77-17.48-86.65-26.25-1.26-.38-2.48-.89-5.26-1.9h97.06c9 11.85 18.27 23.91 27.45 36 .3.39.15 1.11.21 1.67z" fill="#f8d513"/><path d="m294.41 262.38c2.69-6.67 7.95-11.55 12-17.23 5-6.88 10.31-13.51 15.65-20.45h96.12a46.52 46.52 0 0 1 -4.36 1.89q-57.41 17.41-114.9 34.87c-1.52.46-3 1.15-4.6.82z" fill="#f8d513"/><path d="m407 235-64.72 49.38-51.28-15.5 115.33-35.09z" fill="#f8d513"/><path d="m275.32 262.38.36.19-.27-.29z" fill="#f8d513"/><path d="m294.32 262.28-.26.29.35-.19z" fill="#f8d513"/><path d="m275.41 275.42.27-.29-.36.2z" fill="#f8d513"/><path d="m294.41 275.33-.35-.2c-.05 0 .11.12.26.29z" fill="#f8d513"/><path d="m363.12 375 .27.3a3.77 3.77 0 0 0 -.19-.37z" fill="#f8d613"/><path d="m206.53 375-.19.37.27-.3z" fill="#f8d613"/><g fill="#f2f2f2"><text font-family="RussoOne, Russo One" font-size="39.02" transform="matrix(-.0974092 -.99524442 .99524442 -.0974092 77.37 317.44)">В</text><text font-family="RussoOne, Russo One" font-size="39.02" transform="matrix(.03053851 -.99953359 .99953359 .03053851 74.7 290.68)">А</text><text font-family="RussoOne, Russo One" font-size="39.02" transform="matrix(.15143334 -.98846747 .98846747 .15143334 75.58 263.75)">С</text><text font-family="RussoOne, Russo One" font-size="39.02" transform="matrix(.27177639 -.96236043 .96236043 .27177639 78.94 240.59)">И</text><text font-family="RussoOne, Russo One" font-size="39.02" transform="matrix(.4 -.92 .92 .4 86.39 213.95)">Л</text><text font-family="RussoOne, Russo One" font-size="39.02" transform="matrix(.51683219 -.85608673 .85608673 .51683219 97.6 188.06)">И</text><text font-family="RussoOne, Russo One" font-size="39.02" transform="matrix(.62483394 -.78075768 .78075768 .62483394 111.85 164.34)">Й</text><text transform="matrix(.69465837 -.7193398 .7193398 .69465837 129.55 142.81)"/><text font-family="RussoOne, Russo One" font-size="39.02" transform="matrix(.76 -.65 .65 .76 136.9 134.49)">Д</text><text font-family="RussoOne, Russo One" font-size="39.02" transform="matrix(.85117775 -.52487754 .52487754 .85117775 159.21 115.17)">М</text><text font-family="RussoOne, Russo One" font-size="39.02" transform="matrix(.91968449 -.39265817 .39265817 .91968449 188.41 97.37)">И</text><text font-family="RussoOne, Russo One" font-size="39.02" transform="matrix(.96 -.28 .28 .96 213.89 86.58)">Т</text><text font-family="RussoOne, Russo One" font-size="39.02" transform="matrix(.98719201 -.1595366 .1595366 .98719201 236.38 79.95)">Р</text><text font-family="RussoOne, Russo One" font-size="39.02" transform="matrix(1 -.03 .03 1 262.91 75.58)">И</text><text font-family="RussoOne, Russo One" font-size="39.02" transform="matrix(.9957247 .09237059 -.09237059 .9957247 290.59 74.77)">Е</text><text font-family="RussoOne, Russo One" font-size="39.02" transform="matrix(.9768593 .21388294 -.21388294 .9768593 314.51 76.85)">В</text><text font-family="RussoOne, Russo One" font-size="39.02" transform="matrix(.94040688 .34005131 -.34005131 .94040688 340.8 82.53)">И</text><text font-family="RussoOne, Russo One" font-size="39.02" transform="matrix(.88829682 .45926981 -.45926981 .88829682 366.82 91.91)">Ч</text><text transform="matrix(.84292224 .5380354 -.5380354 .84292224 390.58 104.57)"/><text font-family="RussoOne, Russo One" font-size="39.02" transform="matrix(.78940562 .61387195 -.61387195 .78940562 400.16 110.19)">П</text><text font-family="RussoOne, Russo One" font-size="39.02" transform="matrix(.70090926 .71325045 -.71325045 .70090926 422.04 127.12)">Л</text><text font-family="RussoOne, Russo One" font-size="39.02" transform="matrix(.58212297 .81310076 -.81310076 .58212297 442.06 146.89)">Ю</text><text font-family="RussoOne, Russo One" font-size="39.02" transform="matrix(.42435747 .90549475 -.90549475 .42435747 463.65 176.68)">Щ</text><text font-family="RussoOne, Russo One" font-size="39.02" transform="matrix(.28200658 .95941247 -.95941247 .28200658 479.89 212.57)">Е</text><text font-family="RussoOne, Russo One" font-size="39.02" transform="matrix(.16177606 .9868275 -.9868275 .16177606 486.81 235.53)">Н</text><text font-family="RussoOne, Russo One" font-size="39.02" transform="matrix(.03681812 .99932198 -.99932198 .03681812 491.28 262.87)">К</text><text font-family="RussoOne, Russo One" font-size="39.02" transform="matrix(-.09063258 .9958844 -.9958844 -.09063258 492.34 288.38)">О</text><text font-family="RussoOne, Russo One" font-size="53.39" transform="translate(150.48 475.38)">АРИАДНА</text></g></svg>