<svg enable-background="new 0 0 113.4 113.4" viewBox="0 0 113.4 113.4" xmlns="http://www.w3.org/2000/svg"><circle cx="56.7" cy="56.7" fill="#0a0a0a" r="56.7"/><circle cx="56.7" cy="56.7" fill="#fff" r="52.4"/><circle cx="56.7" cy="56.7" fill="#0a0a0a" r="38.7"/><path d="m56.7 23.6-30 52.2 30-11.8 30 11.8z" fill="#e30914"/><g fill="#0b0a0a"><path d="m9.9 40.4c.1-4 2-7.3 4.1-10.5.8-1.2 1.7-2.3 2.8-3.3 1.1-1.1 2.3-1.7 3.9-1.5 1 .7 2.3 1.1 3.1 2 1.3 1.4 1.3 2.9.2 4.4-2.4 3.2-4.5 6.5-5.9 10.3-.8 2.2-2.8 2.9-4.9 1.9-1.4-.8-2.9-1.5-3.3-3.3z"/><path d="m90.7 26.2h.1c3.5-1.7 4.2-1.5 6.8 1.4 2.7 3 4.6 6.4 5.7 10.2.3 1.1.3 2.2.1 3.3-.9 1.5-2.4 2.4-4.1 2.8-1.7.5-3.2-.4-3.8-2-1.3-3.6-3.1-6.9-5.6-9.8-1.8-2.2-1.5-4.1.8-5.9z"/><path d="m56.5 107.2c-2.1.1-4.3-.2-6.5-.9-1.5-.4-2.9-1.1-3.2-2.8-.2-1.8-.5-3.8 1.2-5.2.6-.6 1.3-.8 2.2-.7 4.2.6 8.4.7 12.6.1 2.1-.3 3.6 1.3 3.8 3.4.3 4-1.2 5.1-5.3 5.8-1.6.2-3.1.3-4.8.3z"/></g><path d="m37.6 19c-.1.1-.3.1-.4.1s-.2 0-.3-.1l-5.4-2.9c-.1 0-.1-.1-.1-.1 0-.1 0-.1 0-.2s0-.1.1-.2c0-.1.1-.1.1-.2.1-.1.1-.1.2-.1s.1-.1.2-.1h.2l5 2.7.8-5.6c0-.1.1-.2.2-.3.1 0 .1-.1.2-.1h.2c.1 0 .1 0 .2.1.1 0 .1.1.1.1v.2l-.9 6c0 .1-.1.2-.1.3 0 .3-.1.4-.3.4z"/><path d="m41.6 14.6.3.9c0 .2.2.3.4.3.2.1.6 0 1-.1l3.7-1.1h.3c.1.1.1.2.2.3 0 .1.1.2 0 .3 0 .1-.1.1-.2.2l-3.7 1.1c-1.5.5-2.4.2-2.7-.7l-.8-2.7c-.3-1 .3-1.7 1.8-2.1l1.1-.3h.3c.1.1.1.2.2.3 0 .1.1.2 0 .3 0 .1-.1.1-.2.2l-1.1.3c-.5.1-.8.3-.9.5-.2.2-.2.4-.2.5l.3 1 5-1.5h.3c.1.1.1.2.2.3 0 .1.1.2 0 .3 0 .1-.1.1-.2.2z"/><path d="m47.3 9.8c0-.2.1-.4.3-.4l4.5-.5c.4 0 .7-.1 1 0 .3 0 .6.1.8.2s.4.2.5.3.2.3.2.5l.1 1c0 .2 0 .4-.1.6s-.2.3-.4.5c-.2.1-.4.3-.7.3-.3.1-.6.2-1 .2h-.3c-.2 0-.4.1-.6.1s-.3 0-.5.1c-.1 0-.3 0-.4 0s-.2 0-.3 0c .1 0 .2 0 .3.1.1 0 .2.1.4.1.1 0 .3.1.5.1s.5.1.8.2l2 .5c.2 0 .3.2.3.3s0 .2-.1.3-.2.1-.4.1h-.1c-.1 0-.1 0-.2 0s-.1 0-.2 0-.1 0-.2 0l-4.9-1.4.2 1.8c0 .2 0 .3-.1.3s-.2.1-.4.1-.3 0-.4 0-.2-.1-.2-.3zm1.1.4.2 1.9 3.7-.5c.3 0 .5-.1.7-.1s.3-.1.4-.2.2-.1.2-.2 0-.1 0-.2l-.1-.9c0-.1 0-.1-.1-.2s-.1-.1-.2-.1-.3-.1-.4-.1c-.2 0-.4 0-.7 0z"/><path d="m59.1 9.6-.2 4.6c0 .2-.1.3-.1.3-.1 0-.2.1-.4.1s-.3 0-.4-.1-.1-.2-.1-.4l.2-4.6-2.4-.1c-.1 0-.2 0-.2-.1s-.1-.2 0-.3c0-.1 0-.3.1-.3 0-.1.1-.1.3-.1l5.9.2c.1 0 .2 0 .2.1s.1.2 0 .3c0 .1 0 .3-.1.3 0 .1-.1.1-.3.1z"/><path d="m63.1 14.6c0 .2-.1.2-.2.3-.1 0-.2 0-.4 0s-.3-.1-.4-.1c-.1-.1-.1-.2-.1-.3l.7-5.1c0-.2.1-.2.2-.3h.4c.2 0 .3.1.4.1.1.1.1.2.1.3z"/><path d="m71 15.2c-.1.5-.4.8-.9.9s-1.1.1-1.8-.1l-2.4-.5c-1.5-.4-2.2-1.1-1.9-2l .7-2.7c.2-1 1.1-1.3 2.7-.9l1.1.3c.1 0 .2.1.2.2s0 .2 0 .3-.1.2-.1.3-.1.1-.3 0l-1.1-.3c-.5-.1-.8-.1-1-.1-.2.1-.4.2-.4.4l-.7 2.7c0 .2 0 .3.2.5s.5.3 1 .4l2.3.6c.5.1.8.1 1 .1s.3-.2.3-.4l.4-1.4c0-.2.1-.2.2-.3s.2 0 .4 0 .3.1.4.2.1.2.1.3z"/><path d="m73.1 17.7c-1.4-.7-2-1.4-1.5-2.3l1.2-2.6c.4-.9 1.3-1 2.8-.4l2.1 1c1.4.7 2 1.4 1.5 2.3l-1.2 2.6c-.4.9-1.3 1-2.8.4zm2.5.2c.4.2.8.3 1 .3s.4-.1.5-.3l1.2-2.6c.1-.2 0-.3-.1-.5s-.4-.4-.9-.6l-2.1-.9c-.4-.2-.8-.3-1-.3s-.4.1-.5.3l-1.2 2.6c-.1.2 0 .3.1.5s.4.4.9.6z"/><path d="m98.5 63.1c.1-.3.1-.5.2-.6s.3-.2.5-.1c.1 0 .2 0 .2.1 0 0 .1.1.1.2l3.5 6.3c0 .1.1.2.1.3v.3.2c0 .1 0 .1-.1.1l-.1.1s-.1 0-.2 0-.1 0-.2-.1c0 0-.1-.1-.2-.2l-3.1-5.7-1 4.7c0 .1-.1.2-.2.2s-.2 0-.3 0-.2-.1-.3-.1c-.1-.1-.1-.1-.1-.3z"/><path d="m96.4 71.2c.6-1.5 1.3-2 2.3-1.7l2.6 1c .9.4 1.1 1.3.5 2.8l-.9 2.2c-.6 1.5-1.3 2-2.3 1.7l-2.6-1c-.9-.4-1.1-1.3-.5-2.8zm0 2.5c-.2.4-.2.8-.2 1s .1.4.3.5l2.6 1c .2.1.3 0 .5-.1.2-.2.4-.5.5-.9l.8-2.1c.2-.4.2-.8.2-1s-.1-.4-.3-.5l-2.6-1c-.2-.1-.3 0-.5.1-.2.2-.4.4-.6.9z"/><path d="m90.9 81.6c0-.1.1-.1.1-.2l.1-.1s.1 0 .1-.1c.1 0 .1 0 .2-.1l6.2-2-3.5-2.2c-.1-.1-.2-.2-.2-.3s.1-.2.2-.4c.1-.1.2-.2.3-.3s.2 0 .3 0l4.3 2.7c.1.1.2.2.2.3s0 .2-.1.4c-.1.1-.2.3-.3.3-.1.1-.2.1-.4.2l-6.2 2 3.5 2.2c.1.1.2.2.2.3s-.1.2-.1.4c-.1.1-.2.3-.3.3-.1.1-.2 0-.3 0l-4.3-2.7c-.1-.1-.2-.2-.2-.3s.1-.2.2-.4z"/><path d="m86.5 88.9c-.7-.7-.6-1.6.5-2.8l3.1-3.4c.2-.2.3-.2.5 0l3.7 3.4c.2.2.2.3 0 .5l-3.1 3.4c-1.1 1.2-2 1.4-2.7.7zm3.7-5-2.6 2.8c-.3.3-.5.6-.6.9-.1.2 0 .4.1.5l2.1 1.9c.1.1.3.1.5.1.2-.1.5-.3.8-.6l2.6-2.8z"/><path d="m30.3 89.8c.2.2.4.4.4.5.1.2 0 .3-.1.5-.1.1-.1.1-.2.1s-.1 0-.2 0l-7.2-.1c-.1 0-.2 0-.3-.1s-.2-.1-.3-.2l-.1-.1-.1-.1s0-.1 0-.2 0-.1.1-.2.1-.1.2-.1h.3l6.5.1-3.6-3.2c-.1-.1-.1-.2-.1-.3s.1-.2.2-.3.2-.2.3-.2.2 0 .3.1z"/><path d="m24.4 83.9c1 1.2 1.1 2.2.3 2.8l-2.2 1.8c-.8.6-1.7.3-2.6-.9l-1.5-1.8c-1-1.2-1.1-2.2-.3-2.8l2.2-1.8c.8-.6 1.7-.3 2.6.9zm-2.2-1.3c-.3-.4-.6-.6-.8-.7s-.4-.1-.5 0l-2.2 1.8c-.1.1-.2.3-.1.5 0 .2.2.5.5.9l1.4 1.8c.3.4.6.6.8.7s.4.1.5 0l2.2-1.8c.1-.1.2-.3.1-.5 0-.2-.2-.6-.5-.9z"/><path d="m18 73.9c0 .1.1.1.1.2v.1.2.2l-1.4 6.4 3.6-1.9c.1-.1.2-.1.3 0s .2.2.3.3c.1.2.1.3.1.4s-.1.2-.2.3l-4.5 2.4c-.1.1-.2.1-.3 0s-.2-.1-.2-.3c-.1-.2-.1-.3-.1-.4s0-.2 0-.4l1.4-6.3-3.6 1.9c-.1.1-.2.1-.3 0s-.2-.2-.2-.3c-.1-.2-.1-.3-.1-.4s.1-.2.2-.3l4.5-2.4c.1-.1.2-.1.3 0 0 0 0 .1.1.3z"/><path d="m13.9 66.5c.9-.3 1.7.3 2.1 1.8l1.4 4.3c.1.2 0 .4-.2.5l-4.8 1.5c-.2.1-.4 0-.5-.2l-1.4-4.3c-.5-1.5-.2-2.4.7-2.7zm2.5 5.7-1.2-3.6c-.1-.4-.3-.8-.5-.9-.2-.2-.4-.2-.5-.2l-2.7.9c-.2.1-.3.2-.3.4s0 .6.1 1l1.2 3.6z"/></svg>