<svg enable-background="new 0 0 113.4 113.4" viewBox="0 0 113.4 113.4" xmlns="http://www.w3.org/2000/svg"><circle cx="56.9" cy="56.7" fill="#fff" r="56.2"/><path d="m56.6 113.4c-31.3 0-56.7-25.4-56.6-56.8 0-31.3 25.4-56.6 56.8-56.6 31.3 0 56.6 25.5 56.6 56.8-.1 31.2-25.5 56.6-56.8 56.6zm0-112.5c-30.9 0-55.9 25-55.9 55.9s24.9 55.8 55.8 55.9 56-24.9 56-55.8-25-56-55.9-56z" fill="#1a180d"/><path d="m56.6.9c30.9 0 55.9 25.1 55.9 56-.1 30.9-25.1 55.9-56 55.8s-55.8-25-55.8-55.9c-.1-30.9 25-55.9 55.9-55.9zm52.6 55.9c0-29.1-23.6-52.7-52.7-52.6-29.1-.1-52.7 23.5-52.6 52.6 0 29.1 23.6 52.7 52.7 52.6 29.1 0 52.6-23.6 52.6-52.6z" fill="#f9d600"/><path d="m109.2 56.8c0 29.1-23.5 52.7-52.6 52.7s-52.7-23.5-52.7-52.6 23.5-52.7 52.6-52.7c29.1-.1 52.7 23.5 52.7 52.6zm-23.2 27.6c14.6-15.4 14.9-40.8-1.3-56.6-16.2-15.7-42.3-15-57.5 1.3-15.6 16.7-13.6 41.4 0 55.3zm-23.4 12.1h5.6v1.9c.5.2.9.2 1.3 0 0-1 0-2 0-2.9-.1-.4-.7-.1-.8-.8 0-2.2 0-4.7 0-7.3-1.9 0-3.7 0-5.6 0 0 2.1 0 4.1-.4 6.1-.2.8-.3 1.7-1.4 1.9v3.1c.4.1.8.2 1.3-.1 0-.6 0-1.2 0-1.9zm-18.6-9.1v9h1.3c1.4-2.1 2.9-4.3 4.3-6.4.1 0 .2.1.3.1v6.2c.5.1.9.2 1.2 0 0-3 0-5.9 0-8.9-.5 0-.9 0-1.4 0-1.4 2.1-2.9 4.3-4.3 6.4-.1 0-.2-.1-.2-.1 0-2.1 0-4.2 0-6.3-.5 0-.8 0-1.2 0zm8.7-81.5c-.2 3.1-.3 6.1-.2 9.1 1 .3 1.8.2 2.7.2 1.6 0 2.8-.7 3.1-1.8.4-1.3 0-2.4-1.3-3.3 1.1-.7 1.5-1.7 1.1-2.8-.3-1-1.3-1.4-2.3-1.5s-2-.2-3.1.1zm42.5 34.5c2.8-1.4 5.5-2.8 8.4-4.2-.4-.4-.3-.9-.8-1.1-1.1.5-2.2 1-3.3 1.6-.6-1.3-1.2-2.4-1.8-3.7 1.1-.6 2.2-1.2 3.4-1.8-.4-.4-.3-.9-.8-1.1-2.7 1.4-5.4 2.7-8.2 4.2.3.4.3.9.8 1.1 1.2-.6 2.4-1.2 3.7-1.8.6 1.3 1.2 2.4 1.9 3.7-1.3.7-2.5 1.3-3.8 2 .1.3.3.7.5 1.1zm-47.9-24.6c-1.5-1.4-2.2-3.8-4.8-3.8.6-1.6 1.2-3.2 1.8-4.8-.7 0-1.1.2-1.6.4-.6 1.5-1.1 3.1-1.8 4.9-.5-1.5-.9-2.7-1.3-3.9-.5.1-.9.1-1.2.6.9 2.8 1.9 5.7 2.8 8.5.5 0 1-.1 1.3-.5-.4-1.2-.8-2.5-1.2-3.8 2.8-.9 3.2 1.8 4.6 2.8.5 0 .9-.1 1.4-.4zm-35.5 16.6c.7 1.5 1.4 3 2.1 4.6-1.5-.4-2.4-1.2-3.6-1.5-.3.3-.5.7-.5 1.2 2.7 1.4 5.4 2.7 8.1 4.1.4-.4.6-.7.5-1.3-1.2-.6-2.3-1.2-3.5-1.8 1.3-2.6 3.5-1.1 5.3-1.3.3-.4.5-.7.6-1.3-2 .1-4.1-1.1-6 .7-.7-1.6-1.4-3.1-2.1-4.8-.5.6-.7.9-.9 1.4zm27.7-13.9c-2.5-2.2-4.9-4.4-7.4-6.6-.5.3-.9.5-1.4.8.6 3.2 1.2 6.4 1.8 9.6.5-.3.9-.4 1.2-.8-.1-.9-.5-1.9-.4-2.9.9-.5 1.7-1 2.6-1.4.8.7 1.5 1.3 2.3 2 .5-.2.8-.4 1.3-.7zm-2.8 74.4c1.3-.2 2.6.1 3.8-.3 1.1-.4 1.8-1.5 1.7-2.7-.1-1.3-.9-2.4-2.1-2.4-1.6-.1-3.2 0-4.8 0v9c .5 0 .9.2 1.4-.2 0-1.1 0-2.2 0-3.4zm58.3-69.9c-3.1 1.2-6 2.4-9 3.6.2.5.5.8.9 1.1.9-.4 1.8-.7 2.7-1.1.7.8 1.3 1.6 2 2.3-.5.9-1 1.8-1.5 2.6.3.4.6.7.9 1.1 1.7-2.8 3.3-5.6 5-8.4-.3-.4-.6-.7-1-1.2zm-28.2-14.7c.1-.4.4-.7.1-1.2-1.6-.3-3.2-.5-4.9-.8-.5 3.1-1 6.1-1.6 9.2 1.8.3 3.5.6 5.2.9.2-.4.4-.8.1-1.2-1.2-.2-2.4-.4-3.7-.7.2-1 .4-2 .5-2.9 1.2.1 2.3.5 3.5.4 0-.4.2-.7-.1-1.1-1.1-.2-2.1-.4-3.2-.6.2-.9.3-1.7.4-2.6 1.3.2 2.5.4 3.7.6zm-40.6 19.7c-3.2-1.1-6.2-2.2-9.3-3.2-.4.5-.7.8-1 1.2 1.8 2.8 3.6 5.4 5.3 8.2.4-.4.7-.7.8-1.1-.5-.8-1.1-1.7-1.6-2.5.7-.8 1.3-1.6 1.9-2.4 1 .3 1.9.6 2.8 1 .4-.4.7-.7 1.1-1.2zm28.4 65.7c1.2 0 2.4-.1 3.5 0 .4 1 .7 1.9 1.1 2.7.5 0 1 .2 1.4-.1-1.2-3-2.4-6-3.6-8.9-.6 0-1 0-1.5 0-1.1 3-2.2 5.9-3.4 9 .6 0 1 .1 1.5-.1.4-.8.7-1.7 1-2.6zm28.2-6.3c-1.1 3-2.2 6-3.4 9 .6.1 1 .2 1.5 0 .3-.9.6-1.8 1-2.6h3.5c.4 1 .7 1.9 1.1 2.8.5-.1 1 .1 1.4-.2-1.2-3-2.4-5.9-3.6-8.9-.5-.1-1-.1-1.5-.1zm-48.7 9c-1.3-3.1-2.4-6.1-3.6-9-.5-.1-1-.1-1.6 0-1.1 2.9-2.2 5.9-3.3 8.9.6.1 1 .2 1.5 0 .3-.9.7-1.8 1-2.7h3.5c.4.9.7 1.8 1.1 2.8zm44.1 0c0-3 0-6 0-9-.5 0-.9-.2-1.3.2v3.4c-1.5 0-2.9 0-4.4 0 0-1.2 0-2.4 0-3.6-.5 0-.9 0-1.2 0v8.9c.4.1.8.1 1.3 0 0-1.3 0-2.7 0-4h4.5v4c .3.1.7.1 1.1.1zm1.7-75.6c-1.2-.6-2.2-1.2-3.4-1.9.5-.9 1-1.8 1.4-2.7 1.1.6 2.1 1.1 3 1.6.3-.3.6-.6.5-1-1-.5-1.9-1.1-2.9-1.6.4-.8.8-1.5 1.2-2.3 1.1.6 2.2 1.1 3.3 1.7.2-.4.5-.6.4-1.1-1.4-.8-2.9-1.5-4.4-2.3-1.5 2.8-2.9 5.5-4.4 8.2 1.6.9 3.1 1.7 4.6 2.4.5-.3.6-.6.7-1zm4.6.2c.6.5 1.1 1 1.8 1.3 1.5.6 2.8.2 3.7-1.1.7-1.1.6-2.4-.5-3.5-.7-.8-1.6-1.4-2.6-1.9-1.9 2.4-3.8 4.7-5.7 7.1.4.3.7.7 1.1.8.3-.4.7-.8 1-1.3.3-.4.7-.8 1.2-1.4zm-57.7 5.7c2.5-.7 4-2.5 3.7-4.3-.3-1.5-1.5-2.1-3.2-1.8-.1-2.2-.6-3.2-2-3.3-1.4-.2-2.9 1.2-3.5 3 .2.3.5.5.8.4.6-1 1.2-2.6 2.6-1.9 1.9 1 .5 2.2-.3 3.3.2.3.3.6.7.7 1-.6 2.1-1.9 3.1-.6 1.7 2.4-.8 2.7-2.2 3.7.1.2.2.5.3.8zm45.1-17c-.9 2.6-1.7 5.1-2.6 7.6.5.1.8.5 1.4.3.8-2.5 1.7-5 2.5-7.5.9.3 1.7.6 2.5.8.3-.4.4-.7.3-1.2-2.1-.7-4.3-1.4-6.4-2.1-.2.4-.5.7-.3 1.2 1 .3 1.8.6 2.6.9z" fill="#020201"/><path d="m86 84.4c-19.7 0-39.3 0-58.8 0-13.6-13.9-15.6-38.6 0-55.3 15.1-16.3 41.2-17 57.5-1.3 16.2 15.7 15.9 41.2 1.3 56.6zm-1-1.8c13.2-14.9 14.1-37.4-1.3-52.9-15.3-15.4-38.9-15.6-54.4-.1-15.4 15.4-14.7 38-1.3 53z" fill="#f6d300"/><path d="m62.6 96.5v1.8c-.5.3-.9.2-1.3.1 0-1.1 0-2 0-3.1 1-.1 1.2-1 1.4-1.9.5-2 .4-4 .4-6.1h5.6v7.3c.2.6.7.4.8.8v2.9c-.4.2-.8.2-1.3 0 0-.6 0-1.2 0-1.9-1.9.1-3.6.1-5.6.1zm4.7-1.3c0-2.2 0-4.3 0-6.5-1 0-1.9-.1-2.8.1-.1 1.1-.1 2.2-.2 3.3s-.5 2.1-.6 3.2c1.1-.1 2.3-.1 3.6-.1z" fill="#f1f1f1"/><path d="m44 87.4h1.1v6.3c.1 0 .2.1.2.1 1.4-2.1 2.9-4.3 4.3-6.4h1.4v8.9c-.3.2-.7.2-1.2 0 0-2.1 0-4.1 0-6.2-.1 0-.2-.1-.3-.1-1.4 2.1-2.8 4.2-4.3 6.4-.4 0-.8 0-1.3 0 .1-2.9.1-5.9.1-9z" fill="#f2f2f2"/><path d="m52.7 5.9c1.1-.3 2.1-.2 3.1-.1s1.9.5 2.2 1.5c.3 1.1 0 2.1-1.1 2.8 1.3.8 1.7 1.9 1.3 3.3-.3 1.1-1.5 1.8-3.1 1.8-.9 0-1.7.1-2.7-.2 0-3 .1-6.1.3-9.1zm1.3 4.9v3.2c2.2.1 3-.4 3-1.6-.1-1.1-1.1-1.7-3-1.6zm0-1.2c1 .1 2 .2 2.6-.7.3-.5.3-1.1-.1-1.5-.7-.7-1.6-.5-2.4-.4-.2.9-.3 1.7-.1 2.6z" fill="#efefef"/><path d="m95.2 40.4c-.2-.5-.4-.8-.7-1.2 1.3-.7 2.5-1.3 3.8-2-.6-1.3-1.2-2.4-1.9-3.7-1.3.6-2.5 1.2-3.7 1.8-.4-.2-.5-.7-.8-1.1 2.8-1.4 5.5-2.8 8.2-4.2.5.2.5.7.8 1.1-1.2.6-2.3 1.2-3.4 1.8.6 1.2 1.2 2.4 1.8 3.7 1.1-.5 2.2-1.1 3.3-1.6.5.2.4.7.8 1.1-2.7 1.5-5.4 2.9-8.2 4.3z" fill="#ededed"/><path d="m47.3 15.8c-.5.3-.9.5-1.4.5-1.4-1-1.9-3.7-4.6-2.8.4 1.3.8 2.6 1.2 3.8-.3.4-.7.5-1.3.5-.9-2.9-1.9-5.7-2.8-8.5.3-.5.8-.4 1.2-.6.4 1.2.8 2.4 1.3 3.9.7-1.8 1.2-3.4 1.8-4.9.4-.3.9-.4 1.6-.4-.6 1.6-1.2 3.2-1.8 4.8 2.6-.1 3.3 2.2 4.8 3.7z" fill="#efefef"/><path d="m11.8 32.4c.2-.4.5-.8.8-1.4.7 1.7 1.4 3.2 2.1 4.8 1.9-1.9 4-.7 6-.7 0 .6-.3 1-.6 1.3-1.8.2-3.9-1.3-5.3 1.3 1.2.6 2.4 1.2 3.5 1.8.1.5-.2.9-.5 1.3-2.7-1.4-5.4-2.7-8.1-4.1 0-.5.2-.9.5-1.2 1.2.4 2.1 1.2 3.6 1.5-.7-1.6-1.3-3.1-2-4.6z" fill="#efefef"/><path d="m39.5 18.5c-.5.3-.9.5-1.3.7-.8-.7-1.5-1.3-2.3-2-.8.5-1.7.9-2.6 1.4-.1 1 .4 2 .4 2.9-.3.4-.7.5-1.2.8-.6-3.2-1.2-6.4-1.8-9.6.5-.3.9-.5 1.4-.8 2.5 2.2 4.9 4.4 7.4 6.6zm-7.2-4.4c.3 1.3.5 2.3.8 3.5.7-.4 1.4-.8 2.1-1.2-1-.8-1.7-1.8-2.9-2.3z" fill="#f0f0f0"/><path d="m36.7 92.9v3.3c-.5.4-.9.2-1.4.2 0-3 0-5.9 0-9 1.6 0 3.2-.1 4.8 0 1.2.1 2 1.2 2.1 2.4.1 1.3-.6 2.3-1.7 2.7-1.3.6-2.6.2-3.8.4zm0-1.3c1.1 0 2 .1 3-.1.8-.2 1.1-.7 1.1-1.5-.1-.8-.5-1.3-1.3-1.4-.9 0-1.8-.1-2.7.1-.1 1-.1 1.9-.1 2.9z" fill="#efefef"/><path d="m95 23c .4.5.6.8 1 1.2-1.6 2.8-3.3 5.6-5 8.4-.4-.4-.6-.7-.9-1.1.5-.9 1-1.7 1.5-2.6-.6-.8-1.3-1.5-2-2.3-.9.4-1.8.7-2.7 1.1-.4-.3-.7-.5-.9-1.1 3-1.2 6-2.4 9-3.6zm-4.4 3.1c.6.7 1.1 1.3 1.6 1.9.6-1 1.2-2 1.7-3-.1-.1-.1-.1-.2-.2-.9.4-1.9.8-3.1 1.3z" fill="#f0f0f0"/><path d="m66.8 8.3c-1.2-.2-2.3-.4-3.6-.6-.1.8-.3 1.6-.4 2.6 1.1.2 2.2.4 3.2.6.3.4 0 .7.1 1.1-1.2.1-2.3-.3-3.5-.4-.2.9-.3 1.9-.5 2.9 1.3.2 2.5.5 3.7.7.3.4.1.8-.1 1.2-1.7-.3-3.4-.6-5.2-.9.5-3.1 1-6.1 1.6-9.2 1.7.3 3.3.6 4.9.8.2.4-.1.7-.2 1.2z" fill="#efefef"/><path d="m26.2 28c-.4.5-.6.8-.9 1.1-.9-.3-1.8-.6-2.8-1-.6.8-1.2 1.5-1.9 2.4.5.8 1.1 1.7 1.6 2.5-.1.4-.4.7-.8 1.1-1.8-2.7-3.5-5.4-5.3-8.2.3-.4.6-.8 1-1.2 2.9 1.2 5.9 2.2 9.1 3.3zm-6.4 1.7c.5-.7 1-1.3 1.5-2-1.2-.3-2.2-.9-3.5-1.1.8 1.2 1.4 2.1 2 3.1z" fill="#f1f1f1"/><path d="m54.6 93.7c-.3.9-.7 1.8-1 2.7-.5.2-.9.1-1.5.1 1.1-3 2.3-6 3.4-9h1.5c1.2 2.9 2.4 5.9 3.6 8.9-.5.3-.9.2-1.4.1-.3-.9-.7-1.7-1.1-2.7-1.1-.3-2.3-.2-3.5-.1zm1.7-4.9c-.5 1.3-.9 2.5-1.3 3.7h2.7c-.4-1.2-.9-2.4-1.4-3.7z" fill="#f2f2f2"/><path d="m82.8 87.4h1.5c1.2 2.9 2.4 5.9 3.6 8.9-.4.3-.9.1-1.4.2-.4-.9-.7-1.8-1.1-2.8-1.1 0-2.3 0-3.5 0-.3.9-.6 1.8-1 2.6-.5.2-.9.1-1.5 0 1.1-2.9 2.2-5.9 3.4-8.9zm.8 1.4c-.5 1.4-.9 2.5-1.3 3.7 1 .1 1.8.1 2.7 0-.5-1.3-.9-2.4-1.4-3.7z" fill="#f2f2f2"/><path d="m34.1 96.4c-.6 0-1 0-1.5 0-.4-.9-.7-1.8-1.1-2.8-1.2 0-2.3 0-3.5 0-.3.9-.7 1.8-1 2.7-.5.2-.9.1-1.5 0 1.1-3 2.2-5.9 3.3-8.9.5-.2 1-.1 1.6 0 1.2 3 2.4 5.9 3.7 9zm-5.7-3.9h2.7c-.4-1.2-.8-2.3-1.3-3.7-.6 1.4-1 2.5-1.4 3.7z" fill="#f1f1f1"/><path d="m78.2 96.4c-.4 0-.8 0-1.2 0 0-1.3 0-2.7 0-4-1.5 0-2.9 0-4.5 0v4c-.5.2-.8.1-1.3 0 0-3 0-5.9 0-8.9h1.2v3.6h4.4c0-1.1 0-2.3 0-3.4.5-.4.9-.2 1.3-.2.1 2.9.1 5.9.1 8.9z" fill="#fafafa"/><path d="m79.9 20.8c-.1.4-.2.7-.6 1-1.5-.8-3-1.6-4.6-2.4 1.5-2.8 2.9-5.4 4.4-8.2 1.5.8 3 1.6 4.4 2.3.1.5-.3.7-.4 1.1-1.1-.6-2.2-1.1-3.3-1.7-.4.8-.8 1.5-1.2 2.3 1 .6 2 1.1 2.9 1.6.1.5-.2.7-.5 1-1-.5-2-1-3-1.6-.5.9-.9 1.7-1.4 2.7 1.1.7 2.1 1.3 3.3 1.9z" fill="#f0f0f0"/><path d="m84.5 21c-.4.6-.8 1-1.2 1.4-.3.4-.7.8-1 1.3-.5-.1-.7-.4-1.1-.8 1.9-2.4 3.8-4.7 5.7-7.1 1.1.4 1.9 1.1 2.6 1.9 1.1 1.1 1.2 2.4.5 3.5-.9 1.3-2.2 1.7-3.7 1.1-.7-.3-1.3-.8-1.8-1.3zm4.6-1.4c-.3-1.1-1-1.7-1.9-2.1-.7.9-1.4 1.8-2.1 2.6 1.9 1.8 3.2 1.6 4-.5z" fill="#f1f1f1"/><path d="m26.8 26.7c-.1-.3-.3-.6-.4-.9 1.3-.9 3.9-1.3 2.2-3.7-1-1.3-2.1 0-3.1.6-.4-.1-.5-.4-.7-.7.9-1 2.2-2.3.3-3.3-1.4-.7-2 .9-2.6 1.9-.4 0-.6-.2-.8-.4.6-1.8 2.2-3.2 3.5-3s1.9 1.1 2 3.3c1.7-.3 2.9.4 3.2 1.8.5 1.9-1 3.7-3.6 4.4z" fill="#efefef"/><path d="m71.9 9.7c-.9-.3-1.7-.6-2.4-.9-.2-.4.1-.7.3-1.2 2.1.7 4.3 1.4 6.4 2.1 0 .5 0 .8-.3 1.2-.8-.3-1.6-.5-2.5-.8-.9 2.5-1.7 5-2.5 7.5-.5.2-.9-.2-1.4-.3.7-2.5 1.6-5 2.4-7.6z" fill="#f0f0f0"/><path d="m85 82.6c-19 0-38 0-57 0-13.4-15-14-37.6 1.3-53 15.6-15.5 39.2-15.3 54.5.1 15.4 15.5 14.5 38 1.2 52.9zm-17.1-38.6c-3.7-6.4-7.3-12.6-11-19-3.7 6.4-7.3 12.6-11 19h3.7c-3.2 5.5-6.3 10.9-9.5 16.4-1.1-1.9-2.1-3.6-3.2-5.5-3.7 6.4-7.3 12.6-10.9 18.9h21.9c-.6-1.1-1.2-2.1-1.8-3.1h21.4c-.6 1.1-1.2 2.1-1.8 3.1h21.8c-3.7-6.3-7.2-12.5-10.9-18.9-1.1 1.8-2 3.4-3.1 5.2-3.2-5.5-6.2-10.8-9.4-16.2 1.4.1 2.5.1 3.8.1z" fill="#010100"/><path d="m67.3 95.2c-1.3 0-2.4 0-3.7 0 .1-1.1.5-2.1.6-3.2s.1-2.1.2-3.3c.9-.2 1.9-.1 2.8-.1.1 2.2.1 4.3.1 6.6z" fill="#090909"/><path d="m54 10.8c2-.1 3 .5 3 1.6 0 1.2-.8 1.7-3 1.6 0-1 0-2.1 0-3.2z" fill="#030303"/><path d="m54 9.6c-.2-.9-.1-1.7.1-2.6.9-.1 1.7-.3 2.4.4.4.4.4 1 .1 1.5-.6.9-1.6.8-2.6.7z" fill="#0a0a0a"/><path d="m32.3 14.1c1.2.5 1.9 1.5 2.9 2.3-.7.4-1.3.8-2.1 1.2-.3-1.2-.5-2.2-.8-3.5z" fill="#0d0d0d"/><path d="m36.7 91.6c0-1 0-1.9 0-2.9.9-.2 1.8-.1 2.7-.1.8 0 1.3.5 1.3 1.4 0 .8-.3 1.3-1.1 1.5-.9.2-1.9.1-2.9.1z" fill="#020201"/><path d="m90.6 26.1c1.2-.5 2.2-.9 3.2-1.3.1.1.1.1.2.2-.6 1-1.1 1.9-1.7 3-.6-.6-1.1-1.2-1.7-1.9z" fill="#101010"/><path d="m19.8 29.7c-.7-1-1.3-1.9-2-3 1.3.2 2.3.8 3.5 1.1-.5.6-.9 1.2-1.5 1.9z" fill="#0a0a0a"/><path d="m56.3 88.8c.5 1.3.9 2.5 1.4 3.7-.9 0-1.7 0-2.7 0 .5-1.2.9-2.4 1.3-3.7z" fill="#141414"/><path d="m83.6 88.8c.5 1.3.9 2.4 1.4 3.7-.9.2-1.7.1-2.7 0 .4-1.2.8-2.3 1.3-3.7z" fill="#151515"/><path d="m28.4 92.5c.4-1.2.8-2.3 1.4-3.7.5 1.4.9 2.5 1.3 3.7-1 0-1.8 0-2.7 0z" fill="#151515"/><path d="m89.1 19.6c-.8 2.1-2.1 2.3-3.9.5.7-.9 1.4-1.7 2.1-2.6.9.4 1.6 1 1.8 2.1z" fill="#070707"/><path d="m67.9 44c-1.4 0-2.4 0-3.7 0 3.2 5.4 6.2 10.7 9.4 16.2 1-1.8 2-3.4 3.1-5.2 3.7 6.3 7.3 12.5 10.9 18.9-7.3 0-14.5 0-21.8 0 .6-1 1.1-2 1.8-3.1-7.2 0-14.2 0-21.4 0 .6 1.1 1.2 2 1.8 3.1-7.3 0-14.5 0-21.9 0 3.6-6.3 7.2-12.5 10.9-18.9 1.1 1.9 2.1 3.6 3.2 5.5 3.2-5.5 6.3-10.9 9.5-16.4-1.3 0-2.4 0-3.7 0 3.7-6.4 7.3-12.6 11-19 3.6 6.2 7.2 12.4 10.9 18.9zm-2.2 8.2c-5.9 0-11.7 0-17.6 0 2.9 5.1 5.8 10 8.8 15.2 3-5.1 5.9-10.1 8.8-15.2z" fill="#fcd800"/><path d="m65.7 52.2c-2.9 5.1-5.8 10-8.8 15.2-3-5.1-5.8-10.1-8.8-15.2z" fill="#010100"/></svg>