<svg viewBox="0 0 566.93 566.93" xmlns="http://www.w3.org/2000/svg"><path d="m283.46 550.26a266.8 266.8 0 0 1 -188.65-455.45 266.79 266.79 0 1 1 377.3 377.3 265 265 0 0 1 -188.65 78.15z" fill="#185285"/><path d="m283.46 19.17a264.36 264.36 0 0 1 102.88 507.83 264.36 264.36 0 0 1 -205.75-487 262.63 262.63 0 0 1 102.87-20.83m0-5c-148.72 0-269.29 120.57-269.29 269.29s120.57 269.3 269.29 269.3 269.3-120.57 269.3-269.3-120.57-269.29-269.3-269.29z" fill="#02223d"/><g fill="#f6f6f6"><path d="m70.19 419.21-2.88-4.89 7.55-4.45-1.94-3.29 4.43-2.58 1.94 3.3 6.86-4-2.62-4.45-19.73 9.51-2.8-4.81 24.32-11.92 8.17 13.87z"/><path d="m106.52 423.76-21.8 15.95-3.35-4.58 3-2.23-10.74-7.36 22.24-16.26 3.32 4.53-16.55 12.19 5.63 4.12 14.9-10.89z"/><path d="m114.17 440.44-2.28-2.62-16.47 14.39-3.7-4.21 16.47-14.38-3.82-4.37 3.87-3.39 9.8 11.22z"/><path d="m133.16 451.93-18.75 19.44-13-12.5 18.75-19.43zm-19.27 11.82 11.62-12.06-4.79-4.62-11.62 12.05z"/><path d="m151 465.62-17.08 21.59-4.45-3.52 12.77-16.13-6.53-2.48-11.46 14.48-4.41-3.49 16.76-21.18 4.41 3.49-2.34 3z"/><path d="m169.38 478.33-14.59 22.72-15.15-9.72 14.6-22.72zm-16.6 15.35 9.05-14.08-5.6-3.6-9 14.08z"/><path d="m200.61 493.35-11.84 24.86-5.12-2.44 8.84-18.57-7-1-7.94 16.66-5.12-2.44 8.84-18.57-7-1-7.94 16.66-5.12-2.44 11.61-24.38 5.12 2.44-1.62 3.41 13.08 1.46-1.85 3.89z"/><path d="m221.52 500.63-8.43 25.66-17.09-5.62 8.42-25.67zm-12.22 19 5.23-15.91-6.33-2.08-5.2 15.94z"/><path d="m243.35 505.68-5.82 26.37-5.53-1.22.82-3.69-12.93 1.58 5.94-26.91 5.49 1.21-4.43 20.09 7-.63 4-18z"/><path d="m252.37 512.14-.4 3.29 10 4.14-1.92 15.55-16-2 .63-5.08 10.36 1.28.83-6.72-10-4.14 1.5-12.14 16 2-.63 5.1z"/><path d="m293.94 536h-5.67l-.06-8.76h-3.83v-5.14h3.83l-.06-8h-5.17l-1.59 21.87h-5.58l1.86-27 16.11-.12z"/><path d="m306.09 529.92 6.62-.69-1.34-12.81 5.64-.59 2.81 26.86-5.64.59-.93-9-12.25 1.32-2.82-26.85 17.94-1.88.54 5.11-12.3 1.29z"/><path d="m326.84 510.09.74 3.79 8.18-1.59.93 4.81-8.17 1.59 1.52 7.83 8.18-1.59 1 5-13.74 2.67-5.17-26.5 13.69-2.65 1 5.05z"/><path d="m354.87 497.12 7.65 26.45-5.45 1.58-5.71-19.76-5.81 3.88 5.12 17.73-5.4 1.56-7.5-25.94 5.4-1.57 1.05 3.63z"/><path d="m373.24 496.19-3.24 1.25 7.85 20.4-5.25 2-7.85-20.4-5.41 2.08-1.85-4.8 13.9-5.35z"/><path d="m398.07 478.06 12.75 23.81-15.82 8.49-12.75-23.8zm5.34 22-7.91-14.76-5.87 3.15 7.91 14.75z"/><path d="m409.44 476.85 4.34 6.61 7-4.57 2.82 4.3-7 4.57 4.83 7.37-4.74 3.11-14.81-22.58 11.7-7.68 2.82 4.3z"/><path d="m430.83 461.06 10.75 12.84 6.38-5.35 3.29 3.93-10.73 9-17.34-20.7 10.73-9 3.3 3.94z"/><path d="m449.15 436.83 19.1 19.09-4 4-9.41-9.42-4.71 4.71 9.42 9.41-4 4-19.1-19.09 4-4 6 6 4.71-4.71-6-6.05z"/><path d="m484.11 437-3.55 4.42-6.83-5.5-2.4 3-4-3.22 2.4-3-6.2-5-3.23 4 15.93 15.07-3.5 4.35-19.73-18.49 10.1-12.55z"/><path d="m475.91 401.58 22.41 15.07-10 14.93-22.41-15.06zm15 16.91-13.91-9.34-3.71 5.53 13.9 9.32z"/><path d="m485.14 395.67 2.91 1.59 7.52-7.8 13.76 7.48-7.69 14.15-4.5-2.44 5-9.17-5.95-3.23-7.52 7.75-10.76-5.84 7.7-14.15 4.51 2.45z"/><path d="m322.49 314.39c-13 57.72-26.24 114.6-39 171.42-12.79-56.82-26-113.65-39-171.37 26.01 19.56 51.56 19.71 78-.05z" stroke="#f6f6f6" stroke-miterlimit="10" stroke-width="7"/><path d="m307.08 122.14c17.42 4 33.18 10.62 47 21.43 1.56 1.22 2.9.86 4.59 0 14.93-7.55 29.92-15 45.1-22.54.23 4-2.43 6.84-3.74 10-5.26 12.9-11 25.6-16.82 38.27-1 2.16-.74 3.11.62 5.08a144.19 144.19 0 0 1 16.55 32.62c2.72 7.42 4.1 15.13 6.19 23.05-7.16-2.43-14-4.72-20.85-7.1-2.62-.91-3.3-3.38-4-5.68-2.5-8.16-6.46-15.64-10.76-22.95a5.77 5.77 0 0 0 -5.88-3.28c-7.23.38-14.5 0-21.75.18-2.7.07-3.55-.63-3.47-3.43.2-7.39 0-14.8.09-22.2 0-2.3-.39-3.77-2.65-5.32a76.81 76.81 0 0 0 -17.72-8.89 6.39 6.39 0 0 1 -4.48-4.38c-2.69-8.19-5.29-16.37-8.02-24.86z" stroke="#f6f6f6" stroke-miterlimit="10" stroke-width="7"/><path d="m163 121c15.3 7.62 30.16 15 45 22.46 1.79.9 3.17 1.42 5 0 13.85-10.73 29.54-17.44 47-21.34-3.05 9.05-6.07 17.8-8.89 26.62-.57 1.79-1.87 1.91-3.15 2.41-6.44 2.53-12.74 5.24-18.45 9.32-1.85 1.33-2.53 2.38-2.5 4.48.08 7.7-.07 15.4.09 23.1.05 2.56-.79 3.21-3.25 3.16-7.25-.15-14.52.15-21.76-.15-3.08-.12-4.71 1-6.18 3.47a101.59 101.59 0 0 0 -10.61 22.57c-1.05 3.41-2.7 5.63-6.35 6.65-6 1.68-11.93 3.84-18.32 5.94 4-20.8 11.26-39.6 23.43-56.33 1.26-1.73.22-2.51-.3-3.68q-10.31-23.27-20.59-46.53a7.46 7.46 0 0 1 -.17-2.15z" stroke="#f6f6f6" stroke-miterlimit="10" stroke-width="7"/><path d="m226.06 257.45c-.2-21.46 6.53-38 20.35-51.34 19.44-18.74 48.79-20.37 69.71-3.64 13.52 10.81 21.35 24.71 23.87 41.83 2.59 17.63.35 34.41-10 49.1-12.8 18.2-30.4 28.18-53.17 25.62-14.48-1.62-26.1-9.21-35.69-20.3a62.41 62.41 0 0 1 -13.58-27.34 53.07 53.07 0 0 1 -1.49-13.93zm103.23-3c1.54-16.29-10.6-36.12-23.34-43.62-15.56-9.15-34.85-9.07-49.66 2.52-16.61 13-22.43 31.38-19.15 51.65 2.37 14.65 10.19 27 23.53 35a43.19 43.19 0 0 0 49.6-3.35c12.94-10.56 19.55-24.71 19.02-42.24z" stroke="#f6f6f6" stroke-miterlimit="10" stroke-width="7"/><path d="m406.35 281.15a148.05 148.05 0 0 1 -7.67 27.36 125.18 125.18 0 0 1 -15.38 28.86c-1.4 1.93-1.25 3-.39 4.86 7.06 15.58 14 31.22 20.94 46.85a6.42 6.42 0 0 1 0 2.06c-15.24-7.6-30.2-15-45.06-22.55-2.53-1.29-3.94-1.19-6.47.57-10.53 7.34-21.79 13.33-34.23 17-2.95.87-2.41-.69-2.13-1.94 1.65-7.43 3.53-14.81 5.17-22.24a3.37 3.37 0 0 1 2.61-2.94 60.19 60.19 0 0 0 9.36-4.44c4.56-2.57 7.88-5.54 7-11.9-.87-6.1-.06-12.42-.24-18.64-.08-2.58.79-3.22 3.25-3.17 7.55.14 15.11-.07 22.66.12a4.45 4.45 0 0 0 4.52-2.4c4.33-7.29 8.82-14.45 10.69-22.91 1-4.4 3.25-7.48 8.23-8.68 5.79-1.38 11.31-3.81 17.14-5.87z" stroke="#f6f6f6" stroke-miterlimit="10" stroke-width="7"/><path d="m163.07 391.16c0-4.14 2.54-7 3.87-10.24 5.46-13.12 11.49-26 17.24-39 .51-1.16 1.41-2.12.08-3.84-7.93-10.21-13.23-21.84-17.69-33.91a137.37 137.37 0 0 1 -5.86-22.63c7.4 2.52 14.79 4.66 21.83 7.63 2.53 1.07 2.78 4.8 3.56 7.52 2.38 8.38 6.58 15.82 11.34 23.05 1.06 1.61 2.16 1.2 3.32 1.21 7.7.06 15.4.13 23.09 0 2.49-.05 3.28.63 3.22 3.17-.16 7.7 0 15.4-.09 23.09 0 2.11.67 3.18 2.5 4.5a52.51 52.51 0 0 0 12.87 7 5.74 5.74 0 0 1 4.08 4.87c1.24 6.8 2.82 13.51 4.47 20.22.39 1.61.93 3.31-2.47 2.28a118 118 0 0 1 -34.15-17.13c-2.24-1.58-3.55-1.69-5.75-.57-15.02 7.56-30.09 15.08-45.46 22.78z" stroke="#f6f6f6" stroke-miterlimit="10" stroke-width="7"/><path d="m224 293.4-111.49-37.78 111.43-37.79c-10.5 25.17-10.55 50.23.06 75.57z" stroke="#f6f6f6" stroke-miterlimit="10" stroke-width="7"/><path d="m343 217.82 111.46 37.8-111.46 37.79c10.49-25.2 10.56-50.24 0-75.59z" stroke="#f6f6f6" stroke-miterlimit="10" stroke-width="7"/><path d="m283.46 81.11c12.81 37.75 25.26 74.47 38.07 112.22-12-8.24-23.78-13.89-38-13.89s-26.18 5.56-38.15 14c12.79-37.75 25.25-74.5 38.08-112.33z" stroke="#f6f6f6" stroke-miterlimit="10" stroke-width="7"/><path d="m247.48 254.55c-1.36-9.83 2.58-19.35 9.58-26.89 12.82-13.8 30.31-17.86 47-5.16 10.61 8.07 15.36 18.79 15.59 32.27.19 11.25-2.56 21.27-10.11 29.14-13.25 13.83-30.45 17.17-46.7 4.84-10.92-8.29-16.11-19.39-15.36-34.2z" stroke="#f6f6f6" stroke-miterlimit="10" stroke-width="7"/><path d="m166.4 66.59 13.6 23.31-14 8.2-15.33-22.32 4.86-2.84 12.47 18.06 4.54-2.65-11.04-18.9z"/><path d="m179.83 60 11.73 24.33-8 3.86-2.22-4.61 2.91-1.4-7.25-15.09-2.91 1.41-2.23-4.64z"/><path d="m193.31 59.81 6.2 15.55 7.74-3.08 1.89 4.72-13 5.19-10-25.09 13-5.18 1.9 4.78z"/><path d="m218.43 51.17-3.32 1 6.51 20.87-5.37 1.68-6.51-20.88-5.53 1.73-1.54-4.91 14.23-4.43z"/><path d="m240 40.9 5.74 26.39-17.59 3.82-5.75-26.38zm-.89 22.59-3.56-16.36-6.55 1.42 3.55 16.36z"/><path d="m268.31 63.24-4.9 2.6-7.12-13.54 4-.46-.95-8.31-5.94.68 2.49 21.72-5.63.64-3.08-26.82 17.21-2 2 17.4-2.36.27z"/><path d="m312.05 37.81-1.47 27.49-5.66-.3 1.08-20.53-6.85 1.74-1 18.43-5.67-.3 1.1-20.53-6.85 1.74-1 18.43-5.66-.3 1.43-27 5.66.3-.2 3.77 12.63-3.64-.23 4.3z"/><path d="m324.28 45.76-.67 3.81 8.21 1.43-.82 4.84-8.2-1.44-1.38 7.86 8.2 1.43-.88 5-13.79-2.42 4.66-26.6 13.79 2.42-.89 5.06z"/><path d="m343.15 49.77-.85 3.23 9.34 5.47-4 15.14-15.64-4.18 1.32-4.94 10.08 2.69 1.75-6.54-9.35-5.47 3.2-11.83 15.56 4.15-1.32 5z"/><path d="m364.28 56.22-1.15 3.11 8.8 6.31-5.42 14.7-15.11-5.57 1.77-4.8 9.83 3.61 2.34-6.35-8.8-6.31 4.23-11.48 15.08 5.56-1.78 4.83z"/><path d="m385.1 64.77-1.65 3.5 7.55 3.55-2.08 4.43-7.54-3.54-3.38 7.21 7.54 3.55-2.18 4.63-12.67-6 11.51-24.43 12.66 6-2.19 4.65z"/><path d="m403.25 98.06-5.48-.86 2.43-15.1 3.45 2 4.23-7.23-5.16-3-11 18.87-4.89-2.86 13.64-23.31 14.94 8.75-8.85 15.11-2-1.2z"/></g><path d="m322.49 314.4c-13 57.71-25.77 114.53-38.56 171.36l-.91.06c-12.79-56.82-25.59-113.66-38.58-171.38 26.06 19.56 51.61 19.71 78.05-.04z" fill="#9e151a"/><path d="m307.08 122.15c17.42 4 33.18 10.62 47 21.43 1.56 1.22 2.9.86 4.59 0 14.93-7.54 29.92-15 45.1-22.53.23 4-2.43 6.83-3.74 10-5.26 12.89-11 25.6-16.82 38.27-1 2.16-.74 3.1.62 5.07a144.19 144.19 0 0 1 16.55 32.61c2.72 7.42 4.1 15.13 6.19 23.06-7.16-2.44-14-4.72-20.85-7.1-2.62-.92-3.3-3.39-4-5.69-2.5-8.16-6.46-15.64-10.76-22.94a5.78 5.78 0 0 0 -5.88-3.29c-7.23.38-14.5 0-21.75.18-2.7.07-3.55-.63-3.47-3.42.2-7.4 0-14.8.09-22.2 0-2.31-.39-3.78-2.65-5.33a77.21 77.21 0 0 0 -17.72-8.89 6.37 6.37 0 0 1 -4.48-4.38c-2.69-8.19-5.29-16.36-8.02-24.85z" fill="#9e151a"/><path d="m163 121c15.3 7.61 30.16 15 45 22.45 1.79.9 3.17 1.43 5 0 13.85-10.73 29.54-17.45 47-21.35-3.05 9.06-6.07 17.8-8.89 26.62-.57 1.8-1.87 1.92-3.15 2.42-6.44 2.52-12.74 5.23-18.45 9.32-1.85 1.32-2.53 2.37-2.5 4.48.08 7.69-.07 15.4.09 23.09.05 2.56-.79 3.22-3.25 3.16-7.25-.15-14.52.15-21.76-.14-3.08-.13-4.71 1-6.18 3.46a101.8 101.8 0 0 0 -10.61 22.59c-1.05 3.41-2.7 5.63-6.35 6.65-6 1.69-11.93 3.84-18.32 5.94 4-20.8 11.26-39.59 23.43-56.32 1.26-1.74.22-2.52-.3-3.69q-10.31-23.27-20.59-46.53a7.35 7.35 0 0 1 -.17-2.15z" fill="#9e151a"/><path d="m226.06 257.45c-.2-21.46 6.53-38 20.35-51.34 19.44-18.74 48.79-20.37 69.71-3.64 13.52 10.82 21.35 24.72 23.87 41.84 2.59 17.62.35 34.4-10 49.09-12.8 18.2-30.4 28.18-53.17 25.62-14.48-1.62-26.1-9.21-35.69-20.3a62.36 62.36 0 0 1 -13.58-27.34 53 53 0 0 1 -1.49-13.93zm103.23-3c1.54-16.28-10.6-36.12-23.34-43.62-15.56-9.15-34.85-9.07-49.66 2.52-16.61 13-22.43 31.38-19.15 51.65 2.37 14.65 10.19 27 23.53 35a43.17 43.17 0 0 0 49.6-3.35c12.94-10.56 19.55-24.71 19.02-42.24z" fill="#9e151a"/><path d="m406.35 281.16a148.17 148.17 0 0 1 -7.67 27.35 125.18 125.18 0 0 1 -15.38 28.86c-1.4 1.93-1.25 3-.39 4.87 7.06 15.57 14 31.21 20.94 46.84a6.42 6.42 0 0 1 0 2.06c-15.24-7.6-30.2-15-45.06-22.55-2.53-1.29-3.94-1.19-6.47.57-10.53 7.34-21.79 13.33-34.23 17-2.95.88-2.41-.69-2.13-1.94 1.65-7.43 3.53-14.8 5.17-22.23a3.36 3.36 0 0 1 2.61-2.94 62.06 62.06 0 0 0 9.36-4.44c4.56-2.57 7.88-5.54 7-11.91-.87-6.1-.06-12.42-.24-18.64-.08-2.58.79-3.22 3.25-3.17 7.55.14 15.11-.07 22.66.13a4.47 4.47 0 0 0 4.52-2.41c4.33-7.28 8.82-14.45 10.69-22.91 1-4.39 3.25-7.48 8.23-8.68 5.79-1.37 11.31-3.81 17.14-5.86z" fill="#9e151a"/><path d="m163.07 391.16c0-4.14 2.54-7 3.87-10.24 5.46-13.12 11.49-26 17.24-39 .51-1.15 1.41-2.11.08-3.84-7.93-10.21-13.23-21.84-17.69-33.9a137.49 137.49 0 0 1 -5.86-22.64c7.4 2.52 14.79 4.66 21.83 7.63 2.53 1.07 2.78 4.8 3.56 7.52 2.38 8.38 6.58 15.83 11.34 23.05 1.06 1.62 2.16 1.2 3.32 1.21 7.7.06 15.4.13 23.09 0 2.49-.05 3.28.63 3.22 3.17-.16 7.7 0 15.4-.09 23.1 0 2.11.67 3.17 2.5 4.5a52.47 52.47 0 0 0 12.87 7 5.74 5.74 0 0 1 4.08 4.88c1.24 6.8 2.82 13.51 4.47 20.21.39 1.62.93 3.31-2.47 2.28a117.74 117.74 0 0 1 -34.15-17.12c-2.24-1.59-3.55-1.7-5.75-.58-15.02 7.61-30.09 15.07-45.46 22.77z" fill="#9e151a"/><path d="m224 293.41-111.49-37.78 111.43-37.79c-10.5 25.16-10.55 50.22.06 75.57z" fill="#9e151a"/><path d="m343 217.82 111.46 37.8-111.46 37.79c10.49-25.2 10.56-50.23 0-75.59z" fill="#9e151a"/><path d="m283.46 81.11c12.81 37.76 25.26 74.47 38.07 112.22-12-8.24-23.78-13.88-38-13.89s-26.18 5.57-38.15 14c12.79-37.74 25.25-74.5 38.08-112.33z" fill="#9e151a"/><path d="m247.48 254.55c-1.36-9.83 2.58-19.34 9.58-26.88 12.82-13.81 30.31-17.87 47-5.16 10.61 8.06 15.36 18.79 15.59 32.27.19 11.24-2.56 21.26-10.11 29.14-13.25 13.82-30.45 17.16-46.7 4.84-10.92-8.3-16.11-19.39-15.36-34.21z" fill="#9e151a"/></svg>