<?xml version="1.0" encoding="UTF-8"?><svg xmlns="http://www.w3.org/2000/svg" viewBox="0 0 566.93 566.93"><defs><style>.cls-1{fill:#fff;}.cls-2{fill:#35495e;}.cls-3,.cls-4,.cls-5{fill:#f1c410;}.cls-4{font-size:44.19px;}.cls-4,.cls-5{font-family:Tahoma-Bold, Tahoma;font-weight:700;}.cls-5{font-size:44.18px;}.cls-6{fill:#f1c412;}</style></defs><g id="Capa_1"><g><path class="cls-2" d="m283.46,553.27c-72.07,0-139.82-28.06-190.78-79.02S13.66,355.53,13.66,283.46s28.06-139.82,79.02-190.78S211.4,13.66,283.46,13.66h.91c71.88.25,139.42,28.42,190.17,79.33,50.77,50.92,78.73,118.57,78.73,190.48s-27.96,139.56-78.73,190.48c-50.75,50.91-118.29,79.08-190.17,79.32h-.91Z"/><path class="cls-6" d="m283.46,16.66c.3,0,.6.01.9.01,146.94.49,265.91,119.74,265.91,266.79s-118.97,266.31-265.91,266.79c-.3,0-.6.01-.9.01-147.35,0-266.81-119.45-266.81-266.81S136.11,16.66,283.46,16.66m0-6c-36.83,0-72.55,7.21-106.19,21.44-32.49,13.74-61.66,33.41-86.71,58.46-25.05,25.05-44.72,54.23-58.46,86.71-14.23,33.64-21.44,69.36-21.44,106.19s7.21,72.55,21.44,106.19c13.74,32.49,33.41,61.66,58.46,86.71,25.05,25.05,54.23,44.72,86.71,58.46,33.64,14.23,69.36,21.44,106.19,21.44.19,0,.39,0,.58,0,.11,0,.22,0,.34,0,36.73-.12,72.35-7.42,105.87-21.69,32.38-13.79,61.46-33.47,86.42-58.51,24.96-25.04,44.56-54.18,58.25-86.61,14.17-33.58,21.36-69.24,21.36-105.99s-7.19-72.41-21.36-105.99c-13.69-32.43-33.28-61.57-58.25-86.61-24.96-25.03-54.03-44.72-86.42-58.51-33.52-14.27-69.14-21.57-105.87-21.69-.11,0-.22,0-.34,0-.19,0-.39,0-.58,0h0Z"/></g><path class="cls-3" d="m480.9,86.03c52.74,52.74,81.78,122.86,81.78,197.43s-29.04,144.7-81.78,197.43c-52.74,52.74-122.85,81.78-197.43,81.78s-144.69-29.04-197.43-81.78C33.29,428.16,4.25,358.05,4.25,283.46s29.04-144.69,81.78-197.43C138.77,33.3,208.89,4.26,283.46,4.26s144.69,29.04,197.43,81.77Zm75.79,197.43c0-150.65-122.57-273.21-273.22-273.21S10.24,132.81,10.24,283.46s122.57,273.22,273.22,273.22,273.22-122.56,273.22-273.22Z"/><text class="cls-4" transform="translate(100.14 363.63) rotate(-108.19)"><tspan x="0" y="0">M</tspan></text><text class="cls-4" transform="translate(88.38 327.27) rotate(-98.45)"><tspan x="0" y="0">U</tspan></text><text class="cls-4" transform="translate(83.92 296) rotate(-90.57)"><tspan x="0" y="0">L</tspan></text><text class="cls-4" transform="translate(83.56 271.65) rotate(-83.45)"><tspan x="0" y="0">T</tspan></text><text class="cls-4" transform="translate(86.67 245.65) rotate(-76.85)"><tspan x="0" y="0">I</tspan></text><text class="cls-4" transform="translate(91.04 225.68) rotate(-70)"><tspan x="0" y="0">P</tspan></text><text class="cls-4" transform="translate(100.41 199.32) rotate(-61.54)"><tspan x="0" y="0">U</tspan></text><text class="cls-4" transform="translate(115.35 171.59) rotate(-52.58)"><tspan x="0" y="0">R</tspan></text><text class="cls-4" transform="translate(134.19 147.02) rotate(-44.03)"><tspan x="0" y="0">P</tspan></text><text class="cls-4" transform="translate(154.06 127.42) rotate(-35.14)"><tspan x="0" y="0">O</tspan></text><text class="cls-4" transform="translate(181.03 108.63) rotate(-26.45)"><tspan x="0" y="0">S</tspan></text><text class="cls-4" transform="translate(205.17 96.57) rotate(-18.81)"><tspan x="0" y="0">E</tspan></text><text class="cls-4" transform="translate(230.29 88.34) rotate(-13.18)"><tspan x="0" y="0"> </tspan></text><text class="cls-4" transform="translate(242.04 85.16) rotate(-7.42)"><tspan x="0" y="0">S</tspan></text><text class="cls-4" transform="translate(268.79 81.64) rotate(.34)"><tspan x="0" y="0">E</tspan></text><text class="cls-4" transform="translate(294.95 81.65) rotate(8.25)"><tspan x="0" y="0">C</tspan></text><text class="cls-4" transform="translate(323.09 85.54) rotate(16.83)"><tspan x="0" y="0">U</tspan></text><text class="cls-4" transform="translate(353.25 94.6) rotate(25.67)"><tspan x="0" y="0">R</tspan></text><text class="cls-4" transform="translate(381.17 108.33) rotate(32.95)"><tspan x="0" y="0">I</tspan></text><text class="cls-4" transform="translate(398.47 119.29) rotate(39.53)"><tspan x="0" y="0">T</tspan></text><text class="cls-4" transform="translate(418.68 135.77) rotate(47.25)"><tspan x="0" y="0">Y</tspan></text><text class="cls-4" transform="translate(437.95 157.18) rotate(53.04)"><tspan x="0" y="0"> </tspan></text><text class="cls-4" transform="translate(445.66 166.63) rotate(58.88)"><tspan x="0" y="0">B</tspan></text><text class="cls-4" transform="translate(460.94 191.51) rotate(67.5)"><tspan x="0" y="0">R</tspan></text><text class="cls-4" transform="translate(472.69 220.39) rotate(74.32)"><tspan x="0" y="0">I</tspan></text><text class="cls-4" transform="translate(478.63 239.96) rotate(81.68)"><tspan x="0" y="0">G</tspan></text><text class="cls-4" transform="translate(483.22 271.41) rotate(90.27)"><tspan x="0" y="0">A</tspan></text><text class="cls-4" transform="translate(483.28 300.56) rotate(98.94)"><tspan x="0" y="0">D</tspan></text><text class="cls-4" transform="translate(478.11 332.5) rotate(107.19)"><tspan x="0" y="0">E</tspan></text><text class="cls-5" transform="translate(193.1 492.89) rotate(19.82)"><tspan x="0" y="0">V</tspan></text><text class="cls-5" transform="translate(223.39 503.4) rotate(13.01)"><tspan x="0" y="0">I</tspan></text><text class="cls-5" transform="translate(246.62 509) rotate(5.63)"><tspan x="0" y="0">D</tspan></text><text class="cls-5" transform="translate(283.01 512.36) rotate(-3.46)"><tspan x="0" y="0">O</tspan></text><text class="cls-5" transform="translate(319.82 509.75) rotate(-12.02)"><tspan x="0" y="0">C</tspan></text><text class="cls-5" transform="translate(351.5 502.95) rotate(-20.58)"><tspan x="0" y="0">Q</tspan></text><path class="cls-1" d="m462.92,104.01c47.94,47.94,74.33,111.67,74.33,179.45s-26.4,131.53-74.33,179.45c-47.94,47.94-111.66,74.33-179.45,74.33s-131.52-26.4-179.45-74.33c-47.94-47.93-74.33-111.66-74.33-179.45s26.4-131.52,74.33-179.45c47.94-47.93,111.67-74.33,179.45-74.33s131.52,26.4,179.45,74.33Zm68.88,179.45c0-136.93-111.41-248.33-248.34-248.33S35.12,146.53,35.12,283.46s111.41,248.34,248.34,248.34,248.34-111.4,248.34-248.34Z"/></g><g id="Capa_2"><g><polygon class="cls-1" points="134.95 167.37 244.16 223.21 244.16 255.58 192.52 225.92 283.48 390.33 283.46 445.36 134.95 167.37"/><polygon class="cls-1" points="236.89 264.96 270.71 282.25 270.71 291.11 255.72 283.15 283.48 334.02 283.48 351.04 236.89 264.96"/><polygon class="cls-1" points="146.12 214.94 250.78 410.61 146.12 327.05 146.12 214.94"/><polygon class="cls-1" points="431.98 167.37 322.76 223.21 322.76 255.58 374.41 225.92 283.48 390.33 283.46 445.36 431.98 167.37"/><polygon class="cls-1" points="330.04 264.96 296.22 282.25 296.22 291.11 311.21 283.15 283.48 334.02 283.48 351.04 330.04 264.96"/><polygon class="cls-1" points="420.81 214.94 316.15 410.61 420.81 327.05 420.81 214.94"/></g></g></svg>