<svg enable-background="new 0 0 113.4 113.4" viewBox="0 0 113.4 113.4" xmlns="http://www.w3.org/2000/svg"><circle cx="56.7" cy="56.7" r="56.7"/><circle cx="56.7" cy="56.7" fill="#f2c91d" r="55.4"/><circle cx="56.7" cy="56.7" fill="#be0c10" r="53.5"/><path d="m98.2 56.7c0-22.9-18.6-41.5-41.5-41.5s-41.5 18.5-41.5 41.5c0 11 4.3 21 11.2 28.4h60.6c7-7.5 11.2-17.5 11.2-28.4z" fill="#f2c91d"/><path d="m96.3 56.7c0-21.9-17.7-39.6-39.6-39.6s-39.6 17.7-39.6 39.6c0 10.3 3.9 19.6 10.3 26.7h58.6c6.4-7.1 10.3-16.5 10.3-26.7z"/><g fill="#f2c91d"><path d="m53.1 52.7-15.9-7.5 6.7-2.2-19.5-2.7 14.9 13.1-2.6-6.7 16.4 7.8z"/><path d="m56.2 20.5v35.2h-2.3s.5-33.6 2.3-35.2z"/><path d="m50 57.5v.9l.9.5-23 10.5-.6-1.3z"/><path d="m31 68.9.7-.3s-.3 2.3-.3 2.4c-.1.1 0 .9.5-.1.1-.5.5-2.1.4-2.5.4-.2.6-.3.6-.3s.2 3.7-2.4 4.6c-.1-.1-.1-.2.1-.6.1-.4.7-2.2.4-3.2z"/><path d="m28.1 70.1.7-.3s-.3 2.3-.3 2.4c-.1.1 0 .9.5-.1.1-.5.5-2.1.4-2.5.4-.2.6-.3.6-.3s.2 3.7-2.4 4.6c-.1-.1-.1-.2.1-.6.1-.4.7-2.2.4-3.2z"/><path d="m33.8 67.6.7-.3s-.3 2.3-.3 2.4c-.1.1 0 .9.5-.1.1-.5.5-2.1.4-2.5.4-.2.6-.3.6-.3s.2 3.7-2.4 4.6c-.1-.1-.1-.2.1-.6.1-.4.7-2.2.4-3.2z"/><path d="m36.7 66.2.7-.3s-.3 2.3-.3 2.4c-.1.1 0 .9.5-.1.1-.5.5-2.1.4-2.5.4-.2.6-.3.6-.3s.2 3.7-2.4 4.6c-.1-.1-.1-.2.1-.6.1-.4.7-2.2.4-3.2z"/><path d="m39.6 64.9.7-.3s-.3 2.3-.3 2.4c-.1.1 0 .9.5-.1.1-.5.5-2.1.4-2.5.4-.2.6-.3.6-.3s.2 3.7-2.4 4.6c-.1-.1-.1-.2.1-.6.1-.4.7-2.2.4-3.2z"/><path d="m42.4 63.6.7-.3s-.3 2.3-.3 2.4c-.1.1 0 .9.5-.1.1-.5.5-2.1.4-2.5.4-.2.6-.3.6-.3s.2 3.7-2.4 4.6c-.2-.2-.2-.2 0-.6s.8-2.2.5-3.2z"/><path d="m45.3 62.2.7-.3s-.3 2.3-.3 2.4c-.1.1 0 .9.5-.1.1-.5.5-2.1.4-2.5.4-.2.6-.3.6-.3s.2 3.7-2.4 4.6c-.1-.1-.1-.2.1-.6.1-.4.7-2.2.4-3.2z"/><path d="m29.6 66 .7-.3s-1.9-1.3-2.1-1.3c-.1 0-.7-.6.4-.3.5.2 1.9 1 2.2 1.3.4-.2.6-.2.6-.2s-2.7-2.5-5.1-1.1c.1.1.1.2.5.3.5.1 2.3.8 2.8 1.6z"/><path d="m26.8 67.4.7-.3s-1.9-1.3-2.1-1.3c-.1 0-.7-.6.4-.3.5.2 1.9 1 2.2 1.3.4-.2.6-.2.6-.2s-2.7-2.5-5.1-1.1c.1.1.1.2.5.3.5.1 2.2.8 2.8 1.6z"/><path d="m32.5 64.8.7-.3s-1.9-1.3-2.1-1.3c-.1 0-.7-.6.4-.3.5.2 1.9 1 2.2 1.3.4-.2.6-.2.6-.2s-2.7-2.5-5.1-1.1c.1.1.1.2.5.3.4 0 2.2.7 2.8 1.6z"/><path d="m35.3 63.5.7-.3s-1.9-1.3-2.1-1.3c-.1 0-.7-.6.4-.3.5.2 1.9 1 2.2 1.3.4-.2.6-.2.6-.2s-2.7-2.5-5.1-1.1c.1.1.1.2.5.3.5 0 2.3.7 2.8 1.6z"/><path d="m38.2 62.2.7-.3s-1.9-1.3-2.1-1.3c-.1 0-.7-.6.4-.3.5.2 1.9 1 2.2 1.3.4-.2.6-.2.6-.2s-2.7-2.5-5.1-1.1c.1.1.1.2.5.3.5 0 2.3.7 2.8 1.6z"/><path d="m41 60.9.7-.3s-1.9-1.3-2.1-1.3c-.1 0-.7-.6.4-.3.5.2 1.9 1 2.2 1.3.4-.2.6-.2.6-.2s-2.7-2.5-5.1-1.1c.1.1.1.2.5.3.5 0 2.3.7 2.8 1.6z"/><path d="m44 59.6.7-.3s-1.9-1.3-2.1-1.3c-.1 0-.7-.6.4-.3.5.2 1.9 1 2.2 1.3.4-.2.6-.2.6-.2s-2.7-2.5-5.1-1.1c.1.1.1.2.5.3.5 0 2.3.7 2.8 1.6z"/><path d="m60 52.7 15.9-7.5-6.7-2.2 19.6-2.7-15 13.1 2.6-6.9-16.4 8z"/><path d="m56.9 20.5v35.2h2.3s-.4-33.6-2.3-35.2z"/><path d="m56.6 56.5h-5.7v1.4h.9l.2-.2h4.6 4.5l.3.2h.9v-1.4z"/><path d="m59.1 61.4v-1.5l-.3-.2v-1.1h-2.2-2.3v1.1l-.3.2v1.5l-.2.3v.2h2.8 2.7v-.2z"/><path d="m56.6 62.8h-2.8v1.9h2.8 2.7v-1.9z"/><path d="m56.6 65.5h-2.8v1.7l.3.3h2.5 2.5l.2-.3v-1.7z"/><path d="m56.6 68.3h-2.5s0 0 .1.3c.5.7 1.1 6.3 1.1 6.3l.2 2.2-.4.1v1.1h1.5 1.5v-1.1l-.4-.1.2-2.2s.6-5.6 1.1-6.3c.1-.2.1-.3.1-.3z"/><path d="m56.6 79.3h-2.2l2.2 2.2 2.1-2.2z"/><path d="m63.1 57.5v.9l-.8.5 22.9 10.5.7-1.3z"/><path d="m82.1 68.9-.7-.3s.3 2.3.3 2.4c.1.1 0 .9-.5-.1-.1-.5-.5-2.1-.4-2.5-.4-.2-.6-.3-.6-.3s-.2 3.7 2.4 4.6c.1-.1.1-.2-.1-.6-.1-.4-.7-2.2-.4-3.2z"/><path d="m85 70.1-.6-.3s.3 2.3.3 2.4c.1.1 0 .9-.5-.1-.1-.5-.5-2.1-.4-2.5-.4-.2-.6-.3-.6-.3s-.2 3.7 2.4 4.6c.1-.1.1-.2-.1-.6s-.8-2.2-.5-3.2z"/><path d="m79.3 67.6-.7-.3s.3 2.3.3 2.4c.1.1 0 .9-.5-.1-.1-.5-.5-2.1-.4-2.5-.4-.2-.6-.3-.6-.3s-.2 3.7 2.4 4.6c.1-.1.1-.2-.1-.6-.1-.4-.7-2.2-.4-3.2z"/><path d="m76.5 66.2-.7-.3s.3 2.3.3 2.4c.1.1 0 .9-.5-.1-.1-.5-.5-2.1-.4-2.5-.4-.2-.6-.3-.6-.3s-.2 3.7 2.4 4.6c.1-.1.1-.2-.1-.6-.1-.4-.8-2.2-.4-3.2z"/><path d="m73.5 64.9-.7-.3s.3 2.3.3 2.4c.1.1 0 .9-.5-.1-.1-.5-.5-2.1-.4-2.5-.4-.2-.6-.3-.6-.3s-.2 3.7 2.4 4.6c.1-.1.1-.2-.1-.6-.1-.4-.7-2.2-.4-3.2z"/><path d="m70.7 63.6-.7-.3s.3 2.3.3 2.4c.1.1 0 .9-.5-.1-.1-.5-.5-2.1-.4-2.5-.4-.2-.6-.3-.6-.3s-.2 3.7 2.4 4.6c.1-.1.1-.2-.1-.6-.1-.4-.7-2.2-.4-3.2z"/><path d="m67.8 62.2-.7-.3s.3 2.3.3 2.4c.1.1 0 .9-.5-.1-.1-.5-.5-2.1-.4-2.5-.4-.2-.6-.3-.6-.3s-.2 3.7 2.4 4.6c.1-.1.1-.2-.1-.6-.1-.4-.7-2.2-.4-3.2z"/><path d="m83.5 66-.7-.3s1.9-1.3 2.1-1.3c.1 0 .7-.6-.4-.3-.5.2-1.9 1-2.2 1.3-.4-.2-.6-.2-.6-.2s2.7-2.5 5.1-1.1c-.1.1-.1.2-.5.3-.5.1-2.3.8-2.8 1.6z"/><path d="m86.4 67.4-.7-.3s1.9-1.3 2.1-1.3c.1 0 .7-.6-.4-.3-.5.2-1.9 1-2.2 1.3-.4-.2-.6-.2-.6-.2s2.7-2.5 5.1-1.1c-.1.1-.1.2-.5.3-.5.1-2.3.8-2.8 1.6z"/><path d="m80.7 64.8-.7-.3s1.9-1.3 2.1-1.3c.1 0 .7-.6-.4-.3-.5.2-1.9 1-2.2 1.3-.4-.2-.6-.2-.6-.2s2.7-2.5 5.1-1.1c-.1.1-.1.2-.5.3-.5 0-2.3.7-2.8 1.6z"/><path d="m77.8 63.5-.7-.3s1.9-1.3 2.1-1.3c.1 0 .7-.6-.4-.3-.5.2-1.9 1-2.2 1.3-.4-.2-.6-.2-.6-.2s2.7-2.5 5.1-1.1c-.1.1-.1.2-.5.3-.5 0-2.3.7-2.8 1.6z"/><path d="m74.9 62.2-.7-.3s1.9-1.3 2.1-1.3c.1 0 .7-.6-.4-.3-.5.2-1.9 1-2.2 1.3-.4-.2-.6-.2-.6-.2s2.7-2.5 5.1-1.1c-.1.1-.1.2-.5.3-.5 0-2.3.7-2.8 1.6z"/><path d="m72.1 60.9-.7-.3s1.9-1.3 2.1-1.3c.1 0 .7-.6-.4-.3-.5.2-1.9 1-2.2 1.3-.4-.2-.6-.2-.6-.2s2.7-2.5 5.1-1.1c-.1.1-.1.2-.5.3-.5 0-2.3.7-2.8 1.6z"/><path d="m69.1 59.6-.7-.3s1.9-1.3 2.1-1.3c.1 0 .7-.6-.4-.3-.5.2-1.9 1-2.2 1.3-.4-.2-.6-.2-.6-.2s2.7-2.5 5.1-1.1c-.1.1-.1.2-.5.3-.5 0-2.3.7-2.8 1.6z"/></g><path d="m5.9 57.4c-.1-.5-.1-1.1-.1-2s .2-1.6.6-2c .3-.4.9-.7 1.6-.7.6 0 1.2.3 1.6.7.5.5.7 1.3.6 2.2v.5l2.4.1v1.5zm3.1-1.4c0-.1 0-.3.1-.5 0-.8-.4-1.3-1-1.3s-1 .4-1 1.1v.6z" fill="#fff" stroke="#000" stroke-miterlimit="10" stroke-width=".5"/><path d="m11.1 51.3 1.6.7-.2 1.5-6.3-2.9.3-2 6.9-1.1-.2 1.6-1.8.3zm-.9-1.8-1.5.2c-.4.1-.9.1-1.3.2.4.2.9.3 1.2.5l1.3.6z" fill="#fff" stroke="#000" stroke-miterlimit="10" stroke-width=".5"/><path d="m7.4 46c-.1-.5-.2-1.2 0-2.1.4-1.4 1.3-2.1 2.2-1.8.8.2 1.2.9 1.2 1.7.3-.8 1.1-1.3 1.9-1.1 1.4.4 1.5 2 1.2 3.2-.2.7-.5 1.4-1 1.8l-1-.6c.2-.2.6-.9.8-1.5.2-.7 0-1.3-.5-1.4-.7-.2-1.1.5-1.2 1.1l-.2.6-1.1-.3.2-.6c.2-.7 0-1.2-.5-1.4-.4-.1-.8.2-1 .8-.1.5-.1 1.1 0 1.5z" fill="#fff" stroke="#000" stroke-miterlimit="10" stroke-width=".5"/><path d="m8.6 40.5c.1-.4.3-1.2.6-1.9.3-.9.6-1.3 1.1-1.7.4-.3.9-.5 1.5-.3s.9.7.9 1.5c.5-.6 1.2-.9 2-.6.6.2.9.6 1.1 1.2s.1 1.4-.4 2.6c-.3.7-.5 1.2-.7 1.5zm2.9-.5.2-.5c.3-.7.1-1.2-.3-1.4-.5-.2-.9.1-1.1.7-.1.3-.2.5-.2.6zm2.7 1c .1-.1.1-.3.2-.5.2-.6.2-1.3-.4-1.5s-1.1.2-1.4.9l-.2.5z" fill="#fff" stroke="#000" stroke-miterlimit="10" stroke-width=".5"/><path d="m16 33.1-1.1 2.2 1.4.7 1.3-2.4 1.1.6-2 3.8-6-3.1 1.9-3.6 1.1.5-1.2 2.3 1.2.6 1.1-2.2z" fill="#fff" stroke="#000" stroke-miterlimit="10" stroke-width=".5"/><path d="m16.3 25.7 4.5 3.1.4-.5 2.3 1.7-.7.9-1.4-.9-2.2 3.2 1.3 1-.7.9-2.4-1.6.3-.5c-.2-.5-.5-.9-.9-1.4s-1-1-1.7-1.5l-1.5-1zm .1 3.6c.6.4 1.2.9 1.6 1.5.3.3.5.7.7 1l1.3-1.8-3.4-2.4-.9 1.2z" fill="#fff" stroke="#000" stroke-miterlimit="10" stroke-width=".5"/><path d="m23.8 22.1c1.6 1.5 1.7 3.3.4 4.8-1.3 1.4-3.2 1.3-4.6 0-1.5-1.3-1.7-3.3-.4-4.7 1.4-1.5 3.3-1.3 4.6-.1zm-3.1 3.6c1 .9 2 1.1 2.7.3.7-.7.4-1.8-.6-2.7-.9-.8-2-1.1-2.7-.3-.7.7-.4 1.8.6 2.7z" fill="#fff" stroke="#000" stroke-miterlimit="10" stroke-width=".5"/><path d="m22.4 19.2c.3-.3.8-.9 1.4-1.4.7-.6 1.2-.9 1.7-1s1.1 0 1.4.5c.4.5.5 1.1.1 1.8.7-.3 1.5-.3 2.1.4.4.5.5 1 .4 1.5-.1.6-.6 1.3-1.6 2.1-.6.5-1 .8-1.3 1zm2.7 1 .4-.3c.6-.5.7-1 .4-1.4s-.8-.3-1.3.1c-.2.2-.4.3-.5.4zm1.9 2.3c.1-.1.3-.2.5-.4.5-.4.8-1 .4-1.6-.4-.5-1.1-.3-1.6.1l-.4.3z" fill="#fff" stroke="#000" stroke-miterlimit="10" stroke-width=".5"/><path d="m31 18.6.5 1.7-1.3.8-1.9-6.7 1.7-1.1 5.3 4.5-1.4 1-1.4-1.2zm.8-1.8-1.1-1c-.3-.3-.7-.6-1-.9.1.4.3.9.4 1.2l.4 1.4z" fill="#fff" stroke="#000" stroke-miterlimit="10" stroke-width=".5"/><path d="m33.7 12.8-1.6.8-.6-1.1 4.6-2.3.6 1.1-1.6.8 2.4 4.8-1.3.7z" fill="#fff" stroke="#000" stroke-miterlimit="10" stroke-width=".5"/><path d="m41.9 12-2.3.9.6 1.5 2.6-1 .4 1.2-4 1.5-2.4-6.3 3.8-1.5.4 1.2-2.3.9.5 1.3 2.3-.9z" fill="#fff" stroke="#000" stroke-miterlimit="10" stroke-width=".5"/><path d="m46.9 6.7 1.6 6.4-1.5.4-1.3-5.2-1.5.4.4 1.5c.4 1.7.5 3-.3 3.8-.3.3-.7.5-1.2.6l-.5-1.1c.3-.1.5-.3.7-.5.3-.5.2-1.3-.1-2.3l-.7-2.9z" fill="#fff" stroke="#000" stroke-miterlimit="10" stroke-width=".5"/><path d="m49.8 6.3.3 2.3c.2 0 .5-.1.8-.1 1.4-.2 2.7.4 2.9 1.8.1.6-.1 1.1-.4 1.5-.6.7-1.7 1-2.7 1.1-.7.1-1.3.1-1.6.1l-.8-6.6zm.6 5.5h.6c.7-.1 1.3-.5 1.2-1.3s-.7-1-1.4-.9c-.2 0-.4.1-.6.1z" fill="#fff" stroke="#000" stroke-miterlimit="10" stroke-width=".5"/><path d="m55.8 5.8v2.6h2.5v-2.6h1.5v6.6h-1.5v-2.8h-2.5v2.8h-1.5v-6.6z" fill="#fff" stroke="#000" stroke-miterlimit="10" stroke-width=".5"/><path d="m66.9 10.1c-.3 2.2-1.8 3.3-3.7 3s-2.9-1.9-2.6-3.8c.3-2 1.8-3.3 3.7-3 2 .3 2.8 2 2.6 3.8zm-4.8-.6c-.2 1.3.3 2.3 1.3 2.4s1.7-.7 1.9-2c .2-1.2-.2-2.3-1.3-2.4-1-.2-1.7.7-1.9 2z" fill="#fff" stroke="#000" stroke-miterlimit="10" stroke-width=".5"/><path d="m71.2 11.9-2.4-.7-.4 1.6 2.6.7-.3 1.2-4.1-1.1 1.8-6.4 3.9 1.1-.3 1.2-2.5-.7-.4 1.3 2.4.7z" fill="#fff" stroke="#000" stroke-miterlimit="10" stroke-width=".5"/><path d="m77.6 10.3-.1 2.5c0 .5-.1.9-.1 1.3.2-.2.5-.6.9-1l1.6-1.8 1.4.7-2.5 2.4c-.8.8-1.6 1.5-2.3 1.8-.6.3-1.3.4-2 0-.3-.1-.5-.3-.6-.4l.6-1c .1.1.2.2.4.3.4.2.8.1 1.1-.2.1-.1.1-.2.1-.3v-5.1z" fill="#fff" stroke="#000" stroke-miterlimit="10" stroke-width=".5"/><path d="m86.5 15.3-3.6 5.6-1.3-.8 2.9-4.5-2-1.3-2.9 4.5-1.3-.8 3.6-5.6z" fill="#fff" stroke="#000" stroke-miterlimit="10" stroke-width=".5"/><path d="m87.5 16.3c.4.2.9.6 1.6 1.2s1.1 1.2 1.2 1.7 0 1.1-.4 1.6-.9.8-1.5.8c-.7 0-1.4-.3-2.1-.8-.2-.1-.3-.2-.4-.4l-1.5 1.8-1.1-1zm-.8 3.3c.1.1.2.2.4.4.6.5 1.2.5 1.7 0 .4-.5.3-1-.3-1.5-.2-.2-.4-.3-.5-.4z" fill="#fff" stroke="#000" stroke-miterlimit="10" stroke-width=".5"/><path d="m89.1 24.1-1.6.8-1.1-1.1 6.2-3.1 1.4 1.4-3.4 6.1-1.1-1.2.9-1.5zm1.9.4.7-1.3c.2-.4.5-.8.7-1.1-.4.2-.8.5-1.1.7l-1.3.7z" fill="#fff" stroke="#000" stroke-miterlimit="10" stroke-width=".5"/><path d="m96 24.4c.3.3.8.9 1.3 1.5.5.7.8 1.2.9 1.8.1.5-.1 1.1-.6 1.4-.5.4-1.1.4-1.8 0 .3.7.2 1.5-.5 2-.5.4-1 .4-1.5.3-.6-.2-1.3-.7-2-1.7-.4-.6-.7-1.1-.9-1.4zm-3.5 4.5c.1.1.2.3.3.5.4.5 1 .9 1.5.5s.4-1-.1-1.6l-.3-.4zm2.3-1.8.3.4c.5.6 1 .8 1.4.5s.4-.8 0-1.3c-.2-.3-.3-.4-.4-.5z" fill="#fff" stroke="#000" stroke-miterlimit="10" stroke-width=".5"/><path d="m102.1 33.7-5.8 3.3-.7-1.3 4.7-2.7-.7-1.3-1.4.8c-1.5.8-2.7 1.3-3.7.7-.3-.2-.7-.5-.9-1l1-.8c.2.3.4.4.7.5.6.1 1.3-.2 2.2-.7l2.5-1.4z" fill="#fff" stroke="#000" stroke-miterlimit="10" stroke-width=".5"/><path d="m100.7 40.1-1-2.2-1.4.6 1.1 2.5-1.1.5-1.7-3.9 6.1-2.6 1.6 3.8-1.1.5-1-2.4-1.3.5 1 2.2z" fill="#fff" stroke="#000" stroke-miterlimit="10" stroke-width=".5"/><path d="m105.2 41.3-2.4.7.7 2.4 2.4-.7.4 1.4-6.4 1.8-.4-1.4 2.7-.8-.7-2.4-2.7.8-.4-1.4 6.4-1.8z" fill="#fff" stroke="#000" stroke-miterlimit="10" stroke-width=".5"/><path d="m106.8 48-1.9.3c-1.1.2-2.1.3-3 .4.8.2 1.7.5 2.5.8l2.8 1 .2 1.5-6.6 1-.2-1.4 1.9-.3c1-.1 1.9-.3 2.8-.3-.8-.2-1.8-.5-2.5-.8l-2.6-1-.2-1.7 6.6-1z" fill="#fff" stroke="#000" stroke-miterlimit="10" stroke-width=".5"/><path d="m103.8 57.5-.1-2.4h-1.6l.1 2.7h-1.2l-.1-4.2 6.6-.2.1 4.1h-1.2l-.1-2.6h-1.4l.1 2.4z" fill="#fff" stroke="#000" stroke-miterlimit="10" stroke-width=".5"/><path d="m28.6 94.2-.6 2.3h-2.1l2.8-9h2.7l2.8 9h-2.2l-.7-2.3zm2.3-1.5-.6-1.9c-.2-.5-.3-1.2-.5-1.7-.1.5-.3 1.2-.4 1.7l-.5 1.9z" fill="#fff" stroke="#000" stroke-miterlimit="10" stroke-width=".5"/><path d="m35.3 87.6c.6-.1 1.5-.2 2.8-.2s2.2.2 2.8.7 1 1.2 1 2.1-.3 1.6-.8 2.1c-.7.7-1.7 1-2.9 1-.3 0-.5 0-.7 0v3.2h-2v-8.9zm2 4.1c.2 0 .4.1.7.1 1.1 0 1.8-.5 1.8-1.5 0-.8-.6-1.3-1.6-1.3-.4 0-.7 0-.8.1v2.6z" fill="#fff" stroke="#000" stroke-miterlimit="10" stroke-width=".5"/><path d="m44.9 87.5v2.7c0 1.4 0 2.9-.1 4.1h.1c.5-1.1 1.1-2.2 1.6-3.2l1.9-3.5h2.1v9h-1.9v-2.7c0-1.4 0-2.6.1-3.8-.4 1.1-1 2.3-1.5 3.2l-1.8 3.3h-2.3v-9z" fill="#fff" stroke="#000" stroke-miterlimit="10" stroke-width=".5"/><path d="m54.4 94.2-.6 2.3h-2.1l2.8-9h2.7l2.8 9h-2.3l-.7-2.3zm2.3-1.5-.6-1.9c-.2-.5-.3-1.2-.5-1.7-.1.5-.3 1.2-.4 1.7l-.5 1.9z" fill="#fff" stroke="#000" stroke-miterlimit="10" stroke-width=".5"/><path d="m68.4 87.5v7.4l.9.1-.1 3.8h-1.6l-.1-2.3h-5.3l-.1 2.3h-1.6l-.1-3.8.7-.1c.4-.6.7-1.3.9-2 .3-.9.4-1.9.4-3v-2.4zm-4 2.9c0 1-.1 2.1-.4 3-.2.5-.4 1.1-.6 1.5h3v-5.7h-2z" fill="#fff" stroke="#000" stroke-miterlimit="10" stroke-width=".5"/><path d="m72.5 87.5v3.5h3.4v-3.5h2v9h-2v-3.8h-3.4v3.8h-2v-9z" fill="#fff" stroke="#000" stroke-miterlimit="10" stroke-width=".5"/><path d="m81.7 94.2-.6 2.3h-2.1l2.8-9h2.7l2.8 9h-2.2l-.7-2.3zm2.3-1.5-.6-1.9c-.2-.5-.3-1.2-.5-1.7-.1.5-.3 1.2-.4 1.7l-.5 1.9z" fill="#fff" stroke="#000" stroke-miterlimit="10" stroke-width=".5"/></svg>