<?xml version="1.0" encoding="UTF-8"?><svg id="Capa_1" xmlns="http://www.w3.org/2000/svg" viewBox="0 0 566.93 566.93"><defs><style>.cls-1{font-size:34px;}.cls-1,.cls-2{fill:#fff;font-family:Tahoma-Bold, Tahoma;font-weight:700;}.cls-3{fill:#35495e;}.cls-3,.cls-4,.cls-5,.cls-6{stroke-width:0px;}.cls-4{fill:none;}.cls-5{fill:#be1622;}.cls-6{fill:#f1c410;}.cls-2{font-size:35px;}</style></defs><path class="cls-3" d="M284.4,4.35c-.31,0-.63-.01-.94-.01C129.31,4.34,4.34,129.31,4.34,283.46s124.97,279.13,279.13,279.13c.31,0,.63-.01.94-.01,153.72-.51,278.19-125.27,278.19-279.12S438.13,4.86,284.4,4.35Z"/><path class="cls-5" d="M284.17,75.16c-.23,0-.47,0-.7,0-115.05,0-208.32,93.27-208.32,208.32s93.27,208.32,208.32,208.32c.23,0,.47,0,.7,0,114.73-.38,207.62-93.49,207.62-208.31s-92.89-207.93-207.62-208.31Z"/><path class="cls-6" d="M480.9,86.03c52.74,52.74,81.78,122.86,81.78,197.43s-29.04,144.7-81.78,197.43c-52.74,52.74-122.85,81.78-197.43,81.78s-144.69-29.04-197.43-81.78C33.29,428.16,4.25,358.05,4.25,283.46s29.04-144.69,81.78-197.43C138.77,33.3,208.89,4.26,283.46,4.26s144.69,29.04,197.43,81.77ZM556.68,283.46c0-150.65-122.57-273.21-273.22-273.21S10.24,132.81,10.24,283.46s122.57,273.22,273.22,273.22,273.22-122.56,273.22-273.22Z"/><text class="cls-1" transform="translate(65.08 246.45) rotate(-76.07)"><tspan x="0" y="0">W</tspan></text><text class="cls-1" transform="translate(73.62 213.33) rotate(-68.92)"><tspan x="0" y="0">A</tspan></text><text class="cls-1" transform="translate(81.75 192.18) rotate(-63.21)"><tspan x="0" y="0">V</tspan></text><text class="cls-1" transform="translate(91.87 172.2) rotate(-57.76)"><tspan x="0" y="0">E</tspan></text><text class="cls-1" transform="translate(102.61 154.93) rotate(-52.1)"><tspan x="0" y="0">R</tspan></text><text class="cls-1" transform="translate(117.58 135.96) rotate(-47)"><tspan x="0" y="0">I</tspan></text><text class="cls-1" transform="translate(128.26 124.17) rotate(-41.76)"><tspan x="0" y="0">D</tspan></text><text class="cls-1" transform="translate(147.08 107.49) rotate(-35.96)"><tspan x="0" y="0">E</tspan></text><text class="cls-1" transform="translate(163.49 95.43) rotate(-30.26)"><tspan x="0" y="0">R</tspan></text><text class="cls-1" transform="translate(184.31 83.34) rotate(-24.46)"><tspan x="0" y="0">S</tspan></text><text class="cls-1" transform="translate(203.6 74.77) rotate(-20.47)"><tspan x="0" y="0"> </tspan></text><text class="cls-1" transform="translate(212.45 71.2) rotate(-16.32)"><tspan x="0" y="0">C</tspan></text><text class="cls-1" transform="translate(233.65 64.96) rotate(-10.5)"><tspan x="0" y="0">Y</tspan></text><text class="cls-1" transform="translate(255.47 60.87) rotate(-4.56)"><tspan x="0" y="0">B</tspan></text><text class="cls-1" transform="translate(278.15 59.1) rotate(1.12)"><tspan x="0" y="0">E</tspan></text><text class="cls-1" transform="translate(298.47 59.37) rotate(6.93)"><tspan x="0" y="0">R</tspan></text><text class="cls-1" transform="translate(322.37 62.3) rotate(12.91)"><tspan x="0" y="0">C</tspan></text><text class="cls-1" transform="translate(343.9 67.1) rotate(19.15)"><tspan x="0" y="0">O</tspan></text><text class="cls-1" transform="translate(368 75.28) rotate(26.41)"><tspan x="0" y="0">M</tspan></text><text class="cls-1" transform="translate(394.51 88.65) rotate(33.31)"><tspan x="0" y="0">B</tspan></text><text class="cls-1" transform="translate(413.5 101.1) rotate(39.25)"><tspan x="0" y="0">A</tspan></text><text class="cls-1" transform="translate(431.04 115.47) rotate(44.82)"><tspan x="0" y="0">T</tspan></text><text class="cls-1" transform="translate(445.42 130) rotate(48.7)"><tspan x="0" y="0"> </tspan></text><text class="cls-1" transform="translate(451.87 137.05) rotate(52.55)"><tspan x="0" y="0">T</tspan></text><text class="cls-1" transform="translate(464.22 153.14) rotate(57.74)"><tspan x="0" y="0">E</tspan></text><text class="cls-1" transform="translate(475.17 170.32) rotate(63.24)"><tspan x="0" y="0">A</tspan></text><text class="cls-1" transform="translate(485.57 190.42) rotate(69.89)"><tspan x="0" y="0">M</tspan></text><text class="cls-2" transform="translate(93.82 443.39) rotate(46.38)"><tspan x="0" y="0">T</tspan></text><text class="cls-2" transform="translate(109.6 460.03) rotate(40.74)"><tspan x="0" y="0">O</tspan></text><text class="cls-2" transform="translate(131.34 478.59) rotate(34.57)"><tspan x="0" y="0">R</tspan></text><text class="cls-2" transform="translate(153.57 493.75) rotate(28.8)"><tspan x="0" y="0">C</tspan></text><text class="cls-2" transform="translate(175.43 505.77) rotate(22.87)"><tspan x="0" y="0">H</tspan></text><text class="cls-2" transform="translate(201.48 516.51) rotate(17.33)"><tspan x="0" y="0">L</tspan></text><text class="cls-2" transform="translate(221.72 522.72) rotate(12.96)"><tspan x="0" y="0">I</tspan></text><text class="cls-2" transform="translate(239.49 526.95) rotate(7.87)"><tspan x="0" y="0">G</tspan></text><text class="cls-2" transform="translate(266.99 530.68) rotate(1.59)"><tspan x="0" y="0">H</tspan></text><text class="cls-2" transform="translate(295.24 531.25) rotate(-4.18)"><tspan x="0" y="0">T</tspan></text><text class="cls-2" transform="translate(317.57 529.4) rotate(-7.99)"><tspan x="0" y="0"> </tspan></text><text class="cls-2" transform="translate(328.84 528.03) rotate(-12.14)"><tspan x="0" y="0">B</tspan></text><text class="cls-2" transform="translate(353.86 522.6) rotate(-18.18)"><tspan x="0" y="0">R</tspan></text><text class="cls-2" transform="translate(379.23 514) rotate(-23.39)"><tspan x="0" y="0">I</tspan></text><text class="cls-2" transform="translate(396.09 506.87) rotate(-28.68)"><tspan x="0" y="0">G</tspan></text><text class="cls-2" transform="translate(420.32 493.45) rotate(-34.81)"><tspan x="0" y="0">A</tspan></text><text class="cls-2" transform="translate(441.4 478.84) rotate(-41.19)"><tspan x="0" y="0">D</tspan></text><text class="cls-2" transform="translate(462.36 460.32) rotate(-46.73)"><tspan x="0" y="0">E</tspan></text><text class="cls-2" transform="translate(477.64 443.76) rotate(-50.62)"><tspan x="0" y="0"> </tspan></text><path class="cls-6" d="M430.76,136.16c39.35,39.35,61.02,91.66,61.02,147.3s-21.67,107.96-61.02,147.3c-39.35,39.35-91.65,61.02-147.3,61.02s-107.95-21.67-147.3-61.02c-39.35-39.34-61.02-91.65-61.02-147.3s21.67-107.95,61.02-147.3c39.35-39.34,91.66-61.01,147.3-61.01s107.95,21.67,147.3,61.01ZM487.31,283.46c0-112.4-91.45-203.84-203.84-203.84s-203.84,91.44-203.84,203.84,91.45,203.84,203.84,203.84,203.84-91.44,203.84-203.84Z"/><path class="cls-6" d="M293.83,109.27l-.02-.05-9.49.12c-1.01-2.98-2.01-5.94-3.01-8.9,0-.05,0-.08-.06-.08-.04.02-.05.05-.04.09-.93,2.99-1.86,5.98-2.79,8.98l-9.56.12c2.64,1.87,5.22,3.69,7.8,5.52-.94,3.03-1.87,6.03-2.81,9.03.02,0,.03.02.05.03,2.53-1.88,5.05-3.76,7.58-5.65,2.58,1.83,5.15,3.64,7.72,5.45.01-.01.03-.03.04-.04-1.01-2.98-2.02-5.96-3.03-8.94,2.55-1.9,5.08-3.78,7.6-5.67Z"/><path class="cls-6" d="M325.82,115.03v-.05c-3.11-.6-6.21-1.21-9.32-1.81-.38-3.12-.76-6.23-1.14-9.33.02-.05.01-.08-.04-.09-.04.01-.06.04-.05.08-1.52,2.74-3.03,5.48-4.55,8.23l-9.38-1.83c2.21,2.37,4.36,4.68,6.52,6.99-1.54,2.77-3.06,5.52-4.59,8.27.01.01.03.02.04.03,2.86-1.33,5.71-2.66,8.57-3.99,2.16,2.31,4.3,4.61,6.45,6.91.02,0,.03-.02.05-.03-.38-3.12-.76-6.24-1.15-9.37,2.88-1.34,5.74-2.67,8.6-4Z"/><path class="cls-6" d="M356.18,126.91v-.05c-2.89-1.27-5.78-2.54-8.68-3.82.32-3.13.63-6.24.95-9.35.03-.04.03-.08-.02-.1-.04,0-.06.02-.07.06-2.08,2.34-4.16,4.68-6.25,7.02-2.91-1.28-5.79-2.55-8.75-3.85,1.63,2.79,3.23,5.52,4.82,8.25-2.11,2.37-4.2,4.71-6.29,7.06.01.01.02.03.03.04,3.08-.67,6.16-1.34,9.24-2.01,1.6,2.73,3.18,5.45,4.77,8.16.02,0,.04-.01.05-.02.31-3.13.63-6.26.94-9.39,3.1-.67,6.19-1.34,9.27-2.01Z"/><path class="cls-6" d="M236.81,116.14v-.05c3.09-.68,6.18-1.36,9.27-2.05.3-3.13.6-6.24.9-9.35-.02-.05-.01-.08.04-.1.04.01.06.04.05.07,1.58,2.7,3.17,5.4,4.76,8.11,3.1-.68,6.18-1.36,9.33-2.06-2.15,2.42-4.24,4.79-6.34,7.15,1.61,2.73,3.2,5.44,4.79,8.15-.01.01-.03.02-.04.04-2.89-1.26-5.77-2.51-8.67-3.77-2.1,2.37-4.19,4.72-6.27,7.07-.02,0-.03-.02-.05-.03.3-3.13.61-6.26.91-9.4-2.91-1.27-5.8-2.53-8.7-3.79Z"/><path class="cls-6" d="M206.76,128.78v-.05c2.86-1.34,5.72-2.69,8.58-4.03-.4-3.12-.79-6.22-1.18-9.32-.03-.04-.03-.08.02-.1.04,0,.06.02.07.06,2.14,2.28,4.28,4.57,6.43,6.86,2.87-1.35,5.73-2.69,8.65-4.06-1.56,2.83-3.09,5.6-4.61,8.37,2.17,2.31,4.32,4.61,6.47,6.9-.01.01-.02.03-.03.04-3.09-.59-6.19-1.18-9.29-1.77-1.53,2.77-3.04,5.52-4.56,8.28-.02,0-.04-.01-.05-.02-.39-3.12-.79-6.24-1.18-9.37-3.12-.6-6.22-1.19-9.32-1.78Z"/><path class="cls-6" d="M298.28,464.25l-.02.05-9.49.12c-.93,3.01-1.86,5.99-2.78,8.97.01.05,0,.08-.06.09-.04-.02-.05-.05-.04-.08-1-2.97-2-5.93-3.01-8.91l-9.56.12c2.59-1.93,5.13-3.82,7.66-5.71-1.02-3-2.03-5.98-3.03-8.96.02,0,.03-.02.05-.03,2.57,1.82,5.14,3.64,7.72,5.46,2.54-1.89,5.06-3.77,7.58-5.65.01.01.03.03.04.04-.93,3-1.87,6.01-2.8,9.01,2.59,1.83,5.17,3.66,7.74,5.48Z"/><path class="cls-6" d="M330.12,457.7v.05c-3.09.68-6.18,1.36-9.27,2.05-.3,3.13-.6,6.24-.9,9.35.02.05.01.08-.04.1-.04-.01-.06-.04-.05-.07-1.58-2.7-3.17-5.4-4.76-8.11-3.1.68-6.18,1.36-9.33,2.06,2.15-2.42,4.24-4.79,6.34-7.15-1.61-2.73-3.2-5.44-4.79-8.15.01-.01.03-.02.04-.04,2.89,1.26,5.77,2.51,8.67,3.77,2.1-2.37,4.19-4.72,6.27-7.07.02,0,.03.02.05.03-.3,3.13-.61,6.26-.91,9.4,2.91,1.27,5.8,2.53,8.7,3.79Z"/><path class="cls-6" d="M360.17,445.06v.05c-2.86,1.34-5.72,2.69-8.58,4.03.4,3.12.79,6.22,1.18,9.32.03.04.03.08-.02.1-.04,0-.06-.02-.07-.06-2.14-2.28-4.28-4.57-6.43-6.86-2.87,1.35-5.73,2.69-8.65,4.06,1.56-2.83,3.09-5.6,4.61-8.37-2.17-2.31-4.32-4.61-6.47-6.9.01-.01.02-.03.03-.04,3.09.59,6.19,1.18,9.29,1.77,1.53-2.77,3.04-5.52,4.56-8.28.02,0,.04.01.05.02.39,3.12.79,6.24,1.18,9.37,3.12.6,6.22,1.19,9.32,1.78Z"/><path class="cls-6" d="M241.11,458.82v.05c3.11.6,6.21,1.21,9.32,1.81.38,3.12.76,6.23,1.14,9.33-.02.05-.01.08.04.09.04-.01.06-.04.05-.08,1.52-2.74,3.03-5.48,4.55-8.23,3.12.61,6.21,1.21,9.38,1.83-2.21-2.37-4.36-4.68-6.52-6.99,1.54-2.77,3.06-5.52,4.59-8.27-.01-.01-.03-.02-.04-.03-2.86,1.33-5.71,2.66-8.57,3.99-2.16-2.31-4.3-4.61-6.45-6.91-.02,0-.03.02-.05.03.38,3.12.76,6.24,1.15,9.37-2.88,1.34-5.74,2.67-8.6,4Z"/><path class="cls-6" d="M210.75,446.94v.05c2.89,1.27,5.78,2.54,8.68,3.82-.32,3.13-.63,6.24-.95,9.35-.03.04-.03.08.02.1.04,0,.06-.02.07-.06,2.08-2.34,4.16-4.68,6.25-7.02,2.91,1.28,5.79,2.55,8.75,3.85-1.63-2.79-3.23-5.52-4.82-8.25,2.11-2.37,4.2-4.71,6.29-7.06-.01-.01-.02-.03-.03-.04-3.08.67-6.16,1.34-9.24,2.01-1.6-2.73-3.18-5.45-4.77-8.16-.02,0-.04.01-.05.02-.31,3.13-.63,6.26-.94,9.39-3.1.67-6.19,1.34-9.27,2.01Z"/><path class="cls-4" d="M330.88,348.64c-2.38,17.25-5.7,31.33-9.19,42.75,30.31,14.49,56.19,17.4,68.74,4.85,16.7-16.7,6.07-57-22.9-99.96-10.05,13.63-21.87,27.41-35.27,40.86-.43,4.09-.9,7.95-1.39,11.51Z"/><path class="cls-4" d="M230.61,256.36c-9.94,10.74-18.88,21.72-26.7,32.62,7.55,10.53,16.15,21.14,25.69,31.53-2.09-23.85-1.18-45.55,1.01-64.15Z"/><path class="cls-4" d="M332.1,253c.06.58-.02,1.15-.04,2.1,2.84,26.62,2.69,49.89,1.36,68.98,10.88-11.53,20.61-23.37,29.04-35.11-8.79-12.24-18.99-24.6-30.44-36.6.03.21.06.42.09.62Z"/><path class="cls-4" d="M237.18,219.13c2.81-10.7,6.12-21.16,10.18-31.25-18.34-9.11-35.19-14.09-48.6-14.09-9.6,0-17.45,2.54-22.84,7.93-8.76,8.76-9.99,24.01-5.02,42.72,9.7.07,17.54,7.94,17.54,17.66,0,5.04-2.12,9.57-5.5,12.79,4.41,8.68,9.72,17.67,15.87,26.79,9.66-13.1,20.97-26.34,33.73-39.29,1.41-8.69,3.03-16.5,4.63-23.27Z"/><path class="cls-4" d="M395.44,224.48c4.98-18.73,3.75-33.99-5.01-42.75-5.39-5.39-13.24-7.93-22.84-7.93-14.06,0-31.89,5.47-51.26,15.43,6.01,15.92,10.39,32.34,13.44,49.15.68.67,1.36,1.31,2.03,1.99,13.6,13.6,25.57,27.54,35.73,41.33,6.23-9.24,11.61-18.36,16.06-27.15-3.16-3.19-5.12-7.58-5.12-12.43,0-9.52,7.54-17.26,16.96-17.63Z"/><path class="cls-4" d="M231.1,334.07c-12.17-12.48-22.99-25.2-32.28-37.81-28.96,42.96-39.6,83.26-22.9,99.96,5.39,5.39,13.24,7.93,22.84,7.93,12.73,0,28.53-4.48,45.78-12.71-2.66-7.83-5.14-16.09-7.3-24.84-2.75-11.15-4.75-22.02-6.14-32.54Z"/><path class="cls-6" d="M332.05,255.1c.02-.95.1-1.53.04-2.1-.03-.21-.06-.42-.09-.62-.64-4.7-1.39-9.37-2.23-14.01-3.05-16.8-7.43-33.22-13.44-49.15-8.39,4.31-17.07,9.48-25.86,15.4-1.4.94-2.81,1.91-4.21,2.89v162.92c1.4.98,2.81,1.96,4.21,2.9,10.68,7.2,21.19,13.25,31.22,18.05,3.49-11.41,6.81-25.5,9.19-42.75.49-3.57.96-7.43,1.39-11.51.43-4.1.82-8.44,1.14-13.04,1.33-19.09,1.48-42.37-1.36-68.98Z"/><path class="cls-6" d="M286.26,197.31c9.15-6.18,18.17-11.54,26.92-15.99-1.8-4.32-3.71-8.6-5.76-12.84-5.78-11.91-11.58-22.6-21.22-31.88.02.03.04.05.06.07v60.64Z"/><path class="cls-6" d="M275.88,204.63c1.4-1.03,2.8-2.03,4.19-3.03v-65.16c-12.75,12.97-22.17,27.74-29.38,43.64-1.17,2.57-2.27,5.17-3.33,7.8-4.06,10.09-7.37,20.55-10.18,31.25-1.6,6.77-3.22,14.58-4.63,23.27.67-.68,1.32-1.36,2-2.04,13.6-13.6,27.54-25.56,41.33-35.73Z"/><path class="cls-6" d="M280.08,366v-154.05c-13.34,9.83-26.78,21.32-39.69,34.23-3.36,3.36-6.61,6.76-9.78,10.18-2.19,18.6-3.1,40.3-1.01,64.15,3.47,3.79,7.07,7.55,10.78,11.26,12.91,12.91,26.35,24.41,39.69,34.23Z"/><path class="cls-6" d="M280.08,380.68v-4.3c-1.4-.99-2.79-2.01-4.19-3.04-13.79-10.17-27.73-22.14-41.33-35.73-1.17-1.17-2.31-2.35-3.46-3.53,1.4,10.52,3.39,21.39,6.14,32.54,2.16,8.76,4.64,17.01,7.3,24.84.93,2.73,1.88,5.41,2.85,8.02,4.69,12.65,9.83,24,14.94,33.91,6.49-1.92,11.76-6.65,17.96-9.24-.08.03-.13.05-.21.07v-43.54Z"/><path class="cls-6" d="M286.26,424.66c-.57-.25-1.03-.44-1.43-.61,6.46,2.95,12.16,6.99,18.86,9.19,1.03-1.73,2.06-3.15,2.8-4.72,2.61-5.46,7.54-14.66,12.55-29.01-10.55-4.95-21.57-11.28-32.77-18.85v44Z"/><path class="cls-3" d="M280.08,376.38v47.84c.08-.03.14-.05.21-.07,2.14-.77,2.63-.87,4.54-.09.41.17.86.36,1.43.61v-44c-1.03-.69-2.05-1.39-3.08-2.1-1.03-.72-2.07-1.45-3.1-2.18Z"/><path class="cls-3" d="M280.08,211.96v154.05c1.04.77,2.08,1.51,3.12,2.25,1.02.73,2.05,1.46,3.07,2.18v-162.92c-1.03.72-2.05,1.44-3.08,2.17-1.03.74-2.07,1.5-3.1,2.26Z"/><path class="cls-3" d="M286.2,136.6c-3.18-4.05-3.41-4.03-6.13-.2v65.21c1.03-.74,2.07-1.48,3.1-2.2,1.03-.71,2.05-1.4,3.08-2.09v-60.64s-.04-.05-.06-.07Z"/><path class="cls-3" d="M333.41,324.09c-.32,4.6-.71,8.94-1.14,13.04,13.4-13.45,25.22-27.23,35.27-40.86-1.63-2.42-3.34-4.85-5.09-7.29-8.42,11.74-18.16,23.57-29.04,35.11Z"/><path class="cls-3" d="M198.76,404.17c-9.6,0-17.45-2.54-22.84-7.93-16.7-16.7-6.07-57,22.9-99.96-1.8-2.44-3.54-4.87-5.22-7.29-33.2,47.84-43.89,92.7-23.5,113.08,7.02,7.02,16.94,10.36,28.89,10.36,13.87,0,30.46-4.5,48.41-12.94-.97-2.62-1.92-5.29-2.85-8.02-17.25,8.23-33.06,12.71-45.78,12.71Z"/><path class="cls-3" d="M403.64,226.13c5.5-21.53,3.49-39.37-7.38-50.24-16.03-16.04-47.22-12.83-83.08,5.42-8.75,4.45-17.77,9.81-26.92,15.99-1.03.69-2.05,1.38-3.08,2.09-1.03.72-2.07,1.46-3.1,2.2-1.4.99-2.79,1.99-4.19,3.03-13.79,10.17-27.73,22.13-41.33,35.73-.68.68-1.33,1.36-2,2.04-12.76,12.95-24.07,26.19-33.73,39.29,1.63,2.42,3.34,4.85,5.09,7.29,7.82-10.89,16.76-21.87,26.7-32.62,3.16-3.42,6.42-6.82,9.78-10.18,12.91-12.91,26.35-24.4,39.69-34.23,1.03-.76,2.07-1.52,3.1-2.26,1.03-.74,2.06-1.46,3.08-2.17,1.41-.98,2.81-1.95,4.21-2.89,8.79-5.93,17.47-11.09,25.86-15.4,19.38-9.96,37.2-15.43,51.26-15.43,9.6,0,17.45,2.54,22.84,7.93,8.76,8.76,9.99,24.03,5.01,42.75-9.43.37-16.96,8.11-16.96,17.63,0,4.85,1.96,9.24,5.12,12.43-4.45,8.79-9.82,17.91-16.06,27.15,1.8,2.44,3.54,4.87,5.22,7.29,7.09-10.21,13.14-20.28,18.09-30.02,1.67.52,3.45.81,5.3.81,9.76,0,17.66-7.91,17.66-17.66,0-7.07-4.16-13.15-10.16-15.98Z"/><path class="cls-3" d="M372.76,288.98c-1.68-2.42-3.43-4.85-5.22-7.29-10.17-13.79-22.14-27.74-35.73-41.33-.67-.67-1.35-1.32-2.03-1.99.84,4.64,1.59,9.31,2.23,14.01,11.45,12,21.65,24.36,30.44,36.6,1.75,2.44,3.46,4.87,5.09,7.29,28.96,42.96,39.6,83.26,22.9,99.96-12.55,12.55-38.43,9.64-68.74-4.85-10.03-4.8-20.54-10.84-31.22-18.05-1.4-.94-2.8-1.92-4.21-2.9-1.02-.71-2.04-1.44-3.07-2.18-1.04-.75-2.08-1.49-3.12-2.25-13.34-9.83-26.78-21.32-39.69-34.23-3.71-3.71-7.31-7.47-10.78-11.26-9.54-10.4-18.14-21.01-25.69-31.53-1.75-2.44-3.46-4.87-5.09-7.29-6.15-9.12-11.46-18.11-15.87-26.79,3.38-3.22,5.5-7.75,5.5-12.79,0-9.72-7.84-17.59-17.54-17.66-4.97-18.72-3.74-33.97,5.02-42.72,5.39-5.39,13.24-7.93,22.84-7.93,13.41,0,30.26,4.98,48.6,14.09,1.06-2.63,2.17-5.23,3.33-7.8-34.81-17.14-64.93-19.85-80.6-4.19-10.91,10.91-12.9,28.85-7.32,50.48-5.72,2.92-9.65,8.86-9.65,15.73,0,9.76,7.91,17.66,17.66,17.66,1.66,0,3.27-.25,4.79-.68,4.94,9.69,10.97,19.72,18.02,29.88,1.68,2.42,3.43,4.85,5.22,7.29,9.29,12.6,20.11,25.33,32.28,37.81,1.15,1.18,2.28,2.36,3.46,3.53,13.6,13.6,27.54,25.57,41.33,35.73,1.4,1.03,2.8,2.05,4.19,3.04,1.04.74,2.07,1.47,3.1,2.18,1.03.71,2.06,1.41,3.08,2.1,11.21,7.57,22.23,13.9,32.77,18.85,17.92,8.42,34.49,12.9,48.34,12.9,11.94,0,21.87-3.34,28.89-10.36,20.39-20.39,9.69-65.24-23.5-113.08Z"/></svg>