<svg enable-background="new 0 0 113.4 113.4" viewBox="0 0 113.4 113.4" xmlns="http://www.w3.org/2000/svg"><path d="m0 56.7c0-31.3 25.4-56.7 56.7-56.7 31.4 0 56.7 25.4 56.7 56.8 0 31.3-25.4 56.6-56.7 56.6-31.4-.1-56.7-25.4-56.7-56.7z" fill="#e73631"/><path d="m1.2 56.7c0-30.6 24.8-55.5 55.4-55.5s55.5 24.8 55.5 55.4c0 30.7-24.8 55.5-55.5 55.5-30.5 0-55.4-24.8-55.4-55.4z" fill="#fff"/><g fill="#e73631"><path d="m56.7 23.3c8.8 11.2 17.6 22.2 26.4 33.4-8.8 11-17.5 22.1-26.4 33.3-8.8-11.1-17.6-22.2-26.4-33.3 8.8-11.1 17.5-22.2 26.4-33.4z"/><path d="m34.3 91.4c14.9 8.8 29.8 8.8 44.7 0 .2 0 .4.1.5.3.1 1.5-.6 2.8-.9 4.2-.2.9-.6 1.7-.5 2.7 1 .6 2.2.7 3.4 1.1 1.3.4 2.7.5 3.7 1.4-5.1 3.4-10.8 5.7-16.8 7.1-14.2 3.2-27.5.7-39.9-6.8-.1-.1-.3-.2-.4-.3.2-.6.7-.6 1.2-.7 1.6-.5 3.2-.9 4.8-1.3.4-.1.8-.2 1.1-.6.2-.9-.3-1.8-.5-2.7-.3-1.4-1-2.7-.9-4.2.2-.1.3-.2.5-.2z"/><path d="m99.5 88c-3.4 4.6-7.5 8.6-12.2 12-.1.1-.2.2-.4.2h-.1-.1c-1.9-.2-3.7-.6-5.5-1.2-.3-.1-.6-.2-.9-.4-.1-.1-.2-.2-.2-.3.2-.5.7-.7 1.1-.9 4-2.5 7.7-5.3 10.8-9 .2-.3.4-.5.7-.6.2-.1.5-.1.6-.2 1.9-.3 3.8-.1 5.7-.1.5-.1.6.2.5.5z"/><path d="m26.6 100.1c-4.3-2.7-7.9-6.2-11.1-10.1-.5-.7-1.1-1.3-1.6-2-.3-.5.1-.5.5-.5 1.8-.1 3.7-.2 5.5.1.2.1.4.1.6.2.9.5 1.3 1.4 1.9 2.1 2.9 2.9 6.1 5.4 9.6 7.6.4.2.8.4 1.1.8 0 .1 0 .2-.1.3-.3.2-.6.3-.8.4-1.4.3-2.7.8-4.1 1.1-.6 0-1 .1-1.5 0z"/><path d="m81.3 89.8c4.1-3.3 7.7-6.9 10.4-11.4.4-.1.3.2.3.4v7.9c0 .5-.2.9-.5 1.2-3.2 3.4-6.6 6.6-10.7 8.9-.5.3-1 .7-1.6.4-.1-.2-.1-.4-.1-.6.8-2.3 1-4.7 2.2-6.8z"/><path d="m21.6 78.4c2.7 4.5 6.3 8.1 10.4 11.4 1 2.4 1.9 4.8 2.1 7.5-.6.4-1.1-.1-1.6-.3-4.1-2.3-7.6-5.5-10.8-8.9-.3-.3-.5-.7-.5-1.2 0-2.6 0-5.3 0-7.9 0-.4-.1-.8.4-.6z"/><path d="m12.7 86.2c-2.5-3.8-4.5-7.9-6-12.1-.2-.5.2-.7.6-.6 1.8.5 3.8.6 5.5 1.7 1.5 3.1 3.1 6.1 5.1 8.9.5.7 1.1 1.2 1.1 2.2-1 .2-2 .1-3 .1-1.2-.2-2.3.3-3.3-.2z"/><path d="m106.7 74.1c-1.6 4.3-3.5 8.3-6 12.1-1 .4-2.1.1-3.2.2-1 0-2 .1-3.2-.1.8-2.1 2.3-3.6 3.4-5.4 1.1-1.9 1.9-3.8 3-5.7 1.7-1.1 3.7-1.2 5.5-1.7.3-.2.7 0 .5.6z"/><path d="m16.6 66.4c.5 3.3 1.9 6.2 3.3 9.2.4 1.2.1 2.4.2 3.5 0 1.9.1 3.9-.1 5.9-.5.1-.8-.2-1.1-.5-2-2.7-3.8-5.6-5.1-8.8-.1-.3-.2-.7-.2-1.1.6-2.5 1.4-5 2-7.5.1-.4.1-1.3 1-.7z"/><path d="m93.5 75.3c1.5-2.8 2.7-5.8 3.2-8.9.2-.3.4-.4.6-.1s.3.6.4.9c.6 2.5 1.3 4.9 1.9 7.4 0 1.4-.8 2.5-1.4 3.7-1 2-2.2 4-3.6 5.8-.3.4-.6.9-1.4.9-.1-3.1-.3-6.2 0-9.3.1-.1.2-.3.3-.4z"/></g><path d="m108.8 48.3c-.7.6-1.4 1.1-2.1 1.7-1.2-10.8-5.8-20.3-13.1-28.8 4.7.7 14 17.7 15.2 27.1z" fill="#e83e36"/><path d="m6.6 50.1c-.7-.7-1.3-1.3-2-1.9.1-7.5 10-25.7 14.8-26.9-3.3 4.2-6.3 8.6-8.5 13.5s-3.7 10-4.3 15.3z" fill="#e83e36"/><path d="m21.9 25.4c-5.4 6.5-9 13.9-10.6 22.3-.2 1-.3 2-.4 2.9-.2 1.4-.2 1.4-1.4 2.5-.5-.1-.7-.5-1.1-1 1.3-10.4 5.4-19.7 13.1-27.2.1-.1.1-.2.2-.2 0-.1.1-.2.2-.2s.3 0 .5-.1c0 .2 0 .4-.1.5 0 .1-.1.2-.2.2-.1.1-.2.2-.2.3z" fill="#e83e36"/><path d="m91.9 24.9c6.4 6.1 10.2 13.6 12.2 22.2.3 1.4.5 2.8.7 4.3v1c-.3.2-.6.5-.9.8-.9-.6-1.4-1.2-1.5-2.3-1.1-9.6-4.9-18.1-11-25.5-.1-.1-.1-.2-.2-.3-.1-.1-.2-.1-.2-.2s0-.3-.1-.5c.2 0 .4.1.5.1s.2.1.2.2c.2 0 .3.1.3.2z" fill="#e83e35"/><path d="m109.4 61.9c-.4 3.4-1 6.7-2 9.9-.4.7-1.2.8-1.9 1-.9.3-1.8.5-2.7.7-.3.1-.6.2-1 .2-.1 0-.2-.1-.3-.2-.2-.4-.1-.7 0-1.1.9-2.3 1.4-4.7 1.9-7.1.2-.6.7-.9 1.2-1.2 1.1-.7 2.2-1.3 3.3-1.9.5-.3 1-.7 1.5-.3z" fill="#e73631"/><path d="m5.9 71.8c-.9-3.3-1.6-6.6-2-9.9.1-.1.1-.1.2-.1 2.2.7 4.1 1.7 5.7 3.4.5 2.4 1.1 4.9 1.9 7.3.1.3.2.6 0 1-.1.1-.2.2-.3.3-.3 0-.6-.1-1-.1-1.2-.4-2.4-.5-3.5-1-.3-.3-.7-.5-1-.9z" fill="#e73631"/><path d="m3.7 59.9c0-3.2-.2-6.4.5-9.8 1.7 1.7 3.3 3.2 4.7 4.9.4 1.2.2 2.4.3 3.6.2 1.1 0 2.2.2 3.3.1.4 0 .8-.4 1.1-1.3 0-2.2-1-3.3-1.6-.7-.4-1.6-.7-2-1.5z" fill="#e73631"/><path d="m104.4 54.9c1.4-1.7 3-3.1 4.8-4.9.2 1.3.3 2.4.4 3.4.1 1.9 0 3.8.1 5.7 0 .5-.2.9-.5 1.2-1.4 1.2-2.9 2.2-4.8 2.7-.3-.1-.4-.3-.4-.6.1-2.5 0-5 .4-7.5z" fill="#e73631"/><path d="m87.3 27.3c-.1 0-.1-.1-.1-.2s0-.2 0-.3h.3c0 .1.1.2.3.2 0 .2.1.2.3.3 6.2 5.8 10.3 12.8 11.5 21.3-1.3-1.1-2.7-2-3.2-3.9-1.5-6.3-4.8-11.8-8.7-16.8-.1-.1-.2-.2-.2-.3-.1-.1-.1-.2-.2-.3z" fill="#e73731"/><path d="m24.3 28.2.4-.4c.2 0 .3-.1.3-.3.1 0 .2-.1.3-.3.2 0 .2-.1.3-.3.4 0 .5.2.3.5-.1.1-.1.2-.2.3-.1.1-.2.2-.2.3-.1.1-.2.1-.2.3-.2.1-.1.3-.3.4-.1.1-.1.2-.2.3-2.6 3.7-5 7.5-6.5 11.8-.4 1.1-.9 2.3-1.1 3.4-.3 2.1-1.8 3.1-3.1 4.5-.4-4.6 4.3-14.8 10.2-20.5-.1 0-.1 0 0 0z" fill="#e73731"/><path d="m15.4 56.9c.1 1.5.2 3 .3 4.5.1.7.2 1.5-.1 2.2-.5 3.1-1.2 6.1-2.4 9-.5.1-.7-.3-.8-.6-.8-2.4-1.7-4.9-1.7-7.5 1-2.4 2.5-4.6 3.8-6.9.1-.3.3-.8.9-.7z" fill="#e73731"/><path d="m97.7 61.4c.1-1.5.2-3 .3-4.5.3-.1.5 0 .6.3 1.4 2.4 3 4.8 4.1 7.4 0 2.6-.9 5.1-1.7 7.5-.1.3-.4.7-.8.6-.3-.3-.4-.6-.5-1-.6-2.3-1.2-4.5-1.8-6.8-.4-1.2-.4-2.3-.2-3.5z" fill="#e73731"/><path d="m10.2 54.4c1.9-2 3.7-3.9 5.6-5.9.1.1.3.2.4.3-.6 2-.2 4.2-1.3 6.1-.9 2.5-2.5 4.6-3.8 6.9-.2.3-.4.6-.8.2-.8-2.5-.7-5-.1-7.6z" fill="#e73731"/><path d="m98 54.1c-.2-1.8-.5-3.5-.8-5.5 2.1 2.1 4 4 5.9 5.9.6 2.5.7 5.1-.1 7.6-.4.4-.7.1-.9-.3-1.3-2.6-3-5-4.1-7.7z" fill="#e73731"/><path d="m36.8 17.6c-.3-1.7-.6-3.4-.9-5 .2-.4.6-.5 1-.6 1.3 1.4 2.3 3.1 3.6 4.4.2-.1 0-.2 0-.3-.3-1.7-.6-3.5-1-5.2.2-.3.5-.4 1-.5.5 2.5.9 5.1 1.4 7.7-.3.2-.7.3-1.1.6-1.2-1.5-2.4-3.1-3.9-4.9.4 2.2.8 4.1 1.2 5.9-.3.3-.6.5-1.2.5-1.6-2-3.2-4-4.8-6 .2-.4.6-.4 1-.6 1.1 1.4 2.2 2.8 3.3 4.2.5.2.5 0 .4-.2z" fill="#e73832"/><path d="m97.7 61.4c-.1 2.7 1.1 5.1 1.7 7.7.2 1.2.6 2.3.9 3.5.5.3.9.7 1.5 1h .1c.3-.2.6 0 .8-.2 1.5-.7 3.2-.7 4.7-1.5-.2.7-.5 1.5-.7 2.2 0-.3-.1-.5-.5-.4-1.8.6-3.8.8-5.5 1.6-.9.5-1-.2-1.3-.8-.9-2.4-1.4-5-2.1-7.5-.1-.2.3-1.1-.6-.7.7-1.5.6-3.2 1-4.9z" fill="#fffdfc"/><path d="m13.1 72.6c.8-3 1.5-6 2.5-9 .5.9.8 1.8 1 2.8-.9-.5-.5.4-.6.6-.7 2.3-1.3 4.6-1.9 6.9-.1.2-.2.5-.3.7-.2.2 0 .6-.3.8-.3.3-.7.2-1 0-1.8-.8-3.7-1.1-5.5-1.6-.4-.1-.4.1-.5.4-.1-.8-.3-1.5-.7-2.2 1.5.7 3.2.8 4.7 1.5.2.3.6.1.8.2 0-.1.1-.1.1 0 .8-.4 1.3-.8 1.7-1.1z" fill="#fffdfc"/><path d="m98 54.1c1.7 2.6 3.2 5.3 4.7 8.1.7.1 1.1 1 2 .8 1.4-1 2.9-1.8 4.4-2.6.1.5.2 1 .3 1.6-2 .8-3.9 1.9-5.7 3.3-.8.4-1.1-.1-1.3-.8-1.2-2.1-2.4-4.2-3.7-6.3-.2-.4-.3-1-.8-1.2.1-1 .1-2 .1-2.9z" fill="#fffdfc"/><path d="m21.6 78.4c-.2.1-.2.3-.2.5v8.2c3.5 4 7.4 7.3 12 9.9.2.1.5.1.7.2.5 0 .4.3.3.6-.3.5-.6.9-1.2.6-4.4-2.7-8.5-5.8-11.9-9.7-.3-.3-.5-.6-.8-1 .1-.2.4-.1.5-.3.1-.1.2-.2.2-.2 0-3.1 0-6.1 0-9.2.3 0 .3.2.4.4z" fill="#fef4f1"/><path d="m79.3 97.2c2-.7 3.6-2.1 5.3-3.3 2.7-2 5.1-4.3 7.3-6.8 0-2.7 0-5.4 0-8.2 0-.2 0-.4-.2-.5.1-.1.1-.3.2-.4h.3v9.3c.1.1.2.2.2.2.1.2.4.1.5.3-3.3 4-7.3 7.2-11.6 9.9-.3.2-.7.5-1 .7-.7.3-1-.2-1.2-.6-.1-.3-.3-.6.2-.6z" fill="#fef4f1"/><path d="m70.2 15.5c.6-2 1-3.6 1.5-5.2.4-.2.6 0 1 .3-.7 2.3-1.4 4.7-2 7-.5.1-.8 0-1.2-.3-.4-2.1-.9-4.2-1.3-6.3-.1 0-.1 0-.2 0-.5 1.8-1.1 3.6-1.6 5.4-.4.1-.6 0-1-.2.7-2.4 1.4-4.8 2.1-7.2.5.1.9.2 1.4.3.3 1.9.8 3.9 1.3 6.2z" fill="#e73832"/><path d="m58.9 11.2c1 .7 1.4 1.5 1 2.6s-1.2 1.6-2.3 1.6c-.9 0-1.8 0-2.8 0 0-2.6 0-5 0-7.6h2.7c.8 0 1.6.1 2 1 .5.9.2 1.7-.6 2.4z" fill="#e73832"/><path d="m10.7 62.1c1.3-2.4 2.7-4.9 4.2-7.2-.1.7.5 1.3.5 2-1.4 1.7-2.3 3.8-3.5 5.7-.4.6-.7 1.2-1.1 1.8-.2.7-.4 1.2-1.3.8-1.7-1.3-3.6-2.5-5.6-3.3 0-.2 0-.3 0-.5.2.1.4.1.5.2.1-.7-.9-1-.8-1.7 1.7 1 3.3 2 5 3 .9.2 1.4-.5 2.1-.8z" fill="#fffcfc"/><path d="m76.8 19.4c.3-.5.5-1 .8-1.5-.5-.3-.9-.5-1.3-.7-.1-.4.1-.6.4-.9.7.4 1.5.7 2.4 1.2-.5 1-1 2-1.4 2.9-2.2.2-4.1-.9-4.6-2.4-.5-1.7.6-4.3 2.2-5.1 1.7-.9 3.6-.2 5.2 1.8-.2.3-.3.7-.6 1.2-.9-1.3-1.8-2.6-3.6-2.2-1.3.3-2.3 2.2-2.2 3.6.1 1 .9 1.7 2.7 2.1z" fill="#e73832"/><path d="m33 98.4c1-.5 1-.5 1-1.2-.7-2.5-1.3-4.9-2-7.4.5.5 1.1.9.8 1.7.6.3.4-.9 1-.4.2.2.1.5.2.7.6 2.3 1.2 4.7 1.8 7.2-2.6.8-5.1 1.5-7.7 2.2-.3-.7-1.2-.4-1.6-1.1l5.7-1.5c.3-.1.7.1.8-.2z" fill="#fffcfc"/><path d="m79.3 97.2c-.3.9.6.9 1 1.2.2.4.6.1.8.3 1.9.5 3.8 1 5.7 1.5-.3.5-.7.2-1.1 0s-.8-.3-1.1.1c-.1.6 1 .2.6.9-2.5-.7-5-1.5-7.7-2.2.6-2.5 1.2-4.8 1.8-7.2.1-.2 0-.5.2-.7.7-.3 1.2-.9 1.8-1.3-.6 2.4-1.3 4.9-2 7.4z" fill="#fffcfb"/><path d="m45.1 13.3c.2.9.4 1.7.6 2.5 1.2-.3 2.3-.5 3.4-.7.4.2.4.6.3.9-1.5.4-3 .7-4.6 1.1-.6-2.4-1.2-4.9-1.8-7.5 1.5-.4 3-.7 4.5-1.1.4.2.5.5.4 1-1.1.3-2.2.6-3.3.8-.3.7.2 1.1.2 1.8 1.1-.2 2.2-.5 3.3-.7.1.3.1.6.3.9-1.1.4-2.1.7-3.3 1z" fill="#e73932"/><path d="m99.5 74.6c.3.4.6.9 1.3.8-1.5 3.9-3.7 7.3-6.3 10.8 1 .1 1.9.1 2.8.1.1 0 .1.1.1.1l-.1.1c-.4 0-.8 0-1.2 0-.1.1-.2.1-.2 0-.2 0-.3 0-.5 0-.1.1-.2.1-.3 0-.3 0-.6 0-.8-.2s-.5 0-.7-.3c-.1-.1-.1-.4-.2-.5-.2-.3-.2-.7 0-1 0-.3 0-.7 0-1-.1-.7-.1-1.5 0-2.2 0-.2 0-.3 0-.5-.2-1.6-.2-3.1 0-4.7 0-.2 0-.3 0-.5.1-.1.1-.1.2 0v9.3c.5.1.5-.2.7-.4 1.9-2.6 3.6-5.4 4.9-8.3 0-.6.3-1.1.3-1.6z" fill="#fef4f1"/><path d="m12.6 75.3c.3 0 .5 0 .8-.1.2-.3.3-.5.5-.7 0 1.3.8 2.2 1.3 3.3 1.2 2.5 2.7 4.9 4.7 7 0-3.1 0-6.2 0-9.3.1.2.2.3.2.5.2.7.1 1.5 0 2.2v.5c.1.7.2 1.3 0 2v .5c.2.7.2 1.5 0 2.2v.8c.2.4.2.8 0 1.2-.2.1-.1.4-.3.5-.2.2-.5 0-.7.3-.7.5-1.5.1-2.2.2-.1.1-.2.1-.2 0-.2 0-.3 0-.5 0-.1 0-.1-.1-.1-.1l.1-.1h2.8c-2.6-3.5-4.9-7-6.4-10.9z" fill="#fef4f1"/><path d="m51.3 14.7c-.2-1.9-.4-3.6-.6-5.5-.2-.3-1.3 0-.9-1 .9-.1 1.8-.2 2.7-.3.5.9-.3.9-.7 1.1.2 1.8.4 3.7.6 5.6.4.2 1.3 0 .9.9-.9.1-1.8.2-2.7.3-.5-.7.2-.8.7-1.1z" fill="#e73b34"/><path d="m63.2 14.9c.2.4.6.2.8.4s0 .5 0 .8c-1-.1-2-.1-2.9-.4-.2-.9.5-.7 1-.8.3-1.8.5-3.6.8-5.4-.1-.5-1.3-.2-.7-1.2.9-.2 1.8.2 2.7.2.3 1-.3.9-.9.9-.3 1.8-.6 3.6-.8 5.5z" fill="#e73a33"/><path d="m10.7 62.1c-.5.8-1 1.3-2 .8.9 0 .4-.6.4-1-.1-2.3-.5-4.7-.2-7h .7c.2-.2.4-.3.6-.5-.1 2.3-.2 4.7.2 7 0 .3-.1.6.3.7z" fill="#fef2ee"/><path d="m104.7 62.9c-1 .6-1.5-.1-2-.8.5-.7.4-1.5.5-2.2.1-1.8 0-3.7 0-5.5.2.2.4.3.6.5h.7c.3 2.3 0 4.7-.2 7-.1.4-.5 1 .4 1z" fill="#fef3ef"/><path d="m65.3 6.7c.1.3.1.6-.1.9-1-.1-2-.3-3-.4-.3-.4-.1-.6 0-.9 1.1.1 2.1.2 3.1.4z" fill="#e84137"/><path d="m43.3 6.8c.6-.4.9-.4 1.3-.4.5.5 1 1 1.2 1.7-1.3.4-1.5-.9-2.5-1.3z" fill="#e84138"/><path d="m19.9 87.5c-1.7 0-3.3 0-5 .1-.3 0-.9-.3-1 .4-.2-.2-.3-.4-.3-.8 2.1.2 4.2-.3 6.3.3z" fill="#fffbfa"/><path d="m99.5 88c-.1-.7-.6-.4-1-.4-1.7-.1-3.3-.1-5-.1.1-.2.2-.4.4-.4 1.9.2 3.8 0 5.8.1.2.4 0 .6-.2.8z" fill="#fffbfa"/><path d="m93.2 76.1v4.7c-.4-1.6-.4-3.2 0-4.7z" fill="#fffbfa"/><path d="m97.2 86.5c0-.1 0-.1 0-.2 1.2 0 2.3-.1 3.5-.1-.7.9-1.8.1-2.6.4-.3 0-.6-.1-.9-.1z" fill="#fffbfa"/><path d="m16.1 86.3v.2c-.9 0-1.8.1-2.7.1-.4 0-.6-.1-.8-.4 1.2 0 2.4 0 3.5.1z" fill="#fffbfa"/><path d="m20.1 83.5c0-.7 0-1.5 0-2.2.5.7.5 1.5 0 2.2z" fill="#fffbfa"/><path d="m93.2 81.3v2.2c-.4-.7-.4-1.5 0-2.2z" fill="#fffbfa"/><path d="m15.6 63.6c0-.7.1-1.5.1-2.2.3.7.4 1.5-.1 2.2z" fill="#fffdfc"/><path d="m20.1 78.3c0-.7 0-1.5 0-2.2.4.7.4 1.4 0 2.2z" fill="#fffbfa"/><path d="m20.1 80.8c0-.7 0-1.3 0-2 .4.7.4 1.3 0 2z" fill="#fffbfa"/><path d="m25.8 27.5c0-.2-.1-.4-.3-.5.1-.3.3-.5.6-.2.2.4 0 .6-.3.7z" fill="#ea5243"/><path d="m20.1 85.5c0-.4 0-.8 0-1.2.5.4.5.8 0 1.2z" fill="#fffbfa"/><path d="m93.2 84.5v1c-.3-.3-.3-.6 0-1z" fill="#fffbfa"/><path d="m36.8 17.6c.2.2.3.4.1.6-.2 0-.3-.2-.4-.4.1 0 .2-.1.3-.2z" fill="#f8bdac"/><path d="m20.9 87.5c-.1.2-.3.2-.5.3-.2-.1-.3-.2-.5-.2.3-.1.6-.1 1-.1z" fill="#fffbfa"/><path d="m93 87.8c-.2 0-.4 0-.5-.3h1c-.2.1-.3.2-.5.3z" fill="#fffbfa"/><path d="m34 91.8c-.3-.2-.2-.5-.2-.7.2.1.3.2.5.4-.1 0-.2.1-.3.3z" fill="#f39981"/><path d="m79.5 91c0 .3.1.5-.2.7-.1-.1-.2-.2-.3-.3.2-.1.3-.2.5-.4z" fill="#f29881"/><path d="m40.5 16.1c.2.1.2.3.2.5-.2 0-.2-.1-.2-.2s0-.2 0-.3z" fill="#f8beac"/><path d="m19.1 86.3c.2-.3.5-.2.7-.3-.1.3-.4.2-.7.3z" fill="#fffbfa"/><path d="m93.5 86c .3 0 .6 0 .7.3-.3-.1-.6 0-.7-.3z" fill="#fffbfa"/><path d="m93.2 85.5c.2.1.2.3.2.5-.1-.1-.2-.3-.2-.5z" fill="#fffbfa"/><path d="m19.9 86c0-.2 0-.4.3-.5-.1.2-.1.4-.3.5z" fill="#fffbfa"/><path d="m24.8 28.8c0-.2.1-.4.3-.4-.1.1-.2.2-.3.4z" fill="#ea5243"/><path d="m24.3 28.2c0 .1-.1.1-.2.2.1-.1.2-.2.2-.2z" fill="#ea5243"/><path d="m21.1 87.3c-.1.1-.2.2-.2.2 0-.1.1-.2.2-.2z" fill="#fffbfa"/><path d="m92.5 87.5c-.1-.1-.2-.2-.2-.2s.1.1.2.2z" fill="#fffbfa"/><path d="m25.4 28.1c.1-.1.2-.2.2-.3-.1.1-.2.2-.2.3z" fill="#ea5243"/><path d="m87.5 27.6c.1.1.1.2.2.3 0-.2-.1-.2-.2-.3z" fill="#ec6450"/><path d="m25.6 27.8c.1-.1.1-.2.2-.3-.1.2-.1.2-.2.3z" fill="#ea5243"/><path d="m25.1 27.5c0 .2-.1.2-.3.3 0-.1.1-.2.3-.3z" fill="#ea5243"/><path d="m87.3 27.3c.1.1.1.2.2.2-.1 0-.1-.1-.2-.2z" fill="#ec6450"/><path d="m91.7 24.6c-.1-.1-.1-.1-.2-.2 0 .1.1.1.2.2z" fill="#ed6b56"/><path d="m25.3 27.3c-.1.1-.2.2-.3.3.1-.2.2-.2.3-.3z" fill="#ea5243"/><path d="m21.6 24.6c-.1.1-.2.1-.2.2.1 0 .1-.1.2-.2z" fill="#ed6b56"/><path d="m86.9 100.1c.1-.1.2-.1.4-.2-.2.1-.3.2-.4.2z" fill="#fffcfb"/><path d="m88.1 27.3c-.2 0-.3-.1-.3-.3.1.1.2.2.3.3z" fill="#ec6450"/><path d="m25.6 27c-.1.1-.2.2-.3.3.1-.1.2-.2.3-.3z" fill="#ea5243"/><path d="m87.8 27c-.1-.1-.2-.2-.3-.2.1.1.2.2.3.2z" fill="#ec6450"/><path d="m91.9 24.9c-.1-.1-.2-.1-.2-.2.1 0 .2.1.2.2z" fill="#ed6b56"/><path d="m24.6 29.1c.1-.1.1-.2.2-.3-.1.1-.1.2-.2.3z" fill="#ea5243"/><path d="m87.2 26.8v.3c-.2-.1-.2-.2 0-.3z" fill="#ec6450"/><path d="m22.1 25.1c.1-.1.1-.2.2-.2-.1 0-.1.1-.2.2z" fill="#ed6b56"/><path d="m87.5 26.8c-.1 0-.2 0-.3 0 0-.1.1-.1.1-.2.1.1.2.1.2.2z" fill="#ec6450"/><path d="m93.4 75.6c-.1 0-.1 0-.2 0 .1-.1.2-.2.2-.2.1 0 0 .1 0 .2z" fill="#fffbfa"/><path d="m16.6 86.5h.2l-.1.1s0 0-.1-.1z" fill="#fffbfa"/><path d="m95 86.5h.3c-.2.2-.3.1-.3 0z" fill="#fffbfa"/><path d="m91.2 25.1c.1.1.1.2.2.3 0-.1-.1-.2-.2-.3z" fill="#ed6b56"/><path d="m21.9 24.4c-.1.1-.1.1-.2.2 0-.1.1-.1.2-.2z" fill="#ed6b56"/><path d="m95.7 86.5h.2-.2c.1.1 0 0 0 0z" fill="#fffbfa"/><path d="m91 24.8c.1.1.1.2.2.2 0 0-.1-.1-.2-.2z" fill="#ed6b56"/><path d="m25.1 28.4c.1-.1.2-.2.2-.3 0 .1-.1.2-.2.3z" fill="#ea5243"/><path d="m21.9 25.4c.1-.1.1-.2.2-.3-.1.1-.2.2-.2.3z" fill="#ed6b56"/><path d="m56.7 88.4c-8.5-10.8-16.8-21.2-25.1-31.7 8.3-10.5 16.6-21 25.1-31.7v28.7c.6.3 1.1.2 1.5.2h9.6c2 0 3.3 1.2 3.4 2.9 0 1.8-1.3 3-3.3 3-3.6 0-7.3 0-11.1 0-.1 9.5-.1 18.9-.1 28.6z" fill="#fff"/><path d="m53 103.9c.5.9 1.1 1.7 1.4 2.7-.2.2-.5.4-.7.5-.2.2-.5.1-.7.1-.8-.9-1.4-2-1.8-3.2-.3.8-.5 1.7-.4 2.6.4.4.9.2 1.3.4.5.2 1.1.3 1.6.4.4.1.7.2 1.1.3.3.5.2.9-.3 1.3-3.3-.4-6.7-.9-10-1.4-.2-.6-.2-.9.1-1.3 1.4-.2 2.7.4 4.2.3.4-1.1.3-2.2.6-3.4-1.2-.2-2.3-.3-3.4-.5-.4-.4-.3-.8 0-1.3 1.1-.1 2.2.3 3.4.3.3-.7.4-1.5.4-2.4-1.3-.2-2.5-.4-3.7-.6-.4-.6-.2-1 .2-1.4 3 .4 6.1.8 9.1 1.2.5.5.4.9-.2 1.4-1.2-.1-2.5-.3-3.9-.5-.1.8-.2 1.6-.4 2.3 1.3.4 2.5.2 3.7.7.2.4.2.8-.1 1.1-.5.6-1 .3-1.5.4z" fill="#fffefe"/><path d="m62.2 105.4c-.4 1.7-1.9 2.5-3.1 3.5-.5-.3-.9-.5-1-1.1.9-.7 1.8-1.4 2.5-2.3.1-.1.1-.1.1-.2 0 0 0 0-.1 0-.4 0-.9 0-1.4 0-.5-1-.4-2.1-.6-3.2-.1-.3.1-.5.5-.6.2-.1.4-.2.6-.2s.4-.1.6-.1c.1 0 .2-.1.3-.1.2 0 .3 0 .5-.1.2 0 .4-.1.6-.2.3-.1.6-.1.8-.1.4 0 .8-.1 1.2-.2h.5s.3 0 .5 0c .3 0 .6-.1.8.1.3 0 .7-.1 1.1.3.1.9.3 2.1.4 3-.4.6-.9.5-1.4.7 1.1.7 2.3 1.1 3.1 2 0 .6-.3.8-.8 1-1.2-.7-2.4-1.3-3.5-2-.3-.3 0-.6 0-.9s-.1 0-.2 0c-.8 0-.4.5-.4.9 0 1 .5 1.9-.1 2.9-.6.3-1.3.5-2 .4-.5-.3-.6-.6-.6-1 .3-.6.8-.4 1.3-.6.1-.6 0-1.3-.2-1.9.1-.1 0-.1 0 0z" fill="#fffefe"/><path d="m59.2 101.2c-.5 0-1.1 0-1.6 0-.3-.3-.4-.6-.2-1.1 1.2-.5 2.6-.4 3.9-.7-.3-.7-.1-1.2.7-1.4.5.2.7.7 1.2 1.1 1.3-.2 2.7-.3 4-.5.4.3.6.6.5 1-.5.6-1.3.5-2 .6-.3.2-.6.2-1 .3-.1 0-.2 0-.3 0-.2 0-.3 0-.5 0-.4 0-.8.2-1.2.2-.3 0-.6 0-.9 0-.3.1-.5.1-.8.2-.1 0-.2 0-.3 0-.2 0-.3.1-.5.1-.4.2-.7.2-1 .2z" fill="#fffdfd"/><path d="m59.2 101.2c.3-.3.6-.3 1-.2.1 0 .1.1.1.2v.1c-.1.1-.2.1-.4.2-.2 0-.5 0-.7 0-.1-.2-.1-.3 0-.3z" fill="#ef7963"/><path d="m53.7 107.4c-.6 0-1.2.1-1.8-.2.4-.4.8-.2 1.2 0h .6z" fill="#ea5243"/><path d="m64.6 100.4c.3-.2.7-.3 1.1-.2v.2c-.2.2-.5.3-.8.2-.1 0-.3-.1-.3-.2z" fill="#f39a84"/><path d="m62.2 105.4c-.1-.1-.2-.2-.4-.3.5-.1.5-.1.6.3-.1 0-.2 0-.2 0z" fill="#e73631"/><path d="m60.6 105.2c.1-.1.2-.3.3-.1 0 .2-.1.3-.3.4.1-.2.1-.3 0-.3z" fill="#f9d0c1"/><path d="m64.4 104.6c.1-.1.2-.1.3-.2.2.2 0 .2-.1.2z" fill="#facfc1"/><path d="m81.1 98.7c-.3 0-.6.1-.8-.3.3.1.5.2.8.3z" fill="#fef4f1"/><path d="m33 98.4c-.1.4-.5.3-.8.3.3-.1.6-.2.8-.3z" fill="#fef4f1"/><path d="m102.5 64.4c.3.5.6.8 1.3.8-.3 2.4-1 4.7-1.7 6.9-.2.5-.4.9-.3 1.4-.8.2-1.2-.3-1.5-1 1-1 1-2.3 1.4-3.5.3-1.4.8-3 .8-4.6z" fill="#fef3ef"/><path d="m102.7 73.3c-.2.3-.5.3-.8.2.2-.2.5-.2.8-.2z" fill="#fef3ef"/><path d="m9.6 65.1c.6.1 1-.3 1.3-.8.2 2.8 1 5.4 2 8 0 .1.2.1.3.2-.3.7-.6 1.3-1.5 1-.1-1.4-.8-2.7-1.1-4-.4-1.5-.8-2.9-1-4.4z" fill="#fef3ef"/><path d="m11.5 73.5c-.3 0-.6.1-.8-.2.3 0 .6 0 .8.2z" fill="#fef3ef"/><path d="m56 14.4c0-.9 0-1.6 0-2.5 1 0 1.9-.4 2.7.5.3.4.3.9 0 1.4-.7.9-1.7.6-2.7.6z" fill="#fffcfb"/><path d="m56.2 10.9c-.3-.7-.2-1.3-.1-1.9.7-.4 1.4-.1 2.1 0 .5.4.6.9.3 1.4-.7.7-1.5.4-2.3.5z" fill="#fef7f4"/><path d="m56.7 54.9h10.9c1.6 0 2.5.7 2.5 2 0 1.2-.9 2-2.4 2-7.3 0-14.6 0-22 0-1.5 0-2.5-.8-2.4-2 0-1.2.9-2 2.5-2z" fill="#e73631"/><path d="m53.1 107.1c-.4 0-.8 0-1.2 0-.5 0-1.1 0-1.6-.2.1-1.1.3-2.2.4-3.2.4-.3.7 0 1-.1-.4 1.6 1.1 2.3 1.4 3.5z" fill="#e73c34"/><path d="m53 103.9c-.1 0-.1-.1-.2-.1.1-.1.1 0 .2.1z" fill="#f5a68f"/><path d="m65.2 102c .2.3.3.6.2 1-1.6.2-3.2.4-4.8.7-.3-.2-.2-.6-.3-.9 1.6-.3 3.3-.5 4.9-.8z" fill="#e83e35"/><path d="m62.6 100.7c.4-.2.8-.3 1.3-.2.1 0 .1.1.1.1l-.1.1c-.4.1-.8.3-1.3.2 0-.1-.1-.1 0-.2z" fill="#ee715b"/><path d="m60.9 100.9c.2-.2.5-.2.8-.2.1.1.1.1.1.2l-.1.1c-.1.2-.3.2-.5.2-.2-.1-.3-.2-.3-.3z" fill="#f4a38d"/><path d="m61.6 101c0-.1 0-.2 0-.2h1v .2c-.3-.1-.6-.1-1 0z" fill="#ea5847"/><path d="m64.6 100.4c.1.1.2.2.3.2-.2 0-.3 0-.5 0-.1 0-.1-.1-.1-.1l.1-.1z" fill="#ef7962"/><path d="m64.4 100.4v.2c-.2 0-.3 0-.5 0 0-.1 0-.1 0-.2.1.1.3.1.5 0z" fill="#e7362f"/><path d="m60.2 101.2c0-.1 0-.1 0-.2h.5c.1 0 .1.1.1.1l-.1.1c-.1 0-.2.1-.2.1-.2 0-.3 0-.3-.1z" fill="#e73e35"/><path d="m60.6 101.1c0-.1 0-.1 0-.2.1-.1.1-.1.2-.1.1.1.2.2.3.3-.1 0-.3 0-.5 0z" fill="#ed6b56"/><path d="m60.2 101.2c.1 0 .2 0 .2.1-.2.2-.4.2-.6.2.1-.2.2-.3.4-.3z" fill="#fffdfd"/></svg>