<?xml version="1.0" encoding="utf-8"?>
<!-- Generator: Adobe Illustrator 23.0.1, SVG Export Plug-In . SVG Version: 6.00 Build 0)  -->
<svg version="1.1" id="Capa_1" xmlns="http://www.w3.org/2000/svg" xmlns:xlink="http://www.w3.org/1999/xlink" x="0px" y="0px"
	 viewBox="0 0 548.6 548.6" style="enable-background:new 0 0 548.6 548.6;" xml:space="preserve">
<style type="text/css">
	.st0{fill:#F9C708;stroke:#44592C;stroke-width:10;stroke-miterlimit:10;}
	.st1{fill:none;stroke:#839737;stroke-width:10.21;stroke-miterlimit:10;}
	.st2{fill:none;stroke:#839737;stroke-width:6.64;stroke-miterlimit:10;}
	.st3{fill:#839737;}
	.st4{fill:#839737;stroke:#839736;stroke-width:4;stroke-miterlimit:10;}
	.st5{fill:#44592C;}
	.st6{font-family:'Playbill';}
	.st7{font-size:80px;}
	.st8{fill:none;stroke:#F9C706;stroke-miterlimit:10;}
	.st9{font-size:79.5668px;}
	.st10{font-size:80.1359px;}
	.st11{font-size:80.1918px;}
	.st12{font-size:71.78px;}
	.st13{fill:none;stroke:#F9C706;stroke-linecap:round;stroke-linejoin:round;}
	.st14{font-size:71.6435px;}
	.st15{font-size:71.5679px;}
	.st16{font-size:72.0093px;}
	.st17{font-size:72.0844px;}
</style>
<circle class="st0" cx="274.3" cy="274.3" r="269.3"/>
<circle class="st1" cx="274.3" cy="274.3" r="260.1"/>
<circle class="st2" cx="274.3" cy="274.3" r="194.8"/>
<path class="st3" d="M174.5,306.3c-1.5,6.5,1.2,10.8,7.8,12.5c0.5,0.1,1.4-0.1,1.4,0.8c0,1.1,0,2.2-0.1,3.3c0,0.1-0.8,0.3-1.2,0.3
	h-23.8c-1.1,0-1.4-0.5-1.4-1.5c0-2.5-0.1-2.5,2.3-3.2c1.4-0.4,2.7-1,3.9-1.8c2.3-1.5,3.7-3.5,3.4-6.4c-0.1-1.3-0.1-2.5-0.1-4.1
	c-1.4,1.5-2.6,2.7-3.7,4c-1.8,2-3.9,3.6-6.3,4.9c-7.1,4-14.4-1.9-15.4-8c-0.8-5.1,0.7-9.7,2.9-14.2c4.1-8.5,10.3-15.3,17.5-21.1
	c2.5-2,5.1-3.9,7.8-5.6c0.6-0.3,1-0.7,1.8-0.2c9.4,6,17.6,13.3,23.4,22.9c2.8,4.6,5.1,9.5,5.3,15c0.2,6.8-4.3,12.2-10.6,12.4
	c-2.5,0-5-0.8-6.9-2.4c-2.4-1.8-4.7-3.9-6.6-6.3C175.3,307.2,174.9,306.8,174.5,306.3L174.5,306.3z"/>
<path class="st3" d="M380.6,265.4c6,0.6,9.7,7.1,9.2,12c-0.3,4.3-2.9,8.1-6.9,9.8c-1.3,0.6-1.2,1.1-0.6,2c1.2,1.8,2.6,1.6,3.6-0.3
	c2.8-5.8,9.7-8.2,15.5-5.4c4.8,2.3,7.4,7.6,6.3,12.9c-0.9,4.7-4.6,8.3-9.3,9.1c-4.9,0.9-9.8-1.4-12.2-5.7c-0.4-0.7-0.1-2.1-1.5-1.9
	c-1.6,0.3-2.8,1.7-2.9,3.3c0,2.2,0.2,4.4,0,6.6c-0.2,2,0.7,3.9,2.4,5.1c1.5,1.3,3.3,2.2,5.3,2.6c0.5,0.1,1.3,0,1.3,0.7
	c0,1.1,0.4,2.2-0.1,3.2c-0.2,0.4-0.8,0.3-1.2,0.3c-7.5,0-14.9,0-22.4,0c-0.7,0-1.7,0.1-1.5-1s-1-2.7,1-3.1c1.8-0.4,3.5-1.1,5.1-2.1
	c2.9-1.9,3.1-4.8,3-7.8c-0.1-1.5,0-2.9,0-4.4c0-0.5-0.1-1.1-0.3-1.5c-0.4-0.8-1.1-1.4-2-1.7c-0.9-0.1-0.9,1-1.3,1.6
	c-2.8,4.8-7.5,7-12.5,5.9c-6.1-1.1-10.2-7-9.1-13.2c0,0,0-0.1,0-0.1c1.4-6.2,5.5-9.9,11.5-9.8c4.8,0.1,8.3,2.4,10.5,6.7
	c0.3,0.5,0.2,1.4,1.1,1.2c1-0.2,1.8-0.9,2-1.9c0.3-1-0.6-1-1.2-1.3c-5.8-2.7-8.3-9.7-5.6-15.5c1.8-3.9,5.6-6.4,9.9-6.7
	C378.6,265,379.6,265.2,380.6,265.4L380.6,265.4z"/>
<path class="st3" d="M274.3,138.9c2.2-3.3,4.9-6.3,8-8.8c5.9-4.6,14.4-3.6,19,2.2c0.4,0.5,0.7,1,1,1.5c1.4,2.7,1.8,5.8,1.1,8.8
	c-1.1,6.6-4.3,12.2-8.3,17.4c-5.5,7.1-12.3,13.2-20.1,17.9c-0.7,0.5-1.6,0.5-2.3,0c-7.4-4.6-13.9-10.5-19.2-17.4
	c-4-5.3-7.4-11-8.6-17.8c-0.8-4.6-0.2-8.9,3.6-12.2c4.8-4.5,12-4.8,17.2-0.9C269.3,132.2,272.1,135.3,274.3,138.9z"/>
<path class="st3" d="M246.4,388.8c0.2-0.2,0.4-0.5,0.6-0.7c8.8-9,17.6-18,26.5-27c0.7-0.7,1.1-0.9,1.9,0c5.5,5.8,11,11.5,16.6,17.2
	c3.2,3.3,6.5,6.7,9.7,10c0.6,0.6,0.9,1,0.1,1.8c-8.9,9-17.8,18.1-26.7,27.3c-1,1-1.4,0.2-1.9-0.4l-22.4-23.3
	c-1.2-1.3-2.5-2.6-3.7-3.9C246.6,389.6,246.4,389.2,246.4,388.8L246.4,388.8z"/>
<path class="st4" d="M24.8,225.6l42.3,7.7c3.7,2.2,8,2.3,12.3,3.4c-2.9,12.7-4.3,25.8-4.1,38.8c0.1,6.6,2,30.6,3.8,37.3l-54.7,10.8
	C18.3,290.7,17.6,258.4,24.8,225.6z"/>
<path class="st4" d="M523.6,323.6l-34.7-6.3c-6.2-3-13.1-3.1-20-4.8c6-25.2,5.5-50.5,1-75.2c0.9-1.3,2.4-2,3.9-2.1
	c16.8-2.6,33.3-6.7,50.5-9.5C530.5,258.5,530.9,290.8,523.6,323.6z"/>
<g>
	<text transform="matrix(0.8672 -0.498 0.498 0.8672 159.4201 109.3902)" class="st5 st6 st7">W</text>
	<text transform="matrix(0.8672 -0.498 0.498 0.8672 159.4201 109.3902)" class="st8 st6 st7">W</text>
	<text transform="matrix(0.9282 -0.372 0.372 0.9282 192.4001 91.4)" class="st5 st6 st7">I</text>
	<text transform="matrix(0.9282 -0.372 0.372 0.9282 192.4001 91.4)" class="st8 st6 st7">I</text>
	<text transform="matrix(0.9652 -0.2614 0.2614 0.9652 209.5701 84.4094)" class="st5 st6 st9">L</text>
	<text transform="matrix(0.9652 -0.2614 0.2614 0.9652 209.5701 84.4094)" class="st8 st6 st9">L</text>
	<text transform="matrix(0.9916 -0.129 0.129 0.9916 235.36 77.46)" class="st5 st6 st7">D</text>
	<text transform="matrix(0.9916 -0.129 0.129 0.9916 235.36 77.46)" class="st8 st6 st7">D</text>
	<text transform="matrix(0.9901 0.1404 -0.1404 0.9901 289.69 74.2901)" class="st5 st6 st7">B</text>
	<text transform="matrix(0.9901 0.1404 -0.1404 0.9901 289.69 74.2901)" class="st8 st6 st7">B</text>
	<text transform="matrix(0.9684 0.2496 -0.2496 0.9684 317.6697 78.6905)" class="st5 st6 st10">I</text>
	<text transform="matrix(0.9684 0.2496 -0.2496 0.9684 317.6697 78.6905)" class="st8 st6 st10">I</text>
	<text transform="matrix(0.932 0.3624 -0.3624 0.932 335.6 83.3001)" class="st5 st6 st7">L</text>
	<text transform="matrix(0.932 0.3624 -0.3624 0.932 335.6 83.3001)" class="st8 st6 st7">L</text>
	<text transform="matrix(0.8779 0.4789 -0.4789 0.8779 360.5096 93.1499)" class="st5 st6 st11">L</text>
	<text transform="matrix(0.8779 0.4789 -0.4789 0.8779 360.5096 93.1499)" class="st8 st6 st11">L</text>
	<text transform="matrix(0.4155 0.9096 -0.9096 0.4155 41.3805 368.41)" class="st5 st6 st12">L</text>
	<text transform="matrix(0.4155 0.9096 -0.9096 0.4155 41.3805 368.41)" class="st13 st6 st12">L</text>
	<text transform="matrix(0.5173 0.8558 -0.8558 0.5173 53.8497 394.77)" class="st5 st6 st12">E</text>
	<text transform="matrix(0.5173 0.8558 -0.8558 0.5173 53.8497 394.77)" class="st13 st6 st12">E</text>
	<text transform="matrix(0.6112 0.7915 -0.7915 0.6112 69.5602 419.9397)" class="st5 st6 st14">G</text>
	<text transform="matrix(0.6112 0.7915 -0.7915 0.6112 69.5602 419.9397)" class="st13 st6 st14">G</text>
	<text transform="matrix(0.7021 0.7121 -0.7121 0.7021 88.2805 443.2498)" class="st5 st6 st15">E</text>
	<text transform="matrix(0.7021 0.7121 -0.7121 0.7021 88.2805 443.2498)" class="st13 st6 st15">E</text>
	<text transform="matrix(0.7915 0.6112 -0.6112 0.7915 109.6697 464.2998)" class="st5 st6 st14">N</text>
	<text transform="matrix(0.7915 0.6112 -0.6112 0.7915 109.6697 464.2998)" class="st13 st6 st14">N</text>
	<text transform="matrix(0.8637 0.5041 -0.5041 0.8637 137.4602 485.0599)" class="st5 st6 st12">D</text>
	<text transform="matrix(0.8637 0.5041 -0.5041 0.8637 137.4602 485.0599)" class="st13 st6 st12">D</text>
	<text transform="matrix(0.9191 0.3941 -0.3941 0.9191 164.3101 500.2101)" class="st5 st6 st12">A</text>
	<text transform="matrix(0.9191 0.3941 -0.3941 0.9191 164.3101 500.2101)" class="st13 st6 st12">A</text>
	<text transform="matrix(0.9619 0.2733 -0.2733 0.9619 193.3101 512.1901)" class="st5 st6 st12">R</text>
	<text transform="matrix(0.9619 0.2733 -0.2733 0.9619 193.3101 512.1901)" class="st13 st6 st12">R</text>
	<text transform="matrix(0.9887 0.1497 -0.1497 0.9887 225.5701 520.77)" class="st5 st6 st12">Y</text>
	<text transform="matrix(0.9887 0.1497 -0.1497 0.9887 225.5701 520.77)" class="st13 st6 st12">Y</text>
	<text transform="matrix(0.9968 -7.974522e-02 7.974522e-02 0.9968 284.1003 525.3894)" class="st5 st6 st16">G</text>
	<text transform="matrix(0.9968 -7.974522e-02 7.974522e-02 0.9968 284.1003 525.3894)" class="st13 st6 st16">G</text>
	<text transform="matrix(0.9793 -0.2026 0.2026 0.9793 313.87 522.45)" class="st5 st6 st12">U</text>
	<text transform="matrix(0.9793 -0.2026 0.2026 0.9793 313.87 522.45)" class="st13 st6 st12">U</text>
	<text transform="matrix(0.9447 -0.3279 0.3279 0.9447 343.47 515.96)" class="st5 st6 st12">N</text>
	<text transform="matrix(0.9447 -0.3279 0.3279 0.9447 343.47 515.96)" class="st13 st6 st12">N</text>
	<text transform="matrix(0.8995 -0.437 0.437 0.8995 376.04 503.86)" class="st5 st6 st12">S</text>
	<text transform="matrix(0.8995 -0.437 0.437 0.8995 376.04 503.86)" class="st13 st6 st12">S</text>
	<text transform="matrix(0.8429 -0.538 0.538 0.8429 400.24 491.63)" class="st5 st6 st12">L</text>
	<text transform="matrix(0.8429 -0.538 0.538 0.8429 400.24 491.63)" class="st13 st6 st12">L</text>
	<text transform="matrix(0.7856 -0.6187 0.6187 0.7856 424.11 475.7898)" class="st5 st6 st12">I</text>
	<text transform="matrix(0.7856 -0.6187 0.6187 0.7856 424.11 475.7898)" class="st13 st6 st12">I</text>
	<text transform="matrix(0.7121 -0.7021 0.7021 0.7121 440.8798 462.5396)" class="st5 st6 st15">N</text>
	<text transform="matrix(0.7121 -0.7021 0.7021 0.7121 440.8798 462.5396)" class="st13 st6 st15">N</text>
	<text transform="matrix(0.6174 -0.7867 0.7867 0.6174 465.1001 437.7605)" class="st5 st6 st17">G</text>
	<text transform="matrix(0.6174 -0.7867 0.7867 0.6174 465.1001 437.7605)" class="st13 st6 st17">G</text>
	<text transform="matrix(0.5171 -0.8559 0.8559 0.5171 483.1401 413.92)" class="st5 st6 st12">E</text>
	<text transform="matrix(0.5171 -0.8559 0.8559 0.5171 483.1401 413.92)" class="st13 st6 st12">E</text>
	<text transform="matrix(0.4059 -0.9139 0.9139 0.4059 498.2799 388.1603)" class="st5 st6 st12">R</text>
	<text transform="matrix(0.4059 -0.9139 0.9139 0.4059 498.2799 388.1603)" class="st13 st6 st12">R</text>
	<path class="st5" d="M274.3,89.5c102.1,0,184.8,82.7,184.8,184.8c0,102.1-82.7,184.8-184.8,184.8S89.5,376.4,89.5,274.3
		c0-49,19.5-96,54.1-130.7C178.2,108.8,225.2,89.3,274.3,89.5 M274.3,79.5c-107.6,0-194.8,87.2-194.8,194.8s87.2,194.8,194.8,194.8
		s194.8-87.2,194.8-194.8S381.9,79.5,274.3,79.5z"/>
	<path class="st5" d="M213,221.9c0-0.2-0.1-0.3-0.3-0.5C212.9,221.6,213.1,221.7,213,221.9c0,0.1-0.1,0.2-0.2,0.3
		C213,222.1,213,222,213,221.9z"/>
	<path class="st5" d="M213.5,219.6c0.1-0.1,0.3-0.2,0.4-0.3s0.2,0,0.3,0.1c-0.1-0.1-0.2-0.2-0.3-0.1S213.6,219.5,213.5,219.6z"/>
	<path class="st5" d="M386.8,407.3c0.4-0.8,0.2-1.7-0.5-2.3c-1.1-1.2-2-2.6-3-3.9c-0.5-0.8-1-1.5-1.6-2.1c0-0.3-0.2-0.6,0-0.8
		c0.6-1-0.1-1.9-0.4-2.7c-0.7-1.7-1.5-3.3-2.5-4.9c-0.6-1-1.4-1.9-1.9-2.9c-0.2-0.5-0.7-0.8-1.2-1c-0.4-0.1-0.7-0.3-1.1-0.5
		c-0.7,0-1.4,0.1-2,0.5c-0.6-0.8-1.1-1.6-1.7-2.4c-1-1.4-2.1-2.7-3.1-4.1c-0.7-1-1.3-2-2.1-3c-1.1-1.3-2-2.8-3.1-4.2
		c-0.9-1-1.5-2.1-2.3-3.1s-1.7-2.2-2.5-3.3c-1.1-1.5-2.1-2.9-3.2-4.4s-2-2.7-3-4s-1.9-2.6-2.9-3.9s-2.1-2.8-3.1-4.1
		c-0.7-1-1.4-2-2.1-3c-1-1.4-2.1-2.8-3.1-4.1c-0.8-1-1.5-2.1-2.3-3.1c-1.2-1.6-2.4-3.2-3.5-4.8c-0.7-1-1.4-2-2.2-2.9
		c-0.8,0.1-1.6,0.2-2.4,0.2c-0.8,0-1.3,0.7-2.1,0.4l-0.1-0.6l0.4-0.2c0-0.1,0.1-0.2,0-0.2c-0.4-0.3-0.4-0.8-0.6-1.2
		c-0.4-0.9-0.1-1.6,0.8-2.5c0.2-0.1,0.6,0.1,0.6-0.3c-0.7-1.1-1.4-2.1-2.2-3.1c-1-1.4-1.9-2.8-3-4.1c-1.4-1.7-2.6-3.6-4-5.4
		c-1-1.3-2-2.6-3-4c-0.6-0.9-1.4-1.7-2-2.6c-1-1.5-2.1-2.9-3.2-4.4c-1.3-1.7-2.5-3.5-3.8-5.2c-1-1.3-2-2.6-3-4s-2-2.7-3-4
		s-1.9-2.6-2.9-3.9s-2-2.7-3-4c-0.8-1-1.5-2.1-2.3-3.2c-1-1.3-2-2.6-2.9-4c-0.8-1-1.5-2.1-2.2-3.1c-1-1.4-2-2.7-3-4s-2-2.6-2.9-4
		s-1.9-2.6-2.8-3.9s-2-2.9-3.1-4.3s-2.3-3-3.5-4.5c-1.3-1.7-2.5-3.5-3.8-5.2c-0.9-1.3-1.8-2.6-2.9-3.7c-1.5-1.8-2.9-3.6-4.4-5.3
		s-2.9-3.4-4.3-5.2c-0.8-1-1.7-2-2.6-3c-0.7-0.8-1.3-1.6-1.9-2.5c-1-1.4-2.1-2.7-3.1-4.1c-0.7-1-1.3-2-2.1-3
		c-1.3-1.6-2.5-3.4-3.8-5.1c-1-1.3-2-2.7-3-4.1c-1.1-1.5-2.3-3-3.4-4.6c-0.3-0.5-0.8-0.9-1.3-1.2c-0.6-0.2-1.1-0.6-1.4-1.1
		c-0.8-1.1-1.6-2.2-2.4-3.3s-1.7-2.4-2.6-3.6s-1.8-2.4-2.6-3.6c-0.6-0.9-1.7-1.7-1.5-3c0-0.1-0.3-0.3-0.3-0.4c-0.2-1-0.6-2-1.1-2.9
		c-0.5-1.1-1.2-2.1-1.9-3c-0.7-0.9-1.4-1.8-2.3-2.6c-0.7-0.9-1.6-1.7-2.5-2.4c-0.5-0.3-1-0.6-1.4-1c-0.5-0.4-1-0.7-1.5-1
		c-1.2-0.8-2.4-1.6-3.6-2.2c-0.9-0.6-1.9-1.1-2.9-1.5c-0.8-0.3-1.4-1-1.6-1.8c-0.5-0.7-0.7-1.6-0.6-2.5c0.2-0.8,0.4-1.6,0.6-2.3
		c0.6-1.4,1.4-2.8,2.3-4c0.4-0.6,0.7-1.2,1.1-1.8c0.4-0.5,0.6-1.2,0.7-1.9c0.1-1.7-0.3-3.4-1-5c-0.3-0.5-0.6-0.9-1.3-0.7
		c-0.3,0.4-0.6,0.7-0.8,1.1c-1,1.8-1.8,3.7-2.6,5.6c-0.3,1-0.8,1.9-1.5,2.6c-0.7,0.6-1.2,1.5-2,2c-0.8,0.5-1.5,1.1-2.2,1.7
		c-0.6,0.5-1.4,0.9-1.6,1.7c-0.4,1-0.8,2.1-1.1,3.2c-0.1,0.9-0.7,1.8-1.6,2.1c-0.6,0.2-1.2,0.5-1.8,0.9c-1.1,0.5-2.2,1.1-3.1,1.8
		c-1,0.6-1.9,1.4-2.7,2.2c-0.2,0.3-0.7,0.5-1.1,0.4c-0.7-0.5-1.7-0.9-2.5-1.5c-0.6-0.4-1.3-0.7-2-1c-1.1-0.4-2.2-0.7-3.4-0.8
		c-1.4-0.2-2.9,0-4.2,0.4c-0.5,0.1-1,0.3-1.5,0.6c-1.3,0.6-2.4,1.4-3.3,2.4c-0.7-0.8-1.4-1.6-2.1-2.4c-0.7-0.9-1.4-1.8-2.2-2.7
		c-0.9-0.9-1.6-1.9-2.6-2.8s-1.5-1.7-2.4-2.4s-1.7-1.4-2.5-2.1c-0.7-0.5-1.4-0.9-2.1-1.3c-1.2-0.8-2.4-1.4-3.8-1.8
		c-0.6-0.6-1.4-0.9-2.3-1.1c-0.7-0.2-1.4-0.6-2.1-0.7s-1.4-0.4-2.2-0.6s-1.1,0.5-1.7,0.4c-0.6,0-1.3,0.1-1.9,0.1
		c-0.3-0.3-0.8-0.2-1-0.6s0.1-0.7,0.1-1c-0.4-0.3-0.9-0.1-1.2-0.2c-1.1-0.3-2.2-0.5-3.3-0.5c-0.6,0-1.3,0-1.9-0.1
		c-0.6-0.2-1.1,0.1-1.5-0.1c-0.5-0.2-1.1-0.2-1.7-0.1c-0.2,0-0.4,0.1-0.5,0c-0.8-0.4-1.6,0-2.3-0.1c-0.8-0.1-1.6-0.1-2.3-0.1
		c-1.6,0.2-3.2,0.3-4.8,0.4c-1.6,0-3.3,0.2-4.8,0.7c-1.7-0.1-3.3,0.7-5,0.7c-0.1,0-0.3,0-0.4,0c-0.4,0.6-1.1,0.4-1.6,0.4
		s-1.1,0.5-1.8,0.5c-1.2,0-2.4,0.7-3.6,0.6c0,0-0.1,0-0.1,0c-0.3,0.3-0.8,0.5-1.2,0.4c-0.6-0.1-0.9,0.4-1.3,0.4
		c-1.2,0-2.2,0.6-3.4,0.6c-0.1,0-0.2,0-0.3,0c-0.4,0.6-1.1,0.3-1.6,0.4s-1,0.5-1.6,0.4c-1,0.1-1.9,0.2-2.8,0.6
		c-1.1,0.2-2.2,0.6-3.4,0.8s-2.1,0.7-3.2,0.6c0,0-0.1,0-0.1,0c-0.4,0.6-1,0.4-1.5,0.4s-1,0.5-1.6,0.5c-1.3-0.1-2.4,0.7-3.6,0.6
		c0,0-0.1,0-0.1,0c-0.4,0.5-1.1,0.4-1.6,0.4s-1.1,0.7-1.7,0.7c-1.4,0-2.7,0.7-4.2,0.6c0,0-0.1,0-0.1,0c-0.5,0.4-1.1,0.5-1.8,0.4
		c-0.7,0-1.2,0.4-1.9,0.5c-0.9,0-1.8,0.2-2.6,0.5c-0.6,0.2-1.1,0.3-1.7,0.2c-0.6-0.1-1,0.4-1.6,0.5c-0.9,0-1.8,0.1-2.6,0.4
		c-0.5,0.2-1.1,0.3-1.6,0.2c-0.6-0.1-1,0.4-1.6,0.4c-1,0-2,0.2-3,0.5c-1,0.3-2,0.4-3.1,0.5c-1.7,0.2-3.3,0.6-5,0.8
		c-0.5,0.6-1.2,0.8-1.6,1.5s-0.3,1.5-0.6,2.3c0.7,0.1,0.3,0.9,0.6,1.3c0.5,0.7,1.1,1.5,1.6,2.3c0.6,1,1.4,1.8,2,2.7
		c1.1,1.5,2.1,2.9,3.2,4.4c1.3,1.8,2.7,3.6,4,5.4c0.8,1.1,1.6,2.2,2.4,3.3c0.9,1.3,1.8,2.5,2.7,3.8s1.9,2.6,2.9,3.9s2.1,2.9,3.2,4.3
		l2.3,3l2.8,3.9c0.9,1.3,1.8,2.6,2.8,3.9c1.2,1.4,2.3,2.9,3.3,4.5c0.5,0.7,1,1.4,1.6,2.1c0.5,0.5,1.1,0.8,1.8,0.9
		c0.7,0.1,1.3,0.1,2,0c0.7-0.2,1.2-0.8,1.8-1.2s0.8-0.9,1.3-1.3c0.9-0.7,1.8-1.4,2.6-2.2c1.5-1.4,3.1-2.6,4.6-3.9
		c2.2-1.9,4.5-3.6,6.8-5.3c1.1-0.9,2.3-1.7,3.4-2.6c2-1.6,4.1-3,6.2-4.3c3.1-2.2,6.4-4.1,9.8-5.8c1-0.5,1.9-1.1,2.9-1.5
		s2-0.8,3.1-1.2c1.9-0.7,3.9-1.2,5.9-1.5c0.5-0.1,1.1-0.1,1.6-0.2s1,0.2,1.5,0.2c1.2-0.1,2.4,0,3.6,0.3c2.8,0.5,5.6,1.5,8.1,2.8
		c0.7,0.3,1.4,0.7,2,1.1c0.9,0.7,1.8,1.3,2.8,1.8c1.2,0.7,2.1,1.8,2.5,3.2c0.5,1.3,0.9,2.7,1,4.1c0.1,0.7-0.3,1.3-0.1,1.9
		c0.1,1,0,2-0.4,3c-0.6,1.8-1.4,3.5-2.3,5.1c-0.7,1.2-1.1,2.5-1.3,3.9c-0.2,1.4-0.1,2.9,0.3,4.2c0.5,1.5,1.2,2.9,2,4.3
		c0.9,1.6,1.9,3.1,3,4.5c1.6,2.1,3.3,4.1,5.2,5.9c1.8,1.8,3.8,3.3,6,4.6c1.7,1.1,3.8,1.6,5.9,1.4c0.9-0.1,1.7-0.2,2.6-0.2
		c0.2,0,0.6,0,0.6-0.1c0.4-0.6,1.3,0,1.6-0.7c0.7,0.1,1.1-0.5,1.8-0.7c1.7-0.7,3.2-1.6,4.7-2.6c1.3-0.9,2.5-1.8,3.8-2.7
		c0.6-0.5,1.3-0.8,2.1-0.8c0.4,0,0.4-0.4,0.7-0.3c0.3,0.3,0.7,0.2,1.1,0.2c1.4-0.1,2.9,0.4,4,1.3c1.1,0.9,2.2,1.8,3.2,2.9
		c0.7,0.8,1.5,1.4,2.2,2.1c1.3,1.5,2.6,2.8,3.9,4.3c0.8,0.9,1.6,1.8,2.4,2.7c0.4,0.5,0.8,1.1,1.4,1.2c0.5,0.1,1,0.2,1.5,0.2
		c0.7-0.1,1.4,0.1,1.9,0.7c1.6,1.9,3.1,3.8,4.8,5.8c0.3-0.2,0.8-0.1,1,0.3c0,0,0,0,0,0c0.9,1.3,1.9,2.6,3,3.8c1,1.2,2.1,2.2,3.3,3.2
		c1.2,1.1,2.4,2.1,3.8,3c0.5,0.2,0.8,0.8,1.3,1c1.3,0.6,2.4,1.5,3.6,2.3c1,0.6,1.9,1.2,2.8,1.8c1.1,0.7,2.2,1.5,3.3,2.3
		c0.4,0.3,0.5,0.8,1,1c1,0.8,1.9,1.6,2.7,2.5c0.6,0.5,1.2,1,1.7,1.6c0.8,1,1.7,1.8,2.5,2.8c0.4,0.5,0.9,1,1.3,1.4
		c0.4,0.5,0.9,1,1.4,1.5c1.2,1.2,2.2,2.7,3.8,3.7c0.5-0.3,0.9,0.1,1.3,0.2c0,0.5,0.5,0.6,0.7,0.9c1,1.6,2,3.1,3.2,4.5
		c1.6,2.1,3.2,4.3,4.8,6.4c0.9,1,1.7,2.1,2.4,3.3c0.7,1.2,1.8,2.1,2.5,3.3c0.3,0.4,0.7,0.6,1,1c0.3,0.4,0.7,0.7,1.1,0.9
		c0.4,0.2,0.4,0.9,1,0.9c0.3,0.6,1,0.6,1.3,1.1c0.5,0.5,1,0.8,1.6,1.1c0.9,0.6,1.9,1,3,1.4c2,0.5,3.9,1.1,5.8,1.8
		c1.3,0.4,2.5,1,3.7,1.6c0.2,0.1,0.5,0.2,0.7,0.3c1.3,0.6,2.6,1.3,3.8,2.1c1.5,0.9,2.9,1.9,4.3,3c0.6,0.5,1.1,1.1,1.7,1.6
		c0.1,0.1,0.1,0.3,0.2,0.4c1.5,1.6,2.6,3.5,4,5.2c0.6,0.7,1,1.6,1.6,2.3c0.9,1,1.8,2.2,2.5,3.3c1,1.5,2.2,3,3.3,4.5
		c0.9,1.3,1.9,2.6,2.8,3.9s2.1,2.8,3.1,4.3s2.2,2.9,3.3,4.4c0.7,1,1.4,1.9,2.1,2.9c1,1.4,2.1,2.7,3.1,4.1c0.7,1,1.4,2,2.1,3
		c1,1.4,2.1,2.7,3.1,4.1c0.7,1,1.3,2,2.1,3c1.1,1.4,2.1,2.9,3.2,4.3c0.7,0.9,1.4,1.9,2.1,2.9c1.1,1.4,2.1,2.8,3.2,4.3
		c0.7,1,1.3,2,2.1,2.9c1.4,1.7,2.7,3.6,4,5.4c1,1.3,1.9,2.6,2.9,3.9c0.3,0.3,0.4,0.8,0.9,1c1-0.4,2.2-0.7,3.3-1.1s2.3-0.7,3.5-1.1
		c1.1-0.5,2.3-0.8,3.5-0.9c1.2,1.8,2.5,3.5,3.9,5.2c1.7,2.2,3.3,4.5,5.1,6.6c1.1,1.3,2.1,2.8,3.1,4.1c0.8,1.1,1.7,2.2,2.5,3.4
		c0.3,0.3,0.6,0.7,1,0.9l1-0.1L386.8,407.3z M176.2,182.3c0.7,0.3,0.9,1.1,1.4,1.7l0.1,1.6h0.3l0.7-0.1c0.4-0.2,0.3-0.7,0.5-1
		c0,0,0.1-0.1,0.1-0.1l-0.8-1.8l0.5-0.5c0.2-0.1,0.5,0.2,0.5,0.4c0.1,0.8,0.7,1.5,0.5,2.4c-0.1,0.5-0.4,1-0.9,1.3
		c-0.4,0.1-0.9-0.1-1.2,0.3c-1.3,0-2.6,0.2-3.9,0.6c-0.2-0.1,0-0.4-0.1-0.6s0.5,0,0.5-0.4c-0.2-0.3-0.3-0.7-0.6-0.9l-0.2-2.1
		c0.1-0.4,0.6-0.4,0.9-0.8L176.2,182.3z M104.8,192.3c-0.4-0.7-1-1.3-0.7-2.1c0.2-0.5,0-1.3,0.8-1.6l1.5-0.1c0.9,0.2,1.6,1,1.6,1.9
		c0,0.4,0.5,0.8,0.3,1.3c0.8,0.1,0.8,0.1,1.3-0.3c0.3-0.9-0.5-1.6-0.4-2.5c0.2-0.2,0.4-0.1,0.7-0.2c0.6,0.5,0.3,1.3,1,1.8
		c-0.4,0.4-0.3,0.8-0.3,1.2c-0.3,0.5-0.7,0.9-1.2,1.1c-1.4,0.2-3,0-4.4,0.7C104.3,193.1,104.8,192.7,104.8,192.3L104.8,192.3z
		 M214.7,218.4c0.5,0.3,0.9,0.8,1.1,1.4l0.1,1.4c0.7,0,0.7,0,1.2-0.6c0.3-0.8-0.6-1.3-0.3-2.1c0.7-0.2,0.6,0.6,1,0.8
		c0.3,0.9,0.1,1.9-0.4,2.6c-1.6,0.3-3.4,0-4.8,1c-0.1-0.1-0.1-0.3-0.1-0.4c0,0,0-0.1,0.1-0.1l0.1-0.1l0.1-0.1c0,0,0.1-0.1,0.1-0.1
		c0.1-0.1,0.1-0.2,0.2-0.3c0-0.2-0.1-0.3-0.3-0.5l-0.1-0.1c-0.1-0.1-0.1-0.2-0.2-0.3c0-0.1,0-0.1-0.1-0.2c-0.2-0.6-0.1-1.3,0.1-1.9
		C213.1,218.4,213.9,218.5,214.7,218.4L214.7,218.4z M177.6,244.1c-0.9,0.5-1.9,0.9-2.9,1c-0.4,0-0.8-0.1-1,0.4
		c-0.3-0.2-0.7-0.3-1.1-0.3c-0.8,0.1-1.7,0-2.5-0.3c-0.8-0.3-1.6-0.5-2.4-0.8c-2.4-1.1-4.6-2.6-6.4-4.5c-1.9-1.7-3.6-3.7-5-5.8
		c-0.6-0.9-1.4-1.7-1.9-2.7c-0.6-1.2-1.2-2.4-1.6-3.6c-0.4-1.2-0.6-2.4-0.5-3.6c0-1.8,0.6-3.5,1.7-4.9c0.7-1,1.6-1.8,2.6-2.5
		c1.2-0.7,2.3-1.6,3.8-1.6c0.4,0,0.8-0.4,1.3-0.2c0.4,0.2,0.9-0.1,1.3-0.1c0.6-0.1,1.3,0.1,1.8,0.6c-0.8,0.3-1.5,0.7-2.1,1.3
		c-2,1.4-3.7,3.1-5,5.1c-1,1.3-1.7,2.8-2,4.4c-0.2,1-0.4,1.9-0.6,2.8c0.2,0.6,0.6,1.1,1.1,1.4c0.4,0.2,0.9-0.3,1.3-0.4
		c0.4-0.8,0.6-1.7,1.1-2.6s0.9-2,1.5-2.9c0.4-0.5,0.7-1.1,1-1.8c1.1-1,2.2-1.8,3.5-2.5c1.4-0.7,2.8-1.2,4.2-1.9
		c0.3-0.1,0.6-0.2,0.9-0.2c1.6,1.2,3,2.5,4.4,3.9c1.9,1.7,3.5,3.7,5.2,5.6c0.9,1.1,1.7,2.2,2.5,3.3c1,1.5,1.5,3.3,1.3,5.1
		c-0.1,1.4-0.5,2.7-1.2,3.9C180.8,241.5,179.4,243,177.6,244.1L177.6,244.1z M251.3,258.3l-0.6-1c-0.1-0.7-0.1-1.3,0.1-2
		c0.3-0.6,0.8-0.9,1.4-0.9c0.6-0.1,1.2,0.1,1.5,0.6c0.4,0.5,0.7,1.2,0.7,1.9c0,0.3,0,0.6,0.1,0.9c0.3,0.2,0.6,0,1,0l0.6-0.8
		c-0.1-0.8-0.3-1.6-0.8-2.3c0.3-0.2,0.7-0.3,1.1-0.2c-0.1,0.5,0.5,0.9,0.4,1.5c0,0.5,0,1,0.1,1.5l-1,1.1c-1.7,0-3.3,0.3-4.9,0.8
		C250.6,258.8,251.3,258.7,251.3,258.3L251.3,258.3z M289.4,295.2l0-0.3c0.1-0.4,0.6,0,0.8-0.4c-0.3-0.6-1.1-1-1-1.8
		c0-0.8,0.2-1.5,0.8-2.1l1.8-0.2c1.2,0.8,1.3,2.1,1.6,3.3l0.9-0.1l0.3-0.3c0.2-1-0.4-1.9-0.5-2.9l0.7-0.1c0.8,0.9,0.5,2,0.7,3
		l-0.5,1c-0.1,0.1-0.2,0.1-0.3,0.1c-0.8,0.1-1.5,0.1-2.3,0.2c-0.7,0-1.4,0.1-2,0.4C290.1,295.4,289.7,295.4,289.4,295.2L289.4,295.2
		z"/>
	<path class="st5" d="M328.3,328c-0.8,0.9-1.1,1.7-0.8,2.5c0.2,0.4,0.2,0.9,0.6,1.2v0.2l-0.4,0.2l0.1,0.6c0.8,0.3,1.4-0.5,2.1-0.4
		c0.8,0,1.6-0.1,2.4-0.2c0-0.1,0-0.2,0-0.3c-0.6-0.8-1.1-1.6-1.8-2.3l0.2,1.9l-1.2,0.1c-0.7-0.4-1.1-1.1-1.1-1.9l0.8-0.7l0.7-0.1
		c-0.1-0.5-0.3-1.1-0.9-1.3C328.9,328.1,328.5,327.8,328.3,328L328.3,328z"/>
	<path class="st5" d="M328.3,329.7c0,0.8,0.4,1.6,1.1,1.9l1.2-0.1l-0.2-1.9c-0.3-0.2-0.1-0.7-0.6-0.8l-0.7,0.1L328.3,329.7z"/>
	<path class="st5" d="M140.8,161.2c0.2,0.4,0.7,0.3,1,0.6c0.6-0.1,1.2-0.1,1.9-0.1c0.6,0,1.1-0.5,1.7-0.4c0-0.1-0.1-0.2-0.1-0.2
		c-0.8,0-1.7-0.2-2.4-0.5c-0.6-0.2-1.2-0.3-1.9-0.2C140.9,160.5,140.7,160.8,140.8,161.2z"/>
	<path class="st5" d="M109.3,192.8c0.5-0.2,0.9-0.6,1.2-1.1c-0.1-0.4-0.2-0.8,0.3-1.2c-0.6-0.5-0.4-1.4-1-1.8
		c-0.2,0.1-0.4-0.1-0.7,0.2c-0.1,0.8,0.7,1.6,0.4,2.5c-0.4,0.4-0.4,0.4-1.3,0.3c0.1-0.5-0.3-0.9-0.3-1.3c0-0.9-0.6-1.7-1.6-1.9
		l-1.5,0.1c-0.8,0.3-0.6,1.1-0.8,1.6c-0.3,0.8,0.4,1.4,0.7,2.1c-0.1,0.4-0.5,0.8,0,1.2C106.2,192.8,107.8,193.1,109.3,192.8
		L109.3,192.8z M105.7,192l-0.8-1.2c0.2-0.3,0.1-0.8,0.6-1.1l0.8-0.1c0.1,0,0.2,0.1,0.2,0.2c0.2,0.2,0.2,0.5,0.5,0.7l0.1,1.3
		l-0.7,0.5L105.7,192z"/>
	<path class="st5" d="M173.8,183.2l0.2,2.1c0.4,0.2,0.4,0.6,0.6,0.9c0,0.4-0.4,0.2-0.5,0.4s-0.1,0.5,0.1,0.6
		c1.3-0.4,2.6-0.6,3.9-0.6c0.3-0.4,0.8-0.2,1.2-0.3c0.4-0.3,0.7-0.8,0.9-1.3c0.2-0.9-0.4-1.6-0.5-2.4c0-0.1-0.3-0.4-0.5-0.4
		l-0.5,0.5l0.8,1.8c-0.1,0-0.1,0.1-0.1,0.1c-0.2,0.3-0.1,0.7-0.5,1l-0.7,0.1h-0.3l-0.1-1.6c-0.5-0.7-0.7-1.4-1.4-1.7l-1.6,0.1
		C174.4,182.8,173.8,182.7,173.8,183.2L173.8,183.2z M176.4,183.4c0.2,0.8,0.7,1.4,0.6,2.3l-1.5,0.1c-0.3-0.1-0.3-0.6-0.6-0.8
		l-0.1-1.4L176.4,183.4z"/>
	<path class="st5" d="M255.9,258.7l1-1.1c-0.1-0.5-0.1-1-0.1-1.5c0-0.6-0.5-0.9-0.4-1.5c-0.4-0.1-0.8,0-1.1,0.2
		c0.5,0.7,0.7,1.5,0.8,2.3l-0.6,0.8c-0.3,0-0.6,0.2-1,0c-0.1-0.3-0.1-0.6-0.1-0.9c0-0.7-0.3-1.4-0.7-1.9c-0.3-0.5-0.9-0.8-1.5-0.6
		c-0.6,0-1.2,0.4-1.4,0.9c-0.2,0.7-0.2,1.3-0.1,2l0.6,1c0,0.4-0.7,0.5-0.3,1.2C252.5,259,254.2,258.8,255.9,258.7L255.9,258.7z
		 M252.5,258.2c-0.7-0.4-1.1-1.1-1.1-1.9c0.3-0.3,0.5-0.9,1.2-0.7l0.9,0.8l0.1,1.7L252.5,258.2z"/>
	<path class="st5" d="M292.4,294.8c0.8-0.1,1.5-0.1,2.3-0.2c0.1,0,0.2-0.1,0.3-0.1l0.5-1c-0.2-1,0.1-2.1-0.7-3l-0.7,0.1
		c0.1,1,0.7,1.8,0.5,2.9l-0.3,0.3l-0.9,0.1c-0.3-1.3-0.4-2.6-1.6-3.3l-1.8,0.2c-0.5,0.6-0.8,1.3-0.8,2.1c-0.1,0.8,0.7,1.2,1,1.8
		c-0.2,0.4-0.7,0-0.8,0.4l0,0.3c0.3,0.2,0.7,0.2,1,0C291,295,291.7,294.8,292.4,294.8L292.4,294.8z M290.9,294.1l-0.6-0.7l-0.1-1.5
		l0.4-0.5c0.3,0.5,1,0.1,1.5,0.7c-0.1,0.6,0.3,1.2,0.5,1.9L290.9,294.1z"/>
	<path class="st5" d="M212.6,219c-0.2,0.6-0.3,1.3-0.1,1.9c0,0.1,0,0.1,0.1,0.2c0,0.1,0.1,0.2,0.2,0.3l0.1,0.1
		c0.2,0.2,0.3,0.3,0.3,0.5c0,0.1-0.1,0.2-0.2,0.3c0,0-0.1,0.1-0.1,0.1l-0.1,0.1l-0.1,0.1c0,0,0,0.1-0.1,0.1c0,0.2,0,0.3,0.1,0.4
		c1.5-1,3.2-0.8,4.8-1c0.5-0.8,0.7-1.7,0.4-2.6c-0.4-0.2-0.4-1-1-0.8c-0.4,0.8,0.6,1.3,0.3,2.1c-0.5,0.6-0.5,0.6-1.2,0.6l-0.1-1.4
		c-0.2-0.6-0.6-1.1-1.1-1.4C213.9,218.5,213.1,218.4,212.6,219L212.6,219z M214.2,219.4c0,0,0.1,0.1,0.1,0.1h0.1
		c0.1,0,0.1,0,0.1-0.1c0.5,0.5,0.7,1.2,0.6,1.9l-1.2,0.1c-0.5-0.4-0.8-1.1-0.8-1.8c0.1,0,0.2,0,0.3-0.1c0.1-0.1,0.3-0.2,0.4-0.3
		S214.1,219.3,214.2,219.4z"/>
	<path class="st5" d="M107.1,190.5c-0.3-0.1-0.3-0.5-0.5-0.7c-0.1-0.1-0.1-0.1-0.2-0.2l-0.8,0.1c-0.5,0.3-0.4,0.8-0.6,1.1l0.8,1.2
		l0.8,0.3l0.7-0.5L107.1,190.5z"/>
	<path class="st5" d="M175.4,185.8l1.5-0.1c0.1-0.8-0.4-1.4-0.6-2.3l-1.7,0.1l0.1,1.4C175.1,185.2,175.1,185.7,175.4,185.8
		L175.4,185.8z"/>
	<path class="st5" d="M252.6,255.5c-0.8-0.2-0.9,0.4-1.2,0.7c0,0.8,0.4,1.5,1.1,1.9l1.2-0.1l-0.1-1.7L252.6,255.5z"/>
	<path class="st5" d="M292.1,292c-0.5-0.6-1.1-0.2-1.5-0.7l-0.4,0.5l0.1,1.5l0.6,0.7l1.6-0.1C292.4,293.2,291.9,292.6,292.1,292
		L292.1,292z"/>
	<path class="st5" d="M213.8,219.3c-0.1,0.1-0.2,0.2-0.4,0.3c-0.1,0.1-0.2,0.1-0.3,0.1c-0.1,0.7,0.2,1.4,0.8,1.8l1.2-0.1
		c0.1-0.7-0.1-1.4-0.6-1.9c0,0-0.1,0.1-0.1,0.1h-0.1c0,0-0.1,0-0.1-0.1C214.1,219.3,214,219.2,213.8,219.3z"/>
	<path class="st5" d="M335.6,221.9c0-0.2,0.1-0.3,0.3-0.5C335.7,221.6,335.5,221.7,335.6,221.9c0,0.1,0.1,0.2,0.2,0.3
		C335.6,222.1,335.6,222,335.6,221.9z"/>
	<path class="st5" d="M335.1,219.6c-0.1-0.1-0.3-0.2-0.4-0.3s-0.2,0-0.3,0.1c0.1-0.1,0.2-0.2,0.3-0.1S335,219.5,335.1,219.6z"/>
	<path class="st5" d="M174.5,416.7l1,0.1c0.4-0.3,0.7-0.6,1-0.9c0.8-1.2,1.7-2.2,2.5-3.4c1-1.4,2-2.8,3.1-4.1
		c1.8-2.2,3.4-4.4,5.1-6.6c1.3-1.7,2.7-3.4,3.9-5.2c1.2,0.1,2.4,0.4,3.5,0.9c1.2,0.4,2.4,0.7,3.5,1.1s2.2,0.8,3.3,1.1
		c0.6-0.1,0.7-0.6,0.9-1c1-1.3,1.9-2.6,2.9-3.9c1.4-1.8,2.6-3.6,4-5.4c0.8-0.9,1.4-1.9,2.1-2.9c1-1.4,2.1-2.8,3.2-4.3
		c0.7-0.9,1.3-1.9,2.1-2.9c1.1-1.4,2-2.9,3.2-4.3c0.8-0.9,1.4-2,2.1-3c1-1.4,2.1-2.8,3.1-4.1c0.7-1,1.4-2,2.1-3
		c1-1.4,2.1-2.8,3.1-4.1c0.7-0.9,1.4-1.9,2.1-2.9c1.1-1.5,2.2-2.9,3.3-4.4s2.1-2.9,3.1-4.3s1.9-2.6,2.8-3.9c1.1-1.5,2.3-2.9,3.3-4.5
		c0.8-1.2,1.6-2.3,2.5-3.3c0.6-0.7,1.1-1.5,1.6-2.3c1.4-1.7,2.5-3.6,4-5.2c0.1-0.1,0.1-0.3,0.2-0.4c0.6-0.5,1.1-1.1,1.7-1.6
		c1.4-1.1,2.8-2.1,4.3-3c1.2-0.7,2.5-1.4,3.8-2.1l0.7-0.3c1.2-0.5,2.4-1.1,3.7-1.6c1.9-0.7,3.9-1.3,5.8-1.8c1.1-0.3,2.1-0.8,3-1.4
		c0.6-0.3,1.2-0.6,1.6-1.1c0.4-0.5,1.1-0.5,1.3-1.1c0.6,0,0.6-0.7,1-0.9c0.5-0.2,0.8-0.5,1.1-0.9c0.3-0.5,0.7-0.7,1-1
		c0.8-1.1,1.8-2.1,2.6-3.3c0.7-1.1,1.5-2.2,2.4-3.3c1.6-2.1,3.2-4.3,4.8-6.4c1.1-1.4,2.2-3,3.2-4.5c0.2-0.3,0.7-0.4,0.7-0.9
		c0.5,0,0.9-0.5,1.3-0.2c1.6-0.9,2.6-2.4,3.8-3.7c0.5-0.5,0.9-1,1.4-1.5c0.4-0.5,0.9-1,1.3-1.4c0.8-0.9,1.7-1.8,2.5-2.8
		c0.5-0.6,1.1-1.1,1.7-1.6c0.8-0.9,1.7-1.8,2.7-2.5c0.4-0.3,0.6-0.8,1-1c1.1-0.8,2.2-1.6,3.3-2.3c1-0.6,1.9-1.3,2.8-1.8
		c1.2-0.7,2.3-1.6,3.6-2.3c0.5-0.2,0.8-0.8,1.3-1c1.4-0.9,2.6-1.9,3.8-3c1.2-0.9,2.3-2,3.3-3.2c1.1-1.2,2.1-2.5,3-3.8
		c0.2-0.4,0.6-0.5,1-0.3c0,0,0,0,0,0c1.6-2,3.2-3.9,4.8-5.8c0.5-0.5,1.2-0.8,1.9-0.7c0.5,0,1-0.1,1.5-0.2c0.7,0,1-0.7,1.4-1.2
		c0.8-0.9,1.6-1.8,2.4-2.7c1.3-1.4,2.7-2.8,3.9-4.3c0.7-0.8,1.5-1.4,2.2-2.1c1-1,2-2,3.2-2.9c1.1-0.9,2.6-1.4,4-1.3
		c0.4,0,0.8,0.2,1.1-0.2c0.3-0.1,0.4,0.4,0.7,0.3c0.8,0,1.5,0.3,2.1,0.8c1.3,0.9,2.5,1.8,3.8,2.7c1.4,1.1,3,2,4.7,2.6
		c0.6,0.2,1,0.8,1.8,0.7c0.4,0.6,1.2,0.1,1.6,0.7c0.1,0.1,0.4,0.1,0.6,0.1c0.9,0.1,1.7,0.1,2.6,0.2c2.1,0.2,4.1-0.3,5.9-1.4
		c2.2-1.3,4.2-2.8,6-4.6c1.9-1.8,3.7-3.8,5.2-5.9c1.1-1.4,2.1-2.9,3-4.5c0.8-1.4,1.4-2.8,1.8-4.3c0.4-1.4,0.5-2.8,0.3-4.2
		c-0.2-1.4-0.6-2.7-1.3-3.9c-0.9-1.6-1.7-3.4-2.3-5.1c-0.4-1-0.5-2-0.4-3c0.1-0.7-0.2-1.3-0.1-1.9c0.1-1.4,0.5-2.8,1-4.1
		c0.4-1.4,1.3-2.5,2.5-3.2c1-0.5,1.9-1.1,2.8-1.8c0.6-0.4,1.3-0.8,2-1.1c2.6-1.3,5.3-2.3,8.1-2.8c1.2-0.3,2.4-0.4,3.6-0.3
		c0.5,0.1,1-0.3,1.5-0.2s1.1,0.1,1.6,0.2c2,0.3,4,0.8,6,1.5c1,0.4,2,0.8,3,1.2s1.9,1,2.9,1.5c3.4,1.7,6.7,3.6,9.8,5.8
		c2.1,1.4,4.2,2.8,6.2,4.3c1.1,0.9,2.3,1.7,3.4,2.6c2.3,1.7,4.6,3.4,6.8,5.3c1.5,1.3,3.1,2.5,4.6,3.9c0.8,0.8,1.7,1.5,2.6,2.2
		c0.5,0.4,0.8,1,1.3,1.3s1,1,1.8,1.2c0.7,0.1,1.3,0.1,2,0c0.7-0.1,1.3-0.5,1.8-0.9c0.6-0.7,1.1-1.4,1.6-2.1c1-1.6,2.1-3,3.3-4.5
		c1-1.2,1.9-2.6,2.9-3.9l2.8-3.9c0.8-1,1.5-2,2.3-3c1.1-1.4,2.1-2.9,3.2-4.3s1.9-2.6,2.9-3.9s1.8-2.5,2.7-3.8
		c0.8-1.1,1.6-2.2,2.4-3.3c1.3-1.8,2.7-3.6,4-5.4c1.1-1.5,2.1-2.9,3.2-4.4c0.7-0.9,1.4-1.8,2-2.7c0.5-0.8,1.1-1.5,1.6-2.3
		c0.3-0.5-0.1-1.2,0.6-1.3c-0.3-0.8-0.3-1.6-0.6-2.3s-1.2-1-1.6-1.5c-1.7-0.3-3.3-0.6-5-0.8c-1-0.1-2.1-0.3-3.1-0.5
		c-1-0.3-2-0.4-3-0.5c-0.6,0-1-0.5-1.6-0.4c-0.5,0.1-1.1,0-1.6-0.2c-0.8-0.3-1.7-0.5-2.6-0.4c-0.6,0-1-0.5-1.6-0.5
		c-0.6,0.1-1.2,0-1.7-0.2c-0.8-0.3-1.7-0.5-2.6-0.5c-0.6-0.1-1.2-0.5-1.9-0.5c-0.6,0.1-1.2,0-1.8-0.4c0,0-0.1,0-0.1,0
		c-1.4,0.1-2.8-0.7-4.2-0.6c-0.6,0-1.1-0.5-1.8-0.4s-1.2,0.1-1.6-0.4c0,0-0.1,0-0.1,0c-1.3,0.1-2.4-0.6-3.6-0.6
		c-0.6,0-1-0.4-1.6-0.5s-1.1,0.2-1.5-0.4c0,0-0.1,0-0.1,0c-1.1,0.1-2.1-0.4-3.2-0.6s-2.3-0.5-3.4-0.8c-0.9-0.3-1.9-0.5-2.8-0.6
		c-0.6,0-1-0.4-1.6-0.4s-1.2,0.2-1.6-0.4c0,0-0.2,0-0.3,0c-1.2,0.1-2.2-0.6-3.4-0.6c-0.5,0-0.8-0.5-1.4-0.4c-0.4,0.1-0.9,0-1.2-0.4
		c0,0-0.1,0-0.1,0c-1.3,0.1-2.4-0.6-3.6-0.6c-0.6,0-1.1-0.5-1.8-0.5s-1.2,0.2-1.6-0.4c-0.1-0.1-0.3,0-0.4,0c-1.7-0.1-3.3-0.8-5-0.7
		c-1.6-0.5-3.2-0.7-4.9-0.7c-1.6-0.2-3.2-0.3-4.8-0.4c-0.8-0.1-1.6-0.1-2.3,0.1c-0.8,0.1-1.6-0.4-2.3,0.1c-0.1,0.1-0.4,0-0.5,0
		c-0.6-0.1-1.1-0.1-1.7,0.1c-0.5,0.2-1-0.1-1.5,0.1c-0.6,0.1-1.3,0.1-1.9,0.1c-1.1,0-2.2,0.2-3.3,0.5c-0.4,0.1-0.9-0.1-1.2,0.2
		c0.1,0.3,0.4,0.6,0.1,1s-0.7,0.3-1,0.6c-0.6-0.1-1.2-0.1-1.9-0.1c-0.6,0-1.1-0.5-1.7-0.4s-1.4,0.5-2.2,0.6s-1.4,0.5-2.1,0.7
		c-0.8,0.1-1.6,0.5-2.3,1.1c-1.3,0.4-2.5,1-3.7,1.8c-0.7,0.4-1.4,0.8-2.1,1.3c-0.8,0.7-1.7,1.4-2.5,2.1s-1.5,1.7-2.4,2.4
		s-1.6,1.9-2.6,2.8c-0.8,0.8-1.5,1.7-2.2,2.7c-0.6,0.8-1.3,1.5-2.1,2.4c-0.9-1-2.1-1.8-3.3-2.4c-0.5-0.2-1-0.4-1.5-0.6
		c-1.4-0.5-2.8-0.6-4.2-0.4c-1.2,0.1-2.3,0.4-3.4,0.8c-0.7,0.3-1.4,0.6-2,1c-0.8,0.6-1.8,1-2.5,1.5c-0.4,0.1-0.8-0.1-1-0.4
		c-0.8-0.8-1.7-1.6-2.7-2.2c-1-0.7-2-1.3-3.1-1.8c-0.6-0.3-1.2-0.6-1.8-0.9c-0.9-0.3-1.5-1.1-1.6-2.1c-0.3-1.1-0.7-2.1-1.1-3.2
		c-0.2-0.8-1.1-1.1-1.6-1.7c-0.7-0.7-1.4-1.2-2.2-1.7c-0.9-0.5-1.3-1.4-2-2c-0.7-0.7-1.2-1.6-1.5-2.6c-0.7-1.9-1.6-3.8-2.6-5.6
		c-0.2-0.4-0.5-0.8-0.8-1.1c-0.7-0.1-1,0.3-1.3,0.7c-0.7,1.6-1.1,3.3-1,5c0,0.7,0.3,1.3,0.7,1.9c0.4,0.6,0.7,1.2,1.1,1.8
		c1,1.2,1.7,2.6,2.3,4c0.2,0.8,0.4,1.5,0.6,2.3c0.1,0.9-0.2,1.7-0.6,2.5c-0.3,0.9-0.9,1.6-1.7,1.9c-1,0.4-2,0.9-2.9,1.5
		c-1.3,0.7-2.5,1.4-3.6,2.2c-0.5,0.3-1,0.6-1.5,1c-0.4,0.4-0.9,0.7-1.4,1c-0.9,0.7-1.8,1.5-2.5,2.4c-0.8,0.8-1.6,1.7-2.3,2.6
		c-0.7,0.9-1.3,1.9-1.9,3c-0.6,0.9-0.9,1.9-1.1,2.9c0,0.1-0.3,0.3-0.3,0.4c0.2,1.4-0.8,2.1-1.5,3c-0.9,1.2-1.7,2.4-2.6,3.6
		s-1.7,2.4-2.6,3.6s-1.6,2.1-2.4,3.3c-0.4,0.5-0.9,0.9-1.5,1.1c-0.5,0.3-1,0.7-1.3,1.2c-1.1,1.6-2.3,3.1-3.4,4.6c-1,1.4-2,2.7-3,4.1
		c-1.3,1.7-2.4,3.4-3.8,5.1c-0.8,0.9-1.4,2-2.1,3c-1,1.4-2.1,2.8-3.1,4.1c-0.6,0.9-1.2,1.7-1.9,2.5c-0.9,1-1.8,2-2.6,3
		c-1.4,1.8-2.8,3.5-4.3,5.2s-2.9,3.6-4.4,5.3c-1,1.2-1.9,2.5-2.9,3.7c-1.3,1.7-2.5,3.5-3.8,5.2c-1.2,1.5-2.3,3.1-3.5,4.5
		s-2.1,2.8-3.1,4.3s-1.9,2.6-2.8,3.9s-2,2.6-2.9,4s-2,2.7-3,4c-0.7,1-1.5,2.1-2.2,3.1c-1,1.3-2,2.6-2.9,4c-0.8,1-1.5,2.1-2.3,3.2
		c-1,1.4-2,2.7-3,4s-1.9,2.6-2.9,3.9s-2,2.7-3.1,4s-2,2.6-2.9,4c-1.3,1.7-2.5,3.5-3.8,5.2c-1.1,1.5-2.2,2.9-3.2,4.4
		c-0.6,0.9-1.3,1.8-1.9,2.6c-1,1.3-2,2.6-3,4c-1.4,1.8-2.6,3.6-4,5.4c-1.1,1.3-2,2.7-3,4.1c-0.8,1-1.5,2-2.2,3.1
		c0,0.5,0.4,0.2,0.6,0.3c0.8,0.9,1.1,1.7,0.8,2.5c-0.2,0.4-0.2,0.9-0.6,1.2v0.2l0.4,0.2v0.5c-0.8,0.3-1.4-0.5-2.1-0.4
		c-0.8,0-1.6-0.1-2.4-0.2c-0.8,0.9-1.5,1.9-2.2,2.9c-1.2,1.6-2.4,3.2-3.6,4.8c-0.8,1-1.5,2.1-2.3,3.1c-1,1.4-2.1,2.8-3.1,4.1
		c-0.7,1-1.4,2-2.1,3c-1,1.4-2.1,2.8-3.1,4.1s-1.9,2.6-2.9,3.9s-2,2.7-3,4s-2.1,2.9-3.2,4.4c-0.8,1.1-1.7,2.2-2.5,3.3
		s-1.5,2.2-2.3,3.1c-1.1,1.3-2,2.8-3.1,4.2c-0.8,0.9-1.4,2-2.1,3c-1,1.4-2.1,2.7-3.1,4.1c-0.6,0.8-1.1,1.6-1.7,2.4
		c-0.6-0.3-1.3-0.5-2-0.5c-0.4,0.1-0.7,0.3-1.1,0.5c-0.5,0.2-0.9,0.5-1.2,1c-0.5,1-1.4,1.9-1.9,2.9c-1,1.6-1.8,3.2-2.5,4.9
		c-0.3,0.8-0.9,1.7-0.4,2.7c0.1,0.2,0,0.5-0.1,0.8c-0.6,0.7-1.1,1.4-1.6,2.1c-1,1.3-1.9,2.7-3,3.9c-0.7,0.6-0.9,1.5-0.5,2.3
		L174.5,416.7z M374,182.4c0.2,0.4,0.7,0.3,0.9,0.8l-0.2,2.1c-0.3,0.2-0.4,0.6-0.6,0.9c0,0.4,0.4,0.2,0.5,0.4s0.1,0.5-0.1,0.6
		c-1.3-0.4-2.6-0.6-3.9-0.6c-0.3-0.4-0.8-0.2-1.2-0.3c-0.4-0.3-0.7-0.8-0.9-1.3c-0.2-0.9,0.4-1.6,0.5-2.4c0-0.1,0.3-0.4,0.5-0.4
		l0.5,0.5l-0.8,1.8c0,0,0.1,0.1,0.1,0.1c0.2,0.3,0.1,0.7,0.5,1l0.7,0.1h0.3l0.1-1.6c0.5-0.7,0.7-1.4,1.4-1.7L374,182.4z
		 M443.8,193.5c-1.4-0.7-3-0.5-4.5-0.7c-0.5-0.3-0.9-0.6-1.2-1.1c0.1-0.4,0.2-0.8-0.3-1.2c0.6-0.5,0.4-1.4,1-1.8
		c0.2,0.1,0.4-0.1,0.6,0.2c0,0.8-0.7,1.6-0.4,2.5c0.5,0.4,0.5,0.4,1.3,0.3c-0.1-0.5,0.3-0.9,0.3-1.3c0-0.9,0.6-1.7,1.5-1.9l1.5,0.1
		c0.8,0.3,0.6,1.1,0.8,1.6c0.3,0.8-0.4,1.4-0.7,2.1C443.8,192.7,444.3,193.1,443.8,193.5L443.8,193.5z M336,219
		c0.2,0.6,0.3,1.3,0.1,1.9c0,0.1,0,0.1-0.1,0.2c0,0.1-0.1,0.2-0.2,0.3c0,0,0,0-0.1,0.1c-0.2,0.2-0.3,0.3-0.3,0.5
		c0,0.1,0.1,0.2,0.2,0.3l0.1,0.1l0.1,0.1l0.1,0.1c0,0,0,0.1,0,0.1c0,0.2,0,0.3-0.1,0.4c-1.5-1-3.2-0.8-4.8-1
		c-0.8-0.8-0.5-1.7-0.4-2.6c0.4-0.2,0.4-1,1-0.8c0.4,0.8-0.5,1.3-0.3,2.1c0.5,0.6,0.5,0.6,1.2,0.6l0.1-1.4c0.2-0.6,0.6-1.1,1.1-1.4
		C334.6,218.5,335.5,218.4,336,219z M366.8,239.6c-0.7-1.2-1.1-2.5-1.2-3.9c-0.2-1.8,0.3-3.6,1.3-5.1c0.8-1.2,1.6-2.3,2.5-3.3
		c1.7-1.9,3.4-3.8,5.2-5.6c1.3-1.4,2.8-2.7,4.4-3.9c0.3,0,0.6,0.1,0.9,0.2c1.4,0.7,2.8,1.2,4.2,1.9c1.2,0.7,2.4,1.6,3.5,2.5
		c0.3,0.6,0.6,1.2,1,1.8c0.5,1,1,2,1.5,2.9s0.7,1.7,1.1,2.6c0.5,0.2,0.9,0.6,1.3,0.4c0.5-0.3,0.9-0.8,1.1-1.4
		c-0.2-0.9-0.4-1.8-0.6-2.8c-0.3-1.6-1-3.1-2-4.4c-1.3-2-3-3.7-5-5.1c-0.6-0.6-1.3-1-2.1-1.3c0.5-0.4,1.1-0.6,1.8-0.6
		c0.4,0,1,0.2,1.3,0.1c0.5-0.2,0.9,0.2,1.3,0.2c1.5,0.1,2.6,0.9,3.8,1.6c1,0.7,1.9,1.5,2.6,2.5c1.1,1.4,1.7,3.2,1.7,4.9
		c0.1,1.2-0.1,2.5-0.5,3.6c-0.5,1.3-1,2.5-1.6,3.6c-0.6,1-1.3,1.8-1.9,2.7c-1.4,2.1-3.1,4.1-5,5.8c-1.8,1.9-4,3.4-6.4,4.5
		c-0.8,0.3-1.6,0.5-2.4,0.8c-0.8,0.3-1.7,0.4-2.5,0.3c-0.4,0-0.8,0-1.1,0.3c-0.1-0.5-0.6-0.4-1-0.4c-1-0.1-2-0.5-2.9-1
		C369.3,243,367.8,241.5,366.8,239.6L366.8,239.6z M297.6,259.5c-1.6-0.5-3.2-0.7-4.9-0.8l-1-1.1c0.1-0.5,0.1-1,0.1-1.5
		c0-0.6,0.5-0.9,0.4-1.5c0.4-0.1,0.8,0,1.1,0.2c-0.5,0.7-0.7,1.5-0.8,2.3l0.6,0.8c0.3,0,0.6,0.2,1,0c0-0.3,0.1-0.6,0.1-0.9
		c0-0.7,0.3-1.4,0.7-1.9c0.3-0.5,0.9-0.8,1.5-0.6c0.6,0,1.2,0.4,1.4,0.9c0.2,0.7,0.2,1.3,0.1,2l-0.6,1
		C297.3,258.7,298,258.8,297.6,259.5L297.6,259.5z M258.2,295.2c-0.6-0.3-1.3-0.4-2-0.4c-0.8-0.1-1.5-0.1-2.3-0.2
		c-0.1,0-0.2-0.1-0.3-0.1l-0.5-1c0.2-1-0.1-2.1,0.7-3l0.7,0.1c-0.1,1-0.7,1.8-0.5,2.9l0.3,0.3l0.9,0.1c0.3-1.3,0.4-2.6,1.6-3.3
		l1.9,0.2c0.5,0.6,0.8,1.3,0.8,2.1c0.1,0.8-0.7,1.2-1,1.8c0.2,0.4,0.7,0,0.8,0.4l0,0.3C258.9,295.4,258.5,295.4,258.2,295.2
		L258.2,295.2z"/>
	<path class="st5" d="M220.3,328c0.8,0.9,1.1,1.7,0.8,2.5c-0.2,0.4-0.2,0.9-0.6,1.2v0.2l0.4,0.2l0,0.7c-0.8,0.3-1.4-0.5-2.1-0.4
		c-0.8,0-1.6-0.1-2.4-0.2c0-0.1,0-0.2,0-0.3c0.6-0.8,1.1-1.6,1.8-2.3l-0.2,1.9l1.2,0.1c0.7-0.4,1.1-1.1,1.1-1.9l-0.8-0.7l-0.7-0.1
		c0.1-0.5,0.3-1.1,0.9-1.3C219.7,328.1,220.1,327.8,220.3,328L220.3,328z"/>
	<path class="st5" d="M220.3,329.7c0,0.8-0.4,1.6-1.1,1.9l-1.2-0.1l0.2-1.9c0.3-0.2,0.1-0.7,0.6-0.8l0.7,0.1L220.3,329.7z"/>
	<path class="st5" d="M407.7,161.2c-0.2,0.4-0.7,0.3-1,0.6c-0.6-0.1-1.2-0.1-1.9-0.1c-0.6,0-1.1-0.5-1.7-0.4c0-0.1,0.1-0.2,0.1-0.2
		c0.8,0,1.7-0.2,2.4-0.5c0.6-0.2,1.2-0.3,1.9-0.2C407.7,160.5,407.9,160.8,407.7,161.2z"/>
	<path class="st5" d="M443.8,193.5c0.5-0.4,0-0.8,0-1.2c0.4-0.7,1-1.3,0.7-2.1c-0.2-0.5,0-1.3-0.8-1.6l-1.5-0.1
		c-0.9,0.2-1.6,1-1.5,1.9c0,0.4-0.5,0.8-0.3,1.3c-0.8,0.1-0.8,0.1-1.3-0.3c-0.3-0.9,0.5-1.6,0.4-2.5c-0.2-0.2-0.5-0.1-0.6-0.2
		c-0.5,0.5-0.4,1.3-1,1.8c0.5,0.4,0.3,0.8,0.3,1.2c0.3,0.5,0.7,0.9,1.2,1.1C440.8,193.1,442.4,192.8,443.8,193.5L443.8,193.5z
		 M442.2,192.3l-0.7-0.5l0.1-1.3c0.3-0.1,0.3-0.5,0.5-0.7c0.1-0.1,0.1-0.1,0.2-0.2l0.8,0.1c0.5,0.3,0.4,0.8,0.6,1.1l-0.8,1.2
		L442.2,192.3z"/>
	<path class="st5" d="M374,182.4l-1.6-0.1c-0.7,0.3-0.9,1.1-1.4,1.7l-0.1,1.6h-0.3l-0.7-0.1c-0.4-0.2-0.3-0.7-0.5-1
		c0,0-0.1-0.1-0.1-0.1l0.8-1.8l-0.5-0.5c-0.2-0.1-0.5,0.2-0.5,0.4c0,0.8-0.7,1.5-0.5,2.4c0.1,0.5,0.4,1,0.9,1.3
		c0.4,0.1,0.9-0.1,1.2,0.3c1.3,0,2.6,0.2,3.9,0.6c0.2-0.1,0-0.4,0.1-0.6s-0.5,0-0.5-0.4c0.2-0.3,0.3-0.7,0.6-0.9l0.2-2.1
		C374.7,182.7,374.2,182.8,374,182.4L374,182.4z M374,183.5l-0.1,1.4c-0.3,0.2-0.3,0.7-0.6,0.8l-1.5-0.1c-0.1-0.8,0.4-1.4,0.6-2.3
		L374,183.5z"/>
	<path class="st5" d="M297.6,259.5c0.4-0.6-0.3-0.7-0.3-1.2l0.6-1c0.1-0.7,0.1-1.3-0.1-2c-0.3-0.6-0.8-0.9-1.4-0.9
		c-0.6-0.1-1.2,0.1-1.5,0.6c-0.4,0.5-0.7,1.2-0.7,1.9c0,0.3,0,0.6-0.1,0.9c-0.3,0.2-0.6,0-1,0l-0.6-0.8c0.1-0.8,0.3-1.6,0.8-2.3
		c-0.3-0.2-0.7-0.3-1.1-0.2c0.1,0.5-0.5,0.9-0.4,1.5c0,0.5,0,1-0.1,1.5l1,1.1C294.3,258.7,296,259,297.6,259.5L297.6,259.5z
		 M294.9,258l0.1-1.7l0.9-0.8c0.8-0.2,0.9,0.4,1.2,0.7c0,0.8-0.4,1.5-1.1,1.9L294.9,258z"/>
	<path class="st5" d="M258.2,295.2c0.3,0.2,0.7,0.2,1,0l0-0.3c-0.1-0.4-0.6,0-0.8-0.4c0.3-0.6,1.1-1,1-1.8c0-0.8-0.2-1.5-0.8-2.1
		l-1.9-0.2c-1.2,0.8-1.3,2.1-1.6,3.3l-0.9-0.1l-0.3-0.3c-0.2-1,0.4-1.9,0.5-2.9l-0.7-0.1c-0.8,0.9-0.5,2-0.7,3l0.5,1
		c0.1,0.1,0.2,0.1,0.3,0.1c0.8,0.1,1.5,0.1,2.3,0.2C256.8,294.7,257.5,294.9,258.2,295.2L258.2,295.2z M256.1,293.9
		c0.2-0.7,0.6-1.3,0.5-1.9c0.5-0.6,1.1-0.2,1.5-0.7l0.4,0.5l-0.1,1.5l-0.6,0.7L256.1,293.9z"/>
	<path class="st5" d="M333.9,218.4c-0.5,0.3-0.9,0.8-1.1,1.4l-0.1,1.4c-0.7,0-0.7,0-1.2-0.6c-0.3-0.8,0.6-1.3,0.3-2.1
		c-0.7-0.2-0.6,0.6-1,0.8c-0.1,0.9-0.3,1.8,0.4,2.6c1.6,0.3,3.4,0,4.8,1c0.1-0.1,0.1-0.3,0.1-0.4c0,0,0-0.1,0-0.1l-0.1-0.1l-0.1-0.1
		l-0.1-0.1c-0.1-0.1-0.1-0.2-0.2-0.3c0-0.2,0.1-0.3,0.3-0.5c0,0,0,0,0.1-0.1c0.1-0.1,0.1-0.2,0.2-0.3c0-0.1,0.1-0.1,0.1-0.2
		c0.2-0.6,0.1-1.3-0.1-1.9C335.5,218.4,334.6,218.5,333.9,218.4z M334.7,219.3c0.1,0.1,0.2,0.2,0.4,0.3c0.1,0.1,0.2,0.1,0.3,0.1
		c0.1,0.7-0.2,1.4-0.8,1.8l-1.2-0.1c-0.1-0.7,0.1-1.4,0.5-1.9c0,0,0.1,0.1,0.1,0.1h0.1l0.1-0.1C334.5,219.3,334.6,219.2,334.7,219.3
		z"/>
	<path class="st5" d="M441.5,190.5c0.3-0.1,0.3-0.5,0.5-0.7c0.1-0.1,0.1-0.1,0.2-0.2l0.8,0.1c0.5,0.3,0.4,0.8,0.6,1.1l-0.8,1.2
		l-0.8,0.3l-0.7-0.5L441.5,190.5z"/>
	<path class="st5" d="M373.2,185.8l-1.5-0.1c-0.1-0.8,0.4-1.4,0.6-2.3l1.7,0.1l-0.1,1.4C373.5,185.2,373.5,185.7,373.2,185.8
		L373.2,185.8z"/>
	<path class="st5" d="M296,255.5c0.8-0.2,0.9,0.4,1.2,0.7c0,0.8-0.4,1.5-1.1,1.9l-1.2-0.1l0.1-1.7L296,255.5z"/>
	<path class="st5" d="M256.5,292c0.5-0.6,1.1-0.2,1.5-0.7l0.4,0.5l-0.1,1.5l-0.6,0.7l-1.6-0.1C256.2,293.2,256.6,292.6,256.5,292
		L256.5,292z"/>
	<path class="st5" d="M334.7,219.3c0.1,0.1,0.2,0.2,0.4,0.3c0.1,0.1,0.2,0.1,0.3,0.1c0.1,0.7-0.2,1.4-0.8,1.8l-1.2-0.1
		c-0.1-0.7,0.1-1.4,0.5-1.9c0,0,0.1,0.1,0.1,0.1h0.1l0.1-0.1C334.5,219.3,334.6,219.2,334.7,219.3z"/>
</g>
</svg>
