<?xml version="1.0" encoding="UTF-8"?>
<svg id="uuid-aaaecb11-2c37-4022-8bdc-4b6124726eef" data-name="Capa 1" xmlns="http://www.w3.org/2000/svg" viewBox="0 0 566.93 566.93">
  <defs>
    <style>
      .uuid-03674526-d4a5-47f1-ae61-89a7b9017df3 {
        fill: #010101;
      }

      .uuid-295b0a1e-fd69-4947-a6f3-222718e4507e {
        fill: #fbfbfb;
      }

      .uuid-cdb1c97f-d824-422e-b7b6-2bd83ccf6544 {
        fill: #944b96;
      }
    </style>
  </defs>
  <circle class="uuid-03674526-d4a5-47f1-ae61-89a7b9017df3" cx="283.46" cy="283.46" r="278.66"/>
  <g>
    <path class="uuid-cdb1c97f-d824-422e-b7b6-2bd83ccf6544" d="M426.78,426.78c-38.28,38.28-89.18,59.36-143.31,59.36s-105.03-21.08-143.31-59.36c-38.28-38.28-59.36-89.18-59.36-143.31,0-7.29.39-14.52,1.15-21.67l-75.55-8.09c-1.04,9.78-1.59,19.7-1.59,29.76,0,153.9,124.76,278.66,278.66,278.66,113.57,0,211.25-67.96,254.66-165.42l-71.09-27.12c-9.86,20.98-23.38,40.31-40.25,57.19ZM25.03,346.25c0-13.17,10.67-23.84,23.84-23.84s23.84,10.67,23.84,23.84-10.67,23.84-23.84,23.84-23.84-10.67-23.84-23.84ZM84.74,445.42c-13.17,0-23.84-10.67-23.84-23.84s10.67-23.84,23.84-23.84,23.84,10.67,23.84,23.84-10.67,23.84-23.84,23.84Z"/>
    <path class="uuid-cdb1c97f-d824-422e-b7b6-2bd83ccf6544" d="M89.2,225.43l-71.12-27.13c-3.03,9.44-5.55,19.09-7.56,28.94l74.31,15.74c1.2-5.92,2.65-11.78,4.37-17.54Z"/>
    <path class="uuid-cdb1c97f-d824-422e-b7b6-2bd83ccf6544" d="M283.46,4.8c-113.35,0-210.89,67.68-254.42,164.84l70.7,28.02c9.87-21.1,23.45-40.54,40.41-57.51,38.28-38.28,89.18-59.36,143.31-59.36s105.03,21.08,143.31,59.36c38.28,38.28,59.36,89.18,59.36,143.31,0,7.24-.39,14.42-1.13,21.52l75.56,8.1c1.03-9.73,1.56-19.61,1.56-29.62,0-153.9-124.76-278.66-278.66-278.66ZM462.3,145.96c0-13.17,10.67-23.84,23.84-23.84s23.84,10.67,23.84,23.84-10.67,23.84-23.84,23.84-23.84-10.67-23.84-23.84ZM516.55,245.36c-13.17,0-23.84-10.67-23.84-23.84s10.67-23.84,23.84-23.84,23.84,10.67,23.84,23.84-10.67,23.84-23.84,23.84Z"/>
    <path class="uuid-cdb1c97f-d824-422e-b7b6-2bd83ccf6544" d="M476.08,346.82l70.7,28.02c3.62-10.44,6.62-21.17,9-32.13l-74.31-15.74c-1.46,6.72-3.25,13.35-5.39,19.85Z"/>
  </g>
  <g>
    <path class="uuid-295b0a1e-fd69-4947-a6f3-222718e4507e" d="M68.16,157.96l-2.86-2.05-1.21-.87,5.82-8.12,34.86-5.73-20.31-14.57,5.82-8.12,32.5,23.31-5.82,8.12-48.81,8.02ZM79.52,166.11l-7.3-5.24,13.95-2.29,16.25,11.66-5.82,8.12-17.07-12.25Z"/>
    <path class="uuid-295b0a1e-fd69-4947-a6f3-222718e4507e" d="M121.73,137.11l-.99-1.1,1.12-21.17-21.17-1.14-3.34-3.72,7.43-6.68,21.17,1.14,11.14-10.02,6.68,7.44-11.14,10.02-.37,7.06,14.86-13.36,7.06.38,3.34,3.72-33.43,30.05-2.35-2.61ZM108.49,99.96l22.29-20.04,3.34,3.72-.37,7.06-11.14,10.02-14.11-.76Z"/>
    <path class="uuid-295b0a1e-fd69-4947-a6f3-222718e4507e" d="M141.96,77.47l-1.73-3.06-.73-1.29,8.7-4.91,13.62,3.79-2.83,10.21-17.02-4.74ZM157.46,104.88l-.73-1.29,13.21-47.67,8.7-4.91,2.46,4.35-13.21,47.67-8.7,4.91-1.73-3.06ZM176.01,86.95l2.83-10.22,17.02,4.74,2.46,4.35-8.7,4.91-13.62-3.79Z"/>
    <path class="uuid-295b0a1e-fd69-4947-a6f3-222718e4507e" d="M205.73,51.56l-14.28,4.54-2.12-6.66-.91-2.87,38.07-12.1,1.51,4.76-3.24,6.28-9.52,3.03,9.09,28.58-9.52,3.03-9.09-28.58Z"/>
    <path class="uuid-295b0a1e-fd69-4947-a6f3-222718e4507e" d="M254.16,32.62l.03-3.52v-1.48s10,.09,10,.09l34.64,35.32-.05,5-9.99-.09-34.64-35.32ZM274.14,32.8l.05-5,9.99.09,34.64,35.32-.04,5-9.99-.09-34.64-35.32ZM308.96,48.12l.18-20,9.99.09-.27,30-9.9-10.09Z"/>
    <path class="uuid-295b0a1e-fd69-4947-a6f3-222718e4507e" d="M321.75,65.92l.41-1.43,43.26-24,9.6,2.75-11.04,38.44-9.6-2.75,1.38-4.81-14.4-4.13,12.36-6.86,4.8,1.38,2.76-9.61-30.9,17.14-9.6-2.75.97-3.38Z"/>
    <path class="uuid-295b0a1e-fd69-4947-a6f3-222718e4507e" d="M367.95,79.21l.71-1.3,47.45-14,8.77,4.78-2.39,4.39-47.45,14-8.77-4.78,1.68-3.09ZM381.11,55.06l4.3-7.89,8.77,4.78-9.57,17.56-13.56,4,10.06-18.46Z"/>
    <path class="uuid-295b0a1e-fd69-4947-a6f3-222718e4507e" d="M410.27,102.26l.99-1.11,21.16-1.26-1.23-21.16,3.32-3.74,7.46,6.64,1.23,21.16,11.2,9.95-6.64,7.47-11.2-9.95-7.05.42,14.93,13.27.41,7.05-3.32,3.74-33.59-29.86,2.34-2.63ZM445.71,84.95l22.39,19.91-3.32,3.74-7.06.42-11.2-9.95-.82-14.11Z"/>
  </g>
  <g>
    <path class="uuid-295b0a1e-fd69-4947-a6f3-222718e4507e" d="M137.52,463.11l1.81-3.02.76-1.27,8.57,5.13,12.02,48-2.57,4.29-8.57-5.13-12.02-48ZM154.66,473.38l2.57-4.29,8.57,5.13,12.02,48-2.57,4.29-8.57-5.13-12.02-48ZM176.95,504.21l10.27-17.16,8.57,5.13-15.41,25.75-3.43-13.71Z"/>
    <path class="uuid-295b0a1e-fd69-4947-a6f3-222718e4507e" d="M199.32,505.77l3.21-11.56,6.95,12.31-8.02,28.91-9.63-2.67,7.49-26.99ZM215.1,523.64l-4.81-1.33,2.67-9.64,9.63,2.67,6.15-3.48-14.44-4.01-6.95-12.31,38.51,10.69-2.67,9.64-12.3,6.96h-.04c-.51.28-1.53.86-3.04,1.74l8.69,15.38-1.34,4.82-9.63-2.67-10.43-18.46Z"/>
    <path class="uuid-295b0a1e-fd69-4947-a6f3-222718e4507e" d="M251.77,544.32l.06-1.48,36.39-33.5,9.98.42-1.67,39.97-9.98-.42.21-5-14.97-.63,10.4-9.57,4.99.21.42-9.99-26,23.93-9.98-.42.15-3.51Z"/>
    <path class="uuid-295b0a1e-fd69-4947-a6f3-222718e4507e" d="M308.45,520.24l-1.41-11.91,9.92-1.17,4.69,39.73-9.92,1.17-3.28-27.82Z"/>
    <path class="uuid-295b0a1e-fd69-4947-a6f3-222718e4507e" d="M343.24,512.51l-14.45,3.96-1.85-6.74-.8-2.9,38.53-10.57,1.32,4.82-3.49,6.14-9.63,2.64,7.95,28.93-9.63,2.64-7.95-28.93Z"/>
    <path class="uuid-295b0a1e-fd69-4947-a6f3-222718e4507e" d="M377.75,504.65l-5.67-10.57,8.8-4.73,7.1,13.22,8.8-4.72-4.07,13.54,7.1,13.22-8.8,4.72-13.25-24.68ZM414.71,499.58l-17.6,9.45,4.07-13.54,8.8-4.72-7.1-13.22,8.8-4.72,18.93,35.24-8.8,4.72-7.1-13.22Z"/>
    <path class="uuid-295b0a1e-fd69-4947-a6f3-222718e4507e" d="M429.71,481.79l-1.94-2.3,22.92-19.3,6.44,7.65-22.92,19.3-4.5-5.35Z"/>
    <path class="uuid-295b0a1e-fd69-4947-a6f3-222718e4507e" d="M452.27,446.61l-1.12-.98-.48-7.05,9.85-11.29.96,14.1-6.57,7.52-2.65-2.31ZM465.26,444.69l-.96-14.1,26.37,23.02-6.57,7.52-18.83-16.44Z"/>
  </g>
  <g>
    <rect class="uuid-295b0a1e-fd69-4947-a6f3-222718e4507e" x="261.94" y="244.62" width="43.67" height="32.1"/>
    <path class="uuid-295b0a1e-fd69-4947-a6f3-222718e4507e" d="M267.37,309.98v-2.39s8.1-8.01,8.1-8.01l24.13.13-16.17,16.01-16.08-.09.03-5.66ZM283.38,323.78l16.17-16.01-.31,56.36-16.08-.09.22-40.26Z"/>
    <polygon class="uuid-295b0a1e-fd69-4947-a6f3-222718e4507e" points="255.22 311.99 236.51 297.6 236.51 225.14 220.68 215.06 197.16 221.78 197.16 227.06 219.24 233.3 219.24 244.62 105.99 244.62 101.1 249.52 101.1 290.4 209.16 338.38 209.16 329.75 169.81 305.27 169.81 258.73 215.88 258.73 215.88 296.64 250.91 314.72 255.22 311.99"/>
    <polygon class="uuid-295b0a1e-fd69-4947-a6f3-222718e4507e" points="311.7 311.99 330.42 297.6 330.42 225.14 346.25 215.06 369.77 221.78 369.77 227.06 347.69 233.3 347.69 244.62 460.94 244.62 465.83 249.52 465.83 290.4 357.77 338.38 357.77 329.75 397.12 305.27 397.12 258.73 351.05 258.73 351.05 296.64 316.02 314.72 311.7 311.99"/>
    <rect class="uuid-295b0a1e-fd69-4947-a6f3-222718e4507e" x="261.94" y="223.7" width="43.67" height="11.52"/>
  </g>
</svg>