<?xml version="1.0" encoding="UTF-8"?><svg id="Capa_1" xmlns="http://www.w3.org/2000/svg" viewBox="0 0 566.93 566.93"><defs><style>.cls-1{font-size:34px;}.cls-1,.cls-2{fill:#fff;font-family:Tahoma-Bold, Tahoma;font-weight:700;}.cls-3{fill:#35495e;}.cls-3,.cls-4,.cls-5{stroke-width:0px;}.cls-4{fill:#be1622;}.cls-5{fill:#f1c410;}.cls-2{font-size:35px;}</style></defs><path class="cls-3" d="M284.4,4.35c-.31,0-.63-.01-.94-.01C129.31,4.34,4.34,129.31,4.34,283.46s124.97,279.13,279.13,279.13c.31,0,.63-.01.94-.01,153.72-.51,278.19-125.27,278.19-279.12S438.13,4.86,284.4,4.35Z"/><path class="cls-4" d="M284.17,75.16c-.23,0-.47,0-.7,0-115.05,0-208.32,93.27-208.32,208.32s93.27,208.32,208.32,208.32c.23,0,.47,0,.7,0,114.73-.38,207.62-93.49,207.62-208.31s-92.89-207.93-207.62-208.31Z"/><path class="cls-5" d="M480.9,86.03c52.73,52.74,81.78,122.86,81.78,197.43s-29.05,144.7-81.78,197.43c-52.74,52.74-122.86,81.78-197.43,81.78s-144.7-29.04-197.43-81.78C33.3,428.16,4.25,358.05,4.25,283.46s29.04-144.69,81.78-197.43C138.76,33.3,208.88,4.26,283.47,4.26s144.69,29.04,197.43,81.77ZM556.69,283.46c0-150.65-122.57-273.21-273.22-273.21S10.25,132.81,10.25,283.46s122.57,273.22,273.22,273.22,273.22-122.56,273.22-273.22Z"/><text class="cls-1" transform="translate(68.23 232.82) rotate(-74.32)"><tspan x="0" y="0">F</tspan></text><text class="cls-1" transform="translate(73.49 214.24) rotate(-69.91)"><tspan x="0" y="0">I</tspan></text><text class="cls-1" transform="translate(78.76 199.23) rotate(-64.85)"><tspan x="0" y="0">R</tspan></text><text class="cls-1" transform="translate(89.08 177.41) rotate(-59.2)"><tspan x="0" y="0">E</tspan></text><text class="cls-1" transform="translate(99.72 159.89) rotate(-55.37)"><tspan x="0" y="0"> </tspan></text><text class="cls-1" transform="translate(104.91 151.88) rotate(-51.06)"><tspan x="0" y="0">R</tspan></text><text class="cls-1" transform="translate(120.1 133.17) rotate(-45.4)"><tspan x="0" y="0">E</tspan></text><text class="cls-1" transform="translate(134.35 118.62) rotate(-39.99)"><tspan x="0" y="0">C</tspan></text><text class="cls-1" transform="translate(151.18 104.34) rotate(-33.93)"><tspan x="0" y="0">O</tspan></text><text class="cls-1" transform="translate(172.34 90.07) rotate(-27.39)"><tspan x="0" y="0">N</tspan></text><text class="cls-1" transform="translate(195.3 78.51) rotate(-22.86)"><tspan x="0" y="0"> </tspan></text><text class="cls-1" transform="translate(203.99 74.56) rotate(-18.66)"><tspan x="0" y="0">A</tspan></text><text class="cls-1" transform="translate(225.43 67.25) rotate(-12.57)"><tspan x="0" y="0">R</tspan></text><text class="cls-1" transform="translate(248.8 61.81) rotate(-5.52)"><tspan x="0" y="0">M</tspan></text><text class="cls-1" transform="translate(278.29 59.05) rotate(1.75)"><tspan x="0" y="0">O</tspan></text><text class="cls-1" transform="translate(303.8 59.84) rotate(8.27)"><tspan x="0" y="0">R</tspan></text><text class="cls-1" transform="translate(327.64 63.34) rotate(14.24)"><tspan x="0" y="0">E</tspan></text><text class="cls-1" transform="translate(347.39 68.15) rotate(19.96)"><tspan x="0" y="0">D</tspan></text><text class="cls-1" transform="translate(371.01 77.05) rotate(24.53)"><tspan x="0" y="0"> </tspan></text><text class="cls-1" transform="translate(379.82 80.83) rotate(28.59)"><tspan x="0" y="0">S</tspan></text><text class="cls-1" transform="translate(398.27 90.7) rotate(34.72)"><tspan x="0" y="0">Q</tspan></text><text class="cls-1" transform="translate(419.23 105.22) rotate(41.27)"><tspan x="0" y="0">U</tspan></text><text class="cls-1" transform="translate(437.62 121.39) rotate(47.4)"><tspan x="0" y="0">A</tspan></text><text class="cls-1" transform="translate(453.02 137.99) rotate(53.56)"><tspan x="0" y="0">D</tspan></text><text class="cls-1" transform="translate(467.94 158.2) rotate(59.86)"><tspan x="0" y="0">R</tspan></text><text class="cls-1" transform="translate(480.08 178.97) rotate(66.18)"><tspan x="0" y="0">O</tspan></text><text class="cls-1" transform="translate(490.42 202.3) rotate(72.68)"><tspan x="0" y="0">N</tspan></text><text class="cls-1" transform="translate(497.79 226.93) rotate(77.16)"><tspan x="0" y="0"> </tspan></text><text class="cls-2" transform="translate(177.52 513.34) rotate(20.91)"><tspan x="0" y="0">W</tspan></text><text class="cls-2" transform="translate(213.05 526.43) rotate(13.72)"><tspan x="0" y="0">R</tspan></text><text class="cls-2" transform="translate(239.17 532.64) rotate(8.17)"><tspan x="0" y="0">E</tspan></text><text class="cls-2" transform="translate(261.89 535.88) rotate(2.86)"><tspan x="0" y="0">C</tspan></text><text class="cls-2" transform="translate(286.69 537.06) rotate(-2.79)"><tspan x="0" y="0">K</tspan></text><text class="cls-2" transform="translate(312.47 535.67) rotate(-8.23)"><tspan x="0" y="0">E</tspan></text><text class="cls-2" transform="translate(335.23 532.4) rotate(-13.78)"><tspan x="0" y="0">R</tspan></text><text class="cls-2" transform="translate(361.32 525.84) rotate(-19.43)"><tspan x="0" y="0">S</tspan></text><path class="cls-5" d="M140.58,160.15l-13.68-13.78c-32.16,36.66-51.75,84.61-51.75,137.1s18.98,99.03,50.27,135.48l13.74-13.71c-27.82-32.91-44.64-75.41-44.64-121.78s17.41-90.2,46.05-123.32Z"/><path class="cls-5" d="M283.46,94.53c46.54,0,89.17,16.95,122.13,44.95l13.75-13.71c-36.51-31.5-83.99-50.62-135.88-50.62-48.79,0-93.67,16.9-129.21,45.1l13.86,13.73c31.94-24.7,71.94-39.45,115.35-39.45Z"/><path class="cls-5" d="M442.28,148.89l-13.75,13.79c27.35,32.77,43.88,74.87,43.88,120.79,0,42.76-14.3,82.23-38.34,113.93l13.85,13.72c27.46-35.29,43.87-79.58,43.87-127.65,0-51.28-18.66-98.25-49.5-134.58Z"/><path class="cls-5" d="M283.46,472.4c-45.76,0-87.71-16.41-120.43-43.59l-13.75,13.78c36.27,30.65,83.09,49.18,134.18,49.18s99.43-19.19,135.94-50.76l-13.63-13.73c-32.98,28.1-75.68,45.12-122.31,45.12Z"/><polygon class="cls-5" points="279.97 117.51 263.38 150.7 263.38 251.96 280.24 228.85 279.97 117.51"/><path class="cls-5" d="M279.92,359.94l.32-71.01-16.6,16.6v25.84s10.29,21.01,5.04,28.57c-.21,0,11.23,0,11.23,0Z"/><path class="cls-5" d="M214.7,355.32l-14.71,14.71c17.69,24.13,62.81,32.98,62.81,32.98,0,0,.21-21.64,0-21.64-26.89-1.68-48.11-26.05-48.11-26.05Z"/><path class="cls-5" d="M249.53,189.38v-23.62s-7.48.94-11.7,4.91c.23.23,0,24.33,0,24.33,0,0,4.09-5.38,11.7-5.61Z"/><path class="cls-3" d="M341.73,175.07v26.05s68.48,47.48,29.41,128.99c-.42,0-87.67-88.65-87.67-88.65,0,0-87.25,88.65-87.67,88.65-39.07-81.51,29.41-128.99,29.41-128.99v-26.05c-124.36,90.33-30.67,186.55-30.67,186.55l88.93-89.07,88.93,89.07s93.69-96.21-30.67-186.55Z"/><polygon class="cls-5" points="303.07 150.7 286.97 117.5 286.69 228.85 303.07 251.96 303.07 150.7"/><path class="cls-5" d="M303.28,331.37v-25.84l-16.6-16.6.32,71.01s11.44,0,11.23,0c-5.25-7.56,5.04-28.57,5.04-28.57Z"/><path class="cls-5" d="M304.12,381.37c-.21,0,0,21.64,0,21.64,0,0,45.13-8.85,62.81-32.98l-14.71-14.71s-21.22,24.37-48.11,26.05Z"/><path class="cls-5" d="M294.25,369.39h25s10.5-3.36,8.61-14.07c-.42,0,1.68-12.18-13.02-13.65-.63.42-13.02-.42-12.6,13.65-.21-.42,0,6.3,0,6.3h-37.53s.21-6.72,0-6.3c.42-14.07-11.97-13.23-12.6-13.65-14.71,1.47-12.6,13.65-13.02,13.65-1.89,10.71,8.61,14.07,8.61,14.07h25s.63,46.43.42,46.01c-19.12,27.1,10.36,34.03,10.36,34.03,0,0,29.48-6.93,10.36-34.03-.21.42.42-46.01.42-46.01ZM315.25,345.79c4.72,0,8.54,3.82,8.54,8.54s-3.82,8.54-8.54,8.54-8.54-3.82-8.54-8.54,3.82-8.54,8.54-8.54ZM251.67,362.88c-4.72,0-8.54-3.82-8.54-8.54s3.82-8.54,8.54-8.54,8.54,3.82,8.54,8.54-3.82,8.54-8.54,8.54Z"/><path class="cls-5" d="M329.09,194.99s-.23-24.09,0-24.33c-4.21-3.98-11.7-4.91-11.7-4.91v23.62c7.6.23,11.7,5.61,11.7,5.61Z"/></svg>