<svg enable-background="new 0 0 113.4 113.4" viewBox="0 0 113.4 113.4" xmlns="http://www.w3.org/2000/svg"><path d="m56.7 0c31.4 0 56.7 25.4 56.7 56.8 0 31.2-25.5 56.6-56.7 56.6-31.4 0-56.7-25.4-56.7-56.8 0-31.3 25.4-56.6 56.7-56.6z" fill="#d93831"/><path d="m20.4 59.5h20.9c.8 4.2 3 7.6 6.5 10 2.6 1.8 5.6 2.7 8.8 2.7 7.4 0 12.2-4 15.4-12.7h20.9c-1.2 18.5-17.5 34.3-38.1 33.3-20.3-1-33.8-17.6-34.4-33.3z" fill="#fae400"/><path d="m85.9 102.2c-4.2 2.9-8.8 4.8-13.6 6.3-6.3 2-12.7 2.7-19.2 2.3-9.2-.6-17.8-3.4-25.6-8.4-.1 0-.1-.1-.2-.2.1-.7.7-.6 1.2-.8 2-.6 4.1-1.1 6.1-1.7.2-.9-.1-1.6-.3-2.3-.4-1.4-.7-2.8-1.1-4.2-.1-.5-.4-1 .1-1.4 5 3.3 10.5 5.5 16.4 6.5 4.1.7 8.3.7 12.5.2 6.5-.8 12.4-3.1 17.8-6.7.4.5.2 1 .1 1.4-.4 1.5-.7 3-1.1 4.4-.2.6-.4 1.2-.2 1.8.3.5.9.5 1.3.7 1.6.4 3.2.9 4.8 1.3.4.2 1 .1 1 .8z" fill="#fae400"/><path d="m41.1 54.1c-7 0-13.9 0-20.9 0 .8-16.7 15.3-32.9 35.4-33.3 20.5-.5 36.1 15.4 37.2 33.3-7 0-13.9 0-20.9 0-2.5-8-7.5-12.3-14.5-12.7-2.5-.1-5 .3-7.3 1.3-2.3 1.1-4.3 2.6-5.9 4.7-1.6 2-2.5 4.3-3.1 6.7z" fill="#fae400"/><path d="m68.6 53.3c-8.2 0-16.2 0-24.3 0-.3-3.4 5.3-8.3 10-8.8 6.7-.8 13.4 3.2 14.3 8.8z" fill="#fae400"/><path d="m100.6 88.2c-1.3 2.4-3.2 4.3-5 6.3-2.1 2.3-4.5 4.3-7.1 6.1-.4.3-.7.6-1.2.6-2.2-.1-4.2-.8-6.3-1.6-.4-.6.2-.8.5-1.1 3.3-1.9 6.2-4.3 9.1-6.9 1.1-1 1.9-2.3 3.1-3.2.2-.1.3-.1.5-.2 2-.2 4.2-.2 6.4 0z" fill="#020203"/><path d="m26.2 101.1c-1.4-.4-2.4-1.4-3.5-2.3-3.9-3-7.2-6.5-10-10.6.4-.5.9-.2 1.4-.2 1.4 0 2.8-.1 4.2.1h.3c.2-.1.3-.1.5 0 .1.1.1.1.2 0 .2.1.3.1.5.2 1.5 1.1 2.6 2.7 4 3.9 2.5 2.2 5.1 4.3 8 6 .4.3 1.1.4.8 1.2-1.7.7-3.4 1.3-5.3 1.4-.4.3-.8.2-1.1.3z" fill="#020203"/><path d="m81.6 91c .4-.7 1-1.1 1.6-1.6 3.6-3.1 6.9-6.5 9.3-10.6.6-.1.4.4.4.6v8c0 .6-.3 1-.6 1.5-2.3 2.7-5 4.9-7.8 7-1.1.8-2.1 1.5-3.3 2.1-.4.2-.9.5-1.4.2-.3-1 .2-1.8.5-2.7.3-1.6.4-3.2 1.3-4.5z" fill="#020203"/><path d="m20.8 78.8c2.4 4.1 5.7 7.5 9.3 10.6.6.5 1.2.9 1.6 1.6 1 2 1.3 4.2 1.9 6.2.1.3.1.6 0 .9-.5.4-1 .1-1.4-.1-2.4-1.4-4.8-3-6.9-4.9-1.5-1.4-3.1-2.6-4.3-4.3-.3-.4-.6-.8-.6-1.4 0-2.7 0-5.3 0-8 .1-.2-.1-.7.4-.6z" fill="#020203"/><path d="m108 74c-1.6 4.5-3.7 8.8-6.3 12.8-1.1.5-2.2 0-3.3.2-1 0-2.1.1-3.4-.1 1.1-2.1 2.5-3.7 3.6-5.6s1.9-3.9 3-5.7c1.9-1.1 4-1.4 6-1.8.2-.1.3.1.4.2z" fill="#020203"/><path d="m11.7 86.9c-2.7-4-4.7-8.3-6.3-12.8.1-.2.2-.3.4-.3 2.1.4 4.2.7 6.1 1.8 1.2 2 2.1 4.2 3.3 6.2.8 1.2 1.6 2.5 2.5 3.7.3.4.7.8.4 1.5-2 .1-4 0-6 0-.2.1-.3 0-.4-.1z" fill="#020203"/><path d="m15.5 66.1c.9 3.1 1.8 6.2 3.3 9.1.1.2.2.4.3.5s.1.3.1.4c.3 3.2.1 6.3 0 9.5-.8.1-1.2-.5-1.5-1-1.8-2.5-3.3-5.3-4.7-8.1-.2-.5-.4-1-.3-1.6.6-2.7 1.4-5.3 2.1-8 .1-.3 0-.8.7-.8z" fill="#020203"/><path d="m94.2 76c1.5-3.2 2.7-6.5 3.6-9.9.6 0 .6.5.7.9.7 2.7 1.5 5.3 2.1 8 .1.6-.1 1.1-.3 1.6-1.3 2.8-2.8 5.6-4.7 8.1-.4.6-.4.6-1.5 1.1.1-3.3-.3-6.6.1-9.8z" fill="#020203"/><path d="m107.8 50.3c-1.2-11.4-5.9-21.1-13.1-29.8 4.5.6 13.7 17.2 15.3 27.5-.5.8-1.3 1.5-2.2 2.3z" fill="#070505"/><path d="m18.8 20.6c-7.3 8.6-12 18.3-13.2 29.6-.9-.7-1.6-1.4-2.3-2.3 2.1-10.9 6.9-20.2 14.8-27.8.2.2.4.4.7.5z" fill="#070505"/><path d="m91.8 23.6c5.5 2 14.8 20.8 14.2 28.5-.3.4-.5.7-1 .9-.8-.6-1.4-1.3-1.5-2.3-1.1-9.7-4.9-18.3-11.1-25.8-.5-.5-.5-.5-.6-1.3z" fill="#070505"/><path d="m8.4 53.1c-.5-.2-.8-.6-1-.9-.6-7.7 8.6-26.5 14.1-28.5.4.5-.1.8-.3 1.2-6.4 7.5-10.3 16.1-11.3 25.9-.2 1.1-.7 1.7-1.5 2.3z" fill="#070505"/><path d="m4.8 72.3c-1-3.4-1.8-6.9-2-10.5l.1-.1c2.2.9 4.4 1.8 5.9 3.7.5 2.3 1 4.6 1.8 6.8.2.5.4 1.1 0 1.7-1 .4-1.9-.2-2.8-.5-.9-.2-2.1-.2-3-1.1z" fill="#020203"/><path d="m110.5 61.8c-.2 3.6-1 7.1-2 10.5-1.8 1.1-3.8 1.6-5.9 1.7-.4-.6-.2-1.1 0-1.7.8-2.2 1.3-4.5 1.8-6.8.1-.3.3-.6.6-.8 1.6-1.1 3.3-2 5-2.9.2-.1.4-.1.5 0z" fill="#020203"/><path d="m105.5 54.9c1.4-1.8 3.2-3.2 4.9-5.1.7 3.5.4 6.8.5 10.1-1.4 1.6-3.4 2.4-5.2 3.3-.3.2-.6 0-.7-.4 0-2.5.2-4.9.2-7.4 0-.1.1-.3.3-.5z" fill="#020203"/><path d="m2.5 60c0-3.3-.2-6.6.4-10.1 1.7 1.7 3.3 3.3 4.8 4.8.3.2.4.6.4.9 0 2.5.1 4.9.2 7.3-.1.4-.4.6-.8.4-1.6-1-3.6-1.7-5-3.3z" fill="#020203"/><path d="m60.7 11.9c.2.3.7.4.7.9-.7.5-1.6 0-2.3.3-.6.4 0 1.5-1 1.6-.4-.5 0-1.1-.3-1.6-.7-.4-1.6.2-2.2-.4.2-.7.2-.7 1.1-.8-.7-.5-.6-.9.2-1.2-.8.1-1.5.2-2.3.5-.1.6 1.5.4.6 1.3-.4.6-.9 1.1-1.4 1.7-.9-.3-.7-1-.6-1.6 0-.6 0-1.3 0-1.7-.4-.6-1.6.2-1.5-1 .4-.4.9.1 1.3-.1.3-.2.2-.6.2-1-.4-.3-.6-.1-.9.2-.2.2-.3.5-.9.3.8-1.4 1.5-2.8 1.7-4.3.5-.3.8.1 1.2.2.2.6-.6.6-.5 1.1.6.3.9-.1 1.4-.4.4.2.8.4.9.9-.8.8-2.2-.4-3 .8.7.4 1.3.2 1.7-.3.3.2.6.4.9.5 1.1-.8 1.5-1.9 2-3 .5-.1.9 0 1.2.3s-.2.4-.1.7c.6.2 1.5-.8 2 .4-.4.6-1 1-1.2 1.8.6.7 1.5.6 2.2 1.1-.1.6-.7.6-1 .9 0-.1-.1-.1-.1-.2v-.1.1l.1.1c.2.4-.2.6-.4.8.1.3.5.5.4 1-.2.2-.6.1-.8.3.2-.1.5-.3.7-.1z" fill="#070303"/><path d="m25.5 26c .3.6-.1.8-.3 1.1-4.4 5.3-7.7 11.2-9.3 18-.4 1.7-1.9 2.5-3 3.7-.9-5.5 7.5-20.4 12.6-22.8z" fill="#040203"/><path d="m87.8 26c4.4 1.3 13.1 16.4 12.8 22.7-1.2-1.3-2.7-2.1-3.1-3.7-1.6-6.8-4.9-12.7-9.4-18.1-.2-.2-.6-.4-.3-.9z" fill="#040203"/><path d="m14.4 56.7c.1 1.9.1 3.8.5 5.7-.2 3.4-1.5 6.6-2.3 9.9-.1.3-.2.7-.4.9-.9 0-1-.7-1.1-1.3-.7-2.2-1.4-4.4-1.7-6.7.1-1 .7-1.8 1.2-2.6.9-1.6 1.8-3.2 2.8-4.8.2-.4.3-1.1 1-1.1z" fill="#030203"/><path d="m98.4 62.4c.4-1.9.4-3.8.5-5.7.7-.1.8.6 1 .9 1.3 2.2 2.5 4.3 3.7 6.5.1.2.2.5.3.7v.4c-.4 2.2-1 4.4-1.6 6.5-.2.6-.3 1.4-1.2 1.4-.7-.9-.7-2-1-3-.7-2.5-1.6-5-1.7-7.7z" fill="#030203"/><path d="m98.9 54.1c-.3-1.8-.5-3.6-.8-5.4.1-.1.2-.2.3-.3 1.9 2 3.8 4 5.8 6 .6 1.9.5 6.6-.2 8.1-.3.2-.5 0-.6-.2-1.5-2.7-3.4-5.3-4.5-8.2z" fill="#030203"/><path d="m9.1 54.4c1.9-2 3.9-4 5.8-5.9.1.1.2.1.3.2-.3 1.8-.5 3.6-.8 5.4-.6 2-1.9 3.6-2.9 5.5-.4.8-.9 1.7-1.4 2.4-.2.3-.3.8-.8.5-.2-.2-.3-.4-.3-.7-.2-2.5-.7-5 .1-7.4z" fill="#030203"/><path d="m12.1 73.1c.9-3.6 1.9-7.1 2.8-10.7-.1 1.3.4 2.5.5 3.7-1 2.6-1.5 5.3-2.3 8-.1.3-.2.6-.3.8-.2.2 0 .6-.3.9-.3.2-.6.2-.9-.1-2-.8-4.1-1.4-6.3-1.7.1-.6-.4-1.1-.5-1.7 1.9.5 3.9 1.1 5.8 1.6.5-.2 1.1-.4 1.5-.8z" fill="#d63831"/><path d="m98.4 62.4c.9 3.6 1.9 7.1 2.8 10.7.5.3 1 .6 1.5.9 1.9-.5 3.9-1.1 5.8-1.6-.2.6-.8 1-.5 1.7-2.2.3-4.3.9-6.3 1.7-.3.2-.6.3-.9.1-.4-.2-.2-.6-.3-.9-.8-2.7-1.5-5.4-2.3-8.2-.1-.2 0-.5-.3-.7 0-1.2.6-2.4.5-3.7z" fill="#d63831"/><path d="m9.6 62.4c1.6-2.8 3.1-5.6 4.8-8.3.2.9-.3 1.8 0 2.7-1.7 2.7-3.3 5.5-4.8 8.3-.3.5-.6.6-1.1.3-1.7-1.5-3.7-2.5-5.7-3.6-.1-.6-.2-1.2-.3-1.9 1.8 1.1 3.7 2.2 5.5 3.3.5-.4 1.1-.5 1.6-.8z" fill="#d63831"/><path d="m98.9 54.1c1.7 2.7 3.3 5.5 4.8 8.3.5.3 1.1.4 1.6.9 1.8-1.1 3.7-2.2 5.5-3.3-.1.6-.2 1.2-.3 1.9-2 1.1-4 2-5.8 3.5-.4.3-.8.2-1.1-.3 0-.1 0-.1 0-.2-.1-.2-.1-.4-.2-.6-1.5-2.5-3-5-4.5-7.6 0-.8 0-1.7 0-2.6z" fill="#d63831"/><path d="m20.8 78.8c-.3.1-.3.4-.3.6v8.3c3.5 4.2 7.7 7.6 12.4 10.3.2.1.4.1.6.1.4.8.1 1.1-1.1 1.3-1.9-1.3-3.9-2.6-5.7-4-2.7-2-5.1-4.3-7.2-6.9.1-.2.4-.1.5-.3.1-.1.2-.2.3-.3 0-3.1 0-6.3 0-9.4.4-.1.4.1.5.3z" fill="#c83831"/><path d="m42.1 12.1c-.2-1-.5-2-.7-3.2.9 0 1.7.1 2.5-.5.2-.7-.4-1.3-.3-2 .4-.4.8-.2 1.3-.1 0 .6-.6 1.2.3 1.8.9.5 1.6-1.3 2.8-.6-.2 1.3.2 2.4.9 3.6-1 .3-1.9.6-2.8.8-.1 1.3 1.1 2.6.4 4.3-.9-1.4-.8-2.7-1.4-3.9-.9-.1-1.6.2-2 .9-.4 0-.5-.2-.6-.4-.2-.2-.3-.4-.3-.7-.1.1-.1.1-.1 0z" fill="#0b0403"/><path d="m79.8 98.1c.4.1.7-.1.9-.3 4.6-2.7 8.6-6 12.1-10.1 0-2.8 0-5.6 0-8.4 0-.2 0-.4-.3-.5.1-.1.2-.3.3-.4h.2v9.5l.3.3c.1.2.4.1.5.3-3.4 4.1-7.4 7.4-12 10.2-.3.2-.8.3-1 .7-1.1-.2-1.4-.5-1-1.3z" fill="#c83831"/><path d="m79.8 98.1c-.2.9.6.9 1.1 1.3l6.3 1.8c-.3.5-.7.8-1.2 1-2.5-.9-5.1-1.4-7.7-2.2.2-2.8 1.5-5.4 1.8-8.2.5-.3 1-.7 1.6-.8-.7 2.4-1.3 4.7-1.9 7.1z" fill="#d63a31"/><path d="m32.5 99.4c.4-.4 1.2-.4 1.1-1.3-.6-2.4-1.2-4.7-1.8-7.1.4.5 1.2.3 1.6.8.3 2.3 1.1 4.4 1.6 6.6.1.4.2.9.3 1.5-2.6.8-5.2 1.5-7.8 2.3-.3 0-.5-.2-.6-.6-.1-.3.9-.2.3-.7 1.7-.7 3.5-1 5.3-1.5z" fill="#d63c31"/><path d="m11.7 75.7h.8c.2-.3.3-.5.5-.8v.6c1.5 3.6 3.5 6.9 6.1 9.9 0-3.2 0-6.4 0-9.5.1-.1.1-.1.2 0v1c .1 1.9.1 3.7 0 5.6v.3c.1.3.2.7 0 1v1c .1.4.2.8 0 1.3-.2.1-.1.4-.3.5-.2.2-.6 0-.7.3-.7.5-1.5.1-2.3.3-.1.1-.2.1-.3 0-.8 0-1.5 0-2.3 0-.1.1-.2.1-.3 0-.4 0-.8 0-1.3 0-.1 0-.1-.1-.1-.1 0-.1 0-.1.1-.1h6.2c-2.5-3.7-4.8-7.3-6.3-11.3z" fill="#c73831"/><path d="m100.4 75c .1.2.3.4.4.7.2 0 .5 0 .8.1-1.6 4-3.8 7.5-6.6 11.2h3c .1 0 .1.1.1.1l-.1.1c-.4 0-.8 0-1.3 0-.1.1-.2.1-.3 0-.5-.1-1.1.2-1.5-.3-.2-.3-.5 0-.7-.3 0-.1 0-.2 0-.3-.1-.1-.2-.2-.3-.3-.2-.4-.2-.8 0-1.3 0-.3 0-.7 0-1-.1-.6-.1-1.2 0-1.8 0-.3 0-.5 0-.8-.1-1.4-.2-2.9 0-4.3.1-.3-.1-.7.2-1v9.5c.4.2.5-.1.7-.3 2.1-2.8 3.8-5.8 5.3-8.9.3-.3.3-.7.3-1.1z" fill="#c73831"/><path d="m65.8 5.3c.9.7 1.6 1.2 2.6.8.3.2.5.5.6 1-1 .4-1.4 1.4-2.1 2.1 1.2 2.3 1 3.6-.7 4.3-.5-.1-.7-.8-1.3-.8-.7.7-.2 1.9-1.4 2.4.3-3.3 1.6-6.4 2.3-9.8z" fill="#0e0403"/><path d="m65.3 15.5c4.3-1.3 4.7-5.2 5.7-8.5.5-.1.8.1 1 .4-1.5 3.2-1.7 6.3.6 9.3-.3.5-.6.4-1 .3-1.1-1.3-1.3-2.9-1.3-4.6-1.1 1.8-2.6 3.1-5 3.1z" fill="#0f0403"/><path d="m9.6 62.4c-.4.6-.8 1-1.6.9-.1-2.9-.4-5.7-.3-8.6.2.1.5.1.6.2.4 0 .5-.4.7-.5-.2 2.2-.1 4.4.1 6.6.1.5.1 1 .5 1.4z" fill="#c63831"/><path d="m105.3 63.2c-.7.1-1.2-.3-1.6-.9.5-.5.4-1.2.4-1.8.1-2.1.2-4.2 0-6.3.2.2.4.3.6.5h.7c.1 2.3.1 4.6-.2 6.9 0 .6.1 1.1.1 1.6z" fill="#c63831"/><path d="m55.2 12.4c0-.2.2-.4-.1-.6s-.4.5-.8.3c-.2-.4-.1-.9 0-1.4 1.3-.1 2.5-.5 3.9 0-.5.7-1.2-.1-1.6.5 0 1 1.1.3 1.5.8-.4.4-.9.2-1.4.2-.4 0-.9-.2-.9.5-.3-.1-.5-.2-.6-.3z" fill="#d33831"/><path d="m42.2 12.9c-.3 1.2-.6 2.5-.9 3.7-.5.1-.8-.3-1.1-.7.5-1.1 1-2.2 1.3-3.3.1-.3.1-.7.7-.5.1.3.2.6 0 .8z" fill="#200b07"/><path d="m40.5 10.4c-.7-.5-1.4-1-2.3-1.7 1.1-.4 1.7.1 2.4.5.4.3.5.7-.1 1.2z" fill="#280f0b"/><path d="m100.6 88.2c-2.2 0-4.3 0-6.5 0 .2-.4.7-.3 1-.3h5.5l.1.1c-.1.1-.1.2-.1.2z" fill="#d33831"/><path d="m18.3 88.2c-1.9 0-3.7.1-5.6.1.3-1 1-.3 1.5-.3 1.3-.1 2.7-.3 4.1.2z" fill="#d33831"/><path d="m19.3 82.6c0-1.9 0-3.7 0-5.6.4 1.9.4 3.7 0 5.6z" fill="#d33831"/><path d="m94 77v4.3c-.3-1.4-.6-2.9 0-4.3z" fill="#d33831"/><path d="m98.1 87.2c0-.1 0-.1 0-.2 1.2 0 2.4-.1 3.5-.1-.2.2-.5.4-.7.7-.9-.7-1.9-.3-2.8-.4z" fill="#d33831"/><path d="m60.7 11.9c-.6 0-1 .9-1.9.2.6-.6 1.3-.2 1.9-.4z" fill="#d63831"/><path d="m94 82.1v1.8c-.3-.6-.3-1.2 0-1.8z" fill="#d33831"/><path d="m94 84.9v1.3c-.3-.5-.5-.9 0-1.3z" fill="#d33831"/><path d="m26.2 101.1c.3-.3.7-.3 1-.3-.3.4-.6.6-1 .3z" fill="#d63c31"/><path d="m19.3 83.9c0-.3 0-.7 0-1 .1.2.3.4.5.7-.1.1-.3.2-.5.3z" fill="#d33831"/><path d="m19.3 86.2c0-.4 0-.8 0-1.3.3.4.4.8 0 1.3z" fill="#d33831"/><path d="m42.2 12.9c0-.3 0-.5 0-.8.3.2.3.5.2.8-.1 0-.2 0-.2 0z" fill="#81312e"/><g fill="#d33831"><path d="m18.3 86.9c.2-.3.5-.2.7-.3-.1.4-.4.3-.7.3z"/><path d="m94.3 86.7c.3 0 .6-.1.7.3-.2-.1-.5 0-.7-.3z"/><path d="m20.1 88.2c-.1.2-.3.2-.5.3-.1-.1-.2-.2-.3-.2.2-.1.5-.1.8-.1z"/><path d="m93.8 88.4c-.2 0-.4 0-.5-.3h.8c-.1.2-.2.3-.3.3z"/><path d="m19 86.7c0-.2 0-.4.3-.5 0 .2-.1.4-.3.5z"/><path d="m19 88.2c-.2 0-.3 0-.5 0 .2-.3.4-.3.5 0z"/><path d="m13.2 87.2h.3c-.1.1-.2.1-.3 0z"/><path d="m96.6 87.2h.3c-.2.1-.2.1-.3 0z"/><path d="m19.3 76c-.1 0-.1 0-.2 0 0-.1 0-.2 0-.2s.1.1.2.2z"/><path d="m20.3 87.9c-.1.1-.2.2-.3.3z"/><path d="m93.3 88.2c-.1-.1-.2-.2-.3-.3.1.1.2.2.3.3z"/><path d="m94 86.2.3.3c-.1-.2-.2-.3-.3-.3z"/><path d="m11.9 87v .2c-.1-.1-.2-.2-.2-.3.1 0 .1 0 .2.1z"/><path d="m15.7 87.2h.3c-.1.1-.2.1-.3 0z"/></g><path d="m49.2 108c1.2.2 2.3.4 3.4.5.3-.2.6-.4.9-.6.5.3 1 .7 1.4 1.7-4.1-.5-7.9-1.1-11.6-1.9 1.6-.6 3.1.1 4.8.2.3-1.2.5-2.4.5-3.6-1.3-.4-2.6-.3-3.8-.9 1.2-.7 2.5.1 3.9 0 .4-.8.4-1.8.5-2.8-1.5-.5-3.1-.3-4.6-.9.1-.7.4-.6.8-.6 2.4.4 4.8.7 7.3 1.2.7.1 1.1-.2 1.6-.5.4.3.9.6 1 1.3-1.7.3-3.2-.5-4.9-.4-.3.8-.3 1.7-.4 2.7 1.1.4 2.2.7 3.3 0 .4.4.9.6.9 1.3-1.4.3-2.8-.3-4.3-.4-.5 1.1-.4 2.4-.7 3.7z" fill="#070804"/><path d="m60.7 106.5c-.9-1.4-.5-3-1-4.5 2.2.1 4.2-.2 6.3-.9.1.1.4.2.7.4.4.8.2 3.8-.2 4.2-.4 0-.4-.5-.7-.7-.5.1-1 .2-1.5.3-.4 1.6 1.3 3.3-.5 4.8-.4-.6-1.2-.4-1.6-1 .3-.6.8-.2 1.2-.6 0-.9-.2-2-.4-3-.8-.1-1.4-.1-1.8.7-.1.2-.2.5-.5.3z" fill="#080904"/><path d="m62.3 100.3c0-.6 0-1.1 0-1.6.5-.1.9-.1 1.4.1 0 .5-.5.9.1 1.4 1.1-.5 2.7.2 3.7-1.4.6.3 1.2.4 1.6 1.3-3.9.6-7.7 1.2-11.5 1.7 0-.6 0-.6 4.7-1.5z" fill="#121206"/><path d="m68.7 108.8c-1.1-1.1-2.3-1.9-3.8-2.6 1-.6 3.4.1 4.2 1.1.4.6.6 1.1-.4 1.5z" fill="#121307"/><path d="m60.7 106.5c.2-.1.4-.2.6-.3.1.6 1 .5 1.1 1.2-1.5.8-2.1 2.8-4.3 3.3.9-1.6 2.5-2.5 2.6-4.2z" fill="#131308"/><path d="m50.5 105.2c1.9.2 2.7 1.3 1.9 2.6-1-.7-1.1-1.9-1.9-2.6z" fill="#21200e"/><path d="m91.6 53c-1.2.2-17.7.2-18.8 0-2.7-8.1-8.1-12.9-16.8-12.6-8.2.2-13.3 4.9-15.7 12.7-6.2 0-12.5 0-18.9 0 .7-6.6 3-12.5 7.1-17.6 5.8-7.5 13.5-12 22.9-13.3 21.2-3.1 38.5 12.4 40.2 30.8z" fill="#d93831"/><path d="m8.6 65.3c.4 0 .7-.1 1.1-.3.5 2.1 1 4.1 1.6 6.2.2.6.2 1.4.9 1.9-.3.7-.7 1.1-1.5.9-.1-1.6-.9-2.9-1.2-4.5-.3-1.4-.8-2.7-.9-4.2z" fill="#c73831"/><path d="m103.7 65.1c.3.2.7.3 1.1.3-.3 2.4-1 4.7-1.7 7.1-.2.5-.5 1-.3 1.6-.8.2-1.2-.3-1.5-.9 1.1-1.4 1.2-3.2 1.7-4.9.3-1.1.4-2.2.7-3.2z" fill="#c63831"/><path d="m54.3 9.9c-.2-.4-.2-.7-.1-1.2 1.3 0 2.5-.4 3.3-1.6.2.4.4.7.6 1-1.1 1-2.5 1.2-3.8 1.8z" fill="#d63831"/><path d="m58.7 7.3c-.3-.1-.4-.4-.4-.6.3-.2.5-.2.8 0 0 .2-.1.4-.4.6z" fill="#c13830"/><path d="m58 9.3c-.2.7-.6.5-.9.5.1-.5.5-.5.9-.5z" fill="#d13931"/><path d="m59.2 9.1c1 .3.4.5 0 .8-.3-.3.1-.5 0-.8z" fill="#c43830"/><path d="m59.6 10.7c-.2.3-.4.4-.7.2.2-.4.4-.3.7-.2z" fill="#c93831"/><path d="m59 8.9c-.1 0-.2 0-.4 0 .2-.3.3-.2.4 0z" fill="#983630"/><path d="m60.5 9.7c.1.1.1.2.2.2 0-.1-.1-.1-.2-.2z" fill="#d93831"/><path d="m60.5 9.7s-.1-.1 0 0c0-.1 0-.1 0 0z" fill="#382021"/><path d="m59.2 9.1c-.1-.1-.2-.2-.3-.3.1.2.2.3.3.3z" fill="#6b2f2c"/><path d="m103.4 64.3c.2.1.3.3.2.6 0-.2-.1-.4-.2-.6z" fill="#c63831"/><path d="m45.8 11.4c-.2-.8-.4-1.5-.7-2.3.6-.2 1.1-.3 1.6-.5.6.6.5 1.3.8 2-.3.7-1 .5-1.7.8z" fill="#d73831"/><path d="m43.1 11.9c-.2-.7-.5-1.4-.4-2.1.5-.2 1-.5 1.6-.3.2.6.4 1.3.6 2-.5.3-1.1.5-1.8.4z" fill="#d73831"/><path d="m66.3 12.5c-.5-.1-.9-.3-1.4-.4.5-1.7.9-3.5 1.4-5.1.5-.1.8-.1 1 .2-.2.8-.9 1.3-1.2 2.1.7.9 1.3 2 .2 3.2z" fill="#d63831"/><path d="m61.3 104.8c-.1-.7-.2-1.1-.3-1.7 1.4-.4 2.9-.5 4.4-.7.4.5.4 1.1.4 1.8-1.4.3-2.9.5-4.5.6z" fill="#f9e300"/></svg>