<svg enable-background="new 0 0 566.9 566.9" viewBox="0 0 566.9 566.9" xmlns="http://www.w3.org/2000/svg"><circle cx="283.5" cy="287.4" fill="#fff" r="276.4"/><path d="m283.8 454.3c100.7 0 187.3-73.6 205-172.6 17.6-98.5-40.9-206.5-150.1-236.6-5.2-1.4-9.2-3.2-9.5-9.4-.3-7.2 3.4-11.3 10.5-10.3 14.7 2 28.7 6.8 42.3 12.5 88.2 37.6 143.7 103.3 162 197.3 27.6 141.5-63.9 277.5-203.4 308.1-142.4 31.2-282.4-56.8-315.6-199.1-33-141.6 54.1-284.1 198-318.4 10.5-2.5 16.1 2.1 14.5 11.6-.8 5.2-4.6 6.5-8.8 7.6-27.1 7.3-51.9 19.5-73.9 37.1-45.5 36.3-72.3 83.6-78.3 141.3-7.3 70.3 16.2 129.9 68.2 177.6 38.5 35.1 88 53.3 139.1 53.3z"/><g fill="#fff"><path d="m147 481 7.6-10.9 2.1-20.5 3.8 2.6-1.3 9.6c-.4 2.6-.7 4.7-1.1 7.1l.1.1c1.9-1.2 3.9-2.3 6.3-3.5l8.6-4.5 3.8 2.6-18.9 8.8-7.6 11z"/><path d="m169.9 484.1-7.6 7.1-3.7-2 24.4-22.4 4.3 2.3-5.6 32.6-3.8-2.1 1.8-10.3zm10.6 2.1 1.6-9.4c.4-2.1.9-4 1.3-5.8h-.1c-1.3 1.4-2.7 2.8-4.1 4.2l-7 6.5z"/><path d="m199.4 475.8c2.4.5 5.3 1.3 8.3 2.4 5.4 2.1 8.8 4.8 10.5 8.1 1.7 3.4 1.9 7.4.1 12.1-1.8 4.8-4.8 8.1-8.5 9.8-3.8 1.7-8.9 1.5-14.6-.7-2.7-1-4.9-2-6.7-2.9zm-6.1 27.4c.9.5 2.3 1.1 3.7 1.7 8.1 3.1 14.2.2 17.2-7.7 2.7-6.9.4-12.8-7.6-15.8-2-.7-3.5-1.1-4.6-1.3z"/><path d="m231.1 486.3-4.1 18.1c-1.5 6.9.9 10.4 4.9 11.4 4.5 1 8.1-1.3 9.6-8.1l4.1-18.1 4 .9-4 17.8c-2.1 9.4-7.9 12.1-14.5 10.7-6.3-1.4-10.2-6-8.1-15.5l4-18z"/><path d="m268.5 495.8-9.5-.6.2-3.4 23.2 1.4-.2 3.4-9.6-.6-1.7 27.9-4.1-.3z"/><path d="m284.6 493.5c2-.5 4.9-.9 7.7-1 4.3-.2 7.1.4 9.2 2.1 1.6 1.3 2.6 3.4 2.8 5.8.2 4.1-2.3 7-5.5 8.3v.1c2.5.7 4 2.9 4.9 6.1 1.2 4.3 2.1 7.3 2.8 8.5l-4.2.2c-.6-.9-1.4-3.5-2.5-7.4-1.1-4.3-2.9-5.8-6.6-5.8l-3.8.2.7 13.6-4 .2zm4.7 14.1 4.1-.2c4.3-.2 6.9-2.7 6.8-6.3-.2-4-3.2-5.7-7.5-5.5-2 .1-3.3.3-4 .6z"/><path d="m337.3 502.1c1.9 10.6-3.5 17.4-11.4 18.9-8.1 1.5-15-3.8-16.7-13.1-1.8-9.8 3.1-17.3 11.4-18.8 8.4-1.6 15.1 3.8 16.7 13zm-23.8 4.9c1.2 6.6 5.8 11.8 12.1 10.7 6.3-1.2 8.8-7.6 7.5-14.6-1.1-6.1-5.5-12-12.1-10.7-6.6 1.1-8.8 7.8-7.5 14.6z"/><path d="m368.3 491.9c3.5 10.2-.9 17.7-8.5 20.3-7.8 2.7-15.4-1.5-18.5-10.5-3.2-9.4.6-17.6 8.5-20.3 8.2-2.7 15.5 1.7 18.5 10.5zm-22.8 8.3c2.2 6.3 7.5 10.9 13.6 8.8s7.6-8.8 5.3-15.6c-2-5.9-7.2-11-13.6-8.9-6.4 2.2-7.6 9.2-5.3 15.7z"/><path d="m366.9 475.9c1.6-1.2 3.8-2.5 6.7-4 3.6-1.8 6.6-2.2 9-1.6 2.2.6 4.1 2.2 5.4 4.7s1.5 4.9.8 7.1c-.9 3-3.5 5.6-7.1 7.3-1.1.5-2.1 1-3 1.2l5.6 11.3-3.6 1.8zm10.3 11.8c.9-.2 1.9-.6 3.1-1.2 4.4-2.2 6-5.6 4.1-9.5-1.8-3.7-5.3-4.2-9.4-2.2-1.6.8-2.7 1.5-3.3 2z"/><path d="m401.4 487.4c2.1 0 4.9-.7 7.2-2.2 3.5-2.2 4.3-5.4 2.6-8-1.6-2.5-3.9-3-8.3-2.1-5.3 1.2-9.4.7-11.8-3-2.6-4.1-1.2-9.4 3.9-12.6 2.7-1.7 5.1-2.4 6.7-2.4l.8 3.4c-1.2.1-3.4.4-5.8 2-3.6 2.3-3.6 5.3-2.4 7.1 1.6 2.5 4 2.7 8.5 1.7 5.6-1.1 9.2-.4 11.7 3.4 2.6 4.1 1.9 9.5-4.4 13.5-2.5 1.6-5.8 2.7-7.8 2.6z"/></g><path d="m277.9 143.1c-6.6 0-17.9 93.8-17.9 93.8s-3.5 15.4-7 19.1c-3.9 4.1-21 8.6-21 8.6s-93.4 8.9-93.4 17.1c0 9.3 94.2 17.9 94.2 17.9s15.9 4.2 19.8 7.8c2.8 2.6 6.6 13.6 6.6 13.6s12.6 99.6 18.7 99.6c8.6 0 20.2-99.6 20.2-99.6s2.7-9.8 5.1-12.1c4.7-4.6 24.5-9.3 24.5-9.3s89.5-9.3 89.5-17.7c0-5.6-97.7-18.9-97.7-18.9s-13.6-4.4-16.7-7.8c-3.3-3.6-6.6-18.3-6.6-18.3s-10.2-93.8-18.3-93.8z"/><path d="m138.6 227.9 7.4-11.7s30.4-5.4 49.4 8.6c9.7-14.8 22.2-33.9 22.2-33.9s3.9-6.6 11.3-7 28.8 0 28.8 0l-5.4 40.1s-9 4.6-11.3 7c-4.6 4.8-13.2 23-13.2 23l-55.3 9.3c-.1 0-3.2-28-33.9-35.4z"/><path d="m421.8 227.9-7.4-11.7s-30.4-5.4-49.4 8.6c-9.7-14.8-22.2-33.9-22.2-33.9s-3.9-6.6-11.3-7-28.8 0-28.8 0l5.4 40.1s9 4.6 11.3 7c4.6 4.8 13.2 23 13.2 23l55.3 9.3c.1 0 3.2-28 33.9-35.4z"/><path d="m421.8 335.5-7.4 11.7s-30.4 5.4-49.4-8.6c-9.7 14.8-22.2 33.9-22.2 33.9s-3.9 6.6-11.3 7-28.8 0-28.8 0l5.4-40.1s9-4.6 11.3-7c4.6-4.8 13.2-23 13.2-23l55.3-9.3c.1 0 3.2 28 33.9 35.4z"/><path d="m138.6 335.5 7.4 11.7s30.4 5.4 49.4-8.6c9.7 14.8 22.2 33.9 22.2 33.9s3.9 6.6 11.3 7 28.8 0 28.8 0l-5.4-40.1s-9-4.6-11.3-7c-4.6-4.8-13.2-23-13.2-23l-55.3-9.3c-.1 0-3.2 28-33.9 35.4z"/><path d="m244.3 65.5.3-.4 37.6-2.3 2.1 3.7-.3.4-7.1.4 2.3 35.7-.4.5-4.5-.9-.3-11.3c-2.3 2-5 2.8-8 2.9-7.6.5-13.2-5.7-16.2-13.3l.3-.7c5.2-2.1 9.1-3.6 8.9-6.9-.1-1.8-1.1-3.3-2.6-4.8l-10 .6zm16 2.8c2 2.8 3 5.1 3.1 7 .2 3.7-1.8 5.7-6.8 7.9-.7.3-1 .6-1 1.1.1 1.2 2.8 5.9 8.6 5.5 2.4-.1 4.7-.9 6.9-2.5 1.7-1.3 2.5-3.2 2.3-5.9l-.8-13.8z"/><path d="m283.6 63.1.3-.4 36.2 2.2 1.6 3.9-.3.4-8.7-.5-.7 11.6-.4.4-5.7-.4c-9-.6-13.5 2-13.8 7.1-.3 4.5 3 8.2 8.3 8.5 2.1.1 4-.3 6.1-1.1-1-1.1-1.4-2.4-1.3-3.9.1-2.3 2.3-4.4 5-4.2 1.6.1 2.8.8 3.8 1.9 1.1 1.3 1.6 2.7 1.5 4.3-.1 2.1-1.4 3.8-3.6 5.1 3.8 4 5.2 7.1 5 9.5-.2 3.2-2.2 5.3-5.1 7h-.3l-4.4-4c2.8-1.6 4.7-3.5 4.8-5.9.1-1.7-.6-3.5-2.4-5.5-2.4 1-4.8 1.3-7.2 1.1-9.4-.6-15.4-8.2-15-15.4.4-6.9 6.2-10 13.9-9.5l5.4.3c.8 0 1.2-.3 1.2-1l.4-6.4-23-1.2z"/><path d="m291.4 105.6c4 7.2 8.1 11.9 13 12.5 2.7.3 6.7-1.1 7-3.9.2-1.6-.7-2.8-2.5-3-2-.2-3.8.5-5.6 1.7h-.3l-2.1-4.5c2-1.3 4.2-2.1 6.6-1.8 2.5.3 4.4 1.8 5.8 4.8.8 1.7 1 3.4.8 5-.6 4.8-5.1 6.4-8.3 6-5.6-.7-11-5.1-16.2-15.1v-.2z"/></svg>