<svg enable-background="new 0 0 113.3 113.3" viewBox="0 0 113.3 113.3" xmlns="http://www.w3.org/2000/svg"><path d="m56.6 113.3c-30.7.4-57.3-25.4-56.6-58 .6-29.6 25.4-56.1 58.3-55.3 29.5.7 55.8 25.4 55 58.3-.7 29.8-25.5 55.4-56.7 55z" fill="#020203"/><path d="m56.5 86.4c-.6 0-1.2 0-1.8 0-1.2-.8-2.2-1.9-3.4-2.6-1.3-.8-2.6-1.5-4.1-1.9-.6-.2-1.2-.4-1.8.1-.2.6.3.9.6 1.3 1.2 1.4 2.7 2.3 4.3 3.2.3.2.9.2.9.8-1.2.5-2.4.9-3.6 1.4-.5.1-.9-.1-1.3-.4-6.7-3.9-13.5-7.8-20.2-11.6-1.3-.8-1.8-1.7-1.8-3.3.1-11 .1-22.1 0-33.1 0-1.5.5-2.5 1.8-3.3 9.6-5.6 19.3-11 28.9-16.7 1.4-.8 2.5-.8 3.8 0 9.6 5.7 19.3 11.2 29 16.8 1.2.7 1.7 1.5 1.7 2.9v33.6c0 1.4-.5 2.2-1.7 2.9-6.7 3.8-13.4 7.7-20.1 11.6-.5.3-.9.6-1.5.5-1.2-.5-2.4-.9-3.6-1.4.4-.8 1.3-1 2-1.4 1.2-.7 2.3-1.6 3.2-2.6.3-.3.6-.6.6-1.2-.6-.5-1.2-.3-1.9-.1-2.5.7-4.6 2.1-6.5 3.8-.3.3-.6.6-1 .8-.6 0-1.2 0-1.8 0-.4-.7 0-1.3 0-2 .5-2 1.2-3.9 1.8-5.8.3-.9.8-1.3 1.7-1.4 4-.7 7.6-2.5 10.6-5.4 2.8-2.8 2-2.9 6.4-1.8.6.1 1.2.2 1.7.4.3.1.5.2.8.3.1 0 .2 0 .3.1.2.1.5.2.7.2.1 0 .2.1.3.1.2.1.5.1.7.3.1.1.3.2.4.2s.1.1.2.1.1 0 .1-.1c-.1-.1-.2-.1-.3-.2s-.2-.1-.3-.2-.1-.1-.2-.2-.1-.1-.2-.2l-.1-.1c-.1-.1-.1-.1-.2-.2l-.1-.1c-.1-.1-.2-.1-.2-.2l-.1-.1c-.1-.1-.2-.2-.3-.2-1.3-1.3-2.6-2.5-3.8-4-.5-.6-.7-1.2-.4-2 1.3-3.5 1.4-7.2.9-10.9-.2-1.1-.5-2.2-.8-3.2-.4-.9-.3-1.7.4-2.4.6-.6 1-1.3 1.6-1.8.1-.1.2-.2.3-.2l.1-.1c.1-.1.2-.2.3-.2l.1-.1c.1-.1.2-.2.2-.2l.1-.1c.1-.1.2-.2.2-.2l.1-.1c.7-.7 1.3-1.4 2-2 .1 0 .1-.1.1-.1-.1.1-.2.1-.3.2-.8.3-1.6.5-2.4.7-1.4.3-2.8.6-4.2.9-1.1.3-1.9-.1-2.6-.9-2-2.1-4.1-4-6.8-5.2-1.7-.8-3.4-1.4-5.3-1.7-.8-.1-1.3-.5-1.5-1.3-.6-1.9-1.4-3.8-1.8-5.8-.1-.5-.2-1-.2-1.6v-.1.1c0 .5-.2 1-.2 1.5-.5 2-1.2 3.9-1.8 5.8-.2.8-.7 1.2-1.5 1.3-4.2.7-7.8 2.5-10.8 5.5-3 2.9-2 2.5-6 1.8-.7-.1-1.4-.3-2.1-.5-.8-.2-1.7-.4-2.4-.7-.1 0-.2-.1-.3-.2 0 .1 0 .1.1.2.4.3.7.7 1.1 1l .3.3s.1.2.2.2l.1.1.3.3s.1.1.2.2l.2.2.1.1.2.2.1.1.2.2.1.1.2.2.1.1c.1.1.2.1.2.2l.1.1c.1.1.2.2.3.2.2.2.3.4.5.5 1.2 1.1 1.3 2.3.8 3.8-1.4 4.2-1.3 8.5.1 12.7.4 1.2.4 2.1-.5 3.1-1.1 1.2-2.3 2.4-3.4 3.5-.1.1-.2.2-.3.2l-.1.1c-.1.1-.2.1-.2.2l-.1.1c-.1.1-.2.1-.2.2l-.1.1c-.1.1-.1.1-.2.2l-.1.1c-.1.1-.2.2-.4.2-.1 0-.1.1-.2.1l.1.1.1-.1c.1-.1.3-.1.4-.2.2-.1.4-.1.6-.2.1 0 .2-.1.3-.1.2-.1.5-.1.7-.2.1 0 .2-.1.3-.1.3-.1.6-.2.8-.3 1-.4 2.1-.4 3.1-.8 1.7-.5 3-.1 4.2 1.2 1.7 2 3.8 3.5 6.3 4.6 1.7.8 3.4 1.5 5.3 1.7.8.1 1.3.5 1.5 1.3.6 2 1.4 3.9 1.9 5.9-.9.9-.5 1.6-.9 2.3z" fill="#ffed00"/><path d="m65.9 88.5c7.6-4.4 15.3-8.8 22.9-13.2 0-12.4 0-24.7 0-37.2-10.6-6.1-21.3-12.3-32.1-18.6-10.7 6.2-21.4 12.4-32.2 18.6v37.2c7.6 4.4 15.3 8.8 22.9 13.2-1.2.8-2.5 1.5-3.7 2.5-1.1.9-2.1 2.1-3.1 3.2-15.5-6.2-26.8-23.3-24.5-42.2 2.5-20.4 18.9-35.5 39.3-36.1 19.7-.6 36.8 12.7 41.1 31.9 4.5 19.9-6.4 39.1-23.9 46.5-1.7-2.5-4.1-4.3-6.7-5.8z" fill="#e73631"/><path d="m73.2 108.2c-10.9 3.6-21.8 3.7-32.7.1-1-3.1.5-10.6 6-14.9 5.4-4.3 13-4.8 19-1.2 6.1 3.7 8.6 10.9 7.7 16z" fill="#e73631"/><path d="m100.1 88.9c-3.4 4.4-7.2 8.3-11.7 11.5-.2.2-.5.3-.8.5-1.5-.4-3.1-.7-4.6-1.1-.6-.1-1.2-.2-1.7-.5 0-.6.4-.8.8-1.1 3.8-2.3 7.2-5.2 10.2-8.4.6-.6 1.2-1.1 1.9-1.5h5.3c.3 0 .9-.1.6.6z" fill="#ffed00"/><path d="m30.4 99.8c-1.5.4-3 .7-4.6 1.1-3.3-2.3-6.3-4.8-9-7.8-1.2-1.4-2.3-2.8-3.5-4.2-.3-.7.2-.6.6-.6h5.3c2.4 1.6 4 3.9 6.2 5.7s4.5 3.3 6.8 5c-.6.7-1.2.7-1.8.8z" fill="#ffed00"/><path d="m80.1 97.3c.5-1.8 1-3.6 1.5-5.5.2-.8.6-1.5 1.3-2.1 3.7-3.1 7.1-6.5 9.6-10.7.5-.1.4.4.4.6v7.3c0 .6-.2 1.1-.6 1.5-3.2 3.7-6.9 6.7-11.2 9.2-.8.6-.9.5-1-.3z" fill="#ffed00"/><path d="m20.9 79.1c2.5 4.2 5.8 7.6 9.6 10.7.7.6 1.1 1.2 1.3 2.1.5 1.8 1 3.7 1.5 5.5.3.3.1.5-.2.6s-.6-.1-.8-.2c-4.2-2.5-8-5.5-11.1-9.2-.4-.4-.6-.9-.6-1.5 0-2.4 0-4.9 0-7.3-.1-.4-.3-.8.3-.7z" fill="#ffed00"/><path d="m11.7 86.7c-2.4-3.9-4.6-7.9-6.1-12.5 1.9.5 3.7.9 5.5 1.3.5.1.7.6.8 1 .3.7.7 1.4 1 2.1.3.5.5 1 .8 1.5.2.1.2.3.3.5.4.4.5.8.7 1.3v-.1.1c.8.8 1.2 1.8 1.8 2.8.3.3.6.6.8 1 .2.3.5.5.6 1-1.2.3-2.3.3-3.5.2-.9-.2-1.8.3-2.7-.2z" fill="#ffed00"/><path d="m102.2 75.5c1.8-.4 3.6-.9 5.5-1.3-1.5 4.5-3.7 8.6-6.1 12.5-1 .5-2.1.1-3.2.2-.9.1-1.9.1-2.9-.1.1-.9.8-1.4 1.3-2.1.1-.3.3-.6.5-.8.4-.7.8-1.4 1.3-2 .2-.5.4-.9.7-1.3.1-.2.1-.4.3-.5.2-.5.5-1.1.8-1.5.7-1 .6-2.4 1.8-3.1z" fill="#ffed00"/><path d="m48 6.9c0-.1.1-.1.1-.2.1-.1.2-.2.2-.3.7-.3.1-.9.4-1.5 1.8-.2 3.6-.5 5.7-.8.4 3.1.8 6.2 1.2 9.1-.8.8-1 0-1.4-.3-1.4.5-3-.1-4 1.6-.4-1.2-1.7-1.2-1.7-2.6-.7 1.1-.8 2.1-1.7 2.7-.3 0-.5-.3-.7-.6.8-1.1 1.3-2.4 1.1-3.9-1.5-.3-1.1-1.9-1.9-2.6.3-.7.7-.7 1.1-.3.2.1.3.2.4.4.1.1-.1.2 0 .1.2-.1-.1-.2 0-.3 0-.5.1-.9-.1-1.3 0-.4 0-.8 0-1.3.2-.3.6-.1 1-.2.1.7.2 1.4.3 2-.1.4-.1.4 0 .3z" fill="#ffed00"/><path d="m13 75.2c1-2.7 1.5-5.6 2.5-8.6 1 3.4 1.9 6.5 3.6 9.4.3 2.3.1 4.7.1 7v1.6c0 .3-.2.4-.4.4s-.3-.1-.4-.2c-.3-.3-.6-.6-.8-1-.3-.2-.4-.5-.5-.8-.3-.2-.4-.5-.5-.8-.8-.7-1.1-1.7-1.6-2.5-.2-.1-.2-.3-.3-.5-.7-.9-1.3-1.9-1.5-3.1-.1-.2-.3-.5-.2-.9z" fill="#ffed00"/><path d="m94.3 76c1.6-2.9 2.6-6.1 3.6-9.4 1 3 1.5 5.9 2.5 8.6.1.4-.1.7-.3 1h .1-.1c-.3 1.3-.9 2.5-1.8 3.6-.2.4-.4.9-.8 1.3-.3.4-.4.9-.8 1.3-.1.3-.2.6-.5.8-.1.3-.2.6-.5.8-.3.5-.4 1.2-1.2 1.2-.2-.1-.4-.2-.4-.5 0-2.5 0-4.9 0-7.4 0-.5-.1-.9.2-1.3z" fill="#ffed00"/><path d="m5.6 50.2c-.8-.8-1.4-1.4-2-2.1.5-8.4 9.3-24.9 14.9-27.7.4.7-.3 1-.6 1.3-5 6-8.7 12.8-10.8 20.4-.7 2.6-1.3 5.3-1.5 8.1z" fill="#ffeb00"/><path d="m109.8 48.2c-.7.6-1.3 1.1-2.1 1.8-1.3-11.1-5.9-20.8-13.4-29.5 5 .9 14.8 18.8 15.5 27.7z" fill="#ffeb00"/><path d="m21.7 23.8c-6.8 8.2-10.9 17.4-12 28-.4.4-.8.8-1.2 1.2-.6-.1-.8-.5-1.1-.8-.5-7.8 8.7-26.4 14.3-28.4z" fill="#ffeb00"/><path d="m93.4 25c5.3 5.4 8.8 11.8 11 19 .8 2.6 1.3 5.3 1.6 8-.2.6-.6.8-1 1.1-.6-.3-.9-.8-1.4-1.3-.6-5.4-2-10.7-4.3-15.8-1.7-3.7-4-7.1-6.4-10.4 0-.2-.1-.3-.3-.3 0-.1-.1-.2-.2-.3-.1-.1-.1-.2-.2-.3-.1-.1-.2-.2-.2-.3-.1 0-.2-.1-.2-.2s0-.2-.1-.3c.1-.1.1-.2.2-.2.4 0 .6.3.8.6.1 0 .2.1.2.2.1.1.2.2.3.3.1 0 .2.1.2.2z" fill="#ffeb00"/><path d="m105 65.1c1.7-.9 3.3-1.9 5-2.8.5 0 .4.3.3.6-.3 3.1-1 6.2-1.9 9.3-1.6.5-3.3 1-5 1.5-.2.3-.4.2-.7.1 0-.6.2-1.2.5-1.8.2-.6.2-1.2.5-1.8.3-1 .5-2.1.8-3.1.1-.6.1-1.4.5-2z" fill="#ffed00"/><path d="m3.4 62.3c1.7.9 3.3 1.9 5 2.8.7 1.6.8 3.4 1.3 5.1.3.6.3 1.2.5 1.8.3.5.5 1.1.6 1.8-.6.3-1.1-.1-1.5-.3-1.4-.4-2.8-.8-4.2-1.3-.9-3.1-1.6-6.2-1.9-9.3-.2-.4-.3-.7.2-.6z" fill="#ffed00"/><path d="m109.1 51.1c.3-.2.7-.5 1.2-.9.4 3.3.7 6.5.3 9.7-1.7 1-3.3 2-4.9 3-.1.2-.2.2-.4.1 0-2.7.5-5.4.3-8.3 1.1-1.2 2.3-2.4 3.5-3.6z" fill="#ffed00"/><path d="m7.7 63c-1.6-1-3.2-2-4.9-3-.5-3.2-.1-6.4.2-9.6.6 0 .7.6 1.2.7 1.2 1.2 2.4 2.3 3.6 3.6-.1 2.8.3 5.5.3 8.3-.1.2-.3.2-.4 0z" fill="#ffed00"/><path d="m101.1 72.6c-.6-2.3-1-4.6-1.8-6.8-1-2.8-.4-5.7-.5-8.8 1.6 2.7 3.1 5.2 4.6 7.6.5 1.2-.3 2.3-.4 3.4-.1 1-.4 2-.9 2.9-.1.2 0 .6-.2.8-.3.3-.1.9-.8.9z" fill="#ffed00"/><path d="m10 64.6c1.5-2.5 2.9-4.9 4.5-7.6 0 3.2.6 6.2-.5 9.1-.8 2.1-1.2 4.3-1.7 6.5-.7 0-.5-.6-.7-1-.8-1.8-1.2-3.8-1.7-5.8-.1-.4-.2-.8.1-1.2z" fill="#ffed00"/><path d="m23.7 28.6c0 .1 0 .1-.1.2s-.1.2-.2.3c-.1.1-.2.2-.2.3-3.2 4.6-6 9.4-7.2 15-.4 1.8-1.7 2.8-3 3.9 1.1-7.5 4.5-13.9 9.7-19.4.1-.1.1-.2.2-.2.1-.1.2-.2.2-.3.1-.1.2-.2.2-.3.1-.1.2-.2.2-.3.1-.1.2-.2.3-.2.1-.1.2-.2.2-.2.4 0 .4.2.2.4-.1.1-.1.2-.2.3-.1.1-.2.2-.2.3 0-.1-.1 0-.1.2z" fill="#fbe300"/><path d="m91.4 29.5c4.6 4.8 8.9 13.7 9 18.9-1-1.2-2.4-1.8-2.7-3.2-1.2-5.3-3.6-10.1-6.6-14.5-.1-.2-.2-.4-.4-.7-.1-.1-.2-.2-.2-.3-.2-.1-.1-.4-.3-.4 0-.1-.1-.2-.2-.3-.1-.1-.1-.2-.2-.3-.1 0-.1-.1-.1-.2 0-.2-.1-.3-.2-.3 0-.1-.1-.2-.2-.3-.1-.1-.1-.1-.1-.2s0-.1 0-.1c.1-.1.2-.1.3-.1s.2.1.3.1c.1.1.2.2.2.2.1.1.2.2.2.2.1.1.2.2.2.2.1.1.2.1.2.2.1.1.2.1.2.2.1.1.2.1.2.2.3.6.4.6.4.7z" fill="#fbe300"/><path d="m15.1 49.4c.1 3.9-2.1 7-3.9 10.2-.4.7-.8 1.5-1.2 2.2-.1.2-.1.3-.5.3-.5-2.4-.5-4.9-.3-7.4 1.9-1.9 3.9-3.9 5.8-5.8.2.1.2.3.1.5z" fill="#ffed00"/><path d="m103.4 61.5c-1.4-2.4-2.9-4.9-4.2-7.3-.8-1.5-.5-3.2-.9-4.8-.1-.2-.1-.3 0-.5 1.9 1.9 3.9 3.9 5.8 5.8.2 2.1.3 4.3-.1 6.4 0 .3-.2.5-.6.4z" fill="#ffed00"/><path d="m80.1 97.3c0 .2 0 .3.1.6 4.8-2.7 8.9-6.2 12.6-10.4-.2-2.8.2-5.6-.2-8.5 0-.2 0-.5.5-.6v10c2.6-.4 5-.3 7.4-.2.2.5-.1.6-.3.7.2-.6-.2-.5-.6-.5-1.8 0-3.6 0-5.5 0-3.7 4.3-8 7.8-12.9 10.8.7.3 1.2.4 1.8.6-1.2.1-2.2-.3-2.9-1.3-.3-.4-.5-.8 0-1.2z" fill="#090b07"/><path d="m20.9 79.1c-.4 1.4-.1 2.8-.2 4.2v4.3c3.5 4.1 7.7 7.6 12.5 10.3 0-.3.1-.4.1-.6.7 1.3-.4 1.7-1.1 2.1-.5.4-1.1.5-1.8.3.5-.2 1.1-.4 1.8-.6-4.9-2.9-9.2-6.5-12.9-10.8-1.8 0-3.6 0-5.5 0-.3 0-.7-.1-.6.5-.2-.1-.5-.2-.4-.7 2.4 0 4.8-.2 7.4.2 0-3.2 0-6.5 0-9.9.7.1.6.4.7.7z" fill="#090b07"/><path d="m58.7 86.4c2.1-3.1 8-5.9 10-4.6-1.3 2.8-3.9 3.9-6.4 5.3-1.2-.2-2.4-.5-3.6-.7z" fill="#e73731"/><path d="m51.1 87.1c-1.9-.9-3.8-1.9-5.3-3.5-.5-.5-1-1-1-1.8 1.7-1.4 7.7 1.4 9.8 4.6-1.1.2-2.3.5-3.5.7z" fill="#e73731"/><path d="m58 13.7c-.4-.2-.6-.4-.6-1 4-1.2 5-4.5 5.3-8.2 1.1.2 1.2.4.9 1.8-.2.8-.2 1.6 0 2.5 1.2-.6 2.1-1.5 3-2.3.5 0 .7.3.8.7-.9 1.2-2.3 1.9-3.4 2.8.3 1.9 1.9 2.8 3 4.1 0 .4-.3.6-.6.8-1.8-1.2-3-2.8-3.7-4.9-1.2 1.8-2.8 3-4.7 3.7z" fill="#ffed00"/><path d="m58.8 6.1c.2-.3.5-.4.9-.4.9.9 1.4 2.1 1.9 3.3 0 .5-.4.6-.8.9-.7-1.4-1.4-2.6-2-3.8z" fill="#ffe700"/><path d="m7.7 63c .2 0 .4-.1.3-.4-.3-2.6-.5-5.1-.3-7.8-1.1-1.2-2.3-2.4-3.4-3.7 1.5.9 2.4 2.3 3.6 3.3.2 2.9.3 5.8.5 8.6-.3.4-.5.3-.7 0z" fill="#0c0e09"/><path d="m109.1 51.1c-1.1 1.2-2.2 2.4-3.4 3.7.1 2.6-.1 5.3-.4 7.9 0 .3.2.2.3.2-.1.3-.3.4-.6.2.1-2.9.5-5.7.4-8.6 1.3-1.1 2.2-2.5 3.7-3.4z" fill="#0c0e09"/><path d="m96.8 84.7c-.4.6-.8 1.2-1.3 2h6.1c-.1.3-.3.5-.7.5-1.9-.2-3.9 0-5.9-.1.5-1.1.9-2 1.8-2.4z" fill="#0b0d08"/><path d="m11.7 86.7h5.9c.2-.4-.4-.6-.4-1 .6.2.9.6.9 1.3-1.6.2-3.1.2-4.7.1-.5-.1-1.3.5-1.7-.4z" fill="#0b0d08"/><path d="m94.3 76v8.9c.1.2.2.4.2.6v.2c-.1.1-.2.2-.5.6 0-2.9 0-5.6 0-8.3 0-.7-.3-1.4.3-2z" fill="#0b0d08"/><path d="m19.1 84.9c0-3 0-5.9 0-8.9.1.1.2.1.2.2v9.9c-.2-.2-.3-.4-.4-.5 0-.1 0-.1 0-.2-.1-.2 0-.4.2-.5z" fill="#0b0d08"/><path d="m15.1 79.8c.6.8 1.1 1.7 1.6 2.5-.3-.1-.6-.3-.9-.4-.5 1.2.9 1.8.8 2.8-.7-.9-1.4-1.7-1.8-2.8.3-.1.6-.2.8-.6 0-.5-.6-.9-.5-1.5z" fill="#0b0d08"/><path d="m9.2 54.7c.1 2.2-.1 4.4.3 6.6 0 .2-.2.8.5.4 0 .3 0 .7-.6.7-.4-2.6-.8-5.1-.2-7.7z" fill="#0c0e09"/><path d="m10 64.6c.1 1.9.7 3.8 1.2 5.6l.3 1.5c-1.1-2-1.4-4.2-1.8-6.4 0-.3 0-.6.3-.7z" fill="#0d0f09"/><path d="m103.9 61.3c.4-2.2.2-4.4.3-6.6.6 1.9.3 3.8.1 5.7 0 .6-.1 1.2-.2 1.7 0 .3-.2.5-.5.1.3-.3 0-.7.3-.9z" fill="#0c0e09"/><path d="m102.1 70.9c.4-1.7.8-3.3 1.2-5 .1-.4.1-.9.2-1.4.7.9 0 1.7-.1 2.6-.4 1.3-.5 2.7-1.3 3.8z" fill="#0d0e09"/><path d="m57.2 84.4c-.1.7-.2 1.3-.3 2-.1 0-.3 0-.4 0-.1-.7-.2-1.3-.3-2 .2-.2 0-.6.3-.8.2-.1.4-.1.5 0 .2.2 0 .5.2.8z" fill="#ea5831"/><path d="m98.3 79.8c.6-1.2 1.2-2.4 1.8-3.6 0 1.5-.7 2.7-1.8 3.6z" fill="#0b0d08"/><path d="m13.3 76.2c.6 1 1.1 2 1.5 3.1-.9-.2-.9-1.3-1.5-1.6 0-.6 0-1 0-1.5z" fill="#0b0d08"/><path d="m9.7 70.2c-.7-1.6-.9-3.4-1.3-5.1.9 1.6 1 3.3 1.3 5.1z" fill="#0d0f09"/><path d="m102.2 75.5c-.9.8-.9 2.2-1.8 3.1.4-1.1.2-2.6 1.8-3.1z" fill="#0b0d08"/><path d="m9.2 73.4c.4.1.9.2 1.4.3-.2-.6-.3-1.2-.4-1.7.6.4.5 1.1.8 1.8-.8.3-1.3.2-1.8-.4z" fill="#0d0f09"/><path d="m104.5 67.1c-.1 1.1-.3 2.1-.8 3.1 0-1.1.2-2.1.8-3.1z" fill="#0d0e09"/><path d="m103.2 71.9c-.1.5-.3 1.1-.4 1.6.2.2.4 0 .6.1-.3.5-.6.4-1 .1.2-.6.2-1.3.8-1.8z" fill="#0d0e09"/><path d="m98.6 81.9c-.3.8-.7 1.4-1.3 2 0-1 .6-1.5 1.3-2z" fill="#0b0d08"/><path d="m12.9 78.6c-.5-.6-.8-1.3-1-2.1.6.6 1 1.3 1 2.1z" fill="#0b0d08"/><path d="m11.5 71.6c.4.2.2.8.7 1 0 .2.1.5-.2.7-.3-.5-.6-1-.5-1.7z" fill="#0d0f09"/><path d="m94.8 84.9c.3-.4.6-.7.9-1.1 0 .7-.4 1.2-1 1.6l-.1-.1c0-.2 0-.3.2-.4z" fill="#0b0d08"/><path d="m101.1 72.6c.5-.1.3-.7.7-1 .1.6-.2 1.1-.5 1.7-.3-.2-.2-.5-.2-.7z" fill="#0d0e09"/><path d="m88.6 27.3c-.3-.2-.6-.5-.7-1.1.5 0 .8.4 1 .7 0 .3-.1.4-.3.4z" fill="#c3b118"/><path d="m105 65.1c-.2.7-.2 1.4-.5 2.1-.1-.8-.1-1.5.5-2.1z" fill="#0d0e09"/><path d="m13.7 80.1c-.4-.4-.6-1-.8-1.5.6.3.8.9.8 1.5z" fill="#0b0d08"/><path d="m100.4 78.6c-.1.6-.4 1.1-.8 1.5.1-.6.3-1.2.8-1.5z" fill="#0b0d08"/><path d="m10.2 72c-.4-.5-.5-1.1-.5-1.8.5.5.5 1.1.5 1.8z" fill="#0d0f09"/><path d="m103.7 70.2c-.1.6-.2 1.2-.5 1.8-.1-.7 0-1.3.5-1.8z" fill="#0d0e09"/><path d="m24.4 27.7c-.1-.1-.1-.3-.2-.4l.5-.5c.2 0 .4 0 .3.3-.1.2-.3.5-.6.6z" fill="#dcc700"/><path d="m46.5 7.9c-.1-.2-.2-.3-.2-.5.4-.3.2-.7.3-1.1.3.5.2 1.1.2 1.6-.1.1-.2.1-.3 0z" fill="#322f1b"/><path d="m99.4 80.6c-.1.5-.4.9-.7 1.3-.1-.6.1-1.1.7-1.3z" fill="#0b0d08"/><path d="m96.7 82.3c.2-.5.4-.9.8-1.3 0 .6-.1 1.1-.8 1.3z" fill="#0b0d08"/><path d="m14.7 81.9c-.4-.4-.6-.8-.7-1.3.6.2.7.7.7 1.3z" fill="#0b0d08"/><path d="m97.5 81c .1-.5.4-.9.8-1.3 0 .6-.2 1.1-.8 1.3z" fill="#0b0d08"/><path d="m17.3 85.7c-.4-.3-.6-.6-.8-1 .5.1.8.4.8 1z" fill="#0b0d08"/><path d="m11.9 76.5c-.3-.3-.5-.7-.8-1 .8 0 .9.4.8 1z" fill="#0b0d08"/><path d="m17.6 83.8c.4.3.6.6.8 1-.5-.1-.8-.4-.8-1z" fill="#0b0d08"/><path d="m103.9 61.3c.1.3.2.7-.2.9-.1-.2-.2-.5-.3-.7.2-.1.3-.2.5-.2z" fill="#b7a620"/><path d="m88.6 27.3c.1-.1.2-.2.3-.3.1.1.2.2.3.2.1.1.2.2.3.3.1.1.1.2 0 .3-.1 0-.2 0-.2 0-.1.1-.2.1-.2 0-.1-.1-.2-.1-.2-.2-.2-.1-.3-.2-.3-.3z" fill="#e2cd00"/><path d="m13 75.2c.1.3.2.7.3 1-.3-.2-.7-.5-.3-1z" fill="#0b0d08"/><path d="m100 76.2c.1-.3.2-.7.3-1 .5.5.1.8-.3 1z" fill="#0b0d08"/><path d="m3.4 62.3c-.3.1-.2.4-.3.6-.2-.2-.2-.4-.1-.7.1-.2.3-.1.4.1z" fill="#8e822d"/><path d="m110.3 62.8c-.1-.2 0-.5-.3-.6.1-.2.2-.2.4-.2.2.3.1.6-.1.8z" fill="#8e822e"/><path d="m16.6 82.3c.3.2.4.5.5.8-.4-.1-.6-.4-.5-.8z" fill="#0b0d08"/><path d="m96.2 83.1c.1-.3.2-.6.5-.8.1.4 0 .7-.5.8z" fill="#0b0d08"/><path d="m95.7 83.8c.1-.3.2-.6.5-.8.1.5-.1.7-.5.8z" fill="#0b0d08"/><path d="m97.3 83.9c-.1.3-.2.6-.5.8 0-.4.1-.7.5-.8z" fill="#0b0d08"/><path d="m17.1 83c .3.2.4.5.5.8-.4-.1-.6-.3-.5-.8z" fill="#0b0d08"/><path d="m98.3 48.9v.5c-.2-.2-.2-.4-.1-.7 0 .1.1.1.1.2z" fill="#71682f"/><path d="m15.1 49.4c0-.2 0-.3 0-.5l.2-.2c.1.3-.1.5-.2.7z" fill="#726930"/><path d="m25 26.5c.1-.2.2-.3.4-.2.1.2 0 .4-.2.5-.1-.1-.2-.2-.2-.3z" fill="#bfad1b"/><path d="m25 26.5c.1.1.2.2.2.3-.1.1-.2.2-.2.3-.1-.1-.2-.2-.3-.3z" fill="#d4bf04"/><path d="m101.8 71.7c0-.3 0-.6.2-.8.1.3.2.6-.2.8z" fill="#0d0e09"/><path d="m14.8 79.3c.2.1.3.3.3.5-.3-.1-.3-.3-.3-.5z" fill="#0b0d08"/><path d="m14 80.6c-.2-.1-.3-.3-.3-.5.3.1.3.3.3.5z" fill="#0b0d08"/><path d="m18.4 84.8c.1 0 .1 0 .2.1.2.1.2.2.1.4l-.1.1c-.2-.1-.3-.3-.2-.6z" fill="#0b0d08"/><path d="m99.7 80.1c0 .2-.1.4-.3.5-.1-.2 0-.4.3-.5z" fill="#0b0d08"/><path d="m90.1 29.3c.2.1.3.2.3.4-.1 0-.2-.2-.3-.4z" fill="#e2cd00"/><path d="m90.9 29c-.1-.1-.2-.2-.2-.2.1.1.1.2.2.2z" fill="#e2cd00"/><path d="m23.2 29.3c.1-.1.2-.2.2-.3-.1.1-.1.2-.2.3z" fill="#dcc700"/><path d="m89.9 29c .1.1.1.2.2.3 0-.1-.1-.2-.2-.3z" fill="#e2cd00"/><path d="m91.2 29.3c-.1-.1-.1-.2-.2-.2 0 0 .1.1.2.2z" fill="#e2cd00"/><path d="m91.4 29.5c-.1-.1-.1-.1-.2-.2.1.1.1.2.2.2z" fill="#e2cd00"/><path d="m90.5 29.8c.1.1.1.2.2.3-.1-.1-.2-.2-.2-.3z" fill="#e2cd00"/><path d="m91.8 24.2c.1.1.1.1.2.2-.1-.1-.1-.1-.2-.2z" fill="#f1da00"/><path d="m48.3 6.4c-.1.1-.1.2-.2.3-.1-.2 0-.3.2-.3z" fill="#696029"/><path d="m48 6.9c0 .1 0 .1-.1.2 0-.1 0-.1-.1-.2z" fill="#696029"/><path d="m92 23.7c-.1.1-.1.1-.2.2-.1-.1 0-.2.2-.2z" fill="#f1da00"/><path d="m92.9 24.5c-.1-.1-.1-.1-.2-.2.1 0 .1.1.2.2z" fill="#f1da00"/><path d="m92 24.4c.1.1.1.2.2.3-.1-.1-.1-.2-.2-.3z" fill="#f1da00"/><path d="m92.2 24.7c.1.1.2.2.2.3 0-.1-.1-.2-.2-.3z" fill="#f1da00"/><path d="m93.4 25c-.1-.1-.1-.1-.2-.2.1 0 .2.1.2.2z" fill="#f1da00"/><path d="m92.4 25c .1.1.2.2.2.3 0-.1-.1-.2-.2-.3z" fill="#f1da00"/><path d="m92.7 25.2c.1.1.2.2.3.3-.1-.1-.2-.2-.3-.3z" fill="#f1da00"/><path d="m89.2 27.2c-.1-.1-.2-.2-.3-.2.1.1.2.2.3.2z" fill="#c3b118"/><path d="m24.2 27.3c-.1.1-.2.2-.2.2 0-.1.1-.2.2-.2z" fill="#dcc700"/><path d="m89.4 27.5c-.1-.1-.2-.2-.3-.3.2.1.3.2.3.3z" fill="#c3b118"/><path d="m23.9 27.5c-.1.1-.1.2-.2.3.1-.1.1-.2.2-.3z" fill="#dcc700"/><path d="m88.7 27.5c.1.1.1.2.2.2 0 0-.1-.1-.2-.2z" fill="#c3b118"/><path d="m89.4 27.7c0-.1 0-.2 0-.3.1.1.2.2.3.3-.1 0-.2 0-.3 0z" fill="#c3b118"/><path d="m23.7 27.8c-.1.1-.2.2-.2.3 0-.2.1-.3.2-.3z" fill="#dcc700"/><path d="m24.2 28c .1-.1.1-.2.2-.3-.1.1-.2.2-.2.3z" fill="#dcc700"/><path d="m88.9 27.7h.2v.3c0-.1-.1-.2-.2-.3z" fill="#c3b118"/><path d="m89.9 28c-.1-.1-.2-.2-.2-.2.1 0 .1.1.2.2z" fill="#e2cd00"/><path d="m23.4 28c-.1.1-.2.2-.2.3 0-.1.1-.2.2-.3z" fill="#dcc700"/><path d="m23.9 28.3c.1-.1.1-.2.2-.3 0 .1-.1.2-.2.3z" fill="#dcc700"/><path d="m89.2 28c .1.1.1.2.2.3-.1-.1-.1-.2-.2-.3z" fill="#e2cd00"/><path d="m90.2 28.3c-.1-.1-.2-.2-.2-.2s.1.1.2.2z" fill="#e2cd00"/><path d="m23.2 28.3c-.1.1-.2.2-.2.3 0-.2.1-.2.2-.3z" fill="#dcc700"/><path d="m23.7 28.6c.1-.1.2-.2.2-.3 0 .1-.1.2-.2.3z" fill="#dcc700"/><path d="m18.8 85.6c-.1-.1-.2-.2-.2-.2l.1-.1c.1.1.2.1.1.3z" fill="#0b0d08"/><path d="m94.8 85.4c-.1.1-.2.2-.2.2l-.1-.1c0-.1 0-.1.3-.1z" fill="#0b0d08"/><path d="m89.4 28.3c.1.1.2.2.2.3 0-.1-.1-.2-.2-.3z" fill="#e2cd00"/><path d="m90.4 28.5c-.1-.1-.2-.2-.2-.2.1.1.1.1.2.2z" fill="#e2cd00"/><path d="m22.9 28.5c-.1.1-.1.2-.2.3.1-.1.1-.2.2-.3z" fill="#dcc700"/><path d="m90.7 28.8c-.1-.1-.2-.2-.2-.2s.1.1.2.2z" fill="#e2cd00"/><path d="m23.4 29c .1-.1.1-.2.2-.3-.1.1-.1.2-.2.3z" fill="#dcc700"/><path d="m89.7 28.8c.1.1.1.2.2.3 0-.2-.1-.3-.2-.3z" fill="#e2cd00"/><path d="m56.5 83.6c-.1.3 0 .6-.3.8-.7-2.2-1.4-4.4-2.1-6.7-5.8-.8-10.5-3.6-14.2-8.1-2 .1-3.8.8-5.7 1.1-.2.2-.5.1-.7.1-.3-.4.2-.5.3-.7.1-.1.3-.2.5-.3 2.4-.8 4.8-1.2 7.3-1.7 2.4-.5 4.9-.7 7.3-.8.7-.8.9-1.7 1.2-2.6-.5-.9-1.2-1.5-1.7-2.4-.4-.7-.9-1.4-1.1-2.1-.2-1.3-1-1.8-2.2-1.8-.3 0-.7-.1-1.3 0-2.8 4-5.9 8-9.7 11.4-.2.1-.4.3-.5.4-.2.1-.5.2-.2.6.1.1.1.1.1.2s0 .1-.1.1h-.1-.1c-.2.2-.6 0-.8.2-.3.1-.7.4-.8-.3.1-.1.2-.2.3-.2.1-.1.2-.2.3-.2.1-.1.1-.2.2-.2.1-.1.1-.2.2-.2 1.5-1.6 3-3.3 4.6-5-2.1-5.5-2.1-10.9 0-16.4-.7-.8-1.4-1.6-2-2.5-.1-.1-.1-.2-.3-.3-.1-.1-.2-.2-.2-.3-.1-.1-.2-.2-.2-.3-.1-.1-.2-.1-.2-.2-.1-.1-.2-.1-.2-.2-.1-.1-.2-.1-.2-.2-.2-.2-.3-.3-.5-.5-.1 0-.2-.1-.2-.2-.1-.1-.2-.2-.3-.3-.3-.4-.1-.5.3-.5.1 0 .2.1.3.1l.2.2.1.1c.1 0 .1.1.2.2.1 0 .1.1.2.2l.2.2.2.2c.1 0 .1.1.2.1l.3.3s.2.2.3.3.1.1.2.2l.1.1c.1.1.2.1.2.2l.1.1c.1.1.2.2.3.2 3 2.9 5.4 6.2 7.8 9.5.7.1 1.4 0 2 0 .5 0 1-.2 1.1-.7.5-2.1 1.7-3.7 3.1-5.3-.1-1-.5-1.9-1.1-2.8-4.9-.3-9.7-1.1-14.4-2.5-.2-.1-.4-.2-.7-.3-.2-.1-.3-.2-.5-.3-.1-.1-.1-.2-.1-.3.3-.3.6-.2.9-.1 1.9.3 3.8.9 5.7 1.1 3.6-4.5 8.3-7.2 14-8.1.9-2.2 1.5-4.5 2.2-6.7.5 0 .5.4.5.7 0 2.1-.8 4.1-1.4 6-.9 2.8-1.9 5.5-3.3 8.1-.2.3-.3.7-.3 1.2.4.7 1 1.4 1.6 2.1 2.2-.4 4.5-.5 6.7 0 .8-.6 1.3-1.4 1.7-2.1 0-.6-.3-1.1-.5-1.5-1.8-3.6-3.1-7.5-4.2-11.4-.2-.8-.4-1.6-.3-2.4.1-.3 0-.7.5-.7.7 2.2 1.4 4.4 2.1 6.7 5.8.8 10.5 3.6 14.1 8.1 2-.1 3.8-.8 5.7-1.1.3-.1.6-.2.8.1 0 .1 0 .2-.1.3s-.3.2-.5.3-.4.2-.7.3c-4.7 1.4-9.5 2.2-14.4 2.5-.6.9-.8 1.8-1.1 2.7 1.4 1.7 2.7 3.4 3.2 5.6.9.6 1.9.6 3 .6 2.5-3.5 5.1-7.1 8.3-10.1.1-.1.3-.2.4-.3s.2-.2.4-.3c.1-.1.2-.2.4-.3.1-.1.2-.1.3-.1s.2-.1.3-.1h.2c.2.2.3.3 0 .5-.1.1-.1.2-.2.2-.1.1-.1.2-.2.2-.1.1-.1.2-.2.2-.1.1-.2.2-.2.3-.8 1-1.6 1.9-2.5 3 2.1 5.4 2.1 10.8 0 16.3 1.4 1.9 3 3.4 4.5 5.1.1.1.2.1.2.2.1.1.2.1.2.2.1.1.2.1.3.2.1.1.2.2.3.2-.1.6-.5.3-.8.3-.2-.3-.6-.1-.8-.2h-.1l-.1-.1c-.1-.1-.1-.1-.1-.2s0-.1.1-.1c.1-.1.2-.1.2-.3-.1-.2-.3-.3-.4-.4-.2-.1-.4-.2-.6-.4-3.7-3.4-6.8-7.3-9.6-11.4-1.1 0-2-.1-3 .5-.6 2.1-1.7 4-3.3 5.6 0 .7.4 1.1.5 1.6.2 1 .9 1.3 1.9 1.3 4.5.2 8.9 1.1 13.2 2.3.3.1.5.3.8.4.2.1.3.2.4.4 0 .1-.1.2-.2.3-.2.1-.5.1-.7-.1-1.9-.4-3.8-.8-5.7-1.2-3.7 4.6-8.3 7.3-14.1 8.2-.9 2.2-1.5 4.5-2.2 6.7-.3-.2-.2-.5-.3-.8-.5-.8-.1-1.7.2-2.4 1.1-3.9 2.4-7.7 4.3-11.4.2-.4.4-.7.4-1.3-.3-.7-1-1.4-1.6-2.1-2.2.4-4.5.5-6.7 0-.9.6-1.3 1.3-1.8 1.9-.1.8.3 1.3.5 1.8 1.8 3.6 3.1 7.4 4.2 11.3.1.9.4 1.6 0 2.4z" fill="#e73631"/><path d="m82.6 39.8c-1.9.8-3.5-.1-5-.9-2.1-1.1-4.4-2.2-5.3-4.8 2.4-1.3 9.2 2.4 10.3 5.7z" fill="#e73731"/><path d="m82.6 73.5c-1.1 3.3-7.7 7-10.3 5.8.7-2.5 2.9-3.6 4.9-4.7 1.6-.8 3.3-1.8 5.4-1.1z" fill="#e73731"/><path d="m41.1 34c-.9 2.6-3.1 3.7-5.1 4.8-1.5.8-3.2 1.8-5.1 1 .4-2.9 7.4-7 10.2-5.8z" fill="#e73731"/><path d="m58.3 26c2.9-1.2 9.7 2.8 10.3 5.8-1.6.8-3.1 0-4.5-.7-2.3-1.2-4.7-2.3-5.8-5.1z" fill="#e73731"/><path d="m44.8 31.8c.4-3 7.6-7.1 10.2-5.8-.9 2.4-3 3.5-5 4.6-1.6.9-3.2 1.9-5.2 1.2z" fill="#e73731"/><path d="m40.9 79.4c-2.5 1-9.2-2.8-10-5.6.3-.7.9-.6 1.5-.5 3.2.7 5.8 2.2 8 4.6.4.4.7.9.5 1.5z" fill="#e73731"/><path d="m84.2 54.5c-2.4-1.7-2.4-10 0-11.5 2.3 1.3 2.4 9.7 0 11.5z" fill="#e73731"/><path d="m29.2 70.5c-2.3-1.6-2.3-10 0-11.5 2.3 1.4 2.3 9.7 0 11.5z" fill="#e73731"/><path d="m29.3 54.5c-2.5-1.6-2.5-10 0-11.7 1.5 1.6 1.5 3.6 1.5 5.6 0 2.2.1 4.4-1.5 6.1z" fill="#e73731"/><path d="m84.4 70.6c-2.5-1.6-2.6-9.9-.1-11.7 1.6 1.3 1.5 3.2 1.6 4.9.1 2.4.2 4.8-1.5 6.8z" fill="#e73731"/><path d="m80 43c-.2-.3-.5-.2-.8-.3.9-.3 1.7-.5 2.6-.8.3-.1.4.1.3.3-.8.7-1.6 1.5-2.3 2.2 0-.2-.1-.4-.3-.5 0-.1 0-.2 0-.3.2-.2.4-.4.5-.6z" fill="#e95231"/><path d="m33.1 43.2c-.1 0-.2-.1-.4-.1 0 .1-.1.2-.1.3-.4-.4-.9-.8-1.3-1.2 0-.3 0-.4.3-.3.9.3 1.7.5 2.6.8-.3.1-.6 0-.8.3-.1.1-.2.2-.3.2z" fill="#e95231"/><path d="m57.2 29c-.3.2-.2.5-.3.8-.1.1-.3.1-.4 0-.1-.3 0-.6-.3-.8.1-.7.2-1.3.3-2 .1-.2.3-.2.4 0 .1.7.2 1.4.3 2z" fill="#ea5830"/><path d="m82.6 71.4c.4 0 .6.2.6.6-.5.3-.9 0-1.2-.3.2-.2.4-.3.6-.3z" fill="#ffe200"/><path d="m82.1 42.3c-.1-.1-.2-.2-.3-.3.2-.2.5-.4.9-.4-.1.4-.3.5-.6.7z" fill="#ef7f2c"/><path d="m81 71.2c.3 0 .6 0 .8-.3.2.1.3.2.5.3 0 .5-.2.3-.5.2-.3 0-.5-.1-.8-.2z" fill="#ea5931"/><path d="m31.6 41.9c-.1.1-.2.2-.3.3-.3-.1-.5-.3-.6-.6.4-.1.6.1.9.3z" fill="#f1842c"/><path d="m31.5 70.9c.2.3.5.2.8.3-.2.1-.5.2-.7.3-.3.1-.5.2-.5-.2.1-.2.3-.3.4-.4z" fill="#eb5f30"/><path d="m56.9 27c-.1 0-.3 0-.4 0 0-.2-.1-.4.2-.5.2.1.2.4.2.5z" fill="#fdc400"/><path d="m31.1 71.2c.2.1.3.2.5.2-.2.1-.3.2-.5.3-.3 0-.3-.1-.3-.3.1-.1.2-.1.3-.2z" fill="#f39328"/><path d="m81.8 71.5c.2-.1.3-.2.5-.2.1.1.2.1.4.2-.1.3-.3.3-.6.3-.1-.2-.2-.3-.3-.3z" fill="#f39029"/><path d="m30.8 71.4c.1.1.2.2.3.3-.2.2-.3.2-.6.1-.1-.2.1-.3.3-.4z" fill="#fdc600"/><path d="m33.1 44c .3 0 .4.2.5.5-.2-.1-.4-.3-.5-.5z" fill="#e95231"/><path d="m80.2 70.9c.3 0 .6-.1.8.2-.2.1-.5.1-.8-.2z" fill="#ea5931"/><path d="m32.3 71.2c.2-.3.5-.3.8-.2-.2.1-.5.2-.8.2z" fill="#eb5f30"/><path d="m33.3 70.9c0-.1 0-.2 0-.2h.8c-.2.2-.5.2-.8.2z" fill="#eb5f30"/><path d="m79.2 70.7h.8v.2c-.3 0-.5 0-.8-.2z" fill="#ea5931"/><path d="m32.3 70.2c-.1.1-.2.2-.2.2z" fill="#eb5f30"/><path d="m81.3 70.4c-.1-.1-.2-.2-.2-.2 0 .1.1.1.2.2z" fill="#ea5931"/><path d="m32.1 70.4c-.1.1-.2.2-.3.2.1 0 .2-.1.3-.2z" fill="#eb5f30"/><path d="m81.5 70.7c-.1-.1-.2-.2-.3-.2.2 0 .3.1.3.2z" fill="#ea5931"/><path d="m31.8 70.7c-.1.1-.2.2-.3.2.1-.1.2-.1.3-.2z" fill="#eb5f30"/><path d="m81.8 70.9c-.1-.1-.2-.2-.3-.2.1.1.2.1.3.2z" fill="#ea5931"/><path d="m32.9 43.8.2.2c-.1-.1-.1-.2-.2-.2z" fill="#e95231"/><path d="m33.6 44.5c.1.1.1.2.2.2 0-.1-.1-.1-.2-.2z" fill="#e95231"/><path d="m79.5 44.7c.1-.1.2-.2.2-.2 0 .1-.1.2-.2.2z" fill="#e95231"/><path d="m33.9 44.8c.1.1.2.2.2.2-.1-.1-.2-.2-.2-.2z" fill="#e95231"/><path d="m79.3 45c .1-.1.2-.2.2-.2-.1 0-.2.1-.2.2z" fill="#e95231"/><path d="m34.1 45c .1.1.2.2.2.2s-.1-.1-.2-.2z" fill="#e95231"/><path d="m79 45.3c.1-.1.2-.2.2-.2s-.1.1-.2.2z" fill="#e95231"/><path d="m34.4 45.3c.1.1.2.2.2.3-.1-.2-.2-.3-.2-.3z" fill="#e95231"/><path d="m78.8 45.5c.1-.1.2-.2.2-.3-.1.2-.2.2-.2.3z" fill="#e95231"/><path d="m34.6 45.5c.1.1.2.2.2.3 0-.1-.1-.2-.2-.3z" fill="#e95231"/><path d="m34.8 45.8.3.3c-.1-.1-.2-.2-.3-.3z" fill="#e95231"/><path d="m32.6 69.9c-.1.1-.2.2-.2.2s.1-.1.2-.2z" fill="#eb5f30"/><path d="m81 70.2c-.1-.1-.2-.2-.2-.2.1 0 .1.1.2.2z" fill="#ea5931"/><path d="m66.7 98.1c-1.9 1.4-3.7 2.9-5.7 4.4.8 2.4 1.5 4.7 2.4 7.4-2.4-1.6-4.5-2.9-6.7-4.3-2.2 1.4-4.3 2.8-6.7 4.4.7-2.6 1.4-5 2.1-7.4-1.8-1.5-3.6-2.9-5.4-4.4 0-.1.1-.2.1-.3h7.1c.9-2.4 1.8-4.7 2.9-7.4 1 2.7 2 5 2.9 7.4h7c-.1-.1 0 0 0 .2z" fill="#ffed00"/><path d="m49.1 11.7c-.8-.7-.9-1.6-1-2.7.2-.3.4-.6.8-1.4.2 1.6.3 2.8.4 4.1-.1.2-.1.2-.2 0z" fill="#2c2a12"/><path d="m50.4 11.2c-.1-.9-.2-1.9-.3-2.8.4-.2.8-.2 1.2-.1 0 1-.1 2-.7 2.9l-.1.1c-.1 0-.1 0-.1-.1z" fill="#2c2a14"/><path d="m51.4 12.2c.3-.7.6-1.4 1-2.2.5.5.8 1.2 1.1 1.9-.7.4-1.4.4-2.1.3z" fill="#2c2a11"/><path d="m53.3 5.4c.1.5.2.9.3 1.3-.4.4-.9.2-1.2.2-.3-.5-.3-.9-.2-1.3.2-.3.6-.2 1.1-.2z" fill="#363315"/><path d="m51 7.1c-.4.1-.7.1-1.1.1-.2-.4-.2-.9-.1-1.4.3-.2.7-.3 1.1-.2.2.6.3 1.1.1 1.5z" fill="#292712"/><path d="m53.6 10c-.4-.6-.8-1.2-1.2-2 .5 0 .8-.1 1.2-.1.4.6.3 1.2.3 1.8.1.3 0 .3-.3.3z" fill="#3c3918"/><path d="m53.6 10c .1-.1.2-.2.3-.3.2.3.3.5.2 1-.2-.3-.3-.5-.5-.7z" fill="#7e7430"/><path d="m46.5 7.9h.3c.2.2.2.4.1.7-.1-.2-.3-.4-.4-.7z" fill="#655d2e"/><path d="m49.1 11.7h.2c.2.1.2.2.1.4-.2 0-.3-.1-.3-.4z" fill="#877c2f"/><path d="m50.4 11.2h.2c0 .1 0 .2-.1.4-.2-.1-.1-.3-.1-.4z" fill="#ac9d25"/><path d="m54.3 11.8v.1h-.1z" fill="#ad9d25"/><path d="m50.8 12.4s-.1.1 0 0c-.1.1-.1 0-.2 0 .1 0 .1-.1.2 0-.1-.1 0 0 0 0z" fill="#7c722f"/><path d="m51.4 12.2c-.1.1-.1.1 0 0z" fill="#c1af1e"/><path d="m18.9 85.6c-.1-.1-.1-.2-.2-.3 0-.1-.1-.3-.1-.4h.5c0 .2.1.5-.2.7z" fill="#b1a121"/><path d="m94.7 85.3c-.1.1-.1.2-.2.3-.3-.2-.3-.4-.2-.7h.5c0 .1-.1.3-.1.4z" fill="#b1a122"/><path d="m56.5 83.6c-1-5-2.8-9.6-4.9-14.2-.1-.3-.3-.6-.5-.9.7-.9 1.4-1.7 2.1-2.6 2.3.7 4.6.7 7 0 .7.9 1.4 1.7 2.1 2.6-2.3 4.5-4 9.1-5.2 13.9-.1.4-.1.7-.2 1.1-.2.1-.3.1-.4.1z" fill="#ffed00"/><path d="m56.5 29.8h.4c1 5 2.8 9.6 4.9 14.2.1.3.3.6.4.9-.7.9-1.4 1.8-2.1 2.7-2.3-.7-4.6-.7-7.1 0-.7-.9-1.4-1.7-2.1-2.6 2-3.8 3.5-7.9 4.7-12 .5-1.1.8-2.1.9-3.2z" fill="#ffed00"/><path d="m79 69.9c-4.9-1.2-9.8-2.3-14.9-2.4-.4-1-.8-2.1-1.3-3.2 1.8-1.6 3-3.6 3.5-6.1 1.1-.2 2.2-.3 3.4-.5 2.8 4.4 6.2 8.2 9.8 11.9.1.5-.2.5-.5.3z" fill="#ffed00"/><path d="m79.5 43.7v.2c0 .2-.1.2-.3.3-.1 0-.1.1-.2.1s-.1.1-.2.2-.2.2-.3.3c-.1 0-.2.1-.2.2-3.2 3.2-6.1 6.7-8.6 10.6-1.1-.2-2.2-.3-3.3-.5-.6-2.3-1.7-4.4-3.6-6 .4-1.1.9-2.1 1.3-3.2 5.1-.2 10-1.2 14.8-2.4.3-.1.6-.3.6.2z" fill="#ffed00"/><path d="m34.3 44.3c0-.1-.1-.1-.2-.1-.2 0-.3-.1-.3-.3 0-.1 0-.1 0-.2 0-.5.3-.4.5-.3 4.9 1.2 9.8 2.3 14.9 2.4.4 1 .8 2 1.3 3.2-1.8 1.6-3.1 3.6-3.5 6.1-1.1.2-2.2.3-3.3.5-2.3-3.6-5.1-7-8.1-10.1 0-.1-.1-.2-.2-.2 0-.1-.1-.2-.2-.2 0-.1-.1-.2-.2-.2-.1-.1-.2-.2-.3-.3-.2-.2-.3-.2-.4-.3z" fill="#ffed00"/><path d="m33.8 69.6c3.6-3.7 7.1-7.5 9.8-11.9 1.1.2 2.2.3 3.3.5.5 2.4 1.6 4.5 3.5 6.1-.4 1.1-.8 2-1.3 3.1-5.1.2-10.1 1.2-15.1 2.5-.2.1-.2 0-.2-.3z" fill="#ffed00"/><path d="m33.8 70.2c-.2.2-.3.3-.5.5-.2 0-.4 0-.6 0 0-.4.3-.6.6-.7.2.1.4-.1.5.2z" fill="#eb5f30"/><path d="m79.5 43.7c-.1-.2-.3-.2-.5-.3l.6-.3c.1 0 .2-.1.3-.2h.2c.2.6-.4.6-.6.8z" fill="#ffcf00"/><path d="m34.4 43.5c-.2.1-.4.1-.5.3h-.1-.1c-.1-.1-.2-.1-.3-.2-.1-.1-.2-.2-.3-.3.1-.1.2-.2.2-.3h.2c.1.1.2.1.3.2.2.1.4.2.6.3z" fill="#fc0"/><path d="m79 69.9c.2 0 .4-.1.5-.3.2.1.3.2.5.3.1.2 0 .4-.3.3-.2-.1-.5-.2-.7-.3z" fill="#ffd000"/><path d="m79.7 70.2.3-.3c.3.1.4.2.5.5-.2.1-.3.1-.5 0-.1 0-.2-.1-.3-.2z" fill="#f39028"/><path d="m33.8 70.2c-.2 0-.5 0-.5-.3.2-.1.3-.2.5-.3.1.1.2.2.3.3-.1.1-.2.2-.3.3z" fill="#ffcd00"/><path d="m80 70.4h.5c.1.5-.3.1-.5.3 0-.1 0-.2 0-.3z" fill="#ea5931"/><g fill="#e95231"><path d="m33.8 43.2c-.1-.1-.2-.1-.3-.2.1.1.2.1.3.2z"/><path d="m33.1 43.2.3.3c-.2-.1-.3-.2-.3-.3z"/><path d="m33.3 43.5c.1.1.2.2.3.2-.1 0-.2-.1-.3-.2z"/><path d="m33.9 43.9.3.3c-.2 0-.3-.1-.3-.3z"/><path d="m79.2 44.2c.1-.1.2-.2.3-.3 0 .2-.2.3-.3.3z"/><path d="m34.3 44.3.2.2c0-.1-.1-.1-.2-.2z"/><path d="m78.8 44.5c.1-.1.1-.1.2-.2 0 .1-.1.2-.2.2z"/><path d="m34.8 44.8.2.2s-.1-.1-.2-.2z"/><path d="m78.3 45c .1-.1.1-.1.2-.2-.1.1-.1.2-.2.2z"/><path d="m35.1 45.1.2.2c-.1-.1-.2-.2-.2-.2z"/><path d="m35.3 45.3.2.2s-.1-.1-.2-.2z"/><path d="m79.8 43c-.1.1-.2.1-.3.2.1-.1.2-.1.3-.2z"/></g></svg>