<?xml version="1.0" encoding="utf-8"?>
<!-- Generator: Adobe Illustrator 24.1.1, SVG Export Plug-In . SVG Version: 6.00 Build 0)  -->
<svg version="1.1" id="Capa_1" xmlns="http://www.w3.org/2000/svg" xmlns:xlink="http://www.w3.org/1999/xlink" x="0px" y="0px"
	 viewBox="0 0 566.9 566.9" style="enable-background:new 0 0 566.9 566.9;" xml:space="preserve">
<style type="text/css">
	.st0{fill:#FFFFFF;}
	.st1{fill:#CC1333;}
	.st2{fill:#FFFDFC;}
	.st3{fill:#FFFCFC;}
	.st4{fill:#FFFCFB;}
	.st5{fill:#FFFBFA;}
	.st6{fill:#EA5243;}
	.st7{fill:#F39981;}
	.st8{fill:#EC6450;}
	.st9{fill:#ED6B56;}
	.st10{fill:#FEF4F1;}
	.st11{fill:#FEF3EF;}
	.st12{fill:#FEF7F4;}
	.st13{enable-background:new    ;}
</style>
<g id="Capa_2_1_">
	<circle class="st0" cx="283.5" cy="283.5" r="276.4"/>
</g>
<path class="st1" d="M7.1,283.4C7.1,130.8,130.8,7.1,283.4,7.1c152.9,0,276.6,123.7,276.5,276.7c-0.1,152.5-123.9,276.1-276.6,276
	S7.1,436.1,7.1,283.4z"/>
<path class="st0" d="M13.1,283.7C13.1,134.4,134,13.2,283.2,13.2s270.5,120.9,270.6,270.1c0,149.6-121.1,270.6-270.7,270.6
	C134.3,553.7,13.2,432.6,13.1,283.7z"/>
<path class="st1" d="M174.6,452.9c72.6,43,145.2,43,217.8,0c1-0.2,2,0.4,2.3,1.4c0.5,7.2-2.7,13.7-4.2,20.6
	c-0.9,4.3-2.9,8.4-2.5,13.4c5,2.9,10.9,3.6,16.4,5.4c6.2,2,13,2.3,18.2,7c-25.1,16.8-52.6,28-81.9,34.5
	c-69.2,15.6-134,3.5-194.4-33.1c-0.7-0.4-1.3-0.9-1.9-1.5c0.8-2.9,3.6-2.9,5.8-3.6c7.7-2.2,15.5-4.1,23.2-6.4c1.9-0.6,4-0.8,5.6-2.8
	c0.7-4.5-1.5-8.7-2.4-13.1c-1.4-6.8-4.6-13.3-4.1-20.5C172.6,453.3,173.6,452.7,174.6,452.9z"/>
<path class="st1" d="M492,436.2c-16.7,22.5-36.7,42.2-59.5,58.4c-0.5,0.4-1.1,0.7-1.8,0.8l-0.3-0.2l-0.3,0.2c-9.2-1.1-18.2-3-27-5.8
	c-1.5-0.4-2.9-1-4.2-1.7c-0.5-0.4-0.7-0.9-0.8-1.5c1-2.4,3.4-3.3,5.4-4.6c19.5-12.1,37.6-26.1,52.5-43.8c1-1.3,2.2-2.4,3.6-3.1
	c1-0.6,2.2-0.3,3.2-1h-0.1c9.2-1.6,18.4-0.3,27.6-0.6C492.5,433.3,492.9,434.5,492,436.2z"/>
<path class="st1" d="M136.7,495.4c-21-13.2-38.5-30.1-54-49.3c-2.6-3.3-5.2-6.6-7.9-9.9c-1.2-2.6,0.5-2.5,2.3-2.6
	c9-0.6,17.9-0.9,26.9,0.3l-0.1,0c0.9,0.7,2.2,0.4,3.1,1c4.2,2.3,6.2,6.8,9.5,10c14.2,14,29.9,26.5,46.7,37.1c1.8,1.2,4,2,5.2,4
	c0.2,0.6,0,1.2-0.5,1.6c-1.3,0.8-2.7,1.5-4.1,1.9c-6.8,1.5-13.4,3.8-20.1,5.4C141.5,495.5,139.1,495.7,136.7,495.4z"/>
<path class="st1" d="M403.8,444.8c19.8-15.9,37.5-33.6,50.7-55.5c2.2-0.6,1.7,1.1,1.7,2.1c0,12.9,0,25.8,0,38.7c0,2.2-0.8,4.4-2.4,6
	c-15.6,16.7-32.4,32-52.4,43.4c-2.4,1.4-4.7,3.4-7.8,1.8c-0.5-0.9-0.6-1.9-0.3-2.9C396.6,467,397.6,455.1,403.8,444.8z"/>
<path class="st1" d="M112.4,389.2c13.2,21.9,30.9,39.7,50.7,55.5c5,11.7,9.4,23.5,10.3,36.3c-3.1,1.7-5.4-0.3-7.8-1.7
	c-20-11.4-36.8-26.7-52.4-43.4c-1.6-1.6-2.5-3.8-2.4-6v-38.7C110.8,390.4,110.3,388.7,112.4,389.2z"/>
<path class="st1" d="M69,427.3c-12.3-18.4-21.8-38.3-29.5-59c-0.8-2.7,0.8-3.6,2.8-3c9,2.6,18.7,3.1,26.8,8.4
	c7.3,14.9,14.9,29.7,24.7,43.3c2.3,3.2,5.5,6,5.4,10.9c-4.9,1-9.9,0.3-14.8,0.5C79.4,427.6,74.1,429.7,69,427.3z"/>
<path class="st1" d="M527.3,368.3c-7.7,20.7-17.1,40.6-29.5,59c-5,2.1-10.3,0.7-15.5,1c-4.8-0.2-9.6,0.4-15.7-0.4
	c4-10.1,11.4-17.7,16.5-26.5c5.2-9.1,9.5-18.5,14.5-27.7c8.2-5.3,17.8-5.8,26.9-8.4C526.4,364.7,528.2,365.6,527.3,368.3z"/>
<path class="st1" d="M88.2,330.9c2.7,15.9,9.3,30.3,16,44.7c2.2,5.6,0.7,11.5,0.8,17.3c0.2,9.5,0.7,19-0.6,28.6
	c-2.7,0.6-4.1-1-5.2-2.5c-9.9-13.2-18.2-27.5-24.7-42.7c-0.7-1.7-1-3.5-0.8-5.3c3.1-12.3,6.6-24.5,9.7-36.7
	C83.9,332.3,83.9,328,88.2,330.9z"/>
<path class="st1" d="M462.9,374.4c7.3-13.7,13-28.1,15.8-43.5c0.8-1.7,1.9-2,3.1-0.5c1,1.3,1.6,2.8,1.9,4.4c2.9,12.1,6.4,24,9.5,36
	c0.1,6.8-3.9,12.2-6.7,17.9c-5,9.9-10.8,19.4-17.4,28.4c-1.5,2-2.8,4.5-6.7,4.5c-0.6-15.2-1.4-30.3-0.2-45.4
	C462.2,375.6,462.4,374.9,462.9,374.4z"/>
<path class="st1" d="M537.5,242.8l-10.1,8.4c-5.9-52.7-28-99-63.6-140.6C486.6,114.2,531.8,196.9,537.5,242.8z"/>
<path class="st1" d="M39.6,254l-9.8-9.5c0.7-36.6,48.7-125.5,72-130.9c-16.2,20.4-30.9,41.8-41.6,65.7
	C49.4,202.9,42.5,228.2,39.6,254z"/>
<path class="st1" d="M113.8,133.3c-26.3,31.9-44.1,67.8-51.5,108.6c-0.9,4.8-1.4,9.6-2.1,14.4c-0.9,6.8-0.9,6.8-7,12
	c-2.2-0.7-3.5-2.5-5.4-5c6.4-50.9,26.3-95.9,63.7-132.4c0.2-0.5,0.6-0.9,1.1-1.1l0.1-0.1c0.2-0.4,0.5-0.8,1-0.9l2.4-0.4
	c-0.1,1.1-0.2,1.7-0.3,2.4c-0.2,0.5-0.5,0.9-0.9,1.2l0,0C114.5,132.4,114.1,132.8,113.8,133.3z"/>
<path class="st1" d="M455.4,128.4c31,29.9,49.9,66.5,59.6,108.1c1.6,6.9,2.5,13.9,3.6,20.9c0.1,1.6,0.1,3.1,0,4.7l-4.4,4.1
	c-4.2-2.7-6.8-6-7.3-11.1c-5.2-46.9-23.8-88-53.8-124.2c-0.3-0.5-0.7-1-1.1-1.4l0,0c-0.4-0.3-0.7-0.7-0.9-1.2l-0.3-2.4l2.4,0.3
	c0.5,0.1,0.8,0.5,1,0.9l0.1,0.1C454.7,127.5,455.1,127.9,455.4,128.4z"/>
<path class="st1" d="M540.5,308.9c-1.8,16.4-5,32.6-9.7,48.5c-2.2,3.4-5.9,3.8-9.3,4.8c-4.4,1.3-8.8,2.2-13.3,3.4
	c-1.5,0.5-3.1,0.8-4.7,0.8c-0.6-0.1-1.2-0.6-1.5-1.1c-0.6-1.7-0.5-3.6,0.2-5.3c4.2-11.3,6.7-23.1,9.2-34.8c1.2-2.7,3.5-4.3,5.9-5.8
	c5.3-3.3,10.8-6.4,16.3-9.3C535.8,309,537.9,307.2,540.5,308.9z"/>
<path class="st1" d="M36.2,357.4c-4.7-15.8-7.9-32.1-9.7-48.5c0.3-0.3,0.7-0.6,1-0.5c10.5,3.5,20.1,8.5,27.8,16.7
	c2.6,11.9,5.2,23.9,9.4,35.4c0.6,1.5,0.7,3.2,0.2,4.7c-0.3,0.6-0.8,1.1-1.4,1.3c-1.6,0-3.2-0.2-4.7-0.7c-5.7-1.7-11.6-2.6-17.2-4.7
	C39.5,360.2,37.5,359.3,36.2,357.4z"/>
<path class="st1" d="M25.4,299c-0.1-15.6-0.8-31.1,2.2-47.9c8.1,8.5,16.3,15.5,23,23.9c1.7,5.8,0.8,11.9,1.7,17.8
	c0.8,5.3,0.1,10.8,0.9,16.2c0.3,2,0.2,4.1-2,5.3c-6.5-0.1-10.8-5-16.1-7.6C31.5,304.8,27.4,303.1,25.4,299z"/>
<path class="st1" d="M516.3,275c6.7-8.3,14.8-15.2,23.2-23.9c0.7,6.4,1.7,11.5,1.9,16.7c0.3,9.2,0.1,18.5,0.3,27.7
	c0.1,2.2-0.8,4.4-2.5,5.8c-7,5.8-14.3,10.8-23.3,13c-1.2-0.4-2-1.5-2-2.8C514.5,299.4,514.4,287.1,516.3,275z"/>
<path class="st1" d="M432.9,140.4c-0.3-0.2-0.5-0.5-0.5-0.9c-0.2-0.5-0.2-1.1,0.1-1.6l0,0c0.5-0.2,1-0.2,1.5,0l0,0
	c0.2,0.6,0.7,1.1,1.4,1.2V139c0.1,0.7,0.7,1.2,1.4,1.3c30.4,28.3,50.1,62.4,56.3,103.9c-6.5-5.3-13.3-9.9-15.4-19
	c-7.3-30.9-23.2-57.4-42.5-82.1c-0.4-0.4-0.8-0.9-1.1-1.3v-0.1C433.5,141.4,433.1,140.9,432.9,140.4z"/>
<path class="st1" d="M125.9,146.9l1.9-1.8c0.7,0,1.4-0.5,1.5-1.3l-0.1,0.1c0.7-0.1,1.2-0.7,1.2-1.3l-0.1,0.1c0.7,0,1.2-0.5,1.4-1.2
	l0,0c2,0,2.4,0.9,1.3,2.5L133,144c-0.3,0.5-0.6,0.9-1,1.3l0,0c-0.5,0.4-0.9,0.8-1.2,1.3v-0.1c-0.6,0.3-1,0.8-1.2,1.4l0.1-0.1
	c-1,0.3-0.7,1.6-1.6,2.1l-0.1,0.1c-0.3,0.5-0.6,0.9-1,1.3c-12.8,17.9-24.4,36.4-31.9,57.3c-2,5.5-4.5,11-5.2,16.7
	c-1.3,10.1-8.6,15.4-15.3,21.8c-1.8-22.6,21-72.2,50.4-99.5C125.2,147.3,125.5,147,125.9,146.9z"/>
<path class="st1" d="M82.3,284.7c0.5,7.3,0.9,14.6,1.4,21.9c0.4,3.6,1.2,7.3-0.4,10.8l0.1-0.1c-2.4,15.1-6,29.9-11.9,44
	c-2.2,0.3-3.4-1.3-4-3c-4-11.9-8.4-23.7-8.5-36.5c5-11.8,12.4-22.3,18.5-33.5C78.6,286.6,79.3,284.1,82.3,284.7z"/>
<path class="st1" d="M483.3,306.5l1.4-21.9c1.2-0.5,2.5,0.1,3.1,1.3c6.8,11.9,14.6,23.2,20.1,35.8c0,12.9-4.4,24.7-8.5,36.6
	c-0.6,1.7-1.7,3.2-4,2.9c-1.4-1.3-1.9-3-2.4-4.8c-3.1-11-6-22.1-8.9-33.2C482.7,317.8,482.4,312.1,483.3,306.5z"/>
<path class="st1" d="M56.9,272.6l27.2-28.7l1.8,1.4c-2.9,9.7-0.8,20.3-6.1,29.5c-4.4,12.1-12.2,22.5-18.5,33.7
	c-0.8,1.4-2.1,2.7-3.9,1C53.6,297.3,53.8,285,56.9,272.6z"/>
<path class="st1" d="M484.9,270.9c-1.2-8.5-2.4-17.1-3.8-26.9l29,28.6c3,12.3,3.2,24.6-0.4,36.9c-2.1,2-3.4,0.3-4.2-1.2
	C498.4,295.8,490.1,284.2,484.9,270.9z"/>
<path class="st2" d="M483.3,306.5c-0.3,13.1,5.4,25,8.1,37.5c1.2,5.7,2.9,11.3,4.3,16.9c2.4,1.6,4.6,3.6,7.4,4.7
	c0.1-0.1,0.4-0.2,0.5,0c0,0,0,0,0,0c0,0,0.1,0.1,0.1,0.1c1.3-0.7,3,0.1,4.1-1.1c7.4-3.2,15.7-3.6,23.1-7.2
	c-1.1,3.6-2.3,7.3-3.4,10.9c-0.1-1.3-0.4-2.3-2.2-1.7c-9,2.8-18.3,4-27,7.9c-4.2,2.4-5-0.9-6.1-3.7c-4.2-11.9-6.7-24.3-10.3-36.4
	c-0.3-1,1.3-5.5-3-3.5C482,323.1,481.6,314.6,483.3,306.5z"/>
<path class="st2" d="M71.3,360.9c3.7-14.6,7.1-29.4,12-43.7c2.2,4.3,3.9,9,4.9,13.7c-4.2-2.5-2.7,2.1-2.8,2.9
	c-3.3,11.2-6.2,22.4-9.2,33.6c-0.4,1.1-0.8,2.2-1.3,3.3c-0.9,1.1-0.2,2.8-1.3,3.8c-1.7,1.3-3.3,1-4.9-0.1c-8.6-3.9-18-5.2-27-7.9
	c-1.8-0.5-2.1,0.4-2.2,1.8c-0.7-3.8-1.4-7.5-3.4-10.9c7.3,3.6,15.6,4,23.1,7.2c1.1,1.3,2.8,0.4,4.1,1.1c0.1-0.2,0.3-0.3,0.5-0.2
	c0,0,0,0,0,0c0,0,0.1,0,0.1,0.1C66.8,364.8,68.9,362.6,71.3,360.9z"/>
<path class="st2" d="M484.9,270.9c8.3,12.7,15.5,26,22.9,39.3c3.5,0.7,5.5,5.1,9.7,3.7c6.9-4.7,14.2-8.9,21.7-12.5
	c0.5,2.5,0.9,5.1,1.4,7.6c-9.9,4-19.1,9.4-27.5,15.9c-4.1,2.1-5.3-0.5-6.2-3.8c-6-10.3-11.9-20.6-18-30.8c-1.2-2-1.5-4.7-4.1-5.6
	C484.7,280.1,484.8,275.5,484.9,270.9z"/>
<path class="st0" d="M112.4,389.2c-1.1,0.5-1.2,1.5-1.2,2.5v39.8c16.9,19.4,36.1,35.7,58.3,48.4c1.1,0.5,2.2,0.8,3.4,1.1
	c2.6-0.1,1.9,1.7,1.2,2.8c-1.3,2.2-2.9,4.5-6.1,3.1c-21.4-13.1-41.2-28.2-58-47c-1.3-1.5-2.5-3.1-3.8-4.7c0.6-0.9,1.9-0.4,2.6-1.3
	l0,0c0.4-0.4,0.8-0.8,1.2-1.2v-44.9C112,387.3,112.1,388.3,112.4,389.2z"/>
<path class="st0" d="M394,481c9.8-3.5,17.7-10,26-16c13.2-9.6,24.9-21,35.7-33.4v-39.9c0-1-0.1-2-1.2-2.5l1.1-2l1.3,0.1v45.1
	c0.4,0.4,0.8,0.8,1.2,1.2c0.6,0.9,2,0.3,2.6,1.3c-16,19.6-35.4,35.1-56.7,48.4c-1.7,1.1-3.4,2.2-5,3.3c-3.2,1.4-4.8-0.9-6.1-3.1
	C392.1,482.6,391.4,480.9,394,481z"/>
<path class="st3" d="M59.2,310.1c6.5-11.9,13.1-23.9,20.6-35.3c-0.4,3.6,2.5,6.3,2.5,9.8c-6.9,8.4-11,18.5-16.8,27.6
	c-1.8,2.9-3.5,5.9-5.2,8.8c-0.8,3.2-2.1,5.8-6.2,3.7c-8.4-6.6-17.7-11.9-27.5-15.9l0.1-2.5l2.6,0.8c0.4-3.6-4.3-4.7-3.8-8.2
	l24.1,14.8C53.6,314.9,56,311.5,59.2,310.1z"/>
<path class="st3" d="M168.1,486.8c4.9-2.5,4.9-2.5,4.9-5.8c-3.3-12.1-6.5-24.1-9.8-36.2c2.6,2.3,5.4,4.5,4.1,8.4
	c2.8,1.3,1.8-4.4,4.8-2.1c1,1,0.4,2.4,0.9,3.5l8.9,35.2l-37.4,10.9c-1.3-3.5-6-2.1-7.6-5.2l27.6-7.2
	C165.4,487.2,167.4,488.6,168.1,486.8L168.1,486.8z"/>
<path class="st4" d="M394,481c-1.4,4.4,2.8,4.2,4.9,5.8h-0.1c0.8,1.8,2.7,0.5,3.8,1.5l27.6,7.2c-1.7,2.5-3.5,0.9-5.1,0.1
	c-2.1-1-4-1.7-5.3,0.5c-0.6,2.8,4.6,1.2,2.8,4.5l-37.4-10.9c3-12.1,5.9-23.6,8.8-35.2c0.5-1.1-0.1-2.5,0.9-3.5
	c3.5-1.4,5.9-4.2,8.9-6.3C400.5,456.9,397.3,468.9,394,481z"/>
<path class="st0" d="M492,370.8c1.6,2,3,4.3,6.1,3.7c-7.4,18.9-18.1,35.8-30.6,52.7l13.5,0.7c0.4,0.2,0.5,0.5,0.4,0.7
	s-0.3,0.4-0.4,0.4h-6c-0.2,0.3-0.7,0.4-1,0.2c0,0,0,0,0,0c-0.1,0-0.1-0.1-0.2-0.2h-2.4c-0.3,0.3-0.8,0.4-1.1,0.1c0,0,0,0,0,0
	l-0.1-0.1c-1.3,0-2.8,0.2-3.7-1.2c-0.9-1.2-2.6-0.2-3.6-1.2l0,0c-0.7-0.7-0.5-1.8-1.2-2.4l0,0c-0.8-1.5-0.9-3.3-0.1-4.8v-4.9
	c-0.7-3.6-0.7-7.3,0-10.8V401c-0.8-7.6-0.8-15.4,0-23c0-0.8,0.1-1.6,0.1-2.5c0.2-0.3,0.6-0.3,0.9-0.1c0,0,0,0,0,0
	c0,0,0.1,0.1,0.1,0.1v45.1c2.3,0.6,2.6-1.2,3.3-2.2c9.4-12.6,17.4-26.1,24-40.3C491,375.8,492.2,373.5,492,370.8z"/>
<path class="st0" d="M68.7,374.5l3.9-0.3l2.2-3.4c0.2,6.1,3.8,10.9,6.4,16.1c6.1,12.2,13.3,23.7,23,34.2v-45.4l1.1,2.4
	c0.7,3.6,0.7,7.3,0,10.8v2.5c0.7,3.2,0.7,6.5,0,9.6v2.5c0.8,3.6,0.8,7.3,0,10.9v3.7c0.9,1.9,0.8,4.1-0.1,6l0,0
	c-0.8,0.6-0.5,1.8-1.2,2.4l0,0c-1,1.1-2.7,0.1-3.6,1.2c-3.4,2.4-7.3,0.7-10.9,1.2c-0.3,0.3-0.7,0.4-1.1,0.1c0,0,0,0,0,0
	c-0.1,0-0.1-0.1-0.1-0.1h-2.4c-0.4-0.2-0.5-0.5-0.4-0.7s0.3-0.4,0.4-0.4h13.9C87.1,410.4,76.1,393.4,68.7,374.5z"/>
<path class="st0" d="M59.2,310.1c-2.2,3.9-4.9,6.5-9.7,3.7c4.3,0,2-3,2-4.7c-0.7-11.4-2.5-22.7-0.8-34.1H54l2.9-2.4
	c-0.4,11.3-0.8,22.7,0.8,34C57.9,307.8,57.4,309.5,59.2,310.1z"/>
<path class="st0" d="M517.4,313.8c-4.8,3-7.3-0.4-9.7-3.7c2.5-3.2,2.2-7.1,2.3-10.7c0.3-9,0.1-17.9,0-26.9l2.9,2.4h3.4
	c1.6,11.4-0.2,22.7-0.8,34.1C515.4,310.8,513.2,313.8,517.4,313.8z"/>
<path class="st5" d="M104,433.9c-8.2,0.1-16.3,0-24.4,0.4c-1.5,0.1-4.3-1.4-4.7,1.9c-1.1-0.8-1.4-1.8-1.5-3.8
	C83.7,433.5,94,430.9,104,433.9z"/>
<path class="st5" d="M492,436.2c-0.4-3.4-3.1-1.9-4.7-1.9c-8.1-0.3-16.3-0.3-24.5-0.4c0.4-1,0.9-2,2-1.8c9.3,1.2,18.7,0,28.1,0.6
	C494.1,434.3,493.1,435.3,492,436.2z"/>
<path class="st5" d="M461.5,378v23C459.8,393.4,459.8,385.6,461.5,378z"/>
<path class="st5" d="M481.1,428.9v-1.1l16.8-0.6c-3.6,4.4-8.5,0.5-12.7,1.9C484,429.6,482.5,429,481.1,428.9z"/>
<path class="st5" d="M85.9,427.9v1.1c-4.4,0.1-8.7,0.3-13.1,0.5c-1.8,0.1-3.1-0.3-3.8-2.1L85.9,427.9z"/>
<path class="st5" d="M105.4,414.4v-10.9C107.5,406.8,107.5,411,105.4,414.4z"/>
<path class="st5" d="M461.5,403.5v10.8C459.8,410.9,459.8,406.9,461.5,403.5z"/>
<path class="st2" d="M83.2,317.4c0.1-3.6,0.3-7.2,0.4-10.8C85.1,310.2,85.8,313.8,83.2,317.4z"/>
<path class="st5" d="M105.4,388.9V378C107.1,381.4,107.1,385.5,105.4,388.9z"/>
<path class="st5" d="M105.4,401v-9.6C107.1,394.4,107.1,398,105.4,401z"/>
<path class="st6" d="M133.1,143.9c0.1-1-0.4-2-1.3-2.5c0.7-1.3,1.4-2.4,3.1-1.2C135.6,142.1,134.3,143,133.1,143.9z"/>
<path class="st5" d="M105.3,424.1c0-2,0.1-4,0.1-6C107.6,420.1,107.7,422.1,105.3,424.1z"/>
<path class="st5" d="M461.5,419.3l0.1,4.8C460,422.5,460,420.9,461.5,419.3z"/>
<path class="st5" d="M108.9,433.8c-0.6,1-1.6,1.2-2.6,1.3l-2.4-1.2L108.9,433.8z"/>
<path class="st5" d="M460.6,435c-1,0.1-2-0.4-2.6-1.3l5,0.1L460.6,435z"/>
<path class="st7" d="M172.9,454.5c-1.3-0.9-1-2.2-0.9-3.5l2.5,1.8L172.9,454.5z"/>
<path class="st1" d="M394.9,451c0.1,1.3,0.4,2.6-0.9,3.5l-1.6-1.6L394.9,451z"/>
<path class="st5" d="M100.5,427.7c0.8-1.5,2.3-1.2,3.6-1.2C103.2,427.9,101.8,427.7,100.5,427.7z"/>
<path class="st5" d="M462.9,426.5c1.3,0,2.8-0.2,3.6,1.2C465.1,427.7,463.7,427.9,462.9,426.5z"/>
<path class="st5" d="M461.6,424.1c0.9,0.5,1.3,1.4,1.2,2.4C462,426,461.5,425.1,461.6,424.1z"/>
<path class="st5" d="M104.1,426.5c-0.1-1,0.4-1.9,1.2-2.4C105.4,425.1,104.9,426,104.1,426.5z"/>
<path class="st6" d="M128.2,149.9c-0.1-1,0.6-1.9,1.6-2.1C129.3,148.5,128.7,149.2,128.2,149.9z"/>
<path class="st6" d="M125.9,146.9c-0.1,0.4-0.4,0.7-0.8,0.8L125.9,146.9z"/>
<path class="st5" d="M110.1,432.6l-1.2,1.2L110.1,432.6z"/>
<path class="st5" d="M458,433.8l-1.2-1.2L458,433.8z"/>
<path class="st6" d="M130.8,146.6l1.2-1.3L130.8,146.6z"/>
<path class="st8" d="M433.9,141.6l1.1,1.3L433.9,141.6z"/>
<path class="st6" d="M132,145.3l1-1.3L132,145.3z"/>
<path class="st6" d="M129.4,143.8c-0.1,0.7-0.8,1.3-1.5,1.3L129.4,143.8z"/>
<path class="st8" d="M432.9,140.4l0.9,1.1L432.9,140.4z"/>
<path class="st9" d="M454.2,127.2c-0.4-0.3-0.7-0.6-1-0.9C453.5,126.6,453.8,126.9,454.2,127.2z"/>
<path class="st6" d="M130.5,142.5l-1.2,1.3L130.5,142.5z"/>
<path class="st4" d="M430.8,495.4l1.8-0.8L430.8,495.4z"/>
<path class="st8" d="M436.6,140.2c-0.7,0-1.3-0.5-1.4-1.3L436.6,140.2z"/>
<path class="st6" d="M131.8,141.4l-1.4,1.2L131.8,141.4z"/>
<path class="st8" d="M435.2,139l-1.4-1.2L435.2,139z"/>
<path class="st9" d="M455.4,128.4l-1.1-1.1L455.4,128.4z"/>
<path class="st6" d="M127.1,151.4l1-1.3L127.1,151.4z"/>
<path class="st8" d="M432.5,137.9c0,0.5,0,1.1-0.1,1.6C431.5,138.9,431.1,138.4,432.5,137.9z"/>
<path class="st8" d="M433.9,137.9h-1.5l0.6-0.8L433.9,137.9z"/>
<path class="st5" d="M462.7,375.6h-1l1.2-1.2L462.7,375.6z"/>
<path class="st5" d="M88.3,428.9h1.2l-0.6,0.6L88.3,428.9z"/>
<path class="st5" d="M470.1,428.9h1.2C470.9,429.6,470.5,429.6,470.1,428.9z"/>
<path class="st9" d="M452,129.5l1.1,1.4L452,129.5z"/>
<path class="st5" d="M473.8,428.9h1.2l-0.6,0.6L473.8,428.9z"/>
<path class="st9" d="M451,128.3l0.9,1.2L451,128.3z"/>
<path class="st6" d="M129.7,147.9l1.2-1.4L129.7,147.9z"/>
<path class="st10" d="M402.6,488.2c-1.5,0.1-3.1,0.5-3.8-1.5L402.6,488.2z"/>
<path class="st10" d="M168.1,486.8c-0.7,2-2.3,1.5-3.8,1.5L168.1,486.8z"/>
<path class="st0" d="M506.8,321.1c1.4,2.3,3.1,4.1,6.2,3.8c-1.5,11.6-4.8,22.8-8.5,33.8c-0.7,2.3-2.2,4.4-1.5,7
	c-4.1,1.1-5.9-1.6-7.4-4.7c4.7-4.6,4.9-11.1,6.6-16.9C504.5,336.6,506.9,329,506.8,321.1z"/>
<path class="st11" d="M507.7,364.6c-1,1.6-2.6,1.3-4.1,1.1C504.8,364.8,506.2,364.4,507.7,364.6z"/>
<path class="st0" d="M54,324.8c3,0.3,4.7-1.5,6.2-3.7c0.9,13.6,5,26.3,9.7,38.9c0.2,0.4,1,0.6,1.4,0.9c-1.3,3.4-3,6.2-7.4,4.7
	c-0.4-6.9-3.9-13-5.4-19.6C56.9,339,54.8,332,54,324.8z"/>
<path class="st11" d="M63.3,365.7c-1.5,0.1-3.1,0.5-4.1-1.1C60.7,364.4,62.2,364.8,63.3,365.7z"/>
<path class="st12" d="M281.2,60.2c-1.4-3.3-0.8-6.2-0.6-9.4c3.5-1.8,6.9-0.5,10-0.1c2.5,2.1,3,4.4,1.5,6.6
	C289.2,61.6,285,60,281.2,60.2z"/>
<g class="st13">
	<path class="st1" d="M164.1,100.6l-23.2-10.7l6.8-4.5l15.7,7.7l-0.6-17.6l6-3.9l0.4,25.4l9.7,14.9l-5.1,3.4L164.1,100.6z"/>
</g>
<g class="st13">
	<path class="st1" d="M184.5,45.8l5-2.2l-1.6,14.7l-3,1.3L184.5,45.8z M187.1,63.2l5.4-2.3l29.3,30l-6.3,2.7l-6.3-6.6L194,93.5
		l0.6,9.1L189,105L187.1,63.2z M204,81.5l-11.5-12.4l1,16.9L204,81.5z"/>
</g>
<g class="st13">
	<path class="st1" d="M219.1,56c0-1.2,0.1-2.2,0.5-3c0.4-0.8,0.9-1.4,1.7-1.8c0.7-0.4,1.7-0.8,2.9-1l18.8-4c1.2-0.3,2.2-0.3,3.1-0.2
		c0.9,0.1,1.6,0.4,2.3,1c0.6,0.6,1.2,1.4,1.7,2.6c0.5,1.1,0.9,2.6,1.3,4.4l4.3,20.2c0.4,1.8,0.6,3.3,0.6,4.5c0,1.2-0.1,2.2-0.5,3
		c-0.4,0.8-0.9,1.4-1.7,1.8c-0.8,0.4-1.7,0.8-2.9,1l-18.8,4c-1.2,0.3-2.2,0.3-3.1,0.2c-0.9-0.1-1.6-0.4-2.3-1
		c-0.6-0.6-1.2-1.4-1.7-2.6c-0.5-1.1-0.9-2.6-1.3-4.4l-4.3-20.2C219.4,58.7,219.1,57.2,219.1,56z M250,77.1l-5.2-24.3L225.2,57
		l5.2,24.3L250,77.1z"/>
</g>
<g class="st13">
	<path class="st1" d="M265.9,43.3l26.4-0.7l0.2,6.8L272.1,50l0.3,10.3l11-0.3l0.2,7.1l-11,0.3l0.4,14.9l-6.1,0.2L265.9,43.3z"/>
</g>
<g class="st13">
	<path class="st1" d="M313,45l5.8,0.9l9.1,40.9l-6.8-1l-1.8-8.9l-16.4-2.4l-4.3,8l-6-0.9L313,45z M317.8,69.5l-3.2-16.6l-8.1,14.9
		L317.8,69.5z M320,28.8l5.4,0.8l-9.1,11.6l-3.2-0.5L320,28.8z"/>
</g>
<g class="st13">
	<path class="st1" d="M345.8,51.4l3.9,1.4l9.5,27.9c0.3,0.8,0.5,1.6,0.8,2.4c0.2,0.8,0.4,1.7,0.6,2.6c0.5-1.5,0.9-2.9,1.2-4
		c0.3-1.1,0.6-1.9,0.8-2.5l7-19.4l5.1,1.8l-13.2,36.9l-3.9-1.4l-9.9-29.3c-0.2-0.6-0.3-1.2-0.5-1.8c-0.2-0.6-0.3-1.2-0.5-1.9
		c-0.4,1.5-0.8,2.7-1.1,3.7s-0.6,1.7-0.8,2.3l-7.2,19.9l-5.1-1.8L345.8,51.4z"/>
</g>
<g class="st13">
	<path class="st1" d="M391.8,78.3l-13,21.2l16.2,9.9l4.6-7.4l-8.5-5.2l3.5-5.7l13.5,8.3l-7.1,11.5c-1,1.6-1.8,2.8-2.7,3.7
		c-0.8,0.9-1.6,1.5-2.4,1.9c-0.8,0.3-1.6,0.4-2.5,0.2c-0.8-0.2-1.8-0.6-2.8-1.2l-15.4-9.4c-1-0.6-1.8-1.3-2.4-2
		c-0.6-0.7-0.9-1.4-0.9-2.3c-0.1-0.8,0.1-1.8,0.6-3s1.1-2.5,2.1-4.1l10.8-17.6c1-1.6,1.8-2.8,2.7-3.7s1.6-1.5,2.4-1.9
		c0.8-0.3,1.6-0.4,2.5-0.2c0.8,0.2,1.8,0.6,2.8,1.2l15.4,9.4c1,0.6,1.8,1.2,2.4,1.9c0.6,0.6,0.9,1.4,1,2.2c0.1,0.8-0.1,1.8-0.5,2.9
		c-0.4,1.1-1.1,2.4-2,3.9l-0.5,0.8l-5.9-1.7l2.3-3.8L391.8,78.3z"/>
</g>
<polygon class="st1" points="397.8,187.3 283.5,376.2 274.3,361 375.4,187.3 283.5,187.3 128.5,187.3 171.7,262.1 217.6,262.1 
	197.4,226.6 307.2,226.6 244.3,337.7 215.4,337.7 283.5,455.6 360.9,321.5 438.4,187.3 "/>
<g class="st13">
	<path class="st2" d="M283.7,529.1l-1.5,3.7l-10.6-0.8c-4.1-0.3-6.8-0.6-8.3-0.8c-1.5-0.2-3-0.5-4.6-1.1c-1.6-0.6-3-1.3-4.3-2.3
		c-1.3-0.9-2.3-2.1-3.1-3.3c-1.4,1.8-3.2,3.8-5.5,5.9l-2.9-3c2.6-2.1,4.7-4.3,6.5-6.7l1.1-13.8l-5.2-0.4l0.3-3.9l9.1,0.7l-1.4,17.8
		c2,3.9,5.8,6.1,11.5,6.6C273.8,528.4,280.1,528.9,283.7,529.1z M256.2,498.2l-3.3,2.2c-1.7-3-3.7-5.7-5.9-8l3.2-2.2
		C252.9,493,254.9,495.6,256.2,498.2z M283.9,517.7l-11.9-1l-0.4,5.4l6.3,0.5l0.3-3.8l3.8,0.3l-0.6,7.1l-24.1-2l0.6-7.1l3.9,0.3
		l-0.3,3.8l6.2,0.5l0.4-5.4l-12.1-1l0.3-3.6l12.1,1l0.2-3l-5.7-0.5c-1.5,1-2.7,1.7-3.7,2.1l-2.4-2.9c3.1-1.5,5.9-3.5,8.4-6.1l3,2.1
		c-0.3,0.3-0.8,0.8-1.4,1.5l16.4,1.3l-0.3,3.5l-10.4-0.8l-0.2,3l11.9,1L283.9,517.7z M284,496.2c-4.2,0.9-12.7,1.1-25.4,0.4l-1-3.8
		c9.3,1,17.6,1,24.8,0L284,496.2z M264,502.9l-3.7,1.2c-0.6-1.9-1.4-3.8-2.4-5.6l3.7-1.1C262.6,499,263.4,500.8,264,502.9z
		 M273.2,504.3l-3.8,0.7c-0.4-2.2-1-4.3-1.9-6.2l3.8-0.8C272.3,500.4,272.9,502.5,273.2,504.3z M284.8,499.3
		c-1.2,2.3-2.6,4.4-4.4,6.3l-3.4-1.8c2-2.2,3.5-4.2,4.5-6.1L284.8,499.3z"/>
</g>
<g class="st13">
	<path class="st2" d="M297.9,506.3c3.3,3,5.1,6.2,5.4,9.5c0.4,4.1-1.5,6.4-5.7,6.8c-0.8,0.1-1.6,0.1-2.4,0.1l-1.6-3.7
		c0.9,0,1.9-0.1,2.9-0.2c1.4-0.1,2.3-0.4,2.5-0.7c0.3-0.3,0.4-0.9,0.3-1.8c-0.3-3.2-2.3-6.1-6-8.7c1-3.1,2-6.6,2.8-10.6l-5.6,0.6
		l3.6,34.8l-4,0.4l-4-38.7l13.6-1.4l0.4,3.9C299.6,499.5,298.9,502.7,297.9,506.3z M325.3,499.2l-13.9,1.4l0.4,5.9l12.3-1.3
		c0.5,3.7,0.8,8,1,12.8c0.2,4.8,0.1,7.7-0.3,8.5c-0.4,0.8-1,1.5-1.6,2.1c-0.7,0.5-2.4,0.9-5.1,1.2c-0.8,0.1-1.7,0.2-2.7,0.2l-2-3.9
		c1.5-0.1,2.9-0.2,4.1-0.3c1.7-0.2,2.7-0.4,3-0.5s0.5-0.5,0.6-0.9c0.1-0.4,0.2-2.1,0.1-5.2c-0.1-3-0.3-6.3-0.6-9.8l-8.4,0.9
		c0.2,8.5-2.6,15.7-8.3,21.4l-3.2-2.5c2-2.1,3.6-4.4,5-7.1c1.3-2.6,2.1-5.4,2.4-8.4s0-7.2-0.7-12.8l-5.8,0.6l-0.4-3.8l9.8-1
		c-0.7-1.4-1.8-2.9-3.3-4.6l3.8-1.9c1.7,2.3,3,4.3,3.8,6l9.7-1L325.3,499.2z"/>
</g>
</svg>
