<svg enable-background="new 0 0 113.4 113.5" viewBox="0 0 113.4 113.5" xmlns="http://www.w3.org/2000/svg"><path d="m56.7 113.5c-31.3.1-56.9-25.7-56.7-57.2.2-30.9 25.6-56.4 56.8-56.3s56.7 25.6 56.6 56.8c-.2 32.1-26.1 56.8-56.7 56.7zm15.9-60.6c-.1.3-.1.5-.4.6-.1-.1-.1-.2-.2-.3v-.1l-.1-.1c-5.3-11-12.8-20.4-21.7-29 1.6-.2 3-.4 4.4-.6 0-2.5 0-4.9 0-7.3-11.6.8-21.4 5.4-29 14.2-8.3 9.6-11.5 20.9-9.5 33.5 3.2 20.5 21.4 34 38.5 34.2 0-2.4 0-4.7 0-7.1-1-.6-2.1-.1-3.1-.7 2.1-3.1 4.5-5.9 7-8.6 3.7-4.1 7.4-8.2 11.4-12 1 4.1 1.1 8.3.7 12.5-.2 1.9-.8 3.8-.7 5.9-3.5 1.6-7.1 2.3-10.8 2.7v7.4c11.2-.9 20.6-5.4 28-13.7 7.5-8.3 10.8-18.2 10.4-29.3-.5-16.8-13.6-37.2-38.4-39.1v7.3c.2.1.4.2.7.4h.2c0 .9.5 1.5 1 2.2 5.9 7.7 9.5 16.4 11.3 25.9-.1.3-.1.6.2.8.1 0 .1.2.1.3z" fill="#040405"/><path d="m51.6 90c .9.6 2.1.1 3.1.7v7.1c-17.1-.3-35.3-13.7-38.5-34.2-2-12.6 1.2-23.8 9.5-33.5 7.6-8.8 17.3-13.4 29-14.2v7.3c-1.4.2-2.8.4-4.4.6 8.8 8.8 16.3 18.2 21.6 29.2v.1h.1c.1.1.1.2.2.3.2.6.4 1.3.9 1.8.2.4.3.9.5 1.3 2.8 6.7 4.4 13.7 4.4 20.9v5.4c.5-.5 1.1-1.2 1.7-1.7 2.9-2.6 5.2-5.6 6.9-9 1.8-3.6 3-7.5 3.4-11.6.4-3.9.2-7.7-.7-11.5-1-4.5-3-8.7-5.8-12.4-2-2.6-4.2-5-6.9-6.7-1.9-1.6-4-2.8-6.3-3.6 0-.1-.1-.3-.3-.2-.4-.4-1-.5-1.6-.7-2.7-.9-5.5-1.9-8.4-1.8-.1 0-.2 0-.2 0-.3-.1-.5-.3-.7-.4 0-2.5 0-4.9 0-7.3 24.8 1.9 37.9 22.3 38.5 38.9.4 11.1-3 21-10.4 29.3s-16.9 12.8-28 13.7c0-2.4 0-4.8 0-7.4 3.7-.4 7.4-1.2 10.8-2.7-.1-2 .6-3.9.7-5.9.4-4.2.3-8.4-.7-12.5-.6-3.5-1.7-7-3.2-10.2-.5-1.8-1.4-3.4-2.4-5-.1-.4-.2-.7-.6-.9-.1 0-.3 0-.4 0-8.5 2.4-16.4 5.9-23.3 11.5-4.3 3.4-7.8 7.5-10 12.7 1.1 1.7 2.7 2.9 4 4.4.5.5.8 1.2 1.6 1.3 2.5 2.3 5.5 3.9 8.7 5.1 2.4.9 4.7 1.8 7.2 1.8zm-26.2-45c-1.6 3.2-2 6.7-2.3 10.2-.2 2.6.1 5.2.5 7.8.4 2.5 1.2 4.8 2.2 7.2 1.1-1.4 2-2.8 3-4.1 5.3-6.6 12.1-11.2 19.6-14.8 2.1-1 4.2-1.9 6.4-2.9 1.8-.6 3.5-1.1 5.5-1.7-1.2-1.6-2.2-3.1-3.3-4.6-4-5.3-8.4-10.1-13.3-14.6-.6-.6-1.2-1.2-2.2-.6-5.7 3.1-10.3 7.3-13.7 12.9-1.1 1.6-2.1 3.3-2.4 5.2z" fill="#fefdfd"/><path d="m66.8 59.1c1.5 3.3 2.6 6.7 3.2 10.2-4 3.8-7.7 7.9-11.4 12-2.5 2.8-4.9 5.6-7 8.6-2.5 0-4.8-.9-7.1-1.8.2-.3.3-.7.5-1 2.3-3.7 5.1-7 8-10.2 2.4-2.7 4.9-5.4 7.4-8.1.2 0 .4-.1.3-.4-.2 0-.3.1-.4.3-.4.1-.8.2-1.2.4-8.3 3.8-16 8.6-23.4 14-.8-.1-1.1-.8-1.6-1.3-1.4-1.4-3-2.6-4-4.4 2.2-5.2 5.7-9.3 10-12.7 6.9-5.5 14.8-9.1 23.3-11.5h.4c.4.1.5.5.6.9-3.9 2.8-7.7 5.7-11.3 8.8-.1.1-.2.2-.2.3-.5.4-1 .9-1.5 1.3-.5.2-.9.4-1 1 .6-.1 1-.3 1.3-.6 4.8-2.5 9.8-4.6 15.1-5.8z" fill="#dd2c2a"/><path d="m60.1 23.7c2.9 0 5.7.9 8.4 1.8.5.2 1.1.3 1.6.7.1.1.1.2.3.2-.1.4.3.7.5 1 3 5 5.2 10.3 6.9 15.9 2.6 8.6 3.6 17.4 3.7 26.3v1.4c.2-.6.4-1 .3-1.5 1.5-6.7 1.2-13.4.2-20.1s-2.9-13.1-5.3-19.4c2.8 1.8 4.9 4.2 6.9 6.7 2.8 3.7 4.8 7.8 5.8 12.4.9 3.8 1.1 7.6.7 11.5-.5 4.1-1.6 8-3.4 11.6-1.7 3.4-4 6.5-6.9 9-.6.6-1.2 1.2-1.7 1.7 0-1.8 0-3.6 0-5.4 0-7.3-1.7-14.2-4.4-20.9-.2-.4-.3-.9-.5-1.3 0-.8-.1-1.6-.5-2.4 0-.2 0-.3-.1-.5.1-.3 0-.6-.2-.8-1.9-9.5-5.4-18.2-11.3-25.9-.6-.5-1-1.2-1-2z" fill="#dd2c2a"/><path d="m72.6 52.9c.4.8.4 1.6.5 2.4-.5-.5-.7-1.2-.9-1.8.3-.1.4-.3.4-.6z" fill="#702c23"/><path d="m72.4 51.7c.2.2.3.5.2.8-.3-.2-.3-.5-.2-.8z" fill="#702c23"/><path d="m72 53.2-.1-.1v-.1l.1.1z" fill="#702c23"/><path d="m25.4 45c .4-1.9 1.4-3.6 2.4-5.2 3.3-5.6 8-9.8 13.7-12.9 1-.6 1.6 0 2.2.6 4.9 4.5 9.3 9.3 13.3 14.6 1.1 1.5 2.1 2.9 3.3 4.6-2 .6-3.7 1.2-5.5 1.7-.6-.2-1.2-.3-1.8-.5-9.2-2.2-18.3-3.7-27.6-2.9z" fill="#f2c426"/><g fill="#040405"><path d="m25.4 45c9.4-.8 18.5.7 27.5 3 .6.2 1.2.3 1.8.5-2.1 1-4.3 1.9-6.4 2.9-7.5 3.6-14.3 8.2-19.6 14.8-1 1.3-2 2.6-3 4.1-.9-2.4-1.8-4.8-2.2-7.2-.4-2.6-.7-5.2-.5-7.8.3-3.6.8-7.1 2.4-10.3z"/><path d="m60.4 68.8c-2.5 2.7-4.9 5.4-7.4 8.1-2.9 3.2-5.7 6.5-8 10.2-.2.3-.4.7-.5 1-3.2-1.2-6.2-2.7-8.7-5.1 7.4-5.3 15-10.2 23.4-14 .3 0 .7-.1 1.2-.2z"/><path d="m76.6 30c2.4 6.3 4.3 12.7 5.3 19.4s1.3 13.4-.2 20.1c-.1 0-.2 0-.3 0-.1-8.9-1.2-17.7-3.7-26.3-1.7-5.6-3.9-10.9-6.9-15.9-.2-.3-.5-.6-.5-1 2.3.9 4.4 2.2 6.3 3.7z"/><path d="m66.8 59.1c-5.3 1.2-10.2 3.3-15.1 5.7-.1-.1-.2-.3-.4-.4.5-.4 1-.9 1.5-1.3.2 0 .3-.1.3-.3 3.6-3.1 7.4-6 11.3-8.8 1 1.7 1.8 3.3 2.4 5.1z"/><path d="m70.3 26.4c-.2 0-.2-.1-.3-.2.2 0 .3.1.3.2z"/></g><path d="m51.3 64.4c.1.1.2.3.4.4-.3.3-.7.5-1.3.6.1-.5.5-.8.9-1z" fill="#702c23"/><path d="m60.3 68.8c0-.2.1-.3.4-.3.1.3-.1.3-.4.3z" fill="#702c23"/><path d="m53.1 62.9c0 .2-.1.3-.3.3z" fill="#702c23"/><path d="m81.3 69.6h.3c.1.5-.1.9-.3 1.5 0-.7 0-1.1 0-1.5z" fill="#702c23"/></svg>