<svg enable-background="new 0 0 113.4 113.4" viewBox="0 0 113.4 113.4" xmlns="http://www.w3.org/2000/svg"><path d="m113.4 56.8c0 31.3-25.4 56.7-56.8 56.6-31.3 0-56.6-25.4-56.6-56.7s25.4-56.7 56.8-56.7c31.2.1 56.6 25.5 56.6 56.8zm-1.3 0c0-30.6-24.8-55.4-55.3-55.5-30.7 0-55.5 24.8-55.6 55.3 0 30.6 24.8 55.5 55.4 55.5 30.6.1 55.5-24.7 55.5-55.3z" fill="#e84439"/><path d="m112.1 56.8c0 30.6-24.9 55.4-55.5 55.4s-55.4-24.9-55.4-55.5 24.9-55.4 55.6-55.3c30.5 0 55.3 24.8 55.3 55.4zm-70.6-41.1c-1.7-1-3-2.6-4.6-3.7-.4.2-.8.4-1.3.6 1 2.4 1.9 4.7 2.8 7 .4-.1.8-.1.9-.5-.4-1.7-1.5-3.3-1.8-5.1l.1-.1c1.7 1.3 3.3 2.7 5 4 .4-.2.7-.3 1.1-.5-1-2.4-1.9-4.7-2.9-7.2-.3.4-.7.3-.8.6.2 1.9 1.3 3.3 1.5 4.9zm17.4 78.4c17.4-.6 36.1-15.7 35.3-39.1-.4-10.6-4.8-19.5-12.8-26.6-6.4-5.6-13.9-8.7-22.4-9.2-.8 1.8-1.5 3.5-2.3 5.4-.8-1.9-1.5-3.6-2.2-5.3-15.9.2-35.3 13.8-35.5 37.2-.2 22.4 17.9 37.1 35.5 37.7.7-1.6 1.4-3.3 2.3-5.2.7 1.9 1.4 3.5 2.1 5.1zm-23.1 5c-2.6.7-5.1 1.4-7.9 2.2 10.7 6.5 22 9.4 34.1 8.2 8.3-.9 15.9-3.6 23.2-8.2-2.8-.8-5.3-1.5-7.8-2.2.7-2.7 1.3-5.2 2-7.7-15.3 9-30.4 9-45.7 0 .8 2.5 1.4 5 2.1 7.7zm-22.1-11.4c3.5 5 7.5 8.9 12.2 12.2.3.2.6.3.9.2 2-.5 4-1 6-1.6-.2-.2-.2-.3-.3-.4-4.5-2.7-8.5-6-12-9.9-.3-.3-.5-.5-.9-.5-1.8 0-3.7 0-5.9 0zm85.9 0c-2 0-3.7 0-5.4 0-.8 0-1.3.3-1.8.8-3.2 3.7-6.9 6.7-11.1 9.3-.3.2-.7.3-.9.8l5.7 1.5c.6.2 1-.1 1.5-.4 2.3-1.7 4.6-3.5 6.6-5.6 2-1.9 3.8-4 5.4-6.4zm-7.6-9.1c-.1 0-.1-.1-.2-.1-.1.1-.1.2-.2.3-2.6 4-5.8 7.5-9.6 10.5-.3.2-.6.4-.7.7-.7 2.4-1.3 4.7-2.1 7.5 5.1-2.8 9.1-6.2 12.7-10.3.1-2.9.1-5.7.1-8.6zm-58.1 18.5c-.5-2-1.1-4-1.6-6.1-.2-.8-.6-1.4-1.2-1.9-3.5-2.8-6.6-6.1-9.1-9.9-.2-.2-.2-.7-.6-.6v8.6c3.5 4.1 7.6 7.5 12.5 9.9zm-14.9-10.8c-2.7-3.5-4.8-7.1-6.5-11-1.9-.5-3.8-1-6-1.6 1.6 4.7 3.6 8.8 6.2 12.6zm87.8-12.7c-2.2.6-4.1 1.1-6 1.6-1.7 4-3.8 7.5-6.4 11h6.2c2.6-3.8 4.6-7.9 6.2-12.6zm-13.4 11.4c2.5-2.8 4.3-5.9 5.8-9.3.1-.3.2-.6.1-1-.8-2.8-1.5-5.6-2.3-8.6-.2.2-.3.4-.3.5-.7 2.9-1.7 5.7-3 8.4-.1.3-.3.5-.3.8zm-77.2-18.7c-.8 2.9-1.6 5.8-2.4 8.8 1.5 3.5 3.4 6.9 6.1 10.2 0-3.3 0-6.3 0-9.3 0-.2 0-.4-.1-.6-1.4-2.9-2.6-5.9-3.6-9.1zm3.3-44.8c-.2-.1-.4-.2-.6-.3-7.8 7.4-12.5 16.5-14.4 27 .8 1.1 1.3 1.6 2.1 2.1 1.3-11 5.8-20.5 12.9-28.8zm89.3 27c-.8-8.9-10.7-27.1-15-27.1 7.3 8.4 11.7 17.9 13 29 .7-.7 1.3-1.3 2-1.9zm-17.8-24c-.2.5.2.8.4 1 6.1 7.3 9.9 15.7 11 25.2.1 1.1.6 1.8 1.5 2.4.4-.3.8-.6 1-1 0-8.3-8.9-26.3-13.9-27.6zm-81.6 28.7c.9-.7 1.4-1.4 1.5-2.5 1.1-9.4 4.8-17.8 10.9-25.1.3-.3.8-.6.5-1.1-5.3 1.8-14.5 20.4-13.8 27.9.3.2.6.5.9.8zm100 8.6c-1.7 1-3.2 1.9-4.7 2.7-.7.4-1 .9-1.1 1.6-.2 1.3-.6 2.5-.9 3.7s-.7 2.4-1.1 3.8c2.1-.6 3.9-1 5.7-1.5 1.1-3.3 1.7-6.7 2.1-10.3zm-105.5-.1c.4 3.7 1 7.1 2.1 10.3 1.9.5 3.7 1 5.8 1.5-1-2.9-1.8-5.5-2.3-8.2 0-.2-.2-.5-.4-.6-1.6-.9-3.3-1.8-5.2-3zm100.2 1.5c2-1.1 3.7-2.2 5.5-3.2 0-3.3.2-6.5-.4-9.7-1.6 1.6-3.1 3-4.7 4.6.1 2.7-.1 5.4-.4 8.3zm-100-12.8c-.5 3.1-.4 6.3-.4 9.6 1.8 1 3.5 2 5.5 3.2-.3-3-.5-5.7-.4-8.2-1.6-1.6-3.1-3.1-4.7-4.6zm9.7-1.5c1.1-1.2 2.5-1.9 2.9-3.4 1.6-6.6 4.8-12.4 9-17.6.2-.3.7-.5.4-1-5 2.4-12.8 16.4-12.3 22zm73.4-22.1v.5c.2.3.4.6.7.9 4 5 7.1 10.5 8.6 16.7.4 1.8 1.9 2.7 3.1 4 .5-5.5-7.3-19.4-12.4-22.1zm-72 30.3c-1.4 2.4-2.8 4.8-4.2 7.2-.1.2-.2.5-.1.7.4 2.6 1.1 5.1 2.1 7.6 1.3-5.1 3.7-10 2.2-15.5zm85.1 15.5c.8-1.7 1.2-3.5 1.7-5.2.6-1.8.4-3.3-.7-4.9-1.2-1.7-2.2-3.6-3.2-5.4-1.5 5.5.9 10.4 2.2 15.5zm2.5-10.1c.5-2.9.4-5.4.3-7.4-2.2-2.2-4-4.2-6-6.1.3 1.8.2 3.6.9 5.1 1.4 2.7 3.1 5.4 4.8 8.4zm-92.3-.3c3.4-4.2 5.7-9.9 5.5-13.3-1.9 1.9-3.8 3.8-5.8 5.8-.1 2.5-.2 4.9.3 7.5zm67.1-47.3c.1 0 .1 0 .2.1v6.4c.2.2.5.5 1 .4 1.2-2.1 2.3-4.3 3.5-6.4-.2-.4-.5-.6-.9-.5-.8 1.4-1.6 2.9-2.6 4.5 0-2.2 0-4.1 0-6.1-.4-.2-.7-.5-1.3-.6-1.2 2.1-2.4 4.3-3.5 6.4.2.4.5.5.9.6.9-1.6 1.8-3.2 2.7-4.8zm-21.3-.6c-1.5.7-2.5.6-3.3-.3-.9-1-1.1-3.1-.3-4.2 1.3-1.8 2.9-.9 4.4-.3.1-.5.1-.8 0-1.2-2-1-4.1-.7-5.2.7-1.1 1.5-1.1 4.3.2 5.7 1.2 1.4 3.3 1.4 5.4.2 0-1.1.1-2.2-.2-3.3-.9-.1-1.8 0-2.7.1-.1.3-.2.6 0 .9.5.2 1.1-.2 1.6.2 0 .5 0 1 .1 1.5zm-7.2-4.2c.1-.6.1-1-.4-1.3-2.7-.4-4.3.3-5 2s0 4.2 1.4 5.3c1.4 1 3.5.7 5.3-.9-.2-1-.5-2.1-.7-3.2-.9.2-1.7.4-2.5.6-.1 0-.1.1-.2.2 0 .3 0 .6.3.7.4 0 .9-.1 1.4-.1.3.5.3 1.1.4 1.6-1.4.9-2.5.9-3.4 0s-1.3-3-.7-4c .7-1.2 1.9-1.5 4.1-.9zm39.8 10.5c-1.2-2.3-3-3.4-4.9-2.7-1.9.6-3.3 2.9-3.1 4.8.2 1.6 2.1 3.1 4 3.1.5-.9 1.4-1.5 1.8-2.6-.8-.6-1.4-1.2-2.2-1.6-.2.3-.5.4-.4.8.3.3.7.6 1.1 1-.4.5-.8 1-1.2 1.4-1.3-.6-2.3-1.3-2.2-2.8.1-1.4 1.6-3 2.8-3.1 1.9-.2 2.5 1.3 3.2 2.7.7-.3.9-.6 1.1-1zm-25-12.1c-.2 1.7-.4 3.4-.7 5.1-.1 1.1-.8 1.6-1.9 1.4-1-.1-1.4-.8-1.3-2 .2-1.5.4-3 .5-4.5 0-.1 0-.2-.1-.3-.3-.2-.6-.3-1-.1-.2 1.9-.6 3.7-.6 5.6 0 1.4.9 2.2 2.3 2.4 1.6.2 2.7-.3 3-1.7.5-1.9.6-3.8.7-5.7-.2-.3-.5-.4-.9-.2zm-33.3 7c .6 2.7 1.2 5.2 1.7 7.7.4-.1.8-.2 1-.6.1-.7-.5-1.4-.2-2.1.7-.4 1.4-.9 2.2-1.3.6.5 1.1.9 1.6 1.3.4-.1.8-.2.9-.7-2-1.7-4-3.3-6-5-.4.2-.8.4-1.2.7zm-1.8 10.8c.3-.3.7-.4.7-.8-.2-.3-.5-.6-.8-.9-.3-.4-.7-.6-.7-1.1.4-.5.9-.9 1.3-1.4.7-1 .6-2.3-.3-3.2-.8-.8-1.9-.9-2.9-.2-.8.5-1.5 1-2.1 1.7 1.6 2 3.2 3.9 4.8 5.9zm38-10.6c.6-2.1 1.1-4.2 1.6-6.2-.4-.3-.6-.4-1.1-.3-.6 2.4-1.3 4.8-2 7.3 1.5.5 2.9.9 4.3 1.1.2-.4.3-.6.1-1-.9-.3-1.8-.6-2.9-.9zm6.2-5c-1 .8.1.9.3 1.3-.7 1.8-1.4 3.5-2 5.1-.6-.2-1.2-.2-1.1.7.9.3 1.7.7 2.5 1 .8-.8 0-.9-.4-1.2.7-1.8 1.4-3.5 2.1-5.3.6.4 1.1.4 1.1-.6-.8-.4-1.6-.7-2.5-1z" fill="#fffbfa"/><path d="m58.9 94.1c-.7-1.6-1.4-3.2-2.2-5.1-.8 1.9-1.5 3.5-2.3 5.2-17.5-.6-35.6-15.4-35.5-37.8.2-23.4 19.6-37 35.5-37.2.7 1.6 1.4 3.3 2.2 5.3.8-1.9 1.5-3.6 2.3-5.4 8.5.5 16 3.6 22.4 9.2 8 7 12.4 16 12.8 26.6.9 23.5-17.8 38.7-35.2 39.2zm27.2-42.2c-1.7-13-13.9-26.1-31.2-25.2-8 .4-14.8 3.6-20.3 9.5-4.2 4.4-6.7 9.6-7.7 15.7zm-59.1 9.6c1.5 12.2 13 25.7 30.5 25.2 8.3-.2 15.4-3.5 21-9.6 4.1-4.4 6.6-9.6 7.6-15.6-19.8 0-39.4 0-59.1 0z" fill="#e52a1f"/><g fill="#e84439"><path d="m35.8 99.1c-.7-2.7-1.3-5.2-2-7.7 15.2 9 30.4 9 45.7 0-.7 2.6-1.3 5-2 7.7 2.5.7 5 1.4 7.8 2.2-7.3 4.6-15 7.3-23.2 8.2-12.2 1.3-23.4-1.6-34.1-8.2 2.7-.8 5.2-1.5 7.8-2.2zm13.9.5c.1.9-.1 1.6-.3 2.3-1.2 0-2.4-.5-3.6-.3-.1.5-.3.9.1 1.3 1 .2 2.1.3 3.3.5-.2 1.2-.3 2.3-.5 3.3-1.6.1-3-.6-4.4-.3-.3.4-.3.8.1 1.3 3.3.4 6.6.9 9.9 1.3.5-.4.6-.8.4-1.3-1.4-.5-3-.4-4.5-.8.1-1.2.2-2.2.4-3.3.4 0 .7-.1.8 0 0 1.6 1.2 2.4 1.6 3.5.6 0 1-.2 1.2-.6-.2-1-.9-1.7-1.2-2.5.5-.2 1.1.1 1.5-.3.1-.3.2-.6-.1-1.1-1.1-.2-2.3-.4-3.6-.6.1-.8.2-1.6.4-2.4 1.4.2 2.7.3 3.9.5.5-.5.6-.9.1-1.4-3-.4-6.1-.8-9.1-1.2-.4.5-.6.9-.1 1.4 1.2.3 2.5.5 3.7.7zm12.1 5.5c1.3.4.7 1.5.9 2.2-.5.3-1 .1-1.3.6-.1.4.1.8.6 1 .6 0 1.3-.1 1.9-.4.9-1.2-.3-2.6.3-3.9.5.3.1.9.5 1.1 1.2.5 2.3 1.3 3.5 1.9.4-.3.8-.5.7-1.2-1-.6-2-1.2-3.1-1.8.5-.1 1 0 1.3-.6-.1-1-.1-2.2-.6-3.5-2.6.4-5.2.6-7.9 1.2.2 1.3.2 2.5.6 3.7h1.4c-.6 1.2-1.7 1.7-2.5 2.5.1.6.5.8.9 1.1 1.2-.9 2.4-1.8 3.1-3.2-.1-.3-.2-.5-.3-.7zm5.4-6.4c-1.4.2-2.8.3-4 .5-.5-.4-.7-.9-1.2-1.1-.9.1-1.1.6-.8 1.4-1.4.3-2.7.2-3.9.7-.2.6-.1.9.4 1.2 3.2-.5 6.6-.8 9.7-1.4.4-.6.3-.9-.2-1.3z"/><path d="m13.7 87.7h5.9c.4 0 .7.2.9.5 3.4 4 7.5 7.2 12 9.9.1.1.2.2.3.4-2.1.5-4 1.1-6 1.6-.3.1-.7 0-.9-.2-4.7-3.3-8.7-7.2-12.2-12.2z"/><path d="m99.6 87.7c-1.7 2.5-3.4 4.5-5.3 6.4-2 2.1-4.3 3.9-6.6 5.6-.5.3-.9.6-1.5.4-1.9-.5-3.8-1-5.7-1.5.1-.5.6-.6.9-.8 4.1-2.6 7.9-5.6 11.1-9.3.5-.6 1.1-.9 1.8-.8z"/><path d="m92 78.6v8.6c-3.6 4.1-7.6 7.5-12.7 10.3.7-2.7 1.4-5.1 2.1-7.5.1-.3.4-.5.7-.7 3.7-3 7-6.5 9.6-10.5.1-.1.1-.2.2-.3-.1 0 0 .1.1.1z"/><path d="m33.9 97.1c-5-2.5-9-5.9-12.6-9.9 0-2.9 0-5.7 0-8.6.5-.1.5.4.6.6 2.5 3.8 5.6 7.1 9.1 9.9.6.5 1 1.1 1.2 1.9.6 2.1 1.2 4.1 1.7 6.1z"/><path d="m19 86.3c-2.2 0-4.2 0-6.3 0-2.6-3.8-4.6-8-6.2-12.6 2.1.6 4 1.1 6 1.6 1.7 3.9 3.8 7.5 6.5 11z"/><path d="m106.8 73.6c-1.6 4.7-3.6 8.8-6.2 12.7-2 0-4 0-6.2 0 2.6-3.5 4.8-7.1 6.4-11 1.9-.6 3.8-1.1 6-1.7z"/><path d="m93.4 85c0-3 0-6.1 0-9.1 0-.3.1-.6.3-.8 1.3-2.7 2.4-5.5 3-8.4 0-.1.2-.3.3-.5.8 2.9 1.6 5.8 2.3 8.6.1.3 0 .6-.1 1-1.4 3.2-3.3 6.3-5.8 9.2z"/><path d="m16.2 66.3c1 3.2 2.1 6.2 3.6 9.1.1.2.1.4.1.6v9.3c-2.7-3.3-4.6-6.7-6.1-10.2.9-3 1.6-5.9 2.4-8.8z"/><path d="m19.5 21.5c-7.2 8.3-11.7 17.8-12.9 28.7-.8-.5-1.4-1-2.1-2.1 2-10.5 6.7-19.6 14.4-27 .2.2.4.3.6.4z"/><path d="m108.8 48.5c-.6.6-1.2 1.2-2 2-1.3-11.1-5.8-20.6-13-29 4.2-.1 14.1 18 15 27z"/><path d="m91 24.5c4.9 1.3 13.9 19.3 13.8 27.7-.2.4-.5.7-1 1-.9-.5-1.4-1.3-1.5-2.4-1.1-9.5-4.8-17.9-11-25.2 0-.3-.5-.6-.3-1.1z"/><path d="m9.4 53.2c-.3-.3-.6-.6-.9-.8-.7-7.5 8.5-26.1 13.8-27.9.3.6-.2.8-.5 1.1-6.1 7.3-9.8 15.7-10.9 25.1-.1 1.1-.6 1.9-1.5 2.5z"/><path d="m109.4 61.8c-.4 3.7-1 7-2.1 10.3-1.9.5-3.7 1-5.7 1.5.4-1.4.8-2.6 1.1-3.8s.7-2.5.9-3.7c.1-.8.4-1.3 1.1-1.6 1.5-.9 3-1.8 4.7-2.7z"/><path d="m3.9 61.7c1.9 1.1 3.6 2.1 5.2 3.1.2.1.4.4.4.6.5 2.7 1.3 5.4 2.3 8.2-2.1-.5-3.9-1-5.8-1.5-1-3.3-1.7-6.7-2.1-10.4z"/><path d="m104.1 63.2c.2-2.9.5-5.6.4-8.3 1.6-1.5 3.1-3 4.7-4.6.6 3.2.4 6.4.4 9.7-1.7 1.1-3.5 2.1-5.5 3.2z"/><path d="m4.1 50.4c1.5 1.5 3.1 3 4.7 4.6-.1 2.6.1 5.2.4 8.2-2-1.1-3.7-2.1-5.5-3.2 0-3.2-.1-6.4.4-9.6z"/><path d="m13.8 48.9c-.5-5.6 7.4-19.6 12.3-22.1.3.5-.1.8-.4 1-4.3 5.2-7.4 11-9 17.6-.4 1.6-1.8 2.4-2.9 3.5z"/><path d="m87.2 26.8c5.1 2.7 13 16.6 12.4 22.1-1.2-1.3-2.6-2.2-3.1-4-1.5-6.3-4.6-11.7-8.6-16.7-.2-.3-.5-.6-.7-.9 0-.1 0-.2 0-.5z"/><path d="m15.2 57.1c1.5 5.5-.9 10.4-2.2 15.5-1.1-2.4-1.7-5-2.1-7.6 0-.2 0-.5.1-.7 1.4-2.4 2.8-4.8 4.2-7.2z"/><path d="m100.3 72.6c-1.3-5.1-3.7-10-2.2-15.5 1 1.8 2 3.7 3.2 5.4 1.1 1.6 1.3 3.1.7 4.9-.5 1.7-.8 3.5-1.7 5.2z"/><path d="m102.8 62.5c-1.7-3-3.5-5.6-4.8-8.5-.7-1.5-.6-3.4-.9-5.1 1.9 2 3.8 3.9 6 6.1.2 2.1.2 4.6-.3 7.5z"/><path d="m10.5 62.2c-.5-2.6-.3-5.1-.3-7.5 2-2 3.9-3.9 5.8-5.8.2 3.4-2.2 9.1-5.5 13.3z"/><path d="m37.5 14.1c.3 1.8 1.4 3.3 1.8 5.1-.2.4-.5.4-.9.5-.9-2.3-1.9-4.6-2.8-7 .5-.2.9-.4 1.3-.6 1.6 1.1 2.9 2.7 4.6 3.7 0 .1.1.1.1.2.1-.1.1-.2-.1-.2-.2-1.7-1.3-3.1-1.7-4.7.1-.4.6-.2.8-.6 1 2.5 2 4.8 2.9 7.2-.4.2-.7.3-1.1.5-1.6-1.5-3.2-2.9-4.9-4.1 0-.1 0-.2-.1-.2-.1.1-.1.2.1.2z"/><path d="m77.6 14.9c-.9 1.6-1.8 3.2-2.7 4.8-.4-.1-.7-.2-.9-.6 1.2-2.1 2.4-4.3 3.5-6.4.6 0 .9.3 1.3.6v6.1c.9-1.6 1.8-3.1 2.6-4.5.4 0 .7.1.9.5-1.2 2.1-2.4 4.3-3.5 6.4-.5 0-.8-.2-1-.4 0-2.2 0-4.3 0-6.4 0-.1-.1-.1-.2-.1z"/><path d="m56.3 14.3c0-.6-.1-1-.1-1.5-.5-.4-1.1 0-1.6-.2-.2-.3-.2-.5 0-.9.9-.2 1.7-.2 2.7-.1.3 1.1.2 2.2.2 3.3-2 1.2-4.2 1.1-5.4-.2-1.2-1.4-1.3-4.2-.2-5.7 1.1-1.4 3.2-1.7 5.2-.7.2.4.1.7 0 1.2-1.5-.7-3.1-1.5-4.4.3-.8 1.1-.6 3.2.3 4.2.8.9 1.8 1 3.3.3z"/><path d="m49.1 10.1c-2.3-.6-3.5-.4-4.2.8-.6 1.1-.2 3.1.7 4 .9.8 2 .8 3.4 0 0-.5-.1-1-.4-1.6-.5 0-1 .1-1.4.1-.4-.2-.3-.5-.3-.7.1-.1.1-.2.2-.2.8-.2 1.6-.4 2.5-.6.3 1.1.5 2.2.7 3.2-1.8 1.5-3.9 1.9-5.3.9-1.4-1.1-2.1-3.6-1.4-5.3s2.3-2.3 5-2c .6.4.6.9.5 1.4z"/><path d="m88.9 20.6c-.2.4-.4.7-.8.9-.7-1.4-1.3-2.9-3.2-2.7-1.2.1-2.7 1.8-2.8 3.1-.2 1.5.9 2.2 2.2 2.8.4-.5.7-.9 1.2-1.4-.4-.4-.8-.7-1.1-1-.1-.4.2-.6.4-.8.8.4 1.4 1.1 2.2 1.6-.4 1.1-1.3 1.7-1.8 2.6-1.9 0-3.8-1.4-4-3.1-.3-1.9 1.2-4.1 3.1-4.8 1.6-.5 3.4.5 4.6 2.8z"/><path d="m63.9 8.5c.4-.1.7 0 1.1.2-.2 1.9-.3 3.8-.7 5.7-.3 1.4-1.4 1.9-3 1.7-1.5-.2-2.3-1-2.3-2.4 0-1.9.4-3.8.6-5.6.4-.1.7 0 1 .1 0 .1.1.2.1.3-.2 1.5-.4 3-.5 4.5-.1 1.2.3 1.9 1.3 2 1.1.1 1.8-.3 1.9-1.4 0-1.7.2-3.4.5-5.1z"/><path d="m30.6 15.5c.4-.2.8-.4 1.2-.7 2 1.7 4 3.3 6 5-.2.5-.5.6-.9.7-.5-.4-1-.8-1.6-1.3-.7.4-1.4.9-2.2 1.3-.3.7.3 1.4.2 2.1-.2.3-.5.5-1 .6-.5-2.5-1.1-5.1-1.7-7.7zm2.1 4c .6-.4 1.1-.7 1.8-1-.8-.7-1.5-1.3-2.5-2.1.2 1.2.4 2.1.7 3.1z"/><path d="m28.8 26.3c-1.6-2-3.2-3.9-4.8-5.9.6-.7 1.3-1.3 2.1-1.7 1.1-.7 2.2-.6 2.9.2.9.9 1 2.1.3 3.2-.4.5-.8.9-1.3 1.4.1.5.5.7.7 1.1.2.3.5.6.8.9 0 .4-.3.5-.7.8zm-1.4-7c-.8.2-1.4.6-1.9 1.2.6.7 1.1 1.4 1.7 2.1.8-.5 1.5-.9 1.4-1.9.1-.8-.5-1.2-1.2-1.4z"/><path d="m66.8 15.7c1.1.3 2 .6 3 .9.2.3.1.6-.1 1-1.4-.2-2.8-.7-4.3-1.1.7-2.5 1.3-4.9 2-7.3.5 0 .7.1 1.1.3-.6 2-1.1 4.1-1.7 6.2z"/><path d="m73 10.7c.8.3 1.7.7 2.5 1 0 .9-.4.9-1.1.6-.7 1.8-1.4 3.6-2.1 5.3.4.3 1.1.5.4 1.2-.8-.3-1.7-.6-2.5-1-.1-.9.5-.8 1.1-.7.7-1.7 1.3-3.4 2-5.1-.1-.4-1.2-.5-.3-1.3z"/></g><path d="m86.1 51.9c-19.7 0-39.4 0-59.2 0 1-6.1 3.6-11.3 7.7-15.7 5.5-5.8 12.3-9.1 20.3-9.5 17.3-.9 29.5 12.2 31.2 25.2zm-25.3-12.5c0-2.4-1.8-4.3-4.2-4.3s-4.3 1.8-4.3 4.2c0 2.3 1.9 4.3 4.2 4.3s4.3-1.9 4.3-4.2z" fill="#fffbfa"/><path d="m27 61.5h59.2c-1 6-3.5 11.2-7.6 15.6-5.7 6.1-12.7 9.3-21 9.6-17.6.5-29.1-13-30.6-25.2zm33.8 12.6c0-2.3-1.9-4.2-4.3-4.2s-4.3 1.9-4.3 4.3 1.9 4.2 4.3 4.2c2.4-.1 4.3-2 4.3-4.3z" fill="#fff"/><path d="m49.7 99.6c-1.2-.2-2.4-.4-3.6-.5-.4-.5-.3-.9.1-1.4 3 .4 6.1.8 9.1 1.2.4.5.4.9-.1 1.4-1.2-.1-2.6-.3-3.9-.5-.1.8-.2 1.5-.4 2.4 1.3.2 2.5.4 3.6.6.3.4.2.8.1 1.1-.5.4-1 .1-1.5.3.3.9 1.1 1.6 1.2 2.5-.2.4-.5.6-1.2.6-.4-1.1-1.5-1.9-1.6-3.5-.1-.1-.4-.1-.8 0-.3 1.1-.4 2.2-.4 3.3 1.5.4 3.1.3 4.5.8.2.5.1.9-.4 1.3-3.2-.4-6.6-.9-9.9-1.3-.4-.5-.3-.8-.1-1.3 1.4-.3 2.8.4 4.4.3.2-1.1.3-2.2.5-3.3-1.2-.2-2.3-.3-3.3-.5-.4-.4-.3-.8-.1-1.3 1.2-.2 2.3.3 3.6.3.1-.9.3-1.7.2-2.5z" fill="#fffbfa"/><path d="m61.8 105.1c.1.2.3.4.4.6-.7 1.5-1.9 2.4-3.1 3.2-.5-.3-.8-.5-.9-1.1.8-.8 1.9-1.4 2.5-2.5-.5 0-.9 0-1.4 0-.4-1.2-.4-2.4-.6-3.7 2.6-.6 5.2-.8 7.9-1.2.5 1.3.5 2.4.6 3.5-.4.6-.9.5-1.3.6 1.1.7 2.1 1.3 3.1 1.8.1.7-.3.9-.7 1.2-1.2-.6-2.3-1.4-3.5-1.9-.4-.2 0-.7-.5-1.1-.5 1.3.6 2.7-.3 3.9-.6.3-1.3.4-1.9.4-.5-.3-.6-.6-.6-1 .3-.6.8-.3 1.3-.6-.4-.6.2-1.7-1-2.1zm-1.2-1.4c1.6-.2 3.2-.4 4.8-.7.1-.4.1-.7-.2-1-1.6.2-3.2.4-4.9.7.1.5 0 .8.3 1z" fill="#fffbfa"/><path d="m67.2 98.7c.4.4.6.7.2 1.3-3.2.6-6.5.9-9.7 1.4-.5-.3-.6-.7-.4-1.2 1.2-.5 2.5-.4 3.9-.7-.3-.7-.1-1.3.8-1.4.5.2.7.7 1.2 1.1 1.3-.2 2.7-.4 4-.5z" fill="#fffbfa"/><path d="m41.5 15.8c.2-.1.2 0 .1.2 0-.1-.1-.2-.1-.2z" fill="#fffbfa"/><path d="m37.5 14.1c-.2 0-.2-.1-.1-.2 0 0 .1 0 .1.2z" fill="#fffbfa"/><path d="m32.7 19.5c-.2-1-.5-1.9-.7-3.2 1 .8 1.7 1.4 2.5 2.1-.7.5-1.2.8-1.8 1.1z" fill="#fffbfa"/><path d="m27.4 19.3c.8.2 1.3.7 1.3 1.4 0 1-.7 1.4-1.4 1.9-.6-.7-1.1-1.4-1.7-2.1.4-.6 1-1 1.8-1.2z" fill="#fffbfa"/><path d="m60.8 39.4c0 2.3-2 4.2-4.3 4.2-2.4 0-4.2-2-4.2-4.3 0-2.4 1.9-4.2 4.3-4.2s4.2 1.9 4.2 4.3z" fill="#e52a1f"/><path d="m60.8 74.1c0 2.4-1.9 4.3-4.3 4.3s-4.3-1.9-4.3-4.2c0-2.4 1.9-4.2 4.3-4.3s4.3 1.8 4.3 4.2z" fill="#e52a1f"/><path d="m60.6 103.7c-.3-.3-.2-.6-.3-.9 1.7-.2 3.3-.5 4.9-.7.3.3.3.5.2 1-1.6.2-3.2.4-4.8.6z" fill="#e84439"/></svg>