<svg enable-background="new 0 0 566.9 566.9" viewBox="0 0 566.9 566.9" xmlns="http://www.w3.org/2000/svg"><path d="m283.3 4.2c154.5 0 279.5 125.1 279.4 279.6-.1 153.7-125.3 278.8-279 278.8-154.6.1-279.5-125-279.4-279.6 0-153.7 125.2-278.8 279-278.8z" fill="#d93830"/><path d="m499.7 439c-6.6 11.6-15.7 21.3-24.9 30.9-10.7 11.1-22.4 21.1-35 29.9-1.9 1.3-3.7 2.7-6.1 2.8-10.9-.5-20.9-4.1-31-7.8-1.8-3 .8-4.1 2.6-5.2 16.4-9.4 30.8-21.3 44.6-34 5.4-4.9 9.3-11.2 15.3-15.6.8-.4 1.6-.7 2.5-1.1h-.1c10.6-1.3 21.4-1.3 32.1.1z" fill="#010100"/><path d="m132 502.6c-19.2-11.9-35.5-27.2-50.2-44.1-5.4-6-10.4-12.4-14.8-19.2 1.9-2.6 4.6-1 6.9-1.1 6.8-.1 13.7-.6 20.5.4l1.3.1c.7-.6 1.8-.6 2.5 0 .2.2.6.3.9.2.8.3 1.7.6 2.5 1 7.6 5.3 12.6 13.2 19.5 19.3 12.1 10.9 25 20.7 38.8 29.3 2.1 1.3 6.2 1.8 4.3 6.1-10.5 3.9-20.9 7.7-32.2 8z" fill="#010100"/><path d="m406.4 452.6c1.9-3.3 4.9-5.5 7.7-7.9 17.7-15.2 33.9-31.9 45.9-52.1 2.7-.4 1.8 1.8 1.8 2.9.1 13.1 0 26.2.1 39.3 0 3-1.4 5.1-3.1 7.2-11.2 13.3-24.4 24.3-38.5 34.4-5.2 3.8-10.6 7.3-16.2 10.5-2.2 1.2-4.4 2.7-6.9.8-1.6-4.8 1-9 2.2-13.3 2-7.4 2.7-15.2 7-21.8z" fill="#010000"/><path d="m106.9 392.5c13.7 22.7 32.1 41 52.5 57.5 4.1 4.3 4.6 10.1 5.8 15.4 1.7 7.3 5.7 14.2 4.7 22.1-2.5 2-4.8.6-6.9-.7-12-7.1-23.6-14.9-33.9-24.4-7.3-6.7-15.5-12.7-21.3-21-1.5-2.1-2.8-4-2.7-6.8 0-13.1 0-26.2.1-39.3-.1-1-1-3.1 1.7-2.8z" fill="#010000"/><path d="m61.9 432.2c-13.2-19.7-23.2-40.9-31.2-63.2.4-.8 1.1-1.5 1.9-1.3 10.3 1.9 20.7 3.3 29.8 9 6 10 10.2 20.9 16.5 30.8 3.9 6.1 7.7 12.3 12.1 18.2 1.4 1.9 3.5 3.7 2.1 7.3-9.7.4-19.6.1-29.5.1-.7 0-1.3-.3-1.7-.9z" fill="#010100"/><path d="m536.2 369c-8 22.3-18 43.5-31.2 63.2-5.2 2.4-10.8.1-16.1.9-5.1-.2-10.3.4-16.7-.6 5.3-10.3 12.3-18.4 17.6-27.7s9.3-19.1 14.9-28.1c9.1-5.5 19.5-7.1 29.7-8.9.8-.2 1.4.4 1.8 1.2z" fill="#010100"/><path d="m468.5 378.6c7.5-15.6 13.5-31.9 17.9-48.6 3.1-.1 2.9 2.6 3.4 4.4 3.5 13.1 7.6 26 10.5 39.3.3 2.7-.3 5.4-1.6 7.8-6.4 14-14.1 27.4-23 40-1.6 2.2-3.1 4.5-7.4 5 0-16-2-31.9.2-47.9z" fill="#010100"/><path d="m80.5 330.1c4.4 15.2 8.9 30.4 16.2 44.6.5.9 1 1.8 1.5 2.7.4.6.5 1.3.5 2 1 15.5.9 31.1-.1 46.7-3.7.5-5.3-1.8-6.8-3.9-9.4-13.1-17.4-27-24-41.7-1-2.1-1.4-4.4-1.1-6.7 2.9-13.2 6.9-26.2 10.4-39.3.6-1.8.3-4.5 3.4-4.4z" fill="#010100"/><path d="m471 105.5c22.7 3.8 67.5 85.5 75.2 135.2-2.4 4.2-6.4 7.1-10.8 11.6-3-27.1-10.2-53.6-21.4-78.5-11-24.8-26.1-47-43-68.3z" fill="#070404"/><path d="m31.8 251.9-11.5-10.6c10.1-53.9 33.7-99.9 74-137 2 4.9-2 6.9-4.1 9.5-20.7 25.2-36.6 53.9-47 84.8-5.8 17.3-9.7 35.1-11.4 53.3z" fill="#070404"/><path d="m526.3 261.5-4.7 4.4c-4.5-3-7.2-6.6-7.8-12.1-5.4-47.5-23.8-89.4-54.2-126.1-2.4-2.9-2.4-2.9-3.3-6.3 22.6.8 72.3 99.9 70 140.1z" fill="#070404"/><path d="m45.3 265.9-4.7-4.4c-3.1-38.2 42.6-130.9 69.3-140.8 2 2.7-.4 4.2-1.8 5.8-31 37.2-49.8 79.9-55.1 128.2-.6 5.1-3.5 8.2-7.7 11.2z" fill="#070404"/><path d="m28.2 360.5c-4.9-16.9-9-34-10-51.6.2-.1.4-.4.5-.3 10.8 4.3 21.7 8.6 29.3 18.1 2.3 11.4 5.3 22.6 8.9 33.7.9 2.7 2.1 5.5.2 8.4-5 1.7-9.3-1-13.7-2.3-5.2-1.4-11.1-1.5-15.2-6z" fill="#020100"/><path d="m548.8 308.9c-1 17.7-5.1 34.8-10 51.7-8.8 5.5-18.5 7.9-28.8 8.3-2.1-2.8-.9-5.6.1-8.3 3.6-11.1 6.6-22.3 8.9-33.7.4-1.6 1.4-3.1 2.7-4.1 8-5.3 16.2-10 24.8-14.2.7-.4 1.6-.3 2.3.3z" fill="#020100"/><path d="m523.8 274.7c7.1-8.7 15.5-16 24.1-24.8 3.3 17.3 2.1 33.6 2.3 49.8-6.9 8-16.6 11.6-25.5 16.5-1.6.9-2.8-.2-3.3-1.8.1-12.1.8-24.2.9-36.3.1-1.3.6-2.5 1.5-3.4z" fill="#020100"/><path d="m16.8 299.7c.1-16.1-.9-32.4 2.1-49.9l23.8 23.8c1.3 1.1 2 2.8 2 4.5 0 12.1.7 24.1.9 36.2-.6 2-2 2.9-3.7 1.9-8.6-5.2-18.4-8.4-25.1-16.5z" fill="#020100"/><path d="m67.3 244.9c-2.5-29.7 39.3-103.3 62.6-112.4 1.8 2.5-.6 3.8-1.8 5.2-21.5 26.3-37.7 55.2-45.7 88.5-2 8.1-9.3 11.7-15.1 18.7z" fill="#050100"/><path d="m499.5 243.9c-7.8-6.9-14.2-13.1-16.7-23.3-7.5-30.6-23.3-57.2-42.9-81.6-1.4-1.8-3.9-3.2-3.3-6.2 21.1 4.3 66.7 84.1 62.9 111.1z" fill="#040100"/><path d="m489 311.8c1.8-9.2 1.8-18.6 2.5-28 3.4-.3 3.8 2.7 4.9 4.6 6.2 10.6 12.4 21.2 18.3 32 .6 1.1 1 2.3 1.3 3.6.1.7.1 1.3.1 2-2 10.8-4.7 21.5-8.1 31.9-.9 2.9-1.2 6.8-5.7 7-3.3-4.4-3.5-9.8-4.9-14.7-3.4-12.7-7.8-25.1-8.4-38.4z" fill="#020100"/><path d="m75.5 283.9c.7 9.3.7 18.7 2.5 28-1.2 16.8-7.3 32.4-11.1 48.5-.3 1.7-1 3.2-2.2 4.4-4.2.1-4.7-3.6-5.5-6.3-3.4-10.9-6.7-21.8-8.3-33 .4-5 3.5-8.7 5.8-12.9 4.4-8 9-15.8 13.6-23.7 1.1-2 1.6-5.3 5.2-5z" fill="#020100"/><path d="m491.4 270.7c-1.3-8.9-2.5-17.8-3.8-26.8l1.7-1.3 28.3 29.5c3.2 9.2 2.7 32.5-.8 39.8-1.4 1.1-2.4.2-3-.9-7.7-13.3-16.7-25.9-22.4-40.3z" fill="#030100"/><path d="m49.3 272.2 28.4-29.4c.5.4 1.1.8 1.6 1.2-1.3 8.9-2.6 17.8-3.8 26.8-3 9.9-9.6 17.9-14.3 26.9-2 4.1-4.3 8.1-6.9 11.8-1 1.3-1.4 3.8-4.1 2.6-.9-.9-1.5-2-1.7-3.3-.8-12.2-3.3-24.5.8-36.6z" fill="#030100"/><path d="m64.2 364.3 13.8-52.5c-.4 6.3 2.2 12.1 2.5 18.2-4.7 12.9-7.3 26.3-11.2 39.4-.4 1.4-.9 2.8-1.4 4.1-.8 1.2-.1 2.8-1.5 4.2-1.4 1-3 .8-4.7-.4-10-4.1-20.4-6.9-31.1-8.4.3-3.1-1.9-5.6-2.5-8.5l28.6 8c2.6-1.2 5.3-2.1 7.5-4.1z" fill="#d53831"/><path d="m489 311.8c4.6 17.5 9.2 35 13.8 52.5 2.4 1.5 5 2.8 7.4 4.3l28.6-8c-.9 2.8-4.1 4.9-2.5 8.5-10.7 1.4-21.1 4.3-31.1 8.4-1.2 1.1-3 1.4-4.4.6-1.8-1-.8-3-1.7-4.3-3.7-13.4-7.5-26.8-11.2-40.2-.3-1.2-.2-2.5-1.4-3.3.3-6.4 2.8-12.2 2.5-18.5z" fill="#d53831"/><path d="m51.7 311.6c7.7-13.8 15.3-27.7 23.8-40.9.8 4.4-1.4 8.8 0 13.2-8.5 13.2-16.4 26.8-23.5 40.9-1.3 2.3-3 2.8-5.2 1.3-8.7-7.1-18.8-11.8-28.6-17.2-.5-3.1-.9-6.1-1.4-9.2l27.2 16.2c2.2-2.1 5.3-2.6 7.7-4.3z" fill="#d53831"/><path d="m491.4 270.7c8.6 13.3 16.2 27.1 23.9 40.9 2.4 1.7 5.5 2.1 7.7 4.2 9.1-5.4 18.1-10.8 27.2-16.2-.5 3.1-.9 6.1-1.4 9.2-9.7 5.4-19.9 10-28.6 17.2-2.2 1.5-3.9 1-5.2-1.3-.2-.3-.2-.6-.1-.9-.5-.9-.3-2.1-1.2-2.8l-22.3-37.2c0-4.3 0-8.7 0-13.1z" fill="#d53831"/><path d="m169.5 487.5-10.1-37.5 9 6.4c1.1 1.1.5 2.7 1 4 3 11.8 6.1 23.5 9.2 35.7-6.9 3.6-14.2 4.1-20.9 6.5-5.7 2-12.1 2-17.2 6l-8.5-6 32.3-8.9c1.2-2.5 3.7-3.9 5.2-6.2z" fill="#d53a32"/><path d="m406.4 452.6-9 35c1.5 2.3 4 3.7 5.3 6.2l31.1 8.8c-1.9 2.6-4.4 4.8-7.3 6.1-3.6-3.6-8.6-3.4-13-4.8-8-2.5-16.2-4.5-24.8-6.9 2.1-12.8 6.2-24.5 8.9-36.5.6-1.3 0-2.8 1-4 2.4-1.6 4.7-3.6 7.8-3.9z" fill="#d53a32"/><path d="m99.6 417.4v-33.8c2.5 8.5.7 17.2.9 25.8.1 2.6 2.6 5.8-.9 8z" fill="#d33830"/><path d="m499.7 439h-32.1c1.2-2 3.2-1.5 5-1.5 9 0 18.1 0 27.1.1.1 0 .4.3.3.4-.1.3-.2.7-.3 1z" fill="#d33830"/><path d="m94.4 438.6-27.4.7c1.3-4.9 4.9-1.5 7.3-1.6 6.7-.4 13.5-1.3 20.1.9z" fill="#d33830"/><path d="m467.3 383.7v21.2c-1.3-7.1-2.9-14.2 0-21.2z" fill="#d33830"/><path d="m487.6 433.7v-1l17.4-.5-3.6 3.3c-4.4-3-9.2-1.4-13.8-1.8z" fill="#d33830"/><path d="m467.3 408.7v8.7c-1.6-2.7-1.6-6 0-8.7z" fill="#d33830"/><path d="m467.3 422.4c.1 2.1.1 4.2.2 6.3-1.4-2.1-2.7-4.1-.2-6.3z" fill="#d33830"/><path d="m99.4 428.7c.1-2.1.1-4.1.2-6.2 1.6 2.1 1.7 4.2-.2 6.2z" fill="#d33830"/><path d="m169.4 460.4c-1.3-1.1-1.2-2.5-1-4l2.9 2.2c-1 .1-1.8.9-1.9 1.8z" fill="#fff"/><path d="m398.6 456.5c.2 1.5.2 2.9-1 4-.1-.9-.9-1.7-1.9-1.8z" fill="#fff"/><g fill="#d33830"><path d="m468.8 431.2c1.4.1 2.8-.3 3.7 1.3-1.4-.1-2.9.2-3.7-1.3z"/><path d="m103.2 438.7c-.5.9-1.5 1.4-2.5 1.3l-1.6-1.1z"/><path d="m94.5 432.5c.8-1.5 2.3-1.2 3.7-1.3-.9 1.5-2.4 1.2-3.7 1.3z"/><path d="m466.3 440c-1 .1-2-.4-2.5-1.3l4 .2z"/><path d="m98.2 431.2c-.1-1 .4-2 1.3-2.5 0 1-.5 2-1.3 2.5z"/><path d="m98.1 438.6h-2.5c.9-1.2 1.7-1.2 2.5 0z"/><path d="m467.5 428.7 1.2 1.3z"/><path d="m69.4 433.7h1.3c-.5.8-.9.7-1.3 0z"/><path d="m81.9 433.7h1.3c-.5.7-.9.7-1.3 0z"/><path d="m104.4 437.5-1.2 1.3z"/><path d="m463.8 438.7-1.2-1.3z"/><path d="m99.4 378.6h-1c0-.4-.1-.8-.1-1.2z"/><path d="m63.1 432.6v1.1c-.4-.5-.8-1-1.2-1.5.4.1.8.2 1.2.4z"/><path d="m480 433.7h1.3c-.4.8-.8.7-1.3 0z"/></g><path d="m513.8 321c1.2.6 1.3 1.7 1.2 2.8z" fill="#c53731"/><path d="m337 544.4c32-6.5 61.6-19 89.5-35.8-.2-3.3-3-3.6-5.3-4.3-7.7-2.4-15.6-4.3-23.3-6.5-2.3-.7-5-.8-6.9-4.3 1.5-7.3 3.6-15.3 5.7-23.2 1-3.5 2.7-7 1.4-10.9-.6-.9-1.3-1.6-2.5-.8-24.7 15.9-51.5 26.3-80.7 30.3-2.1.5-4.2.8-6.3 1-1.9.1-3.8.3-5.6.4-47.5 4.2-91.5-5.9-131.7-31.7-1.2-.8-1.9 0-2.5.9-1 2.3-.3 4.5.3 6.7 2.1 7.2 4 14.5 5.7 21.8.6 2.4 1.7 4.8.2 7.3-1.7 1.7-4.1 1.9-6.3 2.5-7.6 2.2-15.3 4-22.9 6.4-2.3.7-5.1 1-5.3 4.4 2.2 1.2 4.4 2.4 6.5 3.7 43.4 25.1 89.9 38.4 140.3 37.7 11.4.2 22.8-.8 33.9-3 .8.1 1.6-.1 2.3-.5 4.6.2 9-1.2 13.5-2.1zm-17 1.4c0 .2-.1.3-.1.5h-.4z" fill="#fff"/><path d="m283.5 215.1-32.3 17 6.2-35.9-26.2-25.5 36.1-5.2 16.2-32.7 16.1 32.7 36.1 5.2-26.1 25.5 6.2 35.9z" fill="#fd0" stroke="#fff" stroke-miterlimit="10" stroke-width="3"/><path d="m273.9 50.7 6.3-.9.1 1.7c.3 7.1 0 15.8-.7 21.7l-9.8-.1c.1-2.7.1-6.4 0-10.1l-3.4.6 4.3 23.2c1.8 9.8-1.2 12.9-16 15.6-.9-3.1-3.2-7.5-5.1-10.4l.8 3.8c-12.7 4.5-26.1 9-34.7 11.7 0 .9-.7 1.5-1.4 1.7l-5.6-12.2c4-1 9.1-2.4 14.8-4l-1.3-7.1-12.3 2.3-2-10.5 12.3-2.3-1-5.2-12.6 2.3-6.6-35.8 37-6.9 6.7 35.8-13.1 2.4 1 5.2 13.2-2.5 2 10.5-13.2 2.5 1.1 6.2 13.6-3.9 1.2 5.4c1.9-.2 4.2-.5 5.9-.8 3.3-.6 3.7-.7 3.5-2l-4.3-22.8-10.4 1.9-2.1-11.1 16.7-3.1c-5-2-10.7-3.9-15.6-5.1l6-9c2.1.4 4.3 1 6.5 1.6.8-1.4 1.5-3 2.2-4.4l-17 3.2-1.9-10.5 25.2-4.7 1.9-.9 9.8 3.3c-.2.7-.9 1.3-1.8 1.8-1.9 4.5-4.9 10.4-8.4 15.5 2.6 1 5 2 7 2.9l-2.6 4.2zm-62.7-6.6.8 4.4 3.9-.7-.8-4.4zm2.4 12.9.8 4.5 3.9-.7-.8-4.5zm16.1-11.8-.8-4.4-4.1.8.8 4.4zm2.4 13-.8-4.5-4.1.8.8 4.5z"/><path d="m309 21.2c2.4 3 4.4 5.9 5.9 8.9 1.8-1.9 3.6-3.8 5.1-5.6l10.4 8.2c-.4.5-1.3.7-2.5.5-2.6 2.9-5.6 5.8-8.8 8.5 1.9 9.3.7 18.5-1.4 27.9-2.4 11.1-5.7 22-10.9 26.6-3.5 2.9-8.1 3.4-17.7.9.8-3.8.7-8.1-.6-11.9 2.1.6 3.8 1.1 5.3 1.4 3.6.8 4.8 1 6.3-.4 1.8-1.5 3.7-7.2 5.5-14.7-3.5 2.7-7.1 5-10.3 6.7-1.3-3.1-3.6-7.6-5.9-10.3 6.3-2.2 13.9-7.4 19.1-12.7.2-2 .3-3.9.2-5.8-2.6 1.6-5.2 3.1-7.9 4.3-1.3-2.7-4.3-7.1-6.4-9.5 4-1.6 8-4 11.8-6.8-1.5-3.8-3.7-7.6-6.9-11.6zm5.6 81.1 9.7-44.3 43.9 9.6-9.6 43.9-11.4-2.5.5-2.5-21.7-4.7-.6 2.9zm51.9-58.3 8.9 2-2.3 10.7-8.9-2-1.9 8.5-11.4-2.5 1.9-8.5-8.7-1.9-1.9 8.5-11.4-2.5 1.9-8.5-8.5-1.9 2.3-10.7 8.5 1.9 2.1-9.8 13.5 3.7c-.3.9-1 1.3-2.7 1.2l-1.6 7.4 8.7 1.9 2.1-9.8 13.6 3.7c-.3.9-1 1.3-2.7 1.2zm-38.2 47.4 5.3 1.2 1.2-5.5-5.3-1.2zm9.9-19.4-5.3-1.2-1.2 5.3 5.3 1.2zm6.2 22.9 5.6 1.2 1.2-5.5-5.6-1.2zm8.9-14 1.2-5.3-5.6-1.2-1.2 5.3z"/><path d="m233.1 499.4-16.1 17.8-4.2 14-7.9-2.4 4.1-13.7-3.2-24 8.9 2.7.4 9c.1 2.6.1 5 .1 7.6h.1c1.3-2.1 2.6-4.1 4.2-6.4l5.1-7.3z"/><path d="m248.4 538.9-20.4-3.7 6.5-35.8 19.7 3.5-1.2 6.8-11.5-2.1-1.3 7.2 10.9 2-1.2 6.7-10.9-2-1.5 8.3 12.2 2.2zm-.9-39.1-6.2-1.1-3.8-7.2 5.7 1 1.7 3.4h.1l2.8-2.6 5.6 1z"/><path d="m302.8 541h-7.8l-.6-13c-.2-3.9-.4-8.7-.4-13.5h-.1c-.9 4.4-2.2 9.3-3.1 12.8l-3.5 13.1h-6.3l-3.3-12.9c-.9-3.5-2-8.4-2.7-12.9h-.1c-.1 4.5-.3 9.7-.5 13.6l-.5 13h-7.4l2.3-36.4h10.1l3 11.8c1.1 4.3 2.1 8.8 2.8 13h.2c.7-4.2 1.7-8.9 2.8-13.1l3.1-11.7h10z"/><path d="m338 535.6-8.5 1.3-3.4-8-8.3 1.3-.6 8.7-8.3 1.3 3.8-37.5 10.4-1.6zm-27.9-40.4 13.5-2.1.7 4.5-13.5 2.1zm14.1 27.7-2.7-7c-.8-2.1-1.9-5.2-2.7-7.3h-.1c-.1 2.3-.2 5.7-.3 7.8l-.5 7.5z"/><path d="m367.1 507.7c3.7 12.2-.4 20.2-9.2 22.9-9.6 2.9-16.9-4-19.8-13.6-3-9.9 0-19.7 9.4-22.5 10.3-3.1 17 4.7 19.6 13.2zm-20.6 6.7c2 6.7 5.7 10.8 9.7 9.6s4.7-6.6 2.6-13.5c-1.8-6.1-5.4-10.6-9.5-9.4-4.2 1.3-4.6 7.2-2.8 13.3z"/><path d="m302.7 282-19.2 76.5-19.2-76.5-134.3-84.1 22.8 125.9 45.8 27.1 54.6 93.1-31.2-114.3-42-27.5-7.3-39.5 69 43.4 41.8 161 41.7-161 69-43.4-7.3 39.5-41.9 27.5-31.3 114.3 54.7-93.1 45.7-27.1 22.8-125.9z" fill="#11090c" stroke="#fff" stroke-miterlimit="10" stroke-width="3"/></svg>