<svg enable-background="new 0 0 113.4 113.4" viewBox="0 0 113.4 113.4" xmlns="http://www.w3.org/2000/svg"><circle cx="56.7" cy="56.7" fill="#fff" r="56.7"/><circle cx="56.7" cy="55.1" fill="#fff" r="53.8"/><path d="m112.3 56.6c0 26.4-18.8 49.3-44.7 54.4-29.9 5.9-59-13.3-65.2-43-6.2-29.5 12.2-58.5 41.6-65.5 1.8-.4 2.7-.1 3.1 1.1.4 1.3-.1 2.5-1.6 3.1-1.7.7-3.4 1.2-5.1 2-14.6 6.5-23.4 17.6-26 33.3-3.7 22.3 11.8 44.1 34 48.4 22.8 4.3 44.3-9.4 50-31.9 5.5-21.6-7.1-44.1-28.5-51-.7-.2-1.4-.6-2.1-.9-1.4-.7-1.9-1.8-1.4-3.1.4-1.1 1.3-1.4 2.9-1 3.7.9 7.3 2.1 10.8 3.7 16.9 8.2 27.3 21.6 31.2 40 .7 3.5 1 6.9 1 10.4z" fill="#050302"/><path d="m36 43.2h41.3c-1.3-5-4-9-8-12-2-1.4-4.1-2.5-6.4-3.2s-3.6-2.9-3.5-5.3c.1-2.2 1.9-4.1 4-4.5 1.2-.2 2.3.3 3.3.7 11.3 4.3 18.4 12.3 20.7 24.2 2.7 14.4-5.7 28.9-19.4 34.2-1 .4-1.9.7-2.9 1-2.8.8-5.3-.8-5.7-3.7-.3-2.6 1.1-4.8 3.6-5.7 7.4-2.5 12.1-7.5 14.4-15.1-13.8 0-27.5 0-41.3 0 1.1 4.4 3.3 8 6.7 10.9 2.2 2 4.8 3.4 7.7 4.3 2.1.7 3.5 2.4 3.6 4.4.1 2.2-.9 4-2.9 5.1-.7.4-1.4.2-2.1.1-7.2-1.9-13.1-5.9-17.5-12-9.7-13.5-7.4-31.6 5.3-42.2 3.5-2.9 7.4-4.9 11.8-6.1 2.3-.6 5.1 1.6 5.4 4.2.2 2.7-1.2 4.7-3.7 5.6-7.5 2.5-12.1 7.6-14.4 15.1z" fill="#080504"/></svg>