<svg id="Capa_1" data-name="Capa 1" xmlns="http://www.w3.org/2000/svg" viewBox="0 0 566.93 566.93"><defs><style>.cls-1{fill:#ee7633;}.cls-2{fill:#fdfdfd;}.cls-3{fill:#8a3a8e;}</style></defs><path class="cls-1" d="M297,487.29c108.29-5.78,194.71-100,190.89-208.79C483.71,160.13,388,84.54,297,81.09V119c39.48,7.11,70.67,18.6,78.35,28.91-11-.48-21.83-.87-32.71-.32a270.8,270.8,0,0,0-96.74,22.72c-19.86,8.79-38,20.35-55.52,33-.35-.61-.71-1.22-1.07-1.83.53-3.18,2.43-5.75,3.89-8.51,13.4-25.3,29.85-48.38,50.17-68.62,9.29-3.59,19.25-3.67,29-5.46V80.69C162.05,87.23,76.39,180,80.17,289.54c4.08,118,99.46,194.39,192.17,197.58V449c-14.87-1.7-29.32-3.81-43-9.32a11,11,0,0,1-.09-2.26c5.21-25.42,13.25-49.86,25.88-72.6,4.55-8.19,8.71-16.74,15.57-23.45,10.95,8.05,21.94,16.05,31.92,25.32C323.43,386,340.93,407.58,350.06,435c-16.65,8.56-34.77,11.65-53.08,14ZM562.62,283.86c.33,154-126.38,279.21-280.09,278.82C129.09,562.29,2.16,435.09,4.34,279.22,6.44,129.08,130.47,3.46,284.85,4.26,438.43,5.05,562.83,130,562.62,283.86Z"/><path class="cls-1" d="M487.87,278.5c3.82,108.75-82.6,203-190.89,208.79V448.94c18.31-2.31,36.43-5.4,53.08-14-9.13-27.4-26.63-49-47.41-68.29-10-9.27-21-17.27-31.92-25.32-6.86,6.71-11,15.26-15.57,23.45-12.63,22.74-20.67,47.18-25.88,72.6a11,11,0,0,0,.09,2.26c13.65,5.51,28.1,7.62,43,9.32v38.12c-92.71-3.19-188.09-79.61-192.17-197.58C76.39,180,162.05,87.23,272.36,80.69v38.23c-9.75,1.79-19.71,1.87-29,5.46C223,144.62,206.59,167.7,193.19,193c-1.46,2.76-3.36,5.33-3.89,8.51.36.61.72,1.22,1.07,1.83,17.52-12.68,35.66-24.24,55.52-33a270.8,270.8,0,0,1,96.74-22.72c10.88-.55,21.73-.16,32.71.32C367.66,137.6,336.47,126.11,297,119V81.09C388,84.54,483.71,160.13,487.87,278.5Z"/><path class="cls-2" d="M259.83,255.3c16.91,1.18,33.58-.07,49.9-4.93,11.67-1.61,22.73-5.27,33.49-10,18.77-5.92,35.5-15.85,51.82-26.53a214,214,0,0,0,27-20.79c-14.09-20.57-30.79-37.95-52.61-50.07a119.13,119.13,0,0,0-35.78-16.15c-21.11-7.85-43-9.16-65.16-7.37-3.07.25-6.27.13-9.17,1.56A116.84,116.84,0,0,0,224,130.52c-17.83,5.72-32.83,16.35-47.41,27.67l-27.12-27.12c80.66-72.48,208.42-66.94,282.62,12.65,80.76,86.64,66.53,207.77,4.62,274.57l-26.81-26.81c22.89-33,36.82-63.12,35-75.84-7.43,8.1-14.84,16.05-22.91,23.35a270.85,270.85,0,0,1-84.47,52.34c-20.26,7.83-41.27,12.48-62.62,15.9a7,7,0,0,0-4.94.88c-17.55.83-35.09,1.82-52.67.43A422.88,422.88,0,0,1,169.46,402c6.62,8,14,13.4,21.58,18.25q85.87,54.79,175.77,6.59a8.12,8.12,0,0,0,1.4-1.23c9.11-4,16.21-11,24.38-16.65l27,27C337,509.36,210.8,504.32,136,424.2c-80.53-86.29-67.13-207.78-3.83-275.59l27,26.95c-9.32,11.72-18,23.44-23.8,37a11.94,11.94,0,0,0,1.53,1.65c21.66,14.29,44.63,25.89,69.64,33,9,2.57,18,5.68,27.58,5.57A89.76,89.76,0,0,0,259.83,255.3Zm62.24,29L289.49,289l-31.21.57c-6.44-1.95-13.23-1.29-19.77-2.59-9.61-1.91-19.23-3.71-28.86-5.56-30.23-8-58.06-21.34-85.32-39.47-10.52,43.36-5.24,83.41,15.12,121.82a339.59,339.59,0,0,0,61.26,12,278.71,278.71,0,0,0,66.51-.67,22.49,22.49,0,0,0,3-.8c8.18-.35,16.21-1.42,23.74-4.94a52.49,52.49,0,0,0,19.31-5.65c8.57-1.86,16.68-4.85,23.91-9.93,5.68-1.21,10.24-4.71,15.21-7.39,8.92-4.79,17.59-10,24.94-17.05,13.22-8.71,24.31-19.85,34.78-31.55,13-14.54,24.45-30.3,33.26-48.54a96.4,96.4,0,0,0-6.41-21.56c-10.53,7.64-20.51,14.83-31,21.24-12.71,7.75-26.2,14-39.55,20.47-10,3.59-20.43,6-29.86,11.12C332.69,280.31,327.41,282.4,322.07,284.26Z"/><path class="cls-3" d="M270,408.11c-17.55.83-35.09,1.82-52.67.43A422.88,422.88,0,0,1,169.46,402c6.62,8,14,13.4,21.58,18.25q85.87,54.79,175.77,6.59a8.12,8.12,0,0,0,1.4-1.23c-28.68.06-56.63-4.63-84-13.05-3-.92-6.14-1.39-8.77-3.27C273.4,409.92,271.89,408.07,270,408.11Z"/><path class="cls-1" d="M259.29,121.07A116.84,116.84,0,0,0,224,130.52C237,156.35,239.84,184,238.8,212.34c-.5,13.61-2.61,27-4.67,40.47a89.66,89.66,0,0,0,25.7,2.49c1.73-7.13,3.74-14.2,5.15-21.39C272.44,195.85,272.93,158.09,259.29,121.07Z"/><path class="cls-3" d="M270,408.11c1.92,0,3.43,1.81,5.48,1.17l-.54-2A7,7,0,0,0,270,408.11Z"/><path class="cls-1" d="M209.65,281.43c-30.23-8-58.06-21.34-85.32-39.47-10.52,43.36-5.24,83.41,15.12,121.82a339.59,339.59,0,0,0,61.26,12,278.71,278.71,0,0,0,66.51-.67,22.49,22.49,0,0,0,3-.8c-9.07-20.48-19-40.45-31.82-58.95C229.89,303.1,219.59,292.44,209.65,281.43Z"/><path class="cls-3" d="M259.29,121.07c13.64,37,13.15,74.78,5.69,112.84-1.41,7.19-3.42,14.26-5.15,21.39,16.91,1.18,33.58-.07,49.9-4.93,1.16-2.69,2.3-5.38,3.48-8.07,16.08-36.83,25.84-74.78,20.41-115.42-21.11-7.85-43-9.16-65.16-7.37C265.39,119.76,262.19,119.64,259.29,121.07Z"/><path class="cls-1" d="M333.62,126.88c5.43,40.64-4.33,78.59-20.41,115.42-1.18,2.69-2.32,5.38-3.48,8.07,11.67-1.61,22.73-5.27,33.49-10,14.71-30.86,24.9-62.93,26.18-97.39A119.13,119.13,0,0,0,333.62,126.88Z"/><path class="cls-1" d="M377.3,329.36c13.22-8.71,24.31-19.85,34.78-31.55,13-14.54,24.45-30.3,33.26-48.54a96.4,96.4,0,0,0-6.41-21.56c-10.53,7.64-20.51,14.83-31,21.24-12.71,7.75-26.2,14-39.55,20.47C374.1,289,375.81,309.16,377.3,329.36Z"/><path class="cls-3" d="M369.4,143c-1.28,34.46-11.47,66.53-26.18,97.39,18.77-5.92,35.5-15.85,51.82-26.53a214,214,0,0,0,27-20.79C407.92,172.53,391.22,155.15,369.4,143Z"/><path class="cls-3" d="M209.65,281.43c9.94,11,20.24,21.67,28.72,33.94,12.79,18.5,22.75,38.47,31.82,58.95,8.18-.35,16.21-1.42,23.74-4.94-.92-2.77-1.87-5.54-2.76-8.32-8.11-25.14-18.25-49.34-32.89-71.48-6.44-1.95-13.23-1.29-19.77-2.59C228.9,285.08,219.28,283.28,209.65,281.43Z"/><path class="cls-3" d="M313.24,363.73c8.57-1.86,16.68-4.85,23.91-9.94-3-23.63-7.38-46.94-15.08-69.54L289.49,289C301.45,312.63,308.07,338,313.24,363.73Z"/><path class="cls-1" d="M313.24,363.73c-5.17-25.78-11.79-51.1-23.75-74.72l-31.21.57c14.64,22.14,24.78,46.34,32.89,71.48.89,2.78,1.84,5.55,2.76,8.32A52.49,52.49,0,0,0,313.24,363.73Z"/><path class="cls-3" d="M377.3,329.36c-1.49-20.2-3.2-40.38-8.94-59.94-10,3.59-20.43,6-29.86,11.13,1,2.73,2.09,5.43,2.95,8.21,5.79,18.81,8.4,38.22,10.91,57.65C361.28,341.62,370,336.46,377.3,329.36Z"/><path class="cls-1" d="M352.36,346.41c-2.51-19.43-5.12-38.84-10.91-57.65-.86-2.78-2-5.48-2.95-8.21-5.81-.24-11.09,1.85-16.43,3.71,7.7,22.59,12.11,45.9,15.08,69.53C342.83,352.59,347.39,349.09,352.36,346.41Z"/></svg>