<?xml version="1.0" encoding="UTF-8"?><svg id="Capa_1" xmlns="http://www.w3.org/2000/svg" viewBox="0 0 566.93 566.93"><defs><style>.cls-1{fill:#fff;}.cls-2{fill:#ef781b;}.cls-3{fill:#151516;}.cls-4{fill:none;}</style></defs><circle class="cls-2" cx="283.46" cy="283.46" r="279.21"/><circle class="cls-3" cx="283.46" cy="283.46" r="265.71"/><path class="cls-1" d="m94.46,160.86c-.88,1.12-1.68,1.86-2.43,2.22-.75.36-1.54.2-2.4-.46-.35-.27-.6-.55-.74-.82-.14-.27-.21-.6-.22-.97l-2.05-35.38c-.03-.43.05-.85.25-1.26.2-.41.49-.85.86-1.33.18-.23.37-.45.57-.66.2-.21.42-.38.66-.49.24-.12.49-.16.74-.15.26.02.53.14.82.36.31.24.51.52.58.83s.13.76.17,1.36l1.57,31.89,14.65-18.81c.39-.5.79-.72,1.19-.65.4.06.88.31,1.45.75.56.44.92.84,1.08,1.22.16.38.04.81-.34,1.31l-16.4,21.05Z"/><path class="cls-1" d="m108.34,125.14l3.2,3.34c.58.61,1.47.77,2.65.48,1.18-.29,2.61-1.24,4.29-2.84l13.66-13.06c.46-.44.88-.59,1.27-.47.39.12.83.44,1.32.95.47.5.77.94.88,1.35.11.4-.06.82-.52,1.26l-13.77,13.17c-5.64,5.39-10.15,6.32-13.54,2.77l-9.64-10.09c-3.39-3.54-2.26-8.01,3.38-13.4l4.26-4.07c.44-.42.85-.57,1.24-.45.39.12.83.44,1.32.95.49.51.79.97.89,1.36.1.39-.06.8-.5,1.22l-4.14,3.96c-1.68,1.6-2.69,2.98-3.04,4.14-.35,1.16-.23,2.05.37,2.68l3.5,3.66,18.54-17.73c.46-.44.88-.6,1.27-.48.39.12.83.44,1.32.95.49.51.79.97.89,1.36.1.39-.07.81-.53,1.25l-18.55,17.73Z"/><path class="cls-1" d="m147.47,106.97c-6.38,4.49-10.98,4.74-13.8.73l-11.29-16.03c-.44-.62-.55-1.16-.32-1.62.23-.45.69-.92,1.38-1.41.71-.5,1.32-.78,1.82-.85.5-.06.97.22,1.42.84l11.29,16.03c.49.69,1.33.98,2.53.88,1.2-.1,2.75-.82,4.64-2.16l15.84-11.16c.52-.36.95-.45,1.31-.27s.73.56,1.13,1.12c.41.58.65,1.08.71,1.48.06.41-.17.79-.68,1.16l-15.97,11.25Z"/><path class="cls-1" d="m175.55,89.4c-6.96,3.53-11.54,3.11-13.76-1.26l-8.87-17.49c-.35-.68-.37-1.23-.08-1.64.29-.41.81-.81,1.57-1.19.78-.39,1.42-.59,1.92-.58.51,0,.93.35,1.28,1.04l8.87,17.49c.38.75,1.17,1.16,2.38,1.23,1.2.07,2.84-.42,4.91-1.47l17.28-8.77c.56-.29,1.01-.31,1.33-.08.33.23.64.66.95,1.27.32.63.48,1.16.49,1.57,0,.41-.28.76-.84,1.05l-17.42,8.84Z"/><path class="cls-1" d="m195.69,66.81l1.49,4.38c.27.8,1,1.32,2.2,1.55,1.19.24,2.89-.02,5.08-.76l17.9-6.06c.6-.2,1.05-.17,1.35.11.3.27.57.75.79,1.42.22.65.3,1.18.23,1.59-.07.41-.4.72-1,.92l-18.05,6.12c-7.39,2.5-11.87,1.43-13.44-3.21l-4.48-13.22c-1.57-4.64,1.33-8.22,8.72-10.72l5.58-1.89c.57-.19,1.01-.15,1.31.12.3.27.57.75.79,1.42s.31,1.21.23,1.61c-.07.4-.4.7-.97.89l-5.43,1.84c-2.2.74-3.7,1.57-4.51,2.47s-1.07,1.76-.79,2.59l1.62,4.79,24.3-8.23c.6-.2,1.05-.17,1.35.11.3.27.57.75.79,1.42.23.67.31,1.21.23,1.61-.07.4-.41.7-1.01.91l-24.3,8.23Z"/><path class="cls-1" d="m259.91,63.38c-.36.06-.66.1-.9.11-.24.01-.47-.01-.7-.08-.23-.07-.47-.17-.73-.3-.26-.13-.59-.31-.97-.54l-27.72-16.29,3.4,19.92c.13.75,0,1.29-.41,1.59-.4.31-1.03.54-1.89.68-.83.14-1.49.13-1.97-.03-.48-.16-.79-.61-.92-1.37l-4.24-24.9c-.12-.73,0-1.25.38-1.57.37-.32.96-.54,1.77-.68.86-.15,1.55-.15,2.08-.01.53.14,1.14.41,1.83.83l27.36,16.27-3.4-19.96c-.13-.75,0-1.28.41-1.59.4-.31,1.02-.53,1.85-.68.86-.15,1.53-.14,2.01.02.48.16.79.61.92,1.37l4.24,24.9c.13.75,0,1.28-.41,1.59-.4.31-1.06.54-1.97.7Z"/><path class="cls-1" d="m270.35,45.61l20.71-11.46c.37-.21.77-.36,1.2-.45.43-.08,1.1-.13,2-.14.58,0,1.08.14,1.51.44.42.3.64.75.65,1.36,0,.79-.41,1.4-1.25,1.83l-20.99,10.87,21.94,10.83c.85.41,1.28,1.01,1.29,1.81,0,.61-.2,1.06-.62,1.37-.42.31-.92.47-1.5.47-.9.01-1.56-.02-2-.1-.44-.07-.84-.21-1.21-.42l-21.67-11.19.11,10.12c0,.76-.21,1.27-.66,1.51-.45.24-1.1.37-1.97.38-.84,0-1.49-.1-1.94-.33-.45-.23-.68-.73-.69-1.5l-.28-25.26c0-.76.21-1.27.66-1.51.45-.24,1.09-.37,1.93-.38.87-.01,1.53.1,1.98.33.45.23.68.73.69,1.5l.11,9.92Z"/><path class="cls-1" d="m302.93,35.82c.17-1.2.88-1.71,2.1-1.53l21.99,3.21c1.77.26,3.35.64,4.73,1.15,1.38.51,2.52,1.11,3.43,1.8.91.69,1.58,1.47,2,2.33.42.86.56,1.77.42,2.74l-.72,4.93c-.14.96-.54,1.8-1.19,2.5-.65.7-1.51,1.26-2.58,1.66-1.07.4-2.34.65-3.8.74-1.47.09-3.08,0-4.86-.25l-1.56-.23c-1.15-.17-2.15-.31-2.99-.44-.85-.12-1.6-.24-2.25-.35-.65-.11-1.23-.21-1.75-.32-.52-.1-1.02-.2-1.51-.3v.08c.38.22.81.45,1.27.69.46.24,1.02.54,1.68.91.67.37,1.47.82,2.42,1.35.95.54,2.12,1.22,3.52,2.03l8.87,5.17c.79.46,1.12,1.11.99,1.94-.1.7-.4,1.15-.9,1.35-.49.19-1.17.23-2.03.1-.18-.03-.41-.07-.68-.12-.27-.05-.55-.12-.83-.2-.28-.08-.55-.17-.82-.28-.27-.11-.49-.24-.68-.4l-21.44-13.24-1.26,8.6c-.11.76-.41,1.22-.88,1.39-.48.17-1.15.19-2.01.07-.84-.12-1.46-.33-1.87-.63-.41-.3-.56-.83-.45-1.58l3.64-24.88Zm4.85,3.19l-1.35,9.23,18.15,2.65c1.33.2,2.44.29,3.33.29.89,0,1.62-.08,2.17-.22.55-.15.96-.35,1.21-.62.25-.27.41-.59.46-.95l.62-4.23c.05-.34,0-.68-.17-1.02s-.49-.66-.98-.96c-.49-.3-1.16-.57-2.01-.83-.86-.26-1.95-.48-3.28-.68l-18.15-2.65Z"/><path class="cls-1" d="m342.25,68.45c-.19.74-.53,1.17-1.02,1.29-.49.12-1.16.08-2-.14-.82-.21-1.42-.48-1.79-.82-.38-.34-.47-.88-.29-1.62l6.16-24.5c.19-.74.53-1.17,1.02-1.29s1.15-.08,1.97.13c.84.21,1.45.49,1.83.83.38.34.47.88.29,1.62l-6.16,24.5Z"/><path class="cls-1" d="m353.54,60.72l-1.54,4.36c-.28.79-.02,1.65.77,2.58.79.92,2.28,1.77,4.47,2.54l17.82,6.29c.6.21.93.52,1,.92.07.4-.02.94-.25,1.61-.23.65-.5,1.11-.81,1.39-.31.28-.76.32-1.36.11l-17.97-6.34c-7.36-2.6-10.22-6.2-8.59-10.83l4.64-13.16c1.63-4.62,6.12-5.64,13.48-3.04l5.56,1.96c.57.2.89.5.96.9s-.02.94-.25,1.61c-.24.67-.51,1.14-.81,1.41-.3.27-.74.3-1.31.1l-5.41-1.91c-2.19-.77-3.88-1.05-5.07-.85-1.19.21-1.93.72-2.22,1.54l-1.68,4.77,24.2,8.53c.6.21.93.52,1,.92s-.02.94-.25,1.61c-.24.67-.51,1.14-.81,1.41-.31.27-.76.3-1.35.09l-24.2-8.54Z"/><path class="cls-1" d="m411.64,92.04c-1.2,2.23-2.96,3.39-5.27,3.49-2.32.1-5.17-.76-8.55-2.58l-10.55-5.68c-6.87-3.7-9.14-7.7-6.82-12.02l6.61-12.29c2.32-4.32,6.92-4.63,13.79-.93l4.91,2.64c.56.3.84.65.84,1.06,0,.41-.16.92-.5,1.55-.34.63-.68,1.05-1.02,1.27-.34.22-.79.18-1.35-.12l-4.77-2.57c-2.04-1.1-3.67-1.64-4.88-1.62-1.21.02-2.02.42-2.43,1.18l-6.61,12.29c-.4.74-.28,1.63.36,2.66.64,1.03,1.98,2.1,4.03,3.2l10.27,5.53c2.04,1.1,3.67,1.63,4.87,1.59,1.2-.04,2.01-.43,2.4-1.18l3.34-6.2c.36-.67.79-1.01,1.29-1.01.5,0,1.13.2,1.89.61.77.41,1.29.83,1.59,1.26.29.43.26.98-.1,1.65l-3.33,6.2Z"/><path class="cls-1" d="m421.11,93.27l-2.8,3.69c-.51.67-.53,1.57-.05,2.69.47,1.12,1.63,2.38,3.48,3.78l15.06,11.42c.5.38.73.77.67,1.18-.06.4-.3.89-.73,1.46-.41.55-.81.91-1.19,1.08-.38.17-.82.07-1.33-.31l-15.18-11.52c-6.22-4.71-7.84-9.02-4.88-12.93l8.43-11.12c2.96-3.91,7.55-3.5,13.77,1.21l4.69,3.56c.48.37.7.75.64,1.15-.06.4-.3.89-.73,1.46-.43.57-.83.93-1.2,1.1-.37.16-.8.06-1.28-.3l-4.57-3.46c-1.85-1.4-3.37-2.19-4.57-2.35-1.2-.16-2.06.1-2.59.79l-3.06,4.03,20.44,15.5c.5.38.73.77.67,1.18-.06.4-.3.89-.73,1.46-.43.57-.83.93-1.2,1.1-.37.16-.81.05-1.32-.33l-20.44-15.5Z"/><path class="cls-1" d="m456.63,102.05c.88-.84,1.74-.81,2.6.08l15.38,16.04c1.24,1.29,2.25,2.56,3.02,3.81.78,1.25,1.31,2.42,1.6,3.53.29,1.11.34,2.13.15,3.07-.2.94-.65,1.74-1.35,2.42l-3.59,3.45c-.7.68-1.53,1.09-2.47,1.25-.94.16-1.96.06-3.05-.27-1.09-.34-2.25-.92-3.46-1.75-1.21-.83-2.44-1.89-3.68-3.18l-1.09-1.14c-.8-.84-1.5-1.57-2.09-2.18-.59-.62-1.11-1.17-1.56-1.65-.45-.49-.84-.93-1.19-1.33-.35-.4-.68-.79-1.01-1.17l-.06.06c.18.41.37.86.59,1.33.21.47.47,1.05.78,1.75.3.7.66,1.55,1.08,2.55.42,1,.93,2.26,1.53,3.76l3.83,9.53c.34.85.2,1.56-.41,2.15-.51.49-1.03.66-1.54.51-.51-.15-1.06-.54-1.67-1.17-.13-.13-.28-.3-.46-.51-.18-.21-.36-.43-.53-.67-.17-.24-.33-.48-.47-.72-.14-.25-.24-.49-.29-.73l-8.79-23.62-6.28,6.02c-.55.53-1.07.71-1.55.56-.48-.16-1.02-.55-1.62-1.18-.58-.61-.95-1.16-1.08-1.64-.14-.49.07-1,.62-1.53l18.15-17.4Zm1.87,5.49l-6.73,6.46,12.7,13.24c.93.97,1.75,1.73,2.46,2.27.71.55,1.32.93,1.85,1.16.53.23.97.31,1.34.25s.68-.21.95-.47l3.08-2.96c.25-.24.41-.54.49-.91.08-.37.02-.82-.18-1.36-.2-.54-.56-1.17-1.08-1.9-.52-.73-1.24-1.58-2.17-2.55l-12.7-13.24Z"/><path class="cls-1" d="m479.83,150.38c-4.45-6.41-4.66-11.01-.63-13.81l1.27-.88c4.03-2.8,8.26-.99,12.71,5.42l2.25,3.25c.36.52.45.96.27,1.33-.18.36-.56.75-1.15,1.16-.58.41-1.08.63-1.48.67-.41.04-.79-.2-1.15-.72l-2.32-3.34c-1.32-1.91-2.5-3.08-3.54-3.54-1.04-.45-1.91-.43-2.62.07l-1.27.88c-.69.48-1.01,1.29-.96,2.43.05,1.14.74,2.66,2.06,4.56l5.32,7.66c4.45,6.41,4.66,11.01.63,13.81l-1.62,1.13c-4.03,2.8-8.27.99-12.71-5.42l-11.05-15.91c-.36-.52-.45-.96-.27-1.33s.56-.75,1.15-1.16c.58-.41,1.08-.63,1.48-.67s.79.2,1.15.72l11.12,16.01c1.32,1.91,2.5,3.08,3.54,3.54,1.04.45,1.91.43,2.63-.07l1.62-1.13c.69-.48,1.01-1.29.96-2.42-.05-1.14-.74-2.66-2.06-4.56l-5.32-7.66Z"/><path class="cls-1" d="m108.81,456.93c-.25-.3-.43-.55-.57-.76-.14-.21-.23-.43-.29-.67-.05-.24-.09-.51-.11-.81s-.03-.69-.02-1.16l.34-33.44-16.21,13.37c-.61.51-1.16.66-1.65.45-.49-.2-1.02-.65-1.59-1.35-.56-.68-.89-1.27-1-1.79-.11-.52.15-1.03.76-1.53l20.27-16.72c.59-.49,1.13-.65,1.61-.47.48.17.99.59,1.53,1.24.58.7.94,1.32,1.09,1.87.15.55.22,1.24.19,2.08l-.52,33.1,16.24-13.4c.61-.51,1.16-.66,1.65-.46.49.2,1.01.64,1.57,1.32.58.7.92,1.3,1.02,1.82.11.52-.15,1.03-.76,1.53l-20.27,16.72c-.61.51-1.16.66-1.65.46-.49-.2-1.04-.67-1.64-1.41Z"/><path class="cls-1" d="m124.84,471.65c-6.2-5.23-7.66-9.79-4.37-13.69l9.36-11.09c3.29-3.9,8.03-3.23,14.23,2l9.15,7.71c6.2,5.23,7.66,9.79,4.37,13.69l-9.36,11.09c-3.29,3.9-8.03,3.23-14.23-2l-9.15-7.71Zm11.88,4.21c1.84,1.55,3.39,2.44,4.63,2.67s2.15,0,2.72-.67l9.36-11.09c.58-.69.65-1.63.21-2.8-.44-1.18-1.58-2.54-3.43-4.1l-8.89-7.5c-1.84-1.55-3.38-2.45-4.62-2.68-1.24-.24-2.15,0-2.73.68l-9.36,11.09c-.57.67-.63,1.6-.2,2.79.43,1.19,1.57,2.56,3.41,4.12l8.89,7.5Z"/><path class="cls-1" d="m201.33,487.79c.63-.25,1.23-.35,1.81-.29.58.06,1.15.24,1.73.55,1.79.95,2.25,2.25,1.37,3.9l-11.82,22.21c-.37.7-.82,1.05-1.35,1.05s-1.19-.21-1.99-.64-1.35-.86-1.64-1.29c-.3-.44-.26-1,.12-1.71l9.16-17.2-23.81,9.82c-.67.27-1.28.39-1.83.38-.55-.01-1.14-.19-1.77-.52-.7-.37-1.23-.79-1.59-1.26-.36-.47-.6-1.05-.73-1.74l-5.19-25.26-9.16,17.2c-.37.7-.82,1.05-1.35,1.05-.53,0-1.19-.21-1.99-.64-.77-.41-1.31-.84-1.6-1.27-.3-.44-.26-1,.12-1.71l11.82-22.21c.88-1.65,2.2-2,3.96-1.06,1.19.63,1.92,1.56,2.19,2.8l5.97,29.03,27.56-11.18Z"/><path class="cls-1" d="m227.42,494.23c.77.21,1.36.5,1.79.87.42.37.73.83.93,1.36l10.51,29.41c.1.34.11.67.03.99-.08.29-.24.54-.49.76-.25.22-.53.38-.86.49-.33.11-.68.17-1.05.18-.37.01-.73-.03-1.07-.12-.37-.1-.68-.25-.94-.45-.26-.2-.45-.47-.58-.82l-2.8-8.1-22.04-6.05-6.27,5.61c-.27.24-.57.38-.9.41-.34.04-.68,0-1.02-.09-.32-.09-.63-.23-.95-.43-.31-.2-.58-.44-.81-.71-.22-.27-.39-.56-.49-.86-.1-.3-.11-.61-.02-.92.07-.26.24-.53.52-.8l23.03-20.19c.41-.37.9-.6,1.47-.7.57-.1,1.25-.04,2.04.18Zm-12.68,14.98l16.37,4.5-5.02-14.64-11.36,10.14Z"/><path class="cls-1" d="m283.85,524.85c-.4,5.08-4.65,7.3-12.73,6.67l-23.24-1.83c-1.26-.1-1.83-.79-1.73-2.07l2.04-25.9c.1-1.26.78-1.84,2.03-1.74l23.24,1.83c8.09.64,11.93,3.5,11.53,8.58l-1.14,14.47Zm-32.06.69l19.51,1.54c2.4.19,4.19.01,5.34-.53,1.16-.54,1.77-1.25,1.84-2.12l1.14-14.47c.07-.9-.42-1.7-1.48-2.41-1.06-.7-2.79-1.15-5.19-1.34l-19.51-1.54-1.64,20.86Z"/><path class="cls-1" d="m339.37,525.88c-.38.06-.69.1-.94.12-.25.01-.49-.01-.72-.09-.24-.07-.49-.17-.76-.31-.27-.13-.61-.32-1.01-.56l-28.82-16.95,3.52,20.71c.13.78,0,1.34-.43,1.66-.42.32-1.07.56-1.96.71-.87.15-1.55.14-2.05-.03-.5-.17-.82-.64-.95-1.42l-4.4-25.9c-.13-.76,0-1.3.39-1.63.39-.33,1-.57,1.84-.71.89-.15,1.61-.16,2.17-.01.55.14,1.18.43,1.9.87l28.44,16.93-3.53-20.75c-.13-.78,0-1.34.43-1.66s1.06-.56,1.92-.7c.89-.15,1.59-.14,2.09.02s.82.64.95,1.42l4.4,25.9c.13.78,0,1.34-.43,1.66-.42.32-1.1.56-2.05.72Z"/><path class="cls-1" d="m356.49,488.72c.74-.28,1.4-.39,1.96-.34.56.05,1.08.24,1.55.56l25.77,17.64c.29.21.49.48.6.78.11.28.12.58.05.9-.07.32-.21.62-.41.9-.2.28-.45.54-.75.76-.3.23-.61.4-.94.53-.36.13-.7.2-1.03.19-.33,0-.64-.12-.96-.32l-7.03-4.92-21.4,8.03-1.79,8.22c-.07.35-.24.64-.49.86-.25.23-.54.4-.88.53-.31.12-.65.18-1.02.21-.37.02-.73-.01-1.07-.1-.34-.09-.64-.23-.9-.41-.26-.18-.45-.43-.56-.73-.1-.26-.11-.57-.05-.95l6.79-29.86c.12-.54.38-1.02.78-1.43.4-.41.99-.76,1.76-1.05Zm-1.48,19.57l15.9-5.97-12.65-8.91-3.24,14.88Z"/><path class="cls-1" d="m387.28,479.54l11.22,20.76c.38.7.42,1.27.13,1.71s-.84.87-1.63,1.3c-.77.42-1.42.63-1.95.63-.53,0-.98-.34-1.36-1.04l-11.22-20.76-10.89,5.88c-.58.31-1.05.36-1.4.13-.36-.23-.71-.67-1.06-1.32-.35-.65-.53-1.19-.52-1.61,0-.42.3-.79.88-1.1l26.62-14.38c.58-.31,1.05-.35,1.4-.13.36.23.71.67,1.06,1.32.35.65.52,1.19.52,1.61,0,.42-.3.79-.88,1.1l-10.92,5.9Z"/><path class="cls-1" d="m418.44,487.91c.45.66.54,1.22.29,1.69-.25.47-.75.95-1.5,1.46-.73.49-1.35.77-1.88.82-.52.06-1.01-.24-1.45-.9l-14.71-21.77c-.44-.66-.54-1.22-.29-1.69.25-.47.73-.94,1.46-1.43.75-.51,1.39-.79,1.91-.84s1.01.24,1.45.9l14.71,21.77Z"/><path class="cls-1" d="m433.57,478.87c-6.18,5.25-10.93,5.93-14.23,2.05l-9.39-11.06c-3.3-3.89-1.86-8.46,4.33-13.71l9.12-7.74c6.18-5.25,10.93-5.93,14.23-2.05l9.39,11.06c3.3,3.89,1.86,8.46-4.33,13.71l-9.12,7.74Zm6.12-11.02c1.84-1.56,2.97-2.94,3.4-4.13.43-1.19.36-2.12-.21-2.79l-9.39-11.06c-.59-.69-1.5-.91-2.73-.67-1.24.24-2.77,1.14-4.61,2.7l-8.87,7.53c-1.84,1.56-2.98,2.93-3.41,4.11-.44,1.18-.36,2.11.22,2.8l9.39,11.06c.57.67,1.47.89,2.72.66,1.24-.23,2.78-1.12,4.62-2.68l8.87-7.53Z"/><path class="cls-1" d="m478.62,432.01c-.24.3-.45.53-.63.71s-.38.31-.6.41c-.22.1-.48.19-.78.27-.29.08-.67.16-1.13.24l-32.87,6.13,16.25,13.31c.62.5.87,1.01.77,1.53-.1.52-.44,1.12-1.02,1.83-.56.68-1.08,1.12-1.56,1.32-.49.21-1.04.05-1.65-.45l-20.32-16.65c-.59-.49-.85-.98-.78-1.49.08-.5.38-1.08.92-1.74.57-.7,1.12-1.18,1.62-1.43.51-.25,1.18-.45,2-.59l32.57-5.89-16.28-13.34c-.61-.5-.87-1.01-.77-1.53.1-.52.43-1.11.99-1.79.57-.7,1.1-1.15,1.59-1.36.49-.2,1.04-.05,1.65.45l20.32,16.65c.62.5.87,1.01.77,1.53-.11.52-.46,1.15-1.07,1.89Z"/><path class="cls-3" d="m160.41,417.19c0,.06-.03.13-.05.2-.05-.02-.14-.04-.14-.07-.01-.06.02-.13.05-.2.05.02.14.04.15.07Z"/><path class="cls-2" d="m367.26,318.87c.14.39.27.78.41,1.17-1.37.66-2.92-.5-4.36.39.12,7.34-1.22,14.3-5.44,20.48-.62.34-1.03.85-1.26,1.51-.4.45-.79.89-1.19,1.34-3.27,2.66-6.9,4.72-10.74,6.44-.84.55-2.07.15-2.75,1.11-.38-.05-.79-.22-1.14-.15-8,1.76-15.96,1.49-23.88-.5-.46-.13-.92-.35-1.37.05.14.12.27.26.42.33.17.08.38.08.57.12,8.29,3.89,16.81,3.78,25.47,1.53,1.82-.43,3.64-.87,5.46-1.3,1.6-.45,3.2-.89,4.81-1.34-.18.3-.36.59-.53.89-.64.46-1.28.92-1.92,1.39-1.73,1.26-4.03,1.47-5.57,3.07-1.14-.43-2.14.16-3.14.49-4.44,1.47-9.02,1.92-13.66,1.93-.23,0-.47-.02-.7-.03-5.62-.73-11-2.2-15.8-5.29-1.18-.76-2.14-.67-3.26-.21-.51-.04-1.04-.11-1.42.36-8.44.77-14.77-3.48-16.25-10.96-.29-1.45-.54-2.95.53-4.31,1.32.49,1.49,1.82,2.04,2.8,3.75,6.67,8.45,8.23,15.38,4.96,5.16-2.44,9.64-5.92,14.11-9.38,3.44-2.67,6.84-5.4,10.25-8.1,2.16-1.55,4.33-3.1,6.49-4.65.19-.07.39-.14.58-.21.31.11.44-.03.45-.32,0,0,.14-.1.13-.1,2.4-1.39,4.79-2.78,7.19-4.17,1.74.05,3.15-.98,4.73-1.45,5.48-1.66,10.63-1.38,15.37,2.12Zm-53.12,31.29c.29-.09.15-.05,0,0,.16.03.32.05,0,0Z"/><path class="cls-2" d="m238.29,357.75c-5.32.17-10.38-1.18-15.44-2.58-1.95-.91-3.89-1.82-5.84-2.72-.66-.47-1.32-.94-1.98-1.41-.05-.25-.1-.49-.15-.74,1.37.33,2.74.66,4.11.99,1.84.49,3.69.99,5.53,1.48,9.02,2.29,17.84,2.17,26.31-2.17-8.66,1.56-17.29,1.97-25.91-.22-.64-.22-1.28-.44-1.93-.66-4.7-2.42-9.16-5.12-12.18-9.67-3.23-4.86-4.41-10.31-4.76-16.01-.08-1.26-.01-2.53-.01-3.85-2.26-.53-4.33.04-6.77-.04,1.17-2.49,3.24-3.12,5.25-3.69,3.87-1.1,7.65-.36,11.39.81,1.12.35,2.14,1.08,3.39.94,2.31,1.3,4.55,2.75,7.07,3.64,0,0-.04-.06-.04-.06.14.17.28.34.42.5.07.09.16.15.27.17.15.11.29.22.44.33.07.08.15.13.26.14,2.22,1.59,4.44,3.18,6.67,4.78,6.64,5.12,13.05,10.54,20.07,15.15,2.64,1.73,5.37,3.35,8.56,3.88,1.34.22,2.75.44,4.02-.41.2-.04.39-.07.59-.11,4.65-1.18,6-5.55,8.37-9.11,3.15,6.52-2.7,13.97-11.96,15.75-.21,0-.41.01-.62.02-2.04-.35-4.08-.7-6.54-1.13-5.22,3.36-11.29,5.52-17.92,5.98-.22,0-.45.02-.67.02Zm14.06-7.55c-.28-.37-.58-.41-.9-.04.27.47.58.29.9.04Z"/><path class="cls-4" d="m189.31,377.93l.05-.05s-.04,0-.05,0v.05Z"/><path class="cls-4" d="m188.72,378.5h0s0-.01.01-.02h-.02s0,.01,0,.02Z"/><path class="cls-4" d="m181.23,385.52c-7.42,7.19-14.79,14.42-22.22,21.6-3.35,3.24-4,3.19-7.27-.1-3.37-3.39-5.74-2.94-8.03,1.67,1.49-.55,2.87-1.06,4.42-1.63,4.05,2.46,6.83,6.6,11.09,9.09.25-1.48-1.25-2.09-.75-3.98,8.24-8.98,16.92-18.45,26.09-28.45-2.09.2-2.63,1.12-3.32,1.79Z"/><path class="cls-4" d="m196.65,365.78c-.38-.45-.86-.48-1.39-.33-.83-.23-1.82.08-2.76-1.07-3.37-12.33-8.33-24.43-15.19-35.79,4.42-5.1,8.91-9.98,12.05-15.68-3.13-6.91-5.64-13.75-7.22-20.92.16-.51.07-.96-.39-1.28-.08-.55-.17-1.1-.26-1.65.15-.53.01-.96-.4-1.32-.26-1.56-.52-3.13-.78-4.69.16-.89.14-1.76-.42-2.53-.07-1.14-.14-2.28-.22-3.43.16-.89.17-1.77-.33-2.58,0-4.28,0-8.55,0-12.83.42-.62.45-1.3.23-1.99.13-1.55.27-3.09.4-4.64.56-.54.55-1.2.38-1.88.08-.77.15-1.52.23-2.29.32-.19.4-.45.26-.79,1.15-7.96,3.66-15.53,6.68-22.98-3.61-3.04-7.08-5.96-10.48-8.82-19.7,19.71-39.2,39.24-58.9,58.96,5.53,5.36,11.29,10.93,17.39,16.85-6.09,5.92-11.78,11.44-17.42,16.93,22.39,22.32,44.68,44.54,67.14,66.95,4.08-3.78,8.3-7.7,12.73-11.82-.77-.22-1.05-.3-1.33-.38Z"/><path class="cls-4" d="m189.89,377.36s.03-.03.05-.05l.05-.05s-.06,0-.09,0c0,.03,0,.06,0,.09Z"/><path class="cls-4" d="m295.53,452.1s.09,0,.07.06l-.03.12v-.09s.02-.06-.01-.06l-.1-.05c-.38-.11-.73-.18-1.06-.19-.04.04-.16.07-.24.11-.17-.03-.38-.02-.6.01-.11.02-.22.04-.34.08-.12.03-.24,0-.35.01-.34,0-.64,0-.82-.04-.62,0-1.25,0-1.87,0-.1.08-.17.17-.17.26.26-.07.78-.22.86-.04-.26.07-.71.12-.73.24-.27-.21.49-.06.14-.24-.18,0-.26.07-.34.11.12-.09-.16-.15-.22-.2-.59,0-.93-.09-1.56-.11.02.02.03.02-.01,0h.01s-.01-.01-.02-.02c-.13,0-.26,0-.39,0-.21.12-.39.29-.31.38-.36,0-.38-.09-.69-.03.49.19-.1-.03-.15.17-.32.02-.11-.1-.26-.15-.05.02-.18.09-.19.14.03.03.09.05.18.07-.14,0-.19-.04-.18-.07-.17-.14.24-.34.2-.51-.16,0-.32,0-.48,0v.08s-.09,0-.09,0l.02-.08c-.15,0-.31,0-.46,0,0,.26.07.57.2.71-.02.12-.3-.13-.44-.14-.4-.19-.61.15-.94.07l.25-.11c-.06-.05-.55.01-.62.08-.01-.07.25-.34.1-.42-.6-.04-1.16.33-1.12.53l.92-.21c.03.17-.65.17-.61.37l-.84-.06c.11,0,.43-.05.3-.15-.36,0-.19-.03-.43-.11.24-.12.59-.35.89-.58-.24,0-.48,0-.71,0-.24.22-.43.44-.51.54-.33-.04-.22-.4-.14-.47-.64-.02-.63.51-1.28.45l.24.08c-.15.03-.71-.04-.65.03-.13-.1-.25-.32-.11-.38l-.57.34c.08-.04.03-.32.06-.37-.23-.01-.39.33-.24.38-.45-.21-.34-.09-.71-.34-.13.02.02.3.11.34-.3.08-.48.04-.62,0h-.02s0,0,0,0c-.16-.03-.27-.05-.48.11l.31-.48.16.37h.02c.34-.08.27-.36.23-.59-.11,0-.22,0-.34,0l-.73.59c.04-.05.12-.32.11-.36-.09.25-1.31.28-1.91.28h.09c.12-.09-.4-.16-.61-.07.04-.05.08-.04.17-.04-.4-.19-.52.38-.93.16.37.03.44-.08.42-.18-.3.09-1.01-.01-.86.29-.2-.06-.37-.03-.36-.18-.05,0-.09.01-.14.02.01.04.03.07.04.09.05.11.1.21.14.31l-.13.71.08.03-.21.12c.05.09.09.15.07.16-.02.02-.05,0-.08-.04.01.07.03.14.05.18.03,0,.05-.01.08-.04-.03.08-.05.08-.08.04-.11.03-.24-.1-.36-.23l-.04.06c.14.34.31.73.45.42l-.13.41c.21.48.17.4.33.99-.07.03-.14-.12-.19-.02.24.43-.28,1.05-.07,1.14.05.35.18.14.24.37-.02-.01-.07-.03-.07.03l.15.26c-.05.11-.11-.24-.17.05.11.51.19.8.12,1.23.04.6.3-.26.27.25-.12.07-.27.14-.29.46.09.17.18.15.24.43l-.19-.02c0,.26.04.47-.1.48.08.22.07.36.04.48.1.4.39-.29.46-.39-.14.39-.06.66-.29.89l-.05-.35c-.24.74.27.7-.13,1.05.02-.25-.09-.56-.19-.41l.1.37c-.05.04-.04-.21-.09-.04.04.11.14.32.2.42l.06.03s-.03.02-.06-.03h-.01s.03.66.03.66c0-.13-.06-.16-.07-.03l.1.44c-.05-.13-.11,0-.14.2-.06.56.43.45.24.89,0-.06-.02-.07-.02-.14l-.09.22c.12.01.18.14.2.32.01.12.02.12.02.14,0,.02,0,.04.01.05.05.03.11.03.21-.09.04.16.04.19-.04.15-.02,0-.05-.03-.07-.04,0,0-.02,0-.03,0-.03,0-.07.01-.13.02-.02.04-.03.08-.03.14-.05-.03-.05-.07-.12-.09-.09.15.46.4.69.47.08.16-.31.12.08.42.54.43.12-.3.44-.05l.06.36c.49.26.67.64.96.97.08.06.13.08.17.08h0s.04,0,.04,0c.06-.03.03-.16.21.02l-.21-.02s-.02,0-.03,0c.27.4.85.55,1.05.85-.09-.03.05.24.05.3l.55.36c-.24-.16-.32-.07-.44-.02.15.13.27.15.37.24-.09-.03-.18-.06-.14.06l.62.33s-.06-.1-.11-.15c.12.12.43.32.54.56-.05.02-.14,0-.19,0-.05-.24-.21-.24-.35-.25.35.31.06.1.16.32.24.23.44.21.46.08.23.29.29.4.65.58l-.17.07.28.21-.34-.06c.4.55.29-.11.75.47l-.1.1c.24.16.48.06.52.34.26.13-.19-.48.29-.04.03.13.17.35.28.5.19.1,0-.23-.1-.31.75.64.09.78.84,1.26-.14-.29.37-.02-.13-.52.3.18.33.62.69.76l-.29-.03c.09.09.24.15.3.18l-.12.08c.49.13.49.66.91.61-.31.05.24.22.3.41-.38-.13-.73-.73-.93-.6.07.17.26.19.32.36.1.05.15.09.01.03,0-.01,0-.02-.01-.03-.11-.05-.27-.13-.33-.12.3.48.72.51,1,.7l-.46-.38c.2-.13.22.16.47.14.06.15.16.23.27.31.05.04.1.07.15.11.02.02.04.04.06.06,0,.01.01.03.02.04-.03-.03-.03,0-.08-.05.14.14.14.27.2.46.04.18.1.37.17.45.01.02.03.03.04.05.17-.16.35-.48.24-.5.05-.11-.14.14-.23.14-.04-.08-.04-.16,0-.26h0c.06.19.17.04.24-.09.04-.07.08-.14.13-.2.01-.02.08-.08.16-.13.07-.05.15-.1.25-.15-.17.33.29,0,.12.29.26-.28.23-.33.29-.52h.16c.2-.52-.06-.24.4-.85-.13.24.33-.09.24.1.16-.14.28-.3.35-.46v.03c.51-.57.54-.33.97-.9h-.1c.54-.76,1.47-1.47,2.1-2.18l-.28.19c.1-.04.39-.51.68-.64-.04.05-.09.14-.14.17.06.05.22.05.39-.09v-.14s.11,0,.11,0c.25-.24-.19-.05.07-.29.37.1,1.12-.99,1.53-.98.01-.34-.5.42-.46.09.1-.05.17-.05.34-.19l-.15-.05c.82-.66,1.19-.85,1.85-1.51v.05c.27-.19.39-.32.42-.51.1,0-.06.19.08.14.19-.66,1.05-.58,1.15-1.01.07.11.26.11.44.11.2-.18.39-.34.56-.5v-10.68s0-.06-.01-.09c0-.02,0-.03.01-.04v-.45s0,0,0-.01c0-.01,0-.03,0-.04v-.48c-.03-.08-.07-.13-.11-.14.03-.09.08,0,.11.02v-.03l-.07-.31s.05,0,.07,0v-1.18s-.08-.02-.12-.03h.03Zm-22.05,8.3c0-.13.01-.19.06-.23l.05.02-.11.21Zm-.04,3.48l-.17.06.18-.12v.06Zm.56,1.63c.08.09.22.17.3.27-.13.18-.08-.09-.3-.27Zm7.02-12.64c-.12-.2.02-.16.27-.23.02-.01.06-.03.13-.05-.05.02-.09.03-.13.05-.1.06.31.06.21.14-.38-.09-.06.17-.48.1Zm10.05-.35c-.45.01.03-.08.07-.14.33.04-.03.09-.07.14Zm.94-.11v-.19c.07.05.07.08.17.11l-.17.07Z"/><path class="cls-4" d="m272.54,453.55v.26s.04.05.07.08c.04-.07.08-.13.12-.2-.06-.08-.13-.15-.19-.14Z"/><path class="cls-4" d="m272.54,454s.02-.03.03-.05c-.01-.03-.02-.05-.03-.07v.12Z"/><path class="cls-4" d="m209.74,194.36c15.06-14.73,32.84-24.36,53.59-28.42.34.14.61.07.79-.26,6.08-1.3,12.28-1.4,18.45-1.97,4.58.33,9.16.65,13.74.98.41.02.82.05,1.24.07,3.39.6,6.77,1.21,10.16,1.81,10.69,2.89,20.89,6.96,30.4,12.67.22.53.69.6,1.17.66h0c7.77,5.4,15.19,11.23,21.64,18.31,1.82-1.95,3.35-3.59,4.54-4.86-5.39-5.65-10.63-11.15-15.87-16.64-.77-1.24-1.9-2.12-3.02-3-.2-.59-.53-1.03-1.17-1.18-.71-.78-1.1-1.97-2.43-2h0c-.3-1.45-1.54-2.2-2.47-3.13-8.96-9.03-17.97-17.99-26.96-26.99-4.05-4.05-8.06-8.14-11.61-11.72-4.8,4.46-9.3,8.64-13.8,12.82-1.36,1.21-2.72,2.41-4.41,3.92-5.65-5.73-11.19-11.35-16.83-17.08-1.75,1.56-3.47,2.99-4.8,4.84-.79.74-1.61,1.45-2.38,2.21-9.93,9.82-19.85,19.64-29.78,29.46-.19.21-.38.41-.57.62-1.2,1.19-2.41,2.37-3.62,3.56-.19.21-.37.42-.56.62-7.32,7.37-14.64,14.73-22.04,22.19,1.63,1.73,2.98,3.17,4.62,4.92.72-.88,1.28-1.72,1.98-2.41Z"/><path class="cls-4" d="m386.44,181.45c11.29-10.62,22.56-21.24,33.82-31.88,4.67-4.41,6.68-4.74,12.34-1.7,1.22.65,2.34,1.49,3.47,2.31,4.05,2.94,7.48,6.46,9.71,11.06,2.83-2.74,3.22-4.96,1.57-8.15-2.68-5.18-6.91-8.89-11.58-12.19-6.09-4.3-9.82-3.93-14.83,1.48-9.93,10.71-19.92,21.37-29.77,32.15-2.27,2.48-4.97,4.68-6.66,7.85,1.18.27,1.48-.5,1.93-.93Z"/><path class="cls-4" d="m380,187.54l-.02.02s-.07.05-.1.08c.04-.01.08-.04.13-.05,0-.01,0-.03-.01-.04Z"/><path class="cls-4" d="m160.21,417.32s.1.05.14.07c.02-.07.06-.14.05-.2,0-.03-.1-.05-.15-.07-.02.07-.06.14-.05.2Z"/><path class="cls-4" d="m286.25,132.45c3.18-3.2,6.35-6.4,9.22-9.29-3.96-4.01-7.81-7.91-11.24-11.38-3.14,2.91-6.34,5.86-9.52,8.81-1.04.57-1.92,1.27-2.07,1.71,4.01,4.27,7.74,8.25,11.63,12.39.72-.81,1.36-1.52,1.99-2.24Z"/><path class="cls-4" d="m188.42,186.13c.18.18.36.36.54.53.22.2.44.39.66.59.2.2.41.39.61.59.21.19.42.39.63.59.2.19.41.39.62.59.22.19.43.36.65.55.19.21.37.42.56.63.22.19.43.38.65.57.16.22.32.48.6.07-.13-.11-.25-.23-.38-.34-.19-.21-.38-.42-.57-.63-.2-.19-.41-.38-.62-.57-.19-.21-.39-.41-.58-.62-.2-.2-.39-.4-.59-.6-.19-.21-.38-.42-.56-.63-.2-.2-.39-.4-.59-.6-.17-.23-.34-.45-.51-.68-.2-.2-.39-.4-.59-.6-.99-1.57-2.26-2.9-3.73-4.03-7.27-7.88-14.54-15.77-21.82-23.65-5.19-5.61-10.35-11.27-15.66-16.78-2.54-2.64-5.68-4.32-9.39-2.5-6.76,3.32-12.25,8.11-15.74,14.89-1.63,3.18-1.17,4.88,1.6,7.58.62-.1.62-.71.84-1.1,3.48-6.22,8.72-10.49,15.16-13.33,3.07-1.35,5.7-1,8.36,1.56,11.88,11.45,23.95,22.71,35.95,34.04,1.11,1.49,2.3,2.93,3.94,3.89Z"/><path class="cls-4" d="m112.71,282.45c-3.95,3.91-7.88,7.79-11.48,11.35,3.83,3.93,7.69,7.89,11.11,11.41,3.9-3.77,7.86-7.59,11.66-11.24-3.74-3.82-7.55-7.71-11.28-11.52Z"/><path class="cls-4" d="m273.2,460.94c-.05.17-.13.25.04.37.09-.07,0-.27-.04-.37Z"/><path class="cls-4" d="m190.11,286.24c.99,5.08,2.21,10.12,4.64,15.35,3.04-6.99,3.25-14.09,5-20.86,3.04,5.51,2.24,11.33,1.89,17.11-.4.39-.47.85-.29,1.36-1.87,11.4-7.2,21.2-14.21,30.18,4.97,8.92,8.96,18.03,11.84,27.62-.07.38.08.63.48.72.03.14.12.22.27.22.32.07.64.14.96.22,13.98,2.79,26.99,7.8,38.42,16.5l.16.13.22.17c4.45,4.33,9.58,8.14,11.27,14.66-5.98-3.73-11.13-8.66-17.73-11.78-.04,5.73-1.05,10.96-2.79,16.78,1.12.92,2.42,1.98,3.71,3.04.25.22.51.45.77.68l-.16.08c1.53,1.75,3.06,3.49,4.66,5.31.7-1.17,1.02-2.09,1.08-3.1,1.26-1.39,1.51-3.48,3.34-4.83.08,1.18.14,2.09.2,3.01-.45,2.88-.91,5.76-1.33,8.43,2.02,2.09,3.73,3.98,5.94,5.32.35.88,1.15,1.27,1.88,1.74.23.49.69.58,1.15.66.56.42,1.12.83,1.69,1.24,1.24.9,2.4,1.95,4.05,2.27.5-1.23.59-2.36.36-3.53.42-1.18.66-2.39.41-3.65,1.17-1.14,1.07-2.7,1.34-4.13,1.16-1.71.91-4.19,2.96-5.41.05.16.1.32.15.48.09.27.19.53.27.8.19,3.33.38,6.65.56,9.98-.08.41-.17.82-.25,1.24-.04.41-.08.83-.13,1.24-.16,1.18-.32,2.36-.47,3.53-.24.65-.3,1.29.19,2.07.38.13.91.3,1.44.48.68.64,1.54.52,2.36.59.22.1.45.19.67.28,2.44,1.05,5.03,1.39,7.66,1.51,1.9.66,3.84.29,6.05.45v-7.74c.51-2.44.99-4.88.62-7.39,1.38-1.62.36-4.15,2.18-5.77.28.75.53,1.38.74,2.01.25.73.45,1.47.68,2.21-.24,1.84.38,3.57.66,5.35-.32,3.7.72,7.35.22,10.95.93.72,1.81.46,2.67.39.22-.01.44-.02.66-.03,1-.16,2.01-.31,3.02-.47l.23.08.23-.08c4.07-.42,8.03-1.26,11.67-2.87.42-.87.27-1.51-.11-2.12.15-.1.17-.22.05-.35-.21-2.64-.42-5.28-.63-7.92.13-1.2.41-2.4,0-3.6.78-1.71-.16-3.74,1-5.39.41.43.82.86,1.24,1.29.62,1.79,1.23,3.57,1.84,5.35.37,1.4.74,2.8,1.11,4.2.21,2.01.42,4.02.67,6.44,4.15-2.54,7.77-4.87,10.74-8.08,1.7-1.01,2.88-2.55,4.21-4.01-.3-1.08-.58-2.09-.87-3.11-.18-1.61-.35-3.23-.53-4.84-.02-.27-.05-.54-.07-.81-.08-.71-.16-1.42-.23-2.12,1.42-.37,1.53.95,2.07,1.65.84,1.08.97,2.58,2.07,3.52-.09.49-.03.94.38,1.28.07.33.15.66.3,1.37.44-.71.68-1.09.91-1.48,1.46-.87,2.28-2.35,3.4-3.55.22.01.32-.09.31-.3l.08-.11c1.41-1.49,2.83-2.98,4.17-4.39-1.75-5.38-2.53-10.62-2.6-15.97-1.43-.05-2.3.74-3.16,1.32-3.78,2.55-7.47,5.25-11.26,7.8-.69.47-1.45,1.91-2.56.42.11-.23.23-.47.33-.7,1.19-2.97,3.68-5,5.46-7.54,1.05-.96,2.11-1.91,3.16-2.86.33-.3.67-.59,1-.89,3.96-3.11,8.17-5.85,12.51-8.4.9-.19,1.71-.54,2.39-1.18h0c.89-.25,1.78-.48,2.47-1.14.81-.36,1.61-.72,2.41-1.09,1.13-.14,2.17-.52,3.1-1.18.39-.14.78-.29,1.18-.43,5.46-1.51,10.84-3.35,16.68-4.24.26-2.22,1.64-4.02,1.63-6.24,3.22-7.53,6.1-15.19,10.43-22.15-6.07-7.84-10.71-16.19-13.4-25.54.11-.49.11-.96-.35-1.3-.11-.56-.22-1.11-.32-1.67.1-.49.11-.96-.38-1.27-.26-2.76-.52-5.52-.78-8.28.79-3.76.17-7.86,2.7-11.52,1.46,2.41.73,5.03,1.62,7.27-.02,4.91,1.78,9.4,3.25,14.67,1.26-3.02,2.35-5.4,2.65-8.08.43-1.12,1.09-2.21.54-3.47.76.16.62-.48.71-.88,1.69-7.6,2.77-15.26,2.31-23.08.35-4.88-.32-9.68-1.2-14.45-1.52-8.25-3.69-16.32-7.76-23.75-1.8-5.18-4.71-9.78-7.85-14.21-6.68-9.44-14.52-17.76-24.39-24-.38-.25-.77-.49-1.15-.74-12.4-8.82-26.35-13.43-41.33-15.25-7.35-.96-14.7-1.08-22.06-.01-.22,0-.43.01-.64.02-.66-.08-1.31-.11-1.87.33-.19-.13-.35-.1-.48.09-.79.04-1.6,0-2.38.14-15.01,2.65-28.67,8.42-40.75,17.74-3.17,2.45-6.64,4.64-8.9,8.11h0c-.72-.1-1.03.51-1.4.9-7.67,7.91-14.19,16.62-18.49,26.85-.14.14-.32.26-.39.42-8.52,18.49-10.89,37.74-7.01,57.72Zm81.59,84.47c.11-.14.16-.29.15-.47.15-.23.3-.47.45-.7,2.65-4.57,6.11-8.28,11.08-10.38,4.3,1.75,7.48,4.78,10.01,8.57,2.82,5.3,5.64,10.61,4.96,17.39-2.29-1.35-2.93-3.42-3.77-5.13-1.12-2.3-2.82-3.53-5.13-4.03-4.02-.87-8.07-.86-12.09-.02-2.45.51-4.23,1.84-5.27,4.29-.71,1.67-1.53,3.42-3.57,5.19-.92-5.74,1.33-10.19,3.18-14.71Z"/><path class="cls-4" d="m272.88,452.26s0,0-.01,0c0,0,0,0-.01,0,0,0,.01,0,.02,0,0,0,0,0,0,0Z"/><path class="cls-4" d="m342.48,373.26c-.29,3.38-.25,6.64-.02,9.9.06.27.13.53.19.8.59,4.18,1.89,8.16,3.42,12.07-1.26,2.04-3.61,3.08-4.35,5.39-.65.08-1.06.41-1.4.82-.35.41-.62.91-.97,1.31-1.1.85-2.18,1.73-2.66,3.11l-.16.17c-1.4,1.14-2.74,2.33-3.59,3.96-1.58.89-2.68,2.33-3.91,3.6-12.65,13.2-28.3,18.93-46.39,18.63-.25,0-.49,0-.74,0-2.54-.13-5.08-.26-7.62-.39-.16-.35-.42-.44-.77-.32-.36.01-.71.02-1.07.02-.61-.04-1.22-.08-1.84-.11-.19-.04-.38-.08-.57-.13-.72-.63-1.58-.5-2.43-.45-2.33-.65-4.66-1.29-6.99-1.93-1.29-.97-2.86-1.21-4.35-1.66-.22-.6-.74-.53-1.22-.55-.78-.44-1.55-.88-2.33-1.32-.38-.75-1.17-.84-1.82-1.15-3.53-2.19-6.69-4.88-9.93-7.45-1.55-1.53-3.09-3.07-4.64-4.6-5.13-5.62-10.27-11.24-15.48-16.95.73-2.22,1.46-4.47,2.19-6.7.48-.32.5-.77.38-1.26.04-.36.08-.72.13-1.08.42-.37.52-.83.38-1.36.05-.56.11-1.12.16-1.67.41-.6.57-1.23.31-1.94.27-2.77.39-5.53-.13-8.28.17-.33.02-.44-.3-.44-1.52-.64-3.05-1.28-4.65-1.95-7.14,6.67-14.17,13.22-21.38,19.95,8.45,8.09,16.2,16.58,24.75,24.27,2.11,2.13,4.21,4.26,6.32,6.38.91.82,1.83,1.66,2.74,2.48.54,1.43,1.82,2.15,2.92,3.04.33.4.67.81,1,1.21,2.44,2.43,4.9,4.85,7.35,7.29,7.04,7.27,14.11,14.52,21.49,21.45.18.08.36.16.53.24,0-.16-.01-.32-.02-.47v-12.56h6.76c.21,0,.42,0,.63,0h14.32c.21,0,.42,0,.63,0h5.94c.22,0,.44,0,.65,0,.98,0,1.95,0,2.93,0,.62,0,1.23-.01,1.84-.02.39,0,.78.01,1.17.02.21,0,.42,0,.63,0,.83.25,1.78-.21,3.01.75v12.37c1.1-1.46,1.69-2.24,2.28-3.02,2.71-1.55,4.55-4.05,6.68-6.22.2-.22.41-.44.62-.66.91-.4,1.51-1.13,1.99-1.97.16-.01.25-.1.26-.26.23-.26.47-.51.71-.77,10.84-10.26,21.35-20.86,31.72-31.59.4-.41.8-.81,1.2-1.21.71-.22,1.2-.65,1.37-1.39.13-.01.22-.08.26-.2,2.75-2.74,5.51-5.49,8.25-8.23.15-.07.23-.19.26-.35,1.02-.6,1.84-1.4,2.44-2.41,1.68-1.5,3.46-2.91,4.76-4.78,1.7-1.33,3.25-2.8,4.58-4.5-7.07-6.59-14.03-13.07-21.09-19.65-2.51.94-4.9,1.84-7.35,2.76Z"/><path class="cls-4" d="m381.68,379.01s.05.06.08.1c.04.03.08.07.11.1-.03-.04-.05-.08-.08-.12-.04-.03-.08-.06-.11-.07Z"/><path class="cls-4" d="m272.71,452.2s0-.01,0,0c0,0,0,0,.01,0,0,0-.01,0-.01,0,0,0,0,0,0,0Z"/><path class="cls-4" d="m272.82,453.52c.05-.13.08-.24.03-.31-.04.12-.04.22-.03.31Z"/><path class="cls-4" d="m272.74,452.42s0-.05,0-.07c0-.02,0-.03,0-.04,0,.03,0,.07,0,.11Z"/><path class="cls-4" d="m450.11,276.97c-6.51-6.53-12.85-12.94-19.24-19.3-9.35-9.31-18.72-18.6-28.08-27.9-1.39-1.37-2.77-2.74-4.16-4.11-2.09-2.2-4.18-4.39-6.37-6.68-4.12,3.49-8.03,6.81-12.12,10.28,2.42,5.28,3.63,10.78,5.3,16.15-.24,1.08,0,2.07.53,3.02.2,1.18.41,2.37.6,3.56-.11.74-.12,1.46.27,2.13.52,3.26.11,6.61.94,9.83-.03,9.64-.77,19.19-2.93,28.61-1.2,3.8-2.39,7.6-3.58,11.39-.47,1.33-.94,2.65-1.42,3.99-1.03,1.73-2.27,3.39-1.95,5.58,3.01,5.6,7.48,10.09,11.47,14.94-.98,2.01-1.92,3.93-2.85,5.85-3,4.87-5.42,10-7.26,15.41-1.02,1.74-1.57,3.65-2.07,5.58-1.05,3.19-2.09,6.38-2.89,8.8-.78,1.57-1.89.85-2.38,1.64.52.88,1.2,1.55,2.07,2.04,3.29,3.11,6.58,6.23,9.76,9.24,6.92-6.78,13.64-13.36,20.35-19.93,3.57-3.13,6.81-6.58,10.02-10.05,6.43-5.88,12.44-12.18,18.49-18.45.8-.82,1.61-1.66,2.41-2.48,1.24-.77,2.24-1.78,3.05-2.99,3.95-3.99,7.88-7.98,12.19-12.35-5.79-5.55-11.5-11.02-17.65-16.9,6-5.8,11.7-11.31,17.47-16.89Z"/><path class="cls-4" d="m460.14,287c-1.35-1.78-2.98-3.23-4.81-4.78-1.92,2.04-3.66,3.89-5.39,5.74-.97.95-1.94,1.9-2.92,2.85-1.27.92-2.37,2-3.03,3.02,3.99,4.06,7.8,7.94,11.71,11.92,3.81-3.84,7.66-7.72,11.64-11.75-.81-.74-1.6-1.45-2.39-2.16-1.61-1.61-3.21-3.23-4.82-4.84Z"/><path class="cls-4" d="m386.3,384.36c8.92,9.72,17.67,18.79,25.77,28.27-.41,1.18-.69,2.01-.97,2.84.9.12,1.34-.6,1.94-1.06,3.03-2.3,5.37-5.43,8.69-7.33,1.6-.02,2.87.8,4.25,1.23-.95-1.98-2.33-3.37-4.84-3.44-.99.89-2.01,1.81-3.04,2.74-2.87,2.61-3.69,2.84-6.51.17-7.26-6.9-14.3-14.02-21.47-21.02-.91-.9-1.6-2.24-3.82-2.41Z"/><path class="cls-4" d="m272.99,452.16c-.16-.04-.27.02-.27.04,0,0,.01,0,.03.02,0,0,0,0,.01,0,.03.01.07.03.12.03.01,0,.03,0,.04,0,.03,0,.05,0,.09.01.05,0,0,0,.02.01.05,0-.02-.01-.11-.02,0,0-.02,0-.03,0,0,0,0,0,0,0,0,0,0,0,0,0,0,0,0,0,0,0-.01,0-.02,0-.03,0,0,0,0,0,0,0-.02,0-.04,0-.05-.01,0,0,0,0,0,0,0,0,0,0,0,0,0,0,0,0,0,0-.02,0-.04-.01-.05-.02.02,0,.04.01.04.01.02.02.04.04.07.07l.04.05.06.1s0,0,0,.01c.08,0,.16-.01.22,0,.06,0,.11.03.15.07.01-.19-.14-.28.06-.44-.14.01-.27.04-.4.06Z"/><path class="cls-4" d="m426.01,408.33s-.02,0-.03-.01c0,0,0,.02.01.02h.02Z"/><path class="cls-1" d="m479.15,289.77c-5.65-5.18-11.02-10.64-16.26-16.23-7.35-6.78-14.23-14.05-21.29-21.14-8.18-8.21-16.4-16.37-24.6-24.56-.42-.43-.85-.87-1.27-1.3-2.91-2.7-5.87-5.35-8.34-8.48-2.15-2.03-4.3-4.07-6.61-6.26,14.68-12.37,29.18-24.59,43.69-36.81,1.94-1.72,3.87-3.43,5.82-5.14.13-.15.24-.31.38-.45,6.65-7.35,6.88-12.36,1.05-20.45-2.61-3.63-5.85-6.63-9.09-9.66-3.14-1.95-6.01-4.32-9.45-5.77-7.05-2.22-12.58.42-17.3,5.48-10.76,11.5-21.49,23.03-32.23,34.54-1.64,2.31-3.63,4.3-5.72,6.2l-.05.02c-.45.47-.91.94-1.36,1.4-.21.23-.42.45-.63.68-.63.84-1.27,1.69-1.86,2.5-1.15-.07-1.64-.76-2.06-1.54l-.05-.04c-5.89-5.49-11.59-11.17-17.07-17.07-2.01-1.6-3.77-3.45-5.42-5.41-1.41-.93-2.55-2.13-3.55-3.48-16.54-16.44-33.1-32.86-49.62-49.32-4-3.99-7.9-8.08-12.71-13.02-5.08,5.48-9.86,10.63-14.64,15.79-.75,1.21-1.74,2.18-2.97,2.9-.75,1.26-1.89,2.13-3.01,3.03-2.12,2.64-4.58,4.92-7.12,7.14-.46.51-.9,1.05-1.39,1.53-13.31,13.37-26.62,26.73-39.93,40.1-.18.21-.36.42-.54.62-5.89,6.15-11.77,12.3-17.83,18.63-6.69-7.2-12.76-13.72-18.82-20.25-7.62-8.21-15.22-16.44-22.86-24.64-3.78-4.06-8.13-6.95-14.02-6.46-.33.43-.77.56-1.29.42-1.3.1-2.47.54-3.57,1.2-.11.26-.22.52-.33.78-.34-.08-.62-.15-.9-.22-8.88,5.32-16.36,11.89-19.76,22.1.02,1.4.04,2.82.05,4.23,1.15,4.19,3.83,7.36,7.04,10.09,10.98,9.34,22,18.61,33.01,27.91,4.52,3.83,9.03,7.67,13.96,11.87-27.94,27.83-55.6,55.38-83.56,83.23,30.59,30.45,61.15,60.87,91.8,91.37-3.68,3.44-7.22,6.75-10.77,10.06-.2.19-.39.38-.59.57-3.44,3.17-6.87,6.34-10.26,9.47-1.99-1.48-3.04-3.59-5.29-4.18-.24-.12-.48-.24-.73-.36-.74,0-1.48-.01-2.23-.02-.25.12-.49.25-.74.36-3.3,1.49-5.74,3.82-7.13,7.21.12.5.05.94-.38,1.28.02.34.03.68.05,1.03.41.32.51.74.39,1.23.15.93.69,1.6,1.34,2.25,6.25,6.25,12.45,12.55,18.75,18.76,2.6,2.56,6.04,2.41,8.8-.04,1.08-.95,1.75-2.4,3.34-2.76h0c1.45-2.88,2.34-5.75.02-8.63-.55-.39-1.13-.77-1.31-1.49-.68-.41-1.42-.75-1.52-1.86,7-6.56,14.07-13.18,20.64-19.34,6.38,6.04,12.56,11.9,18.75,17.75,2.78,2.8,5.56,5.61,8.34,8.4.21.22.42.43.63.65.2.2.38.39.57.59,1.21.56,1.96,1.56,2.53,2.73l.08.06c.82.08,1.2.68,1.51,1.33,8.9,8.76,17.83,17.51,26.7,26.31,3.87,3.84,7.63,7.78,11.44,11.68,4.81,4.46,9.46,9.08,13.92,13.9,1.76,1,2.93,2.59,4.14,4.13,1.12.7,1.97,1.65,2.61,2.79,1.63.42,2.02,2.4,3.77,2.93,1.36-1.27,2.79-2.58,4.21-3.9.22-.19.44-.39.66-.59.3-.54.6-1.09,1.26-1.3.04-.19.16-.28.35-.29.07-.35.19-.65.62-.68l19.3-19.28c1.78-2.13,3.77-4.03,5.91-5.79.1-.81.76-1.08,1.36-1.41l.15-.16c.95-1.05,1.89-2.1,2.91-3.07,1.02-.96,2.13-1.83,3.43-2.49-.44-1.67,1.26-1.75,1.94-2.58l.13-.06c1.86-2.36,3.9-4.52,6.3-6.35.22-.16.43-.33.65-.49.82-1.06,1.26-2.56,2.95-2.65l.02-.04c1.16-2.87,3.83-4.37,5.87-6.43.19-.19.37-.38.56-.58.51-.68,1.01-1.37,1.85-1.69,2.15-2.64,4.66-4.93,7.16-7.21.54-1.07,1.42-1.81,2.4-2.43.19-.2.37-.39.55-.59,3.98-4.21,7.95-8.44,12.31-12.28.28-.27.57-.55.85-.82.96-.97,1.91-1.95,2.86-2.93.87-.79,1.73-1.59,2.6-2.39,1.66-2.21,3.72-4.02,5.73-5.92,1.15.63,2.08,1.32,2.67,2.39,6.63,6.08,13.26,12.16,20.08,18.42-1.48,1.39-2.68,2.53-3.89,3.67-1.8,4.28.07,7.32,3.19,10.14,3.81,3.46,6.83,3.44,10.55-.07,3.57-3.38,6.61-7.3,10.69-10.15.28-1.12,1.21-1.73,1.94-2.51,2.33-2.5,5.03-4.66,6.85-7.6,1.06-3.66-1.23-5.95-3.4-8.28-5.37-4.26-6.31-4.15-12.97,1.71-6.23-5.92-12.49-11.87-18.75-17.82-.38-.39-.77-.79-1.15-1.19-1.02-.45-1.75-1.24-1.94-1.49,12.87-13.18,25.63-26.25,38.38-39.32,3.69-4.21,7.81-8,11.88-11.84,3.07-3.64,6.52-6.9,10.05-10.08,4.57-4.67,8.99-9.48,13.89-13.81,4.97-5.34,10.1-10.53,15.48-15.46.19-2.63-2.6-3.23-3.51-5.12Zm-87.98-115.25c9.85-10.78,19.83-21.45,29.77-32.15,5.02-5.41,8.74-5.78,14.83-1.48,4.67,3.3,8.9,7.01,11.58,12.19,1.65,3.19,1.26,5.42-1.57,8.15-2.23-4.61-5.65-8.12-9.71-11.06-1.12-.81-2.25-1.66-3.47-2.31-5.66-3.04-7.68-2.71-12.34,1.7-11.26,10.65-22.54,21.27-33.82,31.88-.45.42-.75,1.2-1.93.93,1.7-3.17,4.39-5.37,6.66-7.85Zm-11.19,13.04l.02-.02s0,.03.01.04c-.05.02-.1.04-.13.05.03-.02.07-.05.1-.08Zm-105.27-66.97c3.19-2.95,6.38-5.9,9.52-8.81,3.43,3.47,7.28,7.37,11.24,11.38-2.87,2.89-6.04,6.09-9.22,9.29-.63.72-1.27,1.43-1.99,2.24-3.89-4.14-7.62-8.12-11.63-12.39.15-.44,1.03-1.14,2.07-1.71Zm-49.54,49.06c.19-.2.38-.41.56-.62,1.21-1.19,2.41-2.37,3.62-3.56.19-.2.38-.41.57-.62,9.93-9.82,19.85-19.64,29.78-29.46.77-.76,1.59-1.48,2.38-2.21,1.33-1.85,3.05-3.28,4.8-4.84,5.64,5.73,11.18,11.35,16.83,17.08,1.69-1.5,3.05-2.71,4.41-3.92,4.5-4.18,9-8.36,13.8-12.82,3.55,3.59,7.57,7.67,11.61,11.72,8.98,9,18,17.97,26.96,26.99.93.93,2.16,1.69,2.47,3.13h0c1.33.04,1.72,1.22,2.43,2,.63.16.96.6,1.17,1.18,1.12.88,2.25,1.76,3.02,3,5.24,5.49,10.48,10.99,15.87,16.64-1.18,1.27-2.72,2.91-4.54,4.86-6.45-7.08-13.87-12.91-21.64-18.31h0c-.48-.05-.95-.13-1.17-.66-9.51-5.7-19.71-9.77-30.4-12.67-3.38-.6-6.77-1.21-10.16-1.81-.41-.02-.82-.05-1.24-.07-4.58-.33-9.16-.65-13.74-.98-6.16.56-12.37.67-18.45,1.97-.19.33-.45.41-.79.26-20.75,4.05-38.52,13.68-53.59,28.42-.71.69-1.27,1.53-1.98,2.41-1.64-1.75-2.99-3.19-4.62-4.92,7.41-7.46,14.73-14.82,22.04-22.19Zm-28.06,58.86c.08-.17.26-.28.39-.42,4.3-10.23,10.83-18.94,18.49-26.85.38-.39.69-.99,1.4-.89h0c2.26-3.47,5.73-5.66,8.9-8.11,12.08-9.32,25.74-15.09,40.75-17.74.78-.14,1.58-.1,2.38-.14.13-.19.29-.22.48-.09.56-.44,1.21-.41,1.87-.33.21,0,.42-.01.64-.02,7.35-1.06,14.7-.95,22.06.01,14.99,1.82,28.94,6.43,41.33,15.25.38.25.77.5,1.15.74,9.87,6.23,17.71,14.56,24.39,24,3.14,4.43,6.05,9.03,7.85,14.21,4.07,7.44,6.24,15.5,7.76,23.75.88,4.77,1.55,9.57,1.2,14.45.46,7.82-.62,15.48-2.31,23.08-.09.39.05,1.04-.71.88.56,1.26-.11,2.35-.54,3.47-.3,2.67-1.39,5.06-2.65,8.08-1.48-5.27-3.28-9.77-3.25-14.67-.89-2.24-.16-4.86-1.62-7.27-2.52,3.66-1.9,7.76-2.7,11.52.26,2.76.52,5.52.78,8.28.49.32.47.78.38,1.27.11.56.22,1.11.32,1.67.46.34.46.81.35,1.3,2.7,9.35,7.33,17.7,13.4,25.54-4.33,6.96-7.21,14.63-10.43,22.15.01,2.22-1.37,4.02-1.63,6.24-5.83.9-11.21,2.73-16.68,4.24-.39.14-.78.29-1.18.43-.93.66-1.97,1.04-3.1,1.18-.81.36-1.61.72-2.41,1.09-.69.66-1.58.9-2.47,1.14h0c-.68.63-1.49.99-2.39,1.18-4.34,2.55-8.55,5.28-12.51,8.4-.33.3-.67.59-1,.89-1.05.96-2.11,1.91-3.16,2.86-1.79,2.54-4.27,4.57-5.46,7.54-.11.23-.22.47-.33.7,1.11,1.49,1.87.04,2.56-.42,3.79-2.55,7.48-5.25,11.26-7.8.86-.58,1.72-1.36,3.16-1.32.07,5.35.85,10.59,2.6,15.97-1.34,1.41-2.76,2.91-4.17,4.39l-.08.11c.01.22-.1.32-.31.3-1.12,1.2-1.94,2.68-3.4,3.55-.23.39-.47.77-.91,1.48-.16-.71-.23-1.04-.3-1.37-.41-.34-.47-.79-.38-1.28-1.09-.94-1.23-2.44-2.07-3.52-.54-.7-.66-2.02-2.07-1.65.07.71.15,1.42.23,2.12.02.27.05.54.07.81.18,1.61.35,3.22.53,4.84.29,1.02.57,2.03.87,3.11-1.33,1.46-2.5,3-4.21,4.01-2.96,3.22-6.59,5.54-10.74,8.08-.25-2.42-.46-4.43-.67-6.44-.37-1.4-.74-2.8-1.11-4.2-.61-1.78-1.23-3.56-1.84-5.35-.41-.43-.82-.86-1.24-1.29-1.15,1.64-.22,3.68-1,5.39.41,1.2.13,2.4,0,3.6.21,2.64.42,5.28.63,7.92.11.14.1.26-.05.35.38.62.53,1.25.11,2.12-3.63,1.61-7.6,2.44-11.67,2.87l-.23.08-.23-.08c-1.01.16-2.01.31-3.02.47-.22,0-.44.02-.66.03-.85.07-1.74.33-2.67-.39.5-3.6-.54-7.25-.22-10.95-.29-1.78-.9-3.51-.66-5.35-.23-.74-.44-1.48-.68-2.21-.21-.63-.45-1.26-.74-2.01-1.82,1.63-.8,4.15-2.18,5.77.36,2.51-.11,4.96-.62,7.39v7.74c-2.21-.16-4.15.22-6.05-.45-2.63-.12-5.22-.46-7.66-1.51-.22-.1-.45-.19-.67-.28-.82-.07-1.68.05-2.36-.59-.53-.17-1.06-.35-1.44-.48-.5-.78-.43-1.42-.19-2.07.16-1.18.31-2.36.47-3.53.04-.41.08-.83.13-1.24.08-.41.17-.82.25-1.24-.19-3.33-.37-6.65-.56-9.98-.09-.27-.19-.53-.27-.8-.05-.16-.1-.32-.15-.48-2.05,1.22-1.8,3.7-2.96,5.41-.27,1.43-.17,2.99-1.34,4.13.26,1.26.02,2.46-.41,3.65.23,1.17.13,2.3-.36,3.53-1.64-.32-2.81-1.37-4.05-2.27-.56-.41-1.12-.82-1.69-1.24-.47-.08-.93-.17-1.15-.66-.73-.47-1.52-.86-1.88-1.74-2.21-1.34-3.92-3.23-5.94-5.32.42-2.68.88-5.56,1.33-8.43-.06-.92-.12-1.84-.2-3.01-1.84,1.35-2.09,3.44-3.34,4.83-.06,1.01-.38,1.94-1.08,3.1-1.6-1.82-3.13-3.57-4.66-5.31l.16-.08c-.26-.23-.51-.45-.77-.68-1.29-1.06-2.59-2.12-3.71-3.04,1.74-5.82,2.75-11.05,2.79-16.78,6.6,3.12,11.75,8.05,17.73,11.78-1.69-6.52-6.82-10.33-11.27-14.66l-.22-.17-.16-.13c-11.43-8.7-24.45-13.71-38.42-16.5-.32-.07-.63-.14-.96-.22-.15,0-.24-.07-.27-.22-.4-.08-.54-.33-.48-.72-2.88-9.59-6.86-18.7-11.84-27.62,7.01-8.98,12.34-18.78,14.21-30.18-.18-.51-.11-.97.29-1.36.35-5.77,1.15-11.6-1.89-17.11-1.75,6.76-1.96,13.86-5,20.86-2.44-5.23-3.66-10.27-4.64-15.35-3.89-19.98-1.51-39.23,7.01-57.72Zm-48.58-80.3c-2.66-2.56-5.28-2.91-8.36-1.56-6.44,2.84-11.67,7.11-15.16,13.33-.22.39-.22,1-.84,1.1-2.77-2.7-3.23-4.4-1.6-7.58,3.49-6.78,8.98-11.57,15.74-14.89,3.71-1.82,6.85-.14,9.39,2.5,5.31,5.51,10.47,11.17,15.66,16.78,7.29,7.87,14.55,15.76,21.82,23.65,1.47,1.13,2.74,2.46,3.73,4.03.2.2.39.4.59.6.17.23.34.45.51.68.2.2.39.41.59.6.19.22.38.42.56.63.2.2.39.4.59.6.19.2.39.41.58.62.21.19.41.38.62.57.19.21.38.42.57.63.13.11.25.23.38.34-.29.41-.44.14-.6-.07-.22-.19-.43-.38-.65-.57-.19-.22-.37-.42-.56-.63-.22-.19-.43-.36-.65-.55-.2-.2-.41-.39-.62-.59-.21-.2-.42-.39-.63-.59-.2-.2-.41-.39-.61-.59-.22-.2-.44-.39-.66-.59-.18-.17-.36-.35-.54-.53-1.64-.96-2.83-2.39-3.94-3.89-12-11.33-24.07-22.58-35.95-34.04Zm-47.31,145.59c3.6-3.56,7.53-7.44,11.48-11.35,3.73,3.81,7.54,7.7,11.28,11.52-3.8,3.66-7.75,7.48-11.66,11.24-3.42-3.52-7.27-7.48-11.11-11.41Zm59.13,123.58s-.14-.04-.14-.07c-.01-.06.02-.13.05-.2.05.02.14.04.15.07,0,.06-.03.13-.05.2Zm-1.89-5.22c-.5,1.89.99,2.5.75,3.98-4.26-2.49-7.04-6.63-11.09-9.09-1.55.57-2.92,1.08-4.42,1.63,2.28-4.61,4.66-5.06,8.03-1.67,3.27,3.29,3.93,3.34,7.27.1,7.42-7.18,14.8-14.41,22.22-21.6.69-.67,1.24-1.59,3.32-1.79-9.17,9.99-17.85,19.46-26.09,28.45Zm30.26-33.67h0s0,0,0-.01h.02s0,0-.01.01Zm-3.48-.52c-22.47-22.4-44.75-44.63-67.14-66.95,5.64-5.49,11.33-11.01,17.42-16.93-6.11-5.92-11.87-11.49-17.39-16.85,19.7-19.71,39.2-39.24,58.9-58.96,3.4,2.86,6.87,5.79,10.48,8.82-3.02,7.45-5.53,15.03-6.68,22.98.14.34.07.6-.26.79-.08.77-.15,1.52-.23,2.29.17.69.17,1.34-.38,1.88-.13,1.55-.27,3.09-.4,4.64.22.69.2,1.37-.23,1.99,0,4.27,0,8.55,0,12.83.51.81.49,1.69.33,2.58.07,1.14.14,2.28.22,3.43.56.77.57,1.64.42,2.53.26,1.56.53,3.13.78,4.69.41.35.55.79.4,1.32.08.55.17,1.1.26,1.65.47.32.55.77.39,1.28,1.58,7.17,4.09,14.01,7.22,20.92-3.14,5.7-7.63,10.58-12.05,15.68,6.87,11.36,11.82,23.47,15.19,35.79.94,1.15,1.93.84,2.76,1.07.53-.14,1-.12,1.39.33.27.08.56.16,1.33.38-4.44,4.11-8.66,8.03-12.73,11.82Zm4.06-.05v-.05s.04,0,.05,0l-.05.05Zm.63-.62s-.03.03-.05.05c0-.03,0-.06,0-.09.03,0,.06,0,.09,0l-.05.05Zm105.68,75.98s-.04,0-.07,0l.07.31v.03s-.08-.11-.11-.02c.04,0,.08.07.11.14v.48s0,.03,0,.04c0,0,0,0,0,.01v.45s0,.02-.01.04c.01.03.01.06.01.09v10.68c-.17.15-.36.32-.56.5-.18,0-.37,0-.44-.11-.1.43-.96.35-1.15,1.01-.14.04.02-.14-.08-.14-.03.19-.15.33-.43.51v-.05c-.65.66-1.03.85-1.85,1.51l.15.05c-.18.14-.24.14-.34.19-.04.34.47-.42.46-.09-.41,0-1.16,1.09-1.53.98-.25.24.19.05-.07.29h-.13s.01.14.01.14c-.18.14-.34.14-.39.09.05-.03.1-.12.14-.17-.29.13-.58.6-.68.64l.28-.19c-.63.71-1.56,1.42-2.1,2.17h.1c-.42.57-.46.33-.98.9v-.03c-.06.15-.18.32-.34.46.09-.19-.37.14-.24-.1-.46.62-.2.33-.4.86h-.16c-.06.19-.03.24-.29.52.16-.28-.29.04-.12-.29-.09.05-.17.1-.25.15-.07.05-.14.12-.16.13-.05.06-.09.13-.13.2-.07.13-.18.28-.24.1h0c-.04.09-.04.16,0,.24.09,0,.29-.25.23-.14.12.02-.06.34-.24.5-.02-.02-.03-.03-.04-.05-.08-.08-.13-.27-.17-.45-.05-.19-.06-.33-.2-.46.05.05.05.02.08.05,0-.02,0-.03-.02-.04-.02-.02-.04-.04-.06-.06-.05-.04-.1-.07-.15-.11-.1-.07-.21-.16-.27-.31-.25.01-.27-.28-.47-.14l.46.38c-.28-.19-.7-.22-1-.7.06,0,.23.07.33.12-.07-.16-.25-.19-.32-.36.2-.13.55.47.93.6-.05-.19-.6-.36-.3-.41-.41.05-.42-.48-.91-.61l.12-.08c-.06-.03-.21-.09-.3-.18l.29.03c-.36-.14-.39-.58-.69-.76.51.5,0,.23.13.52-.76-.48-.1-.62-.84-1.26.11.08.29.41.1.31-.11-.15-.25-.36-.28-.5-.48-.44-.03.17-.29.04-.04-.28-.28-.17-.52-.34l.1-.1c-.46-.59-.35.07-.75-.47l.34.06-.28-.21.17-.07c-.35-.18-.42-.29-.65-.58-.01.13-.22.15-.46-.08-.1-.22.19,0-.16-.32.14,0,.3.01.35.25.05-.02.14,0,.19,0-.1-.24-.41-.44-.54-.56.04.05.09.11.11.15l-.62-.33c-.04-.11.05-.08.14-.06-.11-.09-.22-.1-.37-.24.12-.05.2-.14.44.02l-.55-.36c0-.07-.14-.33-.05-.3-.2-.3-.78-.45-1.05-.85-.03,0-.08-.02-.17-.08-.3-.33-.47-.71-.96-.97l-.06-.36c-.33-.26.1.47-.44.05-.39-.29,0-.26-.08-.42-.23-.08-.78-.32-.69-.47.08.02.08.06.12.09,0-.05,0-.1.03-.14.06,0,.1-.01.13-.02.01,0,.02,0,.03,0,.02,0,.05.03.07.04.08.04.09.01.04-.15-.11.12-.16.12-.21.09,0-.02,0-.03-.01-.05,0-.02,0-.02-.02-.14-.02-.17-.08-.3-.2-.32l.09-.22c0,.06.02.07.02.14.19-.44-.29-.32-.24-.89.03-.2.09-.33.14-.2l-.1-.44c0-.13.08-.1.07.03l-.03-.67h.01c-.06-.09-.16-.31-.2-.41.06-.17.04.08.09.04l-.1-.37c.11-.15.21.16.19.41.41-.34-.1-.31.13-1.05l.05.35c.23-.22.15-.5.29-.89-.08.09-.36.79-.46.39.03-.11.05-.26-.04-.48.14,0,.11-.21.1-.48l.19.02c-.06-.29-.15-.26-.24-.43.02-.32.17-.38.29-.46.03-.51-.24.35-.27-.25.07-.42,0-.72-.12-1.23.07-.3.12.05.17-.05l-.15-.26c0-.06.05-.04.07-.03-.06-.22-.19-.02-.24-.37-.21-.09.31-.71.07-1.14.05-.11.12.05.19.02-.16-.59-.11-.51-.33-.99l.13-.41c-.14.3-.31-.08-.45-.42-.01.02-.02.03-.03.05v-.12s.02.05.03.07l.04-.06s-.05-.05-.07-.08v-.26c.06,0,.12.06.19.14-.04.06-.08.13-.12.2.12.13.24.26.36.23-.02-.04-.04-.1-.05-.18.03.04.06.06.08.04.02-.02-.02-.07-.07-.16l.21-.12-.08-.03.13-.71c-.05-.1-.09-.2-.14-.31-.01-.02-.03-.06-.04-.09.05,0,.1-.01.14-.02,0,.15.17.11.36.18-.15-.3.56-.2.86-.29.02.1-.05.2-.42.18.41.23.53-.35.93-.16-.09,0-.14-.01-.17.04.21-.09.73-.02.61.07h-.09c.6.01,1.82-.02,1.91-.27,0,.03-.07.31-.11.36l.73-.59c.11,0,.22,0,.34,0,.05.23.12.51-.23.6.14.03.32.07.62,0-.1-.03-.25-.32-.11-.34.37.24.25.13.71.34-.15-.05.01-.39.24-.38-.04.05.02.34-.06.37l.57-.34c-.14.06-.02.28.11.38-.06-.07.5,0,.65-.03l-.24-.08c.65.05.63-.47,1.28-.45-.08.07-.19.43.14.47.08-.09.27-.32.51-.54.24,0,.48,0,.71,0-.31.22-.65.46-.89.58.24.08.07.12.43.11.13.09-.2.14-.3.15l.84.06c-.04-.2.64-.2.61-.37l-.92.21c-.04-.2.53-.57,1.12-.53.15.08-.11.36-.1.42.08-.07.57-.13.62-.08l-.25.11c.33.08.54-.27.94-.07.14.01.41.26.44.14-.14-.14-.2-.44-.2-.71.15,0,.31,0,.46,0l-.02.08h.09s0-.08,0-.08c.16,0,.32,0,.48,0,.05.17-.37.38-.2.51,0-.05.13-.12.19-.14.15.05-.06.17.26.15.05-.2.64.02.15-.17.31-.06.33.04.69.03-.08-.09.1-.25.31-.38.13,0,.26,0,.39,0,0,0,.01.01.02.02.63.02.97.11,1.56.11.05.05.34.11.22.2.08-.04.16-.11.34-.11.35.18-.41.03-.14.24.02-.12.47-.16.73-.24-.08-.18-.6-.04-.86.04,0-.09.07-.18.17-.26.62,0,1.25,0,1.87,0,.18.03.49.04.82.04.11,0,.23.02.35-.01.12-.04.22-.06.34-.08.22-.04.43-.04.6-.01.08-.04.2-.07.24-.11.34.01.69.08,1.06.19l.1.05s.03.03.02.06v.09s.02-.12.02-.12c.02-.05-.05-.04-.07-.06h-.03s.08,0,.12.02v1.18Zm-22.42,7.64c.03.1.12.29.04.37-.17-.11-.09-.2-.04-.37Zm.14-8.4s-.09-.06-.15-.07c-.06,0-.14,0-.22,0,0,0,0,0,0-.01l-.06-.1-.04-.05s-.05-.06-.07-.07c0,0-.02,0-.04-.01.01,0,.03.01.05.02,0,0,.03,0,.05.01,0,0,0,0,.01,0-.05,0-.09-.02-.12-.03,0,0,0,0-.01,0-.01,0-.02-.01-.03-.02,0-.02.12-.08.27-.04.13-.02.26-.05.4-.06-.2.16-.04.26-.06.44Zm-.52.99c-.01-.09,0-.2.03-.31.05.07.02.19-.03.31Zm-.07-1.17s0,.05,0,.07c0-.04,0-.08,0-.11,0,.02,0,.02,0,.04Zm-.01-.15s0,0-.01,0c-.02,0-.02-.02,0,0,0,0,0,0,0,0,0,0,0,0,.01,0Zm93.6-57.55c-1.3,1.88-3.08,3.28-4.76,4.78-.61,1.02-1.42,1.82-2.44,2.41-.02.16-.11.27-.26.35-2.75,2.74-5.51,5.49-8.25,8.23-.04.12-.13.19-.26.2-.18.74-.67,1.17-1.37,1.39-.39.4-.79.8-1.2,1.21-10.38,10.73-20.88,21.33-31.72,31.59-.23.26-.47.51-.71.77,0,.16-.1.25-.26.26-.48.84-1.08,1.57-1.99,1.97-.21.22-.41.44-.62.66-2.13,2.18-3.97,4.67-6.68,6.22-.59.78-1.18,1.56-2.28,3.02v-12.37c-1.23-.96-2.18-.51-3.01-.75-.21,0-.42,0-.63,0-.39,0-.78-.01-1.17-.02-.61.01-1.22.02-1.84.02-.97,0-1.95,0-2.93,0-.22,0-.44,0-.65,0h-5.94c-.21,0-.42,0-.63,0h-14.32c-.21,0-.42,0-.63,0h-6.76v12.56c0,.16.01.32.02.47-.17-.08-.35-.16-.53-.24-7.39-6.93-14.46-14.17-21.49-21.45-2.45-2.43-4.9-4.86-7.35-7.29-.33-.4-.67-.81-1-1.21-1.11-.89-2.39-1.6-2.92-3.04-.91-.82-1.83-1.66-2.74-2.48-2.1-2.13-4.21-4.26-6.32-6.38-8.55-7.69-16.29-16.18-24.75-24.27,7.21-6.72,14.23-13.28,21.38-19.95,1.6.68,3.13,1.32,4.65,1.95.32,0,.48.11.3.44.51,2.76.4,5.52.13,8.28.26.71.1,1.34-.31,1.94-.05.56-.11,1.12-.16,1.67.14.53.04.99-.38,1.36-.05.36-.09.72-.13,1.08.13.5.11.94-.38,1.26-.74,2.24-1.46,4.48-2.19,6.7,5.21,5.7,10.34,11.32,15.48,16.95,1.55,1.54,3.09,3.07,4.64,4.6,3.25,2.57,6.41,5.25,9.93,7.45.66.31,1.45.41,1.82,1.15.78.44,1.55.87,2.33,1.32.48.02,1-.05,1.22.55,1.49.45,3.06.69,4.35,1.66,2.33.64,4.66,1.29,6.99,1.93.85-.05,1.71-.19,2.43.45.19.04.38.08.57.13.62.04,1.23.08,1.84.11.36,0,.71-.01,1.07-.02.35-.12.62-.03.77.32,2.54.13,5.08.26,7.62.39.25,0,.49,0,.74,0,18.09.3,33.74-5.43,46.39-18.63,1.23-1.28,2.33-2.71,3.91-3.6.85-1.63,2.19-2.82,3.59-3.96l.16-.17c.48-1.38,1.56-2.25,2.66-3.11.35-.4.62-.9.97-1.31.34-.41.76-.74,1.4-.82.74-2.31,3.09-3.35,4.35-5.39-1.52-3.91-2.83-7.89-3.42-12.07-.07-.26-.13-.53-.19-.8-.22-3.26-.26-6.53.02-9.9,2.44-.92,4.84-1.82,7.35-2.76,7.06,6.58,14.02,13.07,21.09,19.65-1.34,1.7-2.89,3.17-4.58,4.5Zm15.44-15.56s-.06-.07-.08-.1c.03.01.07.04.11.07.03.04.05.08.08.12-.04-.03-.08-.07-.11-.1Zm29.82,28.69c2.82,2.67,3.64,2.44,6.51-.17,1.02-.93,2.05-1.85,3.04-2.74,2.52.07,3.89,1.46,4.84,3.44.01,0,.02,0,.03.01h-.02s0,0-.01-.01c-1.38-.43-2.65-1.25-4.25-1.23-3.32,1.89-5.65,5.03-8.69,7.33-.6.45-1.05,1.18-1.94,1.06.28-.82.57-1.66.97-2.84-8.11-9.49-16.86-18.55-25.77-28.27,2.22.18,2.9,1.52,3.82,2.41,7.17,7,14.21,14.12,21.47,21.02Zm26.5-84.68c-.81,1.21-1.81,2.22-3.05,2.99-.81.82-1.61,1.66-2.41,2.48-6.05,6.27-12.07,12.56-18.49,18.45-3.22,3.47-6.46,6.93-10.02,10.05-6.71,6.58-13.43,13.16-20.35,19.93-3.17-3.01-6.46-6.13-9.76-9.24-.87-.48-1.55-1.16-2.07-2.04.49-.78,1.6-.07,2.38-1.64.8-2.42,1.84-5.61,2.89-8.8.51-1.93,1.05-3.84,2.07-5.58,1.84-5.41,4.26-10.54,7.26-15.41.93-1.92,1.87-3.83,2.85-5.85-3.99-4.85-8.46-9.34-11.47-14.94-.31-2.19.93-3.85,1.95-5.58.47-1.33.94-2.66,1.42-3.99,1.2-3.8,2.39-7.6,3.58-11.39,2.16-9.41,2.9-18.97,2.93-28.61-.82-3.23-.42-6.58-.94-9.83-.39-.67-.38-1.39-.27-2.13-.2-1.18-.4-2.37-.6-3.56-.54-.94-.77-1.94-.53-3.02-1.67-5.36-2.88-10.86-5.3-16.15,4.09-3.47,8-6.79,12.12-10.28,2.18,2.29,4.27,4.48,6.37,6.68,1.39,1.37,2.77,2.74,4.16,4.11,9.35,9.3,18.73,18.58,28.08,27.9,6.38,6.37,12.73,12.77,19.24,19.3-5.76,5.58-11.46,11.08-17.47,16.89,6.14,5.88,11.85,11.35,17.65,16.9-4.31,4.37-8.25,8.36-12.19,12.35Zm17.61-17.36c-3.91-3.97-7.72-7.86-11.71-11.92.66-1.02,1.76-2.1,3.03-3.02.97-.95,1.94-1.9,2.92-2.85,1.73-1.85,3.47-3.69,5.39-5.74,1.82,1.55,3.45,3.01,4.81,4.78,1.61,1.61,3.21,3.22,4.82,4.84.79.71,1.58,1.43,2.39,2.16-3.99,4.02-7.83,7.9-11.64,11.75Z"/><path class="cls-1" d="m273.26,462.49l-.06-.03s.06.07.06.03Z"/><path class="cls-1" d="m275.71,467.54l.21.02c-.19-.18-.15-.06-.21-.02Z"/><path class="cls-1" d="m288.13,452.07h-.01s.03.02.01,0Z"/><path class="cls-1" d="m282.19,474.6s0,.02.01.03c.13.06.09.02-.01-.03Z"/><polygon class="cls-1" points="277.84 452.65 277.86 452.65 277.84 452.64 277.84 452.65"/><path class="cls-1" d="m277.36,452.75c.2-.16.32-.14.48-.11l-.16-.37-.31.48Z"/><path class="cls-1" d="m272.88,452.26s0,0,0,0c0,0-.01,0-.02,0,0,0,0,0,0,0,0,0,.01,0,.03,0Z"/><path class="cls-1" d="m272.92,452.26s-.03,0-.04,0c0,0,0,0,.01,0,0,0,.02,0,.03,0Z"/><path class="cls-1" d="m273.02,452.28s.03,0-.02-.01c-.04,0-.07,0-.09-.01.08.01.16.02.11.02Z"/><polygon class="cls-1" points="272.89 452.26 272.88 452.26 272.88 452.26 272.89 452.26"/><polygon class="cls-1" points="272.81 452.24 272.81 452.24 272.81 452.24 272.81 452.24"/><path class="cls-1" d="m273.05,454.08s-.05.04-.08.04c.02.04.05.04.08-.04Z"/><path class="cls-1" d="m275.67,467.54h0s.02,0,.03,0h-.04Z"/><path class="cls-1" d="m286.32,452.64c-.09-.02-.15-.05-.18-.07,0,.04.04.07.18.07Z"/><path class="cls-1" d="m292.03,452.21v.19s.16-.07.16-.07c-.1-.03-.1-.06-.16-.11Z"/><path class="cls-1" d="m291.08,452.51c.04-.05.39-.09.07-.14-.04.05-.52.15-.07.14Z"/><path class="cls-1" d="m281.3,452.63c-.25.08-.39.03-.27.23.42.07.1-.19.48-.1.1-.07-.31-.07-.21-.14Z"/><path class="cls-1" d="m281.3,452.63s.08-.03.13-.05c-.07.02-.11.03-.13.05Z"/><path class="cls-1" d="m273.48,460.39l.11-.21-.05-.02c-.05.04-.05.11-.06.23Z"/><polygon class="cls-1" points="273.44 463.87 273.45 463.81 273.27 463.92 273.44 463.87"/><path class="cls-1" d="m274.31,465.76c-.08-.09-.22-.17-.3-.27.22.17.17.45.3.27Z"/><path class="cls-1" d="m272.09,380.22c1.04-2.45,2.82-3.77,5.27-4.29,4.02-.84,8.07-.85,12.09.02,2.32.5,4.02,1.73,5.13,4.03.84,1.72,1.48,3.78,3.77,5.13.67-6.78-2.14-12.08-4.96-17.39-2.53-3.79-5.71-6.82-10.01-8.57-4.97,2.1-8.42,5.81-11.08,10.38-.15.23-.3.47-.45.7,0,.18-.04.33-.15.47-1.85,4.52-4.1,8.97-3.18,14.71,2.04-1.78,2.86-3.52,3.57-5.19Z"/></svg>