<svg enable-background="new 0 0 113.4 113.4" viewBox="0 0 113.4 113.4" xmlns="http://www.w3.org/2000/svg"><path d="m56.7 113.4c-31.3 0-56.7-25.3-56.7-56.6s25.3-56.8 56.6-56.8c31.8.1 57.2 25.7 56.8 57.5-.4 31.6-26.2 56-56.7 55.9zm0-2.3c30 0 54.3-24.3 54.3-54.4 0-30-24.2-54.2-54.3-54.3-30 0-54.4 24.3-54.4 54.3 0 30 24.4 54.4 54.4 54.4z" fill="#222"/><path d="m56.7 111.1c-29.9 0-54.3-24.4-54.3-54.3 0-30 24.4-54.4 54.4-54.3 30 0 54.3 24.3 54.3 54.3-.1 30-24.4 54.3-54.4 54.3zm-.1-12.2c22.8 0 41.5-18.5 41.6-41.3.1-23-18.5-41.7-41.3-41.8-23-.1-41.8 18.5-41.8 41.4-.1 23 18.5 41.7 41.5 41.7z" fill="#fefefe"/><path d="m56.6 98.9c-23 0-41.6-18.7-41.5-41.7 0-22.8 18.8-41.5 41.7-41.4 22.8.1 41.4 18.8 41.3 41.8 0 22.8-18.7 41.3-41.5 41.3zm2.5-28.3v12.8 6.6c0 .9.3 1.2 1.2 1s1.8-.2 2.7-.4c18.7-3.8 30.3-21.2 26.9-39.9-3.3-17.6-21.2-30-38.9-26.8-19.6 3.6-31.8 22-27.4 41.4 3 13.4 15 24.2 28.5 25.8 1.2.1 1.4-.2 1.4-1.3 0-11.7 0-23.4 0-35.1 0-1.2 0-2.4 0-3.6 0-.6.2-.8.8-.8 1.2 0 2.4.1 3.6 0 1-.1 1.2.3 1.2 1.2z" fill="#f07f07"/><path d="m59.1 70.6c0-6.4 0-12.9 0-19.3 0-.9-.2-1.3-1.2-1.2-1.2.1-2.4 0-3.6 0-.6 0-.8.2-.8.8v3.6 35.1c0 1.2-.2 1.5-1.4 1.3-13.5-1.6-25.5-12.4-28.5-25.8-4.4-19.2 7.8-37.6 27.4-41.2 17.7-3.2 35.6 9.2 38.9 26.9 3.4 18.8-8.2 36.1-26.9 39.9-.9.2-1.8.2-2.7.4s-1.2-.1-1.2-1c .1-2.2 0-4.4 0-6.6 0-4.3 0-8.6 0-12.9z" fill="#fffffe"/></svg>