<svg enable-background="new 0 0 113.4 113.4" viewBox="0 0 113.4 113.4" xmlns="http://www.w3.org/2000/svg"><circle cx="56.7" cy="56.7" fill="#e10d15" r="56.7"/><circle cx="56.7" cy="56.7" fill="#0c0401" r="55.3"/><circle cx="56.7" cy="56.7" fill="#e10d15" r="37.8"/><path d="m69.6 44.6s0 0 6.3 3.3c-7.2-9.8 0-23.7 0-23.7-17.2 20-13.6 37.2-13.6 37.2h-2.4l-1.3-22.3 6.3 2.8-8.2-23-8.2 23 6.3-2.9-1.3 22.3h-2.4s3.6-17.2-13.6-37.2c0 0 7.2 13.9 0 23.7 6.3-3.3 6.3-3.3 6.3-3.3s4.5 18.1-14 39.8c1.4 1.2 1.9 5.3 1.9 5.3l5.7.5s12.3-13.3 12.9-23.4h2.6l-1.5 27.9h5.3 5.3l-1.5-27.9h2.6c.6 10.1 12.9 23.4 12.9 23.4l5.7-.5s.5-4.1 1.9-5.3c-18.5-21.6-14-39.7-14-39.7z" fill="#0c0401"/><g fill="#fff"><path d="m13.8 48.7-.5 3.5-4.4-2.8-.3 1.9-1-.2.5-3.5 4.3 2.7.3-1.9z"/><path d="m13.3 55.1c0 .8-.4 1.5-1 2.1s-1.3.8-2.2.8c-.8 0-1.5-.4-2.1-1s-.8-1.3-.8-2.1c0-.9.4-1.6 1-2.1s1.3-.8 2.2-.8c.6 0 1.1.2 1.5.5.5.3.8.7 1.1 1.1.2.4.3.9.3 1.5zm-1.1-.1c0-.5-.1-1-.5-1.4s-.8-.6-1.4-.6-1.2.2-1.5.6c-.3.3-.5.7-.5 1.2s.2 1 .5 1.4c.4.4.8.6 1.4.6.5 0 1-.1 1.4-.5.4-.3.6-.8.6-1.3z"/><path d="m13.1 58.4.1 1.1-3.7.3c-.3 0-.5.1-.7.1-.1.1-.2.2-.3.3s-.1.3-.1.5.1.4.2.5.2.2.4.3h.8l3.6-.3.1 1.1-3.4.3c-.6 0-1 0-1.2 0s-.5-.2-.7-.3c-.2-.2-.4-.4-.5-.6s-.2-.5-.2-.8c0-.4 0-.8.2-1.1s.4-.6.7-.7c.3-.2.8-.3 1.4-.3z"/><path d="m13.8 64.6.2 1.1-5.2 3.3-.2-1.1 1.1-.7-.5-2.3-1.3-.2-.2-1.1zm-1.4.9-2.1-.4.3 1.5z"/><path d="m14.4 67.6.3 1.1-3.5 2.6 4.4.1.3 1.1-6-.1-.3-1z"/><path d="m16.1 72.8 1.3 2.9-1 .4-.8-1.9-1 .4.8 1.9-1 .4-.8-1.9-1.4.6.8 1.9-1 .4-1.1-2.8z"/><path d="m18.3 79.1-1-.4c.2-.4.3-.8.1-1.1-.1-.1-.2-.2-.3-.3-.1 0-.2 0-.3 0s-.2.1-.2.2c-.1.1-.2.5-.3 1.1-.1.5-.2.9-.2 1-.1.3-.2.5-.3.7s-.3.3-.5.4c-.4.2-.8.3-1.3.1-.4-.1-.8-.4-1-.9-.2-.4-.3-.7-.2-1.1 0-.4.2-.7.5-1.1l.9.6c-.3.5-.4.9-.2 1.2.1.2.2.3.4.3.2.1.3.1.4 0l .3-.3c.1-.1.1-.4.2-.8.2-.8.3-1.3.5-1.6s.4-.5.6-.6c.4-.2.7-.2 1.1-.1s.7.4.9.8c.1.3.2.5.2.8 0 .4-.1.7-.3 1.1z"/><path d="m15.6 82.1.1.9h-1.9l-.1-.6z"/><path d="m21.3 82.3.7.9c.4.5.6.9.7 1.2s.1.6 0 .9-.3.5-.6.8c-.3.2-.6.4-.9.4s-.6-.1-1-.3l-1.2 2.7-.7-.9 1.1-2.5-.1-.1-1.9 1.5-.7-.9zm-1.1 2.2.2.3c.2.3.4.4.6.5.2 0 .3 0 .5-.1.1-.1.2-.2.2-.3s0-.2 0-.3-.1-.3-.3-.5l-.2-.2z"/><path d="m23.8 85.4 2.1 2.3-.8.7-1.4-1.5-.8.7 1.4 1.5-.8.7-1.4-1.5-1.1 1 1.4 1.5-.8.7-2.1-2.3zm2.6-.1.9.9h-2.1l-.5-.6z"/><path d="m29.6 92.2-1.1.1c0-.7-.3-1.3-.8-1.7-.4-.4-.9-.5-1.4-.5s-1 .3-1.3.7c-.4.4-.5.9-.5 1.5s.3 1 .7 1.4c.3.2.6.4.9.4s.6 0 1-.2l-1.3-1.1.7-.8 2.2 1.9-.2.2c-.3.4-.7.7-1.2.8-.5.2-1 .2-1.4.1-.5-.1-.9-.3-1.3-.7-.5-.4-.8-.8-1-1.3s-.2-1-.1-1.6c.1-.5.3-1 .7-1.4.5-.6 1.1-.9 1.9-1 .9-.1 1.7.1 2.4.8.4.3.7.7.9 1.1 0 .3.1.7.2 1.3z"/><path d="m30.8 91.9.9.6-3.4 4.7-.9-.6z"/><path d="m32.6 93.2.9.5-.9 4.1 3.2-2.8.9.5-2.1 5.5-.9-.5 1.3-3.5-2.9 2.5-.8-.5.8-3.8-2.4 2.8-.9-.5z"/><path d="m37.9 96.1 2.9 1.3-.4 1-1.9-.8-.4 1 1.9.8-.4 1-1.9-.8-.6 1.4 1.9.8-.4 1-2.9-1.3z"/><path d="m41.2 97.6 1 .3 1.2 4.4 1.2-3.6 1 .3-1.8 5.5-1-.3-1.2-4.4-1.2 3.6-1-.3z"/><path d="m45.7 99 3.1.7-.2 1.1-1-.2-1 4.6-1.1-.2 1-4.6-1-.2z"/><path d="m53.7 101.1-.9.6c-.2-.4-.5-.7-.8-.7-.1 0-.3 0-.4.1s-.2.1-.2.2 0 .2.1.3.3.4.7.8l.7.7c.2.2.3.5.4.7s.1.4.1.7c-.1.5-.3.8-.6 1.1-.4.3-.8.4-1.3.3-.4 0-.8-.2-1-.4-.3-.2-.5-.6-.7-1l1-.5c.2.5.5.8.9.9.2 0 .4 0 .5-.1s.2-.2.2-.4c0-.1 0-.3-.1-.4s-.3-.4-.6-.7c-.6-.6-.9-1-1.1-1.3s-.2-.6-.2-.9c0-.4.2-.7.6-1 .3-.3.7-.4 1.2-.3.3 0 .6.1.8.3.1.3.4.6.7 1z"/><path d="m54.3 100.3h1.2c.6 0 1.1.1 1.4.2s.5.3.6.6c.2.3.2.6.2.9 0 .4-.1.7-.3 1s-.5.4-.9.5c-.2.1-.6.1-1.2.1v2.4h-1.1zm1.1 2.3h.3.6s.2-.1.3-.2.1-.2.1-.3c0-.2-.1-.4-.2-.5s-.4-.1-.7-.1h-.3z"/><path d="m58.2 100.4 3.1-.2.1 1.1-2.1.1.1 1 2.1-.1.1 1.1-2.1.1.1 1.5 2.1-.1.1 1.1-3.1.2zm1.6-2.1 1.3-.1-1.3 1.6-.8.1z"/><path d="m67.1 100.3-.6.9c-.6-.5-1.2-.6-1.9-.5-.5.1-1 .4-1.3.8s-.4.9-.3 1.5c.1.4.2.7.4 1s .5.5.8.6.7.1 1 .1c.3-.1.6-.2.8-.3s.5-.4.7-.8l.9.6c-.3.5-.7.8-1 1.1-.3.2-.8.4-1.2.5-.9.2-1.7 0-2.3-.5-.7-.5-1.1-1.1-1.2-2-.1-.6-.1-1.1.1-1.6s.5-.9.9-1.3.9-.6 1.5-.7c.5-.1.9-.1 1.4.1.5-.1 1 .1 1.3.5z"/><path d="m67.2 99.1 1.1-.3 1.5 5.6-1.1.3z"/><path d="m70.7 98.1 1.1-.4 3.9 4.8-1.1.4-.8-1-2.2.7-.1 1.3-1.1.4zm1 1.3-.1 2.1 1.5-.5z"/><path d="m73.9 96.9 1-.5 2 4.3 1.5-.7.4 1-2.5 1.1z"/><path d="m78.2 94.8 1.1-.7c.7-.4 1.3-.7 1.7-.7.5 0 .9.1 1.4.3.5.3.9.6 1.2 1.2.2.4.4.8.5 1.2s.1.8 0 1.1-.2.6-.4.9c-.2.2-.6.6-1.3 1l-1.1.7zm1.4.3 1.9 3.1.4-.3c.4-.3.7-.5.8-.7s.2-.5.2-.8-.1-.6-.4-1c-.3-.5-.7-.8-1.2-.9-.4-.1-.9 0-1.5.4z"/><path d="m82.8 90.7 1-.8-.2 2.1-.6.5z"/><path d="m84.6 90.4.8-.7 3.7 4.4-.8.7z"/><path d="m85.9 89.3.7-.7 4.4.9-2.7-2.7.8-.8 4.1 4.1-.7.7-4.4-.9 2.7 2.7-.8.8z"/><path d="m89.3 85.9 2-2.5.8.7-.7.8 3.6 3-.7.9-3.6-3-.7.8z"/><path d="m91.4 83.3 1.8-2.6.9.6-1.2 1.7.8.6 1.2-1.7.9.6-1.2 1.7 1.2.9 1.2-1.7.9.6-1.8 2.6z"/><path d="m93.5 80.3.6-1c .3-.5.6-.9.8-1.1s.5-.3.8-.3.6.1.9.3.6.4.7.7.2.6.1 1l2.9.1-.6 1-2.8-.1-.1.1 2.1 1.2-.6.9zm2.5.2.2-.3c.2-.3.3-.5.2-.7 0-.2-.1-.3-.3-.4-.1-.1-.2-.1-.3-.1s-.2 0-.3.1-.2.2-.4.5l-.2.3z"/><path d="m95.3 77.3.5-1 4.3.4-3.1-3 .5-1 4.4 4.2-.4 1z"/><path d="m97.5 72.3 1-3 1 .4-.7 1.9 1 .3.7-1.9 1 .3-.7 1.9 1.4.5.7-1.9 1 .4-1 3z"/><path d="m98.7 68.9.2-1 4.3-1.5-3.7-.9.3-1.1 5.6 1.3-.2 1-4.2 1.5 3.7.9-.3 1.1z"/><path d="m99.7 64.3.4-3.2 1.1.1-.1 1 4.6.6-.2 1.1-4.6-.6-.1 1z"/><path d="m100.2 61 .1-1.1 5.7.5-.1 1.1z"/><path d="m100.2 56.5c0-.8.3-1.5.9-2.1s1.3-.9 2.2-.9c.8 0 1.6.3 2.1.9.6.6.9 1.3.9 2.1 0 .9-.3 1.6-.9 2.2s-1.3.9-2.1.9c-.6 0-1.1-.1-1.5-.4-.5-.3-.8-.6-1.1-1.1s-.5-1-.5-1.6zm1.1 0c0 .5.2 1 .6 1.3.4.4.8.5 1.4.5s1.1-.2 1.5-.7c.3-.4.4-.8.4-1.2 0-.5-.2-1-.6-1.3-.4-.4-.8-.5-1.4-.5-.5 0-1 .2-1.4.6-.3.4-.5.8-.5 1.3z"/><path d="m100.3 53.2-.1-1 3.4-3-3.8.5-.1-1.1 5.7-.8.1 1-3.4 3 3.7-.5.1 1.1z"/><path d="m16.2 36.5.3.1c.1.1.3 0 .4-.1.2-.1.3-.3.5-.7l.3-.7c0-.1.1-.1.2-.1s.1 0 .2.1c.1 0 .2.1.2.1s0 .1 0 .2l-.3.7c-.3.6-.6 1-.9 1.2.1.4-.1.8-.3 1.4l-.6 1.3c-.5 1.1-1.2 1.5-1.8 1.2l-1.3-.6c-.7-.3-.7-1.1-.2-2.2l.6-1.3c.3-.6.6-1 .9-1.1-.1-.4.1-.8.3-1.4l.7-1.4c.3-.6.6-1 .9-1.1.3-.2.6-.2 1 0l .7.3c.1.1.2.1.2.2s0 .2-.1.3zm-1.3.2c-.1-.1-.3 0-.4.1-.2.1-.3.3-.5.7l-.6 1.2c-.2.3-.2.6-.2.8s.1.3.2.4l1.3.6c.1.1.3 0 .4-.1.2-.1.3-.3.5-.7l.6-1.2c.2-.3.2-.6.2-.8s-.1-.3-.2-.4zm.8-.5 1.6-3.2-.4-.2c-.1-.1-.3 0-.4.1s-.3.3-.5.7l-.6 1.3c-.2.3-.2.6-.2.8s.1.3.2.4z"/><path d="m16 31c-.1-.1-.2-.1-.2-.3 0-.1 0-.2.1-.4s.2-.2.3-.3c.1 0 .2 0 .3.1s.2.2.2.3 0 .2-.1.4-.2.2-.3.3c-.1 0-.2 0-.3-.1zm3.9 1.4c.1.1.2.1.2.2s0 .2-.1.3-.1.2-.2.2-.2 0-.3 0l-2.6-1.6c-.1-.1-.2-.1-.2-.2s0-.2.1-.3.1-.2.2-.2.2 0 .3 0z"/><path d="m20.5 31.5c.1.1.2.1.1.2 0 .1 0 .2-.1.3s-.2.2-.2.2c-.1 0-.2 0-.3-.1l-3.4-2.2c-.1-.1-.2-.1-.1-.2 0-.1 0-.2.1-.3s.2-.2.2-.2c.1 0 .2 0 .3.1z"/><path d="m23.1 29.8c.1.1.1.2.1.2 0 .1-.1.2-.2.3s-.2.2-.2.2-.2 0-.3-.1l-2.5-2.2c-.6-.5-.5-1.2.3-2.1l1-1.2c.8-.9 1.5-1.1 2.1-.7l1.1.9c.6.5.5 1.2-.3 2.1l-1.7 2zm .5-2.8c.2-.3.4-.5.4-.7s0-.3-.1-.4l-1-1c-.1-.1-.2-.1-.4 0s-.4.2-.6.5l-1 1.1c-.2.3-.4.5-.4.7s0 .3.1.4l1.4 1.2z"/><path d="m23.7 24.1c-.5-.6-.3-1.3.6-2.1l1.1-1c .9-.8 1.6-1 2.1-.4l1 1c .5.6.3 1.3-.6 2.1l-1.1 1c-.9.8-1.6 1-2.1.4zm3.1-2.9c-.1-.1-.2-.1-.4-.1s-.4.2-.7.4l-1 .9c-.3.2-.4.5-.5.6s0 .3 0 .4l1 1c .1.1.2.1.4.1s.4-.2.7-.4l1-.9c.3-.2.4-.5.5-.6.1-.2 0-.3 0-.4z"/><path d="m31 16.6c.1-.1.2-.1.3-.1s.2 0 .2.1l1.3 1.8c.4.6.2 1.3-.8 2l-1.3.9c-1 .7-1.7.8-2.2.1l-1.3-1.8c-.1-.1-.1-.2-.1-.3s.1-.1.2-.2.2-.1.3-.1.2 0 .2.1l1.3 1.8c.1.1.2.2.4.1.2 0 .4-.1.7-.4l1.2-.9c.3-.2.5-.4.6-.6s.1-.3 0-.4l-1.3-1.9c-.1-.1-.1-.2-.1-.3.2.3.3.2.4.1z"/><path d="m33.7 15.1c.1 0 .2-.1.2 0 .1 0 .1.1.2.2s.1.2.1.2 0 .1-.1.2l-.5.2c-.3.2-.5.3-.5.4-.1.1-.1.3 0 .4l1.1 2c .1.1.1.2 0 .3 0 .1-.1.1-.2.2s-.2.1-.3.1-.1-.1-.2-.2l-1.1-2c-.2-.3-.2-.6-.1-1 .2-.3.5-.6.9-.9z"/><path d="m41.6 14 .1.3c0 .1.2.2.3.2.2 0 .5 0 .8-.1l.7-.3h.2s.1.1.1.2.1.2 0 .2c0 .1-.1.1-.2.1l-.7.3c-.6.2-1.1.3-1.5.2-.2.3-.6.6-1.2.8l-1.3.5c-1.2.4-1.9.3-2.1-.4l-.5-1.3c-.3-.7.2-1.3 1.3-1.7l1.3-.5c.6-.2 1.1-.3 1.4-.2.2-.3.6-.6 1.2-.8l1.4-.5c.6-.2 1.1-.3 1.4-.2s.6.3.7.7l.3.7c0 .1.1.2 0 .3 0 .1-.1.1-.3.2zm-1.2-.7c0-.1-.2-.2-.3-.2-.2 0-.5 0-.8.1l-1.3.5c-.3.1-.6.3-.7.4s-.2.3-.1.4l.5 1.3c0 .1.2.2.3.2.2 0 .5 0 .8-.1l1.3-.5c.3-.1.6-.3.7-.4s.2-.3.1-.4zm1 .1 3.3-1.2-.1-.4c-.1-.1-.2-.2-.4-.2s-.4 0-.8.2l-1.4.5c-.3.1-.6.3-.7.4s-.2.3-.1.4z"/><path d="m45.2 9.9c0-.1 0-.2 0-.3.1-.1.2-.1.4-.2h.4c.1 0 .2.1.2.3v.3c-.1.1-.2.1-.4.2-.2 0-.3 0-.4 0-.1-.1-.2-.2-.2-.3zm1.8 3.8v.3s-.2.1-.3.1-.2 0-.3 0-.1-.1-.2-.2l-.7-3c0-.1 0-.2 0-.3.1-.1.2-.1.3-.1s.2 0 .3 0 .1.1.2.2z"/><path d="m48.1 13.4v.3c-.1.1-.2.1-.3.1s-.2 0-.3 0-.1-.1-.2-.2l-.9-4.1c0-.1 0-.2 0-.3.1-.1.2-.1.3-.1s.2 0 .3 0 .1.1.2.2z"/><path d="m49.3 13.9c0 .1 0 .2-.1.2s-.2.1-.3.1-.3 0-.3 0c-.1 0-.1-.1-.1-.2v-.1-.1-1.1c0-.1 0-.2.1-.2s.2-.1.3-.1.3 0 .3 0c .1 0 .1.1.1.2v.1.1z"/><path d="m55.6 8.4c0-.1 0-.2.1-.3.1 0 .2-.1.3-.1h.3c.1 0 .1.1.1.2l.2 3.3c0 .8-.5 1.2-1.8 1.2l-1.6.1c-1.2.1-1.9-.3-1.9-1l-.1-1.4c0-.8.5-1.2 1.8-1.2l2.6-.2zm-2.5 1.6c-.4 0-.6.1-.8.2s-.2.2-.2.4l.1 1.4c0 .1.1.2.3.3s.4.1.8.1l1.5-.1c.4 0 .6-.1.8-.2s.2-.2.2-.4l-.1-1.9z"/><path d="m57.7 11.4v.3c0 .1.1.2.2.3.2.1.4.2.8.2h.7c.1 0 .2 0 .2.1s0 .1 0 .2 0 .2-.1.2c0 .1-.1.1-.2.1h-.8c-1.2-.1-1.8-.5-1.8-1.2l.1-1.4c0-.8.7-1.1 1.9-1l1.5.1c.7 0 1.1.2 1.4.4s.4.5.4.9v.7c0 .1 0 .2-.1.3 0 0-.2.1-.3.1zm0-.7 3.5.2v-.4c0-.2-.1-.3-.2-.4-.2-.1-.4-.1-.8-.2h-1.4c-.4 0-.6 0-.8.1s-.3.2-.3.3z"/><path d="m62.3 13.2c-.1 0-.2-.1-.3-.1s-.1-.1-.1-.3l.4-2.2c.1-.7.8-1 2-.8l1.4.3c1.2.2 1.8.7 1.6 1.4l-.4 2.2c0 .1-.1.2-.1.2-.1 0-.2 0-.3 0s-.2-.1-.3-.1-.1-.1-.1-.3l.4-2.2c0-.1 0-.3-.2-.4-.1-.1-.4-.2-.8-.3l-1.3-.2c-.4-.1-.6-.1-.8 0s-.3.2-.3.3l-.4 2.2c0 .1-.1.2-.1.2 0 .1-.1.1-.3.1z"/><path d="m68.4 10.6.2-.7c0-.1.1-.2.2-.2h.3s.2.1.3.1c.1.1.1.1 0 .3l-.2.7 1.3.4c.1 0 .2.1.2.1v.3c0 .1-.1.2-.1.2s-.1.1-.2 0l-1.3-.4-.7 2.6c0 .1-.1.2-.2.2s-.2 0-.3 0-.2-.1-.3-.1c-.1-.1-.1-.1 0-.3l.7-2.6h-.4c-.1 0-.2-.1-.2-.1 0-.1 0-.1 0-.2s.1-.2.1-.2.1-.1.2 0z"/><path d="m72 16.4c0 .1-.1.2-.2.2s-.2 0-.3-.1-.2-.1-.3-.2c0-.1 0-.2 0-.3l1.3-3.1c.3-.7 1-.8 2.1-.3l1.4.6c1.1.5 1.5 1.1 1.3 1.8l-.4 1.4c-.3.7-1 .8-2.1.3l-2.4-1zm3-.3c.3.1.6.2.8.2s.3-.1.4-.2l.6-1.3c.1-.1 0-.3-.1-.4-.1-.2-.3-.3-.7-.4l-1.4-.6c-.3-.1-.6-.2-.8-.2s-.3.1-.4.2l-.7 1.7z"/><path d="m77.7 15.2c.4-.7 1.1-.7 2.2-.1l1.2.7c1.1.6 1.4 1.3 1 1.9l-.7 1.2c-.4.7-1.1.7-2.2.1l-1.2-.7c-1.1-.6-1.4-1.3-1-1.9zm3.7 2.2c.1-.1.1-.3 0-.4-.1-.2-.3-.3-.6-.5l-1.2-.7c-.3-.2-.6-.3-.8-.3s-.3.1-.4.2l-.7 1.2c-.1.1 0 .3 0 .4.1.2.3.3.6.5l1.2.7c.3.2.6.3.8.3s.3-.1.4-.2z"/><path d="m87 20c .1.1.2.2.2.2 0 .1 0 .2-.1.3l-1.4 1.8c-.5.6-1.2.5-2.2-.2l-1.2-.9c-1-.7-1.3-1.4-.8-2l1.4-1.8c.1-.1.2-.1.2-.1.1 0 .2.1.3.1.1.1.2.2.2.2 0 .1 0 .2-.1.3l-1.4 1.8c-.1.1-.1.2 0 .4s.3.4.6.6l1.2.9c.3.2.5.3.7.4.2 0 .3 0 .4-.1l1.4-1.8c.1-.1.2-.1.2-.1.2-.2.3-.1.4 0z"/><path d="m89.3 22.1c.1.1.1.1.1.2s-.1.1-.1.2c-.1.1-.1.1-.2.2-.1 0-.1 0-.2-.1l-.4-.3c-.2-.2-.4-.3-.6-.4-.1 0-.3 0-.4.1l-1.5 1.7c-.1.1-.2.1-.2.1-.1 0-.2-.1-.3-.2s-.2-.2-.2-.3 0-.2.1-.3l1.5-1.7c.3-.3.5-.4.9-.3.3.1.7.3 1.1.6z"/><path d="m94.6 26.7c.1-.1.2-.1.3-.1s.2.1.2.2c.1.1.1.2.2.3 0 .1 0 .2-.1.2l-2.5 2.2c-.6.5-1.3.3-2.1-.7l-1-1.2c-.8-.9-.9-1.6-.3-2.1l1.1-.9c.6-.5 1.3-.3 2.1.7l1.7 2zm-2.7-1c-.2-.3-.4-.4-.6-.5s-.3-.1-.4 0l-1.1.9c-.1.1-.1.2-.1.4s.2.4.4.7l1 1.2c.2.3.4.4.6.5s.3.1.4 0l1.4-1.2z"/><path d="m93.5 30.1-.3.2c-.1.1-.2.2-.1.4 0 .2.1.4.3.7l.4.6c.1.1.1.2 0 .2 0 .1-.1.1-.2.2s-.2.1-.2.1c-.1 0-.1 0-.2-.1l-.4-.6c-.7-1-.7-1.7-.1-2.2l1.2-.7c.6-.4 1.3-.1 2 .9l.8 1.3c.4.5.5 1 .5 1.3s-.2.6-.5.8l-.6.4c-.1.1-.2.1-.3.1s-.1-.1-.2-.2zm.5-.3 2 2.9.4-.2c.1-.1.2-.2.2-.4s-.1-.4-.3-.7l-.8-1.2c-.2-.3-.4-.5-.6-.6s-.3-.1-.4 0z"/><path d="m94.9 35c-.1-.1-.1-.2-.1-.3s.1-.1.2-.2l2-1c .7-.3 1.3 0 1.8 1.1l.6 1.3c.6 1.1.5 1.8-.2 2.2l-2 1c-.1.1-.2.1-.3 0-.1 0-.1-.1-.2-.3s-.1-.2-.1-.3.1-.1.2-.2l2-1c .1-.1.2-.2.2-.4s-.1-.4-.2-.8l-.6-1.2c-.2-.3-.3-.5-.5-.6s-.3-.1-.4-.1l-2 1c-.1.1-.2.1-.3 0s-.1-.1-.1-.2z"/><path d="m100.6 38.3.7-.3h.3s.1.1.2.3c.1.1.1.2.1.3s-.1.1-.2.2l-.7.3.5 1.3v.2s-.1.1-.2.1-.2.1-.2.1c-.1 0-.1-.1-.1-.1l-.5-1.3-2.6 1c-.1 0-.2 0-.3 0-.1-.1-.1-.1-.2-.3-.1-.1-.1-.2-.1-.3s.1-.1.2-.2l2.6-1-.1-.3c0-.1 0-.2 0-.2s.1-.1.2-.1.2-.1.2-.1c.1 0 .1.1.1.1z"/></g></svg>