<svg enable-background="new 0 0 113.3 113.3" viewBox="0 0 113.3 113.3" xmlns="http://www.w3.org/2000/svg"><path d="m56.6 113.3c-30.6.4-57.3-25.4-56.6-58 .7-29.7 25.4-56 58.2-55.3 29.5.7 56 25.4 55.1 58.3-.7 29.9-25.6 55.4-56.7 55z" fill="#020203"/><path d="m72.7 94.2c-8.1-10.3-23.7-10.6-32 0-15.1-6-26.9-22.9-24.6-42.1 2.5-20.6 19.3-35.7 39.6-36.3 19.7-.5 37.5 13.9 41.1 33.1 3.8 20.2-7.8 38.6-24.1 45.3z" fill="#e73631"/><path d="m38.6 107.6c-.1-7.1 2.6-12.9 8.8-16.7 6.5-3.9 13.1-3.7 19.4.4 5.8 3.8 8.2 9.4 8.2 16.1-8 4.5-27 4.6-36.4.2z" fill="#e73631"/><g fill="#ffed00"><path d="m100.1 88.9c-3.4 4.4-7.2 8.3-11.7 11.5-.2.2-.5.3-.8.5-1.5-.4-3.1-.7-4.6-1.1-.6-.1-1.2-.2-1.7-.5 0-.6.4-.8.8-1.1 3.8-2.3 7.2-5.2 10.2-8.4.6-.6 1.2-1.1 1.9-1.5h5.3c.3 0 .9-.1.6.6z"/><path d="m30.4 99.8c-1.5.4-3 .7-4.6 1.1-3.3-2.3-6.3-4.8-9-7.8-1.2-1.4-2.3-2.8-3.5-4.2-.3-.7.2-.6.6-.6h5.3c2.3 1.6 4 3.9 6.2 5.7s4.5 3.3 6.9 5c-.7.7-1.3.7-1.9.8z"/><path d="m80.1 97.3c.5-1.8 1-3.6 1.5-5.5.2-.8.6-1.5 1.3-2.1 3.7-3.1 7.1-6.5 9.6-10.7.5-.1.4.4.4.6v7.3c0 .6-.2 1.1-.6 1.5-3.2 3.7-6.9 6.7-11.2 9.2-.8.6-.9.5-1-.3z"/><path d="m20.9 79.1c2.5 4.2 5.8 7.6 9.6 10.7.7.6 1.1 1.2 1.3 2.1.5 1.8 1 3.7 1.5 5.5.3.3.1.5-.2.6s-.6-.1-.8-.2c-4.2-2.5-8-5.5-11.1-9.2-.4-.4-.6-.9-.6-1.5 0-2.4 0-4.9 0-7.3-.1-.4-.3-.8.3-.7z"/><path d="m102.2 75.5c1.8-.4 3.6-.9 5.5-1.3-1.5 4.5-3.7 8.6-6.1 12.5-1 .5-2.1.1-3.2.2-.9.1-1.9.1-2.9-.1.1-.9.8-1.4 1.3-2.1.1-.3.3-.6.5-.8.4-.7.8-1.4 1.3-2 .2-.5.4-.9.7-1.3.1-.2.1-.4.3-.5.2-.5.5-1.1.8-1.5.7-1 .6-2.4 1.8-3.1z"/><path d="m11.7 86.7c-2.4-3.9-4.6-7.9-6.1-12.5 1.9.5 3.7.9 5.5 1.3.5.1.7.6.8 1 .3.7.7 1.4 1 2.1.3.5.5 1 .8 1.5.2.1.2.3.3.5.4.4.5.8.7 1.3v-.1.1c.8.8 1.2 1.8 1.8 2.8.3.3.6.6.8 1 .2.3.5.5.6 1-1.2.3-2.3.3-3.5.2-.9-.1-1.8.3-2.7-.2z"/><path d="m13 75.2c1-2.7 1.5-5.6 2.5-8.6 1 3.4 1.9 6.5 3.6 9.4.3 2.3.1 4.7.1 7v1.6c0 .3-.2.4-.4.4s-.3-.1-.4-.2c-.3-.3-.6-.6-.8-1-.3-.2-.4-.5-.5-.8-.3-.2-.4-.5-.5-.8-.8-.7-1.1-1.7-1.6-2.5-.2-.1-.2-.3-.3-.5-.8-.9-1.3-1.9-1.5-3.1-.1-.2-.3-.5-.2-.9z"/><path d="m94.3 76c1.6-2.9 2.6-6.1 3.6-9.4 1 3 1.5 5.9 2.5 8.6.1.4-.1.7-.3 1h .1-.1c-.3 1.3-.9 2.5-1.8 3.6-.2.4-.4.9-.8 1.3-.3.4-.4.9-.8 1.3-.1.3-.2.6-.5.8-.1.3-.2.6-.5.8-.3.5-.4 1.2-1.2 1.2-.2-.1-.4-.2-.4-.5 0-2.5 0-4.9 0-7.4 0-.5-.1-.9.2-1.3z"/></g><path d="m109.9 48.2c-.6.6-1.3 1.2-2.1 1.9-.6-5.5-2.1-10.8-4.3-15.8-2.3-5-5.3-9.5-9-13.9 4.7.7 14.4 18.6 15.4 27.8z" fill="#ffeb00"/><path d="m5.6 50.3c-.8-.8-1.4-1.5-2.1-2.3 2-10.6 6.7-20 14.7-27.6.2.1.4.2.5.3-3.5 4.2-6.6 8.7-8.8 13.6-2.2 5-3.7 10.2-4.3 16z" fill="#ffeb00"/><path d="m9.7 51.8c-.4.4-.8.8-1.2 1.2-.6 0-.7-.6-1.1-.7-.5-7.9 8.7-26.6 14.2-28.4-6.7 8.1-10.9 17.3-11.9 27.9z" fill="#ffeb00"/><path d="m92.9 24.5c.1.1.2.2.3.3.1 0 .2.1.2.2 5.3 5.4 8.8 11.8 11 19 .8 2.6 1.3 5.3 1.6 8-.2.5-.6.8-1 1.1-.6-.3-.9-.8-1.3-1.2-.6-5.4-2-10.7-4.3-15.8-1.7-3.7-4-7.1-6.4-10.4 0-.2-.1-.3-.3-.3 0-.1-.1-.2-.2-.3-.1-.1-.1-.2-.2-.3-.1-.1-.2-.2-.2-.3-.1 0-.2-.1-.2-.2s0-.2-.1-.3c.1-.1.1-.2.2-.2.4 0 .6.3.9.7-.1-.2 0-.1 0 0z" fill="#ffeb00"/><path d="m74.5 17.7c-.7-.7-1.3-1.8-2.6-2-.4.3-.8.9-1.3-.1.6-1.3 1.2-2.6 1.8-3.8.7-.3.9.2 1.4.2.3-.2.4-.5.5-.9-.4-.5-1.2-.4-1.7-1.1.7-1.1 1.4 0 2.1 0 .3-.1.3-.5.5-.9-.4-.2-.8-.3-1.2-.5-.2-.3-.2-.6 0-1 1.3.2 2.5.8 3.8.8.4.2.5.5.3.9-.6.2-1.2 0-1.9 0-.1.4-.3.7-.5 1.2.6.3 1.2.6 1.8.8.7-.5 1.3-1.3 1.8-2 .4-.1.6.1.8.4 0 .6-.6.9-.8 1.4.9.4 1.7.9 2.6 1.3.1 1-.5.8-1.1.8-.7 1.4-1.7 2.4-2.8 3.4.2.9.7 1.6 1.1 2.4-.2.3-.4.5-.7.5-.8-.5-1-1.5-1.4-2.3-.8.2-1.6.5-2.5.5z" fill="#ffed00"/><path d="m9.2 73.4c-1.4-.4-2.8-.8-4.2-1.3-.9-3.1-1.6-6.2-1.9-9.3-.1-.3-.2-.6.3-.6 1.7.9 3.3 1.9 5 2.8.7 1.6.8 3.4 1.3 5.1.3.6.3 1.2.5 1.8.3.5.5 1.1.6 1.8-.7.3-1.1-.1-1.6-.3z" fill="#ffed00"/><path d="m110.3 62.8c-.3 3.1-1 6.2-1.9 9.3-1.6.5-3.3 1-5 1.5-.2.3-.4.1-.7.2 0-.8.2-1.4.5-1.9.2-.6.2-1.2.5-1.8.3-1 .5-2.1.8-3.1.1-.7.2-1.4.5-2.1 1.7-.9 3.3-1.9 5-2.8.5.1.4.4.3.7z" fill="#ffed00"/><path d="m7.7 63c-1.6-1-3.2-2-4.9-3-.5-3.2-.1-6.4.2-9.6.6 0 .7.6 1.2.7 1.2 1.2 2.4 2.4 3.6 3.5-.1 2.8.3 5.6.3 8.3-.1.3-.3.3-.4.1z" fill="#ffed00"/><path d="m109.1 51.1c.3-.2.7-.5 1.2-.9.4 3.3.7 6.5.3 9.7-1.7 1-3.3 2-4.9 3-.1.2-.2.2-.4.1 0-2.7.5-5.4.3-8.3 1.1-1.2 2.3-2.4 3.5-3.6z" fill="#ffed00"/><path d="m46 5.5c1.8-.6 3.7-.6 5.7-1.1.6 1.5-1 1.7-1.4 2.7.7.2 1.3-.4 2.1-.1.5 2 .8 4.1 1.1 6.3-.7.4-1.3 1.3-2.2.2-.1-.1-.1-.3-.1-.4s.1-.2.2-.2c.1-.1.2-.2.3-.2s.1-.1.2-.2c0-.1 0-.2 0-.2-.1-.1-.2-.2-.3-.2s-.3 0-.4 0-.1.1-.2.2v.4.5s-.1.4-.2.6c-.2.4-.6.3-1 .3-.2-.6-.3-1.2-.5-1.9-.4 0-.9.1-1.3.1.1 2.1.1 2.1-.7 2.4-.6-1.4-.5-3-1-4.5-.1-.1-.1-.2-.2-.3-.1-.3-.2-.6-.3-.9-.2-1 .3-1.5 1.3-1.6.1 0 .1 0 .1-.1 0 0 0 0-.1 0-.3-.2-.3-.4-.3-.7-.4 0-.9 0-1.2-.5.2-.2.2-.4.4-.6z" fill="#ffed00"/><path d="m64 11c-1 1.6-2.6 2.3-4.3 2.8-.5-.1-.5-.4-.7-.8.9-.4 1.8-.8 2.6-1.3.9-.5 1.5-1.2 1.9-2.2-1.1-.6-2.4-.4-3.5-.8-.2-.3-.2-.6 0-1 1.2.2 2.5.4 3.8.6.6-.6.3-1.4.8-2-1.3-.6-2.8-.2-3.9-1.1.1-.5.4-.8.8-.7 2.7.5 5.4.9 8 1.4.4.4.2.7.1 1.1-1.2-.2-2.5-.4-3.8-.6-.3.7-.5 1.3-.5 2.2 1.4.3 2.8.5 4 .8.4.4.2.7 0 1-1.2.2-2.3-.4-3.5-.4-.2 1.1-.4 2.3-.6 3.5.7.1 1.5.3 2.2.4.6-.4.4-1.3.9-1.8.4-.1.7.1.9.4-.6 2.8-1.9 3.3-4.8 1.7-.5-1 .2-2 .1-3.1-.3-.4-.4-.1-.5-.1z" fill="#ffed00"/><path d="m33.3 11.8c-.7.3-1.3.5-1.9.8-.4-.1-.5-.4-.5-.9.5-.2 1.1-.5 1.7-.8.5-.2 1.1-.5 1.6-.8-.3-.5-.7-1 .2-1.2.5 0 .6.4 1.1.6 1.1-.5 2.3-1 3.4-1.5.4.2.5.4.4.9-.5.3-1 .5-1.5.8-.1.1-.3.1-.4.1.2 0 .3 0 .4.1.4.2.1.7.4 1.1.6.2 1.3.4 1.9.6.3.4.3.7 0 1.1-.7 0-1.3-.6-2.1-.4-.1.7-.6 1.3-.5 2.2 1.4-.6 2.7-1.2 3.9-1.7.4.2.5.5.4 1-1.2.6-2.4 1.1-3.7 1.7-.2.8 1.3 1.6.1 2.5-.8-.5-.8-1.3-1.3-1.9-1.2.5-2.5 1.1-3.7 1.7-.4-.3-.6-.6-.3-1.1.8-.8 2-1.1 2.9-1.7-.4-.3-.8-.4-1.2-.4-.7.5-.4 1.9-1.7 1.7-.2-.1-.3-.2-.5-.4.6-1.2 1.1-2.4 1-3.7 0-.1 0-.1 0-.2h.1-.1z" fill="#ffec00"/><path d="m101.1 72.6c-.6-2.3-1-4.6-1.8-6.8-1.1-2.8-.4-5.7-.5-8.9 1.6 2.7 3.1 5.2 4.6 7.7.5 1.2-.3 2.3-.4 3.4-.1 1-.4 2-.9 2.9-.1.2 0 .6-.2.8-.3.3-.1.9-.8.9z" fill="#ffed00"/><path d="m10 64.6c1.5-2.5 2.9-4.9 4.5-7.6 0 3.2.6 6.2-.5 9.1-.8 2.1-1.2 4.3-1.7 6.5-.7 0-.5-.6-.7-1-.8-1.8-1.2-3.8-1.7-5.8-.1-.4-.2-.8.1-1.2z" fill="#ffed00"/><path d="m23.7 28.6c0 .1 0 .1-.1.2s-.1.2-.2.3c-.1.1-.2.2-.2.3-3.2 4.6-6 9.4-7.2 15-.4 1.8-1.6 2.8-3 3.9 1.1-7.5 4.5-13.9 9.7-19.4.1-.1.1-.2.2-.2.1-.1.2-.2.2-.3.1-.1.2-.2.2-.3.1-.1.2-.2.2-.3.1-.1.2-.2.3-.2.1-.1.2-.2.2-.2.4 0 .4.2.2.4-.1.1-.1.2-.2.3-.1.1-.2.2-.2.3 0-.1-.1 0-.1.2z" fill="#fbe300"/><path d="m91.4 29.5c4.6 4.8 8.9 13.7 9 18.9-1-1.2-2.4-1.8-2.7-3.2-1.2-5.3-3.6-10.1-6.6-14.5-.1-.2-.2-.4-.4-.7-.1-.1-.2-.2-.2-.3-.2-.1-.1-.4-.3-.4 0-.1-.1-.2-.2-.3-.1-.1-.1-.2-.2-.3-.1 0-.1-.1-.1-.2 0-.2-.1-.3-.2-.3 0-.1-.1-.2-.2-.3-.1-.1-.1-.1-.1-.2s0-.1 0-.1c.1-.1.2-.1.3-.1s.2.1.3.1c.1.1.2.2.2.2.1.1.2.2.2.2.1.1.2.2.2.2.1.1.2.1.2.2.1.1.2.1.2.2.1.1.2.1.2.2.3.6.4.6.4.7z" fill="#fbe300"/><path d="m15.1 49.4c.1 3.9-2.1 7-3.9 10.2-.4.7-.8 1.5-1.2 2.2-.1.2-.1.3-.5.3-.5-2.4-.5-4.9-.3-7.4 1.9-1.9 3.9-3.9 5.8-5.8.2.1.2.3.1.5z" fill="#ffed00"/><path d="m98.3 48.9c1.9 1.9 3.9 3.9 5.8 5.8.2 2.1.3 4.3-.1 6.4-.1.4-.2.6-.6.5-1.4-2.4-2.9-4.9-4.2-7.3-.8-1.5-.5-3.2-.9-4.8-.1-.3-.1-.5 0-.6z" fill="#ffed00"/><path d="m80.1 97.3c0 .2 0 .3.1.6 4.8-2.7 9-6.2 12.6-10.4-.2-2.8.2-5.6-.2-8.5 0-.3 0-.5.5-.7v10c2.6-.4 5-.2 7.3-.3.2.5 0 .7-.3.8.2-.6-.2-.5-.6-.5-1.8 0-3.6 0-5.4 0-3.7 4.3-7.9 7.8-12.9 10.7.7.3 1.3.5 1.8.7-1.2.1-2.2-.3-2.9-1.3-.3-.3-.5-.7 0-1.1z" fill="#090b07"/><path d="m20.9 79.1c-.4 1.4-.1 2.8-.2 4.2v4.3c3.5 4.1 7.7 7.6 12.5 10.3 0-.3.1-.5.1-.6.7 1.3-.4 1.7-1.1 2.1-.5.4-1.1.5-1.8.3.5-.2 1.1-.4 1.8-.6-4.9-2.9-9.2-6.5-12.9-10.8-1.8 0-3.6 0-5.5 0-.3 0-.7-.1-.6.5-.3-.1-.4-.2-.5-.7 2.4 0 4.9-.2 7.4.2 0-3.2 0-6.6 0-9.9.8.1.7.4.8.7z" fill="#090b07"/><path d="m46 5.5v.6c.1.8-.1 1.7 0 2.5 0 .3 0 .6.2.9.1.2.1.5 0 .7 0 .3 0 .6.1.9.2 1.2.3 2.3.5 3.6-.1.3-.4.4-.9.3-.6-1.3-.5-2.8-.9-4.2-.1-.2-.2-.4.1-.6-.3.3-.3.6-.6.8-.5.1-.7-.2-.9-.6.5-1.4 1-2.8 1.2-4.4 0-.8.6-.9 1.2-.5z" fill="#ffeb00"/><path d="m7.7 63c .2 0 .4-.1.3-.4-.3-2.6-.5-5.1-.3-7.8-1.1-1.2-2.3-2.4-3.4-3.7 1.5.9 2.4 2.3 3.6 3.3.2 3 .3 5.8.5 8.7-.3.3-.5.2-.7-.1z" fill="#0c0e09"/><path d="m109.1 51.1c-1.1 1.2-2.2 2.4-3.4 3.7.1 2.6-.1 5.3-.4 7.9 0 .3.2.2.3.2-.1.3-.3.4-.6.2.1-2.9.5-5.7.4-8.6 1.3-1.1 2.2-2.5 3.7-3.4z" fill="#0c0e09"/><path d="m33.1 16.1c1.3-.2.8-1.5 1.5-2.2.7 0 1.3.6 2.1.6 0 .1 0 .3.1.4-1.2.5-2.4 1.1-3.6 1.6-.1-.1-.1-.2-.1-.4z" fill="#1a1a0a"/><path d="m46 10.2c0-.2-.1-.4-.1-.6-.1-.3 0-.6-.2-.9-.3-.9-.2-1.8.2-2.6.4.5.8.2 1.3.1 0 .4-.3 1 .5 1 .2.1.2.3 0 .4-.5.1-1 0-1.5.4v1.1c.2.3 0 .6.2.8v.3c-.1 0-.1 0-.2 0 0 .2-.1.2-.2 0z" fill="#25240e"/><path d="m96.8 84.7c-.4.6-.8 1.2-1.3 2h6.1c-.1.3-.3.5-.7.5-1.9-.2-3.9 0-5.9-.1.5-1.1.9-2 1.8-2.4z" fill="#0b0d08"/><path d="m11.7 86.7h5.9c.2-.4-.4-.6-.4-1 .6.2.9.6.9 1.3-1.6.2-3.1.2-4.7.1-.5-.1-1.3.5-1.7-.4z" fill="#0b0d08"/><path d="m94.3 76v8.9c.1.2.2.4.2.6v.2c-.1.1-.2.2-.5.6 0-2.9 0-5.6 0-8.3 0-.7-.3-1.4.3-2z" fill="#0b0d08"/><path d="m19.1 84.9c0-3 0-5.9 0-8.9.1.1.2.1.2.2v9.9c-.2-.2-.3-.4-.4-.5 0-.1 0-.1 0-.2-.1-.2 0-.4.2-.5z" fill="#0b0d08"/><path d="m15.1 79.8c.6.8 1.1 1.7 1.6 2.5-.3-.1-.6-.3-.9-.4-.5 1.2.9 1.8.8 2.8-.7-.9-1.4-1.7-1.8-2.8.3-.1.6-.2.8-.6 0-.5-.6-.9-.5-1.5z" fill="#0b0d08"/><path d="m9.2 54.7c.1 2.2-.1 4.4.3 6.6 0 .2-.2.8.5.4 0 .4-.1.6-.6.7-.4-2.6-.8-5.1-.2-7.7z" fill="#0c0e09"/><path d="m10 64.6c.1 1.9.7 3.8 1.2 5.6l.3 1.5c-1.1-2-1.4-4.2-1.8-6.4 0-.3 0-.6.3-.7z" fill="#0d0f09"/><path d="m103.9 61.3c.4-2.2.2-4.4.3-6.6.6 1.9.3 3.8.1 5.7 0 .6-.1 1.2-.2 1.7 0 .3-.2.5-.5.1.3-.3 0-.7.3-.9z" fill="#0c0e09"/><path d="m102.1 70.9c.4-1.7.8-3.3 1.2-5 .1-.4.1-.9.2-1.4.7.9 0 1.7-.1 2.6-.4 1.3-.5 2.7-1.3 3.8z" fill="#0d0e09"/><path d="m98.3 79.8c.6-1.2 1.2-2.4 1.8-3.6 0 1.5-.7 2.7-1.8 3.6z" fill="#0b0d08"/><path d="m9.7 70.2c-.7-1.6-.9-3.4-1.3-5.1.9 1.6 1 3.3 1.3 5.1z" fill="#0d0f09"/><path d="m13.3 76.2c.6 1 1.1 2 1.5 3.1-1.1-.7-1.7-1.8-1.5-3.1z" fill="#0b0d08"/><path d="m102.2 75.5c-.9.8-.9 2.2-1.8 3.1.4-1.1.2-2.6 1.8-3.1z" fill="#0b0d08"/><path d="m9.2 73.4c.4.1.9.2 1.4.3-.2-.6-.3-1.2-.4-1.7.6.4.6 1.1.8 1.8-.8.3-1.3.2-1.8-.4z" fill="#0d0f09"/><path d="m104.5 67.1c-.1 1.1-.3 2.1-.8 3.1 0-1.1.2-2.1.8-3.1z" fill="#0d0e09"/><path d="m98.6 81.9c-.3.8-.7 1.4-1.3 2 0-1 .6-1.5 1.3-2z" fill="#0b0d08"/><path d="m103.2 71.9c-.1.5-.3 1.1-.4 1.6.2.2.4 0 .6.1-.2.5-.6.3-1 .1.2-.6.2-1.3.8-1.8z" fill="#0d0e09"/><path d="m12.9 78.6c-.5-.6-.8-1.3-1-2.1.6.6 1 1.3 1 2.1z" fill="#0b0d08"/><path d="m11.5 71.6c.4.2.2.8.7 1 0 .2.1.5-.2.7-.3-.5-.6-1-.5-1.7z" fill="#0d0f09"/><path d="m94.8 84.9c.3-.4.6-.7.9-1.1 0 .7-.4 1.2-1 1.6l-.1-.1c0-.2 0-.3.2-.4z" fill="#0b0d08"/><path d="m101.1 72.6c.5-.1.3-.7.7-1 .1.6-.2 1.1-.5 1.7-.3-.2-.2-.5-.2-.7z" fill="#0d0e09"/><path d="m88.6 27.3c-.3-.2-.6-.6-.8-1.1.6 0 .9.4 1.1.7 0 .3-.1.4-.3.4z" fill="#c3b118"/><path d="m105 65.1c-.2.7-.2 1.4-.5 2.1-.1-.8-.1-1.5.5-2.1z" fill="#0d0e09"/><path d="m13.7 80.1c-.4-.4-.6-1-.8-1.5.6.3.8.9.8 1.5z" fill="#0b0d08"/><path d="m100.4 78.6c-.1.6-.4 1.1-.8 1.5.1-.6.3-1.2.8-1.5z" fill="#0b0d08"/><path d="m10.2 72c-.4-.5-.5-1.1-.5-1.8.5.5.5 1.1.5 1.8z" fill="#0d0f09"/><path d="m103.7 70.2c-.1.6-.2 1.2-.5 1.8-.1-.7 0-1.3.5-1.8z" fill="#0d0e09"/><path d="m24.4 27.7c-.1-.1-.1-.3-.2-.4l.5-.5c.2 0 .4 0 .3.3-.1.2-.3.5-.6.6z" fill="#dcc700"/><path d="m97.5 81c .1-.5.4-.9.8-1.3 0 .6-.2 1.1-.8 1.3z" fill="#0b0d08"/><path d="m14.7 81.9c-.4-.4-.6-.8-.7-1.3.6.2.7.7.7 1.3z" fill="#0b0d08"/><path d="m99.4 80.6c-.1.5-.4.9-.7 1.3-.1-.6.1-1.1.7-1.3z" fill="#0b0d08"/><path d="m96.7 82.3c.2-.5.4-.9.8-1.3 0 .6-.1 1.1-.8 1.3z" fill="#0b0d08"/><path d="m17.3 85.7c-.4-.3-.6-.6-.8-1 .5.1.8.4.8 1z" fill="#0b0d08"/><path d="m11.9 76.5c-.3-.3-.5-.7-.8-1 .8 0 .9.4.8 1z" fill="#0b0d08"/><path d="m17.6 83.8c.4.3.6.6.8 1-.5-.1-.8-.4-.8-1z" fill="#0b0d08"/><path d="m103.9 61.3c.1.3.2.7-.2.9-.1-.2-.2-.5-.3-.7.2-.1.3-.2.5-.2z" fill="#b7a620"/><path d="m13 75.2c.1.3.2.7.3 1-.3-.2-.7-.5-.3-1z" fill="#0b0d08"/><path d="m88.6 27.3c.1-.1.2-.2.3-.3.1.1.2.2.3.2.1.1.2.2.3.3.1.1.1.2 0 .3-.1 0-.2 0-.2 0-.1.1-.2.1-.2 0-.1-.1-.2-.1-.2-.2-.2-.1-.3-.2-.3-.3z" fill="#e2cd00"/><path d="m44.5 11c .1-.3.3-.5.5-1v .8c-.2 0-.4.1-.5.2z" fill="#6a622b"/><path d="m100 76.2c.1-.3.2-.7.3-1 .5.5.1.8-.3 1z" fill="#0b0d08"/><path d="m50.9 13.8c0-.3 0-.5 0-.8.2-.1.3-.1.5 0 0 .2 0 .3-.1.5-.1.1-.3.2-.4.3z" fill="#302d10"/><path d="m96.2 83.1c.1-.3.2-.6.5-.8.1.4 0 .7-.5.8z" fill="#0b0d08"/><path d="m16.6 82.3c.3.2.4.5.5.8-.4-.1-.6-.4-.5-.8z" fill="#0b0d08"/><path d="m17.1 83c .3.2.4.5.5.8-.4-.1-.6-.3-.5-.8z" fill="#0b0d08"/><path d="m95.7 83.8c.1-.3.2-.6.5-.8.1.5-.1.7-.5.8z" fill="#0b0d08"/><path d="m3.4 62.3c-.3.1-.2.4-.3.6-.2-.2-.2-.4-.1-.7.1-.2.3-.1.4.1z" fill="#8e822d"/><path d="m64 11c .1-.2.2-.4.4-.6.3.3.1.5-.1.6-.1 0-.2 0-.3 0z" fill="#83782e"/><path d="m97.3 83.9c-.1.3-.2.6-.5.8 0-.4.1-.7.5-.8z" fill="#0b0d08"/><path d="m110.3 62.8c-.1-.2 0-.5-.3-.6.1-.2.2-.2.4-.2.2.3.1.6-.1.8z" fill="#8e822e"/><path d="m98.3 48.9v.5c-.2-.2-.3-.4 0-.5-.1-.1 0-.1 0 0z" fill="#71682f"/><path d="m25 27c-.1-.1-.2-.2-.3-.3l.3-.3c.2-.1.3 0 .2.3-.1.1-.2.2-.2.3z" fill="#d4bf04"/><path d="m25.2 26.8c-.1-.1-.2-.2-.2-.3.1-.2.2-.3.4-.2.1.2 0 .3-.2.5z" fill="#bfad1b"/><path d="m101.8 71.7c0-.3 0-.6.2-.8.1.3.2.6-.2.8z" fill="#0d0e09"/><path d="m46 10.2h.2v.8c-.2-.2-.2-.5-.2-.8z" fill="#33311a"/><path d="m15.1 49.4c0-.2 0-.3 0-.5l.2-.2c.1.3-.1.5-.2.7z" fill="#726930"/><path d="m90.1 29.3c.2.1.3.2.3.4-.1 0-.2-.2-.3-.4z" fill="#e2cd00"/><path d="m14.8 79.3c.2.1.3.3.3.5-.3-.1-.3-.3-.3-.5z" fill="#0b0d08"/><path d="m14 80.6c-.2-.1-.3-.3-.3-.5.3.1.3.3.3.5z" fill="#0b0d08"/><path d="m18.4 84.8c.1 0 .1 0 .2.1.2.1.2.2.1.4l-.1.1c-.2-.1-.3-.3-.2-.6z" fill="#0b0d08"/><path d="m37.9 9.9c-.2 0-.3 0-.5 0v-.1c.1 0 .3-.1.4-.1.1.1.1.2.1.2z" fill="#7f742f"/><path d="m99.7 80.1c0 .2-.1.4-.3.5-.1-.2 0-.4.3-.5z" fill="#0b0d08"/><path d="m33.5 11.8v.2c-.1-.1-.1-.1-.2-.2z" fill="#020203"/><path d="m92 23.7c-.1.1-.1.1-.2.2-.1-.1 0-.2.2-.2z" fill="#f1da00"/><path d="m91.8 24.2c.1.1.1.1.2.2-.1-.1-.1-.1-.2-.2z" fill="#f1da00"/><path d="m92.9 24.5c-.1-.1-.1-.1-.2-.2.1 0 .1.1.2.2z" fill="#f1da00"/><path d="m92 24.4c.1.1.1.2.2.3-.1-.1-.1-.2-.2-.3z" fill="#f1da00"/><path d="m92.2 24.7c.1.1.2.2.2.3 0-.1-.1-.2-.2-.3z" fill="#f1da00"/><path d="m93.4 25c-.1-.1-.1-.1-.2-.2.1 0 .2.1.2.2z" fill="#f1da00"/><path d="m92.4 25c .1.1.2.2.2.3 0-.1-.1-.2-.2-.3z" fill="#f1da00"/><path d="m92.7 25.2c.1.1.2.2.3.3-.1-.1-.2-.2-.3-.3z" fill="#f1da00"/><path d="m89.2 27.2c-.1-.1-.2-.2-.3-.2.1.1.2.2.3.2z" fill="#c3b118"/><path d="m24.2 27.3c-.1.1-.2.2-.2.2 0-.1.1-.2.2-.2z" fill="#dcc700"/><path d="m89.4 27.5c-.1-.1-.2-.2-.3-.3.2.1.3.2.3.3z" fill="#c3b118"/><path d="m23.9 27.5c-.1.1-.1.2-.2.3.1-.1.1-.2.2-.3z" fill="#dcc700"/><path d="m88.7 27.5c.1.1.1.2.2.2 0 0-.1-.1-.2-.2z" fill="#c3b118"/><path d="m89.4 27.7c0-.1 0-.2 0-.3.1.1.2.2.3.3-.1 0-.2 0-.3 0z" fill="#c3b118"/><path d="m23.7 27.8c-.1.1-.2.2-.2.3 0-.2.1-.3.2-.3z" fill="#dcc700"/><path d="m91.4 29.5c-.1-.1-.1-.1-.2-.2.1.1.1.2.2.2z" fill="#e2cd00"/><path d="m24.2 28c .1-.1.1-.2.2-.3-.1.1-.2.2-.2.3z" fill="#dcc700"/><path d="m89.9 28c-.1-.1-.2-.2-.2-.2.1 0 .1.1.2.2z" fill="#e2cd00"/><path d="m88.9 27.7h.2v.3c0-.1-.1-.2-.2-.3z" fill="#c3b118"/><path d="m23.4 28c-.1.1-.2.2-.2.3 0-.1.1-.2.2-.3z" fill="#dcc700"/><path d="m23.9 28.3c.1-.1.1-.2.2-.3 0 .1-.1.2-.2.3z" fill="#dcc700"/><path d="m89.2 28c .1.1.1.2.2.3-.1-.1-.1-.2-.2-.3z" fill="#e2cd00"/><path d="m90.2 28.3c-.1-.1-.2-.2-.2-.2s.1.1.2.2z" fill="#e2cd00"/><path d="m23.2 28.3c-.1.1-.2.2-.2.3 0-.2.1-.2.2-.3z" fill="#dcc700"/><path d="m23.7 28.6c.1-.1.2-.2.2-.3 0 .1-.1.2-.2.3z" fill="#dcc700"/><path d="m89.4 28.3c.1.1.2.2.2.3 0-.1-.1-.2-.2-.3z" fill="#e2cd00"/><path d="m90.4 28.5c-.1-.1-.2-.2-.2-.2.1.1.1.1.2.2z" fill="#e2cd00"/><path d="m22.9 28.5c-.1.1-.1.2-.2.3.1-.1.1-.2.2-.3z" fill="#dcc700"/><path d="m90.7 28.8c-.1-.1-.2-.2-.2-.2s.1.1.2.2z" fill="#e2cd00"/><path d="m18.8 85.6c-.1-.1-.2-.2-.2-.2l.1-.1c.1.1.2.1.1.3z" fill="#0b0d08"/><path d="m94.8 85.4c-.1.1-.2.2-.2.2l-.1-.1c0-.1 0-.1.3-.1z" fill="#0b0d08"/><path d="m23.4 29c .1-.1.1-.2.2-.3-.1.1-.1.2-.2.3z" fill="#dcc700"/><path d="m89.7 28.8c.1.1.1.2.2.3 0-.2-.1-.3-.2-.3z" fill="#e2cd00"/><path d="m90.9 29c-.1-.1-.2-.2-.2-.2.1.1.1.2.2.2z" fill="#e2cd00"/><path d="m23.2 29.3c.1-.1.2-.2.2-.3-.1.1-.1.2-.2.3z" fill="#dcc700"/><path d="m89.9 29c .1.1.1.2.2.3 0-.1-.1-.2-.2-.3z" fill="#e2cd00"/><path d="m91.2 29.3c-.1-.1-.1-.2-.2-.2 0 0 .1.1.2.2z" fill="#e2cd00"/><path d="m90.5 29.8c.1.1.1.2.2.3-.1-.1-.2-.2-.2-.3z" fill="#e2cd00"/><path d="m57.8 64.9v17.4c6.8.6 17.7-6.1 20.6-12.7-4.1 0-8.2 0-12.5 0-.6 1.2-1.3 2.5-2 3.9-.8-.4-1.5-.7-2.3-1.1.9-1.8 1.8-3.6 2.7-5.3h18.3c-2.6 8.3-12.3 18.1-26.3 18.2-14 0-23.8-9.8-26.4-18.1 1-.2 17-.2 18.3 0 .8 1.7 1.7 3.4 2.6 5.2-.6.6-1.4.8-2.2 1.3-.7-1.3-1.4-2.6-2.1-4-4.1 0-8.2 0-12.3 0 1.5 5.8 13.6 13.4 20.5 12.8.2-1 .2-15.8 0-17.2-.4-.3-.9-.2-1.3-.2-6.1 0-12.2 0-18.3 0-.4 0-.8 0-1.1 0-4.1 0-5.8-1.5-6.2-5.6-.3-2.2-.2-4.5.2-6.7.4-2.5 2.4-4 5.2-4h14.3 7.2c0-5.9 0-11.7 0-17.4-6.8-.6-17.7 6.1-20.6 12.7h12.5c.6-1.2 1.3-2.5 2-3.9.8.4 1.5.7 2.3 1.1-.9 1.8-1.8 3.6-2.7 5.3-6.2 0-12.2 0-18.3 0 2.5-8.1 12.1-18.1 26.3-18.2 14.2 0 23.9 10 26.4 18.1-1.1.2-17 .2-18.3 0-.8-1.7-1.7-3.4-2.6-5.3.7-.4 1.4-.7 2.2-1.1.7 1.3 1.4 2.6 2.1 4h6.2s4 0 6.1 0c-1.5-6-13.6-13.6-20.5-13v17.2c.4.4.9.2 1.3.2h18.7.8c4.2 0 5.8 1.5 6.2 5.7.2 2.2.1 4.4-.2 6.6-.4 2.5-2.4 4-5.4 4-6.6 0-13.3 0-19.9 0-.5.1-.9.1-1.5.1z" fill="#ffed00"/><path d="m63.4 109.9c-2.4-1.6-4.6-3-6.7-4.4-2.2 1.4-4.3 2.8-6.8 4.4.7-2.6 1.4-5 2.1-7.4-1.8-1.5-3.6-2.9-5.6-4.6h7.3c1-2.4 1.9-4.8 2.9-7.5 1 2.6 2 5 2.9 7.3h7c0 .1.1.2.1.3-1.9 1.4-3.7 2.9-5.7 4.4.9 2.4 1.6 4.7 2.5 7.5z" fill="#ffed00"/><path d="m18.9 85.6c-.1-.1-.1-.2-.2-.3 0-.1-.1-.3-.1-.4h.5c0 .2.1.5-.2.7z" fill="#b1a121"/><path d="m94.7 85.3c-.1.1-.1.2-.2.3-.3-.2-.3-.4-.2-.7h.5c0 .1-.1.3-.1.4z" fill="#b1a122"/><path d="m77.8 13c .3-.3.6-.6.9-.9.4.2.8.4 1.3.6-.5 1-1.1 1.8-1.9 2.6-.4-.9.2-1.7-.3-2.3z" fill="#191909"/><path d="m76.8 14.3v1.7c-.6.4-1.3.5-2.1.6.5-1.1.9-2 1.4-3 .2.1.4.2.7.3.1 0 .1.2 0 .4z" fill="#181807"/><path d="m73.1 12.9c.6.3 1.1.5 1.7.8-.3.6-.5 1-.7 1.5-.6-.1-1.1-.4-1.6-.7-.1-.5.3-1 .6-1.6z" fill="#1d1d0b"/><path d="m76.9 12.2c-.4.4-.6.6-.9.8-.3-.1-.7-.3-1-.4-.1-.5.2-.7.4-1.1.4.2.8.4 1.5.7z" fill="#322f15"/><path d="m76.8 14.3c0-.2 0-.4 0-.6l.1-.1c.2.3 0 .5-.1.7z" fill="#655e2f"/><path d="m50.5 10.8c-.2-.3-.2-.5 0-.8.4 0 .8-.1 1.2-.1.2.3.2.5 0 .8-.3 0-.7.1-1.2.1z" fill="#373418"/><path d="m51.3 13c-.2 0-.3 0-.5 0 0-.2 0-.3-.1-.5s-.1-.4 0-.5c.2-.2.5 0 .8-.2.3-.1.6 0 .5.4.1.2.1.4 0 .6h-.1c-.2.1-.4.1-.6.2z" fill="#020203"/><path d="m47.8 11.2c0-1.2 1-.4 1.3-1 .1 1 .1 1-1.3 1z" fill="#312f18"/><path d="m51.8 8.3c-.5.8-1.1.6-1.8.7.4-1 1-.8 1.8-.7z" fill="#33301b"/><path d="m47.4 8.8c.6 0 1.1-.1 1.7-.1-.8.9-1.2.9-1.7.1z" fill="#333017"/><path d="m49.8 5.9c-.1.1-.2.3-.3.4s-.3.2-.4.3c-.3-.1-.6-.2-1-.3.6-.5 1.2-.4 1.7-.4z" fill="#565023"/><path d="m51.6 11.8c-.2.3-.5.2-.8.2.2-.2.5-.2.8-.2z" fill="#302d10"/><path d="m46.5 10c-.3-.2-.2-.5-.2-.8.2.2.2.5.2.8z" fill="#33311a"/><path d="m47.8 7.7c0-.1 0-.3 0-.4.1.1.3.1.4.2-.1.2-.3.2-.4.2z" fill="#71682c"/><path d="m51.3 13c .1-.3.3-.3.6-.2-.2.1-.4.2-.6.2z" fill="#302d10"/><path d="m52.1 12.7c0-.2 0-.4 0-.6.2.3.4.5 0 .6z" fill="#302d10"/><path d="m50.8 12v .5c-.1-.1-.4-.3 0-.5z" fill="#302d10"/><path d="m49.8 5.9c0-.1.1-.1.1-.2.1.2 0 .2-.1.2z" fill="#ad9d29"/><path d="m34.1 11.4c1-.5 1.9-.9 2.9-1.3.1 1.3-.1 2.4-.5 3.4-.6-.2-1.2-.4-1.7-.6-.5-.4.2-1.2-.7-1.5z" fill="#161607"/><path d="m33.6 11.8c0-.2 0-.3.2-.1-.1 0-.2 0-.2.1-.1 0 0 0 0 0z" fill="#7c722f"/><path d="m45.8 8.7c.3.2.2.6.2.9-.3-.3-.2-.6-.2-.9z" fill="#33311a"/><path d="m57.8 62.1c0-3.7 0-7.1 0-10.6.5-.3.9-.2 1.3-.2h19.9c2.1 0 2.6.4 3 2.6.3 2.1.3 4.1-.1 6.2-.3 1.4-.8 2-2.2 2-.3 0-.5 0-.8 0-6.5 0-13 0-19.5 0-.5 0-1 0-1.6 0z" fill="#e73631"/><path d="m55 51.3v10.6c-.4.3-.9.2-1.3.2-6.6 0-13.3 0-19.9 0-2.2 0-2.6-.4-3-2.6-.3-2.1-.3-4.1.1-6.2.3-1.4.8-2 2.2-2h .8 19.5z" fill="#e73631"/></svg>